<?xml version='1.0' encoding='utf-8'?>
<svg width="63.194mm" height="46.987mm" viewBox="-23.493 -23.493 63.194 46.987" version="1.1" xmlns="http://www.w3.org/2000/svg">
  <g transform="scale(1,-1)" stroke-linecap="round">
    <g fill="none" stroke="rgb(0,0,0)" stroke-width="0.5867" id="Visible">
      <path d="M 0.0,20.0 L -1.743,19.924 L -3.473,19.696 L -5.176,19.319 L -6.84,18.794 L -8.452,18.126 L -10.0,17.32 L -11.472,16.383 L -12.856,15.321 L -14.142,14.142 L -15.321,12.856 L -16.383,11.472 L -17.32,10.0 L -18.126,8.452 L -18.794,6.84 L -19.319,5.176 L -19.696,3.473 L -19.924,1.743 L -20.0,-0.0 L -19.924,-1.743 L -19.696,-3.473 L -19.319,-5.176 L -18.794,-6.84 L -18.126,-8.452 L -17.32,-10.0 L -16.383,-11.472 L -15.321,-12.856 L -14.142,-14.142 L -12.856,-15.321 L -11.472,-16.383 L -10.0,-17.32 L -8.452,-18.126 L -6.84,-18.794 L -5.176,-19.319 L -3.473,-19.696 L -1.743,-19.924 L 0.0,-20.0 L 1.743,-19.924 L 3.473,-19.696 L 5.176,-19.319 L 6.84,-18.794 L 8.452,-18.126 L 10.0,-17.32 L 11.472,-16.383 L 12.856,-15.321 L 14.142,-14.142 L 15.321,-12.856 L 16.383,-11.472 L 17.32,-10.0 L 18.126,-8.452 L 18.794,-6.84 L 19.319,-5.176 L 19.696,-3.473 L 19.924,-1.743 L 20.0,0.0 L 19.924,1.743 L 19.696,3.473 L 19.319,5.176 L 18.794,6.84 L 18.126,8.452 L 17.32,10.0 L 16.383,11.472 L 15.321,12.856 L 14.142,14.142 L 12.856,15.321 L 11.472,16.383 L 10.0,17.32 L 8.452,18.126 L 6.84,18.794 L 5.176,19.319 L 3.473,19.696 L 1.743,19.924 L -0.0,20.0" />
      <path d="M 0.0,5.05 L -0.877,4.973 L -1.307,4.878 L -2.134,4.577 L -2.897,4.137 L -3.571,3.571 L -4.137,2.897 L -4.577,2.134 L -4.878,1.307 L -4.973,0.877 L -5.05,0.0 L -4.973,-0.877 L -4.878,-1.307 L -4.577,-2.134 L -4.137,-2.897 L -3.571,-3.571 L -2.897,-4.137 L -2.134,-4.577 L -1.307,-4.878 L -0.877,-4.973 L -0.0,-5.05 L 0.877,-4.973 L 1.307,-4.878 L 2.134,-4.577 L 2.897,-4.137 L 3.571,-3.571 L 4.137,-2.897 L 4.577,-2.134 L 4.878,-1.307 L 4.973,-0.877 L 5.05,-0.0 L 4.973,0.877 L 4.878,1.307 L 4.577,2.134 L 4.137,2.897 L 3.571,3.571 L 2.897,4.137 L 2.134,4.577 L 1.307,4.878 L 0.877,4.973 L 0.0,5.05" />
      <path d="M 24.134,-20.0 L 24.038,-13.891 L 24.0,-0.0 L 24.038,13.89 L 24.134,20.0" />
      <line x1="34.134" y1="20.0" x2="24.134" y2="20.0" />
      <path d="M 34.134,20.0 L 34.196,17.752 L 34.246,11.0" />
      <path d="M 34.246,-11.0 L 34.196,-17.752 L 34.134,-20.0" />
      <path d="M 34.134,-20.0 L 34.041,-14.446 L 34.0,-0.556 L 34.037,13.89 L 34.134,20.0" />
      <path d="M 34.134,-11.0 L 34.06,-0.306 L 34.134,11.0" />
      <path d="M 36.134,5.05 L 36.168,0.14 L 36.134,-5.05" />
      <path d="M 36.134,-5.05 L 36.1,-0.14 L 36.134,5.05" />
      <line x1="36.134" y1="11.0" x2="34.134" y2="11.0" />
      <path d="M 36.134,11.0 L 36.208,0.306 L 36.134,-11.0" />
      <path d="M 36.134,-11.0 L 36.06,-0.306 L 36.134,11.0" />
      <line x1="34.134" y1="-20.0" x2="24.134" y2="-20.0" />
      <line x1="36.134" y1="-11.0" x2="34.134" y2="-11.0" />
    </g>
    <g fill="none" stroke="rgb(0,0,0)" stroke-width="0.4694" id="Hidden" stroke-dasharray="5.633 1.408">
      <path d="M 0.0,20.0 L -1.743,19.924 L -3.473,19.696 L -5.176,19.319 L -6.84,18.794 L -8.452,18.126 L -10.0,17.32 L -11.472,16.383 L -12.856,15.321 L -14.142,14.142 L -15.321,12.856 L -16.383,11.472 L -17.32,10.0 L -18.126,8.452 L -18.794,6.84 L -19.319,5.176 L -19.696,3.473 L -19.924,1.743 L -20.0,-0.0 L -19.924,-1.743 L -19.696,-3.473 L -19.319,-5.176 L -18.794,-6.84 L -18.126,-8.452 L -17.32,-10.0 L -16.383,-11.472 L -15.321,-12.856 L -14.142,-14.142 L -12.856,-15.321 L -11.472,-16.383 L -10.0,-17.32 L -8.452,-18.126 L -6.84,-18.794 L -5.176,-19.319 L -3.473,-19.696 L -1.743,-19.924 L 0.0,-20.0 L 1.743,-19.924 L 3.473,-19.696 L 5.176,-19.319 L 6.84,-18.794 L 8.452,-18.126 L 10.0,-17.32 L 11.472,-16.383 L 12.856,-15.321 L 14.142,-14.142 L 15.321,-12.856 L 16.383,-11.472 L 17.32,-10.0 L 18.126,-8.452 L 18.794,-6.84 L 19.319,-5.176 L 19.696,-3.473 L 19.924,-1.743 L 20.0,0.0 L 19.924,1.743 L 19.696,3.473 L 19.319,5.176 L 18.794,6.84 L 18.126,8.452 L 17.32,10.0 L 16.383,11.472 L 15.321,12.856 L 14.142,14.142 L 12.856,15.321 L 11.472,16.383 L 10.0,17.32 L 8.452,18.126 L 6.84,18.794 L 5.176,19.319 L 3.473,19.696 L 1.743,19.924 L -0.0,20.0" />
      <path d="M 0.0,11.0 L -0.959,10.958 L -1.91,10.833 L -2.847,10.625 L -3.762,10.337 L -4.649,9.969 L -5.5,9.526 L -6.309,9.011 L -7.071,8.427 L -7.778,7.778 L -8.427,7.071 L -9.011,6.309 L -9.526,5.5 L -9.969,4.649 L -10.337,3.762 L -10.625,2.847 L -10.833,1.91 L -10.958,0.959 L -11.0,-0.0 L -10.958,-0.959 L -10.833,-1.91 L -10.625,-2.847 L -10.337,-3.762 L -9.969,-4.649 L -9.526,-5.5 L -9.011,-6.309 L -8.427,-7.071 L -7.778,-7.778 L -7.071,-8.427 L -6.309,-9.011 L -5.5,-9.526 L -4.649,-9.969 L -3.762,-10.337 L -2.847,-10.625 L -1.91,-10.833 L -0.959,-10.958 L 0.0,-11.0 L 0.959,-10.958 L 1.91,-10.833 L 2.847,-10.625 L 3.762,-10.337 L 4.649,-9.969 L 5.5,-9.526 L 6.309,-9.011 L 7.071,-8.427 L 7.778,-7.778 L 8.427,-7.071 L 9.011,-6.309 L 9.526,-5.5 L 9.969,-4.649 L 10.337,-3.762 L 10.625,-2.847 L 10.833,-1.91 L 10.958,-0.959 L 11.0,0.0 L 10.958,0.959 L 10.833,1.91 L 10.625,2.847 L 10.337,3.762 L 9.969,4.649 L 9.526,5.5 L 9.011,6.309 L 8.427,7.071 L 7.778,7.778 L 7.071,8.427 L 6.309,9.011 L 5.5,9.526 L 4.649,9.969 L 3.762,10.337 L 2.847,10.625 L 1.91,10.833 L 0.959,10.958 L -0.0,11.0" />
      <path d="M 0.0,5.05 L -0.877,4.973 L -1.307,4.878 L -2.134,4.577 L -2.897,4.137 L -3.571,3.571 L -4.137,2.897 L -4.577,2.134 L -4.878,1.307 L -4.973,0.877 L -5.05,0.0 L -4.973,-0.877 L -4.878,-1.307 L -4.577,-2.134 L -4.137,-2.897 L -3.571,-3.571 L -2.897,-4.137 L -2.134,-4.577 L -1.307,-4.878 L -0.877,-4.973 L -0.0,-5.05 L 0.877,-4.973 L 1.307,-4.878 L 2.134,-4.577 L 2.897,-4.137 L 3.571,-3.571 L 4.137,-2.897 L 4.577,-2.134 L 4.878,-1.307 L 4.973,-0.877 L 5.05,-0.0 L 4.973,0.877 L 4.878,1.307 L 4.577,2.134 L 4.137,2.897 L 3.571,3.571 L 2.897,4.137 L 2.134,4.577 L 1.307,4.878 L 0.877,4.973 L 0.0,5.05" />
      <path d="M 0.0,11.0 L -0.959,10.958 L -1.91,10.833 L -2.847,10.625 L -3.762,10.337 L -4.649,9.969 L -5.5,9.526 L -6.309,9.011 L -7.071,8.427 L -7.778,7.778 L -8.427,7.071 L -9.011,6.309 L -9.526,5.5 L -9.969,4.649 L -10.337,3.762 L -10.625,2.847 L -10.833,1.91 L -10.958,0.959 L -11.0,-0.0 L -10.958,-0.959 L -10.833,-1.91 L -10.625,-2.847 L -10.337,-3.762 L -9.969,-4.649 L -9.526,-5.5 L -9.011,-6.309 L -8.427,-7.071 L -7.778,-7.778 L -7.071,-8.427 L -6.309,-9.011 L -5.5,-9.526 L -4.649,-9.969 L -3.762,-10.337 L -2.847,-10.625 L -1.91,-10.833 L -0.959,-10.958 L 0.0,-11.0 L 0.959,-10.958 L 1.91,-10.833 L 2.847,-10.625 L 3.762,-10.337 L 4.649,-9.969 L 5.5,-9.526 L 6.309,-9.011 L 7.071,-8.427 L 7.778,-7.778 L 8.427,-7.071 L 9.011,-6.309 L 9.526,-5.5 L 9.969,-4.649 L 10.337,-3.762 L 10.625,-2.847 L 10.833,-1.91 L 10.958,-0.959 L 11.0,0.0 L 10.958,0.959 L 10.833,1.91 L 10.625,2.847 L 10.337,3.762 L 9.969,4.649 L 9.526,5.5 L 9.011,6.309 L 8.427,7.071 L 7.778,7.778 L 7.071,8.427 L 6.309,9.011 L 5.5,9.526 L 4.649,9.969 L 3.762,10.337 L 2.847,10.625 L 1.91,10.833 L 0.959,10.958 L -0.0,11.0" />
      <path d="M 24.134,20.0 L 24.227,14.446 L 24.268,0.556 L 24.231,-13.89 L 24.134,-20.0" />
      <line x1="34.246" y1="11.0" x2="34.246" y2="-11.0" />
      <path d="M 24.134,5.05 L 24.168,0.0 L 24.134,-5.05" />
      <path d="M 24.134,-5.05 L 24.1,-0.281 L 24.134,5.05" />
      <path d="M 34.134,11.0 L 34.208,0.306 L 34.134,-11.0" />
      <line x1="36.134" y1="5.05" x2="24.134" y2="5.05" />
      <line x1="36.134" y1="-5.05" x2="24.134" y2="-5.05" />
    </g>
    <g fill="none" stroke="rgb(0,0,0)" stroke-width="0.352" id="Center">
      <line x1="0.0" y1="0.0" x2="-8.923" y2="0.0" />
      <line x1="-10.708" y1="0.0" x2="-12.492" y2="0.0" />
      <line x1="-14.277" y1="0.0" x2="-23.2" y2="0.0" />
      <line x1="0.0" y1="0.0" x2="8.923" y2="0.0" />
      <line x1="10.708" y1="0.0" x2="12.492" y2="0.0" />
      <line x1="14.277" y1="0.0" x2="23.2" y2="0.0" />
      <line x1="0.0" y1="0.0" x2="0.0" y2="-8.923" />
      <line x1="0.0" y1="-10.708" x2="0.0" y2="-12.492" />
      <line x1="0.0" y1="-14.277" x2="0.0" y2="-23.2" />
      <line x1="0.0" y1="0.0" x2="0.0" y2="8.923" />
      <line x1="0.0" y1="10.708" x2="0.0" y2="12.492" />
      <line x1="0.0" y1="14.277" x2="0.0" y2="23.2" />
      <line x1="30.104" y1="0.0" x2="26.525" y2="0.0" />
      <line x1="25.81" y1="0.0" x2="25.094" y2="0.0" />
      <line x1="24.378" y1="0.0" x2="20.8" y2="0.0" />
      <line x1="30.104" y1="0.0" x2="33.682" y2="0.0" />
      <line x1="34.398" y1="0.0" x2="35.114" y2="0.0" />
      <line x1="35.829" y1="0.0" x2="39.408" y2="0.0" />
    </g>
  </g>
</svg>