<?xml version='1.0' encoding='utf-8'?>
<svg width="40.2292mm" height="28.0953mm" viewBox="-13.8583 -14.3695 40.2292 28.0953" version="1.1" xmlns="http://www.w3.org/2000/svg">
  <g transform="scale(1,-1)" stroke-linecap="round">
    <g fill="none" stroke="rgb(0,0,0)" stroke-width="0.4" id="Visible">
      <path d="M -0.0916,10.2288 L -0.9427,10.1923 L -1.7874,10.0825 L -2.6196,9.9001 L -3.4329,9.6468 L -4.2214,9.3244 L -4.9792,8.9354 L -5.7009,8.4829 L -6.3812,7.9701 L -7.015,7.401 L -7.5979,6.7797 L -8.1255,6.1109 L -8.5942,5.3996 L -9.0005,4.6509 L -9.3417,3.8703 L -9.6152,3.0636 L -9.8193,2.2365 L -9.9525,1.3951 L -10.0138,0.5455 L -10.0031,-0.3063 L -9.9204,-1.1542 L -9.7664,-1.992 L -9.5422,-2.8138 L -9.2496,-3.6139 L -8.8907,-4.3864 L -8.4681,-5.1261 L -7.9848,-5.8276 L -7.4444,-6.4861 L -6.8507,-7.097 L -6.2079,-7.656 L -5.5206,-8.1593 L -4.7936,-8.6033 L -4.0321,-8.9851 L -3.2414,-9.3021 L -2.427,-9.5521 L -1.5946,-9.7333 L -0.7501,-9.8447 L 0.1008,-9.8856 L 0.9522,-9.8556 L 1.7981,-9.7552 L 2.6328,-9.5849 L 3.4505,-9.3462 L 4.2457,-9.0406 L 5.0129,-8.6703 L 5.7469,-8.2379 L 6.4427,-7.7464 L 7.0956,-7.1993 L 7.7012,-6.6002 L 8.2555,-5.9533 L 8.7547,-5.263 L 9.1954,-4.534 L 9.5748,-3.7712 L 9.8904,-2.98 L 10.14,-2.1655 L 10.3221,-1.3333 L 10.4354,-0.489 L 10.4793,0.3618 L 10.4535,1.2133 L 10.3582,2.0598 L 10.1942,2.8958 L 9.9625,3.7155 L 9.6648,4.5137 L 9.3031,5.285 L 8.8798,6.0243 L 8.3978,6.7267 L 7.8603,7.3876 L 7.2709,8.0026 L 6.6335,8.5678 L 5.9524,9.0795 L 5.232,9.5342 L 4.4772,9.9291 L 3.6928,10.2616 L 2.8842,10.5295" />
      <path d="M 2.8842,10.5295 L 2.8706,10.4877 L 2.8571,10.4459 L 2.8436,10.4042 L 2.83,10.3624 L 2.8165,10.3206 L 2.8029,10.2789 L 2.7894,10.2371 L 2.7759,10.1953 L 2.7623,10.1535 L 2.7488,10.1118 L 2.7352,10.07 L 2.7217,10.0282 L 2.7082,9.9865 L 2.6946,9.9447 L 2.6811,9.9029 L 2.6675,9.8612 L 2.654,9.8194 L 2.6405,9.7776 L 2.6269,9.7359 L 2.6134,9.6941 L 2.5999,9.6523 L 2.5863,9.6105 L 2.5728,9.5688 L 2.5592,9.527 L 2.5457,9.4852 L 2.5322,9.4435 L 2.5186,9.4017 L 2.5051,9.3599 L 2.4915,9.3182 L 2.478,9.2764 L 2.4645,9.2346 L 2.4509,9.1929 L 2.4374,9.1511 L 2.4239,9.1093 L 2.4103,9.0675 L 2.3968,9.0258 L 2.3832,8.984 L 2.3697,8.9422 L 2.3562,8.9005 L 2.3426,8.8587 L 2.3291,8.8169 L 2.3155,8.7752 L 2.302,8.7334 L 2.2885,8.6916 L 2.2749,8.6499 L 2.2614,8.6081 L 2.2478,8.5663 L 2.2343,8.5246 L 2.2208,8.4828 L 2.2072,8.441 L 2.1937,8.3992 L 2.1802,8.3575 L 2.1666,8.3157 L 2.1531,8.2739 L 2.1395,8.2322 L 2.126,8.1904 L 2.1125,8.1486 L 2.0989,8.1069 L 2.0854,8.0651 L 2.0718,8.0233 L 2.0583,7.9816 L 2.0448,7.9398 L 2.0312,7.898 L 2.0177,7.8562 L 2.0042,7.8145 L 1.9906,7.7727 L 1.9771,7.7309 L 1.9635,7.6892 L 1.95,7.6474 L 1.9365,7.6056 L 1.9229,7.5639 L 1.9094,7.5221" />
      <path d="M 0.1953,6.7273 L -0.3029,6.7074 L -0.7981,6.6484 L -1.2871,6.5507 L -1.7668,6.4148 L -2.2343,6.2414 L -2.6867,6.0316 L -3.121,5.7867 L -3.5345,5.508 L -3.9246,5.1974 L -4.2887,4.8567 L -4.6244,4.488 L -4.9296,4.0937 L -5.2023,3.6763 L -5.4406,3.2383 L -5.643,2.7826 L -5.8081,2.312 L -5.9347,1.8298 L -6.0219,1.3388 L -6.0691,0.8424 L -6.0759,0.3438 L -6.0423,-0.1536 L -5.9683,-0.6468 L -5.8544,-1.1322 L -5.7012,-1.6067 L -5.5098,-2.0671 L -5.2813,-2.5103 L -5.0172,-2.9333 L -4.7193,-3.3331 L -4.3894,-3.7071 L -4.0299,-4.0526 L -3.6431,-4.3672 L -3.2316,-4.6488 L -2.7982,-4.8953 L -2.3458,-5.105 L -1.8775,-5.2763 L -1.3966,-5.4081 L -0.9064,-5.4993 L -0.4103,-5.5493 L 0.0882,-5.5576 L 0.5857,-5.524 L 1.0786,-5.4489 L 1.5635,-5.3325 L 2.0368,-5.1758 L 2.4953,-4.9797 L 2.9355,-4.7456 L 3.3544,-4.4751 L 3.7488,-4.17 L 4.1159,-3.8326 L 4.453,-3.4653 L 4.7577,-3.0705 L 5.0276,-2.6513 L 5.2607,-2.2105 L 5.4553,-1.7514 L 5.6098,-1.2774 L 5.7232,-0.7918 L 5.7944,-0.2983 L 5.8229,0.1995 L 5.8085,0.6979 L 5.7512,1.1932 L 5.6513,1.6817 L 5.5095,2.1597 L 5.3269,2.6237 L 5.1048,3.0701 L 4.8448,3.4955 L 4.5487,3.8967 L 4.2189,4.2707 L 3.8577,4.6144 L 3.4679,4.9253 L 3.0525,5.201 L 2.6145,5.4393 L 2.1573,5.6383 L 1.6845,5.7964" />
      <path d="M 1.9094,7.5221 L 1.9063,7.4981 L 1.9031,7.4742 L 1.9,7.4502 L 1.8969,7.4262 L 1.8938,7.4023 L 1.8906,7.3783 L 1.8875,7.3543 L 1.8844,7.3304 L 1.8813,7.3064 L 1.8781,7.2824 L 1.875,7.2585 L 1.8719,7.2345 L 1.8688,7.2105 L 1.8656,7.1865 L 1.8625,7.1626 L 1.8594,7.1386 L 1.8563,7.1146 L 1.8531,7.0907 L 1.85,7.0667 L 1.8469,7.0427 L 1.8438,7.0188 L 1.8407,6.9948 L 1.8375,6.9708 L 1.8344,6.9469 L 1.8313,6.9229 L 1.8282,6.8989 L 1.825,6.875 L 1.8219,6.851 L 1.8188,6.827 L 1.8157,6.8031 L 1.8125,6.7791 L 1.8094,6.7551 L 1.8063,6.7312 L 1.8032,6.7072 L 1.8,6.6832 L 1.7969,6.6593 L 1.7938,6.6353 L 1.7907,6.6113 L 1.7875,6.5874 L 1.7844,6.5634 L 1.7813,6.5394 L 1.7782,6.5155 L 1.775,6.4915 L 1.7719,6.4675 L 1.7688,6.4436 L 1.7657,6.4196 L 1.7626,6.3956 L 1.7594,6.3716 L 1.7563,6.3477 L 1.7532,6.3237 L 1.7501,6.2997 L 1.7469,6.2758 L 1.7438,6.2518 L 1.7407,6.2278 L 1.7376,6.2039 L 1.7344,6.1799 L 1.7313,6.1559 L 1.7282,6.132 L 1.7251,6.108 L 1.7219,6.084 L 1.7188,6.0601 L 1.7157,6.0361 L 1.7126,6.0121 L 1.7094,5.9882 L 1.7063,5.9642 L 1.7032,5.9402 L 1.7001,5.9163 L 1.697,5.8923 L 1.6938,5.8683 L 1.6907,5.8444 L 1.6876,5.8204 L 1.6845,5.7964" />
      <path d="M 0.1953,6.7273 L 0.1953,6.7759 L 0.1953,6.8245 L 0.1953,6.8731 L 0.1953,6.9217 L 0.1953,6.9704 L 0.1953,7.019 L 0.1953,7.0676 L 0.1953,7.1162 L 0.1953,7.1648 L 0.1953,7.2134 L 0.1953,7.262 L 0.1953,7.3106 L 0.1953,7.3592 L 0.1953,7.4079 L 0.1953,7.4565 L 0.1953,7.5051 L 0.1953,7.5537 L 0.1953,7.6023 L 0.1953,7.6509 L 0.1953,7.6995 L 0.1953,7.7481 L 0.1953,7.7967 L 0.1953,7.8454 L 0.1953,7.894 L 0.1953,7.9426 L 0.1953,7.9912 L 0.1953,8.0398 L 0.1953,8.0884 L 0.1953,8.137 L 0.1953,8.1856 L 0.1953,8.2342 L 0.1953,8.2829 L 0.1953,8.3315 L 0.1953,8.3801 L 0.1953,8.4287 L 0.1953,8.4773 L 0.1953,8.5259 L 0.1953,8.5745 L 0.1953,8.6231 L 0.1953,8.6717 L 0.1953,8.7204 L 0.1953,8.769 L 0.1953,8.8176 L 0.1953,8.8662 L 0.1953,8.9148 L 0.1953,8.9634 L 0.1953,9.012 L 0.1953,9.0606 L 0.1953,9.1092 L 0.1953,9.1579 L 0.1953,9.2065 L 0.1953,9.2551 L 0.1953,9.3037 L 0.1953,9.3523 L 0.1953,9.4009 L 0.1953,9.4495 L 0.1953,9.4981 L 0.1953,9.5467 L 0.1953,9.5954 L 0.1953,9.644 L 0.1953,9.6926 L 0.1953,9.7412 L 0.1953,9.7898 L 0.1953,9.8384 L 0.1953,9.887 L 0.1953,9.9356 L 0.1953,9.9842 L 0.1953,10.0329 L 0.1953,10.0815 L 0.1953,10.1301 L 0.1953,10.1787 L 0.1953,10.2273" />
      <path d="M 0.1953,10.2273 L -0.5835,10.196 L -1.3573,10.1032 L -2.1214,9.9492 L -2.8708,9.7351 L -3.6008,9.462 L -4.3068,9.1317 L -4.9841,8.7461 L -5.6285,8.3077 L -6.2359,7.8192 L -6.8021,7.2837 L -7.3237,6.7045 L -7.7971,6.0854 L -8.2193,5.4302 L -8.5874,4.7432 L -8.899,4.0288 L -9.152,3.2916 L -9.3446,2.5364 L -9.4756,1.7681 L -9.5439,0.9917 L -9.549,0.2123 L -9.4909,-0.5649 L -9.3697,-1.3349 L -9.1863,-2.0924 L -8.9417,-2.8324 L -8.6376,-3.55 L -8.2757,-4.2403 L -7.8586,-4.8987 L -7.389,-5.5207 L -6.8698,-6.102 L -6.3046,-6.6387 L -5.6972,-7.127 L -5.0515,-7.5636 L -4.372,-7.9454 L -3.6633,-8.2696 L -2.9302,-8.5341 L -2.1776,-8.7368 L -1.4108,-8.8763 L -0.635,-8.9515 L 0.1443,-8.9618 L 0.9217,-8.907 L 1.6919,-8.7875 L 2.4493,-8.6038 L 3.1887,-8.3573 L 3.9048,-8.0496 L 4.5924,-7.6827 L 5.2467,-7.2592 L 5.8629,-6.782 L 6.4366,-6.2545 L 6.9635,-5.6802 L 7.4399,-5.0633 L 7.8621,-4.4082 L 8.227,-3.7196 L 8.5319,-3.0023 L 8.7745,-2.2616 L 8.9528,-1.5029 L 9.0655,-0.7318 L 9.1116,0.0463 L 9.0906,0.8253 L 9.0026,1.5997 L 8.8482,2.3636 L 8.6283,3.1114 L 8.3445,3.8372 L 7.9989,4.5358 L 7.5939,5.2017 L 7.1325,5.8298 L 6.6181,6.4153 L 6.0545,6.9536 L 5.446,7.4405 L 4.7971,7.8722 L 4.1128,8.2452 L 3.3984,8.5566 L 2.6592,8.8038" />
      <path d="M 1.6845,5.7964 L 1.698,5.8382 L 1.7115,5.88 L 1.7251,5.9217 L 1.7386,5.9635 L 1.7521,6.0053 L 1.7657,6.047 L 1.7792,6.0888 L 1.7928,6.1306 L 1.8063,6.1723 L 1.8198,6.2141 L 1.8334,6.2559 L 1.8469,6.2977 L 1.8605,6.3394 L 1.874,6.3812 L 1.8875,6.423 L 1.9011,6.4647 L 1.9146,6.5065 L 1.9282,6.5483 L 1.9417,6.59 L 1.9552,6.6318 L 1.9688,6.6736 L 1.9823,6.7153 L 1.9958,6.7571 L 2.0094,6.7989 L 2.0229,6.8407 L 2.0365,6.8824 L 2.05,6.9242 L 2.0635,6.966 L 2.0771,7.0077 L 2.0906,7.0495 L 2.1042,7.0913 L 2.1177,7.133 L 2.1312,7.1748 L 2.1448,7.2166 L 2.1583,7.2583 L 2.1718,7.3001 L 2.1854,7.3419 L 2.1989,7.3837 L 2.2125,7.4254 L 2.226,7.4672 L 2.2395,7.509 L 2.2531,7.5507 L 2.2666,7.5925 L 2.2802,7.6343 L 2.2937,7.676 L 2.3072,7.7178 L 2.3208,7.7596 L 2.3343,7.8013 L 2.3479,7.8431 L 2.3614,7.8849 L 2.3749,7.9266 L 2.3885,7.9684 L 2.402,8.0102 L 2.4155,8.052 L 2.4291,8.0937 L 2.4426,8.1355 L 2.4562,8.1773 L 2.4697,8.219 L 2.4832,8.2608 L 2.4968,8.3026 L 2.5103,8.3443 L 2.5239,8.3861 L 2.5374,8.4279 L 2.5509,8.4696 L 2.5645,8.5114 L 2.578,8.5532 L 2.5916,8.595 L 2.6051,8.6367 L 2.6186,8.6785 L 2.6322,8.7203 L 2.6457,8.762 L 2.6592,8.8038" />
      <path d="M 0.1953,10.2273 L 0.1913,10.2273 L 0.1873,10.2273 L 0.1833,10.2274 L 0.1794,10.2274 L 0.1754,10.2274 L 0.1714,10.2274 L 0.1674,10.2274 L 0.1634,10.2275 L 0.1594,10.2275 L 0.1554,10.2275 L 0.1515,10.2275 L 0.1475,10.2275 L 0.1435,10.2276 L 0.1395,10.2276 L 0.1355,10.2276 L 0.1315,10.2276 L 0.1275,10.2277 L 0.1236,10.2277 L 0.1196,10.2277 L 0.1156,10.2277 L 0.1116,10.2277 L 0.1076,10.2278 L 0.1036,10.2278 L 0.0997,10.2278 L 0.0957,10.2278 L 0.0917,10.2278 L 0.0877,10.2279 L 0.0837,10.2279 L 0.0797,10.2279 L 0.0757,10.2279 L 0.0718,10.2279 L 0.0678,10.228 L 0.0638,10.228 L 0.0598,10.228 L 0.0558,10.228 L 0.0518,10.2281 L 0.0478,10.2281 L 0.0439,10.2281 L 0.0399,10.2281 L 0.0359,10.2281 L 0.0319,10.2282 L 0.0279,10.2282 L 0.0239,10.2282 L 0.0199,10.2282 L 0.016,10.2282 L 0.012,10.2283 L 0.008,10.2283 L 0.004,10.2283 L 0.0,10.2283 L -0.004,10.2283 L -0.0079,10.2284 L -0.0119,10.2284 L -0.0159,10.2284 L -0.0199,10.2284 L -0.0239,10.2284 L -0.0279,10.2285 L -0.0319,10.2285 L -0.0358,10.2285 L -0.0398,10.2285 L -0.0438,10.2286 L -0.0478,10.2286 L -0.0518,10.2286 L -0.0558,10.2286 L -0.0598,10.2286 L -0.0637,10.2287 L -0.0677,10.2287 L -0.0717,10.2287 L -0.0757,10.2287 L -0.0797,10.2287 L -0.0837,10.2288 L -0.0876,10.2288 L -0.0916,10.2288" />
      <path d="M 2.6592,8.8038 L 2.6624,8.8278 L 2.6655,8.8517 L 2.6686,8.8757 L 2.6717,8.8997 L 2.6749,8.9236 L 2.678,8.9476 L 2.6811,8.9716 L 2.6842,8.9955 L 2.6874,9.0195 L 2.6905,9.0435 L 2.6936,9.0674 L 2.6967,9.0914 L 2.6999,9.1154 L 2.703,9.1393 L 2.7061,9.1633 L 2.7092,9.1873 L 2.7124,9.2112 L 2.7155,9.2352 L 2.7186,9.2592 L 2.7217,9.2832 L 2.7248,9.3071 L 2.728,9.3311 L 2.7311,9.3551 L 2.7342,9.379 L 2.7373,9.403 L 2.7405,9.427 L 2.7436,9.4509 L 2.7467,9.4749 L 2.7498,9.4989 L 2.753,9.5228 L 2.7561,9.5468 L 2.7592,9.5708 L 2.7623,9.5947 L 2.7655,9.6187 L 2.7686,9.6427 L 2.7717,9.6666 L 2.7748,9.6906 L 2.778,9.7146 L 2.7811,9.7385 L 2.7842,9.7625 L 2.7873,9.7865 L 2.7904,9.8104 L 2.7936,9.8344 L 2.7967,9.8584 L 2.7998,9.8823 L 2.8029,9.9063 L 2.8061,9.9303 L 2.8092,9.9542 L 2.8123,9.9782 L 2.8154,10.0022 L 2.8186,10.0261 L 2.8217,10.0501 L 2.8248,10.0741 L 2.8279,10.0981 L 2.8311,10.122 L 2.8342,10.146 L 2.8373,10.17 L 2.8404,10.1939 L 2.8436,10.2179 L 2.8467,10.2419 L 2.8498,10.2658 L 2.8529,10.2898 L 2.8561,10.3138 L 2.8592,10.3377 L 2.8623,10.3617 L 2.8654,10.3857 L 2.8685,10.4096 L 2.8717,10.4336 L 2.8748,10.4576 L 2.8779,10.4815 L 2.881,10.5055 L 2.8842,10.5295" />
      <path d="M 22.5309,10.2274 L 22.5308,10.2274 L 22.5307,10.2274 L 22.5306,10.2274 L 22.5305,10.2274 L 22.5304,10.2274" />
      <path d="M 22.5304,10.2274 L 22.5303,10.2274 L 22.5302,10.2274 L 22.5301,10.2274 L 22.53,10.2274 L 22.5299,10.2274 L 22.5298,10.2274" />
      <path d="M 20.4994,-9.3065 L 20.4974,-9.3156 L 20.4953,-9.3247 L 20.4933,-9.3337 L 20.4912,-9.3428 L 20.4891,-9.3519 L 20.487,-9.361 L 20.4849,-9.37 L 20.4827,-9.3791 L 20.4805,-9.3881 L 20.4784,-9.3972 L 20.4762,-9.4062 L 20.4739,-9.4153 L 20.4717,-9.4243 L 20.4694,-9.4333 L 20.4671,-9.4423 L 20.4648,-9.4514 L 20.4625,-9.4604 L 20.4602,-9.4694 L 20.4578,-9.4784 L 20.4554,-9.4874 L 20.453,-9.4964 L 20.4505,-9.5053 L 20.448,-9.5143 L 20.4455,-9.5233 L 20.443,-9.5322 L 20.4405,-9.5412 L 20.4379,-9.5501 L 20.4352,-9.5591 L 20.4326,-9.568 L 20.4299,-9.5769 L 20.4272,-9.5858 L 20.4244,-9.5947 L 20.4216,-9.6036 L 20.4188,-9.6124 L 20.4159,-9.6213 L 20.413,-9.6301 L 20.41,-9.6389 L 20.407,-9.6477 L 20.404,-9.6565 L 20.4008,-9.6653 L 20.3977,-9.6741 L 20.3944,-9.6828 L 20.3911,-9.6915 L 20.3878,-9.7002 L 20.3844,-9.7088 L 20.3809,-9.7175 L 20.3773,-9.7261 L 20.3737,-9.7346 L 20.3699,-9.7431 L 20.3661,-9.7516 L 20.3622,-9.7601 L 20.3581,-9.7684 L 20.354,-9.7768 L 20.3497,-9.785 L 20.3453,-9.7932 L 20.3407,-9.8013 L 20.336,-9.8094 L 20.331,-9.8173 L 20.3259,-9.825 L 20.3206,-9.8327 L 20.315,-9.8401 L 20.3091,-9.8473 L 20.3029,-9.8543 L 20.2964,-9.8609 L 20.2894,-9.8671 L 20.282,-9.8727 L 20.2741,-9.8776 L 20.2658,-9.8817 L 20.2569,-9.8846 L 20.2478,-9.8862 L 20.2385,-9.8863 L 20.2293,-9.8848" />
      <path d="M 20.2293,-9.8848 L 20.0794,-9.6512 L 20.0017,-9.3762 L 19.9422,-9.0967 L 19.8919,-8.8153 L 19.8475,-8.533 L 19.8072,-8.25 L 19.7698,-7.9666 L 19.7349,-7.683 L 19.7019,-7.399 L 19.6705,-7.1149 L 19.6404,-6.8307 L 19.6115,-6.5463 L 19.5835,-6.2619 L 19.5565,-5.9773 L 19.5301,-5.6927 L 19.5044,-5.408 L 19.4794,-5.1233 L 19.4548,-4.8385 L 19.4307,-4.5537 L 19.4071,-4.2689 L 19.3838,-3.984 L 19.3609,-3.6991 L 19.3383,-3.4142 L 19.316,-3.1292 L 19.2939,-2.8442 L 19.2721,-2.5592 L 19.2504,-2.2742 L 19.2289,-1.9892 L 19.2076,-1.7042 L 19.1865,-1.4191 L 19.1654,-1.1341 L 19.1445,-0.849 L 19.1237,-0.5639 L 19.1029,-0.2789 L 19.0822,0.0062 L 19.0615,0.2913 L 19.0408,0.5764 L 19.0202,0.8615 L 18.9995,1.1465 L 18.9788,1.4316 L 18.9581,1.7167 L 18.9373,2.0018 L 18.9165,2.2868 L 18.8955,2.5719 L 18.8745,2.857 L 18.8533,3.142 L 18.832,3.427 L 18.8105,3.7121 L 18.7889,3.9971 L 18.767,4.2821 L 18.7449,4.567 L 18.7225,4.852 L 18.6998,5.1369 L 18.6768,5.4218 L 18.6534,5.7067 L 18.6296,5.9915 L 18.6054,6.2763 L 18.5806,6.5611 L 18.5553,6.8458 L 18.5293,7.1304 L 18.5025,7.415 L 18.4749,7.6995 L 18.4463,7.9839 L 18.4166,8.2682 L 18.3855,8.5523 L 18.3528,8.8363 L 18.3181,9.12 L 18.2809,9.4034 L 18.2405,9.6863 L 18.1956,9.9686 L 18.1442,10.2498 L 18.0817,10.5286" />
      <path d="M 22.5309,10.2274 L 22.5309,10.1788 L 22.5309,10.1302 L 22.5309,10.0816 L 22.5309,10.033 L 22.5309,9.9844 L 22.5309,9.9358 L 22.5309,9.8871 L 22.5309,9.8385 L 22.5309,9.7899 L 22.5309,9.7413 L 22.5309,9.6927 L 22.5309,9.6441 L 22.5309,9.5955 L 22.5309,9.5469 L 22.5309,9.4983 L 22.5309,9.4496 L 22.5309,9.401 L 22.5309,9.3524 L 22.5309,9.3038 L 22.5309,9.2552 L 22.5309,9.2066 L 22.5309,9.158 L 22.5309,9.1094 L 22.5309,9.0608 L 22.5309,9.0121 L 22.5309,8.9635 L 22.5309,8.9149 L 22.5309,8.8663 L 22.5309,8.8177 L 22.5309,8.7691 L 22.5309,8.7205 L 22.5309,8.6719 L 22.5309,8.6233 L 22.5309,8.5746 L 22.5309,8.526 L 22.5309,8.4774 L 22.5309,8.4288 L 22.5309,8.3802 L 22.5309,8.3316 L 22.5309,8.283 L 22.5309,8.2344 L 22.5309,8.1858 L 22.5309,8.1371 L 22.5309,8.0885 L 22.5309,8.0399 L 22.5309,7.9913 L 22.5309,7.9427 L 22.5309,7.8941 L 22.5309,7.8455 L 22.5309,7.7969 L 22.5309,7.7483 L 22.5309,7.6996 L 22.5309,7.651 L 22.5309,7.6024 L 22.5309,7.5538 L 22.5309,7.5052 L 22.5309,7.4566 L 22.5309,7.408 L 22.5309,7.3594 L 22.5309,7.3108 L 22.5309,7.2621 L 22.5309,7.2135 L 22.5309,7.1649 L 22.5309,7.1163 L 22.5309,7.0677 L 22.5309,7.0191 L 22.5309,6.9705 L 22.5309,6.9219 L 22.5309,6.8733 L 22.5309,6.8246 L 22.5309,6.776 L 22.5309,6.7274" />
      <path d="M 22.53,6.7274 L 22.4359,6.5833 L 22.3897,6.4098 L 22.3544,6.2336 L 22.3247,6.0565 L 22.2984,5.8788 L 22.2744,5.7008 L 22.2523,5.5226 L 22.2315,5.3441 L 22.2119,5.1656 L 22.1931,4.987 L 22.1752,4.8082 L 22.1579,4.6295 L 22.1411,4.4506 L 22.1249,4.2717 L 22.1091,4.0928 L 22.0936,3.9138 L 22.0785,3.7349 L 22.0637,3.5559 L 22.0492,3.3768 L 22.0349,3.1978 L 22.0208,3.0187 L 22.0069,2.8396 L 21.9931,2.6605 L 21.9795,2.4814 L 21.9661,2.3023 L 21.9527,2.1232 L 21.9395,1.944 L 21.9264,1.7649 L 21.9133,1.5858 L 21.9003,1.4066 L 21.8874,1.2274 L 21.8745,1.0483 L 21.8617,0.8691 L 21.8489,0.69 L 21.8361,0.5108 L 21.8233,0.3316 L 21.8104,0.1525 L 21.7976,-0.0267 L 21.7848,-0.2059 L 21.7719,-0.385 L 21.759,-0.5642 L 21.7461,-0.7433 L 21.733,-0.9225 L 21.72,-1.1016 L 21.7068,-1.2808 L 21.6935,-1.4599 L 21.6802,-1.639 L 21.6667,-1.8181 L 21.653,-1.9972 L 21.6393,-2.1763 L 21.6253,-2.3554 L 21.6112,-2.5345 L 21.5969,-2.7135 L 21.5824,-2.8926 L 21.5676,-3.0716 L 21.5526,-3.2506 L 21.5372,-3.4295 L 21.5216,-3.6085 L 21.5055,-3.7874 L 21.489,-3.9662 L 21.4721,-4.145 L 21.4546,-4.3238 L 21.4366,-4.5025 L 21.4178,-4.6812 L 21.3982,-4.8597 L 21.3776,-5.0382 L 21.3559,-5.2165 L 21.3328,-5.3946 L 21.3078,-5.5725 L 21.2805,-5.75 L 21.2499,-5.927 L 21.2143,-6.103" />
      <path d="M 21.2143,-6.103 L 21.213,-6.1089 L 21.2116,-6.1149 L 21.2103,-6.1208 L 21.2089,-6.1267 L 21.2076,-6.1326 L 21.2062,-6.1385 L 21.2048,-6.1444 L 21.2034,-6.1503 L 21.202,-6.1562 L 21.2006,-6.1621 L 21.1991,-6.168 L 21.1977,-6.1739 L 21.1962,-6.1797 L 21.1947,-6.1856 L 21.1933,-6.1915 L 21.1918,-6.1974 L 21.1902,-6.2032 L 21.1887,-6.2091 L 21.1872,-6.215 L 21.1856,-6.2208 L 21.184,-6.2267 L 21.1824,-6.2325 L 21.1808,-6.2384 L 21.1792,-6.2442 L 21.1775,-6.25 L 21.1759,-6.2559 L 21.1742,-6.2617 L 21.1725,-6.2675 L 21.1707,-6.2733 L 21.169,-6.2791 L 21.1672,-6.2849 L 21.1654,-6.2907 L 21.1636,-6.2965 L 21.1617,-6.3023 L 21.1599,-6.308 L 21.158,-6.3138 L 21.156,-6.3195 L 21.1541,-6.3253 L 21.1521,-6.331 L 21.15,-6.3367 L 21.148,-6.3424 L 21.1459,-6.3481 L 21.1437,-6.3538 L 21.1415,-6.3594 L 21.1393,-6.3651 L 21.137,-6.3707 L 21.1347,-6.3763 L 21.1323,-6.3819 L 21.1299,-6.3874 L 21.1274,-6.3929 L 21.1248,-6.3984 L 21.1222,-6.4039 L 21.1195,-6.4093 L 21.1167,-6.4147 L 21.1138,-6.42 L 21.1108,-6.4253 L 21.1077,-6.4305 L 21.1045,-6.4357 L 21.1012,-6.4407 L 21.0977,-6.4457 L 21.094,-6.4505 L 21.0902,-6.4552 L 21.0862,-6.4597 L 21.0819,-6.464 L 21.0774,-6.4681 L 21.0725,-6.4717 L 21.0674,-6.4749 L 21.0619,-6.4776 L 21.0562,-6.4795 L 21.0502,-6.4805 L 21.0442,-6.4805 L 21.0382,-6.4796" />
      <path d="M 21.0382,-6.4796 L 20.9372,-6.3182 L 20.8851,-6.1294 L 20.8452,-5.9375 L 20.8114,-5.7444 L 20.7816,-5.5507 L 20.7545,-5.3566 L 20.7294,-5.1622 L 20.7059,-4.9677 L 20.6838,-4.7729 L 20.6626,-4.5781 L 20.6424,-4.3831 L 20.6229,-4.1881 L 20.6041,-3.993 L 20.5858,-3.7979 L 20.5681,-3.6027 L 20.5507,-3.4075 L 20.5338,-3.2122 L 20.5173,-3.0169 L 20.501,-2.8216 L 20.4851,-2.6263 L 20.4694,-2.4309 L 20.4539,-2.2355 L 20.4386,-2.0401 L 20.4235,-1.8447 L 20.4086,-1.6493 L 20.3938,-1.4539 L 20.3792,-1.2584 L 20.3647,-1.063 L 20.3503,-0.8675 L 20.3359,-0.672 L 20.3217,-0.4766 L 20.3075,-0.2811 L 20.2934,-0.0856 L 20.2793,0.1099 L 20.2653,0.3054 L 20.2513,0.5009 L 20.2372,0.6964 L 20.2232,0.8919 L 20.2092,1.0873 L 20.1952,1.2828 L 20.1811,1.4783 L 20.167,1.6738 L 20.1528,1.8693 L 20.1386,2.0648 L 20.1243,2.2602 L 20.1099,2.4557 L 20.0955,2.6512 L 20.0808,2.8466 L 20.0661,3.042 L 20.0512,3.2375 L 20.0362,3.4329 L 20.021,3.6283 L 20.0055,3.8237 L 19.9898,4.019 L 19.9739,4.2144 L 19.9577,4.4097 L 19.9412,4.605 L 19.9243,4.8003 L 19.907,4.9955 L 19.8893,5.1907 L 19.871,5.3858 L 19.8522,5.5809 L 19.8327,5.7759 L 19.8124,5.9709 L 19.7912,6.1657 L 19.7688,6.3604 L 19.7451,6.555 L 19.7198,6.7493 L 19.6922,6.9433 L 19.6616,7.1369 L 19.6265,7.3298 L 19.5841,7.5211" />
      <path d="M 18.0817,10.5286 L 18.1026,10.4869 L 18.1235,10.4451 L 18.1443,10.4033 L 18.1652,10.3616 L 18.1861,10.3198 L 18.2069,10.278 L 18.2278,10.2362 L 18.2486,10.1945 L 18.2695,10.1527 L 18.2904,10.1109 L 18.3112,10.0692 L 18.3321,10.0274 L 18.353,9.9856 L 18.3738,9.9438 L 18.3947,9.9021 L 18.4156,9.8603 L 18.4364,9.8185 L 18.4573,9.7768 L 18.4782,9.735 L 18.499,9.6932 L 18.5199,9.6514 L 18.5408,9.6097 L 18.5616,9.5679 L 18.5825,9.5261 L 18.6034,9.4844 L 18.6242,9.4426 L 18.6451,9.4008 L 18.666,9.359 L 18.6868,9.3173 L 18.7077,9.2755 L 18.7286,9.2337 L 18.7494,9.1919 L 18.7703,9.1502 L 18.7912,9.1084 L 18.812,9.0666 L 18.8329,9.0249 L 18.8538,8.9831 L 18.8746,8.9413 L 18.8955,8.8995 L 18.9164,8.8578 L 18.9372,8.816 L 18.9581,8.7742 L 18.979,8.7325 L 18.9998,8.6907 L 19.0207,8.6489 L 19.0415,8.6071 L 19.0624,8.5654 L 19.0833,8.5236 L 19.1041,8.4818 L 19.125,8.4401 L 19.1459,8.3983 L 19.1667,8.3565 L 19.1876,8.3147 L 19.2085,8.273 L 19.2293,8.2312 L 19.2502,8.1894 L 19.2711,8.1477 L 19.2919,8.1059 L 19.3128,8.0641 L 19.3337,8.0223 L 19.3545,7.9806 L 19.3754,7.9388 L 19.3963,7.897 L 19.4171,7.8552 L 19.438,7.8135 L 19.4589,7.7717 L 19.4797,7.7299 L 19.5006,7.6882 L 19.5215,7.6464 L 19.5423,7.6046 L 19.5632,7.5628 L 19.5841,7.5211" />
      <path d="M 22.5309,6.7274 L 22.4919,6.7274 L 22.4529,6.7274 L 22.4139,6.7274 L 22.3749,6.7274 L 22.3359,6.7274 L 22.2969,6.7274 L 22.2579,6.7274 L 22.2189,6.7274 L 22.1799,6.7274 L 22.1409,6.7274 L 22.1019,6.7274 L 22.0629,6.7274 L 22.0239,6.7274 L 21.9849,6.7274 L 21.9459,6.7274 L 21.9069,6.7274 L 21.8679,6.7274 L 21.8289,6.7274 L 21.7899,6.7274 L 21.7509,6.7274 L 21.7119,6.7274 L 21.6729,6.7274 L 21.6339,6.7274 L 21.5949,6.7274 L 21.5559,6.7274 L 21.5169,6.7274 L 21.4779,6.7274 L 21.4389,6.7274 L 21.3998,6.7274 L 21.3608,6.7274 L 21.3218,6.7274 L 21.2828,6.7274 L 21.2438,6.7274 L 21.2048,6.7274 L 21.1658,6.7274 L 21.1268,6.7274 L 21.0878,6.7274 L 21.0488,6.7274 L 21.0098,6.7274 L 20.9708,6.7274 L 20.9318,6.7274 L 20.8928,6.7274 L 20.8538,6.7274 L 20.8148,6.7274 L 20.7758,6.7274 L 20.7368,6.7274 L 20.6978,6.7274 L 20.6588,6.7274 L 20.6198,6.7274 L 20.5808,6.7274 L 20.5418,6.7274 L 20.5028,6.7274 L 20.4638,6.7274 L 20.4248,6.7274 L 20.3858,6.7274 L 20.3468,6.7274 L 20.3078,6.7274 L 20.2688,6.7274 L 20.2298,6.7274 L 20.1908,6.7274 L 20.1518,6.7274 L 20.1128,6.7274 L 20.0737,6.7274 L 20.0347,6.7274 L 19.9957,6.7274 L 19.9567,6.7274 L 19.9177,6.7274 L 19.8787,6.7274 L 19.8397,6.7274 L 19.8007,6.7274 L 19.7617,6.7274 L 19.7227,6.7274" />
      <path d="M 18.5408,9.6097 L 18.5408,9.6183 L 18.5408,9.6268 L 18.5408,9.6354 L 18.5408,9.644 L 18.5408,9.6526 L 18.5408,9.6612 L 18.5408,9.6697 L 18.5408,9.6783 L 18.5408,9.6869 L 18.5408,9.6955 L 18.5408,9.7041 L 18.5408,9.7126 L 18.5408,9.7212 L 18.5408,9.7298 L 18.5408,9.7384 L 18.5408,9.7469 L 18.5408,9.7555 L 18.5408,9.7641 L 18.5408,9.7727 L 18.5408,9.7813 L 18.5408,9.7898 L 18.5408,9.7984 L 18.5408,9.807 L 18.5408,9.8156 L 18.5408,9.8241 L 18.5408,9.8327 L 18.5408,9.8413 L 18.5408,9.8499 L 18.5408,9.8585 L 18.5408,9.867 L 18.5408,9.8756 L 18.5408,9.8842 L 18.5408,9.8928 L 18.5408,9.9013 L 18.5408,9.9099 L 18.5408,9.9185 L 18.5408,9.9271 L 18.5408,9.9357 L 18.5408,9.9442 L 18.5408,9.9528 L 18.5408,9.9614 L 18.5408,9.97 L 18.5408,9.9786 L 18.5408,9.9871 L 18.5408,9.9957 L 18.5408,10.0043 L 18.5408,10.0129 L 18.5408,10.0214 L 18.5408,10.03 L 18.5408,10.0386 L 18.5408,10.0472 L 18.5408,10.0558 L 18.5408,10.0643 L 18.5408,10.0729 L 18.5408,10.0815 L 18.5408,10.0901 L 18.5408,10.0986 L 18.5408,10.1072 L 18.5408,10.1158 L 18.5408,10.1244 L 18.5408,10.133 L 18.5408,10.1415 L 18.5408,10.1501 L 18.5408,10.1587 L 18.5408,10.1673 L 18.5408,10.1758 L 18.5408,10.1844 L 18.5408,10.193 L 18.5408,10.2016 L 18.5408,10.2102 L 18.5408,10.2187 L 18.5408,10.2273" />
      <path d="M 18.5408,10.2273 L 18.536,10.2271 L 18.5313,10.2264 L 18.5267,10.2253 L 18.5221,10.2238 L 18.5178,10.2219 L 18.5135,10.2197 L 18.5094,10.2173 L 18.5055,10.2146 L 18.5017,10.2117 L 18.4981,10.2087 L 18.4945,10.2055 L 18.4911,10.2022 L 18.4878,10.1987 L 18.4846,10.1952 L 18.4816,10.1916 L 18.4786,10.1879 L 18.4757,10.1841 L 18.4728,10.1803 L 18.4701,10.1764 L 18.4674,10.1724 L 18.4648,10.1685 L 18.4622,10.1644 L 18.4597,10.1604 L 18.4573,10.1563 L 18.4549,10.1522 L 18.4525,10.148 L 18.4503,10.1439 L 18.448,10.1397 L 18.4458,10.1354 L 18.4436,10.1312 L 18.4415,10.1269 L 18.4394,10.1227 L 18.4373,10.1184 L 18.4353,10.1141 L 18.4333,10.1097 L 18.4313,10.1054 L 18.4294,10.1011 L 18.4275,10.0967 L 18.4256,10.0923 L 18.4237,10.0879 L 18.4219,10.0835 L 18.4201,10.0791 L 18.4183,10.0747 L 18.4165,10.0703 L 18.4148,10.0659 L 18.4131,10.0614 L 18.4114,10.057 L 18.4097,10.0525 L 18.408,10.0481 L 18.4064,10.0436 L 18.4047,10.0391 L 18.4031,10.0347 L 18.4015,10.0302 L 18.3999,10.0257 L 18.3984,10.0212 L 18.3968,10.0167 L 18.3953,10.0122 L 18.3937,10.0077 L 18.3922,10.0031 L 18.3907,9.9986 L 18.3893,9.9941 L 18.3878,9.9896 L 18.3863,9.985 L 18.3849,9.9805 L 18.3835,9.976 L 18.382,9.9714 L 18.3806,9.9669 L 18.3792,9.9623 L 18.3778,9.9578 L 18.3765,9.9532 L 18.3751,9.9486 L 18.3737,9.9441" />
      <path d="M 16.3494,-8.9632 L 16.2171,-8.761 L 16.1482,-8.5221 L 16.0956,-8.2789 L 16.0511,-8.0341 L 16.0119,-7.7885 L 15.9763,-7.5422 L 15.9434,-7.2956 L 15.9126,-7.0487 L 15.8836,-6.8016 L 15.8559,-6.5543 L 15.8295,-6.307 L 15.804,-6.0595 L 15.7795,-5.8119 L 15.7557,-5.5642 L 15.7326,-5.3165 L 15.7101,-5.0687 L 15.6881,-4.8209 L 15.6666,-4.573 L 15.6455,-4.3251 L 15.6248,-4.0771 L 15.6045,-3.8292 L 15.5845,-3.5812 L 15.5647,-3.3332 L 15.5452,-3.0851 L 15.526,-2.8371 L 15.5069,-2.589 L 15.488,-2.3409 L 15.4693,-2.0928 L 15.4508,-1.8447 L 15.4324,-1.5966 L 15.414,-1.3485 L 15.3958,-1.1003 L 15.3777,-0.8522 L 15.3597,-0.604 L 15.3417,-0.3559 L 15.3237,-0.1077 L 15.3058,0.1404 L 15.2878,0.3886 L 15.2699,0.6367 L 15.252,0.8849 L 15.2341,1.133 L 15.2161,1.3812 L 15.198,1.6293 L 15.1799,1.8775 L 15.1617,2.1256 L 15.1434,2.3738 L 15.125,2.6219 L 15.1065,2.87 L 15.0878,3.1181 L 15.0689,3.3662 L 15.0498,3.6142 L 15.0305,3.8623 L 15.011,4.1103 L 14.9912,4.3583 L 14.9711,4.6063 L 14.9506,4.8543 L 14.9297,5.1022 L 14.9084,5.3501 L 14.8867,5.5979 L 14.8643,5.8457 L 14.8414,6.0935 L 14.8177,6.3412 L 14.7931,6.5887 L 14.7676,6.8362 L 14.741,7.0836 L 14.7129,7.3308 L 14.6832,7.5778 L 14.6513,7.8246 L 14.6166,8.071 L 14.5781,8.3168 L 14.5339,8.5616 L 14.4799,8.8044" />
      <path d="M 18.5408,10.2273 L 18.5452,10.2273 L 18.5497,10.2273 L 18.5542,10.2273 L 18.5586,10.2273 L 18.5631,10.2273 L 18.5676,10.2273 L 18.572,10.2273 L 18.5765,10.2273 L 18.581,10.2273 L 18.5854,10.2273 L 18.5899,10.2273 L 18.5943,10.2273 L 18.5988,10.2273 L 18.6033,10.2273 L 18.6077,10.2273 L 18.6122,10.2273 L 18.6167,10.2273 L 18.6211,10.2273 L 18.6256,10.2273 L 18.6301,10.2273 L 18.6345,10.2273 L 18.639,10.2273 L 18.6435,10.2273 L 18.6479,10.2273 L 18.6524,10.2273 L 18.6569,10.2273 L 18.6613,10.2273 L 18.6658,10.2273 L 18.6703,10.2273 L 18.6747,10.2273 L 18.6792,10.2273 L 18.6837,10.2273 L 18.6881,10.2273 L 18.6926,10.2273 L 18.6971,10.2273 L 18.7015,10.2273 L 18.706,10.2273 L 18.7105,10.2273 L 18.7149,10.2273 L 18.7194,10.2273 L 18.7239,10.2273 L 18.7283,10.2273 L 18.7328,10.2273 L 18.7373,10.2273 L 18.7417,10.2273 L 18.7462,10.2273 L 18.7507,10.2273 L 18.7551,10.2273 L 18.7596,10.2273 L 18.7641,10.2273 L 18.7685,10.2273 L 18.773,10.2273 L 18.7775,10.2273 L 18.7819,10.2273 L 18.7864,10.2273 L 18.7909,10.2273 L 18.7953,10.2273 L 18.7998,10.2273 L 18.8042,10.2273 L 18.8087,10.2273 L 18.8132,10.2273 L 18.8176,10.2273 L 18.8221,10.2273 L 18.8266,10.2273 L 18.831,10.2273 L 18.8355,10.2273 L 18.84,10.2273 L 18.8444,10.2273 L 18.8489,10.2273 L 18.8534,10.2273 L 18.8578,10.2273 L 18.8623,10.2273" />
      <path d="M 18.8623,10.2273 L 18.9133,10.2273 L 18.9642,10.2273 L 19.0152,10.2273 L 19.0661,10.2273 L 19.1171,10.2273 L 19.168,10.2273 L 19.219,10.2273 L 19.2699,10.2273 L 19.3209,10.2273 L 19.3718,10.2273 L 19.4228,10.2273 L 19.4737,10.2273 L 19.5247,10.2273 L 19.5757,10.2273 L 19.6266,10.2273 L 19.6776,10.2273 L 19.7285,10.2273 L 19.7795,10.2274 L 19.8304,10.2274 L 19.8814,10.2274 L 19.9323,10.2274 L 19.9833,10.2274 L 20.0342,10.2274 L 20.0852,10.2274 L 20.1361,10.2274 L 20.1871,10.2274 L 20.238,10.2274 L 20.289,10.2274 L 20.3399,10.2274 L 20.3909,10.2274 L 20.4419,10.2274 L 20.4928,10.2274 L 20.5438,10.2274 L 20.5947,10.2274 L 20.6457,10.2274 L 20.6966,10.2274 L 20.7476,10.2274 L 20.7985,10.2274 L 20.8495,10.2274 L 20.9004,10.2274 L 20.9514,10.2274 L 21.0023,10.2274 L 21.0533,10.2274 L 21.1042,10.2274 L 21.1552,10.2274 L 21.2062,10.2274 L 21.2571,10.2274 L 21.3081,10.2274 L 21.359,10.2274 L 21.41,10.2274 L 21.4609,10.2274 L 21.5119,10.2274 L 21.5628,10.2274 L 21.6138,10.2274 L 21.6647,10.2274 L 21.7157,10.2274 L 21.7666,10.2274 L 21.8176,10.2274 L 21.8685,10.2274 L 21.9195,10.2274 L 21.9704,10.2274 L 22.0214,10.2274 L 22.0724,10.2274 L 22.1233,10.2274 L 22.1743,10.2274 L 22.2252,10.2274 L 22.2762,10.2274 L 22.3271,10.2274 L 22.3781,10.2274 L 22.429,10.2274 L 22.48,10.2274 L 22.5309,10.2274" />
      <path d="M 14.4799,8.8044 L 14.5299,8.8284 L 14.5799,8.8523 L 14.6299,8.8763 L 14.68,8.9002 L 14.73,8.9242 L 14.78,8.9481 L 14.83,8.9721 L 14.8801,8.996 L 14.9301,9.02 L 14.9801,9.0439 L 15.0301,9.0679 L 15.0802,9.0918 L 15.1302,9.1157 L 15.1802,9.1397 L 15.2302,9.1636 L 15.2803,9.1876 L 15.3303,9.2115 L 15.3803,9.2355 L 15.4304,9.2594 L 15.4804,9.2834 L 15.5304,9.3073 L 15.5804,9.3313 L 15.6305,9.3552 L 15.6805,9.3792 L 15.7305,9.4031 L 15.7805,9.4271 L 15.8306,9.451 L 15.8806,9.475 L 15.9306,9.4989 L 15.9806,9.5229 L 16.0307,9.5468 L 16.0807,9.5707 L 16.1307,9.5947 L 16.1807,9.6186 L 16.2308,9.6426 L 16.2808,9.6665 L 16.3308,9.6905 L 16.3808,9.7144 L 16.4309,9.7384 L 16.4809,9.7623 L 16.5309,9.7863 L 16.5809,9.8102 L 16.631,9.8342 L 16.681,9.8581 L 16.731,9.8821 L 16.7811,9.906 L 16.8311,9.93 L 16.8811,9.9539 L 16.9311,9.9779 L 16.9812,10.0018 L 17.0312,10.0258 L 17.0812,10.0497 L 17.1312,10.0736 L 17.1813,10.0976 L 17.2313,10.1215 L 17.2813,10.1455 L 17.3313,10.1694 L 17.3814,10.1934 L 17.4314,10.2173 L 17.4814,10.2413 L 17.5314,10.2652 L 17.5815,10.2892 L 17.6315,10.3131 L 17.6815,10.3371 L 17.7315,10.361 L 17.7816,10.385 L 17.8316,10.4089 L 17.8816,10.4329 L 17.9316,10.4568 L 17.9817,10.4808 L 18.0317,10.5047 L 18.0817,10.5286" />
      <path d="M 20.4994,-9.3065 L 20.5094,-9.262 L 20.5193,-9.2175 L 20.5292,-9.173 L 20.5391,-9.1285 L 20.5491,-9.084 L 20.559,-9.0396 L 20.5689,-8.9951 L 20.5789,-8.9506 L 20.5888,-8.9061 L 20.5987,-8.8616 L 20.6086,-8.8171 L 20.6186,-8.7726 L 20.6285,-8.7281 L 20.6384,-8.6836 L 20.6484,-8.6391 L 20.6583,-8.5946 L 20.6682,-8.5501 L 20.6781,-8.5056 L 20.6881,-8.4611 L 20.698,-8.4167 L 20.7079,-8.3722 L 20.7179,-8.3277 L 20.7278,-8.2832 L 20.7377,-8.2387 L 20.7476,-8.1942 L 20.7576,-8.1497 L 20.7675,-8.1052 L 20.7774,-8.0607 L 20.7874,-8.0162 L 20.7973,-7.9717 L 20.8072,-7.9272 L 20.8171,-7.8827 L 20.8271,-7.8382 L 20.837,-7.7938 L 20.8469,-7.7493 L 20.8569,-7.7048 L 20.8668,-7.6603 L 20.8767,-7.6158 L 20.8866,-7.5713 L 20.8966,-7.5268 L 20.9065,-7.4823 L 20.9164,-7.4378 L 20.9264,-7.3933 L 20.9363,-7.3488 L 20.9462,-7.3043 L 20.9561,-7.2598 L 20.9661,-7.2153 L 20.976,-7.1709 L 20.9859,-7.1264 L 20.9959,-7.0819 L 21.0058,-7.0374 L 21.0157,-6.9929 L 21.0256,-6.9484 L 21.0356,-6.9039 L 21.0455,-6.8594 L 21.0554,-6.8149 L 21.0654,-6.7704 L 21.0753,-6.7259 L 21.0852,-6.6814 L 21.0951,-6.6369 L 21.1051,-6.5924 L 21.115,-6.548 L 21.1249,-6.5035 L 21.1349,-6.459 L 21.1448,-6.4145 L 21.1547,-6.37 L 21.1646,-6.3255 L 21.1746,-6.281 L 21.1845,-6.2365 L 21.1944,-6.192 L 21.2044,-6.1475 L 21.2143,-6.103" />
      <path d="M 16.3494,-8.9632 L 16.4033,-8.976 L 16.4572,-8.9888 L 16.511,-9.0016 L 16.5649,-9.0144 L 16.6188,-9.0272 L 16.6727,-9.04 L 16.7266,-9.0528 L 16.7805,-9.0656 L 16.8344,-9.0784 L 16.8883,-9.0912 L 16.9421,-9.104 L 16.996,-9.1168 L 17.0499,-9.1296 L 17.1038,-9.1424 L 17.1577,-9.1552 L 17.2116,-9.168 L 17.2655,-9.1808 L 17.3194,-9.1936 L 17.3732,-9.2064 L 17.4271,-9.2192 L 17.481,-9.232 L 17.5349,-9.2448 L 17.5888,-9.2576 L 17.6427,-9.2704 L 17.6966,-9.2832 L 17.7505,-9.296 L 17.8043,-9.3088 L 17.8582,-9.3216 L 17.9121,-9.3344 L 17.966,-9.3472 L 18.0199,-9.36 L 18.0738,-9.3728 L 18.1277,-9.3856 L 18.1816,-9.3984 L 18.2354,-9.4112 L 18.2893,-9.424 L 18.3432,-9.4368 L 18.3971,-9.4496 L 18.451,-9.4624 L 18.5049,-9.4752 L 18.5588,-9.488 L 18.6127,-9.5008 L 18.6665,-9.5136 L 18.7204,-9.5264 L 18.7743,-9.5392 L 18.8282,-9.552 L 18.8821,-9.5648 L 18.936,-9.5776 L 18.9899,-9.5904 L 19.0438,-9.6032 L 19.0976,-9.616 L 19.1515,-9.6288 L 19.2054,-9.6416 L 19.2593,-9.6544 L 19.3132,-9.6672 L 19.3671,-9.68 L 19.421,-9.6928 L 19.4749,-9.7056 L 19.5287,-9.7184 L 19.5826,-9.7312 L 19.6365,-9.744 L 19.6904,-9.7568 L 19.7443,-9.7696 L 19.7982,-9.7824 L 19.8521,-9.7952 L 19.906,-9.808 L 19.9599,-9.8208 L 20.0137,-9.8336 L 20.0676,-9.8464 L 20.1215,-9.8592 L 20.1754,-9.872 L 20.2293,-9.8848" />
      <path d="M 22.5304,10.2274 L 22.4794,10.2274 L 22.4285,10.2274 L 22.3775,10.2274 L 22.3266,10.2274 L 22.2756,10.2274 L 22.2247,10.2274 L 22.1737,10.2274 L 22.1228,10.2274 L 22.0718,10.2274 L 22.0209,10.2274 L 21.97,10.2274 L 21.919,10.2274 L 21.8681,10.2274 L 21.8171,10.2274 L 21.7662,10.2274 L 21.7152,10.2274 L 21.6643,10.2274 L 21.6133,10.2274 L 21.5624,10.2274 L 21.5115,10.2274 L 21.4605,10.2274 L 21.4096,10.2274 L 21.3586,10.2274 L 21.3077,10.2274 L 21.2567,10.2274 L 21.2058,10.2274 L 21.1548,10.2274 L 21.1039,10.2274 L 21.0529,10.2274 L 21.002,10.2274 L 20.9511,10.2274 L 20.9001,10.2274 L 20.8492,10.2274 L 20.7982,10.2274 L 20.7473,10.2274 L 20.6963,10.2274 L 20.6454,10.2274 L 20.5944,10.2274 L 20.5435,10.2274 L 20.4926,10.2274 L 20.4416,10.2274 L 20.3907,10.2274 L 20.3397,10.2274 L 20.2888,10.2274 L 20.2378,10.2274 L 20.1869,10.2274 L 20.1359,10.2274 L 20.085,10.2274 L 20.034,10.2274 L 19.9831,10.2274 L 19.9322,10.2274 L 19.8812,10.2274 L 19.8303,10.2274 L 19.7793,10.2274 L 19.7284,10.2274 L 19.6774,10.2273 L 19.6265,10.2273 L 19.5755,10.2273 L 19.5246,10.2273 L 19.4736,10.2273 L 19.4227,10.2273 L 19.3718,10.2273 L 19.3208,10.2273 L 19.2699,10.2273 L 19.2189,10.2273 L 19.168,10.2273 L 19.117,10.2273 L 19.0661,10.2273 L 19.0151,10.2273 L 18.9642,10.2273 L 18.9133,10.2273 L 18.8623,10.2273" />
    </g>
    <g fill="none" stroke="rgb(110,110,110)" stroke-width="0.3" id="Hidden" stroke-dasharray="3.6 0.9">
      <path d="M -0.0916,10.2288 L -0.0916,10.1802 L -0.0916,10.1316 L -0.0916,10.083 L -0.0916,10.0344 L -0.0916,9.9857 L -0.0916,9.9371 L -0.0916,9.8885 L -0.0916,9.8399 L -0.0916,9.7913 L -0.0916,9.7427 L -0.0916,9.6941 L -0.0916,9.6455 L -0.0916,9.5969 L -0.0916,9.5482 L -0.0916,9.4996 L -0.0916,9.451 L -0.0916,9.4024 L -0.0916,9.3538 L -0.0916,9.3052 L -0.0916,9.2566 L -0.0916,9.208 L -0.0916,9.1594 L -0.0916,9.1107 L -0.0916,9.0621 L -0.0916,9.0135 L -0.0916,8.9649 L -0.0916,8.9163 L -0.0916,8.8677 L -0.0916,8.8191 L -0.0916,8.7705 L -0.0916,8.7219 L -0.0916,8.6732 L -0.0916,8.6246 L -0.0916,8.576 L -0.0916,8.5274 L -0.0916,8.4788 L -0.0916,8.4302 L -0.0916,8.3816 L -0.0916,8.333 L -0.0916,8.2844 L -0.0916,8.2357 L -0.0916,8.1871 L -0.0916,8.1385 L -0.0916,8.0899 L -0.0916,8.0413 L -0.0916,7.9927 L -0.0916,7.9441 L -0.0916,7.8955 L -0.0916,7.8469 L -0.0916,7.7982 L -0.0916,7.7496 L -0.0916,7.701 L -0.0916,7.6524 L -0.0916,7.6038 L -0.0916,7.5552 L -0.0916,7.5066 L -0.0916,7.458 L -0.0916,7.4094 L -0.0916,7.3607 L -0.0916,7.3121 L -0.0916,7.2635 L -0.0916,7.2149 L -0.0916,7.1663 L -0.0916,7.1177 L -0.0916,7.0691 L -0.0916,7.0205 L -0.0916,6.9719 L -0.0916,6.9232 L -0.0916,6.8746 L -0.0916,6.826 L -0.0916,6.7774 L -0.0916,6.7288" />
      <path d="M -0.0916,6.7288 L -0.6622,6.7036 L -1.2281,6.6274 L -1.785,6.5009 L -2.3284,6.3253 L -2.8541,6.102 L -3.3578,5.833 L -3.8357,5.5203 L -4.2841,5.1667 L -4.6996,4.7749 L -5.079,4.348 L -5.4194,3.8894 L -5.7182,3.4028 L -5.9734,2.8919 L -6.183,2.3607 L -6.3455,1.8132 L -6.4598,1.2536 L -6.5251,0.6863 L -6.5411,0.1154 L -6.5077,-0.4547 L -6.4253,-1.0198 L -6.2946,-1.5757 L -6.1166,-2.1184 L -5.8928,-2.6438 L -5.6249,-3.1482 L -5.315,-3.6279 L -4.9653,-4.0794 L -4.5786,-4.4996 L -4.1576,-4.8856 L -3.7055,-5.2345 L -3.2256,-5.544 L -2.7213,-5.8121 L -2.1962,-6.0367 L -1.6542,-6.2166 L -1.099,-6.3504 L -0.5345,-6.4374 L 0.0352,-6.477 L 0.6063,-6.4691 L 1.1747,-6.4139 L 1.7366,-6.3117 L 2.2881,-6.1635 L 2.8255,-5.9702 L 3.3452,-5.7334 L 3.8437,-5.4547 L 4.3176,-5.136 L 4.7639,-4.7796 L 5.1797,-4.388 L 5.5621,-3.9639 L 5.9088,-3.51 L 6.2175,-3.0295 L 6.4863,-2.5256 L 6.7135,-2.0016 L 6.8977,-1.461 L 7.0378,-0.9074 L 7.1329,-0.3442 L 7.1827,0.2247 L 7.1868,0.7958 L 7.1453,1.3654 L 7.0585,1.9299 L 6.9272,2.4857 L 6.7521,3.0294 L 6.5346,3.5574 L 6.2761,4.0667 L 5.9781,4.554 L 5.6428,5.0163 L 5.2722,5.4508 L 4.8687,5.855 L 4.4348,6.2263 L 3.9732,6.5627 L 3.4868,6.8621 L 2.9786,7.1227 L 2.4517,7.3431 L 1.9094,7.5221" />
      <path d="M -0.0916,6.7288 L -0.0876,6.7288 L -0.0837,6.7288 L -0.0797,6.7287 L -0.0757,6.7287 L -0.0717,6.7287 L -0.0677,6.7287 L -0.0637,6.7287 L -0.0598,6.7286 L -0.0558,6.7286 L -0.0518,6.7286 L -0.0478,6.7286 L -0.0438,6.7286 L -0.0398,6.7285 L -0.0358,6.7285 L -0.0319,6.7285 L -0.0279,6.7285 L -0.0239,6.7284 L -0.0199,6.7284 L -0.0159,6.7284 L -0.0119,6.7284 L -0.0079,6.7284 L -0.004,6.7283 L 0.0,6.7283 L 0.004,6.7283 L 0.008,6.7283 L 0.012,6.7283 L 0.016,6.7282 L 0.0199,6.7282 L 0.0239,6.7282 L 0.0279,6.7282 L 0.0319,6.7282 L 0.0359,6.7281 L 0.0399,6.7281 L 0.0439,6.7281 L 0.0478,6.7281 L 0.0518,6.7281 L 0.0558,6.728 L 0.0598,6.728 L 0.0638,6.728 L 0.0678,6.728 L 0.0718,6.7279 L 0.0757,6.7279 L 0.0797,6.7279 L 0.0837,6.7279 L 0.0877,6.7279 L 0.0917,6.7278 L 0.0957,6.7278 L 0.0997,6.7278 L 0.1036,6.7278 L 0.1076,6.7278 L 0.1116,6.7277 L 0.1156,6.7277 L 0.1196,6.7277 L 0.1236,6.7277 L 0.1275,6.7277 L 0.1315,6.7276 L 0.1355,6.7276 L 0.1395,6.7276 L 0.1435,6.7276 L 0.1475,6.7275 L 0.1515,6.7275 L 0.1554,6.7275 L 0.1594,6.7275 L 0.1634,6.7275 L 0.1674,6.7274 L 0.1714,6.7274 L 0.1754,6.7274 L 0.1794,6.7274 L 0.1833,6.7274 L 0.1873,6.7273 L 0.1913,6.7273 L 0.1953,6.7273" />
      <path d="M 22.5298,10.2274 L 22.3838,10.0099 L 22.3118,9.7461 L 22.2569,9.4782 L 22.2107,9.2086 L 22.1697,8.9381 L 22.1325,8.6671 L 22.0981,8.3958 L 22.0659,8.1241 L 22.0354,7.8523 L 22.0063,7.5803 L 21.9784,7.3082 L 21.9516,7.036 L 21.9256,6.7637 L 21.9004,6.4913 L 21.8759,6.2189 L 21.852,5.9464 L 21.8286,5.6739 L 21.8056,5.4013 L 21.7831,5.1287 L 21.7609,4.8561 L 21.7391,4.5834 L 21.7176,4.3107 L 21.6963,4.038 L 21.6753,3.7653 L 21.6545,3.4926 L 21.6339,3.2198 L 21.6134,2.947 L 21.5931,2.6743 L 21.573,2.4015 L 21.5529,2.1287 L 21.5329,1.8559 L 21.513,1.5831 L 21.4932,1.3102 L 21.4734,1.0374 L 21.4536,0.7646 L 21.4339,0.4918 L 21.4141,0.219 L 21.3944,-0.0539 L 21.3746,-0.3267 L 21.3547,-0.5995 L 21.3348,-0.8723 L 21.3149,-1.1451 L 21.2948,-1.4179 L 21.2746,-1.6907 L 21.2544,-1.9635 L 21.2339,-2.2362 L 21.2134,-2.509 L 21.1926,-2.7817 L 21.1716,-3.0545 L 21.1505,-3.3272 L 21.129,-3.5999 L 21.1073,-3.8725 L 21.0853,-4.1452 L 21.063,-4.4178 L 21.0403,-4.6904 L 21.0172,-4.963 L 20.9936,-5.2355 L 20.9696,-5.508 L 20.9449,-5.7804 L 20.9197,-6.0527 L 20.8937,-6.325 L 20.8669,-6.5973 L 20.8392,-6.8694 L 20.8104,-7.1414 L 20.7804,-7.4133 L 20.7489,-7.685 L 20.7157,-7.9565 L 20.6803,-8.2277 L 20.6422,-8.4986 L 20.6005,-8.7689 L 20.5537,-9.0384 L 20.4994,-9.3065" />
      <path d="M 22.5309,6.7274 L 22.5308,6.7274 L 22.5307,6.7274 L 22.5306,6.7274 L 22.5305,6.7274" />
      <path d="M 22.5305,6.7274 L 22.5304,6.7274 L 22.5303,6.7274 L 22.5302,6.7274 L 22.5301,6.7274 L 22.53,6.7274" />
      <path d="M 19.7227,6.7274 L 19.719,6.7273 L 19.7153,6.7273 L 19.7115,6.7273 L 19.7078,6.7273 L 19.7041,6.7273 L 19.7004,6.7273 L 19.6966,6.7273 L 19.6929,6.7273 L 19.6892,6.7273 L 19.6855,6.7273 L 19.6817,6.7273 L 19.678,6.7273 L 19.6743,6.7273 L 19.6706,6.7273 L 19.6668,6.7273 L 19.6631,6.7273 L 19.6594,6.7273 L 19.6557,6.7273 L 19.6519,6.7273 L 19.6482,6.7273 L 19.6445,6.7273 L 19.6407,6.7273 L 19.637,6.7273 L 19.6333,6.7273 L 19.6296,6.7273 L 19.6258,6.7273 L 19.6221,6.7273 L 19.6184,6.7273 L 19.6147,6.7273 L 19.6109,6.7273 L 19.6072,6.7273 L 19.6035,6.7273 L 19.5998,6.7273 L 19.596,6.7273 L 19.5923,6.7273 L 19.5886,6.7273 L 19.5849,6.7273 L 19.5811,6.7273 L 19.5774,6.7273 L 19.5737,6.7273 L 19.57,6.7273 L 19.5662,6.7273 L 19.5625,6.7273 L 19.5588,6.7273 L 19.555,6.7273 L 19.5513,6.7273 L 19.5476,6.7273 L 19.5439,6.7273 L 19.5401,6.7273 L 19.5364,6.7273 L 19.5327,6.7273 L 19.529,6.7273 L 19.5252,6.7273 L 19.5215,6.7273 L 19.5178,6.7273 L 19.5141,6.7273 L 19.5103,6.7273 L 19.5066,6.7273 L 19.5029,6.7273 L 19.4992,6.7273 L 19.4954,6.7273 L 19.4917,6.7273 L 19.488,6.7273 L 19.4843,6.7273 L 19.4805,6.7273 L 19.4768,6.7273 L 19.4731,6.7273 L 19.4693,6.7273 L 19.4656,6.7273 L 19.4619,6.7273 L 19.4582,6.7273 L 19.4544,6.7273" />
      <path d="M 19.4544,6.7273 L 19.4418,6.7273 L 19.4291,6.7273 L 19.4164,6.7273 L 19.4037,6.7273 L 19.391,6.7273 L 19.3783,6.7273 L 19.3656,6.7273 L 19.3529,6.7273 L 19.3402,6.7273 L 19.3275,6.7273 L 19.3149,6.7273 L 19.3022,6.7273 L 19.2895,6.7273 L 19.2768,6.7273 L 19.2641,6.7273 L 19.2514,6.7273 L 19.2387,6.7273 L 19.226,6.7273 L 19.2133,6.7273 L 19.2006,6.7273 L 19.188,6.7273 L 19.1753,6.7273 L 19.1626,6.7273 L 19.1499,6.7273 L 19.1372,6.7273 L 19.1245,6.7273 L 19.1118,6.7273 L 19.0991,6.7273 L 19.0864,6.7273 L 19.0737,6.7273 L 19.0611,6.7273 L 19.0484,6.7273 L 19.0357,6.7273 L 19.023,6.7273 L 19.0103,6.7273 L 18.9976,6.7273 L 18.9849,6.7273 L 18.9722,6.7273 L 18.9595,6.7273 L 18.9468,6.7273 L 18.9341,6.7273 L 18.9215,6.7273 L 18.9088,6.7273 L 18.8961,6.7273 L 18.8834,6.7273 L 18.8707,6.7273 L 18.858,6.7273 L 18.8453,6.7273 L 18.8326,6.7273 L 18.8199,6.7273 L 18.8072,6.7273 L 18.7946,6.7273 L 18.7819,6.7273 L 18.7692,6.7273 L 18.7565,6.7273 L 18.7438,6.7273 L 18.7311,6.7273 L 18.7184,6.7273 L 18.7057,6.7273 L 18.693,6.7273 L 18.6803,6.7273 L 18.6677,6.7273 L 18.655,6.7273 L 18.6423,6.7273 L 18.6296,6.7273 L 18.6169,6.7273 L 18.6042,6.7273 L 18.5915,6.7273 L 18.5788,6.7273 L 18.5661,6.7273 L 18.5534,6.7273 L 18.5408,6.7273" />
      <path d="M 18.5408,6.7273 L 18.4505,6.5949 L 18.4059,6.4336 L 18.3721,6.2696 L 18.3436,6.1046 L 18.3184,5.939 L 18.2955,5.7731 L 18.2744,5.607 L 18.2546,5.4407 L 18.2359,5.2743 L 18.2181,5.1078 L 18.201,4.9412 L 18.1846,4.7746 L 18.1687,4.6079 L 18.1534,4.4411 L 18.1384,4.2743 L 18.1238,4.1075 L 18.1095,3.9406 L 18.0956,3.7738 L 18.0819,3.6069 L 18.0684,3.44 L 18.0551,3.273 L 18.0421,3.1061 L 18.0292,2.9391 L 18.0164,2.7721 L 18.0038,2.6052 L 17.9913,2.4382 L 17.9789,2.2712 L 17.9666,2.1042 L 17.9544,1.9371 L 17.9423,1.7701 L 17.9302,1.6031 L 17.9182,1.4361 L 17.9062,1.269 L 17.8943,1.102 L 17.8824,0.935 L 17.8705,0.7679 L 17.8586,0.6009 L 17.8467,0.4339 L 17.8347,0.2668 L 17.8228,0.0998 L 17.8108,-0.0672 L 17.7988,-0.2343 L 17.7868,-0.4013 L 17.7747,-0.5683 L 17.7625,-0.7353 L 17.7503,-0.9023 L 17.7379,-1.0693 L 17.7255,-1.2363 L 17.7129,-1.4033 L 17.7002,-1.5703 L 17.6874,-1.7373 L 17.6744,-1.9042 L 17.6613,-2.0712 L 17.6479,-2.2381 L 17.6343,-2.405 L 17.6205,-2.5719 L 17.6065,-2.7387 L 17.5921,-2.9056 L 17.5774,-3.0724 L 17.5623,-3.2392 L 17.5468,-3.4059 L 17.5308,-3.5726 L 17.5143,-3.7393 L 17.4971,-3.9058 L 17.4792,-4.0723 L 17.4604,-4.2387 L 17.4406,-4.405 L 17.4194,-4.5711 L 17.3966,-4.737 L 17.3715,-4.9026 L 17.3433,-5.0677 L 17.3103,-5.2318" />
      <path d="M 17.3103,-5.2318 L 17.3092,-5.2369 L 17.308,-5.2421 L 17.3069,-5.2472 L 17.3057,-5.2523 L 17.3045,-5.2574 L 17.3033,-5.2625 L 17.3021,-5.2676 L 17.3009,-5.2727 L 17.2997,-5.2778 L 17.2984,-5.2829 L 17.2972,-5.288 L 17.2959,-5.2931 L 17.2947,-5.2982 L 17.2934,-5.3033 L 17.2921,-5.3084 L 17.2908,-5.3135 L 17.2895,-5.3185 L 17.2882,-5.3236 L 17.2869,-5.3287 L 17.2855,-5.3338 L 17.2841,-5.3388 L 17.2828,-5.3439 L 17.2814,-5.3489 L 17.28,-5.354 L 17.2785,-5.3591 L 17.2771,-5.3641 L 17.2756,-5.3691 L 17.2742,-5.3742 L 17.2727,-5.3792 L 17.2711,-5.3842 L 17.2696,-5.3892 L 17.2681,-5.3943 L 17.2665,-5.3993 L 17.2649,-5.4043 L 17.2633,-5.4092 L 17.2616,-5.4142 L 17.26,-5.4192 L 17.2583,-5.4242 L 17.2565,-5.4291 L 17.2548,-5.4341 L 17.253,-5.439 L 17.2512,-5.4439 L 17.2493,-5.4488 L 17.2474,-5.4537 L 17.2455,-5.4586 L 17.2436,-5.4635 L 17.2415,-5.4683 L 17.2395,-5.4731 L 17.2374,-5.4779 L 17.2352,-5.4827 L 17.233,-5.4875 L 17.2307,-5.4922 L 17.2284,-5.4969 L 17.226,-5.5016 L 17.2235,-5.5062 L 17.2209,-5.5108 L 17.2183,-5.5153 L 17.2155,-5.5197 L 17.2126,-5.5241 L 17.2096,-5.5284 L 17.2065,-5.5326 L 17.2032,-5.5367 L 17.1997,-5.5406 L 17.196,-5.5444 L 17.1921,-5.5479 L 17.1879,-5.5511 L 17.1835,-5.5539 L 17.1788,-5.5561 L 17.1738,-5.5578 L 17.1687,-5.5587 L 17.1634,-5.5588 L 17.1582,-5.5579" />
      <path d="M 17.1582,-5.5579 L 17.0748,-5.4281 L 17.0315,-5.2752 L 16.9984,-5.1197 L 16.9705,-4.9633 L 16.9459,-4.8062 L 16.9235,-4.6488 L 16.9028,-4.4912 L 16.8835,-4.3334 L 16.8652,-4.1755 L 16.8479,-4.0175 L 16.8313,-3.8594 L 16.8153,-3.7012 L 16.7999,-3.543 L 16.7849,-3.3848 L 16.7704,-3.2265 L 16.7562,-3.0681 L 16.7424,-2.9098 L 16.7289,-2.7514 L 16.7157,-2.593 L 16.7027,-2.4345 L 16.6899,-2.2761 L 16.6773,-2.1176 L 16.6649,-1.9591 L 16.6526,-1.8007 L 16.6405,-1.6421 L 16.6285,-1.4836 L 16.6167,-1.3251 L 16.6049,-1.1666 L 16.5932,-1.008 L 16.5817,-0.8495 L 16.5702,-0.691 L 16.5587,-0.5324 L 16.5473,-0.3738 L 16.5359,-0.2153 L 16.5246,-0.0567 L 16.5133,0.1018 L 16.5021,0.2604 L 16.4908,0.419 L 16.4795,0.5775 L 16.4683,0.7361 L 16.457,0.8947 L 16.4456,1.0532 L 16.4343,1.2118 L 16.4229,1.3703 L 16.4114,1.5289 L 16.3999,1.6874 L 16.3884,1.846 L 16.3767,2.0045 L 16.3649,2.163 L 16.353,2.3216 L 16.341,2.4801 L 16.3289,2.6386 L 16.3166,2.7971 L 16.3041,2.9555 L 16.2915,3.114 L 16.2786,3.2725 L 16.2655,3.4309 L 16.2521,3.5893 L 16.2383,3.7476 L 16.2243,3.906 L 16.2098,4.0643 L 16.1949,4.2226 L 16.1795,4.3808 L 16.1634,4.5389 L 16.1466,4.697 L 16.1289,4.855 L 16.1102,5.0128 L 16.0901,5.1705 L 16.0683,5.328 L 16.044,5.4851 L 16.0162,5.6416 L 15.9822,5.7969" />
      <path d="M 19.5841,7.5211 L 19.534,7.4971 L 19.484,7.4732 L 19.434,7.4492 L 19.384,7.4253 L 19.3339,7.4013 L 19.2839,7.3774 L 19.2339,7.3534 L 19.1839,7.3295 L 19.1338,7.3055 L 19.0838,7.2816 L 19.0338,7.2577 L 18.9837,7.2337 L 18.9337,7.2098 L 18.8837,7.1858 L 18.8337,7.1619 L 18.7836,7.1379 L 18.7336,7.114 L 18.6836,7.09 L 18.6336,7.0661 L 18.5835,7.0421 L 18.5335,7.0182 L 18.4835,6.9942 L 18.4335,6.9703 L 18.3834,6.9463 L 18.3334,6.9224 L 18.2834,6.8984 L 18.2334,6.8745 L 18.1833,6.8505 L 18.1333,6.8266 L 18.0833,6.8026 L 18.0333,6.7787 L 17.9832,6.7548 L 17.9332,6.7308 L 17.8832,6.7069 L 17.8332,6.6829 L 17.7831,6.659 L 17.7331,6.635 L 17.6831,6.6111 L 17.6331,6.5871 L 17.583,6.5632 L 17.533,6.5392 L 17.483,6.5153 L 17.4329,6.4913 L 17.3829,6.4674 L 17.3329,6.4434 L 17.2829,6.4195 L 17.2328,6.3955 L 17.1828,6.3716 L 17.1328,6.3476 L 17.0828,6.3237 L 17.0327,6.2998 L 16.9827,6.2758 L 16.9327,6.2519 L 16.8827,6.2279 L 16.8326,6.204 L 16.7826,6.18 L 16.7326,6.1561 L 16.6826,6.1321 L 16.6325,6.1082 L 16.5825,6.0842 L 16.5325,6.0603 L 16.4825,6.0363 L 16.4324,6.0124 L 16.3824,5.9884 L 16.3324,5.9645 L 16.2824,5.9405 L 16.2323,5.9166 L 16.1823,5.8926 L 16.1323,5.8687 L 16.0823,5.8447 L 16.0322,5.8208 L 15.9822,5.7969" />
      <path d="M 18.5408,6.7273 L 18.5408,6.7674 L 18.5408,6.8074 L 18.5408,6.8474 L 18.5408,6.8875 L 18.5408,6.9275 L 18.5408,6.9675 L 18.5408,7.0075 L 18.5408,7.0476 L 18.5408,7.0876 L 18.5408,7.1276 L 18.5408,7.1677 L 18.5408,7.2077 L 18.5408,7.2477 L 18.5408,7.2878 L 18.5408,7.3278 L 18.5408,7.3678 L 18.5408,7.4079 L 18.5408,7.4479 L 18.5408,7.4879 L 18.5408,7.528 L 18.5408,7.568 L 18.5408,7.608 L 18.5408,7.6481 L 18.5408,7.6881 L 18.5408,7.7281 L 18.5408,7.7682 L 18.5408,7.8082 L 18.5408,7.8482 L 18.5408,7.8883 L 18.5408,7.9283 L 18.5408,7.9683 L 18.5408,8.0084 L 18.5408,8.0484 L 18.5408,8.0884 L 18.5408,8.1285 L 18.5408,8.1685 L 18.5408,8.2085 L 18.5408,8.2486 L 18.5408,8.2886 L 18.5408,8.3286 L 18.5408,8.3687 L 18.5408,8.4087 L 18.5408,8.4487 L 18.5408,8.4888 L 18.5408,8.5288 L 18.5408,8.5688 L 18.5408,8.6089 L 18.5408,8.6489 L 18.5408,8.6889 L 18.5408,8.729 L 18.5408,8.769 L 18.5408,8.809 L 18.5408,8.8491 L 18.5408,8.8891 L 18.5408,8.9291 L 18.5408,8.9692 L 18.5408,9.0092 L 18.5408,9.0492 L 18.5408,9.0893 L 18.5408,9.1293 L 18.5408,9.1693 L 18.5408,9.2094 L 18.5408,9.2494 L 18.5408,9.2894 L 18.5408,9.3295 L 18.5408,9.3695 L 18.5408,9.4095 L 18.5408,9.4496 L 18.5408,9.4896 L 18.5408,9.5296 L 18.5408,9.5697 L 18.5408,9.6097" />
      <path d="M 18.3737,9.9441 L 18.3113,9.6952 L 18.2617,9.4435 L 18.219,9.1904 L 18.181,8.9367 L 18.1462,8.6824 L 18.1139,8.4279 L 18.0835,8.173 L 18.0548,7.918 L 18.0273,7.6629 L 18.001,7.4076 L 17.9756,7.1523 L 17.9511,6.8969 L 17.9273,6.6413 L 17.9041,6.3858 L 17.8814,6.1302 L 17.8593,5.8745 L 17.8376,5.6188 L 17.8163,5.3631 L 17.7954,5.1073 L 17.7748,4.8516 L 17.7544,4.5957 L 17.7344,4.3399 L 17.7145,4.0841 L 17.6949,3.8282 L 17.6754,3.5723 L 17.6562,3.3165 L 17.637,3.0606 L 17.6181,2.8046 L 17.5992,2.5487 L 17.5804,2.2928 L 17.5617,2.0369 L 17.543,1.7809 L 17.5245,1.525 L 17.5059,1.2691 L 17.4874,1.0131 L 17.4689,0.7572 L 17.4504,0.5012 L 17.4319,0.2453 L 17.4133,-0.0107 L 17.3947,-0.2666 L 17.3761,-0.5225 L 17.3574,-0.7785 L 17.3386,-1.0344 L 17.3197,-1.2903 L 17.3007,-1.5462 L 17.2816,-1.8021 L 17.2623,-2.058 L 17.2429,-2.3139 L 17.2233,-2.5697 L 17.2034,-2.8256 L 17.1834,-3.0814 L 17.1631,-3.3372 L 17.1425,-3.593 L 17.1216,-3.8488 L 17.1004,-4.1045 L 17.0788,-4.3602 L 17.0568,-4.6159 L 17.0343,-4.8715 L 17.0113,-5.1271 L 16.9877,-5.3826 L 16.9635,-5.6381 L 16.9385,-5.8935 L 16.9126,-6.1488 L 16.8858,-6.404 L 16.8578,-6.6591 L 16.8284,-6.914 L 16.7975,-7.1687 L 16.7644,-7.4232 L 16.7289,-7.6773 L 16.6899,-7.931 L 16.6463,-8.1838 L 16.5954,-8.4353" />
      <path d="M 16.5954,-8.4353 L 16.5936,-8.4436 L 16.5917,-8.4519 L 16.5898,-8.4602 L 16.5879,-8.4685 L 16.586,-8.4767 L 16.5841,-8.485 L 16.5822,-8.4933 L 16.5802,-8.5015 L 16.5782,-8.5098 L 16.5762,-8.5181 L 16.5742,-8.5263 L 16.5722,-8.5345 L 16.5701,-8.5428 L 16.5681,-8.551 L 16.566,-8.5593 L 16.5639,-8.5675 L 16.5618,-8.5757 L 16.5596,-8.5839 L 16.5575,-8.5921 L 16.5553,-8.6003 L 16.5531,-8.6085 L 16.5509,-8.6167 L 16.5486,-8.6249 L 16.5463,-8.6331 L 16.544,-8.6413 L 16.5417,-8.6494 L 16.5393,-8.6576 L 16.5369,-8.6657 L 16.5345,-8.6739 L 16.5321,-8.682 L 16.5296,-8.6901 L 16.5271,-8.6982 L 16.5245,-8.7063 L 16.5219,-8.7144 L 16.5193,-8.7225 L 16.5167,-8.7306 L 16.5139,-8.7386 L 16.5112,-8.7466 L 16.5084,-8.7547 L 16.5056,-8.7627 L 16.5027,-8.7706 L 16.4997,-8.7786 L 16.4968,-8.7866 L 16.4937,-8.7945 L 16.4906,-8.8024 L 16.4874,-8.8103 L 16.4842,-8.8181 L 16.4808,-8.8259 L 16.4774,-8.8337 L 16.4739,-8.8414 L 16.4704,-8.8491 L 16.4667,-8.8568 L 16.4629,-8.8644 L 16.459,-8.8719 L 16.455,-8.8794 L 16.4508,-8.8868 L 16.4465,-8.8941 L 16.442,-8.9013 L 16.4374,-8.9084 L 16.4325,-8.9154 L 16.4274,-8.9222 L 16.4221,-8.9288 L 16.4165,-8.9351 L 16.4105,-8.9412 L 16.4042,-8.9469 L 16.3974,-8.952 L 16.3903,-8.9566 L 16.3826,-8.9603 L 16.3746,-8.963 L 16.3662,-8.9644 L 16.3578,-8.9645 L 16.3494,-8.9632" />
      <path d="M 15.9822,5.7969 L 15.9613,5.8386 L 15.9405,5.8804 L 15.9196,5.9222 L 15.8987,5.9639 L 15.8779,6.0057 L 15.857,6.0475 L 15.8361,6.0893 L 15.8153,6.131 L 15.7944,6.1728 L 15.7735,6.2146 L 15.7527,6.2563 L 15.7318,6.2981 L 15.7109,6.3399 L 15.6901,6.3817 L 15.6692,6.4234 L 15.6483,6.4652 L 15.6275,6.507 L 15.6066,6.5487 L 15.5857,6.5905 L 15.5649,6.6323 L 15.544,6.6741 L 15.5232,6.7158 L 15.5023,6.7576 L 15.4814,6.7994 L 15.4606,6.8412 L 15.4397,6.8829 L 15.4188,6.9247 L 15.398,6.9665 L 15.3771,7.0082 L 15.3562,7.05 L 15.3354,7.0918 L 15.3145,7.1336 L 15.2936,7.1753 L 15.2728,7.2171 L 15.2519,7.2589 L 15.231,7.3006 L 15.2102,7.3424 L 15.1893,7.3842 L 15.1684,7.426 L 15.1476,7.4677 L 15.1267,7.5095 L 15.1058,7.5513 L 15.085,7.593 L 15.0641,7.6348 L 15.0432,7.6766 L 15.0224,7.7184 L 15.0015,7.7601 L 14.9806,7.8019 L 14.9598,7.8437 L 14.9389,7.8854 L 14.918,7.9272 L 14.8972,7.969 L 14.8763,8.0108 L 14.8554,8.0525 L 14.8346,8.0943 L 14.8137,8.1361 L 14.7928,8.1779 L 14.772,8.2196 L 14.7511,8.2614 L 14.7303,8.3032 L 14.7094,8.3449 L 14.6885,8.3867 L 14.6677,8.4285 L 14.6468,8.4703 L 14.6259,8.512 L 14.6051,8.5538 L 14.5842,8.5956 L 14.5633,8.6373 L 14.5425,8.6791 L 14.5216,8.7209 L 14.5007,8.7627 L 14.4799,8.8044" />
      <path d="M 22.5305,6.7274 L 22.4877,6.7274 L 22.445,6.7274 L 22.4023,6.7274 L 22.3596,6.7274 L 22.3168,6.7274 L 22.2741,6.7274 L 22.2314,6.7274 L 22.1887,6.7274 L 22.146,6.7274 L 22.1032,6.7274 L 22.0605,6.7274 L 22.0178,6.7274 L 21.9751,6.7274 L 21.9323,6.7274 L 21.8896,6.7274 L 21.8469,6.7274 L 21.8042,6.7274 L 21.7615,6.7274 L 21.7187,6.7274 L 21.676,6.7274 L 21.6333,6.7274 L 21.5906,6.7274 L 21.5478,6.7274 L 21.5051,6.7274 L 21.4624,6.7274 L 21.4197,6.7274 L 21.377,6.7274 L 21.3342,6.7274 L 21.2915,6.7274 L 21.2488,6.7274 L 21.2061,6.7274 L 21.1633,6.7274 L 21.1206,6.7274 L 21.0779,6.7274 L 21.0352,6.7274 L 20.9924,6.7274 L 20.9497,6.7274 L 20.907,6.7274 L 20.8643,6.7274 L 20.8216,6.7274 L 20.7788,6.7274 L 20.7361,6.7274 L 20.6934,6.7274 L 20.6507,6.7274 L 20.6079,6.7274 L 20.5652,6.7274 L 20.5225,6.7274 L 20.4798,6.7274 L 20.4371,6.7274 L 20.3943,6.7274 L 20.3516,6.7274 L 20.3089,6.7274 L 20.2662,6.7274 L 20.2234,6.7274 L 20.1807,6.7274 L 20.138,6.7274 L 20.0953,6.7274 L 20.0526,6.7274 L 20.0098,6.7274 L 19.9671,6.7274 L 19.9244,6.7274 L 19.8817,6.7274 L 19.8389,6.7274 L 19.7962,6.7274 L 19.7535,6.7274 L 19.7108,6.7273 L 19.6681,6.7273 L 19.6253,6.7273 L 19.5826,6.7273 L 19.5399,6.7273 L 19.4972,6.7273 L 19.4544,6.7273" />
      <path d="M 21.0382,-6.4796 L 20.9843,-6.4668 L 20.9304,-6.454 L 20.8765,-6.4412 L 20.8226,-6.4284 L 20.7687,-6.4156 L 20.7148,-6.4028 L 20.661,-6.39 L 20.6071,-6.3772 L 20.5532,-6.3644 L 20.4993,-6.3516 L 20.4454,-6.3388 L 20.3915,-6.326 L 20.3376,-6.3132 L 20.2837,-6.3004 L 20.2299,-6.2876 L 20.176,-6.2748 L 20.1221,-6.262 L 20.0682,-6.2492 L 20.0143,-6.2364 L 19.9604,-6.2236 L 19.9065,-6.2108 L 19.8526,-6.198 L 19.7988,-6.1852 L 19.7449,-6.1724 L 19.691,-6.1596 L 19.6371,-6.1468 L 19.5832,-6.134 L 19.5293,-6.1212 L 19.4754,-6.1084 L 19.4215,-6.0956 L 19.3676,-6.0828 L 19.3138,-6.07 L 19.2599,-6.0572 L 19.206,-6.0444 L 19.1521,-6.0316 L 19.0982,-6.0188 L 19.0443,-6.006 L 18.9904,-5.9932 L 18.9365,-5.9804 L 18.8827,-5.9676 L 18.8288,-5.9548 L 18.7749,-5.942 L 18.721,-5.9292 L 18.6671,-5.9164 L 18.6132,-5.9036 L 18.5593,-5.8908 L 18.5054,-5.878 L 18.4516,-5.8652 L 18.3977,-5.8524 L 18.3438,-5.8396 L 18.2899,-5.8268 L 18.236,-5.814 L 18.1821,-5.8012 L 18.1282,-5.7884 L 18.0743,-5.7756 L 18.0205,-5.7628 L 17.9666,-5.75 L 17.9127,-5.7371 L 17.8588,-5.7243 L 17.8049,-5.7115 L 17.751,-5.6987 L 17.6971,-5.6859 L 17.6432,-5.6731 L 17.5894,-5.6603 L 17.5355,-5.6475 L 17.4816,-5.6347 L 17.4277,-5.6219 L 17.3738,-5.6091 L 17.3199,-5.5963 L 17.266,-5.5835 L 17.2121,-5.5707 L 17.1582,-5.5579" />
      <path d="M 17.3103,-5.2318 L 17.3004,-5.2763 L 17.2905,-5.3208 L 17.2805,-5.3653 L 17.2706,-5.4098 L 17.2607,-5.4543 L 17.2507,-5.4988 L 17.2408,-5.5433 L 17.2309,-5.5878 L 17.221,-5.6323 L 17.211,-5.6768 L 17.2011,-5.7212 L 17.1912,-5.7657 L 17.1812,-5.8102 L 17.1713,-5.8547 L 17.1614,-5.8992 L 17.1515,-5.9437 L 17.1415,-5.9882 L 17.1316,-6.0327 L 17.1217,-6.0772 L 17.1117,-6.1217 L 17.1018,-6.1662 L 17.0919,-6.2107 L 17.0819,-6.2552 L 17.072,-6.2997 L 17.0621,-6.3442 L 17.0522,-6.3886 L 17.0422,-6.4331 L 17.0323,-6.4776 L 17.0224,-6.5221 L 17.0124,-6.5666 L 17.0025,-6.6111 L 16.9926,-6.6556 L 16.9827,-6.7001 L 16.9727,-6.7446 L 16.9628,-6.7891 L 16.9529,-6.8336 L 16.9429,-6.8781 L 16.933,-6.9226 L 16.9231,-6.9671 L 16.9132,-7.0116 L 16.9032,-7.0561 L 16.8933,-7.1005 L 16.8834,-7.145 L 16.8734,-7.1895 L 16.8635,-7.234 L 16.8536,-7.2785 L 16.8437,-7.323 L 16.8337,-7.3675 L 16.8238,-7.412 L 16.8139,-7.4565 L 16.8039,-7.501 L 16.794,-7.5455 L 16.7841,-7.59 L 16.7742,-7.6345 L 16.7642,-7.679 L 16.7543,-7.7235 L 16.7444,-7.7679 L 16.7344,-7.8124 L 16.7245,-7.8569 L 16.7146,-7.9014 L 16.7047,-7.9459 L 16.6947,-7.9904 L 16.6848,-8.0349 L 16.6749,-8.0794 L 16.6649,-8.1239 L 16.655,-8.1684 L 16.6451,-8.2129 L 16.6352,-8.2574 L 16.6252,-8.3019 L 16.6153,-8.3464 L 16.6054,-8.3909 L 16.5954,-8.4353" />
    </g>
    <g fill="none" stroke="rgb(0,0,0)" stroke-width="0.2" id="Center" stroke-dasharray="6.35 1.27 1.27 1.27">
      <line x1="0.2308" y1="0.3218" x2="-11.6583" y2="0.3218" />
      <line x1="0.2308" y1="0.3218" x2="12.1199" y2="0.3218" />
      <line x1="0.2308" y1="0.3218" x2="0.2308" y2="-11.5258" />
      <line x1="0.2308" y1="0.3218" x2="0.2308" y2="12.1695" />
      <line x1="18.5054" y1="0.3211" x2="12.8399" y2="0.3211" />
      <line x1="18.5054" y1="0.3211" x2="24.1709" y2="0.3211" />
    </g>
  </g>
</svg>