<?xml version='1.0' encoding='utf-8'?>
<svg width="35.4891mm" height="28.4788mm" viewBox="-14.2394 -14.2394 35.4891 28.4788" version="1.1" xmlns="http://www.w3.org/2000/svg">
  <g transform="scale(1,-1)" stroke-linecap="round">
    <g fill="none" stroke="rgb(0,0,0)" stroke-width="0.4" id="Visible">
      <path d="M 6.4606,0.0 L 6.436,0.5631 L 6.3625,1.1219 L 6.2405,1.6721 L 6.071,2.2097 L 5.8553,2.7304 L 5.5951,3.2303 L 5.2922,3.7057 L 4.9491,4.1528 L 4.5684,4.5684 L 4.1528,4.9491 L 3.7057,5.2922 L 3.2303,5.5951 L 2.7304,5.8553 L 2.2097,6.071 L 1.6721,6.2405 L 1.1219,6.3625 L 0.5631,6.436 L 0.0,6.4606 L -0.5631,6.436 L -1.1219,6.3625 L -1.6721,6.2405 L -2.2097,6.071 L -2.7304,5.8553 L -3.2303,5.5951 L -3.7057,5.2922 L -4.1528,4.9491 L -4.5684,4.5684 L -4.9491,4.1528 L -5.2922,3.7057 L -5.5951,3.2303 L -5.8553,2.7304 L -6.071,2.2097 L -6.2405,1.6721 L -6.3625,1.1219 L -6.436,0.5631 L -6.4606,0.0 L -6.436,-0.5631 L -6.3625,-1.1219 L -6.2405,-1.6721 L -6.071,-2.2097 L -5.8553,-2.7304 L -5.5951,-3.2303 L -5.2922,-3.7057 L -4.9491,-4.1528 L -4.5684,-4.5684 L -4.1528,-4.9491 L -3.7057,-5.2922 L -3.2303,-5.5951 L -2.7304,-5.8553 L -2.2097,-6.071 L -1.6721,-6.2405 L -1.1219,-6.3625 L -0.5631,-6.436 L -0.0,-6.4606 L 0.5631,-6.436 L 1.1219,-6.3625 L 1.6721,-6.2405 L 2.2097,-6.071 L 2.7304,-5.8553 L 3.2303,-5.5951 L 3.7057,-5.2922 L 4.1528,-4.9491 L 4.5684,-4.5684 L 4.9491,-4.1528 L 5.2922,-3.7057 L 5.5951,-3.2303 L 5.8553,-2.7304 L 6.071,-2.2097 L 6.2405,-1.6721 L 6.3625,-1.1219 L 6.436,-0.5631 L 6.4606,-0.0" />
      <path d="M 12.0394,0.0 L 11.9936,1.0493 L 11.8565,2.0906 L 11.6291,3.116 L 11.3133,4.1177 L 10.9114,5.0881 L 10.4264,6.0197 L 9.8621,6.9055 L 9.2227,7.7388 L 8.5131,8.5131 L 7.7388,9.2227 L 6.9055,9.8621 L 6.0197,10.4264 L 5.0881,10.9114 L 4.1177,11.3133 L 3.116,11.6291 L 2.0906,11.8565 L 1.0493,11.9936 L -0.0,12.0394 L -1.0493,11.9936 L -2.0906,11.8565 L -3.116,11.6291 L -4.1177,11.3133 L -5.0881,10.9114 L -6.0197,10.4264 L -6.9055,9.8621 L -7.7388,9.2227 L -8.5131,8.5131 L -9.2227,7.7388 L -9.8621,6.9055 L -10.4264,6.0197 L -10.9114,5.0881 L -11.3133,4.1177 L -11.6291,3.116 L -11.8565,2.0906 L -11.9936,1.0493 L -12.0394,-0.0 L -11.9936,-1.0493 L -11.8565,-2.0906 L -11.6291,-3.116 L -11.3133,-4.1177 L -10.9114,-5.0881 L -10.4264,-6.0197 L -9.8621,-6.9055 L -9.2227,-7.7388 L -8.5131,-8.5131 L -7.7388,-9.2227 L -6.9055,-9.8621 L -6.0197,-10.4264 L -5.0881,-10.9114 L -4.1177,-11.3133 L -3.116,-11.6291 L -2.0906,-11.8565 L -1.0493,-11.9936 L 0.0,-12.0394 L 1.0493,-11.9936 L 2.0906,-11.8565 L 3.116,-11.6291 L 4.1177,-11.3133 L 5.0881,-10.9114 L 6.0197,-10.4264 L 6.9055,-9.8621 L 7.7388,-9.2227 L 8.5131,-8.5131 L 9.2227,-7.7388 L 9.8621,-6.9055 L 10.4264,-6.0197 L 10.9114,-5.0881 L 11.3133,-4.1177 L 11.6291,-3.116 L 11.8565,-2.0906 L 11.9936,-1.0493 L 12.0394,0.0" />
      <path d="M 11.6289,0.0 L 11.5847,1.0135 L 11.4523,2.0193 L 11.2327,3.0098 L 10.9276,3.9773 L 10.5394,4.9146 L 10.071,5.8145 L 9.5259,6.6701 L 8.9083,7.4749 L 8.2229,8.2229 L 7.4749,8.9083 L 6.6701,9.5259 L 5.8145,10.071 L 4.9146,10.5394 L 3.9773,10.9276 L 3.0098,11.2327 L 2.0193,11.4523 L 1.0135,11.5847 L -0.0,11.6289 L -1.0135,11.5847 L -2.0193,11.4523 L -3.0098,11.2327 L -3.9773,10.9276 L -4.9146,10.5394 L -5.8145,10.071 L -6.6701,9.5259 L -7.4749,8.9083 L -8.2229,8.2229 L -8.9083,7.4749 L -9.5259,6.6701 L -10.071,5.8145 L -10.5394,4.9146 L -10.9276,3.9773 L -11.2327,3.0098 L -11.4523,2.0193 L -11.5847,1.0135 L -11.6289,-0.0 L -11.5847,-1.0135 L -11.4523,-2.0193 L -11.2327,-3.0098 L -10.9276,-3.9773 L -10.5394,-4.9146 L -10.071,-5.8145 L -9.5259,-6.6701 L -8.9083,-7.4749 L -8.2229,-8.2229 L -7.4749,-8.9083 L -6.6701,-9.5259 L -5.8145,-10.071 L -4.9146,-10.5394 L -3.9773,-10.9276 L -3.0098,-11.2327 L -2.0193,-11.4523 L -1.0135,-11.5847 L 0.0,-11.6289 L 1.0135,-11.5847 L 2.0193,-11.4523 L 3.0098,-11.2327 L 3.9773,-10.9276 L 4.9146,-10.5394 L 5.8145,-10.071 L 6.6701,-9.5259 L 7.4749,-8.9083 L 8.2229,-8.2229 L 8.9083,-7.4749 L 9.5259,-6.6701 L 10.071,-5.8145 L 10.5394,-4.9146 L 10.9276,-3.9773 L 11.2327,-3.0098 L 11.4523,-2.0193 L 11.5847,-1.0135 L 11.6289,0.0" />
      <path d="M 19.0491,6.8711 L 19.0492,6.6802 L 19.0493,6.4893 L 19.0493,6.2985 L 19.0493,6.1076 L 19.0494,5.9167 L 19.0494,5.7259 L 19.0494,5.535 L 19.0494,5.3442 L 19.0495,5.1533 L 19.0495,4.9624 L 19.0495,4.7716 L 19.0495,4.5807 L 19.0495,4.3898 L 19.0495,4.199 L 19.0495,4.0081 L 19.0496,3.8173 L 19.0496,3.6264 L 19.0496,3.4355 L 19.0496,3.2447 L 19.0496,3.0538 L 19.0496,2.8629 L 19.0496,2.6721 L 19.0496,2.4812 L 19.0496,2.2904 L 19.0496,2.0995 L 19.0496,1.9086 L 19.0496,1.7178 L 19.0496,1.5269 L 19.0496,1.336 L 19.0496,1.1452 L 19.0496,0.9543 L 19.0496,0.7635 L 19.0496,0.5726 L 19.0497,0.3817 L 19.0497,0.1909 L 19.0497,0.0 L 19.0497,-0.1909 L 19.0497,-0.3817 L 19.0496,-0.5726 L 19.0496,-0.7635 L 19.0496,-0.9543 L 19.0496,-1.1452 L 19.0496,-1.336 L 19.0496,-1.5269 L 19.0496,-1.7178 L 19.0496,-1.9086 L 19.0496,-2.0995 L 19.0496,-2.2904 L 19.0496,-2.4812 L 19.0496,-2.6721 L 19.0496,-2.8629 L 19.0496,-3.0538 L 19.0496,-3.2447 L 19.0496,-3.4355 L 19.0496,-3.6264 L 19.0496,-3.8173 L 19.0495,-4.0081 L 19.0495,-4.199 L 19.0495,-4.3898 L 19.0495,-4.5807 L 19.0495,-4.7716 L 19.0495,-4.9624 L 19.0495,-5.1533 L 19.0494,-5.3442 L 19.0494,-5.535 L 19.0494,-5.7259 L 19.0494,-5.9167 L 19.0493,-6.1076 L 19.0493,-6.2985 L 19.0493,-6.4893 L 19.0492,-6.6802 L 19.0491,-6.8711" />
      <path d="M 19.0491,-6.8711 L 19.0489,-6.6802 L 19.0489,-6.4893 L 19.0488,-6.2985 L 19.0488,-6.1076 L 19.0488,-5.9167 L 19.0488,-5.7259 L 19.0487,-5.535 L 19.0487,-5.3442 L 19.0487,-5.1533 L 19.0487,-4.9624 L 19.0487,-4.7716 L 19.0487,-4.5807 L 19.0486,-4.3898 L 19.0486,-4.199 L 19.0486,-4.0081 L 19.0486,-3.8173 L 19.0486,-3.6264 L 19.0486,-3.4355 L 19.0486,-3.2447 L 19.0486,-3.0538 L 19.0486,-2.8629 L 19.0486,-2.6721 L 19.0485,-2.4812 L 19.0485,-2.2904 L 19.0485,-2.0995 L 19.0485,-1.9086 L 19.0485,-1.7178 L 19.0485,-1.5269 L 19.0485,-1.336 L 19.0485,-1.1452 L 19.0485,-0.9543 L 19.0485,-0.7635 L 19.0485,-0.5726 L 19.0485,-0.3817 L 19.0485,-0.1909 L 19.0485,0.0 L 19.0485,0.1909 L 19.0485,0.3817 L 19.0485,0.5726 L 19.0485,0.7635 L 19.0485,0.9543 L 19.0485,1.1452 L 19.0485,1.336 L 19.0485,1.5269 L 19.0485,1.7178 L 19.0485,1.9086 L 19.0485,2.0995 L 19.0485,2.2904 L 19.0485,2.4812 L 19.0486,2.6721 L 19.0486,2.8629 L 19.0486,3.0538 L 19.0486,3.2447 L 19.0486,3.4355 L 19.0486,3.6264 L 19.0486,3.8173 L 19.0486,4.0081 L 19.0486,4.199 L 19.0486,4.3898 L 19.0487,4.5807 L 19.0487,4.7716 L 19.0487,4.9624 L 19.0487,5.1533 L 19.0487,5.3442 L 19.0487,5.535 L 19.0488,5.7259 L 19.0488,5.9167 L 19.0488,6.1076 L 19.0488,6.2985 L 19.0489,6.4893 L 19.0489,6.6802 L 19.0491,6.8711" />
      <path d="M 17.168,-12.0394 L 17.1677,-11.7049 L 17.1676,-11.3705 L 17.1676,-11.0361 L 17.1675,-10.7017 L 17.1675,-10.3672 L 17.1674,-10.0328 L 17.1674,-9.6984 L 17.1673,-9.364 L 17.1673,-9.0295 L 17.1673,-8.6951 L 17.1672,-8.3607 L 17.1672,-8.0262 L 17.1672,-7.6918 L 17.1672,-7.3574 L 17.1672,-7.023 L 17.1671,-6.6885 L 17.1671,-6.3541 L 17.1671,-6.0197 L 17.1671,-5.6853 L 17.1671,-5.3508 L 17.1671,-5.0164 L 17.167,-4.682 L 17.167,-4.3475 L 17.167,-4.0131 L 17.167,-3.6787 L 17.167,-3.3443 L 17.167,-3.0098 L 17.167,-2.6754 L 17.167,-2.341 L 17.167,-2.0066 L 17.167,-1.6721 L 17.167,-1.3377 L 17.167,-1.0033 L 17.167,-0.6689 L 17.167,-0.3344 L 17.167,0.0 L 17.167,0.3344 L 17.167,0.6689 L 17.167,1.0033 L 17.167,1.3377 L 17.167,1.6721 L 17.167,2.0066 L 17.167,2.341 L 17.167,2.6754 L 17.167,3.0098 L 17.167,3.3443 L 17.167,3.6787 L 17.167,4.0131 L 17.167,4.3475 L 17.167,4.682 L 17.1671,5.0164 L 17.1671,5.3508 L 17.1671,5.6853 L 17.1671,6.0197 L 17.1671,6.3541 L 17.1671,6.6885 L 17.1672,7.023 L 17.1672,7.3574 L 17.1672,7.6918 L 17.1672,8.0262 L 17.1672,8.3607 L 17.1673,8.6951 L 17.1673,9.0295 L 17.1673,9.364 L 17.1674,9.6984 L 17.1674,10.0328 L 17.1675,10.3672 L 17.1675,10.7017 L 17.1676,11.0361 L 17.1676,11.3705 L 17.1677,11.7049 L 17.168,12.0394" />
      <path d="M 16.0403,-11.6289 L 16.0401,-11.3059 L 16.04,-10.9829 L 16.0399,-10.6599 L 16.0399,-10.3368 L 16.0398,-10.0138 L 16.0398,-9.6908 L 16.0398,-9.3678 L 16.0397,-9.0447 L 16.0397,-8.7217 L 16.0397,-8.3987 L 16.0396,-8.0757 L 16.0396,-7.7526 L 16.0396,-7.4296 L 16.0396,-7.1066 L 16.0395,-6.7836 L 16.0395,-6.4605 L 16.0395,-6.1375 L 16.0395,-5.8145 L 16.0395,-5.4914 L 16.0395,-5.1684 L 16.0395,-4.8454 L 16.0394,-4.5224 L 16.0394,-4.1993 L 16.0394,-3.8763 L 16.0394,-3.5533 L 16.0394,-3.2303 L 16.0394,-2.9072 L 16.0394,-2.5842 L 16.0394,-2.2612 L 16.0394,-1.9382 L 16.0394,-1.6151 L 16.0394,-1.2921 L 16.0394,-0.9691 L 16.0394,-0.6461 L 16.0394,-0.323 L 16.0394,0.0 L 16.0394,0.323 L 16.0394,0.6461 L 16.0394,0.9691 L 16.0394,1.2921 L 16.0394,1.6151 L 16.0394,1.9382 L 16.0394,2.2612 L 16.0394,2.5842 L 16.0394,2.9072 L 16.0394,3.2303 L 16.0394,3.5533 L 16.0394,3.8763 L 16.0394,4.1993 L 16.0394,4.5224 L 16.0395,4.8454 L 16.0395,5.1684 L 16.0395,5.4914 L 16.0395,5.8145 L 16.0395,6.1375 L 16.0395,6.4605 L 16.0395,6.7835 L 16.0396,7.1066 L 16.0396,7.4296 L 16.0396,7.7526 L 16.0396,8.0757 L 16.0397,8.3987 L 16.0397,8.7217 L 16.0397,9.0447 L 16.0398,9.3678 L 16.0398,9.6908 L 16.0398,10.0138 L 16.0399,10.3368 L 16.0399,10.6599 L 16.04,10.9829 L 16.0401,11.3059 L 16.0403,11.6289" />
      <path d="M 19.0491,6.8711 L 19.023,6.9428 L 18.9968,7.0146 L 18.9707,7.0864 L 18.9446,7.1582 L 18.9184,7.23 L 18.8923,7.3017 L 18.8662,7.3735 L 18.8401,7.4453 L 18.8139,7.5171 L 18.7878,7.5889 L 18.7617,7.6607 L 18.7356,7.7324 L 18.7094,7.8042 L 18.6833,7.876 L 18.6572,7.9478 L 18.6311,8.0196 L 18.6049,8.0914 L 18.5788,8.1631 L 18.5527,8.2349 L 18.5265,8.3067 L 18.5004,8.3785 L 18.4743,8.4503 L 18.4482,8.522 L 18.422,8.5938 L 18.3959,8.6656 L 18.3698,8.7374 L 18.3437,8.8092 L 18.3175,8.881 L 18.2914,8.9527 L 18.2653,9.0245 L 18.2392,9.0963 L 18.213,9.1681 L 18.1869,9.2399 L 18.1608,9.3116 L 18.1347,9.3834 L 18.1085,9.4552 L 18.0824,9.527 L 18.0563,9.5988 L 18.0301,9.6706 L 18.004,9.7423 L 17.9779,9.8141 L 17.9518,9.8859 L 17.9256,9.9577 L 17.8995,10.0295 L 17.8734,10.1013 L 17.8473,10.173 L 17.8211,10.2448 L 17.795,10.3166 L 17.7689,10.3884 L 17.7428,10.4602 L 17.7166,10.5319 L 17.6905,10.6037 L 17.6644,10.6755 L 17.6382,10.7473 L 17.6121,10.8191 L 17.586,10.8909 L 17.5599,10.9626 L 17.5337,11.0344 L 17.5076,11.1062 L 17.4815,11.178 L 17.4554,11.2498 L 17.4292,11.3215 L 17.4031,11.3933 L 17.377,11.4651 L 17.3509,11.5369 L 17.3247,11.6087 L 17.2986,11.6805 L 17.2725,11.7522 L 17.2463,11.824 L 17.2202,11.8958 L 17.1941,11.9676 L 17.168,12.0394" />
      <path d="M 19.0491,-6.8711 L 19.023,-6.9428 L 18.9968,-7.0146 L 18.9707,-7.0864 L 18.9446,-7.1582 L 18.9184,-7.23 L 18.8923,-7.3017 L 18.8662,-7.3735 L 18.8401,-7.4453 L 18.8139,-7.5171 L 18.7878,-7.5889 L 18.7617,-7.6607 L 18.7356,-7.7324 L 18.7094,-7.8042 L 18.6833,-7.876 L 18.6572,-7.9478 L 18.6311,-8.0196 L 18.6049,-8.0914 L 18.5788,-8.1631 L 18.5527,-8.2349 L 18.5265,-8.3067 L 18.5004,-8.3785 L 18.4743,-8.4503 L 18.4482,-8.522 L 18.422,-8.5938 L 18.3959,-8.6656 L 18.3698,-8.7374 L 18.3437,-8.8092 L 18.3175,-8.881 L 18.2914,-8.9527 L 18.2653,-9.0245 L 18.2392,-9.0963 L 18.213,-9.1681 L 18.1869,-9.2399 L 18.1608,-9.3116 L 18.1347,-9.3834 L 18.1085,-9.4552 L 18.0824,-9.527 L 18.0563,-9.5988 L 18.0301,-9.6706 L 18.004,-9.7423 L 17.9779,-9.8141 L 17.9518,-9.8859 L 17.9256,-9.9577 L 17.8995,-10.0295 L 17.8734,-10.1013 L 17.8473,-10.173 L 17.8211,-10.2448 L 17.795,-10.3166 L 17.7689,-10.3884 L 17.7428,-10.4602 L 17.7166,-10.5319 L 17.6905,-10.6037 L 17.6644,-10.6755 L 17.6382,-10.7473 L 17.6121,-10.8191 L 17.586,-10.8909 L 17.5599,-10.9626 L 17.5337,-11.0344 L 17.5076,-11.1062 L 17.4815,-11.178 L 17.4554,-11.2498 L 17.4292,-11.3215 L 17.4031,-11.3933 L 17.377,-11.4651 L 17.3509,-11.5369 L 17.3247,-11.6087 L 17.2986,-11.6805 L 17.2725,-11.7522 L 17.2463,-11.824 L 17.2202,-11.8958 L 17.1941,-11.9676 L 17.168,-12.0394" />
      <path d="M 16.0403,11.6289 L 16.056,11.6346 L 16.0717,11.6403 L 16.0873,11.646 L 16.103,11.6517 L 16.1186,11.6574 L 16.1343,11.6631 L 16.15,11.6688 L 16.1656,11.6745 L 16.1813,11.6802 L 16.197,11.6859 L 16.2126,11.6916 L 16.2283,11.6973 L 16.2439,11.703 L 16.2596,11.7087 L 16.2753,11.7144 L 16.2909,11.7201 L 16.3066,11.7258 L 16.3222,11.7315 L 16.3379,11.7372 L 16.3536,11.7429 L 16.3692,11.7486 L 16.3849,11.7544 L 16.4006,11.7601 L 16.4162,11.7658 L 16.4319,11.7715 L 16.4475,11.7772 L 16.4632,11.7829 L 16.4789,11.7886 L 16.4945,11.7943 L 16.5102,11.8 L 16.5258,11.8057 L 16.5415,11.8114 L 16.5572,11.8171 L 16.5728,11.8228 L 16.5885,11.8285 L 16.6042,11.8342 L 16.6198,11.8399 L 16.6355,11.8456 L 16.6511,11.8513 L 16.6668,11.857 L 16.6825,11.8627 L 16.6981,11.8684 L 16.7138,11.8741 L 16.7294,11.8798 L 16.7451,11.8855 L 16.7608,11.8912 L 16.7764,11.8969 L 16.7921,11.9026 L 16.8078,11.9083 L 16.8234,11.914 L 16.8391,11.9197 L 16.8547,11.9254 L 16.8704,11.9311 L 16.8861,11.9368 L 16.9017,11.9425 L 16.9174,11.9482 L 16.933,11.9539 L 16.9487,11.9596 L 16.9644,11.9653 L 16.98,11.971 L 16.9957,11.9767 L 17.0114,11.9824 L 17.027,11.9881 L 17.0427,11.9938 L 17.0583,11.9995 L 17.074,12.0052 L 17.0897,12.0109 L 17.1053,12.0166 L 17.121,12.0223 L 17.1366,12.028 L 17.1523,12.0337 L 17.168,12.0394" />
      <path d="M 16.0403,-11.6289 L 16.056,-11.6346 L 16.0717,-11.6403 L 16.0873,-11.646 L 16.103,-11.6517 L 16.1186,-11.6574 L 16.1343,-11.6631 L 16.15,-11.6688 L 16.1656,-11.6745 L 16.1813,-11.6802 L 16.197,-11.6859 L 16.2126,-11.6916 L 16.2283,-11.6973 L 16.2439,-11.703 L 16.2596,-11.7087 L 16.2753,-11.7144 L 16.2909,-11.7201 L 16.3066,-11.7258 L 16.3222,-11.7315 L 16.3379,-11.7372 L 16.3536,-11.7429 L 16.3692,-11.7486 L 16.3849,-11.7544 L 16.4006,-11.7601 L 16.4162,-11.7658 L 16.4319,-11.7715 L 16.4475,-11.7772 L 16.4632,-11.7829 L 16.4789,-11.7886 L 16.4945,-11.7943 L 16.5102,-11.8 L 16.5258,-11.8057 L 16.5415,-11.8114 L 16.5572,-11.8171 L 16.5728,-11.8228 L 16.5885,-11.8285 L 16.6042,-11.8342 L 16.6198,-11.8399 L 16.6355,-11.8456 L 16.6511,-11.8513 L 16.6668,-11.857 L 16.6825,-11.8627 L 16.6981,-11.8684 L 16.7138,-11.8741 L 16.7294,-11.8798 L 16.7451,-11.8855 L 16.7608,-11.8912 L 16.7764,-11.8969 L 16.7921,-11.9026 L 16.8078,-11.9083 L 16.8234,-11.914 L 16.8391,-11.9197 L 16.8547,-11.9254 L 16.8704,-11.9311 L 16.8861,-11.9368 L 16.9017,-11.9425 L 16.9174,-11.9482 L 16.933,-11.9539 L 16.9487,-11.9596 L 16.9644,-11.9653 L 16.98,-11.971 L 16.9957,-11.9767 L 17.0114,-11.9824 L 17.027,-11.9881 L 17.0427,-11.9938 L 17.0583,-11.9995 L 17.074,-12.0052 L 17.0897,-12.0109 L 17.1053,-12.0166 L 17.121,-12.0223 L 17.1366,-12.028 L 17.1523,-12.0337 L 17.168,-12.0394" />
    </g>
    <g fill="none" stroke="rgb(110,110,110)" stroke-width="0.3" id="Hidden" stroke-dasharray="3.6 0.9">
      <path d="M 6.8711,0.0 L 6.8449,0.5989 L 6.7667,1.1931 L 6.6369,1.7784 L 6.4567,2.35 L 6.2273,2.9038 L 5.9505,3.4355 L 5.6284,3.9411 L 5.2635,4.4166 L 4.8586,4.8586 L 4.4166,5.2635 L 3.9411,5.6284 L 3.4355,5.9505 L 2.9038,6.2273 L 2.35,6.4567 L 1.7784,6.6369 L 1.1931,6.7667 L 0.5989,6.8449 L 0.0,6.8711 L -0.5989,6.8449 L -1.1931,6.7667 L -1.7784,6.6369 L -2.35,6.4567 L -2.9038,6.2273 L -3.4355,5.9505 L -3.9411,5.6284 L -4.4166,5.2635 L -4.8586,4.8586 L -5.2635,4.4166 L -5.6284,3.9411 L -5.9505,3.4355 L -6.2273,2.9038 L -6.4567,2.35 L -6.6369,1.7784 L -6.7667,1.1931 L -6.8449,0.5989 L -6.8711,0.0 L -6.8449,-0.5989 L -6.7667,-1.1931 L -6.6369,-1.7784 L -6.4567,-2.35 L -6.2273,-2.9038 L -5.9505,-3.4355 L -5.6284,-3.9411 L -5.2635,-4.4166 L -4.8586,-4.8586 L -4.4166,-5.2635 L -3.9411,-5.6284 L -3.4355,-5.9505 L -2.9038,-6.2273 L -2.35,-6.4567 L -1.7784,-6.6369 L -1.1931,-6.7667 L -0.5989,-6.8449 L -0.0,-6.8711 L 0.5989,-6.8449 L 1.1931,-6.7667 L 1.7784,-6.6369 L 2.35,-6.4567 L 2.9038,-6.2273 L 3.4355,-5.9505 L 3.9411,-5.6284 L 4.4166,-5.2635 L 4.8586,-4.8586 L 5.2635,-4.4166 L 5.6284,-3.9411 L 5.9505,-3.4355 L 6.2273,-2.9038 L 6.4567,-2.35 L 6.6369,-1.7784 L 6.7667,-1.1931 L 6.8449,-0.5989 L 6.8711,-0.0" />
      <path d="M 17.9214,6.4606 L 17.9216,6.2812 L 17.9216,6.1017 L 17.9217,5.9222 L 17.9217,5.7428 L 17.9217,5.5633 L 17.9217,5.3839 L 17.9218,5.2044 L 17.9218,5.0249 L 17.9218,4.8455 L 17.9218,4.666 L 17.9218,4.4866 L 17.9218,4.3071 L 17.9219,4.1276 L 17.9219,3.9482 L 17.9219,3.7687 L 17.9219,3.5892 L 17.9219,3.4098 L 17.9219,3.2303 L 17.9219,3.0509 L 17.9219,2.8714 L 17.9219,2.6919 L 17.9219,2.5125 L 17.922,2.333 L 17.922,2.1535 L 17.922,1.9741 L 17.922,1.7946 L 17.922,1.6152 L 17.922,1.4357 L 17.922,1.2562 L 17.922,1.0768 L 17.922,0.8973 L 17.922,0.7178 L 17.922,0.5384 L 17.922,0.3589 L 17.922,0.1795 L 17.922,0.0 L 17.922,-0.1795 L 17.922,-0.3589 L 17.922,-0.5384 L 17.922,-0.7178 L 17.922,-0.8973 L 17.922,-1.0768 L 17.922,-1.2562 L 17.922,-1.4357 L 17.922,-1.6152 L 17.922,-1.7946 L 17.922,-1.9741 L 17.922,-2.1535 L 17.922,-2.333 L 17.9219,-2.5125 L 17.9219,-2.6919 L 17.9219,-2.8714 L 17.9219,-3.0509 L 17.9219,-3.2303 L 17.9219,-3.4098 L 17.9219,-3.5892 L 17.9219,-3.7687 L 17.9219,-3.9482 L 17.9219,-4.1276 L 17.9218,-4.3071 L 17.9218,-4.4866 L 17.9218,-4.666 L 17.9218,-4.8455 L 17.9218,-5.0249 L 17.9218,-5.2044 L 17.9217,-5.3839 L 17.9217,-5.5633 L 17.9217,-5.7428 L 17.9217,-5.9222 L 17.9216,-6.1017 L 17.9216,-6.2812 L 17.9214,-6.4606" />
      <path d="M 17.9214,-6.4606 L 17.9213,-6.2812 L 17.9213,-6.1017 L 17.9212,-5.9222 L 17.9212,-5.7428 L 17.9212,-5.5633 L 17.9211,-5.3839 L 17.9211,-5.2044 L 17.9211,-5.0249 L 17.9211,-4.8455 L 17.9211,-4.666 L 17.9211,-4.4866 L 17.921,-4.3071 L 17.921,-4.1276 L 17.921,-3.9482 L 17.921,-3.7687 L 17.921,-3.5892 L 17.921,-3.4098 L 17.921,-3.2303 L 17.921,-3.0509 L 17.921,-2.8714 L 17.921,-2.6919 L 17.921,-2.5125 L 17.9209,-2.333 L 17.9209,-2.1535 L 17.9209,-1.9741 L 17.9209,-1.7946 L 17.9209,-1.6152 L 17.9209,-1.4357 L 17.9209,-1.2562 L 17.9209,-1.0768 L 17.9209,-0.8973 L 17.9209,-0.7178 L 17.9209,-0.5384 L 17.9209,-0.3589 L 17.9209,-0.1795 L 17.9209,0.0 L 17.9209,0.1795 L 17.9209,0.3589 L 17.9209,0.5384 L 17.9209,0.7178 L 17.9209,0.8973 L 17.9209,1.0768 L 17.9209,1.2562 L 17.9209,1.4357 L 17.9209,1.6152 L 17.9209,1.7946 L 17.9209,1.9741 L 17.9209,2.1535 L 17.9209,2.333 L 17.921,2.5125 L 17.921,2.6919 L 17.921,2.8714 L 17.921,3.0509 L 17.921,3.2303 L 17.921,3.4098 L 17.921,3.5892 L 17.921,3.7687 L 17.921,3.9482 L 17.921,4.1276 L 17.921,4.3071 L 17.9211,4.4866 L 17.9211,4.666 L 17.9211,4.8455 L 17.9211,5.0249 L 17.9211,5.2044 L 17.9211,5.3839 L 17.9212,5.5633 L 17.9212,5.7428 L 17.9212,5.9222 L 17.9213,6.1017 L 17.9213,6.2812 L 17.9214,6.4606" />
      <path d="M 17.168,12.0394 L 17.1682,11.7049 L 17.1683,11.3705 L 17.1684,11.0361 L 17.1684,10.7017 L 17.1685,10.3672 L 17.1685,10.0328 L 17.1686,9.6984 L 17.1686,9.364 L 17.1686,9.0295 L 17.1687,8.6951 L 17.1687,8.3607 L 17.1687,8.0262 L 17.1687,7.6918 L 17.1688,7.3574 L 17.1688,7.023 L 17.1688,6.6885 L 17.1688,6.3541 L 17.1688,6.0197 L 17.1689,5.6853 L 17.1689,5.3508 L 17.1689,5.0164 L 17.1689,4.682 L 17.1689,4.3475 L 17.1689,4.0131 L 17.1689,3.6787 L 17.1689,3.3443 L 17.1689,3.0098 L 17.1689,2.6754 L 17.169,2.341 L 17.169,2.0066 L 17.169,1.6721 L 17.169,1.3377 L 17.169,1.0033 L 17.169,0.6689 L 17.169,0.3344 L 17.169,0.0 L 17.169,-0.3344 L 17.169,-0.6689 L 17.169,-1.0033 L 17.169,-1.3377 L 17.169,-1.6721 L 17.169,-2.0066 L 17.169,-2.341 L 17.1689,-2.6754 L 17.1689,-3.0098 L 17.1689,-3.3443 L 17.1689,-3.6787 L 17.1689,-4.0131 L 17.1689,-4.3475 L 17.1689,-4.682 L 17.1689,-5.0164 L 17.1689,-5.3508 L 17.1689,-5.6853 L 17.1688,-6.0197 L 17.1688,-6.3541 L 17.1688,-6.6885 L 17.1688,-7.023 L 17.1688,-7.3574 L 17.1687,-7.6918 L 17.1687,-8.0262 L 17.1687,-8.3607 L 17.1687,-8.6951 L 17.1686,-9.0295 L 17.1686,-9.364 L 17.1686,-9.6984 L 17.1685,-10.0328 L 17.1685,-10.3672 L 17.1684,-10.7017 L 17.1684,-11.0361 L 17.1683,-11.3705 L 17.1682,-11.7049 L 17.168,-12.0394" />
      <path d="M 16.0403,11.6289 L 16.0406,11.3059 L 16.0407,10.9829 L 16.0407,10.6599 L 16.0408,10.3368 L 16.0408,10.0138 L 16.0409,9.6908 L 16.0409,9.3678 L 16.0409,9.0447 L 16.041,8.7217 L 16.041,8.3987 L 16.041,8.0757 L 16.0411,7.7526 L 16.0411,7.4296 L 16.0411,7.1066 L 16.0411,6.7835 L 16.0411,6.4605 L 16.0412,6.1375 L 16.0412,5.8145 L 16.0412,5.4914 L 16.0412,5.1684 L 16.0412,4.8454 L 16.0412,4.5224 L 16.0412,4.1993 L 16.0413,3.8763 L 16.0413,3.5533 L 16.0413,3.2303 L 16.0413,2.9072 L 16.0413,2.5842 L 16.0413,2.2612 L 16.0413,1.9382 L 16.0413,1.6151 L 16.0413,1.2921 L 16.0413,0.9691 L 16.0413,0.6461 L 16.0413,0.323 L 16.0413,0.0 L 16.0413,-0.323 L 16.0413,-0.6461 L 16.0413,-0.9691 L 16.0413,-1.2921 L 16.0413,-1.6151 L 16.0413,-1.9382 L 16.0413,-2.2612 L 16.0413,-2.5842 L 16.0413,-2.9072 L 16.0413,-3.2303 L 16.0413,-3.5533 L 16.0413,-3.8763 L 16.0412,-4.1993 L 16.0412,-4.5224 L 16.0412,-4.8454 L 16.0412,-5.1684 L 16.0412,-5.4914 L 16.0412,-5.8145 L 16.0412,-6.1375 L 16.0411,-6.4605 L 16.0411,-6.7835 L 16.0411,-7.1066 L 16.0411,-7.4296 L 16.0411,-7.7526 L 16.041,-8.0757 L 16.041,-8.3987 L 16.041,-8.7217 L 16.0409,-9.0447 L 16.0409,-9.3678 L 16.0409,-9.6908 L 16.0408,-10.0138 L 16.0408,-10.3368 L 16.0407,-10.6599 L 16.0407,-10.9829 L 16.0406,-11.3059 L 16.0403,-11.6289" />
      <path d="M 17.9214,6.4606 L 17.9371,6.4663 L 17.9528,6.472 L 17.9684,6.4777 L 17.9841,6.4834 L 17.9998,6.4891 L 18.0154,6.4948 L 18.0311,6.5005 L 18.0467,6.5062 L 18.0624,6.5119 L 18.0781,6.5176 L 18.0937,6.5233 L 18.1094,6.529 L 18.125,6.5347 L 18.1407,6.5404 L 18.1564,6.5461 L 18.172,6.5518 L 18.1877,6.5575 L 18.2034,6.5632 L 18.219,6.5689 L 18.2347,6.5746 L 18.2503,6.5803 L 18.266,6.586 L 18.2817,6.5917 L 18.2973,6.5974 L 18.313,6.6031 L 18.3286,6.6088 L 18.3443,6.6145 L 18.36,6.6202 L 18.3756,6.6259 L 18.3913,6.6316 L 18.407,6.6373 L 18.4226,6.643 L 18.4383,6.6487 L 18.4539,6.6544 L 18.4696,6.6601 L 18.4853,6.6658 L 18.5009,6.6715 L 18.5166,6.6772 L 18.5322,6.6829 L 18.5479,6.6886 L 18.5636,6.6943 L 18.5792,6.7 L 18.5949,6.7057 L 18.6106,6.7114 L 18.6262,6.7171 L 18.6419,6.7228 L 18.6575,6.7285 L 18.6732,6.7342 L 18.6889,6.7399 L 18.7045,6.7456 L 18.7202,6.7514 L 18.7358,6.7571 L 18.7515,6.7628 L 18.7672,6.7685 L 18.7828,6.7742 L 18.7985,6.7799 L 18.8142,6.7856 L 18.8298,6.7913 L 18.8455,6.797 L 18.8611,6.8027 L 18.8768,6.8084 L 18.8925,6.8141 L 18.9081,6.8198 L 18.9238,6.8255 L 18.9394,6.8312 L 18.9551,6.8369 L 18.9708,6.8426 L 18.9864,6.8483 L 19.0021,6.854 L 19.0178,6.8597 L 19.0334,6.8654 L 19.0491,6.8711" />
      <path d="M 17.9214,-6.4606 L 17.9371,-6.4663 L 17.9528,-6.472 L 17.9684,-6.4777 L 17.9841,-6.4834 L 17.9998,-6.4891 L 18.0154,-6.4948 L 18.0311,-6.5005 L 18.0467,-6.5062 L 18.0624,-6.5119 L 18.0781,-6.5176 L 18.0937,-6.5233 L 18.1094,-6.529 L 18.125,-6.5347 L 18.1407,-6.5404 L 18.1564,-6.5461 L 18.172,-6.5518 L 18.1877,-6.5575 L 18.2034,-6.5632 L 18.219,-6.5689 L 18.2347,-6.5746 L 18.2503,-6.5803 L 18.266,-6.586 L 18.2817,-6.5917 L 18.2973,-6.5974 L 18.313,-6.6031 L 18.3286,-6.6088 L 18.3443,-6.6145 L 18.36,-6.6202 L 18.3756,-6.6259 L 18.3913,-6.6316 L 18.407,-6.6373 L 18.4226,-6.643 L 18.4383,-6.6487 L 18.4539,-6.6544 L 18.4696,-6.6601 L 18.4853,-6.6658 L 18.5009,-6.6715 L 18.5166,-6.6772 L 18.5322,-6.6829 L 18.5479,-6.6886 L 18.5636,-6.6943 L 18.5792,-6.7 L 18.5949,-6.7057 L 18.6106,-6.7114 L 18.6262,-6.7171 L 18.6419,-6.7228 L 18.6575,-6.7285 L 18.6732,-6.7342 L 18.6889,-6.7399 L 18.7045,-6.7456 L 18.7202,-6.7514 L 18.7358,-6.7571 L 18.7515,-6.7628 L 18.7672,-6.7685 L 18.7828,-6.7742 L 18.7985,-6.7799 L 18.8142,-6.7856 L 18.8298,-6.7913 L 18.8455,-6.797 L 18.8611,-6.8027 L 18.8768,-6.8084 L 18.8925,-6.8141 L 18.9081,-6.8198 L 18.9238,-6.8255 L 18.9394,-6.8312 L 18.9551,-6.8369 L 18.9708,-6.8426 L 18.9864,-6.8483 L 19.0021,-6.854 L 19.0178,-6.8597 L 19.0334,-6.8654 L 19.0491,-6.8711" />
      <path d="M 17.9214,6.4606 L 17.8953,6.5324 L 17.8692,6.6042 L 17.8431,6.676 L 17.8169,6.7478 L 17.7908,6.8195 L 17.7647,6.8913 L 17.7386,6.9631 L 17.7124,7.0349 L 17.6863,7.1067 L 17.6602,7.1785 L 17.6341,7.2502 L 17.6079,7.322 L 17.5818,7.3938 L 17.5557,7.4656 L 17.5295,7.5374 L 17.5034,7.6091 L 17.4773,7.6809 L 17.4512,7.7527 L 17.425,7.8245 L 17.3989,7.8963 L 17.3728,7.9681 L 17.3467,8.0398 L 17.3205,8.1116 L 17.2944,8.1834 L 17.2683,8.2552 L 17.2422,8.327 L 17.216,8.3987 L 17.1899,8.4705 L 17.1638,8.5423 L 17.1377,8.6141 L 17.1115,8.6859 L 17.0854,8.7577 L 17.0593,8.8294 L 17.0331,8.9012 L 17.007,8.973 L 16.9809,9.0448 L 16.9548,9.1166 L 16.9286,9.1884 L 16.9025,9.2601 L 16.8764,9.3319 L 16.8503,9.4037 L 16.8241,9.4755 L 16.798,9.5473 L 16.7719,9.619 L 16.7458,9.6908 L 16.7196,9.7626 L 16.6935,9.8344 L 16.6674,9.9062 L 16.6412,9.978 L 16.6151,10.0497 L 16.589,10.1215 L 16.5629,10.1933 L 16.5367,10.2651 L 16.5106,10.3369 L 16.4845,10.4086 L 16.4584,10.4804 L 16.4322,10.5522 L 16.4061,10.624 L 16.38,10.6958 L 16.3539,10.7676 L 16.3277,10.8393 L 16.3016,10.9111 L 16.2755,10.9829 L 16.2493,11.0547 L 16.2232,11.1265 L 16.1971,11.1982 L 16.171,11.27 L 16.1448,11.3418 L 16.1187,11.4136 L 16.0926,11.4854 L 16.0665,11.5572 L 16.0403,11.6289" />
      <path d="M 17.9214,-6.4606 L 17.8953,-6.5324 L 17.8692,-6.6042 L 17.8431,-6.676 L 17.8169,-6.7478 L 17.7908,-6.8195 L 17.7647,-6.8913 L 17.7386,-6.9631 L 17.7124,-7.0349 L 17.6863,-7.1067 L 17.6602,-7.1785 L 17.6341,-7.2502 L 17.6079,-7.322 L 17.5818,-7.3938 L 17.5557,-7.4656 L 17.5295,-7.5374 L 17.5034,-7.6091 L 17.4773,-7.6809 L 17.4512,-7.7527 L 17.425,-7.8245 L 17.3989,-7.8963 L 17.3728,-7.9681 L 17.3467,-8.0398 L 17.3205,-8.1116 L 17.2944,-8.1834 L 17.2683,-8.2552 L 17.2422,-8.327 L 17.216,-8.3987 L 17.1899,-8.4705 L 17.1638,-8.5423 L 17.1377,-8.6141 L 17.1115,-8.6859 L 17.0854,-8.7577 L 17.0593,-8.8294 L 17.0331,-8.9012 L 17.007,-8.973 L 16.9809,-9.0448 L 16.9548,-9.1166 L 16.9286,-9.1884 L 16.9025,-9.2601 L 16.8764,-9.3319 L 16.8503,-9.4037 L 16.8241,-9.4755 L 16.798,-9.5473 L 16.7719,-9.619 L 16.7458,-9.6908 L 16.7196,-9.7626 L 16.6935,-9.8344 L 16.6674,-9.9062 L 16.6412,-9.978 L 16.6151,-10.0497 L 16.589,-10.1215 L 16.5629,-10.1933 L 16.5367,-10.2651 L 16.5106,-10.3369 L 16.4845,-10.4086 L 16.4584,-10.4804 L 16.4322,-10.5522 L 16.4061,-10.624 L 16.38,-10.6958 L 16.3539,-10.7676 L 16.3277,-10.8393 L 16.3016,-10.9111 L 16.2755,-10.9829 L 16.2493,-11.0547 L 16.2232,-11.1265 L 16.1971,-11.1982 L 16.171,-11.27 L 16.1448,-11.3418 L 16.1187,-11.4136 L 16.0926,-11.4854 L 16.0665,-11.5572 L 16.0403,-11.6289" />
    </g>
  </g>
</svg>