<?xml version='1.0' encoding='utf-8'?>
<svg width="38.6261mm" height="27.3185mm" viewBox="-13.4888 -13.9968 38.6261 27.3185" version="1.1" xmlns="http://www.w3.org/2000/svg">
  <g transform="scale(1,-1)" stroke-linecap="round">
    <g fill="none" stroke="rgb(0,0,0)" stroke-width="0.4" id="Visible">
      <path d="M -0.0592,9.9609 L -0.8831,9.9257 L -1.7009,9.8198 L -2.5066,9.644 L -3.2943,9.3997 L -4.0581,9.0888 L -4.7924,8.7136 L -5.492,8.277 L -6.1517,7.7821 L -6.7667,7.2327 L -7.3326,6.6329 L -7.8454,5.9871 L -8.3013,5.2999 L -8.6972,4.5765 L -9.0301,3.822 L -9.2978,3.042 L -9.4984,2.2421 L -9.6305,1.4281 L -9.6933,0.6058 L -9.6863,-0.2188 L -9.6096,-1.0399 L -9.4639,-1.8516 L -9.2502,-2.6481 L -8.9703,-3.4238 L -8.626,-4.1732 L -8.2199,-4.8909 L -7.755,-5.572 L -7.2345,-6.2117 L -6.6623,-6.8055 L -6.0422,-7.3493 L -5.3789,-7.8392 L -4.6769,-8.2719 L -3.9412,-8.6445 L -3.1769,-8.9544 L -2.3895,-9.1994 L -1.5844,-9.3779 L -0.7672,-9.4888 L 0.0564,-9.5313 L 0.8806,-9.5052 L 1.6999,-9.4107 L 2.5084,-9.2485 L 3.3008,-9.0199 L 4.0715,-8.7264 L 4.8152,-8.3701 L 5.5269,-7.9536 L 6.2018,-7.4796 L 6.8353,-6.9516 L 7.423,-6.373 L 7.961,-5.748 L 8.4457,-5.0808 L 8.8738,-4.376 L 9.2425,-3.6383 L 9.5494,-2.8729 L 9.7924,-2.0848 L 9.9699,-1.2795 L 10.0807,-0.4623 L 10.1243,0.3613 L 10.1003,1.1856 L 10.0089,2.0052 L 9.8509,2.8146 L 9.6273,3.6084 L 9.3397,4.3813 L 8.9901,5.1282 L 8.5808,5.8441 L 8.1145,6.5243 L 7.5944,7.1644 L 7.0241,7.76 L 6.4072,8.3073 L 5.7479,8.8028 L 5.0506,9.2431 L 4.3199,9.6254 L 3.5607,9.9473 L 2.7778,10.2068" />
      <path d="M 2.7778,10.2068 L 2.7682,10.1751 L 2.7586,10.1435 L 2.749,10.1118 L 2.7393,10.0802 L 2.7297,10.0485 L 2.7201,10.0169 L 2.7105,9.9852 L 2.7009,9.9536 L 2.6912,9.922 L 2.6816,9.8903 L 2.672,9.8587 L 2.6624,9.827 L 2.6527,9.7954 L 2.6431,9.7637 L 2.6335,9.7321 L 2.6239,9.7004 L 2.6142,9.6688 L 2.6046,9.6372 L 2.595,9.6055 L 2.5854,9.5739 L 2.5757,9.5422 L 2.5661,9.5106 L 2.5565,9.4789 L 2.5469,9.4473 L 2.5373,9.4156 L 2.5276,9.384 L 2.518,9.3524 L 2.5084,9.3207 L 2.4988,9.2891 L 2.4891,9.2574 L 2.4795,9.2258 L 2.4699,9.1941 L 2.4603,9.1625 L 2.4506,9.1308 L 2.441,9.0992 L 2.4314,9.0676 L 2.4218,9.0359 L 2.4121,9.0043 L 2.4025,8.9726 L 2.3929,8.941 L 2.3833,8.9093 L 2.3737,8.8777 L 2.364,8.846 L 2.3544,8.8144 L 2.3448,8.7828 L 2.3352,8.7511 L 2.3255,8.7195 L 2.3159,8.6878 L 2.3063,8.6562 L 2.2967,8.6245 L 2.287,8.5929 L 2.2774,8.5613 L 2.2678,8.5296 L 2.2582,8.498 L 2.2485,8.4663 L 2.2389,8.4347 L 2.2293,8.403 L 2.2197,8.3714 L 2.21,8.3397 L 2.2004,8.3081 L 2.1908,8.2765 L 2.1812,8.2448 L 2.1716,8.2132 L 2.1619,8.1815 L 2.1523,8.1499 L 2.1427,8.1182 L 2.1331,8.0866 L 2.1234,8.0549 L 2.1138,8.0233 L 2.1042,7.9917 L 2.0946,7.96 L 2.0849,7.9284" />
      <path d="M 0.1629,7.4592 L -0.4,7.4365 L -0.9593,7.3691 L -1.5114,7.2572 L -2.0529,7.1017 L -2.5802,6.9033 L -3.0899,6.6634 L -3.5787,6.3834 L -4.0435,6.0651 L -4.4812,5.7105 L -4.889,5.3218 L -5.2641,4.9015 L -5.6042,4.4524 L -5.9068,3.9772 L -6.17,3.4791 L -6.3921,2.9614 L -6.5714,2.4274 L -6.7068,1.8805 L -6.7973,1.3245 L -6.8423,0.763 L -6.8413,0.1996 L -6.7944,-0.3618 L -6.7018,-0.9174 L -6.564,-1.4637 L -6.382,-1.9968 L -6.1568,-2.5132 L -5.89,-3.0093 L -5.5833,-3.4819 L -5.2387,-3.9275 L -4.8586,-4.3433 L -4.4455,-4.7263 L -4.0021,-5.0738 L -3.5315,-5.3834 L -3.0368,-5.653 L -2.5215,-5.8806 L -1.9891,-6.0647 L -1.4432,-6.2038 L -0.8876,-6.2969 L -0.3262,-6.3434 L 0.2371,-6.3429 L 0.7984,-6.2952 L 1.3538,-6.2008 L 1.8993,-6.0601 L 2.431,-5.8742 L 2.9453,-5.6442 L 3.4384,-5.3718 L 3.9068,-5.0588 L 4.3471,-4.7075 L 4.7562,-4.3202 L 5.1311,-3.8997 L 5.469,-3.449 L 5.7675,-2.9712 L 6.0243,-2.4699 L 6.2377,-1.9485 L 6.4058,-1.4108 L 6.5276,-0.8608 L 6.602,-0.3024 L 6.6285,0.2603 L 6.6067,0.8232 L 6.5368,1.3822 L 6.4193,1.9331 L 6.2549,2.4719 L 6.0448,2.9946 L 5.7905,3.4973 L 5.4939,3.9762 L 5.1571,4.4277 L 4.7825,4.8485 L 4.373,5.2353 L 3.9315,5.5851 L 3.4613,5.8954 L 2.966,6.1638 L 2.4493,6.388 L 1.915,6.5665" />
      <path d="M 2.0849,7.9284 L 2.0826,7.9095 L 2.0802,7.8905 L 2.0779,7.8716 L 2.0755,7.8527 L 2.0731,7.8338 L 2.0708,7.8149 L 2.0684,7.796 L 2.0661,7.777 L 2.0637,7.7581 L 2.0613,7.7392 L 2.059,7.7203 L 2.0566,7.7014 L 2.0543,7.6825 L 2.0519,7.6636 L 2.0495,7.6446 L 2.0472,7.6257 L 2.0448,7.6068 L 2.0424,7.5879 L 2.0401,7.569 L 2.0377,7.5501 L 2.0354,7.5312 L 2.033,7.5122 L 2.0306,7.4933 L 2.0283,7.4744 L 2.0259,7.4555 L 2.0236,7.4366 L 2.0212,7.4177 L 2.0188,7.3988 L 2.0165,7.3798 L 2.0141,7.3609 L 2.0118,7.342 L 2.0094,7.3231 L 2.007,7.3042 L 2.0047,7.2853 L 2.0023,7.2664 L 2.0,7.2474 L 1.9976,7.2285 L 1.9952,7.2096 L 1.9929,7.1907 L 1.9905,7.1718 L 1.9882,7.1529 L 1.9858,7.134 L 1.9834,7.115 L 1.9811,7.0961 L 1.9787,7.0772 L 1.9763,7.0583 L 1.974,7.0394 L 1.9716,7.0205 L 1.9693,7.0015 L 1.9669,6.9826 L 1.9645,6.9637 L 1.9622,6.9448 L 1.9598,6.9259 L 1.9575,6.907 L 1.9551,6.8881 L 1.9527,6.8691 L 1.9504,6.8502 L 1.948,6.8313 L 1.9457,6.8124 L 1.9433,6.7935 L 1.9409,6.7746 L 1.9386,6.7557 L 1.9362,6.7367 L 1.9339,6.7178 L 1.9315,6.6989 L 1.9291,6.68 L 1.9268,6.6611 L 1.9244,6.6422 L 1.9221,6.6233 L 1.9197,6.6043 L 1.9173,6.5854 L 1.915,6.5665" />
      <path d="M 0.1629,7.4592 L 0.1629,7.494 L 0.1629,7.5287 L 0.1629,7.5634 L 0.1629,7.5981 L 0.1629,7.6328 L 0.1629,7.6676 L 0.1629,7.7023 L 0.1629,7.737 L 0.1629,7.7717 L 0.1629,7.8065 L 0.1629,7.8412 L 0.1629,7.8759 L 0.1629,7.9106 L 0.1629,7.9453 L 0.1629,7.9801 L 0.1629,8.0148 L 0.1629,8.0495 L 0.1629,8.0842 L 0.1629,8.119 L 0.1629,8.1537 L 0.1629,8.1884 L 0.1629,8.2231 L 0.1629,8.2578 L 0.1629,8.2926 L 0.1629,8.3273 L 0.1629,8.362 L 0.1629,8.3967 L 0.1629,8.4315 L 0.1629,8.4662 L 0.1629,8.5009 L 0.1629,8.5356 L 0.1629,8.5703 L 0.1629,8.6051 L 0.1629,8.6398 L 0.1629,8.6745 L 0.1629,8.7092 L 0.1629,8.744 L 0.1629,8.7787 L 0.1629,8.8134 L 0.1629,8.8481 L 0.1629,8.8828 L 0.1629,8.9176 L 0.1629,8.9523 L 0.1629,8.987 L 0.1629,9.0217 L 0.1629,9.0565 L 0.1629,9.0912 L 0.1629,9.1259 L 0.1629,9.1606 L 0.1629,9.1953 L 0.1629,9.2301 L 0.1629,9.2648 L 0.1629,9.2995 L 0.1629,9.3342 L 0.1629,9.369 L 0.1629,9.4037 L 0.1629,9.4384 L 0.1629,9.4731 L 0.1629,9.5078 L 0.1629,9.5426 L 0.1629,9.5773 L 0.1629,9.612 L 0.1629,9.6467 L 0.1629,9.6815 L 0.1629,9.7162 L 0.1629,9.7509 L 0.1629,9.7856 L 0.1629,9.8203 L 0.1629,9.8551 L 0.1629,9.8898 L 0.1629,9.9245 L 0.1629,9.9592" />
      <path d="M 0.1629,9.9592 L -0.6044,9.9281 L -1.3667,9.8356 L -2.1192,9.6821 L -2.8568,9.4686 L -3.5749,9.1964 L -4.2687,8.8673 L -4.9337,8.4833 L -5.5656,8.0468 L -6.1601,7.5608 L -6.7134,7.0283 L -7.2217,6.4527 L -7.6818,5.8378 L -8.0905,5.1877 L -8.445,4.5065 L -8.743,3.7987 L -8.9824,3.0691 L -9.1616,2.3224 L -9.2794,1.5635 L -9.3348,0.7976 L -9.3275,0.0297 L -9.2574,-0.735 L -9.1249,-1.4914 L -8.9309,-2.2344 L -8.6765,-2.959 L -8.3636,-3.6602 L -7.994,-4.3334 L -7.5703,-4.9738 L -7.0953,-5.5772 L -6.5721,-6.1393 L -6.0043,-6.6564 L -5.3958,-7.1247 L -4.7505,-7.5411 L -4.073,-7.9026 L -3.3679,-8.2067 L -2.6399,-8.4512 L -1.8942,-8.6343 L -1.1358,-8.7548 L -0.37,-8.8117 L 0.3979,-8.8045 L 1.1625,-8.7333 L 1.9185,-8.5984 L 2.6605,-8.4008 L 3.3834,-8.1417 L 4.082,-7.8229 L 4.7514,-7.4465 L 5.3868,-7.0153 L 5.9836,-6.5321 L 6.5376,-6.0004 L 7.0448,-5.4238 L 7.5016,-4.8065 L 7.9045,-4.1528 L 8.2506,-3.4673 L 8.5374,-2.755 L 8.7627,-2.0209 L 8.9249,-1.2703 L 9.0226,-0.5087 L 9.0552,0.2586 L 9.0223,1.0258 L 8.924,1.7873 L 8.761,2.5377 L 8.5344,3.2715 L 8.2458,3.9831 L 7.8973,4.6673 L 7.4913,5.3191 L 7.0308,5.9336 L 6.5191,6.5062 L 5.96,7.0326 L 5.3576,7.5087 L 4.7163,7.9311 L 4.0408,8.2963 L 3.3362,8.6017 L 2.6079,8.8449" />
      <path d="M 1.915,6.5665 L 1.9246,6.5982 L 1.9342,6.6298 L 1.9438,6.6614 L 1.9535,6.6931 L 1.9631,6.7247 L 1.9727,6.7564 L 1.9823,6.788 L 1.992,6.8197 L 2.0016,6.8513 L 2.0112,6.883 L 2.0208,6.9146 L 2.0305,6.9462 L 2.0401,6.9779 L 2.0497,7.0095 L 2.0593,7.0412 L 2.0689,7.0728 L 2.0786,7.1045 L 2.0882,7.1361 L 2.0978,7.1678 L 2.1074,7.1994 L 2.1171,7.231 L 2.1267,7.2627 L 2.1363,7.2943 L 2.1459,7.326 L 2.1556,7.3576 L 2.1652,7.3893 L 2.1748,7.4209 L 2.1844,7.4526 L 2.1941,7.4842 L 2.2037,7.5158 L 2.2133,7.5475 L 2.2229,7.5791 L 2.2326,7.6108 L 2.2422,7.6424 L 2.2518,7.6741 L 2.2614,7.7057 L 2.271,7.7373 L 2.2807,7.769 L 2.2903,7.8006 L 2.2999,7.8323 L 2.3095,7.8639 L 2.3192,7.8956 L 2.3288,7.9272 L 2.3384,7.9589 L 2.348,7.9905 L 2.3577,8.0221 L 2.3673,8.0538 L 2.3769,8.0854 L 2.3865,8.1171 L 2.3962,8.1487 L 2.4058,8.1804 L 2.4154,8.212 L 2.425,8.2437 L 2.4346,8.2753 L 2.4443,8.3069 L 2.4539,8.3386 L 2.4635,8.3702 L 2.4731,8.4019 L 2.4828,8.4335 L 2.4924,8.4652 L 2.502,8.4968 L 2.5116,8.5285 L 2.5213,8.5601 L 2.5309,8.5917 L 2.5405,8.6234 L 2.5501,8.655 L 2.5598,8.6867 L 2.5694,8.7183 L 2.579,8.75 L 2.5886,8.7816 L 2.5982,8.8133 L 2.6079,8.8449" />
      <path d="M 0.1629,9.9592 L 0.1598,9.9593 L 0.1567,9.9593 L 0.1536,9.9593 L 0.1506,9.9593 L 0.1475,9.9594 L 0.1444,9.9594 L 0.1413,9.9594 L 0.1382,9.9594 L 0.1351,9.9594 L 0.132,9.9595 L 0.129,9.9595 L 0.1259,9.9595 L 0.1228,9.9595 L 0.1197,9.9596 L 0.1166,9.9596 L 0.1135,9.9596 L 0.1105,9.9596 L 0.1074,9.9597 L 0.1043,9.9597 L 0.1012,9.9597 L 0.0981,9.9597 L 0.095,9.9598 L 0.092,9.9598 L 0.0889,9.9598 L 0.0858,9.9598 L 0.0827,9.9599 L 0.0796,9.9599 L 0.0765,9.9599 L 0.0734,9.9599 L 0.0704,9.9599 L 0.0673,9.96 L 0.0642,9.96 L 0.0611,9.96 L 0.058,9.96 L 0.0549,9.9601 L 0.0519,9.9601 L 0.0488,9.9601 L 0.0457,9.9601 L 0.0426,9.9602 L 0.0395,9.9602 L 0.0364,9.9602 L 0.0333,9.9602 L 0.0303,9.9603 L 0.0272,9.9603 L 0.0241,9.9603 L 0.021,9.9603 L 0.0179,9.9604 L 0.0148,9.9604 L 0.0118,9.9604 L 0.0087,9.9604 L 0.0056,9.9604 L 0.0025,9.9605 L -0.0006,9.9605 L -0.0037,9.9605 L -0.0067,9.9605 L -0.0098,9.9606 L -0.0129,9.9606 L -0.016,9.9606 L -0.0191,9.9606 L -0.0222,9.9607 L -0.0253,9.9607 L -0.0283,9.9607 L -0.0314,9.9607 L -0.0345,9.9608 L -0.0376,9.9608 L -0.0407,9.9608 L -0.0438,9.9608 L -0.0468,9.9609 L -0.0499,9.9609 L -0.053,9.9609 L -0.0561,9.9609 L -0.0592,9.9609" />
      <path d="M 2.6079,8.8449 L 2.6102,8.8638 L 2.6126,8.8827 L 2.615,8.9016 L 2.6173,8.9206 L 2.6197,8.9395 L 2.622,8.9584 L 2.6244,8.9773 L 2.6268,8.9962 L 2.6291,9.0151 L 2.6315,9.034 L 2.6338,9.053 L 2.6362,9.0719 L 2.6386,9.0908 L 2.6409,9.1097 L 2.6433,9.1286 L 2.6456,9.1475 L 2.648,9.1664 L 2.6504,9.1854 L 2.6527,9.2043 L 2.6551,9.2232 L 2.6574,9.2421 L 2.6598,9.261 L 2.6622,9.2799 L 2.6645,9.2989 L 2.6669,9.3178 L 2.6693,9.3367 L 2.6716,9.3556 L 2.674,9.3745 L 2.6763,9.3934 L 2.6787,9.4123 L 2.6811,9.4313 L 2.6834,9.4502 L 2.6858,9.4691 L 2.6881,9.488 L 2.6905,9.5069 L 2.6929,9.5258 L 2.6952,9.5447 L 2.6976,9.5637 L 2.6999,9.5826 L 2.7023,9.6015 L 2.7047,9.6204 L 2.707,9.6393 L 2.7094,9.6582 L 2.7117,9.6771 L 2.7141,9.6961 L 2.7165,9.715 L 2.7188,9.7339 L 2.7212,9.7528 L 2.7235,9.7717 L 2.7259,9.7906 L 2.7283,9.8095 L 2.7306,9.8285 L 2.733,9.8474 L 2.7354,9.8663 L 2.7377,9.8852 L 2.7401,9.9041 L 2.7424,9.923 L 2.7448,9.9419 L 2.7472,9.9609 L 2.7495,9.9798 L 2.7519,9.9987 L 2.7542,10.0176 L 2.7566,10.0365 L 2.759,10.0554 L 2.7613,10.0744 L 2.7637,10.0933 L 2.766,10.1122 L 2.7684,10.1311 L 2.7708,10.15 L 2.7731,10.1689 L 2.7755,10.1878 L 2.7778,10.2068" />
      <path d="M 21.3472,9.9596 L 21.3471,9.9596 L 21.347,9.9596 L 21.3469,9.9596" />
      <path d="M 21.3469,9.9596 L 21.3468,9.9596 L 21.3467,9.9596 L 21.3466,9.9596 L 21.3465,9.9596" />
      <path d="M 19.9818,-8.9643 L 19.9805,-8.9728 L 19.9792,-8.9812 L 19.9779,-8.9896 L 19.9765,-8.998 L 19.9752,-9.0064 L 19.9739,-9.0148 L 19.9725,-9.0232 L 19.9711,-9.0316 L 19.9697,-9.04 L 19.9684,-9.0484 L 19.967,-9.0568 L 19.9655,-9.0652 L 19.9641,-9.0736 L 19.9627,-9.082 L 19.9612,-9.0904 L 19.9597,-9.0988 L 19.9583,-9.1072 L 19.9568,-9.1156 L 19.9553,-9.1239 L 19.9537,-9.1323 L 19.9522,-9.1407 L 19.9506,-9.1491 L 19.9491,-9.1574 L 19.9475,-9.1658 L 19.9459,-9.1742 L 19.9443,-9.1825 L 19.9426,-9.1909 L 19.941,-9.1992 L 19.9393,-9.2076 L 19.9376,-9.2159 L 19.9359,-9.2243 L 19.9341,-9.2326 L 19.9324,-9.2409 L 19.9306,-9.2493 L 19.9287,-9.2576 L 19.9269,-9.2659 L 19.925,-9.2742 L 19.9231,-9.2825 L 19.9212,-9.2908 L 19.9193,-9.2991 L 19.9173,-9.3074 L 19.9152,-9.3157 L 19.9132,-9.3239 L 19.9111,-9.3322 L 19.9089,-9.3404 L 19.9067,-9.3486 L 19.9045,-9.3569 L 19.9022,-9.3651 L 19.8999,-9.3733 L 19.8975,-9.3814 L 19.8951,-9.3896 L 19.8926,-9.3977 L 19.89,-9.4058 L 19.8873,-9.4139 L 19.8846,-9.422 L 19.8818,-9.43 L 19.8788,-9.438 L 19.8758,-9.446 L 19.8726,-9.4539 L 19.8693,-9.4617 L 19.8659,-9.4695 L 19.8623,-9.4772 L 19.8584,-9.4848 L 19.8543,-9.4923 L 19.8499,-9.4996 L 19.8452,-9.5067 L 19.84,-9.5134 L 19.8343,-9.5197 L 19.8279,-9.5253 L 19.8206,-9.5297 L 19.8125,-9.5322 L 19.804,-9.5322" />
      <path d="M 19.804,-9.5322 L 19.6947,-9.288 L 19.643,-9.0177 L 19.6035,-8.7452 L 19.57,-8.472 L 19.5404,-8.1983 L 19.5135,-7.9243 L 19.4886,-7.6501 L 19.4653,-7.3758 L 19.4433,-7.1014 L 19.4223,-6.8269 L 19.4023,-6.5523 L 19.3829,-6.2777 L 19.3642,-6.003 L 19.3461,-5.7283 L 19.3285,-5.4536 L 19.3114,-5.1788 L 19.2946,-4.904 L 19.2782,-4.6292 L 19.2621,-4.3544 L 19.2463,-4.0795 L 19.2307,-3.8047 L 19.2154,-3.5298 L 19.2003,-3.2549 L 19.1853,-2.98 L 19.1706,-2.7051 L 19.156,-2.4302 L 19.1415,-2.1553 L 19.1271,-1.8804 L 19.1129,-1.6054 L 19.0987,-1.3305 L 19.0846,-1.0556 L 19.0706,-0.7806 L 19.0567,-0.5057 L 19.0428,-0.2307 L 19.0289,0.0442 L 19.0151,0.3192 L 19.0012,0.5941 L 18.9874,0.8691 L 18.9736,1.144 L 18.9597,1.419 L 18.9459,1.6939 L 18.932,1.9689 L 18.918,2.2438 L 18.904,2.5188 L 18.8899,2.7937 L 18.8757,3.0687 L 18.8615,3.3436 L 18.8471,3.6185 L 18.8326,3.8934 L 18.8179,4.1683 L 18.8031,4.4432 L 18.7882,4.7181 L 18.773,4.993 L 18.7576,5.2679 L 18.7419,5.5427 L 18.726,5.8176 L 18.7098,6.0924 L 18.6932,6.3672 L 18.6762,6.642 L 18.6588,6.9167 L 18.6409,7.1914 L 18.6224,7.4661 L 18.6033,7.7408 L 18.5833,8.0153 L 18.5625,8.2898 L 18.5406,8.5643 L 18.5174,8.8386 L 18.4924,9.1128 L 18.4653,9.3867 L 18.4352,9.6604 L 18.4006,9.9335 L 18.3584,10.2055" />
      <path d="M 21.3472,9.9596 L 21.3472,9.9249 L 21.3472,9.8902 L 21.3472,9.8555 L 21.3472,9.8208 L 21.3472,9.786 L 21.3472,9.7513 L 21.3472,9.7166 L 21.3472,9.6819 L 21.3472,9.6471 L 21.3472,9.6124 L 21.3472,9.5777 L 21.3472,9.543 L 21.3472,9.5083 L 21.3472,9.4735 L 21.3472,9.4388 L 21.3472,9.4041 L 21.3472,9.3694 L 21.3472,9.3346 L 21.3472,9.2999 L 21.3472,9.2652 L 21.3472,9.2305 L 21.3472,9.1958 L 21.3472,9.161 L 21.3472,9.1263 L 21.3472,9.0916 L 21.3472,9.0569 L 21.3472,9.0221 L 21.3472,8.9874 L 21.3472,8.9527 L 21.3472,8.918 L 21.3472,8.8833 L 21.3472,8.8485 L 21.3472,8.8138 L 21.3472,8.7791 L 21.3472,8.7444 L 21.3472,8.7096 L 21.3472,8.6749 L 21.3472,8.6402 L 21.3472,8.6055 L 21.3472,8.5708 L 21.3472,8.536 L 21.3472,8.5013 L 21.3472,8.4666 L 21.3472,8.4319 L 21.3472,8.3971 L 21.3472,8.3624 L 21.3472,8.3277 L 21.3472,8.293 L 21.3472,8.2583 L 21.3472,8.2235 L 21.3472,8.1888 L 21.3472,8.1541 L 21.3472,8.1194 L 21.3472,8.0846 L 21.3472,8.0499 L 21.3472,8.0152 L 21.3472,7.9805 L 21.3472,7.9458 L 21.3472,7.911 L 21.3472,7.8763 L 21.3472,7.8416 L 21.3472,7.8069 L 21.3472,7.7721 L 21.3472,7.7374 L 21.3472,7.7027 L 21.3472,7.668 L 21.3472,7.6333 L 21.3472,7.5985 L 21.3472,7.5638 L 21.3472,7.5291 L 21.3472,7.4944 L 21.3472,7.4596" />
      <path d="M 21.3466,7.4596 L 21.2705,7.2854 L 21.2356,7.0918 L 21.2088,6.8969 L 21.1862,6.7015 L 21.1661,6.5058 L 21.1479,6.31 L 21.1309,6.114 L 21.1151,5.9179 L 21.1001,5.7217 L 21.0858,5.5256 L 21.072,5.3293 L 21.0588,5.1331 L 21.046,4.9368 L 21.0336,4.7404 L 21.0215,4.5441 L 21.0096,4.3477 L 20.9981,4.1514 L 20.9868,3.955 L 20.9756,3.7586 L 20.9647,3.5622 L 20.9539,3.3657 L 20.9433,3.1693 L 20.9328,2.9729 L 20.9224,2.7764 L 20.9121,2.58 L 20.9019,2.3835 L 20.8918,2.1871 L 20.8817,1.9906 L 20.8718,1.7942 L 20.8618,1.5977 L 20.8519,1.4012 L 20.8421,1.2048 L 20.8323,1.0083 L 20.8225,0.8118 L 20.8127,0.6153 L 20.8029,0.4189 L 20.7931,0.2224 L 20.7833,0.0259 L 20.7735,-0.1705 L 20.7637,-0.367 L 20.7538,-0.5635 L 20.744,-0.76 L 20.734,-0.9564 L 20.724,-1.1529 L 20.714,-1.3493 L 20.7038,-1.5458 L 20.6936,-1.7422 L 20.6833,-1.9387 L 20.673,-2.1351 L 20.6624,-2.3316 L 20.6518,-2.528 L 20.6411,-2.7244 L 20.6301,-2.9208 L 20.6191,-3.1172 L 20.6078,-3.3136 L 20.5963,-3.51 L 20.5846,-3.7064 L 20.5727,-3.9027 L 20.5605,-4.0991 L 20.5479,-4.2954 L 20.535,-4.4917 L 20.5217,-4.6879 L 20.508,-4.8842 L 20.4937,-5.0804 L 20.4787,-5.2765 L 20.4631,-5.4726 L 20.4466,-5.6686 L 20.429,-5.8645 L 20.41,-6.0603 L 20.3892,-6.256 L 20.3658,-6.4513 L 20.3386,-6.6461" />
      <path d="M 20.3386,-6.6461 L 20.3377,-6.6523 L 20.3367,-6.6585 L 20.3357,-6.6647 L 20.3347,-6.6709 L 20.3338,-6.6771 L 20.3328,-6.6833 L 20.3318,-6.6895 L 20.3307,-6.6957 L 20.3297,-6.7019 L 20.3287,-6.7081 L 20.3277,-6.7143 L 20.3266,-6.7205 L 20.3256,-6.7267 L 20.3245,-6.7329 L 20.3234,-6.7391 L 20.3224,-6.7453 L 20.3213,-6.7515 L 20.3202,-6.7577 L 20.319,-6.7638 L 20.3179,-6.77 L 20.3168,-6.7762 L 20.3156,-6.7824 L 20.3145,-6.7886 L 20.3133,-6.7947 L 20.3121,-6.8009 L 20.3109,-6.8071 L 20.3097,-6.8132 L 20.3085,-6.8194 L 20.3073,-6.8255 L 20.306,-6.8317 L 20.3047,-6.8379 L 20.3034,-6.844 L 20.3021,-6.8501 L 20.3008,-6.8563 L 20.2995,-6.8624 L 20.2981,-6.8686 L 20.2967,-6.8747 L 20.2953,-6.8808 L 20.2939,-6.8869 L 20.2925,-6.893 L 20.291,-6.8992 L 20.2895,-6.9053 L 20.288,-6.9114 L 20.2864,-6.9174 L 20.2849,-6.9235 L 20.2832,-6.9296 L 20.2816,-6.9357 L 20.2799,-6.9417 L 20.2782,-6.9478 L 20.2764,-6.9538 L 20.2746,-6.9598 L 20.2728,-6.9658 L 20.2709,-6.9718 L 20.2689,-6.9778 L 20.2669,-6.9837 L 20.2648,-6.9896 L 20.2626,-6.9955 L 20.2604,-7.0014 L 20.2581,-7.0072 L 20.2556,-7.013 L 20.2531,-7.0188 L 20.2504,-7.0244 L 20.2476,-7.0301 L 20.2445,-7.0356 L 20.2413,-7.0409 L 20.2378,-7.0462 L 20.234,-7.0511 L 20.2297,-7.0558 L 20.225,-7.0599 L 20.2196,-7.0631 L 20.2137,-7.065 L 20.2074,-7.065" />
      <path d="M 20.2074,-7.065 L 20.1253,-6.879 L 20.0866,-6.6736 L 20.0569,-6.4666 L 20.0318,-6.259 L 20.0096,-6.0511 L 19.9895,-5.843 L 19.9708,-5.6348 L 19.9533,-5.4264 L 19.9368,-5.218 L 19.921,-5.0095 L 19.9059,-4.8009 L 19.8914,-4.5923 L 19.8774,-4.3837 L 19.8638,-4.1751 L 19.8505,-3.9664 L 19.8376,-3.7577 L 19.825,-3.549 L 19.8127,-3.3403 L 19.8006,-3.1315 L 19.7887,-2.9228 L 19.777,-2.714 L 19.7655,-2.5052 L 19.7541,-2.2964 L 19.7429,-2.0877 L 19.7318,-1.8789 L 19.7208,-1.6701 L 19.7099,-1.4613 L 19.6991,-1.2524 L 19.6884,-1.0436 L 19.6777,-0.8348 L 19.6671,-0.626 L 19.6566,-0.4172 L 19.646,-0.2083 L 19.6356,0.0005 L 19.6251,0.2093 L 19.6147,0.4182 L 19.6043,0.627 L 19.5939,0.8358 L 19.5835,1.0447 L 19.573,1.2535 L 19.5626,1.4623 L 19.5521,1.6711 L 19.5416,1.88 L 19.531,2.0888 L 19.5204,2.2976 L 19.5097,2.5064 L 19.4989,2.7153 L 19.4881,2.9241 L 19.4772,3.1329 L 19.4661,3.3417 L 19.4549,3.5505 L 19.4436,3.7592 L 19.4322,3.968 L 19.4206,4.1768 L 19.4088,4.3856 L 19.3967,4.5943 L 19.3845,4.803 L 19.372,5.0117 L 19.3591,5.2204 L 19.346,5.4291 L 19.3325,5.6378 L 19.3185,5.8464 L 19.304,6.055 L 19.289,6.2635 L 19.2733,6.472 L 19.2567,6.6805 L 19.2391,6.8888 L 19.2203,7.0971 L 19.1998,7.3052 L 19.1771,7.513 L 19.151,7.7205 L 19.1191,7.9271" />
      <path d="M 18.3584,10.2055 L 18.3689,10.1739 L 18.3795,10.1422 L 18.3901,10.1106 L 18.4006,10.0789 L 18.4112,10.0473 L 18.4218,10.0156 L 18.4323,9.984 L 18.4429,9.9523 L 18.4535,9.9207 L 18.464,9.8891 L 18.4746,9.8574 L 18.4852,9.8258 L 18.4957,9.7941 L 18.5063,9.7625 L 18.5169,9.7308 L 18.5274,9.6992 L 18.538,9.6675 L 18.5486,9.6359 L 18.5591,9.6043 L 18.5697,9.5726 L 18.5803,9.541 L 18.5908,9.5093 L 18.6014,9.4777 L 18.612,9.446 L 18.6225,9.4144 L 18.6331,9.3827 L 18.6437,9.3511 L 18.6542,9.3195 L 18.6648,9.2878 L 18.6754,9.2562 L 18.6859,9.2245 L 18.6965,9.1929 L 18.7071,9.1612 L 18.7176,9.1296 L 18.7282,9.0979 L 18.7387,9.0663 L 18.7493,9.0347 L 18.7599,9.003 L 18.7704,8.9714 L 18.781,8.9397 L 18.7916,8.9081 L 18.8021,8.8764 L 18.8127,8.8448 L 18.8233,8.8131 L 18.8338,8.7815 L 18.8444,8.7499 L 18.855,8.7182 L 18.8655,8.6866 L 18.8761,8.6549 L 18.8867,8.6233 L 18.8972,8.5916 L 18.9078,8.56 L 18.9184,8.5283 L 18.9289,8.4967 L 18.9395,8.4651 L 18.9501,8.4334 L 18.9606,8.4018 L 18.9712,8.3701 L 18.9818,8.3385 L 18.9923,8.3068 L 19.0029,8.2752 L 19.0135,8.2435 L 19.024,8.2119 L 19.0346,8.1802 L 19.0452,8.1486 L 19.0557,8.117 L 19.0663,8.0853 L 19.0769,8.0537 L 19.0874,8.022 L 19.098,7.9904 L 19.1086,7.9587 L 19.1191,7.9271" />
      <path d="M 21.3472,7.4596 L 21.3172,7.4596 L 21.2871,7.4596 L 21.2571,7.4596 L 21.227,7.4596 L 21.1969,7.4596 L 21.1669,7.4596 L 21.1368,7.4596 L 21.1068,7.4596 L 21.0767,7.4596 L 21.0467,7.4596 L 21.0166,7.4596 L 20.9866,7.4596 L 20.9565,7.4596 L 20.9264,7.4596 L 20.8964,7.4596 L 20.8663,7.4596 L 20.8363,7.4596 L 20.8062,7.4596 L 20.7762,7.4596 L 20.7461,7.4596 L 20.716,7.4596 L 20.686,7.4596 L 20.6559,7.4596 L 20.6259,7.4596 L 20.5958,7.4596 L 20.5658,7.4596 L 20.5357,7.4596 L 20.5057,7.4596 L 20.4756,7.4596 L 20.4455,7.4596 L 20.4155,7.4596 L 20.3854,7.4596 L 20.3554,7.4596 L 20.3253,7.4596 L 20.2953,7.4596 L 20.2652,7.4596 L 20.2352,7.4596 L 20.2051,7.4596 L 20.175,7.4596 L 20.145,7.4596 L 20.1149,7.4596 L 20.0849,7.4596 L 20.0548,7.4596 L 20.0248,7.4596 L 19.9947,7.4596 L 19.9646,7.4596 L 19.9346,7.4596 L 19.9045,7.4596 L 19.8745,7.4596 L 19.8444,7.4596 L 19.8144,7.4596 L 19.7843,7.4596 L 19.7543,7.4596 L 19.7242,7.4596 L 19.6941,7.4596 L 19.6641,7.4596 L 19.634,7.4596 L 19.604,7.4596 L 19.5739,7.4596 L 19.5439,7.4596 L 19.5138,7.4596 L 19.4837,7.4596 L 19.4537,7.4596 L 19.4236,7.4596 L 19.3936,7.4596 L 19.3635,7.4596 L 19.3335,7.4596 L 19.3034,7.4596 L 19.2734,7.4596 L 19.2433,7.4596 L 19.2132,7.4596 L 19.1832,7.4596" />
      <path d="M 16.9025,9.7377 L 16.9025,9.7408 L 16.9025,9.7439 L 16.9025,9.747 L 16.9025,9.7501 L 16.9025,9.7532 L 16.9025,9.7562 L 16.9025,9.7593 L 16.9025,9.7624 L 16.9025,9.7655 L 16.9025,9.7686 L 16.9025,9.7716 L 16.9025,9.7747 L 16.9025,9.7778 L 16.9025,9.7809 L 16.9025,9.784 L 16.9025,9.787 L 16.9025,9.7901 L 16.9025,9.7932 L 16.9025,9.7963 L 16.9025,9.7994 L 16.9025,9.8024 L 16.9025,9.8055 L 16.9025,9.8086 L 16.9025,9.8117 L 16.9025,9.8148 L 16.9025,9.8178 L 16.9025,9.8209 L 16.9025,9.824 L 16.9025,9.8271 L 16.9025,9.8302 L 16.9025,9.8332 L 16.9025,9.8363 L 16.9025,9.8394 L 16.9025,9.8425 L 16.9025,9.8456 L 16.9025,9.8487 L 16.9025,9.8517 L 16.9025,9.8548 L 16.9025,9.8579 L 16.9025,9.861 L 16.9025,9.8641 L 16.9025,9.8671 L 16.9025,9.8702 L 16.9025,9.8733 L 16.9025,9.8764 L 16.9025,9.8795 L 16.9025,9.8825 L 16.9025,9.8856 L 16.9025,9.8887 L 16.9025,9.8918 L 16.9025,9.8949 L 16.9025,9.8979 L 16.9025,9.901 L 16.9025,9.9041 L 16.9025,9.9072 L 16.9025,9.9103 L 16.9025,9.9133 L 16.9025,9.9164 L 16.9025,9.9195 L 16.9025,9.9226 L 16.9025,9.9257 L 16.9025,9.9287 L 16.9025,9.9318 L 16.9025,9.9349 L 16.9025,9.938 L 16.9025,9.9411 L 16.9025,9.9442 L 16.9025,9.9472 L 16.9025,9.9503 L 16.9025,9.9534 L 16.9025,9.9565 L 16.9025,9.9596" />
      <path d="M 16.9025,9.9596 L 16.8985,9.9592 L 16.8946,9.9582 L 16.891,9.9567 L 16.8875,9.9546 L 16.8842,9.9523 L 16.8812,9.9497 L 16.8784,9.9469 L 16.8757,9.9439 L 16.8731,9.9408 L 16.8707,9.9376 L 16.8684,9.9343 L 16.8662,9.931 L 16.8641,9.9275 L 16.8621,9.9241 L 16.8602,9.9206 L 16.8583,9.917 L 16.8565,9.9135 L 16.8547,9.9099 L 16.853,9.9063 L 16.8513,9.9026 L 16.8497,9.899 L 16.8481,9.8953 L 16.8466,9.8916 L 16.8451,9.8879 L 16.8436,9.8841 L 16.8422,9.8804 L 16.8407,9.8767 L 16.8394,9.8729 L 16.838,9.8691 L 16.8367,9.8653 L 16.8354,9.8616 L 16.8341,9.8578 L 16.8328,9.854 L 16.8316,9.8502 L 16.8303,9.8463 L 16.8291,9.8425 L 16.8279,9.8387 L 16.8267,9.8349 L 16.8256,9.831 L 16.8244,9.8272 L 16.8233,9.8234 L 16.8222,9.8195 L 16.8211,9.8157 L 16.82,9.8118 L 16.8189,9.8079 L 16.8179,9.8041 L 16.8168,9.8002 L 16.8158,9.7963 L 16.8148,9.7925 L 16.8138,9.7886 L 16.8128,9.7847 L 16.8118,9.7808 L 16.8108,9.7769 L 16.8098,9.7731 L 16.8088,9.7692 L 16.8079,9.7653 L 16.8069,9.7614 L 16.806,9.7575 L 16.8051,9.7536 L 16.8041,9.7497 L 16.8032,9.7458 L 16.8023,9.7419 L 16.8014,9.738 L 16.8005,9.7341 L 16.7997,9.7302 L 16.7988,9.7263 L 16.7979,9.7224 L 16.7971,9.7184 L 16.7962,9.7145 L 16.7953,9.7106 L 16.7945,9.7067 L 16.7937,9.7028" />
      <path d="M 15.4186,-8.8152 L 15.3195,-8.5974 L 15.2726,-8.3556 L 15.2367,-8.1119 L 15.2064,-7.8674 L 15.1797,-7.6225 L 15.1553,-7.3774 L 15.1328,-7.1321 L 15.1118,-6.8867 L 15.0919,-6.6411 L 15.073,-6.3955 L 15.0549,-6.1498 L 15.0374,-5.9041 L 15.0206,-5.6584 L 15.0043,-5.4126 L 14.9885,-5.1667 L 14.973,-4.9209 L 14.9579,-4.675 L 14.9432,-4.4291 L 14.9287,-4.1832 L 14.9145,-3.9373 L 14.9005,-3.6913 L 14.8868,-3.4454 L 14.8732,-3.1994 L 14.8598,-2.9534 L 14.8466,-2.7075 L 14.8335,-2.4615 L 14.8205,-2.2155 L 14.8077,-1.9695 L 14.7949,-1.7235 L 14.7822,-1.4774 L 14.7696,-1.2314 L 14.7571,-0.9854 L 14.7446,-0.7394 L 14.7322,-0.4934 L 14.7198,-0.2473 L 14.7075,-0.0013 L 14.6951,0.2447 L 14.6828,0.4908 L 14.6705,0.7368 L 14.6581,0.9828 L 14.6458,1.2288 L 14.6334,1.4749 L 14.6209,1.7209 L 14.6085,1.9669 L 14.5959,2.2129 L 14.5833,2.4589 L 14.5706,2.705 L 14.5579,2.951 L 14.545,3.197 L 14.532,3.443 L 14.5188,3.6889 L 14.5055,3.9349 L 14.4921,4.1809 L 14.4784,4.4269 L 14.4645,4.6728 L 14.4504,4.9187 L 14.436,5.1647 L 14.4213,5.4106 L 14.4063,5.6564 L 14.3909,5.9023 L 14.3751,6.1481 L 14.3587,6.3939 L 14.3418,6.6397 L 14.3242,6.8854 L 14.3058,7.131 L 14.2864,7.3766 L 14.2658,7.6221 L 14.2438,7.8674 L 14.2199,8.1126 L 14.1932,8.3575 L 14.1626,8.6019 L 14.125,8.8453" />
      <path d="M 16.9025,9.9596 L 16.9121,9.9596 L 16.9217,9.9596 L 16.9313,9.9596 L 16.9409,9.9596 L 16.9505,9.9596 L 16.96,9.9596 L 16.9696,9.9596 L 16.9792,9.9596 L 16.9888,9.9596 L 16.9984,9.9596 L 17.008,9.9596 L 17.0176,9.9596 L 17.0272,9.9596 L 17.0368,9.9596 L 17.0463,9.9596 L 17.0559,9.9596 L 17.0655,9.9596 L 17.0751,9.9596 L 17.0847,9.9596 L 17.0943,9.9596 L 17.1039,9.9596 L 17.1135,9.9596 L 17.1231,9.9596 L 17.1326,9.9596 L 17.1422,9.9596 L 17.1518,9.9596 L 17.1614,9.9596 L 17.171,9.9596 L 17.1806,9.9596 L 17.1902,9.9596 L 17.1998,9.9596 L 17.2094,9.9596 L 17.2189,9.9596 L 17.2285,9.9596 L 17.2381,9.9596 L 17.2477,9.9596 L 17.2573,9.9596 L 17.2669,9.9596 L 17.2765,9.9596 L 17.2861,9.9596 L 17.2957,9.9596 L 17.3052,9.9596 L 17.3148,9.9596 L 17.3244,9.9596 L 17.334,9.9596 L 17.3436,9.9596 L 17.3532,9.9596 L 17.3628,9.9596 L 17.3724,9.9596 L 17.382,9.9596 L 17.3915,9.9596 L 17.4011,9.9596 L 17.4107,9.9596 L 17.4203,9.9596 L 17.4299,9.9596 L 17.4395,9.9596 L 17.4491,9.9596 L 17.4587,9.9596 L 17.4683,9.9596 L 17.4778,9.9596 L 17.4874,9.9596 L 17.497,9.9596 L 17.5066,9.9596 L 17.5162,9.9596 L 17.5258,9.9596 L 17.5354,9.9596 L 17.545,9.9596 L 17.5546,9.9596 L 17.5641,9.9596 L 17.5737,9.9596 L 17.5833,9.9596 L 17.5929,9.9596" />
      <path d="M 18.4405,9.9596 L 18.4809,9.9596 L 18.5212,9.9596 L 18.5616,9.9596 L 18.602,9.9596 L 18.6423,9.9596 L 18.6827,9.9596 L 18.7231,9.9596 L 18.7635,9.9596 L 18.8038,9.9596 L 18.8442,9.9596 L 18.8846,9.9596 L 18.9249,9.9596 L 18.9653,9.9596 L 19.0057,9.9596 L 19.0461,9.9596 L 19.0864,9.9596 L 19.1268,9.9596 L 19.1672,9.9596 L 19.2075,9.9596 L 19.2479,9.9596 L 19.2883,9.9596 L 19.3287,9.9596 L 19.369,9.9596 L 19.4094,9.9596 L 19.4498,9.9596 L 19.4901,9.9596 L 19.5305,9.9596 L 19.5709,9.9596 L 19.6113,9.9596 L 19.6516,9.9596 L 19.692,9.9596 L 19.7324,9.9596 L 19.7727,9.9596 L 19.8131,9.9596 L 19.8535,9.9596 L 19.8939,9.9596 L 19.9342,9.9596 L 19.9746,9.9596 L 20.015,9.9596 L 20.0553,9.9596 L 20.0957,9.9596 L 20.1361,9.9596 L 20.1765,9.9596 L 20.2168,9.9596 L 20.2572,9.9596 L 20.2976,9.9596 L 20.3379,9.9596 L 20.3783,9.9596 L 20.4187,9.9596 L 20.4591,9.9596 L 20.4994,9.9596 L 20.5398,9.9596 L 20.5802,9.9596 L 20.6205,9.9596 L 20.6609,9.9596 L 20.7013,9.9596 L 20.7417,9.9596 L 20.782,9.9596 L 20.8224,9.9596 L 20.8628,9.9596 L 20.9031,9.9596 L 20.9435,9.9596 L 20.9839,9.9596 L 21.0243,9.9596 L 21.0646,9.9596 L 21.105,9.9596 L 21.1454,9.9596 L 21.1857,9.9596 L 21.2261,9.9596 L 21.2665,9.9596 L 21.3069,9.9596 L 21.3472,9.9596" />
      <path d="M 14.125,8.8453 L 14.1838,8.8642 L 14.2426,8.8831 L 14.3014,8.902 L 14.3602,8.9209 L 14.419,8.9398 L 14.4778,8.9587 L 14.5366,8.9776 L 14.5953,8.9965 L 14.6541,9.0154 L 14.7129,9.0343 L 14.7717,9.0531 L 14.8305,9.072 L 14.8893,9.0909 L 14.9481,9.1098 L 15.0069,9.1287 L 15.0657,9.1476 L 15.1245,9.1665 L 15.1833,9.1854 L 15.2421,9.2043 L 15.3009,9.2232 L 15.3597,9.2421 L 15.4185,9.261 L 15.4773,9.2798 L 15.5361,9.2987 L 15.5949,9.3176 L 15.6537,9.3365 L 15.7125,9.3554 L 15.7713,9.3743 L 15.8301,9.3932 L 15.8889,9.4121 L 15.9477,9.431 L 16.0065,9.4499 L 16.0653,9.4688 L 16.1241,9.4876 L 16.1829,9.5065 L 16.2417,9.5254 L 16.3005,9.5443 L 16.3593,9.5632 L 16.4181,9.5821 L 16.4769,9.601 L 16.5357,9.6199 L 16.5945,9.6388 L 16.6533,9.6577 L 16.712,9.6766 L 16.7708,9.6954 L 16.8296,9.7143 L 16.8884,9.7332 L 16.9472,9.7521 L 17.006,9.771 L 17.0648,9.7899 L 17.1236,9.8088 L 17.1824,9.8277 L 17.2412,9.8466 L 17.3,9.8655 L 17.3588,9.8844 L 17.4176,9.9032 L 17.4764,9.9221 L 17.5352,9.941 L 17.594,9.9599 L 17.6528,9.9788 L 17.7116,9.9977 L 17.7704,10.0166 L 17.8292,10.0355 L 17.888,10.0544 L 17.9468,10.0733 L 18.0056,10.0922 L 18.0644,10.111 L 18.1232,10.1299 L 18.182,10.1488 L 18.2408,10.1677 L 18.2996,10.1866 L 18.3584,10.2055" />
      <path d="M 19.9818,-8.9643 L 19.9868,-8.9321 L 19.9917,-8.8999 L 19.9967,-8.8677 L 20.0016,-8.8355 L 20.0066,-8.8033 L 20.0115,-8.7712 L 20.0165,-8.739 L 20.0214,-8.7068 L 20.0264,-8.6746 L 20.0314,-8.6424 L 20.0363,-8.6102 L 20.0413,-8.578 L 20.0462,-8.5458 L 20.0512,-8.5136 L 20.0561,-8.4814 L 20.0611,-8.4492 L 20.0661,-8.417 L 20.071,-8.3848 L 20.076,-8.3526 L 20.0809,-8.3204 L 20.0859,-8.2882 L 20.0908,-8.256 L 20.0958,-8.2238 L 20.1007,-8.1916 L 20.1057,-8.1594 L 20.1107,-8.1272 L 20.1156,-8.095 L 20.1206,-8.0628 L 20.1255,-8.0306 L 20.1305,-7.9984 L 20.1354,-7.9662 L 20.1404,-7.934 L 20.1453,-7.9018 L 20.1503,-7.8696 L 20.1553,-7.8374 L 20.1602,-7.8052 L 20.1652,-7.773 L 20.1701,-7.7408 L 20.1751,-7.7086 L 20.18,-7.6764 L 20.185,-7.6442 L 20.1899,-7.612 L 20.1949,-7.5798 L 20.1999,-7.5476 L 20.2048,-7.5154 L 20.2098,-7.4832 L 20.2147,-7.451 L 20.2197,-7.4188 L 20.2246,-7.3866 L 20.2296,-7.3544 L 20.2346,-7.3222 L 20.2395,-7.2901 L 20.2445,-7.2579 L 20.2494,-7.2257 L 20.2544,-7.1935 L 20.2593,-7.1613 L 20.2643,-7.1291 L 20.2692,-7.0969 L 20.2742,-7.0647 L 20.2792,-7.0325 L 20.2841,-7.0003 L 20.2891,-6.9681 L 20.294,-6.9359 L 20.299,-6.9037 L 20.3039,-6.8715 L 20.3089,-6.8393 L 20.3138,-6.8071 L 20.3188,-6.7749 L 20.3238,-6.7427 L 20.3287,-6.7105 L 20.3337,-6.6783 L 20.3386,-6.6461" />
      <path d="M 16.9025,9.9596 L 16.9121,9.9596 L 16.9217,9.9596 L 16.9313,9.9596 L 16.9409,9.9596 L 16.9505,9.9596 L 16.96,9.9596 L 16.9696,9.9596 L 16.9792,9.9596 L 16.9888,9.9596 L 16.9984,9.9596 L 17.008,9.9596 L 17.0176,9.9596 L 17.0272,9.9596 L 17.0368,9.9596 L 17.0463,9.9596 L 17.0559,9.9596 L 17.0655,9.9596 L 17.0751,9.9596 L 17.0847,9.9596 L 17.0943,9.9596 L 17.1039,9.9596 L 17.1135,9.9596 L 17.1231,9.9596 L 17.1326,9.9596 L 17.1422,9.9596 L 17.1518,9.9596 L 17.1614,9.9596 L 17.171,9.9596 L 17.1806,9.9596 L 17.1902,9.9596 L 17.1998,9.9596 L 17.2094,9.9596 L 17.2189,9.9596 L 17.2285,9.9596 L 17.2381,9.9596 L 17.2477,9.9596 L 17.2573,9.9596 L 17.2669,9.9596 L 17.2765,9.9596 L 17.2861,9.9596 L 17.2957,9.9596 L 17.3052,9.9596 L 17.3148,9.9596 L 17.3244,9.9596 L 17.334,9.9596 L 17.3436,9.9596 L 17.3532,9.9596 L 17.3628,9.9596 L 17.3724,9.9596 L 17.382,9.9596 L 17.3915,9.9596 L 17.4011,9.9596 L 17.4107,9.9596 L 17.4203,9.9596 L 17.4299,9.9596 L 17.4395,9.9596 L 17.4491,9.9596 L 17.4587,9.9596 L 17.4683,9.9596 L 17.4778,9.9596 L 17.4874,9.9596 L 17.497,9.9596 L 17.5066,9.9596 L 17.5162,9.9596 L 17.5258,9.9596 L 17.5354,9.9596 L 17.545,9.9596 L 17.5546,9.9596 L 17.5641,9.9596 L 17.5737,9.9596 L 17.5833,9.9596 L 17.5929,9.9596" />
      <path d="M 18.4405,9.9596 L 18.4808,9.9596 L 18.5212,9.9596 L 18.5616,9.9596 L 18.6019,9.9596 L 18.6423,9.9596 L 18.6827,9.9596 L 18.723,9.9596 L 18.7634,9.9596 L 18.8038,9.9596 L 18.8441,9.9596 L 18.8845,9.9596 L 18.9249,9.9596 L 18.9652,9.9596 L 19.0056,9.9596 L 19.046,9.9596 L 19.0863,9.9596 L 19.1267,9.9596 L 19.1671,9.9596 L 19.2074,9.9596 L 19.2478,9.9596 L 19.2882,9.9596 L 19.3285,9.9596 L 19.3689,9.9596 L 19.4093,9.9596 L 19.4496,9.9596 L 19.49,9.9596 L 19.5304,9.9596 L 19.5707,9.9596 L 19.6111,9.9596 L 19.6515,9.9596 L 19.6918,9.9596 L 19.7322,9.9596 L 19.7726,9.9596 L 19.8129,9.9596 L 19.8533,9.9596 L 19.8937,9.9596 L 19.934,9.9596 L 19.9744,9.9596 L 20.0148,9.9596 L 20.0551,9.9596 L 20.0955,9.9596 L 20.1359,9.9596 L 20.1762,9.9596 L 20.2166,9.9596 L 20.257,9.9596 L 20.2973,9.9596 L 20.3377,9.9596 L 20.3781,9.9596 L 20.4184,9.9596 L 20.4588,9.9596 L 20.4992,9.9596 L 20.5395,9.9596 L 20.5799,9.9596 L 20.6203,9.9596 L 20.6606,9.9596 L 20.701,9.9596 L 20.7414,9.9596 L 20.7817,9.9596 L 20.8221,9.9596 L 20.8625,9.9596 L 20.9028,9.9596 L 20.9432,9.9596 L 20.9836,9.9596 L 21.0239,9.9596 L 21.0643,9.9596 L 21.1047,9.9596 L 21.145,9.9596 L 21.1854,9.9596 L 21.2258,9.9596 L 21.2661,9.9596 L 21.3065,9.9596 L 21.3469,9.9596" />
      <path d="M 15.4186,-8.8152 L 15.4795,-8.8252 L 15.5404,-8.8351 L 15.6013,-8.8451 L 15.6622,-8.8551 L 15.7231,-8.865 L 15.784,-8.875 L 15.8449,-8.8849 L 15.9059,-8.8949 L 15.9668,-8.9048 L 16.0277,-8.9148 L 16.0886,-8.9248 L 16.1495,-8.9347 L 16.2104,-8.9447 L 16.2713,-8.9546 L 16.3322,-8.9646 L 16.3931,-8.9746 L 16.454,-8.9845 L 16.5149,-8.9945 L 16.5759,-9.0044 L 16.6368,-9.0144 L 16.6977,-9.0243 L 16.7586,-9.0343 L 16.8195,-9.0443 L 16.8804,-9.0542 L 16.9413,-9.0642 L 17.0022,-9.0741 L 17.0631,-9.0841 L 17.124,-9.0941 L 17.1849,-9.104 L 17.2458,-9.114 L 17.3068,-9.1239 L 17.3677,-9.1339 L 17.4286,-9.1438 L 17.4895,-9.1538 L 17.5504,-9.1638 L 17.6113,-9.1737 L 17.6722,-9.1837 L 17.7331,-9.1936 L 17.794,-9.2036 L 17.8549,-9.2136 L 17.9158,-9.2235 L 17.9768,-9.2335 L 18.0377,-9.2434 L 18.0986,-9.2534 L 18.1595,-9.2633 L 18.2204,-9.2733 L 18.2813,-9.2833 L 18.3422,-9.2932 L 18.4031,-9.3032 L 18.464,-9.3131 L 18.5249,-9.3231 L 18.5858,-9.3331 L 18.6467,-9.343 L 18.7077,-9.353 L 18.7686,-9.3629 L 18.8295,-9.3729 L 18.8904,-9.3828 L 18.9513,-9.3928 L 19.0122,-9.4028 L 19.0731,-9.4127 L 19.134,-9.4227 L 19.1949,-9.4326 L 19.2558,-9.4426 L 19.3167,-9.4526 L 19.3776,-9.4625 L 19.4386,-9.4725 L 19.4995,-9.4824 L 19.5604,-9.4924 L 19.6213,-9.5023 L 19.6822,-9.5123 L 19.7431,-9.5223 L 19.804,-9.5322" />
    </g>
    <g fill="none" stroke="rgb(110,110,110)" stroke-width="0.3" id="Hidden" stroke-dasharray="3.6 0.9">
      <path d="M -0.0592,9.9609 L -0.0592,9.9262 L -0.0592,9.8915 L -0.0592,9.8568 L -0.0592,9.8221 L -0.0592,9.7873 L -0.0592,9.7526 L -0.0592,9.7179 L -0.0592,9.6832 L -0.0592,9.6484 L -0.0592,9.6137 L -0.0592,9.579 L -0.0592,9.5443 L -0.0592,9.5096 L -0.0592,9.4748 L -0.0592,9.4401 L -0.0592,9.4054 L -0.0592,9.3707 L -0.0592,9.3359 L -0.0592,9.3012 L -0.0592,9.2665 L -0.0592,9.2318 L -0.0592,9.1971 L -0.0592,9.1623 L -0.0592,9.1276 L -0.0592,9.0929 L -0.0592,9.0582 L -0.0592,9.0234 L -0.0592,8.9887 L -0.0592,8.954 L -0.0592,8.9193 L -0.0592,8.8846 L -0.0592,8.8498 L -0.0592,8.8151 L -0.0592,8.7804 L -0.0592,8.7457 L -0.0592,8.7109 L -0.0592,8.6762 L -0.0592,8.6415 L -0.0592,8.6068 L -0.0592,8.5721 L -0.0592,8.5373 L -0.0592,8.5026 L -0.0592,8.4679 L -0.0592,8.4332 L -0.0592,8.3984 L -0.0592,8.3637 L -0.0592,8.329 L -0.0592,8.2943 L -0.0592,8.2596 L -0.0592,8.2248 L -0.0592,8.1901 L -0.0592,8.1554 L -0.0592,8.1207 L -0.0592,8.0859 L -0.0592,8.0512 L -0.0592,8.0165 L -0.0592,7.9818 L -0.0592,7.9471 L -0.0592,7.9123 L -0.0592,7.8776 L -0.0592,7.8429 L -0.0592,7.8082 L -0.0592,7.7734 L -0.0592,7.7387 L -0.0592,7.704 L -0.0592,7.6693 L -0.0592,7.6346 L -0.0592,7.5998 L -0.0592,7.5651 L -0.0592,7.5304 L -0.0592,7.4957 L -0.0592,7.4609" />
      <path d="M -0.0592,7.4609 L -0.6787,7.4341 L -1.2935,7.3532 L -1.8988,7.219 L -2.4902,7.0325 L -3.0631,6.7953 L -3.6132,6.5091 L -4.1364,6.1763 L -4.6288,5.7994 L -5.0867,5.3813 L -5.5068,4.9253 L -5.886,4.4346 L -6.2215,3.9131 L -6.5109,3.3647 L -6.7521,2.7935 L -6.9434,2.2036 L -7.0834,1.5996 L -7.1712,0.9857 L -7.2063,0.3666 L -7.1884,-0.2532 L -7.1178,-0.8692 L -6.9949,-1.477 L -6.8209,-2.0722 L -6.597,-2.6505 L -6.3249,-3.2077 L -6.0066,-3.7399 L -5.6445,-4.2432 L -5.2413,-4.7143 L -4.7997,-5.1496 L -4.3231,-5.5463 L -3.8148,-5.9015 L -3.2786,-6.2129 L -2.7181,-6.4782 L -2.1374,-6.6956 L -1.5405,-6.8637 L -0.9317,-6.9815 L -0.3152,-7.0481 L 0.3047,-7.0632 L 0.9237,-7.0266 L 1.5376,-6.9389 L 2.1421,-6.8005 L 2.733,-6.6126 L 3.3064,-6.3765 L 3.8583,-6.0938 L 4.3851,-5.7667 L 4.8831,-5.3972 L 5.3491,-4.9881 L 5.7799,-4.5421 L 6.1727,-4.0623 L 6.5249,-3.5519 L 6.8342,-3.0144 L 7.0986,-2.4535 L 7.3163,-1.8729 L 7.486,-1.2765 L 7.6066,-0.6682 L 7.6775,-0.0522 L 7.6981,0.5676 L 7.6684,1.187 L 7.5888,1.802 L 7.4597,2.4085 L 7.2821,3.0026 L 7.0573,3.5805 L 6.7866,4.1385 L 6.472,4.6728 L 6.1156,5.1803 L 5.7196,5.6575 L 5.2867,6.1014 L 4.8196,6.5094 L 4.3215,6.8787 L 3.7956,7.2072 L 3.2451,7.4928 L 2.6737,7.7336 L 2.0849,7.9284" />
      <path d="M -0.0592,7.4609 L -0.0561,7.4609 L -0.053,7.4609 L -0.0499,7.4609 L -0.0468,7.4609 L -0.0438,7.4608 L -0.0407,7.4608 L -0.0376,7.4608 L -0.0345,7.4608 L -0.0314,7.4607 L -0.0283,7.4607 L -0.0253,7.4607 L -0.0222,7.4607 L -0.0191,7.4606 L -0.016,7.4606 L -0.0129,7.4606 L -0.0098,7.4606 L -0.0067,7.4605 L -0.0037,7.4605 L -0.0006,7.4605 L 0.0025,7.4605 L 0.0056,7.4604 L 0.0087,7.4604 L 0.0118,7.4604 L 0.0148,7.4604 L 0.0179,7.4604 L 0.021,7.4603 L 0.0241,7.4603 L 0.0272,7.4603 L 0.0303,7.4603 L 0.0333,7.4602 L 0.0364,7.4602 L 0.0395,7.4602 L 0.0426,7.4602 L 0.0457,7.4601 L 0.0488,7.4601 L 0.0519,7.4601 L 0.0549,7.4601 L 0.058,7.46 L 0.0611,7.46 L 0.0642,7.46 L 0.0673,7.46 L 0.0704,7.4599 L 0.0734,7.4599 L 0.0765,7.4599 L 0.0796,7.4599 L 0.0827,7.4599 L 0.0858,7.4598 L 0.0889,7.4598 L 0.092,7.4598 L 0.095,7.4598 L 0.0981,7.4597 L 0.1012,7.4597 L 0.1043,7.4597 L 0.1074,7.4597 L 0.1105,7.4596 L 0.1135,7.4596 L 0.1166,7.4596 L 0.1197,7.4596 L 0.1228,7.4595 L 0.1259,7.4595 L 0.129,7.4595 L 0.132,7.4595 L 0.1351,7.4595 L 0.1382,7.4594 L 0.1413,7.4594 L 0.1444,7.4594 L 0.1475,7.4594 L 0.1506,7.4593 L 0.1536,7.4593 L 0.1567,7.4593 L 0.1598,7.4593 L 0.1629,7.4592" />
      <path d="M 21.3465,9.9596 L 21.2431,9.7265 L 21.1956,9.4669 L 21.1592,9.2055 L 21.1284,8.9434 L 21.1012,8.6809 L 21.0764,8.4181 L 21.0534,8.1552 L 21.0318,7.8922 L 21.0114,7.629 L 20.992,7.3658 L 20.9734,7.1025 L 20.9554,6.8392 L 20.938,6.5758 L 20.9211,6.3125 L 20.9047,6.049 L 20.8887,5.7856 L 20.873,5.5221 L 20.8577,5.2586 L 20.8426,4.9951 L 20.8277,4.7316 L 20.8131,4.4681 L 20.7987,4.2046 L 20.7844,3.941 L 20.7703,3.6775 L 20.7564,3.4139 L 20.7426,3.1503 L 20.7289,2.8868 L 20.7153,2.6232 L 20.7017,2.3596 L 20.6883,2.096 L 20.6749,1.8324 L 20.6616,1.5688 L 20.6483,1.3052 L 20.635,1.0416 L 20.6217,0.778 L 20.6085,0.5144 L 20.5952,0.2508 L 20.582,-0.0128 L 20.5687,-0.2764 L 20.5554,-0.54 L 20.5421,-0.8036 L 20.5287,-1.0672 L 20.5152,-1.3307 L 20.5017,-1.5943 L 20.4881,-1.8579 L 20.4744,-2.1215 L 20.4606,-2.3851 L 20.4467,-2.6486 L 20.4327,-2.9122 L 20.4185,-3.1757 L 20.4041,-3.4393 L 20.3896,-3.7028 L 20.3748,-3.9663 L 20.3598,-4.2298 L 20.3446,-4.4933 L 20.3291,-4.7568 L 20.3133,-5.0202 L 20.2972,-5.2837 L 20.2807,-5.5471 L 20.2637,-5.8105 L 20.2463,-6.0738 L 20.2284,-6.3372 L 20.2098,-6.6004 L 20.1905,-6.8637 L 20.1704,-7.1268 L 20.1493,-7.3899 L 20.127,-7.6529 L 20.1033,-7.9158 L 20.0777,-8.1785 L 20.0497,-8.4409 L 20.0183,-8.703 L 19.9818,-8.9643" />
      <path d="M 21.3472,7.4596 L 21.3471,7.4596 L 21.347,7.4596 L 21.3469,7.4596" />
      <path d="M 21.3469,7.4596 L 21.3468,7.4596 L 21.3467,7.4596 L 21.3466,7.4596" />
      <path d="M 19.1832,7.4596 L 19.158,7.4596 L 19.1328,7.4596 L 19.1076,7.4596 L 19.0824,7.4596 L 19.0572,7.4596 L 19.032,7.4596 L 19.0068,7.4596 L 18.9817,7.4596 L 18.9565,7.4596 L 18.9313,7.4596 L 18.9061,7.4596 L 18.8809,7.4596 L 18.8557,7.4596 L 18.8305,7.4596 L 18.8053,7.4596 L 18.7801,7.4596 L 18.7549,7.4596 L 18.7297,7.4596 L 18.7045,7.4596 L 18.6794,7.4596 L 18.6542,7.4596 L 18.629,7.4596 L 18.6038,7.4596 L 18.5786,7.4596 L 18.5534,7.4596 L 18.5282,7.4596 L 18.503,7.4596 L 18.4778,7.4596 L 18.4526,7.4596 L 18.4274,7.4596 L 18.4022,7.4596 L 18.3771,7.4596 L 18.3519,7.4596 L 18.3267,7.4596 L 18.3015,7.4596 L 18.2763,7.4596 L 18.2511,7.4596 L 18.2259,7.4596 L 18.2007,7.4596 L 18.1755,7.4596 L 18.1503,7.4596 L 18.1251,7.4596 L 18.0999,7.4596 L 18.0748,7.4596 L 18.0496,7.4596 L 18.0244,7.4596 L 17.9992,7.4596 L 17.974,7.4596 L 17.9488,7.4596 L 17.9236,7.4596 L 17.8984,7.4596 L 17.8732,7.4596 L 17.848,7.4596 L 17.8228,7.4596 L 17.7976,7.4596 L 17.7725,7.4596 L 17.7473,7.4596 L 17.7221,7.4596 L 17.6969,7.4596 L 17.6717,7.4596 L 17.6465,7.4596 L 17.6213,7.4596 L 17.5961,7.4596 L 17.5709,7.4596 L 17.5457,7.4596 L 17.5205,7.4596 L 17.4953,7.4596 L 17.4702,7.4596 L 17.445,7.4596 L 17.4198,7.4596 L 17.3946,7.4596 L 17.3694,7.4596" />
      <path d="M 17.3694,7.4596 L 17.3629,7.4596 L 17.3564,7.4596 L 17.3499,7.4596 L 17.3434,7.4596 L 17.337,7.4596 L 17.3305,7.4596 L 17.324,7.4596 L 17.3175,7.4596 L 17.311,7.4596 L 17.3045,7.4596 L 17.2981,7.4596 L 17.2916,7.4596 L 17.2851,7.4596 L 17.2786,7.4596 L 17.2721,7.4596 L 17.2656,7.4596 L 17.2592,7.4596 L 17.2527,7.4596 L 17.2462,7.4596 L 17.2397,7.4596 L 17.2332,7.4596 L 17.2267,7.4596 L 17.2202,7.4596 L 17.2138,7.4596 L 17.2073,7.4596 L 17.2008,7.4596 L 17.1943,7.4596 L 17.1878,7.4596 L 17.1813,7.4596 L 17.1749,7.4596 L 17.1684,7.4596 L 17.1619,7.4596 L 17.1554,7.4596 L 17.1489,7.4596 L 17.1424,7.4596 L 17.1359,7.4596 L 17.1295,7.4596 L 17.123,7.4596 L 17.1165,7.4596 L 17.11,7.4596 L 17.1035,7.4596 L 17.097,7.4596 L 17.0906,7.4596 L 17.0841,7.4596 L 17.0776,7.4596 L 17.0711,7.4596 L 17.0646,7.4596 L 17.0581,7.4596 L 17.0517,7.4596 L 17.0452,7.4596 L 17.0387,7.4596 L 17.0322,7.4596 L 17.0257,7.4596 L 17.0192,7.4596 L 17.0127,7.4596 L 17.0063,7.4596 L 16.9998,7.4596 L 16.9933,7.4596 L 16.9868,7.4596 L 16.9803,7.4596 L 16.9738,7.4596 L 16.9674,7.4596 L 16.9609,7.4596 L 16.9544,7.4596 L 16.9479,7.4596 L 16.9414,7.4596 L 16.9349,7.4596 L 16.9284,7.4596 L 16.922,7.4596 L 16.9155,7.4596 L 16.909,7.4596 L 16.9025,7.4596" />
      <path d="M 16.9025,7.4596 L 16.8283,7.2947 L 16.7943,7.1105 L 16.7683,6.9251 L 16.7463,6.7391 L 16.7269,6.5528 L 16.7092,6.3663 L 16.6928,6.1798 L 16.6775,5.9931 L 16.663,5.8064 L 16.6492,5.6196 L 16.636,5.4328 L 16.6232,5.2459 L 16.6109,5.059 L 16.5989,4.8721 L 16.5873,4.6852 L 16.5759,4.4983 L 16.5648,4.3113 L 16.554,4.1243 L 16.5433,3.9373 L 16.5328,3.7503 L 16.5225,3.5633 L 16.5123,3.3763 L 16.5022,3.1893 L 16.4923,3.0023 L 16.4824,2.8152 L 16.4727,2.6282 L 16.463,2.4412 L 16.4535,2.2541 L 16.4439,2.0671 L 16.4345,1.88 L 16.425,1.693 L 16.4157,1.5059 L 16.4063,1.3188 L 16.397,1.1318 L 16.3877,0.9447 L 16.3784,0.7577 L 16.3691,0.5706 L 16.3598,0.3835 L 16.3505,0.1965 L 16.3412,0.0094 L 16.3318,-0.1776 L 16.3224,-0.3647 L 16.313,-0.5517 L 16.3036,-0.7388 L 16.294,-0.9258 L 16.2845,-1.1129 L 16.2748,-1.2999 L 16.2651,-1.487 L 16.2553,-1.674 L 16.2453,-1.861 L 16.2353,-2.0481 L 16.2252,-2.2351 L 16.2149,-2.4221 L 16.2044,-2.6091 L 16.1938,-2.7961 L 16.183,-2.983 L 16.172,-3.17 L 16.1607,-3.357 L 16.1492,-3.5439 L 16.1374,-3.7308 L 16.1253,-3.9177 L 16.1128,-4.1046 L 16.0999,-4.2914 L 16.0865,-4.4782 L 16.0724,-4.665 L 16.0578,-4.8517 L 16.0422,-5.0384 L 16.0257,-5.2249 L 16.0078,-5.4114 L 15.9882,-5.5976 L 15.9662,-5.7836 L 15.9404,-5.9691" />
      <path d="M 15.9404,-5.9691 L 15.9396,-5.9747 L 15.9387,-5.9803 L 15.9378,-5.986 L 15.9369,-5.9916 L 15.936,-5.9972 L 15.9351,-6.0028 L 15.9342,-6.0084 L 15.9333,-6.014 L 15.9324,-6.0196 L 15.9314,-6.0252 L 15.9305,-6.0308 L 15.9296,-6.0364 L 15.9286,-6.042 L 15.9277,-6.0476 L 15.9267,-6.0532 L 15.9257,-6.0588 L 15.9247,-6.0644 L 15.9237,-6.07 L 15.9227,-6.0756 L 15.9217,-6.0812 L 15.9207,-6.0868 L 15.9196,-6.0923 L 15.9186,-6.0979 L 15.9175,-6.1035 L 15.9165,-6.1091 L 15.9154,-6.1147 L 15.9143,-6.1202 L 15.9132,-6.1258 L 15.9121,-6.1314 L 15.9109,-6.1369 L 15.9098,-6.1425 L 15.9086,-6.1481 L 15.9074,-6.1536 L 15.9063,-6.1592 L 15.905,-6.1647 L 15.9038,-6.1703 L 15.9026,-6.1758 L 15.9013,-6.1813 L 15.9,-6.1869 L 15.8987,-6.1924 L 15.8974,-6.1979 L 15.896,-6.2034 L 15.8947,-6.209 L 15.8933,-6.2145 L 15.8918,-6.22 L 15.8904,-6.2255 L 15.8889,-6.2309 L 15.8874,-6.2364 L 15.8858,-6.2419 L 15.8842,-6.2473 L 15.8826,-6.2528 L 15.8809,-6.2582 L 15.8792,-6.2636 L 15.8775,-6.269 L 15.8756,-6.2744 L 15.8738,-6.2797 L 15.8718,-6.2851 L 15.8698,-6.2904 L 15.8677,-6.2957 L 15.8655,-6.3009 L 15.8632,-6.3061 L 15.8608,-6.3112 L 15.8582,-6.3163 L 15.8555,-6.3213 L 15.8526,-6.3262 L 15.8494,-6.3309 L 15.846,-6.3354 L 15.8422,-6.3396 L 15.8379,-6.3433 L 15.833,-6.3463 L 15.8276,-6.348 L 15.822,-6.348" />
      <path d="M 15.822,-6.348 L 15.7501,-6.1884 L 15.7161,-6.0115 L 15.6902,-5.8333 L 15.6682,-5.6545 L 15.6488,-5.4754 L 15.6312,-5.2962 L 15.6149,-5.1168 L 15.5997,-4.9373 L 15.5853,-4.7577 L 15.5716,-4.5781 L 15.5585,-4.3985 L 15.5459,-4.2188 L 15.5337,-4.0391 L 15.5219,-3.8593 L 15.5104,-3.6796 L 15.4992,-3.4998 L 15.4883,-3.32 L 15.4776,-3.1402 L 15.4672,-2.9603 L 15.4569,-2.7805 L 15.4468,-2.6007 L 15.4368,-2.4208 L 15.427,-2.2409 L 15.4173,-2.0611 L 15.4077,-1.8812 L 15.3982,-1.7013 L 15.3889,-1.5214 L 15.3795,-1.3415 L 15.3703,-1.1616 L 15.3611,-0.9818 L 15.352,-0.8019 L 15.343,-0.622 L 15.3339,-0.442 L 15.325,-0.2621 L 15.316,-0.0822 L 15.3071,0.0977 L 15.2981,0.2776 L 15.2892,0.4575 L 15.2803,0.6374 L 15.2714,0.8173 L 15.2624,0.9972 L 15.2534,1.1771 L 15.2445,1.357 L 15.2354,1.5369 L 15.2264,1.7168 L 15.2172,1.8967 L 15.2081,2.0766 L 15.1988,2.2565 L 15.1895,2.4364 L 15.1801,2.6163 L 15.1706,2.7962 L 15.161,2.976 L 15.1512,3.1559 L 15.1413,3.3358 L 15.1313,3.5156 L 15.1211,3.6954 L 15.1107,3.8753 L 15.1001,4.0551 L 15.0892,4.2349 L 15.0781,4.4147 L 15.0666,4.5944 L 15.0548,4.7742 L 15.0425,4.9539 L 15.0298,5.1336 L 15.0165,5.3132 L 15.0025,5.4928 L 14.9876,5.6723 L 14.9717,5.8517 L 14.9543,6.031 L 14.9351,6.2101 L 14.9129,6.3889 L 14.8857,6.5669" />
      <path d="M 19.1191,7.9271 L 19.0603,7.9082 L 19.0015,7.8893 L 18.9427,7.8704 L 18.8839,7.8515 L 18.8251,7.8326 L 18.7663,7.8137 L 18.7075,7.7949 L 18.6487,7.776 L 18.59,7.7571 L 18.5312,7.7382 L 18.4724,7.7193 L 18.4136,7.7004 L 18.3548,7.6815 L 18.296,7.6626 L 18.2372,7.6437 L 18.1784,7.6248 L 18.1196,7.6059 L 18.0608,7.5871 L 18.002,7.5682 L 17.9432,7.5493 L 17.8844,7.5304 L 17.8256,7.5115 L 17.7668,7.4926 L 17.708,7.4737 L 17.6492,7.4548 L 17.5904,7.4359 L 17.5316,7.417 L 17.4728,7.3981 L 17.414,7.3793 L 17.3552,7.3604 L 17.2964,7.3415 L 17.2376,7.3226 L 17.1788,7.3037 L 17.12,7.2848 L 17.0612,7.2659 L 17.0024,7.247 L 16.9436,7.2281 L 16.8848,7.2092 L 16.826,7.1903 L 16.7672,7.1714 L 16.7084,7.1526 L 16.6496,7.1337 L 16.5908,7.1148 L 16.532,7.0959 L 16.4733,7.077 L 16.4145,7.0581 L 16.3557,7.0392 L 16.2969,7.0203 L 16.2381,7.0014 L 16.1793,6.9825 L 16.1205,6.9636 L 16.0617,6.9448 L 16.0029,6.9259 L 15.9441,6.907 L 15.8853,6.8881 L 15.8265,6.8692 L 15.7677,6.8503 L 15.7089,6.8314 L 15.6501,6.8125 L 15.5913,6.7936 L 15.5325,6.7747 L 15.4737,6.7558 L 15.4149,6.737 L 15.3561,6.7181 L 15.2973,6.6992 L 15.2385,6.6803 L 15.1797,6.6614 L 15.1209,6.6425 L 15.0621,6.6236 L 15.0033,6.6047 L 14.9445,6.5858 L 14.8857,6.5669" />
      <path d="M 16.9025,7.4596 L 16.9025,7.4912 L 16.9025,7.5228 L 16.9025,7.5545 L 16.9025,7.5861 L 16.9025,7.6178 L 16.9025,7.6494 L 16.9025,7.681 L 16.9025,7.7127 L 16.9025,7.7443 L 16.9025,7.776 L 16.9025,7.8076 L 16.9025,7.8393 L 16.9025,7.8709 L 16.9025,7.9025 L 16.9025,7.9342 L 16.9025,7.9658 L 16.9025,7.9975 L 16.9025,8.0291 L 16.9025,8.0607 L 16.9025,8.0924 L 16.9025,8.124 L 16.9025,8.1557 L 16.9025,8.1873 L 16.9025,8.219 L 16.9025,8.2506 L 16.9025,8.2822 L 16.9025,8.3139 L 16.9025,8.3455 L 16.9025,8.3772 L 16.9025,8.4088 L 16.9025,8.4404 L 16.9025,8.4721 L 16.9025,8.5037 L 16.9025,8.5354 L 16.9025,8.567 L 16.9025,8.5987 L 16.9025,8.6303 L 16.9025,8.6619 L 16.9025,8.6936 L 16.9025,8.7252 L 16.9025,8.7569 L 16.9025,8.7885 L 16.9025,8.8201 L 16.9025,8.8518 L 16.9025,8.8834 L 16.9025,8.9151 L 16.9025,8.9467 L 16.9025,8.9784 L 16.9025,9.01 L 16.9025,9.0416 L 16.9025,9.0733 L 16.9025,9.1049 L 16.9025,9.1366 L 16.9025,9.1682 L 16.9025,9.1998 L 16.9025,9.2315 L 16.9025,9.2631 L 16.9025,9.2948 L 16.9025,9.3264 L 16.9025,9.3581 L 16.9025,9.3897 L 16.9025,9.4213 L 16.9025,9.453 L 16.9025,9.4846 L 16.9025,9.5163 L 16.9025,9.5479 L 16.9025,9.5795 L 16.9025,9.6112 L 16.9025,9.6428 L 16.9025,9.6745 L 16.9025,9.7061 L 16.9025,9.7377" />
      <path d="M 16.7937,9.7028 L 16.7498,9.4562 L 16.7155,9.208 L 16.6862,8.9593 L 16.6602,8.7101 L 16.6365,8.4607 L 16.6145,8.2112 L 16.5939,7.9616 L 16.5743,7.7118 L 16.5557,7.462 L 16.5378,7.2121 L 16.5206,6.9622 L 16.5039,6.7123 L 16.4877,6.4623 L 16.472,6.2123 L 16.4566,5.9623 L 16.4416,5.7122 L 16.4269,5.4622 L 16.4124,5.2121 L 16.3982,4.962 L 16.3843,4.7119 L 16.3705,4.4617 L 16.3569,4.2116 L 16.3434,3.9615 L 16.3301,3.7113 L 16.3169,3.4612 L 16.3038,3.211 L 16.2909,2.9608 L 16.278,2.7107 L 16.2652,2.4605 L 16.2524,2.2103 L 16.2397,1.9601 L 16.2271,1.7099 L 16.2145,1.4598 L 16.2019,1.2096 L 16.1893,0.9594 L 16.1768,0.7092 L 16.1642,0.459 L 16.1517,0.2088 L 16.1391,-0.0414 L 16.1265,-0.2915 L 16.1138,-0.5417 L 16.1011,-0.7919 L 16.0884,-1.0421 L 16.0756,-1.2923 L 16.0627,-1.5424 L 16.0497,-1.7926 L 16.0366,-2.0428 L 16.0234,-2.2929 L 16.0101,-2.5431 L 15.9967,-2.7932 L 15.983,-3.0433 L 15.9693,-3.2934 L 15.9553,-3.5436 L 15.9411,-3.7937 L 15.9267,-4.0437 L 15.9121,-4.2938 L 15.8971,-4.5439 L 15.8818,-4.7939 L 15.8662,-5.0439 L 15.8502,-5.2939 L 15.8337,-5.5439 L 15.8168,-5.7938 L 15.7992,-6.0437 L 15.781,-6.2935 L 15.762,-6.5433 L 15.742,-6.793 L 15.721,-7.0426 L 15.6985,-7.2921 L 15.6744,-7.5415 L 15.6479,-7.7906 L 15.6182,-8.0393 L 15.5836,-8.2874" />
      <path d="M 15.5836,-8.2874 L 15.5824,-8.2952 L 15.5812,-8.303 L 15.5799,-8.3108 L 15.5787,-8.3187 L 15.5775,-8.3265 L 15.5762,-8.3343 L 15.5749,-8.3421 L 15.5737,-8.3499 L 15.5724,-8.3577 L 15.5711,-8.3655 L 15.5698,-8.3733 L 15.5685,-8.3811 L 15.5672,-8.3889 L 15.5658,-8.3967 L 15.5645,-8.4045 L 15.5631,-8.4123 L 15.5617,-8.4201 L 15.5603,-8.4279 L 15.5589,-8.4357 L 15.5575,-8.4435 L 15.5561,-8.4513 L 15.5547,-8.4591 L 15.5532,-8.4668 L 15.5517,-8.4746 L 15.5502,-8.4824 L 15.5487,-8.4901 L 15.5472,-8.4979 L 15.5457,-8.5057 L 15.5441,-8.5134 L 15.5425,-8.5212 L 15.5409,-8.5289 L 15.5393,-8.5367 L 15.5377,-8.5444 L 15.536,-8.5522 L 15.5343,-8.5599 L 15.5326,-8.5676 L 15.5309,-8.5753 L 15.5291,-8.5831 L 15.5273,-8.5908 L 15.5255,-8.5985 L 15.5237,-8.6062 L 15.5218,-8.6139 L 15.5199,-8.6215 L 15.5179,-8.6292 L 15.5159,-8.6369 L 15.5139,-8.6445 L 15.5118,-8.6521 L 15.5097,-8.6598 L 15.5075,-8.6674 L 15.5053,-8.675 L 15.5031,-8.6826 L 15.5007,-8.6901 L 15.4983,-8.6977 L 15.4959,-8.7052 L 15.4933,-8.7127 L 15.4907,-8.7202 L 15.488,-8.7276 L 15.4852,-8.735 L 15.4823,-8.7423 L 15.4792,-8.7496 L 15.476,-8.7569 L 15.4726,-8.764 L 15.4691,-8.7711 L 15.4653,-8.778 L 15.4612,-8.7848 L 15.4568,-8.7914 L 15.452,-8.7977 L 15.4467,-8.8036 L 15.4407,-8.8088 L 15.434,-8.8129 L 15.4265,-8.8152 L 15.4186,-8.8152" />
      <path d="M 14.8857,6.5669 L 14.8752,6.5986 L 14.8646,6.6302 L 14.854,6.6619 L 14.8435,6.6935 L 14.8329,6.7252 L 14.8223,6.7568 L 14.8118,6.7884 L 14.8012,6.8201 L 14.7906,6.8517 L 14.7801,6.8834 L 14.7695,6.915 L 14.7589,6.9467 L 14.7484,6.9783 L 14.7378,7.01 L 14.7272,7.0416 L 14.7167,7.0732 L 14.7061,7.1049 L 14.6955,7.1365 L 14.685,7.1682 L 14.6744,7.1998 L 14.6638,7.2315 L 14.6533,7.2631 L 14.6427,7.2948 L 14.6321,7.3264 L 14.6216,7.3581 L 14.611,7.3897 L 14.6004,7.4213 L 14.5899,7.453 L 14.5793,7.4846 L 14.5687,7.5163 L 14.5582,7.5479 L 14.5476,7.5796 L 14.537,7.6112 L 14.5265,7.6429 L 14.5159,7.6745 L 14.5053,7.7061 L 14.4948,7.7378 L 14.4842,7.7694 L 14.4737,7.8011 L 14.4631,7.8327 L 14.4525,7.8644 L 14.442,7.896 L 14.4314,7.9277 L 14.4208,7.9593 L 14.4103,7.9909 L 14.3997,8.0226 L 14.3891,8.0542 L 14.3786,8.0859 L 14.368,8.1175 L 14.3574,8.1492 L 14.3469,8.1808 L 14.3363,8.2125 L 14.3257,8.2441 L 14.3152,8.2757 L 14.3046,8.3074 L 14.294,8.339 L 14.2835,8.3707 L 14.2729,8.4023 L 14.2623,8.434 L 14.2518,8.4656 L 14.2412,8.4973 L 14.2306,8.5289 L 14.2201,8.5605 L 14.2095,8.5922 L 14.1989,8.6238 L 14.1884,8.6555 L 14.1778,8.6871 L 14.1672,8.7188 L 14.1567,8.7504 L 14.1461,8.7821 L 14.1355,8.8137 L 14.125,8.8453" />
      <path d="M 17.5929,9.9596 L 17.6047,9.9596 L 17.6165,9.9596 L 17.6282,9.9596 L 17.64,9.9596 L 17.6518,9.9596 L 17.6635,9.9596 L 17.6753,9.9596 L 17.6871,9.9596 L 17.6989,9.9596 L 17.7106,9.9596 L 17.7224,9.9596 L 17.7342,9.9596 L 17.7459,9.9596 L 17.7577,9.9596 L 17.7695,9.9596 L 17.7813,9.9596 L 17.793,9.9596 L 17.8048,9.9596 L 17.8166,9.9596 L 17.8283,9.9596 L 17.8401,9.9596 L 17.8519,9.9596 L 17.8637,9.9596 L 17.8754,9.9596 L 17.8872,9.9596 L 17.899,9.9596 L 17.9108,9.9596 L 17.9225,9.9596 L 17.9343,9.9596 L 17.9461,9.9596 L 17.9578,9.9596 L 17.9696,9.9596 L 17.9814,9.9596 L 17.9932,9.9596 L 18.0049,9.9596 L 18.0167,9.9596 L 18.0285,9.9596 L 18.0402,9.9596 L 18.052,9.9596 L 18.0638,9.9596 L 18.0756,9.9596 L 18.0873,9.9596 L 18.0991,9.9596 L 18.1109,9.9596 L 18.1226,9.9596 L 18.1344,9.9596 L 18.1462,9.9596 L 18.158,9.9596 L 18.1697,9.9596 L 18.1815,9.9596 L 18.1933,9.9596 L 18.205,9.9596 L 18.2168,9.9596 L 18.2286,9.9596 L 18.2404,9.9596 L 18.2521,9.9596 L 18.2639,9.9596 L 18.2757,9.9596 L 18.2874,9.9596 L 18.2992,9.9596 L 18.311,9.9596 L 18.3228,9.9596 L 18.3345,9.9596 L 18.3463,9.9596 L 18.3581,9.9596 L 18.3699,9.9596 L 18.3816,9.9596 L 18.3934,9.9596 L 18.4052,9.9596 L 18.4169,9.9596 L 18.4287,9.9596 L 18.4405,9.9596" />
      <path d="M 21.3469,7.4596 L 21.2917,7.4596 L 21.2364,7.4596 L 21.1812,7.4596 L 21.126,7.4596 L 21.0707,7.4596 L 21.0155,7.4596 L 20.9602,7.4596 L 20.905,7.4596 L 20.8497,7.4596 L 20.7945,7.4596 L 20.7392,7.4596 L 20.684,7.4596 L 20.6288,7.4596 L 20.5735,7.4596 L 20.5183,7.4596 L 20.463,7.4596 L 20.4078,7.4596 L 20.3525,7.4596 L 20.2973,7.4596 L 20.2421,7.4596 L 20.1868,7.4596 L 20.1316,7.4596 L 20.0763,7.4596 L 20.0211,7.4596 L 19.9658,7.4596 L 19.9106,7.4596 L 19.8553,7.4596 L 19.8001,7.4596 L 19.7449,7.4596 L 19.6896,7.4596 L 19.6344,7.4596 L 19.5791,7.4596 L 19.5239,7.4596 L 19.4686,7.4596 L 19.4134,7.4596 L 19.3582,7.4596 L 19.3029,7.4596 L 19.2477,7.4596 L 19.1924,7.4596 L 19.1372,7.4596 L 19.0819,7.4596 L 19.0267,7.4596 L 18.9715,7.4596 L 18.9162,7.4596 L 18.861,7.4596 L 18.8057,7.4596 L 18.7505,7.4596 L 18.6952,7.4596 L 18.64,7.4596 L 18.5847,7.4596 L 18.5295,7.4596 L 18.4743,7.4596 L 18.419,7.4596 L 18.3638,7.4596 L 18.3085,7.4596 L 18.2533,7.4596 L 18.198,7.4596 L 18.1428,7.4596 L 18.0876,7.4596 L 18.0323,7.4596 L 17.9771,7.4596 L 17.9218,7.4596 L 17.8666,7.4596 L 17.8113,7.4596 L 17.7561,7.4596 L 17.7008,7.4596 L 17.6456,7.4596 L 17.5904,7.4596 L 17.5351,7.4596 L 17.4799,7.4596 L 17.4246,7.4596 L 17.3694,7.4596" />
      <path d="M 20.2074,-7.065 L 20.1465,-7.055 L 20.0856,-7.0451 L 20.0247,-7.0351 L 19.9638,-7.0251 L 19.9029,-7.0152 L 19.8419,-7.0052 L 19.781,-6.9953 L 19.7201,-6.9853 L 19.6592,-6.9754 L 19.5983,-6.9654 L 19.5374,-6.9554 L 19.4765,-6.9455 L 19.4156,-6.9355 L 19.3547,-6.9256 L 19.2938,-6.9156 L 19.2329,-6.9056 L 19.1719,-6.8957 L 19.111,-6.8857 L 19.0501,-6.8758 L 18.9892,-6.8658 L 18.9283,-6.8559 L 18.8674,-6.8459 L 18.8065,-6.8359 L 18.7456,-6.826 L 18.6847,-6.816 L 18.6238,-6.8061 L 18.5629,-6.7961 L 18.502,-6.7861 L 18.441,-6.7762 L 18.3801,-6.7662 L 18.3192,-6.7563 L 18.2583,-6.7463 L 18.1974,-6.7364 L 18.1365,-6.7264 L 18.0756,-6.7164 L 18.0147,-6.7065 L 17.9538,-6.6965 L 17.8929,-6.6866 L 17.832,-6.6766 L 17.771,-6.6666 L 17.7101,-6.6567 L 17.6492,-6.6467 L 17.5883,-6.6368 L 17.5274,-6.6268 L 17.4665,-6.6169 L 17.4056,-6.6069 L 17.3447,-6.5969 L 17.2838,-6.587 L 17.2229,-6.577 L 17.162,-6.5671 L 17.1011,-6.5571 L 17.0401,-6.5471 L 16.9792,-6.5372 L 16.9183,-6.5272 L 16.8574,-6.5173 L 16.7965,-6.5073 L 16.7356,-6.4974 L 16.6747,-6.4874 L 16.6138,-6.4774 L 16.5529,-6.4675 L 16.492,-6.4575 L 16.4311,-6.4476 L 16.3702,-6.4376 L 16.3092,-6.4277 L 16.2483,-6.4177 L 16.1874,-6.4077 L 16.1265,-6.3978 L 16.0656,-6.3878 L 16.0047,-6.3779 L 15.9438,-6.3679 L 15.8829,-6.3579 L 15.822,-6.348" />
      <path d="M 15.9404,-5.9691 L 15.9355,-6.0013 L 15.9305,-6.0335 L 15.9256,-6.0657 L 15.9206,-6.0979 L 15.9156,-6.1301 L 15.9107,-6.1623 L 15.9057,-6.1945 L 15.9008,-6.2267 L 15.8958,-6.2589 L 15.8909,-6.2911 L 15.8859,-6.3233 L 15.8809,-6.3555 L 15.876,-6.3877 L 15.871,-6.4199 L 15.8661,-6.4521 L 15.8611,-6.4843 L 15.8562,-6.5165 L 15.8512,-6.5487 L 15.8463,-6.5809 L 15.8413,-6.6131 L 15.8363,-6.6453 L 15.8314,-6.6775 L 15.8264,-6.7097 L 15.8215,-6.7419 L 15.8165,-6.7741 L 15.8116,-6.8063 L 15.8066,-6.8385 L 15.8017,-6.8707 L 15.7967,-6.9029 L 15.7917,-6.9351 L 15.7868,-6.9673 L 15.7818,-6.9995 L 15.7769,-7.0317 L 15.7719,-7.0639 L 15.767,-7.0961 L 15.762,-7.1283 L 15.757,-7.1604 L 15.7521,-7.1926 L 15.7471,-7.2248 L 15.7422,-7.257 L 15.7372,-7.2892 L 15.7323,-7.3214 L 15.7273,-7.3536 L 15.7224,-7.3858 L 15.7174,-7.418 L 15.7124,-7.4502 L 15.7075,-7.4824 L 15.7025,-7.5146 L 15.6976,-7.5468 L 15.6926,-7.579 L 15.6877,-7.6112 L 15.6827,-7.6434 L 15.6778,-7.6756 L 15.6728,-7.7078 L 15.6678,-7.74 L 15.6629,-7.7722 L 15.6579,-7.8044 L 15.653,-7.8366 L 15.648,-7.8688 L 15.6431,-7.901 L 15.6381,-7.9332 L 15.6332,-7.9654 L 15.6282,-7.9976 L 15.6232,-8.0298 L 15.6183,-8.062 L 15.6133,-8.0942 L 15.6084,-8.1264 L 15.6034,-8.1586 L 15.5985,-8.1908 L 15.5935,-8.223 L 15.5885,-8.2552 L 15.5836,-8.2874" />
      <path d="M 17.5929,9.9596 L 17.6047,9.9596 L 17.6165,9.9596 L 17.6282,9.9596 L 17.64,9.9596 L 17.6518,9.9596 L 17.6635,9.9596 L 17.6753,9.9596 L 17.6871,9.9596 L 17.6989,9.9596 L 17.7106,9.9596 L 17.7224,9.9596 L 17.7342,9.9596 L 17.7459,9.9596 L 17.7577,9.9596 L 17.7695,9.9596 L 17.7813,9.9596 L 17.793,9.9596 L 17.8048,9.9596 L 17.8166,9.9596 L 17.8283,9.9596 L 17.8401,9.9596 L 17.8519,9.9596 L 17.8637,9.9596 L 17.8754,9.9596 L 17.8872,9.9596 L 17.899,9.9596 L 17.9108,9.9596 L 17.9225,9.9596 L 17.9343,9.9596 L 17.9461,9.9596 L 17.9578,9.9596 L 17.9696,9.9596 L 17.9814,9.9596 L 17.9932,9.9596 L 18.0049,9.9596 L 18.0167,9.9596 L 18.0285,9.9596 L 18.0402,9.9596 L 18.052,9.9596 L 18.0638,9.9596 L 18.0756,9.9596 L 18.0873,9.9596 L 18.0991,9.9596 L 18.1109,9.9596 L 18.1226,9.9596 L 18.1344,9.9596 L 18.1462,9.9596 L 18.158,9.9596 L 18.1697,9.9596 L 18.1815,9.9596 L 18.1933,9.9596 L 18.205,9.9596 L 18.2168,9.9596 L 18.2286,9.9596 L 18.2404,9.9596 L 18.2521,9.9596 L 18.2639,9.9596 L 18.2757,9.9596 L 18.2874,9.9596 L 18.2992,9.9596 L 18.311,9.9596 L 18.3228,9.9596 L 18.3345,9.9596 L 18.3463,9.9596 L 18.3581,9.9596 L 18.3699,9.9596 L 18.3816,9.9596 L 18.3934,9.9596 L 18.4052,9.9596 L 18.4169,9.9596 L 18.4287,9.9596 L 18.4405,9.9596" />
    </g>
    <g fill="none" stroke="rgb(0,0,0)" stroke-width="0.2" id="Center" stroke-dasharray="6.35 1.27 1.27 1.27">
      <line x1="0.2131" y1="0.3375" x2="-11.2888" y2="0.3375" />
      <line x1="0.2131" y1="0.3375" x2="11.715" y2="0.3375" />
      <line x1="0.2131" y1="0.3375" x2="0.2131" y2="-11.1218" />
      <line x1="0.2131" y1="0.3375" x2="0.2131" y2="11.7968" />
      <line x1="17.7361" y1="0.3365" x2="12.535" y2="0.3365" />
      <line x1="17.7361" y1="0.3365" x2="22.9372" y2="0.3365" />
    </g>
  </g>
</svg>