<?xml version='1.0' encoding='utf-8'?>
<svg width="32.8268mm" height="25.7439mm" viewBox="-12.2827 -13.0439 32.8268 25.7439" version="1.1" xmlns="http://www.w3.org/2000/svg">
  <g transform="scale(1,-1)" stroke-linecap="round">
    <g fill="none" stroke="rgb(0,0,0)" stroke-width="0.4" id="Visible">
      <path d="M 10.8426,1.25 L 10.8153,1.4599 L 10.7837,1.6692 L 10.748,1.8778 L 10.708,2.0857 L 10.6639,2.2927 L 10.6156,2.4988 L 10.5632,2.7039 L 10.5066,2.9078 L 10.4459,3.1106 L 10.3812,3.3121 L 10.3124,3.5123 L 10.2396,3.7111 L 10.1628,3.9083 L 10.082,4.104 L 9.9973,4.298 L 9.9088,4.4902 L 9.8163,4.6806 L 9.72,4.8691 L 9.62,5.0557 L 9.5162,5.2401 L 9.4087,5.4225 L 9.2976,5.6026 L 9.1829,5.7805 L 9.0646,5.956 L 8.9427,6.1291 L 8.8175,6.2997 L 8.6888,6.4678 L 8.5567,6.6332 L 8.4213,6.7959 L 8.2827,6.9559 L 8.1409,7.113 L 7.996,7.2673 L 7.8479,7.4186 L 7.6969,7.5669 L 7.5429,7.7121 L 7.386,7.8541 L 7.2262,7.993 L 7.0637,8.1286 L 6.8985,8.261 L 6.7307,8.3899 L 6.5603,8.5155 L 6.3874,8.6376 L 6.212,8.7562 L 6.0343,8.8712 L 5.8544,8.9826 L 5.6722,9.0904 L 5.4879,9.1945 L 5.3015,9.2948 L 5.1132,9.3914 L 4.9229,9.4842 L 4.7308,9.5731 L 4.537,9.6581 L 4.3414,9.7392 L 4.1443,9.8163 L 3.9457,9.8894 L 3.7456,9.9585 L 3.5442,10.0236 L 3.3415,10.0846 L 3.1376,10.1415 L 2.9326,10.1943 L 2.7266,10.2429 L 2.5197,10.2874 L 2.3119,10.3277 L 2.1033,10.3637 L 1.8941,10.3956 L 1.6842,10.4233 L 1.4738,10.4467 L 1.263,10.4659 L 1.0519,10.4808 L 0.8405,10.4915 L 0.6289,10.4979 L 0.4173,10.5" />
      <path d="M 0.4173,10.5 L -0.0407,10.49 L -0.4979,10.46 L -0.9532,10.4102 L -1.406,10.3405 L -1.8553,10.2511 L -2.3003,10.1422 L -2.7401,10.014 L -3.1739,9.8668 L -3.6009,9.7007 L -4.0202,9.5162 L -4.4311,9.3136 L -4.8327,9.0933 L -5.2244,8.8556 L -5.6053,8.6011 L -5.9747,8.3302 L -6.332,8.0435 L -6.6764,7.7414 L -7.0073,7.4246 L -7.3241,7.0937 L -7.6262,6.7493 L -7.9129,6.392 L -8.1838,6.0226 L -8.4383,5.6416 L -8.676,5.25 L -8.8963,4.8484 L -9.099,4.4375 L -9.2835,4.0182 L -9.4495,3.5912 L -9.5968,3.1574 L -9.7249,2.7176 L -9.8338,2.2726 L -9.9232,1.8233 L -9.9929,1.3705 L -10.0428,0.9151 L -10.0727,0.458 L -10.0827,0.0 L -10.0727,-0.458 L -10.0428,-0.9151 L -9.9929,-1.3705 L -9.9232,-1.8233 L -9.8338,-2.2726 L -9.7249,-2.7176 L -9.5968,-3.1574 L -9.4495,-3.5912 L -9.2835,-4.0182 L -9.099,-4.4375 L -8.8963,-4.8484 L -8.676,-5.25 L -8.4383,-5.6416 L -8.1838,-6.0226 L -7.9129,-6.392 L -7.6262,-6.7493 L -7.3241,-7.0937 L -7.0073,-7.4246 L -6.6764,-7.7414 L -6.332,-8.0435 L -5.9747,-8.3302 L -5.6053,-8.6011 L -5.2244,-8.8556 L -4.8327,-9.0933 L -4.4311,-9.3136 L -4.0202,-9.5162 L -3.6009,-9.7007 L -3.1739,-9.8668 L -2.7401,-10.014 L -2.3003,-10.1422 L -1.8553,-10.2511 L -1.406,-10.3405 L -0.9532,-10.4102 L -0.4979,-10.46 L -0.0407,-10.49 L 0.4173,-10.5" />
      <path d="M 0.4173,-10.5 L 0.6289,-10.4979 L 0.8405,-10.4915 L 1.0519,-10.4808 L 1.263,-10.4659 L 1.4738,-10.4467 L 1.6842,-10.4233 L 1.8941,-10.3956 L 2.1033,-10.3637 L 2.3119,-10.3277 L 2.5197,-10.2874 L 2.7266,-10.2429 L 2.9326,-10.1943 L 3.1376,-10.1415 L 3.3415,-10.0846 L 3.5442,-10.0236 L 3.7456,-9.9585 L 3.9457,-9.8894 L 4.1443,-9.8163 L 4.3414,-9.7392 L 4.537,-9.6581 L 4.7308,-9.5731 L 4.9229,-9.4842 L 5.1132,-9.3914 L 5.3015,-9.2948 L 5.4879,-9.1945 L 5.6722,-9.0904 L 5.8544,-8.9826 L 6.0343,-8.8712 L 6.212,-8.7562 L 6.3874,-8.6376 L 6.5603,-8.5155 L 6.7307,-8.3899 L 6.8985,-8.261 L 7.0637,-8.1286 L 7.2262,-7.993 L 7.386,-7.8541 L 7.5429,-7.7121 L 7.6969,-7.5669 L 7.8479,-7.4186 L 7.996,-7.2673 L 8.1409,-7.113 L 8.2827,-6.9559 L 8.4213,-6.7959 L 8.5567,-6.6332 L 8.6888,-6.4678 L 8.8175,-6.2997 L 8.9427,-6.1291 L 9.0646,-5.956 L 9.1829,-5.7805 L 9.2976,-5.6026 L 9.4087,-5.4225 L 9.5162,-5.2401 L 9.62,-5.0557 L 9.72,-4.8691 L 9.8163,-4.6806 L 9.9088,-4.4902 L 9.9973,-4.298 L 10.082,-4.104 L 10.1628,-3.9083 L 10.2396,-3.7111 L 10.3124,-3.5123 L 10.3812,-3.3121 L 10.4459,-3.1106 L 10.5066,-2.9078 L 10.5632,-2.7039 L 10.6156,-2.4988 L 10.6639,-2.2927 L 10.708,-2.0857 L 10.748,-1.8778 L 10.7837,-1.6692 L 10.8153,-1.4599 L 10.8426,-1.25" />
      <path d="M 10.8441,-1.25 L 10.844,-1.25 L 10.8439,-1.25 L 10.8438,-1.25 L 10.8437,-1.25 L 10.8436,-1.25 L 10.8435,-1.25 L 10.8434,-1.25 L 10.8433,-1.25 L 10.8432,-1.25 L 10.8431,-1.25 L 10.843,-1.25 L 10.8429,-1.25 L 10.8428,-1.25 L 10.8427,-1.25 L 10.8426,-1.25" />
      <path d="M 10.8441,1.25 L 10.8168,1.4599 L 10.7852,1.6692 L 10.7495,1.8778 L 10.7095,2.0857 L 10.6654,2.2927 L 10.6171,2.4988 L 10.5646,2.7039 L 10.5081,2.9078 L 10.4474,3.1106 L 10.3827,3.3121 L 10.3139,3.5123 L 10.2411,3.7111 L 10.1643,3.9083 L 10.0835,4.104 L 9.9988,4.298 L 9.9102,4.4902 L 9.8178,4.6806 L 9.7215,4.8691 L 9.6215,5.0557 L 9.5177,5.2401 L 9.4102,5.4225 L 9.2991,5.6026 L 9.1843,5.7805 L 9.066,5.956 L 8.9442,6.1291 L 8.8189,6.2997 L 8.6902,6.4678 L 8.5582,6.6332 L 8.4228,6.7959 L 8.2842,6.9559 L 8.1424,7.113 L 7.9974,7.2673 L 7.8494,7.4186 L 7.6983,7.5669 L 7.5443,7.7121 L 7.3874,7.8541 L 7.2277,7.993 L 7.0652,8.1286 L 6.9,8.261 L 6.7321,8.3899 L 6.5617,8.5155 L 6.3888,8.6376 L 6.2135,8.7562 L 6.0358,8.8712 L 5.8558,8.9826 L 5.6737,9.0904 L 5.4894,9.1945 L 5.303,9.2948 L 5.1146,9.3914 L 4.9244,9.4842 L 4.7323,9.5731 L 4.5384,9.6581 L 4.3429,9.7392 L 4.1458,9.8163 L 3.9471,9.8894 L 3.7471,9.9585 L 3.5457,10.0236 L 3.343,10.0846 L 3.1391,10.1415 L 2.9341,10.1943 L 2.7281,10.2429 L 2.5212,10.2874 L 2.3134,10.3277 L 2.1048,10.3637 L 1.8955,10.3956 L 1.6857,10.4233 L 1.4753,10.4467 L 1.2645,10.4659 L 1.0534,10.4808 L 0.842,10.4915 L 0.6304,10.4979 L 0.4187,10.5" />
      <path d="M 0.4187,-10.5 L 0.6304,-10.4979 L 0.842,-10.4915 L 1.0534,-10.4808 L 1.2645,-10.4659 L 1.4753,-10.4467 L 1.6857,-10.4233 L 1.8955,-10.3956 L 2.1048,-10.3637 L 2.3134,-10.3277 L 2.5212,-10.2874 L 2.7281,-10.2429 L 2.9341,-10.1943 L 3.1391,-10.1415 L 3.343,-10.0846 L 3.5457,-10.0236 L 3.7471,-9.9585 L 3.9471,-9.8894 L 4.1458,-9.8163 L 4.3429,-9.7392 L 4.5384,-9.6581 L 4.7323,-9.5731 L 4.9244,-9.4842 L 5.1146,-9.3914 L 5.303,-9.2948 L 5.4894,-9.1945 L 5.6737,-9.0904 L 5.8558,-8.9826 L 6.0358,-8.8712 L 6.2135,-8.7562 L 6.3888,-8.6376 L 6.5617,-8.5155 L 6.7321,-8.3899 L 6.9,-8.261 L 7.0652,-8.1286 L 7.2277,-7.993 L 7.3874,-7.8541 L 7.5443,-7.7121 L 7.6983,-7.5669 L 7.8494,-7.4186 L 7.9974,-7.2673 L 8.1424,-7.113 L 8.2842,-6.9559 L 8.4228,-6.7959 L 8.5582,-6.6332 L 8.6902,-6.4678 L 8.8189,-6.2997 L 8.9442,-6.1291 L 9.066,-5.956 L 9.1843,-5.7805 L 9.2991,-5.6026 L 9.4102,-5.4225 L 9.5177,-5.2401 L 9.6215,-5.0557 L 9.7215,-4.8691 L 9.8178,-4.6806 L 9.9102,-4.4902 L 9.9988,-4.298 L 10.0835,-4.104 L 10.1643,-3.9083 L 10.2411,-3.7111 L 10.3139,-3.5123 L 10.3827,-3.3121 L 10.4474,-3.1106 L 10.5081,-2.9078 L 10.5646,-2.7039 L 10.6171,-2.4988 L 10.6654,-2.2927 L 10.7095,-2.0857 L 10.7495,-1.8778 L 10.7852,-1.6692 L 10.8168,-1.4599 L 10.8441,-1.25" />
      <path d="M 10.8441,1.25 L 10.844,1.25 L 10.8439,1.25 L 10.8438,1.25 L 10.8437,1.25 L 10.8436,1.25 L 10.8435,1.25 L 10.8434,1.25 L 10.8433,1.25 L 10.8432,1.25 L 10.8431,1.25 L 10.843,1.25 L 10.8429,1.25 L 10.8428,1.25 L 10.8427,1.25 L 10.8426,1.25" />
      <path d="M 10.8426,1.25 L 10.7807,1.25 L 10.7189,1.25 L 10.657,1.25 L 10.5951,1.25 L 10.5332,1.25 L 10.4714,1.25 L 10.4095,1.25 L 10.3476,1.25 L 10.2858,1.25 L 10.2239,1.25 L 10.162,1.25 L 10.1001,1.25 L 10.0383,1.25 L 9.9764,1.25 L 9.9145,1.25 L 9.8527,1.25 L 9.7908,1.25 L 9.7289,1.25 L 9.667,1.25 L 9.6052,1.25 L 9.5433,1.25 L 9.4814,1.25 L 9.4196,1.25 L 9.3577,1.25 L 9.2958,1.25 L 9.2339,1.25 L 9.1721,1.25 L 9.1102,1.25 L 9.0483,1.25 L 8.9864,1.25 L 8.9246,1.25 L 8.8627,1.25 L 8.8008,1.25 L 8.739,1.25 L 8.6771,1.25 L 8.6152,1.25 L 8.5533,1.25 L 8.4915,1.25 L 8.4296,1.25 L 8.3677,1.25 L 8.3059,1.25 L 8.244,1.25 L 8.1821,1.25 L 8.1202,1.25 L 8.0584,1.25 L 7.9965,1.25 L 7.9346,1.25 L 7.8728,1.25 L 7.8109,1.25 L 7.749,1.25 L 7.6871,1.25 L 7.6253,1.25 L 7.5634,1.25 L 7.5015,1.25 L 7.4397,1.25 L 7.3778,1.25 L 7.3159,1.25 L 7.254,1.25 L 7.1922,1.25 L 7.1303,1.25 L 7.0684,1.25 L 7.0065,1.25 L 6.9447,1.25 L 6.8828,1.25 L 6.8209,1.25 L 6.7591,1.25 L 6.6972,1.25 L 6.6353,1.25 L 6.5734,1.25 L 6.5116,1.25 L 6.4497,1.25 L 6.3878,1.25" />
      <path d="M 6.3878,1.25 L 6.3631,1.3629 L 6.3362,1.4753 L 6.3072,1.5872 L 6.276,1.6986 L 6.2428,1.8093 L 6.2075,1.9193 L 6.17,2.0287 L 6.1306,2.1373 L 6.089,2.2452 L 6.0455,2.3523 L 5.9999,2.4585 L 5.9523,2.5639 L 5.9027,2.6683 L 5.8512,2.7718 L 5.7977,2.8742 L 5.7423,2.9757 L 5.6849,3.076 L 5.6257,3.1753 L 5.5646,3.2734 L 5.5016,3.3704 L 5.4368,3.4661 L 5.3703,3.5606 L 5.3019,3.6538 L 5.2318,3.7457 L 5.1599,3.8363 L 5.0864,3.9255 L 5.0112,4.0132 L 4.9343,4.0996 L 4.8558,4.1844 L 4.7757,4.2678 L 4.6941,4.3496 L 4.6109,4.4299 L 4.5262,4.5085 L 4.44,4.5856 L 4.3524,4.661 L 4.2634,4.7347 L 4.173,4.8067 L 4.0812,4.877 L 3.9881,4.9456 L 3.8938,5.0124 L 3.7982,5.0774 L 3.7014,5.1405 L 3.6034,5.2018 L 3.5042,5.2613 L 3.404,5.3188 L 3.3026,5.3744 L 3.2003,5.4282 L 3.0969,5.4799 L 2.9926,5.5297 L 2.8874,5.5775 L 2.7812,5.6233 L 2.6743,5.6671 L 2.5665,5.7089 L 2.4579,5.7486 L 2.3486,5.7862 L 2.2386,5.8217 L 2.128,5.8552 L 2.0167,5.8866 L 1.9049,5.9158 L 1.7925,5.943 L 1.6796,5.9679 L 1.5663,5.9908 L 1.4526,6.0115 L 1.3385,6.03 L 1.2241,6.0464 L 1.1094,6.0606 L 0.9944,6.0726 L 0.8792,6.0825 L 0.7639,6.0901 L 0.6484,6.0956 L 0.5329,6.0989 L 0.4173,6.1" />
      <path d="M 0.4173,6.1 L 0.1512,6.0942 L -0.1144,6.0768 L -0.3789,6.0478 L -0.642,6.0073 L -0.903,5.9554 L -1.1615,5.8921 L -1.417,5.8177 L -1.669,5.7321 L -1.9171,5.6357 L -2.1607,5.5285 L -2.3994,5.4108 L -2.6327,5.2828 L -2.8603,5.1447 L -3.0815,4.9968 L -3.2962,4.8395 L -3.5037,4.6729 L -3.7038,4.4974 L -3.8961,4.3134 L -4.0801,4.1211 L -4.2556,3.921 L -4.4222,3.7134 L -4.5796,3.4988 L -4.7274,3.2775 L -4.8655,3.05 L -4.9935,2.8167 L -5.1112,2.578 L -5.2184,2.3344 L -5.3148,2.0863 L -5.4004,1.8343 L -5.4749,1.5788 L -5.5381,1.3203 L -5.59,1.0593 L -5.6305,0.7962 L -5.6595,0.5317 L -5.6769,0.2661 L -5.6827,0.0 L -5.6769,-0.2661 L -5.6595,-0.5317 L -5.6305,-0.7962 L -5.59,-1.0593 L -5.5381,-1.3203 L -5.4749,-1.5788 L -5.4004,-1.8343 L -5.3148,-2.0863 L -5.2184,-2.3344 L -5.1112,-2.578 L -4.9935,-2.8167 L -4.8655,-3.05 L -4.7274,-3.2775 L -4.5796,-3.4988 L -4.4222,-3.7134 L -4.2556,-3.921 L -4.0801,-4.1211 L -3.8961,-4.3134 L -3.7038,-4.4974 L -3.5037,-4.6729 L -3.2962,-4.8395 L -3.0815,-4.9968 L -2.8603,-5.1447 L -2.6327,-5.2828 L -2.3994,-5.4108 L -2.1607,-5.5285 L -1.9171,-5.6357 L -1.669,-5.7321 L -1.417,-5.8177 L -1.1615,-5.8921 L -0.903,-5.9554 L -0.642,-6.0073 L -0.3789,-6.0478 L -0.1144,-6.0768 L 0.1512,-6.0942 L 0.4173,-6.1" />
      <path d="M 0.4173,-6.1 L 0.5329,-6.0989 L 0.6484,-6.0956 L 0.7639,-6.0901 L 0.8792,-6.0825 L 0.9944,-6.0726 L 1.1094,-6.0606 L 1.2241,-6.0464 L 1.3385,-6.03 L 1.4526,-6.0115 L 1.5663,-5.9908 L 1.6796,-5.9679 L 1.7925,-5.943 L 1.9049,-5.9158 L 2.0167,-5.8866 L 2.128,-5.8552 L 2.2386,-5.8217 L 2.3486,-5.7862 L 2.4579,-5.7486 L 2.5665,-5.7089 L 2.6743,-5.6671 L 2.7812,-5.6233 L 2.8874,-5.5775 L 2.9926,-5.5297 L 3.0969,-5.4799 L 3.2003,-5.4282 L 3.3026,-5.3744 L 3.404,-5.3188 L 3.5042,-5.2613 L 3.6034,-5.2018 L 3.7014,-5.1405 L 3.7982,-5.0774 L 3.8938,-5.0124 L 3.9881,-4.9456 L 4.0812,-4.877 L 4.173,-4.8067 L 4.2634,-4.7347 L 4.3524,-4.661 L 4.44,-4.5856 L 4.5262,-4.5085 L 4.6109,-4.4299 L 4.6941,-4.3496 L 4.7757,-4.2678 L 4.8558,-4.1844 L 4.9343,-4.0996 L 5.0112,-4.0132 L 5.0864,-3.9255 L 5.1599,-3.8363 L 5.2318,-3.7457 L 5.3019,-3.6538 L 5.3703,-3.5606 L 5.4368,-3.4661 L 5.5016,-3.3704 L 5.5646,-3.2734 L 5.6257,-3.1753 L 5.6849,-3.076 L 5.7423,-2.9757 L 5.7977,-2.8742 L 5.8512,-2.7718 L 5.9027,-2.6683 L 5.9523,-2.5639 L 5.9999,-2.4585 L 6.0455,-2.3523 L 6.089,-2.2452 L 6.1306,-2.1373 L 6.17,-2.0287 L 6.2075,-1.9193 L 6.2428,-1.8093 L 6.276,-1.6986 L 6.3072,-1.5872 L 6.3362,-1.4753 L 6.3631,-1.3629 L 6.3878,-1.25" />
      <path d="M 10.8426,-1.25 L 10.7807,-1.25 L 10.7189,-1.25 L 10.657,-1.25 L 10.5951,-1.25 L 10.5332,-1.25 L 10.4714,-1.25 L 10.4095,-1.25 L 10.3476,-1.25 L 10.2858,-1.25 L 10.2239,-1.25 L 10.162,-1.25 L 10.1001,-1.25 L 10.0383,-1.25 L 9.9764,-1.25 L 9.9145,-1.25 L 9.8527,-1.25 L 9.7908,-1.25 L 9.7289,-1.25 L 9.667,-1.25 L 9.6052,-1.25 L 9.5433,-1.25 L 9.4814,-1.25 L 9.4196,-1.25 L 9.3577,-1.25 L 9.2958,-1.25 L 9.2339,-1.25 L 9.1721,-1.25 L 9.1102,-1.25 L 9.0483,-1.25 L 8.9864,-1.25 L 8.9246,-1.25 L 8.8627,-1.25 L 8.8008,-1.25 L 8.739,-1.25 L 8.6771,-1.25 L 8.6152,-1.25 L 8.5533,-1.25 L 8.4915,-1.25 L 8.4296,-1.25 L 8.3677,-1.25 L 8.3059,-1.25 L 8.244,-1.25 L 8.1821,-1.25 L 8.1202,-1.25 L 8.0584,-1.25 L 7.9965,-1.25 L 7.9346,-1.25 L 7.8728,-1.25 L 7.8109,-1.25 L 7.749,-1.25 L 7.6871,-1.25 L 7.6253,-1.25 L 7.5634,-1.25 L 7.5015,-1.25 L 7.4397,-1.25 L 7.3778,-1.25 L 7.3159,-1.25 L 7.254,-1.25 L 7.1922,-1.25 L 7.1303,-1.25 L 7.0684,-1.25 L 7.0065,-1.25 L 6.9447,-1.25 L 6.8828,-1.25 L 6.8209,-1.25 L 6.7591,-1.25 L 6.6972,-1.25 L 6.6353,-1.25 L 6.5734,-1.25 L 6.5116,-1.25 L 6.4497,-1.25 L 6.3878,-1.25" />
      <path d="M 0.418,6.1 L 0.152,6.0942 L -0.1136,6.0767 L -0.3781,6.0477 L -0.6412,6.0072 L -0.9022,5.9553 L -1.1606,5.892 L -1.4161,5.8175 L -1.6681,5.7319 L -1.9161,5.6355 L -2.1597,5.5283 L -2.3984,5.4105 L -2.6317,5.2825 L -2.8592,5.1444 L -3.0804,4.9966 L -3.295,4.8392 L -3.5026,4.6726 L -3.7026,4.4971 L -3.8949,4.3131 L -4.0789,4.1208 L -4.2543,3.9208 L -4.4209,3.7132 L -4.5783,3.4986 L -4.7261,3.2773 L -4.8641,3.0498 L -4.9921,2.8165 L -5.1098,2.5778 L -5.217,2.3342 L -5.3134,2.0862 L -5.399,1.8342 L -5.4734,1.5787 L -5.5367,1.3202 L -5.5886,1.0592 L -5.6291,0.7961 L -5.6581,0.5316 L -5.6755,0.2661 L -5.6813,0.0 L -5.6755,-0.2661 L -5.6581,-0.5316 L -5.6291,-0.7961 L -5.5886,-1.0592 L -5.5367,-1.3202 L -5.4734,-1.5787 L -5.399,-1.8342 L -5.3134,-2.0862 L -5.217,-2.3342 L -5.1098,-2.5778 L -4.9921,-2.8165 L -4.8641,-3.0498 L -4.7261,-3.2773 L -4.5783,-3.4986 L -4.4209,-3.7132 L -4.2543,-3.9208 L -4.0789,-4.1208 L -3.8949,-4.3131 L -3.7026,-4.4971 L -3.5026,-4.6726 L -3.295,-4.8392 L -3.0804,-4.9966 L -2.8592,-5.1444 L -2.6317,-5.2825 L -2.3984,-5.4105 L -2.1597,-5.5283 L -1.9161,-5.6355 L -1.6681,-5.7319 L -1.4161,-5.8175 L -1.1606,-5.892 L -0.9022,-5.9553 L -0.6412,-6.0072 L -0.3781,-6.0477 L -0.1136,-6.0767 L 0.152,-6.0942 L 0.418,-6.1" />
      <path d="M 0.4187,10.5 L 0.4186,10.5 L 0.4185,10.5 L 0.4184,10.5 L 0.4183,10.5 L 0.4182,10.5 L 0.4181,10.5 L 0.418,10.5 L 0.4179,10.5 L 0.4178,10.5 L 0.4177,10.5 L 0.4176,10.5 L 0.4175,10.5 L 0.4174,10.5 L 0.4173,10.5" />
      <path d="M 0.4187,-10.5 L 0.4186,-10.5 L 0.4185,-10.5 L 0.4184,-10.5 L 0.4183,-10.5 L 0.4182,-10.5 L 0.4181,-10.5 L 0.418,-10.5 L 0.4179,-10.5 L 0.4178,-10.5 L 0.4177,-10.5 L 0.4176,-10.5 L 0.4175,-10.5 L 0.4174,-10.5 L 0.4173,-10.5" />
      <path d="M 14.8441,-10.082 L 14.8441,-9.7914 L 14.8441,-9.5007 L 14.8441,-9.2101 L 14.8441,-8.9195 L 14.8441,-8.6289 L 14.8441,-8.3383 L 14.8441,-8.0476 L 14.8441,-7.757 L 14.8441,-7.4664 L 14.8441,-7.1758 L 14.8441,-6.8851 L 14.8441,-6.5945 L 14.8441,-6.3039 L 14.8441,-6.0133 L 14.8441,-5.7227 L 14.8441,-5.432 L 14.8441,-5.1414 L 14.8441,-4.8508 L 14.8441,-4.5602 L 14.8441,-4.2695 L 14.8441,-3.9789 L 14.8441,-3.6883 L 14.8441,-3.3977 L 14.8441,-3.1071 L 14.8441,-2.8164 L 14.8441,-2.5258 L 14.8441,-2.2352 L 14.8441,-1.9446 L 14.8441,-1.6539 L 14.8441,-1.3633 L 14.8441,-1.0727 L 14.8441,-0.7821 L 14.8441,-0.4915 L 14.8441,-0.2008 L 14.8441,0.0898 L 14.8441,0.3804 L 14.8441,0.671 L 14.8441,0.9617 L 14.8441,1.2523 L 14.8441,1.5429 L 14.8441,1.8335 L 14.8441,2.1241 L 14.8441,2.4148 L 14.8441,2.7054 L 14.8441,2.996 L 14.8441,3.2866 L 14.8441,3.5773 L 14.8441,3.8679 L 14.8441,4.1585 L 14.8441,4.4491 L 14.8441,4.7397 L 14.8441,5.0304 L 14.8441,5.321 L 14.8441,5.6116 L 14.8441,5.9022 L 14.8441,6.1929 L 14.8441,6.4835 L 14.8441,6.7741 L 14.8441,7.0647 L 14.8441,7.3553 L 14.8441,7.646 L 14.8441,7.9366 L 14.8441,8.2272 L 14.8441,8.5178 L 14.8441,8.8085 L 14.8441,9.0991 L 14.8441,9.3897 L 14.8441,9.6803 L 14.8441,9.9709 L 14.8441,10.2616 L 14.8441,10.5522 L 14.8441,10.8428" />
      <path d="M 18.3441,10.8428 L 18.2955,10.8428 L 18.2468,10.8428 L 18.1982,10.8428 L 18.1496,10.8428 L 18.101,10.8428 L 18.0524,10.8428 L 18.0038,10.8428 L 17.9552,10.8428 L 17.9066,10.8428 L 17.858,10.8428 L 17.8093,10.8428 L 17.7607,10.8428 L 17.7121,10.8428 L 17.6635,10.8428 L 17.6149,10.8428 L 17.5663,10.8428 L 17.5177,10.8428 L 17.4691,10.8428 L 17.4205,10.8428 L 17.3718,10.8428 L 17.3232,10.8428 L 17.2746,10.8428 L 17.226,10.8428 L 17.1774,10.8428 L 17.1288,10.8428 L 17.0802,10.8428 L 17.0316,10.8428 L 16.983,10.8428 L 16.9343,10.8428 L 16.8857,10.8428 L 16.8371,10.8428 L 16.7885,10.8428 L 16.7399,10.8428 L 16.6913,10.8428 L 16.6427,10.8428 L 16.5941,10.8428 L 16.5455,10.8428 L 16.4968,10.8428 L 16.4482,10.8428 L 16.3996,10.8428 L 16.351,10.8428 L 16.3024,10.8428 L 16.2538,10.8428 L 16.2052,10.8428 L 16.1566,10.8428 L 16.108,10.8428 L 16.0593,10.8428 L 16.0107,10.8428 L 15.9621,10.8428 L 15.9135,10.8428 L 15.8649,10.8428 L 15.8163,10.8428 L 15.7677,10.8428 L 15.7191,10.8428 L 15.6705,10.8428 L 15.6218,10.8428 L 15.5732,10.8428 L 15.5246,10.8428 L 15.476,10.8428 L 15.4274,10.8428 L 15.3788,10.8428 L 15.3302,10.8428 L 15.2816,10.8428 L 15.233,10.8428 L 15.1843,10.8428 L 15.1357,10.8428 L 15.0871,10.8428 L 15.0385,10.8428 L 14.9899,10.8428 L 14.9413,10.8428 L 14.8927,10.8428 L 14.8441,10.8428" />
      <path d="M 18.3441,-10.082 L 18.3441,-9.7914 L 18.3441,-9.5007 L 18.3441,-9.2101 L 18.3441,-8.9195 L 18.3441,-8.6289 L 18.3441,-8.3383 L 18.3441,-8.0476 L 18.3441,-7.757 L 18.3441,-7.4664 L 18.3441,-7.1758 L 18.3441,-6.8851 L 18.3441,-6.5945 L 18.3441,-6.3039 L 18.3441,-6.0133 L 18.3441,-5.7227 L 18.3441,-5.432 L 18.3441,-5.1414 L 18.3441,-4.8508 L 18.3441,-4.5602 L 18.3441,-4.2695 L 18.3441,-3.9789 L 18.3441,-3.6883 L 18.3441,-3.3977 L 18.3441,-3.1071 L 18.3441,-2.8164 L 18.3441,-2.5258 L 18.3441,-2.2352 L 18.3441,-1.9446 L 18.3441,-1.6539 L 18.3441,-1.3633 L 18.3441,-1.0727 L 18.3441,-0.7821 L 18.3441,-0.4915 L 18.3441,-0.2008 L 18.3441,0.0898 L 18.3441,0.3804 L 18.3441,0.671 L 18.3441,0.9617 L 18.3441,1.2523 L 18.3441,1.5429 L 18.3441,1.8335 L 18.3441,2.1241 L 18.3441,2.4148 L 18.3441,2.7054 L 18.3441,2.996 L 18.3441,3.2866 L 18.3441,3.5773 L 18.3441,3.8679 L 18.3441,4.1585 L 18.3441,4.4491 L 18.3441,4.7397 L 18.3441,5.0304 L 18.3441,5.321 L 18.3441,5.6116 L 18.3441,5.9022 L 18.3441,6.1929 L 18.3441,6.4835 L 18.3441,6.7741 L 18.3441,7.0647 L 18.3441,7.3553 L 18.3441,7.646 L 18.3441,7.9366 L 18.3441,8.2272 L 18.3441,8.5178 L 18.3441,8.8085 L 18.3441,9.0991 L 18.3441,9.3897 L 18.3441,9.6803 L 18.3441,9.9709 L 18.3441,10.2616 L 18.3441,10.5522 L 18.3441,10.8428" />
      <path d="M 18.3441,10.8439 L 18.2955,10.8439 L 18.2468,10.8439 L 18.1982,10.8439 L 18.1496,10.8439 L 18.101,10.8439 L 18.0524,10.8439 L 18.0038,10.8439 L 17.9552,10.8439 L 17.9066,10.8439 L 17.858,10.8439 L 17.8093,10.8439 L 17.7607,10.8439 L 17.7121,10.8439 L 17.6635,10.8439 L 17.6149,10.8439 L 17.5663,10.8439 L 17.5177,10.8439 L 17.4691,10.8439 L 17.4205,10.8439 L 17.3718,10.8439 L 17.3232,10.8439 L 17.2746,10.8439 L 17.226,10.8439 L 17.1774,10.8439 L 17.1288,10.8439 L 17.0802,10.8439 L 17.0316,10.8439 L 16.983,10.8439 L 16.9343,10.8439 L 16.8857,10.8439 L 16.8371,10.8439 L 16.7885,10.8439 L 16.7399,10.8439 L 16.6913,10.8439 L 16.6427,10.8439 L 16.5941,10.8439 L 16.5455,10.8439 L 16.4968,10.8439 L 16.4482,10.8439 L 16.3996,10.8439 L 16.351,10.8439 L 16.3024,10.8439 L 16.2538,10.8439 L 16.2052,10.8439 L 16.1566,10.8439 L 16.108,10.8439 L 16.0593,10.8439 L 16.0107,10.8439 L 15.9621,10.8439 L 15.9135,10.8439 L 15.8649,10.8439 L 15.8163,10.8439 L 15.7677,10.8439 L 15.7191,10.8439 L 15.6705,10.8439 L 15.6218,10.8439 L 15.5732,10.8439 L 15.5246,10.8439 L 15.476,10.8439 L 15.4274,10.8439 L 15.3788,10.8439 L 15.3302,10.8439 L 15.2816,10.8439 L 15.233,10.8439 L 15.1843,10.8439 L 15.1357,10.8439 L 15.0871,10.8439 L 15.0385,10.8439 L 14.9899,10.8439 L 14.9413,10.8439 L 14.8927,10.8439 L 14.8441,10.8439" />
      <path d="M 14.8441,10.8439 L 14.8441,10.8438 L 14.8441,10.8437 L 14.8441,10.8436 L 14.8441,10.8435 L 14.8441,10.8434 L 14.8441,10.8433 L 14.8441,10.8432 L 14.8441,10.8431 L 14.8441,10.843 L 14.8441,10.8429 L 14.8441,10.8428" />
      <path d="M 18.3441,10.8439 L 18.3441,10.8438 L 18.3441,10.8437 L 18.3441,10.8436 L 18.3441,10.8435 L 18.3441,10.8434 L 18.3441,10.8433 L 18.3441,10.8432 L 18.3441,10.8431 L 18.3441,10.843 L 18.3441,10.8429 L 18.3441,10.8428" />
      <path d="M 18.3441,-10.082 L 18.2955,-10.082 L 18.2468,-10.082 L 18.1982,-10.082 L 18.1496,-10.082 L 18.101,-10.082 L 18.0524,-10.082 L 18.0038,-10.082 L 17.9552,-10.082 L 17.9066,-10.082 L 17.858,-10.082 L 17.8093,-10.082 L 17.7607,-10.082 L 17.7121,-10.082 L 17.6635,-10.082 L 17.6149,-10.082 L 17.5663,-10.082 L 17.5177,-10.082 L 17.4691,-10.082 L 17.4205,-10.082 L 17.3718,-10.082 L 17.3232,-10.082 L 17.2746,-10.082 L 17.226,-10.082 L 17.1774,-10.082 L 17.1288,-10.082 L 17.0802,-10.082 L 17.0316,-10.082 L 16.983,-10.082 L 16.9343,-10.082 L 16.8857,-10.082 L 16.8371,-10.082 L 16.7885,-10.082 L 16.7399,-10.082 L 16.6913,-10.082 L 16.6427,-10.082 L 16.5941,-10.082 L 16.5455,-10.082 L 16.4968,-10.082 L 16.4482,-10.082 L 16.3996,-10.082 L 16.351,-10.082 L 16.3024,-10.082 L 16.2538,-10.082 L 16.2052,-10.082 L 16.1566,-10.082 L 16.108,-10.082 L 16.0593,-10.082 L 16.0107,-10.082 L 15.9621,-10.082 L 15.9135,-10.082 L 15.8649,-10.082 L 15.8163,-10.082 L 15.7677,-10.082 L 15.7191,-10.082 L 15.6705,-10.082 L 15.6218,-10.082 L 15.5732,-10.082 L 15.5246,-10.082 L 15.476,-10.082 L 15.4274,-10.082 L 15.3788,-10.082 L 15.3302,-10.082 L 15.2816,-10.082 L 15.233,-10.082 L 15.1843,-10.082 L 15.1357,-10.082 L 15.0871,-10.082 L 15.0385,-10.082 L 14.9899,-10.082 L 14.9413,-10.082 L 14.8927,-10.082 L 14.8441,-10.082" />
    </g>
    <g fill="none" stroke="rgb(110,110,110)" stroke-width="0.3" id="Hidden" stroke-dasharray="3.6 0.9">
      <path d="M 0.4187,10.5 L -0.0393,10.49 L -0.4964,10.46 L -0.9518,10.4102 L -1.4046,10.3405 L -1.8539,10.2511 L -2.2989,10.1422 L -2.7387,10.014 L -3.1725,9.8668 L -3.5994,9.7007 L -4.0188,9.5162 L -4.4296,9.3136 L -4.8313,9.0933 L -5.2229,8.8556 L -5.6038,8.6011 L -5.9733,8.3302 L -6.3305,8.0435 L -6.675,7.7414 L -7.0059,7.4246 L -7.3227,7.0937 L -7.6247,6.7493 L -7.9115,6.392 L -8.1824,6.0226 L -8.4369,5.6416 L -8.6745,5.25 L -8.8949,4.8484 L -9.0975,4.4375 L -9.282,4.0182 L -9.448,3.5912 L -9.5953,3.1574 L -9.7235,2.7176 L -9.8324,2.2726 L -9.9217,1.8233 L -9.9914,1.3705 L -10.0413,0.9151 L -10.0713,0.458 L -10.0813,0.0 L -10.0713,-0.458 L -10.0413,-0.9151 L -9.9914,-1.3705 L -9.9217,-1.8233 L -9.8324,-2.2726 L -9.7235,-2.7176 L -9.5953,-3.1574 L -9.448,-3.5912 L -9.282,-4.0182 L -9.0975,-4.4375 L -8.8949,-4.8484 L -8.6745,-5.25 L -8.4369,-5.6416 L -8.1824,-6.0226 L -7.9115,-6.392 L -7.6247,-6.7493 L -7.3227,-7.0937 L -7.0059,-7.4246 L -6.675,-7.7414 L -6.3305,-8.0435 L -5.9733,-8.3302 L -5.6038,-8.6011 L -5.2229,-8.8556 L -4.8313,-9.0933 L -4.4296,-9.3136 L -4.0188,-9.5162 L -3.5994,-9.7007 L -3.1725,-9.8668 L -2.7387,-10.014 L -2.2989,-10.1422 L -1.8539,-10.2511 L -1.4046,-10.3405 L -0.9518,-10.4102 L -0.4964,-10.46 L -0.0393,-10.49 L 0.4187,-10.5" />
      <path d="M 6.3893,-1.25 L 6.3892,-1.25 L 6.3891,-1.25 L 6.389,-1.25 L 6.3889,-1.25 L 6.3888,-1.25 L 6.3887,-1.25 L 6.3886,-1.25 L 6.3885,-1.25 L 6.3884,-1.25 L 6.3883,-1.25 L 6.3882,-1.25 L 6.3881,-1.25 L 6.388,-1.25 L 6.3879,-1.25 L 6.3878,-1.25" />
      <path d="M 10.8441,-1.25 L 10.7822,-1.25 L 10.7203,-1.25 L 10.6585,-1.25 L 10.5966,-1.25 L 10.5347,-1.25 L 10.4728,-1.25 L 10.411,-1.25 L 10.3491,-1.25 L 10.2872,-1.25 L 10.2253,-1.25 L 10.1635,-1.25 L 10.1016,-1.25 L 10.0397,-1.25 L 9.9779,-1.25 L 9.916,-1.25 L 9.8541,-1.25 L 9.7922,-1.25 L 9.7304,-1.25 L 9.6685,-1.25 L 9.6066,-1.25 L 9.5448,-1.25 L 9.4829,-1.25 L 9.421,-1.25 L 9.3591,-1.25 L 9.2973,-1.25 L 9.2354,-1.25 L 9.1735,-1.25 L 9.1117,-1.25 L 9.0498,-1.25 L 8.9879,-1.25 L 8.926,-1.25 L 8.8642,-1.25 L 8.8023,-1.25 L 8.7404,-1.25 L 8.6786,-1.25 L 8.6167,-1.25 L 8.5548,-1.25 L 8.4929,-1.25 L 8.4311,-1.25 L 8.3692,-1.25 L 8.3073,-1.25 L 8.2454,-1.25 L 8.1836,-1.25 L 8.1217,-1.25 L 8.0598,-1.25 L 7.998,-1.25 L 7.9361,-1.25 L 7.8742,-1.25 L 7.8123,-1.25 L 7.7505,-1.25 L 7.6886,-1.25 L 7.6267,-1.25 L 7.5649,-1.25 L 7.503,-1.25 L 7.4411,-1.25 L 7.3792,-1.25 L 7.3174,-1.25 L 7.2555,-1.25 L 7.1936,-1.25 L 7.1318,-1.25 L 7.0699,-1.25 L 7.008,-1.25 L 6.9461,-1.25 L 6.8843,-1.25 L 6.8224,-1.25 L 6.7605,-1.25 L 6.6987,-1.25 L 6.6368,-1.25 L 6.5749,-1.25 L 6.513,-1.25 L 6.4512,-1.25 L 6.3893,-1.25" />
      <path d="M 10.8441,1.25 L 10.7822,1.25 L 10.7203,1.25 L 10.6585,1.25 L 10.5966,1.25 L 10.5347,1.25 L 10.4728,1.25 L 10.411,1.25 L 10.3491,1.25 L 10.2872,1.25 L 10.2253,1.25 L 10.1635,1.25 L 10.1016,1.25 L 10.0397,1.25 L 9.9779,1.25 L 9.916,1.25 L 9.8541,1.25 L 9.7922,1.25 L 9.7304,1.25 L 9.6685,1.25 L 9.6066,1.25 L 9.5448,1.25 L 9.4829,1.25 L 9.421,1.25 L 9.3591,1.25 L 9.2973,1.25 L 9.2354,1.25 L 9.1735,1.25 L 9.1117,1.25 L 9.0498,1.25 L 8.9879,1.25 L 8.926,1.25 L 8.8642,1.25 L 8.8023,1.25 L 8.7404,1.25 L 8.6786,1.25 L 8.6167,1.25 L 8.5548,1.25 L 8.4929,1.25 L 8.4311,1.25 L 8.3692,1.25 L 8.3073,1.25 L 8.2454,1.25 L 8.1836,1.25 L 8.1217,1.25 L 8.0598,1.25 L 7.998,1.25 L 7.9361,1.25 L 7.8742,1.25 L 7.8123,1.25 L 7.7505,1.25 L 7.6886,1.25 L 7.6267,1.25 L 7.5649,1.25 L 7.503,1.25 L 7.4411,1.25 L 7.3792,1.25 L 7.3174,1.25 L 7.2555,1.25 L 7.1936,1.25 L 7.1318,1.25 L 7.0699,1.25 L 7.008,1.25 L 6.9461,1.25 L 6.8843,1.25 L 6.8224,1.25 L 6.7605,1.25 L 6.6987,1.25 L 6.6368,1.25 L 6.5749,1.25 L 6.513,1.25 L 6.4512,1.25 L 6.3893,1.25" />
      <path d="M 6.3893,1.25 L 6.3645,1.3629 L 6.3376,1.4753 L 6.3086,1.5872 L 6.2775,1.6986 L 6.2442,1.8093 L 6.2089,1.9193 L 6.1715,2.0287 L 6.132,2.1373 L 6.0905,2.2452 L 6.0469,2.3523 L 6.0014,2.4585 L 5.9538,2.5639 L 5.9042,2.6683 L 5.8526,2.7718 L 5.7992,2.8742 L 5.7437,2.9757 L 5.6864,3.076 L 5.6271,3.1753 L 5.566,3.2734 L 5.5031,3.3704 L 5.4383,3.4661 L 5.3717,3.5606 L 5.3034,3.6538 L 5.2333,3.7457 L 5.1614,3.8363 L 5.0879,3.9255 L 5.0126,4.0132 L 4.9358,4.0996 L 4.8573,4.1844 L 4.7772,4.2678 L 4.6955,4.3496 L 4.6123,4.4299 L 4.5277,4.5085 L 4.4415,4.5856 L 4.3539,4.661 L 4.2648,4.7347 L 4.1744,4.8067 L 4.0827,4.877 L 3.9896,4.9456 L 3.8952,5.0124 L 3.7996,5.0774 L 3.7028,5.1405 L 3.6048,5.2018 L 3.5057,5.2613 L 3.4054,5.3188 L 3.3041,5.3744 L 3.2018,5.4282 L 3.0984,5.4799 L 2.9941,5.5297 L 2.8888,5.5775 L 2.7827,5.6233 L 2.6757,5.6671 L 2.5679,5.7089 L 2.4594,5.7486 L 2.3501,5.7862 L 2.2401,5.8217 L 2.1294,5.8552 L 2.0182,5.8866 L 1.9063,5.9158 L 1.794,5.943 L 1.6811,5.9679 L 1.5678,5.9908 L 1.4541,6.0115 L 1.34,6.03 L 1.2255,6.0464 L 1.1108,6.0606 L 0.9959,6.0726 L 0.8807,6.0825 L 0.7653,6.0901 L 0.6499,6.0956 L 0.5343,6.0989 L 0.4187,6.1" />
      <path d="M 0.4187,6.1 L 0.4186,6.1 L 0.4185,6.1 L 0.4184,6.1 L 0.4183,6.1 L 0.4182,6.1 L 0.4181,6.1 L 0.418,6.1" />
      <path d="M 0.418,-6.1 L 0.4181,-6.1 L 0.4182,-6.1 L 0.4183,-6.1 L 0.4184,-6.1 L 0.4185,-6.1 L 0.4186,-6.1 L 0.4187,-6.1" />
      <path d="M 0.4187,-6.1 L 0.5343,-6.0989 L 0.6499,-6.0956 L 0.7653,-6.0901 L 0.8807,-6.0825 L 0.9959,-6.0726 L 1.1108,-6.0606 L 1.2255,-6.0464 L 1.34,-6.03 L 1.4541,-6.0115 L 1.5678,-5.9908 L 1.6811,-5.9679 L 1.794,-5.943 L 1.9063,-5.9158 L 2.0182,-5.8866 L 2.1294,-5.8552 L 2.2401,-5.8217 L 2.3501,-5.7862 L 2.4594,-5.7486 L 2.5679,-5.7089 L 2.6757,-5.6671 L 2.7827,-5.6233 L 2.8888,-5.5775 L 2.9941,-5.5297 L 3.0984,-5.4799 L 3.2018,-5.4282 L 3.3041,-5.3744 L 3.4054,-5.3188 L 3.5057,-5.2613 L 3.6048,-5.2018 L 3.7028,-5.1405 L 3.7996,-5.0774 L 3.8952,-5.0124 L 3.9896,-4.9456 L 4.0827,-4.877 L 4.1744,-4.8067 L 4.2648,-4.7347 L 4.3539,-4.661 L 4.4415,-4.5856 L 4.5277,-4.5085 L 4.6123,-4.4299 L 4.6955,-4.3496 L 4.7772,-4.2678 L 4.8573,-4.1844 L 4.9358,-4.0996 L 5.0126,-4.0132 L 5.0879,-3.9255 L 5.1614,-3.8363 L 5.2333,-3.7457 L 5.3034,-3.6538 L 5.3717,-3.5606 L 5.4383,-3.4661 L 5.5031,-3.3704 L 5.566,-3.2734 L 5.6271,-3.1753 L 5.6864,-3.076 L 5.7437,-2.9757 L 5.7992,-2.8742 L 5.8526,-2.7718 L 5.9042,-2.6683 L 5.9538,-2.5639 L 6.0014,-2.4585 L 6.0469,-2.3523 L 6.0905,-2.2452 L 6.132,-2.1373 L 6.1715,-2.0287 L 6.2089,-1.9193 L 6.2442,-1.8093 L 6.2775,-1.6986 L 6.3086,-1.5872 L 6.3376,-1.4753 L 6.3645,-1.3629 L 6.3893,-1.25" />
      <path d="M 6.3893,1.25 L 6.3892,1.25 L 6.3891,1.25 L 6.389,1.25 L 6.3889,1.25 L 6.3888,1.25 L 6.3887,1.25 L 6.3886,1.25 L 6.3885,1.25 L 6.3884,1.25 L 6.3883,1.25 L 6.3882,1.25 L 6.3881,1.25 L 6.388,1.25 L 6.3879,1.25 L 6.3878,1.25" />
      <path d="M 0.4187,6.1 L 0.4186,6.1 L 0.4185,6.1 L 0.4184,6.1 L 0.4183,6.1 L 0.4182,6.1 L 0.4181,6.1 L 0.418,6.1 L 0.4179,6.1 L 0.4178,6.1 L 0.4177,6.1 L 0.4176,6.1 L 0.4175,6.1 L 0.4174,6.1 L 0.4173,6.1" />
      <path d="M 0.4187,-6.1 L 0.4186,-6.1 L 0.4185,-6.1 L 0.4184,-6.1 L 0.4183,-6.1 L 0.4182,-6.1 L 0.4181,-6.1 L 0.418,-6.1 L 0.4179,-6.1 L 0.4178,-6.1 L 0.4177,-6.1 L 0.4176,-6.1 L 0.4175,-6.1 L 0.4174,-6.1 L 0.4173,-6.1" />
      <path d="M 14.8441,10.8439 L 14.8441,10.5532 L 14.8441,10.2626 L 14.8441,9.9719 L 14.8441,9.6813 L 14.8441,9.3907 L 14.8441,9.1 L 14.8441,8.8094 L 14.8441,8.5188 L 14.8441,8.2281 L 14.8441,7.9375 L 14.8441,7.6469 L 14.8441,7.3562 L 14.8441,7.0656 L 14.8441,6.7749 L 14.8441,6.4843 L 14.8441,6.1937 L 14.8441,5.903 L 14.8441,5.6124 L 14.8441,5.3218 L 14.8441,5.0311 L 14.8441,4.7405 L 14.8441,4.4498 L 14.8441,4.1592 L 14.8441,3.8686 L 14.8441,3.5779 L 14.8441,3.2873 L 14.8441,2.9967 L 14.8441,2.706 L 14.8441,2.4154 L 14.8441,2.1248 L 14.8441,1.8341 L 14.8441,1.5435 L 14.8441,1.2528 L 14.8441,0.9622 L 14.8441,0.6716 L 14.8441,0.3809 L 14.8441,0.0903 L 14.8441,-0.2003 L 14.8441,-0.491 L 14.8441,-0.7816 L 14.8441,-1.0723 L 14.8441,-1.3629 L 14.8441,-1.6535 L 14.8441,-1.9442 L 14.8441,-2.2348 L 14.8441,-2.5254 L 14.8441,-2.8161 L 14.8441,-3.1067 L 14.8441,-3.3973 L 14.8441,-3.688 L 14.8441,-3.9786 L 14.8441,-4.2693 L 14.8441,-4.5599 L 14.8441,-4.8505 L 14.8441,-5.1412 L 14.8441,-5.4318 L 14.8441,-5.7224 L 14.8441,-6.0131 L 14.8441,-6.3037 L 14.8441,-6.5943 L 14.8441,-6.885 L 14.8441,-7.1756 L 14.8441,-7.4663 L 14.8441,-7.7569 L 14.8441,-8.0475 L 14.8441,-8.3382 L 14.8441,-8.6288 L 14.8441,-8.9194 L 14.8441,-9.2101 L 14.8441,-9.5007 L 14.8441,-9.7914 L 14.8441,-10.082" />
      <path d="M 18.3441,10.8439 L 18.3441,10.5532 L 18.3441,10.2626 L 18.3441,9.9719 L 18.3441,9.6813 L 18.3441,9.3907 L 18.3441,9.1 L 18.3441,8.8094 L 18.3441,8.5188 L 18.3441,8.2281 L 18.3441,7.9375 L 18.3441,7.6469 L 18.3441,7.3562 L 18.3441,7.0656 L 18.3441,6.7749 L 18.3441,6.4843 L 18.3441,6.1937 L 18.3441,5.903 L 18.3441,5.6124 L 18.3441,5.3218 L 18.3441,5.0311 L 18.3441,4.7405 L 18.3441,4.4498 L 18.3441,4.1592 L 18.3441,3.8686 L 18.3441,3.5779 L 18.3441,3.2873 L 18.3441,2.9967 L 18.3441,2.706 L 18.3441,2.4154 L 18.3441,2.1248 L 18.3441,1.8341 L 18.3441,1.5435 L 18.3441,1.2528 L 18.3441,0.9622 L 18.3441,0.6716 L 18.3441,0.3809 L 18.3441,0.0903 L 18.3441,-0.2003 L 18.3441,-0.491 L 18.3441,-0.7816 L 18.3441,-1.0723 L 18.3441,-1.3629 L 18.3441,-1.6535 L 18.3441,-1.9442 L 18.3441,-2.2348 L 18.3441,-2.5254 L 18.3441,-2.8161 L 18.3441,-3.1067 L 18.3441,-3.3973 L 18.3441,-3.688 L 18.3441,-3.9786 L 18.3441,-4.2693 L 18.3441,-4.5599 L 18.3441,-4.8505 L 18.3441,-5.1412 L 18.3441,-5.4318 L 18.3441,-5.7224 L 18.3441,-6.0131 L 18.3441,-6.3037 L 18.3441,-6.5943 L 18.3441,-6.885 L 18.3441,-7.1756 L 18.3441,-7.4663 L 18.3441,-7.7569 L 18.3441,-8.0475 L 18.3441,-8.3382 L 18.3441,-8.6288 L 18.3441,-8.9194 L 18.3441,-9.2101 L 18.3441,-9.5007 L 18.3441,-9.7914 L 18.3441,-10.082" />
      <path d="M 14.8441,10.8428 L 14.8441,10.781 L 14.8441,10.7191 L 14.8441,10.6572 L 14.8441,10.5954 L 14.8441,10.5335 L 14.8441,10.4717 L 14.8441,10.4098 L 14.8441,10.348 L 14.8441,10.2861 L 14.8441,10.2242 L 14.8441,10.1624 L 14.8441,10.1005 L 14.8441,10.0387 L 14.8441,9.9768 L 14.8441,9.915 L 14.8441,9.8531 L 14.8441,9.7912 L 14.8441,9.7294 L 14.8441,9.6675 L 14.8441,9.6057 L 14.8441,9.5438 L 14.8441,9.482 L 14.8441,9.4201 L 14.8441,9.3582 L 14.8441,9.2964 L 14.8441,9.2345 L 14.8441,9.1727 L 14.8441,9.1108 L 14.8441,9.049 L 14.8441,8.9871 L 14.8441,8.9252 L 14.8441,8.8634 L 14.8441,8.8015 L 14.8441,8.7397 L 14.8441,8.6778 L 14.8441,8.6159 L 14.8441,8.5541 L 14.8441,8.4922 L 14.8441,8.4304 L 14.8441,8.3685 L 14.8441,8.3067 L 14.8441,8.2448 L 14.8441,8.1829 L 14.8441,8.1211 L 14.8441,8.0592 L 14.8441,7.9974 L 14.8441,7.9355 L 14.8441,7.8737 L 14.8441,7.8118 L 14.8441,7.7499 L 14.8441,7.6881 L 14.8441,7.6262 L 14.8441,7.5644 L 14.8441,7.5025 L 14.8441,7.4407 L 14.8441,7.3788 L 14.8441,7.3169 L 14.8441,7.2551 L 14.8441,7.1932 L 14.8441,7.1314 L 14.8441,7.0695 L 14.8441,7.0077 L 14.8441,6.9458 L 14.8441,6.8839 L 14.8441,6.8221 L 14.8441,6.7602 L 14.8441,6.6984 L 14.8441,6.6365 L 14.8441,6.5747 L 14.8441,6.5128 L 14.8441,6.4509 L 14.8441,6.3891" />
      <path d="M 14.8441,6.3891 L 14.8441,6.2214 L 14.8441,6.0538 L 14.8441,5.8861 L 14.8441,5.7185 L 14.8441,5.5508 L 14.8441,5.3832 L 14.8441,5.2155 L 14.8441,5.0479 L 14.8441,4.8802 L 14.8441,4.7125 L 14.8441,4.5449 L 14.8441,4.3772 L 14.8441,4.2096 L 14.8441,4.0419 L 14.8441,3.8743 L 14.8441,3.7066 L 14.8441,3.539 L 14.8441,3.3713 L 14.8441,3.2037 L 14.8441,3.036 L 14.8441,2.8684 L 14.8441,2.7007 L 14.8441,2.533 L 14.8441,2.3654 L 14.8441,2.1977 L 14.8441,2.0301 L 14.8441,1.8624 L 14.8441,1.6948 L 14.8441,1.5271 L 14.8441,1.3595 L 14.8441,1.1918 L 14.8441,1.0242 L 14.8441,0.8565 L 14.8441,0.6889 L 14.8441,0.5212 L 14.8441,0.3535 L 14.8441,0.1859 L 14.8441,0.0182 L 14.8441,-0.1494 L 14.8441,-0.3171 L 14.8441,-0.4847 L 14.8441,-0.6524 L 14.8441,-0.82 L 14.8441,-0.9877 L 14.8441,-1.1553 L 14.8441,-1.323 L 14.8441,-1.4906 L 14.8441,-1.6583 L 14.8441,-1.826 L 14.8441,-1.9936 L 14.8441,-2.1613 L 14.8441,-2.3289 L 14.8441,-2.4966 L 14.8441,-2.6642 L 14.8441,-2.8319 L 14.8441,-2.9995 L 14.8441,-3.1672 L 14.8441,-3.3348 L 14.8441,-3.5025 L 14.8441,-3.6701 L 14.8441,-3.8378 L 14.8441,-4.0055 L 14.8441,-4.1731 L 14.8441,-4.3408 L 14.8441,-4.5084 L 14.8441,-4.6761 L 14.8441,-4.8437 L 14.8441,-5.0114 L 14.8441,-5.179 L 14.8441,-5.3467 L 14.8441,-5.5143 L 14.8441,-5.682" />
      <path d="M 14.8441,-5.682 L 14.8441,-5.5144 L 14.8441,-5.3467 L 14.8441,-5.1791 L 14.8441,-5.0114 L 14.8441,-4.8438 L 14.8441,-4.6762 L 14.8441,-4.5085 L 14.8441,-4.3409 L 14.8441,-4.1732 L 14.8441,-4.0056 L 14.8441,-3.838 L 14.8441,-3.6703 L 14.8441,-3.5027 L 14.8441,-3.335 L 14.8441,-3.1674 L 14.8441,-2.9998 L 14.8441,-2.8321 L 14.8441,-2.6645 L 14.8441,-2.4968 L 14.8441,-2.3292 L 14.8441,-2.1616 L 14.8441,-1.9939 L 14.8441,-1.8263 L 14.8441,-1.6586 L 14.8441,-1.491 L 14.8441,-1.3234 L 14.8441,-1.1557 L 14.8441,-0.9881 L 14.8441,-0.8205 L 14.8441,-0.6528 L 14.8441,-0.4852 L 14.8441,-0.3175 L 14.8441,-0.1499 L 14.8441,0.0177 L 14.8441,0.1854 L 14.8441,0.353 L 14.8441,0.5207 L 14.8441,0.6883 L 14.8441,0.8559 L 14.8441,1.0236 L 14.8441,1.1912 L 14.8441,1.3589 L 14.8441,1.5265 L 14.8441,1.6941 L 14.8441,1.8618 L 14.8441,2.0294 L 14.8441,2.1971 L 14.8441,2.3647 L 14.8441,2.5323 L 14.8441,2.7 L 14.8441,2.8676 L 14.8441,3.0353 L 14.8441,3.2029 L 14.8441,3.3705 L 14.8441,3.5382 L 14.8441,3.7058 L 14.8441,3.8734 L 14.8441,4.0411 L 14.8441,4.2087 L 14.8441,4.3764 L 14.8441,4.544 L 14.8441,4.7116 L 14.8441,4.8793 L 14.8441,5.0469 L 14.8441,5.2146 L 14.8441,5.3822 L 14.8441,5.5498 L 14.8441,5.7175 L 14.8441,5.8851 L 14.8441,6.0528 L 14.8441,6.2204 L 14.8441,6.388" />
      <path d="M 14.8441,10.8428 L 14.8441,10.7809 L 14.8441,10.7191 L 14.8441,10.6572 L 14.8441,10.5953 L 14.8441,10.5335 L 14.8441,10.4716 L 14.8441,10.4097 L 14.8441,10.3478 L 14.8441,10.286 L 14.8441,10.2241 L 14.8441,10.1622 L 14.8441,10.1004 L 14.8441,10.0385 L 14.8441,9.9766 L 14.8441,9.9147 L 14.8441,9.8529 L 14.8441,9.791 L 14.8441,9.7291 L 14.8441,9.6672 L 14.8441,9.6054 L 14.8441,9.5435 L 14.8441,9.4816 L 14.8441,9.4198 L 14.8441,9.3579 L 14.8441,9.296 L 14.8441,9.2341 L 14.8441,9.1723 L 14.8441,9.1104 L 14.8441,9.0485 L 14.8441,8.9867 L 14.8441,8.9248 L 14.8441,8.8629 L 14.8441,8.801 L 14.8441,8.7392 L 14.8441,8.6773 L 14.8441,8.6154 L 14.8441,8.5536 L 14.8441,8.4917 L 14.8441,8.4298 L 14.8441,8.3679 L 14.8441,8.3061 L 14.8441,8.2442 L 14.8441,8.1823 L 14.8441,8.1205 L 14.8441,8.0586 L 14.8441,7.9967 L 14.8441,7.9348 L 14.8441,7.873 L 14.8441,7.8111 L 14.8441,7.7492 L 14.8441,7.6873 L 14.8441,7.6255 L 14.8441,7.5636 L 14.8441,7.5017 L 14.8441,7.4399 L 14.8441,7.378 L 14.8441,7.3161 L 14.8441,7.2542 L 14.8441,7.1924 L 14.8441,7.1305 L 14.8441,7.0686 L 14.8441,7.0068 L 14.8441,6.9449 L 14.8441,6.883 L 14.8441,6.8211 L 14.8441,6.7593 L 14.8441,6.6974 L 14.8441,6.6355 L 14.8441,6.5737 L 14.8441,6.5118 L 14.8441,6.4499 L 14.8441,6.388" />
      <path d="M 18.3441,6.388 L 18.2955,6.388 L 18.2468,6.388 L 18.1982,6.388 L 18.1496,6.388 L 18.101,6.388 L 18.0524,6.388 L 18.0038,6.388 L 17.9552,6.388 L 17.9066,6.388 L 17.858,6.388 L 17.8093,6.388 L 17.7607,6.388 L 17.7121,6.388 L 17.6635,6.388 L 17.6149,6.388 L 17.5663,6.388 L 17.5177,6.388 L 17.4691,6.388 L 17.4205,6.388 L 17.3718,6.388 L 17.3232,6.388 L 17.2746,6.388 L 17.226,6.388 L 17.1774,6.388 L 17.1288,6.388 L 17.0802,6.388 L 17.0316,6.388 L 16.983,6.388 L 16.9343,6.388 L 16.8857,6.388 L 16.8371,6.388 L 16.7885,6.388 L 16.7399,6.388 L 16.6913,6.388 L 16.6427,6.388 L 16.5941,6.388 L 16.5455,6.388 L 16.4968,6.388 L 16.4482,6.388 L 16.3996,6.388 L 16.351,6.388 L 16.3024,6.388 L 16.2538,6.388 L 16.2052,6.388 L 16.1566,6.388 L 16.108,6.388 L 16.0593,6.388 L 16.0107,6.388 L 15.9621,6.388 L 15.9135,6.388 L 15.8649,6.388 L 15.8163,6.388 L 15.7677,6.388 L 15.7191,6.388 L 15.6705,6.388 L 15.6218,6.388 L 15.5732,6.388 L 15.5246,6.388 L 15.476,6.388 L 15.4274,6.388 L 15.3788,6.388 L 15.3302,6.388 L 15.2816,6.388 L 15.233,6.388 L 15.1843,6.388 L 15.1357,6.388 L 15.0871,6.388 L 15.0385,6.388 L 14.9899,6.388 L 14.9413,6.388 L 14.8927,6.388 L 14.8441,6.388" />
      <path d="M 18.3441,10.8428 L 18.3441,10.7809 L 18.3441,10.7191 L 18.3441,10.6572 L 18.3441,10.5953 L 18.3441,10.5335 L 18.3441,10.4716 L 18.3441,10.4097 L 18.3441,10.3478 L 18.3441,10.286 L 18.3441,10.2241 L 18.3441,10.1622 L 18.3441,10.1004 L 18.3441,10.0385 L 18.3441,9.9766 L 18.3441,9.9147 L 18.3441,9.8529 L 18.3441,9.791 L 18.3441,9.7291 L 18.3441,9.6672 L 18.3441,9.6054 L 18.3441,9.5435 L 18.3441,9.4816 L 18.3441,9.4198 L 18.3441,9.3579 L 18.3441,9.296 L 18.3441,9.2341 L 18.3441,9.1723 L 18.3441,9.1104 L 18.3441,9.0485 L 18.3441,8.9867 L 18.3441,8.9248 L 18.3441,8.8629 L 18.3441,8.801 L 18.3441,8.7392 L 18.3441,8.6773 L 18.3441,8.6154 L 18.3441,8.5536 L 18.3441,8.4917 L 18.3441,8.4298 L 18.3441,8.3679 L 18.3441,8.3061 L 18.3441,8.2442 L 18.3441,8.1823 L 18.3441,8.1205 L 18.3441,8.0586 L 18.3441,7.9967 L 18.3441,7.9348 L 18.3441,7.873 L 18.3441,7.8111 L 18.3441,7.7492 L 18.3441,7.6873 L 18.3441,7.6255 L 18.3441,7.5636 L 18.3441,7.5017 L 18.3441,7.4399 L 18.3441,7.378 L 18.3441,7.3161 L 18.3441,7.2542 L 18.3441,7.1924 L 18.3441,7.1305 L 18.3441,7.0686 L 18.3441,7.0068 L 18.3441,6.9449 L 18.3441,6.883 L 18.3441,6.8211 L 18.3441,6.7593 L 18.3441,6.6974 L 18.3441,6.6355 L 18.3441,6.5737 L 18.3441,6.5118 L 18.3441,6.4499 L 18.3441,6.388" />
      <path d="M 18.3441,10.8428 L 18.3441,10.781 L 18.3441,10.7191 L 18.3441,10.6572 L 18.3441,10.5954 L 18.3441,10.5335 L 18.3441,10.4717 L 18.3441,10.4098 L 18.3441,10.348 L 18.3441,10.2861 L 18.3441,10.2242 L 18.3441,10.1624 L 18.3441,10.1005 L 18.3441,10.0387 L 18.3441,9.9768 L 18.3441,9.915 L 18.3441,9.8531 L 18.3441,9.7912 L 18.3441,9.7294 L 18.3441,9.6675 L 18.3441,9.6057 L 18.3441,9.5438 L 18.3441,9.482 L 18.3441,9.4201 L 18.3441,9.3582 L 18.3441,9.2964 L 18.3441,9.2345 L 18.3441,9.1727 L 18.3441,9.1108 L 18.3441,9.049 L 18.3441,8.9871 L 18.3441,8.9252 L 18.3441,8.8634 L 18.3441,8.8015 L 18.3441,8.7397 L 18.3441,8.6778 L 18.3441,8.6159 L 18.3441,8.5541 L 18.3441,8.4922 L 18.3441,8.4304 L 18.3441,8.3685 L 18.3441,8.3067 L 18.3441,8.2448 L 18.3441,8.1829 L 18.3441,8.1211 L 18.3441,8.0592 L 18.3441,7.9974 L 18.3441,7.9355 L 18.3441,7.8737 L 18.3441,7.8118 L 18.3441,7.7499 L 18.3441,7.6881 L 18.3441,7.6262 L 18.3441,7.5644 L 18.3441,7.5025 L 18.3441,7.4407 L 18.3441,7.3788 L 18.3441,7.3169 L 18.3441,7.2551 L 18.3441,7.1932 L 18.3441,7.1314 L 18.3441,7.0695 L 18.3441,7.0077 L 18.3441,6.9458 L 18.3441,6.8839 L 18.3441,6.8221 L 18.3441,6.7602 L 18.3441,6.6984 L 18.3441,6.6365 L 18.3441,6.5747 L 18.3441,6.5128 L 18.3441,6.4509 L 18.3441,6.3891" />
      <path d="M 18.3441,6.3891 L 18.3441,6.2214 L 18.3441,6.0538 L 18.3441,5.8861 L 18.3441,5.7185 L 18.3441,5.5508 L 18.3441,5.3832 L 18.3441,5.2155 L 18.3441,5.0479 L 18.3441,4.8802 L 18.3441,4.7125 L 18.3441,4.5449 L 18.3441,4.3772 L 18.3441,4.2096 L 18.3441,4.0419 L 18.3441,3.8743 L 18.3441,3.7066 L 18.3441,3.539 L 18.3441,3.3713 L 18.3441,3.2037 L 18.3441,3.036 L 18.3441,2.8684 L 18.3441,2.7007 L 18.3441,2.533 L 18.3441,2.3654 L 18.3441,2.1977 L 18.3441,2.0301 L 18.3441,1.8624 L 18.3441,1.6948 L 18.3441,1.5271 L 18.3441,1.3595 L 18.3441,1.1918 L 18.3441,1.0242 L 18.3441,0.8565 L 18.3441,0.6889 L 18.3441,0.5212 L 18.3441,0.3535 L 18.3441,0.1859 L 18.3441,0.0182 L 18.3441,-0.1494 L 18.3441,-0.3171 L 18.3441,-0.4847 L 18.3441,-0.6524 L 18.3441,-0.82 L 18.3441,-0.9877 L 18.3441,-1.1553 L 18.3441,-1.323 L 18.3441,-1.4906 L 18.3441,-1.6583 L 18.3441,-1.826 L 18.3441,-1.9936 L 18.3441,-2.1613 L 18.3441,-2.3289 L 18.3441,-2.4966 L 18.3441,-2.6642 L 18.3441,-2.8319 L 18.3441,-2.9995 L 18.3441,-3.1672 L 18.3441,-3.3348 L 18.3441,-3.5025 L 18.3441,-3.6701 L 18.3441,-3.8378 L 18.3441,-4.0055 L 18.3441,-4.1731 L 18.3441,-4.3408 L 18.3441,-4.5084 L 18.3441,-4.6761 L 18.3441,-4.8437 L 18.3441,-5.0114 L 18.3441,-5.179 L 18.3441,-5.3467 L 18.3441,-5.5143 L 18.3441,-5.682" />
      <path d="M 18.3441,-5.682 L 18.3441,-5.5144 L 18.3441,-5.3467 L 18.3441,-5.1791 L 18.3441,-5.0114 L 18.3441,-4.8438 L 18.3441,-4.6762 L 18.3441,-4.5085 L 18.3441,-4.3409 L 18.3441,-4.1732 L 18.3441,-4.0056 L 18.3441,-3.838 L 18.3441,-3.6703 L 18.3441,-3.5027 L 18.3441,-3.335 L 18.3441,-3.1674 L 18.3441,-2.9998 L 18.3441,-2.8321 L 18.3441,-2.6645 L 18.3441,-2.4968 L 18.3441,-2.3292 L 18.3441,-2.1616 L 18.3441,-1.9939 L 18.3441,-1.8263 L 18.3441,-1.6586 L 18.3441,-1.491 L 18.3441,-1.3234 L 18.3441,-1.1557 L 18.3441,-0.9881 L 18.3441,-0.8205 L 18.3441,-0.6528 L 18.3441,-0.4852 L 18.3441,-0.3175 L 18.3441,-0.1499 L 18.3441,0.0177 L 18.3441,0.1854 L 18.3441,0.353 L 18.3441,0.5207 L 18.3441,0.6883 L 18.3441,0.8559 L 18.3441,1.0236 L 18.3441,1.1912 L 18.3441,1.3589 L 18.3441,1.5265 L 18.3441,1.6941 L 18.3441,1.8618 L 18.3441,2.0294 L 18.3441,2.1971 L 18.3441,2.3647 L 18.3441,2.5323 L 18.3441,2.7 L 18.3441,2.8676 L 18.3441,3.0353 L 18.3441,3.2029 L 18.3441,3.3705 L 18.3441,3.5382 L 18.3441,3.7058 L 18.3441,3.8734 L 18.3441,4.0411 L 18.3441,4.2087 L 18.3441,4.3764 L 18.3441,4.544 L 18.3441,4.7116 L 18.3441,4.8793 L 18.3441,5.0469 L 18.3441,5.2146 L 18.3441,5.3822 L 18.3441,5.5498 L 18.3441,5.7175 L 18.3441,5.8851 L 18.3441,6.0528 L 18.3441,6.2204 L 18.3441,6.388" />
      <path d="M 18.3441,6.3891 L 18.2955,6.3891 L 18.2468,6.3891 L 18.1982,6.3891 L 18.1496,6.3891 L 18.101,6.3891 L 18.0524,6.3891 L 18.0038,6.3891 L 17.9552,6.3891 L 17.9066,6.3891 L 17.858,6.3891 L 17.8093,6.3891 L 17.7607,6.3891 L 17.7121,6.3891 L 17.6635,6.3891 L 17.6149,6.3891 L 17.5663,6.3891 L 17.5177,6.3891 L 17.4691,6.3891 L 17.4205,6.3891 L 17.3718,6.3891 L 17.3232,6.3891 L 17.2746,6.3891 L 17.226,6.3891 L 17.1774,6.3891 L 17.1288,6.3891 L 17.0802,6.3891 L 17.0316,6.3891 L 16.983,6.3891 L 16.9343,6.3891 L 16.8857,6.3891 L 16.8371,6.3891 L 16.7885,6.3891 L 16.7399,6.3891 L 16.6913,6.3891 L 16.6427,6.3891 L 16.5941,6.3891 L 16.5455,6.3891 L 16.4968,6.3891 L 16.4482,6.3891 L 16.3996,6.3891 L 16.351,6.3891 L 16.3024,6.3891 L 16.2538,6.3891 L 16.2052,6.3891 L 16.1566,6.3891 L 16.108,6.3891 L 16.0593,6.3891 L 16.0107,6.3891 L 15.9621,6.3891 L 15.9135,6.3891 L 15.8649,6.3891 L 15.8163,6.3891 L 15.7677,6.3891 L 15.7191,6.3891 L 15.6705,6.3891 L 15.6218,6.3891 L 15.5732,6.3891 L 15.5246,6.3891 L 15.476,6.3891 L 15.4274,6.3891 L 15.3788,6.3891 L 15.3302,6.3891 L 15.2816,6.3891 L 15.233,6.3891 L 15.1843,6.3891 L 15.1357,6.3891 L 15.0871,6.3891 L 15.0385,6.3891 L 14.9899,6.3891 L 14.9413,6.3891 L 14.8927,6.3891 L 14.8441,6.3891" />
      <path d="M 18.3441,-5.682 L 18.2955,-5.682 L 18.2468,-5.682 L 18.1982,-5.682 L 18.1496,-5.682 L 18.101,-5.682 L 18.0524,-5.682 L 18.0038,-5.682 L 17.9552,-5.682 L 17.9066,-5.682 L 17.858,-5.682 L 17.8093,-5.682 L 17.7607,-5.682 L 17.7121,-5.682 L 17.6635,-5.682 L 17.6149,-5.682 L 17.5663,-5.682 L 17.5177,-5.682 L 17.4691,-5.682 L 17.4205,-5.682 L 17.3718,-5.682 L 17.3232,-5.682 L 17.2746,-5.682 L 17.226,-5.682 L 17.1774,-5.682 L 17.1288,-5.682 L 17.0802,-5.682 L 17.0316,-5.682 L 16.983,-5.682 L 16.9343,-5.682 L 16.8857,-5.682 L 16.8371,-5.682 L 16.7885,-5.682 L 16.7399,-5.682 L 16.6913,-5.682 L 16.6427,-5.682 L 16.5941,-5.682 L 16.5455,-5.682 L 16.4968,-5.682 L 16.4482,-5.682 L 16.3996,-5.682 L 16.351,-5.682 L 16.3024,-5.682 L 16.2538,-5.682 L 16.2052,-5.682 L 16.1566,-5.682 L 16.108,-5.682 L 16.0593,-5.682 L 16.0107,-5.682 L 15.9621,-5.682 L 15.9135,-5.682 L 15.8649,-5.682 L 15.8163,-5.682 L 15.7677,-5.682 L 15.7191,-5.682 L 15.6705,-5.682 L 15.6218,-5.682 L 15.5732,-5.682 L 15.5246,-5.682 L 15.476,-5.682 L 15.4274,-5.682 L 15.3788,-5.682 L 15.3302,-5.682 L 15.2816,-5.682 L 15.233,-5.682 L 15.1843,-5.682 L 15.1357,-5.682 L 15.0871,-5.682 L 15.0385,-5.682 L 14.9899,-5.682 L 14.9413,-5.682 L 14.8927,-5.682 L 14.8441,-5.682" />
    </g>
  </g>
</svg>