<?xml version='1.0' encoding='utf-8'?>
<svg width="40.1463mm" height="28.1782mm" viewBox="-13.7258 -13.8583 40.1463 28.1782" version="1.1" xmlns="http://www.w3.org/2000/svg">
  <g transform="scale(1,-1)" stroke-linecap="round">
    <g fill="none" stroke="rgb(0,0,0)" stroke-width="0.4" id="Visible">
      <path d="M 10.2288,0.0916 L 10.1923,0.9427 L 10.0825,1.7874 L 9.9001,2.6196 L 9.6468,3.4329 L 9.3244,4.2214 L 8.9354,4.9792 L 8.4829,5.7009 L 7.9701,6.3812 L 7.401,7.015 L 6.7797,7.5979 L 6.1109,8.1255 L 5.3996,8.5942 L 4.6509,9.0005 L 3.8703,9.3417 L 3.0636,9.6152 L 2.2365,9.8193 L 1.3951,9.9525 L 0.5455,10.0138 L -0.3063,10.0031 L -1.1542,9.9204 L -1.992,9.7664 L -2.8138,9.5422 L -3.6139,9.2496 L -4.3864,8.8907 L -5.1261,8.4681 L -5.8276,7.9848 L -6.4861,7.4444 L -7.097,6.8507 L -7.656,6.2079 L -8.1593,5.5206 L -8.6033,4.7936 L -8.9851,4.0321 L -9.3021,3.2414 L -9.5521,2.427 L -9.7333,1.5946 L -9.8447,0.7501 L -9.8856,-0.1008 L -9.8556,-0.9522 L -9.7552,-1.7981 L -9.5849,-2.6328 L -9.3462,-3.4505 L -9.0406,-4.2457 L -8.6703,-5.0129 L -8.2379,-5.7469 L -7.7464,-6.4427 L -7.1993,-7.0956 L -6.6002,-7.7012 L -5.9533,-8.2555 L -5.263,-8.7547 L -4.534,-9.1954 L -3.7712,-9.5748 L -2.98,-9.8904 L -2.1655,-10.14 L -1.3333,-10.3221 L -0.489,-10.4354 L 0.3618,-10.4793 L 1.2133,-10.4535 L 2.0598,-10.3582 L 2.8958,-10.1942 L 3.7155,-9.9625 L 4.5137,-9.6648 L 5.285,-9.3031 L 6.0243,-8.8798 L 6.7267,-8.3978 L 7.3876,-7.8603 L 8.0026,-7.2709 L 8.5678,-6.6335 L 9.0795,-5.9524 L 9.5342,-5.232 L 9.9291,-4.4772 L 10.2616,-3.6928 L 10.5295,-2.8842" />
      <path d="M 10.5295,-2.8842 L 10.4877,-2.8706 L 10.4459,-2.8571 L 10.4042,-2.8436 L 10.3624,-2.83 L 10.3206,-2.8165 L 10.2789,-2.8029 L 10.2371,-2.7894 L 10.1953,-2.7759 L 10.1535,-2.7623 L 10.1118,-2.7488 L 10.07,-2.7352 L 10.0282,-2.7217 L 9.9865,-2.7082 L 9.9447,-2.6946 L 9.9029,-2.6811 L 9.8612,-2.6675 L 9.8194,-2.654 L 9.7776,-2.6405 L 9.7359,-2.6269 L 9.6941,-2.6134 L 9.6523,-2.5999 L 9.6105,-2.5863 L 9.5688,-2.5728 L 9.527,-2.5592 L 9.4852,-2.5457 L 9.4435,-2.5322 L 9.4017,-2.5186 L 9.3599,-2.5051 L 9.3182,-2.4915 L 9.2764,-2.478 L 9.2346,-2.4645 L 9.1929,-2.4509 L 9.1511,-2.4374 L 9.1093,-2.4239 L 9.0675,-2.4103 L 9.0258,-2.3968 L 8.984,-2.3832 L 8.9422,-2.3697 L 8.9005,-2.3562 L 8.8587,-2.3426 L 8.8169,-2.3291 L 8.7752,-2.3155 L 8.7334,-2.302 L 8.6916,-2.2885 L 8.6499,-2.2749 L 8.6081,-2.2614 L 8.5663,-2.2478 L 8.5246,-2.2343 L 8.4828,-2.2208 L 8.441,-2.2072 L 8.3992,-2.1937 L 8.3575,-2.1802 L 8.3157,-2.1666 L 8.2739,-2.1531 L 8.2322,-2.1395 L 8.1904,-2.126 L 8.1486,-2.1125 L 8.1069,-2.0989 L 8.0651,-2.0854 L 8.0233,-2.0718 L 7.9816,-2.0583 L 7.9398,-2.0448 L 7.898,-2.0312 L 7.8562,-2.0177 L 7.8145,-2.0042 L 7.7727,-1.9906 L 7.7309,-1.9771 L 7.6892,-1.9635 L 7.6474,-1.95 L 7.6056,-1.9365 L 7.5639,-1.9229 L 7.5221,-1.9094" />
      <path d="M 6.7273,-0.1953 L 6.7074,0.3029 L 6.6484,0.7981 L 6.5507,1.2871 L 6.4148,1.7668 L 6.2414,2.2343 L 6.0316,2.6867 L 5.7867,3.121 L 5.508,3.5345 L 5.1974,3.9246 L 4.8567,4.2887 L 4.488,4.6244 L 4.0937,4.9296 L 3.6763,5.2023 L 3.2383,5.4406 L 2.7826,5.643 L 2.312,5.8081 L 1.8298,5.9347 L 1.3388,6.0219 L 0.8424,6.0691 L 0.3438,6.0759 L -0.1536,6.0423 L -0.6468,5.9683 L -1.1322,5.8544 L -1.6067,5.7012 L -2.0671,5.5098 L -2.5103,5.2813 L -2.9333,5.0172 L -3.3331,4.7193 L -3.7071,4.3894 L -4.0526,4.0299 L -4.3672,3.6431 L -4.6488,3.2316 L -4.8953,2.7982 L -5.105,2.3458 L -5.2763,1.8775 L -5.4081,1.3966 L -5.4993,0.9064 L -5.5493,0.4103 L -5.5576,-0.0882 L -5.524,-0.5857 L -5.4489,-1.0786 L -5.3325,-1.5635 L -5.1758,-2.0368 L -4.9797,-2.4953 L -4.7456,-2.9355 L -4.4751,-3.3544 L -4.17,-3.7488 L -3.8326,-4.1159 L -3.4653,-4.453 L -3.0705,-4.7577 L -2.6513,-5.0276 L -2.2105,-5.2607 L -1.7514,-5.4553 L -1.2774,-5.6098 L -0.7918,-5.7232 L -0.2983,-5.7944 L 0.1995,-5.8229 L 0.6979,-5.8085 L 1.1932,-5.7512 L 1.6817,-5.6513 L 2.1597,-5.5095 L 2.6237,-5.3269 L 3.0701,-5.1048 L 3.4955,-4.8448 L 3.8967,-4.5487 L 4.2707,-4.2189 L 4.6144,-3.8577 L 4.9253,-3.4679 L 5.201,-3.0525 L 5.4393,-2.6145 L 5.6383,-2.1573 L 5.7964,-1.6845" />
      <path d="M 7.5221,-1.9094 L 7.4981,-1.9063 L 7.4742,-1.9031 L 7.4502,-1.9 L 7.4262,-1.8969 L 7.4023,-1.8938 L 7.3783,-1.8906 L 7.3543,-1.8875 L 7.3304,-1.8844 L 7.3064,-1.8813 L 7.2824,-1.8781 L 7.2585,-1.875 L 7.2345,-1.8719 L 7.2105,-1.8688 L 7.1865,-1.8656 L 7.1626,-1.8625 L 7.1386,-1.8594 L 7.1146,-1.8563 L 7.0907,-1.8531 L 7.0667,-1.85 L 7.0427,-1.8469 L 7.0188,-1.8438 L 6.9948,-1.8407 L 6.9708,-1.8375 L 6.9469,-1.8344 L 6.9229,-1.8313 L 6.8989,-1.8282 L 6.875,-1.825 L 6.851,-1.8219 L 6.827,-1.8188 L 6.8031,-1.8157 L 6.7791,-1.8125 L 6.7551,-1.8094 L 6.7312,-1.8063 L 6.7072,-1.8032 L 6.6832,-1.8 L 6.6593,-1.7969 L 6.6353,-1.7938 L 6.6113,-1.7907 L 6.5874,-1.7875 L 6.5634,-1.7844 L 6.5394,-1.7813 L 6.5155,-1.7782 L 6.4915,-1.775 L 6.4675,-1.7719 L 6.4436,-1.7688 L 6.4196,-1.7657 L 6.3956,-1.7626 L 6.3716,-1.7594 L 6.3477,-1.7563 L 6.3237,-1.7532 L 6.2997,-1.7501 L 6.2758,-1.7469 L 6.2518,-1.7438 L 6.2278,-1.7407 L 6.2039,-1.7376 L 6.1799,-1.7344 L 6.1559,-1.7313 L 6.132,-1.7282 L 6.108,-1.7251 L 6.084,-1.7219 L 6.0601,-1.7188 L 6.0361,-1.7157 L 6.0121,-1.7126 L 5.9882,-1.7094 L 5.9642,-1.7063 L 5.9402,-1.7032 L 5.9163,-1.7001 L 5.8923,-1.697 L 5.8683,-1.6938 L 5.8444,-1.6907 L 5.8204,-1.6876 L 5.7964,-1.6845" />
      <path d="M 6.7273,-0.1953 L 6.7759,-0.1953 L 6.8245,-0.1953 L 6.8731,-0.1953 L 6.9217,-0.1953 L 6.9704,-0.1953 L 7.019,-0.1953 L 7.0676,-0.1953 L 7.1162,-0.1953 L 7.1648,-0.1953 L 7.2134,-0.1953 L 7.262,-0.1953 L 7.3106,-0.1953 L 7.3592,-0.1953 L 7.4079,-0.1953 L 7.4565,-0.1953 L 7.5051,-0.1953 L 7.5537,-0.1953 L 7.6023,-0.1953 L 7.6509,-0.1953 L 7.6995,-0.1953 L 7.7481,-0.1953 L 7.7967,-0.1953 L 7.8454,-0.1953 L 7.894,-0.1953 L 7.9426,-0.1953 L 7.9912,-0.1953 L 8.0398,-0.1953 L 8.0884,-0.1953 L 8.137,-0.1953 L 8.1856,-0.1953 L 8.2342,-0.1953 L 8.2829,-0.1953 L 8.3315,-0.1953 L 8.3801,-0.1953 L 8.4287,-0.1953 L 8.4773,-0.1953 L 8.5259,-0.1953 L 8.5745,-0.1953 L 8.6231,-0.1953 L 8.6717,-0.1953 L 8.7204,-0.1953 L 8.769,-0.1953 L 8.8176,-0.1953 L 8.8662,-0.1953 L 8.9148,-0.1953 L 8.9634,-0.1953 L 9.012,-0.1953 L 9.0606,-0.1953 L 9.1092,-0.1953 L 9.1579,-0.1953 L 9.2065,-0.1953 L 9.2551,-0.1953 L 9.3037,-0.1953 L 9.3523,-0.1953 L 9.4009,-0.1953 L 9.4495,-0.1953 L 9.4981,-0.1953 L 9.5467,-0.1953 L 9.5954,-0.1953 L 9.644,-0.1953 L 9.6926,-0.1953 L 9.7412,-0.1953 L 9.7898,-0.1953 L 9.8384,-0.1953 L 9.887,-0.1953 L 9.9356,-0.1953 L 9.9842,-0.1953 L 10.0329,-0.1953 L 10.0815,-0.1953 L 10.1301,-0.1953 L 10.1787,-0.1953 L 10.2273,-0.1953" />
      <path d="M 10.2273,-0.1953 L 10.196,0.5835 L 10.1032,1.3573 L 9.9492,2.1214 L 9.7351,2.8708 L 9.462,3.6008 L 9.1317,4.3068 L 8.7461,4.9841 L 8.3077,5.6285 L 7.8192,6.2359 L 7.2837,6.8021 L 6.7045,7.3237 L 6.0854,7.7971 L 5.4302,8.2193 L 4.7432,8.5874 L 4.0288,8.899 L 3.2916,9.152 L 2.5364,9.3446 L 1.7681,9.4756 L 0.9917,9.5439 L 0.2123,9.549 L -0.5649,9.4909 L -1.3349,9.3697 L -2.0924,9.1863 L -2.8324,8.9417 L -3.55,8.6376 L -4.2403,8.2757 L -4.8987,7.8586 L -5.5207,7.389 L -6.102,6.8698 L -6.6387,6.3046 L -7.127,5.6972 L -7.5636,5.0515 L -7.9454,4.372 L -8.2696,3.6633 L -8.5341,2.9302 L -8.7368,2.1776 L -8.8763,1.4108 L -8.9515,0.635 L -8.9618,-0.1443 L -8.907,-0.9217 L -8.7875,-1.6919 L -8.6038,-2.4493 L -8.3573,-3.1887 L -8.0496,-3.9048 L -7.6827,-4.5924 L -7.2592,-5.2467 L -6.782,-5.8629 L -6.2545,-6.4366 L -5.6802,-6.9635 L -5.0633,-7.4399 L -4.4082,-7.8621 L -3.7196,-8.227 L -3.0023,-8.5319 L -2.2616,-8.7745 L -1.5029,-8.9528 L -0.7318,-9.0655 L 0.0463,-9.1116 L 0.8253,-9.0906 L 1.5997,-9.0026 L 2.3636,-8.8482 L 3.1114,-8.6283 L 3.8372,-8.3445 L 4.5358,-7.9989 L 5.2017,-7.5939 L 5.8298,-7.1325 L 6.4153,-6.6181 L 6.9536,-6.0545 L 7.4405,-5.446 L 7.8722,-4.7971 L 8.2452,-4.1128 L 8.5566,-3.3984 L 8.8038,-2.6592" />
      <path d="M 5.7964,-1.6845 L 5.8382,-1.698 L 5.88,-1.7115 L 5.9217,-1.7251 L 5.9635,-1.7386 L 6.0053,-1.7521 L 6.047,-1.7657 L 6.0888,-1.7792 L 6.1306,-1.7928 L 6.1723,-1.8063 L 6.2141,-1.8198 L 6.2559,-1.8334 L 6.2977,-1.8469 L 6.3394,-1.8605 L 6.3812,-1.874 L 6.423,-1.8875 L 6.4647,-1.9011 L 6.5065,-1.9146 L 6.5483,-1.9282 L 6.59,-1.9417 L 6.6318,-1.9552 L 6.6736,-1.9688 L 6.7153,-1.9823 L 6.7571,-1.9958 L 6.7989,-2.0094 L 6.8407,-2.0229 L 6.8824,-2.0365 L 6.9242,-2.05 L 6.966,-2.0635 L 7.0077,-2.0771 L 7.0495,-2.0906 L 7.0913,-2.1042 L 7.133,-2.1177 L 7.1748,-2.1312 L 7.2166,-2.1448 L 7.2583,-2.1583 L 7.3001,-2.1718 L 7.3419,-2.1854 L 7.3837,-2.1989 L 7.4254,-2.2125 L 7.4672,-2.226 L 7.509,-2.2395 L 7.5507,-2.2531 L 7.5925,-2.2666 L 7.6343,-2.2802 L 7.676,-2.2937 L 7.7178,-2.3072 L 7.7596,-2.3208 L 7.8013,-2.3343 L 7.8431,-2.3479 L 7.8849,-2.3614 L 7.9266,-2.3749 L 7.9684,-2.3885 L 8.0102,-2.402 L 8.052,-2.4155 L 8.0937,-2.4291 L 8.1355,-2.4426 L 8.1773,-2.4562 L 8.219,-2.4697 L 8.2608,-2.4832 L 8.3026,-2.4968 L 8.3443,-2.5103 L 8.3861,-2.5239 L 8.4279,-2.5374 L 8.4696,-2.5509 L 8.5114,-2.5645 L 8.5532,-2.578 L 8.595,-2.5915 L 8.6367,-2.6051 L 8.6785,-2.6186 L 8.7203,-2.6322 L 8.762,-2.6457 L 8.8038,-2.6592" />
      <path d="M 10.2273,-0.1953 L 10.2273,-0.1913 L 10.2273,-0.1873 L 10.2274,-0.1833 L 10.2274,-0.1794 L 10.2274,-0.1754 L 10.2274,-0.1714 L 10.2274,-0.1674 L 10.2275,-0.1634 L 10.2275,-0.1594 L 10.2275,-0.1554 L 10.2275,-0.1515 L 10.2275,-0.1475 L 10.2276,-0.1435 L 10.2276,-0.1395 L 10.2276,-0.1355 L 10.2276,-0.1315 L 10.2277,-0.1275 L 10.2277,-0.1236 L 10.2277,-0.1196 L 10.2277,-0.1156 L 10.2277,-0.1116 L 10.2278,-0.1076 L 10.2278,-0.1036 L 10.2278,-0.0997 L 10.2278,-0.0957 L 10.2278,-0.0917 L 10.2279,-0.0877 L 10.2279,-0.0837 L 10.2279,-0.0797 L 10.2279,-0.0757 L 10.2279,-0.0718 L 10.228,-0.0678 L 10.228,-0.0638 L 10.228,-0.0598 L 10.228,-0.0558 L 10.2281,-0.0518 L 10.2281,-0.0478 L 10.2281,-0.0439 L 10.2281,-0.0399 L 10.2281,-0.0359 L 10.2282,-0.0319 L 10.2282,-0.0279 L 10.2282,-0.0239 L 10.2282,-0.0199 L 10.2282,-0.016 L 10.2283,-0.012 L 10.2283,-0.008 L 10.2283,-0.004 L 10.2283,0.0 L 10.2283,0.004 L 10.2284,0.0079 L 10.2284,0.0119 L 10.2284,0.0159 L 10.2284,0.0199 L 10.2284,0.0239 L 10.2285,0.0279 L 10.2285,0.0319 L 10.2285,0.0358 L 10.2285,0.0398 L 10.2286,0.0438 L 10.2286,0.0478 L 10.2286,0.0518 L 10.2286,0.0558 L 10.2286,0.0598 L 10.2287,0.0637 L 10.2287,0.0677 L 10.2287,0.0717 L 10.2287,0.0757 L 10.2287,0.0797 L 10.2288,0.0837 L 10.2288,0.0876 L 10.2288,0.0916" />
      <path d="M 8.8038,-2.6592 L 8.8278,-2.6624 L 8.8517,-2.6655 L 8.8757,-2.6686 L 8.8997,-2.6717 L 8.9236,-2.6749 L 8.9476,-2.678 L 8.9716,-2.6811 L 8.9955,-2.6842 L 9.0195,-2.6874 L 9.0435,-2.6905 L 9.0674,-2.6936 L 9.0914,-2.6967 L 9.1154,-2.6999 L 9.1393,-2.703 L 9.1633,-2.7061 L 9.1873,-2.7092 L 9.2112,-2.7124 L 9.2352,-2.7155 L 9.2592,-2.7186 L 9.2832,-2.7217 L 9.3071,-2.7248 L 9.3311,-2.728 L 9.3551,-2.7311 L 9.379,-2.7342 L 9.403,-2.7373 L 9.427,-2.7405 L 9.4509,-2.7436 L 9.4749,-2.7467 L 9.4989,-2.7498 L 9.5228,-2.753 L 9.5468,-2.7561 L 9.5708,-2.7592 L 9.5947,-2.7623 L 9.6187,-2.7655 L 9.6427,-2.7686 L 9.6666,-2.7717 L 9.6906,-2.7748 L 9.7146,-2.778 L 9.7385,-2.7811 L 9.7625,-2.7842 L 9.7865,-2.7873 L 9.8104,-2.7904 L 9.8344,-2.7936 L 9.8584,-2.7967 L 9.8823,-2.7998 L 9.9063,-2.8029 L 9.9303,-2.8061 L 9.9542,-2.8092 L 9.9782,-2.8123 L 10.0022,-2.8154 L 10.0261,-2.8186 L 10.0501,-2.8217 L 10.0741,-2.8248 L 10.0981,-2.8279 L 10.122,-2.8311 L 10.146,-2.8342 L 10.17,-2.8373 L 10.1939,-2.8404 L 10.2179,-2.8436 L 10.2419,-2.8467 L 10.2658,-2.8498 L 10.2898,-2.8529 L 10.3138,-2.8561 L 10.3377,-2.8592 L 10.3617,-2.8623 L 10.3857,-2.8654 L 10.4096,-2.8685 L 10.4336,-2.8717 L 10.4576,-2.8748 L 10.4815,-2.8779 L 10.5055,-2.881 L 10.5295,-2.8842" />
      <path d="M 22.5805,10.2274 L 22.5804,10.2274 L 22.5803,10.2274 L 22.5802,10.2274 L 22.5801,10.2274 L 22.58,10.2274" />
      <path d="M 22.58,10.2274 L 22.5799,10.2274 L 22.5798,10.2274 L 22.5797,10.2274 L 22.5796,10.2274 L 22.5795,10.2274 L 22.5794,10.2274" />
      <path d="M 20.549,-9.3065 L 20.547,-9.3156 L 20.5449,-9.3247 L 20.5429,-9.3337 L 20.5408,-9.3428 L 20.5387,-9.3519 L 20.5366,-9.361 L 20.5345,-9.37 L 20.5323,-9.3791 L 20.5301,-9.3881 L 20.528,-9.3972 L 20.5258,-9.4062 L 20.5235,-9.4153 L 20.5213,-9.4243 L 20.519,-9.4333 L 20.5167,-9.4423 L 20.5144,-9.4514 L 20.5121,-9.4604 L 20.5098,-9.4694 L 20.5074,-9.4784 L 20.505,-9.4874 L 20.5026,-9.4964 L 20.5001,-9.5053 L 20.4977,-9.5143 L 20.4952,-9.5233 L 20.4926,-9.5322 L 20.4901,-9.5412 L 20.4875,-9.5501 L 20.4849,-9.5591 L 20.4822,-9.568 L 20.4795,-9.5769 L 20.4768,-9.5858 L 20.474,-9.5947 L 20.4712,-9.6036 L 20.4684,-9.6124 L 20.4655,-9.6213 L 20.4626,-9.6301 L 20.4596,-9.6389 L 20.4566,-9.6477 L 20.4536,-9.6565 L 20.4504,-9.6653 L 20.4473,-9.6741 L 20.444,-9.6828 L 20.4408,-9.6915 L 20.4374,-9.7002 L 20.434,-9.7088 L 20.4305,-9.7175 L 20.4269,-9.7261 L 20.4233,-9.7346 L 20.4195,-9.7431 L 20.4157,-9.7516 L 20.4118,-9.7601 L 20.4077,-9.7684 L 20.4036,-9.7768 L 20.3993,-9.785 L 20.3949,-9.7932 L 20.3903,-9.8013 L 20.3856,-9.8094 L 20.3807,-9.8173 L 20.3755,-9.825 L 20.3702,-9.8327 L 20.3646,-9.8401 L 20.3587,-9.8473 L 20.3525,-9.8543 L 20.346,-9.8609 L 20.339,-9.8671 L 20.3316,-9.8727 L 20.3237,-9.8776 L 20.3154,-9.8817 L 20.3065,-9.8846 L 20.2974,-9.8862 L 20.2881,-9.8863 L 20.2789,-9.8848" />
      <path d="M 20.2789,-9.8848 L 20.129,-9.6512 L 20.0513,-9.3762 L 19.9918,-9.0967 L 19.9415,-8.8153 L 19.8971,-8.533 L 19.8568,-8.25 L 19.8195,-7.9666 L 19.7845,-7.683 L 19.7515,-7.399 L 19.7201,-7.1149 L 19.69,-6.8307 L 19.6611,-6.5463 L 19.6332,-6.2619 L 19.6061,-5.9773 L 19.5797,-5.6927 L 19.554,-5.408 L 19.529,-5.1233 L 19.5044,-4.8385 L 19.4803,-4.5537 L 19.4567,-4.2689 L 19.4334,-3.984 L 19.4105,-3.6991 L 19.3879,-3.4142 L 19.3656,-3.1292 L 19.3435,-2.8442 L 19.3217,-2.5592 L 19.3,-2.2742 L 19.2786,-1.9892 L 19.2573,-1.7042 L 19.2361,-1.4191 L 19.2151,-1.1341 L 19.1941,-0.849 L 19.1733,-0.5639 L 19.1525,-0.2789 L 19.1318,0.0062 L 19.1111,0.2913 L 19.0904,0.5764 L 19.0698,0.8615 L 19.0491,1.1465 L 19.0284,1.4316 L 19.0077,1.7167 L 18.9869,2.0018 L 18.9661,2.2868 L 18.9451,2.5719 L 18.9241,2.857 L 18.9029,3.142 L 18.8816,3.427 L 18.8601,3.7121 L 18.8385,3.9971 L 18.8166,4.2821 L 18.7945,4.567 L 18.7721,4.852 L 18.7494,5.1369 L 18.7264,5.4218 L 18.703,5.7067 L 18.6792,5.9915 L 18.655,6.2763 L 18.6302,6.5611 L 18.6049,6.8458 L 18.5789,7.1304 L 18.5521,7.415 L 18.5245,7.6995 L 18.4959,7.9839 L 18.4662,8.2682 L 18.4351,8.5523 L 18.4024,8.8363 L 18.3677,9.12 L 18.3305,9.4034 L 18.2901,9.6863 L 18.2452,9.9686 L 18.1938,10.2498 L 18.1313,10.5286" />
      <path d="M 22.5805,10.2274 L 22.5805,10.1788 L 22.5805,10.1302 L 22.5805,10.0816 L 22.5805,10.033 L 22.5805,9.9844 L 22.5805,9.9358 L 22.5805,9.8871 L 22.5805,9.8385 L 22.5805,9.7899 L 22.5805,9.7413 L 22.5805,9.6927 L 22.5805,9.6441 L 22.5805,9.5955 L 22.5805,9.5469 L 22.5805,9.4983 L 22.5805,9.4496 L 22.5805,9.401 L 22.5805,9.3524 L 22.5805,9.3038 L 22.5805,9.2552 L 22.5805,9.2066 L 22.5805,9.158 L 22.5805,9.1094 L 22.5805,9.0608 L 22.5805,9.0121 L 22.5805,8.9635 L 22.5805,8.9149 L 22.5805,8.8663 L 22.5805,8.8177 L 22.5805,8.7691 L 22.5805,8.7205 L 22.5805,8.6719 L 22.5805,8.6233 L 22.5805,8.5746 L 22.5805,8.526 L 22.5805,8.4774 L 22.5805,8.4288 L 22.5805,8.3802 L 22.5805,8.3316 L 22.5805,8.283 L 22.5805,8.2344 L 22.5805,8.1858 L 22.5805,8.1371 L 22.5805,8.0885 L 22.5805,8.0399 L 22.5805,7.9913 L 22.5805,7.9427 L 22.5805,7.8941 L 22.5805,7.8455 L 22.5805,7.7969 L 22.5805,7.7483 L 22.5805,7.6996 L 22.5805,7.651 L 22.5805,7.6024 L 22.5805,7.5538 L 22.5805,7.5052 L 22.5805,7.4566 L 22.5805,7.408 L 22.5805,7.3594 L 22.5805,7.3108 L 22.5805,7.2621 L 22.5805,7.2135 L 22.5805,7.1649 L 22.5805,7.1163 L 22.5805,7.0677 L 22.5805,7.0191 L 22.5805,6.9705 L 22.5805,6.9219 L 22.5805,6.8733 L 22.5805,6.8246 L 22.5805,6.776 L 22.5805,6.7274" />
      <path d="M 22.5796,6.7274 L 22.4855,6.5833 L 22.4393,6.4098 L 22.404,6.2336 L 22.3743,6.0565 L 22.348,5.8788 L 22.324,5.7008 L 22.3019,5.5226 L 22.2811,5.3441 L 22.2615,5.1656 L 22.2427,4.987 L 22.2248,4.8082 L 22.2075,4.6295 L 22.1907,4.4506 L 22.1745,4.2717 L 22.1587,4.0928 L 22.1432,3.9138 L 22.1281,3.7349 L 22.1133,3.5559 L 22.0988,3.3768 L 22.0845,3.1978 L 22.0704,3.0187 L 22.0565,2.8396 L 22.0427,2.6605 L 22.0291,2.4814 L 22.0157,2.3023 L 22.0024,2.1232 L 21.9891,1.944 L 21.976,1.7649 L 21.9629,1.5858 L 21.95,1.4066 L 21.937,1.2274 L 21.9241,1.0483 L 21.9113,0.8691 L 21.8985,0.69 L 21.8857,0.5108 L 21.8729,0.3316 L 21.8601,0.1525 L 21.8472,-0.0267 L 21.8344,-0.2059 L 21.8215,-0.385 L 21.8086,-0.5642 L 21.7957,-0.7433 L 21.7827,-0.9225 L 21.7696,-1.1016 L 21.7564,-1.2808 L 21.7431,-1.4599 L 21.7298,-1.639 L 21.7163,-1.8181 L 21.7026,-1.9972 L 21.6889,-2.1763 L 21.6749,-2.3554 L 21.6608,-2.5345 L 21.6465,-2.7135 L 21.632,-2.8926 L 21.6172,-3.0716 L 21.6022,-3.2506 L 21.5868,-3.4295 L 21.5712,-3.6085 L 21.5551,-3.7874 L 21.5386,-3.9662 L 21.5217,-4.145 L 21.5042,-4.3238 L 21.4862,-4.5025 L 21.4674,-4.6812 L 21.4478,-4.8597 L 21.4272,-5.0382 L 21.4055,-5.2165 L 21.3824,-5.3946 L 21.3574,-5.5725 L 21.3301,-5.75 L 21.2995,-5.927 L 21.2639,-6.103" />
      <path d="M 21.2639,-6.103 L 21.2626,-6.1089 L 21.2612,-6.1149 L 21.2599,-6.1208 L 21.2585,-6.1267 L 21.2572,-6.1326 L 21.2558,-6.1385 L 21.2544,-6.1444 L 21.253,-6.1503 L 21.2516,-6.1562 L 21.2502,-6.1621 L 21.2487,-6.168 L 21.2473,-6.1739 L 21.2458,-6.1797 L 21.2444,-6.1856 L 21.2429,-6.1915 L 21.2414,-6.1974 L 21.2398,-6.2032 L 21.2383,-6.2091 L 21.2368,-6.215 L 21.2352,-6.2208 L 21.2336,-6.2267 L 21.232,-6.2325 L 21.2304,-6.2384 L 21.2288,-6.2442 L 21.2271,-6.25 L 21.2255,-6.2559 L 21.2238,-6.2617 L 21.2221,-6.2675 L 21.2203,-6.2733 L 21.2186,-6.2791 L 21.2168,-6.2849 L 21.215,-6.2907 L 21.2132,-6.2965 L 21.2114,-6.3023 L 21.2095,-6.308 L 21.2076,-6.3138 L 21.2056,-6.3195 L 21.2037,-6.3253 L 21.2017,-6.331 L 21.1996,-6.3367 L 21.1976,-6.3424 L 21.1955,-6.3481 L 21.1933,-6.3538 L 21.1911,-6.3594 L 21.1889,-6.3651 L 21.1866,-6.3707 L 21.1843,-6.3763 L 21.1819,-6.3819 L 21.1795,-6.3874 L 21.177,-6.3929 L 21.1744,-6.3984 L 21.1718,-6.4039 L 21.1691,-6.4093 L 21.1663,-6.4147 L 21.1634,-6.42 L 21.1604,-6.4253 L 21.1573,-6.4305 L 21.1541,-6.4357 L 21.1508,-6.4407 L 21.1473,-6.4457 L 21.1437,-6.4505 L 21.1398,-6.4552 L 21.1358,-6.4597 L 21.1315,-6.464 L 21.127,-6.4681 L 21.1221,-6.4717 L 21.117,-6.4749 L 21.1115,-6.4776 L 21.1058,-6.4795 L 21.0998,-6.4805 L 21.0938,-6.4805 L 21.0878,-6.4796" />
      <path d="M 21.0878,-6.4796 L 20.9868,-6.3182 L 20.9347,-6.1294 L 20.8948,-5.9375 L 20.861,-5.7444 L 20.8312,-5.5507 L 20.8041,-5.3566 L 20.779,-5.1622 L 20.7556,-4.9677 L 20.7334,-4.7729 L 20.7122,-4.5781 L 20.692,-4.3831 L 20.6725,-4.1881 L 20.6537,-3.993 L 20.6354,-3.7979 L 20.6177,-3.6027 L 20.6003,-3.4075 L 20.5834,-3.2122 L 20.5669,-3.0169 L 20.5506,-2.8216 L 20.5347,-2.6263 L 20.519,-2.4309 L 20.5035,-2.2355 L 20.4882,-2.0401 L 20.4731,-1.8447 L 20.4582,-1.6493 L 20.4434,-1.4539 L 20.4288,-1.2584 L 20.4143,-1.063 L 20.3999,-0.8675 L 20.3855,-0.672 L 20.3713,-0.4766 L 20.3571,-0.2811 L 20.343,-0.0856 L 20.3289,0.1099 L 20.3149,0.3054 L 20.3009,0.5009 L 20.2868,0.6964 L 20.2728,0.8919 L 20.2588,1.0873 L 20.2448,1.2828 L 20.2307,1.4783 L 20.2166,1.6738 L 20.2025,1.8693 L 20.1882,2.0648 L 20.1739,2.2602 L 20.1595,2.4557 L 20.1451,2.6512 L 20.1305,2.8466 L 20.1157,3.042 L 20.1008,3.2375 L 20.0858,3.4329 L 20.0706,3.6283 L 20.0551,3.8237 L 20.0395,4.019 L 20.0235,4.2144 L 20.0073,4.4097 L 19.9908,4.605 L 19.9739,4.8003 L 19.9566,4.9955 L 19.9389,5.1907 L 19.9206,5.3858 L 19.9018,5.5809 L 19.8823,5.7759 L 19.862,5.9709 L 19.8408,6.1657 L 19.8184,6.3604 L 19.7947,6.555 L 19.7694,6.7493 L 19.7418,6.9433 L 19.7112,7.1369 L 19.6761,7.3298 L 19.6337,7.5211" />
      <path d="M 18.1313,10.5286 L 18.1522,10.4869 L 18.1731,10.4451 L 18.1939,10.4033 L 18.2148,10.3616 L 18.2357,10.3198 L 18.2565,10.278 L 18.2774,10.2362 L 18.2983,10.1945 L 18.3191,10.1527 L 18.34,10.1109 L 18.3609,10.0692 L 18.3817,10.0274 L 18.4026,9.9856 L 18.4235,9.9438 L 18.4443,9.9021 L 18.4652,9.8603 L 18.486,9.8185 L 18.5069,9.7768 L 18.5278,9.735 L 18.5486,9.6932 L 18.5695,9.6514 L 18.5904,9.6097 L 18.6112,9.5679 L 18.6321,9.5261 L 18.653,9.4844 L 18.6738,9.4426 L 18.6947,9.4008 L 18.7156,9.359 L 18.7364,9.3173 L 18.7573,9.2755 L 18.7782,9.2337 L 18.799,9.1919 L 18.8199,9.1502 L 18.8408,9.1084 L 18.8616,9.0666 L 18.8825,9.0249 L 18.9034,8.9831 L 18.9242,8.9413 L 18.9451,8.8995 L 18.966,8.8578 L 18.9868,8.816 L 19.0077,8.7742 L 19.0286,8.7325 L 19.0494,8.6907 L 19.0703,8.6489 L 19.0912,8.6071 L 19.112,8.5654 L 19.1329,8.5236 L 19.1538,8.4818 L 19.1746,8.4401 L 19.1955,8.3983 L 19.2164,8.3565 L 19.2372,8.3147 L 19.2581,8.273 L 19.2789,8.2312 L 19.2998,8.1894 L 19.3207,8.1477 L 19.3415,8.1059 L 19.3624,8.0641 L 19.3833,8.0223 L 19.4041,7.9806 L 19.425,7.9388 L 19.4459,7.897 L 19.4667,7.8552 L 19.4876,7.8135 L 19.5085,7.7717 L 19.5293,7.7299 L 19.5502,7.6882 L 19.5711,7.6464 L 19.5919,7.6046 L 19.6128,7.5628 L 19.6337,7.5211" />
      <path d="M 22.5805,6.7274 L 22.5415,6.7274 L 22.5025,6.7274 L 22.4635,6.7274 L 22.4245,6.7274 L 22.3855,6.7274 L 22.3465,6.7274 L 22.3075,6.7274 L 22.2685,6.7274 L 22.2295,6.7274 L 22.1905,6.7274 L 22.1515,6.7274 L 22.1125,6.7274 L 22.0735,6.7274 L 22.0345,6.7274 L 21.9955,6.7274 L 21.9565,6.7274 L 21.9175,6.7274 L 21.8785,6.7274 L 21.8395,6.7274 L 21.8005,6.7274 L 21.7615,6.7274 L 21.7225,6.7274 L 21.6835,6.7274 L 21.6445,6.7274 L 21.6055,6.7274 L 21.5665,6.7274 L 21.5275,6.7274 L 21.4885,6.7274 L 21.4495,6.7274 L 21.4105,6.7274 L 21.3714,6.7274 L 21.3324,6.7274 L 21.2934,6.7274 L 21.2544,6.7274 L 21.2154,6.7274 L 21.1764,6.7274 L 21.1374,6.7274 L 21.0984,6.7274 L 21.0594,6.7274 L 21.0204,6.7274 L 20.9814,6.7274 L 20.9424,6.7274 L 20.9034,6.7274 L 20.8644,6.7274 L 20.8254,6.7274 L 20.7864,6.7274 L 20.7474,6.7274 L 20.7084,6.7274 L 20.6694,6.7274 L 20.6304,6.7274 L 20.5914,6.7274 L 20.5524,6.7274 L 20.5134,6.7274 L 20.4744,6.7274 L 20.4354,6.7274 L 20.3964,6.7274 L 20.3574,6.7274 L 20.3184,6.7274 L 20.2794,6.7274 L 20.2404,6.7274 L 20.2014,6.7274 L 20.1624,6.7274 L 20.1234,6.7274 L 20.0844,6.7274 L 20.0453,6.7274 L 20.0063,6.7274 L 19.9673,6.7274 L 19.9283,6.7274 L 19.8893,6.7274 L 19.8503,6.7274 L 19.8113,6.7274 L 19.7723,6.7274" />
      <path d="M 18.5904,9.6097 L 18.5904,9.6183 L 18.5904,9.6268 L 18.5904,9.6354 L 18.5904,9.644 L 18.5904,9.6526 L 18.5904,9.6612 L 18.5904,9.6697 L 18.5904,9.6783 L 18.5904,9.6869 L 18.5904,9.6955 L 18.5904,9.7041 L 18.5904,9.7126 L 18.5904,9.7212 L 18.5904,9.7298 L 18.5904,9.7384 L 18.5904,9.7469 L 18.5904,9.7555 L 18.5904,9.7641 L 18.5904,9.7727 L 18.5904,9.7813 L 18.5904,9.7898 L 18.5904,9.7984 L 18.5904,9.807 L 18.5904,9.8156 L 18.5904,9.8241 L 18.5904,9.8327 L 18.5904,9.8413 L 18.5904,9.8499 L 18.5904,9.8585 L 18.5904,9.867 L 18.5904,9.8756 L 18.5904,9.8842 L 18.5904,9.8928 L 18.5904,9.9013 L 18.5904,9.9099 L 18.5904,9.9185 L 18.5904,9.9271 L 18.5904,9.9357 L 18.5904,9.9442 L 18.5904,9.9528 L 18.5904,9.9614 L 18.5904,9.97 L 18.5904,9.9786 L 18.5904,9.9871 L 18.5904,9.9957 L 18.5904,10.0043 L 18.5904,10.0129 L 18.5904,10.0214 L 18.5904,10.03 L 18.5904,10.0386 L 18.5904,10.0472 L 18.5904,10.0558 L 18.5904,10.0643 L 18.5904,10.0729 L 18.5904,10.0815 L 18.5904,10.0901 L 18.5904,10.0986 L 18.5904,10.1072 L 18.5904,10.1158 L 18.5904,10.1244 L 18.5904,10.133 L 18.5904,10.1415 L 18.5904,10.1501 L 18.5904,10.1587 L 18.5904,10.1673 L 18.5904,10.1758 L 18.5904,10.1844 L 18.5904,10.193 L 18.5904,10.2016 L 18.5904,10.2102 L 18.5904,10.2187 L 18.5904,10.2273" />
      <path d="M 18.5904,10.2273 L 18.5856,10.2271 L 18.5809,10.2264 L 18.5763,10.2253 L 18.5718,10.2238 L 18.5674,10.2219 L 18.5631,10.2197 L 18.559,10.2173 L 18.5551,10.2146 L 18.5513,10.2117 L 18.5477,10.2087 L 18.5441,10.2055 L 18.5407,10.2022 L 18.5374,10.1987 L 18.5342,10.1952 L 18.5312,10.1916 L 18.5282,10.1879 L 18.5253,10.1841 L 18.5224,10.1803 L 18.5197,10.1764 L 18.517,10.1724 L 18.5144,10.1685 L 18.5118,10.1644 L 18.5093,10.1604 L 18.5069,10.1563 L 18.5045,10.1522 L 18.5022,10.148 L 18.4999,10.1439 L 18.4976,10.1397 L 18.4954,10.1354 L 18.4932,10.1312 L 18.4911,10.1269 L 18.489,10.1227 L 18.4869,10.1184 L 18.4849,10.1141 L 18.4829,10.1097 L 18.4809,10.1054 L 18.479,10.1011 L 18.4771,10.0967 L 18.4752,10.0923 L 18.4733,10.0879 L 18.4715,10.0835 L 18.4697,10.0791 L 18.4679,10.0747 L 18.4661,10.0703 L 18.4644,10.0659 L 18.4627,10.0614 L 18.461,10.057 L 18.4593,10.0525 L 18.4576,10.0481 L 18.456,10.0436 L 18.4543,10.0391 L 18.4527,10.0347 L 18.4511,10.0302 L 18.4495,10.0257 L 18.448,10.0212 L 18.4464,10.0167 L 18.4449,10.0122 L 18.4434,10.0077 L 18.4418,10.0031 L 18.4403,9.9986 L 18.4389,9.9941 L 18.4374,9.9896 L 18.4359,9.985 L 18.4345,9.9805 L 18.4331,9.976 L 18.4316,9.9714 L 18.4302,9.9669 L 18.4288,9.9623 L 18.4274,9.9578 L 18.4261,9.9532 L 18.4247,9.9486 L 18.4233,9.9441" />
      <path d="M 16.399,-8.9632 L 16.2667,-8.761 L 16.1978,-8.5221 L 16.1452,-8.2789 L 16.1007,-8.0341 L 16.0615,-7.7885 L 16.0259,-7.5422 L 15.993,-7.2956 L 15.9622,-7.0487 L 15.9332,-6.8016 L 15.9055,-6.5543 L 15.8791,-6.307 L 15.8537,-6.0595 L 15.8291,-5.8119 L 15.8053,-5.5642 L 15.7822,-5.3165 L 15.7597,-5.0687 L 15.7377,-4.8209 L 15.7162,-4.573 L 15.6951,-4.3251 L 15.6745,-4.0771 L 15.6541,-3.8292 L 15.6341,-3.5812 L 15.6143,-3.3332 L 15.5948,-3.0851 L 15.5756,-2.8371 L 15.5565,-2.589 L 15.5376,-2.3409 L 15.5189,-2.0928 L 15.5004,-1.8447 L 15.482,-1.5966 L 15.4637,-1.3485 L 15.4454,-1.1003 L 15.4273,-0.8522 L 15.4093,-0.604 L 15.3913,-0.3559 L 15.3733,-0.1077 L 15.3554,0.1404 L 15.3375,0.3886 L 15.3195,0.6367 L 15.3016,0.8849 L 15.2837,1.133 L 15.2657,1.3812 L 15.2476,1.6293 L 15.2295,1.8775 L 15.2113,2.1256 L 15.193,2.3738 L 15.1746,2.6219 L 15.1561,2.87 L 15.1374,3.1181 L 15.1185,3.3662 L 15.0994,3.6142 L 15.0801,3.8623 L 15.0606,4.1103 L 15.0408,4.3583 L 15.0207,4.6063 L 15.0002,4.8543 L 14.9793,5.1022 L 14.958,5.3501 L 14.9363,5.5979 L 14.9139,5.8457 L 14.891,6.0935 L 14.8673,6.3412 L 14.8427,6.5887 L 14.8172,6.8362 L 14.7906,7.0836 L 14.7625,7.3308 L 14.7328,7.5778 L 14.7009,7.8246 L 14.6663,8.071 L 14.6277,8.3168 L 14.5835,8.5616 L 14.5295,8.8044" />
      <path d="M 18.5904,10.2273 L 18.5948,10.2273 L 18.5993,10.2273 L 18.6038,10.2273 L 18.6082,10.2273 L 18.6127,10.2273 L 18.6172,10.2273 L 18.6216,10.2273 L 18.6261,10.2273 L 18.6306,10.2273 L 18.635,10.2273 L 18.6395,10.2273 L 18.644,10.2273 L 18.6484,10.2273 L 18.6529,10.2273 L 18.6574,10.2273 L 18.6618,10.2273 L 18.6663,10.2273 L 18.6708,10.2273 L 18.6752,10.2273 L 18.6797,10.2273 L 18.6841,10.2273 L 18.6886,10.2273 L 18.6931,10.2273 L 18.6975,10.2273 L 18.702,10.2273 L 18.7065,10.2273 L 18.7109,10.2273 L 18.7154,10.2273 L 18.7199,10.2273 L 18.7243,10.2273 L 18.7288,10.2273 L 18.7333,10.2273 L 18.7377,10.2273 L 18.7422,10.2273 L 18.7467,10.2273 L 18.7511,10.2273 L 18.7556,10.2273 L 18.7601,10.2273 L 18.7645,10.2273 L 18.769,10.2273 L 18.7735,10.2273 L 18.7779,10.2273 L 18.7824,10.2273 L 18.7869,10.2273 L 18.7913,10.2273 L 18.7958,10.2273 L 18.8003,10.2273 L 18.8047,10.2273 L 18.8092,10.2273 L 18.8137,10.2273 L 18.8181,10.2273 L 18.8226,10.2273 L 18.8271,10.2273 L 18.8315,10.2273 L 18.836,10.2273 L 18.8405,10.2273 L 18.8449,10.2273 L 18.8494,10.2273 L 18.8539,10.2273 L 18.8583,10.2273 L 18.8628,10.2273 L 18.8673,10.2273 L 18.8717,10.2273 L 18.8762,10.2273 L 18.8807,10.2273 L 18.8851,10.2273 L 18.8896,10.2273 L 18.8941,10.2273 L 18.8985,10.2273 L 18.903,10.2273 L 18.9074,10.2273 L 18.9119,10.2273" />
      <path d="M 18.9119,10.2273 L 18.9629,10.2273 L 19.0138,10.2273 L 19.0648,10.2273 L 19.1157,10.2273 L 19.1667,10.2273 L 19.2176,10.2273 L 19.2686,10.2273 L 19.3195,10.2273 L 19.3705,10.2273 L 19.4214,10.2273 L 19.4724,10.2273 L 19.5234,10.2273 L 19.5743,10.2273 L 19.6253,10.2273 L 19.6762,10.2273 L 19.7272,10.2273 L 19.7781,10.2273 L 19.8291,10.2274 L 19.88,10.2274 L 19.931,10.2274 L 19.9819,10.2274 L 20.0329,10.2274 L 20.0838,10.2274 L 20.1348,10.2274 L 20.1857,10.2274 L 20.2367,10.2274 L 20.2876,10.2274 L 20.3386,10.2274 L 20.3896,10.2274 L 20.4405,10.2274 L 20.4915,10.2274 L 20.5424,10.2274 L 20.5934,10.2274 L 20.6443,10.2274 L 20.6953,10.2274 L 20.7462,10.2274 L 20.7972,10.2274 L 20.8481,10.2274 L 20.8991,10.2274 L 20.95,10.2274 L 21.001,10.2274 L 21.0519,10.2274 L 21.1029,10.2274 L 21.1539,10.2274 L 21.2048,10.2274 L 21.2558,10.2274 L 21.3067,10.2274 L 21.3577,10.2274 L 21.4086,10.2274 L 21.4596,10.2274 L 21.5105,10.2274 L 21.5615,10.2274 L 21.6124,10.2274 L 21.6634,10.2274 L 21.7143,10.2274 L 21.7653,10.2274 L 21.8162,10.2274 L 21.8672,10.2274 L 21.9181,10.2274 L 21.9691,10.2274 L 22.0201,10.2274 L 22.071,10.2274 L 22.122,10.2274 L 22.1729,10.2274 L 22.2239,10.2274 L 22.2748,10.2274 L 22.3258,10.2274 L 22.3767,10.2274 L 22.4277,10.2274 L 22.4786,10.2274 L 22.5296,10.2274 L 22.5805,10.2274" />
      <path d="M 14.5295,8.8044 L 14.5795,8.8284 L 14.6295,8.8523 L 14.6795,8.8763 L 14.7296,8.9002 L 14.7796,8.9242 L 14.8296,8.9481 L 14.8796,8.9721 L 14.9297,8.996 L 14.9797,9.02 L 15.0297,9.0439 L 15.0798,9.0679 L 15.1298,9.0918 L 15.1798,9.1157 L 15.2298,9.1397 L 15.2799,9.1636 L 15.3299,9.1876 L 15.3799,9.2115 L 15.4299,9.2355 L 15.48,9.2594 L 15.53,9.2834 L 15.58,9.3073 L 15.63,9.3313 L 15.6801,9.3552 L 15.7301,9.3792 L 15.7801,9.4031 L 15.8301,9.4271 L 15.8802,9.451 L 15.9302,9.475 L 15.9802,9.4989 L 16.0302,9.5229 L 16.0803,9.5468 L 16.1303,9.5707 L 16.1803,9.5947 L 16.2303,9.6186 L 16.2804,9.6426 L 16.3304,9.6665 L 16.3804,9.6905 L 16.4305,9.7144 L 16.4805,9.7384 L 16.5305,9.7623 L 16.5805,9.7863 L 16.6306,9.8102 L 16.6806,9.8342 L 16.7306,9.8581 L 16.7806,9.8821 L 16.8307,9.906 L 16.8807,9.93 L 16.9307,9.9539 L 16.9807,9.9779 L 17.0308,10.0018 L 17.0808,10.0258 L 17.1308,10.0497 L 17.1808,10.0736 L 17.2309,10.0976 L 17.2809,10.1215 L 17.3309,10.1455 L 17.3809,10.1694 L 17.431,10.1934 L 17.481,10.2173 L 17.531,10.2413 L 17.581,10.2652 L 17.6311,10.2892 L 17.6811,10.3131 L 17.7311,10.3371 L 17.7811,10.361 L 17.8312,10.385 L 17.8812,10.4089 L 17.9312,10.4329 L 17.9813,10.4568 L 18.0313,10.4808 L 18.0813,10.5047 L 18.1313,10.5286" />
      <path d="M 20.549,-9.3065 L 20.559,-9.262 L 20.5689,-9.2175 L 20.5788,-9.173 L 20.5887,-9.1285 L 20.5987,-9.084 L 20.6086,-9.0396 L 20.6185,-8.9951 L 20.6285,-8.9506 L 20.6384,-8.9061 L 20.6483,-8.8616 L 20.6582,-8.8171 L 20.6682,-8.7726 L 20.6781,-8.7281 L 20.688,-8.6836 L 20.698,-8.6391 L 20.7079,-8.5946 L 20.7178,-8.5501 L 20.7277,-8.5056 L 20.7377,-8.4611 L 20.7476,-8.4167 L 20.7575,-8.3722 L 20.7675,-8.3277 L 20.7774,-8.2832 L 20.7873,-8.2387 L 20.7972,-8.1942 L 20.8072,-8.1497 L 20.8171,-8.1052 L 20.827,-8.0607 L 20.837,-8.0162 L 20.8469,-7.9717 L 20.8568,-7.9272 L 20.8667,-7.8827 L 20.8767,-7.8382 L 20.8866,-7.7938 L 20.8965,-7.7493 L 20.9065,-7.7048 L 20.9164,-7.6603 L 20.9263,-7.6158 L 20.9362,-7.5713 L 20.9462,-7.5268 L 20.9561,-7.4823 L 20.966,-7.4378 L 20.976,-7.3933 L 20.9859,-7.3488 L 20.9958,-7.3043 L 21.0057,-7.2598 L 21.0157,-7.2153 L 21.0256,-7.1709 L 21.0355,-7.1264 L 21.0455,-7.0819 L 21.0554,-7.0374 L 21.0653,-6.9929 L 21.0752,-6.9484 L 21.0852,-6.9039 L 21.0951,-6.8594 L 21.105,-6.8149 L 21.115,-6.7704 L 21.1249,-6.7259 L 21.1348,-6.6814 L 21.1447,-6.6369 L 21.1547,-6.5924 L 21.1646,-6.548 L 21.1745,-6.5035 L 21.1845,-6.459 L 21.1944,-6.4145 L 21.2043,-6.37 L 21.2143,-6.3255 L 21.2242,-6.281 L 21.2341,-6.2365 L 21.244,-6.192 L 21.254,-6.1475 L 21.2639,-6.103" />
      <path d="M 16.399,-8.9632 L 16.4529,-8.976 L 16.5068,-8.9888 L 16.5606,-9.0016 L 16.6145,-9.0144 L 16.6684,-9.0272 L 16.7223,-9.04 L 16.7762,-9.0528 L 16.8301,-9.0656 L 16.884,-9.0784 L 16.9379,-9.0912 L 16.9918,-9.104 L 17.0456,-9.1168 L 17.0995,-9.1296 L 17.1534,-9.1424 L 17.2073,-9.1552 L 17.2612,-9.168 L 17.3151,-9.1808 L 17.369,-9.1936 L 17.4229,-9.2064 L 17.4767,-9.2192 L 17.5306,-9.232 L 17.5845,-9.2448 L 17.6384,-9.2576 L 17.6923,-9.2704 L 17.7462,-9.2832 L 17.8001,-9.296 L 17.854,-9.3088 L 17.9078,-9.3216 L 17.9617,-9.3344 L 18.0156,-9.3472 L 18.0695,-9.36 L 18.1234,-9.3728 L 18.1773,-9.3856 L 18.2312,-9.3984 L 18.2851,-9.4112 L 18.3389,-9.424 L 18.3928,-9.4368 L 18.4467,-9.4496 L 18.5006,-9.4624 L 18.5545,-9.4752 L 18.6084,-9.488 L 18.6623,-9.5008 L 18.7162,-9.5136 L 18.77,-9.5264 L 18.8239,-9.5392 L 18.8778,-9.552 L 18.9317,-9.5648 L 18.9856,-9.5776 L 19.0395,-9.5904 L 19.0934,-9.6032 L 19.1473,-9.616 L 19.2011,-9.6288 L 19.255,-9.6416 L 19.3089,-9.6544 L 19.3628,-9.6672 L 19.4167,-9.68 L 19.4706,-9.6928 L 19.5245,-9.7056 L 19.5784,-9.7184 L 19.6322,-9.7312 L 19.6861,-9.744 L 19.74,-9.7568 L 19.7939,-9.7696 L 19.8478,-9.7824 L 19.9017,-9.7952 L 19.9556,-9.808 L 20.0095,-9.8208 L 20.0633,-9.8336 L 20.1172,-9.8464 L 20.1711,-9.8592 L 20.225,-9.872 L 20.2789,-9.8848" />
      <path d="M 22.58,10.2274 L 22.529,10.2274 L 22.4781,10.2274 L 22.4271,10.2274 L 22.3762,10.2274 L 22.3252,10.2274 L 22.2743,10.2274 L 22.2233,10.2274 L 22.1724,10.2274 L 22.1215,10.2274 L 22.0705,10.2274 L 22.0196,10.2274 L 21.9686,10.2274 L 21.9177,10.2274 L 21.8667,10.2274 L 21.8158,10.2274 L 21.7648,10.2274 L 21.7139,10.2274 L 21.6629,10.2274 L 21.612,10.2274 L 21.5611,10.2274 L 21.5101,10.2274 L 21.4592,10.2274 L 21.4082,10.2274 L 21.3573,10.2274 L 21.3063,10.2274 L 21.2554,10.2274 L 21.2044,10.2274 L 21.1535,10.2274 L 21.1026,10.2274 L 21.0516,10.2274 L 21.0007,10.2274 L 20.9497,10.2274 L 20.8988,10.2274 L 20.8478,10.2274 L 20.7969,10.2274 L 20.7459,10.2274 L 20.695,10.2274 L 20.644,10.2274 L 20.5931,10.2274 L 20.5422,10.2274 L 20.4912,10.2274 L 20.4403,10.2274 L 20.3893,10.2274 L 20.3384,10.2274 L 20.2874,10.2274 L 20.2365,10.2274 L 20.1855,10.2274 L 20.1346,10.2274 L 20.0837,10.2274 L 20.0327,10.2274 L 19.9818,10.2274 L 19.9308,10.2274 L 19.8799,10.2274 L 19.8289,10.2274 L 19.778,10.2274 L 19.727,10.2273 L 19.6761,10.2273 L 19.6251,10.2273 L 19.5742,10.2273 L 19.5233,10.2273 L 19.4723,10.2273 L 19.4214,10.2273 L 19.3704,10.2273 L 19.3195,10.2273 L 19.2685,10.2273 L 19.2176,10.2273 L 19.1666,10.2273 L 19.1157,10.2273 L 19.0647,10.2273 L 19.0138,10.2273 L 18.9629,10.2273 L 18.9119,10.2273" />
    </g>
    <g fill="none" stroke="rgb(110,110,110)" stroke-width="0.3" id="Hidden" stroke-dasharray="3.6 0.9">
      <path d="M 10.2288,0.0916 L 10.1802,0.0916 L 10.1316,0.0916 L 10.083,0.0916 L 10.0344,0.0916 L 9.9857,0.0916 L 9.9371,0.0916 L 9.8885,0.0916 L 9.8399,0.0916 L 9.7913,0.0916 L 9.7427,0.0916 L 9.6941,0.0916 L 9.6455,0.0916 L 9.5969,0.0916 L 9.5482,0.0916 L 9.4996,0.0916 L 9.451,0.0916 L 9.4024,0.0916 L 9.3538,0.0916 L 9.3052,0.0916 L 9.2566,0.0916 L 9.208,0.0916 L 9.1594,0.0916 L 9.1107,0.0916 L 9.0621,0.0916 L 9.0135,0.0916 L 8.9649,0.0916 L 8.9163,0.0916 L 8.8677,0.0916 L 8.8191,0.0916 L 8.7705,0.0916 L 8.7219,0.0916 L 8.6732,0.0916 L 8.6246,0.0916 L 8.576,0.0916 L 8.5274,0.0916 L 8.4788,0.0916 L 8.4302,0.0916 L 8.3816,0.0916 L 8.333,0.0916 L 8.2844,0.0916 L 8.2357,0.0916 L 8.1871,0.0916 L 8.1385,0.0916 L 8.0899,0.0916 L 8.0413,0.0916 L 7.9927,0.0916 L 7.9441,0.0916 L 7.8955,0.0916 L 7.8469,0.0916 L 7.7982,0.0916 L 7.7496,0.0916 L 7.701,0.0916 L 7.6524,0.0916 L 7.6038,0.0916 L 7.5552,0.0916 L 7.5066,0.0916 L 7.458,0.0916 L 7.4094,0.0916 L 7.3607,0.0916 L 7.3121,0.0916 L 7.2635,0.0916 L 7.2149,0.0916 L 7.1663,0.0916 L 7.1177,0.0916 L 7.0691,0.0916 L 7.0205,0.0916 L 6.9719,0.0916 L 6.9232,0.0916 L 6.8746,0.0916 L 6.826,0.0916 L 6.7774,0.0916 L 6.7288,0.0916" />
      <path d="M 6.7288,0.0916 L 6.7036,0.6622 L 6.6274,1.2281 L 6.5009,1.785 L 6.3253,2.3284 L 6.102,2.8541 L 5.833,3.3578 L 5.5203,3.8357 L 5.1667,4.2841 L 4.7749,4.6996 L 4.348,5.079 L 3.8894,5.4194 L 3.4028,5.7182 L 2.8919,5.9734 L 2.3607,6.183 L 1.8132,6.3455 L 1.2536,6.4598 L 0.6863,6.5251 L 0.1154,6.5411 L -0.4547,6.5077 L -1.0198,6.4253 L -1.5757,6.2946 L -2.1184,6.1166 L -2.6438,5.8928 L -3.1482,5.6249 L -3.6279,5.315 L -4.0794,4.9653 L -4.4996,4.5786 L -4.8856,4.1576 L -5.2345,3.7055 L -5.544,3.2256 L -5.8121,2.7213 L -6.0367,2.1962 L -6.2166,1.6542 L -6.3504,1.099 L -6.4374,0.5345 L -6.477,-0.0352 L -6.4691,-0.6063 L -6.4139,-1.1747 L -6.3117,-1.7366 L -6.1635,-2.2881 L -5.9702,-2.8255 L -5.7334,-3.3452 L -5.4547,-3.8437 L -5.136,-4.3176 L -4.7796,-4.7639 L -4.388,-5.1797 L -3.9639,-5.5621 L -3.51,-5.9088 L -3.0295,-6.2175 L -2.5256,-6.4863 L -2.0016,-6.7135 L -1.461,-6.8977 L -0.9074,-7.0378 L -0.3442,-7.1329 L 0.2247,-7.1827 L 0.7958,-7.1868 L 1.3654,-7.1453 L 1.9299,-7.0585 L 2.4857,-6.9272 L 3.0294,-6.7521 L 3.5574,-6.5346 L 4.0667,-6.2761 L 4.554,-5.9781 L 5.0163,-5.6428 L 5.4508,-5.2722 L 5.855,-4.8687 L 6.2263,-4.4348 L 6.5627,-3.9732 L 6.8621,-3.4868 L 7.1227,-2.9786 L 7.3431,-2.4517 L 7.5221,-1.9094" />
      <path d="M 6.7288,0.0916 L 6.7288,0.0876 L 6.7288,0.0837 L 6.7287,0.0797 L 6.7287,0.0757 L 6.7287,0.0717 L 6.7287,0.0677 L 6.7287,0.0637 L 6.7286,0.0598 L 6.7286,0.0558 L 6.7286,0.0518 L 6.7286,0.0478 L 6.7286,0.0438 L 6.7285,0.0398 L 6.7285,0.0358 L 6.7285,0.0319 L 6.7285,0.0279 L 6.7284,0.0239 L 6.7284,0.0199 L 6.7284,0.0159 L 6.7284,0.0119 L 6.7284,0.0079 L 6.7283,0.004 L 6.7283,0.0 L 6.7283,-0.004 L 6.7283,-0.008 L 6.7283,-0.012 L 6.7282,-0.016 L 6.7282,-0.0199 L 6.7282,-0.0239 L 6.7282,-0.0279 L 6.7282,-0.0319 L 6.7281,-0.0359 L 6.7281,-0.0399 L 6.7281,-0.0439 L 6.7281,-0.0478 L 6.7281,-0.0518 L 6.728,-0.0558 L 6.728,-0.0598 L 6.728,-0.0638 L 6.728,-0.0678 L 6.7279,-0.0718 L 6.7279,-0.0757 L 6.7279,-0.0797 L 6.7279,-0.0837 L 6.7279,-0.0877 L 6.7278,-0.0917 L 6.7278,-0.0957 L 6.7278,-0.0997 L 6.7278,-0.1036 L 6.7278,-0.1076 L 6.7277,-0.1116 L 6.7277,-0.1156 L 6.7277,-0.1196 L 6.7277,-0.1236 L 6.7277,-0.1275 L 6.7276,-0.1315 L 6.7276,-0.1355 L 6.7276,-0.1395 L 6.7276,-0.1435 L 6.7275,-0.1475 L 6.7275,-0.1515 L 6.7275,-0.1554 L 6.7275,-0.1594 L 6.7275,-0.1634 L 6.7274,-0.1674 L 6.7274,-0.1714 L 6.7274,-0.1754 L 6.7274,-0.1794 L 6.7274,-0.1833 L 6.7273,-0.1873 L 6.7273,-0.1913 L 6.7273,-0.1953" />
      <path d="M 22.5794,10.2274 L 22.4334,10.0099 L 22.3614,9.7461 L 22.3066,9.4782 L 22.2603,9.2086 L 22.2193,8.9381 L 22.1821,8.6671 L 22.1477,8.3958 L 22.1155,8.1241 L 22.085,7.8523 L 22.0559,7.5803 L 22.028,7.3082 L 22.0012,7.036 L 21.9752,6.7637 L 21.95,6.4913 L 21.9255,6.2189 L 21.9016,5.9464 L 21.8782,5.6739 L 21.8552,5.4013 L 21.8327,5.1287 L 21.8105,4.8561 L 21.7887,4.5834 L 21.7672,4.3107 L 21.7459,4.038 L 21.7249,3.7653 L 21.7041,3.4926 L 21.6835,3.2198 L 21.6631,2.947 L 21.6427,2.6743 L 21.6226,2.4015 L 21.6025,2.1287 L 21.5825,1.8559 L 21.5626,1.5831 L 21.5428,1.3102 L 21.523,1.0374 L 21.5032,0.7646 L 21.4835,0.4918 L 21.4637,0.219 L 21.444,-0.0539 L 21.4242,-0.3267 L 21.4043,-0.5995 L 21.3844,-0.8723 L 21.3645,-1.1451 L 21.3444,-1.4179 L 21.3243,-1.6907 L 21.304,-1.9635 L 21.2835,-2.2362 L 21.263,-2.509 L 21.2422,-2.7817 L 21.2212,-3.0545 L 21.2001,-3.3272 L 21.1786,-3.5999 L 21.1569,-3.8725 L 21.1349,-4.1452 L 21.1126,-4.4178 L 21.0899,-4.6904 L 21.0668,-4.963 L 21.0432,-5.2355 L 21.0192,-5.508 L 20.9945,-5.7804 L 20.9693,-6.0527 L 20.9433,-6.325 L 20.9165,-6.5973 L 20.8888,-6.8694 L 20.86,-7.1414 L 20.83,-7.4133 L 20.7986,-7.685 L 20.7653,-7.9565 L 20.7299,-8.2277 L 20.6918,-8.4986 L 20.6501,-8.7689 L 20.6033,-9.0384 L 20.549,-9.3065" />
      <path d="M 22.5805,6.7274 L 22.5804,6.7274 L 22.5803,6.7274 L 22.5802,6.7274 L 22.5801,6.7274" />
      <path d="M 22.5801,6.7274 L 22.58,6.7274 L 22.5799,6.7274 L 22.5798,6.7274 L 22.5797,6.7274 L 22.5796,6.7274" />
      <path d="M 19.7723,6.7274 L 19.7686,6.7273 L 19.7649,6.7273 L 19.7611,6.7273 L 19.7574,6.7273 L 19.7537,6.7273 L 19.75,6.7273 L 19.7462,6.7273 L 19.7425,6.7273 L 19.7388,6.7273 L 19.7351,6.7273 L 19.7313,6.7273 L 19.7276,6.7273 L 19.7239,6.7273 L 19.7202,6.7273 L 19.7164,6.7273 L 19.7127,6.7273 L 19.709,6.7273 L 19.7053,6.7273 L 19.7015,6.7273 L 19.6978,6.7273 L 19.6941,6.7273 L 19.6904,6.7273 L 19.6866,6.7273 L 19.6829,6.7273 L 19.6792,6.7273 L 19.6754,6.7273 L 19.6717,6.7273 L 19.668,6.7273 L 19.6643,6.7273 L 19.6605,6.7273 L 19.6568,6.7273 L 19.6531,6.7273 L 19.6494,6.7273 L 19.6456,6.7273 L 19.6419,6.7273 L 19.6382,6.7273 L 19.6345,6.7273 L 19.6307,6.7273 L 19.627,6.7273 L 19.6233,6.7273 L 19.6196,6.7273 L 19.6158,6.7273 L 19.6121,6.7273 L 19.6084,6.7273 L 19.6047,6.7273 L 19.6009,6.7273 L 19.5972,6.7273 L 19.5935,6.7273 L 19.5897,6.7273 L 19.586,6.7273 L 19.5823,6.7273 L 19.5786,6.7273 L 19.5748,6.7273 L 19.5711,6.7273 L 19.5674,6.7273 L 19.5637,6.7273 L 19.5599,6.7273 L 19.5562,6.7273 L 19.5525,6.7273 L 19.5488,6.7273 L 19.545,6.7273 L 19.5413,6.7273 L 19.5376,6.7273 L 19.5339,6.7273 L 19.5301,6.7273 L 19.5264,6.7273 L 19.5227,6.7273 L 19.519,6.7273 L 19.5152,6.7273 L 19.5115,6.7273 L 19.5078,6.7273 L 19.504,6.7273" />
      <path d="M 19.504,6.7273 L 19.4914,6.7273 L 19.4787,6.7273 L 19.466,6.7273 L 19.4533,6.7273 L 19.4406,6.7273 L 19.4279,6.7273 L 19.4152,6.7273 L 19.4025,6.7273 L 19.3898,6.7273 L 19.3771,6.7273 L 19.3645,6.7273 L 19.3518,6.7273 L 19.3391,6.7273 L 19.3264,6.7273 L 19.3137,6.7273 L 19.301,6.7273 L 19.2883,6.7273 L 19.2756,6.7273 L 19.2629,6.7273 L 19.2502,6.7273 L 19.2376,6.7273 L 19.2249,6.7273 L 19.2122,6.7273 L 19.1995,6.7273 L 19.1868,6.7273 L 19.1741,6.7273 L 19.1614,6.7273 L 19.1487,6.7273 L 19.136,6.7273 L 19.1233,6.7273 L 19.1107,6.7273 L 19.098,6.7273 L 19.0853,6.7273 L 19.0726,6.7273 L 19.0599,6.7273 L 19.0472,6.7273 L 19.0345,6.7273 L 19.0218,6.7273 L 19.0091,6.7273 L 18.9964,6.7273 L 18.9838,6.7273 L 18.9711,6.7273 L 18.9584,6.7273 L 18.9457,6.7273 L 18.933,6.7273 L 18.9203,6.7273 L 18.9076,6.7273 L 18.8949,6.7273 L 18.8822,6.7273 L 18.8695,6.7273 L 18.8569,6.7273 L 18.8442,6.7273 L 18.8315,6.7273 L 18.8188,6.7273 L 18.8061,6.7273 L 18.7934,6.7273 L 18.7807,6.7273 L 18.768,6.7273 L 18.7553,6.7273 L 18.7426,6.7273 L 18.73,6.7273 L 18.7173,6.7273 L 18.7046,6.7273 L 18.6919,6.7273 L 18.6792,6.7273 L 18.6665,6.7273 L 18.6538,6.7273 L 18.6411,6.7273 L 18.6284,6.7273 L 18.6157,6.7273 L 18.6031,6.7273 L 18.5904,6.7273" />
      <path d="M 18.5904,6.7273 L 18.5001,6.5949 L 18.4555,6.4336 L 18.4217,6.2696 L 18.3932,6.1046 L 18.368,5.939 L 18.3451,5.7731 L 18.324,5.607 L 18.3042,5.4407 L 18.2855,5.2743 L 18.2677,5.1078 L 18.2506,4.9412 L 18.2342,4.7746 L 18.2184,4.6079 L 18.203,4.4411 L 18.188,4.2743 L 18.1734,4.1075 L 18.1592,3.9406 L 18.1452,3.7738 L 18.1315,3.6069 L 18.118,3.44 L 18.1047,3.273 L 18.0917,3.1061 L 18.0788,2.9391 L 18.066,2.7721 L 18.0534,2.6052 L 18.0409,2.4382 L 18.0285,2.2712 L 18.0162,2.1042 L 18.004,1.9371 L 17.9919,1.7701 L 17.9798,1.6031 L 17.9678,1.4361 L 17.9558,1.269 L 17.9439,1.102 L 17.932,0.935 L 17.9201,0.7679 L 17.9082,0.6009 L 17.8963,0.4339 L 17.8843,0.2668 L 17.8724,0.0998 L 17.8604,-0.0672 L 17.8484,-0.2343 L 17.8364,-0.4013 L 17.8243,-0.5683 L 17.8121,-0.7353 L 17.7999,-0.9023 L 17.7875,-1.0693 L 17.7751,-1.2363 L 17.7625,-1.4033 L 17.7498,-1.5703 L 17.737,-1.7373 L 17.724,-1.9042 L 17.7109,-2.0712 L 17.6975,-2.2381 L 17.6839,-2.405 L 17.6701,-2.5719 L 17.6561,-2.7387 L 17.6417,-2.9056 L 17.627,-3.0724 L 17.6119,-3.2392 L 17.5964,-3.4059 L 17.5804,-3.5726 L 17.5639,-3.7393 L 17.5467,-3.9058 L 17.5288,-4.0723 L 17.51,-4.2387 L 17.4902,-4.405 L 17.469,-4.5711 L 17.4462,-4.737 L 17.4211,-4.9026 L 17.393,-5.0677 L 17.3599,-5.2318" />
      <path d="M 17.3599,-5.2318 L 17.3588,-5.2369 L 17.3576,-5.2421 L 17.3565,-5.2472 L 17.3553,-5.2523 L 17.3541,-5.2574 L 17.3529,-5.2625 L 17.3517,-5.2676 L 17.3505,-5.2727 L 17.3493,-5.2778 L 17.348,-5.2829 L 17.3468,-5.288 L 17.3456,-5.2931 L 17.3443,-5.2982 L 17.343,-5.3033 L 17.3417,-5.3084 L 17.3404,-5.3135 L 17.3391,-5.3185 L 17.3378,-5.3236 L 17.3365,-5.3287 L 17.3351,-5.3338 L 17.3337,-5.3388 L 17.3324,-5.3439 L 17.331,-5.3489 L 17.3296,-5.354 L 17.3281,-5.3591 L 17.3267,-5.3641 L 17.3252,-5.3691 L 17.3238,-5.3742 L 17.3223,-5.3792 L 17.3208,-5.3842 L 17.3192,-5.3892 L 17.3177,-5.3943 L 17.3161,-5.3993 L 17.3145,-5.4043 L 17.3129,-5.4092 L 17.3112,-5.4142 L 17.3096,-5.4192 L 17.3079,-5.4242 L 17.3061,-5.4291 L 17.3044,-5.4341 L 17.3026,-5.439 L 17.3008,-5.4439 L 17.2989,-5.4488 L 17.297,-5.4537 L 17.2951,-5.4586 L 17.2932,-5.4635 L 17.2911,-5.4683 L 17.2891,-5.4731 L 17.287,-5.4779 L 17.2848,-5.4827 L 17.2826,-5.4875 L 17.2804,-5.4922 L 17.278,-5.4969 L 17.2756,-5.5016 L 17.2731,-5.5062 L 17.2706,-5.5108 L 17.2679,-5.5153 L 17.2651,-5.5197 L 17.2622,-5.5241 L 17.2592,-5.5284 L 17.2561,-5.5326 L 17.2528,-5.5367 L 17.2493,-5.5406 L 17.2456,-5.5444 L 17.2417,-5.5479 L 17.2376,-5.5511 L 17.2331,-5.5539 L 17.2284,-5.5561 L 17.2234,-5.5578 L 17.2183,-5.5587 L 17.213,-5.5588 L 17.2079,-5.5579" />
      <path d="M 17.2079,-5.5579 L 17.1244,-5.4281 L 17.0811,-5.2752 L 17.048,-5.1197 L 17.0201,-4.9633 L 16.9955,-4.8062 L 16.9731,-4.6488 L 16.9524,-4.4912 L 16.9331,-4.3334 L 16.9149,-4.1755 L 16.8975,-4.0175 L 16.8809,-3.8594 L 16.8649,-3.7012 L 16.8495,-3.543 L 16.8345,-3.3848 L 16.82,-3.2265 L 16.8058,-3.0681 L 16.792,-2.9098 L 16.7785,-2.7514 L 16.7653,-2.593 L 16.7523,-2.4345 L 16.7395,-2.2761 L 16.7269,-2.1176 L 16.7145,-1.9591 L 16.7022,-1.8007 L 16.6901,-1.6421 L 16.6781,-1.4836 L 16.6663,-1.3251 L 16.6545,-1.1666 L 16.6429,-1.008 L 16.6313,-0.8495 L 16.6198,-0.691 L 16.6083,-0.5324 L 16.5969,-0.3738 L 16.5856,-0.2153 L 16.5742,-0.0567 L 16.5629,0.1018 L 16.5517,0.2604 L 16.5404,0.419 L 16.5291,0.5775 L 16.5179,0.7361 L 16.5066,0.8947 L 16.4952,1.0532 L 16.4839,1.2118 L 16.4725,1.3703 L 16.4611,1.5289 L 16.4495,1.6874 L 16.438,1.846 L 16.4263,2.0045 L 16.4145,2.163 L 16.4026,2.3216 L 16.3906,2.4801 L 16.3785,2.6386 L 16.3662,2.7971 L 16.3537,2.9555 L 16.3411,3.114 L 16.3282,3.2725 L 16.3151,3.4309 L 16.3017,3.5893 L 16.2879,3.7476 L 16.2739,3.906 L 16.2594,4.0643 L 16.2445,4.2226 L 16.2291,4.3808 L 16.213,4.5389 L 16.1962,4.697 L 16.1785,4.855 L 16.1598,5.0128 L 16.1397,5.1705 L 16.1179,5.328 L 16.0937,5.4851 L 16.0658,5.6416 L 16.0318,5.7969" />
      <path d="M 19.6337,7.5211 L 19.5836,7.4971 L 19.5336,7.4732 L 19.4836,7.4492 L 19.4336,7.4253 L 19.3835,7.4013 L 19.3335,7.3774 L 19.2835,7.3534 L 19.2335,7.3295 L 19.1834,7.3055 L 19.1334,7.2816 L 19.0834,7.2577 L 19.0334,7.2337 L 18.9833,7.2098 L 18.9333,7.1858 L 18.8833,7.1619 L 18.8333,7.1379 L 18.7832,7.114 L 18.7332,7.09 L 18.6832,7.0661 L 18.6331,7.0421 L 18.5831,7.0182 L 18.5331,6.9942 L 18.4831,6.9703 L 18.433,6.9463 L 18.383,6.9224 L 18.333,6.8984 L 18.283,6.8745 L 18.2329,6.8505 L 18.1829,6.8266 L 18.1329,6.8026 L 18.0829,6.7787 L 18.0328,6.7548 L 17.9828,6.7308 L 17.9328,6.7069 L 17.8828,6.6829 L 17.8327,6.659 L 17.7827,6.635 L 17.7327,6.6111 L 17.6827,6.5871 L 17.6326,6.5632 L 17.5826,6.5392 L 17.5326,6.5153 L 17.4826,6.4913 L 17.4325,6.4674 L 17.3825,6.4434 L 17.3325,6.4195 L 17.2825,6.3955 L 17.2324,6.3716 L 17.1824,6.3476 L 17.1324,6.3237 L 17.0823,6.2998 L 17.0323,6.2758 L 16.9823,6.2519 L 16.9323,6.2279 L 16.8822,6.204 L 16.8322,6.18 L 16.7822,6.1561 L 16.7322,6.1321 L 16.6821,6.1082 L 16.6321,6.0842 L 16.5821,6.0603 L 16.5321,6.0363 L 16.482,6.0124 L 16.432,5.9884 L 16.382,5.9645 L 16.332,5.9405 L 16.2819,5.9166 L 16.2319,5.8926 L 16.1819,5.8687 L 16.1319,5.8447 L 16.0818,5.8208 L 16.0318,5.7969" />
      <path d="M 18.5904,6.7273 L 18.5904,6.7674 L 18.5904,6.8074 L 18.5904,6.8474 L 18.5904,6.8875 L 18.5904,6.9275 L 18.5904,6.9675 L 18.5904,7.0075 L 18.5904,7.0476 L 18.5904,7.0876 L 18.5904,7.1276 L 18.5904,7.1677 L 18.5904,7.2077 L 18.5904,7.2477 L 18.5904,7.2878 L 18.5904,7.3278 L 18.5904,7.3678 L 18.5904,7.4079 L 18.5904,7.4479 L 18.5904,7.4879 L 18.5904,7.528 L 18.5904,7.568 L 18.5904,7.608 L 18.5904,7.6481 L 18.5904,7.6881 L 18.5904,7.7281 L 18.5904,7.7682 L 18.5904,7.8082 L 18.5904,7.8482 L 18.5904,7.8883 L 18.5904,7.9283 L 18.5904,7.9683 L 18.5904,8.0084 L 18.5904,8.0484 L 18.5904,8.0884 L 18.5904,8.1285 L 18.5904,8.1685 L 18.5904,8.2085 L 18.5904,8.2486 L 18.5904,8.2886 L 18.5904,8.3286 L 18.5904,8.3687 L 18.5904,8.4087 L 18.5904,8.4487 L 18.5904,8.4888 L 18.5904,8.5288 L 18.5904,8.5688 L 18.5904,8.6089 L 18.5904,8.6489 L 18.5904,8.6889 L 18.5904,8.729 L 18.5904,8.769 L 18.5904,8.809 L 18.5904,8.8491 L 18.5904,8.8891 L 18.5904,8.9291 L 18.5904,8.9692 L 18.5904,9.0092 L 18.5904,9.0492 L 18.5904,9.0893 L 18.5904,9.1293 L 18.5904,9.1693 L 18.5904,9.2094 L 18.5904,9.2494 L 18.5904,9.2894 L 18.5904,9.3295 L 18.5904,9.3695 L 18.5904,9.4095 L 18.5904,9.4496 L 18.5904,9.4896 L 18.5904,9.5296 L 18.5904,9.5697 L 18.5904,9.6097" />
      <path d="M 18.4233,9.9441 L 18.3609,9.6952 L 18.3113,9.4435 L 18.2686,9.1904 L 18.2306,8.9367 L 18.1958,8.6824 L 18.1635,8.4279 L 18.1331,8.173 L 18.1044,7.918 L 18.0769,7.6629 L 18.0506,7.4076 L 18.0252,7.1523 L 18.0007,6.8969 L 17.9769,6.6413 L 17.9537,6.3858 L 17.931,6.1302 L 17.9089,5.8745 L 17.8872,5.6188 L 17.8659,5.3631 L 17.845,5.1073 L 17.8244,4.8516 L 17.804,4.5957 L 17.784,4.3399 L 17.7641,4.0841 L 17.7445,3.8282 L 17.7251,3.5723 L 17.7058,3.3165 L 17.6867,3.0606 L 17.6677,2.8046 L 17.6488,2.5487 L 17.63,2.2928 L 17.6113,2.0369 L 17.5926,1.7809 L 17.5741,1.525 L 17.5555,1.2691 L 17.537,1.0131 L 17.5185,0.7572 L 17.5,0.5012 L 17.4815,0.2453 L 17.4629,-0.0107 L 17.4443,-0.2666 L 17.4257,-0.5225 L 17.407,-0.7785 L 17.3882,-1.0344 L 17.3693,-1.2903 L 17.3503,-1.5462 L 17.3312,-1.8021 L 17.3119,-2.058 L 17.2925,-2.3139 L 17.2729,-2.5697 L 17.253,-2.8256 L 17.233,-3.0814 L 17.2127,-3.3372 L 17.1921,-3.593 L 17.1712,-3.8488 L 17.15,-4.1045 L 17.1284,-4.3602 L 17.1064,-4.6159 L 17.0839,-4.8715 L 17.0609,-5.1271 L 17.0373,-5.3826 L 17.0131,-5.6381 L 16.9881,-5.8935 L 16.9622,-6.1488 L 16.9354,-6.404 L 16.9074,-6.6591 L 16.8781,-6.914 L 16.8471,-7.1687 L 16.814,-7.4232 L 16.7785,-7.6773 L 16.7395,-7.931 L 16.6959,-8.1838 L 16.645,-8.4353" />
      <path d="M 16.645,-8.4353 L 16.6432,-8.4436 L 16.6413,-8.4519 L 16.6394,-8.4602 L 16.6375,-8.4685 L 16.6356,-8.4767 L 16.6337,-8.485 L 16.6318,-8.4933 L 16.6298,-8.5015 L 16.6278,-8.5098 L 16.6258,-8.5181 L 16.6238,-8.5263 L 16.6218,-8.5345 L 16.6198,-8.5428 L 16.6177,-8.551 L 16.6156,-8.5593 L 16.6135,-8.5675 L 16.6114,-8.5757 L 16.6092,-8.5839 L 16.6071,-8.5921 L 16.6049,-8.6003 L 16.6027,-8.6085 L 16.6005,-8.6167 L 16.5982,-8.6249 L 16.5959,-8.6331 L 16.5936,-8.6413 L 16.5913,-8.6494 L 16.5889,-8.6576 L 16.5865,-8.6657 L 16.5841,-8.6739 L 16.5817,-8.682 L 16.5792,-8.6901 L 16.5767,-8.6982 L 16.5741,-8.7063 L 16.5715,-8.7144 L 16.5689,-8.7225 L 16.5663,-8.7306 L 16.5636,-8.7386 L 16.5608,-8.7466 L 16.558,-8.7547 L 16.5552,-8.7627 L 16.5523,-8.7706 L 16.5494,-8.7786 L 16.5464,-8.7866 L 16.5433,-8.7945 L 16.5402,-8.8024 L 16.537,-8.8103 L 16.5338,-8.8181 L 16.5304,-8.8259 L 16.527,-8.8337 L 16.5236,-8.8414 L 16.52,-8.8491 L 16.5163,-8.8568 L 16.5125,-8.8644 L 16.5086,-8.8719 L 16.5046,-8.8794 L 16.5004,-8.8868 L 16.4961,-8.8941 L 16.4917,-8.9013 L 16.487,-8.9084 L 16.4821,-8.9154 L 16.4771,-8.9222 L 16.4717,-8.9288 L 16.4661,-8.9351 L 16.4601,-8.9412 L 16.4538,-8.9469 L 16.4471,-8.952 L 16.4399,-8.9566 L 16.4323,-8.9603 L 16.4242,-8.963 L 16.4158,-8.9644 L 16.4074,-8.9645 L 16.399,-8.9632" />
      <path d="M 16.0318,5.7969 L 16.0109,5.8386 L 15.9901,5.8804 L 15.9692,5.9222 L 15.9483,5.9639 L 15.9275,6.0057 L 15.9066,6.0475 L 15.8857,6.0893 L 15.8649,6.131 L 15.844,6.1728 L 15.8231,6.2146 L 15.8023,6.2563 L 15.7814,6.2981 L 15.7605,6.3399 L 15.7397,6.3817 L 15.7188,6.4234 L 15.698,6.4652 L 15.6771,6.507 L 15.6562,6.5487 L 15.6354,6.5905 L 15.6145,6.6323 L 15.5936,6.6741 L 15.5728,6.7158 L 15.5519,6.7576 L 15.531,6.7994 L 15.5102,6.8412 L 15.4893,6.8829 L 15.4684,6.9247 L 15.4476,6.9665 L 15.4267,7.0082 L 15.4058,7.05 L 15.385,7.0918 L 15.3641,7.1336 L 15.3432,7.1753 L 15.3224,7.2171 L 15.3015,7.2589 L 15.2806,7.3006 L 15.2598,7.3424 L 15.2389,7.3842 L 15.218,7.426 L 15.1972,7.4677 L 15.1763,7.5095 L 15.1554,7.5513 L 15.1346,7.593 L 15.1137,7.6348 L 15.0928,7.6766 L 15.072,7.7184 L 15.0511,7.7601 L 15.0302,7.8019 L 15.0094,7.8437 L 14.9885,7.8854 L 14.9676,7.9272 L 14.9468,7.969 L 14.9259,8.0108 L 14.9051,8.0525 L 14.8842,8.0943 L 14.8633,8.1361 L 14.8425,8.1779 L 14.8216,8.2196 L 14.8007,8.2614 L 14.7799,8.3032 L 14.759,8.3449 L 14.7381,8.3867 L 14.7173,8.4285 L 14.6964,8.4703 L 14.6755,8.512 L 14.6547,8.5538 L 14.6338,8.5956 L 14.6129,8.6373 L 14.5921,8.6791 L 14.5712,8.7209 L 14.5503,8.7627 L 14.5295,8.8044" />
      <path d="M 22.5801,6.7274 L 22.5373,6.7274 L 22.4946,6.7274 L 22.4519,6.7274 L 22.4092,6.7274 L 22.3664,6.7274 L 22.3237,6.7274 L 22.281,6.7274 L 22.2383,6.7274 L 22.1956,6.7274 L 22.1528,6.7274 L 22.1101,6.7274 L 22.0674,6.7274 L 22.0247,6.7274 L 21.9819,6.7274 L 21.9392,6.7274 L 21.8965,6.7274 L 21.8538,6.7274 L 21.8111,6.7274 L 21.7683,6.7274 L 21.7256,6.7274 L 21.6829,6.7274 L 21.6402,6.7274 L 21.5974,6.7274 L 21.5547,6.7274 L 21.512,6.7274 L 21.4693,6.7274 L 21.4266,6.7274 L 21.3838,6.7274 L 21.3411,6.7274 L 21.2984,6.7274 L 21.2557,6.7274 L 21.2129,6.7274 L 21.1702,6.7274 L 21.1275,6.7274 L 21.0848,6.7274 L 21.0421,6.7274 L 20.9993,6.7274 L 20.9566,6.7274 L 20.9139,6.7274 L 20.8712,6.7274 L 20.8284,6.7274 L 20.7857,6.7274 L 20.743,6.7274 L 20.7003,6.7274 L 20.6576,6.7274 L 20.6148,6.7274 L 20.5721,6.7274 L 20.5294,6.7274 L 20.4867,6.7274 L 20.4439,6.7274 L 20.4012,6.7274 L 20.3585,6.7274 L 20.3158,6.7274 L 20.2731,6.7274 L 20.2303,6.7274 L 20.1876,6.7274 L 20.1449,6.7274 L 20.1022,6.7274 L 20.0594,6.7274 L 20.0167,6.7274 L 19.974,6.7274 L 19.9313,6.7274 L 19.8886,6.7274 L 19.8458,6.7274 L 19.8031,6.7274 L 19.7604,6.7273 L 19.7177,6.7273 L 19.6749,6.7273 L 19.6322,6.7273 L 19.5895,6.7273 L 19.5468,6.7273 L 19.504,6.7273" />
      <path d="M 21.0878,-6.4796 L 21.0339,-6.4668 L 20.98,-6.454 L 20.9261,-6.4412 L 20.8722,-6.4284 L 20.8183,-6.4156 L 20.7644,-6.4028 L 20.7106,-6.39 L 20.6567,-6.3772 L 20.6028,-6.3644 L 20.5489,-6.3516 L 20.495,-6.3388 L 20.4411,-6.326 L 20.3872,-6.3132 L 20.3333,-6.3004 L 20.2795,-6.2876 L 20.2256,-6.2748 L 20.1717,-6.262 L 20.1178,-6.2492 L 20.0639,-6.2364 L 20.01,-6.2236 L 19.9561,-6.2108 L 19.9022,-6.198 L 19.8484,-6.1852 L 19.7945,-6.1724 L 19.7406,-6.1596 L 19.6867,-6.1468 L 19.6328,-6.134 L 19.5789,-6.1212 L 19.525,-6.1084 L 19.4711,-6.0956 L 19.4173,-6.0828 L 19.3634,-6.07 L 19.3095,-6.0572 L 19.2556,-6.0444 L 19.2017,-6.0316 L 19.1478,-6.0188 L 19.0939,-6.006 L 19.04,-5.9932 L 18.9862,-5.9804 L 18.9323,-5.9676 L 18.8784,-5.9548 L 18.8245,-5.942 L 18.7706,-5.9292 L 18.7167,-5.9164 L 18.6628,-5.9036 L 18.6089,-5.8908 L 18.555,-5.878 L 18.5012,-5.8652 L 18.4473,-5.8524 L 18.3934,-5.8396 L 18.3395,-5.8268 L 18.2856,-5.814 L 18.2317,-5.8012 L 18.1778,-5.7884 L 18.1239,-5.7756 L 18.0701,-5.7628 L 18.0162,-5.75 L 17.9623,-5.7371 L 17.9084,-5.7243 L 17.8545,-5.7115 L 17.8006,-5.6987 L 17.7467,-5.6859 L 17.6928,-5.6731 L 17.639,-5.6603 L 17.5851,-5.6475 L 17.5312,-5.6347 L 17.4773,-5.6219 L 17.4234,-5.6091 L 17.3695,-5.5963 L 17.3156,-5.5835 L 17.2617,-5.5707 L 17.2079,-5.5579" />
      <path d="M 17.3599,-5.2318 L 17.35,-5.2763 L 17.3401,-5.3208 L 17.3301,-5.3653 L 17.3202,-5.4098 L 17.3103,-5.4543 L 17.3003,-5.4988 L 17.2904,-5.5433 L 17.2805,-5.5878 L 17.2706,-5.6323 L 17.2606,-5.6768 L 17.2507,-5.7212 L 17.2408,-5.7657 L 17.2308,-5.8102 L 17.2209,-5.8547 L 17.211,-5.8992 L 17.2011,-5.9437 L 17.1911,-5.9882 L 17.1812,-6.0327 L 17.1713,-6.0772 L 17.1613,-6.1217 L 17.1514,-6.1662 L 17.1415,-6.2107 L 17.1316,-6.2552 L 17.1216,-6.2997 L 17.1117,-6.3442 L 17.1018,-6.3886 L 17.0918,-6.4331 L 17.0819,-6.4776 L 17.072,-6.5221 L 17.0621,-6.5666 L 17.0521,-6.6111 L 17.0422,-6.6556 L 17.0323,-6.7001 L 17.0223,-6.7446 L 17.0124,-6.7891 L 17.0025,-6.8336 L 16.9926,-6.8781 L 16.9826,-6.9226 L 16.9727,-6.9671 L 16.9628,-7.0116 L 16.9528,-7.0561 L 16.9429,-7.1005 L 16.933,-7.145 L 16.9231,-7.1895 L 16.9131,-7.234 L 16.9032,-7.2785 L 16.8933,-7.323 L 16.8833,-7.3675 L 16.8734,-7.412 L 16.8635,-7.4565 L 16.8535,-7.501 L 16.8436,-7.5455 L 16.8337,-7.59 L 16.8238,-7.6345 L 16.8138,-7.679 L 16.8039,-7.7235 L 16.794,-7.7679 L 16.784,-7.8124 L 16.7741,-7.8569 L 16.7642,-7.9014 L 16.7543,-7.9459 L 16.7443,-7.9904 L 16.7344,-8.0349 L 16.7245,-8.0794 L 16.7145,-8.1239 L 16.7046,-8.1684 L 16.6947,-8.2129 L 16.6848,-8.2574 L 16.6748,-8.3019 L 16.6649,-8.3464 L 16.655,-8.3909 L 16.645,-8.4353" />
    </g>
    <g fill="none" stroke="rgb(0,0,0)" stroke-width="0.2" id="Center" stroke-dasharray="6.35 1.27 1.27 1.27">
      <line x1="0.3218" y1="-0.2308" x2="-11.5258" y2="-0.2308" />
      <line x1="0.3218" y1="-0.2308" x2="12.1695" y2="-0.2308" />
      <line x1="0.3218" y1="-0.2308" x2="0.3218" y2="-12.1199" />
      <line x1="0.3218" y1="-0.2308" x2="0.3218" y2="11.6583" />
      <line x1="18.555" y1="0.3211" x2="12.8895" y2="0.3211" />
      <line x1="18.555" y1="0.3211" x2="24.2205" y2="0.3211" />
    </g>
  </g>
</svg>