<?xml version='1.0' encoding='utf-8'?>
<svg width="35.8353mm" height="29.0482mm" viewBox="-14.1348 -14.4694 35.8353 29.0482" version="1.1" xmlns="http://www.w3.org/2000/svg">
  <g transform="scale(1,-1)" stroke-linecap="round">
    <g fill="none" stroke="rgb(0,0,0)" stroke-width="0.4" id="Visible">
      <path d="M 6.3651,-0.0547 L 6.3444,0.443 L 6.2822,0.9373 L 6.1791,1.4247 L 6.0358,1.9018 L 5.8532,2.3653 L 5.6326,2.812 L 5.3757,3.2388 L 5.084,3.6427 L 4.7597,4.0209 L 4.4051,4.3707 L 4.0225,4.6898 L 3.6147,4.976 L 3.1845,5.2271 L 2.7349,5.4416 L 2.2689,5.6179 L 1.7899,5.7547 L 1.3012,5.8512 L 0.8061,5.9067 L 0.3081,5.9207 L -0.1893,5.8931 L -0.6827,5.8243 L -1.1686,5.7146 L -1.6438,5.5648 L -2.1048,5.3759 L -2.5484,5.1493 L -2.9717,4.8866 L -3.3715,4.5895 L -3.7453,4.2601 L -4.0903,3.9007 L -4.4042,3.5139 L -4.6848,3.1022 L -4.9301,2.6686 L -5.1384,2.2161 L -5.3084,1.7478 L -5.4387,1.267 L -5.5285,0.777 L -5.5772,0.2812 L -5.5845,-0.2169 L -5.5502,-0.7139 L -5.4747,-1.2063 L -5.3584,-1.6907 L -5.2021,-2.1638 L -5.007,-2.6222 L -4.7744,-3.0627 L -4.506,-3.4823 L -4.2035,-3.8782 L -3.869,-4.2474 L -3.505,-4.5875 L -3.1139,-4.8961 L -2.6985,-5.1711 L -2.2616,-5.4105 L -1.8063,-5.6127 L -1.3358,-5.7762 L -0.8532,-5.9 L -0.3621,-5.9832 L 0.1343,-6.0252 L 0.6325,-6.0257 L 1.129,-5.9846 L 1.6204,-5.9024 L 2.1031,-5.7796 L 2.574,-5.6169 L 3.0297,-5.4156 L 3.467,-5.1771 L 3.883,-4.9029 L 4.2747,-4.5951 L 4.6393,-4.2557 L 4.9745,-3.8871 L 5.2778,-3.4918 L 5.547,-3.0727 L 5.7805,-2.6326 L 5.9765,-2.1746 L 6.1336,-1.7019" />
      <path d="M 11.0133,-0.0547 L 10.9764,0.8302 L 10.8659,1.7089 L 10.6826,2.5754 L 10.4278,3.4236 L 10.1032,4.2477 L 9.7111,5.0418 L 9.2542,5.8005 L 8.7357,6.5186 L 8.1592,7.1909 L 7.5287,7.8129 L 6.8486,8.3802 L 6.1236,8.8889 L 5.3588,9.3355 L 4.5594,9.7167 L 3.731,10.0301 L 2.8794,10.2734 L 2.0105,10.4449 L 1.1304,10.5435 L 0.245,10.5684 L -0.6393,10.5195 L -1.5164,10.3971 L -2.3804,10.202 L -3.225,9.9357 L -4.0446,9.5999 L -4.8333,9.1971 L -5.5858,8.73 L -6.2967,8.2018 L -6.9612,7.6162 L -7.5745,6.9773 L -8.1326,6.2896 L -8.6314,5.5577 L -9.0675,4.7869 L -9.4379,3.9824 L -9.74,3.1498 L -9.9717,2.295 L -10.1314,1.4239 L -10.218,0.5425 L -10.2309,-0.3431 L -10.17,-1.2267 L -10.0357,-2.1021 L -9.8289,-2.9633 L -9.5512,-3.8043 L -9.2043,-4.6192 L -8.7908,-5.4024 L -8.3135,-6.1484 L -7.7757,-6.8521 L -7.1812,-7.5086 L -6.534,-8.1132 L -5.8387,-8.6619 L -5.1002,-9.1507 L -4.3235,-9.5763 L -3.5141,-9.9358 L -2.6775,-10.2265 L -1.8196,-10.4466 L -0.9464,-10.5945 L -0.0639,-10.6691 L 0.8218,-10.67 L 1.7044,-10.5971 L 2.578,-10.4509 L 3.4363,-10.2325 L 4.2734,-9.9433 L 5.0835,-9.5854 L 5.8611,-9.1613 L 6.6006,-8.6739 L 7.2969,-8.1266 L 7.9452,-7.5232 L 8.541,-6.8679 L 9.0802,-6.1653 L 9.5589,-5.4202 L 9.974,-4.6378 L 10.3224,-3.8235 L 10.6018,-2.9831" />
      <path d="M 10.5493,-0.0546 L 10.514,0.7917 L 10.4083,1.6321 L 10.233,2.4607 L 9.9893,3.272 L 9.6788,4.06 L 9.3038,4.8195 L 8.8669,5.5451 L 8.371,6.2318 L 7.8197,6.8749 L 7.2167,7.4697 L 6.5662,8.0123 L 5.8729,8.4988 L 5.1414,8.9258 L 4.3769,9.2905 L 3.5846,9.5902 L 2.7702,9.8229 L 1.9392,9.9869 L 1.0975,10.0812 L 0.2508,10.105 L -0.595,10.0582 L -1.4338,9.9411 L -2.2601,9.7546 L -3.0679,9.4999 L -3.8517,9.1788 L -4.606,8.7935 L -5.3256,8.3468 L -6.0056,7.8416 L -6.641,7.2816 L -7.2276,6.6706 L -7.7613,6.0128 L -8.2384,5.3129 L -8.6555,4.5757 L -9.0097,3.8063 L -9.2986,3.0101 L -9.5202,2.1926 L -9.673,1.3594 L -9.7558,0.5165 L -9.7681,-0.3304 L -9.7099,-1.1755 L -9.5814,-2.0127 L -9.3837,-2.8363 L -9.118,-3.6406 L -8.7863,-4.42 L -8.3908,-5.169 L -7.9343,-5.8825 L -7.42,-6.5555 L -6.8514,-7.1833 L -6.2325,-7.7616 L -5.5676,-8.2863 L -4.8613,-8.7538 L -4.1185,-9.1608 L -3.3443,-9.5046 L -2.5443,-9.7827 L -1.7238,-9.9932 L -0.8887,-10.1346 L -0.0447,-10.2059 L 0.8024,-10.2068 L 1.6465,-10.137 L 2.4819,-9.9972 L 3.3028,-9.7883 L 4.1034,-9.5118 L 4.8782,-9.1695 L 5.6218,-8.7639 L 6.329,-8.2978 L 6.9949,-7.7744 L 7.615,-7.1973 L 8.1848,-6.5706 L 8.7004,-5.8986 L 9.1583,-5.186 L 9.5552,-4.4378 L 9.8884,-3.659 L 10.1557,-2.8553" />
      <path d="M 11.0133,-0.0547 L 11.0069,-0.0547 L 11.0004,-0.0547 L 10.994,-0.0547 L 10.9876,-0.0547 L 10.9811,-0.0547 L 10.9747,-0.0547 L 10.9682,-0.0547 L 10.9618,-0.0547 L 10.9553,-0.0547 L 10.9489,-0.0547 L 10.9424,-0.0547 L 10.936,-0.0547 L 10.9295,-0.0547 L 10.9231,-0.0547 L 10.9167,-0.0547 L 10.9102,-0.0547 L 10.9038,-0.0547 L 10.8973,-0.0547 L 10.8909,-0.0547 L 10.8844,-0.0547 L 10.878,-0.0547 L 10.8715,-0.0547 L 10.8651,-0.0547 L 10.8586,-0.0547 L 10.8522,-0.0547 L 10.8458,-0.0547 L 10.8393,-0.0547 L 10.8329,-0.0547 L 10.8264,-0.0547 L 10.82,-0.0547 L 10.8135,-0.0547 L 10.8071,-0.0547 L 10.8006,-0.0547 L 10.7942,-0.0547 L 10.7877,-0.0547 L 10.7813,-0.0547 L 10.7749,-0.0547 L 10.7684,-0.0547 L 10.762,-0.0547 L 10.7555,-0.0547 L 10.7491,-0.0547 L 10.7426,-0.0547 L 10.7362,-0.0547 L 10.7297,-0.0547 L 10.7233,-0.0547 L 10.7168,-0.0547 L 10.7104,-0.0547 L 10.704,-0.0547 L 10.6975,-0.0547 L 10.6911,-0.0547 L 10.6846,-0.0547 L 10.6782,-0.0546 L 10.6717,-0.0546 L 10.6653,-0.0546 L 10.6588,-0.0546 L 10.6524,-0.0546 L 10.6459,-0.0546 L 10.6395,-0.0546 L 10.633,-0.0546 L 10.6266,-0.0546 L 10.6202,-0.0546 L 10.6137,-0.0546 L 10.6073,-0.0546 L 10.6008,-0.0546 L 10.5944,-0.0546 L 10.5879,-0.0546 L 10.5815,-0.0546 L 10.575,-0.0546 L 10.5686,-0.0546 L 10.5621,-0.0546 L 10.5557,-0.0546 L 10.5493,-0.0546" />
      <path d="M 10.6018,-2.9831 L 10.5956,-2.9813 L 10.5894,-2.9795 L 10.5832,-2.9778 L 10.577,-2.976 L 10.5708,-2.9742 L 10.5646,-2.9724 L 10.5584,-2.9707 L 10.5522,-2.9689 L 10.546,-2.9671 L 10.5398,-2.9653 L 10.5336,-2.9636 L 10.5274,-2.9618 L 10.5212,-2.96 L 10.515,-2.9582 L 10.5088,-2.9565 L 10.5026,-2.9547 L 10.4964,-2.9529 L 10.4902,-2.9511 L 10.4841,-2.9494 L 10.4779,-2.9476 L 10.4717,-2.9458 L 10.4655,-2.944 L 10.4593,-2.9423 L 10.4531,-2.9405 L 10.4469,-2.9387 L 10.4407,-2.9369 L 10.4345,-2.9352 L 10.4283,-2.9334 L 10.4221,-2.9316 L 10.4159,-2.9298 L 10.4097,-2.9281 L 10.4035,-2.9263 L 10.3973,-2.9245 L 10.3911,-2.9227 L 10.3849,-2.921 L 10.3787,-2.9192 L 10.3725,-2.9174 L 10.3663,-2.9156 L 10.3601,-2.9139 L 10.3539,-2.9121 L 10.3477,-2.9103 L 10.3415,-2.9085 L 10.3353,-2.9068 L 10.3291,-2.905 L 10.323,-2.9032 L 10.3168,-2.9014 L 10.3106,-2.8996 L 10.3044,-2.8979 L 10.2982,-2.8961 L 10.292,-2.8943 L 10.2858,-2.8925 L 10.2796,-2.8908 L 10.2734,-2.889 L 10.2672,-2.8872 L 10.261,-2.8854 L 10.2548,-2.8837 L 10.2486,-2.8819 L 10.2424,-2.8801 L 10.2362,-2.8783 L 10.23,-2.8766 L 10.2238,-2.8748 L 10.2176,-2.873 L 10.2114,-2.8712 L 10.2052,-2.8695 L 10.199,-2.8677 L 10.1928,-2.8659 L 10.1866,-2.8641 L 10.1804,-2.8624 L 10.1742,-2.8606 L 10.168,-2.8588 L 10.1619,-2.857 L 10.1557,-2.8553" />
      <path d="M 6.3651,-0.0547 L 6.4233,-0.0547 L 6.4814,-0.0547 L 6.5395,-0.0547 L 6.5976,-0.0547 L 6.6557,-0.0547 L 6.7138,-0.0547 L 6.7719,-0.0547 L 6.83,-0.0547 L 6.8882,-0.0547 L 6.9463,-0.0547 L 7.0044,-0.0547 L 7.0625,-0.0547 L 7.1206,-0.0547 L 7.1787,-0.0547 L 7.2368,-0.0547 L 7.2949,-0.0547 L 7.3531,-0.0547 L 7.4112,-0.0547 L 7.4693,-0.0547 L 7.5274,-0.0547 L 7.5855,-0.0547 L 7.6436,-0.0547 L 7.7017,-0.0547 L 7.7598,-0.0547 L 7.818,-0.0547 L 7.8761,-0.0547 L 7.9342,-0.0547 L 7.9923,-0.0547 L 8.0504,-0.0547 L 8.1085,-0.0547 L 8.1666,-0.0547 L 8.2247,-0.0547 L 8.2829,-0.0547 L 8.341,-0.0547 L 8.3991,-0.0547 L 8.4572,-0.0547 L 8.5153,-0.0547 L 8.5734,-0.0547 L 8.6315,-0.0547 L 8.6896,-0.0547 L 8.7478,-0.0547 L 8.8059,-0.0547 L 8.864,-0.0547 L 8.9221,-0.0547 L 8.9802,-0.0547 L 9.0383,-0.0547 L 9.0964,-0.0547 L 9.1546,-0.0547 L 9.2127,-0.0547 L 9.2708,-0.0547 L 9.3289,-0.0546 L 9.387,-0.0546 L 9.4451,-0.0546 L 9.5032,-0.0546 L 9.5613,-0.0546 L 9.6195,-0.0546 L 9.6776,-0.0546 L 9.7357,-0.0546 L 9.7938,-0.0546 L 9.8519,-0.0546 L 9.91,-0.0546 L 9.9681,-0.0546 L 10.0262,-0.0546 L 10.0844,-0.0546 L 10.1425,-0.0546 L 10.2006,-0.0546 L 10.2587,-0.0546 L 10.3168,-0.0546 L 10.3749,-0.0546 L 10.433,-0.0546 L 10.4911,-0.0546 L 10.5493,-0.0546" />
      <path d="M 6.1336,-1.7019 L 6.1895,-1.7179 L 6.2454,-1.7339 L 6.3012,-1.7499 L 6.3571,-1.766 L 6.4129,-1.782 L 6.4688,-1.798 L 6.5247,-1.814 L 6.5805,-1.83 L 6.6364,-1.8461 L 6.6923,-1.8621 L 6.7481,-1.8781 L 6.804,-1.8941 L 6.8598,-1.9101 L 6.9157,-1.9262 L 6.9716,-1.9422 L 7.0274,-1.9582 L 7.0833,-1.9742 L 7.1391,-1.9902 L 7.195,-2.0062 L 7.2509,-2.0223 L 7.3067,-2.0383 L 7.3626,-2.0543 L 7.4185,-2.0703 L 7.4743,-2.0863 L 7.5302,-2.1024 L 7.586,-2.1184 L 7.6419,-2.1344 L 7.6978,-2.1504 L 7.7536,-2.1664 L 7.8095,-2.1825 L 7.8653,-2.1985 L 7.9212,-2.2145 L 7.9771,-2.2305 L 8.0329,-2.2465 L 8.0888,-2.2626 L 8.1446,-2.2786 L 8.2005,-2.2946 L 8.2564,-2.3106 L 8.3122,-2.3266 L 8.3681,-2.3426 L 8.424,-2.3587 L 8.4798,-2.3747 L 8.5357,-2.3907 L 8.5915,-2.4067 L 8.6474,-2.4227 L 8.7033,-2.4388 L 8.7591,-2.4548 L 8.815,-2.4708 L 8.8708,-2.4868 L 8.9267,-2.5028 L 8.9826,-2.5189 L 9.0384,-2.5349 L 9.0943,-2.5509 L 9.1502,-2.5669 L 9.206,-2.5829 L 9.2619,-2.599 L 9.3177,-2.615 L 9.3736,-2.631 L 9.4295,-2.647 L 9.4853,-2.663 L 9.5412,-2.679 L 9.597,-2.6951 L 9.6529,-2.7111 L 9.7088,-2.7271 L 9.7646,-2.7431 L 9.8205,-2.7591 L 9.8763,-2.7752 L 9.9322,-2.7912 L 9.9881,-2.8072 L 10.0439,-2.8232 L 10.0998,-2.8392 L 10.1557,-2.8553" />
      <path d="M 17.8001,6.8286 L 17.8002,6.6498 L 17.8002,6.4709 L 17.8002,6.292 L 17.8003,6.1131 L 17.8003,5.9343 L 17.8003,5.7554 L 17.8003,5.5765 L 17.8003,5.3976 L 17.8003,5.2188 L 17.8003,5.0399 L 17.8003,4.861 L 17.8004,4.6822 L 17.8004,4.5033 L 17.8004,4.3244 L 17.8004,4.1455 L 17.8004,3.9667 L 17.8004,3.7878 L 17.8004,3.6089 L 17.8004,3.43 L 17.8004,3.2512 L 17.8004,3.0723 L 17.8004,2.8934 L 17.8004,2.7146 L 17.8004,2.5357 L 17.8004,2.3568 L 17.8004,2.1779 L 17.8004,1.9991 L 17.8004,1.8202 L 17.8004,1.6413 L 17.8004,1.4624 L 17.8004,1.2836 L 17.8004,1.1047 L 17.8004,0.9258 L 17.8004,0.7469 L 17.8004,0.5681 L 17.8004,0.3892 L 17.8004,0.2103 L 17.8004,0.0315 L 17.8004,-0.1474 L 17.8004,-0.3263 L 17.8004,-0.5052 L 17.8004,-0.684 L 17.8004,-0.8629 L 17.8004,-1.0418 L 17.8004,-1.2207 L 17.8004,-1.3995 L 17.8004,-1.5784 L 17.8004,-1.7573 L 17.8004,-1.9362 L 17.8004,-2.115 L 17.8004,-2.2939 L 17.8004,-2.4728 L 17.8004,-2.6516 L 17.8004,-2.8305 L 17.8004,-3.0094 L 17.8004,-3.1883 L 17.8004,-3.3671 L 17.8004,-3.546 L 17.8004,-3.7249 L 17.8004,-3.9038 L 17.8003,-4.0826 L 17.8003,-4.2615 L 17.8003,-4.4404 L 17.8003,-4.6193 L 17.8003,-4.7981 L 17.8003,-4.977 L 17.8003,-5.1559 L 17.8003,-5.3347 L 17.8002,-5.5136 L 17.8002,-5.6925 L 17.8002,-5.8714 L 17.8001,-6.0502" />
      <path d="M 17.8001,-6.0502 L 17.8,-5.8748 L 17.8,-5.6994 L 17.8,-5.524 L 17.8,-5.3486 L 17.7999,-5.1732 L 17.7999,-4.9978 L 17.7999,-4.8224 L 17.7999,-4.647 L 17.7999,-4.4716 L 17.7999,-4.2962 L 17.7999,-4.1209 L 17.7999,-3.9455 L 17.7999,-3.7701 L 17.7999,-3.5947 L 17.7998,-3.4193 L 17.7998,-3.2439 L 17.7998,-3.0685 L 17.7998,-2.8931 L 17.7998,-2.7177 L 17.7998,-2.5423 L 17.7998,-2.3669 L 17.7998,-2.1915 L 17.7998,-2.0161 L 17.7998,-1.8407 L 17.7998,-1.6653 L 17.7998,-1.4899 L 17.7998,-1.3145 L 17.7998,-1.1391 L 17.7998,-0.9637 L 17.7998,-0.7883 L 17.7998,-0.6129 L 17.7998,-0.4375 L 17.7998,-0.2621 L 17.7998,-0.0867 L 17.7998,0.0887 L 17.7998,0.2641 L 17.7998,0.4395 L 17.7998,0.6149 L 17.7998,0.7903 L 17.7998,0.9657 L 17.7998,1.1411 L 17.7998,1.3165 L 17.7998,1.4919 L 17.7998,1.6673 L 17.7998,1.8427 L 17.7998,2.0181 L 17.7998,2.1935 L 17.7998,2.3689 L 17.7998,2.5443 L 17.7998,2.7197 L 17.7998,2.8951 L 17.7998,3.0705 L 17.7998,3.2459 L 17.7998,3.4213 L 17.7998,3.5967 L 17.7998,3.7721 L 17.7998,3.9475 L 17.7998,4.1229 L 17.7999,4.2983 L 17.7999,4.4737 L 17.7999,4.6491 L 17.7999,4.8245 L 17.7999,4.9999 L 17.7999,5.1753 L 17.7999,5.3507 L 17.7999,5.5261 L 17.7999,5.7015 L 17.7999,5.8769 L 17.8,6.0523 L 17.8,6.2277 L 17.8,6.4031 L 17.8,6.5785" />
      <path d="M 17.8001,6.8286 L 17.7991,6.8283 L 17.798,6.8279 L 17.7969,6.8276 L 17.7959,6.8273 L 17.7948,6.8269 L 17.7938,6.8266 L 17.7927,6.8262 L 17.7916,6.8259 L 17.7906,6.8255 L 17.7895,6.8252 L 17.7885,6.8248 L 17.7874,6.8245 L 17.7863,6.8242 L 17.7853,6.8238 L 17.7842,6.8235 L 17.7832,6.8231 L 17.7821,6.8228 L 17.781,6.8224 L 17.78,6.8221 L 17.7789,6.8218 L 17.7779,6.8214 L 17.7768,6.8211 L 17.7757,6.8207 L 17.7747,6.8204 L 17.7736,6.82 L 17.7726,6.8197 L 17.7715,6.8193 L 17.7704,6.819 L 17.7694,6.8187 L 17.7683,6.8183 L 17.7673,6.818 L 17.7662,6.8176 L 17.7652,6.8173 L 17.7641,6.8169 L 17.763,6.8166 L 17.762,6.8162 L 17.7609,6.8159 L 17.7599,6.8156 L 17.7588,6.8152 L 17.7577,6.8149 L 17.7567,6.8145 L 17.7556,6.8142 L 17.7546,6.8138 L 17.7535,6.8135 L 17.7524,6.8131 L 17.7514,6.8128 L 17.7503,6.8125 L 17.7493,6.8121 L 17.7482,6.8118 L 17.7471,6.8114 L 17.7461,6.8111 L 17.745,6.8107 L 17.744,6.8104 L 17.7429,6.81 L 17.7418,6.8097 L 17.7408,6.8094 L 17.7397,6.809 L 17.7387,6.8087 L 17.7376,6.8083 L 17.7365,6.808 L 17.7355,6.8076 L 17.7344,6.8073 L 17.7334,6.807 L 17.7323,6.8066 L 17.7313,6.8063 L 17.7302,6.8059 L 17.7291,6.8056 L 17.7281,6.8052 L 17.727,6.8049 L 17.726,6.8045 L 17.7249,6.8042 L 17.7238,6.8039" />
      <path d="M 16.4404,-10.2349 L 16.4403,-9.9455 L 16.4403,-9.6561 L 16.4402,-9.3667 L 16.4402,-9.0774 L 16.4402,-8.788 L 16.4401,-8.4986 L 16.4401,-8.2092 L 16.4401,-7.9198 L 16.4401,-7.6305 L 16.4401,-7.3411 L 16.4401,-7.0517 L 16.44,-6.7623 L 16.44,-6.4729 L 16.44,-6.1835 L 16.44,-5.8942 L 16.44,-5.6048 L 16.44,-5.3154 L 16.44,-5.026 L 16.44,-4.7366 L 16.44,-4.4473 L 16.44,-4.1579 L 16.4399,-3.8685 L 16.4399,-3.5791 L 16.4399,-3.2897 L 16.4399,-3.0003 L 16.4399,-2.711 L 16.4399,-2.4216 L 16.4399,-2.1322 L 16.4399,-1.8428 L 16.4399,-1.5534 L 16.4399,-1.2641 L 16.4399,-0.9747 L 16.4399,-0.6853 L 16.4399,-0.3959 L 16.4399,-0.1065 L 16.4399,0.1828 L 16.4399,0.4722 L 16.4399,0.7616 L 16.4399,1.051 L 16.4399,1.3404 L 16.4399,1.6298 L 16.4399,1.9191 L 16.4399,2.2085 L 16.4399,2.4979 L 16.4399,2.7873 L 16.4399,3.0767 L 16.4399,3.366 L 16.4399,3.6554 L 16.4399,3.9448 L 16.4399,4.2342 L 16.4399,4.5236 L 16.4399,4.813 L 16.44,5.1023 L 16.44,5.3917 L 16.44,5.6811 L 16.44,5.9705 L 16.44,6.2599 L 16.44,6.5492 L 16.44,6.8386 L 16.44,7.128 L 16.44,7.4174 L 16.44,7.7068 L 16.4401,7.9962 L 16.4401,8.2855 L 16.4401,8.5749 L 16.4401,8.8643 L 16.4401,9.1537 L 16.4402,9.4431 L 16.4402,9.7324 L 16.4402,10.0218 L 16.4402,10.3112 L 16.4403,10.6006" />
      <path d="M 17.8001,6.8286 L 17.7812,6.8868 L 17.7623,6.9449 L 17.7435,7.003 L 17.7246,7.0611 L 17.7057,7.1192 L 17.6868,7.1774 L 17.6679,7.2355 L 17.649,7.2936 L 17.6302,7.3517 L 17.6113,7.4098 L 17.5924,7.468 L 17.5735,7.5261 L 17.5546,7.5842 L 17.5357,7.6423 L 17.5168,7.7004 L 17.498,7.7586 L 17.4791,7.8167 L 17.4602,7.8748 L 17.4413,7.9329 L 17.4224,7.991 L 17.4035,8.0492 L 17.3847,8.1073 L 17.3658,8.1654 L 17.3469,8.2235 L 17.328,8.2816 L 17.3091,8.3398 L 17.2902,8.3979 L 17.2713,8.456 L 17.2525,8.5141 L 17.2336,8.5722 L 17.2147,8.6304 L 17.1958,8.6885 L 17.1769,8.7466 L 17.158,8.8047 L 17.1392,8.8628 L 17.1203,8.921 L 17.1014,8.9791 L 17.0825,9.0372 L 17.0636,9.0953 L 17.0447,9.1534 L 17.0259,9.2116 L 17.007,9.2697 L 16.9881,9.3278 L 16.9692,9.3859 L 16.9503,9.444 L 16.9314,9.5022 L 16.9125,9.5603 L 16.8937,9.6184 L 16.8748,9.6765 L 16.8559,9.7346 L 16.837,9.7928 L 16.8181,9.8509 L 16.7992,9.909 L 16.7804,9.9671 L 16.7615,10.0252 L 16.7426,10.0834 L 16.7237,10.1415 L 16.7048,10.1996 L 16.6859,10.2577 L 16.667,10.3158 L 16.6482,10.374 L 16.6293,10.4321 L 16.6104,10.4902 L 16.5915,10.5483 L 16.5726,10.6064 L 16.5537,10.6646 L 16.5349,10.7227 L 16.516,10.7808 L 16.4971,10.8389 L 16.4782,10.897 L 16.4593,10.9552 L 16.4404,11.0133" />
      <path d="M 17.8,6.5785 L 17.7811,6.6344 L 17.7623,6.6902 L 17.7434,6.7461 L 17.7245,6.8019 L 17.7056,6.8578 L 17.6867,6.9137 L 17.6678,6.9695 L 17.6489,7.0254 L 17.6301,7.0813 L 17.6112,7.1371 L 17.5923,7.193 L 17.5734,7.2488 L 17.5545,7.3047 L 17.5356,7.3606 L 17.5167,7.4164 L 17.4979,7.4723 L 17.479,7.5282 L 17.4601,7.584 L 17.4412,7.6399 L 17.4223,7.6957 L 17.4034,7.7516 L 17.3845,7.8075 L 17.3657,7.8633 L 17.3468,7.9192 L 17.3279,7.9751 L 17.309,8.0309 L 17.2901,8.0868 L 17.2712,8.1426 L 17.2524,8.1985 L 17.2335,8.2544 L 17.2146,8.3102 L 17.1957,8.3661 L 17.1768,8.422 L 17.1579,8.4778 L 17.139,8.5337 L 17.1202,8.5895 L 17.1013,8.6454 L 17.0824,8.7013 L 17.0635,8.7571 L 17.0446,8.813 L 17.0257,8.8689 L 17.0068,8.9247 L 16.988,8.9806 L 16.9691,9.0364 L 16.9502,9.0923 L 16.9313,9.1482 L 16.9124,9.204 L 16.8935,9.2599 L 16.8746,9.3158 L 16.8558,9.3716 L 16.8369,9.4275 L 16.818,9.4833 L 16.7991,9.5392 L 16.7802,9.5951 L 16.7613,9.6509 L 16.7425,9.7068 L 16.7236,9.7626 L 16.7047,9.8185 L 16.6858,9.8744 L 16.6669,9.9302 L 16.648,9.9861 L 16.6291,10.042 L 16.6103,10.0978 L 16.5914,10.1537 L 16.5725,10.2095 L 16.5536,10.2654 L 16.5347,10.3213 L 16.5158,10.3771 L 16.4969,10.433 L 16.4781,10.4889 L 16.4592,10.5447 L 16.4403,10.6006" />
      <path d="M 15.0139,10.5498 L 15.0139,10.5443 L 15.0139,10.5388 L 15.0139,10.5333 L 15.0139,10.5278 L 15.0139,10.5224 L 15.0139,10.5169 L 15.0139,10.5114 L 15.0139,10.5059 L 15.0139,10.5004 L 15.0139,10.495 L 15.0139,10.4895 L 15.0139,10.484 L 15.0139,10.4785 L 15.0139,10.473 L 15.0139,10.4675 L 15.0139,10.4621 L 15.0139,10.4566 L 15.0139,10.4511 L 15.0139,10.4456 L 15.0139,10.4401 L 15.0139,10.4347 L 15.0139,10.4292 L 15.0139,10.4237 L 15.0139,10.4182 L 15.0139,10.4127 L 15.0139,10.4073 L 15.0139,10.4018 L 15.0139,10.3963 L 15.0139,10.3908 L 15.0139,10.3853 L 15.0139,10.3799 L 15.0139,10.3744 L 15.0139,10.3689 L 15.0139,10.3634 L 15.014,10.3579 L 15.014,10.3525 L 15.014,10.347 L 15.014,10.3415 L 15.014,10.336 L 15.014,10.3305 L 15.014,10.3251 L 15.014,10.3196 L 15.014,10.3141 L 15.014,10.3086 L 15.014,10.3031 L 15.014,10.2976 L 15.014,10.2922 L 15.014,10.2867 L 15.014,10.2812 L 15.014,10.2757 L 15.014,10.2702 L 15.014,10.2648 L 15.014,10.2593 L 15.014,10.2538 L 15.014,10.2483 L 15.014,10.2428 L 15.014,10.2374 L 15.014,10.2319 L 15.014,10.2264 L 15.014,10.2209 L 15.014,10.2154 L 15.014,10.21 L 15.014,10.2045 L 15.014,10.199 L 15.014,10.1935 L 15.014,10.188 L 15.014,10.1826 L 15.014,10.1771 L 15.014,10.1716 L 15.014,10.1661 L 15.014,10.1606 L 15.014,10.1552" />
      <path d="M 15.0139,-9.7714 L 15.0137,-9.4946 L 15.0137,-9.2179 L 15.0136,-8.9411 L 15.0136,-8.6643 L 15.0136,-8.3876 L 15.0136,-8.1108 L 15.0135,-7.8341 L 15.0135,-7.5573 L 15.0135,-7.2806 L 15.0135,-7.0038 L 15.0135,-6.727 L 15.0135,-6.4503 L 15.0135,-6.1735 L 15.0134,-5.8968 L 15.0134,-5.62 L 15.0134,-5.3433 L 15.0134,-5.0665 L 15.0134,-4.7898 L 15.0134,-4.513 L 15.0134,-4.2362 L 15.0134,-3.9595 L 15.0134,-3.6827 L 15.0134,-3.406 L 15.0134,-3.1292 L 15.0134,-2.8525 L 15.0134,-2.5757 L 15.0134,-2.299 L 15.0134,-2.0222 L 15.0133,-1.7454 L 15.0133,-1.4687 L 15.0133,-1.1919 L 15.0133,-0.9152 L 15.0133,-0.6384 L 15.0133,-0.3617 L 15.0133,-0.0849 L 15.0133,0.1919 L 15.0133,0.4686 L 15.0133,0.7454 L 15.0133,1.0221 L 15.0133,1.2989 L 15.0133,1.5756 L 15.0133,1.8524 L 15.0133,2.1291 L 15.0133,2.4059 L 15.0134,2.6827 L 15.0134,2.9594 L 15.0134,3.2362 L 15.0134,3.5129 L 15.0134,3.7897 L 15.0134,4.0664 L 15.0134,4.3432 L 15.0134,4.6199 L 15.0134,4.8967 L 15.0134,5.1735 L 15.0134,5.4502 L 15.0134,5.727 L 15.0134,6.0037 L 15.0134,6.2805 L 15.0134,6.5572 L 15.0135,6.834 L 15.0135,7.1108 L 15.0135,7.3875 L 15.0135,7.6643 L 15.0135,7.941 L 15.0135,8.2178 L 15.0135,8.4945 L 15.0136,8.7713 L 15.0136,9.048 L 15.0136,9.3248 L 15.0136,9.6016 L 15.0137,9.8783 L 15.0137,10.1551" />
      <path d="M 16.4404,11.0133 L 16.4206,11.0068 L 16.4008,11.0004 L 16.381,10.994 L 16.3612,10.9875 L 16.3414,10.9811 L 16.3216,10.9747 L 16.3017,10.9682 L 16.2819,10.9618 L 16.2621,10.9553 L 16.2423,10.9489 L 16.2225,10.9425 L 16.2027,10.936 L 16.1829,10.9296 L 16.163,10.9232 L 16.1432,10.9167 L 16.1234,10.9103 L 16.1036,10.9038 L 16.0838,10.8974 L 16.064,10.891 L 16.0442,10.8845 L 16.0243,10.8781 L 16.0045,10.8717 L 15.9847,10.8652 L 15.9649,10.8588 L 15.9451,10.8523 L 15.9253,10.8459 L 15.9055,10.8395 L 15.8857,10.833 L 15.8658,10.8266 L 15.846,10.8201 L 15.8262,10.8137 L 15.8064,10.8073 L 15.7866,10.8008 L 15.7668,10.7944 L 15.747,10.788 L 15.7271,10.7815 L 15.7073,10.7751 L 15.6875,10.7686 L 15.6677,10.7622 L 15.6479,10.7558 L 15.6281,10.7493 L 15.6083,10.7429 L 15.5884,10.7365 L 15.5686,10.73 L 15.5488,10.7236 L 15.529,10.7171 L 15.5092,10.7107 L 15.4894,10.7043 L 15.4696,10.6978 L 15.4498,10.6914 L 15.4299,10.685 L 15.4101,10.6785 L 15.3903,10.6721 L 15.3705,10.6656 L 15.3507,10.6592 L 15.3309,10.6528 L 15.3111,10.6463 L 15.2912,10.6399 L 15.2714,10.6335 L 15.2516,10.627 L 15.2318,10.6206 L 15.212,10.6141 L 15.1922,10.6077 L 15.1724,10.6013 L 15.1525,10.5948 L 15.1327,10.5884 L 15.1129,10.5819 L 15.0931,10.5755 L 15.0733,10.5691 L 15.0535,10.5626 L 15.0337,10.5562 L 15.0139,10.5498" />
      <path d="M 16.4403,10.6006 L 16.4205,10.5944 L 16.4007,10.5882 L 16.3808,10.582 L 16.361,10.5758 L 16.3412,10.5696 L 16.3214,10.5635 L 16.3016,10.5573 L 16.2818,10.5511 L 16.262,10.5449 L 16.2422,10.5387 L 16.2223,10.5325 L 16.2025,10.5263 L 16.1827,10.5201 L 16.1629,10.514 L 16.1431,10.5078 L 16.1233,10.5016 L 16.1035,10.4954 L 16.0836,10.4892 L 16.0638,10.483 L 16.044,10.4768 L 16.0242,10.4706 L 16.0044,10.4645 L 15.9846,10.4583 L 15.9648,10.4521 L 15.9449,10.4459 L 15.9251,10.4397 L 15.9053,10.4335 L 15.8855,10.4273 L 15.8657,10.4211 L 15.8459,10.415 L 15.8261,10.4088 L 15.8063,10.4026 L 15.7864,10.3964 L 15.7666,10.3902 L 15.7468,10.384 L 15.727,10.3778 L 15.7072,10.3716 L 15.6874,10.3655 L 15.6676,10.3593 L 15.6477,10.3531 L 15.6279,10.3469 L 15.6081,10.3407 L 15.5883,10.3345 L 15.5685,10.3283 L 15.5487,10.3221 L 15.5289,10.3159 L 15.509,10.3098 L 15.4892,10.3036 L 15.4694,10.2974 L 15.4496,10.2912 L 15.4298,10.285 L 15.41,10.2788 L 15.3902,10.2726 L 15.3704,10.2664 L 15.3505,10.2603 L 15.3307,10.2541 L 15.3109,10.2479 L 15.2911,10.2417 L 15.2713,10.2355 L 15.2515,10.2293 L 15.2317,10.2231 L 15.2118,10.2169 L 15.192,10.2108 L 15.1722,10.2046 L 15.1524,10.1984 L 15.1326,10.1922 L 15.1128,10.186 L 15.093,10.1798 L 15.0732,10.1736 L 15.0533,10.1674 L 15.0335,10.1613 L 15.0137,10.1551" />
      <path d="M 15.1303,10.1915 L 15.1287,10.1964 L 15.127,10.2014 L 15.1254,10.2064 L 15.1238,10.2114 L 15.1222,10.2163 L 15.1206,10.2213 L 15.1189,10.2263 L 15.1173,10.2313 L 15.1157,10.2363 L 15.1141,10.2412 L 15.1125,10.2462 L 15.1109,10.2512 L 15.1092,10.2562 L 15.1076,10.2611 L 15.106,10.2661 L 15.1044,10.2711 L 15.1028,10.2761 L 15.1012,10.281 L 15.0995,10.286 L 15.0979,10.291 L 15.0963,10.296 L 15.0947,10.3009 L 15.0931,10.3059 L 15.0915,10.3109 L 15.0898,10.3159 L 15.0882,10.3208 L 15.0866,10.3258 L 15.085,10.3308 L 15.0834,10.3358 L 15.0818,10.3408 L 15.0801,10.3457 L 15.0785,10.3507 L 15.0769,10.3557 L 15.0753,10.3607 L 15.0737,10.3656 L 15.0721,10.3706 L 15.0704,10.3756 L 15.0688,10.3806 L 15.0672,10.3855 L 15.0656,10.3905 L 15.064,10.3955 L 15.0624,10.4005 L 15.0607,10.4054 L 15.0591,10.4104 L 15.0575,10.4154 L 15.0559,10.4204 L 15.0543,10.4254 L 15.0527,10.4303 L 15.051,10.4353 L 15.0494,10.4403 L 15.0478,10.4453 L 15.0462,10.4502 L 15.0446,10.4552 L 15.043,10.4602 L 15.0413,10.4652 L 15.0397,10.4701 L 15.0381,10.4751 L 15.0365,10.4801 L 15.0349,10.4851 L 15.0333,10.49 L 15.0316,10.495 L 15.03,10.5 L 15.0284,10.505 L 15.0268,10.5099 L 15.0252,10.5149 L 15.0236,10.5199 L 15.0219,10.5249 L 15.0203,10.5299 L 15.0187,10.5348 L 15.0171,10.5398 L 15.0155,10.5448 L 15.0139,10.5498" />
      <path d="M 17.8001,6.8286 L 17.7812,6.8868 L 17.7623,6.9449 L 17.7435,7.003 L 17.7246,7.0611 L 17.7057,7.1192 L 17.6868,7.1774 L 17.6679,7.2355 L 17.649,7.2936 L 17.6302,7.3517 L 17.6113,7.4098 L 17.5924,7.468 L 17.5735,7.5261 L 17.5546,7.5842 L 17.5357,7.6423 L 17.5168,7.7004 L 17.498,7.7586 L 17.4791,7.8167 L 17.4602,7.8748 L 17.4413,7.9329 L 17.4224,7.991 L 17.4035,8.0492 L 17.3847,8.1073 L 17.3658,8.1654 L 17.3469,8.2235 L 17.328,8.2816 L 17.3091,8.3398 L 17.2902,8.3979 L 17.2713,8.456 L 17.2525,8.5141 L 17.2336,8.5722 L 17.2147,8.6304 L 17.1958,8.6885 L 17.1769,8.7466 L 17.158,8.8047 L 17.1392,8.8628 L 17.1203,8.921 L 17.1014,8.9791 L 17.0825,9.0372 L 17.0636,9.0953 L 17.0447,9.1534 L 17.0259,9.2116 L 17.007,9.2697 L 16.9881,9.3278 L 16.9692,9.3859 L 16.9503,9.444 L 16.9314,9.5022 L 16.9125,9.5603 L 16.8937,9.6184 L 16.8748,9.6765 L 16.8559,9.7346 L 16.837,9.7928 L 16.8181,9.8509 L 16.7992,9.909 L 16.7804,9.9671 L 16.7615,10.0252 L 16.7426,10.0834 L 16.7237,10.1415 L 16.7048,10.1996 L 16.6859,10.2577 L 16.667,10.3158 L 16.6482,10.374 L 16.6293,10.4321 L 16.6104,10.4902 L 16.5915,10.5483 L 16.5726,10.6064 L 16.5537,10.6646 L 16.5349,10.7227 L 16.516,10.7808 L 16.4971,10.8389 L 16.4782,10.897 L 16.4593,10.9552 L 16.4404,11.0133" />
      <path d="M 17.8001,-6.0502 L 17.7812,-6.1084 L 17.7623,-6.1665 L 17.7435,-6.2246 L 17.7246,-6.2827 L 17.7057,-6.3408 L 17.6868,-6.399 L 17.6679,-6.4571 L 17.649,-6.5152 L 17.6302,-6.5733 L 17.6113,-6.6314 L 17.5924,-6.6896 L 17.5735,-6.7477 L 17.5546,-6.8058 L 17.5357,-6.8639 L 17.5168,-6.922 L 17.498,-6.9802 L 17.4791,-7.0383 L 17.4602,-7.0964 L 17.4413,-7.1545 L 17.4224,-7.2126 L 17.4035,-7.2708 L 17.3847,-7.3289 L 17.3658,-7.387 L 17.3469,-7.4451 L 17.328,-7.5032 L 17.3091,-7.5614 L 17.2902,-7.6195 L 17.2713,-7.6776 L 17.2525,-7.7357 L 17.2336,-7.7938 L 17.2147,-7.852 L 17.1958,-7.9101 L 17.1769,-7.9682 L 17.158,-8.0263 L 17.1392,-8.0844 L 17.1203,-8.1426 L 17.1014,-8.2007 L 17.0825,-8.2588 L 17.0636,-8.3169 L 17.0447,-8.375 L 17.0259,-8.4332 L 17.007,-8.4913 L 16.9881,-8.5494 L 16.9692,-8.6075 L 16.9503,-8.6656 L 16.9314,-8.7238 L 16.9125,-8.7819 L 16.8937,-8.84 L 16.8748,-8.8981 L 16.8559,-8.9562 L 16.837,-9.0144 L 16.8181,-9.0725 L 16.7992,-9.1306 L 16.7804,-9.1887 L 16.7615,-9.2468 L 16.7426,-9.305 L 16.7237,-9.3631 L 16.7048,-9.4212 L 16.6859,-9.4793 L 16.667,-9.5374 L 16.6482,-9.5956 L 16.6293,-9.6537 L 16.6104,-9.7118 L 16.5915,-9.7699 L 16.5726,-9.828 L 16.5537,-9.8862 L 16.5349,-9.9443 L 16.516,-10.0024 L 16.4971,-10.0605 L 16.4782,-10.1186 L 16.4593,-10.1768 L 16.4404,-10.2349" />
      <path d="M 15.0139,10.5498 L 15.0337,10.5562 L 15.0535,10.5626 L 15.0733,10.5691 L 15.0931,10.5755 L 15.1129,10.5819 L 15.1327,10.5884 L 15.1525,10.5948 L 15.1724,10.6013 L 15.1922,10.6077 L 15.212,10.6141 L 15.2318,10.6206 L 15.2516,10.627 L 15.2714,10.6335 L 15.2912,10.6399 L 15.3111,10.6463 L 15.3309,10.6528 L 15.3507,10.6592 L 15.3705,10.6656 L 15.3903,10.6721 L 15.4101,10.6785 L 15.4299,10.685 L 15.4498,10.6914 L 15.4696,10.6978 L 15.4894,10.7043 L 15.5092,10.7107 L 15.529,10.7171 L 15.5488,10.7236 L 15.5686,10.73 L 15.5884,10.7365 L 15.6083,10.7429 L 15.6281,10.7493 L 15.6479,10.7558 L 15.6677,10.7622 L 15.6875,10.7686 L 15.7073,10.7751 L 15.7271,10.7815 L 15.747,10.788 L 15.7668,10.7944 L 15.7866,10.8008 L 15.8064,10.8073 L 15.8262,10.8137 L 15.846,10.8201 L 15.8658,10.8266 L 15.8857,10.833 L 15.9055,10.8395 L 15.9253,10.8459 L 15.9451,10.8523 L 15.9649,10.8588 L 15.9847,10.8652 L 16.0045,10.8717 L 16.0243,10.8781 L 16.0442,10.8845 L 16.064,10.891 L 16.0838,10.8974 L 16.1036,10.9038 L 16.1234,10.9103 L 16.1432,10.9167 L 16.163,10.9232 L 16.1829,10.9296 L 16.2027,10.936 L 16.2225,10.9425 L 16.2423,10.9489 L 16.2621,10.9553 L 16.2819,10.9618 L 16.3017,10.9682 L 16.3216,10.9747 L 16.3414,10.9811 L 16.3612,10.9875 L 16.381,10.994 L 16.4008,11.0004 L 16.4206,11.0068 L 16.4404,11.0133" />
      <path d="M 15.0139,-9.7714 L 15.0337,-9.7778 L 15.0535,-9.7842 L 15.0733,-9.7907 L 15.0931,-9.7971 L 15.1129,-9.8036 L 15.1327,-9.81 L 15.1525,-9.8164 L 15.1724,-9.8229 L 15.1922,-9.8293 L 15.212,-9.8357 L 15.2318,-9.8422 L 15.2516,-9.8486 L 15.2714,-9.8551 L 15.2912,-9.8615 L 15.3111,-9.8679 L 15.3309,-9.8744 L 15.3507,-9.8808 L 15.3705,-9.8872 L 15.3903,-9.8937 L 15.4101,-9.9001 L 15.4299,-9.9066 L 15.4498,-9.913 L 15.4696,-9.9194 L 15.4894,-9.9259 L 15.5092,-9.9323 L 15.529,-9.9387 L 15.5488,-9.9452 L 15.5686,-9.9516 L 15.5884,-9.9581 L 15.6083,-9.9645 L 15.6281,-9.9709 L 15.6479,-9.9774 L 15.6677,-9.9838 L 15.6875,-9.9903 L 15.7073,-9.9967 L 15.7271,-10.0031 L 15.747,-10.0096 L 15.7668,-10.016 L 15.7866,-10.0224 L 15.8064,-10.0289 L 15.8262,-10.0353 L 15.846,-10.0418 L 15.8658,-10.0482 L 15.8857,-10.0546 L 15.9055,-10.0611 L 15.9253,-10.0675 L 15.9451,-10.0739 L 15.9649,-10.0804 L 15.9847,-10.0868 L 16.0045,-10.0933 L 16.0243,-10.0997 L 16.0442,-10.1061 L 16.064,-10.1126 L 16.0838,-10.119 L 16.1036,-10.1254 L 16.1234,-10.1319 L 16.1432,-10.1383 L 16.163,-10.1448 L 16.1829,-10.1512 L 16.2027,-10.1576 L 16.2225,-10.1641 L 16.2423,-10.1705 L 16.2621,-10.1769 L 16.2819,-10.1834 L 16.3017,-10.1898 L 16.3216,-10.1963 L 16.3414,-10.2027 L 16.3612,-10.2091 L 16.381,-10.2156 L 16.4008,-10.222 L 16.4206,-10.2285 L 16.4404,-10.2349" />
    </g>
    <g fill="none" stroke="rgb(110,110,110)" stroke-width="0.3" id="Hidden" stroke-dasharray="3.6 0.9">
      <path d="M 6.8292,-0.0548 L 6.8068,0.4816 L 6.7399,1.0142 L 6.6288,1.5394 L 6.4743,2.0535 L 6.2776,2.553 L 6.0399,3.0343 L 5.763,3.4942 L 5.4487,3.9294 L 5.0993,4.3369 L 4.7171,4.7139 L 4.3049,5.0578 L 3.8655,5.3661 L 3.4019,5.6368 L 2.9174,5.8679 L 2.4153,6.0578 L 1.8991,6.2053 L 1.3725,6.3092 L 0.839,6.369 L 0.3024,6.3841 L -0.2336,6.3544 L -0.7653,6.2802 L -1.2889,6.162 L -1.8009,6.0006 L -2.2976,5.7971 L -2.7757,5.5529 L -3.2318,5.2697 L -3.6627,4.9496 L -4.0654,4.5947 L -4.4372,4.2074 L -4.7754,3.7906 L -5.0778,3.347 L -5.3421,2.8798 L -5.5666,2.3922 L -5.7497,1.8876 L -5.8902,1.3694 L -5.987,0.8414 L -6.0395,0.3072 L -6.0473,-0.2296 L -6.0104,-0.7651 L -5.929,-1.2957 L -5.8036,-1.8177 L -5.6353,-2.3275 L -5.425,-2.8214 L -5.1744,-3.2961 L -4.8851,-3.7483 L -4.5591,-4.1748 L -4.1988,-4.5727 L -3.8065,-4.9392 L -3.3851,-5.2717 L -2.9375,-5.568 L -2.4667,-5.826 L -1.9761,-6.0439 L -1.469,-6.2201 L -0.9491,-6.3535 L -0.4198,-6.4431 L 0.1151,-6.4884 L 0.652,-6.4889 L 1.1869,-6.4447 L 1.7164,-6.3561 L 2.2366,-6.2237 L 2.744,-6.0484 L 3.2351,-5.8315 L 3.7063,-5.5745 L 4.1546,-5.279 L 4.5766,-4.9473 L 4.9696,-4.5816 L 5.3307,-4.1844 L 5.6575,-3.7585 L 5.9477,-3.3069 L 6.1992,-2.8327 L 6.4104,-2.3391 L 6.5798,-1.8297" />
      <path d="M 6.8292,-0.0548 L 6.8228,-0.0548 L 6.8163,-0.0548 L 6.8099,-0.0548 L 6.8034,-0.0548 L 6.797,-0.0548 L 6.7905,-0.0548 L 6.7841,-0.0548 L 6.7777,-0.0548 L 6.7712,-0.0548 L 6.7648,-0.0548 L 6.7583,-0.0548 L 6.7519,-0.0548 L 6.7454,-0.0548 L 6.739,-0.0548 L 6.7325,-0.0548 L 6.7261,-0.0548 L 6.7196,-0.0548 L 6.7132,-0.0548 L 6.7068,-0.0548 L 6.7003,-0.0548 L 6.6939,-0.0548 L 6.6874,-0.0548 L 6.681,-0.0548 L 6.6745,-0.0548 L 6.6681,-0.0548 L 6.6616,-0.0548 L 6.6552,-0.0548 L 6.6487,-0.0547 L 6.6423,-0.0547 L 6.6359,-0.0547 L 6.6294,-0.0547 L 6.623,-0.0547 L 6.6165,-0.0547 L 6.6101,-0.0547 L 6.6036,-0.0547 L 6.5972,-0.0547 L 6.5907,-0.0547 L 6.5843,-0.0547 L 6.5778,-0.0547 L 6.5714,-0.0547 L 6.565,-0.0547 L 6.5585,-0.0547 L 6.5521,-0.0547 L 6.5456,-0.0547 L 6.5392,-0.0547 L 6.5327,-0.0547 L 6.5263,-0.0547 L 6.5198,-0.0547 L 6.5134,-0.0547 L 6.5069,-0.0547 L 6.5005,-0.0547 L 6.494,-0.0547 L 6.4876,-0.0547 L 6.4812,-0.0547 L 6.4747,-0.0547 L 6.4683,-0.0547 L 6.4618,-0.0547 L 6.4554,-0.0547 L 6.4489,-0.0547 L 6.4425,-0.0547 L 6.436,-0.0547 L 6.4296,-0.0547 L 6.4231,-0.0547 L 6.4167,-0.0547 L 6.4103,-0.0547 L 6.4038,-0.0547 L 6.3974,-0.0547 L 6.3909,-0.0547 L 6.3845,-0.0547 L 6.378,-0.0547 L 6.3716,-0.0547 L 6.3651,-0.0547" />
      <path d="M 6.5798,-1.8297 L 6.5736,-1.828 L 6.5674,-1.8262 L 6.5612,-1.8244 L 6.555,-1.8226 L 6.5488,-1.8209 L 6.5426,-1.8191 L 6.5364,-1.8173 L 6.5302,-1.8155 L 6.524,-1.8137 L 6.5178,-1.812 L 6.5116,-1.8102 L 6.5054,-1.8084 L 6.4992,-1.8066 L 6.493,-1.8049 L 6.4868,-1.8031 L 6.4806,-1.8013 L 6.4744,-1.7995 L 6.4682,-1.7978 L 6.462,-1.796 L 6.4558,-1.7942 L 6.4496,-1.7924 L 6.4435,-1.7907 L 6.4373,-1.7889 L 6.4311,-1.7871 L 6.4249,-1.7853 L 6.4187,-1.7836 L 6.4125,-1.7818 L 6.4063,-1.78 L 6.4001,-1.7782 L 6.3939,-1.7765 L 6.3877,-1.7747 L 6.3815,-1.7729 L 6.3753,-1.7711 L 6.3691,-1.7694 L 6.3629,-1.7676 L 6.3567,-1.7658 L 6.3505,-1.764 L 6.3443,-1.7623 L 6.3381,-1.7605 L 6.3319,-1.7587 L 6.3257,-1.7569 L 6.3195,-1.7552 L 6.3133,-1.7534 L 6.3071,-1.7516 L 6.3009,-1.7498 L 6.2947,-1.7481 L 6.2885,-1.7463 L 6.2823,-1.7445 L 6.2762,-1.7427 L 6.27,-1.7409 L 6.2638,-1.7392 L 6.2576,-1.7374 L 6.2514,-1.7356 L 6.2452,-1.7338 L 6.239,-1.7321 L 6.2328,-1.7303 L 6.2266,-1.7285 L 6.2204,-1.7267 L 6.2142,-1.725 L 6.208,-1.7232 L 6.2018,-1.7214 L 6.1956,-1.7196 L 6.1894,-1.7179 L 6.1832,-1.7161 L 6.177,-1.7143 L 6.1708,-1.7125 L 6.1646,-1.7108 L 6.1584,-1.709 L 6.1522,-1.7072 L 6.146,-1.7054 L 6.1398,-1.7037 L 6.1336,-1.7019" />
      <path d="M 6.8292,-0.0548 L 6.8873,-0.0548 L 6.9454,-0.0548 L 7.0036,-0.0548 L 7.0617,-0.0548 L 7.1198,-0.0548 L 7.1779,-0.0548 L 7.236,-0.0548 L 7.2941,-0.0548 L 7.3522,-0.0548 L 7.4103,-0.0548 L 7.4685,-0.0548 L 7.5266,-0.0548 L 7.5847,-0.0548 L 7.6428,-0.0548 L 7.7009,-0.0548 L 7.759,-0.0548 L 7.8171,-0.0548 L 7.8752,-0.0548 L 7.9334,-0.0548 L 7.9915,-0.0548 L 8.0496,-0.0548 L 8.1077,-0.0548 L 8.1658,-0.0548 L 8.2239,-0.0548 L 8.282,-0.0548 L 8.3402,-0.0548 L 8.3983,-0.0548 L 8.4564,-0.0548 L 8.5145,-0.0548 L 8.5726,-0.0547 L 8.6307,-0.0547 L 8.6888,-0.0547 L 8.7469,-0.0547 L 8.8051,-0.0547 L 8.8632,-0.0547 L 8.9213,-0.0547 L 8.9794,-0.0547 L 9.0375,-0.0547 L 9.0956,-0.0547 L 9.1537,-0.0547 L 9.2118,-0.0547 L 9.27,-0.0547 L 9.3281,-0.0547 L 9.3862,-0.0547 L 9.4443,-0.0547 L 9.5024,-0.0547 L 9.5605,-0.0547 L 9.6186,-0.0547 L 9.6767,-0.0547 L 9.7349,-0.0547 L 9.793,-0.0547 L 9.8511,-0.0547 L 9.9092,-0.0547 L 9.9673,-0.0547 L 10.0254,-0.0547 L 10.0835,-0.0547 L 10.1416,-0.0547 L 10.1998,-0.0547 L 10.2579,-0.0547 L 10.316,-0.0547 L 10.3741,-0.0547 L 10.4322,-0.0547 L 10.4903,-0.0547 L 10.5484,-0.0547 L 10.6065,-0.0547 L 10.6647,-0.0547 L 10.7228,-0.0547 L 10.7809,-0.0547 L 10.839,-0.0547 L 10.8971,-0.0547 L 10.9552,-0.0547 L 11.0133,-0.0547" />
      <path d="M 6.5798,-1.8297 L 6.6356,-1.8457 L 6.6915,-1.8618 L 6.7474,-1.8778 L 6.8032,-1.8938 L 6.8591,-1.9098 L 6.9149,-1.9258 L 6.9708,-1.9419 L 7.0267,-1.9579 L 7.0825,-1.9739 L 7.1384,-1.9899 L 7.1942,-2.0059 L 7.2501,-2.022 L 7.306,-2.038 L 7.3618,-2.054 L 7.4177,-2.07 L 7.4735,-2.086 L 7.5294,-2.1021 L 7.5853,-2.1181 L 7.6411,-2.1341 L 7.697,-2.1501 L 7.7529,-2.1661 L 7.8087,-2.1821 L 7.8646,-2.1982 L 7.9204,-2.2142 L 7.9763,-2.2302 L 8.0322,-2.2462 L 8.088,-2.2622 L 8.1439,-2.2783 L 8.1997,-2.2943 L 8.2556,-2.3103 L 8.3115,-2.3263 L 8.3673,-2.3423 L 8.4232,-2.3584 L 8.4791,-2.3744 L 8.5349,-2.3904 L 8.5908,-2.4064 L 8.6466,-2.4224 L 8.7025,-2.4385 L 8.7584,-2.4545 L 8.8142,-2.4705 L 8.8701,-2.4865 L 8.9259,-2.5025 L 8.9818,-2.5185 L 9.0377,-2.5346 L 9.0935,-2.5506 L 9.1494,-2.5666 L 9.2052,-2.5826 L 9.2611,-2.5986 L 9.317,-2.6147 L 9.3728,-2.6307 L 9.4287,-2.6467 L 9.4846,-2.6627 L 9.5404,-2.6787 L 9.5963,-2.6948 L 9.6521,-2.7108 L 9.708,-2.7268 L 9.7639,-2.7428 L 9.8197,-2.7588 L 9.8756,-2.7749 L 9.9314,-2.7909 L 9.9873,-2.8069 L 10.0432,-2.8229 L 10.099,-2.8389 L 10.1549,-2.8549 L 10.2108,-2.871 L 10.2666,-2.887 L 10.3225,-2.903 L 10.3783,-2.919 L 10.4342,-2.935 L 10.4901,-2.9511 L 10.5459,-2.9671 L 10.6018,-2.9831" />
      <path d="M 16.3735,6.3651 L 16.3736,6.1991 L 16.3736,6.0331 L 16.3736,5.8671 L 16.3737,5.7011 L 16.3737,5.5351 L 16.3737,5.3691 L 16.3737,5.2031 L 16.3737,5.0371 L 16.3737,4.8711 L 16.3737,4.7051 L 16.3737,4.5391 L 16.3738,4.3731 L 16.3738,4.2071 L 16.3738,4.0411 L 16.3738,3.8751 L 16.3738,3.7091 L 16.3738,3.5432 L 16.3738,3.3772 L 16.3738,3.2112 L 16.3738,3.0452 L 16.3738,2.8792 L 16.3738,2.7132 L 16.3738,2.5472 L 16.3738,2.3812 L 16.3738,2.2152 L 16.3738,2.0492 L 16.3738,1.8832 L 16.3738,1.7172 L 16.3738,1.5512 L 16.3738,1.3852 L 16.3738,1.2192 L 16.3738,1.0532 L 16.3738,0.8872 L 16.3738,0.7212 L 16.3738,0.5552 L 16.3738,0.3892 L 16.3738,0.2232 L 16.3738,0.0572 L 16.3738,-0.1088 L 16.3738,-0.2748 L 16.3738,-0.4408 L 16.3738,-0.6068 L 16.3738,-0.7728 L 16.3738,-0.9388 L 16.3738,-1.1048 L 16.3738,-1.2708 L 16.3738,-1.4368 L 16.3738,-1.6028 L 16.3738,-1.7688 L 16.3738,-1.9348 L 16.3738,-2.1008 L 16.3738,-2.2668 L 16.3738,-2.4328 L 16.3738,-2.5988 L 16.3738,-2.7648 L 16.3738,-2.9308 L 16.3738,-3.0968 L 16.3738,-3.2627 L 16.3738,-3.4287 L 16.3738,-3.5947 L 16.3737,-3.7607 L 16.3737,-3.9267 L 16.3737,-4.0927 L 16.3737,-4.2587 L 16.3737,-4.4247 L 16.3737,-4.5907 L 16.3737,-4.7567 L 16.3737,-4.9227 L 16.3736,-5.0887 L 16.3736,-5.2547 L 16.3736,-5.4207 L 16.3735,-5.5867" />
      <path d="M 16.3735,-5.5867 L 16.3735,-5.4239 L 16.3734,-5.2612 L 16.3734,-5.0984 L 16.3734,-4.9356 L 16.3734,-4.7728 L 16.3734,-4.6101 L 16.3733,-4.4473 L 16.3733,-4.2845 L 16.3733,-4.1218 L 16.3733,-3.959 L 16.3733,-3.7962 L 16.3733,-3.6334 L 16.3733,-3.4707 L 16.3733,-3.3079 L 16.3733,-3.1451 L 16.3733,-2.9823 L 16.3733,-2.8196 L 16.3733,-2.6568 L 16.3733,-2.494 L 16.3733,-2.3312 L 16.3733,-2.1685 L 16.3732,-2.0057 L 16.3732,-1.8429 L 16.3732,-1.6802 L 16.3732,-1.5174 L 16.3732,-1.3546 L 16.3732,-1.1918 L 16.3732,-1.0291 L 16.3732,-0.8663 L 16.3732,-0.7035 L 16.3732,-0.5407 L 16.3732,-0.378 L 16.3732,-0.2152 L 16.3732,-0.0524 L 16.3732,0.1104 L 16.3732,0.2731 L 16.3732,0.4359 L 16.3732,0.5987 L 16.3732,0.7614 L 16.3732,0.9242 L 16.3732,1.087 L 16.3732,1.2498 L 16.3732,1.4125 L 16.3732,1.5753 L 16.3732,1.7381 L 16.3732,1.9009 L 16.3732,2.0636 L 16.3732,2.2264 L 16.3732,2.3892 L 16.3732,2.552 L 16.3732,2.7147 L 16.3733,2.8775 L 16.3733,3.0403 L 16.3733,3.2031 L 16.3733,3.3658 L 16.3733,3.5286 L 16.3733,3.6914 L 16.3733,3.8541 L 16.3733,4.0169 L 16.3733,4.1797 L 16.3733,4.3425 L 16.3733,4.5052 L 16.3733,4.668 L 16.3733,4.8308 L 16.3733,4.9936 L 16.3733,5.1563 L 16.3734,5.3191 L 16.3734,5.4819 L 16.3734,5.6447 L 16.3734,5.8074 L 16.3734,5.9702 L 16.3734,6.133" />
      <path d="M 17.7238,6.8039 L 17.7051,6.7978 L 17.6863,6.7917 L 17.6676,6.7856 L 17.6488,6.7795 L 17.6301,6.7734 L 17.6113,6.7673 L 17.5926,6.7612 L 17.5738,6.7551 L 17.555,6.749 L 17.5363,6.7429 L 17.5175,6.7368 L 17.4988,6.7307 L 17.48,6.7246 L 17.4613,6.7185 L 17.4425,6.7124 L 17.4238,6.7064 L 17.405,6.7003 L 17.3863,6.6942 L 17.3675,6.6881 L 17.3487,6.682 L 17.33,6.6759 L 17.3112,6.6698 L 17.2925,6.6637 L 17.2737,6.6576 L 17.255,6.6515 L 17.2362,6.6454 L 17.2175,6.6393 L 17.1987,6.6332 L 17.18,6.6271 L 17.1612,6.621 L 17.1425,6.6149 L 17.1237,6.6089 L 17.1049,6.6028 L 17.0862,6.5967 L 17.0674,6.5906 L 17.0487,6.5845 L 17.0299,6.5784 L 17.0112,6.5723 L 16.9924,6.5662 L 16.9737,6.5601 L 16.9549,6.554 L 16.9362,6.5479 L 16.9174,6.5418 L 16.8986,6.5357 L 16.8799,6.5296 L 16.8611,6.5235 L 16.8424,6.5175 L 16.8236,6.5114 L 16.8049,6.5053 L 16.7861,6.4992 L 16.7674,6.4931 L 16.7486,6.487 L 16.7299,6.4809 L 16.7111,6.4748 L 16.6923,6.4687 L 16.6736,6.4626 L 16.6548,6.4565 L 16.6361,6.4504 L 16.6173,6.4443 L 16.5986,6.4382 L 16.5798,6.4321 L 16.5611,6.426 L 16.5423,6.42 L 16.5236,6.4139 L 16.5048,6.4078 L 16.4861,6.4017 L 16.4673,6.3956 L 16.4485,6.3895 L 16.4298,6.3834 L 16.411,6.3773 L 16.3923,6.3712 L 16.3735,6.3651" />
      <path d="M 17.8,6.5785 L 17.7802,6.5723 L 17.7604,6.5661 L 17.7406,6.5599 L 17.7208,6.5537 L 17.701,6.5476 L 17.6811,6.5414 L 17.6613,6.5352 L 17.6415,6.529 L 17.6217,6.5228 L 17.6019,6.5166 L 17.5821,6.5104 L 17.5623,6.5042 L 17.5424,6.4981 L 17.5226,6.4919 L 17.5028,6.4857 L 17.483,6.4795 L 17.4632,6.4733 L 17.4434,6.4671 L 17.4236,6.4609 L 17.4037,6.4547 L 17.3839,6.4485 L 17.3641,6.4424 L 17.3443,6.4362 L 17.3245,6.43 L 17.3047,6.4238 L 17.2849,6.4176 L 17.2651,6.4114 L 17.2452,6.4052 L 17.2254,6.399 L 17.2056,6.3929 L 17.1858,6.3867 L 17.166,6.3805 L 17.1462,6.3743 L 17.1264,6.3681 L 17.1065,6.3619 L 17.0867,6.3557 L 17.0669,6.3495 L 17.0471,6.3434 L 17.0273,6.3372 L 17.0075,6.331 L 16.9877,6.3248 L 16.9679,6.3186 L 16.948,6.3124 L 16.9282,6.3062 L 16.9084,6.3 L 16.8886,6.2939 L 16.8688,6.2877 L 16.849,6.2815 L 16.8292,6.2753 L 16.8093,6.2691 L 16.7895,6.2629 L 16.7697,6.2567 L 16.7499,6.2505 L 16.7301,6.2444 L 16.7103,6.2382 L 16.6905,6.232 L 16.6706,6.2258 L 16.6508,6.2196 L 16.631,6.2134 L 16.6112,6.2072 L 16.5914,6.201 L 16.5716,6.1949 L 16.5518,6.1887 L 16.532,6.1825 L 16.5121,6.1763 L 16.4923,6.1701 L 16.4725,6.1639 L 16.4527,6.1577 L 16.4329,6.1515 L 16.4131,6.1453 L 16.3933,6.1392 L 16.3734,6.133" />
      <path d="M 16.4404,11.0133 L 16.4406,10.7182 L 16.4406,10.4231 L 16.4407,10.1279 L 16.4407,9.8328 L 16.4407,9.5377 L 16.4407,9.2426 L 16.4408,8.9475 L 16.4408,8.6524 L 16.4408,8.3573 L 16.4408,8.0621 L 16.4408,7.767 L 16.4408,7.4719 L 16.4408,7.1768 L 16.4409,6.8817 L 16.4409,6.5866 L 16.4409,6.2915 L 16.4409,5.9964 L 16.4409,5.7012 L 16.4409,5.4061 L 16.4409,5.111 L 16.4409,4.8159 L 16.4409,4.5208 L 16.4409,4.2257 L 16.4409,3.9306 L 16.4409,3.6354 L 16.441,3.3403 L 16.441,3.0452 L 16.441,2.7501 L 16.441,2.455 L 16.441,2.1599 L 16.441,1.8648 L 16.441,1.5697 L 16.441,1.2745 L 16.441,0.9794 L 16.441,0.6843 L 16.441,0.3892 L 16.441,0.0941 L 16.441,-0.201 L 16.441,-0.4961 L 16.441,-0.7913 L 16.441,-1.0864 L 16.441,-1.3815 L 16.441,-1.6766 L 16.441,-1.9717 L 16.441,-2.2668 L 16.441,-2.5619 L 16.4409,-2.8571 L 16.4409,-3.1522 L 16.4409,-3.4473 L 16.4409,-3.7424 L 16.4409,-4.0375 L 16.4409,-4.3326 L 16.4409,-4.6277 L 16.4409,-4.9228 L 16.4409,-5.218 L 16.4409,-5.5131 L 16.4409,-5.8082 L 16.4409,-6.1033 L 16.4408,-6.3984 L 16.4408,-6.6935 L 16.4408,-6.9886 L 16.4408,-7.2838 L 16.4408,-7.5789 L 16.4408,-7.874 L 16.4408,-8.1691 L 16.4407,-8.4642 L 16.4407,-8.7593 L 16.4407,-9.0544 L 16.4407,-9.3495 L 16.4406,-9.6447 L 16.4406,-9.9398 L 16.4404,-10.2349" />
      <path d="M 15.014,10.1552 L 15.014,9.8784 L 15.0141,9.6016 L 15.0141,9.3249 L 15.0141,9.0481 L 15.0141,8.7714 L 15.0142,8.4946 L 15.0142,8.2179 L 15.0142,7.9411 L 15.0142,7.6643 L 15.0142,7.3876 L 15.0142,7.1108 L 15.0142,6.8341 L 15.0143,6.5573 L 15.0143,6.2806 L 15.0143,6.0038 L 15.0143,5.727 L 15.0143,5.4503 L 15.0143,5.1735 L 15.0143,4.8968 L 15.0143,4.62 L 15.0143,4.3433 L 15.0143,4.0665 L 15.0143,3.7897 L 15.0143,3.513 L 15.0143,3.2362 L 15.0143,2.9595 L 15.0144,2.6827 L 15.0144,2.406 L 15.0144,2.1292 L 15.0144,1.8524 L 15.0144,1.5757 L 15.0144,1.2989 L 15.0144,1.0222 L 15.0144,0.7454 L 15.0144,0.4687 L 15.0144,0.1919 L 15.0144,-0.0849 L 15.0144,-0.3616 L 15.0144,-0.6384 L 15.0144,-0.9151 L 15.0144,-1.1919 L 15.0144,-1.4686 L 15.0144,-1.7454 L 15.0143,-2.0222 L 15.0143,-2.2989 L 15.0143,-2.5757 L 15.0143,-2.8524 L 15.0143,-3.1292 L 15.0143,-3.4059 L 15.0143,-3.6827 L 15.0143,-3.9595 L 15.0143,-4.2362 L 15.0143,-4.513 L 15.0143,-4.7897 L 15.0143,-5.0665 L 15.0143,-5.3432 L 15.0143,-5.62 L 15.0143,-5.8968 L 15.0142,-6.1735 L 15.0142,-6.4503 L 15.0142,-6.727 L 15.0142,-7.0038 L 15.0142,-7.2805 L 15.0142,-7.5573 L 15.0142,-7.8341 L 15.0141,-8.1108 L 15.0141,-8.3876 L 15.0141,-8.6643 L 15.0141,-8.9411 L 15.014,-9.2178 L 15.014,-9.4946 L 15.0139,-9.7714" />
      <path d="M 16.3735,6.3651 L 16.3563,6.4183 L 16.339,6.4714 L 16.3217,6.5245 L 16.3045,6.5777 L 16.2872,6.6308 L 16.2699,6.684 L 16.2527,6.7371 L 16.2354,6.7903 L 16.2181,6.8434 L 16.2009,6.8965 L 16.1836,6.9497 L 16.1663,7.0028 L 16.149,7.056 L 16.1318,7.1091 L 16.1145,7.1623 L 16.0972,7.2154 L 16.08,7.2686 L 16.0627,7.3217 L 16.0454,7.3748 L 16.0282,7.428 L 16.0109,7.4811 L 15.9936,7.5343 L 15.9764,7.5874 L 15.9591,7.6406 L 15.9418,7.6937 L 15.9246,7.7469 L 15.9073,7.8 L 15.89,7.8531 L 15.8728,7.9063 L 15.8555,7.9594 L 15.8382,8.0126 L 15.821,8.0657 L 15.8037,8.1189 L 15.7864,8.172 L 15.7692,8.2251 L 15.7519,8.2783 L 15.7346,8.3314 L 15.7174,8.3846 L 15.7001,8.4377 L 15.6828,8.4909 L 15.6656,8.544 L 15.6483,8.5972 L 15.631,8.6503 L 15.6138,8.7034 L 15.5965,8.7566 L 15.5792,8.8097 L 15.562,8.8629 L 15.5447,8.916 L 15.5274,8.9692 L 15.5102,9.0223 L 15.4929,9.0754 L 15.4756,9.1286 L 15.4583,9.1817 L 15.4411,9.2349 L 15.4238,9.288 L 15.4065,9.3412 L 15.3893,9.3943 L 15.372,9.4475 L 15.3547,9.5006 L 15.3375,9.5537 L 15.3202,9.6069 L 15.3029,9.66 L 15.2857,9.7132 L 15.2684,9.7663 L 15.2511,9.8195 L 15.2339,9.8726 L 15.2166,9.9257 L 15.1993,9.9789 L 15.1821,10.032 L 15.1648,10.0852 L 15.1475,10.1383 L 15.1303,10.1915" />
      <path d="M 16.3734,6.133 L 16.3546,6.1888 L 16.3357,6.2447 L 16.3168,6.3006 L 16.2979,6.3564 L 16.279,6.4123 L 16.2601,6.4681 L 16.2412,6.524 L 16.2224,6.5799 L 16.2035,6.6357 L 16.1846,6.6916 L 16.1657,6.7475 L 16.1468,6.8033 L 16.1279,6.8592 L 16.1091,6.915 L 16.0902,6.9709 L 16.0713,7.0268 L 16.0524,7.0826 L 16.0335,7.1385 L 16.0146,7.1944 L 15.9957,7.2502 L 15.9769,7.3061 L 15.958,7.3619 L 15.9391,7.4178 L 15.9202,7.4737 L 15.9013,7.5295 L 15.8824,7.5854 L 15.8635,7.6413 L 15.8447,7.6971 L 15.8258,7.753 L 15.8069,7.8088 L 15.788,7.8647 L 15.7691,7.9206 L 15.7502,7.9764 L 15.7313,8.0323 L 15.7125,8.0882 L 15.6936,8.144 L 15.6747,8.1999 L 15.6558,8.2557 L 15.6369,8.3116 L 15.618,8.3675 L 15.5992,8.4233 L 15.5803,8.4792 L 15.5614,8.5351 L 15.5425,8.5909 L 15.5236,8.6468 L 15.5047,8.7026 L 15.4858,8.7585 L 15.467,8.8144 L 15.4481,8.8702 L 15.4292,8.9261 L 15.4103,8.982 L 15.3914,9.0378 L 15.3725,9.0937 L 15.3536,9.1495 L 15.3348,9.2054 L 15.3159,9.2613 L 15.297,9.3171 L 15.2781,9.373 L 15.2592,9.4289 L 15.2403,9.4847 L 15.2214,9.5406 L 15.2026,9.5964 L 15.1837,9.6523 L 15.1648,9.7082 L 15.1459,9.764 L 15.127,9.8199 L 15.1081,9.8758 L 15.0893,9.9316 L 15.0704,9.9875 L 15.0515,10.0433 L 15.0326,10.0992 L 15.0137,10.1551" />
      <path d="M 16.3735,6.3651 L 16.3933,6.3715 L 16.4132,6.378 L 16.433,6.3844 L 16.4528,6.3909 L 16.4726,6.3973 L 16.4924,6.4037 L 16.5122,6.4102 L 16.532,6.4166 L 16.5518,6.4231 L 16.5717,6.4295 L 16.5915,6.4359 L 16.6113,6.4424 L 16.6311,6.4488 L 16.6509,6.4552 L 16.6707,6.4617 L 16.6905,6.4681 L 16.7104,6.4746 L 16.7302,6.481 L 16.75,6.4874 L 16.7698,6.4939 L 16.7896,6.5003 L 16.8094,6.5067 L 16.8292,6.5132 L 16.8491,6.5196 L 16.8689,6.5261 L 16.8887,6.5325 L 16.9085,6.5389 L 16.9283,6.5454 L 16.9481,6.5518 L 16.9679,6.5582 L 16.9878,6.5647 L 17.0076,6.5711 L 17.0274,6.5776 L 17.0472,6.584 L 17.067,6.5904 L 17.0868,6.5969 L 17.1066,6.6033 L 17.1264,6.6097 L 17.1463,6.6162 L 17.1661,6.6226 L 17.1859,6.6291 L 17.2057,6.6355 L 17.2255,6.6419 L 17.2453,6.6484 L 17.2651,6.6548 L 17.285,6.6613 L 17.3048,6.6677 L 17.3246,6.6741 L 17.3444,6.6806 L 17.3642,6.687 L 17.384,6.6934 L 17.4038,6.6999 L 17.4237,6.7063 L 17.4435,6.7128 L 17.4633,6.7192 L 17.4831,6.7256 L 17.5029,6.7321 L 17.5227,6.7385 L 17.5425,6.7449 L 17.5623,6.7514 L 17.5822,6.7578 L 17.602,6.7643 L 17.6218,6.7707 L 17.6416,6.7771 L 17.6614,6.7836 L 17.6812,6.79 L 17.701,6.7964 L 17.7209,6.8029 L 17.7407,6.8093 L 17.7605,6.8158 L 17.7803,6.8222 L 17.8001,6.8286" />
      <path d="M 16.3735,-5.5867 L 16.3933,-5.5932 L 16.4132,-5.5996 L 16.433,-5.606 L 16.4528,-5.6125 L 16.4726,-5.6189 L 16.4924,-5.6253 L 16.5122,-5.6318 L 16.532,-5.6382 L 16.5518,-5.6447 L 16.5717,-5.6511 L 16.5915,-5.6575 L 16.6113,-5.664 L 16.6311,-5.6704 L 16.6509,-5.6768 L 16.6707,-5.6833 L 16.6905,-5.6897 L 16.7104,-5.6962 L 16.7302,-5.7026 L 16.75,-5.709 L 16.7698,-5.7155 L 16.7896,-5.7219 L 16.8094,-5.7283 L 16.8292,-5.7348 L 16.8491,-5.7412 L 16.8689,-5.7477 L 16.8887,-5.7541 L 16.9085,-5.7605 L 16.9283,-5.767 L 16.9481,-5.7734 L 16.9679,-5.7799 L 16.9877,-5.7863 L 17.0076,-5.7927 L 17.0274,-5.7992 L 17.0472,-5.8056 L 17.067,-5.812 L 17.0868,-5.8185 L 17.1066,-5.8249 L 17.1264,-5.8314 L 17.1463,-5.8378 L 17.1661,-5.8442 L 17.1859,-5.8507 L 17.2057,-5.8571 L 17.2255,-5.8635 L 17.2453,-5.87 L 17.2651,-5.8764 L 17.285,-5.8829 L 17.3048,-5.8893 L 17.3246,-5.8957 L 17.3444,-5.9022 L 17.3642,-5.9086 L 17.384,-5.915 L 17.4038,-5.9215 L 17.4237,-5.9279 L 17.4435,-5.9344 L 17.4633,-5.9408 L 17.4831,-5.9472 L 17.5029,-5.9537 L 17.5227,-5.9601 L 17.5425,-5.9665 L 17.5623,-5.973 L 17.5822,-5.9794 L 17.602,-5.9859 L 17.6218,-5.9923 L 17.6416,-5.9987 L 17.6614,-6.0052 L 17.6812,-6.0116 L 17.701,-6.0181 L 17.7209,-6.0245 L 17.7407,-6.0309 L 17.7605,-6.0374 L 17.7803,-6.0438 L 17.8001,-6.0502" />
      <path d="M 16.3735,6.3651 L 16.3546,6.4232 L 16.3358,6.4814 L 16.3169,6.5395 L 16.298,6.5976 L 16.2791,6.6557 L 16.2602,6.7138 L 16.2413,6.772 L 16.2225,6.8301 L 16.2036,6.8882 L 16.1847,6.9463 L 16.1658,7.0044 L 16.1469,7.0626 L 16.128,7.1207 L 16.1091,7.1788 L 16.0903,7.2369 L 16.0714,7.295 L 16.0525,7.3532 L 16.0336,7.4113 L 16.0147,7.4694 L 15.9958,7.5275 L 15.977,7.5856 L 15.9581,7.6438 L 15.9392,7.7019 L 15.9203,7.76 L 15.9014,7.8181 L 15.8825,7.8762 L 15.8636,7.9344 L 15.8448,7.9925 L 15.8259,8.0506 L 15.807,8.1087 L 15.7881,8.1668 L 15.7692,8.225 L 15.7503,8.2831 L 15.7315,8.3412 L 15.7126,8.3993 L 15.6937,8.4574 L 15.6748,8.5156 L 15.6559,8.5737 L 15.637,8.6318 L 15.6182,8.6899 L 15.5993,8.748 L 15.5804,8.8062 L 15.5615,8.8643 L 15.5426,8.9224 L 15.5237,8.9805 L 15.5048,9.0386 L 15.486,9.0968 L 15.4671,9.1549 L 15.4482,9.213 L 15.4293,9.2711 L 15.4104,9.3292 L 15.3915,9.3874 L 15.3727,9.4455 L 15.3538,9.5036 L 15.3349,9.5617 L 15.316,9.6198 L 15.2971,9.678 L 15.2782,9.7361 L 15.2593,9.7942 L 15.2405,9.8523 L 15.2216,9.9104 L 15.2027,9.9686 L 15.1838,10.0267 L 15.1649,10.0848 L 15.146,10.1429 L 15.1272,10.201 L 15.1083,10.2592 L 15.0894,10.3173 L 15.0705,10.3754 L 15.0516,10.4335 L 15.0327,10.4916 L 15.0139,10.5498" />
      <path d="M 16.3735,-5.5867 L 16.3546,-5.6448 L 16.3358,-5.703 L 16.3169,-5.7611 L 16.298,-5.8192 L 16.2791,-5.8773 L 16.2602,-5.9354 L 16.2413,-5.9936 L 16.2225,-6.0517 L 16.2036,-6.1098 L 16.1847,-6.1679 L 16.1658,-6.226 L 16.1469,-6.2842 L 16.128,-6.3423 L 16.1091,-6.4004 L 16.0903,-6.4585 L 16.0714,-6.5166 L 16.0525,-6.5748 L 16.0336,-6.6329 L 16.0147,-6.691 L 15.9958,-6.7491 L 15.977,-6.8072 L 15.9581,-6.8654 L 15.9392,-6.9235 L 15.9203,-6.9816 L 15.9014,-7.0397 L 15.8825,-7.0978 L 15.8636,-7.156 L 15.8448,-7.2141 L 15.8259,-7.2722 L 15.807,-7.3303 L 15.7881,-7.3884 L 15.7692,-7.4466 L 15.7503,-7.5047 L 15.7315,-7.5628 L 15.7126,-7.6209 L 15.6937,-7.679 L 15.6748,-7.7372 L 15.6559,-7.7953 L 15.637,-7.8534 L 15.6182,-7.9115 L 15.5993,-7.9696 L 15.5804,-8.0278 L 15.5615,-8.0859 L 15.5426,-8.144 L 15.5237,-8.2021 L 15.5048,-8.2602 L 15.486,-8.3184 L 15.4671,-8.3765 L 15.4482,-8.4346 L 15.4293,-8.4927 L 15.4104,-8.5508 L 15.3915,-8.609 L 15.3727,-8.6671 L 15.3538,-8.7252 L 15.3349,-8.7833 L 15.316,-8.8414 L 15.2971,-8.8996 L 15.2782,-8.9577 L 15.2593,-9.0158 L 15.2405,-9.0739 L 15.2216,-9.132 L 15.2027,-9.1902 L 15.1838,-9.2483 L 15.1649,-9.3064 L 15.146,-9.3645 L 15.1272,-9.4226 L 15.1083,-9.4808 L 15.0894,-9.5389 L 15.0705,-9.597 L 15.0516,-9.6551 L 15.0327,-9.7132 L 15.0139,-9.7714" />
    </g>
    <g fill="none" stroke="rgb(0,0,0)" stroke-width="0.2" id="Center" stroke-dasharray="6.35 1.27 1.27 1.27">
      <line x1="-11.9348" y1="-0.0547" x2="12.7133" y2="-0.0547" />
      <line x1="0.3893" y1="-12.3788" x2="0.3893" y2="12.2694" />
      <line x1="13.3133" y1="0.3892" x2="19.5004" y2="0.3892" />
    </g>
  </g>
</svg>