<?xml version='1.0' encoding='utf-8'?>
<svg width="36.7442mm" height="29.3711mm" viewBox="-14.6307 -15.0763 36.7442 29.3711" version="1.1" xmlns="http://www.w3.org/2000/svg">
  <g transform="scale(1,-1)" stroke-linecap="round">
    <g fill="none" stroke="rgb(0,0,0)" stroke-width="0.4" id="Visible">
      <path d="M 0.0549,6.2749 L -0.4352,6.2545 L -0.922,6.1933 L -1.4019,6.0918 L -1.8717,5.9506 L -2.3281,5.7708 L -2.768,5.5537 L -3.1882,5.3006 L -3.5859,5.0134 L -3.9583,4.6941 L -4.3028,4.3449 L -4.617,3.9682 L -4.8988,3.5666 L -5.1461,3.143 L -5.3573,2.7002 L -5.5309,2.2414 L -5.6656,1.7698 L -5.7606,1.2885 L -5.8152,0.801 L -5.829,0.3106 L -5.8019,-0.1792 L -5.7341,-0.665 L -5.6261,-1.1435 L -5.4786,-1.6113 L -5.2926,-2.0653 L -5.0695,-2.5021 L -4.8107,-2.9189 L -4.5182,-3.3127 L -4.1938,-3.6807 L -3.84,-4.0204 L -3.4591,-4.3295 L -3.0537,-4.6058 L -2.6268,-4.8474 L -2.1812,-5.0525 L -1.72,-5.2198 L -1.2466,-5.3482 L -0.7641,-5.4366 L -0.2759,-5.4846 L 0.2146,-5.4917 L 0.704,-5.458 L 1.1889,-5.3836 L 1.6659,-5.2691 L 2.1317,-5.1152 L 2.583,-4.9231 L 3.0168,-4.6941 L 3.4301,-4.4297 L 3.8198,-4.1319 L 4.1834,-3.8026 L 4.5183,-3.4441 L 4.8222,-3.059 L 5.0929,-2.65 L 5.3287,-2.2198 L 5.5278,-1.7714 L 5.6888,-1.3081 L 5.8107,-0.8329 L 5.8926,-0.3493 L 5.934,0.1395 L 5.9344,0.6301 L 5.8941,1.119 L 5.8131,1.6028 L 5.6921,2.0782 L 5.532,2.5419 L 5.3337,2.9906 L 5.0988,3.4212 L 4.8289,3.8308 L 4.5257,4.2165 L 4.1915,4.5756 L 3.8286,4.9056 L 3.4394,5.2042 L 3.0267,5.4694 L 2.5933,5.6993 L 2.1424,5.8922 L 1.6769,6.047" />
      <path d="M 0.0549,11.1563 L -0.8418,11.1189 L -1.7322,11.007 L -2.6102,10.8212 L -3.4697,10.563 L -4.3048,10.2341 L -5.1095,9.8367 L -5.8783,9.3738 L -6.6059,8.8484 L -7.2872,8.2642 L -7.9175,7.6253 L -8.4923,6.9361 L -9.0078,6.2015 L -9.4603,5.4264 L -9.8467,4.6164 L -10.1642,3.777 L -10.4108,2.9141 L -10.5846,2.0336 L -10.6844,1.1417 L -10.7097,0.2446 L -10.6601,-0.6515 L -10.536,-1.5403 L -10.3384,-2.4157 L -10.0685,-3.2717 L -9.7283,-4.1021 L -9.3201,-4.9014 L -8.8467,-5.6638 L -8.3115,-6.3842 L -7.7181,-7.0575 L -7.0707,-7.6791 L -6.3738,-8.2446 L -5.6322,-8.75 L -4.8511,-9.1919 L -4.0359,-9.5673 L -3.1923,-9.8734 L -2.3261,-10.1082 L -1.4434,-10.27 L -0.5502,-10.3578 L 0.3472,-10.3708 L 1.2425,-10.3091 L 2.1296,-10.173 L 3.0022,-9.9635 L 3.8544,-9.682 L 4.6802,-9.3306 L 5.4738,-8.9115 L 6.2298,-8.4279 L 6.9429,-7.8829 L 7.608,-7.2805 L 8.2207,-6.6247 L 8.7767,-5.9202 L 9.272,-5.1718 L 9.7033,-4.3848 L 10.0676,-3.5645 L 10.3622,-2.7168 L 10.5852,-1.8475 L 10.7351,-0.9627 L 10.8107,-0.0684 L 10.8116,0.8291 L 10.7377,1.7235 L 10.5896,2.6086 L 10.3682,3.4784 L 10.0752,4.3266 L 9.7126,5.1476 L 9.2828,5.9354 L 8.7889,6.6848 L 8.2343,7.3904 L 7.6229,8.0473 L 6.9589,8.6511 L 6.2469,9.1974 L 5.4919,9.6825 L 4.699,10.1031 L 3.8739,10.4562 L 3.0223,10.7393" />
      <path d="M 0.0548,10.5066 L -0.7878,10.4715 L -1.6246,10.3662 L -2.4497,10.1917 L -3.2574,9.949 L -4.0421,9.6399 L -4.7983,9.2666 L -5.5208,8.8315 L -6.2045,8.3378 L -6.8447,7.7888 L -7.437,7.1884 L -7.9772,6.5408 L -8.4616,5.8504 L -8.8868,5.1221 L -9.2499,4.3609 L -9.5483,3.5721 L -9.78,2.7612 L -9.9433,1.9338 L -10.0372,1.0957 L -10.0609,0.2527 L -10.0143,-0.5894 L -9.8977,-1.4247 L -9.712,-2.2473 L -9.4584,-3.0517 L -9.1387,-3.8321 L -8.7551,-4.5831 L -8.3103,-5.2997 L -7.8073,-5.9766 L -7.2497,-6.6093 L -6.6413,-7.1934 L -5.9864,-7.7248 L -5.2895,-8.1998 L -4.5555,-8.6151 L -3.7895,-8.9678 L -2.9967,-9.2555 L -2.1827,-9.4761 L -1.3532,-9.6282 L -0.5138,-9.7107 L 0.3294,-9.7229 L 1.1708,-9.6649 L 2.0044,-9.537 L 2.8245,-9.3401 L 3.6253,-9.0756 L 4.4013,-8.7454 L 5.1471,-8.3516 L 5.8575,-7.8971 L 6.5275,-7.385 L 7.1526,-6.8188 L 7.7284,-6.2026 L 8.2509,-5.5405 L 8.7163,-4.8373 L 9.1216,-4.0977 L 9.4639,-3.3269 L 9.7408,-2.5303 L 9.9504,-1.7134 L 10.0912,-0.8819 L 10.1622,-0.0415 L 10.1631,0.8019 L 10.0936,1.6424 L 9.9544,2.4742 L 9.7464,3.2915 L 9.4711,4.0886 L 9.1303,4.8601 L 8.7265,5.6004 L 8.2623,6.3046 L 7.7412,6.9677 L 7.1666,7.585 L 6.5426,8.1524 L 5.8735,8.6658 L 5.164,9.1217 L 4.419,9.5169 L 3.6436,9.8487 L 2.8433,10.1147" />
      <path d="M 0.0549,11.1563 L 0.0549,11.1473 L 0.0549,11.1383 L 0.0549,11.1293 L 0.0549,11.1202 L 0.0549,11.1112 L 0.0549,11.1022 L 0.0549,11.0932 L 0.0549,11.0841 L 0.0549,11.0751 L 0.0549,11.0661 L 0.0549,11.0571 L 0.0549,11.048 L 0.0549,11.039 L 0.0549,11.03 L 0.0549,11.021 L 0.0549,11.0119 L 0.0549,11.0029 L 0.0549,10.9939 L 0.0549,10.9849 L 0.0549,10.9759 L 0.0549,10.9668 L 0.0549,10.9578 L 0.0549,10.9488 L 0.0549,10.9398 L 0.0549,10.9307 L 0.0549,10.9217 L 0.0549,10.9127 L 0.0549,10.9037 L 0.0549,10.8946 L 0.0549,10.8856 L 0.0549,10.8766 L 0.0549,10.8676 L 0.0549,10.8585 L 0.0549,10.8495 L 0.0549,10.8405 L 0.0549,10.8315 L 0.0549,10.8224 L 0.0549,10.8134 L 0.0549,10.8044 L 0.0549,10.7954 L 0.0549,10.7864 L 0.0549,10.7773 L 0.0549,10.7683 L 0.0549,10.7593 L 0.0548,10.7503 L 0.0548,10.7412 L 0.0548,10.7322 L 0.0548,10.7232 L 0.0548,10.7142 L 0.0548,10.7051 L 0.0548,10.6961 L 0.0548,10.6871 L 0.0548,10.6781 L 0.0548,10.669 L 0.0548,10.66 L 0.0548,10.651 L 0.0548,10.642 L 0.0548,10.6329 L 0.0548,10.6239 L 0.0548,10.6149 L 0.0548,10.6059 L 0.0548,10.5969 L 0.0548,10.5878 L 0.0548,10.5788 L 0.0548,10.5698 L 0.0548,10.5608 L 0.0548,10.5517 L 0.0548,10.5427 L 0.0548,10.5337 L 0.0548,10.5247 L 0.0548,10.5156 L 0.0548,10.5066" />
      <path d="M 3.0223,10.7393 L 3.0198,10.7306 L 3.0173,10.7219 L 3.0149,10.7133 L 3.0124,10.7046 L 3.0099,10.6959 L 3.0074,10.6872 L 3.0049,10.6786 L 3.0024,10.6699 L 2.9999,10.6612 L 2.9975,10.6525 L 2.995,10.6439 L 2.9925,10.6352 L 2.99,10.6265 L 2.9875,10.6178 L 2.985,10.6092 L 2.9825,10.6005 L 2.9801,10.5918 L 2.9776,10.5831 L 2.9751,10.5745 L 2.9726,10.5658 L 2.9701,10.5571 L 2.9676,10.5484 L 2.9651,10.5398 L 2.9627,10.5311 L 2.9602,10.5224 L 2.9577,10.5137 L 2.9552,10.5051 L 2.9527,10.4964 L 2.9502,10.4877 L 2.9477,10.479 L 2.9452,10.4704 L 2.9428,10.4617 L 2.9403,10.453 L 2.9378,10.4443 L 2.9353,10.4357 L 2.9328,10.427 L 2.9303,10.4183 L 2.9278,10.4097 L 2.9254,10.401 L 2.9229,10.3923 L 2.9204,10.3836 L 2.9179,10.375 L 2.9154,10.3663 L 2.9129,10.3576 L 2.9104,10.3489 L 2.908,10.3403 L 2.9055,10.3316 L 2.903,10.3229 L 2.9005,10.3142 L 2.898,10.3056 L 2.8955,10.2969 L 2.893,10.2882 L 2.8906,10.2795 L 2.8881,10.2709 L 2.8856,10.2622 L 2.8831,10.2535 L 2.8806,10.2448 L 2.8781,10.2362 L 2.8756,10.2275 L 2.8732,10.2188 L 2.8707,10.2101 L 2.8682,10.2015 L 2.8657,10.1928 L 2.8632,10.1841 L 2.8607,10.1754 L 2.8582,10.1668 L 2.8558,10.1581 L 2.8533,10.1494 L 2.8508,10.1407 L 2.8483,10.1321 L 2.8458,10.1234 L 2.8433,10.1147" />
      <path d="M 0.0549,6.2749 L 0.0549,6.3337 L 0.0549,6.3925 L 0.0549,6.4513 L 0.0549,6.51 L 0.0549,6.5688 L 0.0549,6.6276 L 0.0549,6.6864 L 0.0549,6.7451 L 0.0549,6.8039 L 0.0549,6.8627 L 0.0549,6.9215 L 0.0549,6.9802 L 0.0549,7.039 L 0.0549,7.0978 L 0.0549,7.1565 L 0.0549,7.2153 L 0.0549,7.2741 L 0.0549,7.3329 L 0.0549,7.3916 L 0.0549,7.4504 L 0.0549,7.5092 L 0.0549,7.568 L 0.0549,7.6267 L 0.0549,7.6855 L 0.0549,7.7443 L 0.0549,7.803 L 0.0549,7.8618 L 0.0549,7.9206 L 0.0549,7.9794 L 0.0549,8.0381 L 0.0549,8.0969 L 0.0549,8.1557 L 0.0548,8.2145 L 0.0548,8.2732 L 0.0548,8.332 L 0.0548,8.3908 L 0.0548,8.4496 L 0.0548,8.5083 L 0.0548,8.5671 L 0.0548,8.6259 L 0.0548,8.6846 L 0.0548,8.7434 L 0.0548,8.8022 L 0.0548,8.861 L 0.0548,8.9197 L 0.0548,8.9785 L 0.0548,9.0373 L 0.0548,9.0961 L 0.0548,9.1548 L 0.0548,9.2136 L 0.0548,9.2724 L 0.0548,9.3312 L 0.0548,9.3899 L 0.0548,9.4487 L 0.0548,9.5075 L 0.0548,9.5662 L 0.0548,9.625 L 0.0548,9.6838 L 0.0548,9.7426 L 0.0548,9.8013 L 0.0548,9.8601 L 0.0548,9.9189 L 0.0548,9.9777 L 0.0548,10.0364 L 0.0548,10.0952 L 0.0548,10.154 L 0.0548,10.2127 L 0.0548,10.2715 L 0.0548,10.3303 L 0.0548,10.3891 L 0.0548,10.4478 L 0.0548,10.5066" />
      <path d="M 1.6769,6.047 L 1.6931,6.1035 L 1.7093,6.16 L 1.7255,6.2165 L 1.7417,6.273 L 1.7579,6.3295 L 1.7741,6.386 L 1.7903,6.4425 L 1.8065,6.499 L 1.8227,6.5555 L 1.8389,6.612 L 1.8551,6.6685 L 1.8713,6.7249 L 1.8875,6.7814 L 1.9037,6.8379 L 1.9199,6.8944 L 1.9361,6.9509 L 1.9523,7.0074 L 1.9685,7.0639 L 1.9847,7.1204 L 2.0009,7.1769 L 2.0171,7.2334 L 2.0333,7.2899 L 2.0495,7.3464 L 2.0657,7.4029 L 2.0819,7.4594 L 2.0981,7.5159 L 2.1143,7.5724 L 2.1305,7.6289 L 2.1467,7.6854 L 2.1629,7.7419 L 2.1791,7.7984 L 2.1953,7.8549 L 2.2115,7.9114 L 2.2277,7.9679 L 2.2439,8.0244 L 2.2601,8.0809 L 2.2763,8.1373 L 2.2925,8.1938 L 2.3087,8.2503 L 2.3249,8.3068 L 2.3411,8.3633 L 2.3573,8.4198 L 2.3735,8.4763 L 2.3897,8.5328 L 2.4059,8.5893 L 2.4221,8.6458 L 2.4383,8.7023 L 2.4545,8.7588 L 2.4707,8.8153 L 2.4869,8.8718 L 2.5031,8.9283 L 2.5193,8.9848 L 2.5355,9.0413 L 2.5517,9.0978 L 2.5679,9.1543 L 2.5841,9.2108 L 2.6003,9.2673 L 2.6165,9.3238 L 2.6327,9.3803 L 2.6489,9.4368 L 2.6651,9.4933 L 2.6813,9.5498 L 2.6975,9.6062 L 2.7137,9.6627 L 2.7299,9.7192 L 2.7461,9.7757 L 2.7623,9.8322 L 2.7785,9.8887 L 2.7947,9.9452 L 2.8109,10.0017 L 2.8271,10.0582 L 2.8433,10.1147" />
      <path d="M 18.1933,6.924 L 18.1934,6.7425 L 18.1934,6.561 L 18.1934,6.3795 L 18.1934,6.198 L 18.1934,6.0166 L 18.1935,5.8351 L 18.1935,5.6536 L 18.1935,5.4721 L 18.1935,5.2906 L 18.1935,5.1091 L 18.1935,4.9277 L 18.1935,4.7462 L 18.1935,4.5647 L 18.1935,4.3832 L 18.1935,4.2017 L 18.1935,4.0202 L 18.1935,3.8388 L 18.1935,3.6573 L 18.1935,3.4758 L 18.1936,3.2943 L 18.1936,3.1128 L 18.1936,2.9314 L 18.1936,2.7499 L 18.1936,2.5684 L 18.1936,2.3869 L 18.1936,2.2054 L 18.1936,2.0239 L 18.1936,1.8425 L 18.1936,1.661 L 18.1936,1.4795 L 18.1936,1.298 L 18.1936,1.1165 L 18.1936,0.935 L 18.1936,0.7536 L 18.1936,0.5721 L 18.1936,0.3906 L 18.1936,0.2091 L 18.1936,0.0276 L 18.1936,-0.1538 L 18.1936,-0.3353 L 18.1936,-0.5168 L 18.1936,-0.6983 L 18.1936,-0.8798 L 18.1936,-1.0613 L 18.1936,-1.2427 L 18.1936,-1.4242 L 18.1936,-1.6057 L 18.1936,-1.7872 L 18.1936,-1.9687 L 18.1936,-2.1502 L 18.1936,-2.3316 L 18.1936,-2.5131 L 18.1935,-2.6946 L 18.1935,-2.8761 L 18.1935,-3.0576 L 18.1935,-3.239 L 18.1935,-3.4205 L 18.1935,-3.602 L 18.1935,-3.7835 L 18.1935,-3.965 L 18.1935,-4.1465 L 18.1935,-4.3279 L 18.1935,-4.5094 L 18.1935,-4.6909 L 18.1935,-4.8724 L 18.1935,-5.0539 L 18.1934,-5.2354 L 18.1934,-5.4168 L 18.1934,-5.5983 L 18.1934,-5.7798 L 18.1934,-5.9613 L 18.1933,-6.1428" />
      <path d="M 18.1933,-6.1428 L 18.1932,-5.9648 L 18.1932,-5.7869 L 18.1932,-5.6089 L 18.1932,-5.4309 L 18.1931,-5.253 L 18.1931,-5.075 L 18.1931,-4.8971 L 18.1931,-4.7191 L 18.1931,-4.5412 L 18.1931,-4.3632 L 18.1931,-4.1852 L 18.1931,-4.0073 L 18.1931,-3.8293 L 18.1931,-3.6514 L 18.1931,-3.4734 L 18.193,-3.2954 L 18.193,-3.1175 L 18.193,-2.9395 L 18.193,-2.7616 L 18.193,-2.5836 L 18.193,-2.4057 L 18.193,-2.2277 L 18.193,-2.0497 L 18.193,-1.8718 L 18.193,-1.6938 L 18.193,-1.5159 L 18.193,-1.3379 L 18.193,-1.16 L 18.193,-0.982 L 18.193,-0.804 L 18.193,-0.6261 L 18.193,-0.4481 L 18.193,-0.2702 L 18.193,-0.0922 L 18.193,0.0857 L 18.193,0.2637 L 18.193,0.4417 L 18.193,0.6196 L 18.193,0.7976 L 18.193,0.9755 L 18.193,1.1535 L 18.193,1.3314 L 18.193,1.5094 L 18.193,1.6874 L 18.193,1.8653 L 18.193,2.0433 L 18.193,2.2212 L 18.193,2.3992 L 18.193,2.5771 L 18.193,2.7551 L 18.193,2.9331 L 18.193,3.111 L 18.193,3.289 L 18.193,3.4669 L 18.193,3.6449 L 18.193,3.8229 L 18.193,4.0008 L 18.193,4.1788 L 18.1931,4.3567 L 18.1931,4.5347 L 18.1931,4.7126 L 18.1931,4.8906 L 18.1931,5.0686 L 18.1931,5.2465 L 18.1931,5.4245 L 18.1931,5.6024 L 18.1931,5.7804 L 18.1931,5.9583 L 18.1931,6.1363 L 18.1932,6.3143 L 18.1932,6.4922 L 18.1932,6.6702" />
      <path d="M 18.1933,6.924 L 18.1922,6.9236 L 18.1911,6.9233 L 18.1901,6.9229 L 18.189,6.9226 L 18.1879,6.9222 L 18.1868,6.9219 L 18.1858,6.9215 L 18.1847,6.9212 L 18.1836,6.9208 L 18.1825,6.9205 L 18.1815,6.9201 L 18.1804,6.9198 L 18.1793,6.9194 L 18.1782,6.9191 L 18.1772,6.9187 L 18.1761,6.9184 L 18.175,6.918 L 18.1739,6.9177 L 18.1729,6.9173 L 18.1718,6.917 L 18.1707,6.9166 L 18.1696,6.9163 L 18.1686,6.9159 L 18.1675,6.9156 L 18.1664,6.9152 L 18.1653,6.9149 L 18.1643,6.9145 L 18.1632,6.9142 L 18.1621,6.9138 L 18.161,6.9135 L 18.16,6.9131 L 18.1589,6.9128 L 18.1578,6.9124 L 18.1567,6.9121 L 18.1557,6.9117 L 18.1546,6.9114 L 18.1535,6.911 L 18.1524,6.9107 L 18.1514,6.9103 L 18.1503,6.91 L 18.1492,6.9096 L 18.1481,6.9093 L 18.1471,6.909 L 18.146,6.9086 L 18.1449,6.9083 L 18.1439,6.9079 L 18.1428,6.9076 L 18.1417,6.9072 L 18.1406,6.9069 L 18.1396,6.9065 L 18.1385,6.9062 L 18.1374,6.9058 L 18.1363,6.9055 L 18.1353,6.9051 L 18.1342,6.9048 L 18.1331,6.9044 L 18.132,6.9041 L 18.131,6.9037 L 18.1299,6.9034 L 18.1288,6.903 L 18.1277,6.9027 L 18.1267,6.9023 L 18.1256,6.902 L 18.1245,6.9016 L 18.1234,6.9013 L 18.1224,6.9009 L 18.1213,6.9006 L 18.1202,6.9002 L 18.1191,6.8999 L 18.1181,6.8995 L 18.117,6.8992 L 18.1159,6.8988" />
      <path d="M 16.8182,-10.375 L 16.818,-10.0817 L 16.818,-9.7885 L 16.818,-9.4953 L 16.8179,-9.202 L 16.8179,-8.9088 L 16.8179,-8.6156 L 16.8179,-8.3223 L 16.8179,-8.0291 L 16.8178,-7.7359 L 16.8178,-7.4426 L 16.8178,-7.1494 L 16.8178,-6.8561 L 16.8178,-6.5629 L 16.8178,-6.2697 L 16.8178,-5.9764 L 16.8178,-5.6832 L 16.8178,-5.39 L 16.8177,-5.0967 L 16.8177,-4.8035 L 16.8177,-4.5103 L 16.8177,-4.217 L 16.8177,-3.9238 L 16.8177,-3.6306 L 16.8177,-3.3373 L 16.8177,-3.0441 L 16.8177,-2.7509 L 16.8177,-2.4576 L 16.8177,-2.1644 L 16.8177,-1.8711 L 16.8177,-1.5779 L 16.8177,-1.2847 L 16.8177,-0.9914 L 16.8177,-0.6982 L 16.8177,-0.405 L 16.8177,-0.1117 L 16.8177,0.1815 L 16.8177,0.4747 L 16.8177,0.768 L 16.8177,1.0612 L 16.8177,1.3544 L 16.8177,1.6477 L 16.8177,1.9409 L 16.8177,2.2341 L 16.8177,2.5274 L 16.8177,2.8206 L 16.8177,3.1139 L 16.8177,3.4071 L 16.8177,3.7003 L 16.8177,3.9936 L 16.8177,4.2868 L 16.8177,4.58 L 16.8177,4.8733 L 16.8177,5.1665 L 16.8177,5.4597 L 16.8177,5.753 L 16.8177,6.0462 L 16.8178,6.3394 L 16.8178,6.6327 L 16.8178,6.9259 L 16.8178,7.2191 L 16.8178,7.5124 L 16.8178,7.8056 L 16.8178,8.0989 L 16.8178,8.3921 L 16.8179,8.6853 L 16.8179,8.9786 L 16.8179,9.2718 L 16.8179,9.565 L 16.8179,9.8583 L 16.818,10.1515 L 16.818,10.4447 L 16.818,10.738" />
      <path d="M 18.1933,6.924 L 18.1742,6.9827 L 18.1551,7.0415 L 18.136,7.1003 L 18.1169,7.1591 L 18.0978,7.2179 L 18.0787,7.2766 L 18.0596,7.3354 L 18.0405,7.3942 L 18.0214,7.453 L 18.0023,7.5118 L 17.9832,7.5706 L 17.9641,7.6293 L 17.945,7.6881 L 17.9259,7.7469 L 17.9068,7.8057 L 17.8877,7.8645 L 17.8686,7.9232 L 17.8495,7.982 L 17.8304,8.0408 L 17.8113,8.0996 L 17.7922,8.1584 L 17.7731,8.2171 L 17.754,8.2759 L 17.7349,8.3347 L 17.7158,8.3935 L 17.6967,8.4523 L 17.6776,8.511 L 17.6585,8.5698 L 17.6394,8.6286 L 17.6203,8.6874 L 17.6012,8.7462 L 17.5821,8.8049 L 17.563,8.8637 L 17.5439,8.9225 L 17.5248,8.9813 L 17.5057,9.0401 L 17.4866,9.0988 L 17.4675,9.1576 L 17.4484,9.2164 L 17.4293,9.2752 L 17.4102,9.334 L 17.3911,9.3928 L 17.372,9.4515 L 17.3529,9.5103 L 17.3338,9.5691 L 17.3147,9.6279 L 17.2956,9.6867 L 17.2765,9.7454 L 17.2574,9.8042 L 17.2383,9.863 L 17.2192,9.9218 L 17.2001,9.9806 L 17.181,10.0393 L 17.1619,10.0981 L 17.1428,10.1569 L 17.1237,10.2157 L 17.1046,10.2745 L 17.0855,10.3332 L 17.0664,10.392 L 17.0474,10.4508 L 17.0283,10.5096 L 17.0092,10.5684 L 16.9901,10.6271 L 16.971,10.6859 L 16.9519,10.7447 L 16.9328,10.8035 L 16.9137,10.8623 L 16.8946,10.921 L 16.8755,10.9798 L 16.8564,11.0386 L 16.8373,11.0974 L 16.8182,11.1562" />
      <path d="M 18.1932,6.6702 L 18.1741,6.7267 L 18.155,6.7832 L 18.1359,6.8397 L 18.1168,6.8962 L 18.0977,6.9527 L 18.0786,7.0092 L 18.0595,7.0657 L 18.0404,7.1221 L 18.0213,7.1786 L 18.0022,7.2351 L 17.9831,7.2916 L 17.964,7.3481 L 17.9449,7.4046 L 17.9258,7.4611 L 17.9067,7.5176 L 17.8876,7.5741 L 17.8685,7.6306 L 17.8494,7.6871 L 17.8303,7.7436 L 17.8112,7.8001 L 17.7921,7.8566 L 17.773,7.9131 L 17.7539,7.9696 L 17.7348,8.0261 L 17.7157,8.0826 L 17.6966,8.1391 L 17.6775,8.1956 L 17.6584,8.2521 L 17.6393,8.3086 L 17.6202,8.3651 L 17.6011,8.4216 L 17.582,8.4781 L 17.5629,8.5346 L 17.5438,8.5911 L 17.5247,8.6476 L 17.5056,8.7041 L 17.4865,8.7606 L 17.4674,8.8171 L 17.4483,8.8736 L 17.4292,8.9301 L 17.4101,8.9866 L 17.391,9.0431 L 17.3719,9.0996 L 17.3528,9.156 L 17.3337,9.2125 L 17.3146,9.269 L 17.2955,9.3255 L 17.2764,9.382 L 17.2573,9.4385 L 17.2382,9.495 L 17.2191,9.5515 L 17.2,9.608 L 17.1809,9.6645 L 17.1618,9.721 L 17.1427,9.7775 L 17.1236,9.834 L 17.1045,9.8905 L 17.0854,9.947 L 17.0663,10.0035 L 17.0472,10.06 L 17.0281,10.1165 L 17.009,10.173 L 16.9899,10.2295 L 16.9708,10.286 L 16.9517,10.3425 L 16.9326,10.399 L 16.9135,10.4555 L 16.8944,10.512 L 16.8753,10.5685 L 16.8562,10.625 L 16.8371,10.6815 L 16.818,10.738" />
      <path d="M 14.8209,10.5072 L 14.821,10.5018 L 14.821,10.4963 L 14.821,10.4909 L 14.821,10.4854 L 14.821,10.4799 L 14.821,10.4745 L 14.821,10.469 L 14.821,10.4636 L 14.821,10.4581 L 14.821,10.4527 L 14.821,10.4472 L 14.821,10.4417 L 14.821,10.4363 L 14.821,10.4308 L 14.821,10.4254 L 14.821,10.4199 L 14.821,10.4145 L 14.821,10.409 L 14.821,10.4035 L 14.821,10.3981 L 14.821,10.3926 L 14.821,10.3872 L 14.821,10.3817 L 14.821,10.3763 L 14.821,10.3708 L 14.821,10.3653 L 14.821,10.3599 L 14.821,10.3544 L 14.821,10.349 L 14.821,10.3435 L 14.821,10.3381 L 14.821,10.3326 L 14.821,10.3271 L 14.821,10.3217 L 14.821,10.3162 L 14.821,10.3108 L 14.821,10.3053 L 14.821,10.2999 L 14.821,10.2944 L 14.821,10.2889 L 14.821,10.2835 L 14.821,10.278 L 14.821,10.2726 L 14.821,10.2671 L 14.821,10.2617 L 14.821,10.2562 L 14.821,10.2507 L 14.821,10.2453 L 14.821,10.2398 L 14.8211,10.2344 L 14.8211,10.2289 L 14.8211,10.2235 L 14.8211,10.218 L 14.8211,10.2125 L 14.8211,10.2071 L 14.8211,10.2016 L 14.8211,10.1962 L 14.8211,10.1907 L 14.8211,10.1853 L 14.8211,10.1798 L 14.8211,10.1743 L 14.8211,10.1689 L 14.8211,10.1634 L 14.8211,10.158 L 14.8211,10.1525 L 14.8211,10.1471 L 14.8211,10.1416 L 14.8211,10.1361 L 14.8211,10.1307 L 14.8211,10.1252 L 14.8211,10.1198 L 14.8211,10.1143" />
      <path d="M 14.8209,-9.726 L 14.8208,-9.4505 L 14.8208,-9.1749 L 14.8208,-8.8994 L 14.8207,-8.6238 L 14.8207,-8.3482 L 14.8207,-8.0727 L 14.8207,-7.7971 L 14.8207,-7.5216 L 14.8206,-7.246 L 14.8206,-6.9704 L 14.8206,-6.6949 L 14.8206,-6.4193 L 14.8206,-6.1438 L 14.8206,-5.8682 L 14.8206,-5.5926 L 14.8206,-5.3171 L 14.8206,-5.0415 L 14.8206,-4.766 L 14.8205,-4.4904 L 14.8205,-4.2148 L 14.8205,-3.9393 L 14.8205,-3.6637 L 14.8205,-3.3882 L 14.8205,-3.1126 L 14.8205,-2.837 L 14.8205,-2.5615 L 14.8205,-2.2859 L 14.8205,-2.0104 L 14.8205,-1.7348 L 14.8205,-1.4593 L 14.8205,-1.1837 L 14.8205,-0.9081 L 14.8205,-0.6326 L 14.8205,-0.357 L 14.8205,-0.0815 L 14.8205,0.1941 L 14.8205,0.4697 L 14.8205,0.7452 L 14.8205,1.0208 L 14.8205,1.2963 L 14.8205,1.5719 L 14.8205,1.8475 L 14.8205,2.123 L 14.8205,2.3986 L 14.8205,2.6741 L 14.8205,2.9497 L 14.8205,3.2253 L 14.8205,3.5008 L 14.8205,3.7764 L 14.8205,4.0519 L 14.8205,4.3275 L 14.8205,4.6031 L 14.8205,4.8786 L 14.8205,5.1542 L 14.8205,5.4297 L 14.8206,5.7053 L 14.8206,5.9809 L 14.8206,6.2564 L 14.8206,6.532 L 14.8206,6.8075 L 14.8206,7.0831 L 14.8206,7.3586 L 14.8206,7.6342 L 14.8206,7.9098 L 14.8207,8.1853 L 14.8207,8.4609 L 14.8207,8.7364 L 14.8207,9.012 L 14.8207,9.2876 L 14.8208,9.5631 L 14.8208,9.8387 L 14.8208,10.1142" />
      <path d="M 16.8182,11.1562 L 16.7904,11.1472 L 16.7627,11.1381 L 16.7349,11.1291 L 16.7072,11.1201 L 16.6795,11.1111 L 16.6517,11.1021 L 16.624,11.0931 L 16.5962,11.0841 L 16.5685,11.0751 L 16.5408,11.066 L 16.513,11.057 L 16.4853,11.048 L 16.4576,11.039 L 16.4298,11.03 L 16.4021,11.021 L 16.3743,11.012 L 16.3466,11.0029 L 16.3189,10.9939 L 16.2911,10.9849 L 16.2634,10.9759 L 16.2356,10.9669 L 16.2079,10.9579 L 16.1802,10.9489 L 16.1524,10.9399 L 16.1247,10.9308 L 16.0969,10.9218 L 16.0692,10.9128 L 16.0415,10.9038 L 16.0137,10.8948 L 15.986,10.8858 L 15.9582,10.8768 L 15.9305,10.8678 L 15.9028,10.8587 L 15.875,10.8497 L 15.8473,10.8407 L 15.8196,10.8317 L 15.7918,10.8227 L 15.7641,10.8137 L 15.7363,10.8047 L 15.7086,10.7956 L 15.6809,10.7866 L 15.6531,10.7776 L 15.6254,10.7686 L 15.5976,10.7596 L 15.5699,10.7506 L 15.5422,10.7416 L 15.5144,10.7326 L 15.4867,10.7235 L 15.4589,10.7145 L 15.4312,10.7055 L 15.4035,10.6965 L 15.3757,10.6875 L 15.348,10.6785 L 15.3202,10.6695 L 15.2925,10.6605 L 15.2648,10.6514 L 15.237,10.6424 L 15.2093,10.6334 L 15.1816,10.6244 L 15.1538,10.6154 L 15.1261,10.6064 L 15.0983,10.5974 L 15.0706,10.5883 L 15.0429,10.5793 L 15.0151,10.5703 L 14.9874,10.5613 L 14.9596,10.5523 L 14.9319,10.5433 L 14.9042,10.5343 L 14.8764,10.5253 L 14.8487,10.5162 L 14.8209,10.5072" />
      <path d="M 16.818,10.738 L 16.7903,10.7293 L 16.7626,10.7206 L 16.7348,10.712 L 16.7071,10.7033 L 16.6793,10.6947 L 16.6516,10.686 L 16.6239,10.6773 L 16.5961,10.6687 L 16.5684,10.66 L 16.5406,10.6513 L 16.5129,10.6427 L 16.4852,10.634 L 16.4574,10.6254 L 16.4297,10.6167 L 16.4019,10.608 L 16.3742,10.5994 L 16.3465,10.5907 L 16.3187,10.582 L 16.291,10.5734 L 16.2632,10.5647 L 16.2355,10.556 L 16.2078,10.5474 L 16.18,10.5387 L 16.1523,10.5301 L 16.1246,10.5214 L 16.0968,10.5127 L 16.0691,10.5041 L 16.0413,10.4954 L 16.0136,10.4867 L 15.9859,10.4781 L 15.9581,10.4694 L 15.9304,10.4608 L 15.9026,10.4521 L 15.8749,10.4434 L 15.8472,10.4348 L 15.8194,10.4261 L 15.7917,10.4174 L 15.7639,10.4088 L 15.7362,10.4001 L 15.7085,10.3915 L 15.6807,10.3828 L 15.653,10.3741 L 15.6253,10.3655 L 15.5975,10.3568 L 15.5698,10.3481 L 15.542,10.3395 L 15.5143,10.3308 L 15.4866,10.3222 L 15.4588,10.3135 L 15.4311,10.3048 L 15.4033,10.2962 L 15.3756,10.2875 L 15.3479,10.2788 L 15.3201,10.2702 L 15.2924,10.2615 L 15.2646,10.2528 L 15.2369,10.2442 L 15.2092,10.2355 L 15.1814,10.2269 L 15.1537,10.2182 L 15.1259,10.2095 L 15.0982,10.2009 L 15.0705,10.1922 L 15.0427,10.1835 L 15.015,10.1749 L 14.9873,10.1662 L 14.9595,10.1576 L 14.9318,10.1489 L 14.904,10.1402 L 14.8763,10.1316 L 14.8486,10.1229 L 14.8208,10.1142" />
      <path d="M 14.9369,10.1505 L 14.9352,10.1554 L 14.9336,10.1604 L 14.932,10.1653 L 14.9304,10.1703 L 14.9288,10.1753 L 14.9272,10.1802 L 14.9256,10.1852 L 14.924,10.1901 L 14.9224,10.1951 L 14.9208,10.2 L 14.9192,10.205 L 14.9175,10.2099 L 14.9159,10.2149 L 14.9143,10.2198 L 14.9127,10.2248 L 14.9111,10.2298 L 14.9095,10.2347 L 14.9079,10.2397 L 14.9063,10.2446 L 14.9047,10.2496 L 14.9031,10.2545 L 14.9014,10.2595 L 14.8998,10.2644 L 14.8982,10.2694 L 14.8966,10.2744 L 14.895,10.2793 L 14.8934,10.2843 L 14.8918,10.2892 L 14.8902,10.2942 L 14.8886,10.2991 L 14.887,10.3041 L 14.8853,10.309 L 14.8837,10.314 L 14.8821,10.3189 L 14.8805,10.3239 L 14.8789,10.3289 L 14.8773,10.3338 L 14.8757,10.3388 L 14.8741,10.3437 L 14.8725,10.3487 L 14.8709,10.3536 L 14.8692,10.3586 L 14.8676,10.3635 L 14.866,10.3685 L 14.8644,10.3735 L 14.8628,10.3784 L 14.8612,10.3834 L 14.8596,10.3883 L 14.858,10.3933 L 14.8564,10.3982 L 14.8548,10.4032 L 14.8531,10.4081 L 14.8515,10.4131 L 14.8499,10.418 L 14.8483,10.423 L 14.8467,10.428 L 14.8451,10.4329 L 14.8435,10.4379 L 14.8419,10.4428 L 14.8403,10.4478 L 14.8387,10.4527 L 14.837,10.4577 L 14.8354,10.4626 L 14.8338,10.4676 L 14.8322,10.4725 L 14.8306,10.4775 L 14.829,10.4825 L 14.8274,10.4874 L 14.8258,10.4924 L 14.8242,10.4973 L 14.8226,10.5023 L 14.8209,10.5072" />
      <path d="M 18.1933,6.924 L 18.1742,6.9827 L 18.1551,7.0415 L 18.136,7.1003 L 18.1169,7.1591 L 18.0978,7.2179 L 18.0787,7.2767 L 18.0596,7.3354 L 18.0405,7.3942 L 18.0214,7.453 L 18.0023,7.5118 L 17.9832,7.5706 L 17.9641,7.6293 L 17.945,7.6881 L 17.9259,7.7469 L 17.9068,7.8057 L 17.8877,7.8645 L 17.8686,7.9232 L 17.8495,7.982 L 17.8304,8.0408 L 17.8113,8.0996 L 17.7922,8.1584 L 17.7731,8.2171 L 17.754,8.2759 L 17.7349,8.3347 L 17.7158,8.3935 L 17.6967,8.4523 L 17.6776,8.511 L 17.6585,8.5698 L 17.6394,8.6286 L 17.6203,8.6874 L 17.6012,8.7462 L 17.5821,8.8049 L 17.563,8.8637 L 17.5439,8.9225 L 17.5248,8.9813 L 17.5057,9.0401 L 17.4866,9.0988 L 17.4675,9.1576 L 17.4484,9.2164 L 17.4293,9.2752 L 17.4102,9.334 L 17.3911,9.3928 L 17.372,9.4515 L 17.3529,9.5103 L 17.3338,9.5691 L 17.3147,9.6279 L 17.2956,9.6867 L 17.2765,9.7454 L 17.2574,9.8042 L 17.2383,9.863 L 17.2192,9.9218 L 17.2001,9.9806 L 17.181,10.0393 L 17.1619,10.0981 L 17.1428,10.1569 L 17.1237,10.2157 L 17.1046,10.2745 L 17.0855,10.3332 L 17.0664,10.392 L 17.0474,10.4508 L 17.0283,10.5096 L 17.0092,10.5684 L 16.9901,10.6271 L 16.971,10.6859 L 16.9519,10.7447 L 16.9328,10.8035 L 16.9137,10.8623 L 16.8946,10.921 L 16.8755,10.9798 L 16.8564,11.0386 L 16.8373,11.0974 L 16.8182,11.1562" />
      <path d="M 18.1933,-6.1428 L 18.1742,-6.2015 L 18.1551,-6.2603 L 18.136,-6.3191 L 18.1169,-6.3779 L 18.0978,-6.4367 L 18.0787,-6.4955 L 18.0596,-6.5542 L 18.0405,-6.613 L 18.0214,-6.6718 L 18.0023,-6.7306 L 17.9832,-6.7894 L 17.9641,-6.8481 L 17.945,-6.9069 L 17.9259,-6.9657 L 17.9068,-7.0245 L 17.8877,-7.0833 L 17.8686,-7.142 L 17.8495,-7.2008 L 17.8304,-7.2596 L 17.8113,-7.3184 L 17.7922,-7.3772 L 17.7731,-7.4359 L 17.754,-7.4947 L 17.7349,-7.5535 L 17.7158,-7.6123 L 17.6967,-7.6711 L 17.6776,-7.7298 L 17.6585,-7.7886 L 17.6394,-7.8474 L 17.6203,-7.9062 L 17.6012,-7.965 L 17.5821,-8.0237 L 17.563,-8.0825 L 17.5439,-8.1413 L 17.5248,-8.2001 L 17.5057,-8.2589 L 17.4866,-8.3176 L 17.4675,-8.3764 L 17.4484,-8.4352 L 17.4293,-8.494 L 17.4102,-8.5528 L 17.3911,-8.6116 L 17.372,-8.6703 L 17.3529,-8.7291 L 17.3338,-8.7879 L 17.3147,-8.8467 L 17.2956,-8.9055 L 17.2765,-8.9642 L 17.2574,-9.023 L 17.2383,-9.0818 L 17.2192,-9.1406 L 17.2001,-9.1994 L 17.181,-9.2581 L 17.1619,-9.3169 L 17.1428,-9.3757 L 17.1237,-9.4345 L 17.1046,-9.4933 L 17.0855,-9.552 L 17.0664,-9.6108 L 17.0474,-9.6696 L 17.0283,-9.7284 L 17.0092,-9.7872 L 16.9901,-9.8459 L 16.971,-9.9047 L 16.9519,-9.9635 L 16.9328,-10.0223 L 16.9137,-10.0811 L 16.8946,-10.1398 L 16.8755,-10.1986 L 16.8564,-10.2574 L 16.8373,-10.3162 L 16.8182,-10.375" />
      <path d="M 14.8209,10.5072 L 14.8487,10.5162 L 14.8764,10.5253 L 14.9042,10.5343 L 14.9319,10.5433 L 14.9596,10.5523 L 14.9874,10.5613 L 15.0151,10.5703 L 15.0429,10.5793 L 15.0706,10.5883 L 15.0983,10.5974 L 15.1261,10.6064 L 15.1538,10.6154 L 15.1816,10.6244 L 15.2093,10.6334 L 15.237,10.6424 L 15.2648,10.6514 L 15.2925,10.6605 L 15.3202,10.6695 L 15.348,10.6785 L 15.3757,10.6875 L 15.4035,10.6965 L 15.4312,10.7055 L 15.4589,10.7145 L 15.4867,10.7235 L 15.5144,10.7326 L 15.5422,10.7416 L 15.5699,10.7506 L 15.5976,10.7596 L 15.6254,10.7686 L 15.6531,10.7776 L 15.6809,10.7866 L 15.7086,10.7956 L 15.7363,10.8047 L 15.7641,10.8137 L 15.7918,10.8227 L 15.8196,10.8317 L 15.8473,10.8407 L 15.875,10.8497 L 15.9028,10.8587 L 15.9305,10.8678 L 15.9582,10.8768 L 15.986,10.8858 L 16.0137,10.8948 L 16.0415,10.9038 L 16.0692,10.9128 L 16.0969,10.9218 L 16.1247,10.9308 L 16.1524,10.9399 L 16.1802,10.9489 L 16.2079,10.9579 L 16.2356,10.9669 L 16.2634,10.9759 L 16.2911,10.9849 L 16.3189,10.9939 L 16.3466,11.0029 L 16.3743,11.012 L 16.4021,11.021 L 16.4298,11.03 L 16.4576,11.039 L 16.4853,11.048 L 16.513,11.057 L 16.5408,11.066 L 16.5685,11.0751 L 16.5963,11.0841 L 16.624,11.0931 L 16.6517,11.1021 L 16.6795,11.1111 L 16.7072,11.1201 L 16.7349,11.1291 L 16.7627,11.1381 L 16.7904,11.1472 L 16.8182,11.1562" />
      <path d="M 14.8209,-9.726 L 14.8487,-9.735 L 14.8764,-9.7441 L 14.9042,-9.7531 L 14.9319,-9.7621 L 14.9596,-9.7711 L 14.9874,-9.7801 L 15.0151,-9.7891 L 15.0429,-9.7981 L 15.0706,-9.8072 L 15.0983,-9.8162 L 15.1261,-9.8252 L 15.1538,-9.8342 L 15.1816,-9.8432 L 15.2093,-9.8522 L 15.237,-9.8612 L 15.2648,-9.8702 L 15.2925,-9.8793 L 15.3202,-9.8883 L 15.348,-9.8973 L 15.3757,-9.9063 L 15.4035,-9.9153 L 15.4312,-9.9243 L 15.4589,-9.9333 L 15.4867,-9.9423 L 15.5144,-9.9514 L 15.5422,-9.9604 L 15.5699,-9.9694 L 15.5976,-9.9784 L 15.6254,-9.9874 L 15.6531,-9.9964 L 15.6809,-10.0054 L 15.7086,-10.0144 L 15.7363,-10.0235 L 15.7641,-10.0325 L 15.7918,-10.0415 L 15.8196,-10.0505 L 15.8473,-10.0595 L 15.875,-10.0685 L 15.9028,-10.0775 L 15.9305,-10.0866 L 15.9582,-10.0956 L 15.986,-10.1046 L 16.0137,-10.1136 L 16.0415,-10.1226 L 16.0692,-10.1316 L 16.0969,-10.1406 L 16.1247,-10.1496 L 16.1524,-10.1587 L 16.1802,-10.1677 L 16.2079,-10.1767 L 16.2356,-10.1857 L 16.2634,-10.1947 L 16.2911,-10.2037 L 16.3189,-10.2127 L 16.3466,-10.2217 L 16.3743,-10.2308 L 16.4021,-10.2398 L 16.4298,-10.2488 L 16.4576,-10.2578 L 16.4853,-10.2668 L 16.513,-10.2758 L 16.5408,-10.2848 L 16.5685,-10.2939 L 16.5962,-10.3029 L 16.624,-10.3119 L 16.6517,-10.3209 L 16.6795,-10.3299 L 16.7072,-10.3389 L 16.7349,-10.3479 L 16.7627,-10.3569 L 16.7904,-10.366 L 16.8182,-10.375" />
    </g>
    <g fill="none" stroke="rgb(110,110,110)" stroke-width="0.3" id="Hidden" stroke-dasharray="3.6 0.9">
      <path d="M 0.055,6.9247 L -0.4892,6.902 L -1.0296,6.834 L -1.5624,6.7213 L -2.084,6.5646 L -2.5908,6.365 L -3.0791,6.1238 L -3.5457,5.8429 L -3.9873,5.524 L -4.4008,5.1695 L -4.7833,4.7818 L -5.1321,4.3635 L -5.445,3.9177 L -5.7196,3.4473 L -5.954,2.9557 L -6.1468,2.4463 L -6.2964,1.9226 L -6.4019,1.3883 L -6.4625,0.847 L -6.4778,0.3026 L -6.4477,-0.2412 L -6.3724,-0.7806 L -6.2525,-1.3119 L -6.0887,-1.8313 L -5.8822,-2.3353 L -5.6345,-2.8204 L -5.3472,-3.2831 L -5.0224,-3.7203 L -4.6623,-4.1289 L -4.2694,-4.5061 L -3.8465,-4.8493 L -3.3964,-5.156 L -2.9224,-5.4242 L -2.4276,-5.652 L -1.9157,-5.8378 L -1.39,-5.9803 L -0.8543,-6.0785 L -0.3122,-6.1317 L 0.2323,-6.1397 L 0.7757,-6.1022 L 1.3141,-6.0196 L 1.8437,-5.8925 L 2.3608,-5.7216 L 2.862,-5.5083 L 3.3436,-5.2541 L 3.8024,-4.9605 L 4.2351,-4.6298 L 4.6388,-4.2642 L 5.0106,-3.8662 L 5.348,-3.4387 L 5.6486,-2.9845 L 5.9104,-2.5069 L 6.1314,-2.0091 L 6.3102,-1.4946 L 6.4456,-0.9671 L 6.5365,-0.4301 L 6.5824,0.1126 L 6.5829,0.6573 L 6.5381,1.2001 L 6.4482,1.7373 L 6.3139,2.2651 L 6.1361,2.7799 L 5.916,3.2781 L 5.6552,3.7562 L 5.3555,4.211 L 5.0189,4.6392 L 4.6478,5.0379 L 4.2448,5.4043 L 3.8128,5.7358 L 3.3545,6.0303 L 2.8734,6.2855 L 2.3727,6.4998 L 1.8558,6.6716" />
      <path d="M 0.055,6.9247 L 0.055,6.9156 L 0.055,6.9066 L 0.055,6.8976 L 0.055,6.8886 L 0.055,6.8795 L 0.055,6.8705 L 0.055,6.8615 L 0.055,6.8525 L 0.055,6.8434 L 0.055,6.8344 L 0.055,6.8254 L 0.055,6.8164 L 0.055,6.8074 L 0.055,6.7983 L 0.055,6.7893 L 0.055,6.7803 L 0.055,6.7713 L 0.055,6.7622 L 0.055,6.7532 L 0.055,6.7442 L 0.055,6.7352 L 0.055,6.7261 L 0.055,6.7171 L 0.055,6.7081 L 0.055,6.6991 L 0.055,6.69 L 0.055,6.681 L 0.055,6.672 L 0.0549,6.663 L 0.0549,6.6539 L 0.0549,6.6449 L 0.0549,6.6359 L 0.0549,6.6269 L 0.0549,6.6179 L 0.0549,6.6088 L 0.0549,6.5998 L 0.0549,6.5908 L 0.0549,6.5818 L 0.0549,6.5727 L 0.0549,6.5637 L 0.0549,6.5547 L 0.0549,6.5457 L 0.0549,6.5366 L 0.0549,6.5276 L 0.0549,6.5186 L 0.0549,6.5096 L 0.0549,6.5005 L 0.0549,6.4915 L 0.0549,6.4825 L 0.0549,6.4735 L 0.0549,6.4644 L 0.0549,6.4554 L 0.0549,6.4464 L 0.0549,6.4374 L 0.0549,6.4284 L 0.0549,6.4193 L 0.0549,6.4103 L 0.0549,6.4013 L 0.0549,6.3923 L 0.0549,6.3832 L 0.0549,6.3742 L 0.0549,6.3652 L 0.0549,6.3562 L 0.0549,6.3471 L 0.0549,6.3381 L 0.0549,6.3291 L 0.0549,6.3201 L 0.0549,6.311 L 0.0549,6.302 L 0.0549,6.293 L 0.0549,6.284 L 0.0549,6.2749" />
      <path d="M 1.8558,6.6716 L 1.8533,6.6629 L 1.8509,6.6542 L 1.8484,6.6455 L 1.8459,6.6369 L 1.8434,6.6282 L 1.8409,6.6195 L 1.8384,6.6108 L 1.8359,6.6022 L 1.8335,6.5935 L 1.831,6.5848 L 1.8285,6.5762 L 1.826,6.5675 L 1.8235,6.5588 L 1.821,6.5501 L 1.8185,6.5415 L 1.8161,6.5328 L 1.8136,6.5241 L 1.8111,6.5154 L 1.8086,6.5068 L 1.8061,6.4981 L 1.8036,6.4894 L 1.8011,6.4807 L 1.7987,6.4721 L 1.7962,6.4634 L 1.7937,6.4547 L 1.7912,6.446 L 1.7887,6.4374 L 1.7862,6.4287 L 1.7837,6.42 L 1.7813,6.4113 L 1.7788,6.4027 L 1.7763,6.394 L 1.7738,6.3853 L 1.7713,6.3766 L 1.7688,6.368 L 1.7663,6.3593 L 1.7639,6.3506 L 1.7614,6.3419 L 1.7589,6.3333 L 1.7564,6.3246 L 1.7539,6.3159 L 1.7514,6.3072 L 1.7489,6.2986 L 1.7465,6.2899 L 1.744,6.2812 L 1.7415,6.2725 L 1.739,6.2639 L 1.7365,6.2552 L 1.734,6.2465 L 1.7315,6.2378 L 1.7291,6.2292 L 1.7266,6.2205 L 1.7241,6.2118 L 1.7216,6.2031 L 1.7191,6.1945 L 1.7166,6.1858 L 1.7141,6.1771 L 1.7117,6.1684 L 1.7092,6.1598 L 1.7067,6.1511 L 1.7042,6.1424 L 1.7017,6.1337 L 1.6992,6.1251 L 1.6967,6.1164 L 1.6943,6.1077 L 1.6918,6.099 L 1.6893,6.0904 L 1.6868,6.0817 L 1.6843,6.073 L 1.6818,6.0643 L 1.6793,6.0557 L 1.6769,6.047" />
      <path d="M 0.055,6.9247 L 0.055,6.9834 L 0.055,7.0422 L 0.055,7.101 L 0.055,7.1598 L 0.055,7.2185 L 0.055,7.2773 L 0.055,7.3361 L 0.055,7.3948 L 0.055,7.4536 L 0.055,7.5124 L 0.055,7.5712 L 0.055,7.6299 L 0.055,7.6887 L 0.055,7.7475 L 0.055,7.8063 L 0.055,7.865 L 0.055,7.9238 L 0.055,7.9826 L 0.055,8.0414 L 0.055,8.1001 L 0.055,8.1589 L 0.055,8.2177 L 0.055,8.2764 L 0.055,8.3352 L 0.055,8.394 L 0.055,8.4528 L 0.055,8.5115 L 0.055,8.5703 L 0.055,8.6291 L 0.055,8.6879 L 0.055,8.7466 L 0.055,8.8054 L 0.055,8.8642 L 0.055,8.9229 L 0.055,8.9817 L 0.055,9.0405 L 0.055,9.0993 L 0.055,9.158 L 0.055,9.2168 L 0.055,9.2756 L 0.055,9.3344 L 0.0549,9.3931 L 0.0549,9.4519 L 0.0549,9.5107 L 0.0549,9.5695 L 0.0549,9.6282 L 0.0549,9.687 L 0.0549,9.7458 L 0.0549,9.8045 L 0.0549,9.8633 L 0.0549,9.9221 L 0.0549,9.9809 L 0.0549,10.0396 L 0.0549,10.0984 L 0.0549,10.1572 L 0.0549,10.216 L 0.0549,10.2747 L 0.0549,10.3335 L 0.0549,10.3923 L 0.0549,10.4511 L 0.0549,10.5098 L 0.0549,10.5686 L 0.0549,10.6274 L 0.0549,10.6861 L 0.0549,10.7449 L 0.0549,10.8037 L 0.0549,10.8625 L 0.0549,10.9212 L 0.0549,10.98 L 0.0549,11.0388 L 0.0549,11.0976 L 0.0549,11.1563" />
      <path d="M 1.8558,6.6716 L 1.872,6.7281 L 1.8882,6.7846 L 1.9044,6.8411 L 1.9206,6.8976 L 1.9368,6.9541 L 1.953,7.0105 L 1.9692,7.067 L 1.9854,7.1235 L 2.0016,7.18 L 2.0178,7.2365 L 2.034,7.293 L 2.0502,7.3495 L 2.0664,7.406 L 2.0826,7.4625 L 2.0988,7.519 L 2.1151,7.5755 L 2.1313,7.632 L 2.1475,7.6885 L 2.1637,7.745 L 2.1799,7.8015 L 2.1961,7.858 L 2.2123,7.9145 L 2.2285,7.971 L 2.2447,8.0275 L 2.2609,8.084 L 2.2771,8.1405 L 2.2933,8.197 L 2.3095,8.2535 L 2.3257,8.31 L 2.3419,8.3665 L 2.3581,8.423 L 2.3743,8.4794 L 2.3905,8.5359 L 2.4067,8.5924 L 2.4229,8.6489 L 2.4391,8.7054 L 2.4553,8.7619 L 2.4715,8.8184 L 2.4877,8.8749 L 2.5039,8.9314 L 2.5201,8.9879 L 2.5363,9.0444 L 2.5525,9.1009 L 2.5687,9.1574 L 2.5849,9.2139 L 2.6011,9.2704 L 2.6173,9.3269 L 2.6335,9.3834 L 2.6497,9.4399 L 2.6659,9.4964 L 2.6821,9.5529 L 2.6983,9.6094 L 2.7145,9.6659 L 2.7307,9.7224 L 2.7469,9.7789 L 2.7631,9.8354 L 2.7793,9.8918 L 2.7955,9.9483 L 2.8117,10.0048 L 2.8279,10.0613 L 2.8441,10.1178 L 2.8603,10.1743 L 2.8765,10.2308 L 2.8927,10.2873 L 2.9089,10.3438 L 2.9251,10.4003 L 2.9413,10.4568 L 2.9575,10.5133 L 2.9737,10.5698 L 2.9899,10.6263 L 3.0061,10.6828 L 3.0223,10.7393" />
      <path d="M 16.1961,6.275 L 16.1961,6.1116 L 16.1962,5.9481 L 16.1962,5.7847 L 16.1962,5.6212 L 16.1962,5.4577 L 16.1962,5.2943 L 16.1962,5.1308 L 16.1962,4.9674 L 16.1962,4.8039 L 16.1963,4.6405 L 16.1963,4.477 L 16.1963,4.3136 L 16.1963,4.1501 L 16.1963,3.9866 L 16.1963,3.8232 L 16.1963,3.6597 L 16.1963,3.4963 L 16.1963,3.3328 L 16.1963,3.1694 L 16.1963,3.0059 L 16.1963,2.8424 L 16.1963,2.679 L 16.1963,2.5155 L 16.1963,2.3521 L 16.1963,2.1886 L 16.1963,2.0252 L 16.1963,1.8617 L 16.1963,1.6983 L 16.1963,1.5348 L 16.1963,1.3713 L 16.1963,1.2079 L 16.1963,1.0444 L 16.1963,0.881 L 16.1963,0.7175 L 16.1963,0.5541 L 16.1963,0.3906 L 16.1963,0.2271 L 16.1963,0.0637 L 16.1963,-0.0998 L 16.1963,-0.2632 L 16.1963,-0.4267 L 16.1963,-0.5901 L 16.1963,-0.7536 L 16.1963,-0.9171 L 16.1963,-1.0805 L 16.1963,-1.244 L 16.1963,-1.4074 L 16.1963,-1.5709 L 16.1963,-1.7343 L 16.1963,-1.8978 L 16.1963,-2.0612 L 16.1963,-2.2247 L 16.1963,-2.3882 L 16.1963,-2.5516 L 16.1963,-2.7151 L 16.1963,-2.8785 L 16.1963,-3.042 L 16.1963,-3.2054 L 16.1963,-3.3689 L 16.1963,-3.5324 L 16.1963,-3.6958 L 16.1963,-3.8593 L 16.1962,-4.0227 L 16.1962,-4.1862 L 16.1962,-4.3496 L 16.1962,-4.5131 L 16.1962,-4.6765 L 16.1962,-4.84 L 16.1962,-5.0035 L 16.1962,-5.1669 L 16.1961,-5.3304 L 16.1961,-5.4938" />
      <path d="M 16.1961,-5.4938 L 16.196,-5.3336 L 16.196,-5.1733 L 16.196,-5.013 L 16.1959,-4.8527 L 16.1959,-4.6924 L 16.1959,-4.5321 L 16.1959,-4.3719 L 16.1959,-4.2116 L 16.1959,-4.0513 L 16.1959,-3.891 L 16.1959,-3.7307 L 16.1959,-3.5705 L 16.1959,-3.4102 L 16.1959,-3.2499 L 16.1959,-3.0896 L 16.1959,-2.9293 L 16.1958,-2.769 L 16.1958,-2.6088 L 16.1958,-2.4485 L 16.1958,-2.2882 L 16.1958,-2.1279 L 16.1958,-1.9676 L 16.1958,-1.8074 L 16.1958,-1.6471 L 16.1958,-1.4868 L 16.1958,-1.3265 L 16.1958,-1.1662 L 16.1958,-1.0059 L 16.1958,-0.8457 L 16.1958,-0.6854 L 16.1958,-0.5251 L 16.1958,-0.3648 L 16.1958,-0.2045 L 16.1958,-0.0443 L 16.1958,0.116 L 16.1958,0.2763 L 16.1958,0.4366 L 16.1958,0.5969 L 16.1958,0.7572 L 16.1958,0.9174 L 16.1958,1.0777 L 16.1958,1.238 L 16.1958,1.3983 L 16.1958,1.5586 L 16.1958,1.7188 L 16.1958,1.8791 L 16.1958,2.0394 L 16.1958,2.1997 L 16.1958,2.36 L 16.1958,2.5202 L 16.1958,2.6805 L 16.1958,2.8408 L 16.1958,3.0011 L 16.1958,3.1614 L 16.1958,3.3217 L 16.1958,3.4819 L 16.1958,3.6422 L 16.1959,3.8025 L 16.1959,3.9628 L 16.1959,4.1231 L 16.1959,4.2833 L 16.1959,4.4436 L 16.1959,4.6039 L 16.1959,4.7642 L 16.1959,4.9245 L 16.1959,5.0848 L 16.1959,5.245 L 16.1959,5.4053 L 16.1959,5.5656 L 16.196,5.7259 L 16.196,5.8862 L 16.196,6.0464" />
      <path d="M 18.1159,6.8988 L 18.0892,6.8902 L 18.0626,6.8815 L 18.0359,6.8728 L 18.0093,6.8642 L 17.9826,6.8555 L 17.9559,6.8468 L 17.9293,6.8382 L 17.9026,6.8295 L 17.8759,6.8208 L 17.8493,6.8122 L 17.8226,6.8035 L 17.7959,6.7949 L 17.7693,6.7862 L 17.7426,6.7775 L 17.7159,6.7689 L 17.6893,6.7602 L 17.6626,6.7515 L 17.6359,6.7429 L 17.6093,6.7342 L 17.5826,6.7255 L 17.556,6.7169 L 17.5293,6.7082 L 17.5026,6.6996 L 17.476,6.6909 L 17.4493,6.6822 L 17.4226,6.6736 L 17.396,6.6649 L 17.3693,6.6562 L 17.3426,6.6476 L 17.316,6.6389 L 17.2893,6.6302 L 17.2626,6.6216 L 17.236,6.6129 L 17.2093,6.6043 L 17.1827,6.5956 L 17.156,6.5869 L 17.1293,6.5783 L 17.1027,6.5696 L 17.076,6.5609 L 17.0493,6.5523 L 17.0227,6.5436 L 16.996,6.5349 L 16.9693,6.5263 L 16.9427,6.5176 L 16.916,6.509 L 16.8893,6.5003 L 16.8627,6.4916 L 16.836,6.483 L 16.8094,6.4743 L 16.7827,6.4656 L 16.756,6.457 L 16.7294,6.4483 L 16.7027,6.4396 L 16.676,6.431 L 16.6494,6.4223 L 16.6227,6.4137 L 16.596,6.405 L 16.5694,6.3963 L 16.5427,6.3877 L 16.516,6.379 L 16.4894,6.3703 L 16.4627,6.3617 L 16.436,6.353 L 16.4094,6.3443 L 16.3827,6.3357 L 16.3561,6.327 L 16.3294,6.3183 L 16.3027,6.3097 L 16.2761,6.301 L 16.2494,6.2924 L 16.2227,6.2837 L 16.1961,6.275" />
      <path d="M 18.1932,6.6702 L 18.1655,6.6615 L 18.1377,6.6528 L 18.11,6.6442 L 18.0823,6.6355 L 18.0545,6.6269 L 18.0268,6.6182 L 17.999,6.6095 L 17.9713,6.6009 L 17.9436,6.5922 L 17.9158,6.5835 L 17.8881,6.5749 L 17.8603,6.5662 L 17.8326,6.5576 L 17.8049,6.5489 L 17.7771,6.5402 L 17.7494,6.5316 L 17.7216,6.5229 L 17.6939,6.5142 L 17.6662,6.5056 L 17.6384,6.4969 L 17.6107,6.4883 L 17.5829,6.4796 L 17.5552,6.4709 L 17.5275,6.4623 L 17.4997,6.4536 L 17.472,6.4449 L 17.4443,6.4363 L 17.4165,6.4276 L 17.3888,6.4189 L 17.361,6.4103 L 17.3333,6.4016 L 17.3056,6.393 L 17.2778,6.3843 L 17.2501,6.3756 L 17.2223,6.367 L 17.1946,6.3583 L 17.1669,6.3496 L 17.1391,6.341 L 17.1114,6.3323 L 17.0836,6.3237 L 17.0559,6.315 L 17.0282,6.3063 L 17.0004,6.2977 L 16.9727,6.289 L 16.945,6.2803 L 16.9172,6.2717 L 16.8895,6.263 L 16.8617,6.2544 L 16.834,6.2457 L 16.8063,6.237 L 16.7785,6.2284 L 16.7508,6.2197 L 16.723,6.211 L 16.6953,6.2024 L 16.6676,6.1937 L 16.6398,6.1851 L 16.6121,6.1764 L 16.5843,6.1677 L 16.5566,6.1591 L 16.5289,6.1504 L 16.5011,6.1417 L 16.4734,6.1331 L 16.4456,6.1244 L 16.4179,6.1157 L 16.3902,6.1071 L 16.3624,6.0984 L 16.3347,6.0898 L 16.307,6.0811 L 16.2792,6.0724 L 16.2515,6.0638 L 16.2237,6.0551 L 16.196,6.0464" />
      <path d="M 16.8182,11.1562 L 16.8183,10.8571 L 16.8183,10.5581 L 16.8184,10.259 L 16.8184,9.96 L 16.8184,9.6609 L 16.8184,9.3619 L 16.8185,9.0629 L 16.8185,8.7638 L 16.8185,8.4648 L 16.8185,8.1657 L 16.8185,7.8667 L 16.8185,7.5676 L 16.8185,7.2686 L 16.8185,6.9696 L 16.8186,6.6705 L 16.8186,6.3715 L 16.8186,6.0724 L 16.8186,5.7734 L 16.8186,5.4743 L 16.8186,5.1753 L 16.8186,4.8763 L 16.8186,4.5772 L 16.8186,4.2782 L 16.8186,3.9791 L 16.8186,3.6801 L 16.8186,3.381 L 16.8186,3.082 L 16.8186,2.7829 L 16.8186,2.4839 L 16.8186,2.1849 L 16.8186,1.8858 L 16.8186,1.5868 L 16.8186,1.2877 L 16.8186,0.9887 L 16.8187,0.6896 L 16.8187,0.3906 L 16.8187,0.0916 L 16.8186,-0.2075 L 16.8186,-0.5065 L 16.8186,-0.8056 L 16.8186,-1.1046 L 16.8186,-1.4037 L 16.8186,-1.7027 L 16.8186,-2.0017 L 16.8186,-2.3008 L 16.8186,-2.5998 L 16.8186,-2.8989 L 16.8186,-3.1979 L 16.8186,-3.497 L 16.8186,-3.796 L 16.8186,-4.0951 L 16.8186,-4.3941 L 16.8186,-4.6931 L 16.8186,-4.9922 L 16.8186,-5.2912 L 16.8186,-5.5903 L 16.8186,-5.8893 L 16.8185,-6.1884 L 16.8185,-6.4874 L 16.8185,-6.7864 L 16.8185,-7.0855 L 16.8185,-7.3845 L 16.8185,-7.6836 L 16.8185,-7.9826 L 16.8185,-8.2817 L 16.8184,-8.5807 L 16.8184,-8.8798 L 16.8184,-9.1788 L 16.8184,-9.4778 L 16.8183,-9.7769 L 16.8183,-10.0759 L 16.8182,-10.375" />
      <path d="M 14.8211,10.1143 L 14.8211,9.8388 L 14.8211,9.5632 L 14.8212,9.2876 L 14.8212,9.0121 L 14.8212,8.7365 L 14.8212,8.461 L 14.8212,8.1854 L 14.8213,7.9098 L 14.8213,7.6343 L 14.8213,7.3587 L 14.8213,7.0832 L 14.8213,6.8076 L 14.8213,6.532 L 14.8213,6.2565 L 14.8213,5.9809 L 14.8213,5.7054 L 14.8213,5.4298 L 14.8213,5.1542 L 14.8214,4.8787 L 14.8214,4.6031 L 14.8214,4.3276 L 14.8214,4.052 L 14.8214,3.7764 L 14.8214,3.5009 L 14.8214,3.2253 L 14.8214,2.9497 L 14.8214,2.6742 L 14.8214,2.3986 L 14.8214,2.1231 L 14.8214,1.8475 L 14.8214,1.5719 L 14.8214,1.2964 L 14.8214,1.0208 L 14.8214,0.7453 L 14.8214,0.4697 L 14.8214,0.1941 L 14.8214,-0.0814 L 14.8214,-0.357 L 14.8214,-0.6325 L 14.8214,-0.9081 L 14.8214,-1.1837 L 14.8214,-1.4592 L 14.8214,-1.7348 L 14.8214,-2.0103 L 14.8214,-2.2859 L 14.8214,-2.5615 L 14.8214,-2.837 L 14.8214,-3.1126 L 14.8214,-3.3881 L 14.8214,-3.6637 L 14.8214,-3.9393 L 14.8214,-4.2148 L 14.8213,-4.4904 L 14.8213,-4.7659 L 14.8213,-5.0415 L 14.8213,-5.3171 L 14.8213,-5.5926 L 14.8213,-5.8682 L 14.8213,-6.1437 L 14.8213,-6.4193 L 14.8213,-6.6949 L 14.8213,-6.9704 L 14.8212,-7.246 L 14.8212,-7.5215 L 14.8212,-7.7971 L 14.8212,-8.0727 L 14.8212,-8.3482 L 14.8212,-8.6238 L 14.8211,-8.8994 L 14.8211,-9.1749 L 14.8211,-9.4505 L 14.8209,-9.726" />
      <path d="M 16.1961,6.275 L 16.1786,6.3289 L 16.1611,6.3827 L 16.1436,6.4365 L 16.1261,6.4903 L 16.1086,6.5442 L 16.0911,6.598 L 16.0736,6.6518 L 16.0562,6.7056 L 16.0387,6.7595 L 16.0212,6.8133 L 16.0037,6.8671 L 15.9862,6.9209 L 15.9687,6.9748 L 15.9512,7.0286 L 15.9337,7.0824 L 15.9162,7.1362 L 15.8988,7.1901 L 15.8813,7.2439 L 15.8638,7.2977 L 15.8463,7.3515 L 15.8288,7.4054 L 15.8113,7.4592 L 15.7938,7.513 L 15.7763,7.5668 L 15.7588,7.6207 L 15.7414,7.6745 L 15.7239,7.7283 L 15.7064,7.7822 L 15.6889,7.836 L 15.6714,7.8898 L 15.6539,7.9436 L 15.6364,7.9975 L 15.6189,8.0513 L 15.6014,8.1051 L 15.584,8.1589 L 15.5665,8.2128 L 15.549,8.2666 L 15.5315,8.3204 L 15.514,8.3742 L 15.4965,8.4281 L 15.479,8.4819 L 15.4615,8.5357 L 15.444,8.5895 L 15.4266,8.6434 L 15.4091,8.6972 L 15.3916,8.751 L 15.3741,8.8048 L 15.3566,8.8587 L 15.3391,8.9125 L 15.3216,8.9663 L 15.3041,9.0201 L 15.2866,9.074 L 15.2692,9.1278 L 15.2517,9.1816 L 15.2342,9.2354 L 15.2167,9.2893 L 15.1992,9.3431 L 15.1817,9.3969 L 15.1642,9.4507 L 15.1467,9.5046 L 15.1292,9.5584 L 15.1118,9.6122 L 15.0943,9.666 L 15.0768,9.7199 L 15.0593,9.7737 L 15.0418,9.8275 L 15.0243,9.8814 L 15.0068,9.9352 L 14.9893,9.989 L 14.9718,10.0428 L 14.9543,10.0967 L 14.9369,10.1505" />
      <path d="M 16.196,6.0464 L 16.1769,6.1029 L 16.1578,6.1594 L 16.1387,6.2159 L 16.1196,6.2724 L 16.1005,6.3289 L 16.0814,6.3854 L 16.0623,6.4419 L 16.0432,6.4984 L 16.0241,6.5549 L 16.005,6.6114 L 15.9859,6.6679 L 15.9668,6.7244 L 15.9477,6.7809 L 15.9286,6.8374 L 15.9095,6.8939 L 15.8904,6.9504 L 15.8713,7.0069 L 15.8522,7.0634 L 15.8331,7.1199 L 15.814,7.1764 L 15.7949,7.2329 L 15.7758,7.2894 L 15.7567,7.3459 L 15.7376,7.4024 L 15.7185,7.4589 L 15.6994,7.5154 L 15.6803,7.5719 L 15.6612,7.6284 L 15.6421,7.6849 L 15.623,7.7414 L 15.6039,7.7979 L 15.5848,7.8544 L 15.5657,7.9109 L 15.5466,7.9673 L 15.5275,8.0238 L 15.5084,8.0803 L 15.4893,8.1368 L 15.4702,8.1933 L 15.4511,8.2498 L 15.432,8.3063 L 15.4129,8.3628 L 15.3938,8.4193 L 15.3747,8.4758 L 15.3556,8.5323 L 15.3365,8.5888 L 15.3174,8.6453 L 15.2983,8.7018 L 15.2792,8.7583 L 15.2601,8.8148 L 15.241,8.8713 L 15.2219,8.9278 L 15.2028,8.9843 L 15.1837,9.0408 L 15.1646,9.0973 L 15.1455,9.1538 L 15.1264,9.2103 L 15.1073,9.2668 L 15.0882,9.3233 L 15.0691,9.3798 L 15.05,9.4363 L 15.0309,9.4928 L 15.0118,9.5493 L 14.9927,9.6058 L 14.9736,9.6623 L 14.9545,9.7188 L 14.9354,9.7753 L 14.9163,9.8318 L 14.8972,9.8883 L 14.8781,9.9447 L 14.859,10.0012 L 14.8399,10.0577 L 14.8208,10.1142" />
      <path d="M 16.1961,6.275 L 16.2238,6.284 L 16.2515,6.2931 L 16.2793,6.3021 L 16.307,6.3111 L 16.3348,6.3201 L 16.3625,6.3291 L 16.3902,6.3381 L 16.418,6.3471 L 16.4457,6.3561 L 16.4735,6.3652 L 16.5012,6.3742 L 16.5289,6.3832 L 16.5567,6.3922 L 16.5844,6.4012 L 16.6122,6.4102 L 16.6399,6.4192 L 16.6676,6.4283 L 16.6954,6.4373 L 16.7231,6.4463 L 16.7509,6.4553 L 16.7786,6.4643 L 16.8063,6.4733 L 16.8341,6.4823 L 16.8618,6.4913 L 16.8895,6.5004 L 16.9173,6.5094 L 16.945,6.5184 L 16.9728,6.5274 L 17.0005,6.5364 L 17.0282,6.5454 L 17.056,6.5544 L 17.0837,6.5634 L 17.1115,6.5725 L 17.1392,6.5815 L 17.1669,6.5905 L 17.1947,6.5995 L 17.2224,6.6085 L 17.2502,6.6175 L 17.2779,6.6265 L 17.3056,6.6356 L 17.3334,6.6446 L 17.3611,6.6536 L 17.3889,6.6626 L 17.4166,6.6716 L 17.4443,6.6806 L 17.4721,6.6896 L 17.4998,6.6986 L 17.5275,6.7077 L 17.5553,6.7167 L 17.583,6.7257 L 17.6108,6.7347 L 17.6385,6.7437 L 17.6662,6.7527 L 17.694,6.7617 L 17.7217,6.7707 L 17.7495,6.7798 L 17.7772,6.7888 L 17.8049,6.7978 L 17.8327,6.8068 L 17.8604,6.8158 L 17.8882,6.8248 L 17.9159,6.8338 L 17.9436,6.8428 L 17.9714,6.8519 L 17.9991,6.8609 L 18.0269,6.8699 L 18.0546,6.8789 L 18.0823,6.8879 L 18.1101,6.8969 L 18.1378,6.9059 L 18.1655,6.915 L 18.1933,6.924" />
      <path d="M 16.1961,-5.4938 L 16.2238,-5.5028 L 16.2515,-5.5119 L 16.2793,-5.5209 L 16.307,-5.5299 L 16.3348,-5.5389 L 16.3625,-5.5479 L 16.3902,-5.5569 L 16.418,-5.5659 L 16.4457,-5.5749 L 16.4735,-5.584 L 16.5012,-5.593 L 16.5289,-5.602 L 16.5567,-5.611 L 16.5844,-5.62 L 16.6122,-5.629 L 16.6399,-5.638 L 16.6676,-5.6471 L 16.6954,-5.6561 L 16.7231,-5.6651 L 16.7509,-5.6741 L 16.7786,-5.6831 L 16.8063,-5.6921 L 16.8341,-5.7011 L 16.8618,-5.7101 L 16.8895,-5.7192 L 16.9173,-5.7282 L 16.945,-5.7372 L 16.9728,-5.7462 L 17.0005,-5.7552 L 17.0282,-5.7642 L 17.056,-5.7732 L 17.0837,-5.7822 L 17.1115,-5.7913 L 17.1392,-5.8003 L 17.1669,-5.8093 L 17.1947,-5.8183 L 17.2224,-5.8273 L 17.2502,-5.8363 L 17.2779,-5.8453 L 17.3056,-5.8544 L 17.3334,-5.8634 L 17.3611,-5.8724 L 17.3889,-5.8814 L 17.4166,-5.8904 L 17.4443,-5.8994 L 17.4721,-5.9084 L 17.4998,-5.9174 L 17.5275,-5.9265 L 17.5553,-5.9355 L 17.583,-5.9445 L 17.6108,-5.9535 L 17.6385,-5.9625 L 17.6662,-5.9715 L 17.694,-5.9805 L 17.7217,-5.9895 L 17.7495,-5.9986 L 17.7772,-6.0076 L 17.8049,-6.0166 L 17.8327,-6.0256 L 17.8604,-6.0346 L 17.8882,-6.0436 L 17.9159,-6.0526 L 17.9436,-6.0617 L 17.9714,-6.0707 L 17.9991,-6.0797 L 18.0269,-6.0887 L 18.0546,-6.0977 L 18.0823,-6.1067 L 18.1101,-6.1157 L 18.1378,-6.1247 L 18.1655,-6.1338 L 18.1933,-6.1428" />
      <path d="M 16.1961,6.275 L 16.177,6.3338 L 16.1579,6.3926 L 16.1388,6.4514 L 16.1197,6.5102 L 16.1006,6.5689 L 16.0815,6.6277 L 16.0624,6.6865 L 16.0433,6.7453 L 16.0242,6.8041 L 16.0051,6.8628 L 15.986,6.9216 L 15.9669,6.9804 L 15.9478,7.0392 L 15.9287,7.098 L 15.9096,7.1567 L 15.8905,7.2155 L 15.8714,7.2743 L 15.8523,7.3331 L 15.8332,7.3919 L 15.8141,7.4506 L 15.795,7.5094 L 15.7759,7.5682 L 15.7568,7.627 L 15.7377,7.6858 L 15.7186,7.7445 L 15.6995,7.8033 L 15.6804,7.8621 L 15.6613,7.9209 L 15.6422,7.9797 L 15.6231,8.0384 L 15.604,8.0972 L 15.5849,8.156 L 15.5658,8.2148 L 15.5467,8.2736 L 15.5276,8.3324 L 15.5085,8.3911 L 15.4894,8.4499 L 15.4703,8.5087 L 15.4512,8.5675 L 15.4321,8.6263 L 15.413,8.685 L 15.3939,8.7438 L 15.3748,8.8026 L 15.3557,8.8614 L 15.3366,8.9202 L 15.3175,8.9789 L 15.2984,9.0377 L 15.2793,9.0965 L 15.2602,9.1553 L 15.2411,9.2141 L 15.222,9.2728 L 15.2029,9.3316 L 15.1838,9.3904 L 15.1647,9.4492 L 15.1456,9.508 L 15.1265,9.5667 L 15.1074,9.6255 L 15.0883,9.6843 L 15.0692,9.7431 L 15.0501,9.8019 L 15.031,9.8606 L 15.0119,9.9194 L 14.9928,9.9782 L 14.9737,10.037 L 14.9546,10.0958 L 14.9355,10.1545 L 14.9164,10.2133 L 14.8973,10.2721 L 14.8782,10.3309 L 14.8591,10.3897 L 14.84,10.4485 L 14.8209,10.5072" />
      <path d="M 16.1961,-5.4938 L 16.177,-5.5526 L 16.1579,-5.6114 L 16.1388,-5.6702 L 16.1197,-5.729 L 16.1006,-5.7877 L 16.0815,-5.8465 L 16.0624,-5.9053 L 16.0433,-5.9641 L 16.0242,-6.0229 L 16.0051,-6.0816 L 15.986,-6.1404 L 15.9669,-6.1992 L 15.9478,-6.258 L 15.9287,-6.3168 L 15.9096,-6.3755 L 15.8905,-6.4343 L 15.8714,-6.4931 L 15.8523,-6.5519 L 15.8332,-6.6107 L 15.8141,-6.6694 L 15.795,-6.7282 L 15.7759,-6.787 L 15.7568,-6.8458 L 15.7377,-6.9046 L 15.7186,-6.9633 L 15.6995,-7.0221 L 15.6804,-7.0809 L 15.6613,-7.1397 L 15.6422,-7.1985 L 15.6231,-7.2572 L 15.604,-7.316 L 15.5849,-7.3748 L 15.5658,-7.4336 L 15.5467,-7.4924 L 15.5276,-7.5512 L 15.5085,-7.6099 L 15.4894,-7.6687 L 15.4703,-7.7275 L 15.4512,-7.7863 L 15.4321,-7.8451 L 15.413,-7.9038 L 15.3939,-7.9626 L 15.3748,-8.0214 L 15.3557,-8.0802 L 15.3366,-8.139 L 15.3175,-8.1977 L 15.2984,-8.2565 L 15.2793,-8.3153 L 15.2602,-8.3741 L 15.2411,-8.4329 L 15.222,-8.4916 L 15.2029,-8.5504 L 15.1838,-8.6092 L 15.1647,-8.668 L 15.1456,-8.7268 L 15.1265,-8.7855 L 15.1074,-8.8443 L 15.0883,-8.9031 L 15.0692,-8.9619 L 15.0501,-9.0207 L 15.031,-9.0794 L 15.0119,-9.1382 L 14.9928,-9.197 L 14.9737,-9.2558 L 14.9546,-9.3146 L 14.9355,-9.3733 L 14.9164,-9.4321 L 14.8973,-9.4909 L 14.8782,-9.5497 L 14.8591,-9.6085 L 14.84,-9.6673 L 14.8209,-9.726" />
    </g>
    <g fill="none" stroke="rgb(0,0,0)" stroke-width="0.2" id="Center" stroke-dasharray="6.35 1.27 1.27 1.27">
      <line x1="0.0549" y1="0.3908" x2="-12.4307" y2="0.3908" />
      <line x1="0.0549" y1="0.3908" x2="12.5405" y2="0.3908" />
      <line x1="0.0549" y1="0.3908" x2="0.0549" y2="-12.0948" />
      <line x1="0.0549" y1="0.3908" x2="0.0549" y2="12.8763" />
      <line x1="16.507" y1="0.3906" x2="13.1005" y2="0.3906" />
      <line x1="16.507" y1="0.3906" x2="19.9136" y2="0.3906" />
    </g>
  </g>
</svg>