<?xml version='1.0' encoding='utf-8'?>
<svg width="50.2526mm" height="25.4mm" viewBox="-12.2827 -12.7 50.2526 25.4" version="1.1" xmlns="http://www.w3.org/2000/svg">
  <g transform="scale(1,-1)" stroke-linecap="round">
    <g fill="none" stroke="rgb(0,0,0)" stroke-width="0.4" id="Visible">
      <path d="M 10.8426,1.25 A 10.5,10.499999082662166 90.00000000000006 0,1 0.4173,10.5" />
      <path d="M 0.4173,10.5 A 10.5,10.499999082662166 90.00000000000006 0,1 0.4173,-10.5" />
      <path d="M 0.4173,-10.5 A 10.5,10.499999082662166 90.00000000000006 0,1 10.8426,-1.25" />
      <line x1="10.8441" y1="-1.25" x2="10.8426" y2="-1.25" />
      <path d="M 10.8441,1.25 A 10.5,10.499999082662166 90.00000000000006 0,1 0.4187,10.5" />
      <path d="M 0.4187,-10.5 A 10.5,10.499999082662166 90.00000000000006 0,1 10.8441,-1.25" />
      <line x1="10.8441" y1="1.25" x2="10.8426" y2="1.25" />
      <line x1="10.8426" y1="1.25" x2="6.3878" y2="1.25" />
      <path d="M 6.3878,1.25 A 6.1,6.099999467070401 90.00000000000006 0,1 0.4173,6.1" />
      <path d="M 0.4173,6.1 A 6.1,6.099999467070401 90.00000000000006 0,1 0.4173,-6.1" />
      <path d="M 0.4173,-6.1 A 6.1,6.099999467070401 90.00000000000006 0,1 6.3878,-1.25" />
      <line x1="10.8426" y1="-1.25" x2="6.3878" y2="-1.25" />
      <path d="M 0.418,6.1 A 6.1,6.099999467070401 90.00000000000006 0,1 0.418,-6.1" />
      <line x1="0.4187" y1="10.5" x2="0.4173" y2="10.5" />
      <line x1="0.4187" y1="-10.5" x2="0.4173" y2="-10.5" />
      <path d="M 14.8441,1.75 L 15.0877,1.75 L 15.8073,1.75 L 16.9696,1.75 L 18.5204,1.75 L 20.388,1.75 L 22.4855,1.75 L 24.7158,1.75 L 26.9751,1.75 L 29.1588,1.75 L 31.1655,1.75 L 32.9019,1.75 L 34.2877,1.75 L 35.2583,1.75 L 35.7689,1.75" />
      <line x1="35.7689" y1="-1.75" x2="35.7689" y2="1.75" />
      <path d="M 14.8441,-1.75 L 15.0877,-1.75 L 15.8073,-1.75 L 16.9696,-1.75 L 18.5204,-1.75 L 20.388,-1.75 L 22.4855,-1.75 L 24.7158,-1.75 L 26.9751,-1.75 L 29.1588,-1.75 L 31.1655,-1.75 L 32.9019,-1.75 L 34.2877,-1.75 L 35.2583,-1.75 L 35.7689,-1.75" />
      <line x1="35.7699" y1="-1.75" x2="35.7699" y2="1.75" />
      <line x1="35.7699" y1="1.75" x2="35.7689" y2="1.75" />
      <line x1="35.7699" y1="-1.75" x2="35.7689" y2="-1.75" />
      <line x1="14.8441" y1="-1.75" x2="14.8441" y2="1.75" />
    </g>
    <g fill="none" stroke="rgb(110,110,110)" stroke-width="0.3" id="Hidden" stroke-dasharray="3.6 0.9">
      <path d="M 0.4187,10.5 A 10.5,10.499999082662166 90.00000000000006 0,1 0.4187,-10.5" />
      <line x1="6.3893" y1="-1.25" x2="6.3878" y2="-1.25" />
      <line x1="10.8441" y1="-1.25" x2="6.3893" y2="-1.25" />
      <line x1="10.8441" y1="1.25" x2="6.3893" y2="1.25" />
      <path d="M 6.3893,1.25 A 6.1,6.099999467070401 90.00000000000006 0,1 0.4187,6.1" />
      <path d="M 0.4187,6.1 A 6.1,6.099999467070401 90.00000000000006 0,1 0.418,6.1" />
      <path d="M 0.418,-6.1 A 6.1,6.099999467070401 90.00000000000006 0,1 0.4187,-6.1" />
      <path d="M 0.4187,-6.1 A 6.1,6.099999467070401 90.00000000000006 0,1 6.3893,-1.25" />
      <line x1="6.3893" y1="1.25" x2="6.3878" y2="1.25" />
      <line x1="0.4187" y1="6.1" x2="0.4173" y2="6.1" />
      <line x1="0.4187" y1="-6.1" x2="0.4173" y2="-6.1" />
      <path d="M 35.7699,1.75 L 35.261,1.75 L 34.2916,1.75 L 32.9067,1.75 L 31.1707,1.75 L 29.1641,1.75 L 26.9801,1.75 L 24.7201,1.75 L 22.4892,1.75 L 20.3908,1.75 L 18.5223,1.75 L 16.9707,1.75 L 15.8079,1.75 L 15.0878,1.75 L 14.8441,1.75" />
      <path d="M 35.7699,-1.75 L 35.261,-1.75 L 34.2916,-1.75 L 32.9067,-1.75 L 31.1707,-1.75 L 29.1641,-1.75 L 26.9801,-1.75 L 24.7201,-1.75 L 22.4892,-1.75 L 20.3908,-1.75 L 18.5223,-1.75 L 16.9707,-1.75 L 15.8079,-1.75 L 15.0878,-1.75 L 14.8441,-1.75" />
      <line x1="35.7689" y1="1.75" x2="31.3151" y2="1.75" />
      <path d="M 31.3151,1.75 L 30.9247,1.75 L 30.2897,1.75 L 29.4381,1.75 L 28.4072,1.75 L 27.242,1.75 L 25.9937,1.75 L 24.717,1.75 L 23.4677,1.75 L 22.3006,1.75 L 21.2669,1.75 L 20.4117,1.75 L 19.7727,1.75 L 19.3777,1.75 L 19.2441,1.75" />
      <path d="M 19.2441,1.75 L 19.3776,1.75 L 19.7724,1.75 L 20.4111,1.75 L 21.2658,1.75 L 22.2991,1.75 L 23.4656,1.75 L 24.7145,1.75 L 25.9908,1.75 L 27.2389,1.75 L 28.404,1.75 L 29.4352,1.75 L 30.2872,1.75 L 30.9228,1.75 L 31.3141,1.75" />
      <line x1="35.7689" y1="1.75" x2="31.3141" y2="1.75" />
      <line x1="31.3141" y1="-1.75" x2="31.3141" y2="1.75" />
      <line x1="35.7689" y1="-1.75" x2="31.3141" y2="-1.75" />
      <line x1="35.7689" y1="-1.75" x2="31.3151" y2="-1.75" />
      <path d="M 31.3151,-1.75 L 30.9247,-1.75 L 30.2897,-1.75 L 29.4381,-1.75 L 28.4072,-1.75 L 27.242,-1.75 L 25.9937,-1.75 L 24.717,-1.75 L 23.4677,-1.75 L 22.3006,-1.75 L 21.2669,-1.75 L 20.4117,-1.75 L 19.7727,-1.75 L 19.3777,-1.75 L 19.2441,-1.75" />
      <path d="M 19.2441,-1.75 L 19.3776,-1.75 L 19.7724,-1.75 L 20.4111,-1.75 L 21.2658,-1.75 L 22.2991,-1.75 L 23.4656,-1.75 L 24.7145,-1.75 L 25.9908,-1.75 L 27.2389,-1.75 L 28.404,-1.75 L 29.4352,-1.75 L 30.2872,-1.75 L 30.9228,-1.75 L 31.3141,-1.75" />
      <line x1="31.3151" y1="-1.75" x2="31.3151" y2="1.75" />
      <line x1="19.2441" y1="-1.75" x2="19.2441" y2="1.75" />
    </g>
  </g>
</svg>