<?xml version='1.0' encoding='utf-8'?>
<svg width="32.0238mm" height="24.9414mm" viewBox="-11.8822 -12.6414 32.0238 24.9414" version="1.1" xmlns="http://www.w3.org/2000/svg">
  <g transform="scale(1,-1)" stroke-linecap="round">
    <g fill="none" stroke="rgb(0,0,0)" stroke-width="0.4" id="Visible">
      <path d="M 10.4402,1.25 L 10.413,1.4511 L 10.3818,1.6516 L 10.3466,1.8515 L 10.3074,2.0506 L 10.2642,2.2489 L 10.2171,2.4463 L 10.1659,2.6427 L 10.1109,2.838 L 10.0519,3.0322 L 9.989,3.2251 L 9.9223,3.4168 L 9.8517,3.6071 L 9.7774,3.7959 L 9.6992,3.9832 L 9.6173,4.1689 L 9.5317,4.3528 L 9.4424,4.5351 L 9.3494,4.7155 L 9.2529,4.894 L 9.1528,5.0705 L 9.0491,5.245 L 8.942,5.4174 L 8.8315,5.5875 L 8.7175,5.7555 L 8.6002,5.921 L 8.4796,6.0842 L 8.3557,6.245 L 8.2286,6.4032 L 8.0984,6.5589 L 7.965,6.7119 L 7.8287,6.8621 L 7.6893,7.0097 L 7.547,7.1543 L 7.4018,7.2961 L 7.2538,7.435 L 7.103,7.5708 L 6.9496,7.7036 L 6.7935,7.8333 L 6.6348,7.9598 L 6.4736,8.0831 L 6.31,8.2032 L 6.144,8.3199 L 5.9757,8.4333 L 5.8051,8.5432 L 5.6324,8.6498 L 5.4575,8.7528 L 5.2807,8.8523 L 5.1018,8.9482 L 4.9211,9.0405 L 4.7385,9.1291 L 4.5542,9.2141 L 4.3683,9.2954 L 4.1807,9.3729 L 3.9916,9.4466 L 3.8011,9.5165 L 3.6092,9.5825 L 3.4161,9.6447 L 3.2217,9.703 L 3.0261,9.7574 L 2.8296,9.8078 L 2.632,9.8543 L 2.4336,9.8968 L 2.2343,9.9353 L 2.0344,9.9698 L 1.8337,10.0003 L 1.6325,10.0267 L 1.4308,10.0491 L 1.2287,10.0674 L 1.0263,10.0817 L 0.8236,10.0918 L 0.6207,10.098 L 0.4178,10.1" />
      <path d="M 0.4178,10.1 L -0.0228,10.0904 L -0.4625,10.0616 L -0.9005,10.0136 L -1.336,9.9466 L -1.7682,9.8606 L -2.1963,9.7559 L -2.6193,9.6325 L -3.0366,9.4909 L -3.4473,9.3312 L -3.8506,9.1537 L -4.2459,8.9588 L -4.6322,8.7469 L -5.0089,8.5183 L -5.3753,8.2734 L -5.7307,8.0129 L -6.0744,7.737 L -6.4057,7.4465 L -6.724,7.1418 L -7.0287,6.8235 L -7.3192,6.4922 L -7.5951,6.1485 L -7.8556,5.7931 L -8.1005,5.4267 L -8.3291,5.05 L -8.541,4.6637 L -8.7359,4.2684 L -8.9134,3.8651 L -9.0731,3.4544 L -9.2147,3.0371 L -9.338,2.6141 L -9.4428,2.186 L -9.5288,1.7538 L -9.5958,1.3183 L -9.6438,0.8803 L -9.6726,0.4406 L -9.6822,-0.0 L -9.6726,-0.4406 L -9.6438,-0.8803 L -9.5958,-1.3183 L -9.5288,-1.7538 L -9.4428,-2.186 L -9.338,-2.6141 L -9.2147,-3.0371 L -9.0731,-3.4544 L -8.9134,-3.8651 L -8.7359,-4.2684 L -8.541,-4.6637 L -8.3291,-5.05 L -8.1005,-5.4267 L -7.8556,-5.7931 L -7.5951,-6.1485 L -7.3192,-6.4922 L -7.0287,-6.8235 L -6.724,-7.1418 L -6.4057,-7.4465 L -6.0744,-7.737 L -5.7307,-8.0129 L -5.3753,-8.2734 L -5.0089,-8.5183 L -4.6322,-8.7469 L -4.2459,-8.9588 L -3.8506,-9.1537 L -3.4473,-9.3312 L -3.0366,-9.4909 L -2.6193,-9.6325 L -2.1963,-9.7559 L -1.7682,-9.8606 L -1.336,-9.9466 L -0.9005,-10.0136 L -0.4625,-10.0616 L -0.0228,-10.0904 L 0.4178,-10.1" />
      <path d="M 0.4178,-10.1 L 0.6207,-10.098 L 0.8236,-10.0918 L 1.0263,-10.0817 L 1.2287,-10.0674 L 1.4308,-10.0491 L 1.6325,-10.0267 L 1.8337,-10.0003 L 2.0344,-9.9698 L 2.2343,-9.9353 L 2.4336,-9.8968 L 2.632,-9.8543 L 2.8296,-9.8078 L 3.0261,-9.7574 L 3.2217,-9.703 L 3.4161,-9.6447 L 3.6092,-9.5825 L 3.8011,-9.5165 L 3.9916,-9.4466 L 4.1807,-9.3729 L 4.3683,-9.2954 L 4.5542,-9.2141 L 4.7385,-9.1291 L 4.9211,-9.0405 L 5.1018,-8.9482 L 5.2807,-8.8523 L 5.4575,-8.7528 L 5.6324,-8.6498 L 5.8051,-8.5432 L 5.9757,-8.4333 L 6.144,-8.3199 L 6.31,-8.2032 L 6.4736,-8.0831 L 6.6348,-7.9598 L 6.7935,-7.8333 L 6.9496,-7.7036 L 7.103,-7.5708 L 7.2538,-7.435 L 7.4018,-7.2961 L 7.547,-7.1543 L 7.6893,-7.0097 L 7.8287,-6.8621 L 7.965,-6.7119 L 8.0984,-6.5589 L 8.2286,-6.4032 L 8.3557,-6.245 L 8.4796,-6.0842 L 8.6002,-5.921 L 8.7175,-5.7555 L 8.8315,-5.5875 L 8.942,-5.4174 L 9.0491,-5.245 L 9.1528,-5.0705 L 9.2529,-4.894 L 9.3494,-4.7155 L 9.4424,-4.5351 L 9.5317,-4.3528 L 9.6173,-4.1689 L 9.6992,-3.9832 L 9.7774,-3.7959 L 9.8517,-3.6071 L 9.9223,-3.4168 L 9.989,-3.2251 L 10.0519,-3.0322 L 10.1109,-2.838 L 10.1659,-2.6427 L 10.2171,-2.4463 L 10.2642,-2.2489 L 10.3074,-2.0506 L 10.3466,-1.8515 L 10.3818,-1.6516 L 10.413,-1.4511 L 10.4402,-1.25" />
      <path d="M 10.4416,-1.25 L 10.4415,-1.25 L 10.4414,-1.25 L 10.4413,-1.25 L 10.4412,-1.25 L 10.4411,-1.25 L 10.441,-1.25 L 10.4409,-1.25 L 10.4408,-1.25 L 10.4407,-1.25 L 10.4406,-1.25 L 10.4405,-1.25 L 10.4404,-1.25 L 10.4403,-1.25 L 10.4402,-1.25" />
      <path d="M 10.4416,1.25 L 10.4145,1.4511 L 10.3833,1.6516 L 10.3481,1.8515 L 10.3089,2.0506 L 10.2657,2.2489 L 10.2185,2.4463 L 10.1674,2.6427 L 10.1123,2.838 L 10.0534,3.0322 L 9.9905,3.2251 L 9.9238,3.4168 L 9.8532,3.6071 L 9.7788,3.7959 L 9.7007,3.9832 L 9.6188,4.1689 L 9.5331,4.3528 L 9.4438,4.5351 L 9.3509,4.7155 L 9.2544,4.894 L 9.1542,5.0705 L 9.0506,5.245 L 8.9435,5.4174 L 8.8329,5.5875 L 8.719,5.7555 L 8.6016,5.921 L 8.481,6.0842 L 8.3572,6.245 L 8.2301,6.4032 L 8.0998,6.5589 L 7.9665,6.7119 L 7.8301,6.8621 L 7.6908,7.0097 L 7.5485,7.1543 L 7.4033,7.2961 L 7.2553,7.435 L 7.1045,7.5708 L 6.951,7.7036 L 6.795,7.8333 L 6.6363,7.9598 L 6.4751,8.0831 L 6.3115,8.2032 L 6.1455,8.3199 L 5.9771,8.4333 L 5.8066,8.5432 L 5.6338,8.6498 L 5.459,8.7528 L 5.2821,8.8523 L 5.1033,8.9482 L 4.9225,9.0405 L 4.74,9.1291 L 4.5557,9.2141 L 4.3697,9.2954 L 4.1822,9.3729 L 3.9931,9.4466 L 3.8026,9.5165 L 3.6107,9.5825 L 3.4175,9.6447 L 3.2231,9.703 L 3.0276,9.7574 L 2.831,9.8078 L 2.6335,9.8543 L 2.4351,9.8968 L 2.2358,9.9353 L 2.0358,9.9698 L 1.8352,10.0003 L 1.634,10.0267 L 1.4323,10.0491 L 1.2302,10.0674 L 1.0277,10.0817 L 0.825,10.0918 L 0.6222,10.098 L 0.4193,10.1" />
      <path d="M 0.4193,-10.1 L 0.6222,-10.098 L 0.825,-10.0918 L 1.0277,-10.0817 L 1.2302,-10.0674 L 1.4323,-10.0491 L 1.634,-10.0267 L 1.8352,-10.0003 L 2.0358,-9.9698 L 2.2358,-9.9353 L 2.4351,-9.8968 L 2.6335,-9.8543 L 2.831,-9.8078 L 3.0276,-9.7574 L 3.2231,-9.703 L 3.4175,-9.6447 L 3.6107,-9.5825 L 3.8026,-9.5165 L 3.9931,-9.4466 L 4.1822,-9.3729 L 4.3697,-9.2954 L 4.5557,-9.2141 L 4.74,-9.1291 L 4.9225,-9.0405 L 5.1033,-8.9482 L 5.2821,-8.8523 L 5.459,-8.7528 L 5.6338,-8.6498 L 5.8066,-8.5432 L 5.9771,-8.4333 L 6.1455,-8.3199 L 6.3115,-8.2032 L 6.4751,-8.0831 L 6.6363,-7.9598 L 6.795,-7.8333 L 6.951,-7.7036 L 7.1045,-7.5708 L 7.2553,-7.435 L 7.4033,-7.2961 L 7.5485,-7.1543 L 7.6908,-7.0097 L 7.8301,-6.8621 L 7.9665,-6.7119 L 8.0998,-6.5589 L 8.2301,-6.4032 L 8.3572,-6.245 L 8.481,-6.0842 L 8.6016,-5.921 L 8.719,-5.7555 L 8.8329,-5.5875 L 8.9435,-5.4174 L 9.0506,-5.245 L 9.1542,-5.0705 L 9.2544,-4.894 L 9.3509,-4.7155 L 9.4438,-4.5351 L 9.5331,-4.3528 L 9.6188,-4.1689 L 9.7007,-3.9832 L 9.7788,-3.7959 L 9.8532,-3.6071 L 9.9238,-3.4168 L 9.9905,-3.2251 L 10.0534,-3.0322 L 10.1123,-2.838 L 10.1674,-2.6427 L 10.2185,-2.4463 L 10.2657,-2.2489 L 10.3089,-2.0506 L 10.3481,-1.8515 L 10.3833,-1.6516 L 10.4145,-1.4511 L 10.4416,-1.25" />
      <path d="M 10.4416,1.25 L 10.4415,1.25 L 10.4414,1.25 L 10.4413,1.25 L 10.4412,1.25 L 10.4411,1.25 L 10.441,1.25 L 10.4409,1.25 L 10.4408,1.25 L 10.4407,1.25 L 10.4406,1.25 L 10.4405,1.25 L 10.4404,1.25 L 10.4403,1.25 L 10.4402,1.25" />
      <path d="M 10.4402,1.25 L 10.3839,1.25 L 10.3276,1.25 L 10.2713,1.25 L 10.2151,1.25 L 10.1588,1.25 L 10.1025,1.25 L 10.0462,1.25 L 9.99,1.25 L 9.9337,1.25 L 9.8774,1.25 L 9.8211,1.25 L 9.7649,1.25 L 9.7086,1.25 L 9.6523,1.25 L 9.596,1.25 L 9.5398,1.25 L 9.4835,1.25 L 9.4272,1.25 L 9.3709,1.25 L 9.3147,1.25 L 9.2584,1.25 L 9.2021,1.25 L 9.1458,1.25 L 9.0896,1.25 L 9.0333,1.25 L 8.977,1.25 L 8.9207,1.25 L 8.8645,1.25 L 8.8082,1.25 L 8.7519,1.25 L 8.6956,1.25 L 8.6394,1.25 L 8.5831,1.25 L 8.5268,1.25 L 8.4705,1.25 L 8.4143,1.25 L 8.358,1.25 L 8.3017,1.25 L 8.2454,1.25 L 8.1892,1.25 L 8.1329,1.25 L 8.0766,1.25 L 8.0203,1.25 L 7.9641,1.25 L 7.9078,1.25 L 7.8515,1.25 L 7.7952,1.25 L 7.739,1.25 L 7.6827,1.25 L 7.6264,1.25 L 7.5701,1.25 L 7.5139,1.25 L 7.4576,1.25 L 7.4013,1.25 L 7.345,1.25 L 7.2888,1.25 L 7.2325,1.25 L 7.1762,1.25 L 7.1199,1.25 L 7.0637,1.25 L 7.0074,1.25 L 6.9511,1.25 L 6.8948,1.25 L 6.8386,1.25 L 6.7823,1.25 L 6.726,1.25 L 6.6697,1.25 L 6.6135,1.25 L 6.5572,1.25 L 6.5009,1.25 L 6.4446,1.25 L 6.3884,1.25" />
      <path d="M 6.3884,1.25 L 6.3636,1.3629 L 6.3367,1.4753 L 6.3077,1.5872 L 6.2765,1.6986 L 6.2433,1.8093 L 6.208,1.9193 L 6.1706,2.0287 L 6.1311,2.1373 L 6.0896,2.2452 L 6.046,2.3523 L 6.0004,2.4585 L 5.9528,2.5639 L 5.9033,2.6683 L 5.8517,2.7718 L 5.7982,2.8742 L 5.7428,2.9757 L 5.6854,3.076 L 5.6262,3.1753 L 5.5651,3.2734 L 5.5021,3.3704 L 5.4374,3.4661 L 5.3708,3.5606 L 5.3024,3.6538 L 5.2323,3.7457 L 5.1605,3.8363 L 5.0869,3.9255 L 5.0117,4.0132 L 4.9348,4.0996 L 4.8563,4.1844 L 4.7763,4.2678 L 4.6946,4.3496 L 4.6114,4.4299 L 4.5267,4.5085 L 4.4405,4.5856 L 4.3529,4.661 L 4.2639,4.7347 L 4.1735,4.8067 L 4.0817,4.877 L 3.9887,4.9456 L 3.8943,5.0124 L 3.7987,5.0774 L 3.7019,5.1405 L 3.6039,5.2018 L 3.5047,5.2613 L 3.4045,5.3188 L 3.3032,5.3744 L 3.2008,5.4282 L 3.0975,5.4799 L 2.9931,5.5297 L 2.8879,5.5775 L 2.7818,5.6233 L 2.6748,5.6671 L 2.567,5.7089 L 2.4584,5.7486 L 2.3491,5.7862 L 2.2391,5.8217 L 2.1285,5.8552 L 2.0172,5.8866 L 1.9054,5.9158 L 1.793,5.943 L 1.6802,5.9679 L 1.5669,5.9908 L 1.4531,6.0115 L 1.339,6.03 L 1.2246,6.0464 L 1.1099,6.0606 L 0.9949,6.0726 L 0.8797,6.0825 L 0.7644,6.0901 L 0.6489,6.0956 L 0.5334,6.0989 L 0.4178,6.1" />
      <path d="M 0.4178,6.1 L 0.1517,6.0942 L -0.1138,6.0768 L -0.3784,6.0478 L -0.6415,6.0073 L -0.9025,5.9554 L -1.161,5.8921 L -1.4165,5.8177 L -1.6685,5.7321 L -1.9166,5.6357 L -2.1602,5.5285 L -2.3989,5.4108 L -2.6322,5.2828 L -2.8597,5.1447 L -3.081,4.9968 L -3.2956,4.8395 L -3.5032,4.6729 L -3.7033,4.4974 L -3.8955,4.3134 L -4.0796,4.1211 L -4.2551,3.921 L -4.4217,3.7134 L -4.579,3.4988 L -4.7269,3.2775 L -4.865,3.05 L -4.993,2.8167 L -5.1107,2.578 L -5.2179,2.3344 L -5.3143,2.0863 L -5.3999,1.8343 L -5.4743,1.5788 L -5.5376,1.3203 L -5.5895,1.0593 L -5.63,0.7962 L -5.659,0.5317 L -5.6764,0.2661 L -5.6822,0.0 L -5.6764,-0.2661 L -5.659,-0.5317 L -5.63,-0.7962 L -5.5895,-1.0593 L -5.5376,-1.3203 L -5.4743,-1.5788 L -5.3999,-1.8343 L -5.3143,-2.0863 L -5.2179,-2.3344 L -5.1107,-2.578 L -4.993,-2.8167 L -4.865,-3.05 L -4.7269,-3.2775 L -4.579,-3.4988 L -4.4217,-3.7134 L -4.2551,-3.921 L -4.0796,-4.1211 L -3.8955,-4.3134 L -3.7033,-4.4974 L -3.5032,-4.6729 L -3.2956,-4.8395 L -3.081,-4.9968 L -2.8597,-5.1447 L -2.6322,-5.2828 L -2.3989,-5.4108 L -2.1602,-5.5285 L -1.9166,-5.6357 L -1.6685,-5.7321 L -1.4165,-5.8177 L -1.161,-5.8921 L -0.9025,-5.9554 L -0.6415,-6.0073 L -0.3784,-6.0478 L -0.1138,-6.0768 L 0.1517,-6.0942 L 0.4178,-6.1" />
      <path d="M 0.4178,-6.1 L 0.5334,-6.0989 L 0.6489,-6.0956 L 0.7644,-6.0901 L 0.8797,-6.0825 L 0.9949,-6.0726 L 1.1099,-6.0606 L 1.2246,-6.0464 L 1.339,-6.03 L 1.4531,-6.0115 L 1.5669,-5.9908 L 1.6802,-5.9679 L 1.793,-5.943 L 1.9054,-5.9158 L 2.0172,-5.8866 L 2.1285,-5.8552 L 2.2391,-5.8217 L 2.3491,-5.7862 L 2.4584,-5.7486 L 2.567,-5.7089 L 2.6748,-5.6671 L 2.7818,-5.6233 L 2.8879,-5.5775 L 2.9931,-5.5297 L 3.0975,-5.4799 L 3.2008,-5.4282 L 3.3032,-5.3744 L 3.4045,-5.3188 L 3.5047,-5.2613 L 3.6039,-5.2018 L 3.7019,-5.1405 L 3.7987,-5.0774 L 3.8943,-5.0124 L 3.9887,-4.9456 L 4.0817,-4.877 L 4.1735,-4.8067 L 4.2639,-4.7347 L 4.3529,-4.661 L 4.4405,-4.5856 L 4.5267,-4.5085 L 4.6114,-4.4299 L 4.6946,-4.3496 L 4.7763,-4.2678 L 4.8563,-4.1844 L 4.9348,-4.0996 L 5.0117,-4.0132 L 5.0869,-3.9255 L 5.1605,-3.8363 L 5.2323,-3.7457 L 5.3024,-3.6538 L 5.3708,-3.5606 L 5.4374,-3.4661 L 5.5021,-3.3704 L 5.5651,-3.2734 L 5.6262,-3.1753 L 5.6854,-3.076 L 5.7428,-2.9757 L 5.7982,-2.8742 L 5.8517,-2.7718 L 5.9033,-2.6683 L 5.9528,-2.5639 L 6.0004,-2.4585 L 6.046,-2.3523 L 6.0896,-2.2452 L 6.1311,-2.1373 L 6.1706,-2.0287 L 6.208,-1.9193 L 6.2433,-1.8093 L 6.2765,-1.6986 L 6.3077,-1.5872 L 6.3367,-1.4753 L 6.3636,-1.3629 L 6.3884,-1.25" />
      <path d="M 10.4402,-1.25 L 10.3839,-1.25 L 10.3276,-1.25 L 10.2713,-1.25 L 10.2151,-1.25 L 10.1588,-1.25 L 10.1025,-1.25 L 10.0462,-1.25 L 9.99,-1.25 L 9.9337,-1.25 L 9.8774,-1.25 L 9.8211,-1.25 L 9.7649,-1.25 L 9.7086,-1.25 L 9.6523,-1.25 L 9.596,-1.25 L 9.5398,-1.25 L 9.4835,-1.25 L 9.4272,-1.25 L 9.3709,-1.25 L 9.3147,-1.25 L 9.2584,-1.25 L 9.2021,-1.25 L 9.1458,-1.25 L 9.0896,-1.25 L 9.0333,-1.25 L 8.977,-1.25 L 8.9207,-1.25 L 8.8645,-1.25 L 8.8082,-1.25 L 8.7519,-1.25 L 8.6956,-1.25 L 8.6394,-1.25 L 8.5831,-1.25 L 8.5268,-1.25 L 8.4705,-1.25 L 8.4143,-1.25 L 8.358,-1.25 L 8.3017,-1.25 L 8.2454,-1.25 L 8.1892,-1.25 L 8.1329,-1.25 L 8.0766,-1.25 L 8.0203,-1.25 L 7.9641,-1.25 L 7.9078,-1.25 L 7.8515,-1.25 L 7.7952,-1.25 L 7.739,-1.25 L 7.6827,-1.25 L 7.6264,-1.25 L 7.5701,-1.25 L 7.5139,-1.25 L 7.4576,-1.25 L 7.4013,-1.25 L 7.345,-1.25 L 7.2888,-1.25 L 7.2325,-1.25 L 7.1762,-1.25 L 7.1199,-1.25 L 7.0637,-1.25 L 7.0074,-1.25 L 6.9511,-1.25 L 6.8948,-1.25 L 6.8386,-1.25 L 6.7823,-1.25 L 6.726,-1.25 L 6.6697,-1.25 L 6.6135,-1.25 L 6.5572,-1.25 L 6.5009,-1.25 L 6.4446,-1.25 L 6.3884,-1.25" />
      <path d="M 0.4185,6.1 L 0.1525,6.0942 L -0.1131,6.0767 L -0.3776,6.0477 L -0.6406,6.0072 L -0.9016,5.9553 L -1.1601,5.892 L -1.4156,5.8175 L -1.6676,5.7319 L -1.9156,5.6355 L -2.1592,5.5283 L -2.3979,5.4105 L -2.6312,5.2825 L -2.8587,5.1444 L -3.0799,4.9966 L -3.2945,4.8392 L -3.502,4.6726 L -3.7021,4.4971 L -3.8943,4.3131 L -4.0784,4.1208 L -4.2538,3.9208 L -4.4204,3.7132 L -4.5777,3.4986 L -4.7256,3.2773 L -4.8636,3.0498 L -4.9916,2.8165 L -5.1093,2.5778 L -5.2165,2.3342 L -5.3129,2.0862 L -5.3984,1.8342 L -5.4729,1.5787 L -5.5362,1.3202 L -5.5881,1.0592 L -5.6286,0.7961 L -5.6575,0.5316 L -5.6749,0.2661 L -5.6807,0.0 L -5.6749,-0.2661 L -5.6575,-0.5316 L -5.6286,-0.7961 L -5.5881,-1.0592 L -5.5362,-1.3202 L -5.4729,-1.5787 L -5.3984,-1.8342 L -5.3129,-2.0862 L -5.2165,-2.3342 L -5.1093,-2.5778 L -4.9916,-2.8165 L -4.8636,-3.0498 L -4.7256,-3.2773 L -4.5777,-3.4986 L -4.4204,-3.7132 L -4.2538,-3.9208 L -4.0784,-4.1208 L -3.8943,-4.3131 L -3.7021,-4.4971 L -3.502,-4.6726 L -3.2945,-4.8392 L -3.0799,-4.9966 L -2.8587,-5.1444 L -2.6312,-5.2825 L -2.3979,-5.4105 L -2.1592,-5.5283 L -1.9156,-5.6355 L -1.6676,-5.7319 L -1.4156,-5.8175 L -1.1601,-5.892 L -0.9016,-5.9553 L -0.6406,-6.0072 L -0.3776,-6.0477 L -0.1131,-6.0767 L 0.1525,-6.0942 L 0.4185,-6.1" />
      <path d="M 0.4193,10.1 L 0.4192,10.1 L 0.4191,10.1 L 0.419,10.1 L 0.4189,10.1 L 0.4188,10.1 L 0.4187,10.1 L 0.4186,10.1 L 0.4185,10.1 L 0.4184,10.1 L 0.4183,10.1 L 0.4182,10.1 L 0.4181,10.1 L 0.418,10.1 L 0.4179,10.1 L 0.4178,10.1" />
      <path d="M 0.4193,-10.1 L 0.4192,-10.1 L 0.4191,-10.1 L 0.419,-10.1 L 0.4189,-10.1 L 0.4188,-10.1 L 0.4187,-10.1 L 0.4186,-10.1 L 0.4185,-10.1 L 0.4184,-10.1 L 0.4183,-10.1 L 0.4182,-10.1 L 0.4181,-10.1 L 0.418,-10.1 L 0.4179,-10.1 L 0.4178,-10.1" />
      <path d="M 14.4416,-9.6815 L 14.4416,-9.402 L 14.4416,-9.1225 L 14.4416,-8.8431 L 14.4416,-8.5636 L 14.4416,-8.2841 L 14.4416,-8.0046 L 14.4416,-7.7252 L 14.4416,-7.4457 L 14.4416,-7.1662 L 14.4416,-6.8868 L 14.4416,-6.6073 L 14.4416,-6.3278 L 14.4416,-6.0484 L 14.4416,-5.7689 L 14.4416,-5.4894 L 14.4416,-5.2099 L 14.4416,-4.9305 L 14.4416,-4.651 L 14.4416,-4.3715 L 14.4416,-4.0921 L 14.4416,-3.8126 L 14.4416,-3.5331 L 14.4416,-3.2537 L 14.4416,-2.9742 L 14.4416,-2.6947 L 14.4416,-2.4153 L 14.4416,-2.1358 L 14.4416,-1.8563 L 14.4416,-1.5768 L 14.4416,-1.2974 L 14.4416,-1.0179 L 14.4416,-0.7384 L 14.4416,-0.459 L 14.4416,-0.1795 L 14.4416,0.1 L 14.4416,0.3794 L 14.4416,0.6589 L 14.4416,0.9384 L 14.4416,1.2179 L 14.4416,1.4973 L 14.4416,1.7768 L 14.4416,2.0563 L 14.4416,2.3357 L 14.4416,2.6152 L 14.4416,2.8947 L 14.4416,3.1741 L 14.4416,3.4536 L 14.4416,3.7331 L 14.4416,4.0126 L 14.4416,4.292 L 14.4416,4.5715 L 14.4416,4.851 L 14.4416,5.1304 L 14.4416,5.4099 L 14.4416,5.6894 L 14.4416,5.9688 L 14.4416,6.2483 L 14.4416,6.5278 L 14.4416,6.8073 L 14.4416,7.0867 L 14.4416,7.3662 L 14.4416,7.6457 L 14.4416,7.9251 L 14.4416,8.2046 L 14.4416,8.4841 L 14.4416,8.7635 L 14.4416,9.043 L 14.4416,9.3225 L 14.4416,9.602 L 14.4416,9.8814 L 14.4416,10.1609 L 14.4416,10.4404" />
      <path d="M 17.9416,10.4404 L 17.893,10.4404 L 17.8444,10.4404 L 17.7958,10.4404 L 17.7472,10.4404 L 17.6986,10.4404 L 17.6499,10.4404 L 17.6013,10.4404 L 17.5527,10.4404 L 17.5041,10.4404 L 17.4555,10.4404 L 17.4069,10.4404 L 17.3583,10.4404 L 17.3097,10.4404 L 17.2611,10.4404 L 17.2124,10.4404 L 17.1638,10.4404 L 17.1152,10.4404 L 17.0666,10.4404 L 17.018,10.4404 L 16.9694,10.4404 L 16.9208,10.4404 L 16.8722,10.4404 L 16.8236,10.4404 L 16.7749,10.4404 L 16.7263,10.4404 L 16.6777,10.4404 L 16.6291,10.4404 L 16.5805,10.4404 L 16.5319,10.4404 L 16.4833,10.4404 L 16.4347,10.4404 L 16.3861,10.4404 L 16.3374,10.4404 L 16.2888,10.4404 L 16.2402,10.4404 L 16.1916,10.4404 L 16.143,10.4404 L 16.0944,10.4404 L 16.0458,10.4404 L 15.9972,10.4404 L 15.9486,10.4404 L 15.8999,10.4404 L 15.8513,10.4404 L 15.8027,10.4404 L 15.7541,10.4404 L 15.7055,10.4404 L 15.6569,10.4404 L 15.6083,10.4404 L 15.5597,10.4404 L 15.5111,10.4404 L 15.4624,10.4404 L 15.4138,10.4404 L 15.3652,10.4404 L 15.3166,10.4404 L 15.268,10.4404 L 15.2194,10.4404 L 15.1708,10.4404 L 15.1222,10.4404 L 15.0736,10.4404 L 15.0249,10.4404 L 14.9763,10.4404 L 14.9277,10.4404 L 14.8791,10.4404 L 14.8305,10.4404 L 14.7819,10.4404 L 14.7333,10.4404 L 14.6847,10.4404 L 14.6361,10.4404 L 14.5874,10.4404 L 14.5388,10.4404 L 14.4902,10.4404 L 14.4416,10.4404" />
      <path d="M 17.9416,-9.6815 L 17.9416,-9.402 L 17.9416,-9.1225 L 17.9416,-8.8431 L 17.9416,-8.5636 L 17.9416,-8.2841 L 17.9416,-8.0046 L 17.9416,-7.7252 L 17.9416,-7.4457 L 17.9416,-7.1662 L 17.9416,-6.8868 L 17.9416,-6.6073 L 17.9416,-6.3278 L 17.9416,-6.0484 L 17.9416,-5.7689 L 17.9416,-5.4894 L 17.9416,-5.2099 L 17.9416,-4.9305 L 17.9416,-4.651 L 17.9416,-4.3715 L 17.9416,-4.0921 L 17.9416,-3.8126 L 17.9416,-3.5331 L 17.9416,-3.2537 L 17.9416,-2.9742 L 17.9416,-2.6947 L 17.9416,-2.4153 L 17.9416,-2.1358 L 17.9416,-1.8563 L 17.9416,-1.5768 L 17.9416,-1.2974 L 17.9416,-1.0179 L 17.9416,-0.7384 L 17.9416,-0.459 L 17.9416,-0.1795 L 17.9416,0.1 L 17.9416,0.3794 L 17.9416,0.6589 L 17.9416,0.9384 L 17.9416,1.2179 L 17.9416,1.4973 L 17.9416,1.7768 L 17.9416,2.0563 L 17.9416,2.3357 L 17.9416,2.6152 L 17.9416,2.8947 L 17.9416,3.1741 L 17.9416,3.4536 L 17.9416,3.7331 L 17.9416,4.0126 L 17.9416,4.292 L 17.9416,4.5715 L 17.9416,4.851 L 17.9416,5.1304 L 17.9416,5.4099 L 17.9416,5.6894 L 17.9416,5.9688 L 17.9416,6.2483 L 17.9416,6.5278 L 17.9416,6.8073 L 17.9416,7.0867 L 17.9416,7.3662 L 17.9416,7.6457 L 17.9416,7.9251 L 17.9416,8.2046 L 17.9416,8.4841 L 17.9416,8.7635 L 17.9416,9.043 L 17.9416,9.3225 L 17.9416,9.602 L 17.9416,9.8814 L 17.9416,10.1609 L 17.9416,10.4404" />
      <path d="M 17.9416,10.4414 L 17.893,10.4414 L 17.8444,10.4414 L 17.7958,10.4414 L 17.7472,10.4414 L 17.6986,10.4414 L 17.6499,10.4414 L 17.6013,10.4414 L 17.5527,10.4414 L 17.5041,10.4414 L 17.4555,10.4414 L 17.4069,10.4414 L 17.3583,10.4414 L 17.3097,10.4414 L 17.2611,10.4414 L 17.2124,10.4414 L 17.1638,10.4414 L 17.1152,10.4414 L 17.0666,10.4414 L 17.018,10.4414 L 16.9694,10.4414 L 16.9208,10.4414 L 16.8722,10.4414 L 16.8236,10.4414 L 16.7749,10.4414 L 16.7263,10.4414 L 16.6777,10.4414 L 16.6291,10.4414 L 16.5805,10.4414 L 16.5319,10.4414 L 16.4833,10.4414 L 16.4347,10.4414 L 16.3861,10.4414 L 16.3374,10.4414 L 16.2888,10.4414 L 16.2402,10.4414 L 16.1916,10.4414 L 16.143,10.4414 L 16.0944,10.4414 L 16.0458,10.4414 L 15.9972,10.4414 L 15.9486,10.4414 L 15.8999,10.4414 L 15.8513,10.4414 L 15.8027,10.4414 L 15.7541,10.4414 L 15.7055,10.4414 L 15.6569,10.4414 L 15.6083,10.4414 L 15.5597,10.4414 L 15.5111,10.4414 L 15.4624,10.4414 L 15.4138,10.4414 L 15.3652,10.4414 L 15.3166,10.4414 L 15.268,10.4414 L 15.2194,10.4414 L 15.1708,10.4414 L 15.1222,10.4414 L 15.0736,10.4414 L 15.0249,10.4414 L 14.9763,10.4414 L 14.9277,10.4414 L 14.8791,10.4414 L 14.8305,10.4414 L 14.7819,10.4414 L 14.7333,10.4414 L 14.6847,10.4414 L 14.6361,10.4414 L 14.5874,10.4414 L 14.5388,10.4414 L 14.4902,10.4414 L 14.4416,10.4414" />
      <path d="M 14.4416,10.4414 L 14.4416,10.4413 L 14.4416,10.4412 L 14.4416,10.4411 L 14.4416,10.441 L 14.4416,10.4409 L 14.4416,10.4408 L 14.4416,10.4407 L 14.4416,10.4406 L 14.4416,10.4405 L 14.4416,10.4404" />
      <path d="M 17.9416,10.4414 L 17.9416,10.4413 L 17.9416,10.4412 L 17.9416,10.4411 L 17.9416,10.441 L 17.9416,10.4409 L 17.9416,10.4408 L 17.9416,10.4407 L 17.9416,10.4406 L 17.9416,10.4405 L 17.9416,10.4404" />
      <path d="M 17.9416,-9.6815 L 17.893,-9.6815 L 17.8444,-9.6815 L 17.7958,-9.6815 L 17.7472,-9.6815 L 17.6986,-9.6815 L 17.6499,-9.6815 L 17.6013,-9.6815 L 17.5527,-9.6815 L 17.5041,-9.6815 L 17.4555,-9.6815 L 17.4069,-9.6815 L 17.3583,-9.6815 L 17.3097,-9.6815 L 17.2611,-9.6815 L 17.2124,-9.6815 L 17.1638,-9.6815 L 17.1152,-9.6815 L 17.0666,-9.6815 L 17.018,-9.6815 L 16.9694,-9.6815 L 16.9208,-9.6815 L 16.8722,-9.6815 L 16.8236,-9.6815 L 16.7749,-9.6815 L 16.7263,-9.6815 L 16.6777,-9.6815 L 16.6291,-9.6815 L 16.5805,-9.6815 L 16.5319,-9.6815 L 16.4833,-9.6815 L 16.4347,-9.6815 L 16.3861,-9.6815 L 16.3374,-9.6815 L 16.2888,-9.6815 L 16.2402,-9.6815 L 16.1916,-9.6815 L 16.143,-9.6815 L 16.0944,-9.6815 L 16.0458,-9.6815 L 15.9972,-9.6815 L 15.9486,-9.6815 L 15.8999,-9.6815 L 15.8513,-9.6815 L 15.8027,-9.6815 L 15.7541,-9.6815 L 15.7055,-9.6815 L 15.6569,-9.6815 L 15.6083,-9.6815 L 15.5597,-9.6815 L 15.5111,-9.6815 L 15.4624,-9.6815 L 15.4138,-9.6815 L 15.3652,-9.6815 L 15.3166,-9.6815 L 15.268,-9.6815 L 15.2194,-9.6815 L 15.1708,-9.6815 L 15.1222,-9.6815 L 15.0736,-9.6815 L 15.0249,-9.6815 L 14.9763,-9.6815 L 14.9277,-9.6815 L 14.8791,-9.6815 L 14.8305,-9.6815 L 14.7819,-9.6815 L 14.7333,-9.6815 L 14.6847,-9.6815 L 14.6361,-9.6815 L 14.5874,-9.6815 L 14.5388,-9.6815 L 14.4902,-9.6815 L 14.4416,-9.6815" />
    </g>
    <g fill="none" stroke="rgb(110,110,110)" stroke-width="0.3" id="Hidden" stroke-dasharray="3.6 0.9">
      <path d="M 0.4193,10.1 L -0.0213,10.0904 L -0.461,10.0616 L -0.899,10.0136 L -1.3346,9.9466 L -1.7668,9.8606 L -2.1948,9.7559 L -2.6179,9.6325 L -3.0351,9.4909 L -3.4458,9.3312 L -3.8492,9.1537 L -4.2444,8.9588 L -4.6307,8.7469 L -5.0075,8.5183 L -5.3739,8.2734 L -5.7292,8.0129 L -6.0729,7.737 L -6.4042,7.4465 L -6.7225,7.1418 L -7.0272,6.8235 L -7.3178,6.4922 L -7.5936,6.1485 L -7.8542,5.7931 L -8.099,5.4267 L -8.3276,5.05 L -8.5395,4.6637 L -8.7344,4.2684 L -8.9119,3.8651 L -9.0716,3.4544 L -9.2133,3.0371 L -9.3366,2.6141 L -9.4413,2.186 L -9.5273,1.7538 L -9.5943,1.3183 L -9.6423,0.8803 L -9.6711,0.4406 L -9.6807,-0.0 L -9.6711,-0.4406 L -9.6423,-0.8803 L -9.5943,-1.3183 L -9.5273,-1.7538 L -9.4413,-2.186 L -9.3366,-2.6141 L -9.2133,-3.0371 L -9.0716,-3.4544 L -8.9119,-3.8651 L -8.7344,-4.2684 L -8.5395,-4.6637 L -8.3276,-5.05 L -8.099,-5.4267 L -7.8542,-5.7931 L -7.5936,-6.1485 L -7.3178,-6.4922 L -7.0272,-6.8235 L -6.7225,-7.1418 L -6.4042,-7.4465 L -6.0729,-7.737 L -5.7292,-8.0129 L -5.3739,-8.2734 L -5.0075,-8.5183 L -4.6307,-8.7469 L -4.2444,-8.9588 L -3.8492,-9.1537 L -3.4458,-9.3312 L -3.0351,-9.4909 L -2.6179,-9.6325 L -2.1948,-9.7559 L -1.7668,-9.8606 L -1.3346,-9.9466 L -0.899,-10.0136 L -0.461,-10.0616 L -0.0213,-10.0904 L 0.4193,-10.1" />
      <path d="M 6.3898,-1.25 L 6.3897,-1.25 L 6.3896,-1.25 L 6.3895,-1.25 L 6.3894,-1.25 L 6.3893,-1.25 L 6.3892,-1.25 L 6.3891,-1.25 L 6.389,-1.25 L 6.3889,-1.25 L 6.3888,-1.25 L 6.3887,-1.25 L 6.3886,-1.25 L 6.3885,-1.25 L 6.3884,-1.25" />
      <path d="M 10.4416,-1.25 L 10.3853,-1.25 L 10.3291,-1.25 L 10.2728,-1.25 L 10.2165,-1.25 L 10.1602,-1.25 L 10.104,-1.25 L 10.0477,-1.25 L 9.9914,-1.25 L 9.9351,-1.25 L 9.8789,-1.25 L 9.8226,-1.25 L 9.7663,-1.25 L 9.71,-1.25 L 9.6538,-1.25 L 9.5975,-1.25 L 9.5412,-1.25 L 9.4849,-1.25 L 9.4287,-1.25 L 9.3724,-1.25 L 9.3161,-1.25 L 9.2598,-1.25 L 9.2036,-1.25 L 9.1473,-1.25 L 9.091,-1.25 L 9.0347,-1.25 L 8.9785,-1.25 L 8.9222,-1.25 L 8.8659,-1.25 L 8.8096,-1.25 L 8.7534,-1.25 L 8.6971,-1.25 L 8.6408,-1.25 L 8.5845,-1.25 L 8.5283,-1.25 L 8.472,-1.25 L 8.4157,-1.25 L 8.3594,-1.25 L 8.3032,-1.25 L 8.2469,-1.25 L 8.1906,-1.25 L 8.1343,-1.25 L 8.0781,-1.25 L 8.0218,-1.25 L 7.9655,-1.25 L 7.9092,-1.25 L 7.853,-1.25 L 7.7967,-1.25 L 7.7404,-1.25 L 7.6841,-1.25 L 7.6279,-1.25 L 7.5716,-1.25 L 7.5153,-1.25 L 7.459,-1.25 L 7.4028,-1.25 L 7.3465,-1.25 L 7.2902,-1.25 L 7.2339,-1.25 L 7.1777,-1.25 L 7.1214,-1.25 L 7.0651,-1.25 L 7.0088,-1.25 L 6.9526,-1.25 L 6.8963,-1.25 L 6.84,-1.25 L 6.7837,-1.25 L 6.7275,-1.25 L 6.6712,-1.25 L 6.6149,-1.25 L 6.5586,-1.25 L 6.5024,-1.25 L 6.4461,-1.25 L 6.3898,-1.25" />
      <path d="M 10.4416,1.25 L 10.3853,1.25 L 10.3291,1.25 L 10.2728,1.25 L 10.2165,1.25 L 10.1602,1.25 L 10.104,1.25 L 10.0477,1.25 L 9.9914,1.25 L 9.9351,1.25 L 9.8789,1.25 L 9.8226,1.25 L 9.7663,1.25 L 9.71,1.25 L 9.6538,1.25 L 9.5975,1.25 L 9.5412,1.25 L 9.4849,1.25 L 9.4287,1.25 L 9.3724,1.25 L 9.3161,1.25 L 9.2598,1.25 L 9.2036,1.25 L 9.1473,1.25 L 9.091,1.25 L 9.0347,1.25 L 8.9785,1.25 L 8.9222,1.25 L 8.8659,1.25 L 8.8096,1.25 L 8.7534,1.25 L 8.6971,1.25 L 8.6408,1.25 L 8.5845,1.25 L 8.5283,1.25 L 8.472,1.25 L 8.4157,1.25 L 8.3594,1.25 L 8.3032,1.25 L 8.2469,1.25 L 8.1906,1.25 L 8.1343,1.25 L 8.0781,1.25 L 8.0218,1.25 L 7.9655,1.25 L 7.9092,1.25 L 7.853,1.25 L 7.7967,1.25 L 7.7404,1.25 L 7.6841,1.25 L 7.6279,1.25 L 7.5716,1.25 L 7.5153,1.25 L 7.459,1.25 L 7.4028,1.25 L 7.3465,1.25 L 7.2902,1.25 L 7.2339,1.25 L 7.1777,1.25 L 7.1214,1.25 L 7.0651,1.25 L 7.0088,1.25 L 6.9526,1.25 L 6.8963,1.25 L 6.84,1.25 L 6.7837,1.25 L 6.7275,1.25 L 6.6712,1.25 L 6.6149,1.25 L 6.5586,1.25 L 6.5024,1.25 L 6.4461,1.25 L 6.3898,1.25" />
      <path d="M 6.3898,1.25 L 6.3651,1.3629 L 6.3382,1.4753 L 6.3091,1.5872 L 6.278,1.6986 L 6.2448,1.8093 L 6.2094,1.9193 L 6.172,2.0287 L 6.1326,2.1373 L 6.091,2.2452 L 6.0475,2.3523 L 6.0019,2.4585 L 5.9543,2.5639 L 5.9047,2.6683 L 5.8532,2.7718 L 5.7997,2.8742 L 5.7442,2.9757 L 5.6869,3.076 L 5.6277,3.1753 L 5.5666,3.2734 L 5.5036,3.3704 L 5.4388,3.4661 L 5.3723,3.5606 L 5.3039,3.6538 L 5.2338,3.7457 L 5.1619,3.8363 L 5.0884,3.9255 L 5.0132,4.0132 L 4.9363,4.0996 L 4.8578,4.1844 L 4.7777,4.2678 L 4.6961,4.3496 L 4.6129,4.4299 L 4.5282,4.5085 L 4.442,4.5856 L 4.3544,4.661 L 4.2654,4.7347 L 4.175,4.8067 L 4.0832,4.877 L 3.9901,4.9456 L 3.8958,5.0124 L 3.8002,5.0774 L 3.7034,5.1405 L 3.6054,5.2018 L 3.5062,5.2613 L 3.406,5.3188 L 3.3046,5.3744 L 3.2023,5.4282 L 3.0989,5.4799 L 2.9946,5.5297 L 2.8894,5.5775 L 2.7832,5.6233 L 2.6762,5.6671 L 2.5684,5.7089 L 2.4599,5.7486 L 2.3506,5.7862 L 2.2406,5.8217 L 2.13,5.8552 L 2.0187,5.8866 L 1.9069,5.9158 L 1.7945,5.943 L 1.6816,5.9679 L 1.5683,5.9908 L 1.4546,6.0115 L 1.3405,6.03 L 1.2261,6.0464 L 1.1114,6.0606 L 0.9964,6.0726 L 0.8812,6.0825 L 0.7659,6.0901 L 0.6504,6.0956 L 0.5349,6.0989 L 0.4193,6.1" />
      <path d="M 0.4193,6.1 L 0.4192,6.1 L 0.4191,6.1 L 0.419,6.1 L 0.4189,6.1 L 0.4188,6.1 L 0.4187,6.1 L 0.4186,6.1 L 0.4185,6.1" />
      <path d="M 0.4185,-6.1 L 0.4186,-6.1 L 0.4187,-6.1 L 0.4188,-6.1 L 0.4189,-6.1 L 0.419,-6.1 L 0.4191,-6.1 L 0.4192,-6.1 L 0.4193,-6.1" />
      <path d="M 0.4193,-6.1 L 0.5349,-6.0989 L 0.6504,-6.0956 L 0.7659,-6.0901 L 0.8812,-6.0825 L 0.9964,-6.0726 L 1.1114,-6.0606 L 1.2261,-6.0464 L 1.3405,-6.03 L 1.4546,-6.0115 L 1.5683,-5.9908 L 1.6816,-5.9679 L 1.7945,-5.943 L 1.9069,-5.9158 L 2.0187,-5.8866 L 2.13,-5.8552 L 2.2406,-5.8217 L 2.3506,-5.7862 L 2.4599,-5.7486 L 2.5684,-5.7089 L 2.6762,-5.6671 L 2.7832,-5.6233 L 2.8894,-5.5775 L 2.9946,-5.5297 L 3.0989,-5.4799 L 3.2023,-5.4282 L 3.3046,-5.3744 L 3.406,-5.3188 L 3.5062,-5.2613 L 3.6054,-5.2018 L 3.7034,-5.1405 L 3.8002,-5.0774 L 3.8958,-5.0124 L 3.9901,-4.9456 L 4.0832,-4.877 L 4.175,-4.8067 L 4.2654,-4.7347 L 4.3544,-4.661 L 4.442,-4.5856 L 4.5282,-4.5085 L 4.6129,-4.4299 L 4.6961,-4.3496 L 4.7777,-4.2678 L 4.8578,-4.1844 L 4.9363,-4.0996 L 5.0132,-4.0132 L 5.0884,-3.9255 L 5.1619,-3.8363 L 5.2338,-3.7457 L 5.3039,-3.6538 L 5.3723,-3.5606 L 5.4388,-3.4661 L 5.5036,-3.3704 L 5.5666,-3.2734 L 5.6277,-3.1753 L 5.6869,-3.076 L 5.7442,-2.9757 L 5.7997,-2.8742 L 5.8532,-2.7718 L 5.9047,-2.6683 L 5.9543,-2.5639 L 6.0019,-2.4585 L 6.0475,-2.3523 L 6.091,-2.2452 L 6.1326,-2.1373 L 6.172,-2.0287 L 6.2094,-1.9193 L 6.2448,-1.8093 L 6.278,-1.6986 L 6.3091,-1.5872 L 6.3382,-1.4753 L 6.3651,-1.3629 L 6.3898,-1.25" />
      <path d="M 6.3898,1.25 L 6.3897,1.25 L 6.3896,1.25 L 6.3895,1.25 L 6.3894,1.25 L 6.3893,1.25 L 6.3892,1.25 L 6.3891,1.25 L 6.389,1.25 L 6.3889,1.25 L 6.3888,1.25 L 6.3887,1.25 L 6.3886,1.25 L 6.3885,1.25 L 6.3884,1.25" />
      <path d="M 0.4193,6.1 L 0.4192,6.1 L 0.4191,6.1 L 0.419,6.1 L 0.4189,6.1 L 0.4188,6.1 L 0.4187,6.1 L 0.4186,6.1 L 0.4185,6.1 L 0.4184,6.1 L 0.4183,6.1 L 0.4182,6.1 L 0.4181,6.1 L 0.418,6.1 L 0.4179,6.1 L 0.4178,6.1" />
      <path d="M 0.4193,-6.1 L 0.4192,-6.1 L 0.4191,-6.1 L 0.419,-6.1 L 0.4189,-6.1 L 0.4188,-6.1 L 0.4187,-6.1 L 0.4186,-6.1 L 0.4185,-6.1 L 0.4184,-6.1 L 0.4183,-6.1 L 0.4182,-6.1 L 0.4181,-6.1 L 0.418,-6.1 L 0.4179,-6.1 L 0.4178,-6.1" />
      <path d="M 14.4416,10.4414 L 14.4416,10.1619 L 14.4416,9.8824 L 14.4416,9.603 L 14.4416,9.3235 L 14.4416,9.044 L 14.4416,8.7645 L 14.4416,8.485 L 14.4416,8.2055 L 14.4416,7.926 L 14.4416,7.6466 L 14.4416,7.3671 L 14.4416,7.0876 L 14.4416,6.8081 L 14.4416,6.5286 L 14.4416,6.2491 L 14.4416,5.9697 L 14.4416,5.6902 L 14.4416,5.4107 L 14.4416,5.1312 L 14.4416,4.8517 L 14.4416,4.5722 L 14.4416,4.2928 L 14.4416,4.0133 L 14.4416,3.7338 L 14.4416,3.4543 L 14.4416,3.1748 L 14.4416,2.8953 L 14.4416,2.6158 L 14.4416,2.3364 L 14.4416,2.0569 L 14.4416,1.7774 L 14.4416,1.4979 L 14.4416,1.2184 L 14.4416,0.9389 L 14.4416,0.6595 L 14.4416,0.38 L 14.4416,0.1005 L 14.4416,-0.179 L 14.4416,-0.4585 L 14.4416,-0.738 L 14.4416,-1.0175 L 14.4416,-1.2969 L 14.4416,-1.5764 L 14.4416,-1.8559 L 14.4416,-2.1354 L 14.4416,-2.4149 L 14.4416,-2.6944 L 14.4416,-2.9738 L 14.4416,-3.2533 L 14.4416,-3.5328 L 14.4416,-3.8123 L 14.4416,-4.0918 L 14.4416,-4.3713 L 14.4416,-4.6507 L 14.4416,-4.9302 L 14.4416,-5.2097 L 14.4416,-5.4892 L 14.4416,-5.7687 L 14.4416,-6.0482 L 14.4416,-6.3277 L 14.4416,-6.6071 L 14.4416,-6.8866 L 14.4416,-7.1661 L 14.4416,-7.4456 L 14.4416,-7.7251 L 14.4416,-8.0046 L 14.4416,-8.284 L 14.4416,-8.5635 L 14.4416,-8.843 L 14.4416,-9.1225 L 14.4416,-9.402 L 14.4416,-9.6815" />
      <path d="M 17.9416,10.4414 L 17.9416,10.1619 L 17.9416,9.8824 L 17.9416,9.603 L 17.9416,9.3235 L 17.9416,9.044 L 17.9416,8.7645 L 17.9416,8.485 L 17.9416,8.2055 L 17.9416,7.926 L 17.9416,7.6466 L 17.9416,7.3671 L 17.9416,7.0876 L 17.9416,6.8081 L 17.9416,6.5286 L 17.9416,6.2491 L 17.9416,5.9697 L 17.9416,5.6902 L 17.9416,5.4107 L 17.9416,5.1312 L 17.9416,4.8517 L 17.9416,4.5722 L 17.9416,4.2928 L 17.9416,4.0133 L 17.9416,3.7338 L 17.9416,3.4543 L 17.9416,3.1748 L 17.9416,2.8953 L 17.9416,2.6158 L 17.9416,2.3364 L 17.9416,2.0569 L 17.9416,1.7774 L 17.9416,1.4979 L 17.9416,1.2184 L 17.9416,0.9389 L 17.9416,0.6595 L 17.9416,0.38 L 17.9416,0.1005 L 17.9416,-0.179 L 17.9416,-0.4585 L 17.9416,-0.738 L 17.9416,-1.0175 L 17.9416,-1.2969 L 17.9416,-1.5764 L 17.9416,-1.8559 L 17.9416,-2.1354 L 17.9416,-2.4149 L 17.9416,-2.6944 L 17.9416,-2.9738 L 17.9416,-3.2533 L 17.9416,-3.5328 L 17.9416,-3.8123 L 17.9416,-4.0918 L 17.9416,-4.3713 L 17.9416,-4.6507 L 17.9416,-4.9302 L 17.9416,-5.2097 L 17.9416,-5.4892 L 17.9416,-5.7687 L 17.9416,-6.0482 L 17.9416,-6.3277 L 17.9416,-6.6071 L 17.9416,-6.8866 L 17.9416,-7.1661 L 17.9416,-7.4456 L 17.9416,-7.7251 L 17.9416,-8.0046 L 17.9416,-8.284 L 17.9416,-8.5635 L 17.9416,-8.843 L 17.9416,-9.1225 L 17.9416,-9.402 L 17.9416,-9.6815" />
      <path d="M 14.4416,10.4404 L 14.4416,10.3841 L 14.4416,10.3278 L 14.4416,10.2716 L 14.4416,10.2153 L 14.4416,10.1591 L 14.4416,10.1028 L 14.4416,10.0465 L 14.4416,9.9903 L 14.4416,9.934 L 14.4416,9.8778 L 14.4416,9.8215 L 14.4416,9.7652 L 14.4416,9.709 L 14.4416,9.6527 L 14.4416,9.5965 L 14.4416,9.5402 L 14.4416,9.4839 L 14.4416,9.4277 L 14.4416,9.3714 L 14.4416,9.3152 L 14.4416,9.2589 L 14.4416,9.2026 L 14.4416,9.1464 L 14.4416,9.0901 L 14.4416,9.0338 L 14.4416,8.9776 L 14.4416,8.9213 L 14.4416,8.8651 L 14.4416,8.8088 L 14.4416,8.7525 L 14.4416,8.6963 L 14.4416,8.64 L 14.4416,8.5838 L 14.4416,8.5275 L 14.4416,8.4712 L 14.4416,8.415 L 14.4416,8.3587 L 14.4416,8.3025 L 14.4416,8.2462 L 14.4416,8.1899 L 14.4416,8.1337 L 14.4416,8.0774 L 14.4416,8.0212 L 14.4416,7.9649 L 14.4416,7.9086 L 14.4416,7.8524 L 14.4416,7.7961 L 14.4416,7.7399 L 14.4416,7.6836 L 14.4416,7.6273 L 14.4416,7.5711 L 14.4416,7.5148 L 14.4416,7.4586 L 14.4416,7.4023 L 14.4416,7.346 L 14.4416,7.2898 L 14.4416,7.2335 L 14.4416,7.1773 L 14.4416,7.121 L 14.4416,7.0647 L 14.4416,7.0085 L 14.4416,6.9522 L 14.4416,6.896 L 14.4416,6.8397 L 14.4416,6.7834 L 14.4416,6.7272 L 14.4416,6.6709 L 14.4416,6.6147 L 14.4416,6.5584 L 14.4416,6.5021 L 14.4416,6.4459 L 14.4416,6.3896" />
      <path d="M 14.4416,6.3896 L 14.4416,6.222 L 14.4416,6.0543 L 14.4416,5.8866 L 14.4416,5.719 L 14.4416,5.5513 L 14.4416,5.3837 L 14.4416,5.216 L 14.4416,5.0484 L 14.4416,4.8807 L 14.4416,4.7131 L 14.4416,4.5454 L 14.4416,4.3778 L 14.4416,4.2101 L 14.4416,4.0425 L 14.4416,3.8748 L 14.4416,3.7071 L 14.4416,3.5395 L 14.4416,3.3718 L 14.4416,3.2042 L 14.4416,3.0365 L 14.4416,2.8689 L 14.4416,2.7012 L 14.4416,2.5336 L 14.4416,2.3659 L 14.4416,2.1983 L 14.4416,2.0306 L 14.4416,1.863 L 14.4416,1.6953 L 14.4416,1.5276 L 14.4416,1.36 L 14.4416,1.1923 L 14.4416,1.0247 L 14.4416,0.857 L 14.4416,0.6894 L 14.4416,0.5217 L 14.4416,0.3541 L 14.4416,0.1864 L 14.4416,0.0188 L 14.4416,-0.1489 L 14.4416,-0.3165 L 14.4416,-0.4842 L 14.4416,-0.6519 L 14.4416,-0.8195 L 14.4416,-0.9872 L 14.4416,-1.1548 L 14.4416,-1.3225 L 14.4416,-1.4901 L 14.4416,-1.6578 L 14.4416,-1.8254 L 14.4416,-1.9931 L 14.4416,-2.1607 L 14.4416,-2.3284 L 14.4416,-2.496 L 14.4416,-2.6637 L 14.4416,-2.8314 L 14.4416,-2.999 L 14.4416,-3.1667 L 14.4416,-3.3343 L 14.4416,-3.502 L 14.4416,-3.6696 L 14.4416,-3.8373 L 14.4416,-4.0049 L 14.4416,-4.1726 L 14.4416,-4.3402 L 14.4416,-4.5079 L 14.4416,-4.6755 L 14.4416,-4.8432 L 14.4416,-5.0109 L 14.4416,-5.1785 L 14.4416,-5.3462 L 14.4416,-5.5138 L 14.4416,-5.6815" />
      <path d="M 14.4416,-5.6815 L 14.4416,-5.5138 L 14.4416,-5.3462 L 14.4416,-5.1785 L 14.4416,-5.0109 L 14.4416,-4.8433 L 14.4416,-4.6756 L 14.4416,-4.508 L 14.4416,-4.3404 L 14.4416,-4.1727 L 14.4416,-4.0051 L 14.4416,-3.8374 L 14.4416,-3.6698 L 14.4416,-3.5022 L 14.4416,-3.3345 L 14.4416,-3.1669 L 14.4416,-2.9992 L 14.4416,-2.8316 L 14.4416,-2.664 L 14.4416,-2.4963 L 14.4416,-2.3287 L 14.4416,-2.161 L 14.4416,-1.9934 L 14.4416,-1.8258 L 14.4416,-1.6581 L 14.4416,-1.4905 L 14.4416,-1.3228 L 14.4416,-1.1552 L 14.4416,-0.9876 L 14.4416,-0.8199 L 14.4416,-0.6523 L 14.4416,-0.4846 L 14.4416,-0.317 L 14.4416,-0.1494 L 14.4416,0.0183 L 14.4416,0.1859 L 14.4416,0.3535 L 14.4416,0.5212 L 14.4416,0.6888 L 14.4416,0.8565 L 14.4416,1.0241 L 14.4416,1.1917 L 14.4416,1.3594 L 14.4416,1.527 L 14.4416,1.6947 L 14.4416,1.8623 L 14.4416,2.0299 L 14.4416,2.1976 L 14.4416,2.3652 L 14.4416,2.5329 L 14.4416,2.7005 L 14.4416,2.8681 L 14.4416,3.0358 L 14.4416,3.2034 L 14.4416,3.3711 L 14.4416,3.5387 L 14.4416,3.7063 L 14.4416,3.874 L 14.4416,4.0416 L 14.4416,4.2093 L 14.4416,4.3769 L 14.4416,4.5445 L 14.4416,4.7122 L 14.4416,4.8798 L 14.4416,5.0474 L 14.4416,5.2151 L 14.4416,5.3827 L 14.4416,5.5504 L 14.4416,5.718 L 14.4416,5.8856 L 14.4416,6.0533 L 14.4416,6.2209 L 14.4416,6.3886" />
      <path d="M 14.4416,10.4404 L 14.4416,10.3841 L 14.4416,10.3278 L 14.4416,10.2715 L 14.4416,10.2153 L 14.4416,10.159 L 14.4416,10.1027 L 14.4416,10.0464 L 14.4416,9.9902 L 14.4416,9.9339 L 14.4416,9.8776 L 14.4416,9.8213 L 14.4416,9.7651 L 14.4416,9.7088 L 14.4416,9.6525 L 14.4416,9.5962 L 14.4416,9.54 L 14.4416,9.4837 L 14.4416,9.4274 L 14.4416,9.3711 L 14.4416,9.3149 L 14.4416,9.2586 L 14.4416,9.2023 L 14.4416,9.146 L 14.4416,9.0898 L 14.4416,9.0335 L 14.4416,8.9772 L 14.4416,8.9209 L 14.4416,8.8647 L 14.4416,8.8084 L 14.4416,8.7521 L 14.4416,8.6958 L 14.4416,8.6396 L 14.4416,8.5833 L 14.4416,8.527 L 14.4416,8.4707 L 14.4416,8.4145 L 14.4416,8.3582 L 14.4416,8.3019 L 14.4416,8.2456 L 14.4416,8.1894 L 14.4416,8.1331 L 14.4416,8.0768 L 14.4416,8.0205 L 14.4416,7.9643 L 14.4416,7.908 L 14.4416,7.8517 L 14.4416,7.7954 L 14.4416,7.7392 L 14.4416,7.6829 L 14.4416,7.6266 L 14.4416,7.5703 L 14.4416,7.5141 L 14.4416,7.4578 L 14.4416,7.4015 L 14.4416,7.3452 L 14.4416,7.289 L 14.4416,7.2327 L 14.4416,7.1764 L 14.4416,7.1201 L 14.4416,7.0639 L 14.4416,7.0076 L 14.4416,6.9513 L 14.4416,6.895 L 14.4416,6.8388 L 14.4416,6.7825 L 14.4416,6.7262 L 14.4416,6.6699 L 14.4416,6.6137 L 14.4416,6.5574 L 14.4416,6.5011 L 14.4416,6.4448 L 14.4416,6.3886" />
      <path d="M 17.9416,6.3886 L 17.893,6.3886 L 17.8444,6.3886 L 17.7958,6.3886 L 17.7472,6.3886 L 17.6986,6.3886 L 17.6499,6.3886 L 17.6013,6.3886 L 17.5527,6.3886 L 17.5041,6.3886 L 17.4555,6.3886 L 17.4069,6.3886 L 17.3583,6.3886 L 17.3097,6.3886 L 17.2611,6.3886 L 17.2124,6.3886 L 17.1638,6.3886 L 17.1152,6.3886 L 17.0666,6.3886 L 17.018,6.3886 L 16.9694,6.3886 L 16.9208,6.3886 L 16.8722,6.3886 L 16.8236,6.3886 L 16.7749,6.3886 L 16.7263,6.3886 L 16.6777,6.3886 L 16.6291,6.3886 L 16.5805,6.3886 L 16.5319,6.3886 L 16.4833,6.3886 L 16.4347,6.3886 L 16.3861,6.3886 L 16.3374,6.3886 L 16.2888,6.3886 L 16.2402,6.3886 L 16.1916,6.3886 L 16.143,6.3886 L 16.0944,6.3886 L 16.0458,6.3886 L 15.9972,6.3886 L 15.9486,6.3886 L 15.8999,6.3886 L 15.8513,6.3886 L 15.8027,6.3886 L 15.7541,6.3886 L 15.7055,6.3886 L 15.6569,6.3886 L 15.6083,6.3886 L 15.5597,6.3886 L 15.5111,6.3886 L 15.4624,6.3886 L 15.4138,6.3886 L 15.3652,6.3886 L 15.3166,6.3886 L 15.268,6.3886 L 15.2194,6.3886 L 15.1708,6.3886 L 15.1222,6.3886 L 15.0736,6.3886 L 15.0249,6.3886 L 14.9763,6.3886 L 14.9277,6.3886 L 14.8791,6.3886 L 14.8305,6.3886 L 14.7819,6.3886 L 14.7333,6.3886 L 14.6847,6.3886 L 14.6361,6.3886 L 14.5874,6.3886 L 14.5388,6.3886 L 14.4902,6.3886 L 14.4416,6.3886" />
      <path d="M 17.9416,10.4404 L 17.9416,10.3841 L 17.9416,10.3278 L 17.9416,10.2715 L 17.9416,10.2153 L 17.9416,10.159 L 17.9416,10.1027 L 17.9416,10.0464 L 17.9416,9.9902 L 17.9416,9.9339 L 17.9416,9.8776 L 17.9416,9.8213 L 17.9416,9.7651 L 17.9416,9.7088 L 17.9416,9.6525 L 17.9416,9.5962 L 17.9416,9.54 L 17.9416,9.4837 L 17.9416,9.4274 L 17.9416,9.3711 L 17.9416,9.3149 L 17.9416,9.2586 L 17.9416,9.2023 L 17.9416,9.146 L 17.9416,9.0898 L 17.9416,9.0335 L 17.9416,8.9772 L 17.9416,8.9209 L 17.9416,8.8647 L 17.9416,8.8084 L 17.9416,8.7521 L 17.9416,8.6958 L 17.9416,8.6396 L 17.9416,8.5833 L 17.9416,8.527 L 17.9416,8.4707 L 17.9416,8.4145 L 17.9416,8.3582 L 17.9416,8.3019 L 17.9416,8.2456 L 17.9416,8.1894 L 17.9416,8.1331 L 17.9416,8.0768 L 17.9416,8.0205 L 17.9416,7.9643 L 17.9416,7.908 L 17.9416,7.8517 L 17.9416,7.7954 L 17.9416,7.7392 L 17.9416,7.6829 L 17.9416,7.6266 L 17.9416,7.5703 L 17.9416,7.5141 L 17.9416,7.4578 L 17.9416,7.4015 L 17.9416,7.3452 L 17.9416,7.289 L 17.9416,7.2327 L 17.9416,7.1764 L 17.9416,7.1201 L 17.9416,7.0639 L 17.9416,7.0076 L 17.9416,6.9513 L 17.9416,6.895 L 17.9416,6.8388 L 17.9416,6.7825 L 17.9416,6.7262 L 17.9416,6.6699 L 17.9416,6.6137 L 17.9416,6.5574 L 17.9416,6.5011 L 17.9416,6.4448 L 17.9416,6.3886" />
      <path d="M 17.9416,10.4404 L 17.9416,10.3841 L 17.9416,10.3278 L 17.9416,10.2716 L 17.9416,10.2153 L 17.9416,10.1591 L 17.9416,10.1028 L 17.9416,10.0465 L 17.9416,9.9903 L 17.9416,9.934 L 17.9416,9.8778 L 17.9416,9.8215 L 17.9416,9.7652 L 17.9416,9.709 L 17.9416,9.6527 L 17.9416,9.5965 L 17.9416,9.5402 L 17.9416,9.4839 L 17.9416,9.4277 L 17.9416,9.3714 L 17.9416,9.3152 L 17.9416,9.2589 L 17.9416,9.2026 L 17.9416,9.1464 L 17.9416,9.0901 L 17.9416,9.0338 L 17.9416,8.9776 L 17.9416,8.9213 L 17.9416,8.8651 L 17.9416,8.8088 L 17.9416,8.7525 L 17.9416,8.6963 L 17.9416,8.64 L 17.9416,8.5838 L 17.9416,8.5275 L 17.9416,8.4712 L 17.9416,8.415 L 17.9416,8.3587 L 17.9416,8.3025 L 17.9416,8.2462 L 17.9416,8.1899 L 17.9416,8.1337 L 17.9416,8.0774 L 17.9416,8.0212 L 17.9416,7.9649 L 17.9416,7.9086 L 17.9416,7.8524 L 17.9416,7.7961 L 17.9416,7.7399 L 17.9416,7.6836 L 17.9416,7.6273 L 17.9416,7.5711 L 17.9416,7.5148 L 17.9416,7.4586 L 17.9416,7.4023 L 17.9416,7.346 L 17.9416,7.2898 L 17.9416,7.2335 L 17.9416,7.1773 L 17.9416,7.121 L 17.9416,7.0647 L 17.9416,7.0085 L 17.9416,6.9522 L 17.9416,6.896 L 17.9416,6.8397 L 17.9416,6.7834 L 17.9416,6.7272 L 17.9416,6.6709 L 17.9416,6.6147 L 17.9416,6.5584 L 17.9416,6.5021 L 17.9416,6.4459 L 17.9416,6.3896" />
      <path d="M 17.9416,6.3896 L 17.9416,6.222 L 17.9416,6.0543 L 17.9416,5.8866 L 17.9416,5.719 L 17.9416,5.5513 L 17.9416,5.3837 L 17.9416,5.216 L 17.9416,5.0484 L 17.9416,4.8807 L 17.9416,4.7131 L 17.9416,4.5454 L 17.9416,4.3778 L 17.9416,4.2101 L 17.9416,4.0425 L 17.9416,3.8748 L 17.9416,3.7071 L 17.9416,3.5395 L 17.9416,3.3718 L 17.9416,3.2042 L 17.9416,3.0365 L 17.9416,2.8689 L 17.9416,2.7012 L 17.9416,2.5336 L 17.9416,2.3659 L 17.9416,2.1983 L 17.9416,2.0306 L 17.9416,1.863 L 17.9416,1.6953 L 17.9416,1.5276 L 17.9416,1.36 L 17.9416,1.1923 L 17.9416,1.0247 L 17.9416,0.857 L 17.9416,0.6894 L 17.9416,0.5217 L 17.9416,0.3541 L 17.9416,0.1864 L 17.9416,0.0188 L 17.9416,-0.1489 L 17.9416,-0.3165 L 17.9416,-0.4842 L 17.9416,-0.6519 L 17.9416,-0.8195 L 17.9416,-0.9872 L 17.9416,-1.1548 L 17.9416,-1.3225 L 17.9416,-1.4901 L 17.9416,-1.6578 L 17.9416,-1.8254 L 17.9416,-1.9931 L 17.9416,-2.1607 L 17.9416,-2.3284 L 17.9416,-2.496 L 17.9416,-2.6637 L 17.9416,-2.8314 L 17.9416,-2.999 L 17.9416,-3.1667 L 17.9416,-3.3343 L 17.9416,-3.502 L 17.9416,-3.6696 L 17.9416,-3.8373 L 17.9416,-4.0049 L 17.9416,-4.1726 L 17.9416,-4.3402 L 17.9416,-4.5079 L 17.9416,-4.6755 L 17.9416,-4.8432 L 17.9416,-5.0109 L 17.9416,-5.1785 L 17.9416,-5.3462 L 17.9416,-5.5138 L 17.9416,-5.6815" />
      <path d="M 17.9416,-5.6815 L 17.9416,-5.5138 L 17.9416,-5.3462 L 17.9416,-5.1785 L 17.9416,-5.0109 L 17.9416,-4.8433 L 17.9416,-4.6756 L 17.9416,-4.508 L 17.9416,-4.3404 L 17.9416,-4.1727 L 17.9416,-4.0051 L 17.9416,-3.8374 L 17.9416,-3.6698 L 17.9416,-3.5022 L 17.9416,-3.3345 L 17.9416,-3.1669 L 17.9416,-2.9992 L 17.9416,-2.8316 L 17.9416,-2.664 L 17.9416,-2.4963 L 17.9416,-2.3287 L 17.9416,-2.161 L 17.9416,-1.9934 L 17.9416,-1.8258 L 17.9416,-1.6581 L 17.9416,-1.4905 L 17.9416,-1.3228 L 17.9416,-1.1552 L 17.9416,-0.9876 L 17.9416,-0.8199 L 17.9416,-0.6523 L 17.9416,-0.4846 L 17.9416,-0.317 L 17.9416,-0.1494 L 17.9416,0.0183 L 17.9416,0.1859 L 17.9416,0.3535 L 17.9416,0.5212 L 17.9416,0.6888 L 17.9416,0.8565 L 17.9416,1.0241 L 17.9416,1.1917 L 17.9416,1.3594 L 17.9416,1.527 L 17.9416,1.6947 L 17.9416,1.8623 L 17.9416,2.0299 L 17.9416,2.1976 L 17.9416,2.3652 L 17.9416,2.5329 L 17.9416,2.7005 L 17.9416,2.8681 L 17.9416,3.0358 L 17.9416,3.2034 L 17.9416,3.3711 L 17.9416,3.5387 L 17.9416,3.7063 L 17.9416,3.874 L 17.9416,4.0416 L 17.9416,4.2093 L 17.9416,4.3769 L 17.9416,4.5445 L 17.9416,4.7122 L 17.9416,4.8798 L 17.9416,5.0474 L 17.9416,5.2151 L 17.9416,5.3827 L 17.9416,5.5504 L 17.9416,5.718 L 17.9416,5.8856 L 17.9416,6.0533 L 17.9416,6.2209 L 17.9416,6.3886" />
      <path d="M 17.9416,6.3896 L 17.893,6.3896 L 17.8444,6.3896 L 17.7958,6.3896 L 17.7472,6.3896 L 17.6986,6.3896 L 17.6499,6.3896 L 17.6013,6.3896 L 17.5527,6.3896 L 17.5041,6.3896 L 17.4555,6.3896 L 17.4069,6.3896 L 17.3583,6.3896 L 17.3097,6.3896 L 17.2611,6.3896 L 17.2124,6.3896 L 17.1638,6.3896 L 17.1152,6.3896 L 17.0666,6.3896 L 17.018,6.3896 L 16.9694,6.3896 L 16.9208,6.3896 L 16.8722,6.3896 L 16.8236,6.3896 L 16.7749,6.3896 L 16.7263,6.3896 L 16.6777,6.3896 L 16.6291,6.3896 L 16.5805,6.3896 L 16.5319,6.3896 L 16.4833,6.3896 L 16.4347,6.3896 L 16.3861,6.3896 L 16.3374,6.3896 L 16.2888,6.3896 L 16.2402,6.3896 L 16.1916,6.3896 L 16.143,6.3896 L 16.0944,6.3896 L 16.0458,6.3896 L 15.9972,6.3896 L 15.9486,6.3896 L 15.8999,6.3896 L 15.8513,6.3896 L 15.8027,6.3896 L 15.7541,6.3896 L 15.7055,6.3896 L 15.6569,6.3896 L 15.6083,6.3896 L 15.5597,6.3896 L 15.5111,6.3896 L 15.4624,6.3896 L 15.4138,6.3896 L 15.3652,6.3896 L 15.3166,6.3896 L 15.268,6.3896 L 15.2194,6.3896 L 15.1708,6.3896 L 15.1222,6.3896 L 15.0736,6.3896 L 15.0249,6.3896 L 14.9763,6.3896 L 14.9277,6.3896 L 14.8791,6.3896 L 14.8305,6.3896 L 14.7819,6.3896 L 14.7333,6.3896 L 14.6847,6.3896 L 14.6361,6.3896 L 14.5874,6.3896 L 14.5388,6.3896 L 14.4902,6.3896 L 14.4416,6.3896" />
      <path d="M 17.9416,-5.6815 L 17.893,-5.6815 L 17.8444,-5.6815 L 17.7958,-5.6815 L 17.7472,-5.6815 L 17.6986,-5.6815 L 17.6499,-5.6815 L 17.6013,-5.6815 L 17.5527,-5.6815 L 17.5041,-5.6815 L 17.4555,-5.6815 L 17.4069,-5.6815 L 17.3583,-5.6815 L 17.3097,-5.6815 L 17.2611,-5.6815 L 17.2124,-5.6815 L 17.1638,-5.6815 L 17.1152,-5.6815 L 17.0666,-5.6815 L 17.018,-5.6815 L 16.9694,-5.6815 L 16.9208,-5.6815 L 16.8722,-5.6815 L 16.8236,-5.6815 L 16.7749,-5.6815 L 16.7263,-5.6815 L 16.6777,-5.6815 L 16.6291,-5.6815 L 16.5805,-5.6815 L 16.5319,-5.6815 L 16.4833,-5.6815 L 16.4347,-5.6815 L 16.3861,-5.6815 L 16.3374,-5.6815 L 16.2888,-5.6815 L 16.2402,-5.6815 L 16.1916,-5.6815 L 16.143,-5.6815 L 16.0944,-5.6815 L 16.0458,-5.6815 L 15.9972,-5.6815 L 15.9486,-5.6815 L 15.8999,-5.6815 L 15.8513,-5.6815 L 15.8027,-5.6815 L 15.7541,-5.6815 L 15.7055,-5.6815 L 15.6569,-5.6815 L 15.6083,-5.6815 L 15.5597,-5.6815 L 15.5111,-5.6815 L 15.4624,-5.6815 L 15.4138,-5.6815 L 15.3652,-5.6815 L 15.3166,-5.6815 L 15.268,-5.6815 L 15.2194,-5.6815 L 15.1708,-5.6815 L 15.1222,-5.6815 L 15.0736,-5.6815 L 15.0249,-5.6815 L 14.9763,-5.6815 L 14.9277,-5.6815 L 14.8791,-5.6815 L 14.8305,-5.6815 L 14.7819,-5.6815 L 14.7333,-5.6815 L 14.6847,-5.6815 L 14.6361,-5.6815 L 14.5874,-5.6815 L 14.5388,-5.6815 L 14.4902,-5.6815 L 14.4416,-5.6815" />
    </g>
  </g>
</svg>