<?xml version='1.0' encoding='utf-8'?>
<svg width="35.8353mm" height="29.0482mm" viewBox="-14.4694 -14.9133 35.8353 29.0482" version="1.1" xmlns="http://www.w3.org/2000/svg">
  <g transform="scale(1,-1)" stroke-linecap="round">
    <g fill="none" stroke="rgb(0,0,0)" stroke-width="0.4" id="Visible">
      <path d="M 0.0547,6.3651 L -0.443,6.3444 L -0.9373,6.2822 L -1.4247,6.1791 L -1.9018,6.0358 L -2.3653,5.8532 L -2.812,5.6326 L -3.2388,5.3757 L -3.6427,5.084 L -4.0209,4.7597 L -4.3707,4.4051 L -4.6898,4.0225 L -4.976,3.6147 L -5.2271,3.1845 L -5.4416,2.7349 L -5.6179,2.2689 L -5.7547,1.7899 L -5.8512,1.3012 L -5.9067,0.8061 L -5.9207,0.3081 L -5.8931,-0.1893 L -5.8243,-0.6827 L -5.7146,-1.1686 L -5.5648,-1.6438 L -5.3759,-2.1048 L -5.1493,-2.5484 L -4.8866,-2.9717 L -4.5895,-3.3715 L -4.2601,-3.7453 L -3.9007,-4.0903 L -3.5139,-4.4042 L -3.1022,-4.6848 L -2.6686,-4.9301 L -2.2161,-5.1384 L -1.7478,-5.3084 L -1.267,-5.4387 L -0.777,-5.5285 L -0.2812,-5.5772 L 0.2169,-5.5845 L 0.7139,-5.5502 L 1.2063,-5.4747 L 1.6907,-5.3584 L 2.1638,-5.2021 L 2.6222,-5.007 L 3.0627,-4.7744 L 3.4823,-4.506 L 3.8782,-4.2035 L 4.2474,-3.869 L 4.5875,-3.505 L 4.8961,-3.1139 L 5.1711,-2.6985 L 5.4105,-2.2616 L 5.6127,-1.8063 L 5.7762,-1.3358 L 5.9,-0.8532 L 5.9832,-0.3621 L 6.0252,0.1343 L 6.0257,0.6325 L 5.9846,1.129 L 5.9024,1.6203 L 5.7796,2.1031 L 5.6169,2.574 L 5.4156,3.0297 L 5.1771,3.467 L 4.9029,3.883 L 4.5951,4.2747 L 4.2557,4.6393 L 3.8871,4.9745 L 3.4918,5.2778 L 3.0727,5.547 L 2.6326,5.7805 L 2.1746,5.9765 L 1.7019,6.1336" />
      <path d="M 0.0547,11.0133 L -0.8302,10.9764 L -1.7089,10.8659 L -2.5754,10.6826 L -3.4236,10.4278 L -4.2477,10.1032 L -5.0418,9.7111 L -5.8005,9.2542 L -6.5186,8.7357 L -7.1909,8.1592 L -7.8129,7.5287 L -8.3802,6.8486 L -8.8889,6.1236 L -9.3355,5.3588 L -9.7167,4.5594 L -10.0301,3.731 L -10.2734,2.8794 L -10.4449,2.0105 L -10.5435,1.1304 L -10.5684,0.245 L -10.5195,-0.6393 L -10.3971,-1.5164 L -10.202,-2.3804 L -9.9357,-3.225 L -9.5999,-4.0446 L -9.1971,-4.8333 L -8.73,-5.5858 L -8.2018,-6.2967 L -7.6162,-6.9612 L -6.9773,-7.5745 L -6.2896,-8.1326 L -5.5577,-8.6314 L -4.7869,-9.0675 L -3.9824,-9.4379 L -3.1498,-9.74 L -2.295,-9.9717 L -1.4239,-10.1314 L -0.5425,-10.218 L 0.3431,-10.2309 L 1.2267,-10.17 L 2.1021,-10.0357 L 2.9633,-9.8289 L 3.8043,-9.5512 L 4.6192,-9.2043 L 5.4024,-8.7908 L 6.1484,-8.3135 L 6.8521,-7.7757 L 7.5086,-7.1812 L 8.1132,-6.534 L 8.6619,-5.8387 L 9.1507,-5.1002 L 9.5763,-4.3235 L 9.9358,-3.5141 L 10.2265,-2.6775 L 10.4466,-1.8196 L 10.5945,-0.9464 L 10.6691,-0.0639 L 10.67,0.8218 L 10.5971,1.7044 L 10.4509,2.578 L 10.2325,3.4363 L 9.9433,4.2734 L 9.5854,5.0835 L 9.1613,5.8611 L 8.6739,6.6006 L 8.1266,7.2969 L 7.5232,7.9452 L 6.8679,8.541 L 6.1653,9.0802 L 5.4202,9.5589 L 4.6378,9.974 L 3.8235,10.3224 L 2.9831,10.6018" />
      <path d="M 0.0546,10.5493 L -0.7917,10.514 L -1.6321,10.4083 L -2.4607,10.233 L -3.272,9.9893 L -4.06,9.6788 L -4.8195,9.3038 L -5.5451,8.8669 L -6.2318,8.371 L -6.8749,7.8197 L -7.4697,7.2167 L -8.0123,6.5662 L -8.4988,5.8729 L -8.9258,5.1414 L -9.2905,4.3769 L -9.5902,3.5846 L -9.8229,2.7702 L -9.9869,1.9392 L -10.0812,1.0975 L -10.105,0.2508 L -10.0582,-0.595 L -9.9411,-1.4338 L -9.7546,-2.2601 L -9.4999,-3.0679 L -9.1788,-3.8517 L -8.7935,-4.606 L -8.3468,-5.3256 L -7.8416,-6.0056 L -7.2816,-6.641 L -6.6706,-7.2276 L -6.0128,-7.7613 L -5.3129,-8.2384 L -4.5757,-8.6555 L -3.8063,-9.0097 L -3.0101,-9.2986 L -2.1926,-9.5202 L -1.3594,-9.673 L -0.5165,-9.7558 L 0.3304,-9.7681 L 1.1755,-9.7099 L 2.0127,-9.5814 L 2.8363,-9.3837 L 3.6406,-9.118 L 4.42,-8.7863 L 5.169,-8.3908 L 5.8825,-7.9343 L 6.5555,-7.42 L 7.1833,-6.8514 L 7.7616,-6.2325 L 8.2863,-5.5676 L 8.7538,-4.8613 L 9.1608,-4.1185 L 9.5046,-3.3443 L 9.7827,-2.5443 L 9.9932,-1.7238 L 10.1346,-0.8887 L 10.2059,-0.0447 L 10.2068,0.8024 L 10.137,1.6465 L 9.9972,2.4819 L 9.7883,3.3028 L 9.5118,4.1034 L 9.1695,4.8782 L 8.7639,5.6218 L 8.2978,6.329 L 7.7744,6.9949 L 7.1973,7.615 L 6.5706,8.1848 L 5.8986,8.7004 L 5.186,9.1583 L 4.4378,9.5552 L 3.659,9.8884 L 2.8553,10.1557" />
      <path d="M 0.0547,11.0133 L 0.0547,11.0069 L 0.0547,11.0004 L 0.0547,10.994 L 0.0547,10.9876 L 0.0547,10.9811 L 0.0547,10.9747 L 0.0547,10.9682 L 0.0547,10.9618 L 0.0547,10.9553 L 0.0547,10.9489 L 0.0547,10.9424 L 0.0547,10.936 L 0.0547,10.9295 L 0.0547,10.9231 L 0.0547,10.9167 L 0.0547,10.9102 L 0.0547,10.9038 L 0.0547,10.8973 L 0.0547,10.8909 L 0.0547,10.8844 L 0.0547,10.878 L 0.0547,10.8715 L 0.0547,10.8651 L 0.0547,10.8586 L 0.0547,10.8522 L 0.0547,10.8458 L 0.0547,10.8393 L 0.0547,10.8329 L 0.0547,10.8264 L 0.0547,10.82 L 0.0547,10.8135 L 0.0547,10.8071 L 0.0547,10.8006 L 0.0547,10.7942 L 0.0547,10.7877 L 0.0547,10.7813 L 0.0547,10.7749 L 0.0547,10.7684 L 0.0547,10.762 L 0.0547,10.7555 L 0.0547,10.7491 L 0.0547,10.7426 L 0.0547,10.7362 L 0.0547,10.7297 L 0.0547,10.7233 L 0.0547,10.7168 L 0.0547,10.7104 L 0.0547,10.704 L 0.0547,10.6975 L 0.0547,10.6911 L 0.0547,10.6846 L 0.0546,10.6782 L 0.0546,10.6717 L 0.0546,10.6653 L 0.0546,10.6588 L 0.0546,10.6524 L 0.0546,10.6459 L 0.0546,10.6395 L 0.0546,10.633 L 0.0546,10.6266 L 0.0546,10.6202 L 0.0546,10.6137 L 0.0546,10.6073 L 0.0546,10.6008 L 0.0546,10.5944 L 0.0546,10.5879 L 0.0546,10.5815 L 0.0546,10.575 L 0.0546,10.5686 L 0.0546,10.5621 L 0.0546,10.5557 L 0.0546,10.5493" />
      <path d="M 2.9831,10.6018 L 2.9813,10.5956 L 2.9795,10.5894 L 2.9778,10.5832 L 2.976,10.577 L 2.9742,10.5708 L 2.9724,10.5646 L 2.9707,10.5584 L 2.9689,10.5522 L 2.9671,10.546 L 2.9653,10.5398 L 2.9636,10.5336 L 2.9618,10.5274 L 2.96,10.5212 L 2.9582,10.515 L 2.9565,10.5088 L 2.9547,10.5026 L 2.9529,10.4964 L 2.9511,10.4902 L 2.9494,10.4841 L 2.9476,10.4779 L 2.9458,10.4717 L 2.944,10.4655 L 2.9423,10.4593 L 2.9405,10.4531 L 2.9387,10.4469 L 2.9369,10.4407 L 2.9352,10.4345 L 2.9334,10.4283 L 2.9316,10.4221 L 2.9298,10.4159 L 2.9281,10.4097 L 2.9263,10.4035 L 2.9245,10.3973 L 2.9227,10.3911 L 2.921,10.3849 L 2.9192,10.3787 L 2.9174,10.3725 L 2.9156,10.3663 L 2.9139,10.3601 L 2.9121,10.3539 L 2.9103,10.3477 L 2.9085,10.3415 L 2.9068,10.3353 L 2.905,10.3291 L 2.9032,10.323 L 2.9014,10.3168 L 2.8996,10.3106 L 2.8979,10.3044 L 2.8961,10.2982 L 2.8943,10.292 L 2.8925,10.2858 L 2.8908,10.2796 L 2.889,10.2734 L 2.8872,10.2672 L 2.8854,10.261 L 2.8837,10.2548 L 2.8819,10.2486 L 2.8801,10.2424 L 2.8783,10.2362 L 2.8766,10.23 L 2.8748,10.2238 L 2.873,10.2176 L 2.8712,10.2114 L 2.8695,10.2052 L 2.8677,10.199 L 2.8659,10.1928 L 2.8641,10.1866 L 2.8624,10.1804 L 2.8606,10.1742 L 2.8588,10.168 L 2.857,10.1619 L 2.8553,10.1557" />
      <path d="M 0.0547,6.3651 L 0.0547,6.4233 L 0.0547,6.4814 L 0.0547,6.5395 L 0.0547,6.5976 L 0.0547,6.6557 L 0.0547,6.7138 L 0.0547,6.7719 L 0.0547,6.83 L 0.0547,6.8882 L 0.0547,6.9463 L 0.0547,7.0044 L 0.0547,7.0625 L 0.0547,7.1206 L 0.0547,7.1787 L 0.0547,7.2368 L 0.0547,7.2949 L 0.0547,7.3531 L 0.0547,7.4112 L 0.0547,7.4693 L 0.0547,7.5274 L 0.0547,7.5855 L 0.0547,7.6436 L 0.0547,7.7017 L 0.0547,7.7598 L 0.0547,7.818 L 0.0547,7.8761 L 0.0547,7.9342 L 0.0547,7.9923 L 0.0547,8.0504 L 0.0547,8.1085 L 0.0547,8.1666 L 0.0547,8.2247 L 0.0547,8.2829 L 0.0547,8.341 L 0.0547,8.3991 L 0.0547,8.4572 L 0.0547,8.5153 L 0.0547,8.5734 L 0.0547,8.6315 L 0.0547,8.6896 L 0.0547,8.7478 L 0.0547,8.8059 L 0.0547,8.864 L 0.0547,8.9221 L 0.0547,8.9802 L 0.0547,9.0383 L 0.0547,9.0964 L 0.0547,9.1546 L 0.0547,9.2127 L 0.0547,9.2708 L 0.0546,9.3289 L 0.0546,9.387 L 0.0546,9.4451 L 0.0546,9.5032 L 0.0546,9.5613 L 0.0546,9.6195 L 0.0546,9.6776 L 0.0546,9.7357 L 0.0546,9.7938 L 0.0546,9.8519 L 0.0546,9.91 L 0.0546,9.9681 L 0.0546,10.0262 L 0.0546,10.0844 L 0.0546,10.1425 L 0.0546,10.2006 L 0.0546,10.2587 L 0.0546,10.3168 L 0.0546,10.3749 L 0.0546,10.433 L 0.0546,10.4911 L 0.0546,10.5493" />
      <path d="M 1.7019,6.1336 L 1.7179,6.1895 L 1.7339,6.2454 L 1.7499,6.3012 L 1.766,6.3571 L 1.782,6.4129 L 1.798,6.4688 L 1.814,6.5247 L 1.83,6.5805 L 1.8461,6.6364 L 1.8621,6.6923 L 1.8781,6.7481 L 1.8941,6.804 L 1.9101,6.8598 L 1.9262,6.9157 L 1.9422,6.9716 L 1.9582,7.0274 L 1.9742,7.0833 L 1.9902,7.1391 L 2.0062,7.195 L 2.0223,7.2509 L 2.0383,7.3067 L 2.0543,7.3626 L 2.0703,7.4185 L 2.0863,7.4743 L 2.1024,7.5302 L 2.1184,7.586 L 2.1344,7.6419 L 2.1504,7.6978 L 2.1664,7.7536 L 2.1825,7.8095 L 2.1985,7.8653 L 2.2145,7.9212 L 2.2305,7.9771 L 2.2465,8.0329 L 2.2626,8.0888 L 2.2786,8.1446 L 2.2946,8.2005 L 2.3106,8.2564 L 2.3266,8.3122 L 2.3426,8.3681 L 2.3587,8.424 L 2.3747,8.4798 L 2.3907,8.5357 L 2.4067,8.5915 L 2.4227,8.6474 L 2.4388,8.7033 L 2.4548,8.7591 L 2.4708,8.815 L 2.4868,8.8708 L 2.5028,8.9267 L 2.5189,8.9826 L 2.5349,9.0384 L 2.5509,9.0943 L 2.5669,9.1502 L 2.5829,9.206 L 2.599,9.2619 L 2.615,9.3177 L 2.631,9.3736 L 2.647,9.4295 L 2.663,9.4853 L 2.679,9.5412 L 2.6951,9.597 L 2.7111,9.6529 L 2.7271,9.7088 L 2.7431,9.7646 L 2.7591,9.8205 L 2.7752,9.8763 L 2.7912,9.9322 L 2.8072,9.9881 L 2.8232,10.0439 L 2.8392,10.0998 L 2.8553,10.1557" />
      <path d="M 17.4656,6.8286 L 17.4656,6.6498 L 17.4657,6.4709 L 17.4657,6.292 L 17.4657,6.1131 L 17.4657,5.9343 L 17.4657,5.7554 L 17.4658,5.5765 L 17.4658,5.3976 L 17.4658,5.2188 L 17.4658,5.0399 L 17.4658,4.861 L 17.4658,4.6822 L 17.4658,4.5033 L 17.4658,4.3244 L 17.4658,4.1455 L 17.4658,3.9667 L 17.4658,3.7878 L 17.4658,3.6089 L 17.4659,3.43 L 17.4659,3.2512 L 17.4659,3.0723 L 17.4659,2.8934 L 17.4659,2.7146 L 17.4659,2.5357 L 17.4659,2.3568 L 17.4659,2.1779 L 17.4659,1.9991 L 17.4659,1.8202 L 17.4659,1.6413 L 17.4659,1.4624 L 17.4659,1.2836 L 17.4659,1.1047 L 17.4659,0.9258 L 17.4659,0.7469 L 17.4659,0.5681 L 17.4659,0.3892 L 17.4659,0.2103 L 17.4659,0.0315 L 17.4659,-0.1474 L 17.4659,-0.3263 L 17.4659,-0.5052 L 17.4659,-0.684 L 17.4659,-0.8629 L 17.4659,-1.0418 L 17.4659,-1.2207 L 17.4659,-1.3995 L 17.4659,-1.5784 L 17.4659,-1.7573 L 17.4659,-1.9362 L 17.4659,-2.115 L 17.4659,-2.2939 L 17.4659,-2.4728 L 17.4659,-2.6516 L 17.4658,-2.8305 L 17.4658,-3.0094 L 17.4658,-3.1883 L 17.4658,-3.3671 L 17.4658,-3.546 L 17.4658,-3.7249 L 17.4658,-3.9038 L 17.4658,-4.0826 L 17.4658,-4.2615 L 17.4658,-4.4404 L 17.4658,-4.6193 L 17.4658,-4.7981 L 17.4657,-4.977 L 17.4657,-5.1559 L 17.4657,-5.3347 L 17.4657,-5.5136 L 17.4657,-5.6925 L 17.4656,-5.8714 L 17.4656,-6.0502" />
      <path d="M 17.4656,-6.0502 L 17.4655,-5.8748 L 17.4655,-5.6994 L 17.4654,-5.524 L 17.4654,-5.3486 L 17.4654,-5.1732 L 17.4654,-4.9978 L 17.4654,-4.8224 L 17.4654,-4.647 L 17.4654,-4.4716 L 17.4653,-4.2962 L 17.4653,-4.1209 L 17.4653,-3.9455 L 17.4653,-3.7701 L 17.4653,-3.5947 L 17.4653,-3.4193 L 17.4653,-3.2439 L 17.4653,-3.0685 L 17.4653,-2.8931 L 17.4653,-2.7177 L 17.4653,-2.5423 L 17.4653,-2.3669 L 17.4653,-2.1915 L 17.4653,-2.0161 L 17.4653,-1.8407 L 17.4653,-1.6653 L 17.4653,-1.4899 L 17.4653,-1.3145 L 17.4652,-1.1391 L 17.4652,-0.9637 L 17.4652,-0.7883 L 17.4652,-0.6129 L 17.4652,-0.4375 L 17.4652,-0.2621 L 17.4652,-0.0867 L 17.4652,0.0887 L 17.4652,0.2641 L 17.4652,0.4395 L 17.4652,0.6149 L 17.4652,0.7903 L 17.4652,0.9657 L 17.4652,1.1411 L 17.4652,1.3165 L 17.4652,1.4919 L 17.4652,1.6673 L 17.4652,1.8427 L 17.4653,2.0181 L 17.4653,2.1935 L 17.4653,2.3689 L 17.4653,2.5443 L 17.4653,2.7197 L 17.4653,2.8951 L 17.4653,3.0705 L 17.4653,3.2459 L 17.4653,3.4213 L 17.4653,3.5967 L 17.4653,3.7721 L 17.4653,3.9475 L 17.4653,4.1229 L 17.4653,4.2983 L 17.4653,4.4737 L 17.4653,4.6491 L 17.4653,4.8245 L 17.4653,4.9999 L 17.4653,5.1753 L 17.4654,5.3507 L 17.4654,5.5261 L 17.4654,5.7015 L 17.4654,5.8769 L 17.4654,6.0523 L 17.4654,6.2277 L 17.4654,6.4031 L 17.4655,6.5785" />
      <path d="M 17.4656,6.8286 L 17.4645,6.8283 L 17.4634,6.8279 L 17.4624,6.8276 L 17.4613,6.8273 L 17.4603,6.8269 L 17.4592,6.8266 L 17.4581,6.8262 L 17.4571,6.8259 L 17.456,6.8255 L 17.455,6.8252 L 17.4539,6.8248 L 17.4529,6.8245 L 17.4518,6.8242 L 17.4507,6.8238 L 17.4497,6.8235 L 17.4486,6.8231 L 17.4476,6.8228 L 17.4465,6.8224 L 17.4454,6.8221 L 17.4444,6.8218 L 17.4433,6.8214 L 17.4423,6.8211 L 17.4412,6.8207 L 17.4401,6.8204 L 17.4391,6.82 L 17.438,6.8197 L 17.437,6.8193 L 17.4359,6.819 L 17.4348,6.8187 L 17.4338,6.8183 L 17.4327,6.818 L 17.4317,6.8176 L 17.4306,6.8173 L 17.4295,6.8169 L 17.4285,6.8166 L 17.4274,6.8162 L 17.4264,6.8159 L 17.4253,6.8156 L 17.4242,6.8152 L 17.4232,6.8149 L 17.4221,6.8145 L 17.4211,6.8142 L 17.42,6.8138 L 17.419,6.8135 L 17.4179,6.8131 L 17.4168,6.8128 L 17.4158,6.8125 L 17.4147,6.8121 L 17.4137,6.8118 L 17.4126,6.8114 L 17.4115,6.8111 L 17.4105,6.8107 L 17.4094,6.8104 L 17.4084,6.81 L 17.4073,6.8097 L 17.4062,6.8094 L 17.4052,6.809 L 17.4041,6.8087 L 17.4031,6.8083 L 17.402,6.808 L 17.4009,6.8076 L 17.3999,6.8073 L 17.3988,6.807 L 17.3978,6.8066 L 17.3967,6.8063 L 17.3956,6.8059 L 17.3946,6.8056 L 17.3935,6.8052 L 17.3925,6.8049 L 17.3914,6.8045 L 17.3903,6.8042 L 17.3893,6.8039" />
      <path d="M 16.1059,-10.2349 L 16.1058,-9.9455 L 16.1057,-9.6561 L 16.1057,-9.3667 L 16.1056,-9.0774 L 16.1056,-8.788 L 16.1056,-8.4986 L 16.1056,-8.2092 L 16.1056,-7.9198 L 16.1055,-7.6305 L 16.1055,-7.3411 L 16.1055,-7.0517 L 16.1055,-6.7623 L 16.1055,-6.4729 L 16.1055,-6.1835 L 16.1055,-5.8942 L 16.1054,-5.6048 L 16.1054,-5.3154 L 16.1054,-5.026 L 16.1054,-4.7366 L 16.1054,-4.4473 L 16.1054,-4.1579 L 16.1054,-3.8685 L 16.1054,-3.5791 L 16.1054,-3.2897 L 16.1054,-3.0003 L 16.1054,-2.711 L 16.1054,-2.4216 L 16.1054,-2.1322 L 16.1054,-1.8428 L 16.1054,-1.5534 L 16.1054,-1.2641 L 16.1054,-0.9747 L 16.1054,-0.6853 L 16.1054,-0.3959 L 16.1054,-0.1065 L 16.1054,0.1828 L 16.1054,0.4722 L 16.1054,0.7616 L 16.1054,1.051 L 16.1054,1.3404 L 16.1054,1.6298 L 16.1054,1.9191 L 16.1054,2.2085 L 16.1054,2.4979 L 16.1054,2.7873 L 16.1054,3.0767 L 16.1054,3.366 L 16.1054,3.6554 L 16.1054,3.9448 L 16.1054,4.2342 L 16.1054,4.5236 L 16.1054,4.813 L 16.1054,5.1023 L 16.1054,5.3917 L 16.1054,5.6811 L 16.1054,5.9705 L 16.1054,6.2599 L 16.1055,6.5492 L 16.1055,6.8386 L 16.1055,7.128 L 16.1055,7.4174 L 16.1055,7.7068 L 16.1055,7.9962 L 16.1055,8.2855 L 16.1055,8.5749 L 16.1056,8.8643 L 16.1056,9.1537 L 16.1056,9.4431 L 16.1056,9.7324 L 16.1057,10.0218 L 16.1057,10.3112 L 16.1057,10.6006" />
      <path d="M 17.4656,6.8286 L 17.4467,6.8868 L 17.4278,6.9449 L 17.4089,7.003 L 17.39,7.0611 L 17.3711,7.1192 L 17.3523,7.1774 L 17.3334,7.2355 L 17.3145,7.2936 L 17.2956,7.3517 L 17.2767,7.4098 L 17.2578,7.468 L 17.239,7.5261 L 17.2201,7.5842 L 17.2012,7.6423 L 17.1823,7.7004 L 17.1634,7.7586 L 17.1445,7.8167 L 17.1256,7.8748 L 17.1068,7.9329 L 17.0879,7.991 L 17.069,8.0492 L 17.0501,8.1073 L 17.0312,8.1654 L 17.0123,8.2235 L 16.9935,8.2816 L 16.9746,8.3398 L 16.9557,8.3979 L 16.9368,8.456 L 16.9179,8.5141 L 16.899,8.5722 L 16.8801,8.6304 L 16.8613,8.6885 L 16.8424,8.7466 L 16.8235,8.8047 L 16.8046,8.8628 L 16.7857,8.921 L 16.7668,8.9791 L 16.748,9.0372 L 16.7291,9.0953 L 16.7102,9.1534 L 16.6913,9.2116 L 16.6724,9.2697 L 16.6535,9.3278 L 16.6347,9.3859 L 16.6158,9.444 L 16.5969,9.5022 L 16.578,9.5603 L 16.5591,9.6184 L 16.5402,9.6765 L 16.5213,9.7346 L 16.5025,9.7928 L 16.4836,9.8509 L 16.4647,9.909 L 16.4458,9.9671 L 16.4269,10.0252 L 16.408,10.0834 L 16.3892,10.1415 L 16.3703,10.1996 L 16.3514,10.2577 L 16.3325,10.3158 L 16.3136,10.374 L 16.2947,10.4321 L 16.2758,10.4902 L 16.257,10.5483 L 16.2381,10.6064 L 16.2192,10.6646 L 16.2003,10.7227 L 16.1814,10.7808 L 16.1625,10.8389 L 16.1437,10.897 L 16.1248,10.9552 L 16.1059,11.0133" />
      <path d="M 17.4655,6.5785 L 17.4466,6.6344 L 17.4277,6.6902 L 17.4088,6.7461 L 17.3899,6.8019 L 17.371,6.8578 L 17.3522,6.9137 L 17.3333,6.9695 L 17.3144,7.0254 L 17.2955,7.0813 L 17.2766,7.1371 L 17.2577,7.193 L 17.2389,7.2488 L 17.22,7.3047 L 17.2011,7.3606 L 17.1822,7.4164 L 17.1633,7.4723 L 17.1444,7.5282 L 17.1255,7.584 L 17.1067,7.6399 L 17.0878,7.6957 L 17.0689,7.7516 L 17.05,7.8075 L 17.0311,7.8633 L 17.0122,7.9192 L 16.9933,7.9751 L 16.9745,8.0309 L 16.9556,8.0868 L 16.9367,8.1426 L 16.9178,8.1985 L 16.8989,8.2544 L 16.88,8.3102 L 16.8611,8.3661 L 16.8423,8.422 L 16.8234,8.4778 L 16.8045,8.5337 L 16.7856,8.5895 L 16.7667,8.6454 L 16.7478,8.7013 L 16.729,8.7571 L 16.7101,8.813 L 16.6912,8.8689 L 16.6723,8.9247 L 16.6534,8.9806 L 16.6345,9.0364 L 16.6156,9.0923 L 16.5968,9.1482 L 16.5779,9.204 L 16.559,9.2599 L 16.5401,9.3158 L 16.5212,9.3716 L 16.5023,9.4275 L 16.4834,9.4833 L 16.4646,9.5392 L 16.4457,9.5951 L 16.4268,9.6509 L 16.4079,9.7068 L 16.389,9.7626 L 16.3701,9.8185 L 16.3513,9.8744 L 16.3324,9.9302 L 16.3135,9.9861 L 16.2946,10.042 L 16.2757,10.0978 L 16.2568,10.1537 L 16.2379,10.2095 L 16.2191,10.2654 L 16.2002,10.3213 L 16.1813,10.3771 L 16.1624,10.433 L 16.1435,10.4889 L 16.1246,10.5447 L 16.1057,10.6006" />
      <path d="M 14.6793,10.5498 L 14.6793,10.5443 L 14.6793,10.5388 L 14.6793,10.5333 L 14.6793,10.5278 L 14.6793,10.5224 L 14.6793,10.5169 L 14.6794,10.5114 L 14.6794,10.5059 L 14.6794,10.5004 L 14.6794,10.495 L 14.6794,10.4895 L 14.6794,10.484 L 14.6794,10.4785 L 14.6794,10.473 L 14.6794,10.4675 L 14.6794,10.4621 L 14.6794,10.4566 L 14.6794,10.4511 L 14.6794,10.4456 L 14.6794,10.4401 L 14.6794,10.4347 L 14.6794,10.4292 L 14.6794,10.4237 L 14.6794,10.4182 L 14.6794,10.4127 L 14.6794,10.4073 L 14.6794,10.4018 L 14.6794,10.3963 L 14.6794,10.3908 L 14.6794,10.3853 L 14.6794,10.3799 L 14.6794,10.3744 L 14.6794,10.3689 L 14.6794,10.3634 L 14.6794,10.3579 L 14.6794,10.3525 L 14.6794,10.347 L 14.6794,10.3415 L 14.6794,10.336 L 14.6794,10.3305 L 14.6794,10.3251 L 14.6794,10.3196 L 14.6794,10.3141 L 14.6794,10.3086 L 14.6794,10.3031 L 14.6794,10.2976 L 14.6794,10.2922 L 14.6794,10.2867 L 14.6794,10.2812 L 14.6794,10.2757 L 14.6794,10.2702 L 14.6794,10.2648 L 14.6794,10.2593 L 14.6794,10.2538 L 14.6794,10.2483 L 14.6794,10.2428 L 14.6794,10.2374 L 14.6794,10.2319 L 14.6794,10.2264 L 14.6794,10.2209 L 14.6794,10.2154 L 14.6794,10.21 L 14.6794,10.2045 L 14.6794,10.199 L 14.6794,10.1935 L 14.6794,10.188 L 14.6794,10.1826 L 14.6794,10.1771 L 14.6794,10.1716 L 14.6794,10.1661 L 14.6794,10.1606 L 14.6794,10.1552" />
      <path d="M 14.6793,-9.7714 L 14.6792,-9.4946 L 14.6791,-9.2179 L 14.6791,-8.9411 L 14.6791,-8.6643 L 14.679,-8.3876 L 14.679,-8.1108 L 14.679,-7.8341 L 14.679,-7.5573 L 14.679,-7.2806 L 14.679,-7.0038 L 14.6789,-6.727 L 14.6789,-6.4503 L 14.6789,-6.1735 L 14.6789,-5.8968 L 14.6789,-5.62 L 14.6789,-5.3433 L 14.6789,-5.0665 L 14.6789,-4.7898 L 14.6789,-4.513 L 14.6788,-4.2362 L 14.6788,-3.9595 L 14.6788,-3.6827 L 14.6788,-3.406 L 14.6788,-3.1292 L 14.6788,-2.8525 L 14.6788,-2.5757 L 14.6788,-2.299 L 14.6788,-2.0222 L 14.6788,-1.7454 L 14.6788,-1.4687 L 14.6788,-1.1919 L 14.6788,-0.9152 L 14.6788,-0.6384 L 14.6788,-0.3617 L 14.6788,-0.0849 L 14.6788,0.1919 L 14.6788,0.4686 L 14.6788,0.7454 L 14.6788,1.0221 L 14.6788,1.2989 L 14.6788,1.5756 L 14.6788,1.8524 L 14.6788,2.1291 L 14.6788,2.4059 L 14.6788,2.6827 L 14.6788,2.9594 L 14.6788,3.2362 L 14.6788,3.5129 L 14.6788,3.7897 L 14.6788,4.0664 L 14.6788,4.3432 L 14.6788,4.6199 L 14.6788,4.8967 L 14.6789,5.1735 L 14.6789,5.4502 L 14.6789,5.727 L 14.6789,6.0037 L 14.6789,6.2805 L 14.6789,6.5572 L 14.6789,6.834 L 14.6789,7.1108 L 14.6789,7.3875 L 14.6789,7.6643 L 14.679,7.941 L 14.679,8.2178 L 14.679,8.4945 L 14.679,8.7713 L 14.679,9.048 L 14.6791,9.3248 L 14.6791,9.6016 L 14.6791,9.8783 L 14.6792,10.1551" />
      <path d="M 16.1059,11.0133 L 16.0861,11.0068 L 16.0663,11.0004 L 16.0464,10.994 L 16.0266,10.9875 L 16.0068,10.9811 L 15.987,10.9747 L 15.9672,10.9682 L 15.9474,10.9618 L 15.9276,10.9553 L 15.9078,10.9489 L 15.8879,10.9425 L 15.8681,10.936 L 15.8483,10.9296 L 15.8285,10.9232 L 15.8087,10.9167 L 15.7889,10.9103 L 15.7691,10.9038 L 15.7492,10.8974 L 15.7294,10.891 L 15.7096,10.8845 L 15.6898,10.8781 L 15.67,10.8717 L 15.6502,10.8652 L 15.6304,10.8588 L 15.6105,10.8523 L 15.5907,10.8459 L 15.5709,10.8395 L 15.5511,10.833 L 15.5313,10.8266 L 15.5115,10.8201 L 15.4917,10.8137 L 15.4719,10.8073 L 15.452,10.8008 L 15.4322,10.7944 L 15.4124,10.788 L 15.3926,10.7815 L 15.3728,10.7751 L 15.353,10.7686 L 15.3332,10.7622 L 15.3133,10.7558 L 15.2935,10.7493 L 15.2737,10.7429 L 15.2539,10.7365 L 15.2341,10.73 L 15.2143,10.7236 L 15.1945,10.7171 L 15.1746,10.7107 L 15.1548,10.7043 L 15.135,10.6978 L 15.1152,10.6914 L 15.0954,10.685 L 15.0756,10.6785 L 15.0558,10.6721 L 15.036,10.6656 L 15.0161,10.6592 L 14.9963,10.6528 L 14.9765,10.6463 L 14.9567,10.6399 L 14.9369,10.6335 L 14.9171,10.627 L 14.8973,10.6206 L 14.8774,10.6141 L 14.8576,10.6077 L 14.8378,10.6013 L 14.818,10.5948 L 14.7982,10.5884 L 14.7784,10.5819 L 14.7586,10.5755 L 14.7387,10.5691 L 14.7189,10.5626 L 14.6991,10.5562 L 14.6793,10.5498" />
      <path d="M 16.1057,10.6006 L 16.0859,10.5944 L 16.0661,10.5882 L 16.0463,10.582 L 16.0265,10.5758 L 16.0067,10.5696 L 15.9869,10.5635 L 15.967,10.5573 L 15.9472,10.5511 L 15.9274,10.5449 L 15.9076,10.5387 L 15.8878,10.5325 L 15.868,10.5263 L 15.8482,10.5201 L 15.8284,10.514 L 15.8085,10.5078 L 15.7887,10.5016 L 15.7689,10.4954 L 15.7491,10.4892 L 15.7293,10.483 L 15.7095,10.4768 L 15.6897,10.4706 L 15.6698,10.4645 L 15.65,10.4583 L 15.6302,10.4521 L 15.6104,10.4459 L 15.5906,10.4397 L 15.5708,10.4335 L 15.551,10.4273 L 15.5311,10.4211 L 15.5113,10.415 L 15.4915,10.4088 L 15.4717,10.4026 L 15.4519,10.3964 L 15.4321,10.3902 L 15.4123,10.384 L 15.3925,10.3778 L 15.3726,10.3716 L 15.3528,10.3655 L 15.333,10.3593 L 15.3132,10.3531 L 15.2934,10.3469 L 15.2736,10.3407 L 15.2538,10.3345 L 15.2339,10.3283 L 15.2141,10.3221 L 15.1943,10.3159 L 15.1745,10.3098 L 15.1547,10.3036 L 15.1349,10.2974 L 15.1151,10.2912 L 15.0952,10.285 L 15.0754,10.2788 L 15.0556,10.2726 L 15.0358,10.2664 L 15.016,10.2603 L 14.9962,10.2541 L 14.9764,10.2479 L 14.9566,10.2417 L 14.9367,10.2355 L 14.9169,10.2293 L 14.8971,10.2231 L 14.8773,10.2169 L 14.8575,10.2108 L 14.8377,10.2046 L 14.8179,10.1984 L 14.798,10.1922 L 14.7782,10.186 L 14.7584,10.1798 L 14.7386,10.1736 L 14.7188,10.1674 L 14.699,10.1613 L 14.6792,10.1551" />
      <path d="M 14.7957,10.1915 L 14.7941,10.1964 L 14.7925,10.2014 L 14.7909,10.2064 L 14.7893,10.2114 L 14.7876,10.2163 L 14.786,10.2213 L 14.7844,10.2263 L 14.7828,10.2313 L 14.7812,10.2363 L 14.7796,10.2412 L 14.7779,10.2462 L 14.7763,10.2512 L 14.7747,10.2562 L 14.7731,10.2611 L 14.7715,10.2661 L 14.7699,10.2711 L 14.7682,10.2761 L 14.7666,10.281 L 14.765,10.286 L 14.7634,10.291 L 14.7618,10.296 L 14.7602,10.3009 L 14.7585,10.3059 L 14.7569,10.3109 L 14.7553,10.3159 L 14.7537,10.3208 L 14.7521,10.3258 L 14.7504,10.3308 L 14.7488,10.3358 L 14.7472,10.3408 L 14.7456,10.3457 L 14.744,10.3507 L 14.7424,10.3557 L 14.7407,10.3607 L 14.7391,10.3656 L 14.7375,10.3706 L 14.7359,10.3756 L 14.7343,10.3806 L 14.7327,10.3855 L 14.731,10.3905 L 14.7294,10.3955 L 14.7278,10.4005 L 14.7262,10.4054 L 14.7246,10.4104 L 14.723,10.4154 L 14.7213,10.4204 L 14.7197,10.4254 L 14.7181,10.4303 L 14.7165,10.4353 L 14.7149,10.4403 L 14.7133,10.4453 L 14.7116,10.4502 L 14.71,10.4552 L 14.7084,10.4602 L 14.7068,10.4652 L 14.7052,10.4701 L 14.7036,10.4751 L 14.7019,10.4801 L 14.7003,10.4851 L 14.6987,10.49 L 14.6971,10.495 L 14.6955,10.5 L 14.6939,10.505 L 14.6922,10.5099 L 14.6906,10.5149 L 14.689,10.5199 L 14.6874,10.5249 L 14.6858,10.5299 L 14.6842,10.5348 L 14.6825,10.5398 L 14.6809,10.5448 L 14.6793,10.5498" />
      <path d="M 17.4656,6.8286 L 17.4467,6.8868 L 17.4278,6.9449 L 17.4089,7.003 L 17.39,7.0611 L 17.3711,7.1192 L 17.3523,7.1774 L 17.3334,7.2355 L 17.3145,7.2936 L 17.2956,7.3517 L 17.2767,7.4098 L 17.2578,7.468 L 17.239,7.5261 L 17.2201,7.5842 L 17.2012,7.6423 L 17.1823,7.7004 L 17.1634,7.7586 L 17.1445,7.8167 L 17.1256,7.8748 L 17.1068,7.9329 L 17.0879,7.991 L 17.069,8.0492 L 17.0501,8.1073 L 17.0312,8.1654 L 17.0123,8.2235 L 16.9935,8.2816 L 16.9746,8.3398 L 16.9557,8.3979 L 16.9368,8.456 L 16.9179,8.5141 L 16.899,8.5722 L 16.8802,8.6304 L 16.8613,8.6885 L 16.8424,8.7466 L 16.8235,8.8047 L 16.8046,8.8628 L 16.7857,8.921 L 16.7668,8.9791 L 16.748,9.0372 L 16.7291,9.0953 L 16.7102,9.1534 L 16.6913,9.2116 L 16.6724,9.2697 L 16.6535,9.3278 L 16.6347,9.3859 L 16.6158,9.444 L 16.5969,9.5022 L 16.578,9.5603 L 16.5591,9.6184 L 16.5402,9.6765 L 16.5213,9.7346 L 16.5025,9.7928 L 16.4836,9.8509 L 16.4647,9.909 L 16.4458,9.9671 L 16.4269,10.0252 L 16.408,10.0834 L 16.3892,10.1415 L 16.3703,10.1996 L 16.3514,10.2577 L 16.3325,10.3158 L 16.3136,10.374 L 16.2947,10.4321 L 16.2759,10.4902 L 16.257,10.5483 L 16.2381,10.6064 L 16.2192,10.6646 L 16.2003,10.7227 L 16.1814,10.7808 L 16.1625,10.8389 L 16.1437,10.897 L 16.1248,10.9552 L 16.1059,11.0133" />
      <path d="M 17.4656,-6.0502 L 17.4467,-6.1084 L 17.4278,-6.1665 L 17.4089,-6.2246 L 17.39,-6.2827 L 17.3711,-6.3408 L 17.3523,-6.399 L 17.3334,-6.4571 L 17.3145,-6.5152 L 17.2956,-6.5733 L 17.2767,-6.6314 L 17.2578,-6.6896 L 17.239,-6.7477 L 17.2201,-6.8058 L 17.2012,-6.8639 L 17.1823,-6.922 L 17.1634,-6.9802 L 17.1445,-7.0383 L 17.1256,-7.0964 L 17.1068,-7.1545 L 17.0879,-7.2126 L 17.069,-7.2708 L 17.0501,-7.3289 L 17.0312,-7.387 L 17.0123,-7.4451 L 16.9935,-7.5032 L 16.9746,-7.5614 L 16.9557,-7.6195 L 16.9368,-7.6776 L 16.9179,-7.7357 L 16.899,-7.7938 L 16.8801,-7.852 L 16.8613,-7.9101 L 16.8424,-7.9682 L 16.8235,-8.0263 L 16.8046,-8.0844 L 16.7857,-8.1426 L 16.7668,-8.2007 L 16.748,-8.2588 L 16.7291,-8.3169 L 16.7102,-8.375 L 16.6913,-8.4332 L 16.6724,-8.4913 L 16.6535,-8.5494 L 16.6347,-8.6075 L 16.6158,-8.6656 L 16.5969,-8.7238 L 16.578,-8.7819 L 16.5591,-8.84 L 16.5402,-8.8981 L 16.5213,-8.9562 L 16.5025,-9.0144 L 16.4836,-9.0725 L 16.4647,-9.1306 L 16.4458,-9.1887 L 16.4269,-9.2468 L 16.408,-9.305 L 16.3892,-9.3631 L 16.3703,-9.4212 L 16.3514,-9.4793 L 16.3325,-9.5374 L 16.3136,-9.5956 L 16.2947,-9.6537 L 16.2758,-9.7118 L 16.257,-9.7699 L 16.2381,-9.828 L 16.2192,-9.8862 L 16.2003,-9.9443 L 16.1814,-10.0024 L 16.1625,-10.0605 L 16.1437,-10.1186 L 16.1248,-10.1768 L 16.1059,-10.2349" />
      <path d="M 14.6793,10.5498 L 14.6991,10.5562 L 14.7189,10.5626 L 14.7387,10.5691 L 14.7586,10.5755 L 14.7784,10.5819 L 14.7982,10.5884 L 14.818,10.5948 L 14.8378,10.6013 L 14.8576,10.6077 L 14.8774,10.6141 L 14.8973,10.6206 L 14.9171,10.627 L 14.9369,10.6335 L 14.9567,10.6399 L 14.9765,10.6463 L 14.9963,10.6528 L 15.0161,10.6592 L 15.036,10.6656 L 15.0558,10.6721 L 15.0756,10.6785 L 15.0954,10.685 L 15.1152,10.6914 L 15.135,10.6978 L 15.1548,10.7043 L 15.1746,10.7107 L 15.1945,10.7171 L 15.2143,10.7236 L 15.2341,10.73 L 15.2539,10.7365 L 15.2737,10.7429 L 15.2935,10.7493 L 15.3133,10.7558 L 15.3332,10.7622 L 15.353,10.7686 L 15.3728,10.7751 L 15.3926,10.7815 L 15.4124,10.788 L 15.4322,10.7944 L 15.452,10.8008 L 15.4719,10.8073 L 15.4917,10.8137 L 15.5115,10.8201 L 15.5313,10.8266 L 15.5511,10.833 L 15.5709,10.8395 L 15.5907,10.8459 L 15.6105,10.8523 L 15.6304,10.8588 L 15.6502,10.8652 L 15.67,10.8717 L 15.6898,10.8781 L 15.7096,10.8845 L 15.7294,10.891 L 15.7492,10.8974 L 15.7691,10.9038 L 15.7889,10.9103 L 15.8087,10.9167 L 15.8285,10.9232 L 15.8483,10.9296 L 15.8681,10.936 L 15.8879,10.9425 L 15.9078,10.9489 L 15.9276,10.9553 L 15.9474,10.9618 L 15.9672,10.9682 L 15.987,10.9747 L 16.0068,10.9811 L 16.0266,10.9875 L 16.0464,10.994 L 16.0663,11.0004 L 16.0861,11.0068 L 16.1059,11.0133" />
      <path d="M 14.6793,-9.7714 L 14.6991,-9.7778 L 14.7189,-9.7842 L 14.7387,-9.7907 L 14.7586,-9.7971 L 14.7784,-9.8036 L 14.7982,-9.81 L 14.818,-9.8164 L 14.8378,-9.8229 L 14.8576,-9.8293 L 14.8774,-9.8357 L 14.8973,-9.8422 L 14.9171,-9.8486 L 14.9369,-9.8551 L 14.9567,-9.8615 L 14.9765,-9.8679 L 14.9963,-9.8744 L 15.0161,-9.8808 L 15.036,-9.8872 L 15.0558,-9.8937 L 15.0756,-9.9001 L 15.0954,-9.9066 L 15.1152,-9.913 L 15.135,-9.9194 L 15.1548,-9.9259 L 15.1746,-9.9323 L 15.1945,-9.9387 L 15.2143,-9.9452 L 15.2341,-9.9516 L 15.2539,-9.9581 L 15.2737,-9.9645 L 15.2935,-9.9709 L 15.3133,-9.9774 L 15.3332,-9.9838 L 15.353,-9.9903 L 15.3728,-9.9967 L 15.3926,-10.0031 L 15.4124,-10.0096 L 15.4322,-10.016 L 15.452,-10.0224 L 15.4719,-10.0289 L 15.4917,-10.0353 L 15.5115,-10.0418 L 15.5313,-10.0482 L 15.5511,-10.0546 L 15.5709,-10.0611 L 15.5907,-10.0675 L 15.6105,-10.0739 L 15.6304,-10.0804 L 15.6502,-10.0868 L 15.67,-10.0933 L 15.6898,-10.0997 L 15.7096,-10.1061 L 15.7294,-10.1126 L 15.7492,-10.119 L 15.7691,-10.1254 L 15.7889,-10.1319 L 15.8087,-10.1383 L 15.8285,-10.1448 L 15.8483,-10.1512 L 15.8681,-10.1576 L 15.8879,-10.1641 L 15.9078,-10.1705 L 15.9276,-10.1769 L 15.9474,-10.1834 L 15.9672,-10.1898 L 15.987,-10.1963 L 16.0068,-10.2027 L 16.0266,-10.2091 L 16.0464,-10.2156 L 16.0663,-10.222 L 16.0861,-10.2285 L 16.1059,-10.2349" />
    </g>
    <g fill="none" stroke="rgb(110,110,110)" stroke-width="0.3" id="Hidden" stroke-dasharray="3.6 0.9">
      <path d="M 0.0548,6.8292 L -0.4816,6.8068 L -1.0142,6.7399 L -1.5394,6.6288 L -2.0535,6.4743 L -2.553,6.2776 L -3.0343,6.0399 L -3.4942,5.763 L -3.9294,5.4487 L -4.3369,5.0993 L -4.7139,4.7171 L -5.0578,4.3049 L -5.3661,3.8655 L -5.6368,3.4019 L -5.8679,2.9174 L -6.0578,2.4153 L -6.2053,1.8991 L -6.3092,1.3725 L -6.369,0.839 L -6.3841,0.3024 L -6.3544,-0.2336 L -6.2802,-0.7653 L -6.162,-1.2889 L -6.0006,-1.8009 L -5.7971,-2.2976 L -5.5529,-2.7757 L -5.2697,-3.2318 L -4.9496,-3.6627 L -4.5947,-4.0654 L -4.2074,-4.4372 L -3.7906,-4.7754 L -3.347,-5.0778 L -2.8798,-5.3421 L -2.3922,-5.5666 L -1.8876,-5.7497 L -1.3694,-5.8902 L -0.8414,-5.987 L -0.3072,-6.0395 L 0.2296,-6.0473 L 0.7651,-6.0104 L 1.2957,-5.929 L 1.8177,-5.8036 L 2.3275,-5.6353 L 2.8214,-5.425 L 3.2961,-5.1744 L 3.7483,-4.8851 L 4.1748,-4.5591 L 4.5727,-4.1988 L 4.9392,-3.8065 L 5.2717,-3.3851 L 5.568,-2.9375 L 5.826,-2.4667 L 6.0439,-1.9761 L 6.2201,-1.469 L 6.3535,-0.9491 L 6.4431,-0.4198 L 6.4884,0.1151 L 6.4889,0.652 L 6.4447,1.1869 L 6.3561,1.7164 L 6.2237,2.2366 L 6.0484,2.744 L 5.8315,3.2351 L 5.5745,3.7063 L 5.279,4.1546 L 4.9473,4.5766 L 4.5816,4.9696 L 4.1844,5.3307 L 3.7585,5.6575 L 3.3069,5.9477 L 2.8327,6.1992 L 2.3391,6.4104 L 1.8297,6.5798" />
      <path d="M 0.0548,6.8292 L 0.0548,6.8228 L 0.0548,6.8163 L 0.0548,6.8099 L 0.0548,6.8034 L 0.0548,6.797 L 0.0548,6.7905 L 0.0548,6.7841 L 0.0548,6.7777 L 0.0548,6.7712 L 0.0548,6.7648 L 0.0548,6.7583 L 0.0548,6.7519 L 0.0548,6.7454 L 0.0548,6.739 L 0.0548,6.7325 L 0.0548,6.7261 L 0.0548,6.7196 L 0.0548,6.7132 L 0.0548,6.7068 L 0.0548,6.7003 L 0.0548,6.6939 L 0.0548,6.6874 L 0.0548,6.681 L 0.0548,6.6745 L 0.0548,6.6681 L 0.0548,6.6616 L 0.0548,6.6552 L 0.0547,6.6487 L 0.0547,6.6423 L 0.0547,6.6359 L 0.0547,6.6294 L 0.0547,6.623 L 0.0547,6.6165 L 0.0547,6.6101 L 0.0547,6.6036 L 0.0547,6.5972 L 0.0547,6.5907 L 0.0547,6.5843 L 0.0547,6.5778 L 0.0547,6.5714 L 0.0547,6.565 L 0.0547,6.5585 L 0.0547,6.5521 L 0.0547,6.5456 L 0.0547,6.5392 L 0.0547,6.5327 L 0.0547,6.5263 L 0.0547,6.5198 L 0.0547,6.5134 L 0.0547,6.5069 L 0.0547,6.5005 L 0.0547,6.494 L 0.0547,6.4876 L 0.0547,6.4812 L 0.0547,6.4747 L 0.0547,6.4683 L 0.0547,6.4618 L 0.0547,6.4554 L 0.0547,6.4489 L 0.0547,6.4425 L 0.0547,6.436 L 0.0547,6.4296 L 0.0547,6.4231 L 0.0547,6.4167 L 0.0547,6.4103 L 0.0547,6.4038 L 0.0547,6.3974 L 0.0547,6.3909 L 0.0547,6.3845 L 0.0547,6.378 L 0.0547,6.3716 L 0.0547,6.3651" />
      <path d="M 1.8297,6.5798 L 1.828,6.5736 L 1.8262,6.5674 L 1.8244,6.5612 L 1.8226,6.555 L 1.8209,6.5488 L 1.8191,6.5426 L 1.8173,6.5364 L 1.8155,6.5302 L 1.8137,6.524 L 1.812,6.5178 L 1.8102,6.5116 L 1.8084,6.5054 L 1.8066,6.4992 L 1.8049,6.493 L 1.8031,6.4868 L 1.8013,6.4806 L 1.7995,6.4744 L 1.7978,6.4682 L 1.796,6.462 L 1.7942,6.4558 L 1.7924,6.4496 L 1.7907,6.4435 L 1.7889,6.4373 L 1.7871,6.4311 L 1.7853,6.4249 L 1.7836,6.4187 L 1.7818,6.4125 L 1.78,6.4063 L 1.7782,6.4001 L 1.7765,6.3939 L 1.7747,6.3877 L 1.7729,6.3815 L 1.7711,6.3753 L 1.7694,6.3691 L 1.7676,6.3629 L 1.7658,6.3567 L 1.764,6.3505 L 1.7623,6.3443 L 1.7605,6.3381 L 1.7587,6.3319 L 1.7569,6.3257 L 1.7552,6.3195 L 1.7534,6.3133 L 1.7516,6.3071 L 1.7498,6.3009 L 1.7481,6.2947 L 1.7463,6.2885 L 1.7445,6.2823 L 1.7427,6.2762 L 1.741,6.27 L 1.7392,6.2638 L 1.7374,6.2576 L 1.7356,6.2514 L 1.7338,6.2452 L 1.7321,6.239 L 1.7303,6.2328 L 1.7285,6.2266 L 1.7267,6.2204 L 1.725,6.2142 L 1.7232,6.208 L 1.7214,6.2018 L 1.7196,6.1956 L 1.7179,6.1894 L 1.7161,6.1832 L 1.7143,6.177 L 1.7125,6.1708 L 1.7108,6.1646 L 1.709,6.1584 L 1.7072,6.1522 L 1.7054,6.146 L 1.7037,6.1398 L 1.7019,6.1336" />
      <path d="M 0.0548,6.8292 L 0.0548,6.8873 L 0.0548,6.9454 L 0.0548,7.0036 L 0.0548,7.0617 L 0.0548,7.1198 L 0.0548,7.1779 L 0.0548,7.236 L 0.0548,7.2941 L 0.0548,7.3522 L 0.0548,7.4103 L 0.0548,7.4685 L 0.0548,7.5266 L 0.0548,7.5847 L 0.0548,7.6428 L 0.0548,7.7009 L 0.0548,7.759 L 0.0548,7.8171 L 0.0548,7.8752 L 0.0548,7.9334 L 0.0548,7.9915 L 0.0548,8.0496 L 0.0548,8.1077 L 0.0548,8.1658 L 0.0548,8.2239 L 0.0548,8.282 L 0.0548,8.3402 L 0.0548,8.3983 L 0.0548,8.4564 L 0.0548,8.5145 L 0.0547,8.5726 L 0.0547,8.6307 L 0.0547,8.6888 L 0.0547,8.7469 L 0.0547,8.8051 L 0.0547,8.8632 L 0.0547,8.9213 L 0.0547,8.9794 L 0.0547,9.0375 L 0.0547,9.0956 L 0.0547,9.1537 L 0.0547,9.2118 L 0.0547,9.27 L 0.0547,9.3281 L 0.0547,9.3862 L 0.0547,9.4443 L 0.0547,9.5024 L 0.0547,9.5605 L 0.0547,9.6186 L 0.0547,9.6767 L 0.0547,9.7349 L 0.0547,9.793 L 0.0547,9.8511 L 0.0547,9.9092 L 0.0547,9.9673 L 0.0547,10.0254 L 0.0547,10.0835 L 0.0547,10.1416 L 0.0547,10.1998 L 0.0547,10.2579 L 0.0547,10.316 L 0.0547,10.3741 L 0.0547,10.4322 L 0.0547,10.4903 L 0.0547,10.5484 L 0.0547,10.6065 L 0.0547,10.6647 L 0.0547,10.7228 L 0.0547,10.7809 L 0.0547,10.839 L 0.0547,10.8971 L 0.0547,10.9552 L 0.0547,11.0133" />
      <path d="M 1.8297,6.5798 L 1.8457,6.6356 L 1.8618,6.6915 L 1.8778,6.7473 L 1.8938,6.8032 L 1.9098,6.8591 L 1.9258,6.9149 L 1.9419,6.9708 L 1.9579,7.0267 L 1.9739,7.0825 L 1.9899,7.1384 L 2.0059,7.1942 L 2.022,7.2501 L 2.038,7.306 L 2.054,7.3618 L 2.07,7.4177 L 2.086,7.4735 L 2.1021,7.5294 L 2.1181,7.5853 L 2.1341,7.6411 L 2.1501,7.697 L 2.1661,7.7529 L 2.1821,7.8087 L 2.1982,7.8646 L 2.2142,7.9204 L 2.2302,7.9763 L 2.2462,8.0322 L 2.2622,8.088 L 2.2783,8.1439 L 2.2943,8.1997 L 2.3103,8.2556 L 2.3263,8.3115 L 2.3423,8.3673 L 2.3584,8.4232 L 2.3744,8.479 L 2.3904,8.5349 L 2.4064,8.5908 L 2.4224,8.6466 L 2.4385,8.7025 L 2.4545,8.7584 L 2.4705,8.8142 L 2.4865,8.8701 L 2.5025,8.9259 L 2.5185,8.9818 L 2.5346,9.0377 L 2.5506,9.0935 L 2.5666,9.1494 L 2.5826,9.2052 L 2.5986,9.2611 L 2.6147,9.317 L 2.6307,9.3728 L 2.6467,9.4287 L 2.6627,9.4846 L 2.6787,9.5404 L 2.6948,9.5963 L 2.7108,9.6521 L 2.7268,9.708 L 2.7428,9.7639 L 2.7588,9.8197 L 2.7749,9.8756 L 2.7909,9.9314 L 2.8069,9.9873 L 2.8229,10.0432 L 2.8389,10.099 L 2.8549,10.1549 L 2.871,10.2107 L 2.887,10.2666 L 2.903,10.3225 L 2.919,10.3783 L 2.935,10.4342 L 2.9511,10.4901 L 2.9671,10.5459 L 2.9831,10.6018" />
      <path d="M 16.039,6.3651 L 16.0391,6.1991 L 16.0391,6.0331 L 16.0391,5.8671 L 16.0391,5.7011 L 16.0391,5.5351 L 16.0391,5.3691 L 16.0392,5.2031 L 16.0392,5.0371 L 16.0392,4.8711 L 16.0392,4.7051 L 16.0392,4.5391 L 16.0392,4.3731 L 16.0392,4.2071 L 16.0392,4.0411 L 16.0392,3.8751 L 16.0392,3.7091 L 16.0392,3.5432 L 16.0392,3.3772 L 16.0392,3.2112 L 16.0393,3.0452 L 16.0393,2.8792 L 16.0393,2.7132 L 16.0393,2.5472 L 16.0393,2.3812 L 16.0393,2.2152 L 16.0393,2.0492 L 16.0393,1.8832 L 16.0393,1.7172 L 16.0393,1.5512 L 16.0393,1.3852 L 16.0393,1.2192 L 16.0393,1.0532 L 16.0393,0.8872 L 16.0393,0.7212 L 16.0393,0.5552 L 16.0393,0.3892 L 16.0393,0.2232 L 16.0393,0.0572 L 16.0393,-0.1088 L 16.0393,-0.2748 L 16.0393,-0.4408 L 16.0393,-0.6068 L 16.0393,-0.7728 L 16.0393,-0.9388 L 16.0393,-1.1048 L 16.0393,-1.2708 L 16.0393,-1.4368 L 16.0393,-1.6028 L 16.0393,-1.7688 L 16.0393,-1.9348 L 16.0393,-2.1008 L 16.0393,-2.2668 L 16.0392,-2.4328 L 16.0392,-2.5988 L 16.0392,-2.7648 L 16.0392,-2.9308 L 16.0392,-3.0968 L 16.0392,-3.2627 L 16.0392,-3.4287 L 16.0392,-3.5947 L 16.0392,-3.7607 L 16.0392,-3.9267 L 16.0392,-4.0927 L 16.0392,-4.2587 L 16.0392,-4.4247 L 16.0391,-4.5907 L 16.0391,-4.7567 L 16.0391,-4.9227 L 16.0391,-5.0887 L 16.0391,-5.2547 L 16.0391,-5.4207 L 16.039,-5.5867" />
      <path d="M 16.039,-5.5867 L 16.0389,-5.4239 L 16.0389,-5.2612 L 16.0389,-5.0984 L 16.0388,-4.9356 L 16.0388,-4.7728 L 16.0388,-4.6101 L 16.0388,-4.4473 L 16.0388,-4.2845 L 16.0388,-4.1218 L 16.0388,-3.959 L 16.0388,-3.7962 L 16.0388,-3.6334 L 16.0388,-3.4707 L 16.0387,-3.3079 L 16.0387,-3.1451 L 16.0387,-2.9823 L 16.0387,-2.8196 L 16.0387,-2.6568 L 16.0387,-2.494 L 16.0387,-2.3312 L 16.0387,-2.1685 L 16.0387,-2.0057 L 16.0387,-1.8429 L 16.0387,-1.6802 L 16.0387,-1.5174 L 16.0387,-1.3546 L 16.0387,-1.1918 L 16.0387,-1.0291 L 16.0387,-0.8663 L 16.0387,-0.7035 L 16.0387,-0.5407 L 16.0387,-0.378 L 16.0387,-0.2152 L 16.0387,-0.0524 L 16.0387,0.1104 L 16.0387,0.2731 L 16.0387,0.4359 L 16.0387,0.5987 L 16.0387,0.7614 L 16.0387,0.9242 L 16.0387,1.087 L 16.0387,1.2498 L 16.0387,1.4125 L 16.0387,1.5753 L 16.0387,1.7381 L 16.0387,1.9009 L 16.0387,2.0636 L 16.0387,2.2264 L 16.0387,2.3892 L 16.0387,2.552 L 16.0387,2.7147 L 16.0387,2.8775 L 16.0387,3.0403 L 16.0387,3.2031 L 16.0387,3.3658 L 16.0387,3.5286 L 16.0387,3.6914 L 16.0387,3.8541 L 16.0387,4.0169 L 16.0387,4.1797 L 16.0388,4.3425 L 16.0388,4.5052 L 16.0388,4.668 L 16.0388,4.8308 L 16.0388,4.9936 L 16.0388,5.1563 L 16.0388,5.3191 L 16.0388,5.4819 L 16.0388,5.6447 L 16.0389,5.8074 L 16.0389,5.9702 L 16.0389,6.133" />
      <path d="M 17.3893,6.8039 L 17.3705,6.7978 L 17.3518,6.7917 L 17.333,6.7856 L 17.3143,6.7795 L 17.2955,6.7734 L 17.2768,6.7673 L 17.258,6.7612 L 17.2393,6.7551 L 17.2205,6.749 L 17.2017,6.7429 L 17.183,6.7368 L 17.1642,6.7307 L 17.1455,6.7246 L 17.1267,6.7185 L 17.108,6.7124 L 17.0892,6.7064 L 17.0705,6.7003 L 17.0517,6.6942 L 17.033,6.6881 L 17.0142,6.682 L 16.9954,6.6759 L 16.9767,6.6698 L 16.9579,6.6637 L 16.9392,6.6576 L 16.9204,6.6515 L 16.9017,6.6454 L 16.8829,6.6393 L 16.8642,6.6332 L 16.8454,6.6271 L 16.8267,6.621 L 16.8079,6.6149 L 16.7892,6.6089 L 16.7704,6.6028 L 16.7516,6.5967 L 16.7329,6.5906 L 16.7141,6.5845 L 16.6954,6.5784 L 16.6766,6.5723 L 16.6579,6.5662 L 16.6391,6.5601 L 16.6204,6.554 L 16.6016,6.5479 L 16.5829,6.5418 L 16.5641,6.5357 L 16.5453,6.5296 L 16.5266,6.5235 L 16.5078,6.5175 L 16.4891,6.5114 L 16.4703,6.5053 L 16.4516,6.4992 L 16.4328,6.4931 L 16.4141,6.487 L 16.3953,6.4809 L 16.3766,6.4748 L 16.3578,6.4687 L 16.339,6.4626 L 16.3203,6.4565 L 16.3015,6.4504 L 16.2828,6.4443 L 16.264,6.4382 L 16.2453,6.4321 L 16.2265,6.426 L 16.2078,6.42 L 16.189,6.4139 L 16.1703,6.4078 L 16.1515,6.4017 L 16.1328,6.3956 L 16.114,6.3895 L 16.0952,6.3834 L 16.0765,6.3773 L 16.0577,6.3712 L 16.039,6.3651" />
      <path d="M 17.4655,6.5785 L 17.4457,6.5723 L 17.4258,6.5661 L 17.406,6.5599 L 17.3862,6.5537 L 17.3664,6.5476 L 17.3466,6.5414 L 17.3268,6.5352 L 17.307,6.529 L 17.2872,6.5228 L 17.2673,6.5166 L 17.2475,6.5104 L 17.2277,6.5042 L 17.2079,6.4981 L 17.1881,6.4919 L 17.1683,6.4857 L 17.1485,6.4795 L 17.1286,6.4733 L 17.1088,6.4671 L 17.089,6.4609 L 17.0692,6.4547 L 17.0494,6.4485 L 17.0296,6.4424 L 17.0098,6.4362 L 16.9899,6.43 L 16.9701,6.4238 L 16.9503,6.4176 L 16.9305,6.4114 L 16.9107,6.4052 L 16.8909,6.399 L 16.8711,6.3929 L 16.8513,6.3867 L 16.8314,6.3805 L 16.8116,6.3743 L 16.7918,6.3681 L 16.772,6.3619 L 16.7522,6.3557 L 16.7324,6.3495 L 16.7126,6.3434 L 16.6927,6.3372 L 16.6729,6.331 L 16.6531,6.3248 L 16.6333,6.3186 L 16.6135,6.3124 L 16.5937,6.3062 L 16.5739,6.3 L 16.5541,6.2939 L 16.5342,6.2877 L 16.5144,6.2815 L 16.4946,6.2753 L 16.4748,6.2691 L 16.455,6.2629 L 16.4352,6.2567 L 16.4154,6.2505 L 16.3955,6.2444 L 16.3757,6.2382 L 16.3559,6.232 L 16.3361,6.2258 L 16.3163,6.2196 L 16.2965,6.2134 L 16.2767,6.2072 L 16.2568,6.201 L 16.237,6.1949 L 16.2172,6.1887 L 16.1974,6.1825 L 16.1776,6.1763 L 16.1578,6.1701 L 16.138,6.1639 L 16.1182,6.1577 L 16.0983,6.1515 L 16.0785,6.1453 L 16.0587,6.1392 L 16.0389,6.133" />
      <path d="M 16.1059,11.0133 L 16.106,10.7182 L 16.1061,10.4231 L 16.1061,10.1279 L 16.1061,9.8328 L 16.1062,9.5377 L 16.1062,9.2426 L 16.1062,8.9475 L 16.1062,8.6524 L 16.1062,8.3573 L 16.1063,8.0621 L 16.1063,7.767 L 16.1063,7.4719 L 16.1063,7.1768 L 16.1063,6.8817 L 16.1063,6.5866 L 16.1063,6.2915 L 16.1063,5.9964 L 16.1064,5.7012 L 16.1064,5.4061 L 16.1064,5.111 L 16.1064,4.8159 L 16.1064,4.5208 L 16.1064,4.2257 L 16.1064,3.9306 L 16.1064,3.6354 L 16.1064,3.3403 L 16.1064,3.0452 L 16.1064,2.7501 L 16.1064,2.455 L 16.1064,2.1599 L 16.1064,1.8648 L 16.1064,1.5697 L 16.1064,1.2745 L 16.1064,0.9794 L 16.1064,0.6843 L 16.1064,0.3892 L 16.1064,0.0941 L 16.1064,-0.201 L 16.1064,-0.4961 L 16.1064,-0.7913 L 16.1064,-1.0864 L 16.1064,-1.3815 L 16.1064,-1.6766 L 16.1064,-1.9717 L 16.1064,-2.2668 L 16.1064,-2.5619 L 16.1064,-2.8571 L 16.1064,-3.1522 L 16.1064,-3.4473 L 16.1064,-3.7424 L 16.1064,-4.0375 L 16.1064,-4.3326 L 16.1064,-4.6277 L 16.1064,-4.9228 L 16.1063,-5.218 L 16.1063,-5.5131 L 16.1063,-5.8082 L 16.1063,-6.1033 L 16.1063,-6.3984 L 16.1063,-6.6935 L 16.1063,-6.9886 L 16.1063,-7.2838 L 16.1062,-7.5789 L 16.1062,-7.874 L 16.1062,-8.1691 L 16.1062,-8.4642 L 16.1062,-8.7593 L 16.1061,-9.0544 L 16.1061,-9.3495 L 16.1061,-9.6447 L 16.106,-9.9398 L 16.1059,-10.2349" />
      <path d="M 14.6794,10.1552 L 14.6795,9.8784 L 14.6795,9.6016 L 14.6796,9.3249 L 14.6796,9.0481 L 14.6796,8.7714 L 14.6796,8.4946 L 14.6796,8.2179 L 14.6796,7.9411 L 14.6797,7.6643 L 14.6797,7.3876 L 14.6797,7.1108 L 14.6797,6.8341 L 14.6797,6.5573 L 14.6797,6.2806 L 14.6797,6.0038 L 14.6797,5.727 L 14.6798,5.4503 L 14.6798,5.1735 L 14.6798,4.8968 L 14.6798,4.62 L 14.6798,4.3433 L 14.6798,4.0665 L 14.6798,3.7897 L 14.6798,3.513 L 14.6798,3.2362 L 14.6798,2.9595 L 14.6798,2.6827 L 14.6798,2.406 L 14.6798,2.1292 L 14.6798,1.8524 L 14.6798,1.5757 L 14.6798,1.2989 L 14.6798,1.0222 L 14.6798,0.7454 L 14.6798,0.4687 L 14.6798,0.1919 L 14.6798,-0.0849 L 14.6798,-0.3616 L 14.6798,-0.6384 L 14.6798,-0.9151 L 14.6798,-1.1919 L 14.6798,-1.4686 L 14.6798,-1.7454 L 14.6798,-2.0222 L 14.6798,-2.2989 L 14.6798,-2.5757 L 14.6798,-2.8524 L 14.6798,-3.1292 L 14.6798,-3.4059 L 14.6798,-3.6827 L 14.6798,-3.9595 L 14.6798,-4.2362 L 14.6798,-4.513 L 14.6797,-4.7897 L 14.6797,-5.0665 L 14.6797,-5.3432 L 14.6797,-5.62 L 14.6797,-5.8968 L 14.6797,-6.1735 L 14.6797,-6.4503 L 14.6797,-6.727 L 14.6797,-7.0038 L 14.6796,-7.2805 L 14.6796,-7.5573 L 14.6796,-7.8341 L 14.6796,-8.1108 L 14.6796,-8.3876 L 14.6795,-8.6643 L 14.6795,-8.9411 L 14.6795,-9.2178 L 14.6794,-9.4946 L 14.6793,-9.7714" />
      <path d="M 16.039,6.3651 L 16.0217,6.4183 L 16.0044,6.4714 L 15.9872,6.5245 L 15.9699,6.5777 L 15.9526,6.6308 L 15.9354,6.684 L 15.9181,6.7371 L 15.9008,6.7903 L 15.8836,6.8434 L 15.8663,6.8965 L 15.849,6.9497 L 15.8318,7.0028 L 15.8145,7.056 L 15.7972,7.1091 L 15.78,7.1623 L 15.7627,7.2154 L 15.7454,7.2686 L 15.7282,7.3217 L 15.7109,7.3748 L 15.6936,7.428 L 15.6764,7.4811 L 15.6591,7.5343 L 15.6418,7.5874 L 15.6246,7.6406 L 15.6073,7.6937 L 15.59,7.7469 L 15.5728,7.8 L 15.5555,7.8531 L 15.5382,7.9063 L 15.521,7.9594 L 15.5037,8.0126 L 15.4864,8.0657 L 15.4692,8.1189 L 15.4519,8.172 L 15.4346,8.2251 L 15.4174,8.2783 L 15.4001,8.3314 L 15.3828,8.3846 L 15.3655,8.4377 L 15.3483,8.4909 L 15.331,8.544 L 15.3137,8.5972 L 15.2965,8.6503 L 15.2792,8.7034 L 15.2619,8.7566 L 15.2447,8.8097 L 15.2274,8.8629 L 15.2101,8.916 L 15.1929,8.9692 L 15.1756,9.0223 L 15.1583,9.0754 L 15.1411,9.1286 L 15.1238,9.1817 L 15.1065,9.2349 L 15.0893,9.288 L 15.072,9.3412 L 15.0547,9.3943 L 15.0375,9.4475 L 15.0202,9.5006 L 15.0029,9.5537 L 14.9857,9.6069 L 14.9684,9.66 L 14.9511,9.7132 L 14.9339,9.7663 L 14.9166,9.8195 L 14.8993,9.8726 L 14.8821,9.9257 L 14.8648,9.9789 L 14.8475,10.032 L 14.8303,10.0852 L 14.813,10.1383 L 14.7957,10.1915" />
      <path d="M 16.0389,6.133 L 16.02,6.1888 L 16.0011,6.2447 L 15.9822,6.3006 L 15.9634,6.3564 L 15.9445,6.4123 L 15.9256,6.4681 L 15.9067,6.524 L 15.8878,6.5799 L 15.8689,6.6357 L 15.85,6.6916 L 15.8312,6.7475 L 15.8123,6.8033 L 15.7934,6.8592 L 15.7745,6.915 L 15.7556,6.9709 L 15.7367,7.0268 L 15.7178,7.0826 L 15.699,7.1385 L 15.6801,7.1944 L 15.6612,7.2502 L 15.6423,7.3061 L 15.6234,7.3619 L 15.6045,7.4178 L 15.5857,7.4737 L 15.5668,7.5295 L 15.5479,7.5854 L 15.529,7.6413 L 15.5101,7.6971 L 15.4912,7.753 L 15.4723,7.8088 L 15.4535,7.8647 L 15.4346,7.9206 L 15.4157,7.9764 L 15.3968,8.0323 L 15.3779,8.0882 L 15.359,8.144 L 15.3401,8.1999 L 15.3213,8.2557 L 15.3024,8.3116 L 15.2835,8.3675 L 15.2646,8.4233 L 15.2457,8.4792 L 15.2268,8.5351 L 15.2079,8.5909 L 15.1891,8.6468 L 15.1702,8.7026 L 15.1513,8.7585 L 15.1324,8.8144 L 15.1135,8.8702 L 15.0946,8.9261 L 15.0758,8.982 L 15.0569,9.0378 L 15.038,9.0937 L 15.0191,9.1495 L 15.0002,9.2054 L 14.9813,9.2613 L 14.9624,9.3171 L 14.9436,9.373 L 14.9247,9.4289 L 14.9058,9.4847 L 14.8869,9.5406 L 14.868,9.5964 L 14.8491,9.6523 L 14.8302,9.7082 L 14.8114,9.764 L 14.7925,9.8199 L 14.7736,9.8758 L 14.7547,9.9316 L 14.7358,9.9875 L 14.7169,10.0433 L 14.698,10.0992 L 14.6792,10.1551" />
      <path d="M 16.039,6.3651 L 16.0588,6.3715 L 16.0786,6.378 L 16.0984,6.3844 L 16.1182,6.3909 L 16.138,6.3973 L 16.1579,6.4037 L 16.1777,6.4102 L 16.1975,6.4166 L 16.2173,6.4231 L 16.2371,6.4295 L 16.2569,6.4359 L 16.2767,6.4424 L 16.2966,6.4488 L 16.3164,6.4552 L 16.3362,6.4617 L 16.356,6.4681 L 16.3758,6.4746 L 16.3956,6.481 L 16.4154,6.4874 L 16.4353,6.4939 L 16.4551,6.5003 L 16.4749,6.5067 L 16.4947,6.5132 L 16.5145,6.5196 L 16.5343,6.5261 L 16.5541,6.5325 L 16.5739,6.5389 L 16.5938,6.5454 L 16.6136,6.5518 L 16.6334,6.5582 L 16.6532,6.5647 L 16.673,6.5711 L 16.6928,6.5776 L 16.7126,6.584 L 16.7325,6.5904 L 16.7523,6.5969 L 16.7721,6.6033 L 16.7919,6.6097 L 16.8117,6.6162 L 16.8315,6.6226 L 16.8513,6.6291 L 16.8712,6.6355 L 16.891,6.6419 L 16.9108,6.6484 L 16.9306,6.6548 L 16.9504,6.6613 L 16.9702,6.6677 L 16.99,6.6741 L 17.0099,6.6806 L 17.0297,6.687 L 17.0495,6.6934 L 17.0693,6.6999 L 17.0891,6.7063 L 17.1089,6.7128 L 17.1287,6.7192 L 17.1485,6.7256 L 17.1684,6.7321 L 17.1882,6.7385 L 17.208,6.7449 L 17.2278,6.7514 L 17.2476,6.7578 L 17.2674,6.7643 L 17.2872,6.7707 L 17.3071,6.7771 L 17.3269,6.7836 L 17.3467,6.79 L 17.3665,6.7964 L 17.3863,6.8029 L 17.4061,6.8093 L 17.4259,6.8158 L 17.4458,6.8222 L 17.4656,6.8286" />
      <path d="M 16.039,-5.5867 L 16.0588,-5.5932 L 16.0786,-5.5996 L 16.0984,-5.606 L 16.1182,-5.6125 L 16.138,-5.6189 L 16.1579,-5.6253 L 16.1777,-5.6318 L 16.1975,-5.6382 L 16.2173,-5.6447 L 16.2371,-5.6511 L 16.2569,-5.6575 L 16.2767,-5.664 L 16.2966,-5.6704 L 16.3164,-5.6768 L 16.3362,-5.6833 L 16.356,-5.6897 L 16.3758,-5.6962 L 16.3956,-5.7026 L 16.4154,-5.709 L 16.4353,-5.7155 L 16.4551,-5.7219 L 16.4749,-5.7283 L 16.4947,-5.7348 L 16.5145,-5.7412 L 16.5343,-5.7477 L 16.5541,-5.7541 L 16.5739,-5.7605 L 16.5938,-5.767 L 16.6136,-5.7734 L 16.6334,-5.7799 L 16.6532,-5.7863 L 16.673,-5.7927 L 16.6928,-5.7992 L 16.7126,-5.8056 L 16.7325,-5.812 L 16.7523,-5.8185 L 16.7721,-5.8249 L 16.7919,-5.8314 L 16.8117,-5.8378 L 16.8315,-5.8442 L 16.8513,-5.8507 L 16.8712,-5.8571 L 16.891,-5.8635 L 16.9108,-5.87 L 16.9306,-5.8764 L 16.9504,-5.8829 L 16.9702,-5.8893 L 16.99,-5.8957 L 17.0099,-5.9022 L 17.0297,-5.9086 L 17.0495,-5.915 L 17.0693,-5.9215 L 17.0891,-5.9279 L 17.1089,-5.9344 L 17.1287,-5.9408 L 17.1485,-5.9472 L 17.1684,-5.9537 L 17.1882,-5.9601 L 17.208,-5.9665 L 17.2278,-5.973 L 17.2476,-5.9794 L 17.2674,-5.9859 L 17.2872,-5.9923 L 17.3071,-5.9987 L 17.3269,-6.0052 L 17.3467,-6.0116 L 17.3665,-6.0181 L 17.3863,-6.0245 L 17.4061,-6.0309 L 17.4259,-6.0374 L 17.4458,-6.0438 L 17.4656,-6.0502" />
      <path d="M 16.039,6.3651 L 16.0201,6.4232 L 16.0012,6.4814 L 15.9823,6.5395 L 15.9634,6.5976 L 15.9446,6.6557 L 15.9257,6.7138 L 15.9068,6.772 L 15.8879,6.8301 L 15.869,6.8882 L 15.8501,6.9463 L 15.8313,7.0044 L 15.8124,7.0626 L 15.7935,7.1207 L 15.7746,7.1788 L 15.7557,7.2369 L 15.7368,7.295 L 15.7179,7.3532 L 15.6991,7.4113 L 15.6802,7.4694 L 15.6613,7.5275 L 15.6424,7.5856 L 15.6235,7.6438 L 15.6046,7.7019 L 15.5858,7.76 L 15.5669,7.8181 L 15.548,7.8762 L 15.5291,7.9344 L 15.5102,7.9925 L 15.4913,8.0506 L 15.4724,8.1087 L 15.4536,8.1668 L 15.4347,8.225 L 15.4158,8.2831 L 15.3969,8.3412 L 15.378,8.3993 L 15.3591,8.4574 L 15.3403,8.5156 L 15.3214,8.5737 L 15.3025,8.6318 L 15.2836,8.6899 L 15.2647,8.748 L 15.2458,8.8062 L 15.227,8.8643 L 15.2081,8.9224 L 15.1892,8.9805 L 15.1703,9.0386 L 15.1514,9.0968 L 15.1325,9.1549 L 15.1136,9.213 L 15.0948,9.2711 L 15.0759,9.3292 L 15.057,9.3874 L 15.0381,9.4455 L 15.0192,9.5036 L 15.0003,9.5617 L 14.9815,9.6198 L 14.9626,9.678 L 14.9437,9.7361 L 14.9248,9.7942 L 14.9059,9.8523 L 14.887,9.9104 L 14.8681,9.9686 L 14.8493,10.0267 L 14.8304,10.0848 L 14.8115,10.1429 L 14.7926,10.201 L 14.7737,10.2592 L 14.7548,10.3173 L 14.736,10.3754 L 14.7171,10.4335 L 14.6982,10.4916 L 14.6793,10.5498" />
      <path d="M 16.039,-5.5867 L 16.0201,-5.6448 L 16.0012,-5.703 L 15.9823,-5.7611 L 15.9634,-5.8192 L 15.9446,-5.8773 L 15.9257,-5.9354 L 15.9068,-5.9936 L 15.8879,-6.0517 L 15.869,-6.1098 L 15.8501,-6.1679 L 15.8313,-6.226 L 15.8124,-6.2842 L 15.7935,-6.3423 L 15.7746,-6.4004 L 15.7557,-6.4585 L 15.7368,-6.5166 L 15.7179,-6.5748 L 15.6991,-6.6329 L 15.6802,-6.691 L 15.6613,-6.7491 L 15.6424,-6.8072 L 15.6235,-6.8654 L 15.6046,-6.9235 L 15.5858,-6.9816 L 15.5669,-7.0397 L 15.548,-7.0978 L 15.5291,-7.156 L 15.5102,-7.2141 L 15.4913,-7.2722 L 15.4724,-7.3303 L 15.4536,-7.3884 L 15.4347,-7.4466 L 15.4158,-7.5047 L 15.3969,-7.5628 L 15.378,-7.6209 L 15.3591,-7.679 L 15.3403,-7.7372 L 15.3214,-7.7953 L 15.3025,-7.8534 L 15.2836,-7.9115 L 15.2647,-7.9696 L 15.2458,-8.0278 L 15.227,-8.0859 L 15.2081,-8.144 L 15.1892,-8.2021 L 15.1703,-8.2602 L 15.1514,-8.3184 L 15.1325,-8.3765 L 15.1136,-8.4346 L 15.0948,-8.4927 L 15.0759,-8.5508 L 15.057,-8.609 L 15.0381,-8.6671 L 15.0192,-8.7252 L 15.0003,-8.7833 L 14.9815,-8.8414 L 14.9626,-8.8996 L 14.9437,-8.9577 L 14.9248,-9.0158 L 14.9059,-9.0739 L 14.887,-9.132 L 14.8681,-9.1902 L 14.8493,-9.2483 L 14.8304,-9.3064 L 14.8115,-9.3645 L 14.7926,-9.4226 L 14.7737,-9.4808 L 14.7548,-9.5389 L 14.736,-9.597 L 14.7171,-9.6551 L 14.6982,-9.7132 L 14.6793,-9.7714" />
    </g>
    <g fill="none" stroke="rgb(0,0,0)" stroke-width="0.2" id="Center" stroke-dasharray="6.35 1.27 1.27 1.27">
      <line x1="0.0547" y1="0.3893" x2="-12.2694" y2="0.3893" />
      <line x1="0.0547" y1="0.3893" x2="12.3788" y2="0.3893" />
      <line x1="0.0547" y1="0.3893" x2="0.0547" y2="-11.9348" />
      <line x1="0.0547" y1="0.3893" x2="0.0547" y2="12.7133" />
      <line x1="16.0723" y1="0.3892" x2="12.9788" y2="0.3892" />
      <line x1="16.0723" y1="0.3892" x2="19.1659" y2="0.3892" />
    </g>
  </g>
</svg>