<?xml version='1.0' encoding='utf-8'?>
<svg width="48.6467mm" height="24.6mm" viewBox="-11.8822 -12.3 48.6467 24.6" version="1.1" xmlns="http://www.w3.org/2000/svg">
  <g transform="scale(1,-1)" stroke-linecap="round">
    <g fill="none" stroke="rgb(0,0,0)" stroke-width="0.4" id="Visible">
      <path d="M 10.4402,1.25 A 10.1,10.099999115385637 89.99999999999991 0,1 0.4178,10.1" />
      <path d="M 0.4178,10.1 A 10.1,10.099999115385637 89.99999999999991 0,1 0.4178,-10.1" />
      <path d="M 0.4178,-10.1 A 10.1,10.099999115385637 89.99999999999991 0,1 10.4402,-1.25" />
      <line x1="10.4416" y1="-1.25" x2="10.4402" y2="-1.25" />
      <path d="M 10.4416,1.25 A 10.1,10.099999115385637 89.99999999999991 0,1 0.4193,10.1" />
      <path d="M 0.4193,-10.1 A 10.1,10.099999115385637 89.99999999999991 0,1 10.4416,-1.25" />
      <line x1="10.4416" y1="1.25" x2="10.4402" y2="1.25" />
      <line x1="10.4402" y1="1.25" x2="6.3884" y2="1.25" />
      <path d="M 6.3884,1.25 A 6.1,6.09999946572796 89.99999999999991 0,1 0.4178,6.1" />
      <path d="M 0.4178,6.1 A 6.1,6.09999946572796 89.99999999999991 0,1 0.4178,-6.1" />
      <path d="M 0.4178,-6.1 A 6.1,6.09999946572796 89.99999999999991 0,1 6.3884,-1.25" />
      <line x1="10.4402" y1="-1.25" x2="6.3884" y2="-1.25" />
      <path d="M 0.4185,6.1 A 6.1,6.09999946572796 89.99999999999991 0,1 0.4185,-6.1" />
      <line x1="0.4193" y1="10.1" x2="0.4178" y2="10.1" />
      <line x1="0.4193" y1="-10.1" x2="0.4178" y2="-10.1" />
      <path d="M 14.4416,1.75 L 14.6752,1.75 L 15.3653,1.75 L 16.4799,1.75 L 17.9675,1.75 L 19.7592,1.75 L 21.7722,1.75 L 23.9133,1.75 L 26.0835,1.75 L 28.1823,1.75 L 30.1127,1.75 L 31.7853,1.75 L 33.1229,1.75 L 34.0634,1.75 L 34.5634,1.75" />
      <line x1="34.5634" y1="-1.75" x2="34.5634" y2="1.75" />
      <path d="M 14.4416,-1.75 L 14.6752,-1.75 L 15.3653,-1.75 L 16.4799,-1.75 L 17.9675,-1.75 L 19.7592,-1.75 L 21.7722,-1.75 L 23.9133,-1.75 L 26.0835,-1.75 L 28.1823,-1.75 L 30.1127,-1.75 L 31.7853,-1.75 L 33.1229,-1.75 L 34.0634,-1.75 L 34.5634,-1.75" />
      <line x1="34.5645" y1="-1.75" x2="34.5645" y2="1.75" />
      <line x1="34.5645" y1="1.75" x2="34.5634" y2="1.75" />
      <line x1="34.5645" y1="-1.75" x2="34.5634" y2="-1.75" />
      <line x1="14.4416" y1="-1.75" x2="14.4416" y2="1.75" />
    </g>
    <g fill="none" stroke="rgb(110,110,110)" stroke-width="0.3" id="Hidden" stroke-dasharray="3.6 0.9">
      <path d="M 0.4193,10.1 A 10.1,10.099999115385637 89.99999999999991 0,1 0.4193,-10.1" />
      <line x1="6.3898" y1="-1.25" x2="6.3884" y2="-1.25" />
      <line x1="10.4416" y1="-1.25" x2="6.3898" y2="-1.25" />
      <line x1="10.4416" y1="1.25" x2="6.3898" y2="1.25" />
      <path d="M 6.3898,1.25 A 6.1,6.09999946572796 89.99999999999991 0,1 0.4193,6.1" />
      <path d="M 0.4193,6.1 A 6.1,6.09999946572796 89.99999999999991 0,1 0.4185,6.1" />
      <path d="M 0.4185,-6.1 A 6.1,6.09999946572796 89.99999999999991 0,1 0.4193,-6.1" />
      <path d="M 0.4193,-6.1 A 6.1,6.09999946572796 89.99999999999991 0,1 6.3898,-1.25" />
      <line x1="6.3898" y1="1.25" x2="6.3884" y2="1.25" />
      <line x1="0.4193" y1="6.1" x2="0.4178" y2="6.1" />
      <line x1="0.4193" y1="-6.1" x2="0.4178" y2="-6.1" />
      <path d="M 34.5645,1.75 L 34.066,1.75 L 33.1267,1.75 L 31.79,1.75 L 30.1177,1.75 L 28.1874,1.75 L 26.0882,1.75 L 23.9175,1.75 L 21.7757,1.75 L 19.7619,1.75 L 17.9694,1.75 L 16.481,1.75 L 15.3658,1.75 L 14.6754,1.75 L 14.4416,1.75" />
      <path d="M 34.5645,-1.75 L 34.066,-1.75 L 33.1267,-1.75 L 31.79,-1.75 L 30.1177,-1.75 L 28.1874,-1.75 L 26.0882,-1.75 L 23.9175,-1.75 L 21.7757,-1.75 L 19.7619,-1.75 L 17.9694,-1.75 L 16.481,-1.75 L 15.3658,-1.75 L 14.6754,-1.75 L 14.4416,-1.75" />
      <line x1="34.5634" y1="1.75" x2="30.5127" y2="1.75" />
      <path d="M 30.5127,1.75 L 30.1222,1.75 L 29.4873,1.75 L 28.6357,1.75 L 27.6047,1.75 L 26.4396,1.75 L 25.1913,1.75 L 23.9145,1.75 L 22.6653,1.75 L 21.4982,1.75 L 20.4644,1.75 L 19.6093,1.75 L 18.9702,1.75 L 18.5752,1.75 L 18.4416,1.75" />
      <path d="M 18.4416,1.75 L 18.5752,1.75 L 18.9699,1.75 L 19.6086,1.75 L 20.4633,1.75 L 21.4966,1.75 L 22.6632,1.75 L 23.912,1.75 L 25.1884,1.75 L 26.4365,1.75 L 27.6016,1.75 L 28.6327,1.75 L 29.4847,1.75 L 30.1203,1.75 L 30.5116,1.75" />
      <line x1="34.5634" y1="1.75" x2="30.5116" y2="1.75" />
      <line x1="30.5116" y1="-1.75" x2="30.5116" y2="1.75" />
      <line x1="34.5634" y1="-1.75" x2="30.5116" y2="-1.75" />
      <line x1="34.5634" y1="-1.75" x2="30.5127" y2="-1.75" />
      <path d="M 30.5127,-1.75 L 30.1222,-1.75 L 29.4873,-1.75 L 28.6357,-1.75 L 27.6047,-1.75 L 26.4396,-1.75 L 25.1913,-1.75 L 23.9145,-1.75 L 22.6653,-1.75 L 21.4982,-1.75 L 20.4644,-1.75 L 19.6093,-1.75 L 18.9702,-1.75 L 18.5752,-1.75 L 18.4416,-1.75" />
      <path d="M 18.4416,-1.75 L 18.5752,-1.75 L 18.9699,-1.75 L 19.6086,-1.75 L 20.4633,-1.75 L 21.4966,-1.75 L 22.6632,-1.75 L 23.912,-1.75 L 25.1884,-1.75 L 26.4365,-1.75 L 27.6016,-1.75 L 28.6327,-1.75 L 29.4847,-1.75 L 30.1203,-1.75 L 30.5116,-1.75" />
      <line x1="30.5127" y1="-1.75" x2="30.5127" y2="1.75" />
      <line x1="18.4416" y1="-1.75" x2="18.4416" y2="1.75" />
    </g>
  </g>
</svg>