<?xml version='1.0' encoding='utf-8'?>
<svg width="37.1276mm" height="29.527mm" viewBox="-14.7635 -14.7635 37.1276 29.527" version="1.1" xmlns="http://www.w3.org/2000/svg">
  <g transform="scale(1,-1)" stroke-linecap="round">
    <g fill="none" stroke="rgb(0,0,0)" stroke-width="0.4" id="Visible">
      <path d="M 6.0365,0.0 L 6.0135,0.5261 L 5.9448,1.0482 L 5.8308,1.5624 L 5.6724,2.0646 L 5.4709,2.5511 L 5.2277,3.0182 L 4.9448,3.4624 L 4.6242,3.8802 L 4.2684,4.2684 L 3.8802,4.6242 L 3.4624,4.9448 L 3.0182,5.2277 L 2.5511,5.4709 L 2.0646,5.6724 L 1.5624,5.8308 L 1.0482,5.9448 L 0.5261,6.0135 L 0.0,6.0365 L -0.5261,6.0135 L -1.0482,5.9448 L -1.5624,5.8308 L -2.0646,5.6724 L -2.5511,5.4709 L -3.0182,5.2277 L -3.4624,4.9448 L -3.8802,4.6242 L -4.2684,4.2684 L -4.6242,3.8802 L -4.9448,3.4624 L -5.2277,3.0182 L -5.4709,2.5511 L -5.6724,2.0646 L -5.8308,1.5624 L -5.9448,1.0482 L -6.0135,0.5261 L -6.0365,-0.0 L -6.0135,-0.5261 L -5.9448,-1.0482 L -5.8308,-1.5624 L -5.6724,-2.0646 L -5.4709,-2.5511 L -5.2277,-3.0182 L -4.9448,-3.4624 L -4.6242,-3.8802 L -4.2684,-4.2684 L -3.8802,-4.6242 L -3.4624,-4.9448 L -3.0182,-5.2277 L -2.5511,-5.4709 L -2.0646,-5.6724 L -1.5624,-5.8308 L -1.0482,-5.9448 L -0.5261,-6.0135 L -0.0,-6.0365 L 0.5261,-6.0135 L 1.0482,-5.9448 L 1.5624,-5.8308 L 2.0646,-5.6724 L 2.5511,-5.4709 L 3.0182,-5.2277 L 3.4624,-4.9448 L 3.8802,-4.6242 L 4.2684,-4.2684 L 4.6242,-3.8802 L 4.9448,-3.4624 L 5.2277,-3.0182 L 5.4709,-2.5511 L 5.6724,-2.0646 L 5.8308,-1.5624 L 5.9448,-1.0482 L 6.0135,-0.5261 L 6.0365,0.0" />
      <path d="M 12.5635,0.0 L 12.5157,1.095 L 12.3727,2.1816 L 12.1354,3.2517 L 11.8059,4.297 L 11.3864,5.3096 L 10.8803,6.2818 L 10.2914,7.2061 L 9.6242,8.0757 L 8.8838,8.8838 L 8.0757,9.6242 L 7.2061,10.2914 L 6.2818,10.8803 L 5.3096,11.3864 L 4.297,11.8059 L 3.2517,12.1354 L 2.1816,12.3727 L 1.095,12.5157 L -0.0,12.5635 L -1.095,12.5157 L -2.1816,12.3727 L -3.2517,12.1354 L -4.297,11.8059 L -5.3096,11.3864 L -6.2818,10.8803 L -7.2061,10.2914 L -8.0757,9.6242 L -8.8838,8.8838 L -9.6242,8.0757 L -10.2914,7.2061 L -10.8803,6.2818 L -11.3864,5.3096 L -11.8059,4.297 L -12.1354,3.2517 L -12.3727,2.1816 L -12.5157,1.095 L -12.5635,-0.0 L -12.5157,-1.095 L -12.3727,-2.1816 L -12.1354,-3.2517 L -11.8059,-4.297 L -11.3864,-5.3096 L -10.8803,-6.2818 L -10.2914,-7.2061 L -9.6242,-8.0757 L -8.8838,-8.8838 L -8.0757,-9.6242 L -7.2061,-10.2914 L -6.2818,-10.8803 L -5.3096,-11.3864 L -4.297,-11.8059 L -3.2517,-12.1354 L -2.1816,-12.3727 L -1.095,-12.5157 L 0.0,-12.5635 L 1.095,-12.5157 L 2.1816,-12.3727 L 3.2517,-12.1354 L 4.297,-11.8059 L 5.3096,-11.3864 L 6.2818,-10.8803 L 7.2061,-10.2914 L 8.0757,-9.6242 L 8.8838,-8.8838 L 9.6242,-8.0757 L 10.2914,-7.2061 L 10.8803,-6.2818 L 11.3864,-5.3096 L 11.8059,-4.297 L 12.1354,-3.2517 L 12.3727,-2.1816 L 12.5157,-1.095 L 12.5635,0.0" />
      <path d="M 12.0505,0.0 L 12.0046,1.0503 L 11.8674,2.0925 L 11.6399,3.1189 L 11.3238,4.1215 L 10.9215,5.0928 L 10.436,6.0253 L 9.8712,6.9119 L 9.2312,7.7459 L 8.521,8.521 L 7.7459,9.2312 L 6.9119,9.8712 L 6.0253,10.436 L 5.0928,10.9215 L 4.1215,11.3238 L 3.1189,11.6399 L 2.0925,11.8674 L 1.0503,12.0046 L -0.0,12.0505 L -1.0503,12.0046 L -2.0925,11.8674 L -3.1189,11.6399 L -4.1215,11.3238 L -5.0928,10.9215 L -6.0253,10.436 L -6.9119,9.8712 L -7.7459,9.2312 L -8.521,8.521 L -9.2312,7.7459 L -9.8712,6.9119 L -10.436,6.0253 L -10.9215,5.0928 L -11.3238,4.1215 L -11.6399,3.1189 L -11.8674,2.0925 L -12.0046,1.0503 L -12.0505,-0.0 L -12.0046,-1.0503 L -11.8674,-2.0925 L -11.6399,-3.1189 L -11.3238,-4.1215 L -10.9215,-5.0928 L -10.436,-6.0253 L -9.8712,-6.9119 L -9.2312,-7.7459 L -8.521,-8.521 L -7.7459,-9.2312 L -6.9119,-9.8712 L -6.0253,-10.436 L -5.0928,-10.9215 L -4.1215,-11.3238 L -3.1189,-11.6399 L -2.0925,-11.8674 L -1.0503,-12.0046 L 0.0,-12.0505 L 1.0503,-12.0046 L 2.0925,-11.8674 L 3.1189,-11.6399 L 4.1215,-11.3238 L 5.0928,-10.9215 L 6.0253,-10.436 L 6.9119,-9.8712 L 7.7459,-9.2312 L 8.521,-8.521 L 9.2312,-7.7459 L 9.8712,-6.9119 L 10.436,-6.0253 L 10.9215,-5.0928 L 11.3238,-4.1215 L 11.6399,-3.1189 L 11.8674,-2.0925 L 12.0046,-1.0503 L 12.0505,0.0" />
      <path d="M 20.1633,6.5495 L 20.1635,6.3676 L 20.1636,6.1856 L 20.1636,6.0037 L 20.1637,5.8218 L 20.1637,5.6398 L 20.1637,5.4579 L 20.1638,5.276 L 20.1638,5.0941 L 20.1638,4.9121 L 20.1638,4.7302 L 20.1639,4.5483 L 20.1639,4.3663 L 20.1639,4.1844 L 20.1639,4.0025 L 20.1639,3.8205 L 20.1639,3.6386 L 20.164,3.4567 L 20.164,3.2747 L 20.164,3.0928 L 20.164,2.9109 L 20.164,2.729 L 20.164,2.547 L 20.164,2.3651 L 20.164,2.1832 L 20.164,2.0012 L 20.164,1.8193 L 20.164,1.6374 L 20.1641,1.4554 L 20.1641,1.2735 L 20.1641,1.0916 L 20.1641,0.9097 L 20.1641,0.7277 L 20.1641,0.5458 L 20.1641,0.3639 L 20.1641,0.1819 L 20.1641,0.0 L 20.1641,-0.1819 L 20.1641,-0.3639 L 20.1641,-0.5458 L 20.1641,-0.7277 L 20.1641,-0.9097 L 20.1641,-1.0916 L 20.1641,-1.2735 L 20.1641,-1.4554 L 20.164,-1.6374 L 20.164,-1.8193 L 20.164,-2.0012 L 20.164,-2.1832 L 20.164,-2.3651 L 20.164,-2.547 L 20.164,-2.729 L 20.164,-2.9109 L 20.164,-3.0928 L 20.164,-3.2747 L 20.164,-3.4567 L 20.1639,-3.6386 L 20.1639,-3.8205 L 20.1639,-4.0025 L 20.1639,-4.1844 L 20.1639,-4.3663 L 20.1639,-4.5483 L 20.1638,-4.7302 L 20.1638,-4.9121 L 20.1638,-5.0941 L 20.1638,-5.276 L 20.1637,-5.4579 L 20.1637,-5.6398 L 20.1637,-5.8218 L 20.1636,-6.0037 L 20.1636,-6.1856 L 20.1635,-6.3676 L 20.1633,-6.5495" />
      <path d="M 20.1633,-6.5495 L 20.1632,-6.3676 L 20.1631,-6.1856 L 20.1631,-6.0037 L 20.163,-5.8218 L 20.163,-5.6398 L 20.1629,-5.4579 L 20.1629,-5.276 L 20.1629,-5.0941 L 20.1629,-4.9121 L 20.1628,-4.7302 L 20.1628,-4.5483 L 20.1628,-4.3663 L 20.1628,-4.1844 L 20.1628,-4.0025 L 20.1627,-3.8205 L 20.1627,-3.6386 L 20.1627,-3.4567 L 20.1627,-3.2747 L 20.1627,-3.0928 L 20.1627,-2.9109 L 20.1627,-2.729 L 20.1627,-2.547 L 20.1627,-2.3651 L 20.1627,-2.1832 L 20.1626,-2.0012 L 20.1626,-1.8193 L 20.1626,-1.6374 L 20.1626,-1.4554 L 20.1626,-1.2735 L 20.1626,-1.0916 L 20.1626,-0.9097 L 20.1626,-0.7277 L 20.1626,-0.5458 L 20.1626,-0.3639 L 20.1626,-0.1819 L 20.1626,0.0 L 20.1626,0.1819 L 20.1626,0.3639 L 20.1626,0.5458 L 20.1626,0.7277 L 20.1626,0.9097 L 20.1626,1.0916 L 20.1626,1.2735 L 20.1626,1.4554 L 20.1626,1.6374 L 20.1626,1.8193 L 20.1626,2.0012 L 20.1627,2.1832 L 20.1627,2.3651 L 20.1627,2.547 L 20.1627,2.729 L 20.1627,2.9109 L 20.1627,3.0928 L 20.1627,3.2747 L 20.1627,3.4567 L 20.1627,3.6386 L 20.1627,3.8205 L 20.1628,4.0025 L 20.1628,4.1844 L 20.1628,4.3663 L 20.1628,4.5483 L 20.1628,4.7302 L 20.1629,4.9121 L 20.1629,5.0941 L 20.1629,5.276 L 20.1629,5.4579 L 20.163,5.6398 L 20.163,5.8218 L 20.1631,6.0037 L 20.1631,6.1856 L 20.1632,6.3676 L 20.1633,6.5495" />
      <path d="M 17.9744,-12.5635 L 17.9741,-12.2145 L 17.974,-11.8656 L 17.9739,-11.5166 L 17.9738,-11.1676 L 17.9737,-10.8186 L 17.9736,-10.4696 L 17.9736,-10.1206 L 17.9735,-9.7716 L 17.9735,-9.4226 L 17.9734,-9.0737 L 17.9734,-8.7247 L 17.9734,-8.3757 L 17.9733,-8.0267 L 17.9733,-7.6777 L 17.9733,-7.3287 L 17.9732,-6.9797 L 17.9732,-6.6308 L 17.9732,-6.2818 L 17.9732,-5.9328 L 17.9732,-5.5838 L 17.9731,-5.2348 L 17.9731,-4.8858 L 17.9731,-4.5368 L 17.9731,-4.1878 L 17.9731,-3.8389 L 17.9731,-3.4899 L 17.9731,-3.1409 L 17.973,-2.7919 L 17.973,-2.4429 L 17.973,-2.0939 L 17.973,-1.7449 L 17.973,-1.3959 L 17.973,-1.047 L 17.973,-0.698 L 17.973,-0.349 L 17.973,0.0 L 17.973,0.349 L 17.973,0.698 L 17.973,1.047 L 17.973,1.3959 L 17.973,1.7449 L 17.973,2.0939 L 17.973,2.4429 L 17.973,2.7919 L 17.9731,3.1409 L 17.9731,3.4899 L 17.9731,3.8389 L 17.9731,4.1878 L 17.9731,4.5368 L 17.9731,4.8858 L 17.9731,5.2348 L 17.9732,5.5838 L 17.9732,5.9328 L 17.9732,6.2818 L 17.9732,6.6308 L 17.9732,6.9797 L 17.9733,7.3287 L 17.9733,7.6777 L 17.9733,8.0267 L 17.9734,8.3757 L 17.9734,8.7247 L 17.9734,9.0737 L 17.9735,9.4226 L 17.9735,9.7716 L 17.9736,10.1206 L 17.9736,10.4696 L 17.9737,10.8186 L 17.9738,11.1676 L 17.9739,11.5166 L 17.974,11.8656 L 17.9741,12.2145 L 17.9744,12.5635" />
      <path d="M 16.5649,-12.0505 L 16.5646,-11.7158 L 16.5644,-11.381 L 16.5643,-11.0463 L 16.5643,-10.7116 L 16.5642,-10.3768 L 16.5641,-10.0421 L 16.5641,-9.7073 L 16.564,-9.3726 L 16.564,-9.0379 L 16.5639,-8.7031 L 16.5639,-8.3684 L 16.5639,-8.0337 L 16.5638,-7.6989 L 16.5638,-7.3642 L 16.5638,-7.0295 L 16.5638,-6.6947 L 16.5637,-6.36 L 16.5637,-6.0253 L 16.5637,-5.6905 L 16.5637,-5.3558 L 16.5637,-5.021 L 16.5636,-4.6863 L 16.5636,-4.3516 L 16.5636,-4.0168 L 16.5636,-3.6821 L 16.5636,-3.3474 L 16.5636,-3.0126 L 16.5636,-2.6779 L 16.5636,-2.3432 L 16.5636,-2.0084 L 16.5635,-1.6737 L 16.5635,-1.3389 L 16.5635,-1.0042 L 16.5635,-0.6695 L 16.5635,-0.3347 L 16.5635,0.0 L 16.5635,0.3347 L 16.5635,0.6695 L 16.5635,1.0042 L 16.5635,1.3389 L 16.5635,1.6737 L 16.5636,2.0084 L 16.5636,2.3432 L 16.5636,2.6779 L 16.5636,3.0126 L 16.5636,3.3474 L 16.5636,3.6821 L 16.5636,4.0168 L 16.5636,4.3516 L 16.5636,4.6863 L 16.5637,5.021 L 16.5637,5.3558 L 16.5637,5.6905 L 16.5637,6.0253 L 16.5637,6.36 L 16.5638,6.6947 L 16.5638,7.0295 L 16.5638,7.3642 L 16.5638,7.6989 L 16.5639,8.0337 L 16.5639,8.3684 L 16.5639,8.7031 L 16.564,9.0379 L 16.564,9.3726 L 16.5641,9.7073 L 16.5641,10.0421 L 16.5642,10.3768 L 16.5643,10.7116 L 16.5643,11.0463 L 16.5644,11.381 L 16.5646,11.7158 L 16.5649,12.0505" />
      <path d="M 20.1633,6.5495 L 20.1329,6.633 L 20.1025,6.7166 L 20.0721,6.8001 L 20.0417,6.8836 L 20.0113,6.9671 L 19.9809,7.0507 L 19.9505,7.1342 L 19.9201,7.2177 L 19.8897,7.3013 L 19.8593,7.3848 L 19.8289,7.4683 L 19.7985,7.5518 L 19.7681,7.6354 L 19.7377,7.7189 L 19.7073,7.8024 L 19.6769,7.886 L 19.6465,7.9695 L 19.6161,8.053 L 19.5857,8.1365 L 19.5553,8.2201 L 19.5249,8.3036 L 19.4945,8.3871 L 19.4641,8.4706 L 19.4337,8.5542 L 19.4033,8.6377 L 19.3729,8.7212 L 19.3425,8.8048 L 19.3121,8.8883 L 19.2817,8.9718 L 19.2513,9.0553 L 19.2209,9.1389 L 19.1905,9.2224 L 19.1601,9.3059 L 19.1297,9.3895 L 19.0993,9.473 L 19.0689,9.5565 L 19.0385,9.64 L 19.0081,9.7236 L 18.9777,9.8071 L 18.9473,9.8906 L 18.9169,9.9742 L 18.8865,10.0577 L 18.8561,10.1412 L 18.8257,10.2247 L 18.7953,10.3083 L 18.7649,10.3918 L 18.7345,10.4753 L 18.7041,10.5589 L 18.6737,10.6424 L 18.6433,10.7259 L 18.6129,10.8094 L 18.5824,10.893 L 18.552,10.9765 L 18.5216,11.06 L 18.4912,11.1436 L 18.4608,11.2271 L 18.4304,11.3106 L 18.4,11.3941 L 18.3696,11.4777 L 18.3392,11.5612 L 18.3088,11.6447 L 18.2784,11.7282 L 18.248,11.8118 L 18.2176,11.8953 L 18.1872,11.9788 L 18.1568,12.0624 L 18.1264,12.1459 L 18.096,12.2294 L 18.0656,12.3129 L 18.0352,12.3965 L 18.0048,12.48 L 17.9744,12.5635" />
      <path d="M 20.1633,-6.5495 L 20.1329,-6.633 L 20.1025,-6.7166 L 20.0721,-6.8001 L 20.0417,-6.8836 L 20.0113,-6.9671 L 19.9809,-7.0507 L 19.9505,-7.1342 L 19.9201,-7.2177 L 19.8897,-7.3013 L 19.8593,-7.3848 L 19.8289,-7.4683 L 19.7985,-7.5518 L 19.7681,-7.6354 L 19.7377,-7.7189 L 19.7073,-7.8024 L 19.6769,-7.886 L 19.6465,-7.9695 L 19.6161,-8.053 L 19.5857,-8.1365 L 19.5553,-8.2201 L 19.5249,-8.3036 L 19.4945,-8.3871 L 19.4641,-8.4706 L 19.4337,-8.5542 L 19.4033,-8.6377 L 19.3729,-8.7212 L 19.3425,-8.8048 L 19.3121,-8.8883 L 19.2817,-8.9718 L 19.2513,-9.0553 L 19.2209,-9.1389 L 19.1905,-9.2224 L 19.1601,-9.3059 L 19.1297,-9.3895 L 19.0993,-9.473 L 19.0689,-9.5565 L 19.0385,-9.64 L 19.0081,-9.7236 L 18.9777,-9.8071 L 18.9473,-9.8906 L 18.9169,-9.9742 L 18.8865,-10.0577 L 18.8561,-10.1412 L 18.8257,-10.2247 L 18.7953,-10.3083 L 18.7649,-10.3918 L 18.7345,-10.4753 L 18.7041,-10.5589 L 18.6737,-10.6424 L 18.6433,-10.7259 L 18.6129,-10.8094 L 18.5824,-10.893 L 18.552,-10.9765 L 18.5216,-11.06 L 18.4912,-11.1436 L 18.4608,-11.2271 L 18.4304,-11.3106 L 18.4,-11.3941 L 18.3696,-11.4777 L 18.3392,-11.5612 L 18.3088,-11.6447 L 18.2784,-11.7282 L 18.248,-11.8118 L 18.2176,-11.8953 L 18.1872,-11.9788 L 18.1568,-12.0624 L 18.1264,-12.1459 L 18.096,-12.2294 L 18.0656,-12.3129 L 18.0352,-12.3965 L 18.0048,-12.48 L 17.9744,-12.5635" />
      <path d="M 16.5649,12.0505 L 16.5845,12.0576 L 16.604,12.0648 L 16.6236,12.0719 L 16.6432,12.079 L 16.6628,12.0861 L 16.6823,12.0933 L 16.7019,12.1004 L 16.7215,12.1075 L 16.7411,12.1146 L 16.7606,12.1218 L 16.7802,12.1289 L 16.7998,12.136 L 16.8194,12.1431 L 16.839,12.1503 L 16.8585,12.1574 L 16.8781,12.1645 L 16.8977,12.1716 L 16.9173,12.1788 L 16.9368,12.1859 L 16.9564,12.193 L 16.976,12.2001 L 16.9956,12.2073 L 17.0151,12.2144 L 17.0347,12.2215 L 17.0543,12.2286 L 17.0739,12.2358 L 17.0935,12.2429 L 17.113,12.25 L 17.1326,12.2571 L 17.1522,12.2643 L 17.1718,12.2714 L 17.1913,12.2785 L 17.2109,12.2856 L 17.2305,12.2928 L 17.2501,12.2999 L 17.2696,12.307 L 17.2892,12.3141 L 17.3088,12.3213 L 17.3284,12.3284 L 17.348,12.3355 L 17.3675,12.3426 L 17.3871,12.3498 L 17.4067,12.3569 L 17.4263,12.364 L 17.4458,12.3711 L 17.4654,12.3783 L 17.485,12.3854 L 17.5046,12.3925 L 17.5241,12.3996 L 17.5437,12.4068 L 17.5633,12.4139 L 17.5829,12.421 L 17.6025,12.4281 L 17.622,12.4353 L 17.6416,12.4424 L 17.6612,12.4495 L 17.6808,12.4567 L 17.7003,12.4638 L 17.7199,12.4709 L 17.7395,12.478 L 17.7591,12.4852 L 17.7786,12.4923 L 17.7982,12.4994 L 17.8178,12.5065 L 17.8374,12.5137 L 17.857,12.5208 L 17.8765,12.5279 L 17.8961,12.535 L 17.9157,12.5422 L 17.9353,12.5493 L 17.9548,12.5564 L 17.9744,12.5635" />
      <path d="M 16.5649,-12.0505 L 16.5845,-12.0576 L 16.604,-12.0648 L 16.6236,-12.0719 L 16.6432,-12.079 L 16.6628,-12.0861 L 16.6823,-12.0933 L 16.7019,-12.1004 L 16.7215,-12.1075 L 16.7411,-12.1146 L 16.7606,-12.1218 L 16.7802,-12.1289 L 16.7998,-12.136 L 16.8194,-12.1431 L 16.839,-12.1503 L 16.8585,-12.1574 L 16.8781,-12.1645 L 16.8977,-12.1716 L 16.9173,-12.1788 L 16.9368,-12.1859 L 16.9564,-12.193 L 16.976,-12.2001 L 16.9956,-12.2073 L 17.0151,-12.2144 L 17.0347,-12.2215 L 17.0543,-12.2286 L 17.0739,-12.2358 L 17.0935,-12.2429 L 17.113,-12.25 L 17.1326,-12.2571 L 17.1522,-12.2643 L 17.1718,-12.2714 L 17.1913,-12.2785 L 17.2109,-12.2856 L 17.2305,-12.2928 L 17.2501,-12.2999 L 17.2696,-12.307 L 17.2892,-12.3141 L 17.3088,-12.3213 L 17.3284,-12.3284 L 17.348,-12.3355 L 17.3675,-12.3426 L 17.3871,-12.3498 L 17.4067,-12.3569 L 17.4263,-12.364 L 17.4458,-12.3711 L 17.4654,-12.3783 L 17.485,-12.3854 L 17.5046,-12.3925 L 17.5241,-12.3996 L 17.5437,-12.4068 L 17.5633,-12.4139 L 17.5829,-12.421 L 17.6025,-12.4281 L 17.622,-12.4353 L 17.6416,-12.4424 L 17.6612,-12.4495 L 17.6808,-12.4567 L 17.7003,-12.4638 L 17.7199,-12.4709 L 17.7395,-12.478 L 17.7591,-12.4852 L 17.7786,-12.4923 L 17.7982,-12.4994 L 17.8178,-12.5065 L 17.8374,-12.5137 L 17.857,-12.5208 L 17.8765,-12.5279 L 17.8961,-12.535 L 17.9157,-12.5422 L 17.9353,-12.5493 L 17.9548,-12.5564 L 17.9744,-12.5635" />
    </g>
    <g fill="none" stroke="rgb(110,110,110)" stroke-width="0.3" id="Hidden" stroke-dasharray="3.6 0.9">
      <path d="M 6.5495,0.0 L 6.5246,0.5708 L 6.45,1.1373 L 6.3263,1.6951 L 6.1545,2.2401 L 5.9359,2.7679 L 5.672,3.2747 L 5.365,3.7566 L 5.0172,4.2099 L 4.6312,4.6312 L 4.2099,5.0172 L 3.7566,5.365 L 3.2747,5.672 L 2.7679,5.9359 L 2.2401,6.1545 L 1.6951,6.3263 L 1.1373,6.45 L 0.5708,6.5246 L -0.0,6.5495 L -0.5708,6.5246 L -1.1373,6.45 L -1.6951,6.3263 L -2.2401,6.1545 L -2.7679,5.9359 L -3.2747,5.672 L -3.7566,5.365 L -4.2099,5.0172 L -4.6312,4.6312 L -5.0172,4.2099 L -5.365,3.7566 L -5.672,3.2747 L -5.9359,2.7679 L -6.1545,2.2401 L -6.3263,1.6951 L -6.45,1.1373 L -6.5246,0.5708 L -6.5495,0.0 L -6.5246,-0.5708 L -6.45,-1.1373 L -6.3263,-1.6951 L -6.1545,-2.2401 L -5.9359,-2.7679 L -5.672,-3.2747 L -5.365,-3.7566 L -5.0172,-4.2099 L -4.6312,-4.6312 L -4.2099,-5.0172 L -3.7566,-5.365 L -3.2747,-5.672 L -2.7679,-5.9359 L -2.2401,-6.1545 L -1.6951,-6.3263 L -1.1373,-6.45 L -0.5708,-6.5246 L 0.0,-6.5495 L 0.5708,-6.5246 L 1.1373,-6.45 L 1.6951,-6.3263 L 2.2401,-6.1545 L 2.7679,-5.9359 L 3.2747,-5.672 L 3.7566,-5.365 L 4.2099,-5.0172 L 4.6312,-4.6312 L 5.0172,-4.2099 L 5.365,-3.7566 L 5.672,-3.2747 L 5.9359,-2.7679 L 6.1545,-2.2401 L 6.3263,-1.6951 L 6.45,-1.1373 L 6.5246,-0.5708 L 6.5495,-0.0" />
      <path d="M 18.7538,6.0365 L 18.754,5.8688 L 18.754,5.7011 L 18.7541,5.5334 L 18.7541,5.3657 L 18.7541,5.1981 L 18.7542,5.0304 L 18.7542,4.8627 L 18.7542,4.695 L 18.7542,4.5274 L 18.7543,4.3597 L 18.7543,4.192 L 18.7543,4.0243 L 18.7543,3.8566 L 18.7543,3.689 L 18.7544,3.5213 L 18.7544,3.3536 L 18.7544,3.1859 L 18.7544,3.0182 L 18.7544,2.8506 L 18.7544,2.6829 L 18.7544,2.5152 L 18.7544,2.3475 L 18.7544,2.1798 L 18.7544,2.0122 L 18.7544,1.8445 L 18.7545,1.6768 L 18.7545,1.5091 L 18.7545,1.3414 L 18.7545,1.1738 L 18.7545,1.0061 L 18.7545,0.8384 L 18.7545,0.6707 L 18.7545,0.503 L 18.7545,0.3354 L 18.7545,0.1677 L 18.7545,0.0 L 18.7545,-0.1677 L 18.7545,-0.3354 L 18.7545,-0.503 L 18.7545,-0.6707 L 18.7545,-0.8384 L 18.7545,-1.0061 L 18.7545,-1.1738 L 18.7545,-1.3414 L 18.7545,-1.5091 L 18.7545,-1.6768 L 18.7544,-1.8445 L 18.7544,-2.0122 L 18.7544,-2.1798 L 18.7544,-2.3475 L 18.7544,-2.5152 L 18.7544,-2.6829 L 18.7544,-2.8506 L 18.7544,-3.0182 L 18.7544,-3.1859 L 18.7544,-3.3536 L 18.7544,-3.5213 L 18.7543,-3.689 L 18.7543,-3.8566 L 18.7543,-4.0243 L 18.7543,-4.192 L 18.7543,-4.3597 L 18.7542,-4.5274 L 18.7542,-4.695 L 18.7542,-4.8627 L 18.7542,-5.0304 L 18.7541,-5.1981 L 18.7541,-5.3657 L 18.7541,-5.5334 L 18.754,-5.7011 L 18.754,-5.8688 L 18.7538,-6.0365" />
      <path d="M 18.7538,-6.0365 L 18.7536,-5.8688 L 18.7536,-5.7011 L 18.7535,-5.5334 L 18.7535,-5.3657 L 18.7535,-5.1981 L 18.7534,-5.0304 L 18.7534,-4.8627 L 18.7534,-4.695 L 18.7534,-4.5274 L 18.7533,-4.3597 L 18.7533,-4.192 L 18.7533,-4.0243 L 18.7533,-3.8566 L 18.7533,-3.689 L 18.7533,-3.5213 L 18.7532,-3.3536 L 18.7532,-3.1859 L 18.7532,-3.0182 L 18.7532,-2.8506 L 18.7532,-2.6829 L 18.7532,-2.5152 L 18.7532,-2.3475 L 18.7532,-2.1798 L 18.7532,-2.0122 L 18.7532,-1.8445 L 18.7532,-1.6768 L 18.7532,-1.5091 L 18.7531,-1.3414 L 18.7531,-1.1738 L 18.7531,-1.0061 L 18.7531,-0.8384 L 18.7531,-0.6707 L 18.7531,-0.503 L 18.7531,-0.3354 L 18.7531,-0.1677 L 18.7531,0.0 L 18.7531,0.1677 L 18.7531,0.3354 L 18.7531,0.503 L 18.7531,0.6707 L 18.7531,0.8384 L 18.7531,1.0061 L 18.7531,1.1738 L 18.7531,1.3414 L 18.7532,1.5091 L 18.7532,1.6768 L 18.7532,1.8445 L 18.7532,2.0122 L 18.7532,2.1798 L 18.7532,2.3475 L 18.7532,2.5152 L 18.7532,2.6829 L 18.7532,2.8506 L 18.7532,3.0182 L 18.7532,3.1859 L 18.7532,3.3536 L 18.7533,3.5213 L 18.7533,3.689 L 18.7533,3.8566 L 18.7533,4.0243 L 18.7533,4.192 L 18.7533,4.3597 L 18.7534,4.5274 L 18.7534,4.695 L 18.7534,4.8627 L 18.7534,5.0304 L 18.7535,5.1981 L 18.7535,5.3657 L 18.7535,5.5334 L 18.7536,5.7011 L 18.7536,5.8688 L 18.7538,6.0365" />
      <path d="M 17.9744,12.5635 L 17.9747,12.2145 L 17.9749,11.8656 L 17.975,11.5166 L 17.9751,11.1676 L 17.9751,10.8186 L 17.9752,10.4696 L 17.9752,10.1206 L 17.9753,9.7716 L 17.9753,9.4226 L 17.9754,9.0737 L 17.9754,8.7247 L 17.9755,8.3757 L 17.9755,8.0267 L 17.9755,7.6777 L 17.9756,7.3287 L 17.9756,6.9797 L 17.9756,6.6308 L 17.9756,6.2818 L 17.9756,5.9328 L 17.9757,5.5838 L 17.9757,5.2348 L 17.9757,4.8858 L 17.9757,4.5368 L 17.9757,4.1878 L 17.9757,3.8389 L 17.9758,3.4899 L 17.9758,3.1409 L 17.9758,2.7919 L 17.9758,2.4429 L 17.9758,2.0939 L 17.9758,1.7449 L 17.9758,1.3959 L 17.9758,1.047 L 17.9758,0.698 L 17.9758,0.349 L 17.9758,0.0 L 17.9758,-0.349 L 17.9758,-0.698 L 17.9758,-1.047 L 17.9758,-1.3959 L 17.9758,-1.7449 L 17.9758,-2.0939 L 17.9758,-2.4429 L 17.9758,-2.7919 L 17.9758,-3.1409 L 17.9758,-3.4899 L 17.9757,-3.8389 L 17.9757,-4.1878 L 17.9757,-4.5368 L 17.9757,-4.8858 L 17.9757,-5.2348 L 17.9757,-5.5838 L 17.9756,-5.9328 L 17.9756,-6.2818 L 17.9756,-6.6308 L 17.9756,-6.9797 L 17.9756,-7.3287 L 17.9755,-7.6777 L 17.9755,-8.0267 L 17.9755,-8.3757 L 17.9754,-8.7247 L 17.9754,-9.0737 L 17.9753,-9.4226 L 17.9753,-9.7716 L 17.9752,-10.1206 L 17.9752,-10.4696 L 17.9751,-10.8186 L 17.9751,-11.1676 L 17.975,-11.5166 L 17.9749,-11.8656 L 17.9747,-12.2145 L 17.9744,-12.5635" />
      <path d="M 16.5649,12.0505 L 16.5652,11.7158 L 16.5653,11.381 L 16.5654,11.0463 L 16.5655,10.7116 L 16.5656,10.3768 L 16.5656,10.0421 L 16.5657,9.7073 L 16.5657,9.3726 L 16.5658,9.0379 L 16.5658,8.7031 L 16.5658,8.3684 L 16.5659,8.0337 L 16.5659,7.6989 L 16.5659,7.3642 L 16.566,7.0295 L 16.566,6.6947 L 16.566,6.36 L 16.566,6.0253 L 16.5661,5.6905 L 16.5661,5.3558 L 16.5661,5.021 L 16.5661,4.6863 L 16.5661,4.3516 L 16.5661,4.0168 L 16.5662,3.6821 L 16.5662,3.3474 L 16.5662,3.0126 L 16.5662,2.6779 L 16.5662,2.3432 L 16.5662,2.0084 L 16.5662,1.6737 L 16.5662,1.3389 L 16.5662,1.0042 L 16.5662,0.6695 L 16.5662,0.3347 L 16.5662,0.0 L 16.5662,-0.3347 L 16.5662,-0.6695 L 16.5662,-1.0042 L 16.5662,-1.3389 L 16.5662,-1.6737 L 16.5662,-2.0084 L 16.5662,-2.3432 L 16.5662,-2.6779 L 16.5662,-3.0126 L 16.5662,-3.3474 L 16.5662,-3.6821 L 16.5661,-4.0168 L 16.5661,-4.3516 L 16.5661,-4.6863 L 16.5661,-5.021 L 16.5661,-5.3558 L 16.5661,-5.6905 L 16.566,-6.0253 L 16.566,-6.36 L 16.566,-6.6947 L 16.566,-7.0295 L 16.5659,-7.3642 L 16.5659,-7.6989 L 16.5659,-8.0337 L 16.5658,-8.3684 L 16.5658,-8.7031 L 16.5658,-9.0379 L 16.5657,-9.3726 L 16.5657,-9.7073 L 16.5656,-10.0421 L 16.5656,-10.3768 L 16.5655,-10.7116 L 16.5654,-11.0463 L 16.5653,-11.381 L 16.5652,-11.7158 L 16.5649,-12.0505" />
      <path d="M 18.7538,6.0365 L 18.7734,6.0436 L 18.793,6.0507 L 18.8125,6.0578 L 18.8321,6.065 L 18.8517,6.0721 L 18.8713,6.0792 L 18.8908,6.0863 L 18.9104,6.0935 L 18.93,6.1006 L 18.9496,6.1077 L 18.9691,6.1148 L 18.9887,6.122 L 19.0083,6.1291 L 19.0279,6.1362 L 19.0475,6.1433 L 19.067,6.1505 L 19.0866,6.1576 L 19.1062,6.1647 L 19.1258,6.1719 L 19.1453,6.179 L 19.1649,6.1861 L 19.1845,6.1932 L 19.2041,6.2004 L 19.2237,6.2075 L 19.2432,6.2146 L 19.2628,6.2217 L 19.2824,6.2289 L 19.302,6.236 L 19.3215,6.2431 L 19.3411,6.2502 L 19.3607,6.2574 L 19.3803,6.2645 L 19.3998,6.2716 L 19.4194,6.2787 L 19.439,6.2859 L 19.4586,6.293 L 19.4782,6.3001 L 19.4977,6.3072 L 19.5173,6.3144 L 19.5369,6.3215 L 19.5565,6.3286 L 19.576,6.3357 L 19.5956,6.3429 L 19.6152,6.35 L 19.6348,6.3571 L 19.6543,6.3642 L 19.6739,6.3714 L 19.6935,6.3785 L 19.7131,6.3856 L 19.7327,6.3927 L 19.7522,6.3999 L 19.7718,6.407 L 19.7914,6.4141 L 19.811,6.4212 L 19.8305,6.4284 L 19.8501,6.4355 L 19.8697,6.4426 L 19.8893,6.4497 L 19.9088,6.4569 L 19.9284,6.464 L 19.948,6.4711 L 19.9676,6.4782 L 19.9872,6.4854 L 20.0067,6.4925 L 20.0263,6.4996 L 20.0459,6.5067 L 20.0655,6.5139 L 20.085,6.521 L 20.1046,6.5281 L 20.1242,6.5352 L 20.1438,6.5424 L 20.1633,6.5495" />
      <path d="M 18.7538,-6.0365 L 18.7734,-6.0436 L 18.793,-6.0507 L 18.8125,-6.0578 L 18.8321,-6.065 L 18.8517,-6.0721 L 18.8713,-6.0792 L 18.8908,-6.0863 L 18.9104,-6.0935 L 18.93,-6.1006 L 18.9496,-6.1077 L 18.9691,-6.1148 L 18.9887,-6.122 L 19.0083,-6.1291 L 19.0279,-6.1362 L 19.0475,-6.1433 L 19.067,-6.1505 L 19.0866,-6.1576 L 19.1062,-6.1647 L 19.1258,-6.1719 L 19.1453,-6.179 L 19.1649,-6.1861 L 19.1845,-6.1932 L 19.2041,-6.2004 L 19.2237,-6.2075 L 19.2432,-6.2146 L 19.2628,-6.2217 L 19.2824,-6.2289 L 19.302,-6.236 L 19.3215,-6.2431 L 19.3411,-6.2502 L 19.3607,-6.2574 L 19.3803,-6.2645 L 19.3998,-6.2716 L 19.4194,-6.2787 L 19.439,-6.2859 L 19.4586,-6.293 L 19.4782,-6.3001 L 19.4977,-6.3072 L 19.5173,-6.3144 L 19.5369,-6.3215 L 19.5565,-6.3286 L 19.576,-6.3357 L 19.5956,-6.3429 L 19.6152,-6.35 L 19.6348,-6.3571 L 19.6543,-6.3642 L 19.6739,-6.3714 L 19.6935,-6.3785 L 19.7131,-6.3856 L 19.7327,-6.3927 L 19.7522,-6.3999 L 19.7718,-6.407 L 19.7914,-6.4141 L 19.811,-6.4212 L 19.8305,-6.4284 L 19.8501,-6.4355 L 19.8697,-6.4426 L 19.8893,-6.4497 L 19.9088,-6.4569 L 19.9284,-6.464 L 19.948,-6.4711 L 19.9676,-6.4782 L 19.9872,-6.4854 L 20.0067,-6.4925 L 20.0263,-6.4996 L 20.0459,-6.5067 L 20.0655,-6.5139 L 20.085,-6.521 L 20.1046,-6.5281 L 20.1242,-6.5352 L 20.1438,-6.5424 L 20.1633,-6.5495" />
      <path d="M 18.7538,6.0365 L 18.7234,6.12 L 18.693,6.2035 L 18.6626,6.2871 L 18.6322,6.3706 L 18.6018,6.4541 L 18.5714,6.5376 L 18.541,6.6212 L 18.5106,6.7047 L 18.4802,6.7882 L 18.4498,6.8718 L 18.4194,6.9553 L 18.389,7.0388 L 18.3586,7.1223 L 18.3282,7.2059 L 18.2978,7.2894 L 18.2674,7.3729 L 18.237,7.4564 L 18.2066,7.54 L 18.1762,7.6235 L 18.1458,7.707 L 18.1154,7.7906 L 18.085,7.8741 L 18.0546,7.9576 L 18.0242,8.0411 L 17.9938,8.1247 L 17.9634,8.2082 L 17.933,8.2917 L 17.9026,8.3753 L 17.8722,8.4588 L 17.8418,8.5423 L 17.8113,8.6258 L 17.7809,8.7094 L 17.7505,8.7929 L 17.7201,8.8764 L 17.6897,8.96 L 17.6593,9.0435 L 17.6289,9.127 L 17.5985,9.2105 L 17.5681,9.2941 L 17.5377,9.3776 L 17.5073,9.4611 L 17.4769,9.5447 L 17.4465,9.6282 L 17.4161,9.7117 L 17.3857,9.7952 L 17.3553,9.8788 L 17.3249,9.9623 L 17.2945,10.0458 L 17.2641,10.1294 L 17.2337,10.2129 L 17.2033,10.2964 L 17.1729,10.3799 L 17.1425,10.4635 L 17.1121,10.547 L 17.0817,10.6305 L 17.0513,10.714 L 17.0209,10.7976 L 16.9905,10.8811 L 16.9601,10.9646 L 16.9297,11.0482 L 16.8993,11.1317 L 16.8689,11.2152 L 16.8385,11.2987 L 16.8081,11.3823 L 16.7777,11.4658 L 16.7473,11.5493 L 16.7169,11.6329 L 16.6865,11.7164 L 16.6561,11.7999 L 16.6257,11.8834 L 16.5953,11.967 L 16.5649,12.0505" />
      <path d="M 18.7538,-6.0365 L 18.7234,-6.12 L 18.693,-6.2035 L 18.6626,-6.2871 L 18.6322,-6.3706 L 18.6018,-6.4541 L 18.5714,-6.5376 L 18.541,-6.6212 L 18.5106,-6.7047 L 18.4802,-6.7882 L 18.4498,-6.8718 L 18.4194,-6.9553 L 18.389,-7.0388 L 18.3586,-7.1223 L 18.3282,-7.2059 L 18.2978,-7.2894 L 18.2674,-7.3729 L 18.237,-7.4564 L 18.2066,-7.54 L 18.1762,-7.6235 L 18.1458,-7.707 L 18.1154,-7.7906 L 18.085,-7.8741 L 18.0546,-7.9576 L 18.0242,-8.0411 L 17.9938,-8.1247 L 17.9634,-8.2082 L 17.933,-8.2917 L 17.9026,-8.3753 L 17.8722,-8.4588 L 17.8418,-8.5423 L 17.8113,-8.6258 L 17.7809,-8.7094 L 17.7505,-8.7929 L 17.7201,-8.8764 L 17.6897,-8.96 L 17.6593,-9.0435 L 17.6289,-9.127 L 17.5985,-9.2105 L 17.5681,-9.2941 L 17.5377,-9.3776 L 17.5073,-9.4611 L 17.4769,-9.5447 L 17.4465,-9.6282 L 17.4161,-9.7117 L 17.3857,-9.7952 L 17.3553,-9.8788 L 17.3249,-9.9623 L 17.2945,-10.0458 L 17.2641,-10.1294 L 17.2337,-10.2129 L 17.2033,-10.2964 L 17.1729,-10.3799 L 17.1425,-10.4635 L 17.1121,-10.547 L 17.0817,-10.6305 L 17.0513,-10.714 L 17.0209,-10.7976 L 16.9905,-10.8811 L 16.9601,-10.9646 L 16.9297,-11.0482 L 16.8993,-11.1317 L 16.8689,-11.2152 L 16.8385,-11.2987 L 16.8081,-11.3823 L 16.7777,-11.4658 L 16.7473,-11.5493 L 16.7169,-11.6329 L 16.6865,-11.7164 L 16.6561,-11.7999 L 16.6257,-11.8834 L 16.5953,-11.967 L 16.5649,-12.0505" />
    </g>
  </g>
</svg>