<?xml version='1.0' encoding='utf-8'?>
<svg width="37.9296mm" height="27.7258mm" viewBox="-13.86 -12.9323 37.9296 27.7258" version="1.1" xmlns="http://www.w3.org/2000/svg">
  <g transform="scale(1,-1)" stroke-linecap="round">
    <g fill="none" stroke="rgb(0,0,0)" stroke-width="0.4" id="Visible">
      <path d="M 10.05,-10.9834 L 9.7708,-10.9834 L 9.4917,-10.9834 L 9.2125,-10.9834 L 8.9333,-10.9834 L 8.6542,-10.9834 L 8.375,-10.9834 L 8.0958,-10.9834 L 7.8167,-10.9834 L 7.5375,-10.9834 L 7.2583,-10.9834 L 6.9792,-10.9834 L 6.7,-10.9834 L 6.4208,-10.9834 L 6.1417,-10.9834 L 5.8625,-10.9834 L 5.5833,-10.9834 L 5.3042,-10.9834 L 5.025,-10.9834 L 4.7458,-10.9834 L 4.4667,-10.9834 L 4.1875,-10.9834 L 3.9083,-10.9834 L 3.6292,-10.9834 L 3.35,-10.9834 L 3.0708,-10.9834 L 2.7917,-10.9834 L 2.5125,-10.9834 L 2.2333,-10.9834 L 1.9542,-10.9834 L 1.675,-10.9834 L 1.3958,-10.9834 L 1.1167,-10.9834 L 0.8375,-10.9834 L 0.5583,-10.9834 L 0.2792,-10.9834 L 0.0,-10.9834 L -0.2792,-10.9834 L -0.5583,-10.9834 L -0.8375,-10.9834 L -1.1167,-10.9834 L -1.3958,-10.9834 L -1.675,-10.9834 L -1.9542,-10.9834 L -2.2333,-10.9834 L -2.5125,-10.9834 L -2.7917,-10.9834 L -3.0708,-10.9834 L -3.35,-10.9834 L -3.6292,-10.9834 L -3.9083,-10.9834 L -4.1875,-10.9834 L -4.4667,-10.9834 L -4.7458,-10.9834 L -5.025,-10.9834 L -5.3042,-10.9834 L -5.5833,-10.9834 L -5.8625,-10.9834 L -6.1417,-10.9834 L -6.4208,-10.9834 L -6.7,-10.9834 L -6.9792,-10.9834 L -7.2583,-10.9834 L -7.5375,-10.9834 L -7.8167,-10.9834 L -8.0958,-10.9834 L -8.375,-10.9834 L -8.6542,-10.9834 L -8.9333,-10.9834 L -9.2125,-10.9834 L -9.4917,-10.9834 L -9.7708,-10.9834 L -10.05,-10.9834" />
      <path d="M 0.0,5.8166 L -0.1472,5.815 L -0.2944,5.8102 L -0.4414,5.8021 L -0.5882,5.7909 L -0.7347,5.7765 L -0.8809,5.7589 L -1.0266,5.7381 L -1.1719,5.7141 L -1.3166,5.6869 L -1.4606,5.6566 L -1.604,5.6232 L -1.7466,5.5867 L -1.8884,5.547 L -2.0293,5.5043 L -2.1692,5.4585 L -2.3081,5.4097 L -2.4459,5.3578 L -2.5826,5.303 L -2.718,5.2452 L -2.8521,5.1844 L -2.9848,5.1208 L -3.1162,5.0542 L -3.246,4.9848 L -3.3743,4.9126 L -3.501,4.8377 L -3.626,4.7599 L -3.7494,4.6795 L -3.8709,4.5964 L -3.9906,4.5106 L -4.1083,4.4223 L -4.2242,4.3314 L -4.338,4.2381 L -4.4498,4.1422 L -4.5594,4.044 L -4.6669,3.9433 L -4.7721,3.8404 L -4.8751,3.7352 L -4.9758,3.6277 L -5.0741,3.5181 L -5.1699,3.4064 L -5.2634,3.2926 L -5.3543,3.1768 L -5.4427,3.0591 L -5.5284,2.9394 L -5.6116,2.8179 L -5.6921,2.6946 L -5.7698,2.5696 L -5.8449,2.443 L -5.9171,2.3147 L -5.9866,2.1849 L -6.0531,2.0535 L -6.1168,1.9208 L -6.1776,1.7867 L -6.2355,1.6514 L -6.2904,1.5147 L -6.3423,1.377 L -6.3912,1.2381 L -6.437,1.0982 L -6.4798,0.9573 L -6.5195,0.8155 L -6.5561,0.6729 L -6.5896,0.5296 L -6.6199,0.3855 L -6.6471,0.2408 L -6.6711,0.0955 L -6.692,-0.0502 L -6.7096,-0.1964 L -6.7241,-0.3429 L -6.7354,-0.4897 L -6.7435,-0.6367 L -6.7483,-0.7838 L -6.75,-0.931" />
      <path d="M 6.75,-0.931 L 6.7483,-0.7838 L 6.7435,-0.6367 L 6.7354,-0.4897 L 6.7241,-0.3429 L 6.7096,-0.1964 L 6.692,-0.0502 L 6.6711,0.0955 L 6.6471,0.2408 L 6.6199,0.3855 L 6.5896,0.5296 L 6.5561,0.6729 L 6.5195,0.8155 L 6.4798,0.9573 L 6.437,1.0982 L 6.3912,1.2381 L 6.3423,1.377 L 6.2904,1.5147 L 6.2355,1.6514 L 6.1776,1.7867 L 6.1168,1.9208 L 6.0531,2.0535 L 5.9866,2.1849 L 5.9171,2.3147 L 5.8449,2.443 L 5.7698,2.5696 L 5.6921,2.6946 L 5.6116,2.8179 L 5.5284,2.9394 L 5.4427,3.0591 L 5.3543,3.1768 L 5.2634,3.2926 L 5.1699,3.4064 L 5.0741,3.5181 L 4.9758,3.6277 L 4.8751,3.7352 L 4.7721,3.8404 L 4.6669,3.9433 L 4.5594,4.044 L 4.4498,4.1422 L 4.338,4.2381 L 4.2242,4.3314 L 4.1083,4.4223 L 3.9906,4.5106 L 3.8709,4.5964 L 3.7494,4.6795 L 3.626,4.7599 L 3.501,4.8377 L 3.3743,4.9126 L 3.246,4.9848 L 3.1162,5.0542 L 2.9848,5.1208 L 2.8521,5.1844 L 2.718,5.2452 L 2.5826,5.303 L 2.4459,5.3578 L 2.3081,5.4097 L 2.1692,5.4585 L 2.0293,5.5043 L 1.8884,5.547 L 1.7466,5.5867 L 1.604,5.6232 L 1.4606,5.6566 L 1.3166,5.6869 L 1.1719,5.7141 L 1.0266,5.7381 L 0.8809,5.7589 L 0.7347,5.7765 L 0.5882,5.7909 L 0.4414,5.8021 L 0.2944,5.8102 L 0.1472,5.815 L -0.0,5.8166" />
      <path d="M -10.05,9.1223 L -10.05,8.8431 L -10.05,8.564 L -10.05,8.2848 L -10.05,8.0056 L -10.05,7.7264 L -10.05,7.4472 L -10.05,7.168 L -10.05,6.8888 L -10.05,6.6096 L -10.05,6.3304 L -10.05,6.0512 L -10.05,5.772 L -10.05,5.4928 L -10.05,5.2136 L -10.05,4.9344 L -10.05,4.6552 L -10.05,4.3761 L -10.05,4.0969 L -10.05,3.8177 L -10.05,3.5385 L -10.05,3.2593 L -10.05,2.9801 L -10.05,2.7009 L -10.05,2.4217 L -10.05,2.1425 L -10.05,1.8633 L -10.05,1.5841 L -10.05,1.3049 L -10.05,1.0257 L -10.05,0.7465 L -10.05,0.4673 L -10.05,0.1881 L -10.05,-0.091 L -10.05,-0.3702 L -10.05,-0.6494 L -10.05,-0.9286 L -10.05,-1.2078 L -10.05,-1.487 L -10.05,-1.7662 L -10.05,-2.0454 L -10.05,-2.3246 L -10.05,-2.6038 L -10.05,-2.883 L -10.05,-3.1622 L -10.05,-3.4414 L -10.05,-3.7206 L -10.05,-3.9998 L -10.05,-4.279 L -10.05,-4.5581 L -10.05,-4.8373 L -10.05,-5.1165 L -10.05,-5.3957 L -10.05,-5.6749 L -10.05,-5.9541 L -10.05,-6.2333 L -10.05,-6.5125 L -10.05,-6.7917 L -10.05,-7.0709 L -10.05,-7.3501 L -10.05,-7.6293 L -10.05,-7.9085 L -10.05,-8.1877 L -10.05,-8.4669 L -10.05,-8.7461 L -10.05,-9.0252 L -10.05,-9.3044 L -10.05,-9.5836 L -10.05,-9.8628 L -10.05,-10.142 L -10.05,-10.4212 L -10.05,-10.7004 L -10.05,-10.9796" />
      <path d="M -10.05,-10.9796 L -10.05,-10.9797 L -10.05,-10.9798 L -10.05,-10.9799 L -10.05,-10.98 L -10.05,-10.9801 L -10.05,-10.9802 L -10.05,-10.9803 L -10.05,-10.9804 L -10.05,-10.9805 L -10.05,-10.9806 L -10.05,-10.9807 L -10.05,-10.9808 L -10.05,-10.9809 L -10.05,-10.981 L -10.05,-10.9811 L -10.05,-10.9812 L -10.05,-10.9813 L -10.05,-10.9814 L -10.05,-10.9815 L -10.05,-10.9816 L -10.05,-10.9817 L -10.05,-10.9818 L -10.05,-10.9819 L -10.05,-10.982 L -10.05,-10.9821 L -10.05,-10.9822 L -10.05,-10.9823 L -10.05,-10.9824 L -10.05,-10.9825 L -10.05,-10.9826 L -10.05,-10.9827 L -10.05,-10.9828 L -10.05,-10.9829 L -10.05,-10.983 L -10.05,-10.9831 L -10.05,-10.9832 L -10.05,-10.9833 L -10.05,-10.9834" />
      <path d="M 10.05,-10.9796 L 10.05,-10.9797 L 10.05,-10.9798 L 10.05,-10.9799 L 10.05,-10.98 L 10.05,-10.9801 L 10.05,-10.9802 L 10.05,-10.9803 L 10.05,-10.9804 L 10.05,-10.9805 L 10.05,-10.9806 L 10.05,-10.9807 L 10.05,-10.9808 L 10.05,-10.9809 L 10.05,-10.981 L 10.05,-10.9811 L 10.05,-10.9812 L 10.05,-10.9813 L 10.05,-10.9814 L 10.05,-10.9815 L 10.05,-10.9816 L 10.05,-10.9817 L 10.05,-10.9818 L 10.05,-10.9819 L 10.05,-10.982 L 10.05,-10.9821 L 10.05,-10.9822 L 10.05,-10.9823 L 10.05,-10.9824 L 10.05,-10.9825 L 10.05,-10.9826 L 10.05,-10.9827 L 10.05,-10.9828 L 10.05,-10.9829 L 10.05,-10.983 L 10.05,-10.9831 L 10.05,-10.9832 L 10.05,-10.9833 L 10.05,-10.9834" />
      <path d="M 10.05,-10.9796 L 9.7708,-10.9796 L 9.4917,-10.9796 L 9.2125,-10.9796 L 8.9333,-10.9796 L 8.6542,-10.9796 L 8.375,-10.9796 L 8.0958,-10.9796 L 7.8167,-10.9796 L 7.5375,-10.9796 L 7.2583,-10.9796 L 6.9792,-10.9796 L 6.7,-10.9796 L 6.4208,-10.9796 L 6.1417,-10.9796 L 5.8625,-10.9796 L 5.5833,-10.9796 L 5.3042,-10.9796 L 5.025,-10.9796 L 4.7458,-10.9796 L 4.4667,-10.9796 L 4.1875,-10.9796 L 3.9083,-10.9796 L 3.6292,-10.9796 L 3.35,-10.9796 L 3.0708,-10.9796 L 2.7917,-10.9796 L 2.5125,-10.9796 L 2.2333,-10.9796 L 1.9542,-10.9796 L 1.675,-10.9796 L 1.3958,-10.9796 L 1.1167,-10.9796 L 0.8375,-10.9796 L 0.5583,-10.9796 L 0.2792,-10.9796 L 0.0,-10.9796 L -0.2792,-10.9796 L -0.5583,-10.9796 L -0.8375,-10.9796 L -1.1167,-10.9796 L -1.3958,-10.9796 L -1.675,-10.9796 L -1.9542,-10.9796 L -2.2333,-10.9796 L -2.5125,-10.9796 L -2.7917,-10.9796 L -3.0708,-10.9796 L -3.35,-10.9796 L -3.6292,-10.9796 L -3.9083,-10.9796 L -4.1875,-10.9796 L -4.4667,-10.9796 L -4.7458,-10.9796 L -5.025,-10.9796 L -5.3042,-10.9796 L -5.5833,-10.9796 L -5.8625,-10.9796 L -6.1417,-10.9796 L -6.4208,-10.9796 L -6.7,-10.9796 L -6.9792,-10.9796 L -7.2583,-10.9796 L -7.5375,-10.9796 L -7.8167,-10.9796 L -8.0958,-10.9796 L -8.375,-10.9796 L -8.6542,-10.9796 L -8.9333,-10.9796 L -9.2125,-10.9796 L -9.4917,-10.9796 L -9.7708,-10.9796 L -10.05,-10.9796" />
      <path d="M -10.05,9.1223 L -9.7708,9.1223 L -9.4917,9.1223 L -9.2125,9.1223 L -8.9333,9.1223 L -8.6542,9.1223 L -8.375,9.1223 L -8.0958,9.1223 L -7.8167,9.1223 L -7.5375,9.1223 L -7.2583,9.1223 L -6.9792,9.1223 L -6.7,9.1223 L -6.4208,9.1223 L -6.1417,9.1223 L -5.8625,9.1223 L -5.5833,9.1223 L -5.3042,9.1223 L -5.025,9.1223 L -4.7458,9.1223 L -4.4667,9.1223 L -4.1875,9.1223 L -3.9083,9.1223 L -3.6292,9.1223 L -3.35,9.1223 L -3.0708,9.1223 L -2.7917,9.1223 L -2.5125,9.1223 L -2.2333,9.1223 L -1.9542,9.1223 L -1.675,9.1223 L -1.3958,9.1223 L -1.1167,9.1223 L -0.8375,9.1223 L -0.5583,9.1223 L -0.2792,9.1223 L 0.0,9.1223 L 0.2792,9.1223 L 0.5583,9.1223 L 0.8375,9.1223 L 1.1167,9.1223 L 1.3958,9.1223 L 1.675,9.1223 L 1.9542,9.1223 L 2.2333,9.1223 L 2.5125,9.1223 L 2.7917,9.1223 L 3.0708,9.1223 L 3.35,9.1223 L 3.6292,9.1223 L 3.9083,9.1223 L 4.1875,9.1223 L 4.4667,9.1223 L 4.7458,9.1223 L 5.025,9.1223 L 5.3042,9.1223 L 5.5833,9.1223 L 5.8625,9.1223 L 6.1417,9.1223 L 6.4208,9.1223 L 6.7,9.1223 L 6.9792,9.1223 L 7.2583,9.1223 L 7.5375,9.1223 L 7.8167,9.1223 L 8.0958,9.1223 L 8.375,9.1223 L 8.6542,9.1223 L 8.9333,9.1223 L 9.2125,9.1223 L 9.4917,9.1223 L 9.7708,9.1223 L 10.05,9.1223" />
      <path d="M 10.05,9.1223 L 10.05,8.8431 L 10.05,8.564 L 10.05,8.2848 L 10.05,8.0056 L 10.05,7.7264 L 10.05,7.4472 L 10.05,7.168 L 10.05,6.8888 L 10.05,6.6096 L 10.05,6.3304 L 10.05,6.0512 L 10.05,5.772 L 10.05,5.4928 L 10.05,5.2136 L 10.05,4.9344 L 10.05,4.6552 L 10.05,4.3761 L 10.05,4.0969 L 10.05,3.8177 L 10.05,3.5385 L 10.05,3.2593 L 10.05,2.9801 L 10.05,2.7009 L 10.05,2.4217 L 10.05,2.1425 L 10.05,1.8633 L 10.05,1.5841 L 10.05,1.3049 L 10.05,1.0257 L 10.05,0.7465 L 10.05,0.4673 L 10.05,0.1881 L 10.05,-0.091 L 10.05,-0.3702 L 10.05,-0.6494 L 10.05,-0.9286 L 10.05,-1.2078 L 10.05,-1.487 L 10.05,-1.7662 L 10.05,-2.0454 L 10.05,-2.3246 L 10.05,-2.6038 L 10.05,-2.883 L 10.05,-3.1622 L 10.05,-3.4414 L 10.05,-3.7206 L 10.05,-3.9998 L 10.05,-4.279 L 10.05,-4.5581 L 10.05,-4.8373 L 10.05,-5.1165 L 10.05,-5.3957 L 10.05,-5.6749 L 10.05,-5.9541 L 10.05,-6.2333 L 10.05,-6.5125 L 10.05,-6.7917 L 10.05,-7.0709 L 10.05,-7.3501 L 10.05,-7.6293 L 10.05,-7.9085 L 10.05,-8.1877 L 10.05,-8.4669 L 10.05,-8.7461 L 10.05,-9.0252 L 10.05,-9.3044 L 10.05,-9.5836 L 10.05,-9.8628 L 10.05,-10.142 L 10.05,-10.4212 L 10.05,-10.7004 L 10.05,-10.9796" />
      <path d="M 0.0,5.822 L -0.147,5.8138 L -0.2939,5.8055 L -0.4409,5.7973 L -0.5878,5.789 L -0.7348,5.7808 L -0.8802,5.7584 L -1.0253,5.7338 L -1.1704,5.7091 L -1.3155,5.6845 L -1.4606,5.6598 L -1.6031,5.6236 L -1.7446,5.5829 L -1.886,5.5421 L -2.0274,5.5014 L -2.1689,5.4606 L -2.3072,5.411 L -2.4432,5.3546 L -2.5792,5.2983 L -2.7151,5.242 L -2.8511,5.1856 L -2.984,5.1229 L -3.1129,5.0517 L -3.2417,4.9805 L -3.3705,4.9093 L -3.4993,4.8381 L -3.6256,4.7629 L -3.7457,4.6777 L -3.8657,4.5925 L -3.9858,4.5073 L -4.1058,4.4222 L -4.2244,4.3351 L -4.3341,4.237 L -4.4438,4.139 L -4.5536,4.0409 L -4.6633,3.9428 L -4.7731,3.8447 L -4.8712,3.7349 L -4.9692,3.6252 L -5.0673,3.5154 L -5.1654,3.4057 L -5.2635,3.2959 L -5.3505,3.1773 L -5.4356,3.0573 L -5.5208,2.9372 L -5.606,2.8172 L -5.6911,2.6971 L -5.7663,2.5708 L -5.8375,2.442 L -5.9087,2.3131 L -5.9799,2.1843 L -6.0511,2.0555 L -6.1138,1.9225 L -6.1701,1.7866 L -6.2264,1.6506 L -6.2827,1.5146 L -6.3391,1.3786 L -6.3887,1.2403 L -6.4294,1.0988 L -6.4702,0.9574 L -6.5109,0.8159 L -6.5517,0.6745 L -6.5878,0.532 L -6.6125,0.3869 L -6.6371,0.2418 L -6.6618,0.0967 L -6.6864,-0.0484 L -6.7087,-0.1938 L -6.717,-0.3408 L -6.7252,-0.4877 L -6.7335,-0.6347 L -6.7417,-0.7817 L -6.75,-0.9286" />
      <path d="M -6.75,-0.9286 L -6.7171,-1.2207 L -6.6842,-1.5128 L -6.6513,-1.8048 L -6.6184,-2.0969 L -6.5855,-2.389 L -6.4976,-2.6685 L -6.4005,-2.946 L -6.3035,-3.2234 L -6.2064,-3.5008 L -6.1093,-3.7782 L -5.9699,-4.0353 L -5.8136,-4.2842 L -5.6572,-4.533 L -5.5008,-4.7819 L -5.3445,-5.0308 L -5.1587,-5.2562 L -4.9509,-5.4641 L -4.7431,-5.6719 L -4.5352,-5.8798 L -4.3274,-6.0876 L -4.102,-6.2734 L -3.8532,-6.4298 L -3.6043,-6.5862 L -3.3554,-6.7426 L -3.1066,-6.899 L -2.8496,-7.0385 L -2.5721,-7.1355 L -2.2947,-7.2326 L -2.0173,-7.3297 L -1.7399,-7.4268 L -1.4604,-7.5147 L -1.1683,-7.5476 L -0.8762,-7.5805 L -0.5841,-7.6135 L -0.2921,-7.6464 L 0.0,-7.6793 L 0.2921,-7.6464 L 0.5841,-7.6135 L 0.8762,-7.5805 L 1.1683,-7.5476 L 1.4604,-7.5147 L 1.7399,-7.4268 L 2.0173,-7.3297 L 2.2947,-7.2326 L 2.5721,-7.1355 L 2.8496,-7.0385 L 3.1066,-6.899 L 3.3554,-6.7426 L 3.6043,-6.5862 L 3.8532,-6.4298 L 4.102,-6.2734 L 4.3274,-6.0876 L 4.5352,-5.8798 L 4.7431,-5.6719 L 4.9509,-5.4641 L 5.1587,-5.2562 L 5.3445,-5.0308 L 5.5008,-4.7819 L 5.6572,-4.533 L 5.8136,-4.2842 L 5.9699,-4.0353 L 6.1093,-3.7782 L 6.2064,-3.5008 L 6.3035,-3.2234 L 6.4005,-2.946 L 6.4976,-2.6685 L 6.5855,-2.389 L 6.6184,-2.0969 L 6.6513,-1.8048 L 6.6842,-1.5128 L 6.7171,-1.2207 L 6.75,-0.9286" />
      <path d="M 6.75,-0.9286 L 6.7417,-0.7817 L 6.7335,-0.6347 L 6.7252,-0.4877 L 6.717,-0.3408 L 6.7087,-0.1938 L 6.6864,-0.0484 L 6.6618,0.0967 L 6.6371,0.2418 L 6.6125,0.3869 L 6.5878,0.532 L 6.5517,0.6745 L 6.5109,0.8159 L 6.4702,0.9574 L 6.4294,1.0988 L 6.3887,1.2403 L 6.3391,1.3786 L 6.2827,1.5146 L 6.2264,1.6506 L 6.1701,1.7866 L 6.1138,1.9225 L 6.0511,2.0555 L 5.9799,2.1843 L 5.9087,2.3131 L 5.8375,2.442 L 5.7663,2.5708 L 5.6911,2.6971 L 5.606,2.8172 L 5.5208,2.9372 L 5.4356,3.0573 L 5.3505,3.1773 L 5.2635,3.2959 L 5.1654,3.4057 L 5.0673,3.5154 L 4.9692,3.6252 L 4.8712,3.7349 L 4.7731,3.8447 L 4.6633,3.9428 L 4.5536,4.0409 L 4.4438,4.139 L 4.3341,4.237 L 4.2244,4.3351 L 4.1058,4.4222 L 3.9858,4.5073 L 3.8657,4.5925 L 3.7457,4.6777 L 3.6256,4.7629 L 3.4993,4.8381 L 3.3705,4.9093 L 3.2417,4.9805 L 3.1129,5.0517 L 2.984,5.1229 L 2.8511,5.1856 L 2.7151,5.242 L 2.5792,5.2983 L 2.4432,5.3546 L 2.3072,5.411 L 2.1689,5.4606 L 2.0274,5.5014 L 1.886,5.5421 L 1.7446,5.5829 L 1.6031,5.6236 L 1.4606,5.6598 L 1.3155,5.6845 L 1.1704,5.7091 L 1.0253,5.7338 L 0.8802,5.7584 L 0.7348,5.7808 L 0.5878,5.789 L 0.4409,5.7973 L 0.2939,5.8055 L 0.147,5.8138 L 0.0,5.822" />
      <path d="M 20.2596,-10.9716 L 20.2594,-10.9719 L 20.2593,-10.9721 L 20.2592,-10.9724 L 20.259,-10.9727 L 20.2589,-10.9729 L 20.2588,-10.9732 L 20.2586,-10.9734 L 20.2585,-10.9737 L 20.2584,-10.974 L 20.2582,-10.9742 L 20.2581,-10.9745 L 20.258,-10.9747 L 20.2578,-10.975 L 20.2577,-10.9753 L 20.2576,-10.9755 L 20.2574,-10.9758 L 20.2573,-10.976 L 20.2572,-10.9763 L 20.257,-10.9766 L 20.2569,-10.9768 L 20.2568,-10.9771 L 20.2566,-10.9773 L 20.2565,-10.9776 L 20.2564,-10.9779 L 20.2562,-10.9781 L 20.2561,-10.9784 L 20.256,-10.9786 L 20.2559,-10.9789 L 20.2557,-10.9792 L 20.2556,-10.9794 L 20.2555,-10.9797 L 20.2553,-10.9799 L 20.2552,-10.9802 L 20.2551,-10.9805 L 20.2549,-10.9807 L 20.2548,-10.981 L 20.2547,-10.9812 L 20.2545,-10.9815 L 20.2544,-10.9818 L 20.2543,-10.982 L 20.2541,-10.9823 L 20.254,-10.9825 L 20.2539,-10.9828 L 20.2537,-10.9831 L 20.2536,-10.9833 L 20.2535,-10.9836 L 20.2533,-10.9838 L 20.2532,-10.9841 L 20.2531,-10.9844 L 20.2529,-10.9846 L 20.2528,-10.9849 L 20.2527,-10.9851 L 20.2525,-10.9854 L 20.2524,-10.9857 L 20.2523,-10.9859 L 20.2521,-10.9862 L 20.252,-10.9864 L 20.2519,-10.9867 L 20.2517,-10.987 L 20.2516,-10.9872 L 20.2515,-10.9875 L 20.2513,-10.9877 L 20.2512,-10.988 L 20.2511,-10.9883 L 20.2509,-10.9885 L 20.2508,-10.9888 L 20.2507,-10.989 L 20.2505,-10.9893 L 20.2504,-10.9896 L 20.2503,-10.9898 L 20.2501,-10.9901 L 20.25,-10.9903" />
      <path d="M 20.2596,-10.9716 L 20.2596,-10.6925 L 20.2596,-10.4133 L 20.2596,-10.1341 L 20.2596,-9.855 L 20.2596,-9.5758 L 20.2596,-9.2966 L 20.2596,-9.0175 L 20.2596,-8.7383 L 20.2596,-8.4591 L 20.2596,-8.18 L 20.2596,-7.9008 L 20.2596,-7.6216 L 20.2596,-7.3425 L 20.2596,-7.0633 L 20.2596,-6.7841 L 20.2596,-6.505 L 20.2596,-6.2258 L 20.2596,-5.9466 L 20.2596,-5.6675 L 20.2596,-5.3883 L 20.2596,-5.1091 L 20.2596,-4.83 L 20.2596,-4.5508 L 20.2596,-4.2716 L 20.2596,-3.9925 L 20.2596,-3.7133 L 20.2596,-3.4341 L 20.2596,-3.155 L 20.2596,-2.8758 L 20.2596,-2.5966 L 20.2596,-2.3175 L 20.2596,-2.0383 L 20.2596,-1.7591 L 20.2596,-1.48 L 20.2596,-1.2008 L 20.2596,-0.9216 L 20.2596,-0.6425 L 20.2596,-0.3633 L 20.2596,-0.0841 L 20.2596,0.195 L 20.2596,0.4742 L 20.2596,0.7534 L 20.2596,1.0325 L 20.2596,1.3117 L 20.2596,1.5909 L 20.2596,1.87 L 20.2596,2.1492 L 20.2596,2.4284 L 20.2596,2.7075 L 20.2596,2.9867 L 20.2596,3.2659 L 20.2596,3.545 L 20.2596,3.8242 L 20.2596,4.1034 L 20.2596,4.3825 L 20.2596,4.6617 L 20.2596,4.9409 L 20.2596,5.22 L 20.2596,5.4992 L 20.2596,5.7784 L 20.2596,6.0575 L 20.2596,6.3367 L 20.2596,6.6159 L 20.2596,6.895 L 20.2596,7.1742 L 20.2596,7.4534 L 20.2596,7.7325 L 20.2596,8.0117 L 20.2596,8.2909 L 20.2596,8.57 L 20.2596,8.8492 L 20.2596,9.1284" />
      <path d="M 14.05,9.1097 L 14.0792,8.8305 L 14.1083,8.5513 L 14.1375,8.2722 L 14.1667,7.993 L 14.1958,7.7138 L 14.225,7.4347 L 14.2542,7.1555 L 14.2833,6.8763 L 14.3125,6.5972 L 14.3417,6.318 L 14.3708,6.0388 L 14.4,5.7597 L 14.4292,5.4805 L 14.4583,5.2013 L 14.4875,4.9222 L 14.5167,4.643 L 14.5458,4.3638 L 14.575,4.0847 L 14.6042,3.8055 L 14.6333,3.5263 L 14.6625,3.2472 L 14.6917,2.968 L 14.7208,2.6888 L 14.75,2.4097 L 14.7792,2.1305 L 14.8083,1.8513 L 14.8375,1.5722 L 14.8667,1.293 L 14.8958,1.0138 L 14.925,0.7347 L 14.9542,0.4555 L 14.9833,0.1763 L 15.0125,-0.1028 L 15.0417,-0.382 L 15.0708,-0.6612 L 15.1,-0.9403 L 15.1292,-1.2195 L 15.1583,-1.4987 L 15.1875,-1.7778 L 15.2167,-2.057 L 15.2458,-2.3362 L 15.275,-2.6153 L 15.3042,-2.8945 L 15.3333,-3.1737 L 15.3625,-3.4528 L 15.3917,-3.732 L 15.4208,-4.0112 L 15.45,-4.2903 L 15.4792,-4.5695 L 15.5083,-4.8487 L 15.5375,-5.1278 L 15.5667,-5.407 L 15.5958,-5.6862 L 15.625,-5.9653 L 15.6542,-6.2445 L 15.6833,-6.5237 L 15.7125,-6.8028 L 15.7417,-7.082 L 15.7708,-7.3612 L 15.8,-7.6403 L 15.8292,-7.9195 L 15.8583,-8.1987 L 15.8875,-8.4778 L 15.9167,-8.757 L 15.9458,-9.0362 L 15.975,-9.3153 L 16.0042,-9.5945 L 16.0333,-9.8737 L 16.0625,-10.1528 L 16.0917,-10.432 L 16.1208,-10.7112 L 16.15,-10.9903" />
      <path d="M 16.15,-10.9903 L 16.2069,-10.9903 L 16.2639,-10.9903 L 16.3208,-10.9903 L 16.3778,-10.9903 L 16.4347,-10.9903 L 16.4917,-10.9903 L 16.5486,-10.9903 L 16.6056,-10.9903 L 16.6625,-10.9903 L 16.7194,-10.9903 L 16.7764,-10.9903 L 16.8333,-10.9903 L 16.8903,-10.9903 L 16.9472,-10.9903 L 17.0042,-10.9903 L 17.0611,-10.9903 L 17.1181,-10.9903 L 17.175,-10.9903 L 17.2319,-10.9903 L 17.2889,-10.9903 L 17.3458,-10.9903 L 17.4028,-10.9903 L 17.4597,-10.9903 L 17.5167,-10.9903 L 17.5736,-10.9903 L 17.6306,-10.9903 L 17.6875,-10.9903 L 17.7444,-10.9903 L 17.8014,-10.9903 L 17.8583,-10.9903 L 17.9153,-10.9903 L 17.9722,-10.9903 L 18.0292,-10.9903 L 18.0861,-10.9903 L 18.1431,-10.9903 L 18.2,-10.9903 L 18.2569,-10.9903 L 18.3139,-10.9903 L 18.3708,-10.9903 L 18.4278,-10.9903 L 18.4847,-10.9903 L 18.5417,-10.9903 L 18.5986,-10.9903 L 18.6556,-10.9903 L 18.7125,-10.9903 L 18.7694,-10.9903 L 18.8264,-10.9903 L 18.8833,-10.9903 L 18.9403,-10.9903 L 18.9972,-10.9903 L 19.0542,-10.9903 L 19.1111,-10.9903 L 19.1681,-10.9903 L 19.225,-10.9903 L 19.2819,-10.9903 L 19.3389,-10.9903 L 19.3958,-10.9903 L 19.4528,-10.9903 L 19.5097,-10.9903 L 19.5667,-10.9903 L 19.6236,-10.9903 L 19.6806,-10.9903 L 19.7375,-10.9903 L 19.7944,-10.9903 L 19.8514,-10.9903 L 19.9083,-10.9903 L 19.9653,-10.9903 L 20.0222,-10.9903 L 20.0792,-10.9903 L 20.1361,-10.9903 L 20.1931,-10.9903 L 20.25,-10.9903" />
      <path d="M 16.1596,-10.9716 L 16.2165,-10.9716 L 16.2735,-10.9716 L 16.3304,-10.9716 L 16.3874,-10.9716 L 16.4443,-10.9716 L 16.5012,-10.9716 L 16.5582,-10.9716 L 16.6151,-10.9716 L 16.6721,-10.9716 L 16.729,-10.9716 L 16.786,-10.9716 L 16.8429,-10.9716 L 16.8999,-10.9716 L 16.9568,-10.9716 L 17.0137,-10.9716 L 17.0707,-10.9716 L 17.1276,-10.9716 L 17.1846,-10.9716 L 17.2415,-10.9716 L 17.2985,-10.9716 L 17.3554,-10.9716 L 17.4124,-10.9716 L 17.4693,-10.9716 L 17.5262,-10.9716 L 17.5832,-10.9716 L 17.6401,-10.9716 L 17.6971,-10.9716 L 17.754,-10.9716 L 17.811,-10.9716 L 17.8679,-10.9716 L 17.9249,-10.9716 L 17.9818,-10.9716 L 18.0387,-10.9716 L 18.0957,-10.9716 L 18.1526,-10.9716 L 18.2096,-10.9716 L 18.2665,-10.9716 L 18.3235,-10.9716 L 18.3804,-10.9716 L 18.4374,-10.9716 L 18.4943,-10.9716 L 18.5512,-10.9716 L 18.6082,-10.9716 L 18.6651,-10.9716 L 18.7221,-10.9716 L 18.779,-10.9716 L 18.836,-10.9716 L 18.8929,-10.9716 L 18.9499,-10.9716 L 19.0068,-10.9716 L 19.0637,-10.9716 L 19.1207,-10.9716 L 19.1776,-10.9716 L 19.2346,-10.9716 L 19.2915,-10.9716 L 19.3485,-10.9716 L 19.4054,-10.9716 L 19.4624,-10.9716 L 19.5193,-10.9716 L 19.5762,-10.9716 L 19.6332,-10.9716 L 19.6901,-10.9716 L 19.7471,-10.9716 L 19.804,-10.9716 L 19.861,-10.9716 L 19.9179,-10.9716 L 19.9749,-10.9716 L 20.0318,-10.9716 L 20.0887,-10.9716 L 20.1457,-10.9716 L 20.2026,-10.9716 L 20.2596,-10.9716" />
      <path d="M 16.1596,-10.9716 L 16.1594,-10.9719 L 16.1593,-10.9721 L 16.1592,-10.9724 L 16.159,-10.9727 L 16.1589,-10.9729 L 16.1588,-10.9732 L 16.1586,-10.9734 L 16.1585,-10.9737 L 16.1584,-10.974 L 16.1582,-10.9742 L 16.1581,-10.9745 L 16.158,-10.9747 L 16.1578,-10.975 L 16.1577,-10.9753 L 16.1576,-10.9755 L 16.1574,-10.9758 L 16.1573,-10.976 L 16.1572,-10.9763 L 16.157,-10.9766 L 16.1569,-10.9768 L 16.1568,-10.9771 L 16.1566,-10.9773 L 16.1565,-10.9776 L 16.1564,-10.9779 L 16.1563,-10.9781 L 16.1561,-10.9784 L 16.156,-10.9786 L 16.1559,-10.9789 L 16.1557,-10.9792 L 16.1556,-10.9794 L 16.1555,-10.9797 L 16.1553,-10.9799 L 16.1552,-10.9802 L 16.1551,-10.9805 L 16.1549,-10.9807 L 16.1548,-10.981 L 16.1547,-10.9812 L 16.1545,-10.9815 L 16.1544,-10.9818 L 16.1543,-10.982 L 16.1541,-10.9823 L 16.154,-10.9825 L 16.1539,-10.9828 L 16.1537,-10.9831 L 16.1536,-10.9833 L 16.1535,-10.9836 L 16.1533,-10.9838 L 16.1532,-10.9841 L 16.1531,-10.9844 L 16.1529,-10.9846 L 16.1528,-10.9849 L 16.1527,-10.9851 L 16.1525,-10.9854 L 16.1524,-10.9857 L 16.1523,-10.9859 L 16.1521,-10.9862 L 16.152,-10.9864 L 16.1519,-10.9867 L 16.1517,-10.987 L 16.1516,-10.9872 L 16.1515,-10.9875 L 16.1513,-10.9877 L 16.1512,-10.988 L 16.1511,-10.9883 L 16.1509,-10.9885 L 16.1508,-10.9888 L 16.1507,-10.989 L 16.1505,-10.9893 L 16.1504,-10.9896 L 16.1503,-10.9898 L 16.1501,-10.9901 L 16.15,-10.9903" />
      <path d="M 14.05,9.1097 L 14.0501,9.1099 L 14.0503,9.1102 L 14.0504,9.1104 L 14.0505,9.1107 L 14.0507,9.111 L 14.0508,9.1112 L 14.0509,9.1115 L 14.0511,9.1117 L 14.0512,9.112 L 14.0513,9.1123 L 14.0515,9.1125 L 14.0516,9.1128 L 14.0517,9.113 L 14.0519,9.1133 L 14.052,9.1136 L 14.0521,9.1138 L 14.0523,9.1141 L 14.0524,9.1143 L 14.0525,9.1146 L 14.0527,9.1149 L 14.0528,9.1151 L 14.0529,9.1154 L 14.0531,9.1156 L 14.0532,9.1159 L 14.0533,9.1162 L 14.0535,9.1164 L 14.0536,9.1167 L 14.0537,9.1169 L 14.0539,9.1172 L 14.054,9.1175 L 14.0541,9.1177 L 14.0543,9.118 L 14.0544,9.1182 L 14.0545,9.1185 L 14.0547,9.1188 L 14.0548,9.119 L 14.0549,9.1193 L 14.0551,9.1195 L 14.0552,9.1198 L 14.0553,9.1201 L 14.0555,9.1203 L 14.0556,9.1206 L 14.0557,9.1208 L 14.0559,9.1211 L 14.056,9.1214 L 14.0561,9.1216 L 14.0563,9.1219 L 14.0564,9.1221 L 14.0565,9.1224 L 14.0566,9.1227 L 14.0568,9.1229 L 14.0569,9.1232 L 14.057,9.1234 L 14.0572,9.1237 L 14.0573,9.124 L 14.0574,9.1242 L 14.0576,9.1245 L 14.0577,9.1247 L 14.0578,9.125 L 14.058,9.1253 L 14.0581,9.1255 L 14.0582,9.1258 L 14.0584,9.126 L 14.0585,9.1263 L 14.0586,9.1266 L 14.0588,9.1268 L 14.0589,9.1271 L 14.059,9.1273 L 14.0592,9.1276 L 14.0593,9.1279 L 14.0594,9.1281 L 14.0596,9.1284" />
      <path d="M 20.2596,9.1284 L 20.1735,9.1284 L 20.0874,9.1284 L 20.0012,9.1284 L 19.9151,9.1284 L 19.829,9.1284 L 19.7429,9.1284 L 19.6568,9.1284 L 19.5707,9.1284 L 19.4846,9.1284 L 19.3985,9.1284 L 19.3124,9.1284 L 19.2262,9.1284 L 19.1401,9.1284 L 19.054,9.1284 L 18.9679,9.1284 L 18.8818,9.1284 L 18.7957,9.1284 L 18.7096,9.1284 L 18.6235,9.1284 L 18.5374,9.1284 L 18.4512,9.1284 L 18.3651,9.1284 L 18.279,9.1284 L 18.1929,9.1284 L 18.1068,9.1284 L 18.0207,9.1284 L 17.9346,9.1284 L 17.8485,9.1284 L 17.7624,9.1284 L 17.6762,9.1284 L 17.5901,9.1284 L 17.504,9.1284 L 17.4179,9.1284 L 17.3318,9.1284 L 17.2457,9.1284 L 17.1596,9.1284 L 17.0735,9.1284 L 16.9874,9.1284 L 16.9012,9.1284 L 16.8151,9.1284 L 16.729,9.1284 L 16.6429,9.1284 L 16.5568,9.1284 L 16.4707,9.1284 L 16.3846,9.1284 L 16.2985,9.1284 L 16.2124,9.1284 L 16.1262,9.1284 L 16.0401,9.1284 L 15.954,9.1284 L 15.8679,9.1284 L 15.7818,9.1284 L 15.6957,9.1284 L 15.6096,9.1284 L 15.5235,9.1284 L 15.4374,9.1284 L 15.3512,9.1284 L 15.2651,9.1284 L 15.179,9.1284 L 15.0929,9.1284 L 15.0068,9.1284 L 14.9207,9.1284 L 14.8346,9.1284 L 14.7485,9.1284 L 14.6624,9.1284 L 14.5762,9.1284 L 14.4901,9.1284 L 14.404,9.1284 L 14.3179,9.1284 L 14.2318,9.1284 L 14.1457,9.1284 L 14.0596,9.1284" />
      <path d="M 14.0596,9.1284 L 14.0887,8.8492 L 14.1179,8.57 L 14.1471,8.2909 L 14.1762,8.0117 L 14.2054,7.7325 L 14.2346,7.4534 L 14.2637,7.1742 L 14.2929,6.895 L 14.3221,6.6159 L 14.3512,6.3367 L 14.3804,6.0575 L 14.4096,5.7784 L 14.4387,5.4992 L 14.4679,5.22 L 14.4971,4.9409 L 14.5262,4.6617 L 14.5554,4.3825 L 14.5846,4.1034 L 14.6137,3.8242 L 14.6429,3.545 L 14.6721,3.2659 L 14.7012,2.9867 L 14.7304,2.7075 L 14.7596,2.4284 L 14.7887,2.1492 L 14.8179,1.87 L 14.8471,1.5909 L 14.8762,1.3117 L 14.9054,1.0325 L 14.9346,0.7534 L 14.9637,0.4742 L 14.9929,0.195 L 15.0221,-0.0841 L 15.0512,-0.3633 L 15.0804,-0.6425 L 15.1096,-0.9216 L 15.1387,-1.2008 L 15.1679,-1.48 L 15.1971,-1.7591 L 15.2262,-2.0383 L 15.2554,-2.3175 L 15.2846,-2.5966 L 15.3137,-2.8758 L 15.3429,-3.155 L 15.3721,-3.4341 L 15.4012,-3.7133 L 15.4304,-3.9925 L 15.4596,-4.2716 L 15.4887,-4.5508 L 15.5179,-4.83 L 15.5471,-5.1091 L 15.5762,-5.3883 L 15.6054,-5.6675 L 15.6346,-5.9466 L 15.6637,-6.2258 L 15.6929,-6.505 L 15.7221,-6.7841 L 15.7512,-7.0633 L 15.7804,-7.3425 L 15.8096,-7.6216 L 15.8387,-7.9008 L 15.8679,-8.18 L 15.8971,-8.4591 L 15.9262,-8.7383 L 15.9554,-9.0175 L 15.9846,-9.2966 L 16.0137,-9.5758 L 16.0429,-9.855 L 16.0721,-10.1341 L 16.1012,-10.4133 L 16.1304,-10.6925 L 16.1596,-10.9716" />
      <path d="M 14.3996,5.819 L 14.4183,5.6314 L 14.4376,5.4439 L 14.4568,5.2564 L 14.4762,5.0688 L 14.4956,4.8813 L 14.515,4.6938 L 14.5344,4.5063 L 14.5539,4.3188 L 14.5734,4.1313 L 14.5928,3.9437 L 14.6123,3.7562 L 14.6318,3.5687 L 14.6513,3.3812 L 14.6708,3.1937 L 14.6903,3.0062 L 14.7098,2.8187 L 14.7294,2.6312 L 14.7489,2.4437 L 14.7684,2.2562 L 14.7879,2.0687 L 14.8075,1.8812 L 14.827,1.6937 L 14.8466,1.5061 L 14.8661,1.3186 L 14.8857,1.1311 L 14.9052,0.9436 L 14.9248,0.7561 L 14.9443,0.5686 L 14.9639,0.3811 L 14.9835,0.1936 L 15.0031,0.0061 L 15.0226,-0.1814 L 15.0422,-0.3689 L 15.0618,-0.5564 L 15.0814,-0.7439 L 15.101,-0.9314 L 15.1206,-1.1189 L 15.1402,-1.3064 L 15.1598,-1.4939 L 15.1794,-1.6814 L 15.199,-1.8689 L 15.2186,-2.0564 L 15.2382,-2.2439 L 15.2578,-2.4314 L 15.2774,-2.6189 L 15.297,-2.8064 L 15.3166,-2.9939 L 15.3363,-3.1814 L 15.3559,-3.3689 L 15.3755,-3.5563 L 15.3952,-3.7438 L 15.4148,-3.9313 L 15.4344,-4.1188 L 15.4541,-4.3063 L 15.4738,-4.4938 L 15.4934,-4.6813 L 15.5131,-4.8688 L 15.5327,-5.0563 L 15.5524,-5.2438 L 15.5721,-5.4313 L 15.5918,-5.6188 L 15.6115,-5.8063 L 15.6312,-5.9937 L 15.6509,-6.1812 L 15.6706,-6.3687 L 15.6904,-6.5562 L 15.7102,-6.7437 L 15.7299,-6.9312 L 15.7497,-7.1186 L 15.7696,-7.3061 L 15.7895,-7.4936 L 15.81,-7.681" />
      <path d="M 15.81,-7.681 L 15.7913,-7.4934 L 15.772,-7.3059 L 15.7527,-7.1183 L 15.7334,-6.9308 L 15.714,-6.7433 L 15.6945,-6.5558 L 15.6751,-6.3682 L 15.6557,-6.1807 L 15.6362,-5.9932 L 15.6167,-5.8057 L 15.5972,-5.6182 L 15.5778,-5.4307 L 15.5583,-5.2432 L 15.5388,-5.0557 L 15.5193,-4.8682 L 15.4997,-4.6807 L 15.4802,-4.4931 L 15.4607,-4.3056 L 15.4412,-4.1181 L 15.4216,-3.9306 L 15.4021,-3.7431 L 15.3826,-3.5556 L 15.363,-3.3681 L 15.3434,-3.1806 L 15.3239,-2.9931 L 15.3043,-2.8056 L 15.2848,-2.6181 L 15.2652,-2.4306 L 15.2457,-2.2431 L 15.2261,-2.0556 L 15.2065,-1.8681 L 15.1869,-1.6806 L 15.1674,-1.4931 L 15.1478,-1.3056 L 15.1282,-1.1181 L 15.1086,-0.9306 L 15.089,-0.7431 L 15.0694,-0.5556 L 15.0498,-0.3681 L 15.0302,-0.1806 L 15.0106,0.0069 L 14.991,0.1944 L 14.9714,0.3819 L 14.9518,0.5694 L 14.9322,0.7569 L 14.9126,0.9444 L 14.8929,1.1319 L 14.8733,1.3194 L 14.8537,1.5069 L 14.834,1.6944 L 14.8144,1.8819 L 14.7948,2.0694 L 14.7751,2.2569 L 14.7555,2.4444 L 14.7358,2.6319 L 14.7162,2.8194 L 14.6965,3.0068 L 14.6768,3.1943 L 14.6572,3.3818 L 14.6375,3.5693 L 14.6178,3.7568 L 14.5981,3.9443 L 14.5784,4.1318 L 14.5587,4.3193 L 14.5389,4.5068 L 14.5192,4.6942 L 14.4994,4.8817 L 14.4797,5.0692 L 14.4598,5.2567 L 14.4399,5.4441 L 14.42,5.6316 L 14.3996,5.819" />
    </g>
    <g fill="none" stroke="rgb(110,110,110)" stroke-width="0.3" id="Hidden" stroke-dasharray="3.6 0.9">
      <path d="M -10.05,-10.9834 L -10.05,-10.7043 L -10.05,-10.4251 L -10.05,-10.1459 L -10.05,-9.8668 L -10.05,-9.5876 L -10.05,-9.3084 L -10.05,-9.0293 L -10.05,-8.7501 L -10.05,-8.4709 L -10.05,-8.1918 L -10.05,-7.9126 L -10.05,-7.6334 L -10.05,-7.3543 L -10.05,-7.0751 L -10.05,-6.7959 L -10.05,-6.5168 L -10.05,-6.2376 L -10.05,-5.9584 L -10.05,-5.6793 L -10.05,-5.4001 L -10.05,-5.1209 L -10.05,-4.8418 L -10.05,-4.5626 L -10.05,-4.2834 L -10.05,-4.0043 L -10.05,-3.7251 L -10.05,-3.4459 L -10.05,-3.1668 L -10.05,-2.8876 L -10.05,-2.6084 L -10.05,-2.3293 L -10.05,-2.0501 L -10.05,-1.7709 L -10.05,-1.4918 L -10.05,-1.2126 L -10.05,-0.9334 L -10.05,-0.6543 L -10.05,-0.3751 L -10.05,-0.0959 L -10.05,0.1832 L -10.05,0.4624 L -10.05,0.7416 L -10.05,1.0207 L -10.05,1.2999 L -10.05,1.5791 L -10.05,1.8582 L -10.05,2.1374 L -10.05,2.4166 L -10.05,2.6957 L -10.05,2.9749 L -10.05,3.2541 L -10.05,3.5332 L -10.05,3.8124 L -10.05,4.0916 L -10.05,4.3707 L -10.05,4.6499 L -10.05,4.9291 L -10.05,5.2082 L -10.05,5.4874 L -10.05,5.7666 L -10.05,6.0457 L -10.05,6.3249 L -10.05,6.6041 L -10.05,6.8832 L -10.05,7.1624 L -10.05,7.4416 L -10.05,7.7207 L -10.05,7.9999 L -10.05,8.2791 L -10.05,8.5582 L -10.05,8.8374 L -10.05,9.1166" />
      <path d="M -10.05,9.1166 L -9.7708,9.1166 L -9.4917,9.1166 L -9.2125,9.1166 L -8.9333,9.1166 L -8.6542,9.1166 L -8.375,9.1166 L -8.0958,9.1166 L -7.8167,9.1166 L -7.5375,9.1166 L -7.2583,9.1166 L -6.9792,9.1166 L -6.7,9.1166 L -6.4208,9.1166 L -6.1417,9.1166 L -5.8625,9.1166 L -5.5833,9.1166 L -5.3042,9.1166 L -5.025,9.1166 L -4.7458,9.1166 L -4.4667,9.1166 L -4.1875,9.1166 L -3.9083,9.1166 L -3.6292,9.1166 L -3.35,9.1166 L -3.0708,9.1166 L -2.7917,9.1166 L -2.5125,9.1166 L -2.2333,9.1166 L -1.9542,9.1166 L -1.675,9.1166 L -1.3958,9.1166 L -1.1167,9.1166 L -0.8375,9.1166 L -0.5583,9.1166 L -0.2792,9.1166 L 0.0,9.1166 L 0.2792,9.1166 L 0.5583,9.1166 L 0.8375,9.1166 L 1.1167,9.1166 L 1.3958,9.1166 L 1.675,9.1166 L 1.9542,9.1166 L 2.2333,9.1166 L 2.5125,9.1166 L 2.7917,9.1166 L 3.0708,9.1166 L 3.35,9.1166 L 3.6292,9.1166 L 3.9083,9.1166 L 4.1875,9.1166 L 4.4667,9.1166 L 4.7458,9.1166 L 5.025,9.1166 L 5.3042,9.1166 L 5.5833,9.1166 L 5.8625,9.1166 L 6.1417,9.1166 L 6.4208,9.1166 L 6.7,9.1166 L 6.9792,9.1166 L 7.2583,9.1166 L 7.5375,9.1166 L 7.8167,9.1166 L 8.0958,9.1166 L 8.375,9.1166 L 8.6542,9.1166 L 8.9333,9.1166 L 9.2125,9.1166 L 9.4917,9.1166 L 9.7708,9.1166 L 10.05,9.1166" />
      <path d="M 10.05,-10.9834 L 10.05,-10.7043 L 10.05,-10.4251 L 10.05,-10.1459 L 10.05,-9.8668 L 10.05,-9.5876 L 10.05,-9.3084 L 10.05,-9.0293 L 10.05,-8.7501 L 10.05,-8.4709 L 10.05,-8.1918 L 10.05,-7.9126 L 10.05,-7.6334 L 10.05,-7.3543 L 10.05,-7.0751 L 10.05,-6.7959 L 10.05,-6.5168 L 10.05,-6.2376 L 10.05,-5.9584 L 10.05,-5.6793 L 10.05,-5.4001 L 10.05,-5.1209 L 10.05,-4.8418 L 10.05,-4.5626 L 10.05,-4.2834 L 10.05,-4.0043 L 10.05,-3.7251 L 10.05,-3.4459 L 10.05,-3.1668 L 10.05,-2.8876 L 10.05,-2.6084 L 10.05,-2.3293 L 10.05,-2.0501 L 10.05,-1.7709 L 10.05,-1.4918 L 10.05,-1.2126 L 10.05,-0.9334 L 10.05,-0.6543 L 10.05,-0.3751 L 10.05,-0.0959 L 10.05,0.1832 L 10.05,0.4624 L 10.05,0.7416 L 10.05,1.0207 L 10.05,1.2999 L 10.05,1.5791 L 10.05,1.8582 L 10.05,2.1374 L 10.05,2.4166 L 10.05,2.6957 L 10.05,2.9749 L 10.05,3.2541 L 10.05,3.5332 L 10.05,3.8124 L 10.05,4.0916 L 10.05,4.3707 L 10.05,4.6499 L 10.05,4.9291 L 10.05,5.2082 L 10.05,5.4874 L 10.05,5.7666 L 10.05,6.0457 L 10.05,6.3249 L 10.05,6.6041 L 10.05,6.8832 L 10.05,7.1624 L 10.05,7.4416 L 10.05,7.7207 L 10.05,7.9999 L 10.05,8.2791 L 10.05,8.5582 L 10.05,8.8374 L 10.05,9.1166" />
      <path d="M -6.75,-0.931 L -6.75,-0.9311 L -6.75,-0.9312 L -6.75,-0.9313 L -6.75,-0.9314 L -6.75,-0.9315 L -6.75,-0.9316 L -6.75,-0.9317 L -6.75,-0.9318 L -6.75,-0.9319 L -6.75,-0.932 L -6.75,-0.9321 L -6.75,-0.9322 L -6.75,-0.9323 L -6.75,-0.9324 L -6.75,-0.9325 L -6.75,-0.9326 L -6.75,-0.9327 L -6.75,-0.9328 L -6.75,-0.9329 L -6.75,-0.933 L -6.75,-0.9331 L -6.75,-0.9332 L -6.75,-0.9333 L -6.75,-0.9334" />
      <path d="M -6.75,-0.9334 L -6.7436,-1.2279 L -6.7243,-1.5217 L -6.6923,-1.8145 L -6.6475,-2.1055 L -6.59,-2.3944 L -6.52,-2.6805 L -6.4376,-2.9632 L -6.3429,-3.2421 L -6.2362,-3.5165 L -6.1176,-3.7861 L -5.9873,-4.0502 L -5.8457,-4.3084 L -5.6929,-4.5602 L -5.5293,-4.8051 L -5.3551,-5.0426 L -5.1708,-5.2722 L -4.9766,-5.4937 L -4.773,-5.7064 L -4.5602,-5.91 L -4.3388,-6.1042 L -4.1091,-6.2886 L -3.8716,-6.4627 L -3.6268,-6.6263 L -3.375,-6.7791 L -3.1168,-6.9207 L -2.8527,-7.051 L -2.5831,-7.1696 L -2.3086,-7.2763 L -2.0298,-7.371 L -1.747,-7.4534 L -1.461,-7.5234 L -1.1721,-7.5809 L -0.8811,-7.6257 L -0.5883,-7.6577 L -0.2944,-7.677 L -0.0,-7.6834 L 0.2944,-7.677 L 0.5883,-7.6577 L 0.8811,-7.6257 L 1.1721,-7.5809 L 1.461,-7.5234 L 1.747,-7.4534 L 2.0298,-7.371 L 2.3086,-7.2763 L 2.5831,-7.1696 L 2.8527,-7.051 L 3.1168,-6.9207 L 3.375,-6.7791 L 3.6268,-6.6263 L 3.8716,-6.4627 L 4.1091,-6.2886 L 4.3388,-6.1042 L 4.5602,-5.91 L 4.773,-5.7064 L 4.9766,-5.4937 L 5.1708,-5.2722 L 5.3551,-5.0426 L 5.5293,-4.8051 L 5.6929,-4.5602 L 5.8457,-4.3084 L 5.9873,-4.0502 L 6.1176,-3.7861 L 6.2362,-3.5165 L 6.3429,-3.2421 L 6.4376,-2.9632 L 6.52,-2.6805 L 6.59,-2.3944 L 6.6475,-2.1055 L 6.6923,-1.8145 L 6.7243,-1.5217 L 6.7436,-1.2279 L 6.75,-0.9334" />
      <path d="M 6.75,-0.9334 L 6.75,-0.9333 L 6.75,-0.9332 L 6.75,-0.9331 L 6.75,-0.933 L 6.75,-0.9329 L 6.75,-0.9328 L 6.75,-0.9327 L 6.75,-0.9326 L 6.75,-0.9325 L 6.75,-0.9324 L 6.75,-0.9323 L 6.75,-0.9322 L 6.75,-0.9321 L 6.75,-0.932 L 6.75,-0.9319 L 6.75,-0.9318 L 6.75,-0.9317 L 6.75,-0.9316 L 6.75,-0.9315 L 6.75,-0.9314 L 6.75,-0.9313 L 6.75,-0.9312 L 6.75,-0.9311 L 6.75,-0.931" />
      <path d="M -10.05,9.1166 L -10.05,9.1167 L -10.05,9.1168 L -10.05,9.1169 L -10.05,9.117 L -10.05,9.1171 L -10.05,9.1172 L -10.05,9.1173 L -10.05,9.1174 L -10.05,9.1175 L -10.05,9.1176 L -10.05,9.1177 L -10.05,9.1178 L -10.05,9.1179 L -10.05,9.118 L -10.05,9.1181 L -10.05,9.1182 L -10.05,9.1183 L -10.05,9.1184 L -10.05,9.1185 L -10.05,9.1186 L -10.05,9.1187 L -10.05,9.1188 L -10.05,9.1189 L -10.05,9.119 L -10.05,9.1191 L -10.05,9.1192 L -10.05,9.1193 L -10.05,9.1194 L -10.05,9.1195 L -10.05,9.1196 L -10.05,9.1197 L -10.05,9.1198 L -10.05,9.1199 L -10.05,9.12 L -10.05,9.1201 L -10.05,9.1202 L -10.05,9.1203 L -10.05,9.1204 L -10.05,9.1205 L -10.05,9.1206 L -10.05,9.1207 L -10.05,9.1208 L -10.05,9.1209 L -10.05,9.121 L -10.05,9.1211 L -10.05,9.1212 L -10.05,9.1213 L -10.05,9.1214 L -10.05,9.1215 L -10.05,9.1216 L -10.05,9.1217 L -10.05,9.1218 L -10.05,9.1219 L -10.05,9.122 L -10.05,9.1221 L -10.05,9.1222 L -10.05,9.1223" />
      <path d="M 10.05,9.1166 L 10.05,9.1167 L 10.05,9.1168 L 10.05,9.1169 L 10.05,9.117 L 10.05,9.1171 L 10.05,9.1172 L 10.05,9.1173 L 10.05,9.1174 L 10.05,9.1175 L 10.05,9.1176 L 10.05,9.1177 L 10.05,9.1178 L 10.05,9.1179 L 10.05,9.118 L 10.05,9.1181 L 10.05,9.1182 L 10.05,9.1183 L 10.05,9.1184 L 10.05,9.1185 L 10.05,9.1186 L 10.05,9.1187 L 10.05,9.1188 L 10.05,9.1189 L 10.05,9.119 L 10.05,9.1191 L 10.05,9.1192 L 10.05,9.1193 L 10.05,9.1194 L 10.05,9.1195 L 10.05,9.1196 L 10.05,9.1197 L 10.05,9.1198 L 10.05,9.1199 L 10.05,9.12 L 10.05,9.1201 L 10.05,9.1202 L 10.05,9.1203 L 10.05,9.1204 L 10.05,9.1205 L 10.05,9.1206 L 10.05,9.1207 L 10.05,9.1208 L 10.05,9.1209 L 10.05,9.121 L 10.05,9.1211 L 10.05,9.1212 L 10.05,9.1213 L 10.05,9.1214 L 10.05,9.1215 L 10.05,9.1216 L 10.05,9.1217 L 10.05,9.1218 L 10.05,9.1219 L 10.05,9.122 L 10.05,9.1221 L 10.05,9.1222 L 10.05,9.1223" />
      <path d="M 6.75,-0.9334 L 6.75,-0.9333 L 6.75,-0.9332 L 6.75,-0.9331 L 6.75,-0.933 L 6.75,-0.9329 L 6.75,-0.9328 L 6.75,-0.9327 L 6.75,-0.9326 L 6.75,-0.9325 L 6.75,-0.9324 L 6.75,-0.9323 L 6.75,-0.9322 L 6.75,-0.9321 L 6.75,-0.932 L 6.75,-0.9319 L 6.75,-0.9318 L 6.75,-0.9317 L 6.75,-0.9316 L 6.75,-0.9315 L 6.75,-0.9314 L 6.75,-0.9313 L 6.75,-0.9312 L 6.75,-0.9311 L 6.75,-0.931 L 6.75,-0.9309 L 6.75,-0.9308 L 6.75,-0.9307 L 6.75,-0.9306 L 6.75,-0.9305 L 6.75,-0.9304 L 6.75,-0.9303 L 6.75,-0.9302 L 6.75,-0.9301 L 6.75,-0.93 L 6.75,-0.9299 L 6.75,-0.9298 L 6.75,-0.9297 L 6.75,-0.9296 L 6.75,-0.9295 L 6.75,-0.9294 L 6.75,-0.9293 L 6.75,-0.9292 L 6.75,-0.9291 L 6.75,-0.929 L 6.75,-0.9289 L 6.75,-0.9288 L 6.75,-0.9287 L 6.75,-0.9286" />
      <path d="M -6.75,-0.9334 L -6.75,-0.9333 L -6.75,-0.9332 L -6.75,-0.9331 L -6.75,-0.933 L -6.75,-0.9329 L -6.75,-0.9328 L -6.75,-0.9327 L -6.75,-0.9326 L -6.75,-0.9325 L -6.75,-0.9324 L -6.75,-0.9323 L -6.75,-0.9322 L -6.75,-0.9321 L -6.75,-0.932 L -6.75,-0.9319 L -6.75,-0.9318 L -6.75,-0.9317 L -6.75,-0.9316 L -6.75,-0.9315 L -6.75,-0.9314 L -6.75,-0.9313 L -6.75,-0.9312 L -6.75,-0.9311 L -6.75,-0.931 L -6.75,-0.9309 L -6.75,-0.9308 L -6.75,-0.9307 L -6.75,-0.9306 L -6.75,-0.9305 L -6.75,-0.9304 L -6.75,-0.9303 L -6.75,-0.9302 L -6.75,-0.9301 L -6.75,-0.93 L -6.75,-0.9299 L -6.75,-0.9298 L -6.75,-0.9297 L -6.75,-0.9296 L -6.75,-0.9295 L -6.75,-0.9294 L -6.75,-0.9293 L -6.75,-0.9292 L -6.75,-0.9291 L -6.75,-0.929 L -6.75,-0.9289 L -6.75,-0.9288 L -6.75,-0.9287 L -6.75,-0.9286" />
      <path d="M 20.25,-10.9903 L 20.25,-10.7112 L 20.25,-10.432 L 20.25,-10.1528 L 20.25,-9.8737 L 20.25,-9.5945 L 20.25,-9.3153 L 20.25,-9.0362 L 20.25,-8.757 L 20.25,-8.4778 L 20.25,-8.1987 L 20.25,-7.9195 L 20.25,-7.6403 L 20.25,-7.3612 L 20.25,-7.082 L 20.25,-6.8028 L 20.25,-6.5237 L 20.25,-6.2445 L 20.25,-5.9653 L 20.25,-5.6862 L 20.25,-5.407 L 20.25,-5.1278 L 20.25,-4.8487 L 20.25,-4.5695 L 20.25,-4.2903 L 20.25,-4.0112 L 20.25,-3.732 L 20.25,-3.4528 L 20.25,-3.1737 L 20.25,-2.8945 L 20.25,-2.6153 L 20.25,-2.3362 L 20.25,-2.057 L 20.25,-1.7778 L 20.25,-1.4987 L 20.25,-1.2195 L 20.25,-0.9403 L 20.25,-0.6612 L 20.25,-0.382 L 20.25,-0.1028 L 20.25,0.1763 L 20.25,0.4555 L 20.25,0.7347 L 20.25,1.0138 L 20.25,1.293 L 20.25,1.5722 L 20.25,1.8513 L 20.25,2.1305 L 20.25,2.4097 L 20.25,2.6888 L 20.25,2.968 L 20.25,3.2472 L 20.25,3.5263 L 20.25,3.8055 L 20.25,4.0847 L 20.25,4.3638 L 20.25,4.643 L 20.25,4.9222 L 20.25,5.2013 L 20.25,5.4805 L 20.25,5.7597 L 20.25,6.0388 L 20.25,6.318 L 20.25,6.5972 L 20.25,6.8763 L 20.25,7.1555 L 20.25,7.4347 L 20.25,7.7138 L 20.25,7.993 L 20.25,8.2722 L 20.25,8.5513 L 20.25,8.8305 L 20.25,9.1097" />
      <path d="M 20.25,9.1097 L 20.2501,9.1099 L 20.2503,9.1102 L 20.2504,9.1104 L 20.2505,9.1107 L 20.2507,9.111 L 20.2508,9.1112 L 20.2509,9.1115 L 20.2511,9.1117 L 20.2512,9.112 L 20.2513,9.1123 L 20.2515,9.1125 L 20.2516,9.1128 L 20.2517,9.113 L 20.2519,9.1133 L 20.252,9.1136 L 20.2521,9.1138 L 20.2523,9.1141 L 20.2524,9.1143 L 20.2525,9.1146 L 20.2527,9.1149 L 20.2528,9.1151 L 20.2529,9.1154 L 20.2531,9.1156 L 20.2532,9.1159 L 20.2533,9.1162 L 20.2535,9.1164 L 20.2536,9.1167 L 20.2537,9.1169 L 20.2539,9.1172 L 20.254,9.1175 L 20.2541,9.1177 L 20.2543,9.118 L 20.2544,9.1182 L 20.2545,9.1185 L 20.2547,9.1188 L 20.2548,9.119 L 20.2549,9.1193 L 20.2551,9.1195 L 20.2552,9.1198 L 20.2553,9.1201 L 20.2555,9.1203 L 20.2556,9.1206 L 20.2557,9.1208 L 20.2559,9.1211 L 20.256,9.1214 L 20.2561,9.1216 L 20.2562,9.1219 L 20.2564,9.1221 L 20.2565,9.1224 L 20.2566,9.1227 L 20.2568,9.1229 L 20.2569,9.1232 L 20.257,9.1234 L 20.2572,9.1237 L 20.2573,9.124 L 20.2574,9.1242 L 20.2576,9.1245 L 20.2577,9.1247 L 20.2578,9.125 L 20.258,9.1253 L 20.2581,9.1255 L 20.2582,9.1258 L 20.2584,9.126 L 20.2585,9.1263 L 20.2586,9.1266 L 20.2588,9.1268 L 20.2589,9.1271 L 20.259,9.1273 L 20.2592,9.1276 L 20.2593,9.1279 L 20.2594,9.1281 L 20.2596,9.1284" />
      <path d="M 20.2548,5.819 L 20.254,5.6315 L 20.2537,5.444 L 20.2535,5.2565 L 20.2533,5.069 L 20.2532,4.8815 L 20.253,4.694 L 20.2529,4.5065 L 20.2528,4.319 L 20.2527,4.1315 L 20.2526,3.944 L 20.2525,3.7565 L 20.2524,3.569 L 20.2523,3.3815 L 20.2522,3.194 L 20.2522,3.0065 L 20.2521,2.819 L 20.2521,2.6315 L 20.252,2.444 L 20.252,2.2565 L 20.2519,2.069 L 20.2519,1.8815 L 20.2518,1.694 L 20.2518,1.5065 L 20.2518,1.319 L 20.2517,1.1315 L 20.2517,0.944 L 20.2517,0.7565 L 20.2517,0.569 L 20.2516,0.3815 L 20.2516,0.194 L 20.2516,0.0065 L 20.2516,-0.181 L 20.2516,-0.3685 L 20.2516,-0.556 L 20.2516,-0.7435 L 20.2516,-0.931 L 20.2516,-1.1185 L 20.2516,-1.306 L 20.2516,-1.4935 L 20.2516,-1.681 L 20.2516,-1.8685 L 20.2516,-2.056 L 20.2516,-2.2435 L 20.2517,-2.431 L 20.2517,-2.6185 L 20.2517,-2.806 L 20.2517,-2.9935 L 20.2518,-3.181 L 20.2518,-3.3685 L 20.2518,-3.556 L 20.2519,-3.7435 L 20.2519,-3.931 L 20.252,-4.1185 L 20.252,-4.306 L 20.2521,-4.4935 L 20.2521,-4.681 L 20.2522,-4.8685 L 20.2522,-5.056 L 20.2523,-5.2435 L 20.2524,-5.431 L 20.2525,-5.6185 L 20.2526,-5.806 L 20.2527,-5.9935 L 20.2528,-6.181 L 20.2529,-6.3685 L 20.253,-6.556 L 20.2531,-6.7435 L 20.2533,-6.931 L 20.2535,-7.1185 L 20.2537,-7.306 L 20.254,-7.4935 L 20.2548,-7.681" />
      <path d="M 20.2548,-7.681 L 20.2555,-7.4935 L 20.2558,-7.306 L 20.2561,-7.1185 L 20.2563,-6.931 L 20.2564,-6.7435 L 20.2566,-6.556 L 20.2567,-6.3685 L 20.2568,-6.181 L 20.2569,-5.9935 L 20.257,-5.806 L 20.2571,-5.6185 L 20.2572,-5.431 L 20.2573,-5.2435 L 20.2573,-5.056 L 20.2574,-4.8685 L 20.2575,-4.681 L 20.2575,-4.4935 L 20.2576,-4.306 L 20.2576,-4.1185 L 20.2577,-3.931 L 20.2577,-3.7435 L 20.2577,-3.556 L 20.2578,-3.3685 L 20.2578,-3.181 L 20.2578,-2.9935 L 20.2579,-2.806 L 20.2579,-2.6185 L 20.2579,-2.431 L 20.2579,-2.2435 L 20.258,-2.056 L 20.258,-1.8685 L 20.258,-1.681 L 20.258,-1.4935 L 20.258,-1.306 L 20.258,-1.1185 L 20.258,-0.931 L 20.258,-0.7435 L 20.258,-0.556 L 20.258,-0.3685 L 20.258,-0.181 L 20.258,0.0065 L 20.258,0.194 L 20.2579,0.3815 L 20.2579,0.569 L 20.2579,0.7565 L 20.2579,0.944 L 20.2578,1.1315 L 20.2578,1.319 L 20.2578,1.5065 L 20.2578,1.694 L 20.2577,1.8815 L 20.2577,2.069 L 20.2576,2.2565 L 20.2576,2.444 L 20.2575,2.6315 L 20.2575,2.819 L 20.2574,3.0065 L 20.2573,3.194 L 20.2573,3.3815 L 20.2572,3.569 L 20.2571,3.7565 L 20.257,3.944 L 20.2569,4.1315 L 20.2568,4.319 L 20.2567,4.5065 L 20.2566,4.694 L 20.2564,4.8815 L 20.2563,5.069 L 20.2561,5.2565 L 20.2558,5.444 L 20.2555,5.6315 L 20.2548,5.819" />
      <path d="M 20.25,9.1097 L 20.1639,9.1097 L 20.0778,9.1097 L 19.9917,9.1097 L 19.9056,9.1097 L 19.8194,9.1097 L 19.7333,9.1097 L 19.6472,9.1097 L 19.5611,9.1097 L 19.475,9.1097 L 19.3889,9.1097 L 19.3028,9.1097 L 19.2167,9.1097 L 19.1306,9.1097 L 19.0444,9.1097 L 18.9583,9.1097 L 18.8722,9.1097 L 18.7861,9.1097 L 18.7,9.1097 L 18.6139,9.1097 L 18.5278,9.1097 L 18.4417,9.1097 L 18.3556,9.1097 L 18.2694,9.1097 L 18.1833,9.1097 L 18.0972,9.1097 L 18.0111,9.1097 L 17.925,9.1097 L 17.8389,9.1097 L 17.7528,9.1097 L 17.6667,9.1097 L 17.5806,9.1097 L 17.4944,9.1097 L 17.4083,9.1097 L 17.3222,9.1097 L 17.2361,9.1097 L 17.15,9.1097 L 17.0639,9.1097 L 16.9778,9.1097 L 16.8917,9.1097 L 16.8056,9.1097 L 16.7194,9.1097 L 16.6333,9.1097 L 16.5472,9.1097 L 16.4611,9.1097 L 16.375,9.1097 L 16.2889,9.1097 L 16.2028,9.1097 L 16.1167,9.1097 L 16.0306,9.1097 L 15.9444,9.1097 L 15.8583,9.1097 L 15.7722,9.1097 L 15.6861,9.1097 L 15.6,9.1097 L 15.5139,9.1097 L 15.4278,9.1097 L 15.3417,9.1097 L 15.2556,9.1097 L 15.1694,9.1097 L 15.0833,9.1097 L 14.9972,9.1097 L 14.9111,9.1097 L 14.825,9.1097 L 14.7389,9.1097 L 14.6528,9.1097 L 14.5667,9.1097 L 14.4806,9.1097 L 14.3944,9.1097 L 14.3083,9.1097 L 14.2222,9.1097 L 14.1361,9.1097 L 14.05,9.1097" />
      <path d="M 20.2548,5.819 L 20.1735,5.819 L 20.0921,5.819 L 20.0108,5.819 L 19.9295,5.819 L 19.8482,5.819 L 19.7669,5.819 L 19.6855,5.819 L 19.6042,5.819 L 19.5229,5.819 L 19.4416,5.819 L 19.3602,5.819 L 19.2789,5.819 L 19.1976,5.819 L 19.1163,5.819 L 19.035,5.819 L 18.9536,5.819 L 18.8723,5.819 L 18.791,5.819 L 18.7097,5.819 L 18.6283,5.819 L 18.547,5.819 L 18.4657,5.819 L 18.3844,5.819 L 18.303,5.819 L 18.2217,5.819 L 18.1404,5.819 L 18.0591,5.819 L 17.9778,5.819 L 17.8964,5.819 L 17.8151,5.819 L 17.7338,5.819 L 17.6525,5.819 L 17.5711,5.819 L 17.4898,5.819 L 17.4085,5.819 L 17.3272,5.819 L 17.2459,5.819 L 17.1645,5.819 L 17.0832,5.819 L 17.0019,5.819 L 16.9206,5.819 L 16.8392,5.819 L 16.7579,5.819 L 16.6766,5.819 L 16.5953,5.819 L 16.514,5.819 L 16.4326,5.819 L 16.3513,5.819 L 16.27,5.819 L 16.1887,5.819 L 16.1073,5.819 L 16.026,5.819 L 15.9447,5.819 L 15.8634,5.819 L 15.7821,5.819 L 15.7007,5.819 L 15.6194,5.819 L 15.5381,5.819 L 15.4568,5.819 L 15.3754,5.819 L 15.2941,5.819 L 15.2128,5.819 L 15.1315,5.819 L 15.0501,5.819 L 14.9688,5.819 L 14.8875,5.819 L 14.8062,5.819 L 14.7249,5.819 L 14.6435,5.819 L 14.5622,5.819 L 14.4809,5.819 L 14.3996,5.819" />
      <path d="M 20.2548,-7.681 L 20.1931,-7.681 L 20.1313,-7.681 L 20.0696,-7.681 L 20.0079,-7.681 L 19.9461,-7.681 L 19.8844,-7.681 L 19.8227,-7.681 L 19.7609,-7.681 L 19.6992,-7.681 L 19.6375,-7.681 L 19.5757,-7.681 L 19.514,-7.681 L 19.4523,-7.681 L 19.3905,-7.681 L 19.3288,-7.681 L 19.2671,-7.681 L 19.2053,-7.681 L 19.1436,-7.681 L 19.0819,-7.681 L 19.0201,-7.681 L 18.9584,-7.681 L 18.8967,-7.681 L 18.8349,-7.681 L 18.7732,-7.681 L 18.7115,-7.681 L 18.6497,-7.681 L 18.588,-7.681 L 18.5263,-7.681 L 18.4645,-7.681 L 18.4028,-7.681 L 18.3411,-7.681 L 18.2793,-7.681 L 18.2176,-7.681 L 18.1559,-7.681 L 18.0941,-7.681 L 18.0324,-7.681 L 17.9707,-7.681 L 17.9089,-7.681 L 17.8472,-7.681 L 17.7855,-7.681 L 17.7237,-7.681 L 17.662,-7.681 L 17.6003,-7.681 L 17.5385,-7.681 L 17.4768,-7.681 L 17.4151,-7.681 L 17.3533,-7.681 L 17.2916,-7.681 L 17.2299,-7.681 L 17.1681,-7.681 L 17.1064,-7.681 L 17.0447,-7.681 L 16.9829,-7.681 L 16.9212,-7.681 L 16.8595,-7.681 L 16.7977,-7.681 L 16.736,-7.681 L 16.6743,-7.681 L 16.6125,-7.681 L 16.5508,-7.681 L 16.4891,-7.681 L 16.4273,-7.681 L 16.3656,-7.681 L 16.3039,-7.681 L 16.2421,-7.681 L 16.1804,-7.681 L 16.1187,-7.681 L 16.0569,-7.681 L 15.9952,-7.681 L 15.9335,-7.681 L 15.8717,-7.681 L 15.81,-7.681" />
    </g>
    <g fill="none" stroke="rgb(0,0,0)" stroke-width="0.2" id="Center" stroke-dasharray="6.35 1.27 1.27 1.27">
      <line x1="0.0" y1="-0.9305" x2="-11.66" y2="-0.9305" />
      <line x1="0.0" y1="-0.9305" x2="11.66" y2="-0.9305" />
      <line x1="0.0" y1="-0.9305" x2="0.0" y2="-12.5934" />
      <line x1="0.0" y1="-0.9305" x2="0.0" y2="10.7323" />
      <line x1="17.1548" y1="-0.931" x2="12.44" y2="-0.931" />
      <line x1="17.1548" y1="-0.931" x2="21.8696" y2="-0.931" />
    </g>
  </g>
</svg>