<?xml version='1.0' encoding='utf-8'?>
<svg width="48.2012mm" height="39.2021mm" viewBox="-19.6 -19.1791 48.2012 39.2021" version="1.1" xmlns="http://www.w3.org/2000/svg">
  <g transform="scale(1,-1)" stroke-linecap="round">
    <g fill="none" stroke="rgb(0,0,0)" stroke-width="0.4" id="Visible">
      <path d="M -15.0,-0.423 L -14.9857,-1.0773 L -14.9429,-1.7304 L -14.8717,-2.3809 L -14.7721,-3.0277 L -14.6444,-3.6696 L -14.4889,-4.3053 L -14.3058,-4.9336 L -14.0954,-5.5533 L -13.8582,-6.1633 L -13.5946,-6.7623 L -13.3052,-7.3492 L -12.9904,-7.923 L -12.6509,-8.4825 L -12.2873,-9.0267 L -11.9003,-9.5544 L -11.4907,-10.0648 L -11.0592,-10.5569 L -10.6066,-11.0296 L -10.1339,-11.4822 L -9.6418,-11.9137 L -9.1314,-12.3233 L -8.6036,-12.7103 L -8.0595,-13.0739 L -7.5,-13.4134 L -6.9262,-13.7282 L -6.3393,-14.0176 L -5.7403,-14.2812 L -5.1303,-14.5184 L -4.5106,-14.7288 L -3.8823,-14.9119 L -3.2466,-15.0675 L -2.6047,-15.1951 L -1.9579,-15.2947 L -1.3073,-15.3659 L -0.6543,-15.4087 L -0.0,-15.423 L 0.6543,-15.4087 L 1.3073,-15.3659 L 1.9579,-15.2947 L 2.6047,-15.1951 L 3.2466,-15.0675 L 3.8823,-14.9119 L 4.5106,-14.7288 L 5.1303,-14.5184 L 5.7403,-14.2812 L 6.3393,-14.0176 L 6.9262,-13.7282 L 7.5,-13.4134 L 8.0595,-13.0739 L 8.6036,-12.7103 L 9.1314,-12.3233 L 9.6418,-11.9137 L 10.1339,-11.4822 L 10.6066,-11.0296 L 11.0592,-10.5569 L 11.4907,-10.0648 L 11.9003,-9.5544 L 12.2873,-9.0267 L 12.6509,-8.4825 L 12.9904,-7.923 L 13.3052,-7.3492 L 13.5946,-6.7623 L 13.8582,-6.1633 L 14.0954,-5.5533 L 14.3058,-4.9336 L 14.4889,-4.3053 L 14.6444,-3.6696 L 14.7721,-3.0277 L 14.8717,-2.3809 L 14.9429,-1.7304 L 14.9857,-1.0773 L 15.0,-0.423" />
      <path d="M -0.0,6.077 L -0.1418,6.0754 L -0.2835,6.0708 L -0.4251,6.0631 L -0.5665,6.0523 L -0.7076,6.0384 L -0.8484,6.0214 L -0.9888,6.0013 L -1.1287,5.9782 L -1.268,5.9521 L -1.4068,5.9229 L -1.5449,5.8907 L -1.6822,5.8555 L -1.8188,5.8173 L -1.9545,5.7762 L -2.0893,5.7321 L -2.223,5.685 L -2.3557,5.6351 L -2.4873,5.5822 L -2.6177,5.5266 L -2.7469,5.468 L -2.8747,5.4067 L -3.0012,5.3426 L -3.1263,5.2758 L -3.2499,5.2062 L -3.3719,5.134 L -3.4923,5.0591 L -3.611,4.9816 L -3.7281,4.9016 L -3.8433,4.819 L -3.9568,4.7339 L -4.0683,4.6464 L -4.1779,4.5564 L -4.2856,4.4641 L -4.3912,4.3694 L -4.4947,4.2725 L -4.596,4.1734 L -4.6952,4.072 L -4.7921,3.9685 L -4.8868,3.8629 L -4.9791,3.7553 L -5.0691,3.6457 L -5.1566,3.5342 L -5.2417,3.4207 L -5.3243,3.3055 L -5.4044,3.1885 L -5.4819,3.0697 L -5.5568,2.9493 L -5.629,2.8273 L -5.6986,2.7037 L -5.7654,2.5787 L -5.8295,2.4522 L -5.8908,2.3243 L -5.9494,2.1952 L -6.0051,2.0648 L -6.0579,1.9332 L -6.1079,1.8005 L -6.1549,1.6667 L -6.199,1.532 L -6.2402,1.3963 L -6.2784,1.2597 L -6.3136,1.1224 L -6.3458,0.9843 L -6.375,0.8455 L -6.4012,0.7061 L -6.4243,0.5662 L -6.4443,0.4259 L -6.4613,0.2851 L -6.4752,0.144 L -6.4861,0.0026 L -6.4938,-0.139 L -6.4984,-0.2807 L -6.5,-0.4225" />
      <path d="M 6.5,-0.4225 L 6.4984,-0.2807 L 6.4938,-0.139 L 6.4861,0.0026 L 6.4752,0.144 L 6.4613,0.2851 L 6.4443,0.4259 L 6.4243,0.5662 L 6.4012,0.7061 L 6.375,0.8455 L 6.3458,0.9843 L 6.3136,1.1224 L 6.2784,1.2597 L 6.2402,1.3963 L 6.199,1.532 L 6.1549,1.6667 L 6.1079,1.8005 L 6.0579,1.9332 L 6.0051,2.0648 L 5.9494,2.1952 L 5.8908,2.3243 L 5.8295,2.4522 L 5.7654,2.5787 L 5.6986,2.7037 L 5.629,2.8273 L 5.5568,2.9493 L 5.4819,3.0697 L 5.4044,3.1885 L 5.3243,3.3055 L 5.2417,3.4207 L 5.1566,3.5342 L 5.0691,3.6457 L 4.9791,3.7553 L 4.8868,3.8629 L 4.7921,3.9685 L 4.6952,4.072 L 4.596,4.1734 L 4.4947,4.2725 L 4.3912,4.3694 L 4.2856,4.4641 L 4.1779,4.5564 L 4.0683,4.6464 L 3.9568,4.7339 L 3.8433,4.819 L 3.7281,4.9016 L 3.611,4.9816 L 3.4923,5.0591 L 3.3719,5.134 L 3.2499,5.2062 L 3.1263,5.2758 L 3.0012,5.3426 L 2.8747,5.4067 L 2.7469,5.468 L 2.6177,5.5266 L 2.4873,5.5822 L 2.3557,5.6351 L 2.223,5.685 L 2.0893,5.7321 L 1.9545,5.7762 L 1.8188,5.8173 L 1.6822,5.8555 L 1.5449,5.8907 L 1.4068,5.9229 L 1.268,5.9521 L 1.1287,5.9782 L 0.9888,6.0013 L 0.8484,6.0214 L 0.7076,6.0384 L 0.5665,6.0523 L 0.4251,6.0631 L 0.2835,6.0708 L 0.1418,6.0754 L 0.0,6.077" />
      <path d="M 2.25,14.5791 L 2.1875,14.5791 L 2.125,14.5791 L 2.0625,14.5791 L 2.0,14.5791 L 1.9375,14.5791 L 1.875,14.5791 L 1.8125,14.5791 L 1.75,14.5791 L 1.6875,14.5791 L 1.625,14.5791 L 1.5625,14.5791 L 1.5,14.5791 L 1.4375,14.5791 L 1.375,14.5791 L 1.3125,14.5791 L 1.25,14.5791 L 1.1875,14.5791 L 1.125,14.5791 L 1.0625,14.5791 L 1.0,14.5791 L 0.9375,14.5791 L 0.875,14.5791 L 0.8125,14.5791 L 0.75,14.5791 L 0.6875,14.5791 L 0.625,14.5791 L 0.5625,14.5791 L 0.5,14.5791 L 0.4375,14.5791 L 0.375,14.5791 L 0.3125,14.5791 L 0.25,14.5791 L 0.1875,14.5791 L 0.125,14.5791 L 0.0625,14.5791 L 0.0,14.5791 L -0.0625,14.5791 L -0.125,14.5791 L -0.1875,14.5791 L -0.25,14.5791 L -0.3125,14.5791 L -0.375,14.5791 L -0.4375,14.5791 L -0.5,14.5791 L -0.5625,14.5791 L -0.625,14.5791 L -0.6875,14.5791 L -0.75,14.5791 L -0.8125,14.5791 L -0.875,14.5791 L -0.9375,14.5791 L -1.0,14.5791 L -1.0625,14.5791 L -1.125,14.5791 L -1.1875,14.5791 L -1.25,14.5791 L -1.3125,14.5791 L -1.375,14.5791 L -1.4375,14.5791 L -1.5,14.5791 L -1.5625,14.5791 L -1.625,14.5791 L -1.6875,14.5791 L -1.75,14.5791 L -1.8125,14.5791 L -1.875,14.5791 L -1.9375,14.5791 L -2.0,14.5791 L -2.0625,14.5791 L -2.125,14.5791 L -2.1875,14.5791 L -2.25,14.5791" />
      <path d="M 2.25,13.3791 L 2.25,13.3958 L 2.25,13.4124 L 2.25,13.4291 L 2.25,13.4458 L 2.25,13.4624 L 2.25,13.4791 L 2.25,13.4958 L 2.25,13.5124 L 2.25,13.5291 L 2.25,13.5458 L 2.25,13.5624 L 2.25,13.5791 L 2.25,13.5958 L 2.25,13.6124 L 2.25,13.6291 L 2.25,13.6458 L 2.25,13.6624 L 2.25,13.6791 L 2.25,13.6958 L 2.25,13.7124 L 2.25,13.7291 L 2.25,13.7458 L 2.25,13.7624 L 2.25,13.7791 L 2.25,13.7958 L 2.25,13.8124 L 2.25,13.8291 L 2.25,13.8458 L 2.25,13.8624 L 2.25,13.8791 L 2.25,13.8958 L 2.25,13.9124 L 2.25,13.9291 L 2.25,13.9458 L 2.25,13.9624 L 2.25,13.9791 L 2.25,13.9958 L 2.25,14.0124 L 2.25,14.0291 L 2.25,14.0458 L 2.25,14.0624 L 2.25,14.0791 L 2.25,14.0958 L 2.25,14.1124 L 2.25,14.1291 L 2.25,14.1458 L 2.25,14.1624 L 2.25,14.1791 L 2.25,14.1958 L 2.25,14.2124 L 2.25,14.2291 L 2.25,14.2458 L 2.25,14.2624 L 2.25,14.2791 L 2.25,14.2958 L 2.25,14.3124 L 2.25,14.3291 L 2.25,14.3458 L 2.25,14.3624 L 2.25,14.3791 L 2.25,14.3958 L 2.25,14.4124 L 2.25,14.4291 L 2.25,14.4458 L 2.25,14.4624 L 2.25,14.4791 L 2.25,14.4958 L 2.25,14.5124 L 2.25,14.5291 L 2.25,14.5458 L 2.25,14.5624 L 2.25,14.5791" />
      <path d="M 2.25,13.3775 L 2.25,13.3776 L 2.25,13.3777 L 2.25,13.3778 L 2.25,13.3779 L 2.25,13.378 L 2.25,13.3781 L 2.25,13.3782 L 2.25,13.3783 L 2.25,13.3784 L 2.25,13.3785 L 2.25,13.3786 L 2.25,13.3787 L 2.25,13.3788 L 2.25,13.3789 L 2.25,13.379 L 2.25,13.3791" />
      <path d="M -2.25,14.4078 L -2.5421,14.3605 L -2.8332,14.3075 L -3.1231,14.2488 L -3.4119,14.1843 L -3.6994,14.1142 L -3.9854,14.0384 L -4.2698,13.9569 L -4.5526,13.8699 L -4.8336,13.7774 L -5.1128,13.6792 L -5.3899,13.5757 L -5.665,13.4666 L -5.9378,13.3522 L -6.2084,13.2324 L -6.4765,13.1073 L -6.7421,12.9769 L -7.0051,12.8413 L -7.2653,12.7006 L -7.5227,12.5547 L -7.7772,12.4038 L -8.0287,12.2479 L -8.2771,12.0871 L -8.5222,11.9214 L -8.764,11.7509 L -9.0024,11.5757 L -9.2373,11.3958 L -9.4686,11.2113 L -9.6963,11.0223 L -9.9201,10.8288 L -10.1401,10.6309 L -10.3561,10.4288 L -10.5682,10.2224 L -10.7761,10.0119 L -10.9798,9.7973 L -11.1792,9.5787 L -11.3743,9.3563 L -11.565,9.13 L -11.7511,8.9001 L -11.9327,8.6665 L -12.1097,8.4294 L -12.2819,8.1888 L -12.4494,7.9449 L -12.612,7.6977 L -12.7697,7.4473 L -12.9225,7.1939 L -13.0702,6.9376 L -13.2128,6.6783 L -13.3503,6.4163 L -13.4826,6.1517 L -13.6096,5.8845 L -13.7314,5.6148 L -13.8478,5.3428 L -13.9588,5.0685 L -14.0644,4.7921 L -14.1645,4.5137 L -14.2591,4.2334 L -14.3482,3.9512 L -14.4317,3.6674 L -14.5095,3.3819 L -14.5817,3.095 L -14.6483,2.8067 L -14.7091,2.5172 L -14.7642,2.2265 L -14.8136,1.9347 L -14.8572,1.6421 L -14.8951,1.3486 L -14.9271,1.0545 L -14.9533,0.7598 L -14.9737,0.4646 L -14.9883,0.1691 L -14.9971,-0.1266 L -15.0,-0.4225" />
      <path d="M -15.0,-0.4225 L -14.9857,-1.0768 L -14.9429,-1.7298 L -14.8717,-2.3804 L -14.7721,-3.0272 L -14.6444,-3.6691 L -14.4889,-4.3048 L -14.3058,-4.9331 L -14.0954,-5.5528 L -13.8582,-6.1628 L -13.5946,-6.7618 L -13.3052,-7.3487 L -12.9904,-7.9225 L -12.6509,-8.482 L -12.2873,-9.0262 L -11.9003,-9.5539 L -11.4907,-10.0643 L -11.0592,-10.5564 L -10.6066,-11.0291 L -10.1339,-11.4817 L -9.6418,-11.9132 L -9.1314,-12.3228 L -8.6036,-12.7098 L -8.0595,-13.0734 L -7.5,-13.4129 L -6.9262,-13.7277 L -6.3393,-14.0171 L -5.7403,-14.2807 L -5.1303,-14.5179 L -4.5106,-14.7283 L -3.8823,-14.9114 L -3.2466,-15.0669 L -2.6047,-15.1946 L -1.9579,-15.2942 L -1.3073,-15.3654 L -0.6543,-15.4082 L 0.0,-15.4225 L 0.6543,-15.4082 L 1.3073,-15.3654 L 1.9579,-15.2942 L 2.6047,-15.1946 L 3.2466,-15.0669 L 3.8823,-14.9114 L 4.5106,-14.7283 L 5.1303,-14.5179 L 5.7403,-14.2807 L 6.3393,-14.0171 L 6.9262,-13.7277 L 7.5,-13.4129 L 8.0595,-13.0734 L 8.6036,-12.7098 L 9.1314,-12.3228 L 9.6418,-11.9132 L 10.1339,-11.4817 L 10.6066,-11.0291 L 11.0592,-10.5564 L 11.4907,-10.0643 L 11.9003,-9.5539 L 12.2873,-9.0262 L 12.6509,-8.482 L 12.9904,-7.9225 L 13.3052,-7.3487 L 13.5946,-6.7618 L 13.8582,-6.1628 L 14.0954,-5.5528 L 14.3058,-4.9331 L 14.4889,-4.3048 L 14.6444,-3.6691 L 14.7721,-3.0272 L 14.8717,-2.3804 L 14.9429,-1.7298 L 14.9857,-1.0768 L 15.0,-0.4225" />
      <path d="M 15.0,-0.4225 L 14.9971,-0.1266 L 14.9883,0.1691 L 14.9737,0.4646 L 14.9533,0.7598 L 14.9271,1.0545 L 14.8951,1.3486 L 14.8572,1.6421 L 14.8136,1.9347 L 14.7642,2.2265 L 14.7091,2.5172 L 14.6483,2.8067 L 14.5817,3.095 L 14.5095,3.3819 L 14.4317,3.6674 L 14.3482,3.9512 L 14.2591,4.2334 L 14.1645,4.5137 L 14.0644,4.7921 L 13.9588,5.0685 L 13.8478,5.3428 L 13.7314,5.6148 L 13.6096,5.8845 L 13.4826,6.1517 L 13.3503,6.4163 L 13.2128,6.6783 L 13.0702,6.9376 L 12.9225,7.1939 L 12.7697,7.4473 L 12.612,7.6977 L 12.4494,7.9449 L 12.2819,8.1888 L 12.1097,8.4294 L 11.9327,8.6665 L 11.7511,8.9001 L 11.565,9.13 L 11.3743,9.3563 L 11.1792,9.5787 L 10.9798,9.7973 L 10.7761,10.0119 L 10.5682,10.2224 L 10.3561,10.4288 L 10.1401,10.6309 L 9.9201,10.8288 L 9.6963,11.0223 L 9.4686,11.2113 L 9.2373,11.3958 L 9.0024,11.5757 L 8.764,11.7509 L 8.5222,11.9214 L 8.2771,12.0871 L 8.0287,12.2479 L 7.7772,12.4038 L 7.5227,12.5547 L 7.2653,12.7006 L 7.0051,12.8413 L 6.7421,12.9769 L 6.4765,13.1073 L 6.2084,13.2324 L 5.9378,13.3522 L 5.665,13.4666 L 5.3899,13.5757 L 5.1128,13.6792 L 4.8336,13.7774 L 4.5526,13.8699 L 4.2698,13.9569 L 3.9854,14.0384 L 3.6994,14.1142 L 3.4119,14.1843 L 3.1231,14.2488 L 2.8332,14.3075 L 2.5421,14.3605 L 2.25,14.4078" />
      <path d="M -0.0,6.0775 L -0.1418,6.0759 L -0.2835,6.0713 L -0.4251,6.0636 L -0.5665,6.0528 L -0.7076,6.0389 L -0.8484,6.0219 L -0.9888,6.0018 L -1.1287,5.9787 L -1.2681,5.9526 L -1.4069,5.9234 L -1.545,5.8912 L -1.6823,5.856 L -1.8189,5.8178 L -1.9546,5.7767 L -2.0894,5.7325 L -2.2231,5.6855 L -2.3558,5.6355 L -2.4874,5.5827 L -2.6179,5.527 L -2.747,5.4685 L -2.8749,5.4072 L -3.0014,5.3431 L -3.1264,5.2762 L -3.25,5.2067 L -3.372,5.1344 L -3.4924,5.0595 L -3.6112,4.982 L -3.7282,4.902 L -3.8435,4.8194 L -3.9569,4.7343 L -4.0685,4.6467 L -4.1781,4.5568 L -4.2857,4.4645 L -4.3913,4.3698 L -4.4948,4.2729 L -4.5962,4.1737 L -4.6954,4.0723 L -4.7923,3.9688 L -4.887,3.8632 L -4.9793,3.7556 L -5.0692,3.646 L -5.1568,3.5344 L -5.2419,3.421 L -5.3245,3.3057 L -5.4046,3.1887 L -5.482,3.0699 L -5.5569,2.9495 L -5.6292,2.8275 L -5.6987,2.7039 L -5.7656,2.5789 L -5.8297,2.4524 L -5.891,2.3245 L -5.9495,2.1953 L -6.0052,2.0649 L -6.0581,1.9333 L -6.108,1.8006 L -6.155,1.6668 L -6.1992,1.5321 L -6.2403,1.3964 L -6.2785,1.2598 L -6.3137,1.1225 L -6.3459,0.9843 L -6.3751,0.8456 L -6.4013,0.7062 L -6.4243,0.5663 L -6.4444,0.4259 L -6.4614,0.2851 L -6.4753,0.144 L -6.4861,0.0026 L -6.4938,-0.139 L -6.4985,-0.2807 L -6.5,-0.4225" />
      <path d="M -6.5,-0.4225 L -6.4938,-0.706 L -6.4753,-0.989 L -6.4444,-1.2709 L -6.4013,-1.5512 L -6.3459,-1.8294 L -6.2785,-2.1048 L -6.1992,-2.3771 L -6.108,-2.6456 L -6.0052,-2.9099 L -5.891,-3.1695 L -5.7656,-3.4239 L -5.6292,-3.6725 L -5.482,-3.915 L -5.3245,-4.1508 L -5.1568,-4.3795 L -4.9793,-4.6006 L -4.7923,-4.8138 L -4.5962,-5.0187 L -4.3913,-5.2148 L -4.1781,-5.4018 L -3.9569,-5.5793 L -3.7282,-5.747 L -3.4924,-5.9046 L -3.25,-6.0517 L -3.0014,-6.1881 L -2.747,-6.3135 L -2.4874,-6.4277 L -2.2231,-6.5305 L -1.9546,-6.6217 L -1.6823,-6.701 L -1.4069,-6.7684 L -1.1287,-6.8238 L -0.8484,-6.8669 L -0.5665,-6.8978 L -0.2835,-6.9163 L 0.0,-6.9225 L 0.2835,-6.9163 L 0.5665,-6.8978 L 0.8484,-6.8669 L 1.1287,-6.8238 L 1.4069,-6.7684 L 1.6823,-6.701 L 1.9546,-6.6217 L 2.2231,-6.5305 L 2.4874,-6.4277 L 2.747,-6.3135 L 3.0014,-6.1881 L 3.25,-6.0517 L 3.4924,-5.9046 L 3.7282,-5.747 L 3.9569,-5.5793 L 4.1781,-5.4018 L 4.3913,-5.2148 L 4.5962,-5.0187 L 4.7923,-4.8138 L 4.9793,-4.6006 L 5.1568,-4.3795 L 5.3245,-4.1508 L 5.482,-3.915 L 5.6292,-3.6725 L 5.7656,-3.4239 L 5.891,-3.1695 L 6.0052,-2.9099 L 6.108,-2.6456 L 6.1992,-2.3771 L 6.2785,-2.1048 L 6.3459,-1.8294 L 6.4013,-1.5512 L 6.4444,-1.2709 L 6.4753,-0.989 L 6.4938,-0.706 L 6.5,-0.4225" />
      <path d="M 6.5,-0.4225 L 6.4985,-0.2807 L 6.4938,-0.139 L 6.4861,0.0026 L 6.4753,0.144 L 6.4614,0.2851 L 6.4444,0.4259 L 6.4243,0.5663 L 6.4013,0.7062 L 6.3751,0.8456 L 6.3459,0.9843 L 6.3137,1.1225 L 6.2785,1.2598 L 6.2403,1.3964 L 6.1992,1.5321 L 6.155,1.6668 L 6.108,1.8006 L 6.0581,1.9333 L 6.0052,2.0649 L 5.9495,2.1953 L 5.891,2.3245 L 5.8297,2.4524 L 5.7656,2.5789 L 5.6987,2.7039 L 5.6292,2.8275 L 5.5569,2.9495 L 5.482,3.0699 L 5.4046,3.1887 L 5.3245,3.3057 L 5.2419,3.421 L 5.1568,3.5344 L 5.0692,3.646 L 4.9793,3.7556 L 4.887,3.8632 L 4.7923,3.9688 L 4.6954,4.0723 L 4.5962,4.1737 L 4.4948,4.2729 L 4.3913,4.3698 L 4.2857,4.4645 L 4.1781,4.5568 L 4.0685,4.6467 L 3.9569,4.7343 L 3.8435,4.8194 L 3.7282,4.902 L 3.6112,4.982 L 3.4924,5.0595 L 3.372,5.1344 L 3.25,5.2067 L 3.1264,5.2762 L 3.0014,5.3431 L 2.8749,5.4072 L 2.747,5.4685 L 2.6179,5.527 L 2.4874,5.5827 L 2.3558,5.6355 L 2.2231,5.6855 L 2.0894,5.7325 L 1.9546,5.7767 L 1.8189,5.8178 L 1.6823,5.856 L 1.545,5.8912 L 1.4069,5.9234 L 1.2681,5.9526 L 1.1287,5.9787 L 0.9888,6.0018 L 0.8484,6.0219 L 0.7076,6.0389 L 0.5665,6.0528 L 0.4251,6.0636 L 0.2835,6.0713 L 0.1418,6.0759 L 0.0,6.0775" />
      <path d="M -2.25,13.3791 L -2.25,13.3958 L -2.25,13.4124 L -2.25,13.4291 L -2.25,13.4458 L -2.25,13.4624 L -2.25,13.4791 L -2.25,13.4958 L -2.25,13.5124 L -2.25,13.5291 L -2.25,13.5458 L -2.25,13.5624 L -2.25,13.5791 L -2.25,13.5958 L -2.25,13.6124 L -2.25,13.6291 L -2.25,13.6458 L -2.25,13.6624 L -2.25,13.6791 L -2.25,13.6958 L -2.25,13.7124 L -2.25,13.7291 L -2.25,13.7458 L -2.25,13.7624 L -2.25,13.7791 L -2.25,13.7958 L -2.25,13.8124 L -2.25,13.8291 L -2.25,13.8458 L -2.25,13.8624 L -2.25,13.8791 L -2.25,13.8958 L -2.25,13.9124 L -2.25,13.9291 L -2.25,13.9458 L -2.25,13.9624 L -2.25,13.9791 L -2.25,13.9958 L -2.25,14.0124 L -2.25,14.0291 L -2.25,14.0458 L -2.25,14.0624 L -2.25,14.0791 L -2.25,14.0958 L -2.25,14.1124 L -2.25,14.1291 L -2.25,14.1458 L -2.25,14.1624 L -2.25,14.1791 L -2.25,14.1958 L -2.25,14.2124 L -2.25,14.2291 L -2.25,14.2458 L -2.25,14.2624 L -2.25,14.2791 L -2.25,14.2958 L -2.25,14.3124 L -2.25,14.3291 L -2.25,14.3458 L -2.25,14.3624 L -2.25,14.3791 L -2.25,14.3958 L -2.25,14.4124 L -2.25,14.4291 L -2.25,14.4458 L -2.25,14.4624 L -2.25,14.4791 L -2.25,14.4958 L -2.25,14.5124 L -2.25,14.5291 L -2.25,14.5458 L -2.25,14.5624 L -2.25,14.5791" />
      <path d="M -2.25,13.3775 L -2.25,13.3776 L -2.25,13.3777 L -2.25,13.3778 L -2.25,13.3779 L -2.25,13.378 L -2.25,13.3781 L -2.25,13.3782 L -2.25,13.3783 L -2.25,13.3784 L -2.25,13.3785 L -2.25,13.3786 L -2.25,13.3787 L -2.25,13.3788 L -2.25,13.3789 L -2.25,13.379 L -2.25,13.3791" />
      <path d="M 2.25,13.3791 L 2.1875,13.3791 L 2.125,13.3791 L 2.0625,13.3791 L 2.0,13.3791 L 1.9375,13.3791 L 1.875,13.3791 L 1.8125,13.3791 L 1.75,13.3791 L 1.6875,13.3791 L 1.625,13.3791 L 1.5625,13.3791 L 1.5,13.3791 L 1.4375,13.3791 L 1.375,13.3791 L 1.3125,13.3791 L 1.25,13.3791 L 1.1875,13.3791 L 1.125,13.3791 L 1.0625,13.3791 L 1.0,13.3791 L 0.9375,13.3791 L 0.875,13.3791 L 0.8125,13.3791 L 0.75,13.3791 L 0.6875,13.3791 L 0.625,13.3791 L 0.5625,13.3791 L 0.5,13.3791 L 0.4375,13.3791 L 0.375,13.3791 L 0.3125,13.3791 L 0.25,13.3791 L 0.1875,13.3791 L 0.125,13.3791 L 0.0625,13.3791 L 0.0,13.3791 L -0.0625,13.3791 L -0.125,13.3791 L -0.1875,13.3791 L -0.25,13.3791 L -0.3125,13.3791 L -0.375,13.3791 L -0.4375,13.3791 L -0.5,13.3791 L -0.5625,13.3791 L -0.625,13.3791 L -0.6875,13.3791 L -0.75,13.3791 L -0.8125,13.3791 L -0.875,13.3791 L -0.9375,13.3791 L -1.0,13.3791 L -1.0625,13.3791 L -1.125,13.3791 L -1.1875,13.3791 L -1.25,13.3791 L -1.3125,13.3791 L -1.375,13.3791 L -1.4375,13.3791 L -1.5,13.3791 L -1.5625,13.3791 L -1.625,13.3791 L -1.6875,13.3791 L -1.75,13.3791 L -1.8125,13.3791 L -1.875,13.3791 L -1.9375,13.3791 L -2.0,13.3791 L -2.0625,13.3791 L -2.125,13.3791 L -2.1875,13.3791 L -2.25,13.3791" />
      <path d="M 2.25,13.3775 L 2.1875,13.3775 L 2.125,13.3775 L 2.0625,13.3775 L 2.0,13.3775 L 1.9375,13.3775 L 1.875,13.3775 L 1.8125,13.3775 L 1.75,13.3775 L 1.6875,13.3775 L 1.625,13.3775 L 1.5625,13.3775 L 1.5,13.3775 L 1.4375,13.3775 L 1.375,13.3775 L 1.3125,13.3775 L 1.25,13.3775 L 1.1875,13.3775 L 1.125,13.3775 L 1.0625,13.3775 L 1.0,13.3775 L 0.9375,13.3775 L 0.875,13.3775 L 0.8125,13.3775 L 0.75,13.3775 L 0.6875,13.3775 L 0.625,13.3775 L 0.5625,13.3775 L 0.5,13.3775 L 0.4375,13.3775 L 0.375,13.3775 L 0.3125,13.3775 L 0.25,13.3775 L 0.1875,13.3775 L 0.125,13.3775 L 0.0625,13.3775 L 0.0,13.3775 L -0.0625,13.3775 L -0.125,13.3775 L -0.1875,13.3775 L -0.25,13.3775 L -0.3125,13.3775 L -0.375,13.3775 L -0.4375,13.3775 L -0.5,13.3775 L -0.5625,13.3775 L -0.625,13.3775 L -0.6875,13.3775 L -0.75,13.3775 L -0.8125,13.3775 L -0.875,13.3775 L -0.9375,13.3775 L -1.0,13.3775 L -1.0625,13.3775 L -1.125,13.3775 L -1.1875,13.3775 L -1.25,13.3775 L -1.3125,13.3775 L -1.375,13.3775 L -1.4375,13.3775 L -1.5,13.3775 L -1.5625,13.3775 L -1.625,13.3775 L -1.6875,13.3775 L -1.75,13.3775 L -1.8125,13.3775 L -1.875,13.3775 L -1.9375,13.3775 L -2.0,13.3775 L -2.0625,13.3775 L -2.125,13.3775 L -2.1875,13.3775 L -2.25,13.3775" />
      <path d="M 15.0,-0.423 L 15.0,-0.4229 L 15.0,-0.4228 L 15.0,-0.4227 L 15.0,-0.4226 L 15.0,-0.4225" />
      <path d="M -15.0,-0.423 L -15.0,-0.4229 L -15.0,-0.4228 L -15.0,-0.4227 L -15.0,-0.4226 L -15.0,-0.4225" />
      <path d="M 24.0,14.4085 L 24.0,14.4109 L 24.0,14.4132 L 24.0,14.4156 L 24.0,14.4179 L 24.0,14.4203 L 24.0,14.4227 L 24.0,14.425 L 24.0,14.4274 L 24.0,14.4297 L 24.0,14.4321 L 24.0,14.4344 L 24.0,14.4368 L 24.0,14.4392 L 24.0,14.4415 L 24.0,14.4439 L 24.0,14.4462 L 24.0,14.4486 L 24.0,14.4509 L 24.0,14.4533 L 24.0,14.4557 L 24.0,14.458 L 24.0,14.4604 L 24.0,14.4627 L 24.0,14.4651 L 24.0,14.4674 L 24.0,14.4698 L 24.0,14.4722 L 24.0,14.4745 L 24.0,14.4769 L 24.0,14.4792 L 24.0,14.4816 L 24.0,14.4839 L 24.0,14.4863 L 24.0,14.4886 L 24.0,14.491 L 24.0,14.4934 L 24.0,14.4957 L 24.0,14.4981 L 24.0,14.5004 L 24.0,14.5028 L 24.0,14.5051 L 24.0,14.5075 L 24.0,14.5099 L 24.0,14.5122 L 24.0,14.5146 L 24.0,14.5169 L 24.0,14.5193 L 24.0,14.5216 L 24.0,14.524 L 24.0,14.5264 L 24.0,14.5287 L 24.0,14.5311 L 24.0,14.5334 L 24.0,14.5358 L 24.0,14.5381 L 24.0,14.5405 L 24.0,14.5429 L 24.0,14.5452 L 24.0,14.5476 L 24.0,14.5499 L 24.0,14.5523 L 24.0,14.5546 L 24.0,14.557 L 24.0,14.5594 L 24.0,14.5617 L 24.0,14.5641 L 24.0,14.5664 L 24.0,14.5688 L 24.0,14.5711 L 24.0,14.5735 L 24.0,14.5759 L 24.0,14.5782" />
      <path d="M 24.0003,14.4066 L 24.0005,13.9923 L 24.0006,13.578 L 24.0006,13.1637 L 24.0007,12.7494 L 24.0007,12.3351 L 24.0008,11.9208 L 24.0008,11.5065 L 24.0009,11.0922 L 24.0009,10.6779 L 24.0009,10.2636 L 24.001,9.8493 L 24.001,9.4351 L 24.001,9.0208 L 24.001,8.6065 L 24.001,8.1922 L 24.0011,7.7779 L 24.0011,7.3636 L 24.0011,6.9493 L 24.0011,6.535 L 24.0011,6.1207 L 24.0012,5.7064 L 24.0012,5.2921 L 24.0012,4.8778 L 24.0012,4.4635 L 24.0012,4.0492 L 24.0012,3.6349 L 24.0012,3.2206 L 24.0012,2.8063 L 24.0012,2.392 L 24.0012,1.9777 L 24.0012,1.5634 L 24.0012,1.1491 L 24.0012,0.7348 L 24.0012,0.3205 L 24.0012,-0.0938 L 24.0012,-0.5081 L 24.0012,-0.9224 L 24.0012,-1.3367 L 24.0012,-1.751 L 24.0012,-2.1652 L 24.0012,-2.5795 L 24.0012,-2.9938 L 24.0012,-3.4081 L 24.0012,-3.8224 L 24.0012,-4.2367 L 24.0012,-4.651 L 24.0012,-5.0653 L 24.0012,-5.4796 L 24.0012,-5.8939 L 24.0012,-6.3082 L 24.0011,-6.7225 L 24.0011,-7.1368 L 24.0011,-7.5511 L 24.0011,-7.9654 L 24.0011,-8.3797 L 24.0011,-8.794 L 24.001,-9.2083 L 24.001,-9.6226 L 24.001,-10.0369 L 24.001,-10.4512 L 24.0009,-10.8655 L 24.0009,-11.2798 L 24.0009,-11.6941 L 24.0008,-12.1084 L 24.0008,-12.5227 L 24.0008,-12.937 L 24.0007,-13.3512 L 24.0007,-13.7655 L 24.0006,-14.1798 L 24.0005,-14.5941 L 24.0004,-15.0084 L 24.0002,-15.4227" />
      <path d="M 24.0002,-15.4227 L 23.9999,-15.0084 L 23.9998,-14.5941 L 23.9997,-14.1798 L 23.9997,-13.7654 L 23.9996,-13.3511 L 23.9996,-12.9368 L 23.9995,-12.5225 L 23.9995,-12.1081 L 23.9994,-11.6938 L 23.9994,-11.2795 L 23.9994,-10.8652 L 23.9994,-10.4509 L 23.9993,-10.0365 L 23.9993,-9.6222 L 23.9993,-9.2079 L 23.9993,-8.7936 L 23.9992,-8.3792 L 23.9992,-7.9649 L 23.9992,-7.5506 L 23.9992,-7.1363 L 23.9992,-6.722 L 23.9992,-6.3076 L 23.9992,-5.8933 L 23.9991,-5.479 L 23.9991,-5.0647 L 23.9991,-4.6503 L 23.9991,-4.236 L 23.9991,-3.8217 L 23.9991,-3.4074 L 23.9991,-2.993 L 23.9991,-2.5787 L 23.9991,-2.1644 L 23.9991,-1.7501 L 23.9991,-1.3358 L 23.9991,-0.9214 L 23.9991,-0.5071 L 23.9991,-0.0928 L 23.9991,0.3215 L 23.9991,0.7359 L 23.9991,1.1502 L 23.9991,1.5645 L 23.9991,1.9788 L 23.9991,2.3931 L 23.9991,2.8075 L 23.9991,3.2218 L 23.9991,3.6361 L 23.9991,4.0504 L 23.9991,4.4648 L 23.9991,4.8791 L 23.9992,5.2934 L 23.9992,5.7077 L 23.9992,6.1221 L 23.9992,6.5364 L 23.9992,6.9507 L 23.9992,7.365 L 23.9993,7.7793 L 23.9993,8.1937 L 23.9993,8.608 L 23.9993,9.0223 L 23.9993,9.4366 L 23.9994,9.851 L 23.9994,10.2653 L 23.9994,10.6796 L 23.9995,11.0939 L 23.9995,11.5082 L 23.9995,11.9226 L 23.9996,12.3369 L 23.9996,12.7512 L 23.9997,13.1655 L 23.9998,13.5799 L 23.9999,13.9942 L 24.0,14.4085" />
      <path d="M 24.0002,6.0773 L 24.0003,5.8967 L 24.0003,5.7162 L 24.0004,5.5356 L 24.0004,5.355 L 24.0004,5.1745 L 24.0004,4.9939 L 24.0004,4.8134 L 24.0005,4.6328 L 24.0005,4.4523 L 24.0005,4.2717 L 24.0005,4.0912 L 24.0005,3.9106 L 24.0005,3.73 L 24.0005,3.5495 L 24.0005,3.3689 L 24.0006,3.1884 L 24.0006,3.0078 L 24.0006,2.8273 L 24.0006,2.6467 L 24.0006,2.4662 L 24.0006,2.2856 L 24.0006,2.105 L 24.0006,1.9245 L 24.0006,1.7439 L 24.0006,1.5634 L 24.0006,1.3828 L 24.0006,1.2023 L 24.0006,1.0217 L 24.0006,0.8412 L 24.0006,0.6606 L 24.0006,0.48 L 24.0006,0.2995 L 24.0006,0.1189 L 24.0006,-0.0616 L 24.0006,-0.2422 L 24.0006,-0.4227 L 24.0006,-0.6033 L 24.0006,-0.7838 L 24.0006,-0.9644 L 24.0006,-1.145 L 24.0006,-1.3255 L 24.0006,-1.5061 L 24.0006,-1.6866 L 24.0006,-1.8672 L 24.0006,-2.0477 L 24.0006,-2.2283 L 24.0006,-2.4088 L 24.0006,-2.5894 L 24.0006,-2.77 L 24.0006,-2.9505 L 24.0006,-3.1311 L 24.0006,-3.3116 L 24.0006,-3.4922 L 24.0006,-3.6727 L 24.0006,-3.8533 L 24.0006,-4.0338 L 24.0005,-4.2144 L 24.0005,-4.395 L 24.0005,-4.5755 L 24.0005,-4.7561 L 24.0005,-4.9366 L 24.0005,-5.1172 L 24.0005,-5.2977 L 24.0005,-5.4783 L 24.0004,-5.6588 L 24.0004,-5.8394 L 24.0004,-6.02 L 24.0004,-6.2005 L 24.0004,-6.3811 L 24.0003,-6.5616 L 24.0003,-6.7422 L 24.0002,-6.9227" />
      <path d="M 24.0002,-6.9227 L 24.0001,-6.7422 L 24.0,-6.5616 L 24.0,-6.3811 L 23.9999,-6.2005 L 23.9999,-6.02 L 23.9999,-5.8394 L 23.9999,-5.6588 L 23.9999,-5.4783 L 23.9999,-5.2977 L 23.9998,-5.1172 L 23.9998,-4.9366 L 23.9998,-4.7561 L 23.9998,-4.5755 L 23.9998,-4.395 L 23.9998,-4.2144 L 23.9998,-4.0338 L 23.9998,-3.8533 L 23.9998,-3.6727 L 23.9997,-3.4922 L 23.9997,-3.3116 L 23.9997,-3.1311 L 23.9997,-2.9505 L 23.9997,-2.77 L 23.9997,-2.5894 L 23.9997,-2.4088 L 23.9997,-2.2283 L 23.9997,-2.0477 L 23.9997,-1.8672 L 23.9997,-1.6866 L 23.9997,-1.5061 L 23.9997,-1.3255 L 23.9997,-1.145 L 23.9997,-0.9644 L 23.9997,-0.7838 L 23.9997,-0.6033 L 23.9997,-0.4227 L 23.9997,-0.2422 L 23.9997,-0.0616 L 23.9997,0.1189 L 23.9997,0.2995 L 23.9997,0.48 L 23.9997,0.6606 L 23.9997,0.8412 L 23.9997,1.0217 L 23.9997,1.2023 L 23.9997,1.3828 L 23.9997,1.5634 L 23.9997,1.7439 L 23.9997,1.9245 L 23.9997,2.105 L 23.9997,2.2856 L 23.9997,2.4662 L 23.9997,2.6467 L 23.9998,2.8273 L 23.9998,3.0078 L 23.9998,3.1884 L 23.9998,3.3689 L 23.9998,3.5495 L 23.9998,3.73 L 23.9998,3.9106 L 23.9998,4.0912 L 23.9998,4.2717 L 23.9999,4.4523 L 23.9999,4.6328 L 23.9999,4.8134 L 23.9999,4.9939 L 23.9999,5.1745 L 23.9999,5.355 L 24.0,5.5356 L 24.0,5.7162 L 24.0001,5.8967 L 24.0002,6.0773" />
      <path d="M 24.0,14.5782 L 23.9306,14.5782 L 23.8611,14.5782 L 23.7917,14.5782 L 23.7222,14.5782 L 23.6528,14.5782 L 23.5833,14.5782 L 23.5139,14.5782 L 23.4444,14.5782 L 23.375,14.5782 L 23.3056,14.5782 L 23.2361,14.5782 L 23.1667,14.5782 L 23.0972,14.5782 L 23.0278,14.5782 L 22.9583,14.5782 L 22.8889,14.5782 L 22.8194,14.5782 L 22.75,14.5782 L 22.6806,14.5782 L 22.6111,14.5782 L 22.5417,14.5782 L 22.4722,14.5782 L 22.4028,14.5782 L 22.3333,14.5782 L 22.2639,14.5782 L 22.1944,14.5782 L 22.125,14.5782 L 22.0556,14.5782 L 21.9861,14.5782 L 21.9167,14.5782 L 21.8472,14.5782 L 21.7778,14.5782 L 21.7083,14.5782 L 21.6389,14.5782 L 21.5694,14.5782 L 21.5,14.5782 L 21.4306,14.5782 L 21.3611,14.5782 L 21.2917,14.5782 L 21.2222,14.5782 L 21.1528,14.5782 L 21.0833,14.5782 L 21.0139,14.5782 L 20.9444,14.5782 L 20.875,14.5782 L 20.8056,14.5782 L 20.7361,14.5782 L 20.6667,14.5782 L 20.5972,14.5782 L 20.5278,14.5782 L 20.4583,14.5782 L 20.3889,14.5782 L 20.3194,14.5782 L 20.25,14.5782 L 20.1806,14.5782 L 20.1111,14.5782 L 20.0417,14.5782 L 19.9722,14.5782 L 19.9028,14.5782 L 19.8333,14.5782 L 19.7639,14.5782 L 19.6944,14.5782 L 19.625,14.5782 L 19.5556,14.5782 L 19.4861,14.5782 L 19.4167,14.5782 L 19.3472,14.5782 L 19.2778,14.5782 L 19.2083,14.5782 L 19.1389,14.5782 L 19.0694,14.5782 L 19.0,14.5782" />
      <path d="M 19.0,13.3782 L 19.0,13.3949 L 19.0,13.4116 L 19.0,13.4282 L 19.0,13.4449 L 19.0,13.4616 L 19.0,13.4782 L 19.0,13.4949 L 19.0,13.5116 L 19.0,13.5282 L 19.0,13.5449 L 19.0,13.5616 L 19.0,13.5782 L 19.0,13.5949 L 19.0,13.6116 L 19.0,13.6282 L 19.0,13.6449 L 19.0,13.6616 L 19.0,13.6782 L 19.0,13.6949 L 19.0,13.7116 L 19.0,13.7282 L 19.0,13.7449 L 19.0,13.7616 L 19.0,13.7782 L 19.0,13.7949 L 19.0,13.8116 L 19.0,13.8282 L 19.0,13.8449 L 19.0,13.8616 L 19.0,13.8782 L 19.0,13.8949 L 19.0,13.9116 L 19.0,13.9282 L 19.0,13.9449 L 19.0,13.9616 L 19.0,13.9782 L 19.0,13.9949 L 19.0,14.0116 L 19.0,14.0282 L 19.0,14.0449 L 19.0,14.0616 L 19.0,14.0782 L 19.0,14.0949 L 19.0,14.1116 L 19.0,14.1282 L 19.0,14.1449 L 19.0,14.1616 L 19.0,14.1782 L 19.0,14.1949 L 19.0,14.2116 L 19.0,14.2282 L 19.0,14.2449 L 19.0,14.2616 L 19.0,14.2782 L 19.0,14.2949 L 19.0,14.3116 L 19.0,14.3282 L 19.0,14.3449 L 19.0,14.3616 L 19.0,14.3782 L 19.0,14.3949 L 19.0,14.4116 L 19.0,14.4282 L 19.0,14.4449 L 19.0,14.4616 L 19.0,14.4782 L 19.0,14.4949 L 19.0,14.5116 L 19.0,14.5282 L 19.0,14.5449 L 19.0,14.5616 L 19.0,14.5782" />
      <path d="M 22.7997,13.3782 L 22.747,13.3782 L 22.6942,13.3782 L 22.6414,13.3782 L 22.5886,13.3782 L 22.5359,13.3782 L 22.4831,13.3782 L 22.4303,13.3782 L 22.3775,13.3782 L 22.3248,13.3782 L 22.272,13.3782 L 22.2192,13.3782 L 22.1664,13.3782 L 22.1137,13.3782 L 22.0609,13.3782 L 22.0081,13.3782 L 21.9554,13.3782 L 21.9026,13.3782 L 21.8498,13.3782 L 21.797,13.3782 L 21.7443,13.3782 L 21.6915,13.3782 L 21.6387,13.3782 L 21.5859,13.3782 L 21.5332,13.3782 L 21.4804,13.3782 L 21.4276,13.3782 L 21.3748,13.3782 L 21.3221,13.3782 L 21.2693,13.3782 L 21.2165,13.3782 L 21.1637,13.3782 L 21.111,13.3782 L 21.0582,13.3782 L 21.0054,13.3782 L 20.9526,13.3782 L 20.8999,13.3782 L 20.8471,13.3782 L 20.7943,13.3782 L 20.7415,13.3782 L 20.6888,13.3782 L 20.636,13.3782 L 20.5832,13.3782 L 20.5304,13.3782 L 20.4777,13.3782 L 20.4249,13.3782 L 20.3721,13.3782 L 20.3194,13.3782 L 20.2666,13.3782 L 20.2138,13.3782 L 20.161,13.3782 L 20.1083,13.3782 L 20.0555,13.3782 L 20.0027,13.3782 L 19.9499,13.3782 L 19.8972,13.3782 L 19.8444,13.3782 L 19.7916,13.3782 L 19.7388,13.3782 L 19.6861,13.3782 L 19.6333,13.3782 L 19.5805,13.3782 L 19.5277,13.3782 L 19.475,13.3782 L 19.4222,13.3782 L 19.3694,13.3782 L 19.3166,13.3782 L 19.2639,13.3782 L 19.2111,13.3782 L 19.1583,13.3782 L 19.1055,13.3782 L 19.0528,13.3782 L 19.0,13.3782" />
      <path d="M 24.0,14.4085 L 23.9833,14.4085 L 23.9667,14.4085 L 23.95,14.4085 L 23.9333,14.4085 L 23.9167,14.4085 L 23.9,14.4085 L 23.8833,14.4085 L 23.8667,14.4085 L 23.85,14.4085 L 23.8333,14.4085 L 23.8167,14.4085 L 23.8,14.4085 L 23.7833,14.4085 L 23.7667,14.4085 L 23.75,14.4085 L 23.7333,14.4085 L 23.7167,14.4085 L 23.7,14.4085 L 23.6833,14.4085 L 23.6667,14.4085 L 23.65,14.4085 L 23.6333,14.4085 L 23.6167,14.4085 L 23.6,14.4085 L 23.5833,14.4085 L 23.5667,14.4085 L 23.55,14.4085 L 23.5333,14.4085 L 23.5167,14.4085 L 23.5,14.4085 L 23.4833,14.4085 L 23.4667,14.4085 L 23.45,14.4085 L 23.4333,14.4085 L 23.4167,14.4085 L 23.4,14.4085 L 23.3833,14.4085 L 23.3667,14.4085 L 23.35,14.4085 L 23.3333,14.4085 L 23.3167,14.4085 L 23.3,14.4085 L 23.2833,14.4085 L 23.2667,14.4085 L 23.25,14.4085 L 23.2333,14.4085 L 23.2167,14.4085 L 23.2,14.4085 L 23.1833,14.4085 L 23.1667,14.4085 L 23.15,14.4085 L 23.1333,14.4085 L 23.1167,14.4085 L 23.1,14.4085 L 23.0833,14.4085 L 23.0667,14.4085 L 23.05,14.4085 L 23.0333,14.4085 L 23.0167,14.4085 L 23.0,14.4085 L 22.9833,14.4085 L 22.9667,14.4085 L 22.95,14.4085 L 22.9333,14.4085 L 22.9167,14.4085 L 22.9,14.4085 L 22.8833,14.4085 L 22.8667,14.4085 L 22.85,14.4085 L 22.8333,14.4085 L 22.8167,14.4085 L 22.8,14.4085" />
      <path d="M 22.8002,-15.4227 L 22.7999,-15.0084 L 22.7998,-14.5941 L 22.7997,-14.1798 L 22.7997,-13.7654 L 22.7996,-13.3511 L 22.7996,-12.9368 L 22.7995,-12.5225 L 22.7995,-12.1081 L 22.7994,-11.6938 L 22.7994,-11.2795 L 22.7994,-10.8652 L 22.7994,-10.4509 L 22.7993,-10.0365 L 22.7993,-9.6222 L 22.7993,-9.2079 L 22.7993,-8.7936 L 22.7992,-8.3792 L 22.7992,-7.9649 L 22.7992,-7.5506 L 22.7992,-7.1363 L 22.7992,-6.722 L 22.7992,-6.3076 L 22.7992,-5.8933 L 22.7991,-5.479 L 22.7991,-5.0647 L 22.7991,-4.6503 L 22.7991,-4.236 L 22.7991,-3.8217 L 22.7991,-3.4074 L 22.7991,-2.993 L 22.7991,-2.5787 L 22.7991,-2.1644 L 22.7991,-1.7501 L 22.7991,-1.3358 L 22.7991,-0.9214 L 22.7991,-0.5071 L 22.7991,-0.0928 L 22.7991,0.3215 L 22.7991,0.7359 L 22.7991,1.1502 L 22.7991,1.5645 L 22.7991,1.9788 L 22.7991,2.3931 L 22.7991,2.8075 L 22.7991,3.2218 L 22.7991,3.6361 L 22.7991,4.0504 L 22.7991,4.4648 L 22.7991,4.8791 L 22.7992,5.2934 L 22.7992,5.7077 L 22.7992,6.1221 L 22.7992,6.5364 L 22.7992,6.9507 L 22.7992,7.365 L 22.7993,7.7793 L 22.7993,8.1937 L 22.7993,8.608 L 22.7993,9.0223 L 22.7993,9.4366 L 22.7994,9.851 L 22.7994,10.2653 L 22.7994,10.6796 L 22.7995,11.0939 L 22.7995,11.5082 L 22.7995,11.9226 L 22.7996,12.3369 L 22.7996,12.7512 L 22.7997,13.1655 L 22.7998,13.5799 L 22.7999,13.9942 L 22.8,14.4085" />
      <path d="M 24.0003,14.4066 L 24.0002,14.4066 L 24.0001,14.4066 L 24.0,14.4066" />
      <path d="M 22.7997,13.3763 L 22.747,13.3763 L 22.6942,13.3763 L 22.6414,13.3763 L 22.5887,13.3763 L 22.5359,13.3763 L 22.4831,13.3763 L 22.4303,13.3763 L 22.3776,13.3763 L 22.3248,13.3763 L 22.272,13.3763 L 22.2193,13.3763 L 22.1665,13.3763 L 22.1137,13.3763 L 22.061,13.3763 L 22.0082,13.3763 L 21.9554,13.3763 L 21.9027,13.3763 L 21.8499,13.3763 L 21.7971,13.3763 L 21.7443,13.3763 L 21.6916,13.3763 L 21.6388,13.3763 L 21.586,13.3763 L 21.5333,13.3763 L 21.4805,13.3763 L 21.4277,13.3763 L 21.375,13.3763 L 21.3222,13.3763 L 21.2694,13.3763 L 21.2166,13.3763 L 21.1639,13.3763 L 21.1111,13.3763 L 21.0583,13.3763 L 21.0056,13.3763 L 20.9528,13.3763 L 20.9,13.3763 L 20.8473,13.3763 L 20.7945,13.3763 L 20.7417,13.3763 L 20.689,13.3763 L 20.6362,13.3763 L 20.5834,13.3763 L 20.5306,13.3763 L 20.4779,13.3763 L 20.4251,13.3763 L 20.3723,13.3763 L 20.3196,13.3763 L 20.2668,13.3763 L 20.214,13.3763 L 20.1613,13.3763 L 20.1085,13.3763 L 20.0557,13.3763 L 20.0029,13.3763 L 19.9502,13.3763 L 19.8974,13.3763 L 19.8446,13.3763 L 19.7919,13.3763 L 19.7391,13.3763 L 19.6863,13.3763 L 19.6336,13.3763 L 19.5808,13.3763 L 19.528,13.3763 L 19.4753,13.3763 L 19.4225,13.3763 L 19.3697,13.3763 L 19.3169,13.3763 L 19.2642,13.3763 L 19.2114,13.3763 L 19.1586,13.3763 L 19.1059,13.3763 L 19.0531,13.3763 L 19.0003,13.3763" />
      <path d="M 19.0,13.3782 L 19.0,13.3781 L 19.0,13.378 L 19.0,13.3779 L 19.0001,13.3779 L 19.0001,13.3778 L 19.0001,13.3777 L 19.0001,13.3776 L 19.0001,13.3775 L 19.0001,13.3774 L 19.0001,13.3773 L 19.0002,13.3773 L 19.0002,13.3772 L 19.0002,13.3771 L 19.0002,13.377 L 19.0002,13.3769 L 19.0002,13.3768 L 19.0003,13.3767 L 19.0003,13.3766 L 19.0003,13.3765 L 19.0003,13.3764 L 19.0003,13.3763" />
      <path d="M 24.0002,-15.4227 L 23.9835,-15.4227 L 23.9668,-15.4227 L 23.9502,-15.4227 L 23.9335,-15.4227 L 23.9168,-15.4227 L 23.9002,-15.4227 L 23.8835,-15.4227 L 23.8668,-15.4227 L 23.8502,-15.4227 L 23.8335,-15.4227 L 23.8168,-15.4227 L 23.8002,-15.4227 L 23.7835,-15.4227 L 23.7668,-15.4227 L 23.7502,-15.4227 L 23.7335,-15.4227 L 23.7168,-15.4227 L 23.7002,-15.4227 L 23.6835,-15.4227 L 23.6668,-15.4227 L 23.6502,-15.4227 L 23.6335,-15.4227 L 23.6168,-15.4227 L 23.6002,-15.4227 L 23.5835,-15.4227 L 23.5668,-15.4227 L 23.5502,-15.4227 L 23.5335,-15.4227 L 23.5168,-15.4227 L 23.5002,-15.4227 L 23.4835,-15.4227 L 23.4668,-15.4227 L 23.4502,-15.4227 L 23.4335,-15.4227 L 23.4168,-15.4227 L 23.4002,-15.4227 L 23.3835,-15.4227 L 23.3668,-15.4227 L 23.3502,-15.4227 L 23.3335,-15.4227 L 23.3168,-15.4227 L 23.3002,-15.4227 L 23.2835,-15.4227 L 23.2668,-15.4227 L 23.2502,-15.4227 L 23.2335,-15.4227 L 23.2168,-15.4227 L 23.2002,-15.4227 L 23.1835,-15.4227 L 23.1668,-15.4227 L 23.1502,-15.4227 L 23.1335,-15.4227 L 23.1168,-15.4227 L 23.1002,-15.4227 L 23.0835,-15.4227 L 23.0668,-15.4227 L 23.0502,-15.4227 L 23.0335,-15.4227 L 23.0168,-15.4227 L 23.0002,-15.4227 L 22.9835,-15.4227 L 22.9668,-15.4227 L 22.9502,-15.4227 L 22.9335,-15.4227 L 22.9168,-15.4227 L 22.9002,-15.4227 L 22.8835,-15.4227 L 22.8668,-15.4227 L 22.8502,-15.4227 L 22.8335,-15.4227 L 22.8168,-15.4227 L 22.8002,-15.4227" />
      <path d="M 24.0002,6.0773 L 24.0001,6.0773 L 24.0,6.0773 L 23.9999,6.0773 L 23.9998,6.0773 L 23.9997,6.0773 L 23.9996,6.0773 L 23.9995,6.0773 L 23.9994,6.0773 L 23.9993,6.0773 L 23.9992,6.0773" />
      <path d="M 24.0002,-6.9227 L 24.0001,-6.9227 L 24.0,-6.9227 L 23.9999,-6.9227 L 23.9998,-6.9227 L 23.9997,-6.9227 L 23.9996,-6.9227 L 23.9995,-6.9227 L 23.9994,-6.9227 L 23.9993,-6.9227 L 23.9992,-6.9227" />
    </g>
    <g fill="none" stroke="rgb(110,110,110)" stroke-width="0.3" id="Hidden" stroke-dasharray="3.6 0.9">
      <path d="M 2.25,14.4073 L 2.25,14.4096 L 2.25,14.412 L 2.25,14.4143 L 2.25,14.4167 L 2.25,14.4191 L 2.25,14.4214 L 2.25,14.4238 L 2.25,14.4261 L 2.25,14.4285 L 2.25,14.4308 L 2.25,14.4332 L 2.25,14.4356 L 2.25,14.4379 L 2.25,14.4403 L 2.25,14.4426 L 2.25,14.445 L 2.25,14.4473 L 2.25,14.4497 L 2.25,14.4521 L 2.25,14.4544 L 2.25,14.4568 L 2.25,14.4591 L 2.25,14.4615 L 2.25,14.4638 L 2.25,14.4662 L 2.25,14.4686 L 2.25,14.4709 L 2.25,14.4733 L 2.25,14.4756 L 2.25,14.478 L 2.25,14.4803 L 2.25,14.4827 L 2.25,14.4851 L 2.25,14.4874 L 2.25,14.4898 L 2.25,14.4921 L 2.25,14.4945 L 2.25,14.4968 L 2.25,14.4992 L 2.25,14.5016 L 2.25,14.5039 L 2.25,14.5063 L 2.25,14.5086 L 2.25,14.511 L 2.25,14.5133 L 2.25,14.5157 L 2.25,14.5181 L 2.25,14.5204 L 2.25,14.5228 L 2.25,14.5251 L 2.25,14.5275 L 2.25,14.5298 L 2.25,14.5322 L 2.25,14.5346 L 2.25,14.5369 L 2.25,14.5393 L 2.25,14.5416 L 2.25,14.544 L 2.25,14.5463 L 2.25,14.5487 L 2.25,14.5511 L 2.25,14.5534 L 2.25,14.5558 L 2.25,14.5581 L 2.25,14.5605 L 2.25,14.5628 L 2.25,14.5652 L 2.25,14.5676 L 2.25,14.5699 L 2.25,14.5723 L 2.25,14.5746 L 2.25,14.577" />
      <path d="M 2.25,14.577 L 2.2187,14.577 L 2.1875,14.577 L 2.1562,14.577 L 2.125,14.577 L 2.0937,14.577 L 2.0625,14.577 L 2.0312,14.577 L 2.0,14.577 L 1.9687,14.577 L 1.9375,14.577 L 1.9062,14.577 L 1.875,14.577 L 1.8437,14.577 L 1.8125,14.577 L 1.7812,14.577 L 1.75,14.577 L 1.7188,14.577 L 1.6875,14.577 L 1.6562,14.577 L 1.625,14.577 L 1.5938,14.577 L 1.5625,14.577 L 1.5313,14.577 L 1.5,14.577 L 1.4688,14.577 L 1.4375,14.577 L 1.4063,14.577 L 1.375,14.577 L 1.3438,14.577 L 1.3125,14.577 L 1.2813,14.577 L 1.25,14.577 L 1.2188,14.577 L 1.1875,14.577 L 1.1563,14.577 L 1.125,14.577 L 1.0938,14.577 L 1.0625,14.577 L 1.0313,14.577 L 1.0,14.577 L 0.9688,14.577 L 0.9375,14.577 L 0.9063,14.577 L 0.875,14.577 L 0.8438,14.577 L 0.8125,14.577 L 0.7813,14.577 L 0.75,14.577 L 0.7188,14.577 L 0.6875,14.577 L 0.6563,14.577 L 0.625,14.577 L 0.5938,14.577 L 0.5625,14.577 L 0.5313,14.577 L 0.5,14.577 L 0.4688,14.577 L 0.4375,14.577 L 0.4063,14.577 L 0.375,14.577 L 0.3438,14.577 L 0.3125,14.577 L 0.2813,14.577 L 0.25,14.577 L 0.2188,14.577 L 0.1875,14.577 L 0.1563,14.577 L 0.125,14.577 L 0.0938,14.577 L 0.0625,14.577 L 0.0313,14.577 L 0.0,14.577" />
      <path d="M 0.0,14.577 L -0.0312,14.577 L -0.0625,14.577 L -0.0937,14.577 L -0.125,14.577 L -0.1562,14.577 L -0.1875,14.577 L -0.2187,14.577 L -0.25,14.577 L -0.2812,14.577 L -0.3125,14.577 L -0.3437,14.577 L -0.375,14.577 L -0.4062,14.577 L -0.4375,14.577 L -0.4687,14.577 L -0.5,14.577 L -0.5312,14.577 L -0.5625,14.577 L -0.5937,14.577 L -0.625,14.577 L -0.6562,14.577 L -0.6875,14.577 L -0.7187,14.577 L -0.75,14.577 L -0.7812,14.577 L -0.8125,14.577 L -0.8437,14.577 L -0.875,14.577 L -0.9062,14.577 L -0.9375,14.577 L -0.9687,14.577 L -1.0,14.577 L -1.0312,14.577 L -1.0625,14.577 L -1.0937,14.577 L -1.125,14.577 L -1.1562,14.577 L -1.1875,14.577 L -1.2187,14.577 L -1.25,14.577 L -1.2812,14.577 L -1.3125,14.577 L -1.3437,14.577 L -1.375,14.577 L -1.4062,14.577 L -1.4375,14.577 L -1.4688,14.577 L -1.5,14.577 L -1.5312,14.577 L -1.5625,14.577 L -1.5938,14.577 L -1.625,14.577 L -1.6562,14.577 L -1.6875,14.577 L -1.7188,14.577 L -1.75,14.577 L -1.7812,14.577 L -1.8125,14.577 L -1.8438,14.577 L -1.875,14.577 L -1.9062,14.577 L -1.9375,14.577 L -1.9688,14.577 L -2.0,14.577 L -2.0313,14.577 L -2.0625,14.577 L -2.0938,14.577 L -2.125,14.577 L -2.1563,14.577 L -2.1875,14.577 L -2.2188,14.577 L -2.25,14.577" />
      <path d="M -2.25,14.4073 L -2.25,14.4096 L -2.25,14.412 L -2.25,14.4143 L -2.25,14.4167 L -2.25,14.4191 L -2.25,14.4214 L -2.25,14.4238 L -2.25,14.4261 L -2.25,14.4285 L -2.25,14.4308 L -2.25,14.4332 L -2.25,14.4356 L -2.25,14.4379 L -2.25,14.4403 L -2.25,14.4426 L -2.25,14.445 L -2.25,14.4473 L -2.25,14.4497 L -2.25,14.4521 L -2.25,14.4544 L -2.25,14.4568 L -2.25,14.4591 L -2.25,14.4615 L -2.25,14.4638 L -2.25,14.4662 L -2.25,14.4686 L -2.25,14.4709 L -2.25,14.4733 L -2.25,14.4756 L -2.25,14.478 L -2.25,14.4803 L -2.25,14.4827 L -2.25,14.4851 L -2.25,14.4874 L -2.25,14.4898 L -2.25,14.4921 L -2.25,14.4945 L -2.25,14.4968 L -2.25,14.4992 L -2.25,14.5016 L -2.25,14.5039 L -2.25,14.5063 L -2.25,14.5086 L -2.25,14.511 L -2.25,14.5133 L -2.25,14.5157 L -2.25,14.5181 L -2.25,14.5204 L -2.25,14.5228 L -2.25,14.5251 L -2.25,14.5275 L -2.25,14.5298 L -2.25,14.5322 L -2.25,14.5346 L -2.25,14.5369 L -2.25,14.5393 L -2.25,14.5416 L -2.25,14.544 L -2.25,14.5463 L -2.25,14.5487 L -2.25,14.5511 L -2.25,14.5534 L -2.25,14.5558 L -2.25,14.5581 L -2.25,14.5605 L -2.25,14.5628 L -2.25,14.5652 L -2.25,14.5676 L -2.25,14.5699 L -2.25,14.5723 L -2.25,14.5746 L -2.25,14.577" />
      <path d="M -2.25,14.4073 L -2.5421,14.36 L -2.8332,14.307 L -3.1231,14.2482 L -3.4119,14.1838 L -3.6994,14.1137 L -3.9854,14.0379 L -4.2698,13.9564 L -4.5526,13.8694 L -4.8336,13.7768 L -5.1128,13.6787 L -5.3899,13.5752 L -5.665,13.4661 L -5.9378,13.3517 L -6.2084,13.2319 L -6.4765,13.1068 L -6.7421,12.9764 L -7.0051,12.8408 L -7.2653,12.7001 L -7.5227,12.5542 L -7.7772,12.4033 L -8.0287,12.2474 L -8.2771,12.0866 L -8.5222,11.9209 L -8.764,11.7504 L -9.0024,11.5752 L -9.2373,11.3953 L -9.4686,11.2108 L -9.6963,11.0217 L -9.9201,10.8283 L -10.1401,10.6304 L -10.3561,10.4283 L -10.5682,10.2219 L -10.7761,10.0114 L -10.9798,9.7968 L -11.1792,9.5782 L -11.3743,9.3558 L -11.565,9.1295 L -11.7511,8.8996 L -11.9327,8.666 L -12.1097,8.4288 L -12.2819,8.1883 L -12.4494,7.9443 L -12.612,7.6972 L -12.7697,7.4468 L -12.9225,7.1934 L -13.0702,6.9371 L -13.2128,6.6778 L -13.3503,6.4158 L -13.4826,6.1512 L -13.6096,5.884 L -13.7314,5.6143 L -13.8478,5.3423 L -13.9588,5.068 L -14.0644,4.7916 L -14.1645,4.5132 L -14.2591,4.2329 L -14.3482,3.9507 L -14.4317,3.6669 L -14.5095,3.3814 L -14.5817,3.0945 L -14.6483,2.8062 L -14.7091,2.5166 L -14.7642,2.2259 L -14.8136,1.9342 L -14.8572,1.6416 L -14.8951,1.3481 L -14.9271,1.054 L -14.9533,0.7593 L -14.9737,0.4641 L -14.9883,0.1686 L -14.9971,-0.1272 L -15.0,-0.423" />
      <path d="M 15.0,-0.423 L 14.9971,-0.1272 L 14.9883,0.1686 L 14.9737,0.4641 L 14.9533,0.7593 L 14.9271,1.054 L 14.8951,1.3481 L 14.8572,1.6416 L 14.8136,1.9342 L 14.7642,2.2259 L 14.7091,2.5166 L 14.6483,2.8062 L 14.5817,3.0945 L 14.5095,3.3814 L 14.4317,3.6669 L 14.3482,3.9507 L 14.2591,4.2329 L 14.1645,4.5132 L 14.0644,4.7916 L 13.9588,5.068 L 13.8478,5.3423 L 13.7314,5.6143 L 13.6096,5.884 L 13.4826,6.1512 L 13.3503,6.4158 L 13.2128,6.6778 L 13.0702,6.9371 L 12.9225,7.1934 L 12.7697,7.4468 L 12.612,7.6972 L 12.4494,7.9443 L 12.2819,8.1883 L 12.1097,8.4288 L 11.9327,8.666 L 11.7511,8.8996 L 11.565,9.1295 L 11.3743,9.3558 L 11.1792,9.5782 L 10.9798,9.7968 L 10.7761,10.0114 L 10.5682,10.2219 L 10.3561,10.4283 L 10.1401,10.6304 L 9.9201,10.8283 L 9.6963,11.0217 L 9.4686,11.2108 L 9.2373,11.3953 L 9.0024,11.5752 L 8.764,11.7504 L 8.5222,11.9209 L 8.2771,12.0866 L 8.0287,12.2474 L 7.7772,12.4033 L 7.5227,12.5542 L 7.2653,12.7001 L 7.0051,12.8408 L 6.7421,12.9764 L 6.4765,13.1068 L 6.2084,13.2319 L 5.9378,13.3517 L 5.665,13.4661 L 5.3899,13.5752 L 5.1128,13.6787 L 4.8336,13.7768 L 4.5526,13.8694 L 4.2698,13.9564 L 3.9854,14.0379 L 3.6994,14.1137 L 3.4119,14.1838 L 3.1231,14.2482 L 2.8332,14.307 L 2.5421,14.36 L 2.25,14.4073" />
      <path d="M -6.5,-0.4225 L -6.5,-0.4226 L -6.5,-0.4227 L -6.5,-0.4228 L -6.5,-0.4229 L -6.5,-0.423" />
      <path d="M -6.5,-0.423 L -6.4938,-0.7065 L -6.4753,-0.9895 L -6.4444,-1.2714 L -6.4013,-1.5517 L -6.3459,-1.8299 L -6.2785,-2.1053 L -6.1992,-2.3776 L -6.108,-2.6461 L -6.0052,-2.9105 L -5.891,-3.17 L -5.7656,-3.4244 L -5.6292,-3.673 L -5.482,-3.9155 L -5.3245,-4.1513 L -5.1568,-4.38 L -4.9793,-4.6011 L -4.7923,-4.8144 L -4.5962,-5.0192 L -4.3913,-5.2153 L -4.1781,-5.4023 L -3.9569,-5.5798 L -3.7282,-5.7475 L -3.4924,-5.9051 L -3.25,-6.0522 L -3.0014,-6.1886 L -2.747,-6.314 L -2.4874,-6.4282 L -2.2231,-6.531 L -1.9546,-6.6222 L -1.6823,-6.7015 L -1.4069,-6.7689 L -1.1287,-6.8243 L -0.8484,-6.8674 L -0.5665,-6.8983 L -0.2835,-6.9168 L -0.0,-6.923 L 0.2835,-6.9168 L 0.5665,-6.8983 L 0.8484,-6.8674 L 1.1287,-6.8243 L 1.4069,-6.7689 L 1.6823,-6.7015 L 1.9546,-6.6222 L 2.2231,-6.531 L 2.4874,-6.4282 L 2.747,-6.314 L 3.0014,-6.1886 L 3.25,-6.0522 L 3.4924,-5.9051 L 3.7282,-5.7475 L 3.9569,-5.5798 L 4.1781,-5.4023 L 4.3913,-5.2153 L 4.5962,-5.0192 L 4.7923,-4.8144 L 4.9793,-4.6011 L 5.1568,-4.38 L 5.3245,-4.1513 L 5.482,-3.9155 L 5.6292,-3.673 L 5.7656,-3.4244 L 5.891,-3.17 L 6.0052,-2.9105 L 6.108,-2.6461 L 6.1992,-2.3776 L 6.2785,-2.1053 L 6.3459,-1.8299 L 6.4013,-1.5517 L 6.4444,-1.2714 L 6.4753,-0.9895 L 6.4938,-0.7065 L 6.5,-0.423" />
      <path d="M 6.5,-0.423 L 6.5,-0.4229 L 6.5,-0.4228 L 6.5,-0.4227 L 6.5,-0.4226 L 6.5,-0.4225" />
      <path d="M 2.25,14.577 L 2.25,14.5771 L 2.25,14.5772 L 2.25,14.5773 L 2.25,14.5774 L 2.25,14.5775 L 2.25,14.5776 L 2.25,14.5777 L 2.25,14.5778 L 2.25,14.5779 L 2.25,14.578 L 2.25,14.5781 L 2.25,14.5782 L 2.25,14.5783 L 2.25,14.5784 L 2.25,14.5785 L 2.25,14.5786 L 2.25,14.5787 L 2.25,14.5788 L 2.25,14.5789 L 2.25,14.579 L 2.25,14.5791" />
      <path d="M -2.25,14.577 L -2.25,14.5771 L -2.25,14.5772 L -2.25,14.5773 L -2.25,14.5774 L -2.25,14.5775 L -2.25,14.5776 L -2.25,14.5777 L -2.25,14.5778 L -2.25,14.5779 L -2.25,14.578 L -2.25,14.5781 L -2.25,14.5782 L -2.25,14.5783 L -2.25,14.5784 L -2.25,14.5785 L -2.25,14.5786 L -2.25,14.5787 L -2.25,14.5788 L -2.25,14.5789 L -2.25,14.579 L -2.25,14.5791" />
      <path d="M 0.0,14.577 L 0.0,14.5771 L 0.0,14.5772 L 0.0,14.5773 L 0.0,14.5774 L 0.0,14.5775" />
      <path d="M 2.25,14.4078 L 2.25,14.3935 L 2.25,14.3792 L 2.25,14.3649 L 2.25,14.3505 L 2.25,14.3362 L 2.25,14.3219 L 2.25,14.3076 L 2.25,14.2933 L 2.25,14.279 L 2.25,14.2647 L 2.25,14.2504 L 2.25,14.2361 L 2.25,14.2218 L 2.25,14.2074 L 2.25,14.1931 L 2.25,14.1788 L 2.25,14.1645 L 2.25,14.1502 L 2.25,14.1359 L 2.25,14.1216 L 2.25,14.1073 L 2.25,14.093 L 2.25,14.0787 L 2.25,14.0644 L 2.25,14.05 L 2.25,14.0357 L 2.25,14.0214 L 2.25,14.0071 L 2.25,13.9928 L 2.25,13.9785 L 2.25,13.9642 L 2.25,13.9499 L 2.25,13.9356 L 2.25,13.9213 L 2.25,13.9069 L 2.25,13.8926 L 2.25,13.8783 L 2.25,13.864 L 2.25,13.8497 L 2.25,13.8354 L 2.25,13.8211 L 2.25,13.8068 L 2.25,13.7925 L 2.25,13.7782 L 2.25,13.7638 L 2.25,13.7495 L 2.25,13.7352 L 2.25,13.7209 L 2.25,13.7066 L 2.25,13.6923 L 2.25,13.678 L 2.25,13.6637 L 2.25,13.6494 L 2.25,13.6351 L 2.25,13.6208 L 2.25,13.6064 L 2.25,13.5921 L 2.25,13.5778 L 2.25,13.5635 L 2.25,13.5492 L 2.25,13.5349 L 2.25,13.5206 L 2.25,13.5063 L 2.25,13.492 L 2.25,13.4777 L 2.25,13.4633 L 2.25,13.449 L 2.25,13.4347 L 2.25,13.4204 L 2.25,13.4061 L 2.25,13.3918 L 2.25,13.3775" />
      <path d="M 2.25,14.4073 L 2.25,14.4074 L 2.25,14.4075 L 2.25,14.4076 L 2.25,14.4077 L 2.25,14.4078" />
      <path d="M -2.25,14.4073 L -2.25,14.4074 L -2.25,14.4075 L -2.25,14.4076 L -2.25,14.4077 L -2.25,14.4078" />
      <path d="M -2.25,14.4078 L -2.25,14.3935 L -2.25,14.3792 L -2.25,14.3649 L -2.25,14.3505 L -2.25,14.3362 L -2.25,14.3219 L -2.25,14.3076 L -2.25,14.2933 L -2.25,14.279 L -2.25,14.2647 L -2.25,14.2504 L -2.25,14.2361 L -2.25,14.2218 L -2.25,14.2074 L -2.25,14.1931 L -2.25,14.1788 L -2.25,14.1645 L -2.25,14.1502 L -2.25,14.1359 L -2.25,14.1216 L -2.25,14.1073 L -2.25,14.093 L -2.25,14.0787 L -2.25,14.0644 L -2.25,14.05 L -2.25,14.0357 L -2.25,14.0214 L -2.25,14.0071 L -2.25,13.9928 L -2.25,13.9785 L -2.25,13.9642 L -2.25,13.9499 L -2.25,13.9356 L -2.25,13.9213 L -2.25,13.9069 L -2.25,13.8926 L -2.25,13.8783 L -2.25,13.864 L -2.25,13.8497 L -2.25,13.8354 L -2.25,13.8211 L -2.25,13.8068 L -2.25,13.7925 L -2.25,13.7782 L -2.25,13.7638 L -2.25,13.7495 L -2.25,13.7352 L -2.25,13.7209 L -2.25,13.7066 L -2.25,13.6923 L -2.25,13.678 L -2.25,13.6637 L -2.25,13.6494 L -2.25,13.6351 L -2.25,13.6208 L -2.25,13.6064 L -2.25,13.5921 L -2.25,13.5778 L -2.25,13.5635 L -2.25,13.5492 L -2.25,13.5349 L -2.25,13.5206 L -2.25,13.5063 L -2.25,13.492 L -2.25,13.4777 L -2.25,13.4633 L -2.25,13.449 L -2.25,13.4347 L -2.25,13.4204 L -2.25,13.4061 L -2.25,13.3918 L -2.25,13.3775" />
      <path d="M 6.5,-0.423 L 6.5,-0.4229 L 6.5,-0.4228 L 6.5,-0.4227 L 6.5,-0.4226 L 6.5,-0.4225" />
      <path d="M -6.5,-0.423 L -6.5,-0.4229 L -6.5,-0.4228 L -6.5,-0.4227 L -6.5,-0.4226 L -6.5,-0.4225" />
      <path d="M 24.0,14.5782 L 24.0,14.5781 L 24.0,14.578 L 24.0,14.5779 L 24.0001,14.5779 L 24.0001,14.5778 L 24.0001,14.5777 L 24.0001,14.5776 L 24.0001,14.5775 L 24.0001,14.5774 L 24.0001,14.5773 L 24.0002,14.5773" />
      <path d="M 24.0002,14.5773 L 24.0002,14.5772 L 24.0002,14.5771 L 24.0002,14.577 L 24.0002,14.5769 L 24.0002,14.5768 L 24.0003,14.5768 L 24.0003,14.5767 L 24.0003,14.5766 L 24.0003,14.5765 L 24.0003,14.5764 L 24.0003,14.5763" />
      <path d="M 24.0003,14.4066 L 24.0003,14.409 L 24.0003,14.4113 L 24.0003,14.4137 L 24.0003,14.416 L 24.0003,14.4184 L 24.0003,14.4207 L 24.0003,14.4231 L 24.0003,14.4255 L 24.0003,14.4278 L 24.0003,14.4302 L 24.0003,14.4325 L 24.0003,14.4349 L 24.0003,14.4372 L 24.0003,14.4396 L 24.0003,14.442 L 24.0003,14.4443 L 24.0003,14.4467 L 24.0003,14.449 L 24.0003,14.4514 L 24.0003,14.4537 L 24.0003,14.4561 L 24.0003,14.4585 L 24.0003,14.4608 L 24.0003,14.4632 L 24.0003,14.4655 L 24.0003,14.4679 L 24.0003,14.4702 L 24.0003,14.4726 L 24.0003,14.475 L 24.0003,14.4773 L 24.0003,14.4797 L 24.0003,14.482 L 24.0003,14.4844 L 24.0003,14.4867 L 24.0003,14.4891 L 24.0003,14.4915 L 24.0003,14.4938 L 24.0003,14.4962 L 24.0003,14.4985 L 24.0003,14.5009 L 24.0003,14.5032 L 24.0003,14.5056 L 24.0003,14.508 L 24.0003,14.5103 L 24.0003,14.5127 L 24.0003,14.515 L 24.0003,14.5174 L 24.0003,14.5197 L 24.0003,14.5221 L 24.0003,14.5245 L 24.0003,14.5268 L 24.0003,14.5292 L 24.0003,14.5315 L 24.0003,14.5339 L 24.0003,14.5362 L 24.0003,14.5386 L 24.0003,14.541 L 24.0003,14.5433 L 24.0003,14.5457 L 24.0003,14.548 L 24.0003,14.5504 L 24.0003,14.5527 L 24.0003,14.5551 L 24.0003,14.5575 L 24.0003,14.5598 L 24.0003,14.5622 L 24.0003,14.5645 L 24.0003,14.5669 L 24.0003,14.5692 L 24.0003,14.5716 L 24.0003,14.574 L 24.0003,14.5763" />
      <path d="M 19.0,14.5782 L 19.0,14.5781 L 19.0,14.578 L 19.0,14.5779 L 19.0001,14.5779 L 19.0001,14.5778 L 19.0001,14.5777 L 19.0001,14.5776 L 19.0001,14.5775 L 19.0001,14.5774 L 19.0001,14.5773 L 19.0002,14.5773 L 19.0002,14.5772 L 19.0002,14.5771 L 19.0002,14.577 L 19.0002,14.5769 L 19.0002,14.5768 L 19.0003,14.5767 L 19.0003,14.5766 L 19.0003,14.5765 L 19.0003,14.5764 L 19.0003,14.5763" />
      <path d="M 24.0003,14.5763 L 23.9309,14.5763 L 23.8614,14.5763 L 23.792,14.5763 L 23.7225,14.5763 L 23.6531,14.5763 L 23.5837,14.5763 L 23.5142,14.5763 L 23.4448,14.5763 L 23.3753,14.5763 L 23.3059,14.5763 L 23.2364,14.5763 L 23.167,14.5763 L 23.0975,14.5763 L 23.0281,14.5763 L 22.9587,14.5763 L 22.8892,14.5763 L 22.8198,14.5763 L 22.7503,14.5763 L 22.6809,14.5763 L 22.6114,14.5763 L 22.542,14.5763 L 22.4725,14.5763 L 22.4031,14.5763 L 22.3337,14.5763 L 22.2642,14.5763 L 22.1948,14.5763 L 22.1253,14.5763 L 22.0559,14.5763 L 21.9864,14.5763 L 21.917,14.5763 L 21.8475,14.5763 L 21.7781,14.5763 L 21.7087,14.5763 L 21.6392,14.5763 L 21.5698,14.5763 L 21.5003,14.5763 L 21.4309,14.5763 L 21.3614,14.5763 L 21.292,14.5763 L 21.2225,14.5763 L 21.1531,14.5763 L 21.0837,14.5763 L 21.0142,14.5763 L 20.9448,14.5763 L 20.8753,14.5763 L 20.8059,14.5763 L 20.7364,14.5763 L 20.667,14.5763 L 20.5975,14.5763 L 20.5281,14.5763 L 20.4587,14.5763 L 20.3892,14.5763 L 20.3198,14.5763 L 20.2503,14.5763 L 20.1809,14.5763 L 20.1114,14.5763 L 20.042,14.5763 L 19.9725,14.5763 L 19.9031,14.5763 L 19.8337,14.5763 L 19.7642,14.5763 L 19.6948,14.5763 L 19.6253,14.5763 L 19.5559,14.5763 L 19.4864,14.5763 L 19.417,14.5763 L 19.3475,14.5763 L 19.2781,14.5763 L 19.2087,14.5763 L 19.1392,14.5763 L 19.0698,14.5763 L 19.0003,14.5763" />
      <path d="M 24.0002,14.5773 L 23.9835,14.5773 L 23.9668,14.5773 L 23.9502,14.5773 L 23.9335,14.5773 L 23.9168,14.5773 L 23.9002,14.5773 L 23.8835,14.5773 L 23.8668,14.5773 L 23.8502,14.5773 L 23.8335,14.5773 L 23.8168,14.5773 L 23.8002,14.5773 L 23.7835,14.5773 L 23.7668,14.5773 L 23.7502,14.5773 L 23.7335,14.5773 L 23.7168,14.5773 L 23.7002,14.5773 L 23.6835,14.5773 L 23.6668,14.5773 L 23.6502,14.5773 L 23.6335,14.5773 L 23.6168,14.5773 L 23.6002,14.5773 L 23.5835,14.5773 L 23.5668,14.5773 L 23.5502,14.5773 L 23.5335,14.5773 L 23.5168,14.5773 L 23.5002,14.5773 L 23.4835,14.5773 L 23.4668,14.5773 L 23.4502,14.5773 L 23.4335,14.5773 L 23.4168,14.5773 L 23.4002,14.5773 L 23.3835,14.5773 L 23.3668,14.5773 L 23.3502,14.5773 L 23.3335,14.5773 L 23.3168,14.5773 L 23.3002,14.5773 L 23.2835,14.5773 L 23.2668,14.5773 L 23.2502,14.5773 L 23.2335,14.5773 L 23.2168,14.5773 L 23.2002,14.5773 L 23.1835,14.5773 L 23.1668,14.5773 L 23.1502,14.5773 L 23.1335,14.5773 L 23.1168,14.5773 L 23.1002,14.5773 L 23.0835,14.5773 L 23.0668,14.5773 L 23.0502,14.5773 L 23.0335,14.5773 L 23.0168,14.5773 L 23.0002,14.5773 L 22.9835,14.5773 L 22.9668,14.5773 L 22.9502,14.5773 L 22.9335,14.5773 L 22.9168,14.5773 L 22.9002,14.5773 L 22.8835,14.5773 L 22.8668,14.5773 L 22.8502,14.5773 L 22.8335,14.5773 L 22.8168,14.5773 L 22.8002,14.5773" />
      <path d="M 22.8,13.3782 L 22.7999,13.3782 L 22.7998,13.3782 L 22.7997,13.3782" />
      <path d="M 22.8,14.4085 L 22.8,14.3942 L 22.8,14.3799 L 22.8,14.3656 L 22.8,14.3513 L 22.8,14.337 L 22.8,14.3227 L 22.8,14.3083 L 22.8,14.294 L 22.8,14.2797 L 22.8,14.2654 L 22.8,14.2511 L 22.8,14.2368 L 22.8,14.2225 L 22.8,14.2082 L 22.8,14.1939 L 22.8,14.1796 L 22.8,14.1652 L 22.8,14.1509 L 22.8,14.1366 L 22.8,14.1223 L 22.8,14.108 L 22.8,14.0937 L 22.8,14.0794 L 22.8,14.0651 L 22.8,14.0508 L 22.8,14.0365 L 22.8,14.0222 L 22.8,14.0078 L 22.8,13.9935 L 22.8,13.9792 L 22.8,13.9649 L 22.8,13.9506 L 22.8,13.9363 L 22.8,13.922 L 22.8,13.9077 L 22.8,13.8934 L 22.8,13.8791 L 22.8,13.8647 L 22.8,13.8504 L 22.8,13.8361 L 22.8,13.8218 L 22.8,13.8075 L 22.8,13.7932 L 22.8,13.7789 L 22.8,13.7646 L 22.8,13.7503 L 22.8,13.736 L 22.8,13.7216 L 22.8,13.7073 L 22.8,13.693 L 22.8,13.6787 L 22.8,13.6644 L 22.8,13.6501 L 22.8,13.6358 L 22.8,13.6215 L 22.8,13.6072 L 22.8,13.5929 L 22.8,13.5786 L 22.8,13.5642 L 22.8,13.5499 L 22.8,13.5356 L 22.8,13.5213 L 22.8,13.507 L 22.8,13.4927 L 22.8,13.4784 L 22.8,13.4641 L 22.8,13.4498 L 22.8,13.4355 L 22.8,13.4211 L 22.8,13.4068 L 22.8,13.3925 L 22.8,13.3782" />
      <path d="M 22.8003,14.4066 L 22.8005,13.9923 L 22.8006,13.578 L 22.8006,13.1637 L 22.8007,12.7494 L 22.8007,12.3351 L 22.8008,11.9208 L 22.8008,11.5065 L 22.8009,11.0922 L 22.8009,10.6779 L 22.8009,10.2636 L 22.801,9.8493 L 22.801,9.4351 L 22.801,9.0208 L 22.801,8.6065 L 22.801,8.1922 L 22.8011,7.7779 L 22.8011,7.3636 L 22.8011,6.9493 L 22.8011,6.535 L 22.8011,6.1207 L 22.8012,5.7064 L 22.8012,5.2921 L 22.8012,4.8778 L 22.8012,4.4635 L 22.8012,4.0492 L 22.8012,3.6349 L 22.8012,3.2206 L 22.8012,2.8063 L 22.8012,2.392 L 22.8012,1.9777 L 22.8012,1.5634 L 22.8012,1.1491 L 22.8012,0.7348 L 22.8012,0.3205 L 22.8012,-0.0938 L 22.8012,-0.5081 L 22.8012,-0.9224 L 22.8012,-1.3367 L 22.8012,-1.751 L 22.8012,-2.1652 L 22.8012,-2.5795 L 22.8012,-2.9938 L 22.8012,-3.4081 L 22.8012,-3.8224 L 22.8012,-4.2367 L 22.8012,-4.651 L 22.8012,-5.0653 L 22.8012,-5.4796 L 22.8012,-5.8939 L 22.8012,-6.3082 L 22.8011,-6.7225 L 22.8011,-7.1368 L 22.8011,-7.5511 L 22.8011,-7.9654 L 22.8011,-8.3797 L 22.8011,-8.794 L 22.801,-9.2083 L 22.801,-9.6226 L 22.801,-10.0369 L 22.801,-10.4512 L 22.8009,-10.8655 L 22.8009,-11.2798 L 22.8009,-11.6941 L 22.8008,-12.1084 L 22.8008,-12.5227 L 22.8008,-12.937 L 22.8007,-13.3512 L 22.8007,-13.7655 L 22.8006,-14.1798 L 22.8005,-14.5941 L 22.8004,-15.0084 L 22.8002,-15.4227" />
      <path d="M 24.0,14.4066 L 23.9833,14.4066 L 23.9667,14.4066 L 23.95,14.4066 L 23.9334,14.4066 L 23.9167,14.4066 L 23.9,14.4066 L 23.8834,14.4066 L 23.8667,14.4066 L 23.85,14.4066 L 23.8334,14.4066 L 23.8167,14.4066 L 23.8001,14.4066 L 23.7834,14.4066 L 23.7667,14.4066 L 23.7501,14.4066 L 23.7334,14.4066 L 23.7167,14.4066 L 23.7001,14.4066 L 23.6834,14.4066 L 23.6668,14.4066 L 23.6501,14.4066 L 23.6334,14.4066 L 23.6168,14.4066 L 23.6001,14.4066 L 23.5834,14.4066 L 23.5668,14.4066 L 23.5501,14.4066 L 23.5335,14.4066 L 23.5168,14.4066 L 23.5001,14.4066 L 23.4835,14.4066 L 23.4668,14.4066 L 23.4501,14.4066 L 23.4335,14.4066 L 23.4168,14.4066 L 23.4002,14.4066 L 23.3835,14.4066 L 23.3668,14.4066 L 23.3502,14.4066 L 23.3335,14.4066 L 23.3169,14.4066 L 23.3002,14.4066 L 23.2835,14.4066 L 23.2669,14.4066 L 23.2502,14.4066 L 23.2335,14.4066 L 23.2169,14.4066 L 23.2002,14.4066 L 23.1836,14.4066 L 23.1669,14.4066 L 23.1502,14.4066 L 23.1336,14.4066 L 23.1169,14.4066 L 23.1002,14.4066 L 23.0836,14.4066 L 23.0669,14.4066 L 23.0503,14.4066 L 23.0336,14.4066 L 23.0169,14.4066 L 23.0003,14.4066 L 22.9836,14.4066 L 22.9669,14.4066 L 22.9503,14.4066 L 22.9336,14.4066 L 22.917,14.4066 L 22.9003,14.4066 L 22.8836,14.4066 L 22.867,14.4066 L 22.8503,14.4066 L 22.8336,14.4066 L 22.817,14.4066 L 22.8003,14.4066" />
      <path d="M 22.8002,6.0773 L 22.8003,5.8967 L 22.8003,5.7162 L 22.8004,5.5356 L 22.8004,5.355 L 22.8004,5.1745 L 22.8004,4.9939 L 22.8004,4.8134 L 22.8005,4.6328 L 22.8005,4.4523 L 22.8005,4.2717 L 22.8005,4.0912 L 22.8005,3.9106 L 22.8005,3.73 L 22.8005,3.5495 L 22.8005,3.3689 L 22.8006,3.1884 L 22.8006,3.0078 L 22.8006,2.8273 L 22.8006,2.6467 L 22.8006,2.4662 L 22.8006,2.2856 L 22.8006,2.105 L 22.8006,1.9245 L 22.8006,1.7439 L 22.8006,1.5634 L 22.8006,1.3828 L 22.8006,1.2023 L 22.8006,1.0217 L 22.8006,0.8412 L 22.8006,0.6606 L 22.8006,0.48 L 22.8006,0.2995 L 22.8006,0.1189 L 22.8006,-0.0616 L 22.8006,-0.2422 L 22.8006,-0.4227 L 22.8006,-0.6033 L 22.8006,-0.7838 L 22.8006,-0.9644 L 22.8006,-1.145 L 22.8006,-1.3255 L 22.8006,-1.5061 L 22.8006,-1.6866 L 22.8006,-1.8672 L 22.8006,-2.0477 L 22.8006,-2.2283 L 22.8006,-2.4088 L 22.8006,-2.5894 L 22.8006,-2.77 L 22.8006,-2.9505 L 22.8006,-3.1311 L 22.8006,-3.3116 L 22.8006,-3.4922 L 22.8006,-3.6727 L 22.8006,-3.8533 L 22.8006,-4.0338 L 22.8005,-4.2144 L 22.8005,-4.395 L 22.8005,-4.5755 L 22.8005,-4.7561 L 22.8005,-4.9366 L 22.8005,-5.1172 L 22.8005,-5.2977 L 22.8005,-5.4783 L 22.8004,-5.6588 L 22.8004,-5.8394 L 22.8004,-6.02 L 22.8004,-6.2005 L 22.8004,-6.3811 L 22.8003,-6.5616 L 22.8003,-6.7422 L 22.8002,-6.9227" />
      <path d="M 22.8002,-6.9227 L 22.8001,-6.7422 L 22.8,-6.5616 L 22.8,-6.3811 L 22.7999,-6.2005 L 22.7999,-6.02 L 22.7999,-5.8394 L 22.7999,-5.6588 L 22.7999,-5.4783 L 22.7999,-5.2977 L 22.7998,-5.1172 L 22.7998,-4.9366 L 22.7998,-4.7561 L 22.7998,-4.5755 L 22.7998,-4.395 L 22.7998,-4.2144 L 22.7998,-4.0338 L 22.7998,-3.8533 L 22.7998,-3.6727 L 22.7997,-3.4922 L 22.7997,-3.3116 L 22.7997,-3.1311 L 22.7997,-2.9505 L 22.7997,-2.77 L 22.7997,-2.5894 L 22.7997,-2.4088 L 22.7997,-2.2283 L 22.7997,-2.0477 L 22.7997,-1.8672 L 22.7997,-1.6866 L 22.7997,-1.5061 L 22.7997,-1.3255 L 22.7997,-1.145 L 22.7997,-0.9644 L 22.7997,-0.7838 L 22.7997,-0.6033 L 22.7997,-0.4227 L 22.7997,-0.2422 L 22.7997,-0.0616 L 22.7997,0.1189 L 22.7997,0.2995 L 22.7997,0.48 L 22.7997,0.6606 L 22.7997,0.8412 L 22.7997,1.0217 L 22.7997,1.2023 L 22.7997,1.3828 L 22.7997,1.5634 L 22.7997,1.7439 L 22.7997,1.9245 L 22.7997,2.105 L 22.7997,2.2856 L 22.7997,2.4662 L 22.7997,2.6467 L 22.7998,2.8273 L 22.7998,3.0078 L 22.7998,3.1884 L 22.7998,3.3689 L 22.7998,3.5495 L 22.7998,3.73 L 22.7998,3.9106 L 22.7998,4.0912 L 22.7998,4.2717 L 22.7999,4.4523 L 22.7999,4.6328 L 22.7999,4.8134 L 22.7999,4.9939 L 22.7999,5.1745 L 22.7999,5.355 L 22.8,5.5356 L 22.8,5.7162 L 22.8001,5.8967 L 22.8002,6.0773" />
      <path d="M 19.0003,13.3763 L 19.0003,13.393 L 19.0003,13.4096 L 19.0003,13.4263 L 19.0003,13.443 L 19.0003,13.4596 L 19.0003,13.4763 L 19.0003,13.493 L 19.0003,13.5096 L 19.0003,13.5263 L 19.0003,13.543 L 19.0003,13.5596 L 19.0003,13.5763 L 19.0003,13.593 L 19.0003,13.6096 L 19.0003,13.6263 L 19.0003,13.643 L 19.0003,13.6596 L 19.0003,13.6763 L 19.0003,13.693 L 19.0003,13.7096 L 19.0003,13.7263 L 19.0003,13.743 L 19.0003,13.7596 L 19.0003,13.7763 L 19.0003,13.793 L 19.0003,13.8096 L 19.0003,13.8263 L 19.0003,13.843 L 19.0003,13.8596 L 19.0003,13.8763 L 19.0003,13.893 L 19.0003,13.9096 L 19.0003,13.9263 L 19.0003,13.943 L 19.0003,13.9596 L 19.0003,13.9763 L 19.0003,13.993 L 19.0003,14.0096 L 19.0003,14.0263 L 19.0003,14.043 L 19.0003,14.0596 L 19.0003,14.0763 L 19.0003,14.093 L 19.0003,14.1096 L 19.0003,14.1263 L 19.0003,14.143 L 19.0003,14.1596 L 19.0003,14.1763 L 19.0003,14.193 L 19.0003,14.2096 L 19.0003,14.2263 L 19.0003,14.243 L 19.0003,14.2596 L 19.0003,14.2763 L 19.0003,14.293 L 19.0003,14.3096 L 19.0003,14.3263 L 19.0003,14.343 L 19.0003,14.3596 L 19.0003,14.3763 L 19.0003,14.393 L 19.0003,14.4096 L 19.0003,14.4263 L 19.0003,14.443 L 19.0003,14.4596 L 19.0003,14.4763 L 19.0003,14.493 L 19.0003,14.5096 L 19.0003,14.5263 L 19.0003,14.543 L 19.0003,14.5596 L 19.0003,14.5763" />
      <path d="M 22.8003,13.3763 L 22.8002,13.3763 L 22.8001,13.3763 L 22.8,13.3763 L 22.7999,13.3763 L 22.7998,13.3763 L 22.7997,13.3763" />
      <path d="M 22.8003,14.4066 L 22.8003,14.3923 L 22.8003,14.378 L 22.8003,14.3637 L 22.8003,14.3494 L 22.8003,14.3351 L 22.8003,14.3207 L 22.8003,14.3064 L 22.8003,14.2921 L 22.8003,14.2778 L 22.8003,14.2635 L 22.8003,14.2492 L 22.8003,14.2349 L 22.8003,14.2206 L 22.8003,14.2063 L 22.8003,14.192 L 22.8003,14.1777 L 22.8003,14.1633 L 22.8003,14.149 L 22.8003,14.1347 L 22.8003,14.1204 L 22.8003,14.1061 L 22.8003,14.0918 L 22.8003,14.0775 L 22.8003,14.0632 L 22.8003,14.0489 L 22.8003,14.0346 L 22.8003,14.0202 L 22.8003,14.0059 L 22.8003,13.9916 L 22.8003,13.9773 L 22.8003,13.963 L 22.8003,13.9487 L 22.8003,13.9344 L 22.8003,13.9201 L 22.8003,13.9058 L 22.8003,13.8915 L 22.8003,13.8772 L 22.8003,13.8628 L 22.8003,13.8485 L 22.8003,13.8342 L 22.8003,13.8199 L 22.8003,13.8056 L 22.8003,13.7913 L 22.8003,13.777 L 22.8003,13.7627 L 22.8003,13.7484 L 22.8003,13.7341 L 22.8003,13.7197 L 22.8003,13.7054 L 22.8003,13.6911 L 22.8003,13.6768 L 22.8003,13.6625 L 22.8003,13.6482 L 22.8003,13.6339 L 22.8003,13.6196 L 22.8003,13.6053 L 22.8003,13.591 L 22.8003,13.5767 L 22.8003,13.5623 L 22.8003,13.548 L 22.8003,13.5337 L 22.8003,13.5194 L 22.8003,13.5051 L 22.8003,13.4908 L 22.8003,13.4765 L 22.8003,13.4622 L 22.8003,13.4479 L 22.8003,13.4336 L 22.8003,13.4192 L 22.8003,13.4049 L 22.8003,13.3906 L 22.8003,13.3763" />
      <path d="M 22.8,13.3782 L 22.8,13.3781 L 22.8,13.378 L 22.8,13.3779 L 22.8001,13.3779 L 22.8001,13.3778 L 22.8001,13.3777 L 22.8001,13.3776 L 22.8001,13.3775 L 22.8001,13.3774 L 22.8001,13.3773 L 22.8002,13.3773 L 22.8002,13.3772 L 22.8002,13.3771 L 22.8002,13.377 L 22.8002,13.3769 L 22.8002,13.3768 L 22.8003,13.3767 L 22.8003,13.3766 L 22.8003,13.3765 L 22.8003,13.3764 L 22.8003,13.3763" />
      <path d="M 23.9992,6.0773 L 23.9825,6.0773 L 23.9659,6.0773 L 23.9492,6.0773 L 23.9326,6.0773 L 23.9159,6.0773 L 23.8993,6.0773 L 23.8826,6.0773 L 23.866,6.0773 L 23.8493,6.0773 L 23.8327,6.0773 L 23.816,6.0773 L 23.7993,6.0773 L 23.7827,6.0773 L 23.766,6.0773 L 23.7494,6.0773 L 23.7327,6.0773 L 23.7161,6.0773 L 23.6994,6.0773 L 23.6828,6.0773 L 23.6661,6.0773 L 23.6495,6.0773 L 23.6328,6.0773 L 23.6162,6.0773 L 23.5995,6.0773 L 23.5829,6.0773 L 23.5662,6.0773 L 23.5496,6.0773 L 23.5329,6.0773 L 23.5162,6.0773 L 23.4996,6.0773 L 23.4829,6.0773 L 23.4663,6.0773 L 23.4496,6.0773 L 23.433,6.0773 L 23.4163,6.0773 L 23.3997,6.0773 L 23.383,6.0773 L 23.3664,6.0773 L 23.3497,6.0773 L 23.3331,6.0773 L 23.3164,6.0773 L 23.2998,6.0773 L 23.2831,6.0773 L 23.2664,6.0773 L 23.2498,6.0773 L 23.2331,6.0773 L 23.2165,6.0773 L 23.1998,6.0773 L 23.1832,6.0773 L 23.1665,6.0773 L 23.1499,6.0773 L 23.1332,6.0773 L 23.1166,6.0773 L 23.0999,6.0773 L 23.0833,6.0773 L 23.0666,6.0773 L 23.05,6.0773 L 23.0333,6.0773 L 23.0167,6.0773 L 23.0,6.0773 L 22.9833,6.0773 L 22.9667,6.0773 L 22.95,6.0773 L 22.9334,6.0773 L 22.9167,6.0773 L 22.9001,6.0773 L 22.8834,6.0773 L 22.8668,6.0773 L 22.8501,6.0773 L 22.8335,6.0773 L 22.8168,6.0773 L 22.8002,6.0773" />
      <path d="M 23.9992,-6.9227 L 23.9825,-6.9227 L 23.9659,-6.9227 L 23.9492,-6.9227 L 23.9326,-6.9227 L 23.9159,-6.9227 L 23.8993,-6.9227 L 23.8826,-6.9227 L 23.866,-6.9227 L 23.8493,-6.9227 L 23.8327,-6.9227 L 23.816,-6.9227 L 23.7993,-6.9227 L 23.7827,-6.9227 L 23.766,-6.9227 L 23.7494,-6.9227 L 23.7327,-6.9227 L 23.7161,-6.9227 L 23.6994,-6.9227 L 23.6828,-6.9227 L 23.6661,-6.9227 L 23.6495,-6.9227 L 23.6328,-6.9227 L 23.6162,-6.9227 L 23.5995,-6.9227 L 23.5829,-6.9227 L 23.5662,-6.9227 L 23.5496,-6.9227 L 23.5329,-6.9227 L 23.5162,-6.9227 L 23.4996,-6.9227 L 23.4829,-6.9227 L 23.4663,-6.9227 L 23.4496,-6.9227 L 23.433,-6.9227 L 23.4163,-6.9227 L 23.3997,-6.9227 L 23.383,-6.9227 L 23.3664,-6.9227 L 23.3497,-6.9227 L 23.3331,-6.9227 L 23.3164,-6.9227 L 23.2998,-6.9227 L 23.2831,-6.9227 L 23.2664,-6.9227 L 23.2498,-6.9227 L 23.2331,-6.9227 L 23.2165,-6.9227 L 23.1998,-6.9227 L 23.1832,-6.9227 L 23.1665,-6.9227 L 23.1499,-6.9227 L 23.1332,-6.9227 L 23.1166,-6.9227 L 23.0999,-6.9227 L 23.0833,-6.9227 L 23.0666,-6.9227 L 23.05,-6.9227 L 23.0333,-6.9227 L 23.0167,-6.9227 L 23.0,-6.9227 L 22.9833,-6.9227 L 22.9667,-6.9227 L 22.95,-6.9227 L 22.9334,-6.9227 L 22.9167,-6.9227 L 22.9001,-6.9227 L 22.8834,-6.9227 L 22.8668,-6.9227 L 22.8501,-6.9227 L 22.8335,-6.9227 L 22.8168,-6.9227 L 22.8002,-6.9227" />
    </g>
    <g fill="none" stroke="rgb(0,0,0)" stroke-width="0.2" id="Center" stroke-dasharray="6.35 1.27 1.27 1.27">
      <line x1="-0.0" y1="-0.422" x2="-17.4" y2="-0.422" />
      <line x1="-0.0" y1="-0.422" x2="17.4" y2="-0.422" />
      <line x1="-0.0" y1="-0.422" x2="-0.0" y2="-17.823" />
      <line x1="-0.0" y1="-0.422" x2="-0.0" y2="16.9791" />
      <line x1="21.5006" y1="-0.4223" x2="16.6" y2="-0.4223" />
      <line x1="21.5006" y1="-0.4223" x2="26.4012" y2="-0.4223" />
    </g>
  </g>
</svg>