<?xml version='1.0' encoding='utf-8'?>
<svg width="50.186mm" height="36.8804mm" viewBox="-18.44 -17.9411 50.186 36.8804" version="1.1" xmlns="http://www.w3.org/2000/svg">
  <g transform="scale(1,-1)" stroke-linecap="round">
    <g fill="none" stroke="rgb(0,0,0)" stroke-width="0.4" id="Visible">
      <path d="M 0.0,13.5011 L -0.3054,13.4977 L -0.6107,13.4878 L -0.9156,13.4711 L -1.2202,13.4478 L -1.5241,13.4179 L -1.8274,13.3813 L -2.1297,13.3381 L -2.4311,13.2884 L -2.7313,13.2321 L -3.0302,13.1692 L -3.3276,13.0999 L -3.6235,13.024 L -3.9176,12.9418 L -4.2099,12.8531 L -4.5002,12.7581 L -4.7883,12.6568 L -5.0741,12.5492 L -5.3576,12.4354 L -5.6385,12.3154 L -5.9167,12.1894 L -6.192,12.0573 L -6.4645,11.9192 L -6.7338,11.7753 L -7.0,11.6254 L -7.2628,11.4698 L -7.5222,11.3086 L -7.778,11.1417 L -8.0301,10.9692 L -8.2783,10.7913 L -8.5227,10.608 L -8.7629,10.4195 L -8.999,10.2257 L -9.2308,10.0268 L -9.4583,9.823 L -9.6812,9.6142 L -9.8995,9.4006 L -10.1131,9.1823 L -10.3219,8.9593 L -10.5258,8.7319 L -10.7246,8.5001 L -10.9184,8.264 L -11.1069,8.0237 L -11.2902,7.7794 L -11.4681,7.5311 L -11.6406,7.2791 L -11.8075,7.0233 L -11.9688,6.7639 L -12.1244,6.5011 L -12.2742,6.2349 L -12.4182,5.9656 L -12.5562,5.6931 L -12.6883,5.4177 L -12.8144,5.1395 L -12.9343,4.8586 L -13.0481,4.5752 L -13.1557,4.2894 L -13.257,4.0012 L -13.352,3.711 L -13.4407,3.4187 L -13.523,3.1245 L -13.5988,2.8287 L -13.6681,2.5312 L -13.731,2.2323 L -13.7873,1.9322 L -13.8371,1.6308 L -13.8802,1.3284 L -13.9168,1.0252 L -13.9467,0.7213 L -13.97,0.4167 L -13.9867,0.1117 L -13.9967,-0.1935 L -14.0,-0.4989" />
      <path d="M -14.0,-0.4989 L -13.9867,-1.1096 L -13.9467,-1.7191 L -13.8802,-2.3263 L -13.7873,-2.93 L -13.6681,-3.5291 L -13.523,-4.1224 L -13.352,-4.7088 L -13.1557,-5.2872 L -12.9343,-5.8565 L -12.6883,-6.4156 L -12.4182,-6.9634 L -12.1244,-7.4989 L -11.8075,-8.0211 L -11.4681,-8.529 L -11.1069,-9.0216 L -10.7246,-9.4979 L -10.3219,-9.9572 L -9.8995,-10.3984 L -9.4583,-10.8208 L -8.999,-11.2235 L -8.5227,-11.6059 L -8.0301,-11.967 L -7.5222,-12.3064 L -7.0,-12.6233 L -6.4645,-12.9171 L -5.9167,-13.1872 L -5.3576,-13.4332 L -4.7883,-13.6546 L -4.2099,-13.851 L -3.6235,-14.0219 L -3.0302,-14.1671 L -2.4311,-14.2862 L -1.8274,-14.3791 L -1.2202,-14.4456 L -0.6107,-14.4856 L 0.0,-14.4989 L 0.6107,-14.4856 L 1.2202,-14.4456 L 1.8274,-14.3791 L 2.4311,-14.2862 L 3.0302,-14.1671 L 3.6235,-14.0219 L 4.2099,-13.851 L 4.7883,-13.6546 L 5.3576,-13.4332 L 5.9167,-13.1872 L 6.4645,-12.9171 L 7.0,-12.6233 L 7.5222,-12.3064 L 8.0301,-11.967 L 8.5227,-11.6059 L 8.999,-11.2235 L 9.4583,-10.8208 L 9.8995,-10.3984 L 10.3219,-9.9572 L 10.7246,-9.4979 L 11.1069,-9.0216 L 11.4681,-8.529 L 11.8075,-8.0211 L 12.1244,-7.4989 L 12.4182,-6.9634 L 12.6883,-6.4156 L 12.9343,-5.8565 L 13.1557,-5.2872 L 13.352,-4.7088 L 13.523,-4.1224 L 13.6681,-3.5291 L 13.7873,-2.93 L 13.8802,-2.3263 L 13.9467,-1.7191 L 13.9867,-1.1096 L 14.0,-0.4989" />
      <path d="M 14.0,-0.4989 L 13.9967,-0.1935 L 13.9867,0.1117 L 13.97,0.4167 L 13.9467,0.7213 L 13.9168,1.0252 L 13.8802,1.3284 L 13.8371,1.6308 L 13.7873,1.9322 L 13.731,2.2323 L 13.6681,2.5312 L 13.5988,2.8287 L 13.523,3.1245 L 13.4407,3.4187 L 13.352,3.711 L 13.257,4.0012 L 13.1557,4.2894 L 13.0481,4.5752 L 12.9343,4.8586 L 12.8144,5.1395 L 12.6883,5.4177 L 12.5562,5.6931 L 12.4182,5.9656 L 12.2742,6.2349 L 12.1244,6.5011 L 11.9688,6.7639 L 11.8075,7.0233 L 11.6406,7.2791 L 11.4681,7.5311 L 11.2902,7.7794 L 11.1069,8.0237 L 10.9184,8.264 L 10.7246,8.5001 L 10.5258,8.7319 L 10.3219,8.9593 L 10.1131,9.1823 L 9.8995,9.4006 L 9.6812,9.6142 L 9.4583,9.823 L 9.2308,10.0268 L 8.999,10.2257 L 8.7629,10.4195 L 8.5227,10.608 L 8.2783,10.7913 L 8.0301,10.9692 L 7.778,11.1417 L 7.5222,11.3086 L 7.2628,11.4698 L 7.0,11.6254 L 6.7338,11.7753 L 6.4645,11.9192 L 6.192,12.0573 L 5.9167,12.1894 L 5.6385,12.3154 L 5.3576,12.4354 L 5.0741,12.5492 L 4.7883,12.6568 L 4.5002,12.7581 L 4.2099,12.8531 L 3.9176,12.9418 L 3.6235,13.024 L 3.3276,13.0999 L 3.0302,13.1692 L 2.7313,13.2321 L 2.4311,13.2884 L 2.1297,13.3381 L 1.8274,13.3813 L 1.5241,13.4179 L 1.2202,13.4478 L 0.9156,13.4711 L 0.6107,13.4878 L 0.3054,13.4977 L 0.0,13.5011" />
      <path d="M -14.0,-0.4991 L -14.0,-0.4992 L -14.0,-0.4993" />
      <path d="M -14.0,-0.4993 L -13.9867,-1.11 L -13.9467,-1.7195 L -13.8802,-2.3267 L -13.7873,-2.9304 L -13.6681,-3.5295 L -13.523,-4.1228 L -13.352,-4.7092 L -13.1557,-5.2876 L -12.9343,-5.8569 L -12.6883,-6.416 L -12.4182,-6.9638 L -12.1244,-7.4993 L -11.8075,-8.0215 L -11.4681,-8.5294 L -11.1069,-9.022 L -10.7246,-9.4983 L -10.3219,-9.9576 L -9.8995,-10.3988 L -9.4583,-10.8212 L -8.999,-11.2239 L -8.5227,-11.6063 L -8.0301,-11.9674 L -7.5222,-12.3068 L -7.0,-12.6237 L -6.4645,-12.9175 L -5.9167,-13.1876 L -5.3576,-13.4336 L -4.7883,-13.655 L -4.2099,-13.8514 L -3.6235,-14.0223 L -3.0302,-14.1675 L -2.4311,-14.2866 L -1.8274,-14.3795 L -1.2202,-14.446 L -0.6107,-14.486 L -0.0,-14.4993 L 0.6107,-14.486 L 1.2202,-14.446 L 1.8274,-14.3795 L 2.4311,-14.2866 L 3.0302,-14.1675 L 3.6235,-14.0223 L 4.2099,-13.8514 L 4.7883,-13.655 L 5.3576,-13.4336 L 5.9167,-13.1876 L 6.4645,-12.9175 L 7.0,-12.6237 L 7.5222,-12.3068 L 8.0301,-11.9674 L 8.5227,-11.6063 L 8.999,-11.2239 L 9.4583,-10.8212 L 9.8995,-10.3988 L 10.3219,-9.9576 L 10.7246,-9.4983 L 11.1069,-9.022 L 11.4681,-8.5294 L 11.8075,-8.0215 L 12.1244,-7.4993 L 12.4182,-6.9638 L 12.6883,-6.416 L 12.9343,-5.8569 L 13.1557,-5.2876 L 13.352,-4.7092 L 13.523,-4.1228 L 13.6681,-3.5295 L 13.7873,-2.9304 L 13.8802,-2.3267 L 13.9467,-1.7195 L 13.9867,-1.11 L 14.0,-0.4993" />
      <path d="M 14.0,-0.4993 L 14.0,-0.4992 L 14.0,-0.4991" />
      <path d="M -0.0,5.5011 L -0.1309,5.4996 L -0.2617,5.4954 L -0.3924,5.4882 L -0.5229,5.4782 L -0.6532,5.4654 L -0.7832,5.4497 L -0.9127,5.4312 L -1.0419,5.4099 L -1.1705,5.3858 L -1.2986,5.3589 L -1.4261,5.3291 L -1.5529,5.2966 L -1.679,5.2614 L -1.8042,5.2234 L -1.9286,5.1827 L -2.0521,5.1392 L -2.1746,5.0931 L -2.2961,5.0444 L -2.4165,4.9929 L -2.5357,4.9389 L -2.6537,4.8823 L -2.7705,4.8231 L -2.8859,4.7614 L -3.0,4.6972 L -3.1126,4.6305 L -3.2238,4.5614 L -3.3334,4.4899 L -3.4415,4.416 L -3.5479,4.3397 L -3.6526,4.2612 L -3.7555,4.1804 L -3.8567,4.0973 L -3.9561,4.0121 L -4.0535,3.9247 L -4.1491,3.8353 L -4.2426,3.7437 L -4.3342,3.6502 L -4.4237,3.5546 L -4.511,3.4572 L -4.5963,3.3578 L -4.6793,3.2566 L -4.7601,3.1536 L -4.8387,3.0489 L -4.9149,2.9425 L -4.9888,2.8345 L -5.0603,2.7249 L -5.1295,2.6137 L -5.1962,2.5011 L -5.2604,2.387 L -5.3221,2.2716 L -5.3812,2.1548 L -5.4378,2.0368 L -5.4919,1.9176 L -5.5433,1.7972 L -5.592,1.6757 L -5.6382,1.5532 L -5.6816,1.4297 L -5.7223,1.3053 L -5.7603,1.1801 L -5.7956,1.054 L -5.8281,0.9272 L -5.8578,0.7997 L -5.8847,0.6716 L -5.9088,0.543 L -5.9302,0.4138 L -5.9487,0.2842 L -5.9643,0.1543 L -5.9772,0.024 L -5.9872,-0.1065 L -5.9943,-0.2372 L -5.9986,-0.368 L -6.0,-0.4989" />
      <path d="M -6.0,-0.4989 L -5.9943,-0.7606 L -5.9772,-1.0219 L -5.9487,-1.2821 L -5.9088,-1.5408 L -5.8578,-1.7976 L -5.7956,-2.0518 L -5.7223,-2.3032 L -5.6382,-2.551 L -5.5433,-2.795 L -5.4378,-3.0346 L -5.3221,-3.2694 L -5.1962,-3.4989 L -5.0603,-3.7227 L -4.9149,-3.9404 L -4.7601,-4.1515 L -4.5963,-4.3556 L -4.4237,-4.5525 L -4.2426,-4.7416 L -4.0535,-4.9226 L -3.8567,-5.0952 L -3.6526,-5.259 L -3.4415,-5.4138 L -3.2238,-5.5593 L -3.0,-5.6951 L -2.7705,-5.821 L -2.5357,-5.9368 L -2.2961,-6.0422 L -2.0521,-6.1371 L -1.8042,-6.2212 L -1.5529,-6.2945 L -1.2986,-6.3567 L -1.0419,-6.4078 L -0.7832,-6.4476 L -0.5229,-6.4761 L -0.2617,-6.4932 L 0.0,-6.4989 L 0.2617,-6.4932 L 0.5229,-6.4761 L 0.7832,-6.4476 L 1.0419,-6.4078 L 1.2986,-6.3567 L 1.5529,-6.2945 L 1.8042,-6.2212 L 2.0521,-6.1371 L 2.2961,-6.0422 L 2.5357,-5.9368 L 2.7705,-5.821 L 3.0,-5.6951 L 3.2238,-5.5593 L 3.4415,-5.4138 L 3.6526,-5.259 L 3.8567,-5.0952 L 4.0535,-4.9226 L 4.2426,-4.7416 L 4.4237,-4.5525 L 4.5963,-4.3556 L 4.7601,-4.1515 L 4.9149,-3.9404 L 5.0603,-3.7227 L 5.1962,-3.4989 L 5.3221,-3.2694 L 5.4378,-3.0346 L 5.5433,-2.795 L 5.6382,-2.551 L 5.7223,-2.3032 L 5.7956,-2.0518 L 5.8578,-1.7976 L 5.9088,-1.5408 L 5.9487,-1.2821 L 5.9772,-1.0219 L 5.9943,-0.7606 L 6.0,-0.4989" />
      <path d="M 6.0,-0.4989 L 5.9986,-0.368 L 5.9943,-0.2372 L 5.9872,-0.1065 L 5.9772,0.024 L 5.9643,0.1543 L 5.9487,0.2842 L 5.9302,0.4138 L 5.9088,0.543 L 5.8847,0.6716 L 5.8578,0.7997 L 5.8281,0.9272 L 5.7956,1.054 L 5.7603,1.1801 L 5.7223,1.3053 L 5.6816,1.4297 L 5.6382,1.5532 L 5.592,1.6757 L 5.5433,1.7972 L 5.4919,1.9176 L 5.4378,2.0368 L 5.3812,2.1548 L 5.3221,2.2716 L 5.2604,2.387 L 5.1962,2.5011 L 5.1295,2.6137 L 5.0603,2.7249 L 4.9888,2.8345 L 4.9149,2.9425 L 4.8387,3.0489 L 4.7601,3.1536 L 4.6793,3.2566 L 4.5963,3.3578 L 4.511,3.4572 L 4.4237,3.5546 L 4.3342,3.6502 L 4.2426,3.7437 L 4.1491,3.8353 L 4.0535,3.9247 L 3.9561,4.0121 L 3.8567,4.0973 L 3.7555,4.1804 L 3.6526,4.2612 L 3.5479,4.3397 L 3.4415,4.416 L 3.3334,4.4899 L 3.2238,4.5614 L 3.1126,4.6305 L 3.0,4.6972 L 2.8859,4.7614 L 2.7705,4.8231 L 2.6537,4.8823 L 2.5357,4.9389 L 2.4165,4.9929 L 2.2961,5.0444 L 2.1746,5.0931 L 2.0521,5.1392 L 1.9286,5.1827 L 1.8042,5.2234 L 1.679,5.2614 L 1.5529,5.2966 L 1.4261,5.3291 L 1.2986,5.3589 L 1.1705,5.3858 L 1.0419,5.4099 L 0.9127,5.4312 L 0.7832,5.4497 L 0.6532,5.4654 L 0.5229,5.4782 L 0.3924,5.4882 L 0.2617,5.4954 L 0.1309,5.4996 L 0.0,5.5011" />
      <path d="M 2.5,5.5011 L 2.4653,5.5011 L 2.4306,5.5011 L 2.3958,5.5011 L 2.3611,5.5011 L 2.3264,5.5011 L 2.2917,5.5011 L 2.2569,5.5011 L 2.2222,5.5011 L 2.1875,5.5011 L 2.1528,5.5011 L 2.1181,5.5011 L 2.0833,5.5011 L 2.0486,5.5011 L 2.0139,5.5011 L 1.9792,5.5011 L 1.9444,5.5011 L 1.9097,5.5011 L 1.875,5.5011 L 1.8403,5.5011 L 1.8056,5.5011 L 1.7708,5.5011 L 1.7361,5.5011 L 1.7014,5.5011 L 1.6667,5.5011 L 1.6319,5.5011 L 1.5972,5.5011 L 1.5625,5.5011 L 1.5278,5.5011 L 1.4931,5.5011 L 1.4583,5.5011 L 1.4236,5.5011 L 1.3889,5.5011 L 1.3542,5.5011 L 1.3194,5.5011 L 1.2847,5.5011 L 1.25,5.5011 L 1.2153,5.5011 L 1.1806,5.5011 L 1.1458,5.5011 L 1.1111,5.5011 L 1.0764,5.5011 L 1.0417,5.5011 L 1.0069,5.5011 L 0.9722,5.5011 L 0.9375,5.5011 L 0.9028,5.5011 L 0.8681,5.5011 L 0.8333,5.5011 L 0.7986,5.5011 L 0.7639,5.5011 L 0.7292,5.5011 L 0.6944,5.5011 L 0.6597,5.5011 L 0.625,5.5011 L 0.5903,5.5011 L 0.5556,5.5011 L 0.5208,5.5011 L 0.4861,5.5011 L 0.4514,5.5011 L 0.4167,5.5011 L 0.3819,5.5011 L 0.3472,5.5011 L 0.3125,5.5011 L 0.2778,5.5011 L 0.2431,5.5011 L 0.2083,5.5011 L 0.1736,5.5011 L 0.1389,5.5011 L 0.1042,5.5011 L 0.0694,5.5011 L 0.0347,5.5011 L 0.0,5.5011" />
      <path d="M 0.0,5.5011 L -0.0347,5.5011 L -0.0694,5.5011 L -0.1042,5.5011 L -0.1389,5.5011 L -0.1736,5.5011 L -0.2083,5.5011 L -0.2431,5.5011 L -0.2778,5.5011 L -0.3125,5.5011 L -0.3472,5.5011 L -0.3819,5.5011 L -0.4167,5.5011 L -0.4514,5.5011 L -0.4861,5.5011 L -0.5208,5.5011 L -0.5556,5.5011 L -0.5903,5.5011 L -0.625,5.5011 L -0.6597,5.5011 L -0.6944,5.5011 L -0.7292,5.5011 L -0.7639,5.5011 L -0.7986,5.5011 L -0.8333,5.5011 L -0.8681,5.5011 L -0.9028,5.5011 L -0.9375,5.5011 L -0.9722,5.5011 L -1.0069,5.5011 L -1.0417,5.5011 L -1.0764,5.5011 L -1.1111,5.5011 L -1.1458,5.5011 L -1.1806,5.5011 L -1.2153,5.5011 L -1.25,5.5011 L -1.2847,5.5011 L -1.3194,5.5011 L -1.3542,5.5011 L -1.3889,5.5011 L -1.4236,5.5011 L -1.4583,5.5011 L -1.4931,5.5011 L -1.5278,5.5011 L -1.5625,5.5011 L -1.5972,5.5011 L -1.6319,5.5011 L -1.6667,5.5011 L -1.7014,5.5011 L -1.7361,5.5011 L -1.7708,5.5011 L -1.8056,5.5011 L -1.8403,5.5011 L -1.875,5.5011 L -1.9097,5.5011 L -1.9444,5.5011 L -1.9792,5.5011 L -2.0139,5.5011 L -2.0486,5.5011 L -2.0833,5.5011 L -2.1181,5.5011 L -2.1528,5.5011 L -2.1875,5.5011 L -2.2222,5.5011 L -2.2569,5.5011 L -2.2917,5.5011 L -2.3264,5.5011 L -2.3611,5.5011 L -2.3958,5.5011 L -2.4306,5.5011 L -2.4653,5.5011 L -2.5,5.5011" />
      <path d="M -0.0,5.5007 L -0.1309,5.4993 L -0.2617,5.495 L -0.3924,5.4878 L -0.5229,5.4778 L -0.6532,5.465 L -0.7831,5.4494 L -0.9127,5.4309 L -1.0418,5.4095 L -1.1705,5.3854 L -1.2986,5.3585 L -1.4261,5.3287 L -1.5528,5.2963 L -1.6789,5.261 L -1.8042,5.223 L -1.9286,5.1823 L -2.052,5.1389 L -2.1745,5.0928 L -2.296,5.044 L -2.4164,4.9926 L -2.5356,4.9386 L -2.6536,4.882 L -2.7704,4.8228 L -2.8858,4.7611 L -2.9999,4.6969 L -3.1125,4.6302 L -3.2237,4.5611 L -3.3333,4.4896 L -3.4413,4.4157 L -3.5477,4.3394 L -3.6524,4.2609 L -3.7554,4.1801 L -3.8566,4.0971 L -3.9559,4.0118 L -4.0534,3.9245 L -4.1489,3.835 L -4.2425,3.7435 L -4.334,3.6499 L -4.4235,3.5544 L -4.5109,3.4569 L -4.5961,3.3576 L -4.6792,3.2564 L -4.76,3.1534 L -4.8385,3.0487 L -4.9148,2.9423 L -4.9887,2.8343 L -5.0602,2.7247 L -5.1293,2.6135 L -5.196,2.5009 L -5.2602,2.3868 L -5.3219,2.2714 L -5.3811,2.1547 L -5.4377,2.0366 L -5.4918,1.9174 L -5.5432,1.7971 L -5.5919,1.6756 L -5.638,1.5531 L -5.6815,1.4296 L -5.7222,1.3052 L -5.7602,1.18 L -5.7955,1.0539 L -5.828,0.9271 L -5.8577,0.7997 L -5.8846,0.6716 L -5.9088,0.5429 L -5.9301,0.4138 L -5.9486,0.2842 L -5.9643,0.1542 L -5.9771,0.024 L -5.9871,-0.1065 L -5.9943,-0.2372 L -5.9986,-0.368 L -6.0,-0.4989" />
      <path d="M 6.0,-0.4989 L 5.9986,-0.368 L 5.9943,-0.2372 L 5.9871,-0.1065 L 5.9771,0.024 L 5.9643,0.1542 L 5.9486,0.2842 L 5.9301,0.4138 L 5.9088,0.5429 L 5.8846,0.6716 L 5.8577,0.7997 L 5.828,0.9271 L 5.7955,1.0539 L 5.7602,1.18 L 5.7222,1.3052 L 5.6815,1.4296 L 5.638,1.5531 L 5.5919,1.6756 L 5.5432,1.7971 L 5.4918,1.9174 L 5.4377,2.0366 L 5.3811,2.1547 L 5.3219,2.2714 L 5.2602,2.3868 L 5.196,2.5009 L 5.1293,2.6135 L 5.0602,2.7247 L 4.9887,2.8343 L 4.9148,2.9423 L 4.8385,3.0487 L 4.76,3.1534 L 4.6792,3.2564 L 4.5961,3.3576 L 4.5109,3.4569 L 4.4235,3.5544 L 4.334,3.6499 L 4.2425,3.7435 L 4.1489,3.835 L 4.0534,3.9245 L 3.9559,4.0118 L 3.8566,4.0971 L 3.7554,4.1801 L 3.6524,4.2609 L 3.5477,4.3394 L 3.4413,4.4157 L 3.3333,4.4896 L 3.2237,4.5611 L 3.1125,4.6302 L 2.9999,4.6969 L 2.8858,4.7611 L 2.7704,4.8228 L 2.6536,4.882 L 2.5356,4.9386 L 2.4164,4.9926 L 2.296,5.044 L 2.1745,5.0928 L 2.052,5.1389 L 1.9286,5.1823 L 1.8042,5.223 L 1.6789,5.261 L 1.5528,5.2963 L 1.4261,5.3287 L 1.2986,5.3585 L 1.1705,5.3854 L 1.0418,5.4095 L 0.9127,5.4309 L 0.7831,5.4494 L 0.6532,5.465 L 0.5229,5.4778 L 0.3924,5.4878 L 0.2617,5.495 L 0.1309,5.4993 L -0.0,5.5007" />
      <path d="M 2.5,5.5011 L 2.5,5.5012 L 2.5,5.5013 L 2.5,5.5014 L 2.5,5.5015 L 2.5,5.5016 L 2.5,5.5017 L 2.5,5.5018 L 2.5,5.5019 L 2.5,5.502 L 2.5,5.5021 L 2.5,5.5022 L 2.5,5.5023 L 2.5,5.5024 L 2.5,5.5025 L 2.5,5.5026 L 2.5,5.5027 L 2.5,5.5028 L 2.5,5.5029 L 2.5,5.503 L 2.5,5.5031 L 2.5,5.5032 L 2.5,5.5033 L 2.5,5.5034 L 2.5,5.5035 L 2.5,5.5036 L 2.5,5.5037 L 2.5,5.5038 L 2.5,5.5039 L 2.5,5.504 L 2.5,5.5041 L 2.5,5.5042 L 2.5,5.5043 L 2.5,5.5044 L 2.5,5.5045 L 2.5,5.5046 L 2.5,5.5047 L 2.5,5.5048 L 2.5,5.5049 L 2.5,5.505 L 2.5,5.5051 L 2.5,5.5052 L 2.5,5.5053" />
      <path d="M 2.5,5.5053 L 2.4306,5.5053 L 2.3611,5.5053 L 2.2917,5.5053 L 2.2222,5.5053 L 2.1528,5.5053 L 2.0833,5.5053 L 2.0139,5.5053 L 1.9444,5.5053 L 1.875,5.5053 L 1.8056,5.5053 L 1.7361,5.5053 L 1.6667,5.5053 L 1.5972,5.5053 L 1.5278,5.5053 L 1.4583,5.5053 L 1.3889,5.5053 L 1.3194,5.5053 L 1.25,5.5053 L 1.1806,5.5053 L 1.1111,5.5053 L 1.0417,5.5053 L 0.9722,5.5053 L 0.9028,5.5053 L 0.8333,5.5053 L 0.7639,5.5053 L 0.6944,5.5053 L 0.625,5.5053 L 0.5556,5.5053 L 0.4861,5.5053 L 0.4167,5.5053 L 0.3472,5.5053 L 0.2778,5.5053 L 0.2083,5.5053 L 0.1389,5.5053 L 0.0694,5.5053 L 0.0,5.5053 L -0.0694,5.5053 L -0.1389,5.5053 L -0.2083,5.5053 L -0.2778,5.5053 L -0.3472,5.5053 L -0.4167,5.5053 L -0.4861,5.5053 L -0.5556,5.5053 L -0.625,5.5053 L -0.6944,5.5053 L -0.7639,5.5053 L -0.8333,5.5053 L -0.9028,5.5053 L -0.9722,5.5053 L -1.0417,5.5053 L -1.1111,5.5053 L -1.1806,5.5053 L -1.25,5.5053 L -1.3194,5.5053 L -1.3889,5.5053 L -1.4583,5.5053 L -1.5278,5.5053 L -1.5972,5.5053 L -1.6667,5.5053 L -1.7361,5.5053 L -1.8056,5.5053 L -1.875,5.5053 L -1.9444,5.5053 L -2.0139,5.5053 L -2.0833,5.5053 L -2.1528,5.5053 L -2.2222,5.5053 L -2.2917,5.5053 L -2.3611,5.5053 L -2.4306,5.5053 L -2.5,5.5053" />
      <path d="M -2.5,5.5011 L -2.5,5.5012 L -2.5,5.5013 L -2.5,5.5014 L -2.5,5.5015 L -2.5,5.5016 L -2.5,5.5017 L -2.5,5.5018 L -2.5,5.5019 L -2.5,5.502 L -2.5,5.5021 L -2.5,5.5022 L -2.5,5.5023 L -2.5,5.5024 L -2.5,5.5025 L -2.5,5.5026 L -2.5,5.5027 L -2.5,5.5028 L -2.5,5.5029 L -2.5,5.503 L -2.5,5.5031 L -2.5,5.5032 L -2.5,5.5033 L -2.5,5.5034 L -2.5,5.5035 L -2.5,5.5036 L -2.5,5.5037 L -2.5,5.5038 L -2.5,5.5039 L -2.5,5.504 L -2.5,5.5041 L -2.5,5.5042 L -2.5,5.5043 L -2.5,5.5044 L -2.5,5.5045 L -2.5,5.5046 L -2.5,5.5047 L -2.5,5.5048 L -2.5,5.5049 L -2.5,5.505 L -2.5,5.5051 L -2.5,5.5052 L -2.5,5.5053" />
      <path d="M 2.5,5.5053 L 2.5,5.5164 L 2.5,5.5275 L 2.5,5.5387 L 2.5,5.5498 L 2.5,5.5609 L 2.5,5.572 L 2.5,5.5831 L 2.5,5.5942 L 2.5,5.6053 L 2.5,5.6164 L 2.5,5.6275 L 2.5,5.6387 L 2.5,5.6498 L 2.5,5.6609 L 2.5,5.672 L 2.5,5.6831 L 2.5,5.6942 L 2.5,5.7053 L 2.5,5.7164 L 2.5,5.7275 L 2.5,5.7387 L 2.5,5.7498 L 2.5,5.7609 L 2.5,5.772 L 2.5,5.7831 L 2.5,5.7942 L 2.5,5.8053 L 2.5,5.8164 L 2.5,5.8275 L 2.5,5.8387 L 2.5,5.8498 L 2.5,5.8609 L 2.5,5.872 L 2.5,5.8831 L 2.5,5.8942 L 2.5,5.9053 L 2.5,5.9164 L 2.5,5.9275 L 2.5,5.9387 L 2.5,5.9498 L 2.5,5.9609 L 2.5,5.972 L 2.5,5.9831 L 2.5,5.9942 L 2.5,6.0053 L 2.5,6.0164 L 2.5,6.0275 L 2.5,6.0387 L 2.5,6.0498 L 2.5,6.0609 L 2.5,6.072 L 2.5,6.0831 L 2.5,6.0942 L 2.5,6.1053 L 2.5,6.1164 L 2.5,6.1275 L 2.5,6.1387 L 2.5,6.1498 L 2.5,6.1609 L 2.5,6.172 L 2.5,6.1831 L 2.5,6.1942 L 2.5,6.2053 L 2.5,6.2164 L 2.5,6.2275 L 2.5,6.2387 L 2.5,6.2498 L 2.5,6.2609 L 2.5,6.272 L 2.5,6.2831 L 2.5,6.2942 L 2.5,6.3053" />
      <path d="M 2.5,6.3053 L 2.4306,6.3053 L 2.3611,6.3053 L 2.2917,6.3053 L 2.2222,6.3053 L 2.1528,6.3053 L 2.0833,6.3053 L 2.0139,6.3053 L 1.9444,6.3053 L 1.875,6.3053 L 1.8056,6.3053 L 1.7361,6.3053 L 1.6667,6.3053 L 1.5972,6.3053 L 1.5278,6.3053 L 1.4583,6.3053 L 1.3889,6.3053 L 1.3194,6.3053 L 1.25,6.3053 L 1.1806,6.3053 L 1.1111,6.3053 L 1.0417,6.3053 L 0.9722,6.3053 L 0.9028,6.3053 L 0.8333,6.3053 L 0.7639,6.3053 L 0.6944,6.3053 L 0.625,6.3053 L 0.5556,6.3053 L 0.4861,6.3053 L 0.4167,6.3053 L 0.3472,6.3053 L 0.2778,6.3053 L 0.2083,6.3053 L 0.1389,6.3053 L 0.0694,6.3053 L 0.0,6.3053 L -0.0694,6.3053 L -0.1389,6.3053 L -0.2083,6.3053 L -0.2778,6.3053 L -0.3472,6.3053 L -0.4167,6.3053 L -0.4861,6.3053 L -0.5556,6.3053 L -0.625,6.3053 L -0.6944,6.3053 L -0.7639,6.3053 L -0.8333,6.3053 L -0.9028,6.3053 L -0.9722,6.3053 L -1.0417,6.3053 L -1.1111,6.3053 L -1.1806,6.3053 L -1.25,6.3053 L -1.3194,6.3053 L -1.3889,6.3053 L -1.4583,6.3053 L -1.5278,6.3053 L -1.5972,6.3053 L -1.6667,6.3053 L -1.7361,6.3053 L -1.8056,6.3053 L -1.875,6.3053 L -1.9444,6.3053 L -2.0139,6.3053 L -2.0833,6.3053 L -2.1528,6.3053 L -2.2222,6.3053 L -2.2917,6.3053 L -2.3611,6.3053 L -2.4306,6.3053 L -2.5,6.3053" />
      <path d="M -2.5,5.5053 L -2.5,5.5164 L -2.5,5.5275 L -2.5,5.5387 L -2.5,5.5498 L -2.5,5.5609 L -2.5,5.572 L -2.5,5.5831 L -2.5,5.5942 L -2.5,5.6053 L -2.5,5.6164 L -2.5,5.6275 L -2.5,5.6387 L -2.5,5.6498 L -2.5,5.6609 L -2.5,5.672 L -2.5,5.6831 L -2.5,5.6942 L -2.5,5.7053 L -2.5,5.7164 L -2.5,5.7275 L -2.5,5.7387 L -2.5,5.7498 L -2.5,5.7609 L -2.5,5.772 L -2.5,5.7831 L -2.5,5.7942 L -2.5,5.8053 L -2.5,5.8164 L -2.5,5.8275 L -2.5,5.8387 L -2.5,5.8498 L -2.5,5.8609 L -2.5,5.872 L -2.5,5.8831 L -2.5,5.8942 L -2.5,5.9053 L -2.5,5.9164 L -2.5,5.9275 L -2.5,5.9387 L -2.5,5.9498 L -2.5,5.9609 L -2.5,5.972 L -2.5,5.9831 L -2.5,5.9942 L -2.5,6.0053 L -2.5,6.0164 L -2.5,6.0275 L -2.5,6.0387 L -2.5,6.0498 L -2.5,6.0609 L -2.5,6.072 L -2.5,6.0831 L -2.5,6.0942 L -2.5,6.1053 L -2.5,6.1164 L -2.5,6.1275 L -2.5,6.1387 L -2.5,6.1498 L -2.5,6.1609 L -2.5,6.172 L -2.5,6.1831 L -2.5,6.1942 L -2.5,6.2053 L -2.5,6.2164 L -2.5,6.2275 L -2.5,6.2387 L -2.5,6.2498 L -2.5,6.2609 L -2.5,6.272 L -2.5,6.2831 L -2.5,6.2942 L -2.5,6.3053" />
      <path d="M 26.5009,-14.4989 L 26.4997,-14.1101 L 26.4992,-13.7212 L 26.4989,-13.3323 L 26.4986,-12.9434 L 26.4983,-12.5545 L 26.4981,-12.1656 L 26.4979,-11.7767 L 26.4977,-11.3878 L 26.4976,-10.9989 L 26.4974,-10.6101 L 26.4973,-10.2212 L 26.4971,-9.8323 L 26.497,-9.4434 L 26.4969,-9.0545 L 26.4968,-8.6656 L 26.4967,-8.2767 L 26.4966,-7.8878 L 26.4965,-7.4989 L 26.4964,-7.1101 L 26.4964,-6.7212 L 26.4963,-6.3323 L 26.4962,-5.9434 L 26.4962,-5.5545 L 26.4961,-5.1656 L 26.4961,-4.7767 L 26.496,-4.3878 L 26.496,-3.9989 L 26.496,-3.6101 L 26.4959,-3.2212 L 26.4959,-2.8323 L 26.4959,-2.4434 L 26.4959,-2.0545 L 26.4958,-1.6656 L 26.4958,-1.2767 L 26.4958,-0.8878 L 26.4958,-0.4989 L 26.4958,-0.1101 L 26.4958,0.2788 L 26.4958,0.6677 L 26.4959,1.0566 L 26.4959,1.4455 L 26.4959,1.8344 L 26.4959,2.2233 L 26.496,2.6122 L 26.496,3.0011 L 26.496,3.3899 L 26.4961,3.7788 L 26.4961,4.1677 L 26.4962,4.5566 L 26.4962,4.9455 L 26.4963,5.3344 L 26.4964,5.7233 L 26.4964,6.1122 L 26.4965,6.5011 L 26.4966,6.8899 L 26.4967,7.2788 L 26.4968,7.6677 L 26.4969,8.0566 L 26.497,8.4455 L 26.4971,8.8344 L 26.4973,9.2233 L 26.4974,9.6122 L 26.4975,10.0011 L 26.4977,10.39 L 26.4979,10.7788 L 26.4981,11.1677 L 26.4983,11.5566 L 26.4986,11.9455 L 26.4989,12.3344 L 26.4992,12.7233 L 26.4997,13.1122 L 26.5009,13.5011" />
      <path d="M 27.3009,13.5011 L 27.3021,13.1122 L 27.3026,12.7233 L 27.3029,12.3344 L 27.3032,11.9455 L 27.3035,11.5566 L 27.3037,11.1677 L 27.3039,10.7788 L 27.3041,10.39 L 27.3043,10.0011 L 27.3044,9.6122 L 27.3046,9.2233 L 27.3047,8.8344 L 27.3048,8.4455 L 27.3049,8.0566 L 27.305,7.6677 L 27.3051,7.2788 L 27.3052,6.8899 L 27.3053,6.5011 L 27.3054,6.1122 L 27.3055,5.7233 L 27.3055,5.3344 L 27.3056,4.9455 L 27.3056,4.5566 L 27.3057,4.1677 L 27.3057,3.7788 L 27.3058,3.3899 L 27.3058,3.0011 L 27.3059,2.6122 L 27.3059,2.2233 L 27.3059,1.8344 L 27.3059,1.4455 L 27.3059,1.0566 L 27.306,0.6677 L 27.306,0.2788 L 27.306,-0.1101 L 27.306,-0.4989 L 27.306,-0.8878 L 27.306,-1.2767 L 27.306,-1.6656 L 27.3059,-2.0545 L 27.3059,-2.4434 L 27.3059,-2.8323 L 27.3059,-3.2212 L 27.3059,-3.6101 L 27.3058,-3.9989 L 27.3058,-4.3878 L 27.3057,-4.7767 L 27.3057,-5.1656 L 27.3056,-5.5545 L 27.3056,-5.9434 L 27.3055,-6.3323 L 27.3055,-6.7212 L 27.3054,-7.1101 L 27.3053,-7.4989 L 27.3052,-7.8878 L 27.3051,-8.2767 L 27.305,-8.6656 L 27.3049,-9.0545 L 27.3048,-9.4434 L 27.3047,-9.8323 L 27.3046,-10.2212 L 27.3044,-10.6101 L 27.3043,-10.9989 L 27.3041,-11.3878 L 27.3039,-11.7767 L 27.3037,-12.1656 L 27.3035,-12.5545 L 27.3032,-12.9434 L 27.3029,-13.3323 L 27.3026,-13.7212 L 27.3021,-14.1101 L 27.3009,-14.4989" />
      <path d="M 27.3009,-14.4989 L 27.2997,-14.1101 L 27.2992,-13.7212 L 27.2989,-13.3323 L 27.2986,-12.9434 L 27.2983,-12.5545 L 27.2981,-12.1656 L 27.2979,-11.7767 L 27.2977,-11.3878 L 27.2976,-10.9989 L 27.2974,-10.6101 L 27.2973,-10.2212 L 27.2971,-9.8323 L 27.297,-9.4434 L 27.2969,-9.0545 L 27.2968,-8.6656 L 27.2967,-8.2767 L 27.2966,-7.8878 L 27.2965,-7.4989 L 27.2964,-7.1101 L 27.2964,-6.7212 L 27.2963,-6.3323 L 27.2962,-5.9434 L 27.2962,-5.5545 L 27.2961,-5.1656 L 27.2961,-4.7767 L 27.296,-4.3878 L 27.296,-3.9989 L 27.296,-3.6101 L 27.2959,-3.2212 L 27.2959,-2.8323 L 27.2959,-2.4434 L 27.2959,-2.0545 L 27.2958,-1.6656 L 27.2958,-1.2767 L 27.2958,-0.8878 L 27.2958,-0.4989 L 27.2958,-0.1101 L 27.2958,0.2788 L 27.2958,0.6677 L 27.2959,1.0566 L 27.2959,1.4455 L 27.2959,1.8344 L 27.2959,2.2233 L 27.296,2.6122 L 27.296,3.0011 L 27.296,3.3899 L 27.2961,3.7788 L 27.2961,4.1677 L 27.2962,4.5566 L 27.2962,4.9455 L 27.2963,5.3344 L 27.2964,5.7233 L 27.2964,6.1122 L 27.2965,6.5011 L 27.2966,6.8899 L 27.2967,7.2788 L 27.2968,7.6677 L 27.2969,8.0566 L 27.297,8.4455 L 27.2971,8.8344 L 27.2973,9.2233 L 27.2974,9.6122 L 27.2975,10.0011 L 27.2977,10.39 L 27.2979,10.7788 L 27.2981,11.1677 L 27.2983,11.5566 L 27.2986,11.9455 L 27.2989,12.3344 L 27.2992,12.7233 L 27.2997,13.1122 L 27.3009,13.5011" />
      <path d="M 27.3009,5.5011 L 27.3014,5.3344 L 27.3016,5.1677 L 27.3018,5.0011 L 27.3019,4.8344 L 27.302,4.6677 L 27.3021,4.5011 L 27.3022,4.3344 L 27.3023,4.1677 L 27.3023,4.0011 L 27.3024,3.8344 L 27.3025,3.6677 L 27.3025,3.5011 L 27.3026,3.3344 L 27.3026,3.1677 L 27.3027,3.0011 L 27.3027,2.8344 L 27.3028,2.6677 L 27.3028,2.5011 L 27.3028,2.3344 L 27.3029,2.1677 L 27.3029,2.0011 L 27.3029,1.8344 L 27.3029,1.6677 L 27.303,1.5011 L 27.303,1.3344 L 27.303,1.1677 L 27.303,1.0011 L 27.303,0.8344 L 27.303,0.6677 L 27.3031,0.5011 L 27.3031,0.3344 L 27.3031,0.1677 L 27.3031,0.0011 L 27.3031,-0.1656 L 27.3031,-0.3323 L 27.3031,-0.4989 L 27.3031,-0.6656 L 27.3031,-0.8323 L 27.3031,-0.9989 L 27.3031,-1.1656 L 27.3031,-1.3323 L 27.3031,-1.4989 L 27.303,-1.6656 L 27.303,-1.8323 L 27.303,-1.9989 L 27.303,-2.1656 L 27.303,-2.3323 L 27.303,-2.4989 L 27.3029,-2.6656 L 27.3029,-2.8323 L 27.3029,-2.9989 L 27.3029,-3.1656 L 27.3028,-3.3323 L 27.3028,-3.4989 L 27.3028,-3.6656 L 27.3027,-3.8323 L 27.3027,-3.9989 L 27.3026,-4.1656 L 27.3026,-4.3323 L 27.3025,-4.4989 L 27.3025,-4.6656 L 27.3024,-4.8323 L 27.3023,-4.9989 L 27.3023,-5.1656 L 27.3022,-5.3323 L 27.3021,-5.4989 L 27.302,-5.6656 L 27.3019,-5.8323 L 27.3018,-5.9989 L 27.3016,-6.1656 L 27.3014,-6.3323 L 27.3009,-6.4989" />
      <path d="M 27.3009,-6.4989 L 27.3004,-6.3323 L 27.3002,-6.1656 L 27.3,-5.9989 L 27.2999,-5.8323 L 27.2998,-5.6656 L 27.2997,-5.4989 L 27.2996,-5.3323 L 27.2995,-5.1656 L 27.2995,-4.9989 L 27.2994,-4.8323 L 27.2993,-4.6656 L 27.2993,-4.4989 L 27.2992,-4.3323 L 27.2992,-4.1656 L 27.2991,-3.9989 L 27.2991,-3.8323 L 27.2991,-3.6656 L 27.299,-3.4989 L 27.299,-3.3323 L 27.299,-3.1656 L 27.2989,-2.9989 L 27.2989,-2.8323 L 27.2989,-2.6656 L 27.2989,-2.4989 L 27.2988,-2.3323 L 27.2988,-2.1656 L 27.2988,-1.9989 L 27.2988,-1.8323 L 27.2988,-1.6656 L 27.2988,-1.4989 L 27.2988,-1.3323 L 27.2987,-1.1656 L 27.2987,-0.9989 L 27.2987,-0.8323 L 27.2987,-0.6656 L 27.2987,-0.4989 L 27.2987,-0.3323 L 27.2987,-0.1656 L 27.2987,0.0011 L 27.2987,0.1677 L 27.2988,0.3344 L 27.2988,0.5011 L 27.2988,0.6677 L 27.2988,0.8344 L 27.2988,1.0011 L 27.2988,1.1677 L 27.2988,1.3344 L 27.2989,1.5011 L 27.2989,1.6677 L 27.2989,1.8344 L 27.2989,2.0011 L 27.299,2.1677 L 27.299,2.3344 L 27.299,2.5011 L 27.2991,2.6677 L 27.2991,2.8344 L 27.2991,3.0011 L 27.2992,3.1677 L 27.2992,3.3344 L 27.2993,3.5011 L 27.2993,3.6677 L 27.2994,3.8344 L 27.2995,4.0011 L 27.2995,4.1677 L 27.2996,4.3344 L 27.2997,4.5011 L 27.2998,4.6677 L 27.2999,4.8344 L 27.3,5.0011 L 27.3002,5.1677 L 27.3004,5.3344 L 27.3009,5.5011" />
      <path d="M 26.4963,5.5023 L 26.3783,5.5023 L 26.2603,5.5023 L 26.1423,5.5023 L 26.0243,5.5023 L 25.9063,5.5023 L 25.7883,5.5023 L 25.6703,5.5023 L 25.5523,5.5023 L 25.4343,5.5023 L 25.3163,5.5023 L 25.1983,5.5023 L 25.0803,5.5023 L 24.9623,5.5023 L 24.8443,5.5023 L 24.7263,5.5023 L 24.6082,5.5023 L 24.4902,5.5023 L 24.3722,5.5023 L 24.2542,5.5023 L 24.1362,5.5023 L 24.0182,5.5023 L 23.9002,5.5023 L 23.7822,5.5023 L 23.6642,5.5023 L 23.5462,5.5023 L 23.4282,5.5023 L 23.3102,5.5023 L 23.1922,5.5023 L 23.0742,5.5023 L 22.9562,5.5023 L 22.8382,5.5023 L 22.7202,5.5023 L 22.6022,5.5023 L 22.4842,5.5023 L 22.3662,5.5023 L 22.2482,5.5023 L 22.1302,5.5023 L 22.0122,5.5023 L 21.8941,5.5023 L 21.7761,5.5023 L 21.6581,5.5023 L 21.5401,5.5023 L 21.4221,5.5023 L 21.3041,5.5023 L 21.1861,5.5023 L 21.0681,5.5023 L 20.9501,5.5023 L 20.8321,5.5023 L 20.7141,5.5023 L 20.5961,5.5023 L 20.4781,5.5023 L 20.3601,5.5023 L 20.2421,5.5023 L 20.1241,5.5023 L 20.0061,5.5023 L 19.8881,5.5023 L 19.7701,5.5023 L 19.6521,5.5023 L 19.5341,5.5023 L 19.4161,5.5023 L 19.298,5.5023 L 19.18,5.5023 L 19.062,5.5023 L 18.944,5.5023 L 18.826,5.5023 L 18.708,5.5023 L 18.59,5.5023 L 18.472,5.5023 L 18.354,5.5023 L 18.236,5.5023 L 18.118,5.5023 L 18.0,5.5023" />
      <path d="M 18.0,5.5023 L 18.0001,5.5022 L 18.0001,5.5021 L 18.0002,5.5021 L 18.0002,5.502 L 18.0003,5.502 L 18.0003,5.5019 L 18.0004,5.5018 L 18.0004,5.5017 L 18.0005,5.5017 L 18.0005,5.5016 L 18.0006,5.5015 L 18.0006,5.5014 L 18.0007,5.5014 L 18.0007,5.5013 L 18.0008,5.5013 L 18.0008,5.5012 L 18.0009,5.5011 L 18.0009,5.501 L 18.001,5.501 L 18.001,5.5009 L 18.0011,5.5008 L 18.0011,5.5007 L 18.0012,5.5007 L 18.0012,5.5006 L 18.0013,5.5006 L 18.0013,5.5005 L 18.0014,5.5004 L 18.0014,5.5003 L 18.0015,5.5003 L 18.0015,5.5002 L 18.0016,5.5002 L 18.0016,5.5001 L 18.0017,5.5 L 18.0017,5.4999 L 18.0018,5.4999 L 18.0018,5.4998" />
      <path d="M 26.4963,5.4998 L 26.3783,5.4998 L 26.2604,5.4998 L 26.1424,5.4998 L 26.0244,5.4998 L 25.9064,5.4998 L 25.7884,5.4998 L 25.6705,5.4998 L 25.5525,5.4998 L 25.4345,5.4998 L 25.3165,5.4998 L 25.1985,5.4998 L 25.0806,5.4998 L 24.9626,5.4998 L 24.8446,5.4998 L 24.7266,5.4998 L 24.6087,5.4998 L 24.4907,5.4998 L 24.3727,5.4998 L 24.2547,5.4998 L 24.1367,5.4998 L 24.0188,5.4998 L 23.9008,5.4998 L 23.7828,5.4998 L 23.6648,5.4998 L 23.5468,5.4998 L 23.4289,5.4998 L 23.3109,5.4998 L 23.1929,5.4998 L 23.0749,5.4998 L 22.9569,5.4998 L 22.839,5.4998 L 22.721,5.4998 L 22.603,5.4998 L 22.485,5.4998 L 22.367,5.4998 L 22.2491,5.4998 L 22.1311,5.4998 L 22.0131,5.4998 L 21.8951,5.4998 L 21.7771,5.4998 L 21.6592,5.4998 L 21.5412,5.4998 L 21.4232,5.4998 L 21.3052,5.4998 L 21.1873,5.4998 L 21.0693,5.4998 L 20.9513,5.4998 L 20.8333,5.4998 L 20.7153,5.4998 L 20.5974,5.4998 L 20.4794,5.4998 L 20.3614,5.4998 L 20.2434,5.4998 L 20.1254,5.4998 L 20.0075,5.4998 L 19.8895,5.4998 L 19.7715,5.4998 L 19.6535,5.4998 L 19.5355,5.4998 L 19.4176,5.4998 L 19.2996,5.4998 L 19.1816,5.4998 L 19.0636,5.4998 L 18.9456,5.4998 L 18.8277,5.4998 L 18.7097,5.4998 L 18.5917,5.4998 L 18.4737,5.4998 L 18.3558,5.4998 L 18.2378,5.4998 L 18.1198,5.4998 L 18.0018,5.4998" />
      <path d="M 26.4965,6.3023 L 26.3785,6.3023 L 26.2605,6.3023 L 26.1424,6.3023 L 26.0244,6.3023 L 25.9064,6.3023 L 25.7884,6.3023 L 25.6704,6.3023 L 25.5524,6.3023 L 25.4344,6.3023 L 25.3164,6.3023 L 25.1984,6.3023 L 25.0804,6.3023 L 24.9624,6.3023 L 24.8444,6.3023 L 24.7264,6.3023 L 24.6084,6.3023 L 24.4904,6.3023 L 24.3724,6.3023 L 24.2543,6.3023 L 24.1363,6.3023 L 24.0183,6.3023 L 23.9003,6.3023 L 23.7823,6.3023 L 23.6643,6.3023 L 23.5463,6.3023 L 23.4283,6.3023 L 23.3103,6.3023 L 23.1923,6.3023 L 23.0743,6.3023 L 22.9563,6.3023 L 22.8383,6.3023 L 22.7203,6.3023 L 22.6023,6.3023 L 22.4842,6.3023 L 22.3662,6.3023 L 22.2482,6.3023 L 22.1302,6.3023 L 22.0122,6.3023 L 21.8942,6.3023 L 21.7762,6.3023 L 21.6582,6.3023 L 21.5402,6.3023 L 21.4222,6.3023 L 21.3042,6.3023 L 21.1862,6.3023 L 21.0682,6.3023 L 20.9502,6.3023 L 20.8322,6.3023 L 20.7141,6.3023 L 20.5961,6.3023 L 20.4781,6.3023 L 20.3601,6.3023 L 20.2421,6.3023 L 20.1241,6.3023 L 20.0061,6.3023 L 19.8881,6.3023 L 19.7701,6.3023 L 19.6521,6.3023 L 19.5341,6.3023 L 19.4161,6.3023 L 19.2981,6.3023 L 19.1801,6.3023 L 19.0621,6.3023 L 18.9441,6.3023 L 18.826,6.3023 L 18.708,6.3023 L 18.59,6.3023 L 18.472,6.3023 L 18.354,6.3023 L 18.236,6.3023 L 18.118,6.3023 L 18.0,6.3023" />
      <path d="M 18.0,5.5023 L 18.0,5.5134 L 18.0,5.5245 L 18.0,5.5356 L 18.0,5.5467 L 18.0,5.5579 L 18.0,5.569 L 18.0,5.5801 L 18.0,5.5912 L 18.0,5.6023 L 18.0,5.6134 L 18.0,5.6245 L 18.0,5.6356 L 18.0,5.6467 L 18.0,5.6579 L 18.0,5.669 L 18.0,5.6801 L 18.0,5.6912 L 18.0,5.7023 L 18.0,5.7134 L 18.0,5.7245 L 18.0,5.7356 L 18.0,5.7467 L 18.0,5.7579 L 18.0,5.769 L 18.0,5.7801 L 18.0,5.7912 L 18.0,5.8023 L 18.0,5.8134 L 18.0,5.8245 L 18.0,5.8356 L 18.0,5.8467 L 18.0,5.8579 L 18.0,5.869 L 18.0,5.8801 L 18.0,5.8912 L 18.0,5.9023 L 18.0,5.9134 L 18.0,5.9245 L 18.0,5.9356 L 18.0,5.9467 L 18.0,5.9579 L 18.0,5.969 L 18.0,5.9801 L 18.0,5.9912 L 18.0,6.0023 L 18.0,6.0134 L 18.0,6.0245 L 18.0,6.0356 L 18.0,6.0467 L 18.0,6.0579 L 18.0,6.069 L 18.0,6.0801 L 18.0,6.0912 L 18.0,6.1023 L 18.0,6.1134 L 18.0,6.1245 L 18.0,6.1356 L 18.0,6.1467 L 18.0,6.1579 L 18.0,6.169 L 18.0,6.1801 L 18.0,6.1912 L 18.0,6.2023 L 18.0,6.2134 L 18.0,6.2245 L 18.0,6.2356 L 18.0,6.2467 L 18.0,6.2579 L 18.0,6.269 L 18.0,6.2801 L 18.0,6.2912 L 18.0,6.3023" />
      <path d="M 27.3009,13.5011 L 27.2898,13.5011 L 27.2787,13.5011 L 27.2676,13.5011 L 27.2565,13.5011 L 27.2453,13.5011 L 27.2342,13.5011 L 27.2231,13.5011 L 27.212,13.5011 L 27.2009,13.5011 L 27.1898,13.5011 L 27.1787,13.5011 L 27.1676,13.5011 L 27.1565,13.5011 L 27.1453,13.5011 L 27.1342,13.5011 L 27.1231,13.5011 L 27.112,13.5011 L 27.1009,13.5011 L 27.0898,13.5011 L 27.0787,13.5011 L 27.0676,13.5011 L 27.0565,13.5011 L 27.0453,13.5011 L 27.0342,13.5011 L 27.0231,13.5011 L 27.012,13.5011 L 27.0009,13.5011 L 26.9898,13.5011 L 26.9787,13.5011 L 26.9676,13.5011 L 26.9565,13.5011 L 26.9453,13.5011 L 26.9342,13.5011 L 26.9231,13.5011 L 26.912,13.5011 L 26.9009,13.5011 L 26.8898,13.5011 L 26.8787,13.5011 L 26.8676,13.5011 L 26.8565,13.5011 L 26.8453,13.5011 L 26.8342,13.5011 L 26.8231,13.5011 L 26.812,13.5011 L 26.8009,13.5011 L 26.7898,13.5011 L 26.7787,13.5011 L 26.7676,13.5011 L 26.7565,13.5011 L 26.7453,13.5011 L 26.7342,13.5011 L 26.7231,13.5011 L 26.712,13.5011 L 26.7009,13.5011 L 26.6898,13.5011 L 26.6787,13.5011 L 26.6676,13.5011 L 26.6565,13.5011 L 26.6453,13.5011 L 26.6342,13.5011 L 26.6231,13.5011 L 26.612,13.5011 L 26.6009,13.5011 L 26.5898,13.5011 L 26.5787,13.5011 L 26.5676,13.5011 L 26.5565,13.5011 L 26.5453,13.5011 L 26.5342,13.5011 L 26.5231,13.5011 L 26.512,13.5011 L 26.5009,13.5011" />
      <path d="M 27.3009,-14.4989 L 27.2898,-14.4989 L 27.2787,-14.4989 L 27.2676,-14.4989 L 27.2565,-14.4989 L 27.2454,-14.4989 L 27.2342,-14.4989 L 27.2231,-14.4989 L 27.212,-14.4989 L 27.2009,-14.4989 L 27.1898,-14.4989 L 27.1787,-14.4989 L 27.1676,-14.4989 L 27.1565,-14.4989 L 27.1454,-14.4989 L 27.1342,-14.4989 L 27.1231,-14.4989 L 27.112,-14.4989 L 27.1009,-14.4989 L 27.0898,-14.4989 L 27.0787,-14.4989 L 27.0676,-14.4989 L 27.0565,-14.4989 L 27.0454,-14.4989 L 27.0342,-14.4989 L 27.0231,-14.4989 L 27.012,-14.4989 L 27.0009,-14.4989 L 26.9898,-14.4989 L 26.9787,-14.4989 L 26.9676,-14.4989 L 26.9565,-14.4989 L 26.9454,-14.4989 L 26.9342,-14.4989 L 26.9231,-14.4989 L 26.912,-14.4989 L 26.9009,-14.4989 L 26.8898,-14.4989 L 26.8787,-14.4989 L 26.8676,-14.4989 L 26.8565,-14.4989 L 26.8454,-14.4989 L 26.8342,-14.4989 L 26.8231,-14.4989 L 26.812,-14.4989 L 26.8009,-14.4989 L 26.7898,-14.4989 L 26.7787,-14.4989 L 26.7676,-14.4989 L 26.7565,-14.4989 L 26.7454,-14.4989 L 26.7342,-14.4989 L 26.7231,-14.4989 L 26.712,-14.4989 L 26.7009,-14.4989 L 26.6898,-14.4989 L 26.6787,-14.4989 L 26.6676,-14.4989 L 26.6565,-14.4989 L 26.6454,-14.4989 L 26.6342,-14.4989 L 26.6231,-14.4989 L 26.612,-14.4989 L 26.6009,-14.4989 L 26.5898,-14.4989 L 26.5787,-14.4989 L 26.5676,-14.4989 L 26.5565,-14.4989 L 26.5454,-14.4989 L 26.5342,-14.4989 L 26.5231,-14.4989 L 26.512,-14.4989 L 26.5009,-14.4989" />
    </g>
    <g fill="none" stroke="rgb(110,110,110)" stroke-width="0.3" id="Hidden" stroke-dasharray="3.6 0.9">
      <path d="M 0.0,13.5007 L -0.3054,13.4973 L -0.6107,13.4874 L -0.9156,13.4707 L -1.2202,13.4474 L -1.5241,13.4175 L -1.8274,13.3809 L -2.1297,13.3377 L -2.4311,13.288 L -2.7312,13.2317 L -3.0301,13.1688 L -3.3276,13.0995 L -3.6234,13.0236 L -3.9176,12.9414 L -4.2098,12.8527 L -4.5001,12.7577 L -4.7882,12.6564 L -5.0741,12.5488 L -5.3575,12.435 L -5.6384,12.3151 L -5.9166,12.189 L -6.192,12.0569 L -6.4644,11.9189 L -6.7338,11.7749 L -6.9999,11.6251 L -7.2628,11.4695 L -7.5221,11.3082 L -7.7779,11.1413 L -8.03,10.9689 L -8.2783,10.7909 L -8.5226,10.6077 L -8.7629,10.4191 L -8.999,10.2254 L -9.2308,10.0265 L -9.4582,9.8226 L -9.6811,9.6138 L -9.8994,9.4002 L -10.113,9.1819 L -10.3218,8.959 L -10.5257,8.7316 L -10.7246,8.4998 L -10.9183,8.2637 L -11.1069,8.0234 L -11.2902,7.7791 L -11.4681,7.5308 L -11.6405,7.2788 L -11.8074,7.023 L -11.9687,6.7636 L -12.1243,6.5008 L -12.2741,6.2346 L -12.4181,5.9653 L -12.5562,5.6928 L -12.6882,5.4175 L -12.8143,5.1393 L -12.9343,4.8584 L -13.0481,4.575 L -13.1556,4.2891 L -13.257,4.001 L -13.352,3.7107 L -13.4407,3.4184 L -13.5229,3.1243 L -13.5987,2.8284 L -13.6681,2.531 L -13.731,2.2321 L -13.7873,1.9319 L -13.837,1.6306 L -13.8802,1.3282 L -13.9168,1.025 L -13.9467,0.721 L -13.97,0.4165 L -13.9867,0.1115 L -13.9967,-0.1937 L -14.0,-0.4991" />
      <path d="M 14.0,-0.4991 L 13.9967,-0.1937 L 13.9867,0.1115 L 13.97,0.4165 L 13.9467,0.721 L 13.9168,1.025 L 13.8802,1.3282 L 13.837,1.6306 L 13.7873,1.9319 L 13.731,2.2321 L 13.6681,2.531 L 13.5987,2.8284 L 13.5229,3.1243 L 13.4407,3.4184 L 13.352,3.7107 L 13.257,4.001 L 13.1556,4.2891 L 13.0481,4.575 L 12.9343,4.8584 L 12.8143,5.1393 L 12.6882,5.4175 L 12.5562,5.6928 L 12.4181,5.9653 L 12.2741,6.2346 L 12.1243,6.5008 L 11.9687,6.7636 L 11.8074,7.023 L 11.6405,7.2788 L 11.4681,7.5308 L 11.2902,7.7791 L 11.1069,8.0234 L 10.9183,8.2637 L 10.7246,8.4998 L 10.5257,8.7316 L 10.3218,8.959 L 10.113,9.1819 L 9.8994,9.4002 L 9.6811,9.6138 L 9.4582,9.8226 L 9.2308,10.0265 L 8.999,10.2254 L 8.7629,10.4191 L 8.5226,10.6077 L 8.2783,10.7909 L 8.03,10.9689 L 7.7779,11.1413 L 7.5221,11.3082 L 7.2628,11.4695 L 6.9999,11.6251 L 6.7338,11.7749 L 6.4644,11.9189 L 6.192,12.0569 L 5.9166,12.189 L 5.6384,12.3151 L 5.3575,12.435 L 5.0741,12.5488 L 4.7882,12.6564 L 4.5001,12.7577 L 4.2098,12.8527 L 3.9176,12.9414 L 3.6234,13.0236 L 3.3276,13.0995 L 3.0301,13.1688 L 2.7312,13.2317 L 2.4311,13.288 L 2.1297,13.3377 L 1.8274,13.3809 L 1.5241,13.4175 L 1.2202,13.4474 L 0.9156,13.4707 L 0.6107,13.4874 L 0.3054,13.4973 L -0.0,13.5007" />
      <path d="M 2.5,6.3011 L 2.5,6.29 L 2.5,6.2789 L 2.5,6.2677 L 2.5,6.2566 L 2.5,6.2455 L 2.5,6.2344 L 2.5,6.2233 L 2.5,6.2122 L 2.5,6.2011 L 2.5,6.19 L 2.5,6.1789 L 2.5,6.1677 L 2.5,6.1566 L 2.5,6.1455 L 2.5,6.1344 L 2.5,6.1233 L 2.5,6.1122 L 2.5,6.1011 L 2.5,6.09 L 2.5,6.0789 L 2.5,6.0677 L 2.5,6.0566 L 2.5,6.0455 L 2.5,6.0344 L 2.5,6.0233 L 2.5,6.0122 L 2.5,6.0011 L 2.5,5.99 L 2.5,5.9789 L 2.5,5.9677 L 2.5,5.9566 L 2.5,5.9455 L 2.5,5.9344 L 2.5,5.9233 L 2.5,5.9122 L 2.5,5.9011 L 2.5,5.89 L 2.5,5.8789 L 2.5,5.8677 L 2.5,5.8566 L 2.5,5.8455 L 2.5,5.8344 L 2.5,5.8233 L 2.5,5.8122 L 2.5,5.8011 L 2.5,5.79 L 2.5,5.7789 L 2.5,5.7677 L 2.5,5.7566 L 2.5,5.7455 L 2.5,5.7344 L 2.5,5.7233 L 2.5,5.7122 L 2.5,5.7011 L 2.5,5.69 L 2.5,5.6789 L 2.5,5.6677 L 2.5,5.6566 L 2.5,5.6455 L 2.5,5.6344 L 2.5,5.6233 L 2.5,5.6122 L 2.5,5.6011 L 2.5,5.59 L 2.5,5.5789 L 2.5,5.5677 L 2.5,5.5566 L 2.5,5.5455 L 2.5,5.5344 L 2.5,5.5233 L 2.5,5.5122 L 2.5,5.5011" />
      <path d="M 2.5,6.3011 L 2.4306,6.3011 L 2.3611,6.3011 L 2.2917,6.3011 L 2.2222,6.3011 L 2.1528,6.3011 L 2.0833,6.3011 L 2.0139,6.3011 L 1.9444,6.3011 L 1.875,6.3011 L 1.8056,6.3011 L 1.7361,6.3011 L 1.6667,6.3011 L 1.5972,6.3011 L 1.5278,6.3011 L 1.4583,6.3011 L 1.3889,6.3011 L 1.3194,6.3011 L 1.25,6.3011 L 1.1806,6.3011 L 1.1111,6.3011 L 1.0417,6.3011 L 0.9722,6.3011 L 0.9028,6.3011 L 0.8333,6.3011 L 0.7639,6.3011 L 0.6944,6.3011 L 0.625,6.3011 L 0.5556,6.3011 L 0.4861,6.3011 L 0.4167,6.3011 L 0.3472,6.3011 L 0.2778,6.3011 L 0.2083,6.3011 L 0.1389,6.3011 L 0.0694,6.3011 L 0.0,6.3011 L -0.0694,6.3011 L -0.1389,6.3011 L -0.2083,6.3011 L -0.2778,6.3011 L -0.3472,6.3011 L -0.4167,6.3011 L -0.4861,6.3011 L -0.5556,6.3011 L -0.625,6.3011 L -0.6944,6.3011 L -0.7639,6.3011 L -0.8333,6.3011 L -0.9028,6.3011 L -0.9722,6.3011 L -1.0417,6.3011 L -1.1111,6.3011 L -1.1806,6.3011 L -1.25,6.3011 L -1.3194,6.3011 L -1.3889,6.3011 L -1.4583,6.3011 L -1.5278,6.3011 L -1.5972,6.3011 L -1.6667,6.3011 L -1.7361,6.3011 L -1.8056,6.3011 L -1.875,6.3011 L -1.9444,6.3011 L -2.0139,6.3011 L -2.0833,6.3011 L -2.1528,6.3011 L -2.2222,6.3011 L -2.2917,6.3011 L -2.3611,6.3011 L -2.4306,6.3011 L -2.5,6.3011" />
      <path d="M -2.5,6.3011 L -2.5,6.29 L -2.5,6.2789 L -2.5,6.2677 L -2.5,6.2566 L -2.5,6.2455 L -2.5,6.2344 L -2.5,6.2233 L -2.5,6.2122 L -2.5,6.2011 L -2.5,6.19 L -2.5,6.1789 L -2.5,6.1677 L -2.5,6.1566 L -2.5,6.1455 L -2.5,6.1344 L -2.5,6.1233 L -2.5,6.1122 L -2.5,6.1011 L -2.5,6.09 L -2.5,6.0789 L -2.5,6.0677 L -2.5,6.0566 L -2.5,6.0455 L -2.5,6.0344 L -2.5,6.0233 L -2.5,6.0122 L -2.5,6.0011 L -2.5,5.99 L -2.5,5.9789 L -2.5,5.9677 L -2.5,5.9566 L -2.5,5.9455 L -2.5,5.9344 L -2.5,5.9233 L -2.5,5.9122 L -2.5,5.9011 L -2.5,5.89 L -2.5,5.8789 L -2.5,5.8677 L -2.5,5.8566 L -2.5,5.8455 L -2.5,5.8344 L -2.5,5.8233 L -2.5,5.8122 L -2.5,5.8011 L -2.5,5.79 L -2.5,5.7789 L -2.5,5.7677 L -2.5,5.7566 L -2.5,5.7455 L -2.5,5.7344 L -2.5,5.7233 L -2.5,5.7122 L -2.5,5.7011 L -2.5,5.69 L -2.5,5.6789 L -2.5,5.6677 L -2.5,5.6566 L -2.5,5.6455 L -2.5,5.6344 L -2.5,5.6233 L -2.5,5.6122 L -2.5,5.6011 L -2.5,5.59 L -2.5,5.5789 L -2.5,5.5677 L -2.5,5.5566 L -2.5,5.5455 L -2.5,5.5344 L -2.5,5.5233 L -2.5,5.5122 L -2.5,5.5011" />
      <path d="M -6.0,-0.4989 L -6.0,-0.499 L -6.0,-0.4991 L -6.0,-0.4992 L -6.0,-0.4993" />
      <path d="M -6.0,-0.4993 L -5.9943,-0.761 L -5.9772,-1.0223 L -5.9487,-1.2825 L -5.9088,-1.5412 L -5.8578,-1.798 L -5.7956,-2.0522 L -5.7223,-2.3036 L -5.6382,-2.5514 L -5.5433,-2.7954 L -5.4378,-3.035 L -5.3221,-3.2698 L -5.1962,-3.4993 L -5.0603,-3.7231 L -4.9149,-3.9408 L -4.7601,-4.1519 L -4.5963,-4.356 L -4.4237,-4.5529 L -4.2426,-4.742 L -4.0535,-4.923 L -3.8567,-5.0956 L -3.6526,-5.2594 L -3.4415,-5.4142 L -3.2238,-5.5597 L -3.0,-5.6955 L -2.7705,-5.8214 L -2.5357,-5.9372 L -2.2961,-6.0426 L -2.0521,-6.1375 L -1.8042,-6.2216 L -1.5529,-6.2949 L -1.2986,-6.3571 L -1.0419,-6.4082 L -0.7832,-6.448 L -0.5229,-6.4765 L -0.2617,-6.4936 L 0.0,-6.4993 L 0.2617,-6.4936 L 0.5229,-6.4765 L 0.7832,-6.448 L 1.0419,-6.4082 L 1.2986,-6.3571 L 1.5529,-6.2949 L 1.8042,-6.2216 L 2.0521,-6.1375 L 2.2961,-6.0426 L 2.5357,-5.9372 L 2.7705,-5.8214 L 3.0,-5.6955 L 3.2238,-5.5597 L 3.4415,-5.4142 L 3.6526,-5.2594 L 3.8567,-5.0956 L 4.0535,-4.923 L 4.2426,-4.742 L 4.4237,-4.5529 L 4.5963,-4.356 L 4.7601,-4.1519 L 4.9149,-3.9408 L 5.0603,-3.7231 L 5.1962,-3.4993 L 5.3221,-3.2698 L 5.4378,-3.035 L 5.5433,-2.7954 L 5.6382,-2.5514 L 5.7223,-2.3036 L 5.7956,-2.0522 L 5.8578,-1.798 L 5.9088,-1.5412 L 5.9487,-1.2825 L 5.9772,-1.0223 L 5.9943,-0.761 L 6.0,-0.4993" />
      <path d="M 6.0,-0.4993 L 6.0,-0.4992 L 6.0,-0.4991 L 6.0,-0.499 L 6.0,-0.4989" />
      <path d="M 2.5,6.3011 L 2.5,6.3012 L 2.5,6.3013 L 2.5,6.3014 L 2.5,6.3015 L 2.5,6.3016 L 2.5,6.3017 L 2.5,6.3018 L 2.5,6.3019 L 2.5,6.302 L 2.5,6.3021 L 2.5,6.3022 L 2.5,6.3023 L 2.5,6.3024 L 2.5,6.3025 L 2.5,6.3026 L 2.5,6.3027 L 2.5,6.3028 L 2.5,6.3029 L 2.5,6.303 L 2.5,6.3031 L 2.5,6.3032 L 2.5,6.3033 L 2.5,6.3034 L 2.5,6.3035 L 2.5,6.3036 L 2.5,6.3037 L 2.5,6.3038 L 2.5,6.3039 L 2.5,6.304 L 2.5,6.3041 L 2.5,6.3042 L 2.5,6.3043 L 2.5,6.3044 L 2.5,6.3045 L 2.5,6.3046 L 2.5,6.3047 L 2.5,6.3048 L 2.5,6.3049 L 2.5,6.305 L 2.5,6.3051 L 2.5,6.3052 L 2.5,6.3053" />
      <path d="M -2.5,6.3011 L -2.5,6.3012 L -2.5,6.3013 L -2.5,6.3014 L -2.5,6.3015 L -2.5,6.3016 L -2.5,6.3017 L -2.5,6.3018 L -2.5,6.3019 L -2.5,6.302 L -2.5,6.3021 L -2.5,6.3022 L -2.5,6.3023 L -2.5,6.3024 L -2.5,6.3025 L -2.5,6.3026 L -2.5,6.3027 L -2.5,6.3028 L -2.5,6.3029 L -2.5,6.303 L -2.5,6.3031 L -2.5,6.3032 L -2.5,6.3033 L -2.5,6.3034 L -2.5,6.3035 L -2.5,6.3036 L -2.5,6.3037 L -2.5,6.3038 L -2.5,6.3039 L -2.5,6.304 L -2.5,6.3041 L -2.5,6.3042 L -2.5,6.3043 L -2.5,6.3044 L -2.5,6.3045 L -2.5,6.3046 L -2.5,6.3047 L -2.5,6.3048 L -2.5,6.3049 L -2.5,6.305 L -2.5,6.3051 L -2.5,6.3052 L -2.5,6.3053" />
      <path d="M 14.0,-0.4993 L 14.0,-0.4992 L 14.0,-0.4991 L 14.0,-0.499 L 14.0,-0.4989" />
      <path d="M -14.0,-0.4993 L -14.0,-0.4992 L -14.0,-0.4991 L -14.0,-0.499 L -14.0,-0.4989" />
      <path d="M 6.0,-0.4993 L 6.0,-0.4992 L 6.0,-0.4991 L 6.0,-0.499 L 6.0,-0.4989" />
      <path d="M -6.0,-0.4993 L -6.0,-0.4992 L -6.0,-0.4991 L -6.0,-0.499 L -6.0,-0.4989" />
      <path d="M 26.5009,13.5011 L 26.5021,13.1122 L 26.5026,12.7233 L 26.5029,12.3344 L 26.5032,11.9455 L 26.5035,11.5566 L 26.5037,11.1677 L 26.5039,10.7788 L 26.5041,10.39 L 26.5043,10.0011 L 26.5044,9.6122 L 26.5046,9.2233 L 26.5047,8.8344 L 26.5048,8.4455 L 26.5049,8.0566 L 26.505,7.6677 L 26.5051,7.2788 L 26.5052,6.8899 L 26.5053,6.5011 L 26.5054,6.1122 L 26.5055,5.7233 L 26.5055,5.3344 L 26.5056,4.9455 L 26.5056,4.5566 L 26.5057,4.1677 L 26.5057,3.7788 L 26.5058,3.3899 L 26.5058,3.0011 L 26.5059,2.6122 L 26.5059,2.2233 L 26.5059,1.8344 L 26.5059,1.4455 L 26.5059,1.0566 L 26.506,0.6677 L 26.506,0.2788 L 26.506,-0.1101 L 26.506,-0.4989 L 26.506,-0.8878 L 26.506,-1.2767 L 26.506,-1.6656 L 26.5059,-2.0545 L 26.5059,-2.4434 L 26.5059,-2.8323 L 26.5059,-3.2212 L 26.5059,-3.6101 L 26.5058,-3.9989 L 26.5058,-4.3878 L 26.5057,-4.7767 L 26.5057,-5.1656 L 26.5056,-5.5545 L 26.5056,-5.9434 L 26.5055,-6.3323 L 26.5055,-6.7212 L 26.5054,-7.1101 L 26.5053,-7.4989 L 26.5052,-7.8878 L 26.5051,-8.2767 L 26.505,-8.6656 L 26.5049,-9.0545 L 26.5048,-9.4434 L 26.5047,-9.8323 L 26.5046,-10.2212 L 26.5044,-10.6101 L 26.5043,-10.9989 L 26.5041,-11.3878 L 26.5039,-11.7767 L 26.5037,-12.1656 L 26.5035,-12.5545 L 26.5032,-12.9434 L 26.5029,-13.3323 L 26.5026,-13.7212 L 26.5021,-14.1101 L 26.5009,-14.4989" />
      <path d="M 26.5009,5.5011 L 26.5014,5.3344 L 26.5016,5.1677 L 26.5018,5.0011 L 26.5019,4.8344 L 26.502,4.6677 L 26.5021,4.5011 L 26.5022,4.3344 L 26.5023,4.1677 L 26.5023,4.0011 L 26.5024,3.8344 L 26.5025,3.6677 L 26.5025,3.5011 L 26.5026,3.3344 L 26.5026,3.1677 L 26.5027,3.0011 L 26.5027,2.8344 L 26.5028,2.6677 L 26.5028,2.5011 L 26.5028,2.3344 L 26.5029,2.1677 L 26.5029,2.0011 L 26.5029,1.8344 L 26.5029,1.6677 L 26.503,1.5011 L 26.503,1.3344 L 26.503,1.1677 L 26.503,1.0011 L 26.503,0.8344 L 26.503,0.6677 L 26.5031,0.5011 L 26.5031,0.3344 L 26.5031,0.1677 L 26.5031,0.0011 L 26.5031,-0.1656 L 26.5031,-0.3323 L 26.5031,-0.4989 L 26.5031,-0.6656 L 26.5031,-0.8323 L 26.5031,-0.9989 L 26.5031,-1.1656 L 26.5031,-1.3323 L 26.5031,-1.4989 L 26.503,-1.6656 L 26.503,-1.8323 L 26.503,-1.9989 L 26.503,-2.1656 L 26.503,-2.3323 L 26.503,-2.4989 L 26.5029,-2.6656 L 26.5029,-2.8323 L 26.5029,-2.9989 L 26.5029,-3.1656 L 26.5028,-3.3323 L 26.5028,-3.4989 L 26.5028,-3.6656 L 26.5027,-3.8323 L 26.5027,-3.9989 L 26.5026,-4.1656 L 26.5026,-4.3323 L 26.5025,-4.4989 L 26.5025,-4.6656 L 26.5024,-4.8323 L 26.5023,-4.9989 L 26.5023,-5.1656 L 26.5022,-5.3323 L 26.5021,-5.4989 L 26.502,-5.6656 L 26.5019,-5.8323 L 26.5018,-5.9989 L 26.5016,-6.1656 L 26.5014,-6.3323 L 26.5009,-6.4989" />
      <path d="M 26.5009,-6.4989 L 26.5004,-6.3323 L 26.5002,-6.1656 L 26.5,-5.9989 L 26.4999,-5.8323 L 26.4998,-5.6656 L 26.4997,-5.4989 L 26.4996,-5.3323 L 26.4995,-5.1656 L 26.4995,-4.9989 L 26.4994,-4.8323 L 26.4993,-4.6656 L 26.4993,-4.4989 L 26.4992,-4.3323 L 26.4992,-4.1656 L 26.4991,-3.9989 L 26.4991,-3.8323 L 26.4991,-3.6656 L 26.499,-3.4989 L 26.499,-3.3323 L 26.499,-3.1656 L 26.4989,-2.9989 L 26.4989,-2.8323 L 26.4989,-2.6656 L 26.4989,-2.4989 L 26.4988,-2.3323 L 26.4988,-2.1656 L 26.4988,-1.9989 L 26.4988,-1.8323 L 26.4988,-1.6656 L 26.4988,-1.4989 L 26.4988,-1.3323 L 26.4987,-1.1656 L 26.4987,-0.9989 L 26.4987,-0.8323 L 26.4987,-0.6656 L 26.4987,-0.4989 L 26.4987,-0.3323 L 26.4987,-0.1656 L 26.4987,0.0011 L 26.4987,0.1677 L 26.4988,0.3344 L 26.4988,0.5011 L 26.4988,0.6677 L 26.4988,0.8344 L 26.4988,1.0011 L 26.4988,1.1677 L 26.4988,1.3344 L 26.4989,1.5011 L 26.4989,1.6677 L 26.4989,1.8344 L 26.4989,2.0011 L 26.499,2.1677 L 26.499,2.3344 L 26.499,2.5011 L 26.4991,2.6677 L 26.4991,2.8344 L 26.4991,3.0011 L 26.4992,3.1677 L 26.4992,3.3344 L 26.4993,3.5011 L 26.4993,3.6677 L 26.4994,3.8344 L 26.4995,4.0011 L 26.4995,4.1677 L 26.4996,4.3344 L 26.4997,4.5011 L 26.4998,4.6677 L 26.4999,4.8344 L 26.5,5.0011 L 26.5002,5.1677 L 26.5004,5.3344 L 26.5009,5.5011" />
      <path d="M 26.5,5.5023 L 26.5,5.5022 L 26.5001,5.5022 L 26.5001,5.5021 L 26.5002,5.5021 L 26.5002,5.502 L 26.5003,5.502 L 26.5003,5.5019 L 26.5003,5.5018 L 26.5004,5.5018 L 26.5004,5.5017 L 26.5005,5.5017 L 26.5005,5.5016 L 26.5006,5.5015 L 26.5006,5.5014 L 26.5007,5.5014 L 26.5007,5.5013 L 26.5008,5.5013 L 26.5008,5.5012 L 26.5008,5.5011 L 26.5009,5.5011" />
      <path d="M 26.5,6.3023 L 26.5,6.2912 L 26.5,6.2801 L 26.5,6.269 L 26.5,6.2579 L 26.5,6.2468 L 26.5,6.2356 L 26.5,6.2245 L 26.5,6.2134 L 26.5,6.2023 L 26.5,6.1912 L 26.5,6.1801 L 26.5,6.169 L 26.5,6.1579 L 26.5,6.1468 L 26.5,6.1356 L 26.5,6.1245 L 26.5,6.1134 L 26.5,6.1023 L 26.5,6.0912 L 26.5,6.0801 L 26.5,6.069 L 26.5,6.0579 L 26.5,6.0468 L 26.5,6.0356 L 26.5,6.0245 L 26.5,6.0134 L 26.5,6.0023 L 26.5,5.9912 L 26.5,5.9801 L 26.5,5.969 L 26.5,5.9579 L 26.5,5.9468 L 26.5,5.9356 L 26.5,5.9245 L 26.5,5.9134 L 26.5,5.9023 L 26.5,5.8912 L 26.5,5.8801 L 26.5,5.869 L 26.5,5.8579 L 26.5,5.8468 L 26.5,5.8356 L 26.5,5.8245 L 26.5,5.8134 L 26.5,5.8023 L 26.5,5.7912 L 26.5,5.7801 L 26.5,5.769 L 26.5,5.7579 L 26.5,5.7468 L 26.5,5.7356 L 26.5,5.7245 L 26.5,5.7134 L 26.5,5.7023 L 26.5,5.6912 L 26.5,5.6801 L 26.5,5.669 L 26.5,5.6579 L 26.5,5.6468 L 26.5,5.6356 L 26.5,5.6245 L 26.5,5.6134 L 26.5,5.6023 L 26.5,5.5912 L 26.5,5.5801 L 26.5,5.569 L 26.5,5.5579 L 26.5,5.5468 L 26.5,5.5356 L 26.5,5.5245 L 26.5,5.5134 L 26.5,5.5023" />
      <path d="M 26.5,6.3023 L 26.5,6.3022 L 26.5001,6.3022 L 26.5001,6.3021 L 26.5002,6.3021 L 26.5002,6.302 L 26.5003,6.302 L 26.5003,6.3019 L 26.5004,6.3018 L 26.5004,6.3017 L 26.5005,6.3017 L 26.5005,6.3016 L 26.5006,6.3015 L 26.5006,6.3014 L 26.5007,6.3014 L 26.5007,6.3013 L 26.5008,6.3013 L 26.5008,6.3012 L 26.5009,6.3011 L 26.5009,6.301 L 26.501,6.301 L 26.501,6.3009 L 26.5011,6.3009 L 26.5011,6.3008 L 26.5011,6.3007 L 26.5012,6.3007 L 26.5012,6.3006 L 26.5013,6.3006 L 26.5013,6.3005 L 26.5014,6.3004 L 26.5014,6.3003 L 26.5015,6.3003 L 26.5015,6.3002 L 26.5016,6.3002 L 26.5016,6.3001 L 26.5017,6.3 L 26.5017,6.2999 L 26.5018,6.2999 L 26.5018,6.2998" />
      <path d="M 26.5018,6.2998 L 26.5018,6.2887 L 26.5018,6.2776 L 26.5018,6.2665 L 26.5018,6.2554 L 26.5018,6.2443 L 26.5018,6.2331 L 26.5018,6.222 L 26.5018,6.2109 L 26.5018,6.1998 L 26.5018,6.1887 L 26.5018,6.1776 L 26.5018,6.1665 L 26.5018,6.1554 L 26.5018,6.1443 L 26.5018,6.1331 L 26.5018,6.122 L 26.5018,6.1109 L 26.5018,6.0998 L 26.5018,6.0887 L 26.5018,6.0776 L 26.5018,6.0665 L 26.5018,6.0554 L 26.5018,6.0443 L 26.5018,6.0331 L 26.5018,6.022 L 26.5018,6.0109 L 26.5018,5.9998 L 26.5018,5.9887 L 26.5018,5.9776 L 26.5018,5.9665 L 26.5018,5.9554 L 26.5018,5.9443 L 26.5018,5.9331 L 26.5018,5.922 L 26.5018,5.9109 L 26.5018,5.8998 L 26.5018,5.8887 L 26.5018,5.8776 L 26.5018,5.8665 L 26.5018,5.8554 L 26.5018,5.8443 L 26.5018,5.8331 L 26.5018,5.822 L 26.5018,5.8109 L 26.5018,5.7998 L 26.5018,5.7887 L 26.5018,5.7776 L 26.5018,5.7665 L 26.5018,5.7554 L 26.5018,5.7443 L 26.5018,5.7331 L 26.5018,5.722 L 26.5018,5.7109 L 26.5018,5.6998 L 26.5018,5.6887 L 26.5018,5.6776 L 26.5018,5.6665 L 26.5018,5.6554 L 26.5018,5.6443 L 26.5018,5.6331 L 26.5018,5.622 L 26.5018,5.6109 L 26.5018,5.5998 L 26.5018,5.5887 L 26.5018,5.5776 L 26.5018,5.5665 L 26.5018,5.5554 L 26.5018,5.5443 L 26.5018,5.5331 L 26.5018,5.522 L 26.5018,5.5109 L 26.5018,5.4998" />
      <path d="M 26.5009,5.5011 L 26.5009,5.501 L 26.501,5.501 L 26.501,5.5009 L 26.5011,5.5009 L 26.5011,5.5008 L 26.5011,5.5007 L 26.5012,5.5007 L 26.5012,5.5006 L 26.5013,5.5006 L 26.5013,5.5005 L 26.5014,5.5004 L 26.5014,5.5003 L 26.5015,5.5003 L 26.5015,5.5002 L 26.5016,5.5002 L 26.5016,5.5001 L 26.5016,5.5 L 26.5017,5.5 L 26.5017,5.4999 L 26.5018,5.4999 L 26.5018,5.4998" />
      <path d="M 26.5,5.5023 L 26.4999,5.5023 L 26.4998,5.5023 L 26.4997,5.5023 L 26.4996,5.5023 L 26.4995,5.5023 L 26.4994,5.5023 L 26.4993,5.5023 L 26.4992,5.5023 L 26.4991,5.5023 L 26.499,5.5023 L 26.4989,5.5023 L 26.4988,5.5023 L 26.4987,5.5023 L 26.4986,5.5023 L 26.4985,5.5023 L 26.4984,5.5023 L 26.4983,5.5023 L 26.4982,5.5023 L 26.4981,5.5023 L 26.498,5.5023 L 26.4979,5.5023 L 26.4978,5.5023 L 26.4977,5.5023 L 26.4976,5.5023 L 26.4975,5.5023 L 26.4974,5.5023 L 26.4973,5.5023 L 26.4972,5.5023 L 26.4971,5.5023 L 26.497,5.5023 L 26.4969,5.5023 L 26.4968,5.5023 L 26.4967,5.5023 L 26.4966,5.5023 L 26.4965,5.5023 L 26.4964,5.5023 L 26.4963,5.5023" />
      <path d="M 26.5018,5.4998 L 26.5017,5.4998 L 26.5016,5.4998 L 26.5015,5.4998 L 26.5014,5.4998 L 26.5013,5.4998 L 26.5012,5.4998 L 26.5011,5.4998 L 26.501,5.4998 L 26.5009,5.4998 L 26.5008,5.4998 L 26.5007,5.4998 L 26.5006,5.4998 L 26.5005,5.4998 L 26.5004,5.4998 L 26.5003,5.4998 L 26.5002,5.4998 L 26.5001,5.4998 L 26.5,5.4998 L 26.4999,5.4998 L 26.4998,5.4998 L 26.4997,5.4998 L 26.4996,5.4998 L 26.4995,5.4998 L 26.4994,5.4998 L 26.4993,5.4998 L 26.4992,5.4998 L 26.4991,5.4998 L 26.499,5.4998 L 26.4989,5.4998 L 26.4988,5.4998 L 26.4987,5.4998 L 26.4986,5.4998 L 26.4985,5.4998 L 26.4984,5.4998 L 26.4983,5.4998 L 26.4982,5.4998 L 26.4981,5.4998 L 26.498,5.4998 L 26.4979,5.4998 L 26.4978,5.4998 L 26.4977,5.4998 L 26.4976,5.4998 L 26.4975,5.4998 L 26.4974,5.4998 L 26.4973,5.4998 L 26.4972,5.4998 L 26.4971,5.4998 L 26.497,5.4998 L 26.4969,5.4998 L 26.4968,5.4998 L 26.4967,5.4998 L 26.4966,5.4998 L 26.4965,5.4998 L 26.4964,5.4998 L 26.4963,5.4998" />
      <path d="M 26.5,6.3023 L 26.4999,6.3023 L 26.4998,6.3023 L 26.4997,6.3023 L 26.4996,6.3023 L 26.4995,6.3023 L 26.4994,6.3023 L 26.4993,6.3023 L 26.4992,6.3023 L 26.4991,6.3023 L 26.499,6.3023 L 26.4989,6.3023 L 26.4988,6.3023 L 26.4987,6.3023 L 26.4986,6.3023 L 26.4985,6.3023 L 26.4984,6.3023 L 26.4983,6.3023 L 26.4982,6.3023 L 26.4981,6.3023 L 26.498,6.3023 L 26.4979,6.3023 L 26.4978,6.3023 L 26.4977,6.3023 L 26.4976,6.3023 L 26.4975,6.3023 L 26.4974,6.3023 L 26.4973,6.3023 L 26.4972,6.3023 L 26.4971,6.3023 L 26.497,6.3023 L 26.4969,6.3023 L 26.4968,6.3023 L 26.4967,6.3023 L 26.4966,6.3023 L 26.4965,6.3023" />
      <path d="M 18.0,6.3023 L 18.0001,6.3022 L 18.0001,6.3021 L 18.0002,6.3021 L 18.0002,6.302 L 18.0003,6.302 L 18.0003,6.3019 L 18.0004,6.3018 L 18.0004,6.3017 L 18.0005,6.3017 L 18.0005,6.3016 L 18.0006,6.3015 L 18.0006,6.3014 L 18.0007,6.3014 L 18.0007,6.3013 L 18.0008,6.3013 L 18.0008,6.3012 L 18.0009,6.3011 L 18.0009,6.301 L 18.001,6.301 L 18.001,6.3009 L 18.0011,6.3008 L 18.0011,6.3007 L 18.0012,6.3007 L 18.0012,6.3006 L 18.0013,6.3006 L 18.0013,6.3005 L 18.0014,6.3004 L 18.0014,6.3003 L 18.0015,6.3003 L 18.0015,6.3002 L 18.0016,6.3002 L 18.0016,6.3001 L 18.0017,6.3 L 18.0017,6.2999 L 18.0018,6.2999 L 18.0018,6.2998" />
      <path d="M 26.5018,6.2998 L 26.3838,6.2998 L 26.2657,6.2998 L 26.1476,6.2998 L 26.0296,6.2998 L 25.9115,6.2998 L 25.7935,6.2998 L 25.6754,6.2998 L 25.5574,6.2998 L 25.4393,6.2998 L 25.3213,6.2998 L 25.2032,6.2998 L 25.0851,6.2998 L 24.9671,6.2998 L 24.849,6.2998 L 24.731,6.2998 L 24.6129,6.2998 L 24.4949,6.2998 L 24.3768,6.2998 L 24.2588,6.2998 L 24.1407,6.2998 L 24.0226,6.2998 L 23.9046,6.2998 L 23.7865,6.2998 L 23.6685,6.2998 L 23.5504,6.2998 L 23.4324,6.2998 L 23.3143,6.2998 L 23.1963,6.2998 L 23.0782,6.2998 L 22.9601,6.2998 L 22.8421,6.2998 L 22.724,6.2998 L 22.606,6.2998 L 22.4879,6.2998 L 22.3699,6.2998 L 22.2518,6.2998 L 22.1338,6.2998 L 22.0157,6.2998 L 21.8976,6.2998 L 21.7796,6.2998 L 21.6615,6.2998 L 21.5435,6.2998 L 21.4254,6.2998 L 21.3074,6.2998 L 21.1893,6.2998 L 21.0713,6.2998 L 20.9532,6.2998 L 20.8351,6.2998 L 20.7171,6.2998 L 20.599,6.2998 L 20.481,6.2998 L 20.3629,6.2998 L 20.2449,6.2998 L 20.1268,6.2998 L 20.0088,6.2998 L 19.8907,6.2998 L 19.7726,6.2998 L 19.6546,6.2998 L 19.5365,6.2998 L 19.4185,6.2998 L 19.3004,6.2998 L 19.1824,6.2998 L 19.0643,6.2998 L 18.9463,6.2998 L 18.8282,6.2998 L 18.7101,6.2998 L 18.5921,6.2998 L 18.474,6.2998 L 18.356,6.2998 L 18.2379,6.2998 L 18.1199,6.2998 L 18.0018,6.2998" />
      <path d="M 18.0018,5.4998 L 18.0018,5.5109 L 18.0018,5.522 L 18.0018,5.5331 L 18.0018,5.5443 L 18.0018,5.5554 L 18.0018,5.5665 L 18.0018,5.5776 L 18.0018,5.5887 L 18.0018,5.5998 L 18.0018,5.6109 L 18.0018,5.622 L 18.0018,5.6331 L 18.0018,5.6443 L 18.0018,5.6554 L 18.0018,5.6665 L 18.0018,5.6776 L 18.0018,5.6887 L 18.0018,5.6998 L 18.0018,5.7109 L 18.0018,5.722 L 18.0018,5.7331 L 18.0018,5.7443 L 18.0018,5.7554 L 18.0018,5.7665 L 18.0018,5.7776 L 18.0018,5.7887 L 18.0018,5.7998 L 18.0018,5.8109 L 18.0018,5.822 L 18.0018,5.8331 L 18.0018,5.8443 L 18.0018,5.8554 L 18.0018,5.8665 L 18.0018,5.8776 L 18.0018,5.8887 L 18.0018,5.8998 L 18.0018,5.9109 L 18.0018,5.922 L 18.0018,5.9331 L 18.0018,5.9443 L 18.0018,5.9554 L 18.0018,5.9665 L 18.0018,5.9776 L 18.0018,5.9887 L 18.0018,5.9998 L 18.0018,6.0109 L 18.0018,6.022 L 18.0018,6.0331 L 18.0018,6.0443 L 18.0018,6.0554 L 18.0018,6.0665 L 18.0018,6.0776 L 18.0018,6.0887 L 18.0018,6.0998 L 18.0018,6.1109 L 18.0018,6.122 L 18.0018,6.1331 L 18.0018,6.1443 L 18.0018,6.1554 L 18.0018,6.1665 L 18.0018,6.1776 L 18.0018,6.1887 L 18.0018,6.1998 L 18.0018,6.2109 L 18.0018,6.222 L 18.0018,6.2331 L 18.0018,6.2443 L 18.0018,6.2554 L 18.0018,6.2665 L 18.0018,6.2776 L 18.0018,6.2887 L 18.0018,6.2998" />
      <path d="M 27.3009,5.5011 L 27.2898,5.5011 L 27.2787,5.5011 L 27.2676,5.5011 L 27.2565,5.5011 L 27.2453,5.5011 L 27.2342,5.5011 L 27.2231,5.5011 L 27.212,5.5011 L 27.2009,5.5011 L 27.1898,5.5011 L 27.1787,5.5011 L 27.1676,5.5011 L 27.1565,5.5011 L 27.1453,5.5011 L 27.1342,5.5011 L 27.1231,5.5011 L 27.112,5.5011 L 27.1009,5.5011 L 27.0898,5.5011 L 27.0787,5.5011 L 27.0676,5.5011 L 27.0565,5.5011 L 27.0453,5.5011 L 27.0342,5.5011 L 27.0231,5.5011 L 27.012,5.5011 L 27.0009,5.5011 L 26.9898,5.5011 L 26.9787,5.5011 L 26.9676,5.5011 L 26.9565,5.5011 L 26.9453,5.5011 L 26.9342,5.5011 L 26.9231,5.5011 L 26.912,5.5011 L 26.9009,5.5011 L 26.8898,5.5011 L 26.8787,5.5011 L 26.8676,5.5011 L 26.8565,5.5011 L 26.8453,5.5011 L 26.8342,5.5011 L 26.8231,5.5011 L 26.812,5.5011 L 26.8009,5.5011 L 26.7898,5.5011 L 26.7787,5.5011 L 26.7676,5.5011 L 26.7565,5.5011 L 26.7453,5.5011 L 26.7342,5.5011 L 26.7231,5.5011 L 26.712,5.5011 L 26.7009,5.5011 L 26.6898,5.5011 L 26.6787,5.5011 L 26.6676,5.5011 L 26.6565,5.5011 L 26.6453,5.5011 L 26.6342,5.5011 L 26.6231,5.5011 L 26.612,5.5011 L 26.6009,5.5011 L 26.5898,5.5011 L 26.5787,5.5011 L 26.5676,5.5011 L 26.5565,5.5011 L 26.5453,5.5011 L 26.5342,5.5011 L 26.5231,5.5011 L 26.512,5.5011 L 26.5009,5.5011" />
      <path d="M 27.3009,-6.4989 L 27.2898,-6.4989 L 27.2787,-6.4989 L 27.2676,-6.4989 L 27.2565,-6.4989 L 27.2454,-6.4989 L 27.2342,-6.4989 L 27.2231,-6.4989 L 27.212,-6.4989 L 27.2009,-6.4989 L 27.1898,-6.4989 L 27.1787,-6.4989 L 27.1676,-6.4989 L 27.1565,-6.4989 L 27.1454,-6.4989 L 27.1342,-6.4989 L 27.1231,-6.4989 L 27.112,-6.4989 L 27.1009,-6.4989 L 27.0898,-6.4989 L 27.0787,-6.4989 L 27.0676,-6.4989 L 27.0565,-6.4989 L 27.0454,-6.4989 L 27.0342,-6.4989 L 27.0231,-6.4989 L 27.012,-6.4989 L 27.0009,-6.4989 L 26.9898,-6.4989 L 26.9787,-6.4989 L 26.9676,-6.4989 L 26.9565,-6.4989 L 26.9454,-6.4989 L 26.9342,-6.4989 L 26.9231,-6.4989 L 26.912,-6.4989 L 26.9009,-6.4989 L 26.8898,-6.4989 L 26.8787,-6.4989 L 26.8676,-6.4989 L 26.8565,-6.4989 L 26.8454,-6.4989 L 26.8342,-6.4989 L 26.8231,-6.4989 L 26.812,-6.4989 L 26.8009,-6.4989 L 26.7898,-6.4989 L 26.7787,-6.4989 L 26.7676,-6.4989 L 26.7565,-6.4989 L 26.7454,-6.4989 L 26.7342,-6.4989 L 26.7231,-6.4989 L 26.712,-6.4989 L 26.7009,-6.4989 L 26.6898,-6.4989 L 26.6787,-6.4989 L 26.6676,-6.4989 L 26.6565,-6.4989 L 26.6454,-6.4989 L 26.6342,-6.4989 L 26.6231,-6.4989 L 26.612,-6.4989 L 26.6009,-6.4989 L 26.5898,-6.4989 L 26.5787,-6.4989 L 26.5676,-6.4989 L 26.5565,-6.4989 L 26.5454,-6.4989 L 26.5342,-6.4989 L 26.5231,-6.4989 L 26.512,-6.4989 L 26.5009,-6.4989" />
    </g>
    <g fill="none" stroke="rgb(0,0,0)" stroke-width="0.2" id="Center" stroke-dasharray="6.35 1.27 1.27 1.27">
      <line x1="-0.0" y1="-0.4991" x2="-16.24" y2="-0.4991" />
      <line x1="-0.0" y1="-0.4991" x2="16.24" y2="-0.4991" />
      <line x1="-0.0" y1="-0.4991" x2="-0.0" y2="-16.7393" />
      <line x1="-0.0" y1="-0.4991" x2="-0.0" y2="15.7411" />
      <line x1="22.653" y1="-0.4989" x2="15.76" y2="-0.4989" />
      <line x1="22.653" y1="-0.4989" x2="29.546" y2="-0.4989" />
    </g>
  </g>
</svg>