<?xml version='1.0' encoding='utf-8'?>
<svg width="80.2831mm" height="50.8mm" viewBox="-25.4 -25.4 80.2831 50.8" version="1.1" xmlns="http://www.w3.org/2000/svg">
  <g transform="scale(1,-1)" stroke-linecap="round">
    <g fill="none" stroke="rgb(0,0,0)" stroke-width="0.4" id="Visible">
      <path d="M 0.0,20.0 L -1.7431,19.9239 L -3.473,19.6962 L -5.1764,19.3185 L -6.8404,18.7939 L -8.4524,18.1262 L -10.0,17.3205 L -11.4715,16.383 L -12.8558,15.3209 L -14.1421,14.1421 L -15.3209,12.8558 L -16.383,11.4715 L -17.3205,10.0 L -18.1262,8.4524 L -18.7939,6.8404 L -19.3185,5.1764 L -19.6962,3.473 L -19.9239,1.7431 L -20.0,-0.0 L -19.9239,-1.7431 L -19.6962,-3.473 L -19.3185,-5.1764 L -18.7939,-6.8404 L -18.1262,-8.4524 L -17.3205,-10.0 L -16.383,-11.4715 L -15.3209,-12.8558 L -14.1421,-14.1421 L -12.8558,-15.3209 L -11.4715,-16.383 L -10.0,-17.3205 L -8.4524,-18.1262 L -6.8404,-18.7939 L -5.1764,-19.3185 L -3.473,-19.6962 L -1.7431,-19.9239 L 0.0,-20.0 L 1.7431,-19.9239 L 3.473,-19.6962 L 5.1764,-19.3185 L 6.8404,-18.7939 L 8.4524,-18.1262 L 10.0,-17.3205 L 11.4715,-16.383 L 12.8558,-15.3209 L 14.1421,-14.1421 L 15.3209,-12.8558 L 16.383,-11.4715 L 17.3205,-10.0 L 18.1262,-8.4524 L 18.7939,-6.8404 L 19.3185,-5.1764 L 19.6962,-3.473 L 19.9239,-1.7431 L 20.0,0.0 L 19.9239,1.7431 L 19.6962,3.473 L 19.3185,5.1764 L 18.7939,6.8404 L 18.1262,8.4524 L 17.3205,10.0 L 16.383,11.4715 L 15.3209,12.8558 L 14.1421,14.1421 L 12.8558,15.3209 L 11.4715,16.383 L 10.0,17.3205 L 8.4524,18.1262 L 6.8404,18.7939 L 5.1764,19.3185 L 3.473,19.6962 L 1.7431,19.9239 L -0.0,20.0" />
      <path d="M 0.0,5.05 L -0.4401,5.0308 L -0.8769,4.9733 L -1.307,4.8779 L -1.7272,4.7454 L -2.1342,4.5769 L -2.525,4.3734 L -2.8966,4.1367 L -3.2461,3.8685 L -3.5709,3.5709 L -3.8685,3.2461 L -4.1367,2.8966 L -4.3734,2.525 L -4.5769,2.1342 L -4.7454,1.7272 L -4.8779,1.307 L -4.9733,0.8769 L -5.0308,0.4401 L -5.05,-0.0 L -5.0308,-0.4401 L -4.9733,-0.8769 L -4.8779,-1.307 L -4.7454,-1.7272 L -4.5769,-2.1342 L -4.3734,-2.525 L -4.1367,-2.8966 L -3.8685,-3.2461 L -3.5709,-3.5709 L -3.2461,-3.8685 L -2.8966,-4.1367 L -2.525,-4.3734 L -2.1342,-4.5769 L -1.7272,-4.7454 L -1.307,-4.8779 L -0.8769,-4.9733 L -0.4401,-5.0308 L 0.0,-5.05 L 0.4401,-5.0308 L 0.8769,-4.9733 L 1.307,-4.8779 L 1.7272,-4.7454 L 2.1342,-4.5769 L 2.525,-4.3734 L 2.8966,-4.1367 L 3.2461,-3.8685 L 3.5709,-3.5709 L 3.8685,-3.2461 L 4.1367,-2.8966 L 4.3734,-2.525 L 4.5769,-2.1342 L 4.7454,-1.7272 L 4.8779,-1.307 L 4.9733,-0.8769 L 5.0308,-0.4401 L 5.05,0.0 L 5.0308,0.4401 L 4.9733,0.8769 L 4.8779,1.307 L 4.7454,1.7272 L 4.5769,2.1342 L 4.3734,2.525 L 4.1367,2.8966 L 3.8685,3.2461 L 3.5709,3.5709 L 3.2461,3.8685 L 2.8966,4.1367 L 2.525,4.3734 L 2.1342,4.5769 L 1.7272,4.7454 L 1.307,4.8779 L 0.8769,4.9733 L 0.4401,5.0308 L -0.0,5.05" />
      <path d="M 24.3136,-20.0 L 24.2408,-19.4537 L 24.211,-18.8986 L 24.1886,-18.3432 L 24.1703,-17.7877 L 24.1544,-17.2321 L 24.1405,-16.6764 L 24.128,-16.1207 L 24.1167,-15.5649 L 24.1063,-15.0092 L 24.0969,-14.4534 L 24.0881,-13.8976 L 24.08,-13.3418 L 24.0725,-12.786 L 24.0655,-12.2301 L 24.059,-11.6743 L 24.0529,-11.1185 L 24.0473,-10.5626 L 24.0421,-10.0068 L 24.0372,-9.4509 L 24.0327,-8.8951 L 24.0286,-8.3392 L 24.0247,-7.7834 L 24.0212,-7.2275 L 24.018,-6.6716 L 24.015,-6.1158 L 24.0124,-5.5599 L 24.01,-5.004 L 24.0079,-4.4482 L 24.006,-3.8923 L 24.0044,-3.3364 L 24.003,-2.7805 L 24.0019,-2.2247 L 24.0011,-1.6688 L 24.0005,-1.1129 L 24.0001,-0.5571 L 24.0,-0.0012 L 24.0001,0.5547 L 24.0005,1.1106 L 24.0011,1.6664 L 24.0019,2.2223 L 24.003,2.7782 L 24.0044,3.3341 L 24.006,3.8899 L 24.0078,4.4458 L 24.01,5.0017 L 24.0124,5.5575 L 24.015,6.1134 L 24.018,6.6693 L 24.0212,7.2251 L 24.0247,7.781 L 24.0285,8.3369 L 24.0327,8.8927 L 24.0372,9.4486 L 24.0421,10.0044 L 24.0473,10.5603 L 24.0529,11.1161 L 24.059,11.672 L 24.0654,12.2278 L 24.0724,12.7836 L 24.08,13.3395 L 24.0881,13.8953 L 24.0968,14.4511 L 24.1063,15.0069 L 24.1166,15.5627 L 24.128,16.1185 L 24.1404,16.6742 L 24.1544,17.2299 L 24.1702,17.7856 L 24.1886,18.3412 L 24.2109,18.8966 L 24.2407,19.4517 L 24.3136,20.0" />
      <path d="M 39.3118,20.0 L 39.1035,20.0 L 38.8952,20.0 L 38.6869,20.0 L 38.4786,20.0 L 38.2703,20.0 L 38.0619,20.0 L 37.8536,20.0 L 37.6453,20.0 L 37.437,20.0 L 37.2287,20.0 L 37.0204,20.0 L 36.8121,20.0 L 36.6038,20.0 L 36.3955,20.0 L 36.1872,20.0 L 35.9789,20.0 L 35.7706,20.0 L 35.5623,20.0 L 35.3539,20.0 L 35.1456,20.0 L 34.9373,20.0 L 34.729,20.0 L 34.5207,20.0 L 34.3124,20.0 L 34.1041,20.0 L 33.8958,20.0 L 33.6875,20.0 L 33.4792,20.0 L 33.2709,20.0 L 33.0626,20.0 L 32.8543,20.0 L 32.6459,20.0 L 32.4376,20.0 L 32.2293,20.0 L 32.021,20.0 L 31.8127,20.0 L 31.6044,20.0 L 31.3961,20.0 L 31.1878,20.0 L 30.9795,20.0 L 30.7712,20.0 L 30.5629,20.0 L 30.3546,20.0 L 30.1463,20.0 L 29.9379,20.0 L 29.7296,20.0 L 29.5213,20.0 L 29.313,20.0 L 29.1047,20.0 L 28.8964,20.0 L 28.6881,20.0 L 28.4798,20.0 L 28.2715,20.0 L 28.0632,20.0 L 27.8549,20.0 L 27.6466,20.0 L 27.4383,20.0 L 27.2299,20.0 L 27.0216,20.0 L 26.8133,20.0 L 26.605,20.0 L 26.3967,20.0 L 26.1884,20.0 L 25.9801,20.0 L 25.7718,20.0 L 25.5635,20.0 L 25.3552,20.0 L 25.1469,20.0 L 24.9386,20.0 L 24.7303,20.0 L 24.5219,20.0 L 24.3136,20.0" />
      <path d="M 39.3118,20.0 L 39.3457,19.8825 L 39.3604,19.7582 L 39.3716,19.6336 L 39.3809,19.5087 L 39.389,19.3838 L 39.3964,19.2589 L 39.4031,19.1339 L 39.4093,19.0089 L 39.4151,18.8839 L 39.4206,18.7588 L 39.4257,18.6337 L 39.4306,18.5087 L 39.4353,18.3836 L 39.4398,18.2585 L 39.4441,18.1334 L 39.4482,18.0083 L 39.4522,17.8832 L 39.4561,17.7581 L 39.4598,17.633 L 39.4634,17.5079 L 39.4669,17.3828 L 39.4703,17.2576 L 39.4736,17.1325 L 39.4768,17.0074 L 39.48,16.8822 L 39.483,16.7571 L 39.486,16.632 L 39.4889,16.5068 L 39.4917,16.3817 L 39.4945,16.2566 L 39.4972,16.1314 L 39.4998,16.0063 L 39.5024,15.8811 L 39.505,15.756 L 39.5075,15.6309 L 39.5099,15.5057 L 39.5123,15.3806 L 39.5146,15.2554 L 39.5169,15.1303 L 39.5192,15.0051 L 39.5214,14.88 L 39.5235,14.7548 L 39.5256,14.6297 L 39.5277,14.5045 L 39.5298,14.3793 L 39.5318,14.2542 L 39.5338,14.129 L 39.5357,14.0039 L 39.5376,13.8787 L 39.5395,13.7536 L 39.5413,13.6284 L 39.5432,13.5032 L 39.5449,13.3781 L 39.5467,13.2529 L 39.5484,13.1278 L 39.5501,13.0026 L 39.5518,12.8774 L 39.5534,12.7523 L 39.555,12.6271 L 39.5566,12.502 L 39.5582,12.3768 L 39.5597,12.2516 L 39.5612,12.1265 L 39.5627,12.0013 L 39.5641,11.8762 L 39.5656,11.751 L 39.567,11.6258 L 39.5684,11.5007 L 39.5698,11.3755 L 39.5711,11.2503 L 39.5724,11.1252 L 39.5737,11.0" />
      <path d="M 39.5737,-11.0 L 39.5724,-11.1252 L 39.5711,-11.2503 L 39.5698,-11.3755 L 39.5684,-11.5006 L 39.567,-11.6258 L 39.5656,-11.751 L 39.5641,-11.8761 L 39.5627,-12.0013 L 39.5612,-12.1264 L 39.5597,-12.2516 L 39.5582,-12.3768 L 39.5566,-12.5019 L 39.555,-12.6271 L 39.5534,-12.7522 L 39.5518,-12.8774 L 39.5501,-13.0025 L 39.5484,-13.1277 L 39.5467,-13.2529 L 39.5449,-13.378 L 39.5432,-13.5032 L 39.5413,-13.6283 L 39.5395,-13.7535 L 39.5376,-13.8786 L 39.5357,-14.0038 L 39.5338,-14.1289 L 39.5318,-14.2541 L 39.5298,-14.3792 L 39.5277,-14.5044 L 39.5257,-14.6295 L 39.5235,-14.7547 L 39.5214,-14.8798 L 39.5192,-15.005 L 39.5169,-15.1301 L 39.5146,-15.2553 L 39.5123,-15.3804 L 39.5099,-15.5056 L 39.5075,-15.6307 L 39.505,-15.7559 L 39.5024,-15.881 L 39.4998,-16.0061 L 39.4972,-16.1313 L 39.4945,-16.2564 L 39.4917,-16.3816 L 39.4889,-16.5067 L 39.486,-16.6318 L 39.483,-16.757 L 39.48,-16.8821 L 39.4768,-17.0072 L 39.4736,-17.1323 L 39.4703,-17.2575 L 39.4669,-17.3826 L 39.4634,-17.5077 L 39.4598,-17.6328 L 39.4561,-17.7579 L 39.4522,-17.883 L 39.4482,-18.0081 L 39.4441,-18.1332 L 39.4398,-18.2583 L 39.4353,-18.3834 L 39.4306,-18.5085 L 39.4257,-18.6336 L 39.4206,-18.7586 L 39.4151,-18.8837 L 39.4093,-19.0087 L 39.4031,-19.1337 L 39.3964,-19.2587 L 39.3891,-19.3837 L 39.3809,-19.5086 L 39.3716,-19.6334 L 39.3604,-19.7581 L 39.3458,-19.8824 L 39.3118,-20.0" />
      <path d="M 39.3118,-20.0 L 39.239,-19.4537 L 39.2091,-18.8986 L 39.1868,-18.3432 L 39.1684,-17.7877 L 39.1526,-17.2321 L 39.1387,-16.6764 L 39.1262,-16.1207 L 39.1148,-15.5649 L 39.1045,-15.0092 L 39.095,-14.4534 L 39.0862,-13.8976 L 39.0781,-13.3418 L 39.0706,-12.786 L 39.0636,-12.2301 L 39.0571,-11.6743 L 39.0511,-11.1185 L 39.0455,-10.5626 L 39.0402,-10.0068 L 39.0354,-9.4509 L 39.0309,-8.8951 L 39.0267,-8.3392 L 39.0229,-7.7834 L 39.0194,-7.2275 L 39.0161,-6.6716 L 39.0132,-6.1158 L 39.0105,-5.5599 L 39.0081,-5.004 L 39.006,-4.4482 L 39.0042,-3.8923 L 39.0026,-3.3364 L 39.0012,-2.7805 L 39.0001,-2.2247 L 38.9992,-1.6688 L 38.9986,-1.1129 L 38.9983,-0.5571 L 38.9982,-0.0012 L 38.9983,0.5547 L 38.9986,1.1106 L 38.9992,1.6664 L 39.0001,2.2223 L 39.0012,2.7782 L 39.0025,3.3341 L 39.0041,3.8899 L 39.006,4.4458 L 39.0081,5.0017 L 39.0105,5.5575 L 39.0132,6.1134 L 39.0161,6.6693 L 39.0193,7.2251 L 39.0229,7.781 L 39.0267,8.3369 L 39.0309,8.8927 L 39.0354,9.4486 L 39.0402,10.0044 L 39.0454,10.5603 L 39.0511,11.1161 L 39.0571,11.672 L 39.0636,12.2278 L 39.0706,12.7836 L 39.0781,13.3395 L 39.0862,13.8953 L 39.095,14.4511 L 39.1045,15.0069 L 39.1148,15.5627 L 39.1261,16.1185 L 39.1386,16.6742 L 39.1525,17.2299 L 39.1683,17.7856 L 39.1867,18.3412 L 39.2091,18.8966 L 39.2389,19.4517 L 39.3118,20.0" />
      <path d="M 39.3118,-11.0 L 39.2717,-10.6995 L 39.2553,-10.3943 L 39.243,-10.0888 L 39.2329,-9.7832 L 39.2242,-9.4776 L 39.2166,-9.172 L 39.2097,-8.8664 L 39.2035,-8.5607 L 39.1978,-8.255 L 39.1926,-7.9494 L 39.1877,-7.6437 L 39.1833,-7.338 L 39.1791,-7.0323 L 39.1753,-6.7266 L 39.1717,-6.4209 L 39.1684,-6.1152 L 39.1653,-5.8094 L 39.1624,-5.5037 L 39.1598,-5.198 L 39.1573,-4.8923 L 39.155,-4.5866 L 39.1529,-4.2808 L 39.1509,-3.9751 L 39.1492,-3.6694 L 39.1476,-3.3637 L 39.1461,-3.0579 L 39.1448,-2.7522 L 39.1436,-2.4465 L 39.1426,-2.1408 L 39.1417,-1.835 L 39.141,-1.5293 L 39.1404,-1.2236 L 39.1399,-0.9178 L 39.1396,-0.6121 L 39.1394,-0.3064 L 39.1393,-0.0007 L 39.1394,0.3051 L 39.1396,0.6108 L 39.1399,0.9165 L 39.1404,1.2223 L 39.141,1.528 L 39.1417,1.8337 L 39.1426,2.1395 L 39.1436,2.4452 L 39.1448,2.7509 L 39.1461,3.0566 L 39.1475,3.3624 L 39.1492,3.6681 L 39.1509,3.9738 L 39.1529,4.2795 L 39.155,4.5853 L 39.1573,4.891 L 39.1598,5.1967 L 39.1624,5.5024 L 39.1653,5.8082 L 39.1684,6.1139 L 39.1717,6.4196 L 39.1753,6.7253 L 39.1791,7.031 L 39.1833,7.3367 L 39.1877,7.6424 L 39.1925,7.9481 L 39.1978,8.2538 L 39.2034,8.5595 L 39.2097,8.8652 L 39.2165,9.1708 L 39.2242,9.4765 L 39.2329,9.7821 L 39.243,10.0876 L 39.2553,10.3931 L 39.2717,10.6985 L 39.3118,11.0" />
      <path d="M 49.3106,5.05 L 49.3289,4.9121 L 49.3365,4.7719 L 49.3421,4.6317 L 49.3468,4.4914 L 49.3508,4.3511 L 49.3543,4.2108 L 49.3574,4.0705 L 49.3603,3.9301 L 49.3629,3.7898 L 49.3653,3.6495 L 49.3675,3.5091 L 49.3696,3.3688 L 49.3715,3.2285 L 49.3732,3.0881 L 49.3749,2.9478 L 49.3764,2.8074 L 49.3778,2.6671 L 49.3791,2.5267 L 49.3804,2.3864 L 49.3815,2.246 L 49.3825,2.1057 L 49.3835,1.9653 L 49.3844,1.8249 L 49.3852,1.6846 L 49.386,1.5442 L 49.3866,1.4039 L 49.3872,1.2635 L 49.3878,1.1232 L 49.3882,0.9828 L 49.3886,0.8424 L 49.389,0.7021 L 49.3893,0.5617 L 49.3895,0.4214 L 49.3896,0.281 L 49.3897,0.1407 L 49.3898,0.0003 L 49.3897,-0.1401 L 49.3896,-0.2804 L 49.3895,-0.4208 L 49.3893,-0.5611 L 49.389,-0.7015 L 49.3886,-0.8418 L 49.3882,-0.9822 L 49.3878,-1.1226 L 49.3872,-1.2629 L 49.3866,-1.4033 L 49.386,-1.5436 L 49.3852,-1.684 L 49.3844,-1.8243 L 49.3835,-1.9647 L 49.3825,-2.1051 L 49.3815,-2.2454 L 49.3804,-2.3858 L 49.3791,-2.5261 L 49.3778,-2.6665 L 49.3764,-2.8068 L 49.3749,-2.9472 L 49.3732,-3.0875 L 49.3715,-3.2279 L 49.3696,-3.3682 L 49.3675,-3.5086 L 49.3653,-3.6489 L 49.3629,-3.7892 L 49.3603,-3.9296 L 49.3574,-4.0699 L 49.3543,-4.2102 L 49.3508,-4.3506 L 49.3468,-4.4909 L 49.3421,-4.6311 L 49.3365,-4.7714 L 49.329,-4.9116 L 49.3106,-5.05" />
      <path d="M 49.3106,-5.05 L 49.2922,-4.9121 L 49.2846,-4.7719 L 49.279,-4.6317 L 49.2744,-4.4914 L 49.2704,-4.3511 L 49.2668,-4.2108 L 49.2637,-4.0705 L 49.2608,-3.9301 L 49.2582,-3.7898 L 49.2558,-3.6495 L 49.2536,-3.5091 L 49.2516,-3.3688 L 49.2497,-3.2285 L 49.2479,-3.0881 L 49.2463,-2.9478 L 49.2447,-2.8074 L 49.2433,-2.6671 L 49.242,-2.5267 L 49.2408,-2.3864 L 49.2396,-2.246 L 49.2386,-2.1057 L 49.2376,-1.9653 L 49.2367,-1.8249 L 49.2359,-1.6846 L 49.2352,-1.5442 L 49.2345,-1.4039 L 49.2339,-1.2635 L 49.2334,-1.1232 L 49.2329,-0.9828 L 49.2325,-0.8424 L 49.2321,-0.7021 L 49.2319,-0.5617 L 49.2316,-0.4214 L 49.2315,-0.281 L 49.2314,-0.1407 L 49.2314,-0.0003 L 49.2314,0.1401 L 49.2315,0.2804 L 49.2316,0.4208 L 49.2319,0.5611 L 49.2321,0.7015 L 49.2325,0.8418 L 49.2329,0.9822 L 49.2334,1.1226 L 49.2339,1.2629 L 49.2345,1.4033 L 49.2352,1.5436 L 49.2359,1.684 L 49.2367,1.8243 L 49.2376,1.9647 L 49.2386,2.1051 L 49.2396,2.2454 L 49.2408,2.3858 L 49.242,2.5261 L 49.2433,2.6665 L 49.2447,2.8068 L 49.2463,2.9472 L 49.2479,3.0875 L 49.2497,3.2279 L 49.2516,3.3682 L 49.2536,3.5086 L 49.2558,3.6489 L 49.2582,3.7892 L 49.2608,3.9296 L 49.2637,4.0699 L 49.2668,4.2102 L 49.2704,4.3506 L 49.2743,4.4909 L 49.279,4.6311 L 49.2846,4.7714 L 49.2921,4.9116 L 49.3106,5.05" />
      <path d="M 49.3106,11.0 L 49.1717,11.0 L 49.0328,11.0 L 48.8939,11.0 L 48.7551,11.0 L 48.6162,11.0 L 48.4773,11.0 L 48.3385,11.0 L 48.1996,11.0 L 48.0607,11.0 L 47.9218,11.0 L 47.783,11.0 L 47.6441,11.0 L 47.5052,11.0 L 47.3664,11.0 L 47.2275,11.0 L 47.0886,11.0 L 46.9497,11.0 L 46.8109,11.0 L 46.672,11.0 L 46.5331,11.0 L 46.3943,11.0 L 46.2554,11.0 L 46.1165,11.0 L 45.9776,11.0 L 45.8388,11.0 L 45.6999,11.0 L 45.561,11.0 L 45.4222,11.0 L 45.2833,11.0 L 45.1444,11.0 L 45.0055,11.0 L 44.8667,11.0 L 44.7278,11.0 L 44.5889,11.0 L 44.45,11.0 L 44.3112,11.0 L 44.1723,11.0 L 44.0334,11.0 L 43.8946,11.0 L 43.7557,11.0 L 43.6168,11.0 L 43.4779,11.0 L 43.3391,11.0 L 43.2002,11.0 L 43.0613,11.0 L 42.9225,11.0 L 42.7836,11.0 L 42.6447,11.0 L 42.5058,11.0 L 42.367,11.0 L 42.2281,11.0 L 42.0892,11.0 L 41.9504,11.0 L 41.8115,11.0 L 41.6726,11.0 L 41.5337,11.0 L 41.3949,11.0 L 41.256,11.0 L 41.1171,11.0 L 40.9783,11.0 L 40.8394,11.0 L 40.7005,11.0 L 40.5616,11.0 L 40.4228,11.0 L 40.2839,11.0 L 40.145,11.0 L 40.0062,11.0 L 39.8673,11.0 L 39.7284,11.0 L 39.5895,11.0 L 39.4507,11.0 L 39.3118,11.0" />
      <path d="M 49.3106,11.0 L 49.3506,10.6995 L 49.367,10.3943 L 49.3793,10.0888 L 49.3894,9.7832 L 49.3981,9.4776 L 49.4058,9.172 L 49.4127,8.8664 L 49.4189,8.5607 L 49.4246,8.255 L 49.4298,7.9494 L 49.4346,7.6437 L 49.4391,7.338 L 49.4432,7.0323 L 49.4471,6.7266 L 49.4506,6.4209 L 49.454,6.1152 L 49.457,5.8094 L 49.4599,5.5037 L 49.4626,5.198 L 49.4651,4.8923 L 49.4674,4.5866 L 49.4695,4.2808 L 49.4714,3.9751 L 49.4732,3.6694 L 49.4748,3.3637 L 49.4763,3.0579 L 49.4776,2.7522 L 49.4787,2.4465 L 49.4798,2.1408 L 49.4806,1.835 L 49.4814,1.5293 L 49.482,1.2236 L 49.4825,0.9178 L 49.4828,0.6121 L 49.483,0.3064 L 49.4831,0.0007 L 49.483,-0.3051 L 49.4828,-0.6108 L 49.4825,-0.9165 L 49.482,-1.2223 L 49.4814,-1.528 L 49.4806,-1.8337 L 49.4798,-2.1395 L 49.4787,-2.4452 L 49.4776,-2.7509 L 49.4763,-3.0566 L 49.4748,-3.3624 L 49.4732,-3.6681 L 49.4714,-3.9738 L 49.4695,-4.2795 L 49.4674,-4.5853 L 49.4651,-4.891 L 49.4626,-5.1967 L 49.4599,-5.5024 L 49.4571,-5.8082 L 49.454,-6.1139 L 49.4506,-6.4196 L 49.4471,-6.7253 L 49.4432,-7.031 L 49.4391,-7.3367 L 49.4346,-7.6424 L 49.4298,-7.9481 L 49.4246,-8.2538 L 49.4189,-8.5595 L 49.4127,-8.8652 L 49.4058,-9.1708 L 49.3982,-9.4765 L 49.3895,-9.7821 L 49.3793,-10.0876 L 49.3671,-10.3931 L 49.3507,-10.6985 L 49.3106,-11.0" />
      <path d="M 49.3106,-11.0 L 49.2705,-10.6995 L 49.2541,-10.3943 L 49.2418,-10.0888 L 49.2317,-9.7832 L 49.223,-9.4776 L 49.2153,-9.172 L 49.2085,-8.8664 L 49.2022,-8.5607 L 49.1966,-8.255 L 49.1913,-7.9494 L 49.1865,-7.6437 L 49.1821,-7.338 L 49.1779,-7.0323 L 49.1741,-6.7266 L 49.1705,-6.4209 L 49.1672,-6.1152 L 49.1641,-5.8094 L 49.1612,-5.5037 L 49.1585,-5.198 L 49.1561,-4.8923 L 49.1538,-4.5866 L 49.1517,-4.2808 L 49.1497,-3.9751 L 49.1479,-3.6694 L 49.1463,-3.3637 L 49.1449,-3.0579 L 49.1435,-2.7522 L 49.1424,-2.4465 L 49.1414,-2.1408 L 49.1405,-1.835 L 49.1397,-1.5293 L 49.1391,-1.2236 L 49.1387,-0.9178 L 49.1383,-0.6121 L 49.1381,-0.3064 L 49.1381,-0.0007 L 49.1381,0.3051 L 49.1383,0.6108 L 49.1387,0.9165 L 49.1391,1.2223 L 49.1397,1.528 L 49.1405,1.8337 L 49.1414,2.1395 L 49.1424,2.4452 L 49.1435,2.7509 L 49.1449,3.0566 L 49.1463,3.3624 L 49.1479,3.6681 L 49.1497,3.9738 L 49.1517,4.2795 L 49.1538,4.5853 L 49.1561,4.891 L 49.1585,5.1967 L 49.1612,5.5024 L 49.1641,5.8082 L 49.1672,6.1139 L 49.1705,6.4196 L 49.1741,6.7253 L 49.1779,7.031 L 49.182,7.3367 L 49.1865,7.6424 L 49.1913,7.9481 L 49.1965,8.2538 L 49.2022,8.5595 L 49.2084,8.8652 L 49.2153,9.1708 L 49.223,9.4765 L 49.2317,9.7821 L 49.2418,10.0876 L 49.2541,10.3931 L 49.2704,10.6985 L 49.3106,11.0" />
      <path d="M 39.3118,-20.0 L 39.1035,-20.0 L 38.8952,-20.0 L 38.6869,-20.0 L 38.4786,-20.0 L 38.2703,-20.0 L 38.0619,-20.0 L 37.8536,-20.0 L 37.6453,-20.0 L 37.437,-20.0 L 37.2287,-20.0 L 37.0204,-20.0 L 36.8121,-20.0 L 36.6038,-20.0 L 36.3955,-20.0 L 36.1872,-20.0 L 35.9789,-20.0 L 35.7706,-20.0 L 35.5623,-20.0 L 35.3539,-20.0 L 35.1456,-20.0 L 34.9373,-20.0 L 34.729,-20.0 L 34.5207,-20.0 L 34.3124,-20.0 L 34.1041,-20.0 L 33.8958,-20.0 L 33.6875,-20.0 L 33.4792,-20.0 L 33.2709,-20.0 L 33.0626,-20.0 L 32.8543,-20.0 L 32.6459,-20.0 L 32.4376,-20.0 L 32.2293,-20.0 L 32.021,-20.0 L 31.8127,-20.0 L 31.6044,-20.0 L 31.3961,-20.0 L 31.1878,-20.0 L 30.9795,-20.0 L 30.7712,-20.0 L 30.5629,-20.0 L 30.3546,-20.0 L 30.1463,-20.0 L 29.9379,-20.0 L 29.7296,-20.0 L 29.5213,-20.0 L 29.313,-20.0 L 29.1047,-20.0 L 28.8964,-20.0 L 28.6881,-20.0 L 28.4798,-20.0 L 28.2715,-20.0 L 28.0632,-20.0 L 27.8549,-20.0 L 27.6466,-20.0 L 27.4383,-20.0 L 27.2299,-20.0 L 27.0216,-20.0 L 26.8133,-20.0 L 26.605,-20.0 L 26.3967,-20.0 L 26.1884,-20.0 L 25.9801,-20.0 L 25.7718,-20.0 L 25.5635,-20.0 L 25.3552,-20.0 L 25.1469,-20.0 L 24.9386,-20.0 L 24.7303,-20.0 L 24.5219,-20.0 L 24.3136,-20.0" />
      <path d="M 49.3106,-11.0 L 49.1717,-11.0 L 49.0328,-11.0 L 48.8939,-11.0 L 48.7551,-11.0 L 48.6162,-11.0 L 48.4773,-11.0 L 48.3385,-11.0 L 48.1996,-11.0 L 48.0607,-11.0 L 47.9218,-11.0 L 47.783,-11.0 L 47.6441,-11.0 L 47.5052,-11.0 L 47.3664,-11.0 L 47.2275,-11.0 L 47.0886,-11.0 L 46.9497,-11.0 L 46.8109,-11.0 L 46.672,-11.0 L 46.5331,-11.0 L 46.3943,-11.0 L 46.2554,-11.0 L 46.1165,-11.0 L 45.9776,-11.0 L 45.8388,-11.0 L 45.6999,-11.0 L 45.561,-11.0 L 45.4222,-11.0 L 45.2833,-11.0 L 45.1444,-11.0 L 45.0055,-11.0 L 44.8667,-11.0 L 44.7278,-11.0 L 44.5889,-11.0 L 44.45,-11.0 L 44.3112,-11.0 L 44.1723,-11.0 L 44.0334,-11.0 L 43.8946,-11.0 L 43.7557,-11.0 L 43.6168,-11.0 L 43.4779,-11.0 L 43.3391,-11.0 L 43.2002,-11.0 L 43.0613,-11.0 L 42.9225,-11.0 L 42.7836,-11.0 L 42.6447,-11.0 L 42.5058,-11.0 L 42.367,-11.0 L 42.2281,-11.0 L 42.0892,-11.0 L 41.9504,-11.0 L 41.8115,-11.0 L 41.6726,-11.0 L 41.5337,-11.0 L 41.3949,-11.0 L 41.256,-11.0 L 41.1171,-11.0 L 40.9783,-11.0 L 40.8394,-11.0 L 40.7005,-11.0 L 40.5616,-11.0 L 40.4228,-11.0 L 40.2839,-11.0 L 40.145,-11.0 L 40.0062,-11.0 L 39.8673,-11.0 L 39.7284,-11.0 L 39.5895,-11.0 L 39.4507,-11.0 L 39.3118,-11.0" />
    </g>
    <g fill="none" stroke="rgb(110,110,110)" stroke-width="0.3" id="Hidden" stroke-dasharray="3.6 0.9">
      <path d="M 0.0,20.0 L -1.7431,19.9239 L -3.473,19.6962 L -5.1764,19.3185 L -6.8404,18.7939 L -8.4524,18.1262 L -10.0,17.3205 L -11.4715,16.383 L -12.8558,15.3209 L -14.1421,14.1421 L -15.3209,12.8558 L -16.383,11.4715 L -17.3205,10.0 L -18.1262,8.4524 L -18.7939,6.8404 L -19.3185,5.1764 L -19.6962,3.473 L -19.9239,1.7431 L -20.0,-0.0 L -19.9239,-1.7431 L -19.6962,-3.473 L -19.3185,-5.1764 L -18.7939,-6.8404 L -18.1262,-8.4524 L -17.3205,-10.0 L -16.383,-11.4715 L -15.3209,-12.8558 L -14.1421,-14.1421 L -12.8558,-15.3209 L -11.4715,-16.383 L -10.0,-17.3205 L -8.4524,-18.1262 L -6.8404,-18.7939 L -5.1764,-19.3185 L -3.473,-19.6962 L -1.7431,-19.9239 L 0.0,-20.0 L 1.7431,-19.9239 L 3.473,-19.6962 L 5.1764,-19.3185 L 6.8404,-18.7939 L 8.4524,-18.1262 L 10.0,-17.3205 L 11.4715,-16.383 L 12.8558,-15.3209 L 14.1421,-14.1421 L 15.3209,-12.8558 L 16.383,-11.4715 L 17.3205,-10.0 L 18.1262,-8.4524 L 18.7939,-6.8404 L 19.3185,-5.1764 L 19.6962,-3.473 L 19.9239,-1.7431 L 20.0,0.0 L 19.9239,1.7431 L 19.6962,3.473 L 19.3185,5.1764 L 18.7939,6.8404 L 18.1262,8.4524 L 17.3205,10.0 L 16.383,11.4715 L 15.3209,12.8558 L 14.1421,14.1421 L 12.8558,15.3209 L 11.4715,16.383 L 10.0,17.3205 L 8.4524,18.1262 L 6.8404,18.7939 L 5.1764,19.3185 L 3.473,19.6962 L 1.7431,19.9239 L -0.0,20.0" />
      <path d="M 0.0,11.0 L -0.9587,10.9581 L -1.9101,10.8329 L -2.847,10.6252 L -3.7622,10.3366 L -4.6488,9.9694 L -5.5,9.5263 L -6.3093,9.0107 L -7.0707,8.4265 L -7.7782,7.7782 L -8.4265,7.0707 L -9.0107,6.3093 L -9.5263,5.5 L -9.9694,4.6488 L -10.3366,3.7622 L -10.6252,2.847 L -10.8329,1.9101 L -10.9581,0.9587 L -11.0,-0.0 L -10.9581,-0.9587 L -10.8329,-1.9101 L -10.6252,-2.847 L -10.3366,-3.7622 L -9.9694,-4.6488 L -9.5263,-5.5 L -9.0107,-6.3093 L -8.4265,-7.0707 L -7.7782,-7.7782 L -7.0707,-8.4265 L -6.3093,-9.0107 L -5.5,-9.5263 L -4.6488,-9.9694 L -3.7622,-10.3366 L -2.847,-10.6252 L -1.9101,-10.8329 L -0.9587,-10.9581 L 0.0,-11.0 L 0.9587,-10.9581 L 1.9101,-10.8329 L 2.847,-10.6252 L 3.7622,-10.3366 L 4.6488,-9.9694 L 5.5,-9.5263 L 6.3093,-9.0107 L 7.0707,-8.4265 L 7.7782,-7.7782 L 8.4265,-7.0707 L 9.0107,-6.3093 L 9.5263,-5.5 L 9.9694,-4.6488 L 10.3366,-3.7622 L 10.6252,-2.847 L 10.8329,-1.9101 L 10.9581,-0.9587 L 11.0,0.0 L 10.9581,0.9587 L 10.8329,1.9101 L 10.6252,2.847 L 10.3366,3.7622 L 9.9694,4.6488 L 9.5263,5.5 L 9.0107,6.3093 L 8.4265,7.0707 L 7.7782,7.7782 L 7.0707,8.4265 L 6.3093,9.0107 L 5.5,9.5263 L 4.6488,9.9694 L 3.7622,10.3366 L 2.847,10.6252 L 1.9101,10.8329 L 0.9587,10.9581 L -0.0,11.0" />
      <path d="M 0.0,5.05 L -0.4401,5.0308 L -0.8769,4.9733 L -1.307,4.8779 L -1.7272,4.7454 L -2.1342,4.5769 L -2.525,4.3734 L -2.8966,4.1367 L -3.2461,3.8685 L -3.5709,3.5709 L -3.8685,3.2461 L -4.1367,2.8966 L -4.3734,2.525 L -4.5769,2.1342 L -4.7454,1.7272 L -4.8779,1.307 L -4.9733,0.8769 L -5.0308,0.4401 L -5.05,-0.0 L -5.0308,-0.4401 L -4.9733,-0.8769 L -4.8779,-1.307 L -4.7454,-1.7272 L -4.5769,-2.1342 L -4.3734,-2.525 L -4.1367,-2.8966 L -3.8685,-3.2461 L -3.5709,-3.5709 L -3.2461,-3.8685 L -2.8966,-4.1367 L -2.525,-4.3734 L -2.1342,-4.5769 L -1.7272,-4.7454 L -1.307,-4.8779 L -0.8769,-4.9733 L -0.4401,-5.0308 L 0.0,-5.05 L 0.4401,-5.0308 L 0.8769,-4.9733 L 1.307,-4.8779 L 1.7272,-4.7454 L 2.1342,-4.5769 L 2.525,-4.3734 L 2.8966,-4.1367 L 3.2461,-3.8685 L 3.5709,-3.5709 L 3.8685,-3.2461 L 4.1367,-2.8966 L 4.3734,-2.525 L 4.5769,-2.1342 L 4.7454,-1.7272 L 4.8779,-1.307 L 4.9733,-0.8769 L 5.0308,-0.4401 L 5.05,0.0 L 5.0308,0.4401 L 4.9733,0.8769 L 4.8779,1.307 L 4.7454,1.7272 L 4.5769,2.1342 L 4.3734,2.525 L 4.1367,2.8966 L 3.8685,3.2461 L 3.5709,3.5709 L 3.2461,3.8685 L 2.8966,4.1367 L 2.525,4.3734 L 2.1342,4.5769 L 1.7272,4.7454 L 1.307,4.8779 L 0.8769,4.9733 L 0.4401,5.0308 L -0.0,5.05" />
      <path d="M 0.0,11.0 L -0.9587,10.9581 L -1.9101,10.8329 L -2.847,10.6252 L -3.7622,10.3366 L -4.6488,9.9694 L -5.5,9.5263 L -6.3093,9.0107 L -7.0707,8.4265 L -7.7782,7.7782 L -8.4265,7.0707 L -9.0107,6.3093 L -9.5263,5.5 L -9.9694,4.6488 L -10.3366,3.7622 L -10.6252,2.847 L -10.8329,1.9101 L -10.9581,0.9587 L -11.0,-0.0 L -10.9581,-0.9587 L -10.8329,-1.9101 L -10.6252,-2.847 L -10.3366,-3.7622 L -9.9694,-4.6488 L -9.5263,-5.5 L -9.0107,-6.3093 L -8.4265,-7.0707 L -7.7782,-7.7782 L -7.0707,-8.4265 L -6.3093,-9.0107 L -5.5,-9.5263 L -4.6488,-9.9694 L -3.7622,-10.3366 L -2.847,-10.6252 L -1.9101,-10.8329 L -0.9587,-10.9581 L 0.0,-11.0 L 0.9587,-10.9581 L 1.9101,-10.8329 L 2.847,-10.6252 L 3.7622,-10.3366 L 4.6488,-9.9694 L 5.5,-9.5263 L 6.3093,-9.0107 L 7.0707,-8.4265 L 7.7782,-7.7782 L 8.4265,-7.0707 L 9.0107,-6.3093 L 9.5263,-5.5 L 9.9694,-4.6488 L 10.3366,-3.7622 L 10.6252,-2.847 L 10.8329,-1.9101 L 10.9581,-0.9587 L 11.0,0.0 L 10.9581,0.9587 L 10.8329,1.9101 L 10.6252,2.847 L 10.3366,3.7622 L 9.9694,4.6488 L 9.5263,5.5 L 9.0107,6.3093 L 8.4265,7.0707 L 7.7782,7.7782 L 7.0707,8.4265 L 6.3093,9.0107 L 5.5,9.5263 L 4.6488,9.9694 L 3.7622,10.3366 L 2.847,10.6252 L 1.9101,10.8329 L 0.9587,10.9581 L -0.0,11.0" />
      <path d="M 24.3136,20.0 L 24.3864,19.4537 L 24.4163,18.8986 L 24.4386,18.3432 L 24.457,17.7877 L 24.4728,17.2321 L 24.4868,16.6764 L 24.4993,16.1207 L 24.5106,15.5649 L 24.5209,15.0092 L 24.5304,14.4534 L 24.5392,13.8976 L 24.5473,13.3418 L 24.5548,12.786 L 24.5618,12.2301 L 24.5683,11.6743 L 24.5743,11.1185 L 24.58,10.5626 L 24.5852,10.0068 L 24.59,9.4509 L 24.5945,8.8951 L 24.5987,8.3392 L 24.6025,7.7834 L 24.6061,7.2275 L 24.6093,6.6716 L 24.6122,6.1158 L 24.6149,5.5599 L 24.6173,5.004 L 24.6194,4.4482 L 24.6213,3.8923 L 24.6229,3.3364 L 24.6242,2.7805 L 24.6253,2.2247 L 24.6262,1.6688 L 24.6268,1.1129 L 24.6272,0.5571 L 24.6273,0.0012 L 24.6272,-0.5547 L 24.6268,-1.1106 L 24.6262,-1.6664 L 24.6253,-2.2223 L 24.6242,-2.7782 L 24.6229,-3.3341 L 24.6213,-3.8899 L 24.6194,-4.4458 L 24.6173,-5.0017 L 24.6149,-5.5575 L 24.6123,-6.1134 L 24.6093,-6.6693 L 24.6061,-7.2251 L 24.6026,-7.781 L 24.5987,-8.3369 L 24.5946,-8.8927 L 24.5901,-9.4486 L 24.5852,-10.0044 L 24.58,-10.5603 L 24.5744,-11.1161 L 24.5683,-11.672 L 24.5618,-12.2278 L 24.5548,-12.7836 L 24.5473,-13.3395 L 24.5392,-13.8953 L 24.5305,-14.4511 L 24.521,-15.0069 L 24.5106,-15.5627 L 24.4993,-16.1185 L 24.4868,-16.6742 L 24.4729,-17.2299 L 24.4571,-17.7856 L 24.4387,-18.3412 L 24.4164,-18.8966 L 24.3866,-19.4517 L 24.3136,-20.0" />
      <path d="M 39.5737,11.0 L 39.5768,10.6945 L 39.5798,10.3889 L 39.5827,10.0834 L 39.5854,9.7778 L 39.588,9.4723 L 39.5905,9.1667 L 39.593,8.8612 L 39.5953,8.5556 L 39.5975,8.2501 L 39.5996,7.9445 L 39.6016,7.639 L 39.6036,7.3334 L 39.6054,7.0278 L 39.6072,6.7223 L 39.6088,6.4167 L 39.6104,6.1112 L 39.6119,5.8056 L 39.6133,5.5001 L 39.6147,5.1945 L 39.6159,4.889 L 39.6171,4.5834 L 39.6182,4.2778 L 39.6192,3.9723 L 39.6201,3.6667 L 39.621,3.3612 L 39.6217,3.0556 L 39.6224,2.75 L 39.6231,2.4445 L 39.6236,2.1389 L 39.6241,1.8334 L 39.6245,1.5278 L 39.6248,1.2222 L 39.6251,0.9167 L 39.6253,0.6111 L 39.6254,0.3056 L 39.6254,0.0 L 39.6254,-0.3056 L 39.6253,-0.6111 L 39.6251,-0.9167 L 39.6248,-1.2222 L 39.6245,-1.5278 L 39.6241,-1.8334 L 39.6236,-2.1389 L 39.6231,-2.4445 L 39.6224,-2.75 L 39.6217,-3.0556 L 39.621,-3.3612 L 39.6201,-3.6667 L 39.6192,-3.9723 L 39.6182,-4.2778 L 39.6171,-4.5834 L 39.6159,-4.889 L 39.6147,-5.1945 L 39.6133,-5.5001 L 39.6119,-5.8056 L 39.6104,-6.1112 L 39.6088,-6.4167 L 39.6072,-6.7223 L 39.6054,-7.0278 L 39.6036,-7.3334 L 39.6016,-7.639 L 39.5996,-7.9445 L 39.5975,-8.2501 L 39.5953,-8.5556 L 39.593,-8.8612 L 39.5905,-9.1667 L 39.588,-9.4723 L 39.5854,-9.7778 L 39.5827,-10.0834 L 39.5798,-10.3889 L 39.5768,-10.6945 L 39.5737,-11.0" />
      <path d="M 24.3136,5.05 L 24.332,4.9121 L 24.3396,4.7719 L 24.3452,4.6317 L 24.3498,4.4914 L 24.3538,4.3511 L 24.3574,4.2108 L 24.3605,4.0705 L 24.3634,3.9301 L 24.366,3.7898 L 24.3684,3.6495 L 24.3706,3.5091 L 24.3726,3.3688 L 24.3745,3.2285 L 24.3763,3.0881 L 24.3779,2.9478 L 24.3795,2.8074 L 24.3809,2.6671 L 24.3822,2.5267 L 24.3834,2.3864 L 24.3846,2.246 L 24.3856,2.1057 L 24.3866,1.9653 L 24.3875,1.8249 L 24.3883,1.6846 L 24.389,1.5442 L 24.3897,1.4039 L 24.3903,1.2635 L 24.3908,1.1232 L 24.3913,0.9828 L 24.3917,0.8424 L 24.3921,0.7021 L 24.3923,0.5617 L 24.3926,0.4214 L 24.3927,0.281 L 24.3928,0.1407 L 24.3928,0.0003 L 24.3928,-0.1401 L 24.3927,-0.2804 L 24.3926,-0.4208 L 24.3923,-0.5611 L 24.3921,-0.7015 L 24.3917,-0.8418 L 24.3913,-0.9822 L 24.3908,-1.1226 L 24.3903,-1.2629 L 24.3897,-1.4033 L 24.389,-1.5436 L 24.3883,-1.684 L 24.3875,-1.8243 L 24.3866,-1.9647 L 24.3856,-2.1051 L 24.3846,-2.2454 L 24.3834,-2.3858 L 24.3822,-2.5261 L 24.3809,-2.6665 L 24.3795,-2.8068 L 24.3779,-2.9472 L 24.3763,-3.0875 L 24.3745,-3.2279 L 24.3726,-3.3682 L 24.3706,-3.5086 L 24.3684,-3.6489 L 24.366,-3.7892 L 24.3634,-3.9296 L 24.3605,-4.0699 L 24.3574,-4.2102 L 24.3538,-4.3506 L 24.3499,-4.4909 L 24.3452,-4.6311 L 24.3396,-4.7714 L 24.3321,-4.9116 L 24.3136,-5.05" />
      <path d="M 24.3136,-5.05 L 24.2953,-4.9121 L 24.2877,-4.7719 L 24.2821,-4.6317 L 24.2774,-4.4914 L 24.2734,-4.3511 L 24.2699,-4.2108 L 24.2668,-4.0705 L 24.2639,-3.9301 L 24.2613,-3.7898 L 24.2589,-3.6495 L 24.2567,-3.5091 L 24.2546,-3.3688 L 24.2527,-3.2285 L 24.251,-3.0881 L 24.2493,-2.9478 L 24.2478,-2.8074 L 24.2464,-2.6671 L 24.2451,-2.5267 L 24.2438,-2.3864 L 24.2427,-2.246 L 24.2417,-2.1057 L 24.2407,-1.9653 L 24.2398,-1.8249 L 24.239,-1.6846 L 24.2382,-1.5442 L 24.2376,-1.4039 L 24.237,-1.2635 L 24.2364,-1.1232 L 24.236,-0.9828 L 24.2356,-0.8424 L 24.2352,-0.7021 L 24.2349,-0.5617 L 24.2347,-0.4214 L 24.2346,-0.281 L 24.2345,-0.1407 L 24.2344,-0.0003 L 24.2345,0.1401 L 24.2346,0.2804 L 24.2347,0.4208 L 24.2349,0.5611 L 24.2352,0.7015 L 24.2356,0.8418 L 24.236,0.9822 L 24.2364,1.1226 L 24.237,1.2629 L 24.2376,1.4033 L 24.2382,1.5436 L 24.239,1.684 L 24.2398,1.8243 L 24.2407,1.9647 L 24.2417,2.1051 L 24.2427,2.2454 L 24.2438,2.3858 L 24.2451,2.5261 L 24.2464,2.6665 L 24.2478,2.8068 L 24.2493,2.9472 L 24.251,3.0875 L 24.2527,3.2279 L 24.2546,3.3682 L 24.2567,3.5086 L 24.2589,3.6489 L 24.2613,3.7892 L 24.2639,3.9296 L 24.2668,4.0699 L 24.2699,4.2102 L 24.2734,4.3506 L 24.2774,4.4909 L 24.2821,4.6311 L 24.2877,4.7714 L 24.2952,4.9116 L 24.3136,5.05" />
      <path d="M 39.3118,11.0 L 39.3518,10.6995 L 39.3682,10.3943 L 39.3805,10.0888 L 39.3907,9.7832 L 39.3993,9.4776 L 39.407,9.172 L 39.4139,8.8664 L 39.4201,8.5607 L 39.4258,8.255 L 39.431,7.9494 L 39.4358,7.6437 L 39.4403,7.338 L 39.4444,7.0323 L 39.4483,6.7266 L 39.4519,6.4209 L 39.4552,6.1152 L 39.4583,5.8094 L 39.4611,5.5037 L 39.4638,5.198 L 39.4663,4.8923 L 39.4686,4.5866 L 39.4707,4.2808 L 39.4726,3.9751 L 39.4744,3.6694 L 39.476,3.3637 L 39.4775,3.0579 L 39.4788,2.7522 L 39.48,2.4465 L 39.481,2.1408 L 39.4819,1.835 L 39.4826,1.5293 L 39.4832,1.2236 L 39.4837,0.9178 L 39.484,0.6121 L 39.4842,0.3064 L 39.4843,0.0007 L 39.4842,-0.3051 L 39.484,-0.6108 L 39.4837,-0.9165 L 39.4832,-1.2223 L 39.4826,-1.528 L 39.4819,-1.8337 L 39.481,-2.1395 L 39.48,-2.4452 L 39.4788,-2.7509 L 39.4775,-3.0566 L 39.476,-3.3624 L 39.4744,-3.6681 L 39.4726,-3.9738 L 39.4707,-4.2795 L 39.4686,-4.5853 L 39.4663,-4.891 L 39.4638,-5.1967 L 39.4612,-5.5024 L 39.4583,-5.8082 L 39.4552,-6.1139 L 39.4519,-6.4196 L 39.4483,-6.7253 L 39.4445,-7.031 L 39.4403,-7.3367 L 39.4359,-7.6424 L 39.431,-7.9481 L 39.4258,-8.2538 L 39.4201,-8.5595 L 39.4139,-8.8652 L 39.407,-9.1708 L 39.3994,-9.4765 L 39.3907,-9.7821 L 39.3806,-10.0876 L 39.3683,-10.3931 L 39.3519,-10.6985 L 39.3118,-11.0" />
      <path d="M 49.3106,5.05 L 48.9634,5.05 L 48.6162,5.05 L 48.269,5.05 L 47.9218,5.05 L 47.5747,5.05 L 47.2275,5.05 L 46.8803,5.05 L 46.5331,5.05 L 46.1859,5.05 L 45.8388,5.05 L 45.4916,5.05 L 45.1444,5.05 L 44.7972,5.05 L 44.45,5.05 L 44.1029,5.05 L 43.7557,5.05 L 43.4085,5.05 L 43.0613,5.05 L 42.7142,5.05 L 42.367,5.05 L 42.0198,5.05 L 41.6726,5.05 L 41.3254,5.05 L 40.9783,5.05 L 40.6311,5.05 L 40.2839,5.05 L 39.9367,5.05 L 39.5895,5.05 L 39.2424,5.05 L 38.8952,5.05 L 38.548,5.05 L 38.2008,5.05 L 37.8536,5.05 L 37.5065,5.05 L 37.1593,5.05 L 36.8121,5.05 L 36.4649,5.05 L 36.1177,5.05 L 35.7706,5.05 L 35.4234,5.05 L 35.0762,5.05 L 34.729,5.05 L 34.3818,5.05 L 34.0347,5.05 L 33.6875,5.05 L 33.3403,5.05 L 32.9931,5.05 L 32.6459,5.05 L 32.2988,5.05 L 31.9516,5.05 L 31.6044,5.05 L 31.2572,5.05 L 30.91,5.05 L 30.5629,5.05 L 30.2157,5.05 L 29.8685,5.05 L 29.5213,5.05 L 29.1741,5.05 L 28.827,5.05 L 28.4798,5.05 L 28.1326,5.05 L 27.7854,5.05 L 27.4383,5.05 L 27.0911,5.05 L 26.7439,5.05 L 26.3967,5.05 L 26.0495,5.05 L 25.7024,5.05 L 25.3552,5.05 L 25.008,5.05 L 24.6608,5.05 L 24.3136,5.05" />
      <path d="M 49.3106,-5.05 L 48.9634,-5.05 L 48.6162,-5.05 L 48.269,-5.05 L 47.9218,-5.05 L 47.5747,-5.05 L 47.2275,-5.05 L 46.8803,-5.05 L 46.5331,-5.05 L 46.1859,-5.05 L 45.8388,-5.05 L 45.4916,-5.05 L 45.1444,-5.05 L 44.7972,-5.05 L 44.45,-5.05 L 44.1029,-5.05 L 43.7557,-5.05 L 43.4085,-5.05 L 43.0613,-5.05 L 42.7142,-5.05 L 42.367,-5.05 L 42.0198,-5.05 L 41.6726,-5.05 L 41.3254,-5.05 L 40.9783,-5.05 L 40.6311,-5.05 L 40.2839,-5.05 L 39.9367,-5.05 L 39.5895,-5.05 L 39.2424,-5.05 L 38.8952,-5.05 L 38.548,-5.05 L 38.2008,-5.05 L 37.8536,-5.05 L 37.5065,-5.05 L 37.1593,-5.05 L 36.8121,-5.05 L 36.4649,-5.05 L 36.1177,-5.05 L 35.7706,-5.05 L 35.4234,-5.05 L 35.0762,-5.05 L 34.729,-5.05 L 34.3818,-5.05 L 34.0347,-5.05 L 33.6875,-5.05 L 33.3403,-5.05 L 32.9931,-5.05 L 32.6459,-5.05 L 32.2988,-5.05 L 31.9516,-5.05 L 31.6044,-5.05 L 31.2572,-5.05 L 30.91,-5.05 L 30.5629,-5.05 L 30.2157,-5.05 L 29.8685,-5.05 L 29.5213,-5.05 L 29.1741,-5.05 L 28.827,-5.05 L 28.4798,-5.05 L 28.1326,-5.05 L 27.7854,-5.05 L 27.4383,-5.05 L 27.0911,-5.05 L 26.7439,-5.05 L 26.3967,-5.05 L 26.0495,-5.05 L 25.7024,-5.05 L 25.3552,-5.05 L 25.008,-5.05 L 24.6608,-5.05 L 24.3136,-5.05" />
    </g>
    <g fill="none" stroke="rgb(0,0,0)" stroke-width="0.2" id="Center" stroke-dasharray="6.35 1.27 1.27 1.27">
      <line x1="0.0" y1="0.0" x2="-23.2" y2="0.0" />
      <line x1="0.0" y1="0.0" x2="23.2" y2="0.0" />
      <line x1="0.0" y1="0.0" x2="0.0" y2="-23.2" />
      <line x1="0.0" y1="0.0" x2="0.0" y2="23.2" />
      <line x1="36.7415" y1="0.0" x2="20.8" y2="0.0" />
      <line x1="36.7415" y1="0.0" x2="52.6831" y2="0.0" />
    </g>
  </g>
</svg>