<?xml version='1.0' encoding='utf-8'?>
<svg width="44.1136mm" height="39.2094mm" viewBox="-17.6 -17.675 44.1136 39.2094" version="1.1" xmlns="http://www.w3.org/2000/svg">
  <g transform="scale(1,-1)" stroke-linecap="round">
    <g fill="none" stroke="rgb(0,0,0)" stroke-width="0.4" id="Visible">
      <path d="M 13.0,-16.9344 L 12.6389,-16.9344 L 12.2778,-16.9344 L 11.9167,-16.9344 L 11.5556,-16.9344 L 11.1944,-16.9344 L 10.8333,-16.9344 L 10.4722,-16.9344 L 10.1111,-16.9344 L 9.75,-16.9344 L 9.3889,-16.9344 L 9.0278,-16.9344 L 8.6667,-16.9344 L 8.3056,-16.9344 L 7.9444,-16.9344 L 7.5833,-16.9344 L 7.2222,-16.9344 L 6.8611,-16.9344 L 6.5,-16.9344 L 6.1389,-16.9344 L 5.7778,-16.9344 L 5.4167,-16.9344 L 5.0556,-16.9344 L 4.6944,-16.9344 L 4.3333,-16.9344 L 3.9722,-16.9344 L 3.6111,-16.9344 L 3.25,-16.9344 L 2.8889,-16.9344 L 2.5278,-16.9344 L 2.1667,-16.9344 L 1.8056,-16.9344 L 1.4444,-16.9344 L 1.0833,-16.9344 L 0.7222,-16.9344 L 0.3611,-16.9344 L 0.0,-16.9344 L -0.3611,-16.9344 L -0.7222,-16.9344 L -1.0833,-16.9344 L -1.4444,-16.9344 L -1.8056,-16.9344 L -2.1667,-16.9344 L -2.5278,-16.9344 L -2.8889,-16.9344 L -3.25,-16.9344 L -3.6111,-16.9344 L -3.9722,-16.9344 L -4.3333,-16.9344 L -4.6944,-16.9344 L -5.0556,-16.9344 L -5.4167,-16.9344 L -5.7778,-16.9344 L -6.1389,-16.9344 L -6.5,-16.9344 L -6.8611,-16.9344 L -7.2222,-16.9344 L -7.5833,-16.9344 L -7.9444,-16.9344 L -8.3056,-16.9344 L -8.6667,-16.9344 L -9.0278,-16.9344 L -9.3889,-16.9344 L -9.75,-16.9344 L -10.1111,-16.9344 L -10.4722,-16.9344 L -10.8333,-16.9344 L -11.1944,-16.9344 L -11.5556,-16.9344 L -11.9167,-16.9344 L -12.2778,-16.9344 L -12.6389,-16.9344 L -13.0,-16.9344" />
      <path d="M 0.0,4.8155 L -0.1472,4.8139 L -0.2943,4.8091 L -0.4413,4.8011 L -0.5881,4.7899 L -0.7346,4.7754 L -0.8808,4.7578 L -1.0265,4.737 L -1.1717,4.7131 L -1.3164,4.6859 L -1.4605,4.6556 L -1.6038,4.6222 L -1.7465,4.5857 L -1.8882,4.5461 L -2.0291,4.5033 L -2.169,4.4576 L -2.3079,4.4087 L -2.4457,4.3569 L -2.5823,4.3021 L -2.7177,4.2443 L -2.8518,4.1835 L -2.9845,4.1199 L -3.1158,4.0534 L -3.2457,3.984 L -3.374,3.9118 L -3.5007,3.8368 L -3.6257,3.7591 L -3.749,3.6787 L -3.8705,3.5956 L -3.9902,3.5099 L -4.108,3.4216 L -4.2238,3.3307 L -4.3376,3.2374 L -4.4494,3.1415 L -4.559,3.0433 L -4.6665,2.9427 L -4.7717,2.8398 L -4.8747,2.7346 L -4.9753,2.6272 L -5.0736,2.5176 L -5.1695,2.4059 L -5.2629,2.2921 L -5.3539,2.1763 L -5.4422,2.0586 L -5.528,1.939 L -5.6112,1.8175 L -5.6917,1.6942 L -5.7694,1.5693 L -5.8445,1.4426 L -5.9167,1.3143 L -5.9862,1.1845 L -6.0528,1.0533 L -6.1165,0.9206 L -6.1773,0.7865 L -6.2352,0.6511 L -6.2901,0.5145 L -6.342,0.3768 L -6.3909,0.2379 L -6.4367,0.0981 L -6.4795,-0.0428 L -6.5192,-0.1846 L -6.5558,-0.3271 L -6.5893,-0.4705 L -6.6197,-0.6145 L -6.6469,-0.7592 L -6.6709,-0.9044 L -6.6918,-1.0502 L -6.7095,-1.1963 L -6.724,-1.3428 L -6.7353,-1.4896 L -6.7434,-1.6366 L -6.7483,-1.7837 L -6.75,-1.9309" />
      <path d="M 6.75,-1.9309 L 6.7483,-1.7837 L 6.7434,-1.6366 L 6.7353,-1.4896 L 6.724,-1.3428 L 6.7095,-1.1963 L 6.6918,-1.0502 L 6.6709,-0.9044 L 6.6469,-0.7592 L 6.6197,-0.6145 L 6.5893,-0.4705 L 6.5558,-0.3271 L 6.5192,-0.1846 L 6.4795,-0.0428 L 6.4367,0.0981 L 6.3909,0.2379 L 6.342,0.3768 L 6.2901,0.5145 L 6.2352,0.6511 L 6.1773,0.7865 L 6.1165,0.9206 L 6.0528,1.0533 L 5.9862,1.1845 L 5.9167,1.3143 L 5.8445,1.4426 L 5.7694,1.5693 L 5.6917,1.6942 L 5.6112,1.8175 L 5.528,1.939 L 5.4422,2.0586 L 5.3539,2.1763 L 5.2629,2.2921 L 5.1695,2.4059 L 5.0736,2.5176 L 4.9753,2.6272 L 4.8747,2.7346 L 4.7717,2.8398 L 4.6665,2.9427 L 4.559,3.0433 L 4.4494,3.1415 L 4.3376,3.2374 L 4.2238,3.3307 L 4.108,3.4216 L 3.9902,3.5099 L 3.8705,3.5956 L 3.749,3.6787 L 3.6257,3.7591 L 3.5007,3.8368 L 3.374,3.9118 L 3.2457,3.984 L 3.1158,4.0534 L 2.9845,4.1199 L 2.8518,4.1835 L 2.7177,4.2443 L 2.5823,4.3021 L 2.4457,4.3569 L 2.3079,4.4087 L 2.169,4.4576 L 2.0291,4.5033 L 1.8882,4.5461 L 1.7465,4.5857 L 1.6038,4.6222 L 1.4605,4.6556 L 1.3164,4.6859 L 1.1717,4.7131 L 1.0265,4.737 L 0.8808,4.7578 L 0.7346,4.7754 L 0.5881,4.7899 L 0.4413,4.8011 L 0.2943,4.8091 L 0.1472,4.8139 L -0.0,4.8155" />
      <path d="M -13.0,13.075 L -13.0,12.6582 L -13.0,12.2415 L -13.0,11.8248 L -13.0,11.4081 L -13.0,10.9913 L -13.0,10.5746 L -13.0,10.1579 L -13.0,9.7411 L -13.0,9.3244 L -13.0,8.9077 L -13.0,8.4909 L -13.0,8.0742 L -13.0,7.6575 L -13.0,7.2408 L -13.0,6.824 L -13.0,6.4073 L -13.0,5.9906 L -13.0,5.5738 L -13.0,5.1571 L -13.0,4.7404 L -13.0,4.3236 L -13.0,3.9069 L -13.0,3.4902 L -13.0,3.0734 L -13.0,2.6567 L -13.0,2.24 L -13.0,1.8233 L -13.0,1.4065 L -13.0,0.9898 L -13.0,0.5731 L -13.0,0.1563 L -13.0,-0.2604 L -13.0,-0.6771 L -13.0,-1.0939 L -13.0,-1.5106 L -13.0,-1.9273 L -13.0,-2.344 L -13.0,-2.7608 L -13.0,-3.1775 L -13.0,-3.5942 L -13.0,-4.011 L -13.0,-4.4277 L -13.0,-4.8444 L -13.0,-5.2612 L -13.0,-5.6779 L -13.0,-6.0946 L -13.0,-6.5113 L -13.0,-6.9281 L -13.0,-7.3448 L -13.0,-7.7615 L -13.0,-8.1783 L -13.0,-8.595 L -13.0,-9.0117 L -13.0,-9.4285 L -13.0,-9.8452 L -13.0,-10.2619 L -13.0,-10.6786 L -13.0,-11.0954 L -13.0,-11.5121 L -13.0,-11.9288 L -13.0,-12.3456 L -13.0,-12.7623 L -13.0,-13.179 L -13.0,-13.5958 L -13.0,-14.0125 L -13.0,-14.4292 L -13.0,-14.846 L -13.0,-15.2627 L -13.0,-15.6794 L -13.0,-16.0961 L -13.0,-16.5129 L -13.0,-16.9296" />
      <path d="M -13.0,-16.9296 L -13.0,-16.9297 L -13.0,-16.9298 L -13.0,-16.9299 L -13.0,-16.93 L -13.0,-16.9301 L -13.0,-16.9302 L -13.0,-16.9303 L -13.0,-16.9304 L -13.0,-16.9305 L -13.0,-16.9306 L -13.0,-16.9307 L -13.0,-16.9308 L -13.0,-16.9309 L -13.0,-16.931 L -13.0,-16.9311 L -13.0,-16.9312 L -13.0,-16.9313 L -13.0,-16.9314 L -13.0,-16.9315 L -13.0,-16.9316 L -13.0,-16.9317 L -13.0,-16.9318 L -13.0,-16.9319 L -13.0,-16.932 L -13.0,-16.9321 L -13.0,-16.9322 L -13.0,-16.9323 L -13.0,-16.9324 L -13.0,-16.9325 L -13.0,-16.9326 L -13.0,-16.9327 L -13.0,-16.9328 L -13.0,-16.9329 L -13.0,-16.933 L -13.0,-16.9331 L -13.0,-16.9332 L -13.0,-16.9333 L -13.0,-16.9334 L -13.0,-16.9335 L -13.0,-16.9336 L -13.0,-16.9337 L -13.0,-16.9338 L -13.0,-16.9339 L -13.0,-16.934 L -13.0,-16.9341 L -13.0,-16.9342 L -13.0,-16.9343 L -13.0,-16.9344" />
      <path d="M 13.0,-16.9296 L 13.0,-16.9297 L 13.0,-16.9298 L 13.0,-16.9299 L 13.0,-16.93 L 13.0,-16.9301 L 13.0,-16.9302 L 13.0,-16.9303 L 13.0,-16.9304 L 13.0,-16.9305 L 13.0,-16.9306 L 13.0,-16.9307 L 13.0,-16.9308 L 13.0,-16.9309 L 13.0,-16.931 L 13.0,-16.9311 L 13.0,-16.9312 L 13.0,-16.9313 L 13.0,-16.9314 L 13.0,-16.9315 L 13.0,-16.9316 L 13.0,-16.9317 L 13.0,-16.9318 L 13.0,-16.9319 L 13.0,-16.932 L 13.0,-16.9321 L 13.0,-16.9322 L 13.0,-16.9323 L 13.0,-16.9324 L 13.0,-16.9325 L 13.0,-16.9326 L 13.0,-16.9327 L 13.0,-16.9328 L 13.0,-16.9329 L 13.0,-16.933 L 13.0,-16.9331 L 13.0,-16.9332 L 13.0,-16.9333 L 13.0,-16.9334 L 13.0,-16.9335 L 13.0,-16.9336 L 13.0,-16.9337 L 13.0,-16.9338 L 13.0,-16.9339 L 13.0,-16.934 L 13.0,-16.9341 L 13.0,-16.9342 L 13.0,-16.9343 L 13.0,-16.9344" />
      <path d="M 13.0,-16.9296 L 12.6389,-16.9296 L 12.2778,-16.9296 L 11.9167,-16.9296 L 11.5556,-16.9296 L 11.1944,-16.9296 L 10.8333,-16.9296 L 10.4722,-16.9296 L 10.1111,-16.9296 L 9.75,-16.9296 L 9.3889,-16.9296 L 9.0278,-16.9296 L 8.6667,-16.9296 L 8.3056,-16.9296 L 7.9444,-16.9296 L 7.5833,-16.9296 L 7.2222,-16.9296 L 6.8611,-16.9296 L 6.5,-16.9296 L 6.1389,-16.9296 L 5.7778,-16.9296 L 5.4167,-16.9296 L 5.0556,-16.9296 L 4.6944,-16.9296 L 4.3333,-16.9296 L 3.9722,-16.9296 L 3.6111,-16.9296 L 3.25,-16.9296 L 2.8889,-16.9296 L 2.5278,-16.9296 L 2.1667,-16.9296 L 1.8056,-16.9296 L 1.4444,-16.9296 L 1.0833,-16.9296 L 0.7222,-16.9296 L 0.3611,-16.9296 L 0.0,-16.9296 L -0.3611,-16.9296 L -0.7222,-16.9296 L -1.0833,-16.9296 L -1.4444,-16.9296 L -1.8056,-16.9296 L -2.1667,-16.9296 L -2.5278,-16.9296 L -2.8889,-16.9296 L -3.25,-16.9296 L -3.6111,-16.9296 L -3.9722,-16.9296 L -4.3333,-16.9296 L -4.6944,-16.9296 L -5.0556,-16.9296 L -5.4167,-16.9296 L -5.7778,-16.9296 L -6.1389,-16.9296 L -6.5,-16.9296 L -6.8611,-16.9296 L -7.2222,-16.9296 L -7.5833,-16.9296 L -7.9444,-16.9296 L -8.3056,-16.9296 L -8.6667,-16.9296 L -9.0278,-16.9296 L -9.3889,-16.9296 L -9.75,-16.9296 L -10.1111,-16.9296 L -10.4722,-16.9296 L -10.8333,-16.9296 L -11.1944,-16.9296 L -11.5556,-16.9296 L -11.9167,-16.9296 L -12.2778,-16.9296 L -12.6389,-16.9296 L -13.0,-16.9296" />
      <path d="M -13.0,13.075 L -12.6389,13.075 L -12.2778,13.075 L -11.9167,13.075 L -11.5556,13.075 L -11.1944,13.075 L -10.8333,13.075 L -10.4722,13.075 L -10.1111,13.075 L -9.75,13.075 L -9.3889,13.075 L -9.0278,13.075 L -8.6667,13.075 L -8.3056,13.075 L -7.9444,13.075 L -7.5833,13.075 L -7.2222,13.075 L -6.8611,13.075 L -6.5,13.075 L -6.1389,13.075 L -5.7778,13.075 L -5.4167,13.075 L -5.0556,13.075 L -4.6944,13.075 L -4.3333,13.075 L -3.9722,13.075 L -3.6111,13.075 L -3.25,13.075 L -2.8889,13.075 L -2.5278,13.075 L -2.1667,13.075 L -1.8056,13.075 L -1.4444,13.075 L -1.0833,13.075 L -0.7222,13.075 L -0.3611,13.075 L 0.0,13.075 L 0.3611,13.075 L 0.7222,13.075 L 1.0833,13.075 L 1.4444,13.075 L 1.8056,13.075 L 2.1667,13.075 L 2.5278,13.075 L 2.8889,13.075 L 3.25,13.075 L 3.6111,13.075 L 3.9722,13.075 L 4.3333,13.075 L 4.6944,13.075 L 5.0556,13.075 L 5.4167,13.075 L 5.7778,13.075 L 6.1389,13.075 L 6.5,13.075 L 6.8611,13.075 L 7.2222,13.075 L 7.5833,13.075 L 7.9444,13.075 L 8.3056,13.075 L 8.6667,13.075 L 9.0278,13.075 L 9.3889,13.075 L 9.75,13.075 L 10.1111,13.075 L 10.4722,13.075 L 10.8333,13.075 L 11.1944,13.075 L 11.5556,13.075 L 11.9167,13.075 L 12.2778,13.075 L 12.6389,13.075 L 13.0,13.075" />
      <path d="M 13.0,13.075 L 13.0,12.6582 L 13.0,12.2415 L 13.0,11.8248 L 13.0,11.4081 L 13.0,10.9913 L 13.0,10.5746 L 13.0,10.1579 L 13.0,9.7411 L 13.0,9.3244 L 13.0,8.9077 L 13.0,8.4909 L 13.0,8.0742 L 13.0,7.6575 L 13.0,7.2408 L 13.0,6.824 L 13.0,6.4073 L 13.0,5.9906 L 13.0,5.5738 L 13.0,5.1571 L 13.0,4.7404 L 13.0,4.3236 L 13.0,3.9069 L 13.0,3.4902 L 13.0,3.0734 L 13.0,2.6567 L 13.0,2.24 L 13.0,1.8233 L 13.0,1.4065 L 13.0,0.9898 L 13.0,0.5731 L 13.0,0.1563 L 13.0,-0.2604 L 13.0,-0.6771 L 13.0,-1.0939 L 13.0,-1.5106 L 13.0,-1.9273 L 13.0,-2.344 L 13.0,-2.7608 L 13.0,-3.1775 L 13.0,-3.5942 L 13.0,-4.011 L 13.0,-4.4277 L 13.0,-4.8444 L 13.0,-5.2612 L 13.0,-5.6779 L 13.0,-6.0946 L 13.0,-6.5113 L 13.0,-6.9281 L 13.0,-7.3448 L 13.0,-7.7615 L 13.0,-8.1783 L 13.0,-8.595 L 13.0,-9.0117 L 13.0,-9.4285 L 13.0,-9.8452 L 13.0,-10.2619 L 13.0,-10.6786 L 13.0,-11.0954 L 13.0,-11.5121 L 13.0,-11.9288 L 13.0,-12.3456 L 13.0,-12.7623 L 13.0,-13.179 L 13.0,-13.5958 L 13.0,-14.0125 L 13.0,-14.4292 L 13.0,-14.846 L 13.0,-15.2627 L 13.0,-15.6794 L 13.0,-16.0961 L 13.0,-16.5129 L 13.0,-16.9296" />
      <path d="M 0.0,4.8237 L -0.147,4.8155 L -0.2939,4.8072 L -0.4409,4.799 L -0.5879,4.7907 L -0.7348,4.7824 L -0.8802,4.7601 L -1.0253,4.7355 L -1.1704,4.7108 L -1.3155,4.6861 L -1.4607,4.6615 L -1.6032,4.6253 L -1.7446,4.5846 L -1.886,4.5438 L -2.0275,4.503 L -2.1689,4.4623 L -2.3072,4.4126 L -2.4432,4.3563 L -2.5792,4.2999 L -2.7152,4.2436 L -2.8512,4.1873 L -2.9841,4.1245 L -3.1129,4.0533 L -3.2418,3.9821 L -3.3706,3.9109 L -3.4994,3.8397 L -3.6257,3.7645 L -3.7457,3.6793 L -3.8658,3.5941 L -3.9858,3.5089 L -4.1059,3.4237 L -4.2244,3.3367 L -4.3342,3.2386 L -4.4439,3.1405 L -4.5537,3.0424 L -4.6634,2.9443 L -4.7731,2.8462 L -4.8712,2.7364 L -4.9693,2.6267 L -5.0674,2.5169 L -5.1654,2.4071 L -5.2635,2.2974 L -5.3505,2.1788 L -5.4357,2.0587 L -5.5208,1.9387 L -5.606,1.8186 L -5.6912,1.6986 L -5.7664,1.5722 L -5.8375,1.4434 L -5.9087,1.3146 L -5.9799,1.1857 L -6.0511,1.0569 L -6.1138,0.924 L -6.1701,0.788 L -6.2264,0.652 L -6.2828,0.516 L -6.3391,0.38 L -6.3887,0.2416 L -6.4295,0.1002 L -6.4702,-0.0413 L -6.5109,-0.1827 L -6.5517,-0.3241 L -6.5878,-0.4666 L -6.6125,-0.6118 L -6.6371,-0.7569 L -6.6618,-0.902 L -6.6864,-1.0471 L -6.7087,-1.1925 L -6.717,-1.3395 L -6.7252,-1.4864 L -6.7335,-1.6334 L -6.7417,-1.7803 L -6.75,-1.9273" />
      <path d="M -6.75,-1.9273 L -6.7171,-2.2194 L -6.6842,-2.5115 L -6.6513,-2.8036 L -6.6184,-3.0956 L -6.5855,-3.3877 L -6.4976,-3.6673 L -6.4005,-3.9447 L -6.3035,-4.2221 L -6.2064,-4.4996 L -6.1093,-4.777 L -5.97,-5.0341 L -5.8136,-5.283 L -5.6572,-5.5319 L -5.5009,-5.7807 L -5.3445,-6.0296 L -5.1588,-6.2551 L -4.951,-6.463 L -4.7431,-6.6708 L -4.5353,-6.8787 L -4.3275,-7.0865 L -4.1021,-7.2724 L -3.8532,-7.4288 L -3.6044,-7.5852 L -3.3555,-7.7416 L -3.1066,-7.898 L -2.8496,-8.0375 L -2.5722,-8.1345 L -2.2948,-8.2316 L -2.0173,-8.3287 L -1.7399,-8.4258 L -1.4604,-8.5138 L -1.1683,-8.5467 L -0.8762,-8.5796 L -0.5842,-8.6125 L -0.2921,-8.6454 L 0.0,-8.6783 L 0.2921,-8.6454 L 0.5842,-8.6125 L 0.8762,-8.5796 L 1.1683,-8.5467 L 1.4604,-8.5138 L 1.7399,-8.4258 L 2.0173,-8.3287 L 2.2948,-8.2316 L 2.5722,-8.1345 L 2.8496,-8.0375 L 3.1066,-7.898 L 3.3555,-7.7416 L 3.6044,-7.5852 L 3.8532,-7.4288 L 4.1021,-7.2724 L 4.3275,-7.0865 L 4.5353,-6.8787 L 4.7431,-6.6708 L 4.951,-6.463 L 5.1588,-6.2551 L 5.3445,-6.0296 L 5.5009,-5.7807 L 5.6572,-5.5319 L 5.8136,-5.283 L 5.97,-5.0341 L 6.1093,-4.777 L 6.2064,-4.4996 L 6.3035,-4.2221 L 6.4005,-3.9447 L 6.4976,-3.6673 L 6.5855,-3.3877 L 6.6184,-3.0956 L 6.6513,-2.8036 L 6.6842,-2.5115 L 6.7171,-2.2194 L 6.75,-1.9273" />
      <path d="M 6.75,-1.9273 L 6.7417,-1.7803 L 6.7335,-1.6334 L 6.7252,-1.4864 L 6.717,-1.3395 L 6.7087,-1.1925 L 6.6864,-1.0471 L 6.6618,-0.902 L 6.6371,-0.7569 L 6.6125,-0.6118 L 6.5878,-0.4666 L 6.5517,-0.3241 L 6.5109,-0.1827 L 6.4702,-0.0413 L 6.4295,0.1002 L 6.3887,0.2416 L 6.3391,0.38 L 6.2828,0.516 L 6.2264,0.652 L 6.1701,0.788 L 6.1138,0.924 L 6.0511,1.0569 L 5.9799,1.1857 L 5.9087,1.3146 L 5.8375,1.4434 L 5.7664,1.5722 L 5.6912,1.6986 L 5.606,1.8186 L 5.5208,1.9387 L 5.4357,2.0587 L 5.3505,2.1788 L 5.2635,2.2974 L 5.1654,2.4071 L 5.0674,2.5169 L 4.9693,2.6267 L 4.8712,2.7364 L 4.7731,2.8462 L 4.6634,2.9443 L 4.5537,3.0424 L 4.4439,3.1405 L 4.3342,3.2386 L 4.2244,3.3367 L 4.1059,3.4237 L 3.9858,3.5089 L 3.8658,3.5941 L 3.7457,3.6793 L 3.6257,3.7645 L 3.4994,3.8397 L 3.3706,3.9109 L 3.2418,3.9821 L 3.1129,4.0533 L 2.9841,4.1245 L 2.8512,4.1873 L 2.7152,4.2436 L 2.5792,4.2999 L 2.4432,4.3563 L 2.3072,4.4126 L 2.1689,4.4623 L 2.0275,4.503 L 1.886,4.5438 L 1.7446,4.5846 L 1.6032,4.6253 L 1.4607,4.6615 L 1.3155,4.6861 L 1.1704,4.7108 L 1.0253,4.7355 L 0.8802,4.7601 L 0.7348,4.7824 L 0.5879,4.7907 L 0.4409,4.799 L 0.2939,4.8072 L 0.147,4.8155 L -0.0,4.8237" />
      <path d="M 21.9136,-16.9056 L 21.9134,-16.9063 L 21.9132,-16.907 L 21.913,-16.9077 L 21.9128,-16.9084 L 21.9126,-16.9091 L 21.9125,-16.9098 L 21.9123,-16.9105 L 21.9121,-16.9112 L 21.9119,-16.9119 L 21.9117,-16.9126 L 21.9115,-16.9133 L 21.9113,-16.914 L 21.9111,-16.9147 L 21.9109,-16.9154 L 21.9108,-16.9161 L 21.9106,-16.9168 L 21.9104,-16.9175 L 21.9102,-16.9182 L 21.91,-16.9189 L 21.9098,-16.9196 L 21.9096,-16.9203 L 21.9094,-16.9209 L 21.9092,-16.9216 L 21.9091,-16.9223 L 21.9089,-16.923 L 21.9087,-16.9237 L 21.9085,-16.9244 L 21.9083,-16.9251 L 21.9081,-16.9258 L 21.9079,-16.9265 L 21.9077,-16.9272 L 21.9076,-16.9279 L 21.9074,-16.9286 L 21.9072,-16.9293 L 21.907,-16.93 L 21.9068,-16.9307 L 21.9066,-16.9314 L 21.9064,-16.9321 L 21.9062,-16.9328 L 21.906,-16.9335 L 21.9059,-16.9342 L 21.9057,-16.9349 L 21.9055,-16.9356 L 21.9053,-16.9363 L 21.9051,-16.937 L 21.9049,-16.9377 L 21.9047,-16.9384 L 21.9045,-16.9391 L 21.9043,-16.9398 L 21.9042,-16.9405 L 21.904,-16.9412 L 21.9038,-16.9419 L 21.9036,-16.9426 L 21.9034,-16.9433 L 21.9032,-16.944 L 21.903,-16.9447 L 21.9028,-16.9453 L 21.9026,-16.946 L 21.9025,-16.9467 L 21.9023,-16.9474 L 21.9021,-16.9481 L 21.9019,-16.9488 L 21.9017,-16.9495 L 21.9015,-16.9502 L 21.9013,-16.9509 L 21.9011,-16.9516 L 21.9009,-16.9523 L 21.9008,-16.953 L 21.9006,-16.9537 L 21.9004,-16.9544 L 21.9002,-16.9551 L 21.9,-16.9558" />
      <path d="M 21.9136,-16.9056 L 21.9136,-16.4889 L 21.9136,-16.0723 L 21.9136,-15.6556 L 21.9136,-15.2389 L 21.9136,-14.8223 L 21.9136,-14.4056 L 21.9136,-13.9889 L 21.9136,-13.5723 L 21.9136,-13.1556 L 21.9136,-12.7389 L 21.9136,-12.3223 L 21.9136,-11.9056 L 21.9136,-11.489 L 21.9136,-11.0723 L 21.9136,-10.6556 L 21.9136,-10.239 L 21.9136,-9.8223 L 21.9136,-9.4056 L 21.9136,-8.989 L 21.9136,-8.5723 L 21.9136,-8.1556 L 21.9136,-7.739 L 21.9136,-7.3223 L 21.9136,-6.9056 L 21.9136,-6.489 L 21.9136,-6.0723 L 21.9136,-5.6556 L 21.9136,-5.239 L 21.9136,-4.8223 L 21.9136,-4.4056 L 21.9136,-3.989 L 21.9136,-3.5723 L 21.9136,-3.1556 L 21.9136,-2.739 L 21.9136,-2.3223 L 21.9136,-1.9056 L 21.9136,-1.489 L 21.9136,-1.0723 L 21.9136,-0.6556 L 21.9136,-0.239 L 21.9136,0.1777 L 21.9136,0.5944 L 21.9136,1.011 L 21.9136,1.4277 L 21.9136,1.8444 L 21.9136,2.261 L 21.9136,2.6777 L 21.9136,3.0944 L 21.9136,3.511 L 21.9136,3.9277 L 21.9136,4.3444 L 21.9136,4.761 L 21.9136,5.1777 L 21.9136,5.5943 L 21.9136,6.011 L 21.9136,6.4277 L 21.9136,6.8443 L 21.9136,7.261 L 21.9136,7.6777 L 21.9136,8.0943 L 21.9136,8.511 L 21.9136,8.9277 L 21.9136,9.3443 L 21.9136,9.761 L 21.9136,10.1777 L 21.9136,10.5943 L 21.9136,11.011 L 21.9136,11.4277 L 21.9136,11.8443 L 21.9136,12.261 L 21.9136,12.6777 L 21.9136,13.0943" />
      <path d="M 17.0,13.0441 L 17.0333,12.6275 L 17.0667,12.2108 L 17.1,11.7941 L 17.1333,11.3775 L 17.1667,10.9608 L 17.2,10.5441 L 17.2333,10.1275 L 17.2667,9.7108 L 17.3,9.2941 L 17.3333,8.8775 L 17.3667,8.4608 L 17.4,8.0442 L 17.4333,7.6275 L 17.4667,7.2108 L 17.5,6.7942 L 17.5333,6.3775 L 17.5667,5.9608 L 17.6,5.5442 L 17.6333,5.1275 L 17.6667,4.7108 L 17.7,4.2942 L 17.7333,3.8775 L 17.7667,3.4608 L 17.8,3.0442 L 17.8333,2.6275 L 17.8667,2.2108 L 17.9,1.7942 L 17.9333,1.3775 L 17.9667,0.9608 L 18.0,0.5442 L 18.0333,0.1275 L 18.0667,-0.2892 L 18.1,-0.7058 L 18.1333,-1.1225 L 18.1667,-1.5392 L 18.2,-1.9558 L 18.2333,-2.3725 L 18.2667,-2.7892 L 18.3,-3.2058 L 18.3333,-3.6225 L 18.3667,-4.0392 L 18.4,-4.4558 L 18.4333,-4.8725 L 18.4667,-5.2892 L 18.5,-5.7058 L 18.5333,-6.1225 L 18.5667,-6.5392 L 18.6,-6.9558 L 18.6333,-7.3725 L 18.6667,-7.7892 L 18.7,-8.2058 L 18.7333,-8.6225 L 18.7667,-9.0392 L 18.8,-9.4558 L 18.8333,-9.8725 L 18.8667,-10.2892 L 18.9,-10.7058 L 18.9333,-11.1225 L 18.9667,-11.5391 L 19.0,-11.9558 L 19.0333,-12.3725 L 19.0667,-12.7891 L 19.1,-13.2058 L 19.1333,-13.6225 L 19.1667,-14.0391 L 19.2,-14.4558 L 19.2333,-14.8725 L 19.2667,-15.2891 L 19.3,-15.7058 L 19.3333,-16.1225 L 19.3667,-16.5391 L 19.4,-16.9558" />
      <path d="M 19.4,-16.9558 L 19.4347,-16.9558 L 19.4694,-16.9558 L 19.5042,-16.9558 L 19.5389,-16.9558 L 19.5736,-16.9558 L 19.6083,-16.9558 L 19.6431,-16.9558 L 19.6778,-16.9558 L 19.7125,-16.9558 L 19.7472,-16.9558 L 19.7819,-16.9558 L 19.8167,-16.9558 L 19.8514,-16.9558 L 19.8861,-16.9558 L 19.9208,-16.9558 L 19.9556,-16.9558 L 19.9903,-16.9558 L 20.025,-16.9558 L 20.0597,-16.9558 L 20.0944,-16.9558 L 20.1292,-16.9558 L 20.1639,-16.9558 L 20.1986,-16.9558 L 20.2333,-16.9558 L 20.2681,-16.9558 L 20.3028,-16.9558 L 20.3375,-16.9558 L 20.3722,-16.9558 L 20.4069,-16.9558 L 20.4417,-16.9558 L 20.4764,-16.9558 L 20.5111,-16.9558 L 20.5458,-16.9558 L 20.5806,-16.9558 L 20.6153,-16.9558 L 20.65,-16.9558 L 20.6847,-16.9558 L 20.7194,-16.9558 L 20.7542,-16.9558 L 20.7889,-16.9558 L 20.8236,-16.9558 L 20.8583,-16.9558 L 20.8931,-16.9558 L 20.9278,-16.9558 L 20.9625,-16.9558 L 20.9972,-16.9558 L 21.0319,-16.9558 L 21.0667,-16.9558 L 21.1014,-16.9558 L 21.1361,-16.9558 L 21.1708,-16.9558 L 21.2056,-16.9558 L 21.2403,-16.9558 L 21.275,-16.9558 L 21.3097,-16.9558 L 21.3444,-16.9558 L 21.3792,-16.9558 L 21.4139,-16.9558 L 21.4486,-16.9558 L 21.4833,-16.9558 L 21.5181,-16.9558 L 21.5528,-16.9558 L 21.5875,-16.9558 L 21.6222,-16.9558 L 21.6569,-16.9558 L 21.6917,-16.9558 L 21.7264,-16.9558 L 21.7611,-16.9558 L 21.7958,-16.9558 L 21.8306,-16.9558 L 21.8653,-16.9558 L 21.9,-16.9558" />
      <path d="M 19.4136,-16.9056 L 19.4483,-16.9056 L 19.483,-16.9056 L 19.5178,-16.9056 L 19.5525,-16.9056 L 19.5872,-16.9056 L 19.6219,-16.9056 L 19.6566,-16.9056 L 19.6914,-16.9056 L 19.7261,-16.9056 L 19.7608,-16.9056 L 19.7955,-16.9056 L 19.8303,-16.9056 L 19.865,-16.9056 L 19.8997,-16.9056 L 19.9344,-16.9056 L 19.9691,-16.9056 L 20.0039,-16.9056 L 20.0386,-16.9056 L 20.0733,-16.9056 L 20.108,-16.9056 L 20.1428,-16.9056 L 20.1775,-16.9056 L 20.2122,-16.9056 L 20.2469,-16.9056 L 20.2816,-16.9056 L 20.3164,-16.9056 L 20.3511,-16.9056 L 20.3858,-16.9056 L 20.4205,-16.9056 L 20.4553,-16.9056 L 20.49,-16.9056 L 20.5247,-16.9056 L 20.5594,-16.9056 L 20.5941,-16.9056 L 20.6289,-16.9056 L 20.6636,-16.9056 L 20.6983,-16.9056 L 20.733,-16.9056 L 20.7678,-16.9056 L 20.8025,-16.9056 L 20.8372,-16.9056 L 20.8719,-16.9056 L 20.9066,-16.9056 L 20.9414,-16.9056 L 20.9761,-16.9056 L 21.0108,-16.9056 L 21.0455,-16.9056 L 21.0803,-16.9056 L 21.115,-16.9056 L 21.1497,-16.9056 L 21.1844,-16.9056 L 21.2191,-16.9056 L 21.2539,-16.9056 L 21.2886,-16.9056 L 21.3233,-16.9056 L 21.358,-16.9056 L 21.3928,-16.9056 L 21.4275,-16.9056 L 21.4622,-16.9056 L 21.4969,-16.9056 L 21.5316,-16.9056 L 21.5664,-16.9056 L 21.6011,-16.9056 L 21.6358,-16.9056 L 21.6705,-16.9056 L 21.7053,-16.9056 L 21.74,-16.9056 L 21.7747,-16.9056 L 21.8094,-16.9056 L 21.8441,-16.9056 L 21.8789,-16.9056 L 21.9136,-16.9056" />
      <path d="M 19.4136,-16.9056 L 19.4134,-16.9063 L 19.4132,-16.907 L 19.413,-16.9077 L 19.4128,-16.9084 L 19.4126,-16.9091 L 19.4125,-16.9098 L 19.4123,-16.9105 L 19.4121,-16.9112 L 19.4119,-16.9119 L 19.4117,-16.9126 L 19.4115,-16.9133 L 19.4113,-16.914 L 19.4111,-16.9147 L 19.4109,-16.9154 L 19.4108,-16.9161 L 19.4106,-16.9168 L 19.4104,-16.9175 L 19.4102,-16.9182 L 19.41,-16.9189 L 19.4098,-16.9196 L 19.4096,-16.9202 L 19.4094,-16.9209 L 19.4092,-16.9216 L 19.4091,-16.9223 L 19.4089,-16.923 L 19.4087,-16.9237 L 19.4085,-16.9244 L 19.4083,-16.9251 L 19.4081,-16.9258 L 19.4079,-16.9265 L 19.4077,-16.9272 L 19.4076,-16.9279 L 19.4074,-16.9286 L 19.4072,-16.9293 L 19.407,-16.93 L 19.4068,-16.9307 L 19.4066,-16.9314 L 19.4064,-16.9321 L 19.4062,-16.9328 L 19.406,-16.9335 L 19.4059,-16.9342 L 19.4057,-16.9349 L 19.4055,-16.9356 L 19.4053,-16.9363 L 19.4051,-16.937 L 19.4049,-16.9377 L 19.4047,-16.9384 L 19.4045,-16.9391 L 19.4043,-16.9398 L 19.4042,-16.9405 L 19.404,-16.9412 L 19.4038,-16.9419 L 19.4036,-16.9426 L 19.4034,-16.9433 L 19.4032,-16.944 L 19.403,-16.9447 L 19.4028,-16.9453 L 19.4026,-16.946 L 19.4025,-16.9467 L 19.4023,-16.9474 L 19.4021,-16.9481 L 19.4019,-16.9488 L 19.4017,-16.9495 L 19.4015,-16.9502 L 19.4013,-16.9509 L 19.4011,-16.9516 L 19.4009,-16.9523 L 19.4008,-16.953 L 19.4006,-16.9537 L 19.4004,-16.9544 L 19.4002,-16.9551 L 19.4,-16.9558" />
      <path d="M 17.0,13.0441 L 17.0002,13.0448 L 17.0004,13.0455 L 17.0006,13.0462 L 17.0008,13.0469 L 17.0009,13.0476 L 17.0011,13.0483 L 17.0013,13.049 L 17.0015,13.0497 L 17.0017,13.0504 L 17.0019,13.0511 L 17.0021,13.0518 L 17.0023,13.0525 L 17.0025,13.0532 L 17.0026,13.0539 L 17.0028,13.0546 L 17.003,13.0553 L 17.0032,13.056 L 17.0034,13.0567 L 17.0036,13.0574 L 17.0038,13.0581 L 17.004,13.0588 L 17.0042,13.0595 L 17.0043,13.0602 L 17.0045,13.0609 L 17.0047,13.0616 L 17.0049,13.0623 L 17.0051,13.063 L 17.0053,13.0637 L 17.0055,13.0644 L 17.0057,13.0651 L 17.0059,13.0658 L 17.006,13.0665 L 17.0062,13.0671 L 17.0064,13.0678 L 17.0066,13.0685 L 17.0068,13.0692 L 17.007,13.0699 L 17.0072,13.0706 L 17.0074,13.0713 L 17.0076,13.072 L 17.0077,13.0727 L 17.0079,13.0734 L 17.0081,13.0741 L 17.0083,13.0748 L 17.0085,13.0755 L 17.0087,13.0762 L 17.0089,13.0769 L 17.0091,13.0776 L 17.0093,13.0783 L 17.0094,13.079 L 17.0096,13.0797 L 17.0098,13.0804 L 17.01,13.0811 L 17.0102,13.0818 L 17.0104,13.0825 L 17.0106,13.0832 L 17.0108,13.0839 L 17.0109,13.0846 L 17.0111,13.0853 L 17.0113,13.086 L 17.0115,13.0867 L 17.0117,13.0874 L 17.0119,13.0881 L 17.0121,13.0888 L 17.0123,13.0895 L 17.0125,13.0902 L 17.0126,13.0909 L 17.0128,13.0916 L 17.013,13.0922 L 17.0132,13.0929 L 17.0134,13.0936 L 17.0136,13.0943" />
      <path d="M 21.9136,13.0943 L 21.8455,13.0943 L 21.7775,13.0943 L 21.7094,13.0943 L 21.6414,13.0943 L 21.5733,13.0943 L 21.5053,13.0943 L 21.4372,13.0943 L 21.3691,13.0943 L 21.3011,13.0943 L 21.233,13.0943 L 21.165,13.0943 L 21.0969,13.0943 L 21.0289,13.0943 L 20.9608,13.0943 L 20.8928,13.0943 L 20.8247,13.0943 L 20.7566,13.0943 L 20.6886,13.0943 L 20.6205,13.0943 L 20.5525,13.0943 L 20.4844,13.0943 L 20.4164,13.0943 L 20.3483,13.0943 L 20.2803,13.0943 L 20.2122,13.0943 L 20.1441,13.0943 L 20.0761,13.0943 L 20.008,13.0943 L 19.94,13.0943 L 19.8719,13.0943 L 19.8039,13.0943 L 19.7358,13.0943 L 19.6678,13.0943 L 19.5997,13.0943 L 19.5316,13.0943 L 19.4636,13.0943 L 19.3955,13.0943 L 19.3275,13.0943 L 19.2594,13.0943 L 19.1914,13.0943 L 19.1233,13.0943 L 19.0553,13.0943 L 18.9872,13.0943 L 18.9191,13.0943 L 18.8511,13.0943 L 18.783,13.0943 L 18.715,13.0943 L 18.6469,13.0943 L 18.5789,13.0943 L 18.5108,13.0943 L 18.4428,13.0943 L 18.3747,13.0943 L 18.3066,13.0943 L 18.2386,13.0943 L 18.1705,13.0943 L 18.1025,13.0943 L 18.0344,13.0943 L 17.9664,13.0943 L 17.8983,13.0943 L 17.8303,13.0943 L 17.7622,13.0943 L 17.6941,13.0943 L 17.6261,13.0943 L 17.558,13.0943 L 17.49,13.0943 L 17.4219,13.0943 L 17.3539,13.0943 L 17.2858,13.0943 L 17.2178,13.0943 L 17.1497,13.0943 L 17.0816,13.0943 L 17.0136,13.0943" />
      <path d="M 17.0136,13.0943 L 17.0469,12.6777 L 17.0803,12.261 L 17.1136,11.8443 L 17.1469,11.4277 L 17.1803,11.011 L 17.2136,10.5943 L 17.2469,10.1777 L 17.2803,9.761 L 17.3136,9.3443 L 17.3469,8.9277 L 17.3803,8.511 L 17.4136,8.0943 L 17.4469,7.6777 L 17.4803,7.261 L 17.5136,6.8444 L 17.5469,6.4277 L 17.5803,6.011 L 17.6136,5.5944 L 17.6469,5.1777 L 17.6803,4.761 L 17.7136,4.3444 L 17.7469,3.9277 L 17.7803,3.511 L 17.8136,3.0944 L 17.8469,2.6777 L 17.8803,2.261 L 17.9136,1.8444 L 17.9469,1.4277 L 17.9803,1.011 L 18.0136,0.5944 L 18.0469,0.1777 L 18.0803,-0.239 L 18.1136,-0.6556 L 18.1469,-1.0723 L 18.1803,-1.489 L 18.2136,-1.9056 L 18.2469,-2.3223 L 18.2803,-2.739 L 18.3136,-3.1556 L 18.3469,-3.5723 L 18.3803,-3.989 L 18.4136,-4.4056 L 18.4469,-4.8223 L 18.4803,-5.239 L 18.5136,-5.6556 L 18.5469,-6.0723 L 18.5803,-6.489 L 18.6136,-6.9056 L 18.6469,-7.3223 L 18.6803,-7.739 L 18.7136,-8.1556 L 18.7469,-8.5723 L 18.7803,-8.989 L 18.8136,-9.4056 L 18.8469,-9.8223 L 18.8803,-10.239 L 18.9136,-10.6556 L 18.9469,-11.0723 L 18.9803,-11.4889 L 19.0136,-11.9056 L 19.0469,-12.3223 L 19.0803,-12.7389 L 19.1136,-13.1556 L 19.1469,-13.5723 L 19.1803,-13.9889 L 19.2136,-14.4056 L 19.2469,-14.8223 L 19.2803,-15.2389 L 19.3136,-15.6556 L 19.3469,-16.0723 L 19.3803,-16.4889 L 19.4136,-16.9056" />
      <path d="M 17.6668,4.8193 L 17.6808,4.6317 L 17.6954,4.4441 L 17.71,4.2566 L 17.7247,4.0691 L 17.7395,3.8816 L 17.7543,3.6941 L 17.7691,3.5065 L 17.784,3.319 L 17.7988,3.1315 L 17.8137,2.944 L 17.8286,2.7565 L 17.8434,2.569 L 17.8583,2.3815 L 17.8732,2.194 L 17.8881,2.0065 L 17.9031,1.819 L 17.918,1.6315 L 17.9329,1.4439 L 17.9478,1.2564 L 17.9627,1.0689 L 17.9777,0.8814 L 17.9926,0.6939 L 18.0076,0.5064 L 18.0225,0.3189 L 18.0375,0.1314 L 18.0525,-0.0561 L 18.0674,-0.2436 L 18.0824,-0.4311 L 18.0974,-0.6186 L 18.1123,-0.8061 L 18.1273,-0.9936 L 18.1423,-1.1811 L 18.1573,-1.3686 L 18.1723,-1.5561 L 18.1873,-1.7436 L 18.2023,-1.9311 L 18.2173,-2.1186 L 18.2323,-2.3061 L 18.2473,-2.4936 L 18.2623,-2.6811 L 18.2773,-2.8686 L 18.2923,-3.0561 L 18.3074,-3.2436 L 18.3224,-3.4311 L 18.3374,-3.6186 L 18.3525,-3.8061 L 18.3675,-3.9936 L 18.3825,-4.1811 L 18.3976,-4.3686 L 18.4126,-4.5561 L 18.4277,-4.7436 L 18.4427,-4.9311 L 18.4578,-5.1186 L 18.4729,-5.3061 L 18.488,-5.4935 L 18.503,-5.681 L 18.5181,-5.8685 L 18.5332,-6.056 L 18.5483,-6.2435 L 18.5634,-6.431 L 18.5786,-6.6185 L 18.5937,-6.806 L 18.6088,-6.9935 L 18.6239,-7.181 L 18.6391,-7.3685 L 18.6543,-7.5559 L 18.6695,-7.7434 L 18.6847,-7.9309 L 18.7,-8.1184 L 18.7154,-8.3058 L 18.7307,-8.4933 L 18.7468,-8.6807" />
      <path d="M 18.7468,-8.6807 L 18.7328,-8.4932 L 18.7182,-8.3056 L 18.7036,-8.1181 L 18.6888,-7.9306 L 18.674,-7.7431 L 18.6592,-7.5555 L 18.6445,-7.368 L 18.6296,-7.1805 L 18.6148,-6.993 L 18.5999,-6.8055 L 18.585,-6.618 L 18.5701,-6.4305 L 18.5553,-6.243 L 18.5404,-6.0554 L 18.5255,-5.8679 L 18.5105,-5.6804 L 18.4956,-5.4929 L 18.4807,-5.3054 L 18.4658,-5.1179 L 18.4509,-4.9304 L 18.4359,-4.7429 L 18.421,-4.5554 L 18.406,-4.3679 L 18.391,-4.1804 L 18.3761,-3.9929 L 18.3611,-3.8054 L 18.3462,-3.6179 L 18.3312,-3.4304 L 18.3162,-3.2429 L 18.3013,-3.0554 L 18.2863,-2.8679 L 18.2713,-2.6804 L 18.2563,-2.4929 L 18.2413,-2.3054 L 18.2263,-2.1179 L 18.2113,-1.9304 L 18.1963,-1.7429 L 18.1813,-1.5554 L 18.1663,-1.3679 L 18.1513,-1.1804 L 18.1363,-0.9929 L 18.1213,-0.8054 L 18.1062,-0.6179 L 18.0912,-0.4304 L 18.0762,-0.2429 L 18.0611,-0.0554 L 18.0461,0.1321 L 18.0311,0.3196 L 18.016,0.5071 L 18.001,0.6946 L 17.9859,0.8821 L 17.9709,1.0696 L 17.9558,1.2571 L 17.9407,1.4446 L 17.9256,1.6321 L 17.9105,1.8196 L 17.8955,2.0071 L 17.8804,2.1946 L 17.8653,2.382 L 17.8502,2.5695 L 17.835,2.757 L 17.8199,2.9445 L 17.8048,3.132 L 17.7897,3.3195 L 17.7745,3.507 L 17.7593,3.6945 L 17.7441,3.882 L 17.7289,4.0694 L 17.7136,4.2569 L 17.6982,4.4444 L 17.6828,4.6319 L 17.6668,4.8193" />
    </g>
    <g fill="none" stroke="rgb(110,110,110)" stroke-width="0.3" id="Hidden" stroke-dasharray="3.6 0.9">
      <path d="M -13.0,-16.9344 L -13.0,-16.5178 L -13.0,-16.1011 L -13.0,-15.6844 L -13.0,-15.2678 L -13.0,-14.8511 L -13.0,-14.4344 L -13.0,-14.0178 L -13.0,-13.6011 L -13.0,-13.1844 L -13.0,-12.7678 L -13.0,-12.3511 L -13.0,-11.9344 L -13.0,-11.5178 L -13.0,-11.1011 L -13.0,-10.6844 L -13.0,-10.2678 L -13.0,-9.8511 L -13.0,-9.4344 L -13.0,-9.0178 L -13.0,-8.6011 L -13.0,-8.1844 L -13.0,-7.7678 L -13.0,-7.3511 L -13.0,-6.9344 L -13.0,-6.5178 L -13.0,-6.1011 L -13.0,-5.6844 L -13.0,-5.2678 L -13.0,-4.8511 L -13.0,-4.4344 L -13.0,-4.0178 L -13.0,-3.6011 L -13.0,-3.1845 L -13.0,-2.7678 L -13.0,-2.3511 L -13.0,-1.9345 L -13.0,-1.5178 L -13.0,-1.1011 L -13.0,-0.6845 L -13.0,-0.2678 L -13.0,0.1489 L -13.0,0.5655 L -13.0,0.9822 L -13.0,1.3989 L -13.0,1.8155 L -13.0,2.2322 L -13.0,2.6489 L -13.0,3.0655 L -13.0,3.4822 L -13.0,3.8989 L -13.0,4.3155 L -13.0,4.7322 L -13.0,5.1489 L -13.0,5.5655 L -13.0,5.9822 L -13.0,6.3989 L -13.0,6.8155 L -13.0,7.2322 L -13.0,7.6489 L -13.0,8.0655 L -13.0,8.4822 L -13.0,8.8989 L -13.0,9.3155 L -13.0,9.7322 L -13.0,10.1489 L -13.0,10.5655 L -13.0,10.9822 L -13.0,11.3989 L -13.0,11.8155 L -13.0,12.2322 L -13.0,12.6489 L -13.0,13.0655" />
      <path d="M -13.0,13.0655 L -12.6389,13.0655 L -12.2778,13.0655 L -11.9167,13.0655 L -11.5556,13.0655 L -11.1944,13.0655 L -10.8333,13.0655 L -10.4722,13.0655 L -10.1111,13.0655 L -9.75,13.0655 L -9.3889,13.0655 L -9.0278,13.0655 L -8.6667,13.0655 L -8.3056,13.0655 L -7.9444,13.0655 L -7.5833,13.0655 L -7.2222,13.0655 L -6.8611,13.0655 L -6.5,13.0655 L -6.1389,13.0655 L -5.7778,13.0655 L -5.4167,13.0655 L -5.0556,13.0655 L -4.6944,13.0655 L -4.3333,13.0655 L -3.9722,13.0655 L -3.6111,13.0655 L -3.25,13.0655 L -2.8889,13.0655 L -2.5278,13.0655 L -2.1667,13.0655 L -1.8056,13.0655 L -1.4444,13.0655 L -1.0833,13.0655 L -0.7222,13.0655 L -0.3611,13.0655 L 0.0,13.0655 L 0.3611,13.0655 L 0.7222,13.0655 L 1.0833,13.0655 L 1.4444,13.0655 L 1.8056,13.0655 L 2.1667,13.0655 L 2.5278,13.0655 L 2.8889,13.0655 L 3.25,13.0655 L 3.6111,13.0655 L 3.9722,13.0655 L 4.3333,13.0655 L 4.6944,13.0655 L 5.0556,13.0655 L 5.4167,13.0655 L 5.7778,13.0655 L 6.1389,13.0655 L 6.5,13.0655 L 6.8611,13.0655 L 7.2222,13.0655 L 7.5833,13.0655 L 7.9444,13.0655 L 8.3056,13.0655 L 8.6667,13.0655 L 9.0278,13.0655 L 9.3889,13.0655 L 9.75,13.0655 L 10.1111,13.0655 L 10.4722,13.0655 L 10.8333,13.0655 L 11.1944,13.0655 L 11.5556,13.0655 L 11.9167,13.0655 L 12.2778,13.0655 L 12.6389,13.0655 L 13.0,13.0655" />
      <path d="M 13.0,-16.9344 L 13.0,-16.5178 L 13.0,-16.1011 L 13.0,-15.6844 L 13.0,-15.2678 L 13.0,-14.8511 L 13.0,-14.4344 L 13.0,-14.0178 L 13.0,-13.6011 L 13.0,-13.1844 L 13.0,-12.7678 L 13.0,-12.3511 L 13.0,-11.9344 L 13.0,-11.5178 L 13.0,-11.1011 L 13.0,-10.6844 L 13.0,-10.2678 L 13.0,-9.8511 L 13.0,-9.4344 L 13.0,-9.0178 L 13.0,-8.6011 L 13.0,-8.1844 L 13.0,-7.7678 L 13.0,-7.3511 L 13.0,-6.9344 L 13.0,-6.5178 L 13.0,-6.1011 L 13.0,-5.6844 L 13.0,-5.2678 L 13.0,-4.8511 L 13.0,-4.4344 L 13.0,-4.0178 L 13.0,-3.6011 L 13.0,-3.1845 L 13.0,-2.7678 L 13.0,-2.3511 L 13.0,-1.9345 L 13.0,-1.5178 L 13.0,-1.1011 L 13.0,-0.6845 L 13.0,-0.2678 L 13.0,0.1489 L 13.0,0.5655 L 13.0,0.9822 L 13.0,1.3989 L 13.0,1.8155 L 13.0,2.2322 L 13.0,2.6489 L 13.0,3.0655 L 13.0,3.4822 L 13.0,3.8989 L 13.0,4.3155 L 13.0,4.7322 L 13.0,5.1489 L 13.0,5.5655 L 13.0,5.9822 L 13.0,6.3989 L 13.0,6.8155 L 13.0,7.2322 L 13.0,7.6489 L 13.0,8.0655 L 13.0,8.4822 L 13.0,8.8989 L 13.0,9.3155 L 13.0,9.7322 L 13.0,10.1489 L 13.0,10.5655 L 13.0,10.9822 L 13.0,11.3989 L 13.0,11.8155 L 13.0,12.2322 L 13.0,12.6489 L 13.0,13.0655" />
      <path d="M -6.75,-1.9309 L -6.75,-1.931 L -6.75,-1.9311 L -6.75,-1.9312 L -6.75,-1.9313 L -6.75,-1.9314 L -6.75,-1.9315 L -6.75,-1.9316 L -6.75,-1.9317 L -6.75,-1.9318 L -6.75,-1.9319 L -6.75,-1.932 L -6.75,-1.9321 L -6.75,-1.9322 L -6.75,-1.9323 L -6.75,-1.9324 L -6.75,-1.9325 L -6.75,-1.9326 L -6.75,-1.9327 L -6.75,-1.9328 L -6.75,-1.9329 L -6.75,-1.933 L -6.75,-1.9331 L -6.75,-1.9332 L -6.75,-1.9333 L -6.75,-1.9334 L -6.75,-1.9335 L -6.75,-1.9336 L -6.75,-1.9337 L -6.75,-1.9338 L -6.75,-1.9339 L -6.75,-1.934 L -6.75,-1.9341 L -6.75,-1.9342 L -6.75,-1.9343 L -6.75,-1.9344 L -6.75,-1.9345" />
      <path d="M -6.75,-1.9345 L -6.7436,-2.2289 L -6.7243,-2.5228 L -6.6923,-2.8155 L -6.6475,-3.1066 L -6.59,-3.3954 L -6.52,-3.6815 L -6.4376,-3.9642 L -6.3429,-4.2431 L -6.2362,-4.5176 L -6.1176,-4.7871 L -5.9873,-5.0513 L -5.8457,-5.3094 L -5.6929,-5.5612 L -5.5293,-5.8061 L -5.3551,-6.0436 L -5.1708,-6.2733 L -4.9766,-6.4947 L -4.773,-6.7074 L -4.5602,-6.9111 L -4.3388,-7.1052 L -4.1091,-7.2896 L -3.8716,-7.4637 L -3.6268,-7.6273 L -3.375,-7.7801 L -3.1168,-7.9218 L -2.8527,-8.052 L -2.5831,-8.1706 L -2.3086,-8.2774 L -2.0298,-8.372 L -1.747,-8.4544 L -1.461,-8.5244 L -1.1721,-8.5819 L -0.8811,-8.6267 L -0.5883,-8.6588 L -0.2944,-8.678 L -0.0,-8.6844 L 0.2944,-8.678 L 0.5883,-8.6588 L 0.8811,-8.6267 L 1.1721,-8.5819 L 1.461,-8.5244 L 1.747,-8.4544 L 2.0298,-8.372 L 2.3086,-8.2774 L 2.5831,-8.1706 L 2.8527,-8.052 L 3.1168,-7.9218 L 3.375,-7.7801 L 3.6268,-7.6273 L 3.8716,-7.4637 L 4.1091,-7.2896 L 4.3388,-7.1052 L 4.5602,-6.9111 L 4.773,-6.7074 L 4.9766,-6.4947 L 5.1708,-6.2733 L 5.3551,-6.0436 L 5.5293,-5.8061 L 5.6929,-5.5612 L 5.8457,-5.3094 L 5.9873,-5.0513 L 6.1176,-4.7871 L 6.2362,-4.5176 L 6.3429,-4.2431 L 6.4376,-3.9642 L 6.52,-3.6815 L 6.59,-3.3954 L 6.6475,-3.1066 L 6.6923,-2.8155 L 6.7243,-2.5228 L 6.7436,-2.2289 L 6.75,-1.9345" />
      <path d="M 6.75,-1.9345 L 6.75,-1.9344 L 6.75,-1.9343 L 6.75,-1.9342 L 6.75,-1.9341 L 6.75,-1.934 L 6.75,-1.9339 L 6.75,-1.9338 L 6.75,-1.9337 L 6.75,-1.9336 L 6.75,-1.9335 L 6.75,-1.9334 L 6.75,-1.9333 L 6.75,-1.9332 L 6.75,-1.9331 L 6.75,-1.933 L 6.75,-1.9329 L 6.75,-1.9328 L 6.75,-1.9327 L 6.75,-1.9326 L 6.75,-1.9325 L 6.75,-1.9324 L 6.75,-1.9323 L 6.75,-1.9322 L 6.75,-1.9321 L 6.75,-1.932 L 6.75,-1.9319 L 6.75,-1.9318 L 6.75,-1.9317 L 6.75,-1.9316 L 6.75,-1.9315 L 6.75,-1.9314 L 6.75,-1.9313 L 6.75,-1.9312 L 6.75,-1.9311 L 6.75,-1.931 L 6.75,-1.9309" />
      <path d="M -13.0,13.0655 L -13.0,13.0656 L -13.0,13.0658 L -13.0,13.0659 L -13.0,13.066 L -13.0,13.0662 L -13.0,13.0663 L -13.0,13.0664 L -13.0,13.0666 L -13.0,13.0667 L -13.0,13.0668 L -13.0,13.067 L -13.0,13.0671 L -13.0,13.0672 L -13.0,13.0674 L -13.0,13.0675 L -13.0,13.0676 L -13.0,13.0678 L -13.0,13.0679 L -13.0,13.068 L -13.0,13.0681 L -13.0,13.0683 L -13.0,13.0684 L -13.0,13.0685 L -13.0,13.0687 L -13.0,13.0688 L -13.0,13.0689 L -13.0,13.0691 L -13.0,13.0692 L -13.0,13.0693 L -13.0,13.0695 L -13.0,13.0696 L -13.0,13.0697 L -13.0,13.0699 L -13.0,13.07 L -13.0,13.0701 L -13.0,13.0702 L -13.0,13.0704 L -13.0,13.0705 L -13.0,13.0706 L -13.0,13.0708 L -13.0,13.0709 L -13.0,13.071 L -13.0,13.0712 L -13.0,13.0713 L -13.0,13.0714 L -13.0,13.0716 L -13.0,13.0717 L -13.0,13.0718 L -13.0,13.072 L -13.0,13.0721 L -13.0,13.0722 L -13.0,13.0723 L -13.0,13.0725 L -13.0,13.0726 L -13.0,13.0727 L -13.0,13.0729 L -13.0,13.073 L -13.0,13.0731 L -13.0,13.0733 L -13.0,13.0734 L -13.0,13.0735 L -13.0,13.0737 L -13.0,13.0738 L -13.0,13.0739 L -13.0,13.0741 L -13.0,13.0742 L -13.0,13.0743 L -13.0,13.0744 L -13.0,13.0746 L -13.0,13.0747 L -13.0,13.0748 L -13.0,13.075" />
      <path d="M 13.0,13.0655 L 13.0,13.0656 L 13.0,13.0658 L 13.0,13.0659 L 13.0,13.066 L 13.0,13.0662 L 13.0,13.0663 L 13.0,13.0664 L 13.0,13.0666 L 13.0,13.0667 L 13.0,13.0668 L 13.0,13.067 L 13.0,13.0671 L 13.0,13.0672 L 13.0,13.0674 L 13.0,13.0675 L 13.0,13.0676 L 13.0,13.0678 L 13.0,13.0679 L 13.0,13.068 L 13.0,13.0681 L 13.0,13.0683 L 13.0,13.0684 L 13.0,13.0685 L 13.0,13.0687 L 13.0,13.0688 L 13.0,13.0689 L 13.0,13.0691 L 13.0,13.0692 L 13.0,13.0693 L 13.0,13.0695 L 13.0,13.0696 L 13.0,13.0697 L 13.0,13.0699 L 13.0,13.07 L 13.0,13.0701 L 13.0,13.0702 L 13.0,13.0704 L 13.0,13.0705 L 13.0,13.0706 L 13.0,13.0708 L 13.0,13.0709 L 13.0,13.071 L 13.0,13.0712 L 13.0,13.0713 L 13.0,13.0714 L 13.0,13.0716 L 13.0,13.0717 L 13.0,13.0718 L 13.0,13.072 L 13.0,13.0721 L 13.0,13.0722 L 13.0,13.0723 L 13.0,13.0725 L 13.0,13.0726 L 13.0,13.0727 L 13.0,13.0729 L 13.0,13.073 L 13.0,13.0731 L 13.0,13.0733 L 13.0,13.0734 L 13.0,13.0735 L 13.0,13.0737 L 13.0,13.0738 L 13.0,13.0739 L 13.0,13.0741 L 13.0,13.0742 L 13.0,13.0743 L 13.0,13.0744 L 13.0,13.0746 L 13.0,13.0747 L 13.0,13.0748 L 13.0,13.075" />
      <path d="M 6.75,-1.9345 L 6.75,-1.9344 L 6.75,-1.9343 L 6.75,-1.9342 L 6.75,-1.9341 L 6.75,-1.934 L 6.75,-1.9339 L 6.75,-1.9338 L 6.75,-1.9337 L 6.75,-1.9336 L 6.75,-1.9335 L 6.75,-1.9334 L 6.75,-1.9333 L 6.75,-1.9332 L 6.75,-1.9331 L 6.75,-1.933 L 6.75,-1.9329 L 6.75,-1.9328 L 6.75,-1.9327 L 6.75,-1.9326 L 6.75,-1.9325 L 6.75,-1.9324 L 6.75,-1.9323 L 6.75,-1.9322 L 6.75,-1.9321 L 6.75,-1.932 L 6.75,-1.9319 L 6.75,-1.9318 L 6.75,-1.9317 L 6.75,-1.9316 L 6.75,-1.9315 L 6.75,-1.9314 L 6.75,-1.9313 L 6.75,-1.9312 L 6.75,-1.9311 L 6.75,-1.931 L 6.75,-1.9309 L 6.75,-1.9308 L 6.75,-1.9307 L 6.75,-1.9306 L 6.75,-1.9305 L 6.75,-1.9304 L 6.75,-1.9303 L 6.75,-1.9302 L 6.75,-1.9301 L 6.75,-1.93 L 6.75,-1.9299 L 6.75,-1.9298 L 6.75,-1.9297 L 6.75,-1.9296 L 6.75,-1.9295 L 6.75,-1.9294 L 6.75,-1.9293 L 6.75,-1.9292 L 6.75,-1.9291 L 6.75,-1.929 L 6.75,-1.9289 L 6.75,-1.9288 L 6.75,-1.9287 L 6.75,-1.9286 L 6.75,-1.9285 L 6.75,-1.9284 L 6.75,-1.9283 L 6.75,-1.9282 L 6.75,-1.9281 L 6.75,-1.928 L 6.75,-1.9279 L 6.75,-1.9278 L 6.75,-1.9277 L 6.75,-1.9276 L 6.75,-1.9275 L 6.75,-1.9274 L 6.75,-1.9273" />
      <path d="M -6.75,-1.9345 L -6.75,-1.9344 L -6.75,-1.9343 L -6.75,-1.9342 L -6.75,-1.9341 L -6.75,-1.934 L -6.75,-1.9339 L -6.75,-1.9338 L -6.75,-1.9337 L -6.75,-1.9336 L -6.75,-1.9335 L -6.75,-1.9334 L -6.75,-1.9333 L -6.75,-1.9332 L -6.75,-1.9331 L -6.75,-1.933 L -6.75,-1.9329 L -6.75,-1.9328 L -6.75,-1.9327 L -6.75,-1.9326 L -6.75,-1.9325 L -6.75,-1.9324 L -6.75,-1.9323 L -6.75,-1.9322 L -6.75,-1.9321 L -6.75,-1.932 L -6.75,-1.9319 L -6.75,-1.9318 L -6.75,-1.9317 L -6.75,-1.9316 L -6.75,-1.9315 L -6.75,-1.9314 L -6.75,-1.9313 L -6.75,-1.9312 L -6.75,-1.9311 L -6.75,-1.931 L -6.75,-1.9309 L -6.75,-1.9308 L -6.75,-1.9307 L -6.75,-1.9306 L -6.75,-1.9305 L -6.75,-1.9304 L -6.75,-1.9303 L -6.75,-1.9302 L -6.75,-1.9301 L -6.75,-1.93 L -6.75,-1.9299 L -6.75,-1.9298 L -6.75,-1.9297 L -6.75,-1.9296 L -6.75,-1.9295 L -6.75,-1.9294 L -6.75,-1.9293 L -6.75,-1.9292 L -6.75,-1.9291 L -6.75,-1.929 L -6.75,-1.9289 L -6.75,-1.9288 L -6.75,-1.9287 L -6.75,-1.9286 L -6.75,-1.9285 L -6.75,-1.9284 L -6.75,-1.9283 L -6.75,-1.9282 L -6.75,-1.9281 L -6.75,-1.928 L -6.75,-1.9279 L -6.75,-1.9278 L -6.75,-1.9277 L -6.75,-1.9276 L -6.75,-1.9275 L -6.75,-1.9274 L -6.75,-1.9273" />
      <path d="M 21.9,-16.9558 L 21.9,-16.5391 L 21.9,-16.1225 L 21.9,-15.7058 L 21.9,-15.2891 L 21.9,-14.8725 L 21.9,-14.4558 L 21.9,-14.0391 L 21.9,-13.6225 L 21.9,-13.2058 L 21.9,-12.7891 L 21.9,-12.3725 L 21.9,-11.9558 L 21.9,-11.5392 L 21.9,-11.1225 L 21.9,-10.7058 L 21.9,-10.2892 L 21.9,-9.8725 L 21.9,-9.4558 L 21.9,-9.0392 L 21.9,-8.6225 L 21.9,-8.2058 L 21.9,-7.7892 L 21.9,-7.3725 L 21.9,-6.9558 L 21.9,-6.5392 L 21.9,-6.1225 L 21.9,-5.7058 L 21.9,-5.2892 L 21.9,-4.8725 L 21.9,-4.4558 L 21.9,-4.0392 L 21.9,-3.6225 L 21.9,-3.2058 L 21.9,-2.7892 L 21.9,-2.3725 L 21.9,-1.9558 L 21.9,-1.5392 L 21.9,-1.1225 L 21.9,-0.7058 L 21.9,-0.2892 L 21.9,0.1275 L 21.9,0.5442 L 21.9,0.9608 L 21.9,1.3775 L 21.9,1.7942 L 21.9,2.2108 L 21.9,2.6275 L 21.9,3.0442 L 21.9,3.4608 L 21.9,3.8775 L 21.9,4.2942 L 21.9,4.7108 L 21.9,5.1275 L 21.9,5.5442 L 21.9,5.9608 L 21.9,6.3775 L 21.9,6.7941 L 21.9,7.2108 L 21.9,7.6275 L 21.9,8.0441 L 21.9,8.4608 L 21.9,8.8775 L 21.9,9.2941 L 21.9,9.7108 L 21.9,10.1275 L 21.9,10.5441 L 21.9,10.9608 L 21.9,11.3775 L 21.9,11.7941 L 21.9,12.2108 L 21.9,12.6275 L 21.9,13.0441" />
      <path d="M 21.9,13.0441 L 21.9002,13.0448 L 21.9004,13.0455 L 21.9006,13.0462 L 21.9008,13.0469 L 21.9009,13.0476 L 21.9011,13.0483 L 21.9013,13.049 L 21.9015,13.0497 L 21.9017,13.0504 L 21.9019,13.0511 L 21.9021,13.0518 L 21.9023,13.0525 L 21.9025,13.0532 L 21.9026,13.0539 L 21.9028,13.0546 L 21.903,13.0553 L 21.9032,13.056 L 21.9034,13.0567 L 21.9036,13.0574 L 21.9038,13.0581 L 21.904,13.0588 L 21.9042,13.0595 L 21.9043,13.0602 L 21.9045,13.0609 L 21.9047,13.0616 L 21.9049,13.0623 L 21.9051,13.063 L 21.9053,13.0637 L 21.9055,13.0644 L 21.9057,13.0651 L 21.9059,13.0657 L 21.906,13.0664 L 21.9062,13.0671 L 21.9064,13.0678 L 21.9066,13.0685 L 21.9068,13.0692 L 21.907,13.0699 L 21.9072,13.0706 L 21.9074,13.0713 L 21.9076,13.072 L 21.9077,13.0727 L 21.9079,13.0734 L 21.9081,13.0741 L 21.9083,13.0748 L 21.9085,13.0755 L 21.9087,13.0762 L 21.9089,13.0769 L 21.9091,13.0776 L 21.9092,13.0783 L 21.9094,13.079 L 21.9096,13.0797 L 21.9098,13.0804 L 21.91,13.0811 L 21.9102,13.0818 L 21.9104,13.0825 L 21.9106,13.0832 L 21.9108,13.0839 L 21.9109,13.0846 L 21.9111,13.0853 L 21.9113,13.086 L 21.9115,13.0867 L 21.9117,13.0874 L 21.9119,13.0881 L 21.9121,13.0888 L 21.9123,13.0895 L 21.9125,13.0902 L 21.9126,13.0908 L 21.9128,13.0915 L 21.913,13.0922 L 21.9132,13.0929 L 21.9134,13.0936 L 21.9136,13.0943" />
      <path d="M 21.9068,4.8193 L 21.906,4.6318 L 21.9056,4.4443 L 21.9054,4.2568 L 21.9052,4.0693 L 21.905,3.8818 L 21.9049,3.6943 L 21.9047,3.5068 L 21.9046,3.3193 L 21.9045,3.1318 L 21.9044,2.9443 L 21.9043,2.7568 L 21.9042,2.5693 L 21.9041,2.3818 L 21.904,2.1943 L 21.9039,2.0068 L 21.9039,1.8193 L 21.9038,1.6318 L 21.9037,1.4443 L 21.9037,1.2568 L 21.9036,1.0693 L 21.9036,0.8818 L 21.9035,0.6943 L 21.9035,0.5068 L 21.9035,0.3193 L 21.9034,0.1318 L 21.9034,-0.0557 L 21.9034,-0.2432 L 21.9034,-0.4307 L 21.9033,-0.6182 L 21.9033,-0.8057 L 21.9033,-0.9932 L 21.9033,-1.1807 L 21.9033,-1.3682 L 21.9033,-1.5557 L 21.9033,-1.7432 L 21.9033,-1.9307 L 21.9033,-2.1182 L 21.9033,-2.3057 L 21.9033,-2.4932 L 21.9033,-2.6807 L 21.9033,-2.8682 L 21.9033,-3.0557 L 21.9033,-3.2432 L 21.9034,-3.4307 L 21.9034,-3.6182 L 21.9034,-3.8057 L 21.9034,-3.9932 L 21.9035,-4.1807 L 21.9035,-4.3682 L 21.9035,-4.5557 L 21.9036,-4.7432 L 21.9036,-4.9307 L 21.9037,-5.1182 L 21.9037,-5.3057 L 21.9038,-5.4932 L 21.9039,-5.6807 L 21.9039,-5.8682 L 21.904,-6.0557 L 21.9041,-6.2432 L 21.9042,-6.4307 L 21.9043,-6.6182 L 21.9043,-6.8057 L 21.9045,-6.9932 L 21.9046,-7.1807 L 21.9047,-7.3682 L 21.9048,-7.5557 L 21.905,-7.7432 L 21.9052,-7.9307 L 21.9054,-8.1182 L 21.9056,-8.3057 L 21.906,-8.4932 L 21.9068,-8.6807" />
      <path d="M 21.9068,-8.6807 L 21.9076,-8.4932 L 21.9079,-8.3057 L 21.9082,-8.1182 L 21.9084,-7.9307 L 21.9086,-7.7432 L 21.9087,-7.5557 L 21.9089,-7.3682 L 21.909,-7.1807 L 21.9091,-6.9932 L 21.9092,-6.8057 L 21.9093,-6.6182 L 21.9094,-6.4307 L 21.9095,-6.2432 L 21.9096,-6.0557 L 21.9097,-5.8682 L 21.9097,-5.6807 L 21.9098,-5.4932 L 21.9098,-5.3057 L 21.9099,-5.1182 L 21.91,-4.9307 L 21.91,-4.7432 L 21.91,-4.5557 L 21.9101,-4.3682 L 21.9101,-4.1807 L 21.9102,-3.9932 L 21.9102,-3.8057 L 21.9102,-3.6182 L 21.9102,-3.4307 L 21.9103,-3.2432 L 21.9103,-3.0557 L 21.9103,-2.8682 L 21.9103,-2.6807 L 21.9103,-2.4932 L 21.9103,-2.3057 L 21.9103,-2.1182 L 21.9103,-1.9307 L 21.9103,-1.7432 L 21.9103,-1.5557 L 21.9103,-1.3682 L 21.9103,-1.1807 L 21.9103,-0.9932 L 21.9103,-0.8057 L 21.9103,-0.6182 L 21.9102,-0.4307 L 21.9102,-0.2432 L 21.9102,-0.0557 L 21.9102,0.1318 L 21.9101,0.3193 L 21.9101,0.5068 L 21.91,0.6943 L 21.91,0.8818 L 21.91,1.0693 L 21.9099,1.2568 L 21.9099,1.4443 L 21.9098,1.6318 L 21.9097,1.8193 L 21.9097,2.0068 L 21.9096,2.1943 L 21.9095,2.3818 L 21.9094,2.5693 L 21.9093,2.7568 L 21.9092,2.9443 L 21.9091,3.1318 L 21.909,3.3193 L 21.9089,3.5068 L 21.9088,3.6943 L 21.9086,3.8818 L 21.9084,4.0693 L 21.9082,4.2568 L 21.908,4.4443 L 21.9076,4.6318 L 21.9068,4.8193" />
      <path d="M 21.9,13.0441 L 21.8319,13.0441 L 21.7639,13.0441 L 21.6958,13.0441 L 21.6278,13.0441 L 21.5597,13.0441 L 21.4917,13.0441 L 21.4236,13.0441 L 21.3556,13.0441 L 21.2875,13.0441 L 21.2194,13.0441 L 21.1514,13.0441 L 21.0833,13.0441 L 21.0153,13.0441 L 20.9472,13.0441 L 20.8792,13.0441 L 20.8111,13.0441 L 20.7431,13.0441 L 20.675,13.0441 L 20.6069,13.0441 L 20.5389,13.0441 L 20.4708,13.0441 L 20.4028,13.0441 L 20.3347,13.0441 L 20.2667,13.0441 L 20.1986,13.0441 L 20.1306,13.0441 L 20.0625,13.0441 L 19.9944,13.0441 L 19.9264,13.0441 L 19.8583,13.0441 L 19.7903,13.0441 L 19.7222,13.0441 L 19.6542,13.0441 L 19.5861,13.0441 L 19.5181,13.0441 L 19.45,13.0441 L 19.3819,13.0441 L 19.3139,13.0441 L 19.2458,13.0441 L 19.1778,13.0441 L 19.1097,13.0441 L 19.0417,13.0441 L 18.9736,13.0441 L 18.9056,13.0441 L 18.8375,13.0441 L 18.7694,13.0441 L 18.7014,13.0441 L 18.6333,13.0441 L 18.5653,13.0441 L 18.4972,13.0441 L 18.4292,13.0441 L 18.3611,13.0441 L 18.2931,13.0441 L 18.225,13.0441 L 18.1569,13.0441 L 18.0889,13.0441 L 18.0208,13.0441 L 17.9528,13.0441 L 17.8847,13.0441 L 17.8167,13.0441 L 17.7486,13.0441 L 17.6806,13.0441 L 17.6125,13.0441 L 17.5444,13.0441 L 17.4764,13.0441 L 17.4083,13.0441 L 17.3403,13.0441 L 17.2722,13.0441 L 17.2042,13.0441 L 17.1361,13.0441 L 17.0681,13.0441 L 17.0,13.0441" />
      <path d="M 21.9068,4.8193 L 21.8479,4.8193 L 21.789,4.8193 L 21.7301,4.8193 L 21.6712,4.8193 L 21.6124,4.8193 L 21.5535,4.8193 L 21.4946,4.8193 L 21.4357,4.8193 L 21.3768,4.8193 L 21.3179,4.8193 L 21.259,4.8193 L 21.2001,4.8193 L 21.1412,4.8193 L 21.0824,4.8193 L 21.0235,4.8193 L 20.9646,4.8193 L 20.9057,4.8193 L 20.8468,4.8193 L 20.7879,4.8193 L 20.729,4.8193 L 20.6701,4.8193 L 20.6112,4.8193 L 20.5524,4.8193 L 20.4935,4.8193 L 20.4346,4.8193 L 20.3757,4.8193 L 20.3168,4.8193 L 20.2579,4.8193 L 20.199,4.8193 L 20.1401,4.8193 L 20.0812,4.8193 L 20.0224,4.8193 L 19.9635,4.8193 L 19.9046,4.8193 L 19.8457,4.8193 L 19.7868,4.8193 L 19.7279,4.8193 L 19.669,4.8193 L 19.6101,4.8193 L 19.5512,4.8193 L 19.4924,4.8193 L 19.4335,4.8193 L 19.3746,4.8193 L 19.3157,4.8193 L 19.2568,4.8193 L 19.1979,4.8193 L 19.139,4.8193 L 19.0801,4.8193 L 19.0212,4.8193 L 18.9624,4.8193 L 18.9035,4.8193 L 18.8446,4.8193 L 18.7857,4.8193 L 18.7268,4.8193 L 18.6679,4.8193 L 18.609,4.8193 L 18.5501,4.8193 L 18.4912,4.8193 L 18.4324,4.8193 L 18.3735,4.8193 L 18.3146,4.8193 L 18.2557,4.8193 L 18.1968,4.8193 L 18.1379,4.8193 L 18.079,4.8193 L 18.0201,4.8193 L 17.9612,4.8193 L 17.9024,4.8193 L 17.8435,4.8193 L 17.7846,4.8193 L 17.7257,4.8193 L 17.6668,4.8193" />
      <path d="M 21.9068,-8.6807 L 21.8629,-8.6807 L 21.819,-8.6807 L 21.7751,-8.6807 L 21.7312,-8.6807 L 21.6873,-8.6807 L 21.6435,-8.6807 L 21.5996,-8.6807 L 21.5557,-8.6807 L 21.5118,-8.6807 L 21.4679,-8.6807 L 21.424,-8.6807 L 21.3801,-8.6807 L 21.3362,-8.6807 L 21.2923,-8.6807 L 21.2485,-8.6807 L 21.2046,-8.6807 L 21.1607,-8.6807 L 21.1168,-8.6807 L 21.0729,-8.6807 L 21.029,-8.6807 L 20.9851,-8.6807 L 20.9412,-8.6807 L 20.8973,-8.6807 L 20.8535,-8.6807 L 20.8096,-8.6807 L 20.7657,-8.6807 L 20.7218,-8.6807 L 20.6779,-8.6807 L 20.634,-8.6807 L 20.5901,-8.6807 L 20.5462,-8.6807 L 20.5023,-8.6807 L 20.4585,-8.6807 L 20.4146,-8.6807 L 20.3707,-8.6807 L 20.3268,-8.6807 L 20.2829,-8.6807 L 20.239,-8.6807 L 20.1951,-8.6807 L 20.1512,-8.6807 L 20.1073,-8.6807 L 20.0635,-8.6807 L 20.0196,-8.6807 L 19.9757,-8.6807 L 19.9318,-8.6807 L 19.8879,-8.6807 L 19.844,-8.6807 L 19.8001,-8.6807 L 19.7562,-8.6807 L 19.7123,-8.6807 L 19.6685,-8.6807 L 19.6246,-8.6807 L 19.5807,-8.6807 L 19.5368,-8.6807 L 19.4929,-8.6807 L 19.449,-8.6807 L 19.4051,-8.6807 L 19.3612,-8.6807 L 19.3173,-8.6807 L 19.2735,-8.6807 L 19.2296,-8.6807 L 19.1857,-8.6807 L 19.1418,-8.6807 L 19.0979,-8.6807 L 19.054,-8.6807 L 19.0101,-8.6807 L 18.9662,-8.6807 L 18.9223,-8.6807 L 18.8785,-8.6807 L 18.8346,-8.6807 L 18.7907,-8.6807 L 18.7468,-8.6807" />
    </g>
    <g fill="none" stroke="rgb(0,0,0)" stroke-width="0.2" id="Center" stroke-dasharray="6.35 1.27 1.27 1.27">
      <line x1="0.0" y1="-1.9297" x2="-15.4" y2="-1.9297" />
      <line x1="0.0" y1="-1.9297" x2="15.4" y2="-1.9297" />
      <line x1="0.0" y1="-1.9297" x2="0.0" y2="-19.3344" />
      <line x1="0.0" y1="-1.9297" x2="0.0" y2="15.475" />
      <line x1="19.4568" y1="-1.9307" x2="14.6" y2="-1.9307" />
      <line x1="19.4568" y1="-1.9307" x2="24.3136" y2="-1.9307" />
    </g>
  </g>
</svg>