<?xml version='1.0' encoding='utf-8'?>
<svg width="50.1864mm" height="36.88mm" viewBox="-18.9393 -18.44 50.1864 36.88" version="1.1" xmlns="http://www.w3.org/2000/svg">
  <g transform="scale(1,-1)" stroke-linecap="round">
    <g fill="none" stroke="rgb(0,0,0)" stroke-width="0.4" id="Visible">
      <path d="M 13.5011,0.0 L 13.4977,0.3054 L 13.4878,0.6107 L 13.4711,0.9156 L 13.4478,1.2202 L 13.4179,1.5241 L 13.3813,1.8274 L 13.3381,2.1297 L 13.2884,2.4311 L 13.2321,2.7313 L 13.1692,3.0302 L 13.0999,3.3276 L 13.024,3.6235 L 12.9418,3.9176 L 12.8531,4.2099 L 12.7581,4.5002 L 12.6568,4.7883 L 12.5492,5.0741 L 12.4354,5.3576 L 12.3154,5.6385 L 12.1894,5.9167 L 12.0573,6.192 L 11.9192,6.4645 L 11.7753,6.7338 L 11.6254,7.0 L 11.4698,7.2628 L 11.3086,7.5222 L 11.1417,7.778 L 10.9692,8.0301 L 10.7913,8.2783 L 10.608,8.5227 L 10.4195,8.7629 L 10.2257,8.999 L 10.0268,9.2308 L 9.823,9.4583 L 9.6142,9.6812 L 9.4006,9.8995 L 9.1823,10.1131 L 8.9593,10.3219 L 8.7319,10.5258 L 8.5001,10.7246 L 8.264,10.9184 L 8.0237,11.1069 L 7.7794,11.2902 L 7.5311,11.4681 L 7.2791,11.6406 L 7.0233,11.8075 L 6.7639,11.9688 L 6.5011,12.1244 L 6.2349,12.2742 L 5.9656,12.4182 L 5.6931,12.5562 L 5.4177,12.6883 L 5.1395,12.8144 L 4.8586,12.9343 L 4.5752,13.0481 L 4.2894,13.1557 L 4.0012,13.257 L 3.711,13.352 L 3.4187,13.4407 L 3.1245,13.523 L 2.8287,13.5988 L 2.5312,13.6681 L 2.2323,13.731 L 1.9322,13.7873 L 1.6308,13.8371 L 1.3284,13.8802 L 1.0252,13.9168 L 0.7213,13.9467 L 0.4167,13.97 L 0.1117,13.9867 L -0.1935,13.9967 L -0.4989,14.0" />
      <path d="M -0.4989,14.0 L -1.1096,13.9867 L -1.7191,13.9467 L -2.3263,13.8802 L -2.93,13.7873 L -3.5291,13.6681 L -4.1224,13.523 L -4.7088,13.352 L -5.2872,13.1557 L -5.8565,12.9343 L -6.4156,12.6883 L -6.9634,12.4182 L -7.4989,12.1244 L -8.0211,11.8075 L -8.529,11.4681 L -9.0216,11.1069 L -9.4979,10.7246 L -9.9572,10.3219 L -10.3984,9.8995 L -10.8208,9.4583 L -11.2235,8.999 L -11.6059,8.5227 L -11.967,8.0301 L -12.3064,7.5222 L -12.6233,7.0 L -12.9171,6.4645 L -13.1872,5.9167 L -13.4332,5.3576 L -13.6546,4.7883 L -13.851,4.2099 L -14.0219,3.6235 L -14.1671,3.0302 L -14.2862,2.4311 L -14.3791,1.8274 L -14.4456,1.2202 L -14.4856,0.6107 L -14.4989,-0.0 L -14.4856,-0.6107 L -14.4456,-1.2202 L -14.3791,-1.8274 L -14.2862,-2.4311 L -14.1671,-3.0302 L -14.0219,-3.6235 L -13.851,-4.2099 L -13.6546,-4.7883 L -13.4332,-5.3576 L -13.1872,-5.9167 L -12.9171,-6.4645 L -12.6233,-7.0 L -12.3064,-7.5222 L -11.967,-8.0301 L -11.6059,-8.5227 L -11.2235,-8.999 L -10.8208,-9.4583 L -10.3984,-9.8995 L -9.9572,-10.3219 L -9.4979,-10.7246 L -9.0216,-11.1069 L -8.529,-11.4681 L -8.0211,-11.8075 L -7.4989,-12.1244 L -6.9634,-12.4182 L -6.4156,-12.6883 L -5.8565,-12.9343 L -5.2872,-13.1557 L -4.7088,-13.352 L -4.1224,-13.523 L -3.5291,-13.6681 L -2.93,-13.7873 L -2.3263,-13.8802 L -1.7191,-13.9467 L -1.1096,-13.9867 L -0.4989,-14.0" />
      <path d="M -0.4989,-14.0 L -0.1935,-13.9967 L 0.1117,-13.9867 L 0.4167,-13.97 L 0.7213,-13.9467 L 1.0252,-13.9168 L 1.3284,-13.8802 L 1.6308,-13.8371 L 1.9322,-13.7873 L 2.2323,-13.731 L 2.5312,-13.6681 L 2.8287,-13.5988 L 3.1245,-13.523 L 3.4187,-13.4407 L 3.711,-13.352 L 4.0012,-13.257 L 4.2894,-13.1557 L 4.5752,-13.0481 L 4.8586,-12.9343 L 5.1395,-12.8144 L 5.4177,-12.6883 L 5.6931,-12.5562 L 5.9656,-12.4182 L 6.2349,-12.2742 L 6.5011,-12.1244 L 6.7639,-11.9688 L 7.0233,-11.8075 L 7.2791,-11.6406 L 7.5311,-11.4681 L 7.7794,-11.2902 L 8.0237,-11.1069 L 8.264,-10.9184 L 8.5001,-10.7246 L 8.7319,-10.5258 L 8.9593,-10.3219 L 9.1823,-10.1131 L 9.4006,-9.8995 L 9.6142,-9.6812 L 9.823,-9.4583 L 10.0268,-9.2308 L 10.2257,-8.999 L 10.4195,-8.7629 L 10.608,-8.5227 L 10.7913,-8.2783 L 10.9692,-8.0301 L 11.1417,-7.778 L 11.3086,-7.5222 L 11.4698,-7.2628 L 11.6254,-7.0 L 11.7753,-6.7338 L 11.9192,-6.4645 L 12.0573,-6.192 L 12.1894,-5.9167 L 12.3154,-5.6385 L 12.4354,-5.3576 L 12.5492,-5.0741 L 12.6568,-4.7883 L 12.7581,-4.5002 L 12.8531,-4.2099 L 12.9418,-3.9176 L 13.024,-3.6235 L 13.0999,-3.3276 L 13.1692,-3.0302 L 13.2321,-2.7313 L 13.2884,-2.4311 L 13.3381,-2.1297 L 13.3813,-1.8274 L 13.4179,-1.5241 L 13.4478,-1.2202 L 13.4711,-0.9156 L 13.4878,-0.6107 L 13.4977,-0.3054 L 13.5011,-0.0" />
      <path d="M -0.4991,14.0 L -0.4992,14.0 L -0.4993,14.0" />
      <path d="M -0.4993,14.0 L -1.11,13.9867 L -1.7195,13.9467 L -2.3267,13.8802 L -2.9304,13.7873 L -3.5295,13.6681 L -4.1228,13.523 L -4.7092,13.352 L -5.2876,13.1557 L -5.8569,12.9343 L -6.416,12.6883 L -6.9638,12.4182 L -7.4993,12.1244 L -8.0215,11.8075 L -8.5294,11.4681 L -9.022,11.1069 L -9.4983,10.7246 L -9.9576,10.3219 L -10.3988,9.8995 L -10.8212,9.4583 L -11.2239,8.999 L -11.6063,8.5227 L -11.9674,8.0301 L -12.3068,7.5222 L -12.6237,7.0 L -12.9175,6.4645 L -13.1876,5.9167 L -13.4336,5.3576 L -13.655,4.7883 L -13.8514,4.2099 L -14.0223,3.6235 L -14.1675,3.0302 L -14.2866,2.4311 L -14.3795,1.8274 L -14.446,1.2202 L -14.486,0.6107 L -14.4993,0.0 L -14.486,-0.6107 L -14.446,-1.2202 L -14.3795,-1.8274 L -14.2866,-2.4311 L -14.1675,-3.0302 L -14.0223,-3.6235 L -13.8514,-4.2099 L -13.655,-4.7883 L -13.4336,-5.3576 L -13.1876,-5.9167 L -12.9175,-6.4645 L -12.6237,-7.0 L -12.3068,-7.5222 L -11.9674,-8.0301 L -11.6063,-8.5227 L -11.2239,-8.999 L -10.8212,-9.4583 L -10.3988,-9.8995 L -9.9576,-10.3219 L -9.4983,-10.7246 L -9.022,-11.1069 L -8.5294,-11.4681 L -8.0215,-11.8075 L -7.4993,-12.1244 L -6.9638,-12.4182 L -6.416,-12.6883 L -5.8569,-12.9343 L -5.2876,-13.1557 L -4.7092,-13.352 L -4.1228,-13.523 L -3.5295,-13.6681 L -2.9304,-13.7873 L -2.3267,-13.8802 L -1.7195,-13.9467 L -1.11,-13.9867 L -0.4993,-14.0" />
      <path d="M -0.4993,-14.0 L -0.4992,-14.0 L -0.4991,-14.0" />
      <path d="M 5.5011,0.0 L 5.4996,0.1309 L 5.4954,0.2617 L 5.4882,0.3924 L 5.4782,0.5229 L 5.4654,0.6532 L 5.4497,0.7832 L 5.4312,0.9127 L 5.4099,1.0419 L 5.3858,1.1705 L 5.3589,1.2986 L 5.3291,1.4261 L 5.2966,1.5529 L 5.2614,1.679 L 5.2234,1.8042 L 5.1827,1.9286 L 5.1392,2.0521 L 5.0931,2.1746 L 5.0444,2.2961 L 4.9929,2.4165 L 4.9389,2.5357 L 4.8823,2.6537 L 4.8231,2.7705 L 4.7614,2.8859 L 4.6972,3.0 L 4.6305,3.1126 L 4.5614,3.2238 L 4.4899,3.3334 L 4.416,3.4415 L 4.3397,3.5479 L 4.2612,3.6526 L 4.1804,3.7555 L 4.0973,3.8567 L 4.0121,3.9561 L 3.9247,4.0535 L 3.8353,4.1491 L 3.7437,4.2426 L 3.6502,4.3342 L 3.5546,4.4237 L 3.4572,4.511 L 3.3578,4.5963 L 3.2566,4.6793 L 3.1536,4.7601 L 3.0489,4.8387 L 2.9425,4.9149 L 2.8345,4.9888 L 2.7249,5.0603 L 2.6137,5.1295 L 2.5011,5.1962 L 2.387,5.2604 L 2.2716,5.3221 L 2.1548,5.3812 L 2.0368,5.4378 L 1.9176,5.4919 L 1.7972,5.5433 L 1.6757,5.592 L 1.5532,5.6382 L 1.4297,5.6816 L 1.3053,5.7223 L 1.1801,5.7603 L 1.054,5.7956 L 0.9272,5.8281 L 0.7997,5.8578 L 0.6716,5.8847 L 0.543,5.9088 L 0.4138,5.9302 L 0.2842,5.9487 L 0.1543,5.9643 L 0.024,5.9772 L -0.1065,5.9872 L -0.2372,5.9943 L -0.368,5.9986 L -0.4989,6.0" />
      <path d="M -0.4989,6.0 L -0.7606,5.9943 L -1.0219,5.9772 L -1.2821,5.9487 L -1.5408,5.9088 L -1.7976,5.8578 L -2.0518,5.7956 L -2.3032,5.7223 L -2.551,5.6382 L -2.795,5.5433 L -3.0346,5.4378 L -3.2694,5.3221 L -3.4989,5.1962 L -3.7227,5.0603 L -3.9404,4.9149 L -4.1515,4.7601 L -4.3556,4.5963 L -4.5525,4.4237 L -4.7416,4.2426 L -4.9226,4.0535 L -5.0952,3.8567 L -5.259,3.6526 L -5.4138,3.4415 L -5.5593,3.2238 L -5.6951,3.0 L -5.821,2.7705 L -5.9368,2.5357 L -6.0422,2.2961 L -6.1371,2.0521 L -6.2212,1.8042 L -6.2945,1.5529 L -6.3567,1.2986 L -6.4078,1.0419 L -6.4476,0.7832 L -6.4761,0.5229 L -6.4932,0.2617 L -6.4989,-0.0 L -6.4932,-0.2617 L -6.4761,-0.5229 L -6.4476,-0.7832 L -6.4078,-1.0419 L -6.3567,-1.2986 L -6.2945,-1.5529 L -6.2212,-1.8042 L -6.1371,-2.0521 L -6.0422,-2.2961 L -5.9368,-2.5357 L -5.821,-2.7705 L -5.6951,-3.0 L -5.5593,-3.2238 L -5.4138,-3.4415 L -5.259,-3.6526 L -5.0952,-3.8567 L -4.9226,-4.0535 L -4.7416,-4.2426 L -4.5525,-4.4237 L -4.3556,-4.5963 L -4.1515,-4.7601 L -3.9404,-4.9149 L -3.7227,-5.0603 L -3.4989,-5.1962 L -3.2694,-5.3221 L -3.0346,-5.4378 L -2.795,-5.5433 L -2.551,-5.6382 L -2.3032,-5.7223 L -2.0518,-5.7956 L -1.7976,-5.8578 L -1.5408,-5.9088 L -1.2821,-5.9487 L -1.0219,-5.9772 L -0.7606,-5.9943 L -0.4989,-6.0" />
      <path d="M -0.4989,-6.0 L -0.368,-5.9986 L -0.2372,-5.9943 L -0.1065,-5.9872 L 0.024,-5.9772 L 0.1543,-5.9643 L 0.2842,-5.9487 L 0.4138,-5.9302 L 0.543,-5.9088 L 0.6716,-5.8847 L 0.7997,-5.8578 L 0.9272,-5.8281 L 1.054,-5.7956 L 1.1801,-5.7603 L 1.3053,-5.7223 L 1.4297,-5.6816 L 1.5532,-5.6382 L 1.6757,-5.592 L 1.7972,-5.5433 L 1.9176,-5.4919 L 2.0368,-5.4378 L 2.1548,-5.3812 L 2.2716,-5.3221 L 2.387,-5.2604 L 2.5011,-5.1962 L 2.6137,-5.1295 L 2.7249,-5.0603 L 2.8345,-4.9888 L 2.9425,-4.9149 L 3.0489,-4.8387 L 3.1536,-4.7601 L 3.2566,-4.6793 L 3.3578,-4.5963 L 3.4572,-4.511 L 3.5546,-4.4237 L 3.6502,-4.3342 L 3.7437,-4.2426 L 3.8353,-4.1491 L 3.9247,-4.0535 L 4.0121,-3.9561 L 4.0973,-3.8567 L 4.1804,-3.7555 L 4.2612,-3.6526 L 4.3397,-3.5479 L 4.416,-3.4415 L 4.4899,-3.3334 L 4.5614,-3.2238 L 4.6305,-3.1126 L 4.6972,-3.0 L 4.7614,-2.8859 L 4.8231,-2.7705 L 4.8823,-2.6537 L 4.9389,-2.5357 L 4.9929,-2.4165 L 5.0444,-2.2961 L 5.0931,-2.1746 L 5.1392,-2.0521 L 5.1827,-1.9286 L 5.2234,-1.8042 L 5.2614,-1.679 L 5.2966,-1.5529 L 5.3291,-1.4261 L 5.3589,-1.2986 L 5.3858,-1.1705 L 5.4099,-1.0419 L 5.4312,-0.9127 L 5.4497,-0.7832 L 5.4654,-0.6532 L 5.4782,-0.5229 L 5.4882,-0.3924 L 5.4954,-0.2617 L 5.4996,-0.1309 L 5.5011,-0.0" />
      <path d="M 5.5011,-2.5 L 5.5011,-2.4653 L 5.5011,-2.4306 L 5.5011,-2.3958 L 5.5011,-2.3611 L 5.5011,-2.3264 L 5.5011,-2.2917 L 5.5011,-2.2569 L 5.5011,-2.2222 L 5.5011,-2.1875 L 5.5011,-2.1528 L 5.5011,-2.1181 L 5.5011,-2.0833 L 5.5011,-2.0486 L 5.5011,-2.0139 L 5.5011,-1.9792 L 5.5011,-1.9444 L 5.5011,-1.9097 L 5.5011,-1.875 L 5.5011,-1.8403 L 5.5011,-1.8056 L 5.5011,-1.7708 L 5.5011,-1.7361 L 5.5011,-1.7014 L 5.5011,-1.6667 L 5.5011,-1.6319 L 5.5011,-1.5972 L 5.5011,-1.5625 L 5.5011,-1.5278 L 5.5011,-1.4931 L 5.5011,-1.4583 L 5.5011,-1.4236 L 5.5011,-1.3889 L 5.5011,-1.3542 L 5.5011,-1.3194 L 5.5011,-1.2847 L 5.5011,-1.25 L 5.5011,-1.2153 L 5.5011,-1.1806 L 5.5011,-1.1458 L 5.5011,-1.1111 L 5.5011,-1.0764 L 5.5011,-1.0417 L 5.5011,-1.0069 L 5.5011,-0.9722 L 5.5011,-0.9375 L 5.5011,-0.9028 L 5.5011,-0.8681 L 5.5011,-0.8333 L 5.5011,-0.7986 L 5.5011,-0.7639 L 5.5011,-0.7292 L 5.5011,-0.6944 L 5.5011,-0.6597 L 5.5011,-0.625 L 5.5011,-0.5903 L 5.5011,-0.5556 L 5.5011,-0.5208 L 5.5011,-0.4861 L 5.5011,-0.4514 L 5.5011,-0.4167 L 5.5011,-0.3819 L 5.5011,-0.3472 L 5.5011,-0.3125 L 5.5011,-0.2778 L 5.5011,-0.2431 L 5.5011,-0.2083 L 5.5011,-0.1736 L 5.5011,-0.1389 L 5.5011,-0.1042 L 5.5011,-0.0694 L 5.5011,-0.0347 L 5.5011,0.0" />
      <path d="M 5.5011,0.0 L 5.5011,0.0347 L 5.5011,0.0694 L 5.5011,0.1042 L 5.5011,0.1389 L 5.5011,0.1736 L 5.5011,0.2083 L 5.5011,0.2431 L 5.5011,0.2778 L 5.5011,0.3125 L 5.5011,0.3472 L 5.5011,0.3819 L 5.5011,0.4167 L 5.5011,0.4514 L 5.5011,0.4861 L 5.5011,0.5208 L 5.5011,0.5556 L 5.5011,0.5903 L 5.5011,0.625 L 5.5011,0.6597 L 5.5011,0.6944 L 5.5011,0.7292 L 5.5011,0.7639 L 5.5011,0.7986 L 5.5011,0.8333 L 5.5011,0.8681 L 5.5011,0.9028 L 5.5011,0.9375 L 5.5011,0.9722 L 5.5011,1.0069 L 5.5011,1.0417 L 5.5011,1.0764 L 5.5011,1.1111 L 5.5011,1.1458 L 5.5011,1.1806 L 5.5011,1.2153 L 5.5011,1.25 L 5.5011,1.2847 L 5.5011,1.3194 L 5.5011,1.3542 L 5.5011,1.3889 L 5.5011,1.4236 L 5.5011,1.4583 L 5.5011,1.4931 L 5.5011,1.5278 L 5.5011,1.5625 L 5.5011,1.5972 L 5.5011,1.6319 L 5.5011,1.6667 L 5.5011,1.7014 L 5.5011,1.7361 L 5.5011,1.7708 L 5.5011,1.8056 L 5.5011,1.8403 L 5.5011,1.875 L 5.5011,1.9097 L 5.5011,1.9444 L 5.5011,1.9792 L 5.5011,2.0139 L 5.5011,2.0486 L 5.5011,2.0833 L 5.5011,2.1181 L 5.5011,2.1528 L 5.5011,2.1875 L 5.5011,2.2222 L 5.5011,2.2569 L 5.5011,2.2917 L 5.5011,2.3264 L 5.5011,2.3611 L 5.5011,2.3958 L 5.5011,2.4306 L 5.5011,2.4653 L 5.5011,2.5" />
      <path d="M 5.5007,0.0 L 5.4993,0.1309 L 5.495,0.2617 L 5.4878,0.3924 L 5.4778,0.5229 L 5.465,0.6532 L 5.4494,0.7831 L 5.4309,0.9127 L 5.4095,1.0418 L 5.3854,1.1705 L 5.3585,1.2986 L 5.3287,1.4261 L 5.2963,1.5528 L 5.261,1.6789 L 5.223,1.8042 L 5.1823,1.9286 L 5.1389,2.052 L 5.0928,2.1745 L 5.044,2.296 L 4.9926,2.4164 L 4.9386,2.5356 L 4.882,2.6536 L 4.8228,2.7704 L 4.7611,2.8858 L 4.6969,2.9999 L 4.6302,3.1125 L 4.5611,3.2237 L 4.4896,3.3333 L 4.4157,3.4413 L 4.3394,3.5477 L 4.2609,3.6524 L 4.1801,3.7554 L 4.0971,3.8566 L 4.0118,3.9559 L 3.9245,4.0534 L 3.835,4.1489 L 3.7435,4.2425 L 3.6499,4.334 L 3.5544,4.4235 L 3.4569,4.5109 L 3.3576,4.5961 L 3.2564,4.6792 L 3.1534,4.76 L 3.0487,4.8385 L 2.9423,4.9148 L 2.8343,4.9887 L 2.7247,5.0602 L 2.6135,5.1293 L 2.5009,5.196 L 2.3868,5.2602 L 2.2714,5.3219 L 2.1547,5.3811 L 2.0366,5.4377 L 1.9174,5.4918 L 1.7971,5.5432 L 1.6756,5.5919 L 1.5531,5.638 L 1.4296,5.6815 L 1.3052,5.7222 L 1.18,5.7602 L 1.0539,5.7955 L 0.9271,5.828 L 0.7997,5.8577 L 0.6716,5.8846 L 0.5429,5.9088 L 0.4138,5.9301 L 0.2842,5.9486 L 0.1542,5.9643 L 0.024,5.9771 L -0.1065,5.9871 L -0.2372,5.9943 L -0.368,5.9986 L -0.4989,6.0" />
      <path d="M -0.4989,-6.0 L -0.368,-5.9986 L -0.2372,-5.9943 L -0.1065,-5.9871 L 0.024,-5.9771 L 0.1542,-5.9643 L 0.2842,-5.9486 L 0.4138,-5.9301 L 0.5429,-5.9088 L 0.6716,-5.8846 L 0.7997,-5.8577 L 0.9271,-5.828 L 1.0539,-5.7955 L 1.18,-5.7602 L 1.3052,-5.7222 L 1.4296,-5.6815 L 1.5531,-5.638 L 1.6756,-5.5919 L 1.7971,-5.5432 L 1.9174,-5.4918 L 2.0366,-5.4377 L 2.1547,-5.3811 L 2.2714,-5.3219 L 2.3868,-5.2602 L 2.5009,-5.196 L 2.6135,-5.1293 L 2.7247,-5.0602 L 2.8343,-4.9887 L 2.9423,-4.9148 L 3.0487,-4.8385 L 3.1534,-4.76 L 3.2564,-4.6792 L 3.3576,-4.5961 L 3.4569,-4.5109 L 3.5544,-4.4235 L 3.6499,-4.334 L 3.7435,-4.2425 L 3.835,-4.1489 L 3.9245,-4.0534 L 4.0118,-3.9559 L 4.0971,-3.8566 L 4.1801,-3.7554 L 4.2609,-3.6524 L 4.3394,-3.5477 L 4.4157,-3.4413 L 4.4896,-3.3333 L 4.5611,-3.2237 L 4.6302,-3.1125 L 4.6969,-2.9999 L 4.7611,-2.8858 L 4.8228,-2.7704 L 4.882,-2.6536 L 4.9386,-2.5356 L 4.9926,-2.4164 L 5.044,-2.296 L 5.0928,-2.1745 L 5.1389,-2.052 L 5.1823,-1.9286 L 5.223,-1.8042 L 5.261,-1.6789 L 5.2963,-1.5528 L 5.3287,-1.4261 L 5.3585,-1.2986 L 5.3854,-1.1705 L 5.4095,-1.0418 L 5.4309,-0.9127 L 5.4494,-0.7831 L 5.465,-0.6532 L 5.4778,-0.5229 L 5.4878,-0.3924 L 5.495,-0.2617 L 5.4993,-0.1309 L 5.5007,0.0" />
      <path d="M 5.5011,-2.5 L 5.5012,-2.5 L 5.5013,-2.5 L 5.5014,-2.5 L 5.5015,-2.5 L 5.5016,-2.5 L 5.5017,-2.5 L 5.5018,-2.5 L 5.5019,-2.5 L 5.502,-2.5 L 5.5021,-2.5 L 5.5022,-2.5 L 5.5023,-2.5 L 5.5024,-2.5 L 5.5025,-2.5 L 5.5026,-2.5 L 5.5027,-2.5 L 5.5028,-2.5 L 5.5029,-2.5 L 5.503,-2.5 L 5.5031,-2.5 L 5.5032,-2.5 L 5.5033,-2.5 L 5.5034,-2.5 L 5.5035,-2.5 L 5.5036,-2.5 L 5.5037,-2.5 L 5.5038,-2.5 L 5.5039,-2.5 L 5.504,-2.5 L 5.5041,-2.5 L 5.5042,-2.5 L 5.5043,-2.5 L 5.5044,-2.5 L 5.5045,-2.5 L 5.5046,-2.5 L 5.5047,-2.5 L 5.5048,-2.5 L 5.5049,-2.5 L 5.505,-2.5 L 5.5051,-2.5 L 5.5052,-2.5 L 5.5053,-2.5" />
      <path d="M 5.5053,-2.5 L 5.5053,-2.4306 L 5.5053,-2.3611 L 5.5053,-2.2917 L 5.5053,-2.2222 L 5.5053,-2.1528 L 5.5053,-2.0833 L 5.5053,-2.0139 L 5.5053,-1.9444 L 5.5053,-1.875 L 5.5053,-1.8056 L 5.5053,-1.7361 L 5.5053,-1.6667 L 5.5053,-1.5972 L 5.5053,-1.5278 L 5.5053,-1.4583 L 5.5053,-1.3889 L 5.5053,-1.3194 L 5.5053,-1.25 L 5.5053,-1.1806 L 5.5053,-1.1111 L 5.5053,-1.0417 L 5.5053,-0.9722 L 5.5053,-0.9028 L 5.5053,-0.8333 L 5.5053,-0.7639 L 5.5053,-0.6944 L 5.5053,-0.625 L 5.5053,-0.5556 L 5.5053,-0.4861 L 5.5053,-0.4167 L 5.5053,-0.3472 L 5.5053,-0.2778 L 5.5053,-0.2083 L 5.5053,-0.1389 L 5.5053,-0.0694 L 5.5053,0.0 L 5.5053,0.0694 L 5.5053,0.1389 L 5.5053,0.2083 L 5.5053,0.2778 L 5.5053,0.3472 L 5.5053,0.4167 L 5.5053,0.4861 L 5.5053,0.5556 L 5.5053,0.625 L 5.5053,0.6944 L 5.5053,0.7639 L 5.5053,0.8333 L 5.5053,0.9028 L 5.5053,0.9722 L 5.5053,1.0417 L 5.5053,1.1111 L 5.5053,1.1806 L 5.5053,1.25 L 5.5053,1.3194 L 5.5053,1.3889 L 5.5053,1.4583 L 5.5053,1.5278 L 5.5053,1.5972 L 5.5053,1.6667 L 5.5053,1.7361 L 5.5053,1.8056 L 5.5053,1.875 L 5.5053,1.9444 L 5.5053,2.0139 L 5.5053,2.0833 L 5.5053,2.1528 L 5.5053,2.2222 L 5.5053,2.2917 L 5.5053,2.3611 L 5.5053,2.4306 L 5.5053,2.5" />
      <path d="M 5.5011,2.5 L 5.5012,2.5 L 5.5013,2.5 L 5.5014,2.5 L 5.5015,2.5 L 5.5016,2.5 L 5.5017,2.5 L 5.5018,2.5 L 5.5019,2.5 L 5.502,2.5 L 5.5021,2.5 L 5.5022,2.5 L 5.5023,2.5 L 5.5024,2.5 L 5.5025,2.5 L 5.5026,2.5 L 5.5027,2.5 L 5.5028,2.5 L 5.5029,2.5 L 5.503,2.5 L 5.5031,2.5 L 5.5032,2.5 L 5.5033,2.5 L 5.5034,2.5 L 5.5035,2.5 L 5.5036,2.5 L 5.5037,2.5 L 5.5038,2.5 L 5.5039,2.5 L 5.504,2.5 L 5.5041,2.5 L 5.5042,2.5 L 5.5043,2.5 L 5.5044,2.5 L 5.5045,2.5 L 5.5046,2.5 L 5.5047,2.5 L 5.5048,2.5 L 5.5049,2.5 L 5.505,2.5 L 5.5051,2.5 L 5.5052,2.5 L 5.5053,2.5" />
      <path d="M 5.5053,-2.5 L 5.5164,-2.5 L 5.5275,-2.5 L 5.5387,-2.5 L 5.5498,-2.5 L 5.5609,-2.5 L 5.572,-2.5 L 5.5831,-2.5 L 5.5942,-2.5 L 5.6053,-2.5 L 5.6164,-2.5 L 5.6275,-2.5 L 5.6387,-2.5 L 5.6498,-2.5 L 5.6609,-2.5 L 5.672,-2.5 L 5.6831,-2.5 L 5.6942,-2.5 L 5.7053,-2.5 L 5.7164,-2.5 L 5.7275,-2.5 L 5.7387,-2.5 L 5.7498,-2.5 L 5.7609,-2.5 L 5.772,-2.5 L 5.7831,-2.5 L 5.7942,-2.5 L 5.8053,-2.5 L 5.8164,-2.5 L 5.8275,-2.5 L 5.8387,-2.5 L 5.8498,-2.5 L 5.8609,-2.5 L 5.872,-2.5 L 5.8831,-2.5 L 5.8942,-2.5 L 5.9053,-2.5 L 5.9164,-2.5 L 5.9275,-2.5 L 5.9387,-2.5 L 5.9498,-2.5 L 5.9609,-2.5 L 5.972,-2.5 L 5.9831,-2.5 L 5.9942,-2.5 L 6.0053,-2.5 L 6.0164,-2.5 L 6.0275,-2.5 L 6.0387,-2.5 L 6.0498,-2.5 L 6.0609,-2.5 L 6.072,-2.5 L 6.0831,-2.5 L 6.0942,-2.5 L 6.1053,-2.5 L 6.1164,-2.5 L 6.1275,-2.5 L 6.1387,-2.5 L 6.1498,-2.5 L 6.1609,-2.5 L 6.172,-2.5 L 6.1831,-2.5 L 6.1942,-2.5 L 6.2053,-2.5 L 6.2164,-2.5 L 6.2275,-2.5 L 6.2387,-2.5 L 6.2498,-2.5 L 6.2609,-2.5 L 6.272,-2.5 L 6.2831,-2.5 L 6.2942,-2.5 L 6.3053,-2.5" />
      <path d="M 6.3053,-2.5 L 6.3053,-2.4306 L 6.3053,-2.3611 L 6.3053,-2.2917 L 6.3053,-2.2222 L 6.3053,-2.1528 L 6.3053,-2.0833 L 6.3053,-2.0139 L 6.3053,-1.9444 L 6.3053,-1.875 L 6.3053,-1.8056 L 6.3053,-1.7361 L 6.3053,-1.6667 L 6.3053,-1.5972 L 6.3053,-1.5278 L 6.3053,-1.4583 L 6.3053,-1.3889 L 6.3053,-1.3194 L 6.3053,-1.25 L 6.3053,-1.1806 L 6.3053,-1.1111 L 6.3053,-1.0417 L 6.3053,-0.9722 L 6.3053,-0.9028 L 6.3053,-0.8333 L 6.3053,-0.7639 L 6.3053,-0.6944 L 6.3053,-0.625 L 6.3053,-0.5556 L 6.3053,-0.4861 L 6.3053,-0.4167 L 6.3053,-0.3472 L 6.3053,-0.2778 L 6.3053,-0.2083 L 6.3053,-0.1389 L 6.3053,-0.0694 L 6.3053,0.0 L 6.3053,0.0694 L 6.3053,0.1389 L 6.3053,0.2083 L 6.3053,0.2778 L 6.3053,0.3472 L 6.3053,0.4167 L 6.3053,0.4861 L 6.3053,0.5556 L 6.3053,0.625 L 6.3053,0.6944 L 6.3053,0.7639 L 6.3053,0.8333 L 6.3053,0.9028 L 6.3053,0.9722 L 6.3053,1.0417 L 6.3053,1.1111 L 6.3053,1.1806 L 6.3053,1.25 L 6.3053,1.3194 L 6.3053,1.3889 L 6.3053,1.4583 L 6.3053,1.5278 L 6.3053,1.5972 L 6.3053,1.6667 L 6.3053,1.7361 L 6.3053,1.8056 L 6.3053,1.875 L 6.3053,1.9444 L 6.3053,2.0139 L 6.3053,2.0833 L 6.3053,2.1528 L 6.3053,2.2222 L 6.3053,2.2917 L 6.3053,2.3611 L 6.3053,2.4306 L 6.3053,2.5" />
      <path d="M 5.5053,2.5 L 5.5164,2.5 L 5.5275,2.5 L 5.5387,2.5 L 5.5498,2.5 L 5.5609,2.5 L 5.572,2.5 L 5.5831,2.5 L 5.5942,2.5 L 5.6053,2.5 L 5.6164,2.5 L 5.6275,2.5 L 5.6387,2.5 L 5.6498,2.5 L 5.6609,2.5 L 5.672,2.5 L 5.6831,2.5 L 5.6942,2.5 L 5.7053,2.5 L 5.7164,2.5 L 5.7275,2.5 L 5.7387,2.5 L 5.7498,2.5 L 5.7609,2.5 L 5.772,2.5 L 5.7831,2.5 L 5.7942,2.5 L 5.8053,2.5 L 5.8164,2.5 L 5.8275,2.5 L 5.8387,2.5 L 5.8498,2.5 L 5.8609,2.5 L 5.872,2.5 L 5.8831,2.5 L 5.8942,2.5 L 5.9053,2.5 L 5.9164,2.5 L 5.9275,2.5 L 5.9387,2.5 L 5.9498,2.5 L 5.9609,2.5 L 5.972,2.5 L 5.9831,2.5 L 5.9942,2.5 L 6.0053,2.5 L 6.0164,2.5 L 6.0275,2.5 L 6.0387,2.5 L 6.0498,2.5 L 6.0609,2.5 L 6.072,2.5 L 6.0831,2.5 L 6.0942,2.5 L 6.1053,2.5 L 6.1164,2.5 L 6.1275,2.5 L 6.1387,2.5 L 6.1498,2.5 L 6.1609,2.5 L 6.172,2.5 L 6.1831,2.5 L 6.1942,2.5 L 6.2053,2.5 L 6.2164,2.5 L 6.2275,2.5 L 6.2387,2.5 L 6.2498,2.5 L 6.2609,2.5 L 6.272,2.5 L 6.2831,2.5 L 6.2942,2.5 L 6.3053,2.5" />
      <path d="M 26.002,-14.4989 L 26.0008,-14.1101 L 26.0003,-13.7212 L 26.0,-13.3323 L 25.9997,-12.9434 L 25.9994,-12.5545 L 25.9992,-12.1656 L 25.999,-11.7767 L 25.9988,-11.3878 L 25.9986,-10.9989 L 25.9985,-10.6101 L 25.9983,-10.2212 L 25.9982,-9.8323 L 25.9981,-9.4434 L 25.998,-9.0545 L 25.9979,-8.6656 L 25.9978,-8.2767 L 25.9977,-7.8878 L 25.9976,-7.4989 L 25.9975,-7.1101 L 25.9974,-6.7212 L 25.9974,-6.3323 L 25.9973,-5.9434 L 25.9973,-5.5545 L 25.9972,-5.1656 L 25.9972,-4.7767 L 25.9971,-4.3878 L 25.9971,-3.9989 L 25.997,-3.6101 L 25.997,-3.2212 L 25.997,-2.8323 L 25.997,-2.4434 L 25.9969,-2.0545 L 25.9969,-1.6656 L 25.9969,-1.2767 L 25.9969,-0.8878 L 25.9969,-0.4989 L 25.9969,-0.1101 L 25.9969,0.2788 L 25.9969,0.6677 L 25.9969,1.0566 L 25.997,1.4455 L 25.997,1.8344 L 25.997,2.2233 L 25.997,2.6122 L 25.9971,3.0011 L 25.9971,3.3899 L 25.9971,3.7788 L 25.9972,4.1677 L 25.9972,4.5566 L 25.9973,4.9455 L 25.9974,5.3344 L 25.9974,5.7233 L 25.9975,6.1122 L 25.9976,6.5011 L 25.9977,6.8899 L 25.9978,7.2788 L 25.9979,7.6677 L 25.998,8.0566 L 25.9981,8.4455 L 25.9982,8.8344 L 25.9983,9.2233 L 25.9985,9.6122 L 25.9986,10.0011 L 25.9988,10.39 L 25.999,10.7788 L 25.9992,11.1677 L 25.9994,11.5566 L 25.9997,11.9455 L 26.0,12.3344 L 26.0003,12.7233 L 26.0008,13.1122 L 26.002,13.5011" />
      <path d="M 26.802,13.5011 L 26.8032,13.1122 L 26.8036,12.7233 L 26.804,12.3344 L 26.8043,11.9455 L 26.8046,11.5566 L 26.8048,11.1677 L 26.805,10.7788 L 26.8052,10.39 L 26.8053,10.0011 L 26.8055,9.6122 L 26.8056,9.2233 L 26.8058,8.8344 L 26.8059,8.4455 L 26.806,8.0566 L 26.8061,7.6677 L 26.8062,7.2788 L 26.8063,6.8899 L 26.8064,6.5011 L 26.8065,6.1122 L 26.8065,5.7233 L 26.8066,5.3344 L 26.8067,4.9455 L 26.8067,4.5566 L 26.8068,4.1677 L 26.8068,3.7788 L 26.8069,3.3899 L 26.8069,3.0011 L 26.8069,2.6122 L 26.807,2.2233 L 26.807,1.8344 L 26.807,1.4455 L 26.807,1.0566 L 26.807,0.6677 L 26.807,0.2788 L 26.8071,-0.1101 L 26.8071,-0.4989 L 26.8071,-0.8878 L 26.807,-1.2767 L 26.807,-1.6656 L 26.807,-2.0545 L 26.807,-2.4434 L 26.807,-2.8323 L 26.807,-3.2212 L 26.8069,-3.6101 L 26.8069,-3.9989 L 26.8069,-4.3878 L 26.8068,-4.7767 L 26.8068,-5.1656 L 26.8067,-5.5545 L 26.8067,-5.9434 L 26.8066,-6.3323 L 26.8065,-6.7212 L 26.8065,-7.1101 L 26.8064,-7.4989 L 26.8063,-7.8878 L 26.8062,-8.2767 L 26.8061,-8.6656 L 26.806,-9.0545 L 26.8059,-9.4434 L 26.8058,-9.8323 L 26.8056,-10.2212 L 26.8055,-10.6101 L 26.8053,-10.9989 L 26.8052,-11.3878 L 26.805,-11.7767 L 26.8048,-12.1656 L 26.8046,-12.5545 L 26.8043,-12.9434 L 26.804,-13.3323 L 26.8037,-13.7212 L 26.8032,-14.1101 L 26.802,-14.4989" />
      <path d="M 26.802,-14.4989 L 26.8008,-14.1101 L 26.8003,-13.7212 L 26.8,-13.3323 L 26.7997,-12.9434 L 26.7994,-12.5545 L 26.7992,-12.1656 L 26.799,-11.7767 L 26.7988,-11.3878 L 26.7986,-10.9989 L 26.7985,-10.6101 L 26.7983,-10.2212 L 26.7982,-9.8323 L 26.7981,-9.4434 L 26.798,-9.0545 L 26.7979,-8.6656 L 26.7978,-8.2767 L 26.7977,-7.8878 L 26.7976,-7.4989 L 26.7975,-7.1101 L 26.7974,-6.7212 L 26.7974,-6.3323 L 26.7973,-5.9434 L 26.7973,-5.5545 L 26.7972,-5.1656 L 26.7972,-4.7767 L 26.7971,-4.3878 L 26.7971,-3.9989 L 26.797,-3.6101 L 26.797,-3.2212 L 26.797,-2.8323 L 26.797,-2.4434 L 26.7969,-2.0545 L 26.7969,-1.6656 L 26.7969,-1.2767 L 26.7969,-0.8878 L 26.7969,-0.4989 L 26.7969,-0.1101 L 26.7969,0.2788 L 26.7969,0.6677 L 26.7969,1.0566 L 26.797,1.4455 L 26.797,1.8344 L 26.797,2.2233 L 26.797,2.6122 L 26.7971,3.0011 L 26.7971,3.3899 L 26.7971,3.7788 L 26.7972,4.1677 L 26.7972,4.5566 L 26.7973,4.9455 L 26.7974,5.3344 L 26.7974,5.7233 L 26.7975,6.1122 L 26.7976,6.5011 L 26.7977,6.8899 L 26.7978,7.2788 L 26.7979,7.6677 L 26.798,8.0566 L 26.7981,8.4455 L 26.7982,8.8344 L 26.7983,9.2233 L 26.7985,9.6122 L 26.7986,10.0011 L 26.7988,10.39 L 26.799,10.7788 L 26.7992,11.1677 L 26.7994,11.5566 L 26.7997,11.9455 L 26.8,12.3344 L 26.8003,12.7233 L 26.8008,13.1122 L 26.802,13.5011" />
      <path d="M 26.802,5.5011 L 26.8025,5.3344 L 26.8027,5.1677 L 26.8029,5.0011 L 26.803,4.8344 L 26.8031,4.6677 L 26.8032,4.5011 L 26.8033,4.3344 L 26.8033,4.1677 L 26.8034,4.0011 L 26.8035,3.8344 L 26.8035,3.6677 L 26.8036,3.5011 L 26.8037,3.3344 L 26.8037,3.1677 L 26.8037,3.0011 L 26.8038,2.8344 L 26.8038,2.6677 L 26.8039,2.5011 L 26.8039,2.3344 L 26.8039,2.1677 L 26.804,2.0011 L 26.804,1.8344 L 26.804,1.6677 L 26.804,1.5011 L 26.8041,1.3344 L 26.8041,1.1677 L 26.8041,1.0011 L 26.8041,0.8344 L 26.8041,0.6677 L 26.8041,0.5011 L 26.8041,0.3344 L 26.8041,0.1677 L 26.8041,0.0011 L 26.8042,-0.1656 L 26.8042,-0.3323 L 26.8042,-0.4989 L 26.8042,-0.6656 L 26.8042,-0.8323 L 26.8041,-0.9989 L 26.8041,-1.1656 L 26.8041,-1.3323 L 26.8041,-1.4989 L 26.8041,-1.6656 L 26.8041,-1.8323 L 26.8041,-1.9989 L 26.8041,-2.1656 L 26.8041,-2.3323 L 26.804,-2.4989 L 26.804,-2.6656 L 26.804,-2.8323 L 26.804,-2.9989 L 26.8039,-3.1656 L 26.8039,-3.3323 L 26.8039,-3.4989 L 26.8038,-3.6656 L 26.8038,-3.8323 L 26.8037,-3.9989 L 26.8037,-4.1656 L 26.8037,-4.3323 L 26.8036,-4.4989 L 26.8035,-4.6656 L 26.8035,-4.8323 L 26.8034,-4.9989 L 26.8033,-5.1656 L 26.8033,-5.3323 L 26.8032,-5.4989 L 26.8031,-5.6656 L 26.803,-5.8323 L 26.8029,-5.9989 L 26.8027,-6.1656 L 26.8025,-6.3323 L 26.802,-6.4989" />
      <path d="M 26.802,-6.4989 L 26.8015,-6.3323 L 26.8013,-6.1656 L 26.8011,-5.9989 L 26.801,-5.8323 L 26.8009,-5.6656 L 26.8008,-5.4989 L 26.8007,-5.3323 L 26.8006,-5.1656 L 26.8005,-4.9989 L 26.8005,-4.8323 L 26.8004,-4.6656 L 26.8004,-4.4989 L 26.8003,-4.3323 L 26.8003,-4.1656 L 26.8002,-3.9989 L 26.8002,-3.8323 L 26.8001,-3.6656 L 26.8001,-3.4989 L 26.8001,-3.3323 L 26.8,-3.1656 L 26.8,-2.9989 L 26.8,-2.8323 L 26.8,-2.6656 L 26.7999,-2.4989 L 26.7999,-2.3323 L 26.7999,-2.1656 L 26.7999,-1.9989 L 26.7999,-1.8323 L 26.7998,-1.6656 L 26.7998,-1.4989 L 26.7998,-1.3323 L 26.7998,-1.1656 L 26.7998,-0.9989 L 26.7998,-0.8323 L 26.7998,-0.6656 L 26.7998,-0.4989 L 26.7998,-0.3323 L 26.7998,-0.1656 L 26.7998,0.0011 L 26.7998,0.1677 L 26.7998,0.3344 L 26.7998,0.5011 L 26.7998,0.6677 L 26.7999,0.8344 L 26.7999,1.0011 L 26.7999,1.1677 L 26.7999,1.3344 L 26.7999,1.5011 L 26.8,1.6677 L 26.8,1.8344 L 26.8,2.0011 L 26.8,2.1677 L 26.8001,2.3344 L 26.8001,2.5011 L 26.8001,2.6677 L 26.8002,2.8344 L 26.8002,3.0011 L 26.8003,3.1677 L 26.8003,3.3344 L 26.8004,3.5011 L 26.8004,3.6677 L 26.8005,3.8344 L 26.8005,4.0011 L 26.8006,4.1677 L 26.8007,4.3344 L 26.8008,4.5011 L 26.8009,4.6677 L 26.801,4.8344 L 26.8011,5.0011 L 26.8013,5.1677 L 26.8015,5.3344 L 26.802,5.5011" />
      <path d="M 25.9974,5.5023 L 25.8794,5.5023 L 25.7614,5.5023 L 25.6434,5.5023 L 25.5254,5.5023 L 25.4074,5.5023 L 25.2894,5.5023 L 25.1714,5.5023 L 25.0534,5.5023 L 24.9354,5.5023 L 24.8174,5.5023 L 24.6993,5.5023 L 24.5813,5.5023 L 24.4633,5.5023 L 24.3453,5.5023 L 24.2273,5.5023 L 24.1093,5.5023 L 23.9913,5.5023 L 23.8733,5.5023 L 23.7553,5.5023 L 23.6373,5.5023 L 23.5193,5.5023 L 23.4013,5.5023 L 23.2833,5.5023 L 23.1653,5.5023 L 23.0473,5.5023 L 22.9293,5.5023 L 22.8113,5.5023 L 22.6933,5.5023 L 22.5753,5.5023 L 22.4573,5.5023 L 22.3393,5.5023 L 22.2213,5.5023 L 22.1032,5.5023 L 21.9852,5.5023 L 21.8672,5.5023 L 21.7492,5.5023 L 21.6312,5.5023 L 21.5132,5.5023 L 21.3952,5.5023 L 21.2772,5.5023 L 21.1592,5.5023 L 21.0412,5.5023 L 20.9232,5.5023 L 20.8052,5.5023 L 20.6872,5.5023 L 20.5692,5.5023 L 20.4512,5.5023 L 20.3332,5.5023 L 20.2152,5.5023 L 20.0972,5.5023 L 19.9792,5.5023 L 19.8612,5.5023 L 19.7432,5.5023 L 19.6252,5.5023 L 19.5072,5.5023 L 19.3891,5.5023 L 19.2711,5.5023 L 19.1531,5.5023 L 19.0351,5.5023 L 18.9171,5.5023 L 18.7991,5.5023 L 18.6811,5.5023 L 18.5631,5.5023 L 18.4451,5.5023 L 18.3271,5.5023 L 18.2091,5.5023 L 18.0911,5.5023 L 17.9731,5.5023 L 17.8551,5.5023 L 17.7371,5.5023 L 17.6191,5.5023 L 17.5011,5.5023" />
      <path d="M 17.5011,5.5023 L 17.5011,5.5022 L 17.5012,5.5022 L 17.5012,5.5021 L 17.5013,5.5021 L 17.5013,5.502 L 17.5014,5.5019 L 17.5014,5.5018 L 17.5015,5.5018 L 17.5015,5.5017 L 17.5016,5.5016 L 17.5016,5.5015 L 17.5017,5.5015 L 17.5017,5.5014 L 17.5018,5.5014 L 17.5018,5.5013 L 17.5019,5.5012 L 17.5019,5.5011 L 17.502,5.5011 L 17.502,5.501 L 17.5021,5.501 L 17.5021,5.5009 L 17.5021,5.5008 L 17.5022,5.5008 L 17.5022,5.5007 L 17.5023,5.5007 L 17.5023,5.5006 L 17.5024,5.5005 L 17.5024,5.5004 L 17.5025,5.5004 L 17.5025,5.5003 L 17.5026,5.5003 L 17.5026,5.5002 L 17.5027,5.5001 L 17.5027,5.5 L 17.5028,5.5 L 17.5028,5.4999 L 17.5029,5.4998" />
      <path d="M 25.9974,5.4998 L 25.8794,5.4998 L 25.7614,5.4998 L 25.6435,5.4998 L 25.5255,5.4998 L 25.4075,5.4998 L 25.2895,5.4998 L 25.1715,5.4998 L 25.0536,5.4998 L 24.9356,5.4998 L 24.8176,5.4998 L 24.6996,5.4998 L 24.5816,5.4998 L 24.4637,5.4998 L 24.3457,5.4998 L 24.2277,5.4998 L 24.1097,5.4998 L 23.9917,5.4998 L 23.8738,5.4998 L 23.7558,5.4998 L 23.6378,5.4998 L 23.5198,5.4998 L 23.4019,5.4998 L 23.2839,5.4998 L 23.1659,5.4998 L 23.0479,5.4998 L 22.9299,5.4998 L 22.812,5.4998 L 22.694,5.4998 L 22.576,5.4998 L 22.458,5.4998 L 22.34,5.4998 L 22.2221,5.4998 L 22.1041,5.4998 L 21.9861,5.4998 L 21.8681,5.4998 L 21.7501,5.4998 L 21.6322,5.4998 L 21.5142,5.4998 L 21.3962,5.4998 L 21.2782,5.4998 L 21.1602,5.4998 L 21.0423,5.4998 L 20.9243,5.4998 L 20.8063,5.4998 L 20.6883,5.4998 L 20.5703,5.4998 L 20.4524,5.4998 L 20.3344,5.4998 L 20.2164,5.4998 L 20.0984,5.4998 L 19.9805,5.4998 L 19.8625,5.4998 L 19.7445,5.4998 L 19.6265,5.4998 L 19.5085,5.4998 L 19.3906,5.4998 L 19.2726,5.4998 L 19.1546,5.4998 L 19.0366,5.4998 L 18.9186,5.4998 L 18.8007,5.4998 L 18.6827,5.4998 L 18.5647,5.4998 L 18.4467,5.4998 L 18.3287,5.4998 L 18.2108,5.4998 L 18.0928,5.4998 L 17.9748,5.4998 L 17.8568,5.4998 L 17.7388,5.4998 L 17.6209,5.4998 L 17.5029,5.4998" />
      <path d="M 25.9975,6.3023 L 25.8795,6.3023 L 25.7615,6.3023 L 25.6435,6.3023 L 25.5255,6.3023 L 25.4075,6.3023 L 25.2895,6.3023 L 25.1715,6.3023 L 25.0535,6.3023 L 24.9355,6.3023 L 24.8175,6.3023 L 24.6995,6.3023 L 24.5815,6.3023 L 24.4635,6.3023 L 24.3455,6.3023 L 24.2274,6.3023 L 24.1094,6.3023 L 23.9914,6.3023 L 23.8734,6.3023 L 23.7554,6.3023 L 23.6374,6.3023 L 23.5194,6.3023 L 23.4014,6.3023 L 23.2834,6.3023 L 23.1654,6.3023 L 23.0474,6.3023 L 22.9294,6.3023 L 22.8114,6.3023 L 22.6934,6.3023 L 22.5754,6.3023 L 22.4573,6.3023 L 22.3393,6.3023 L 22.2213,6.3023 L 22.1033,6.3023 L 21.9853,6.3023 L 21.8673,6.3023 L 21.7493,6.3023 L 21.6313,6.3023 L 21.5133,6.3023 L 21.3953,6.3023 L 21.2773,6.3023 L 21.1593,6.3023 L 21.0413,6.3023 L 20.9233,6.3023 L 20.8053,6.3023 L 20.6873,6.3023 L 20.5692,6.3023 L 20.4512,6.3023 L 20.3332,6.3023 L 20.2152,6.3023 L 20.0972,6.3023 L 19.9792,6.3023 L 19.8612,6.3023 L 19.7432,6.3023 L 19.6252,6.3023 L 19.5072,6.3023 L 19.3892,6.3023 L 19.2712,6.3023 L 19.1532,6.3023 L 19.0352,6.3023 L 18.9172,6.3023 L 18.7991,6.3023 L 18.6811,6.3023 L 18.5631,6.3023 L 18.4451,6.3023 L 18.3271,6.3023 L 18.2091,6.3023 L 18.0911,6.3023 L 17.9731,6.3023 L 17.8551,6.3023 L 17.7371,6.3023 L 17.6191,6.3023 L 17.5011,6.3023" />
      <path d="M 17.5011,5.5023 L 17.5011,5.5134 L 17.5011,5.5245 L 17.5011,5.5356 L 17.5011,5.5467 L 17.5011,5.5579 L 17.5011,5.569 L 17.5011,5.5801 L 17.5011,5.5912 L 17.5011,5.6023 L 17.5011,5.6134 L 17.5011,5.6245 L 17.5011,5.6356 L 17.5011,5.6467 L 17.5011,5.6579 L 17.5011,5.669 L 17.5011,5.6801 L 17.5011,5.6912 L 17.5011,5.7023 L 17.5011,5.7134 L 17.5011,5.7245 L 17.5011,5.7356 L 17.5011,5.7467 L 17.5011,5.7579 L 17.5011,5.769 L 17.5011,5.7801 L 17.5011,5.7912 L 17.5011,5.8023 L 17.5011,5.8134 L 17.5011,5.8245 L 17.5011,5.8356 L 17.5011,5.8467 L 17.5011,5.8579 L 17.5011,5.869 L 17.5011,5.8801 L 17.5011,5.8912 L 17.5011,5.9023 L 17.5011,5.9134 L 17.5011,5.9245 L 17.5011,5.9356 L 17.5011,5.9467 L 17.5011,5.9579 L 17.5011,5.969 L 17.5011,5.9801 L 17.5011,5.9912 L 17.5011,6.0023 L 17.5011,6.0134 L 17.5011,6.0245 L 17.5011,6.0356 L 17.5011,6.0467 L 17.5011,6.0579 L 17.5011,6.069 L 17.5011,6.0801 L 17.5011,6.0912 L 17.5011,6.1023 L 17.5011,6.1134 L 17.5011,6.1245 L 17.5011,6.1356 L 17.5011,6.1467 L 17.5011,6.1579 L 17.5011,6.169 L 17.5011,6.1801 L 17.5011,6.1912 L 17.5011,6.2023 L 17.5011,6.2134 L 17.5011,6.2245 L 17.5011,6.2356 L 17.5011,6.2467 L 17.5011,6.2579 L 17.5011,6.269 L 17.5011,6.2801 L 17.5011,6.2912 L 17.5011,6.3023" />
      <path d="M 26.802,13.5011 L 26.7909,13.5011 L 26.7798,13.5011 L 26.7686,13.5011 L 26.7575,13.5011 L 26.7464,13.5011 L 26.7353,13.5011 L 26.7242,13.5011 L 26.7131,13.5011 L 26.702,13.5011 L 26.6909,13.5011 L 26.6798,13.5011 L 26.6686,13.5011 L 26.6575,13.5011 L 26.6464,13.5011 L 26.6353,13.5011 L 26.6242,13.5011 L 26.6131,13.5011 L 26.602,13.5011 L 26.5909,13.5011 L 26.5798,13.5011 L 26.5686,13.5011 L 26.5575,13.5011 L 26.5464,13.5011 L 26.5353,13.5011 L 26.5242,13.5011 L 26.5131,13.5011 L 26.502,13.5011 L 26.4909,13.5011 L 26.4798,13.5011 L 26.4686,13.5011 L 26.4575,13.5011 L 26.4464,13.5011 L 26.4353,13.5011 L 26.4242,13.5011 L 26.4131,13.5011 L 26.402,13.5011 L 26.3909,13.5011 L 26.3798,13.5011 L 26.3686,13.5011 L 26.3575,13.5011 L 26.3464,13.5011 L 26.3353,13.5011 L 26.3242,13.5011 L 26.3131,13.5011 L 26.302,13.5011 L 26.2909,13.5011 L 26.2798,13.5011 L 26.2686,13.5011 L 26.2575,13.5011 L 26.2464,13.5011 L 26.2353,13.5011 L 26.2242,13.5011 L 26.2131,13.5011 L 26.202,13.5011 L 26.1909,13.5011 L 26.1798,13.5011 L 26.1686,13.5011 L 26.1575,13.5011 L 26.1464,13.5011 L 26.1353,13.5011 L 26.1242,13.5011 L 26.1131,13.5011 L 26.102,13.5011 L 26.0909,13.5011 L 26.0798,13.5011 L 26.0686,13.5011 L 26.0575,13.5011 L 26.0464,13.5011 L 26.0353,13.5011 L 26.0242,13.5011 L 26.0131,13.5011 L 26.002,13.5011" />
      <path d="M 26.802,-14.4989 L 26.7909,-14.4989 L 26.7798,-14.4989 L 26.7687,-14.4989 L 26.7575,-14.4989 L 26.7464,-14.4989 L 26.7353,-14.4989 L 26.7242,-14.4989 L 26.7131,-14.4989 L 26.702,-14.4989 L 26.6909,-14.4989 L 26.6798,-14.4989 L 26.6687,-14.4989 L 26.6575,-14.4989 L 26.6464,-14.4989 L 26.6353,-14.4989 L 26.6242,-14.4989 L 26.6131,-14.4989 L 26.602,-14.4989 L 26.5909,-14.4989 L 26.5798,-14.4989 L 26.5687,-14.4989 L 26.5575,-14.4989 L 26.5464,-14.4989 L 26.5353,-14.4989 L 26.5242,-14.4989 L 26.5131,-14.4989 L 26.502,-14.4989 L 26.4909,-14.4989 L 26.4798,-14.4989 L 26.4687,-14.4989 L 26.4575,-14.4989 L 26.4464,-14.4989 L 26.4353,-14.4989 L 26.4242,-14.4989 L 26.4131,-14.4989 L 26.402,-14.4989 L 26.3909,-14.4989 L 26.3798,-14.4989 L 26.3687,-14.4989 L 26.3575,-14.4989 L 26.3464,-14.4989 L 26.3353,-14.4989 L 26.3242,-14.4989 L 26.3131,-14.4989 L 26.302,-14.4989 L 26.2909,-14.4989 L 26.2798,-14.4989 L 26.2687,-14.4989 L 26.2575,-14.4989 L 26.2464,-14.4989 L 26.2353,-14.4989 L 26.2242,-14.4989 L 26.2131,-14.4989 L 26.202,-14.4989 L 26.1909,-14.4989 L 26.1798,-14.4989 L 26.1687,-14.4989 L 26.1575,-14.4989 L 26.1464,-14.4989 L 26.1353,-14.4989 L 26.1242,-14.4989 L 26.1131,-14.4989 L 26.102,-14.4989 L 26.0909,-14.4989 L 26.0798,-14.4989 L 26.0687,-14.4989 L 26.0575,-14.4989 L 26.0464,-14.4989 L 26.0353,-14.4989 L 26.0242,-14.4989 L 26.0131,-14.4989 L 26.002,-14.4989" />
    </g>
    <g fill="none" stroke="rgb(110,110,110)" stroke-width="0.3" id="Hidden" stroke-dasharray="3.6 0.9">
      <path d="M 13.5007,0.0 L 13.4973,0.3054 L 13.4874,0.6107 L 13.4707,0.9156 L 13.4474,1.2202 L 13.4175,1.5241 L 13.3809,1.8274 L 13.3377,2.1297 L 13.288,2.4311 L 13.2317,2.7312 L 13.1688,3.0301 L 13.0995,3.3276 L 13.0236,3.6234 L 12.9414,3.9176 L 12.8527,4.2098 L 12.7577,4.5001 L 12.6564,4.7882 L 12.5488,5.0741 L 12.435,5.3575 L 12.3151,5.6384 L 12.189,5.9166 L 12.0569,6.192 L 11.9189,6.4644 L 11.7749,6.7338 L 11.6251,6.9999 L 11.4695,7.2628 L 11.3082,7.5221 L 11.1413,7.7779 L 10.9689,8.03 L 10.7909,8.2783 L 10.6077,8.5226 L 10.4191,8.7629 L 10.2254,8.999 L 10.0265,9.2308 L 9.8226,9.4582 L 9.6138,9.6811 L 9.4002,9.8994 L 9.1819,10.113 L 8.959,10.3218 L 8.7316,10.5257 L 8.4998,10.7246 L 8.2637,10.9183 L 8.0234,11.1069 L 7.7791,11.2902 L 7.5308,11.4681 L 7.2788,11.6405 L 7.023,11.8074 L 6.7636,11.9687 L 6.5008,12.1243 L 6.2346,12.2741 L 5.9653,12.4181 L 5.6928,12.5562 L 5.4175,12.6882 L 5.1393,12.8143 L 4.8584,12.9343 L 4.575,13.0481 L 4.2891,13.1556 L 4.001,13.257 L 3.7107,13.352 L 3.4184,13.4407 L 3.1243,13.5229 L 2.8284,13.5987 L 2.531,13.6681 L 2.2321,13.731 L 1.9319,13.7873 L 1.6306,13.837 L 1.3282,13.8802 L 1.025,13.9168 L 0.721,13.9467 L 0.4165,13.97 L 0.1115,13.9867 L -0.1937,13.9967 L -0.4991,14.0" />
      <path d="M -0.4991,-14.0 L -0.1937,-13.9967 L 0.1115,-13.9867 L 0.4165,-13.97 L 0.721,-13.9467 L 1.025,-13.9168 L 1.3282,-13.8802 L 1.6306,-13.837 L 1.9319,-13.7873 L 2.2321,-13.731 L 2.531,-13.6681 L 2.8284,-13.5987 L 3.1243,-13.5229 L 3.4184,-13.4407 L 3.7107,-13.352 L 4.001,-13.257 L 4.2891,-13.1556 L 4.575,-13.0481 L 4.8584,-12.9343 L 5.1393,-12.8143 L 5.4175,-12.6882 L 5.6928,-12.5562 L 5.9653,-12.4181 L 6.2346,-12.2741 L 6.5008,-12.1243 L 6.7636,-11.9687 L 7.023,-11.8074 L 7.2788,-11.6405 L 7.5308,-11.4681 L 7.7791,-11.2902 L 8.0234,-11.1069 L 8.2637,-10.9183 L 8.4998,-10.7246 L 8.7316,-10.5257 L 8.959,-10.3218 L 9.1819,-10.113 L 9.4002,-9.8994 L 9.6138,-9.6811 L 9.8226,-9.4582 L 10.0265,-9.2308 L 10.2254,-8.999 L 10.4191,-8.7629 L 10.6077,-8.5226 L 10.7909,-8.2783 L 10.9689,-8.03 L 11.1413,-7.7779 L 11.3082,-7.5221 L 11.4695,-7.2628 L 11.6251,-6.9999 L 11.7749,-6.7338 L 11.9189,-6.4644 L 12.0569,-6.192 L 12.189,-5.9166 L 12.3151,-5.6384 L 12.435,-5.3575 L 12.5488,-5.0741 L 12.6564,-4.7882 L 12.7577,-4.5001 L 12.8527,-4.2098 L 12.9414,-3.9176 L 13.0236,-3.6234 L 13.0995,-3.3276 L 13.1688,-3.0301 L 13.2317,-2.7312 L 13.288,-2.4311 L 13.3377,-2.1297 L 13.3809,-1.8274 L 13.4175,-1.5241 L 13.4474,-1.2202 L 13.4707,-0.9156 L 13.4874,-0.6107 L 13.4973,-0.3054 L 13.5007,0.0" />
      <path d="M 6.3011,-2.5 L 6.29,-2.5 L 6.2789,-2.5 L 6.2677,-2.5 L 6.2566,-2.5 L 6.2455,-2.5 L 6.2344,-2.5 L 6.2233,-2.5 L 6.2122,-2.5 L 6.2011,-2.5 L 6.19,-2.5 L 6.1789,-2.5 L 6.1677,-2.5 L 6.1566,-2.5 L 6.1455,-2.5 L 6.1344,-2.5 L 6.1233,-2.5 L 6.1122,-2.5 L 6.1011,-2.5 L 6.09,-2.5 L 6.0789,-2.5 L 6.0677,-2.5 L 6.0566,-2.5 L 6.0455,-2.5 L 6.0344,-2.5 L 6.0233,-2.5 L 6.0122,-2.5 L 6.0011,-2.5 L 5.99,-2.5 L 5.9789,-2.5 L 5.9677,-2.5 L 5.9566,-2.5 L 5.9455,-2.5 L 5.9344,-2.5 L 5.9233,-2.5 L 5.9122,-2.5 L 5.9011,-2.5 L 5.89,-2.5 L 5.8789,-2.5 L 5.8677,-2.5 L 5.8566,-2.5 L 5.8455,-2.5 L 5.8344,-2.5 L 5.8233,-2.5 L 5.8122,-2.5 L 5.8011,-2.5 L 5.79,-2.5 L 5.7789,-2.5 L 5.7677,-2.5 L 5.7566,-2.5 L 5.7455,-2.5 L 5.7344,-2.5 L 5.7233,-2.5 L 5.7122,-2.5 L 5.7011,-2.5 L 5.69,-2.5 L 5.6789,-2.5 L 5.6677,-2.5 L 5.6566,-2.5 L 5.6455,-2.5 L 5.6344,-2.5 L 5.6233,-2.5 L 5.6122,-2.5 L 5.6011,-2.5 L 5.59,-2.5 L 5.5789,-2.5 L 5.5677,-2.5 L 5.5566,-2.5 L 5.5455,-2.5 L 5.5344,-2.5 L 5.5233,-2.5 L 5.5122,-2.5 L 5.5011,-2.5" />
      <path d="M 6.3011,-2.5 L 6.3011,-2.4306 L 6.3011,-2.3611 L 6.3011,-2.2917 L 6.3011,-2.2222 L 6.3011,-2.1528 L 6.3011,-2.0833 L 6.3011,-2.0139 L 6.3011,-1.9444 L 6.3011,-1.875 L 6.3011,-1.8056 L 6.3011,-1.7361 L 6.3011,-1.6667 L 6.3011,-1.5972 L 6.3011,-1.5278 L 6.3011,-1.4583 L 6.3011,-1.3889 L 6.3011,-1.3194 L 6.3011,-1.25 L 6.3011,-1.1806 L 6.3011,-1.1111 L 6.3011,-1.0417 L 6.3011,-0.9722 L 6.3011,-0.9028 L 6.3011,-0.8333 L 6.3011,-0.7639 L 6.3011,-0.6944 L 6.3011,-0.625 L 6.3011,-0.5556 L 6.3011,-0.4861 L 6.3011,-0.4167 L 6.3011,-0.3472 L 6.3011,-0.2778 L 6.3011,-0.2083 L 6.3011,-0.1389 L 6.3011,-0.0694 L 6.3011,0.0 L 6.3011,0.0694 L 6.3011,0.1389 L 6.3011,0.2083 L 6.3011,0.2778 L 6.3011,0.3472 L 6.3011,0.4167 L 6.3011,0.4861 L 6.3011,0.5556 L 6.3011,0.625 L 6.3011,0.6944 L 6.3011,0.7639 L 6.3011,0.8333 L 6.3011,0.9028 L 6.3011,0.9722 L 6.3011,1.0417 L 6.3011,1.1111 L 6.3011,1.1806 L 6.3011,1.25 L 6.3011,1.3194 L 6.3011,1.3889 L 6.3011,1.4583 L 6.3011,1.5278 L 6.3011,1.5972 L 6.3011,1.6667 L 6.3011,1.7361 L 6.3011,1.8056 L 6.3011,1.875 L 6.3011,1.9444 L 6.3011,2.0139 L 6.3011,2.0833 L 6.3011,2.1528 L 6.3011,2.2222 L 6.3011,2.2917 L 6.3011,2.3611 L 6.3011,2.4306 L 6.3011,2.5" />
      <path d="M 6.3011,2.5 L 6.29,2.5 L 6.2789,2.5 L 6.2677,2.5 L 6.2566,2.5 L 6.2455,2.5 L 6.2344,2.5 L 6.2233,2.5 L 6.2122,2.5 L 6.2011,2.5 L 6.19,2.5 L 6.1789,2.5 L 6.1677,2.5 L 6.1566,2.5 L 6.1455,2.5 L 6.1344,2.5 L 6.1233,2.5 L 6.1122,2.5 L 6.1011,2.5 L 6.09,2.5 L 6.0789,2.5 L 6.0677,2.5 L 6.0566,2.5 L 6.0455,2.5 L 6.0344,2.5 L 6.0233,2.5 L 6.0122,2.5 L 6.0011,2.5 L 5.99,2.5 L 5.9789,2.5 L 5.9677,2.5 L 5.9566,2.5 L 5.9455,2.5 L 5.9344,2.5 L 5.9233,2.5 L 5.9122,2.5 L 5.9011,2.5 L 5.89,2.5 L 5.8789,2.5 L 5.8677,2.5 L 5.8566,2.5 L 5.8455,2.5 L 5.8344,2.5 L 5.8233,2.5 L 5.8122,2.5 L 5.8011,2.5 L 5.79,2.5 L 5.7789,2.5 L 5.7677,2.5 L 5.7566,2.5 L 5.7455,2.5 L 5.7344,2.5 L 5.7233,2.5 L 5.7122,2.5 L 5.7011,2.5 L 5.69,2.5 L 5.6789,2.5 L 5.6677,2.5 L 5.6566,2.5 L 5.6455,2.5 L 5.6344,2.5 L 5.6233,2.5 L 5.6122,2.5 L 5.6011,2.5 L 5.59,2.5 L 5.5789,2.5 L 5.5677,2.5 L 5.5566,2.5 L 5.5455,2.5 L 5.5344,2.5 L 5.5233,2.5 L 5.5122,2.5 L 5.5011,2.5" />
      <path d="M -0.4989,6.0 L -0.499,6.0 L -0.4991,6.0 L -0.4992,6.0 L -0.4993,6.0" />
      <path d="M -0.4993,6.0 L -0.761,5.9943 L -1.0223,5.9772 L -1.2825,5.9487 L -1.5412,5.9088 L -1.798,5.8578 L -2.0522,5.7956 L -2.3036,5.7223 L -2.5514,5.6382 L -2.7954,5.5433 L -3.035,5.4378 L -3.2698,5.3221 L -3.4993,5.1962 L -3.7231,5.0603 L -3.9408,4.9149 L -4.1519,4.7601 L -4.356,4.5963 L -4.5529,4.4237 L -4.742,4.2426 L -4.923,4.0535 L -5.0956,3.8567 L -5.2594,3.6526 L -5.4142,3.4415 L -5.5597,3.2238 L -5.6955,3.0 L -5.8214,2.7705 L -5.9372,2.5357 L -6.0426,2.2961 L -6.1375,2.0521 L -6.2216,1.8042 L -6.2949,1.5529 L -6.3571,1.2986 L -6.4082,1.0419 L -6.448,0.7832 L -6.4765,0.5229 L -6.4936,0.2617 L -6.4993,-0.0 L -6.4936,-0.2617 L -6.4765,-0.5229 L -6.448,-0.7832 L -6.4082,-1.0419 L -6.3571,-1.2986 L -6.2949,-1.5529 L -6.2216,-1.8042 L -6.1375,-2.0521 L -6.0426,-2.2961 L -5.9372,-2.5357 L -5.8214,-2.7705 L -5.6955,-3.0 L -5.5597,-3.2238 L -5.4142,-3.4415 L -5.2594,-3.6526 L -5.0956,-3.8567 L -4.923,-4.0535 L -4.742,-4.2426 L -4.5529,-4.4237 L -4.356,-4.5963 L -4.1519,-4.7601 L -3.9408,-4.9149 L -3.7231,-5.0603 L -3.4993,-5.1962 L -3.2698,-5.3221 L -3.035,-5.4378 L -2.7954,-5.5433 L -2.5514,-5.6382 L -2.3036,-5.7223 L -2.0522,-5.7956 L -1.798,-5.8578 L -1.5412,-5.9088 L -1.2825,-5.9487 L -1.0223,-5.9772 L -0.761,-5.9943 L -0.4993,-6.0" />
      <path d="M -0.4993,-6.0 L -0.4992,-6.0 L -0.4991,-6.0 L -0.499,-6.0 L -0.4989,-6.0" />
      <path d="M 6.3011,-2.5 L 6.3012,-2.5 L 6.3013,-2.5 L 6.3014,-2.5 L 6.3015,-2.5 L 6.3016,-2.5 L 6.3017,-2.5 L 6.3018,-2.5 L 6.3019,-2.5 L 6.302,-2.5 L 6.3021,-2.5 L 6.3022,-2.5 L 6.3023,-2.5 L 6.3024,-2.5 L 6.3025,-2.5 L 6.3026,-2.5 L 6.3027,-2.5 L 6.3028,-2.5 L 6.3029,-2.5 L 6.303,-2.5 L 6.3031,-2.5 L 6.3032,-2.5 L 6.3033,-2.5 L 6.3034,-2.5 L 6.3035,-2.5 L 6.3036,-2.5 L 6.3037,-2.5 L 6.3038,-2.5 L 6.3039,-2.5 L 6.304,-2.5 L 6.3041,-2.5 L 6.3042,-2.5 L 6.3043,-2.5 L 6.3044,-2.5 L 6.3045,-2.5 L 6.3046,-2.5 L 6.3047,-2.5 L 6.3048,-2.5 L 6.3049,-2.5 L 6.305,-2.5 L 6.3051,-2.5 L 6.3052,-2.5 L 6.3053,-2.5" />
      <path d="M 6.3011,2.5 L 6.3012,2.5 L 6.3013,2.5 L 6.3014,2.5 L 6.3015,2.5 L 6.3016,2.5 L 6.3017,2.5 L 6.3018,2.5 L 6.3019,2.5 L 6.302,2.5 L 6.3021,2.5 L 6.3022,2.5 L 6.3023,2.5 L 6.3024,2.5 L 6.3025,2.5 L 6.3026,2.5 L 6.3027,2.5 L 6.3028,2.5 L 6.3029,2.5 L 6.303,2.5 L 6.3031,2.5 L 6.3032,2.5 L 6.3033,2.5 L 6.3034,2.5 L 6.3035,2.5 L 6.3036,2.5 L 6.3037,2.5 L 6.3038,2.5 L 6.3039,2.5 L 6.304,2.5 L 6.3041,2.5 L 6.3042,2.5 L 6.3043,2.5 L 6.3044,2.5 L 6.3045,2.5 L 6.3046,2.5 L 6.3047,2.5 L 6.3048,2.5 L 6.3049,2.5 L 6.305,2.5 L 6.3051,2.5 L 6.3052,2.5 L 6.3053,2.5" />
      <path d="M -0.4993,-14.0 L -0.4992,-14.0 L -0.4991,-14.0 L -0.499,-14.0 L -0.4989,-14.0" />
      <path d="M -0.4993,14.0 L -0.4992,14.0 L -0.4991,14.0 L -0.499,14.0 L -0.4989,14.0" />
      <path d="M -0.4993,-6.0 L -0.4992,-6.0 L -0.4991,-6.0 L -0.499,-6.0 L -0.4989,-6.0" />
      <path d="M -0.4993,6.0 L -0.4992,6.0 L -0.4991,6.0 L -0.499,6.0 L -0.4989,6.0" />
      <path d="M 26.002,13.5011 L 26.0032,13.1122 L 26.0036,12.7233 L 26.004,12.3344 L 26.0043,11.9455 L 26.0046,11.5566 L 26.0048,11.1677 L 26.005,10.7788 L 26.0052,10.39 L 26.0053,10.0011 L 26.0055,9.6122 L 26.0056,9.2233 L 26.0058,8.8344 L 26.0059,8.4455 L 26.006,8.0566 L 26.0061,7.6677 L 26.0062,7.2788 L 26.0063,6.8899 L 26.0064,6.5011 L 26.0065,6.1122 L 26.0065,5.7233 L 26.0066,5.3344 L 26.0067,4.9455 L 26.0067,4.5566 L 26.0068,4.1677 L 26.0068,3.7788 L 26.0069,3.3899 L 26.0069,3.0011 L 26.0069,2.6122 L 26.007,2.2233 L 26.007,1.8344 L 26.007,1.4455 L 26.007,1.0566 L 26.007,0.6677 L 26.007,0.2788 L 26.0071,-0.1101 L 26.0071,-0.4989 L 26.0071,-0.8878 L 26.007,-1.2767 L 26.007,-1.6656 L 26.007,-2.0545 L 26.007,-2.4434 L 26.007,-2.8323 L 26.007,-3.2212 L 26.0069,-3.6101 L 26.0069,-3.9989 L 26.0069,-4.3878 L 26.0068,-4.7767 L 26.0068,-5.1656 L 26.0067,-5.5545 L 26.0067,-5.9434 L 26.0066,-6.3323 L 26.0065,-6.7212 L 26.0065,-7.1101 L 26.0064,-7.4989 L 26.0063,-7.8878 L 26.0062,-8.2767 L 26.0061,-8.6656 L 26.006,-9.0545 L 26.0059,-9.4434 L 26.0058,-9.8323 L 26.0056,-10.2212 L 26.0055,-10.6101 L 26.0053,-10.9989 L 26.0052,-11.3878 L 26.005,-11.7767 L 26.0048,-12.1656 L 26.0046,-12.5545 L 26.0043,-12.9434 L 26.004,-13.3323 L 26.0037,-13.7212 L 26.0032,-14.1101 L 26.002,-14.4989" />
      <path d="M 26.002,5.5011 L 26.0025,5.3344 L 26.0027,5.1677 L 26.0029,5.0011 L 26.003,4.8344 L 26.0031,4.6677 L 26.0032,4.5011 L 26.0033,4.3344 L 26.0033,4.1677 L 26.0034,4.0011 L 26.0035,3.8344 L 26.0035,3.6677 L 26.0036,3.5011 L 26.0037,3.3344 L 26.0037,3.1677 L 26.0037,3.0011 L 26.0038,2.8344 L 26.0038,2.6677 L 26.0039,2.5011 L 26.0039,2.3344 L 26.0039,2.1677 L 26.004,2.0011 L 26.004,1.8344 L 26.004,1.6677 L 26.004,1.5011 L 26.0041,1.3344 L 26.0041,1.1677 L 26.0041,1.0011 L 26.0041,0.8344 L 26.0041,0.6677 L 26.0041,0.5011 L 26.0041,0.3344 L 26.0041,0.1677 L 26.0041,0.0011 L 26.0042,-0.1656 L 26.0042,-0.3323 L 26.0042,-0.4989 L 26.0042,-0.6656 L 26.0042,-0.8323 L 26.0041,-0.9989 L 26.0041,-1.1656 L 26.0041,-1.3323 L 26.0041,-1.4989 L 26.0041,-1.6656 L 26.0041,-1.8323 L 26.0041,-1.9989 L 26.0041,-2.1656 L 26.0041,-2.3323 L 26.004,-2.4989 L 26.004,-2.6656 L 26.004,-2.8323 L 26.004,-2.9989 L 26.0039,-3.1656 L 26.0039,-3.3323 L 26.0039,-3.4989 L 26.0038,-3.6656 L 26.0038,-3.8323 L 26.0037,-3.9989 L 26.0037,-4.1656 L 26.0037,-4.3323 L 26.0036,-4.4989 L 26.0035,-4.6656 L 26.0035,-4.8323 L 26.0034,-4.9989 L 26.0033,-5.1656 L 26.0033,-5.3323 L 26.0032,-5.4989 L 26.0031,-5.6656 L 26.003,-5.8323 L 26.0029,-5.9989 L 26.0027,-6.1656 L 26.0025,-6.3323 L 26.002,-6.4989" />
      <path d="M 26.002,-6.4989 L 26.0015,-6.3323 L 26.0013,-6.1656 L 26.0011,-5.9989 L 26.001,-5.8323 L 26.0009,-5.6656 L 26.0008,-5.4989 L 26.0007,-5.3323 L 26.0006,-5.1656 L 26.0005,-4.9989 L 26.0005,-4.8323 L 26.0004,-4.6656 L 26.0004,-4.4989 L 26.0003,-4.3323 L 26.0003,-4.1656 L 26.0002,-3.9989 L 26.0002,-3.8323 L 26.0001,-3.6656 L 26.0001,-3.4989 L 26.0001,-3.3323 L 26.0,-3.1656 L 26.0,-2.9989 L 26.0,-2.8323 L 26.0,-2.6656 L 25.9999,-2.4989 L 25.9999,-2.3323 L 25.9999,-2.1656 L 25.9999,-1.9989 L 25.9999,-1.8323 L 25.9998,-1.6656 L 25.9998,-1.4989 L 25.9998,-1.3323 L 25.9998,-1.1656 L 25.9998,-0.9989 L 25.9998,-0.8323 L 25.9998,-0.6656 L 25.9998,-0.4989 L 25.9998,-0.3323 L 25.9998,-0.1656 L 25.9998,0.0011 L 25.9998,0.1677 L 25.9998,0.3344 L 25.9998,0.5011 L 25.9998,0.6677 L 25.9999,0.8344 L 25.9999,1.0011 L 25.9999,1.1677 L 25.9999,1.3344 L 25.9999,1.5011 L 26.0,1.6677 L 26.0,1.8344 L 26.0,2.0011 L 26.0,2.1677 L 26.0001,2.3344 L 26.0001,2.5011 L 26.0001,2.6677 L 26.0002,2.8344 L 26.0002,3.0011 L 26.0003,3.1677 L 26.0003,3.3344 L 26.0004,3.5011 L 26.0004,3.6677 L 26.0005,3.8344 L 26.0005,4.0011 L 26.0006,4.1677 L 26.0007,4.3344 L 26.0008,4.5011 L 26.0009,4.6677 L 26.001,4.8344 L 26.0011,5.0011 L 26.0013,5.1677 L 26.0015,5.3344 L 26.002,5.5011" />
      <path d="M 26.0011,5.5023 L 26.0011,5.5022 L 26.0012,5.5022 L 26.0012,5.5021 L 26.0013,5.5021 L 26.0013,5.502 L 26.0013,5.5019 L 26.0014,5.5019 L 26.0014,5.5018 L 26.0015,5.5018 L 26.0015,5.5017 L 26.0016,5.5016 L 26.0016,5.5015 L 26.0017,5.5015 L 26.0017,5.5014 L 26.0018,5.5014 L 26.0018,5.5013 L 26.0018,5.5012 L 26.0019,5.5012 L 26.0019,5.5011 L 26.002,5.5011" />
      <path d="M 26.0011,6.3023 L 26.0011,6.2912 L 26.0011,6.2801 L 26.0011,6.269 L 26.0011,6.2579 L 26.0011,6.2468 L 26.0011,6.2356 L 26.0011,6.2245 L 26.0011,6.2134 L 26.0011,6.2023 L 26.0011,6.1912 L 26.0011,6.1801 L 26.0011,6.169 L 26.0011,6.1579 L 26.0011,6.1468 L 26.0011,6.1356 L 26.0011,6.1245 L 26.0011,6.1134 L 26.0011,6.1023 L 26.0011,6.0912 L 26.0011,6.0801 L 26.0011,6.069 L 26.0011,6.0579 L 26.0011,6.0468 L 26.0011,6.0356 L 26.0011,6.0245 L 26.0011,6.0134 L 26.0011,6.0023 L 26.0011,5.9912 L 26.0011,5.9801 L 26.0011,5.969 L 26.0011,5.9579 L 26.0011,5.9468 L 26.0011,5.9356 L 26.0011,5.9245 L 26.0011,5.9134 L 26.0011,5.9023 L 26.0011,5.8912 L 26.0011,5.8801 L 26.0011,5.869 L 26.0011,5.8579 L 26.0011,5.8468 L 26.0011,5.8356 L 26.0011,5.8245 L 26.0011,5.8134 L 26.0011,5.8023 L 26.0011,5.7912 L 26.0011,5.7801 L 26.0011,5.769 L 26.0011,5.7579 L 26.0011,5.7468 L 26.0011,5.7356 L 26.0011,5.7245 L 26.0011,5.7134 L 26.0011,5.7023 L 26.0011,5.6912 L 26.0011,5.6801 L 26.0011,5.669 L 26.0011,5.6579 L 26.0011,5.6468 L 26.0011,5.6356 L 26.0011,5.6245 L 26.0011,5.6134 L 26.0011,5.6023 L 26.0011,5.5912 L 26.0011,5.5801 L 26.0011,5.569 L 26.0011,5.5579 L 26.0011,5.5468 L 26.0011,5.5356 L 26.0011,5.5245 L 26.0011,5.5134 L 26.0011,5.5023" />
      <path d="M 26.0011,6.3023 L 26.0011,6.3022 L 26.0012,6.3022 L 26.0012,6.3021 L 26.0013,6.3021 L 26.0013,6.302 L 26.0014,6.3019 L 26.0014,6.3018 L 26.0015,6.3018 L 26.0015,6.3017 L 26.0016,6.3016 L 26.0016,6.3015 L 26.0017,6.3015 L 26.0017,6.3014 L 26.0018,6.3014 L 26.0018,6.3013 L 26.0019,6.3012 L 26.0019,6.3011 L 26.002,6.3011 L 26.002,6.301 L 26.0021,6.301 L 26.0021,6.3009 L 26.0022,6.3008 L 26.0022,6.3007 L 26.0023,6.3007 L 26.0023,6.3006 L 26.0024,6.3005 L 26.0024,6.3004 L 26.0025,6.3004 L 26.0025,6.3003 L 26.0026,6.3003 L 26.0026,6.3002 L 26.0027,6.3001 L 26.0027,6.3 L 26.0028,6.3 L 26.0028,6.2999 L 26.0029,6.2998" />
      <path d="M 26.0029,6.2998 L 26.0029,6.2887 L 26.0029,6.2776 L 26.0029,6.2665 L 26.0029,6.2554 L 26.0029,6.2443 L 26.0029,6.2331 L 26.0029,6.222 L 26.0029,6.2109 L 26.0029,6.1998 L 26.0029,6.1887 L 26.0029,6.1776 L 26.0029,6.1665 L 26.0029,6.1554 L 26.0029,6.1443 L 26.0029,6.1331 L 26.0029,6.122 L 26.0029,6.1109 L 26.0029,6.0998 L 26.0029,6.0887 L 26.0029,6.0776 L 26.0029,6.0665 L 26.0029,6.0554 L 26.0029,6.0443 L 26.0029,6.0331 L 26.0029,6.022 L 26.0029,6.0109 L 26.0029,5.9998 L 26.0029,5.9887 L 26.0029,5.9776 L 26.0029,5.9665 L 26.0029,5.9554 L 26.0029,5.9443 L 26.0029,5.9331 L 26.0029,5.922 L 26.0029,5.9109 L 26.0029,5.8998 L 26.0029,5.8887 L 26.0029,5.8776 L 26.0029,5.8665 L 26.0029,5.8554 L 26.0029,5.8443 L 26.0029,5.8331 L 26.0029,5.822 L 26.0029,5.8109 L 26.0029,5.7998 L 26.0029,5.7887 L 26.0029,5.7776 L 26.0029,5.7665 L 26.0029,5.7554 L 26.0029,5.7443 L 26.0029,5.7331 L 26.0029,5.722 L 26.0029,5.7109 L 26.0029,5.6998 L 26.0029,5.6887 L 26.0029,5.6776 L 26.0029,5.6665 L 26.0029,5.6554 L 26.0029,5.6443 L 26.0029,5.6331 L 26.0029,5.622 L 26.0029,5.6109 L 26.0029,5.5998 L 26.0029,5.5887 L 26.0029,5.5776 L 26.0029,5.5665 L 26.0029,5.5554 L 26.0029,5.5443 L 26.0029,5.5331 L 26.0029,5.522 L 26.0029,5.5109 L 26.0029,5.4998" />
      <path d="M 26.002,5.5011 L 26.002,5.501 L 26.0021,5.501 L 26.0021,5.5009 L 26.0021,5.5008 L 26.0022,5.5008 L 26.0022,5.5007 L 26.0023,5.5007 L 26.0023,5.5006 L 26.0024,5.5005 L 26.0024,5.5004 L 26.0025,5.5004 L 26.0025,5.5003 L 26.0026,5.5003 L 26.0026,5.5002 L 26.0026,5.5001 L 26.0027,5.5001 L 26.0027,5.5 L 26.0028,5.5 L 26.0028,5.4999 L 26.0029,5.4999 L 26.0029,5.4998" />
      <path d="M 26.0011,5.5023 L 26.001,5.5023 L 26.0009,5.5023 L 26.0008,5.5023 L 26.0007,5.5023 L 26.0006,5.5023 L 26.0005,5.5023 L 26.0004,5.5023 L 26.0003,5.5023 L 26.0002,5.5023 L 26.0001,5.5023 L 26.0,5.5023 L 25.9999,5.5023 L 25.9998,5.5023 L 25.9997,5.5023 L 25.9996,5.5023 L 25.9995,5.5023 L 25.9994,5.5023 L 25.9993,5.5023 L 25.9992,5.5023 L 25.9991,5.5023 L 25.999,5.5023 L 25.9989,5.5023 L 25.9988,5.5023 L 25.9987,5.5023 L 25.9986,5.5023 L 25.9985,5.5023 L 25.9984,5.5023 L 25.9983,5.5023 L 25.9982,5.5023 L 25.9981,5.5023 L 25.998,5.5023 L 25.9979,5.5023 L 25.9978,5.5023 L 25.9977,5.5023 L 25.9976,5.5023 L 25.9975,5.5023 L 25.9974,5.5023" />
      <path d="M 26.0029,5.4998 L 26.0028,5.4998 L 26.0027,5.4998 L 26.0026,5.4998 L 26.0025,5.4998 L 26.0024,5.4998 L 26.0023,5.4998 L 26.0022,5.4998 L 26.0021,5.4998 L 26.002,5.4998 L 26.0019,5.4998 L 26.0018,5.4998 L 26.0017,5.4998 L 26.0016,5.4998 L 26.0015,5.4998 L 26.0014,5.4998 L 26.0013,5.4998 L 26.0012,5.4998 L 26.0011,5.4998 L 26.001,5.4998 L 26.0009,5.4998 L 26.0008,5.4998 L 26.0007,5.4998 L 26.0006,5.4998 L 26.0005,5.4998 L 26.0004,5.4998 L 26.0003,5.4998 L 26.0002,5.4998 L 26.0001,5.4998 L 26.0,5.4998 L 25.9999,5.4998 L 25.9998,5.4998 L 25.9997,5.4998 L 25.9996,5.4998 L 25.9995,5.4998 L 25.9994,5.4998 L 25.9993,5.4998 L 25.9992,5.4998 L 25.9991,5.4998 L 25.999,5.4998 L 25.9989,5.4998 L 25.9988,5.4998 L 25.9987,5.4998 L 25.9986,5.4998 L 25.9985,5.4998 L 25.9984,5.4998 L 25.9983,5.4998 L 25.9982,5.4998 L 25.9981,5.4998 L 25.998,5.4998 L 25.9979,5.4998 L 25.9978,5.4998 L 25.9977,5.4998 L 25.9976,5.4998 L 25.9975,5.4998 L 25.9974,5.4998" />
      <path d="M 26.0011,6.3023 L 26.001,6.3023 L 26.0009,6.3023 L 26.0008,6.3023 L 26.0007,6.3023 L 26.0006,6.3023 L 26.0005,6.3023 L 26.0004,6.3023 L 26.0003,6.3023 L 26.0002,6.3023 L 26.0001,6.3023 L 26.0,6.3023 L 25.9999,6.3023 L 25.9998,6.3023 L 25.9997,6.3023 L 25.9996,6.3023 L 25.9995,6.3023 L 25.9994,6.3023 L 25.9993,6.3023 L 25.9992,6.3023 L 25.9991,6.3023 L 25.999,6.3023 L 25.9989,6.3023 L 25.9988,6.3023 L 25.9987,6.3023 L 25.9986,6.3023 L 25.9985,6.3023 L 25.9984,6.3023 L 25.9983,6.3023 L 25.9982,6.3023 L 25.9981,6.3023 L 25.998,6.3023 L 25.9979,6.3023 L 25.9978,6.3023 L 25.9977,6.3023 L 25.9976,6.3023 L 25.9975,6.3023" />
      <path d="M 17.5011,6.3023 L 17.5011,6.3022 L 17.5012,6.3022 L 17.5012,6.3021 L 17.5013,6.3021 L 17.5013,6.302 L 17.5014,6.3019 L 17.5014,6.3018 L 17.5015,6.3018 L 17.5015,6.3017 L 17.5016,6.3016 L 17.5016,6.3015 L 17.5017,6.3015 L 17.5017,6.3014 L 17.5018,6.3014 L 17.5018,6.3013 L 17.5019,6.3012 L 17.5019,6.3011 L 17.502,6.3011 L 17.502,6.301 L 17.5021,6.301 L 17.5021,6.3009 L 17.5021,6.3008 L 17.5022,6.3008 L 17.5022,6.3007 L 17.5023,6.3007 L 17.5023,6.3006 L 17.5024,6.3005 L 17.5024,6.3004 L 17.5025,6.3004 L 17.5025,6.3003 L 17.5026,6.3003 L 17.5026,6.3002 L 17.5027,6.3001 L 17.5027,6.3 L 17.5028,6.3 L 17.5028,6.2999 L 17.5029,6.2998" />
      <path d="M 26.0029,6.2998 L 25.8848,6.2998 L 25.7668,6.2998 L 25.6487,6.2998 L 25.5307,6.2998 L 25.4126,6.2998 L 25.2946,6.2998 L 25.1765,6.2998 L 25.0584,6.2998 L 24.9404,6.2998 L 24.8223,6.2998 L 24.7043,6.2998 L 24.5862,6.2998 L 24.4682,6.2998 L 24.3501,6.2998 L 24.2321,6.2998 L 24.114,6.2998 L 23.9959,6.2998 L 23.8779,6.2998 L 23.7598,6.2998 L 23.6418,6.2998 L 23.5237,6.2998 L 23.4057,6.2998 L 23.2876,6.2998 L 23.1696,6.2998 L 23.0515,6.2998 L 22.9334,6.2998 L 22.8154,6.2998 L 22.6973,6.2998 L 22.5793,6.2998 L 22.4612,6.2998 L 22.3432,6.2998 L 22.2251,6.2998 L 22.1071,6.2998 L 21.989,6.2998 L 21.8709,6.2998 L 21.7529,6.2998 L 21.6348,6.2998 L 21.5168,6.2998 L 21.3987,6.2998 L 21.2807,6.2998 L 21.1626,6.2998 L 21.0446,6.2998 L 20.9265,6.2998 L 20.8084,6.2998 L 20.6904,6.2998 L 20.5723,6.2998 L 20.4543,6.2998 L 20.3362,6.2998 L 20.2182,6.2998 L 20.1001,6.2998 L 19.9821,6.2998 L 19.864,6.2998 L 19.7459,6.2998 L 19.6279,6.2998 L 19.5098,6.2998 L 19.3918,6.2998 L 19.2737,6.2998 L 19.1557,6.2998 L 19.0376,6.2998 L 18.9196,6.2998 L 18.8015,6.2998 L 18.6834,6.2998 L 18.5654,6.2998 L 18.4473,6.2998 L 18.3293,6.2998 L 18.2112,6.2998 L 18.0932,6.2998 L 17.9751,6.2998 L 17.8571,6.2998 L 17.739,6.2998 L 17.6209,6.2998 L 17.5029,6.2998" />
      <path d="M 17.5029,5.4998 L 17.5029,5.5109 L 17.5029,5.522 L 17.5029,5.5331 L 17.5029,5.5443 L 17.5029,5.5554 L 17.5029,5.5665 L 17.5029,5.5776 L 17.5029,5.5887 L 17.5029,5.5998 L 17.5029,5.6109 L 17.5029,5.622 L 17.5029,5.6331 L 17.5029,5.6443 L 17.5029,5.6554 L 17.5029,5.6665 L 17.5029,5.6776 L 17.5029,5.6887 L 17.5029,5.6998 L 17.5029,5.7109 L 17.5029,5.722 L 17.5029,5.7331 L 17.5029,5.7443 L 17.5029,5.7554 L 17.5029,5.7665 L 17.5029,5.7776 L 17.5029,5.7887 L 17.5029,5.7998 L 17.5029,5.8109 L 17.5029,5.822 L 17.5029,5.8331 L 17.5029,5.8443 L 17.5029,5.8554 L 17.5029,5.8665 L 17.5029,5.8776 L 17.5029,5.8887 L 17.5029,5.8998 L 17.5029,5.9109 L 17.5029,5.922 L 17.5029,5.9331 L 17.5029,5.9443 L 17.5029,5.9554 L 17.5029,5.9665 L 17.5029,5.9776 L 17.5029,5.9887 L 17.5029,5.9998 L 17.5029,6.0109 L 17.5029,6.022 L 17.5029,6.0331 L 17.5029,6.0443 L 17.5029,6.0554 L 17.5029,6.0665 L 17.5029,6.0776 L 17.5029,6.0887 L 17.5029,6.0998 L 17.5029,6.1109 L 17.5029,6.122 L 17.5029,6.1331 L 17.5029,6.1443 L 17.5029,6.1554 L 17.5029,6.1665 L 17.5029,6.1776 L 17.5029,6.1887 L 17.5029,6.1998 L 17.5029,6.2109 L 17.5029,6.222 L 17.5029,6.2331 L 17.5029,6.2443 L 17.5029,6.2554 L 17.5029,6.2665 L 17.5029,6.2776 L 17.5029,6.2887 L 17.5029,6.2998" />
      <path d="M 26.802,5.5011 L 26.7909,5.5011 L 26.7798,5.5011 L 26.7686,5.5011 L 26.7575,5.5011 L 26.7464,5.5011 L 26.7353,5.5011 L 26.7242,5.5011 L 26.7131,5.5011 L 26.702,5.5011 L 26.6909,5.5011 L 26.6798,5.5011 L 26.6686,5.5011 L 26.6575,5.5011 L 26.6464,5.5011 L 26.6353,5.5011 L 26.6242,5.5011 L 26.6131,5.5011 L 26.602,5.5011 L 26.5909,5.5011 L 26.5798,5.5011 L 26.5686,5.5011 L 26.5575,5.5011 L 26.5464,5.5011 L 26.5353,5.5011 L 26.5242,5.5011 L 26.5131,5.5011 L 26.502,5.5011 L 26.4909,5.5011 L 26.4798,5.5011 L 26.4686,5.5011 L 26.4575,5.5011 L 26.4464,5.5011 L 26.4353,5.5011 L 26.4242,5.5011 L 26.4131,5.5011 L 26.402,5.5011 L 26.3909,5.5011 L 26.3798,5.5011 L 26.3686,5.5011 L 26.3575,5.5011 L 26.3464,5.5011 L 26.3353,5.5011 L 26.3242,5.5011 L 26.3131,5.5011 L 26.302,5.5011 L 26.2909,5.5011 L 26.2798,5.5011 L 26.2686,5.5011 L 26.2575,5.5011 L 26.2464,5.5011 L 26.2353,5.5011 L 26.2242,5.5011 L 26.2131,5.5011 L 26.202,5.5011 L 26.1909,5.5011 L 26.1798,5.5011 L 26.1686,5.5011 L 26.1575,5.5011 L 26.1464,5.5011 L 26.1353,5.5011 L 26.1242,5.5011 L 26.1131,5.5011 L 26.102,5.5011 L 26.0909,5.5011 L 26.0798,5.5011 L 26.0686,5.5011 L 26.0575,5.5011 L 26.0464,5.5011 L 26.0353,5.5011 L 26.0242,5.5011 L 26.0131,5.5011 L 26.002,5.5011" />
      <path d="M 26.802,-6.4989 L 26.7909,-6.4989 L 26.7798,-6.4989 L 26.7686,-6.4989 L 26.7575,-6.4989 L 26.7464,-6.4989 L 26.7353,-6.4989 L 26.7242,-6.4989 L 26.7131,-6.4989 L 26.702,-6.4989 L 26.6909,-6.4989 L 26.6798,-6.4989 L 26.6686,-6.4989 L 26.6575,-6.4989 L 26.6464,-6.4989 L 26.6353,-6.4989 L 26.6242,-6.4989 L 26.6131,-6.4989 L 26.602,-6.4989 L 26.5909,-6.4989 L 26.5798,-6.4989 L 26.5686,-6.4989 L 26.5575,-6.4989 L 26.5464,-6.4989 L 26.5353,-6.4989 L 26.5242,-6.4989 L 26.5131,-6.4989 L 26.502,-6.4989 L 26.4909,-6.4989 L 26.4798,-6.4989 L 26.4686,-6.4989 L 26.4575,-6.4989 L 26.4464,-6.4989 L 26.4353,-6.4989 L 26.4242,-6.4989 L 26.4131,-6.4989 L 26.402,-6.4989 L 26.3909,-6.4989 L 26.3798,-6.4989 L 26.3686,-6.4989 L 26.3575,-6.4989 L 26.3464,-6.4989 L 26.3353,-6.4989 L 26.3242,-6.4989 L 26.3131,-6.4989 L 26.302,-6.4989 L 26.2909,-6.4989 L 26.2798,-6.4989 L 26.2686,-6.4989 L 26.2575,-6.4989 L 26.2464,-6.4989 L 26.2353,-6.4989 L 26.2242,-6.4989 L 26.2131,-6.4989 L 26.202,-6.4989 L 26.1909,-6.4989 L 26.1798,-6.4989 L 26.1686,-6.4989 L 26.1575,-6.4989 L 26.1464,-6.4989 L 26.1353,-6.4989 L 26.1242,-6.4989 L 26.1131,-6.4989 L 26.102,-6.4989 L 26.0909,-6.4989 L 26.0798,-6.4989 L 26.0686,-6.4989 L 26.0575,-6.4989 L 26.0464,-6.4989 L 26.0353,-6.4989 L 26.0242,-6.4989 L 26.0131,-6.4989 L 26.002,-6.4989" />
    </g>
    <g fill="none" stroke="rgb(0,0,0)" stroke-width="0.2" id="Center" stroke-dasharray="6.35 1.27 1.27 1.27">
      <line x1="-16.7393" y1="0.0" x2="15.7411" y2="0.0" />
      <line x1="-0.4991" y1="-16.24" x2="-0.4991" y2="16.24" />
      <line x1="15.2611" y1="-0.4989" x2="29.0471" y2="-0.4989" />
    </g>
  </g>
</svg>