<?xml version='1.0' encoding='utf-8'?>
<svg width="45.3141mm" height="39.2089mm" viewBox="-17.6 -18.1473 45.3141 39.2089" version="1.1" xmlns="http://www.w3.org/2000/svg">
  <g transform="scale(1,-1)" stroke-linecap="round">
    <g fill="none" stroke="rgb(0,0,0)" stroke-width="0.4" id="Visible">
      <path d="M 13.0,-16.4615 L 12.6389,-16.4615 L 12.2778,-16.4615 L 11.9167,-16.4615 L 11.5556,-16.4615 L 11.1944,-16.4615 L 10.8333,-16.4615 L 10.4722,-16.4615 L 10.1111,-16.4615 L 9.75,-16.4615 L 9.3889,-16.4615 L 9.0278,-16.4615 L 8.6667,-16.4615 L 8.3056,-16.4615 L 7.9444,-16.4615 L 7.5833,-16.4615 L 7.2222,-16.4615 L 6.8611,-16.4615 L 6.5,-16.4615 L 6.1389,-16.4615 L 5.7778,-16.4615 L 5.4167,-16.4615 L 5.0556,-16.4615 L 4.6944,-16.4615 L 4.3333,-16.4615 L 3.9722,-16.4615 L 3.6111,-16.4615 L 3.25,-16.4615 L 2.8889,-16.4615 L 2.5278,-16.4615 L 2.1667,-16.4615 L 1.8056,-16.4615 L 1.4444,-16.4615 L 1.0833,-16.4615 L 0.7222,-16.4615 L 0.3611,-16.4615 L 0.0,-16.4615 L -0.3611,-16.4615 L -0.7222,-16.4615 L -1.0833,-16.4615 L -1.4444,-16.4615 L -1.8056,-16.4615 L -2.1667,-16.4615 L -2.5278,-16.4615 L -2.8889,-16.4615 L -3.25,-16.4615 L -3.6111,-16.4615 L -3.9722,-16.4615 L -4.3333,-16.4615 L -4.6944,-16.4615 L -5.0556,-16.4615 L -5.4167,-16.4615 L -5.7778,-16.4615 L -6.1389,-16.4615 L -6.5,-16.4615 L -6.8611,-16.4615 L -7.2222,-16.4615 L -7.5833,-16.4615 L -7.9444,-16.4615 L -8.3056,-16.4615 L -8.6667,-16.4615 L -9.0278,-16.4615 L -9.3889,-16.4615 L -9.75,-16.4615 L -10.1111,-16.4615 L -10.4722,-16.4615 L -10.8333,-16.4615 L -11.1944,-16.4615 L -11.5556,-16.4615 L -11.9167,-16.4615 L -12.2778,-16.4615 L -12.6389,-16.4615 L -13.0,-16.4615" />
      <path d="M 0.0,5.2884 L -0.1472,5.2868 L -0.2943,5.282 L -0.4413,5.274 L -0.5881,5.2628 L -0.7346,5.2483 L -0.8808,5.2307 L -1.0265,5.2099 L -1.1717,5.186 L -1.3164,5.1588 L -1.4605,5.1285 L -1.6038,5.0951 L -1.7465,5.0586 L -1.8882,5.019 L -2.0291,4.9762 L -2.169,4.9305 L -2.3079,4.8816 L -2.4457,4.8298 L -2.5823,4.775 L -2.7177,4.7172 L -2.8518,4.6564 L -2.9845,4.5928 L -3.1158,4.5263 L -3.2457,4.4569 L -3.374,4.3847 L -3.5007,4.3097 L -3.6257,4.232 L -3.749,4.1516 L -3.8705,4.0685 L -3.9902,3.9828 L -4.108,3.8945 L -4.2238,3.8036 L -4.3376,3.7103 L -4.4494,3.6144 L -4.559,3.5162 L -4.6665,3.4156 L -4.7717,3.3127 L -4.8747,3.2075 L -4.9753,3.1001 L -5.0736,2.9905 L -5.1695,2.8788 L -5.2629,2.765 L -5.3539,2.6492 L -5.4422,2.5315 L -5.528,2.4119 L -5.6112,2.2904 L -5.6917,2.1671 L -5.7694,2.0422 L -5.8445,1.9155 L -5.9167,1.7872 L -5.9862,1.6574 L -6.0528,1.5262 L -6.1165,1.3935 L -6.1773,1.2594 L -6.2352,1.124 L -6.2901,0.9874 L -6.342,0.8497 L -6.3909,0.7108 L -6.4367,0.5709 L -6.4795,0.4301 L -6.5192,0.2883 L -6.5558,0.1458 L -6.5893,0.0024 L -6.6197,-0.1416 L -6.6469,-0.2863 L -6.6709,-0.4315 L -6.6918,-0.5773 L -6.7095,-0.7234 L -6.724,-0.8699 L -6.7353,-1.0167 L -6.7434,-1.1637 L -6.7483,-1.3108 L -6.75,-1.458" />
      <path d="M 6.75,-1.458 L 6.7483,-1.3108 L 6.7434,-1.1637 L 6.7353,-1.0167 L 6.724,-0.8699 L 6.7095,-0.7234 L 6.6918,-0.5773 L 6.6709,-0.4315 L 6.6469,-0.2863 L 6.6197,-0.1416 L 6.5893,0.0024 L 6.5558,0.1458 L 6.5192,0.2883 L 6.4795,0.4301 L 6.4367,0.5709 L 6.3909,0.7108 L 6.342,0.8497 L 6.2901,0.9874 L 6.2352,1.124 L 6.1773,1.2594 L 6.1165,1.3935 L 6.0528,1.5262 L 5.9862,1.6574 L 5.9167,1.7872 L 5.8445,1.9155 L 5.7694,2.0422 L 5.6917,2.1671 L 5.6112,2.2904 L 5.528,2.4119 L 5.4422,2.5315 L 5.3539,2.6492 L 5.2629,2.765 L 5.1695,2.8788 L 5.0736,2.9905 L 4.9753,3.1001 L 4.8747,3.2075 L 4.7717,3.3127 L 4.6665,3.4156 L 4.559,3.5162 L 4.4494,3.6144 L 4.3376,3.7103 L 4.2238,3.8036 L 4.108,3.8945 L 3.9902,3.9828 L 3.8705,4.0685 L 3.749,4.1516 L 3.6257,4.232 L 3.5007,4.3097 L 3.374,4.3847 L 3.2457,4.4569 L 3.1158,4.5263 L 2.9845,4.5928 L 2.8518,4.6564 L 2.7177,4.7172 L 2.5823,4.775 L 2.4457,4.8298 L 2.3079,4.8816 L 2.169,4.9305 L 2.0291,4.9762 L 1.8882,5.019 L 1.7465,5.0586 L 1.6038,5.0951 L 1.4605,5.1285 L 1.3164,5.1588 L 1.1717,5.186 L 1.0265,5.2099 L 0.8808,5.2307 L 0.7346,5.2483 L 0.5881,5.2628 L 0.4413,5.274 L 0.2943,5.282 L 0.1472,5.2868 L -0.0,5.2884" />
      <path d="M -13.0,13.5473 L -13.0,13.1306 L -13.0,12.7139 L -13.0,12.2972 L -13.0,11.8805 L -13.0,11.4637 L -13.0,11.047 L -13.0,10.6303 L -13.0,10.2136 L -13.0,9.7969 L -13.0,9.3802 L -13.0,8.9635 L -13.0,8.5467 L -13.0,8.13 L -13.0,7.7133 L -13.0,7.2966 L -13.0,6.8799 L -13.0,6.4632 L -13.0,6.0464 L -13.0,5.6297 L -13.0,5.213 L -13.0,4.7963 L -13.0,4.3796 L -13.0,3.9629 L -13.0,3.5462 L -13.0,3.1294 L -13.0,2.7127 L -13.0,2.296 L -13.0,1.8793 L -13.0,1.4626 L -13.0,1.0459 L -13.0,0.6292 L -13.0,0.2124 L -13.0,-0.2043 L -13.0,-0.621 L -13.0,-1.0377 L -13.0,-1.4544 L -13.0,-1.8711 L -13.0,-2.2878 L -13.0,-2.7046 L -13.0,-3.1213 L -13.0,-3.538 L -13.0,-3.9547 L -13.0,-4.3714 L -13.0,-4.7881 L -13.0,-5.2049 L -13.0,-5.6216 L -13.0,-6.0383 L -13.0,-6.455 L -13.0,-6.8717 L -13.0,-7.2884 L -13.0,-7.7051 L -13.0,-8.1219 L -13.0,-8.5386 L -13.0,-8.9553 L -13.0,-9.372 L -13.0,-9.7887 L -13.0,-10.2054 L -13.0,-10.6221 L -13.0,-11.0389 L -13.0,-11.4556 L -13.0,-11.8723 L -13.0,-12.289 L -13.0,-12.7057 L -13.0,-13.1224 L -13.0,-13.5391 L -13.0,-13.9559 L -13.0,-14.3726 L -13.0,-14.7893 L -13.0,-15.206 L -13.0,-15.6227 L -13.0,-16.0394 L -13.0,-16.4562" />
      <path d="M -13.0,-16.4562 L -13.0,-16.4563 L -13.0,-16.4564 L -13.0,-16.4565 L -13.0,-16.4566 L -13.0,-16.4567 L -13.0,-16.4568 L -13.0,-16.4569 L -13.0,-16.457 L -13.0,-16.4571 L -13.0,-16.4572 L -13.0,-16.4573 L -13.0,-16.4574 L -13.0,-16.4575 L -13.0,-16.4576 L -13.0,-16.4577 L -13.0,-16.4578 L -13.0,-16.4579 L -13.0,-16.458 L -13.0,-16.4581 L -13.0,-16.4582 L -13.0,-16.4583 L -13.0,-16.4584 L -13.0,-16.4585 L -13.0,-16.4586 L -13.0,-16.4587 L -13.0,-16.4588 L -13.0,-16.4589 L -13.0,-16.459 L -13.0,-16.4591 L -13.0,-16.4592 L -13.0,-16.4593 L -13.0,-16.4594 L -13.0,-16.4595 L -13.0,-16.4596 L -13.0,-16.4597 L -13.0,-16.4598 L -13.0,-16.4599 L -13.0,-16.46 L -13.0,-16.4601 L -13.0,-16.4602 L -13.0,-16.4603 L -13.0,-16.4604 L -13.0,-16.4605 L -13.0,-16.4606 L -13.0,-16.4607 L -13.0,-16.4608 L -13.0,-16.4609 L -13.0,-16.461 L -13.0,-16.4611 L -13.0,-16.4612 L -13.0,-16.4613 L -13.0,-16.4614 L -13.0,-16.4615" />
      <path d="M 13.0,-16.4562 L 13.0,-16.4563 L 13.0,-16.4564 L 13.0,-16.4565 L 13.0,-16.4566 L 13.0,-16.4567 L 13.0,-16.4568 L 13.0,-16.4569 L 13.0,-16.457 L 13.0,-16.4571 L 13.0,-16.4572 L 13.0,-16.4573 L 13.0,-16.4574 L 13.0,-16.4575 L 13.0,-16.4576 L 13.0,-16.4577 L 13.0,-16.4578 L 13.0,-16.4579 L 13.0,-16.458 L 13.0,-16.4581 L 13.0,-16.4582 L 13.0,-16.4583 L 13.0,-16.4584 L 13.0,-16.4585 L 13.0,-16.4586 L 13.0,-16.4587 L 13.0,-16.4588 L 13.0,-16.4589 L 13.0,-16.459 L 13.0,-16.4591 L 13.0,-16.4592 L 13.0,-16.4593 L 13.0,-16.4594 L 13.0,-16.4595 L 13.0,-16.4596 L 13.0,-16.4597 L 13.0,-16.4598 L 13.0,-16.4599 L 13.0,-16.46 L 13.0,-16.4601 L 13.0,-16.4602 L 13.0,-16.4603 L 13.0,-16.4604 L 13.0,-16.4605 L 13.0,-16.4606 L 13.0,-16.4607 L 13.0,-16.4608 L 13.0,-16.4609 L 13.0,-16.461 L 13.0,-16.4611 L 13.0,-16.4612 L 13.0,-16.4613 L 13.0,-16.4614 L 13.0,-16.4615" />
      <path d="M 13.0,-16.4562 L 12.6389,-16.4562 L 12.2778,-16.4562 L 11.9167,-16.4562 L 11.5556,-16.4562 L 11.1944,-16.4562 L 10.8333,-16.4562 L 10.4722,-16.4562 L 10.1111,-16.4562 L 9.75,-16.4562 L 9.3889,-16.4562 L 9.0278,-16.4562 L 8.6667,-16.4562 L 8.3056,-16.4562 L 7.9444,-16.4562 L 7.5833,-16.4562 L 7.2222,-16.4562 L 6.8611,-16.4562 L 6.5,-16.4562 L 6.1389,-16.4562 L 5.7778,-16.4562 L 5.4167,-16.4562 L 5.0556,-16.4562 L 4.6944,-16.4562 L 4.3333,-16.4562 L 3.9722,-16.4562 L 3.6111,-16.4562 L 3.25,-16.4562 L 2.8889,-16.4562 L 2.5278,-16.4562 L 2.1667,-16.4562 L 1.8056,-16.4562 L 1.4444,-16.4562 L 1.0833,-16.4562 L 0.7222,-16.4562 L 0.3611,-16.4562 L 0.0,-16.4562 L -0.3611,-16.4562 L -0.7222,-16.4562 L -1.0833,-16.4562 L -1.4444,-16.4562 L -1.8056,-16.4562 L -2.1667,-16.4562 L -2.5278,-16.4562 L -2.8889,-16.4562 L -3.25,-16.4562 L -3.6111,-16.4562 L -3.9722,-16.4562 L -4.3333,-16.4562 L -4.6944,-16.4562 L -5.0556,-16.4562 L -5.4167,-16.4562 L -5.7778,-16.4562 L -6.1389,-16.4562 L -6.5,-16.4562 L -6.8611,-16.4562 L -7.2222,-16.4562 L -7.5833,-16.4562 L -7.9444,-16.4562 L -8.3056,-16.4562 L -8.6667,-16.4562 L -9.0278,-16.4562 L -9.3889,-16.4562 L -9.75,-16.4562 L -10.1111,-16.4562 L -10.4722,-16.4562 L -10.8333,-16.4562 L -11.1944,-16.4562 L -11.5556,-16.4562 L -11.9167,-16.4562 L -12.2778,-16.4562 L -12.6389,-16.4562 L -13.0,-16.4562" />
      <path d="M -13.0,13.5473 L -12.6389,13.5473 L -12.2778,13.5473 L -11.9167,13.5473 L -11.5556,13.5473 L -11.1944,13.5473 L -10.8333,13.5473 L -10.4722,13.5473 L -10.1111,13.5473 L -9.75,13.5473 L -9.3889,13.5473 L -9.0278,13.5473 L -8.6667,13.5473 L -8.3056,13.5473 L -7.9444,13.5473 L -7.5833,13.5473 L -7.2222,13.5473 L -6.8611,13.5473 L -6.5,13.5473 L -6.1389,13.5473 L -5.7778,13.5473 L -5.4167,13.5473 L -5.0556,13.5473 L -4.6944,13.5473 L -4.3333,13.5473 L -3.9722,13.5473 L -3.6111,13.5473 L -3.25,13.5473 L -2.8889,13.5473 L -2.5278,13.5473 L -2.1667,13.5473 L -1.8056,13.5473 L -1.4444,13.5473 L -1.0833,13.5473 L -0.7222,13.5473 L -0.3611,13.5473 L 0.0,13.5473 L 0.3611,13.5473 L 0.7222,13.5473 L 1.0833,13.5473 L 1.4444,13.5473 L 1.8056,13.5473 L 2.1667,13.5473 L 2.5278,13.5473 L 2.8889,13.5473 L 3.25,13.5473 L 3.6111,13.5473 L 3.9722,13.5473 L 4.3333,13.5473 L 4.6944,13.5473 L 5.0556,13.5473 L 5.4167,13.5473 L 5.7778,13.5473 L 6.1389,13.5473 L 6.5,13.5473 L 6.8611,13.5473 L 7.2222,13.5473 L 7.5833,13.5473 L 7.9444,13.5473 L 8.3056,13.5473 L 8.6667,13.5473 L 9.0278,13.5473 L 9.3889,13.5473 L 9.75,13.5473 L 10.1111,13.5473 L 10.4722,13.5473 L 10.8333,13.5473 L 11.1944,13.5473 L 11.5556,13.5473 L 11.9167,13.5473 L 12.2778,13.5473 L 12.6389,13.5473 L 13.0,13.5473" />
      <path d="M 13.0,13.5473 L 13.0,13.1306 L 13.0,12.7139 L 13.0,12.2972 L 13.0,11.8805 L 13.0,11.4637 L 13.0,11.047 L 13.0,10.6303 L 13.0,10.2136 L 13.0,9.7969 L 13.0,9.3802 L 13.0,8.9635 L 13.0,8.5467 L 13.0,8.13 L 13.0,7.7133 L 13.0,7.2966 L 13.0,6.8799 L 13.0,6.4632 L 13.0,6.0464 L 13.0,5.6297 L 13.0,5.213 L 13.0,4.7963 L 13.0,4.3796 L 13.0,3.9629 L 13.0,3.5462 L 13.0,3.1294 L 13.0,2.7127 L 13.0,2.296 L 13.0,1.8793 L 13.0,1.4626 L 13.0,1.0459 L 13.0,0.6292 L 13.0,0.2124 L 13.0,-0.2043 L 13.0,-0.621 L 13.0,-1.0377 L 13.0,-1.4544 L 13.0,-1.8711 L 13.0,-2.2878 L 13.0,-2.7046 L 13.0,-3.1213 L 13.0,-3.538 L 13.0,-3.9547 L 13.0,-4.3714 L 13.0,-4.7881 L 13.0,-5.2049 L 13.0,-5.6216 L 13.0,-6.0383 L 13.0,-6.455 L 13.0,-6.8717 L 13.0,-7.2884 L 13.0,-7.7051 L 13.0,-8.1219 L 13.0,-8.5386 L 13.0,-8.9553 L 13.0,-9.372 L 13.0,-9.7887 L 13.0,-10.2054 L 13.0,-10.6221 L 13.0,-11.0389 L 13.0,-11.4556 L 13.0,-11.8723 L 13.0,-12.289 L 13.0,-12.7057 L 13.0,-13.1224 L 13.0,-13.5391 L 13.0,-13.9559 L 13.0,-14.3726 L 13.0,-14.7893 L 13.0,-15.206 L 13.0,-15.6227 L 13.0,-16.0394 L 13.0,-16.4562" />
      <path d="M 0.0,5.2964 L -0.147,5.2881 L -0.2939,5.2799 L -0.4409,5.2716 L -0.5878,5.2633 L -0.7348,5.2551 L -0.8802,5.2328 L -1.0253,5.2081 L -1.1704,5.1835 L -1.3155,5.1588 L -1.4606,5.1341 L -1.6031,5.098 L -1.7446,5.0572 L -1.886,5.0165 L -2.0274,4.9757 L -2.1689,4.935 L -2.3072,4.8853 L -2.4432,4.829 L -2.5792,4.7726 L -2.7152,4.7163 L -2.8511,4.66 L -2.9841,4.5972 L -3.1129,4.526 L -3.2417,4.4548 L -3.3705,4.3836 L -3.4994,4.3124 L -3.6257,4.2372 L -3.7457,4.152 L -3.8657,4.0668 L -3.9858,3.9816 L -4.1058,3.8965 L -4.2244,3.8094 L -4.3341,3.7113 L -4.4439,3.6132 L -4.5536,3.5152 L -4.6634,3.4171 L -4.7731,3.319 L -4.8712,3.2092 L -4.9693,3.0994 L -5.0673,2.9897 L -5.1654,2.8799 L -5.2635,2.7702 L -5.3505,2.6516 L -5.4356,2.5315 L -5.5208,2.4115 L -5.606,2.2914 L -5.6912,2.1714 L -5.7663,2.045 L -5.8375,1.9162 L -5.9087,1.7874 L -5.9799,1.6585 L -6.0511,1.5297 L -6.1138,1.3968 L -6.1701,1.2608 L -6.2264,1.1248 L -6.2828,0.9888 L -6.3391,0.8528 L -6.3887,0.7145 L -6.4295,0.573 L -6.4702,0.4316 L -6.5109,0.2902 L -6.5517,0.1487 L -6.5878,0.0062 L -6.6125,-0.1389 L -6.6371,-0.284 L -6.6618,-0.4291 L -6.6864,-0.5742 L -6.7087,-0.7196 L -6.717,-0.8666 L -6.7252,-1.0135 L -6.7335,-1.1605 L -6.7417,-1.3075 L -6.75,-1.4544" />
      <path d="M -6.75,-1.4544 L -6.7171,-1.7465 L -6.6842,-2.0386 L -6.6513,-2.3306 L -6.6184,-2.6227 L -6.5855,-2.9148 L -6.4976,-3.1943 L -6.4005,-3.4718 L -6.3035,-3.7492 L -6.2064,-4.0266 L -6.1093,-4.3041 L -5.9699,-4.5611 L -5.8136,-4.81 L -5.6572,-5.0589 L -5.5008,-5.3078 L -5.3445,-5.5566 L -5.1587,-5.7821 L -4.9509,-5.9899 L -4.7431,-6.1978 L -4.5353,-6.4056 L -4.3274,-6.6135 L -4.1021,-6.7993 L -3.8532,-6.9557 L -3.6043,-7.1121 L -3.3555,-7.2685 L -3.1066,-7.4249 L -2.8496,-7.5643 L -2.5722,-7.6614 L -2.2947,-7.7585 L -2.0173,-7.8556 L -1.7399,-7.9527 L -1.4604,-8.0406 L -1.1683,-8.0735 L -0.8762,-8.1065 L -0.5842,-8.1394 L -0.2921,-8.1723 L 0.0,-8.2052 L 0.2921,-8.1723 L 0.5842,-8.1394 L 0.8762,-8.1065 L 1.1683,-8.0735 L 1.4604,-8.0406 L 1.7399,-7.9527 L 2.0173,-7.8556 L 2.2947,-7.7585 L 2.5722,-7.6614 L 2.8496,-7.5643 L 3.1066,-7.4249 L 3.3555,-7.2685 L 3.6043,-7.1121 L 3.8532,-6.9557 L 4.1021,-6.7993 L 4.3274,-6.6135 L 4.5353,-6.4056 L 4.7431,-6.1978 L 4.9509,-5.9899 L 5.1587,-5.7821 L 5.3445,-5.5566 L 5.5008,-5.3078 L 5.6572,-5.0589 L 5.8136,-4.81 L 5.9699,-4.5611 L 6.1093,-4.3041 L 6.2064,-4.0266 L 6.3035,-3.7492 L 6.4005,-3.4718 L 6.4976,-3.1943 L 6.5855,-2.9148 L 6.6184,-2.6227 L 6.6513,-2.3306 L 6.6842,-2.0386 L 6.7171,-1.7465 L 6.75,-1.4544" />
      <path d="M 6.75,-1.4544 L 6.7417,-1.3075 L 6.7335,-1.1605 L 6.7252,-1.0135 L 6.717,-0.8666 L 6.7087,-0.7196 L 6.6864,-0.5742 L 6.6618,-0.4291 L 6.6371,-0.284 L 6.6125,-0.1389 L 6.5878,0.0062 L 6.5517,0.1487 L 6.5109,0.2902 L 6.4702,0.4316 L 6.4295,0.573 L 6.3887,0.7145 L 6.3391,0.8528 L 6.2828,0.9888 L 6.2264,1.1248 L 6.1701,1.2608 L 6.1138,1.3968 L 6.0511,1.5297 L 5.9799,1.6585 L 5.9087,1.7874 L 5.8375,1.9162 L 5.7663,2.045 L 5.6912,2.1714 L 5.606,2.2914 L 5.5208,2.4115 L 5.4356,2.5315 L 5.3505,2.6516 L 5.2635,2.7702 L 5.1654,2.8799 L 5.0673,2.9897 L 4.9693,3.0994 L 4.8712,3.2092 L 4.7731,3.319 L 4.6634,3.4171 L 4.5536,3.5152 L 4.4439,3.6132 L 4.3341,3.7113 L 4.2244,3.8094 L 4.1058,3.8965 L 3.9858,3.9816 L 3.8657,4.0668 L 3.7457,4.152 L 3.6257,4.2372 L 3.4994,4.3124 L 3.3705,4.3836 L 3.2417,4.4548 L 3.1129,4.526 L 2.9841,4.5972 L 2.8511,4.66 L 2.7152,4.7163 L 2.5792,4.7726 L 2.4432,4.829 L 2.3072,4.8853 L 2.1689,4.935 L 2.0274,4.9757 L 1.886,5.0165 L 1.7446,5.0572 L 1.6031,5.098 L 1.4606,5.1341 L 1.3155,5.1588 L 1.1704,5.1835 L 1.0253,5.2081 L 0.8802,5.2328 L 0.7348,5.2551 L 0.5878,5.2633 L 0.4409,5.2716 L 0.2939,5.2799 L 0.147,5.2881 L 0.0,5.2964" />
      <path d="M 23.1141,-16.4389 L 23.1139,-16.4395 L 23.1137,-16.44 L 23.1135,-16.4405 L 23.1133,-16.441 L 23.1131,-16.4416 L 23.1129,-16.4421 L 23.1127,-16.4426 L 23.1125,-16.4431 L 23.1123,-16.4437 L 23.1121,-16.4442 L 23.1119,-16.4447 L 23.1117,-16.4453 L 23.1115,-16.4458 L 23.1113,-16.4463 L 23.1111,-16.4468 L 23.111,-16.4474 L 23.1108,-16.4479 L 23.1106,-16.4484 L 23.1104,-16.4489 L 23.1102,-16.4495 L 23.11,-16.45 L 23.1098,-16.4505 L 23.1096,-16.451 L 23.1094,-16.4516 L 23.1092,-16.4521 L 23.109,-16.4526 L 23.1088,-16.4532 L 23.1086,-16.4537 L 23.1084,-16.4542 L 23.1082,-16.4547 L 23.108,-16.4553 L 23.1078,-16.4558 L 23.1076,-16.4563 L 23.1074,-16.4568 L 23.1072,-16.4574 L 23.107,-16.4579 L 23.1068,-16.4584 L 23.1066,-16.4589 L 23.1065,-16.4595 L 23.1063,-16.46 L 23.1061,-16.4605 L 23.1059,-16.461 L 23.1057,-16.4616 L 23.1055,-16.4621 L 23.1053,-16.4626 L 23.1051,-16.4632 L 23.1049,-16.4637 L 23.1047,-16.4642 L 23.1045,-16.4647 L 23.1043,-16.4653 L 23.1041,-16.4658 L 23.1039,-16.4663 L 23.1037,-16.4668 L 23.1035,-16.4674 L 23.1033,-16.4679 L 23.1031,-16.4684 L 23.1029,-16.4689 L 23.1027,-16.4695 L 23.1025,-16.47 L 23.1023,-16.4705 L 23.1022,-16.4711 L 23.102,-16.4716 L 23.1018,-16.4721 L 23.1016,-16.4726 L 23.1014,-16.4732 L 23.1012,-16.4737 L 23.101,-16.4742 L 23.1008,-16.4747 L 23.1006,-16.4753 L 23.1004,-16.4758 L 23.1002,-16.4763 L 23.1,-16.4768" />
      <path d="M 23.1141,-16.4389 L 23.1141,-16.0223 L 23.1141,-15.6056 L 23.1141,-15.1889 L 23.1141,-14.7723 L 23.1141,-14.3556 L 23.1141,-13.9389 L 23.1141,-13.5223 L 23.1141,-13.1056 L 23.1141,-12.6889 L 23.1141,-12.2723 L 23.1141,-11.8556 L 23.1141,-11.4389 L 23.1141,-11.0223 L 23.1141,-10.6056 L 23.1141,-10.1889 L 23.1141,-9.7723 L 23.1141,-9.3556 L 23.1141,-8.9389 L 23.1141,-8.5223 L 23.1141,-8.1056 L 23.1141,-7.6889 L 23.1141,-7.2723 L 23.1141,-6.8556 L 23.1141,-6.4389 L 23.1141,-6.0223 L 23.1141,-5.6056 L 23.1141,-5.1889 L 23.1141,-4.7723 L 23.1141,-4.3556 L 23.1141,-3.9389 L 23.1141,-3.5223 L 23.1141,-3.1056 L 23.1141,-2.689 L 23.1141,-2.2723 L 23.1141,-1.8556 L 23.1141,-1.439 L 23.1141,-1.0223 L 23.1141,-0.6056 L 23.1141,-0.189 L 23.1141,0.2277 L 23.1141,0.6444 L 23.1141,1.061 L 23.1141,1.4777 L 23.1141,1.8944 L 23.1141,2.311 L 23.1141,2.7277 L 23.1141,3.1444 L 23.1141,3.561 L 23.1141,3.9777 L 23.1141,4.3944 L 23.1141,4.811 L 23.1141,5.2277 L 23.1141,5.6444 L 23.1141,6.061 L 23.1141,6.4777 L 23.1141,6.8944 L 23.1141,7.311 L 23.1141,7.7277 L 23.1141,8.1444 L 23.1141,8.561 L 23.1141,8.9777 L 23.1141,9.3944 L 23.1141,9.811 L 23.1141,10.2277 L 23.1141,10.6444 L 23.1141,11.061 L 23.1141,11.4777 L 23.1141,11.8944 L 23.1141,12.311 L 23.1141,12.7277 L 23.1141,13.1444 L 23.1141,13.561" />
      <path d="M 17.0,13.5231 L 17.0333,13.1065 L 17.0667,12.6898 L 17.1,12.2731 L 17.1333,11.8565 L 17.1667,11.4398 L 17.2,11.0231 L 17.2333,10.6065 L 17.2667,10.1898 L 17.3,9.7731 L 17.3333,9.3565 L 17.3667,8.9398 L 17.4,8.5231 L 17.4333,8.1065 L 17.4667,7.6898 L 17.5,7.2731 L 17.5333,6.8565 L 17.5667,6.4398 L 17.6,6.0231 L 17.6333,5.6065 L 17.6667,5.1898 L 17.7,4.7731 L 17.7333,4.3565 L 17.7667,3.9398 L 17.8,3.5231 L 17.8333,3.1065 L 17.8667,2.6898 L 17.9,2.2731 L 17.9333,1.8565 L 17.9667,1.4398 L 18.0,1.0231 L 18.0333,0.6065 L 18.0667,0.1898 L 18.1,-0.2269 L 18.1333,-0.6435 L 18.1667,-1.0602 L 18.2,-1.4769 L 18.2333,-1.8935 L 18.2667,-2.3102 L 18.3,-2.7269 L 18.3333,-3.1435 L 18.3667,-3.5602 L 18.4,-3.9769 L 18.4333,-4.3935 L 18.4667,-4.8102 L 18.5,-5.2268 L 18.5333,-5.6435 L 18.5667,-6.0602 L 18.6,-6.4768 L 18.6333,-6.8935 L 18.6667,-7.3102 L 18.7,-7.7268 L 18.7333,-8.1435 L 18.7667,-8.5602 L 18.8,-8.9768 L 18.8333,-9.3935 L 18.8667,-9.8102 L 18.9,-10.2268 L 18.9333,-10.6435 L 18.9667,-11.0602 L 19.0,-11.4768 L 19.0333,-11.8935 L 19.0667,-12.3102 L 19.1,-12.7268 L 19.1333,-13.1435 L 19.1667,-13.5602 L 19.2,-13.9768 L 19.2333,-14.3935 L 19.2667,-14.8102 L 19.3,-15.2268 L 19.3333,-15.6435 L 19.3667,-16.0602 L 19.4,-16.4768" />
      <path d="M 19.4,-16.4768 L 19.4514,-16.4768 L 19.5028,-16.4768 L 19.5542,-16.4768 L 19.6056,-16.4768 L 19.6569,-16.4768 L 19.7083,-16.4768 L 19.7597,-16.4768 L 19.8111,-16.4768 L 19.8625,-16.4768 L 19.9139,-16.4768 L 19.9653,-16.4768 L 20.0167,-16.4768 L 20.0681,-16.4768 L 20.1194,-16.4768 L 20.1708,-16.4768 L 20.2222,-16.4768 L 20.2736,-16.4768 L 20.325,-16.4768 L 20.3764,-16.4768 L 20.4278,-16.4768 L 20.4792,-16.4768 L 20.5306,-16.4768 L 20.5819,-16.4768 L 20.6333,-16.4768 L 20.6847,-16.4768 L 20.7361,-16.4768 L 20.7875,-16.4768 L 20.8389,-16.4768 L 20.8903,-16.4768 L 20.9417,-16.4768 L 20.9931,-16.4768 L 21.0444,-16.4768 L 21.0958,-16.4768 L 21.1472,-16.4768 L 21.1986,-16.4768 L 21.25,-16.4768 L 21.3014,-16.4768 L 21.3528,-16.4768 L 21.4042,-16.4768 L 21.4556,-16.4768 L 21.5069,-16.4768 L 21.5583,-16.4768 L 21.6097,-16.4768 L 21.6611,-16.4768 L 21.7125,-16.4768 L 21.7639,-16.4768 L 21.8153,-16.4768 L 21.8667,-16.4768 L 21.9181,-16.4768 L 21.9694,-16.4768 L 22.0208,-16.4768 L 22.0722,-16.4768 L 22.1236,-16.4768 L 22.175,-16.4768 L 22.2264,-16.4768 L 22.2778,-16.4768 L 22.3292,-16.4768 L 22.3806,-16.4768 L 22.4319,-16.4768 L 22.4833,-16.4768 L 22.5347,-16.4768 L 22.5861,-16.4768 L 22.6375,-16.4768 L 22.6889,-16.4768 L 22.7403,-16.4768 L 22.7917,-16.4768 L 22.8431,-16.4768 L 22.8944,-16.4768 L 22.9458,-16.4768 L 22.9972,-16.4768 L 23.0486,-16.4768 L 23.1,-16.4768" />
      <path d="M 19.4141,-16.4389 L 19.4655,-16.4389 L 19.5169,-16.4389 L 19.5683,-16.4389 L 19.6196,-16.4389 L 19.671,-16.4389 L 19.7224,-16.4389 L 19.7738,-16.4389 L 19.8252,-16.4389 L 19.8766,-16.4389 L 19.928,-16.4389 L 19.9794,-16.4389 L 20.0308,-16.4389 L 20.0821,-16.4389 L 20.1335,-16.4389 L 20.1849,-16.4389 L 20.2363,-16.4389 L 20.2877,-16.4389 L 20.3391,-16.4389 L 20.3905,-16.4389 L 20.4419,-16.4389 L 20.4932,-16.4389 L 20.5446,-16.4389 L 20.596,-16.4389 L 20.6474,-16.4389 L 20.6988,-16.4389 L 20.7502,-16.4389 L 20.8016,-16.4389 L 20.853,-16.4389 L 20.9044,-16.4389 L 20.9557,-16.4389 L 21.0071,-16.4389 L 21.0585,-16.4389 L 21.1099,-16.4389 L 21.1613,-16.4389 L 21.2127,-16.4389 L 21.2641,-16.4389 L 21.3155,-16.4389 L 21.3669,-16.4389 L 21.4182,-16.4389 L 21.4696,-16.4389 L 21.521,-16.4389 L 21.5724,-16.4389 L 21.6238,-16.4389 L 21.6752,-16.4389 L 21.7266,-16.4389 L 21.778,-16.4389 L 21.8294,-16.4389 L 21.8807,-16.4389 L 21.9321,-16.4389 L 21.9835,-16.4389 L 22.0349,-16.4389 L 22.0863,-16.4389 L 22.1377,-16.4389 L 22.1891,-16.4389 L 22.2405,-16.4389 L 22.2919,-16.4389 L 22.3432,-16.4389 L 22.3946,-16.4389 L 22.446,-16.4389 L 22.4974,-16.4389 L 22.5488,-16.4389 L 22.6002,-16.4389 L 22.6516,-16.4389 L 22.703,-16.4389 L 22.7544,-16.4389 L 22.8057,-16.4389 L 22.8571,-16.4389 L 22.9085,-16.4389 L 22.9599,-16.4389 L 23.0113,-16.4389 L 23.0627,-16.4389 L 23.1141,-16.4389" />
      <path d="M 19.4141,-16.4389 L 19.4139,-16.4395 L 19.4137,-16.44 L 19.4135,-16.4405 L 19.4133,-16.441 L 19.4131,-16.4416 L 19.4129,-16.4421 L 19.4127,-16.4426 L 19.4125,-16.4431 L 19.4123,-16.4437 L 19.4121,-16.4442 L 19.4119,-16.4447 L 19.4117,-16.4453 L 19.4115,-16.4458 L 19.4113,-16.4463 L 19.4111,-16.4468 L 19.411,-16.4474 L 19.4108,-16.4479 L 19.4106,-16.4484 L 19.4104,-16.4489 L 19.4102,-16.4495 L 19.41,-16.45 L 19.4098,-16.4505 L 19.4096,-16.451 L 19.4094,-16.4516 L 19.4092,-16.4521 L 19.409,-16.4526 L 19.4088,-16.4531 L 19.4086,-16.4537 L 19.4084,-16.4542 L 19.4082,-16.4547 L 19.408,-16.4553 L 19.4078,-16.4558 L 19.4076,-16.4563 L 19.4074,-16.4568 L 19.4072,-16.4574 L 19.407,-16.4579 L 19.4068,-16.4584 L 19.4067,-16.4589 L 19.4065,-16.4595 L 19.4063,-16.46 L 19.4061,-16.4605 L 19.4059,-16.461 L 19.4057,-16.4616 L 19.4055,-16.4621 L 19.4053,-16.4626 L 19.4051,-16.4632 L 19.4049,-16.4637 L 19.4047,-16.4642 L 19.4045,-16.4647 L 19.4043,-16.4653 L 19.4041,-16.4658 L 19.4039,-16.4663 L 19.4037,-16.4668 L 19.4035,-16.4674 L 19.4033,-16.4679 L 19.4031,-16.4684 L 19.4029,-16.4689 L 19.4027,-16.4695 L 19.4025,-16.47 L 19.4023,-16.4705 L 19.4022,-16.471 L 19.402,-16.4716 L 19.4018,-16.4721 L 19.4016,-16.4726 L 19.4014,-16.4732 L 19.4012,-16.4737 L 19.401,-16.4742 L 19.4008,-16.4747 L 19.4006,-16.4753 L 19.4004,-16.4758 L 19.4002,-16.4763 L 19.4,-16.4768" />
      <path d="M 17.0,13.5231 L 17.0002,13.5237 L 17.0004,13.5242 L 17.0006,13.5247 L 17.0008,13.5252 L 17.001,13.5258 L 17.0012,13.5263 L 17.0014,13.5268 L 17.0016,13.5273 L 17.0018,13.5279 L 17.002,13.5284 L 17.0022,13.5289 L 17.0023,13.5294 L 17.0025,13.53 L 17.0027,13.5305 L 17.0029,13.531 L 17.0031,13.5316 L 17.0033,13.5321 L 17.0035,13.5326 L 17.0037,13.5331 L 17.0039,13.5337 L 17.0041,13.5342 L 17.0043,13.5347 L 17.0045,13.5352 L 17.0047,13.5358 L 17.0049,13.5363 L 17.0051,13.5368 L 17.0053,13.5373 L 17.0055,13.5379 L 17.0057,13.5384 L 17.0059,13.5389 L 17.0061,13.5395 L 17.0063,13.54 L 17.0065,13.5405 L 17.0067,13.541 L 17.0068,13.5416 L 17.007,13.5421 L 17.0072,13.5426 L 17.0074,13.5431 L 17.0076,13.5437 L 17.0078,13.5442 L 17.008,13.5447 L 17.0082,13.5452 L 17.0084,13.5458 L 17.0086,13.5463 L 17.0088,13.5468 L 17.009,13.5473 L 17.0092,13.5479 L 17.0094,13.5484 L 17.0096,13.5489 L 17.0098,13.5495 L 17.01,13.55 L 17.0102,13.5505 L 17.0104,13.551 L 17.0106,13.5516 L 17.0108,13.5521 L 17.011,13.5526 L 17.0111,13.5531 L 17.0113,13.5537 L 17.0115,13.5542 L 17.0117,13.5547 L 17.0119,13.5552 L 17.0121,13.5558 L 17.0123,13.5563 L 17.0125,13.5568 L 17.0127,13.5574 L 17.0129,13.5579 L 17.0131,13.5584 L 17.0133,13.5589 L 17.0135,13.5595 L 17.0137,13.56 L 17.0139,13.5605 L 17.0141,13.561" />
      <path d="M 23.1141,13.561 L 23.0294,13.561 L 22.9446,13.561 L 22.8599,13.561 L 22.7752,13.561 L 22.6905,13.561 L 22.6057,13.561 L 22.521,13.561 L 22.4363,13.561 L 22.3516,13.561 L 22.2669,13.561 L 22.1821,13.561 L 22.0974,13.561 L 22.0127,13.561 L 21.928,13.561 L 21.8432,13.561 L 21.7585,13.561 L 21.6738,13.561 L 21.5891,13.561 L 21.5044,13.561 L 21.4196,13.561 L 21.3349,13.561 L 21.2502,13.561 L 21.1655,13.561 L 21.0807,13.561 L 20.996,13.561 L 20.9113,13.561 L 20.8266,13.561 L 20.7419,13.561 L 20.6571,13.561 L 20.5724,13.561 L 20.4877,13.561 L 20.403,13.561 L 20.3182,13.561 L 20.2335,13.561 L 20.1488,13.561 L 20.0641,13.561 L 19.9794,13.561 L 19.8946,13.561 L 19.8099,13.561 L 19.7252,13.561 L 19.6405,13.561 L 19.5558,13.561 L 19.471,13.561 L 19.3863,13.561 L 19.3016,13.561 L 19.2169,13.561 L 19.1321,13.561 L 19.0474,13.561 L 18.9627,13.561 L 18.878,13.561 L 18.7933,13.561 L 18.7085,13.561 L 18.6238,13.561 L 18.5391,13.561 L 18.4544,13.561 L 18.3696,13.561 L 18.2849,13.561 L 18.2002,13.561 L 18.1155,13.561 L 18.0308,13.561 L 17.946,13.561 L 17.8613,13.561 L 17.7766,13.561 L 17.6919,13.561 L 17.6071,13.561 L 17.5224,13.561 L 17.4377,13.561 L 17.353,13.561 L 17.2683,13.561 L 17.1835,13.561 L 17.0988,13.561 L 17.0141,13.561" />
      <path d="M 17.0141,13.561 L 17.0474,13.1444 L 17.0808,12.7277 L 17.1141,12.311 L 17.1474,11.8944 L 17.1808,11.4777 L 17.2141,11.061 L 17.2474,10.6444 L 17.2808,10.2277 L 17.3141,9.811 L 17.3474,9.3944 L 17.3808,8.9777 L 17.4141,8.561 L 17.4474,8.1444 L 17.4808,7.7277 L 17.5141,7.311 L 17.5474,6.8944 L 17.5808,6.4777 L 17.6141,6.061 L 17.6474,5.6444 L 17.6808,5.2277 L 17.7141,4.811 L 17.7474,4.3944 L 17.7808,3.9777 L 17.8141,3.561 L 17.8474,3.1444 L 17.8808,2.7277 L 17.9141,2.311 L 17.9474,1.8944 L 17.9808,1.4777 L 18.0141,1.061 L 18.0474,0.6444 L 18.0808,0.2277 L 18.1141,-0.1889 L 18.1474,-0.6056 L 18.1808,-1.0223 L 18.2141,-1.4389 L 18.2474,-1.8556 L 18.2808,-2.2723 L 18.3141,-2.6889 L 18.3474,-3.1056 L 18.3808,-3.5223 L 18.4141,-3.9389 L 18.4474,-4.3556 L 18.4808,-4.7723 L 18.5141,-5.1889 L 18.5474,-5.6056 L 18.5808,-6.0223 L 18.6141,-6.4389 L 18.6474,-6.8556 L 18.6808,-7.2723 L 18.7141,-7.6889 L 18.7474,-8.1056 L 18.7808,-8.5223 L 18.8141,-8.9389 L 18.8474,-9.3556 L 18.8808,-9.7723 L 18.9141,-10.1889 L 18.9474,-10.6056 L 18.9808,-11.0223 L 19.0141,-11.4389 L 19.0474,-11.8556 L 19.0808,-12.2723 L 19.1141,-12.6889 L 19.1474,-13.1056 L 19.1808,-13.5223 L 19.2141,-13.9389 L 19.2474,-14.3556 L 19.2808,-14.7723 L 19.3141,-15.1889 L 19.3474,-15.6056 L 19.3808,-16.0223 L 19.4141,-16.4389" />
      <path d="M 17.667,5.2921 L 17.681,5.1045 L 17.6957,4.917 L 17.7103,4.7295 L 17.725,4.5419 L 17.7399,4.3544 L 17.7547,4.1669 L 17.7695,3.9794 L 17.7843,3.7919 L 17.7992,3.6044 L 17.814,3.4169 L 17.8289,3.2293 L 17.8438,3.0418 L 17.8587,2.8543 L 17.8736,2.6668 L 17.8885,2.4793 L 17.9034,2.2918 L 17.9183,2.1043 L 17.9333,1.9168 L 17.9482,1.7293 L 17.9631,1.5418 L 17.978,1.3543 L 17.993,1.1668 L 18.008,0.9793 L 18.0229,0.7918 L 18.0379,0.6043 L 18.0528,0.4168 L 18.0678,0.2293 L 18.0827,0.0418 L 18.0977,-0.1457 L 18.1127,-0.3333 L 18.1277,-0.5208 L 18.1427,-0.7083 L 18.1577,-0.8958 L 18.1727,-1.0833 L 18.1876,-1.2708 L 18.2026,-1.4583 L 18.2176,-1.6458 L 18.2327,-1.8333 L 18.2477,-2.0208 L 18.2627,-2.2083 L 18.2777,-2.3958 L 18.2927,-2.5833 L 18.3077,-2.7707 L 18.3227,-2.9582 L 18.3378,-3.1457 L 18.3528,-3.3332 L 18.3679,-3.5207 L 18.3829,-3.7082 L 18.3979,-3.8957 L 18.413,-4.0832 L 18.428,-4.2707 L 18.4431,-4.4582 L 18.4582,-4.6457 L 18.4732,-4.8332 L 18.4883,-5.0207 L 18.5034,-5.2082 L 18.5185,-5.3957 L 18.5336,-5.5832 L 18.5487,-5.7707 L 18.5638,-5.9582 L 18.5789,-6.1457 L 18.594,-6.3331 L 18.6091,-6.5206 L 18.6243,-6.7081 L 18.6395,-6.8956 L 18.6546,-7.0831 L 18.6698,-7.2706 L 18.685,-7.4581 L 18.7003,-7.6455 L 18.7157,-7.833 L 18.731,-8.0205 L 18.747,-8.2079" />
      <path d="M 18.747,-8.2079 L 18.7331,-8.0203 L 18.7184,-7.8328 L 18.7038,-7.6453 L 18.689,-7.4577 L 18.6742,-7.2702 L 18.6594,-7.0827 L 18.6446,-6.8952 L 18.6298,-6.7077 L 18.6149,-6.5202 L 18.6001,-6.3327 L 18.5852,-6.1452 L 18.5703,-5.9576 L 18.5554,-5.7701 L 18.5405,-5.5826 L 18.5256,-5.3951 L 18.5107,-5.2076 L 18.4958,-5.0201 L 18.4808,-4.8326 L 18.4659,-4.6451 L 18.451,-4.4576 L 18.436,-4.2701 L 18.4211,-4.0826 L 18.4061,-3.8951 L 18.3912,-3.7076 L 18.3762,-3.5201 L 18.3613,-3.3326 L 18.3463,-3.1451 L 18.3313,-2.9576 L 18.3164,-2.7701 L 18.3014,-2.5826 L 18.2864,-2.3951 L 18.2714,-2.2076 L 18.2564,-2.0201 L 18.2414,-1.8326 L 18.2264,-1.645 L 18.2115,-1.4575 L 18.1964,-1.27 L 18.1814,-1.0825 L 18.1664,-0.8951 L 18.1514,-0.7076 L 18.1364,-0.5201 L 18.1214,-0.3326 L 18.1064,-0.1451 L 18.0913,0.0424 L 18.0763,0.2299 L 18.0613,0.4174 L 18.0462,0.6049 L 18.0312,0.7924 L 18.0161,0.9799 L 18.0011,1.1674 L 17.986,1.3549 L 17.971,1.5424 L 17.9559,1.7299 L 17.9408,1.9174 L 17.9258,2.1049 L 17.9107,2.2924 L 17.8956,2.4799 L 17.8805,2.6674 L 17.8654,2.8549 L 17.8503,3.0424 L 17.8352,3.2299 L 17.8201,3.4173 L 17.8049,3.6048 L 17.7898,3.7923 L 17.7746,3.9798 L 17.7594,4.1673 L 17.7442,4.3548 L 17.729,4.5423 L 17.7138,4.7297 L 17.6984,4.9172 L 17.6831,5.1047 L 17.667,5.2921" />
    </g>
    <g fill="none" stroke="rgb(110,110,110)" stroke-width="0.3" id="Hidden" stroke-dasharray="3.6 0.9">
      <path d="M -13.0,-16.4615 L -13.0,-16.0449 L -13.0,-15.6282 L -13.0,-15.2115 L -13.0,-14.7949 L -13.0,-14.3782 L -13.0,-13.9615 L -13.0,-13.5449 L -13.0,-13.1282 L -13.0,-12.7115 L -13.0,-12.2949 L -13.0,-11.8782 L -13.0,-11.4615 L -13.0,-11.0449 L -13.0,-10.6282 L -13.0,-10.2115 L -13.0,-9.7949 L -13.0,-9.3782 L -13.0,-8.9615 L -13.0,-8.5449 L -13.0,-8.1282 L -13.0,-7.7116 L -13.0,-7.2949 L -13.0,-6.8782 L -13.0,-6.4616 L -13.0,-6.0449 L -13.0,-5.6282 L -13.0,-5.2116 L -13.0,-4.7949 L -13.0,-4.3782 L -13.0,-3.9616 L -13.0,-3.5449 L -13.0,-3.1282 L -13.0,-2.7116 L -13.0,-2.2949 L -13.0,-1.8782 L -13.0,-1.4616 L -13.0,-1.0449 L -13.0,-0.6282 L -13.0,-0.2116 L -13.0,0.2051 L -13.0,0.6218 L -13.0,1.0384 L -13.0,1.4551 L -13.0,1.8718 L -13.0,2.2884 L -13.0,2.7051 L -13.0,3.1218 L -13.0,3.5384 L -13.0,3.9551 L -13.0,4.3718 L -13.0,4.7884 L -13.0,5.2051 L -13.0,5.6218 L -13.0,6.0384 L -13.0,6.4551 L -13.0,6.8718 L -13.0,7.2884 L -13.0,7.7051 L -13.0,8.1218 L -13.0,8.5384 L -13.0,8.9551 L -13.0,9.3718 L -13.0,9.7884 L -13.0,10.2051 L -13.0,10.6218 L -13.0,11.0384 L -13.0,11.4551 L -13.0,11.8718 L -13.0,12.2884 L -13.0,12.7051 L -13.0,13.1218 L -13.0,13.5384" />
      <path d="M -13.0,13.5384 L -12.6389,13.5384 L -12.2778,13.5384 L -11.9167,13.5384 L -11.5556,13.5384 L -11.1944,13.5384 L -10.8333,13.5384 L -10.4722,13.5384 L -10.1111,13.5384 L -9.75,13.5384 L -9.3889,13.5384 L -9.0278,13.5384 L -8.6667,13.5384 L -8.3056,13.5384 L -7.9444,13.5384 L -7.5833,13.5384 L -7.2222,13.5384 L -6.8611,13.5384 L -6.5,13.5384 L -6.1389,13.5384 L -5.7778,13.5384 L -5.4167,13.5384 L -5.0556,13.5384 L -4.6944,13.5384 L -4.3333,13.5384 L -3.9722,13.5384 L -3.6111,13.5384 L -3.25,13.5384 L -2.8889,13.5384 L -2.5278,13.5384 L -2.1667,13.5384 L -1.8056,13.5384 L -1.4444,13.5384 L -1.0833,13.5384 L -0.7222,13.5384 L -0.3611,13.5384 L 0.0,13.5384 L 0.3611,13.5384 L 0.7222,13.5384 L 1.0833,13.5384 L 1.4444,13.5384 L 1.8056,13.5384 L 2.1667,13.5384 L 2.5278,13.5384 L 2.8889,13.5384 L 3.25,13.5384 L 3.6111,13.5384 L 3.9722,13.5384 L 4.3333,13.5384 L 4.6944,13.5384 L 5.0556,13.5384 L 5.4167,13.5384 L 5.7778,13.5384 L 6.1389,13.5384 L 6.5,13.5384 L 6.8611,13.5384 L 7.2222,13.5384 L 7.5833,13.5384 L 7.9444,13.5384 L 8.3056,13.5384 L 8.6667,13.5384 L 9.0278,13.5384 L 9.3889,13.5384 L 9.75,13.5384 L 10.1111,13.5384 L 10.4722,13.5384 L 10.8333,13.5384 L 11.1944,13.5384 L 11.5556,13.5384 L 11.9167,13.5384 L 12.2778,13.5384 L 12.6389,13.5384 L 13.0,13.5384" />
      <path d="M 13.0,-16.4615 L 13.0,-16.0449 L 13.0,-15.6282 L 13.0,-15.2115 L 13.0,-14.7949 L 13.0,-14.3782 L 13.0,-13.9615 L 13.0,-13.5449 L 13.0,-13.1282 L 13.0,-12.7115 L 13.0,-12.2949 L 13.0,-11.8782 L 13.0,-11.4615 L 13.0,-11.0449 L 13.0,-10.6282 L 13.0,-10.2115 L 13.0,-9.7949 L 13.0,-9.3782 L 13.0,-8.9615 L 13.0,-8.5449 L 13.0,-8.1282 L 13.0,-7.7116 L 13.0,-7.2949 L 13.0,-6.8782 L 13.0,-6.4616 L 13.0,-6.0449 L 13.0,-5.6282 L 13.0,-5.2116 L 13.0,-4.7949 L 13.0,-4.3782 L 13.0,-3.9616 L 13.0,-3.5449 L 13.0,-3.1282 L 13.0,-2.7116 L 13.0,-2.2949 L 13.0,-1.8782 L 13.0,-1.4616 L 13.0,-1.0449 L 13.0,-0.6282 L 13.0,-0.2116 L 13.0,0.2051 L 13.0,0.6218 L 13.0,1.0384 L 13.0,1.4551 L 13.0,1.8718 L 13.0,2.2884 L 13.0,2.7051 L 13.0,3.1218 L 13.0,3.5384 L 13.0,3.9551 L 13.0,4.3718 L 13.0,4.7884 L 13.0,5.2051 L 13.0,5.6218 L 13.0,6.0384 L 13.0,6.4551 L 13.0,6.8718 L 13.0,7.2884 L 13.0,7.7051 L 13.0,8.1218 L 13.0,8.5384 L 13.0,8.9551 L 13.0,9.3718 L 13.0,9.7884 L 13.0,10.2051 L 13.0,10.6218 L 13.0,11.0384 L 13.0,11.4551 L 13.0,11.8718 L 13.0,12.2884 L 13.0,12.7051 L 13.0,13.1218 L 13.0,13.5384" />
      <path d="M -6.75,-1.458 L -6.75,-1.4581 L -6.75,-1.4582 L -6.75,-1.4583 L -6.75,-1.4584 L -6.75,-1.4585 L -6.75,-1.4586 L -6.75,-1.4587 L -6.75,-1.4588 L -6.75,-1.4589 L -6.75,-1.459 L -6.75,-1.4591 L -6.75,-1.4592 L -6.75,-1.4593 L -6.75,-1.4594 L -6.75,-1.4595 L -6.75,-1.4596 L -6.75,-1.4597 L -6.75,-1.4598 L -6.75,-1.4599 L -6.75,-1.46 L -6.75,-1.4601 L -6.75,-1.4602 L -6.75,-1.4603 L -6.75,-1.4604 L -6.75,-1.4605 L -6.75,-1.4606 L -6.75,-1.4607 L -6.75,-1.4608 L -6.75,-1.4609 L -6.75,-1.461 L -6.75,-1.4611 L -6.75,-1.4612 L -6.75,-1.4613 L -6.75,-1.4614 L -6.75,-1.4615 L -6.75,-1.4616" />
      <path d="M -6.75,-1.4616 L -6.7436,-1.756 L -6.7243,-2.0499 L -6.6923,-2.3426 L -6.6475,-2.6337 L -6.59,-2.9225 L -6.52,-3.2086 L -6.4376,-3.4913 L -6.3429,-3.7702 L -6.2362,-4.0447 L -6.1176,-4.3142 L -5.9873,-4.5784 L -5.8457,-4.8366 L -5.6929,-5.0883 L -5.5293,-5.3332 L -5.3551,-5.5707 L -5.1708,-5.8004 L -4.9766,-6.0218 L -4.773,-6.2345 L -4.5602,-6.4382 L -4.3388,-6.6324 L -4.1091,-6.8167 L -3.8716,-6.9908 L -3.6268,-7.1544 L -3.375,-7.3072 L -3.1168,-7.4489 L -2.8527,-7.5791 L -2.5831,-7.6977 L -2.3086,-7.8045 L -2.0298,-7.8991 L -1.747,-7.9816 L -1.461,-8.0515 L -1.1721,-8.109 L -0.8811,-8.1538 L -0.5883,-8.1859 L -0.2944,-8.2051 L -0.0,-8.2116 L 0.2944,-8.2051 L 0.5883,-8.1859 L 0.8811,-8.1538 L 1.1721,-8.109 L 1.461,-8.0515 L 1.747,-7.9816 L 2.0298,-7.8991 L 2.3086,-7.8045 L 2.5831,-7.6977 L 2.8527,-7.5791 L 3.1168,-7.4489 L 3.375,-7.3072 L 3.6268,-7.1544 L 3.8716,-6.9908 L 4.1091,-6.8167 L 4.3388,-6.6324 L 4.5602,-6.4382 L 4.773,-6.2345 L 4.9766,-6.0218 L 5.1708,-5.8004 L 5.3551,-5.5707 L 5.5293,-5.3332 L 5.6929,-5.0883 L 5.8457,-4.8366 L 5.9873,-4.5784 L 6.1176,-4.3142 L 6.2362,-4.0447 L 6.3429,-3.7702 L 6.4376,-3.4913 L 6.52,-3.2086 L 6.59,-2.9225 L 6.6475,-2.6337 L 6.6923,-2.3426 L 6.7243,-2.0499 L 6.7436,-1.756 L 6.75,-1.4616" />
      <path d="M 6.75,-1.4616 L 6.75,-1.4615 L 6.75,-1.4614 L 6.75,-1.4613 L 6.75,-1.4612 L 6.75,-1.4611 L 6.75,-1.461 L 6.75,-1.4609 L 6.75,-1.4608 L 6.75,-1.4607 L 6.75,-1.4606 L 6.75,-1.4605 L 6.75,-1.4604 L 6.75,-1.4603 L 6.75,-1.4602 L 6.75,-1.4601 L 6.75,-1.46 L 6.75,-1.4599 L 6.75,-1.4598 L 6.75,-1.4597 L 6.75,-1.4596 L 6.75,-1.4595 L 6.75,-1.4594 L 6.75,-1.4593 L 6.75,-1.4592 L 6.75,-1.4591 L 6.75,-1.459 L 6.75,-1.4589 L 6.75,-1.4588 L 6.75,-1.4587 L 6.75,-1.4586 L 6.75,-1.4585 L 6.75,-1.4584 L 6.75,-1.4583 L 6.75,-1.4582 L 6.75,-1.4581 L 6.75,-1.458" />
      <path d="M -13.0,13.5384 L -13.0,13.5385 L -13.0,13.5387 L -13.0,13.5388 L -13.0,13.5389 L -13.0,13.539 L -13.0,13.5392 L -13.0,13.5393 L -13.0,13.5394 L -13.0,13.5395 L -13.0,13.5397 L -13.0,13.5398 L -13.0,13.5399 L -13.0,13.54 L -13.0,13.5402 L -13.0,13.5403 L -13.0,13.5404 L -13.0,13.5405 L -13.0,13.5406 L -13.0,13.5408 L -13.0,13.5409 L -13.0,13.541 L -13.0,13.5411 L -13.0,13.5413 L -13.0,13.5414 L -13.0,13.5415 L -13.0,13.5416 L -13.0,13.5418 L -13.0,13.5419 L -13.0,13.542 L -13.0,13.5421 L -13.0,13.5423 L -13.0,13.5424 L -13.0,13.5425 L -13.0,13.5426 L -13.0,13.5427 L -13.0,13.5429 L -13.0,13.543 L -13.0,13.5431 L -13.0,13.5432 L -13.0,13.5434 L -13.0,13.5435 L -13.0,13.5436 L -13.0,13.5437 L -13.0,13.5439 L -13.0,13.544 L -13.0,13.5441 L -13.0,13.5442 L -13.0,13.5444 L -13.0,13.5445 L -13.0,13.5446 L -13.0,13.5447 L -13.0,13.5448 L -13.0,13.545 L -13.0,13.5451 L -13.0,13.5452 L -13.0,13.5453 L -13.0,13.5455 L -13.0,13.5456 L -13.0,13.5457 L -13.0,13.5458 L -13.0,13.546 L -13.0,13.5461 L -13.0,13.5462 L -13.0,13.5463 L -13.0,13.5465 L -13.0,13.5466 L -13.0,13.5467 L -13.0,13.5468 L -13.0,13.5469 L -13.0,13.5471 L -13.0,13.5472 L -13.0,13.5473" />
      <path d="M 13.0,13.5384 L 13.0,13.5385 L 13.0,13.5387 L 13.0,13.5388 L 13.0,13.5389 L 13.0,13.539 L 13.0,13.5392 L 13.0,13.5393 L 13.0,13.5394 L 13.0,13.5395 L 13.0,13.5397 L 13.0,13.5398 L 13.0,13.5399 L 13.0,13.54 L 13.0,13.5402 L 13.0,13.5403 L 13.0,13.5404 L 13.0,13.5405 L 13.0,13.5406 L 13.0,13.5408 L 13.0,13.5409 L 13.0,13.541 L 13.0,13.5411 L 13.0,13.5413 L 13.0,13.5414 L 13.0,13.5415 L 13.0,13.5416 L 13.0,13.5418 L 13.0,13.5419 L 13.0,13.542 L 13.0,13.5421 L 13.0,13.5423 L 13.0,13.5424 L 13.0,13.5425 L 13.0,13.5426 L 13.0,13.5427 L 13.0,13.5429 L 13.0,13.543 L 13.0,13.5431 L 13.0,13.5432 L 13.0,13.5434 L 13.0,13.5435 L 13.0,13.5436 L 13.0,13.5437 L 13.0,13.5439 L 13.0,13.544 L 13.0,13.5441 L 13.0,13.5442 L 13.0,13.5444 L 13.0,13.5445 L 13.0,13.5446 L 13.0,13.5447 L 13.0,13.5448 L 13.0,13.545 L 13.0,13.5451 L 13.0,13.5452 L 13.0,13.5453 L 13.0,13.5455 L 13.0,13.5456 L 13.0,13.5457 L 13.0,13.5458 L 13.0,13.546 L 13.0,13.5461 L 13.0,13.5462 L 13.0,13.5463 L 13.0,13.5465 L 13.0,13.5466 L 13.0,13.5467 L 13.0,13.5468 L 13.0,13.5469 L 13.0,13.5471 L 13.0,13.5472 L 13.0,13.5473" />
      <path d="M 6.75,-1.4616 L 6.75,-1.4615 L 6.75,-1.4614 L 6.75,-1.4613 L 6.75,-1.4612 L 6.75,-1.4611 L 6.75,-1.461 L 6.75,-1.4609 L 6.75,-1.4608 L 6.75,-1.4607 L 6.75,-1.4606 L 6.75,-1.4605 L 6.75,-1.4604 L 6.75,-1.4603 L 6.75,-1.4602 L 6.75,-1.4601 L 6.75,-1.46 L 6.75,-1.4599 L 6.75,-1.4598 L 6.75,-1.4597 L 6.75,-1.4596 L 6.75,-1.4595 L 6.75,-1.4594 L 6.75,-1.4593 L 6.75,-1.4592 L 6.75,-1.4591 L 6.75,-1.459 L 6.75,-1.4589 L 6.75,-1.4588 L 6.75,-1.4587 L 6.75,-1.4586 L 6.75,-1.4585 L 6.75,-1.4584 L 6.75,-1.4583 L 6.75,-1.4582 L 6.75,-1.4581 L 6.75,-1.458 L 6.75,-1.4579 L 6.75,-1.4578 L 6.75,-1.4577 L 6.75,-1.4576 L 6.75,-1.4575 L 6.75,-1.4574 L 6.75,-1.4573 L 6.75,-1.4572 L 6.75,-1.4571 L 6.75,-1.457 L 6.75,-1.4569 L 6.75,-1.4568 L 6.75,-1.4567 L 6.75,-1.4566 L 6.75,-1.4565 L 6.75,-1.4564 L 6.75,-1.4563 L 6.75,-1.4562 L 6.75,-1.4561 L 6.75,-1.456 L 6.75,-1.4559 L 6.75,-1.4558 L 6.75,-1.4557 L 6.75,-1.4556 L 6.75,-1.4555 L 6.75,-1.4554 L 6.75,-1.4553 L 6.75,-1.4552 L 6.75,-1.4551 L 6.75,-1.455 L 6.75,-1.4549 L 6.75,-1.4548 L 6.75,-1.4547 L 6.75,-1.4546 L 6.75,-1.4545 L 6.75,-1.4544" />
      <path d="M -6.75,-1.4616 L -6.75,-1.4615 L -6.75,-1.4614 L -6.75,-1.4613 L -6.75,-1.4612 L -6.75,-1.4611 L -6.75,-1.461 L -6.75,-1.4609 L -6.75,-1.4608 L -6.75,-1.4607 L -6.75,-1.4606 L -6.75,-1.4605 L -6.75,-1.4604 L -6.75,-1.4603 L -6.75,-1.4602 L -6.75,-1.4601 L -6.75,-1.46 L -6.75,-1.4599 L -6.75,-1.4598 L -6.75,-1.4597 L -6.75,-1.4596 L -6.75,-1.4595 L -6.75,-1.4594 L -6.75,-1.4593 L -6.75,-1.4592 L -6.75,-1.4591 L -6.75,-1.459 L -6.75,-1.4589 L -6.75,-1.4588 L -6.75,-1.4587 L -6.75,-1.4586 L -6.75,-1.4585 L -6.75,-1.4584 L -6.75,-1.4583 L -6.75,-1.4582 L -6.75,-1.4581 L -6.75,-1.458 L -6.75,-1.4579 L -6.75,-1.4578 L -6.75,-1.4577 L -6.75,-1.4576 L -6.75,-1.4575 L -6.75,-1.4574 L -6.75,-1.4573 L -6.75,-1.4572 L -6.75,-1.4571 L -6.75,-1.457 L -6.75,-1.4569 L -6.75,-1.4568 L -6.75,-1.4567 L -6.75,-1.4566 L -6.75,-1.4565 L -6.75,-1.4564 L -6.75,-1.4563 L -6.75,-1.4562 L -6.75,-1.4561 L -6.75,-1.456 L -6.75,-1.4559 L -6.75,-1.4558 L -6.75,-1.4557 L -6.75,-1.4556 L -6.75,-1.4555 L -6.75,-1.4554 L -6.75,-1.4553 L -6.75,-1.4552 L -6.75,-1.4551 L -6.75,-1.455 L -6.75,-1.4549 L -6.75,-1.4548 L -6.75,-1.4547 L -6.75,-1.4546 L -6.75,-1.4545 L -6.75,-1.4544" />
      <path d="M 23.1,-16.4768 L 23.1,-16.0602 L 23.1,-15.6435 L 23.1,-15.2268 L 23.1,-14.8102 L 23.1,-14.3935 L 23.1,-13.9768 L 23.1,-13.5602 L 23.1,-13.1435 L 23.1,-12.7268 L 23.1,-12.3102 L 23.1,-11.8935 L 23.1,-11.4768 L 23.1,-11.0602 L 23.1,-10.6435 L 23.1,-10.2268 L 23.1,-9.8102 L 23.1,-9.3935 L 23.1,-8.9768 L 23.1,-8.5602 L 23.1,-8.1435 L 23.1,-7.7269 L 23.1,-7.3102 L 23.1,-6.8935 L 23.1,-6.4769 L 23.1,-6.0602 L 23.1,-5.6435 L 23.1,-5.2269 L 23.1,-4.8102 L 23.1,-4.3935 L 23.1,-3.9769 L 23.1,-3.5602 L 23.1,-3.1435 L 23.1,-2.7269 L 23.1,-2.3102 L 23.1,-1.8935 L 23.1,-1.4769 L 23.1,-1.0602 L 23.1,-0.6435 L 23.1,-0.2269 L 23.1,0.1898 L 23.1,0.6065 L 23.1,1.0231 L 23.1,1.4398 L 23.1,1.8565 L 23.1,2.2731 L 23.1,2.6898 L 23.1,3.1065 L 23.1,3.5231 L 23.1,3.9398 L 23.1,4.3565 L 23.1,4.7731 L 23.1,5.1898 L 23.1,5.6065 L 23.1,6.0231 L 23.1,6.4398 L 23.1,6.8565 L 23.1,7.2731 L 23.1,7.6898 L 23.1,8.1065 L 23.1,8.5231 L 23.1,8.9398 L 23.1,9.3565 L 23.1,9.7731 L 23.1,10.1898 L 23.1,10.6065 L 23.1,11.0231 L 23.1,11.4398 L 23.1,11.8565 L 23.1,12.2731 L 23.1,12.6898 L 23.1,13.1065 L 23.1,13.5231" />
      <path d="M 23.1,13.5231 L 23.1002,13.5237 L 23.1004,13.5242 L 23.1006,13.5247 L 23.1008,13.5252 L 23.101,13.5258 L 23.1012,13.5263 L 23.1014,13.5268 L 23.1016,13.5273 L 23.1018,13.5279 L 23.102,13.5284 L 23.1022,13.5289 L 23.1023,13.5294 L 23.1025,13.53 L 23.1027,13.5305 L 23.1029,13.531 L 23.1031,13.5316 L 23.1033,13.5321 L 23.1035,13.5326 L 23.1037,13.5331 L 23.1039,13.5337 L 23.1041,13.5342 L 23.1043,13.5347 L 23.1045,13.5352 L 23.1047,13.5358 L 23.1049,13.5363 L 23.1051,13.5368 L 23.1053,13.5373 L 23.1055,13.5379 L 23.1057,13.5384 L 23.1059,13.5389 L 23.1061,13.5394 L 23.1063,13.54 L 23.1065,13.5405 L 23.1066,13.541 L 23.1068,13.5416 L 23.107,13.5421 L 23.1072,13.5426 L 23.1074,13.5431 L 23.1076,13.5437 L 23.1078,13.5442 L 23.108,13.5447 L 23.1082,13.5452 L 23.1084,13.5458 L 23.1086,13.5463 L 23.1088,13.5468 L 23.109,13.5473 L 23.1092,13.5479 L 23.1094,13.5484 L 23.1096,13.5489 L 23.1098,13.5494 L 23.11,13.55 L 23.1102,13.5505 L 23.1104,13.551 L 23.1106,13.5516 L 23.1108,13.5521 L 23.111,13.5526 L 23.1111,13.5531 L 23.1113,13.5537 L 23.1115,13.5542 L 23.1117,13.5547 L 23.1119,13.5552 L 23.1121,13.5558 L 23.1123,13.5563 L 23.1125,13.5568 L 23.1127,13.5573 L 23.1129,13.5579 L 23.1131,13.5584 L 23.1133,13.5589 L 23.1135,13.5595 L 23.1137,13.56 L 23.1139,13.5605 L 23.1141,13.561" />
      <path d="M 23.107,5.2921 L 23.1062,5.1046 L 23.1058,4.9171 L 23.1056,4.7296 L 23.1054,4.5421 L 23.1052,4.3546 L 23.105,4.1671 L 23.1049,3.9796 L 23.1047,3.7921 L 23.1046,3.6046 L 23.1045,3.4171 L 23.1044,3.2296 L 23.1043,3.0421 L 23.1042,2.8546 L 23.1042,2.6671 L 23.1041,2.4796 L 23.104,2.2921 L 23.1039,2.1046 L 23.1039,1.9171 L 23.1038,1.7296 L 23.1038,1.5421 L 23.1037,1.3546 L 23.1037,1.1671 L 23.1036,0.9796 L 23.1036,0.7921 L 23.1036,0.6046 L 23.1035,0.4171 L 23.1035,0.2296 L 23.1035,0.0421 L 23.1035,-0.1454 L 23.1034,-0.3329 L 23.1034,-0.5204 L 23.1034,-0.7079 L 23.1034,-0.8954 L 23.1034,-1.0829 L 23.1034,-1.2704 L 23.1034,-1.4579 L 23.1034,-1.6454 L 23.1034,-1.8329 L 23.1034,-2.0204 L 23.1034,-2.2079 L 23.1034,-2.3954 L 23.1034,-2.5829 L 23.1035,-2.7704 L 23.1035,-2.9579 L 23.1035,-3.1454 L 23.1035,-3.3329 L 23.1036,-3.5204 L 23.1036,-3.7079 L 23.1036,-3.8954 L 23.1037,-4.0829 L 23.1037,-4.2704 L 23.1038,-4.4579 L 23.1038,-4.6454 L 23.1039,-4.8329 L 23.1039,-5.0204 L 23.104,-5.2079 L 23.1041,-5.3954 L 23.1041,-5.5829 L 23.1042,-5.7704 L 23.1043,-5.9579 L 23.1044,-6.1454 L 23.1045,-6.3329 L 23.1046,-6.5204 L 23.1047,-6.7079 L 23.1049,-6.8954 L 23.105,-7.0829 L 23.1052,-7.2704 L 23.1054,-7.4579 L 23.1056,-7.6454 L 23.1058,-7.8329 L 23.1062,-8.0204 L 23.107,-8.2079" />
      <path d="M 23.107,-8.2079 L 23.1079,-8.0204 L 23.1082,-7.8329 L 23.1085,-7.6454 L 23.1087,-7.4579 L 23.1089,-7.2704 L 23.1091,-7.0829 L 23.1092,-6.8954 L 23.1093,-6.7079 L 23.1095,-6.5204 L 23.1096,-6.3329 L 23.1097,-6.1454 L 23.1098,-5.9579 L 23.1099,-5.7704 L 23.1099,-5.5829 L 23.11,-5.3954 L 23.1101,-5.2079 L 23.1101,-5.0204 L 23.1102,-4.8329 L 23.1103,-4.6454 L 23.1103,-4.4579 L 23.1104,-4.2704 L 23.1104,-4.0829 L 23.1104,-3.8954 L 23.1105,-3.7079 L 23.1105,-3.5204 L 23.1106,-3.3329 L 23.1106,-3.1454 L 23.1106,-2.9579 L 23.1106,-2.7704 L 23.1106,-2.5829 L 23.1107,-2.3954 L 23.1107,-2.2079 L 23.1107,-2.0204 L 23.1107,-1.8329 L 23.1107,-1.6454 L 23.1107,-1.4579 L 23.1107,-1.2704 L 23.1107,-1.0829 L 23.1107,-0.8954 L 23.1107,-0.7079 L 23.1107,-0.5204 L 23.1106,-0.3329 L 23.1106,-0.1454 L 23.1106,0.0421 L 23.1106,0.2296 L 23.1106,0.4171 L 23.1105,0.6046 L 23.1105,0.7921 L 23.1105,0.9796 L 23.1104,1.1671 L 23.1104,1.3546 L 23.1103,1.5421 L 23.1103,1.7296 L 23.1102,1.9171 L 23.1101,2.1046 L 23.1101,2.2921 L 23.11,2.4796 L 23.1099,2.6671 L 23.1099,2.8546 L 23.1098,3.0421 L 23.1097,3.2296 L 23.1096,3.4171 L 23.1095,3.6046 L 23.1093,3.7921 L 23.1092,3.9796 L 23.1091,4.1671 L 23.1089,4.3546 L 23.1087,4.5421 L 23.1085,4.7296 L 23.1082,4.9171 L 23.1079,5.1046 L 23.107,5.2921" />
      <path d="M 23.1,13.5231 L 23.0153,13.5231 L 22.9306,13.5231 L 22.8458,13.5231 L 22.7611,13.5231 L 22.6764,13.5231 L 22.5917,13.5231 L 22.5069,13.5231 L 22.4222,13.5231 L 22.3375,13.5231 L 22.2528,13.5231 L 22.1681,13.5231 L 22.0833,13.5231 L 21.9986,13.5231 L 21.9139,13.5231 L 21.8292,13.5231 L 21.7444,13.5231 L 21.6597,13.5231 L 21.575,13.5231 L 21.4903,13.5231 L 21.4056,13.5231 L 21.3208,13.5231 L 21.2361,13.5231 L 21.1514,13.5231 L 21.0667,13.5231 L 20.9819,13.5231 L 20.8972,13.5231 L 20.8125,13.5231 L 20.7278,13.5231 L 20.6431,13.5231 L 20.5583,13.5231 L 20.4736,13.5231 L 20.3889,13.5231 L 20.3042,13.5231 L 20.2194,13.5231 L 20.1347,13.5231 L 20.05,13.5231 L 19.9653,13.5231 L 19.8806,13.5231 L 19.7958,13.5231 L 19.7111,13.5231 L 19.6264,13.5231 L 19.5417,13.5231 L 19.4569,13.5231 L 19.3722,13.5231 L 19.2875,13.5231 L 19.2028,13.5231 L 19.1181,13.5231 L 19.0333,13.5231 L 18.9486,13.5231 L 18.8639,13.5231 L 18.7792,13.5231 L 18.6944,13.5231 L 18.6097,13.5231 L 18.525,13.5231 L 18.4403,13.5231 L 18.3556,13.5231 L 18.2708,13.5231 L 18.1861,13.5231 L 18.1014,13.5231 L 18.0167,13.5231 L 17.9319,13.5231 L 17.8472,13.5231 L 17.7625,13.5231 L 17.6778,13.5231 L 17.5931,13.5231 L 17.5083,13.5231 L 17.4236,13.5231 L 17.3389,13.5231 L 17.2542,13.5231 L 17.1694,13.5231 L 17.0847,13.5231 L 17.0,13.5231" />
      <path d="M 23.107,5.2921 L 23.0315,5.2921 L 22.9559,5.2921 L 22.8804,5.2921 L 22.8048,5.2921 L 22.7293,5.2921 L 22.6537,5.2921 L 22.5782,5.2921 L 22.5026,5.2921 L 22.427,5.2921 L 22.3515,5.2921 L 22.2759,5.2921 L 22.2004,5.2921 L 22.1248,5.2921 L 22.0493,5.2921 L 21.9737,5.2921 L 21.8982,5.2921 L 21.8226,5.2921 L 21.747,5.2921 L 21.6715,5.2921 L 21.5959,5.2921 L 21.5204,5.2921 L 21.4448,5.2921 L 21.3693,5.2921 L 21.2937,5.2921 L 21.2182,5.2921 L 21.1426,5.2921 L 21.067,5.2921 L 20.9915,5.2921 L 20.9159,5.2921 L 20.8404,5.2921 L 20.7648,5.2921 L 20.6893,5.2921 L 20.6137,5.2921 L 20.5382,5.2921 L 20.4626,5.2921 L 20.387,5.2921 L 20.3115,5.2921 L 20.2359,5.2921 L 20.1604,5.2921 L 20.0848,5.2921 L 20.0093,5.2921 L 19.9337,5.2921 L 19.8582,5.2921 L 19.7826,5.2921 L 19.707,5.2921 L 19.6315,5.2921 L 19.5559,5.2921 L 19.4804,5.2921 L 19.4048,5.2921 L 19.3293,5.2921 L 19.2537,5.2921 L 19.1782,5.2921 L 19.1026,5.2921 L 19.027,5.2921 L 18.9515,5.2921 L 18.8759,5.2921 L 18.8004,5.2921 L 18.7248,5.2921 L 18.6493,5.2921 L 18.5737,5.2921 L 18.4982,5.2921 L 18.4226,5.2921 L 18.347,5.2921 L 18.2715,5.2921 L 18.1959,5.2921 L 18.1204,5.2921 L 18.0448,5.2921 L 17.9693,5.2921 L 17.8937,5.2921 L 17.8182,5.2921 L 17.7426,5.2921 L 17.667,5.2921" />
      <path d="M 23.107,-8.2079 L 23.0465,-8.2079 L 22.9859,-8.2079 L 22.9254,-8.2079 L 22.8648,-8.2079 L 22.8043,-8.2079 L 22.7437,-8.2079 L 22.6831,-8.2079 L 22.6226,-8.2079 L 22.562,-8.2079 L 22.5015,-8.2079 L 22.4409,-8.2079 L 22.3804,-8.2079 L 22.3198,-8.2079 L 22.2593,-8.2079 L 22.1987,-8.2079 L 22.1381,-8.2079 L 22.0776,-8.2079 L 22.017,-8.2079 L 21.9565,-8.2079 L 21.8959,-8.2079 L 21.8354,-8.2079 L 21.7748,-8.2079 L 21.7143,-8.2079 L 21.6537,-8.2079 L 21.5931,-8.2079 L 21.5326,-8.2079 L 21.472,-8.2079 L 21.4115,-8.2079 L 21.3509,-8.2079 L 21.2904,-8.2079 L 21.2298,-8.2079 L 21.1693,-8.2079 L 21.1087,-8.2079 L 21.0481,-8.2079 L 20.9876,-8.2079 L 20.927,-8.2079 L 20.8665,-8.2079 L 20.8059,-8.2079 L 20.7454,-8.2079 L 20.6848,-8.2079 L 20.6243,-8.2079 L 20.5637,-8.2079 L 20.5031,-8.2079 L 20.4426,-8.2079 L 20.382,-8.2079 L 20.3215,-8.2079 L 20.2609,-8.2079 L 20.2004,-8.2079 L 20.1398,-8.2079 L 20.0793,-8.2079 L 20.0187,-8.2079 L 19.9581,-8.2079 L 19.8976,-8.2079 L 19.837,-8.2079 L 19.7765,-8.2079 L 19.7159,-8.2079 L 19.6554,-8.2079 L 19.5948,-8.2079 L 19.5343,-8.2079 L 19.4737,-8.2079 L 19.4131,-8.2079 L 19.3526,-8.2079 L 19.292,-8.2079 L 19.2315,-8.2079 L 19.1709,-8.2079 L 19.1104,-8.2079 L 19.0498,-8.2079 L 18.9893,-8.2079 L 18.9287,-8.2079 L 18.8681,-8.2079 L 18.8076,-8.2079 L 18.747,-8.2079" />
    </g>
    <g fill="none" stroke="rgb(0,0,0)" stroke-width="0.2" id="Center" stroke-dasharray="6.35 1.27 1.27 1.27">
      <line x1="0.0" y1="-1.4571" x2="-15.4" y2="-1.4571" />
      <line x1="0.0" y1="-1.4571" x2="15.4" y2="-1.4571" />
      <line x1="0.0" y1="-1.4571" x2="0.0" y2="-18.8615" />
      <line x1="0.0" y1="-1.4571" x2="0.0" y2="15.9473" />
      <line x1="20.057" y1="-1.4579" x2="14.6" y2="-1.4579" />
      <line x1="20.057" y1="-1.4579" x2="25.5141" y2="-1.4579" />
    </g>
  </g>
</svg>