<?xml version='1.0' encoding='utf-8'?>
<svg width="58.8mm" height="50.8mm" viewBox="-25.4 -25.4 58.8 50.8" version="1.1" xmlns="http://www.w3.org/2000/svg">
  <g transform="scale(1,-1)" stroke-linecap="round">
    <g fill="none" stroke="rgb(0,0,0)" stroke-width="0.4" id="Visible">
      <path d="M 20.0,20.0 L 19.4444,20.0 L 18.8889,20.0 L 18.3333,20.0 L 17.7778,20.0 L 17.2222,20.0 L 16.6667,20.0 L 16.1111,20.0 L 15.5556,20.0 L 15.0,20.0 L 14.4444,20.0 L 13.8889,20.0 L 13.3333,20.0 L 12.7778,20.0 L 12.2222,20.0 L 11.6667,20.0 L 11.1111,20.0 L 10.5556,20.0 L 10.0,20.0 L 9.4444,20.0 L 8.8889,20.0 L 8.3333,20.0 L 7.7778,20.0 L 7.2222,20.0 L 6.6667,20.0 L 6.1111,20.0 L 5.5556,20.0 L 5.0,20.0 L 4.4444,20.0 L 3.8889,20.0 L 3.3333,20.0 L 2.7778,20.0 L 2.2222,20.0 L 1.6667,20.0 L 1.1111,20.0 L 0.5556,20.0 L 0.0,20.0 L -0.5556,20.0 L -1.1111,20.0 L -1.6667,20.0 L -2.2222,20.0 L -2.7778,20.0 L -3.3333,20.0 L -3.8889,20.0 L -4.4444,20.0 L -5.0,20.0 L -5.5556,20.0 L -6.1111,20.0 L -6.6667,20.0 L -7.2222,20.0 L -7.7778,20.0 L -8.3333,20.0 L -8.8889,20.0 L -9.4444,20.0 L -10.0,20.0 L -10.5556,20.0 L -11.1111,20.0 L -11.6667,20.0 L -12.2222,20.0 L -12.7778,20.0 L -13.3333,20.0 L -13.8889,20.0 L -14.4444,20.0 L -15.0,20.0 L -15.5556,20.0 L -16.1111,20.0 L -16.6667,20.0 L -17.2222,20.0 L -17.7778,20.0 L -18.3333,20.0 L -18.8889,20.0 L -19.4444,20.0 L -20.0,20.0" />
      <path d="M -20.0,-20.0 L -20.0,-19.4444 L -20.0,-18.8889 L -20.0,-18.3333 L -20.0,-17.7778 L -20.0,-17.2222 L -20.0,-16.6667 L -20.0,-16.1111 L -20.0,-15.5556 L -20.0,-15.0 L -20.0,-14.4444 L -20.0,-13.8889 L -20.0,-13.3333 L -20.0,-12.7778 L -20.0,-12.2222 L -20.0,-11.6667 L -20.0,-11.1111 L -20.0,-10.5556 L -20.0,-10.0 L -20.0,-9.4444 L -20.0,-8.8889 L -20.0,-8.3333 L -20.0,-7.7778 L -20.0,-7.2222 L -20.0,-6.6667 L -20.0,-6.1111 L -20.0,-5.5556 L -20.0,-5.0 L -20.0,-4.4444 L -20.0,-3.8889 L -20.0,-3.3333 L -20.0,-2.7778 L -20.0,-2.2222 L -20.0,-1.6667 L -20.0,-1.1111 L -20.0,-0.5556 L -20.0,0.0 L -20.0,0.5556 L -20.0,1.1111 L -20.0,1.6667 L -20.0,2.2222 L -20.0,2.7778 L -20.0,3.3333 L -20.0,3.8889 L -20.0,4.4444 L -20.0,5.0 L -20.0,5.5556 L -20.0,6.1111 L -20.0,6.6667 L -20.0,7.2222 L -20.0,7.7778 L -20.0,8.3333 L -20.0,8.8889 L -20.0,9.4444 L -20.0,10.0 L -20.0,10.5556 L -20.0,11.1111 L -20.0,11.6667 L -20.0,12.2222 L -20.0,12.7778 L -20.0,13.3333 L -20.0,13.8889 L -20.0,14.4444 L -20.0,15.0 L -20.0,15.5556 L -20.0,16.1111 L -20.0,16.6667 L -20.0,17.2222 L -20.0,17.7778 L -20.0,18.3333 L -20.0,18.8889 L -20.0,19.4444 L -20.0,20.0" />
      <path d="M 20.0,20.0 L 20.0,19.4444 L 20.0,18.8889 L 20.0,18.3333 L 20.0,17.7778 L 20.0,17.2222 L 20.0,16.6667 L 20.0,16.1111 L 20.0,15.5556 L 20.0,15.0 L 20.0,14.4444 L 20.0,13.8889 L 20.0,13.3333 L 20.0,12.7778 L 20.0,12.2222 L 20.0,11.6667 L 20.0,11.1111 L 20.0,10.5556 L 20.0,10.0 L 20.0,9.4444 L 20.0,8.8889 L 20.0,8.3333 L 20.0,7.7778 L 20.0,7.2222 L 20.0,6.6667 L 20.0,6.1111 L 20.0,5.5556 L 20.0,5.0 L 20.0,4.4444 L 20.0,3.8889 L 20.0,3.3333 L 20.0,2.7778 L 20.0,2.2222 L 20.0,1.6667 L 20.0,1.1111 L 20.0,0.5556 L 20.0,0.0 L 20.0,-0.5556 L 20.0,-1.1111 L 20.0,-1.6667 L 20.0,-2.2222 L 20.0,-2.7778 L 20.0,-3.3333 L 20.0,-3.8889 L 20.0,-4.4444 L 20.0,-5.0 L 20.0,-5.5556 L 20.0,-6.1111 L 20.0,-6.6667 L 20.0,-7.2222 L 20.0,-7.7778 L 20.0,-8.3333 L 20.0,-8.8889 L 20.0,-9.4444 L 20.0,-10.0 L 20.0,-10.5556 L 20.0,-11.1111 L 20.0,-11.6667 L 20.0,-12.2222 L 20.0,-12.7778 L 20.0,-13.3333 L 20.0,-13.8889 L 20.0,-14.4444 L 20.0,-15.0 L 20.0,-15.5556 L 20.0,-16.1111 L 20.0,-16.6667 L 20.0,-17.2222 L 20.0,-17.7778 L 20.0,-18.3333 L 20.0,-18.8889 L 20.0,-19.4444 L 20.0,-20.0" />
      <path d="M 20.0,-20.0 L 19.4444,-20.0 L 18.8889,-20.0 L 18.3333,-20.0 L 17.7778,-20.0 L 17.2222,-20.0 L 16.6667,-20.0 L 16.1111,-20.0 L 15.5556,-20.0 L 15.0,-20.0 L 14.4444,-20.0 L 13.8889,-20.0 L 13.3333,-20.0 L 12.7778,-20.0 L 12.2222,-20.0 L 11.6667,-20.0 L 11.1111,-20.0 L 10.5556,-20.0 L 10.0,-20.0 L 9.4444,-20.0 L 8.8889,-20.0 L 8.3333,-20.0 L 7.7778,-20.0 L 7.2222,-20.0 L 6.6667,-20.0 L 6.1111,-20.0 L 5.5556,-20.0 L 5.0,-20.0 L 4.4444,-20.0 L 3.8889,-20.0 L 3.3333,-20.0 L 2.7778,-20.0 L 2.2222,-20.0 L 1.6667,-20.0 L 1.1111,-20.0 L 0.5556,-20.0 L 0.0,-20.0 L -0.5556,-20.0 L -1.1111,-20.0 L -1.6667,-20.0 L -2.2222,-20.0 L -2.7778,-20.0 L -3.3333,-20.0 L -3.8889,-20.0 L -4.4444,-20.0 L -5.0,-20.0 L -5.5556,-20.0 L -6.1111,-20.0 L -6.6667,-20.0 L -7.2222,-20.0 L -7.7778,-20.0 L -8.3333,-20.0 L -8.8889,-20.0 L -9.4444,-20.0 L -10.0,-20.0 L -10.5556,-20.0 L -11.1111,-20.0 L -11.6667,-20.0 L -12.2222,-20.0 L -12.7778,-20.0 L -13.3333,-20.0 L -13.8889,-20.0 L -14.4444,-20.0 L -15.0,-20.0 L -15.5556,-20.0 L -16.1111,-20.0 L -16.6667,-20.0 L -17.2222,-20.0 L -17.7778,-20.0 L -18.3333,-20.0 L -18.8889,-20.0 L -19.4444,-20.0 L -20.0,-20.0" />
      <path d="M 6.75,0.0 L 6.7243,0.5883 L 6.6475,1.1721 L 6.52,1.747 L 6.3429,2.3086 L 6.1176,2.8527 L 5.8457,3.375 L 5.5293,3.8716 L 5.1708,4.3388 L 4.773,4.773 L 4.3388,5.1708 L 3.8716,5.5293 L 3.375,5.8457 L 2.8527,6.1176 L 2.3086,6.3429 L 1.747,6.52 L 1.1721,6.6475 L 0.5883,6.7243 L 0.0,6.75 L -0.5883,6.7243 L -1.1721,6.6475 L -1.747,6.52 L -2.3086,6.3429 L -2.8527,6.1176 L -3.375,5.8457 L -3.8716,5.5293 L -4.3388,5.1708 L -4.773,4.773 L -5.1708,4.3388 L -5.5293,3.8716 L -5.8457,3.375 L -6.1176,2.8527 L -6.3429,2.3086 L -6.52,1.747 L -6.6475,1.1721 L -6.7243,0.5883 L -6.75,-0.0 L -6.7243,-0.5883 L -6.6475,-1.1721 L -6.52,-1.747 L -6.3429,-2.3086 L -6.1176,-2.8527 L -5.8457,-3.375 L -5.5293,-3.8716 L -5.1708,-4.3388 L -4.773,-4.773 L -4.3388,-5.1708 L -3.8716,-5.5293 L -3.375,-5.8457 L -2.8527,-6.1176 L -2.3086,-6.3429 L -1.747,-6.52 L -1.1721,-6.6475 L -0.5883,-6.7243 L -0.0,-6.75 L 0.5883,-6.7243 L 1.1721,-6.6475 L 1.747,-6.52 L 2.3086,-6.3429 L 2.8527,-6.1176 L 3.375,-5.8457 L 3.8716,-5.5293 L 4.3388,-5.1708 L 4.773,-4.773 L 5.1708,-4.3388 L 5.5293,-3.8716 L 5.8457,-3.375 L 6.1176,-2.8527 L 6.3429,-2.3086 L 6.52,-1.747 L 6.6475,-1.1721 L 6.7243,-0.5883 L 6.75,0.0" />
      <path d="M 28.0,-20.0 L 28.0,-19.4444 L 28.0,-18.8889 L 28.0,-18.3333 L 28.0,-17.7778 L 28.0,-17.2222 L 28.0,-16.6667 L 28.0,-16.1111 L 28.0,-15.5556 L 28.0,-15.0 L 28.0,-14.4444 L 28.0,-13.8889 L 28.0,-13.3333 L 28.0,-12.7778 L 28.0,-12.2222 L 28.0,-11.6667 L 28.0,-11.1111 L 28.0,-10.5556 L 28.0,-10.0 L 28.0,-9.4444 L 28.0,-8.8889 L 28.0,-8.3333 L 28.0,-7.7778 L 28.0,-7.2222 L 28.0,-6.6667 L 28.0,-6.1111 L 28.0,-5.5556 L 28.0,-5.0 L 28.0,-4.4444 L 28.0,-3.8889 L 28.0,-3.3333 L 28.0,-2.7778 L 28.0,-2.2222 L 28.0,-1.6667 L 28.0,-1.1111 L 28.0,-0.5556 L 28.0,0.0 L 28.0,0.5556 L 28.0,1.1111 L 28.0,1.6667 L 28.0,2.2222 L 28.0,2.7778 L 28.0,3.3333 L 28.0,3.8889 L 28.0,4.4444 L 28.0,5.0 L 28.0,5.5556 L 28.0,6.1111 L 28.0,6.6667 L 28.0,7.2222 L 28.0,7.7778 L 28.0,8.3333 L 28.0,8.8889 L 28.0,9.4444 L 28.0,10.0 L 28.0,10.5556 L 28.0,11.1111 L 28.0,11.6667 L 28.0,12.2222 L 28.0,12.7778 L 28.0,13.3333 L 28.0,13.8889 L 28.0,14.4444 L 28.0,15.0 L 28.0,15.5556 L 28.0,16.1111 L 28.0,16.6667 L 28.0,17.2222 L 28.0,17.7778 L 28.0,18.3333 L 28.0,18.8889 L 28.0,19.4444 L 28.0,20.0" />
      <path d="M 24.0,-20.0 L 24.0556,-20.0 L 24.1111,-20.0 L 24.1667,-20.0 L 24.2222,-20.0 L 24.2778,-20.0 L 24.3333,-20.0 L 24.3889,-20.0 L 24.4444,-20.0 L 24.5,-20.0 L 24.5556,-20.0 L 24.6111,-20.0 L 24.6667,-20.0 L 24.7222,-20.0 L 24.7778,-20.0 L 24.8333,-20.0 L 24.8889,-20.0 L 24.9444,-20.0 L 25.0,-20.0 L 25.0556,-20.0 L 25.1111,-20.0 L 25.1667,-20.0 L 25.2222,-20.0 L 25.2778,-20.0 L 25.3333,-20.0 L 25.3889,-20.0 L 25.4444,-20.0 L 25.5,-20.0 L 25.5556,-20.0 L 25.6111,-20.0 L 25.6667,-20.0 L 25.7222,-20.0 L 25.7778,-20.0 L 25.8333,-20.0 L 25.8889,-20.0 L 25.9444,-20.0 L 26.0,-20.0 L 26.0556,-20.0 L 26.1111,-20.0 L 26.1667,-20.0 L 26.2222,-20.0 L 26.2778,-20.0 L 26.3333,-20.0 L 26.3889,-20.0 L 26.4444,-20.0 L 26.5,-20.0 L 26.5556,-20.0 L 26.6111,-20.0 L 26.6667,-20.0 L 26.7222,-20.0 L 26.7778,-20.0 L 26.8333,-20.0 L 26.8889,-20.0 L 26.9444,-20.0 L 27.0,-20.0 L 27.0556,-20.0 L 27.1111,-20.0 L 27.1667,-20.0 L 27.2222,-20.0 L 27.2778,-20.0 L 27.3333,-20.0 L 27.3889,-20.0 L 27.4444,-20.0 L 27.5,-20.0 L 27.5556,-20.0 L 27.6111,-20.0 L 27.6667,-20.0 L 27.7222,-20.0 L 27.7778,-20.0 L 27.8333,-20.0 L 27.8889,-20.0 L 27.9444,-20.0 L 28.0,-20.0" />
      <path d="M 28.0,20.0 L 27.9444,20.0 L 27.8889,20.0 L 27.8333,20.0 L 27.7778,20.0 L 27.7222,20.0 L 27.6667,20.0 L 27.6111,20.0 L 27.5556,20.0 L 27.5,20.0 L 27.4444,20.0 L 27.3889,20.0 L 27.3333,20.0 L 27.2778,20.0 L 27.2222,20.0 L 27.1667,20.0 L 27.1111,20.0 L 27.0556,20.0 L 27.0,20.0 L 26.9444,20.0 L 26.8889,20.0 L 26.8333,20.0 L 26.7778,20.0 L 26.7222,20.0 L 26.6667,20.0 L 26.6111,20.0 L 26.5556,20.0 L 26.5,20.0 L 26.4444,20.0 L 26.3889,20.0 L 26.3333,20.0 L 26.2778,20.0 L 26.2222,20.0 L 26.1667,20.0 L 26.1111,20.0 L 26.0556,20.0 L 26.0,20.0 L 25.9444,20.0 L 25.8889,20.0 L 25.8333,20.0 L 25.7778,20.0 L 25.7222,20.0 L 25.6667,20.0 L 25.6111,20.0 L 25.5556,20.0 L 25.5,20.0 L 25.4444,20.0 L 25.3889,20.0 L 25.3333,20.0 L 25.2778,20.0 L 25.2222,20.0 L 25.1667,20.0 L 25.1111,20.0 L 25.0556,20.0 L 25.0,20.0 L 24.9444,20.0 L 24.8889,20.0 L 24.8333,20.0 L 24.7778,20.0 L 24.7222,20.0 L 24.6667,20.0 L 24.6111,20.0 L 24.5556,20.0 L 24.5,20.0 L 24.4444,20.0 L 24.3889,20.0 L 24.3333,20.0 L 24.2778,20.0 L 24.2222,20.0 L 24.1667,20.0 L 24.1111,20.0 L 24.0556,20.0 L 24.0,20.0" />
      <path d="M 24.0,20.0 L 24.0,19.4444 L 24.0,18.8889 L 24.0,18.3333 L 24.0,17.7778 L 24.0,17.2222 L 24.0,16.6667 L 24.0,16.1111 L 24.0,15.5556 L 24.0,15.0 L 24.0,14.4444 L 24.0,13.8889 L 24.0,13.3333 L 24.0,12.7778 L 24.0,12.2222 L 24.0,11.6667 L 24.0,11.1111 L 24.0,10.5556 L 24.0,10.0 L 24.0,9.4444 L 24.0,8.8889 L 24.0,8.3333 L 24.0,7.7778 L 24.0,7.2222 L 24.0,6.6667 L 24.0,6.1111 L 24.0,5.5556 L 24.0,5.0 L 24.0,4.4444 L 24.0,3.8889 L 24.0,3.3333 L 24.0,2.7778 L 24.0,2.2222 L 24.0,1.6667 L 24.0,1.1111 L 24.0,0.5556 L 24.0,0.0 L 24.0,-0.5556 L 24.0,-1.1111 L 24.0,-1.6667 L 24.0,-2.2222 L 24.0,-2.7778 L 24.0,-3.3333 L 24.0,-3.8889 L 24.0,-4.4444 L 24.0,-5.0 L 24.0,-5.5556 L 24.0,-6.1111 L 24.0,-6.6667 L 24.0,-7.2222 L 24.0,-7.7778 L 24.0,-8.3333 L 24.0,-8.8889 L 24.0,-9.4444 L 24.0,-10.0 L 24.0,-10.5556 L 24.0,-11.1111 L 24.0,-11.6667 L 24.0,-12.2222 L 24.0,-12.7778 L 24.0,-13.3333 L 24.0,-13.8889 L 24.0,-14.4444 L 24.0,-15.0 L 24.0,-15.5556 L 24.0,-16.1111 L 24.0,-16.6667 L 24.0,-17.2222 L 24.0,-17.7778 L 24.0,-18.3333 L 24.0,-18.8889 L 24.0,-19.4444 L 24.0,-20.0" />
    </g>
    <g fill="none" stroke="rgb(110,110,110)" stroke-width="0.3" id="Hidden" stroke-dasharray="3.6 0.9">
      <path d="M -20.0,20.0 L -19.4444,20.0 L -18.8889,20.0 L -18.3333,20.0 L -17.7778,20.0 L -17.2222,20.0 L -16.6667,20.0 L -16.1111,20.0 L -15.5556,20.0 L -15.0,20.0 L -14.4444,20.0 L -13.8889,20.0 L -13.3333,20.0 L -12.7778,20.0 L -12.2222,20.0 L -11.6667,20.0 L -11.1111,20.0 L -10.5556,20.0 L -10.0,20.0 L -9.4444,20.0 L -8.8889,20.0 L -8.3333,20.0 L -7.7778,20.0 L -7.2222,20.0 L -6.6667,20.0 L -6.1111,20.0 L -5.5556,20.0 L -5.0,20.0 L -4.4444,20.0 L -3.8889,20.0 L -3.3333,20.0 L -2.7778,20.0 L -2.2222,20.0 L -1.6667,20.0 L -1.1111,20.0 L -0.5556,20.0 L 0.0,20.0 L 0.5556,20.0 L 1.1111,20.0 L 1.6667,20.0 L 2.2222,20.0 L 2.7778,20.0 L 3.3333,20.0 L 3.8889,20.0 L 4.4444,20.0 L 5.0,20.0 L 5.5556,20.0 L 6.1111,20.0 L 6.6667,20.0 L 7.2222,20.0 L 7.7778,20.0 L 8.3333,20.0 L 8.8889,20.0 L 9.4444,20.0 L 10.0,20.0 L 10.5556,20.0 L 11.1111,20.0 L 11.6667,20.0 L 12.2222,20.0 L 12.7778,20.0 L 13.3333,20.0 L 13.8889,20.0 L 14.4444,20.0 L 15.0,20.0 L 15.5556,20.0 L 16.1111,20.0 L 16.6667,20.0 L 17.2222,20.0 L 17.7778,20.0 L 18.3333,20.0 L 18.8889,20.0 L 19.4444,20.0 L 20.0,20.0" />
      <path d="M -20.0,-20.0 L -20.0,-19.4444 L -20.0,-18.8889 L -20.0,-18.3333 L -20.0,-17.7778 L -20.0,-17.2222 L -20.0,-16.6667 L -20.0,-16.1111 L -20.0,-15.5556 L -20.0,-15.0 L -20.0,-14.4444 L -20.0,-13.8889 L -20.0,-13.3333 L -20.0,-12.7778 L -20.0,-12.2222 L -20.0,-11.6667 L -20.0,-11.1111 L -20.0,-10.5556 L -20.0,-10.0 L -20.0,-9.4444 L -20.0,-8.8889 L -20.0,-8.3333 L -20.0,-7.7778 L -20.0,-7.2222 L -20.0,-6.6667 L -20.0,-6.1111 L -20.0,-5.5556 L -20.0,-5.0 L -20.0,-4.4444 L -20.0,-3.8889 L -20.0,-3.3333 L -20.0,-2.7778 L -20.0,-2.2222 L -20.0,-1.6667 L -20.0,-1.1111 L -20.0,-0.5556 L -20.0,0.0 L -20.0,0.5556 L -20.0,1.1111 L -20.0,1.6667 L -20.0,2.2222 L -20.0,2.7778 L -20.0,3.3333 L -20.0,3.8889 L -20.0,4.4444 L -20.0,5.0 L -20.0,5.5556 L -20.0,6.1111 L -20.0,6.6667 L -20.0,7.2222 L -20.0,7.7778 L -20.0,8.3333 L -20.0,8.8889 L -20.0,9.4444 L -20.0,10.0 L -20.0,10.5556 L -20.0,11.1111 L -20.0,11.6667 L -20.0,12.2222 L -20.0,12.7778 L -20.0,13.3333 L -20.0,13.8889 L -20.0,14.4444 L -20.0,15.0 L -20.0,15.5556 L -20.0,16.1111 L -20.0,16.6667 L -20.0,17.2222 L -20.0,17.7778 L -20.0,18.3333 L -20.0,18.8889 L -20.0,19.4444 L -20.0,20.0" />
      <path d="M 20.0,20.0 L 20.0,19.4444 L 20.0,18.8889 L 20.0,18.3333 L 20.0,17.7778 L 20.0,17.2222 L 20.0,16.6667 L 20.0,16.1111 L 20.0,15.5556 L 20.0,15.0 L 20.0,14.4444 L 20.0,13.8889 L 20.0,13.3333 L 20.0,12.7778 L 20.0,12.2222 L 20.0,11.6667 L 20.0,11.1111 L 20.0,10.5556 L 20.0,10.0 L 20.0,9.4444 L 20.0,8.8889 L 20.0,8.3333 L 20.0,7.7778 L 20.0,7.2222 L 20.0,6.6667 L 20.0,6.1111 L 20.0,5.5556 L 20.0,5.0 L 20.0,4.4444 L 20.0,3.8889 L 20.0,3.3333 L 20.0,2.7778 L 20.0,2.2222 L 20.0,1.6667 L 20.0,1.1111 L 20.0,0.5556 L 20.0,0.0 L 20.0,-0.5556 L 20.0,-1.1111 L 20.0,-1.6667 L 20.0,-2.2222 L 20.0,-2.7778 L 20.0,-3.3333 L 20.0,-3.8889 L 20.0,-4.4444 L 20.0,-5.0 L 20.0,-5.5556 L 20.0,-6.1111 L 20.0,-6.6667 L 20.0,-7.2222 L 20.0,-7.7778 L 20.0,-8.3333 L 20.0,-8.8889 L 20.0,-9.4444 L 20.0,-10.0 L 20.0,-10.5556 L 20.0,-11.1111 L 20.0,-11.6667 L 20.0,-12.2222 L 20.0,-12.7778 L 20.0,-13.3333 L 20.0,-13.8889 L 20.0,-14.4444 L 20.0,-15.0 L 20.0,-15.5556 L 20.0,-16.1111 L 20.0,-16.6667 L 20.0,-17.2222 L 20.0,-17.7778 L 20.0,-18.3333 L 20.0,-18.8889 L 20.0,-19.4444 L 20.0,-20.0" />
      <path d="M -20.0,-20.0 L -19.4444,-20.0 L -18.8889,-20.0 L -18.3333,-20.0 L -17.7778,-20.0 L -17.2222,-20.0 L -16.6667,-20.0 L -16.1111,-20.0 L -15.5556,-20.0 L -15.0,-20.0 L -14.4444,-20.0 L -13.8889,-20.0 L -13.3333,-20.0 L -12.7778,-20.0 L -12.2222,-20.0 L -11.6667,-20.0 L -11.1111,-20.0 L -10.5556,-20.0 L -10.0,-20.0 L -9.4444,-20.0 L -8.8889,-20.0 L -8.3333,-20.0 L -7.7778,-20.0 L -7.2222,-20.0 L -6.6667,-20.0 L -6.1111,-20.0 L -5.5556,-20.0 L -5.0,-20.0 L -4.4444,-20.0 L -3.8889,-20.0 L -3.3333,-20.0 L -2.7778,-20.0 L -2.2222,-20.0 L -1.6667,-20.0 L -1.1111,-20.0 L -0.5556,-20.0 L 0.0,-20.0 L 0.5556,-20.0 L 1.1111,-20.0 L 1.6667,-20.0 L 2.2222,-20.0 L 2.7778,-20.0 L 3.3333,-20.0 L 3.8889,-20.0 L 4.4444,-20.0 L 5.0,-20.0 L 5.5556,-20.0 L 6.1111,-20.0 L 6.6667,-20.0 L 7.2222,-20.0 L 7.7778,-20.0 L 8.3333,-20.0 L 8.8889,-20.0 L 9.4444,-20.0 L 10.0,-20.0 L 10.5556,-20.0 L 11.1111,-20.0 L 11.6667,-20.0 L 12.2222,-20.0 L 12.7778,-20.0 L 13.3333,-20.0 L 13.8889,-20.0 L 14.4444,-20.0 L 15.0,-20.0 L 15.5556,-20.0 L 16.1111,-20.0 L 16.6667,-20.0 L 17.2222,-20.0 L 17.7778,-20.0 L 18.3333,-20.0 L 18.8889,-20.0 L 19.4444,-20.0 L 20.0,-20.0" />
      <path d="M 6.75,0.0 L 6.7243,0.5883 L 6.6475,1.1721 L 6.52,1.747 L 6.3429,2.3086 L 6.1176,2.8527 L 5.8457,3.375 L 5.5293,3.8716 L 5.1708,4.3388 L 4.773,4.773 L 4.3388,5.1708 L 3.8716,5.5293 L 3.375,5.8457 L 2.8527,6.1176 L 2.3086,6.3429 L 1.747,6.52 L 1.1721,6.6475 L 0.5883,6.7243 L 0.0,6.75 L -0.5883,6.7243 L -1.1721,6.6475 L -1.747,6.52 L -2.3086,6.3429 L -2.8527,6.1176 L -3.375,5.8457 L -3.8716,5.5293 L -4.3388,5.1708 L -4.773,4.773 L -5.1708,4.3388 L -5.5293,3.8716 L -5.8457,3.375 L -6.1176,2.8527 L -6.3429,2.3086 L -6.52,1.747 L -6.6475,1.1721 L -6.7243,0.5883 L -6.75,-0.0 L -6.7243,-0.5883 L -6.6475,-1.1721 L -6.52,-1.747 L -6.3429,-2.3086 L -6.1176,-2.8527 L -5.8457,-3.375 L -5.5293,-3.8716 L -5.1708,-4.3388 L -4.773,-4.773 L -4.3388,-5.1708 L -3.8716,-5.5293 L -3.375,-5.8457 L -2.8527,-6.1176 L -2.3086,-6.3429 L -1.747,-6.52 L -1.1721,-6.6475 L -0.5883,-6.7243 L -0.0,-6.75 L 0.5883,-6.7243 L 1.1721,-6.6475 L 1.747,-6.52 L 2.3086,-6.3429 L 2.8527,-6.1176 L 3.375,-5.8457 L 3.8716,-5.5293 L 4.3388,-5.1708 L 4.773,-4.773 L 5.1708,-4.3388 L 5.5293,-3.8716 L 5.8457,-3.375 L 6.1176,-2.8527 L 6.3429,-2.3086 L 6.52,-1.747 L 6.6475,-1.1721 L 6.7243,-0.5883 L 6.75,0.0" />
      <path d="M 28.0,-20.0 L 28.0,-19.4444 L 28.0,-18.8889 L 28.0,-18.3333 L 28.0,-17.7778 L 28.0,-17.2222 L 28.0,-16.6667 L 28.0,-16.1111 L 28.0,-15.5556 L 28.0,-15.0 L 28.0,-14.4444 L 28.0,-13.8889 L 28.0,-13.3333 L 28.0,-12.7778 L 28.0,-12.2222 L 28.0,-11.6667 L 28.0,-11.1111 L 28.0,-10.5556 L 28.0,-10.0 L 28.0,-9.4444 L 28.0,-8.8889 L 28.0,-8.3333 L 28.0,-7.7778 L 28.0,-7.2222 L 28.0,-6.6667 L 28.0,-6.1111 L 28.0,-5.5556 L 28.0,-5.0 L 28.0,-4.4444 L 28.0,-3.8889 L 28.0,-3.3333 L 28.0,-2.7778 L 28.0,-2.2222 L 28.0,-1.6667 L 28.0,-1.1111 L 28.0,-0.5556 L 28.0,0.0 L 28.0,0.5556 L 28.0,1.1111 L 28.0,1.6667 L 28.0,2.2222 L 28.0,2.7778 L 28.0,3.3333 L 28.0,3.8889 L 28.0,4.4444 L 28.0,5.0 L 28.0,5.5556 L 28.0,6.1111 L 28.0,6.6667 L 28.0,7.2222 L 28.0,7.7778 L 28.0,8.3333 L 28.0,8.8889 L 28.0,9.4444 L 28.0,10.0 L 28.0,10.5556 L 28.0,11.1111 L 28.0,11.6667 L 28.0,12.2222 L 28.0,12.7778 L 28.0,13.3333 L 28.0,13.8889 L 28.0,14.4444 L 28.0,15.0 L 28.0,15.5556 L 28.0,16.1111 L 28.0,16.6667 L 28.0,17.2222 L 28.0,17.7778 L 28.0,18.3333 L 28.0,18.8889 L 28.0,19.4444 L 28.0,20.0" />
      <path d="M 28.0,6.75 L 28.0,6.5625 L 28.0,6.375 L 28.0,6.1875 L 28.0,6.0 L 28.0,5.8125 L 28.0,5.625 L 28.0,5.4375 L 28.0,5.25 L 28.0,5.0625 L 28.0,4.875 L 28.0,4.6875 L 28.0,4.5 L 28.0,4.3125 L 28.0,4.125 L 28.0,3.9375 L 28.0,3.75 L 28.0,3.5625 L 28.0,3.375 L 28.0,3.1875 L 28.0,3.0 L 28.0,2.8125 L 28.0,2.625 L 28.0,2.4375 L 28.0,2.25 L 28.0,2.0625 L 28.0,1.875 L 28.0,1.6875 L 28.0,1.5 L 28.0,1.3125 L 28.0,1.125 L 28.0,0.9375 L 28.0,0.75 L 28.0,0.5625 L 28.0,0.375 L 28.0,0.1875 L 28.0,0.0 L 28.0,-0.1875 L 28.0,-0.375 L 28.0,-0.5625 L 28.0,-0.75 L 28.0,-0.9375 L 28.0,-1.125 L 28.0,-1.3125 L 28.0,-1.5 L 28.0,-1.6875 L 28.0,-1.875 L 28.0,-2.0625 L 28.0,-2.25 L 28.0,-2.4375 L 28.0,-2.625 L 28.0,-2.8125 L 28.0,-3.0 L 28.0,-3.1875 L 28.0,-3.375 L 28.0,-3.5625 L 28.0,-3.75 L 28.0,-3.9375 L 28.0,-4.125 L 28.0,-4.3125 L 28.0,-4.5 L 28.0,-4.6875 L 28.0,-4.875 L 28.0,-5.0625 L 28.0,-5.25 L 28.0,-5.4375 L 28.0,-5.625 L 28.0,-5.8125 L 28.0,-6.0 L 28.0,-6.1875 L 28.0,-6.375 L 28.0,-6.5625 L 28.0,-6.75" />
      <path d="M 28.0,-6.75 L 28.0,-6.5625 L 28.0,-6.375 L 28.0,-6.1875 L 28.0,-6.0 L 28.0,-5.8125 L 28.0,-5.625 L 28.0,-5.4375 L 28.0,-5.25 L 28.0,-5.0625 L 28.0,-4.875 L 28.0,-4.6875 L 28.0,-4.5 L 28.0,-4.3125 L 28.0,-4.125 L 28.0,-3.9375 L 28.0,-3.75 L 28.0,-3.5625 L 28.0,-3.375 L 28.0,-3.1875 L 28.0,-3.0 L 28.0,-2.8125 L 28.0,-2.625 L 28.0,-2.4375 L 28.0,-2.25 L 28.0,-2.0625 L 28.0,-1.875 L 28.0,-1.6875 L 28.0,-1.5 L 28.0,-1.3125 L 28.0,-1.125 L 28.0,-0.9375 L 28.0,-0.75 L 28.0,-0.5625 L 28.0,-0.375 L 28.0,-0.1875 L 28.0,0.0 L 28.0,0.1875 L 28.0,0.375 L 28.0,0.5625 L 28.0,0.75 L 28.0,0.9375 L 28.0,1.125 L 28.0,1.3125 L 28.0,1.5 L 28.0,1.6875 L 28.0,1.875 L 28.0,2.0625 L 28.0,2.25 L 28.0,2.4375 L 28.0,2.625 L 28.0,2.8125 L 28.0,3.0 L 28.0,3.1875 L 28.0,3.375 L 28.0,3.5625 L 28.0,3.75 L 28.0,3.9375 L 28.0,4.125 L 28.0,4.3125 L 28.0,4.5 L 28.0,4.6875 L 28.0,4.875 L 28.0,5.0625 L 28.0,5.25 L 28.0,5.4375 L 28.0,5.625 L 28.0,5.8125 L 28.0,6.0 L 28.0,6.1875 L 28.0,6.375 L 28.0,6.5625 L 28.0,6.75" />
      <path d="M 28.0,20.0 L 27.9444,20.0 L 27.8889,20.0 L 27.8333,20.0 L 27.7778,20.0 L 27.7222,20.0 L 27.6667,20.0 L 27.6111,20.0 L 27.5556,20.0 L 27.5,20.0 L 27.4444,20.0 L 27.3889,20.0 L 27.3333,20.0 L 27.2778,20.0 L 27.2222,20.0 L 27.1667,20.0 L 27.1111,20.0 L 27.0556,20.0 L 27.0,20.0 L 26.9444,20.0 L 26.8889,20.0 L 26.8333,20.0 L 26.7778,20.0 L 26.7222,20.0 L 26.6667,20.0 L 26.6111,20.0 L 26.5556,20.0 L 26.5,20.0 L 26.4444,20.0 L 26.3889,20.0 L 26.3333,20.0 L 26.2778,20.0 L 26.2222,20.0 L 26.1667,20.0 L 26.1111,20.0 L 26.0556,20.0 L 26.0,20.0 L 25.9444,20.0 L 25.8889,20.0 L 25.8333,20.0 L 25.7778,20.0 L 25.7222,20.0 L 25.6667,20.0 L 25.6111,20.0 L 25.5556,20.0 L 25.5,20.0 L 25.4444,20.0 L 25.3889,20.0 L 25.3333,20.0 L 25.2778,20.0 L 25.2222,20.0 L 25.1667,20.0 L 25.1111,20.0 L 25.0556,20.0 L 25.0,20.0 L 24.9444,20.0 L 24.8889,20.0 L 24.8333,20.0 L 24.7778,20.0 L 24.7222,20.0 L 24.6667,20.0 L 24.6111,20.0 L 24.5556,20.0 L 24.5,20.0 L 24.4444,20.0 L 24.3889,20.0 L 24.3333,20.0 L 24.2778,20.0 L 24.2222,20.0 L 24.1667,20.0 L 24.1111,20.0 L 24.0556,20.0 L 24.0,20.0" />
      <path d="M 24.0,20.0 L 24.0,19.4444 L 24.0,18.8889 L 24.0,18.3333 L 24.0,17.7778 L 24.0,17.2222 L 24.0,16.6667 L 24.0,16.1111 L 24.0,15.5556 L 24.0,15.0 L 24.0,14.4444 L 24.0,13.8889 L 24.0,13.3333 L 24.0,12.7778 L 24.0,12.2222 L 24.0,11.6667 L 24.0,11.1111 L 24.0,10.5556 L 24.0,10.0 L 24.0,9.4444 L 24.0,8.8889 L 24.0,8.3333 L 24.0,7.7778 L 24.0,7.2222 L 24.0,6.6667 L 24.0,6.1111 L 24.0,5.5556 L 24.0,5.0 L 24.0,4.4444 L 24.0,3.8889 L 24.0,3.3333 L 24.0,2.7778 L 24.0,2.2222 L 24.0,1.6667 L 24.0,1.1111 L 24.0,0.5556 L 24.0,0.0 L 24.0,-0.5556 L 24.0,-1.1111 L 24.0,-1.6667 L 24.0,-2.2222 L 24.0,-2.7778 L 24.0,-3.3333 L 24.0,-3.8889 L 24.0,-4.4444 L 24.0,-5.0 L 24.0,-5.5556 L 24.0,-6.1111 L 24.0,-6.6667 L 24.0,-7.2222 L 24.0,-7.7778 L 24.0,-8.3333 L 24.0,-8.8889 L 24.0,-9.4444 L 24.0,-10.0 L 24.0,-10.5556 L 24.0,-11.1111 L 24.0,-11.6667 L 24.0,-12.2222 L 24.0,-12.7778 L 24.0,-13.3333 L 24.0,-13.8889 L 24.0,-14.4444 L 24.0,-15.0 L 24.0,-15.5556 L 24.0,-16.1111 L 24.0,-16.6667 L 24.0,-17.2222 L 24.0,-17.7778 L 24.0,-18.3333 L 24.0,-18.8889 L 24.0,-19.4444 L 24.0,-20.0" />
      <path d="M 24.0,-20.0 L 24.0556,-20.0 L 24.1111,-20.0 L 24.1667,-20.0 L 24.2222,-20.0 L 24.2778,-20.0 L 24.3333,-20.0 L 24.3889,-20.0 L 24.4444,-20.0 L 24.5,-20.0 L 24.5556,-20.0 L 24.6111,-20.0 L 24.6667,-20.0 L 24.7222,-20.0 L 24.7778,-20.0 L 24.8333,-20.0 L 24.8889,-20.0 L 24.9444,-20.0 L 25.0,-20.0 L 25.0556,-20.0 L 25.1111,-20.0 L 25.1667,-20.0 L 25.2222,-20.0 L 25.2778,-20.0 L 25.3333,-20.0 L 25.3889,-20.0 L 25.4444,-20.0 L 25.5,-20.0 L 25.5556,-20.0 L 25.6111,-20.0 L 25.6667,-20.0 L 25.7222,-20.0 L 25.7778,-20.0 L 25.8333,-20.0 L 25.8889,-20.0 L 25.9444,-20.0 L 26.0,-20.0 L 26.0556,-20.0 L 26.1111,-20.0 L 26.1667,-20.0 L 26.2222,-20.0 L 26.2778,-20.0 L 26.3333,-20.0 L 26.3889,-20.0 L 26.4444,-20.0 L 26.5,-20.0 L 26.5556,-20.0 L 26.6111,-20.0 L 26.6667,-20.0 L 26.7222,-20.0 L 26.7778,-20.0 L 26.8333,-20.0 L 26.8889,-20.0 L 26.9444,-20.0 L 27.0,-20.0 L 27.0556,-20.0 L 27.1111,-20.0 L 27.1667,-20.0 L 27.2222,-20.0 L 27.2778,-20.0 L 27.3333,-20.0 L 27.3889,-20.0 L 27.4444,-20.0 L 27.5,-20.0 L 27.5556,-20.0 L 27.6111,-20.0 L 27.6667,-20.0 L 27.7222,-20.0 L 27.7778,-20.0 L 27.8333,-20.0 L 27.8889,-20.0 L 27.9444,-20.0 L 28.0,-20.0" />
      <path d="M 24.0,6.75 L 24.0,6.5625 L 24.0,6.375 L 24.0,6.1875 L 24.0,6.0 L 24.0,5.8125 L 24.0,5.625 L 24.0,5.4375 L 24.0,5.25 L 24.0,5.0625 L 24.0,4.875 L 24.0,4.6875 L 24.0,4.5 L 24.0,4.3125 L 24.0,4.125 L 24.0,3.9375 L 24.0,3.75 L 24.0,3.5625 L 24.0,3.375 L 24.0,3.1875 L 24.0,3.0 L 24.0,2.8125 L 24.0,2.625 L 24.0,2.4375 L 24.0,2.25 L 24.0,2.0625 L 24.0,1.875 L 24.0,1.6875 L 24.0,1.5 L 24.0,1.3125 L 24.0,1.125 L 24.0,0.9375 L 24.0,0.75 L 24.0,0.5625 L 24.0,0.375 L 24.0,0.1875 L 24.0,0.0 L 24.0,-0.1875 L 24.0,-0.375 L 24.0,-0.5625 L 24.0,-0.75 L 24.0,-0.9375 L 24.0,-1.125 L 24.0,-1.3125 L 24.0,-1.5 L 24.0,-1.6875 L 24.0,-1.875 L 24.0,-2.0625 L 24.0,-2.25 L 24.0,-2.4375 L 24.0,-2.625 L 24.0,-2.8125 L 24.0,-3.0 L 24.0,-3.1875 L 24.0,-3.375 L 24.0,-3.5625 L 24.0,-3.75 L 24.0,-3.9375 L 24.0,-4.125 L 24.0,-4.3125 L 24.0,-4.5 L 24.0,-4.6875 L 24.0,-4.875 L 24.0,-5.0625 L 24.0,-5.25 L 24.0,-5.4375 L 24.0,-5.625 L 24.0,-5.8125 L 24.0,-6.0 L 24.0,-6.1875 L 24.0,-6.375 L 24.0,-6.5625 L 24.0,-6.75" />
      <path d="M 24.0,-6.75 L 24.0,-6.5625 L 24.0,-6.375 L 24.0,-6.1875 L 24.0,-6.0 L 24.0,-5.8125 L 24.0,-5.625 L 24.0,-5.4375 L 24.0,-5.25 L 24.0,-5.0625 L 24.0,-4.875 L 24.0,-4.6875 L 24.0,-4.5 L 24.0,-4.3125 L 24.0,-4.125 L 24.0,-3.9375 L 24.0,-3.75 L 24.0,-3.5625 L 24.0,-3.375 L 24.0,-3.1875 L 24.0,-3.0 L 24.0,-2.8125 L 24.0,-2.625 L 24.0,-2.4375 L 24.0,-2.25 L 24.0,-2.0625 L 24.0,-1.875 L 24.0,-1.6875 L 24.0,-1.5 L 24.0,-1.3125 L 24.0,-1.125 L 24.0,-0.9375 L 24.0,-0.75 L 24.0,-0.5625 L 24.0,-0.375 L 24.0,-0.1875 L 24.0,0.0 L 24.0,0.1875 L 24.0,0.375 L 24.0,0.5625 L 24.0,0.75 L 24.0,0.9375 L 24.0,1.125 L 24.0,1.3125 L 24.0,1.5 L 24.0,1.6875 L 24.0,1.875 L 24.0,2.0625 L 24.0,2.25 L 24.0,2.4375 L 24.0,2.625 L 24.0,2.8125 L 24.0,3.0 L 24.0,3.1875 L 24.0,3.375 L 24.0,3.5625 L 24.0,3.75 L 24.0,3.9375 L 24.0,4.125 L 24.0,4.3125 L 24.0,4.5 L 24.0,4.6875 L 24.0,4.875 L 24.0,5.0625 L 24.0,5.25 L 24.0,5.4375 L 24.0,5.625 L 24.0,5.8125 L 24.0,6.0 L 24.0,6.1875 L 24.0,6.375 L 24.0,6.5625 L 24.0,6.75" />
      <path d="M 28.0,6.75 L 27.9444,6.75 L 27.8889,6.75 L 27.8333,6.75 L 27.7778,6.75 L 27.7222,6.75 L 27.6667,6.75 L 27.6111,6.75 L 27.5556,6.75 L 27.5,6.75 L 27.4444,6.75 L 27.3889,6.75 L 27.3333,6.75 L 27.2778,6.75 L 27.2222,6.75 L 27.1667,6.75 L 27.1111,6.75 L 27.0556,6.75 L 27.0,6.75 L 26.9444,6.75 L 26.8889,6.75 L 26.8333,6.75 L 26.7778,6.75 L 26.7222,6.75 L 26.6667,6.75 L 26.6111,6.75 L 26.5556,6.75 L 26.5,6.75 L 26.4444,6.75 L 26.3889,6.75 L 26.3333,6.75 L 26.2778,6.75 L 26.2222,6.75 L 26.1667,6.75 L 26.1111,6.75 L 26.0556,6.75 L 26.0,6.75 L 25.9444,6.75 L 25.8889,6.75 L 25.8333,6.75 L 25.7778,6.75 L 25.7222,6.75 L 25.6667,6.75 L 25.6111,6.75 L 25.5556,6.75 L 25.5,6.75 L 25.4444,6.75 L 25.3889,6.75 L 25.3333,6.75 L 25.2778,6.75 L 25.2222,6.75 L 25.1667,6.75 L 25.1111,6.75 L 25.0556,6.75 L 25.0,6.75 L 24.9444,6.75 L 24.8889,6.75 L 24.8333,6.75 L 24.7778,6.75 L 24.7222,6.75 L 24.6667,6.75 L 24.6111,6.75 L 24.5556,6.75 L 24.5,6.75 L 24.4444,6.75 L 24.3889,6.75 L 24.3333,6.75 L 24.2778,6.75 L 24.2222,6.75 L 24.1667,6.75 L 24.1111,6.75 L 24.0556,6.75 L 24.0,6.75" />
      <path d="M 28.0,-6.75 L 27.9444,-6.75 L 27.8889,-6.75 L 27.8333,-6.75 L 27.7778,-6.75 L 27.7222,-6.75 L 27.6667,-6.75 L 27.6111,-6.75 L 27.5556,-6.75 L 27.5,-6.75 L 27.4444,-6.75 L 27.3889,-6.75 L 27.3333,-6.75 L 27.2778,-6.75 L 27.2222,-6.75 L 27.1667,-6.75 L 27.1111,-6.75 L 27.0556,-6.75 L 27.0,-6.75 L 26.9444,-6.75 L 26.8889,-6.75 L 26.8333,-6.75 L 26.7778,-6.75 L 26.7222,-6.75 L 26.6667,-6.75 L 26.6111,-6.75 L 26.5556,-6.75 L 26.5,-6.75 L 26.4444,-6.75 L 26.3889,-6.75 L 26.3333,-6.75 L 26.2778,-6.75 L 26.2222,-6.75 L 26.1667,-6.75 L 26.1111,-6.75 L 26.0556,-6.75 L 26.0,-6.75 L 25.9444,-6.75 L 25.8889,-6.75 L 25.8333,-6.75 L 25.7778,-6.75 L 25.7222,-6.75 L 25.6667,-6.75 L 25.6111,-6.75 L 25.5556,-6.75 L 25.5,-6.75 L 25.4444,-6.75 L 25.3889,-6.75 L 25.3333,-6.75 L 25.2778,-6.75 L 25.2222,-6.75 L 25.1667,-6.75 L 25.1111,-6.75 L 25.0556,-6.75 L 25.0,-6.75 L 24.9444,-6.75 L 24.8889,-6.75 L 24.8333,-6.75 L 24.7778,-6.75 L 24.7222,-6.75 L 24.6667,-6.75 L 24.6111,-6.75 L 24.5556,-6.75 L 24.5,-6.75 L 24.4444,-6.75 L 24.3889,-6.75 L 24.3333,-6.75 L 24.2778,-6.75 L 24.2222,-6.75 L 24.1667,-6.75 L 24.1111,-6.75 L 24.0556,-6.75 L 24.0,-6.75" />
    </g>
    <g fill="none" stroke="rgb(0,0,0)" stroke-width="0.2" id="Center" stroke-dasharray="6.35 1.27 1.27 1.27">
      <line x1="0.0" y1="0.0" x2="-23.2" y2="0.0" />
      <line x1="0.0" y1="0.0" x2="23.2" y2="0.0" />
      <line x1="0.0" y1="0.0" x2="0.0" y2="-23.2" />
      <line x1="0.0" y1="0.0" x2="0.0" y2="23.2" />
      <line x1="26.0" y1="0.0" x2="20.8" y2="0.0" />
      <line x1="26.0" y1="0.0" x2="31.2" y2="0.0" />
    </g>
  </g>
</svg>