<?xml version='1.0' encoding='utf-8'?>
<svg width="43.3595mm" height="34.4501mm" viewBox="-19.1344 -15.2943 43.3595 34.4501" version="1.1" xmlns="http://www.w3.org/2000/svg">
  <g transform="scale(1,-1)" stroke-linecap="round">
    <g fill="none" stroke="rgb(0,0,0)" stroke-width="0.4" id="Visible">
      <path d="M -16.9344,-13.0 L -16.9344,-12.6389 L -16.9344,-12.2778 L -16.9344,-11.9167 L -16.9344,-11.5556 L -16.9344,-11.1944 L -16.9344,-10.8333 L -16.9344,-10.4722 L -16.9344,-10.1111 L -16.9344,-9.75 L -16.9344,-9.3889 L -16.9344,-9.0278 L -16.9344,-8.6667 L -16.9344,-8.3056 L -16.9344,-7.9444 L -16.9344,-7.5833 L -16.9344,-7.2222 L -16.9344,-6.8611 L -16.9344,-6.5 L -16.9344,-6.1389 L -16.9344,-5.7778 L -16.9344,-5.4167 L -16.9344,-5.0556 L -16.9344,-4.6944 L -16.9344,-4.3333 L -16.9344,-3.9722 L -16.9344,-3.6111 L -16.9344,-3.25 L -16.9344,-2.8889 L -16.9344,-2.5278 L -16.9344,-2.1667 L -16.9344,-1.8056 L -16.9344,-1.4444 L -16.9344,-1.0833 L -16.9344,-0.7222 L -16.9344,-0.3611 L -16.9344,0.0 L -16.9344,0.3611 L -16.9344,0.7222 L -16.9344,1.0833 L -16.9344,1.4444 L -16.9344,1.8056 L -16.9344,2.1667 L -16.9344,2.5278 L -16.9344,2.8889 L -16.9344,3.25 L -16.9344,3.6111 L -16.9344,3.9722 L -16.9344,4.3333 L -16.9344,4.6944 L -16.9344,5.0556 L -16.9344,5.4167 L -16.9344,5.7778 L -16.9344,6.1389 L -16.9344,6.5 L -16.9344,6.8611 L -16.9344,7.2222 L -16.9344,7.5833 L -16.9344,7.9444 L -16.9344,8.3056 L -16.9344,8.6667 L -16.9344,9.0278 L -16.9344,9.3889 L -16.9344,9.75 L -16.9344,10.1111 L -16.9344,10.4722 L -16.9344,10.8333 L -16.9344,11.1944 L -16.9344,11.5556 L -16.9344,11.9167 L -16.9344,12.2778 L -16.9344,12.6389 L -16.9344,13.0" />
      <path d="M 4.8155,0.0 L 4.8139,0.1472 L 4.8091,0.2943 L 4.8011,0.4413 L 4.7899,0.5881 L 4.7754,0.7346 L 4.7578,0.8808 L 4.737,1.0265 L 4.713,1.1717 L 4.6859,1.3164 L 4.6556,1.4605 L 4.6222,1.6038 L 4.5857,1.7465 L 4.546,1.8882 L 4.5033,2.0291 L 4.4575,2.169 L 4.4087,2.3079 L 4.3569,2.4457 L 4.3021,2.5823 L 4.2443,2.7177 L 4.1835,2.8518 L 4.1199,2.9845 L 4.0534,3.1158 L 3.984,3.2457 L 3.9118,3.374 L 3.8368,3.5007 L 3.7591,3.6257 L 3.6787,3.749 L 3.5956,3.8705 L 3.5099,3.9902 L 3.4216,4.108 L 3.3307,4.2238 L 3.2374,4.3376 L 3.1415,4.4493 L 3.0433,4.559 L 2.9427,4.6665 L 2.8398,4.7717 L 2.7346,4.8747 L 2.6272,4.9753 L 2.5176,5.0736 L 2.4059,5.1695 L 2.2921,5.2629 L 2.1763,5.3539 L 2.0586,5.4422 L 1.939,5.528 L 1.8175,5.6112 L 1.6942,5.6917 L 1.5692,5.7694 L 1.4426,5.8445 L 1.3143,5.9167 L 1.1845,5.9862 L 1.0533,6.0528 L 0.9205,6.1165 L 0.7865,6.1773 L 0.6511,6.2352 L 0.5145,6.2901 L 0.3768,6.342 L 0.2379,6.3909 L 0.098,6.4367 L -0.0428,6.4795 L -0.1846,6.5192 L -0.3271,6.5558 L -0.4705,6.5893 L -0.6145,6.6197 L -0.7592,6.6469 L -0.9044,6.6709 L -1.0502,6.6918 L -1.1963,6.7095 L -1.3428,6.724 L -1.4896,6.7353 L -1.6366,6.7434 L -1.7837,6.7483 L -1.9309,6.75" />
      <path d="M -1.9309,-6.75 L -1.7837,-6.7483 L -1.6366,-6.7434 L -1.4896,-6.7353 L -1.3428,-6.724 L -1.1963,-6.7095 L -1.0502,-6.6918 L -0.9044,-6.6709 L -0.7592,-6.6469 L -0.6145,-6.6197 L -0.4705,-6.5893 L -0.3271,-6.5558 L -0.1846,-6.5192 L -0.0428,-6.4795 L 0.098,-6.4367 L 0.2379,-6.3909 L 0.3768,-6.342 L 0.5145,-6.2901 L 0.6511,-6.2352 L 0.7865,-6.1773 L 0.9205,-6.1165 L 1.0533,-6.0528 L 1.1845,-5.9862 L 1.3143,-5.9167 L 1.4426,-5.8445 L 1.5692,-5.7694 L 1.6942,-5.6917 L 1.8175,-5.6112 L 1.939,-5.528 L 2.0586,-5.4422 L 2.1763,-5.3539 L 2.2921,-5.2629 L 2.4059,-5.1695 L 2.5176,-5.0736 L 2.6272,-4.9753 L 2.7346,-4.8747 L 2.8398,-4.7717 L 2.9427,-4.6665 L 3.0433,-4.559 L 3.1415,-4.4493 L 3.2374,-4.3376 L 3.3307,-4.2238 L 3.4216,-4.108 L 3.5099,-3.9902 L 3.5956,-3.8705 L 3.6787,-3.749 L 3.7591,-3.6257 L 3.8368,-3.5007 L 3.9118,-3.374 L 3.984,-3.2457 L 4.0534,-3.1158 L 4.1199,-2.9845 L 4.1835,-2.8518 L 4.2443,-2.7177 L 4.3021,-2.5823 L 4.3569,-2.4457 L 4.4087,-2.3079 L 4.4575,-2.169 L 4.5033,-2.0291 L 4.546,-1.8882 L 4.5857,-1.7465 L 4.6222,-1.6038 L 4.6556,-1.4605 L 4.6859,-1.3164 L 4.713,-1.1717 L 4.737,-1.0265 L 4.7578,-0.8808 L 4.7754,-0.7346 L 4.7899,-0.5881 L 4.8011,-0.4413 L 4.8091,-0.2943 L 4.8139,-0.1472 L 4.8155,0.0" />
      <path d="M 13.075,13.0 L 12.6583,13.0 L 12.2415,13.0 L 11.8248,13.0 L 11.4081,13.0 L 10.9913,13.0 L 10.5746,13.0 L 10.1579,13.0 L 9.7411,13.0 L 9.3244,13.0 L 8.9077,13.0 L 8.491,13.0 L 8.0742,13.0 L 7.6575,13.0 L 7.2408,13.0 L 6.824,13.0 L 6.4073,13.0 L 5.9906,13.0 L 5.5738,13.0 L 5.1571,13.0 L 4.7404,13.0 L 4.3237,13.0 L 3.9069,13.0 L 3.4902,13.0 L 3.0735,13.0 L 2.6567,13.0 L 2.24,13.0 L 1.8233,13.0 L 1.4065,13.0 L 0.9898,13.0 L 0.5731,13.0 L 0.1563,13.0 L -0.2604,13.0 L -0.6771,13.0 L -1.0938,13.0 L -1.5106,13.0 L -1.9273,13.0 L -2.344,13.0 L -2.7608,13.0 L -3.1775,13.0 L -3.5942,13.0 L -4.011,13.0 L -4.4277,13.0 L -4.8444,13.0 L -5.2611,13.0 L -5.6779,13.0 L -6.0946,13.0 L -6.5113,13.0 L -6.9281,13.0 L -7.3448,13.0 L -7.7615,13.0 L -8.1783,13.0 L -8.595,13.0 L -9.0117,13.0 L -9.4285,13.0 L -9.8452,13.0 L -10.2619,13.0 L -10.6786,13.0 L -11.0954,13.0 L -11.5121,13.0 L -11.9288,13.0 L -12.3456,13.0 L -12.7623,13.0 L -13.179,13.0 L -13.5958,13.0 L -14.0125,13.0 L -14.4292,13.0 L -14.8459,13.0 L -15.2627,13.0 L -15.6794,13.0 L -16.0961,13.0 L -16.5129,13.0 L -16.9296,13.0" />
      <path d="M -16.9296,13.0 L -16.9297,13.0 L -16.9298,13.0 L -16.9299,13.0 L -16.93,13.0 L -16.9301,13.0 L -16.9302,13.0 L -16.9303,13.0 L -16.9304,13.0 L -16.9305,13.0 L -16.9306,13.0 L -16.9307,13.0 L -16.9308,13.0 L -16.9309,13.0 L -16.931,13.0 L -16.9311,13.0 L -16.9312,13.0 L -16.9313,13.0 L -16.9314,13.0 L -16.9315,13.0 L -16.9316,13.0 L -16.9317,13.0 L -16.9318,13.0 L -16.9319,13.0 L -16.932,13.0 L -16.9321,13.0 L -16.9322,13.0 L -16.9323,13.0 L -16.9324,13.0 L -16.9325,13.0 L -16.9326,13.0 L -16.9327,13.0 L -16.9328,13.0 L -16.9329,13.0 L -16.933,13.0 L -16.9331,13.0 L -16.9332,13.0 L -16.9333,13.0 L -16.9334,13.0 L -16.9335,13.0 L -16.9336,13.0 L -16.9337,13.0 L -16.9338,13.0 L -16.9339,13.0 L -16.934,13.0 L -16.9341,13.0 L -16.9342,13.0 L -16.9343,13.0 L -16.9344,13.0" />
      <path d="M -16.9296,-13.0 L -16.9297,-13.0 L -16.9298,-13.0 L -16.9299,-13.0 L -16.93,-13.0 L -16.9301,-13.0 L -16.9302,-13.0 L -16.9303,-13.0 L -16.9304,-13.0 L -16.9305,-13.0 L -16.9306,-13.0 L -16.9307,-13.0 L -16.9308,-13.0 L -16.9309,-13.0 L -16.931,-13.0 L -16.9311,-13.0 L -16.9312,-13.0 L -16.9313,-13.0 L -16.9314,-13.0 L -16.9315,-13.0 L -16.9316,-13.0 L -16.9317,-13.0 L -16.9318,-13.0 L -16.9319,-13.0 L -16.932,-13.0 L -16.9321,-13.0 L -16.9322,-13.0 L -16.9323,-13.0 L -16.9324,-13.0 L -16.9325,-13.0 L -16.9326,-13.0 L -16.9327,-13.0 L -16.9328,-13.0 L -16.9329,-13.0 L -16.933,-13.0 L -16.9331,-13.0 L -16.9332,-13.0 L -16.9333,-13.0 L -16.9334,-13.0 L -16.9335,-13.0 L -16.9336,-13.0 L -16.9337,-13.0 L -16.9338,-13.0 L -16.9339,-13.0 L -16.934,-13.0 L -16.9341,-13.0 L -16.9342,-13.0 L -16.9343,-13.0 L -16.9344,-13.0" />
      <path d="M -16.9296,-13.0 L -16.9296,-12.6389 L -16.9296,-12.2778 L -16.9296,-11.9167 L -16.9296,-11.5556 L -16.9296,-11.1944 L -16.9296,-10.8333 L -16.9296,-10.4722 L -16.9296,-10.1111 L -16.9296,-9.75 L -16.9296,-9.3889 L -16.9296,-9.0278 L -16.9296,-8.6667 L -16.9296,-8.3056 L -16.9296,-7.9444 L -16.9296,-7.5833 L -16.9296,-7.2222 L -16.9296,-6.8611 L -16.9296,-6.5 L -16.9296,-6.1389 L -16.9296,-5.7778 L -16.9296,-5.4167 L -16.9296,-5.0556 L -16.9296,-4.6944 L -16.9296,-4.3333 L -16.9296,-3.9722 L -16.9296,-3.6111 L -16.9296,-3.25 L -16.9296,-2.8889 L -16.9296,-2.5278 L -16.9296,-2.1667 L -16.9296,-1.8056 L -16.9296,-1.4444 L -16.9296,-1.0833 L -16.9296,-0.7222 L -16.9296,-0.3611 L -16.9296,0.0 L -16.9296,0.3611 L -16.9296,0.7222 L -16.9296,1.0833 L -16.9296,1.4444 L -16.9296,1.8056 L -16.9296,2.1667 L -16.9296,2.5278 L -16.9296,2.8889 L -16.9296,3.25 L -16.9296,3.6111 L -16.9296,3.9722 L -16.9296,4.3333 L -16.9296,4.6944 L -16.9296,5.0556 L -16.9296,5.4167 L -16.9296,5.7778 L -16.9296,6.1389 L -16.9296,6.5 L -16.9296,6.8611 L -16.9296,7.2222 L -16.9296,7.5833 L -16.9296,7.9444 L -16.9296,8.3056 L -16.9296,8.6667 L -16.9296,9.0278 L -16.9296,9.3889 L -16.9296,9.75 L -16.9296,10.1111 L -16.9296,10.4722 L -16.9296,10.8333 L -16.9296,11.1944 L -16.9296,11.5556 L -16.9296,11.9167 L -16.9296,12.2778 L -16.9296,12.6389 L -16.9296,13.0" />
      <path d="M 13.075,13.0 L 13.075,12.6389 L 13.075,12.2778 L 13.075,11.9167 L 13.075,11.5556 L 13.075,11.1944 L 13.075,10.8333 L 13.075,10.4722 L 13.075,10.1111 L 13.075,9.75 L 13.075,9.3889 L 13.075,9.0278 L 13.075,8.6667 L 13.075,8.3056 L 13.075,7.9444 L 13.075,7.5833 L 13.075,7.2222 L 13.075,6.8611 L 13.075,6.5 L 13.075,6.1389 L 13.075,5.7778 L 13.075,5.4167 L 13.075,5.0556 L 13.075,4.6944 L 13.075,4.3333 L 13.075,3.9722 L 13.075,3.6111 L 13.075,3.25 L 13.075,2.8889 L 13.075,2.5278 L 13.075,2.1667 L 13.075,1.8056 L 13.075,1.4444 L 13.075,1.0833 L 13.075,0.7222 L 13.075,0.3611 L 13.075,0.0 L 13.075,-0.3611 L 13.075,-0.7222 L 13.075,-1.0833 L 13.075,-1.4444 L 13.075,-1.8056 L 13.075,-2.1667 L 13.075,-2.5278 L 13.075,-2.8889 L 13.075,-3.25 L 13.075,-3.6111 L 13.075,-3.9722 L 13.075,-4.3333 L 13.075,-4.6944 L 13.075,-5.0556 L 13.075,-5.4167 L 13.075,-5.7778 L 13.075,-6.1389 L 13.075,-6.5 L 13.075,-6.8611 L 13.075,-7.2222 L 13.075,-7.5833 L 13.075,-7.9444 L 13.075,-8.3056 L 13.075,-8.6667 L 13.075,-9.0278 L 13.075,-9.3889 L 13.075,-9.75 L 13.075,-10.1111 L 13.075,-10.4722 L 13.075,-10.8333 L 13.075,-11.1944 L 13.075,-11.5556 L 13.075,-11.9167 L 13.075,-12.2778 L 13.075,-12.6389 L 13.075,-13.0" />
      <path d="M 13.075,-13.0 L 12.6583,-13.0 L 12.2415,-13.0 L 11.8248,-13.0 L 11.4081,-13.0 L 10.9913,-13.0 L 10.5746,-13.0 L 10.1579,-13.0 L 9.7411,-13.0 L 9.3244,-13.0 L 8.9077,-13.0 L 8.491,-13.0 L 8.0742,-13.0 L 7.6575,-13.0 L 7.2408,-13.0 L 6.824,-13.0 L 6.4073,-13.0 L 5.9906,-13.0 L 5.5738,-13.0 L 5.1571,-13.0 L 4.7404,-13.0 L 4.3237,-13.0 L 3.9069,-13.0 L 3.4902,-13.0 L 3.0735,-13.0 L 2.6567,-13.0 L 2.24,-13.0 L 1.8233,-13.0 L 1.4065,-13.0 L 0.9898,-13.0 L 0.5731,-13.0 L 0.1563,-13.0 L -0.2604,-13.0 L -0.6771,-13.0 L -1.0938,-13.0 L -1.5106,-13.0 L -1.9273,-13.0 L -2.344,-13.0 L -2.7608,-13.0 L -3.1775,-13.0 L -3.5942,-13.0 L -4.011,-13.0 L -4.4277,-13.0 L -4.8444,-13.0 L -5.2611,-13.0 L -5.6779,-13.0 L -6.0946,-13.0 L -6.5113,-13.0 L -6.9281,-13.0 L -7.3448,-13.0 L -7.7615,-13.0 L -8.1783,-13.0 L -8.595,-13.0 L -9.0117,-13.0 L -9.4285,-13.0 L -9.8452,-13.0 L -10.2619,-13.0 L -10.6786,-13.0 L -11.0954,-13.0 L -11.5121,-13.0 L -11.9288,-13.0 L -12.3456,-13.0 L -12.7623,-13.0 L -13.179,-13.0 L -13.5958,-13.0 L -14.0125,-13.0 L -14.4292,-13.0 L -14.8459,-13.0 L -15.2627,-13.0 L -15.6794,-13.0 L -16.0961,-13.0 L -16.5129,-13.0 L -16.9296,-13.0" />
      <path d="M 4.8237,0.0 L 4.8155,0.147 L 4.8072,0.2939 L 4.799,0.4409 L 4.7907,0.5879 L 4.7825,0.7348 L 4.7601,0.8802 L 4.7355,1.0253 L 4.7108,1.1704 L 4.6862,1.3155 L 4.6615,1.4607 L 4.6253,1.6032 L 4.5846,1.7446 L 4.5438,1.886 L 4.5031,2.0275 L 4.4623,2.1689 L 4.4126,2.3072 L 4.3563,2.4432 L 4.3,2.5792 L 4.2436,2.7152 L 4.1873,2.8512 L 4.1245,2.9841 L 4.0533,3.1129 L 3.9821,3.2418 L 3.9109,3.3706 L 3.8397,3.4994 L 3.7645,3.6257 L 3.6793,3.7457 L 3.5941,3.8658 L 3.5089,3.9858 L 3.4237,4.1059 L 3.3367,4.2244 L 3.2386,4.3342 L 3.1405,4.4439 L 3.0424,4.5537 L 2.9443,4.6634 L 2.8462,4.7731 L 2.7364,4.8712 L 2.6267,4.9693 L 2.5169,5.0674 L 2.4072,5.1654 L 2.2974,5.2635 L 2.1788,5.3505 L 2.0587,5.4357 L 1.9387,5.5208 L 1.8186,5.606 L 1.6986,5.6912 L 1.5722,5.7664 L 1.4434,5.8375 L 1.3146,5.9087 L 1.1857,5.9799 L 1.0569,6.0511 L 0.924,6.1138 L 0.788,6.1701 L 0.652,6.2264 L 0.516,6.2828 L 0.38,6.3391 L 0.2416,6.3887 L 0.1002,6.4295 L -0.0412,6.4702 L -0.1827,6.5109 L -0.3241,6.5517 L -0.4666,6.5878 L -0.6117,6.6125 L -0.7569,6.6371 L -0.902,6.6618 L -1.0471,6.6864 L -1.1925,6.7087 L -1.3394,6.717 L -1.4864,6.7252 L -1.6334,6.7335 L -1.7803,6.7417 L -1.9273,6.75" />
      <path d="M -1.9273,6.75 L -2.2194,6.7171 L -2.5115,6.6842 L -2.8035,6.6513 L -3.0956,6.6184 L -3.3877,6.5855 L -3.6672,6.4976 L -3.9447,6.4005 L -4.2221,6.3035 L -4.4996,6.2064 L -4.777,6.1093 L -5.0341,5.97 L -5.283,5.8136 L -5.5318,5.6572 L -5.7807,5.5009 L -6.0296,5.3445 L -6.2551,5.1588 L -6.463,4.951 L -6.6708,4.7431 L -6.8787,4.5353 L -7.0865,4.3275 L -7.2724,4.1021 L -7.4288,3.8532 L -7.5852,3.6044 L -7.7416,3.3555 L -7.898,3.1066 L -8.0374,2.8496 L -8.1345,2.5722 L -8.2316,2.2948 L -8.3287,2.0174 L -8.4258,1.7399 L -8.5138,1.4604 L -8.5467,1.1683 L -8.5796,0.8762 L -8.6125,0.5842 L -8.6454,0.2921 L -8.6783,-0.0 L -8.6454,-0.2921 L -8.6125,-0.5842 L -8.5796,-0.8762 L -8.5467,-1.1683 L -8.5138,-1.4604 L -8.4258,-1.7399 L -8.3287,-2.0174 L -8.2316,-2.2948 L -8.1345,-2.5722 L -8.0374,-2.8496 L -7.898,-3.1066 L -7.7416,-3.3555 L -7.5852,-3.6044 L -7.4288,-3.8532 L -7.2724,-4.1021 L -7.0865,-4.3275 L -6.8787,-4.5353 L -6.6708,-4.7431 L -6.463,-4.951 L -6.2551,-5.1588 L -6.0296,-5.3445 L -5.7807,-5.5009 L -5.5318,-5.6572 L -5.283,-5.8136 L -5.0341,-5.97 L -4.777,-6.1093 L -4.4996,-6.2064 L -4.2221,-6.3035 L -3.9447,-6.4005 L -3.6672,-6.4976 L -3.3877,-6.5855 L -3.0956,-6.6184 L -2.8035,-6.6513 L -2.5115,-6.6842 L -2.2194,-6.7171 L -1.9273,-6.75" />
      <path d="M -1.9273,-6.75 L -1.7803,-6.7417 L -1.6334,-6.7335 L -1.4864,-6.7252 L -1.3394,-6.717 L -1.1925,-6.7087 L -1.0471,-6.6864 L -0.902,-6.6618 L -0.7569,-6.6371 L -0.6117,-6.6125 L -0.4666,-6.5878 L -0.3241,-6.5517 L -0.1827,-6.5109 L -0.0412,-6.4702 L 0.1002,-6.4295 L 0.2416,-6.3887 L 0.38,-6.3391 L 0.516,-6.2828 L 0.652,-6.2264 L 0.788,-6.1701 L 0.924,-6.1138 L 1.0569,-6.0511 L 1.1857,-5.9799 L 1.3146,-5.9087 L 1.4434,-5.8375 L 1.5722,-5.7664 L 1.6986,-5.6912 L 1.8186,-5.606 L 1.9387,-5.5208 L 2.0587,-5.4357 L 2.1788,-5.3505 L 2.2974,-5.2635 L 2.4072,-5.1654 L 2.5169,-5.0674 L 2.6267,-4.9693 L 2.7364,-4.8712 L 2.8462,-4.7731 L 2.9443,-4.6634 L 3.0424,-4.5537 L 3.1405,-4.4439 L 3.2386,-4.3342 L 3.3367,-4.2244 L 3.4237,-4.1059 L 3.5089,-3.9858 L 3.5941,-3.8658 L 3.6793,-3.7457 L 3.7645,-3.6257 L 3.8397,-3.4994 L 3.9109,-3.3706 L 3.9821,-3.2418 L 4.0533,-3.1129 L 4.1245,-2.9841 L 4.1873,-2.8512 L 4.2436,-2.7152 L 4.3,-2.5792 L 4.3563,-2.4432 L 4.4126,-2.3072 L 4.4623,-2.1689 L 4.5031,-2.0275 L 4.5438,-1.886 L 4.5846,-1.7446 L 4.6253,-1.6032 L 4.6615,-1.4607 L 4.6862,-1.3155 L 4.7108,-1.1704 L 4.7355,-1.0253 L 4.7601,-0.8802 L 4.7825,-0.7348 L 4.7907,-0.5879 L 4.799,-0.4409 L 4.8072,-0.2939 L 4.8155,-0.147 L 4.8237,0.0" />
      <path d="M 22.0251,-16.9558 L 22.0251,-16.5391 L 22.0251,-16.1225 L 22.0251,-15.7058 L 22.0251,-15.2891 L 22.0251,-14.8725 L 22.0251,-14.4558 L 22.0251,-14.0391 L 22.0251,-13.6225 L 22.0251,-13.2058 L 22.0251,-12.7891 L 22.0251,-12.3725 L 22.0251,-11.9558 L 22.0251,-11.5391 L 22.0251,-11.1225 L 22.0251,-10.7058 L 22.0251,-10.2891 L 22.0251,-9.8725 L 22.0251,-9.4558 L 22.0251,-9.0391 L 22.0251,-8.6225 L 22.0251,-8.2058 L 22.0251,-7.7891 L 22.0251,-7.3725 L 22.0251,-6.9558 L 22.0251,-6.5392 L 22.0251,-6.1225 L 22.0251,-5.7058 L 22.0251,-5.2892 L 22.0251,-4.8725 L 22.0251,-4.4558 L 22.0251,-4.0392 L 22.0251,-3.6225 L 22.0251,-3.2058 L 22.0251,-2.7892 L 22.0251,-2.3725 L 22.0251,-1.9558 L 22.0251,-1.5392 L 22.0251,-1.1225 L 22.0251,-0.7058 L 22.0251,-0.2892 L 22.0251,0.1275 L 22.0251,0.5442 L 22.0251,0.9608 L 22.0251,1.3775 L 22.0251,1.7942 L 22.0251,2.2108 L 22.0251,2.6275 L 22.0251,3.0442 L 22.0251,3.4608 L 22.0251,3.8775 L 22.0251,4.2942 L 22.0251,4.7108 L 22.0251,5.1275 L 22.0251,5.5442 L 22.0251,5.9608 L 22.0251,6.3775 L 22.0251,6.7942 L 22.0251,7.2108 L 22.0251,7.6275 L 22.0251,8.0442 L 22.0251,8.4608 L 22.0251,8.8775 L 22.0251,9.2942 L 22.0251,9.7108 L 22.0251,10.1275 L 22.0251,10.5442 L 22.0251,10.9608 L 22.0251,11.3775 L 22.0251,11.7941 L 22.0251,12.2108 L 22.0251,12.6275 L 22.0251,13.0441" />
      <path d="M 21.975,-16.9056 L 21.9757,-16.9063 L 21.9764,-16.907 L 21.9771,-16.9077 L 21.9778,-16.9084 L 21.9785,-16.9091 L 21.9792,-16.9098 L 21.9799,-16.9105 L 21.9805,-16.9112 L 21.9812,-16.9119 L 21.9819,-16.9126 L 21.9826,-16.9133 L 21.9833,-16.914 L 21.984,-16.9147 L 21.9847,-16.9154 L 21.9854,-16.9161 L 21.9861,-16.9168 L 21.9868,-16.9175 L 21.9875,-16.9181 L 21.9882,-16.9188 L 21.9889,-16.9195 L 21.9896,-16.9202 L 21.9903,-16.9209 L 21.991,-16.9216 L 21.9917,-16.9223 L 21.9924,-16.923 L 21.9931,-16.9237 L 21.9938,-16.9244 L 21.9945,-16.9251 L 21.9952,-16.9258 L 21.9959,-16.9265 L 21.9966,-16.9272 L 21.9972,-16.9279 L 21.9979,-16.9286 L 21.9986,-16.9293 L 21.9993,-16.93 L 22.0,-16.9307 L 22.0007,-16.9314 L 22.0014,-16.9321 L 22.0021,-16.9328 L 22.0028,-16.9335 L 22.0035,-16.9342 L 22.0042,-16.9349 L 22.0049,-16.9356 L 22.0056,-16.9363 L 22.0063,-16.937 L 22.007,-16.9377 L 22.0077,-16.9384 L 22.0084,-16.9391 L 22.0091,-16.9398 L 22.0098,-16.9405 L 22.0105,-16.9412 L 22.0112,-16.9419 L 22.0119,-16.9426 L 22.0126,-16.9432 L 22.0133,-16.9439 L 22.014,-16.9446 L 22.0146,-16.9453 L 22.0153,-16.946 L 22.016,-16.9467 L 22.0167,-16.9474 L 22.0174,-16.9481 L 22.0181,-16.9488 L 22.0188,-16.9495 L 22.0195,-16.9502 L 22.0202,-16.9509 L 22.0209,-16.9516 L 22.0216,-16.9523 L 22.0223,-16.953 L 22.023,-16.9537 L 22.0237,-16.9544 L 22.0244,-16.9551 L 22.0251,-16.9558" />
      <path d="M 22.0251,13.0441 L 22.0244,13.0448 L 22.0237,13.0455 L 22.023,13.0462 L 22.0223,13.0469 L 22.0216,13.0476 L 22.0209,13.0483 L 22.0202,13.049 L 22.0195,13.0497 L 22.0188,13.0504 L 22.0181,13.0511 L 22.0174,13.0518 L 22.0167,13.0525 L 22.016,13.0532 L 22.0153,13.0539 L 22.0146,13.0546 L 22.014,13.0553 L 22.0133,13.056 L 22.0126,13.0567 L 22.0119,13.0574 L 22.0112,13.0581 L 22.0105,13.0588 L 22.0098,13.0595 L 22.0091,13.0602 L 22.0084,13.0609 L 22.0077,13.0616 L 22.007,13.0623 L 22.0063,13.063 L 22.0056,13.0637 L 22.0049,13.0644 L 22.0042,13.0651 L 22.0035,13.0658 L 22.0028,13.0665 L 22.0021,13.0672 L 22.0014,13.0679 L 22.0007,13.0685 L 22.0,13.0692 L 21.9993,13.0699 L 21.9986,13.0706 L 21.9979,13.0713 L 21.9972,13.072 L 21.9966,13.0727 L 21.9959,13.0734 L 21.9952,13.0741 L 21.9945,13.0748 L 21.9938,13.0755 L 21.9931,13.0762 L 21.9924,13.0769 L 21.9917,13.0776 L 21.991,13.0783 L 21.9903,13.079 L 21.9896,13.0797 L 21.9889,13.0804 L 21.9882,13.0811 L 21.9875,13.0818 L 21.9868,13.0825 L 21.9861,13.0832 L 21.9854,13.0839 L 21.9847,13.0846 L 21.984,13.0853 L 21.9833,13.086 L 21.9826,13.0867 L 21.9819,13.0874 L 21.9812,13.0881 L 21.9805,13.0888 L 21.9799,13.0895 L 21.9792,13.0902 L 21.9785,13.0909 L 21.9778,13.0916 L 21.9771,13.0923 L 21.9764,13.0929 L 21.9757,13.0936 L 21.975,13.0943" />
      <path d="M 21.975,-16.9056 L 21.975,-16.4889 L 21.975,-16.0723 L 21.975,-15.6556 L 21.975,-15.2389 L 21.975,-14.8223 L 21.975,-14.4056 L 21.975,-13.9889 L 21.975,-13.5723 L 21.975,-13.1556 L 21.975,-12.7389 L 21.975,-12.3223 L 21.975,-11.9056 L 21.975,-11.4889 L 21.975,-11.0723 L 21.975,-10.6556 L 21.975,-10.2389 L 21.975,-9.8223 L 21.975,-9.4056 L 21.975,-8.9889 L 21.975,-8.5723 L 21.975,-8.1556 L 21.975,-7.739 L 21.975,-7.3223 L 21.975,-6.9056 L 21.975,-6.489 L 21.975,-6.0723 L 21.975,-5.6556 L 21.975,-5.239 L 21.975,-4.8223 L 21.975,-4.4056 L 21.975,-3.989 L 21.975,-3.5723 L 21.975,-3.1556 L 21.975,-2.739 L 21.975,-2.3223 L 21.975,-1.9056 L 21.975,-1.489 L 21.975,-1.0723 L 21.975,-0.6556 L 21.975,-0.239 L 21.975,0.1777 L 21.975,0.5944 L 21.975,1.011 L 21.975,1.4277 L 21.975,1.8444 L 21.975,2.261 L 21.975,2.6777 L 21.975,3.0944 L 21.975,3.511 L 21.975,3.9277 L 21.975,4.3444 L 21.975,4.761 L 21.975,5.1777 L 21.975,5.5944 L 21.975,6.011 L 21.975,6.4277 L 21.975,6.8444 L 21.975,7.261 L 21.975,7.6777 L 21.975,8.0944 L 21.975,8.511 L 21.975,8.9277 L 21.975,9.3444 L 21.975,9.761 L 21.975,10.1777 L 21.975,10.5943 L 21.975,11.011 L 21.975,11.4277 L 21.975,11.8443 L 21.975,12.261 L 21.975,12.6777 L 21.975,13.0943" />
      <path d="M 22.0,4.8193 L 22.0031,4.6318 L 22.0043,4.4443 L 22.0052,4.2568 L 22.006,4.0693 L 22.0066,3.8818 L 22.0072,3.6943 L 22.0077,3.5068 L 22.0082,3.3193 L 22.0086,3.1318 L 22.009,2.9443 L 22.0094,2.7568 L 22.0097,2.5693 L 22.01,2.3818 L 22.0103,2.1943 L 22.0106,2.0068 L 22.0108,1.8193 L 22.0111,1.6318 L 22.0113,1.4443 L 22.0115,1.2568 L 22.0117,1.0693 L 22.0118,0.8818 L 22.012,0.6943 L 22.0122,0.5068 L 22.0123,0.3193 L 22.0124,0.1318 L 22.0125,-0.0557 L 22.0126,-0.2432 L 22.0127,-0.4307 L 22.0128,-0.6182 L 22.0129,-0.8057 L 22.0129,-0.9932 L 22.013,-1.1807 L 22.013,-1.3682 L 22.013,-1.5557 L 22.013,-1.7432 L 22.013,-1.9307 L 22.013,-2.1182 L 22.013,-2.3057 L 22.013,-2.4932 L 22.013,-2.6807 L 22.0129,-2.8682 L 22.0129,-3.0557 L 22.0128,-3.2432 L 22.0127,-3.4307 L 22.0126,-3.6182 L 22.0125,-3.8057 L 22.0124,-3.9932 L 22.0123,-4.1807 L 22.0122,-4.3682 L 22.012,-4.5557 L 22.0119,-4.7432 L 22.0117,-4.9308 L 22.0115,-5.1183 L 22.0113,-5.3058 L 22.0111,-5.4933 L 22.0109,-5.6808 L 22.0106,-5.8683 L 22.0103,-6.0558 L 22.0101,-6.2433 L 22.0097,-6.4308 L 22.0094,-6.6183 L 22.009,-6.8058 L 22.0087,-6.9933 L 22.0082,-7.1808 L 22.0078,-7.3683 L 22.0072,-7.5558 L 22.0067,-7.7433 L 22.006,-7.9308 L 22.0053,-8.1183 L 22.0043,-8.3058 L 22.0031,-8.4933 L 22.0001,-8.6807" />
      <path d="M 22.0001,-8.6807 L 21.997,-8.4933 L 21.9958,-8.3058 L 21.9949,-8.1183 L 21.9941,-7.9308 L 21.9934,-7.7433 L 21.9929,-7.5558 L 21.9923,-7.3683 L 21.9919,-7.1808 L 21.9914,-6.9933 L 21.9911,-6.8058 L 21.9907,-6.6183 L 21.9904,-6.4308 L 21.99,-6.2433 L 21.9898,-6.0558 L 21.9895,-5.8683 L 21.9892,-5.6808 L 21.989,-5.4933 L 21.9888,-5.3058 L 21.9886,-5.1183 L 21.9884,-4.9308 L 21.9882,-4.7433 L 21.9881,-4.5558 L 21.9879,-4.3683 L 21.9878,-4.1808 L 21.9877,-3.9933 L 21.9875,-3.8058 L 21.9874,-3.6183 L 21.9874,-3.4308 L 21.9873,-3.2432 L 21.9872,-3.0557 L 21.9872,-2.8682 L 21.9871,-2.6807 L 21.9871,-2.4932 L 21.987,-2.3057 L 21.987,-2.1182 L 21.987,-1.9307 L 21.987,-1.7432 L 21.987,-1.5557 L 21.9871,-1.3682 L 21.9871,-1.1807 L 21.9871,-0.9932 L 21.9872,-0.8057 L 21.9873,-0.6182 L 21.9873,-0.4307 L 21.9874,-0.2432 L 21.9875,-0.0557 L 21.9876,0.1318 L 21.9878,0.3193 L 21.9879,0.5068 L 21.988,0.6943 L 21.9882,0.8818 L 21.9884,1.0693 L 21.9886,1.2568 L 21.9888,1.4443 L 21.989,1.6318 L 21.9892,1.8193 L 21.9895,2.0068 L 21.9897,2.1943 L 21.99,2.3818 L 21.9903,2.5693 L 21.9907,2.7568 L 21.991,2.9443 L 21.9914,3.1318 L 21.9918,3.3193 L 21.9923,3.5068 L 21.9928,3.6943 L 21.9934,3.8818 L 21.9941,4.0693 L 21.9948,4.2568 L 21.9957,4.4443 L 21.997,4.6318 L 22.0,4.8193" />
      <path d="M 19.5251,-16.9558 L 19.5598,-16.9558 L 19.5945,-16.9558 L 19.6293,-16.9558 L 19.664,-16.9558 L 19.6987,-16.9558 L 19.7334,-16.9558 L 19.7681,-16.9558 L 19.8029,-16.9558 L 19.8376,-16.9558 L 19.8723,-16.9558 L 19.907,-16.9558 L 19.9418,-16.9558 L 19.9765,-16.9558 L 20.0112,-16.9558 L 20.0459,-16.9558 L 20.0806,-16.9558 L 20.1154,-16.9558 L 20.1501,-16.9558 L 20.1848,-16.9558 L 20.2195,-16.9558 L 20.2543,-16.9558 L 20.289,-16.9558 L 20.3237,-16.9558 L 20.3584,-16.9558 L 20.3931,-16.9558 L 20.4279,-16.9558 L 20.4626,-16.9558 L 20.4973,-16.9558 L 20.532,-16.9558 L 20.5668,-16.9558 L 20.6015,-16.9558 L 20.6362,-16.9558 L 20.6709,-16.9558 L 20.7056,-16.9558 L 20.7404,-16.9558 L 20.7751,-16.9558 L 20.8098,-16.9558 L 20.8445,-16.9558 L 20.8793,-16.9558 L 20.914,-16.9558 L 20.9487,-16.9558 L 20.9834,-16.9558 L 21.0181,-16.9558 L 21.0529,-16.9558 L 21.0876,-16.9558 L 21.1223,-16.9558 L 21.157,-16.9558 L 21.1918,-16.9558 L 21.2265,-16.9558 L 21.2612,-16.9558 L 21.2959,-16.9558 L 21.3306,-16.9558 L 21.3654,-16.9558 L 21.4001,-16.9558 L 21.4348,-16.9558 L 21.4695,-16.9558 L 21.5043,-16.9558 L 21.539,-16.9558 L 21.5737,-16.9558 L 21.6084,-16.9558 L 21.6431,-16.9558 L 21.6779,-16.9558 L 21.7126,-16.9558 L 21.7473,-16.9558 L 21.782,-16.9558 L 21.8168,-16.9558 L 21.8515,-16.9558 L 21.8862,-16.9558 L 21.9209,-16.9558 L 21.9556,-16.9558 L 21.9904,-16.9558 L 22.0251,-16.9558" />
      <path d="M 19.475,-16.9056 L 19.5097,-16.9056 L 19.5444,-16.9056 L 19.5792,-16.9056 L 19.6139,-16.9056 L 19.6486,-16.9056 L 19.6833,-16.9056 L 19.718,-16.9056 L 19.7528,-16.9056 L 19.7875,-16.9056 L 19.8222,-16.9056 L 19.8569,-16.9056 L 19.8916,-16.9056 L 19.9264,-16.9056 L 19.9611,-16.9056 L 19.9958,-16.9056 L 20.0305,-16.9056 L 20.0653,-16.9056 L 20.1,-16.9056 L 20.1347,-16.9056 L 20.1694,-16.9056 L 20.2041,-16.9056 L 20.2389,-16.9056 L 20.2736,-16.9056 L 20.3083,-16.9056 L 20.343,-16.9056 L 20.3778,-16.9056 L 20.4125,-16.9056 L 20.4472,-16.9056 L 20.4819,-16.9056 L 20.5166,-16.9056 L 20.5514,-16.9056 L 20.5861,-16.9056 L 20.6208,-16.9056 L 20.6555,-16.9056 L 20.6903,-16.9056 L 20.725,-16.9056 L 20.7597,-16.9056 L 20.7944,-16.9056 L 20.8291,-16.9056 L 20.8639,-16.9056 L 20.8986,-16.9056 L 20.9333,-16.9056 L 20.968,-16.9056 L 21.0028,-16.9056 L 21.0375,-16.9056 L 21.0722,-16.9056 L 21.1069,-16.9056 L 21.1416,-16.9056 L 21.1764,-16.9056 L 21.2111,-16.9056 L 21.2458,-16.9056 L 21.2805,-16.9056 L 21.3153,-16.9056 L 21.35,-16.9056 L 21.3847,-16.9056 L 21.4194,-16.9056 L 21.4541,-16.9056 L 21.4889,-16.9056 L 21.5236,-16.9056 L 21.5583,-16.9056 L 21.593,-16.9056 L 21.6278,-16.9056 L 21.6625,-16.9056 L 21.6972,-16.9056 L 21.7319,-16.9056 L 21.7666,-16.9056 L 21.8014,-16.9056 L 21.8361,-16.9056 L 21.8708,-16.9056 L 21.9055,-16.9056 L 21.9403,-16.9056 L 21.975,-16.9056" />
      <path d="M 19.475,-16.9056 L 19.4757,-16.9063 L 19.4764,-16.907 L 19.4771,-16.9077 L 19.4778,-16.9084 L 19.4785,-16.9091 L 19.4792,-16.9098 L 19.4799,-16.9105 L 19.4806,-16.9112 L 19.4812,-16.9119 L 19.4819,-16.9126 L 19.4826,-16.9133 L 19.4833,-16.914 L 19.484,-16.9147 L 19.4847,-16.9154 L 19.4854,-16.9161 L 19.4861,-16.9168 L 19.4868,-16.9175 L 19.4875,-16.9182 L 19.4882,-16.9189 L 19.4889,-16.9196 L 19.4896,-16.9203 L 19.4903,-16.9209 L 19.491,-16.9216 L 19.4917,-16.9223 L 19.4924,-16.923 L 19.4931,-16.9237 L 19.4938,-16.9244 L 19.4945,-16.9251 L 19.4952,-16.9258 L 19.4959,-16.9265 L 19.4966,-16.9272 L 19.4973,-16.9279 L 19.4979,-16.9286 L 19.4986,-16.9293 L 19.4993,-16.93 L 19.5,-16.9307 L 19.5007,-16.9314 L 19.5014,-16.9321 L 19.5021,-16.9328 L 19.5028,-16.9335 L 19.5035,-16.9342 L 19.5042,-16.9349 L 19.5049,-16.9356 L 19.5056,-16.9363 L 19.5063,-16.937 L 19.507,-16.9377 L 19.5077,-16.9384 L 19.5084,-16.9391 L 19.5091,-16.9398 L 19.5098,-16.9405 L 19.5105,-16.9412 L 19.5112,-16.9419 L 19.5119,-16.9426 L 19.5126,-16.9433 L 19.5133,-16.944 L 19.514,-16.9447 L 19.5147,-16.9453 L 19.5153,-16.946 L 19.516,-16.9467 L 19.5167,-16.9474 L 19.5174,-16.9481 L 19.5181,-16.9488 L 19.5188,-16.9495 L 19.5195,-16.9502 L 19.5202,-16.9509 L 19.5209,-16.9516 L 19.5216,-16.9523 L 19.5223,-16.953 L 19.523,-16.9537 L 19.5237,-16.9544 L 19.5244,-16.9551 L 19.5251,-16.9558" />
      <path d="M 21.975,13.0943 L 21.9069,13.0943 L 21.8389,13.0943 L 21.7708,13.0943 L 21.7028,13.0943 L 21.6347,13.0943 L 21.5666,13.0943 L 21.4986,13.0943 L 21.4305,13.0943 L 21.3625,13.0943 L 21.2944,13.0943 L 21.2264,13.0943 L 21.1583,13.0943 L 21.0903,13.0943 L 21.0222,13.0943 L 20.9541,13.0943 L 20.8861,13.0943 L 20.818,13.0943 L 20.75,13.0943 L 20.6819,13.0943 L 20.6139,13.0943 L 20.5458,13.0943 L 20.4778,13.0943 L 20.4097,13.0943 L 20.3416,13.0943 L 20.2736,13.0943 L 20.2055,13.0943 L 20.1375,13.0943 L 20.0694,13.0943 L 20.0014,13.0943 L 19.9333,13.0943 L 19.8653,13.0943 L 19.7972,13.0943 L 19.7291,13.0943 L 19.6611,13.0943 L 19.593,13.0943 L 19.525,13.0943 L 19.4569,13.0943 L 19.3889,13.0943 L 19.3208,13.0943 L 19.2528,13.0943 L 19.1847,13.0943 L 19.1167,13.0943 L 19.0486,13.0943 L 18.9805,13.0943 L 18.9125,13.0943 L 18.8444,13.0943 L 18.7764,13.0943 L 18.7083,13.0943 L 18.6403,13.0943 L 18.5722,13.0943 L 18.5042,13.0943 L 18.4361,13.0943 L 18.368,13.0943 L 18.3,13.0943 L 18.2319,13.0943 L 18.1639,13.0943 L 18.0958,13.0943 L 18.0278,13.0943 L 17.9597,13.0943 L 17.8917,13.0943 L 17.8236,13.0943 L 17.7555,13.0943 L 17.6875,13.0943 L 17.6194,13.0943 L 17.5514,13.0943 L 17.4833,13.0943 L 17.4153,13.0943 L 17.3472,13.0943 L 17.2792,13.0943 L 17.2111,13.0943 L 17.143,13.0943 L 17.075,13.0943" />
      <path d="M 17.075,13.0943 L 17.1083,12.6777 L 17.1417,12.261 L 17.175,11.8443 L 17.2083,11.4277 L 17.2417,11.011 L 17.275,10.5943 L 17.3083,10.1777 L 17.3417,9.761 L 17.375,9.3443 L 17.4083,8.9277 L 17.4417,8.511 L 17.475,8.0943 L 17.5083,7.6777 L 17.5417,7.261 L 17.575,6.8443 L 17.6083,6.4277 L 17.6417,6.011 L 17.675,5.5943 L 17.7083,5.1777 L 17.7417,4.761 L 17.775,4.3443 L 17.8083,3.9277 L 17.8417,3.511 L 17.875,3.0943 L 17.9083,2.6777 L 17.9417,2.261 L 17.975,1.8444 L 18.0083,1.4277 L 18.0417,1.011 L 18.075,0.5944 L 18.1083,0.1777 L 18.1417,-0.239 L 18.175,-0.6556 L 18.2083,-1.0723 L 18.2417,-1.489 L 18.275,-1.9056 L 18.3083,-2.3223 L 18.3417,-2.739 L 18.375,-3.1556 L 18.4083,-3.5723 L 18.4417,-3.989 L 18.475,-4.4056 L 18.5083,-4.8223 L 18.5417,-5.239 L 18.575,-5.6556 L 18.6083,-6.0723 L 18.6417,-6.489 L 18.675,-6.9056 L 18.7083,-7.3223 L 18.7417,-7.739 L 18.775,-8.1556 L 18.8083,-8.5723 L 18.8417,-8.989 L 18.875,-9.4056 L 18.9083,-9.8223 L 18.9417,-10.239 L 18.975,-10.6556 L 19.0083,-11.0723 L 19.0417,-11.489 L 19.075,-11.9056 L 19.1083,-12.3223 L 19.1417,-12.739 L 19.175,-13.1556 L 19.2083,-13.5723 L 19.2417,-13.9889 L 19.275,-14.4056 L 19.3083,-14.8223 L 19.3417,-15.2389 L 19.375,-15.6556 L 19.4083,-16.0723 L 19.4417,-16.4889 L 19.475,-16.9056" />
    </g>
    <g fill="none" stroke="rgb(110,110,110)" stroke-width="0.3" id="Hidden" stroke-dasharray="3.6 0.9">
      <path d="M -16.9344,13.0 L -16.5178,13.0 L -16.1011,13.0 L -15.6844,13.0 L -15.2678,13.0 L -14.8511,13.0 L -14.4344,13.0 L -14.0178,13.0 L -13.6011,13.0 L -13.1844,13.0 L -12.7678,13.0 L -12.3511,13.0 L -11.9344,13.0 L -11.5178,13.0 L -11.1011,13.0 L -10.6844,13.0 L -10.2678,13.0 L -9.8511,13.0 L -9.4344,13.0 L -9.0178,13.0 L -8.6011,13.0 L -8.1845,13.0 L -7.7678,13.0 L -7.3511,13.0 L -6.9345,13.0 L -6.5178,13.0 L -6.1011,13.0 L -5.6845,13.0 L -5.2678,13.0 L -4.8511,13.0 L -4.4345,13.0 L -4.0178,13.0 L -3.6011,13.0 L -3.1845,13.0 L -2.7678,13.0 L -2.3511,13.0 L -1.9345,13.0 L -1.5178,13.0 L -1.1011,13.0 L -0.6845,13.0 L -0.2678,13.0 L 0.1489,13.0 L 0.5655,13.0 L 0.9822,13.0 L 1.3989,13.0 L 1.8155,13.0 L 2.2322,13.0 L 2.6489,13.0 L 3.0655,13.0 L 3.4822,13.0 L 3.8989,13.0 L 4.3155,13.0 L 4.7322,13.0 L 5.1489,13.0 L 5.5655,13.0 L 5.9822,13.0 L 6.3989,13.0 L 6.8155,13.0 L 7.2322,13.0 L 7.6489,13.0 L 8.0655,13.0 L 8.4822,13.0 L 8.8989,13.0 L 9.3155,13.0 L 9.7322,13.0 L 10.1488,13.0 L 10.5655,13.0 L 10.9822,13.0 L 11.3988,13.0 L 11.8155,13.0 L 12.2322,13.0 L 12.6488,13.0 L 13.0655,13.0" />
      <path d="M 13.0655,13.0 L 13.0655,12.6389 L 13.0655,12.2778 L 13.0655,11.9167 L 13.0655,11.5556 L 13.0655,11.1944 L 13.0655,10.8333 L 13.0655,10.4722 L 13.0655,10.1111 L 13.0655,9.75 L 13.0655,9.3889 L 13.0655,9.0278 L 13.0655,8.6667 L 13.0655,8.3056 L 13.0655,7.9444 L 13.0655,7.5833 L 13.0655,7.2222 L 13.0655,6.8611 L 13.0655,6.5 L 13.0655,6.1389 L 13.0655,5.7778 L 13.0655,5.4167 L 13.0655,5.0556 L 13.0655,4.6944 L 13.0655,4.3333 L 13.0655,3.9722 L 13.0655,3.6111 L 13.0655,3.25 L 13.0655,2.8889 L 13.0655,2.5278 L 13.0655,2.1667 L 13.0655,1.8056 L 13.0655,1.4444 L 13.0655,1.0833 L 13.0655,0.7222 L 13.0655,0.3611 L 13.0655,0.0 L 13.0655,-0.3611 L 13.0655,-0.7222 L 13.0655,-1.0833 L 13.0655,-1.4444 L 13.0655,-1.8056 L 13.0655,-2.1667 L 13.0655,-2.5278 L 13.0655,-2.8889 L 13.0655,-3.25 L 13.0655,-3.6111 L 13.0655,-3.9722 L 13.0655,-4.3333 L 13.0655,-4.6944 L 13.0655,-5.0556 L 13.0655,-5.4167 L 13.0655,-5.7778 L 13.0655,-6.1389 L 13.0655,-6.5 L 13.0655,-6.8611 L 13.0655,-7.2222 L 13.0655,-7.5833 L 13.0655,-7.9444 L 13.0655,-8.3056 L 13.0655,-8.6667 L 13.0655,-9.0278 L 13.0655,-9.3889 L 13.0655,-9.75 L 13.0655,-10.1111 L 13.0655,-10.4722 L 13.0655,-10.8333 L 13.0655,-11.1944 L 13.0655,-11.5556 L 13.0655,-11.9167 L 13.0655,-12.2778 L 13.0655,-12.6389 L 13.0655,-13.0" />
      <path d="M -16.9344,-13.0 L -16.5178,-13.0 L -16.1011,-13.0 L -15.6844,-13.0 L -15.2678,-13.0 L -14.8511,-13.0 L -14.4344,-13.0 L -14.0178,-13.0 L -13.6011,-13.0 L -13.1844,-13.0 L -12.7678,-13.0 L -12.3511,-13.0 L -11.9344,-13.0 L -11.5178,-13.0 L -11.1011,-13.0 L -10.6844,-13.0 L -10.2678,-13.0 L -9.8511,-13.0 L -9.4344,-13.0 L -9.0178,-13.0 L -8.6011,-13.0 L -8.1845,-13.0 L -7.7678,-13.0 L -7.3511,-13.0 L -6.9345,-13.0 L -6.5178,-13.0 L -6.1011,-13.0 L -5.6845,-13.0 L -5.2678,-13.0 L -4.8511,-13.0 L -4.4345,-13.0 L -4.0178,-13.0 L -3.6011,-13.0 L -3.1845,-13.0 L -2.7678,-13.0 L -2.3511,-13.0 L -1.9345,-13.0 L -1.5178,-13.0 L -1.1011,-13.0 L -0.6845,-13.0 L -0.2678,-13.0 L 0.1489,-13.0 L 0.5655,-13.0 L 0.9822,-13.0 L 1.3989,-13.0 L 1.8155,-13.0 L 2.2322,-13.0 L 2.6489,-13.0 L 3.0655,-13.0 L 3.4822,-13.0 L 3.8989,-13.0 L 4.3155,-13.0 L 4.7322,-13.0 L 5.1489,-13.0 L 5.5655,-13.0 L 5.9822,-13.0 L 6.3989,-13.0 L 6.8155,-13.0 L 7.2322,-13.0 L 7.6489,-13.0 L 8.0655,-13.0 L 8.4822,-13.0 L 8.8989,-13.0 L 9.3155,-13.0 L 9.7322,-13.0 L 10.1488,-13.0 L 10.5655,-13.0 L 10.9822,-13.0 L 11.3988,-13.0 L 11.8155,-13.0 L 12.2322,-13.0 L 12.6488,-13.0 L 13.0655,-13.0" />
      <path d="M -1.9309,6.75 L -1.931,6.75 L -1.9311,6.75 L -1.9312,6.75 L -1.9313,6.75 L -1.9314,6.75 L -1.9315,6.75 L -1.9316,6.75 L -1.9317,6.75 L -1.9318,6.75 L -1.9319,6.75 L -1.932,6.75 L -1.9321,6.75 L -1.9322,6.75 L -1.9323,6.75 L -1.9324,6.75 L -1.9325,6.75 L -1.9326,6.75 L -1.9327,6.75 L -1.9328,6.75 L -1.9329,6.75 L -1.933,6.75 L -1.9331,6.75 L -1.9332,6.75 L -1.9333,6.75 L -1.9334,6.75 L -1.9335,6.75 L -1.9336,6.75 L -1.9337,6.75 L -1.9338,6.75 L -1.9339,6.75 L -1.934,6.75 L -1.9341,6.75 L -1.9342,6.75 L -1.9343,6.75 L -1.9344,6.75 L -1.9345,6.75" />
      <path d="M -1.9345,6.75 L -2.2289,6.7436 L -2.5228,6.7243 L -2.8155,6.6923 L -3.1066,6.6475 L -3.3954,6.59 L -3.6815,6.52 L -3.9642,6.4376 L -4.2431,6.3429 L -4.5176,6.2362 L -4.7871,6.1176 L -5.0513,5.9873 L -5.3095,5.8457 L -5.5612,5.6929 L -5.8061,5.5293 L -6.0436,5.3551 L -6.2733,5.1708 L -6.4947,4.9766 L -6.7074,4.773 L -6.9111,4.5602 L -7.1053,4.3388 L -7.2896,4.1091 L -7.4637,3.8716 L -7.6273,3.6268 L -7.7801,3.375 L -7.9218,3.1168 L -8.052,2.8527 L -8.1706,2.5831 L -8.2774,2.3086 L -8.372,2.0298 L -8.4545,1.747 L -8.5244,1.461 L -8.5819,1.1721 L -8.6267,0.8811 L -8.6588,0.5883 L -8.678,0.2944 L -8.6844,0.0 L -8.678,-0.2944 L -8.6588,-0.5883 L -8.6267,-0.8811 L -8.5819,-1.1721 L -8.5244,-1.461 L -8.4545,-1.747 L -8.372,-2.0298 L -8.2774,-2.3086 L -8.1706,-2.5831 L -8.052,-2.8527 L -7.9218,-3.1168 L -7.7801,-3.375 L -7.6273,-3.6268 L -7.4637,-3.8716 L -7.2896,-4.1091 L -7.1053,-4.3388 L -6.9111,-4.5602 L -6.7074,-4.773 L -6.4947,-4.9766 L -6.2733,-5.1708 L -6.0436,-5.3551 L -5.8061,-5.5293 L -5.5612,-5.6929 L -5.3095,-5.8457 L -5.0513,-5.9873 L -4.7871,-6.1176 L -4.5176,-6.2362 L -4.2431,-6.3429 L -3.9642,-6.4376 L -3.6815,-6.52 L -3.3954,-6.59 L -3.1066,-6.6475 L -2.8155,-6.6923 L -2.5228,-6.7243 L -2.2289,-6.7436 L -1.9345,-6.75" />
      <path d="M -1.9345,-6.75 L -1.9344,-6.75 L -1.9343,-6.75 L -1.9342,-6.75 L -1.9341,-6.75 L -1.934,-6.75 L -1.9339,-6.75 L -1.9338,-6.75 L -1.9337,-6.75 L -1.9336,-6.75 L -1.9335,-6.75 L -1.9334,-6.75 L -1.9333,-6.75 L -1.9332,-6.75 L -1.9331,-6.75 L -1.933,-6.75 L -1.9329,-6.75 L -1.9328,-6.75 L -1.9327,-6.75 L -1.9326,-6.75 L -1.9325,-6.75 L -1.9324,-6.75 L -1.9323,-6.75 L -1.9322,-6.75 L -1.9321,-6.75 L -1.932,-6.75 L -1.9319,-6.75 L -1.9318,-6.75 L -1.9317,-6.75 L -1.9316,-6.75 L -1.9315,-6.75 L -1.9314,-6.75 L -1.9313,-6.75 L -1.9312,-6.75 L -1.9311,-6.75 L -1.931,-6.75 L -1.9309,-6.75" />
      <path d="M 13.0655,13.0 L 13.0656,13.0 L 13.0658,13.0 L 13.0659,13.0 L 13.066,13.0 L 13.0662,13.0 L 13.0663,13.0 L 13.0664,13.0 L 13.0666,13.0 L 13.0667,13.0 L 13.0668,13.0 L 13.067,13.0 L 13.0671,13.0 L 13.0672,13.0 L 13.0674,13.0 L 13.0675,13.0 L 13.0676,13.0 L 13.0677,13.0 L 13.0679,13.0 L 13.068,13.0 L 13.0681,13.0 L 13.0683,13.0 L 13.0684,13.0 L 13.0685,13.0 L 13.0687,13.0 L 13.0688,13.0 L 13.0689,13.0 L 13.0691,13.0 L 13.0692,13.0 L 13.0693,13.0 L 13.0695,13.0 L 13.0696,13.0 L 13.0697,13.0 L 13.0699,13.0 L 13.07,13.0 L 13.0701,13.0 L 13.0702,13.0 L 13.0704,13.0 L 13.0705,13.0 L 13.0706,13.0 L 13.0708,13.0 L 13.0709,13.0 L 13.071,13.0 L 13.0712,13.0 L 13.0713,13.0 L 13.0714,13.0 L 13.0716,13.0 L 13.0717,13.0 L 13.0718,13.0 L 13.072,13.0 L 13.0721,13.0 L 13.0722,13.0 L 13.0724,13.0 L 13.0725,13.0 L 13.0726,13.0 L 13.0728,13.0 L 13.0729,13.0 L 13.073,13.0 L 13.0731,13.0 L 13.0733,13.0 L 13.0734,13.0 L 13.0735,13.0 L 13.0737,13.0 L 13.0738,13.0 L 13.0739,13.0 L 13.0741,13.0 L 13.0742,13.0 L 13.0743,13.0 L 13.0745,13.0 L 13.0746,13.0 L 13.0747,13.0 L 13.0749,13.0 L 13.075,13.0" />
      <path d="M 13.0655,-13.0 L 13.0656,-13.0 L 13.0658,-13.0 L 13.0659,-13.0 L 13.066,-13.0 L 13.0662,-13.0 L 13.0663,-13.0 L 13.0664,-13.0 L 13.0666,-13.0 L 13.0667,-13.0 L 13.0668,-13.0 L 13.067,-13.0 L 13.0671,-13.0 L 13.0672,-13.0 L 13.0674,-13.0 L 13.0675,-13.0 L 13.0676,-13.0 L 13.0677,-13.0 L 13.0679,-13.0 L 13.068,-13.0 L 13.0681,-13.0 L 13.0683,-13.0 L 13.0684,-13.0 L 13.0685,-13.0 L 13.0687,-13.0 L 13.0688,-13.0 L 13.0689,-13.0 L 13.0691,-13.0 L 13.0692,-13.0 L 13.0693,-13.0 L 13.0695,-13.0 L 13.0696,-13.0 L 13.0697,-13.0 L 13.0699,-13.0 L 13.07,-13.0 L 13.0701,-13.0 L 13.0702,-13.0 L 13.0704,-13.0 L 13.0705,-13.0 L 13.0706,-13.0 L 13.0708,-13.0 L 13.0709,-13.0 L 13.071,-13.0 L 13.0712,-13.0 L 13.0713,-13.0 L 13.0714,-13.0 L 13.0716,-13.0 L 13.0717,-13.0 L 13.0718,-13.0 L 13.072,-13.0 L 13.0721,-13.0 L 13.0722,-13.0 L 13.0724,-13.0 L 13.0725,-13.0 L 13.0726,-13.0 L 13.0728,-13.0 L 13.0729,-13.0 L 13.073,-13.0 L 13.0731,-13.0 L 13.0733,-13.0 L 13.0734,-13.0 L 13.0735,-13.0 L 13.0737,-13.0 L 13.0738,-13.0 L 13.0739,-13.0 L 13.0741,-13.0 L 13.0742,-13.0 L 13.0743,-13.0 L 13.0745,-13.0 L 13.0746,-13.0 L 13.0747,-13.0 L 13.0749,-13.0 L 13.075,-13.0" />
      <path d="M -1.9345,-6.75 L -1.9344,-6.75 L -1.9343,-6.75 L -1.9342,-6.75 L -1.9341,-6.75 L -1.934,-6.75 L -1.9339,-6.75 L -1.9338,-6.75 L -1.9337,-6.75 L -1.9336,-6.75 L -1.9335,-6.75 L -1.9334,-6.75 L -1.9333,-6.75 L -1.9332,-6.75 L -1.9331,-6.75 L -1.933,-6.75 L -1.9329,-6.75 L -1.9328,-6.75 L -1.9327,-6.75 L -1.9326,-6.75 L -1.9325,-6.75 L -1.9324,-6.75 L -1.9323,-6.75 L -1.9322,-6.75 L -1.9321,-6.75 L -1.932,-6.75 L -1.9319,-6.75 L -1.9318,-6.75 L -1.9317,-6.75 L -1.9316,-6.75 L -1.9315,-6.75 L -1.9314,-6.75 L -1.9313,-6.75 L -1.9312,-6.75 L -1.9311,-6.75 L -1.931,-6.75 L -1.9309,-6.75 L -1.9308,-6.75 L -1.9307,-6.75 L -1.9306,-6.75 L -1.9305,-6.75 L -1.9304,-6.75 L -1.9303,-6.75 L -1.9302,-6.75 L -1.9301,-6.75 L -1.93,-6.75 L -1.9299,-6.75 L -1.9298,-6.75 L -1.9297,-6.75 L -1.9296,-6.75 L -1.9295,-6.75 L -1.9294,-6.75 L -1.9293,-6.75 L -1.9292,-6.75 L -1.9291,-6.75 L -1.929,-6.75 L -1.9289,-6.75 L -1.9288,-6.75 L -1.9287,-6.75 L -1.9286,-6.75 L -1.9285,-6.75 L -1.9284,-6.75 L -1.9283,-6.75 L -1.9282,-6.75 L -1.9281,-6.75 L -1.928,-6.75 L -1.9279,-6.75 L -1.9278,-6.75 L -1.9277,-6.75 L -1.9276,-6.75 L -1.9275,-6.75 L -1.9274,-6.75 L -1.9273,-6.75" />
      <path d="M -1.9345,6.75 L -1.9344,6.75 L -1.9343,6.75 L -1.9342,6.75 L -1.9341,6.75 L -1.934,6.75 L -1.9339,6.75 L -1.9338,6.75 L -1.9337,6.75 L -1.9336,6.75 L -1.9335,6.75 L -1.9334,6.75 L -1.9333,6.75 L -1.9332,6.75 L -1.9331,6.75 L -1.933,6.75 L -1.9329,6.75 L -1.9328,6.75 L -1.9327,6.75 L -1.9326,6.75 L -1.9325,6.75 L -1.9324,6.75 L -1.9323,6.75 L -1.9322,6.75 L -1.9321,6.75 L -1.932,6.75 L -1.9319,6.75 L -1.9318,6.75 L -1.9317,6.75 L -1.9316,6.75 L -1.9315,6.75 L -1.9314,6.75 L -1.9313,6.75 L -1.9312,6.75 L -1.9311,6.75 L -1.931,6.75 L -1.9309,6.75 L -1.9308,6.75 L -1.9307,6.75 L -1.9306,6.75 L -1.9305,6.75 L -1.9304,6.75 L -1.9303,6.75 L -1.9302,6.75 L -1.9301,6.75 L -1.93,6.75 L -1.9299,6.75 L -1.9298,6.75 L -1.9297,6.75 L -1.9296,6.75 L -1.9295,6.75 L -1.9294,6.75 L -1.9293,6.75 L -1.9292,6.75 L -1.9291,6.75 L -1.929,6.75 L -1.9289,6.75 L -1.9288,6.75 L -1.9287,6.75 L -1.9286,6.75 L -1.9285,6.75 L -1.9284,6.75 L -1.9283,6.75 L -1.9282,6.75 L -1.9281,6.75 L -1.928,6.75 L -1.9279,6.75 L -1.9278,6.75 L -1.9277,6.75 L -1.9276,6.75 L -1.9275,6.75 L -1.9274,6.75 L -1.9273,6.75" />
      <path d="M 22.0251,13.0441 L 21.957,13.0441 L 21.889,13.0441 L 21.8209,13.0441 L 21.7529,13.0441 L 21.6848,13.0441 L 21.6168,13.0441 L 21.5487,13.0441 L 21.4806,13.0441 L 21.4126,13.0441 L 21.3445,13.0441 L 21.2765,13.0441 L 21.2084,13.0441 L 21.1404,13.0441 L 21.0723,13.0441 L 21.0043,13.0441 L 20.9362,13.0441 L 20.8681,13.0441 L 20.8001,13.0441 L 20.732,13.0441 L 20.664,13.0441 L 20.5959,13.0441 L 20.5279,13.0441 L 20.4598,13.0441 L 20.3918,13.0441 L 20.3237,13.0441 L 20.2556,13.0441 L 20.1876,13.0441 L 20.1195,13.0441 L 20.0515,13.0441 L 19.9834,13.0441 L 19.9154,13.0441 L 19.8473,13.0441 L 19.7793,13.0441 L 19.7112,13.0441 L 19.6431,13.0441 L 19.5751,13.0441 L 19.507,13.0441 L 19.439,13.0441 L 19.3709,13.0441 L 19.3029,13.0441 L 19.2348,13.0441 L 19.1668,13.0441 L 19.0987,13.0441 L 19.0306,13.0441 L 18.9626,13.0441 L 18.8945,13.0441 L 18.8265,13.0441 L 18.7584,13.0441 L 18.6904,13.0441 L 18.6223,13.0441 L 18.5543,13.0441 L 18.4862,13.0441 L 18.4181,13.0441 L 18.3501,13.0441 L 18.282,13.0441 L 18.214,13.0441 L 18.1459,13.0441 L 18.0779,13.0441 L 18.0098,13.0441 L 17.9418,13.0441 L 17.8737,13.0441 L 17.8057,13.0441 L 17.7376,13.0441 L 17.6695,13.0441 L 17.6015,13.0441 L 17.5334,13.0441 L 17.4654,13.0441 L 17.3973,13.0441 L 17.3293,13.0441 L 17.2612,13.0441 L 17.1932,13.0441 L 17.1251,13.0441" />
      <path d="M 17.1251,13.0441 L 17.1584,12.6275 L 17.1918,12.2108 L 17.2251,11.7941 L 17.2584,11.3775 L 17.2918,10.9608 L 17.3251,10.5441 L 17.3584,10.1275 L 17.3918,9.7108 L 17.4251,9.2941 L 17.4584,8.8775 L 17.4918,8.4608 L 17.5251,8.0441 L 17.5584,7.6275 L 17.5918,7.2108 L 17.6251,6.7941 L 17.6584,6.3775 L 17.6918,5.9608 L 17.7251,5.5441 L 17.7584,5.1275 L 17.7918,4.7108 L 17.8251,4.2941 L 17.8584,3.8775 L 17.8918,3.4608 L 17.9251,3.0441 L 17.9584,2.6275 L 17.9918,2.2108 L 18.0251,1.7942 L 18.0584,1.3775 L 18.0918,0.9608 L 18.1251,0.5442 L 18.1584,0.1275 L 18.1918,-0.2892 L 18.2251,-0.7058 L 18.2584,-1.1225 L 18.2918,-1.5392 L 18.3251,-1.9558 L 18.3584,-2.3725 L 18.3918,-2.7892 L 18.4251,-3.2058 L 18.4584,-3.6225 L 18.4918,-4.0392 L 18.5251,-4.4558 L 18.5584,-4.8725 L 18.5918,-5.2892 L 18.6251,-5.7058 L 18.6584,-6.1225 L 18.6918,-6.5392 L 18.7251,-6.9558 L 18.7584,-7.3725 L 18.7918,-7.7892 L 18.8251,-8.2058 L 18.8584,-8.6225 L 18.8918,-9.0392 L 18.9251,-9.4558 L 18.9584,-9.8725 L 18.9918,-10.2892 L 19.0251,-10.7058 L 19.0584,-11.1225 L 19.0918,-11.5392 L 19.1251,-11.9558 L 19.1584,-12.3725 L 19.1918,-12.7892 L 19.2251,-13.2058 L 19.2584,-13.6225 L 19.2918,-14.0391 L 19.3251,-14.4558 L 19.3584,-14.8725 L 19.3918,-15.2891 L 19.4251,-15.7058 L 19.4584,-16.1225 L 19.4918,-16.5391 L 19.5251,-16.9558" />
      <path d="M 17.1251,13.0441 L 17.1244,13.0448 L 17.1237,13.0455 L 17.123,13.0462 L 17.1223,13.0469 L 17.1216,13.0476 L 17.1209,13.0483 L 17.1202,13.049 L 17.1195,13.0497 L 17.1188,13.0504 L 17.1181,13.0511 L 17.1174,13.0518 L 17.1167,13.0525 L 17.116,13.0532 L 17.1154,13.0539 L 17.1147,13.0546 L 17.114,13.0553 L 17.1133,13.056 L 17.1126,13.0567 L 17.1119,13.0574 L 17.1112,13.0581 L 17.1105,13.0588 L 17.1098,13.0595 L 17.1091,13.0602 L 17.1084,13.0609 L 17.1077,13.0616 L 17.107,13.0623 L 17.1063,13.063 L 17.1056,13.0636 L 17.1049,13.0643 L 17.1042,13.065 L 17.1035,13.0657 L 17.1028,13.0664 L 17.1021,13.0671 L 17.1014,13.0678 L 17.1007,13.0685 L 17.1,13.0692 L 17.0993,13.0699 L 17.0987,13.0706 L 17.098,13.0713 L 17.0973,13.072 L 17.0966,13.0727 L 17.0959,13.0734 L 17.0952,13.0741 L 17.0945,13.0748 L 17.0938,13.0755 L 17.0931,13.0762 L 17.0924,13.0769 L 17.0917,13.0776 L 17.091,13.0783 L 17.0903,13.079 L 17.0896,13.0797 L 17.0889,13.0804 L 17.0882,13.0811 L 17.0875,13.0818 L 17.0868,13.0825 L 17.0861,13.0832 L 17.0854,13.0839 L 17.0847,13.0846 L 17.084,13.0853 L 17.0833,13.086 L 17.0826,13.0867 L 17.0819,13.0874 L 17.0813,13.0881 L 17.0806,13.0887 L 17.0799,13.0894 L 17.0792,13.0901 L 17.0785,13.0908 L 17.0778,13.0915 L 17.0771,13.0922 L 17.0764,13.0929 L 17.0757,13.0936 L 17.075,13.0943" />
      <path d="M 17.76,4.8192 L 17.7778,4.632 L 17.7937,4.4446 L 17.8096,4.2571 L 17.8254,4.0697 L 17.8409,3.8822 L 17.8565,3.6948 L 17.872,3.5073 L 17.8875,3.3199 L 17.9028,3.1324 L 17.9181,2.9449 L 17.9335,2.7574 L 17.9488,2.57 L 17.9641,2.3825 L 17.9794,2.195 L 17.9946,2.0075 L 18.0098,1.82 L 18.025,1.6326 L 18.0402,1.4451 L 18.0555,1.2576 L 18.0707,1.0701 L 18.0858,0.8826 L 18.1009,0.6951 L 18.116,0.5076 L 18.1312,0.3201 L 18.1463,0.1327 L 18.1614,-0.0548 L 18.1765,-0.2423 L 18.1916,-0.4298 L 18.2067,-0.6173 L 18.2217,-0.8048 L 18.2367,-0.9923 L 18.2518,-1.1798 L 18.2668,-1.3673 L 18.2819,-1.5548 L 18.2969,-1.7423 L 18.3119,-1.9298 L 18.3269,-2.1173 L 18.3419,-2.3048 L 18.3568,-2.4923 L 18.3718,-2.6798 L 18.3867,-2.8673 L 18.4017,-3.0548 L 18.4167,-3.2423 L 18.4316,-3.4298 L 18.4465,-3.6173 L 18.4614,-3.8048 L 18.4763,-3.9924 L 18.4912,-4.1799 L 18.5061,-4.3674 L 18.521,-4.5549 L 18.5358,-4.7424 L 18.5507,-4.9299 L 18.5655,-5.1174 L 18.5803,-5.3049 L 18.5951,-5.4925 L 18.6099,-5.68 L 18.6247,-5.8675 L 18.6394,-6.055 L 18.6542,-6.2425 L 18.6688,-6.4301 L 18.6835,-6.6176 L 18.6982,-6.8051 L 18.7129,-6.9926 L 18.7275,-7.1802 L 18.742,-7.3677 L 18.7565,-7.5552 L 18.771,-7.7428 L 18.7855,-7.9303 L 18.7997,-8.1179 L 18.8137,-8.3055 L 18.8278,-8.493 L 18.8401,-8.6807" />
      <path d="M 18.8401,-8.6807 L 18.8223,-8.4935 L 18.8064,-8.3061 L 18.7904,-8.1186 L 18.7747,-7.9312 L 18.7591,-7.7437 L 18.7436,-7.5563 L 18.7281,-7.3688 L 18.7126,-7.1814 L 18.6973,-6.9939 L 18.6819,-6.8064 L 18.6666,-6.6189 L 18.6513,-6.4315 L 18.6359,-6.244 L 18.6207,-6.0565 L 18.6055,-5.869 L 18.5903,-5.6815 L 18.575,-5.4941 L 18.5598,-5.3066 L 18.5446,-5.1191 L 18.5294,-4.9316 L 18.5143,-4.7441 L 18.4992,-4.5566 L 18.484,-4.3691 L 18.4689,-4.1816 L 18.4538,-3.9941 L 18.4387,-3.8067 L 18.4236,-3.6192 L 18.4085,-3.4317 L 18.3934,-3.2442 L 18.3784,-3.0567 L 18.3633,-2.8692 L 18.3483,-2.6817 L 18.3333,-2.4942 L 18.3182,-2.3067 L 18.3032,-2.1192 L 18.2882,-1.9317 L 18.2732,-1.7442 L 18.2582,-1.5567 L 18.2433,-1.3692 L 18.2283,-1.1817 L 18.2133,-0.9942 L 18.1984,-0.8067 L 18.1834,-0.6192 L 18.1684,-0.4317 L 18.1536,-0.2442 L 18.1387,-0.0566 L 18.1238,0.1309 L 18.1089,0.3184 L 18.094,0.5059 L 18.0791,0.6934 L 18.0642,0.8809 L 18.0494,1.0684 L 18.0346,1.2559 L 18.0198,1.4435 L 18.005,1.631 L 17.9902,1.8185 L 17.9754,2.006 L 17.9606,2.1935 L 17.9459,2.381 L 17.9312,2.5686 L 17.9166,2.7561 L 17.9019,2.9436 L 17.8872,3.1312 L 17.8726,3.3187 L 17.8581,3.5062 L 17.8436,3.6938 L 17.8291,3.8813 L 17.8146,4.0688 L 17.8004,4.2564 L 17.7863,4.444 L 17.7723,4.6316 L 17.76,4.8193" />
      <line x1="17.76" y1="4.8193" x2="17.76" y2="4.8192" />
      <path d="M 22.0,4.8193 L 21.9411,4.8193 L 21.8822,4.8193 L 21.8233,4.8193 L 21.7645,4.8193 L 21.7056,4.8193 L 21.6467,4.8193 L 21.5878,4.8193 L 21.5289,4.8193 L 21.47,4.8193 L 21.4111,4.8193 L 21.3522,4.8193 L 21.2933,4.8193 L 21.2345,4.8193 L 21.1756,4.8193 L 21.1167,4.8193 L 21.0578,4.8193 L 20.9989,4.8193 L 20.94,4.8193 L 20.8811,4.8193 L 20.8222,4.8193 L 20.7633,4.8193 L 20.7045,4.8193 L 20.6456,4.8193 L 20.5867,4.8193 L 20.5278,4.8193 L 20.4689,4.8193 L 20.41,4.8193 L 20.3511,4.8193 L 20.2922,4.8193 L 20.2333,4.8193 L 20.1745,4.8193 L 20.1156,4.8193 L 20.0567,4.8193 L 19.9978,4.8193 L 19.9389,4.8193 L 19.88,4.8193 L 19.8211,4.8193 L 19.7622,4.8193 L 19.7033,4.8193 L 19.6445,4.8193 L 19.5856,4.8193 L 19.5267,4.8193 L 19.4678,4.8193 L 19.4089,4.8193 L 19.35,4.8193 L 19.2911,4.8193 L 19.2322,4.8193 L 19.1733,4.8193 L 19.1145,4.8193 L 19.0556,4.8193 L 18.9967,4.8193 L 18.9378,4.8193 L 18.8789,4.8193 L 18.82,4.8193 L 18.7611,4.8193 L 18.7022,4.8193 L 18.6433,4.8193 L 18.5845,4.8193 L 18.5256,4.8193 L 18.4667,4.8193 L 18.4078,4.8193 L 18.3489,4.8193 L 18.29,4.8193 L 18.2311,4.8193 L 18.1722,4.8193 L 18.1133,4.8193 L 18.0545,4.8193 L 17.9956,4.8193 L 17.9367,4.8193 L 17.8778,4.8193 L 17.8189,4.8193 L 17.76,4.8193" />
      <path d="M 22.0001,-8.6807 L 21.9562,-8.6807 L 21.9123,-8.6807 L 21.8684,-8.6807 L 21.8245,-8.6807 L 21.7806,-8.6807 L 21.7367,-8.6807 L 21.6928,-8.6807 L 21.6489,-8.6807 L 21.6051,-8.6807 L 21.5612,-8.6807 L 21.5173,-8.6807 L 21.4734,-8.6807 L 21.4295,-8.6807 L 21.3856,-8.6807 L 21.3417,-8.6807 L 21.2978,-8.6807 L 21.2539,-8.6807 L 21.2101,-8.6807 L 21.1662,-8.6807 L 21.1223,-8.6807 L 21.0784,-8.6807 L 21.0345,-8.6807 L 20.9906,-8.6807 L 20.9467,-8.6807 L 20.9028,-8.6807 L 20.8589,-8.6807 L 20.8151,-8.6807 L 20.7712,-8.6807 L 20.7273,-8.6807 L 20.6834,-8.6807 L 20.6395,-8.6807 L 20.5956,-8.6807 L 20.5517,-8.6807 L 20.5078,-8.6807 L 20.4639,-8.6807 L 20.4201,-8.6807 L 20.3762,-8.6807 L 20.3323,-8.6807 L 20.2884,-8.6807 L 20.2445,-8.6807 L 20.2006,-8.6807 L 20.1567,-8.6807 L 20.1128,-8.6807 L 20.069,-8.6807 L 20.0251,-8.6807 L 19.9812,-8.6807 L 19.9373,-8.6807 L 19.8934,-8.6807 L 19.8495,-8.6807 L 19.8056,-8.6807 L 19.7617,-8.6807 L 19.7178,-8.6807 L 19.674,-8.6807 L 19.6301,-8.6807 L 19.5862,-8.6807 L 19.5423,-8.6807 L 19.4984,-8.6807 L 19.4545,-8.6807 L 19.4106,-8.6807 L 19.3667,-8.6807 L 19.3228,-8.6807 L 19.279,-8.6807 L 19.2351,-8.6807 L 19.1912,-8.6807 L 19.1473,-8.6807 L 19.1034,-8.6807 L 19.0595,-8.6807 L 19.0156,-8.6807 L 18.9717,-8.6807 L 18.9278,-8.6807 L 18.884,-8.6807 L 18.8401,-8.6807" />
    </g>
  </g>
</svg>