<?xml version='1.0' encoding='utf-8'?>
<svg width="48.4mm" height="24.4mm" viewBox="-12.2 -12.2 48.4 24.4" version="1.1" xmlns="http://www.w3.org/2000/svg">
  <g transform="scale(1,-1)" stroke-linecap="round">
    <g fill="none" stroke="rgb(0,0,0)" stroke-width="0.4" id="Visible">
      <circle cx="0.0" cy="-0.0" r="10.0" />
      <circle cx="0.0" cy="-0.0" r="6.5" />
      <path d="M 14.0,1.25 L 14.2507,1.25 L 14.9903,1.25 L 16.1817,1.25 L 17.7651,1.25 L 19.6612,1.25 L 21.7748,1.25 L 24.0,1.25 L 26.2252,1.25 L 28.3388,1.25 L 30.2349,1.25 L 31.8183,1.25 L 33.0097,1.25 L 33.7493,1.25 L 34.0,1.25" />
      <line x1="34.0" y1="-1.25" x2="34.0" y2="1.25" />
      <path d="M 14.0,-1.25 L 14.2507,-1.25 L 14.9903,-1.25 L 16.1817,-1.25 L 17.7651,-1.25 L 19.6612,-1.25 L 21.7748,-1.25 L 24.0,-1.25 L 26.2252,-1.25 L 28.3388,-1.25 L 30.2349,-1.25 L 31.8183,-1.25 L 33.0097,-1.25 L 33.7493,-1.25 L 34.0,-1.25" />
      <line x1="14.0" y1="-1.25" x2="14.0" y2="1.25" />
    </g>
    <g fill="none" stroke="rgb(110,110,110)" stroke-width="0.3" id="Hidden" stroke-dasharray="3.6 0.9">
      <circle cx="0.0" cy="-0.0" r="10.0" />
      <circle cx="0.0" cy="-0.0" r="6.5" />
      <path d="M 34.0,1.25 L 33.7493,1.25 L 33.0097,1.25 L 31.8183,1.25 L 30.2349,1.25 L 28.3388,1.25 L 26.2252,1.25 L 24.0,1.25 L 21.7748,1.25 L 19.6612,1.25 L 17.7651,1.25 L 16.1817,1.25 L 14.9903,1.25 L 14.2507,1.25 L 14.0,1.25" />
      <path d="M 34.0,-1.25 L 33.7493,-1.25 L 33.0097,-1.25 L 31.8183,-1.25 L 30.2349,-1.25 L 28.3388,-1.25 L 26.2252,-1.25 L 24.0,-1.25 L 21.7748,-1.25 L 19.6612,-1.25 L 17.7651,-1.25 L 16.1817,-1.25 L 14.9903,-1.25 L 14.2507,-1.25 L 14.0,-1.25" />
      <path d="M 30.5,1.25 L 30.337,1.25 L 29.8563,1.25 L 29.0819,1.25 L 28.0527,1.25 L 26.8202,1.25 L 25.4464,1.25 L 24.0,1.25 L 22.5536,1.25 L 21.1798,1.25 L 19.9473,1.25 L 18.9181,1.25 L 18.1437,1.25 L 17.663,1.25 L 17.5,1.25" />
      <path d="M 17.5,1.25 L 17.663,1.25 L 18.1437,1.25 L 18.9181,1.25 L 19.9473,1.25 L 21.1798,1.25 L 22.5536,1.25 L 24.0,1.25 L 25.4464,1.25 L 26.8202,1.25 L 28.0527,1.25 L 29.0819,1.25 L 29.8563,1.25 L 30.337,1.25 L 30.5,1.25" />
      <path d="M 30.5,-1.25 L 30.337,-1.25 L 29.8563,-1.25 L 29.0819,-1.25 L 28.0527,-1.25 L 26.8202,-1.25 L 25.4464,-1.25 L 24.0,-1.25 L 22.5536,-1.25 L 21.1798,-1.25 L 19.9473,-1.25 L 18.9181,-1.25 L 18.1437,-1.25 L 17.663,-1.25 L 17.5,-1.25" />
      <path d="M 17.5,-1.25 L 17.663,-1.25 L 18.1437,-1.25 L 18.9181,-1.25 L 19.9473,-1.25 L 21.1798,-1.25 L 22.5536,-1.25 L 24.0,-1.25 L 25.4464,-1.25 L 26.8202,-1.25 L 28.0527,-1.25 L 29.0819,-1.25 L 29.8563,-1.25 L 30.337,-1.25 L 30.5,-1.25" />
      <line x1="30.5" y1="-1.25" x2="30.5" y2="1.25" />
      <line x1="17.5" y1="-1.25" x2="17.5" y2="1.25" />
    </g>
  </g>
</svg>