<?xml version='1.0' encoding='utf-8'?>
<svg width="46.6144mm" height="39.2085mm" viewBox="-17.6 -18.4527 46.6144 39.2085" version="1.1" xmlns="http://www.w3.org/2000/svg">
  <g transform="scale(1,-1)" stroke-linecap="round">
    <g fill="none" stroke="rgb(0,0,0)" stroke-width="0.4" id="Visible">
      <path d="M 13.0,-16.1558 L 12.6389,-16.1558 L 12.2778,-16.1558 L 11.9167,-16.1558 L 11.5556,-16.1558 L 11.1944,-16.1558 L 10.8333,-16.1558 L 10.4722,-16.1558 L 10.1111,-16.1558 L 9.75,-16.1558 L 9.3889,-16.1558 L 9.0278,-16.1558 L 8.6667,-16.1558 L 8.3056,-16.1558 L 7.9444,-16.1558 L 7.5833,-16.1558 L 7.2222,-16.1558 L 6.8611,-16.1558 L 6.5,-16.1558 L 6.1389,-16.1558 L 5.7778,-16.1558 L 5.4167,-16.1558 L 5.0556,-16.1558 L 4.6944,-16.1558 L 4.3333,-16.1558 L 3.9722,-16.1558 L 3.6111,-16.1558 L 3.25,-16.1558 L 2.8889,-16.1558 L 2.5278,-16.1558 L 2.1667,-16.1558 L 1.8056,-16.1558 L 1.4444,-16.1558 L 1.0833,-16.1558 L 0.7222,-16.1558 L 0.3611,-16.1558 L 0.0,-16.1558 L -0.3611,-16.1558 L -0.7222,-16.1558 L -1.0833,-16.1558 L -1.4444,-16.1558 L -1.8056,-16.1558 L -2.1667,-16.1558 L -2.5278,-16.1558 L -2.8889,-16.1558 L -3.25,-16.1558 L -3.6111,-16.1558 L -3.9722,-16.1558 L -4.3333,-16.1558 L -4.6944,-16.1558 L -5.0556,-16.1558 L -5.4167,-16.1558 L -5.7778,-16.1558 L -6.1389,-16.1558 L -6.5,-16.1558 L -6.8611,-16.1558 L -7.2222,-16.1558 L -7.5833,-16.1558 L -7.9444,-16.1558 L -8.3056,-16.1558 L -8.6667,-16.1558 L -9.0278,-16.1558 L -9.3889,-16.1558 L -9.75,-16.1558 L -10.1111,-16.1558 L -10.4722,-16.1558 L -10.8333,-16.1558 L -11.1944,-16.1558 L -11.5556,-16.1558 L -11.9167,-16.1558 L -12.2778,-16.1558 L -12.6389,-16.1558 L -13.0,-16.1558" />
      <path d="M 0.0,5.5942 L -0.1472,5.5926 L -0.2943,5.5877 L -0.4413,5.5797 L -0.5881,5.5685 L -0.7346,5.5541 L -0.8808,5.5365 L -1.0265,5.5157 L -1.1717,5.4917 L -1.3164,5.4645 L -1.4605,5.4343 L -1.6038,5.4008 L -1.7465,5.3643 L -1.8882,5.3247 L -2.0291,5.282 L -2.169,5.2362 L -2.3079,5.1874 L -2.4457,5.1355 L -2.5823,5.0807 L -2.7177,5.0229 L -2.8518,4.9622 L -2.9845,4.8985 L -3.1158,4.832 L -3.2457,4.7626 L -3.374,4.6904 L -3.5007,4.6155 L -3.6257,4.5377 L -3.749,4.4573 L -3.8705,4.3742 L -3.9902,4.2885 L -4.108,4.2002 L -4.2238,4.1093 L -4.3376,4.016 L -4.4494,3.9202 L -4.559,3.8219 L -4.6665,3.7213 L -4.7717,3.6184 L -4.8747,3.5132 L -4.9753,3.4058 L -5.0736,3.2962 L -5.1695,3.1845 L -5.2629,3.0707 L -5.3539,2.955 L -5.4422,2.8372 L -5.528,2.7176 L -5.6112,2.5961 L -5.6917,2.4729 L -5.7694,2.3479 L -5.8445,2.2212 L -5.9167,2.093 L -5.9862,1.9632 L -6.0528,1.8319 L -6.1165,1.6992 L -6.1773,1.5651 L -6.2352,1.4297 L -6.2901,1.2932 L -6.342,1.1554 L -6.3909,1.0166 L -6.4367,0.8767 L -6.4795,0.7358 L -6.5192,0.5941 L -6.5558,0.4515 L -6.5893,0.3081 L -6.6197,0.1641 L -6.6469,0.0194 L -6.6709,-0.1258 L -6.6918,-0.2715 L -6.7095,-0.4177 L -6.724,-0.5642 L -6.7353,-0.711 L -6.7434,-0.8579 L -6.7483,-1.0051 L -6.75,-1.1523" />
      <path d="M 6.75,-1.1523 L 6.7483,-1.0051 L 6.7434,-0.8579 L 6.7353,-0.711 L 6.724,-0.5642 L 6.7095,-0.4177 L 6.6918,-0.2715 L 6.6709,-0.1258 L 6.6469,0.0194 L 6.6197,0.1641 L 6.5893,0.3081 L 6.5558,0.4515 L 6.5192,0.5941 L 6.4795,0.7358 L 6.4367,0.8767 L 6.3909,1.0166 L 6.342,1.1554 L 6.2901,1.2932 L 6.2352,1.4297 L 6.1773,1.5651 L 6.1165,1.6992 L 6.0528,1.8319 L 5.9862,1.9632 L 5.9167,2.093 L 5.8445,2.2212 L 5.7694,2.3479 L 5.6917,2.4729 L 5.6112,2.5961 L 5.528,2.7176 L 5.4422,2.8372 L 5.3539,2.955 L 5.2629,3.0707 L 5.1695,3.1845 L 5.0736,3.2962 L 4.9753,3.4058 L 4.8747,3.5132 L 4.7717,3.6184 L 4.6665,3.7213 L 4.559,3.8219 L 4.4494,3.9202 L 4.3376,4.016 L 4.2238,4.1093 L 4.108,4.2002 L 3.9902,4.2885 L 3.8705,4.3742 L 3.749,4.4573 L 3.6257,4.5377 L 3.5007,4.6155 L 3.374,4.6904 L 3.2457,4.7626 L 3.1158,4.832 L 2.9845,4.8985 L 2.8518,4.9622 L 2.7177,5.0229 L 2.5823,5.0807 L 2.4457,5.1355 L 2.3079,5.1874 L 2.169,5.2362 L 2.0291,5.282 L 1.8882,5.3247 L 1.7465,5.3643 L 1.6038,5.4008 L 1.4605,5.4343 L 1.3164,5.4645 L 1.1717,5.4917 L 1.0265,5.5157 L 0.8808,5.5365 L 0.7346,5.5541 L 0.5881,5.5685 L 0.4413,5.5797 L 0.2943,5.5877 L 0.1472,5.5926 L -0.0,5.5942" />
      <path d="M -13.0,13.8527 L -13.0,13.436 L -13.0,13.0193 L -13.0,12.6026 L -13.0,12.1859 L -13.0,11.7692 L -13.0,11.3524 L -13.0,10.9357 L -13.0,10.519 L -13.0,10.1023 L -13.0,9.6856 L -13.0,9.2689 L -13.0,8.8522 L -13.0,8.4355 L -13.0,8.0188 L -13.0,7.6021 L -13.0,7.1854 L -13.0,6.7687 L -13.0,6.352 L -13.0,5.9353 L -13.0,5.5186 L -13.0,5.1019 L -13.0,4.6852 L -13.0,4.2685 L -13.0,3.8518 L -13.0,3.4351 L -13.0,3.0184 L -13.0,2.6016 L -13.0,2.1849 L -13.0,1.7682 L -13.0,1.3515 L -13.0,0.9348 L -13.0,0.5181 L -13.0,0.1014 L -13.0,-0.3153 L -13.0,-0.732 L -13.0,-1.1487 L -13.0,-1.5654 L -13.0,-1.9821 L -13.0,-2.3988 L -13.0,-2.8155 L -13.0,-3.2322 L -13.0,-3.6489 L -13.0,-4.0656 L -13.0,-4.4823 L -13.0,-4.899 L -13.0,-5.3157 L -13.0,-5.7324 L -13.0,-6.1492 L -13.0,-6.5659 L -13.0,-6.9826 L -13.0,-7.3993 L -13.0,-7.816 L -13.0,-8.2327 L -13.0,-8.6494 L -13.0,-9.0661 L -13.0,-9.4828 L -13.0,-9.8995 L -13.0,-10.3162 L -13.0,-10.7329 L -13.0,-11.1496 L -13.0,-11.5663 L -13.0,-11.983 L -13.0,-12.3997 L -13.0,-12.8164 L -13.0,-13.2331 L -13.0,-13.6498 L -13.0,-14.0665 L -13.0,-14.4832 L -13.0,-14.9 L -13.0,-15.3167 L -13.0,-15.7334 L -13.0,-16.1501" />
      <path d="M -13.0,-16.1501 L -13.0,-16.1502 L -13.0,-16.1503 L -13.0,-16.1504 L -13.0,-16.1505 L -13.0,-16.1506 L -13.0,-16.1507 L -13.0,-16.1508 L -13.0,-16.1509 L -13.0,-16.151 L -13.0,-16.1511 L -13.0,-16.1512 L -13.0,-16.1513 L -13.0,-16.1514 L -13.0,-16.1515 L -13.0,-16.1516 L -13.0,-16.1517 L -13.0,-16.1518 L -13.0,-16.1519 L -13.0,-16.152 L -13.0,-16.1521 L -13.0,-16.1522 L -13.0,-16.1523 L -13.0,-16.1524 L -13.0,-16.1525 L -13.0,-16.1526 L -13.0,-16.1527 L -13.0,-16.1528 L -13.0,-16.1529 L -13.0,-16.153 L -13.0,-16.1531 L -13.0,-16.1532 L -13.0,-16.1533 L -13.0,-16.1534 L -13.0,-16.1535 L -13.0,-16.1536 L -13.0,-16.1537 L -13.0,-16.1538 L -13.0,-16.1539 L -13.0,-16.154 L -13.0,-16.1541 L -13.0,-16.1542 L -13.0,-16.1543 L -13.0,-16.1544 L -13.0,-16.1545 L -13.0,-16.1546 L -13.0,-16.1547 L -13.0,-16.1548 L -13.0,-16.1549 L -13.0,-16.155 L -13.0,-16.1551 L -13.0,-16.1552 L -13.0,-16.1553 L -13.0,-16.1554 L -13.0,-16.1555 L -13.0,-16.1556 L -13.0,-16.1557 L -13.0,-16.1558" />
      <path d="M 13.0,-16.1501 L 13.0,-16.1502 L 13.0,-16.1503 L 13.0,-16.1504 L 13.0,-16.1505 L 13.0,-16.1506 L 13.0,-16.1507 L 13.0,-16.1508 L 13.0,-16.1509 L 13.0,-16.151 L 13.0,-16.1511 L 13.0,-16.1512 L 13.0,-16.1513 L 13.0,-16.1514 L 13.0,-16.1515 L 13.0,-16.1516 L 13.0,-16.1517 L 13.0,-16.1518 L 13.0,-16.1519 L 13.0,-16.152 L 13.0,-16.1521 L 13.0,-16.1522 L 13.0,-16.1523 L 13.0,-16.1524 L 13.0,-16.1525 L 13.0,-16.1526 L 13.0,-16.1527 L 13.0,-16.1528 L 13.0,-16.1529 L 13.0,-16.153 L 13.0,-16.1531 L 13.0,-16.1532 L 13.0,-16.1533 L 13.0,-16.1534 L 13.0,-16.1535 L 13.0,-16.1536 L 13.0,-16.1537 L 13.0,-16.1538 L 13.0,-16.1539 L 13.0,-16.154 L 13.0,-16.1541 L 13.0,-16.1542 L 13.0,-16.1543 L 13.0,-16.1544 L 13.0,-16.1545 L 13.0,-16.1546 L 13.0,-16.1547 L 13.0,-16.1548 L 13.0,-16.1549 L 13.0,-16.155 L 13.0,-16.1551 L 13.0,-16.1552 L 13.0,-16.1553 L 13.0,-16.1554 L 13.0,-16.1555 L 13.0,-16.1556 L 13.0,-16.1557 L 13.0,-16.1558" />
      <path d="M 13.0,-16.1501 L 12.6389,-16.1501 L 12.2778,-16.1501 L 11.9167,-16.1501 L 11.5556,-16.1501 L 11.1944,-16.1501 L 10.8333,-16.1501 L 10.4722,-16.1501 L 10.1111,-16.1501 L 9.75,-16.1501 L 9.3889,-16.1501 L 9.0278,-16.1501 L 8.6667,-16.1501 L 8.3056,-16.1501 L 7.9444,-16.1501 L 7.5833,-16.1501 L 7.2222,-16.1501 L 6.8611,-16.1501 L 6.5,-16.1501 L 6.1389,-16.1501 L 5.7778,-16.1501 L 5.4167,-16.1501 L 5.0556,-16.1501 L 4.6944,-16.1501 L 4.3333,-16.1501 L 3.9722,-16.1501 L 3.6111,-16.1501 L 3.25,-16.1501 L 2.8889,-16.1501 L 2.5278,-16.1501 L 2.1667,-16.1501 L 1.8056,-16.1501 L 1.4444,-16.1501 L 1.0833,-16.1501 L 0.7222,-16.1501 L 0.3611,-16.1501 L 0.0,-16.1501 L -0.3611,-16.1501 L -0.7222,-16.1501 L -1.0833,-16.1501 L -1.4444,-16.1501 L -1.8056,-16.1501 L -2.1667,-16.1501 L -2.5278,-16.1501 L -2.8889,-16.1501 L -3.25,-16.1501 L -3.6111,-16.1501 L -3.9722,-16.1501 L -4.3333,-16.1501 L -4.6944,-16.1501 L -5.0556,-16.1501 L -5.4167,-16.1501 L -5.7778,-16.1501 L -6.1389,-16.1501 L -6.5,-16.1501 L -6.8611,-16.1501 L -7.2222,-16.1501 L -7.5833,-16.1501 L -7.9444,-16.1501 L -8.3056,-16.1501 L -8.6667,-16.1501 L -9.0278,-16.1501 L -9.3889,-16.1501 L -9.75,-16.1501 L -10.1111,-16.1501 L -10.4722,-16.1501 L -10.8333,-16.1501 L -11.1944,-16.1501 L -11.5556,-16.1501 L -11.9167,-16.1501 L -12.2778,-16.1501 L -12.6389,-16.1501 L -13.0,-16.1501" />
      <path d="M -13.0,13.8527 L -12.6389,13.8527 L -12.2778,13.8527 L -11.9167,13.8527 L -11.5556,13.8527 L -11.1944,13.8527 L -10.8333,13.8527 L -10.4722,13.8527 L -10.1111,13.8527 L -9.75,13.8527 L -9.3889,13.8527 L -9.0278,13.8527 L -8.6667,13.8527 L -8.3056,13.8527 L -7.9444,13.8527 L -7.5833,13.8527 L -7.2222,13.8527 L -6.8611,13.8527 L -6.5,13.8527 L -6.1389,13.8527 L -5.7778,13.8527 L -5.4167,13.8527 L -5.0556,13.8527 L -4.6944,13.8527 L -4.3333,13.8527 L -3.9722,13.8527 L -3.6111,13.8527 L -3.25,13.8527 L -2.8889,13.8527 L -2.5278,13.8527 L -2.1667,13.8527 L -1.8056,13.8527 L -1.4444,13.8527 L -1.0833,13.8527 L -0.7222,13.8527 L -0.3611,13.8527 L 0.0,13.8527 L 0.3611,13.8527 L 0.7222,13.8527 L 1.0833,13.8527 L 1.4444,13.8527 L 1.8056,13.8527 L 2.1667,13.8527 L 2.5278,13.8527 L 2.8889,13.8527 L 3.25,13.8527 L 3.6111,13.8527 L 3.9722,13.8527 L 4.3333,13.8527 L 4.6944,13.8527 L 5.0556,13.8527 L 5.4167,13.8527 L 5.7778,13.8527 L 6.1389,13.8527 L 6.5,13.8527 L 6.8611,13.8527 L 7.2222,13.8527 L 7.5833,13.8527 L 7.9444,13.8527 L 8.3056,13.8527 L 8.6667,13.8527 L 9.0278,13.8527 L 9.3889,13.8527 L 9.75,13.8527 L 10.1111,13.8527 L 10.4722,13.8527 L 10.8333,13.8527 L 11.1944,13.8527 L 11.5556,13.8527 L 11.9167,13.8527 L 12.2778,13.8527 L 12.6389,13.8527 L 13.0,13.8527" />
      <path d="M 13.0,13.8527 L 13.0,13.436 L 13.0,13.0193 L 13.0,12.6026 L 13.0,12.1859 L 13.0,11.7692 L 13.0,11.3524 L 13.0,10.9357 L 13.0,10.519 L 13.0,10.1023 L 13.0,9.6856 L 13.0,9.2689 L 13.0,8.8522 L 13.0,8.4355 L 13.0,8.0188 L 13.0,7.6021 L 13.0,7.1854 L 13.0,6.7687 L 13.0,6.352 L 13.0,5.9353 L 13.0,5.5186 L 13.0,5.1019 L 13.0,4.6852 L 13.0,4.2685 L 13.0,3.8518 L 13.0,3.4351 L 13.0,3.0184 L 13.0,2.6016 L 13.0,2.1849 L 13.0,1.7682 L 13.0,1.3515 L 13.0,0.9348 L 13.0,0.5181 L 13.0,0.1014 L 13.0,-0.3153 L 13.0,-0.732 L 13.0,-1.1487 L 13.0,-1.5654 L 13.0,-1.9821 L 13.0,-2.3988 L 13.0,-2.8155 L 13.0,-3.2322 L 13.0,-3.6489 L 13.0,-4.0656 L 13.0,-4.4823 L 13.0,-4.899 L 13.0,-5.3157 L 13.0,-5.7324 L 13.0,-6.1492 L 13.0,-6.5659 L 13.0,-6.9826 L 13.0,-7.3993 L 13.0,-7.816 L 13.0,-8.2327 L 13.0,-8.6494 L 13.0,-9.0661 L 13.0,-9.4828 L 13.0,-9.8995 L 13.0,-10.3162 L 13.0,-10.7329 L 13.0,-11.1496 L 13.0,-11.5663 L 13.0,-11.983 L 13.0,-12.3997 L 13.0,-12.8164 L 13.0,-13.2331 L 13.0,-13.6498 L 13.0,-14.0665 L 13.0,-14.4832 L 13.0,-14.9 L 13.0,-15.3167 L 13.0,-15.7334 L 13.0,-16.1501" />
      <path d="M 0.0,5.6019 L -0.147,5.5937 L -0.2939,5.5854 L -0.4409,5.5772 L -0.5878,5.5689 L -0.7348,5.5607 L -0.8802,5.5383 L -1.0253,5.5137 L -1.1704,5.489 L -1.3155,5.4644 L -1.4606,5.4397 L -1.6031,5.4035 L -1.7445,5.3628 L -1.886,5.322 L -2.0274,5.2813 L -2.1689,5.2405 L -2.3072,5.1909 L -2.4432,5.1345 L -2.5791,5.0782 L -2.7151,5.0219 L -2.8511,4.9655 L -2.984,4.9028 L -3.1129,4.8316 L -3.2417,4.7604 L -3.3705,4.6892 L -3.4993,4.618 L -3.6256,4.5428 L -3.7457,4.4576 L -3.8657,4.3724 L -3.9857,4.2873 L -4.1058,4.2021 L -4.2243,4.115 L -4.3341,4.0169 L -4.4438,3.9189 L -4.5536,3.8208 L -4.6633,3.7227 L -4.7731,3.6246 L -4.8711,3.5148 L -4.9692,3.4051 L -5.0673,3.2953 L -5.1654,3.1856 L -5.2635,3.0758 L -5.3505,2.9572 L -5.4356,2.8372 L -5.5208,2.7171 L -5.606,2.5971 L -5.6911,2.477 L -5.7663,2.3507 L -5.8375,2.2219 L -5.9087,2.093 L -5.9799,1.9642 L -6.0511,1.8354 L -6.1138,1.7025 L -6.1701,1.5665 L -6.2264,1.4305 L -6.2827,1.2945 L -6.3391,1.1585 L -6.3887,1.0202 L -6.4294,0.8787 L -6.4702,0.7373 L -6.5109,0.5959 L -6.5517,0.4544 L -6.5878,0.3119 L -6.6125,0.1668 L -6.6371,0.0217 L -6.6618,-0.1234 L -6.6864,-0.2685 L -6.7087,-0.4139 L -6.717,-0.5609 L -6.7252,-0.7078 L -6.7335,-0.8548 L -6.7417,-1.0017 L -6.75,-1.1487" />
      <path d="M -6.75,-1.1487 L -6.7171,-1.4408 L -6.6842,-1.7328 L -6.6513,-2.0249 L -6.6184,-2.317 L -6.5855,-2.6091 L -6.4976,-2.8886 L -6.4005,-3.166 L -6.3034,-3.4434 L -6.2064,-3.7209 L -6.1093,-3.9983 L -5.9699,-4.2553 L -5.8136,-4.5042 L -5.6572,-4.7531 L -5.5008,-5.002 L -5.3445,-5.2508 L -5.1587,-5.4763 L -4.9509,-5.6841 L -4.7431,-5.892 L -4.5352,-6.0998 L -4.3274,-6.3077 L -4.102,-6.4935 L -3.8532,-6.6499 L -3.6043,-6.8063 L -3.3554,-6.9626 L -3.1066,-7.119 L -2.8496,-7.2585 L -2.5721,-7.3556 L -2.2947,-7.4527 L -2.0173,-7.5497 L -1.7399,-7.6468 L -1.4604,-7.7348 L -1.1683,-7.7677 L -0.8762,-7.8006 L -0.5841,-7.8335 L -0.2921,-7.8664 L -0.0,-7.8993 L 0.2921,-7.8664 L 0.5841,-7.8335 L 0.8762,-7.8006 L 1.1683,-7.7677 L 1.4604,-7.7348 L 1.7399,-7.6468 L 2.0173,-7.5497 L 2.2947,-7.4527 L 2.5721,-7.3556 L 2.8496,-7.2585 L 3.1066,-7.119 L 3.3554,-6.9626 L 3.6043,-6.8063 L 3.8532,-6.6499 L 4.102,-6.4935 L 4.3274,-6.3077 L 4.5352,-6.0998 L 4.7431,-5.892 L 4.9509,-5.6841 L 5.1587,-5.4763 L 5.3445,-5.2508 L 5.5008,-5.002 L 5.6572,-4.7531 L 5.8136,-4.5042 L 5.9699,-4.2553 L 6.1093,-3.9983 L 6.2064,-3.7209 L 6.3034,-3.4434 L 6.4005,-3.166 L 6.4976,-2.8886 L 6.5855,-2.6091 L 6.6184,-2.317 L 6.6513,-2.0249 L 6.6842,-1.7328 L 6.7171,-1.4408 L 6.75,-1.1487" />
      <path d="M 6.75,-1.1487 L 6.7417,-1.0017 L 6.7335,-0.8548 L 6.7252,-0.7078 L 6.717,-0.5609 L 6.7087,-0.4139 L 6.6864,-0.2685 L 6.6618,-0.1234 L 6.6371,0.0217 L 6.6125,0.1668 L 6.5878,0.3119 L 6.5517,0.4544 L 6.5109,0.5959 L 6.4702,0.7373 L 6.4294,0.8787 L 6.3887,1.0202 L 6.3391,1.1585 L 6.2827,1.2945 L 6.2264,1.4305 L 6.1701,1.5665 L 6.1138,1.7025 L 6.0511,1.8354 L 5.9799,1.9642 L 5.9087,2.093 L 5.8375,2.2219 L 5.7663,2.3507 L 5.6911,2.477 L 5.606,2.5971 L 5.5208,2.7171 L 5.4356,2.8372 L 5.3505,2.9572 L 5.2635,3.0758 L 5.1654,3.1856 L 5.0673,3.2953 L 4.9692,3.4051 L 4.8711,3.5148 L 4.7731,3.6246 L 4.6633,3.7227 L 4.5536,3.8208 L 4.4438,3.9189 L 4.3341,4.0169 L 4.2243,4.115 L 4.1058,4.2021 L 3.9857,4.2873 L 3.8657,4.3724 L 3.7457,4.4576 L 3.6256,4.5428 L 3.4993,4.618 L 3.3705,4.6892 L 3.2417,4.7604 L 3.1129,4.8316 L 2.984,4.9028 L 2.8511,4.9655 L 2.7151,5.0219 L 2.5791,5.0782 L 2.4432,5.1345 L 2.3072,5.1909 L 2.1689,5.2405 L 2.0274,5.2813 L 1.886,5.322 L 1.7445,5.3628 L 1.6031,5.4035 L 1.4606,5.4397 L 1.3155,5.4644 L 1.1704,5.489 L 1.0253,5.5137 L 0.8802,5.5383 L 0.7348,5.5607 L 0.5878,5.5689 L 0.4409,5.5772 L 0.2939,5.5854 L 0.147,5.5937 L -0.0,5.6019" />
      <path d="M 24.4144,-16.1372 L 24.4142,-16.1376 L 24.414,-16.1381 L 24.4138,-16.1385 L 24.4136,-16.1389 L 24.4134,-16.1393 L 24.4132,-16.1397 L 24.413,-16.1401 L 24.4128,-16.1406 L 24.4126,-16.141 L 24.4124,-16.1414 L 24.4122,-16.1418 L 24.412,-16.1422 L 24.4118,-16.1426 L 24.4116,-16.1431 L 24.4114,-16.1435 L 24.4112,-16.1439 L 24.411,-16.1443 L 24.4108,-16.1447 L 24.4106,-16.1451 L 24.4104,-16.1455 L 24.4102,-16.146 L 24.41,-16.1464 L 24.4098,-16.1468 L 24.4096,-16.1472 L 24.4094,-16.1476 L 24.4092,-16.148 L 24.409,-16.1485 L 24.4088,-16.1489 L 24.4086,-16.1493 L 24.4084,-16.1497 L 24.4082,-16.1501 L 24.408,-16.1505 L 24.4078,-16.151 L 24.4076,-16.1514 L 24.4074,-16.1518 L 24.4072,-16.1522 L 24.407,-16.1526 L 24.4068,-16.153 L 24.4066,-16.1535 L 24.4064,-16.1539 L 24.4062,-16.1543 L 24.406,-16.1547 L 24.4058,-16.1551 L 24.4056,-16.1555 L 24.4054,-16.156 L 24.4052,-16.1564 L 24.405,-16.1568 L 24.4048,-16.1572 L 24.4046,-16.1576 L 24.4044,-16.158 L 24.4042,-16.1584 L 24.404,-16.1589 L 24.4038,-16.1593 L 24.4036,-16.1597 L 24.4034,-16.1601 L 24.4032,-16.1605 L 24.403,-16.1609 L 24.4028,-16.1614 L 24.4026,-16.1618 L 24.4024,-16.1622 L 24.4022,-16.1626 L 24.402,-16.163 L 24.4018,-16.1634 L 24.4016,-16.1639 L 24.4014,-16.1643 L 24.4012,-16.1647 L 24.401,-16.1651 L 24.4008,-16.1655 L 24.4006,-16.1659 L 24.4004,-16.1664 L 24.4002,-16.1668 L 24.4,-16.1672" />
      <path d="M 24.4144,-16.1372 L 24.4144,-15.7206 L 24.4144,-15.3039 L 24.4144,-14.8872 L 24.4144,-14.4706 L 24.4144,-14.0539 L 24.4144,-13.6372 L 24.4144,-13.2206 L 24.4144,-12.8039 L 24.4144,-12.3872 L 24.4144,-11.9706 L 24.4144,-11.5539 L 24.4144,-11.1372 L 24.4144,-10.7206 L 24.4144,-10.3039 L 24.4144,-9.8872 L 24.4144,-9.4706 L 24.4144,-9.0539 L 24.4144,-8.6372 L 24.4144,-8.2206 L 24.4144,-7.8039 L 24.4144,-7.3872 L 24.4144,-6.9706 L 24.4144,-6.5539 L 24.4144,-6.1372 L 24.4144,-5.7206 L 24.4144,-5.3039 L 24.4144,-4.8872 L 24.4144,-4.4706 L 24.4144,-4.0539 L 24.4144,-3.6372 L 24.4144,-3.2206 L 24.4144,-2.8039 L 24.4144,-2.3872 L 24.4144,-1.9706 L 24.4144,-1.5539 L 24.4144,-1.1372 L 24.4144,-0.7206 L 24.4144,-0.3039 L 24.4144,0.1128 L 24.4144,0.5294 L 24.4144,0.9461 L 24.4144,1.3628 L 24.4144,1.7794 L 24.4144,2.1961 L 24.4144,2.6128 L 24.4144,3.0294 L 24.4144,3.4461 L 24.4144,3.8628 L 24.4144,4.2794 L 24.4144,4.6961 L 24.4144,5.1128 L 24.4144,5.5294 L 24.4144,5.9461 L 24.4144,6.3628 L 24.4144,6.7794 L 24.4144,7.1961 L 24.4144,7.6128 L 24.4144,8.0294 L 24.4144,8.4461 L 24.4144,8.8628 L 24.4144,9.2794 L 24.4144,9.6961 L 24.4144,10.1128 L 24.4144,10.5294 L 24.4144,10.9461 L 24.4144,11.3628 L 24.4144,11.7794 L 24.4144,12.1961 L 24.4144,12.6128 L 24.4144,13.0294 L 24.4144,13.4461 L 24.4144,13.8628" />
      <path d="M 17.0,13.8328 L 17.0333,13.4161 L 17.0667,12.9995 L 17.1,12.5828 L 17.1333,12.1661 L 17.1667,11.7495 L 17.2,11.3328 L 17.2333,10.9161 L 17.2667,10.4995 L 17.3,10.0828 L 17.3333,9.6661 L 17.3667,9.2495 L 17.4,8.8328 L 17.4333,8.4161 L 17.4667,7.9995 L 17.5,7.5828 L 17.5333,7.1661 L 17.5667,6.7495 L 17.6,6.3328 L 17.6333,5.9161 L 17.6667,5.4995 L 17.7,5.0828 L 17.7333,4.6661 L 17.7667,4.2495 L 17.8,3.8328 L 17.8333,3.4161 L 17.8667,2.9995 L 17.9,2.5828 L 17.9333,2.1661 L 17.9667,1.7495 L 18.0,1.3328 L 18.0333,0.9161 L 18.0667,0.4995 L 18.1,0.0828 L 18.1333,-0.3339 L 18.1667,-0.7505 L 18.2,-1.1672 L 18.2333,-1.5839 L 18.2667,-2.0005 L 18.3,-2.4172 L 18.3333,-2.8339 L 18.3667,-3.2505 L 18.4,-3.6672 L 18.4333,-4.0839 L 18.4667,-4.5005 L 18.5,-4.9172 L 18.5333,-5.3339 L 18.5667,-5.7505 L 18.6,-6.1672 L 18.6333,-6.5839 L 18.6667,-7.0005 L 18.7,-7.4172 L 18.7333,-7.8339 L 18.7667,-8.2505 L 18.8,-8.6672 L 18.8333,-9.0839 L 18.8667,-9.5005 L 18.9,-9.9172 L 18.9333,-10.3339 L 18.9667,-10.7505 L 19.0,-11.1672 L 19.0333,-11.5839 L 19.0667,-12.0005 L 19.1,-12.4172 L 19.1333,-12.8339 L 19.1667,-13.2505 L 19.2,-13.6672 L 19.2333,-14.0838 L 19.2667,-14.5005 L 19.3,-14.9172 L 19.3333,-15.3338 L 19.3667,-15.7505 L 19.4,-16.1672" />
      <path d="M 19.4,-16.1672 L 19.4694,-16.1672 L 19.5389,-16.1672 L 19.6083,-16.1672 L 19.6778,-16.1672 L 19.7472,-16.1672 L 19.8167,-16.1672 L 19.8861,-16.1672 L 19.9556,-16.1672 L 20.025,-16.1672 L 20.0944,-16.1672 L 20.1639,-16.1672 L 20.2333,-16.1672 L 20.3028,-16.1672 L 20.3722,-16.1672 L 20.4417,-16.1672 L 20.5111,-16.1672 L 20.5806,-16.1672 L 20.65,-16.1672 L 20.7194,-16.1672 L 20.7889,-16.1672 L 20.8583,-16.1672 L 20.9278,-16.1672 L 20.9972,-16.1672 L 21.0667,-16.1672 L 21.1361,-16.1672 L 21.2056,-16.1672 L 21.275,-16.1672 L 21.3444,-16.1672 L 21.4139,-16.1672 L 21.4833,-16.1672 L 21.5528,-16.1672 L 21.6222,-16.1672 L 21.6917,-16.1672 L 21.7611,-16.1672 L 21.8306,-16.1672 L 21.9,-16.1672 L 21.9694,-16.1672 L 22.0389,-16.1672 L 22.1083,-16.1672 L 22.1778,-16.1672 L 22.2472,-16.1672 L 22.3167,-16.1672 L 22.3861,-16.1672 L 22.4556,-16.1672 L 22.525,-16.1672 L 22.5944,-16.1672 L 22.6639,-16.1672 L 22.7333,-16.1672 L 22.8028,-16.1672 L 22.8722,-16.1672 L 22.9417,-16.1672 L 23.0111,-16.1672 L 23.0806,-16.1672 L 23.15,-16.1672 L 23.2194,-16.1672 L 23.2889,-16.1672 L 23.3583,-16.1672 L 23.4278,-16.1672 L 23.4972,-16.1672 L 23.5667,-16.1672 L 23.6361,-16.1672 L 23.7056,-16.1672 L 23.775,-16.1672 L 23.8444,-16.1672 L 23.9139,-16.1672 L 23.9833,-16.1672 L 24.0528,-16.1672 L 24.1222,-16.1672 L 24.1917,-16.1672 L 24.2611,-16.1672 L 24.3306,-16.1672 L 24.4,-16.1672" />
      <path d="M 19.4144,-16.1372 L 19.4838,-16.1372 L 19.5533,-16.1372 L 19.6227,-16.1372 L 19.6922,-16.1372 L 19.7616,-16.1372 L 19.8311,-16.1372 L 19.9005,-16.1372 L 19.97,-16.1372 L 20.0394,-16.1372 L 20.1088,-16.1372 L 20.1783,-16.1372 L 20.2477,-16.1372 L 20.3172,-16.1372 L 20.3866,-16.1372 L 20.4561,-16.1372 L 20.5255,-16.1372 L 20.595,-16.1372 L 20.6644,-16.1372 L 20.7338,-16.1372 L 20.8033,-16.1372 L 20.8727,-16.1372 L 20.9422,-16.1372 L 21.0116,-16.1372 L 21.0811,-16.1372 L 21.1505,-16.1372 L 21.22,-16.1372 L 21.2894,-16.1372 L 21.3588,-16.1372 L 21.4283,-16.1372 L 21.4977,-16.1372 L 21.5672,-16.1372 L 21.6366,-16.1372 L 21.7061,-16.1372 L 21.7755,-16.1372 L 21.845,-16.1372 L 21.9144,-16.1372 L 21.9838,-16.1372 L 22.0533,-16.1372 L 22.1227,-16.1372 L 22.1922,-16.1372 L 22.2616,-16.1372 L 22.3311,-16.1372 L 22.4005,-16.1372 L 22.47,-16.1372 L 22.5394,-16.1372 L 22.6088,-16.1372 L 22.6783,-16.1372 L 22.7477,-16.1372 L 22.8172,-16.1372 L 22.8866,-16.1372 L 22.9561,-16.1372 L 23.0255,-16.1372 L 23.095,-16.1372 L 23.1644,-16.1372 L 23.2338,-16.1372 L 23.3033,-16.1372 L 23.3727,-16.1372 L 23.4422,-16.1372 L 23.5116,-16.1372 L 23.5811,-16.1372 L 23.6505,-16.1372 L 23.72,-16.1372 L 23.7894,-16.1372 L 23.8588,-16.1372 L 23.9283,-16.1372 L 23.9977,-16.1372 L 24.0672,-16.1372 L 24.1366,-16.1372 L 24.2061,-16.1372 L 24.2755,-16.1372 L 24.345,-16.1372 L 24.4144,-16.1372" />
      <path d="M 19.4144,-16.1372 L 19.4142,-16.1376 L 19.414,-16.1381 L 19.4138,-16.1385 L 19.4136,-16.1389 L 19.4134,-16.1393 L 19.4132,-16.1397 L 19.413,-16.1401 L 19.4128,-16.1406 L 19.4126,-16.141 L 19.4124,-16.1414 L 19.4122,-16.1418 L 19.412,-16.1422 L 19.4118,-16.1426 L 19.4116,-16.143 L 19.4114,-16.1435 L 19.4112,-16.1439 L 19.411,-16.1443 L 19.4108,-16.1447 L 19.4106,-16.1451 L 19.4104,-16.1455 L 19.4102,-16.146 L 19.41,-16.1464 L 19.4098,-16.1468 L 19.4096,-16.1472 L 19.4094,-16.1476 L 19.4092,-16.148 L 19.409,-16.1485 L 19.4088,-16.1489 L 19.4086,-16.1493 L 19.4084,-16.1497 L 19.4082,-16.1501 L 19.408,-16.1505 L 19.4078,-16.151 L 19.4076,-16.1514 L 19.4074,-16.1518 L 19.4072,-16.1522 L 19.407,-16.1526 L 19.4068,-16.153 L 19.4066,-16.1535 L 19.4064,-16.1539 L 19.4062,-16.1543 L 19.406,-16.1547 L 19.4058,-16.1551 L 19.4056,-16.1555 L 19.4054,-16.1559 L 19.4052,-16.1564 L 19.405,-16.1568 L 19.4048,-16.1572 L 19.4046,-16.1576 L 19.4044,-16.158 L 19.4042,-16.1584 L 19.404,-16.1589 L 19.4038,-16.1593 L 19.4036,-16.1597 L 19.4034,-16.1601 L 19.4032,-16.1605 L 19.403,-16.1609 L 19.4028,-16.1614 L 19.4026,-16.1618 L 19.4024,-16.1622 L 19.4022,-16.1626 L 19.402,-16.163 L 19.4018,-16.1634 L 19.4016,-16.1639 L 19.4014,-16.1643 L 19.4012,-16.1647 L 19.401,-16.1651 L 19.4008,-16.1655 L 19.4006,-16.1659 L 19.4004,-16.1663 L 19.4002,-16.1668 L 19.4,-16.1672" />
      <path d="M 17.0,13.8328 L 17.0002,13.8332 L 17.0004,13.8336 L 17.0006,13.834 L 17.0008,13.8345 L 17.001,13.8349 L 17.0012,13.8353 L 17.0014,13.8357 L 17.0016,13.8361 L 17.0018,13.8365 L 17.002,13.837 L 17.0022,13.8374 L 17.0024,13.8378 L 17.0026,13.8382 L 17.0028,13.8386 L 17.003,13.839 L 17.0032,13.8395 L 17.0034,13.8399 L 17.0036,13.8403 L 17.0038,13.8407 L 17.004,13.8411 L 17.0042,13.8415 L 17.0044,13.842 L 17.0046,13.8424 L 17.0048,13.8428 L 17.005,13.8432 L 17.0052,13.8436 L 17.0054,13.844 L 17.0056,13.8445 L 17.0058,13.8449 L 17.006,13.8453 L 17.0062,13.8457 L 17.0064,13.8461 L 17.0066,13.8465 L 17.0068,13.8469 L 17.007,13.8474 L 17.0072,13.8478 L 17.0074,13.8482 L 17.0076,13.8486 L 17.0078,13.849 L 17.008,13.8494 L 17.0082,13.8499 L 17.0084,13.8503 L 17.0086,13.8507 L 17.0088,13.8511 L 17.009,13.8515 L 17.0092,13.8519 L 17.0094,13.8524 L 17.0096,13.8528 L 17.0098,13.8532 L 17.01,13.8536 L 17.0102,13.854 L 17.0104,13.8544 L 17.0106,13.8549 L 17.0108,13.8553 L 17.011,13.8557 L 17.0112,13.8561 L 17.0114,13.8565 L 17.0116,13.8569 L 17.0118,13.8573 L 17.012,13.8578 L 17.0122,13.8582 L 17.0124,13.8586 L 17.0126,13.859 L 17.0128,13.8594 L 17.013,13.8598 L 17.0132,13.8603 L 17.0134,13.8607 L 17.0136,13.8611 L 17.0138,13.8615 L 17.014,13.8619 L 17.0142,13.8623 L 17.0144,13.8628" />
      <path d="M 24.4144,13.8628 L 24.3116,13.8628 L 24.2088,13.8628 L 24.1061,13.8628 L 24.0033,13.8628 L 23.9005,13.8628 L 23.7977,13.8628 L 23.695,13.8628 L 23.5922,13.8628 L 23.4894,13.8628 L 23.3866,13.8628 L 23.2838,13.8628 L 23.1811,13.8628 L 23.0783,13.8628 L 22.9755,13.8628 L 22.8727,13.8628 L 22.77,13.8628 L 22.6672,13.8628 L 22.5644,13.8628 L 22.4616,13.8628 L 22.3588,13.8628 L 22.2561,13.8628 L 22.1533,13.8628 L 22.0505,13.8628 L 21.9477,13.8628 L 21.845,13.8628 L 21.7422,13.8628 L 21.6394,13.8628 L 21.5366,13.8628 L 21.4338,13.8628 L 21.3311,13.8628 L 21.2283,13.8628 L 21.1255,13.8628 L 21.0227,13.8628 L 20.92,13.8628 L 20.8172,13.8628 L 20.7144,13.8628 L 20.6116,13.8628 L 20.5088,13.8628 L 20.4061,13.8628 L 20.3033,13.8628 L 20.2005,13.8628 L 20.0977,13.8628 L 19.995,13.8628 L 19.8922,13.8628 L 19.7894,13.8628 L 19.6866,13.8628 L 19.5838,13.8628 L 19.4811,13.8628 L 19.3783,13.8628 L 19.2755,13.8628 L 19.1727,13.8628 L 19.07,13.8628 L 18.9672,13.8628 L 18.8644,13.8628 L 18.7616,13.8628 L 18.6588,13.8628 L 18.5561,13.8628 L 18.4533,13.8628 L 18.3505,13.8628 L 18.2477,13.8628 L 18.145,13.8628 L 18.0422,13.8628 L 17.9394,13.8628 L 17.8366,13.8628 L 17.7338,13.8628 L 17.6311,13.8628 L 17.5283,13.8628 L 17.4255,13.8628 L 17.3227,13.8628 L 17.22,13.8628 L 17.1172,13.8628 L 17.0144,13.8628" />
      <path d="M 17.0144,13.8628 L 17.0477,13.4461 L 17.0811,13.0294 L 17.1144,12.6128 L 17.1477,12.1961 L 17.1811,11.7794 L 17.2144,11.3628 L 17.2477,10.9461 L 17.2811,10.5294 L 17.3144,10.1128 L 17.3477,9.6961 L 17.3811,9.2794 L 17.4144,8.8628 L 17.4477,8.4461 L 17.4811,8.0294 L 17.5144,7.6128 L 17.5477,7.1961 L 17.5811,6.7794 L 17.6144,6.3628 L 17.6477,5.9461 L 17.6811,5.5294 L 17.7144,5.1128 L 17.7477,4.6961 L 17.7811,4.2794 L 17.8144,3.8628 L 17.8477,3.4461 L 17.8811,3.0294 L 17.9144,2.6128 L 17.9477,2.1961 L 17.9811,1.7794 L 18.0144,1.3628 L 18.0477,0.9461 L 18.0811,0.5294 L 18.1144,0.1128 L 18.1477,-0.3039 L 18.1811,-0.7206 L 18.2144,-1.1372 L 18.2477,-1.5539 L 18.2811,-1.9706 L 18.3144,-2.3872 L 18.3477,-2.8039 L 18.3811,-3.2206 L 18.4144,-3.6372 L 18.4477,-4.0539 L 18.4811,-4.4706 L 18.5144,-4.8872 L 18.5477,-5.3039 L 18.5811,-5.7206 L 18.6144,-6.1372 L 18.6477,-6.5539 L 18.6811,-6.9706 L 18.7144,-7.3872 L 18.7477,-7.8039 L 18.7811,-8.2206 L 18.8144,-8.6372 L 18.8477,-9.0539 L 18.8811,-9.4706 L 18.9144,-9.8872 L 18.9477,-10.3039 L 18.9811,-10.7206 L 19.0144,-11.1372 L 19.0477,-11.5539 L 19.0811,-11.9706 L 19.1144,-12.3872 L 19.1477,-12.8039 L 19.1811,-13.2206 L 19.2144,-13.6372 L 19.2477,-14.0539 L 19.2811,-14.4706 L 19.3144,-14.8872 L 19.3477,-15.3039 L 19.3811,-15.7206 L 19.4144,-16.1372" />
      <path d="M 17.6672,5.5978 L 17.6812,5.4102 L 17.6959,5.2227 L 17.7105,5.0352 L 17.7252,4.8476 L 17.74,4.6601 L 17.7549,4.4726 L 17.7697,4.2851 L 17.7845,4.0976 L 17.7994,3.9101 L 17.8142,3.7226 L 17.8291,3.535 L 17.844,3.3475 L 17.8589,3.16 L 17.8738,2.9725 L 17.8887,2.785 L 17.9036,2.5975 L 17.9186,2.41 L 17.9335,2.2225 L 17.9484,2.035 L 17.9633,1.8475 L 17.9783,1.66 L 17.9932,1.4725 L 18.0082,1.285 L 18.0231,1.0975 L 18.0381,0.91 L 18.0531,0.7225 L 18.068,0.535 L 18.083,0.3474 L 18.098,0.1599 L 18.1129,-0.0276 L 18.1279,-0.2151 L 18.1429,-0.4026 L 18.1579,-0.5901 L 18.1729,-0.7776 L 18.1879,-0.9651 L 18.2029,-1.1526 L 18.2179,-1.3401 L 18.2329,-1.5276 L 18.2479,-1.7151 L 18.2629,-1.9026 L 18.2779,-2.0901 L 18.2929,-2.2776 L 18.308,-2.4651 L 18.323,-2.6526 L 18.338,-2.84 L 18.3531,-3.0275 L 18.3681,-3.215 L 18.3831,-3.4025 L 18.3982,-3.59 L 18.4132,-3.7775 L 18.4283,-3.965 L 18.4433,-4.1525 L 18.4584,-4.34 L 18.4735,-4.5275 L 18.4885,-4.715 L 18.5036,-4.9025 L 18.5187,-5.09 L 18.5338,-5.2775 L 18.5489,-5.465 L 18.564,-5.6525 L 18.5791,-5.84 L 18.5942,-6.0275 L 18.6094,-6.2149 L 18.6245,-6.4024 L 18.6397,-6.5899 L 18.6549,-6.7774 L 18.67,-6.9649 L 18.6852,-7.1524 L 18.7005,-7.3399 L 18.7159,-7.5273 L 18.7312,-7.7148 L 18.7472,-7.9022" />
      <path d="M 18.7472,-7.9022 L 18.7332,-7.7146 L 18.7185,-7.5271 L 18.7039,-7.3396 L 18.6892,-7.1521 L 18.6744,-6.9645 L 18.6595,-6.777 L 18.6447,-6.5895 L 18.6299,-6.402 L 18.615,-6.2145 L 18.6002,-6.027 L 18.5853,-5.8395 L 18.5704,-5.652 L 18.5555,-5.4644 L 18.5406,-5.2769 L 18.5257,-5.0894 L 18.5108,-4.9019 L 18.4958,-4.7144 L 18.4809,-4.5269 L 18.466,-4.3394 L 18.4511,-4.1519 L 18.4361,-3.9644 L 18.4212,-3.7769 L 18.4062,-3.5894 L 18.3913,-3.4019 L 18.3763,-3.2144 L 18.3613,-3.0269 L 18.3464,-2.8394 L 18.3314,-2.6519 L 18.3164,-2.4644 L 18.3015,-2.2769 L 18.2865,-2.0894 L 18.2715,-1.9019 L 18.2565,-1.7144 L 18.2415,-1.5269 L 18.2265,-1.3394 L 18.2115,-1.1519 L 18.1965,-0.9644 L 18.1815,-0.7769 L 18.1665,-0.5894 L 18.1515,-0.4019 L 18.1365,-0.2144 L 18.1215,-0.0269 L 18.1064,0.1606 L 18.0914,0.3481 L 18.0764,0.5356 L 18.0613,0.7231 L 18.0463,0.9106 L 18.0313,1.0981 L 18.0162,1.2856 L 18.0012,1.4731 L 17.9861,1.6606 L 17.9711,1.8481 L 17.956,2.0356 L 17.9409,2.2231 L 17.9259,2.4106 L 17.9108,2.5981 L 17.8957,2.7856 L 17.8806,2.9731 L 17.8655,3.1606 L 17.8504,3.348 L 17.8353,3.5355 L 17.8202,3.723 L 17.805,3.9105 L 17.7899,4.098 L 17.7747,4.2855 L 17.7596,4.473 L 17.7444,4.6605 L 17.7292,4.8479 L 17.7139,5.0354 L 17.6985,5.2229 L 17.6832,5.4104 L 17.6672,5.5978" />
    </g>
    <g fill="none" stroke="rgb(110,110,110)" stroke-width="0.3" id="Hidden" stroke-dasharray="3.6 0.9">
      <path d="M -13.0,-16.1558 L -13.0,-15.7392 L -13.0,-15.3225 L -13.0,-14.9058 L -13.0,-14.4892 L -13.0,-14.0725 L -13.0,-13.6558 L -13.0,-13.2392 L -13.0,-12.8225 L -13.0,-12.4058 L -13.0,-11.9892 L -13.0,-11.5725 L -13.0,-11.1558 L -13.0,-10.7392 L -13.0,-10.3225 L -13.0,-9.9058 L -13.0,-9.4892 L -13.0,-9.0725 L -13.0,-8.6558 L -13.0,-8.2392 L -13.0,-7.8225 L -13.0,-7.4058 L -13.0,-6.9892 L -13.0,-6.5725 L -13.0,-6.1558 L -13.0,-5.7392 L -13.0,-5.3225 L -13.0,-4.9058 L -13.0,-4.4892 L -13.0,-4.0725 L -13.0,-3.6558 L -13.0,-3.2392 L -13.0,-2.8225 L -13.0,-2.4058 L -13.0,-1.9892 L -13.0,-1.5725 L -13.0,-1.1558 L -13.0,-0.7392 L -13.0,-0.3225 L -13.0,0.0942 L -13.0,0.5108 L -13.0,0.9275 L -13.0,1.3442 L -13.0,1.7608 L -13.0,2.1775 L -13.0,2.5942 L -13.0,3.0108 L -13.0,3.4275 L -13.0,3.8442 L -13.0,4.2608 L -13.0,4.6775 L -13.0,5.0942 L -13.0,5.5108 L -13.0,5.9275 L -13.0,6.3442 L -13.0,6.7608 L -13.0,7.1775 L -13.0,7.5942 L -13.0,8.0108 L -13.0,8.4275 L -13.0,8.8442 L -13.0,9.2608 L -13.0,9.6775 L -13.0,10.0942 L -13.0,10.5108 L -13.0,10.9275 L -13.0,11.3442 L -13.0,11.7608 L -13.0,12.1775 L -13.0,12.5942 L -13.0,13.0108 L -13.0,13.4275 L -13.0,13.8442" />
      <path d="M -13.0,13.8442 L -12.6389,13.8442 L -12.2778,13.8442 L -11.9167,13.8442 L -11.5556,13.8442 L -11.1944,13.8442 L -10.8333,13.8442 L -10.4722,13.8442 L -10.1111,13.8442 L -9.75,13.8442 L -9.3889,13.8442 L -9.0278,13.8442 L -8.6667,13.8442 L -8.3056,13.8442 L -7.9444,13.8442 L -7.5833,13.8442 L -7.2222,13.8442 L -6.8611,13.8442 L -6.5,13.8442 L -6.1389,13.8442 L -5.7778,13.8442 L -5.4167,13.8442 L -5.0556,13.8442 L -4.6944,13.8442 L -4.3333,13.8442 L -3.9722,13.8442 L -3.6111,13.8442 L -3.25,13.8442 L -2.8889,13.8442 L -2.5278,13.8442 L -2.1667,13.8442 L -1.8056,13.8442 L -1.4444,13.8442 L -1.0833,13.8442 L -0.7222,13.8442 L -0.3611,13.8442 L 0.0,13.8442 L 0.3611,13.8442 L 0.7222,13.8442 L 1.0833,13.8442 L 1.4444,13.8442 L 1.8056,13.8442 L 2.1667,13.8442 L 2.5278,13.8442 L 2.8889,13.8442 L 3.25,13.8442 L 3.6111,13.8442 L 3.9722,13.8442 L 4.3333,13.8442 L 4.6944,13.8442 L 5.0556,13.8442 L 5.4167,13.8442 L 5.7778,13.8442 L 6.1389,13.8442 L 6.5,13.8442 L 6.8611,13.8442 L 7.2222,13.8442 L 7.5833,13.8442 L 7.9444,13.8442 L 8.3056,13.8442 L 8.6667,13.8442 L 9.0278,13.8442 L 9.3889,13.8442 L 9.75,13.8442 L 10.1111,13.8442 L 10.4722,13.8442 L 10.8333,13.8442 L 11.1944,13.8442 L 11.5556,13.8442 L 11.9167,13.8442 L 12.2778,13.8442 L 12.6389,13.8442 L 13.0,13.8442" />
      <path d="M 13.0,-16.1558 L 13.0,-15.7392 L 13.0,-15.3225 L 13.0,-14.9058 L 13.0,-14.4892 L 13.0,-14.0725 L 13.0,-13.6558 L 13.0,-13.2392 L 13.0,-12.8225 L 13.0,-12.4058 L 13.0,-11.9892 L 13.0,-11.5725 L 13.0,-11.1558 L 13.0,-10.7392 L 13.0,-10.3225 L 13.0,-9.9058 L 13.0,-9.4892 L 13.0,-9.0725 L 13.0,-8.6558 L 13.0,-8.2392 L 13.0,-7.8225 L 13.0,-7.4058 L 13.0,-6.9892 L 13.0,-6.5725 L 13.0,-6.1558 L 13.0,-5.7392 L 13.0,-5.3225 L 13.0,-4.9058 L 13.0,-4.4892 L 13.0,-4.0725 L 13.0,-3.6558 L 13.0,-3.2392 L 13.0,-2.8225 L 13.0,-2.4058 L 13.0,-1.9892 L 13.0,-1.5725 L 13.0,-1.1558 L 13.0,-0.7392 L 13.0,-0.3225 L 13.0,0.0942 L 13.0,0.5108 L 13.0,0.9275 L 13.0,1.3442 L 13.0,1.7608 L 13.0,2.1775 L 13.0,2.5942 L 13.0,3.0108 L 13.0,3.4275 L 13.0,3.8442 L 13.0,4.2608 L 13.0,4.6775 L 13.0,5.0942 L 13.0,5.5108 L 13.0,5.9275 L 13.0,6.3442 L 13.0,6.7608 L 13.0,7.1775 L 13.0,7.5942 L 13.0,8.0108 L 13.0,8.4275 L 13.0,8.8442 L 13.0,9.2608 L 13.0,9.6775 L 13.0,10.0942 L 13.0,10.5108 L 13.0,10.9275 L 13.0,11.3442 L 13.0,11.7608 L 13.0,12.1775 L 13.0,12.5942 L 13.0,13.0108 L 13.0,13.4275 L 13.0,13.8442" />
      <path d="M -6.75,-1.1523 L -6.75,-1.1524 L -6.75,-1.1525 L -6.75,-1.1526 L -6.75,-1.1527 L -6.75,-1.1528 L -6.75,-1.1529 L -6.75,-1.153 L -6.75,-1.1531 L -6.75,-1.1532 L -6.75,-1.1533 L -6.75,-1.1534 L -6.75,-1.1535 L -6.75,-1.1536 L -6.75,-1.1537 L -6.75,-1.1538 L -6.75,-1.1539 L -6.75,-1.154 L -6.75,-1.1541 L -6.75,-1.1542 L -6.75,-1.1543 L -6.75,-1.1544 L -6.75,-1.1545 L -6.75,-1.1546 L -6.75,-1.1547 L -6.75,-1.1548 L -6.75,-1.1549 L -6.75,-1.155 L -6.75,-1.1551 L -6.75,-1.1552 L -6.75,-1.1553 L -6.75,-1.1554 L -6.75,-1.1555 L -6.75,-1.1556 L -6.75,-1.1557 L -6.75,-1.1558" />
      <path d="M -6.75,-1.1558 L -6.7436,-1.4503 L -6.7243,-1.7441 L -6.6923,-2.0369 L -6.6475,-2.328 L -6.59,-2.6168 L -6.52,-2.9029 L -6.4376,-3.1856 L -6.3429,-3.4645 L -6.2362,-3.7389 L -6.1176,-4.0085 L -5.9873,-4.2726 L -5.8457,-4.5308 L -5.6929,-4.7826 L -5.5293,-5.0275 L -5.3551,-5.265 L -5.1708,-5.4947 L -4.9766,-5.7161 L -4.773,-5.9288 L -4.5602,-6.1325 L -4.3388,-6.3266 L -4.1091,-6.511 L -3.8716,-6.6851 L -3.6268,-6.8487 L -3.375,-7.0015 L -3.1168,-7.1432 L -2.8527,-7.2734 L -2.5831,-7.392 L -2.3086,-7.4988 L -2.0298,-7.5934 L -1.747,-7.6758 L -1.461,-7.7458 L -1.1721,-7.8033 L -0.8811,-7.8481 L -0.5883,-7.8801 L -0.2944,-7.8994 L -0.0,-7.9058 L 0.2944,-7.8994 L 0.5883,-7.8801 L 0.8811,-7.8481 L 1.1721,-7.8033 L 1.461,-7.7458 L 1.747,-7.6758 L 2.0298,-7.5934 L 2.3086,-7.4988 L 2.5831,-7.392 L 2.8527,-7.2734 L 3.1168,-7.1432 L 3.375,-7.0015 L 3.6268,-6.8487 L 3.8716,-6.6851 L 4.1091,-6.511 L 4.3388,-6.3266 L 4.5602,-6.1325 L 4.773,-5.9288 L 4.9766,-5.7161 L 5.1708,-5.4947 L 5.3551,-5.265 L 5.5293,-5.0275 L 5.6929,-4.7826 L 5.8457,-4.5308 L 5.9873,-4.2726 L 6.1176,-4.0085 L 6.2362,-3.7389 L 6.3429,-3.4645 L 6.4376,-3.1856 L 6.52,-2.9029 L 6.59,-2.6168 L 6.6475,-2.328 L 6.6923,-2.0369 L 6.7243,-1.7441 L 6.7436,-1.4503 L 6.75,-1.1558" />
      <path d="M 6.75,-1.1558 L 6.75,-1.1557 L 6.75,-1.1556 L 6.75,-1.1555 L 6.75,-1.1554 L 6.75,-1.1553 L 6.75,-1.1552 L 6.75,-1.1551 L 6.75,-1.155 L 6.75,-1.1549 L 6.75,-1.1548 L 6.75,-1.1547 L 6.75,-1.1546 L 6.75,-1.1545 L 6.75,-1.1544 L 6.75,-1.1543 L 6.75,-1.1542 L 6.75,-1.1541 L 6.75,-1.154 L 6.75,-1.1539 L 6.75,-1.1538 L 6.75,-1.1537 L 6.75,-1.1536 L 6.75,-1.1535 L 6.75,-1.1534 L 6.75,-1.1533 L 6.75,-1.1532 L 6.75,-1.1531 L 6.75,-1.153 L 6.75,-1.1529 L 6.75,-1.1528 L 6.75,-1.1527 L 6.75,-1.1526 L 6.75,-1.1525 L 6.75,-1.1524 L 6.75,-1.1523" />
      <path d="M -13.0,13.8442 L -13.0,13.8443 L -13.0,13.8444 L -13.0,13.8445 L -13.0,13.8446 L -13.0,13.8447 L -13.0,13.8449 L -13.0,13.845 L -13.0,13.8451 L -13.0,13.8452 L -13.0,13.8453 L -13.0,13.8455 L -13.0,13.8456 L -13.0,13.8457 L -13.0,13.8458 L -13.0,13.8459 L -13.0,13.846 L -13.0,13.8462 L -13.0,13.8463 L -13.0,13.8464 L -13.0,13.8465 L -13.0,13.8466 L -13.0,13.8468 L -13.0,13.8469 L -13.0,13.847 L -13.0,13.8471 L -13.0,13.8472 L -13.0,13.8473 L -13.0,13.8475 L -13.0,13.8476 L -13.0,13.8477 L -13.0,13.8478 L -13.0,13.8479 L -13.0,13.8481 L -13.0,13.8482 L -13.0,13.8483 L -13.0,13.8484 L -13.0,13.8485 L -13.0,13.8487 L -13.0,13.8488 L -13.0,13.8489 L -13.0,13.849 L -13.0,13.8491 L -13.0,13.8492 L -13.0,13.8494 L -13.0,13.8495 L -13.0,13.8496 L -13.0,13.8497 L -13.0,13.8498 L -13.0,13.85 L -13.0,13.8501 L -13.0,13.8502 L -13.0,13.8503 L -13.0,13.8504 L -13.0,13.8505 L -13.0,13.8507 L -13.0,13.8508 L -13.0,13.8509 L -13.0,13.851 L -13.0,13.8511 L -13.0,13.8513 L -13.0,13.8514 L -13.0,13.8515 L -13.0,13.8516 L -13.0,13.8517 L -13.0,13.8518 L -13.0,13.852 L -13.0,13.8521 L -13.0,13.8522 L -13.0,13.8523 L -13.0,13.8524 L -13.0,13.8526 L -13.0,13.8527" />
      <path d="M 13.0,13.8442 L 13.0,13.8443 L 13.0,13.8444 L 13.0,13.8445 L 13.0,13.8446 L 13.0,13.8447 L 13.0,13.8449 L 13.0,13.845 L 13.0,13.8451 L 13.0,13.8452 L 13.0,13.8453 L 13.0,13.8455 L 13.0,13.8456 L 13.0,13.8457 L 13.0,13.8458 L 13.0,13.8459 L 13.0,13.846 L 13.0,13.8462 L 13.0,13.8463 L 13.0,13.8464 L 13.0,13.8465 L 13.0,13.8466 L 13.0,13.8468 L 13.0,13.8469 L 13.0,13.847 L 13.0,13.8471 L 13.0,13.8472 L 13.0,13.8473 L 13.0,13.8475 L 13.0,13.8476 L 13.0,13.8477 L 13.0,13.8478 L 13.0,13.8479 L 13.0,13.8481 L 13.0,13.8482 L 13.0,13.8483 L 13.0,13.8484 L 13.0,13.8485 L 13.0,13.8487 L 13.0,13.8488 L 13.0,13.8489 L 13.0,13.849 L 13.0,13.8491 L 13.0,13.8492 L 13.0,13.8494 L 13.0,13.8495 L 13.0,13.8496 L 13.0,13.8497 L 13.0,13.8498 L 13.0,13.85 L 13.0,13.8501 L 13.0,13.8502 L 13.0,13.8503 L 13.0,13.8504 L 13.0,13.8505 L 13.0,13.8507 L 13.0,13.8508 L 13.0,13.8509 L 13.0,13.851 L 13.0,13.8511 L 13.0,13.8513 L 13.0,13.8514 L 13.0,13.8515 L 13.0,13.8516 L 13.0,13.8517 L 13.0,13.8518 L 13.0,13.852 L 13.0,13.8521 L 13.0,13.8522 L 13.0,13.8523 L 13.0,13.8524 L 13.0,13.8526 L 13.0,13.8527" />
      <path d="M 6.75,-1.1558 L 6.75,-1.1557 L 6.75,-1.1556 L 6.75,-1.1555 L 6.75,-1.1554 L 6.75,-1.1553 L 6.75,-1.1552 L 6.75,-1.1551 L 6.75,-1.155 L 6.75,-1.1549 L 6.75,-1.1548 L 6.75,-1.1547 L 6.75,-1.1546 L 6.75,-1.1545 L 6.75,-1.1544 L 6.75,-1.1543 L 6.75,-1.1542 L 6.75,-1.1541 L 6.75,-1.154 L 6.75,-1.1539 L 6.75,-1.1538 L 6.75,-1.1537 L 6.75,-1.1536 L 6.75,-1.1535 L 6.75,-1.1534 L 6.75,-1.1533 L 6.75,-1.1532 L 6.75,-1.1531 L 6.75,-1.153 L 6.75,-1.1529 L 6.75,-1.1528 L 6.75,-1.1527 L 6.75,-1.1526 L 6.75,-1.1525 L 6.75,-1.1524 L 6.75,-1.1523 L 6.75,-1.1522 L 6.75,-1.1521 L 6.75,-1.152 L 6.75,-1.1519 L 6.75,-1.1518 L 6.75,-1.1517 L 6.75,-1.1516 L 6.75,-1.1515 L 6.75,-1.1514 L 6.75,-1.1513 L 6.75,-1.1512 L 6.75,-1.1511 L 6.75,-1.151 L 6.75,-1.1509 L 6.75,-1.1508 L 6.75,-1.1507 L 6.75,-1.1506 L 6.75,-1.1505 L 6.75,-1.1504 L 6.75,-1.1503 L 6.75,-1.1502 L 6.75,-1.1501 L 6.75,-1.15 L 6.75,-1.1499 L 6.75,-1.1498 L 6.75,-1.1497 L 6.75,-1.1496 L 6.75,-1.1495 L 6.75,-1.1494 L 6.75,-1.1493 L 6.75,-1.1492 L 6.75,-1.1491 L 6.75,-1.149 L 6.75,-1.1489 L 6.75,-1.1488 L 6.75,-1.1487" />
      <path d="M -6.75,-1.1558 L -6.75,-1.1557 L -6.75,-1.1556 L -6.75,-1.1555 L -6.75,-1.1554 L -6.75,-1.1553 L -6.75,-1.1552 L -6.75,-1.1551 L -6.75,-1.155 L -6.75,-1.1549 L -6.75,-1.1548 L -6.75,-1.1547 L -6.75,-1.1546 L -6.75,-1.1545 L -6.75,-1.1544 L -6.75,-1.1543 L -6.75,-1.1542 L -6.75,-1.1541 L -6.75,-1.154 L -6.75,-1.1539 L -6.75,-1.1538 L -6.75,-1.1537 L -6.75,-1.1536 L -6.75,-1.1535 L -6.75,-1.1534 L -6.75,-1.1533 L -6.75,-1.1532 L -6.75,-1.1531 L -6.75,-1.153 L -6.75,-1.1529 L -6.75,-1.1528 L -6.75,-1.1527 L -6.75,-1.1526 L -6.75,-1.1525 L -6.75,-1.1524 L -6.75,-1.1523 L -6.75,-1.1522 L -6.75,-1.1521 L -6.75,-1.152 L -6.75,-1.1519 L -6.75,-1.1518 L -6.75,-1.1517 L -6.75,-1.1516 L -6.75,-1.1515 L -6.75,-1.1514 L -6.75,-1.1513 L -6.75,-1.1512 L -6.75,-1.1511 L -6.75,-1.151 L -6.75,-1.1509 L -6.75,-1.1508 L -6.75,-1.1507 L -6.75,-1.1506 L -6.75,-1.1505 L -6.75,-1.1504 L -6.75,-1.1503 L -6.75,-1.1502 L -6.75,-1.1501 L -6.75,-1.15 L -6.75,-1.1499 L -6.75,-1.1498 L -6.75,-1.1497 L -6.75,-1.1496 L -6.75,-1.1495 L -6.75,-1.1494 L -6.75,-1.1493 L -6.75,-1.1492 L -6.75,-1.1491 L -6.75,-1.149 L -6.75,-1.1489 L -6.75,-1.1488 L -6.75,-1.1487" />
      <path d="M 24.4,-16.1672 L 24.4,-15.7505 L 24.4,-15.3339 L 24.4,-14.9172 L 24.4,-14.5005 L 24.4,-14.0839 L 24.4,-13.6672 L 24.4,-13.2505 L 24.4,-12.8339 L 24.4,-12.4172 L 24.4,-12.0005 L 24.4,-11.5839 L 24.4,-11.1672 L 24.4,-10.7505 L 24.4,-10.3339 L 24.4,-9.9172 L 24.4,-9.5005 L 24.4,-9.0839 L 24.4,-8.6672 L 24.4,-8.2505 L 24.4,-7.8339 L 24.4,-7.4172 L 24.4,-7.0005 L 24.4,-6.5839 L 24.4,-6.1672 L 24.4,-5.7505 L 24.4,-5.3339 L 24.4,-4.9172 L 24.4,-4.5005 L 24.4,-4.0839 L 24.4,-3.6672 L 24.4,-3.2505 L 24.4,-2.8339 L 24.4,-2.4172 L 24.4,-2.0005 L 24.4,-1.5839 L 24.4,-1.1672 L 24.4,-0.7505 L 24.4,-0.3339 L 24.4,0.0828 L 24.4,0.4995 L 24.4,0.9161 L 24.4,1.3328 L 24.4,1.7495 L 24.4,2.1661 L 24.4,2.5828 L 24.4,2.9995 L 24.4,3.4161 L 24.4,3.8328 L 24.4,4.2495 L 24.4,4.6661 L 24.4,5.0828 L 24.4,5.4995 L 24.4,5.9161 L 24.4,6.3328 L 24.4,6.7495 L 24.4,7.1661 L 24.4,7.5828 L 24.4,7.9995 L 24.4,8.4161 L 24.4,8.8328 L 24.4,9.2495 L 24.4,9.6661 L 24.4,10.0828 L 24.4,10.4995 L 24.4,10.9161 L 24.4,11.3328 L 24.4,11.7495 L 24.4,12.1661 L 24.4,12.5828 L 24.4,12.9995 L 24.4,13.4161 L 24.4,13.8328" />
      <path d="M 24.4,13.8328 L 24.4002,13.8332 L 24.4004,13.8336 L 24.4006,13.834 L 24.4008,13.8345 L 24.401,13.8349 L 24.4012,13.8353 L 24.4014,13.8357 L 24.4016,13.8361 L 24.4018,13.8365 L 24.402,13.837 L 24.4022,13.8374 L 24.4024,13.8378 L 24.4026,13.8382 L 24.4028,13.8386 L 24.403,13.839 L 24.4032,13.8395 L 24.4034,13.8399 L 24.4036,13.8403 L 24.4038,13.8407 L 24.404,13.8411 L 24.4042,13.8415 L 24.4044,13.8419 L 24.4046,13.8424 L 24.4048,13.8428 L 24.405,13.8432 L 24.4052,13.8436 L 24.4054,13.844 L 24.4056,13.8444 L 24.4058,13.8449 L 24.406,13.8453 L 24.4062,13.8457 L 24.4064,13.8461 L 24.4066,13.8465 L 24.4068,13.8469 L 24.407,13.8474 L 24.4072,13.8478 L 24.4074,13.8482 L 24.4076,13.8486 L 24.4078,13.849 L 24.408,13.8494 L 24.4082,13.8499 L 24.4084,13.8503 L 24.4086,13.8507 L 24.4088,13.8511 L 24.409,13.8515 L 24.4092,13.8519 L 24.4094,13.8524 L 24.4096,13.8528 L 24.4098,13.8532 L 24.41,13.8536 L 24.4102,13.854 L 24.4104,13.8544 L 24.4106,13.8548 L 24.4108,13.8553 L 24.411,13.8557 L 24.4112,13.8561 L 24.4114,13.8565 L 24.4116,13.8569 L 24.4118,13.8573 L 24.412,13.8578 L 24.4122,13.8582 L 24.4124,13.8586 L 24.4126,13.859 L 24.4128,13.8594 L 24.413,13.8598 L 24.4132,13.8603 L 24.4134,13.8607 L 24.4136,13.8611 L 24.4138,13.8615 L 24.414,13.8619 L 24.4142,13.8623 L 24.4144,13.8628" />
      <path d="M 24.4072,5.5978 L 24.4063,5.4103 L 24.406,5.2228 L 24.4057,5.0353 L 24.4055,4.8478 L 24.4053,4.6603 L 24.4051,4.4728 L 24.405,4.2853 L 24.4049,4.0978 L 24.4047,3.9103 L 24.4046,3.7228 L 24.4045,3.5353 L 24.4044,3.3478 L 24.4043,3.1603 L 24.4042,2.9728 L 24.4042,2.7853 L 24.4041,2.5978 L 24.404,2.4103 L 24.404,2.2228 L 24.4039,2.0353 L 24.4039,1.8478 L 24.4038,1.6603 L 24.4038,1.4728 L 24.4037,1.2853 L 24.4037,1.0978 L 24.4036,0.9103 L 24.4036,0.7228 L 24.4036,0.5353 L 24.4036,0.3478 L 24.4035,0.1603 L 24.4035,-0.0272 L 24.4035,-0.2147 L 24.4035,-0.4022 L 24.4035,-0.5897 L 24.4035,-0.7772 L 24.4035,-0.9647 L 24.4035,-1.1522 L 24.4035,-1.3397 L 24.4035,-1.5272 L 24.4035,-1.7147 L 24.4035,-1.9022 L 24.4035,-2.0897 L 24.4035,-2.2772 L 24.4035,-2.4647 L 24.4036,-2.6522 L 24.4036,-2.8397 L 24.4036,-3.0272 L 24.4036,-3.2147 L 24.4037,-3.4022 L 24.4037,-3.5897 L 24.4038,-3.7772 L 24.4038,-3.9647 L 24.4038,-4.1522 L 24.4039,-4.3397 L 24.404,-4.5272 L 24.404,-4.7147 L 24.4041,-4.9022 L 24.4042,-5.0897 L 24.4042,-5.2772 L 24.4043,-5.4647 L 24.4044,-5.6522 L 24.4045,-5.8397 L 24.4046,-6.0272 L 24.4047,-6.2147 L 24.4048,-6.4022 L 24.405,-6.5897 L 24.4051,-6.7772 L 24.4053,-6.9647 L 24.4055,-7.1522 L 24.4057,-7.3397 L 24.406,-7.5272 L 24.4063,-7.7147 L 24.4072,-7.9022" />
      <path d="M 24.4072,-7.9022 L 24.4081,-7.7147 L 24.4084,-7.5272 L 24.4087,-7.3397 L 24.4089,-7.1522 L 24.4091,-6.9647 L 24.4093,-6.7772 L 24.4094,-6.5897 L 24.4095,-6.4022 L 24.4097,-6.2147 L 24.4098,-6.0272 L 24.4099,-5.8397 L 24.41,-5.6522 L 24.4101,-5.4647 L 24.4102,-5.2772 L 24.4102,-5.0897 L 24.4103,-4.9022 L 24.4104,-4.7147 L 24.4104,-4.5272 L 24.4105,-4.3397 L 24.4105,-4.1522 L 24.4106,-3.9647 L 24.4106,-3.7772 L 24.4107,-3.5897 L 24.4107,-3.4022 L 24.4108,-3.2147 L 24.4108,-3.0272 L 24.4108,-2.8397 L 24.4108,-2.6522 L 24.4109,-2.4647 L 24.4109,-2.2772 L 24.4109,-2.0897 L 24.4109,-1.9022 L 24.4109,-1.7147 L 24.4109,-1.5272 L 24.4109,-1.3397 L 24.4109,-1.1522 L 24.4109,-0.9647 L 24.4109,-0.7772 L 24.4109,-0.5897 L 24.4109,-0.4022 L 24.4109,-0.2147 L 24.4109,-0.0272 L 24.4109,0.1603 L 24.4108,0.3478 L 24.4108,0.5353 L 24.4108,0.7228 L 24.4108,0.9103 L 24.4107,1.0978 L 24.4107,1.2853 L 24.4106,1.4728 L 24.4106,1.6603 L 24.4106,1.8478 L 24.4105,2.0353 L 24.4104,2.2228 L 24.4104,2.4103 L 24.4103,2.5978 L 24.4102,2.7853 L 24.4102,2.9728 L 24.4101,3.1603 L 24.41,3.3478 L 24.4099,3.5353 L 24.4098,3.7228 L 24.4097,3.9103 L 24.4096,4.0978 L 24.4094,4.2853 L 24.4093,4.4728 L 24.4091,4.6603 L 24.4089,4.8478 L 24.4087,5.0353 L 24.4084,5.2228 L 24.4081,5.4103 L 24.4072,5.5978" />
      <path d="M 24.4,13.8328 L 24.2972,13.8328 L 24.1944,13.8328 L 24.0917,13.8328 L 23.9889,13.8328 L 23.8861,13.8328 L 23.7833,13.8328 L 23.6806,13.8328 L 23.5778,13.8328 L 23.475,13.8328 L 23.3722,13.8328 L 23.2694,13.8328 L 23.1667,13.8328 L 23.0639,13.8328 L 22.9611,13.8328 L 22.8583,13.8328 L 22.7556,13.8328 L 22.6528,13.8328 L 22.55,13.8328 L 22.4472,13.8328 L 22.3444,13.8328 L 22.2417,13.8328 L 22.1389,13.8328 L 22.0361,13.8328 L 21.9333,13.8328 L 21.8306,13.8328 L 21.7278,13.8328 L 21.625,13.8328 L 21.5222,13.8328 L 21.4194,13.8328 L 21.3167,13.8328 L 21.2139,13.8328 L 21.1111,13.8328 L 21.0083,13.8328 L 20.9056,13.8328 L 20.8028,13.8328 L 20.7,13.8328 L 20.5972,13.8328 L 20.4944,13.8328 L 20.3917,13.8328 L 20.2889,13.8328 L 20.1861,13.8328 L 20.0833,13.8328 L 19.9806,13.8328 L 19.8778,13.8328 L 19.775,13.8328 L 19.6722,13.8328 L 19.5694,13.8328 L 19.4667,13.8328 L 19.3639,13.8328 L 19.2611,13.8328 L 19.1583,13.8328 L 19.0556,13.8328 L 18.9528,13.8328 L 18.85,13.8328 L 18.7472,13.8328 L 18.6444,13.8328 L 18.5417,13.8328 L 18.4389,13.8328 L 18.3361,13.8328 L 18.2333,13.8328 L 18.1306,13.8328 L 18.0278,13.8328 L 17.925,13.8328 L 17.8222,13.8328 L 17.7194,13.8328 L 17.6167,13.8328 L 17.5139,13.8328 L 17.4111,13.8328 L 17.3083,13.8328 L 17.2056,13.8328 L 17.1028,13.8328 L 17.0,13.8328" />
      <path d="M 24.4072,5.5978 L 24.3136,5.5978 L 24.22,5.5978 L 24.1264,5.5978 L 24.0328,5.5978 L 23.9391,5.5978 L 23.8455,5.5978 L 23.7519,5.5978 L 23.6583,5.5978 L 23.5647,5.5978 L 23.4711,5.5978 L 23.3775,5.5978 L 23.2839,5.5978 L 23.1903,5.5978 L 23.0966,5.5978 L 23.003,5.5978 L 22.9094,5.5978 L 22.8158,5.5978 L 22.7222,5.5978 L 22.6286,5.5978 L 22.535,5.5978 L 22.4414,5.5978 L 22.3478,5.5978 L 22.2541,5.5978 L 22.1605,5.5978 L 22.0669,5.5978 L 21.9733,5.5978 L 21.8797,5.5978 L 21.7861,5.5978 L 21.6925,5.5978 L 21.5989,5.5978 L 21.5053,5.5978 L 21.4116,5.5978 L 21.318,5.5978 L 21.2244,5.5978 L 21.1308,5.5978 L 21.0372,5.5978 L 20.9436,5.5978 L 20.85,5.5978 L 20.7564,5.5978 L 20.6628,5.5978 L 20.5691,5.5978 L 20.4755,5.5978 L 20.3819,5.5978 L 20.2883,5.5978 L 20.1947,5.5978 L 20.1011,5.5978 L 20.0075,5.5978 L 19.9139,5.5978 L 19.8203,5.5978 L 19.7266,5.5978 L 19.633,5.5978 L 19.5394,5.5978 L 19.4458,5.5978 L 19.3522,5.5978 L 19.2586,5.5978 L 19.165,5.5978 L 19.0714,5.5978 L 18.9778,5.5978 L 18.8841,5.5978 L 18.7905,5.5978 L 18.6969,5.5978 L 18.6033,5.5978 L 18.5097,5.5978 L 18.4161,5.5978 L 18.3225,5.5978 L 18.2289,5.5978 L 18.1353,5.5978 L 18.0416,5.5978 L 17.948,5.5978 L 17.8544,5.5978 L 17.7608,5.5978 L 17.6672,5.5978" />
      <path d="M 24.4072,-7.9022 L 24.3286,-7.9022 L 24.25,-7.9022 L 24.1714,-7.9022 L 24.0928,-7.9022 L 24.0141,-7.9022 L 23.9355,-7.9022 L 23.8569,-7.9022 L 23.7783,-7.9022 L 23.6997,-7.9022 L 23.6211,-7.9022 L 23.5425,-7.9022 L 23.4639,-7.9022 L 23.3853,-7.9022 L 23.3066,-7.9022 L 23.228,-7.9022 L 23.1494,-7.9022 L 23.0708,-7.9022 L 22.9922,-7.9022 L 22.9136,-7.9022 L 22.835,-7.9022 L 22.7564,-7.9022 L 22.6778,-7.9022 L 22.5991,-7.9022 L 22.5205,-7.9022 L 22.4419,-7.9022 L 22.3633,-7.9022 L 22.2847,-7.9022 L 22.2061,-7.9022 L 22.1275,-7.9022 L 22.0489,-7.9022 L 21.9703,-7.9022 L 21.8916,-7.9022 L 21.813,-7.9022 L 21.7344,-7.9022 L 21.6558,-7.9022 L 21.5772,-7.9022 L 21.4986,-7.9022 L 21.42,-7.9022 L 21.3414,-7.9022 L 21.2628,-7.9022 L 21.1841,-7.9022 L 21.1055,-7.9022 L 21.0269,-7.9022 L 20.9483,-7.9022 L 20.8697,-7.9022 L 20.7911,-7.9022 L 20.7125,-7.9022 L 20.6339,-7.9022 L 20.5553,-7.9022 L 20.4766,-7.9022 L 20.398,-7.9022 L 20.3194,-7.9022 L 20.2408,-7.9022 L 20.1622,-7.9022 L 20.0836,-7.9022 L 20.005,-7.9022 L 19.9264,-7.9022 L 19.8478,-7.9022 L 19.7691,-7.9022 L 19.6905,-7.9022 L 19.6119,-7.9022 L 19.5333,-7.9022 L 19.4547,-7.9022 L 19.3761,-7.9022 L 19.2975,-7.9022 L 19.2189,-7.9022 L 19.1403,-7.9022 L 19.0616,-7.9022 L 18.983,-7.9022 L 18.9044,-7.9022 L 18.8258,-7.9022 L 18.7472,-7.9022" />
    </g>
    <g fill="none" stroke="rgb(0,0,0)" stroke-width="0.2" id="Center" stroke-dasharray="6.35 1.27 1.27 1.27">
      <line x1="0.0" y1="-1.1516" x2="-15.4" y2="-1.1516" />
      <line x1="0.0" y1="-1.1516" x2="15.4" y2="-1.1516" />
      <line x1="0.0" y1="-1.1516" x2="0.0" y2="-18.5558" />
      <line x1="0.0" y1="-1.1516" x2="0.0" y2="16.2527" />
      <line x1="20.7072" y1="-1.1522" x2="14.6" y2="-1.1522" />
      <line x1="20.7072" y1="-1.1522" x2="26.8144" y2="-1.1522" />
    </g>
  </g>
</svg>