<?xml version='1.0' encoding='utf-8'?>
<svg width="37.9353mm" height="27.72mm" viewBox="-14.7934 -13.86 37.9353 27.72" version="1.1" xmlns="http://www.w3.org/2000/svg">
  <g transform="scale(1,-1)" stroke-linecap="round">
    <g fill="none" stroke="rgb(0,0,0)" stroke-width="0.4" id="Visible">
      <path d="M -10.9834,-10.05 L -10.9834,-9.7708 L -10.9834,-9.4917 L -10.9834,-9.2125 L -10.9834,-8.9333 L -10.9834,-8.6542 L -10.9834,-8.375 L -10.9834,-8.0958 L -10.9834,-7.8167 L -10.9834,-7.5375 L -10.9834,-7.2583 L -10.9834,-6.9792 L -10.9834,-6.7 L -10.9834,-6.4208 L -10.9834,-6.1417 L -10.9834,-5.8625 L -10.9834,-5.5833 L -10.9834,-5.3042 L -10.9834,-5.025 L -10.9834,-4.7458 L -10.9834,-4.4667 L -10.9834,-4.1875 L -10.9834,-3.9083 L -10.9834,-3.6292 L -10.9834,-3.35 L -10.9834,-3.0708 L -10.9834,-2.7917 L -10.9834,-2.5125 L -10.9834,-2.2333 L -10.9834,-1.9542 L -10.9834,-1.675 L -10.9834,-1.3958 L -10.9834,-1.1167 L -10.9834,-0.8375 L -10.9834,-0.5583 L -10.9834,-0.2792 L -10.9834,0.0 L -10.9834,0.2792 L -10.9834,0.5583 L -10.9834,0.8375 L -10.9834,1.1167 L -10.9834,1.3958 L -10.9834,1.675 L -10.9834,1.9542 L -10.9834,2.2333 L -10.9834,2.5125 L -10.9834,2.7917 L -10.9834,3.0708 L -10.9834,3.35 L -10.9834,3.6292 L -10.9834,3.9083 L -10.9834,4.1875 L -10.9834,4.4667 L -10.9834,4.7458 L -10.9834,5.025 L -10.9834,5.3042 L -10.9834,5.5833 L -10.9834,5.8625 L -10.9834,6.1417 L -10.9834,6.4208 L -10.9834,6.7 L -10.9834,6.9792 L -10.9834,7.2583 L -10.9834,7.5375 L -10.9834,7.8167 L -10.9834,8.0958 L -10.9834,8.375 L -10.9834,8.6542 L -10.9834,8.9333 L -10.9834,9.2125 L -10.9834,9.4917 L -10.9834,9.7708 L -10.9834,10.05" />
      <path d="M 5.8166,0.0 L 5.815,0.1472 L 5.8102,0.2944 L 5.8021,0.4414 L 5.7909,0.5882 L 5.7765,0.7347 L 5.7589,0.8809 L 5.7381,1.0266 L 5.7141,1.1719 L 5.6869,1.3166 L 5.6566,1.4606 L 5.6232,1.604 L 5.5867,1.7466 L 5.547,1.8884 L 5.5043,2.0293 L 5.4585,2.1692 L 5.4097,2.3081 L 5.3578,2.4459 L 5.303,2.5826 L 5.2452,2.718 L 5.1844,2.8521 L 5.1208,2.9848 L 5.0542,3.1162 L 4.9848,3.246 L 4.9126,3.3743 L 4.8377,3.501 L 4.7599,3.626 L 4.6795,3.7494 L 4.5964,3.8709 L 4.5106,3.9906 L 4.4223,4.1083 L 4.3314,4.2242 L 4.2381,4.338 L 4.1422,4.4498 L 4.044,4.5594 L 3.9433,4.6669 L 3.8404,4.7721 L 3.7352,4.8751 L 3.6277,4.9758 L 3.5181,5.0741 L 3.4064,5.1699 L 3.2926,5.2634 L 3.1768,5.3543 L 3.0591,5.4427 L 2.9394,5.5284 L 2.8179,5.6116 L 2.6946,5.6921 L 2.5696,5.7698 L 2.443,5.8449 L 2.3147,5.9171 L 2.1849,5.9866 L 2.0535,6.0531 L 1.9208,6.1168 L 1.7867,6.1776 L 1.6514,6.2355 L 1.5147,6.2904 L 1.377,6.3423 L 1.2381,6.3912 L 1.0982,6.437 L 0.9573,6.4798 L 0.8155,6.5195 L 0.6729,6.5561 L 0.5296,6.5896 L 0.3855,6.6199 L 0.2408,6.6471 L 0.0955,6.6711 L -0.0502,6.692 L -0.1964,6.7096 L -0.3429,6.7241 L -0.4897,6.7354 L -0.6367,6.7435 L -0.7838,6.7483 L -0.931,6.75" />
      <path d="M -0.931,-6.75 L -0.7838,-6.7483 L -0.6367,-6.7435 L -0.4897,-6.7354 L -0.3429,-6.7241 L -0.1964,-6.7096 L -0.0502,-6.692 L 0.0955,-6.6711 L 0.2408,-6.6471 L 0.3855,-6.6199 L 0.5296,-6.5896 L 0.6729,-6.5561 L 0.8155,-6.5195 L 0.9573,-6.4798 L 1.0982,-6.437 L 1.2381,-6.3912 L 1.377,-6.3423 L 1.5147,-6.2904 L 1.6514,-6.2355 L 1.7867,-6.1776 L 1.9208,-6.1168 L 2.0535,-6.0531 L 2.1849,-5.9866 L 2.3147,-5.9171 L 2.443,-5.8449 L 2.5696,-5.7698 L 2.6946,-5.6921 L 2.8179,-5.6116 L 2.9394,-5.5284 L 3.0591,-5.4427 L 3.1768,-5.3543 L 3.2926,-5.2634 L 3.4064,-5.1699 L 3.5181,-5.0741 L 3.6277,-4.9758 L 3.7352,-4.8751 L 3.8404,-4.7721 L 3.9433,-4.6669 L 4.044,-4.5594 L 4.1422,-4.4498 L 4.2381,-4.338 L 4.3314,-4.2242 L 4.4223,-4.1083 L 4.5106,-3.9906 L 4.5964,-3.8709 L 4.6795,-3.7494 L 4.7599,-3.626 L 4.8377,-3.501 L 4.9126,-3.3743 L 4.9848,-3.246 L 5.0542,-3.1162 L 5.1208,-2.9848 L 5.1844,-2.8521 L 5.2452,-2.718 L 5.303,-2.5826 L 5.3578,-2.4459 L 5.4097,-2.3081 L 5.4585,-2.1692 L 5.5043,-2.0293 L 5.547,-1.8884 L 5.5867,-1.7466 L 5.6232,-1.604 L 5.6566,-1.4606 L 5.6869,-1.3166 L 5.7141,-1.1719 L 5.7381,-1.0266 L 5.7589,-0.8809 L 5.7765,-0.7347 L 5.7909,-0.5882 L 5.8021,-0.4414 L 5.8102,-0.2944 L 5.815,-0.1472 L 5.8166,0.0" />
      <path d="M 9.1223,10.05 L 8.8431,10.05 L 8.564,10.05 L 8.2848,10.05 L 8.0056,10.05 L 7.7264,10.05 L 7.4472,10.05 L 7.168,10.05 L 6.8888,10.05 L 6.6096,10.05 L 6.3304,10.05 L 6.0512,10.05 L 5.772,10.05 L 5.4928,10.05 L 5.2136,10.05 L 4.9344,10.05 L 4.6552,10.05 L 4.3761,10.05 L 4.0969,10.05 L 3.8177,10.05 L 3.5385,10.05 L 3.2593,10.05 L 2.9801,10.05 L 2.7009,10.05 L 2.4217,10.05 L 2.1425,10.05 L 1.8633,10.05 L 1.5841,10.05 L 1.3049,10.05 L 1.0257,10.05 L 0.7465,10.05 L 0.4673,10.05 L 0.1881,10.05 L -0.091,10.05 L -0.3702,10.05 L -0.6494,10.05 L -0.9286,10.05 L -1.2078,10.05 L -1.487,10.05 L -1.7662,10.05 L -2.0454,10.05 L -2.3246,10.05 L -2.6038,10.05 L -2.883,10.05 L -3.1622,10.05 L -3.4414,10.05 L -3.7206,10.05 L -3.9998,10.05 L -4.279,10.05 L -4.5581,10.05 L -4.8373,10.05 L -5.1165,10.05 L -5.3957,10.05 L -5.6749,10.05 L -5.9541,10.05 L -6.2333,10.05 L -6.5125,10.05 L -6.7917,10.05 L -7.0709,10.05 L -7.3501,10.05 L -7.6293,10.05 L -7.9085,10.05 L -8.1877,10.05 L -8.4669,10.05 L -8.7461,10.05 L -9.0252,10.05 L -9.3044,10.05 L -9.5836,10.05 L -9.8628,10.05 L -10.142,10.05 L -10.4212,10.05 L -10.7004,10.05 L -10.9796,10.05" />
      <path d="M -10.9796,10.05 L -10.9797,10.05 L -10.9798,10.05 L -10.9799,10.05 L -10.98,10.05 L -10.9801,10.05 L -10.9802,10.05 L -10.9803,10.05 L -10.9804,10.05 L -10.9805,10.05 L -10.9806,10.05 L -10.9807,10.05 L -10.9808,10.05 L -10.9809,10.05 L -10.981,10.05 L -10.9811,10.05 L -10.9812,10.05 L -10.9813,10.05 L -10.9814,10.05 L -10.9815,10.05 L -10.9816,10.05 L -10.9817,10.05 L -10.9818,10.05 L -10.9819,10.05 L -10.982,10.05 L -10.9821,10.05 L -10.9822,10.05 L -10.9823,10.05 L -10.9824,10.05 L -10.9825,10.05 L -10.9826,10.05 L -10.9827,10.05 L -10.9828,10.05 L -10.9829,10.05 L -10.983,10.05 L -10.9831,10.05 L -10.9832,10.05 L -10.9833,10.05 L -10.9834,10.05" />
      <path d="M -10.9796,-10.05 L -10.9797,-10.05 L -10.9798,-10.05 L -10.9799,-10.05 L -10.98,-10.05 L -10.9801,-10.05 L -10.9802,-10.05 L -10.9803,-10.05 L -10.9804,-10.05 L -10.9805,-10.05 L -10.9806,-10.05 L -10.9807,-10.05 L -10.9808,-10.05 L -10.9809,-10.05 L -10.981,-10.05 L -10.9811,-10.05 L -10.9812,-10.05 L -10.9813,-10.05 L -10.9814,-10.05 L -10.9815,-10.05 L -10.9816,-10.05 L -10.9817,-10.05 L -10.9818,-10.05 L -10.9819,-10.05 L -10.982,-10.05 L -10.9821,-10.05 L -10.9822,-10.05 L -10.9823,-10.05 L -10.9824,-10.05 L -10.9825,-10.05 L -10.9826,-10.05 L -10.9827,-10.05 L -10.9828,-10.05 L -10.9829,-10.05 L -10.983,-10.05 L -10.9831,-10.05 L -10.9832,-10.05 L -10.9833,-10.05 L -10.9834,-10.05" />
      <path d="M -10.9796,-10.05 L -10.9796,-9.7708 L -10.9796,-9.4917 L -10.9796,-9.2125 L -10.9796,-8.9333 L -10.9796,-8.6542 L -10.9796,-8.375 L -10.9796,-8.0958 L -10.9796,-7.8167 L -10.9796,-7.5375 L -10.9796,-7.2583 L -10.9796,-6.9792 L -10.9796,-6.7 L -10.9796,-6.4208 L -10.9796,-6.1417 L -10.9796,-5.8625 L -10.9796,-5.5833 L -10.9796,-5.3042 L -10.9796,-5.025 L -10.9796,-4.7458 L -10.9796,-4.4667 L -10.9796,-4.1875 L -10.9796,-3.9083 L -10.9796,-3.6292 L -10.9796,-3.35 L -10.9796,-3.0708 L -10.9796,-2.7917 L -10.9796,-2.5125 L -10.9796,-2.2333 L -10.9796,-1.9542 L -10.9796,-1.675 L -10.9796,-1.3958 L -10.9796,-1.1167 L -10.9796,-0.8375 L -10.9796,-0.5583 L -10.9796,-0.2792 L -10.9796,0.0 L -10.9796,0.2792 L -10.9796,0.5583 L -10.9796,0.8375 L -10.9796,1.1167 L -10.9796,1.3958 L -10.9796,1.675 L -10.9796,1.9542 L -10.9796,2.2333 L -10.9796,2.5125 L -10.9796,2.7917 L -10.9796,3.0708 L -10.9796,3.35 L -10.9796,3.6292 L -10.9796,3.9083 L -10.9796,4.1875 L -10.9796,4.4667 L -10.9796,4.7458 L -10.9796,5.025 L -10.9796,5.3042 L -10.9796,5.5833 L -10.9796,5.8625 L -10.9796,6.1417 L -10.9796,6.4208 L -10.9796,6.7 L -10.9796,6.9792 L -10.9796,7.2583 L -10.9796,7.5375 L -10.9796,7.8167 L -10.9796,8.0958 L -10.9796,8.375 L -10.9796,8.6542 L -10.9796,8.9333 L -10.9796,9.2125 L -10.9796,9.4917 L -10.9796,9.7708 L -10.9796,10.05" />
      <path d="M 9.1223,10.05 L 9.1223,9.7708 L 9.1223,9.4917 L 9.1223,9.2125 L 9.1223,8.9333 L 9.1223,8.6542 L 9.1223,8.375 L 9.1223,8.0958 L 9.1223,7.8167 L 9.1223,7.5375 L 9.1223,7.2583 L 9.1223,6.9792 L 9.1223,6.7 L 9.1223,6.4208 L 9.1223,6.1417 L 9.1223,5.8625 L 9.1223,5.5833 L 9.1223,5.3042 L 9.1223,5.025 L 9.1223,4.7458 L 9.1223,4.4667 L 9.1223,4.1875 L 9.1223,3.9083 L 9.1223,3.6292 L 9.1223,3.35 L 9.1223,3.0708 L 9.1223,2.7917 L 9.1223,2.5125 L 9.1223,2.2333 L 9.1223,1.9542 L 9.1223,1.675 L 9.1223,1.3958 L 9.1223,1.1167 L 9.1223,0.8375 L 9.1223,0.5583 L 9.1223,0.2792 L 9.1223,0.0 L 9.1223,-0.2792 L 9.1223,-0.5583 L 9.1223,-0.8375 L 9.1223,-1.1167 L 9.1223,-1.3958 L 9.1223,-1.675 L 9.1223,-1.9542 L 9.1223,-2.2333 L 9.1223,-2.5125 L 9.1223,-2.7917 L 9.1223,-3.0708 L 9.1223,-3.35 L 9.1223,-3.6292 L 9.1223,-3.9083 L 9.1223,-4.1875 L 9.1223,-4.4667 L 9.1223,-4.7458 L 9.1223,-5.025 L 9.1223,-5.3042 L 9.1223,-5.5833 L 9.1223,-5.8625 L 9.1223,-6.1417 L 9.1223,-6.4208 L 9.1223,-6.7 L 9.1223,-6.9792 L 9.1223,-7.2583 L 9.1223,-7.5375 L 9.1223,-7.8167 L 9.1223,-8.0958 L 9.1223,-8.375 L 9.1223,-8.6542 L 9.1223,-8.9333 L 9.1223,-9.2125 L 9.1223,-9.4917 L 9.1223,-9.7708 L 9.1223,-10.05" />
      <path d="M 9.1223,-10.05 L 8.8431,-10.05 L 8.564,-10.05 L 8.2848,-10.05 L 8.0056,-10.05 L 7.7264,-10.05 L 7.4472,-10.05 L 7.168,-10.05 L 6.8888,-10.05 L 6.6096,-10.05 L 6.3304,-10.05 L 6.0512,-10.05 L 5.772,-10.05 L 5.4928,-10.05 L 5.2136,-10.05 L 4.9344,-10.05 L 4.6552,-10.05 L 4.3761,-10.05 L 4.0969,-10.05 L 3.8177,-10.05 L 3.5385,-10.05 L 3.2593,-10.05 L 2.9801,-10.05 L 2.7009,-10.05 L 2.4217,-10.05 L 2.1425,-10.05 L 1.8633,-10.05 L 1.5841,-10.05 L 1.3049,-10.05 L 1.0257,-10.05 L 0.7465,-10.05 L 0.4673,-10.05 L 0.1881,-10.05 L -0.091,-10.05 L -0.3702,-10.05 L -0.6494,-10.05 L -0.9286,-10.05 L -1.2078,-10.05 L -1.487,-10.05 L -1.7662,-10.05 L -2.0454,-10.05 L -2.3246,-10.05 L -2.6038,-10.05 L -2.883,-10.05 L -3.1622,-10.05 L -3.4414,-10.05 L -3.7206,-10.05 L -3.9998,-10.05 L -4.279,-10.05 L -4.5581,-10.05 L -4.8373,-10.05 L -5.1165,-10.05 L -5.3957,-10.05 L -5.6749,-10.05 L -5.9541,-10.05 L -6.2333,-10.05 L -6.5125,-10.05 L -6.7917,-10.05 L -7.0709,-10.05 L -7.3501,-10.05 L -7.6293,-10.05 L -7.9085,-10.05 L -8.1877,-10.05 L -8.4669,-10.05 L -8.7461,-10.05 L -9.0252,-10.05 L -9.3044,-10.05 L -9.5836,-10.05 L -9.8628,-10.05 L -10.142,-10.05 L -10.4212,-10.05 L -10.7004,-10.05 L -10.9796,-10.05" />
      <path d="M 5.822,0.0 L 5.8138,0.147 L 5.8055,0.2939 L 5.7973,0.4409 L 5.789,0.5878 L 5.7808,0.7348 L 5.7584,0.8802 L 5.7338,1.0253 L 5.7091,1.1704 L 5.6845,1.3155 L 5.6598,1.4606 L 5.6236,1.6031 L 5.5829,1.7446 L 5.5421,1.886 L 5.5014,2.0274 L 5.4606,2.1689 L 5.411,2.3072 L 5.3546,2.4432 L 5.2983,2.5792 L 5.242,2.7151 L 5.1856,2.8511 L 5.1229,2.984 L 5.0517,3.1129 L 4.9805,3.2417 L 4.9093,3.3705 L 4.8381,3.4993 L 4.7629,3.6256 L 4.6777,3.7457 L 4.5925,3.8657 L 4.5073,3.9858 L 4.4222,4.1058 L 4.3351,4.2244 L 4.237,4.3341 L 4.139,4.4438 L 4.0409,4.5536 L 3.9428,4.6633 L 3.8447,4.7731 L 3.7349,4.8712 L 3.6252,4.9692 L 3.5154,5.0673 L 3.4057,5.1654 L 3.2959,5.2635 L 3.1773,5.3505 L 3.0573,5.4356 L 2.9372,5.5208 L 2.8172,5.606 L 2.6971,5.6911 L 2.5708,5.7663 L 2.442,5.8375 L 2.3131,5.9087 L 2.1843,5.9799 L 2.0555,6.0511 L 1.9225,6.1138 L 1.7866,6.1701 L 1.6506,6.2264 L 1.5146,6.2827 L 1.3786,6.3391 L 1.2403,6.3887 L 1.0988,6.4294 L 0.9574,6.4702 L 0.8159,6.5109 L 0.6745,6.5517 L 0.532,6.5878 L 0.3869,6.6125 L 0.2418,6.6371 L 0.0967,6.6618 L -0.0484,6.6864 L -0.1938,6.7087 L -0.3408,6.717 L -0.4877,6.7252 L -0.6347,6.7335 L -0.7817,6.7417 L -0.9286,6.75" />
      <path d="M -0.9286,6.75 L -1.2207,6.7171 L -1.5128,6.6842 L -1.8048,6.6513 L -2.0969,6.6184 L -2.389,6.5855 L -2.6685,6.4976 L -2.946,6.4005 L -3.2234,6.3035 L -3.5008,6.2064 L -3.7782,6.1093 L -4.0353,5.9699 L -4.2842,5.8136 L -4.533,5.6572 L -4.7819,5.5008 L -5.0308,5.3445 L -5.2562,5.1587 L -5.4641,4.9509 L -5.6719,4.7431 L -5.8798,4.5352 L -6.0876,4.3274 L -6.2734,4.102 L -6.4298,3.8532 L -6.5862,3.6043 L -6.7426,3.3554 L -6.899,3.1066 L -7.0385,2.8496 L -7.1355,2.5721 L -7.2326,2.2947 L -7.3297,2.0173 L -7.4268,1.7399 L -7.5147,1.4604 L -7.5476,1.1683 L -7.5805,0.8762 L -7.6135,0.5841 L -7.6464,0.2921 L -7.6793,-0.0 L -7.6464,-0.2921 L -7.6135,-0.5841 L -7.5805,-0.8762 L -7.5476,-1.1683 L -7.5147,-1.4604 L -7.4268,-1.7399 L -7.3297,-2.0173 L -7.2326,-2.2947 L -7.1355,-2.5721 L -7.0385,-2.8496 L -6.899,-3.1066 L -6.7426,-3.3554 L -6.5862,-3.6043 L -6.4298,-3.8532 L -6.2734,-4.102 L -6.0876,-4.3274 L -5.8798,-4.5352 L -5.6719,-4.7431 L -5.4641,-4.9509 L -5.2562,-5.1587 L -5.0308,-5.3445 L -4.7819,-5.5008 L -4.533,-5.6572 L -4.2842,-5.8136 L -4.0353,-5.9699 L -3.7782,-6.1093 L -3.5008,-6.2064 L -3.2234,-6.3035 L -2.946,-6.4005 L -2.6685,-6.4976 L -2.389,-6.5855 L -2.0969,-6.6184 L -1.8048,-6.6513 L -1.5128,-6.6842 L -1.2207,-6.7171 L -0.9286,-6.75" />
      <path d="M -0.9286,-6.75 L -0.7817,-6.7417 L -0.6347,-6.7335 L -0.4877,-6.7252 L -0.3408,-6.717 L -0.1938,-6.7087 L -0.0484,-6.6864 L 0.0967,-6.6618 L 0.2418,-6.6371 L 0.3869,-6.6125 L 0.532,-6.5878 L 0.6745,-6.5517 L 0.8159,-6.5109 L 0.9574,-6.4702 L 1.0988,-6.4294 L 1.2403,-6.3887 L 1.3786,-6.3391 L 1.5146,-6.2827 L 1.6506,-6.2264 L 1.7866,-6.1701 L 1.9225,-6.1138 L 2.0555,-6.0511 L 2.1843,-5.9799 L 2.3131,-5.9087 L 2.442,-5.8375 L 2.5708,-5.7663 L 2.6971,-5.6911 L 2.8172,-5.606 L 2.9372,-5.5208 L 3.0573,-5.4356 L 3.1773,-5.3505 L 3.2959,-5.2635 L 3.4057,-5.1654 L 3.5154,-5.0673 L 3.6252,-4.9692 L 3.7349,-4.8712 L 3.8447,-4.7731 L 3.9428,-4.6633 L 4.0409,-4.5536 L 4.139,-4.4438 L 4.237,-4.3341 L 4.3351,-4.2244 L 4.4222,-4.1058 L 4.5073,-3.9858 L 4.5925,-3.8657 L 4.6777,-3.7457 L 4.7629,-3.6256 L 4.8381,-3.4993 L 4.9093,-3.3705 L 4.9805,-3.2417 L 5.0517,-3.1129 L 5.1229,-2.984 L 5.1856,-2.8511 L 5.242,-2.7151 L 5.2983,-2.5792 L 5.3546,-2.4432 L 5.411,-2.3072 L 5.4606,-2.1689 L 5.5014,-2.0274 L 5.5421,-1.886 L 5.5829,-1.7446 L 5.6236,-1.6031 L 5.6598,-1.4606 L 5.6845,-1.3155 L 5.7091,-1.1704 L 5.7338,-1.0253 L 5.7584,-0.8802 L 5.7808,-0.7348 L 5.789,-0.5878 L 5.7973,-0.4409 L 5.8055,-0.2939 L 5.8138,-0.147 L 5.822,-0.0" />
      <path d="M 19.3319,-10.9716 L 19.3318,-10.9719 L 19.3317,-10.9721 L 19.3315,-10.9724 L 19.3314,-10.9727 L 19.3313,-10.9729 L 19.3311,-10.9732 L 19.331,-10.9734 L 19.3309,-10.9737 L 19.3307,-10.974 L 19.3306,-10.9742 L 19.3305,-10.9745 L 19.3303,-10.9747 L 19.3302,-10.975 L 19.3301,-10.9753 L 19.3299,-10.9755 L 19.3298,-10.9758 L 19.3297,-10.976 L 19.3295,-10.9763 L 19.3294,-10.9766 L 19.3293,-10.9768 L 19.3291,-10.9771 L 19.329,-10.9773 L 19.3289,-10.9776 L 19.3287,-10.9779 L 19.3286,-10.9781 L 19.3285,-10.9784 L 19.3283,-10.9786 L 19.3282,-10.9789 L 19.3281,-10.9792 L 19.3279,-10.9794 L 19.3278,-10.9797 L 19.3277,-10.9799 L 19.3275,-10.9802 L 19.3274,-10.9805 L 19.3273,-10.9807 L 19.3271,-10.981 L 19.327,-10.9812 L 19.3269,-10.9815 L 19.3267,-10.9818 L 19.3266,-10.982 L 19.3265,-10.9823 L 19.3263,-10.9825 L 19.3262,-10.9828 L 19.3261,-10.9831 L 19.3259,-10.9833 L 19.3258,-10.9836 L 19.3257,-10.9838 L 19.3255,-10.9841 L 19.3254,-10.9844 L 19.3253,-10.9846 L 19.3251,-10.9849 L 19.325,-10.9851 L 19.3249,-10.9854 L 19.3247,-10.9857 L 19.3246,-10.9859 L 19.3245,-10.9862 L 19.3243,-10.9864 L 19.3242,-10.9867 L 19.3241,-10.987 L 19.3239,-10.9872 L 19.3238,-10.9875 L 19.3237,-10.9877 L 19.3235,-10.988 L 19.3234,-10.9883 L 19.3233,-10.9885 L 19.3231,-10.9888 L 19.323,-10.989 L 19.3229,-10.9893 L 19.3227,-10.9896 L 19.3226,-10.9898 L 19.3225,-10.9901 L 19.3223,-10.9903" />
      <path d="M 19.3319,-10.9716 L 19.3319,-10.6925 L 19.3319,-10.4133 L 19.3319,-10.1341 L 19.3319,-9.855 L 19.3319,-9.5758 L 19.3319,-9.2966 L 19.3319,-9.0175 L 19.3319,-8.7383 L 19.3319,-8.4591 L 19.3319,-8.18 L 19.3319,-7.9008 L 19.3319,-7.6216 L 19.3319,-7.3425 L 19.3319,-7.0633 L 19.3319,-6.7841 L 19.3319,-6.505 L 19.3319,-6.2258 L 19.3319,-5.9466 L 19.3319,-5.6675 L 19.3319,-5.3883 L 19.3319,-5.1091 L 19.3319,-4.83 L 19.3319,-4.5508 L 19.3319,-4.2716 L 19.3319,-3.9925 L 19.3319,-3.7133 L 19.3319,-3.4341 L 19.3319,-3.155 L 19.3319,-2.8758 L 19.3319,-2.5966 L 19.3319,-2.3175 L 19.3319,-2.0383 L 19.3319,-1.7591 L 19.3319,-1.48 L 19.3319,-1.2008 L 19.3319,-0.9216 L 19.3319,-0.6425 L 19.3319,-0.3633 L 19.3319,-0.0841 L 19.3319,0.195 L 19.3319,0.4742 L 19.3319,0.7534 L 19.3319,1.0325 L 19.3319,1.3117 L 19.3319,1.5909 L 19.3319,1.87 L 19.3319,2.1492 L 19.3319,2.4284 L 19.3319,2.7075 L 19.3319,2.9867 L 19.3319,3.2659 L 19.3319,3.545 L 19.3319,3.8242 L 19.3319,4.1034 L 19.3319,4.3825 L 19.3319,4.6617 L 19.3319,4.9409 L 19.3319,5.22 L 19.3319,5.4992 L 19.3319,5.7784 L 19.3319,6.0575 L 19.3319,6.3367 L 19.3319,6.6159 L 19.3319,6.895 L 19.3319,7.1742 L 19.3319,7.4534 L 19.3319,7.7325 L 19.3319,8.0117 L 19.3319,8.2909 L 19.3319,8.57 L 19.3319,8.8492 L 19.3319,9.1284" />
      <path d="M 13.1223,9.1097 L 13.1515,8.8305 L 13.1807,8.5513 L 13.2098,8.2722 L 13.239,7.993 L 13.2682,7.7138 L 13.2973,7.4347 L 13.3265,7.1555 L 13.3557,6.8763 L 13.3848,6.5972 L 13.414,6.318 L 13.4432,6.0388 L 13.4723,5.7597 L 13.5015,5.4805 L 13.5307,5.2013 L 13.5598,4.9222 L 13.589,4.643 L 13.6182,4.3638 L 13.6473,4.0847 L 13.6765,3.8055 L 13.7057,3.5263 L 13.7348,3.2472 L 13.764,2.968 L 13.7932,2.6888 L 13.8223,2.4097 L 13.8515,2.1305 L 13.8807,1.8513 L 13.9098,1.5722 L 13.939,1.293 L 13.9682,1.0138 L 13.9973,0.7347 L 14.0265,0.4555 L 14.0557,0.1763 L 14.0848,-0.1028 L 14.114,-0.382 L 14.1432,-0.6612 L 14.1723,-0.9403 L 14.2015,-1.2195 L 14.2307,-1.4987 L 14.2598,-1.7778 L 14.289,-2.057 L 14.3182,-2.3362 L 14.3473,-2.6153 L 14.3765,-2.8945 L 14.4057,-3.1737 L 14.4348,-3.4528 L 14.464,-3.732 L 14.4932,-4.0112 L 14.5223,-4.2903 L 14.5515,-4.5695 L 14.5807,-4.8487 L 14.6098,-5.1278 L 14.639,-5.407 L 14.6682,-5.6862 L 14.6973,-5.9653 L 14.7265,-6.2445 L 14.7557,-6.5237 L 14.7848,-6.8028 L 14.814,-7.082 L 14.8432,-7.3612 L 14.8723,-7.6403 L 14.9015,-7.9195 L 14.9307,-8.1987 L 14.9598,-8.4778 L 14.989,-8.757 L 15.0182,-9.0362 L 15.0473,-9.3153 L 15.0765,-9.5945 L 15.1057,-9.8737 L 15.1348,-10.1528 L 15.164,-10.432 L 15.1932,-10.7112 L 15.2223,-10.9903" />
      <path d="M 15.2223,-10.9903 L 15.2793,-10.9903 L 15.3362,-10.9903 L 15.3932,-10.9903 L 15.4501,-10.9903 L 15.5071,-10.9903 L 15.564,-10.9903 L 15.621,-10.9903 L 15.6779,-10.9903 L 15.7348,-10.9903 L 15.7918,-10.9903 L 15.8487,-10.9903 L 15.9057,-10.9903 L 15.9626,-10.9903 L 16.0196,-10.9903 L 16.0765,-10.9903 L 16.1335,-10.9903 L 16.1904,-10.9903 L 16.2473,-10.9903 L 16.3043,-10.9903 L 16.3612,-10.9903 L 16.4182,-10.9903 L 16.4751,-10.9903 L 16.5321,-10.9903 L 16.589,-10.9903 L 16.646,-10.9903 L 16.7029,-10.9903 L 16.7598,-10.9903 L 16.8168,-10.9903 L 16.8737,-10.9903 L 16.9307,-10.9903 L 16.9876,-10.9903 L 17.0446,-10.9903 L 17.1015,-10.9903 L 17.1585,-10.9903 L 17.2154,-10.9903 L 17.2723,-10.9903 L 17.3293,-10.9903 L 17.3862,-10.9903 L 17.4432,-10.9903 L 17.5001,-10.9903 L 17.5571,-10.9903 L 17.614,-10.9903 L 17.671,-10.9903 L 17.7279,-10.9903 L 17.7848,-10.9903 L 17.8418,-10.9903 L 17.8987,-10.9903 L 17.9557,-10.9903 L 18.0126,-10.9903 L 18.0696,-10.9903 L 18.1265,-10.9903 L 18.1835,-10.9903 L 18.2404,-10.9903 L 18.2973,-10.9903 L 18.3543,-10.9903 L 18.4112,-10.9903 L 18.4682,-10.9903 L 18.5251,-10.9903 L 18.5821,-10.9903 L 18.639,-10.9903 L 18.696,-10.9903 L 18.7529,-10.9903 L 18.8098,-10.9903 L 18.8668,-10.9903 L 18.9237,-10.9903 L 18.9807,-10.9903 L 19.0376,-10.9903 L 19.0946,-10.9903 L 19.1515,-10.9903 L 19.2085,-10.9903 L 19.2654,-10.9903 L 19.3223,-10.9903" />
      <path d="M 15.2319,-10.9716 L 15.2889,-10.9716 L 15.3458,-10.9716 L 15.4028,-10.9716 L 15.4597,-10.9716 L 15.5166,-10.9716 L 15.5736,-10.9716 L 15.6305,-10.9716 L 15.6875,-10.9716 L 15.7444,-10.9716 L 15.8014,-10.9716 L 15.8583,-10.9716 L 15.9153,-10.9716 L 15.9722,-10.9716 L 16.0291,-10.9716 L 16.0861,-10.9716 L 16.143,-10.9716 L 16.2,-10.9716 L 16.2569,-10.9716 L 16.3139,-10.9716 L 16.3708,-10.9716 L 16.4278,-10.9716 L 16.4847,-10.9716 L 16.5416,-10.9716 L 16.5986,-10.9716 L 16.6555,-10.9716 L 16.7125,-10.9716 L 16.7694,-10.9716 L 16.8264,-10.9716 L 16.8833,-10.9716 L 16.9403,-10.9716 L 16.9972,-10.9716 L 17.0541,-10.9716 L 17.1111,-10.9716 L 17.168,-10.9716 L 17.225,-10.9716 L 17.2819,-10.9716 L 17.3389,-10.9716 L 17.3958,-10.9716 L 17.4528,-10.9716 L 17.5097,-10.9716 L 17.5666,-10.9716 L 17.6236,-10.9716 L 17.6805,-10.9716 L 17.7375,-10.9716 L 17.7944,-10.9716 L 17.8514,-10.9716 L 17.9083,-10.9716 L 17.9653,-10.9716 L 18.0222,-10.9716 L 18.0791,-10.9716 L 18.1361,-10.9716 L 18.193,-10.9716 L 18.25,-10.9716 L 18.3069,-10.9716 L 18.3639,-10.9716 L 18.4208,-10.9716 L 18.4778,-10.9716 L 18.5347,-10.9716 L 18.5916,-10.9716 L 18.6486,-10.9716 L 18.7055,-10.9716 L 18.7625,-10.9716 L 18.8194,-10.9716 L 18.8764,-10.9716 L 18.9333,-10.9716 L 18.9903,-10.9716 L 19.0472,-10.9716 L 19.1041,-10.9716 L 19.1611,-10.9716 L 19.218,-10.9716 L 19.275,-10.9716 L 19.3319,-10.9716" />
      <path d="M 15.2319,-10.9716 L 15.2318,-10.9719 L 15.2317,-10.9721 L 15.2315,-10.9724 L 15.2314,-10.9727 L 15.2313,-10.9729 L 15.2311,-10.9732 L 15.231,-10.9734 L 15.2309,-10.9737 L 15.2307,-10.974 L 15.2306,-10.9742 L 15.2305,-10.9745 L 15.2303,-10.9747 L 15.2302,-10.975 L 15.2301,-10.9753 L 15.2299,-10.9755 L 15.2298,-10.9758 L 15.2297,-10.976 L 15.2295,-10.9763 L 15.2294,-10.9766 L 15.2293,-10.9768 L 15.2291,-10.9771 L 15.229,-10.9773 L 15.2289,-10.9776 L 15.2287,-10.9779 L 15.2286,-10.9781 L 15.2285,-10.9784 L 15.2283,-10.9786 L 15.2282,-10.9789 L 15.2281,-10.9792 L 15.2279,-10.9794 L 15.2278,-10.9797 L 15.2277,-10.9799 L 15.2275,-10.9802 L 15.2274,-10.9805 L 15.2273,-10.9807 L 15.2271,-10.981 L 15.227,-10.9812 L 15.2269,-10.9815 L 15.2267,-10.9818 L 15.2266,-10.982 L 15.2265,-10.9823 L 15.2263,-10.9825 L 15.2262,-10.9828 L 15.2261,-10.9831 L 15.2259,-10.9833 L 15.2258,-10.9836 L 15.2257,-10.9838 L 15.2255,-10.9841 L 15.2254,-10.9844 L 15.2253,-10.9846 L 15.2251,-10.9849 L 15.225,-10.9851 L 15.2249,-10.9854 L 15.2247,-10.9857 L 15.2246,-10.9859 L 15.2245,-10.9862 L 15.2243,-10.9864 L 15.2242,-10.9867 L 15.2241,-10.987 L 15.2239,-10.9872 L 15.2238,-10.9875 L 15.2237,-10.9877 L 15.2235,-10.988 L 15.2234,-10.9883 L 15.2233,-10.9885 L 15.2231,-10.9888 L 15.223,-10.989 L 15.2229,-10.9893 L 15.2227,-10.9896 L 15.2226,-10.9898 L 15.2225,-10.9901 L 15.2223,-10.9903" />
      <path d="M 13.1223,9.1097 L 13.1225,9.1099 L 13.1226,9.1102 L 13.1227,9.1104 L 13.1229,9.1107 L 13.123,9.111 L 13.1231,9.1112 L 13.1233,9.1115 L 13.1234,9.1117 L 13.1235,9.112 L 13.1237,9.1123 L 13.1238,9.1125 L 13.1239,9.1128 L 13.1241,9.113 L 13.1242,9.1133 L 13.1243,9.1136 L 13.1245,9.1138 L 13.1246,9.1141 L 13.1247,9.1143 L 13.1249,9.1146 L 13.125,9.1149 L 13.1251,9.1151 L 13.1253,9.1154 L 13.1254,9.1156 L 13.1255,9.1159 L 13.1257,9.1162 L 13.1258,9.1164 L 13.1259,9.1167 L 13.1261,9.1169 L 13.1262,9.1172 L 13.1263,9.1175 L 13.1265,9.1177 L 13.1266,9.118 L 13.1267,9.1182 L 13.1269,9.1185 L 13.127,9.1188 L 13.1271,9.119 L 13.1273,9.1193 L 13.1274,9.1195 L 13.1275,9.1198 L 13.1277,9.1201 L 13.1278,9.1203 L 13.1279,9.1206 L 13.1281,9.1208 L 13.1282,9.1211 L 13.1283,9.1214 L 13.1285,9.1216 L 13.1286,9.1219 L 13.1287,9.1221 L 13.1289,9.1224 L 13.129,9.1227 L 13.1291,9.1229 L 13.1293,9.1232 L 13.1294,9.1234 L 13.1295,9.1237 L 13.1297,9.124 L 13.1298,9.1242 L 13.1299,9.1245 L 13.1301,9.1247 L 13.1302,9.125 L 13.1303,9.1253 L 13.1305,9.1255 L 13.1306,9.1258 L 13.1307,9.126 L 13.1309,9.1263 L 13.131,9.1266 L 13.1311,9.1268 L 13.1313,9.1271 L 13.1314,9.1273 L 13.1315,9.1276 L 13.1317,9.1279 L 13.1318,9.1281 L 13.1319,9.1284" />
      <path d="M 19.3319,9.1284 L 19.2458,9.1284 L 19.1597,9.1284 L 19.0736,9.1284 L 18.9875,9.1284 L 18.9014,9.1284 L 18.8153,9.1284 L 18.7291,9.1284 L 18.643,9.1284 L 18.5569,9.1284 L 18.4708,9.1284 L 18.3847,9.1284 L 18.2986,9.1284 L 18.2125,9.1284 L 18.1264,9.1284 L 18.0403,9.1284 L 17.9541,9.1284 L 17.868,9.1284 L 17.7819,9.1284 L 17.6958,9.1284 L 17.6097,9.1284 L 17.5236,9.1284 L 17.4375,9.1284 L 17.3514,9.1284 L 17.2653,9.1284 L 17.1791,9.1284 L 17.093,9.1284 L 17.0069,9.1284 L 16.9208,9.1284 L 16.8347,9.1284 L 16.7486,9.1284 L 16.6625,9.1284 L 16.5764,9.1284 L 16.4903,9.1284 L 16.4041,9.1284 L 16.318,9.1284 L 16.2319,9.1284 L 16.1458,9.1284 L 16.0597,9.1284 L 15.9736,9.1284 L 15.8875,9.1284 L 15.8014,9.1284 L 15.7153,9.1284 L 15.6291,9.1284 L 15.543,9.1284 L 15.4569,9.1284 L 15.3708,9.1284 L 15.2847,9.1284 L 15.1986,9.1284 L 15.1125,9.1284 L 15.0264,9.1284 L 14.9403,9.1284 L 14.8541,9.1284 L 14.768,9.1284 L 14.6819,9.1284 L 14.5958,9.1284 L 14.5097,9.1284 L 14.4236,9.1284 L 14.3375,9.1284 L 14.2514,9.1284 L 14.1653,9.1284 L 14.0791,9.1284 L 13.993,9.1284 L 13.9069,9.1284 L 13.8208,9.1284 L 13.7347,9.1284 L 13.6486,9.1284 L 13.5625,9.1284 L 13.4764,9.1284 L 13.3903,9.1284 L 13.3041,9.1284 L 13.218,9.1284 L 13.1319,9.1284" />
      <path d="M 13.1319,9.1284 L 13.1611,8.8492 L 13.1903,8.57 L 13.2194,8.2909 L 13.2486,8.0117 L 13.2778,7.7325 L 13.3069,7.4534 L 13.3361,7.1742 L 13.3653,6.895 L 13.3944,6.6159 L 13.4236,6.3367 L 13.4528,6.0575 L 13.4819,5.7784 L 13.5111,5.4992 L 13.5403,5.22 L 13.5694,4.9409 L 13.5986,4.6617 L 13.6278,4.3825 L 13.6569,4.1034 L 13.6861,3.8242 L 13.7153,3.545 L 13.7444,3.2659 L 13.7736,2.9867 L 13.8028,2.7075 L 13.8319,2.4284 L 13.8611,2.1492 L 13.8903,1.87 L 13.9194,1.5909 L 13.9486,1.3117 L 13.9778,1.0325 L 14.0069,0.7534 L 14.0361,0.4742 L 14.0653,0.195 L 14.0944,-0.0841 L 14.1236,-0.3633 L 14.1528,-0.6425 L 14.1819,-0.9216 L 14.2111,-1.2008 L 14.2403,-1.48 L 14.2694,-1.7591 L 14.2986,-2.0383 L 14.3278,-2.3175 L 14.3569,-2.5966 L 14.3861,-2.8758 L 14.4153,-3.155 L 14.4444,-3.4341 L 14.4736,-3.7133 L 14.5028,-3.9925 L 14.5319,-4.2716 L 14.5611,-4.5508 L 14.5903,-4.83 L 14.6194,-5.1091 L 14.6486,-5.3883 L 14.6778,-5.6675 L 14.7069,-5.9466 L 14.7361,-6.2258 L 14.7653,-6.505 L 14.7944,-6.7841 L 14.8236,-7.0633 L 14.8528,-7.3425 L 14.8819,-7.6216 L 14.9111,-7.9008 L 14.9403,-8.18 L 14.9694,-8.4591 L 14.9986,-8.7383 L 15.0278,-9.0175 L 15.0569,-9.2966 L 15.0861,-9.5758 L 15.1153,-9.855 L 15.1444,-10.1341 L 15.1736,-10.4133 L 15.2028,-10.6925 L 15.2319,-10.9716" />
      <path d="M 13.4719,5.819 L 13.4906,5.6314 L 13.5099,5.4439 L 13.5292,5.2564 L 13.5485,5.0688 L 13.568,4.8813 L 13.5874,4.6938 L 13.6068,4.5063 L 13.6262,4.3188 L 13.6457,4.1313 L 13.6652,3.9437 L 13.6847,3.7562 L 13.7042,3.5687 L 13.7236,3.3812 L 13.7431,3.1937 L 13.7627,3.0062 L 13.7822,2.8187 L 13.8017,2.6312 L 13.8212,2.4437 L 13.8408,2.2562 L 13.8603,2.0687 L 13.8798,1.8812 L 13.8994,1.6937 L 13.9189,1.5061 L 13.9385,1.3186 L 13.958,1.1311 L 13.9776,0.9436 L 13.9971,0.7561 L 14.0167,0.5686 L 14.0363,0.3811 L 14.0558,0.1936 L 14.0754,0.0061 L 14.095,-0.1814 L 14.1146,-0.3689 L 14.1341,-0.5564 L 14.1537,-0.7439 L 14.1733,-0.9314 L 14.1929,-1.1189 L 14.2125,-1.3064 L 14.2321,-1.4939 L 14.2517,-1.6814 L 14.2713,-1.8689 L 14.2909,-2.0564 L 14.3105,-2.2439 L 14.3301,-2.4314 L 14.3497,-2.6189 L 14.3694,-2.8064 L 14.389,-2.9939 L 14.4086,-3.1814 L 14.4282,-3.3689 L 14.4479,-3.5563 L 14.4675,-3.7438 L 14.4871,-3.9313 L 14.5068,-4.1188 L 14.5264,-4.3063 L 14.5461,-4.4938 L 14.5658,-4.6813 L 14.5854,-4.8688 L 14.6051,-5.0563 L 14.6248,-5.2438 L 14.6444,-5.4313 L 14.6641,-5.6188 L 14.6838,-5.8063 L 14.7035,-5.9937 L 14.7232,-6.1812 L 14.743,-6.3687 L 14.7627,-6.5562 L 14.7825,-6.7437 L 14.8023,-6.9312 L 14.8221,-7.1186 L 14.842,-7.3061 L 14.8619,-7.4936 L 14.8824,-7.681" />
      <path d="M 14.8824,-7.681 L 14.8636,-7.4934 L 14.8444,-7.3059 L 14.8251,-7.1183 L 14.8057,-6.9308 L 14.7863,-6.7433 L 14.7669,-6.5558 L 14.7475,-6.3682 L 14.728,-6.1807 L 14.7086,-5.9932 L 14.6891,-5.8057 L 14.6696,-5.6182 L 14.6501,-5.4307 L 14.6306,-5.2432 L 14.6111,-5.0557 L 14.5916,-4.8682 L 14.5721,-4.6807 L 14.5526,-4.4931 L 14.533,-4.3056 L 14.5135,-4.1181 L 14.494,-3.9306 L 14.4744,-3.7431 L 14.4549,-3.5556 L 14.4353,-3.3681 L 14.4158,-3.1806 L 14.3962,-2.9931 L 14.3767,-2.8056 L 14.3571,-2.6181 L 14.3376,-2.4306 L 14.318,-2.2431 L 14.2984,-2.0556 L 14.2788,-1.8681 L 14.2593,-1.6806 L 14.2397,-1.4931 L 14.2201,-1.3056 L 14.2005,-1.1181 L 14.181,-0.9306 L 14.1614,-0.7431 L 14.1418,-0.5556 L 14.1222,-0.3681 L 14.1026,-0.1806 L 14.083,0.0069 L 14.0634,0.1944 L 14.0438,0.3819 L 14.0241,0.5694 L 14.0045,0.7569 L 13.9849,0.9444 L 13.9653,1.1319 L 13.9456,1.3194 L 13.926,1.5069 L 13.9064,1.6944 L 13.8868,1.8819 L 13.8671,2.0694 L 13.8475,2.2569 L 13.8278,2.4444 L 13.8082,2.6319 L 13.7885,2.8194 L 13.7688,3.0068 L 13.7492,3.1943 L 13.7295,3.3818 L 13.7098,3.5693 L 13.6901,3.7568 L 13.6704,3.9443 L 13.6507,4.1318 L 13.631,4.3193 L 13.6113,4.5068 L 13.5915,4.6942 L 13.5718,4.8817 L 13.552,5.0692 L 13.5322,5.2567 L 13.5123,5.4441 L 13.4924,5.6316 L 13.4719,5.819" />
    </g>
    <g fill="none" stroke="rgb(110,110,110)" stroke-width="0.3" id="Hidden" stroke-dasharray="3.6 0.9">
      <path d="M -10.9834,10.05 L -10.7043,10.05 L -10.4251,10.05 L -10.1459,10.05 L -9.8668,10.05 L -9.5876,10.05 L -9.3084,10.05 L -9.0293,10.05 L -8.7501,10.05 L -8.4709,10.05 L -8.1918,10.05 L -7.9126,10.05 L -7.6334,10.05 L -7.3543,10.05 L -7.0751,10.05 L -6.7959,10.05 L -6.5168,10.05 L -6.2376,10.05 L -5.9584,10.05 L -5.6793,10.05 L -5.4001,10.05 L -5.1209,10.05 L -4.8418,10.05 L -4.5626,10.05 L -4.2834,10.05 L -4.0043,10.05 L -3.7251,10.05 L -3.4459,10.05 L -3.1668,10.05 L -2.8876,10.05 L -2.6084,10.05 L -2.3293,10.05 L -2.0501,10.05 L -1.7709,10.05 L -1.4918,10.05 L -1.2126,10.05 L -0.9334,10.05 L -0.6543,10.05 L -0.3751,10.05 L -0.0959,10.05 L 0.1832,10.05 L 0.4624,10.05 L 0.7416,10.05 L 1.0207,10.05 L 1.2999,10.05 L 1.5791,10.05 L 1.8582,10.05 L 2.1374,10.05 L 2.4166,10.05 L 2.6957,10.05 L 2.9749,10.05 L 3.2541,10.05 L 3.5332,10.05 L 3.8124,10.05 L 4.0916,10.05 L 4.3707,10.05 L 4.6499,10.05 L 4.9291,10.05 L 5.2082,10.05 L 5.4874,10.05 L 5.7666,10.05 L 6.0457,10.05 L 6.3249,10.05 L 6.6041,10.05 L 6.8832,10.05 L 7.1624,10.05 L 7.4416,10.05 L 7.7207,10.05 L 7.9999,10.05 L 8.2791,10.05 L 8.5582,10.05 L 8.8374,10.05 L 9.1166,10.05" />
      <path d="M 9.1166,10.05 L 9.1166,9.7708 L 9.1166,9.4917 L 9.1166,9.2125 L 9.1166,8.9333 L 9.1166,8.6542 L 9.1166,8.375 L 9.1166,8.0958 L 9.1166,7.8167 L 9.1166,7.5375 L 9.1166,7.2583 L 9.1166,6.9792 L 9.1166,6.7 L 9.1166,6.4208 L 9.1166,6.1417 L 9.1166,5.8625 L 9.1166,5.5833 L 9.1166,5.3042 L 9.1166,5.025 L 9.1166,4.7458 L 9.1166,4.4667 L 9.1166,4.1875 L 9.1166,3.9083 L 9.1166,3.6292 L 9.1166,3.35 L 9.1166,3.0708 L 9.1166,2.7917 L 9.1166,2.5125 L 9.1166,2.2333 L 9.1166,1.9542 L 9.1166,1.675 L 9.1166,1.3958 L 9.1166,1.1167 L 9.1166,0.8375 L 9.1166,0.5583 L 9.1166,0.2792 L 9.1166,0.0 L 9.1166,-0.2792 L 9.1166,-0.5583 L 9.1166,-0.8375 L 9.1166,-1.1167 L 9.1166,-1.3958 L 9.1166,-1.675 L 9.1166,-1.9542 L 9.1166,-2.2333 L 9.1166,-2.5125 L 9.1166,-2.7917 L 9.1166,-3.0708 L 9.1166,-3.35 L 9.1166,-3.6292 L 9.1166,-3.9083 L 9.1166,-4.1875 L 9.1166,-4.4667 L 9.1166,-4.7458 L 9.1166,-5.025 L 9.1166,-5.3042 L 9.1166,-5.5833 L 9.1166,-5.8625 L 9.1166,-6.1417 L 9.1166,-6.4208 L 9.1166,-6.7 L 9.1166,-6.9792 L 9.1166,-7.2583 L 9.1166,-7.5375 L 9.1166,-7.8167 L 9.1166,-8.0958 L 9.1166,-8.375 L 9.1166,-8.6542 L 9.1166,-8.9333 L 9.1166,-9.2125 L 9.1166,-9.4917 L 9.1166,-9.7708 L 9.1166,-10.05" />
      <path d="M -10.9834,-10.05 L -10.7043,-10.05 L -10.4251,-10.05 L -10.1459,-10.05 L -9.8668,-10.05 L -9.5876,-10.05 L -9.3084,-10.05 L -9.0293,-10.05 L -8.7501,-10.05 L -8.4709,-10.05 L -8.1918,-10.05 L -7.9126,-10.05 L -7.6334,-10.05 L -7.3543,-10.05 L -7.0751,-10.05 L -6.7959,-10.05 L -6.5168,-10.05 L -6.2376,-10.05 L -5.9584,-10.05 L -5.6793,-10.05 L -5.4001,-10.05 L -5.1209,-10.05 L -4.8418,-10.05 L -4.5626,-10.05 L -4.2834,-10.05 L -4.0043,-10.05 L -3.7251,-10.05 L -3.4459,-10.05 L -3.1668,-10.05 L -2.8876,-10.05 L -2.6084,-10.05 L -2.3293,-10.05 L -2.0501,-10.05 L -1.7709,-10.05 L -1.4918,-10.05 L -1.2126,-10.05 L -0.9334,-10.05 L -0.6543,-10.05 L -0.3751,-10.05 L -0.0959,-10.05 L 0.1832,-10.05 L 0.4624,-10.05 L 0.7416,-10.05 L 1.0207,-10.05 L 1.2999,-10.05 L 1.5791,-10.05 L 1.8582,-10.05 L 2.1374,-10.05 L 2.4166,-10.05 L 2.6957,-10.05 L 2.9749,-10.05 L 3.2541,-10.05 L 3.5332,-10.05 L 3.8124,-10.05 L 4.0916,-10.05 L 4.3707,-10.05 L 4.6499,-10.05 L 4.9291,-10.05 L 5.2082,-10.05 L 5.4874,-10.05 L 5.7666,-10.05 L 6.0457,-10.05 L 6.3249,-10.05 L 6.6041,-10.05 L 6.8832,-10.05 L 7.1624,-10.05 L 7.4416,-10.05 L 7.7207,-10.05 L 7.9999,-10.05 L 8.2791,-10.05 L 8.5582,-10.05 L 8.8374,-10.05 L 9.1166,-10.05" />
      <path d="M -0.931,6.75 L -0.9311,6.75 L -0.9312,6.75 L -0.9313,6.75 L -0.9314,6.75 L -0.9315,6.75 L -0.9316,6.75 L -0.9317,6.75 L -0.9318,6.75 L -0.9319,6.75 L -0.932,6.75 L -0.9321,6.75 L -0.9322,6.75 L -0.9323,6.75 L -0.9324,6.75 L -0.9325,6.75 L -0.9326,6.75 L -0.9327,6.75 L -0.9328,6.75 L -0.9329,6.75 L -0.933,6.75 L -0.9331,6.75 L -0.9332,6.75 L -0.9333,6.75 L -0.9334,6.75" />
      <path d="M -0.9334,6.75 L -1.2279,6.7436 L -1.5217,6.7243 L -1.8145,6.6923 L -2.1055,6.6475 L -2.3944,6.59 L -2.6805,6.52 L -2.9632,6.4376 L -3.2421,6.3429 L -3.5165,6.2362 L -3.7861,6.1176 L -4.0502,5.9873 L -4.3084,5.8457 L -4.5602,5.6929 L -4.8051,5.5293 L -5.0426,5.3551 L -5.2722,5.1708 L -5.4937,4.9766 L -5.7064,4.773 L -5.91,4.5602 L -6.1042,4.3388 L -6.2886,4.1091 L -6.4627,3.8716 L -6.6263,3.6268 L -6.7791,3.375 L -6.9207,3.1168 L -7.051,2.8527 L -7.1696,2.5831 L -7.2763,2.3086 L -7.371,2.0298 L -7.4534,1.747 L -7.5234,1.461 L -7.5809,1.1721 L -7.6257,0.8811 L -7.6577,0.5883 L -7.677,0.2944 L -7.6834,0.0 L -7.677,-0.2944 L -7.6577,-0.5883 L -7.6257,-0.8811 L -7.5809,-1.1721 L -7.5234,-1.461 L -7.4534,-1.747 L -7.371,-2.0298 L -7.2763,-2.3086 L -7.1696,-2.5831 L -7.051,-2.8527 L -6.9207,-3.1168 L -6.7791,-3.375 L -6.6263,-3.6268 L -6.4627,-3.8716 L -6.2886,-4.1091 L -6.1042,-4.3388 L -5.91,-4.5602 L -5.7064,-4.773 L -5.4937,-4.9766 L -5.2722,-5.1708 L -5.0426,-5.3551 L -4.8051,-5.5293 L -4.5602,-5.6929 L -4.3084,-5.8457 L -4.0502,-5.9873 L -3.7861,-6.1176 L -3.5165,-6.2362 L -3.2421,-6.3429 L -2.9632,-6.4376 L -2.6805,-6.52 L -2.3944,-6.59 L -2.1055,-6.6475 L -1.8145,-6.6923 L -1.5217,-6.7243 L -1.2279,-6.7436 L -0.9334,-6.75" />
      <path d="M -0.9334,-6.75 L -0.9333,-6.75 L -0.9332,-6.75 L -0.9331,-6.75 L -0.933,-6.75 L -0.9329,-6.75 L -0.9328,-6.75 L -0.9327,-6.75 L -0.9326,-6.75 L -0.9325,-6.75 L -0.9324,-6.75 L -0.9323,-6.75 L -0.9322,-6.75 L -0.9321,-6.75 L -0.932,-6.75 L -0.9319,-6.75 L -0.9318,-6.75 L -0.9317,-6.75 L -0.9316,-6.75 L -0.9315,-6.75 L -0.9314,-6.75 L -0.9313,-6.75 L -0.9312,-6.75 L -0.9311,-6.75 L -0.931,-6.75" />
      <path d="M 9.1166,10.05 L 9.1167,10.05 L 9.1168,10.05 L 9.1169,10.05 L 9.117,10.05 L 9.1171,10.05 L 9.1172,10.05 L 9.1173,10.05 L 9.1174,10.05 L 9.1175,10.05 L 9.1176,10.05 L 9.1177,10.05 L 9.1178,10.05 L 9.1179,10.05 L 9.118,10.05 L 9.1181,10.05 L 9.1182,10.05 L 9.1183,10.05 L 9.1184,10.05 L 9.1185,10.05 L 9.1186,10.05 L 9.1187,10.05 L 9.1188,10.05 L 9.1189,10.05 L 9.119,10.05 L 9.1191,10.05 L 9.1192,10.05 L 9.1193,10.05 L 9.1194,10.05 L 9.1195,10.05 L 9.1196,10.05 L 9.1197,10.05 L 9.1198,10.05 L 9.1199,10.05 L 9.12,10.05 L 9.1201,10.05 L 9.1202,10.05 L 9.1203,10.05 L 9.1204,10.05 L 9.1205,10.05 L 9.1206,10.05 L 9.1207,10.05 L 9.1208,10.05 L 9.1209,10.05 L 9.121,10.05 L 9.1211,10.05 L 9.1212,10.05 L 9.1213,10.05 L 9.1214,10.05 L 9.1215,10.05 L 9.1216,10.05 L 9.1217,10.05 L 9.1218,10.05 L 9.1219,10.05 L 9.122,10.05 L 9.1221,10.05 L 9.1222,10.05 L 9.1223,10.05" />
      <path d="M 9.1166,-10.05 L 9.1167,-10.05 L 9.1168,-10.05 L 9.1169,-10.05 L 9.117,-10.05 L 9.1171,-10.05 L 9.1172,-10.05 L 9.1173,-10.05 L 9.1174,-10.05 L 9.1175,-10.05 L 9.1176,-10.05 L 9.1177,-10.05 L 9.1178,-10.05 L 9.1179,-10.05 L 9.118,-10.05 L 9.1181,-10.05 L 9.1182,-10.05 L 9.1183,-10.05 L 9.1184,-10.05 L 9.1185,-10.05 L 9.1186,-10.05 L 9.1187,-10.05 L 9.1188,-10.05 L 9.1189,-10.05 L 9.119,-10.05 L 9.1191,-10.05 L 9.1192,-10.05 L 9.1193,-10.05 L 9.1194,-10.05 L 9.1195,-10.05 L 9.1196,-10.05 L 9.1197,-10.05 L 9.1198,-10.05 L 9.1199,-10.05 L 9.12,-10.05 L 9.1201,-10.05 L 9.1202,-10.05 L 9.1203,-10.05 L 9.1204,-10.05 L 9.1205,-10.05 L 9.1206,-10.05 L 9.1207,-10.05 L 9.1208,-10.05 L 9.1209,-10.05 L 9.121,-10.05 L 9.1211,-10.05 L 9.1212,-10.05 L 9.1213,-10.05 L 9.1214,-10.05 L 9.1215,-10.05 L 9.1216,-10.05 L 9.1217,-10.05 L 9.1218,-10.05 L 9.1219,-10.05 L 9.122,-10.05 L 9.1221,-10.05 L 9.1222,-10.05 L 9.1223,-10.05" />
      <path d="M -0.9334,-6.75 L -0.9333,-6.75 L -0.9332,-6.75 L -0.9331,-6.75 L -0.933,-6.75 L -0.9329,-6.75 L -0.9328,-6.75 L -0.9327,-6.75 L -0.9326,-6.75 L -0.9325,-6.75 L -0.9324,-6.75 L -0.9323,-6.75 L -0.9322,-6.75 L -0.9321,-6.75 L -0.932,-6.75 L -0.9319,-6.75 L -0.9318,-6.75 L -0.9317,-6.75 L -0.9316,-6.75 L -0.9315,-6.75 L -0.9314,-6.75 L -0.9313,-6.75 L -0.9312,-6.75 L -0.9311,-6.75 L -0.931,-6.75 L -0.9309,-6.75 L -0.9308,-6.75 L -0.9307,-6.75 L -0.9306,-6.75 L -0.9305,-6.75 L -0.9304,-6.75 L -0.9303,-6.75 L -0.9302,-6.75 L -0.9301,-6.75 L -0.93,-6.75 L -0.9299,-6.75 L -0.9298,-6.75 L -0.9297,-6.75 L -0.9296,-6.75 L -0.9295,-6.75 L -0.9294,-6.75 L -0.9293,-6.75 L -0.9292,-6.75 L -0.9291,-6.75 L -0.929,-6.75 L -0.9289,-6.75 L -0.9288,-6.75 L -0.9287,-6.75 L -0.9286,-6.75" />
      <path d="M -0.9334,6.75 L -0.9333,6.75 L -0.9332,6.75 L -0.9331,6.75 L -0.933,6.75 L -0.9329,6.75 L -0.9328,6.75 L -0.9327,6.75 L -0.9326,6.75 L -0.9325,6.75 L -0.9324,6.75 L -0.9323,6.75 L -0.9322,6.75 L -0.9321,6.75 L -0.932,6.75 L -0.9319,6.75 L -0.9318,6.75 L -0.9317,6.75 L -0.9316,6.75 L -0.9315,6.75 L -0.9314,6.75 L -0.9313,6.75 L -0.9312,6.75 L -0.9311,6.75 L -0.931,6.75 L -0.9309,6.75 L -0.9308,6.75 L -0.9307,6.75 L -0.9306,6.75 L -0.9305,6.75 L -0.9304,6.75 L -0.9303,6.75 L -0.9302,6.75 L -0.9301,6.75 L -0.93,6.75 L -0.9299,6.75 L -0.9298,6.75 L -0.9297,6.75 L -0.9296,6.75 L -0.9295,6.75 L -0.9294,6.75 L -0.9293,6.75 L -0.9292,6.75 L -0.9291,6.75 L -0.929,6.75 L -0.9289,6.75 L -0.9288,6.75 L -0.9287,6.75 L -0.9286,6.75" />
      <path d="M 19.3223,-10.9903 L 19.3223,-10.7112 L 19.3223,-10.432 L 19.3223,-10.1528 L 19.3223,-9.8737 L 19.3223,-9.5945 L 19.3223,-9.3153 L 19.3223,-9.0362 L 19.3223,-8.757 L 19.3223,-8.4778 L 19.3223,-8.1987 L 19.3223,-7.9195 L 19.3223,-7.6403 L 19.3223,-7.3612 L 19.3223,-7.082 L 19.3223,-6.8028 L 19.3223,-6.5237 L 19.3223,-6.2445 L 19.3223,-5.9653 L 19.3223,-5.6862 L 19.3223,-5.407 L 19.3223,-5.1278 L 19.3223,-4.8487 L 19.3223,-4.5695 L 19.3223,-4.2903 L 19.3223,-4.0112 L 19.3223,-3.732 L 19.3223,-3.4528 L 19.3223,-3.1737 L 19.3223,-2.8945 L 19.3223,-2.6153 L 19.3223,-2.3362 L 19.3223,-2.057 L 19.3223,-1.7778 L 19.3223,-1.4987 L 19.3223,-1.2195 L 19.3223,-0.9403 L 19.3223,-0.6612 L 19.3223,-0.382 L 19.3223,-0.1028 L 19.3223,0.1763 L 19.3223,0.4555 L 19.3223,0.7347 L 19.3223,1.0138 L 19.3223,1.293 L 19.3223,1.5722 L 19.3223,1.8513 L 19.3223,2.1305 L 19.3223,2.4097 L 19.3223,2.6888 L 19.3223,2.968 L 19.3223,3.2472 L 19.3223,3.5263 L 19.3223,3.8055 L 19.3223,4.0847 L 19.3223,4.3638 L 19.3223,4.643 L 19.3223,4.9222 L 19.3223,5.2013 L 19.3223,5.4805 L 19.3223,5.7597 L 19.3223,6.0388 L 19.3223,6.318 L 19.3223,6.5972 L 19.3223,6.8763 L 19.3223,7.1555 L 19.3223,7.4347 L 19.3223,7.7138 L 19.3223,7.993 L 19.3223,8.2722 L 19.3223,8.5513 L 19.3223,8.8305 L 19.3223,9.1097" />
      <path d="M 19.3223,9.1097 L 19.3225,9.1099 L 19.3226,9.1102 L 19.3227,9.1104 L 19.3229,9.1107 L 19.323,9.111 L 19.3231,9.1112 L 19.3233,9.1115 L 19.3234,9.1117 L 19.3235,9.112 L 19.3237,9.1123 L 19.3238,9.1125 L 19.3239,9.1128 L 19.3241,9.113 L 19.3242,9.1133 L 19.3243,9.1136 L 19.3245,9.1138 L 19.3246,9.1141 L 19.3247,9.1143 L 19.3249,9.1146 L 19.325,9.1149 L 19.3251,9.1151 L 19.3253,9.1154 L 19.3254,9.1156 L 19.3255,9.1159 L 19.3257,9.1162 L 19.3258,9.1164 L 19.3259,9.1167 L 19.3261,9.1169 L 19.3262,9.1172 L 19.3263,9.1175 L 19.3265,9.1177 L 19.3266,9.118 L 19.3267,9.1182 L 19.3269,9.1185 L 19.327,9.1188 L 19.3271,9.119 L 19.3273,9.1193 L 19.3274,9.1195 L 19.3275,9.1198 L 19.3277,9.1201 L 19.3278,9.1203 L 19.3279,9.1206 L 19.3281,9.1208 L 19.3282,9.1211 L 19.3283,9.1214 L 19.3285,9.1216 L 19.3286,9.1219 L 19.3287,9.1221 L 19.3289,9.1224 L 19.329,9.1227 L 19.3291,9.1229 L 19.3293,9.1232 L 19.3294,9.1234 L 19.3295,9.1237 L 19.3297,9.124 L 19.3298,9.1242 L 19.3299,9.1245 L 19.3301,9.1247 L 19.3302,9.125 L 19.3303,9.1253 L 19.3305,9.1255 L 19.3306,9.1258 L 19.3307,9.126 L 19.3309,9.1263 L 19.331,9.1266 L 19.3311,9.1268 L 19.3313,9.1271 L 19.3314,9.1273 L 19.3315,9.1276 L 19.3317,9.1279 L 19.3318,9.1281 L 19.3319,9.1284" />
      <path d="M 19.3271,5.819 L 19.3264,5.6315 L 19.3261,5.444 L 19.3258,5.2565 L 19.3257,5.069 L 19.3255,4.8815 L 19.3254,4.694 L 19.3252,4.5065 L 19.3251,4.319 L 19.325,4.1315 L 19.3249,3.944 L 19.3248,3.7565 L 19.3247,3.569 L 19.3247,3.3815 L 19.3246,3.194 L 19.3245,3.0065 L 19.3245,2.819 L 19.3244,2.6315 L 19.3243,2.444 L 19.3243,2.2565 L 19.3243,2.069 L 19.3242,1.8815 L 19.3242,1.694 L 19.3241,1.5065 L 19.3241,1.319 L 19.3241,1.1315 L 19.324,0.944 L 19.324,0.7565 L 19.324,0.569 L 19.324,0.3815 L 19.324,0.194 L 19.3239,0.0065 L 19.3239,-0.181 L 19.3239,-0.3685 L 19.3239,-0.556 L 19.3239,-0.7435 L 19.3239,-0.931 L 19.3239,-1.1185 L 19.3239,-1.306 L 19.3239,-1.4935 L 19.3239,-1.681 L 19.3239,-1.8685 L 19.324,-2.056 L 19.324,-2.2435 L 19.324,-2.431 L 19.324,-2.6185 L 19.324,-2.806 L 19.3241,-2.9935 L 19.3241,-3.181 L 19.3241,-3.3685 L 19.3242,-3.556 L 19.3242,-3.7435 L 19.3242,-3.931 L 19.3243,-4.1185 L 19.3243,-4.306 L 19.3244,-4.4935 L 19.3245,-4.681 L 19.3245,-4.8685 L 19.3246,-5.056 L 19.3247,-5.2435 L 19.3247,-5.431 L 19.3248,-5.6185 L 19.3249,-5.806 L 19.325,-5.9935 L 19.3251,-6.181 L 19.3252,-6.3685 L 19.3253,-6.556 L 19.3255,-6.7435 L 19.3257,-6.931 L 19.3258,-7.1185 L 19.3261,-7.306 L 19.3264,-7.4935 L 19.3271,-7.681" />
      <path d="M 19.3271,-7.681 L 19.3279,-7.4935 L 19.3282,-7.306 L 19.3284,-7.1185 L 19.3286,-6.931 L 19.3288,-6.7435 L 19.3289,-6.556 L 19.329,-6.3685 L 19.3291,-6.181 L 19.3293,-5.9935 L 19.3294,-5.806 L 19.3294,-5.6185 L 19.3295,-5.431 L 19.3296,-5.2435 L 19.3297,-5.056 L 19.3297,-4.8685 L 19.3298,-4.681 L 19.3299,-4.4935 L 19.3299,-4.306 L 19.33,-4.1185 L 19.33,-3.931 L 19.3301,-3.7435 L 19.3301,-3.556 L 19.3301,-3.3685 L 19.3302,-3.181 L 19.3302,-2.9935 L 19.3302,-2.806 L 19.3302,-2.6185 L 19.3303,-2.431 L 19.3303,-2.2435 L 19.3303,-2.056 L 19.3303,-1.8685 L 19.3303,-1.681 L 19.3303,-1.4935 L 19.3303,-1.306 L 19.3303,-1.1185 L 19.3303,-0.931 L 19.3303,-0.7435 L 19.3303,-0.556 L 19.3303,-0.3685 L 19.3303,-0.181 L 19.3303,0.0065 L 19.3303,0.194 L 19.3303,0.3815 L 19.3303,0.569 L 19.3302,0.7565 L 19.3302,0.944 L 19.3302,1.1315 L 19.3302,1.319 L 19.3301,1.5065 L 19.3301,1.694 L 19.3301,1.8815 L 19.33,2.069 L 19.33,2.2565 L 19.3299,2.444 L 19.3299,2.6315 L 19.3298,2.819 L 19.3297,3.0065 L 19.3297,3.194 L 19.3296,3.3815 L 19.3295,3.569 L 19.3294,3.7565 L 19.3294,3.944 L 19.3293,4.1315 L 19.3292,4.319 L 19.329,4.5065 L 19.3289,4.694 L 19.3288,4.8815 L 19.3286,5.069 L 19.3284,5.2565 L 19.3282,5.444 L 19.3279,5.6315 L 19.3271,5.819" />
      <path d="M 19.3223,9.1097 L 19.2362,9.1097 L 19.1501,9.1097 L 19.064,9.1097 L 18.9779,9.1097 L 18.8918,9.1097 L 18.8057,9.1097 L 18.7196,9.1097 L 18.6335,9.1097 L 18.5473,9.1097 L 18.4612,9.1097 L 18.3751,9.1097 L 18.289,9.1097 L 18.2029,9.1097 L 18.1168,9.1097 L 18.0307,9.1097 L 17.9446,9.1097 L 17.8585,9.1097 L 17.7723,9.1097 L 17.6862,9.1097 L 17.6001,9.1097 L 17.514,9.1097 L 17.4279,9.1097 L 17.3418,9.1097 L 17.2557,9.1097 L 17.1696,9.1097 L 17.0835,9.1097 L 16.9973,9.1097 L 16.9112,9.1097 L 16.8251,9.1097 L 16.739,9.1097 L 16.6529,9.1097 L 16.5668,9.1097 L 16.4807,9.1097 L 16.3946,9.1097 L 16.3085,9.1097 L 16.2223,9.1097 L 16.1362,9.1097 L 16.0501,9.1097 L 15.964,9.1097 L 15.8779,9.1097 L 15.7918,9.1097 L 15.7057,9.1097 L 15.6196,9.1097 L 15.5335,9.1097 L 15.4473,9.1097 L 15.3612,9.1097 L 15.2751,9.1097 L 15.189,9.1097 L 15.1029,9.1097 L 15.0168,9.1097 L 14.9307,9.1097 L 14.8446,9.1097 L 14.7585,9.1097 L 14.6723,9.1097 L 14.5862,9.1097 L 14.5001,9.1097 L 14.414,9.1097 L 14.3279,9.1097 L 14.2418,9.1097 L 14.1557,9.1097 L 14.0696,9.1097 L 13.9835,9.1097 L 13.8973,9.1097 L 13.8112,9.1097 L 13.7251,9.1097 L 13.639,9.1097 L 13.5529,9.1097 L 13.4668,9.1097 L 13.3807,9.1097 L 13.2946,9.1097 L 13.2085,9.1097 L 13.1223,9.1097" />
      <path d="M 19.3271,5.819 L 19.2458,5.819 L 19.1645,5.819 L 19.0832,5.819 L 19.0018,5.819 L 18.9205,5.819 L 18.8392,5.819 L 18.7579,5.819 L 18.6766,5.819 L 18.5952,5.819 L 18.5139,5.819 L 18.4326,5.819 L 18.3513,5.819 L 18.2699,5.819 L 18.1886,5.819 L 18.1073,5.819 L 18.026,5.819 L 17.9446,5.819 L 17.8633,5.819 L 17.782,5.819 L 17.7007,5.819 L 17.6194,5.819 L 17.538,5.819 L 17.4567,5.819 L 17.3754,5.819 L 17.2941,5.819 L 17.2127,5.819 L 17.1314,5.819 L 17.0501,5.819 L 16.9688,5.819 L 16.8875,5.819 L 16.8061,5.819 L 16.7248,5.819 L 16.6435,5.819 L 16.5622,5.819 L 16.4808,5.819 L 16.3995,5.819 L 16.3182,5.819 L 16.2369,5.819 L 16.1556,5.819 L 16.0742,5.819 L 15.9929,5.819 L 15.9116,5.819 L 15.8303,5.819 L 15.7489,5.819 L 15.6676,5.819 L 15.5863,5.819 L 15.505,5.819 L 15.4237,5.819 L 15.3423,5.819 L 15.261,5.819 L 15.1797,5.819 L 15.0984,5.819 L 15.017,5.819 L 14.9357,5.819 L 14.8544,5.819 L 14.7731,5.819 L 14.6917,5.819 L 14.6104,5.819 L 14.5291,5.819 L 14.4478,5.819 L 14.3665,5.819 L 14.2851,5.819 L 14.2038,5.819 L 14.1225,5.819 L 14.0412,5.819 L 13.9598,5.819 L 13.8785,5.819 L 13.7972,5.819 L 13.7159,5.819 L 13.6346,5.819 L 13.5532,5.819 L 13.4719,5.819" />
      <path d="M 19.3271,-7.681 L 19.2654,-7.681 L 19.2037,-7.681 L 19.1419,-7.681 L 19.0802,-7.681 L 19.0185,-7.681 L 18.9567,-7.681 L 18.895,-7.681 L 18.8333,-7.681 L 18.7715,-7.681 L 18.7098,-7.681 L 18.6481,-7.681 L 18.5863,-7.681 L 18.5246,-7.681 L 18.4629,-7.681 L 18.4011,-7.681 L 18.3394,-7.681 L 18.2777,-7.681 L 18.2159,-7.681 L 18.1542,-7.681 L 18.0925,-7.681 L 18.0307,-7.681 L 17.969,-7.681 L 17.9073,-7.681 L 17.8455,-7.681 L 17.7838,-7.681 L 17.7221,-7.681 L 17.6603,-7.681 L 17.5986,-7.681 L 17.5369,-7.681 L 17.4751,-7.681 L 17.4134,-7.681 L 17.3517,-7.681 L 17.2899,-7.681 L 17.2282,-7.681 L 17.1665,-7.681 L 17.1047,-7.681 L 17.043,-7.681 L 16.9813,-7.681 L 16.9195,-7.681 L 16.8578,-7.681 L 16.7961,-7.681 L 16.7343,-7.681 L 16.6726,-7.681 L 16.6109,-7.681 L 16.5491,-7.681 L 16.4874,-7.681 L 16.4257,-7.681 L 16.3639,-7.681 L 16.3022,-7.681 L 16.2405,-7.681 L 16.1787,-7.681 L 16.117,-7.681 L 16.0553,-7.681 L 15.9935,-7.681 L 15.9318,-7.681 L 15.8701,-7.681 L 15.8083,-7.681 L 15.7466,-7.681 L 15.6849,-7.681 L 15.6231,-7.681 L 15.5614,-7.681 L 15.4997,-7.681 L 15.4379,-7.681 L 15.3762,-7.681 L 15.3145,-7.681 L 15.2527,-7.681 L 15.191,-7.681 L 15.1293,-7.681 L 15.0675,-7.681 L 15.0058,-7.681 L 14.9441,-7.681 L 14.8824,-7.681" />
    </g>
    <g fill="none" stroke="rgb(0,0,0)" stroke-width="0.2" id="Center" stroke-dasharray="6.35 1.27 1.27 1.27">
      <line x1="-12.5934" y1="-0.0" x2="10.7323" y2="-0.0" />
      <line x1="-0.9305" y1="-11.66" x2="-0.9305" y2="11.66" />
      <line x1="11.5123" y1="-0.931" x2="20.9419" y2="-0.931" />
    </g>
  </g>
</svg>