<?xml version='1.0' encoding='utf-8'?>
<svg width="43.4033mm" height="34.8227mm" viewBox="-17.623 -17.2 43.4033 34.8227" version="1.1" xmlns="http://www.w3.org/2000/svg">
  <g transform="scale(1,-1)" stroke-linecap="round">
    <g fill="none" stroke="rgb(0,0,0)" stroke-width="0.4" id="Visible">
      <path d="M -0.423,15.0 L -1.0773,14.9857 L -1.7304,14.9429 L -2.3809,14.8717 L -3.0277,14.7721 L -3.6696,14.6444 L -4.3053,14.4889 L -4.9336,14.3058 L -5.5533,14.0954 L -6.1633,13.8582 L -6.7623,13.5946 L -7.3492,13.3052 L -7.923,12.9904 L -8.4825,12.6509 L -9.0267,12.2873 L -9.5544,11.9003 L -10.0648,11.4907 L -10.5569,11.0592 L -11.0296,10.6066 L -11.4822,10.1339 L -11.9137,9.6418 L -12.3233,9.1314 L -12.7103,8.6036 L -13.0739,8.0595 L -13.4134,7.5 L -13.7282,6.9262 L -14.0176,6.3393 L -14.2812,5.7403 L -14.5184,5.1303 L -14.7288,4.5106 L -14.9119,3.8823 L -15.0675,3.2466 L -15.1951,2.6047 L -15.2947,1.9579 L -15.3659,1.3073 L -15.4087,0.6543 L -15.423,0.0 L -15.4087,-0.6543 L -15.3659,-1.3073 L -15.2947,-1.9579 L -15.1951,-2.6047 L -15.0675,-3.2466 L -14.9119,-3.8823 L -14.7288,-4.5106 L -14.5184,-5.1303 L -14.2812,-5.7403 L -14.0176,-6.3393 L -13.7282,-6.9262 L -13.4134,-7.5 L -13.0739,-8.0595 L -12.7103,-8.6036 L -12.3233,-9.1314 L -11.9137,-9.6418 L -11.4822,-10.1339 L -11.0296,-10.6066 L -10.5569,-11.0592 L -10.0648,-11.4907 L -9.5544,-11.9003 L -9.0267,-12.2873 L -8.4825,-12.6509 L -7.923,-12.9904 L -7.3492,-13.3052 L -6.7623,-13.5946 L -6.1633,-13.8582 L -5.5533,-14.0954 L -4.9336,-14.3058 L -4.3053,-14.4889 L -3.6696,-14.6444 L -3.0277,-14.7721 L -2.3809,-14.8717 L -1.7304,-14.9429 L -1.0773,-14.9857 L -0.423,-15.0" />
      <path d="M 6.077,0.0 L 6.0754,0.1418 L 6.0708,0.2835 L 6.0631,0.4251 L 6.0523,0.5665 L 6.0384,0.7076 L 6.0214,0.8484 L 6.0013,0.9888 L 5.9782,1.1287 L 5.9521,1.268 L 5.9229,1.4068 L 5.8907,1.5449 L 5.8555,1.6822 L 5.8173,1.8188 L 5.7762,1.9545 L 5.7321,2.0893 L 5.685,2.223 L 5.6351,2.3557 L 5.5822,2.4873 L 5.5266,2.6177 L 5.468,2.7469 L 5.4067,2.8747 L 5.3426,3.0012 L 5.2758,3.1263 L 5.2062,3.2499 L 5.134,3.3719 L 5.0591,3.4923 L 4.9816,3.611 L 4.9016,3.7281 L 4.819,3.8433 L 4.7339,3.9568 L 4.6464,4.0683 L 4.5564,4.1779 L 4.4641,4.2856 L 4.3694,4.3912 L 4.2725,4.4947 L 4.1734,4.596 L 4.072,4.6952 L 3.9685,4.7921 L 3.8629,4.8868 L 3.7553,4.9791 L 3.6457,5.0691 L 3.5342,5.1566 L 3.4207,5.2417 L 3.3055,5.3243 L 3.1885,5.4044 L 3.0697,5.4819 L 2.9493,5.5568 L 2.8273,5.629 L 2.7037,5.6986 L 2.5787,5.7654 L 2.4522,5.8295 L 2.3243,5.8908 L 2.1952,5.9494 L 2.0648,6.0051 L 1.9332,6.0579 L 1.8005,6.1079 L 1.6667,6.1549 L 1.532,6.199 L 1.3963,6.2402 L 1.2597,6.2784 L 1.1224,6.3136 L 0.9843,6.3458 L 0.8455,6.375 L 0.7061,6.4012 L 0.5662,6.4243 L 0.4259,6.4443 L 0.2851,6.4613 L 0.144,6.4752 L 0.0026,6.4861 L -0.139,6.4938 L -0.2807,6.4984 L -0.4225,6.5" />
      <path d="M -0.4225,-6.5 L -0.2807,-6.4984 L -0.139,-6.4938 L 0.0026,-6.4861 L 0.144,-6.4752 L 0.2851,-6.4613 L 0.4259,-6.4443 L 0.5662,-6.4243 L 0.7061,-6.4012 L 0.8455,-6.375 L 0.9843,-6.3458 L 1.1224,-6.3136 L 1.2597,-6.2784 L 1.3963,-6.2402 L 1.532,-6.199 L 1.6667,-6.1549 L 1.8005,-6.1079 L 1.9332,-6.0579 L 2.0648,-6.0051 L 2.1952,-5.9494 L 2.3243,-5.8908 L 2.4522,-5.8295 L 2.5787,-5.7654 L 2.7037,-5.6986 L 2.8273,-5.629 L 2.9493,-5.5568 L 3.0697,-5.4819 L 3.1885,-5.4044 L 3.3055,-5.3243 L 3.4207,-5.2417 L 3.5342,-5.1566 L 3.6457,-5.0691 L 3.7553,-4.9791 L 3.8629,-4.8868 L 3.9685,-4.7921 L 4.072,-4.6952 L 4.1734,-4.596 L 4.2725,-4.4947 L 4.3694,-4.3912 L 4.4641,-4.2856 L 4.5564,-4.1779 L 4.6464,-4.0683 L 4.7339,-3.9568 L 4.819,-3.8433 L 4.9016,-3.7281 L 4.9816,-3.611 L 5.0591,-3.4923 L 5.134,-3.3719 L 5.2062,-3.2499 L 5.2758,-3.1263 L 5.3426,-3.0012 L 5.4067,-2.8747 L 5.468,-2.7469 L 5.5266,-2.6177 L 5.5822,-2.4873 L 5.6351,-2.3557 L 5.685,-2.223 L 5.7321,-2.0893 L 5.7762,-1.9545 L 5.8173,-1.8188 L 5.8555,-1.6822 L 5.8907,-1.5449 L 5.9229,-1.4068 L 5.9521,-1.268 L 5.9782,-1.1287 L 6.0013,-0.9888 L 6.0214,-0.8484 L 6.0384,-0.7076 L 6.0523,-0.5665 L 6.0631,-0.4251 L 6.0708,-0.2835 L 6.0754,-0.1418 L 6.077,-0.0" />
      <path d="M 14.5791,-2.25 L 14.5791,-2.1875 L 14.5791,-2.125 L 14.5791,-2.0625 L 14.5791,-2.0 L 14.5791,-1.9375 L 14.5791,-1.875 L 14.5791,-1.8125 L 14.5791,-1.75 L 14.5791,-1.6875 L 14.5791,-1.625 L 14.5791,-1.5625 L 14.5791,-1.5 L 14.5791,-1.4375 L 14.5791,-1.375 L 14.5791,-1.3125 L 14.5791,-1.25 L 14.5791,-1.1875 L 14.5791,-1.125 L 14.5791,-1.0625 L 14.5791,-1.0 L 14.5791,-0.9375 L 14.5791,-0.875 L 14.5791,-0.8125 L 14.5791,-0.75 L 14.5791,-0.6875 L 14.5791,-0.625 L 14.5791,-0.5625 L 14.5791,-0.5 L 14.5791,-0.4375 L 14.5791,-0.375 L 14.5791,-0.3125 L 14.5791,-0.25 L 14.5791,-0.1875 L 14.5791,-0.125 L 14.5791,-0.0625 L 14.5791,0.0 L 14.5791,0.0625 L 14.5791,0.125 L 14.5791,0.1875 L 14.5791,0.25 L 14.5791,0.3125 L 14.5791,0.375 L 14.5791,0.4375 L 14.5791,0.5 L 14.5791,0.5625 L 14.5791,0.625 L 14.5791,0.6875 L 14.5791,0.75 L 14.5791,0.8125 L 14.5791,0.875 L 14.5791,0.9375 L 14.5791,1.0 L 14.5791,1.0625 L 14.5791,1.125 L 14.5791,1.1875 L 14.5791,1.25 L 14.5791,1.3125 L 14.5791,1.375 L 14.5791,1.4375 L 14.5791,1.5 L 14.5791,1.5625 L 14.5791,1.625 L 14.5791,1.6875 L 14.5791,1.75 L 14.5791,1.8125 L 14.5791,1.875 L 14.5791,1.9375 L 14.5791,2.0 L 14.5791,2.0625 L 14.5791,2.125 L 14.5791,2.1875 L 14.5791,2.25" />
      <path d="M 13.3791,-2.25 L 13.3958,-2.25 L 13.4124,-2.25 L 13.4291,-2.25 L 13.4458,-2.25 L 13.4624,-2.25 L 13.4791,-2.25 L 13.4958,-2.25 L 13.5124,-2.25 L 13.5291,-2.25 L 13.5458,-2.25 L 13.5624,-2.25 L 13.5791,-2.25 L 13.5958,-2.25 L 13.6124,-2.25 L 13.6291,-2.25 L 13.6458,-2.25 L 13.6624,-2.25 L 13.6791,-2.25 L 13.6958,-2.25 L 13.7124,-2.25 L 13.7291,-2.25 L 13.7458,-2.25 L 13.7624,-2.25 L 13.7791,-2.25 L 13.7958,-2.25 L 13.8124,-2.25 L 13.8291,-2.25 L 13.8458,-2.25 L 13.8624,-2.25 L 13.8791,-2.25 L 13.8958,-2.25 L 13.9124,-2.25 L 13.9291,-2.25 L 13.9458,-2.25 L 13.9624,-2.25 L 13.9791,-2.25 L 13.9958,-2.25 L 14.0124,-2.25 L 14.0291,-2.25 L 14.0458,-2.25 L 14.0624,-2.25 L 14.0791,-2.25 L 14.0958,-2.25 L 14.1124,-2.25 L 14.1291,-2.25 L 14.1458,-2.25 L 14.1624,-2.25 L 14.1791,-2.25 L 14.1958,-2.25 L 14.2124,-2.25 L 14.2291,-2.25 L 14.2458,-2.25 L 14.2624,-2.25 L 14.2791,-2.25 L 14.2958,-2.25 L 14.3124,-2.25 L 14.3291,-2.25 L 14.3458,-2.25 L 14.3624,-2.25 L 14.3791,-2.25 L 14.3958,-2.25 L 14.4124,-2.25 L 14.4291,-2.25 L 14.4458,-2.25 L 14.4624,-2.25 L 14.4791,-2.25 L 14.4958,-2.25 L 14.5124,-2.25 L 14.5291,-2.25 L 14.5458,-2.25 L 14.5624,-2.25 L 14.5791,-2.25" />
      <path d="M 13.3775,-2.25 L 13.3776,-2.25 L 13.3777,-2.25 L 13.3778,-2.25 L 13.3779,-2.25 L 13.378,-2.25 L 13.3781,-2.25 L 13.3782,-2.25 L 13.3783,-2.25 L 13.3784,-2.25 L 13.3785,-2.25 L 13.3786,-2.25 L 13.3787,-2.25 L 13.3788,-2.25 L 13.3789,-2.25 L 13.379,-2.25 L 13.3791,-2.25" />
      <path d="M 14.4078,2.25 L 14.3605,2.5421 L 14.3075,2.8332 L 14.2488,3.1231 L 14.1843,3.4119 L 14.1142,3.6994 L 14.0384,3.9854 L 13.9569,4.2698 L 13.8699,4.5526 L 13.7774,4.8336 L 13.6792,5.1128 L 13.5757,5.3899 L 13.4666,5.665 L 13.3522,5.9378 L 13.2324,6.2084 L 13.1073,6.4765 L 12.9769,6.7421 L 12.8413,7.0051 L 12.7006,7.2653 L 12.5547,7.5227 L 12.4038,7.7772 L 12.2479,8.0287 L 12.0871,8.2771 L 11.9214,8.5222 L 11.7509,8.764 L 11.5757,9.0024 L 11.3958,9.2373 L 11.2113,9.4686 L 11.0223,9.6963 L 10.8288,9.9201 L 10.6309,10.1401 L 10.4288,10.3561 L 10.2224,10.5682 L 10.0119,10.7761 L 9.7973,10.9798 L 9.5787,11.1792 L 9.3563,11.3743 L 9.13,11.565 L 8.9001,11.7511 L 8.6665,11.9327 L 8.4294,12.1097 L 8.1888,12.2819 L 7.9449,12.4494 L 7.6977,12.612 L 7.4473,12.7697 L 7.1939,12.9225 L 6.9376,13.0702 L 6.6783,13.2128 L 6.4163,13.3503 L 6.1517,13.4826 L 5.8845,13.6096 L 5.6148,13.7314 L 5.3428,13.8478 L 5.0685,13.9588 L 4.7921,14.0644 L 4.5137,14.1645 L 4.2334,14.2591 L 3.9512,14.3482 L 3.6674,14.4317 L 3.3819,14.5095 L 3.095,14.5817 L 2.8067,14.6483 L 2.5172,14.7091 L 2.2265,14.7642 L 1.9347,14.8136 L 1.6421,14.8572 L 1.3486,14.8951 L 1.0545,14.9271 L 0.7598,14.9533 L 0.4646,14.9737 L 0.1691,14.9883 L -0.1266,14.9971 L -0.4225,15.0" />
      <path d="M -0.4225,15.0 L -1.0768,14.9857 L -1.7298,14.9429 L -2.3804,14.8717 L -3.0272,14.7721 L -3.6691,14.6444 L -4.3048,14.4889 L -4.9331,14.3058 L -5.5528,14.0954 L -6.1628,13.8582 L -6.7618,13.5946 L -7.3487,13.3052 L -7.9225,12.9904 L -8.482,12.6509 L -9.0262,12.2873 L -9.5539,11.9003 L -10.0643,11.4907 L -10.5564,11.0592 L -11.0291,10.6066 L -11.4817,10.1339 L -11.9132,9.6418 L -12.3228,9.1314 L -12.7098,8.6036 L -13.0734,8.0595 L -13.4129,7.5 L -13.7277,6.9262 L -14.0171,6.3393 L -14.2807,5.7403 L -14.5179,5.1303 L -14.7283,4.5106 L -14.9114,3.8823 L -15.0669,3.2466 L -15.1946,2.6047 L -15.2942,1.9579 L -15.3654,1.3073 L -15.4082,0.6543 L -15.4225,-0.0 L -15.4082,-0.6543 L -15.3654,-1.3073 L -15.2942,-1.9579 L -15.1946,-2.6047 L -15.0669,-3.2466 L -14.9114,-3.8823 L -14.7283,-4.5106 L -14.5179,-5.1303 L -14.2807,-5.7403 L -14.0171,-6.3393 L -13.7277,-6.9262 L -13.4129,-7.5 L -13.0734,-8.0595 L -12.7098,-8.6036 L -12.3228,-9.1314 L -11.9132,-9.6418 L -11.4817,-10.1339 L -11.0291,-10.6066 L -10.5564,-11.0592 L -10.0643,-11.4907 L -9.5539,-11.9003 L -9.0262,-12.2873 L -8.482,-12.6509 L -7.9225,-12.9904 L -7.3487,-13.3052 L -6.7618,-13.5946 L -6.1628,-13.8582 L -5.5528,-14.0954 L -4.9331,-14.3058 L -4.3048,-14.4889 L -3.6691,-14.6444 L -3.0272,-14.7721 L -2.3804,-14.8717 L -1.7298,-14.9429 L -1.0768,-14.9857 L -0.4225,-15.0" />
      <path d="M -0.4225,-15.0 L -0.1266,-14.9971 L 0.1691,-14.9883 L 0.4646,-14.9737 L 0.7598,-14.9533 L 1.0545,-14.9271 L 1.3486,-14.8951 L 1.6421,-14.8572 L 1.9347,-14.8136 L 2.2265,-14.7642 L 2.5172,-14.7091 L 2.8067,-14.6483 L 3.095,-14.5817 L 3.3819,-14.5095 L 3.6674,-14.4317 L 3.9512,-14.3482 L 4.2334,-14.2591 L 4.5137,-14.1645 L 4.7921,-14.0644 L 5.0685,-13.9588 L 5.3428,-13.8478 L 5.6148,-13.7314 L 5.8845,-13.6096 L 6.1517,-13.4826 L 6.4163,-13.3503 L 6.6783,-13.2128 L 6.9376,-13.0702 L 7.1939,-12.9225 L 7.4473,-12.7697 L 7.6977,-12.612 L 7.9449,-12.4494 L 8.1888,-12.2819 L 8.4294,-12.1097 L 8.6665,-11.9327 L 8.9001,-11.7511 L 9.13,-11.565 L 9.3563,-11.3743 L 9.5787,-11.1792 L 9.7973,-10.9798 L 10.0119,-10.7761 L 10.2224,-10.5682 L 10.4288,-10.3561 L 10.6309,-10.1401 L 10.8288,-9.9201 L 11.0223,-9.6963 L 11.2113,-9.4686 L 11.3958,-9.2373 L 11.5757,-9.0024 L 11.7509,-8.764 L 11.9214,-8.5222 L 12.0871,-8.2771 L 12.2479,-8.0287 L 12.4038,-7.7772 L 12.5547,-7.5227 L 12.7006,-7.2653 L 12.8413,-7.0051 L 12.9769,-6.7421 L 13.1073,-6.4765 L 13.2324,-6.2084 L 13.3522,-5.9378 L 13.4666,-5.665 L 13.5757,-5.3899 L 13.6792,-5.1128 L 13.7774,-4.8336 L 13.8699,-4.5526 L 13.9569,-4.2698 L 14.0384,-3.9854 L 14.1142,-3.6994 L 14.1843,-3.4119 L 14.2488,-3.1231 L 14.3075,-2.8332 L 14.3605,-2.5421 L 14.4078,-2.25" />
      <path d="M 6.0775,0.0 L 6.0759,0.1418 L 6.0713,0.2835 L 6.0636,0.4251 L 6.0528,0.5665 L 6.0389,0.7076 L 6.0219,0.8484 L 6.0018,0.9888 L 5.9787,1.1287 L 5.9526,1.2681 L 5.9234,1.4069 L 5.8912,1.545 L 5.856,1.6823 L 5.8178,1.8189 L 5.7767,1.9546 L 5.7325,2.0894 L 5.6855,2.2231 L 5.6355,2.3558 L 5.5827,2.4874 L 5.527,2.6179 L 5.4685,2.747 L 5.4072,2.8749 L 5.3431,3.0014 L 5.2762,3.1264 L 5.2067,3.25 L 5.1344,3.372 L 5.0595,3.4924 L 4.982,3.6112 L 4.902,3.7282 L 4.8194,3.8435 L 4.7343,3.9569 L 4.6467,4.0685 L 4.5568,4.1781 L 4.4645,4.2857 L 4.3698,4.3913 L 4.2729,4.4948 L 4.1737,4.5962 L 4.0723,4.6954 L 3.9688,4.7923 L 3.8632,4.887 L 3.7556,4.9793 L 3.646,5.0692 L 3.5344,5.1568 L 3.421,5.2419 L 3.3057,5.3245 L 3.1887,5.4046 L 3.0699,5.482 L 2.9495,5.5569 L 2.8275,5.6292 L 2.7039,5.6987 L 2.5789,5.7656 L 2.4524,5.8297 L 2.3245,5.891 L 2.1953,5.9495 L 2.0649,6.0052 L 1.9333,6.0581 L 1.8006,6.108 L 1.6668,6.155 L 1.5321,6.1992 L 1.3964,6.2403 L 1.2598,6.2785 L 1.1225,6.3137 L 0.9843,6.3459 L 0.8456,6.3751 L 0.7062,6.4013 L 0.5663,6.4243 L 0.4259,6.4444 L 0.2851,6.4614 L 0.144,6.4753 L 0.0026,6.4861 L -0.139,6.4938 L -0.2807,6.4985 L -0.4225,6.5" />
      <path d="M -0.4225,6.5 L -0.706,6.4938 L -0.989,6.4753 L -1.2709,6.4444 L -1.5512,6.4013 L -1.8294,6.3459 L -2.1048,6.2785 L -2.3771,6.1992 L -2.6456,6.108 L -2.9099,6.0052 L -3.1695,5.891 L -3.4239,5.7656 L -3.6725,5.6292 L -3.915,5.482 L -4.1508,5.3245 L -4.3795,5.1568 L -4.6006,4.9793 L -4.8138,4.7923 L -5.0187,4.5962 L -5.2148,4.3913 L -5.4018,4.1781 L -5.5793,3.9569 L -5.747,3.7282 L -5.9046,3.4924 L -6.0517,3.25 L -6.1881,3.0014 L -6.3135,2.747 L -6.4277,2.4874 L -6.5305,2.2231 L -6.6217,1.9546 L -6.701,1.6823 L -6.7684,1.4069 L -6.8238,1.1287 L -6.8669,0.8484 L -6.8978,0.5665 L -6.9163,0.2835 L -6.9225,0.0 L -6.9163,-0.2835 L -6.8978,-0.5665 L -6.8669,-0.8484 L -6.8238,-1.1287 L -6.7684,-1.4069 L -6.701,-1.6823 L -6.6217,-1.9546 L -6.5305,-2.2231 L -6.4277,-2.4874 L -6.3135,-2.747 L -6.1881,-3.0014 L -6.0517,-3.25 L -5.9046,-3.4924 L -5.747,-3.7282 L -5.5793,-3.9569 L -5.4018,-4.1781 L -5.2148,-4.3913 L -5.0187,-4.5962 L -4.8138,-4.7923 L -4.6006,-4.9793 L -4.3795,-5.1568 L -4.1508,-5.3245 L -3.915,-5.482 L -3.6725,-5.6292 L -3.4239,-5.7656 L -3.1695,-5.891 L -2.9099,-6.0052 L -2.6456,-6.108 L -2.3771,-6.1992 L -2.1048,-6.2785 L -1.8294,-6.3459 L -1.5512,-6.4013 L -1.2709,-6.4444 L -0.989,-6.4753 L -0.706,-6.4938 L -0.4225,-6.5" />
      <path d="M -0.4225,-6.5 L -0.2807,-6.4985 L -0.139,-6.4938 L 0.0026,-6.4861 L 0.144,-6.4753 L 0.2851,-6.4614 L 0.4259,-6.4444 L 0.5663,-6.4243 L 0.7062,-6.4013 L 0.8456,-6.3751 L 0.9843,-6.3459 L 1.1225,-6.3137 L 1.2598,-6.2785 L 1.3964,-6.2403 L 1.5321,-6.1992 L 1.6668,-6.155 L 1.8006,-6.108 L 1.9333,-6.0581 L 2.0649,-6.0052 L 2.1953,-5.9495 L 2.3245,-5.891 L 2.4524,-5.8297 L 2.5789,-5.7656 L 2.7039,-5.6987 L 2.8275,-5.6292 L 2.9495,-5.5569 L 3.0699,-5.482 L 3.1887,-5.4046 L 3.3057,-5.3245 L 3.421,-5.2419 L 3.5344,-5.1568 L 3.646,-5.0692 L 3.7556,-4.9793 L 3.8632,-4.887 L 3.9688,-4.7923 L 4.0723,-4.6954 L 4.1737,-4.5962 L 4.2729,-4.4948 L 4.3698,-4.3913 L 4.4645,-4.2857 L 4.5568,-4.1781 L 4.6467,-4.0685 L 4.7343,-3.9569 L 4.8194,-3.8435 L 4.902,-3.7282 L 4.982,-3.6112 L 5.0595,-3.4924 L 5.1344,-3.372 L 5.2067,-3.25 L 5.2762,-3.1264 L 5.3431,-3.0014 L 5.4072,-2.8749 L 5.4685,-2.747 L 5.527,-2.6179 L 5.5827,-2.4874 L 5.6355,-2.3558 L 5.6855,-2.2231 L 5.7325,-2.0894 L 5.7767,-1.9546 L 5.8178,-1.8189 L 5.856,-1.6823 L 5.8912,-1.545 L 5.9234,-1.4069 L 5.9526,-1.2681 L 5.9787,-1.1287 L 6.0018,-0.9888 L 6.0219,-0.8484 L 6.0389,-0.7076 L 6.0528,-0.5665 L 6.0636,-0.4251 L 6.0713,-0.2835 L 6.0759,-0.1418 L 6.0775,-0.0" />
      <path d="M 13.3791,2.25 L 13.3958,2.25 L 13.4124,2.25 L 13.4291,2.25 L 13.4458,2.25 L 13.4624,2.25 L 13.4791,2.25 L 13.4958,2.25 L 13.5124,2.25 L 13.5291,2.25 L 13.5458,2.25 L 13.5624,2.25 L 13.5791,2.25 L 13.5958,2.25 L 13.6124,2.25 L 13.6291,2.25 L 13.6458,2.25 L 13.6624,2.25 L 13.6791,2.25 L 13.6958,2.25 L 13.7124,2.25 L 13.7291,2.25 L 13.7458,2.25 L 13.7624,2.25 L 13.7791,2.25 L 13.7958,2.25 L 13.8124,2.25 L 13.8291,2.25 L 13.8458,2.25 L 13.8624,2.25 L 13.8791,2.25 L 13.8958,2.25 L 13.9124,2.25 L 13.9291,2.25 L 13.9458,2.25 L 13.9624,2.25 L 13.9791,2.25 L 13.9958,2.25 L 14.0124,2.25 L 14.0291,2.25 L 14.0458,2.25 L 14.0624,2.25 L 14.0791,2.25 L 14.0958,2.25 L 14.1124,2.25 L 14.1291,2.25 L 14.1458,2.25 L 14.1624,2.25 L 14.1791,2.25 L 14.1958,2.25 L 14.2124,2.25 L 14.2291,2.25 L 14.2458,2.25 L 14.2624,2.25 L 14.2791,2.25 L 14.2958,2.25 L 14.3124,2.25 L 14.3291,2.25 L 14.3458,2.25 L 14.3624,2.25 L 14.3791,2.25 L 14.3958,2.25 L 14.4124,2.25 L 14.4291,2.25 L 14.4458,2.25 L 14.4624,2.25 L 14.4791,2.25 L 14.4958,2.25 L 14.5124,2.25 L 14.5291,2.25 L 14.5458,2.25 L 14.5624,2.25 L 14.5791,2.25" />
      <path d="M 13.3775,2.25 L 13.3776,2.25 L 13.3777,2.25 L 13.3778,2.25 L 13.3779,2.25 L 13.378,2.25 L 13.3781,2.25 L 13.3782,2.25 L 13.3783,2.25 L 13.3784,2.25 L 13.3785,2.25 L 13.3786,2.25 L 13.3787,2.25 L 13.3788,2.25 L 13.3789,2.25 L 13.379,2.25 L 13.3791,2.25" />
      <path d="M 13.3791,-2.25 L 13.3791,-2.1875 L 13.3791,-2.125 L 13.3791,-2.0625 L 13.3791,-2.0 L 13.3791,-1.9375 L 13.3791,-1.875 L 13.3791,-1.8125 L 13.3791,-1.75 L 13.3791,-1.6875 L 13.3791,-1.625 L 13.3791,-1.5625 L 13.3791,-1.5 L 13.3791,-1.4375 L 13.3791,-1.375 L 13.3791,-1.3125 L 13.3791,-1.25 L 13.3791,-1.1875 L 13.3791,-1.125 L 13.3791,-1.0625 L 13.3791,-1.0 L 13.3791,-0.9375 L 13.3791,-0.875 L 13.3791,-0.8125 L 13.3791,-0.75 L 13.3791,-0.6875 L 13.3791,-0.625 L 13.3791,-0.5625 L 13.3791,-0.5 L 13.3791,-0.4375 L 13.3791,-0.375 L 13.3791,-0.3125 L 13.3791,-0.25 L 13.3791,-0.1875 L 13.3791,-0.125 L 13.3791,-0.0625 L 13.3791,0.0 L 13.3791,0.0625 L 13.3791,0.125 L 13.3791,0.1875 L 13.3791,0.25 L 13.3791,0.3125 L 13.3791,0.375 L 13.3791,0.4375 L 13.3791,0.5 L 13.3791,0.5625 L 13.3791,0.625 L 13.3791,0.6875 L 13.3791,0.75 L 13.3791,0.8125 L 13.3791,0.875 L 13.3791,0.9375 L 13.3791,1.0 L 13.3791,1.0625 L 13.3791,1.125 L 13.3791,1.1875 L 13.3791,1.25 L 13.3791,1.3125 L 13.3791,1.375 L 13.3791,1.4375 L 13.3791,1.5 L 13.3791,1.5625 L 13.3791,1.625 L 13.3791,1.6875 L 13.3791,1.75 L 13.3791,1.8125 L 13.3791,1.875 L 13.3791,1.9375 L 13.3791,2.0 L 13.3791,2.0625 L 13.3791,2.125 L 13.3791,2.1875 L 13.3791,2.25" />
      <path d="M 13.3775,-2.25 L 13.3775,-2.1875 L 13.3775,-2.125 L 13.3775,-2.0625 L 13.3775,-2.0 L 13.3775,-1.9375 L 13.3775,-1.875 L 13.3775,-1.8125 L 13.3775,-1.75 L 13.3775,-1.6875 L 13.3775,-1.625 L 13.3775,-1.5625 L 13.3775,-1.5 L 13.3775,-1.4375 L 13.3775,-1.375 L 13.3775,-1.3125 L 13.3775,-1.25 L 13.3775,-1.1875 L 13.3775,-1.125 L 13.3775,-1.0625 L 13.3775,-1.0 L 13.3775,-0.9375 L 13.3775,-0.875 L 13.3775,-0.8125 L 13.3775,-0.75 L 13.3775,-0.6875 L 13.3775,-0.625 L 13.3775,-0.5625 L 13.3775,-0.5 L 13.3775,-0.4375 L 13.3775,-0.375 L 13.3775,-0.3125 L 13.3775,-0.25 L 13.3775,-0.1875 L 13.3775,-0.125 L 13.3775,-0.0625 L 13.3775,0.0 L 13.3775,0.0625 L 13.3775,0.125 L 13.3775,0.1875 L 13.3775,0.25 L 13.3775,0.3125 L 13.3775,0.375 L 13.3775,0.4375 L 13.3775,0.5 L 13.3775,0.5625 L 13.3775,0.625 L 13.3775,0.6875 L 13.3775,0.75 L 13.3775,0.8125 L 13.3775,0.875 L 13.3775,0.9375 L 13.3775,1.0 L 13.3775,1.0625 L 13.3775,1.125 L 13.3775,1.1875 L 13.3775,1.25 L 13.3775,1.3125 L 13.3775,1.375 L 13.3775,1.4375 L 13.3775,1.5 L 13.3775,1.5625 L 13.3775,1.625 L 13.3775,1.6875 L 13.3775,1.75 L 13.3775,1.8125 L 13.3775,1.875 L 13.3775,1.9375 L 13.3775,2.0 L 13.3775,2.0625 L 13.3775,2.125 L 13.3775,2.1875 L 13.3775,2.25" />
      <path d="M -0.423,-15.0 L -0.4229,-15.0 L -0.4228,-15.0 L -0.4227,-15.0 L -0.4226,-15.0 L -0.4225,-15.0" />
      <path d="M -0.423,15.0 L -0.4229,15.0 L -0.4228,15.0 L -0.4227,15.0 L -0.4226,15.0 L -0.4225,15.0" />
      <path d="M 23.5791,14.4085 L 23.5791,14.4109 L 23.5791,14.4132 L 23.5791,14.4156 L 23.5791,14.4179 L 23.5791,14.4203 L 23.5791,14.4227 L 23.5791,14.425 L 23.5791,14.4274 L 23.5791,14.4297 L 23.5791,14.4321 L 23.5791,14.4344 L 23.5791,14.4368 L 23.5791,14.4392 L 23.5791,14.4415 L 23.5791,14.4439 L 23.5791,14.4462 L 23.5791,14.4486 L 23.5791,14.4509 L 23.5791,14.4533 L 23.5791,14.4557 L 23.5791,14.458 L 23.5791,14.4604 L 23.5791,14.4627 L 23.5791,14.4651 L 23.5791,14.4674 L 23.5791,14.4698 L 23.5791,14.4722 L 23.5791,14.4745 L 23.5791,14.4769 L 23.5791,14.4792 L 23.5791,14.4816 L 23.5791,14.4839 L 23.5791,14.4863 L 23.5791,14.4886 L 23.5791,14.491 L 23.5791,14.4934 L 23.5791,14.4957 L 23.5791,14.4981 L 23.5791,14.5004 L 23.5791,14.5028 L 23.5791,14.5051 L 23.5791,14.5075 L 23.5791,14.5099 L 23.5791,14.5122 L 23.5791,14.5146 L 23.5791,14.5169 L 23.5791,14.5193 L 23.5791,14.5216 L 23.5791,14.524 L 23.5791,14.5264 L 23.5791,14.5287 L 23.5791,14.5311 L 23.5791,14.5334 L 23.5791,14.5358 L 23.5791,14.5381 L 23.5791,14.5405 L 23.5791,14.5429 L 23.5791,14.5452 L 23.5791,14.5476 L 23.5791,14.5499 L 23.5791,14.5523 L 23.5791,14.5546 L 23.5791,14.557 L 23.5791,14.5594 L 23.5791,14.5617 L 23.5791,14.5641 L 23.5791,14.5664 L 23.5791,14.5688 L 23.5791,14.5711 L 23.5791,14.5735 L 23.5791,14.5759 L 23.5791,14.5782" />
      <path d="M 23.5794,14.4066 L 23.5796,13.9923 L 23.5796,13.578 L 23.5797,13.1637 L 23.5798,12.7494 L 23.5798,12.3351 L 23.5799,11.9208 L 23.5799,11.5065 L 23.58,11.0922 L 23.58,10.6779 L 23.58,10.2636 L 23.58,9.8493 L 23.5801,9.4351 L 23.5801,9.0208 L 23.5801,8.6065 L 23.5801,8.1922 L 23.5802,7.7779 L 23.5802,7.3636 L 23.5802,6.9493 L 23.5802,6.535 L 23.5802,6.1207 L 23.5802,5.7064 L 23.5803,5.2921 L 23.5803,4.8778 L 23.5803,4.4635 L 23.5803,4.0492 L 23.5803,3.6349 L 23.5803,3.2206 L 23.5803,2.8063 L 23.5803,2.392 L 23.5803,1.9777 L 23.5803,1.5634 L 23.5803,1.1491 L 23.5803,0.7348 L 23.5803,0.3205 L 23.5803,-0.0938 L 23.5803,-0.5081 L 23.5803,-0.9224 L 23.5803,-1.3367 L 23.5803,-1.751 L 23.5803,-2.1652 L 23.5803,-2.5795 L 23.5803,-2.9938 L 23.5803,-3.4081 L 23.5803,-3.8224 L 23.5803,-4.2367 L 23.5803,-4.651 L 23.5803,-5.0653 L 23.5803,-5.4796 L 23.5803,-5.8939 L 23.5803,-6.3082 L 23.5802,-6.7225 L 23.5802,-7.1368 L 23.5802,-7.5511 L 23.5802,-7.9654 L 23.5802,-8.3797 L 23.5802,-8.794 L 23.5801,-9.2083 L 23.5801,-9.6226 L 23.5801,-10.0369 L 23.5801,-10.4512 L 23.58,-10.8655 L 23.58,-11.2798 L 23.58,-11.6941 L 23.5799,-12.1084 L 23.5799,-12.5227 L 23.5799,-12.937 L 23.5798,-13.3512 L 23.5798,-13.7655 L 23.5797,-14.1798 L 23.5796,-14.5941 L 23.5795,-15.0084 L 23.5793,-15.4227" />
      <path d="M 23.5793,-15.4227 L 23.579,-15.0084 L 23.5789,-14.5941 L 23.5788,-14.1798 L 23.5788,-13.7654 L 23.5787,-13.3511 L 23.5787,-12.9368 L 23.5786,-12.5225 L 23.5786,-12.1081 L 23.5785,-11.6938 L 23.5785,-11.2795 L 23.5785,-10.8652 L 23.5785,-10.4509 L 23.5784,-10.0365 L 23.5784,-9.6222 L 23.5784,-9.2079 L 23.5784,-8.7936 L 23.5783,-8.3792 L 23.5783,-7.9649 L 23.5783,-7.5506 L 23.5783,-7.1363 L 23.5783,-6.722 L 23.5783,-6.3076 L 23.5783,-5.8933 L 23.5782,-5.479 L 23.5782,-5.0647 L 23.5782,-4.6503 L 23.5782,-4.236 L 23.5782,-3.8217 L 23.5782,-3.4074 L 23.5782,-2.993 L 23.5782,-2.5787 L 23.5782,-2.1644 L 23.5782,-1.7501 L 23.5782,-1.3358 L 23.5782,-0.9214 L 23.5782,-0.5071 L 23.5782,-0.0928 L 23.5782,0.3215 L 23.5782,0.7359 L 23.5782,1.1502 L 23.5782,1.5645 L 23.5782,1.9788 L 23.5782,2.3931 L 23.5782,2.8075 L 23.5782,3.2218 L 23.5782,3.6361 L 23.5782,4.0504 L 23.5782,4.4648 L 23.5782,4.8791 L 23.5783,5.2934 L 23.5783,5.7077 L 23.5783,6.1221 L 23.5783,6.5364 L 23.5783,6.9507 L 23.5783,7.365 L 23.5784,7.7793 L 23.5784,8.1937 L 23.5784,8.608 L 23.5784,9.0223 L 23.5784,9.4366 L 23.5785,9.851 L 23.5785,10.2653 L 23.5785,10.6796 L 23.5786,11.0939 L 23.5786,11.5082 L 23.5786,11.9226 L 23.5787,12.3369 L 23.5787,12.7512 L 23.5788,13.1655 L 23.5789,13.5799 L 23.579,13.9942 L 23.5791,14.4085" />
      <path d="M 23.5793,6.0773 L 23.5794,5.8967 L 23.5794,5.7162 L 23.5794,5.5356 L 23.5795,5.355 L 23.5795,5.1745 L 23.5795,4.9939 L 23.5795,4.8134 L 23.5796,4.6328 L 23.5796,4.4523 L 23.5796,4.2717 L 23.5796,4.0912 L 23.5796,3.9106 L 23.5796,3.73 L 23.5796,3.5495 L 23.5796,3.3689 L 23.5797,3.1884 L 23.5797,3.0078 L 23.5797,2.8273 L 23.5797,2.6467 L 23.5797,2.4662 L 23.5797,2.2856 L 23.5797,2.105 L 23.5797,1.9245 L 23.5797,1.7439 L 23.5797,1.5634 L 23.5797,1.3828 L 23.5797,1.2023 L 23.5797,1.0217 L 23.5797,0.8412 L 23.5797,0.6606 L 23.5797,0.48 L 23.5797,0.2995 L 23.5797,0.1189 L 23.5797,-0.0616 L 23.5797,-0.2422 L 23.5797,-0.4227 L 23.5797,-0.6033 L 23.5797,-0.7838 L 23.5797,-0.9644 L 23.5797,-1.145 L 23.5797,-1.3255 L 23.5797,-1.5061 L 23.5797,-1.6866 L 23.5797,-1.8672 L 23.5797,-2.0477 L 23.5797,-2.2283 L 23.5797,-2.4088 L 23.5797,-2.5894 L 23.5797,-2.77 L 23.5797,-2.9505 L 23.5797,-3.1311 L 23.5797,-3.3116 L 23.5797,-3.4922 L 23.5797,-3.6727 L 23.5797,-3.8533 L 23.5797,-4.0338 L 23.5796,-4.2144 L 23.5796,-4.395 L 23.5796,-4.5755 L 23.5796,-4.7561 L 23.5796,-4.9366 L 23.5796,-5.1172 L 23.5796,-5.2977 L 23.5796,-5.4783 L 23.5795,-5.6588 L 23.5795,-5.8394 L 23.5795,-6.02 L 23.5795,-6.2005 L 23.5794,-6.3811 L 23.5794,-6.5616 L 23.5794,-6.7422 L 23.5793,-6.9227" />
      <path d="M 23.5793,-6.9227 L 23.5792,-6.7422 L 23.5791,-6.5616 L 23.5791,-6.3811 L 23.579,-6.2005 L 23.579,-6.02 L 23.579,-5.8394 L 23.579,-5.6588 L 23.579,-5.4783 L 23.5789,-5.2977 L 23.5789,-5.1172 L 23.5789,-4.9366 L 23.5789,-4.7561 L 23.5789,-4.5755 L 23.5789,-4.395 L 23.5789,-4.2144 L 23.5789,-4.0338 L 23.5789,-3.8533 L 23.5789,-3.6727 L 23.5788,-3.4922 L 23.5788,-3.3116 L 23.5788,-3.1311 L 23.5788,-2.9505 L 23.5788,-2.77 L 23.5788,-2.5894 L 23.5788,-2.4088 L 23.5788,-2.2283 L 23.5788,-2.0477 L 23.5788,-1.8672 L 23.5788,-1.6866 L 23.5788,-1.5061 L 23.5788,-1.3255 L 23.5788,-1.145 L 23.5788,-0.9644 L 23.5788,-0.7838 L 23.5788,-0.6033 L 23.5788,-0.4227 L 23.5788,-0.2422 L 23.5788,-0.0616 L 23.5788,0.1189 L 23.5788,0.2995 L 23.5788,0.48 L 23.5788,0.6606 L 23.5788,0.8412 L 23.5788,1.0217 L 23.5788,1.2023 L 23.5788,1.3828 L 23.5788,1.5634 L 23.5788,1.7439 L 23.5788,1.9245 L 23.5788,2.105 L 23.5788,2.2856 L 23.5788,2.4662 L 23.5788,2.6467 L 23.5789,2.8273 L 23.5789,3.0078 L 23.5789,3.1884 L 23.5789,3.3689 L 23.5789,3.5495 L 23.5789,3.73 L 23.5789,3.9106 L 23.5789,4.0912 L 23.5789,4.2717 L 23.5789,4.4523 L 23.579,4.6328 L 23.579,4.8134 L 23.579,4.9939 L 23.579,5.1745 L 23.579,5.355 L 23.5791,5.5356 L 23.5791,5.7162 L 23.5791,5.8967 L 23.5793,6.0773" />
      <path d="M 23.5791,14.5782 L 23.5097,14.5782 L 23.4402,14.5782 L 23.3708,14.5782 L 23.3013,14.5782 L 23.2319,14.5782 L 23.1624,14.5782 L 23.093,14.5782 L 23.0235,14.5782 L 22.9541,14.5782 L 22.8847,14.5782 L 22.8152,14.5782 L 22.7458,14.5782 L 22.6763,14.5782 L 22.6069,14.5782 L 22.5374,14.5782 L 22.468,14.5782 L 22.3985,14.5782 L 22.3291,14.5782 L 22.2597,14.5782 L 22.1902,14.5782 L 22.1208,14.5782 L 22.0513,14.5782 L 21.9819,14.5782 L 21.9124,14.5782 L 21.843,14.5782 L 21.7735,14.5782 L 21.7041,14.5782 L 21.6347,14.5782 L 21.5652,14.5782 L 21.4958,14.5782 L 21.4263,14.5782 L 21.3569,14.5782 L 21.2874,14.5782 L 21.218,14.5782 L 21.1485,14.5782 L 21.0791,14.5782 L 21.0097,14.5782 L 20.9402,14.5782 L 20.8708,14.5782 L 20.8013,14.5782 L 20.7319,14.5782 L 20.6624,14.5782 L 20.593,14.5782 L 20.5235,14.5782 L 20.4541,14.5782 L 20.3847,14.5782 L 20.3152,14.5782 L 20.2458,14.5782 L 20.1763,14.5782 L 20.1069,14.5782 L 20.0374,14.5782 L 19.968,14.5782 L 19.8985,14.5782 L 19.8291,14.5782 L 19.7597,14.5782 L 19.6902,14.5782 L 19.6208,14.5782 L 19.5513,14.5782 L 19.4819,14.5782 L 19.4124,14.5782 L 19.343,14.5782 L 19.2735,14.5782 L 19.2041,14.5782 L 19.1347,14.5782 L 19.0652,14.5782 L 18.9958,14.5782 L 18.9263,14.5782 L 18.8569,14.5782 L 18.7874,14.5782 L 18.718,14.5782 L 18.6485,14.5782 L 18.5791,14.5782" />
      <path d="M 18.5791,13.3782 L 18.5791,13.3949 L 18.5791,13.4116 L 18.5791,13.4282 L 18.5791,13.4449 L 18.5791,13.4616 L 18.5791,13.4782 L 18.5791,13.4949 L 18.5791,13.5116 L 18.5791,13.5282 L 18.5791,13.5449 L 18.5791,13.5616 L 18.5791,13.5782 L 18.5791,13.5949 L 18.5791,13.6116 L 18.5791,13.6282 L 18.5791,13.6449 L 18.5791,13.6616 L 18.5791,13.6782 L 18.5791,13.6949 L 18.5791,13.7116 L 18.5791,13.7282 L 18.5791,13.7449 L 18.5791,13.7616 L 18.5791,13.7782 L 18.5791,13.7949 L 18.5791,13.8116 L 18.5791,13.8282 L 18.5791,13.8449 L 18.5791,13.8616 L 18.5791,13.8782 L 18.5791,13.8949 L 18.5791,13.9116 L 18.5791,13.9282 L 18.5791,13.9449 L 18.5791,13.9616 L 18.5791,13.9782 L 18.5791,13.9949 L 18.5791,14.0116 L 18.5791,14.0282 L 18.5791,14.0449 L 18.5791,14.0616 L 18.5791,14.0782 L 18.5791,14.0949 L 18.5791,14.1116 L 18.5791,14.1282 L 18.5791,14.1449 L 18.5791,14.1616 L 18.5791,14.1782 L 18.5791,14.1949 L 18.5791,14.2116 L 18.5791,14.2282 L 18.5791,14.2449 L 18.5791,14.2616 L 18.5791,14.2782 L 18.5791,14.2949 L 18.5791,14.3116 L 18.5791,14.3282 L 18.5791,14.3449 L 18.5791,14.3616 L 18.5791,14.3782 L 18.5791,14.3949 L 18.5791,14.4116 L 18.5791,14.4282 L 18.5791,14.4449 L 18.5791,14.4616 L 18.5791,14.4782 L 18.5791,14.4949 L 18.5791,14.5116 L 18.5791,14.5282 L 18.5791,14.5449 L 18.5791,14.5616 L 18.5791,14.5782" />
      <path d="M 22.3788,13.3782 L 22.3261,13.3782 L 22.2733,13.3782 L 22.2205,13.3782 L 22.1677,13.3782 L 22.115,13.3782 L 22.0622,13.3782 L 22.0094,13.3782 L 21.9566,13.3782 L 21.9039,13.3782 L 21.8511,13.3782 L 21.7983,13.3782 L 21.7455,13.3782 L 21.6928,13.3782 L 21.64,13.3782 L 21.5872,13.3782 L 21.5344,13.3782 L 21.4817,13.3782 L 21.4289,13.3782 L 21.3761,13.3782 L 21.3234,13.3782 L 21.2706,13.3782 L 21.2178,13.3782 L 21.165,13.3782 L 21.1123,13.3782 L 21.0595,13.3782 L 21.0067,13.3782 L 20.9539,13.3782 L 20.9012,13.3782 L 20.8484,13.3782 L 20.7956,13.3782 L 20.7428,13.3782 L 20.6901,13.3782 L 20.6373,13.3782 L 20.5845,13.3782 L 20.5317,13.3782 L 20.479,13.3782 L 20.4262,13.3782 L 20.3734,13.3782 L 20.3206,13.3782 L 20.2679,13.3782 L 20.2151,13.3782 L 20.1623,13.3782 L 20.1095,13.3782 L 20.0568,13.3782 L 20.004,13.3782 L 19.9512,13.3782 L 19.8985,13.3782 L 19.8457,13.3782 L 19.7929,13.3782 L 19.7401,13.3782 L 19.6874,13.3782 L 19.6346,13.3782 L 19.5818,13.3782 L 19.529,13.3782 L 19.4763,13.3782 L 19.4235,13.3782 L 19.3707,13.3782 L 19.3179,13.3782 L 19.2652,13.3782 L 19.2124,13.3782 L 19.1596,13.3782 L 19.1068,13.3782 L 19.0541,13.3782 L 19.0013,13.3782 L 18.9485,13.3782 L 18.8957,13.3782 L 18.843,13.3782 L 18.7902,13.3782 L 18.7374,13.3782 L 18.6846,13.3782 L 18.6319,13.3782 L 18.5791,13.3782" />
      <path d="M 23.5791,14.4085 L 23.5624,14.4085 L 23.5458,14.4085 L 23.5291,14.4085 L 23.5124,14.4085 L 23.4958,14.4085 L 23.4791,14.4085 L 23.4624,14.4085 L 23.4458,14.4085 L 23.4291,14.4085 L 23.4124,14.4085 L 23.3958,14.4085 L 23.3791,14.4085 L 23.3624,14.4085 L 23.3458,14.4085 L 23.3291,14.4085 L 23.3124,14.4085 L 23.2958,14.4085 L 23.2791,14.4085 L 23.2624,14.4085 L 23.2458,14.4085 L 23.2291,14.4085 L 23.2124,14.4085 L 23.1958,14.4085 L 23.1791,14.4085 L 23.1624,14.4085 L 23.1458,14.4085 L 23.1291,14.4085 L 23.1124,14.4085 L 23.0958,14.4085 L 23.0791,14.4085 L 23.0624,14.4085 L 23.0458,14.4085 L 23.0291,14.4085 L 23.0124,14.4085 L 22.9958,14.4085 L 22.9791,14.4085 L 22.9624,14.4085 L 22.9458,14.4085 L 22.9291,14.4085 L 22.9124,14.4085 L 22.8958,14.4085 L 22.8791,14.4085 L 22.8624,14.4085 L 22.8458,14.4085 L 22.8291,14.4085 L 22.8124,14.4085 L 22.7958,14.4085 L 22.7791,14.4085 L 22.7624,14.4085 L 22.7458,14.4085 L 22.7291,14.4085 L 22.7124,14.4085 L 22.6958,14.4085 L 22.6791,14.4085 L 22.6624,14.4085 L 22.6458,14.4085 L 22.6291,14.4085 L 22.6124,14.4085 L 22.5958,14.4085 L 22.5791,14.4085 L 22.5624,14.4085 L 22.5458,14.4085 L 22.5291,14.4085 L 22.5124,14.4085 L 22.4958,14.4085 L 22.4791,14.4085 L 22.4624,14.4085 L 22.4458,14.4085 L 22.4291,14.4085 L 22.4124,14.4085 L 22.3958,14.4085 L 22.3791,14.4085" />
      <path d="M 22.3793,-15.4227 L 22.379,-15.0084 L 22.3789,-14.5941 L 22.3788,-14.1798 L 22.3788,-13.7654 L 22.3787,-13.3511 L 22.3787,-12.9368 L 22.3786,-12.5225 L 22.3786,-12.1081 L 22.3785,-11.6938 L 22.3785,-11.2795 L 22.3785,-10.8652 L 22.3785,-10.4509 L 22.3784,-10.0365 L 22.3784,-9.6222 L 22.3784,-9.2079 L 22.3784,-8.7936 L 22.3783,-8.3792 L 22.3783,-7.9649 L 22.3783,-7.5506 L 22.3783,-7.1363 L 22.3783,-6.722 L 22.3783,-6.3076 L 22.3783,-5.8933 L 22.3782,-5.479 L 22.3782,-5.0647 L 22.3782,-4.6503 L 22.3782,-4.236 L 22.3782,-3.8217 L 22.3782,-3.4074 L 22.3782,-2.993 L 22.3782,-2.5787 L 22.3782,-2.1644 L 22.3782,-1.7501 L 22.3782,-1.3358 L 22.3782,-0.9214 L 22.3782,-0.5071 L 22.3782,-0.0928 L 22.3782,0.3215 L 22.3782,0.7359 L 22.3782,1.1502 L 22.3782,1.5645 L 22.3782,1.9788 L 22.3782,2.3931 L 22.3782,2.8075 L 22.3782,3.2218 L 22.3782,3.6361 L 22.3782,4.0504 L 22.3782,4.4648 L 22.3782,4.8791 L 22.3783,5.2934 L 22.3783,5.7077 L 22.3783,6.1221 L 22.3783,6.5364 L 22.3783,6.9507 L 22.3783,7.365 L 22.3784,7.7793 L 22.3784,8.1937 L 22.3784,8.608 L 22.3784,9.0223 L 22.3784,9.4366 L 22.3785,9.851 L 22.3785,10.2653 L 22.3785,10.6796 L 22.3786,11.0939 L 22.3786,11.5082 L 22.3786,11.9226 L 22.3787,12.3369 L 22.3787,12.7512 L 22.3788,13.1655 L 22.3789,13.5799 L 22.379,13.9942 L 22.3791,14.4085" />
      <path d="M 23.5794,14.4066 L 23.5793,14.4066 L 23.5792,14.4066 L 23.5791,14.4066" />
      <path d="M 22.3788,13.3763 L 22.3261,13.3763 L 22.2733,13.3763 L 22.2205,13.3763 L 22.1678,13.3763 L 22.115,13.3763 L 22.0622,13.3763 L 22.0094,13.3763 L 21.9567,13.3763 L 21.9039,13.3763 L 21.8511,13.3763 L 21.7984,13.3763 L 21.7456,13.3763 L 21.6928,13.3763 L 21.6401,13.3763 L 21.5873,13.3763 L 21.5345,13.3763 L 21.4818,13.3763 L 21.429,13.3763 L 21.3762,13.3763 L 21.3234,13.3763 L 21.2707,13.3763 L 21.2179,13.3763 L 21.1651,13.3763 L 21.1124,13.3763 L 21.0596,13.3763 L 21.0068,13.3763 L 20.9541,13.3763 L 20.9013,13.3763 L 20.8485,13.3763 L 20.7957,13.3763 L 20.743,13.3763 L 20.6902,13.3763 L 20.6374,13.3763 L 20.5847,13.3763 L 20.5319,13.3763 L 20.4791,13.3763 L 20.4264,13.3763 L 20.3736,13.3763 L 20.3208,13.3763 L 20.2681,13.3763 L 20.2153,13.3763 L 20.1625,13.3763 L 20.1097,13.3763 L 20.057,13.3763 L 20.0042,13.3763 L 19.9514,13.3763 L 19.8987,13.3763 L 19.8459,13.3763 L 19.7931,13.3763 L 19.7404,13.3763 L 19.6876,13.3763 L 19.6348,13.3763 L 19.582,13.3763 L 19.5293,13.3763 L 19.4765,13.3763 L 19.4237,13.3763 L 19.371,13.3763 L 19.3182,13.3763 L 19.2654,13.3763 L 19.2127,13.3763 L 19.1599,13.3763 L 19.1071,13.3763 L 19.0543,13.3763 L 19.0016,13.3763 L 18.9488,13.3763 L 18.896,13.3763 L 18.8433,13.3763 L 18.7905,13.3763 L 18.7377,13.3763 L 18.685,13.3763 L 18.6322,13.3763 L 18.5794,13.3763" />
      <path d="M 18.5791,13.3782 L 18.5791,13.3781 L 18.5791,13.378 L 18.5791,13.3779 L 18.5792,13.3779 L 18.5792,13.3778 L 18.5792,13.3777 L 18.5792,13.3776 L 18.5792,13.3775 L 18.5792,13.3774 L 18.5792,13.3773 L 18.5793,13.3773 L 18.5793,13.3772 L 18.5793,13.3771 L 18.5793,13.377 L 18.5793,13.3769 L 18.5793,13.3768 L 18.5794,13.3767 L 18.5794,13.3766 L 18.5794,13.3765 L 18.5794,13.3764 L 18.5794,13.3763" />
      <path d="M 23.5793,-15.4227 L 23.5626,-15.4227 L 23.5459,-15.4227 L 23.5293,-15.4227 L 23.5126,-15.4227 L 23.4959,-15.4227 L 23.4793,-15.4227 L 23.4626,-15.4227 L 23.4459,-15.4227 L 23.4293,-15.4227 L 23.4126,-15.4227 L 23.3959,-15.4227 L 23.3793,-15.4227 L 23.3626,-15.4227 L 23.3459,-15.4227 L 23.3293,-15.4227 L 23.3126,-15.4227 L 23.2959,-15.4227 L 23.2793,-15.4227 L 23.2626,-15.4227 L 23.2459,-15.4227 L 23.2293,-15.4227 L 23.2126,-15.4227 L 23.1959,-15.4227 L 23.1793,-15.4227 L 23.1626,-15.4227 L 23.1459,-15.4227 L 23.1293,-15.4227 L 23.1126,-15.4227 L 23.0959,-15.4227 L 23.0793,-15.4227 L 23.0626,-15.4227 L 23.0459,-15.4227 L 23.0293,-15.4227 L 23.0126,-15.4227 L 22.9959,-15.4227 L 22.9793,-15.4227 L 22.9626,-15.4227 L 22.9459,-15.4227 L 22.9293,-15.4227 L 22.9126,-15.4227 L 22.8959,-15.4227 L 22.8793,-15.4227 L 22.8626,-15.4227 L 22.8459,-15.4227 L 22.8293,-15.4227 L 22.8126,-15.4227 L 22.7959,-15.4227 L 22.7793,-15.4227 L 22.7626,-15.4227 L 22.7459,-15.4227 L 22.7293,-15.4227 L 22.7126,-15.4227 L 22.6959,-15.4227 L 22.6793,-15.4227 L 22.6626,-15.4227 L 22.6459,-15.4227 L 22.6293,-15.4227 L 22.6126,-15.4227 L 22.5959,-15.4227 L 22.5793,-15.4227 L 22.5626,-15.4227 L 22.5459,-15.4227 L 22.5293,-15.4227 L 22.5126,-15.4227 L 22.4959,-15.4227 L 22.4793,-15.4227 L 22.4626,-15.4227 L 22.4459,-15.4227 L 22.4293,-15.4227 L 22.4126,-15.4227 L 22.3959,-15.4227 L 22.3793,-15.4227" />
      <path d="M 23.5793,6.0773 L 23.5792,6.0773 L 23.5791,6.0773 L 23.579,6.0773 L 23.5789,6.0773 L 23.5788,6.0773 L 23.5787,6.0773 L 23.5786,6.0773 L 23.5785,6.0773 L 23.5784,6.0773 L 23.5783,6.0773" />
      <path d="M 23.5793,-6.9227 L 23.5792,-6.9227 L 23.5791,-6.9227 L 23.579,-6.9227 L 23.5789,-6.9227 L 23.5788,-6.9227 L 23.5787,-6.9227 L 23.5786,-6.9227 L 23.5785,-6.9227 L 23.5784,-6.9227 L 23.5783,-6.9227" />
    </g>
    <g fill="none" stroke="rgb(110,110,110)" stroke-width="0.3" id="Hidden" stroke-dasharray="3.6 0.9">
      <path d="M 14.4073,-2.25 L 14.4096,-2.25 L 14.412,-2.25 L 14.4143,-2.25 L 14.4167,-2.25 L 14.4191,-2.25 L 14.4214,-2.25 L 14.4238,-2.25 L 14.4261,-2.25 L 14.4285,-2.25 L 14.4308,-2.25 L 14.4332,-2.25 L 14.4356,-2.25 L 14.4379,-2.25 L 14.4403,-2.25 L 14.4426,-2.25 L 14.445,-2.25 L 14.4473,-2.25 L 14.4497,-2.25 L 14.4521,-2.25 L 14.4544,-2.25 L 14.4568,-2.25 L 14.4591,-2.25 L 14.4615,-2.25 L 14.4638,-2.25 L 14.4662,-2.25 L 14.4686,-2.25 L 14.4709,-2.25 L 14.4733,-2.25 L 14.4756,-2.25 L 14.478,-2.25 L 14.4803,-2.25 L 14.4827,-2.25 L 14.4851,-2.25 L 14.4874,-2.25 L 14.4898,-2.25 L 14.4921,-2.25 L 14.4945,-2.25 L 14.4968,-2.25 L 14.4992,-2.25 L 14.5016,-2.25 L 14.5039,-2.25 L 14.5063,-2.25 L 14.5086,-2.25 L 14.511,-2.25 L 14.5133,-2.25 L 14.5157,-2.25 L 14.5181,-2.25 L 14.5204,-2.25 L 14.5228,-2.25 L 14.5251,-2.25 L 14.5275,-2.25 L 14.5298,-2.25 L 14.5322,-2.25 L 14.5346,-2.25 L 14.5369,-2.25 L 14.5393,-2.25 L 14.5416,-2.25 L 14.544,-2.25 L 14.5463,-2.25 L 14.5487,-2.25 L 14.5511,-2.25 L 14.5534,-2.25 L 14.5558,-2.25 L 14.5581,-2.25 L 14.5605,-2.25 L 14.5628,-2.25 L 14.5652,-2.25 L 14.5676,-2.25 L 14.5699,-2.25 L 14.5723,-2.25 L 14.5746,-2.25 L 14.577,-2.25" />
      <path d="M 14.577,-2.25 L 14.577,-2.2187 L 14.577,-2.1875 L 14.577,-2.1562 L 14.577,-2.125 L 14.577,-2.0937 L 14.577,-2.0625 L 14.577,-2.0312 L 14.577,-2.0 L 14.577,-1.9687 L 14.577,-1.9375 L 14.577,-1.9062 L 14.577,-1.875 L 14.577,-1.8437 L 14.577,-1.8125 L 14.577,-1.7812 L 14.577,-1.75 L 14.577,-1.7188 L 14.577,-1.6875 L 14.577,-1.6562 L 14.577,-1.625 L 14.577,-1.5938 L 14.577,-1.5625 L 14.577,-1.5313 L 14.577,-1.5 L 14.577,-1.4688 L 14.577,-1.4375 L 14.577,-1.4063 L 14.577,-1.375 L 14.577,-1.3438 L 14.577,-1.3125 L 14.577,-1.2813 L 14.577,-1.25 L 14.577,-1.2188 L 14.577,-1.1875 L 14.577,-1.1563 L 14.577,-1.125 L 14.577,-1.0938 L 14.577,-1.0625 L 14.577,-1.0313 L 14.577,-1.0 L 14.577,-0.9688 L 14.577,-0.9375 L 14.577,-0.9063 L 14.577,-0.875 L 14.577,-0.8438 L 14.577,-0.8125 L 14.577,-0.7813 L 14.577,-0.75 L 14.577,-0.7188 L 14.577,-0.6875 L 14.577,-0.6563 L 14.577,-0.625 L 14.577,-0.5938 L 14.577,-0.5625 L 14.577,-0.5313 L 14.577,-0.5 L 14.577,-0.4688 L 14.577,-0.4375 L 14.577,-0.4063 L 14.577,-0.375 L 14.577,-0.3438 L 14.577,-0.3125 L 14.577,-0.2813 L 14.577,-0.25 L 14.577,-0.2188 L 14.577,-0.1875 L 14.577,-0.1563 L 14.577,-0.125 L 14.577,-0.0938 L 14.577,-0.0625 L 14.577,-0.0313 L 14.577,0.0" />
      <path d="M 14.577,0.0 L 14.577,0.0312 L 14.577,0.0625 L 14.577,0.0937 L 14.577,0.125 L 14.577,0.1562 L 14.577,0.1875 L 14.577,0.2187 L 14.577,0.25 L 14.577,0.2812 L 14.577,0.3125 L 14.577,0.3437 L 14.577,0.375 L 14.577,0.4062 L 14.577,0.4375 L 14.577,0.4687 L 14.577,0.5 L 14.577,0.5312 L 14.577,0.5625 L 14.577,0.5937 L 14.577,0.625 L 14.577,0.6562 L 14.577,0.6875 L 14.577,0.7187 L 14.577,0.75 L 14.577,0.7812 L 14.577,0.8125 L 14.577,0.8437 L 14.577,0.875 L 14.577,0.9062 L 14.577,0.9375 L 14.577,0.9687 L 14.577,1.0 L 14.577,1.0312 L 14.577,1.0625 L 14.577,1.0937 L 14.577,1.125 L 14.577,1.1562 L 14.577,1.1875 L 14.577,1.2187 L 14.577,1.25 L 14.577,1.2812 L 14.577,1.3125 L 14.577,1.3437 L 14.577,1.375 L 14.577,1.4062 L 14.577,1.4375 L 14.577,1.4688 L 14.577,1.5 L 14.577,1.5312 L 14.577,1.5625 L 14.577,1.5938 L 14.577,1.625 L 14.577,1.6562 L 14.577,1.6875 L 14.577,1.7188 L 14.577,1.75 L 14.577,1.7812 L 14.577,1.8125 L 14.577,1.8438 L 14.577,1.875 L 14.577,1.9062 L 14.577,1.9375 L 14.577,1.9688 L 14.577,2.0 L 14.577,2.0313 L 14.577,2.0625 L 14.577,2.0938 L 14.577,2.125 L 14.577,2.1563 L 14.577,2.1875 L 14.577,2.2188 L 14.577,2.25" />
      <path d="M 14.4073,2.25 L 14.4096,2.25 L 14.412,2.25 L 14.4143,2.25 L 14.4167,2.25 L 14.4191,2.25 L 14.4214,2.25 L 14.4238,2.25 L 14.4261,2.25 L 14.4285,2.25 L 14.4308,2.25 L 14.4332,2.25 L 14.4356,2.25 L 14.4379,2.25 L 14.4403,2.25 L 14.4426,2.25 L 14.445,2.25 L 14.4473,2.25 L 14.4497,2.25 L 14.4521,2.25 L 14.4544,2.25 L 14.4568,2.25 L 14.4591,2.25 L 14.4615,2.25 L 14.4638,2.25 L 14.4662,2.25 L 14.4686,2.25 L 14.4709,2.25 L 14.4733,2.25 L 14.4756,2.25 L 14.478,2.25 L 14.4803,2.25 L 14.4827,2.25 L 14.4851,2.25 L 14.4874,2.25 L 14.4898,2.25 L 14.4921,2.25 L 14.4945,2.25 L 14.4968,2.25 L 14.4992,2.25 L 14.5016,2.25 L 14.5039,2.25 L 14.5063,2.25 L 14.5086,2.25 L 14.511,2.25 L 14.5133,2.25 L 14.5157,2.25 L 14.5181,2.25 L 14.5204,2.25 L 14.5228,2.25 L 14.5251,2.25 L 14.5275,2.25 L 14.5298,2.25 L 14.5322,2.25 L 14.5346,2.25 L 14.5369,2.25 L 14.5393,2.25 L 14.5416,2.25 L 14.544,2.25 L 14.5463,2.25 L 14.5487,2.25 L 14.5511,2.25 L 14.5534,2.25 L 14.5558,2.25 L 14.5581,2.25 L 14.5605,2.25 L 14.5628,2.25 L 14.5652,2.25 L 14.5676,2.25 L 14.5699,2.25 L 14.5723,2.25 L 14.5746,2.25 L 14.577,2.25" />
      <path d="M 14.4073,2.25 L 14.36,2.5421 L 14.307,2.8332 L 14.2482,3.1231 L 14.1838,3.4119 L 14.1137,3.6994 L 14.0379,3.9854 L 13.9564,4.2698 L 13.8694,4.5526 L 13.7768,4.8336 L 13.6787,5.1128 L 13.5752,5.3899 L 13.4661,5.665 L 13.3517,5.9378 L 13.2319,6.2084 L 13.1068,6.4765 L 12.9764,6.7421 L 12.8408,7.0051 L 12.7001,7.2653 L 12.5542,7.5227 L 12.4033,7.7772 L 12.2474,8.0287 L 12.0866,8.2771 L 11.9209,8.5222 L 11.7504,8.764 L 11.5752,9.0024 L 11.3953,9.2373 L 11.2108,9.4686 L 11.0217,9.6963 L 10.8283,9.9201 L 10.6304,10.1401 L 10.4283,10.3561 L 10.2219,10.5682 L 10.0114,10.7761 L 9.7968,10.9798 L 9.5782,11.1792 L 9.3558,11.3743 L 9.1295,11.565 L 8.8996,11.7511 L 8.666,11.9327 L 8.4288,12.1097 L 8.1883,12.2819 L 7.9443,12.4494 L 7.6972,12.612 L 7.4468,12.7697 L 7.1934,12.9225 L 6.9371,13.0702 L 6.6778,13.2128 L 6.4158,13.3503 L 6.1512,13.4826 L 5.884,13.6096 L 5.6143,13.7314 L 5.3423,13.8478 L 5.068,13.9588 L 4.7916,14.0644 L 4.5132,14.1645 L 4.2329,14.2591 L 3.9507,14.3482 L 3.6669,14.4317 L 3.3814,14.5095 L 3.0945,14.5817 L 2.8062,14.6483 L 2.5166,14.7091 L 2.2259,14.7642 L 1.9342,14.8136 L 1.6416,14.8572 L 1.3481,14.8951 L 1.054,14.9271 L 0.7593,14.9533 L 0.4641,14.9737 L 0.1686,14.9883 L -0.1272,14.9971 L -0.423,15.0" />
      <path d="M -0.423,-15.0 L -0.1272,-14.9971 L 0.1686,-14.9883 L 0.4641,-14.9737 L 0.7593,-14.9533 L 1.054,-14.9271 L 1.3481,-14.8951 L 1.6416,-14.8572 L 1.9342,-14.8136 L 2.2259,-14.7642 L 2.5166,-14.7091 L 2.8062,-14.6483 L 3.0945,-14.5817 L 3.3814,-14.5095 L 3.6669,-14.4317 L 3.9507,-14.3482 L 4.2329,-14.2591 L 4.5132,-14.1645 L 4.7916,-14.0644 L 5.068,-13.9588 L 5.3423,-13.8478 L 5.6143,-13.7314 L 5.884,-13.6096 L 6.1512,-13.4826 L 6.4158,-13.3503 L 6.6778,-13.2128 L 6.9371,-13.0702 L 7.1934,-12.9225 L 7.4468,-12.7697 L 7.6972,-12.612 L 7.9443,-12.4494 L 8.1883,-12.2819 L 8.4288,-12.1097 L 8.666,-11.9327 L 8.8996,-11.7511 L 9.1295,-11.565 L 9.3558,-11.3743 L 9.5782,-11.1792 L 9.7968,-10.9798 L 10.0114,-10.7761 L 10.2219,-10.5682 L 10.4283,-10.3561 L 10.6304,-10.1401 L 10.8283,-9.9201 L 11.0217,-9.6963 L 11.2108,-9.4686 L 11.3953,-9.2373 L 11.5752,-9.0024 L 11.7504,-8.764 L 11.9209,-8.5222 L 12.0866,-8.2771 L 12.2474,-8.0287 L 12.4033,-7.7772 L 12.5542,-7.5227 L 12.7001,-7.2653 L 12.8408,-7.0051 L 12.9764,-6.7421 L 13.1068,-6.4765 L 13.2319,-6.2084 L 13.3517,-5.9378 L 13.4661,-5.665 L 13.5752,-5.3899 L 13.6787,-5.1128 L 13.7768,-4.8336 L 13.8694,-4.5526 L 13.9564,-4.2698 L 14.0379,-3.9854 L 14.1137,-3.6994 L 14.1838,-3.4119 L 14.2482,-3.1231 L 14.307,-2.8332 L 14.36,-2.5421 L 14.4073,-2.25" />
      <path d="M -0.4225,6.5 L -0.4226,6.5 L -0.4227,6.5 L -0.4228,6.5 L -0.4229,6.5 L -0.423,6.5" />
      <path d="M -0.423,6.5 L -0.7065,6.4938 L -0.9895,6.4753 L -1.2714,6.4444 L -1.5517,6.4013 L -1.8299,6.3459 L -2.1053,6.2785 L -2.3776,6.1992 L -2.6461,6.108 L -2.9105,6.0052 L -3.17,5.891 L -3.4244,5.7656 L -3.673,5.6292 L -3.9155,5.482 L -4.1513,5.3245 L -4.38,5.1568 L -4.6011,4.9793 L -4.8144,4.7923 L -5.0192,4.5962 L -5.2153,4.3913 L -5.4023,4.1781 L -5.5798,3.9569 L -5.7475,3.7282 L -5.9051,3.4924 L -6.0522,3.25 L -6.1886,3.0014 L -6.314,2.747 L -6.4282,2.4874 L -6.531,2.2231 L -6.6222,1.9546 L -6.7015,1.6823 L -6.7689,1.4069 L -6.8243,1.1287 L -6.8674,0.8484 L -6.8983,0.5665 L -6.9168,0.2835 L -6.923,0.0 L -6.9168,-0.2835 L -6.8983,-0.5665 L -6.8674,-0.8484 L -6.8243,-1.1287 L -6.7689,-1.4069 L -6.7015,-1.6823 L -6.6222,-1.9546 L -6.531,-2.2231 L -6.4282,-2.4874 L -6.314,-2.747 L -6.1886,-3.0014 L -6.0522,-3.25 L -5.9051,-3.4924 L -5.7475,-3.7282 L -5.5798,-3.9569 L -5.4023,-4.1781 L -5.2153,-4.3913 L -5.0192,-4.5962 L -4.8144,-4.7923 L -4.6011,-4.9793 L -4.38,-5.1568 L -4.1513,-5.3245 L -3.9155,-5.482 L -3.673,-5.6292 L -3.4244,-5.7656 L -3.17,-5.891 L -2.9105,-6.0052 L -2.6461,-6.108 L -2.3776,-6.1992 L -2.1053,-6.2785 L -1.8299,-6.3459 L -1.5517,-6.4013 L -1.2714,-6.4444 L -0.9895,-6.4753 L -0.7065,-6.4938 L -0.423,-6.5" />
      <path d="M -0.423,-6.5 L -0.4229,-6.5 L -0.4228,-6.5 L -0.4227,-6.5 L -0.4226,-6.5 L -0.4225,-6.5" />
      <path d="M 14.577,-2.25 L 14.5771,-2.25 L 14.5772,-2.25 L 14.5773,-2.25 L 14.5774,-2.25 L 14.5775,-2.25 L 14.5776,-2.25 L 14.5777,-2.25 L 14.5778,-2.25 L 14.5779,-2.25 L 14.578,-2.25 L 14.5781,-2.25 L 14.5782,-2.25 L 14.5783,-2.25 L 14.5784,-2.25 L 14.5785,-2.25 L 14.5786,-2.25 L 14.5787,-2.25 L 14.5788,-2.25 L 14.5789,-2.25 L 14.579,-2.25 L 14.5791,-2.25" />
      <path d="M 14.577,2.25 L 14.5771,2.25 L 14.5772,2.25 L 14.5773,2.25 L 14.5774,2.25 L 14.5775,2.25 L 14.5776,2.25 L 14.5777,2.25 L 14.5778,2.25 L 14.5779,2.25 L 14.578,2.25 L 14.5781,2.25 L 14.5782,2.25 L 14.5783,2.25 L 14.5784,2.25 L 14.5785,2.25 L 14.5786,2.25 L 14.5787,2.25 L 14.5788,2.25 L 14.5789,2.25 L 14.579,2.25 L 14.5791,2.25" />
      <path d="M 14.577,0.0 L 14.5771,0.0 L 14.5772,0.0 L 14.5773,0.0 L 14.5774,0.0 L 14.5775,0.0" />
      <path d="M 14.4078,-2.25 L 14.3935,-2.25 L 14.3792,-2.25 L 14.3649,-2.25 L 14.3505,-2.25 L 14.3362,-2.25 L 14.3219,-2.25 L 14.3076,-2.25 L 14.2933,-2.25 L 14.279,-2.25 L 14.2647,-2.25 L 14.2504,-2.25 L 14.2361,-2.25 L 14.2218,-2.25 L 14.2074,-2.25 L 14.1931,-2.25 L 14.1788,-2.25 L 14.1645,-2.25 L 14.1502,-2.25 L 14.1359,-2.25 L 14.1216,-2.25 L 14.1073,-2.25 L 14.093,-2.25 L 14.0787,-2.25 L 14.0644,-2.25 L 14.05,-2.25 L 14.0357,-2.25 L 14.0214,-2.25 L 14.0071,-2.25 L 13.9928,-2.25 L 13.9785,-2.25 L 13.9642,-2.25 L 13.9499,-2.25 L 13.9356,-2.25 L 13.9213,-2.25 L 13.9069,-2.25 L 13.8926,-2.25 L 13.8783,-2.25 L 13.864,-2.25 L 13.8497,-2.25 L 13.8354,-2.25 L 13.8211,-2.25 L 13.8068,-2.25 L 13.7925,-2.25 L 13.7782,-2.25 L 13.7638,-2.25 L 13.7495,-2.25 L 13.7352,-2.25 L 13.7209,-2.25 L 13.7066,-2.25 L 13.6923,-2.25 L 13.678,-2.25 L 13.6637,-2.25 L 13.6494,-2.25 L 13.6351,-2.25 L 13.6208,-2.25 L 13.6064,-2.25 L 13.5921,-2.25 L 13.5778,-2.25 L 13.5635,-2.25 L 13.5492,-2.25 L 13.5349,-2.25 L 13.5206,-2.25 L 13.5063,-2.25 L 13.492,-2.25 L 13.4777,-2.25 L 13.4633,-2.25 L 13.449,-2.25 L 13.4347,-2.25 L 13.4204,-2.25 L 13.4061,-2.25 L 13.3918,-2.25 L 13.3775,-2.25" />
      <path d="M 14.4073,-2.25 L 14.4074,-2.25 L 14.4075,-2.25 L 14.4076,-2.25 L 14.4077,-2.25 L 14.4078,-2.25" />
      <path d="M 14.4073,2.25 L 14.4074,2.25 L 14.4075,2.25 L 14.4076,2.25 L 14.4077,2.25 L 14.4078,2.25" />
      <path d="M 14.4078,2.25 L 14.3935,2.25 L 14.3792,2.25 L 14.3649,2.25 L 14.3505,2.25 L 14.3362,2.25 L 14.3219,2.25 L 14.3076,2.25 L 14.2933,2.25 L 14.279,2.25 L 14.2647,2.25 L 14.2504,2.25 L 14.2361,2.25 L 14.2218,2.25 L 14.2074,2.25 L 14.1931,2.25 L 14.1788,2.25 L 14.1645,2.25 L 14.1502,2.25 L 14.1359,2.25 L 14.1216,2.25 L 14.1073,2.25 L 14.093,2.25 L 14.0787,2.25 L 14.0644,2.25 L 14.05,2.25 L 14.0357,2.25 L 14.0214,2.25 L 14.0071,2.25 L 13.9928,2.25 L 13.9785,2.25 L 13.9642,2.25 L 13.9499,2.25 L 13.9356,2.25 L 13.9213,2.25 L 13.9069,2.25 L 13.8926,2.25 L 13.8783,2.25 L 13.864,2.25 L 13.8497,2.25 L 13.8354,2.25 L 13.8211,2.25 L 13.8068,2.25 L 13.7925,2.25 L 13.7782,2.25 L 13.7638,2.25 L 13.7495,2.25 L 13.7352,2.25 L 13.7209,2.25 L 13.7066,2.25 L 13.6923,2.25 L 13.678,2.25 L 13.6637,2.25 L 13.6494,2.25 L 13.6351,2.25 L 13.6208,2.25 L 13.6064,2.25 L 13.5921,2.25 L 13.5778,2.25 L 13.5635,2.25 L 13.5492,2.25 L 13.5349,2.25 L 13.5206,2.25 L 13.5063,2.25 L 13.492,2.25 L 13.4777,2.25 L 13.4633,2.25 L 13.449,2.25 L 13.4347,2.25 L 13.4204,2.25 L 13.4061,2.25 L 13.3918,2.25 L 13.3775,2.25" />
      <path d="M -0.423,-6.5 L -0.4229,-6.5 L -0.4228,-6.5 L -0.4227,-6.5 L -0.4226,-6.5 L -0.4225,-6.5" />
      <path d="M -0.423,6.5 L -0.4229,6.5 L -0.4228,6.5 L -0.4227,6.5 L -0.4226,6.5 L -0.4225,6.5" />
      <path d="M 23.5791,14.5782 L 23.5791,14.5781 L 23.5791,14.578 L 23.5791,14.5779 L 23.5792,14.5779 L 23.5792,14.5778 L 23.5792,14.5777 L 23.5792,14.5776 L 23.5792,14.5775 L 23.5792,14.5774 L 23.5792,14.5773 L 23.5793,14.5773" />
      <path d="M 23.5793,14.5773 L 23.5793,14.5772 L 23.5793,14.5771 L 23.5793,14.577 L 23.5793,14.5769 L 23.5793,14.5768 L 23.5794,14.5767 L 23.5794,14.5766 L 23.5794,14.5765 L 23.5794,14.5764 L 23.5794,14.5763" />
      <path d="M 23.5794,14.4066 L 23.5794,14.409 L 23.5794,14.4113 L 23.5794,14.4137 L 23.5794,14.416 L 23.5794,14.4184 L 23.5794,14.4207 L 23.5794,14.4231 L 23.5794,14.4255 L 23.5794,14.4278 L 23.5794,14.4302 L 23.5794,14.4325 L 23.5794,14.4349 L 23.5794,14.4372 L 23.5794,14.4396 L 23.5794,14.442 L 23.5794,14.4443 L 23.5794,14.4467 L 23.5794,14.449 L 23.5794,14.4514 L 23.5794,14.4537 L 23.5794,14.4561 L 23.5794,14.4585 L 23.5794,14.4608 L 23.5794,14.4632 L 23.5794,14.4655 L 23.5794,14.4679 L 23.5794,14.4702 L 23.5794,14.4726 L 23.5794,14.475 L 23.5794,14.4773 L 23.5794,14.4797 L 23.5794,14.482 L 23.5794,14.4844 L 23.5794,14.4867 L 23.5794,14.4891 L 23.5794,14.4915 L 23.5794,14.4938 L 23.5794,14.4962 L 23.5794,14.4985 L 23.5794,14.5009 L 23.5794,14.5032 L 23.5794,14.5056 L 23.5794,14.508 L 23.5794,14.5103 L 23.5794,14.5127 L 23.5794,14.515 L 23.5794,14.5174 L 23.5794,14.5197 L 23.5794,14.5221 L 23.5794,14.5245 L 23.5794,14.5268 L 23.5794,14.5292 L 23.5794,14.5315 L 23.5794,14.5339 L 23.5794,14.5362 L 23.5794,14.5386 L 23.5794,14.541 L 23.5794,14.5433 L 23.5794,14.5457 L 23.5794,14.548 L 23.5794,14.5504 L 23.5794,14.5527 L 23.5794,14.5551 L 23.5794,14.5575 L 23.5794,14.5598 L 23.5794,14.5622 L 23.5794,14.5645 L 23.5794,14.5669 L 23.5794,14.5692 L 23.5794,14.5716 L 23.5794,14.574 L 23.5794,14.5763" />
      <path d="M 18.5791,14.5782 L 18.5791,14.5781 L 18.5791,14.578 L 18.5791,14.5779 L 18.5792,14.5779 L 18.5792,14.5778 L 18.5792,14.5777 L 18.5792,14.5776 L 18.5792,14.5775 L 18.5792,14.5774 L 18.5792,14.5773 L 18.5793,14.5773 L 18.5793,14.5772 L 18.5793,14.5771 L 18.5793,14.577 L 18.5793,14.5769 L 18.5793,14.5768 L 18.5794,14.5767 L 18.5794,14.5766 L 18.5794,14.5765 L 18.5794,14.5764 L 18.5794,14.5763" />
      <path d="M 23.5794,14.5763 L 23.51,14.5763 L 23.4405,14.5763 L 23.3711,14.5763 L 23.3016,14.5763 L 23.2322,14.5763 L 23.1628,14.5763 L 23.0933,14.5763 L 23.0239,14.5763 L 22.9544,14.5763 L 22.885,14.5763 L 22.8155,14.5763 L 22.7461,14.5763 L 22.6766,14.5763 L 22.6072,14.5763 L 22.5378,14.5763 L 22.4683,14.5763 L 22.3989,14.5763 L 22.3294,14.5763 L 22.26,14.5763 L 22.1905,14.5763 L 22.1211,14.5763 L 22.0516,14.5763 L 21.9822,14.5763 L 21.9128,14.5763 L 21.8433,14.5763 L 21.7739,14.5763 L 21.7044,14.5763 L 21.635,14.5763 L 21.5655,14.5763 L 21.4961,14.5763 L 21.4266,14.5763 L 21.3572,14.5763 L 21.2878,14.5763 L 21.2183,14.5763 L 21.1489,14.5763 L 21.0794,14.5763 L 21.01,14.5763 L 20.9405,14.5763 L 20.8711,14.5763 L 20.8016,14.5763 L 20.7322,14.5763 L 20.6628,14.5763 L 20.5933,14.5763 L 20.5239,14.5763 L 20.4544,14.5763 L 20.385,14.5763 L 20.3155,14.5763 L 20.2461,14.5763 L 20.1766,14.5763 L 20.1072,14.5763 L 20.0378,14.5763 L 19.9683,14.5763 L 19.8989,14.5763 L 19.8294,14.5763 L 19.76,14.5763 L 19.6905,14.5763 L 19.6211,14.5763 L 19.5516,14.5763 L 19.4822,14.5763 L 19.4128,14.5763 L 19.3433,14.5763 L 19.2739,14.5763 L 19.2044,14.5763 L 19.135,14.5763 L 19.0655,14.5763 L 18.9961,14.5763 L 18.9266,14.5763 L 18.8572,14.5763 L 18.7878,14.5763 L 18.7183,14.5763 L 18.6489,14.5763 L 18.5794,14.5763" />
      <path d="M 23.5793,14.5773 L 23.5626,14.5773 L 23.5459,14.5773 L 23.5293,14.5773 L 23.5126,14.5773 L 23.4959,14.5773 L 23.4793,14.5773 L 23.4626,14.5773 L 23.4459,14.5773 L 23.4293,14.5773 L 23.4126,14.5773 L 23.3959,14.5773 L 23.3793,14.5773 L 23.3626,14.5773 L 23.3459,14.5773 L 23.3293,14.5773 L 23.3126,14.5773 L 23.2959,14.5773 L 23.2793,14.5773 L 23.2626,14.5773 L 23.2459,14.5773 L 23.2293,14.5773 L 23.2126,14.5773 L 23.1959,14.5773 L 23.1793,14.5773 L 23.1626,14.5773 L 23.1459,14.5773 L 23.1293,14.5773 L 23.1126,14.5773 L 23.0959,14.5773 L 23.0793,14.5773 L 23.0626,14.5773 L 23.0459,14.5773 L 23.0293,14.5773 L 23.0126,14.5773 L 22.9959,14.5773 L 22.9793,14.5773 L 22.9626,14.5773 L 22.9459,14.5773 L 22.9293,14.5773 L 22.9126,14.5773 L 22.8959,14.5773 L 22.8793,14.5773 L 22.8626,14.5773 L 22.8459,14.5773 L 22.8293,14.5773 L 22.8126,14.5773 L 22.7959,14.5773 L 22.7793,14.5773 L 22.7626,14.5773 L 22.7459,14.5773 L 22.7293,14.5773 L 22.7126,14.5773 L 22.6959,14.5773 L 22.6793,14.5773 L 22.6626,14.5773 L 22.6459,14.5773 L 22.6293,14.5773 L 22.6126,14.5773 L 22.5959,14.5773 L 22.5793,14.5773 L 22.5626,14.5773 L 22.5459,14.5773 L 22.5293,14.5773 L 22.5126,14.5773 L 22.4959,14.5773 L 22.4793,14.5773 L 22.4626,14.5773 L 22.4459,14.5773 L 22.4293,14.5773 L 22.4126,14.5773 L 22.3959,14.5773 L 22.3793,14.5773" />
      <path d="M 22.3791,13.3782 L 22.379,13.3782 L 22.3789,13.3782 L 22.3788,13.3782" />
      <path d="M 22.3791,14.4085 L 22.3791,14.3942 L 22.3791,14.3799 L 22.3791,14.3656 L 22.3791,14.3513 L 22.3791,14.337 L 22.3791,14.3227 L 22.3791,14.3083 L 22.3791,14.294 L 22.3791,14.2797 L 22.3791,14.2654 L 22.3791,14.2511 L 22.3791,14.2368 L 22.3791,14.2225 L 22.3791,14.2082 L 22.3791,14.1939 L 22.3791,14.1796 L 22.3791,14.1652 L 22.3791,14.1509 L 22.3791,14.1366 L 22.3791,14.1223 L 22.3791,14.108 L 22.3791,14.0937 L 22.3791,14.0794 L 22.3791,14.0651 L 22.3791,14.0508 L 22.3791,14.0365 L 22.3791,14.0222 L 22.3791,14.0078 L 22.3791,13.9935 L 22.3791,13.9792 L 22.3791,13.9649 L 22.3791,13.9506 L 22.3791,13.9363 L 22.3791,13.922 L 22.3791,13.9077 L 22.3791,13.8934 L 22.3791,13.8791 L 22.3791,13.8647 L 22.3791,13.8504 L 22.3791,13.8361 L 22.3791,13.8218 L 22.3791,13.8075 L 22.3791,13.7932 L 22.3791,13.7789 L 22.3791,13.7646 L 22.3791,13.7503 L 22.3791,13.736 L 22.3791,13.7216 L 22.3791,13.7073 L 22.3791,13.693 L 22.3791,13.6787 L 22.3791,13.6644 L 22.3791,13.6501 L 22.3791,13.6358 L 22.3791,13.6215 L 22.3791,13.6072 L 22.3791,13.5929 L 22.3791,13.5786 L 22.3791,13.5642 L 22.3791,13.5499 L 22.3791,13.5356 L 22.3791,13.5213 L 22.3791,13.507 L 22.3791,13.4927 L 22.3791,13.4784 L 22.3791,13.4641 L 22.3791,13.4498 L 22.3791,13.4355 L 22.3791,13.4211 L 22.3791,13.4068 L 22.3791,13.3925 L 22.3791,13.3782" />
      <path d="M 22.3794,14.4066 L 22.3796,13.9923 L 22.3796,13.578 L 22.3797,13.1637 L 22.3798,12.7494 L 22.3798,12.3351 L 22.3799,11.9208 L 22.3799,11.5065 L 22.38,11.0922 L 22.38,10.6779 L 22.38,10.2636 L 22.38,9.8493 L 22.3801,9.4351 L 22.3801,9.0208 L 22.3801,8.6065 L 22.3801,8.1922 L 22.3802,7.7779 L 22.3802,7.3636 L 22.3802,6.9493 L 22.3802,6.535 L 22.3802,6.1207 L 22.3802,5.7064 L 22.3803,5.2921 L 22.3803,4.8778 L 22.3803,4.4635 L 22.3803,4.0492 L 22.3803,3.6349 L 22.3803,3.2206 L 22.3803,2.8063 L 22.3803,2.392 L 22.3803,1.9777 L 22.3803,1.5634 L 22.3803,1.1491 L 22.3803,0.7348 L 22.3803,0.3205 L 22.3803,-0.0938 L 22.3803,-0.5081 L 22.3803,-0.9224 L 22.3803,-1.3367 L 22.3803,-1.751 L 22.3803,-2.1652 L 22.3803,-2.5795 L 22.3803,-2.9938 L 22.3803,-3.4081 L 22.3803,-3.8224 L 22.3803,-4.2367 L 22.3803,-4.651 L 22.3803,-5.0653 L 22.3803,-5.4796 L 22.3803,-5.8939 L 22.3803,-6.3082 L 22.3802,-6.7225 L 22.3802,-7.1368 L 22.3802,-7.5511 L 22.3802,-7.9654 L 22.3802,-8.3797 L 22.3802,-8.794 L 22.3801,-9.2083 L 22.3801,-9.6226 L 22.3801,-10.0369 L 22.3801,-10.4512 L 22.38,-10.8655 L 22.38,-11.2798 L 22.38,-11.6941 L 22.3799,-12.1084 L 22.3799,-12.5227 L 22.3799,-12.937 L 22.3798,-13.3512 L 22.3798,-13.7655 L 22.3797,-14.1798 L 22.3796,-14.5941 L 22.3795,-15.0084 L 22.3793,-15.4227" />
      <path d="M 23.5791,14.4066 L 23.5624,14.4066 L 23.5458,14.4066 L 23.5291,14.4066 L 23.5124,14.4066 L 23.4958,14.4066 L 23.4791,14.4066 L 23.4625,14.4066 L 23.4458,14.4066 L 23.4291,14.4066 L 23.4125,14.4066 L 23.3958,14.4066 L 23.3792,14.4066 L 23.3625,14.4066 L 23.3458,14.4066 L 23.3292,14.4066 L 23.3125,14.4066 L 23.2958,14.4066 L 23.2792,14.4066 L 23.2625,14.4066 L 23.2459,14.4066 L 23.2292,14.4066 L 23.2125,14.4066 L 23.1959,14.4066 L 23.1792,14.4066 L 23.1625,14.4066 L 23.1459,14.4066 L 23.1292,14.4066 L 23.1126,14.4066 L 23.0959,14.4066 L 23.0792,14.4066 L 23.0626,14.4066 L 23.0459,14.4066 L 23.0292,14.4066 L 23.0126,14.4066 L 22.9959,14.4066 L 22.9793,14.4066 L 22.9626,14.4066 L 22.9459,14.4066 L 22.9293,14.4066 L 22.9126,14.4066 L 22.8959,14.4066 L 22.8793,14.4066 L 22.8626,14.4066 L 22.846,14.4066 L 22.8293,14.4066 L 22.8126,14.4066 L 22.796,14.4066 L 22.7793,14.4066 L 22.7627,14.4066 L 22.746,14.4066 L 22.7293,14.4066 L 22.7127,14.4066 L 22.696,14.4066 L 22.6793,14.4066 L 22.6627,14.4066 L 22.646,14.4066 L 22.6294,14.4066 L 22.6127,14.4066 L 22.596,14.4066 L 22.5794,14.4066 L 22.5627,14.4066 L 22.546,14.4066 L 22.5294,14.4066 L 22.5127,14.4066 L 22.4961,14.4066 L 22.4794,14.4066 L 22.4627,14.4066 L 22.4461,14.4066 L 22.4294,14.4066 L 22.4127,14.4066 L 22.3961,14.4066 L 22.3794,14.4066" />
      <path d="M 22.3793,6.0773 L 22.3794,5.8967 L 22.3794,5.7162 L 22.3794,5.5356 L 22.3795,5.355 L 22.3795,5.1745 L 22.3795,4.9939 L 22.3795,4.8134 L 22.3796,4.6328 L 22.3796,4.4523 L 22.3796,4.2717 L 22.3796,4.0912 L 22.3796,3.9106 L 22.3796,3.73 L 22.3796,3.5495 L 22.3796,3.3689 L 22.3797,3.1884 L 22.3797,3.0078 L 22.3797,2.8273 L 22.3797,2.6467 L 22.3797,2.4662 L 22.3797,2.2856 L 22.3797,2.105 L 22.3797,1.9245 L 22.3797,1.7439 L 22.3797,1.5634 L 22.3797,1.3828 L 22.3797,1.2023 L 22.3797,1.0217 L 22.3797,0.8412 L 22.3797,0.6606 L 22.3797,0.48 L 22.3797,0.2995 L 22.3797,0.1189 L 22.3797,-0.0616 L 22.3797,-0.2422 L 22.3797,-0.4227 L 22.3797,-0.6033 L 22.3797,-0.7838 L 22.3797,-0.9644 L 22.3797,-1.145 L 22.3797,-1.3255 L 22.3797,-1.5061 L 22.3797,-1.6866 L 22.3797,-1.8672 L 22.3797,-2.0477 L 22.3797,-2.2283 L 22.3797,-2.4088 L 22.3797,-2.5894 L 22.3797,-2.77 L 22.3797,-2.9505 L 22.3797,-3.1311 L 22.3797,-3.3116 L 22.3797,-3.4922 L 22.3797,-3.6727 L 22.3797,-3.8533 L 22.3797,-4.0338 L 22.3796,-4.2144 L 22.3796,-4.395 L 22.3796,-4.5755 L 22.3796,-4.7561 L 22.3796,-4.9366 L 22.3796,-5.1172 L 22.3796,-5.2977 L 22.3796,-5.4783 L 22.3795,-5.6588 L 22.3795,-5.8394 L 22.3795,-6.02 L 22.3795,-6.2005 L 22.3794,-6.3811 L 22.3794,-6.5616 L 22.3794,-6.7422 L 22.3793,-6.9227" />
      <path d="M 22.3793,-6.9227 L 22.3792,-6.7422 L 22.3791,-6.5616 L 22.3791,-6.3811 L 22.379,-6.2005 L 22.379,-6.02 L 22.379,-5.8394 L 22.379,-5.6588 L 22.379,-5.4783 L 22.3789,-5.2977 L 22.3789,-5.1172 L 22.3789,-4.9366 L 22.3789,-4.7561 L 22.3789,-4.5755 L 22.3789,-4.395 L 22.3789,-4.2144 L 22.3789,-4.0338 L 22.3789,-3.8533 L 22.3789,-3.6727 L 22.3788,-3.4922 L 22.3788,-3.3116 L 22.3788,-3.1311 L 22.3788,-2.9505 L 22.3788,-2.77 L 22.3788,-2.5894 L 22.3788,-2.4088 L 22.3788,-2.2283 L 22.3788,-2.0477 L 22.3788,-1.8672 L 22.3788,-1.6866 L 22.3788,-1.5061 L 22.3788,-1.3255 L 22.3788,-1.145 L 22.3788,-0.9644 L 22.3788,-0.7838 L 22.3788,-0.6033 L 22.3788,-0.4227 L 22.3788,-0.2422 L 22.3788,-0.0616 L 22.3788,0.1189 L 22.3788,0.2995 L 22.3788,0.48 L 22.3788,0.6606 L 22.3788,0.8412 L 22.3788,1.0217 L 22.3788,1.2023 L 22.3788,1.3828 L 22.3788,1.5634 L 22.3788,1.7439 L 22.3788,1.9245 L 22.3788,2.105 L 22.3788,2.2856 L 22.3788,2.4662 L 22.3788,2.6467 L 22.3789,2.8273 L 22.3789,3.0078 L 22.3789,3.1884 L 22.3789,3.3689 L 22.3789,3.5495 L 22.3789,3.73 L 22.3789,3.9106 L 22.3789,4.0912 L 22.3789,4.2717 L 22.3789,4.4523 L 22.379,4.6328 L 22.379,4.8134 L 22.379,4.9939 L 22.379,5.1745 L 22.379,5.355 L 22.3791,5.5356 L 22.3791,5.7162 L 22.3791,5.8967 L 22.3793,6.0773" />
      <path d="M 18.5794,13.3763 L 18.5794,13.393 L 18.5794,13.4096 L 18.5794,13.4263 L 18.5794,13.443 L 18.5794,13.4596 L 18.5794,13.4763 L 18.5794,13.493 L 18.5794,13.5096 L 18.5794,13.5263 L 18.5794,13.543 L 18.5794,13.5596 L 18.5794,13.5763 L 18.5794,13.593 L 18.5794,13.6096 L 18.5794,13.6263 L 18.5794,13.643 L 18.5794,13.6596 L 18.5794,13.6763 L 18.5794,13.693 L 18.5794,13.7096 L 18.5794,13.7263 L 18.5794,13.743 L 18.5794,13.7596 L 18.5794,13.7763 L 18.5794,13.793 L 18.5794,13.8096 L 18.5794,13.8263 L 18.5794,13.843 L 18.5794,13.8596 L 18.5794,13.8763 L 18.5794,13.893 L 18.5794,13.9096 L 18.5794,13.9263 L 18.5794,13.943 L 18.5794,13.9596 L 18.5794,13.9763 L 18.5794,13.993 L 18.5794,14.0096 L 18.5794,14.0263 L 18.5794,14.043 L 18.5794,14.0596 L 18.5794,14.0763 L 18.5794,14.093 L 18.5794,14.1096 L 18.5794,14.1263 L 18.5794,14.143 L 18.5794,14.1596 L 18.5794,14.1763 L 18.5794,14.193 L 18.5794,14.2096 L 18.5794,14.2263 L 18.5794,14.243 L 18.5794,14.2596 L 18.5794,14.2763 L 18.5794,14.293 L 18.5794,14.3096 L 18.5794,14.3263 L 18.5794,14.343 L 18.5794,14.3596 L 18.5794,14.3763 L 18.5794,14.393 L 18.5794,14.4096 L 18.5794,14.4263 L 18.5794,14.443 L 18.5794,14.4596 L 18.5794,14.4763 L 18.5794,14.493 L 18.5794,14.5096 L 18.5794,14.5263 L 18.5794,14.543 L 18.5794,14.5596 L 18.5794,14.5763" />
      <path d="M 22.3794,13.3763 L 22.3793,13.3763 L 22.3792,13.3763 L 22.3791,13.3763 L 22.379,13.3763 L 22.3789,13.3763 L 22.3788,13.3763" />
      <path d="M 22.3794,14.4066 L 22.3794,14.3923 L 22.3794,14.378 L 22.3794,14.3637 L 22.3794,14.3494 L 22.3794,14.3351 L 22.3794,14.3207 L 22.3794,14.3064 L 22.3794,14.2921 L 22.3794,14.2778 L 22.3794,14.2635 L 22.3794,14.2492 L 22.3794,14.2349 L 22.3794,14.2206 L 22.3794,14.2063 L 22.3794,14.192 L 22.3794,14.1777 L 22.3794,14.1633 L 22.3794,14.149 L 22.3794,14.1347 L 22.3794,14.1204 L 22.3794,14.1061 L 22.3794,14.0918 L 22.3794,14.0775 L 22.3794,14.0632 L 22.3794,14.0489 L 22.3794,14.0346 L 22.3794,14.0202 L 22.3794,14.0059 L 22.3794,13.9916 L 22.3794,13.9773 L 22.3794,13.963 L 22.3794,13.9487 L 22.3794,13.9344 L 22.3794,13.9201 L 22.3794,13.9058 L 22.3794,13.8915 L 22.3794,13.8772 L 22.3794,13.8628 L 22.3794,13.8485 L 22.3794,13.8342 L 22.3794,13.8199 L 22.3794,13.8056 L 22.3794,13.7913 L 22.3794,13.777 L 22.3794,13.7627 L 22.3794,13.7484 L 22.3794,13.7341 L 22.3794,13.7197 L 22.3794,13.7054 L 22.3794,13.6911 L 22.3794,13.6768 L 22.3794,13.6625 L 22.3794,13.6482 L 22.3794,13.6339 L 22.3794,13.6196 L 22.3794,13.6053 L 22.3794,13.591 L 22.3794,13.5767 L 22.3794,13.5623 L 22.3794,13.548 L 22.3794,13.5337 L 22.3794,13.5194 L 22.3794,13.5051 L 22.3794,13.4908 L 22.3794,13.4765 L 22.3794,13.4622 L 22.3794,13.4479 L 22.3794,13.4336 L 22.3794,13.4192 L 22.3794,13.4049 L 22.3794,13.3906 L 22.3794,13.3763" />
      <path d="M 22.3791,13.3782 L 22.3791,13.3781 L 22.3791,13.378 L 22.3791,13.3779 L 22.3792,13.3779 L 22.3792,13.3778 L 22.3792,13.3777 L 22.3792,13.3776 L 22.3792,13.3775 L 22.3792,13.3774 L 22.3792,13.3773 L 22.3793,13.3773 L 22.3793,13.3772 L 22.3793,13.3771 L 22.3793,13.377 L 22.3793,13.3769 L 22.3793,13.3768 L 22.3794,13.3767 L 22.3794,13.3766 L 22.3794,13.3765 L 22.3794,13.3764 L 22.3794,13.3763" />
      <path d="M 23.5783,6.0773 L 23.5616,6.0773 L 23.545,6.0773 L 23.5283,6.0773 L 23.5117,6.0773 L 23.495,6.0773 L 23.4784,6.0773 L 23.4617,6.0773 L 23.4451,6.0773 L 23.4284,6.0773 L 23.4118,6.0773 L 23.3951,6.0773 L 23.3784,6.0773 L 23.3618,6.0773 L 23.3451,6.0773 L 23.3285,6.0773 L 23.3118,6.0773 L 23.2952,6.0773 L 23.2785,6.0773 L 23.2619,6.0773 L 23.2452,6.0773 L 23.2286,6.0773 L 23.2119,6.0773 L 23.1953,6.0773 L 23.1786,6.0773 L 23.162,6.0773 L 23.1453,6.0773 L 23.1286,6.0773 L 23.112,6.0773 L 23.0953,6.0773 L 23.0787,6.0773 L 23.062,6.0773 L 23.0454,6.0773 L 23.0287,6.0773 L 23.0121,6.0773 L 22.9954,6.0773 L 22.9788,6.0773 L 22.9621,6.0773 L 22.9455,6.0773 L 22.9288,6.0773 L 22.9122,6.0773 L 22.8955,6.0773 L 22.8789,6.0773 L 22.8622,6.0773 L 22.8455,6.0773 L 22.8289,6.0773 L 22.8122,6.0773 L 22.7956,6.0773 L 22.7789,6.0773 L 22.7623,6.0773 L 22.7456,6.0773 L 22.729,6.0773 L 22.7123,6.0773 L 22.6957,6.0773 L 22.679,6.0773 L 22.6624,6.0773 L 22.6457,6.0773 L 22.6291,6.0773 L 22.6124,6.0773 L 22.5958,6.0773 L 22.5791,6.0773 L 22.5624,6.0773 L 22.5458,6.0773 L 22.5291,6.0773 L 22.5125,6.0773 L 22.4958,6.0773 L 22.4792,6.0773 L 22.4625,6.0773 L 22.4459,6.0773 L 22.4292,6.0773 L 22.4126,6.0773 L 22.3959,6.0773 L 22.3793,6.0773" />
      <path d="M 23.5783,-6.9227 L 23.5616,-6.9227 L 23.545,-6.9227 L 23.5283,-6.9227 L 23.5117,-6.9227 L 23.495,-6.9227 L 23.4784,-6.9227 L 23.4617,-6.9227 L 23.4451,-6.9227 L 23.4284,-6.9227 L 23.4118,-6.9227 L 23.3951,-6.9227 L 23.3784,-6.9227 L 23.3618,-6.9227 L 23.3451,-6.9227 L 23.3285,-6.9227 L 23.3118,-6.9227 L 23.2952,-6.9227 L 23.2785,-6.9227 L 23.2619,-6.9227 L 23.2452,-6.9227 L 23.2286,-6.9227 L 23.2119,-6.9227 L 23.1953,-6.9227 L 23.1786,-6.9227 L 23.162,-6.9227 L 23.1453,-6.9227 L 23.1286,-6.9227 L 23.112,-6.9227 L 23.0953,-6.9227 L 23.0787,-6.9227 L 23.062,-6.9227 L 23.0454,-6.9227 L 23.0287,-6.9227 L 23.0121,-6.9227 L 22.9954,-6.9227 L 22.9788,-6.9227 L 22.9621,-6.9227 L 22.9455,-6.9227 L 22.9288,-6.9227 L 22.9122,-6.9227 L 22.8955,-6.9227 L 22.8789,-6.9227 L 22.8622,-6.9227 L 22.8455,-6.9227 L 22.8289,-6.9227 L 22.8122,-6.9227 L 22.7956,-6.9227 L 22.7789,-6.9227 L 22.7623,-6.9227 L 22.7456,-6.9227 L 22.729,-6.9227 L 22.7123,-6.9227 L 22.6957,-6.9227 L 22.679,-6.9227 L 22.6624,-6.9227 L 22.6457,-6.9227 L 22.6291,-6.9227 L 22.6124,-6.9227 L 22.5958,-6.9227 L 22.5791,-6.9227 L 22.5624,-6.9227 L 22.5458,-6.9227 L 22.5291,-6.9227 L 22.5125,-6.9227 L 22.4958,-6.9227 L 22.4792,-6.9227 L 22.4625,-6.9227 L 22.4459,-6.9227 L 22.4292,-6.9227 L 22.4126,-6.9227 L 22.3959,-6.9227 L 22.3793,-6.9227" />
    </g>
  </g>
</svg>