<?xml version='1.0' encoding='utf-8'?>
<svg width="56.4mm" height="48.4mm" viewBox="-24.2 -24.2 56.4 48.4" version="1.1" xmlns="http://www.w3.org/2000/svg">
  <g transform="scale(1,-1)" stroke-linecap="round">
    <g fill="none" stroke="rgb(0,0,0)" stroke-width="0.4" id="Visible">
      <path d="M 22.0,0.0 L 21.9163,1.9174 L 21.6658,3.8203 L 21.2504,5.694 L 20.6732,7.5244 L 19.9388,9.2976 L 19.0526,11.0 L 18.0213,12.6187 L 16.853,14.1413 L 15.5563,15.5563 L 14.1413,16.853 L 12.6187,18.0213 L 11.0,19.0526 L 9.2976,19.9388 L 7.5244,20.6732 L 5.694,21.2504 L 3.8203,21.6658 L 1.9174,21.9163 L 0.0,22.0 L -1.9174,21.9163 L -3.8203,21.6658 L -5.694,21.2504 L -7.5244,20.6732 L -9.2976,19.9388 L -11.0,19.0526 L -12.6187,18.0213 L -14.1413,16.853 L -15.5563,15.5563 L -16.853,14.1413 L -18.0213,12.6187 L -19.0526,11.0 L -19.9388,9.2976 L -20.6732,7.5244 L -21.2504,5.694 L -21.6658,3.8203 L -21.9163,1.9174 L -22.0,0.0 L -21.9163,-1.9174 L -21.6658,-3.8203 L -21.2504,-5.694 L -20.6732,-7.5244 L -19.9388,-9.2976 L -19.0526,-11.0 L -18.0213,-12.6187 L -16.853,-14.1413 L -15.5563,-15.5563 L -14.1413,-16.853 L -12.6187,-18.0213 L -11.0,-19.0526 L -9.2976,-19.9388 L -7.5244,-20.6732 L -5.694,-21.2504 L -3.8203,-21.6658 L -1.9174,-21.9163 L -0.0,-22.0 L 1.9174,-21.9163 L 3.8203,-21.6658 L 5.694,-21.2504 L 7.5244,-20.6732 L 9.2976,-19.9388 L 11.0,-19.0526 L 12.6187,-18.0213 L 14.1413,-16.853 L 15.5563,-15.5563 L 16.853,-14.1413 L 18.0213,-12.6187 L 19.0526,-11.0 L 19.9388,-9.2976 L 20.6732,-7.5244 L 21.2504,-5.694 L 21.6658,-3.8203 L 21.9163,-1.9174 L 22.0,-0.0" />
      <path d="M 6.75,0.0 L 6.7243,0.5883 L 6.6475,1.1721 L 6.52,1.747 L 6.3429,2.3086 L 6.1176,2.8527 L 5.8457,3.375 L 5.5293,3.8716 L 5.1708,4.3388 L 4.773,4.773 L 4.3388,5.1708 L 3.8716,5.5293 L 3.375,5.8457 L 2.8527,6.1176 L 2.3086,6.3429 L 1.747,6.52 L 1.1721,6.6475 L 0.5883,6.7243 L 0.0,6.75 L -0.5883,6.7243 L -1.1721,6.6475 L -1.747,6.52 L -2.3086,6.3429 L -2.8527,6.1176 L -3.375,5.8457 L -3.8716,5.5293 L -4.3388,5.1708 L -4.773,4.773 L -5.1708,4.3388 L -5.5293,3.8716 L -5.8457,3.375 L -6.1176,2.8527 L -6.3429,2.3086 L -6.52,1.747 L -6.6475,1.1721 L -6.7243,0.5883 L -6.75,-0.0 L -6.7243,-0.5883 L -6.6475,-1.1721 L -6.52,-1.747 L -6.3429,-2.3086 L -6.1176,-2.8527 L -5.8457,-3.375 L -5.5293,-3.8716 L -5.1708,-4.3388 L -4.773,-4.773 L -4.3388,-5.1708 L -3.8716,-5.5293 L -3.375,-5.8457 L -2.8527,-6.1176 L -2.3086,-6.3429 L -1.747,-6.52 L -1.1721,-6.6475 L -0.5883,-6.7243 L -0.0,-6.75 L 0.5883,-6.7243 L 1.1721,-6.6475 L 1.747,-6.52 L 2.3086,-6.3429 L 2.8527,-6.1176 L 3.375,-5.8457 L 3.8716,-5.5293 L 4.3388,-5.1708 L 4.773,-4.773 L 5.1708,-4.3388 L 5.5293,-3.8716 L 5.8457,-3.375 L 6.1176,-2.8527 L 6.3429,-2.3086 L 6.52,-1.747 L 6.6475,-1.1721 L 6.7243,-0.5883 L 6.75,0.0" />
      <path d="M 26.0,-22.0 L 26.0,-21.3889 L 26.0,-20.7778 L 26.0,-20.1667 L 26.0,-19.5556 L 26.0,-18.9444 L 26.0,-18.3333 L 26.0,-17.7222 L 26.0,-17.1111 L 26.0,-16.5 L 26.0,-15.8889 L 26.0,-15.2778 L 26.0,-14.6667 L 26.0,-14.0556 L 26.0,-13.4444 L 26.0,-12.8333 L 26.0,-12.2222 L 26.0,-11.6111 L 26.0,-11.0 L 26.0,-10.3889 L 26.0,-9.7778 L 26.0,-9.1667 L 26.0,-8.5556 L 26.0,-7.9444 L 26.0,-7.3333 L 26.0,-6.7222 L 26.0,-6.1111 L 26.0,-5.5 L 26.0,-4.8889 L 26.0,-4.2778 L 26.0,-3.6667 L 26.0,-3.0556 L 26.0,-2.4444 L 26.0,-1.8333 L 26.0,-1.2222 L 26.0,-0.6111 L 26.0,0.0 L 26.0,0.6111 L 26.0,1.2222 L 26.0,1.8333 L 26.0,2.4444 L 26.0,3.0556 L 26.0,3.6667 L 26.0,4.2778 L 26.0,4.8889 L 26.0,5.5 L 26.0,6.1111 L 26.0,6.7222 L 26.0,7.3333 L 26.0,7.9444 L 26.0,8.5556 L 26.0,9.1667 L 26.0,9.7778 L 26.0,10.3889 L 26.0,11.0 L 26.0,11.6111 L 26.0,12.2222 L 26.0,12.8333 L 26.0,13.4444 L 26.0,14.0556 L 26.0,14.6667 L 26.0,15.2778 L 26.0,15.8889 L 26.0,16.5 L 26.0,17.1111 L 26.0,17.7222 L 26.0,18.3333 L 26.0,18.9444 L 26.0,19.5556 L 26.0,20.1667 L 26.0,20.7778 L 26.0,21.3889 L 26.0,22.0" />
      <path d="M 30.0,22.0 L 29.9444,22.0 L 29.8889,22.0 L 29.8333,22.0 L 29.7778,22.0 L 29.7222,22.0 L 29.6667,22.0 L 29.6111,22.0 L 29.5556,22.0 L 29.5,22.0 L 29.4444,22.0 L 29.3889,22.0 L 29.3333,22.0 L 29.2778,22.0 L 29.2222,22.0 L 29.1667,22.0 L 29.1111,22.0 L 29.0556,22.0 L 29.0,22.0 L 28.9444,22.0 L 28.8889,22.0 L 28.8333,22.0 L 28.7778,22.0 L 28.7222,22.0 L 28.6667,22.0 L 28.6111,22.0 L 28.5556,22.0 L 28.5,22.0 L 28.4444,22.0 L 28.3889,22.0 L 28.3333,22.0 L 28.2778,22.0 L 28.2222,22.0 L 28.1667,22.0 L 28.1111,22.0 L 28.0556,22.0 L 28.0,22.0 L 27.9444,22.0 L 27.8889,22.0 L 27.8333,22.0 L 27.7778,22.0 L 27.7222,22.0 L 27.6667,22.0 L 27.6111,22.0 L 27.5556,22.0 L 27.5,22.0 L 27.4444,22.0 L 27.3889,22.0 L 27.3333,22.0 L 27.2778,22.0 L 27.2222,22.0 L 27.1667,22.0 L 27.1111,22.0 L 27.0556,22.0 L 27.0,22.0 L 26.9444,22.0 L 26.8889,22.0 L 26.8333,22.0 L 26.7778,22.0 L 26.7222,22.0 L 26.6667,22.0 L 26.6111,22.0 L 26.5556,22.0 L 26.5,22.0 L 26.4444,22.0 L 26.3889,22.0 L 26.3333,22.0 L 26.2778,22.0 L 26.2222,22.0 L 26.1667,22.0 L 26.1111,22.0 L 26.0556,22.0 L 26.0,22.0" />
      <path d="M 30.0,-22.0 L 30.0,-21.3889 L 30.0,-20.7778 L 30.0,-20.1667 L 30.0,-19.5556 L 30.0,-18.9444 L 30.0,-18.3333 L 30.0,-17.7222 L 30.0,-17.1111 L 30.0,-16.5 L 30.0,-15.8889 L 30.0,-15.2778 L 30.0,-14.6667 L 30.0,-14.0556 L 30.0,-13.4444 L 30.0,-12.8333 L 30.0,-12.2222 L 30.0,-11.6111 L 30.0,-11.0 L 30.0,-10.3889 L 30.0,-9.7778 L 30.0,-9.1667 L 30.0,-8.5556 L 30.0,-7.9444 L 30.0,-7.3333 L 30.0,-6.7222 L 30.0,-6.1111 L 30.0,-5.5 L 30.0,-4.8889 L 30.0,-4.2778 L 30.0,-3.6667 L 30.0,-3.0556 L 30.0,-2.4444 L 30.0,-1.8333 L 30.0,-1.2222 L 30.0,-0.6111 L 30.0,0.0 L 30.0,0.6111 L 30.0,1.2222 L 30.0,1.8333 L 30.0,2.4444 L 30.0,3.0556 L 30.0,3.6667 L 30.0,4.2778 L 30.0,4.8889 L 30.0,5.5 L 30.0,6.1111 L 30.0,6.7222 L 30.0,7.3333 L 30.0,7.9444 L 30.0,8.5556 L 30.0,9.1667 L 30.0,9.7778 L 30.0,10.3889 L 30.0,11.0 L 30.0,11.6111 L 30.0,12.2222 L 30.0,12.8333 L 30.0,13.4444 L 30.0,14.0556 L 30.0,14.6667 L 30.0,15.2778 L 30.0,15.8889 L 30.0,16.5 L 30.0,17.1111 L 30.0,17.7222 L 30.0,18.3333 L 30.0,18.9444 L 30.0,19.5556 L 30.0,20.1667 L 30.0,20.7778 L 30.0,21.3889 L 30.0,22.0" />
      <path d="M 30.0,-22.0 L 29.9444,-22.0 L 29.8889,-22.0 L 29.8333,-22.0 L 29.7778,-22.0 L 29.7222,-22.0 L 29.6667,-22.0 L 29.6111,-22.0 L 29.5556,-22.0 L 29.5,-22.0 L 29.4444,-22.0 L 29.3889,-22.0 L 29.3333,-22.0 L 29.2778,-22.0 L 29.2222,-22.0 L 29.1667,-22.0 L 29.1111,-22.0 L 29.0556,-22.0 L 29.0,-22.0 L 28.9444,-22.0 L 28.8889,-22.0 L 28.8333,-22.0 L 28.7778,-22.0 L 28.7222,-22.0 L 28.6667,-22.0 L 28.6111,-22.0 L 28.5556,-22.0 L 28.5,-22.0 L 28.4444,-22.0 L 28.3889,-22.0 L 28.3333,-22.0 L 28.2778,-22.0 L 28.2222,-22.0 L 28.1667,-22.0 L 28.1111,-22.0 L 28.0556,-22.0 L 28.0,-22.0 L 27.9444,-22.0 L 27.8889,-22.0 L 27.8333,-22.0 L 27.7778,-22.0 L 27.7222,-22.0 L 27.6667,-22.0 L 27.6111,-22.0 L 27.5556,-22.0 L 27.5,-22.0 L 27.4444,-22.0 L 27.3889,-22.0 L 27.3333,-22.0 L 27.2778,-22.0 L 27.2222,-22.0 L 27.1667,-22.0 L 27.1111,-22.0 L 27.0556,-22.0 L 27.0,-22.0 L 26.9444,-22.0 L 26.8889,-22.0 L 26.8333,-22.0 L 26.7778,-22.0 L 26.7222,-22.0 L 26.6667,-22.0 L 26.6111,-22.0 L 26.5556,-22.0 L 26.5,-22.0 L 26.4444,-22.0 L 26.3889,-22.0 L 26.3333,-22.0 L 26.2778,-22.0 L 26.2222,-22.0 L 26.1667,-22.0 L 26.1111,-22.0 L 26.0556,-22.0 L 26.0,-22.0" />
    </g>
    <g fill="none" stroke="rgb(110,110,110)" stroke-width="0.3" id="Hidden" stroke-dasharray="3.6 0.9">
      <path d="M 22.0,0.0 L 21.9163,1.9174 L 21.6658,3.8203 L 21.2504,5.694 L 20.6732,7.5244 L 19.9388,9.2976 L 19.0526,11.0 L 18.0213,12.6187 L 16.853,14.1413 L 15.5563,15.5563 L 14.1413,16.853 L 12.6187,18.0213 L 11.0,19.0526 L 9.2976,19.9388 L 7.5244,20.6732 L 5.694,21.2504 L 3.8203,21.6658 L 1.9174,21.9163 L 0.0,22.0 L -1.9174,21.9163 L -3.8203,21.6658 L -5.694,21.2504 L -7.5244,20.6732 L -9.2976,19.9388 L -11.0,19.0526 L -12.6187,18.0213 L -14.1413,16.853 L -15.5563,15.5563 L -16.853,14.1413 L -18.0213,12.6187 L -19.0526,11.0 L -19.9388,9.2976 L -20.6732,7.5244 L -21.2504,5.694 L -21.6658,3.8203 L -21.9163,1.9174 L -22.0,0.0 L -21.9163,-1.9174 L -21.6658,-3.8203 L -21.2504,-5.694 L -20.6732,-7.5244 L -19.9388,-9.2976 L -19.0526,-11.0 L -18.0213,-12.6187 L -16.853,-14.1413 L -15.5563,-15.5563 L -14.1413,-16.853 L -12.6187,-18.0213 L -11.0,-19.0526 L -9.2976,-19.9388 L -7.5244,-20.6732 L -5.694,-21.2504 L -3.8203,-21.6658 L -1.9174,-21.9163 L -0.0,-22.0 L 1.9174,-21.9163 L 3.8203,-21.6658 L 5.694,-21.2504 L 7.5244,-20.6732 L 9.2976,-19.9388 L 11.0,-19.0526 L 12.6187,-18.0213 L 14.1413,-16.853 L 15.5563,-15.5563 L 16.853,-14.1413 L 18.0213,-12.6187 L 19.0526,-11.0 L 19.9388,-9.2976 L 20.6732,-7.5244 L 21.2504,-5.694 L 21.6658,-3.8203 L 21.9163,-1.9174 L 22.0,-0.0" />
      <path d="M 6.75,0.0 L 6.7243,0.5883 L 6.6475,1.1721 L 6.52,1.747 L 6.3429,2.3086 L 6.1176,2.8527 L 5.8457,3.375 L 5.5293,3.8716 L 5.1708,4.3388 L 4.773,4.773 L 4.3388,5.1708 L 3.8716,5.5293 L 3.375,5.8457 L 2.8527,6.1176 L 2.3086,6.3429 L 1.747,6.52 L 1.1721,6.6475 L 0.5883,6.7243 L 0.0,6.75 L -0.5883,6.7243 L -1.1721,6.6475 L -1.747,6.52 L -2.3086,6.3429 L -2.8527,6.1176 L -3.375,5.8457 L -3.8716,5.5293 L -4.3388,5.1708 L -4.773,4.773 L -5.1708,4.3388 L -5.5293,3.8716 L -5.8457,3.375 L -6.1176,2.8527 L -6.3429,2.3086 L -6.52,1.747 L -6.6475,1.1721 L -6.7243,0.5883 L -6.75,-0.0 L -6.7243,-0.5883 L -6.6475,-1.1721 L -6.52,-1.747 L -6.3429,-2.3086 L -6.1176,-2.8527 L -5.8457,-3.375 L -5.5293,-3.8716 L -5.1708,-4.3388 L -4.773,-4.773 L -4.3388,-5.1708 L -3.8716,-5.5293 L -3.375,-5.8457 L -2.8527,-6.1176 L -2.3086,-6.3429 L -1.747,-6.52 L -1.1721,-6.6475 L -0.5883,-6.7243 L -0.0,-6.75 L 0.5883,-6.7243 L 1.1721,-6.6475 L 1.747,-6.52 L 2.3086,-6.3429 L 2.8527,-6.1176 L 3.375,-5.8457 L 3.8716,-5.5293 L 4.3388,-5.1708 L 4.773,-4.773 L 5.1708,-4.3388 L 5.5293,-3.8716 L 5.8457,-3.375 L 6.1176,-2.8527 L 6.3429,-2.3086 L 6.52,-1.747 L 6.6475,-1.1721 L 6.7243,-0.5883 L 6.75,0.0" />
      <path d="M 26.0,22.0 L 26.0,21.3889 L 26.0,20.7778 L 26.0,20.1667 L 26.0,19.5556 L 26.0,18.9444 L 26.0,18.3333 L 26.0,17.7222 L 26.0,17.1111 L 26.0,16.5 L 26.0,15.8889 L 26.0,15.2778 L 26.0,14.6667 L 26.0,14.0556 L 26.0,13.4444 L 26.0,12.8333 L 26.0,12.2222 L 26.0,11.6111 L 26.0,11.0 L 26.0,10.3889 L 26.0,9.7778 L 26.0,9.1667 L 26.0,8.5556 L 26.0,7.9444 L 26.0,7.3333 L 26.0,6.7222 L 26.0,6.1111 L 26.0,5.5 L 26.0,4.8889 L 26.0,4.2778 L 26.0,3.6667 L 26.0,3.0556 L 26.0,2.4444 L 26.0,1.8333 L 26.0,1.2222 L 26.0,0.6111 L 26.0,0.0 L 26.0,-0.6111 L 26.0,-1.2222 L 26.0,-1.8333 L 26.0,-2.4444 L 26.0,-3.0556 L 26.0,-3.6667 L 26.0,-4.2778 L 26.0,-4.8889 L 26.0,-5.5 L 26.0,-6.1111 L 26.0,-6.7222 L 26.0,-7.3333 L 26.0,-7.9444 L 26.0,-8.5556 L 26.0,-9.1667 L 26.0,-9.7778 L 26.0,-10.3889 L 26.0,-11.0 L 26.0,-11.6111 L 26.0,-12.2222 L 26.0,-12.8333 L 26.0,-13.4444 L 26.0,-14.0556 L 26.0,-14.6667 L 26.0,-15.2778 L 26.0,-15.8889 L 26.0,-16.5 L 26.0,-17.1111 L 26.0,-17.7222 L 26.0,-18.3333 L 26.0,-18.9444 L 26.0,-19.5556 L 26.0,-20.1667 L 26.0,-20.7778 L 26.0,-21.3889 L 26.0,-22.0" />
      <path d="M 30.0,22.0 L 30.0,21.3889 L 30.0,20.7778 L 30.0,20.1667 L 30.0,19.5556 L 30.0,18.9444 L 30.0,18.3333 L 30.0,17.7222 L 30.0,17.1111 L 30.0,16.5 L 30.0,15.8889 L 30.0,15.2778 L 30.0,14.6667 L 30.0,14.0556 L 30.0,13.4444 L 30.0,12.8333 L 30.0,12.2222 L 30.0,11.6111 L 30.0,11.0 L 30.0,10.3889 L 30.0,9.7778 L 30.0,9.1667 L 30.0,8.5556 L 30.0,7.9444 L 30.0,7.3333 L 30.0,6.7222 L 30.0,6.1111 L 30.0,5.5 L 30.0,4.8889 L 30.0,4.2778 L 30.0,3.6667 L 30.0,3.0556 L 30.0,2.4444 L 30.0,1.8333 L 30.0,1.2222 L 30.0,0.6111 L 30.0,0.0 L 30.0,-0.6111 L 30.0,-1.2222 L 30.0,-1.8333 L 30.0,-2.4444 L 30.0,-3.0556 L 30.0,-3.6667 L 30.0,-4.2778 L 30.0,-4.8889 L 30.0,-5.5 L 30.0,-6.1111 L 30.0,-6.7222 L 30.0,-7.3333 L 30.0,-7.9444 L 30.0,-8.5556 L 30.0,-9.1667 L 30.0,-9.7778 L 30.0,-10.3889 L 30.0,-11.0 L 30.0,-11.6111 L 30.0,-12.2222 L 30.0,-12.8333 L 30.0,-13.4444 L 30.0,-14.0556 L 30.0,-14.6667 L 30.0,-15.2778 L 30.0,-15.8889 L 30.0,-16.5 L 30.0,-17.1111 L 30.0,-17.7222 L 30.0,-18.3333 L 30.0,-18.9444 L 30.0,-19.5556 L 30.0,-20.1667 L 30.0,-20.7778 L 30.0,-21.3889 L 30.0,-22.0" />
      <path d="M 26.0,6.75 L 26.0,6.5625 L 26.0,6.375 L 26.0,6.1875 L 26.0,6.0 L 26.0,5.8125 L 26.0,5.625 L 26.0,5.4375 L 26.0,5.25 L 26.0,5.0625 L 26.0,4.875 L 26.0,4.6875 L 26.0,4.5 L 26.0,4.3125 L 26.0,4.125 L 26.0,3.9375 L 26.0,3.75 L 26.0,3.5625 L 26.0,3.375 L 26.0,3.1875 L 26.0,3.0 L 26.0,2.8125 L 26.0,2.625 L 26.0,2.4375 L 26.0,2.25 L 26.0,2.0625 L 26.0,1.875 L 26.0,1.6875 L 26.0,1.5 L 26.0,1.3125 L 26.0,1.125 L 26.0,0.9375 L 26.0,0.75 L 26.0,0.5625 L 26.0,0.375 L 26.0,0.1875 L 26.0,0.0 L 26.0,-0.1875 L 26.0,-0.375 L 26.0,-0.5625 L 26.0,-0.75 L 26.0,-0.9375 L 26.0,-1.125 L 26.0,-1.3125 L 26.0,-1.5 L 26.0,-1.6875 L 26.0,-1.875 L 26.0,-2.0625 L 26.0,-2.25 L 26.0,-2.4375 L 26.0,-2.625 L 26.0,-2.8125 L 26.0,-3.0 L 26.0,-3.1875 L 26.0,-3.375 L 26.0,-3.5625 L 26.0,-3.75 L 26.0,-3.9375 L 26.0,-4.125 L 26.0,-4.3125 L 26.0,-4.5 L 26.0,-4.6875 L 26.0,-4.875 L 26.0,-5.0625 L 26.0,-5.25 L 26.0,-5.4375 L 26.0,-5.625 L 26.0,-5.8125 L 26.0,-6.0 L 26.0,-6.1875 L 26.0,-6.375 L 26.0,-6.5625 L 26.0,-6.75" />
      <path d="M 26.0,-6.75 L 26.0,-6.5625 L 26.0,-6.375 L 26.0,-6.1875 L 26.0,-6.0 L 26.0,-5.8125 L 26.0,-5.625 L 26.0,-5.4375 L 26.0,-5.25 L 26.0,-5.0625 L 26.0,-4.875 L 26.0,-4.6875 L 26.0,-4.5 L 26.0,-4.3125 L 26.0,-4.125 L 26.0,-3.9375 L 26.0,-3.75 L 26.0,-3.5625 L 26.0,-3.375 L 26.0,-3.1875 L 26.0,-3.0 L 26.0,-2.8125 L 26.0,-2.625 L 26.0,-2.4375 L 26.0,-2.25 L 26.0,-2.0625 L 26.0,-1.875 L 26.0,-1.6875 L 26.0,-1.5 L 26.0,-1.3125 L 26.0,-1.125 L 26.0,-0.9375 L 26.0,-0.75 L 26.0,-0.5625 L 26.0,-0.375 L 26.0,-0.1875 L 26.0,0.0 L 26.0,0.1875 L 26.0,0.375 L 26.0,0.5625 L 26.0,0.75 L 26.0,0.9375 L 26.0,1.125 L 26.0,1.3125 L 26.0,1.5 L 26.0,1.6875 L 26.0,1.875 L 26.0,2.0625 L 26.0,2.25 L 26.0,2.4375 L 26.0,2.625 L 26.0,2.8125 L 26.0,3.0 L 26.0,3.1875 L 26.0,3.375 L 26.0,3.5625 L 26.0,3.75 L 26.0,3.9375 L 26.0,4.125 L 26.0,4.3125 L 26.0,4.5 L 26.0,4.6875 L 26.0,4.875 L 26.0,5.0625 L 26.0,5.25 L 26.0,5.4375 L 26.0,5.625 L 26.0,5.8125 L 26.0,6.0 L 26.0,6.1875 L 26.0,6.375 L 26.0,6.5625 L 26.0,6.75" />
      <path d="M 30.0,6.75 L 30.0,6.5625 L 30.0,6.375 L 30.0,6.1875 L 30.0,6.0 L 30.0,5.8125 L 30.0,5.625 L 30.0,5.4375 L 30.0,5.25 L 30.0,5.0625 L 30.0,4.875 L 30.0,4.6875 L 30.0,4.5 L 30.0,4.3125 L 30.0,4.125 L 30.0,3.9375 L 30.0,3.75 L 30.0,3.5625 L 30.0,3.375 L 30.0,3.1875 L 30.0,3.0 L 30.0,2.8125 L 30.0,2.625 L 30.0,2.4375 L 30.0,2.25 L 30.0,2.0625 L 30.0,1.875 L 30.0,1.6875 L 30.0,1.5 L 30.0,1.3125 L 30.0,1.125 L 30.0,0.9375 L 30.0,0.75 L 30.0,0.5625 L 30.0,0.375 L 30.0,0.1875 L 30.0,0.0 L 30.0,-0.1875 L 30.0,-0.375 L 30.0,-0.5625 L 30.0,-0.75 L 30.0,-0.9375 L 30.0,-1.125 L 30.0,-1.3125 L 30.0,-1.5 L 30.0,-1.6875 L 30.0,-1.875 L 30.0,-2.0625 L 30.0,-2.25 L 30.0,-2.4375 L 30.0,-2.625 L 30.0,-2.8125 L 30.0,-3.0 L 30.0,-3.1875 L 30.0,-3.375 L 30.0,-3.5625 L 30.0,-3.75 L 30.0,-3.9375 L 30.0,-4.125 L 30.0,-4.3125 L 30.0,-4.5 L 30.0,-4.6875 L 30.0,-4.875 L 30.0,-5.0625 L 30.0,-5.25 L 30.0,-5.4375 L 30.0,-5.625 L 30.0,-5.8125 L 30.0,-6.0 L 30.0,-6.1875 L 30.0,-6.375 L 30.0,-6.5625 L 30.0,-6.75" />
      <path d="M 30.0,-6.75 L 30.0,-6.5625 L 30.0,-6.375 L 30.0,-6.1875 L 30.0,-6.0 L 30.0,-5.8125 L 30.0,-5.625 L 30.0,-5.4375 L 30.0,-5.25 L 30.0,-5.0625 L 30.0,-4.875 L 30.0,-4.6875 L 30.0,-4.5 L 30.0,-4.3125 L 30.0,-4.125 L 30.0,-3.9375 L 30.0,-3.75 L 30.0,-3.5625 L 30.0,-3.375 L 30.0,-3.1875 L 30.0,-3.0 L 30.0,-2.8125 L 30.0,-2.625 L 30.0,-2.4375 L 30.0,-2.25 L 30.0,-2.0625 L 30.0,-1.875 L 30.0,-1.6875 L 30.0,-1.5 L 30.0,-1.3125 L 30.0,-1.125 L 30.0,-0.9375 L 30.0,-0.75 L 30.0,-0.5625 L 30.0,-0.375 L 30.0,-0.1875 L 30.0,0.0 L 30.0,0.1875 L 30.0,0.375 L 30.0,0.5625 L 30.0,0.75 L 30.0,0.9375 L 30.0,1.125 L 30.0,1.3125 L 30.0,1.5 L 30.0,1.6875 L 30.0,1.875 L 30.0,2.0625 L 30.0,2.25 L 30.0,2.4375 L 30.0,2.625 L 30.0,2.8125 L 30.0,3.0 L 30.0,3.1875 L 30.0,3.375 L 30.0,3.5625 L 30.0,3.75 L 30.0,3.9375 L 30.0,4.125 L 30.0,4.3125 L 30.0,4.5 L 30.0,4.6875 L 30.0,4.875 L 30.0,5.0625 L 30.0,5.25 L 30.0,5.4375 L 30.0,5.625 L 30.0,5.8125 L 30.0,6.0 L 30.0,6.1875 L 30.0,6.375 L 30.0,6.5625 L 30.0,6.75" />
      <path d="M 30.0,6.75 L 29.9444,6.75 L 29.8889,6.75 L 29.8333,6.75 L 29.7778,6.75 L 29.7222,6.75 L 29.6667,6.75 L 29.6111,6.75 L 29.5556,6.75 L 29.5,6.75 L 29.4444,6.75 L 29.3889,6.75 L 29.3333,6.75 L 29.2778,6.75 L 29.2222,6.75 L 29.1667,6.75 L 29.1111,6.75 L 29.0556,6.75 L 29.0,6.75 L 28.9444,6.75 L 28.8889,6.75 L 28.8333,6.75 L 28.7778,6.75 L 28.7222,6.75 L 28.6667,6.75 L 28.6111,6.75 L 28.5556,6.75 L 28.5,6.75 L 28.4444,6.75 L 28.3889,6.75 L 28.3333,6.75 L 28.2778,6.75 L 28.2222,6.75 L 28.1667,6.75 L 28.1111,6.75 L 28.0556,6.75 L 28.0,6.75 L 27.9444,6.75 L 27.8889,6.75 L 27.8333,6.75 L 27.7778,6.75 L 27.7222,6.75 L 27.6667,6.75 L 27.6111,6.75 L 27.5556,6.75 L 27.5,6.75 L 27.4444,6.75 L 27.3889,6.75 L 27.3333,6.75 L 27.2778,6.75 L 27.2222,6.75 L 27.1667,6.75 L 27.1111,6.75 L 27.0556,6.75 L 27.0,6.75 L 26.9444,6.75 L 26.8889,6.75 L 26.8333,6.75 L 26.7778,6.75 L 26.7222,6.75 L 26.6667,6.75 L 26.6111,6.75 L 26.5556,6.75 L 26.5,6.75 L 26.4444,6.75 L 26.3889,6.75 L 26.3333,6.75 L 26.2778,6.75 L 26.2222,6.75 L 26.1667,6.75 L 26.1111,6.75 L 26.0556,6.75 L 26.0,6.75" />
      <path d="M 30.0,-6.75 L 29.9444,-6.75 L 29.8889,-6.75 L 29.8333,-6.75 L 29.7778,-6.75 L 29.7222,-6.75 L 29.6667,-6.75 L 29.6111,-6.75 L 29.5556,-6.75 L 29.5,-6.75 L 29.4444,-6.75 L 29.3889,-6.75 L 29.3333,-6.75 L 29.2778,-6.75 L 29.2222,-6.75 L 29.1667,-6.75 L 29.1111,-6.75 L 29.0556,-6.75 L 29.0,-6.75 L 28.9444,-6.75 L 28.8889,-6.75 L 28.8333,-6.75 L 28.7778,-6.75 L 28.7222,-6.75 L 28.6667,-6.75 L 28.6111,-6.75 L 28.5556,-6.75 L 28.5,-6.75 L 28.4444,-6.75 L 28.3889,-6.75 L 28.3333,-6.75 L 28.2778,-6.75 L 28.2222,-6.75 L 28.1667,-6.75 L 28.1111,-6.75 L 28.0556,-6.75 L 28.0,-6.75 L 27.9444,-6.75 L 27.8889,-6.75 L 27.8333,-6.75 L 27.7778,-6.75 L 27.7222,-6.75 L 27.6667,-6.75 L 27.6111,-6.75 L 27.5556,-6.75 L 27.5,-6.75 L 27.4444,-6.75 L 27.3889,-6.75 L 27.3333,-6.75 L 27.2778,-6.75 L 27.2222,-6.75 L 27.1667,-6.75 L 27.1111,-6.75 L 27.0556,-6.75 L 27.0,-6.75 L 26.9444,-6.75 L 26.8889,-6.75 L 26.8333,-6.75 L 26.7778,-6.75 L 26.7222,-6.75 L 26.6667,-6.75 L 26.6111,-6.75 L 26.5556,-6.75 L 26.5,-6.75 L 26.4444,-6.75 L 26.3889,-6.75 L 26.3333,-6.75 L 26.2778,-6.75 L 26.2222,-6.75 L 26.1667,-6.75 L 26.1111,-6.75 L 26.0556,-6.75 L 26.0,-6.75" />
    </g>
  </g>
</svg>