<?xml version='1.0' encoding='utf-8'?>
<svg width="67.0077mm" height="50.8mm" viewBox="-25.4 -25.4 67.0077 50.8" version="1.1" xmlns="http://www.w3.org/2000/svg">
  <g transform="scale(1,-1)" stroke-linecap="round">
    <g fill="none" stroke="rgb(0,0,0)" stroke-width="0.4" id="Visible">
      <path d="M 0.0,20.0 L -1.7431,19.9239 L -3.473,19.6962 L -5.1764,19.3185 L -6.8404,18.7939 L -8.4524,18.1262 L -10.0,17.3205 L -11.4715,16.383 L -12.8558,15.3209 L -14.1421,14.1421 L -15.3209,12.8558 L -16.383,11.4715 L -17.3205,10.0 L -18.1262,8.4524 L -18.7939,6.8404 L -19.3185,5.1764 L -19.6962,3.473 L -19.9239,1.7431 L -20.0,-0.0 L -19.9239,-1.7431 L -19.6962,-3.473 L -19.3185,-5.1764 L -18.7939,-6.8404 L -18.1262,-8.4524 L -17.3205,-10.0 L -16.383,-11.4715 L -15.3209,-12.8558 L -14.1421,-14.1421 L -12.8558,-15.3209 L -11.4715,-16.383 L -10.0,-17.3205 L -8.4524,-18.1262 L -6.8404,-18.7939 L -5.1764,-19.3185 L -3.473,-19.6962 L -1.7431,-19.9239 L 0.0,-20.0 L 1.7431,-19.9239 L 3.473,-19.6962 L 5.1764,-19.3185 L 6.8404,-18.7939 L 8.4524,-18.1262 L 10.0,-17.3205 L 11.4715,-16.383 L 12.8558,-15.3209 L 14.1421,-14.1421 L 15.3209,-12.8558 L 16.383,-11.4715 L 17.3205,-10.0 L 18.1262,-8.4524 L 18.7939,-6.8404 L 19.3185,-5.1764 L 19.6962,-3.473 L 19.9239,-1.7431 L 20.0,0.0 L 19.9239,1.7431 L 19.6962,3.473 L 19.3185,5.1764 L 18.7939,6.8404 L 18.1262,8.4524 L 17.3205,10.0 L 16.383,11.4715 L 15.3209,12.8558 L 14.1421,14.1421 L 12.8558,15.3209 L 11.4715,16.383 L 10.0,17.3205 L 8.4524,18.1262 L 6.8404,18.7939 L 5.1764,19.3185 L 3.473,19.6962 L 1.7431,19.9239 L -0.0,20.0" />
      <path d="M 0.0,5.05 L -0.4401,5.0308 L -0.8769,4.9733 L -1.307,4.8779 L -1.7272,4.7454 L -2.1342,4.5769 L -2.525,4.3734 L -2.8966,4.1367 L -3.2461,3.8685 L -3.5709,3.5709 L -3.8685,3.2461 L -4.1367,2.8966 L -4.3734,2.525 L -4.5769,2.1342 L -4.7454,1.7272 L -4.8779,1.307 L -4.9733,0.8769 L -5.0308,0.4401 L -5.05,-0.0 L -5.0308,-0.4401 L -4.9733,-0.8769 L -4.8779,-1.307 L -4.7454,-1.7272 L -4.5769,-2.1342 L -4.3734,-2.525 L -4.1367,-2.8966 L -3.8685,-3.2461 L -3.5709,-3.5709 L -3.2461,-3.8685 L -2.8966,-4.1367 L -2.525,-4.3734 L -2.1342,-4.5769 L -1.7272,-4.7454 L -1.307,-4.8779 L -0.8769,-4.9733 L -0.4401,-5.0308 L 0.0,-5.05 L 0.4401,-5.0308 L 0.8769,-4.9733 L 1.307,-4.8779 L 1.7272,-4.7454 L 2.1342,-4.5769 L 2.525,-4.3734 L 2.8966,-4.1367 L 3.2461,-3.8685 L 3.5709,-3.5709 L 3.8685,-3.2461 L 4.1367,-2.8966 L 4.3734,-2.525 L 4.5769,-2.1342 L 4.7454,-1.7272 L 4.8779,-1.307 L 4.9733,-0.8769 L 5.0308,-0.4401 L 5.05,0.0 L 5.0308,0.4401 L 4.9733,0.8769 L 4.8779,1.307 L 4.7454,1.7272 L 4.5769,2.1342 L 4.3734,2.525 L 4.1367,2.8966 L 3.8685,3.2461 L 3.5709,3.5709 L 3.2461,3.8685 L 2.8966,4.1367 L 2.525,4.3734 L 2.1342,4.5769 L 1.7272,4.7454 L 1.307,4.8779 L 0.8769,4.9733 L 0.4401,5.0308 L -0.0,5.05" />
      <path d="M 24.1342,-20.0 L 24.1028,-19.4465 L 24.0901,-18.891 L 24.0806,-18.3355 L 24.0727,-17.7799 L 24.066,-17.2243 L 24.06,-16.6687 L 24.0547,-16.1131 L 24.0499,-15.5575 L 24.0454,-15.0019 L 24.0414,-14.4463 L 24.0376,-13.8907 L 24.0342,-13.3351 L 24.031,-12.7795 L 24.028,-12.2239 L 24.0252,-11.6683 L 24.0226,-11.1126 L 24.0202,-10.557 L 24.018,-10.0014 L 24.0159,-9.4458 L 24.014,-8.8902 L 24.0122,-8.3346 L 24.0106,-7.7789 L 24.0091,-7.2233 L 24.0077,-6.6677 L 24.0064,-6.1121 L 24.0053,-5.5565 L 24.0043,-5.0008 L 24.0034,-4.4452 L 24.0026,-3.8896 L 24.0019,-3.334 L 24.0013,-2.7784 L 24.0008,-2.2228 L 24.0005,-1.6671 L 24.0002,-1.1115 L 24.0001,-0.5559 L 24.0,-0.0003 L 24.0001,0.5553 L 24.0002,1.1109 L 24.0005,1.6666 L 24.0008,2.2222 L 24.0013,2.7778 L 24.0019,3.3334 L 24.0026,3.889 L 24.0034,4.4446 L 24.0043,5.0003 L 24.0053,5.5559 L 24.0064,6.1115 L 24.0077,6.6671 L 24.0091,7.2227 L 24.0106,7.7783 L 24.0122,8.334 L 24.014,8.8896 L 24.0159,9.4452 L 24.018,10.0008 L 24.0202,10.5564 L 24.0226,11.112 L 24.0252,11.6676 L 24.028,12.2232 L 24.031,12.7788 L 24.0342,13.3345 L 24.0376,13.8901 L 24.0414,14.4457 L 24.0454,15.0013 L 24.0499,15.5569 L 24.0547,16.1125 L 24.06,16.6681 L 24.066,17.2236 L 24.0727,17.7792 L 24.0806,18.3348 L 24.0901,18.8903 L 24.1028,19.4458 L 24.1342,20.0" />
      <path d="M 34.1339,20.0 L 33.9951,20.0 L 33.8562,20.0 L 33.7173,20.0 L 33.5784,20.0 L 33.4395,20.0 L 33.3006,20.0 L 33.1617,20.0 L 33.0229,20.0 L 32.884,20.0 L 32.7451,20.0 L 32.6062,20.0 L 32.4673,20.0 L 32.3284,20.0 L 32.1895,20.0 L 32.0507,20.0 L 31.9118,20.0 L 31.7729,20.0 L 31.634,20.0 L 31.4951,20.0 L 31.3562,20.0 L 31.2173,20.0 L 31.0785,20.0 L 30.9396,20.0 L 30.8007,20.0 L 30.6618,20.0 L 30.5229,20.0 L 30.384,20.0 L 30.2451,20.0 L 30.1063,20.0 L 29.9674,20.0 L 29.8285,20.0 L 29.6896,20.0 L 29.5507,20.0 L 29.4118,20.0 L 29.2729,20.0 L 29.1341,20.0 L 28.9952,20.0 L 28.8563,20.0 L 28.7174,20.0 L 28.5785,20.0 L 28.4396,20.0 L 28.3007,20.0 L 28.1619,20.0 L 28.023,20.0 L 27.8841,20.0 L 27.7452,20.0 L 27.6063,20.0 L 27.4674,20.0 L 27.3285,20.0 L 27.1897,20.0 L 27.0508,20.0 L 26.9119,20.0 L 26.773,20.0 L 26.6341,20.0 L 26.4952,20.0 L 26.3563,20.0 L 26.2175,20.0 L 26.0786,20.0 L 25.9397,20.0 L 25.8008,20.0 L 25.6619,20.0 L 25.523,20.0 L 25.3841,20.0 L 25.2453,20.0 L 25.1064,20.0 L 24.9675,20.0 L 24.8286,20.0 L 24.6897,20.0 L 24.5508,20.0 L 24.4119,20.0 L 24.2731,20.0 L 24.1342,20.0" />
      <path d="M 34.1339,20.0 L 34.1488,19.8768 L 34.155,19.7519 L 34.1597,19.6269 L 34.1637,19.502 L 34.1672,19.377 L 34.1703,19.252 L 34.1732,19.127 L 34.1758,19.002 L 34.1783,18.877 L 34.1806,18.752 L 34.1828,18.6269 L 34.1849,18.5019 L 34.1869,18.3769 L 34.1888,18.2519 L 34.1906,18.1268 L 34.1924,18.0018 L 34.1941,17.8768 L 34.1958,17.7518 L 34.1973,17.6267 L 34.1989,17.5017 L 34.2004,17.3767 L 34.2018,17.2517 L 34.2032,17.1266 L 34.2046,17.0016 L 34.2059,16.8766 L 34.2073,16.7515 L 34.2085,16.6265 L 34.2098,16.5015 L 34.211,16.3764 L 34.2122,16.2514 L 34.2133,16.1264 L 34.2144,16.0013 L 34.2155,15.8763 L 34.2166,15.7513 L 34.2177,15.6263 L 34.2187,15.5012 L 34.2198,15.3762 L 34.2207,15.2512 L 34.2217,15.1261 L 34.2227,15.0011 L 34.2236,14.8761 L 34.2246,14.751 L 34.2255,14.626 L 34.2264,14.501 L 34.2272,14.3759 L 34.2281,14.2509 L 34.2289,14.1259 L 34.2298,14.0008 L 34.2306,13.8758 L 34.2314,13.7508 L 34.2322,13.6257 L 34.2329,13.5007 L 34.2337,13.3757 L 34.2344,13.2506 L 34.2352,13.1256 L 34.2359,13.0006 L 34.2366,12.8755 L 34.2373,12.7505 L 34.238,12.6254 L 34.2387,12.5004 L 34.2394,12.3754 L 34.24,12.2503 L 34.2407,12.1253 L 34.2413,12.0003 L 34.2419,11.8752 L 34.2425,11.7502 L 34.2431,11.6252 L 34.2437,11.5001 L 34.2443,11.3751 L 34.2449,11.2501 L 34.2454,11.125 L 34.246,11.0" />
      <path d="M 34.246,-11.0 L 34.2454,-11.125 L 34.2449,-11.2501 L 34.2443,-11.3751 L 34.2437,-11.5001 L 34.2431,-11.6252 L 34.2425,-11.7502 L 34.2419,-11.8752 L 34.2413,-12.0003 L 34.2407,-12.1253 L 34.24,-12.2503 L 34.2394,-12.3754 L 34.2387,-12.5004 L 34.238,-12.6254 L 34.2373,-12.7504 L 34.2366,-12.8755 L 34.2359,-13.0005 L 34.2352,-13.1255 L 34.2345,-13.2506 L 34.2337,-13.3756 L 34.2329,-13.5006 L 34.2322,-13.6257 L 34.2314,-13.7507 L 34.2306,-13.8757 L 34.2298,-14.0008 L 34.2289,-14.1258 L 34.2281,-14.2508 L 34.2272,-14.3758 L 34.2264,-14.5009 L 34.2255,-14.6259 L 34.2246,-14.7509 L 34.2236,-14.876 L 34.2227,-15.001 L 34.2217,-15.126 L 34.2207,-15.2511 L 34.2198,-15.3761 L 34.2187,-15.5011 L 34.2177,-15.6261 L 34.2166,-15.7512 L 34.2155,-15.8762 L 34.2144,-16.0012 L 34.2133,-16.1263 L 34.2122,-16.2513 L 34.211,-16.3763 L 34.2098,-16.5013 L 34.2085,-16.6264 L 34.2073,-16.7514 L 34.2059,-16.8764 L 34.2046,-17.0014 L 34.2032,-17.1265 L 34.2018,-17.2515 L 34.2004,-17.3765 L 34.1989,-17.5016 L 34.1973,-17.6266 L 34.1958,-17.7516 L 34.1941,-17.8766 L 34.1924,-18.0016 L 34.1906,-18.1267 L 34.1888,-18.2517 L 34.1869,-18.3767 L 34.1849,-18.5017 L 34.1828,-18.6267 L 34.1806,-18.7517 L 34.1783,-18.8768 L 34.1758,-19.0018 L 34.1732,-19.1268 L 34.1703,-19.2518 L 34.1672,-19.3768 L 34.1637,-19.5018 L 34.1598,-19.6267 L 34.155,-19.7517 L 34.1488,-19.8765 L 34.1339,-20.0" />
      <path d="M 34.1339,-20.0 L 34.1026,-19.4465 L 34.0899,-18.891 L 34.0804,-18.3355 L 34.0725,-17.7799 L 34.0658,-17.2243 L 34.0598,-16.6687 L 34.0545,-16.1131 L 34.0496,-15.5575 L 34.0452,-15.0019 L 34.0412,-14.4463 L 34.0374,-13.8907 L 34.034,-13.3351 L 34.0307,-12.7795 L 34.0278,-12.2239 L 34.025,-11.6683 L 34.0224,-11.1126 L 34.02,-10.557 L 34.0178,-10.0014 L 34.0157,-9.4458 L 34.0138,-8.8902 L 34.012,-8.3346 L 34.0103,-7.7789 L 34.0088,-7.2233 L 34.0075,-6.6677 L 34.0062,-6.1121 L 34.0051,-5.5565 L 34.004,-5.0008 L 34.0031,-4.4452 L 34.0023,-3.8896 L 34.0017,-3.334 L 34.0011,-2.7784 L 34.0006,-2.2228 L 34.0002,-1.6671 L 34.0,-1.1115 L 33.9998,-0.5559 L 33.9998,-0.0003 L 33.9998,0.5553 L 34.0,1.1109 L 34.0002,1.6666 L 34.0006,2.2222 L 34.0011,2.7778 L 34.0017,3.3334 L 34.0023,3.889 L 34.0031,4.4446 L 34.004,5.0003 L 34.0051,5.5559 L 34.0062,6.1115 L 34.0074,6.6671 L 34.0088,7.2227 L 34.0103,7.7783 L 34.012,8.334 L 34.0138,8.8896 L 34.0157,9.4452 L 34.0178,10.0008 L 34.02,10.5564 L 34.0224,11.112 L 34.025,11.6676 L 34.0277,12.2232 L 34.0307,12.7788 L 34.0339,13.3345 L 34.0374,13.8901 L 34.0412,14.4457 L 34.0452,15.0013 L 34.0496,15.5569 L 34.0545,16.1125 L 34.0598,16.6681 L 34.0657,17.2236 L 34.0725,17.7792 L 34.0803,18.3348 L 34.0899,18.8903 L 34.1026,19.4458 L 34.1339,20.0" />
      <path d="M 34.1339,-11.0 L 34.1167,-10.6956 L 34.1097,-10.3901 L 34.1045,-10.0845 L 34.1002,-9.779 L 34.0964,-9.4734 L 34.0932,-9.1678 L 34.0902,-8.8622 L 34.0876,-8.5566 L 34.0851,-8.2511 L 34.0829,-7.9455 L 34.0809,-7.6399 L 34.079,-7.3343 L 34.0772,-7.0287 L 34.0755,-6.7231 L 34.074,-6.4175 L 34.0726,-6.112 L 34.0713,-5.8064 L 34.07,-5.5008 L 34.0689,-5.1952 L 34.0678,-4.8896 L 34.0669,-4.584 L 34.066,-4.2784 L 34.0651,-3.9728 L 34.0644,-3.6672 L 34.0637,-3.3616 L 34.0631,-3.0561 L 34.0625,-2.7505 L 34.062,-2.4449 L 34.0616,-2.1393 L 34.0612,-1.8337 L 34.0609,-1.5281 L 34.0606,-1.2225 L 34.0604,-0.9169 L 34.0603,-0.6113 L 34.0602,-0.3057 L 34.0602,-0.0002 L 34.0602,0.3054 L 34.0603,0.611 L 34.0604,0.9166 L 34.0606,1.2222 L 34.0609,1.5278 L 34.0612,1.8334 L 34.0616,2.139 L 34.062,2.4446 L 34.0625,2.7501 L 34.0631,3.0557 L 34.0637,3.3613 L 34.0644,3.6669 L 34.0651,3.9725 L 34.066,4.2781 L 34.0669,4.5837 L 34.0678,4.8893 L 34.0689,5.1948 L 34.07,5.5004 L 34.0713,5.806 L 34.0726,6.1116 L 34.074,6.4172 L 34.0755,6.7228 L 34.0772,7.0284 L 34.0789,7.3339 L 34.0809,7.6395 L 34.0829,7.9451 L 34.0851,8.2507 L 34.0876,8.5563 L 34.0902,8.8619 L 34.0932,9.1674 L 34.0964,9.473 L 34.1002,9.7786 L 34.1045,10.0841 L 34.1097,10.3897 L 34.1167,10.6952 L 34.1339,11.0" />
      <path d="M 36.1339,5.05 L 36.1418,4.9102 L 36.145,4.77 L 36.1474,4.6297 L 36.1494,4.4894 L 36.1511,4.3491 L 36.1526,4.2089 L 36.154,4.0686 L 36.1552,3.9283 L 36.1563,3.788 L 36.1573,3.6477 L 36.1583,3.5074 L 36.1592,3.3671 L 36.16,3.2268 L 36.1607,3.0865 L 36.1614,2.9462 L 36.1621,2.8059 L 36.1627,2.6656 L 36.1632,2.5254 L 36.1638,2.3851 L 36.1643,2.2448 L 36.1647,2.1045 L 36.1651,1.9642 L 36.1655,1.8239 L 36.1658,1.6836 L 36.1662,1.5433 L 36.1664,1.403 L 36.1667,1.2627 L 36.1669,1.1224 L 36.1671,0.9821 L 36.1673,0.8418 L 36.1675,0.7015 L 36.1676,0.5612 L 36.1677,0.421 L 36.1677,0.2807 L 36.1678,0.1404 L 36.1678,0.0001 L 36.1678,-0.1402 L 36.1677,-0.2805 L 36.1677,-0.4208 L 36.1676,-0.5611 L 36.1675,-0.7014 L 36.1673,-0.8417 L 36.1671,-0.982 L 36.1669,-1.1223 L 36.1667,-1.2626 L 36.1664,-1.4029 L 36.1662,-1.5432 L 36.1658,-1.6834 L 36.1655,-1.8237 L 36.1651,-1.964 L 36.1647,-2.1043 L 36.1643,-2.2446 L 36.1638,-2.3849 L 36.1632,-2.5252 L 36.1627,-2.6655 L 36.1621,-2.8058 L 36.1614,-2.9461 L 36.1607,-3.0864 L 36.16,-3.2267 L 36.1592,-3.3669 L 36.1583,-3.5072 L 36.1573,-3.6475 L 36.1563,-3.7878 L 36.1552,-3.9281 L 36.154,-4.0684 L 36.1526,-4.2087 L 36.1511,-4.349 L 36.1494,-4.4893 L 36.1474,-4.6295 L 36.145,-4.7698 L 36.1418,-4.9101 L 36.1339,-5.05" />
      <path d="M 36.1339,-5.05 L 36.126,-4.9102 L 36.1228,-4.77 L 36.1204,-4.6297 L 36.1184,-4.4894 L 36.1167,-4.3491 L 36.1152,-4.2089 L 36.1138,-4.0686 L 36.1126,-3.9283 L 36.1115,-3.788 L 36.1105,-3.6477 L 36.1095,-3.5074 L 36.1087,-3.3671 L 36.1078,-3.2268 L 36.1071,-3.0865 L 36.1064,-2.9462 L 36.1057,-2.8059 L 36.1051,-2.6656 L 36.1046,-2.5254 L 36.104,-2.3851 L 36.1036,-2.2448 L 36.1031,-2.1045 L 36.1027,-1.9642 L 36.1023,-1.8239 L 36.102,-1.6836 L 36.1016,-1.5433 L 36.1014,-1.403 L 36.1011,-1.2627 L 36.1009,-1.1224 L 36.1007,-0.9821 L 36.1005,-0.8418 L 36.1004,-0.7015 L 36.1002,-0.5612 L 36.1001,-0.421 L 36.1001,-0.2807 L 36.1,-0.1404 L 36.1,-0.0001 L 36.1,0.1402 L 36.1001,0.2805 L 36.1001,0.4208 L 36.1002,0.5611 L 36.1004,0.7014 L 36.1005,0.8417 L 36.1007,0.982 L 36.1009,1.1223 L 36.1011,1.2626 L 36.1014,1.4029 L 36.1016,1.5432 L 36.102,1.6834 L 36.1023,1.8237 L 36.1027,1.964 L 36.1031,2.1043 L 36.1036,2.2446 L 36.104,2.3849 L 36.1046,2.5252 L 36.1051,2.6655 L 36.1057,2.8058 L 36.1064,2.9461 L 36.1071,3.0864 L 36.1078,3.2267 L 36.1087,3.3669 L 36.1095,3.5072 L 36.1105,3.6475 L 36.1115,3.7878 L 36.1126,3.9281 L 36.1138,4.0684 L 36.1152,4.2087 L 36.1167,4.349 L 36.1184,4.4893 L 36.1204,4.6295 L 36.1228,4.7698 L 36.126,4.9101 L 36.1339,5.05" />
      <path d="M 36.1339,11.0 L 36.1061,11.0 L 36.0783,11.0 L 36.0506,11.0 L 36.0228,11.0 L 35.995,11.0 L 35.9672,11.0 L 35.9395,11.0 L 35.9117,11.0 L 35.8839,11.0 L 35.8561,11.0 L 35.8284,11.0 L 35.8006,11.0 L 35.7728,11.0 L 35.745,11.0 L 35.7172,11.0 L 35.6895,11.0 L 35.6617,11.0 L 35.6339,11.0 L 35.6061,11.0 L 35.5784,11.0 L 35.5506,11.0 L 35.5228,11.0 L 35.495,11.0 L 35.4673,11.0 L 35.4395,11.0 L 35.4117,11.0 L 35.3839,11.0 L 35.3561,11.0 L 35.3284,11.0 L 35.3006,11.0 L 35.2728,11.0 L 35.245,11.0 L 35.2173,11.0 L 35.1895,11.0 L 35.1617,11.0 L 35.1339,11.0 L 35.1061,11.0 L 35.0784,11.0 L 35.0506,11.0 L 35.0228,11.0 L 34.995,11.0 L 34.9673,11.0 L 34.9395,11.0 L 34.9117,11.0 L 34.8839,11.0 L 34.8562,11.0 L 34.8284,11.0 L 34.8006,11.0 L 34.7728,11.0 L 34.745,11.0 L 34.7173,11.0 L 34.6895,11.0 L 34.6617,11.0 L 34.6339,11.0 L 34.6062,11.0 L 34.5784,11.0 L 34.5506,11.0 L 34.5228,11.0 L 34.4951,11.0 L 34.4673,11.0 L 34.4395,11.0 L 34.4117,11.0 L 34.3839,11.0 L 34.3562,11.0 L 34.3284,11.0 L 34.3006,11.0 L 34.2728,11.0 L 34.2451,11.0 L 34.2173,11.0 L 34.1895,11.0 L 34.1617,11.0 L 34.1339,11.0" />
      <path d="M 36.1339,11.0 L 36.1511,10.6956 L 36.1581,10.3901 L 36.1634,10.0845 L 36.1677,9.779 L 36.1714,9.4734 L 36.1747,9.1678 L 36.1776,8.8622 L 36.1803,8.5566 L 36.1827,8.2511 L 36.1849,7.9455 L 36.187,7.6399 L 36.1889,7.3343 L 36.1907,7.0287 L 36.1923,6.7231 L 36.1938,6.4175 L 36.1953,6.112 L 36.1966,5.8064 L 36.1978,5.5008 L 36.199,5.1952 L 36.2,4.8896 L 36.201,4.584 L 36.2019,4.2784 L 36.2027,3.9728 L 36.2035,3.6672 L 36.2042,3.3616 L 36.2048,3.0561 L 36.2054,2.7505 L 36.2059,2.4449 L 36.2063,2.1393 L 36.2067,1.8337 L 36.207,1.5281 L 36.2072,1.2225 L 36.2074,0.9169 L 36.2076,0.6113 L 36.2077,0.3057 L 36.2077,0.0002 L 36.2077,-0.3054 L 36.2076,-0.611 L 36.2074,-0.9166 L 36.2072,-1.2222 L 36.207,-1.5278 L 36.2067,-1.8334 L 36.2063,-2.139 L 36.2059,-2.4446 L 36.2054,-2.7501 L 36.2048,-3.0557 L 36.2042,-3.3613 L 36.2035,-3.6669 L 36.2027,-3.9725 L 36.2019,-4.2781 L 36.201,-4.5837 L 36.2,-4.8893 L 36.199,-5.1948 L 36.1978,-5.5004 L 36.1966,-5.806 L 36.1953,-6.1116 L 36.1938,-6.4172 L 36.1923,-6.7228 L 36.1907,-7.0284 L 36.1889,-7.3339 L 36.187,-7.6395 L 36.1849,-7.9451 L 36.1827,-8.2507 L 36.1803,-8.5563 L 36.1776,-8.8619 L 36.1747,-9.1674 L 36.1714,-9.473 L 36.1677,-9.7786 L 36.1634,-10.0841 L 36.1581,-10.3897 L 36.1512,-10.6952 L 36.1339,-11.0" />
      <path d="M 36.1339,-11.0 L 36.1167,-10.6956 L 36.1097,-10.3901 L 36.1044,-10.0845 L 36.1001,-9.779 L 36.0964,-9.4734 L 36.0931,-9.1678 L 36.0902,-8.8622 L 36.0875,-8.5566 L 36.0851,-8.2511 L 36.0829,-7.9455 L 36.0808,-7.6399 L 36.0789,-7.3343 L 36.0771,-7.0287 L 36.0755,-6.7231 L 36.074,-6.4175 L 36.0725,-6.112 L 36.0712,-5.8064 L 36.07,-5.5008 L 36.0689,-5.1952 L 36.0678,-4.8896 L 36.0668,-4.584 L 36.0659,-4.2784 L 36.0651,-3.9728 L 36.0643,-3.6672 L 36.0636,-3.3616 L 36.063,-3.0561 L 36.0625,-2.7505 L 36.062,-2.4449 L 36.0615,-2.1393 L 36.0611,-1.8337 L 36.0608,-1.5281 L 36.0606,-1.2225 L 36.0604,-0.9169 L 36.0602,-0.6113 L 36.0601,-0.3057 L 36.0601,-0.0002 L 36.0601,0.3054 L 36.0602,0.611 L 36.0604,0.9166 L 36.0606,1.2222 L 36.0608,1.5278 L 36.0611,1.8334 L 36.0615,2.139 L 36.062,2.4446 L 36.0625,2.7501 L 36.063,3.0557 L 36.0636,3.3613 L 36.0643,3.6669 L 36.0651,3.9725 L 36.0659,4.2781 L 36.0668,4.5837 L 36.0678,4.8893 L 36.0689,5.1948 L 36.07,5.5004 L 36.0712,5.806 L 36.0725,6.1116 L 36.074,6.4172 L 36.0755,6.7228 L 36.0771,7.0284 L 36.0789,7.3339 L 36.0808,7.6395 L 36.0829,7.9451 L 36.0851,8.2507 L 36.0875,8.5563 L 36.0902,8.8619 L 36.0931,9.1674 L 36.0964,9.473 L 36.1001,9.7786 L 36.1044,10.0841 L 36.1097,10.3897 L 36.1167,10.6952 L 36.1339,11.0" />
      <path d="M 34.1339,-20.0 L 33.9951,-20.0 L 33.8562,-20.0 L 33.7173,-20.0 L 33.5784,-20.0 L 33.4395,-20.0 L 33.3006,-20.0 L 33.1617,-20.0 L 33.0229,-20.0 L 32.884,-20.0 L 32.7451,-20.0 L 32.6062,-20.0 L 32.4673,-20.0 L 32.3284,-20.0 L 32.1895,-20.0 L 32.0507,-20.0 L 31.9118,-20.0 L 31.7729,-20.0 L 31.634,-20.0 L 31.4951,-20.0 L 31.3562,-20.0 L 31.2173,-20.0 L 31.0785,-20.0 L 30.9396,-20.0 L 30.8007,-20.0 L 30.6618,-20.0 L 30.5229,-20.0 L 30.384,-20.0 L 30.2451,-20.0 L 30.1063,-20.0 L 29.9674,-20.0 L 29.8285,-20.0 L 29.6896,-20.0 L 29.5507,-20.0 L 29.4118,-20.0 L 29.2729,-20.0 L 29.1341,-20.0 L 28.9952,-20.0 L 28.8563,-20.0 L 28.7174,-20.0 L 28.5785,-20.0 L 28.4396,-20.0 L 28.3007,-20.0 L 28.1619,-20.0 L 28.023,-20.0 L 27.8841,-20.0 L 27.7452,-20.0 L 27.6063,-20.0 L 27.4674,-20.0 L 27.3285,-20.0 L 27.1897,-20.0 L 27.0508,-20.0 L 26.9119,-20.0 L 26.773,-20.0 L 26.6341,-20.0 L 26.4952,-20.0 L 26.3563,-20.0 L 26.2175,-20.0 L 26.0786,-20.0 L 25.9397,-20.0 L 25.8008,-20.0 L 25.6619,-20.0 L 25.523,-20.0 L 25.3841,-20.0 L 25.2453,-20.0 L 25.1064,-20.0 L 24.9675,-20.0 L 24.8286,-20.0 L 24.6897,-20.0 L 24.5508,-20.0 L 24.4119,-20.0 L 24.2731,-20.0 L 24.1342,-20.0" />
      <path d="M 36.1339,-11.0 L 36.1061,-11.0 L 36.0783,-11.0 L 36.0506,-11.0 L 36.0228,-11.0 L 35.995,-11.0 L 35.9672,-11.0 L 35.9395,-11.0 L 35.9117,-11.0 L 35.8839,-11.0 L 35.8561,-11.0 L 35.8284,-11.0 L 35.8006,-11.0 L 35.7728,-11.0 L 35.745,-11.0 L 35.7172,-11.0 L 35.6895,-11.0 L 35.6617,-11.0 L 35.6339,-11.0 L 35.6061,-11.0 L 35.5784,-11.0 L 35.5506,-11.0 L 35.5228,-11.0 L 35.495,-11.0 L 35.4673,-11.0 L 35.4395,-11.0 L 35.4117,-11.0 L 35.3839,-11.0 L 35.3561,-11.0 L 35.3284,-11.0 L 35.3006,-11.0 L 35.2728,-11.0 L 35.245,-11.0 L 35.2173,-11.0 L 35.1895,-11.0 L 35.1617,-11.0 L 35.1339,-11.0 L 35.1061,-11.0 L 35.0784,-11.0 L 35.0506,-11.0 L 35.0228,-11.0 L 34.995,-11.0 L 34.9673,-11.0 L 34.9395,-11.0 L 34.9117,-11.0 L 34.8839,-11.0 L 34.8562,-11.0 L 34.8284,-11.0 L 34.8006,-11.0 L 34.7728,-11.0 L 34.745,-11.0 L 34.7173,-11.0 L 34.6895,-11.0 L 34.6617,-11.0 L 34.6339,-11.0 L 34.6062,-11.0 L 34.5784,-11.0 L 34.5506,-11.0 L 34.5228,-11.0 L 34.4951,-11.0 L 34.4673,-11.0 L 34.4395,-11.0 L 34.4117,-11.0 L 34.3839,-11.0 L 34.3562,-11.0 L 34.3284,-11.0 L 34.3006,-11.0 L 34.2728,-11.0 L 34.2451,-11.0 L 34.2173,-11.0 L 34.1895,-11.0 L 34.1617,-11.0 L 34.1339,-11.0" />
    </g>
    <g fill="none" stroke="rgb(110,110,110)" stroke-width="0.3" id="Hidden" stroke-dasharray="3.6 0.9">
      <path d="M 0.0,20.0 L -1.7431,19.9239 L -3.473,19.6962 L -5.1764,19.3185 L -6.8404,18.7939 L -8.4524,18.1262 L -10.0,17.3205 L -11.4715,16.383 L -12.8558,15.3209 L -14.1421,14.1421 L -15.3209,12.8558 L -16.383,11.4715 L -17.3205,10.0 L -18.1262,8.4524 L -18.7939,6.8404 L -19.3185,5.1764 L -19.6962,3.473 L -19.9239,1.7431 L -20.0,-0.0 L -19.9239,-1.7431 L -19.6962,-3.473 L -19.3185,-5.1764 L -18.7939,-6.8404 L -18.1262,-8.4524 L -17.3205,-10.0 L -16.383,-11.4715 L -15.3209,-12.8558 L -14.1421,-14.1421 L -12.8558,-15.3209 L -11.4715,-16.383 L -10.0,-17.3205 L -8.4524,-18.1262 L -6.8404,-18.7939 L -5.1764,-19.3185 L -3.473,-19.6962 L -1.7431,-19.9239 L 0.0,-20.0 L 1.7431,-19.9239 L 3.473,-19.6962 L 5.1764,-19.3185 L 6.8404,-18.7939 L 8.4524,-18.1262 L 10.0,-17.3205 L 11.4715,-16.383 L 12.8558,-15.3209 L 14.1421,-14.1421 L 15.3209,-12.8558 L 16.383,-11.4715 L 17.3205,-10.0 L 18.1262,-8.4524 L 18.7939,-6.8404 L 19.3185,-5.1764 L 19.6962,-3.473 L 19.9239,-1.7431 L 20.0,0.0 L 19.9239,1.7431 L 19.6962,3.473 L 19.3185,5.1764 L 18.7939,6.8404 L 18.1262,8.4524 L 17.3205,10.0 L 16.383,11.4715 L 15.3209,12.8558 L 14.1421,14.1421 L 12.8558,15.3209 L 11.4715,16.383 L 10.0,17.3205 L 8.4524,18.1262 L 6.8404,18.7939 L 5.1764,19.3185 L 3.473,19.6962 L 1.7431,19.9239 L -0.0,20.0" />
      <path d="M 0.0,11.0 L -0.9587,10.9581 L -1.9101,10.8329 L -2.847,10.6252 L -3.7622,10.3366 L -4.6488,9.9694 L -5.5,9.5263 L -6.3093,9.0107 L -7.0707,8.4265 L -7.7782,7.7782 L -8.4265,7.0707 L -9.0107,6.3093 L -9.5263,5.5 L -9.9694,4.6488 L -10.3366,3.7622 L -10.6252,2.847 L -10.8329,1.9101 L -10.9581,0.9587 L -11.0,-0.0 L -10.9581,-0.9587 L -10.8329,-1.9101 L -10.6252,-2.847 L -10.3366,-3.7622 L -9.9694,-4.6488 L -9.5263,-5.5 L -9.0107,-6.3093 L -8.4265,-7.0707 L -7.7782,-7.7782 L -7.0707,-8.4265 L -6.3093,-9.0107 L -5.5,-9.5263 L -4.6488,-9.9694 L -3.7622,-10.3366 L -2.847,-10.6252 L -1.9101,-10.8329 L -0.9587,-10.9581 L 0.0,-11.0 L 0.9587,-10.9581 L 1.9101,-10.8329 L 2.847,-10.6252 L 3.7622,-10.3366 L 4.6488,-9.9694 L 5.5,-9.5263 L 6.3093,-9.0107 L 7.0707,-8.4265 L 7.7782,-7.7782 L 8.4265,-7.0707 L 9.0107,-6.3093 L 9.5263,-5.5 L 9.9694,-4.6488 L 10.3366,-3.7622 L 10.6252,-2.847 L 10.8329,-1.9101 L 10.9581,-0.9587 L 11.0,0.0 L 10.9581,0.9587 L 10.8329,1.9101 L 10.6252,2.847 L 10.3366,3.7622 L 9.9694,4.6488 L 9.5263,5.5 L 9.0107,6.3093 L 8.4265,7.0707 L 7.7782,7.7782 L 7.0707,8.4265 L 6.3093,9.0107 L 5.5,9.5263 L 4.6488,9.9694 L 3.7622,10.3366 L 2.847,10.6252 L 1.9101,10.8329 L 0.9587,10.9581 L -0.0,11.0" />
      <path d="M 0.0,5.05 L -0.4401,5.0308 L -0.8769,4.9733 L -1.307,4.8779 L -1.7272,4.7454 L -2.1342,4.5769 L -2.525,4.3734 L -2.8966,4.1367 L -3.2461,3.8685 L -3.5709,3.5709 L -3.8685,3.2461 L -4.1367,2.8966 L -4.3734,2.525 L -4.5769,2.1342 L -4.7454,1.7272 L -4.8779,1.307 L -4.9733,0.8769 L -5.0308,0.4401 L -5.05,-0.0 L -5.0308,-0.4401 L -4.9733,-0.8769 L -4.8779,-1.307 L -4.7454,-1.7272 L -4.5769,-2.1342 L -4.3734,-2.525 L -4.1367,-2.8966 L -3.8685,-3.2461 L -3.5709,-3.5709 L -3.2461,-3.8685 L -2.8966,-4.1367 L -2.525,-4.3734 L -2.1342,-4.5769 L -1.7272,-4.7454 L -1.307,-4.8779 L -0.8769,-4.9733 L -0.4401,-5.0308 L 0.0,-5.05 L 0.4401,-5.0308 L 0.8769,-4.9733 L 1.307,-4.8779 L 1.7272,-4.7454 L 2.1342,-4.5769 L 2.525,-4.3734 L 2.8966,-4.1367 L 3.2461,-3.8685 L 3.5709,-3.5709 L 3.8685,-3.2461 L 4.1367,-2.8966 L 4.3734,-2.525 L 4.5769,-2.1342 L 4.7454,-1.7272 L 4.8779,-1.307 L 4.9733,-0.8769 L 5.0308,-0.4401 L 5.05,0.0 L 5.0308,0.4401 L 4.9733,0.8769 L 4.8779,1.307 L 4.7454,1.7272 L 4.5769,2.1342 L 4.3734,2.525 L 4.1367,2.8966 L 3.8685,3.2461 L 3.5709,3.5709 L 3.2461,3.8685 L 2.8966,4.1367 L 2.525,4.3734 L 2.1342,4.5769 L 1.7272,4.7454 L 1.307,4.8779 L 0.8769,4.9733 L 0.4401,5.0308 L -0.0,5.05" />
      <path d="M 0.0,11.0 L -0.9587,10.9581 L -1.9101,10.8329 L -2.847,10.6252 L -3.7622,10.3366 L -4.6488,9.9694 L -5.5,9.5263 L -6.3093,9.0107 L -7.0707,8.4265 L -7.7782,7.7782 L -8.4265,7.0707 L -9.0107,6.3093 L -9.5263,5.5 L -9.9694,4.6488 L -10.3366,3.7622 L -10.6252,2.847 L -10.8329,1.9101 L -10.9581,0.9587 L -11.0,-0.0 L -10.9581,-0.9587 L -10.8329,-1.9101 L -10.6252,-2.847 L -10.3366,-3.7622 L -9.9694,-4.6488 L -9.5263,-5.5 L -9.0107,-6.3093 L -8.4265,-7.0707 L -7.7782,-7.7782 L -7.0707,-8.4265 L -6.3093,-9.0107 L -5.5,-9.5263 L -4.6488,-9.9694 L -3.7622,-10.3366 L -2.847,-10.6252 L -1.9101,-10.8329 L -0.9587,-10.9581 L 0.0,-11.0 L 0.9587,-10.9581 L 1.9101,-10.8329 L 2.847,-10.6252 L 3.7622,-10.3366 L 4.6488,-9.9694 L 5.5,-9.5263 L 6.3093,-9.0107 L 7.0707,-8.4265 L 7.7782,-7.7782 L 8.4265,-7.0707 L 9.0107,-6.3093 L 9.5263,-5.5 L 9.9694,-4.6488 L 10.3366,-3.7622 L 10.6252,-2.847 L 10.8329,-1.9101 L 10.9581,-0.9587 L 11.0,0.0 L 10.9581,0.9587 L 10.8329,1.9101 L 10.6252,2.847 L 10.3366,3.7622 L 9.9694,4.6488 L 9.5263,5.5 L 9.0107,6.3093 L 8.4265,7.0707 L 7.7782,7.7782 L 7.0707,8.4265 L 6.3093,9.0107 L 5.5,9.5263 L 4.6488,9.9694 L 3.7622,10.3366 L 2.847,10.6252 L 1.9101,10.8329 L 0.9587,10.9581 L -0.0,11.0" />
      <path d="M 24.1342,20.0 L 24.1655,19.4465 L 24.1782,18.891 L 24.1878,18.3355 L 24.1956,17.7799 L 24.2024,17.2243 L 24.2083,16.6687 L 24.2137,16.1131 L 24.2185,15.5575 L 24.2229,15.0019 L 24.227,14.4463 L 24.2307,13.8907 L 24.2342,13.3351 L 24.2374,12.7795 L 24.2404,12.2239 L 24.2431,11.6683 L 24.2457,11.1126 L 24.2481,10.557 L 24.2504,10.0014 L 24.2524,9.4458 L 24.2544,8.8902 L 24.2561,8.3346 L 24.2578,7.7789 L 24.2593,7.2233 L 24.2607,6.6677 L 24.2619,6.1121 L 24.2631,5.5565 L 24.2641,5.0008 L 24.265,4.4452 L 24.2658,3.8896 L 24.2665,3.334 L 24.267,2.7784 L 24.2675,2.2228 L 24.2679,1.6671 L 24.2681,1.1115 L 24.2683,0.5559 L 24.2683,0.0003 L 24.2683,-0.5553 L 24.2681,-1.1109 L 24.2679,-1.6666 L 24.2675,-2.2222 L 24.267,-2.7778 L 24.2665,-3.3334 L 24.2658,-3.889 L 24.265,-4.4446 L 24.2641,-5.0003 L 24.2631,-5.5559 L 24.2619,-6.1115 L 24.2607,-6.6671 L 24.2593,-7.2227 L 24.2578,-7.7783 L 24.2561,-8.334 L 24.2544,-8.8896 L 24.2524,-9.4452 L 24.2504,-10.0008 L 24.2481,-10.5564 L 24.2457,-11.112 L 24.2431,-11.6676 L 24.2404,-12.2232 L 24.2374,-12.7788 L 24.2342,-13.3345 L 24.2307,-13.8901 L 24.227,-14.4457 L 24.2229,-15.0013 L 24.2185,-15.5569 L 24.2137,-16.1125 L 24.2083,-16.6681 L 24.2024,-17.2236 L 24.1956,-17.7792 L 24.1878,-18.3348 L 24.1782,-18.8903 L 24.1655,-19.4458 L 24.1342,-20.0" />
      <path d="M 34.246,11.0 L 34.2473,10.6944 L 34.2486,10.3889 L 34.2498,10.0833 L 34.251,9.7778 L 34.2521,9.4722 L 34.2532,9.1667 L 34.2542,8.8611 L 34.2552,8.5556 L 34.2562,8.25 L 34.2571,7.9445 L 34.258,7.6389 L 34.2588,7.3333 L 34.2596,7.0278 L 34.2603,6.7222 L 34.261,6.4167 L 34.2617,6.1111 L 34.2623,5.8056 L 34.2629,5.5 L 34.2635,5.1945 L 34.2641,4.8889 L 34.2646,4.5833 L 34.265,4.2778 L 34.2654,3.9722 L 34.2658,3.6667 L 34.2662,3.3611 L 34.2665,3.0556 L 34.2668,2.75 L 34.2671,2.4445 L 34.2674,2.1389 L 34.2676,1.8333 L 34.2677,1.5278 L 34.2679,1.2222 L 34.268,0.9167 L 34.2681,0.6111 L 34.2681,0.3056 L 34.2681,0.0 L 34.2681,-0.3056 L 34.2681,-0.6111 L 34.268,-0.9167 L 34.2679,-1.2222 L 34.2677,-1.5278 L 34.2676,-1.8333 L 34.2674,-2.1389 L 34.2671,-2.4445 L 34.2668,-2.75 L 34.2665,-3.0556 L 34.2662,-3.3611 L 34.2658,-3.6667 L 34.2654,-3.9722 L 34.265,-4.2778 L 34.2646,-4.5833 L 34.2641,-4.8889 L 34.2635,-5.1945 L 34.2629,-5.5 L 34.2623,-5.8056 L 34.2617,-6.1111 L 34.261,-6.4167 L 34.2603,-6.7222 L 34.2596,-7.0278 L 34.2588,-7.3333 L 34.258,-7.6389 L 34.2571,-7.9445 L 34.2562,-8.25 L 34.2552,-8.5556 L 34.2542,-8.8611 L 34.2532,-9.1667 L 34.2521,-9.4722 L 34.251,-9.7778 L 34.2498,-10.0833 L 34.2486,-10.3889 L 34.2473,-10.6944 L 34.246,-11.0" />
      <path d="M 24.1342,5.05 L 24.1421,4.9102 L 24.1453,4.77 L 24.1477,4.6297 L 24.1497,4.4894 L 24.1514,4.3491 L 24.1529,4.2089 L 24.1542,4.0686 L 24.1555,3.9283 L 24.1566,3.788 L 24.1576,3.6477 L 24.1585,3.5074 L 24.1594,3.3671 L 24.1602,3.2268 L 24.161,3.0865 L 24.1617,2.9462 L 24.1623,2.8059 L 24.1629,2.6656 L 24.1635,2.5254 L 24.164,2.3851 L 24.1645,2.2448 L 24.165,2.1045 L 24.1654,1.9642 L 24.1658,1.8239 L 24.1661,1.6836 L 24.1664,1.5433 L 24.1667,1.403 L 24.167,1.2627 L 24.1672,1.1224 L 24.1674,0.9821 L 24.1676,0.8418 L 24.1677,0.7015 L 24.1678,0.5612 L 24.1679,0.421 L 24.168,0.2807 L 24.168,0.1404 L 24.1681,0.0001 L 24.168,-0.1402 L 24.168,-0.2805 L 24.1679,-0.4208 L 24.1678,-0.5611 L 24.1677,-0.7014 L 24.1676,-0.8417 L 24.1674,-0.982 L 24.1672,-1.1223 L 24.167,-1.2626 L 24.1667,-1.4029 L 24.1664,-1.5432 L 24.1661,-1.6834 L 24.1658,-1.8237 L 24.1654,-1.964 L 24.165,-2.1043 L 24.1645,-2.2446 L 24.164,-2.3849 L 24.1635,-2.5252 L 24.1629,-2.6655 L 24.1623,-2.8058 L 24.1617,-2.9461 L 24.161,-3.0864 L 24.1602,-3.2267 L 24.1594,-3.3669 L 24.1585,-3.5072 L 24.1576,-3.6475 L 24.1566,-3.7878 L 24.1555,-3.9281 L 24.1542,-4.0684 L 24.1529,-4.2087 L 24.1514,-4.349 L 24.1497,-4.4893 L 24.1477,-4.6295 L 24.1453,-4.7698 L 24.1421,-4.9101 L 24.1342,-5.05" />
      <path d="M 24.1342,-5.05 L 24.1263,-4.9102 L 24.123,-4.77 L 24.1206,-4.6297 L 24.1187,-4.4894 L 24.117,-4.3491 L 24.1155,-4.2089 L 24.1141,-4.0686 L 24.1129,-3.9283 L 24.1118,-3.788 L 24.1107,-3.6477 L 24.1098,-3.5074 L 24.1089,-3.3671 L 24.1081,-3.2268 L 24.1074,-3.0865 L 24.1067,-2.9462 L 24.106,-2.8059 L 24.1054,-2.6656 L 24.1048,-2.5254 L 24.1043,-2.3851 L 24.1038,-2.2448 L 24.1034,-2.1045 L 24.103,-1.9642 L 24.1026,-1.8239 L 24.1022,-1.6836 L 24.1019,-1.5433 L 24.1016,-1.403 L 24.1014,-1.2627 L 24.1011,-1.1224 L 24.1009,-0.9821 L 24.1008,-0.8418 L 24.1006,-0.7015 L 24.1005,-0.5612 L 24.1004,-0.421 L 24.1003,-0.2807 L 24.1003,-0.1404 L 24.1003,-0.0001 L 24.1003,0.1402 L 24.1003,0.2805 L 24.1004,0.4208 L 24.1005,0.5611 L 24.1006,0.7014 L 24.1008,0.8417 L 24.1009,0.982 L 24.1011,1.1223 L 24.1014,1.2626 L 24.1016,1.4029 L 24.1019,1.5432 L 24.1022,1.6834 L 24.1026,1.8237 L 24.103,1.964 L 24.1034,2.1043 L 24.1038,2.2446 L 24.1043,2.3849 L 24.1048,2.5252 L 24.1054,2.6655 L 24.106,2.8058 L 24.1067,2.9461 L 24.1074,3.0864 L 24.1081,3.2267 L 24.1089,3.3669 L 24.1098,3.5072 L 24.1107,3.6475 L 24.1118,3.7878 L 24.1129,3.9281 L 24.1141,4.0684 L 24.1155,4.2087 L 24.117,4.349 L 24.1187,4.4893 L 24.1206,4.6295 L 24.123,4.7698 L 24.1263,4.9101 L 24.1342,5.05" />
      <path d="M 34.1339,11.0 L 34.1512,10.6956 L 34.1582,10.3901 L 34.1634,10.0845 L 34.1677,9.779 L 34.1715,9.4734 L 34.1747,9.1678 L 34.1777,8.8622 L 34.1803,8.5566 L 34.1828,8.2511 L 34.185,7.9455 L 34.187,7.6399 L 34.1889,7.3343 L 34.1907,7.0287 L 34.1924,6.7231 L 34.1939,6.4175 L 34.1953,6.112 L 34.1966,5.8064 L 34.1979,5.5008 L 34.199,5.1952 L 34.2001,4.8896 L 34.201,4.584 L 34.2019,4.2784 L 34.2028,3.9728 L 34.2035,3.6672 L 34.2042,3.3616 L 34.2048,3.0561 L 34.2054,2.7505 L 34.2059,2.4449 L 34.2063,2.1393 L 34.2067,1.8337 L 34.207,1.5281 L 34.2073,1.2225 L 34.2075,0.9169 L 34.2076,0.6113 L 34.2077,0.3057 L 34.2077,0.0002 L 34.2077,-0.3054 L 34.2076,-0.611 L 34.2075,-0.9166 L 34.2073,-1.2222 L 34.207,-1.5278 L 34.2067,-1.8334 L 34.2063,-2.139 L 34.2059,-2.4446 L 34.2054,-2.7501 L 34.2048,-3.0557 L 34.2042,-3.3613 L 34.2035,-3.6669 L 34.2028,-3.9725 L 34.2019,-4.2781 L 34.201,-4.5837 L 34.2001,-4.8893 L 34.199,-5.1948 L 34.1979,-5.5004 L 34.1966,-5.806 L 34.1953,-6.1116 L 34.1939,-6.4172 L 34.1924,-6.7228 L 34.1907,-7.0284 L 34.1889,-7.3339 L 34.187,-7.6395 L 34.185,-7.9451 L 34.1828,-8.2507 L 34.1803,-8.5563 L 34.1777,-8.8619 L 34.1747,-9.1674 L 34.1715,-9.473 L 34.1677,-9.7786 L 34.1634,-10.0841 L 34.1582,-10.3897 L 34.1512,-10.6952 L 34.1339,-11.0" />
      <path d="M 36.1339,5.05 L 35.9672,5.05 L 35.8006,5.05 L 35.6339,5.05 L 35.4673,5.05 L 35.3006,5.05 L 35.1339,5.05 L 34.9673,5.05 L 34.8006,5.05 L 34.6339,5.05 L 34.4673,5.05 L 34.3006,5.05 L 34.1339,5.05 L 33.9673,5.05 L 33.8006,5.05 L 33.634,5.05 L 33.4673,5.05 L 33.3006,5.05 L 33.134,5.05 L 32.9673,5.05 L 32.8006,5.05 L 32.634,5.05 L 32.4673,5.05 L 32.3007,5.05 L 32.134,5.05 L 31.9673,5.05 L 31.8007,5.05 L 31.634,5.05 L 31.4673,5.05 L 31.3007,5.05 L 31.134,5.05 L 30.9674,5.05 L 30.8007,5.05 L 30.634,5.05 L 30.4674,5.05 L 30.3007,5.05 L 30.134,5.05 L 29.9674,5.05 L 29.8007,5.05 L 29.6341,5.05 L 29.4674,5.05 L 29.3007,5.05 L 29.1341,5.05 L 28.9674,5.05 L 28.8007,5.05 L 28.6341,5.05 L 28.4674,5.05 L 28.3007,5.05 L 28.1341,5.05 L 27.9674,5.05 L 27.8008,5.05 L 27.6341,5.05 L 27.4674,5.05 L 27.3008,5.05 L 27.1341,5.05 L 26.9674,5.05 L 26.8008,5.05 L 26.6341,5.05 L 26.4675,5.05 L 26.3008,5.05 L 26.1341,5.05 L 25.9675,5.05 L 25.8008,5.05 L 25.6341,5.05 L 25.4675,5.05 L 25.3008,5.05 L 25.1342,5.05 L 24.9675,5.05 L 24.8008,5.05 L 24.6342,5.05 L 24.4675,5.05 L 24.3008,5.05 L 24.1342,5.05" />
      <path d="M 36.1339,-5.05 L 35.9672,-5.05 L 35.8006,-5.05 L 35.6339,-5.05 L 35.4673,-5.05 L 35.3006,-5.05 L 35.1339,-5.05 L 34.9673,-5.05 L 34.8006,-5.05 L 34.6339,-5.05 L 34.4673,-5.05 L 34.3006,-5.05 L 34.1339,-5.05 L 33.9673,-5.05 L 33.8006,-5.05 L 33.634,-5.05 L 33.4673,-5.05 L 33.3006,-5.05 L 33.134,-5.05 L 32.9673,-5.05 L 32.8006,-5.05 L 32.634,-5.05 L 32.4673,-5.05 L 32.3007,-5.05 L 32.134,-5.05 L 31.9673,-5.05 L 31.8007,-5.05 L 31.634,-5.05 L 31.4673,-5.05 L 31.3007,-5.05 L 31.134,-5.05 L 30.9674,-5.05 L 30.8007,-5.05 L 30.634,-5.05 L 30.4674,-5.05 L 30.3007,-5.05 L 30.134,-5.05 L 29.9674,-5.05 L 29.8007,-5.05 L 29.6341,-5.05 L 29.4674,-5.05 L 29.3007,-5.05 L 29.1341,-5.05 L 28.9674,-5.05 L 28.8007,-5.05 L 28.6341,-5.05 L 28.4674,-5.05 L 28.3007,-5.05 L 28.1341,-5.05 L 27.9674,-5.05 L 27.8008,-5.05 L 27.6341,-5.05 L 27.4674,-5.05 L 27.3008,-5.05 L 27.1341,-5.05 L 26.9674,-5.05 L 26.8008,-5.05 L 26.6341,-5.05 L 26.4675,-5.05 L 26.3008,-5.05 L 26.1341,-5.05 L 25.9675,-5.05 L 25.8008,-5.05 L 25.6341,-5.05 L 25.4675,-5.05 L 25.3008,-5.05 L 25.1342,-5.05 L 24.9675,-5.05 L 24.8008,-5.05 L 24.6342,-5.05 L 24.4675,-5.05 L 24.3008,-5.05 L 24.1342,-5.05" />
    </g>
    <g fill="none" stroke="rgb(0,0,0)" stroke-width="0.2" id="Center" stroke-dasharray="6.35 1.27 1.27 1.27">
      <line x1="0.0" y1="0.0" x2="-23.2" y2="0.0" />
      <line x1="0.0" y1="0.0" x2="23.2" y2="0.0" />
      <line x1="0.0" y1="0.0" x2="0.0" y2="-23.2" />
      <line x1="0.0" y1="0.0" x2="0.0" y2="23.2" />
      <line x1="30.1038" y1="0.0" x2="20.8" y2="0.0" />
      <line x1="30.1038" y1="0.0" x2="39.4077" y2="0.0" />
    </g>
  </g>
</svg>