<?xml version='1.0' encoding='utf-8'?>
<svg width="44.0037mm" height="35.0011mm" viewBox="-17.7079 -17.2935 44.0037 35.0011" version="1.1" xmlns="http://www.w3.org/2000/svg">
  <g transform="scale(1,-1)" stroke-linecap="round">
    <g fill="none" stroke="rgb(0,0,0)" stroke-width="0.4" id="Visible">
      <path d="M -0.5079,15.0 L -1.1622,14.9857 L -1.8153,14.9429 L -2.4658,14.8717 L -3.1127,14.7721 L -3.7545,14.6444 L -4.3902,14.4889 L -5.0185,14.3058 L -5.6382,14.0954 L -6.2482,13.8582 L -6.8472,13.5946 L -7.4342,13.3052 L -8.0079,12.9904 L -8.5674,12.6509 L -9.1116,12.2873 L -9.6394,11.9003 L -10.1498,11.4907 L -10.6418,11.0592 L -11.1145,10.6066 L -11.5671,10.1339 L -11.9986,9.6418 L -12.4082,9.1314 L -12.7952,8.6036 L -13.1588,8.0595 L -13.4983,7.5 L -13.8131,6.9262 L -14.1026,6.3393 L -14.3661,5.7403 L -14.6033,5.1303 L -14.8137,4.5106 L -14.9968,3.8823 L -15.1524,3.2466 L -15.2801,2.6047 L -15.3796,1.9579 L -15.4509,1.3073 L -15.4937,0.6543 L -15.5079,0.0 L -15.4937,-0.6543 L -15.4509,-1.3073 L -15.3796,-1.9579 L -15.2801,-2.6047 L -15.1524,-3.2466 L -14.9968,-3.8823 L -14.8137,-4.5106 L -14.6033,-5.1303 L -14.3661,-5.7403 L -14.1026,-6.3393 L -13.8131,-6.9262 L -13.4983,-7.5 L -13.1588,-8.0595 L -12.7952,-8.6036 L -12.4082,-9.1314 L -11.9986,-9.6418 L -11.5671,-10.1339 L -11.1145,-10.6066 L -10.6418,-11.0592 L -10.1498,-11.4907 L -9.6394,-11.9003 L -9.1116,-12.2873 L -8.5674,-12.6509 L -8.0079,-12.9904 L -7.4342,-13.3052 L -6.8472,-13.5946 L -6.2482,-13.8582 L -5.6382,-14.0954 L -5.0185,-14.3058 L -4.3902,-14.4889 L -3.7545,-14.6444 L -3.1127,-14.7721 L -2.4658,-14.8717 L -1.8153,-14.9429 L -1.1622,-14.9857 L -0.5079,-15.0" />
      <path d="M 5.9921,0.0 L 5.9905,0.1418 L 5.9859,0.2835 L 5.9781,0.4251 L 5.9673,0.5665 L 5.9534,0.7076 L 5.9365,0.8484 L 5.9164,0.9887 L 5.8933,1.1286 L 5.8672,1.268 L 5.838,1.4068 L 5.8058,1.5449 L 5.7706,1.6822 L 5.7324,1.8188 L 5.6913,1.9545 L 5.6471,2.0892 L 5.6001,2.223 L 5.5502,2.3557 L 5.4973,2.4873 L 5.4416,2.6177 L 5.3831,2.7469 L 5.3218,2.8747 L 5.2577,3.0012 L 5.1909,3.1263 L 5.1213,3.2498 L 5.0491,3.3718 L 4.9742,3.4923 L 4.8967,3.611 L 4.8167,3.7281 L 4.7341,3.8433 L 4.649,3.9567 L 4.5615,4.0683 L 4.4715,4.1779 L 4.3792,4.2855 L 4.2846,4.3911 L 4.1876,4.4946 L 4.0885,4.596 L 3.9871,4.6951 L 3.8836,4.7921 L 3.7781,4.8867 L 3.6704,4.9791 L 3.5608,5.069 L 3.4493,5.1566 L 3.3359,5.2417 L 3.2206,5.3243 L 3.1036,5.4043 L 2.9848,5.4818 L 2.8644,5.5567 L 2.7424,5.629 L 2.6188,5.6985 L 2.4938,5.7654 L 2.3673,5.8295 L 2.2395,5.8908 L 2.1103,5.9493 L 1.9799,6.005 L 1.8483,6.0579 L 1.7156,6.1078 L 1.5819,6.1549 L 1.4471,6.199 L 1.3114,6.2402 L 1.1749,6.2784 L 1.0375,6.3136 L 0.8994,6.3458 L 0.7607,6.375 L 0.6213,6.4012 L 0.4814,6.4243 L 0.341,6.4443 L 0.2003,6.4613 L 0.0591,6.4752 L -0.0822,6.486 L -0.2238,6.4938 L -0.3655,6.4984 L -0.5073,6.5" />
      <path d="M -0.5073,-6.5 L -0.3655,-6.4984 L -0.2238,-6.4938 L -0.0822,-6.486 L 0.0591,-6.4752 L 0.2003,-6.4613 L 0.341,-6.4443 L 0.4814,-6.4243 L 0.6213,-6.4012 L 0.7607,-6.375 L 0.8994,-6.3458 L 1.0375,-6.3136 L 1.1749,-6.2784 L 1.3114,-6.2402 L 1.4471,-6.199 L 1.5819,-6.1549 L 1.7156,-6.1078 L 1.8483,-6.0579 L 1.9799,-6.005 L 2.1103,-5.9493 L 2.2395,-5.8908 L 2.3673,-5.8295 L 2.4938,-5.7654 L 2.6188,-5.6985 L 2.7424,-5.629 L 2.8644,-5.5567 L 2.9848,-5.4818 L 3.1036,-5.4043 L 3.2206,-5.3243 L 3.3359,-5.2417 L 3.4493,-5.1566 L 3.5608,-5.069 L 3.6704,-4.9791 L 3.7781,-4.8867 L 3.8836,-4.7921 L 3.9871,-4.6951 L 4.0885,-4.596 L 4.1876,-4.4946 L 4.2846,-4.3911 L 4.3792,-4.2855 L 4.4715,-4.1779 L 4.5615,-4.0683 L 4.649,-3.9567 L 4.7341,-3.8433 L 4.8167,-3.7281 L 4.8967,-3.611 L 4.9742,-3.4923 L 5.0491,-3.3718 L 5.1213,-3.2498 L 5.1909,-3.1263 L 5.2577,-3.0012 L 5.3218,-2.8747 L 5.3831,-2.7469 L 5.4416,-2.6177 L 5.4973,-2.4873 L 5.5502,-2.3557 L 5.6001,-2.223 L 5.6471,-2.0892 L 5.6913,-1.9545 L 5.7324,-1.8188 L 5.7706,-1.6822 L 5.8058,-1.5449 L 5.838,-1.4068 L 5.8672,-1.268 L 5.8933,-1.1286 L 5.9164,-0.9887 L 5.9365,-0.8484 L 5.9534,-0.7076 L 5.9673,-0.5665 L 5.9781,-0.4251 L 5.9859,-0.2835 L 5.9905,-0.1418 L 5.9921,-0.0" />
      <path d="M 13.8946,2.25 L 13.9113,2.25 L 13.9279,2.25 L 13.9446,2.25 L 13.9613,2.25 L 13.9779,2.25 L 13.9946,2.25 L 14.0113,2.25 L 14.0279,2.25 L 14.0446,2.25 L 14.0613,2.25 L 14.0779,2.25 L 14.0946,2.25 L 14.1113,2.25 L 14.1279,2.25 L 14.1446,2.25 L 14.1613,2.25 L 14.1779,2.25 L 14.1946,2.25 L 14.2113,2.25 L 14.2279,2.25 L 14.2446,2.25 L 14.2613,2.25 L 14.2779,2.25 L 14.2946,2.25 L 14.3113,2.25 L 14.3279,2.25 L 14.3446,2.25 L 14.3613,2.25 L 14.3779,2.25 L 14.3946,2.25 L 14.4113,2.25 L 14.4279,2.25 L 14.4446,2.25 L 14.4613,2.25 L 14.4779,2.25 L 14.4946,2.25 L 14.5113,2.25 L 14.5279,2.25 L 14.5446,2.25 L 14.5613,2.25 L 14.5779,2.25 L 14.5946,2.25 L 14.6113,2.25 L 14.6279,2.25 L 14.6446,2.25 L 14.6613,2.25 L 14.6779,2.25 L 14.6946,2.25 L 14.7113,2.25 L 14.7279,2.25 L 14.7446,2.25 L 14.7613,2.25 L 14.7779,2.25 L 14.7946,2.25 L 14.8113,2.25 L 14.8279,2.25 L 14.8446,2.25 L 14.8613,2.25 L 14.8779,2.25 L 14.8946,2.25 L 14.9113,2.25 L 14.9279,2.25 L 14.9446,2.25 L 14.9613,2.25 L 14.9779,2.25 L 14.9946,2.25 L 15.0113,2.25 L 15.0279,2.25 L 15.0446,2.25 L 15.0613,2.25 L 15.0779,2.25 L 15.0946,2.25" />
      <path d="M 13.8927,2.25 L 13.8928,2.25 L 13.8929,2.25 L 13.893,2.25 L 13.8931,2.25 L 13.8932,2.25 L 13.8933,2.25 L 13.8934,2.25 L 13.8935,2.25 L 13.8936,2.25 L 13.8937,2.25 L 13.8938,2.25 L 13.8939,2.25 L 13.894,2.25 L 13.8941,2.25 L 13.8942,2.25 L 13.8943,2.25 L 13.8944,2.25 L 13.8945,2.25 L 13.8946,2.25" />
      <path d="M 15.0946,-2.25 L 15.0946,-2.1875 L 15.0946,-2.125 L 15.0946,-2.0625 L 15.0946,-2.0 L 15.0946,-1.9375 L 15.0946,-1.875 L 15.0946,-1.8125 L 15.0946,-1.75 L 15.0946,-1.6875 L 15.0946,-1.625 L 15.0946,-1.5625 L 15.0946,-1.5 L 15.0946,-1.4375 L 15.0946,-1.375 L 15.0946,-1.3125 L 15.0946,-1.25 L 15.0946,-1.1875 L 15.0946,-1.125 L 15.0946,-1.0625 L 15.0946,-1.0 L 15.0946,-0.9375 L 15.0946,-0.875 L 15.0946,-0.8125 L 15.0946,-0.75 L 15.0946,-0.6875 L 15.0946,-0.625 L 15.0946,-0.5625 L 15.0946,-0.5 L 15.0946,-0.4375 L 15.0946,-0.375 L 15.0946,-0.3125 L 15.0946,-0.25 L 15.0946,-0.1875 L 15.0946,-0.125 L 15.0946,-0.0625 L 15.0946,0.0 L 15.0946,0.0625 L 15.0946,0.125 L 15.0946,0.1875 L 15.0946,0.25 L 15.0946,0.3125 L 15.0946,0.375 L 15.0946,0.4375 L 15.0946,0.5 L 15.0946,0.5625 L 15.0946,0.625 L 15.0946,0.6875 L 15.0946,0.75 L 15.0946,0.8125 L 15.0946,0.875 L 15.0946,0.9375 L 15.0946,1.0 L 15.0946,1.0625 L 15.0946,1.125 L 15.0946,1.1875 L 15.0946,1.25 L 15.0946,1.3125 L 15.0946,1.375 L 15.0946,1.4375 L 15.0946,1.5 L 15.0946,1.5625 L 15.0946,1.625 L 15.0946,1.6875 L 15.0946,1.75 L 15.0946,1.8125 L 15.0946,1.875 L 15.0946,1.9375 L 15.0946,2.0 L 15.0946,2.0625 L 15.0946,2.125 L 15.0946,2.1875 L 15.0946,2.25" />
      <path d="M 13.8946,-2.25 L 13.9113,-2.25 L 13.9279,-2.25 L 13.9446,-2.25 L 13.9613,-2.25 L 13.9779,-2.25 L 13.9946,-2.25 L 14.0113,-2.25 L 14.0279,-2.25 L 14.0446,-2.25 L 14.0613,-2.25 L 14.0779,-2.25 L 14.0946,-2.25 L 14.1113,-2.25 L 14.1279,-2.25 L 14.1446,-2.25 L 14.1613,-2.25 L 14.1779,-2.25 L 14.1946,-2.25 L 14.2113,-2.25 L 14.2279,-2.25 L 14.2446,-2.25 L 14.2613,-2.25 L 14.2779,-2.25 L 14.2946,-2.25 L 14.3113,-2.25 L 14.3279,-2.25 L 14.3446,-2.25 L 14.3613,-2.25 L 14.3779,-2.25 L 14.3946,-2.25 L 14.4113,-2.25 L 14.4279,-2.25 L 14.4446,-2.25 L 14.4613,-2.25 L 14.4779,-2.25 L 14.4946,-2.25 L 14.5113,-2.25 L 14.5279,-2.25 L 14.5446,-2.25 L 14.5613,-2.25 L 14.5779,-2.25 L 14.5946,-2.25 L 14.6113,-2.25 L 14.6279,-2.25 L 14.6446,-2.25 L 14.6613,-2.25 L 14.6779,-2.25 L 14.6946,-2.25 L 14.7113,-2.25 L 14.7279,-2.25 L 14.7446,-2.25 L 14.7613,-2.25 L 14.7779,-2.25 L 14.7946,-2.25 L 14.8113,-2.25 L 14.8279,-2.25 L 14.8446,-2.25 L 14.8613,-2.25 L 14.8779,-2.25 L 14.8946,-2.25 L 14.9113,-2.25 L 14.9279,-2.25 L 14.9446,-2.25 L 14.9613,-2.25 L 14.9779,-2.25 L 14.9946,-2.25 L 15.0113,-2.25 L 15.0279,-2.25 L 15.0446,-2.25 L 15.0613,-2.25 L 15.0779,-2.25 L 15.0946,-2.25" />
      <path d="M 13.8927,-2.25 L 13.8928,-2.25 L 13.8929,-2.25 L 13.893,-2.25 L 13.8931,-2.25 L 13.8932,-2.25 L 13.8933,-2.25 L 13.8934,-2.25 L 13.8935,-2.25 L 13.8936,-2.25 L 13.8937,-2.25 L 13.8938,-2.25 L 13.8939,-2.25 L 13.894,-2.25 L 13.8941,-2.25 L 13.8942,-2.25 L 13.8943,-2.25 L 13.8944,-2.25 L 13.8945,-2.25 L 13.8946,-2.25" />
      <path d="M 14.323,2.25 L 14.2757,2.5421 L 14.2227,2.8332 L 14.1639,3.1231 L 14.0995,3.4119 L 14.0293,3.6994 L 13.9535,3.9854 L 13.8721,4.2698 L 13.7851,4.5526 L 13.6925,4.8336 L 13.5944,5.1128 L 13.4908,5.3899 L 13.3818,5.665 L 13.2674,5.9378 L 13.1476,6.2084 L 13.0225,6.4765 L 12.8921,6.7421 L 12.7565,7.0051 L 12.6157,7.2653 L 12.4699,7.5227 L 12.319,7.7772 L 12.1631,8.0287 L 12.0023,8.2771 L 11.8366,8.5222 L 11.6661,8.764 L 11.4908,9.0024 L 11.3109,9.2373 L 11.1265,9.4686 L 10.9374,9.6963 L 10.744,9.9201 L 10.5461,10.1401 L 10.3439,10.3561 L 10.1376,10.5682 L 9.927,10.7761 L 9.7125,10.9798 L 9.4939,11.1792 L 9.2715,11.3743 L 9.0452,11.565 L 8.8153,11.7511 L 8.5817,11.9327 L 8.3445,12.1097 L 8.104,12.2819 L 7.86,12.4494 L 7.6128,12.612 L 7.3625,12.7697 L 7.1091,12.9225 L 6.8527,13.0702 L 6.5935,13.2128 L 6.3315,13.3503 L 6.0669,13.4826 L 5.7997,13.6096 L 5.53,13.7314 L 5.258,13.8478 L 4.9837,13.9588 L 4.7073,14.0644 L 4.4289,14.1645 L 4.1486,14.2591 L 3.8664,14.3482 L 3.5825,14.4317 L 3.2971,14.5095 L 3.0102,14.5817 L 2.7219,14.6483 L 2.4323,14.7091 L 2.1416,14.7642 L 1.8499,14.8136 L 1.5573,14.8572 L 1.2638,14.8951 L 0.9697,14.9271 L 0.675,14.9533 L 0.3798,14.9737 L 0.0843,14.9883 L -0.2115,14.9971 L -0.5073,15.0" />
      <path d="M -0.5073,15.0 L -1.1616,14.9857 L -1.8147,14.9429 L -2.4652,14.8717 L -3.1121,14.7721 L -3.7539,14.6444 L -4.3896,14.4889 L -5.0179,14.3058 L -5.6376,14.0954 L -6.2476,13.8582 L -6.8466,13.5946 L -7.4336,13.3052 L -8.0073,12.9904 L -8.5668,12.6509 L -9.111,12.2873 L -9.6388,11.9003 L -10.1491,11.4907 L -10.6412,11.0592 L -11.1139,10.6066 L -11.5665,10.1339 L -11.998,9.6418 L -12.4076,9.1314 L -12.7946,8.6036 L -13.1582,8.0595 L -13.4977,7.5 L -13.8125,6.9262 L -14.1019,6.3393 L -14.3655,5.7403 L -14.6027,5.1303 L -14.8131,4.5106 L -14.9962,3.8823 L -15.1518,3.2466 L -15.2794,2.6047 L -15.379,1.9579 L -15.4503,1.3073 L -15.4931,0.6543 L -15.5073,-0.0 L -15.4931,-0.6543 L -15.4503,-1.3073 L -15.379,-1.9579 L -15.2794,-2.6047 L -15.1518,-3.2466 L -14.9962,-3.8823 L -14.8131,-4.5106 L -14.6027,-5.1303 L -14.3655,-5.7403 L -14.1019,-6.3393 L -13.8125,-6.9262 L -13.4977,-7.5 L -13.1582,-8.0595 L -12.7946,-8.6036 L -12.4076,-9.1314 L -11.998,-9.6418 L -11.5665,-10.1339 L -11.1139,-10.6066 L -10.6412,-11.0592 L -10.1491,-11.4907 L -9.6388,-11.9003 L -9.111,-12.2873 L -8.5668,-12.6509 L -8.0073,-12.9904 L -7.4336,-13.3052 L -6.8466,-13.5946 L -6.2476,-13.8582 L -5.6376,-14.0954 L -5.0179,-14.3058 L -4.3896,-14.4889 L -3.7539,-14.6444 L -3.1121,-14.7721 L -2.4652,-14.8717 L -1.8147,-14.9429 L -1.1616,-14.9857 L -0.5073,-15.0" />
      <path d="M -0.5073,-15.0 L -0.2115,-14.9971 L 0.0843,-14.9883 L 0.3798,-14.9737 L 0.675,-14.9533 L 0.9697,-14.9271 L 1.2638,-14.8951 L 1.5573,-14.8572 L 1.8499,-14.8136 L 2.1416,-14.7642 L 2.4323,-14.7091 L 2.7219,-14.6483 L 3.0102,-14.5817 L 3.2971,-14.5095 L 3.5825,-14.4317 L 3.8664,-14.3482 L 4.1486,-14.2591 L 4.4289,-14.1645 L 4.7073,-14.0644 L 4.9837,-13.9588 L 5.258,-13.8478 L 5.53,-13.7314 L 5.7997,-13.6096 L 6.0669,-13.4826 L 6.3315,-13.3503 L 6.5935,-13.2128 L 6.8527,-13.0702 L 7.1091,-12.9225 L 7.3625,-12.7697 L 7.6128,-12.612 L 7.86,-12.4494 L 8.104,-12.2819 L 8.3445,-12.1097 L 8.5817,-11.9327 L 8.8153,-11.7511 L 9.0452,-11.565 L 9.2715,-11.3743 L 9.4939,-11.1792 L 9.7125,-10.9798 L 9.927,-10.7761 L 10.1376,-10.5682 L 10.3439,-10.3561 L 10.5461,-10.1401 L 10.744,-9.9201 L 10.9374,-9.6963 L 11.1265,-9.4686 L 11.3109,-9.2373 L 11.4908,-9.0024 L 11.6661,-8.764 L 11.8366,-8.5222 L 12.0023,-8.2771 L 12.1631,-8.0287 L 12.319,-7.7772 L 12.4699,-7.5227 L 12.6157,-7.2653 L 12.7565,-7.0051 L 12.8921,-6.7421 L 13.0225,-6.4765 L 13.1476,-6.2084 L 13.2674,-5.9378 L 13.3818,-5.665 L 13.4908,-5.3899 L 13.5944,-5.1128 L 13.6925,-4.8336 L 13.7851,-4.5526 L 13.8721,-4.2698 L 13.9535,-3.9854 L 14.0293,-3.6994 L 14.0995,-3.4119 L 14.1639,-3.1231 L 14.2227,-2.8332 L 14.2757,-2.5421 L 14.323,-2.25" />
      <path d="M 5.9927,0.0 L 5.9911,0.1418 L 5.9865,0.2835 L 5.9787,0.4251 L 5.9679,0.5665 L 5.954,0.7076 L 5.9371,0.8484 L 5.917,0.9888 L 5.8939,1.1287 L 5.8678,1.2681 L 5.8386,1.4069 L 5.8064,1.545 L 5.7712,1.6823 L 5.733,1.8189 L 5.6918,1.9546 L 5.6477,2.0894 L 5.6007,2.2231 L 5.5507,2.3558 L 5.4979,2.4874 L 5.4422,2.6179 L 5.3837,2.747 L 5.3223,2.8749 L 5.2582,3.0014 L 5.1914,3.1264 L 5.1218,3.25 L 5.0496,3.372 L 4.9747,3.4924 L 4.8972,3.6112 L 4.8172,3.7282 L 4.7346,3.8435 L 4.6495,3.9569 L 4.5619,4.0685 L 4.472,4.1781 L 4.3796,4.2857 L 4.285,4.3913 L 4.188,4.4948 L 4.0889,4.5962 L 3.9875,4.6954 L 3.884,4.7923 L 3.7784,4.887 L 3.6708,4.9793 L 3.5612,5.0692 L 3.4496,5.1568 L 3.3362,5.2419 L 3.2209,5.3245 L 3.1039,5.4046 L 2.9851,5.482 L 2.8647,5.5569 L 2.7427,5.6292 L 2.6191,5.6987 L 2.494,5.7656 L 2.3675,5.8297 L 2.2397,5.891 L 2.1105,5.9495 L 1.9801,6.0052 L 1.8485,6.0581 L 1.7158,6.108 L 1.582,6.155 L 1.4473,6.1992 L 1.3116,6.2403 L 1.175,6.2785 L 1.0376,6.3137 L 0.8995,6.3459 L 0.7608,6.3751 L 0.6214,6.4013 L 0.4815,6.4243 L 0.3411,6.4444 L 0.2003,6.4614 L 0.0592,6.4753 L -0.0822,6.4861 L -0.2238,6.4938 L -0.3655,6.4985 L -0.5073,6.5" />
      <path d="M -0.5073,6.5 L -0.7909,6.4938 L -1.0738,6.4753 L -1.3558,6.4444 L -1.636,6.4013 L -1.9142,6.3459 L -2.1897,6.2785 L -2.4619,6.1992 L -2.7305,6.108 L -2.9948,6.0052 L -3.2544,5.891 L -3.5087,5.7656 L -3.7573,5.6292 L -3.9998,5.482 L -4.2356,5.3245 L -4.4643,5.1568 L -4.6855,4.9793 L -4.8987,4.7923 L -5.1035,4.5962 L -5.2996,4.3913 L -5.4866,4.1781 L -5.6641,3.9569 L -5.8318,3.7282 L -5.9894,3.4924 L -6.1365,3.25 L -6.2729,3.0014 L -6.3983,2.747 L -6.5125,2.4874 L -6.6153,2.2231 L -6.7065,1.9546 L -6.7859,1.6823 L -6.8533,1.4069 L -6.9086,1.1287 L -6.9517,0.8484 L -6.9826,0.5665 L -7.0011,0.2835 L -7.0073,0.0 L -7.0011,-0.2835 L -6.9826,-0.5665 L -6.9517,-0.8484 L -6.9086,-1.1287 L -6.8533,-1.4069 L -6.7859,-1.6823 L -6.7065,-1.9546 L -6.6153,-2.2231 L -6.5125,-2.4874 L -6.3983,-2.747 L -6.2729,-3.0014 L -6.1365,-3.25 L -5.9894,-3.4924 L -5.8318,-3.7282 L -5.6641,-3.9569 L -5.4866,-4.1781 L -5.2996,-4.3913 L -5.1035,-4.5962 L -4.8987,-4.7923 L -4.6855,-4.9793 L -4.4643,-5.1568 L -4.2356,-5.3245 L -3.9998,-5.482 L -3.7573,-5.6292 L -3.5087,-5.7656 L -3.2544,-5.891 L -2.9948,-6.0052 L -2.7305,-6.108 L -2.4619,-6.1992 L -2.1897,-6.2785 L -1.9142,-6.3459 L -1.636,-6.4013 L -1.3558,-6.4444 L -1.0738,-6.4753 L -0.7909,-6.4938 L -0.5073,-6.5" />
      <path d="M -0.5073,-6.5 L -0.3655,-6.4985 L -0.2238,-6.4938 L -0.0822,-6.4861 L 0.0592,-6.4753 L 0.2003,-6.4614 L 0.3411,-6.4444 L 0.4815,-6.4243 L 0.6214,-6.4013 L 0.7608,-6.3751 L 0.8995,-6.3459 L 1.0376,-6.3137 L 1.175,-6.2785 L 1.3116,-6.2403 L 1.4473,-6.1992 L 1.582,-6.155 L 1.7158,-6.108 L 1.8485,-6.0581 L 1.9801,-6.0052 L 2.1105,-5.9495 L 2.2397,-5.891 L 2.3675,-5.8297 L 2.494,-5.7656 L 2.6191,-5.6987 L 2.7427,-5.6292 L 2.8647,-5.5569 L 2.9851,-5.482 L 3.1039,-5.4046 L 3.2209,-5.3245 L 3.3362,-5.2419 L 3.4496,-5.1568 L 3.5612,-5.0692 L 3.6708,-4.9793 L 3.7784,-4.887 L 3.884,-4.7923 L 3.9875,-4.6954 L 4.0889,-4.5962 L 4.188,-4.4948 L 4.285,-4.3913 L 4.3796,-4.2857 L 4.472,-4.1781 L 4.5619,-4.0685 L 4.6495,-3.9569 L 4.7346,-3.8435 L 4.8172,-3.7282 L 4.8972,-3.6112 L 4.9747,-3.4924 L 5.0496,-3.372 L 5.1218,-3.25 L 5.1914,-3.1264 L 5.2582,-3.0014 L 5.3223,-2.8749 L 5.3837,-2.747 L 5.4422,-2.6179 L 5.4979,-2.4874 L 5.5507,-2.3558 L 5.6007,-2.2231 L 5.6477,-2.0894 L 5.6918,-1.9546 L 5.733,-1.8189 L 5.7712,-1.6823 L 5.8064,-1.545 L 5.8386,-1.4069 L 5.8678,-1.2681 L 5.8939,-1.1287 L 5.917,-0.9888 L 5.9371,-0.8484 L 5.954,-0.7076 L 5.9679,-0.5665 L 5.9787,-0.4251 L 5.9865,-0.2835 L 5.9911,-0.1418 L 5.9927,-0.0" />
      <path d="M 13.8946,-2.25 L 13.8946,-2.1875 L 13.8946,-2.125 L 13.8946,-2.0625 L 13.8946,-2.0 L 13.8946,-1.9375 L 13.8946,-1.875 L 13.8946,-1.8125 L 13.8946,-1.75 L 13.8946,-1.6875 L 13.8946,-1.625 L 13.8946,-1.5625 L 13.8946,-1.5 L 13.8946,-1.4375 L 13.8946,-1.375 L 13.8946,-1.3125 L 13.8946,-1.25 L 13.8946,-1.1875 L 13.8946,-1.125 L 13.8946,-1.0625 L 13.8946,-1.0 L 13.8946,-0.9375 L 13.8946,-0.875 L 13.8946,-0.8125 L 13.8946,-0.75 L 13.8946,-0.6875 L 13.8946,-0.625 L 13.8946,-0.5625 L 13.8946,-0.5 L 13.8946,-0.4375 L 13.8946,-0.375 L 13.8946,-0.3125 L 13.8946,-0.25 L 13.8946,-0.1875 L 13.8946,-0.125 L 13.8946,-0.0625 L 13.8946,0.0 L 13.8946,0.0625 L 13.8946,0.125 L 13.8946,0.1875 L 13.8946,0.25 L 13.8946,0.3125 L 13.8946,0.375 L 13.8946,0.4375 L 13.8946,0.5 L 13.8946,0.5625 L 13.8946,0.625 L 13.8946,0.6875 L 13.8946,0.75 L 13.8946,0.8125 L 13.8946,0.875 L 13.8946,0.9375 L 13.8946,1.0 L 13.8946,1.0625 L 13.8946,1.125 L 13.8946,1.1875 L 13.8946,1.25 L 13.8946,1.3125 L 13.8946,1.375 L 13.8946,1.4375 L 13.8946,1.5 L 13.8946,1.5625 L 13.8946,1.625 L 13.8946,1.6875 L 13.8946,1.75 L 13.8946,1.8125 L 13.8946,1.875 L 13.8946,1.9375 L 13.8946,2.0 L 13.8946,2.0625 L 13.8946,2.125 L 13.8946,2.1875 L 13.8946,2.25" />
      <path d="M 13.8927,-2.25 L 13.8927,-2.1875 L 13.8927,-2.125 L 13.8927,-2.0625 L 13.8927,-2.0 L 13.8927,-1.9375 L 13.8927,-1.875 L 13.8927,-1.8125 L 13.8927,-1.75 L 13.8927,-1.6875 L 13.8927,-1.625 L 13.8927,-1.5625 L 13.8927,-1.5 L 13.8927,-1.4375 L 13.8927,-1.375 L 13.8927,-1.3125 L 13.8927,-1.25 L 13.8927,-1.1875 L 13.8927,-1.125 L 13.8927,-1.0625 L 13.8927,-1.0 L 13.8927,-0.9375 L 13.8927,-0.875 L 13.8927,-0.8125 L 13.8927,-0.75 L 13.8927,-0.6875 L 13.8927,-0.625 L 13.8927,-0.5625 L 13.8927,-0.5 L 13.8927,-0.4375 L 13.8927,-0.375 L 13.8927,-0.3125 L 13.8927,-0.25 L 13.8927,-0.1875 L 13.8927,-0.125 L 13.8927,-0.0625 L 13.8927,0.0 L 13.8927,0.0625 L 13.8927,0.125 L 13.8927,0.1875 L 13.8927,0.25 L 13.8927,0.3125 L 13.8927,0.375 L 13.8927,0.4375 L 13.8927,0.5 L 13.8927,0.5625 L 13.8927,0.625 L 13.8927,0.6875 L 13.8927,0.75 L 13.8927,0.8125 L 13.8927,0.875 L 13.8927,0.9375 L 13.8927,1.0 L 13.8927,1.0625 L 13.8927,1.125 L 13.8927,1.1875 L 13.8927,1.25 L 13.8927,1.3125 L 13.8927,1.375 L 13.8927,1.4375 L 13.8927,1.5 L 13.8927,1.5625 L 13.8927,1.625 L 13.8927,1.6875 L 13.8927,1.75 L 13.8927,1.8125 L 13.8927,1.875 L 13.8927,1.9375 L 13.8927,2.0 L 13.8927,2.0625 L 13.8927,2.125 L 13.8927,2.1875 L 13.8927,2.25" />
      <path d="M -0.5079,-15.0 L -0.5078,-15.0 L -0.5077,-15.0 L -0.5076,-15.0 L -0.5075,-15.0 L -0.5074,-15.0 L -0.5073,-15.0" />
      <path d="M -0.5079,15.0 L -0.5078,15.0 L -0.5077,15.0 L -0.5076,15.0 L -0.5075,15.0 L -0.5074,15.0 L -0.5073,15.0" />
      <path d="M 24.0949,14.3215 L 24.0951,13.9073 L 24.0951,13.493 L 24.0952,13.0787 L 24.0953,12.6644 L 24.0953,12.2501 L 24.0954,11.8358 L 24.0954,11.4215 L 24.0954,11.0072 L 24.0955,10.5929 L 24.0955,10.1786 L 24.0955,9.7643 L 24.0956,9.35 L 24.0956,8.9357 L 24.0956,8.5214 L 24.0956,8.1071 L 24.0957,7.6928 L 24.0957,7.2786 L 24.0957,6.8643 L 24.0957,6.45 L 24.0957,6.0357 L 24.0957,5.6214 L 24.0958,5.2071 L 24.0958,4.7928 L 24.0958,4.3785 L 24.0958,3.9642 L 24.0958,3.5499 L 24.0958,3.1356 L 24.0958,2.7213 L 24.0958,2.307 L 24.0958,1.8927 L 24.0958,1.4784 L 24.0958,1.0641 L 24.0958,0.6499 L 24.0958,0.2356 L 24.0958,-0.1787 L 24.0958,-0.593 L 24.0958,-1.0073 L 24.0958,-1.4216 L 24.0958,-1.8359 L 24.0958,-2.2502 L 24.0958,-2.6645 L 24.0958,-3.0788 L 24.0958,-3.4931 L 24.0958,-3.9074 L 24.0958,-4.3217 L 24.0958,-4.736 L 24.0958,-5.1503 L 24.0958,-5.5646 L 24.0958,-5.9788 L 24.0957,-6.3931 L 24.0957,-6.8074 L 24.0957,-7.2217 L 24.0957,-7.636 L 24.0957,-8.0503 L 24.0957,-8.4646 L 24.0957,-8.8789 L 24.0956,-9.2932 L 24.0956,-9.7075 L 24.0956,-10.1218 L 24.0956,-10.5361 L 24.0955,-10.9504 L 24.0955,-11.3647 L 24.0955,-11.779 L 24.0954,-12.1933 L 24.0954,-12.6075 L 24.0954,-13.0218 L 24.0953,-13.4361 L 24.0952,-13.8504 L 24.0952,-14.2647 L 24.0951,-14.679 L 24.095,-15.0933 L 24.0948,-15.5076" />
      <path d="M 24.0948,-15.5076 L 24.0945,-15.0933 L 24.0944,-14.679 L 24.0943,-14.2646 L 24.0943,-13.8503 L 24.0942,-13.436 L 24.0942,-13.0216 L 24.0941,-12.6073 L 24.0941,-12.193 L 24.094,-11.7787 L 24.094,-11.3643 L 24.094,-10.95 L 24.094,-10.5357 L 24.0939,-10.1214 L 24.0939,-9.707 L 24.0939,-9.2927 L 24.0939,-8.8784 L 24.0938,-8.4641 L 24.0938,-8.0497 L 24.0938,-7.6354 L 24.0938,-7.2211 L 24.0938,-6.8068 L 24.0938,-6.3924 L 24.0938,-5.9781 L 24.0937,-5.5638 L 24.0937,-5.1495 L 24.0937,-4.7351 L 24.0937,-4.3208 L 24.0937,-3.9065 L 24.0937,-3.4922 L 24.0937,-3.0778 L 24.0937,-2.6635 L 24.0937,-2.2492 L 24.0937,-1.8349 L 24.0937,-1.4205 L 24.0937,-1.0062 L 24.0937,-0.5919 L 24.0937,-0.1776 L 24.0937,0.2368 L 24.0937,0.6511 L 24.0937,1.0654 L 24.0937,1.4797 L 24.0937,1.8941 L 24.0937,2.3084 L 24.0937,2.7227 L 24.0937,3.137 L 24.0937,3.5514 L 24.0937,3.9657 L 24.0937,4.38 L 24.0937,4.7943 L 24.0938,5.2087 L 24.0938,5.623 L 24.0938,6.0373 L 24.0938,6.4516 L 24.0938,6.866 L 24.0938,7.2803 L 24.0939,7.6946 L 24.0939,8.1089 L 24.0939,8.5233 L 24.0939,8.9376 L 24.0939,9.3519 L 24.094,9.7662 L 24.094,10.1806 L 24.094,10.5949 L 24.0941,11.0092 L 24.0941,11.4236 L 24.0941,11.8379 L 24.0942,12.2522 L 24.0942,12.6665 L 24.0943,13.0809 L 24.0944,13.4952 L 24.0945,13.9095 L 24.0946,14.3238" />
      <path d="M 24.0946,14.3238 L 24.0946,14.3345 L 24.0946,14.3452 L 24.0946,14.3559 L 24.0946,14.3666 L 24.0946,14.3773 L 24.0946,14.388 L 24.0946,14.3987 L 24.0946,14.4094 L 24.0946,14.42 L 24.0946,14.4307 L 24.0946,14.4414 L 24.0946,14.4521 L 24.0946,14.4628 L 24.0946,14.4735 L 24.0946,14.4842 L 24.0946,14.4949 L 24.0946,14.5056 L 24.0946,14.5163 L 24.0946,14.5269 L 24.0946,14.5376 L 24.0946,14.5483 L 24.0946,14.559 L 24.0946,14.5697 L 24.0946,14.5804 L 24.0946,14.5911 L 24.0946,14.6018 L 24.0946,14.6125 L 24.0946,14.6232 L 24.0946,14.6339 L 24.0946,14.6445 L 24.0946,14.6552 L 24.0946,14.6659 L 24.0946,14.6766 L 24.0946,14.6873 L 24.0946,14.698 L 24.0946,14.7087 L 24.0946,14.7194 L 24.0946,14.7301 L 24.0946,14.7408 L 24.0946,14.7514 L 24.0946,14.7621 L 24.0946,14.7728 L 24.0946,14.7835 L 24.0946,14.7942 L 24.0946,14.8049 L 24.0946,14.8156 L 24.0946,14.8263 L 24.0946,14.837 L 24.0946,14.8477 L 24.0946,14.8583 L 24.0946,14.869 L 24.0946,14.8797 L 24.0946,14.8904 L 24.0946,14.9011 L 24.0946,14.9118 L 24.0946,14.9225 L 24.0946,14.9332 L 24.0946,14.9439 L 24.0946,14.9546 L 24.0946,14.9653 L 24.0946,14.9759 L 24.0946,14.9866 L 24.0946,14.9973 L 24.0946,15.008 L 24.0946,15.0187 L 24.0946,15.0294 L 24.0946,15.0401 L 24.0946,15.0508 L 24.0946,15.0615 L 24.0946,15.0722 L 24.0946,15.0828 L 24.0946,15.0935" />
      <path d="M 24.0948,5.9924 L 24.0949,5.8118 L 24.0949,5.6313 L 24.0949,5.4507 L 24.095,5.2702 L 24.095,5.0896 L 24.095,4.9091 L 24.095,4.7285 L 24.095,4.548 L 24.0951,4.3674 L 24.0951,4.1868 L 24.0951,4.0063 L 24.0951,3.8257 L 24.0951,3.6452 L 24.0951,3.4646 L 24.0951,3.2841 L 24.0951,3.1035 L 24.0952,2.923 L 24.0952,2.7424 L 24.0952,2.5618 L 24.0952,2.3813 L 24.0952,2.2007 L 24.0952,2.0202 L 24.0952,1.8396 L 24.0952,1.6591 L 24.0952,1.4785 L 24.0952,1.298 L 24.0952,1.1174 L 24.0952,0.9368 L 24.0952,0.7563 L 24.0952,0.5757 L 24.0952,0.3952 L 24.0952,0.2146 L 24.0952,0.0341 L 24.0952,-0.1465 L 24.0952,-0.327 L 24.0952,-0.5076 L 24.0952,-0.6882 L 24.0952,-0.8687 L 24.0952,-1.0493 L 24.0952,-1.2298 L 24.0952,-1.4104 L 24.0952,-1.5909 L 24.0952,-1.7715 L 24.0952,-1.952 L 24.0952,-2.1326 L 24.0952,-2.3132 L 24.0952,-2.4937 L 24.0952,-2.6743 L 24.0952,-2.8548 L 24.0952,-3.0354 L 24.0952,-3.2159 L 24.0952,-3.3965 L 24.0952,-3.577 L 24.0952,-3.7576 L 24.0952,-3.9382 L 24.0951,-4.1187 L 24.0951,-4.2993 L 24.0951,-4.4798 L 24.0951,-4.6604 L 24.0951,-4.8409 L 24.0951,-5.0215 L 24.0951,-5.202 L 24.0951,-5.3826 L 24.095,-5.5632 L 24.095,-5.7437 L 24.095,-5.9243 L 24.095,-6.1048 L 24.095,-6.2854 L 24.0949,-6.4659 L 24.0949,-6.6465 L 24.0949,-6.827 L 24.0948,-7.0076" />
      <path d="M 24.0948,-7.0076 L 24.0946,-6.827 L 24.0946,-6.6465 L 24.0946,-6.4659 L 24.0945,-6.2854 L 24.0945,-6.1048 L 24.0945,-5.9243 L 24.0945,-5.7437 L 24.0945,-5.5632 L 24.0944,-5.3826 L 24.0944,-5.202 L 24.0944,-5.0215 L 24.0944,-4.8409 L 24.0944,-4.6604 L 24.0944,-4.4798 L 24.0944,-4.2993 L 24.0944,-4.1187 L 24.0944,-3.9382 L 24.0944,-3.7576 L 24.0943,-3.577 L 24.0943,-3.3965 L 24.0943,-3.2159 L 24.0943,-3.0354 L 24.0943,-2.8548 L 24.0943,-2.6743 L 24.0943,-2.4937 L 24.0943,-2.3132 L 24.0943,-2.1326 L 24.0943,-1.952 L 24.0943,-1.7715 L 24.0943,-1.5909 L 24.0943,-1.4104 L 24.0943,-1.2298 L 24.0943,-1.0493 L 24.0943,-0.8687 L 24.0943,-0.6882 L 24.0943,-0.5076 L 24.0943,-0.327 L 24.0943,-0.1465 L 24.0943,0.0341 L 24.0943,0.2146 L 24.0943,0.3952 L 24.0943,0.5757 L 24.0943,0.7563 L 24.0943,0.9368 L 24.0943,1.1174 L 24.0943,1.298 L 24.0943,1.4785 L 24.0943,1.6591 L 24.0943,1.8396 L 24.0943,2.0202 L 24.0943,2.2007 L 24.0943,2.3813 L 24.0943,2.5618 L 24.0944,2.7424 L 24.0944,2.923 L 24.0944,3.1035 L 24.0944,3.2841 L 24.0944,3.4646 L 24.0944,3.6452 L 24.0944,3.8257 L 24.0944,4.0063 L 24.0944,4.1868 L 24.0944,4.3674 L 24.0945,4.548 L 24.0945,4.7285 L 24.0945,4.9091 L 24.0945,5.0896 L 24.0945,5.2702 L 24.0946,5.4507 L 24.0946,5.6313 L 24.0946,5.8118 L 24.0948,5.9924" />
      <path d="M 22.8945,13.8913 L 22.8417,13.8913 L 22.7889,13.8913 L 22.7361,13.8913 L 22.6834,13.8913 L 22.6306,13.8913 L 22.5778,13.8913 L 22.5251,13.8913 L 22.4723,13.8913 L 22.4195,13.8913 L 22.3667,13.8913 L 22.314,13.8913 L 22.2612,13.8913 L 22.2084,13.8913 L 22.1557,13.8913 L 22.1029,13.8913 L 22.0501,13.8913 L 21.9973,13.8913 L 21.9446,13.8913 L 21.8918,13.8913 L 21.839,13.8913 L 21.7863,13.8913 L 21.7335,13.8913 L 21.6807,13.8913 L 21.6279,13.8913 L 21.5752,13.8913 L 21.5224,13.8913 L 21.4696,13.8913 L 21.4169,13.8913 L 21.3641,13.8913 L 21.3113,13.8913 L 21.2585,13.8913 L 21.2058,13.8913 L 21.153,13.8913 L 21.1002,13.8913 L 21.0475,13.8913 L 20.9947,13.8913 L 20.9419,13.8913 L 20.8891,13.8913 L 20.8364,13.8913 L 20.7836,13.8913 L 20.7308,13.8913 L 20.6781,13.8913 L 20.6253,13.8913 L 20.5725,13.8913 L 20.5197,13.8913 L 20.467,13.8913 L 20.4142,13.8913 L 20.3614,13.8913 L 20.3087,13.8913 L 20.2559,13.8913 L 20.2031,13.8913 L 20.1503,13.8913 L 20.0976,13.8913 L 20.0448,13.8913 L 19.992,13.8913 L 19.9393,13.8913 L 19.8865,13.8913 L 19.8337,13.8913 L 19.7809,13.8913 L 19.7282,13.8913 L 19.6754,13.8913 L 19.6226,13.8913 L 19.5699,13.8913 L 19.5171,13.8913 L 19.4643,13.8913 L 19.4115,13.8913 L 19.3588,13.8913 L 19.306,13.8913 L 19.2532,13.8913 L 19.2005,13.8913 L 19.1477,13.8913 L 19.0949,13.8913" />
      <path d="M 24.0949,14.3215 L 24.0948,14.3215 L 24.0947,14.3215 L 24.0946,14.3215" />
      <path d="M 24.0946,15.0935 L 24.0251,15.0935 L 23.9557,15.0935 L 23.8863,15.0935 L 23.8168,15.0935 L 23.7474,15.0935 L 23.6779,15.0935 L 23.6085,15.0935 L 23.539,15.0935 L 23.4696,15.0935 L 23.4001,15.0935 L 23.3307,15.0935 L 23.2613,15.0935 L 23.1918,15.0935 L 23.1224,15.0935 L 23.0529,15.0935 L 22.9835,15.0935 L 22.914,15.0935 L 22.8446,15.0935 L 22.7751,15.0935 L 22.7057,15.0935 L 22.6363,15.0935 L 22.5668,15.0935 L 22.4974,15.0935 L 22.4279,15.0935 L 22.3585,15.0935 L 22.289,15.0935 L 22.2196,15.0935 L 22.1501,15.0935 L 22.0807,15.0935 L 22.0113,15.0935 L 21.9418,15.0935 L 21.8724,15.0935 L 21.8029,15.0935 L 21.7335,15.0935 L 21.664,15.0935 L 21.5946,15.0935 L 21.5251,15.0935 L 21.4557,15.0935 L 21.3863,15.0935 L 21.3168,15.0935 L 21.2474,15.0935 L 21.1779,15.0935 L 21.1085,15.0935 L 21.039,15.0935 L 20.9696,15.0935 L 20.9001,15.0935 L 20.8307,15.0935 L 20.7613,15.0935 L 20.6918,15.0935 L 20.6224,15.0935 L 20.5529,15.0935 L 20.4835,15.0935 L 20.414,15.0935 L 20.3446,15.0935 L 20.2751,15.0935 L 20.2057,15.0935 L 20.1363,15.0935 L 20.0668,15.0935 L 19.9974,15.0935 L 19.9279,15.0935 L 19.8585,15.0935 L 19.789,15.0935 L 19.7196,15.0935 L 19.6501,15.0935 L 19.5807,15.0935 L 19.5113,15.0935 L 19.4418,15.0935 L 19.3724,15.0935 L 19.3029,15.0935 L 19.2335,15.0935 L 19.164,15.0935 L 19.0946,15.0935" />
      <path d="M 19.0946,13.8935 L 19.0946,13.9102 L 19.0946,13.9269 L 19.0946,13.9435 L 19.0946,13.9602 L 19.0946,13.9769 L 19.0946,13.9935 L 19.0946,14.0102 L 19.0946,14.0269 L 19.0946,14.0435 L 19.0946,14.0602 L 19.0946,14.0769 L 19.0946,14.0935 L 19.0946,14.1102 L 19.0946,14.1269 L 19.0946,14.1435 L 19.0946,14.1602 L 19.0946,14.1769 L 19.0946,14.1935 L 19.0946,14.2102 L 19.0946,14.2269 L 19.0946,14.2435 L 19.0946,14.2602 L 19.0946,14.2769 L 19.0946,14.2935 L 19.0946,14.3102 L 19.0946,14.3269 L 19.0946,14.3435 L 19.0946,14.3602 L 19.0946,14.3769 L 19.0946,14.3935 L 19.0946,14.4102 L 19.0946,14.4269 L 19.0946,14.4435 L 19.0946,14.4602 L 19.0946,14.4769 L 19.0946,14.4935 L 19.0946,14.5102 L 19.0946,14.5269 L 19.0946,14.5435 L 19.0946,14.5602 L 19.0946,14.5769 L 19.0946,14.5935 L 19.0946,14.6102 L 19.0946,14.6269 L 19.0946,14.6435 L 19.0946,14.6602 L 19.0946,14.6769 L 19.0946,14.6935 L 19.0946,14.7102 L 19.0946,14.7269 L 19.0946,14.7435 L 19.0946,14.7602 L 19.0946,14.7769 L 19.0946,14.7935 L 19.0946,14.8102 L 19.0946,14.8269 L 19.0946,14.8435 L 19.0946,14.8602 L 19.0946,14.8769 L 19.0946,14.8935 L 19.0946,14.9102 L 19.0946,14.9269 L 19.0946,14.9435 L 19.0946,14.9602 L 19.0946,14.9769 L 19.0946,14.9935 L 19.0946,15.0102 L 19.0946,15.0269 L 19.0946,15.0435 L 19.0946,15.0602 L 19.0946,15.0769 L 19.0946,15.0935" />
      <path d="M 22.8945,13.8935 L 22.8417,13.8935 L 22.7889,13.8935 L 22.7361,13.8935 L 22.6833,13.8935 L 22.6306,13.8935 L 22.5778,13.8935 L 22.525,13.8935 L 22.4722,13.8935 L 22.4195,13.8935 L 22.3667,13.8935 L 22.3139,13.8935 L 22.2611,13.8935 L 22.2084,13.8935 L 22.1556,13.8935 L 22.1028,13.8935 L 22.05,13.8935 L 21.9973,13.8935 L 21.9445,13.8935 L 21.8917,13.8935 L 21.8389,13.8935 L 21.7862,13.8935 L 21.7334,13.8935 L 21.6806,13.8935 L 21.6278,13.8935 L 21.5751,13.8935 L 21.5223,13.8935 L 21.4695,13.8935 L 21.4167,13.8935 L 21.364,13.8935 L 21.3112,13.8935 L 21.2584,13.8935 L 21.2056,13.8935 L 21.1529,13.8935 L 21.1001,13.8935 L 21.0473,13.8935 L 20.9945,13.8935 L 20.9417,13.8935 L 20.889,13.8935 L 20.8362,13.8935 L 20.7834,13.8935 L 20.7306,13.8935 L 20.6779,13.8935 L 20.6251,13.8935 L 20.5723,13.8935 L 20.5195,13.8935 L 20.4668,13.8935 L 20.414,13.8935 L 20.3612,13.8935 L 20.3084,13.8935 L 20.2557,13.8935 L 20.2029,13.8935 L 20.1501,13.8935 L 20.0973,13.8935 L 20.0446,13.8935 L 19.9918,13.8935 L 19.939,13.8935 L 19.8862,13.8935 L 19.8335,13.8935 L 19.7807,13.8935 L 19.7279,13.8935 L 19.6751,13.8935 L 19.6224,13.8935 L 19.5696,13.8935 L 19.5168,13.8935 L 19.464,13.8935 L 19.4112,13.8935 L 19.3585,13.8935 L 19.3057,13.8935 L 19.2529,13.8935 L 19.2001,13.8935 L 19.1474,13.8935 L 19.0946,13.8935" />
      <path d="M 24.0946,14.3238 L 24.0779,14.3238 L 24.0613,14.3238 L 24.0446,14.3238 L 24.0279,14.3238 L 24.0113,14.3238 L 23.9946,14.3238 L 23.9779,14.3238 L 23.9613,14.3238 L 23.9446,14.3238 L 23.9279,14.3238 L 23.9113,14.3238 L 23.8946,14.3238 L 23.8779,14.3238 L 23.8613,14.3238 L 23.8446,14.3238 L 23.8279,14.3238 L 23.8113,14.3238 L 23.7946,14.3238 L 23.7779,14.3238 L 23.7613,14.3238 L 23.7446,14.3238 L 23.7279,14.3238 L 23.7113,14.3238 L 23.6946,14.3238 L 23.6779,14.3238 L 23.6613,14.3238 L 23.6446,14.3238 L 23.6279,14.3238 L 23.6113,14.3238 L 23.5946,14.3238 L 23.5779,14.3238 L 23.5613,14.3238 L 23.5446,14.3238 L 23.5279,14.3238 L 23.5113,14.3238 L 23.4946,14.3238 L 23.4779,14.3238 L 23.4613,14.3238 L 23.4446,14.3238 L 23.4279,14.3238 L 23.4113,14.3238 L 23.3946,14.3238 L 23.3779,14.3238 L 23.3613,14.3238 L 23.3446,14.3238 L 23.3279,14.3238 L 23.3113,14.3238 L 23.2946,14.3238 L 23.2779,14.3238 L 23.2613,14.3238 L 23.2446,14.3238 L 23.2279,14.3238 L 23.2113,14.3238 L 23.1946,14.3238 L 23.1779,14.3238 L 23.1613,14.3238 L 23.1446,14.3238 L 23.1279,14.3238 L 23.1113,14.3238 L 23.0946,14.3238 L 23.0779,14.3238 L 23.0613,14.3238 L 23.0446,14.3238 L 23.0279,14.3238 L 23.0113,14.3238 L 22.9946,14.3238 L 22.9779,14.3238 L 22.9613,14.3238 L 22.9446,14.3238 L 22.9279,14.3238 L 22.9113,14.3238 L 22.8946,14.3238" />
      <path d="M 22.8948,-15.5076 L 22.8945,-15.0933 L 22.8944,-14.679 L 22.8943,-14.2646 L 22.8943,-13.8503 L 22.8942,-13.436 L 22.8942,-13.0216 L 22.8941,-12.6073 L 22.8941,-12.193 L 22.894,-11.7787 L 22.894,-11.3643 L 22.894,-10.95 L 22.894,-10.5357 L 22.8939,-10.1214 L 22.8939,-9.707 L 22.8939,-9.2927 L 22.8939,-8.8784 L 22.8938,-8.4641 L 22.8938,-8.0497 L 22.8938,-7.6354 L 22.8938,-7.2211 L 22.8938,-6.8068 L 22.8938,-6.3924 L 22.8938,-5.9781 L 22.8937,-5.5638 L 22.8937,-5.1495 L 22.8937,-4.7351 L 22.8937,-4.3208 L 22.8937,-3.9065 L 22.8937,-3.4922 L 22.8937,-3.0778 L 22.8937,-2.6635 L 22.8937,-2.2492 L 22.8937,-1.8349 L 22.8937,-1.4205 L 22.8937,-1.0062 L 22.8937,-0.5919 L 22.8937,-0.1776 L 22.8937,0.2368 L 22.8937,0.6511 L 22.8937,1.0654 L 22.8937,1.4797 L 22.8937,1.8941 L 22.8937,2.3084 L 22.8937,2.7227 L 22.8937,3.137 L 22.8937,3.5514 L 22.8937,3.9657 L 22.8937,4.38 L 22.8937,4.7943 L 22.8938,5.2087 L 22.8938,5.623 L 22.8938,6.0373 L 22.8938,6.4516 L 22.8938,6.866 L 22.8938,7.2803 L 22.8939,7.6946 L 22.8939,8.1089 L 22.8939,8.5233 L 22.8939,8.9376 L 22.8939,9.3519 L 22.894,9.7662 L 22.894,10.1806 L 22.894,10.5949 L 22.8941,11.0092 L 22.8941,11.4236 L 22.8941,11.8379 L 22.8942,12.2522 L 22.8942,12.6665 L 22.8943,13.0809 L 22.8944,13.4952 L 22.8945,13.9095 L 22.8946,14.3238" />
      <path d="M 19.0946,13.8935 L 19.0946,13.8934 L 19.0946,13.8933 L 19.0946,13.8932 L 19.0947,13.8931 L 19.0947,13.893 L 19.0947,13.8929 L 19.0947,13.8928 L 19.0947,13.8927 L 19.0947,13.8926 L 19.0947,13.8925 L 19.0948,13.8924 L 19.0948,13.8923 L 19.0948,13.8922 L 19.0948,13.8921 L 19.0948,13.892 L 19.0948,13.8919 L 19.0948,13.8918 L 19.0948,13.8917 L 19.0949,13.8917 L 19.0949,13.8916 L 19.0949,13.8915 L 19.0949,13.8914 L 19.0949,13.8913" />
      <path d="M 24.0948,-15.5076 L 24.0781,-15.5076 L 24.0614,-15.5076 L 24.0448,-15.5076 L 24.0281,-15.5076 L 24.0114,-15.5076 L 23.9948,-15.5076 L 23.9781,-15.5076 L 23.9614,-15.5076 L 23.9448,-15.5076 L 23.9281,-15.5076 L 23.9114,-15.5076 L 23.8948,-15.5076 L 23.8781,-15.5076 L 23.8614,-15.5076 L 23.8448,-15.5076 L 23.8281,-15.5076 L 23.8114,-15.5076 L 23.7948,-15.5076 L 23.7781,-15.5076 L 23.7614,-15.5076 L 23.7448,-15.5076 L 23.7281,-15.5076 L 23.7114,-15.5076 L 23.6948,-15.5076 L 23.6781,-15.5076 L 23.6614,-15.5076 L 23.6448,-15.5076 L 23.6281,-15.5076 L 23.6114,-15.5076 L 23.5948,-15.5076 L 23.5781,-15.5076 L 23.5614,-15.5076 L 23.5448,-15.5076 L 23.5281,-15.5076 L 23.5114,-15.5076 L 23.4948,-15.5076 L 23.4781,-15.5076 L 23.4614,-15.5076 L 23.4448,-15.5076 L 23.4281,-15.5076 L 23.4114,-15.5076 L 23.3948,-15.5076 L 23.3781,-15.5076 L 23.3614,-15.5076 L 23.3448,-15.5076 L 23.3281,-15.5076 L 23.3114,-15.5076 L 23.2948,-15.5076 L 23.2781,-15.5076 L 23.2614,-15.5076 L 23.2448,-15.5076 L 23.2281,-15.5076 L 23.2114,-15.5076 L 23.1948,-15.5076 L 23.1781,-15.5076 L 23.1614,-15.5076 L 23.1448,-15.5076 L 23.1281,-15.5076 L 23.1114,-15.5076 L 23.0948,-15.5076 L 23.0781,-15.5076 L 23.0614,-15.5076 L 23.0448,-15.5076 L 23.0281,-15.5076 L 23.0114,-15.5076 L 22.9948,-15.5076 L 22.9781,-15.5076 L 22.9614,-15.5076 L 22.9448,-15.5076 L 22.9281,-15.5076 L 22.9114,-15.5076 L 22.8948,-15.5076" />
      <path d="M 24.0948,5.9924 L 24.0947,5.9924 L 24.0946,5.9924 L 24.0945,5.9924 L 24.0944,5.9924 L 24.0943,5.9924 L 24.0942,5.9924 L 24.0941,5.9924 L 24.094,5.9924 L 24.0939,5.9924 L 24.0938,5.9924" />
      <path d="M 24.0948,-7.0076 L 24.0947,-7.0076 L 24.0946,-7.0076 L 24.0945,-7.0076 L 24.0944,-7.0076 L 24.0943,-7.0076 L 24.0942,-7.0076 L 24.0941,-7.0076 L 24.094,-7.0076 L 24.0939,-7.0076 L 24.0938,-7.0076" />
    </g>
    <g fill="none" stroke="rgb(110,110,110)" stroke-width="0.3" id="Hidden" stroke-dasharray="3.6 0.9">
      <path d="M 14.3223,2.25 L 14.333,2.25 L 14.3437,2.25 L 14.3544,2.25 L 14.3651,2.25 L 14.3758,2.25 L 14.3865,2.25 L 14.3972,2.25 L 14.4079,2.25 L 14.4186,2.25 L 14.4292,2.25 L 14.4399,2.25 L 14.4506,2.25 L 14.4613,2.25 L 14.472,2.25 L 14.4827,2.25 L 14.4934,2.25 L 14.5041,2.25 L 14.5148,2.25 L 14.5255,2.25 L 14.5362,2.25 L 14.5468,2.25 L 14.5575,2.25 L 14.5682,2.25 L 14.5789,2.25 L 14.5896,2.25 L 14.6003,2.25 L 14.611,2.25 L 14.6217,2.25 L 14.6324,2.25 L 14.6431,2.25 L 14.6537,2.25 L 14.6644,2.25 L 14.6751,2.25 L 14.6858,2.25 L 14.6965,2.25 L 14.7072,2.25 L 14.7179,2.25 L 14.7286,2.25 L 14.7393,2.25 L 14.75,2.25 L 14.7607,2.25 L 14.7713,2.25 L 14.782,2.25 L 14.7927,2.25 L 14.8034,2.25 L 14.8141,2.25 L 14.8248,2.25 L 14.8355,2.25 L 14.8462,2.25 L 14.8569,2.25 L 14.8676,2.25 L 14.8782,2.25 L 14.8889,2.25 L 14.8996,2.25 L 14.9103,2.25 L 14.921,2.25 L 14.9317,2.25 L 14.9424,2.25 L 14.9531,2.25 L 14.9638,2.25 L 14.9745,2.25 L 14.9852,2.25 L 14.9958,2.25 L 15.0065,2.25 L 15.0172,2.25 L 15.0279,2.25 L 15.0386,2.25 L 15.0493,2.25 L 15.06,2.25 L 15.0707,2.25 L 15.0814,2.25 L 15.0921,2.25" />
      <path d="M 14.3223,2.25 L 14.2751,2.5421 L 14.2221,2.8332 L 14.1633,3.1231 L 14.0989,3.4119 L 14.0287,3.6994 L 13.9529,3.9854 L 13.8715,4.2698 L 13.7845,4.5526 L 13.6919,4.8336 L 13.5938,5.1128 L 13.4902,5.3899 L 13.3812,5.665 L 13.2668,5.9378 L 13.147,6.2084 L 13.0218,6.4765 L 12.8915,6.7421 L 12.7559,7.0051 L 12.6151,7.2653 L 12.4693,7.5227 L 12.3184,7.7772 L 12.1625,8.0287 L 12.0017,8.2771 L 11.836,8.5222 L 11.6655,8.764 L 11.4902,9.0024 L 11.3103,9.2373 L 11.1258,9.4686 L 10.9368,9.6963 L 10.7433,9.9201 L 10.5455,10.1401 L 10.3433,10.3561 L 10.137,10.5682 L 9.9264,10.7761 L 9.7119,10.9798 L 9.4933,11.1792 L 9.2709,11.3743 L 9.0446,11.565 L 8.8146,11.7511 L 8.581,11.9327 L 8.3439,12.1097 L 8.1033,12.2819 L 7.8594,12.4494 L 7.6122,12.612 L 7.3619,12.7697 L 7.1085,12.9225 L 6.8521,13.0702 L 6.5929,13.2128 L 6.3309,13.3503 L 6.0663,13.4826 L 5.799,13.6096 L 5.5294,13.7314 L 5.2574,13.8478 L 4.9831,13.9588 L 4.7067,14.0644 L 4.4283,14.1645 L 4.1479,14.2591 L 3.8658,14.3482 L 3.5819,14.4317 L 3.2965,14.5095 L 3.0096,14.5817 L 2.7213,14.6483 L 2.4317,14.7091 L 2.141,14.7642 L 1.8493,14.8136 L 1.5566,14.8572 L 1.2632,14.8951 L 0.9691,14.9271 L 0.6744,14.9533 L 0.3792,14.9737 L 0.0837,14.9883 L -0.2121,14.9971 L -0.5079,15.0" />
      <path d="M -0.5079,-15.0 L -0.2121,-14.9971 L 0.0837,-14.9883 L 0.3792,-14.9737 L 0.6744,-14.9533 L 0.9691,-14.9271 L 1.2632,-14.8951 L 1.5566,-14.8572 L 1.8493,-14.8136 L 2.141,-14.7642 L 2.4317,-14.7091 L 2.7213,-14.6483 L 3.0096,-14.5817 L 3.2965,-14.5095 L 3.5819,-14.4317 L 3.8658,-14.3482 L 4.1479,-14.2591 L 4.4283,-14.1645 L 4.7067,-14.0644 L 4.9831,-13.9588 L 5.2574,-13.8478 L 5.5294,-13.7314 L 5.799,-13.6096 L 6.0663,-13.4826 L 6.3309,-13.3503 L 6.5929,-13.2128 L 6.8521,-13.0702 L 7.1085,-12.9225 L 7.3619,-12.7697 L 7.6122,-12.612 L 7.8594,-12.4494 L 8.1033,-12.2819 L 8.3439,-12.1097 L 8.581,-11.9327 L 8.8146,-11.7511 L 9.0446,-11.565 L 9.2709,-11.3743 L 9.4933,-11.1792 L 9.7119,-10.9798 L 9.9264,-10.7761 L 10.137,-10.5682 L 10.3433,-10.3561 L 10.5455,-10.1401 L 10.7433,-9.9201 L 10.9368,-9.6963 L 11.1258,-9.4686 L 11.3103,-9.2373 L 11.4902,-9.0024 L 11.6655,-8.764 L 11.836,-8.5222 L 12.0017,-8.2771 L 12.1625,-8.0287 L 12.3184,-7.7772 L 12.4693,-7.5227 L 12.6151,-7.2653 L 12.7559,-7.0051 L 12.8915,-6.7421 L 13.0218,-6.4765 L 13.147,-6.2084 L 13.2668,-5.9378 L 13.3812,-5.665 L 13.4902,-5.3899 L 13.5938,-5.1128 L 13.6919,-4.8336 L 13.7845,-4.5526 L 13.8715,-4.2698 L 13.9529,-3.9854 L 14.0287,-3.6994 L 14.0989,-3.4119 L 14.1633,-3.1231 L 14.2221,-2.8332 L 14.2751,-2.5421 L 14.3223,-2.25" />
      <path d="M 14.3223,-2.25 L 14.333,-2.25 L 14.3437,-2.25 L 14.3544,-2.25 L 14.3651,-2.25 L 14.3758,-2.25 L 14.3865,-2.25 L 14.3972,-2.25 L 14.4079,-2.25 L 14.4186,-2.25 L 14.4292,-2.25 L 14.4399,-2.25 L 14.4506,-2.25 L 14.4613,-2.25 L 14.472,-2.25 L 14.4827,-2.25 L 14.4934,-2.25 L 14.5041,-2.25 L 14.5148,-2.25 L 14.5255,-2.25 L 14.5362,-2.25 L 14.5468,-2.25 L 14.5575,-2.25 L 14.5682,-2.25 L 14.5789,-2.25 L 14.5896,-2.25 L 14.6003,-2.25 L 14.611,-2.25 L 14.6217,-2.25 L 14.6324,-2.25 L 14.6431,-2.25 L 14.6537,-2.25 L 14.6644,-2.25 L 14.6751,-2.25 L 14.6858,-2.25 L 14.6965,-2.25 L 14.7072,-2.25 L 14.7179,-2.25 L 14.7286,-2.25 L 14.7393,-2.25 L 14.75,-2.25 L 14.7607,-2.25 L 14.7713,-2.25 L 14.782,-2.25 L 14.7927,-2.25 L 14.8034,-2.25 L 14.8141,-2.25 L 14.8248,-2.25 L 14.8355,-2.25 L 14.8462,-2.25 L 14.8569,-2.25 L 14.8676,-2.25 L 14.8782,-2.25 L 14.8889,-2.25 L 14.8996,-2.25 L 14.9103,-2.25 L 14.921,-2.25 L 14.9317,-2.25 L 14.9424,-2.25 L 14.9531,-2.25 L 14.9638,-2.25 L 14.9745,-2.25 L 14.9852,-2.25 L 14.9958,-2.25 L 15.0065,-2.25 L 15.0172,-2.25 L 15.0279,-2.25 L 15.0386,-2.25 L 15.0493,-2.25 L 15.06,-2.25 L 15.0707,-2.25 L 15.0814,-2.25 L 15.0921,-2.25" />
      <path d="M 15.0921,-2.25 L 15.0921,-2.1875 L 15.0921,-2.125 L 15.0921,-2.0625 L 15.0921,-2.0 L 15.0921,-1.9375 L 15.0921,-1.875 L 15.0921,-1.8125 L 15.0921,-1.75 L 15.0921,-1.6875 L 15.0921,-1.625 L 15.0921,-1.5625 L 15.0921,-1.5 L 15.0921,-1.4375 L 15.0921,-1.375 L 15.0921,-1.3125 L 15.0921,-1.25 L 15.0921,-1.1875 L 15.0921,-1.125 L 15.0921,-1.0625 L 15.0921,-1.0 L 15.0921,-0.9375 L 15.0921,-0.875 L 15.0921,-0.8125 L 15.0921,-0.75 L 15.0921,-0.6875 L 15.0921,-0.625 L 15.0921,-0.5625 L 15.0921,-0.5 L 15.0921,-0.4375 L 15.0921,-0.375 L 15.0921,-0.3125 L 15.0921,-0.25 L 15.0921,-0.1875 L 15.0921,-0.125 L 15.0921,-0.0625 L 15.0921,0.0 L 15.0921,0.0625 L 15.0921,0.125 L 15.0921,0.1875 L 15.0921,0.25 L 15.0921,0.3125 L 15.0921,0.375 L 15.0921,0.4375 L 15.0921,0.5 L 15.0921,0.5625 L 15.0921,0.625 L 15.0921,0.6875 L 15.0921,0.75 L 15.0921,0.8125 L 15.0921,0.875 L 15.0921,0.9375 L 15.0921,1.0 L 15.0921,1.0625 L 15.0921,1.125 L 15.0921,1.1875 L 15.0921,1.25 L 15.0921,1.3125 L 15.0921,1.375 L 15.0921,1.4375 L 15.0921,1.5 L 15.0921,1.5625 L 15.0921,1.625 L 15.0921,1.6875 L 15.0921,1.75 L 15.0921,1.8125 L 15.0921,1.875 L 15.0921,1.9375 L 15.0921,2.0 L 15.0921,2.0625 L 15.0921,2.125 L 15.0921,2.1875 L 15.0921,2.25" />
      <path d="M -0.5073,6.5 L -0.5074,6.5 L -0.5075,6.5 L -0.5076,6.5 L -0.5077,6.5 L -0.5078,6.5 L -0.5079,6.5" />
      <path d="M -0.5079,6.5 L -0.7915,6.4938 L -1.0745,6.4753 L -1.3564,6.4444 L -1.6367,6.4013 L -1.9148,6.3459 L -2.1903,6.2785 L -2.4625,6.1992 L -2.7311,6.108 L -2.9954,6.0052 L -3.255,5.891 L -3.5093,5.7656 L -3.7579,5.6292 L -4.0004,5.482 L -4.2362,5.3245 L -4.4649,5.1568 L -4.6861,4.9793 L -4.8993,4.7923 L -5.1041,4.5962 L -5.3002,4.3913 L -5.4872,4.1781 L -5.6647,3.9569 L -5.8324,3.7282 L -5.99,3.4924 L -6.1371,3.25 L -6.2735,3.0014 L -6.3989,2.747 L -6.5132,2.4874 L -6.6159,2.2231 L -6.7071,1.9546 L -6.7865,1.6823 L -6.8539,1.4069 L -6.9092,1.1287 L -6.9523,0.8484 L -6.9832,0.5665 L -7.0018,0.2835 L -7.0079,0.0 L -7.0018,-0.2835 L -6.9832,-0.5665 L -6.9523,-0.8484 L -6.9092,-1.1287 L -6.8539,-1.4069 L -6.7865,-1.6823 L -6.7071,-1.9546 L -6.6159,-2.2231 L -6.5132,-2.4874 L -6.3989,-2.747 L -6.2735,-3.0014 L -6.1371,-3.25 L -5.99,-3.4924 L -5.8324,-3.7282 L -5.6647,-3.9569 L -5.4872,-4.1781 L -5.3002,-4.3913 L -5.1041,-4.5962 L -4.8993,-4.7923 L -4.6861,-4.9793 L -4.4649,-5.1568 L -4.2362,-5.3245 L -4.0004,-5.482 L -3.7579,-5.6292 L -3.5093,-5.7656 L -3.255,-5.891 L -2.9954,-6.0052 L -2.7311,-6.108 L -2.4625,-6.1992 L -2.1903,-6.2785 L -1.9148,-6.3459 L -1.6367,-6.4013 L -1.3564,-6.4444 L -1.0745,-6.4753 L -0.7915,-6.4938 L -0.5079,-6.5" />
      <path d="M -0.5079,-6.5 L -0.5078,-6.5 L -0.5077,-6.5 L -0.5076,-6.5 L -0.5075,-6.5 L -0.5074,-6.5 L -0.5073,-6.5" />
      <path d="M 15.0921,2.25 L 15.0922,2.25 L 15.0923,2.25 L 15.0924,2.25 L 15.0925,2.25 L 15.0926,2.25 L 15.0927,2.25 L 15.0928,2.25 L 15.0929,2.25 L 15.093,2.25 L 15.0931,2.25 L 15.0932,2.25 L 15.0933,2.25 L 15.0934,2.25 L 15.0935,2.25 L 15.0936,2.25 L 15.0937,2.25 L 15.0938,2.25 L 15.0939,2.25 L 15.094,2.25 L 15.0941,2.25 L 15.0942,2.25 L 15.0943,2.25 L 15.0944,2.25 L 15.0945,2.25 L 15.0946,2.25" />
      <path d="M 14.323,2.25 L 14.317,2.25 L 14.311,2.25 L 14.305,2.25 L 14.299,2.25 L 14.2931,2.25 L 14.2871,2.25 L 14.2811,2.25 L 14.2751,2.25 L 14.2692,2.25 L 14.2632,2.25 L 14.2572,2.25 L 14.2512,2.25 L 14.2453,2.25 L 14.2393,2.25 L 14.2333,2.25 L 14.2273,2.25 L 14.2214,2.25 L 14.2154,2.25 L 14.2094,2.25 L 14.2034,2.25 L 14.1975,2.25 L 14.1915,2.25 L 14.1855,2.25 L 14.1795,2.25 L 14.1735,2.25 L 14.1676,2.25 L 14.1616,2.25 L 14.1556,2.25 L 14.1496,2.25 L 14.1437,2.25 L 14.1377,2.25 L 14.1317,2.25 L 14.1257,2.25 L 14.1198,2.25 L 14.1138,2.25 L 14.1078,2.25 L 14.1018,2.25 L 14.0959,2.25 L 14.0899,2.25 L 14.0839,2.25 L 14.0779,2.25 L 14.072,2.25 L 14.066,2.25 L 14.06,2.25 L 14.054,2.25 L 14.048,2.25 L 14.0421,2.25 L 14.0361,2.25 L 14.0301,2.25 L 14.0241,2.25 L 14.0182,2.25 L 14.0122,2.25 L 14.0062,2.25 L 14.0002,2.25 L 13.9943,2.25 L 13.9883,2.25 L 13.9823,2.25 L 13.9763,2.25 L 13.9704,2.25 L 13.9644,2.25 L 13.9584,2.25 L 13.9524,2.25 L 13.9465,2.25 L 13.9405,2.25 L 13.9345,2.25 L 13.9285,2.25 L 13.9225,2.25 L 13.9166,2.25 L 13.9106,2.25 L 13.9046,2.25 L 13.8986,2.25 L 13.8927,2.25" />
      <path d="M 14.3223,2.25 L 14.3224,2.25 L 14.3225,2.25 L 14.3226,2.25 L 14.3227,2.25 L 14.3228,2.25 L 14.3229,2.25 L 14.323,2.25" />
      <path d="M 15.0921,-2.25 L 15.0922,-2.25 L 15.0923,-2.25 L 15.0924,-2.25 L 15.0925,-2.25 L 15.0926,-2.25 L 15.0927,-2.25 L 15.0928,-2.25 L 15.0929,-2.25 L 15.093,-2.25 L 15.0931,-2.25 L 15.0932,-2.25 L 15.0933,-2.25 L 15.0934,-2.25 L 15.0935,-2.25 L 15.0936,-2.25 L 15.0937,-2.25 L 15.0938,-2.25 L 15.0939,-2.25 L 15.094,-2.25 L 15.0941,-2.25 L 15.0942,-2.25 L 15.0943,-2.25 L 15.0944,-2.25 L 15.0945,-2.25 L 15.0946,-2.25" />
      <path d="M 14.323,-2.25 L 14.317,-2.25 L 14.311,-2.25 L 14.305,-2.25 L 14.299,-2.25 L 14.2931,-2.25 L 14.2871,-2.25 L 14.2811,-2.25 L 14.2751,-2.25 L 14.2692,-2.25 L 14.2632,-2.25 L 14.2572,-2.25 L 14.2512,-2.25 L 14.2453,-2.25 L 14.2393,-2.25 L 14.2333,-2.25 L 14.2273,-2.25 L 14.2214,-2.25 L 14.2154,-2.25 L 14.2094,-2.25 L 14.2034,-2.25 L 14.1975,-2.25 L 14.1915,-2.25 L 14.1855,-2.25 L 14.1795,-2.25 L 14.1735,-2.25 L 14.1676,-2.25 L 14.1616,-2.25 L 14.1556,-2.25 L 14.1496,-2.25 L 14.1437,-2.25 L 14.1377,-2.25 L 14.1317,-2.25 L 14.1257,-2.25 L 14.1198,-2.25 L 14.1138,-2.25 L 14.1078,-2.25 L 14.1018,-2.25 L 14.0959,-2.25 L 14.0899,-2.25 L 14.0839,-2.25 L 14.0779,-2.25 L 14.072,-2.25 L 14.066,-2.25 L 14.06,-2.25 L 14.054,-2.25 L 14.048,-2.25 L 14.0421,-2.25 L 14.0361,-2.25 L 14.0301,-2.25 L 14.0241,-2.25 L 14.0182,-2.25 L 14.0122,-2.25 L 14.0062,-2.25 L 14.0002,-2.25 L 13.9943,-2.25 L 13.9883,-2.25 L 13.9823,-2.25 L 13.9763,-2.25 L 13.9704,-2.25 L 13.9644,-2.25 L 13.9584,-2.25 L 13.9524,-2.25 L 13.9465,-2.25 L 13.9405,-2.25 L 13.9345,-2.25 L 13.9285,-2.25 L 13.9225,-2.25 L 13.9166,-2.25 L 13.9106,-2.25 L 13.9046,-2.25 L 13.8986,-2.25 L 13.8927,-2.25" />
      <path d="M 14.3223,-2.25 L 14.3224,-2.25 L 14.3225,-2.25 L 14.3226,-2.25 L 14.3227,-2.25 L 14.3228,-2.25 L 14.3229,-2.25 L 14.323,-2.25" />
      <path d="M -0.5079,-6.5 L -0.5078,-6.5 L -0.5077,-6.5 L -0.5076,-6.5 L -0.5075,-6.5 L -0.5074,-6.5 L -0.5073,-6.5" />
      <path d="M -0.5079,6.5 L -0.5078,6.5 L -0.5077,6.5 L -0.5076,6.5 L -0.5075,6.5 L -0.5074,6.5 L -0.5073,6.5" />
      <path d="M 24.0949,14.3215 L 24.0949,14.3322 L 24.0949,14.3429 L 24.0949,14.3536 L 24.0949,14.3643 L 24.0949,14.375 L 24.0949,14.3857 L 24.0949,14.3964 L 24.0949,14.4071 L 24.0949,14.4178 L 24.0949,14.4284 L 24.0949,14.4391 L 24.0949,14.4498 L 24.0949,14.4605 L 24.0949,14.4712 L 24.0949,14.4819 L 24.0949,14.4926 L 24.0949,14.5033 L 24.0949,14.514 L 24.0949,14.5247 L 24.0949,14.5354 L 24.0949,14.546 L 24.0949,14.5567 L 24.0949,14.5674 L 24.0949,14.5781 L 24.0949,14.5888 L 24.0949,14.5995 L 24.0949,14.6102 L 24.0949,14.6209 L 24.0949,14.6316 L 24.0949,14.6423 L 24.0949,14.6529 L 24.0949,14.6636 L 24.0949,14.6743 L 24.0949,14.685 L 24.0949,14.6957 L 24.0949,14.7064 L 24.0949,14.7171 L 24.0949,14.7278 L 24.0949,14.7385 L 24.0949,14.7492 L 24.0949,14.7599 L 24.0949,14.7705 L 24.0949,14.7812 L 24.0949,14.7919 L 24.0949,14.8026 L 24.0949,14.8133 L 24.0949,14.824 L 24.0949,14.8347 L 24.0949,14.8454 L 24.0949,14.8561 L 24.0949,14.8668 L 24.0949,14.8774 L 24.0949,14.8881 L 24.0949,14.8988 L 24.0949,14.9095 L 24.0949,14.9202 L 24.0949,14.9309 L 24.0949,14.9416 L 24.0949,14.9523 L 24.0949,14.963 L 24.0949,14.9737 L 24.0949,14.9843 L 24.0949,14.995 L 24.0949,15.0057 L 24.0949,15.0164 L 24.0949,15.0271 L 24.0949,15.0378 L 24.0949,15.0485 L 24.0949,15.0592 L 24.0949,15.0699 L 24.0949,15.0806 L 24.0949,15.0913" />
      <path d="M 24.0946,15.0935 L 24.0946,15.0934 L 24.0946,15.0933 L 24.0946,15.0932 L 24.0947,15.0931 L 24.0947,15.093 L 24.0947,15.0929 L 24.0947,15.0928 L 24.0947,15.0927 L 24.0947,15.0926 L 24.0947,15.0925 L 24.0948,15.0924 L 24.0948,15.0923 L 24.0948,15.0922 L 24.0948,15.0921 L 24.0948,15.092 L 24.0948,15.0919 L 24.0948,15.0918 L 24.0948,15.0917 L 24.0949,15.0917 L 24.0949,15.0916 L 24.0949,15.0915 L 24.0949,15.0914 L 24.0949,15.0913" />
      <path d="M 24.0949,15.0913 L 24.0255,15.0913 L 23.956,15.0913 L 23.8866,15.0913 L 23.8171,15.0913 L 23.7477,15.0913 L 23.6783,15.0913 L 23.6088,15.0913 L 23.5394,15.0913 L 23.4699,15.0913 L 23.4005,15.0913 L 23.331,15.0913 L 23.2616,15.0913 L 23.1921,15.0913 L 23.1227,15.0913 L 23.0533,15.0913 L 22.9838,15.0913 L 22.9144,15.0913 L 22.8449,15.0913 L 22.7755,15.0913 L 22.706,15.0913 L 22.6366,15.0913 L 22.5671,15.0913 L 22.4977,15.0913 L 22.4283,15.0913 L 22.3588,15.0913 L 22.2894,15.0913 L 22.2199,15.0913 L 22.1505,15.0913 L 22.081,15.0913 L 22.0116,15.0913 L 21.9421,15.0913 L 21.8727,15.0913 L 21.8033,15.0913 L 21.7338,15.0913 L 21.6644,15.0913 L 21.5949,15.0913 L 21.5255,15.0913 L 21.456,15.0913 L 21.3866,15.0913 L 21.3171,15.0913 L 21.2477,15.0913 L 21.1783,15.0913 L 21.1088,15.0913 L 21.0394,15.0913 L 20.9699,15.0913 L 20.9005,15.0913 L 20.831,15.0913 L 20.7616,15.0913 L 20.6921,15.0913 L 20.6227,15.0913 L 20.5533,15.0913 L 20.4838,15.0913 L 20.4144,15.0913 L 20.3449,15.0913 L 20.2755,15.0913 L 20.206,15.0913 L 20.1366,15.0913 L 20.0671,15.0913 L 19.9977,15.0913 L 19.9283,15.0913 L 19.8588,15.0913 L 19.7894,15.0913 L 19.7199,15.0913 L 19.6505,15.0913 L 19.581,15.0913 L 19.5116,15.0913 L 19.4421,15.0913 L 19.3727,15.0913 L 19.3033,15.0913 L 19.2338,15.0913 L 19.1644,15.0913 L 19.0949,15.0913" />
      <path d="M 19.0949,13.8913 L 19.0949,13.9079 L 19.0949,13.9246 L 19.0949,13.9413 L 19.0949,13.9579 L 19.0949,13.9746 L 19.0949,13.9913 L 19.0949,14.0079 L 19.0949,14.0246 L 19.0949,14.0413 L 19.0949,14.0579 L 19.0949,14.0746 L 19.0949,14.0913 L 19.0949,14.1079 L 19.0949,14.1246 L 19.0949,14.1413 L 19.0949,14.1579 L 19.0949,14.1746 L 19.0949,14.1913 L 19.0949,14.2079 L 19.0949,14.2246 L 19.0949,14.2413 L 19.0949,14.2579 L 19.0949,14.2746 L 19.0949,14.2913 L 19.0949,14.3079 L 19.0949,14.3246 L 19.0949,14.3413 L 19.0949,14.3579 L 19.0949,14.3746 L 19.0949,14.3913 L 19.0949,14.4079 L 19.0949,14.4246 L 19.0949,14.4413 L 19.0949,14.4579 L 19.0949,14.4746 L 19.0949,14.4913 L 19.0949,14.5079 L 19.0949,14.5246 L 19.0949,14.5413 L 19.0949,14.5579 L 19.0949,14.5746 L 19.0949,14.5913 L 19.0949,14.6079 L 19.0949,14.6246 L 19.0949,14.6413 L 19.0949,14.6579 L 19.0949,14.6746 L 19.0949,14.6913 L 19.0949,14.7079 L 19.0949,14.7246 L 19.0949,14.7413 L 19.0949,14.7579 L 19.0949,14.7746 L 19.0949,14.7913 L 19.0949,14.8079 L 19.0949,14.8246 L 19.0949,14.8413 L 19.0949,14.8579 L 19.0949,14.8746 L 19.0949,14.8913 L 19.0949,14.9079 L 19.0949,14.9246 L 19.0949,14.9413 L 19.0949,14.9579 L 19.0949,14.9746 L 19.0949,14.9913 L 19.0949,15.0079 L 19.0949,15.0246 L 19.0949,15.0413 L 19.0949,15.0579 L 19.0949,15.0746 L 19.0949,15.0913" />
      <path d="M 22.8949,13.8913 L 22.8948,13.8913 L 22.8947,13.8913 L 22.8946,13.8913 L 22.8945,13.8913" />
      <path d="M 22.8949,14.3215 L 22.8949,14.3156 L 22.8949,14.3096 L 22.8949,14.3036 L 22.8949,14.2976 L 22.8949,14.2917 L 22.8949,14.2857 L 22.8949,14.2797 L 22.8949,14.2737 L 22.8949,14.2678 L 22.8949,14.2618 L 22.8949,14.2558 L 22.8949,14.2498 L 22.8949,14.2439 L 22.8949,14.2379 L 22.8949,14.2319 L 22.8949,14.2259 L 22.8949,14.2199 L 22.8949,14.214 L 22.8949,14.208 L 22.8949,14.202 L 22.8949,14.196 L 22.8949,14.1901 L 22.8949,14.1841 L 22.8949,14.1781 L 22.8949,14.1721 L 22.8949,14.1662 L 22.8949,14.1602 L 22.8949,14.1542 L 22.8949,14.1482 L 22.8949,14.1423 L 22.8949,14.1363 L 22.8949,14.1303 L 22.8949,14.1243 L 22.8949,14.1184 L 22.8949,14.1124 L 22.8949,14.1064 L 22.8949,14.1004 L 22.8949,14.0944 L 22.8949,14.0885 L 22.8949,14.0825 L 22.8949,14.0765 L 22.8949,14.0705 L 22.8949,14.0646 L 22.8949,14.0586 L 22.8949,14.0526 L 22.8949,14.0466 L 22.8949,14.0407 L 22.8949,14.0347 L 22.8949,14.0287 L 22.8949,14.0227 L 22.8949,14.0168 L 22.8949,14.0108 L 22.8949,14.0048 L 22.8949,13.9988 L 22.8949,13.9929 L 22.8949,13.9869 L 22.8949,13.9809 L 22.8949,13.9749 L 22.8949,13.9689 L 22.8949,13.963 L 22.8949,13.957 L 22.8949,13.951 L 22.8949,13.945 L 22.8949,13.9391 L 22.8949,13.9331 L 22.8949,13.9271 L 22.8949,13.9211 L 22.8949,13.9152 L 22.8949,13.9092 L 22.8949,13.9032 L 22.8949,13.8972 L 22.8949,13.8913" />
      <path d="M 24.0946,14.3215 L 24.0779,14.3215 L 24.0613,14.3215 L 24.0446,14.3215 L 24.0279,14.3215 L 24.0113,14.3215 L 23.9946,14.3215 L 23.978,14.3215 L 23.9613,14.3215 L 23.9446,14.3215 L 23.928,14.3215 L 23.9113,14.3215 L 23.8946,14.3215 L 23.878,14.3215 L 23.8613,14.3215 L 23.8447,14.3215 L 23.828,14.3215 L 23.8113,14.3215 L 23.7947,14.3215 L 23.778,14.3215 L 23.7613,14.3215 L 23.7447,14.3215 L 23.728,14.3215 L 23.7114,14.3215 L 23.6947,14.3215 L 23.678,14.3215 L 23.6614,14.3215 L 23.6447,14.3215 L 23.6281,14.3215 L 23.6114,14.3215 L 23.5947,14.3215 L 23.5781,14.3215 L 23.5614,14.3215 L 23.5447,14.3215 L 23.5281,14.3215 L 23.5114,14.3215 L 23.4948,14.3215 L 23.4781,14.3215 L 23.4614,14.3215 L 23.4448,14.3215 L 23.4281,14.3215 L 23.4114,14.3215 L 23.3948,14.3215 L 23.3781,14.3215 L 23.3615,14.3215 L 23.3448,14.3215 L 23.3281,14.3215 L 23.3115,14.3215 L 23.2948,14.3215 L 23.2781,14.3215 L 23.2615,14.3215 L 23.2448,14.3215 L 23.2282,14.3215 L 23.2115,14.3215 L 23.1948,14.3215 L 23.1782,14.3215 L 23.1615,14.3215 L 23.1448,14.3215 L 23.1282,14.3215 L 23.1115,14.3215 L 23.0949,14.3215 L 23.0782,14.3215 L 23.0615,14.3215 L 23.0449,14.3215 L 23.0282,14.3215 L 23.0116,14.3215 L 22.9949,14.3215 L 22.9782,14.3215 L 22.9616,14.3215 L 22.9449,14.3215 L 22.9282,14.3215 L 22.9116,14.3215 L 22.8949,14.3215" />
      <path d="M 19.0946,15.0935 L 19.0946,15.0934 L 19.0946,15.0933 L 19.0946,15.0932 L 19.0947,15.0931 L 19.0947,15.093 L 19.0947,15.0929 L 19.0947,15.0928 L 19.0947,15.0927 L 19.0947,15.0926 L 19.0947,15.0925 L 19.0948,15.0924 L 19.0948,15.0923 L 19.0948,15.0922 L 19.0948,15.0921 L 19.0948,15.092 L 19.0948,15.0919 L 19.0948,15.0918 L 19.0948,15.0917 L 19.0949,15.0917 L 19.0949,15.0916 L 19.0949,15.0915 L 19.0949,15.0914 L 19.0949,15.0913" />
      <line x1="22.8946" y1="13.8935" x2="22.8945" y2="13.8935" />
      <path d="M 22.8946,14.3238 L 22.8946,14.3179 L 22.8946,14.3119 L 22.8946,14.3059 L 22.8946,14.2999 L 22.8946,14.2939 L 22.8946,14.288 L 22.8946,14.282 L 22.8946,14.276 L 22.8946,14.27 L 22.8946,14.2641 L 22.8946,14.2581 L 22.8946,14.2521 L 22.8946,14.2461 L 22.8946,14.2402 L 22.8946,14.2342 L 22.8946,14.2282 L 22.8946,14.2222 L 22.8946,14.2163 L 22.8946,14.2103 L 22.8946,14.2043 L 22.8946,14.1983 L 22.8946,14.1924 L 22.8946,14.1864 L 22.8946,14.1804 L 22.8946,14.1744 L 22.8946,14.1684 L 22.8946,14.1625 L 22.8946,14.1565 L 22.8946,14.1505 L 22.8946,14.1445 L 22.8946,14.1386 L 22.8946,14.1326 L 22.8946,14.1266 L 22.8946,14.1206 L 22.8946,14.1147 L 22.8946,14.1087 L 22.8946,14.1027 L 22.8946,14.0967 L 22.8946,14.0908 L 22.8946,14.0848 L 22.8946,14.0788 L 22.8946,14.0728 L 22.8946,14.0668 L 22.8946,14.0609 L 22.8946,14.0549 L 22.8946,14.0489 L 22.8946,14.0429 L 22.8946,14.037 L 22.8946,14.031 L 22.8946,14.025 L 22.8946,14.019 L 22.8946,14.0131 L 22.8946,14.0071 L 22.8946,14.0011 L 22.8946,13.9951 L 22.8946,13.9892 L 22.8946,13.9832 L 22.8946,13.9772 L 22.8946,13.9712 L 22.8946,13.9653 L 22.8946,13.9593 L 22.8946,13.9533 L 22.8946,13.9473 L 22.8946,13.9413 L 22.8946,13.9354 L 22.8946,13.9294 L 22.8946,13.9234 L 22.8946,13.9174 L 22.8946,13.9115 L 22.8946,13.9055 L 22.8946,13.8995 L 22.8946,13.8935" />
      <path d="M 22.8949,14.3215 L 22.8951,13.9073 L 22.8951,13.493 L 22.8952,13.0787 L 22.8953,12.6644 L 22.8953,12.2501 L 22.8954,11.8358 L 22.8954,11.4215 L 22.8954,11.0072 L 22.8955,10.5929 L 22.8955,10.1786 L 22.8955,9.7643 L 22.8956,9.35 L 22.8956,8.9357 L 22.8956,8.5214 L 22.8956,8.1071 L 22.8957,7.6928 L 22.8957,7.2786 L 22.8957,6.8643 L 22.8957,6.45 L 22.8957,6.0357 L 22.8957,5.6214 L 22.8958,5.2071 L 22.8958,4.7928 L 22.8958,4.3785 L 22.8958,3.9642 L 22.8958,3.5499 L 22.8958,3.1356 L 22.8958,2.7213 L 22.8958,2.307 L 22.8958,1.8927 L 22.8958,1.4784 L 22.8958,1.0641 L 22.8958,0.6499 L 22.8958,0.2356 L 22.8958,-0.1787 L 22.8958,-0.593 L 22.8958,-1.0073 L 22.8958,-1.4216 L 22.8958,-1.8359 L 22.8958,-2.2502 L 22.8958,-2.6645 L 22.8958,-3.0788 L 22.8958,-3.4931 L 22.8958,-3.9074 L 22.8958,-4.3217 L 22.8958,-4.736 L 22.8958,-5.1503 L 22.8958,-5.5646 L 22.8958,-5.9788 L 22.8957,-6.3931 L 22.8957,-6.8074 L 22.8957,-7.2217 L 22.8957,-7.636 L 22.8957,-8.0503 L 22.8957,-8.4646 L 22.8957,-8.8789 L 22.8956,-9.2932 L 22.8956,-9.7075 L 22.8956,-10.1218 L 22.8956,-10.5361 L 22.8955,-10.9504 L 22.8955,-11.3647 L 22.8955,-11.779 L 22.8954,-12.1933 L 22.8954,-12.6075 L 22.8954,-13.0218 L 22.8953,-13.4361 L 22.8952,-13.8504 L 22.8952,-14.2647 L 22.8951,-14.679 L 22.895,-15.0933 L 22.8948,-15.5076" />
      <path d="M 22.8948,5.9924 L 22.8949,5.8118 L 22.8949,5.6313 L 22.8949,5.4507 L 22.895,5.2702 L 22.895,5.0896 L 22.895,4.9091 L 22.895,4.7285 L 22.895,4.548 L 22.8951,4.3674 L 22.8951,4.1868 L 22.8951,4.0063 L 22.8951,3.8257 L 22.8951,3.6452 L 22.8951,3.4646 L 22.8951,3.2841 L 22.8951,3.1035 L 22.8952,2.923 L 22.8952,2.7424 L 22.8952,2.5618 L 22.8952,2.3813 L 22.8952,2.2007 L 22.8952,2.0202 L 22.8952,1.8396 L 22.8952,1.6591 L 22.8952,1.4785 L 22.8952,1.298 L 22.8952,1.1174 L 22.8952,0.9368 L 22.8952,0.7563 L 22.8952,0.5757 L 22.8952,0.3952 L 22.8952,0.2146 L 22.8952,0.0341 L 22.8952,-0.1465 L 22.8952,-0.327 L 22.8952,-0.5076 L 22.8952,-0.6882 L 22.8952,-0.8687 L 22.8952,-1.0493 L 22.8952,-1.2298 L 22.8952,-1.4104 L 22.8952,-1.5909 L 22.8952,-1.7715 L 22.8952,-1.952 L 22.8952,-2.1326 L 22.8952,-2.3132 L 22.8952,-2.4937 L 22.8952,-2.6743 L 22.8952,-2.8548 L 22.8952,-3.0354 L 22.8952,-3.2159 L 22.8952,-3.3965 L 22.8952,-3.577 L 22.8952,-3.7576 L 22.8952,-3.9382 L 22.8951,-4.1187 L 22.8951,-4.2993 L 22.8951,-4.4798 L 22.8951,-4.6604 L 22.8951,-4.8409 L 22.8951,-5.0215 L 22.8951,-5.202 L 22.8951,-5.3826 L 22.895,-5.5632 L 22.895,-5.7437 L 22.895,-5.9243 L 22.895,-6.1048 L 22.895,-6.2854 L 22.8949,-6.4659 L 22.8949,-6.6465 L 22.8949,-6.827 L 22.8948,-7.0076" />
      <path d="M 22.8948,-7.0076 L 22.8946,-6.827 L 22.8946,-6.6465 L 22.8946,-6.4659 L 22.8945,-6.2854 L 22.8945,-6.1048 L 22.8945,-5.9243 L 22.8945,-5.7437 L 22.8945,-5.5632 L 22.8944,-5.3826 L 22.8944,-5.202 L 22.8944,-5.0215 L 22.8944,-4.8409 L 22.8944,-4.6604 L 22.8944,-4.4798 L 22.8944,-4.2993 L 22.8944,-4.1187 L 22.8944,-3.9382 L 22.8944,-3.7576 L 22.8943,-3.577 L 22.8943,-3.3965 L 22.8943,-3.2159 L 22.8943,-3.0354 L 22.8943,-2.8548 L 22.8943,-2.6743 L 22.8943,-2.4937 L 22.8943,-2.3132 L 22.8943,-2.1326 L 22.8943,-1.952 L 22.8943,-1.7715 L 22.8943,-1.5909 L 22.8943,-1.4104 L 22.8943,-1.2298 L 22.8943,-1.0493 L 22.8943,-0.8687 L 22.8943,-0.6882 L 22.8943,-0.5076 L 22.8943,-0.327 L 22.8943,-0.1465 L 22.8943,0.0341 L 22.8943,0.2146 L 22.8943,0.3952 L 22.8943,0.5757 L 22.8943,0.7563 L 22.8943,0.9368 L 22.8943,1.1174 L 22.8943,1.298 L 22.8943,1.4785 L 22.8943,1.6591 L 22.8943,1.8396 L 22.8943,2.0202 L 22.8943,2.2007 L 22.8943,2.3813 L 22.8943,2.5618 L 22.8944,2.7424 L 22.8944,2.923 L 22.8944,3.1035 L 22.8944,3.2841 L 22.8944,3.4646 L 22.8944,3.6452 L 22.8944,3.8257 L 22.8944,4.0063 L 22.8944,4.1868 L 22.8944,4.3674 L 22.8945,4.548 L 22.8945,4.7285 L 22.8945,4.9091 L 22.8945,5.0896 L 22.8945,5.2702 L 22.8946,5.4507 L 22.8946,5.6313 L 22.8946,5.8118 L 22.8948,5.9924" />
      <path d="M 22.8946,13.8935 L 22.8946,13.8934 L 22.8946,13.8933 L 22.8946,13.8932 L 22.8947,13.8931 L 22.8947,13.893 L 22.8947,13.8929 L 22.8947,13.8928 L 22.8947,13.8927 L 22.8947,13.8926 L 22.8947,13.8925 L 22.8948,13.8924 L 22.8948,13.8923 L 22.8948,13.8922 L 22.8948,13.8921 L 22.8948,13.892 L 22.8948,13.8919 L 22.8948,13.8918 L 22.8948,13.8917 L 22.8949,13.8917 L 22.8949,13.8916 L 22.8949,13.8915 L 22.8949,13.8914 L 22.8949,13.8913" />
      <path d="M 24.0938,5.9924 L 24.0771,5.9924 L 24.0605,5.9924 L 24.0438,5.9924 L 24.0272,5.9924 L 24.0105,5.9924 L 23.9939,5.9924 L 23.9772,5.9924 L 23.9606,5.9924 L 23.9439,5.9924 L 23.9273,5.9924 L 23.9106,5.9924 L 23.8939,5.9924 L 23.8773,5.9924 L 23.8606,5.9924 L 23.844,5.9924 L 23.8273,5.9924 L 23.8107,5.9924 L 23.794,5.9924 L 23.7774,5.9924 L 23.7607,5.9924 L 23.7441,5.9924 L 23.7274,5.9924 L 23.7108,5.9924 L 23.6941,5.9924 L 23.6775,5.9924 L 23.6608,5.9924 L 23.6441,5.9924 L 23.6275,5.9924 L 23.6108,5.9924 L 23.5942,5.9924 L 23.5775,5.9924 L 23.5609,5.9924 L 23.5442,5.9924 L 23.5276,5.9924 L 23.5109,5.9924 L 23.4943,5.9924 L 23.4776,5.9924 L 23.461,5.9924 L 23.4443,5.9924 L 23.4277,5.9924 L 23.411,5.9924 L 23.3943,5.9924 L 23.3777,5.9924 L 23.361,5.9924 L 23.3444,5.9924 L 23.3277,5.9924 L 23.3111,5.9924 L 23.2944,5.9924 L 23.2778,5.9924 L 23.2611,5.9924 L 23.2445,5.9924 L 23.2278,5.9924 L 23.2112,5.9924 L 23.1945,5.9924 L 23.1779,5.9924 L 23.1612,5.9924 L 23.1446,5.9924 L 23.1279,5.9924 L 23.1112,5.9924 L 23.0946,5.9924 L 23.0779,5.9924 L 23.0613,5.9924 L 23.0446,5.9924 L 23.028,5.9924 L 23.0113,5.9924 L 22.9947,5.9924 L 22.978,5.9924 L 22.9614,5.9924 L 22.9447,5.9924 L 22.9281,5.9924 L 22.9114,5.9924 L 22.8948,5.9924" />
      <path d="M 24.0938,-7.0076 L 24.0771,-7.0076 L 24.0605,-7.0076 L 24.0438,-7.0076 L 24.0272,-7.0076 L 24.0105,-7.0076 L 23.9939,-7.0076 L 23.9772,-7.0076 L 23.9606,-7.0076 L 23.9439,-7.0076 L 23.9273,-7.0076 L 23.9106,-7.0076 L 23.8939,-7.0076 L 23.8773,-7.0076 L 23.8606,-7.0076 L 23.844,-7.0076 L 23.8273,-7.0076 L 23.8107,-7.0076 L 23.794,-7.0076 L 23.7774,-7.0076 L 23.7607,-7.0076 L 23.7441,-7.0076 L 23.7274,-7.0076 L 23.7108,-7.0076 L 23.6941,-7.0076 L 23.6775,-7.0076 L 23.6608,-7.0076 L 23.6441,-7.0076 L 23.6275,-7.0076 L 23.6108,-7.0076 L 23.5942,-7.0076 L 23.5775,-7.0076 L 23.5609,-7.0076 L 23.5442,-7.0076 L 23.5276,-7.0076 L 23.5109,-7.0076 L 23.4943,-7.0076 L 23.4776,-7.0076 L 23.461,-7.0076 L 23.4443,-7.0076 L 23.4277,-7.0076 L 23.411,-7.0076 L 23.3944,-7.0076 L 23.3777,-7.0076 L 23.361,-7.0076 L 23.3444,-7.0076 L 23.3277,-7.0076 L 23.3111,-7.0076 L 23.2944,-7.0076 L 23.2778,-7.0076 L 23.2611,-7.0076 L 23.2445,-7.0076 L 23.2278,-7.0076 L 23.2112,-7.0076 L 23.1945,-7.0076 L 23.1779,-7.0076 L 23.1612,-7.0076 L 23.1446,-7.0076 L 23.1279,-7.0076 L 23.1112,-7.0076 L 23.0946,-7.0076 L 23.0779,-7.0076 L 23.0613,-7.0076 L 23.0446,-7.0076 L 23.028,-7.0076 L 23.0113,-7.0076 L 22.9947,-7.0076 L 22.978,-7.0076 L 22.9614,-7.0076 L 22.9447,-7.0076 L 22.9281,-7.0076 L 22.9114,-7.0076 L 22.8948,-7.0076" />
    </g>
  </g>
</svg>