<?xml version='1.0' encoding='utf-8'?>
<svg width="44.6858mm" height="35.6007mm" viewBox="-18.386 -17.2 44.6858 35.6007" version="1.1" xmlns="http://www.w3.org/2000/svg">
  <g transform="scale(1,-1)" stroke-linecap="round">
    <g fill="none" stroke="rgb(0,0,0)" stroke-width="0.4" id="Visible">
      <path d="M -16.186,-15.0 L -16.186,-14.5833 L -16.186,-14.1667 L -16.186,-13.75 L -16.186,-13.3333 L -16.186,-12.9167 L -16.186,-12.5 L -16.186,-12.0833 L -16.186,-11.6667 L -16.186,-11.25 L -16.186,-10.8333 L -16.186,-10.4167 L -16.186,-10.0 L -16.186,-9.5833 L -16.186,-9.1667 L -16.186,-8.75 L -16.186,-8.3333 L -16.186,-7.9167 L -16.186,-7.5 L -16.186,-7.0833 L -16.186,-6.6667 L -16.186,-6.25 L -16.186,-5.8333 L -16.186,-5.4167 L -16.186,-5.0 L -16.186,-4.5833 L -16.186,-4.1667 L -16.186,-3.75 L -16.186,-3.3333 L -16.186,-2.9167 L -16.186,-2.5 L -16.186,-2.0833 L -16.186,-1.6667 L -16.186,-1.25 L -16.186,-0.8333 L -16.186,-0.4167 L -16.186,0.0 L -16.186,0.4167 L -16.186,0.8333 L -16.186,1.25 L -16.186,1.6667 L -16.186,2.0833 L -16.186,2.5 L -16.186,2.9167 L -16.186,3.3333 L -16.186,3.75 L -16.186,4.1667 L -16.186,4.5833 L -16.186,5.0 L -16.186,5.4167 L -16.186,5.8333 L -16.186,6.25 L -16.186,6.6667 L -16.186,7.0833 L -16.186,7.5 L -16.186,7.9167 L -16.186,8.3333 L -16.186,8.75 L -16.186,9.1667 L -16.186,9.5833 L -16.186,10.0 L -16.186,10.4167 L -16.186,10.8333 L -16.186,11.25 L -16.186,11.6667 L -16.186,12.0833 L -16.186,12.5 L -16.186,12.9167 L -16.186,13.3333 L -16.186,13.75 L -16.186,14.1667 L -16.186,14.5833 L -16.186,15.0" />
      <path d="M 5.564,0.0 L 5.5624,0.1472 L 5.5575,0.2943 L 5.5495,0.4413 L 5.5383,0.5881 L 5.5239,0.7346 L 5.5062,0.8808 L 5.4854,1.0265 L 5.4615,1.1718 L 5.4343,1.3165 L 5.4041,1.4606 L 5.3706,1.6039 L 5.3341,1.7465 L 5.2945,1.8883 L 5.2517,2.0292 L 5.2059,2.1691 L 5.1571,2.308 L 5.1053,2.4458 L 5.0504,2.5824 L 4.9926,2.7178 L 4.9319,2.8519 L 4.8682,2.9846 L 4.8017,3.116 L 4.7323,3.2458 L 4.6601,3.3741 L 4.5852,3.5008 L 4.5074,3.6258 L 4.427,3.7491 L 4.3439,3.8707 L 4.2582,3.9903 L 4.1699,4.1081 L 4.079,4.224 L 3.9856,4.3378 L 3.8898,4.4495 L 3.7916,4.5592 L 3.6909,4.6666 L 3.588,4.7719 L 3.4828,4.8749 L 3.3754,4.9755 L 3.2658,5.0738 L 3.1541,5.1697 L 3.0403,5.2631 L 2.9245,5.354 L 2.8068,5.4424 L 2.6871,5.5282 L 2.5657,5.6114 L 2.4424,5.6918 L 2.3174,5.7696 L 2.1907,5.8447 L 2.0625,5.9169 L 1.9326,5.9863 L 1.8014,6.0529 L 1.6686,6.1166 L 1.5346,6.1774 L 1.3992,6.2353 L 1.2626,6.2902 L 1.1248,6.3421 L 0.986,6.391 L 0.8461,6.4368 L 0.7052,6.4796 L 0.5635,6.5193 L 0.4209,6.5559 L 0.2775,6.5894 L 0.1334,6.6198 L -0.0112,6.647 L -0.1565,6.671 L -0.3022,6.6919 L -0.4484,6.7096 L -0.5949,6.7241 L -0.7416,6.7354 L -0.8886,6.7434 L -1.0358,6.7483 L -1.183,6.75" />
      <path d="M -1.183,-6.75 L -1.0358,-6.7483 L -0.8886,-6.7434 L -0.7416,-6.7354 L -0.5949,-6.7241 L -0.4484,-6.7096 L -0.3022,-6.6919 L -0.1565,-6.671 L -0.0112,-6.647 L 0.1334,-6.6198 L 0.2775,-6.5894 L 0.4209,-6.5559 L 0.5635,-6.5193 L 0.7052,-6.4796 L 0.8461,-6.4368 L 0.986,-6.391 L 1.1248,-6.3421 L 1.2626,-6.2902 L 1.3992,-6.2353 L 1.5346,-6.1774 L 1.6686,-6.1166 L 1.8014,-6.0529 L 1.9326,-5.9863 L 2.0625,-5.9169 L 2.1907,-5.8447 L 2.3174,-5.7696 L 2.4424,-5.6918 L 2.5657,-5.6114 L 2.6871,-5.5282 L 2.8068,-5.4424 L 2.9245,-5.354 L 3.0403,-5.2631 L 3.1541,-5.1697 L 3.2658,-5.0738 L 3.3754,-4.9755 L 3.4828,-4.8749 L 3.588,-4.7719 L 3.6909,-4.6666 L 3.7916,-4.5592 L 3.8898,-4.4495 L 3.9856,-4.3378 L 4.079,-4.224 L 4.1699,-4.1081 L 4.2582,-3.9903 L 4.3439,-3.8707 L 4.427,-3.7491 L 4.5074,-3.6258 L 4.5852,-3.5008 L 4.6601,-3.3741 L 4.7323,-3.2458 L 4.8017,-3.116 L 4.8682,-2.9846 L 4.9319,-2.8519 L 4.9926,-2.7178 L 5.0504,-2.5824 L 5.1053,-2.4458 L 5.1571,-2.308 L 5.2059,-2.1691 L 5.2517,-2.0292 L 5.2945,-1.8883 L 5.3341,-1.7465 L 5.3706,-1.6039 L 5.4041,-1.4606 L 5.4343,-1.3165 L 5.4615,-1.1718 L 5.4854,-1.0265 L 5.5062,-0.8808 L 5.5239,-0.7346 L 5.5383,-0.5881 L 5.5495,-0.4413 L 5.5575,-0.2943 L 5.5624,-0.1472 L 5.564,0.0" />
      <path d="M 13.8213,15.0 L 13.4046,15.0 L 12.9879,15.0 L 12.5712,15.0 L 12.1545,15.0 L 11.7378,15.0 L 11.3211,15.0 L 10.9044,15.0 L 10.4877,15.0 L 10.071,15.0 L 9.6543,15.0 L 9.2376,15.0 L 8.8209,15.0 L 8.4042,15.0 L 7.9875,15.0 L 7.5708,15.0 L 7.1541,15.0 L 6.7374,15.0 L 6.3207,15.0 L 5.904,15.0 L 5.4873,15.0 L 5.0706,15.0 L 4.6539,15.0 L 4.2372,15.0 L 3.8205,15.0 L 3.4038,15.0 L 2.9871,15.0 L 2.5704,15.0 L 2.1537,15.0 L 1.737,15.0 L 1.3203,15.0 L 0.9036,15.0 L 0.4869,15.0 L 0.0702,15.0 L -0.3465,15.0 L -0.7632,15.0 L -1.1799,15.0 L -1.5966,15.0 L -2.0133,15.0 L -2.43,15.0 L -2.8467,15.0 L -3.2634,15.0 L -3.6801,15.0 L -4.0968,15.0 L -4.5135,15.0 L -4.9302,15.0 L -5.3469,15.0 L -5.7636,15.0 L -6.1803,15.0 L -6.597,15.0 L -7.0137,15.0 L -7.4304,15.0 L -7.8471,15.0 L -8.2638,15.0 L -8.6805,15.0 L -9.0972,15.0 L -9.5139,15.0 L -9.9306,15.0 L -10.3473,15.0 L -10.764,15.0 L -11.1807,15.0 L -11.5974,15.0 L -12.0142,15.0 L -12.4309,15.0 L -12.8476,15.0 L -13.2643,15.0 L -13.681,15.0 L -14.0977,15.0 L -14.5144,15.0 L -14.9311,15.0 L -15.3478,15.0 L -15.7645,15.0 L -16.1812,15.0" />
      <path d="M -16.1812,15.0 L -16.1813,15.0 L -16.1814,15.0 L -16.1815,15.0 L -16.1816,15.0 L -16.1817,15.0 L -16.1818,15.0 L -16.1819,15.0 L -16.182,15.0 L -16.1821,15.0 L -16.1822,15.0 L -16.1823,15.0 L -16.1824,15.0 L -16.1825,15.0 L -16.1826,15.0 L -16.1827,15.0 L -16.1828,15.0 L -16.1829,15.0 L -16.183,15.0 L -16.1831,15.0 L -16.1832,15.0 L -16.1833,15.0 L -16.1834,15.0 L -16.1835,15.0 L -16.1836,15.0 L -16.1837,15.0 L -16.1838,15.0 L -16.1839,15.0 L -16.184,15.0 L -16.1841,15.0 L -16.1842,15.0 L -16.1843,15.0 L -16.1844,15.0 L -16.1845,15.0 L -16.1846,15.0 L -16.1847,15.0 L -16.1848,15.0 L -16.1849,15.0 L -16.185,15.0 L -16.1851,15.0 L -16.1852,15.0 L -16.1853,15.0 L -16.1854,15.0 L -16.1855,15.0 L -16.1856,15.0 L -16.1857,15.0 L -16.1858,15.0 L -16.1859,15.0 L -16.186,15.0" />
      <path d="M -16.1812,-15.0 L -16.1813,-15.0 L -16.1814,-15.0 L -16.1815,-15.0 L -16.1816,-15.0 L -16.1817,-15.0 L -16.1818,-15.0 L -16.1819,-15.0 L -16.182,-15.0 L -16.1821,-15.0 L -16.1822,-15.0 L -16.1823,-15.0 L -16.1824,-15.0 L -16.1825,-15.0 L -16.1826,-15.0 L -16.1827,-15.0 L -16.1828,-15.0 L -16.1829,-15.0 L -16.183,-15.0 L -16.1831,-15.0 L -16.1832,-15.0 L -16.1833,-15.0 L -16.1834,-15.0 L -16.1835,-15.0 L -16.1836,-15.0 L -16.1837,-15.0 L -16.1838,-15.0 L -16.1839,-15.0 L -16.184,-15.0 L -16.1841,-15.0 L -16.1842,-15.0 L -16.1843,-15.0 L -16.1844,-15.0 L -16.1845,-15.0 L -16.1846,-15.0 L -16.1847,-15.0 L -16.1848,-15.0 L -16.1849,-15.0 L -16.185,-15.0 L -16.1851,-15.0 L -16.1852,-15.0 L -16.1853,-15.0 L -16.1854,-15.0 L -16.1855,-15.0 L -16.1856,-15.0 L -16.1857,-15.0 L -16.1858,-15.0 L -16.1859,-15.0 L -16.186,-15.0" />
      <path d="M -16.1812,-15.0 L -16.1812,-14.5833 L -16.1812,-14.1667 L -16.1812,-13.75 L -16.1812,-13.3333 L -16.1812,-12.9167 L -16.1812,-12.5 L -16.1812,-12.0833 L -16.1812,-11.6667 L -16.1812,-11.25 L -16.1812,-10.8333 L -16.1812,-10.4167 L -16.1812,-10.0 L -16.1812,-9.5833 L -16.1812,-9.1667 L -16.1812,-8.75 L -16.1812,-8.3333 L -16.1812,-7.9167 L -16.1812,-7.5 L -16.1812,-7.0833 L -16.1812,-6.6667 L -16.1812,-6.25 L -16.1812,-5.8333 L -16.1812,-5.4167 L -16.1812,-5.0 L -16.1812,-4.5833 L -16.1812,-4.1667 L -16.1812,-3.75 L -16.1812,-3.3333 L -16.1812,-2.9167 L -16.1812,-2.5 L -16.1812,-2.0833 L -16.1812,-1.6667 L -16.1812,-1.25 L -16.1812,-0.8333 L -16.1812,-0.4167 L -16.1812,0.0 L -16.1812,0.4167 L -16.1812,0.8333 L -16.1812,1.25 L -16.1812,1.6667 L -16.1812,2.0833 L -16.1812,2.5 L -16.1812,2.9167 L -16.1812,3.3333 L -16.1812,3.75 L -16.1812,4.1667 L -16.1812,4.5833 L -16.1812,5.0 L -16.1812,5.4167 L -16.1812,5.8333 L -16.1812,6.25 L -16.1812,6.6667 L -16.1812,7.0833 L -16.1812,7.5 L -16.1812,7.9167 L -16.1812,8.3333 L -16.1812,8.75 L -16.1812,9.1667 L -16.1812,9.5833 L -16.1812,10.0 L -16.1812,10.4167 L -16.1812,10.8333 L -16.1812,11.25 L -16.1812,11.6667 L -16.1812,12.0833 L -16.1812,12.5 L -16.1812,12.9167 L -16.1812,13.3333 L -16.1812,13.75 L -16.1812,14.1667 L -16.1812,14.5833 L -16.1812,15.0" />
      <path d="M 13.8213,15.0 L 13.8213,14.5833 L 13.8213,14.1667 L 13.8213,13.75 L 13.8213,13.3333 L 13.8213,12.9167 L 13.8213,12.5 L 13.8213,12.0833 L 13.8213,11.6667 L 13.8213,11.25 L 13.8213,10.8333 L 13.8213,10.4167 L 13.8213,10.0 L 13.8213,9.5833 L 13.8213,9.1667 L 13.8213,8.75 L 13.8213,8.3333 L 13.8213,7.9167 L 13.8213,7.5 L 13.8213,7.0833 L 13.8213,6.6667 L 13.8213,6.25 L 13.8213,5.8333 L 13.8213,5.4167 L 13.8213,5.0 L 13.8213,4.5833 L 13.8213,4.1667 L 13.8213,3.75 L 13.8213,3.3333 L 13.8213,2.9167 L 13.8213,2.5 L 13.8213,2.0833 L 13.8213,1.6667 L 13.8213,1.25 L 13.8213,0.8333 L 13.8213,0.4167 L 13.8213,0.0 L 13.8213,-0.4167 L 13.8213,-0.8333 L 13.8213,-1.25 L 13.8213,-1.6667 L 13.8213,-2.0833 L 13.8213,-2.5 L 13.8213,-2.9167 L 13.8213,-3.3333 L 13.8213,-3.75 L 13.8213,-4.1667 L 13.8213,-4.5833 L 13.8213,-5.0 L 13.8213,-5.4167 L 13.8213,-5.8333 L 13.8213,-6.25 L 13.8213,-6.6667 L 13.8213,-7.0833 L 13.8213,-7.5 L 13.8213,-7.9167 L 13.8213,-8.3333 L 13.8213,-8.75 L 13.8213,-9.1667 L 13.8213,-9.5833 L 13.8213,-10.0 L 13.8213,-10.4167 L 13.8213,-10.8333 L 13.8213,-11.25 L 13.8213,-11.6667 L 13.8213,-12.0833 L 13.8213,-12.5 L 13.8213,-12.9167 L 13.8213,-13.3333 L 13.8213,-13.75 L 13.8213,-14.1667 L 13.8213,-14.5833 L 13.8213,-15.0" />
      <path d="M 13.8213,-15.0 L 13.4046,-15.0 L 12.9879,-15.0 L 12.5712,-15.0 L 12.1545,-15.0 L 11.7378,-15.0 L 11.3211,-15.0 L 10.9044,-15.0 L 10.4877,-15.0 L 10.071,-15.0 L 9.6543,-15.0 L 9.2376,-15.0 L 8.8209,-15.0 L 8.4042,-15.0 L 7.9875,-15.0 L 7.5708,-15.0 L 7.1541,-15.0 L 6.7374,-15.0 L 6.3207,-15.0 L 5.904,-15.0 L 5.4873,-15.0 L 5.0706,-15.0 L 4.6539,-15.0 L 4.2372,-15.0 L 3.8205,-15.0 L 3.4038,-15.0 L 2.9871,-15.0 L 2.5704,-15.0 L 2.1537,-15.0 L 1.737,-15.0 L 1.3203,-15.0 L 0.9036,-15.0 L 0.4869,-15.0 L 0.0702,-15.0 L -0.3465,-15.0 L -0.7632,-15.0 L -1.1799,-15.0 L -1.5966,-15.0 L -2.0133,-15.0 L -2.43,-15.0 L -2.8467,-15.0 L -3.2634,-15.0 L -3.6801,-15.0 L -4.0968,-15.0 L -4.5135,-15.0 L -4.9302,-15.0 L -5.3469,-15.0 L -5.7636,-15.0 L -6.1803,-15.0 L -6.597,-15.0 L -7.0137,-15.0 L -7.4304,-15.0 L -7.8471,-15.0 L -8.2638,-15.0 L -8.6805,-15.0 L -9.0972,-15.0 L -9.5139,-15.0 L -9.9306,-15.0 L -10.3473,-15.0 L -10.764,-15.0 L -11.1807,-15.0 L -11.5974,-15.0 L -12.0142,-15.0 L -12.4309,-15.0 L -12.8476,-15.0 L -13.2643,-15.0 L -13.681,-15.0 L -14.0977,-15.0 L -14.5144,-15.0 L -14.9311,-15.0 L -15.3478,-15.0 L -15.7645,-15.0 L -16.1812,-15.0" />
      <path d="M 5.5706,0.0 L 5.5624,0.147 L 5.5541,0.2939 L 5.5459,0.4409 L 5.5376,0.5878 L 5.5294,0.7348 L 5.507,0.8802 L 5.4824,1.0253 L 5.4577,1.1704 L 5.4331,1.3155 L 5.4084,1.4606 L 5.3723,1.6031 L 5.3315,1.7445 L 5.2908,1.886 L 5.25,2.0274 L 5.2093,2.1689 L 5.1596,2.3072 L 5.1033,2.4432 L 5.0469,2.5791 L 4.9906,2.7151 L 4.9343,2.8511 L 4.8715,2.984 L 4.8003,3.1128 L 4.7291,3.2417 L 4.6579,3.3705 L 4.5867,3.4993 L 4.5115,3.6256 L 4.4263,3.7457 L 4.3412,3.8657 L 4.256,3.9857 L 4.1708,4.1058 L 4.0838,4.2243 L 3.9857,4.3341 L 3.8876,4.4438 L 3.7895,4.5536 L 3.6914,4.6633 L 3.5933,4.7731 L 3.4836,4.8711 L 3.3738,4.9692 L 3.2641,5.0673 L 3.1543,5.1654 L 3.0446,5.2634 L 2.926,5.3504 L 2.8059,5.4356 L 2.6859,5.5208 L 2.5658,5.606 L 2.4458,5.6911 L 2.3195,5.7663 L 2.1906,5.8375 L 2.0618,5.9087 L 1.933,5.9799 L 1.8041,6.0511 L 1.6712,6.1138 L 1.5352,6.1701 L 1.3992,6.2264 L 1.2633,6.2827 L 1.1273,6.3391 L 0.9889,6.3887 L 0.8475,6.4294 L 0.7061,6.4702 L 0.5646,6.5109 L 0.4232,6.5517 L 0.2807,6.5878 L 0.1356,6.6125 L -0.0095,6.6371 L -0.1546,6.6618 L -0.2998,6.6864 L -0.4451,6.7087 L -0.5921,6.717 L -0.739,6.7252 L -0.886,6.7335 L -1.033,6.7417 L -1.1799,6.75" />
      <path d="M -1.1799,6.75 L -1.472,6.7171 L -1.7641,6.6842 L -2.0561,6.6513 L -2.3482,6.6184 L -2.6403,6.5855 L -2.9198,6.4976 L -3.1972,6.4005 L -3.4747,6.3034 L -3.7521,6.2064 L -4.0295,6.1093 L -4.2866,5.9699 L -4.5354,5.8135 L -4.7843,5.6572 L -5.0332,5.5008 L -5.2821,5.3444 L -5.5075,5.1587 L -5.7153,4.9509 L -5.9232,4.7431 L -6.131,4.5352 L -6.3389,4.3274 L -6.5247,4.102 L -6.6811,3.8532 L -6.8374,3.6043 L -6.9938,3.3554 L -7.1502,3.1066 L -7.2897,2.8496 L -7.3867,2.5721 L -7.4838,2.2947 L -7.5809,2.0173 L -7.678,1.7399 L -7.7659,1.4604 L -7.7988,1.1683 L -7.8317,0.8762 L -7.8647,0.5841 L -7.8976,0.2921 L -7.9305,0.0 L -7.8976,-0.2921 L -7.8647,-0.5841 L -7.8317,-0.8762 L -7.7988,-1.1683 L -7.7659,-1.4604 L -7.678,-1.7399 L -7.5809,-2.0173 L -7.4838,-2.2947 L -7.3867,-2.5721 L -7.2897,-2.8496 L -7.1502,-3.1066 L -6.9938,-3.3554 L -6.8374,-3.6043 L -6.6811,-3.8532 L -6.5247,-4.102 L -6.3389,-4.3274 L -6.131,-4.5352 L -5.9232,-4.7431 L -5.7153,-4.9509 L -5.5075,-5.1587 L -5.2821,-5.3444 L -5.0332,-5.5008 L -4.7843,-5.6572 L -4.5354,-5.8135 L -4.2866,-5.9699 L -4.0295,-6.1093 L -3.7521,-6.2064 L -3.4747,-6.3034 L -3.1972,-6.4005 L -2.9198,-6.4976 L -2.6403,-6.5855 L -2.3482,-6.6184 L -2.0561,-6.6513 L -1.7641,-6.6842 L -1.472,-6.7171 L -1.1799,-6.75" />
      <path d="M -1.1799,-6.75 L -1.033,-6.7417 L -0.886,-6.7335 L -0.739,-6.7252 L -0.5921,-6.717 L -0.4451,-6.7087 L -0.2998,-6.6864 L -0.1546,-6.6618 L -0.0095,-6.6371 L 0.1356,-6.6125 L 0.2807,-6.5878 L 0.4232,-6.5517 L 0.5646,-6.5109 L 0.7061,-6.4702 L 0.8475,-6.4294 L 0.9889,-6.3887 L 1.1273,-6.3391 L 1.2633,-6.2827 L 1.3992,-6.2264 L 1.5352,-6.1701 L 1.6712,-6.1138 L 1.8041,-6.0511 L 1.933,-5.9799 L 2.0618,-5.9087 L 2.1906,-5.8375 L 2.3195,-5.7663 L 2.4458,-5.6911 L 2.5658,-5.606 L 2.6859,-5.5208 L 2.8059,-5.4356 L 2.926,-5.3504 L 3.0446,-5.2634 L 3.1543,-5.1654 L 3.2641,-5.0673 L 3.3738,-4.9692 L 3.4836,-4.8711 L 3.5933,-4.7731 L 3.6914,-4.6633 L 3.7895,-4.5536 L 3.8876,-4.4438 L 3.9857,-4.3341 L 4.0838,-4.2243 L 4.1708,-4.1058 L 4.256,-3.9857 L 4.3412,-3.8657 L 4.4263,-3.7457 L 4.5115,-3.6256 L 4.5867,-3.4993 L 4.6579,-3.3705 L 4.7291,-3.2417 L 4.8003,-3.1128 L 4.8715,-2.984 L 4.9343,-2.8511 L 4.9906,-2.7151 L 5.0469,-2.5791 L 5.1033,-2.4432 L 5.1596,-2.3072 L 5.2093,-2.1689 L 5.25,-2.0274 L 5.2908,-1.886 L 5.3315,-1.7445 L 5.3723,-1.6031 L 5.4084,-1.4606 L 5.4331,-1.3155 L 5.4577,-1.1704 L 5.4824,-1.0253 L 5.507,-0.8802 L 5.5294,-0.7348 L 5.5376,-0.5878 L 5.5459,-0.4409 L 5.5541,-0.2939 L 5.5624,-0.147 L 5.5706,0.0" />
      <path d="M 24.0998,-16.2007 L 24.0998,-15.784 L 24.0998,-15.3673 L 24.0998,-14.9507 L 24.0998,-14.534 L 24.0998,-14.1173 L 24.0998,-13.7007 L 24.0998,-13.284 L 24.0998,-12.8673 L 24.0998,-12.4507 L 24.0998,-12.034 L 24.0998,-11.6173 L 24.0998,-11.2007 L 24.0998,-10.784 L 24.0998,-10.3673 L 24.0998,-9.9507 L 24.0998,-9.534 L 24.0998,-9.1173 L 24.0998,-8.7007 L 24.0998,-8.284 L 24.0998,-7.8673 L 24.0998,-7.4507 L 24.0998,-7.034 L 24.0998,-6.6173 L 24.0998,-6.2007 L 24.0998,-5.784 L 24.0998,-5.3673 L 24.0998,-4.9507 L 24.0998,-4.534 L 24.0998,-4.1173 L 24.0998,-3.7007 L 24.0998,-3.284 L 24.0998,-2.8673 L 24.0998,-2.4507 L 24.0998,-2.034 L 24.0998,-1.6173 L 24.0998,-1.2007 L 24.0998,-0.784 L 24.0998,-0.3673 L 24.0998,0.0493 L 24.0998,0.466 L 24.0998,0.8827 L 24.0998,1.2993 L 24.0998,1.716 L 24.0998,2.1327 L 24.0998,2.5493 L 24.0998,2.966 L 24.0998,3.3827 L 24.0998,3.7993 L 24.0998,4.216 L 24.0998,4.6327 L 24.0998,5.0493 L 24.0998,5.466 L 24.0998,5.8827 L 24.0998,6.2993 L 24.0998,6.716 L 24.0998,7.1327 L 24.0998,7.5493 L 24.0998,7.966 L 24.0998,8.3827 L 24.0998,8.7993 L 24.0998,9.216 L 24.0998,9.6327 L 24.0998,10.0493 L 24.0998,10.466 L 24.0998,10.8827 L 24.0998,11.2993 L 24.0998,11.716 L 24.0998,12.1327 L 24.0998,12.5493 L 24.0998,12.966 L 24.0998,13.3827 L 24.0998,13.7993" />
      <path d="M 24.0213,-16.1652 L 24.0224,-16.1657 L 24.0235,-16.1662 L 24.0246,-16.1666 L 24.0256,-16.1671 L 24.0267,-16.1676 L 24.0278,-16.1681 L 24.0289,-16.1686 L 24.03,-16.1691 L 24.0311,-16.1696 L 24.0322,-16.1701 L 24.0333,-16.1706 L 24.0344,-16.1711 L 24.0355,-16.1716 L 24.0366,-16.1721 L 24.0376,-16.1726 L 24.0387,-16.1731 L 24.0398,-16.1735 L 24.0409,-16.174 L 24.042,-16.1745 L 24.0431,-16.175 L 24.0442,-16.1755 L 24.0453,-16.176 L 24.0464,-16.1765 L 24.0475,-16.177 L 24.0485,-16.1775 L 24.0496,-16.178 L 24.0507,-16.1785 L 24.0518,-16.179 L 24.0529,-16.1795 L 24.054,-16.18 L 24.0551,-16.1804 L 24.0562,-16.1809 L 24.0573,-16.1814 L 24.0584,-16.1819 L 24.0594,-16.1824 L 24.0605,-16.1829 L 24.0616,-16.1834 L 24.0627,-16.1839 L 24.0638,-16.1844 L 24.0649,-16.1849 L 24.066,-16.1854 L 24.0671,-16.1859 L 24.0682,-16.1864 L 24.0693,-16.1869 L 24.0703,-16.1873 L 24.0714,-16.1878 L 24.0725,-16.1883 L 24.0736,-16.1888 L 24.0747,-16.1893 L 24.0758,-16.1898 L 24.0769,-16.1903 L 24.078,-16.1908 L 24.0791,-16.1913 L 24.0802,-16.1918 L 24.0812,-16.1923 L 24.0823,-16.1928 L 24.0834,-16.1933 L 24.0845,-16.1938 L 24.0856,-16.1942 L 24.0867,-16.1947 L 24.0878,-16.1952 L 24.0889,-16.1957 L 24.09,-16.1962 L 24.0911,-16.1967 L 24.0921,-16.1972 L 24.0932,-16.1977 L 24.0943,-16.1982 L 24.0954,-16.1987 L 24.0965,-16.1992 L 24.0976,-16.1997 L 24.0987,-16.2002 L 24.0998,-16.2007" />
      <path d="M 24.0998,13.7993 L 24.0987,13.7998 L 24.0976,13.8003 L 24.0965,13.8008 L 24.0954,13.8013 L 24.0943,13.8018 L 24.0932,13.8023 L 24.0921,13.8028 L 24.0911,13.8033 L 24.09,13.8038 L 24.0889,13.8043 L 24.0878,13.8047 L 24.0867,13.8052 L 24.0856,13.8057 L 24.0845,13.8062 L 24.0834,13.8067 L 24.0823,13.8072 L 24.0812,13.8077 L 24.0802,13.8082 L 24.0791,13.8087 L 24.078,13.8092 L 24.0769,13.8097 L 24.0758,13.8102 L 24.0747,13.8107 L 24.0736,13.8112 L 24.0725,13.8116 L 24.0714,13.8121 L 24.0703,13.8126 L 24.0693,13.8131 L 24.0682,13.8136 L 24.0671,13.8141 L 24.066,13.8146 L 24.0649,13.8151 L 24.0638,13.8156 L 24.0627,13.8161 L 24.0616,13.8166 L 24.0605,13.8171 L 24.0594,13.8176 L 24.0584,13.8181 L 24.0573,13.8185 L 24.0562,13.819 L 24.0551,13.8195 L 24.054,13.82 L 24.0529,13.8205 L 24.0518,13.821 L 24.0507,13.8215 L 24.0496,13.822 L 24.0485,13.8225 L 24.0475,13.823 L 24.0464,13.8235 L 24.0453,13.824 L 24.0442,13.8245 L 24.0431,13.825 L 24.042,13.8254 L 24.0409,13.8259 L 24.0398,13.8264 L 24.0387,13.8269 L 24.0376,13.8274 L 24.0366,13.8279 L 24.0355,13.8284 L 24.0344,13.8289 L 24.0333,13.8294 L 24.0322,13.8299 L 24.0311,13.8304 L 24.03,13.8309 L 24.0289,13.8314 L 24.0278,13.8319 L 24.0267,13.8323 L 24.0256,13.8328 L 24.0246,13.8333 L 24.0235,13.8338 L 24.0224,13.8343 L 24.0213,13.8348" />
      <path d="M 24.0213,-16.1652 L 24.0213,-15.7485 L 24.0213,-15.3318 L 24.0213,-14.9152 L 24.0213,-14.4985 L 24.0213,-14.0818 L 24.0213,-13.6652 L 24.0213,-13.2485 L 24.0213,-12.8318 L 24.0213,-12.4152 L 24.0213,-11.9985 L 24.0213,-11.5818 L 24.0213,-11.1652 L 24.0213,-10.7485 L 24.0213,-10.3318 L 24.0213,-9.9152 L 24.0213,-9.4985 L 24.0213,-9.0818 L 24.0213,-8.6652 L 24.0213,-8.2485 L 24.0213,-7.8318 L 24.0213,-7.4152 L 24.0213,-6.9985 L 24.0213,-6.5818 L 24.0213,-6.1652 L 24.0213,-5.7485 L 24.0213,-5.3318 L 24.0213,-4.9152 L 24.0213,-4.4985 L 24.0213,-4.0818 L 24.0213,-3.6652 L 24.0213,-3.2485 L 24.0213,-2.8318 L 24.0213,-2.4152 L 24.0213,-1.9985 L 24.0213,-1.5818 L 24.0213,-1.1652 L 24.0213,-0.7485 L 24.0213,-0.3318 L 24.0213,0.0848 L 24.0213,0.5015 L 24.0213,0.9182 L 24.0213,1.3348 L 24.0213,1.7515 L 24.0213,2.1682 L 24.0213,2.5848 L 24.0213,3.0015 L 24.0213,3.4182 L 24.0213,3.8348 L 24.0213,4.2515 L 24.0213,4.6682 L 24.0213,5.0848 L 24.0213,5.5015 L 24.0213,5.9182 L 24.0213,6.3348 L 24.0213,6.7515 L 24.0213,7.1681 L 24.0213,7.5848 L 24.0213,8.0015 L 24.0213,8.4181 L 24.0213,8.8348 L 24.0213,9.2515 L 24.0213,9.6681 L 24.0213,10.0848 L 24.0213,10.5015 L 24.0213,10.9181 L 24.0213,11.3348 L 24.0213,11.7515 L 24.0213,12.1681 L 24.0213,12.5848 L 24.0213,13.0015 L 24.0213,13.4181 L 24.0213,13.8348" />
      <path d="M 24.0605,5.5671 L 24.0646,5.3797 L 24.0663,5.1922 L 24.0676,5.0047 L 24.0686,4.8172 L 24.0695,4.6297 L 24.0703,4.4422 L 24.071,4.2547 L 24.0716,4.0672 L 24.0722,3.8797 L 24.0727,3.6922 L 24.0732,3.5047 L 24.0737,3.3172 L 24.0741,3.1297 L 24.0745,2.9422 L 24.0749,2.7547 L 24.0752,2.5672 L 24.0755,2.3796 L 24.0758,2.1921 L 24.0761,2.0046 L 24.0763,1.8171 L 24.0766,1.6296 L 24.0768,1.4421 L 24.077,1.2546 L 24.0772,1.0671 L 24.0773,0.8796 L 24.0775,0.6921 L 24.0776,0.5046 L 24.0777,0.3171 L 24.0779,0.1296 L 24.0779,-0.0579 L 24.078,-0.2454 L 24.0781,-0.4329 L 24.0781,-0.6204 L 24.0782,-0.8079 L 24.0782,-0.9954 L 24.0782,-1.1829 L 24.0782,-1.3704 L 24.0782,-1.5579 L 24.0781,-1.7454 L 24.0781,-1.9329 L 24.078,-2.1204 L 24.078,-2.3079 L 24.0779,-2.4954 L 24.0778,-2.6829 L 24.0776,-2.8704 L 24.0775,-3.0579 L 24.0774,-3.2454 L 24.0772,-3.4329 L 24.077,-3.6205 L 24.0768,-3.808 L 24.0766,-3.9955 L 24.0764,-4.183 L 24.0761,-4.3705 L 24.0758,-4.558 L 24.0755,-4.7455 L 24.0752,-4.933 L 24.0749,-5.1205 L 24.0745,-5.308 L 24.0741,-5.4955 L 24.0737,-5.683 L 24.0733,-5.8705 L 24.0728,-6.058 L 24.0722,-6.2455 L 24.0717,-6.433 L 24.071,-6.6205 L 24.0703,-6.808 L 24.0695,-6.9955 L 24.0686,-7.183 L 24.0676,-7.3705 L 24.0664,-7.558 L 24.0647,-7.7455 L 24.0606,-7.9329" />
      <path d="M 24.0606,-7.9329 L 24.0564,-7.7455 L 24.0548,-7.558 L 24.0535,-7.3705 L 24.0525,-7.183 L 24.0516,-6.9955 L 24.0508,-6.808 L 24.0501,-6.6205 L 24.0495,-6.433 L 24.0489,-6.2455 L 24.0483,-6.058 L 24.0478,-5.8705 L 24.0474,-5.683 L 24.047,-5.4955 L 24.0466,-5.308 L 24.0462,-5.1205 L 24.0459,-4.933 L 24.0455,-4.7455 L 24.0453,-4.558 L 24.045,-4.3705 L 24.0447,-4.183 L 24.0445,-3.9955 L 24.0443,-3.808 L 24.0441,-3.6205 L 24.0439,-3.433 L 24.0437,-3.2455 L 24.0436,-3.058 L 24.0434,-2.8705 L 24.0433,-2.683 L 24.0432,-2.4955 L 24.0431,-2.308 L 24.043,-2.1205 L 24.043,-1.933 L 24.0429,-1.7454 L 24.0429,-1.5579 L 24.0429,-1.3704 L 24.0429,-1.1829 L 24.0429,-0.9954 L 24.0429,-0.8079 L 24.0429,-0.6204 L 24.043,-0.4329 L 24.043,-0.2454 L 24.0431,-0.0579 L 24.0432,0.1296 L 24.0433,0.3171 L 24.0434,0.5046 L 24.0436,0.6921 L 24.0437,0.8796 L 24.0439,1.0671 L 24.0441,1.2546 L 24.0443,1.4421 L 24.0445,1.6296 L 24.0447,1.8171 L 24.045,2.0046 L 24.0452,2.1921 L 24.0455,2.3796 L 24.0458,2.5671 L 24.0462,2.7546 L 24.0465,2.9421 L 24.0469,3.1296 L 24.0474,3.3171 L 24.0478,3.5046 L 24.0483,3.6921 L 24.0488,3.8796 L 24.0494,4.0671 L 24.0501,4.2546 L 24.0508,4.4421 L 24.0515,4.6297 L 24.0524,4.8172 L 24.0535,5.0047 L 24.0547,5.1922 L 24.0564,5.3796 L 24.0605,5.5671" />
      <path d="M 19.9998,-16.2007 L 20.0567,-16.2007 L 20.1137,-16.2007 L 20.1706,-16.2007 L 20.2276,-16.2007 L 20.2845,-16.2007 L 20.3415,-16.2007 L 20.3984,-16.2007 L 20.4553,-16.2007 L 20.5123,-16.2007 L 20.5692,-16.2007 L 20.6262,-16.2007 L 20.6831,-16.2007 L 20.7401,-16.2007 L 20.797,-16.2007 L 20.854,-16.2007 L 20.9109,-16.2007 L 20.9678,-16.2007 L 21.0248,-16.2007 L 21.0817,-16.2007 L 21.1387,-16.2007 L 21.1956,-16.2007 L 21.2526,-16.2007 L 21.3095,-16.2007 L 21.3665,-16.2007 L 21.4234,-16.2007 L 21.4803,-16.2007 L 21.5373,-16.2007 L 21.5942,-16.2007 L 21.6512,-16.2007 L 21.7081,-16.2007 L 21.7651,-16.2007 L 21.822,-16.2007 L 21.879,-16.2007 L 21.9359,-16.2007 L 21.9928,-16.2007 L 22.0498,-16.2007 L 22.1067,-16.2007 L 22.1637,-16.2007 L 22.2206,-16.2007 L 22.2776,-16.2007 L 22.3345,-16.2007 L 22.3915,-16.2007 L 22.4484,-16.2007 L 22.5053,-16.2007 L 22.5623,-16.2007 L 22.6192,-16.2007 L 22.6762,-16.2007 L 22.7331,-16.2007 L 22.7901,-16.2007 L 22.847,-16.2007 L 22.904,-16.2007 L 22.9609,-16.2007 L 23.0178,-16.2007 L 23.0748,-16.2007 L 23.1317,-16.2007 L 23.1887,-16.2007 L 23.2456,-16.2007 L 23.3026,-16.2007 L 23.3595,-16.2007 L 23.4164,-16.2007 L 23.4734,-16.2007 L 23.5303,-16.2007 L 23.5873,-16.2007 L 23.6442,-16.2007 L 23.7012,-16.2007 L 23.7581,-16.2007 L 23.8151,-16.2007 L 23.872,-16.2007 L 23.9289,-16.2007 L 23.9859,-16.2007 L 24.0428,-16.2007 L 24.0998,-16.2007" />
      <path d="M 19.9213,-16.1652 L 19.9782,-16.1652 L 20.0352,-16.1652 L 20.0921,-16.1652 L 20.1491,-16.1652 L 20.206,-16.1652 L 20.263,-16.1652 L 20.3199,-16.1652 L 20.3769,-16.1652 L 20.4338,-16.1652 L 20.4907,-16.1652 L 20.5477,-16.1652 L 20.6046,-16.1652 L 20.6616,-16.1652 L 20.7185,-16.1652 L 20.7755,-16.1652 L 20.8324,-16.1652 L 20.8894,-16.1652 L 20.9463,-16.1652 L 21.0032,-16.1652 L 21.0602,-16.1652 L 21.1171,-16.1652 L 21.1741,-16.1652 L 21.231,-16.1652 L 21.288,-16.1652 L 21.3449,-16.1652 L 21.4019,-16.1652 L 21.4588,-16.1652 L 21.5157,-16.1652 L 21.5727,-16.1652 L 21.6296,-16.1652 L 21.6866,-16.1652 L 21.7435,-16.1652 L 21.8005,-16.1652 L 21.8574,-16.1652 L 21.9144,-16.1652 L 21.9713,-16.1652 L 22.0282,-16.1652 L 22.0852,-16.1652 L 22.1421,-16.1652 L 22.1991,-16.1652 L 22.256,-16.1652 L 22.313,-16.1652 L 22.3699,-16.1652 L 22.4268,-16.1652 L 22.4838,-16.1652 L 22.5407,-16.1652 L 22.5977,-16.1652 L 22.6546,-16.1652 L 22.7116,-16.1652 L 22.7685,-16.1652 L 22.8255,-16.1652 L 22.8824,-16.1652 L 22.9393,-16.1652 L 22.9963,-16.1652 L 23.0532,-16.1652 L 23.1102,-16.1652 L 23.1671,-16.1652 L 23.2241,-16.1652 L 23.281,-16.1652 L 23.338,-16.1652 L 23.3949,-16.1652 L 23.4518,-16.1652 L 23.5088,-16.1652 L 23.5657,-16.1652 L 23.6227,-16.1652 L 23.6796,-16.1652 L 23.7366,-16.1652 L 23.7935,-16.1652 L 23.8505,-16.1652 L 23.9074,-16.1652 L 23.9643,-16.1652 L 24.0213,-16.1652" />
      <path d="M 19.9213,-16.1652 L 19.9224,-16.1657 L 19.9235,-16.1662 L 19.9246,-16.1667 L 19.9257,-16.1672 L 19.9268,-16.1676 L 19.9278,-16.1681 L 19.9289,-16.1686 L 19.93,-16.1691 L 19.9311,-16.1696 L 19.9322,-16.1701 L 19.9333,-16.1706 L 19.9344,-16.1711 L 19.9355,-16.1716 L 19.9366,-16.1721 L 19.9377,-16.1726 L 19.9387,-16.1731 L 19.9398,-16.1736 L 19.9409,-16.1741 L 19.942,-16.1745 L 19.9431,-16.175 L 19.9442,-16.1755 L 19.9453,-16.176 L 19.9464,-16.1765 L 19.9475,-16.177 L 19.9486,-16.1775 L 19.9496,-16.178 L 19.9507,-16.1785 L 19.9518,-16.179 L 19.9529,-16.1795 L 19.954,-16.18 L 19.9551,-16.1805 L 19.9562,-16.181 L 19.9573,-16.1814 L 19.9584,-16.1819 L 19.9595,-16.1824 L 19.9605,-16.1829 L 19.9616,-16.1834 L 19.9627,-16.1839 L 19.9638,-16.1844 L 19.9649,-16.1849 L 19.966,-16.1854 L 19.9671,-16.1859 L 19.9682,-16.1864 L 19.9693,-16.1869 L 19.9704,-16.1874 L 19.9715,-16.1879 L 19.9725,-16.1883 L 19.9736,-16.1888 L 19.9747,-16.1893 L 19.9758,-16.1898 L 19.9769,-16.1903 L 19.978,-16.1908 L 19.9791,-16.1913 L 19.9802,-16.1918 L 19.9813,-16.1923 L 19.9824,-16.1928 L 19.9834,-16.1933 L 19.9845,-16.1938 L 19.9856,-16.1943 L 19.9867,-16.1948 L 19.9878,-16.1952 L 19.9889,-16.1957 L 19.99,-16.1962 L 19.9911,-16.1967 L 19.9922,-16.1972 L 19.9933,-16.1977 L 19.9943,-16.1982 L 19.9954,-16.1987 L 19.9965,-16.1992 L 19.9976,-16.1997 L 19.9987,-16.2002 L 19.9998,-16.2007" />
      <path d="M 24.0213,13.8348 L 23.9352,13.8348 L 23.8491,13.8348 L 23.763,13.8348 L 23.6768,13.8348 L 23.5907,13.8348 L 23.5046,13.8348 L 23.4185,13.8348 L 23.3324,13.8348 L 23.2463,13.8348 L 23.1602,13.8348 L 23.0741,13.8348 L 22.988,13.8348 L 22.9018,13.8348 L 22.8157,13.8348 L 22.7296,13.8348 L 22.6435,13.8348 L 22.5574,13.8348 L 22.4713,13.8348 L 22.3852,13.8348 L 22.2991,13.8348 L 22.213,13.8348 L 22.1269,13.8348 L 22.0407,13.8348 L 21.9546,13.8348 L 21.8685,13.8348 L 21.7824,13.8348 L 21.6963,13.8348 L 21.6102,13.8348 L 21.5241,13.8348 L 21.438,13.8348 L 21.3519,13.8348 L 21.2657,13.8348 L 21.1796,13.8348 L 21.0935,13.8348 L 21.0074,13.8348 L 20.9213,13.8348 L 20.8352,13.8348 L 20.7491,13.8348 L 20.663,13.8348 L 20.5769,13.8348 L 20.4907,13.8348 L 20.4046,13.8348 L 20.3185,13.8348 L 20.2324,13.8348 L 20.1463,13.8348 L 20.0602,13.8348 L 19.9741,13.8348 L 19.888,13.8348 L 19.8019,13.8348 L 19.7157,13.8348 L 19.6296,13.8348 L 19.5435,13.8348 L 19.4574,13.8348 L 19.3713,13.8348 L 19.2852,13.8348 L 19.1991,13.8348 L 19.113,13.8348 L 19.0269,13.8348 L 18.9408,13.8348 L 18.8546,13.8348 L 18.7685,13.8348 L 18.6824,13.8348 L 18.5963,13.8348 L 18.5102,13.8348 L 18.4241,13.8348 L 18.338,13.8348 L 18.2519,13.8348 L 18.1658,13.8348 L 18.0796,13.8348 L 17.9935,13.8348 L 17.9074,13.8348 L 17.8213,13.8348" />
      <path d="M 17.8213,13.8348 L 17.8505,13.4181 L 17.8796,13.0015 L 17.9088,12.5848 L 17.938,12.1681 L 17.9671,11.7515 L 17.9963,11.3348 L 18.0255,10.9181 L 18.0546,10.5015 L 18.0838,10.0848 L 18.113,9.6681 L 18.1421,9.2515 L 18.1713,8.8348 L 18.2005,8.4181 L 18.2296,8.0015 L 18.2588,7.5848 L 18.288,7.1681 L 18.3171,6.7515 L 18.3463,6.3348 L 18.3755,5.9181 L 18.4046,5.5015 L 18.4338,5.0848 L 18.463,4.6681 L 18.4921,4.2515 L 18.5213,3.8348 L 18.5505,3.4181 L 18.5796,3.0015 L 18.6088,2.5848 L 18.638,2.1681 L 18.6671,1.7515 L 18.6963,1.3348 L 18.7255,0.9181 L 18.7546,0.5015 L 18.7838,0.0848 L 18.813,-0.3319 L 18.8421,-0.7485 L 18.8713,-1.1652 L 18.9005,-1.5819 L 18.9296,-1.9985 L 18.9588,-2.4152 L 18.988,-2.8319 L 19.0171,-3.2485 L 19.0463,-3.6652 L 19.0755,-4.0819 L 19.1046,-4.4985 L 19.1338,-4.9152 L 19.163,-5.3319 L 19.1921,-5.7485 L 19.2213,-6.1652 L 19.2505,-6.5819 L 19.2796,-6.9985 L 19.3088,-7.4152 L 19.338,-7.8319 L 19.3671,-8.2485 L 19.3963,-8.6652 L 19.4255,-9.0819 L 19.4546,-9.4985 L 19.4838,-9.9152 L 19.513,-10.3319 L 19.5421,-10.7485 L 19.5713,-11.1652 L 19.6005,-11.5819 L 19.6296,-11.9985 L 19.6588,-12.4152 L 19.688,-12.8318 L 19.7171,-13.2485 L 19.7463,-13.6652 L 19.7755,-14.0818 L 19.8046,-14.4985 L 19.8338,-14.9152 L 19.863,-15.3318 L 19.8921,-15.7485 L 19.9213,-16.1652" />
    </g>
    <g fill="none" stroke="rgb(110,110,110)" stroke-width="0.3" id="Hidden" stroke-dasharray="3.6 0.9">
      <path d="M -16.186,15.0 L -15.7694,15.0 L -15.3527,15.0 L -14.936,15.0 L -14.5194,15.0 L -14.1027,15.0 L -13.686,15.0 L -13.2694,15.0 L -12.8527,15.0 L -12.436,15.0 L -12.0194,15.0 L -11.6027,15.0 L -11.186,15.0 L -10.7694,15.0 L -10.3527,15.0 L -9.936,15.0 L -9.5194,15.0 L -9.1027,15.0 L -8.686,15.0 L -8.2694,15.0 L -7.8527,15.0 L -7.436,15.0 L -7.0194,15.0 L -6.6027,15.0 L -6.186,15.0 L -5.7694,15.0 L -5.3527,15.0 L -4.936,15.0 L -4.5194,15.0 L -4.1027,15.0 L -3.686,15.0 L -3.2694,15.0 L -2.8527,15.0 L -2.436,15.0 L -2.0194,15.0 L -1.6027,15.0 L -1.186,15.0 L -0.7694,15.0 L -0.3527,15.0 L 0.064,15.0 L 0.4806,15.0 L 0.8973,15.0 L 1.314,15.0 L 1.7306,15.0 L 2.1473,15.0 L 2.564,15.0 L 2.9806,15.0 L 3.3973,15.0 L 3.814,15.0 L 4.2306,15.0 L 4.6473,15.0 L 5.064,15.0 L 5.4806,15.0 L 5.8973,15.0 L 6.314,15.0 L 6.7306,15.0 L 7.1473,15.0 L 7.564,15.0 L 7.9806,15.0 L 8.3973,15.0 L 8.814,15.0 L 9.2306,15.0 L 9.6473,15.0 L 10.064,15.0 L 10.4806,15.0 L 10.8973,15.0 L 11.314,15.0 L 11.7306,15.0 L 12.1473,15.0 L 12.564,15.0 L 12.9806,15.0 L 13.3973,15.0 L 13.814,15.0" />
      <path d="M 13.814,15.0 L 13.814,14.5833 L 13.814,14.1667 L 13.814,13.75 L 13.814,13.3333 L 13.814,12.9167 L 13.814,12.5 L 13.814,12.0833 L 13.814,11.6667 L 13.814,11.25 L 13.814,10.8333 L 13.814,10.4167 L 13.814,10.0 L 13.814,9.5833 L 13.814,9.1667 L 13.814,8.75 L 13.814,8.3333 L 13.814,7.9167 L 13.814,7.5 L 13.814,7.0833 L 13.814,6.6667 L 13.814,6.25 L 13.814,5.8333 L 13.814,5.4167 L 13.814,5.0 L 13.814,4.5833 L 13.814,4.1667 L 13.814,3.75 L 13.814,3.3333 L 13.814,2.9167 L 13.814,2.5 L 13.814,2.0833 L 13.814,1.6667 L 13.814,1.25 L 13.814,0.8333 L 13.814,0.4167 L 13.814,0.0 L 13.814,-0.4167 L 13.814,-0.8333 L 13.814,-1.25 L 13.814,-1.6667 L 13.814,-2.0833 L 13.814,-2.5 L 13.814,-2.9167 L 13.814,-3.3333 L 13.814,-3.75 L 13.814,-4.1667 L 13.814,-4.5833 L 13.814,-5.0 L 13.814,-5.4167 L 13.814,-5.8333 L 13.814,-6.25 L 13.814,-6.6667 L 13.814,-7.0833 L 13.814,-7.5 L 13.814,-7.9167 L 13.814,-8.3333 L 13.814,-8.75 L 13.814,-9.1667 L 13.814,-9.5833 L 13.814,-10.0 L 13.814,-10.4167 L 13.814,-10.8333 L 13.814,-11.25 L 13.814,-11.6667 L 13.814,-12.0833 L 13.814,-12.5 L 13.814,-12.9167 L 13.814,-13.3333 L 13.814,-13.75 L 13.814,-14.1667 L 13.814,-14.5833 L 13.814,-15.0" />
      <path d="M -16.186,-15.0 L -15.7694,-15.0 L -15.3527,-15.0 L -14.936,-15.0 L -14.5194,-15.0 L -14.1027,-15.0 L -13.686,-15.0 L -13.2694,-15.0 L -12.8527,-15.0 L -12.436,-15.0 L -12.0194,-15.0 L -11.6027,-15.0 L -11.186,-15.0 L -10.7694,-15.0 L -10.3527,-15.0 L -9.936,-15.0 L -9.5194,-15.0 L -9.1027,-15.0 L -8.686,-15.0 L -8.2694,-15.0 L -7.8527,-15.0 L -7.436,-15.0 L -7.0194,-15.0 L -6.6027,-15.0 L -6.186,-15.0 L -5.7694,-15.0 L -5.3527,-15.0 L -4.936,-15.0 L -4.5194,-15.0 L -4.1027,-15.0 L -3.686,-15.0 L -3.2694,-15.0 L -2.8527,-15.0 L -2.436,-15.0 L -2.0194,-15.0 L -1.6027,-15.0 L -1.186,-15.0 L -0.7694,-15.0 L -0.3527,-15.0 L 0.064,-15.0 L 0.4806,-15.0 L 0.8973,-15.0 L 1.314,-15.0 L 1.7306,-15.0 L 2.1473,-15.0 L 2.564,-15.0 L 2.9806,-15.0 L 3.3973,-15.0 L 3.814,-15.0 L 4.2306,-15.0 L 4.6473,-15.0 L 5.064,-15.0 L 5.4806,-15.0 L 5.8973,-15.0 L 6.314,-15.0 L 6.7306,-15.0 L 7.1473,-15.0 L 7.564,-15.0 L 7.9806,-15.0 L 8.3973,-15.0 L 8.814,-15.0 L 9.2306,-15.0 L 9.6473,-15.0 L 10.064,-15.0 L 10.4806,-15.0 L 10.8973,-15.0 L 11.314,-15.0 L 11.7306,-15.0 L 12.1473,-15.0 L 12.564,-15.0 L 12.9806,-15.0 L 13.3973,-15.0 L 13.814,-15.0" />
      <path d="M -1.183,6.75 L -1.1831,6.75 L -1.1832,6.75 L -1.1833,6.75 L -1.1834,6.75 L -1.1835,6.75 L -1.1836,6.75 L -1.1837,6.75 L -1.1838,6.75 L -1.1839,6.75 L -1.184,6.75 L -1.1841,6.75 L -1.1842,6.75 L -1.1843,6.75 L -1.1844,6.75 L -1.1845,6.75 L -1.1846,6.75 L -1.1847,6.75 L -1.1848,6.75 L -1.1849,6.75 L -1.185,6.75 L -1.1851,6.75 L -1.1852,6.75 L -1.1853,6.75 L -1.1854,6.75 L -1.1855,6.75 L -1.1856,6.75 L -1.1857,6.75 L -1.1858,6.75 L -1.1859,6.75 L -1.186,6.75" />
      <path d="M -1.186,6.75 L -1.4805,6.7436 L -1.7743,6.7243 L -2.0671,6.6923 L -2.3582,6.6475 L -2.647,6.59 L -2.9331,6.52 L -3.2158,6.4376 L -3.4947,6.3429 L -3.7691,6.2362 L -4.0387,6.1176 L -4.3028,5.9873 L -4.561,5.8457 L -4.8128,5.6929 L -5.0577,5.5293 L -5.2952,5.3551 L -5.5248,5.1708 L -5.7463,4.9766 L -5.959,4.773 L -6.1627,4.5602 L -6.3568,4.3388 L -6.5412,4.1091 L -6.7153,3.8716 L -6.8789,3.6268 L -7.0317,3.375 L -7.1734,3.1168 L -7.3036,2.8527 L -7.4222,2.5831 L -7.529,2.3086 L -7.6236,2.0298 L -7.706,1.747 L -7.776,1.461 L -7.8335,1.1721 L -7.8783,0.8811 L -7.9103,0.5883 L -7.9296,0.2944 L -7.936,0.0 L -7.9296,-0.2944 L -7.9103,-0.5883 L -7.8783,-0.8811 L -7.8335,-1.1721 L -7.776,-1.461 L -7.706,-1.747 L -7.6236,-2.0298 L -7.529,-2.3086 L -7.4222,-2.5831 L -7.3036,-2.8527 L -7.1734,-3.1168 L -7.0317,-3.375 L -6.8789,-3.6268 L -6.7153,-3.8716 L -6.5412,-4.1091 L -6.3568,-4.3388 L -6.1627,-4.5602 L -5.959,-4.773 L -5.7463,-4.9766 L -5.5248,-5.1708 L -5.2952,-5.3551 L -5.0577,-5.5293 L -4.8128,-5.6929 L -4.561,-5.8457 L -4.3028,-5.9873 L -4.0387,-6.1176 L -3.7691,-6.2362 L -3.4947,-6.3429 L -3.2158,-6.4376 L -2.9331,-6.52 L -2.647,-6.59 L -2.3582,-6.6475 L -2.0671,-6.6923 L -1.7743,-6.7243 L -1.4805,-6.7436 L -1.186,-6.75" />
      <path d="M -1.186,-6.75 L -1.1859,-6.75 L -1.1858,-6.75 L -1.1857,-6.75 L -1.1856,-6.75 L -1.1855,-6.75 L -1.1854,-6.75 L -1.1853,-6.75 L -1.1852,-6.75 L -1.1851,-6.75 L -1.185,-6.75 L -1.1849,-6.75 L -1.1848,-6.75 L -1.1847,-6.75 L -1.1846,-6.75 L -1.1845,-6.75 L -1.1844,-6.75 L -1.1843,-6.75 L -1.1842,-6.75 L -1.1841,-6.75 L -1.184,-6.75 L -1.1839,-6.75 L -1.1838,-6.75 L -1.1837,-6.75 L -1.1836,-6.75 L -1.1835,-6.75 L -1.1834,-6.75 L -1.1833,-6.75 L -1.1832,-6.75 L -1.1831,-6.75 L -1.183,-6.75" />
      <path d="M 13.814,15.0 L 13.8141,15.0 L 13.8142,15.0 L 13.8143,15.0 L 13.8144,15.0 L 13.8145,15.0 L 13.8146,15.0 L 13.8147,15.0 L 13.8148,15.0 L 13.8149,15.0 L 13.815,15.0 L 13.8151,15.0 L 13.8152,15.0 L 13.8153,15.0 L 13.8154,15.0 L 13.8155,15.0 L 13.8156,15.0 L 13.8157,15.0 L 13.8158,15.0 L 13.8159,15.0 L 13.816,15.0 L 13.8161,15.0 L 13.8162,15.0 L 13.8163,15.0 L 13.8164,15.0 L 13.8165,15.0 L 13.8166,15.0 L 13.8167,15.0 L 13.8168,15.0 L 13.8169,15.0 L 13.817,15.0 L 13.8171,15.0 L 13.8172,15.0 L 13.8173,15.0 L 13.8174,15.0 L 13.8175,15.0 L 13.8176,15.0 L 13.8177,15.0 L 13.8178,15.0 L 13.8179,15.0 L 13.818,15.0 L 13.8181,15.0 L 13.8182,15.0 L 13.8183,15.0 L 13.8185,15.0 L 13.8186,15.0 L 13.8187,15.0 L 13.8188,15.0 L 13.8189,15.0 L 13.819,15.0 L 13.8191,15.0 L 13.8192,15.0 L 13.8193,15.0 L 13.8194,15.0 L 13.8195,15.0 L 13.8196,15.0 L 13.8197,15.0 L 13.8198,15.0 L 13.8199,15.0 L 13.82,15.0 L 13.8201,15.0 L 13.8202,15.0 L 13.8203,15.0 L 13.8204,15.0 L 13.8205,15.0 L 13.8206,15.0 L 13.8207,15.0 L 13.8208,15.0 L 13.8209,15.0 L 13.821,15.0 L 13.8211,15.0 L 13.8212,15.0 L 13.8213,15.0" />
      <path d="M 13.814,-15.0 L 13.8141,-15.0 L 13.8142,-15.0 L 13.8143,-15.0 L 13.8144,-15.0 L 13.8145,-15.0 L 13.8146,-15.0 L 13.8147,-15.0 L 13.8148,-15.0 L 13.8149,-15.0 L 13.815,-15.0 L 13.8151,-15.0 L 13.8152,-15.0 L 13.8153,-15.0 L 13.8154,-15.0 L 13.8155,-15.0 L 13.8156,-15.0 L 13.8157,-15.0 L 13.8158,-15.0 L 13.8159,-15.0 L 13.816,-15.0 L 13.8161,-15.0 L 13.8162,-15.0 L 13.8163,-15.0 L 13.8164,-15.0 L 13.8165,-15.0 L 13.8166,-15.0 L 13.8167,-15.0 L 13.8168,-15.0 L 13.8169,-15.0 L 13.817,-15.0 L 13.8171,-15.0 L 13.8172,-15.0 L 13.8173,-15.0 L 13.8174,-15.0 L 13.8175,-15.0 L 13.8176,-15.0 L 13.8177,-15.0 L 13.8178,-15.0 L 13.8179,-15.0 L 13.818,-15.0 L 13.8181,-15.0 L 13.8182,-15.0 L 13.8183,-15.0 L 13.8185,-15.0 L 13.8186,-15.0 L 13.8187,-15.0 L 13.8188,-15.0 L 13.8189,-15.0 L 13.819,-15.0 L 13.8191,-15.0 L 13.8192,-15.0 L 13.8193,-15.0 L 13.8194,-15.0 L 13.8195,-15.0 L 13.8196,-15.0 L 13.8197,-15.0 L 13.8198,-15.0 L 13.8199,-15.0 L 13.82,-15.0 L 13.8201,-15.0 L 13.8202,-15.0 L 13.8203,-15.0 L 13.8204,-15.0 L 13.8205,-15.0 L 13.8206,-15.0 L 13.8207,-15.0 L 13.8208,-15.0 L 13.8209,-15.0 L 13.821,-15.0 L 13.8211,-15.0 L 13.8212,-15.0 L 13.8213,-15.0" />
      <path d="M -1.186,-6.75 L -1.1859,-6.75 L -1.1858,-6.75 L -1.1857,-6.75 L -1.1856,-6.75 L -1.1855,-6.75 L -1.1854,-6.75 L -1.1853,-6.75 L -1.1852,-6.75 L -1.1851,-6.75 L -1.185,-6.75 L -1.1849,-6.75 L -1.1848,-6.75 L -1.1847,-6.75 L -1.1846,-6.75 L -1.1845,-6.75 L -1.1844,-6.75 L -1.1843,-6.75 L -1.1842,-6.75 L -1.1841,-6.75 L -1.184,-6.75 L -1.1839,-6.75 L -1.1838,-6.75 L -1.1837,-6.75 L -1.1836,-6.75 L -1.1835,-6.75 L -1.1834,-6.75 L -1.1833,-6.75 L -1.1832,-6.75 L -1.1831,-6.75 L -1.183,-6.75 L -1.1829,-6.75 L -1.1828,-6.75 L -1.1827,-6.75 L -1.1826,-6.75 L -1.1825,-6.75 L -1.1824,-6.75 L -1.1823,-6.75 L -1.1822,-6.75 L -1.1821,-6.75 L -1.182,-6.75 L -1.1819,-6.75 L -1.1818,-6.75 L -1.1817,-6.75 L -1.1816,-6.75 L -1.1815,-6.75 L -1.1814,-6.75 L -1.1813,-6.75 L -1.1812,-6.75 L -1.1811,-6.75 L -1.181,-6.75 L -1.1809,-6.75 L -1.1808,-6.75 L -1.1807,-6.75 L -1.1806,-6.75 L -1.1805,-6.75 L -1.1804,-6.75 L -1.1803,-6.75 L -1.1802,-6.75 L -1.1801,-6.75 L -1.18,-6.75 L -1.1799,-6.75" />
      <path d="M -1.186,6.75 L -1.1859,6.75 L -1.1858,6.75 L -1.1857,6.75 L -1.1856,6.75 L -1.1855,6.75 L -1.1854,6.75 L -1.1853,6.75 L -1.1852,6.75 L -1.1851,6.75 L -1.185,6.75 L -1.1849,6.75 L -1.1848,6.75 L -1.1847,6.75 L -1.1846,6.75 L -1.1845,6.75 L -1.1844,6.75 L -1.1843,6.75 L -1.1842,6.75 L -1.1841,6.75 L -1.184,6.75 L -1.1839,6.75 L -1.1838,6.75 L -1.1837,6.75 L -1.1836,6.75 L -1.1835,6.75 L -1.1834,6.75 L -1.1833,6.75 L -1.1832,6.75 L -1.1831,6.75 L -1.183,6.75 L -1.1829,6.75 L -1.1828,6.75 L -1.1827,6.75 L -1.1826,6.75 L -1.1825,6.75 L -1.1824,6.75 L -1.1823,6.75 L -1.1822,6.75 L -1.1821,6.75 L -1.182,6.75 L -1.1819,6.75 L -1.1818,6.75 L -1.1817,6.75 L -1.1816,6.75 L -1.1815,6.75 L -1.1814,6.75 L -1.1813,6.75 L -1.1812,6.75 L -1.1811,6.75 L -1.181,6.75 L -1.1809,6.75 L -1.1808,6.75 L -1.1807,6.75 L -1.1806,6.75 L -1.1805,6.75 L -1.1804,6.75 L -1.1803,6.75 L -1.1802,6.75 L -1.1801,6.75 L -1.18,6.75 L -1.1799,6.75" />
      <path d="M 24.0998,13.7993 L 24.0137,13.7993 L 23.9276,13.7993 L 23.8414,13.7993 L 23.7553,13.7993 L 23.6692,13.7993 L 23.5831,13.7993 L 23.497,13.7993 L 23.4109,13.7993 L 23.3248,13.7993 L 23.2387,13.7993 L 23.1526,13.7993 L 23.0665,13.7993 L 22.9803,13.7993 L 22.8942,13.7993 L 22.8081,13.7993 L 22.722,13.7993 L 22.6359,13.7993 L 22.5498,13.7993 L 22.4637,13.7993 L 22.3776,13.7993 L 22.2915,13.7993 L 22.2053,13.7993 L 22.1192,13.7993 L 22.0331,13.7993 L 21.947,13.7993 L 21.8609,13.7993 L 21.7748,13.7993 L 21.6887,13.7993 L 21.6026,13.7993 L 21.5165,13.7993 L 21.4303,13.7993 L 21.3442,13.7993 L 21.2581,13.7993 L 21.172,13.7993 L 21.0859,13.7993 L 20.9998,13.7993 L 20.9137,13.7993 L 20.8276,13.7993 L 20.7415,13.7993 L 20.6553,13.7993 L 20.5692,13.7993 L 20.4831,13.7993 L 20.397,13.7993 L 20.3109,13.7993 L 20.2248,13.7993 L 20.1387,13.7993 L 20.0526,13.7993 L 19.9665,13.7993 L 19.8804,13.7993 L 19.7942,13.7993 L 19.7081,13.7993 L 19.622,13.7993 L 19.5359,13.7993 L 19.4498,13.7993 L 19.3637,13.7993 L 19.2776,13.7993 L 19.1915,13.7993 L 19.1054,13.7993 L 19.0192,13.7993 L 18.9331,13.7993 L 18.847,13.7993 L 18.7609,13.7993 L 18.6748,13.7993 L 18.5887,13.7993 L 18.5026,13.7993 L 18.4165,13.7993 L 18.3304,13.7993 L 18.2442,13.7993 L 18.1581,13.7993 L 18.072,13.7993 L 17.9859,13.7993 L 17.8998,13.7993" />
      <path d="M 17.8998,13.7993 L 17.929,13.3826 L 17.9581,12.966 L 17.9873,12.5493 L 18.0165,12.1326 L 18.0456,11.716 L 18.0748,11.2993 L 18.104,10.8826 L 18.1331,10.466 L 18.1623,10.0493 L 18.1915,9.6326 L 18.2206,9.216 L 18.2498,8.7993 L 18.279,8.3826 L 18.3081,7.966 L 18.3373,7.5493 L 18.3665,7.1326 L 18.3956,6.716 L 18.4248,6.2993 L 18.454,5.8826 L 18.4831,5.466 L 18.5123,5.0493 L 18.5415,4.6326 L 18.5706,4.216 L 18.5998,3.7993 L 18.629,3.3826 L 18.6581,2.966 L 18.6873,2.5493 L 18.7165,2.1326 L 18.7456,1.716 L 18.7748,1.2993 L 18.804,0.8826 L 18.8331,0.466 L 18.8623,0.0493 L 18.8915,-0.3673 L 18.9206,-0.784 L 18.9498,-1.2007 L 18.979,-1.6173 L 19.0081,-2.034 L 19.0373,-2.4507 L 19.0665,-2.8673 L 19.0956,-3.284 L 19.1248,-3.7007 L 19.154,-4.1173 L 19.1831,-4.534 L 19.2123,-4.9507 L 19.2415,-5.3673 L 19.2706,-5.784 L 19.2998,-6.2007 L 19.329,-6.6173 L 19.3581,-7.034 L 19.3873,-7.4507 L 19.4165,-7.8673 L 19.4456,-8.284 L 19.4748,-8.7007 L 19.504,-9.1173 L 19.5331,-9.534 L 19.5623,-9.9507 L 19.5915,-10.3673 L 19.6206,-10.784 L 19.6498,-11.2007 L 19.679,-11.6173 L 19.7081,-12.034 L 19.7373,-12.4507 L 19.7665,-12.8673 L 19.7956,-13.284 L 19.8248,-13.7007 L 19.854,-14.1173 L 19.8831,-14.534 L 19.9123,-14.9507 L 19.9415,-15.3673 L 19.9706,-15.784 L 19.9998,-16.2007" />
      <path d="M 17.8998,13.7993 L 17.8987,13.7998 L 17.8976,13.8003 L 17.8965,13.8008 L 17.8954,13.8013 L 17.8944,13.8018 L 17.8933,13.8023 L 17.8922,13.8028 L 17.8911,13.8032 L 17.89,13.8037 L 17.8889,13.8042 L 17.8878,13.8047 L 17.8867,13.8052 L 17.8856,13.8057 L 17.8845,13.8062 L 17.8834,13.8067 L 17.8824,13.8072 L 17.8813,13.8077 L 17.8802,13.8082 L 17.8791,13.8087 L 17.878,13.8092 L 17.8769,13.8097 L 17.8758,13.8101 L 17.8747,13.8106 L 17.8736,13.8111 L 17.8725,13.8116 L 17.8715,13.8121 L 17.8704,13.8126 L 17.8693,13.8131 L 17.8682,13.8136 L 17.8671,13.8141 L 17.866,13.8146 L 17.8649,13.8151 L 17.8638,13.8156 L 17.8627,13.8161 L 17.8616,13.8166 L 17.8606,13.817 L 17.8595,13.8175 L 17.8584,13.818 L 17.8573,13.8185 L 17.8562,13.819 L 17.8551,13.8195 L 17.854,13.82 L 17.8529,13.8205 L 17.8518,13.821 L 17.8507,13.8215 L 17.8497,13.822 L 17.8486,13.8225 L 17.8475,13.823 L 17.8464,13.8235 L 17.8453,13.8239 L 17.8442,13.8244 L 17.8431,13.8249 L 17.842,13.8254 L 17.8409,13.8259 L 17.8398,13.8264 L 17.8388,13.8269 L 17.8377,13.8274 L 17.8366,13.8279 L 17.8355,13.8284 L 17.8344,13.8289 L 17.8333,13.8294 L 17.8322,13.8299 L 17.8311,13.8304 L 17.83,13.8308 L 17.8289,13.8313 L 17.8279,13.8318 L 17.8268,13.8323 L 17.8257,13.8328 L 17.8246,13.8333 L 17.8235,13.8338 L 17.8224,13.8343 L 17.8213,13.8348" />
      <path d="M 18.4381,5.5671 L 18.4551,5.3799 L 18.4695,5.1925 L 18.484,5.0051 L 18.4982,4.8176 L 18.5121,4.6302 L 18.526,4.4427 L 18.5399,4.2553 L 18.5537,4.0678 L 18.5673,3.8804 L 18.5809,3.6929 L 18.5945,3.5054 L 18.6081,3.318 L 18.6217,3.1305 L 18.6352,2.943 L 18.6486,2.7556 L 18.6621,2.5681 L 18.6755,2.3806 L 18.6889,2.1931 L 18.7023,2.0056 L 18.7158,1.8182 L 18.7291,1.6307 L 18.7424,1.4432 L 18.7557,1.2557 L 18.769,1.0682 L 18.7823,0.8807 L 18.7956,0.6932 L 18.8088,0.5057 L 18.8221,0.3182 L 18.8353,0.1307 L 18.8485,-0.0568 L 18.8617,-0.2443 L 18.8749,-0.4318 L 18.888,-0.6193 L 18.9012,-0.8068 L 18.9144,-0.9943 L 18.9276,-1.1817 L 18.9406,-1.3693 L 18.9537,-1.5568 L 18.9668,-1.7443 L 18.9799,-1.9318 L 18.9929,-2.1193 L 19.006,-2.3068 L 19.0191,-2.4943 L 19.0321,-2.6818 L 19.0451,-2.8693 L 19.0581,-3.0568 L 19.071,-3.2443 L 19.084,-3.4318 L 19.097,-3.6194 L 19.1099,-3.8069 L 19.1229,-3.9944 L 19.1358,-4.1819 L 19.1486,-4.3694 L 19.1614,-4.5569 L 19.1743,-4.7445 L 19.1871,-4.932 L 19.1999,-5.1195 L 19.2128,-5.307 L 19.2255,-5.4946 L 19.2381,-5.6821 L 19.2508,-5.8696 L 19.2634,-6.0572 L 19.2761,-6.2447 L 19.2888,-6.4322 L 19.3012,-6.6198 L 19.3135,-6.8073 L 19.3259,-6.9949 L 19.3383,-7.1824 L 19.3503,-7.37 L 19.3621,-7.5576 L 19.3739,-7.7452 L 19.3831,-7.9329" />
      <path d="M 19.3831,-7.9329 L 19.366,-7.7458 L 19.3516,-7.5583 L 19.3371,-7.3709 L 19.3229,-7.1835 L 19.309,-6.9961 L 19.2951,-6.8086 L 19.2812,-6.6212 L 19.2674,-6.4337 L 19.2538,-6.2463 L 19.2402,-6.0588 L 19.2266,-5.8713 L 19.213,-5.6839 L 19.1994,-5.4964 L 19.1859,-5.3089 L 19.1725,-5.1214 L 19.159,-4.934 L 19.1456,-4.7465 L 19.1322,-4.559 L 19.1188,-4.3715 L 19.1053,-4.184 L 19.092,-3.9965 L 19.0787,-3.8091 L 19.0654,-3.6216 L 19.0521,-3.4341 L 19.0388,-3.2466 L 19.0255,-3.0591 L 19.0123,-2.8716 L 18.999,-2.6841 L 18.9858,-2.4966 L 18.9726,-2.3091 L 18.9594,-2.1216 L 18.9462,-1.9341 L 18.9331,-1.7466 L 18.9199,-1.5591 L 18.9067,-1.3716 L 18.8935,-1.1841 L 18.8805,-0.9966 L 18.8674,-0.8091 L 18.8543,-0.6216 L 18.8412,-0.4341 L 18.8282,-0.2466 L 18.8151,-0.0591 L 18.802,0.1284 L 18.789,0.3159 L 18.776,0.5034 L 18.763,0.6909 L 18.7501,0.8785 L 18.7371,1.066 L 18.7242,1.2535 L 18.7112,1.441 L 18.6982,1.6285 L 18.6853,1.816 L 18.6725,2.0035 L 18.6597,2.1911 L 18.6468,2.3786 L 18.634,2.5661 L 18.6212,2.7536 L 18.6083,2.9412 L 18.5956,3.1287 L 18.583,3.3162 L 18.5703,3.5038 L 18.5577,3.6913 L 18.545,3.8788 L 18.5324,4.0664 L 18.5199,4.2539 L 18.5076,4.4415 L 18.4952,4.629 L 18.4828,4.8166 L 18.4708,5.0041 L 18.459,5.1917 L 18.4472,5.3793 L 18.438,5.5671" />
      <line x1="18.438" y1="5.5671" x2="18.4381" y2="5.5671" />
      <path d="M 24.0605,5.5671 L 23.9824,5.5671 L 23.9043,5.5671 L 23.8262,5.5671 L 23.7482,5.5671 L 23.6701,5.5671 L 23.592,5.5671 L 23.5139,5.5671 L 23.4358,5.5671 L 23.3577,5.5671 L 23.2796,5.5671 L 23.2015,5.5671 L 23.1234,5.5671 L 23.0453,5.5671 L 22.9673,5.5671 L 22.8892,5.5671 L 22.8111,5.5671 L 22.733,5.5671 L 22.6549,5.5671 L 22.5768,5.5671 L 22.4987,5.5671 L 22.4206,5.5671 L 22.3425,5.5671 L 22.2644,5.5671 L 22.1864,5.5671 L 22.1083,5.5671 L 22.0302,5.5671 L 21.9521,5.5671 L 21.874,5.5671 L 21.7959,5.5671 L 21.7178,5.5671 L 21.6397,5.5671 L 21.5616,5.5671 L 21.4835,5.5671 L 21.4055,5.5671 L 21.3274,5.5671 L 21.2493,5.5671 L 21.1712,5.5671 L 21.0931,5.5671 L 21.015,5.5671 L 20.9369,5.5671 L 20.8588,5.5671 L 20.7807,5.5671 L 20.7026,5.5671 L 20.6246,5.5671 L 20.5465,5.5671 L 20.4684,5.5671 L 20.3903,5.5671 L 20.3122,5.5671 L 20.2341,5.5671 L 20.156,5.5671 L 20.0779,5.5671 L 19.9998,5.5671 L 19.9217,5.5671 L 19.8437,5.5671 L 19.7656,5.5671 L 19.6875,5.5671 L 19.6094,5.5671 L 19.5313,5.5671 L 19.4532,5.5671 L 19.3751,5.5671 L 19.297,5.5671 L 19.2189,5.5671 L 19.1408,5.5671 L 19.0628,5.5671 L 18.9847,5.5671 L 18.9066,5.5671 L 18.8285,5.5671 L 18.7504,5.5671 L 18.6723,5.5671 L 18.5942,5.5671 L 18.5161,5.5671 L 18.438,5.5671" />
      <path d="M 24.0606,-7.9329 L 23.9956,-7.9329 L 23.9306,-7.9329 L 23.8657,-7.9329 L 23.8007,-7.9329 L 23.7357,-7.9329 L 23.6708,-7.9329 L 23.6058,-7.9329 L 23.5408,-7.9329 L 23.4759,-7.9329 L 23.4109,-7.9329 L 23.3459,-7.9329 L 23.281,-7.9329 L 23.216,-7.9329 L 23.151,-7.9329 L 23.0861,-7.9329 L 23.0211,-7.9329 L 22.9561,-7.9329 L 22.8912,-7.9329 L 22.8262,-7.9329 L 22.7613,-7.9329 L 22.6963,-7.9329 L 22.6313,-7.9329 L 22.5664,-7.9329 L 22.5014,-7.9329 L 22.4364,-7.9329 L 22.3715,-7.9329 L 22.3065,-7.9329 L 22.2415,-7.9329 L 22.1766,-7.9329 L 22.1116,-7.9329 L 22.0466,-7.9329 L 21.9817,-7.9329 L 21.9167,-7.9329 L 21.8517,-7.9329 L 21.7868,-7.9329 L 21.7218,-7.9329 L 21.6568,-7.9329 L 21.5919,-7.9329 L 21.5269,-7.9329 L 21.462,-7.9329 L 21.397,-7.9329 L 21.332,-7.9329 L 21.2671,-7.9329 L 21.2021,-7.9329 L 21.1371,-7.9329 L 21.0722,-7.9329 L 21.0072,-7.9329 L 20.9422,-7.9329 L 20.8773,-7.9329 L 20.8123,-7.9329 L 20.7473,-7.9329 L 20.6824,-7.9329 L 20.6174,-7.9329 L 20.5524,-7.9329 L 20.4875,-7.9329 L 20.4225,-7.9329 L 20.3575,-7.9329 L 20.2926,-7.9329 L 20.2276,-7.9329 L 20.1627,-7.9329 L 20.0977,-7.9329 L 20.0327,-7.9329 L 19.9678,-7.9329 L 19.9028,-7.9329 L 19.8378,-7.9329 L 19.7729,-7.9329 L 19.7079,-7.9329 L 19.6429,-7.9329 L 19.578,-7.9329 L 19.513,-7.9329 L 19.448,-7.9329 L 19.3831,-7.9329" />
    </g>
  </g>
</svg>