<?xml version='1.0' encoding='utf-8'?>
<svg width="43.323mm" height="34.4501mm" viewBox="-19.1344 -15.2943 43.323 34.4501" version="1.1" xmlns="http://www.w3.org/2000/svg">
  <g transform="scale(1,-1)" stroke-linecap="round">
    <g fill="none" stroke="rgb(0,0,0)" stroke-width="0.4" id="Visible">
      <path d="M -16.9344,-13.0 L -16.9344,-12.6389 L -16.9344,-12.2778 L -16.9344,-11.9167 L -16.9344,-11.5556 L -16.9344,-11.1944 L -16.9344,-10.8333 L -16.9344,-10.4722 L -16.9344,-10.1111 L -16.9344,-9.75 L -16.9344,-9.3889 L -16.9344,-9.0278 L -16.9344,-8.6667 L -16.9344,-8.3056 L -16.9344,-7.9444 L -16.9344,-7.5833 L -16.9344,-7.2222 L -16.9344,-6.8611 L -16.9344,-6.5 L -16.9344,-6.1389 L -16.9344,-5.7778 L -16.9344,-5.4167 L -16.9344,-5.0556 L -16.9344,-4.6944 L -16.9344,-4.3333 L -16.9344,-3.9722 L -16.9344,-3.6111 L -16.9344,-3.25 L -16.9344,-2.8889 L -16.9344,-2.5278 L -16.9344,-2.1667 L -16.9344,-1.8056 L -16.9344,-1.4444 L -16.9344,-1.0833 L -16.9344,-0.7222 L -16.9344,-0.3611 L -16.9344,0.0 L -16.9344,0.3611 L -16.9344,0.7222 L -16.9344,1.0833 L -16.9344,1.4444 L -16.9344,1.8056 L -16.9344,2.1667 L -16.9344,2.5278 L -16.9344,2.8889 L -16.9344,3.25 L -16.9344,3.6111 L -16.9344,3.9722 L -16.9344,4.3333 L -16.9344,4.6944 L -16.9344,5.0556 L -16.9344,5.4167 L -16.9344,5.7778 L -16.9344,6.1389 L -16.9344,6.5 L -16.9344,6.8611 L -16.9344,7.2222 L -16.9344,7.5833 L -16.9344,7.9444 L -16.9344,8.3056 L -16.9344,8.6667 L -16.9344,9.0278 L -16.9344,9.3889 L -16.9344,9.75 L -16.9344,10.1111 L -16.9344,10.4722 L -16.9344,10.8333 L -16.9344,11.1944 L -16.9344,11.5556 L -16.9344,11.9167 L -16.9344,12.2778 L -16.9344,12.6389 L -16.9344,13.0" />
      <path d="M 4.8155,0.0 L 4.8139,0.1472 L 4.8091,0.2943 L 4.8011,0.4413 L 4.7899,0.5881 L 4.7754,0.7346 L 4.7578,0.8808 L 4.737,1.0265 L 4.7131,1.1717 L 4.6859,1.3164 L 4.6556,1.4605 L 4.6222,1.6038 L 4.5857,1.7465 L 4.5461,1.8882 L 4.5033,2.0291 L 4.4576,2.169 L 4.4087,2.3079 L 4.3569,2.4457 L 4.3021,2.5823 L 4.2443,2.7177 L 4.1835,2.8518 L 4.1199,2.9845 L 4.0534,3.1158 L 3.984,3.2457 L 3.9118,3.374 L 3.8368,3.5007 L 3.7591,3.6257 L 3.6787,3.749 L 3.5956,3.8705 L 3.5099,3.9902 L 3.4216,4.108 L 3.3307,4.2238 L 3.2374,4.3376 L 3.1415,4.4494 L 3.0433,4.559 L 2.9427,4.6665 L 2.8398,4.7717 L 2.7346,4.8747 L 2.6272,4.9753 L 2.5176,5.0736 L 2.4059,5.1695 L 2.2921,5.2629 L 2.1763,5.3539 L 2.0586,5.4422 L 1.939,5.528 L 1.8175,5.6112 L 1.6942,5.6917 L 1.5693,5.7694 L 1.4426,5.8445 L 1.3143,5.9167 L 1.1845,5.9862 L 1.0533,6.0528 L 0.9206,6.1165 L 0.7865,6.1773 L 0.6511,6.2352 L 0.5145,6.2901 L 0.3768,6.342 L 0.2379,6.3909 L 0.0981,6.4367 L -0.0428,6.4795 L -0.1846,6.5192 L -0.3271,6.5558 L -0.4705,6.5893 L -0.6145,6.6197 L -0.7592,6.6469 L -0.9044,6.6709 L -1.0502,6.6918 L -1.1963,6.7095 L -1.3428,6.724 L -1.4896,6.7353 L -1.6366,6.7434 L -1.7837,6.7483 L -1.9309,6.75" />
      <path d="M -1.9309,-6.75 L -1.7837,-6.7483 L -1.6366,-6.7434 L -1.4896,-6.7353 L -1.3428,-6.724 L -1.1963,-6.7095 L -1.0502,-6.6918 L -0.9044,-6.6709 L -0.7592,-6.6469 L -0.6145,-6.6197 L -0.4705,-6.5893 L -0.3271,-6.5558 L -0.1846,-6.5192 L -0.0428,-6.4795 L 0.0981,-6.4367 L 0.2379,-6.3909 L 0.3768,-6.342 L 0.5145,-6.2901 L 0.6511,-6.2352 L 0.7865,-6.1773 L 0.9206,-6.1165 L 1.0533,-6.0528 L 1.1845,-5.9862 L 1.3143,-5.9167 L 1.4426,-5.8445 L 1.5693,-5.7694 L 1.6942,-5.6917 L 1.8175,-5.6112 L 1.939,-5.528 L 2.0586,-5.4422 L 2.1763,-5.3539 L 2.2921,-5.2629 L 2.4059,-5.1695 L 2.5176,-5.0736 L 2.6272,-4.9753 L 2.7346,-4.8747 L 2.8398,-4.7717 L 2.9427,-4.6665 L 3.0433,-4.559 L 3.1415,-4.4494 L 3.2374,-4.3376 L 3.3307,-4.2238 L 3.4216,-4.108 L 3.5099,-3.9902 L 3.5956,-3.8705 L 3.6787,-3.749 L 3.7591,-3.6257 L 3.8368,-3.5007 L 3.9118,-3.374 L 3.984,-3.2457 L 4.0534,-3.1158 L 4.1199,-2.9845 L 4.1835,-2.8518 L 4.2443,-2.7177 L 4.3021,-2.5823 L 4.3569,-2.4457 L 4.4087,-2.3079 L 4.4576,-2.169 L 4.5033,-2.0291 L 4.5461,-1.8882 L 4.5857,-1.7465 L 4.6222,-1.6038 L 4.6556,-1.4605 L 4.6859,-1.3164 L 4.7131,-1.1717 L 4.737,-1.0265 L 4.7578,-0.8808 L 4.7754,-0.7346 L 4.7899,-0.5881 L 4.8011,-0.4413 L 4.8091,-0.2943 L 4.8139,-0.1472 L 4.8155,0.0" />
      <path d="M 13.075,13.0 L 12.6582,13.0 L 12.2415,13.0 L 11.8248,13.0 L 11.4081,13.0 L 10.9913,13.0 L 10.5746,13.0 L 10.1579,13.0 L 9.7411,13.0 L 9.3244,13.0 L 8.9077,13.0 L 8.4909,13.0 L 8.0742,13.0 L 7.6575,13.0 L 7.2408,13.0 L 6.824,13.0 L 6.4073,13.0 L 5.9906,13.0 L 5.5738,13.0 L 5.1571,13.0 L 4.7404,13.0 L 4.3236,13.0 L 3.9069,13.0 L 3.4902,13.0 L 3.0734,13.0 L 2.6567,13.0 L 2.24,13.0 L 1.8233,13.0 L 1.4065,13.0 L 0.9898,13.0 L 0.5731,13.0 L 0.1563,13.0 L -0.2604,13.0 L -0.6771,13.0 L -1.0939,13.0 L -1.5106,13.0 L -1.9273,13.0 L -2.344,13.0 L -2.7608,13.0 L -3.1775,13.0 L -3.5942,13.0 L -4.011,13.0 L -4.4277,13.0 L -4.8444,13.0 L -5.2612,13.0 L -5.6779,13.0 L -6.0946,13.0 L -6.5113,13.0 L -6.9281,13.0 L -7.3448,13.0 L -7.7615,13.0 L -8.1783,13.0 L -8.595,13.0 L -9.0117,13.0 L -9.4285,13.0 L -9.8452,13.0 L -10.2619,13.0 L -10.6786,13.0 L -11.0954,13.0 L -11.5121,13.0 L -11.9288,13.0 L -12.3456,13.0 L -12.7623,13.0 L -13.179,13.0 L -13.5958,13.0 L -14.0125,13.0 L -14.4292,13.0 L -14.846,13.0 L -15.2627,13.0 L -15.6794,13.0 L -16.0961,13.0 L -16.5129,13.0 L -16.9296,13.0" />
      <path d="M -16.9296,13.0 L -16.9297,13.0 L -16.9298,13.0 L -16.9299,13.0 L -16.93,13.0 L -16.9301,13.0 L -16.9302,13.0 L -16.9303,13.0 L -16.9304,13.0 L -16.9305,13.0 L -16.9306,13.0 L -16.9307,13.0 L -16.9308,13.0 L -16.9309,13.0 L -16.931,13.0 L -16.9311,13.0 L -16.9312,13.0 L -16.9313,13.0 L -16.9314,13.0 L -16.9315,13.0 L -16.9316,13.0 L -16.9317,13.0 L -16.9318,13.0 L -16.9319,13.0 L -16.932,13.0 L -16.9321,13.0 L -16.9322,13.0 L -16.9323,13.0 L -16.9324,13.0 L -16.9325,13.0 L -16.9326,13.0 L -16.9327,13.0 L -16.9328,13.0 L -16.9329,13.0 L -16.933,13.0 L -16.9331,13.0 L -16.9332,13.0 L -16.9333,13.0 L -16.9334,13.0 L -16.9335,13.0 L -16.9336,13.0 L -16.9337,13.0 L -16.9338,13.0 L -16.9339,13.0 L -16.934,13.0 L -16.9341,13.0 L -16.9342,13.0 L -16.9343,13.0 L -16.9344,13.0" />
      <path d="M -16.9296,-13.0 L -16.9297,-13.0 L -16.9298,-13.0 L -16.9299,-13.0 L -16.93,-13.0 L -16.9301,-13.0 L -16.9302,-13.0 L -16.9303,-13.0 L -16.9304,-13.0 L -16.9305,-13.0 L -16.9306,-13.0 L -16.9307,-13.0 L -16.9308,-13.0 L -16.9309,-13.0 L -16.931,-13.0 L -16.9311,-13.0 L -16.9312,-13.0 L -16.9313,-13.0 L -16.9314,-13.0 L -16.9315,-13.0 L -16.9316,-13.0 L -16.9317,-13.0 L -16.9318,-13.0 L -16.9319,-13.0 L -16.932,-13.0 L -16.9321,-13.0 L -16.9322,-13.0 L -16.9323,-13.0 L -16.9324,-13.0 L -16.9325,-13.0 L -16.9326,-13.0 L -16.9327,-13.0 L -16.9328,-13.0 L -16.9329,-13.0 L -16.933,-13.0 L -16.9331,-13.0 L -16.9332,-13.0 L -16.9333,-13.0 L -16.9334,-13.0 L -16.9335,-13.0 L -16.9336,-13.0 L -16.9337,-13.0 L -16.9338,-13.0 L -16.9339,-13.0 L -16.934,-13.0 L -16.9341,-13.0 L -16.9342,-13.0 L -16.9343,-13.0 L -16.9344,-13.0" />
      <path d="M -16.9296,-13.0 L -16.9296,-12.6389 L -16.9296,-12.2778 L -16.9296,-11.9167 L -16.9296,-11.5556 L -16.9296,-11.1944 L -16.9296,-10.8333 L -16.9296,-10.4722 L -16.9296,-10.1111 L -16.9296,-9.75 L -16.9296,-9.3889 L -16.9296,-9.0278 L -16.9296,-8.6667 L -16.9296,-8.3056 L -16.9296,-7.9444 L -16.9296,-7.5833 L -16.9296,-7.2222 L -16.9296,-6.8611 L -16.9296,-6.5 L -16.9296,-6.1389 L -16.9296,-5.7778 L -16.9296,-5.4167 L -16.9296,-5.0556 L -16.9296,-4.6944 L -16.9296,-4.3333 L -16.9296,-3.9722 L -16.9296,-3.6111 L -16.9296,-3.25 L -16.9296,-2.8889 L -16.9296,-2.5278 L -16.9296,-2.1667 L -16.9296,-1.8056 L -16.9296,-1.4444 L -16.9296,-1.0833 L -16.9296,-0.7222 L -16.9296,-0.3611 L -16.9296,0.0 L -16.9296,0.3611 L -16.9296,0.7222 L -16.9296,1.0833 L -16.9296,1.4444 L -16.9296,1.8056 L -16.9296,2.1667 L -16.9296,2.5278 L -16.9296,2.8889 L -16.9296,3.25 L -16.9296,3.6111 L -16.9296,3.9722 L -16.9296,4.3333 L -16.9296,4.6944 L -16.9296,5.0556 L -16.9296,5.4167 L -16.9296,5.7778 L -16.9296,6.1389 L -16.9296,6.5 L -16.9296,6.8611 L -16.9296,7.2222 L -16.9296,7.5833 L -16.9296,7.9444 L -16.9296,8.3056 L -16.9296,8.6667 L -16.9296,9.0278 L -16.9296,9.3889 L -16.9296,9.75 L -16.9296,10.1111 L -16.9296,10.4722 L -16.9296,10.8333 L -16.9296,11.1944 L -16.9296,11.5556 L -16.9296,11.9167 L -16.9296,12.2778 L -16.9296,12.6389 L -16.9296,13.0" />
      <path d="M 13.075,13.0 L 13.075,12.6389 L 13.075,12.2778 L 13.075,11.9167 L 13.075,11.5556 L 13.075,11.1944 L 13.075,10.8333 L 13.075,10.4722 L 13.075,10.1111 L 13.075,9.75 L 13.075,9.3889 L 13.075,9.0278 L 13.075,8.6667 L 13.075,8.3056 L 13.075,7.9444 L 13.075,7.5833 L 13.075,7.2222 L 13.075,6.8611 L 13.075,6.5 L 13.075,6.1389 L 13.075,5.7778 L 13.075,5.4167 L 13.075,5.0556 L 13.075,4.6944 L 13.075,4.3333 L 13.075,3.9722 L 13.075,3.6111 L 13.075,3.25 L 13.075,2.8889 L 13.075,2.5278 L 13.075,2.1667 L 13.075,1.8056 L 13.075,1.4444 L 13.075,1.0833 L 13.075,0.7222 L 13.075,0.3611 L 13.075,0.0 L 13.075,-0.3611 L 13.075,-0.7222 L 13.075,-1.0833 L 13.075,-1.4444 L 13.075,-1.8056 L 13.075,-2.1667 L 13.075,-2.5278 L 13.075,-2.8889 L 13.075,-3.25 L 13.075,-3.6111 L 13.075,-3.9722 L 13.075,-4.3333 L 13.075,-4.6944 L 13.075,-5.0556 L 13.075,-5.4167 L 13.075,-5.7778 L 13.075,-6.1389 L 13.075,-6.5 L 13.075,-6.8611 L 13.075,-7.2222 L 13.075,-7.5833 L 13.075,-7.9444 L 13.075,-8.3056 L 13.075,-8.6667 L 13.075,-9.0278 L 13.075,-9.3889 L 13.075,-9.75 L 13.075,-10.1111 L 13.075,-10.4722 L 13.075,-10.8333 L 13.075,-11.1944 L 13.075,-11.5556 L 13.075,-11.9167 L 13.075,-12.2778 L 13.075,-12.6389 L 13.075,-13.0" />
      <path d="M 13.075,-13.0 L 12.6582,-13.0 L 12.2415,-13.0 L 11.8248,-13.0 L 11.4081,-13.0 L 10.9913,-13.0 L 10.5746,-13.0 L 10.1579,-13.0 L 9.7411,-13.0 L 9.3244,-13.0 L 8.9077,-13.0 L 8.4909,-13.0 L 8.0742,-13.0 L 7.6575,-13.0 L 7.2408,-13.0 L 6.824,-13.0 L 6.4073,-13.0 L 5.9906,-13.0 L 5.5738,-13.0 L 5.1571,-13.0 L 4.7404,-13.0 L 4.3236,-13.0 L 3.9069,-13.0 L 3.4902,-13.0 L 3.0734,-13.0 L 2.6567,-13.0 L 2.24,-13.0 L 1.8233,-13.0 L 1.4065,-13.0 L 0.9898,-13.0 L 0.5731,-13.0 L 0.1563,-13.0 L -0.2604,-13.0 L -0.6771,-13.0 L -1.0939,-13.0 L -1.5106,-13.0 L -1.9273,-13.0 L -2.344,-13.0 L -2.7608,-13.0 L -3.1775,-13.0 L -3.5942,-13.0 L -4.011,-13.0 L -4.4277,-13.0 L -4.8444,-13.0 L -5.2612,-13.0 L -5.6779,-13.0 L -6.0946,-13.0 L -6.5113,-13.0 L -6.9281,-13.0 L -7.3448,-13.0 L -7.7615,-13.0 L -8.1783,-13.0 L -8.595,-13.0 L -9.0117,-13.0 L -9.4285,-13.0 L -9.8452,-13.0 L -10.2619,-13.0 L -10.6786,-13.0 L -11.0954,-13.0 L -11.5121,-13.0 L -11.9288,-13.0 L -12.3456,-13.0 L -12.7623,-13.0 L -13.179,-13.0 L -13.5958,-13.0 L -14.0125,-13.0 L -14.4292,-13.0 L -14.846,-13.0 L -15.2627,-13.0 L -15.6794,-13.0 L -16.0961,-13.0 L -16.5129,-13.0 L -16.9296,-13.0" />
      <path d="M 4.8237,0.0 L 4.8155,0.147 L 4.8072,0.2939 L 4.799,0.4409 L 4.7907,0.5879 L 4.7824,0.7348 L 4.7601,0.8802 L 4.7355,1.0253 L 4.7108,1.1704 L 4.6861,1.3155 L 4.6615,1.4607 L 4.6253,1.6032 L 4.5846,1.7446 L 4.5438,1.886 L 4.503,2.0275 L 4.4623,2.1689 L 4.4126,2.3072 L 4.3563,2.4432 L 4.2999,2.5792 L 4.2436,2.7152 L 4.1873,2.8512 L 4.1245,2.9841 L 4.0533,3.1129 L 3.9821,3.2418 L 3.9109,3.3706 L 3.8397,3.4994 L 3.7645,3.6257 L 3.6793,3.7457 L 3.5941,3.8658 L 3.5089,3.9858 L 3.4237,4.1059 L 3.3367,4.2244 L 3.2386,4.3342 L 3.1405,4.4439 L 3.0424,4.5537 L 2.9443,4.6634 L 2.8462,4.7731 L 2.7364,4.8712 L 2.6267,4.9693 L 2.5169,5.0674 L 2.4071,5.1654 L 2.2974,5.2635 L 2.1788,5.3505 L 2.0587,5.4357 L 1.9387,5.5208 L 1.8186,5.606 L 1.6986,5.6912 L 1.5722,5.7664 L 1.4434,5.8375 L 1.3146,5.9087 L 1.1857,5.9799 L 1.0569,6.0511 L 0.924,6.1138 L 0.788,6.1701 L 0.652,6.2264 L 0.516,6.2828 L 0.38,6.3391 L 0.2416,6.3887 L 0.1002,6.4295 L -0.0413,6.4702 L -0.1827,6.5109 L -0.3241,6.5517 L -0.4666,6.5878 L -0.6118,6.6125 L -0.7569,6.6371 L -0.902,6.6618 L -1.0471,6.6864 L -1.1925,6.7087 L -1.3395,6.717 L -1.4864,6.7252 L -1.6334,6.7335 L -1.7803,6.7417 L -1.9273,6.75" />
      <path d="M -1.9273,6.75 L -2.2194,6.7171 L -2.5115,6.6842 L -2.8036,6.6513 L -3.0956,6.6184 L -3.3877,6.5855 L -3.6673,6.4976 L -3.9447,6.4005 L -4.2221,6.3035 L -4.4996,6.2064 L -4.777,6.1093 L -5.0341,5.97 L -5.283,5.8136 L -5.5319,5.6572 L -5.7807,5.5009 L -6.0296,5.3445 L -6.2551,5.1588 L -6.463,4.951 L -6.6708,4.7431 L -6.8787,4.5353 L -7.0865,4.3275 L -7.2724,4.1021 L -7.4288,3.8532 L -7.5852,3.6044 L -7.7416,3.3555 L -7.898,3.1066 L -8.0375,2.8496 L -8.1345,2.5722 L -8.2316,2.2948 L -8.3287,2.0173 L -8.4258,1.7399 L -8.5138,1.4604 L -8.5467,1.1683 L -8.5796,0.8762 L -8.6125,0.5842 L -8.6454,0.2921 L -8.6783,-0.0 L -8.6454,-0.2921 L -8.6125,-0.5842 L -8.5796,-0.8762 L -8.5467,-1.1683 L -8.5138,-1.4604 L -8.4258,-1.7399 L -8.3287,-2.0173 L -8.2316,-2.2948 L -8.1345,-2.5722 L -8.0375,-2.8496 L -7.898,-3.1066 L -7.7416,-3.3555 L -7.5852,-3.6044 L -7.4288,-3.8532 L -7.2724,-4.1021 L -7.0865,-4.3275 L -6.8787,-4.5353 L -6.6708,-4.7431 L -6.463,-4.951 L -6.2551,-5.1588 L -6.0296,-5.3445 L -5.7807,-5.5009 L -5.5319,-5.6572 L -5.283,-5.8136 L -5.0341,-5.97 L -4.777,-6.1093 L -4.4996,-6.2064 L -4.2221,-6.3035 L -3.9447,-6.4005 L -3.6673,-6.4976 L -3.3877,-6.5855 L -3.0956,-6.6184 L -2.8036,-6.6513 L -2.5115,-6.6842 L -2.2194,-6.7171 L -1.9273,-6.75" />
      <path d="M -1.9273,-6.75 L -1.7803,-6.7417 L -1.6334,-6.7335 L -1.4864,-6.7252 L -1.3395,-6.717 L -1.1925,-6.7087 L -1.0471,-6.6864 L -0.902,-6.6618 L -0.7569,-6.6371 L -0.6118,-6.6125 L -0.4666,-6.5878 L -0.3241,-6.5517 L -0.1827,-6.5109 L -0.0413,-6.4702 L 0.1002,-6.4295 L 0.2416,-6.3887 L 0.38,-6.3391 L 0.516,-6.2828 L 0.652,-6.2264 L 0.788,-6.1701 L 0.924,-6.1138 L 1.0569,-6.0511 L 1.1857,-5.9799 L 1.3146,-5.9087 L 1.4434,-5.8375 L 1.5722,-5.7664 L 1.6986,-5.6912 L 1.8186,-5.606 L 1.9387,-5.5208 L 2.0587,-5.4357 L 2.1788,-5.3505 L 2.2974,-5.2635 L 2.4071,-5.1654 L 2.5169,-5.0674 L 2.6267,-4.9693 L 2.7364,-4.8712 L 2.8462,-4.7731 L 2.9443,-4.6634 L 3.0424,-4.5537 L 3.1405,-4.4439 L 3.2386,-4.3342 L 3.3367,-4.2244 L 3.4237,-4.1059 L 3.5089,-3.9858 L 3.5941,-3.8658 L 3.6793,-3.7457 L 3.7645,-3.6257 L 3.8397,-3.4994 L 3.9109,-3.3706 L 3.9821,-3.2418 L 4.0533,-3.1129 L 4.1245,-2.9841 L 4.1873,-2.8512 L 4.2436,-2.7152 L 4.2999,-2.5792 L 4.3563,-2.4432 L 4.4126,-2.3072 L 4.4623,-2.1689 L 4.503,-2.0275 L 4.5438,-1.886 L 4.5846,-1.7446 L 4.6253,-1.6032 L 4.6615,-1.4607 L 4.6861,-1.3155 L 4.7108,-1.1704 L 4.7355,-1.0253 L 4.7601,-0.8802 L 4.7824,-0.7348 L 4.7907,-0.5879 L 4.799,-0.4409 L 4.8072,-0.2939 L 4.8155,-0.147 L 4.8237,0.0" />
      <path d="M 21.9886,-16.9056 L 21.9884,-16.9063 L 21.9882,-16.907 L 21.988,-16.9077 L 21.9878,-16.9084 L 21.9876,-16.9091 L 21.9874,-16.9098 L 21.9872,-16.9105 L 21.9871,-16.9112 L 21.9869,-16.9119 L 21.9867,-16.9126 L 21.9865,-16.9133 L 21.9863,-16.914 L 21.9861,-16.9147 L 21.9859,-16.9154 L 21.9857,-16.9161 L 21.9855,-16.9168 L 21.9854,-16.9175 L 21.9852,-16.9182 L 21.985,-16.9189 L 21.9848,-16.9196 L 21.9846,-16.9203 L 21.9844,-16.9209 L 21.9842,-16.9216 L 21.984,-16.9223 L 21.9838,-16.923 L 21.9837,-16.9237 L 21.9835,-16.9244 L 21.9833,-16.9251 L 21.9831,-16.9258 L 21.9829,-16.9265 L 21.9827,-16.9272 L 21.9825,-16.9279 L 21.9823,-16.9286 L 21.9821,-16.9293 L 21.982,-16.93 L 21.9818,-16.9307 L 21.9816,-16.9314 L 21.9814,-16.9321 L 21.9812,-16.9328 L 21.981,-16.9335 L 21.9808,-16.9342 L 21.9806,-16.9349 L 21.9804,-16.9356 L 21.9803,-16.9363 L 21.9801,-16.937 L 21.9799,-16.9377 L 21.9797,-16.9384 L 21.9795,-16.9391 L 21.9793,-16.9398 L 21.9791,-16.9405 L 21.9789,-16.9412 L 21.9787,-16.9419 L 21.9786,-16.9426 L 21.9784,-16.9433 L 21.9782,-16.944 L 21.978,-16.9447 L 21.9778,-16.9453 L 21.9776,-16.946 L 21.9774,-16.9467 L 21.9772,-16.9474 L 21.9771,-16.9481 L 21.9769,-16.9488 L 21.9767,-16.9495 L 21.9765,-16.9502 L 21.9763,-16.9509 L 21.9761,-16.9516 L 21.9759,-16.9523 L 21.9757,-16.953 L 21.9755,-16.9537 L 21.9754,-16.9544 L 21.9752,-16.9551 L 21.975,-16.9558" />
      <path d="M 21.9886,-16.9056 L 21.9886,-16.4889 L 21.9886,-16.0723 L 21.9886,-15.6556 L 21.9886,-15.2389 L 21.9886,-14.8223 L 21.9886,-14.4056 L 21.9886,-13.9889 L 21.9886,-13.5723 L 21.9886,-13.1556 L 21.9886,-12.7389 L 21.9886,-12.3223 L 21.9886,-11.9056 L 21.9886,-11.489 L 21.9886,-11.0723 L 21.9886,-10.6556 L 21.9886,-10.239 L 21.9886,-9.8223 L 21.9886,-9.4056 L 21.9886,-8.989 L 21.9886,-8.5723 L 21.9886,-8.1556 L 21.9886,-7.739 L 21.9886,-7.3223 L 21.9886,-6.9056 L 21.9886,-6.489 L 21.9886,-6.0723 L 21.9886,-5.6556 L 21.9886,-5.239 L 21.9886,-4.8223 L 21.9886,-4.4056 L 21.9886,-3.989 L 21.9886,-3.5723 L 21.9886,-3.1556 L 21.9886,-2.739 L 21.9886,-2.3223 L 21.9886,-1.9056 L 21.9886,-1.489 L 21.9886,-1.0723 L 21.9886,-0.6556 L 21.9886,-0.239 L 21.9886,0.1777 L 21.9886,0.5944 L 21.9886,1.011 L 21.9886,1.4277 L 21.9886,1.8444 L 21.9886,2.261 L 21.9886,2.6777 L 21.9886,3.0944 L 21.9886,3.511 L 21.9886,3.9277 L 21.9886,4.3444 L 21.9886,4.761 L 21.9886,5.1777 L 21.9886,5.5943 L 21.9886,6.011 L 21.9886,6.4277 L 21.9886,6.8443 L 21.9886,7.261 L 21.9886,7.6777 L 21.9886,8.0943 L 21.9886,8.511 L 21.9886,8.9277 L 21.9886,9.3443 L 21.9886,9.761 L 21.9886,10.1777 L 21.9886,10.5943 L 21.9886,11.011 L 21.9886,11.4277 L 21.9886,11.8443 L 21.9886,12.261 L 21.9886,12.6777 L 21.9886,13.0943" />
      <path d="M 17.075,13.0441 L 17.1083,12.6275 L 17.1416,12.2108 L 17.175,11.7941 L 17.2083,11.3775 L 17.2416,10.9608 L 17.275,10.5441 L 17.3083,10.1275 L 17.3416,9.7108 L 17.375,9.2941 L 17.4083,8.8775 L 17.4416,8.4608 L 17.475,8.0442 L 17.5083,7.6275 L 17.5416,7.2108 L 17.575,6.7942 L 17.6083,6.3775 L 17.6416,5.9608 L 17.675,5.5442 L 17.7083,5.1275 L 17.7416,4.7108 L 17.775,4.2942 L 17.8083,3.8775 L 17.8416,3.4608 L 17.875,3.0442 L 17.9083,2.6275 L 17.9416,2.2108 L 17.975,1.7942 L 18.0083,1.3775 L 18.0416,0.9608 L 18.075,0.5442 L 18.1083,0.1275 L 18.1416,-0.2892 L 18.175,-0.7058 L 18.2083,-1.1225 L 18.2416,-1.5392 L 18.275,-1.9558 L 18.3083,-2.3725 L 18.3416,-2.7892 L 18.375,-3.2058 L 18.4083,-3.6225 L 18.4416,-4.0392 L 18.475,-4.4558 L 18.5083,-4.8725 L 18.5416,-5.2892 L 18.575,-5.7058 L 18.6083,-6.1225 L 18.6416,-6.5392 L 18.675,-6.9558 L 18.7083,-7.3725 L 18.7416,-7.7892 L 18.775,-8.2058 L 18.8083,-8.6225 L 18.8416,-9.0392 L 18.875,-9.4558 L 18.9083,-9.8725 L 18.9416,-10.2892 L 18.975,-10.7058 L 19.0083,-11.1225 L 19.0416,-11.5391 L 19.075,-11.9558 L 19.1083,-12.3725 L 19.1416,-12.7891 L 19.175,-13.2058 L 19.2083,-13.6225 L 19.2416,-14.0391 L 19.275,-14.4558 L 19.3083,-14.8725 L 19.3416,-15.2891 L 19.375,-15.7058 L 19.4083,-16.1225 L 19.4416,-16.5391 L 19.475,-16.9558" />
      <path d="M 19.475,-16.9558 L 19.5097,-16.9558 L 19.5444,-16.9558 L 19.5791,-16.9558 L 19.6139,-16.9558 L 19.6486,-16.9558 L 19.6833,-16.9558 L 19.718,-16.9558 L 19.7528,-16.9558 L 19.7875,-16.9558 L 19.8222,-16.9558 L 19.8569,-16.9558 L 19.8916,-16.9558 L 19.9264,-16.9558 L 19.9611,-16.9558 L 19.9958,-16.9558 L 20.0305,-16.9558 L 20.0653,-16.9558 L 20.1,-16.9558 L 20.1347,-16.9558 L 20.1694,-16.9558 L 20.2041,-16.9558 L 20.2389,-16.9558 L 20.2736,-16.9558 L 20.3083,-16.9558 L 20.343,-16.9558 L 20.3778,-16.9558 L 20.4125,-16.9558 L 20.4472,-16.9558 L 20.4819,-16.9558 L 20.5166,-16.9558 L 20.5514,-16.9558 L 20.5861,-16.9558 L 20.6208,-16.9558 L 20.6555,-16.9558 L 20.6903,-16.9558 L 20.725,-16.9558 L 20.7597,-16.9558 L 20.7944,-16.9558 L 20.8291,-16.9558 L 20.8639,-16.9558 L 20.8986,-16.9558 L 20.9333,-16.9558 L 20.968,-16.9558 L 21.0028,-16.9558 L 21.0375,-16.9558 L 21.0722,-16.9558 L 21.1069,-16.9558 L 21.1416,-16.9558 L 21.1764,-16.9558 L 21.2111,-16.9558 L 21.2458,-16.9558 L 21.2805,-16.9558 L 21.3153,-16.9558 L 21.35,-16.9558 L 21.3847,-16.9558 L 21.4194,-16.9558 L 21.4541,-16.9558 L 21.4889,-16.9558 L 21.5236,-16.9558 L 21.5583,-16.9558 L 21.593,-16.9558 L 21.6278,-16.9558 L 21.6625,-16.9558 L 21.6972,-16.9558 L 21.7319,-16.9558 L 21.7666,-16.9558 L 21.8014,-16.9558 L 21.8361,-16.9558 L 21.8708,-16.9558 L 21.9055,-16.9558 L 21.9403,-16.9558 L 21.975,-16.9558" />
      <path d="M 19.4886,-16.9056 L 19.5233,-16.9056 L 19.558,-16.9056 L 19.5927,-16.9056 L 19.6275,-16.9056 L 19.6622,-16.9056 L 19.6969,-16.9056 L 19.7316,-16.9056 L 19.7663,-16.9056 L 19.8011,-16.9056 L 19.8358,-16.9056 L 19.8705,-16.9056 L 19.9052,-16.9056 L 19.94,-16.9056 L 19.9747,-16.9056 L 20.0094,-16.9056 L 20.0441,-16.9056 L 20.0788,-16.9056 L 20.1136,-16.9056 L 20.1483,-16.9056 L 20.183,-16.9056 L 20.2177,-16.9056 L 20.2525,-16.9056 L 20.2872,-16.9056 L 20.3219,-16.9056 L 20.3566,-16.9056 L 20.3913,-16.9056 L 20.4261,-16.9056 L 20.4608,-16.9056 L 20.4955,-16.9056 L 20.5302,-16.9056 L 20.565,-16.9056 L 20.5997,-16.9056 L 20.6344,-16.9056 L 20.6691,-16.9056 L 20.7038,-16.9056 L 20.7386,-16.9056 L 20.7733,-16.9056 L 20.808,-16.9056 L 20.8427,-16.9056 L 20.8775,-16.9056 L 20.9122,-16.9056 L 20.9469,-16.9056 L 20.9816,-16.9056 L 21.0163,-16.9056 L 21.0511,-16.9056 L 21.0858,-16.9056 L 21.1205,-16.9056 L 21.1552,-16.9056 L 21.19,-16.9056 L 21.2247,-16.9056 L 21.2594,-16.9056 L 21.2941,-16.9056 L 21.3288,-16.9056 L 21.3636,-16.9056 L 21.3983,-16.9056 L 21.433,-16.9056 L 21.4677,-16.9056 L 21.5025,-16.9056 L 21.5372,-16.9056 L 21.5719,-16.9056 L 21.6066,-16.9056 L 21.6413,-16.9056 L 21.6761,-16.9056 L 21.7108,-16.9056 L 21.7455,-16.9056 L 21.7802,-16.9056 L 21.815,-16.9056 L 21.8497,-16.9056 L 21.8844,-16.9056 L 21.9191,-16.9056 L 21.9538,-16.9056 L 21.9886,-16.9056" />
      <path d="M 19.4886,-16.9056 L 19.4884,-16.9063 L 19.4882,-16.907 L 19.488,-16.9077 L 19.4878,-16.9084 L 19.4876,-16.9091 L 19.4874,-16.9098 L 19.4872,-16.9105 L 19.4871,-16.9112 L 19.4869,-16.9119 L 19.4867,-16.9126 L 19.4865,-16.9133 L 19.4863,-16.914 L 19.4861,-16.9147 L 19.4859,-16.9154 L 19.4857,-16.9161 L 19.4855,-16.9168 L 19.4854,-16.9175 L 19.4852,-16.9182 L 19.485,-16.9189 L 19.4848,-16.9196 L 19.4846,-16.9202 L 19.4844,-16.9209 L 19.4842,-16.9216 L 19.484,-16.9223 L 19.4838,-16.923 L 19.4837,-16.9237 L 19.4835,-16.9244 L 19.4833,-16.9251 L 19.4831,-16.9258 L 19.4829,-16.9265 L 19.4827,-16.9272 L 19.4825,-16.9279 L 19.4823,-16.9286 L 19.4821,-16.9293 L 19.482,-16.93 L 19.4818,-16.9307 L 19.4816,-16.9314 L 19.4814,-16.9321 L 19.4812,-16.9328 L 19.481,-16.9335 L 19.4808,-16.9342 L 19.4806,-16.9349 L 19.4804,-16.9356 L 19.4803,-16.9363 L 19.4801,-16.937 L 19.4799,-16.9377 L 19.4797,-16.9384 L 19.4795,-16.9391 L 19.4793,-16.9398 L 19.4791,-16.9405 L 19.4789,-16.9412 L 19.4787,-16.9419 L 19.4786,-16.9426 L 19.4784,-16.9433 L 19.4782,-16.944 L 19.478,-16.9447 L 19.4778,-16.9453 L 19.4776,-16.946 L 19.4774,-16.9467 L 19.4772,-16.9474 L 19.4771,-16.9481 L 19.4769,-16.9488 L 19.4767,-16.9495 L 19.4765,-16.9502 L 19.4763,-16.9509 L 19.4761,-16.9516 L 19.4759,-16.9523 L 19.4757,-16.953 L 19.4755,-16.9537 L 19.4754,-16.9544 L 19.4752,-16.9551 L 19.475,-16.9558" />
      <path d="M 17.075,13.0441 L 17.0752,13.0448 L 17.0754,13.0455 L 17.0755,13.0462 L 17.0757,13.0469 L 17.0759,13.0476 L 17.0761,13.0483 L 17.0763,13.049 L 17.0765,13.0497 L 17.0767,13.0504 L 17.0769,13.0511 L 17.0771,13.0518 L 17.0772,13.0525 L 17.0774,13.0532 L 17.0776,13.0539 L 17.0778,13.0546 L 17.078,13.0553 L 17.0782,13.056 L 17.0784,13.0567 L 17.0786,13.0574 L 17.0787,13.0581 L 17.0789,13.0588 L 17.0791,13.0595 L 17.0793,13.0602 L 17.0795,13.0609 L 17.0797,13.0616 L 17.0799,13.0623 L 17.0801,13.063 L 17.0803,13.0637 L 17.0804,13.0644 L 17.0806,13.0651 L 17.0808,13.0658 L 17.081,13.0665 L 17.0812,13.0671 L 17.0814,13.0678 L 17.0816,13.0685 L 17.0818,13.0692 L 17.082,13.0699 L 17.0821,13.0706 L 17.0823,13.0713 L 17.0825,13.072 L 17.0827,13.0727 L 17.0829,13.0734 L 17.0831,13.0741 L 17.0833,13.0748 L 17.0835,13.0755 L 17.0837,13.0762 L 17.0838,13.0769 L 17.084,13.0776 L 17.0842,13.0783 L 17.0844,13.079 L 17.0846,13.0797 L 17.0848,13.0804 L 17.085,13.0811 L 17.0852,13.0818 L 17.0854,13.0825 L 17.0855,13.0832 L 17.0857,13.0839 L 17.0859,13.0846 L 17.0861,13.0853 L 17.0863,13.086 L 17.0865,13.0867 L 17.0867,13.0874 L 17.0869,13.0881 L 17.0871,13.0888 L 17.0872,13.0895 L 17.0874,13.0902 L 17.0876,13.0909 L 17.0878,13.0916 L 17.088,13.0922 L 17.0882,13.0929 L 17.0884,13.0936 L 17.0886,13.0943" />
      <path d="M 21.9886,13.0943 L 21.9205,13.0943 L 21.8525,13.0943 L 21.7844,13.0943 L 21.7163,13.0943 L 21.6483,13.0943 L 21.5802,13.0943 L 21.5122,13.0943 L 21.4441,13.0943 L 21.3761,13.0943 L 21.308,13.0943 L 21.24,13.0943 L 21.1719,13.0943 L 21.1038,13.0943 L 21.0358,13.0943 L 20.9677,13.0943 L 20.8997,13.0943 L 20.8316,13.0943 L 20.7636,13.0943 L 20.6955,13.0943 L 20.6275,13.0943 L 20.5594,13.0943 L 20.4913,13.0943 L 20.4233,13.0943 L 20.3552,13.0943 L 20.2872,13.0943 L 20.2191,13.0943 L 20.1511,13.0943 L 20.083,13.0943 L 20.015,13.0943 L 19.9469,13.0943 L 19.8788,13.0943 L 19.8108,13.0943 L 19.7427,13.0943 L 19.6747,13.0943 L 19.6066,13.0943 L 19.5386,13.0943 L 19.4705,13.0943 L 19.4025,13.0943 L 19.3344,13.0943 L 19.2663,13.0943 L 19.1983,13.0943 L 19.1302,13.0943 L 19.0622,13.0943 L 18.9941,13.0943 L 18.9261,13.0943 L 18.858,13.0943 L 18.79,13.0943 L 18.7219,13.0943 L 18.6538,13.0943 L 18.5858,13.0943 L 18.5177,13.0943 L 18.4497,13.0943 L 18.3816,13.0943 L 18.3136,13.0943 L 18.2455,13.0943 L 18.1775,13.0943 L 18.1094,13.0943 L 18.0413,13.0943 L 17.9733,13.0943 L 17.9052,13.0943 L 17.8372,13.0943 L 17.7691,13.0943 L 17.7011,13.0943 L 17.633,13.0943 L 17.565,13.0943 L 17.4969,13.0943 L 17.4288,13.0943 L 17.3608,13.0943 L 17.2927,13.0943 L 17.2247,13.0943 L 17.1566,13.0943 L 17.0886,13.0943" />
      <path d="M 17.0886,13.0943 L 17.1219,12.6777 L 17.1552,12.261 L 17.1886,11.8443 L 17.2219,11.4277 L 17.2552,11.011 L 17.2886,10.5943 L 17.3219,10.1777 L 17.3552,9.761 L 17.3886,9.3443 L 17.4219,8.9277 L 17.4552,8.511 L 17.4886,8.0943 L 17.5219,7.6777 L 17.5552,7.261 L 17.5886,6.8444 L 17.6219,6.4277 L 17.6552,6.011 L 17.6886,5.5944 L 17.7219,5.1777 L 17.7552,4.761 L 17.7886,4.3444 L 17.8219,3.9277 L 17.8552,3.511 L 17.8886,3.0944 L 17.9219,2.6777 L 17.9552,2.261 L 17.9886,1.8444 L 18.0219,1.4277 L 18.0552,1.011 L 18.0886,0.5944 L 18.1219,0.1777 L 18.1552,-0.239 L 18.1886,-0.6556 L 18.2219,-1.0723 L 18.2552,-1.489 L 18.2886,-1.9056 L 18.3219,-2.3223 L 18.3552,-2.739 L 18.3886,-3.1556 L 18.4219,-3.5723 L 18.4552,-3.989 L 18.4886,-4.4056 L 18.5219,-4.8223 L 18.5552,-5.239 L 18.5886,-5.6556 L 18.6219,-6.0723 L 18.6552,-6.489 L 18.6886,-6.9056 L 18.7219,-7.3223 L 18.7552,-7.739 L 18.7886,-8.1556 L 18.8219,-8.5723 L 18.8552,-8.989 L 18.8886,-9.4056 L 18.9219,-9.8223 L 18.9552,-10.239 L 18.9886,-10.6556 L 19.0219,-11.0723 L 19.0552,-11.4889 L 19.0886,-11.9056 L 19.1219,-12.3223 L 19.1552,-12.7389 L 19.1886,-13.1556 L 19.2219,-13.5723 L 19.2552,-13.9889 L 19.2886,-14.4056 L 19.3219,-14.8223 L 19.3552,-15.2389 L 19.3886,-15.6556 L 19.4219,-16.0723 L 19.4552,-16.4889 L 19.4886,-16.9056" />
      <path d="M 17.7418,4.8193 L 17.7557,4.6317 L 17.7704,4.4441 L 17.785,4.2566 L 17.7997,4.0691 L 17.8145,3.8816 L 17.8293,3.6941 L 17.8441,3.5065 L 17.8589,3.319 L 17.8738,3.1315 L 17.8887,2.944 L 17.9035,2.7565 L 17.9184,2.569 L 17.9333,2.3815 L 17.9482,2.194 L 17.9631,2.0065 L 17.978,1.819 L 17.993,1.6315 L 18.0079,1.4439 L 18.0228,1.2564 L 18.0377,1.0689 L 18.0527,0.8814 L 18.0676,0.6939 L 18.0826,0.5064 L 18.0975,0.3189 L 18.1125,0.1314 L 18.1274,-0.0561 L 18.1424,-0.2436 L 18.1573,-0.4311 L 18.1723,-0.6186 L 18.1873,-0.8061 L 18.2023,-0.9936 L 18.2173,-1.1811 L 18.2323,-1.3686 L 18.2473,-1.5561 L 18.2622,-1.7436 L 18.2772,-1.9311 L 18.2922,-2.1186 L 18.3073,-2.3061 L 18.3223,-2.4936 L 18.3373,-2.6811 L 18.3523,-2.8686 L 18.3673,-3.0561 L 18.3823,-3.2436 L 18.3973,-3.4311 L 18.4124,-3.6186 L 18.4274,-3.8061 L 18.4425,-3.9936 L 18.4575,-4.1811 L 18.4726,-4.3686 L 18.4876,-4.5561 L 18.5026,-4.7436 L 18.5177,-4.9311 L 18.5328,-5.1186 L 18.5479,-5.3061 L 18.5629,-5.4935 L 18.578,-5.681 L 18.5931,-5.8685 L 18.6082,-6.056 L 18.6233,-6.2435 L 18.6384,-6.431 L 18.6535,-6.6185 L 18.6687,-6.806 L 18.6838,-6.9935 L 18.6989,-7.181 L 18.7141,-7.3685 L 18.7293,-7.5559 L 18.7445,-7.7434 L 18.7597,-7.9309 L 18.775,-8.1184 L 18.7904,-8.3058 L 18.8057,-8.4933 L 18.8218,-8.6807" />
      <path d="M 18.8218,-8.6807 L 18.8078,-8.4932 L 18.7932,-8.3056 L 18.7785,-8.1181 L 18.7638,-7.9306 L 18.749,-7.7431 L 18.7342,-7.5555 L 18.7194,-7.368 L 18.7046,-7.1805 L 18.6897,-6.993 L 18.6749,-6.8055 L 18.66,-6.618 L 18.6451,-6.4305 L 18.6302,-6.243 L 18.6154,-6.0554 L 18.6004,-5.8679 L 18.5855,-5.6804 L 18.5706,-5.4929 L 18.5557,-5.3054 L 18.5407,-5.1179 L 18.5258,-4.9304 L 18.5109,-4.7429 L 18.4959,-4.5554 L 18.481,-4.3679 L 18.466,-4.1804 L 18.4511,-3.9929 L 18.4361,-3.8054 L 18.4212,-3.6179 L 18.4062,-3.4304 L 18.3912,-3.2429 L 18.3762,-3.0554 L 18.3612,-2.8679 L 18.3463,-2.6804 L 18.3313,-2.4929 L 18.3163,-2.3054 L 18.3013,-2.1179 L 18.2863,-1.9304 L 18.2713,-1.7429 L 18.2563,-1.5554 L 18.2413,-1.3679 L 18.2263,-1.1804 L 18.2112,-0.9929 L 18.1962,-0.8054 L 18.1812,-0.6179 L 18.1662,-0.4304 L 18.1512,-0.2429 L 18.1361,-0.0554 L 18.1211,0.1321 L 18.106,0.3196 L 18.091,0.5071 L 18.0759,0.6946 L 18.0609,0.8821 L 18.0458,1.0696 L 18.0308,1.2571 L 18.0157,1.4446 L 18.0006,1.6321 L 17.9855,1.8196 L 17.9704,2.0071 L 17.9554,2.1946 L 17.9403,2.382 L 17.9251,2.5695 L 17.91,2.757 L 17.8949,2.9445 L 17.8798,3.132 L 17.8646,3.3195 L 17.8494,3.507 L 17.8342,3.6945 L 17.819,3.882 L 17.8038,4.0694 L 17.7885,4.2569 L 17.7732,4.4444 L 17.7578,4.6319 L 17.7418,4.8193" />
    </g>
    <g fill="none" stroke="rgb(110,110,110)" stroke-width="0.3" id="Hidden" stroke-dasharray="3.6 0.9">
      <path d="M -16.9344,13.0 L -16.5178,13.0 L -16.1011,13.0 L -15.6844,13.0 L -15.2678,13.0 L -14.8511,13.0 L -14.4344,13.0 L -14.0178,13.0 L -13.6011,13.0 L -13.1844,13.0 L -12.7678,13.0 L -12.3511,13.0 L -11.9344,13.0 L -11.5178,13.0 L -11.1011,13.0 L -10.6844,13.0 L -10.2678,13.0 L -9.8511,13.0 L -9.4344,13.0 L -9.0178,13.0 L -8.6011,13.0 L -8.1844,13.0 L -7.7678,13.0 L -7.3511,13.0 L -6.9344,13.0 L -6.5178,13.0 L -6.1011,13.0 L -5.6844,13.0 L -5.2678,13.0 L -4.8511,13.0 L -4.4344,13.0 L -4.0178,13.0 L -3.6011,13.0 L -3.1845,13.0 L -2.7678,13.0 L -2.3511,13.0 L -1.9345,13.0 L -1.5178,13.0 L -1.1011,13.0 L -0.6845,13.0 L -0.2678,13.0 L 0.1489,13.0 L 0.5655,13.0 L 0.9822,13.0 L 1.3989,13.0 L 1.8155,13.0 L 2.2322,13.0 L 2.6489,13.0 L 3.0655,13.0 L 3.4822,13.0 L 3.8989,13.0 L 4.3155,13.0 L 4.7322,13.0 L 5.1489,13.0 L 5.5655,13.0 L 5.9822,13.0 L 6.3989,13.0 L 6.8155,13.0 L 7.2322,13.0 L 7.6489,13.0 L 8.0655,13.0 L 8.4822,13.0 L 8.8989,13.0 L 9.3155,13.0 L 9.7322,13.0 L 10.1489,13.0 L 10.5655,13.0 L 10.9822,13.0 L 11.3989,13.0 L 11.8155,13.0 L 12.2322,13.0 L 12.6489,13.0 L 13.0655,13.0" />
      <path d="M 13.0655,13.0 L 13.0655,12.6389 L 13.0655,12.2778 L 13.0655,11.9167 L 13.0655,11.5556 L 13.0655,11.1944 L 13.0655,10.8333 L 13.0655,10.4722 L 13.0655,10.1111 L 13.0655,9.75 L 13.0655,9.3889 L 13.0655,9.0278 L 13.0655,8.6667 L 13.0655,8.3056 L 13.0655,7.9444 L 13.0655,7.5833 L 13.0655,7.2222 L 13.0655,6.8611 L 13.0655,6.5 L 13.0655,6.1389 L 13.0655,5.7778 L 13.0655,5.4167 L 13.0655,5.0556 L 13.0655,4.6944 L 13.0655,4.3333 L 13.0655,3.9722 L 13.0655,3.6111 L 13.0655,3.25 L 13.0655,2.8889 L 13.0655,2.5278 L 13.0655,2.1667 L 13.0655,1.8056 L 13.0655,1.4444 L 13.0655,1.0833 L 13.0655,0.7222 L 13.0655,0.3611 L 13.0655,0.0 L 13.0655,-0.3611 L 13.0655,-0.7222 L 13.0655,-1.0833 L 13.0655,-1.4444 L 13.0655,-1.8056 L 13.0655,-2.1667 L 13.0655,-2.5278 L 13.0655,-2.8889 L 13.0655,-3.25 L 13.0655,-3.6111 L 13.0655,-3.9722 L 13.0655,-4.3333 L 13.0655,-4.6944 L 13.0655,-5.0556 L 13.0655,-5.4167 L 13.0655,-5.7778 L 13.0655,-6.1389 L 13.0655,-6.5 L 13.0655,-6.8611 L 13.0655,-7.2222 L 13.0655,-7.5833 L 13.0655,-7.9444 L 13.0655,-8.3056 L 13.0655,-8.6667 L 13.0655,-9.0278 L 13.0655,-9.3889 L 13.0655,-9.75 L 13.0655,-10.1111 L 13.0655,-10.4722 L 13.0655,-10.8333 L 13.0655,-11.1944 L 13.0655,-11.5556 L 13.0655,-11.9167 L 13.0655,-12.2778 L 13.0655,-12.6389 L 13.0655,-13.0" />
      <path d="M -16.9344,-13.0 L -16.5178,-13.0 L -16.1011,-13.0 L -15.6844,-13.0 L -15.2678,-13.0 L -14.8511,-13.0 L -14.4344,-13.0 L -14.0178,-13.0 L -13.6011,-13.0 L -13.1844,-13.0 L -12.7678,-13.0 L -12.3511,-13.0 L -11.9344,-13.0 L -11.5178,-13.0 L -11.1011,-13.0 L -10.6844,-13.0 L -10.2678,-13.0 L -9.8511,-13.0 L -9.4344,-13.0 L -9.0178,-13.0 L -8.6011,-13.0 L -8.1844,-13.0 L -7.7678,-13.0 L -7.3511,-13.0 L -6.9344,-13.0 L -6.5178,-13.0 L -6.1011,-13.0 L -5.6844,-13.0 L -5.2678,-13.0 L -4.8511,-13.0 L -4.4344,-13.0 L -4.0178,-13.0 L -3.6011,-13.0 L -3.1845,-13.0 L -2.7678,-13.0 L -2.3511,-13.0 L -1.9345,-13.0 L -1.5178,-13.0 L -1.1011,-13.0 L -0.6845,-13.0 L -0.2678,-13.0 L 0.1489,-13.0 L 0.5655,-13.0 L 0.9822,-13.0 L 1.3989,-13.0 L 1.8155,-13.0 L 2.2322,-13.0 L 2.6489,-13.0 L 3.0655,-13.0 L 3.4822,-13.0 L 3.8989,-13.0 L 4.3155,-13.0 L 4.7322,-13.0 L 5.1489,-13.0 L 5.5655,-13.0 L 5.9822,-13.0 L 6.3989,-13.0 L 6.8155,-13.0 L 7.2322,-13.0 L 7.6489,-13.0 L 8.0655,-13.0 L 8.4822,-13.0 L 8.8989,-13.0 L 9.3155,-13.0 L 9.7322,-13.0 L 10.1489,-13.0 L 10.5655,-13.0 L 10.9822,-13.0 L 11.3989,-13.0 L 11.8155,-13.0 L 12.2322,-13.0 L 12.6489,-13.0 L 13.0655,-13.0" />
      <path d="M -1.9309,6.75 L -1.931,6.75 L -1.9311,6.75 L -1.9312,6.75 L -1.9313,6.75 L -1.9314,6.75 L -1.9315,6.75 L -1.9316,6.75 L -1.9317,6.75 L -1.9318,6.75 L -1.9319,6.75 L -1.932,6.75 L -1.9321,6.75 L -1.9322,6.75 L -1.9323,6.75 L -1.9324,6.75 L -1.9325,6.75 L -1.9326,6.75 L -1.9327,6.75 L -1.9328,6.75 L -1.9329,6.75 L -1.933,6.75 L -1.9331,6.75 L -1.9332,6.75 L -1.9333,6.75 L -1.9334,6.75 L -1.9335,6.75 L -1.9336,6.75 L -1.9337,6.75 L -1.9338,6.75 L -1.9339,6.75 L -1.934,6.75 L -1.9341,6.75 L -1.9342,6.75 L -1.9343,6.75 L -1.9344,6.75 L -1.9345,6.75" />
      <path d="M -1.9345,6.75 L -2.2289,6.7436 L -2.5228,6.7243 L -2.8155,6.6923 L -3.1066,6.6475 L -3.3954,6.59 L -3.6815,6.52 L -3.9642,6.4376 L -4.2431,6.3429 L -4.5176,6.2362 L -4.7871,6.1176 L -5.0513,5.9873 L -5.3094,5.8457 L -5.5612,5.6929 L -5.8061,5.5293 L -6.0436,5.3551 L -6.2733,5.1708 L -6.4947,4.9766 L -6.7074,4.773 L -6.9111,4.5602 L -7.1052,4.3388 L -7.2896,4.1091 L -7.4637,3.8716 L -7.6273,3.6268 L -7.7801,3.375 L -7.9218,3.1168 L -8.052,2.8527 L -8.1706,2.5831 L -8.2774,2.3086 L -8.372,2.0298 L -8.4544,1.747 L -8.5244,1.461 L -8.5819,1.1721 L -8.6267,0.8811 L -8.6588,0.5883 L -8.678,0.2944 L -8.6844,0.0 L -8.678,-0.2944 L -8.6588,-0.5883 L -8.6267,-0.8811 L -8.5819,-1.1721 L -8.5244,-1.461 L -8.4544,-1.747 L -8.372,-2.0298 L -8.2774,-2.3086 L -8.1706,-2.5831 L -8.052,-2.8527 L -7.9218,-3.1168 L -7.7801,-3.375 L -7.6273,-3.6268 L -7.4637,-3.8716 L -7.2896,-4.1091 L -7.1052,-4.3388 L -6.9111,-4.5602 L -6.7074,-4.773 L -6.4947,-4.9766 L -6.2733,-5.1708 L -6.0436,-5.3551 L -5.8061,-5.5293 L -5.5612,-5.6929 L -5.3094,-5.8457 L -5.0513,-5.9873 L -4.7871,-6.1176 L -4.5176,-6.2362 L -4.2431,-6.3429 L -3.9642,-6.4376 L -3.6815,-6.52 L -3.3954,-6.59 L -3.1066,-6.6475 L -2.8155,-6.6923 L -2.5228,-6.7243 L -2.2289,-6.7436 L -1.9345,-6.75" />
      <path d="M -1.9345,-6.75 L -1.9344,-6.75 L -1.9343,-6.75 L -1.9342,-6.75 L -1.9341,-6.75 L -1.934,-6.75 L -1.9339,-6.75 L -1.9338,-6.75 L -1.9337,-6.75 L -1.9336,-6.75 L -1.9335,-6.75 L -1.9334,-6.75 L -1.9333,-6.75 L -1.9332,-6.75 L -1.9331,-6.75 L -1.933,-6.75 L -1.9329,-6.75 L -1.9328,-6.75 L -1.9327,-6.75 L -1.9326,-6.75 L -1.9325,-6.75 L -1.9324,-6.75 L -1.9323,-6.75 L -1.9322,-6.75 L -1.9321,-6.75 L -1.932,-6.75 L -1.9319,-6.75 L -1.9318,-6.75 L -1.9317,-6.75 L -1.9316,-6.75 L -1.9315,-6.75 L -1.9314,-6.75 L -1.9313,-6.75 L -1.9312,-6.75 L -1.9311,-6.75 L -1.931,-6.75 L -1.9309,-6.75" />
      <path d="M 13.0655,13.0 L 13.0656,13.0 L 13.0658,13.0 L 13.0659,13.0 L 13.066,13.0 L 13.0662,13.0 L 13.0663,13.0 L 13.0664,13.0 L 13.0666,13.0 L 13.0667,13.0 L 13.0668,13.0 L 13.067,13.0 L 13.0671,13.0 L 13.0672,13.0 L 13.0674,13.0 L 13.0675,13.0 L 13.0676,13.0 L 13.0678,13.0 L 13.0679,13.0 L 13.068,13.0 L 13.0681,13.0 L 13.0683,13.0 L 13.0684,13.0 L 13.0685,13.0 L 13.0687,13.0 L 13.0688,13.0 L 13.0689,13.0 L 13.0691,13.0 L 13.0692,13.0 L 13.0693,13.0 L 13.0695,13.0 L 13.0696,13.0 L 13.0697,13.0 L 13.0699,13.0 L 13.07,13.0 L 13.0701,13.0 L 13.0702,13.0 L 13.0704,13.0 L 13.0705,13.0 L 13.0706,13.0 L 13.0708,13.0 L 13.0709,13.0 L 13.071,13.0 L 13.0712,13.0 L 13.0713,13.0 L 13.0714,13.0 L 13.0716,13.0 L 13.0717,13.0 L 13.0718,13.0 L 13.072,13.0 L 13.0721,13.0 L 13.0722,13.0 L 13.0723,13.0 L 13.0725,13.0 L 13.0726,13.0 L 13.0727,13.0 L 13.0729,13.0 L 13.073,13.0 L 13.0731,13.0 L 13.0733,13.0 L 13.0734,13.0 L 13.0735,13.0 L 13.0737,13.0 L 13.0738,13.0 L 13.0739,13.0 L 13.0741,13.0 L 13.0742,13.0 L 13.0743,13.0 L 13.0744,13.0 L 13.0746,13.0 L 13.0747,13.0 L 13.0748,13.0 L 13.075,13.0" />
      <path d="M 13.0655,-13.0 L 13.0656,-13.0 L 13.0658,-13.0 L 13.0659,-13.0 L 13.066,-13.0 L 13.0662,-13.0 L 13.0663,-13.0 L 13.0664,-13.0 L 13.0666,-13.0 L 13.0667,-13.0 L 13.0668,-13.0 L 13.067,-13.0 L 13.0671,-13.0 L 13.0672,-13.0 L 13.0674,-13.0 L 13.0675,-13.0 L 13.0676,-13.0 L 13.0678,-13.0 L 13.0679,-13.0 L 13.068,-13.0 L 13.0681,-13.0 L 13.0683,-13.0 L 13.0684,-13.0 L 13.0685,-13.0 L 13.0687,-13.0 L 13.0688,-13.0 L 13.0689,-13.0 L 13.0691,-13.0 L 13.0692,-13.0 L 13.0693,-13.0 L 13.0695,-13.0 L 13.0696,-13.0 L 13.0697,-13.0 L 13.0699,-13.0 L 13.07,-13.0 L 13.0701,-13.0 L 13.0702,-13.0 L 13.0704,-13.0 L 13.0705,-13.0 L 13.0706,-13.0 L 13.0708,-13.0 L 13.0709,-13.0 L 13.071,-13.0 L 13.0712,-13.0 L 13.0713,-13.0 L 13.0714,-13.0 L 13.0716,-13.0 L 13.0717,-13.0 L 13.0718,-13.0 L 13.072,-13.0 L 13.0721,-13.0 L 13.0722,-13.0 L 13.0723,-13.0 L 13.0725,-13.0 L 13.0726,-13.0 L 13.0727,-13.0 L 13.0729,-13.0 L 13.073,-13.0 L 13.0731,-13.0 L 13.0733,-13.0 L 13.0734,-13.0 L 13.0735,-13.0 L 13.0737,-13.0 L 13.0738,-13.0 L 13.0739,-13.0 L 13.0741,-13.0 L 13.0742,-13.0 L 13.0743,-13.0 L 13.0744,-13.0 L 13.0746,-13.0 L 13.0747,-13.0 L 13.0748,-13.0 L 13.075,-13.0" />
      <path d="M -1.9345,-6.75 L -1.9344,-6.75 L -1.9343,-6.75 L -1.9342,-6.75 L -1.9341,-6.75 L -1.934,-6.75 L -1.9339,-6.75 L -1.9338,-6.75 L -1.9337,-6.75 L -1.9336,-6.75 L -1.9335,-6.75 L -1.9334,-6.75 L -1.9333,-6.75 L -1.9332,-6.75 L -1.9331,-6.75 L -1.933,-6.75 L -1.9329,-6.75 L -1.9328,-6.75 L -1.9327,-6.75 L -1.9326,-6.75 L -1.9325,-6.75 L -1.9324,-6.75 L -1.9323,-6.75 L -1.9322,-6.75 L -1.9321,-6.75 L -1.932,-6.75 L -1.9319,-6.75 L -1.9318,-6.75 L -1.9317,-6.75 L -1.9316,-6.75 L -1.9315,-6.75 L -1.9314,-6.75 L -1.9313,-6.75 L -1.9312,-6.75 L -1.9311,-6.75 L -1.931,-6.75 L -1.9309,-6.75 L -1.9308,-6.75 L -1.9307,-6.75 L -1.9306,-6.75 L -1.9305,-6.75 L -1.9304,-6.75 L -1.9303,-6.75 L -1.9302,-6.75 L -1.9301,-6.75 L -1.93,-6.75 L -1.9299,-6.75 L -1.9298,-6.75 L -1.9297,-6.75 L -1.9296,-6.75 L -1.9295,-6.75 L -1.9294,-6.75 L -1.9293,-6.75 L -1.9292,-6.75 L -1.9291,-6.75 L -1.929,-6.75 L -1.9289,-6.75 L -1.9288,-6.75 L -1.9287,-6.75 L -1.9286,-6.75 L -1.9285,-6.75 L -1.9284,-6.75 L -1.9283,-6.75 L -1.9282,-6.75 L -1.9281,-6.75 L -1.928,-6.75 L -1.9279,-6.75 L -1.9278,-6.75 L -1.9277,-6.75 L -1.9276,-6.75 L -1.9275,-6.75 L -1.9274,-6.75 L -1.9273,-6.75" />
      <path d="M -1.9345,6.75 L -1.9344,6.75 L -1.9343,6.75 L -1.9342,6.75 L -1.9341,6.75 L -1.934,6.75 L -1.9339,6.75 L -1.9338,6.75 L -1.9337,6.75 L -1.9336,6.75 L -1.9335,6.75 L -1.9334,6.75 L -1.9333,6.75 L -1.9332,6.75 L -1.9331,6.75 L -1.933,6.75 L -1.9329,6.75 L -1.9328,6.75 L -1.9327,6.75 L -1.9326,6.75 L -1.9325,6.75 L -1.9324,6.75 L -1.9323,6.75 L -1.9322,6.75 L -1.9321,6.75 L -1.932,6.75 L -1.9319,6.75 L -1.9318,6.75 L -1.9317,6.75 L -1.9316,6.75 L -1.9315,6.75 L -1.9314,6.75 L -1.9313,6.75 L -1.9312,6.75 L -1.9311,6.75 L -1.931,6.75 L -1.9309,6.75 L -1.9308,6.75 L -1.9307,6.75 L -1.9306,6.75 L -1.9305,6.75 L -1.9304,6.75 L -1.9303,6.75 L -1.9302,6.75 L -1.9301,6.75 L -1.93,6.75 L -1.9299,6.75 L -1.9298,6.75 L -1.9297,6.75 L -1.9296,6.75 L -1.9295,6.75 L -1.9294,6.75 L -1.9293,6.75 L -1.9292,6.75 L -1.9291,6.75 L -1.929,6.75 L -1.9289,6.75 L -1.9288,6.75 L -1.9287,6.75 L -1.9286,6.75 L -1.9285,6.75 L -1.9284,6.75 L -1.9283,6.75 L -1.9282,6.75 L -1.9281,6.75 L -1.928,6.75 L -1.9279,6.75 L -1.9278,6.75 L -1.9277,6.75 L -1.9276,6.75 L -1.9275,6.75 L -1.9274,6.75 L -1.9273,6.75" />
      <path d="M 21.975,-16.9558 L 21.975,-16.5391 L 21.975,-16.1225 L 21.975,-15.7058 L 21.975,-15.2891 L 21.975,-14.8725 L 21.975,-14.4558 L 21.975,-14.0391 L 21.975,-13.6225 L 21.975,-13.2058 L 21.975,-12.7891 L 21.975,-12.3725 L 21.975,-11.9558 L 21.975,-11.5392 L 21.975,-11.1225 L 21.975,-10.7058 L 21.975,-10.2892 L 21.975,-9.8725 L 21.975,-9.4558 L 21.975,-9.0392 L 21.975,-8.6225 L 21.975,-8.2058 L 21.975,-7.7892 L 21.975,-7.3725 L 21.975,-6.9558 L 21.975,-6.5392 L 21.975,-6.1225 L 21.975,-5.7058 L 21.975,-5.2892 L 21.975,-4.8725 L 21.975,-4.4558 L 21.975,-4.0392 L 21.975,-3.6225 L 21.975,-3.2058 L 21.975,-2.7892 L 21.975,-2.3725 L 21.975,-1.9558 L 21.975,-1.5392 L 21.975,-1.1225 L 21.975,-0.7058 L 21.975,-0.2892 L 21.975,0.1275 L 21.975,0.5442 L 21.975,0.9608 L 21.975,1.3775 L 21.975,1.7942 L 21.975,2.2108 L 21.975,2.6275 L 21.975,3.0442 L 21.975,3.4608 L 21.975,3.8775 L 21.975,4.2942 L 21.975,4.7108 L 21.975,5.1275 L 21.975,5.5442 L 21.975,5.9608 L 21.975,6.3775 L 21.975,6.7941 L 21.975,7.2108 L 21.975,7.6275 L 21.975,8.0441 L 21.975,8.4608 L 21.975,8.8775 L 21.975,9.2941 L 21.975,9.7108 L 21.975,10.1275 L 21.975,10.5441 L 21.975,10.9608 L 21.975,11.3775 L 21.975,11.7941 L 21.975,12.2108 L 21.975,12.6275 L 21.975,13.0441" />
      <path d="M 21.975,13.0441 L 21.9752,13.0448 L 21.9754,13.0455 L 21.9755,13.0462 L 21.9757,13.0469 L 21.9759,13.0476 L 21.9761,13.0483 L 21.9763,13.049 L 21.9765,13.0497 L 21.9767,13.0504 L 21.9769,13.0511 L 21.9771,13.0518 L 21.9772,13.0525 L 21.9774,13.0532 L 21.9776,13.0539 L 21.9778,13.0546 L 21.978,13.0553 L 21.9782,13.056 L 21.9784,13.0567 L 21.9786,13.0574 L 21.9787,13.0581 L 21.9789,13.0588 L 21.9791,13.0595 L 21.9793,13.0602 L 21.9795,13.0609 L 21.9797,13.0616 L 21.9799,13.0623 L 21.9801,13.063 L 21.9803,13.0637 L 21.9804,13.0644 L 21.9806,13.0651 L 21.9808,13.0657 L 21.981,13.0664 L 21.9812,13.0671 L 21.9814,13.0678 L 21.9816,13.0685 L 21.9818,13.0692 L 21.982,13.0699 L 21.9821,13.0706 L 21.9823,13.0713 L 21.9825,13.072 L 21.9827,13.0727 L 21.9829,13.0734 L 21.9831,13.0741 L 21.9833,13.0748 L 21.9835,13.0755 L 21.9837,13.0762 L 21.9838,13.0769 L 21.984,13.0776 L 21.9842,13.0783 L 21.9844,13.079 L 21.9846,13.0797 L 21.9848,13.0804 L 21.985,13.0811 L 21.9852,13.0818 L 21.9854,13.0825 L 21.9855,13.0832 L 21.9857,13.0839 L 21.9859,13.0846 L 21.9861,13.0853 L 21.9863,13.086 L 21.9865,13.0867 L 21.9867,13.0874 L 21.9869,13.0881 L 21.9871,13.0888 L 21.9872,13.0895 L 21.9874,13.0902 L 21.9876,13.0908 L 21.9878,13.0915 L 21.988,13.0922 L 21.9882,13.0929 L 21.9884,13.0936 L 21.9886,13.0943" />
      <path d="M 21.9818,4.8193 L 21.981,4.6318 L 21.9806,4.4443 L 21.9804,4.2568 L 21.9802,4.0693 L 21.98,3.8818 L 21.9798,3.6943 L 21.9797,3.5068 L 21.9796,3.3193 L 21.9794,3.1318 L 21.9793,2.9443 L 21.9792,2.7568 L 21.9791,2.5693 L 21.9791,2.3818 L 21.979,2.1943 L 21.9789,2.0068 L 21.9788,1.8193 L 21.9788,1.6318 L 21.9787,1.4443 L 21.9787,1.2568 L 21.9786,1.0693 L 21.9786,0.8818 L 21.9785,0.6943 L 21.9785,0.5068 L 21.9784,0.3193 L 21.9784,0.1318 L 21.9784,-0.0557 L 21.9784,-0.2432 L 21.9783,-0.4307 L 21.9783,-0.6182 L 21.9783,-0.8057 L 21.9783,-0.9932 L 21.9783,-1.1807 L 21.9783,-1.3682 L 21.9782,-1.5557 L 21.9782,-1.7432 L 21.9782,-1.9307 L 21.9782,-2.1182 L 21.9782,-2.3057 L 21.9783,-2.4932 L 21.9783,-2.6807 L 21.9783,-2.8682 L 21.9783,-3.0557 L 21.9783,-3.2432 L 21.9783,-3.4307 L 21.9784,-3.6182 L 21.9784,-3.8057 L 21.9784,-3.9932 L 21.9784,-4.1807 L 21.9785,-4.3682 L 21.9785,-4.5557 L 21.9786,-4.7432 L 21.9786,-4.9307 L 21.9787,-5.1182 L 21.9787,-5.3057 L 21.9788,-5.4932 L 21.9788,-5.6807 L 21.9789,-5.8682 L 21.979,-6.0557 L 21.9791,-6.2432 L 21.9791,-6.4307 L 21.9792,-6.6182 L 21.9793,-6.8057 L 21.9794,-6.9932 L 21.9795,-7.1807 L 21.9797,-7.3682 L 21.9798,-7.5557 L 21.98,-7.7432 L 21.9801,-7.9307 L 21.9804,-8.1182 L 21.9806,-8.3057 L 21.9809,-8.4932 L 21.9818,-8.6807" />
      <path d="M 21.9818,-8.6807 L 21.9826,-8.4932 L 21.9829,-8.3057 L 21.9832,-8.1182 L 21.9834,-7.9307 L 21.9836,-7.7432 L 21.9837,-7.5557 L 21.9839,-7.3682 L 21.984,-7.1807 L 21.9841,-6.9932 L 21.9842,-6.8057 L 21.9843,-6.6182 L 21.9844,-6.4307 L 21.9845,-6.2432 L 21.9846,-6.0557 L 21.9846,-5.8682 L 21.9847,-5.6807 L 21.9848,-5.4932 L 21.9848,-5.3057 L 21.9849,-5.1182 L 21.9849,-4.9307 L 21.985,-4.7432 L 21.985,-4.5557 L 21.9851,-4.3682 L 21.9851,-4.1807 L 21.9851,-3.9932 L 21.9852,-3.8057 L 21.9852,-3.6182 L 21.9852,-3.4307 L 21.9852,-3.2432 L 21.9852,-3.0557 L 21.9853,-2.8682 L 21.9853,-2.6807 L 21.9853,-2.4932 L 21.9853,-2.3057 L 21.9853,-2.1182 L 21.9853,-1.9307 L 21.9853,-1.7432 L 21.9853,-1.5557 L 21.9853,-1.3682 L 21.9853,-1.1807 L 21.9853,-0.9932 L 21.9853,-0.8057 L 21.9852,-0.6182 L 21.9852,-0.4307 L 21.9852,-0.2432 L 21.9852,-0.0557 L 21.9851,0.1318 L 21.9851,0.3193 L 21.9851,0.5068 L 21.985,0.6943 L 21.985,0.8818 L 21.9849,1.0693 L 21.9849,1.2568 L 21.9848,1.4443 L 21.9848,1.6318 L 21.9847,1.8193 L 21.9846,2.0068 L 21.9846,2.1943 L 21.9845,2.3818 L 21.9844,2.5693 L 21.9843,2.7568 L 21.9842,2.9443 L 21.9841,3.1318 L 21.984,3.3193 L 21.9839,3.5068 L 21.9837,3.6943 L 21.9836,3.8818 L 21.9834,4.0693 L 21.9832,4.2568 L 21.9829,4.4443 L 21.9826,4.6318 L 21.9818,4.8193" />
      <path d="M 21.975,13.0441 L 21.9069,13.0441 L 21.8389,13.0441 L 21.7708,13.0441 L 21.7028,13.0441 L 21.6347,13.0441 L 21.5666,13.0441 L 21.4986,13.0441 L 21.4305,13.0441 L 21.3625,13.0441 L 21.2944,13.0441 L 21.2264,13.0441 L 21.1583,13.0441 L 21.0903,13.0441 L 21.0222,13.0441 L 20.9541,13.0441 L 20.8861,13.0441 L 20.818,13.0441 L 20.75,13.0441 L 20.6819,13.0441 L 20.6139,13.0441 L 20.5458,13.0441 L 20.4778,13.0441 L 20.4097,13.0441 L 20.3416,13.0441 L 20.2736,13.0441 L 20.2055,13.0441 L 20.1375,13.0441 L 20.0694,13.0441 L 20.0014,13.0441 L 19.9333,13.0441 L 19.8653,13.0441 L 19.7972,13.0441 L 19.7291,13.0441 L 19.6611,13.0441 L 19.593,13.0441 L 19.525,13.0441 L 19.4569,13.0441 L 19.3889,13.0441 L 19.3208,13.0441 L 19.2528,13.0441 L 19.1847,13.0441 L 19.1166,13.0441 L 19.0486,13.0441 L 18.9805,13.0441 L 18.9125,13.0441 L 18.8444,13.0441 L 18.7764,13.0441 L 18.7083,13.0441 L 18.6403,13.0441 L 18.5722,13.0441 L 18.5041,13.0441 L 18.4361,13.0441 L 18.368,13.0441 L 18.3,13.0441 L 18.2319,13.0441 L 18.1639,13.0441 L 18.0958,13.0441 L 18.0278,13.0441 L 17.9597,13.0441 L 17.8916,13.0441 L 17.8236,13.0441 L 17.7555,13.0441 L 17.6875,13.0441 L 17.6194,13.0441 L 17.5514,13.0441 L 17.4833,13.0441 L 17.4153,13.0441 L 17.3472,13.0441 L 17.2791,13.0441 L 17.2111,13.0441 L 17.143,13.0441 L 17.075,13.0441" />
      <path d="M 21.9818,4.8193 L 21.9229,4.8193 L 21.864,4.8193 L 21.8051,4.8193 L 21.7462,4.8193 L 21.6873,4.8193 L 21.6284,4.8193 L 21.5696,4.8193 L 21.5107,4.8193 L 21.4518,4.8193 L 21.3929,4.8193 L 21.334,4.8193 L 21.2751,4.8193 L 21.2162,4.8193 L 21.1573,4.8193 L 21.0984,4.8193 L 21.0396,4.8193 L 20.9807,4.8193 L 20.9218,4.8193 L 20.8629,4.8193 L 20.804,4.8193 L 20.7451,4.8193 L 20.6862,4.8193 L 20.6273,4.8193 L 20.5684,4.8193 L 20.5096,4.8193 L 20.4507,4.8193 L 20.3918,4.8193 L 20.3329,4.8193 L 20.274,4.8193 L 20.2151,4.8193 L 20.1562,4.8193 L 20.0973,4.8193 L 20.0384,4.8193 L 19.9796,4.8193 L 19.9207,4.8193 L 19.8618,4.8193 L 19.8029,4.8193 L 19.744,4.8193 L 19.6851,4.8193 L 19.6262,4.8193 L 19.5673,4.8193 L 19.5084,4.8193 L 19.4496,4.8193 L 19.3907,4.8193 L 19.3318,4.8193 L 19.2729,4.8193 L 19.214,4.8193 L 19.1551,4.8193 L 19.0962,4.8193 L 19.0373,4.8193 L 18.9784,4.8193 L 18.9196,4.8193 L 18.8607,4.8193 L 18.8018,4.8193 L 18.7429,4.8193 L 18.684,4.8193 L 18.6251,4.8193 L 18.5662,4.8193 L 18.5073,4.8193 L 18.4484,4.8193 L 18.3896,4.8193 L 18.3307,4.8193 L 18.2718,4.8193 L 18.2129,4.8193 L 18.154,4.8193 L 18.0951,4.8193 L 18.0362,4.8193 L 17.9773,4.8193 L 17.9184,4.8193 L 17.8596,4.8193 L 17.8007,4.8193 L 17.7418,4.8193" />
      <path d="M 21.9818,-8.6807 L 21.9379,-8.6807 L 21.894,-8.6807 L 21.8501,-8.6807 L 21.8062,-8.6807 L 21.7623,-8.6807 L 21.7184,-8.6807 L 21.6745,-8.6807 L 21.6307,-8.6807 L 21.5868,-8.6807 L 21.5429,-8.6807 L 21.499,-8.6807 L 21.4551,-8.6807 L 21.4112,-8.6807 L 21.3673,-8.6807 L 21.3234,-8.6807 L 21.2795,-8.6807 L 21.2357,-8.6807 L 21.1918,-8.6807 L 21.1479,-8.6807 L 21.104,-8.6807 L 21.0601,-8.6807 L 21.0162,-8.6807 L 20.9723,-8.6807 L 20.9284,-8.6807 L 20.8845,-8.6807 L 20.8407,-8.6807 L 20.7968,-8.6807 L 20.7529,-8.6807 L 20.709,-8.6807 L 20.6651,-8.6807 L 20.6212,-8.6807 L 20.5773,-8.6807 L 20.5334,-8.6807 L 20.4895,-8.6807 L 20.4457,-8.6807 L 20.4018,-8.6807 L 20.3579,-8.6807 L 20.314,-8.6807 L 20.2701,-8.6807 L 20.2262,-8.6807 L 20.1823,-8.6807 L 20.1384,-8.6807 L 20.0945,-8.6807 L 20.0507,-8.6807 L 20.0068,-8.6807 L 19.9629,-8.6807 L 19.919,-8.6807 L 19.8751,-8.6807 L 19.8312,-8.6807 L 19.7873,-8.6807 L 19.7434,-8.6807 L 19.6995,-8.6807 L 19.6557,-8.6807 L 19.6118,-8.6807 L 19.5679,-8.6807 L 19.524,-8.6807 L 19.4801,-8.6807 L 19.4362,-8.6807 L 19.3923,-8.6807 L 19.3484,-8.6807 L 19.3045,-8.6807 L 19.2607,-8.6807 L 19.2168,-8.6807 L 19.1729,-8.6807 L 19.129,-8.6807 L 19.0851,-8.6807 L 19.0412,-8.6807 L 18.9973,-8.6807 L 18.9534,-8.6807 L 18.9095,-8.6807 L 18.8657,-8.6807 L 18.8218,-8.6807" />
    </g>
  </g>
</svg>