<?xml version='1.0' encoding='utf-8'?>
<svg width="67.0398mm" height="50.8mm" viewBox="-25.4 -25.4 67.0398 50.8" version="1.1" xmlns="http://www.w3.org/2000/svg">
  <g transform="scale(1,-1)" stroke-linecap="round">
    <g fill="none" stroke="rgb(0,0,0)" stroke-width="0.4" id="Visible">
      <path d="M 0.0,20.0 L -1.7431,19.9239 L -3.473,19.6962 L -5.1764,19.3185 L -6.8404,18.7939 L -8.4524,18.1262 L -10.0,17.3205 L -11.4715,16.383 L -12.8558,15.3209 L -14.1421,14.1421 L -15.3209,12.8558 L -16.383,11.4715 L -17.3205,10.0 L -18.1262,8.4524 L -18.7939,6.8404 L -19.3185,5.1764 L -19.6962,3.473 L -19.9239,1.7431 L -20.0,-0.0 L -19.9239,-1.7431 L -19.6962,-3.473 L -19.3185,-5.1764 L -18.7939,-6.8404 L -18.1262,-8.4524 L -17.3205,-10.0 L -16.383,-11.4715 L -15.3209,-12.8558 L -14.1421,-14.1421 L -12.8558,-15.3209 L -11.4715,-16.383 L -10.0,-17.3205 L -8.4524,-18.1262 L -6.8404,-18.7939 L -5.1764,-19.3185 L -3.473,-19.6962 L -1.7431,-19.9239 L 0.0,-20.0 L 1.7431,-19.9239 L 3.473,-19.6962 L 5.1764,-19.3185 L 6.8404,-18.7939 L 8.4524,-18.1262 L 10.0,-17.3205 L 11.4715,-16.383 L 12.8558,-15.3209 L 14.1421,-14.1421 L 15.3209,-12.8558 L 16.383,-11.4715 L 17.3205,-10.0 L 18.1262,-8.4524 L 18.7939,-6.8404 L 19.3185,-5.1764 L 19.6962,-3.473 L 19.9239,-1.7431 L 20.0,0.0 L 19.9239,1.7431 L 19.6962,3.473 L 19.3185,5.1764 L 18.7939,6.8404 L 18.1262,8.4524 L 17.3205,10.0 L 16.383,11.4715 L 15.3209,12.8558 L 14.1421,14.1421 L 12.8558,15.3209 L 11.4715,16.383 L 10.0,17.3205 L 8.4524,18.1262 L 6.8404,18.7939 L 5.1764,19.3185 L 3.473,19.6962 L 1.7431,19.9239 L -0.0,20.0" />
      <path d="M 0.0,5.05 L -0.4401,5.0308 L -0.8769,4.9733 L -1.307,4.8779 L -1.7272,4.7454 L -2.1342,4.5769 L -2.525,4.3734 L -2.8966,4.1367 L -3.2461,3.8685 L -3.5709,3.5709 L -3.8685,3.2461 L -4.1367,2.8966 L -4.3734,2.525 L -4.5769,2.1342 L -4.7454,1.7272 L -4.8779,1.307 L -4.9733,0.8769 L -5.0308,0.4401 L -5.05,-0.0 L -5.0308,-0.4401 L -4.9733,-0.8769 L -4.8779,-1.307 L -4.7454,-1.7272 L -4.5769,-2.1342 L -4.3734,-2.525 L -4.1367,-2.8966 L -3.8685,-3.2461 L -3.5709,-3.5709 L -3.2461,-3.8685 L -2.8966,-4.1367 L -2.525,-4.3734 L -2.1342,-4.5769 L -1.7272,-4.7454 L -1.307,-4.8779 L -0.8769,-4.9733 L -0.4401,-5.0308 L 0.0,-5.05 L 0.4401,-5.0308 L 0.8769,-4.9733 L 1.307,-4.8779 L 1.7272,-4.7454 L 2.1342,-4.5769 L 2.525,-4.3734 L 2.8966,-4.1367 L 3.2461,-3.8685 L 3.5709,-3.5709 L 3.8685,-3.2461 L 4.1367,-2.8966 L 4.3734,-2.525 L 4.5769,-2.1342 L 4.7454,-1.7272 L 4.8779,-1.307 L 4.9733,-0.8769 L 5.0308,-0.4401 L 5.05,0.0 L 5.0308,0.4401 L 4.9733,0.8769 L 4.8779,1.307 L 4.7454,1.7272 L 4.5769,2.1342 L 4.3734,2.525 L 4.1367,2.8966 L 3.8685,3.2461 L 3.5709,3.5709 L 3.2461,3.8685 L 2.8966,4.1367 L 2.525,4.3734 L 2.1342,4.5769 L 1.7272,4.7454 L 1.307,4.8779 L 0.8769,4.9733 L 0.4401,5.0308 L -0.0,5.05" />
      <path d="M 24.12,-20.0 L 24.092,-19.4461 L 24.0806,-18.8906 L 24.0721,-18.3351 L 24.065,-17.7795 L 24.059,-17.2239 L 24.0537,-16.6683 L 24.0489,-16.1128 L 24.0446,-15.5572 L 24.0406,-15.0016 L 24.037,-14.446 L 24.0337,-13.8904 L 24.0306,-13.3348 L 24.0277,-12.7792 L 24.025,-12.2235 L 24.0225,-11.6679 L 24.0202,-11.1123 L 24.0181,-10.5567 L 24.0161,-10.0011 L 24.0142,-9.4455 L 24.0125,-8.8899 L 24.0109,-8.3343 L 24.0094,-7.7787 L 24.0081,-7.2231 L 24.0069,-6.6675 L 24.0057,-6.1119 L 24.0047,-5.5563 L 24.0038,-5.0007 L 24.003,-4.4451 L 24.0023,-3.8895 L 24.0017,-3.3339 L 24.0012,-2.7783 L 24.0007,-2.2227 L 24.0004,-1.6671 L 24.0002,-1.1114 L 24.0,-0.5558 L 24.0,-0.0002 L 24.0,0.5554 L 24.0002,1.111 L 24.0004,1.6666 L 24.0007,2.2222 L 24.0012,2.7778 L 24.0017,3.3334 L 24.0023,3.889 L 24.003,4.4446 L 24.0038,5.0002 L 24.0047,5.5558 L 24.0057,6.1114 L 24.0069,6.667 L 24.0081,7.2226 L 24.0094,7.7782 L 24.0109,8.3338 L 24.0125,8.8894 L 24.0142,9.445 L 24.0161,10.0006 L 24.0181,10.5562 L 24.0202,11.1118 L 24.0225,11.6674 L 24.025,12.223 L 24.0277,12.7786 L 24.0306,13.3342 L 24.0337,13.8898 L 24.037,14.4454 L 24.0406,15.001 L 24.0446,15.5566 L 24.0489,16.1122 L 24.0537,16.6678 L 24.059,17.2234 L 24.065,17.7789 L 24.0721,18.3345 L 24.0806,18.89 L 24.0919,19.4455 L 24.12,20.0" />
      <path d="M 36.1198,20.0 L 35.9531,20.0 L 35.7865,20.0 L 35.6198,20.0 L 35.4531,20.0 L 35.2865,20.0 L 35.1198,20.0 L 34.9531,20.0 L 34.7865,20.0 L 34.6198,20.0 L 34.4531,20.0 L 34.2865,20.0 L 34.1198,20.0 L 33.9532,20.0 L 33.7865,20.0 L 33.6198,20.0 L 33.4532,20.0 L 33.2865,20.0 L 33.1198,20.0 L 32.9532,20.0 L 32.7865,20.0 L 32.6198,20.0 L 32.4532,20.0 L 32.2865,20.0 L 32.1199,20.0 L 31.9532,20.0 L 31.7865,20.0 L 31.6199,20.0 L 31.4532,20.0 L 31.2865,20.0 L 31.1199,20.0 L 30.9532,20.0 L 30.7865,20.0 L 30.6199,20.0 L 30.4532,20.0 L 30.2866,20.0 L 30.1199,20.0 L 29.9532,20.0 L 29.7866,20.0 L 29.6199,20.0 L 29.4532,20.0 L 29.2866,20.0 L 29.1199,20.0 L 28.9532,20.0 L 28.7866,20.0 L 28.6199,20.0 L 28.4533,20.0 L 28.2866,20.0 L 28.1199,20.0 L 27.9533,20.0 L 27.7866,20.0 L 27.6199,20.0 L 27.4533,20.0 L 27.2866,20.0 L 27.1199,20.0 L 26.9533,20.0 L 26.7866,20.0 L 26.62,20.0 L 26.4533,20.0 L 26.2866,20.0 L 26.12,20.0 L 25.9533,20.0 L 25.7866,20.0 L 25.62,20.0 L 25.4533,20.0 L 25.2866,20.0 L 25.12,20.0 L 24.9533,20.0 L 24.7867,20.0 L 24.62,20.0 L 24.4533,20.0 L 24.2867,20.0 L 24.12,20.0" />
      <path d="M 36.1198,20.0 L 36.1478,19.4461 L 36.1592,18.8906 L 36.1677,18.3351 L 36.1747,17.7795 L 36.1808,17.2239 L 36.1861,16.6683 L 36.1909,16.1128 L 36.1952,15.5572 L 36.1991,15.0016 L 36.2028,14.446 L 36.2061,13.8904 L 36.2092,13.3348 L 36.2121,12.7792 L 36.2148,12.2235 L 36.2172,11.6679 L 36.2196,11.1123 L 36.2217,10.5567 L 36.2237,10.0011 L 36.2256,9.4455 L 36.2273,8.8899 L 36.2289,8.3343 L 36.2303,7.7787 L 36.2317,7.2231 L 36.2329,6.6675 L 36.234,6.1119 L 36.2351,5.5563 L 36.236,5.0007 L 36.2368,4.4451 L 36.2375,3.8895 L 36.2381,3.3339 L 36.2386,2.7783 L 36.239,2.2227 L 36.2394,1.6671 L 36.2396,1.1114 L 36.2397,0.5558 L 36.2398,0.0002 L 36.2397,-0.5554 L 36.2396,-1.111 L 36.2394,-1.6666 L 36.239,-2.2222 L 36.2386,-2.7778 L 36.2381,-3.3334 L 36.2375,-3.889 L 36.2368,-4.4446 L 36.236,-5.0002 L 36.2351,-5.5558 L 36.234,-6.1114 L 36.2329,-6.667 L 36.2317,-7.2226 L 36.2303,-7.7782 L 36.2289,-8.3338 L 36.2273,-8.8894 L 36.2256,-9.445 L 36.2237,-10.0006 L 36.2217,-10.5562 L 36.2196,-11.1118 L 36.2172,-11.6674 L 36.2148,-12.223 L 36.2121,-12.7786 L 36.2092,-13.3342 L 36.2061,-13.8898 L 36.2028,-14.4454 L 36.1991,-15.001 L 36.1952,-15.5566 L 36.1909,-16.1122 L 36.1861,-16.6678 L 36.1808,-17.2234 L 36.1747,-17.7789 L 36.1677,-18.3345 L 36.1592,-18.89 L 36.1478,-19.4455 L 36.1198,-20.0" />
      <path d="M 36.1198,-20.0 L 36.0917,-19.4461 L 36.0804,-18.8906 L 36.0718,-18.3351 L 36.0648,-17.7795 L 36.0588,-17.2239 L 36.0535,-16.6683 L 36.0487,-16.1128 L 36.0444,-15.5572 L 36.0404,-15.0016 L 36.0368,-14.446 L 36.0334,-13.8904 L 36.0303,-13.3348 L 36.0275,-12.7792 L 36.0248,-12.2235 L 36.0223,-11.6679 L 36.02,-11.1123 L 36.0179,-10.5567 L 36.0159,-10.0011 L 36.014,-9.4455 L 36.0123,-8.8899 L 36.0107,-8.3343 L 36.0092,-7.7787 L 36.0079,-7.2231 L 36.0066,-6.6675 L 36.0055,-6.1119 L 36.0045,-5.5563 L 36.0036,-5.0007 L 36.0028,-4.4451 L 36.0021,-3.8895 L 36.0015,-3.3339 L 36.0009,-2.7783 L 36.0005,-2.2227 L 36.0002,-1.6671 L 36.0,-1.1114 L 35.9998,-0.5558 L 35.9998,-0.0002 L 35.9998,0.5554 L 36.0,1.111 L 36.0002,1.6666 L 36.0005,2.2222 L 36.0009,2.7778 L 36.0015,3.3334 L 36.0021,3.889 L 36.0028,4.4446 L 36.0036,5.0002 L 36.0045,5.5558 L 36.0055,6.1114 L 36.0066,6.667 L 36.0079,7.2226 L 36.0092,7.7782 L 36.0107,8.3338 L 36.0123,8.8894 L 36.014,9.445 L 36.0159,10.0006 L 36.0179,10.5562 L 36.02,11.1118 L 36.0223,11.6674 L 36.0248,12.223 L 36.0275,12.7786 L 36.0303,13.3342 L 36.0334,13.8898 L 36.0368,14.4454 L 36.0404,15.001 L 36.0444,15.5566 L 36.0487,16.1122 L 36.0535,16.6678 L 36.0588,17.2234 L 36.0648,17.7789 L 36.0718,18.3345 L 36.0804,18.89 L 36.0917,19.4455 L 36.1198,20.0" />
      <path d="M 36.1198,5.05 L 36.1269,4.9102 L 36.1297,4.7699 L 36.1319,4.6296 L 36.1337,4.4893 L 36.1352,4.349 L 36.1365,4.2088 L 36.1377,4.0685 L 36.1388,3.9282 L 36.1398,3.7879 L 36.1407,3.6476 L 36.1416,3.5073 L 36.1424,3.367 L 36.1431,3.2267 L 36.1438,3.0864 L 36.1444,2.9462 L 36.145,2.8059 L 36.1455,2.6656 L 36.146,2.5253 L 36.1465,2.385 L 36.1469,2.2447 L 36.1473,2.1044 L 36.1477,1.9641 L 36.148,1.8238 L 36.1483,1.6835 L 36.1486,1.5433 L 36.1489,1.403 L 36.1491,1.2627 L 36.1493,1.1224 L 36.1495,0.9821 L 36.1497,0.8418 L 36.1498,0.7015 L 36.1499,0.5612 L 36.15,0.4209 L 36.15,0.2806 L 36.1501,0.1403 L 36.1501,0.0001 L 36.1501,-0.1402 L 36.15,-0.2805 L 36.15,-0.4208 L 36.1499,-0.5611 L 36.1498,-0.7014 L 36.1497,-0.8417 L 36.1495,-0.982 L 36.1493,-1.1223 L 36.1491,-1.2626 L 36.1489,-1.4028 L 36.1486,-1.5431 L 36.1483,-1.6834 L 36.148,-1.8237 L 36.1477,-1.964 L 36.1473,-2.1043 L 36.1469,-2.2446 L 36.1465,-2.3849 L 36.146,-2.5252 L 36.1455,-2.6654 L 36.145,-2.8057 L 36.1444,-2.946 L 36.1438,-3.0863 L 36.1431,-3.2266 L 36.1424,-3.3669 L 36.1416,-3.5072 L 36.1407,-3.6475 L 36.1398,-3.7878 L 36.1388,-3.928 L 36.1377,-4.0683 L 36.1365,-4.2086 L 36.1352,-4.3489 L 36.1337,-4.4892 L 36.1319,-4.6295 L 36.1297,-4.7697 L 36.1269,-4.91 L 36.1198,-5.05" />
      <path d="M 36.1198,-5.05 L 36.1127,-4.9102 L 36.1098,-4.7699 L 36.1077,-4.6296 L 36.1059,-4.4893 L 36.1044,-4.349 L 36.103,-4.2088 L 36.1018,-4.0685 L 36.1007,-3.9282 L 36.0997,-3.7879 L 36.0988,-3.6476 L 36.098,-3.5073 L 36.0972,-3.367 L 36.0965,-3.2267 L 36.0958,-3.0864 L 36.0952,-2.9462 L 36.0946,-2.8059 L 36.094,-2.6656 L 36.0935,-2.5253 L 36.0931,-2.385 L 36.0926,-2.2447 L 36.0922,-2.1044 L 36.0919,-1.9641 L 36.0915,-1.8238 L 36.0912,-1.6835 L 36.0909,-1.5433 L 36.0907,-1.403 L 36.0904,-1.2627 L 36.0902,-1.1224 L 36.0901,-0.9821 L 36.0899,-0.8418 L 36.0898,-0.7015 L 36.0897,-0.5612 L 36.0896,-0.4209 L 36.0895,-0.2806 L 36.0895,-0.1403 L 36.0895,-0.0001 L 36.0895,0.1402 L 36.0895,0.2805 L 36.0896,0.4208 L 36.0897,0.5611 L 36.0898,0.7014 L 36.0899,0.8417 L 36.0901,0.982 L 36.0902,1.1223 L 36.0904,1.2626 L 36.0907,1.4028 L 36.0909,1.5431 L 36.0912,1.6834 L 36.0915,1.8237 L 36.0919,1.964 L 36.0922,2.1043 L 36.0926,2.2446 L 36.0931,2.3849 L 36.0935,2.5252 L 36.094,2.6654 L 36.0946,2.8057 L 36.0952,2.946 L 36.0958,3.0863 L 36.0965,3.2266 L 36.0972,3.3669 L 36.098,3.5072 L 36.0988,3.6475 L 36.0997,3.7878 L 36.1007,3.928 L 36.1018,4.0683 L 36.103,4.2086 L 36.1044,4.3489 L 36.1059,4.4892 L 36.1077,4.6295 L 36.1098,4.7697 L 36.1127,4.91 L 36.1198,5.05" />
      <path d="M 36.1198,-20.0 L 35.9531,-20.0 L 35.7865,-20.0 L 35.6198,-20.0 L 35.4531,-20.0 L 35.2865,-20.0 L 35.1198,-20.0 L 34.9531,-20.0 L 34.7865,-20.0 L 34.6198,-20.0 L 34.4531,-20.0 L 34.2865,-20.0 L 34.1198,-20.0 L 33.9532,-20.0 L 33.7865,-20.0 L 33.6198,-20.0 L 33.4532,-20.0 L 33.2865,-20.0 L 33.1198,-20.0 L 32.9532,-20.0 L 32.7865,-20.0 L 32.6198,-20.0 L 32.4532,-20.0 L 32.2865,-20.0 L 32.1199,-20.0 L 31.9532,-20.0 L 31.7865,-20.0 L 31.6199,-20.0 L 31.4532,-20.0 L 31.2865,-20.0 L 31.1199,-20.0 L 30.9532,-20.0 L 30.7865,-20.0 L 30.6199,-20.0 L 30.4532,-20.0 L 30.2866,-20.0 L 30.1199,-20.0 L 29.9532,-20.0 L 29.7866,-20.0 L 29.6199,-20.0 L 29.4532,-20.0 L 29.2866,-20.0 L 29.1199,-20.0 L 28.9532,-20.0 L 28.7866,-20.0 L 28.6199,-20.0 L 28.4533,-20.0 L 28.2866,-20.0 L 28.1199,-20.0 L 27.9533,-20.0 L 27.7866,-20.0 L 27.6199,-20.0 L 27.4533,-20.0 L 27.2866,-20.0 L 27.1199,-20.0 L 26.9533,-20.0 L 26.7866,-20.0 L 26.62,-20.0 L 26.4533,-20.0 L 26.2866,-20.0 L 26.12,-20.0 L 25.9533,-20.0 L 25.7866,-20.0 L 25.62,-20.0 L 25.4533,-20.0 L 25.2866,-20.0 L 25.12,-20.0 L 24.9533,-20.0 L 24.7867,-20.0 L 24.62,-20.0 L 24.4533,-20.0 L 24.2867,-20.0 L 24.12,-20.0" />
    </g>
    <g fill="none" stroke="rgb(110,110,110)" stroke-width="0.3" id="Hidden" stroke-dasharray="3.6 0.9">
      <path d="M 0.0,20.0 L -1.7431,19.9239 L -3.473,19.6962 L -5.1764,19.3185 L -6.8404,18.7939 L -8.4524,18.1262 L -10.0,17.3205 L -11.4715,16.383 L -12.8558,15.3209 L -14.1421,14.1421 L -15.3209,12.8558 L -16.383,11.4715 L -17.3205,10.0 L -18.1262,8.4524 L -18.7939,6.8404 L -19.3185,5.1764 L -19.6962,3.473 L -19.9239,1.7431 L -20.0,-0.0 L -19.9239,-1.7431 L -19.6962,-3.473 L -19.3185,-5.1764 L -18.7939,-6.8404 L -18.1262,-8.4524 L -17.3205,-10.0 L -16.383,-11.4715 L -15.3209,-12.8558 L -14.1421,-14.1421 L -12.8558,-15.3209 L -11.4715,-16.383 L -10.0,-17.3205 L -8.4524,-18.1262 L -6.8404,-18.7939 L -5.1764,-19.3185 L -3.473,-19.6962 L -1.7431,-19.9239 L 0.0,-20.0 L 1.7431,-19.9239 L 3.473,-19.6962 L 5.1764,-19.3185 L 6.8404,-18.7939 L 8.4524,-18.1262 L 10.0,-17.3205 L 11.4715,-16.383 L 12.8558,-15.3209 L 14.1421,-14.1421 L 15.3209,-12.8558 L 16.383,-11.4715 L 17.3205,-10.0 L 18.1262,-8.4524 L 18.7939,-6.8404 L 19.3185,-5.1764 L 19.6962,-3.473 L 19.9239,-1.7431 L 20.0,0.0 L 19.9239,1.7431 L 19.6962,3.473 L 19.3185,5.1764 L 18.7939,6.8404 L 18.1262,8.4524 L 17.3205,10.0 L 16.383,11.4715 L 15.3209,12.8558 L 14.1421,14.1421 L 12.8558,15.3209 L 11.4715,16.383 L 10.0,17.3205 L 8.4524,18.1262 L 6.8404,18.7939 L 5.1764,19.3185 L 3.473,19.6962 L 1.7431,19.9239 L -0.0,20.0" />
      <path d="M 0.0,5.05 L -0.4401,5.0308 L -0.8769,4.9733 L -1.307,4.8779 L -1.7272,4.7454 L -2.1342,4.5769 L -2.525,4.3734 L -2.8966,4.1367 L -3.2461,3.8685 L -3.5709,3.5709 L -3.8685,3.2461 L -4.1367,2.8966 L -4.3734,2.525 L -4.5769,2.1342 L -4.7454,1.7272 L -4.8779,1.307 L -4.9733,0.8769 L -5.0308,0.4401 L -5.05,-0.0 L -5.0308,-0.4401 L -4.9733,-0.8769 L -4.8779,-1.307 L -4.7454,-1.7272 L -4.5769,-2.1342 L -4.3734,-2.525 L -4.1367,-2.8966 L -3.8685,-3.2461 L -3.5709,-3.5709 L -3.2461,-3.8685 L -2.8966,-4.1367 L -2.525,-4.3734 L -2.1342,-4.5769 L -1.7272,-4.7454 L -1.307,-4.8779 L -0.8769,-4.9733 L -0.4401,-5.0308 L 0.0,-5.05 L 0.4401,-5.0308 L 0.8769,-4.9733 L 1.307,-4.8779 L 1.7272,-4.7454 L 2.1342,-4.5769 L 2.525,-4.3734 L 2.8966,-4.1367 L 3.2461,-3.8685 L 3.5709,-3.5709 L 3.8685,-3.2461 L 4.1367,-2.8966 L 4.3734,-2.525 L 4.5769,-2.1342 L 4.7454,-1.7272 L 4.8779,-1.307 L 4.9733,-0.8769 L 5.0308,-0.4401 L 5.05,0.0 L 5.0308,0.4401 L 4.9733,0.8769 L 4.8779,1.307 L 4.7454,1.7272 L 4.5769,2.1342 L 4.3734,2.525 L 4.1367,2.8966 L 3.8685,3.2461 L 3.5709,3.5709 L 3.2461,3.8685 L 2.8966,4.1367 L 2.525,4.3734 L 2.1342,4.5769 L 1.7272,4.7454 L 1.307,4.8779 L 0.8769,4.9733 L 0.4401,5.0308 L -0.0,5.05" />
      <path d="M 24.12,20.0 L 24.148,19.4461 L 24.1594,18.8906 L 24.1679,18.3351 L 24.175,17.7795 L 24.181,17.2239 L 24.1863,16.6683 L 24.1911,16.1128 L 24.1954,15.5572 L 24.1994,15.0016 L 24.203,14.446 L 24.2063,13.8904 L 24.2094,13.3348 L 24.2123,12.7792 L 24.215,12.2235 L 24.2175,11.6679 L 24.2198,11.1123 L 24.2219,10.5567 L 24.2239,10.0011 L 24.2258,9.4455 L 24.2275,8.8899 L 24.2291,8.3343 L 24.2305,7.7787 L 24.2319,7.2231 L 24.2331,6.6675 L 24.2343,6.1119 L 24.2353,5.5563 L 24.2362,5.0007 L 24.237,4.4451 L 24.2377,3.8895 L 24.2383,3.3339 L 24.2388,2.7783 L 24.2393,2.2227 L 24.2396,1.6671 L 24.2398,1.1114 L 24.2399,0.5558 L 24.24,0.0002 L 24.2399,-0.5554 L 24.2398,-1.111 L 24.2396,-1.6666 L 24.2393,-2.2222 L 24.2388,-2.7778 L 24.2383,-3.3334 L 24.2377,-3.889 L 24.237,-4.4446 L 24.2362,-5.0002 L 24.2353,-5.5558 L 24.2343,-6.1114 L 24.2331,-6.667 L 24.2319,-7.2226 L 24.2305,-7.7782 L 24.2291,-8.3338 L 24.2275,-8.8894 L 24.2258,-9.445 L 24.2239,-10.0006 L 24.2219,-10.5562 L 24.2198,-11.1118 L 24.2175,-11.6674 L 24.215,-12.223 L 24.2123,-12.7786 L 24.2094,-13.3342 L 24.2063,-13.8898 L 24.203,-14.4454 L 24.1994,-15.001 L 24.1954,-15.5566 L 24.1911,-16.1122 L 24.1863,-16.6678 L 24.181,-17.2234 L 24.175,-17.7789 L 24.1679,-18.3345 L 24.1594,-18.89 L 24.1481,-19.4455 L 24.12,-20.0" />
      <path d="M 24.12,5.05 L 24.1271,4.9102 L 24.1299,4.7699 L 24.1321,4.6296 L 24.1339,4.4893 L 24.1354,4.349 L 24.1367,4.2088 L 24.1379,4.0685 L 24.139,3.9282 L 24.14,3.7879 L 24.141,3.6476 L 24.1418,3.5073 L 24.1426,3.367 L 24.1433,3.2267 L 24.144,3.0864 L 24.1446,2.9462 L 24.1452,2.8059 L 24.1457,2.6656 L 24.1462,2.5253 L 24.1467,2.385 L 24.1471,2.2447 L 24.1475,2.1044 L 24.1479,1.9641 L 24.1483,1.8238 L 24.1486,1.6835 L 24.1488,1.5433 L 24.1491,1.403 L 24.1493,1.2627 L 24.1495,1.1224 L 24.1497,0.9821 L 24.1499,0.8418 L 24.15,0.7015 L 24.1501,0.5612 L 24.1502,0.4209 L 24.1503,0.2806 L 24.1503,0.1403 L 24.1503,0.0001 L 24.1503,-0.1402 L 24.1503,-0.2805 L 24.1502,-0.4208 L 24.1501,-0.5611 L 24.15,-0.7014 L 24.1499,-0.8417 L 24.1497,-0.982 L 24.1495,-1.1223 L 24.1493,-1.2626 L 24.1491,-1.4028 L 24.1488,-1.5431 L 24.1486,-1.6834 L 24.1483,-1.8237 L 24.1479,-1.964 L 24.1475,-2.1043 L 24.1471,-2.2446 L 24.1467,-2.3849 L 24.1462,-2.5252 L 24.1457,-2.6654 L 24.1452,-2.8057 L 24.1446,-2.946 L 24.144,-3.0863 L 24.1433,-3.2266 L 24.1426,-3.3669 L 24.1418,-3.5072 L 24.141,-3.6475 L 24.14,-3.7878 L 24.139,-3.928 L 24.1379,-4.0683 L 24.1367,-4.2086 L 24.1354,-4.3489 L 24.1339,-4.4892 L 24.1321,-4.6295 L 24.13,-4.7697 L 24.1271,-4.91 L 24.12,-5.05" />
      <path d="M 24.12,-5.05 L 24.1129,-4.9102 L 24.11,-4.7699 L 24.1079,-4.6296 L 24.1061,-4.4893 L 24.1046,-4.349 L 24.1033,-4.2088 L 24.102,-4.0685 L 24.101,-3.9282 L 24.1,-3.7879 L 24.099,-3.6476 L 24.0982,-3.5073 L 24.0974,-3.367 L 24.0967,-3.2267 L 24.096,-3.0864 L 24.0954,-2.9462 L 24.0948,-2.8059 L 24.0943,-2.6656 L 24.0938,-2.5253 L 24.0933,-2.385 L 24.0929,-2.2447 L 24.0925,-2.1044 L 24.0921,-1.9641 L 24.0917,-1.8238 L 24.0914,-1.6835 L 24.0911,-1.5433 L 24.0909,-1.403 L 24.0907,-1.2627 L 24.0905,-1.1224 L 24.0903,-0.9821 L 24.0901,-0.8418 L 24.09,-0.7015 L 24.0899,-0.5612 L 24.0898,-0.4209 L 24.0897,-0.2806 L 24.0897,-0.1403 L 24.0897,-0.0001 L 24.0897,0.1402 L 24.0897,0.2805 L 24.0898,0.4208 L 24.0899,0.5611 L 24.09,0.7014 L 24.0901,0.8417 L 24.0903,0.982 L 24.0905,1.1223 L 24.0907,1.2626 L 24.0909,1.4028 L 24.0911,1.5431 L 24.0914,1.6834 L 24.0917,1.8237 L 24.0921,1.964 L 24.0925,2.1043 L 24.0929,2.2446 L 24.0933,2.3849 L 24.0938,2.5252 L 24.0943,2.6654 L 24.0948,2.8057 L 24.0954,2.946 L 24.096,3.0863 L 24.0967,3.2266 L 24.0974,3.3669 L 24.0982,3.5072 L 24.099,3.6475 L 24.1,3.7878 L 24.101,3.928 L 24.102,4.0683 L 24.1033,4.2086 L 24.1046,4.3489 L 24.1061,4.4892 L 24.1079,4.6295 L 24.11,4.7697 L 24.1129,4.91 L 24.12,5.05" />
      <path d="M 36.1198,5.05 L 35.9531,5.05 L 35.7865,5.05 L 35.6198,5.05 L 35.4531,5.05 L 35.2865,5.05 L 35.1198,5.05 L 34.9531,5.05 L 34.7865,5.05 L 34.6198,5.05 L 34.4531,5.05 L 34.2865,5.05 L 34.1198,5.05 L 33.9532,5.05 L 33.7865,5.05 L 33.6198,5.05 L 33.4532,5.05 L 33.2865,5.05 L 33.1198,5.05 L 32.9532,5.05 L 32.7865,5.05 L 32.6198,5.05 L 32.4532,5.05 L 32.2865,5.05 L 32.1199,5.05 L 31.9532,5.05 L 31.7865,5.05 L 31.6199,5.05 L 31.4532,5.05 L 31.2865,5.05 L 31.1199,5.05 L 30.9532,5.05 L 30.7865,5.05 L 30.6199,5.05 L 30.4532,5.05 L 30.2866,5.05 L 30.1199,5.05 L 29.9532,5.05 L 29.7866,5.05 L 29.6199,5.05 L 29.4532,5.05 L 29.2866,5.05 L 29.1199,5.05 L 28.9532,5.05 L 28.7866,5.05 L 28.6199,5.05 L 28.4533,5.05 L 28.2866,5.05 L 28.1199,5.05 L 27.9533,5.05 L 27.7866,5.05 L 27.6199,5.05 L 27.4533,5.05 L 27.2866,5.05 L 27.1199,5.05 L 26.9533,5.05 L 26.7866,5.05 L 26.62,5.05 L 26.4533,5.05 L 26.2866,5.05 L 26.12,5.05 L 25.9533,5.05 L 25.7866,5.05 L 25.62,5.05 L 25.4533,5.05 L 25.2866,5.05 L 25.12,5.05 L 24.9533,5.05 L 24.7867,5.05 L 24.62,5.05 L 24.4533,5.05 L 24.2867,5.05 L 24.12,5.05" />
      <path d="M 36.1198,-5.05 L 35.9531,-5.05 L 35.7865,-5.05 L 35.6198,-5.05 L 35.4531,-5.05 L 35.2865,-5.05 L 35.1198,-5.05 L 34.9531,-5.05 L 34.7865,-5.05 L 34.6198,-5.05 L 34.4531,-5.05 L 34.2865,-5.05 L 34.1198,-5.05 L 33.9532,-5.05 L 33.7865,-5.05 L 33.6198,-5.05 L 33.4532,-5.05 L 33.2865,-5.05 L 33.1198,-5.05 L 32.9532,-5.05 L 32.7865,-5.05 L 32.6198,-5.05 L 32.4532,-5.05 L 32.2865,-5.05 L 32.1199,-5.05 L 31.9532,-5.05 L 31.7865,-5.05 L 31.6199,-5.05 L 31.4532,-5.05 L 31.2865,-5.05 L 31.1199,-5.05 L 30.9532,-5.05 L 30.7865,-5.05 L 30.6199,-5.05 L 30.4532,-5.05 L 30.2866,-5.05 L 30.1199,-5.05 L 29.9532,-5.05 L 29.7866,-5.05 L 29.6199,-5.05 L 29.4532,-5.05 L 29.2866,-5.05 L 29.1199,-5.05 L 28.9532,-5.05 L 28.7866,-5.05 L 28.6199,-5.05 L 28.4533,-5.05 L 28.2866,-5.05 L 28.1199,-5.05 L 27.9533,-5.05 L 27.7866,-5.05 L 27.6199,-5.05 L 27.4533,-5.05 L 27.2866,-5.05 L 27.1199,-5.05 L 26.9533,-5.05 L 26.7866,-5.05 L 26.62,-5.05 L 26.4533,-5.05 L 26.2866,-5.05 L 26.12,-5.05 L 25.9533,-5.05 L 25.7866,-5.05 L 25.62,-5.05 L 25.4533,-5.05 L 25.2866,-5.05 L 25.12,-5.05 L 24.9533,-5.05 L 24.7867,-5.05 L 24.62,-5.05 L 24.4533,-5.05 L 24.2867,-5.05 L 24.12,-5.05" />
    </g>
    <g fill="none" stroke="rgb(0,0,0)" stroke-width="0.2" id="Center" stroke-dasharray="6.35 1.27 1.27 1.27">
      <line x1="0.0" y1="0.0" x2="-23.2" y2="0.0" />
      <line x1="0.0" y1="0.0" x2="23.2" y2="0.0" />
      <line x1="0.0" y1="0.0" x2="0.0" y2="-23.2" />
      <line x1="0.0" y1="0.0" x2="0.0" y2="23.2" />
      <line x1="30.1199" y1="0.0" x2="20.8" y2="0.0" />
      <line x1="30.1199" y1="0.0" x2="39.4398" y2="0.0" />
    </g>
  </g>
</svg>