<?xml version='1.0' encoding='utf-8'?>
<svg width="52.48mm" height="44.4mm" viewBox="-22.2 -22.2 52.48 44.4" version="1.1" xmlns="http://www.w3.org/2000/svg">
  <g transform="scale(1,-1)" stroke-linecap="round">
    <g fill="none" stroke="rgb(0,0,0)" stroke-width="0.4" id="Visible">
      <path d="M 20.0,20.0 L 19.4444,20.0 L 18.8889,20.0 L 18.3333,20.0 L 17.7778,20.0 L 17.2222,20.0 L 16.6667,20.0 L 16.1111,20.0 L 15.5556,20.0 L 15.0,20.0 L 14.4444,20.0 L 13.8889,20.0 L 13.3333,20.0 L 12.7778,20.0 L 12.2222,20.0 L 11.6667,20.0 L 11.1111,20.0 L 10.5556,20.0 L 10.0,20.0 L 9.4444,20.0 L 8.8889,20.0 L 8.3333,20.0 L 7.7778,20.0 L 7.2222,20.0 L 6.6667,20.0 L 6.1111,20.0 L 5.5556,20.0 L 5.0,20.0 L 4.4444,20.0 L 3.8889,20.0 L 3.3333,20.0 L 2.7778,20.0 L 2.2222,20.0 L 1.6667,20.0 L 1.1111,20.0 L 0.5556,20.0 L 0.0,20.0 L -0.5556,20.0 L -1.1111,20.0 L -1.6667,20.0 L -2.2222,20.0 L -2.7778,20.0 L -3.3333,20.0 L -3.8889,20.0 L -4.4444,20.0 L -5.0,20.0 L -5.5556,20.0 L -6.1111,20.0 L -6.6667,20.0 L -7.2222,20.0 L -7.7778,20.0 L -8.3333,20.0 L -8.8889,20.0 L -9.4444,20.0 L -10.0,20.0 L -10.5556,20.0 L -11.1111,20.0 L -11.6667,20.0 L -12.2222,20.0 L -12.7778,20.0 L -13.3333,20.0 L -13.8889,20.0 L -14.4444,20.0 L -15.0,20.0 L -15.5556,20.0 L -16.1111,20.0 L -16.6667,20.0 L -17.2222,20.0 L -17.7778,20.0 L -18.3333,20.0 L -18.8889,20.0 L -19.4444,20.0 L -20.0,20.0" />
      <path d="M -20.0,-20.0 L -20.0,-19.4444 L -20.0,-18.8889 L -20.0,-18.3333 L -20.0,-17.7778 L -20.0,-17.2222 L -20.0,-16.6667 L -20.0,-16.1111 L -20.0,-15.5556 L -20.0,-15.0 L -20.0,-14.4444 L -20.0,-13.8889 L -20.0,-13.3333 L -20.0,-12.7778 L -20.0,-12.2222 L -20.0,-11.6667 L -20.0,-11.1111 L -20.0,-10.5556 L -20.0,-10.0 L -20.0,-9.4444 L -20.0,-8.8889 L -20.0,-8.3333 L -20.0,-7.7778 L -20.0,-7.2222 L -20.0,-6.6667 L -20.0,-6.1111 L -20.0,-5.5556 L -20.0,-5.0 L -20.0,-4.4444 L -20.0,-3.8889 L -20.0,-3.3333 L -20.0,-2.7778 L -20.0,-2.2222 L -20.0,-1.6667 L -20.0,-1.1111 L -20.0,-0.5556 L -20.0,0.0 L -20.0,0.5556 L -20.0,1.1111 L -20.0,1.6667 L -20.0,2.2222 L -20.0,2.7778 L -20.0,3.3333 L -20.0,3.8889 L -20.0,4.4444 L -20.0,5.0 L -20.0,5.5556 L -20.0,6.1111 L -20.0,6.6667 L -20.0,7.2222 L -20.0,7.7778 L -20.0,8.3333 L -20.0,8.8889 L -20.0,9.4444 L -20.0,10.0 L -20.0,10.5556 L -20.0,11.1111 L -20.0,11.6667 L -20.0,12.2222 L -20.0,12.7778 L -20.0,13.3333 L -20.0,13.8889 L -20.0,14.4444 L -20.0,15.0 L -20.0,15.5556 L -20.0,16.1111 L -20.0,16.6667 L -20.0,17.2222 L -20.0,17.7778 L -20.0,18.3333 L -20.0,18.8889 L -20.0,19.4444 L -20.0,20.0" />
      <path d="M 20.0,20.0 L 20.0,19.4444 L 20.0,18.8889 L 20.0,18.3333 L 20.0,17.7778 L 20.0,17.2222 L 20.0,16.6667 L 20.0,16.1111 L 20.0,15.5556 L 20.0,15.0 L 20.0,14.4444 L 20.0,13.8889 L 20.0,13.3333 L 20.0,12.7778 L 20.0,12.2222 L 20.0,11.6667 L 20.0,11.1111 L 20.0,10.5556 L 20.0,10.0 L 20.0,9.4444 L 20.0,8.8889 L 20.0,8.3333 L 20.0,7.7778 L 20.0,7.2222 L 20.0,6.6667 L 20.0,6.1111 L 20.0,5.5556 L 20.0,5.0 L 20.0,4.4444 L 20.0,3.8889 L 20.0,3.3333 L 20.0,2.7778 L 20.0,2.2222 L 20.0,1.6667 L 20.0,1.1111 L 20.0,0.5556 L 20.0,0.0 L 20.0,-0.5556 L 20.0,-1.1111 L 20.0,-1.6667 L 20.0,-2.2222 L 20.0,-2.7778 L 20.0,-3.3333 L 20.0,-3.8889 L 20.0,-4.4444 L 20.0,-5.0 L 20.0,-5.5556 L 20.0,-6.1111 L 20.0,-6.6667 L 20.0,-7.2222 L 20.0,-7.7778 L 20.0,-8.3333 L 20.0,-8.8889 L 20.0,-9.4444 L 20.0,-10.0 L 20.0,-10.5556 L 20.0,-11.1111 L 20.0,-11.6667 L 20.0,-12.2222 L 20.0,-12.7778 L 20.0,-13.3333 L 20.0,-13.8889 L 20.0,-14.4444 L 20.0,-15.0 L 20.0,-15.5556 L 20.0,-16.1111 L 20.0,-16.6667 L 20.0,-17.2222 L 20.0,-17.7778 L 20.0,-18.3333 L 20.0,-18.8889 L 20.0,-19.4444 L 20.0,-20.0" />
      <path d="M 20.0,-20.0 L 19.4444,-20.0 L 18.8889,-20.0 L 18.3333,-20.0 L 17.7778,-20.0 L 17.2222,-20.0 L 16.6667,-20.0 L 16.1111,-20.0 L 15.5556,-20.0 L 15.0,-20.0 L 14.4444,-20.0 L 13.8889,-20.0 L 13.3333,-20.0 L 12.7778,-20.0 L 12.2222,-20.0 L 11.6667,-20.0 L 11.1111,-20.0 L 10.5556,-20.0 L 10.0,-20.0 L 9.4444,-20.0 L 8.8889,-20.0 L 8.3333,-20.0 L 7.7778,-20.0 L 7.2222,-20.0 L 6.6667,-20.0 L 6.1111,-20.0 L 5.5556,-20.0 L 5.0,-20.0 L 4.4444,-20.0 L 3.8889,-20.0 L 3.3333,-20.0 L 2.7778,-20.0 L 2.2222,-20.0 L 1.6667,-20.0 L 1.1111,-20.0 L 0.5556,-20.0 L 0.0,-20.0 L -0.5556,-20.0 L -1.1111,-20.0 L -1.6667,-20.0 L -2.2222,-20.0 L -2.7778,-20.0 L -3.3333,-20.0 L -3.8889,-20.0 L -4.4444,-20.0 L -5.0,-20.0 L -5.5556,-20.0 L -6.1111,-20.0 L -6.6667,-20.0 L -7.2222,-20.0 L -7.7778,-20.0 L -8.3333,-20.0 L -8.8889,-20.0 L -9.4444,-20.0 L -10.0,-20.0 L -10.5556,-20.0 L -11.1111,-20.0 L -11.6667,-20.0 L -12.2222,-20.0 L -12.7778,-20.0 L -13.3333,-20.0 L -13.8889,-20.0 L -14.4444,-20.0 L -15.0,-20.0 L -15.5556,-20.0 L -16.1111,-20.0 L -16.6667,-20.0 L -17.2222,-20.0 L -17.7778,-20.0 L -18.3333,-20.0 L -18.8889,-20.0 L -19.4444,-20.0 L -20.0,-20.0" />
      <path d="M 6.75,0.0 L 6.7243,0.5883 L 6.6475,1.1721 L 6.52,1.747 L 6.3429,2.3086 L 6.1176,2.8527 L 5.8457,3.375 L 5.5293,3.8716 L 5.1708,4.3388 L 4.773,4.773 L 4.3388,5.1708 L 3.8716,5.5293 L 3.375,5.8457 L 2.8527,6.1176 L 2.3086,6.3429 L 1.747,6.52 L 1.1721,6.6475 L 0.5883,6.7243 L 0.0,6.75 L -0.5883,6.7243 L -1.1721,6.6475 L -1.747,6.52 L -2.3086,6.3429 L -2.8527,6.1176 L -3.375,5.8457 L -3.8716,5.5293 L -4.3388,5.1708 L -4.773,4.773 L -5.1708,4.3388 L -5.5293,3.8716 L -5.8457,3.375 L -6.1176,2.8527 L -6.3429,2.3086 L -6.52,1.747 L -6.6475,1.1721 L -6.7243,0.5883 L -6.75,-0.0 L -6.7243,-0.5883 L -6.6475,-1.1721 L -6.52,-1.747 L -6.3429,-2.3086 L -6.1176,-2.8527 L -5.8457,-3.375 L -5.5293,-3.8716 L -5.1708,-4.3388 L -4.773,-4.773 L -4.3388,-5.1708 L -3.8716,-5.5293 L -3.375,-5.8457 L -2.8527,-6.1176 L -2.3086,-6.3429 L -1.747,-6.52 L -1.1721,-6.6475 L -0.5883,-6.7243 L -0.0,-6.75 L 0.5883,-6.7243 L 1.1721,-6.6475 L 1.747,-6.52 L 2.3086,-6.3429 L 2.8527,-6.1176 L 3.375,-5.8457 L 3.8716,-5.5293 L 4.3388,-5.1708 L 4.773,-4.773 L 5.1708,-4.3388 L 5.5293,-3.8716 L 5.8457,-3.375 L 6.1176,-2.8527 L 6.3429,-2.3086 L 6.52,-1.747 L 6.6475,-1.1721 L 6.7243,-0.5883 L 6.75,0.0" />
      <path d="M 28.08,-20.0 L 28.08,-19.4444 L 28.08,-18.8889 L 28.08,-18.3333 L 28.08,-17.7778 L 28.08,-17.2222 L 28.08,-16.6667 L 28.08,-16.1111 L 28.08,-15.5556 L 28.08,-15.0 L 28.08,-14.4444 L 28.08,-13.8889 L 28.08,-13.3333 L 28.08,-12.7778 L 28.08,-12.2222 L 28.08,-11.6667 L 28.08,-11.1111 L 28.08,-10.5556 L 28.08,-10.0 L 28.08,-9.4444 L 28.08,-8.8889 L 28.08,-8.3333 L 28.08,-7.7778 L 28.08,-7.2222 L 28.08,-6.6667 L 28.08,-6.1111 L 28.08,-5.5556 L 28.08,-5.0 L 28.08,-4.4444 L 28.08,-3.8889 L 28.08,-3.3333 L 28.08,-2.7778 L 28.08,-2.2222 L 28.08,-1.6667 L 28.08,-1.1111 L 28.08,-0.5556 L 28.08,0.0 L 28.08,0.5556 L 28.08,1.1111 L 28.08,1.6667 L 28.08,2.2222 L 28.08,2.7778 L 28.08,3.3333 L 28.08,3.8889 L 28.08,4.4444 L 28.08,5.0 L 28.08,5.5556 L 28.08,6.1111 L 28.08,6.6667 L 28.08,7.2222 L 28.08,7.7778 L 28.08,8.3333 L 28.08,8.8889 L 28.08,9.4444 L 28.08,10.0 L 28.08,10.5556 L 28.08,11.1111 L 28.08,11.6667 L 28.08,12.2222 L 28.08,12.7778 L 28.08,13.3333 L 28.08,13.8889 L 28.08,14.4444 L 28.08,15.0 L 28.08,15.5556 L 28.08,16.1111 L 28.08,16.6667 L 28.08,17.2222 L 28.08,17.7778 L 28.08,18.3333 L 28.08,18.8889 L 28.08,19.4444 L 28.08,20.0" />
      <path d="M 28.0,-20.0 L 28.0011,-20.0 L 28.0022,-20.0 L 28.0033,-20.0 L 28.0044,-20.0 L 28.0055,-20.0 L 28.0067,-20.0 L 28.0078,-20.0 L 28.0089,-20.0 L 28.01,-20.0 L 28.0111,-20.0 L 28.0122,-20.0 L 28.0133,-20.0 L 28.0144,-20.0 L 28.0155,-20.0 L 28.0167,-20.0 L 28.0178,-20.0 L 28.0189,-20.0 L 28.02,-20.0 L 28.0211,-20.0 L 28.0222,-20.0 L 28.0233,-20.0 L 28.0244,-20.0 L 28.0255,-20.0 L 28.0267,-20.0 L 28.0278,-20.0 L 28.0289,-20.0 L 28.03,-20.0 L 28.0311,-20.0 L 28.0322,-20.0 L 28.0333,-20.0 L 28.0344,-20.0 L 28.0355,-20.0 L 28.0367,-20.0 L 28.0378,-20.0 L 28.0389,-20.0 L 28.04,-20.0 L 28.0411,-20.0 L 28.0422,-20.0 L 28.0433,-20.0 L 28.0444,-20.0 L 28.0455,-20.0 L 28.0467,-20.0 L 28.0478,-20.0 L 28.0489,-20.0 L 28.05,-20.0 L 28.0511,-20.0 L 28.0522,-20.0 L 28.0533,-20.0 L 28.0544,-20.0 L 28.0555,-20.0 L 28.0567,-20.0 L 28.0578,-20.0 L 28.0589,-20.0 L 28.06,-20.0 L 28.0611,-20.0 L 28.0622,-20.0 L 28.0633,-20.0 L 28.0644,-20.0 L 28.0655,-20.0 L 28.0667,-20.0 L 28.0678,-20.0 L 28.0689,-20.0 L 28.07,-20.0 L 28.0711,-20.0 L 28.0722,-20.0 L 28.0733,-20.0 L 28.0744,-20.0 L 28.0755,-20.0 L 28.0767,-20.0 L 28.0778,-20.0 L 28.0789,-20.0 L 28.08,-20.0" />
      <path d="M 28.08,20.0 L 28.0789,20.0 L 28.0778,20.0 L 28.0767,20.0 L 28.0755,20.0 L 28.0744,20.0 L 28.0733,20.0 L 28.0722,20.0 L 28.0711,20.0 L 28.07,20.0 L 28.0689,20.0 L 28.0678,20.0 L 28.0667,20.0 L 28.0655,20.0 L 28.0644,20.0 L 28.0633,20.0 L 28.0622,20.0 L 28.0611,20.0 L 28.06,20.0 L 28.0589,20.0 L 28.0578,20.0 L 28.0567,20.0 L 28.0555,20.0 L 28.0544,20.0 L 28.0533,20.0 L 28.0522,20.0 L 28.0511,20.0 L 28.05,20.0 L 28.0489,20.0 L 28.0478,20.0 L 28.0467,20.0 L 28.0455,20.0 L 28.0444,20.0 L 28.0433,20.0 L 28.0422,20.0 L 28.0411,20.0 L 28.04,20.0 L 28.0389,20.0 L 28.0378,20.0 L 28.0367,20.0 L 28.0355,20.0 L 28.0344,20.0 L 28.0333,20.0 L 28.0322,20.0 L 28.0311,20.0 L 28.03,20.0 L 28.0289,20.0 L 28.0278,20.0 L 28.0267,20.0 L 28.0255,20.0 L 28.0244,20.0 L 28.0233,20.0 L 28.0222,20.0 L 28.0211,20.0 L 28.02,20.0 L 28.0189,20.0 L 28.0178,20.0 L 28.0167,20.0 L 28.0155,20.0 L 28.0144,20.0 L 28.0133,20.0 L 28.0122,20.0 L 28.0111,20.0 L 28.01,20.0 L 28.0089,20.0 L 28.0078,20.0 L 28.0067,20.0 L 28.0055,20.0 L 28.0044,20.0 L 28.0033,20.0 L 28.0022,20.0 L 28.0011,20.0 L 28.0,20.0" />
      <path d="M 28.0,-20.0 L 28.0,-19.4444 L 28.0,-18.8889 L 28.0,-18.3333 L 28.0,-17.7778 L 28.0,-17.2222 L 28.0,-16.6667 L 28.0,-16.1111 L 28.0,-15.5556 L 28.0,-15.0 L 28.0,-14.4444 L 28.0,-13.8889 L 28.0,-13.3333 L 28.0,-12.7778 L 28.0,-12.2222 L 28.0,-11.6667 L 28.0,-11.1111 L 28.0,-10.5556 L 28.0,-10.0 L 28.0,-9.4444 L 28.0,-8.8889 L 28.0,-8.3333 L 28.0,-7.7778 L 28.0,-7.2222 L 28.0,-6.6667 L 28.0,-6.1111 L 28.0,-5.5556 L 28.0,-5.0 L 28.0,-4.4444 L 28.0,-3.8889 L 28.0,-3.3333 L 28.0,-2.7778 L 28.0,-2.2222 L 28.0,-1.6667 L 28.0,-1.1111 L 28.0,-0.5556 L 28.0,0.0 L 28.0,0.5556 L 28.0,1.1111 L 28.0,1.6667 L 28.0,2.2222 L 28.0,2.7778 L 28.0,3.3333 L 28.0,3.8889 L 28.0,4.4444 L 28.0,5.0 L 28.0,5.5556 L 28.0,6.1111 L 28.0,6.6667 L 28.0,7.2222 L 28.0,7.7778 L 28.0,8.3333 L 28.0,8.8889 L 28.0,9.4444 L 28.0,10.0 L 28.0,10.5556 L 28.0,11.1111 L 28.0,11.6667 L 28.0,12.2222 L 28.0,12.7778 L 28.0,13.3333 L 28.0,13.8889 L 28.0,14.4444 L 28.0,15.0 L 28.0,15.5556 L 28.0,16.1111 L 28.0,16.6667 L 28.0,17.2222 L 28.0,17.7778 L 28.0,18.3333 L 28.0,18.8889 L 28.0,19.4444 L 28.0,20.0" />
      <path d="M 28.04,6.75 L 28.0432,6.5626 L 28.0444,6.3751 L 28.0454,6.1876 L 28.0462,6.0001 L 28.0469,5.8126 L 28.0475,5.6251 L 28.048,5.4376 L 28.0485,5.2501 L 28.0489,5.0626 L 28.0493,4.8751 L 28.0497,4.6876 L 28.0501,4.5001 L 28.0504,4.3126 L 28.0507,4.1251 L 28.051,3.9375 L 28.0512,3.75 L 28.0515,3.5625 L 28.0517,3.375 L 28.0519,3.1875 L 28.0521,3.0 L 28.0523,2.8125 L 28.0524,2.625 L 28.0526,2.4375 L 28.0527,2.25 L 28.0528,2.0625 L 28.053,1.875 L 28.0531,1.6875 L 28.0532,1.5 L 28.0532,1.3125 L 28.0533,1.125 L 28.0534,0.9375 L 28.0534,0.75 L 28.0534,0.5625 L 28.0535,0.375 L 28.0535,0.1875 L 28.0535,0.0 L 28.0535,-0.1875 L 28.0535,-0.375 L 28.0534,-0.5625 L 28.0534,-0.75 L 28.0534,-0.9375 L 28.0533,-1.125 L 28.0532,-1.3125 L 28.0532,-1.5 L 28.0531,-1.6875 L 28.053,-1.875 L 28.0528,-2.0625 L 28.0527,-2.25 L 28.0526,-2.4375 L 28.0524,-2.625 L 28.0523,-2.8125 L 28.0521,-3.0 L 28.0519,-3.1875 L 28.0517,-3.375 L 28.0515,-3.5625 L 28.0512,-3.75 L 28.051,-3.9375 L 28.0507,-4.125 L 28.0504,-4.3125 L 28.0501,-4.5 L 28.0497,-4.6875 L 28.0493,-4.875 L 28.0489,-5.0625 L 28.0485,-5.25 L 28.048,-5.4375 L 28.0475,-5.625 L 28.0469,-5.8125 L 28.0462,-6.0 L 28.0454,-6.1875 L 28.0444,-6.375 L 28.0432,-6.5625 L 28.04,-6.75" />
      <path d="M 28.04,-6.75 L 28.0368,-6.5626 L 28.0356,-6.3751 L 28.0346,-6.1876 L 28.0338,-6.0001 L 28.0331,-5.8126 L 28.0325,-5.6251 L 28.032,-5.4376 L 28.0315,-5.2501 L 28.0311,-5.0626 L 28.0307,-4.8751 L 28.0303,-4.6876 L 28.0299,-4.5001 L 28.0296,-4.3126 L 28.0293,-4.1251 L 28.029,-3.9375 L 28.0288,-3.75 L 28.0285,-3.5625 L 28.0283,-3.375 L 28.0281,-3.1875 L 28.0279,-3.0 L 28.0277,-2.8125 L 28.0276,-2.625 L 28.0274,-2.4375 L 28.0273,-2.25 L 28.0271,-2.0625 L 28.027,-1.875 L 28.0269,-1.6875 L 28.0268,-1.5 L 28.0267,-1.3125 L 28.0267,-1.125 L 28.0266,-0.9375 L 28.0266,-0.75 L 28.0265,-0.5625 L 28.0265,-0.375 L 28.0265,-0.1875 L 28.0265,0.0 L 28.0265,0.1875 L 28.0265,0.375 L 28.0265,0.5625 L 28.0266,0.75 L 28.0266,0.9375 L 28.0267,1.125 L 28.0267,1.3125 L 28.0268,1.5 L 28.0269,1.6875 L 28.027,1.875 L 28.0271,2.0625 L 28.0273,2.25 L 28.0274,2.4375 L 28.0276,2.625 L 28.0277,2.8125 L 28.0279,3.0 L 28.0281,3.1875 L 28.0283,3.375 L 28.0285,3.5625 L 28.0288,3.75 L 28.029,3.9375 L 28.0293,4.125 L 28.0296,4.3125 L 28.0299,4.5 L 28.0303,4.6875 L 28.0307,4.875 L 28.0311,5.0625 L 28.0315,5.25 L 28.032,5.4375 L 28.0325,5.625 L 28.0331,5.8125 L 28.0338,6.0 L 28.0346,6.1875 L 28.0356,6.375 L 28.0368,6.5625 L 28.04,6.75" />
      <path d="M 24.0,-20.0 L 24.0556,-20.0 L 24.1111,-20.0 L 24.1667,-20.0 L 24.2222,-20.0 L 24.2778,-20.0 L 24.3333,-20.0 L 24.3889,-20.0 L 24.4444,-20.0 L 24.5,-20.0 L 24.5556,-20.0 L 24.6111,-20.0 L 24.6667,-20.0 L 24.7222,-20.0 L 24.7778,-20.0 L 24.8333,-20.0 L 24.8889,-20.0 L 24.9444,-20.0 L 25.0,-20.0 L 25.0556,-20.0 L 25.1111,-20.0 L 25.1667,-20.0 L 25.2222,-20.0 L 25.2778,-20.0 L 25.3333,-20.0 L 25.3889,-20.0 L 25.4444,-20.0 L 25.5,-20.0 L 25.5556,-20.0 L 25.6111,-20.0 L 25.6667,-20.0 L 25.7222,-20.0 L 25.7778,-20.0 L 25.8333,-20.0 L 25.8889,-20.0 L 25.9444,-20.0 L 26.0,-20.0 L 26.0556,-20.0 L 26.1111,-20.0 L 26.1667,-20.0 L 26.2222,-20.0 L 26.2778,-20.0 L 26.3333,-20.0 L 26.3889,-20.0 L 26.4444,-20.0 L 26.5,-20.0 L 26.5556,-20.0 L 26.6111,-20.0 L 26.6667,-20.0 L 26.7222,-20.0 L 26.7778,-20.0 L 26.8333,-20.0 L 26.8889,-20.0 L 26.9444,-20.0 L 27.0,-20.0 L 27.0555,-20.0 L 27.1111,-20.0 L 27.1667,-20.0 L 27.2222,-20.0 L 27.2778,-20.0 L 27.3333,-20.0 L 27.3889,-20.0 L 27.4444,-20.0 L 27.5,-20.0 L 27.5555,-20.0 L 27.6111,-20.0 L 27.6667,-20.0 L 27.7222,-20.0 L 27.7778,-20.0 L 27.8333,-20.0 L 27.8889,-20.0 L 27.9444,-20.0 L 28.0,-20.0" />
      <path d="M 28.0,20.0 L 27.9444,20.0 L 27.8889,20.0 L 27.8333,20.0 L 27.7778,20.0 L 27.7222,20.0 L 27.6667,20.0 L 27.6111,20.0 L 27.5555,20.0 L 27.5,20.0 L 27.4444,20.0 L 27.3889,20.0 L 27.3333,20.0 L 27.2778,20.0 L 27.2222,20.0 L 27.1667,20.0 L 27.1111,20.0 L 27.0555,20.0 L 27.0,20.0 L 26.9444,20.0 L 26.8889,20.0 L 26.8333,20.0 L 26.7778,20.0 L 26.7222,20.0 L 26.6667,20.0 L 26.6111,20.0 L 26.5556,20.0 L 26.5,20.0 L 26.4444,20.0 L 26.3889,20.0 L 26.3333,20.0 L 26.2778,20.0 L 26.2222,20.0 L 26.1667,20.0 L 26.1111,20.0 L 26.0556,20.0 L 26.0,20.0 L 25.9444,20.0 L 25.8889,20.0 L 25.8333,20.0 L 25.7778,20.0 L 25.7222,20.0 L 25.6667,20.0 L 25.6111,20.0 L 25.5556,20.0 L 25.5,20.0 L 25.4444,20.0 L 25.3889,20.0 L 25.3333,20.0 L 25.2778,20.0 L 25.2222,20.0 L 25.1667,20.0 L 25.1111,20.0 L 25.0556,20.0 L 25.0,20.0 L 24.9444,20.0 L 24.8889,20.0 L 24.8333,20.0 L 24.7778,20.0 L 24.7222,20.0 L 24.6667,20.0 L 24.6111,20.0 L 24.5556,20.0 L 24.5,20.0 L 24.4444,20.0 L 24.3889,20.0 L 24.3333,20.0 L 24.2778,20.0 L 24.2222,20.0 L 24.1667,20.0 L 24.1111,20.0 L 24.0556,20.0 L 24.0,20.0" />
      <path d="M 24.0,20.0 L 24.0,19.4444 L 24.0,18.8889 L 24.0,18.3333 L 24.0,17.7778 L 24.0,17.2222 L 24.0,16.6667 L 24.0,16.1111 L 24.0,15.5556 L 24.0,15.0 L 24.0,14.4444 L 24.0,13.8889 L 24.0,13.3333 L 24.0,12.7778 L 24.0,12.2222 L 24.0,11.6667 L 24.0,11.1111 L 24.0,10.5556 L 24.0,10.0 L 24.0,9.4444 L 24.0,8.8889 L 24.0,8.3333 L 24.0,7.7778 L 24.0,7.2222 L 24.0,6.6667 L 24.0,6.1111 L 24.0,5.5556 L 24.0,5.0 L 24.0,4.4444 L 24.0,3.8889 L 24.0,3.3333 L 24.0,2.7778 L 24.0,2.2222 L 24.0,1.6667 L 24.0,1.1111 L 24.0,0.5556 L 24.0,0.0 L 24.0,-0.5556 L 24.0,-1.1111 L 24.0,-1.6667 L 24.0,-2.2222 L 24.0,-2.7778 L 24.0,-3.3333 L 24.0,-3.8889 L 24.0,-4.4444 L 24.0,-5.0 L 24.0,-5.5556 L 24.0,-6.1111 L 24.0,-6.6667 L 24.0,-7.2222 L 24.0,-7.7778 L 24.0,-8.3333 L 24.0,-8.8889 L 24.0,-9.4444 L 24.0,-10.0 L 24.0,-10.5556 L 24.0,-11.1111 L 24.0,-11.6667 L 24.0,-12.2222 L 24.0,-12.7778 L 24.0,-13.3333 L 24.0,-13.8889 L 24.0,-14.4444 L 24.0,-15.0 L 24.0,-15.5556 L 24.0,-16.1111 L 24.0,-16.6667 L 24.0,-17.2222 L 24.0,-17.7778 L 24.0,-18.3333 L 24.0,-18.8889 L 24.0,-19.4444 L 24.0,-20.0" />
    </g>
    <g fill="none" stroke="rgb(110,110,110)" stroke-width="0.3" id="Hidden" stroke-dasharray="3.6 0.9">
      <path d="M -20.0,20.0 L -19.4444,20.0 L -18.8889,20.0 L -18.3333,20.0 L -17.7778,20.0 L -17.2222,20.0 L -16.6667,20.0 L -16.1111,20.0 L -15.5556,20.0 L -15.0,20.0 L -14.4444,20.0 L -13.8889,20.0 L -13.3333,20.0 L -12.7778,20.0 L -12.2222,20.0 L -11.6667,20.0 L -11.1111,20.0 L -10.5556,20.0 L -10.0,20.0 L -9.4444,20.0 L -8.8889,20.0 L -8.3333,20.0 L -7.7778,20.0 L -7.2222,20.0 L -6.6667,20.0 L -6.1111,20.0 L -5.5556,20.0 L -5.0,20.0 L -4.4444,20.0 L -3.8889,20.0 L -3.3333,20.0 L -2.7778,20.0 L -2.2222,20.0 L -1.6667,20.0 L -1.1111,20.0 L -0.5556,20.0 L 0.0,20.0 L 0.5556,20.0 L 1.1111,20.0 L 1.6667,20.0 L 2.2222,20.0 L 2.7778,20.0 L 3.3333,20.0 L 3.8889,20.0 L 4.4444,20.0 L 5.0,20.0 L 5.5556,20.0 L 6.1111,20.0 L 6.6667,20.0 L 7.2222,20.0 L 7.7778,20.0 L 8.3333,20.0 L 8.8889,20.0 L 9.4444,20.0 L 10.0,20.0 L 10.5556,20.0 L 11.1111,20.0 L 11.6667,20.0 L 12.2222,20.0 L 12.7778,20.0 L 13.3333,20.0 L 13.8889,20.0 L 14.4444,20.0 L 15.0,20.0 L 15.5556,20.0 L 16.1111,20.0 L 16.6667,20.0 L 17.2222,20.0 L 17.7778,20.0 L 18.3333,20.0 L 18.8889,20.0 L 19.4444,20.0 L 20.0,20.0" />
      <path d="M -20.0,-20.0 L -20.0,-19.4444 L -20.0,-18.8889 L -20.0,-18.3333 L -20.0,-17.7778 L -20.0,-17.2222 L -20.0,-16.6667 L -20.0,-16.1111 L -20.0,-15.5556 L -20.0,-15.0 L -20.0,-14.4444 L -20.0,-13.8889 L -20.0,-13.3333 L -20.0,-12.7778 L -20.0,-12.2222 L -20.0,-11.6667 L -20.0,-11.1111 L -20.0,-10.5556 L -20.0,-10.0 L -20.0,-9.4444 L -20.0,-8.8889 L -20.0,-8.3333 L -20.0,-7.7778 L -20.0,-7.2222 L -20.0,-6.6667 L -20.0,-6.1111 L -20.0,-5.5556 L -20.0,-5.0 L -20.0,-4.4444 L -20.0,-3.8889 L -20.0,-3.3333 L -20.0,-2.7778 L -20.0,-2.2222 L -20.0,-1.6667 L -20.0,-1.1111 L -20.0,-0.5556 L -20.0,0.0 L -20.0,0.5556 L -20.0,1.1111 L -20.0,1.6667 L -20.0,2.2222 L -20.0,2.7778 L -20.0,3.3333 L -20.0,3.8889 L -20.0,4.4444 L -20.0,5.0 L -20.0,5.5556 L -20.0,6.1111 L -20.0,6.6667 L -20.0,7.2222 L -20.0,7.7778 L -20.0,8.3333 L -20.0,8.8889 L -20.0,9.4444 L -20.0,10.0 L -20.0,10.5556 L -20.0,11.1111 L -20.0,11.6667 L -20.0,12.2222 L -20.0,12.7778 L -20.0,13.3333 L -20.0,13.8889 L -20.0,14.4444 L -20.0,15.0 L -20.0,15.5556 L -20.0,16.1111 L -20.0,16.6667 L -20.0,17.2222 L -20.0,17.7778 L -20.0,18.3333 L -20.0,18.8889 L -20.0,19.4444 L -20.0,20.0" />
      <path d="M 20.0,20.0 L 20.0,19.4444 L 20.0,18.8889 L 20.0,18.3333 L 20.0,17.7778 L 20.0,17.2222 L 20.0,16.6667 L 20.0,16.1111 L 20.0,15.5556 L 20.0,15.0 L 20.0,14.4444 L 20.0,13.8889 L 20.0,13.3333 L 20.0,12.7778 L 20.0,12.2222 L 20.0,11.6667 L 20.0,11.1111 L 20.0,10.5556 L 20.0,10.0 L 20.0,9.4444 L 20.0,8.8889 L 20.0,8.3333 L 20.0,7.7778 L 20.0,7.2222 L 20.0,6.6667 L 20.0,6.1111 L 20.0,5.5556 L 20.0,5.0 L 20.0,4.4444 L 20.0,3.8889 L 20.0,3.3333 L 20.0,2.7778 L 20.0,2.2222 L 20.0,1.6667 L 20.0,1.1111 L 20.0,0.5556 L 20.0,0.0 L 20.0,-0.5556 L 20.0,-1.1111 L 20.0,-1.6667 L 20.0,-2.2222 L 20.0,-2.7778 L 20.0,-3.3333 L 20.0,-3.8889 L 20.0,-4.4444 L 20.0,-5.0 L 20.0,-5.5556 L 20.0,-6.1111 L 20.0,-6.6667 L 20.0,-7.2222 L 20.0,-7.7778 L 20.0,-8.3333 L 20.0,-8.8889 L 20.0,-9.4444 L 20.0,-10.0 L 20.0,-10.5556 L 20.0,-11.1111 L 20.0,-11.6667 L 20.0,-12.2222 L 20.0,-12.7778 L 20.0,-13.3333 L 20.0,-13.8889 L 20.0,-14.4444 L 20.0,-15.0 L 20.0,-15.5556 L 20.0,-16.1111 L 20.0,-16.6667 L 20.0,-17.2222 L 20.0,-17.7778 L 20.0,-18.3333 L 20.0,-18.8889 L 20.0,-19.4444 L 20.0,-20.0" />
      <path d="M -20.0,-20.0 L -19.4444,-20.0 L -18.8889,-20.0 L -18.3333,-20.0 L -17.7778,-20.0 L -17.2222,-20.0 L -16.6667,-20.0 L -16.1111,-20.0 L -15.5556,-20.0 L -15.0,-20.0 L -14.4444,-20.0 L -13.8889,-20.0 L -13.3333,-20.0 L -12.7778,-20.0 L -12.2222,-20.0 L -11.6667,-20.0 L -11.1111,-20.0 L -10.5556,-20.0 L -10.0,-20.0 L -9.4444,-20.0 L -8.8889,-20.0 L -8.3333,-20.0 L -7.7778,-20.0 L -7.2222,-20.0 L -6.6667,-20.0 L -6.1111,-20.0 L -5.5556,-20.0 L -5.0,-20.0 L -4.4444,-20.0 L -3.8889,-20.0 L -3.3333,-20.0 L -2.7778,-20.0 L -2.2222,-20.0 L -1.6667,-20.0 L -1.1111,-20.0 L -0.5556,-20.0 L 0.0,-20.0 L 0.5556,-20.0 L 1.1111,-20.0 L 1.6667,-20.0 L 2.2222,-20.0 L 2.7778,-20.0 L 3.3333,-20.0 L 3.8889,-20.0 L 4.4444,-20.0 L 5.0,-20.0 L 5.5556,-20.0 L 6.1111,-20.0 L 6.6667,-20.0 L 7.2222,-20.0 L 7.7778,-20.0 L 8.3333,-20.0 L 8.8889,-20.0 L 9.4444,-20.0 L 10.0,-20.0 L 10.5556,-20.0 L 11.1111,-20.0 L 11.6667,-20.0 L 12.2222,-20.0 L 12.7778,-20.0 L 13.3333,-20.0 L 13.8889,-20.0 L 14.4444,-20.0 L 15.0,-20.0 L 15.5556,-20.0 L 16.1111,-20.0 L 16.6667,-20.0 L 17.2222,-20.0 L 17.7778,-20.0 L 18.3333,-20.0 L 18.8889,-20.0 L 19.4444,-20.0 L 20.0,-20.0" />
      <path d="M 6.75,0.0 L 6.7243,0.5883 L 6.6475,1.1721 L 6.52,1.747 L 6.3429,2.3086 L 6.1176,2.8527 L 5.8457,3.375 L 5.5293,3.8716 L 5.1708,4.3388 L 4.773,4.773 L 4.3388,5.1708 L 3.8716,5.5293 L 3.375,5.8457 L 2.8527,6.1176 L 2.3086,6.3429 L 1.747,6.52 L 1.1721,6.6475 L 0.5883,6.7243 L 0.0,6.75 L -0.5883,6.7243 L -1.1721,6.6475 L -1.747,6.52 L -2.3086,6.3429 L -2.8527,6.1176 L -3.375,5.8457 L -3.8716,5.5293 L -4.3388,5.1708 L -4.773,4.773 L -5.1708,4.3388 L -5.5293,3.8716 L -5.8457,3.375 L -6.1176,2.8527 L -6.3429,2.3086 L -6.52,1.747 L -6.6475,1.1721 L -6.7243,0.5883 L -6.75,-0.0 L -6.7243,-0.5883 L -6.6475,-1.1721 L -6.52,-1.747 L -6.3429,-2.3086 L -6.1176,-2.8527 L -5.8457,-3.375 L -5.5293,-3.8716 L -5.1708,-4.3388 L -4.773,-4.773 L -4.3388,-5.1708 L -3.8716,-5.5293 L -3.375,-5.8457 L -2.8527,-6.1176 L -2.3086,-6.3429 L -1.747,-6.52 L -1.1721,-6.6475 L -0.5883,-6.7243 L -0.0,-6.75 L 0.5883,-6.7243 L 1.1721,-6.6475 L 1.747,-6.52 L 2.3086,-6.3429 L 2.8527,-6.1176 L 3.375,-5.8457 L 3.8716,-5.5293 L 4.3388,-5.1708 L 4.773,-4.773 L 5.1708,-4.3388 L 5.5293,-3.8716 L 5.8457,-3.375 L 6.1176,-2.8527 L 6.3429,-2.3086 L 6.52,-1.747 L 6.6475,-1.1721 L 6.7243,-0.5883 L 6.75,0.0" />
      <path d="M 28.08,20.0 L 28.0244,20.0 L 27.9689,20.0 L 27.9133,20.0 L 27.8578,20.0 L 27.8022,20.0 L 27.7467,20.0 L 27.6911,20.0 L 27.6355,20.0 L 27.58,20.0 L 27.5244,20.0 L 27.4689,20.0 L 27.4133,20.0 L 27.3578,20.0 L 27.3022,20.0 L 27.2467,20.0 L 27.1911,20.0 L 27.1355,20.0 L 27.08,20.0 L 27.0244,20.0 L 26.9689,20.0 L 26.9133,20.0 L 26.8578,20.0 L 26.8022,20.0 L 26.7467,20.0 L 26.6911,20.0 L 26.6356,20.0 L 26.58,20.0 L 26.5244,20.0 L 26.4689,20.0 L 26.4133,20.0 L 26.3578,20.0 L 26.3022,20.0 L 26.2467,20.0 L 26.1911,20.0 L 26.1356,20.0 L 26.08,20.0 L 26.0244,20.0 L 25.9689,20.0 L 25.9133,20.0 L 25.8578,20.0 L 25.8022,20.0 L 25.7467,20.0 L 25.6911,20.0 L 25.6356,20.0 L 25.58,20.0 L 25.5244,20.0 L 25.4689,20.0 L 25.4133,20.0 L 25.3578,20.0 L 25.3022,20.0 L 25.2467,20.0 L 25.1911,20.0 L 25.1356,20.0 L 25.08,20.0 L 25.0244,20.0 L 24.9689,20.0 L 24.9133,20.0 L 24.8578,20.0 L 24.8022,20.0 L 24.7467,20.0 L 24.6911,20.0 L 24.6356,20.0 L 24.58,20.0 L 24.5244,20.0 L 24.4689,20.0 L 24.4133,20.0 L 24.3578,20.0 L 24.3022,20.0 L 24.2467,20.0 L 24.1911,20.0 L 24.1356,20.0 L 24.08,20.0" />
      <path d="M 24.08,20.0 L 24.08,19.4444 L 24.08,18.8889 L 24.08,18.3333 L 24.08,17.7778 L 24.08,17.2222 L 24.08,16.6667 L 24.08,16.1111 L 24.08,15.5556 L 24.08,15.0 L 24.08,14.4444 L 24.08,13.8889 L 24.08,13.3333 L 24.08,12.7778 L 24.08,12.2222 L 24.08,11.6667 L 24.08,11.1111 L 24.08,10.5556 L 24.08,10.0 L 24.08,9.4444 L 24.08,8.8889 L 24.08,8.3333 L 24.08,7.7778 L 24.08,7.2222 L 24.08,6.6667 L 24.08,6.1111 L 24.08,5.5556 L 24.08,5.0 L 24.08,4.4444 L 24.08,3.8889 L 24.08,3.3333 L 24.08,2.7778 L 24.08,2.2222 L 24.08,1.6667 L 24.08,1.1111 L 24.08,0.5556 L 24.08,0.0 L 24.08,-0.5556 L 24.08,-1.1111 L 24.08,-1.6667 L 24.08,-2.2222 L 24.08,-2.7778 L 24.08,-3.3333 L 24.08,-3.8889 L 24.08,-4.4444 L 24.08,-5.0 L 24.08,-5.5556 L 24.08,-6.1111 L 24.08,-6.6667 L 24.08,-7.2222 L 24.08,-7.7778 L 24.08,-8.3333 L 24.08,-8.8889 L 24.08,-9.4444 L 24.08,-10.0 L 24.08,-10.5556 L 24.08,-11.1111 L 24.08,-11.6667 L 24.08,-12.2222 L 24.08,-12.7778 L 24.08,-13.3333 L 24.08,-13.8889 L 24.08,-14.4444 L 24.08,-15.0 L 24.08,-15.5556 L 24.08,-16.1111 L 24.08,-16.6667 L 24.08,-17.2222 L 24.08,-17.7778 L 24.08,-18.3333 L 24.08,-18.8889 L 24.08,-19.4444 L 24.08,-20.0" />
      <path d="M 24.08,-20.0 L 24.1356,-20.0 L 24.1911,-20.0 L 24.2467,-20.0 L 24.3022,-20.0 L 24.3578,-20.0 L 24.4133,-20.0 L 24.4689,-20.0 L 24.5244,-20.0 L 24.58,-20.0 L 24.6356,-20.0 L 24.6911,-20.0 L 24.7467,-20.0 L 24.8022,-20.0 L 24.8578,-20.0 L 24.9133,-20.0 L 24.9689,-20.0 L 25.0244,-20.0 L 25.08,-20.0 L 25.1356,-20.0 L 25.1911,-20.0 L 25.2467,-20.0 L 25.3022,-20.0 L 25.3578,-20.0 L 25.4133,-20.0 L 25.4689,-20.0 L 25.5244,-20.0 L 25.58,-20.0 L 25.6356,-20.0 L 25.6911,-20.0 L 25.7467,-20.0 L 25.8022,-20.0 L 25.8578,-20.0 L 25.9133,-20.0 L 25.9689,-20.0 L 26.0244,-20.0 L 26.08,-20.0 L 26.1356,-20.0 L 26.1911,-20.0 L 26.2467,-20.0 L 26.3022,-20.0 L 26.3578,-20.0 L 26.4133,-20.0 L 26.4689,-20.0 L 26.5244,-20.0 L 26.58,-20.0 L 26.6356,-20.0 L 26.6911,-20.0 L 26.7467,-20.0 L 26.8022,-20.0 L 26.8578,-20.0 L 26.9133,-20.0 L 26.9689,-20.0 L 27.0244,-20.0 L 27.08,-20.0 L 27.1355,-20.0 L 27.1911,-20.0 L 27.2467,-20.0 L 27.3022,-20.0 L 27.3578,-20.0 L 27.4133,-20.0 L 27.4689,-20.0 L 27.5244,-20.0 L 27.58,-20.0 L 27.6355,-20.0 L 27.6911,-20.0 L 27.7467,-20.0 L 27.8022,-20.0 L 27.8578,-20.0 L 27.9133,-20.0 L 27.9689,-20.0 L 28.0244,-20.0 L 28.08,-20.0" />
      <path d="M 24.0,-20.0 L 24.0011,-20.0 L 24.0022,-20.0 L 24.0033,-20.0 L 24.0044,-20.0 L 24.0056,-20.0 L 24.0067,-20.0 L 24.0078,-20.0 L 24.0089,-20.0 L 24.01,-20.0 L 24.0111,-20.0 L 24.0122,-20.0 L 24.0133,-20.0 L 24.0144,-20.0 L 24.0156,-20.0 L 24.0167,-20.0 L 24.0178,-20.0 L 24.0189,-20.0 L 24.02,-20.0 L 24.0211,-20.0 L 24.0222,-20.0 L 24.0233,-20.0 L 24.0244,-20.0 L 24.0256,-20.0 L 24.0267,-20.0 L 24.0278,-20.0 L 24.0289,-20.0 L 24.03,-20.0 L 24.0311,-20.0 L 24.0322,-20.0 L 24.0333,-20.0 L 24.0344,-20.0 L 24.0356,-20.0 L 24.0367,-20.0 L 24.0378,-20.0 L 24.0389,-20.0 L 24.04,-20.0 L 24.0411,-20.0 L 24.0422,-20.0 L 24.0433,-20.0 L 24.0444,-20.0 L 24.0456,-20.0 L 24.0467,-20.0 L 24.0478,-20.0 L 24.0489,-20.0 L 24.05,-20.0 L 24.0511,-20.0 L 24.0522,-20.0 L 24.0533,-20.0 L 24.0544,-20.0 L 24.0556,-20.0 L 24.0567,-20.0 L 24.0578,-20.0 L 24.0589,-20.0 L 24.06,-20.0 L 24.0611,-20.0 L 24.0622,-20.0 L 24.0633,-20.0 L 24.0644,-20.0 L 24.0656,-20.0 L 24.0667,-20.0 L 24.0678,-20.0 L 24.0689,-20.0 L 24.07,-20.0 L 24.0711,-20.0 L 24.0722,-20.0 L 24.0733,-20.0 L 24.0744,-20.0 L 24.0756,-20.0 L 24.0767,-20.0 L 24.0778,-20.0 L 24.0789,-20.0 L 24.08,-20.0" />
      <path d="M 24.08,20.0 L 24.0789,20.0 L 24.0778,20.0 L 24.0767,20.0 L 24.0756,20.0 L 24.0744,20.0 L 24.0733,20.0 L 24.0722,20.0 L 24.0711,20.0 L 24.07,20.0 L 24.0689,20.0 L 24.0678,20.0 L 24.0667,20.0 L 24.0656,20.0 L 24.0644,20.0 L 24.0633,20.0 L 24.0622,20.0 L 24.0611,20.0 L 24.06,20.0 L 24.0589,20.0 L 24.0578,20.0 L 24.0567,20.0 L 24.0556,20.0 L 24.0544,20.0 L 24.0533,20.0 L 24.0522,20.0 L 24.0511,20.0 L 24.05,20.0 L 24.0489,20.0 L 24.0478,20.0 L 24.0467,20.0 L 24.0456,20.0 L 24.0444,20.0 L 24.0433,20.0 L 24.0422,20.0 L 24.0411,20.0 L 24.04,20.0 L 24.0389,20.0 L 24.0378,20.0 L 24.0367,20.0 L 24.0356,20.0 L 24.0344,20.0 L 24.0333,20.0 L 24.0322,20.0 L 24.0311,20.0 L 24.03,20.0 L 24.0289,20.0 L 24.0278,20.0 L 24.0267,20.0 L 24.0256,20.0 L 24.0244,20.0 L 24.0233,20.0 L 24.0222,20.0 L 24.0211,20.0 L 24.02,20.0 L 24.0189,20.0 L 24.0178,20.0 L 24.0167,20.0 L 24.0156,20.0 L 24.0144,20.0 L 24.0133,20.0 L 24.0122,20.0 L 24.0111,20.0 L 24.01,20.0 L 24.0089,20.0 L 24.0078,20.0 L 24.0067,20.0 L 24.0056,20.0 L 24.0044,20.0 L 24.0033,20.0 L 24.0022,20.0 L 24.0011,20.0 L 24.0,20.0" />
      <path d="M 24.04,6.75 L 24.0432,6.5626 L 24.0444,6.3751 L 24.0454,6.1876 L 24.0462,6.0001 L 24.0469,5.8126 L 24.0475,5.6251 L 24.048,5.4376 L 24.0485,5.2501 L 24.0489,5.0626 L 24.0493,4.8751 L 24.0497,4.6876 L 24.0501,4.5001 L 24.0504,4.3126 L 24.0507,4.1251 L 24.051,3.9375 L 24.0512,3.75 L 24.0515,3.5625 L 24.0517,3.375 L 24.0519,3.1875 L 24.0521,3.0 L 24.0523,2.8125 L 24.0524,2.625 L 24.0526,2.4375 L 24.0527,2.25 L 24.0529,2.0625 L 24.053,1.875 L 24.0531,1.6875 L 24.0532,1.5 L 24.0532,1.3125 L 24.0533,1.125 L 24.0534,0.9375 L 24.0534,0.75 L 24.0535,0.5625 L 24.0535,0.375 L 24.0535,0.1875 L 24.0535,0.0 L 24.0535,-0.1875 L 24.0535,-0.375 L 24.0535,-0.5625 L 24.0534,-0.75 L 24.0534,-0.9375 L 24.0533,-1.125 L 24.0532,-1.3125 L 24.0532,-1.5 L 24.0531,-1.6875 L 24.053,-1.875 L 24.0529,-2.0625 L 24.0527,-2.25 L 24.0526,-2.4375 L 24.0524,-2.625 L 24.0523,-2.8125 L 24.0521,-3.0 L 24.0519,-3.1875 L 24.0517,-3.375 L 24.0515,-3.5625 L 24.0512,-3.75 L 24.051,-3.9375 L 24.0507,-4.125 L 24.0504,-4.3125 L 24.0501,-4.5 L 24.0497,-4.6875 L 24.0493,-4.875 L 24.0489,-5.0625 L 24.0485,-5.25 L 24.048,-5.4375 L 24.0475,-5.625 L 24.0469,-5.8125 L 24.0462,-6.0 L 24.0454,-6.1875 L 24.0444,-6.375 L 24.0432,-6.5625 L 24.04,-6.75" />
      <path d="M 24.04,-6.75 L 24.0368,-6.5626 L 24.0356,-6.3751 L 24.0346,-6.1876 L 24.0338,-6.0001 L 24.0331,-5.8126 L 24.0325,-5.6251 L 24.032,-5.4376 L 24.0315,-5.2501 L 24.0311,-5.0626 L 24.0307,-4.8751 L 24.0303,-4.6876 L 24.0299,-4.5001 L 24.0296,-4.3126 L 24.0293,-4.1251 L 24.029,-3.9375 L 24.0288,-3.75 L 24.0285,-3.5625 L 24.0283,-3.375 L 24.0281,-3.1875 L 24.0279,-3.0 L 24.0277,-2.8125 L 24.0276,-2.625 L 24.0274,-2.4375 L 24.0273,-2.25 L 24.0271,-2.0625 L 24.027,-1.875 L 24.0269,-1.6875 L 24.0268,-1.5 L 24.0268,-1.3125 L 24.0267,-1.125 L 24.0266,-0.9375 L 24.0266,-0.75 L 24.0265,-0.5625 L 24.0265,-0.375 L 24.0265,-0.1875 L 24.0265,0.0 L 24.0265,0.1875 L 24.0265,0.375 L 24.0265,0.5625 L 24.0266,0.75 L 24.0266,0.9375 L 24.0267,1.125 L 24.0268,1.3125 L 24.0268,1.5 L 24.0269,1.6875 L 24.027,1.875 L 24.0271,2.0625 L 24.0273,2.25 L 24.0274,2.4375 L 24.0276,2.625 L 24.0277,2.8125 L 24.0279,3.0 L 24.0281,3.1875 L 24.0283,3.375 L 24.0285,3.5625 L 24.0288,3.75 L 24.029,3.9375 L 24.0293,4.125 L 24.0296,4.3125 L 24.0299,4.5 L 24.0303,4.6875 L 24.0307,4.875 L 24.0311,5.0625 L 24.0315,5.25 L 24.032,5.4375 L 24.0325,5.625 L 24.0331,5.8125 L 24.0338,6.0 L 24.0346,6.1875 L 24.0356,6.375 L 24.0368,6.5625 L 24.04,6.75" />
      <path d="M 28.04,6.75 L 27.9844,6.75 L 27.9289,6.75 L 27.8733,6.75 L 27.8178,6.75 L 27.7622,6.75 L 27.7067,6.75 L 27.6511,6.75 L 27.5955,6.75 L 27.54,6.75 L 27.4844,6.75 L 27.4289,6.75 L 27.3733,6.75 L 27.3178,6.75 L 27.2622,6.75 L 27.2067,6.75 L 27.1511,6.75 L 27.0955,6.75 L 27.04,6.75 L 26.9844,6.75 L 26.9289,6.75 L 26.8733,6.75 L 26.8178,6.75 L 26.7622,6.75 L 26.7067,6.75 L 26.6511,6.75 L 26.5956,6.75 L 26.54,6.75 L 26.4844,6.75 L 26.4289,6.75 L 26.3733,6.75 L 26.3178,6.75 L 26.2622,6.75 L 26.2067,6.75 L 26.1511,6.75 L 26.0956,6.75 L 26.04,6.75 L 25.9844,6.75 L 25.9289,6.75 L 25.8733,6.75 L 25.8178,6.75 L 25.7622,6.75 L 25.7067,6.75 L 25.6511,6.75 L 25.5956,6.75 L 25.54,6.75 L 25.4844,6.75 L 25.4289,6.75 L 25.3733,6.75 L 25.3178,6.75 L 25.2622,6.75 L 25.2067,6.75 L 25.1511,6.75 L 25.0956,6.75 L 25.04,6.75 L 24.9844,6.75 L 24.9289,6.75 L 24.8733,6.75 L 24.8178,6.75 L 24.7622,6.75 L 24.7067,6.75 L 24.6511,6.75 L 24.5956,6.75 L 24.54,6.75 L 24.4844,6.75 L 24.4289,6.75 L 24.3733,6.75 L 24.3178,6.75 L 24.2622,6.75 L 24.2067,6.75 L 24.1511,6.75 L 24.0956,6.75 L 24.04,6.75" />
      <path d="M 28.04,-6.75 L 27.9844,-6.75 L 27.9289,-6.75 L 27.8733,-6.75 L 27.8178,-6.75 L 27.7622,-6.75 L 27.7067,-6.75 L 27.6511,-6.75 L 27.5955,-6.75 L 27.54,-6.75 L 27.4844,-6.75 L 27.4289,-6.75 L 27.3733,-6.75 L 27.3178,-6.75 L 27.2622,-6.75 L 27.2067,-6.75 L 27.1511,-6.75 L 27.0955,-6.75 L 27.04,-6.75 L 26.9844,-6.75 L 26.9289,-6.75 L 26.8733,-6.75 L 26.8178,-6.75 L 26.7622,-6.75 L 26.7067,-6.75 L 26.6511,-6.75 L 26.5956,-6.75 L 26.54,-6.75 L 26.4844,-6.75 L 26.4289,-6.75 L 26.3733,-6.75 L 26.3178,-6.75 L 26.2622,-6.75 L 26.2067,-6.75 L 26.1511,-6.75 L 26.0956,-6.75 L 26.04,-6.75 L 25.9844,-6.75 L 25.9289,-6.75 L 25.8733,-6.75 L 25.8178,-6.75 L 25.7622,-6.75 L 25.7067,-6.75 L 25.6511,-6.75 L 25.5956,-6.75 L 25.54,-6.75 L 25.4844,-6.75 L 25.4289,-6.75 L 25.3733,-6.75 L 25.3178,-6.75 L 25.2622,-6.75 L 25.2067,-6.75 L 25.1511,-6.75 L 25.0956,-6.75 L 25.04,-6.75 L 24.9844,-6.75 L 24.9289,-6.75 L 24.8733,-6.75 L 24.8178,-6.75 L 24.7622,-6.75 L 24.7067,-6.75 L 24.6511,-6.75 L 24.5956,-6.75 L 24.54,-6.75 L 24.4844,-6.75 L 24.4289,-6.75 L 24.3733,-6.75 L 24.3178,-6.75 L 24.2622,-6.75 L 24.2067,-6.75 L 24.1511,-6.75 L 24.0956,-6.75 L 24.04,-6.75" />
    </g>
  </g>
</svg>