<?xml version='1.0' encoding='utf-8'?>
<svg width="50.0691mm" height="29.92mm" viewBox="-14.96 -14.96 50.0691 29.92" version="1.1" xmlns="http://www.w3.org/2000/svg">
  <g transform="scale(1,-1)" stroke-linecap="round">
    <g fill="none" stroke="rgb(0,0,0)" stroke-width="0.4" id="Visible">
      <path d="M -11.0,11.0 L -11.0,10.9424 L -11.0,10.8847 L -11.0,10.8271 L -11.0,10.7694 L -11.0,10.7118 L -11.0,10.6542 L -11.0,10.5965 L -11.0,10.5389 L -11.0,10.4812 L -11.0,10.4236 L -11.0,10.366 L -11.0,10.3083 L -11.0,10.2507 L -11.0,10.1931 L -11.0,10.1354 L -11.0,10.0778 L -11.0,10.0201 L -11.0,9.9625 L -11.0,9.9049 L -11.0,9.8472 L -11.0,9.7896 L -11.0,9.7319 L -11.0,9.6743 L -11.0,9.6167 L -11.0,9.559 L -11.0,9.5014 L -11.0,9.4437 L -11.0,9.3861 L -11.0,9.3285 L -11.0,9.2708 L -11.0,9.2132 L -11.0,9.1556 L -11.0,9.0979 L -11.0,9.0403 L -11.0,8.9826 L -11.0,8.925 L -11.0,8.8674 L -11.0,8.8097 L -11.0,8.7521 L -11.0,8.6944 L -11.0,8.6368 L -11.0,8.5792 L -11.0,8.5215 L -11.0,8.4639 L -11.0,8.4062 L -11.0,8.3486 L -11.0,8.291 L -11.0,8.2333 L -11.0,8.1757 L -11.0,8.1181 L -11.0,8.0604 L -11.0,8.0028 L -11.0,7.9451 L -11.0,7.8875 L -11.0,7.8299 L -11.0,7.7722 L -11.0,7.7146 L -11.0,7.6569 L -11.0,7.5993 L -11.0,7.5417 L -11.0,7.484 L -11.0,7.4264 L -11.0,7.3687 L -11.0,7.3111 L -11.0,7.2535 L -11.0,7.1958 L -11.0,7.1382 L -11.0,7.0806 L -11.0,7.0229 L -11.0,6.9653 L -11.0,6.9076 L -11.0,6.85" />
      <path d="M -11.0,6.85 L -11.0,6.8361 L -11.0,6.8222 L -11.0,6.8083 L -11.0,6.7944 L -11.0,6.7806 L -11.0,6.7667 L -11.0,6.7528 L -11.0,6.7389 L -11.0,6.725 L -11.0,6.7111 L -11.0,6.6972 L -11.0,6.6833 L -11.0,6.6694 L -11.0,6.6556 L -11.0,6.6417 L -11.0,6.6278 L -11.0,6.6139 L -11.0,6.6 L -11.0,6.5861 L -11.0,6.5722 L -11.0,6.5583 L -11.0,6.5444 L -11.0,6.5306 L -11.0,6.5167 L -11.0,6.5028 L -11.0,6.4889 L -11.0,6.475 L -11.0,6.4611 L -11.0,6.4472 L -11.0,6.4333 L -11.0,6.4194 L -11.0,6.4056 L -11.0,6.3917 L -11.0,6.3778 L -11.0,6.3639 L -11.0,6.35 L -11.0,6.3361 L -11.0,6.3222 L -11.0,6.3083 L -11.0,6.2944 L -11.0,6.2806 L -11.0,6.2667 L -11.0,6.2528 L -11.0,6.2389 L -11.0,6.225 L -11.0,6.2111 L -11.0,6.1972 L -11.0,6.1833 L -11.0,6.1694 L -11.0,6.1556 L -11.0,6.1417 L -11.0,6.1278 L -11.0,6.1139 L -11.0,6.1 L -11.0,6.0861 L -11.0,6.0722 L -11.0,6.0583 L -11.0,6.0444 L -11.0,6.0306 L -11.0,6.0167 L -11.0,6.0028 L -11.0,5.9889 L -11.0,5.975 L -11.0,5.9611 L -11.0,5.9472 L -11.0,5.9333 L -11.0,5.9194 L -11.0,5.9056 L -11.0,5.8917 L -11.0,5.8778 L -11.0,5.8639 L -11.0,5.85" />
      <path d="M -11.0,5.85 L -11.0,5.6875 L -11.0,5.525 L -11.0,5.3625 L -11.0,5.2 L -11.0,5.0375 L -11.0,4.875 L -11.0,4.7125 L -11.0,4.55 L -11.0,4.3875 L -11.0,4.225 L -11.0,4.0625 L -11.0,3.9 L -11.0,3.7375 L -11.0,3.575 L -11.0,3.4125 L -11.0,3.25 L -11.0,3.0875 L -11.0,2.925 L -11.0,2.7625 L -11.0,2.6 L -11.0,2.4375 L -11.0,2.275 L -11.0,2.1125 L -11.0,1.95 L -11.0,1.7875 L -11.0,1.625 L -11.0,1.4625 L -11.0,1.3 L -11.0,1.1375 L -11.0,0.975 L -11.0,0.8125 L -11.0,0.65 L -11.0,0.4875 L -11.0,0.325 L -11.0,0.1625 L -11.0,0.0 L -11.0,-0.1625 L -11.0,-0.325 L -11.0,-0.4875 L -11.0,-0.65 L -11.0,-0.8125 L -11.0,-0.975 L -11.0,-1.1375 L -11.0,-1.3 L -11.0,-1.4625 L -11.0,-1.625 L -11.0,-1.7875 L -11.0,-1.95 L -11.0,-2.1125 L -11.0,-2.275 L -11.0,-2.4375 L -11.0,-2.6 L -11.0,-2.7625 L -11.0,-2.925 L -11.0,-3.0875 L -11.0,-3.25 L -11.0,-3.4125 L -11.0,-3.575 L -11.0,-3.7375 L -11.0,-3.9 L -11.0,-4.0625 L -11.0,-4.225 L -11.0,-4.3875 L -11.0,-4.55 L -11.0,-4.7125 L -11.0,-4.875 L -11.0,-5.0375 L -11.0,-5.2 L -11.0,-5.3625 L -11.0,-5.525 L -11.0,-5.6875 L -11.0,-5.85" />
      <path d="M -11.0,-5.85 L -11.0,-5.8639 L -11.0,-5.8778 L -11.0,-5.8917 L -11.0,-5.9056 L -11.0,-5.9194 L -11.0,-5.9333 L -11.0,-5.9472 L -11.0,-5.9611 L -11.0,-5.975 L -11.0,-5.9889 L -11.0,-6.0028 L -11.0,-6.0167 L -11.0,-6.0306 L -11.0,-6.0444 L -11.0,-6.0583 L -11.0,-6.0722 L -11.0,-6.0861 L -11.0,-6.1 L -11.0,-6.1139 L -11.0,-6.1278 L -11.0,-6.1417 L -11.0,-6.1556 L -11.0,-6.1694 L -11.0,-6.1833 L -11.0,-6.1972 L -11.0,-6.2111 L -11.0,-6.225 L -11.0,-6.2389 L -11.0,-6.2528 L -11.0,-6.2667 L -11.0,-6.2806 L -11.0,-6.2944 L -11.0,-6.3083 L -11.0,-6.3222 L -11.0,-6.3361 L -11.0,-6.35 L -11.0,-6.3639 L -11.0,-6.3778 L -11.0,-6.3917 L -11.0,-6.4056 L -11.0,-6.4194 L -11.0,-6.4333 L -11.0,-6.4472 L -11.0,-6.4611 L -11.0,-6.475 L -11.0,-6.4889 L -11.0,-6.5028 L -11.0,-6.5167 L -11.0,-6.5306 L -11.0,-6.5444 L -11.0,-6.5583 L -11.0,-6.5722 L -11.0,-6.5861 L -11.0,-6.6 L -11.0,-6.6139 L -11.0,-6.6278 L -11.0,-6.6417 L -11.0,-6.6556 L -11.0,-6.6694 L -11.0,-6.6833 L -11.0,-6.6972 L -11.0,-6.7111 L -11.0,-6.725 L -11.0,-6.7389 L -11.0,-6.7528 L -11.0,-6.7667 L -11.0,-6.7806 L -11.0,-6.7944 L -11.0,-6.8083 L -11.0,-6.8222 L -11.0,-6.8361 L -11.0,-6.85" />
      <path d="M -11.0,-6.85 L -11.0,-6.9076 L -11.0,-6.9653 L -11.0,-7.0229 L -11.0,-7.0806 L -11.0,-7.1382 L -11.0,-7.1958 L -11.0,-7.2535 L -11.0,-7.3111 L -11.0,-7.3687 L -11.0,-7.4264 L -11.0,-7.484 L -11.0,-7.5417 L -11.0,-7.5993 L -11.0,-7.6569 L -11.0,-7.7146 L -11.0,-7.7722 L -11.0,-7.8299 L -11.0,-7.8875 L -11.0,-7.9451 L -11.0,-8.0028 L -11.0,-8.0604 L -11.0,-8.1181 L -11.0,-8.1757 L -11.0,-8.2333 L -11.0,-8.291 L -11.0,-8.3486 L -11.0,-8.4062 L -11.0,-8.4639 L -11.0,-8.5215 L -11.0,-8.5792 L -11.0,-8.6368 L -11.0,-8.6944 L -11.0,-8.7521 L -11.0,-8.8097 L -11.0,-8.8674 L -11.0,-8.925 L -11.0,-8.9826 L -11.0,-9.0403 L -11.0,-9.0979 L -11.0,-9.1556 L -11.0,-9.2132 L -11.0,-9.2708 L -11.0,-9.3285 L -11.0,-9.3861 L -11.0,-9.4437 L -11.0,-9.5014 L -11.0,-9.559 L -11.0,-9.6167 L -11.0,-9.6743 L -11.0,-9.7319 L -11.0,-9.7896 L -11.0,-9.8472 L -11.0,-9.9049 L -11.0,-9.9625 L -11.0,-10.0201 L -11.0,-10.0778 L -11.0,-10.1354 L -11.0,-10.1931 L -11.0,-10.2507 L -11.0,-10.3083 L -11.0,-10.366 L -11.0,-10.4236 L -11.0,-10.4812 L -11.0,-10.5389 L -11.0,-10.5965 L -11.0,-10.6542 L -11.0,-10.7118 L -11.0,-10.7694 L -11.0,-10.8271 L -11.0,-10.8847 L -11.0,-10.9424 L -11.0,-11.0" />
      <path d="M 11.0,-11.0 L 10.6944,-11.0 L 10.3889,-11.0 L 10.0833,-11.0 L 9.7778,-11.0 L 9.4722,-11.0 L 9.1667,-11.0 L 8.8611,-11.0 L 8.5556,-11.0 L 8.25,-11.0 L 7.9444,-11.0 L 7.6389,-11.0 L 7.3333,-11.0 L 7.0278,-11.0 L 6.7222,-11.0 L 6.4167,-11.0 L 6.1111,-11.0 L 5.8056,-11.0 L 5.5,-11.0 L 5.1944,-11.0 L 4.8889,-11.0 L 4.5833,-11.0 L 4.2778,-11.0 L 3.9722,-11.0 L 3.6667,-11.0 L 3.3611,-11.0 L 3.0556,-11.0 L 2.75,-11.0 L 2.4444,-11.0 L 2.1389,-11.0 L 1.8333,-11.0 L 1.5278,-11.0 L 1.2222,-11.0 L 0.9167,-11.0 L 0.6111,-11.0 L 0.3056,-11.0 L 0.0,-11.0 L -0.3056,-11.0 L -0.6111,-11.0 L -0.9167,-11.0 L -1.2222,-11.0 L -1.5278,-11.0 L -1.8333,-11.0 L -2.1389,-11.0 L -2.4444,-11.0 L -2.75,-11.0 L -3.0556,-11.0 L -3.3611,-11.0 L -3.6667,-11.0 L -3.9722,-11.0 L -4.2778,-11.0 L -4.5833,-11.0 L -4.8889,-11.0 L -5.1944,-11.0 L -5.5,-11.0 L -5.8056,-11.0 L -6.1111,-11.0 L -6.4167,-11.0 L -6.7222,-11.0 L -7.0278,-11.0 L -7.3333,-11.0 L -7.6389,-11.0 L -7.9444,-11.0 L -8.25,-11.0 L -8.5556,-11.0 L -8.8611,-11.0 L -9.1667,-11.0 L -9.4722,-11.0 L -9.7778,-11.0 L -10.0833,-11.0 L -10.3889,-11.0 L -10.6944,-11.0 L -11.0,-11.0" />
      <path d="M -11.0,11.0 L -10.6944,11.0 L -10.3889,11.0 L -10.0833,11.0 L -9.7778,11.0 L -9.4722,11.0 L -9.1667,11.0 L -8.8611,11.0 L -8.5556,11.0 L -8.25,11.0 L -7.9444,11.0 L -7.6389,11.0 L -7.3333,11.0 L -7.0278,11.0 L -6.7222,11.0 L -6.4167,11.0 L -6.1111,11.0 L -5.8056,11.0 L -5.5,11.0 L -5.1944,11.0 L -4.8889,11.0 L -4.5833,11.0 L -4.2778,11.0 L -3.9722,11.0 L -3.6667,11.0 L -3.3611,11.0 L -3.0556,11.0 L -2.75,11.0 L -2.4444,11.0 L -2.1389,11.0 L -1.8333,11.0 L -1.5278,11.0 L -1.2222,11.0 L -0.9167,11.0 L -0.6111,11.0 L -0.3056,11.0 L 0.0,11.0 L 0.3056,11.0 L 0.6111,11.0 L 0.9167,11.0 L 1.2222,11.0 L 1.5278,11.0 L 1.8333,11.0 L 2.1389,11.0 L 2.4444,11.0 L 2.75,11.0 L 3.0556,11.0 L 3.3611,11.0 L 3.6667,11.0 L 3.9722,11.0 L 4.2778,11.0 L 4.5833,11.0 L 4.8889,11.0 L 5.1944,11.0 L 5.5,11.0 L 5.8056,11.0 L 6.1111,11.0 L 6.4167,11.0 L 6.7222,11.0 L 7.0278,11.0 L 7.3333,11.0 L 7.6389,11.0 L 7.9444,11.0 L 8.25,11.0 L 8.5556,11.0 L 8.8611,11.0 L 9.1667,11.0 L 9.4722,11.0 L 9.7778,11.0 L 10.0833,11.0 L 10.3889,11.0 L 10.6944,11.0 L 11.0,11.0" />
      <path d="M 11.0,11.0 L 11.0,10.9424 L 11.0,10.8847 L 11.0,10.8271 L 11.0,10.7694 L 11.0,10.7118 L 11.0,10.6542 L 11.0,10.5965 L 11.0,10.5389 L 11.0,10.4812 L 11.0,10.4236 L 11.0,10.366 L 11.0,10.3083 L 11.0,10.2507 L 11.0,10.1931 L 11.0,10.1354 L 11.0,10.0778 L 11.0,10.0201 L 11.0,9.9625 L 11.0,9.9049 L 11.0,9.8472 L 11.0,9.7896 L 11.0,9.7319 L 11.0,9.6743 L 11.0,9.6167 L 11.0,9.559 L 11.0,9.5014 L 11.0,9.4437 L 11.0,9.3861 L 11.0,9.3285 L 11.0,9.2708 L 11.0,9.2132 L 11.0,9.1556 L 11.0,9.0979 L 11.0,9.0403 L 11.0,8.9826 L 11.0,8.925 L 11.0,8.8674 L 11.0,8.8097 L 11.0,8.7521 L 11.0,8.6944 L 11.0,8.6368 L 11.0,8.5792 L 11.0,8.5215 L 11.0,8.4639 L 11.0,8.4062 L 11.0,8.3486 L 11.0,8.291 L 11.0,8.2333 L 11.0,8.1757 L 11.0,8.1181 L 11.0,8.0604 L 11.0,8.0028 L 11.0,7.9451 L 11.0,7.8875 L 11.0,7.8299 L 11.0,7.7722 L 11.0,7.7146 L 11.0,7.6569 L 11.0,7.5993 L 11.0,7.5417 L 11.0,7.484 L 11.0,7.4264 L 11.0,7.3687 L 11.0,7.3111 L 11.0,7.2535 L 11.0,7.1958 L 11.0,7.1382 L 11.0,7.0806 L 11.0,7.0229 L 11.0,6.9653 L 11.0,6.9076 L 11.0,6.85" />
      <path d="M 11.0,6.85 L 11.0,6.8361 L 11.0,6.8222 L 11.0,6.8083 L 11.0,6.7944 L 11.0,6.7806 L 11.0,6.7667 L 11.0,6.7528 L 11.0,6.7389 L 11.0,6.725 L 11.0,6.7111 L 11.0,6.6972 L 11.0,6.6833 L 11.0,6.6694 L 11.0,6.6556 L 11.0,6.6417 L 11.0,6.6278 L 11.0,6.6139 L 11.0,6.6 L 11.0,6.5861 L 11.0,6.5722 L 11.0,6.5583 L 11.0,6.5444 L 11.0,6.5306 L 11.0,6.5167 L 11.0,6.5028 L 11.0,6.4889 L 11.0,6.475 L 11.0,6.4611 L 11.0,6.4472 L 11.0,6.4333 L 11.0,6.4194 L 11.0,6.4056 L 11.0,6.3917 L 11.0,6.3778 L 11.0,6.3639 L 11.0,6.35 L 11.0,6.3361 L 11.0,6.3222 L 11.0,6.3083 L 11.0,6.2944 L 11.0,6.2806 L 11.0,6.2667 L 11.0,6.2528 L 11.0,6.2389 L 11.0,6.225 L 11.0,6.2111 L 11.0,6.1972 L 11.0,6.1833 L 11.0,6.1694 L 11.0,6.1556 L 11.0,6.1417 L 11.0,6.1278 L 11.0,6.1139 L 11.0,6.1 L 11.0,6.0861 L 11.0,6.0722 L 11.0,6.0583 L 11.0,6.0444 L 11.0,6.0306 L 11.0,6.0167 L 11.0,6.0028 L 11.0,5.9889 L 11.0,5.975 L 11.0,5.9611 L 11.0,5.9472 L 11.0,5.9333 L 11.0,5.9194 L 11.0,5.9056 L 11.0,5.8917 L 11.0,5.8778 L 11.0,5.8639 L 11.0,5.85" />
      <path d="M 11.0,5.85 L 11.0,5.6875 L 11.0,5.525 L 11.0,5.3625 L 11.0,5.2 L 11.0,5.0375 L 11.0,4.875 L 11.0,4.7125 L 11.0,4.55 L 11.0,4.3875 L 11.0,4.225 L 11.0,4.0625 L 11.0,3.9 L 11.0,3.7375 L 11.0,3.575 L 11.0,3.4125 L 11.0,3.25 L 11.0,3.0875 L 11.0,2.925 L 11.0,2.7625 L 11.0,2.6 L 11.0,2.4375 L 11.0,2.275 L 11.0,2.1125 L 11.0,1.95 L 11.0,1.7875 L 11.0,1.625 L 11.0,1.4625 L 11.0,1.3 L 11.0,1.1375 L 11.0,0.975 L 11.0,0.8125 L 11.0,0.65 L 11.0,0.4875 L 11.0,0.325 L 11.0,0.1625 L 11.0,0.0 L 11.0,-0.1625 L 11.0,-0.325 L 11.0,-0.4875 L 11.0,-0.65 L 11.0,-0.8125 L 11.0,-0.975 L 11.0,-1.1375 L 11.0,-1.3 L 11.0,-1.4625 L 11.0,-1.625 L 11.0,-1.7875 L 11.0,-1.95 L 11.0,-2.1125 L 11.0,-2.275 L 11.0,-2.4375 L 11.0,-2.6 L 11.0,-2.7625 L 11.0,-2.925 L 11.0,-3.0875 L 11.0,-3.25 L 11.0,-3.4125 L 11.0,-3.575 L 11.0,-3.7375 L 11.0,-3.9 L 11.0,-4.0625 L 11.0,-4.225 L 11.0,-4.3875 L 11.0,-4.55 L 11.0,-4.7125 L 11.0,-4.875 L 11.0,-5.0375 L 11.0,-5.2 L 11.0,-5.3625 L 11.0,-5.525 L 11.0,-5.6875 L 11.0,-5.85" />
      <path d="M 11.0,-5.85 L 11.0,-5.8639 L 11.0,-5.8778 L 11.0,-5.8917 L 11.0,-5.9056 L 11.0,-5.9194 L 11.0,-5.9333 L 11.0,-5.9472 L 11.0,-5.9611 L 11.0,-5.975 L 11.0,-5.9889 L 11.0,-6.0028 L 11.0,-6.0167 L 11.0,-6.0306 L 11.0,-6.0444 L 11.0,-6.0583 L 11.0,-6.0722 L 11.0,-6.0861 L 11.0,-6.1 L 11.0,-6.1139 L 11.0,-6.1278 L 11.0,-6.1417 L 11.0,-6.1556 L 11.0,-6.1694 L 11.0,-6.1833 L 11.0,-6.1972 L 11.0,-6.2111 L 11.0,-6.225 L 11.0,-6.2389 L 11.0,-6.2528 L 11.0,-6.2667 L 11.0,-6.2806 L 11.0,-6.2944 L 11.0,-6.3083 L 11.0,-6.3222 L 11.0,-6.3361 L 11.0,-6.35 L 11.0,-6.3639 L 11.0,-6.3778 L 11.0,-6.3917 L 11.0,-6.4056 L 11.0,-6.4194 L 11.0,-6.4333 L 11.0,-6.4472 L 11.0,-6.4611 L 11.0,-6.475 L 11.0,-6.4889 L 11.0,-6.5028 L 11.0,-6.5167 L 11.0,-6.5306 L 11.0,-6.5444 L 11.0,-6.5583 L 11.0,-6.5722 L 11.0,-6.5861 L 11.0,-6.6 L 11.0,-6.6139 L 11.0,-6.6278 L 11.0,-6.6417 L 11.0,-6.6556 L 11.0,-6.6694 L 11.0,-6.6833 L 11.0,-6.6972 L 11.0,-6.7111 L 11.0,-6.725 L 11.0,-6.7389 L 11.0,-6.7528 L 11.0,-6.7667 L 11.0,-6.7806 L 11.0,-6.7944 L 11.0,-6.8083 L 11.0,-6.8222 L 11.0,-6.8361 L 11.0,-6.85" />
      <path d="M 11.0,-6.85 L 11.0,-6.9076 L 11.0,-6.9653 L 11.0,-7.0229 L 11.0,-7.0806 L 11.0,-7.1382 L 11.0,-7.1958 L 11.0,-7.2535 L 11.0,-7.3111 L 11.0,-7.3687 L 11.0,-7.4264 L 11.0,-7.484 L 11.0,-7.5417 L 11.0,-7.5993 L 11.0,-7.6569 L 11.0,-7.7146 L 11.0,-7.7722 L 11.0,-7.8299 L 11.0,-7.8875 L 11.0,-7.9451 L 11.0,-8.0028 L 11.0,-8.0604 L 11.0,-8.1181 L 11.0,-8.1757 L 11.0,-8.2333 L 11.0,-8.291 L 11.0,-8.3486 L 11.0,-8.4062 L 11.0,-8.4639 L 11.0,-8.5215 L 11.0,-8.5792 L 11.0,-8.6368 L 11.0,-8.6944 L 11.0,-8.7521 L 11.0,-8.8097 L 11.0,-8.8674 L 11.0,-8.925 L 11.0,-8.9826 L 11.0,-9.0403 L 11.0,-9.0979 L 11.0,-9.1556 L 11.0,-9.2132 L 11.0,-9.2708 L 11.0,-9.3285 L 11.0,-9.3861 L 11.0,-9.4437 L 11.0,-9.5014 L 11.0,-9.559 L 11.0,-9.6167 L 11.0,-9.6743 L 11.0,-9.7319 L 11.0,-9.7896 L 11.0,-9.8472 L 11.0,-9.9049 L 11.0,-9.9625 L 11.0,-10.0201 L 11.0,-10.0778 L 11.0,-10.1354 L 11.0,-10.1931 L 11.0,-10.2507 L 11.0,-10.3083 L 11.0,-10.366 L 11.0,-10.4236 L 11.0,-10.4812 L 11.0,-10.5389 L 11.0,-10.5965 L 11.0,-10.6542 L 11.0,-10.7118 L 11.0,-10.7694 L 11.0,-10.8271 L 11.0,-10.8847 L 11.0,-10.9424 L 11.0,-11.0" />
      <path d="M -0.0,5.05 L -0.4401,5.0308 L -0.8769,4.9733 L -1.307,4.8779 L -1.7272,4.7454 L -2.1342,4.5769 L -2.525,4.3734 L -2.8966,4.1367 L -3.2461,3.8685 L -3.5709,3.5709 L -3.8685,3.2461 L -4.1367,2.8966 L -4.3734,2.525 L -4.5769,2.1342 L -4.7454,1.7272 L -4.8779,1.307 L -4.9733,0.8769 L -5.0308,0.4401 L -5.05,-0.0 L -5.0308,-0.4401 L -4.9733,-0.8769 L -4.8779,-1.307 L -4.7454,-1.7272 L -4.5769,-2.1342 L -4.3734,-2.525 L -4.1367,-2.8966 L -3.8685,-3.2461 L -3.5709,-3.5709 L -3.2461,-3.8685 L -2.8966,-4.1367 L -2.525,-4.3734 L -2.1342,-4.5769 L -1.7272,-4.7454 L -1.307,-4.8779 L -0.8769,-4.9733 L -0.4401,-5.0308 L 0.0,-5.05 L 0.4401,-5.0308 L 0.8769,-4.9733 L 1.307,-4.8779 L 1.7272,-4.7454 L 2.1342,-4.5769 L 2.525,-4.3734 L 2.8966,-4.1367 L 3.2461,-3.8685 L 3.5709,-3.5709 L 3.8685,-3.2461 L 4.1367,-2.8966 L 4.3734,-2.525 L 4.5769,-2.1342 L 4.7454,-1.7272 L 4.8779,-1.307 L 4.9733,-0.8769 L 5.0308,-0.4401 L 5.05,0.0 L 5.0308,0.4401 L 4.9733,0.8769 L 4.8779,1.307 L 4.7454,1.7272 L 4.5769,2.1342 L 4.3734,2.525 L 4.1367,2.8966 L 3.8685,3.2461 L 3.5709,3.5709 L 3.2461,3.8685 L 2.8966,4.1367 L 2.525,4.3734 L 2.1342,4.5769 L 1.7272,4.7454 L 1.307,4.8779 L 0.8769,4.9733 L 0.4401,5.0308 L -0.0,5.05" />
      <path d="M -11.0,6.85 L -10.6944,6.85 L -10.3889,6.85 L -10.0833,6.85 L -9.7778,6.85 L -9.4722,6.85 L -9.1667,6.85 L -8.8611,6.85 L -8.5556,6.85 L -8.25,6.85 L -7.9444,6.85 L -7.6389,6.85 L -7.3333,6.85 L -7.0278,6.85 L -6.7222,6.85 L -6.4167,6.85 L -6.1111,6.85 L -5.8056,6.85 L -5.5,6.85 L -5.1944,6.85 L -4.8889,6.85 L -4.5833,6.85 L -4.2778,6.85 L -3.9722,6.85 L -3.6667,6.85 L -3.3611,6.85 L -3.0556,6.85 L -2.75,6.85 L -2.4444,6.85 L -2.1389,6.85 L -1.8333,6.85 L -1.5278,6.85 L -1.2222,6.85 L -0.9167,6.85 L -0.6111,6.85 L -0.3056,6.85 L 0.0,6.85 L 0.3056,6.85 L 0.6111,6.85 L 0.9167,6.85 L 1.2222,6.85 L 1.5278,6.85 L 1.8333,6.85 L 2.1389,6.85 L 2.4444,6.85 L 2.75,6.85 L 3.0556,6.85 L 3.3611,6.85 L 3.6667,6.85 L 3.9722,6.85 L 4.2778,6.85 L 4.5833,6.85 L 4.8889,6.85 L 5.1944,6.85 L 5.5,6.85 L 5.8056,6.85 L 6.1111,6.85 L 6.4167,6.85 L 6.7222,6.85 L 7.0278,6.85 L 7.3333,6.85 L 7.6389,6.85 L 7.9444,6.85 L 8.25,6.85 L 8.5556,6.85 L 8.8611,6.85 L 9.1667,6.85 L 9.4722,6.85 L 9.7778,6.85 L 10.0833,6.85 L 10.3889,6.85 L 10.6944,6.85 L 11.0,6.85" />
      <path d="M -11.0,5.85 L -10.6944,5.85 L -10.3889,5.85 L -10.0833,5.85 L -9.7778,5.85 L -9.4722,5.85 L -9.1667,5.85 L -8.8611,5.85 L -8.5556,5.85 L -8.25,5.85 L -7.9444,5.85 L -7.6389,5.85 L -7.3333,5.85 L -7.0278,5.85 L -6.7222,5.85 L -6.4167,5.85 L -6.1111,5.85 L -5.8056,5.85 L -5.5,5.85 L -5.1944,5.85 L -4.8889,5.85 L -4.5833,5.85 L -4.2778,5.85 L -3.9722,5.85 L -3.6667,5.85 L -3.3611,5.85 L -3.0556,5.85 L -2.75,5.85 L -2.4444,5.85 L -2.1389,5.85 L -1.8333,5.85 L -1.5278,5.85 L -1.2222,5.85 L -0.9167,5.85 L -0.6111,5.85 L -0.3056,5.85 L 0.0,5.85 L 0.3056,5.85 L 0.6111,5.85 L 0.9167,5.85 L 1.2222,5.85 L 1.5278,5.85 L 1.8333,5.85 L 2.1389,5.85 L 2.4444,5.85 L 2.75,5.85 L 3.0556,5.85 L 3.3611,5.85 L 3.6667,5.85 L 3.9722,5.85 L 4.2778,5.85 L 4.5833,5.85 L 4.8889,5.85 L 5.1944,5.85 L 5.5,5.85 L 5.8056,5.85 L 6.1111,5.85 L 6.4167,5.85 L 6.7222,5.85 L 7.0278,5.85 L 7.3333,5.85 L 7.6389,5.85 L 7.9444,5.85 L 8.25,5.85 L 8.5556,5.85 L 8.8611,5.85 L 9.1667,5.85 L 9.4722,5.85 L 9.7778,5.85 L 10.0833,5.85 L 10.3889,5.85 L 10.6944,5.85 L 11.0,5.85" />
      <path d="M -11.0,-5.85 L -10.6944,-5.85 L -10.3889,-5.85 L -10.0833,-5.85 L -9.7778,-5.85 L -9.4722,-5.85 L -9.1667,-5.85 L -8.8611,-5.85 L -8.5556,-5.85 L -8.25,-5.85 L -7.9444,-5.85 L -7.6389,-5.85 L -7.3333,-5.85 L -7.0278,-5.85 L -6.7222,-5.85 L -6.4167,-5.85 L -6.1111,-5.85 L -5.8056,-5.85 L -5.5,-5.85 L -5.1944,-5.85 L -4.8889,-5.85 L -4.5833,-5.85 L -4.2778,-5.85 L -3.9722,-5.85 L -3.6667,-5.85 L -3.3611,-5.85 L -3.0556,-5.85 L -2.75,-5.85 L -2.4444,-5.85 L -2.1389,-5.85 L -1.8333,-5.85 L -1.5278,-5.85 L -1.2222,-5.85 L -0.9167,-5.85 L -0.6111,-5.85 L -0.3056,-5.85 L 0.0,-5.85 L 0.3056,-5.85 L 0.6111,-5.85 L 0.9167,-5.85 L 1.2222,-5.85 L 1.5278,-5.85 L 1.8333,-5.85 L 2.1389,-5.85 L 2.4444,-5.85 L 2.75,-5.85 L 3.0556,-5.85 L 3.3611,-5.85 L 3.6667,-5.85 L 3.9722,-5.85 L 4.2778,-5.85 L 4.5833,-5.85 L 4.8889,-5.85 L 5.1944,-5.85 L 5.5,-5.85 L 5.8056,-5.85 L 6.1111,-5.85 L 6.4167,-5.85 L 6.7222,-5.85 L 7.0278,-5.85 L 7.3333,-5.85 L 7.6389,-5.85 L 7.9444,-5.85 L 8.25,-5.85 L 8.5556,-5.85 L 8.8611,-5.85 L 9.1667,-5.85 L 9.4722,-5.85 L 9.7778,-5.85 L 10.0833,-5.85 L 10.3889,-5.85 L 10.6944,-5.85 L 11.0,-5.85" />
      <path d="M -11.0,-6.85 L -10.6944,-6.85 L -10.3889,-6.85 L -10.0833,-6.85 L -9.7778,-6.85 L -9.4722,-6.85 L -9.1667,-6.85 L -8.8611,-6.85 L -8.5556,-6.85 L -8.25,-6.85 L -7.9444,-6.85 L -7.6389,-6.85 L -7.3333,-6.85 L -7.0278,-6.85 L -6.7222,-6.85 L -6.4167,-6.85 L -6.1111,-6.85 L -5.8056,-6.85 L -5.5,-6.85 L -5.1944,-6.85 L -4.8889,-6.85 L -4.5833,-6.85 L -4.2778,-6.85 L -3.9722,-6.85 L -3.6667,-6.85 L -3.3611,-6.85 L -3.0556,-6.85 L -2.75,-6.85 L -2.4444,-6.85 L -2.1389,-6.85 L -1.8333,-6.85 L -1.5278,-6.85 L -1.2222,-6.85 L -0.9167,-6.85 L -0.6111,-6.85 L -0.3056,-6.85 L 0.0,-6.85 L 0.3056,-6.85 L 0.6111,-6.85 L 0.9167,-6.85 L 1.2222,-6.85 L 1.5278,-6.85 L 1.8333,-6.85 L 2.1389,-6.85 L 2.4444,-6.85 L 2.75,-6.85 L 3.0556,-6.85 L 3.3611,-6.85 L 3.6667,-6.85 L 3.9722,-6.85 L 4.2778,-6.85 L 4.5833,-6.85 L 4.8889,-6.85 L 5.1944,-6.85 L 5.5,-6.85 L 5.8056,-6.85 L 6.1111,-6.85 L 6.4167,-6.85 L 6.7222,-6.85 L 7.0278,-6.85 L 7.3333,-6.85 L 7.6389,-6.85 L 7.9444,-6.85 L 8.25,-6.85 L 8.5556,-6.85 L 8.8611,-6.85 L 9.1667,-6.85 L 9.4722,-6.85 L 9.7778,-6.85 L 10.0833,-6.85 L 10.3889,-6.85 L 10.6944,-6.85 L 11.0,-6.85" />
      <path d="M 31.1491,-11.0 L 31.1491,-10.6944 L 31.1491,-10.3889 L 31.1491,-10.0833 L 31.1491,-9.7778 L 31.1491,-9.4722 L 31.1491,-9.1667 L 31.1491,-8.8611 L 31.1491,-8.5556 L 31.1491,-8.25 L 31.1491,-7.9444 L 31.1491,-7.6389 L 31.1491,-7.3333 L 31.1491,-7.0278 L 31.1491,-6.7222 L 31.1491,-6.4167 L 31.1491,-6.1111 L 31.1491,-5.8056 L 31.1491,-5.5 L 31.1491,-5.1944 L 31.1491,-4.8889 L 31.1491,-4.5833 L 31.1491,-4.2778 L 31.1491,-3.9722 L 31.1491,-3.6667 L 31.1491,-3.3611 L 31.1491,-3.0556 L 31.1491,-2.75 L 31.1491,-2.4444 L 31.1491,-2.1389 L 31.1491,-1.8333 L 31.1491,-1.5278 L 31.1491,-1.2222 L 31.1491,-0.9167 L 31.1491,-0.6111 L 31.1491,-0.3056 L 31.1491,0.0 L 31.1491,0.3056 L 31.1491,0.6111 L 31.1491,0.9167 L 31.1491,1.2222 L 31.1491,1.5278 L 31.1491,1.8333 L 31.1491,2.1389 L 31.1491,2.4444 L 31.1491,2.75 L 31.1491,3.0556 L 31.1491,3.3611 L 31.1491,3.6667 L 31.1491,3.9722 L 31.1491,4.2778 L 31.1491,4.5833 L 31.1491,4.8889 L 31.1491,5.1944 L 31.1491,5.5 L 31.1491,5.8056 L 31.1491,6.1111 L 31.1491,6.4167 L 31.1491,6.7222 L 31.1491,7.0278 L 31.1491,7.3333 L 31.1491,7.6389 L 31.1491,7.9444 L 31.1491,8.25 L 31.1491,8.5556 L 31.1491,8.8611 L 31.1491,9.1667 L 31.1491,9.4722 L 31.1491,9.7778 L 31.1491,10.0833 L 31.1491,10.3889 L 31.1491,10.6944 L 31.1491,11.0" />
      <path d="M 30.9996,-11.0 L 31.0017,-11.0 L 31.0038,-11.0 L 31.0059,-11.0 L 31.0079,-11.0 L 31.01,-11.0 L 31.0121,-11.0 L 31.0142,-11.0 L 31.0162,-11.0 L 31.0183,-11.0 L 31.0204,-11.0 L 31.0225,-11.0 L 31.0245,-11.0 L 31.0266,-11.0 L 31.0287,-11.0 L 31.0308,-11.0 L 31.0328,-11.0 L 31.0349,-11.0 L 31.037,-11.0 L 31.0391,-11.0 L 31.0411,-11.0 L 31.0432,-11.0 L 31.0453,-11.0 L 31.0474,-11.0 L 31.0494,-11.0 L 31.0515,-11.0 L 31.0536,-11.0 L 31.0557,-11.0 L 31.0577,-11.0 L 31.0598,-11.0 L 31.0619,-11.0 L 31.064,-11.0 L 31.066,-11.0 L 31.0681,-11.0 L 31.0702,-11.0 L 31.0723,-11.0 L 31.0743,-11.0 L 31.0764,-11.0 L 31.0785,-11.0 L 31.0806,-11.0 L 31.0827,-11.0 L 31.0847,-11.0 L 31.0868,-11.0 L 31.0889,-11.0 L 31.091,-11.0 L 31.093,-11.0 L 31.0951,-11.0 L 31.0972,-11.0 L 31.0993,-11.0 L 31.1013,-11.0 L 31.1034,-11.0 L 31.1055,-11.0 L 31.1076,-11.0 L 31.1096,-11.0 L 31.1117,-11.0 L 31.1138,-11.0 L 31.1159,-11.0 L 31.1179,-11.0 L 31.12,-11.0 L 31.1221,-11.0 L 31.1242,-11.0 L 31.1262,-11.0 L 31.1283,-11.0 L 31.1304,-11.0 L 31.1325,-11.0 L 31.1345,-11.0 L 31.1366,-11.0 L 31.1387,-11.0 L 31.1408,-11.0 L 31.1428,-11.0 L 31.1449,-11.0 L 31.147,-11.0 L 31.1491,-11.0" />
      <path d="M 31.1491,11.0 L 31.147,11.0 L 31.1449,11.0 L 31.1428,11.0 L 31.1408,11.0 L 31.1387,11.0 L 31.1366,11.0 L 31.1345,11.0 L 31.1325,11.0 L 31.1304,11.0 L 31.1283,11.0 L 31.1262,11.0 L 31.1242,11.0 L 31.1221,11.0 L 31.12,11.0 L 31.1179,11.0 L 31.1159,11.0 L 31.1138,11.0 L 31.1117,11.0 L 31.1096,11.0 L 31.1076,11.0 L 31.1055,11.0 L 31.1034,11.0 L 31.1013,11.0 L 31.0993,11.0 L 31.0972,11.0 L 31.0951,11.0 L 31.093,11.0 L 31.091,11.0 L 31.0889,11.0 L 31.0868,11.0 L 31.0847,11.0 L 31.0827,11.0 L 31.0806,11.0 L 31.0785,11.0 L 31.0764,11.0 L 31.0743,11.0 L 31.0723,11.0 L 31.0702,11.0 L 31.0681,11.0 L 31.066,11.0 L 31.064,11.0 L 31.0619,11.0 L 31.0598,11.0 L 31.0577,11.0 L 31.0557,11.0 L 31.0536,11.0 L 31.0515,11.0 L 31.0494,11.0 L 31.0474,11.0 L 31.0453,11.0 L 31.0432,11.0 L 31.0411,11.0 L 31.0391,11.0 L 31.037,11.0 L 31.0349,11.0 L 31.0328,11.0 L 31.0308,11.0 L 31.0287,11.0 L 31.0266,11.0 L 31.0245,11.0 L 31.0225,11.0 L 31.0204,11.0 L 31.0183,11.0 L 31.0162,11.0 L 31.0142,11.0 L 31.0121,11.0 L 31.01,11.0 L 31.0079,11.0 L 31.0059,11.0 L 31.0038,11.0 L 31.0017,11.0 L 30.9996,11.0" />
      <path d="M 30.9996,-11.0 L 30.9996,-10.6944 L 30.9996,-10.3889 L 30.9996,-10.0833 L 30.9996,-9.7778 L 30.9996,-9.4722 L 30.9996,-9.1667 L 30.9996,-8.8611 L 30.9996,-8.5556 L 30.9996,-8.25 L 30.9996,-7.9444 L 30.9996,-7.6389 L 30.9996,-7.3333 L 30.9996,-7.0278 L 30.9996,-6.7222 L 30.9996,-6.4167 L 30.9996,-6.1111 L 30.9996,-5.8056 L 30.9996,-5.5 L 30.9996,-5.1944 L 30.9996,-4.8889 L 30.9996,-4.5833 L 30.9996,-4.2778 L 30.9996,-3.9722 L 30.9996,-3.6667 L 30.9996,-3.3611 L 30.9996,-3.0556 L 30.9996,-2.75 L 30.9996,-2.4444 L 30.9996,-2.1389 L 30.9996,-1.8333 L 30.9996,-1.5278 L 30.9996,-1.2222 L 30.9996,-0.9167 L 30.9996,-0.6111 L 30.9996,-0.3056 L 30.9996,0.0 L 30.9996,0.3056 L 30.9996,0.6111 L 30.9996,0.9167 L 30.9996,1.2222 L 30.9996,1.5278 L 30.9996,1.8333 L 30.9996,2.1389 L 30.9996,2.4444 L 30.9996,2.75 L 30.9996,3.0556 L 30.9996,3.3611 L 30.9996,3.6667 L 30.9996,3.9722 L 30.9996,4.2778 L 30.9996,4.5833 L 30.9996,4.8889 L 30.9996,5.1944 L 30.9996,5.5 L 30.9996,5.8056 L 30.9996,6.1111 L 30.9996,6.4167 L 30.9996,6.7222 L 30.9996,7.0278 L 30.9996,7.3333 L 30.9996,7.6389 L 30.9996,7.9444 L 30.9996,8.25 L 30.9996,8.5556 L 30.9996,8.8611 L 30.9996,9.1667 L 30.9996,9.4722 L 30.9996,9.7778 L 30.9996,10.0833 L 30.9996,10.3889 L 30.9996,10.6944 L 30.9996,11.0" />
      <path d="M 31.0743,5.05 L 31.0824,4.9103 L 31.0856,4.77 L 31.088,4.6297 L 31.0901,4.4894 L 31.0918,4.3492 L 31.0933,4.2089 L 31.0947,4.0686 L 31.0959,3.9283 L 31.097,3.788 L 31.0981,3.6477 L 31.099,3.5074 L 31.0999,3.3671 L 31.1007,3.2268 L 31.1015,3.0865 L 31.1022,2.9462 L 31.1029,2.806 L 31.1035,2.6657 L 31.1041,2.5254 L 31.1046,2.3851 L 31.1051,2.2448 L 31.1055,2.1045 L 31.1059,1.9642 L 31.1063,1.8239 L 31.1067,1.6836 L 31.107,1.5433 L 31.1073,1.403 L 31.1076,1.2627 L 31.1078,1.1224 L 31.108,0.9821 L 31.1082,0.8418 L 31.1083,0.7015 L 31.1084,0.5613 L 31.1085,0.421 L 31.1086,0.2807 L 31.1086,0.1404 L 31.1087,0.0001 L 31.1086,-0.1402 L 31.1086,-0.2805 L 31.1085,-0.4208 L 31.1084,-0.5611 L 31.1083,-0.7014 L 31.1082,-0.8417 L 31.108,-0.982 L 31.1078,-1.1223 L 31.1076,-1.2626 L 31.1073,-1.4029 L 31.107,-1.5432 L 31.1067,-1.6834 L 31.1063,-1.8237 L 31.1059,-1.964 L 31.1055,-2.1043 L 31.1051,-2.2446 L 31.1046,-2.3849 L 31.1041,-2.5252 L 31.1035,-2.6655 L 31.1029,-2.8058 L 31.1022,-2.9461 L 31.1015,-3.0864 L 31.1007,-3.2267 L 31.0999,-3.367 L 31.099,-3.5072 L 31.0981,-3.6475 L 31.097,-3.7878 L 31.0959,-3.9281 L 31.0947,-4.0684 L 31.0933,-4.2087 L 31.0918,-4.349 L 31.0901,-4.4893 L 31.0881,-4.6295 L 31.0856,-4.7698 L 31.0824,-4.9101 L 31.0743,-5.05" />
      <path d="M 31.0743,-5.05 L 31.0663,-4.9103 L 31.0631,-4.77 L 31.0606,-4.6297 L 31.0586,-4.4894 L 31.0569,-4.3492 L 31.0554,-4.2089 L 31.054,-4.0686 L 31.0528,-3.9283 L 31.0517,-3.788 L 31.0506,-3.6477 L 31.0497,-3.5074 L 31.0488,-3.3671 L 31.048,-3.2268 L 31.0472,-3.0865 L 31.0465,-2.9462 L 31.0458,-2.806 L 31.0452,-2.6657 L 31.0446,-2.5254 L 31.0441,-2.3851 L 31.0436,-2.2448 L 31.0432,-2.1045 L 31.0427,-1.9642 L 31.0424,-1.8239 L 31.042,-1.6836 L 31.0417,-1.5433 L 31.0414,-1.403 L 31.0411,-1.2627 L 31.0409,-1.1224 L 31.0407,-0.9821 L 31.0405,-0.8418 L 31.0404,-0.7015 L 31.0403,-0.5613 L 31.0402,-0.421 L 31.0401,-0.2807 L 31.0401,-0.1404 L 31.04,-0.0001 L 31.0401,0.1402 L 31.0401,0.2805 L 31.0402,0.4208 L 31.0403,0.5611 L 31.0404,0.7014 L 31.0405,0.8417 L 31.0407,0.982 L 31.0409,1.1223 L 31.0411,1.2626 L 31.0414,1.4029 L 31.0417,1.5432 L 31.042,1.6834 L 31.0424,1.8237 L 31.0427,1.964 L 31.0432,2.1043 L 31.0436,2.2446 L 31.0441,2.3849 L 31.0446,2.5252 L 31.0452,2.6655 L 31.0458,2.8058 L 31.0465,2.9461 L 31.0472,3.0864 L 31.048,3.2267 L 31.0488,3.367 L 31.0497,3.5072 L 31.0506,3.6475 L 31.0517,3.7878 L 31.0528,3.9281 L 31.054,4.0684 L 31.0554,4.2087 L 31.0569,4.349 L 31.0586,4.4893 L 31.0606,4.6295 L 31.0631,4.7698 L 31.0663,4.9101 L 31.0743,5.05" />
      <path d="M 22.9998,-11.0 L 23.1109,-11.0 L 23.222,-11.0 L 23.3331,-11.0 L 23.4442,-11.0 L 23.5554,-11.0 L 23.6665,-11.0 L 23.7776,-11.0 L 23.8887,-11.0 L 23.9998,-11.0 L 24.1109,-11.0 L 24.222,-11.0 L 24.3331,-11.0 L 24.4442,-11.0 L 24.5553,-11.0 L 24.6664,-11.0 L 24.7776,-11.0 L 24.8887,-11.0 L 24.9998,-11.0 L 25.1109,-11.0 L 25.222,-11.0 L 25.3331,-11.0 L 25.4442,-11.0 L 25.5553,-11.0 L 25.6664,-11.0 L 25.7775,-11.0 L 25.8886,-11.0 L 25.9997,-11.0 L 26.1109,-11.0 L 26.222,-11.0 L 26.3331,-11.0 L 26.4442,-11.0 L 26.5553,-11.0 L 26.6664,-11.0 L 26.7775,-11.0 L 26.8886,-11.0 L 26.9997,-11.0 L 27.1108,-11.0 L 27.2219,-11.0 L 27.333,-11.0 L 27.4442,-11.0 L 27.5553,-11.0 L 27.6664,-11.0 L 27.7775,-11.0 L 27.8886,-11.0 L 27.9997,-11.0 L 28.1108,-11.0 L 28.2219,-11.0 L 28.333,-11.0 L 28.4441,-11.0 L 28.5552,-11.0 L 28.6664,-11.0 L 28.7775,-11.0 L 28.8886,-11.0 L 28.9997,-11.0 L 29.1108,-11.0 L 29.2219,-11.0 L 29.333,-11.0 L 29.4441,-11.0 L 29.5552,-11.0 L 29.6663,-11.0 L 29.7774,-11.0 L 29.8885,-11.0 L 29.9997,-11.0 L 30.1108,-11.0 L 30.2219,-11.0 L 30.333,-11.0 L 30.4441,-11.0 L 30.5552,-11.0 L 30.6663,-11.0 L 30.7774,-11.0 L 30.8885,-11.0 L 30.9996,-11.0" />
      <path d="M 30.9996,11.0 L 30.8885,11.0 L 30.7774,11.0 L 30.6663,11.0 L 30.5552,11.0 L 30.4441,11.0 L 30.333,11.0 L 30.2219,11.0 L 30.1108,11.0 L 29.9997,11.0 L 29.8885,11.0 L 29.7774,11.0 L 29.6663,11.0 L 29.5552,11.0 L 29.4441,11.0 L 29.333,11.0 L 29.2219,11.0 L 29.1108,11.0 L 28.9997,11.0 L 28.8886,11.0 L 28.7775,11.0 L 28.6664,11.0 L 28.5552,11.0 L 28.4441,11.0 L 28.333,11.0 L 28.2219,11.0 L 28.1108,11.0 L 27.9997,11.0 L 27.8886,11.0 L 27.7775,11.0 L 27.6664,11.0 L 27.5553,11.0 L 27.4442,11.0 L 27.333,11.0 L 27.2219,11.0 L 27.1108,11.0 L 26.9997,11.0 L 26.8886,11.0 L 26.7775,11.0 L 26.6664,11.0 L 26.5553,11.0 L 26.4442,11.0 L 26.3331,11.0 L 26.222,11.0 L 26.1109,11.0 L 25.9997,11.0 L 25.8886,11.0 L 25.7775,11.0 L 25.6664,11.0 L 25.5553,11.0 L 25.4442,11.0 L 25.3331,11.0 L 25.222,11.0 L 25.1109,11.0 L 24.9998,11.0 L 24.8887,11.0 L 24.7776,11.0 L 24.6664,11.0 L 24.5553,11.0 L 24.4442,11.0 L 24.3331,11.0 L 24.222,11.0 L 24.1109,11.0 L 23.9998,11.0 L 23.8887,11.0 L 23.7776,11.0 L 23.6665,11.0 L 23.5554,11.0 L 23.4442,11.0 L 23.3331,11.0 L 23.222,11.0 L 23.1109,11.0 L 22.9998,11.0" />
      <path d="M 22.9998,11.0 L 22.9998,10.9424 L 22.9998,10.8847 L 22.9998,10.8271 L 22.9998,10.7694 L 22.9998,10.7118 L 22.9998,10.6542 L 22.9998,10.5965 L 22.9998,10.5389 L 22.9998,10.4812 L 22.9998,10.4236 L 22.9998,10.366 L 22.9998,10.3083 L 22.9998,10.2507 L 22.9998,10.1931 L 22.9998,10.1354 L 22.9998,10.0778 L 22.9998,10.0201 L 22.9998,9.9625 L 22.9998,9.9049 L 22.9998,9.8472 L 22.9998,9.7896 L 22.9998,9.7319 L 22.9998,9.6743 L 22.9998,9.6167 L 22.9998,9.559 L 22.9998,9.5014 L 22.9998,9.4437 L 22.9998,9.3861 L 22.9998,9.3285 L 22.9998,9.2708 L 22.9998,9.2132 L 22.9998,9.1556 L 22.9998,9.0979 L 22.9998,9.0403 L 22.9998,8.9826 L 22.9998,8.925 L 22.9998,8.8674 L 22.9998,8.8097 L 22.9998,8.7521 L 22.9998,8.6944 L 22.9998,8.6368 L 22.9998,8.5792 L 22.9998,8.5215 L 22.9998,8.4639 L 22.9998,8.4062 L 22.9998,8.3486 L 22.9998,8.291 L 22.9998,8.2333 L 22.9998,8.1757 L 22.9998,8.1181 L 22.9998,8.0604 L 22.9998,8.0028 L 22.9998,7.9451 L 22.9998,7.8875 L 22.9998,7.8299 L 22.9998,7.7722 L 22.9998,7.7146 L 22.9998,7.6569 L 22.9998,7.5993 L 22.9998,7.5417 L 22.9998,7.484 L 22.9998,7.4264 L 22.9998,7.3687 L 22.9998,7.3111 L 22.9998,7.2535 L 22.9998,7.1958 L 22.9998,7.1382 L 22.9998,7.0806 L 22.9998,7.0229 L 22.9998,6.9653 L 22.9998,6.9076 L 22.9998,6.85" />
      <path d="M 22.9998,6.85 L 22.9026,6.85 L 22.8054,6.85 L 22.7082,6.85 L 22.6109,6.85 L 22.5137,6.85 L 22.4165,6.85 L 22.3193,6.85 L 22.2221,6.85 L 22.1248,6.85 L 22.0276,6.85 L 21.9304,6.85 L 21.8332,6.85 L 21.736,6.85 L 21.6387,6.85 L 21.5415,6.85 L 21.4443,6.85 L 21.3471,6.85 L 21.2499,6.85 L 21.1526,6.85 L 21.0554,6.85 L 20.9582,6.85 L 20.861,6.85 L 20.7638,6.85 L 20.6665,6.85 L 20.5693,6.85 L 20.4721,6.85 L 20.3749,6.85 L 20.2777,6.85 L 20.1804,6.85 L 20.0832,6.85 L 19.986,6.85 L 19.8888,6.85 L 19.7916,6.85 L 19.6943,6.85 L 19.5971,6.85 L 19.4999,6.85 L 19.4027,6.85 L 19.3055,6.85 L 19.2082,6.85 L 19.111,6.85 L 19.0138,6.85 L 18.9166,6.85 L 18.8194,6.85 L 18.7221,6.85 L 18.6249,6.85 L 18.5277,6.85 L 18.4305,6.85 L 18.3333,6.85 L 18.236,6.85 L 18.1388,6.85 L 18.0416,6.85 L 17.9444,6.85 L 17.8472,6.85 L 17.7499,6.85 L 17.6527,6.85 L 17.5555,6.85 L 17.4583,6.85 L 17.3611,6.85 L 17.2638,6.85 L 17.1666,6.85 L 17.0694,6.85 L 16.9722,6.85 L 16.875,6.85 L 16.7777,6.85 L 16.6805,6.85 L 16.5833,6.85 L 16.4861,6.85 L 16.3889,6.85 L 16.2916,6.85 L 16.1944,6.85 L 16.0972,6.85 L 16.0,6.85" />
      <path d="M 16.0,6.85 L 15.9861,6.8361 L 15.9722,6.8222 L 15.9583,6.8083 L 15.9444,6.7944 L 15.9305,6.7806 L 15.9166,6.7667 L 15.9028,6.7528 L 15.8889,6.7389 L 15.875,6.725 L 15.8611,6.7111 L 15.8472,6.6972 L 15.8333,6.6833 L 15.8194,6.6694 L 15.8055,6.6556 L 15.7916,6.6417 L 15.7778,6.6278 L 15.7639,6.6139 L 15.75,6.6 L 15.7361,6.5861 L 15.7222,6.5722 L 15.7083,6.5583 L 15.6944,6.5444 L 15.6805,6.5306 L 15.6667,6.5167 L 15.6528,6.5028 L 15.6389,6.4889 L 15.625,6.475 L 15.6111,6.4611 L 15.5972,6.4472 L 15.5833,6.4333 L 15.5694,6.4194 L 15.5555,6.4056 L 15.5417,6.3917 L 15.5278,6.3778 L 15.5139,6.3639 L 15.5,6.35 L 15.4861,6.3361 L 15.4722,6.3222 L 15.4583,6.3083 L 15.4444,6.2944 L 15.4305,6.2806 L 15.4167,6.2667 L 15.4028,6.2528 L 15.3889,6.2389 L 15.375,6.225 L 15.3611,6.2111 L 15.3472,6.1972 L 15.3333,6.1833 L 15.3194,6.1694 L 15.3055,6.1556 L 15.2917,6.1417 L 15.2778,6.1278 L 15.2639,6.1139 L 15.25,6.1 L 15.2361,6.0861 L 15.2222,6.0722 L 15.2083,6.0583 L 15.1944,6.0444 L 15.1806,6.0306 L 15.1667,6.0167 L 15.1528,6.0028 L 15.1389,5.9889 L 15.125,5.975 L 15.1111,5.9611 L 15.0972,5.9472 L 15.0833,5.9333 L 15.0694,5.9194 L 15.0556,5.9056 L 15.0417,5.8917 L 15.0278,5.8778 L 15.0139,5.8639 L 15.0,5.85" />
      <path d="M 15.0,5.85 L 15.0,5.6875 L 15.0,5.525 L 15.0,5.3625 L 15.0,5.2 L 15.0,5.0375 L 15.0,4.875 L 15.0,4.7125 L 15.0,4.55 L 15.0,4.3875 L 15.0,4.225 L 15.0,4.0625 L 15.0,3.9 L 15.0,3.7375 L 15.0,3.575 L 15.0,3.4125 L 15.0,3.25 L 15.0,3.0875 L 15.0,2.925 L 15.0,2.7625 L 15.0,2.6 L 15.0,2.4375 L 15.0,2.275 L 15.0,2.1125 L 15.0,1.95 L 15.0,1.7875 L 15.0,1.625 L 15.0,1.4625 L 15.0,1.3 L 15.0,1.1375 L 15.0,0.975 L 15.0,0.8125 L 15.0,0.65 L 15.0,0.4875 L 15.0,0.325 L 15.0,0.1625 L 15.0,0.0 L 15.0,-0.1625 L 15.0,-0.325 L 15.0,-0.4875 L 15.0,-0.65 L 15.0,-0.8125 L 15.0,-0.975 L 15.0,-1.1375 L 15.0,-1.3 L 15.0,-1.4625 L 15.0,-1.625 L 15.0,-1.7875 L 15.0,-1.95 L 15.0,-2.1125 L 15.0,-2.275 L 15.0,-2.4375 L 15.0,-2.6 L 15.0,-2.7625 L 15.0,-2.925 L 15.0,-3.0875 L 15.0,-3.25 L 15.0,-3.4125 L 15.0,-3.575 L 15.0,-3.7375 L 15.0,-3.9 L 15.0,-4.0625 L 15.0,-4.225 L 15.0,-4.3875 L 15.0,-4.55 L 15.0,-4.7125 L 15.0,-4.875 L 15.0,-5.0375 L 15.0,-5.2 L 15.0,-5.3625 L 15.0,-5.525 L 15.0,-5.6875 L 15.0,-5.85" />
      <path d="M 15.0,-5.85 L 15.0139,-5.8639 L 15.0278,-5.8778 L 15.0417,-5.8917 L 15.0556,-5.9056 L 15.0694,-5.9194 L 15.0833,-5.9333 L 15.0972,-5.9472 L 15.1111,-5.9611 L 15.125,-5.975 L 15.1389,-5.9889 L 15.1528,-6.0028 L 15.1667,-6.0167 L 15.1806,-6.0306 L 15.1944,-6.0444 L 15.2083,-6.0583 L 15.2222,-6.0722 L 15.2361,-6.0861 L 15.25,-6.1 L 15.2639,-6.1139 L 15.2778,-6.1278 L 15.2917,-6.1417 L 15.3055,-6.1556 L 15.3194,-6.1694 L 15.3333,-6.1833 L 15.3472,-6.1972 L 15.3611,-6.2111 L 15.375,-6.225 L 15.3889,-6.2389 L 15.4028,-6.2528 L 15.4167,-6.2667 L 15.4305,-6.2806 L 15.4444,-6.2944 L 15.4583,-6.3083 L 15.4722,-6.3222 L 15.4861,-6.3361 L 15.5,-6.35 L 15.5139,-6.3639 L 15.5278,-6.3778 L 15.5417,-6.3917 L 15.5555,-6.4056 L 15.5694,-6.4194 L 15.5833,-6.4333 L 15.5972,-6.4472 L 15.6111,-6.4611 L 15.625,-6.475 L 15.6389,-6.4889 L 15.6528,-6.5028 L 15.6667,-6.5167 L 15.6805,-6.5306 L 15.6944,-6.5444 L 15.7083,-6.5583 L 15.7222,-6.5722 L 15.7361,-6.5861 L 15.75,-6.6 L 15.7639,-6.6139 L 15.7778,-6.6278 L 15.7916,-6.6417 L 15.8055,-6.6556 L 15.8194,-6.6694 L 15.8333,-6.6833 L 15.8472,-6.6972 L 15.8611,-6.7111 L 15.875,-6.725 L 15.8889,-6.7389 L 15.9028,-6.7528 L 15.9166,-6.7667 L 15.9305,-6.7806 L 15.9444,-6.7944 L 15.9583,-6.8083 L 15.9722,-6.8222 L 15.9861,-6.8361 L 16.0,-6.85" />
      <path d="M 16.0,-6.85 L 16.0972,-6.85 L 16.1944,-6.85 L 16.2916,-6.85 L 16.3889,-6.85 L 16.4861,-6.85 L 16.5833,-6.85 L 16.6805,-6.85 L 16.7777,-6.85 L 16.875,-6.85 L 16.9722,-6.85 L 17.0694,-6.85 L 17.1666,-6.85 L 17.2638,-6.85 L 17.3611,-6.85 L 17.4583,-6.85 L 17.5555,-6.85 L 17.6527,-6.85 L 17.7499,-6.85 L 17.8472,-6.85 L 17.9444,-6.85 L 18.0416,-6.85 L 18.1388,-6.85 L 18.236,-6.85 L 18.3333,-6.85 L 18.4305,-6.85 L 18.5277,-6.85 L 18.6249,-6.85 L 18.7221,-6.85 L 18.8194,-6.85 L 18.9166,-6.85 L 19.0138,-6.85 L 19.111,-6.85 L 19.2082,-6.85 L 19.3055,-6.85 L 19.4027,-6.85 L 19.4999,-6.85 L 19.5971,-6.85 L 19.6943,-6.85 L 19.7916,-6.85 L 19.8888,-6.85 L 19.986,-6.85 L 20.0832,-6.85 L 20.1804,-6.85 L 20.2777,-6.85 L 20.3749,-6.85 L 20.4721,-6.85 L 20.5693,-6.85 L 20.6665,-6.85 L 20.7638,-6.85 L 20.861,-6.85 L 20.9582,-6.85 L 21.0554,-6.85 L 21.1526,-6.85 L 21.2499,-6.85 L 21.3471,-6.85 L 21.4443,-6.85 L 21.5415,-6.85 L 21.6387,-6.85 L 21.736,-6.85 L 21.8332,-6.85 L 21.9304,-6.85 L 22.0276,-6.85 L 22.1248,-6.85 L 22.2221,-6.85 L 22.3193,-6.85 L 22.4165,-6.85 L 22.5137,-6.85 L 22.6109,-6.85 L 22.7082,-6.85 L 22.8054,-6.85 L 22.9026,-6.85 L 22.9998,-6.85" />
      <path d="M 22.9998,-6.85 L 22.9998,-6.9076 L 22.9998,-6.9653 L 22.9998,-7.0229 L 22.9998,-7.0806 L 22.9998,-7.1382 L 22.9998,-7.1958 L 22.9998,-7.2535 L 22.9998,-7.3111 L 22.9998,-7.3687 L 22.9998,-7.4264 L 22.9998,-7.484 L 22.9998,-7.5417 L 22.9998,-7.5993 L 22.9998,-7.6569 L 22.9998,-7.7146 L 22.9998,-7.7722 L 22.9998,-7.8299 L 22.9998,-7.8875 L 22.9998,-7.9451 L 22.9998,-8.0028 L 22.9998,-8.0604 L 22.9998,-8.1181 L 22.9998,-8.1757 L 22.9998,-8.2333 L 22.9998,-8.291 L 22.9998,-8.3486 L 22.9998,-8.4062 L 22.9998,-8.4639 L 22.9998,-8.5215 L 22.9998,-8.5792 L 22.9998,-8.6368 L 22.9998,-8.6944 L 22.9998,-8.7521 L 22.9998,-8.8097 L 22.9998,-8.8674 L 22.9998,-8.925 L 22.9998,-8.9826 L 22.9998,-9.0403 L 22.9998,-9.0979 L 22.9998,-9.1556 L 22.9998,-9.2132 L 22.9998,-9.2708 L 22.9998,-9.3285 L 22.9998,-9.3861 L 22.9998,-9.4437 L 22.9998,-9.5014 L 22.9998,-9.559 L 22.9998,-9.6167 L 22.9998,-9.6743 L 22.9998,-9.7319 L 22.9998,-9.7896 L 22.9998,-9.8472 L 22.9998,-9.9049 L 22.9998,-9.9625 L 22.9998,-10.0201 L 22.9998,-10.0778 L 22.9998,-10.1354 L 22.9998,-10.1931 L 22.9998,-10.2507 L 22.9998,-10.3083 L 22.9998,-10.366 L 22.9998,-10.4236 L 22.9998,-10.4812 L 22.9998,-10.5389 L 22.9998,-10.5965 L 22.9998,-10.6542 L 22.9998,-10.7118 L 22.9998,-10.7694 L 22.9998,-10.8271 L 22.9998,-10.8847 L 22.9998,-10.9424 L 22.9998,-11.0" />
    </g>
    <g fill="none" stroke="rgb(110,110,110)" stroke-width="0.3" id="Hidden" stroke-dasharray="3.6 0.9">
      <path d="M -11.0,-11.0 L -11.0,-10.6944 L -11.0,-10.3889 L -11.0,-10.0833 L -11.0,-9.7778 L -11.0,-9.4722 L -11.0,-9.1667 L -11.0,-8.8611 L -11.0,-8.5556 L -11.0,-8.25 L -11.0,-7.9444 L -11.0,-7.6389 L -11.0,-7.3333 L -11.0,-7.0278 L -11.0,-6.7222 L -11.0,-6.4167 L -11.0,-6.1111 L -11.0,-5.8056 L -11.0,-5.5 L -11.0,-5.1944 L -11.0,-4.8889 L -11.0,-4.5833 L -11.0,-4.2778 L -11.0,-3.9722 L -11.0,-3.6667 L -11.0,-3.3611 L -11.0,-3.0556 L -11.0,-2.75 L -11.0,-2.4444 L -11.0,-2.1389 L -11.0,-1.8333 L -11.0,-1.5278 L -11.0,-1.2222 L -11.0,-0.9167 L -11.0,-0.6111 L -11.0,-0.3056 L -11.0,0.0 L -11.0,0.3056 L -11.0,0.6111 L -11.0,0.9167 L -11.0,1.2222 L -11.0,1.5278 L -11.0,1.8333 L -11.0,2.1389 L -11.0,2.4444 L -11.0,2.75 L -11.0,3.0556 L -11.0,3.3611 L -11.0,3.6667 L -11.0,3.9722 L -11.0,4.2778 L -11.0,4.5833 L -11.0,4.8889 L -11.0,5.1944 L -11.0,5.5 L -11.0,5.8056 L -11.0,6.1111 L -11.0,6.4167 L -11.0,6.7222 L -11.0,7.0278 L -11.0,7.3333 L -11.0,7.6389 L -11.0,7.9444 L -11.0,8.25 L -11.0,8.5556 L -11.0,8.8611 L -11.0,9.1667 L -11.0,9.4722 L -11.0,9.7778 L -11.0,10.0833 L -11.0,10.3889 L -11.0,10.6944 L -11.0,11.0" />
      <path d="M 11.0,-11.0 L 10.6944,-11.0 L 10.3889,-11.0 L 10.0833,-11.0 L 9.7778,-11.0 L 9.4722,-11.0 L 9.1667,-11.0 L 8.8611,-11.0 L 8.5556,-11.0 L 8.25,-11.0 L 7.9444,-11.0 L 7.6389,-11.0 L 7.3333,-11.0 L 7.0278,-11.0 L 6.7222,-11.0 L 6.4167,-11.0 L 6.1111,-11.0 L 5.8056,-11.0 L 5.5,-11.0 L 5.1944,-11.0 L 4.8889,-11.0 L 4.5833,-11.0 L 4.2778,-11.0 L 3.9722,-11.0 L 3.6667,-11.0 L 3.3611,-11.0 L 3.0556,-11.0 L 2.75,-11.0 L 2.4444,-11.0 L 2.1389,-11.0 L 1.8333,-11.0 L 1.5278,-11.0 L 1.2222,-11.0 L 0.9167,-11.0 L 0.6111,-11.0 L 0.3056,-11.0 L 0.0,-11.0 L -0.3056,-11.0 L -0.6111,-11.0 L -0.9167,-11.0 L -1.2222,-11.0 L -1.5278,-11.0 L -1.8333,-11.0 L -2.1389,-11.0 L -2.4444,-11.0 L -2.75,-11.0 L -3.0556,-11.0 L -3.3611,-11.0 L -3.6667,-11.0 L -3.9722,-11.0 L -4.2778,-11.0 L -4.5833,-11.0 L -4.8889,-11.0 L -5.1944,-11.0 L -5.5,-11.0 L -5.8056,-11.0 L -6.1111,-11.0 L -6.4167,-11.0 L -6.7222,-11.0 L -7.0278,-11.0 L -7.3333,-11.0 L -7.6389,-11.0 L -7.9444,-11.0 L -8.25,-11.0 L -8.5556,-11.0 L -8.8611,-11.0 L -9.1667,-11.0 L -9.4722,-11.0 L -9.7778,-11.0 L -10.0833,-11.0 L -10.3889,-11.0 L -10.6944,-11.0 L -11.0,-11.0" />
      <path d="M -11.0,11.0 L -10.6944,11.0 L -10.3889,11.0 L -10.0833,11.0 L -9.7778,11.0 L -9.4722,11.0 L -9.1667,11.0 L -8.8611,11.0 L -8.5556,11.0 L -8.25,11.0 L -7.9444,11.0 L -7.6389,11.0 L -7.3333,11.0 L -7.0278,11.0 L -6.7222,11.0 L -6.4167,11.0 L -6.1111,11.0 L -5.8056,11.0 L -5.5,11.0 L -5.1944,11.0 L -4.8889,11.0 L -4.5833,11.0 L -4.2778,11.0 L -3.9722,11.0 L -3.6667,11.0 L -3.3611,11.0 L -3.0556,11.0 L -2.75,11.0 L -2.4444,11.0 L -2.1389,11.0 L -1.8333,11.0 L -1.5278,11.0 L -1.2222,11.0 L -0.9167,11.0 L -0.6111,11.0 L -0.3056,11.0 L 0.0,11.0 L 0.3056,11.0 L 0.6111,11.0 L 0.9167,11.0 L 1.2222,11.0 L 1.5278,11.0 L 1.8333,11.0 L 2.1389,11.0 L 2.4444,11.0 L 2.75,11.0 L 3.0556,11.0 L 3.3611,11.0 L 3.6667,11.0 L 3.9722,11.0 L 4.2778,11.0 L 4.5833,11.0 L 4.8889,11.0 L 5.1944,11.0 L 5.5,11.0 L 5.8056,11.0 L 6.1111,11.0 L 6.4167,11.0 L 6.7222,11.0 L 7.0278,11.0 L 7.3333,11.0 L 7.6389,11.0 L 7.9444,11.0 L 8.25,11.0 L 8.5556,11.0 L 8.8611,11.0 L 9.1667,11.0 L 9.4722,11.0 L 9.7778,11.0 L 10.0833,11.0 L 10.3889,11.0 L 10.6944,11.0 L 11.0,11.0" />
      <path d="M 11.0,-11.0 L 11.0,-10.6944 L 11.0,-10.3889 L 11.0,-10.0833 L 11.0,-9.7778 L 11.0,-9.4722 L 11.0,-9.1667 L 11.0,-8.8611 L 11.0,-8.5556 L 11.0,-8.25 L 11.0,-7.9444 L 11.0,-7.6389 L 11.0,-7.3333 L 11.0,-7.0278 L 11.0,-6.7222 L 11.0,-6.4167 L 11.0,-6.1111 L 11.0,-5.8056 L 11.0,-5.5 L 11.0,-5.1944 L 11.0,-4.8889 L 11.0,-4.5833 L 11.0,-4.2778 L 11.0,-3.9722 L 11.0,-3.6667 L 11.0,-3.3611 L 11.0,-3.0556 L 11.0,-2.75 L 11.0,-2.4444 L 11.0,-2.1389 L 11.0,-1.8333 L 11.0,-1.5278 L 11.0,-1.2222 L 11.0,-0.9167 L 11.0,-0.6111 L 11.0,-0.3056 L 11.0,0.0 L 11.0,0.3056 L 11.0,0.6111 L 11.0,0.9167 L 11.0,1.2222 L 11.0,1.5278 L 11.0,1.8333 L 11.0,2.1389 L 11.0,2.4444 L 11.0,2.75 L 11.0,3.0556 L 11.0,3.3611 L 11.0,3.6667 L 11.0,3.9722 L 11.0,4.2778 L 11.0,4.5833 L 11.0,4.8889 L 11.0,5.1944 L 11.0,5.5 L 11.0,5.8056 L 11.0,6.1111 L 11.0,6.4167 L 11.0,6.7222 L 11.0,7.0278 L 11.0,7.3333 L 11.0,7.6389 L 11.0,7.9444 L 11.0,8.25 L 11.0,8.5556 L 11.0,8.8611 L 11.0,9.1667 L 11.0,9.4722 L 11.0,9.7778 L 11.0,10.0833 L 11.0,10.3889 L 11.0,10.6944 L 11.0,11.0" />
      <path d="M -0.0,5.05 L -0.4401,5.0308 L -0.8769,4.9733 L -1.307,4.8779 L -1.7272,4.7454 L -2.1342,4.5769 L -2.525,4.3734 L -2.8966,4.1367 L -3.2461,3.8685 L -3.5709,3.5709 L -3.8685,3.2461 L -4.1367,2.8966 L -4.3734,2.525 L -4.5769,2.1342 L -4.7454,1.7272 L -4.8779,1.307 L -4.9733,0.8769 L -5.0308,0.4401 L -5.05,-0.0 L -5.0308,-0.4401 L -4.9733,-0.8769 L -4.8779,-1.307 L -4.7454,-1.7272 L -4.5769,-2.1342 L -4.3734,-2.525 L -4.1367,-2.8966 L -3.8685,-3.2461 L -3.5709,-3.5709 L -3.2461,-3.8685 L -2.8966,-4.1367 L -2.525,-4.3734 L -2.1342,-4.5769 L -1.7272,-4.7454 L -1.307,-4.8779 L -0.8769,-4.9733 L -0.4401,-5.0308 L 0.0,-5.05 L 0.4401,-5.0308 L 0.8769,-4.9733 L 1.307,-4.8779 L 1.7272,-4.7454 L 2.1342,-4.5769 L 2.525,-4.3734 L 2.8966,-4.1367 L 3.2461,-3.8685 L 3.5709,-3.5709 L 3.8685,-3.2461 L 4.1367,-2.8966 L 4.3734,-2.525 L 4.5769,-2.1342 L 4.7454,-1.7272 L 4.8779,-1.307 L 4.9733,-0.8769 L 5.0308,-0.4401 L 5.05,0.0 L 5.0308,0.4401 L 4.9733,0.8769 L 4.8779,1.307 L 4.7454,1.7272 L 4.5769,2.1342 L 4.3734,2.525 L 4.1367,2.8966 L 3.8685,3.2461 L 3.5709,3.5709 L 3.2461,3.8685 L 2.8966,4.1367 L 2.525,4.3734 L 2.1342,4.5769 L 1.7272,4.7454 L 1.307,4.8779 L 0.8769,4.9733 L 0.4401,5.0308 L -0.0,5.05" />
      <path d="M -11.0,6.85 L -10.6944,6.85 L -10.3889,6.85 L -10.0833,6.85 L -9.7778,6.85 L -9.4722,6.85 L -9.1667,6.85 L -8.8611,6.85 L -8.5556,6.85 L -8.25,6.85 L -7.9444,6.85 L -7.6389,6.85 L -7.3333,6.85 L -7.0278,6.85 L -6.7222,6.85 L -6.4167,6.85 L -6.1111,6.85 L -5.8056,6.85 L -5.5,6.85 L -5.1944,6.85 L -4.8889,6.85 L -4.5833,6.85 L -4.2778,6.85 L -3.9722,6.85 L -3.6667,6.85 L -3.3611,6.85 L -3.0556,6.85 L -2.75,6.85 L -2.4444,6.85 L -2.1389,6.85 L -1.8333,6.85 L -1.5278,6.85 L -1.2222,6.85 L -0.9167,6.85 L -0.6111,6.85 L -0.3056,6.85 L 0.0,6.85 L 0.3056,6.85 L 0.6111,6.85 L 0.9167,6.85 L 1.2222,6.85 L 1.5278,6.85 L 1.8333,6.85 L 2.1389,6.85 L 2.4444,6.85 L 2.75,6.85 L 3.0556,6.85 L 3.3611,6.85 L 3.6667,6.85 L 3.9722,6.85 L 4.2778,6.85 L 4.5833,6.85 L 4.8889,6.85 L 5.1944,6.85 L 5.5,6.85 L 5.8056,6.85 L 6.1111,6.85 L 6.4167,6.85 L 6.7222,6.85 L 7.0278,6.85 L 7.3333,6.85 L 7.6389,6.85 L 7.9444,6.85 L 8.25,6.85 L 8.5556,6.85 L 8.8611,6.85 L 9.1667,6.85 L 9.4722,6.85 L 9.7778,6.85 L 10.0833,6.85 L 10.3889,6.85 L 10.6944,6.85 L 11.0,6.85" />
      <path d="M 11.0,-6.85 L 10.6944,-6.85 L 10.3889,-6.85 L 10.0833,-6.85 L 9.7778,-6.85 L 9.4722,-6.85 L 9.1667,-6.85 L 8.8611,-6.85 L 8.5556,-6.85 L 8.25,-6.85 L 7.9444,-6.85 L 7.6389,-6.85 L 7.3333,-6.85 L 7.0278,-6.85 L 6.7222,-6.85 L 6.4167,-6.85 L 6.1111,-6.85 L 5.8056,-6.85 L 5.5,-6.85 L 5.1944,-6.85 L 4.8889,-6.85 L 4.5833,-6.85 L 4.2778,-6.85 L 3.9722,-6.85 L 3.6667,-6.85 L 3.3611,-6.85 L 3.0556,-6.85 L 2.75,-6.85 L 2.4444,-6.85 L 2.1389,-6.85 L 1.8333,-6.85 L 1.5278,-6.85 L 1.2222,-6.85 L 0.9167,-6.85 L 0.6111,-6.85 L 0.3056,-6.85 L 0.0,-6.85 L -0.3056,-6.85 L -0.6111,-6.85 L -0.9167,-6.85 L -1.2222,-6.85 L -1.5278,-6.85 L -1.8333,-6.85 L -2.1389,-6.85 L -2.4444,-6.85 L -2.75,-6.85 L -3.0556,-6.85 L -3.3611,-6.85 L -3.6667,-6.85 L -3.9722,-6.85 L -4.2778,-6.85 L -4.5833,-6.85 L -4.8889,-6.85 L -5.1944,-6.85 L -5.5,-6.85 L -5.8056,-6.85 L -6.1111,-6.85 L -6.4167,-6.85 L -6.7222,-6.85 L -7.0278,-6.85 L -7.3333,-6.85 L -7.6389,-6.85 L -7.9444,-6.85 L -8.25,-6.85 L -8.5556,-6.85 L -8.8611,-6.85 L -9.1667,-6.85 L -9.4722,-6.85 L -9.7778,-6.85 L -10.0833,-6.85 L -10.3889,-6.85 L -10.6944,-6.85 L -11.0,-6.85" />
      <path d="M 31.1491,11.0 L 31.038,11.0 L 30.9268,11.0 L 30.8157,11.0 L 30.7046,11.0 L 30.5935,11.0 L 30.4824,11.0 L 30.3713,11.0 L 30.2602,11.0 L 30.1491,11.0 L 30.038,11.0 L 29.9269,11.0 L 29.8158,11.0 L 29.7047,11.0 L 29.5935,11.0 L 29.4824,11.0 L 29.3713,11.0 L 29.2602,11.0 L 29.1491,11.0 L 29.038,11.0 L 28.9269,11.0 L 28.8158,11.0 L 28.7047,11.0 L 28.5936,11.0 L 28.4825,11.0 L 28.3714,11.0 L 28.2602,11.0 L 28.1491,11.0 L 28.038,11.0 L 27.9269,11.0 L 27.8158,11.0 L 27.7047,11.0 L 27.5936,11.0 L 27.4825,11.0 L 27.3714,11.0 L 27.2603,11.0 L 27.1492,11.0 L 27.038,11.0 L 26.9269,11.0 L 26.8158,11.0 L 26.7047,11.0 L 26.5936,11.0 L 26.4825,11.0 L 26.3714,11.0 L 26.2603,11.0 L 26.1492,11.0 L 26.0381,11.0 L 25.927,11.0 L 25.8159,11.0 L 25.7047,11.0 L 25.5936,11.0 L 25.4825,11.0 L 25.3714,11.0 L 25.2603,11.0 L 25.1492,11.0 L 25.0381,11.0 L 24.927,11.0 L 24.8159,11.0 L 24.7048,11.0 L 24.5937,11.0 L 24.4826,11.0 L 24.3714,11.0 L 24.2603,11.0 L 24.1492,11.0 L 24.0381,11.0 L 23.927,11.0 L 23.8159,11.0 L 23.7048,11.0 L 23.5937,11.0 L 23.4826,11.0 L 23.3715,11.0 L 23.2604,11.0 L 23.1492,11.0" />
      <path d="M 23.1492,11.0 L 23.1492,10.9424 L 23.1492,10.8847 L 23.1492,10.8271 L 23.1492,10.7694 L 23.1492,10.7118 L 23.1492,10.6542 L 23.1492,10.5965 L 23.1492,10.5389 L 23.1492,10.4812 L 23.1492,10.4236 L 23.1492,10.366 L 23.1492,10.3083 L 23.1492,10.2507 L 23.1492,10.1931 L 23.1492,10.1354 L 23.1492,10.0778 L 23.1492,10.0201 L 23.1492,9.9625 L 23.1492,9.9049 L 23.1492,9.8472 L 23.1492,9.7896 L 23.1492,9.7319 L 23.1492,9.6743 L 23.1492,9.6167 L 23.1492,9.559 L 23.1492,9.5014 L 23.1492,9.4437 L 23.1492,9.3861 L 23.1492,9.3285 L 23.1492,9.2708 L 23.1492,9.2132 L 23.1492,9.1556 L 23.1492,9.0979 L 23.1492,9.0403 L 23.1492,8.9826 L 23.1492,8.925 L 23.1492,8.8674 L 23.1492,8.8097 L 23.1492,8.7521 L 23.1492,8.6944 L 23.1492,8.6368 L 23.1492,8.5792 L 23.1492,8.5215 L 23.1492,8.4639 L 23.1492,8.4062 L 23.1492,8.3486 L 23.1492,8.291 L 23.1492,8.2333 L 23.1492,8.1757 L 23.1492,8.1181 L 23.1492,8.0604 L 23.1492,8.0028 L 23.1492,7.9451 L 23.1492,7.8875 L 23.1492,7.8299 L 23.1492,7.7722 L 23.1492,7.7146 L 23.1492,7.6569 L 23.1492,7.5993 L 23.1492,7.5417 L 23.1492,7.484 L 23.1492,7.4264 L 23.1492,7.3687 L 23.1492,7.3111 L 23.1492,7.2535 L 23.1492,7.1958 L 23.1492,7.1382 L 23.1492,7.0806 L 23.1492,7.0229 L 23.1492,6.9653 L 23.1492,6.9076 L 23.1492,6.85" />
      <path d="M 23.1492,6.85 L 23.052,6.85 L 22.9548,6.85 L 22.8576,6.85 L 22.7604,6.85 L 22.6631,6.85 L 22.5659,6.85 L 22.4687,6.85 L 22.3715,6.85 L 22.2743,6.85 L 22.1771,6.85 L 22.0798,6.85 L 21.9826,6.85 L 21.8854,6.85 L 21.7882,6.85 L 21.691,6.85 L 21.5937,6.85 L 21.4965,6.85 L 21.3993,6.85 L 21.3021,6.85 L 21.2049,6.85 L 21.1076,6.85 L 21.0104,6.85 L 20.9132,6.85 L 20.816,6.85 L 20.7188,6.85 L 20.6215,6.85 L 20.5243,6.85 L 20.4271,6.85 L 20.3299,6.85 L 20.2327,6.85 L 20.1354,6.85 L 20.0382,6.85 L 19.941,6.85 L 19.8438,6.85 L 19.7466,6.85 L 19.6493,6.85 L 19.5521,6.85 L 19.4549,6.85 L 19.3577,6.85 L 19.2605,6.85 L 19.1632,6.85 L 19.066,6.85 L 18.9688,6.85 L 18.8716,6.85 L 18.7744,6.85 L 18.6771,6.85 L 18.5799,6.85 L 18.4827,6.85 L 18.3855,6.85 L 18.2883,6.85 L 18.191,6.85 L 18.0938,6.85 L 17.9966,6.85 L 17.8994,6.85 L 17.8022,6.85 L 17.7049,6.85 L 17.6077,6.85 L 17.5105,6.85 L 17.4133,6.85 L 17.3161,6.85 L 17.2188,6.85 L 17.1216,6.85 L 17.0244,6.85 L 16.9272,6.85 L 16.83,6.85 L 16.7327,6.85 L 16.6355,6.85 L 16.5383,6.85 L 16.4411,6.85 L 16.3439,6.85 L 16.2466,6.85 L 16.1494,6.85" />
      <path d="M 16.1494,6.85 L 16.1355,6.8361 L 16.1216,6.8222 L 16.1077,6.8083 L 16.0939,6.7944 L 16.08,6.7806 L 16.0661,6.7667 L 16.0522,6.7528 L 16.0383,6.7389 L 16.0244,6.725 L 16.0105,6.7111 L 15.9966,6.6972 L 15.9827,6.6833 L 15.9689,6.6694 L 15.955,6.6556 L 15.9411,6.6417 L 15.9272,6.6278 L 15.9133,6.6139 L 15.8994,6.6 L 15.8855,6.5861 L 15.8716,6.5722 L 15.8578,6.5583 L 15.8439,6.5444 L 15.83,6.5306 L 15.8161,6.5167 L 15.8022,6.5028 L 15.7883,6.4889 L 15.7744,6.475 L 15.7605,6.4611 L 15.7466,6.4472 L 15.7328,6.4333 L 15.7189,6.4194 L 15.705,6.4056 L 15.6911,6.3917 L 15.6772,6.3778 L 15.6633,6.3639 L 15.6494,6.35 L 15.6355,6.3361 L 15.6216,6.3222 L 15.6078,6.3083 L 15.5939,6.2944 L 15.58,6.2806 L 15.5661,6.2667 L 15.5522,6.2528 L 15.5383,6.2389 L 15.5244,6.225 L 15.5105,6.2111 L 15.4966,6.1972 L 15.4828,6.1833 L 15.4689,6.1694 L 15.455,6.1556 L 15.4411,6.1417 L 15.4272,6.1278 L 15.4133,6.1139 L 15.3994,6.1 L 15.3855,6.0861 L 15.3717,6.0722 L 15.3578,6.0583 L 15.3439,6.0444 L 15.33,6.0306 L 15.3161,6.0167 L 15.3022,6.0028 L 15.2883,5.9889 L 15.2744,5.975 L 15.2605,5.9611 L 15.2467,5.9472 L 15.2328,5.9333 L 15.2189,5.9194 L 15.205,5.9056 L 15.1911,5.8917 L 15.1772,5.8778 L 15.1633,5.8639 L 15.1494,5.85" />
      <path d="M 15.1494,5.85 L 15.1494,5.6875 L 15.1494,5.525 L 15.1494,5.3625 L 15.1494,5.2 L 15.1494,5.0375 L 15.1494,4.875 L 15.1494,4.7125 L 15.1494,4.55 L 15.1494,4.3875 L 15.1494,4.225 L 15.1494,4.0625 L 15.1494,3.9 L 15.1494,3.7375 L 15.1494,3.575 L 15.1494,3.4125 L 15.1494,3.25 L 15.1494,3.0875 L 15.1494,2.925 L 15.1494,2.7625 L 15.1494,2.6 L 15.1494,2.4375 L 15.1494,2.275 L 15.1494,2.1125 L 15.1494,1.95 L 15.1494,1.7875 L 15.1494,1.625 L 15.1494,1.4625 L 15.1494,1.3 L 15.1494,1.1375 L 15.1494,0.975 L 15.1494,0.8125 L 15.1494,0.65 L 15.1494,0.4875 L 15.1494,0.325 L 15.1494,0.1625 L 15.1494,0.0 L 15.1494,-0.1625 L 15.1494,-0.325 L 15.1494,-0.4875 L 15.1494,-0.65 L 15.1494,-0.8125 L 15.1494,-0.975 L 15.1494,-1.1375 L 15.1494,-1.3 L 15.1494,-1.4625 L 15.1494,-1.625 L 15.1494,-1.7875 L 15.1494,-1.95 L 15.1494,-2.1125 L 15.1494,-2.275 L 15.1494,-2.4375 L 15.1494,-2.6 L 15.1494,-2.7625 L 15.1494,-2.925 L 15.1494,-3.0875 L 15.1494,-3.25 L 15.1494,-3.4125 L 15.1494,-3.575 L 15.1494,-3.7375 L 15.1494,-3.9 L 15.1494,-4.0625 L 15.1494,-4.225 L 15.1494,-4.3875 L 15.1494,-4.55 L 15.1494,-4.7125 L 15.1494,-4.875 L 15.1494,-5.0375 L 15.1494,-5.2 L 15.1494,-5.3625 L 15.1494,-5.525 L 15.1494,-5.6875 L 15.1494,-5.85" />
      <path d="M 15.1494,-5.85 L 15.1633,-5.8639 L 15.1772,-5.8778 L 15.1911,-5.8917 L 15.205,-5.9056 L 15.2189,-5.9194 L 15.2328,-5.9333 L 15.2467,-5.9472 L 15.2605,-5.9611 L 15.2744,-5.975 L 15.2883,-5.9889 L 15.3022,-6.0028 L 15.3161,-6.0167 L 15.33,-6.0306 L 15.3439,-6.0444 L 15.3578,-6.0583 L 15.3717,-6.0722 L 15.3855,-6.0861 L 15.3994,-6.1 L 15.4133,-6.1139 L 15.4272,-6.1278 L 15.4411,-6.1417 L 15.455,-6.1556 L 15.4689,-6.1694 L 15.4828,-6.1833 L 15.4966,-6.1972 L 15.5105,-6.2111 L 15.5244,-6.225 L 15.5383,-6.2389 L 15.5522,-6.2528 L 15.5661,-6.2667 L 15.58,-6.2806 L 15.5939,-6.2944 L 15.6078,-6.3083 L 15.6216,-6.3222 L 15.6355,-6.3361 L 15.6494,-6.35 L 15.6633,-6.3639 L 15.6772,-6.3778 L 15.6911,-6.3917 L 15.705,-6.4056 L 15.7189,-6.4194 L 15.7328,-6.4333 L 15.7466,-6.4472 L 15.7605,-6.4611 L 15.7744,-6.475 L 15.7883,-6.4889 L 15.8022,-6.5028 L 15.8161,-6.5167 L 15.83,-6.5306 L 15.8439,-6.5444 L 15.8578,-6.5583 L 15.8716,-6.5722 L 15.8855,-6.5861 L 15.8994,-6.6 L 15.9133,-6.6139 L 15.9272,-6.6278 L 15.9411,-6.6417 L 15.955,-6.6556 L 15.9689,-6.6694 L 15.9827,-6.6833 L 15.9966,-6.6972 L 16.0105,-6.7111 L 16.0244,-6.725 L 16.0383,-6.7389 L 16.0522,-6.7528 L 16.0661,-6.7667 L 16.08,-6.7806 L 16.0939,-6.7944 L 16.1077,-6.8083 L 16.1216,-6.8222 L 16.1355,-6.8361 L 16.1494,-6.85" />
      <path d="M 16.1494,-6.85 L 16.2466,-6.85 L 16.3439,-6.85 L 16.4411,-6.85 L 16.5383,-6.85 L 16.6355,-6.85 L 16.7327,-6.85 L 16.83,-6.85 L 16.9272,-6.85 L 17.0244,-6.85 L 17.1216,-6.85 L 17.2188,-6.85 L 17.3161,-6.85 L 17.4133,-6.85 L 17.5105,-6.85 L 17.6077,-6.85 L 17.7049,-6.85 L 17.8022,-6.85 L 17.8994,-6.85 L 17.9966,-6.85 L 18.0938,-6.85 L 18.191,-6.85 L 18.2883,-6.85 L 18.3855,-6.85 L 18.4827,-6.85 L 18.5799,-6.85 L 18.6771,-6.85 L 18.7744,-6.85 L 18.8716,-6.85 L 18.9688,-6.85 L 19.066,-6.85 L 19.1632,-6.85 L 19.2605,-6.85 L 19.3577,-6.85 L 19.4549,-6.85 L 19.5521,-6.85 L 19.6493,-6.85 L 19.7466,-6.85 L 19.8438,-6.85 L 19.941,-6.85 L 20.0382,-6.85 L 20.1354,-6.85 L 20.2327,-6.85 L 20.3299,-6.85 L 20.4271,-6.85 L 20.5243,-6.85 L 20.6215,-6.85 L 20.7188,-6.85 L 20.816,-6.85 L 20.9132,-6.85 L 21.0104,-6.85 L 21.1076,-6.85 L 21.2049,-6.85 L 21.3021,-6.85 L 21.3993,-6.85 L 21.4965,-6.85 L 21.5937,-6.85 L 21.691,-6.85 L 21.7882,-6.85 L 21.8854,-6.85 L 21.9826,-6.85 L 22.0798,-6.85 L 22.1771,-6.85 L 22.2743,-6.85 L 22.3715,-6.85 L 22.4687,-6.85 L 22.5659,-6.85 L 22.6631,-6.85 L 22.7604,-6.85 L 22.8576,-6.85 L 22.9548,-6.85 L 23.052,-6.85 L 23.1492,-6.85" />
      <path d="M 23.1492,-6.85 L 23.1492,-6.9076 L 23.1492,-6.9653 L 23.1492,-7.0229 L 23.1492,-7.0806 L 23.1492,-7.1382 L 23.1492,-7.1958 L 23.1492,-7.2535 L 23.1492,-7.3111 L 23.1492,-7.3687 L 23.1492,-7.4264 L 23.1492,-7.484 L 23.1492,-7.5417 L 23.1492,-7.5993 L 23.1492,-7.6569 L 23.1492,-7.7146 L 23.1492,-7.7722 L 23.1492,-7.8299 L 23.1492,-7.8875 L 23.1492,-7.9451 L 23.1492,-8.0028 L 23.1492,-8.0604 L 23.1492,-8.1181 L 23.1492,-8.1757 L 23.1492,-8.2333 L 23.1492,-8.291 L 23.1492,-8.3486 L 23.1492,-8.4062 L 23.1492,-8.4639 L 23.1492,-8.5215 L 23.1492,-8.5792 L 23.1492,-8.6368 L 23.1492,-8.6944 L 23.1492,-8.7521 L 23.1492,-8.8097 L 23.1492,-8.8674 L 23.1492,-8.925 L 23.1492,-8.9826 L 23.1492,-9.0403 L 23.1492,-9.0979 L 23.1492,-9.1556 L 23.1492,-9.2132 L 23.1492,-9.2708 L 23.1492,-9.3285 L 23.1492,-9.3861 L 23.1492,-9.4437 L 23.1492,-9.5014 L 23.1492,-9.559 L 23.1492,-9.6167 L 23.1492,-9.6743 L 23.1492,-9.7319 L 23.1492,-9.7896 L 23.1492,-9.8472 L 23.1492,-9.9049 L 23.1492,-9.9625 L 23.1492,-10.0201 L 23.1492,-10.0778 L 23.1492,-10.1354 L 23.1492,-10.1931 L 23.1492,-10.2507 L 23.1492,-10.3083 L 23.1492,-10.366 L 23.1492,-10.4236 L 23.1492,-10.4812 L 23.1492,-10.5389 L 23.1492,-10.5965 L 23.1492,-10.6542 L 23.1492,-10.7118 L 23.1492,-10.7694 L 23.1492,-10.8271 L 23.1492,-10.8847 L 23.1492,-10.9424 L 23.1492,-11.0" />
      <path d="M 23.1492,-11.0 L 23.2604,-11.0 L 23.3715,-11.0 L 23.4826,-11.0 L 23.5937,-11.0 L 23.7048,-11.0 L 23.8159,-11.0 L 23.927,-11.0 L 24.0381,-11.0 L 24.1492,-11.0 L 24.2603,-11.0 L 24.3714,-11.0 L 24.4826,-11.0 L 24.5937,-11.0 L 24.7048,-11.0 L 24.8159,-11.0 L 24.927,-11.0 L 25.0381,-11.0 L 25.1492,-11.0 L 25.2603,-11.0 L 25.3714,-11.0 L 25.4825,-11.0 L 25.5936,-11.0 L 25.7047,-11.0 L 25.8159,-11.0 L 25.927,-11.0 L 26.0381,-11.0 L 26.1492,-11.0 L 26.2603,-11.0 L 26.3714,-11.0 L 26.4825,-11.0 L 26.5936,-11.0 L 26.7047,-11.0 L 26.8158,-11.0 L 26.9269,-11.0 L 27.038,-11.0 L 27.1492,-11.0 L 27.2603,-11.0 L 27.3714,-11.0 L 27.4825,-11.0 L 27.5936,-11.0 L 27.7047,-11.0 L 27.8158,-11.0 L 27.9269,-11.0 L 28.038,-11.0 L 28.1491,-11.0 L 28.2602,-11.0 L 28.3714,-11.0 L 28.4825,-11.0 L 28.5936,-11.0 L 28.7047,-11.0 L 28.8158,-11.0 L 28.9269,-11.0 L 29.038,-11.0 L 29.1491,-11.0 L 29.2602,-11.0 L 29.3713,-11.0 L 29.4824,-11.0 L 29.5935,-11.0 L 29.7047,-11.0 L 29.8158,-11.0 L 29.9269,-11.0 L 30.038,-11.0 L 30.1491,-11.0 L 30.2602,-11.0 L 30.3713,-11.0 L 30.4824,-11.0 L 30.5935,-11.0 L 30.7046,-11.0 L 30.8157,-11.0 L 30.9268,-11.0 L 31.038,-11.0 L 31.1491,-11.0" />
      <path d="M 22.9998,-11.0 L 23.0019,-11.0 L 23.004,-11.0 L 23.006,-11.0 L 23.0081,-11.0 L 23.0102,-11.0 L 23.0123,-11.0 L 23.0143,-11.0 L 23.0164,-11.0 L 23.0185,-11.0 L 23.0206,-11.0 L 23.0226,-11.0 L 23.0247,-11.0 L 23.0268,-11.0 L 23.0289,-11.0 L 23.0309,-11.0 L 23.033,-11.0 L 23.0351,-11.0 L 23.0372,-11.0 L 23.0392,-11.0 L 23.0413,-11.0 L 23.0434,-11.0 L 23.0455,-11.0 L 23.0476,-11.0 L 23.0496,-11.0 L 23.0517,-11.0 L 23.0538,-11.0 L 23.0559,-11.0 L 23.0579,-11.0 L 23.06,-11.0 L 23.0621,-11.0 L 23.0642,-11.0 L 23.0662,-11.0 L 23.0683,-11.0 L 23.0704,-11.0 L 23.0725,-11.0 L 23.0745,-11.0 L 23.0766,-11.0 L 23.0787,-11.0 L 23.0808,-11.0 L 23.0828,-11.0 L 23.0849,-11.0 L 23.087,-11.0 L 23.0891,-11.0 L 23.0911,-11.0 L 23.0932,-11.0 L 23.0953,-11.0 L 23.0974,-11.0 L 23.0994,-11.0 L 23.1015,-11.0 L 23.1036,-11.0 L 23.1057,-11.0 L 23.1077,-11.0 L 23.1098,-11.0 L 23.1119,-11.0 L 23.114,-11.0 L 23.116,-11.0 L 23.1181,-11.0 L 23.1202,-11.0 L 23.1223,-11.0 L 23.1243,-11.0 L 23.1264,-11.0 L 23.1285,-11.0 L 23.1306,-11.0 L 23.1326,-11.0 L 23.1347,-11.0 L 23.1368,-11.0 L 23.1389,-11.0 L 23.1409,-11.0 L 23.143,-11.0 L 23.1451,-11.0 L 23.1472,-11.0 L 23.1492,-11.0" />
      <path d="M 23.1492,11.0 L 23.1472,11.0 L 23.1451,11.0 L 23.143,11.0 L 23.1409,11.0 L 23.1389,11.0 L 23.1368,11.0 L 23.1347,11.0 L 23.1326,11.0 L 23.1306,11.0 L 23.1285,11.0 L 23.1264,11.0 L 23.1243,11.0 L 23.1223,11.0 L 23.1202,11.0 L 23.1181,11.0 L 23.116,11.0 L 23.114,11.0 L 23.1119,11.0 L 23.1098,11.0 L 23.1077,11.0 L 23.1057,11.0 L 23.1036,11.0 L 23.1015,11.0 L 23.0994,11.0 L 23.0974,11.0 L 23.0953,11.0 L 23.0932,11.0 L 23.0911,11.0 L 23.0891,11.0 L 23.087,11.0 L 23.0849,11.0 L 23.0828,11.0 L 23.0808,11.0 L 23.0787,11.0 L 23.0766,11.0 L 23.0745,11.0 L 23.0725,11.0 L 23.0704,11.0 L 23.0683,11.0 L 23.0662,11.0 L 23.0642,11.0 L 23.0621,11.0 L 23.06,11.0 L 23.0579,11.0 L 23.0559,11.0 L 23.0538,11.0 L 23.0517,11.0 L 23.0496,11.0 L 23.0476,11.0 L 23.0455,11.0 L 23.0434,11.0 L 23.0413,11.0 L 23.0392,11.0 L 23.0372,11.0 L 23.0351,11.0 L 23.033,11.0 L 23.0309,11.0 L 23.0289,11.0 L 23.0268,11.0 L 23.0247,11.0 L 23.0226,11.0 L 23.0206,11.0 L 23.0185,11.0 L 23.0164,11.0 L 23.0143,11.0 L 23.0123,11.0 L 23.0102,11.0 L 23.0081,11.0 L 23.006,11.0 L 23.004,11.0 L 23.0019,11.0 L 22.9998,11.0" />
      <path d="M 15.0747,5.05 L 15.0827,4.9103 L 15.086,4.77 L 15.0884,4.6297 L 15.0904,4.4894 L 15.0922,4.3492 L 15.0937,4.2089 L 15.095,4.0686 L 15.0963,3.9283 L 15.0974,3.788 L 15.0984,3.6477 L 15.0994,3.5074 L 15.1003,3.3671 L 15.1011,3.2268 L 15.1019,3.0865 L 15.1026,2.9462 L 15.1032,2.806 L 15.1039,2.6657 L 15.1044,2.5254 L 15.105,2.3851 L 15.1054,2.2448 L 15.1059,2.1045 L 15.1063,1.9642 L 15.1067,1.8239 L 15.1071,1.6836 L 15.1074,1.5433 L 15.1077,1.403 L 15.1079,1.2627 L 15.1082,1.1224 L 15.1084,0.9821 L 15.1085,0.8418 L 15.1087,0.7015 L 15.1088,0.5613 L 15.1089,0.421 L 15.109,0.2807 L 15.109,0.1404 L 15.109,0.0001 L 15.109,-0.1402 L 15.109,-0.2805 L 15.1089,-0.4208 L 15.1088,-0.5611 L 15.1087,-0.7014 L 15.1085,-0.8417 L 15.1084,-0.982 L 15.1082,-1.1223 L 15.1079,-1.2626 L 15.1077,-1.4029 L 15.1074,-1.5432 L 15.1071,-1.6834 L 15.1067,-1.8237 L 15.1063,-1.964 L 15.1059,-2.1043 L 15.1054,-2.2446 L 15.105,-2.3849 L 15.1044,-2.5252 L 15.1039,-2.6655 L 15.1032,-2.8058 L 15.1026,-2.9461 L 15.1019,-3.0864 L 15.1011,-3.2267 L 15.1003,-3.367 L 15.0994,-3.5072 L 15.0984,-3.6475 L 15.0974,-3.7878 L 15.0963,-3.9281 L 15.095,-4.0684 L 15.0937,-4.2087 L 15.0922,-4.349 L 15.0904,-4.4893 L 15.0884,-4.6295 L 15.086,-4.7698 L 15.0827,-4.9101 L 15.0747,-5.05" />
      <path d="M 15.0747,-5.05 L 15.0667,-4.9103 L 15.0635,-4.77 L 15.061,-4.6297 L 15.059,-4.4894 L 15.0573,-4.3492 L 15.0558,-4.2089 L 15.0544,-4.0686 L 15.0532,-3.9283 L 15.052,-3.788 L 15.051,-3.6477 L 15.05,-3.5074 L 15.0492,-3.3671 L 15.0483,-3.2268 L 15.0476,-3.0865 L 15.0469,-2.9462 L 15.0462,-2.806 L 15.0456,-2.6657 L 15.045,-2.5254 L 15.0445,-2.3851 L 15.044,-2.2448 L 15.0435,-2.1045 L 15.0431,-1.9642 L 15.0427,-1.8239 L 15.0424,-1.6836 L 15.0421,-1.5433 L 15.0418,-1.403 L 15.0415,-1.2627 L 15.0413,-1.1224 L 15.0411,-0.9821 L 15.0409,-0.8418 L 15.0407,-0.7015 L 15.0406,-0.5613 L 15.0405,-0.421 L 15.0405,-0.2807 L 15.0404,-0.1404 L 15.0404,-0.0001 L 15.0404,0.1402 L 15.0405,0.2805 L 15.0405,0.4208 L 15.0406,0.5611 L 15.0407,0.7014 L 15.0409,0.8417 L 15.0411,0.982 L 15.0413,1.1223 L 15.0415,1.2626 L 15.0418,1.4029 L 15.0421,1.5432 L 15.0424,1.6834 L 15.0427,1.8237 L 15.0431,1.964 L 15.0435,2.1043 L 15.044,2.2446 L 15.0445,2.3849 L 15.045,2.5252 L 15.0456,2.6655 L 15.0462,2.8058 L 15.0469,2.9461 L 15.0476,3.0864 L 15.0483,3.2267 L 15.0492,3.367 L 15.05,3.5072 L 15.051,3.6475 L 15.052,3.7878 L 15.0532,3.9281 L 15.0544,4.0684 L 15.0558,4.2087 L 15.0573,4.349 L 15.059,4.4893 L 15.061,4.6295 L 15.0635,4.7698 L 15.0667,4.9101 L 15.0747,5.05" />
      <path d="M 31.0743,5.05 L 30.8521,5.05 L 30.6299,5.05 L 30.4077,5.05 L 30.1855,5.05 L 29.9633,5.05 L 29.741,5.05 L 29.5188,5.05 L 29.2966,5.05 L 29.0744,5.05 L 28.8522,5.05 L 28.63,5.05 L 28.4077,5.05 L 28.1855,5.05 L 27.9633,5.05 L 27.7411,5.05 L 27.5189,5.05 L 27.2967,5.05 L 27.0744,5.05 L 26.8522,5.05 L 26.63,5.05 L 26.4078,5.05 L 26.1856,5.05 L 25.9634,5.05 L 25.7411,5.05 L 25.5189,5.05 L 25.2967,5.05 L 25.0745,5.05 L 24.8523,5.05 L 24.6301,5.05 L 24.4078,5.05 L 24.1856,5.05 L 23.9634,5.05 L 23.7412,5.05 L 23.519,5.05 L 23.2967,5.05 L 23.0745,5.05 L 22.8523,5.05 L 22.6301,5.05 L 22.4079,5.05 L 22.1857,5.05 L 21.9634,5.05 L 21.7412,5.05 L 21.519,5.05 L 21.2968,5.05 L 21.0746,5.05 L 20.8524,5.05 L 20.6301,5.05 L 20.4079,5.05 L 20.1857,5.05 L 19.9635,5.05 L 19.7413,5.05 L 19.5191,5.05 L 19.2968,5.05 L 19.0746,5.05 L 18.8524,5.05 L 18.6302,5.05 L 18.408,5.05 L 18.1858,5.05 L 17.9635,5.05 L 17.7413,5.05 L 17.5191,5.05 L 17.2969,5.05 L 17.0747,5.05 L 16.8525,5.05 L 16.6302,5.05 L 16.408,5.05 L 16.1858,5.05 L 15.9636,5.05 L 15.7414,5.05 L 15.5192,5.05 L 15.2969,5.05 L 15.0747,5.05" />
      <path d="M 23.1492,6.85 L 23.1472,6.85 L 23.1451,6.85 L 23.143,6.85 L 23.1409,6.85 L 23.1389,6.85 L 23.1368,6.85 L 23.1347,6.85 L 23.1326,6.85 L 23.1306,6.85 L 23.1285,6.85 L 23.1264,6.85 L 23.1243,6.85 L 23.1223,6.85 L 23.1202,6.85 L 23.1181,6.85 L 23.116,6.85 L 23.114,6.85 L 23.1119,6.85 L 23.1098,6.85 L 23.1077,6.85 L 23.1057,6.85 L 23.1036,6.85 L 23.1015,6.85 L 23.0994,6.85 L 23.0974,6.85 L 23.0953,6.85 L 23.0932,6.85 L 23.0911,6.85 L 23.0891,6.85 L 23.087,6.85 L 23.0849,6.85 L 23.0828,6.85 L 23.0808,6.85 L 23.0787,6.85 L 23.0766,6.85 L 23.0745,6.85 L 23.0725,6.85 L 23.0704,6.85 L 23.0683,6.85 L 23.0662,6.85 L 23.0642,6.85 L 23.0621,6.85 L 23.06,6.85 L 23.0579,6.85 L 23.0559,6.85 L 23.0538,6.85 L 23.0517,6.85 L 23.0496,6.85 L 23.0476,6.85 L 23.0455,6.85 L 23.0434,6.85 L 23.0413,6.85 L 23.0392,6.85 L 23.0372,6.85 L 23.0351,6.85 L 23.033,6.85 L 23.0309,6.85 L 23.0289,6.85 L 23.0268,6.85 L 23.0247,6.85 L 23.0226,6.85 L 23.0206,6.85 L 23.0185,6.85 L 23.0164,6.85 L 23.0143,6.85 L 23.0123,6.85 L 23.0102,6.85 L 23.0081,6.85 L 23.006,6.85 L 23.004,6.85 L 23.0019,6.85 L 22.9998,6.85" />
      <path d="M 16.1494,6.85 L 16.1473,6.85 L 16.1453,6.85 L 16.1432,6.85 L 16.1411,6.85 L 16.139,6.85 L 16.137,6.85 L 16.1349,6.85 L 16.1328,6.85 L 16.1307,6.85 L 16.1287,6.85 L 16.1266,6.85 L 16.1245,6.85 L 16.1224,6.85 L 16.1204,6.85 L 16.1183,6.85 L 16.1162,6.85 L 16.1141,6.85 L 16.1121,6.85 L 16.11,6.85 L 16.1079,6.85 L 16.1058,6.85 L 16.1038,6.85 L 16.1017,6.85 L 16.0996,6.85 L 16.0975,6.85 L 16.0954,6.85 L 16.0934,6.85 L 16.0913,6.85 L 16.0892,6.85 L 16.0871,6.85 L 16.0851,6.85 L 16.083,6.85 L 16.0809,6.85 L 16.0788,6.85 L 16.0768,6.85 L 16.0747,6.85 L 16.0726,6.85 L 16.0705,6.85 L 16.0685,6.85 L 16.0664,6.85 L 16.0643,6.85 L 16.0622,6.85 L 16.0602,6.85 L 16.0581,6.85 L 16.056,6.85 L 16.0539,6.85 L 16.0519,6.85 L 16.0498,6.85 L 16.0477,6.85 L 16.0456,6.85 L 16.0436,6.85 L 16.0415,6.85 L 16.0394,6.85 L 16.0373,6.85 L 16.0353,6.85 L 16.0332,6.85 L 16.0311,6.85 L 16.029,6.85 L 16.027,6.85 L 16.0249,6.85 L 16.0228,6.85 L 16.0207,6.85 L 16.0187,6.85 L 16.0166,6.85 L 16.0145,6.85 L 16.0124,6.85 L 16.0104,6.85 L 16.0083,6.85 L 16.0062,6.85 L 16.0041,6.85 L 16.0021,6.85 L 16.0,6.85" />
      <path d="M 15.1494,5.85 L 15.1474,5.85 L 15.1453,5.85 L 15.1432,5.85 L 15.1411,5.85 L 15.1391,5.85 L 15.137,5.85 L 15.1349,5.85 L 15.1328,5.85 L 15.1308,5.85 L 15.1287,5.85 L 15.1266,5.85 L 15.1245,5.85 L 15.1225,5.85 L 15.1204,5.85 L 15.1183,5.85 L 15.1162,5.85 L 15.1142,5.85 L 15.1121,5.85 L 15.11,5.85 L 15.1079,5.85 L 15.1058,5.85 L 15.1038,5.85 L 15.1017,5.85 L 15.0996,5.85 L 15.0975,5.85 L 15.0955,5.85 L 15.0934,5.85 L 15.0913,5.85 L 15.0892,5.85 L 15.0872,5.85 L 15.0851,5.85 L 15.083,5.85 L 15.0809,5.85 L 15.0789,5.85 L 15.0768,5.85 L 15.0747,5.85 L 15.0726,5.85 L 15.0706,5.85 L 15.0685,5.85 L 15.0664,5.85 L 15.0643,5.85 L 15.0623,5.85 L 15.0602,5.85 L 15.0581,5.85 L 15.056,5.85 L 15.054,5.85 L 15.0519,5.85 L 15.0498,5.85 L 15.0477,5.85 L 15.0457,5.85 L 15.0436,5.85 L 15.0415,5.85 L 15.0394,5.85 L 15.0374,5.85 L 15.0353,5.85 L 15.0332,5.85 L 15.0311,5.85 L 15.0291,5.85 L 15.027,5.85 L 15.0249,5.85 L 15.0228,5.85 L 15.0208,5.85 L 15.0187,5.85 L 15.0166,5.85 L 15.0145,5.85 L 15.0125,5.85 L 15.0104,5.85 L 15.0083,5.85 L 15.0062,5.85 L 15.0042,5.85 L 15.0021,5.85 L 15.0,5.85" />
      <path d="M 15.1494,-5.85 L 15.1474,-5.85 L 15.1453,-5.85 L 15.1432,-5.85 L 15.1411,-5.85 L 15.1391,-5.85 L 15.137,-5.85 L 15.1349,-5.85 L 15.1328,-5.85 L 15.1308,-5.85 L 15.1287,-5.85 L 15.1266,-5.85 L 15.1245,-5.85 L 15.1225,-5.85 L 15.1204,-5.85 L 15.1183,-5.85 L 15.1162,-5.85 L 15.1142,-5.85 L 15.1121,-5.85 L 15.11,-5.85 L 15.1079,-5.85 L 15.1058,-5.85 L 15.1038,-5.85 L 15.1017,-5.85 L 15.0996,-5.85 L 15.0975,-5.85 L 15.0955,-5.85 L 15.0934,-5.85 L 15.0913,-5.85 L 15.0892,-5.85 L 15.0872,-5.85 L 15.0851,-5.85 L 15.083,-5.85 L 15.0809,-5.85 L 15.0789,-5.85 L 15.0768,-5.85 L 15.0747,-5.85 L 15.0726,-5.85 L 15.0706,-5.85 L 15.0685,-5.85 L 15.0664,-5.85 L 15.0643,-5.85 L 15.0623,-5.85 L 15.0602,-5.85 L 15.0581,-5.85 L 15.056,-5.85 L 15.054,-5.85 L 15.0519,-5.85 L 15.0498,-5.85 L 15.0477,-5.85 L 15.0457,-5.85 L 15.0436,-5.85 L 15.0415,-5.85 L 15.0394,-5.85 L 15.0374,-5.85 L 15.0353,-5.85 L 15.0332,-5.85 L 15.0311,-5.85 L 15.0291,-5.85 L 15.027,-5.85 L 15.0249,-5.85 L 15.0228,-5.85 L 15.0208,-5.85 L 15.0187,-5.85 L 15.0166,-5.85 L 15.0145,-5.85 L 15.0125,-5.85 L 15.0104,-5.85 L 15.0083,-5.85 L 15.0062,-5.85 L 15.0042,-5.85 L 15.0021,-5.85 L 15.0,-5.85" />
      <path d="M 16.1494,-6.85 L 16.1473,-6.85 L 16.1453,-6.85 L 16.1432,-6.85 L 16.1411,-6.85 L 16.139,-6.85 L 16.137,-6.85 L 16.1349,-6.85 L 16.1328,-6.85 L 16.1307,-6.85 L 16.1287,-6.85 L 16.1266,-6.85 L 16.1245,-6.85 L 16.1224,-6.85 L 16.1204,-6.85 L 16.1183,-6.85 L 16.1162,-6.85 L 16.1141,-6.85 L 16.1121,-6.85 L 16.11,-6.85 L 16.1079,-6.85 L 16.1058,-6.85 L 16.1038,-6.85 L 16.1017,-6.85 L 16.0996,-6.85 L 16.0975,-6.85 L 16.0954,-6.85 L 16.0934,-6.85 L 16.0913,-6.85 L 16.0892,-6.85 L 16.0871,-6.85 L 16.0851,-6.85 L 16.083,-6.85 L 16.0809,-6.85 L 16.0788,-6.85 L 16.0768,-6.85 L 16.0747,-6.85 L 16.0726,-6.85 L 16.0705,-6.85 L 16.0685,-6.85 L 16.0664,-6.85 L 16.0643,-6.85 L 16.0622,-6.85 L 16.0602,-6.85 L 16.0581,-6.85 L 16.056,-6.85 L 16.0539,-6.85 L 16.0519,-6.85 L 16.0498,-6.85 L 16.0477,-6.85 L 16.0456,-6.85 L 16.0436,-6.85 L 16.0415,-6.85 L 16.0394,-6.85 L 16.0373,-6.85 L 16.0353,-6.85 L 16.0332,-6.85 L 16.0311,-6.85 L 16.029,-6.85 L 16.027,-6.85 L 16.0249,-6.85 L 16.0228,-6.85 L 16.0207,-6.85 L 16.0187,-6.85 L 16.0166,-6.85 L 16.0145,-6.85 L 16.0124,-6.85 L 16.0104,-6.85 L 16.0083,-6.85 L 16.0062,-6.85 L 16.0041,-6.85 L 16.0021,-6.85 L 16.0,-6.85" />
      <path d="M 22.9998,-6.85 L 23.0019,-6.85 L 23.004,-6.85 L 23.006,-6.85 L 23.0081,-6.85 L 23.0102,-6.85 L 23.0123,-6.85 L 23.0143,-6.85 L 23.0164,-6.85 L 23.0185,-6.85 L 23.0206,-6.85 L 23.0226,-6.85 L 23.0247,-6.85 L 23.0268,-6.85 L 23.0289,-6.85 L 23.0309,-6.85 L 23.033,-6.85 L 23.0351,-6.85 L 23.0372,-6.85 L 23.0392,-6.85 L 23.0413,-6.85 L 23.0434,-6.85 L 23.0455,-6.85 L 23.0476,-6.85 L 23.0496,-6.85 L 23.0517,-6.85 L 23.0538,-6.85 L 23.0559,-6.85 L 23.0579,-6.85 L 23.06,-6.85 L 23.0621,-6.85 L 23.0642,-6.85 L 23.0662,-6.85 L 23.0683,-6.85 L 23.0704,-6.85 L 23.0725,-6.85 L 23.0745,-6.85 L 23.0766,-6.85 L 23.0787,-6.85 L 23.0808,-6.85 L 23.0828,-6.85 L 23.0849,-6.85 L 23.087,-6.85 L 23.0891,-6.85 L 23.0911,-6.85 L 23.0932,-6.85 L 23.0953,-6.85 L 23.0974,-6.85 L 23.0994,-6.85 L 23.1015,-6.85 L 23.1036,-6.85 L 23.1057,-6.85 L 23.1077,-6.85 L 23.1098,-6.85 L 23.1119,-6.85 L 23.114,-6.85 L 23.116,-6.85 L 23.1181,-6.85 L 23.1202,-6.85 L 23.1223,-6.85 L 23.1243,-6.85 L 23.1264,-6.85 L 23.1285,-6.85 L 23.1306,-6.85 L 23.1326,-6.85 L 23.1347,-6.85 L 23.1368,-6.85 L 23.1389,-6.85 L 23.1409,-6.85 L 23.143,-6.85 L 23.1451,-6.85 L 23.1472,-6.85 L 23.1492,-6.85" />
      <path d="M 31.0743,-5.05 L 30.8521,-5.05 L 30.6299,-5.05 L 30.4077,-5.05 L 30.1855,-5.05 L 29.9633,-5.05 L 29.741,-5.05 L 29.5188,-5.05 L 29.2966,-5.05 L 29.0744,-5.05 L 28.8522,-5.05 L 28.63,-5.05 L 28.4077,-5.05 L 28.1855,-5.05 L 27.9633,-5.05 L 27.7411,-5.05 L 27.5189,-5.05 L 27.2967,-5.05 L 27.0744,-5.05 L 26.8522,-5.05 L 26.63,-5.05 L 26.4078,-5.05 L 26.1856,-5.05 L 25.9634,-5.05 L 25.7411,-5.05 L 25.5189,-5.05 L 25.2967,-5.05 L 25.0745,-5.05 L 24.8523,-5.05 L 24.6301,-5.05 L 24.4078,-5.05 L 24.1856,-5.05 L 23.9634,-5.05 L 23.7412,-5.05 L 23.519,-5.05 L 23.2967,-5.05 L 23.0745,-5.05 L 22.8523,-5.05 L 22.6301,-5.05 L 22.4079,-5.05 L 22.1857,-5.05 L 21.9634,-5.05 L 21.7412,-5.05 L 21.519,-5.05 L 21.2968,-5.05 L 21.0746,-5.05 L 20.8524,-5.05 L 20.6301,-5.05 L 20.4079,-5.05 L 20.1857,-5.05 L 19.9635,-5.05 L 19.7413,-5.05 L 19.5191,-5.05 L 19.2968,-5.05 L 19.0746,-5.05 L 18.8524,-5.05 L 18.6302,-5.05 L 18.408,-5.05 L 18.1858,-5.05 L 17.9635,-5.05 L 17.7413,-5.05 L 17.5191,-5.05 L 17.2969,-5.05 L 17.0747,-5.05 L 16.8525,-5.05 L 16.6302,-5.05 L 16.408,-5.05 L 16.1858,-5.05 L 15.9636,-5.05 L 15.7414,-5.05 L 15.5192,-5.05 L 15.2969,-5.05 L 15.0747,-5.05" />
    </g>
    <g fill="none" stroke="rgb(0,0,0)" stroke-width="0.2" id="Center" stroke-dasharray="6.35 1.27 1.27 1.27">
      <line x1="0.0" y1="0.0" x2="-12.76" y2="0.0" />
      <line x1="0.0" y1="0.0" x2="12.76" y2="0.0" />
      <line x1="0.0" y1="0.0" x2="0.0" y2="-12.76" />
      <line x1="0.0" y1="0.0" x2="0.0" y2="12.76" />
      <line x1="23.0745" y1="0.0" x2="13.24" y2="0.0" />
      <line x1="23.0745" y1="0.0" x2="32.9091" y2="0.0" />
    </g>
  </g>
</svg>