<?xml version='1.0' encoding='utf-8'?>
<svg width="39.4883mm" height="25.4mm" viewBox="-12.7 -12.7 39.4883 25.4" version="1.1" xmlns="http://www.w3.org/2000/svg">
  <g transform="scale(1,-1)" stroke-linecap="round">
    <g fill="none" stroke="rgb(0,0,0)" stroke-width="0.4" id="Visible">
      <path d="M -9.0,-9.0 L -9.0,-8.875 L -9.0,-8.75 L -9.0,-8.625 L -9.0,-8.5 L -9.0,-8.375 L -9.0,-8.25 L -9.0,-8.125 L -9.0,-8.0 L -9.0,-7.875 L -9.0,-7.75 L -9.0,-7.625 L -9.0,-7.5 L -9.0,-7.375 L -9.0,-7.25 L -9.0,-7.125 L -9.0,-7.0 L -9.0,-6.875 L -9.0,-6.75 L -9.0,-6.625 L -9.0,-6.5 L -9.0,-6.375 L -9.0,-6.25 L -9.0,-6.125 L -9.0,-6.0 L -9.0,-5.875 L -9.0,-5.75 L -9.0,-5.625 L -9.0,-5.5 L -9.0,-5.375 L -9.0,-5.25 L -9.0,-5.125 L -9.0,-5.0 L -9.0,-4.875 L -9.0,-4.75 L -9.0,-4.625 L -9.0,-4.5 L -9.0,-4.375 L -9.0,-4.25 L -9.0,-4.125 L -9.0,-4.0 L -9.0,-3.875 L -9.0,-3.75 L -9.0,-3.625 L -9.0,-3.5 L -9.0,-3.375 L -9.0,-3.25 L -9.0,-3.125 L -9.0,-3.0 L -9.0,-2.875 L -9.0,-2.75 L -9.0,-2.625 L -9.0,-2.5 L -9.0,-2.375 L -9.0,-2.25 L -9.0,-2.125 L -9.0,-2.0 L -9.0,-1.875 L -9.0,-1.75 L -9.0,-1.625 L -9.0,-1.5 L -9.0,-1.375 L -9.0,-1.25 L -9.0,-1.125 L -9.0,-1.0 L -9.0,-0.875 L -9.0,-0.75 L -9.0,-0.625 L -9.0,-0.5 L -9.0,-0.375 L -9.0,-0.25 L -9.0,-0.125 L -9.0,0.0" />
      <path d="M -9.0,0.0 L -9.0,0.125 L -9.0,0.25 L -9.0,0.375 L -9.0,0.5 L -9.0,0.625 L -9.0,0.75 L -9.0,0.875 L -9.0,1.0 L -9.0,1.125 L -9.0,1.25 L -9.0,1.375 L -9.0,1.5 L -9.0,1.625 L -9.0,1.75 L -9.0,1.875 L -9.0,2.0 L -9.0,2.125 L -9.0,2.25 L -9.0,2.375 L -9.0,2.5 L -9.0,2.625 L -9.0,2.75 L -9.0,2.875 L -9.0,3.0 L -9.0,3.125 L -9.0,3.25 L -9.0,3.375 L -9.0,3.5 L -9.0,3.625 L -9.0,3.75 L -9.0,3.875 L -9.0,4.0 L -9.0,4.125 L -9.0,4.25 L -9.0,4.375 L -9.0,4.5 L -9.0,4.625 L -9.0,4.75 L -9.0,4.875 L -9.0,5.0 L -9.0,5.125 L -9.0,5.25 L -9.0,5.375 L -9.0,5.5 L -9.0,5.625 L -9.0,5.75 L -9.0,5.875 L -9.0,6.0 L -9.0,6.125 L -9.0,6.25 L -9.0,6.375 L -9.0,6.5 L -9.0,6.625 L -9.0,6.75 L -9.0,6.875 L -9.0,7.0 L -9.0,7.125 L -9.0,7.25 L -9.0,7.375 L -9.0,7.5 L -9.0,7.625 L -9.0,7.75 L -9.0,7.875 L -9.0,8.0 L -9.0,8.125 L -9.0,8.25 L -9.0,8.375 L -9.0,8.5 L -9.0,8.625 L -9.0,8.75 L -9.0,8.875 L -9.0,9.0" />
      <path d="M 9.0,-9.0 L 8.875,-9.0 L 8.75,-9.0 L 8.625,-9.0 L 8.5,-9.0 L 8.375,-9.0 L 8.25,-9.0 L 8.125,-9.0 L 8.0,-9.0 L 7.875,-9.0 L 7.75,-9.0 L 7.625,-9.0 L 7.5,-9.0 L 7.375,-9.0 L 7.25,-9.0 L 7.125,-9.0 L 7.0,-9.0 L 6.875,-9.0 L 6.75,-9.0 L 6.625,-9.0 L 6.5,-9.0 L 6.375,-9.0 L 6.25,-9.0 L 6.125,-9.0 L 6.0,-9.0 L 5.875,-9.0 L 5.75,-9.0 L 5.625,-9.0 L 5.5,-9.0 L 5.375,-9.0 L 5.25,-9.0 L 5.125,-9.0 L 5.0,-9.0 L 4.875,-9.0 L 4.75,-9.0 L 4.625,-9.0 L 4.5,-9.0 L 4.375,-9.0 L 4.25,-9.0 L 4.125,-9.0 L 4.0,-9.0 L 3.875,-9.0 L 3.75,-9.0 L 3.625,-9.0 L 3.5,-9.0 L 3.375,-9.0 L 3.25,-9.0 L 3.125,-9.0 L 3.0,-9.0 L 2.875,-9.0 L 2.75,-9.0 L 2.625,-9.0 L 2.5,-9.0 L 2.375,-9.0 L 2.25,-9.0 L 2.125,-9.0 L 2.0,-9.0 L 1.875,-9.0 L 1.75,-9.0 L 1.625,-9.0 L 1.5,-9.0 L 1.375,-9.0 L 1.25,-9.0 L 1.125,-9.0 L 1.0,-9.0 L 0.875,-9.0 L 0.75,-9.0 L 0.625,-9.0 L 0.5,-9.0 L 0.375,-9.0 L 0.25,-9.0 L 0.125,-9.0 L 0.0,-9.0" />
      <path d="M 0.0,-9.0 L -0.125,-9.0 L -0.25,-9.0 L -0.375,-9.0 L -0.5,-9.0 L -0.625,-9.0 L -0.75,-9.0 L -0.875,-9.0 L -1.0,-9.0 L -1.125,-9.0 L -1.25,-9.0 L -1.375,-9.0 L -1.5,-9.0 L -1.625,-9.0 L -1.75,-9.0 L -1.875,-9.0 L -2.0,-9.0 L -2.125,-9.0 L -2.25,-9.0 L -2.375,-9.0 L -2.5,-9.0 L -2.625,-9.0 L -2.75,-9.0 L -2.875,-9.0 L -3.0,-9.0 L -3.125,-9.0 L -3.25,-9.0 L -3.375,-9.0 L -3.5,-9.0 L -3.625,-9.0 L -3.75,-9.0 L -3.875,-9.0 L -4.0,-9.0 L -4.125,-9.0 L -4.25,-9.0 L -4.375,-9.0 L -4.5,-9.0 L -4.625,-9.0 L -4.75,-9.0 L -4.875,-9.0 L -5.0,-9.0 L -5.125,-9.0 L -5.25,-9.0 L -5.375,-9.0 L -5.5,-9.0 L -5.625,-9.0 L -5.75,-9.0 L -5.875,-9.0 L -6.0,-9.0 L -6.125,-9.0 L -6.25,-9.0 L -6.375,-9.0 L -6.5,-9.0 L -6.625,-9.0 L -6.75,-9.0 L -6.875,-9.0 L -7.0,-9.0 L -7.125,-9.0 L -7.25,-9.0 L -7.375,-9.0 L -7.5,-9.0 L -7.625,-9.0 L -7.75,-9.0 L -7.875,-9.0 L -8.0,-9.0 L -8.125,-9.0 L -8.25,-9.0 L -8.375,-9.0 L -8.5,-9.0 L -8.625,-9.0 L -8.75,-9.0 L -8.875,-9.0 L -9.0,-9.0" />
      <path d="M -9.0,-0.0 L -8.9979,-0.1963 L -8.9914,-0.3926 L -8.9807,-0.5886 L -8.9658,-0.7844 L -8.9465,-0.9798 L -8.923,-1.1747 L -8.8953,-1.3691 L -8.8633,-1.5628 L -8.8271,-1.7558 L -8.7867,-1.948 L -8.7421,-2.1392 L -8.6933,-2.3294 L -8.6404,-2.5185 L -8.5835,-2.7064 L -8.5224,-2.893 L -8.4572,-3.0782 L -8.3881,-3.2619 L -8.3149,-3.4442 L -8.2378,-3.6247 L -8.1568,-3.8036 L -8.0719,-3.9806 L -7.9831,-4.1557 L -7.8905,-4.3289 L -7.7942,-4.5 L -7.6942,-4.669 L -7.5905,-4.8357 L -7.4832,-5.0001 L -7.3724,-5.1622 L -7.258,-5.3218 L -7.1402,-5.4789 L -7.019,-5.6333 L -6.8944,-5.7851 L -6.7666,-5.9341 L -6.6355,-6.0803 L -6.5013,-6.2236 L -6.364,-6.364 L -6.2236,-6.5013 L -6.0803,-6.6355 L -5.9341,-6.7666 L -5.7851,-6.8944 L -5.6333,-7.019 L -5.4789,-7.1402 L -5.3218,-7.258 L -5.1622,-7.3724 L -5.0001,-7.4832 L -4.8357,-7.5905 L -4.669,-7.6942 L -4.5,-7.7942 L -4.3289,-7.8905 L -4.1557,-7.9831 L -3.9806,-8.0719 L -3.8036,-8.1568 L -3.6247,-8.2378 L -3.4442,-8.3149 L -3.2619,-8.3881 L -3.0782,-8.4572 L -2.893,-8.5224 L -2.7064,-8.5835 L -2.5185,-8.6404 L -2.3294,-8.6933 L -2.1392,-8.7421 L -1.948,-8.7867 L -1.7558,-8.8271 L -1.5628,-8.8633 L -1.3691,-8.8953 L -1.1747,-8.923 L -0.9798,-8.9465 L -0.7844,-8.9658 L -0.5886,-8.9807 L -0.3926,-8.9914 L -0.1963,-8.9979 L -0.0,-9.0" />
      <path d="M -9.0,9.0 L -8.875,9.0 L -8.75,9.0 L -8.625,9.0 L -8.5,9.0 L -8.375,9.0 L -8.25,9.0 L -8.125,9.0 L -8.0,9.0 L -7.875,9.0 L -7.75,9.0 L -7.625,9.0 L -7.5,9.0 L -7.375,9.0 L -7.25,9.0 L -7.125,9.0 L -7.0,9.0 L -6.875,9.0 L -6.75,9.0 L -6.625,9.0 L -6.5,9.0 L -6.375,9.0 L -6.25,9.0 L -6.125,9.0 L -6.0,9.0 L -5.875,9.0 L -5.75,9.0 L -5.625,9.0 L -5.5,9.0 L -5.375,9.0 L -5.25,9.0 L -5.125,9.0 L -5.0,9.0 L -4.875,9.0 L -4.75,9.0 L -4.625,9.0 L -4.5,9.0 L -4.375,9.0 L -4.25,9.0 L -4.125,9.0 L -4.0,9.0 L -3.875,9.0 L -3.75,9.0 L -3.625,9.0 L -3.5,9.0 L -3.375,9.0 L -3.25,9.0 L -3.125,9.0 L -3.0,9.0 L -2.875,9.0 L -2.75,9.0 L -2.625,9.0 L -2.5,9.0 L -2.375,9.0 L -2.25,9.0 L -2.125,9.0 L -2.0,9.0 L -1.875,9.0 L -1.75,9.0 L -1.625,9.0 L -1.5,9.0 L -1.375,9.0 L -1.25,9.0 L -1.125,9.0 L -1.0,9.0 L -0.875,9.0 L -0.75,9.0 L -0.625,9.0 L -0.5,9.0 L -0.375,9.0 L -0.25,9.0 L -0.125,9.0 L 0.0,9.0" />
      <path d="M 0.0,9.0 L -0.1963,8.9979 L -0.3926,8.9914 L -0.5886,8.9807 L -0.7844,8.9658 L -0.9798,8.9465 L -1.1747,8.923 L -1.3691,8.8953 L -1.5628,8.8633 L -1.7558,8.8271 L -1.948,8.7867 L -2.1392,8.7421 L -2.3294,8.6933 L -2.5185,8.6404 L -2.7064,8.5835 L -2.893,8.5224 L -3.0782,8.4572 L -3.2619,8.3881 L -3.4442,8.3149 L -3.6247,8.2378 L -3.8036,8.1568 L -3.9806,8.0719 L -4.1557,7.9831 L -4.3289,7.8905 L -4.5,7.7942 L -4.669,7.6942 L -4.8357,7.5905 L -5.0001,7.4832 L -5.1622,7.3724 L -5.3218,7.258 L -5.4789,7.1402 L -5.6333,7.019 L -5.7851,6.8944 L -5.9341,6.7666 L -6.0803,6.6355 L -6.2236,6.5013 L -6.364,6.364 L -6.5013,6.2236 L -6.6355,6.0803 L -6.7666,5.9341 L -6.8944,5.7851 L -7.019,5.6333 L -7.1402,5.4789 L -7.258,5.3218 L -7.3724,5.1622 L -7.4832,5.0001 L -7.5905,4.8357 L -7.6942,4.669 L -7.7942,4.5 L -7.8905,4.3289 L -7.9831,4.1557 L -8.0719,3.9806 L -8.1568,3.8036 L -8.2378,3.6247 L -8.3149,3.4442 L -8.3881,3.2619 L -8.4572,3.0782 L -8.5224,2.893 L -8.5835,2.7064 L -8.6404,2.5185 L -8.6933,2.3294 L -8.7421,2.1392 L -8.7867,1.948 L -8.8271,1.7558 L -8.8633,1.5628 L -8.8953,1.3691 L -8.923,1.1747 L -8.9465,0.9798 L -8.9658,0.7844 L -8.9807,0.5886 L -8.9914,0.3926 L -8.9979,0.1963 L -9.0,0.0" />
      <path d="M 0.0,9.0 L 0.125,9.0 L 0.25,9.0 L 0.375,9.0 L 0.5,9.0 L 0.625,9.0 L 0.75,9.0 L 0.875,9.0 L 1.0,9.0 L 1.125,9.0 L 1.25,9.0 L 1.375,9.0 L 1.5,9.0 L 1.625,9.0 L 1.75,9.0 L 1.875,9.0 L 2.0,9.0 L 2.125,9.0 L 2.25,9.0 L 2.375,9.0 L 2.5,9.0 L 2.625,9.0 L 2.75,9.0 L 2.875,9.0 L 3.0,9.0 L 3.125,9.0 L 3.25,9.0 L 3.375,9.0 L 3.5,9.0 L 3.625,9.0 L 3.75,9.0 L 3.875,9.0 L 4.0,9.0 L 4.125,9.0 L 4.25,9.0 L 4.375,9.0 L 4.5,9.0 L 4.625,9.0 L 4.75,9.0 L 4.875,9.0 L 5.0,9.0 L 5.125,9.0 L 5.25,9.0 L 5.375,9.0 L 5.5,9.0 L 5.625,9.0 L 5.75,9.0 L 5.875,9.0 L 6.0,9.0 L 6.125,9.0 L 6.25,9.0 L 6.375,9.0 L 6.5,9.0 L 6.625,9.0 L 6.75,9.0 L 6.875,9.0 L 7.0,9.0 L 7.125,9.0 L 7.25,9.0 L 7.375,9.0 L 7.5,9.0 L 7.625,9.0 L 7.75,9.0 L 7.875,9.0 L 8.0,9.0 L 8.125,9.0 L 8.25,9.0 L 8.375,9.0 L 8.5,9.0 L 8.625,9.0 L 8.75,9.0 L 8.875,9.0 L 9.0,9.0" />
      <path d="M 9.0,9.0 L 9.0,8.875 L 9.0,8.75 L 9.0,8.625 L 9.0,8.5 L 9.0,8.375 L 9.0,8.25 L 9.0,8.125 L 9.0,8.0 L 9.0,7.875 L 9.0,7.75 L 9.0,7.625 L 9.0,7.5 L 9.0,7.375 L 9.0,7.25 L 9.0,7.125 L 9.0,7.0 L 9.0,6.875 L 9.0,6.75 L 9.0,6.625 L 9.0,6.5 L 9.0,6.375 L 9.0,6.25 L 9.0,6.125 L 9.0,6.0 L 9.0,5.875 L 9.0,5.75 L 9.0,5.625 L 9.0,5.5 L 9.0,5.375 L 9.0,5.25 L 9.0,5.125 L 9.0,5.0 L 9.0,4.875 L 9.0,4.75 L 9.0,4.625 L 9.0,4.5 L 9.0,4.375 L 9.0,4.25 L 9.0,4.125 L 9.0,4.0 L 9.0,3.875 L 9.0,3.75 L 9.0,3.625 L 9.0,3.5 L 9.0,3.375 L 9.0,3.25 L 9.0,3.125 L 9.0,3.0 L 9.0,2.875 L 9.0,2.75 L 9.0,2.625 L 9.0,2.5 L 9.0,2.375 L 9.0,2.25 L 9.0,2.125 L 9.0,2.0 L 9.0,1.875 L 9.0,1.75 L 9.0,1.625 L 9.0,1.5 L 9.0,1.375 L 9.0,1.25 L 9.0,1.125 L 9.0,1.0 L 9.0,0.875 L 9.0,0.75 L 9.0,0.625 L 9.0,0.5 L 9.0,0.375 L 9.0,0.25 L 9.0,0.125 L 9.0,0.0" />
      <path d="M 9.0,-0.0 L 9.0,-0.125 L 9.0,-0.25 L 9.0,-0.375 L 9.0,-0.5 L 9.0,-0.625 L 9.0,-0.75 L 9.0,-0.875 L 9.0,-1.0 L 9.0,-1.125 L 9.0,-1.25 L 9.0,-1.375 L 9.0,-1.5 L 9.0,-1.625 L 9.0,-1.75 L 9.0,-1.875 L 9.0,-2.0 L 9.0,-2.125 L 9.0,-2.25 L 9.0,-2.375 L 9.0,-2.5 L 9.0,-2.625 L 9.0,-2.75 L 9.0,-2.875 L 9.0,-3.0 L 9.0,-3.125 L 9.0,-3.25 L 9.0,-3.375 L 9.0,-3.5 L 9.0,-3.625 L 9.0,-3.75 L 9.0,-3.875 L 9.0,-4.0 L 9.0,-4.125 L 9.0,-4.25 L 9.0,-4.375 L 9.0,-4.5 L 9.0,-4.625 L 9.0,-4.75 L 9.0,-4.875 L 9.0,-5.0 L 9.0,-5.125 L 9.0,-5.25 L 9.0,-5.375 L 9.0,-5.5 L 9.0,-5.625 L 9.0,-5.75 L 9.0,-5.875 L 9.0,-6.0 L 9.0,-6.125 L 9.0,-6.25 L 9.0,-6.375 L 9.0,-6.5 L 9.0,-6.625 L 9.0,-6.75 L 9.0,-6.875 L 9.0,-7.0 L 9.0,-7.125 L 9.0,-7.25 L 9.0,-7.375 L 9.0,-7.5 L 9.0,-7.625 L 9.0,-7.75 L 9.0,-7.875 L 9.0,-8.0 L 9.0,-8.125 L 9.0,-8.25 L 9.0,-8.375 L 9.0,-8.5 L 9.0,-8.625 L 9.0,-8.75 L 9.0,-8.875 L 9.0,-9.0" />
      <path d="M 0.0,5.05 L -0.4401,5.0308 L -0.8769,4.9733 L -1.307,4.8779 L -1.7272,4.7454 L -2.1342,4.5769 L -2.525,4.3734 L -2.8966,4.1367 L -3.2461,3.8685 L -3.5709,3.5709 L -3.8685,3.2461 L -4.1367,2.8966 L -4.3734,2.525 L -4.5769,2.1342 L -4.7454,1.7272 L -4.8779,1.307 L -4.9733,0.8769 L -5.0308,0.4401 L -5.05,-0.0 L -5.0308,-0.4401 L -4.9733,-0.8769 L -4.8779,-1.307 L -4.7454,-1.7272 L -4.5769,-2.1342 L -4.3734,-2.525 L -4.1367,-2.8966 L -3.8685,-3.2461 L -3.5709,-3.5709 L -3.2461,-3.8685 L -2.8966,-4.1367 L -2.525,-4.3734 L -2.1342,-4.5769 L -1.7272,-4.7454 L -1.307,-4.8779 L -0.8769,-4.9733 L -0.4401,-5.0308 L 0.0,-5.05 L 0.4401,-5.0308 L 0.8769,-4.9733 L 1.307,-4.8779 L 1.7272,-4.7454 L 2.1342,-4.5769 L 2.525,-4.3734 L 2.8966,-4.1367 L 3.2461,-3.8685 L 3.5709,-3.5709 L 3.8685,-3.2461 L 4.1367,-2.8966 L 4.3734,-2.525 L 4.5769,-2.1342 L 4.7454,-1.7272 L 4.8779,-1.307 L 4.9733,-0.8769 L 5.0308,-0.4401 L 5.05,0.0 L 5.0308,0.4401 L 4.9733,0.8769 L 4.8779,1.307 L 4.7454,1.7272 L 4.5769,2.1342 L 4.3734,2.525 L 4.1367,2.8966 L 3.8685,3.2461 L 3.5709,3.5709 L 3.2461,3.8685 L 2.8966,4.1367 L 2.525,4.3734 L 2.1342,4.5769 L 1.7272,4.7454 L 1.307,4.8779 L 0.8769,4.9733 L 0.4401,5.0308 L -0.0,5.05" />
      <path d="M 0.0,-9.0 L 0.1963,-8.9979 L 0.3926,-8.9914 L 0.5886,-8.9807 L 0.7844,-8.9658 L 0.9798,-8.9465 L 1.1747,-8.923 L 1.3691,-8.8953 L 1.5628,-8.8633 L 1.7558,-8.8271 L 1.948,-8.7867 L 2.1392,-8.7421 L 2.3294,-8.6933 L 2.5185,-8.6404 L 2.7064,-8.5835 L 2.893,-8.5224 L 3.0782,-8.4572 L 3.2619,-8.3881 L 3.4442,-8.3149 L 3.6247,-8.2378 L 3.8036,-8.1568 L 3.9806,-8.0719 L 4.1557,-7.9831 L 4.3289,-7.8905 L 4.5,-7.7942 L 4.669,-7.6942 L 4.8357,-7.5905 L 5.0001,-7.4832 L 5.1622,-7.3724 L 5.3218,-7.258 L 5.4789,-7.1402 L 5.6333,-7.019 L 5.7851,-6.8944 L 5.9341,-6.7666 L 6.0803,-6.6355 L 6.2236,-6.5013 L 6.364,-6.364 L 6.5013,-6.2236 L 6.6355,-6.0803 L 6.7666,-5.9341 L 6.8944,-5.7851 L 7.019,-5.6333 L 7.1402,-5.4789 L 7.258,-5.3218 L 7.3724,-5.1622 L 7.4832,-5.0001 L 7.5905,-4.8357 L 7.6942,-4.669 L 7.7942,-4.5 L 7.8905,-4.3289 L 7.9831,-4.1557 L 8.0719,-3.9806 L 8.1568,-3.8036 L 8.2378,-3.6247 L 8.3149,-3.4442 L 8.3881,-3.2619 L 8.4572,-3.0782 L 8.5224,-2.893 L 8.5835,-2.7064 L 8.6404,-2.5185 L 8.6933,-2.3294 L 8.7421,-2.1392 L 8.7867,-1.948 L 8.8271,-1.7558 L 8.8633,-1.5628 L 8.8953,-1.3691 L 8.923,-1.1747 L 8.9465,-0.9798 L 8.9658,-0.7844 L 8.9807,-0.5886 L 8.9914,-0.3926 L 8.9979,-0.1963 L 9.0,-0.0" />
      <path d="M 9.0,0.0 L 8.9979,0.1963 L 8.9914,0.3926 L 8.9807,0.5886 L 8.9658,0.7844 L 8.9465,0.9798 L 8.923,1.1747 L 8.8953,1.3691 L 8.8633,1.5628 L 8.8271,1.7558 L 8.7867,1.948 L 8.7421,2.1392 L 8.6933,2.3294 L 8.6404,2.5185 L 8.5835,2.7064 L 8.5224,2.893 L 8.4572,3.0782 L 8.3881,3.2619 L 8.3149,3.4442 L 8.2378,3.6247 L 8.1568,3.8036 L 8.0719,3.9806 L 7.9831,4.1557 L 7.8905,4.3289 L 7.7942,4.5 L 7.6942,4.669 L 7.5905,4.8357 L 7.4832,5.0001 L 7.3724,5.1622 L 7.258,5.3218 L 7.1402,5.4789 L 7.019,5.6333 L 6.8944,5.7851 L 6.7666,5.9341 L 6.6355,6.0803 L 6.5013,6.2236 L 6.364,6.364 L 6.2236,6.5013 L 6.0803,6.6355 L 5.9341,6.7666 L 5.7851,6.8944 L 5.6333,7.019 L 5.4789,7.1402 L 5.3218,7.258 L 5.1622,7.3724 L 5.0001,7.4832 L 4.8357,7.5905 L 4.669,7.6942 L 4.5,7.7942 L 4.3289,7.8905 L 4.1557,7.9831 L 3.9806,8.0719 L 3.8036,8.1568 L 3.6247,8.2378 L 3.4442,8.3149 L 3.2619,8.3881 L 3.0782,8.4572 L 2.893,8.5224 L 2.7064,8.5835 L 2.5185,8.6404 L 2.3294,8.6933 L 2.1392,8.7421 L 1.948,8.7867 L 1.7558,8.8271 L 1.5628,8.8633 L 1.3691,8.8953 L 1.1747,8.923 L 0.9798,8.9465 L 0.7844,8.9658 L 0.5886,8.9807 L 0.3926,8.9914 L 0.1963,8.9979 L 0.0,9.0" />
      <path d="M 23.0883,9.0 L 23.0883,8.75 L 23.0883,8.5 L 23.0883,8.25 L 23.0883,8.0 L 23.0883,7.75 L 23.0883,7.5 L 23.0883,7.25 L 23.0883,7.0 L 23.0883,6.75 L 23.0883,6.5 L 23.0883,6.25 L 23.0883,6.0 L 23.0883,5.75 L 23.0883,5.5 L 23.0883,5.25 L 23.0883,5.0 L 23.0883,4.75 L 23.0883,4.5 L 23.0883,4.25 L 23.0883,4.0 L 23.0883,3.75 L 23.0883,3.5 L 23.0883,3.25 L 23.0883,3.0 L 23.0883,2.75 L 23.0883,2.5 L 23.0883,2.25 L 23.0883,2.0 L 23.0883,1.75 L 23.0883,1.5 L 23.0883,1.25 L 23.0883,1.0 L 23.0883,0.75 L 23.0883,0.5 L 23.0883,0.25 L 23.0883,0.0 L 23.0883,-0.25 L 23.0883,-0.5 L 23.0883,-0.75 L 23.0883,-1.0 L 23.0883,-1.25 L 23.0883,-1.5 L 23.0883,-1.75 L 23.0883,-2.0 L 23.0883,-2.25 L 23.0883,-2.5 L 23.0883,-2.75 L 23.0883,-3.0 L 23.0883,-3.25 L 23.0883,-3.5 L 23.0883,-3.75 L 23.0883,-4.0 L 23.0883,-4.25 L 23.0883,-4.5 L 23.0883,-4.75 L 23.0883,-5.0 L 23.0883,-5.25 L 23.0883,-5.5 L 23.0883,-5.75 L 23.0883,-6.0 L 23.0883,-6.25 L 23.0883,-6.5 L 23.0883,-6.75 L 23.0883,-7.0 L 23.0883,-7.25 L 23.0883,-7.5 L 23.0883,-7.75 L 23.0883,-8.0 L 23.0883,-8.25 L 23.0883,-8.5 L 23.0883,-8.75 L 23.0883,-9.0" />
      <path d="M 22.9999,9.0 L 23.0011,9.0 L 23.0023,9.0 L 23.0036,9.0 L 23.0048,9.0 L 23.006,9.0 L 23.0073,9.0 L 23.0085,9.0 L 23.0097,9.0 L 23.0109,9.0 L 23.0122,9.0 L 23.0134,9.0 L 23.0146,9.0 L 23.0159,9.0 L 23.0171,9.0 L 23.0183,9.0 L 23.0195,9.0 L 23.0208,9.0 L 23.022,9.0 L 23.0232,9.0 L 23.0245,9.0 L 23.0257,9.0 L 23.0269,9.0 L 23.0281,9.0 L 23.0294,9.0 L 23.0306,9.0 L 23.0318,9.0 L 23.0331,9.0 L 23.0343,9.0 L 23.0355,9.0 L 23.0367,9.0 L 23.038,9.0 L 23.0392,9.0 L 23.0404,9.0 L 23.0417,9.0 L 23.0429,9.0 L 23.0441,9.0 L 23.0453,9.0 L 23.0466,9.0 L 23.0478,9.0 L 23.049,9.0 L 23.0503,9.0 L 23.0515,9.0 L 23.0527,9.0 L 23.0539,9.0 L 23.0552,9.0 L 23.0564,9.0 L 23.0576,9.0 L 23.0589,9.0 L 23.0601,9.0 L 23.0613,9.0 L 23.0625,9.0 L 23.0638,9.0 L 23.065,9.0 L 23.0662,9.0 L 23.0675,9.0 L 23.0687,9.0 L 23.0699,9.0 L 23.0711,9.0 L 23.0724,9.0 L 23.0736,9.0 L 23.0748,9.0 L 23.0761,9.0 L 23.0773,9.0 L 23.0785,9.0 L 23.0797,9.0 L 23.081,9.0 L 23.0822,9.0 L 23.0834,9.0 L 23.0847,9.0 L 23.0859,9.0 L 23.0871,9.0 L 23.0883,9.0" />
      <path d="M 23.0883,-9.0 L 23.0871,-9.0 L 23.0859,-9.0 L 23.0847,-9.0 L 23.0834,-9.0 L 23.0822,-9.0 L 23.081,-9.0 L 23.0797,-9.0 L 23.0785,-9.0 L 23.0773,-9.0 L 23.0761,-9.0 L 23.0748,-9.0 L 23.0736,-9.0 L 23.0724,-9.0 L 23.0711,-9.0 L 23.0699,-9.0 L 23.0687,-9.0 L 23.0675,-9.0 L 23.0662,-9.0 L 23.065,-9.0 L 23.0638,-9.0 L 23.0625,-9.0 L 23.0613,-9.0 L 23.0601,-9.0 L 23.0589,-9.0 L 23.0576,-9.0 L 23.0564,-9.0 L 23.0552,-9.0 L 23.0539,-9.0 L 23.0527,-9.0 L 23.0515,-9.0 L 23.0503,-9.0 L 23.049,-9.0 L 23.0478,-9.0 L 23.0466,-9.0 L 23.0453,-9.0 L 23.0441,-9.0 L 23.0429,-9.0 L 23.0417,-9.0 L 23.0404,-9.0 L 23.0392,-9.0 L 23.038,-9.0 L 23.0367,-9.0 L 23.0355,-9.0 L 23.0343,-9.0 L 23.0331,-9.0 L 23.0318,-9.0 L 23.0306,-9.0 L 23.0294,-9.0 L 23.0281,-9.0 L 23.0269,-9.0 L 23.0257,-9.0 L 23.0245,-9.0 L 23.0232,-9.0 L 23.022,-9.0 L 23.0208,-9.0 L 23.0195,-9.0 L 23.0183,-9.0 L 23.0171,-9.0 L 23.0159,-9.0 L 23.0146,-9.0 L 23.0134,-9.0 L 23.0122,-9.0 L 23.0109,-9.0 L 23.0097,-9.0 L 23.0085,-9.0 L 23.0073,-9.0 L 23.006,-9.0 L 23.0048,-9.0 L 23.0036,-9.0 L 23.0023,-9.0 L 23.0011,-9.0 L 22.9999,-9.0" />
      <path d="M 22.9999,-9.0 L 22.9999,-8.75 L 22.9999,-8.5 L 22.9999,-8.25 L 22.9999,-8.0 L 22.9999,-7.75 L 22.9999,-7.5 L 22.9999,-7.25 L 22.9999,-7.0 L 22.9999,-6.75 L 22.9999,-6.5 L 22.9999,-6.25 L 22.9999,-6.0 L 22.9999,-5.75 L 22.9999,-5.5 L 22.9999,-5.25 L 22.9999,-5.0 L 22.9999,-4.75 L 22.9999,-4.5 L 22.9999,-4.25 L 22.9999,-4.0 L 22.9999,-3.75 L 22.9999,-3.5 L 22.9999,-3.25 L 22.9999,-3.0 L 22.9999,-2.75 L 22.9999,-2.5 L 22.9999,-2.25 L 22.9999,-2.0 L 22.9999,-1.75 L 22.9999,-1.5 L 22.9999,-1.25 L 22.9999,-1.0 L 22.9999,-0.75 L 22.9999,-0.5 L 22.9999,-0.25 L 22.9999,0.0 L 22.9999,0.25 L 22.9999,0.5 L 22.9999,0.75 L 22.9999,1.0 L 22.9999,1.25 L 22.9999,1.5 L 22.9999,1.75 L 22.9999,2.0 L 22.9999,2.25 L 22.9999,2.5 L 22.9999,2.75 L 22.9999,3.0 L 22.9999,3.25 L 22.9999,3.5 L 22.9999,3.75 L 22.9999,4.0 L 22.9999,4.25 L 22.9999,4.5 L 22.9999,4.75 L 22.9999,5.0 L 22.9999,5.25 L 22.9999,5.5 L 22.9999,5.75 L 22.9999,6.0 L 22.9999,6.25 L 22.9999,6.5 L 22.9999,6.75 L 22.9999,7.0 L 22.9999,7.25 L 22.9999,7.5 L 22.9999,7.75 L 22.9999,8.0 L 22.9999,8.25 L 22.9999,8.5 L 22.9999,8.75 L 22.9999,9.0" />
      <path d="M 23.0441,5.05 L 23.0499,4.91 L 23.0523,4.7698 L 23.054,4.6295 L 23.0555,4.4892 L 23.0567,4.3489 L 23.0578,4.2086 L 23.0588,4.0683 L 23.0597,3.9281 L 23.0605,3.7878 L 23.0613,3.6475 L 23.062,3.5072 L 23.0626,3.3669 L 23.0632,3.2266 L 23.0638,3.0863 L 23.0643,2.9461 L 23.0647,2.8058 L 23.0652,2.6655 L 23.0656,2.5252 L 23.066,2.3849 L 23.0663,2.2446 L 23.0667,2.1043 L 23.067,1.964 L 23.0673,1.8238 L 23.0675,1.6835 L 23.0677,1.5432 L 23.068,1.4029 L 23.0681,1.2626 L 23.0683,1.1223 L 23.0685,0.982 L 23.0686,0.8418 L 23.0687,0.7015 L 23.0688,0.5612 L 23.0688,0.4209 L 23.0689,0.2806 L 23.0689,0.1403 L 23.0689,0.0 L 23.0689,-0.1402 L 23.0689,-0.2805 L 23.0688,-0.4208 L 23.0688,-0.5611 L 23.0687,-0.7014 L 23.0686,-0.8417 L 23.0685,-0.982 L 23.0683,-1.1222 L 23.0681,-1.2625 L 23.068,-1.4028 L 23.0677,-1.5431 L 23.0675,-1.6834 L 23.0673,-1.8237 L 23.067,-1.964 L 23.0667,-2.1043 L 23.0663,-2.2445 L 23.066,-2.3848 L 23.0656,-2.5251 L 23.0652,-2.6654 L 23.0647,-2.8057 L 23.0643,-2.946 L 23.0638,-3.0862 L 23.0632,-3.2265 L 23.0626,-3.3668 L 23.062,-3.5071 L 23.0613,-3.6474 L 23.0605,-3.7877 L 23.0597,-3.928 L 23.0588,-4.0682 L 23.0578,-4.2085 L 23.0567,-4.3488 L 23.0555,-4.4891 L 23.054,-4.6294 L 23.0523,-4.7696 L 23.0499,-4.9099 L 23.0441,-5.05" />
      <path d="M 23.0441,-5.05 L 23.0383,-4.91 L 23.036,-4.7698 L 23.0342,-4.6295 L 23.0327,-4.4892 L 23.0315,-4.3489 L 23.0304,-4.2086 L 23.0294,-4.0683 L 23.0285,-3.9281 L 23.0277,-3.7878 L 23.0269,-3.6475 L 23.0263,-3.5072 L 23.0256,-3.3669 L 23.025,-3.2266 L 23.0245,-3.0863 L 23.024,-2.9461 L 23.0235,-2.8058 L 23.023,-2.6655 L 23.0226,-2.5252 L 23.0222,-2.3849 L 23.0219,-2.2446 L 23.0216,-2.1043 L 23.0212,-1.964 L 23.021,-1.8238 L 23.0207,-1.6835 L 23.0205,-1.5432 L 23.0203,-1.4029 L 23.0201,-1.2626 L 23.0199,-1.1223 L 23.0198,-0.982 L 23.0196,-0.8418 L 23.0195,-0.7015 L 23.0194,-0.5612 L 23.0194,-0.4209 L 23.0193,-0.2806 L 23.0193,-0.1403 L 23.0193,0.0 L 23.0193,0.1402 L 23.0193,0.2805 L 23.0194,0.4208 L 23.0194,0.5611 L 23.0195,0.7014 L 23.0196,0.8417 L 23.0198,0.982 L 23.0199,1.1222 L 23.0201,1.2625 L 23.0203,1.4028 L 23.0205,1.5431 L 23.0207,1.6834 L 23.021,1.8237 L 23.0212,1.964 L 23.0216,2.1043 L 23.0219,2.2445 L 23.0222,2.3848 L 23.0226,2.5251 L 23.023,2.6654 L 23.0235,2.8057 L 23.024,2.946 L 23.0245,3.0862 L 23.025,3.2265 L 23.0256,3.3668 L 23.0263,3.5071 L 23.0269,3.6474 L 23.0277,3.7877 L 23.0285,3.928 L 23.0294,4.0682 L 23.0304,4.2085 L 23.0315,4.3488 L 23.0327,4.4891 L 23.0342,4.6294 L 23.036,4.7696 L 23.0383,4.9099 L 23.0441,5.05" />
      <path d="M 22.9999,-9.0 L 22.8909,-9.0 L 22.7819,-9.0 L 22.6729,-9.0 L 22.5639,-9.0 L 22.4549,-9.0 L 22.3459,-9.0 L 22.2369,-9.0 L 22.1279,-9.0 L 22.0189,-9.0 L 21.9099,-9.0 L 21.8009,-9.0 L 21.6919,-9.0 L 21.583,-9.0 L 21.474,-9.0 L 21.365,-9.0 L 21.256,-9.0 L 21.147,-9.0 L 21.038,-9.0 L 20.929,-9.0 L 20.82,-9.0 L 20.711,-9.0 L 20.602,-9.0 L 20.493,-9.0 L 20.384,-9.0 L 20.275,-9.0 L 20.166,-9.0 L 20.057,-9.0 L 19.948,-9.0 L 19.839,-9.0 L 19.7301,-9.0 L 19.6211,-9.0 L 19.5121,-9.0 L 19.4031,-9.0 L 19.2941,-9.0 L 19.1851,-9.0 L 19.0761,-9.0 L 18.9671,-9.0 L 18.8581,-9.0 L 18.7491,-9.0 L 18.6401,-9.0 L 18.5311,-9.0 L 18.4221,-9.0 L 18.3131,-9.0 L 18.2041,-9.0 L 18.0951,-9.0 L 17.9861,-9.0 L 17.8771,-9.0 L 17.7682,-9.0 L 17.6592,-9.0 L 17.5502,-9.0 L 17.4412,-9.0 L 17.3322,-9.0 L 17.2232,-9.0 L 17.1142,-9.0 L 17.0052,-9.0 L 16.8962,-9.0 L 16.7872,-9.0 L 16.6782,-9.0 L 16.5692,-9.0 L 16.4602,-9.0 L 16.3512,-9.0 L 16.2422,-9.0 L 16.1332,-9.0 L 16.0242,-9.0 L 15.9153,-9.0 L 15.8063,-9.0 L 15.6973,-9.0 L 15.5883,-9.0 L 15.4793,-9.0 L 15.3703,-9.0 L 15.2613,-9.0 L 15.1523,-9.0" />
      <path d="M 15.1523,-9.0 L 15.123,-9.0 L 15.0937,-9.0 L 15.0644,-9.0 L 15.0352,-9.0 L 15.0059,-9.0 L 14.9766,-9.0 L 14.9473,-9.0 L 14.918,-9.0 L 14.8888,-9.0 L 14.8595,-9.0 L 14.8302,-9.0 L 14.8009,-9.0 L 14.7716,-9.0 L 14.7424,-9.0 L 14.7131,-9.0 L 14.6838,-9.0 L 14.6545,-9.0 L 14.6252,-9.0 L 14.5959,-9.0 L 14.5667,-9.0 L 14.5374,-9.0 L 14.5081,-9.0 L 14.4788,-9.0 L 14.4495,-9.0 L 14.4203,-9.0 L 14.391,-9.0 L 14.3617,-9.0 L 14.3324,-9.0 L 14.3031,-9.0 L 14.2739,-9.0 L 14.2446,-9.0 L 14.2153,-9.0 L 14.186,-9.0 L 14.1567,-9.0 L 14.1274,-9.0 L 14.0982,-9.0 L 14.0689,-9.0 L 14.0396,-9.0 L 14.0103,-9.0 L 13.981,-9.0 L 13.9518,-9.0 L 13.9225,-9.0 L 13.8932,-9.0 L 13.8639,-9.0 L 13.8346,-9.0 L 13.8054,-9.0 L 13.7761,-9.0 L 13.7468,-9.0 L 13.7175,-9.0 L 13.6882,-9.0 L 13.659,-9.0 L 13.6297,-9.0 L 13.6004,-9.0 L 13.5711,-9.0 L 13.5418,-9.0 L 13.5125,-9.0 L 13.4833,-9.0 L 13.454,-9.0 L 13.4247,-9.0 L 13.3954,-9.0 L 13.3661,-9.0 L 13.3369,-9.0 L 13.3076,-9.0 L 13.2783,-9.0 L 13.249,-9.0 L 13.2197,-9.0 L 13.1905,-9.0 L 13.1612,-9.0 L 13.1319,-9.0 L 13.1026,-9.0 L 13.0733,-9.0 L 13.044,-9.0" />
      <path d="M 13.044,9.0 L 13.0733,9.0 L 13.1026,9.0 L 13.1319,9.0 L 13.1612,9.0 L 13.1905,9.0 L 13.2197,9.0 L 13.249,9.0 L 13.2783,9.0 L 13.3076,9.0 L 13.3369,9.0 L 13.3661,9.0 L 13.3954,9.0 L 13.4247,9.0 L 13.454,9.0 L 13.4833,9.0 L 13.5125,9.0 L 13.5418,9.0 L 13.5711,9.0 L 13.6004,9.0 L 13.6297,9.0 L 13.659,9.0 L 13.6882,9.0 L 13.7175,9.0 L 13.7468,9.0 L 13.7761,9.0 L 13.8054,9.0 L 13.8346,9.0 L 13.8639,9.0 L 13.8932,9.0 L 13.9225,9.0 L 13.9518,9.0 L 13.981,9.0 L 14.0103,9.0 L 14.0396,9.0 L 14.0689,9.0 L 14.0982,9.0 L 14.1274,9.0 L 14.1567,9.0 L 14.186,9.0 L 14.2153,9.0 L 14.2446,9.0 L 14.2739,9.0 L 14.3031,9.0 L 14.3324,9.0 L 14.3617,9.0 L 14.391,9.0 L 14.4203,9.0 L 14.4495,9.0 L 14.4788,9.0 L 14.5081,9.0 L 14.5374,9.0 L 14.5667,9.0 L 14.5959,9.0 L 14.6252,9.0 L 14.6545,9.0 L 14.6838,9.0 L 14.7131,9.0 L 14.7424,9.0 L 14.7716,9.0 L 14.8009,9.0 L 14.8302,9.0 L 14.8595,9.0 L 14.8888,9.0 L 14.918,9.0 L 14.9473,9.0 L 14.9766,9.0 L 15.0059,9.0 L 15.0352,9.0 L 15.0644,9.0 L 15.0937,9.0 L 15.123,9.0 L 15.1523,9.0" />
      <path d="M 22.9999,9.0 L 22.8909,9.0 L 22.7819,9.0 L 22.6729,9.0 L 22.5639,9.0 L 22.4549,9.0 L 22.3459,9.0 L 22.2369,9.0 L 22.1279,9.0 L 22.0189,9.0 L 21.9099,9.0 L 21.8009,9.0 L 21.6919,9.0 L 21.583,9.0 L 21.474,9.0 L 21.365,9.0 L 21.256,9.0 L 21.147,9.0 L 21.038,9.0 L 20.929,9.0 L 20.82,9.0 L 20.711,9.0 L 20.602,9.0 L 20.493,9.0 L 20.384,9.0 L 20.275,9.0 L 20.166,9.0 L 20.057,9.0 L 19.948,9.0 L 19.839,9.0 L 19.7301,9.0 L 19.6211,9.0 L 19.5121,9.0 L 19.4031,9.0 L 19.2941,9.0 L 19.1851,9.0 L 19.0761,9.0 L 18.9671,9.0 L 18.8581,9.0 L 18.7491,9.0 L 18.6401,9.0 L 18.5311,9.0 L 18.4221,9.0 L 18.3131,9.0 L 18.2041,9.0 L 18.0951,9.0 L 17.9861,9.0 L 17.8771,9.0 L 17.7682,9.0 L 17.6592,9.0 L 17.5502,9.0 L 17.4412,9.0 L 17.3322,9.0 L 17.2232,9.0 L 17.1142,9.0 L 17.0052,9.0 L 16.8962,9.0 L 16.7872,9.0 L 16.6782,9.0 L 16.5692,9.0 L 16.4602,9.0 L 16.3512,9.0 L 16.2422,9.0 L 16.1332,9.0 L 16.0242,9.0 L 15.9153,9.0 L 15.8063,9.0 L 15.6973,9.0 L 15.5883,9.0 L 15.4793,9.0 L 15.3703,9.0 L 15.2613,9.0 L 15.1523,9.0" />
      <path d="M 15.1523,9.0 L 15.1044,8.8799 L 15.0564,8.7597 L 15.0085,8.6396 L 14.9606,8.5194 L 14.9126,8.3993 L 14.8647,8.2792 L 14.8178,8.1586 L 14.7719,8.0377 L 14.7261,7.9167 L 14.6802,7.7958 L 14.6343,7.6748 L 14.5885,7.5539 L 14.5432,7.4327 L 14.4997,7.3109 L 14.4561,7.1891 L 14.4126,7.0673 L 14.369,6.9455 L 14.3255,6.8237 L 14.2828,6.7016 L 14.2418,6.579 L 14.2007,6.4563 L 14.1597,6.3336 L 14.1187,6.2109 L 14.0777,6.0883 L 14.0386,5.965 L 14.0004,5.8414 L 13.9621,5.7178 L 13.9239,5.5943 L 13.8857,5.4707 L 13.8482,5.3469 L 13.813,5.2224 L 13.7779,5.0979 L 13.7427,4.9735 L 13.7076,4.849 L 13.6725,4.7245 L 13.6406,4.5991 L 13.6088,4.4738 L 13.5769,4.3484 L 13.5451,4.223 L 13.5132,4.0977 L 13.4849,3.9714 L 13.4567,3.8452 L 13.4284,3.719 L 13.4001,3.5928 L 13.3723,3.4665 L 13.3479,3.3394 L 13.3235,3.2124 L 13.2991,3.0854 L 13.2746,2.9584 L 13.2518,2.8311 L 13.2314,2.7033 L 13.2111,2.5756 L 13.1907,2.4479 L 13.1704,2.3201 L 13.1533,2.1919 L 13.1372,2.0636 L 13.1212,1.9352 L 13.1051,1.8069 L 13.0901,1.6784 L 13.0785,1.5496 L 13.0669,1.4208 L 13.0553,1.2919 L 13.0437,1.1631 L 13.0357,1.034 L 13.0287,0.9049 L 13.0216,0.7757 L 13.0146,0.6465 L 13.0094,0.5173 L 13.007,0.388 L 13.0047,0.2587 L 13.0023,0.1293 L 13.0,-0.0" />
      <path d="M 13.0,-0.0 L 13.0023,-0.1293 L 13.0047,-0.2587 L 13.007,-0.388 L 13.0094,-0.5173 L 13.0146,-0.6465 L 13.0216,-0.7757 L 13.0287,-0.9049 L 13.0357,-1.034 L 13.0437,-1.1631 L 13.0553,-1.2919 L 13.0669,-1.4208 L 13.0785,-1.5496 L 13.0901,-1.6784 L 13.1051,-1.8069 L 13.1212,-1.9352 L 13.1372,-2.0636 L 13.1533,-2.1919 L 13.1704,-2.3201 L 13.1907,-2.4479 L 13.2111,-2.5756 L 13.2314,-2.7033 L 13.2518,-2.8311 L 13.2746,-2.9584 L 13.2991,-3.0854 L 13.3235,-3.2124 L 13.3479,-3.3394 L 13.3723,-3.4665 L 13.4001,-3.5928 L 13.4284,-3.719 L 13.4567,-3.8452 L 13.4849,-3.9714 L 13.5132,-4.0977 L 13.5451,-4.223 L 13.5769,-4.3484 L 13.6088,-4.4738 L 13.6406,-4.5991 L 13.6725,-4.7245 L 13.7076,-4.849 L 13.7427,-4.9735 L 13.7779,-5.0979 L 13.813,-5.2224 L 13.8482,-5.3469 L 13.8857,-5.4707 L 13.9239,-5.5943 L 13.9621,-5.7178 L 14.0004,-5.8414 L 14.0386,-5.965 L 14.0777,-6.0883 L 14.1187,-6.2109 L 14.1597,-6.3336 L 14.2007,-6.4563 L 14.2418,-6.579 L 14.2828,-6.7016 L 14.3255,-6.8237 L 14.369,-6.9455 L 14.4126,-7.0673 L 14.4561,-7.1891 L 14.4997,-7.3109 L 14.5432,-7.4327 L 14.5885,-7.5539 L 14.6343,-7.6748 L 14.6802,-7.7958 L 14.7261,-7.9167 L 14.7719,-8.0377 L 14.8178,-8.1586 L 14.8647,-8.2792 L 14.9126,-8.3993 L 14.9606,-8.5194 L 15.0085,-8.6396 L 15.0564,-8.7597 L 15.1044,-8.8799 L 15.1523,-9.0" />
      <path d="M 13.0439,-8.9997 L 13.0369,-8.875 L 13.0339,-8.75 L 13.0316,-8.625 L 13.0297,-8.5001 L 13.028,-8.3751 L 13.0266,-8.2501 L 13.0252,-8.1251 L 13.024,-8.0001 L 13.0228,-7.8751 L 13.0217,-7.7501 L 13.0207,-7.6251 L 13.0198,-7.5001 L 13.0189,-7.3751 L 13.018,-7.2501 L 13.0172,-7.1251 L 13.0164,-7.0001 L 13.0157,-6.8751 L 13.015,-6.7501 L 13.0143,-6.6251 L 13.0136,-6.5001 L 13.013,-6.3751 L 13.0124,-6.2501 L 13.0118,-6.1251 L 13.0113,-6.0001 L 13.0107,-5.8751 L 13.0102,-5.7501 L 13.0097,-5.6251 L 13.0092,-5.5001 L 13.0088,-5.3751 L 13.0083,-5.2501 L 13.0079,-5.1251 L 13.0075,-5.0001 L 13.0071,-4.8751 L 13.0067,-4.7501 L 13.0063,-4.6251 L 13.0059,-4.5001 L 13.0056,-4.3751 L 13.0052,-4.2501 L 13.0049,-4.1251 L 13.0046,-4.0001 L 13.0043,-3.8751 L 13.004,-3.7501 L 13.0037,-3.6251 L 13.0035,-3.5001 L 13.0032,-3.3751 L 13.003,-3.2501 L 13.0028,-3.1251 L 13.0025,-3.0001 L 13.0023,-2.875 L 13.0021,-2.75 L 13.0019,-2.625 L 13.0017,-2.5 L 13.0016,-2.375 L 13.0014,-2.25 L 13.0013,-2.125 L 13.0011,-2.0 L 13.001,-1.875 L 13.0008,-1.75 L 13.0007,-1.625 L 13.0006,-1.5 L 13.0005,-1.375 L 13.0004,-1.25 L 13.0003,-1.125 L 13.0003,-1.0 L 13.0002,-0.875 L 13.0002,-0.75 L 13.0001,-0.625 L 13.0001,-0.5 L 13.0,-0.375 L 13.0,-0.25 L 13.0,-0.125 L 13.0,0.0" />
      <path d="M 13.0,0.0 L 13.0,0.125 L 13.0,0.25 L 13.0,0.375 L 13.0001,0.5 L 13.0001,0.625 L 13.0002,0.75 L 13.0002,0.875 L 13.0003,1.0 L 13.0003,1.125 L 13.0004,1.25 L 13.0005,1.375 L 13.0006,1.5 L 13.0007,1.625 L 13.0008,1.75 L 13.001,1.875 L 13.0011,2.0 L 13.0013,2.125 L 13.0014,2.25 L 13.0016,2.375 L 13.0017,2.5 L 13.0019,2.625 L 13.0021,2.75 L 13.0023,2.875 L 13.0025,3.0 L 13.0028,3.125 L 13.003,3.25 L 13.0032,3.375 L 13.0035,3.5 L 13.0037,3.6251 L 13.004,3.7501 L 13.0043,3.8751 L 13.0046,4.0001 L 13.0049,4.1251 L 13.0052,4.2501 L 13.0056,4.3751 L 13.0059,4.5001 L 13.0063,4.6251 L 13.0067,4.7501 L 13.0071,4.8751 L 13.0075,5.0001 L 13.0079,5.1251 L 13.0083,5.2501 L 13.0088,5.3751 L 13.0092,5.5001 L 13.0097,5.6251 L 13.0102,5.7501 L 13.0107,5.8751 L 13.0113,6.0001 L 13.0118,6.1251 L 13.0124,6.2501 L 13.013,6.3751 L 13.0136,6.5001 L 13.0143,6.6251 L 13.015,6.7501 L 13.0157,6.8751 L 13.0164,7.0001 L 13.0172,7.1251 L 13.018,7.2501 L 13.0189,7.3751 L 13.0198,7.5001 L 13.0207,7.6251 L 13.0217,7.7501 L 13.0228,7.8751 L 13.024,8.0001 L 13.0252,8.1251 L 13.0266,8.25 L 13.028,8.375 L 13.0297,8.5 L 13.0316,8.625 L 13.0339,8.75 L 13.0369,8.875 L 13.0439,8.9997" />
      <path d="M 13.0439,-8.9997 L 13.0439,-8.9998 L 13.044,-8.9998 L 13.044,-8.9999 L 13.044,-9.0" />
      <path d="M 13.0439,8.9997 L 13.0439,8.9998 L 13.044,8.9998 L 13.044,8.9999 L 13.044,9.0" />
    </g>
    <g fill="none" stroke="rgb(110,110,110)" stroke-width="0.3" id="Hidden" stroke-dasharray="3.6 0.9">
      <path d="M -9.0,9.0 L -9.0,8.75 L -9.0,8.5 L -9.0,8.25 L -9.0,8.0 L -9.0,7.75 L -9.0,7.5 L -9.0,7.25 L -9.0,7.0 L -9.0,6.75 L -9.0,6.5 L -9.0,6.25 L -9.0,6.0 L -9.0,5.75 L -9.0,5.5 L -9.0,5.25 L -9.0,5.0 L -9.0,4.75 L -9.0,4.5 L -9.0,4.25 L -9.0,4.0 L -9.0,3.75 L -9.0,3.5 L -9.0,3.25 L -9.0,3.0 L -9.0,2.75 L -9.0,2.5 L -9.0,2.25 L -9.0,2.0 L -9.0,1.75 L -9.0,1.5 L -9.0,1.25 L -9.0,1.0 L -9.0,0.75 L -9.0,0.5 L -9.0,0.25 L -9.0,0.0 L -9.0,-0.25 L -9.0,-0.5 L -9.0,-0.75 L -9.0,-1.0 L -9.0,-1.25 L -9.0,-1.5 L -9.0,-1.75 L -9.0,-2.0 L -9.0,-2.25 L -9.0,-2.5 L -9.0,-2.75 L -9.0,-3.0 L -9.0,-3.25 L -9.0,-3.5 L -9.0,-3.75 L -9.0,-4.0 L -9.0,-4.25 L -9.0,-4.5 L -9.0,-4.75 L -9.0,-5.0 L -9.0,-5.25 L -9.0,-5.5 L -9.0,-5.75 L -9.0,-6.0 L -9.0,-6.25 L -9.0,-6.5 L -9.0,-6.75 L -9.0,-7.0 L -9.0,-7.25 L -9.0,-7.5 L -9.0,-7.75 L -9.0,-8.0 L -9.0,-8.25 L -9.0,-8.5 L -9.0,-8.75 L -9.0,-9.0" />
      <path d="M 9.0,9.0 L 8.75,9.0 L 8.5,9.0 L 8.25,9.0 L 8.0,9.0 L 7.75,9.0 L 7.5,9.0 L 7.25,9.0 L 7.0,9.0 L 6.75,9.0 L 6.5,9.0 L 6.25,9.0 L 6.0,9.0 L 5.75,9.0 L 5.5,9.0 L 5.25,9.0 L 5.0,9.0 L 4.75,9.0 L 4.5,9.0 L 4.25,9.0 L 4.0,9.0 L 3.75,9.0 L 3.5,9.0 L 3.25,9.0 L 3.0,9.0 L 2.75,9.0 L 2.5,9.0 L 2.25,9.0 L 2.0,9.0 L 1.75,9.0 L 1.5,9.0 L 1.25,9.0 L 1.0,9.0 L 0.75,9.0 L 0.5,9.0 L 0.25,9.0 L 0.0,9.0 L -0.25,9.0 L -0.5,9.0 L -0.75,9.0 L -1.0,9.0 L -1.25,9.0 L -1.5,9.0 L -1.75,9.0 L -2.0,9.0 L -2.25,9.0 L -2.5,9.0 L -2.75,9.0 L -3.0,9.0 L -3.25,9.0 L -3.5,9.0 L -3.75,9.0 L -4.0,9.0 L -4.25,9.0 L -4.5,9.0 L -4.75,9.0 L -5.0,9.0 L -5.25,9.0 L -5.5,9.0 L -5.75,9.0 L -6.0,9.0 L -6.25,9.0 L -6.5,9.0 L -6.75,9.0 L -7.0,9.0 L -7.25,9.0 L -7.5,9.0 L -7.75,9.0 L -8.0,9.0 L -8.25,9.0 L -8.5,9.0 L -8.75,9.0 L -9.0,9.0" />
      <path d="M -9.0,-9.0 L -8.75,-9.0 L -8.5,-9.0 L -8.25,-9.0 L -8.0,-9.0 L -7.75,-9.0 L -7.5,-9.0 L -7.25,-9.0 L -7.0,-9.0 L -6.75,-9.0 L -6.5,-9.0 L -6.25,-9.0 L -6.0,-9.0 L -5.75,-9.0 L -5.5,-9.0 L -5.25,-9.0 L -5.0,-9.0 L -4.75,-9.0 L -4.5,-9.0 L -4.25,-9.0 L -4.0,-9.0 L -3.75,-9.0 L -3.5,-9.0 L -3.25,-9.0 L -3.0,-9.0 L -2.75,-9.0 L -2.5,-9.0 L -2.25,-9.0 L -2.0,-9.0 L -1.75,-9.0 L -1.5,-9.0 L -1.25,-9.0 L -1.0,-9.0 L -0.75,-9.0 L -0.5,-9.0 L -0.25,-9.0 L 0.0,-9.0 L 0.25,-9.0 L 0.5,-9.0 L 0.75,-9.0 L 1.0,-9.0 L 1.25,-9.0 L 1.5,-9.0 L 1.75,-9.0 L 2.0,-9.0 L 2.25,-9.0 L 2.5,-9.0 L 2.75,-9.0 L 3.0,-9.0 L 3.25,-9.0 L 3.5,-9.0 L 3.75,-9.0 L 4.0,-9.0 L 4.25,-9.0 L 4.5,-9.0 L 4.75,-9.0 L 5.0,-9.0 L 5.25,-9.0 L 5.5,-9.0 L 5.75,-9.0 L 6.0,-9.0 L 6.25,-9.0 L 6.5,-9.0 L 6.75,-9.0 L 7.0,-9.0 L 7.25,-9.0 L 7.5,-9.0 L 7.75,-9.0 L 8.0,-9.0 L 8.25,-9.0 L 8.5,-9.0 L 8.75,-9.0 L 9.0,-9.0" />
      <path d="M 9.0,-9.0 L 9.0,-8.75 L 9.0,-8.5 L 9.0,-8.25 L 9.0,-8.0 L 9.0,-7.75 L 9.0,-7.5 L 9.0,-7.25 L 9.0,-7.0 L 9.0,-6.75 L 9.0,-6.5 L 9.0,-6.25 L 9.0,-6.0 L 9.0,-5.75 L 9.0,-5.5 L 9.0,-5.25 L 9.0,-5.0 L 9.0,-4.75 L 9.0,-4.5 L 9.0,-4.25 L 9.0,-4.0 L 9.0,-3.75 L 9.0,-3.5 L 9.0,-3.25 L 9.0,-3.0 L 9.0,-2.75 L 9.0,-2.5 L 9.0,-2.25 L 9.0,-2.0 L 9.0,-1.75 L 9.0,-1.5 L 9.0,-1.25 L 9.0,-1.0 L 9.0,-0.75 L 9.0,-0.5 L 9.0,-0.25 L 9.0,0.0 L 9.0,0.25 L 9.0,0.5 L 9.0,0.75 L 9.0,1.0 L 9.0,1.25 L 9.0,1.5 L 9.0,1.75 L 9.0,2.0 L 9.0,2.25 L 9.0,2.5 L 9.0,2.75 L 9.0,3.0 L 9.0,3.25 L 9.0,3.5 L 9.0,3.75 L 9.0,4.0 L 9.0,4.25 L 9.0,4.5 L 9.0,4.75 L 9.0,5.0 L 9.0,5.25 L 9.0,5.5 L 9.0,5.75 L 9.0,6.0 L 9.0,6.25 L 9.0,6.5 L 9.0,6.75 L 9.0,7.0 L 9.0,7.25 L 9.0,7.5 L 9.0,7.75 L 9.0,8.0 L 9.0,8.25 L 9.0,8.5 L 9.0,8.75 L 9.0,9.0" />
      <path d="M 0.0,5.05 L -0.4401,5.0308 L -0.8769,4.9733 L -1.307,4.8779 L -1.7272,4.7454 L -2.1342,4.5769 L -2.525,4.3734 L -2.8966,4.1367 L -3.2461,3.8685 L -3.5709,3.5709 L -3.8685,3.2461 L -4.1367,2.8966 L -4.3734,2.525 L -4.5769,2.1342 L -4.7454,1.7272 L -4.8779,1.307 L -4.9733,0.8769 L -5.0308,0.4401 L -5.05,-0.0 L -5.0308,-0.4401 L -4.9733,-0.8769 L -4.8779,-1.307 L -4.7454,-1.7272 L -4.5769,-2.1342 L -4.3734,-2.525 L -4.1367,-2.8966 L -3.8685,-3.2461 L -3.5709,-3.5709 L -3.2461,-3.8685 L -2.8966,-4.1367 L -2.525,-4.3734 L -2.1342,-4.5769 L -1.7272,-4.7454 L -1.307,-4.8779 L -0.8769,-4.9733 L -0.4401,-5.0308 L 0.0,-5.05 L 0.4401,-5.0308 L 0.8769,-4.9733 L 1.307,-4.8779 L 1.7272,-4.7454 L 2.1342,-4.5769 L 2.525,-4.3734 L 2.8966,-4.1367 L 3.2461,-3.8685 L 3.5709,-3.5709 L 3.8685,-3.2461 L 4.1367,-2.8966 L 4.3734,-2.525 L 4.5769,-2.1342 L 4.7454,-1.7272 L 4.8779,-1.307 L 4.9733,-0.8769 L 5.0308,-0.4401 L 5.05,0.0 L 5.0308,0.4401 L 4.9733,0.8769 L 4.8779,1.307 L 4.7454,1.7272 L 4.5769,2.1342 L 4.3734,2.525 L 4.1367,2.8966 L 3.8685,3.2461 L 3.5709,3.5709 L 3.2461,3.8685 L 2.8966,4.1367 L 2.525,4.3734 L 2.1342,4.5769 L 1.7272,4.7454 L 1.307,4.8779 L 0.8769,4.9733 L 0.4401,5.0308 L -0.0,5.05" />
      <path d="M 23.0883,-9.0 L 22.9794,-9.0 L 22.8704,-9.0 L 22.7614,-9.0 L 22.6524,-9.0 L 22.5434,-9.0 L 22.4344,-9.0 L 22.3254,-9.0 L 22.2164,-9.0 L 22.1074,-9.0 L 21.9984,-9.0 L 21.8894,-9.0 L 21.7804,-9.0 L 21.6714,-9.0 L 21.5624,-9.0 L 21.4534,-9.0 L 21.3444,-9.0 L 21.2354,-9.0 L 21.1264,-9.0 L 21.0175,-9.0 L 20.9085,-9.0 L 20.7995,-9.0 L 20.6905,-9.0 L 20.5815,-9.0 L 20.4725,-9.0 L 20.3635,-9.0 L 20.2545,-9.0 L 20.1455,-9.0 L 20.0365,-9.0 L 19.9275,-9.0 L 19.8185,-9.0 L 19.7095,-9.0 L 19.6005,-9.0 L 19.4915,-9.0 L 19.3825,-9.0 L 19.2735,-9.0 L 19.1646,-9.0 L 19.0556,-9.0 L 18.9466,-9.0 L 18.8376,-9.0 L 18.7286,-9.0 L 18.6196,-9.0 L 18.5106,-9.0 L 18.4016,-9.0 L 18.2926,-9.0 L 18.1836,-9.0 L 18.0746,-9.0 L 17.9656,-9.0 L 17.8566,-9.0 L 17.7476,-9.0 L 17.6386,-9.0 L 17.5296,-9.0 L 17.4206,-9.0 L 17.3116,-9.0 L 17.2027,-9.0 L 17.0937,-9.0 L 16.9847,-9.0 L 16.8757,-9.0 L 16.7667,-9.0 L 16.6577,-9.0 L 16.5487,-9.0 L 16.4397,-9.0 L 16.3307,-9.0 L 16.2217,-9.0 L 16.1127,-9.0 L 16.0037,-9.0 L 15.8947,-9.0 L 15.7857,-9.0 L 15.6767,-9.0 L 15.5677,-9.0 L 15.4587,-9.0 L 15.3498,-9.0 L 15.2408,-9.0" />
      <path d="M 15.2408,-9.0 L 15.1928,-8.8799 L 15.1449,-8.7597 L 15.097,-8.6396 L 15.049,-8.5194 L 15.0011,-8.3993 L 14.9532,-8.2792 L 14.9062,-8.1586 L 14.8604,-8.0377 L 14.8145,-7.9167 L 14.7687,-7.7958 L 14.7228,-7.6748 L 14.677,-7.5539 L 14.6317,-7.4327 L 14.5882,-7.3109 L 14.5446,-7.1891 L 14.501,-7.0673 L 14.4575,-6.9455 L 14.4139,-6.8237 L 14.3712,-6.7016 L 14.3302,-6.579 L 14.2892,-6.4563 L 14.2482,-6.3336 L 14.2072,-6.2109 L 14.1662,-6.0883 L 14.127,-5.965 L 14.0888,-5.8414 L 14.0506,-5.7178 L 14.0124,-5.5943 L 13.9742,-5.4707 L 13.9367,-5.3469 L 13.9015,-5.2224 L 13.8664,-5.0979 L 13.8312,-4.9735 L 13.796,-4.849 L 13.7609,-4.7245 L 13.7291,-4.5991 L 13.6972,-4.4738 L 13.6654,-4.3484 L 13.6336,-4.223 L 13.6017,-4.0977 L 13.5734,-3.9714 L 13.5451,-3.8452 L 13.5169,-3.719 L 13.4886,-3.5928 L 13.4608,-3.4665 L 13.4364,-3.3394 L 13.4119,-3.2124 L 13.3875,-3.0854 L 13.3631,-2.9584 L 13.3402,-2.8311 L 13.3199,-2.7033 L 13.2995,-2.5756 L 13.2792,-2.4479 L 13.2588,-2.3201 L 13.2418,-2.1919 L 13.2257,-2.0636 L 13.2096,-1.9352 L 13.1936,-1.8069 L 13.1786,-1.6784 L 13.167,-1.5496 L 13.1554,-1.4208 L 13.1437,-1.2919 L 13.1321,-1.1631 L 13.1242,-1.034 L 13.1171,-0.9049 L 13.1101,-0.7757 L 13.1031,-0.6465 L 13.0979,-0.5173 L 13.0955,-0.388 L 13.0932,-0.2587 L 13.0908,-0.1293 L 13.0885,0.0" />
      <path d="M 13.0885,0.0 L 13.0908,0.1293 L 13.0932,0.2587 L 13.0955,0.388 L 13.0979,0.5173 L 13.1031,0.6465 L 13.1101,0.7757 L 13.1171,0.9049 L 13.1242,1.034 L 13.1321,1.1631 L 13.1437,1.2919 L 13.1554,1.4208 L 13.167,1.5496 L 13.1786,1.6784 L 13.1936,1.8069 L 13.2096,1.9352 L 13.2257,2.0636 L 13.2418,2.1919 L 13.2588,2.3201 L 13.2792,2.4479 L 13.2995,2.5756 L 13.3199,2.7033 L 13.3402,2.8311 L 13.3631,2.9584 L 13.3875,3.0854 L 13.4119,3.2124 L 13.4364,3.3394 L 13.4608,3.4665 L 13.4886,3.5928 L 13.5169,3.719 L 13.5451,3.8452 L 13.5734,3.9714 L 13.6017,4.0977 L 13.6336,4.223 L 13.6654,4.3484 L 13.6972,4.4738 L 13.7291,4.5991 L 13.7609,4.7245 L 13.796,4.849 L 13.8312,4.9735 L 13.8664,5.0979 L 13.9015,5.2224 L 13.9367,5.3469 L 13.9742,5.4707 L 14.0124,5.5943 L 14.0506,5.7178 L 14.0888,5.8414 L 14.127,5.965 L 14.1662,6.0883 L 14.2072,6.2109 L 14.2482,6.3336 L 14.2892,6.4563 L 14.3302,6.579 L 14.3712,6.7016 L 14.4139,6.8237 L 14.4575,6.9455 L 14.501,7.0673 L 14.5446,7.1891 L 14.5882,7.3109 L 14.6317,7.4327 L 14.677,7.5539 L 14.7228,7.6748 L 14.7687,7.7958 L 14.8145,7.9167 L 14.8604,8.0377 L 14.9062,8.1586 L 14.9532,8.2792 L 15.0011,8.3993 L 15.049,8.5194 L 15.097,8.6396 L 15.1449,8.7597 L 15.1928,8.8799 L 15.2408,9.0" />
      <path d="M 23.0883,9.0 L 22.9794,9.0 L 22.8704,9.0 L 22.7614,9.0 L 22.6524,9.0 L 22.5434,9.0 L 22.4344,9.0 L 22.3254,9.0 L 22.2164,9.0 L 22.1074,9.0 L 21.9984,9.0 L 21.8894,9.0 L 21.7804,9.0 L 21.6714,9.0 L 21.5624,9.0 L 21.4534,9.0 L 21.3444,9.0 L 21.2354,9.0 L 21.1264,9.0 L 21.0175,9.0 L 20.9085,9.0 L 20.7995,9.0 L 20.6905,9.0 L 20.5815,9.0 L 20.4725,9.0 L 20.3635,9.0 L 20.2545,9.0 L 20.1455,9.0 L 20.0365,9.0 L 19.9275,9.0 L 19.8185,9.0 L 19.7095,9.0 L 19.6005,9.0 L 19.4915,9.0 L 19.3825,9.0 L 19.2735,9.0 L 19.1646,9.0 L 19.0556,9.0 L 18.9466,9.0 L 18.8376,9.0 L 18.7286,9.0 L 18.6196,9.0 L 18.5106,9.0 L 18.4016,9.0 L 18.2926,9.0 L 18.1836,9.0 L 18.0746,9.0 L 17.9656,9.0 L 17.8566,9.0 L 17.7476,9.0 L 17.6386,9.0 L 17.5296,9.0 L 17.4206,9.0 L 17.3116,9.0 L 17.2027,9.0 L 17.0937,9.0 L 16.9847,9.0 L 16.8757,9.0 L 16.7667,9.0 L 16.6577,9.0 L 16.5487,9.0 L 16.4397,9.0 L 16.3307,9.0 L 16.2217,9.0 L 16.1127,9.0 L 16.0037,9.0 L 15.8947,9.0 L 15.7857,9.0 L 15.6767,9.0 L 15.5677,9.0 L 15.4587,9.0 L 15.3498,9.0 L 15.2408,9.0" />
      <path d="M 13.044,-9.0 L 13.0441,-9.0 L 13.0442,-9.0" />
      <path d="M 13.0442,-9.0 L 13.0747,-9.0 L 13.1052,-9.0 L 13.1358,-9.0 L 13.1663,-9.0 L 13.1968,-9.0 L 13.2273,-9.0 L 13.2578,-9.0 L 13.2883,-9.0 L 13.3188,-9.0 L 13.3493,-9.0 L 13.3798,-9.0 L 13.4103,-9.0 L 13.4408,-9.0 L 13.4713,-9.0 L 13.5018,-9.0 L 13.5324,-9.0 L 13.5629,-9.0 L 13.5934,-9.0 L 13.6239,-9.0 L 13.6544,-9.0 L 13.6849,-9.0 L 13.7154,-9.0 L 13.7459,-9.0 L 13.7764,-9.0 L 13.8069,-9.0 L 13.8374,-9.0 L 13.8679,-9.0 L 13.8984,-9.0 L 13.9289,-9.0 L 13.9595,-9.0 L 13.99,-9.0 L 14.0205,-9.0 L 14.051,-9.0 L 14.0815,-9.0 L 14.112,-9.0 L 14.1425,-9.0 L 14.173,-9.0 L 14.2035,-9.0 L 14.234,-9.0 L 14.2645,-9.0 L 14.295,-9.0 L 14.3255,-9.0 L 14.356,-9.0 L 14.3866,-9.0 L 14.4171,-9.0 L 14.4476,-9.0 L 14.4781,-9.0 L 14.5086,-9.0 L 14.5391,-9.0 L 14.5696,-9.0 L 14.6001,-9.0 L 14.6306,-9.0 L 14.6611,-9.0 L 14.6916,-9.0 L 14.7221,-9.0 L 14.7526,-9.0 L 14.7831,-9.0 L 14.8137,-9.0 L 14.8442,-9.0 L 14.8747,-9.0 L 14.9052,-9.0 L 14.9357,-9.0 L 14.9662,-9.0 L 14.9967,-9.0 L 15.0272,-9.0 L 15.0577,-9.0 L 15.0882,-9.0 L 15.1187,-9.0 L 15.1492,-9.0 L 15.1797,-9.0 L 15.2103,-9.0 L 15.2408,-9.0" />
      <path d="M 13.0885,-0.0 L 13.0885,-0.125 L 13.0884,-0.25 L 13.0884,-0.375 L 13.0884,-0.5 L 13.0884,-0.625 L 13.0883,-0.75 L 13.0883,-0.8751 L 13.0882,-1.0001 L 13.0881,-1.1251 L 13.088,-1.2501 L 13.0879,-1.3751 L 13.0878,-1.5001 L 13.0877,-1.6251 L 13.0876,-1.7501 L 13.0875,-1.8751 L 13.0874,-2.0001 L 13.0872,-2.1251 L 13.0871,-2.2501 L 13.0869,-2.3751 L 13.0867,-2.5002 L 13.0865,-2.6252 L 13.0864,-2.7502 L 13.0861,-2.8752 L 13.0859,-3.0002 L 13.0857,-3.1252 L 13.0855,-3.2502 L 13.0852,-3.3752 L 13.085,-3.5002 L 13.0847,-3.6252 L 13.0844,-3.7502 L 13.0842,-3.8752 L 13.0839,-4.0002 L 13.0835,-4.1252 L 13.0832,-4.2503 L 13.0829,-4.3753 L 13.0825,-4.5003 L 13.0822,-4.6253 L 13.0818,-4.7503 L 13.0814,-4.8753 L 13.081,-5.0003 L 13.0806,-5.1253 L 13.0802,-5.2503 L 13.0797,-5.3753 L 13.0792,-5.5003 L 13.0788,-5.6253 L 13.0783,-5.7503 L 13.0777,-5.8753 L 13.0772,-6.0004 L 13.0766,-6.1254 L 13.0761,-6.2504 L 13.0755,-6.3754 L 13.0748,-6.5004 L 13.0742,-6.6254 L 13.0735,-6.7504 L 13.0728,-6.8754 L 13.072,-7.0004 L 13.0713,-7.1254 L 13.0704,-7.2504 L 13.0696,-7.3754 L 13.0687,-7.5004 L 13.0677,-7.6254 L 13.0667,-7.7504 L 13.0656,-7.8754 L 13.0645,-8.0004 L 13.0633,-8.1254 L 13.0619,-8.2504 L 13.0604,-8.3754 L 13.0588,-8.5004 L 13.0569,-8.6254 L 13.0546,-8.7504 L 13.0516,-8.8754 L 13.0442,-9.0" />
      <path d="M 15.2408,9.0 L 15.2103,9.0 L 15.1797,9.0 L 15.1492,9.0 L 15.1187,9.0 L 15.0882,9.0 L 15.0577,9.0 L 15.0272,9.0 L 14.9967,9.0 L 14.9662,9.0 L 14.9357,9.0 L 14.9052,9.0 L 14.8747,9.0 L 14.8442,9.0 L 14.8137,9.0 L 14.7831,9.0 L 14.7526,9.0 L 14.7221,9.0 L 14.6916,9.0 L 14.6611,9.0 L 14.6306,9.0 L 14.6001,9.0 L 14.5696,9.0 L 14.5391,9.0 L 14.5086,9.0 L 14.4781,9.0 L 14.4476,9.0 L 14.4171,9.0 L 14.3866,9.0 L 14.356,9.0 L 14.3255,9.0 L 14.295,9.0 L 14.2645,9.0 L 14.234,9.0 L 14.2035,9.0 L 14.173,9.0 L 14.1425,9.0 L 14.112,9.0 L 14.0815,9.0 L 14.051,9.0 L 14.0205,9.0 L 13.99,9.0 L 13.9595,9.0 L 13.9289,9.0 L 13.8984,9.0 L 13.8679,9.0 L 13.8374,9.0 L 13.8069,9.0 L 13.7764,9.0 L 13.7459,9.0 L 13.7154,9.0 L 13.6849,9.0 L 13.6544,9.0 L 13.6239,9.0 L 13.5934,9.0 L 13.5629,9.0 L 13.5324,9.0 L 13.5018,9.0 L 13.4713,9.0 L 13.4408,9.0 L 13.4103,9.0 L 13.3798,9.0 L 13.3493,9.0 L 13.3188,9.0 L 13.2883,9.0 L 13.2578,9.0 L 13.2273,9.0 L 13.1968,9.0 L 13.1663,9.0 L 13.1358,9.0 L 13.1052,9.0 L 13.0747,9.0 L 13.0442,9.0" />
      <path d="M 13.0442,9.0 L 13.0516,8.8755 L 13.0546,8.7505 L 13.0569,8.6255 L 13.0588,8.5005 L 13.0604,8.3755 L 13.0619,8.2505 L 13.0633,8.1255 L 13.0645,8.0005 L 13.0656,7.8755 L 13.0667,7.7505 L 13.0677,7.6255 L 13.0687,7.5005 L 13.0696,7.3755 L 13.0704,7.2505 L 13.0713,7.1255 L 13.072,7.0005 L 13.0728,6.8755 L 13.0735,6.7505 L 13.0742,6.6255 L 13.0748,6.5004 L 13.0755,6.3754 L 13.0761,6.2504 L 13.0766,6.1254 L 13.0772,6.0004 L 13.0777,5.8754 L 13.0783,5.7504 L 13.0788,5.6254 L 13.0792,5.5004 L 13.0797,5.3754 L 13.0802,5.2504 L 13.0806,5.1254 L 13.081,5.0003 L 13.0814,4.8753 L 13.0818,4.7503 L 13.0822,4.6253 L 13.0825,4.5003 L 13.0829,4.3753 L 13.0832,4.2503 L 13.0835,4.1253 L 13.0839,4.0003 L 13.0842,3.8753 L 13.0844,3.7503 L 13.0847,3.6252 L 13.085,3.5002 L 13.0852,3.3752 L 13.0855,3.2502 L 13.0857,3.1252 L 13.0859,3.0002 L 13.0861,2.8752 L 13.0864,2.7502 L 13.0865,2.6252 L 13.0867,2.5002 L 13.0869,2.3752 L 13.0871,2.2502 L 13.0872,2.1251 L 13.0874,2.0001 L 13.0875,1.8751 L 13.0876,1.7501 L 13.0877,1.6251 L 13.0878,1.5001 L 13.0879,1.3751 L 13.088,1.2501 L 13.0881,1.1251 L 13.0882,1.0001 L 13.0883,0.8751 L 13.0883,0.7501 L 13.0884,0.625 L 13.0884,0.5 L 13.0884,0.375 L 13.0884,0.25 L 13.0885,0.125 L 13.0885,0.0" />
      <path d="M 13.0442,9.0 L 13.0441,9.0 L 13.044,9.0" />
      <path d="M 13.0442,5.05 L 13.05,4.91 L 13.0524,4.7698 L 13.0541,4.6295 L 13.0556,4.4892 L 13.0568,4.3489 L 13.058,4.2086 L 13.0589,4.0683 L 13.0598,3.9281 L 13.0606,3.7878 L 13.0614,3.6475 L 13.0621,3.5072 L 13.0627,3.3669 L 13.0633,3.2266 L 13.0639,3.0863 L 13.0644,2.9461 L 13.0649,2.8058 L 13.0653,2.6655 L 13.0657,2.5252 L 13.0661,2.3849 L 13.0665,2.2446 L 13.0668,2.1043 L 13.0671,1.964 L 13.0674,1.8238 L 13.0676,1.6835 L 13.0679,1.5432 L 13.0681,1.4029 L 13.0683,1.2626 L 13.0684,1.1223 L 13.0686,0.982 L 13.0687,0.8418 L 13.0688,0.7015 L 13.0689,0.5612 L 13.069,0.4209 L 13.069,0.2806 L 13.069,0.1403 L 13.0691,-0.0 L 13.069,-0.1402 L 13.069,-0.2805 L 13.069,-0.4208 L 13.0689,-0.5611 L 13.0688,-0.7014 L 13.0687,-0.8417 L 13.0686,-0.982 L 13.0684,-1.1222 L 13.0683,-1.2625 L 13.0681,-1.4028 L 13.0679,-1.5431 L 13.0676,-1.6834 L 13.0674,-1.8237 L 13.0671,-1.964 L 13.0668,-2.1043 L 13.0665,-2.2445 L 13.0661,-2.3848 L 13.0657,-2.5251 L 13.0653,-2.6654 L 13.0649,-2.8057 L 13.0644,-2.946 L 13.0639,-3.0862 L 13.0633,-3.2265 L 13.0627,-3.3668 L 13.0621,-3.5071 L 13.0614,-3.6474 L 13.0606,-3.7877 L 13.0598,-3.928 L 13.0589,-4.0682 L 13.058,-4.2085 L 13.0569,-4.3488 L 13.0556,-4.4891 L 13.0542,-4.6294 L 13.0524,-4.7696 L 13.05,-4.9099 L 13.0442,-5.05" />
      <path d="M 13.0442,-5.05 L 13.0384,-4.91 L 13.0361,-4.7698 L 13.0343,-4.6295 L 13.0329,-4.4892 L 13.0316,-4.3489 L 13.0305,-4.2086 L 13.0295,-4.0683 L 13.0286,-3.9281 L 13.0278,-3.7878 L 13.0271,-3.6475 L 13.0264,-3.5072 L 13.0257,-3.3669 L 13.0251,-3.2266 L 13.0246,-3.0863 L 13.0241,-2.9461 L 13.0236,-2.8058 L 13.0232,-2.6655 L 13.0227,-2.5252 L 13.0224,-2.3849 L 13.022,-2.2446 L 13.0217,-2.1043 L 13.0214,-1.964 L 13.0211,-1.8238 L 13.0208,-1.6835 L 13.0206,-1.5432 L 13.0204,-1.4029 L 13.0202,-1.2626 L 13.02,-1.1223 L 13.0199,-0.982 L 13.0198,-0.8418 L 13.0197,-0.7015 L 13.0196,-0.5612 L 13.0195,-0.4209 L 13.0195,-0.2806 L 13.0194,-0.1403 L 13.0194,0.0 L 13.0194,0.1402 L 13.0195,0.2805 L 13.0195,0.4208 L 13.0196,0.5611 L 13.0197,0.7014 L 13.0198,0.8417 L 13.0199,0.982 L 13.02,1.1222 L 13.0202,1.2625 L 13.0204,1.4028 L 13.0206,1.5431 L 13.0208,1.6834 L 13.0211,1.8237 L 13.0214,1.964 L 13.0217,2.1043 L 13.022,2.2445 L 13.0224,2.3848 L 13.0227,2.5251 L 13.0232,2.6654 L 13.0236,2.8057 L 13.0241,2.946 L 13.0246,3.0862 L 13.0251,3.2265 L 13.0257,3.3668 L 13.0264,3.5071 L 13.0271,3.6474 L 13.0278,3.7877 L 13.0286,3.928 L 13.0295,4.0682 L 13.0305,4.2085 L 13.0316,4.3488 L 13.0329,4.4891 L 13.0343,4.6294 L 13.0361,4.7696 L 13.0384,4.9099 L 13.0442,5.05" />
      <path d="M 23.0441,5.05 L 22.9052,5.05 L 22.7663,5.05 L 22.6275,5.05 L 22.4886,5.05 L 22.3497,5.05 L 22.2108,5.05 L 22.0719,5.05 L 21.933,5.05 L 21.7941,5.05 L 21.6552,5.05 L 21.5164,5.05 L 21.3775,5.05 L 21.2386,5.05 L 21.0997,5.05 L 20.9608,5.05 L 20.8219,5.05 L 20.683,5.05 L 20.5441,5.05 L 20.4053,5.05 L 20.2664,5.05 L 20.1275,5.05 L 19.9886,5.05 L 19.8497,5.05 L 19.7108,5.05 L 19.5719,5.05 L 19.433,5.05 L 19.2942,5.05 L 19.1553,5.05 L 19.0164,5.05 L 18.8775,5.05 L 18.7386,5.05 L 18.5997,5.05 L 18.4608,5.05 L 18.3219,5.05 L 18.1831,5.05 L 18.0442,5.05 L 17.9053,5.05 L 17.7664,5.05 L 17.6275,5.05 L 17.4886,5.05 L 17.3497,5.05 L 17.2108,5.05 L 17.072,5.05 L 16.9331,5.05 L 16.7942,5.05 L 16.6553,5.05 L 16.5164,5.05 L 16.3775,5.05 L 16.2386,5.05 L 16.0998,5.05 L 15.9609,5.05 L 15.822,5.05 L 15.6831,5.05 L 15.5442,5.05 L 15.4053,5.05 L 15.2664,5.05 L 15.1275,5.05 L 14.9887,5.05 L 14.8498,5.05 L 14.7109,5.05 L 14.572,5.05 L 14.4331,5.05 L 14.2942,5.05 L 14.1553,5.05 L 14.0164,5.05 L 13.8776,5.05 L 13.7387,5.05 L 13.5998,5.05 L 13.4609,5.05 L 13.322,5.05 L 13.1831,5.05 L 13.0442,5.05" />
      <path d="M 13.0442,-9.0 L 13.0441,-9.0 L 13.0441,-8.9999 L 13.044,-8.9999 L 13.044,-8.9998 L 13.0439,-8.9998 L 13.0439,-8.9997" />
      <path d="M 13.0439,8.9997 L 13.0439,8.9998 L 13.044,8.9998 L 13.044,8.9999 L 13.0441,8.9999 L 13.0441,9.0 L 13.0442,9.0" />
      <path d="M 23.0441,-5.05 L 22.9052,-5.05 L 22.7663,-5.05 L 22.6275,-5.05 L 22.4886,-5.05 L 22.3497,-5.05 L 22.2108,-5.05 L 22.0719,-5.05 L 21.933,-5.05 L 21.7941,-5.05 L 21.6552,-5.05 L 21.5164,-5.05 L 21.3775,-5.05 L 21.2386,-5.05 L 21.0997,-5.05 L 20.9608,-5.05 L 20.8219,-5.05 L 20.683,-5.05 L 20.5441,-5.05 L 20.4053,-5.05 L 20.2664,-5.05 L 20.1275,-5.05 L 19.9886,-5.05 L 19.8497,-5.05 L 19.7108,-5.05 L 19.5719,-5.05 L 19.433,-5.05 L 19.2942,-5.05 L 19.1553,-5.05 L 19.0164,-5.05 L 18.8775,-5.05 L 18.7386,-5.05 L 18.5997,-5.05 L 18.4608,-5.05 L 18.3219,-5.05 L 18.1831,-5.05 L 18.0442,-5.05 L 17.9053,-5.05 L 17.7664,-5.05 L 17.6275,-5.05 L 17.4886,-5.05 L 17.3497,-5.05 L 17.2108,-5.05 L 17.072,-5.05 L 16.9331,-5.05 L 16.7942,-5.05 L 16.6553,-5.05 L 16.5164,-5.05 L 16.3775,-5.05 L 16.2386,-5.05 L 16.0998,-5.05 L 15.9609,-5.05 L 15.822,-5.05 L 15.6831,-5.05 L 15.5442,-5.05 L 15.4053,-5.05 L 15.2664,-5.05 L 15.1275,-5.05 L 14.9887,-5.05 L 14.8498,-5.05 L 14.7109,-5.05 L 14.572,-5.05 L 14.4331,-5.05 L 14.2942,-5.05 L 14.1553,-5.05 L 14.0164,-5.05 L 13.8776,-5.05 L 13.7387,-5.05 L 13.5998,-5.05 L 13.4609,-5.05 L 13.322,-5.05 L 13.1831,-5.05 L 13.0442,-5.05" />
    </g>
    <g fill="none" stroke="rgb(0,0,0)" stroke-width="0.2" id="Center" stroke-dasharray="6.35 1.27 1.27 1.27">
      <line x1="0.0" y1="-0.0" x2="-10.5" y2="-0.0" />
      <line x1="0.0" y1="-0.0" x2="10.5" y2="-0.0" />
      <line x1="0.0" y1="-0.0" x2="0.0" y2="-10.5" />
      <line x1="0.0" y1="-0.0" x2="0.0" y2="10.5" />
      <line x1="18.0442" y1="-0.0" x2="11.5" y2="-0.0" />
      <line x1="18.0442" y1="-0.0" x2="24.5883" y2="-0.0" />
    </g>
  </g>
</svg>