<?xml version='1.0' encoding='utf-8'?>
<svg width="42.7644mm" height="28.76mm" viewBox="-14.38 -14.38 42.7644 28.76" version="1.1" xmlns="http://www.w3.org/2000/svg">
  <g transform="scale(1,-1)" stroke-linecap="round">
    <g fill="none" stroke="rgb(0,0,0)" stroke-width="0.4" id="Visible">
      <path d="M -2.0,10.3078 L -2.3933,10.2236 L -2.7831,10.1244 L -3.1689,10.0104 L -3.5499,9.8817 L -3.9258,9.7385 L -4.2959,9.581 L -4.6597,9.4094 L -5.0167,9.224 L -5.3663,9.0251 L -5.708,8.813 L -6.0414,8.5879 L -6.3658,8.3502 L -6.681,8.1003 L -6.9863,7.8384 L -7.2814,7.5651 L -7.5658,7.2807 L -7.8391,6.9856 L -8.1009,6.6802 L -8.3508,6.365 L -8.5885,6.0405 L -8.8135,5.7071 L -9.0257,5.3654 L -9.2245,5.0158 L -9.4099,4.6588 L -9.5814,4.295 L -9.7389,3.9248 L -9.882,3.549 L -10.0107,3.1679 L -10.1247,2.7821 L -10.2238,2.3923 L -10.308,1.999 L -10.377,1.6027 L -10.4307,1.2041 L -10.4692,0.8037 L -10.4923,0.4022 L -10.5,-0.0 L -10.4923,-0.4022 L -10.4692,-0.8037 L -10.4307,-1.2041 L -10.377,-1.6027 L -10.308,-1.999 L -10.2238,-2.3923 L -10.1247,-2.7821 L -10.0107,-3.1679 L -9.882,-3.549 L -9.7389,-3.9248 L -9.5814,-4.295 L -9.4099,-4.6588 L -9.2245,-5.0158 L -9.0257,-5.3654 L -8.8135,-5.7071 L -8.5885,-6.0405 L -8.3508,-6.365 L -8.1009,-6.6802 L -7.8391,-6.9856 L -7.5658,-7.2807 L -7.2814,-7.5651 L -6.9863,-7.8384 L -6.681,-8.1003 L -6.3658,-8.3502 L -6.0414,-8.5879 L -5.708,-8.813 L -5.3663,-9.0251 L -5.0167,-9.224 L -4.6597,-9.4094 L -4.2959,-9.581 L -3.9258,-9.7385 L -3.5499,-9.8817 L -3.1689,-10.0104 L -2.7831,-10.1244 L -2.3933,-10.2236 L -2.0,-10.3078" />
      <path d="M -2.0,-10.3078 L -1.9451,-10.3183 L -1.8901,-10.3285 L -1.8351,-10.3384 L -1.7801,-10.348 L -1.725,-10.3573 L -1.6698,-10.3664 L -1.6146,-10.3751 L -1.5593,-10.3836 L -1.504,-10.3917 L -1.4487,-10.3996 L -1.3933,-10.4071 L -1.3379,-10.4144 L -1.2824,-10.4214 L -1.2269,-10.4281 L -1.1714,-10.4345 L -1.1158,-10.4405 L -1.0602,-10.4463 L -1.0046,-10.4518 L -0.949,-10.457 L -0.8933,-10.4619 L -0.8376,-10.4665 L -0.7818,-10.4709 L -0.7261,-10.4749 L -0.6703,-10.4786 L -0.6145,-10.482 L -0.5587,-10.4851 L -0.5029,-10.488 L -0.447,-10.4905 L -0.3912,-10.4927 L -0.3353,-10.4946 L -0.2795,-10.4963 L -0.2236,-10.4976 L -0.1677,-10.4987 L -0.1118,-10.4994 L -0.0559,-10.4999 L -0.0,-10.5 L 0.0559,-10.4999 L 0.1118,-10.4994 L 0.1677,-10.4987 L 0.2236,-10.4976 L 0.2795,-10.4963 L 0.3353,-10.4946 L 0.3912,-10.4927 L 0.447,-10.4905 L 0.5029,-10.488 L 0.5587,-10.4851 L 0.6145,-10.482 L 0.6703,-10.4786 L 0.7261,-10.4749 L 0.7818,-10.4709 L 0.8376,-10.4665 L 0.8933,-10.4619 L 0.949,-10.457 L 1.0046,-10.4518 L 1.0602,-10.4463 L 1.1158,-10.4405 L 1.1714,-10.4345 L 1.2269,-10.4281 L 1.2824,-10.4214 L 1.3379,-10.4144 L 1.3933,-10.4071 L 1.4487,-10.3996 L 1.504,-10.3917 L 1.5593,-10.3836 L 1.6146,-10.3751 L 1.6698,-10.3664 L 1.725,-10.3573 L 1.7801,-10.348 L 1.8351,-10.3384 L 1.8901,-10.3285 L 1.9451,-10.3183 L 2.0,-10.3078" />
      <path d="M 2.0,-10.3078 L 2.3933,-10.2236 L 2.7831,-10.1244 L 3.1689,-10.0104 L 3.5499,-9.8817 L 3.9258,-9.7385 L 4.2959,-9.581 L 4.6597,-9.4094 L 5.0167,-9.224 L 5.3663,-9.0251 L 5.708,-8.813 L 6.0414,-8.5879 L 6.3658,-8.3502 L 6.681,-8.1003 L 6.9863,-7.8384 L 7.2814,-7.5651 L 7.5658,-7.2807 L 7.8391,-6.9856 L 8.1009,-6.6802 L 8.3508,-6.365 L 8.5885,-6.0405 L 8.8135,-5.7071 L 9.0257,-5.3654 L 9.2245,-5.0158 L 9.4099,-4.6588 L 9.5814,-4.295 L 9.7389,-3.9248 L 9.882,-3.549 L 10.0107,-3.1679 L 10.1247,-2.7821 L 10.2238,-2.3923 L 10.308,-1.999 L 10.377,-1.6027 L 10.4307,-1.2041 L 10.4692,-0.8037 L 10.4923,-0.4022 L 10.5,0.0 L 10.4923,0.4022 L 10.4692,0.8037 L 10.4307,1.2041 L 10.377,1.6027 L 10.308,1.999 L 10.2238,2.3923 L 10.1247,2.7821 L 10.0107,3.1679 L 9.882,3.549 L 9.7389,3.9248 L 9.5814,4.295 L 9.4099,4.6588 L 9.2245,5.0158 L 9.0257,5.3654 L 8.8135,5.7071 L 8.5885,6.0405 L 8.3508,6.365 L 8.1009,6.6802 L 7.8391,6.9856 L 7.5658,7.2807 L 7.2814,7.5651 L 6.9863,7.8384 L 6.681,8.1003 L 6.3658,8.3502 L 6.0414,8.5879 L 5.708,8.813 L 5.3663,9.0251 L 5.0167,9.224 L 4.6597,9.4094 L 4.2959,9.581 L 3.9258,9.7385 L 3.5499,9.8817 L 3.1689,10.0104 L 2.7831,10.1244 L 2.3933,10.2236 L 2.0,10.3078" />
      <path d="M 2.0,10.3078 L 1.9726,10.3131 L 1.9451,10.3183 L 1.9176,10.3234 L 1.8901,10.3285 L 1.8626,10.3335 L 1.8351,10.3384 L 1.8076,10.3432 L 1.7801,10.348 L 1.7525,10.3527 L 1.725,10.3573 L 1.6974,10.3619 L 1.6698,10.3664 L 1.6422,10.3708 L 1.6146,10.3751 L 1.587,10.3794 L 1.5593,10.3836 L 1.5317,10.3877 L 1.504,10.3917 L 1.4764,10.3957 L 1.4487,10.3996 L 1.421,10.4034 L 1.3933,10.4071 L 1.3656,10.4108 L 1.3379,10.4144 L 1.3102,10.4179 L 1.2824,10.4214 L 1.2547,10.4248 L 1.2269,10.4281 L 1.1992,10.4313 L 1.1714,10.4345 L 1.1436,10.4375 L 1.1158,10.4405 L 1.088,10.4435 L 1.0602,10.4463 L 1.0324,10.4491 L 1.0046,10.4518 L 0.9768,10.4545 L 0.949,10.457 L 0.9211,10.4595 L 0.8933,10.4619 L 0.8654,10.4643 L 0.8376,10.4665 L 0.8097,10.4687 L 0.7818,10.4709 L 0.754,10.4729 L 0.7261,10.4749 L 0.6982,10.4768 L 0.6703,10.4786 L 0.6424,10.4803 L 0.6145,10.482 L 0.5866,10.4836 L 0.5587,10.4851 L 0.5308,10.4866 L 0.5029,10.488 L 0.475,10.4893 L 0.447,10.4905 L 0.4191,10.4916 L 0.3912,10.4927 L 0.3633,10.4937 L 0.3353,10.4946 L 0.3074,10.4955 L 0.2795,10.4963 L 0.2515,10.497 L 0.2236,10.4976 L 0.1956,10.4982 L 0.1677,10.4987 L 0.1397,10.4991 L 0.1118,10.4994 L 0.0838,10.4997 L 0.0559,10.4999 L 0.0279,10.5 L 0.0,10.5" />
      <path d="M 0.0,10.5 L -0.0279,10.5 L -0.0559,10.4999 L -0.0838,10.4997 L -0.1118,10.4994 L -0.1397,10.4991 L -0.1677,10.4987 L -0.1956,10.4982 L -0.2236,10.4976 L -0.2515,10.497 L -0.2795,10.4963 L -0.3074,10.4955 L -0.3353,10.4946 L -0.3633,10.4937 L -0.3912,10.4927 L -0.4191,10.4916 L -0.447,10.4905 L -0.475,10.4893 L -0.5029,10.488 L -0.5308,10.4866 L -0.5587,10.4851 L -0.5866,10.4836 L -0.6145,10.482 L -0.6424,10.4803 L -0.6703,10.4786 L -0.6982,10.4768 L -0.7261,10.4749 L -0.754,10.4729 L -0.7818,10.4709 L -0.8097,10.4687 L -0.8376,10.4665 L -0.8654,10.4643 L -0.8933,10.4619 L -0.9211,10.4595 L -0.949,10.457 L -0.9768,10.4545 L -1.0046,10.4518 L -1.0324,10.4491 L -1.0602,10.4463 L -1.088,10.4435 L -1.1158,10.4405 L -1.1436,10.4375 L -1.1714,10.4345 L -1.1992,10.4313 L -1.2269,10.4281 L -1.2547,10.4248 L -1.2824,10.4214 L -1.3102,10.4179 L -1.3379,10.4144 L -1.3656,10.4108 L -1.3933,10.4071 L -1.421,10.4034 L -1.4487,10.3996 L -1.4764,10.3957 L -1.504,10.3917 L -1.5317,10.3877 L -1.5593,10.3836 L -1.587,10.3794 L -1.6146,10.3751 L -1.6422,10.3708 L -1.6698,10.3664 L -1.6974,10.3619 L -1.725,10.3573 L -1.7525,10.3527 L -1.7801,10.348 L -1.8076,10.3432 L -1.8351,10.3384 L -1.8626,10.3335 L -1.8901,10.3285 L -1.9176,10.3234 L -1.9451,10.3183 L -1.9726,10.3131 L -2.0,10.3078" />
      <path d="M -2.0,10.3078 L -2.0,10.229 L -2.0,10.1502 L -2.0,10.0715 L -2.0,9.9927 L -2.0,9.914 L -2.0,9.8352 L -2.0,9.7564 L -2.0,9.6777 L -2.0,9.5989 L -2.0,9.5202 L -2.0,9.4414 L -2.0,9.3626 L -2.0,9.2839 L -2.0,9.2051 L -2.0,9.1264 L -2.0,9.0476 L -2.0,8.9689 L -2.0,8.8901 L -2.0,8.8113 L -2.0,8.7326 L -2.0,8.6538 L -2.0,8.5751 L -2.0,8.4963 L -2.0,8.4175 L -2.0,8.3388 L -2.0,8.26 L -2.0,8.1813 L -2.0,8.1025 L -2.0,8.0237 L -2.0,7.945 L -2.0,7.8662 L -2.0,7.7875 L -2.0,7.7087 L -2.0,7.6299 L -2.0,7.5512 L -2.0,7.4724 L -2.0,7.3937 L -2.0,7.3149 L -2.0,7.2361 L -2.0,7.1574 L -2.0,7.0786 L -2.0,6.9999 L -2.0,6.9211 L -2.0,6.8423 L -2.0,6.7636 L -2.0,6.6848 L -2.0,6.6061 L -2.0,6.5273 L -2.0,6.4485 L -2.0,6.3698 L -2.0,6.291 L -2.0,6.2123 L -2.0,6.1335 L -2.0,6.0548 L -2.0,5.976 L -2.0,5.8972 L -2.0,5.8185 L -2.0,5.7397 L -2.0,5.661 L -2.0,5.5822 L -2.0,5.5034 L -2.0,5.4247 L -2.0,5.3459 L -2.0,5.2672 L -2.0,5.1884 L -2.0,5.1096 L -2.0,5.0309 L -2.0,4.9521 L -2.0,4.8734 L -2.0,4.7946 L -2.0,4.7158 L -2.0,4.6371" />
      <path d="M -2.0,4.6371 L -2.1488,4.57 L -2.2954,4.4982 L -2.4395,4.4217 L -2.5812,4.3405 L -2.7201,4.2548 L -2.8562,4.1647 L -2.9893,4.0702 L -3.1192,3.9715 L -3.246,3.8686 L -3.3693,3.7617 L -3.4891,3.6509 L -3.6052,3.5362 L -3.7176,3.4178 L -3.8261,3.2959 L -3.9307,3.1706 L -4.0311,3.0419 L -4.1273,2.91 L -4.2192,2.7751 L -4.3066,2.6373 L -4.3896,2.4968 L -4.468,2.3536 L -4.5417,2.208 L -4.6107,2.0601 L -4.6749,1.91 L -4.7342,1.7579 L -4.7885,1.604 L -4.8378,1.4484 L -4.8821,1.2913 L -4.9213,1.1329 L -4.9553,0.9732 L -4.9842,0.8126 L -5.0079,0.6511 L -5.0263,0.4889 L -5.0395,0.3262 L -5.0474,0.1632 L -5.05,0.0 L -5.0474,-0.1632 L -5.0395,-0.3262 L -5.0263,-0.4889 L -5.0079,-0.6511 L -4.9842,-0.8126 L -4.9553,-0.9732 L -4.9213,-1.1329 L -4.8821,-1.2913 L -4.8378,-1.4484 L -4.7885,-1.604 L -4.7342,-1.7579 L -4.6749,-1.91 L -4.6107,-2.0601 L -4.5417,-2.208 L -4.468,-2.3536 L -4.3896,-2.4968 L -4.3066,-2.6373 L -4.2192,-2.7751 L -4.1273,-2.91 L -4.0311,-3.0419 L -3.9307,-3.1706 L -3.8261,-3.2959 L -3.7176,-3.4178 L -3.6052,-3.5362 L -3.4891,-3.6509 L -3.3693,-3.7617 L -3.246,-3.8686 L -3.1192,-3.9715 L -2.9893,-4.0702 L -2.8562,-4.1647 L -2.7201,-4.2548 L -2.5812,-4.3405 L -2.4395,-4.4217 L -2.2954,-4.4982 L -2.1488,-4.57 L -2.0,-4.6371" />
      <path d="M -2.0,-4.6371 L -2.0,-4.7158 L -2.0,-4.7946 L -2.0,-4.8734 L -2.0,-4.9521 L -2.0,-5.0309 L -2.0,-5.1096 L -2.0,-5.1884 L -2.0,-5.2672 L -2.0,-5.3459 L -2.0,-5.4247 L -2.0,-5.5034 L -2.0,-5.5822 L -2.0,-5.661 L -2.0,-5.7397 L -2.0,-5.8185 L -2.0,-5.8972 L -2.0,-5.976 L -2.0,-6.0548 L -2.0,-6.1335 L -2.0,-6.2123 L -2.0,-6.291 L -2.0,-6.3698 L -2.0,-6.4485 L -2.0,-6.5273 L -2.0,-6.6061 L -2.0,-6.6848 L -2.0,-6.7636 L -2.0,-6.8423 L -2.0,-6.9211 L -2.0,-6.9999 L -2.0,-7.0786 L -2.0,-7.1574 L -2.0,-7.2361 L -2.0,-7.3149 L -2.0,-7.3937 L -2.0,-7.4724 L -2.0,-7.5512 L -2.0,-7.6299 L -2.0,-7.7087 L -2.0,-7.7875 L -2.0,-7.8662 L -2.0,-7.945 L -2.0,-8.0237 L -2.0,-8.1025 L -2.0,-8.1813 L -2.0,-8.26 L -2.0,-8.3388 L -2.0,-8.4175 L -2.0,-8.4963 L -2.0,-8.5751 L -2.0,-8.6538 L -2.0,-8.7326 L -2.0,-8.8113 L -2.0,-8.8901 L -2.0,-8.9689 L -2.0,-9.0476 L -2.0,-9.1264 L -2.0,-9.2051 L -2.0,-9.2839 L -2.0,-9.3626 L -2.0,-9.4414 L -2.0,-9.5202 L -2.0,-9.5989 L -2.0,-9.6777 L -2.0,-9.7564 L -2.0,-9.8352 L -2.0,-9.914 L -2.0,-9.9927 L -2.0,-10.0715 L -2.0,-10.1502 L -2.0,-10.229 L -2.0,-10.3078" />
      <path d="M -2.0,-4.6371 L -1.9474,-4.6594 L -1.8946,-4.6811 L -1.8415,-4.7023 L -1.7882,-4.7228 L -1.7347,-4.7427 L -1.6809,-4.762 L -1.627,-4.7807 L -1.5728,-4.7988 L -1.5184,-4.8163 L -1.4638,-4.8332 L -1.4091,-4.8494 L -1.3541,-4.8651 L -1.299,-4.8801 L -1.2437,-4.8944 L -1.1883,-4.9082 L -1.1327,-4.9213 L -1.077,-4.9338 L -1.0211,-4.9457 L -0.9651,-4.9569 L -0.909,-4.9675 L -0.8527,-4.9775 L -0.7964,-4.9868 L -0.7399,-4.9955 L -0.6834,-5.0036 L -0.6267,-5.011 L -0.57,-5.0177 L -0.5132,-5.0239 L -0.4563,-5.0293 L -0.3994,-5.0342 L -0.3425,-5.0384 L -0.2855,-5.0419 L -0.2284,-5.0448 L -0.1713,-5.0471 L -0.1142,-5.0487 L -0.0571,-5.0497 L -0.0,-5.05 L 0.0571,-5.0497 L 0.1142,-5.0487 L 0.1713,-5.0471 L 0.2284,-5.0448 L 0.2855,-5.0419 L 0.3425,-5.0384 L 0.3994,-5.0342 L 0.4563,-5.0293 L 0.5132,-5.0239 L 0.57,-5.0177 L 0.6267,-5.011 L 0.6834,-5.0036 L 0.7399,-4.9955 L 0.7964,-4.9868 L 0.8527,-4.9775 L 0.909,-4.9675 L 0.9651,-4.9569 L 1.0211,-4.9457 L 1.077,-4.9338 L 1.1327,-4.9213 L 1.1883,-4.9082 L 1.2437,-4.8944 L 1.299,-4.8801 L 1.3541,-4.8651 L 1.4091,-4.8494 L 1.4638,-4.8332 L 1.5184,-4.8163 L 1.5728,-4.7988 L 1.627,-4.7807 L 1.6809,-4.762 L 1.7347,-4.7427 L 1.7882,-4.7228 L 1.8415,-4.7023 L 1.8946,-4.6811 L 1.9474,-4.6594 L 2.0,-4.6371" />
      <path d="M 2.0,-4.6371 L 2.0,-4.7158 L 2.0,-4.7946 L 2.0,-4.8734 L 2.0,-4.9521 L 2.0,-5.0309 L 2.0,-5.1096 L 2.0,-5.1884 L 2.0,-5.2672 L 2.0,-5.3459 L 2.0,-5.4247 L 2.0,-5.5034 L 2.0,-5.5822 L 2.0,-5.661 L 2.0,-5.7397 L 2.0,-5.8185 L 2.0,-5.8972 L 2.0,-5.976 L 2.0,-6.0548 L 2.0,-6.1335 L 2.0,-6.2123 L 2.0,-6.291 L 2.0,-6.3698 L 2.0,-6.4485 L 2.0,-6.5273 L 2.0,-6.6061 L 2.0,-6.6848 L 2.0,-6.7636 L 2.0,-6.8423 L 2.0,-6.9211 L 2.0,-6.9999 L 2.0,-7.0786 L 2.0,-7.1574 L 2.0,-7.2361 L 2.0,-7.3149 L 2.0,-7.3937 L 2.0,-7.4724 L 2.0,-7.5512 L 2.0,-7.6299 L 2.0,-7.7087 L 2.0,-7.7875 L 2.0,-7.8662 L 2.0,-7.945 L 2.0,-8.0237 L 2.0,-8.1025 L 2.0,-8.1813 L 2.0,-8.26 L 2.0,-8.3388 L 2.0,-8.4175 L 2.0,-8.4963 L 2.0,-8.5751 L 2.0,-8.6538 L 2.0,-8.7326 L 2.0,-8.8113 L 2.0,-8.8901 L 2.0,-8.9689 L 2.0,-9.0476 L 2.0,-9.1264 L 2.0,-9.2051 L 2.0,-9.2839 L 2.0,-9.3626 L 2.0,-9.4414 L 2.0,-9.5202 L 2.0,-9.5989 L 2.0,-9.6777 L 2.0,-9.7564 L 2.0,-9.8352 L 2.0,-9.914 L 2.0,-9.9927 L 2.0,-10.0715 L 2.0,-10.1502 L 2.0,-10.229 L 2.0,-10.3078" />
      <path d="M 2.0,-4.6371 L 2.1488,-4.57 L 2.2954,-4.4982 L 2.4395,-4.4217 L 2.5812,-4.3405 L 2.7201,-4.2548 L 2.8562,-4.1647 L 2.9893,-4.0702 L 3.1192,-3.9715 L 3.246,-3.8686 L 3.3693,-3.7617 L 3.4891,-3.6509 L 3.6052,-3.5362 L 3.7176,-3.4178 L 3.8261,-3.2959 L 3.9307,-3.1706 L 4.0311,-3.0419 L 4.1273,-2.91 L 4.2192,-2.7751 L 4.3066,-2.6373 L 4.3896,-2.4968 L 4.468,-2.3536 L 4.5417,-2.208 L 4.6107,-2.0601 L 4.6749,-1.91 L 4.7342,-1.7579 L 4.7885,-1.604 L 4.8378,-1.4484 L 4.8821,-1.2913 L 4.9213,-1.1329 L 4.9553,-0.9732 L 4.9842,-0.8126 L 5.0079,-0.6511 L 5.0263,-0.4889 L 5.0395,-0.3262 L 5.0474,-0.1632 L 5.05,-0.0 L 5.0474,0.1632 L 5.0395,0.3262 L 5.0263,0.4889 L 5.0079,0.6511 L 4.9842,0.8126 L 4.9553,0.9732 L 4.9213,1.1329 L 4.8821,1.2913 L 4.8378,1.4484 L 4.7885,1.604 L 4.7342,1.7579 L 4.6749,1.91 L 4.6107,2.0601 L 4.5417,2.208 L 4.468,2.3536 L 4.3896,2.4968 L 4.3066,2.6373 L 4.2192,2.7751 L 4.1273,2.91 L 4.0311,3.0419 L 3.9307,3.1706 L 3.8261,3.2959 L 3.7176,3.4178 L 3.6052,3.5362 L 3.4891,3.6509 L 3.3693,3.7617 L 3.246,3.8686 L 3.1192,3.9715 L 2.9893,4.0702 L 2.8562,4.1647 L 2.7201,4.2548 L 2.5812,4.3405 L 2.4395,4.4217 L 2.2954,4.4982 L 2.1488,4.57 L 2.0,4.6371" />
      <path d="M 2.0,10.3078 L 2.0,10.229 L 2.0,10.1502 L 2.0,10.0715 L 2.0,9.9927 L 2.0,9.914 L 2.0,9.8352 L 2.0,9.7564 L 2.0,9.6777 L 2.0,9.5989 L 2.0,9.5202 L 2.0,9.4414 L 2.0,9.3626 L 2.0,9.2839 L 2.0,9.2051 L 2.0,9.1264 L 2.0,9.0476 L 2.0,8.9689 L 2.0,8.8901 L 2.0,8.8113 L 2.0,8.7326 L 2.0,8.6538 L 2.0,8.5751 L 2.0,8.4963 L 2.0,8.4175 L 2.0,8.3388 L 2.0,8.26 L 2.0,8.1813 L 2.0,8.1025 L 2.0,8.0237 L 2.0,7.945 L 2.0,7.8662 L 2.0,7.7875 L 2.0,7.7087 L 2.0,7.6299 L 2.0,7.5512 L 2.0,7.4724 L 2.0,7.3937 L 2.0,7.3149 L 2.0,7.2361 L 2.0,7.1574 L 2.0,7.0786 L 2.0,6.9999 L 2.0,6.9211 L 2.0,6.8423 L 2.0,6.7636 L 2.0,6.6848 L 2.0,6.6061 L 2.0,6.5273 L 2.0,6.4485 L 2.0,6.3698 L 2.0,6.291 L 2.0,6.2123 L 2.0,6.1335 L 2.0,6.0548 L 2.0,5.976 L 2.0,5.8972 L 2.0,5.8185 L 2.0,5.7397 L 2.0,5.661 L 2.0,5.5822 L 2.0,5.5034 L 2.0,5.4247 L 2.0,5.3459 L 2.0,5.2672 L 2.0,5.1884 L 2.0,5.1096 L 2.0,5.0309 L 2.0,4.9521 L 2.0,4.8734 L 2.0,4.7946 L 2.0,4.7158 L 2.0,4.6371" />
      <path d="M 2.0,4.6371 L 1.9737,4.6483 L 1.9474,4.6594 L 1.921,4.6703 L 1.8946,4.6811 L 1.8681,4.6918 L 1.8415,4.7023 L 1.8149,4.7126 L 1.7882,4.7228 L 1.7615,4.7328 L 1.7347,4.7427 L 1.7078,4.7525 L 1.6809,4.762 L 1.654,4.7715 L 1.627,4.7807 L 1.5999,4.7899 L 1.5728,4.7988 L 1.5456,4.8077 L 1.5184,4.8163 L 1.4911,4.8248 L 1.4638,4.8332 L 1.4365,4.8414 L 1.4091,4.8494 L 1.3816,4.8573 L 1.3541,4.8651 L 1.3266,4.8726 L 1.299,4.8801 L 1.2714,4.8873 L 1.2437,4.8944 L 1.216,4.9014 L 1.1883,4.9082 L 1.1605,4.9148 L 1.1327,4.9213 L 1.1049,4.9277 L 1.077,4.9338 L 1.049,4.9398 L 1.0211,4.9457 L 0.9931,4.9514 L 0.9651,4.9569 L 0.937,4.9623 L 0.909,4.9675 L 0.8808,4.9726 L 0.8527,4.9775 L 0.8245,4.9822 L 0.7964,4.9868 L 0.7681,4.9912 L 0.7399,4.9955 L 0.7116,4.9996 L 0.6834,5.0036 L 0.655,5.0073 L 0.6267,5.011 L 0.5984,5.0144 L 0.57,5.0177 L 0.5416,5.0209 L 0.5132,5.0239 L 0.4848,5.0267 L 0.4563,5.0293 L 0.4279,5.0318 L 0.3994,5.0342 L 0.371,5.0364 L 0.3425,5.0384 L 0.314,5.0402 L 0.2855,5.0419 L 0.2569,5.0435 L 0.2284,5.0448 L 0.1999,5.046 L 0.1713,5.0471 L 0.1428,5.048 L 0.1142,5.0487 L 0.0857,5.0493 L 0.0571,5.0497 L 0.0286,5.0499 L -0.0,5.05" />
      <path d="M 0.0,5.05 L -0.0286,5.0499 L -0.0571,5.0497 L -0.0857,5.0493 L -0.1142,5.0487 L -0.1428,5.048 L -0.1713,5.0471 L -0.1999,5.046 L -0.2284,5.0448 L -0.2569,5.0435 L -0.2855,5.0419 L -0.314,5.0402 L -0.3425,5.0384 L -0.371,5.0364 L -0.3994,5.0342 L -0.4279,5.0318 L -0.4563,5.0293 L -0.4848,5.0267 L -0.5132,5.0239 L -0.5416,5.0209 L -0.57,5.0177 L -0.5984,5.0144 L -0.6267,5.011 L -0.655,5.0073 L -0.6834,5.0036 L -0.7116,4.9996 L -0.7399,4.9955 L -0.7681,4.9912 L -0.7964,4.9868 L -0.8245,4.9822 L -0.8527,4.9775 L -0.8808,4.9726 L -0.909,4.9675 L -0.937,4.9623 L -0.9651,4.9569 L -0.9931,4.9514 L -1.0211,4.9457 L -1.049,4.9398 L -1.077,4.9338 L -1.1049,4.9277 L -1.1327,4.9213 L -1.1605,4.9148 L -1.1883,4.9082 L -1.216,4.9014 L -1.2437,4.8944 L -1.2714,4.8873 L -1.299,4.8801 L -1.3266,4.8726 L -1.3541,4.8651 L -1.3816,4.8573 L -1.4091,4.8494 L -1.4365,4.8414 L -1.4638,4.8332 L -1.4911,4.8248 L -1.5184,4.8163 L -1.5456,4.8077 L -1.5728,4.7988 L -1.5999,4.7899 L -1.627,4.7807 L -1.654,4.7715 L -1.6809,4.762 L -1.7078,4.7525 L -1.7347,4.7427 L -1.7615,4.7328 L -1.7882,4.7228 L -1.8149,4.7126 L -1.8415,4.7023 L -1.8681,4.6918 L -1.8946,4.6811 L -1.921,4.6703 L -1.9474,4.6594 L -1.9737,4.6483 L -2.0,4.6371" />
      <path d="M 14.5018,10.3078 L 14.5015,10.0214 L 14.5014,9.7351 L 14.5012,9.4488 L 14.5011,9.1625 L 14.501,8.8761 L 14.5009,8.5898 L 14.5008,8.3035 L 14.5008,8.0172 L 14.5007,7.7308 L 14.5006,7.4445 L 14.5006,7.1582 L 14.5005,6.8718 L 14.5005,6.5855 L 14.5004,6.2992 L 14.5004,6.0129 L 14.5004,5.7265 L 14.5003,5.4402 L 14.5003,5.1539 L 14.5002,4.8676 L 14.5002,4.5812 L 14.5002,4.2949 L 14.5002,4.0086 L 14.5001,3.7222 L 14.5001,3.4359 L 14.5001,3.1496 L 14.5001,2.8633 L 14.5001,2.5769 L 14.5001,2.2906 L 14.5,2.0043 L 14.5,1.718 L 14.5,1.4316 L 14.5,1.1453 L 14.5,0.859 L 14.5,0.5727 L 14.5,0.2863 L 14.5,0.0 L 14.5,-0.2863 L 14.5,-0.5727 L 14.5,-0.859 L 14.5,-1.1453 L 14.5,-1.4316 L 14.5,-1.718 L 14.5,-2.0043 L 14.5001,-2.2906 L 14.5001,-2.5769 L 14.5001,-2.8633 L 14.5001,-3.1496 L 14.5001,-3.4359 L 14.5001,-3.7222 L 14.5002,-4.0086 L 14.5002,-4.2949 L 14.5002,-4.5812 L 14.5002,-4.8676 L 14.5003,-5.1539 L 14.5003,-5.4402 L 14.5004,-5.7265 L 14.5004,-6.0129 L 14.5004,-6.2992 L 14.5005,-6.5855 L 14.5005,-6.8718 L 14.5006,-7.1582 L 14.5006,-7.4445 L 14.5007,-7.7308 L 14.5008,-8.0172 L 14.5008,-8.3035 L 14.5009,-8.5898 L 14.501,-8.8761 L 14.5011,-9.1625 L 14.5012,-9.4488 L 14.5014,-9.7351 L 14.5015,-10.0214 L 14.5018,-10.3078" />
      <path d="M 14.5026,-10.3078 L 14.5025,-10.3078 L 14.5024,-10.3078 L 14.5023,-10.3078 L 14.5022,-10.3078 L 14.5021,-10.3078 L 14.502,-10.3078 L 14.5019,-10.3078 L 14.5018,-10.3078" />
      <path d="M 18.3018,-10.3078 L 18.3018,-10.3104 L 18.3018,-10.3131 L 18.3018,-10.3158 L 18.3018,-10.3184 L 18.3018,-10.3211 L 18.3018,-10.3238 L 18.3018,-10.3265 L 18.3018,-10.3291 L 18.3018,-10.3318 L 18.3018,-10.3345 L 18.3018,-10.3371 L 18.3018,-10.3398 L 18.3018,-10.3425 L 18.3018,-10.3451 L 18.3018,-10.3478 L 18.3018,-10.3505 L 18.3018,-10.3532 L 18.3018,-10.3558 L 18.3018,-10.3585 L 18.3018,-10.3612 L 18.3018,-10.3638 L 18.3018,-10.3665 L 18.3018,-10.3692 L 18.3018,-10.3718 L 18.3019,-10.3745 L 18.3019,-10.3772 L 18.3019,-10.3799 L 18.3019,-10.3825 L 18.3019,-10.3852 L 18.3019,-10.3879 L 18.3019,-10.3905 L 18.3019,-10.3932 L 18.3019,-10.3959 L 18.3019,-10.3985 L 18.3019,-10.4012 L 18.3019,-10.4039 L 18.3019,-10.4066 L 18.3019,-10.4092 L 18.3019,-10.4119 L 18.3019,-10.4146 L 18.3019,-10.4172 L 18.3019,-10.4199 L 18.3019,-10.4226 L 18.3019,-10.4252 L 18.3019,-10.4279 L 18.3019,-10.4306 L 18.3019,-10.4333 L 18.3019,-10.4359 L 18.302,-10.4386 L 18.302,-10.4413 L 18.302,-10.4439 L 18.302,-10.4466 L 18.302,-10.4493 L 18.302,-10.4519 L 18.302,-10.4546 L 18.302,-10.4573 L 18.302,-10.46 L 18.302,-10.4626 L 18.302,-10.4653 L 18.302,-10.468 L 18.302,-10.4706 L 18.302,-10.4733 L 18.302,-10.476 L 18.3021,-10.4786 L 18.3021,-10.4813 L 18.3021,-10.484 L 18.3021,-10.4867 L 18.3021,-10.4893 L 18.3021,-10.492 L 18.3021,-10.4947 L 18.3021,-10.4973 L 18.3022,-10.5" />
      <path d="M 18.3022,-10.5 L 18.3022,-10.4973 L 18.3023,-10.4947 L 18.3023,-10.492 L 18.3023,-10.4893 L 18.3023,-10.4867 L 18.3023,-10.484 L 18.3023,-10.4813 L 18.3023,-10.4786 L 18.3023,-10.476 L 18.3023,-10.4733 L 18.3024,-10.4706 L 18.3024,-10.468 L 18.3024,-10.4653 L 18.3024,-10.4626 L 18.3024,-10.46 L 18.3024,-10.4573 L 18.3024,-10.4546 L 18.3024,-10.4519 L 18.3024,-10.4493 L 18.3024,-10.4466 L 18.3024,-10.4439 L 18.3024,-10.4413 L 18.3024,-10.4386 L 18.3024,-10.4359 L 18.3024,-10.4333 L 18.3024,-10.4306 L 18.3024,-10.4279 L 18.3025,-10.4252 L 18.3025,-10.4226 L 18.3025,-10.4199 L 18.3025,-10.4172 L 18.3025,-10.4146 L 18.3025,-10.4119 L 18.3025,-10.4092 L 18.3025,-10.4066 L 18.3025,-10.4039 L 18.3025,-10.4012 L 18.3025,-10.3985 L 18.3025,-10.3959 L 18.3025,-10.3932 L 18.3025,-10.3905 L 18.3025,-10.3879 L 18.3025,-10.3852 L 18.3025,-10.3825 L 18.3025,-10.3799 L 18.3025,-10.3772 L 18.3025,-10.3745 L 18.3025,-10.3718 L 18.3025,-10.3692 L 18.3025,-10.3665 L 18.3025,-10.3638 L 18.3025,-10.3612 L 18.3025,-10.3585 L 18.3026,-10.3558 L 18.3026,-10.3532 L 18.3026,-10.3505 L 18.3026,-10.3478 L 18.3026,-10.3451 L 18.3026,-10.3425 L 18.3026,-10.3398 L 18.3026,-10.3371 L 18.3026,-10.3345 L 18.3026,-10.3318 L 18.3026,-10.3291 L 18.3026,-10.3265 L 18.3026,-10.3238 L 18.3026,-10.3211 L 18.3026,-10.3184 L 18.3026,-10.3158 L 18.3026,-10.3131 L 18.3026,-10.3104 L 18.3026,-10.3078" />
      <path d="M 18.3026,-10.3078 L 18.2498,-10.3078 L 18.1971,-10.3078 L 18.1443,-10.3078 L 18.0915,-10.3078 L 18.0387,-10.3078 L 17.9859,-10.3078 L 17.9332,-10.3078 L 17.8804,-10.3078 L 17.8276,-10.3078 L 17.7748,-10.3078 L 17.7221,-10.3078 L 17.6693,-10.3078 L 17.6165,-10.3078 L 17.5637,-10.3078 L 17.5109,-10.3078 L 17.4582,-10.3078 L 17.4054,-10.3078 L 17.3526,-10.3078 L 17.2998,-10.3078 L 17.2471,-10.3078 L 17.1943,-10.3078 L 17.1415,-10.3078 L 17.0887,-10.3078 L 17.0359,-10.3078 L 16.9832,-10.3078 L 16.9304,-10.3078 L 16.8776,-10.3078 L 16.8248,-10.3078 L 16.7721,-10.3078 L 16.7193,-10.3078 L 16.6665,-10.3078 L 16.6137,-10.3078 L 16.5609,-10.3078 L 16.5082,-10.3078 L 16.4554,-10.3078 L 16.4026,-10.3078 L 16.3498,-10.3078 L 16.2971,-10.3078 L 16.2443,-10.3078 L 16.1915,-10.3078 L 16.1387,-10.3078 L 16.0859,-10.3078 L 16.0332,-10.3078 L 15.9804,-10.3078 L 15.9276,-10.3078 L 15.8748,-10.3078 L 15.8221,-10.3078 L 15.7693,-10.3078 L 15.7165,-10.3078 L 15.6637,-10.3078 L 15.6109,-10.3078 L 15.5582,-10.3078 L 15.5054,-10.3078 L 15.4526,-10.3078 L 15.3998,-10.3078 L 15.3471,-10.3078 L 15.2943,-10.3078 L 15.2415,-10.3078 L 15.1887,-10.3078 L 15.1359,-10.3078 L 15.0832,-10.3078 L 15.0304,-10.3078 L 14.9776,-10.3078 L 14.9248,-10.3078 L 14.8721,-10.3078 L 14.8193,-10.3078 L 14.7665,-10.3078 L 14.7137,-10.3078 L 14.6609,-10.3078 L 14.6082,-10.3078 L 14.5554,-10.3078 L 14.5026,-10.3078" />
      <path d="M 14.5026,-10.3078 L 14.5028,-10.0214 L 14.503,-9.7351 L 14.5031,-9.4488 L 14.5033,-9.1625 L 14.5034,-8.8761 L 14.5034,-8.5898 L 14.5035,-8.3035 L 14.5036,-8.0172 L 14.5037,-7.7308 L 14.5037,-7.4445 L 14.5038,-7.1582 L 14.5038,-6.8718 L 14.5039,-6.5855 L 14.5039,-6.2992 L 14.504,-6.0129 L 14.504,-5.7265 L 14.5041,-5.4402 L 14.5041,-5.1539 L 14.5041,-4.8676 L 14.5042,-4.5812 L 14.5042,-4.2949 L 14.5042,-4.0086 L 14.5042,-3.7222 L 14.5043,-3.4359 L 14.5043,-3.1496 L 14.5043,-2.8633 L 14.5043,-2.5769 L 14.5043,-2.2906 L 14.5043,-2.0043 L 14.5044,-1.718 L 14.5044,-1.4316 L 14.5044,-1.1453 L 14.5044,-0.859 L 14.5044,-0.5727 L 14.5044,-0.2863 L 14.5044,0.0 L 14.5044,0.2863 L 14.5044,0.5727 L 14.5044,0.859 L 14.5044,1.1453 L 14.5044,1.4316 L 14.5044,1.718 L 14.5043,2.0043 L 14.5043,2.2906 L 14.5043,2.5769 L 14.5043,2.8633 L 14.5043,3.1496 L 14.5043,3.4359 L 14.5042,3.7222 L 14.5042,4.0086 L 14.5042,4.2949 L 14.5042,4.5812 L 14.5041,4.8676 L 14.5041,5.1539 L 14.5041,5.4402 L 14.504,5.7265 L 14.504,6.0129 L 14.5039,6.2992 L 14.5039,6.5855 L 14.5038,6.8718 L 14.5038,7.1582 L 14.5037,7.4445 L 14.5037,7.7308 L 14.5036,8.0172 L 14.5035,8.3035 L 14.5034,8.5898 L 14.5034,8.8761 L 14.5033,9.1625 L 14.5031,9.4488 L 14.503,9.7351 L 14.5028,10.0214 L 14.5026,10.3078" />
      <path d="M 18.3026,10.3078 L 18.2498,10.3078 L 18.1971,10.3078 L 18.1443,10.3078 L 18.0915,10.3078 L 18.0387,10.3078 L 17.9859,10.3078 L 17.9332,10.3078 L 17.8804,10.3078 L 17.8276,10.3078 L 17.7748,10.3078 L 17.7221,10.3078 L 17.6693,10.3078 L 17.6165,10.3078 L 17.5637,10.3078 L 17.5109,10.3078 L 17.4582,10.3078 L 17.4054,10.3078 L 17.3526,10.3078 L 17.2998,10.3078 L 17.2471,10.3078 L 17.1943,10.3078 L 17.1415,10.3078 L 17.0887,10.3078 L 17.0359,10.3078 L 16.9832,10.3078 L 16.9304,10.3078 L 16.8776,10.3078 L 16.8248,10.3078 L 16.7721,10.3078 L 16.7193,10.3078 L 16.6665,10.3078 L 16.6137,10.3078 L 16.5609,10.3078 L 16.5082,10.3078 L 16.4554,10.3078 L 16.4026,10.3078 L 16.3498,10.3078 L 16.2971,10.3078 L 16.2443,10.3078 L 16.1915,10.3078 L 16.1387,10.3078 L 16.0859,10.3078 L 16.0332,10.3078 L 15.9804,10.3078 L 15.9276,10.3078 L 15.8748,10.3078 L 15.8221,10.3078 L 15.7693,10.3078 L 15.7165,10.3078 L 15.6637,10.3078 L 15.6109,10.3078 L 15.5582,10.3078 L 15.5054,10.3078 L 15.4526,10.3078 L 15.3998,10.3078 L 15.3471,10.3078 L 15.2943,10.3078 L 15.2415,10.3078 L 15.1887,10.3078 L 15.1359,10.3078 L 15.0832,10.3078 L 15.0304,10.3078 L 14.9776,10.3078 L 14.9248,10.3078 L 14.8721,10.3078 L 14.8193,10.3078 L 14.7665,10.3078 L 14.7137,10.3078 L 14.6609,10.3078 L 14.6082,10.3078 L 14.5554,10.3078 L 14.5026,10.3078" />
      <path d="M 18.3026,10.3078 L 18.3026,10.3104 L 18.3026,10.3131 L 18.3026,10.3158 L 18.3026,10.3184 L 18.3026,10.3211 L 18.3026,10.3238 L 18.3026,10.3265 L 18.3026,10.3291 L 18.3026,10.3318 L 18.3026,10.3345 L 18.3026,10.3371 L 18.3026,10.3398 L 18.3026,10.3425 L 18.3026,10.3451 L 18.3026,10.3478 L 18.3026,10.3505 L 18.3026,10.3532 L 18.3026,10.3558 L 18.3025,10.3585 L 18.3025,10.3612 L 18.3025,10.3638 L 18.3025,10.3665 L 18.3025,10.3692 L 18.3025,10.3718 L 18.3025,10.3745 L 18.3025,10.3772 L 18.3025,10.3799 L 18.3025,10.3825 L 18.3025,10.3852 L 18.3025,10.3879 L 18.3025,10.3905 L 18.3025,10.3932 L 18.3025,10.3959 L 18.3025,10.3985 L 18.3025,10.4012 L 18.3025,10.4039 L 18.3025,10.4066 L 18.3025,10.4092 L 18.3025,10.4119 L 18.3025,10.4146 L 18.3025,10.4172 L 18.3025,10.4199 L 18.3025,10.4226 L 18.3025,10.4252 L 18.3024,10.4279 L 18.3024,10.4306 L 18.3024,10.4333 L 18.3024,10.4359 L 18.3024,10.4386 L 18.3024,10.4413 L 18.3024,10.4439 L 18.3024,10.4466 L 18.3024,10.4493 L 18.3024,10.4519 L 18.3024,10.4546 L 18.3024,10.4573 L 18.3024,10.46 L 18.3024,10.4626 L 18.3024,10.4653 L 18.3024,10.468 L 18.3024,10.4706 L 18.3023,10.4733 L 18.3023,10.476 L 18.3023,10.4786 L 18.3023,10.4813 L 18.3023,10.484 L 18.3023,10.4867 L 18.3023,10.4893 L 18.3023,10.492 L 18.3023,10.4947 L 18.3022,10.4973 L 18.3022,10.5" />
      <path d="M 24.5022,10.5 L 24.4161,10.5 L 24.33,10.5 L 24.2439,10.5 L 24.1577,10.5 L 24.0716,10.5 L 23.9855,10.5 L 23.8994,10.5 L 23.8133,10.5 L 23.7272,10.5 L 23.6411,10.5 L 23.555,10.5 L 23.4689,10.5 L 23.3827,10.5 L 23.2966,10.5 L 23.2105,10.5 L 23.1244,10.5 L 23.0383,10.5 L 22.9522,10.5 L 22.8661,10.5 L 22.78,10.5 L 22.6939,10.5 L 22.6077,10.5 L 22.5216,10.5 L 22.4355,10.5 L 22.3494,10.5 L 22.2633,10.5 L 22.1772,10.5 L 22.0911,10.5 L 22.005,10.5 L 21.9189,10.5 L 21.8327,10.5 L 21.7466,10.5 L 21.6605,10.5 L 21.5744,10.5 L 21.4883,10.5 L 21.4022,10.5 L 21.3161,10.5 L 21.23,10.5 L 21.1439,10.5 L 21.0577,10.5 L 20.9716,10.5 L 20.8855,10.5 L 20.7994,10.5 L 20.7133,10.5 L 20.6272,10.5 L 20.5411,10.5 L 20.455,10.5 L 20.3689,10.5 L 20.2827,10.5 L 20.1966,10.5 L 20.1105,10.5 L 20.0244,10.5 L 19.9383,10.5 L 19.8522,10.5 L 19.7661,10.5 L 19.68,10.5 L 19.5939,10.5 L 19.5077,10.5 L 19.4216,10.5 L 19.3355,10.5 L 19.2494,10.5 L 19.1633,10.5 L 19.0772,10.5 L 18.9911,10.5 L 18.905,10.5 L 18.8189,10.5 L 18.7327,10.5 L 18.6466,10.5 L 18.5605,10.5 L 18.4744,10.5 L 18.3883,10.5 L 18.3022,10.5" />
      <path d="M 24.5022,-10.5 L 24.5027,-10.2083 L 24.5029,-9.9167 L 24.5031,-9.625 L 24.5032,-9.3333 L 24.5033,-9.0417 L 24.5034,-8.75 L 24.5035,-8.4583 L 24.5036,-8.1667 L 24.5036,-7.875 L 24.5037,-7.5833 L 24.5038,-7.2917 L 24.5038,-7.0 L 24.5039,-6.7083 L 24.5039,-6.4167 L 24.504,-6.125 L 24.504,-5.8333 L 24.5041,-5.5417 L 24.5041,-5.25 L 24.5041,-4.9583 L 24.5042,-4.6667 L 24.5042,-4.375 L 24.5042,-4.0833 L 24.5042,-3.7917 L 24.5043,-3.5 L 24.5043,-3.2083 L 24.5043,-2.9167 L 24.5043,-2.625 L 24.5043,-2.3333 L 24.5043,-2.0417 L 24.5043,-1.75 L 24.5044,-1.4583 L 24.5044,-1.1667 L 24.5044,-0.875 L 24.5044,-0.5833 L 24.5044,-0.2917 L 24.5044,0.0 L 24.5044,0.2917 L 24.5044,0.5833 L 24.5044,0.875 L 24.5044,1.1667 L 24.5044,1.4583 L 24.5043,1.75 L 24.5043,2.0417 L 24.5043,2.3333 L 24.5043,2.625 L 24.5043,2.9167 L 24.5043,3.2083 L 24.5043,3.5 L 24.5042,3.7917 L 24.5042,4.0833 L 24.5042,4.375 L 24.5042,4.6667 L 24.5041,4.9583 L 24.5041,5.25 L 24.5041,5.5417 L 24.504,5.8333 L 24.504,6.125 L 24.5039,6.4167 L 24.5039,6.7083 L 24.5038,7.0 L 24.5038,7.2917 L 24.5037,7.5833 L 24.5036,7.875 L 24.5036,8.1667 L 24.5035,8.4583 L 24.5034,8.75 L 24.5033,9.0417 L 24.5032,9.3333 L 24.5031,9.625 L 24.5029,9.9167 L 24.5027,10.2083 L 24.5022,10.5" />
      <path d="M 18.3022,10.5 L 18.3021,10.4973 L 18.3021,10.4947 L 18.3021,10.492 L 18.3021,10.4893 L 18.3021,10.4867 L 18.3021,10.484 L 18.3021,10.4813 L 18.3021,10.4786 L 18.302,10.476 L 18.302,10.4733 L 18.302,10.4706 L 18.302,10.468 L 18.302,10.4653 L 18.302,10.4626 L 18.302,10.46 L 18.302,10.4573 L 18.302,10.4546 L 18.302,10.4519 L 18.302,10.4493 L 18.302,10.4466 L 18.302,10.4439 L 18.302,10.4413 L 18.302,10.4386 L 18.3019,10.4359 L 18.3019,10.4333 L 18.3019,10.4306 L 18.3019,10.4279 L 18.3019,10.4252 L 18.3019,10.4226 L 18.3019,10.4199 L 18.3019,10.4172 L 18.3019,10.4146 L 18.3019,10.4119 L 18.3019,10.4092 L 18.3019,10.4066 L 18.3019,10.4039 L 18.3019,10.4012 L 18.3019,10.3985 L 18.3019,10.3959 L 18.3019,10.3932 L 18.3019,10.3905 L 18.3019,10.3879 L 18.3019,10.3852 L 18.3019,10.3825 L 18.3019,10.3799 L 18.3019,10.3772 L 18.3019,10.3745 L 18.3018,10.3718 L 18.3018,10.3692 L 18.3018,10.3665 L 18.3018,10.3638 L 18.3018,10.3612 L 18.3018,10.3585 L 18.3018,10.3558 L 18.3018,10.3532 L 18.3018,10.3505 L 18.3018,10.3478 L 18.3018,10.3451 L 18.3018,10.3425 L 18.3018,10.3398 L 18.3018,10.3371 L 18.3018,10.3345 L 18.3018,10.3318 L 18.3018,10.3291 L 18.3018,10.3265 L 18.3018,10.3238 L 18.3018,10.3211 L 18.3018,10.3184 L 18.3018,10.3158 L 18.3018,10.3131 L 18.3018,10.3104 L 18.3018,10.3078" />
      <path d="M 14.5026,10.3078 L 14.5025,10.3078 L 14.5024,10.3078 L 14.5023,10.3078 L 14.5022,10.3078 L 14.5021,10.3078 L 14.502,10.3078 L 14.5019,10.3078 L 14.5018,10.3078" />
      <path d="M 14.5018,10.3078 L 14.5018,10.229 L 14.5018,10.1502 L 14.5018,10.0715 L 14.5018,9.9927 L 14.5018,9.914 L 14.5018,9.8352 L 14.5018,9.7564 L 14.5018,9.6777 L 14.5018,9.5989 L 14.5018,9.5202 L 14.5018,9.4414 L 14.5018,9.3626 L 14.5018,9.2839 L 14.5018,9.2051 L 14.5018,9.1264 L 14.5018,9.0476 L 14.5018,8.9689 L 14.5018,8.8901 L 14.5018,8.8113 L 14.5018,8.7326 L 14.5018,8.6538 L 14.5018,8.5751 L 14.5018,8.4963 L 14.5018,8.4175 L 14.5018,8.3388 L 14.5018,8.26 L 14.5018,8.1813 L 14.5018,8.1025 L 14.5018,8.0237 L 14.5018,7.945 L 14.5018,7.8662 L 14.5018,7.7875 L 14.5018,7.7087 L 14.5018,7.6299 L 14.5018,7.5512 L 14.5018,7.4724 L 14.5018,7.3937 L 14.5018,7.3149 L 14.5018,7.2361 L 14.5018,7.1574 L 14.5018,7.0786 L 14.5018,6.9999 L 14.5018,6.9211 L 14.5018,6.8423 L 14.5018,6.7636 L 14.5018,6.6848 L 14.5018,6.6061 L 14.5018,6.5273 L 14.5018,6.4485 L 14.5018,6.3698 L 14.5018,6.291 L 14.5018,6.2123 L 14.5018,6.1335 L 14.5018,6.0548 L 14.5018,5.976 L 14.5018,5.8972 L 14.5018,5.8185 L 14.5018,5.7397 L 14.5018,5.661 L 14.5018,5.5822 L 14.5018,5.5034 L 14.5018,5.4247 L 14.5018,5.3459 L 14.5018,5.2672 L 14.5018,5.1884 L 14.5018,5.1096 L 14.5018,5.0309 L 14.5018,4.9521 L 14.5018,4.8734 L 14.5018,4.7946 L 14.5018,4.7158 L 14.5018,4.6371" />
      <path d="M 14.5018,4.6371 L 14.5017,4.5083 L 14.5017,4.3795 L 14.5016,4.2507 L 14.5016,4.1218 L 14.5015,3.993 L 14.5015,3.8642 L 14.5015,3.7354 L 14.5015,3.6066 L 14.5014,3.4778 L 14.5014,3.349 L 14.5014,3.2202 L 14.5014,3.0914 L 14.5013,2.9626 L 14.5013,2.8338 L 14.5013,2.705 L 14.5013,2.5762 L 14.5013,2.4473 L 14.5013,2.3185 L 14.5012,2.1897 L 14.5012,2.0609 L 14.5012,1.9321 L 14.5012,1.8033 L 14.5012,1.6745 L 14.5012,1.5457 L 14.5012,1.4169 L 14.5012,1.2881 L 14.5012,1.1593 L 14.5012,1.0305 L 14.5012,0.9017 L 14.5011,0.7728 L 14.5011,0.644 L 14.5011,0.5152 L 14.5011,0.3864 L 14.5011,0.2576 L 14.5011,0.1288 L 14.5011,0.0 L 14.5011,-0.1288 L 14.5011,-0.2576 L 14.5011,-0.3864 L 14.5011,-0.5152 L 14.5011,-0.644 L 14.5011,-0.7728 L 14.5012,-0.9017 L 14.5012,-1.0305 L 14.5012,-1.1593 L 14.5012,-1.2881 L 14.5012,-1.4169 L 14.5012,-1.5457 L 14.5012,-1.6745 L 14.5012,-1.8033 L 14.5012,-1.9321 L 14.5012,-2.0609 L 14.5012,-2.1897 L 14.5013,-2.3185 L 14.5013,-2.4473 L 14.5013,-2.5762 L 14.5013,-2.705 L 14.5013,-2.8338 L 14.5013,-2.9626 L 14.5014,-3.0914 L 14.5014,-3.2202 L 14.5014,-3.349 L 14.5014,-3.4778 L 14.5015,-3.6066 L 14.5015,-3.7354 L 14.5015,-3.8642 L 14.5015,-3.993 L 14.5016,-4.1218 L 14.5016,-4.2507 L 14.5017,-4.3795 L 14.5017,-4.5083 L 14.5018,-4.6371" />
      <path d="M 14.5018,-4.6371 L 14.5018,-4.7158 L 14.5018,-4.7946 L 14.5018,-4.8734 L 14.5018,-4.9521 L 14.5018,-5.0309 L 14.5018,-5.1096 L 14.5018,-5.1884 L 14.5018,-5.2672 L 14.5018,-5.3459 L 14.5018,-5.4247 L 14.5018,-5.5034 L 14.5018,-5.5822 L 14.5018,-5.661 L 14.5018,-5.7397 L 14.5018,-5.8185 L 14.5018,-5.8972 L 14.5018,-5.976 L 14.5018,-6.0548 L 14.5018,-6.1335 L 14.5018,-6.2123 L 14.5018,-6.291 L 14.5018,-6.3698 L 14.5018,-6.4485 L 14.5018,-6.5273 L 14.5018,-6.6061 L 14.5018,-6.6848 L 14.5018,-6.7636 L 14.5018,-6.8423 L 14.5018,-6.9211 L 14.5018,-6.9999 L 14.5018,-7.0786 L 14.5018,-7.1574 L 14.5018,-7.2361 L 14.5018,-7.3149 L 14.5018,-7.3937 L 14.5018,-7.4724 L 14.5018,-7.5512 L 14.5018,-7.6299 L 14.5018,-7.7087 L 14.5018,-7.7875 L 14.5018,-7.8662 L 14.5018,-7.945 L 14.5018,-8.0237 L 14.5018,-8.1025 L 14.5018,-8.1813 L 14.5018,-8.26 L 14.5018,-8.3388 L 14.5018,-8.4175 L 14.5018,-8.4963 L 14.5018,-8.5751 L 14.5018,-8.6538 L 14.5018,-8.7326 L 14.5018,-8.8113 L 14.5018,-8.8901 L 14.5018,-8.9689 L 14.5018,-9.0476 L 14.5018,-9.1264 L 14.5018,-9.2051 L 14.5018,-9.2839 L 14.5018,-9.3626 L 14.5018,-9.4414 L 14.5018,-9.5202 L 14.5018,-9.5989 L 14.5018,-9.6777 L 14.5018,-9.7564 L 14.5018,-9.8352 L 14.5018,-9.914 L 14.5018,-9.9927 L 14.5018,-10.0715 L 14.5018,-10.1502 L 14.5018,-10.229 L 14.5018,-10.3078" />
      <path d="M 14.5026,-4.6371 L 14.5025,-4.6371 L 14.5024,-4.6371 L 14.5023,-4.6371 L 14.5022,-4.6371 L 14.5021,-4.6371 L 14.502,-4.6371 L 14.5019,-4.6371 L 14.5018,-4.6371" />
      <path d="M 14.5026,-4.6371 L 14.5026,-4.7158 L 14.5026,-4.7946 L 14.5026,-4.8734 L 14.5026,-4.9521 L 14.5026,-5.0309 L 14.5026,-5.1096 L 14.5026,-5.1884 L 14.5026,-5.2672 L 14.5026,-5.3459 L 14.5026,-5.4247 L 14.5026,-5.5034 L 14.5026,-5.5822 L 14.5026,-5.661 L 14.5026,-5.7397 L 14.5026,-5.8185 L 14.5026,-5.8972 L 14.5026,-5.976 L 14.5026,-6.0548 L 14.5026,-6.1335 L 14.5026,-6.2123 L 14.5026,-6.291 L 14.5026,-6.3698 L 14.5026,-6.4485 L 14.5026,-6.5273 L 14.5026,-6.6061 L 14.5026,-6.6848 L 14.5026,-6.7636 L 14.5026,-6.8423 L 14.5026,-6.9211 L 14.5026,-6.9999 L 14.5026,-7.0786 L 14.5026,-7.1574 L 14.5026,-7.2361 L 14.5026,-7.3149 L 14.5026,-7.3937 L 14.5026,-7.4724 L 14.5026,-7.5512 L 14.5026,-7.6299 L 14.5026,-7.7087 L 14.5026,-7.7875 L 14.5026,-7.8662 L 14.5026,-7.945 L 14.5026,-8.0237 L 14.5026,-8.1025 L 14.5026,-8.1813 L 14.5026,-8.26 L 14.5026,-8.3388 L 14.5026,-8.4175 L 14.5026,-8.4963 L 14.5026,-8.5751 L 14.5026,-8.6538 L 14.5026,-8.7326 L 14.5026,-8.8113 L 14.5026,-8.8901 L 14.5026,-8.9689 L 14.5026,-9.0476 L 14.5026,-9.1264 L 14.5026,-9.2051 L 14.5026,-9.2839 L 14.5026,-9.3626 L 14.5026,-9.4414 L 14.5026,-9.5202 L 14.5026,-9.5989 L 14.5026,-9.6777 L 14.5026,-9.7564 L 14.5026,-9.8352 L 14.5026,-9.914 L 14.5026,-9.9927 L 14.5026,-10.0715 L 14.5026,-10.1502 L 14.5026,-10.229 L 14.5026,-10.3078" />
      <path d="M 14.5026,-4.6371 L 14.5027,-4.5083 L 14.5027,-4.3795 L 14.5028,-4.2507 L 14.5028,-4.1218 L 14.5028,-3.993 L 14.5029,-3.8642 L 14.5029,-3.7354 L 14.5029,-3.6066 L 14.503,-3.4778 L 14.503,-3.349 L 14.503,-3.2202 L 14.503,-3.0914 L 14.503,-2.9626 L 14.5031,-2.8338 L 14.5031,-2.705 L 14.5031,-2.5762 L 14.5031,-2.4473 L 14.5031,-2.3185 L 14.5031,-2.1897 L 14.5032,-2.0609 L 14.5032,-1.9321 L 14.5032,-1.8033 L 14.5032,-1.6745 L 14.5032,-1.5457 L 14.5032,-1.4169 L 14.5032,-1.2881 L 14.5032,-1.1593 L 14.5032,-1.0305 L 14.5032,-0.9017 L 14.5032,-0.7728 L 14.5032,-0.644 L 14.5032,-0.5152 L 14.5032,-0.3864 L 14.5032,-0.2576 L 14.5032,-0.1288 L 14.5032,0.0 L 14.5032,0.1288 L 14.5032,0.2576 L 14.5032,0.3864 L 14.5032,0.5152 L 14.5032,0.644 L 14.5032,0.7728 L 14.5032,0.9017 L 14.5032,1.0305 L 14.5032,1.1593 L 14.5032,1.2881 L 14.5032,1.4169 L 14.5032,1.5457 L 14.5032,1.6745 L 14.5032,1.8033 L 14.5032,1.9321 L 14.5032,2.0609 L 14.5031,2.1897 L 14.5031,2.3185 L 14.5031,2.4473 L 14.5031,2.5762 L 14.5031,2.705 L 14.5031,2.8338 L 14.503,2.9626 L 14.503,3.0914 L 14.503,3.2202 L 14.503,3.349 L 14.503,3.4778 L 14.5029,3.6066 L 14.5029,3.7354 L 14.5029,3.8642 L 14.5028,3.993 L 14.5028,4.1218 L 14.5028,4.2507 L 14.5027,4.3795 L 14.5027,4.5083 L 14.5026,4.6371" />
      <path d="M 14.5026,10.3078 L 14.5026,10.229 L 14.5026,10.1502 L 14.5026,10.0715 L 14.5026,9.9927 L 14.5026,9.914 L 14.5026,9.8352 L 14.5026,9.7564 L 14.5026,9.6777 L 14.5026,9.5989 L 14.5026,9.5202 L 14.5026,9.4414 L 14.5026,9.3626 L 14.5026,9.2839 L 14.5026,9.2051 L 14.5026,9.1264 L 14.5026,9.0476 L 14.5026,8.9689 L 14.5026,8.8901 L 14.5026,8.8113 L 14.5026,8.7326 L 14.5026,8.6538 L 14.5026,8.5751 L 14.5026,8.4963 L 14.5026,8.4175 L 14.5026,8.3388 L 14.5026,8.26 L 14.5026,8.1813 L 14.5026,8.1025 L 14.5026,8.0237 L 14.5026,7.945 L 14.5026,7.8662 L 14.5026,7.7875 L 14.5026,7.7087 L 14.5026,7.6299 L 14.5026,7.5512 L 14.5026,7.4724 L 14.5026,7.3937 L 14.5026,7.3149 L 14.5026,7.2361 L 14.5026,7.1574 L 14.5026,7.0786 L 14.5026,6.9999 L 14.5026,6.9211 L 14.5026,6.8423 L 14.5026,6.7636 L 14.5026,6.6848 L 14.5026,6.6061 L 14.5026,6.5273 L 14.5026,6.4485 L 14.5026,6.3698 L 14.5026,6.291 L 14.5026,6.2123 L 14.5026,6.1335 L 14.5026,6.0548 L 14.5026,5.976 L 14.5026,5.8972 L 14.5026,5.8185 L 14.5026,5.7397 L 14.5026,5.661 L 14.5026,5.5822 L 14.5026,5.5034 L 14.5026,5.4247 L 14.5026,5.3459 L 14.5026,5.2672 L 14.5026,5.1884 L 14.5026,5.1096 L 14.5026,5.0309 L 14.5026,4.9521 L 14.5026,4.8734 L 14.5026,4.7946 L 14.5026,4.7158 L 14.5026,4.6371" />
      <path d="M 14.5026,4.6371 L 14.5025,4.6371 L 14.5024,4.6371 L 14.5023,4.6371 L 14.5022,4.6371 L 14.5021,4.6371 L 14.502,4.6371 L 14.5019,4.6371 L 14.5018,4.6371" />
      <path d="M 24.5022,-10.5 L 24.4161,-10.5 L 24.33,-10.5 L 24.2439,-10.5 L 24.1577,-10.5 L 24.0716,-10.5 L 23.9855,-10.5 L 23.8994,-10.5 L 23.8133,-10.5 L 23.7272,-10.5 L 23.6411,-10.5 L 23.555,-10.5 L 23.4689,-10.5 L 23.3827,-10.5 L 23.2966,-10.5 L 23.2105,-10.5 L 23.1244,-10.5 L 23.0383,-10.5 L 22.9522,-10.5 L 22.8661,-10.5 L 22.78,-10.5 L 22.6939,-10.5 L 22.6077,-10.5 L 22.5216,-10.5 L 22.4355,-10.5 L 22.3494,-10.5 L 22.2633,-10.5 L 22.1772,-10.5 L 22.0911,-10.5 L 22.005,-10.5 L 21.9189,-10.5 L 21.8327,-10.5 L 21.7466,-10.5 L 21.6605,-10.5 L 21.5744,-10.5 L 21.4883,-10.5 L 21.4022,-10.5 L 21.3161,-10.5 L 21.23,-10.5 L 21.1439,-10.5 L 21.0577,-10.5 L 20.9716,-10.5 L 20.8855,-10.5 L 20.7994,-10.5 L 20.7133,-10.5 L 20.6272,-10.5 L 20.5411,-10.5 L 20.455,-10.5 L 20.3689,-10.5 L 20.2827,-10.5 L 20.1966,-10.5 L 20.1105,-10.5 L 20.0244,-10.5 L 19.9383,-10.5 L 19.8522,-10.5 L 19.7661,-10.5 L 19.68,-10.5 L 19.5939,-10.5 L 19.5077,-10.5 L 19.4216,-10.5 L 19.3355,-10.5 L 19.2494,-10.5 L 19.1633,-10.5 L 19.0772,-10.5 L 18.9911,-10.5 L 18.905,-10.5 L 18.8189,-10.5 L 18.7327,-10.5 L 18.6466,-10.5 L 18.5605,-10.5 L 18.4744,-10.5 L 18.3883,-10.5 L 18.3022,-10.5" />
    </g>
    <g fill="none" stroke="rgb(110,110,110)" stroke-width="0.3" id="Hidden" stroke-dasharray="3.6 0.9">
      <path d="M 0.0,10.5 L -0.9151,10.46 L -1.8233,10.3405 L -2.7176,10.1422 L -3.5912,9.8668 L -4.4375,9.5162 L -5.25,9.0933 L -6.0226,8.6011 L -6.7493,8.0435 L -7.4246,7.4246 L -8.0435,6.7493 L -8.6011,6.0226 L -9.0933,5.25 L -9.5162,4.4375 L -9.8668,3.5912 L -10.1422,2.7176 L -10.3405,1.8233 L -10.46,0.9151 L -10.5,0.0 L -10.46,-0.9151 L -10.3405,-1.8233 L -10.1422,-2.7176 L -9.8668,-3.5912 L -9.5162,-4.4375 L -9.0933,-5.25 L -8.6011,-6.0226 L -8.0435,-6.7493 L -7.4246,-7.4246 L -6.7493,-8.0435 L -6.0226,-8.6011 L -5.25,-9.0933 L -4.4375,-9.5162 L -3.5912,-9.8668 L -2.7176,-10.1422 L -1.8233,-10.3405 L -0.9151,-10.46 L -0.0,-10.5 L 0.9151,-10.46 L 1.8233,-10.3405 L 2.7176,-10.1422 L 3.5912,-9.8668 L 4.4375,-9.5162 L 5.25,-9.0933 L 6.0226,-8.6011 L 6.7493,-8.0435 L 7.4246,-7.4246 L 8.0435,-6.7493 L 8.6011,-6.0226 L 9.0933,-5.25 L 9.5162,-4.4375 L 9.8668,-3.5912 L 10.1422,-2.7176 L 10.3405,-1.8233 L 10.46,-0.9151 L 10.5,-0.0 L 10.46,0.9151 L 10.3405,1.8233 L 10.1422,2.7176 L 9.8668,3.5912 L 9.5162,4.4375 L 9.0933,5.25 L 8.6011,6.0226 L 8.0435,6.7493 L 7.4246,7.4246 L 6.7493,8.0435 L 6.0226,8.6011 L 5.25,9.0933 L 4.4375,9.5162 L 3.5912,9.8668 L 2.7176,10.1422 L 1.8233,10.3405 L 0.9151,10.46 L 0.0,10.5" />
      <path d="M -2.0,-10.3078 L -2.0,-10.229 L -2.0,-10.1502 L -2.0,-10.0715 L -2.0,-9.9927 L -2.0,-9.914 L -2.0,-9.8352 L -2.0,-9.7564 L -2.0,-9.6777 L -2.0,-9.5989 L -2.0,-9.5202 L -2.0,-9.4414 L -2.0,-9.3626 L -2.0,-9.2839 L -2.0,-9.2051 L -2.0,-9.1264 L -2.0,-9.0476 L -2.0,-8.9689 L -2.0,-8.8901 L -2.0,-8.8113 L -2.0,-8.7326 L -2.0,-8.6538 L -2.0,-8.5751 L -2.0,-8.4963 L -2.0,-8.4175 L -2.0,-8.3388 L -2.0,-8.26 L -2.0,-8.1813 L -2.0,-8.1025 L -2.0,-8.0237 L -2.0,-7.945 L -2.0,-7.8662 L -2.0,-7.7875 L -2.0,-7.7087 L -2.0,-7.6299 L -2.0,-7.5512 L -2.0,-7.4724 L -2.0,-7.3937 L -2.0,-7.3149 L -2.0,-7.2361 L -2.0,-7.1574 L -2.0,-7.0786 L -2.0,-6.9999 L -2.0,-6.9211 L -2.0,-6.8423 L -2.0,-6.7636 L -2.0,-6.6848 L -2.0,-6.6061 L -2.0,-6.5273 L -2.0,-6.4485 L -2.0,-6.3698 L -2.0,-6.291 L -2.0,-6.2123 L -2.0,-6.1335 L -2.0,-6.0548 L -2.0,-5.976 L -2.0,-5.8972 L -2.0,-5.8185 L -2.0,-5.7397 L -2.0,-5.661 L -2.0,-5.5822 L -2.0,-5.5034 L -2.0,-5.4247 L -2.0,-5.3459 L -2.0,-5.2672 L -2.0,-5.1884 L -2.0,-5.1096 L -2.0,-5.0309 L -2.0,-4.9521 L -2.0,-4.8734 L -2.0,-4.7946 L -2.0,-4.7158 L -2.0,-4.6371" />
      <path d="M 2.0,-10.3078 L 2.0,-10.229 L 2.0,-10.1502 L 2.0,-10.0715 L 2.0,-9.9927 L 2.0,-9.914 L 2.0,-9.8352 L 2.0,-9.7564 L 2.0,-9.6777 L 2.0,-9.5989 L 2.0,-9.5202 L 2.0,-9.4414 L 2.0,-9.3626 L 2.0,-9.2839 L 2.0,-9.2051 L 2.0,-9.1264 L 2.0,-9.0476 L 2.0,-8.9689 L 2.0,-8.8901 L 2.0,-8.8113 L 2.0,-8.7326 L 2.0,-8.6538 L 2.0,-8.5751 L 2.0,-8.4963 L 2.0,-8.4175 L 2.0,-8.3388 L 2.0,-8.26 L 2.0,-8.1813 L 2.0,-8.1025 L 2.0,-8.0237 L 2.0,-7.945 L 2.0,-7.8662 L 2.0,-7.7875 L 2.0,-7.7087 L 2.0,-7.6299 L 2.0,-7.5512 L 2.0,-7.4724 L 2.0,-7.3937 L 2.0,-7.3149 L 2.0,-7.2361 L 2.0,-7.1574 L 2.0,-7.0786 L 2.0,-6.9999 L 2.0,-6.9211 L 2.0,-6.8423 L 2.0,-6.7636 L 2.0,-6.6848 L 2.0,-6.6061 L 2.0,-6.5273 L 2.0,-6.4485 L 2.0,-6.3698 L 2.0,-6.291 L 2.0,-6.2123 L 2.0,-6.1335 L 2.0,-6.0548 L 2.0,-5.976 L 2.0,-5.8972 L 2.0,-5.8185 L 2.0,-5.7397 L 2.0,-5.661 L 2.0,-5.5822 L 2.0,-5.5034 L 2.0,-5.4247 L 2.0,-5.3459 L 2.0,-5.2672 L 2.0,-5.1884 L 2.0,-5.1096 L 2.0,-5.0309 L 2.0,-4.9521 L 2.0,-4.8734 L 2.0,-4.7946 L 2.0,-4.7158 L 2.0,-4.6371" />
      <path d="M 2.0,4.6371 L 2.0,4.7158 L 2.0,4.7946 L 2.0,4.8734 L 2.0,4.9521 L 2.0,5.0309 L 2.0,5.1096 L 2.0,5.1884 L 2.0,5.2672 L 2.0,5.3459 L 2.0,5.4247 L 2.0,5.5034 L 2.0,5.5822 L 2.0,5.661 L 2.0,5.7397 L 2.0,5.8185 L 2.0,5.8972 L 2.0,5.976 L 2.0,6.0548 L 2.0,6.1335 L 2.0,6.2123 L 2.0,6.291 L 2.0,6.3698 L 2.0,6.4485 L 2.0,6.5273 L 2.0,6.6061 L 2.0,6.6848 L 2.0,6.7636 L 2.0,6.8423 L 2.0,6.9211 L 2.0,6.9999 L 2.0,7.0786 L 2.0,7.1574 L 2.0,7.2361 L 2.0,7.3149 L 2.0,7.3937 L 2.0,7.4724 L 2.0,7.5512 L 2.0,7.6299 L 2.0,7.7087 L 2.0,7.7875 L 2.0,7.8662 L 2.0,7.945 L 2.0,8.0237 L 2.0,8.1025 L 2.0,8.1813 L 2.0,8.26 L 2.0,8.3388 L 2.0,8.4175 L 2.0,8.4963 L 2.0,8.5751 L 2.0,8.6538 L 2.0,8.7326 L 2.0,8.8113 L 2.0,8.8901 L 2.0,8.9689 L 2.0,9.0476 L 2.0,9.1264 L 2.0,9.2051 L 2.0,9.2839 L 2.0,9.3626 L 2.0,9.4414 L 2.0,9.5202 L 2.0,9.5989 L 2.0,9.6777 L 2.0,9.7564 L 2.0,9.8352 L 2.0,9.914 L 2.0,9.9927 L 2.0,10.0715 L 2.0,10.1502 L 2.0,10.229 L 2.0,10.3078" />
      <path d="M -2.0,4.6371 L -2.0,4.7158 L -2.0,4.7946 L -2.0,4.8734 L -2.0,4.9521 L -2.0,5.0309 L -2.0,5.1096 L -2.0,5.1884 L -2.0,5.2672 L -2.0,5.3459 L -2.0,5.4247 L -2.0,5.5034 L -2.0,5.5822 L -2.0,5.661 L -2.0,5.7397 L -2.0,5.8185 L -2.0,5.8972 L -2.0,5.976 L -2.0,6.0548 L -2.0,6.1335 L -2.0,6.2123 L -2.0,6.291 L -2.0,6.3698 L -2.0,6.4485 L -2.0,6.5273 L -2.0,6.6061 L -2.0,6.6848 L -2.0,6.7636 L -2.0,6.8423 L -2.0,6.9211 L -2.0,6.9999 L -2.0,7.0786 L -2.0,7.1574 L -2.0,7.2361 L -2.0,7.3149 L -2.0,7.3937 L -2.0,7.4724 L -2.0,7.5512 L -2.0,7.6299 L -2.0,7.7087 L -2.0,7.7875 L -2.0,7.8662 L -2.0,7.945 L -2.0,8.0237 L -2.0,8.1025 L -2.0,8.1813 L -2.0,8.26 L -2.0,8.3388 L -2.0,8.4175 L -2.0,8.4963 L -2.0,8.5751 L -2.0,8.6538 L -2.0,8.7326 L -2.0,8.8113 L -2.0,8.8901 L -2.0,8.9689 L -2.0,9.0476 L -2.0,9.1264 L -2.0,9.2051 L -2.0,9.2839 L -2.0,9.3626 L -2.0,9.4414 L -2.0,9.5202 L -2.0,9.5989 L -2.0,9.6777 L -2.0,9.7564 L -2.0,9.8352 L -2.0,9.914 L -2.0,9.9927 L -2.0,10.0715 L -2.0,10.1502 L -2.0,10.229 L -2.0,10.3078" />
      <path d="M 0.0,5.05 L -0.4401,5.0308 L -0.8769,4.9733 L -1.307,4.8779 L -1.7272,4.7454 L -2.1342,4.5769 L -2.525,4.3734 L -2.8966,4.1367 L -3.2461,3.8685 L -3.5709,3.5709 L -3.8685,3.2461 L -4.1367,2.8966 L -4.3734,2.525 L -4.5769,2.1342 L -4.7454,1.7272 L -4.8779,1.307 L -4.9733,0.8769 L -5.0308,0.4401 L -5.05,-0.0 L -5.0308,-0.4401 L -4.9733,-0.8769 L -4.8779,-1.307 L -4.7454,-1.7272 L -4.5769,-2.1342 L -4.3734,-2.525 L -4.1367,-2.8966 L -3.8685,-3.2461 L -3.5709,-3.5709 L -3.2461,-3.8685 L -2.8966,-4.1367 L -2.525,-4.3734 L -2.1342,-4.5769 L -1.7272,-4.7454 L -1.307,-4.8779 L -0.8769,-4.9733 L -0.4401,-5.0308 L 0.0,-5.05 L 0.4401,-5.0308 L 0.8769,-4.9733 L 1.307,-4.8779 L 1.7272,-4.7454 L 2.1342,-4.5769 L 2.525,-4.3734 L 2.8966,-4.1367 L 3.2461,-3.8685 L 3.5709,-3.5709 L 3.8685,-3.2461 L 4.1367,-2.8966 L 4.3734,-2.525 L 4.5769,-2.1342 L 4.7454,-1.7272 L 4.8779,-1.307 L 4.9733,-0.8769 L 5.0308,-0.4401 L 5.05,0.0 L 5.0308,0.4401 L 4.9733,0.8769 L 4.8779,1.307 L 4.7454,1.7272 L 4.5769,2.1342 L 4.3734,2.525 L 4.1367,2.8966 L 3.8685,3.2461 L 3.5709,3.5709 L 3.2461,3.8685 L 2.8966,4.1367 L 2.525,4.3734 L 2.1342,4.5769 L 1.7272,4.7454 L 1.307,4.8779 L 0.8769,4.9733 L 0.4401,5.0308 L -0.0,5.05" />
      <path d="M 18.3018,-10.3078 L 18.249,-10.3078 L 18.1962,-10.3078 L 18.1435,-10.3078 L 18.0907,-10.3078 L 18.0379,-10.3078 L 17.9852,-10.3078 L 17.9324,-10.3078 L 17.8796,-10.3078 L 17.8269,-10.3078 L 17.7741,-10.3078 L 17.7213,-10.3078 L 17.6686,-10.3078 L 17.6158,-10.3078 L 17.563,-10.3078 L 17.5103,-10.3078 L 17.4575,-10.3078 L 17.4047,-10.3078 L 17.352,-10.3078 L 17.2992,-10.3078 L 17.2464,-10.3078 L 17.1937,-10.3078 L 17.1409,-10.3078 L 17.0882,-10.3078 L 17.0354,-10.3078 L 16.9826,-10.3078 L 16.9299,-10.3078 L 16.8771,-10.3078 L 16.8243,-10.3078 L 16.7716,-10.3078 L 16.7188,-10.3078 L 16.666,-10.3078 L 16.6133,-10.3078 L 16.5605,-10.3078 L 16.5077,-10.3078 L 16.455,-10.3078 L 16.4022,-10.3078 L 16.3494,-10.3078 L 16.2967,-10.3078 L 16.2439,-10.3078 L 16.1911,-10.3078 L 16.1384,-10.3078 L 16.0856,-10.3078 L 16.0328,-10.3078 L 15.9801,-10.3078 L 15.9273,-10.3078 L 15.8745,-10.3078 L 15.8218,-10.3078 L 15.769,-10.3078 L 15.7162,-10.3078 L 15.6635,-10.3078 L 15.6107,-10.3078 L 15.5579,-10.3078 L 15.5052,-10.3078 L 15.4524,-10.3078 L 15.3996,-10.3078 L 15.3469,-10.3078 L 15.2941,-10.3078 L 15.2413,-10.3078 L 15.1886,-10.3078 L 15.1358,-10.3078 L 15.083,-10.3078 L 15.0303,-10.3078 L 14.9775,-10.3078 L 14.9247,-10.3078 L 14.872,-10.3078 L 14.8192,-10.3078 L 14.7664,-10.3078 L 14.7137,-10.3078 L 14.6609,-10.3078 L 14.6081,-10.3078 L 14.5554,-10.3078 L 14.5026,-10.3078" />
      <path d="M 24.5022,10.5 L 24.5017,10.2083 L 24.5015,9.9167 L 24.5013,9.625 L 24.5012,9.3333 L 24.5011,9.0417 L 24.501,8.75 L 24.5009,8.4583 L 24.5008,8.1667 L 24.5007,7.875 L 24.5007,7.5833 L 24.5006,7.2917 L 24.5006,7.0 L 24.5005,6.7083 L 24.5005,6.4167 L 24.5004,6.125 L 24.5004,5.8333 L 24.5003,5.5417 L 24.5003,5.25 L 24.5003,4.9583 L 24.5002,4.6667 L 24.5002,4.375 L 24.5002,4.0833 L 24.5001,3.7917 L 24.5001,3.5 L 24.5001,3.2083 L 24.5001,2.9167 L 24.5001,2.625 L 24.5001,2.3333 L 24.5,2.0417 L 24.5,1.75 L 24.5,1.4583 L 24.5,1.1667 L 24.5,0.875 L 24.5,0.5833 L 24.5,0.2917 L 24.5,0.0 L 24.5,-0.2917 L 24.5,-0.5833 L 24.5,-0.875 L 24.5,-1.1667 L 24.5,-1.4583 L 24.5,-1.75 L 24.5,-2.0417 L 24.5001,-2.3333 L 24.5001,-2.625 L 24.5001,-2.9167 L 24.5001,-3.2083 L 24.5001,-3.5 L 24.5001,-3.7917 L 24.5002,-4.0833 L 24.5002,-4.375 L 24.5002,-4.6667 L 24.5003,-4.9583 L 24.5003,-5.25 L 24.5003,-5.5417 L 24.5004,-5.8333 L 24.5004,-6.125 L 24.5005,-6.4167 L 24.5005,-6.7083 L 24.5006,-7.0 L 24.5006,-7.2917 L 24.5007,-7.5833 L 24.5007,-7.875 L 24.5008,-8.1667 L 24.5009,-8.4583 L 24.501,-8.75 L 24.5011,-9.0417 L 24.5012,-9.3333 L 24.5013,-9.625 L 24.5015,-9.9167 L 24.5017,-10.2083 L 24.5022,-10.5" />
      <path d="M 18.3018,10.3078 L 18.249,10.3078 L 18.1962,10.3078 L 18.1435,10.3078 L 18.0907,10.3078 L 18.0379,10.3078 L 17.9852,10.3078 L 17.9324,10.3078 L 17.8796,10.3078 L 17.8269,10.3078 L 17.7741,10.3078 L 17.7213,10.3078 L 17.6686,10.3078 L 17.6158,10.3078 L 17.563,10.3078 L 17.5103,10.3078 L 17.4575,10.3078 L 17.4047,10.3078 L 17.352,10.3078 L 17.2992,10.3078 L 17.2464,10.3078 L 17.1937,10.3078 L 17.1409,10.3078 L 17.0882,10.3078 L 17.0354,10.3078 L 16.9826,10.3078 L 16.9299,10.3078 L 16.8771,10.3078 L 16.8243,10.3078 L 16.7716,10.3078 L 16.7188,10.3078 L 16.666,10.3078 L 16.6133,10.3078 L 16.5605,10.3078 L 16.5077,10.3078 L 16.455,10.3078 L 16.4022,10.3078 L 16.3494,10.3078 L 16.2967,10.3078 L 16.2439,10.3078 L 16.1911,10.3078 L 16.1384,10.3078 L 16.0856,10.3078 L 16.0328,10.3078 L 15.9801,10.3078 L 15.9273,10.3078 L 15.8745,10.3078 L 15.8218,10.3078 L 15.769,10.3078 L 15.7162,10.3078 L 15.6635,10.3078 L 15.6107,10.3078 L 15.5579,10.3078 L 15.5052,10.3078 L 15.4524,10.3078 L 15.3996,10.3078 L 15.3469,10.3078 L 15.2941,10.3078 L 15.2413,10.3078 L 15.1886,10.3078 L 15.1358,10.3078 L 15.083,10.3078 L 15.0303,10.3078 L 14.9775,10.3078 L 14.9247,10.3078 L 14.872,10.3078 L 14.8192,10.3078 L 14.7664,10.3078 L 14.7137,10.3078 L 14.6609,10.3078 L 14.6081,10.3078 L 14.5554,10.3078 L 14.5026,10.3078" />
      <path d="M 18.3018,-10.3078 L 18.3018,-10.229 L 18.3018,-10.1502 L 18.3018,-10.0715 L 18.3018,-9.9927 L 18.3018,-9.914 L 18.3018,-9.8352 L 18.3018,-9.7564 L 18.3018,-9.6777 L 18.3018,-9.5989 L 18.3018,-9.5202 L 18.3018,-9.4414 L 18.3018,-9.3626 L 18.3018,-9.2839 L 18.3018,-9.2051 L 18.3018,-9.1264 L 18.3018,-9.0476 L 18.3018,-8.9689 L 18.3018,-8.8901 L 18.3018,-8.8113 L 18.3018,-8.7326 L 18.3018,-8.6538 L 18.3018,-8.5751 L 18.3018,-8.4963 L 18.3018,-8.4175 L 18.3018,-8.3388 L 18.3018,-8.26 L 18.3018,-8.1813 L 18.3018,-8.1025 L 18.3018,-8.0237 L 18.3018,-7.945 L 18.3018,-7.8662 L 18.3018,-7.7875 L 18.3018,-7.7087 L 18.3018,-7.6299 L 18.3018,-7.5512 L 18.3018,-7.4724 L 18.3018,-7.3937 L 18.3018,-7.3149 L 18.3018,-7.2361 L 18.3018,-7.1574 L 18.3018,-7.0786 L 18.3018,-6.9999 L 18.3018,-6.9211 L 18.3018,-6.8423 L 18.3018,-6.7636 L 18.3018,-6.6848 L 18.3018,-6.6061 L 18.3018,-6.5273 L 18.3018,-6.4485 L 18.3018,-6.3698 L 18.3018,-6.291 L 18.3018,-6.2123 L 18.3018,-6.1335 L 18.3018,-6.0548 L 18.3018,-5.976 L 18.3018,-5.8972 L 18.3018,-5.8185 L 18.3018,-5.7397 L 18.3018,-5.661 L 18.3018,-5.5822 L 18.3018,-5.5034 L 18.3018,-5.4247 L 18.3018,-5.3459 L 18.3018,-5.2672 L 18.3018,-5.1884 L 18.3018,-5.1096 L 18.3018,-5.0309 L 18.3018,-4.9521 L 18.3018,-4.8734 L 18.3018,-4.7946 L 18.3018,-4.7158 L 18.3018,-4.6371" />
      <path d="M 18.3018,-4.6371 L 18.249,-4.6371 L 18.1962,-4.6371 L 18.1435,-4.6371 L 18.0907,-4.6371 L 18.0379,-4.6371 L 17.9852,-4.6371 L 17.9324,-4.6371 L 17.8796,-4.6371 L 17.8269,-4.6371 L 17.7741,-4.6371 L 17.7213,-4.6371 L 17.6686,-4.6371 L 17.6158,-4.6371 L 17.563,-4.6371 L 17.5103,-4.6371 L 17.4575,-4.6371 L 17.4047,-4.6371 L 17.352,-4.6371 L 17.2992,-4.6371 L 17.2464,-4.6371 L 17.1937,-4.6371 L 17.1409,-4.6371 L 17.0882,-4.6371 L 17.0354,-4.6371 L 16.9826,-4.6371 L 16.9299,-4.6371 L 16.8771,-4.6371 L 16.8243,-4.6371 L 16.7716,-4.6371 L 16.7188,-4.6371 L 16.666,-4.6371 L 16.6133,-4.6371 L 16.5605,-4.6371 L 16.5077,-4.6371 L 16.455,-4.6371 L 16.4022,-4.6371 L 16.3494,-4.6371 L 16.2967,-4.6371 L 16.2439,-4.6371 L 16.1911,-4.6371 L 16.1384,-4.6371 L 16.0856,-4.6371 L 16.0328,-4.6371 L 15.9801,-4.6371 L 15.9273,-4.6371 L 15.8745,-4.6371 L 15.8218,-4.6371 L 15.769,-4.6371 L 15.7162,-4.6371 L 15.6635,-4.6371 L 15.6107,-4.6371 L 15.5579,-4.6371 L 15.5052,-4.6371 L 15.4524,-4.6371 L 15.3996,-4.6371 L 15.3469,-4.6371 L 15.2941,-4.6371 L 15.2413,-4.6371 L 15.1886,-4.6371 L 15.1358,-4.6371 L 15.083,-4.6371 L 15.0303,-4.6371 L 14.9775,-4.6371 L 14.9247,-4.6371 L 14.872,-4.6371 L 14.8192,-4.6371 L 14.7664,-4.6371 L 14.7137,-4.6371 L 14.6609,-4.6371 L 14.6081,-4.6371 L 14.5554,-4.6371 L 14.5026,-4.6371" />
      <path d="M 18.3018,-4.6371 L 18.3018,-4.6428 L 18.3018,-4.6485 L 18.3018,-4.6543 L 18.3018,-4.66 L 18.3018,-4.6658 L 18.3018,-4.6715 L 18.3018,-4.6772 L 18.3018,-4.683 L 18.3018,-4.6887 L 18.3018,-4.6944 L 18.3018,-4.7002 L 18.3018,-4.7059 L 18.3018,-4.7116 L 18.3018,-4.7174 L 18.3018,-4.7231 L 18.3018,-4.7288 L 18.3018,-4.7346 L 18.3018,-4.7403 L 18.3018,-4.746 L 18.3018,-4.7518 L 18.3018,-4.7575 L 18.3018,-4.7632 L 18.3018,-4.769 L 18.3018,-4.7747 L 18.3019,-4.7805 L 18.3019,-4.7862 L 18.3019,-4.7919 L 18.3019,-4.7977 L 18.3019,-4.8034 L 18.3019,-4.8091 L 18.3019,-4.8149 L 18.3019,-4.8206 L 18.3019,-4.8263 L 18.3019,-4.8321 L 18.3019,-4.8378 L 18.3019,-4.8435 L 18.3019,-4.8493 L 18.3019,-4.855 L 18.3019,-4.8607 L 18.3019,-4.8665 L 18.3019,-4.8722 L 18.3019,-4.8779 L 18.3019,-4.8837 L 18.3019,-4.8894 L 18.3019,-4.8952 L 18.3019,-4.9009 L 18.3019,-4.9066 L 18.3019,-4.9124 L 18.302,-4.9181 L 18.302,-4.9238 L 18.302,-4.9296 L 18.302,-4.9353 L 18.302,-4.941 L 18.302,-4.9468 L 18.302,-4.9525 L 18.302,-4.9582 L 18.302,-4.964 L 18.302,-4.9697 L 18.302,-4.9754 L 18.302,-4.9812 L 18.302,-4.9869 L 18.302,-4.9927 L 18.302,-4.9984 L 18.302,-5.0041 L 18.3021,-5.0099 L 18.3021,-5.0156 L 18.3021,-5.0213 L 18.3021,-5.0271 L 18.3021,-5.0328 L 18.3021,-5.0385 L 18.3021,-5.0443 L 18.3022,-5.05" />
      <path d="M 18.3022,-5.05 L 18.3022,-5.0443 L 18.3023,-5.0385 L 18.3023,-5.0328 L 18.3023,-5.0271 L 18.3023,-5.0213 L 18.3023,-5.0156 L 18.3023,-5.0099 L 18.3023,-5.0041 L 18.3023,-4.9984 L 18.3023,-4.9927 L 18.3024,-4.9869 L 18.3024,-4.9812 L 18.3024,-4.9754 L 18.3024,-4.9697 L 18.3024,-4.964 L 18.3024,-4.9582 L 18.3024,-4.9525 L 18.3024,-4.9468 L 18.3024,-4.941 L 18.3024,-4.9353 L 18.3024,-4.9296 L 18.3024,-4.9238 L 18.3024,-4.9181 L 18.3024,-4.9124 L 18.3024,-4.9066 L 18.3024,-4.9009 L 18.3024,-4.8952 L 18.3025,-4.8894 L 18.3025,-4.8837 L 18.3025,-4.8779 L 18.3025,-4.8722 L 18.3025,-4.8665 L 18.3025,-4.8607 L 18.3025,-4.855 L 18.3025,-4.8493 L 18.3025,-4.8435 L 18.3025,-4.8378 L 18.3025,-4.8321 L 18.3025,-4.8263 L 18.3025,-4.8206 L 18.3025,-4.8149 L 18.3025,-4.8091 L 18.3025,-4.8034 L 18.3025,-4.7977 L 18.3025,-4.7919 L 18.3025,-4.7862 L 18.3025,-4.7805 L 18.3025,-4.7747 L 18.3025,-4.769 L 18.3025,-4.7632 L 18.3025,-4.7575 L 18.3025,-4.7518 L 18.3026,-4.746 L 18.3026,-4.7403 L 18.3026,-4.7346 L 18.3026,-4.7288 L 18.3026,-4.7231 L 18.3026,-4.7174 L 18.3026,-4.7116 L 18.3026,-4.7059 L 18.3026,-4.7002 L 18.3026,-4.6944 L 18.3026,-4.6887 L 18.3026,-4.683 L 18.3026,-4.6772 L 18.3026,-4.6715 L 18.3026,-4.6658 L 18.3026,-4.66 L 18.3026,-4.6543 L 18.3026,-4.6485 L 18.3026,-4.6428 L 18.3026,-4.6371" />
      <path d="M 18.3026,-10.3078 L 18.3026,-10.229 L 18.3026,-10.1502 L 18.3026,-10.0715 L 18.3026,-9.9927 L 18.3026,-9.914 L 18.3026,-9.8352 L 18.3026,-9.7564 L 18.3026,-9.6777 L 18.3026,-9.5989 L 18.3026,-9.5202 L 18.3026,-9.4414 L 18.3026,-9.3626 L 18.3026,-9.2839 L 18.3026,-9.2051 L 18.3026,-9.1264 L 18.3026,-9.0476 L 18.3026,-8.9689 L 18.3026,-8.8901 L 18.3026,-8.8113 L 18.3026,-8.7326 L 18.3026,-8.6538 L 18.3026,-8.5751 L 18.3026,-8.4963 L 18.3026,-8.4175 L 18.3026,-8.3388 L 18.3026,-8.26 L 18.3026,-8.1813 L 18.3026,-8.1025 L 18.3026,-8.0237 L 18.3026,-7.945 L 18.3026,-7.8662 L 18.3026,-7.7875 L 18.3026,-7.7087 L 18.3026,-7.6299 L 18.3026,-7.5512 L 18.3026,-7.4724 L 18.3026,-7.3937 L 18.3026,-7.3149 L 18.3026,-7.2361 L 18.3026,-7.1574 L 18.3026,-7.0786 L 18.3026,-6.9999 L 18.3026,-6.9211 L 18.3026,-6.8423 L 18.3026,-6.7636 L 18.3026,-6.6848 L 18.3026,-6.6061 L 18.3026,-6.5273 L 18.3026,-6.4485 L 18.3026,-6.3698 L 18.3026,-6.291 L 18.3026,-6.2123 L 18.3026,-6.1335 L 18.3026,-6.0548 L 18.3026,-5.976 L 18.3026,-5.8972 L 18.3026,-5.8185 L 18.3026,-5.7397 L 18.3026,-5.661 L 18.3026,-5.5822 L 18.3026,-5.5034 L 18.3026,-5.4247 L 18.3026,-5.3459 L 18.3026,-5.2672 L 18.3026,-5.1884 L 18.3026,-5.1096 L 18.3026,-5.0309 L 18.3026,-4.9521 L 18.3026,-4.8734 L 18.3026,-4.7946 L 18.3026,-4.7158 L 18.3026,-4.6371" />
      <path d="M 18.3026,-4.6371 L 18.2498,-4.6371 L 18.1971,-4.6371 L 18.1443,-4.6371 L 18.0915,-4.6371 L 18.0387,-4.6371 L 17.9859,-4.6371 L 17.9332,-4.6371 L 17.8804,-4.6371 L 17.8276,-4.6371 L 17.7748,-4.6371 L 17.7221,-4.6371 L 17.6693,-4.6371 L 17.6165,-4.6371 L 17.5637,-4.6371 L 17.5109,-4.6371 L 17.4582,-4.6371 L 17.4054,-4.6371 L 17.3526,-4.6371 L 17.2998,-4.6371 L 17.2471,-4.6371 L 17.1943,-4.6371 L 17.1415,-4.6371 L 17.0887,-4.6371 L 17.0359,-4.6371 L 16.9832,-4.6371 L 16.9304,-4.6371 L 16.8776,-4.6371 L 16.8248,-4.6371 L 16.7721,-4.6371 L 16.7193,-4.6371 L 16.6665,-4.6371 L 16.6137,-4.6371 L 16.5609,-4.6371 L 16.5082,-4.6371 L 16.4554,-4.6371 L 16.4026,-4.6371 L 16.3498,-4.6371 L 16.2971,-4.6371 L 16.2443,-4.6371 L 16.1915,-4.6371 L 16.1387,-4.6371 L 16.0859,-4.6371 L 16.0332,-4.6371 L 15.9804,-4.6371 L 15.9276,-4.6371 L 15.8748,-4.6371 L 15.8221,-4.6371 L 15.7693,-4.6371 L 15.7165,-4.6371 L 15.6637,-4.6371 L 15.6109,-4.6371 L 15.5582,-4.6371 L 15.5054,-4.6371 L 15.4526,-4.6371 L 15.3998,-4.6371 L 15.3471,-4.6371 L 15.2943,-4.6371 L 15.2415,-4.6371 L 15.1887,-4.6371 L 15.1359,-4.6371 L 15.0832,-4.6371 L 15.0304,-4.6371 L 14.9776,-4.6371 L 14.9248,-4.6371 L 14.8721,-4.6371 L 14.8193,-4.6371 L 14.7665,-4.6371 L 14.7137,-4.6371 L 14.6609,-4.6371 L 14.6082,-4.6371 L 14.5554,-4.6371 L 14.5026,-4.6371" />
      <path d="M 18.3026,4.6371 L 18.3026,4.7158 L 18.3026,4.7946 L 18.3026,4.8734 L 18.3026,4.9521 L 18.3026,5.0309 L 18.3026,5.1096 L 18.3026,5.1884 L 18.3026,5.2672 L 18.3026,5.3459 L 18.3026,5.4247 L 18.3026,5.5034 L 18.3026,5.5822 L 18.3026,5.661 L 18.3026,5.7397 L 18.3026,5.8185 L 18.3026,5.8972 L 18.3026,5.976 L 18.3026,6.0548 L 18.3026,6.1335 L 18.3026,6.2123 L 18.3026,6.291 L 18.3026,6.3698 L 18.3026,6.4485 L 18.3026,6.5273 L 18.3026,6.6061 L 18.3026,6.6848 L 18.3026,6.7636 L 18.3026,6.8423 L 18.3026,6.9211 L 18.3026,6.9999 L 18.3026,7.0786 L 18.3026,7.1574 L 18.3026,7.2361 L 18.3026,7.3149 L 18.3026,7.3937 L 18.3026,7.4724 L 18.3026,7.5512 L 18.3026,7.6299 L 18.3026,7.7087 L 18.3026,7.7875 L 18.3026,7.8662 L 18.3026,7.945 L 18.3026,8.0237 L 18.3026,8.1025 L 18.3026,8.1813 L 18.3026,8.26 L 18.3026,8.3388 L 18.3026,8.4175 L 18.3026,8.4963 L 18.3026,8.5751 L 18.3026,8.6538 L 18.3026,8.7326 L 18.3026,8.8113 L 18.3026,8.8901 L 18.3026,8.9689 L 18.3026,9.0476 L 18.3026,9.1264 L 18.3026,9.2051 L 18.3026,9.2839 L 18.3026,9.3626 L 18.3026,9.4414 L 18.3026,9.5202 L 18.3026,9.5989 L 18.3026,9.6777 L 18.3026,9.7564 L 18.3026,9.8352 L 18.3026,9.914 L 18.3026,9.9927 L 18.3026,10.0715 L 18.3026,10.1502 L 18.3026,10.229 L 18.3026,10.3078" />
      <path d="M 18.3026,4.6371 L 18.2498,4.6371 L 18.1971,4.6371 L 18.1443,4.6371 L 18.0915,4.6371 L 18.0387,4.6371 L 17.9859,4.6371 L 17.9332,4.6371 L 17.8804,4.6371 L 17.8276,4.6371 L 17.7748,4.6371 L 17.7221,4.6371 L 17.6693,4.6371 L 17.6165,4.6371 L 17.5637,4.6371 L 17.5109,4.6371 L 17.4582,4.6371 L 17.4054,4.6371 L 17.3526,4.6371 L 17.2998,4.6371 L 17.2471,4.6371 L 17.1943,4.6371 L 17.1415,4.6371 L 17.0887,4.6371 L 17.0359,4.6371 L 16.9832,4.6371 L 16.9304,4.6371 L 16.8776,4.6371 L 16.8248,4.6371 L 16.7721,4.6371 L 16.7193,4.6371 L 16.6665,4.6371 L 16.6137,4.6371 L 16.5609,4.6371 L 16.5082,4.6371 L 16.4554,4.6371 L 16.4026,4.6371 L 16.3498,4.6371 L 16.2971,4.6371 L 16.2443,4.6371 L 16.1915,4.6371 L 16.1387,4.6371 L 16.0859,4.6371 L 16.0332,4.6371 L 15.9804,4.6371 L 15.9276,4.6371 L 15.8748,4.6371 L 15.8221,4.6371 L 15.7693,4.6371 L 15.7165,4.6371 L 15.6637,4.6371 L 15.6109,4.6371 L 15.5582,4.6371 L 15.5054,4.6371 L 15.4526,4.6371 L 15.3998,4.6371 L 15.3471,4.6371 L 15.2943,4.6371 L 15.2415,4.6371 L 15.1887,4.6371 L 15.1359,4.6371 L 15.0832,4.6371 L 15.0304,4.6371 L 14.9776,4.6371 L 14.9248,4.6371 L 14.8721,4.6371 L 14.8193,4.6371 L 14.7665,4.6371 L 14.7137,4.6371 L 14.6609,4.6371 L 14.6082,4.6371 L 14.5554,4.6371 L 14.5026,4.6371" />
      <path d="M 18.3018,4.6371 L 18.3018,4.7158 L 18.3018,4.7946 L 18.3018,4.8734 L 18.3018,4.9521 L 18.3018,5.0309 L 18.3018,5.1096 L 18.3018,5.1884 L 18.3018,5.2672 L 18.3018,5.3459 L 18.3018,5.4247 L 18.3018,5.5034 L 18.3018,5.5822 L 18.3018,5.661 L 18.3018,5.7397 L 18.3018,5.8185 L 18.3018,5.8972 L 18.3018,5.976 L 18.3018,6.0548 L 18.3018,6.1335 L 18.3018,6.2123 L 18.3018,6.291 L 18.3018,6.3698 L 18.3018,6.4485 L 18.3018,6.5273 L 18.3018,6.6061 L 18.3018,6.6848 L 18.3018,6.7636 L 18.3018,6.8423 L 18.3018,6.9211 L 18.3018,6.9999 L 18.3018,7.0786 L 18.3018,7.1574 L 18.3018,7.2361 L 18.3018,7.3149 L 18.3018,7.3937 L 18.3018,7.4724 L 18.3018,7.5512 L 18.3018,7.6299 L 18.3018,7.7087 L 18.3018,7.7875 L 18.3018,7.8662 L 18.3018,7.945 L 18.3018,8.0237 L 18.3018,8.1025 L 18.3018,8.1813 L 18.3018,8.26 L 18.3018,8.3388 L 18.3018,8.4175 L 18.3018,8.4963 L 18.3018,8.5751 L 18.3018,8.6538 L 18.3018,8.7326 L 18.3018,8.8113 L 18.3018,8.8901 L 18.3018,8.9689 L 18.3018,9.0476 L 18.3018,9.1264 L 18.3018,9.2051 L 18.3018,9.2839 L 18.3018,9.3626 L 18.3018,9.4414 L 18.3018,9.5202 L 18.3018,9.5989 L 18.3018,9.6777 L 18.3018,9.7564 L 18.3018,9.8352 L 18.3018,9.914 L 18.3018,9.9927 L 18.3018,10.0715 L 18.3018,10.1502 L 18.3018,10.229 L 18.3018,10.3078" />
      <path d="M 18.3026,4.6371 L 18.3026,4.6428 L 18.3026,4.6485 L 18.3026,4.6543 L 18.3026,4.66 L 18.3026,4.6658 L 18.3026,4.6715 L 18.3026,4.6772 L 18.3026,4.683 L 18.3026,4.6887 L 18.3026,4.6944 L 18.3026,4.7002 L 18.3026,4.7059 L 18.3026,4.7116 L 18.3026,4.7174 L 18.3026,4.7231 L 18.3026,4.7288 L 18.3026,4.7346 L 18.3026,4.7403 L 18.3026,4.746 L 18.3025,4.7518 L 18.3025,4.7575 L 18.3025,4.7632 L 18.3025,4.769 L 18.3025,4.7747 L 18.3025,4.7805 L 18.3025,4.7862 L 18.3025,4.7919 L 18.3025,4.7977 L 18.3025,4.8034 L 18.3025,4.8091 L 18.3025,4.8149 L 18.3025,4.8206 L 18.3025,4.8263 L 18.3025,4.8321 L 18.3025,4.8378 L 18.3025,4.8435 L 18.3025,4.8493 L 18.3025,4.855 L 18.3025,4.8607 L 18.3025,4.8665 L 18.3025,4.8722 L 18.3025,4.8779 L 18.3025,4.8837 L 18.3025,4.8894 L 18.3024,4.8952 L 18.3024,4.9009 L 18.3024,4.9066 L 18.3024,4.9124 L 18.3024,4.9181 L 18.3024,4.9238 L 18.3024,4.9296 L 18.3024,4.9353 L 18.3024,4.941 L 18.3024,4.9468 L 18.3024,4.9525 L 18.3024,4.9582 L 18.3024,4.964 L 18.3024,4.9697 L 18.3024,4.9754 L 18.3024,4.9812 L 18.3024,4.9869 L 18.3023,4.9927 L 18.3023,4.9984 L 18.3023,5.0041 L 18.3023,5.0099 L 18.3023,5.0156 L 18.3023,5.0213 L 18.3023,5.0271 L 18.3023,5.0328 L 18.3023,5.0385 L 18.3022,5.0443 L 18.3022,5.05" />
      <path d="M 18.3022,5.05 L 18.3021,5.0443 L 18.3021,5.0385 L 18.3021,5.0328 L 18.3021,5.0271 L 18.3021,5.0213 L 18.3021,5.0156 L 18.3021,5.0099 L 18.302,5.0041 L 18.302,4.9984 L 18.302,4.9927 L 18.302,4.9869 L 18.302,4.9812 L 18.302,4.9754 L 18.302,4.9697 L 18.302,4.964 L 18.302,4.9582 L 18.302,4.9525 L 18.302,4.9468 L 18.302,4.941 L 18.302,4.9353 L 18.302,4.9296 L 18.302,4.9238 L 18.302,4.9181 L 18.3019,4.9124 L 18.3019,4.9066 L 18.3019,4.9009 L 18.3019,4.8952 L 18.3019,4.8894 L 18.3019,4.8837 L 18.3019,4.8779 L 18.3019,4.8722 L 18.3019,4.8665 L 18.3019,4.8607 L 18.3019,4.855 L 18.3019,4.8493 L 18.3019,4.8435 L 18.3019,4.8378 L 18.3019,4.8321 L 18.3019,4.8263 L 18.3019,4.8206 L 18.3019,4.8149 L 18.3019,4.8091 L 18.3019,4.8034 L 18.3019,4.7977 L 18.3019,4.7919 L 18.3019,4.7862 L 18.3019,4.7805 L 18.3018,4.7747 L 18.3018,4.769 L 18.3018,4.7632 L 18.3018,4.7575 L 18.3018,4.7518 L 18.3018,4.746 L 18.3018,4.7403 L 18.3018,4.7346 L 18.3018,4.7288 L 18.3018,4.7231 L 18.3018,4.7174 L 18.3018,4.7116 L 18.3018,4.7059 L 18.3018,4.7002 L 18.3018,4.6944 L 18.3018,4.6887 L 18.3018,4.683 L 18.3018,4.6772 L 18.3018,4.6715 L 18.3018,4.6658 L 18.3018,4.66 L 18.3018,4.6543 L 18.3018,4.6485 L 18.3018,4.6428 L 18.3018,4.6371" />
      <path d="M 24.5022,5.05 L 24.5019,4.9097 L 24.5018,4.7694 L 24.5018,4.6292 L 24.5017,4.4889 L 24.5017,4.3486 L 24.5016,4.2083 L 24.5016,4.0681 L 24.5015,3.9278 L 24.5015,3.7875 L 24.5015,3.6472 L 24.5014,3.5069 L 24.5014,3.3667 L 24.5014,3.2264 L 24.5014,3.0861 L 24.5013,2.9458 L 24.5013,2.8056 L 24.5013,2.6653 L 24.5013,2.525 L 24.5013,2.3847 L 24.5012,2.2444 L 24.5012,2.1042 L 24.5012,1.9639 L 24.5012,1.8236 L 24.5012,1.6833 L 24.5012,1.5431 L 24.5012,1.4028 L 24.5012,1.2625 L 24.5012,1.1222 L 24.5012,0.9819 L 24.5012,0.8417 L 24.5011,0.7014 L 24.5011,0.5611 L 24.5011,0.4208 L 24.5011,0.2806 L 24.5011,0.1403 L 24.5011,0.0 L 24.5011,-0.1403 L 24.5011,-0.2806 L 24.5011,-0.4208 L 24.5011,-0.5611 L 24.5011,-0.7014 L 24.5012,-0.8417 L 24.5012,-0.9819 L 24.5012,-1.1222 L 24.5012,-1.2625 L 24.5012,-1.4028 L 24.5012,-1.5431 L 24.5012,-1.6833 L 24.5012,-1.8236 L 24.5012,-1.9639 L 24.5012,-2.1042 L 24.5012,-2.2444 L 24.5013,-2.3847 L 24.5013,-2.525 L 24.5013,-2.6653 L 24.5013,-2.8056 L 24.5013,-2.9458 L 24.5014,-3.0861 L 24.5014,-3.2264 L 24.5014,-3.3667 L 24.5014,-3.5069 L 24.5015,-3.6472 L 24.5015,-3.7875 L 24.5015,-3.9278 L 24.5016,-4.0681 L 24.5016,-4.2083 L 24.5017,-4.3486 L 24.5017,-4.4889 L 24.5018,-4.6292 L 24.5018,-4.7694 L 24.5019,-4.9097 L 24.5022,-5.05" />
      <path d="M 24.5022,-5.05 L 24.5024,-4.9097 L 24.5025,-4.7694 L 24.5026,-4.6292 L 24.5027,-4.4889 L 24.5027,-4.3486 L 24.5028,-4.2083 L 24.5028,-4.0681 L 24.5029,-3.9278 L 24.5029,-3.7875 L 24.5029,-3.6472 L 24.5029,-3.5069 L 24.503,-3.3667 L 24.503,-3.2264 L 24.503,-3.0861 L 24.503,-2.9458 L 24.5031,-2.8056 L 24.5031,-2.6653 L 24.5031,-2.525 L 24.5031,-2.3847 L 24.5031,-2.2444 L 24.5031,-2.1042 L 24.5032,-1.9639 L 24.5032,-1.8236 L 24.5032,-1.6833 L 24.5032,-1.5431 L 24.5032,-1.4028 L 24.5032,-1.2625 L 24.5032,-1.1222 L 24.5032,-0.9819 L 24.5032,-0.8417 L 24.5032,-0.7014 L 24.5032,-0.5611 L 24.5032,-0.4208 L 24.5032,-0.2806 L 24.5032,-0.1403 L 24.5032,0.0 L 24.5032,0.1403 L 24.5032,0.2806 L 24.5032,0.4208 L 24.5032,0.5611 L 24.5032,0.7014 L 24.5032,0.8417 L 24.5032,0.9819 L 24.5032,1.1222 L 24.5032,1.2625 L 24.5032,1.4028 L 24.5032,1.5431 L 24.5032,1.6833 L 24.5032,1.8236 L 24.5032,1.9639 L 24.5031,2.1042 L 24.5031,2.2444 L 24.5031,2.3847 L 24.5031,2.525 L 24.5031,2.6653 L 24.5031,2.8056 L 24.503,2.9458 L 24.503,3.0861 L 24.503,3.2264 L 24.503,3.3667 L 24.5029,3.5069 L 24.5029,3.6472 L 24.5029,3.7875 L 24.5029,3.9278 L 24.5028,4.0681 L 24.5028,4.2083 L 24.5027,4.3486 L 24.5027,4.4889 L 24.5026,4.6292 L 24.5025,4.7694 L 24.5024,4.9097 L 24.5022,5.05" />
      <path d="M 18.3018,4.6371 L 18.249,4.6371 L 18.1962,4.6371 L 18.1435,4.6371 L 18.0907,4.6371 L 18.0379,4.6371 L 17.9852,4.6371 L 17.9324,4.6371 L 17.8796,4.6371 L 17.8269,4.6371 L 17.7741,4.6371 L 17.7213,4.6371 L 17.6686,4.6371 L 17.6158,4.6371 L 17.563,4.6371 L 17.5103,4.6371 L 17.4575,4.6371 L 17.4047,4.6371 L 17.352,4.6371 L 17.2992,4.6371 L 17.2464,4.6371 L 17.1937,4.6371 L 17.1409,4.6371 L 17.0882,4.6371 L 17.0354,4.6371 L 16.9826,4.6371 L 16.9299,4.6371 L 16.8771,4.6371 L 16.8243,4.6371 L 16.7716,4.6371 L 16.7188,4.6371 L 16.666,4.6371 L 16.6133,4.6371 L 16.5605,4.6371 L 16.5077,4.6371 L 16.455,4.6371 L 16.4022,4.6371 L 16.3494,4.6371 L 16.2967,4.6371 L 16.2439,4.6371 L 16.1911,4.6371 L 16.1384,4.6371 L 16.0856,4.6371 L 16.0328,4.6371 L 15.9801,4.6371 L 15.9273,4.6371 L 15.8745,4.6371 L 15.8218,4.6371 L 15.769,4.6371 L 15.7162,4.6371 L 15.6635,4.6371 L 15.6107,4.6371 L 15.5579,4.6371 L 15.5052,4.6371 L 15.4524,4.6371 L 15.3996,4.6371 L 15.3469,4.6371 L 15.2941,4.6371 L 15.2413,4.6371 L 15.1886,4.6371 L 15.1358,4.6371 L 15.083,4.6371 L 15.0303,4.6371 L 14.9775,4.6371 L 14.9247,4.6371 L 14.872,4.6371 L 14.8192,4.6371 L 14.7664,4.6371 L 14.7137,4.6371 L 14.6609,4.6371 L 14.6081,4.6371 L 14.5554,4.6371 L 14.5026,4.6371" />
      <path d="M 24.5022,5.05 L 24.4161,5.05 L 24.33,5.05 L 24.2439,5.05 L 24.1577,5.05 L 24.0716,5.05 L 23.9855,5.05 L 23.8994,5.05 L 23.8133,5.05 L 23.7272,5.05 L 23.6411,5.05 L 23.555,5.05 L 23.4689,5.05 L 23.3827,5.05 L 23.2966,5.05 L 23.2105,5.05 L 23.1244,5.05 L 23.0383,5.05 L 22.9522,5.05 L 22.8661,5.05 L 22.78,5.05 L 22.6939,5.05 L 22.6077,5.05 L 22.5216,5.05 L 22.4355,5.05 L 22.3494,5.05 L 22.2633,5.05 L 22.1772,5.05 L 22.0911,5.05 L 22.005,5.05 L 21.9189,5.05 L 21.8327,5.05 L 21.7466,5.05 L 21.6605,5.05 L 21.5744,5.05 L 21.4883,5.05 L 21.4022,5.05 L 21.3161,5.05 L 21.23,5.05 L 21.1439,5.05 L 21.0577,5.05 L 20.9716,5.05 L 20.8855,5.05 L 20.7994,5.05 L 20.7133,5.05 L 20.6272,5.05 L 20.5411,5.05 L 20.455,5.05 L 20.3689,5.05 L 20.2827,5.05 L 20.1966,5.05 L 20.1105,5.05 L 20.0244,5.05 L 19.9383,5.05 L 19.8522,5.05 L 19.7661,5.05 L 19.68,5.05 L 19.5939,5.05 L 19.5077,5.05 L 19.4216,5.05 L 19.3355,5.05 L 19.2494,5.05 L 19.1633,5.05 L 19.0772,5.05 L 18.9911,5.05 L 18.905,5.05 L 18.8189,5.05 L 18.7327,5.05 L 18.6466,5.05 L 18.5605,5.05 L 18.4744,5.05 L 18.3883,5.05 L 18.3022,5.05" />
      <path d="M 24.5022,-5.05 L 24.4161,-5.05 L 24.33,-5.05 L 24.2439,-5.05 L 24.1577,-5.05 L 24.0716,-5.05 L 23.9855,-5.05 L 23.8994,-5.05 L 23.8133,-5.05 L 23.7272,-5.05 L 23.6411,-5.05 L 23.555,-5.05 L 23.4689,-5.05 L 23.3827,-5.05 L 23.2966,-5.05 L 23.2105,-5.05 L 23.1244,-5.05 L 23.0383,-5.05 L 22.9522,-5.05 L 22.8661,-5.05 L 22.78,-5.05 L 22.6939,-5.05 L 22.6077,-5.05 L 22.5216,-5.05 L 22.4355,-5.05 L 22.3494,-5.05 L 22.2633,-5.05 L 22.1772,-5.05 L 22.0911,-5.05 L 22.005,-5.05 L 21.9189,-5.05 L 21.8327,-5.05 L 21.7466,-5.05 L 21.6605,-5.05 L 21.5744,-5.05 L 21.4883,-5.05 L 21.4022,-5.05 L 21.3161,-5.05 L 21.23,-5.05 L 21.1439,-5.05 L 21.0577,-5.05 L 20.9716,-5.05 L 20.8855,-5.05 L 20.7994,-5.05 L 20.7133,-5.05 L 20.6272,-5.05 L 20.5411,-5.05 L 20.455,-5.05 L 20.3689,-5.05 L 20.2827,-5.05 L 20.1966,-5.05 L 20.1105,-5.05 L 20.0244,-5.05 L 19.9383,-5.05 L 19.8522,-5.05 L 19.7661,-5.05 L 19.68,-5.05 L 19.5939,-5.05 L 19.5077,-5.05 L 19.4216,-5.05 L 19.3355,-5.05 L 19.2494,-5.05 L 19.1633,-5.05 L 19.0772,-5.05 L 18.9911,-5.05 L 18.905,-5.05 L 18.8189,-5.05 L 18.7327,-5.05 L 18.6466,-5.05 L 18.5605,-5.05 L 18.4744,-5.05 L 18.3883,-5.05 L 18.3022,-5.05" />
    </g>
    <g fill="none" stroke="rgb(0,0,0)" stroke-width="0.2" id="Center" stroke-dasharray="6.35 1.27 1.27 1.27">
      <line x1="0.0" y1="0.0" x2="-12.18" y2="0.0" />
      <line x1="0.0" y1="0.0" x2="12.18" y2="0.0" />
      <line x1="0.0" y1="0.0" x2="0.0" y2="-12.18" />
      <line x1="0.0" y1="0.0" x2="0.0" y2="12.18" />
      <line x1="19.5022" y1="0.0" x2="12.82" y2="0.0" />
      <line x1="19.5022" y1="0.0" x2="26.1844" y2="0.0" />
    </g>
  </g>
</svg>