<?xml version='1.0' encoding='utf-8'?>
<svg width="48.0425mm" height="33.9358mm" viewBox="-16.9679 -16.9679 48.0425 33.9358" version="1.1" xmlns="http://www.w3.org/2000/svg">
  <g transform="scale(1,-1)" stroke-linecap="round">
    <g fill="none" stroke="rgb(0,0,0)" stroke-width="0.4" id="Visible">
      <path d="M -12.7279,0.0 L -12.6395,0.0884 L -12.5511,0.1768 L -12.4628,0.2652 L -12.3744,0.3536 L -12.286,0.4419 L -12.1976,0.5303 L -12.1092,0.6187 L -12.0208,0.7071 L -11.9324,0.7955 L -11.844,0.8839 L -11.7557,0.9723 L -11.6673,1.0607 L -11.5789,1.149 L -11.4905,1.2374 L -11.4021,1.3258 L -11.3137,1.4142 L -11.2253,1.5026 L -11.1369,1.591 L -11.0485,1.6794 L -10.9602,1.7678 L -10.8718,1.8562 L -10.7834,1.9445 L -10.695,2.0329 L -10.6066,2.1213 L -10.5182,2.2097 L -10.4298,2.2981 L -10.3414,2.3865 L -10.253,2.4749 L -10.1647,2.5633 L -10.0763,2.6517 L -9.9879,2.74 L -9.8995,2.8284 L -9.8111,2.9168 L -9.7227,3.0052 L -9.6343,3.0936 L -9.5459,3.182 L -9.4576,3.2704 L -9.3692,3.3588 L -9.2808,3.4471 L -9.1924,3.5355 L -9.104,3.6239 L -9.0156,3.7123 L -8.9272,3.8007 L -8.8388,3.8891 L -8.7504,3.9775 L -8.6621,4.0659 L -8.5737,4.1543 L -8.4853,4.2426 L -8.3969,4.331 L -8.3085,4.4194 L -8.2201,4.5078 L -8.1317,4.5962 L -8.0433,4.6846 L -7.955,4.773 L -7.8666,4.8614 L -7.7782,4.9497 L -7.6898,5.0381 L -7.6014,5.1265 L -7.513,5.2149 L -7.4246,5.3033 L -7.3362,5.3917 L -7.2478,5.4801 L -7.1595,5.5685 L -7.0711,5.6569 L -6.9827,5.7452 L -6.8943,5.8336 L -6.8059,5.922 L -6.7175,6.0104 L -6.6291,6.0988 L -6.5407,6.1872 L -6.4523,6.2756 L -6.364,6.364" />
      <path d="M -6.364,6.364 L -6.2756,6.4523 L -6.1872,6.5407 L -6.0988,6.6291 L -6.0104,6.7175 L -5.922,6.8059 L -5.8336,6.8943 L -5.7452,6.9827 L -5.6569,7.0711 L -5.5685,7.1595 L -5.4801,7.2478 L -5.3917,7.3362 L -5.3033,7.4246 L -5.2149,7.513 L -5.1265,7.6014 L -5.0381,7.6898 L -4.9497,7.7782 L -4.8614,7.8666 L -4.773,7.955 L -4.6846,8.0433 L -4.5962,8.1317 L -4.5078,8.2201 L -4.4194,8.3085 L -4.331,8.3969 L -4.2426,8.4853 L -4.1543,8.5737 L -4.0659,8.6621 L -3.9775,8.7504 L -3.8891,8.8388 L -3.8007,8.9272 L -3.7123,9.0156 L -3.6239,9.104 L -3.5355,9.1924 L -3.4471,9.2808 L -3.3588,9.3692 L -3.2704,9.4576 L -3.182,9.5459 L -3.0936,9.6343 L -3.0052,9.7227 L -2.9168,9.8111 L -2.8284,9.8995 L -2.74,9.9879 L -2.6517,10.0763 L -2.5633,10.1647 L -2.4749,10.253 L -2.3865,10.3414 L -2.2981,10.4298 L -2.2097,10.5182 L -2.1213,10.6066 L -2.0329,10.695 L -1.9445,10.7834 L -1.8562,10.8718 L -1.7678,10.9602 L -1.6794,11.0485 L -1.591,11.1369 L -1.5026,11.2253 L -1.4142,11.3137 L -1.3258,11.4021 L -1.2374,11.4905 L -1.149,11.5789 L -1.0607,11.6673 L -0.9723,11.7557 L -0.8839,11.844 L -0.7955,11.9324 L -0.7071,12.0208 L -0.6187,12.1092 L -0.5303,12.1976 L -0.4419,12.286 L -0.3536,12.3744 L -0.2652,12.4628 L -0.1768,12.5511 L -0.0884,12.6395 L -0.0,12.7279" />
      <path d="M 0.0,-12.7279 L -0.0884,-12.6395 L -0.1768,-12.5511 L -0.2652,-12.4628 L -0.3536,-12.3744 L -0.4419,-12.286 L -0.5303,-12.1976 L -0.6187,-12.1092 L -0.7071,-12.0208 L -0.7955,-11.9324 L -0.8839,-11.844 L -0.9723,-11.7557 L -1.0607,-11.6673 L -1.149,-11.5789 L -1.2374,-11.4905 L -1.3258,-11.4021 L -1.4142,-11.3137 L -1.5026,-11.2253 L -1.591,-11.1369 L -1.6794,-11.0485 L -1.7678,-10.9602 L -1.8562,-10.8718 L -1.9445,-10.7834 L -2.0329,-10.695 L -2.1213,-10.6066 L -2.2097,-10.5182 L -2.2981,-10.4298 L -2.3865,-10.3414 L -2.4749,-10.253 L -2.5633,-10.1647 L -2.6517,-10.0763 L -2.74,-9.9879 L -2.8284,-9.8995 L -2.9168,-9.8111 L -3.0052,-9.7227 L -3.0936,-9.6343 L -3.182,-9.5459 L -3.2704,-9.4576 L -3.3588,-9.3692 L -3.4471,-9.2808 L -3.5355,-9.1924 L -3.6239,-9.104 L -3.7123,-9.0156 L -3.8007,-8.9272 L -3.8891,-8.8388 L -3.9775,-8.7504 L -4.0659,-8.6621 L -4.1543,-8.5737 L -4.2426,-8.4853 L -4.331,-8.3969 L -4.4194,-8.3085 L -4.5078,-8.2201 L -4.5962,-8.1317 L -4.6846,-8.0433 L -4.773,-7.955 L -4.8614,-7.8666 L -4.9497,-7.7782 L -5.0381,-7.6898 L -5.1265,-7.6014 L -5.2149,-7.513 L -5.3033,-7.4246 L -5.3917,-7.3362 L -5.4801,-7.2478 L -5.5685,-7.1595 L -5.6569,-7.0711 L -5.7452,-6.9827 L -5.8336,-6.8943 L -5.922,-6.8059 L -6.0104,-6.7175 L -6.0988,-6.6291 L -6.1872,-6.5407 L -6.2756,-6.4523 L -6.364,-6.364" />
      <path d="M -6.364,-6.364 L -6.4523,-6.2756 L -6.5407,-6.1872 L -6.6291,-6.0988 L -6.7175,-6.0104 L -6.8059,-5.922 L -6.8943,-5.8336 L -6.9827,-5.7452 L -7.0711,-5.6569 L -7.1595,-5.5685 L -7.2478,-5.4801 L -7.3362,-5.3917 L -7.4246,-5.3033 L -7.513,-5.2149 L -7.6014,-5.1265 L -7.6898,-5.0381 L -7.7782,-4.9497 L -7.8666,-4.8614 L -7.955,-4.773 L -8.0433,-4.6846 L -8.1317,-4.5962 L -8.2201,-4.5078 L -8.3085,-4.4194 L -8.3969,-4.331 L -8.4853,-4.2426 L -8.5737,-4.1543 L -8.6621,-4.0659 L -8.7504,-3.9775 L -8.8388,-3.8891 L -8.9272,-3.8007 L -9.0156,-3.7123 L -9.104,-3.6239 L -9.1924,-3.5355 L -9.2808,-3.4471 L -9.3692,-3.3588 L -9.4576,-3.2704 L -9.5459,-3.182 L -9.6343,-3.0936 L -9.7227,-3.0052 L -9.8111,-2.9168 L -9.8995,-2.8284 L -9.9879,-2.74 L -10.0763,-2.6517 L -10.1647,-2.5633 L -10.253,-2.4749 L -10.3414,-2.3865 L -10.4298,-2.2981 L -10.5182,-2.2097 L -10.6066,-2.1213 L -10.695,-2.0329 L -10.7834,-1.9445 L -10.8718,-1.8562 L -10.9602,-1.7678 L -11.0485,-1.6794 L -11.1369,-1.591 L -11.2253,-1.5026 L -11.3137,-1.4142 L -11.4021,-1.3258 L -11.4905,-1.2374 L -11.5789,-1.149 L -11.6673,-1.0607 L -11.7557,-0.9723 L -11.844,-0.8839 L -11.9324,-0.7955 L -12.0208,-0.7071 L -12.1092,-0.6187 L -12.1976,-0.5303 L -12.286,-0.4419 L -12.3744,-0.3536 L -12.4628,-0.2652 L -12.5511,-0.1768 L -12.6395,-0.0884 L -12.7279,-0.0" />
      <path d="M -6.364,6.364 L -6.5013,6.2236 L -6.6355,6.0803 L -6.7666,5.9341 L -6.8944,5.7851 L -7.019,5.6333 L -7.1402,5.4789 L -7.258,5.3218 L -7.3724,5.1622 L -7.4832,5.0001 L -7.5905,4.8357 L -7.6942,4.669 L -7.7942,4.5 L -7.8905,4.3289 L -7.9831,4.1557 L -8.0719,3.9806 L -8.1568,3.8036 L -8.2378,3.6247 L -8.3149,3.4442 L -8.3881,3.2619 L -8.4572,3.0782 L -8.5224,2.893 L -8.5835,2.7064 L -8.6404,2.5185 L -8.6933,2.3294 L -8.7421,2.1392 L -8.7867,1.948 L -8.8271,1.7558 L -8.8633,1.5628 L -8.8953,1.3691 L -8.923,1.1747 L -8.9465,0.9798 L -8.9658,0.7844 L -8.9807,0.5886 L -8.9914,0.3926 L -8.9979,0.1963 L -9.0,0.0 L -8.9979,-0.1963 L -8.9914,-0.3926 L -8.9807,-0.5886 L -8.9658,-0.7844 L -8.9465,-0.9798 L -8.923,-1.1747 L -8.8953,-1.3691 L -8.8633,-1.5628 L -8.8271,-1.7558 L -8.7867,-1.948 L -8.7421,-2.1392 L -8.6933,-2.3294 L -8.6404,-2.5185 L -8.5835,-2.7064 L -8.5224,-2.893 L -8.4572,-3.0782 L -8.3881,-3.2619 L -8.3149,-3.4442 L -8.2378,-3.6247 L -8.1568,-3.8036 L -8.0719,-3.9806 L -7.9831,-4.1557 L -7.8905,-4.3289 L -7.7942,-4.5 L -7.6942,-4.669 L -7.5905,-4.8357 L -7.4832,-5.0001 L -7.3724,-5.1622 L -7.258,-5.3218 L -7.1402,-5.4789 L -7.019,-5.6333 L -6.8944,-5.7851 L -6.7666,-5.9341 L -6.6355,-6.0803 L -6.5013,-6.2236 L -6.364,-6.364" />
      <path d="M -6.364,6.364 L -6.2236,6.5013 L -6.0803,6.6355 L -5.9341,6.7666 L -5.7851,6.8944 L -5.6333,7.019 L -5.4789,7.1402 L -5.3218,7.258 L -5.1622,7.3724 L -5.0001,7.4832 L -4.8357,7.5905 L -4.669,7.6942 L -4.5,7.7942 L -4.3289,7.8905 L -4.1557,7.9831 L -3.9806,8.0719 L -3.8036,8.1568 L -3.6247,8.2378 L -3.4442,8.3149 L -3.2619,8.3881 L -3.0782,8.4572 L -2.893,8.5224 L -2.7064,8.5835 L -2.5185,8.6404 L -2.3294,8.6933 L -2.1392,8.7421 L -1.948,8.7867 L -1.7558,8.8271 L -1.5628,8.8633 L -1.3691,8.8953 L -1.1747,8.923 L -0.9798,8.9465 L -0.7844,8.9658 L -0.5886,8.9807 L -0.3926,8.9914 L -0.1963,8.9979 L -0.0,9.0 L 0.1963,8.9979 L 0.3926,8.9914 L 0.5886,8.9807 L 0.7844,8.9658 L 0.9798,8.9465 L 1.1747,8.923 L 1.3691,8.8953 L 1.5628,8.8633 L 1.7558,8.8271 L 1.948,8.7867 L 2.1392,8.7421 L 2.3294,8.6933 L 2.5185,8.6404 L 2.7064,8.5835 L 2.893,8.5224 L 3.0782,8.4572 L 3.2619,8.3881 L 3.4442,8.3149 L 3.6247,8.2378 L 3.8036,8.1568 L 3.9806,8.0719 L 4.1557,7.9831 L 4.3289,7.8905 L 4.5,7.7942 L 4.669,7.6942 L 4.8357,7.5905 L 5.0001,7.4832 L 5.1622,7.3724 L 5.3218,7.258 L 5.4789,7.1402 L 5.6333,7.019 L 5.7851,6.8944 L 5.9341,6.7666 L 6.0803,6.6355 L 6.2236,6.5013 L 6.364,6.364" />
      <path d="M 0.0,12.7279 L 0.0884,12.6395 L 0.1768,12.5511 L 0.2652,12.4628 L 0.3536,12.3744 L 0.4419,12.286 L 0.5303,12.1976 L 0.6187,12.1092 L 0.7071,12.0208 L 0.7955,11.9324 L 0.8839,11.844 L 0.9723,11.7557 L 1.0607,11.6673 L 1.149,11.5789 L 1.2374,11.4905 L 1.3258,11.4021 L 1.4142,11.3137 L 1.5026,11.2253 L 1.591,11.1369 L 1.6794,11.0485 L 1.7678,10.9602 L 1.8562,10.8718 L 1.9445,10.7834 L 2.0329,10.695 L 2.1213,10.6066 L 2.2097,10.5182 L 2.2981,10.4298 L 2.3865,10.3414 L 2.4749,10.253 L 2.5633,10.1647 L 2.6517,10.0763 L 2.74,9.9879 L 2.8284,9.8995 L 2.9168,9.8111 L 3.0052,9.7227 L 3.0936,9.6343 L 3.182,9.5459 L 3.2704,9.4576 L 3.3588,9.3692 L 3.4471,9.2808 L 3.5355,9.1924 L 3.6239,9.104 L 3.7123,9.0156 L 3.8007,8.9272 L 3.8891,8.8388 L 3.9775,8.7504 L 4.0659,8.6621 L 4.1543,8.5737 L 4.2426,8.4853 L 4.331,8.3969 L 4.4194,8.3085 L 4.5078,8.2201 L 4.5962,8.1317 L 4.6846,8.0433 L 4.773,7.955 L 4.8614,7.8666 L 4.9497,7.7782 L 5.0381,7.6898 L 5.1265,7.6014 L 5.2149,7.513 L 5.3033,7.4246 L 5.3917,7.3362 L 5.4801,7.2478 L 5.5685,7.1595 L 5.6569,7.0711 L 5.7452,6.9827 L 5.8336,6.8943 L 5.922,6.8059 L 6.0104,6.7175 L 6.0988,6.6291 L 6.1872,6.5407 L 6.2756,6.4523 L 6.364,6.364" />
      <path d="M 6.364,6.364 L 6.4523,6.2756 L 6.5407,6.1872 L 6.6291,6.0988 L 6.7175,6.0104 L 6.8059,5.922 L 6.8943,5.8336 L 6.9827,5.7452 L 7.0711,5.6569 L 7.1595,5.5685 L 7.2478,5.4801 L 7.3362,5.3917 L 7.4246,5.3033 L 7.513,5.2149 L 7.6014,5.1265 L 7.6898,5.0381 L 7.7782,4.9497 L 7.8666,4.8614 L 7.955,4.773 L 8.0433,4.6846 L 8.1317,4.5962 L 8.2201,4.5078 L 8.3085,4.4194 L 8.3969,4.331 L 8.4853,4.2426 L 8.5737,4.1543 L 8.6621,4.0659 L 8.7504,3.9775 L 8.8388,3.8891 L 8.9272,3.8007 L 9.0156,3.7123 L 9.104,3.6239 L 9.1924,3.5355 L 9.2808,3.4471 L 9.3692,3.3588 L 9.4576,3.2704 L 9.5459,3.182 L 9.6343,3.0936 L 9.7227,3.0052 L 9.8111,2.9168 L 9.8995,2.8284 L 9.9879,2.74 L 10.0763,2.6517 L 10.1647,2.5633 L 10.253,2.4749 L 10.3414,2.3865 L 10.4298,2.2981 L 10.5182,2.2097 L 10.6066,2.1213 L 10.695,2.0329 L 10.7834,1.9445 L 10.8718,1.8562 L 10.9602,1.7678 L 11.0485,1.6794 L 11.1369,1.591 L 11.2253,1.5026 L 11.3137,1.4142 L 11.4021,1.3258 L 11.4905,1.2374 L 11.5789,1.149 L 11.6673,1.0607 L 11.7557,0.9723 L 11.844,0.8839 L 11.9324,0.7955 L 12.0208,0.7071 L 12.1092,0.6187 L 12.1976,0.5303 L 12.286,0.4419 L 12.3744,0.3536 L 12.4628,0.2652 L 12.5511,0.1768 L 12.6395,0.0884 L 12.7279,0.0" />
      <path d="M 12.7279,-0.0 L 12.6395,-0.0884 L 12.5511,-0.1768 L 12.4628,-0.2652 L 12.3744,-0.3536 L 12.286,-0.4419 L 12.1976,-0.5303 L 12.1092,-0.6187 L 12.0208,-0.7071 L 11.9324,-0.7955 L 11.844,-0.8839 L 11.7557,-0.9723 L 11.6673,-1.0607 L 11.5789,-1.149 L 11.4905,-1.2374 L 11.4021,-1.3258 L 11.3137,-1.4142 L 11.2253,-1.5026 L 11.1369,-1.591 L 11.0485,-1.6794 L 10.9602,-1.7678 L 10.8718,-1.8562 L 10.7834,-1.9445 L 10.695,-2.0329 L 10.6066,-2.1213 L 10.5182,-2.2097 L 10.4298,-2.2981 L 10.3414,-2.3865 L 10.253,-2.4749 L 10.1647,-2.5633 L 10.0763,-2.6517 L 9.9879,-2.74 L 9.8995,-2.8284 L 9.8111,-2.9168 L 9.7227,-3.0052 L 9.6343,-3.0936 L 9.5459,-3.182 L 9.4576,-3.2704 L 9.3692,-3.3588 L 9.2808,-3.4471 L 9.1924,-3.5355 L 9.104,-3.6239 L 9.0156,-3.7123 L 8.9272,-3.8007 L 8.8388,-3.8891 L 8.7504,-3.9775 L 8.6621,-4.0659 L 8.5737,-4.1543 L 8.4853,-4.2426 L 8.3969,-4.331 L 8.3085,-4.4194 L 8.2201,-4.5078 L 8.1317,-4.5962 L 8.0433,-4.6846 L 7.955,-4.773 L 7.8666,-4.8614 L 7.7782,-4.9497 L 7.6898,-5.0381 L 7.6014,-5.1265 L 7.513,-5.2149 L 7.4246,-5.3033 L 7.3362,-5.3917 L 7.2478,-5.4801 L 7.1595,-5.5685 L 7.0711,-5.6569 L 6.9827,-5.7452 L 6.8943,-5.8336 L 6.8059,-5.922 L 6.7175,-6.0104 L 6.6291,-6.0988 L 6.5407,-6.1872 L 6.4523,-6.2756 L 6.364,-6.364" />
      <path d="M 6.364,-6.364 L 6.2756,-6.4523 L 6.1872,-6.5407 L 6.0988,-6.6291 L 6.0104,-6.7175 L 5.922,-6.8059 L 5.8336,-6.8943 L 5.7452,-6.9827 L 5.6569,-7.0711 L 5.5685,-7.1595 L 5.4801,-7.2478 L 5.3917,-7.3362 L 5.3033,-7.4246 L 5.2149,-7.513 L 5.1265,-7.6014 L 5.0381,-7.6898 L 4.9497,-7.7782 L 4.8614,-7.8666 L 4.773,-7.955 L 4.6846,-8.0433 L 4.5962,-8.1317 L 4.5078,-8.2201 L 4.4194,-8.3085 L 4.331,-8.3969 L 4.2426,-8.4853 L 4.1543,-8.5737 L 4.0659,-8.6621 L 3.9775,-8.7504 L 3.8891,-8.8388 L 3.8007,-8.9272 L 3.7123,-9.0156 L 3.6239,-9.104 L 3.5355,-9.1924 L 3.4471,-9.2808 L 3.3588,-9.3692 L 3.2704,-9.4576 L 3.182,-9.5459 L 3.0936,-9.6343 L 3.0052,-9.7227 L 2.9168,-9.8111 L 2.8284,-9.8995 L 2.74,-9.9879 L 2.6517,-10.0763 L 2.5633,-10.1647 L 2.4749,-10.253 L 2.3865,-10.3414 L 2.2981,-10.4298 L 2.2097,-10.5182 L 2.1213,-10.6066 L 2.0329,-10.695 L 1.9445,-10.7834 L 1.8562,-10.8718 L 1.7678,-10.9602 L 1.6794,-11.0485 L 1.591,-11.1369 L 1.5026,-11.2253 L 1.4142,-11.3137 L 1.3258,-11.4021 L 1.2374,-11.4905 L 1.149,-11.5789 L 1.0607,-11.6673 L 0.9723,-11.7557 L 0.8839,-11.844 L 0.7955,-11.9324 L 0.7071,-12.0208 L 0.6187,-12.1092 L 0.5303,-12.1976 L 0.4419,-12.286 L 0.3536,-12.3744 L 0.2652,-12.4628 L 0.1768,-12.5511 L 0.0884,-12.6395 L 0.0,-12.7279" />
      <path d="M 0.0,5.05 L -0.4401,5.0308 L -0.8769,4.9733 L -1.307,4.8779 L -1.7272,4.7454 L -2.1342,4.5769 L -2.525,4.3734 L -2.8966,4.1367 L -3.2461,3.8685 L -3.5709,3.5709 L -3.8685,3.2461 L -4.1367,2.8966 L -4.3734,2.525 L -4.5769,2.1342 L -4.7454,1.7272 L -4.8779,1.307 L -4.9733,0.8769 L -5.0308,0.4401 L -5.05,-0.0 L -5.0308,-0.4401 L -4.9733,-0.8769 L -4.8779,-1.307 L -4.7454,-1.7272 L -4.5769,-2.1342 L -4.3734,-2.525 L -4.1367,-2.8966 L -3.8685,-3.2461 L -3.5709,-3.5709 L -3.2461,-3.8685 L -2.8966,-4.1367 L -2.525,-4.3734 L -2.1342,-4.5769 L -1.7272,-4.7454 L -1.307,-4.8779 L -0.8769,-4.9733 L -0.4401,-5.0308 L 0.0,-5.05 L 0.4401,-5.0308 L 0.8769,-4.9733 L 1.307,-4.8779 L 1.7272,-4.7454 L 2.1342,-4.5769 L 2.525,-4.3734 L 2.8966,-4.1367 L 3.2461,-3.8685 L 3.5709,-3.5709 L 3.8685,-3.2461 L 4.1367,-2.8966 L 4.3734,-2.525 L 4.5769,-2.1342 L 4.7454,-1.7272 L 4.8779,-1.307 L 4.9733,-0.8769 L 5.0308,-0.4401 L 5.05,0.0 L 5.0308,0.4401 L 4.9733,0.8769 L 4.8779,1.307 L 4.7454,1.7272 L 4.5769,2.1342 L 4.3734,2.525 L 4.1367,2.8966 L 3.8685,3.2461 L 3.5709,3.5709 L 3.2461,3.8685 L 2.8966,4.1367 L 2.525,4.3734 L 2.1342,4.5769 L 1.7272,4.7454 L 1.307,4.8779 L 0.8769,4.9733 L 0.4401,5.0308 L -0.0,5.05" />
      <path d="M -6.364,-6.364 L -6.2236,-6.5013 L -6.0803,-6.6355 L -5.9341,-6.7666 L -5.7851,-6.8944 L -5.6333,-7.019 L -5.4789,-7.1402 L -5.3218,-7.258 L -5.1622,-7.3724 L -5.0001,-7.4832 L -4.8357,-7.5905 L -4.669,-7.6942 L -4.5,-7.7942 L -4.3289,-7.8905 L -4.1557,-7.9831 L -3.9806,-8.0719 L -3.8036,-8.1568 L -3.6247,-8.2378 L -3.4442,-8.3149 L -3.2619,-8.3881 L -3.0782,-8.4572 L -2.893,-8.5224 L -2.7064,-8.5835 L -2.5185,-8.6404 L -2.3294,-8.6933 L -2.1392,-8.7421 L -1.948,-8.7867 L -1.7558,-8.8271 L -1.5628,-8.8633 L -1.3691,-8.8953 L -1.1747,-8.923 L -0.9798,-8.9465 L -0.7844,-8.9658 L -0.5886,-8.9807 L -0.3926,-8.9914 L -0.1963,-8.9979 L -0.0,-9.0 L 0.1963,-8.9979 L 0.3926,-8.9914 L 0.5886,-8.9807 L 0.7844,-8.9658 L 0.9798,-8.9465 L 1.1747,-8.923 L 1.3691,-8.8953 L 1.5628,-8.8633 L 1.7558,-8.8271 L 1.948,-8.7867 L 2.1392,-8.7421 L 2.3294,-8.6933 L 2.5185,-8.6404 L 2.7064,-8.5835 L 2.893,-8.5224 L 3.0782,-8.4572 L 3.2619,-8.3881 L 3.4442,-8.3149 L 3.6247,-8.2378 L 3.8036,-8.1568 L 3.9806,-8.0719 L 4.1557,-7.9831 L 4.3289,-7.8905 L 4.5,-7.7942 L 4.669,-7.6942 L 4.8357,-7.5905 L 5.0001,-7.4832 L 5.1622,-7.3724 L 5.3218,-7.258 L 5.4789,-7.1402 L 5.6333,-7.019 L 5.7851,-6.8944 L 5.9341,-6.7666 L 6.0803,-6.6355 L 6.2236,-6.5013 L 6.364,-6.364" />
      <path d="M 6.364,-6.364 L 6.5013,-6.2236 L 6.6355,-6.0803 L 6.7666,-5.9341 L 6.8944,-5.7851 L 7.019,-5.6333 L 7.1402,-5.4789 L 7.258,-5.3218 L 7.3724,-5.1622 L 7.4832,-5.0001 L 7.5905,-4.8357 L 7.6942,-4.669 L 7.7942,-4.5 L 7.8905,-4.3289 L 7.9831,-4.1557 L 8.0719,-3.9806 L 8.1568,-3.8036 L 8.2378,-3.6247 L 8.3149,-3.4442 L 8.3881,-3.2619 L 8.4572,-3.0782 L 8.5224,-2.893 L 8.5835,-2.7064 L 8.6404,-2.5185 L 8.6933,-2.3294 L 8.7421,-2.1392 L 8.7867,-1.948 L 8.8271,-1.7558 L 8.8633,-1.5628 L 8.8953,-1.3691 L 8.923,-1.1747 L 8.9465,-0.9798 L 8.9658,-0.7844 L 8.9807,-0.5886 L 8.9914,-0.3926 L 8.9979,-0.1963 L 9.0,-0.0 L 8.9979,0.1963 L 8.9914,0.3926 L 8.9807,0.5886 L 8.9658,0.7844 L 8.9465,0.9798 L 8.923,1.1747 L 8.8953,1.3691 L 8.8633,1.5628 L 8.8271,1.7558 L 8.7867,1.948 L 8.7421,2.1392 L 8.6933,2.3294 L 8.6404,2.5185 L 8.5835,2.7064 L 8.5224,2.893 L 8.4572,3.0782 L 8.3881,3.2619 L 8.3149,3.4442 L 8.2378,3.6247 L 8.1568,3.8036 L 8.0719,3.9806 L 7.9831,4.1557 L 7.8905,4.3289 L 7.7942,4.5 L 7.6942,4.669 L 7.5905,4.8357 L 7.4832,5.0001 L 7.3724,5.1622 L 7.258,5.3218 L 7.1402,5.4789 L 7.019,5.6333 L 6.8944,5.7851 L 6.7666,5.9341 L 6.6355,6.0803 L 6.5013,6.2236 L 6.364,6.364" />
      <path d="M 26.772,12.7279 L 26.7729,12.5511 L 26.7738,12.3744 L 26.7746,12.1976 L 26.7755,12.0208 L 26.7764,11.844 L 26.7772,11.6673 L 26.7781,11.4905 L 26.779,11.3137 L 26.7799,11.1369 L 26.7807,10.9602 L 26.7816,10.7834 L 26.7825,10.6066 L 26.7833,10.4298 L 26.7842,10.253 L 26.7851,10.0763 L 26.7859,9.8995 L 26.7868,9.7227 L 26.7877,9.5459 L 26.7885,9.3692 L 26.7894,9.1924 L 26.7903,9.0156 L 26.7911,8.8388 L 26.792,8.6621 L 26.7929,8.4853 L 26.7938,8.3085 L 26.7946,8.1317 L 26.7955,7.955 L 26.7964,7.7782 L 26.7972,7.6014 L 26.7981,7.4246 L 26.799,7.2478 L 26.7998,7.0711 L 26.8007,6.8943 L 26.8016,6.7175 L 26.8024,6.5407 L 26.8033,6.364 L 26.8042,6.1872 L 26.8051,6.0104 L 26.8059,5.8336 L 26.8068,5.6569 L 26.8077,5.4801 L 26.8085,5.3033 L 26.8094,5.1265 L 26.8103,4.9497 L 26.8111,4.773 L 26.812,4.5962 L 26.8129,4.4194 L 26.8137,4.2426 L 26.8146,4.0659 L 26.8155,3.8891 L 26.8163,3.7123 L 26.8172,3.5355 L 26.8181,3.3588 L 26.819,3.182 L 26.8198,3.0052 L 26.8207,2.8284 L 26.8216,2.6517 L 26.8224,2.4749 L 26.8233,2.2981 L 26.8242,2.1213 L 26.825,1.9445 L 26.8259,1.7678 L 26.8268,1.591 L 26.8276,1.4142 L 26.8285,1.2374 L 26.8294,1.0607 L 26.8302,0.8839 L 26.8311,0.7071 L 26.832,0.5303 L 26.8329,0.3536 L 26.8337,0.1768 L 26.8346,0.0" />
      <path d="M 26.772,12.7279 L 26.663,12.7279 L 26.554,12.7279 L 26.4451,12.7279 L 26.3361,12.7279 L 26.2271,12.7279 L 26.1181,12.7279 L 26.0091,12.7279 L 25.9001,12.7279 L 25.7911,12.7279 L 25.6821,12.7279 L 25.5731,12.7279 L 25.4641,12.7279 L 25.3551,12.7279 L 25.2461,12.7279 L 25.1371,12.7279 L 25.0281,12.7279 L 24.9191,12.7279 L 24.8101,12.7279 L 24.7011,12.7279 L 24.5921,12.7279 L 24.4832,12.7279 L 24.3742,12.7279 L 24.2652,12.7279 L 24.1562,12.7279 L 24.0472,12.7279 L 23.9382,12.7279 L 23.8292,12.7279 L 23.7202,12.7279 L 23.6112,12.7279 L 23.5022,12.7279 L 23.3932,12.7279 L 23.2842,12.7279 L 23.1752,12.7279 L 23.0662,12.7279 L 22.9572,12.7279 L 22.8482,12.7279 L 22.7392,12.7279 L 22.6303,12.7279 L 22.5213,12.7279 L 22.4123,12.7279 L 22.3033,12.7279 L 22.1943,12.7279 L 22.0853,12.7279 L 21.9763,12.7279 L 21.8673,12.7279 L 21.7583,12.7279 L 21.6493,12.7279 L 21.5403,12.7279 L 21.4313,12.7279 L 21.3223,12.7279 L 21.2133,12.7279 L 21.1043,12.7279 L 20.9953,12.7279 L 20.8863,12.7279 L 20.7773,12.7279 L 20.6684,12.7279 L 20.5594,12.7279 L 20.4504,12.7279 L 20.3414,12.7279 L 20.2324,12.7279 L 20.1234,12.7279 L 20.0144,12.7279 L 19.9054,12.7279 L 19.7964,12.7279 L 19.6874,12.7279 L 19.5784,12.7279 L 19.4694,12.7279 L 19.3604,12.7279 L 19.2514,12.7279 L 19.1424,12.7279 L 19.0334,12.7279 L 18.9244,12.7279" />
      <path d="M 26.7095,0.0 L 26.7103,0.1768 L 26.7112,0.3536 L 26.7121,0.5303 L 26.713,0.7071 L 26.7138,0.8839 L 26.7147,1.0607 L 26.7156,1.2374 L 26.7164,1.4142 L 26.7173,1.591 L 26.7182,1.7678 L 26.719,1.9445 L 26.7199,2.1213 L 26.7208,2.2981 L 26.7216,2.4749 L 26.7225,2.6517 L 26.7234,2.8284 L 26.7242,3.0052 L 26.7251,3.182 L 26.726,3.3588 L 26.7269,3.5355 L 26.7277,3.7123 L 26.7286,3.8891 L 26.7295,4.0659 L 26.7303,4.2426 L 26.7312,4.4194 L 26.7321,4.5962 L 26.7329,4.773 L 26.7338,4.9497 L 26.7347,5.1265 L 26.7355,5.3033 L 26.7364,5.4801 L 26.7373,5.6569 L 26.7382,5.8336 L 26.739,6.0104 L 26.7399,6.1872 L 26.7408,6.364 L 26.7416,6.5407 L 26.7425,6.7175 L 26.7434,6.8943 L 26.7442,7.0711 L 26.7451,7.2478 L 26.746,7.4246 L 26.7468,7.6014 L 26.7477,7.7782 L 26.7486,7.955 L 26.7494,8.1317 L 26.7503,8.3085 L 26.7512,8.4853 L 26.7521,8.6621 L 26.7529,8.8388 L 26.7538,9.0156 L 26.7547,9.1924 L 26.7555,9.3692 L 26.7564,9.5459 L 26.7573,9.7227 L 26.7581,9.8995 L 26.759,10.0763 L 26.7599,10.253 L 26.7607,10.4298 L 26.7616,10.6066 L 26.7625,10.7834 L 26.7633,10.9602 L 26.7642,11.1369 L 26.7651,11.3137 L 26.766,11.4905 L 26.7668,11.6673 L 26.7677,11.844 L 26.7686,12.0208 L 26.7694,12.1976 L 26.7703,12.3744 L 26.7712,12.5511 L 26.772,12.7279" />
      <path d="M 26.8346,-0.0 L 26.8337,-0.1768 L 26.8329,-0.3536 L 26.832,-0.5303 L 26.8311,-0.7071 L 26.8302,-0.8839 L 26.8294,-1.0607 L 26.8285,-1.2374 L 26.8276,-1.4142 L 26.8268,-1.591 L 26.8259,-1.7678 L 26.825,-1.9445 L 26.8242,-2.1213 L 26.8233,-2.2981 L 26.8224,-2.4749 L 26.8216,-2.6517 L 26.8207,-2.8284 L 26.8198,-3.0052 L 26.819,-3.182 L 26.8181,-3.3588 L 26.8172,-3.5355 L 26.8163,-3.7123 L 26.8155,-3.8891 L 26.8146,-4.0659 L 26.8137,-4.2426 L 26.8129,-4.4194 L 26.812,-4.5962 L 26.8111,-4.773 L 26.8103,-4.9497 L 26.8094,-5.1265 L 26.8085,-5.3033 L 26.8077,-5.4801 L 26.8068,-5.6569 L 26.8059,-5.8336 L 26.8051,-6.0104 L 26.8042,-6.1872 L 26.8033,-6.364 L 26.8024,-6.5407 L 26.8016,-6.7175 L 26.8007,-6.8943 L 26.7998,-7.0711 L 26.799,-7.2478 L 26.7981,-7.4246 L 26.7972,-7.6014 L 26.7964,-7.7782 L 26.7955,-7.955 L 26.7946,-8.1317 L 26.7938,-8.3085 L 26.7929,-8.4853 L 26.792,-8.6621 L 26.7911,-8.8388 L 26.7903,-9.0156 L 26.7894,-9.1924 L 26.7885,-9.3692 L 26.7877,-9.5459 L 26.7868,-9.7227 L 26.7859,-9.8995 L 26.7851,-10.0763 L 26.7842,-10.253 L 26.7833,-10.4298 L 26.7825,-10.6066 L 26.7816,-10.7834 L 26.7807,-10.9602 L 26.7799,-11.1369 L 26.779,-11.3137 L 26.7781,-11.4905 L 26.7772,-11.6673 L 26.7764,-11.844 L 26.7755,-12.0208 L 26.7746,-12.1976 L 26.7738,-12.3744 L 26.7729,-12.5511 L 26.772,-12.7279" />
      <path d="M 26.772,-12.7279 L 26.7712,-12.5511 L 26.7703,-12.3744 L 26.7694,-12.1976 L 26.7686,-12.0208 L 26.7677,-11.844 L 26.7668,-11.6673 L 26.766,-11.4905 L 26.7651,-11.3137 L 26.7642,-11.1369 L 26.7633,-10.9602 L 26.7625,-10.7834 L 26.7616,-10.6066 L 26.7607,-10.4298 L 26.7599,-10.253 L 26.759,-10.0763 L 26.7581,-9.8995 L 26.7573,-9.7227 L 26.7564,-9.5459 L 26.7555,-9.3692 L 26.7547,-9.1924 L 26.7538,-9.0156 L 26.7529,-8.8388 L 26.7521,-8.6621 L 26.7512,-8.4853 L 26.7503,-8.3085 L 26.7494,-8.1317 L 26.7486,-7.955 L 26.7477,-7.7782 L 26.7468,-7.6014 L 26.746,-7.4246 L 26.7451,-7.2478 L 26.7442,-7.0711 L 26.7434,-6.8943 L 26.7425,-6.7175 L 26.7416,-6.5407 L 26.7408,-6.364 L 26.7399,-6.1872 L 26.739,-6.0104 L 26.7382,-5.8336 L 26.7373,-5.6569 L 26.7364,-5.4801 L 26.7355,-5.3033 L 26.7347,-5.1265 L 26.7338,-4.9497 L 26.7329,-4.773 L 26.7321,-4.5962 L 26.7312,-4.4194 L 26.7303,-4.2426 L 26.7295,-4.0659 L 26.7286,-3.8891 L 26.7277,-3.7123 L 26.7269,-3.5355 L 26.726,-3.3588 L 26.7251,-3.182 L 26.7242,-3.0052 L 26.7234,-2.8284 L 26.7225,-2.6517 L 26.7216,-2.4749 L 26.7208,-2.2981 L 26.7199,-2.1213 L 26.719,-1.9445 L 26.7182,-1.7678 L 26.7173,-1.591 L 26.7164,-1.4142 L 26.7156,-1.2374 L 26.7147,-1.0607 L 26.7138,-0.8839 L 26.713,-0.7071 L 26.7121,-0.5303 L 26.7112,-0.3536 L 26.7103,-0.1768 L 26.7095,-0.0" />
      <path d="M 26.772,5.05 L 26.7778,4.91 L 26.7802,4.7698 L 26.782,4.6295 L 26.7834,4.4892 L 26.7847,4.3489 L 26.7858,4.2086 L 26.7867,4.0683 L 26.7876,3.9281 L 26.7885,3.7878 L 26.7892,3.6475 L 26.7899,3.5072 L 26.7905,3.3669 L 26.7911,3.2266 L 26.7917,3.0863 L 26.7922,2.9461 L 26.7927,2.8058 L 26.7931,2.6655 L 26.7935,2.5252 L 26.7939,2.3849 L 26.7943,2.2446 L 26.7946,2.1043 L 26.7949,1.964 L 26.7952,1.8238 L 26.7954,1.6835 L 26.7957,1.5432 L 26.7959,1.4029 L 26.7961,1.2626 L 26.7962,1.1223 L 26.7964,0.982 L 26.7965,0.8418 L 26.7966,0.7015 L 26.7967,0.5612 L 26.7968,0.4209 L 26.7968,0.2806 L 26.7968,0.1403 L 26.7969,-0.0 L 26.7968,-0.1402 L 26.7968,-0.2805 L 26.7968,-0.4208 L 26.7967,-0.5611 L 26.7966,-0.7014 L 26.7965,-0.8417 L 26.7964,-0.982 L 26.7962,-1.1222 L 26.7961,-1.2625 L 26.7959,-1.4028 L 26.7957,-1.5431 L 26.7954,-1.6834 L 26.7952,-1.8237 L 26.7949,-1.964 L 26.7946,-2.1043 L 26.7943,-2.2445 L 26.7939,-2.3848 L 26.7935,-2.5251 L 26.7931,-2.6654 L 26.7927,-2.8057 L 26.7922,-2.946 L 26.7917,-3.0862 L 26.7911,-3.2265 L 26.7905,-3.3668 L 26.7899,-3.5071 L 26.7892,-3.6474 L 26.7885,-3.7877 L 26.7876,-3.928 L 26.7867,-4.0682 L 26.7858,-4.2085 L 26.7847,-4.3488 L 26.7834,-4.4891 L 26.782,-4.6294 L 26.7802,-4.7696 L 26.7778,-4.9099 L 26.772,-5.05" />
      <path d="M 26.772,-5.05 L 26.7662,-4.91 L 26.7639,-4.7698 L 26.7621,-4.6295 L 26.7607,-4.4892 L 26.7594,-4.3489 L 26.7583,-4.2086 L 26.7573,-4.0683 L 26.7564,-3.9281 L 26.7556,-3.7878 L 26.7549,-3.6475 L 26.7542,-3.5072 L 26.7535,-3.3669 L 26.7529,-3.2266 L 26.7524,-3.0863 L 26.7519,-2.9461 L 26.7514,-2.8058 L 26.751,-2.6655 L 26.7505,-2.5252 L 26.7502,-2.3849 L 26.7498,-2.2446 L 26.7495,-2.1043 L 26.7492,-1.964 L 26.7489,-1.8238 L 26.7486,-1.6835 L 26.7484,-1.5432 L 26.7482,-1.4029 L 26.748,-1.2626 L 26.7478,-1.1223 L 26.7477,-0.982 L 26.7476,-0.8418 L 26.7475,-0.7015 L 26.7474,-0.5612 L 26.7473,-0.4209 L 26.7473,-0.2806 L 26.7472,-0.1403 L 26.7472,0.0 L 26.7472,0.1402 L 26.7473,0.2805 L 26.7473,0.4208 L 26.7474,0.5611 L 26.7475,0.7014 L 26.7476,0.8417 L 26.7477,0.982 L 26.7478,1.1222 L 26.748,1.2625 L 26.7482,1.4028 L 26.7484,1.5431 L 26.7486,1.6834 L 26.7489,1.8237 L 26.7492,1.964 L 26.7495,2.1043 L 26.7498,2.2445 L 26.7502,2.3848 L 26.7505,2.5251 L 26.751,2.6654 L 26.7514,2.8057 L 26.7519,2.946 L 26.7524,3.0862 L 26.7529,3.2265 L 26.7535,3.3668 L 26.7542,3.5071 L 26.7549,3.6474 L 26.7556,3.7877 L 26.7564,3.928 L 26.7573,4.0682 L 26.7583,4.2085 L 26.7594,4.3488 L 26.7607,4.4891 L 26.7621,4.6294 L 26.7639,4.7696 L 26.7662,4.9099 L 26.772,5.05" />
      <path d="M 26.772,-12.7279 L 26.663,-12.7279 L 26.554,-12.7279 L 26.4451,-12.7279 L 26.3361,-12.7279 L 26.2271,-12.7279 L 26.1181,-12.7279 L 26.0091,-12.7279 L 25.9001,-12.7279 L 25.7911,-12.7279 L 25.6821,-12.7279 L 25.5731,-12.7279 L 25.4641,-12.7279 L 25.3551,-12.7279 L 25.2461,-12.7279 L 25.1371,-12.7279 L 25.0281,-12.7279 L 24.9191,-12.7279 L 24.8101,-12.7279 L 24.7011,-12.7279 L 24.5921,-12.7279 L 24.4832,-12.7279 L 24.3742,-12.7279 L 24.2652,-12.7279 L 24.1562,-12.7279 L 24.0472,-12.7279 L 23.9382,-12.7279 L 23.8292,-12.7279 L 23.7202,-12.7279 L 23.6112,-12.7279 L 23.5022,-12.7279 L 23.3932,-12.7279 L 23.2842,-12.7279 L 23.1752,-12.7279 L 23.0662,-12.7279 L 22.9572,-12.7279 L 22.8482,-12.7279 L 22.7392,-12.7279 L 22.6303,-12.7279 L 22.5213,-12.7279 L 22.4123,-12.7279 L 22.3033,-12.7279 L 22.1943,-12.7279 L 22.0853,-12.7279 L 21.9763,-12.7279 L 21.8673,-12.7279 L 21.7583,-12.7279 L 21.6493,-12.7279 L 21.5403,-12.7279 L 21.4313,-12.7279 L 21.3223,-12.7279 L 21.2133,-12.7279 L 21.1043,-12.7279 L 20.9953,-12.7279 L 20.8863,-12.7279 L 20.7773,-12.7279 L 20.6684,-12.7279 L 20.5594,-12.7279 L 20.4504,-12.7279 L 20.3414,-12.7279 L 20.2324,-12.7279 L 20.1234,-12.7279 L 20.0144,-12.7279 L 19.9054,-12.7279 L 19.7964,-12.7279 L 19.6874,-12.7279 L 19.5784,-12.7279 L 19.4694,-12.7279 L 19.3604,-12.7279 L 19.2514,-12.7279 L 19.1424,-12.7279 L 19.0334,-12.7279 L 18.9244,-12.7279" />
      <path d="M 16.7718,8.9997 L 16.7682,8.9633 L 16.7665,8.9267 L 16.7653,8.8901 L 16.7642,8.8535 L 16.7633,8.8169 L 16.7624,8.7803 L 16.7617,8.7437 L 16.761,8.7071 L 16.7603,8.6705 L 16.7597,8.6339 L 16.7591,8.5973 L 16.7585,8.5607 L 16.758,8.5241 L 16.7574,8.4875 L 16.7569,8.4509 L 16.7565,8.4143 L 16.756,8.3776 L 16.7555,8.341 L 16.7551,8.3044 L 16.7547,8.2678 L 16.7543,8.2312 L 16.7539,8.1946 L 16.7535,8.158 L 16.7531,8.1214 L 16.7527,8.0848 L 16.7524,8.0481 L 16.752,8.0115 L 16.7517,7.9749 L 16.7513,7.9383 L 16.751,7.9017 L 16.7507,7.8651 L 16.7503,7.8285 L 16.75,7.7919 L 16.7497,7.7552 L 16.7494,7.7186 L 16.7491,7.682 L 16.7488,7.6454 L 16.7485,7.6088 L 16.7482,7.5722 L 16.748,7.5356 L 16.7477,7.499 L 16.7474,7.4623 L 16.7472,7.4257 L 16.7469,7.3891 L 16.7466,7.3525 L 16.7464,7.3159 L 16.7461,7.2793 L 16.7459,7.2427 L 16.7457,7.2061 L 16.7454,7.1694 L 16.7452,7.1328 L 16.7449,7.0962 L 16.7447,7.0596 L 16.7445,7.023 L 16.7443,6.9864 L 16.7441,6.9498 L 16.7438,6.9132 L 16.7436,6.8765 L 16.7434,6.8399 L 16.7432,6.8033 L 16.743,6.7667 L 16.7428,6.7301 L 16.7426,6.6935 L 16.7424,6.6569 L 16.7422,6.6203 L 16.742,6.5836 L 16.7418,6.547 L 16.7416,6.5104 L 16.7414,6.4738 L 16.7412,6.4372 L 16.7411,6.4006 L 16.7409,6.364" />
      <path d="M 18.9244,12.7279 L 18.9236,12.7264 L 18.9227,12.7249 L 18.9218,12.7234 L 18.921,12.722 L 18.9201,12.7205 L 18.9192,12.719 L 18.9184,12.7175 L 18.9175,12.716 L 18.9166,12.7145 L 18.9158,12.713 L 18.9149,12.7115 L 18.914,12.71 L 18.9132,12.7085 L 18.9123,12.707 L 18.9114,12.7056 L 18.9106,12.7041 L 18.9097,12.7026 L 18.9088,12.7011 L 18.908,12.6996 L 18.9071,12.6981 L 18.9062,12.6966 L 18.9054,12.6951 L 18.9045,12.6936 L 18.9036,12.6921 L 18.9028,12.6906 L 18.9019,12.6892 L 18.901,12.6877 L 18.9002,12.6862 L 18.8993,12.6847 L 18.8984,12.6832 L 18.8976,12.6817 L 18.8967,12.6802 L 18.8958,12.6787 L 18.895,12.6772 L 18.8941,12.6757 L 18.8932,12.6742 L 18.8924,12.6727 L 18.8915,12.6712 L 18.8907,12.6698 L 18.8898,12.6683 L 18.8889,12.6668 L 18.8881,12.6653 L 18.8872,12.6638 L 18.8863,12.6623 L 18.8855,12.6608 L 18.8846,12.6593 L 18.8837,12.6578 L 18.8829,12.6563 L 18.882,12.6548 L 18.8811,12.6533 L 18.8803,12.6518 L 18.8794,12.6503 L 18.8786,12.6489 L 18.8777,12.6474 L 18.8768,12.6459 L 18.876,12.6444 L 18.8751,12.6429 L 18.8742,12.6414 L 18.8734,12.6399 L 18.8725,12.6384 L 18.8716,12.6369 L 18.8708,12.6354 L 18.8699,12.6339 L 18.8691,12.6324 L 18.8682,12.6309 L 18.8673,12.6294 L 18.8665,12.628 L 18.8656,12.6265 L 18.8647,12.625 L 18.8639,12.6235 L 18.863,12.622 L 18.8622,12.6205" />
      <path d="M 18.8622,12.6205 L 18.8166,12.5397 L 18.771,12.4588 L 18.7254,12.378 L 18.6798,12.2972 L 18.6342,12.2163 L 18.5886,12.1355 L 18.5435,12.0544 L 18.4996,11.9726 L 18.4558,11.8908 L 18.4119,11.809 L 18.3681,11.7273 L 18.3242,11.6455 L 18.2804,11.5637 L 18.2384,11.4809 L 18.1965,11.3981 L 18.1546,11.3153 L 18.1127,11.2325 L 18.0709,11.1497 L 18.029,11.0668 L 17.9891,10.9831 L 17.9494,10.8992 L 17.9097,10.8153 L 17.8701,10.7314 L 17.8304,10.6475 L 17.7911,10.5634 L 17.7539,10.4784 L 17.7167,10.3934 L 17.6795,10.3084 L 17.6423,10.2234 L 17.6051,10.1383 L 17.5697,10.0526 L 17.5352,9.9664 L 17.5008,9.8802 L 17.4663,9.7941 L 17.4318,9.7079 L 17.3986,9.6213 L 17.3672,9.5339 L 17.3358,9.4466 L 17.3044,9.3593 L 17.2729,9.272 L 17.2428,9.1842 L 17.2147,9.0958 L 17.1866,9.0073 L 17.1585,8.9189 L 17.1304,8.8304 L 17.1043,8.7414 L 17.0798,8.6519 L 17.0553,8.5624 L 17.0309,8.4729 L 17.0064,8.3833 L 16.9853,8.293 L 16.9647,8.2025 L 16.9442,8.112 L 16.9236,8.0215 L 16.9044,7.9307 L 16.888,7.8394 L 16.8716,7.748 L 16.8552,7.6567 L 16.8388,7.5654 L 16.8263,7.4734 L 16.8143,7.3814 L 16.8023,7.2894 L 16.7903,7.1974 L 16.7808,7.1051 L 16.7733,7.0126 L 16.7658,6.9201 L 16.7583,6.8276 L 16.7521,6.735 L 16.7493,6.6422 L 16.7465,6.5495 L 16.7437,6.4567 L 16.7409,6.364" />
      <path d="M 16.7409,6.364 L 16.7428,6.2697 L 16.7448,6.1755 L 16.7468,6.0813 L 16.7487,5.987 L 16.7543,5.8929 L 16.761,5.7989 L 16.7678,5.7049 L 16.7745,5.6109 L 16.7835,5.5171 L 16.795,5.4235 L 16.8064,5.33 L 16.8179,5.2364 L 16.8299,5.143 L 16.8459,5.0501 L 16.8619,4.9572 L 16.8779,4.8643 L 16.8939,4.7714 L 16.9129,4.6791 L 16.9332,4.5871 L 16.9535,4.495 L 16.9738,4.403 L 16.9948,4.3111 L 17.0191,4.22 L 17.0434,4.129 L 17.0678,4.0379 L 17.0921,3.9468 L 17.1183,3.8563 L 17.1464,3.7663 L 17.1744,3.6763 L 17.2025,3.5863 L 17.2305,3.4964 L 17.2609,3.4072 L 17.2924,3.3183 L 17.3239,3.2295 L 17.3553,3.1406 L 17.3868,3.0518 L 17.4203,2.9637 L 17.4549,2.876 L 17.4895,2.7883 L 17.5241,2.7007 L 17.5587,2.613 L 17.5945,2.5258 L 17.6319,2.4393 L 17.6693,2.3528 L 17.7067,2.2663 L 17.7442,2.1797 L 17.7816,2.0932 L 17.8214,2.0078 L 17.8613,1.9224 L 17.9012,1.837 L 17.9412,1.7517 L 17.9811,1.6663 L 18.0215,1.5811 L 18.0637,1.4968 L 18.1059,1.4125 L 18.1481,1.3283 L 18.1903,1.244 L 18.2325,1.1597 L 18.275,1.0755 L 18.3192,0.9923 L 18.3634,0.9091 L 18.4076,0.8258 L 18.4518,0.7426 L 18.4961,0.6593 L 18.5403,0.5761 L 18.5858,0.4936 L 18.6318,0.4113 L 18.6779,0.3291 L 18.7239,0.2468 L 18.7699,0.1645 L 18.8159,0.0823 L 18.8619,0.0" />
      <path d="M 26.7095,0.0 L 26.6005,0.0 L 26.4915,0.0 L 26.3825,0.0 L 26.2735,0.0 L 26.1645,0.0 L 26.0555,0.0 L 25.9465,0.0 L 25.8375,0.0 L 25.7285,0.0 L 25.6195,0.0 L 25.5105,0.0 L 25.4015,0.0 L 25.2926,0.0 L 25.1836,0.0 L 25.0746,0.0 L 24.9656,0.0 L 24.8566,0.0 L 24.7476,0.0 L 24.6386,0.0 L 24.5296,0.0 L 24.4206,0.0 L 24.3116,0.0 L 24.2026,0.0 L 24.0936,0.0 L 23.9846,0.0 L 23.8756,0.0 L 23.7666,0.0 L 23.6576,0.0 L 23.5486,0.0 L 23.4397,0.0 L 23.3307,0.0 L 23.2217,0.0 L 23.1127,0.0 L 23.0037,0.0 L 22.8947,0.0 L 22.7857,0.0 L 22.6767,0.0 L 22.5677,0.0 L 22.4587,0.0 L 22.3497,0.0 L 22.2407,0.0 L 22.1317,0.0 L 22.0227,0.0 L 21.9137,0.0 L 21.8047,0.0 L 21.6957,0.0 L 21.5867,0.0 L 21.4778,0.0 L 21.3688,0.0 L 21.2598,0.0 L 21.1508,0.0 L 21.0418,0.0 L 20.9328,0.0 L 20.8238,0.0 L 20.7148,0.0 L 20.6058,0.0 L 20.4968,0.0 L 20.3878,0.0 L 20.2788,0.0 L 20.1698,0.0 L 20.0608,0.0 L 19.9518,0.0 L 19.8428,0.0 L 19.7338,0.0 L 19.6249,0.0 L 19.5159,0.0 L 19.4069,0.0 L 19.2979,0.0 L 19.1889,0.0 L 19.0799,0.0 L 18.9709,0.0 L 18.8619,0.0" />
      <path d="M 18.8619,-0.0 L 18.8159,-0.0823 L 18.7699,-0.1645 L 18.7239,-0.2468 L 18.6779,-0.3291 L 18.6318,-0.4113 L 18.5858,-0.4936 L 18.5403,-0.5761 L 18.4961,-0.6593 L 18.4518,-0.7426 L 18.4076,-0.8258 L 18.3634,-0.9091 L 18.3192,-0.9923 L 18.275,-1.0755 L 18.2325,-1.1597 L 18.1903,-1.244 L 18.1481,-1.3283 L 18.1059,-1.4125 L 18.0637,-1.4968 L 18.0215,-1.5811 L 17.9811,-1.6663 L 17.9412,-1.7517 L 17.9012,-1.837 L 17.8613,-1.9224 L 17.8214,-2.0078 L 17.7816,-2.0932 L 17.7442,-2.1797 L 17.7067,-2.2663 L 17.6693,-2.3528 L 17.6319,-2.4393 L 17.5945,-2.5258 L 17.5587,-2.613 L 17.5241,-2.7007 L 17.4895,-2.7883 L 17.4549,-2.876 L 17.4203,-2.9637 L 17.3868,-3.0518 L 17.3553,-3.1406 L 17.3239,-3.2295 L 17.2924,-3.3183 L 17.2609,-3.4072 L 17.2305,-3.4964 L 17.2025,-3.5863 L 17.1744,-3.6763 L 17.1464,-3.7663 L 17.1183,-3.8563 L 17.0921,-3.9468 L 17.0678,-4.0379 L 17.0434,-4.129 L 17.0191,-4.22 L 16.9948,-4.3111 L 16.9738,-4.403 L 16.9535,-4.495 L 16.9332,-4.5871 L 16.9129,-4.6791 L 16.8939,-4.7714 L 16.8779,-4.8643 L 16.8619,-4.9572 L 16.8459,-5.0501 L 16.8299,-5.143 L 16.8179,-5.2364 L 16.8064,-5.33 L 16.795,-5.4235 L 16.7835,-5.5171 L 16.7745,-5.6109 L 16.7678,-5.7049 L 16.761,-5.7989 L 16.7543,-5.8929 L 16.7487,-5.987 L 16.7468,-6.0813 L 16.7448,-6.1755 L 16.7428,-6.2697 L 16.7409,-6.364" />
      <path d="M 16.7409,-6.364 L 16.7437,-6.4567 L 16.7465,-6.5495 L 16.7493,-6.6422 L 16.7521,-6.735 L 16.7583,-6.8276 L 16.7658,-6.9201 L 16.7733,-7.0126 L 16.7808,-7.1051 L 16.7903,-7.1974 L 16.8023,-7.2894 L 16.8143,-7.3814 L 16.8263,-7.4734 L 16.8388,-7.5654 L 16.8552,-7.6567 L 16.8716,-7.748 L 16.888,-7.8394 L 16.9044,-7.9307 L 16.9236,-8.0215 L 16.9442,-8.112 L 16.9647,-8.2025 L 16.9853,-8.293 L 17.0064,-8.3833 L 17.0309,-8.4729 L 17.0553,-8.5624 L 17.0798,-8.6519 L 17.1043,-8.7414 L 17.1304,-8.8304 L 17.1585,-8.9189 L 17.1866,-9.0073 L 17.2147,-9.0958 L 17.2428,-9.1842 L 17.2729,-9.272 L 17.3044,-9.3593 L 17.3358,-9.4466 L 17.3672,-9.5339 L 17.3986,-9.6213 L 17.4318,-9.7079 L 17.4663,-9.7941 L 17.5008,-9.8802 L 17.5352,-9.9664 L 17.5697,-10.0526 L 17.6051,-10.1383 L 17.6423,-10.2234 L 17.6795,-10.3084 L 17.7167,-10.3934 L 17.7539,-10.4784 L 17.7911,-10.5634 L 17.8304,-10.6475 L 17.8701,-10.7314 L 17.9097,-10.8153 L 17.9494,-10.8992 L 17.9891,-10.9831 L 18.029,-11.0668 L 18.0709,-11.1497 L 18.1127,-11.2325 L 18.1546,-11.3153 L 18.1965,-11.3981 L 18.2384,-11.4809 L 18.2804,-11.5637 L 18.3242,-11.6455 L 18.3681,-11.7273 L 18.4119,-11.809 L 18.4558,-11.8908 L 18.4996,-11.9726 L 18.5435,-12.0544 L 18.5886,-12.1355 L 18.6342,-12.2163 L 18.6798,-12.2972 L 18.7254,-12.378 L 18.771,-12.4588 L 18.8166,-12.5397 L 18.8622,-12.6205" />
      <path d="M 18.8622,-12.6205 L 18.863,-12.622 L 18.8639,-12.6235 L 18.8647,-12.625 L 18.8656,-12.6265 L 18.8665,-12.628 L 18.8673,-12.6294 L 18.8682,-12.6309 L 18.8691,-12.6324 L 18.8699,-12.6339 L 18.8708,-12.6354 L 18.8716,-12.6369 L 18.8725,-12.6384 L 18.8734,-12.6399 L 18.8742,-12.6414 L 18.8751,-12.6429 L 18.876,-12.6444 L 18.8768,-12.6459 L 18.8777,-12.6474 L 18.8786,-12.6489 L 18.8794,-12.6503 L 18.8803,-12.6518 L 18.8811,-12.6533 L 18.882,-12.6548 L 18.8829,-12.6563 L 18.8837,-12.6578 L 18.8846,-12.6593 L 18.8855,-12.6608 L 18.8863,-12.6623 L 18.8872,-12.6638 L 18.8881,-12.6653 L 18.8889,-12.6668 L 18.8898,-12.6683 L 18.8907,-12.6698 L 18.8915,-12.6712 L 18.8924,-12.6727 L 18.8932,-12.6742 L 18.8941,-12.6757 L 18.895,-12.6772 L 18.8958,-12.6787 L 18.8967,-12.6802 L 18.8976,-12.6817 L 18.8984,-12.6832 L 18.8993,-12.6847 L 18.9002,-12.6862 L 18.901,-12.6877 L 18.9019,-12.6892 L 18.9028,-12.6906 L 18.9036,-12.6921 L 18.9045,-12.6936 L 18.9054,-12.6951 L 18.9062,-12.6966 L 18.9071,-12.6981 L 18.908,-12.6996 L 18.9088,-12.7011 L 18.9097,-12.7026 L 18.9106,-12.7041 L 18.9114,-12.7056 L 18.9123,-12.707 L 18.9132,-12.7085 L 18.914,-12.71 L 18.9149,-12.7115 L 18.9158,-12.713 L 18.9166,-12.7145 L 18.9175,-12.716 L 18.9184,-12.7175 L 18.9192,-12.719 L 18.9201,-12.7205 L 18.921,-12.722 L 18.9218,-12.7234 L 18.9227,-12.7249 L 18.9236,-12.7264 L 18.9244,-12.7279" />
      <path d="M 16.7718,-8.9997 L 16.7682,-8.9633 L 16.7665,-8.9267 L 16.7653,-8.8901 L 16.7642,-8.8535 L 16.7633,-8.8169 L 16.7624,-8.7803 L 16.7617,-8.7437 L 16.761,-8.7071 L 16.7603,-8.6705 L 16.7597,-8.6339 L 16.7591,-8.5973 L 16.7585,-8.5607 L 16.758,-8.5241 L 16.7574,-8.4875 L 16.7569,-8.4509 L 16.7565,-8.4143 L 16.756,-8.3776 L 16.7555,-8.341 L 16.7551,-8.3044 L 16.7547,-8.2678 L 16.7543,-8.2312 L 16.7539,-8.1946 L 16.7535,-8.158 L 16.7531,-8.1214 L 16.7527,-8.0848 L 16.7524,-8.0481 L 16.752,-8.0115 L 16.7517,-7.9749 L 16.7513,-7.9383 L 16.751,-7.9017 L 16.7507,-7.8651 L 16.7503,-7.8285 L 16.75,-7.7919 L 16.7497,-7.7552 L 16.7494,-7.7186 L 16.7491,-7.682 L 16.7488,-7.6454 L 16.7485,-7.6088 L 16.7482,-7.5722 L 16.748,-7.5356 L 16.7477,-7.499 L 16.7474,-7.4623 L 16.7472,-7.4257 L 16.7469,-7.3891 L 16.7466,-7.3525 L 16.7464,-7.3159 L 16.7461,-7.2793 L 16.7459,-7.2427 L 16.7457,-7.2061 L 16.7454,-7.1694 L 16.7452,-7.1328 L 16.7449,-7.0962 L 16.7447,-7.0596 L 16.7445,-7.023 L 16.7443,-6.9864 L 16.7441,-6.9498 L 16.7438,-6.9132 L 16.7436,-6.8765 L 16.7434,-6.8399 L 16.7432,-6.8033 L 16.743,-6.7667 L 16.7428,-6.7301 L 16.7426,-6.6935 L 16.7424,-6.6569 L 16.7422,-6.6203 L 16.742,-6.5836 L 16.7418,-6.547 L 16.7416,-6.5104 L 16.7414,-6.4738 L 16.7412,-6.4372 L 16.7411,-6.4006 L 16.7409,-6.364" />
      <path d="M 16.7409,-6.364 L 16.74,-6.1872 L 16.7392,-6.0104 L 16.7385,-5.8336 L 16.7378,-5.6569 L 16.7371,-5.4801 L 16.7364,-5.3033 L 16.7358,-5.1265 L 16.7352,-4.9498 L 16.7347,-4.773 L 16.7341,-4.5962 L 16.7336,-4.4194 L 16.7331,-4.2426 L 16.7327,-4.0659 L 16.7323,-3.8891 L 16.7319,-3.7123 L 16.7315,-3.5355 L 16.7311,-3.3588 L 16.7308,-3.182 L 16.7305,-3.0052 L 16.7302,-2.8284 L 16.7299,-2.6517 L 16.7296,-2.4749 L 16.7294,-2.2981 L 16.7292,-2.1213 L 16.729,-1.9445 L 16.7288,-1.7678 L 16.7286,-1.591 L 16.7285,-1.4142 L 16.7283,-1.2374 L 16.7282,-1.0607 L 16.7281,-0.8839 L 16.7281,-0.7071 L 16.728,-0.5303 L 16.728,-0.3536 L 16.7279,-0.1768 L 16.7279,0.0 L 16.7279,0.1768 L 16.728,0.3536 L 16.728,0.5303 L 16.7281,0.7071 L 16.7281,0.8839 L 16.7282,1.0607 L 16.7283,1.2374 L 16.7285,1.4142 L 16.7286,1.591 L 16.7288,1.7678 L 16.729,1.9445 L 16.7292,2.1213 L 16.7294,2.2981 L 16.7296,2.4749 L 16.7299,2.6517 L 16.7302,2.8284 L 16.7305,3.0052 L 16.7308,3.182 L 16.7311,3.3588 L 16.7315,3.5355 L 16.7319,3.7123 L 16.7323,3.8891 L 16.7327,4.0659 L 16.7331,4.2426 L 16.7336,4.4194 L 16.7341,4.5962 L 16.7347,4.773 L 16.7352,4.9498 L 16.7358,5.1265 L 16.7364,5.3033 L 16.7371,5.4801 L 16.7378,5.6569 L 16.7385,5.8336 L 16.7392,6.0104 L 16.74,6.1872 L 16.7409,6.364" />
      <path d="M 16.7718,8.9997 L 16.8008,9.05 L 16.8298,9.1003 L 16.8589,9.1505 L 16.8879,9.2008 L 16.9169,9.2511 L 16.946,9.3014 L 16.975,9.3517 L 17.004,9.402 L 17.0331,9.4523 L 17.0621,9.5026 L 17.0911,9.5529 L 17.1202,9.6031 L 17.1492,9.6534 L 17.1782,9.7037 L 17.2073,9.754 L 17.2363,9.8043 L 17.2653,9.8546 L 17.2944,9.9049 L 17.3234,9.9552 L 17.3524,10.0055 L 17.3815,10.0557 L 17.4105,10.106 L 17.4395,10.1563 L 17.4686,10.2066 L 17.4976,10.2569 L 17.5266,10.3072 L 17.5557,10.3575 L 17.5847,10.4078 L 17.6137,10.4581 L 17.6428,10.5083 L 17.6718,10.5586 L 17.7008,10.6089 L 17.7299,10.6592 L 17.7589,10.7095 L 17.7879,10.7598 L 17.817,10.8101 L 17.846,10.8604 L 17.875,10.9107 L 17.9041,10.9609 L 17.9331,11.0112 L 17.9621,11.0615 L 17.9912,11.1118 L 18.0202,11.1621 L 18.0492,11.2124 L 18.0783,11.2627 L 18.1073,11.313 L 18.1363,11.3633 L 18.1654,11.4135 L 18.1944,11.4638 L 18.2234,11.5141 L 18.2525,11.5644 L 18.2815,11.6147 L 18.3105,11.665 L 18.3396,11.7153 L 18.3686,11.7656 L 18.3976,11.8159 L 18.4267,11.8661 L 18.4557,11.9164 L 18.4847,11.9667 L 18.5138,12.017 L 18.5428,12.0673 L 18.5718,12.1176 L 18.6009,12.1679 L 18.6299,12.2182 L 18.6589,12.2685 L 18.688,12.3187 L 18.717,12.369 L 18.746,12.4193 L 18.7751,12.4696 L 18.8041,12.5199 L 18.8331,12.5702 L 18.8622,12.6205" />
      <path d="M 16.7718,-8.9997 L 16.8008,-9.05 L 16.8298,-9.1003 L 16.8589,-9.1505 L 16.8879,-9.2008 L 16.9169,-9.2511 L 16.946,-9.3014 L 16.975,-9.3517 L 17.004,-9.402 L 17.0331,-9.4523 L 17.0621,-9.5026 L 17.0911,-9.5529 L 17.1202,-9.6031 L 17.1492,-9.6534 L 17.1782,-9.7037 L 17.2073,-9.754 L 17.2363,-9.8043 L 17.2653,-9.8546 L 17.2944,-9.9049 L 17.3234,-9.9552 L 17.3524,-10.0055 L 17.3815,-10.0557 L 17.4105,-10.106 L 17.4395,-10.1563 L 17.4686,-10.2066 L 17.4976,-10.2569 L 17.5266,-10.3072 L 17.5557,-10.3575 L 17.5847,-10.4078 L 17.6137,-10.4581 L 17.6428,-10.5083 L 17.6718,-10.5586 L 17.7008,-10.6089 L 17.7299,-10.6592 L 17.7589,-10.7095 L 17.7879,-10.7598 L 17.817,-10.8101 L 17.846,-10.8604 L 17.875,-10.9107 L 17.9041,-10.9609 L 17.9331,-11.0112 L 17.9621,-11.0615 L 17.9912,-11.1118 L 18.0202,-11.1621 L 18.0492,-11.2124 L 18.0783,-11.2627 L 18.1073,-11.313 L 18.1363,-11.3633 L 18.1654,-11.4135 L 18.1944,-11.4638 L 18.2234,-11.5141 L 18.2525,-11.5644 L 18.2815,-11.6147 L 18.3105,-11.665 L 18.3396,-11.7153 L 18.3686,-11.7656 L 18.3976,-11.8159 L 18.4267,-11.8661 L 18.4557,-11.9164 L 18.4847,-11.9667 L 18.5138,-12.017 L 18.5428,-12.0673 L 18.5718,-12.1176 L 18.6009,-12.1679 L 18.6299,-12.2182 L 18.6589,-12.2685 L 18.688,-12.3187 L 18.717,-12.369 L 18.746,-12.4193 L 18.7751,-12.4696 L 18.8041,-12.5199 L 18.8331,-12.5702 L 18.8622,-12.6205" />
    </g>
    <g fill="none" stroke="rgb(110,110,110)" stroke-width="0.3" id="Hidden" stroke-dasharray="3.6 0.9">
      <path d="M 0.0,12.7279 L -0.1768,12.5511 L -0.3536,12.3744 L -0.5303,12.1976 L -0.7071,12.0208 L -0.8839,11.844 L -1.0607,11.6673 L -1.2374,11.4905 L -1.4142,11.3137 L -1.591,11.1369 L -1.7678,10.9602 L -1.9445,10.7834 L -2.1213,10.6066 L -2.2981,10.4298 L -2.4749,10.253 L -2.6517,10.0763 L -2.8284,9.8995 L -3.0052,9.7227 L -3.182,9.5459 L -3.3588,9.3692 L -3.5355,9.1924 L -3.7123,9.0156 L -3.8891,8.8388 L -4.0659,8.6621 L -4.2426,8.4853 L -4.4194,8.3085 L -4.5962,8.1317 L -4.773,7.955 L -4.9497,7.7782 L -5.1265,7.6014 L -5.3033,7.4246 L -5.4801,7.2478 L -5.6569,7.0711 L -5.8336,6.8943 L -6.0104,6.7175 L -6.1872,6.5407 L -6.364,6.364 L -6.5407,6.1872 L -6.7175,6.0104 L -6.8943,5.8336 L -7.0711,5.6569 L -7.2478,5.4801 L -7.4246,5.3033 L -7.6014,5.1265 L -7.7782,4.9497 L -7.955,4.773 L -8.1317,4.5962 L -8.3085,4.4194 L -8.4853,4.2426 L -8.6621,4.0659 L -8.8388,3.8891 L -9.0156,3.7123 L -9.1924,3.5355 L -9.3692,3.3588 L -9.5459,3.182 L -9.7227,3.0052 L -9.8995,2.8284 L -10.0763,2.6517 L -10.253,2.4749 L -10.4298,2.2981 L -10.6066,2.1213 L -10.7834,1.9445 L -10.9602,1.7678 L -11.1369,1.591 L -11.3137,1.4142 L -11.4905,1.2374 L -11.6673,1.0607 L -11.844,0.8839 L -12.0208,0.7071 L -12.1976,0.5303 L -12.3744,0.3536 L -12.5511,0.1768 L -12.7279,0.0" />
      <path d="M 12.7279,0.0 L 12.5511,0.1768 L 12.3744,0.3536 L 12.1976,0.5303 L 12.0208,0.7071 L 11.844,0.8839 L 11.6673,1.0607 L 11.4905,1.2374 L 11.3137,1.4142 L 11.1369,1.591 L 10.9602,1.7678 L 10.7834,1.9445 L 10.6066,2.1213 L 10.4298,2.2981 L 10.253,2.4749 L 10.0763,2.6517 L 9.8995,2.8284 L 9.7227,3.0052 L 9.5459,3.182 L 9.3692,3.3588 L 9.1924,3.5355 L 9.0156,3.7123 L 8.8388,3.8891 L 8.6621,4.0659 L 8.4853,4.2426 L 8.3085,4.4194 L 8.1317,4.5962 L 7.955,4.773 L 7.7782,4.9497 L 7.6014,5.1265 L 7.4246,5.3033 L 7.2478,5.4801 L 7.0711,5.6569 L 6.8943,5.8336 L 6.7175,6.0104 L 6.5407,6.1872 L 6.364,6.364 L 6.1872,6.5407 L 6.0104,6.7175 L 5.8336,6.8943 L 5.6569,7.0711 L 5.4801,7.2478 L 5.3033,7.4246 L 5.1265,7.6014 L 4.9497,7.7782 L 4.773,7.955 L 4.5962,8.1317 L 4.4194,8.3085 L 4.2426,8.4853 L 4.0659,8.6621 L 3.8891,8.8388 L 3.7123,9.0156 L 3.5355,9.1924 L 3.3588,9.3692 L 3.182,9.5459 L 3.0052,9.7227 L 2.8284,9.8995 L 2.6517,10.0763 L 2.4749,10.253 L 2.2981,10.4298 L 2.1213,10.6066 L 1.9445,10.7834 L 1.7678,10.9602 L 1.591,11.1369 L 1.4142,11.3137 L 1.2374,11.4905 L 1.0607,11.6673 L 0.8839,11.844 L 0.7071,12.0208 L 0.5303,12.1976 L 0.3536,12.3744 L 0.1768,12.5511 L 0.0,12.7279" />
      <path d="M -12.7279,-0.0 L -12.5511,-0.1768 L -12.3744,-0.3536 L -12.1976,-0.5303 L -12.0208,-0.7071 L -11.844,-0.8839 L -11.6673,-1.0607 L -11.4905,-1.2374 L -11.3137,-1.4142 L -11.1369,-1.591 L -10.9602,-1.7678 L -10.7834,-1.9445 L -10.6066,-2.1213 L -10.4298,-2.2981 L -10.253,-2.4749 L -10.0763,-2.6517 L -9.8995,-2.8284 L -9.7227,-3.0052 L -9.5459,-3.182 L -9.3692,-3.3588 L -9.1924,-3.5355 L -9.0156,-3.7123 L -8.8388,-3.8891 L -8.6621,-4.0659 L -8.4853,-4.2426 L -8.3085,-4.4194 L -8.1317,-4.5962 L -7.955,-4.773 L -7.7782,-4.9497 L -7.6014,-5.1265 L -7.4246,-5.3033 L -7.2478,-5.4801 L -7.0711,-5.6569 L -6.8943,-5.8336 L -6.7175,-6.0104 L -6.5407,-6.1872 L -6.364,-6.364 L -6.1872,-6.5407 L -6.0104,-6.7175 L -5.8336,-6.8943 L -5.6569,-7.0711 L -5.4801,-7.2478 L -5.3033,-7.4246 L -5.1265,-7.6014 L -4.9497,-7.7782 L -4.773,-7.955 L -4.5962,-8.1317 L -4.4194,-8.3085 L -4.2426,-8.4853 L -4.0659,-8.6621 L -3.8891,-8.8388 L -3.7123,-9.0156 L -3.5355,-9.1924 L -3.3588,-9.3692 L -3.182,-9.5459 L -3.0052,-9.7227 L -2.8284,-9.8995 L -2.6517,-10.0763 L -2.4749,-10.253 L -2.2981,-10.4298 L -2.1213,-10.6066 L -1.9445,-10.7834 L -1.7678,-10.9602 L -1.591,-11.1369 L -1.4142,-11.3137 L -1.2374,-11.4905 L -1.0607,-11.6673 L -0.8839,-11.844 L -0.7071,-12.0208 L -0.5303,-12.1976 L -0.3536,-12.3744 L -0.1768,-12.5511 L -0.0,-12.7279" />
      <path d="M 0.0,-12.7279 L 0.1768,-12.5511 L 0.3536,-12.3744 L 0.5303,-12.1976 L 0.7071,-12.0208 L 0.8839,-11.844 L 1.0607,-11.6673 L 1.2374,-11.4905 L 1.4142,-11.3137 L 1.591,-11.1369 L 1.7678,-10.9602 L 1.9445,-10.7834 L 2.1213,-10.6066 L 2.2981,-10.4298 L 2.4749,-10.253 L 2.6517,-10.0763 L 2.8284,-9.8995 L 3.0052,-9.7227 L 3.182,-9.5459 L 3.3588,-9.3692 L 3.5355,-9.1924 L 3.7123,-9.0156 L 3.8891,-8.8388 L 4.0659,-8.6621 L 4.2426,-8.4853 L 4.4194,-8.3085 L 4.5962,-8.1317 L 4.773,-7.955 L 4.9497,-7.7782 L 5.1265,-7.6014 L 5.3033,-7.4246 L 5.4801,-7.2478 L 5.6569,-7.0711 L 5.8336,-6.8943 L 6.0104,-6.7175 L 6.1872,-6.5407 L 6.364,-6.364 L 6.5407,-6.1872 L 6.7175,-6.0104 L 6.8943,-5.8336 L 7.0711,-5.6569 L 7.2478,-5.4801 L 7.4246,-5.3033 L 7.6014,-5.1265 L 7.7782,-4.9497 L 7.955,-4.773 L 8.1317,-4.5962 L 8.3085,-4.4194 L 8.4853,-4.2426 L 8.6621,-4.0659 L 8.8388,-3.8891 L 9.0156,-3.7123 L 9.1924,-3.5355 L 9.3692,-3.3588 L 9.5459,-3.182 L 9.7227,-3.0052 L 9.8995,-2.8284 L 10.0763,-2.6517 L 10.253,-2.4749 L 10.4298,-2.2981 L 10.6066,-2.1213 L 10.7834,-1.9445 L 10.9602,-1.7678 L 11.1369,-1.591 L 11.3137,-1.4142 L 11.4905,-1.2374 L 11.6673,-1.0607 L 11.844,-0.8839 L 12.0208,-0.7071 L 12.1976,-0.5303 L 12.3744,-0.3536 L 12.5511,-0.1768 L 12.7279,-0.0" />
      <path d="M 0.0,5.05 L -0.4401,5.0308 L -0.8769,4.9733 L -1.307,4.8779 L -1.7272,4.7454 L -2.1342,4.5769 L -2.525,4.3734 L -2.8966,4.1367 L -3.2461,3.8685 L -3.5709,3.5709 L -3.8685,3.2461 L -4.1367,2.8966 L -4.3734,2.525 L -4.5769,2.1342 L -4.7454,1.7272 L -4.8779,1.307 L -4.9733,0.8769 L -5.0308,0.4401 L -5.05,-0.0 L -5.0308,-0.4401 L -4.9733,-0.8769 L -4.8779,-1.307 L -4.7454,-1.7272 L -4.5769,-2.1342 L -4.3734,-2.525 L -4.1367,-2.8966 L -3.8685,-3.2461 L -3.5709,-3.5709 L -3.2461,-3.8685 L -2.8966,-4.1367 L -2.525,-4.3734 L -2.1342,-4.5769 L -1.7272,-4.7454 L -1.307,-4.8779 L -0.8769,-4.9733 L -0.4401,-5.0308 L 0.0,-5.05 L 0.4401,-5.0308 L 0.8769,-4.9733 L 1.307,-4.8779 L 1.7272,-4.7454 L 2.1342,-4.5769 L 2.525,-4.3734 L 2.8966,-4.1367 L 3.2461,-3.8685 L 3.5709,-3.5709 L 3.8685,-3.2461 L 4.1367,-2.8966 L 4.3734,-2.525 L 4.5769,-2.1342 L 4.7454,-1.7272 L 4.8779,-1.307 L 4.9733,-0.8769 L 5.0308,-0.4401 L 5.05,0.0 L 5.0308,0.4401 L 4.9733,0.8769 L 4.8779,1.307 L 4.7454,1.7272 L 4.5769,2.1342 L 4.3734,2.525 L 4.1367,2.8966 L 3.8685,3.2461 L 3.5709,3.5709 L 3.2461,3.8685 L 2.8966,4.1367 L 2.525,4.3734 L 2.1342,4.5769 L 1.7272,4.7454 L 1.307,4.8779 L 0.8769,4.9733 L 0.4401,5.0308 L -0.0,5.05" />
      <path d="M 26.8346,0.0 L 26.7256,0.0 L 26.6166,0.0 L 26.5076,0.0 L 26.3986,0.0 L 26.2896,0.0 L 26.1806,0.0 L 26.0716,0.0 L 25.9626,0.0 L 25.8536,0.0 L 25.7446,0.0 L 25.6357,0.0 L 25.5267,0.0 L 25.4177,0.0 L 25.3087,0.0 L 25.1997,0.0 L 25.0907,0.0 L 24.9817,0.0 L 24.8727,0.0 L 24.7637,0.0 L 24.6547,0.0 L 24.5457,0.0 L 24.4367,0.0 L 24.3277,0.0 L 24.2187,0.0 L 24.1097,0.0 L 24.0007,0.0 L 23.8917,0.0 L 23.7828,0.0 L 23.6738,0.0 L 23.5648,0.0 L 23.4558,0.0 L 23.3468,0.0 L 23.2378,0.0 L 23.1288,0.0 L 23.0198,0.0 L 22.9108,0.0 L 22.8018,0.0 L 22.6928,0.0 L 22.5838,0.0 L 22.4748,0.0 L 22.3658,0.0 L 22.2568,0.0 L 22.1478,0.0 L 22.0388,0.0 L 21.9298,0.0 L 21.8209,0.0 L 21.7119,0.0 L 21.6029,0.0 L 21.4939,0.0 L 21.3849,0.0 L 21.2759,0.0 L 21.1669,0.0 L 21.0579,0.0 L 20.9489,0.0 L 20.8399,0.0 L 20.7309,0.0 L 20.6219,0.0 L 20.5129,0.0 L 20.4039,0.0 L 20.2949,0.0 L 20.1859,0.0 L 20.0769,0.0 L 19.968,0.0 L 19.859,0.0 L 19.75,0.0 L 19.641,0.0 L 19.532,0.0 L 19.423,0.0 L 19.314,0.0 L 19.205,0.0 L 19.096,0.0 L 18.987,0.0" />
      <path d="M 18.987,0.0 L 18.9402,0.0822 L 18.8935,0.1643 L 18.8467,0.2465 L 18.8,0.3286 L 18.7532,0.4108 L 18.7065,0.4929 L 18.6602,0.5753 L 18.6152,0.6585 L 18.5702,0.7416 L 18.5252,0.8247 L 18.4802,0.9079 L 18.4352,0.991 L 18.3903,1.0741 L 18.347,1.1582 L 18.304,1.2424 L 18.261,1.3266 L 18.218,1.4107 L 18.175,1.4949 L 18.1321,1.5791 L 18.0909,1.6642 L 18.0501,1.7495 L 18.0094,1.8348 L 17.9686,1.9201 L 17.9279,2.0054 L 17.8872,2.0907 L 17.849,2.1771 L 17.8108,2.2636 L 17.7725,2.35 L 17.7343,2.4365 L 17.6961,2.5229 L 17.6593,2.61 L 17.6239,2.6977 L 17.5885,2.7853 L 17.553,2.8729 L 17.5176,2.9606 L 17.4831,3.0486 L 17.4507,3.1374 L 17.4184,3.2262 L 17.3861,3.315 L 17.3537,3.4038 L 17.3223,3.493 L 17.2934,3.583 L 17.2645,3.673 L 17.2355,3.763 L 17.2066,3.8529 L 17.1793,3.9434 L 17.1541,4.0345 L 17.1289,4.1256 L 17.1037,4.2167 L 17.0784,4.3078 L 17.0564,4.3997 L 17.0352,4.4918 L 17.014,4.584 L 16.9927,4.6761 L 16.9726,4.7684 L 16.9557,4.8614 L 16.9388,4.9544 L 16.9219,5.0474 L 16.905,5.1404 L 16.8918,5.234 L 16.8794,5.3277 L 16.867,5.4214 L 16.8546,5.5152 L 16.8447,5.6091 L 16.8369,5.7033 L 16.8292,5.7975 L 16.8215,5.8918 L 16.815,5.986 L 16.8121,6.0805 L 16.8092,6.175 L 16.8063,6.2695 L 16.8034,6.364" />
      <path d="M 16.8034,6.364 L 16.8054,6.4582 L 16.8073,6.5524 L 16.8093,6.6467 L 16.8113,6.7409 L 16.8168,6.835 L 16.8236,6.929 L 16.8303,7.023 L 16.8371,7.117 L 16.8461,7.2108 L 16.8575,7.3044 L 16.869,7.3979 L 16.8804,7.4915 L 16.8925,7.585 L 16.9085,7.6779 L 16.9245,7.7707 L 16.9405,7.8636 L 16.9564,7.9565 L 16.9755,8.0488 L 16.9958,8.1409 L 17.0161,8.2329 L 17.0363,8.325 L 17.0574,8.4168 L 17.0817,8.5079 L 17.106,8.599 L 17.1303,8.69 L 17.1546,8.7811 L 17.1809,8.8716 L 17.2089,8.9616 L 17.237,9.0516 L 17.265,9.1416 L 17.2931,9.2316 L 17.3235,9.3208 L 17.3549,9.4096 L 17.3864,9.4985 L 17.4179,9.5873 L 17.4494,9.6762 L 17.4829,9.7642 L 17.5175,9.8519 L 17.5521,9.9396 L 17.5867,10.0273 L 17.6213,10.1149 L 17.6571,10.2021 L 17.6945,10.2886 L 17.7319,10.3752 L 17.7693,10.4617 L 17.8067,10.5482 L 17.8441,10.6347 L 17.8839,10.7201 L 17.9239,10.8055 L 17.9638,10.8909 L 18.0037,10.9763 L 18.0437,11.0616 L 18.084,11.1468 L 18.1262,11.2311 L 18.1684,11.3154 L 18.2107,11.3997 L 18.2529,11.4839 L 18.2951,11.5682 L 18.3375,11.6524 L 18.3817,11.7356 L 18.426,11.8189 L 18.4702,11.9021 L 18.5144,11.9853 L 18.5586,12.0686 L 18.6028,12.1518 L 18.6484,12.2343 L 18.6944,12.3166 L 18.7404,12.3989 L 18.7864,12.4811 L 18.8324,12.5634 L 18.8784,12.6457 L 18.9244,12.7279" />
      <path d="M 18.9244,-12.7279 L 18.8784,-12.6457 L 18.8324,-12.5634 L 18.7864,-12.4811 L 18.7404,-12.3989 L 18.6944,-12.3166 L 18.6484,-12.2343 L 18.6028,-12.1518 L 18.5586,-12.0686 L 18.5144,-11.9853 L 18.4702,-11.9021 L 18.426,-11.8189 L 18.3817,-11.7356 L 18.3375,-11.6524 L 18.2951,-11.5682 L 18.2529,-11.4839 L 18.2107,-11.3997 L 18.1684,-11.3154 L 18.1262,-11.2311 L 18.084,-11.1468 L 18.0437,-11.0616 L 18.0037,-10.9763 L 17.9638,-10.8909 L 17.9239,-10.8055 L 17.8839,-10.7201 L 17.8441,-10.6347 L 17.8067,-10.5482 L 17.7693,-10.4617 L 17.7319,-10.3752 L 17.6945,-10.2886 L 17.6571,-10.2021 L 17.6213,-10.1149 L 17.5867,-10.0273 L 17.5521,-9.9396 L 17.5175,-9.8519 L 17.4829,-9.7642 L 17.4494,-9.6762 L 17.4179,-9.5873 L 17.3864,-9.4985 L 17.3549,-9.4096 L 17.3235,-9.3208 L 17.2931,-9.2316 L 17.265,-9.1416 L 17.237,-9.0516 L 17.2089,-8.9616 L 17.1809,-8.8716 L 17.1546,-8.7811 L 17.1303,-8.69 L 17.106,-8.599 L 17.0817,-8.5079 L 17.0574,-8.4168 L 17.0363,-8.325 L 17.0161,-8.2329 L 16.9958,-8.1409 L 16.9755,-8.0488 L 16.9564,-7.9565 L 16.9405,-7.8636 L 16.9245,-7.7707 L 16.9085,-7.6779 L 16.8925,-7.585 L 16.8804,-7.4915 L 16.869,-7.3979 L 16.8575,-7.3044 L 16.8461,-7.2108 L 16.8371,-7.117 L 16.8303,-7.023 L 16.8236,-6.929 L 16.8168,-6.835 L 16.8113,-6.7409 L 16.8093,-6.6467 L 16.8073,-6.5524 L 16.8054,-6.4582 L 16.8034,-6.364" />
      <path d="M 16.8034,-6.364 L 16.8063,-6.2695 L 16.8092,-6.175 L 16.8121,-6.0805 L 16.815,-5.986 L 16.8215,-5.8918 L 16.8292,-5.7975 L 16.8369,-5.7033 L 16.8447,-5.6091 L 16.8546,-5.5152 L 16.867,-5.4214 L 16.8794,-5.3277 L 16.8918,-5.234 L 16.905,-5.1404 L 16.9219,-5.0474 L 16.9388,-4.9544 L 16.9557,-4.8614 L 16.9726,-4.7684 L 16.9927,-4.6761 L 17.014,-4.584 L 17.0352,-4.4918 L 17.0564,-4.3997 L 17.0784,-4.3078 L 17.1037,-4.2167 L 17.1289,-4.1256 L 17.1541,-4.0345 L 17.1793,-3.9434 L 17.2066,-3.8529 L 17.2355,-3.763 L 17.2645,-3.673 L 17.2934,-3.583 L 17.3223,-3.493 L 17.3537,-3.4038 L 17.3861,-3.315 L 17.4184,-3.2262 L 17.4507,-3.1374 L 17.4831,-3.0486 L 17.5176,-2.9606 L 17.553,-2.8729 L 17.5885,-2.7853 L 17.6239,-2.6977 L 17.6593,-2.61 L 17.6961,-2.5229 L 17.7343,-2.4365 L 17.7725,-2.35 L 17.8108,-2.2636 L 17.849,-2.1771 L 17.8872,-2.0907 L 17.9279,-2.0054 L 17.9686,-1.9201 L 18.0094,-1.8348 L 18.0501,-1.7495 L 18.0909,-1.6642 L 18.1321,-1.5791 L 18.175,-1.4949 L 18.218,-1.4107 L 18.261,-1.3266 L 18.304,-1.2424 L 18.347,-1.1582 L 18.3903,-1.0741 L 18.4352,-0.991 L 18.4802,-0.9079 L 18.5252,-0.8247 L 18.5702,-0.7416 L 18.6152,-0.6585 L 18.6602,-0.5753 L 18.7065,-0.4929 L 18.7532,-0.4108 L 18.8,-0.3286 L 18.8467,-0.2465 L 18.8935,-0.1643 L 18.9402,-0.0822 L 18.987,0.0" />
      <path d="M 16.8034,6.364 L 16.8043,6.1872 L 16.8051,6.0104 L 16.8058,5.8336 L 16.8066,5.6569 L 16.8072,5.4801 L 16.8079,5.3033 L 16.8085,5.1265 L 16.8091,4.9498 L 16.8097,4.773 L 16.8102,4.5962 L 16.8107,4.4194 L 16.8112,4.2426 L 16.8116,4.0659 L 16.812,3.8891 L 16.8125,3.7123 L 16.8128,3.5355 L 16.8132,3.3588 L 16.8135,3.182 L 16.8139,3.0052 L 16.8141,2.8284 L 16.8144,2.6517 L 16.8147,2.4749 L 16.8149,2.2981 L 16.8151,2.1213 L 16.8153,1.9445 L 16.8155,1.7678 L 16.8157,1.591 L 16.8158,1.4142 L 16.816,1.2374 L 16.8161,1.0607 L 16.8162,0.8839 L 16.8163,0.7071 L 16.8163,0.5303 L 16.8164,0.3536 L 16.8164,0.1768 L 16.8164,0.0 L 16.8164,-0.1768 L 16.8164,-0.3536 L 16.8163,-0.5303 L 16.8163,-0.7071 L 16.8162,-0.8839 L 16.8161,-1.0607 L 16.816,-1.2374 L 16.8158,-1.4142 L 16.8157,-1.591 L 16.8155,-1.7678 L 16.8153,-1.9445 L 16.8151,-2.1213 L 16.8149,-2.2981 L 16.8147,-2.4749 L 16.8144,-2.6517 L 16.8141,-2.8284 L 16.8139,-3.0052 L 16.8135,-3.182 L 16.8132,-3.3588 L 16.8128,-3.5355 L 16.8125,-3.7123 L 16.812,-3.8891 L 16.8116,-4.0659 L 16.8112,-4.2426 L 16.8107,-4.4194 L 16.8102,-4.5962 L 16.8097,-4.773 L 16.8091,-4.9498 L 16.8085,-5.1265 L 16.8079,-5.3033 L 16.8072,-5.4801 L 16.8066,-5.6569 L 16.8058,-5.8336 L 16.8051,-6.0104 L 16.8043,-6.1872 L 16.8034,-6.364" />
      <path d="M 16.8034,6.364 L 16.8033,6.4006 L 16.8031,6.4372 L 16.8029,6.4738 L 16.8027,6.5105 L 16.8025,6.5471 L 16.8023,6.5837 L 16.8021,6.6203 L 16.8019,6.6569 L 16.8017,6.6936 L 16.8015,6.7302 L 16.8013,6.7668 L 16.8011,6.8034 L 16.8009,6.8401 L 16.8007,6.8767 L 16.8005,6.9133 L 16.8003,6.9499 L 16.8,6.9866 L 16.7998,7.0232 L 16.7996,7.0598 L 16.7994,7.0964 L 16.7991,7.133 L 16.7989,7.1697 L 16.7987,7.2063 L 16.7984,7.2429 L 16.7982,7.2795 L 16.7979,7.3162 L 16.7977,7.3528 L 16.7974,7.3894 L 16.7971,7.426 L 16.7969,7.4626 L 16.7966,7.4993 L 16.7963,7.5359 L 16.7961,7.5725 L 16.7958,7.6091 L 16.7955,7.6458 L 16.7952,7.6824 L 16.7949,7.719 L 16.7946,7.7556 L 16.7943,7.7922 L 16.794,7.8289 L 16.7937,7.8655 L 16.7933,7.9021 L 16.793,7.9387 L 16.7927,7.9754 L 16.7923,8.012 L 16.7919,8.0486 L 16.7916,8.0852 L 16.7912,8.1218 L 16.7908,8.1585 L 16.7904,8.1951 L 16.79,8.2317 L 16.7896,8.2683 L 16.7892,8.3049 L 16.7888,8.3416 L 16.7883,8.3782 L 16.7878,8.4148 L 16.7874,8.4514 L 16.7869,8.4881 L 16.7863,8.5247 L 16.7858,8.5613 L 16.7852,8.5979 L 16.7846,8.6345 L 16.784,8.6711 L 16.7833,8.7078 L 16.7826,8.7444 L 16.7819,8.781 L 16.781,8.8176 L 16.7801,8.8542 L 16.779,8.8908 L 16.7778,8.9274 L 16.7761,8.964 L 16.7718,8.9997" />
      <path d="M 16.7722,5.05 L 16.778,4.91 L 16.7803,4.7698 L 16.7821,4.6295 L 16.7835,4.4892 L 16.7848,4.3489 L 16.7859,4.2086 L 16.7869,4.0683 L 16.7878,3.9281 L 16.7886,3.7878 L 16.7893,3.6475 L 16.79,3.5072 L 16.7907,3.3669 L 16.7912,3.2266 L 16.7918,3.0863 L 16.7923,2.9461 L 16.7928,2.8058 L 16.7932,2.6655 L 16.7936,2.5252 L 16.794,2.3849 L 16.7944,2.2446 L 16.7947,2.1043 L 16.795,1.964 L 16.7953,1.8238 L 16.7956,1.6835 L 16.7958,1.5432 L 16.796,1.4029 L 16.7962,1.2626 L 16.7964,1.1223 L 16.7965,0.982 L 16.7966,0.8418 L 16.7967,0.7015 L 16.7968,0.5612 L 16.7969,0.4209 L 16.7969,0.2806 L 16.797,0.1403 L 16.797,0.0 L 16.797,-0.1402 L 16.7969,-0.2805 L 16.7969,-0.4208 L 16.7968,-0.5611 L 16.7967,-0.7014 L 16.7966,-0.8417 L 16.7965,-0.982 L 16.7964,-1.1222 L 16.7962,-1.2625 L 16.796,-1.4028 L 16.7958,-1.5431 L 16.7956,-1.6834 L 16.7953,-1.8237 L 16.795,-1.964 L 16.7947,-2.1043 L 16.7944,-2.2445 L 16.794,-2.3848 L 16.7936,-2.5251 L 16.7932,-2.6654 L 16.7928,-2.8057 L 16.7923,-2.946 L 16.7918,-3.0862 L 16.7912,-3.2265 L 16.7907,-3.3668 L 16.79,-3.5071 L 16.7893,-3.6474 L 16.7886,-3.7877 L 16.7878,-3.928 L 16.7869,-4.0682 L 16.7859,-4.2085 L 16.7848,-4.3488 L 16.7835,-4.4891 L 16.7821,-4.6294 L 16.7803,-4.7696 L 16.778,-4.9099 L 16.7722,-5.05" />
      <path d="M 16.7722,-5.05 L 16.7664,-4.91 L 16.764,-4.7698 L 16.7622,-4.6295 L 16.7608,-4.4892 L 16.7595,-4.3489 L 16.7584,-4.2086 L 16.7575,-4.0683 L 16.7566,-3.9281 L 16.7557,-3.7878 L 16.755,-3.6475 L 16.7543,-3.5072 L 16.7537,-3.3669 L 16.7531,-3.2266 L 16.7525,-3.0863 L 16.752,-2.9461 L 16.7515,-2.8058 L 16.7511,-2.6655 L 16.7507,-2.5252 L 16.7503,-2.3849 L 16.7499,-2.2446 L 16.7496,-2.1043 L 16.7493,-1.964 L 16.749,-1.8238 L 16.7488,-1.6835 L 16.7485,-1.5432 L 16.7483,-1.4029 L 16.7481,-1.2626 L 16.748,-1.1223 L 16.7478,-0.982 L 16.7477,-0.8418 L 16.7476,-0.7015 L 16.7475,-0.5612 L 16.7474,-0.4209 L 16.7474,-0.2806 L 16.7473,-0.1403 L 16.7473,0.0 L 16.7473,0.1402 L 16.7474,0.2805 L 16.7474,0.4208 L 16.7475,0.5611 L 16.7476,0.7014 L 16.7477,0.8417 L 16.7478,0.982 L 16.748,1.1222 L 16.7481,1.2625 L 16.7483,1.4028 L 16.7485,1.5431 L 16.7488,1.6834 L 16.749,1.8237 L 16.7493,1.964 L 16.7496,2.1043 L 16.7499,2.2445 L 16.7503,2.3848 L 16.7507,2.5251 L 16.7511,2.6654 L 16.7515,2.8057 L 16.752,2.946 L 16.7525,3.0862 L 16.7531,3.2265 L 16.7537,3.3668 L 16.7543,3.5071 L 16.755,3.6474 L 16.7557,3.7877 L 16.7566,3.928 L 16.7575,4.0682 L 16.7584,4.2085 L 16.7595,4.3488 L 16.7608,4.4891 L 16.7622,4.6294 L 16.764,4.7696 L 16.7663,4.9099 L 16.7722,5.05" />
      <path d="M 26.772,5.05 L 26.6331,5.05 L 26.4943,5.05 L 26.3554,5.05 L 26.2165,5.05 L 26.0776,5.05 L 25.9387,5.05 L 25.7998,5.05 L 25.6609,5.05 L 25.522,5.05 L 25.3832,5.05 L 25.2443,5.05 L 25.1054,5.05 L 24.9665,5.05 L 24.8276,5.05 L 24.6887,5.05 L 24.5498,5.05 L 24.411,5.05 L 24.2721,5.05 L 24.1332,5.05 L 23.9943,5.05 L 23.8554,5.05 L 23.7165,5.05 L 23.5776,5.05 L 23.4387,5.05 L 23.2999,5.05 L 23.161,5.05 L 23.0221,5.05 L 22.8832,5.05 L 22.7443,5.05 L 22.6054,5.05 L 22.4665,5.05 L 22.3276,5.05 L 22.1888,5.05 L 22.0499,5.05 L 21.911,5.05 L 21.7721,5.05 L 21.6332,5.05 L 21.4943,5.05 L 21.3554,5.05 L 21.2165,5.05 L 21.0777,5.05 L 20.9388,5.05 L 20.7999,5.05 L 20.661,5.05 L 20.5221,5.05 L 20.3832,5.05 L 20.2443,5.05 L 20.1054,5.05 L 19.9666,5.05 L 19.8277,5.05 L 19.6888,5.05 L 19.5499,5.05 L 19.411,5.05 L 19.2721,5.05 L 19.1332,5.05 L 18.9944,5.05 L 18.8555,5.05 L 18.7166,5.05 L 18.5777,5.05 L 18.4388,5.05 L 18.2999,5.05 L 18.161,5.05 L 18.0221,5.05 L 17.8833,5.05 L 17.7444,5.05 L 17.6055,5.05 L 17.4666,5.05 L 17.3277,5.05 L 17.1888,5.05 L 17.0499,5.05 L 16.911,5.05 L 16.7722,5.05" />
      <path d="M 16.8034,-6.364 L 16.8033,-6.4006 L 16.8031,-6.4372 L 16.8029,-6.4738 L 16.8027,-6.5105 L 16.8025,-6.5471 L 16.8023,-6.5837 L 16.8021,-6.6203 L 16.8019,-6.6569 L 16.8017,-6.6936 L 16.8015,-6.7302 L 16.8013,-6.7668 L 16.8011,-6.8034 L 16.8009,-6.8401 L 16.8007,-6.8767 L 16.8005,-6.9133 L 16.8003,-6.9499 L 16.8,-6.9866 L 16.7998,-7.0232 L 16.7996,-7.0598 L 16.7994,-7.0964 L 16.7991,-7.133 L 16.7989,-7.1697 L 16.7987,-7.2063 L 16.7984,-7.2429 L 16.7982,-7.2795 L 16.7979,-7.3162 L 16.7977,-7.3528 L 16.7974,-7.3894 L 16.7971,-7.426 L 16.7969,-7.4626 L 16.7966,-7.4993 L 16.7963,-7.5359 L 16.7961,-7.5725 L 16.7958,-7.6091 L 16.7955,-7.6458 L 16.7952,-7.6824 L 16.7949,-7.719 L 16.7946,-7.7556 L 16.7943,-7.7922 L 16.794,-7.8289 L 16.7937,-7.8655 L 16.7933,-7.9021 L 16.793,-7.9387 L 16.7927,-7.9754 L 16.7923,-8.012 L 16.7919,-8.0486 L 16.7916,-8.0852 L 16.7912,-8.1218 L 16.7908,-8.1585 L 16.7904,-8.1951 L 16.79,-8.2317 L 16.7896,-8.2683 L 16.7892,-8.3049 L 16.7888,-8.3416 L 16.7883,-8.3782 L 16.7878,-8.4148 L 16.7874,-8.4514 L 16.7869,-8.4881 L 16.7863,-8.5247 L 16.7858,-8.5613 L 16.7852,-8.5979 L 16.7846,-8.6345 L 16.784,-8.6711 L 16.7833,-8.7078 L 16.7826,-8.7444 L 16.7819,-8.781 L 16.781,-8.8176 L 16.7801,-8.8542 L 16.779,-8.8908 L 16.7778,-8.9274 L 16.7761,-8.964 L 16.7718,-8.9997" />
      <path d="M 26.772,-5.05 L 26.6331,-5.05 L 26.4943,-5.05 L 26.3554,-5.05 L 26.2165,-5.05 L 26.0776,-5.05 L 25.9387,-5.05 L 25.7998,-5.05 L 25.6609,-5.05 L 25.522,-5.05 L 25.3832,-5.05 L 25.2443,-5.05 L 25.1054,-5.05 L 24.9665,-5.05 L 24.8276,-5.05 L 24.6887,-5.05 L 24.5498,-5.05 L 24.411,-5.05 L 24.2721,-5.05 L 24.1332,-5.05 L 23.9943,-5.05 L 23.8554,-5.05 L 23.7165,-5.05 L 23.5776,-5.05 L 23.4387,-5.05 L 23.2999,-5.05 L 23.161,-5.05 L 23.0221,-5.05 L 22.8832,-5.05 L 22.7443,-5.05 L 22.6054,-5.05 L 22.4665,-5.05 L 22.3276,-5.05 L 22.1888,-5.05 L 22.0499,-5.05 L 21.911,-5.05 L 21.7721,-5.05 L 21.6332,-5.05 L 21.4943,-5.05 L 21.3554,-5.05 L 21.2165,-5.05 L 21.0777,-5.05 L 20.9388,-5.05 L 20.7999,-5.05 L 20.661,-5.05 L 20.5221,-5.05 L 20.3832,-5.05 L 20.2443,-5.05 L 20.1054,-5.05 L 19.9666,-5.05 L 19.8277,-5.05 L 19.6888,-5.05 L 19.5499,-5.05 L 19.411,-5.05 L 19.2721,-5.05 L 19.1332,-5.05 L 18.9944,-5.05 L 18.8555,-5.05 L 18.7166,-5.05 L 18.5777,-5.05 L 18.4388,-5.05 L 18.2999,-5.05 L 18.161,-5.05 L 18.0221,-5.05 L 17.8833,-5.05 L 17.7444,-5.05 L 17.6055,-5.05 L 17.4666,-5.05 L 17.3277,-5.05 L 17.1888,-5.05 L 17.0499,-5.05 L 16.911,-5.05 L 16.7722,-5.05" />
    </g>
    <g fill="none" stroke="rgb(0,0,0)" stroke-width="0.2" id="Center" stroke-dasharray="6.35 1.27 1.27 1.27">
      <line x1="0.0" y1="-0.0" x2="-14.7679" y2="-0.0" />
      <line x1="0.0" y1="-0.0" x2="14.7679" y2="-0.0" />
      <line x1="0.0" y1="-0.0" x2="0.0" y2="-14.7679" />
      <line x1="0.0" y1="-0.0" x2="0.0" y2="14.7679" />
      <line x1="21.7813" y1="-0.0" x2="14.6879" y2="-0.0" />
      <line x1="21.7813" y1="-0.0" x2="28.8746" y2="-0.0" />
    </g>
  </g>
</svg>