<?xml version='1.0' encoding='utf-8'?>
<svg width="39.268mm" height="32.24mm" viewBox="-16.12 -16.12 39.268 32.24" version="1.1" xmlns="http://www.w3.org/2000/svg">
  <g transform="scale(1,-1)" stroke-linecap="round">
    <g fill="none" stroke="rgb(0,0,0)" stroke-width="0.4" id="Visible">
      <path d="M -0.0,12.0 L -1.0459,11.9543 L -2.0838,11.8177 L -3.1058,11.5911 L -4.1042,11.2763 L -5.0714,10.8757 L -6.0,10.3923 L -6.8829,9.8298 L -7.7135,9.1925 L -8.4853,8.4853 L -9.1925,7.7135 L -9.8298,6.8829 L -10.3923,6.0 L -10.8757,5.0714 L -11.2763,4.1042 L -11.5911,3.1058 L -11.8177,2.0838 L -11.9543,1.0459 L -12.0,0.0 L -11.9543,-1.0459 L -11.8177,-2.0838 L -11.5911,-3.1058 L -11.2763,-4.1042 L -10.8757,-5.0714 L -10.3923,-6.0 L -9.8298,-6.8829 L -9.1925,-7.7135 L -8.4853,-8.4853 L -7.7135,-9.1925 L -6.8829,-9.8298 L -6.0,-10.3923 L -5.0714,-10.8757 L -4.1042,-11.2763 L -3.1058,-11.5911 L -2.0838,-11.8177 L -1.0459,-11.9543 L -0.0,-12.0 L 1.0459,-11.9543 L 2.0838,-11.8177 L 3.1058,-11.5911 L 4.1042,-11.2763 L 5.0714,-10.8757 L 6.0,-10.3923 L 6.8829,-9.8298 L 7.7135,-9.1925 L 8.4853,-8.4853 L 9.1925,-7.7135 L 9.8298,-6.8829 L 10.3923,-6.0 L 10.8757,-5.0714 L 11.2763,-4.1042 L 11.5911,-3.1058 L 11.8177,-2.0838 L 11.9543,-1.0459 L 12.0,-0.0 L 11.9543,1.0459 L 11.8177,2.0838 L 11.5911,3.1058 L 11.2763,4.1042 L 10.8757,5.0714 L 10.3923,6.0 L 9.8298,6.8829 L 9.1925,7.7135 L 8.4853,8.4853 L 7.7135,9.1925 L 6.8829,9.8298 L 6.0,10.3923 L 5.0714,10.8757 L 4.1042,11.2763 L 3.1058,11.5911 L 2.0838,11.8177 L 1.0459,11.9543 L 0.0,12.0" />
      <path d="M -0.0,6.5 L -0.5665,6.4753 L -1.1287,6.4013 L -1.6823,6.2785 L -2.2231,6.108 L -2.747,5.891 L -3.25,5.6292 L -3.7282,5.3245 L -4.1781,4.9793 L -4.5962,4.5962 L -4.9793,4.1781 L -5.3245,3.7282 L -5.6292,3.25 L -5.891,2.747 L -6.108,2.2231 L -6.2785,1.6823 L -6.4013,1.1287 L -6.4753,0.5665 L -6.5,-0.0 L -6.4753,-0.5665 L -6.4013,-1.1287 L -6.2785,-1.6823 L -6.108,-2.2231 L -5.891,-2.747 L -5.6292,-3.25 L -5.3245,-3.7282 L -4.9793,-4.1781 L -4.5962,-4.5962 L -4.1781,-4.9793 L -3.7282,-5.3245 L -3.25,-5.6292 L -2.747,-5.891 L -2.2231,-6.108 L -1.6823,-6.2785 L -1.1287,-6.4013 L -0.5665,-6.4753 L 0.0,-6.5 L 0.5665,-6.4753 L 1.1287,-6.4013 L 1.6823,-6.2785 L 2.2231,-6.108 L 2.747,-5.891 L 3.25,-5.6292 L 3.7282,-5.3245 L 4.1781,-4.9793 L 4.5962,-4.5962 L 4.9793,-4.1781 L 5.3245,-3.7282 L 5.6292,-3.25 L 5.891,-2.747 L 6.108,-2.2231 L 6.2785,-1.6823 L 6.4013,-1.1287 L 6.4753,-0.5665 L 6.5,0.0 L 6.4753,0.5665 L 6.4013,1.1287 L 6.2785,1.6823 L 6.108,2.2231 L 5.891,2.747 L 5.6292,3.25 L 5.3245,3.7282 L 4.9793,4.1781 L 4.5962,4.5962 L 4.1781,4.9793 L 3.7282,5.3245 L 3.25,5.6292 L 2.747,5.891 L 2.2231,6.108 L 1.6823,6.2785 L 1.1287,6.4013 L 0.5665,6.4753 L -0.0,6.5" />
      <path d="M 19.014,6.5 L 19.0158,6.3195 L 19.0165,6.1389 L 19.017,5.9584 L 19.0175,5.7778 L 19.0178,5.5972 L 19.0182,5.4167 L 19.0185,5.2361 L 19.0187,5.0556 L 19.019,4.875 L 19.0192,4.6945 L 19.0194,4.5139 L 19.0196,4.3334 L 19.0198,4.1528 L 19.02,3.9722 L 19.0201,3.7917 L 19.0203,3.6111 L 19.0204,3.4306 L 19.0205,3.25 L 19.0207,3.0695 L 19.0208,2.8889 L 19.0209,2.7083 L 19.021,2.5278 L 19.021,2.3472 L 19.0211,2.1667 L 19.0212,1.9861 L 19.0213,1.8056 L 19.0213,1.625 L 19.0214,1.4445 L 19.0214,1.2639 L 19.0215,1.0833 L 19.0215,0.9028 L 19.0215,0.7222 L 19.0215,0.5417 L 19.0215,0.3611 L 19.0216,0.1806 L 19.0216,0.0 L 19.0216,-0.1806 L 19.0215,-0.3611 L 19.0215,-0.5417 L 19.0215,-0.7222 L 19.0215,-0.9028 L 19.0215,-1.0833 L 19.0214,-1.2639 L 19.0214,-1.4444 L 19.0213,-1.625 L 19.0213,-1.8056 L 19.0212,-1.9861 L 19.0211,-2.1667 L 19.021,-2.3472 L 19.021,-2.5278 L 19.0209,-2.7083 L 19.0208,-2.8889 L 19.0207,-3.0695 L 19.0205,-3.25 L 19.0204,-3.4306 L 19.0203,-3.6111 L 19.0201,-3.7917 L 19.02,-3.9722 L 19.0198,-4.1528 L 19.0196,-4.3333 L 19.0194,-4.5139 L 19.0192,-4.6945 L 19.019,-4.875 L 19.0187,-5.0556 L 19.0185,-5.2361 L 19.0182,-5.4167 L 19.0178,-5.5972 L 19.0175,-5.7778 L 19.017,-5.9583 L 19.0165,-6.1389 L 19.0158,-6.3195 L 19.014,-6.5" />
      <path d="M 19.014,-6.5 L 19.0122,-6.3195 L 19.0115,-6.1389 L 19.011,-5.9584 L 19.0105,-5.7778 L 19.0101,-5.5972 L 19.0098,-5.4167 L 19.0095,-5.2361 L 19.0092,-5.0556 L 19.009,-4.875 L 19.0087,-4.6945 L 19.0085,-4.5139 L 19.0083,-4.3334 L 19.0082,-4.1528 L 19.008,-3.9722 L 19.0078,-3.7917 L 19.0077,-3.6111 L 19.0075,-3.4306 L 19.0074,-3.25 L 19.0073,-3.0695 L 19.0072,-2.8889 L 19.0071,-2.7083 L 19.007,-2.5278 L 19.0069,-2.3472 L 19.0068,-2.1667 L 19.0068,-1.9861 L 19.0067,-1.8056 L 19.0066,-1.625 L 19.0066,-1.4445 L 19.0066,-1.2639 L 19.0065,-1.0833 L 19.0065,-0.9028 L 19.0065,-0.7222 L 19.0064,-0.5417 L 19.0064,-0.3611 L 19.0064,-0.1806 L 19.0064,0.0 L 19.0064,0.1806 L 19.0064,0.3611 L 19.0064,0.5417 L 19.0065,0.7222 L 19.0065,0.9028 L 19.0065,1.0833 L 19.0066,1.2639 L 19.0066,1.4444 L 19.0066,1.625 L 19.0067,1.8056 L 19.0068,1.9861 L 19.0068,2.1667 L 19.0069,2.3472 L 19.007,2.5278 L 19.0071,2.7083 L 19.0072,2.8889 L 19.0073,3.0695 L 19.0074,3.25 L 19.0075,3.4306 L 19.0077,3.6111 L 19.0078,3.7917 L 19.008,3.9722 L 19.0082,4.1528 L 19.0083,4.3333 L 19.0085,4.5139 L 19.0087,4.6945 L 19.009,4.875 L 19.0092,5.0556 L 19.0095,5.2361 L 19.0098,5.4167 L 19.0101,5.5972 L 19.0105,5.7778 L 19.011,5.9583 L 19.0115,6.1389 L 19.0122,6.3195 L 19.014,6.5" />
      <path d="M 19.014,12.0 L 19.0173,11.6667 L 19.0186,11.3334 L 19.0196,11.0 L 19.0204,10.6667 L 19.0211,10.3334 L 19.0217,10.0 L 19.0223,9.6667 L 19.0228,9.3334 L 19.0232,9.0 L 19.0237,8.6667 L 19.024,8.3334 L 19.0244,8.0 L 19.0247,7.6667 L 19.0251,7.3334 L 19.0253,7.0 L 19.0256,6.6667 L 19.0259,6.3334 L 19.0261,6.0 L 19.0263,5.6667 L 19.0265,5.3334 L 19.0267,5.0 L 19.0269,4.6667 L 19.027,4.3334 L 19.0272,4.0 L 19.0273,3.6667 L 19.0274,3.3334 L 19.0275,3.0 L 19.0276,2.6667 L 19.0277,2.3333 L 19.0278,2.0 L 19.0278,1.6667 L 19.0279,1.3333 L 19.0279,1.0 L 19.0279,0.6667 L 19.028,0.3333 L 19.028,0.0 L 19.028,-0.3333 L 19.0279,-0.6667 L 19.0279,-1.0 L 19.0279,-1.3333 L 19.0278,-1.6667 L 19.0278,-2.0 L 19.0277,-2.3333 L 19.0276,-2.6667 L 19.0275,-3.0 L 19.0274,-3.3333 L 19.0273,-3.6667 L 19.0272,-4.0 L 19.027,-4.3333 L 19.0269,-4.6667 L 19.0267,-5.0 L 19.0265,-5.3333 L 19.0263,-5.6667 L 19.0261,-6.0 L 19.0259,-6.3333 L 19.0256,-6.6667 L 19.0253,-7.0 L 19.0251,-7.3334 L 19.0247,-7.6667 L 19.0244,-8.0 L 19.024,-8.3334 L 19.0237,-8.6667 L 19.0232,-9.0 L 19.0228,-9.3334 L 19.0223,-9.6667 L 19.0217,-10.0 L 19.0211,-10.3334 L 19.0204,-10.6667 L 19.0196,-11.0 L 19.0186,-11.3334 L 19.0173,-11.6667 L 19.014,-12.0" />
      <path d="M 19.014,-12.0 L 19.0107,-11.6667 L 19.0094,-11.3334 L 19.0084,-11.0 L 19.0076,-10.6667 L 19.0069,-10.3334 L 19.0063,-10.0 L 19.0057,-9.6667 L 19.0052,-9.3334 L 19.0047,-9.0 L 19.0043,-8.6667 L 19.0039,-8.3334 L 19.0036,-8.0 L 19.0032,-7.6667 L 19.0029,-7.3334 L 19.0026,-7.0 L 19.0024,-6.6667 L 19.0021,-6.3334 L 19.0019,-6.0 L 19.0017,-5.6667 L 19.0015,-5.3334 L 19.0013,-5.0 L 19.0011,-4.6667 L 19.0009,-4.3334 L 19.0008,-4.0 L 19.0007,-3.6667 L 19.0005,-3.3334 L 19.0004,-3.0 L 19.0003,-2.6667 L 19.0003,-2.3333 L 19.0002,-2.0 L 19.0001,-1.6667 L 19.0001,-1.3333 L 19.0,-1.0 L 19.0,-0.6667 L 19.0,-0.3333 L 19.0,0.0 L 19.0,0.3333 L 19.0,0.6667 L 19.0,1.0 L 19.0001,1.3333 L 19.0001,1.6667 L 19.0002,2.0 L 19.0003,2.3333 L 19.0003,2.6667 L 19.0004,3.0 L 19.0005,3.3333 L 19.0007,3.6667 L 19.0008,4.0 L 19.0009,4.3333 L 19.0011,4.6667 L 19.0013,5.0 L 19.0015,5.3333 L 19.0017,5.6667 L 19.0019,6.0 L 19.0021,6.3333 L 19.0024,6.6667 L 19.0026,7.0 L 19.0029,7.3334 L 19.0032,7.6667 L 19.0036,8.0 L 19.0039,8.3334 L 19.0043,8.6667 L 19.0047,9.0 L 19.0052,9.3334 L 19.0057,9.6667 L 19.0063,10.0 L 19.0069,10.3334 L 19.0076,10.6667 L 19.0084,11.0 L 19.0094,11.3334 L 19.0107,11.6667 L 19.014,12.0" />
      <path d="M 16.014,-12.0 L 16.0107,-11.6667 L 16.0094,-11.3334 L 16.0084,-11.0 L 16.0076,-10.6667 L 16.0069,-10.3334 L 16.0063,-10.0 L 16.0057,-9.6667 L 16.0052,-9.3334 L 16.0047,-9.0 L 16.0043,-8.6667 L 16.0039,-8.3334 L 16.0036,-8.0 L 16.0032,-7.6667 L 16.0029,-7.3334 L 16.0026,-7.0 L 16.0024,-6.6667 L 16.0021,-6.3334 L 16.0019,-6.0 L 16.0017,-5.6667 L 16.0015,-5.3334 L 16.0013,-5.0 L 16.0011,-4.6667 L 16.0009,-4.3334 L 16.0008,-4.0 L 16.0007,-3.6667 L 16.0006,-3.3334 L 16.0004,-3.0 L 16.0003,-2.6667 L 16.0003,-2.3333 L 16.0002,-2.0 L 16.0001,-1.6667 L 16.0001,-1.3333 L 16.0,-1.0 L 16.0,-0.6667 L 16.0,-0.3333 L 16.0,0.0 L 16.0,0.3333 L 16.0,0.6667 L 16.0,1.0 L 16.0001,1.3333 L 16.0001,1.6667 L 16.0002,2.0 L 16.0003,2.3333 L 16.0003,2.6667 L 16.0004,3.0 L 16.0006,3.3333 L 16.0007,3.6667 L 16.0008,4.0 L 16.0009,4.3333 L 16.0011,4.6667 L 16.0013,5.0 L 16.0015,5.3333 L 16.0017,5.6667 L 16.0019,6.0 L 16.0021,6.3333 L 16.0024,6.6667 L 16.0026,7.0 L 16.0029,7.3334 L 16.0032,7.6667 L 16.0036,8.0 L 16.0039,8.3334 L 16.0043,8.6667 L 16.0047,9.0 L 16.0052,9.3334 L 16.0057,9.6667 L 16.0063,10.0 L 16.0069,10.3334 L 16.0076,10.6667 L 16.0084,11.0 L 16.0094,11.3334 L 16.0107,11.6667 L 16.014,12.0" />
      <path d="M 19.014,12.0 L 18.9723,12.0 L 18.9306,12.0 L 18.889,12.0 L 18.8473,12.0 L 18.8056,12.0 L 18.764,12.0 L 18.7223,12.0 L 18.6806,12.0 L 18.639,12.0 L 18.5973,12.0 L 18.5556,12.0 L 18.514,12.0 L 18.4723,12.0 L 18.4306,12.0 L 18.389,12.0 L 18.3473,12.0 L 18.3056,12.0 L 18.264,12.0 L 18.2223,12.0 L 18.1806,12.0 L 18.139,12.0 L 18.0973,12.0 L 18.0556,12.0 L 18.014,12.0 L 17.9723,12.0 L 17.9306,12.0 L 17.889,12.0 L 17.8473,12.0 L 17.8057,12.0 L 17.764,12.0 L 17.7223,12.0 L 17.6807,12.0 L 17.639,12.0 L 17.5973,12.0 L 17.5557,12.0 L 17.514,12.0 L 17.4723,12.0 L 17.4307,12.0 L 17.389,12.0 L 17.3473,12.0 L 17.3057,12.0 L 17.264,12.0 L 17.2223,12.0 L 17.1807,12.0 L 17.139,12.0 L 17.0973,12.0 L 17.0557,12.0 L 17.014,12.0 L 16.9723,12.0 L 16.9307,12.0 L 16.889,12.0 L 16.8473,12.0 L 16.8057,12.0 L 16.764,12.0 L 16.7223,12.0 L 16.6807,12.0 L 16.639,12.0 L 16.5973,12.0 L 16.5557,12.0 L 16.514,12.0 L 16.4723,12.0 L 16.4307,12.0 L 16.389,12.0 L 16.3473,12.0 L 16.3057,12.0 L 16.264,12.0 L 16.2223,12.0 L 16.1807,12.0 L 16.139,12.0 L 16.0973,12.0 L 16.0557,12.0 L 16.014,12.0" />
      <path d="M 19.014,-12.0 L 18.9723,-12.0 L 18.9306,-12.0 L 18.889,-12.0 L 18.8473,-12.0 L 18.8056,-12.0 L 18.764,-12.0 L 18.7223,-12.0 L 18.6806,-12.0 L 18.639,-12.0 L 18.5973,-12.0 L 18.5556,-12.0 L 18.514,-12.0 L 18.4723,-12.0 L 18.4306,-12.0 L 18.389,-12.0 L 18.3473,-12.0 L 18.3056,-12.0 L 18.264,-12.0 L 18.2223,-12.0 L 18.1806,-12.0 L 18.139,-12.0 L 18.0973,-12.0 L 18.0556,-12.0 L 18.014,-12.0 L 17.9723,-12.0 L 17.9306,-12.0 L 17.889,-12.0 L 17.8473,-12.0 L 17.8057,-12.0 L 17.764,-12.0 L 17.7223,-12.0 L 17.6807,-12.0 L 17.639,-12.0 L 17.5973,-12.0 L 17.5557,-12.0 L 17.514,-12.0 L 17.4723,-12.0 L 17.4307,-12.0 L 17.389,-12.0 L 17.3473,-12.0 L 17.3057,-12.0 L 17.264,-12.0 L 17.2223,-12.0 L 17.1807,-12.0 L 17.139,-12.0 L 17.0973,-12.0 L 17.0557,-12.0 L 17.014,-12.0 L 16.9723,-12.0 L 16.9307,-12.0 L 16.889,-12.0 L 16.8473,-12.0 L 16.8057,-12.0 L 16.764,-12.0 L 16.7223,-12.0 L 16.6807,-12.0 L 16.639,-12.0 L 16.5973,-12.0 L 16.5557,-12.0 L 16.514,-12.0 L 16.4723,-12.0 L 16.4307,-12.0 L 16.389,-12.0 L 16.3473,-12.0 L 16.3057,-12.0 L 16.264,-12.0 L 16.2223,-12.0 L 16.1807,-12.0 L 16.139,-12.0 L 16.0973,-12.0 L 16.0557,-12.0 L 16.014,-12.0" />
    </g>
    <g fill="none" stroke="rgb(110,110,110)" stroke-width="0.3" id="Hidden" stroke-dasharray="3.6 0.9">
      <path d="M -0.0,6.5 L -0.5665,6.4753 L -1.1287,6.4013 L -1.6823,6.2785 L -2.2231,6.108 L -2.747,5.891 L -3.25,5.6292 L -3.7282,5.3245 L -4.1781,4.9793 L -4.5962,4.5962 L -4.9793,4.1781 L -5.3245,3.7282 L -5.6292,3.25 L -5.891,2.747 L -6.108,2.2231 L -6.2785,1.6823 L -6.4013,1.1287 L -6.4753,0.5665 L -6.5,-0.0 L -6.4753,-0.5665 L -6.4013,-1.1287 L -6.2785,-1.6823 L -6.108,-2.2231 L -5.891,-2.747 L -5.6292,-3.25 L -5.3245,-3.7282 L -4.9793,-4.1781 L -4.5962,-4.5962 L -4.1781,-4.9793 L -3.7282,-5.3245 L -3.25,-5.6292 L -2.747,-5.891 L -2.2231,-6.108 L -1.6823,-6.2785 L -1.1287,-6.4013 L -0.5665,-6.4753 L 0.0,-6.5 L 0.5665,-6.4753 L 1.1287,-6.4013 L 1.6823,-6.2785 L 2.2231,-6.108 L 2.747,-5.891 L 3.25,-5.6292 L 3.7282,-5.3245 L 4.1781,-4.9793 L 4.5962,-4.5962 L 4.9793,-4.1781 L 5.3245,-3.7282 L 5.6292,-3.25 L 5.891,-2.747 L 6.108,-2.2231 L 6.2785,-1.6823 L 6.4013,-1.1287 L 6.4753,-0.5665 L 6.5,0.0 L 6.4753,0.5665 L 6.4013,1.1287 L 6.2785,1.6823 L 6.108,2.2231 L 5.891,2.747 L 5.6292,3.25 L 5.3245,3.7282 L 4.9793,4.1781 L 4.5962,4.5962 L 4.1781,4.9793 L 3.7282,5.3245 L 3.25,5.6292 L 2.747,5.891 L 2.2231,6.108 L 1.6823,6.2785 L 1.1287,6.4013 L 0.5665,6.4753 L -0.0,6.5" />
      <path d="M -0.0,12.0 L -1.0459,11.9543 L -2.0838,11.8177 L -3.1058,11.5911 L -4.1042,11.2763 L -5.0714,10.8757 L -6.0,10.3923 L -6.8829,9.8298 L -7.7135,9.1925 L -8.4853,8.4853 L -9.1925,7.7135 L -9.8298,6.8829 L -10.3923,6.0 L -10.8757,5.0714 L -11.2763,4.1042 L -11.5911,3.1058 L -11.8177,2.0838 L -11.9543,1.0459 L -12.0,0.0 L -11.9543,-1.0459 L -11.8177,-2.0838 L -11.5911,-3.1058 L -11.2763,-4.1042 L -10.8757,-5.0714 L -10.3923,-6.0 L -9.8298,-6.8829 L -9.1925,-7.7135 L -8.4853,-8.4853 L -7.7135,-9.1925 L -6.8829,-9.8298 L -6.0,-10.3923 L -5.0714,-10.8757 L -4.1042,-11.2763 L -3.1058,-11.5911 L -2.0838,-11.8177 L -1.0459,-11.9543 L -0.0,-12.0 L 1.0459,-11.9543 L 2.0838,-11.8177 L 3.1058,-11.5911 L 4.1042,-11.2763 L 5.0714,-10.8757 L 6.0,-10.3923 L 6.8829,-9.8298 L 7.7135,-9.1925 L 8.4853,-8.4853 L 9.1925,-7.7135 L 9.8298,-6.8829 L 10.3923,-6.0 L 10.8757,-5.0714 L 11.2763,-4.1042 L 11.5911,-3.1058 L 11.8177,-2.0838 L 11.9543,-1.0459 L 12.0,-0.0 L 11.9543,1.0459 L 11.8177,2.0838 L 11.5911,3.1058 L 11.2763,4.1042 L 10.8757,5.0714 L 10.3923,6.0 L 9.8298,6.8829 L 9.1925,7.7135 L 8.4853,8.4853 L 7.7135,9.1925 L 6.8829,9.8298 L 6.0,10.3923 L 5.0714,10.8757 L 4.1042,11.2763 L 3.1058,11.5911 L 2.0838,11.8177 L 1.0459,11.9543 L 0.0,12.0" />
      <line x1="16.014" y1="12.0" x2="16.014" y2="11.9999" />
      <path d="M 16.014,11.9999 L 16.0173,11.6666 L 16.0186,11.3333 L 16.0196,10.9999 L 16.0204,10.6666 L 16.0211,10.3333 L 16.0217,9.9999 L 16.0223,9.6666 L 16.0228,9.3333 L 16.0232,8.9999 L 16.0237,8.6666 L 16.024,8.3333 L 16.0244,7.9999 L 16.0247,7.6666 L 16.0251,7.3333 L 16.0253,7.0 L 16.0256,6.6666 L 16.0259,6.3333 L 16.0261,6.0 L 16.0263,5.6666 L 16.0265,5.3333 L 16.0267,5.0 L 16.0269,4.6666 L 16.027,4.3333 L 16.0272,4.0 L 16.0273,3.6666 L 16.0274,3.3333 L 16.0275,3.0 L 16.0276,2.6667 L 16.0277,2.3333 L 16.0278,2.0 L 16.0278,1.6667 L 16.0279,1.3333 L 16.0279,1.0 L 16.0279,0.6667 L 16.028,0.3333 L 16.028,0.0 L 16.028,-0.3333 L 16.0279,-0.6667 L 16.0279,-1.0 L 16.0279,-1.3333 L 16.0278,-1.6667 L 16.0278,-2.0 L 16.0277,-2.3333 L 16.0276,-2.6666 L 16.0275,-3.0 L 16.0274,-3.3333 L 16.0273,-3.6666 L 16.0272,-4.0 L 16.027,-4.3333 L 16.0269,-4.6666 L 16.0267,-5.0 L 16.0265,-5.3333 L 16.0263,-5.6666 L 16.0261,-6.0 L 16.0259,-6.3333 L 16.0256,-6.6666 L 16.0253,-6.9999 L 16.0251,-7.3333 L 16.0247,-7.6666 L 16.0244,-7.9999 L 16.024,-8.3333 L 16.0237,-8.6666 L 16.0232,-8.9999 L 16.0228,-9.3333 L 16.0223,-9.6666 L 16.0217,-9.9999 L 16.0211,-10.3333 L 16.0204,-10.6666 L 16.0196,-10.9999 L 16.0186,-11.3332 L 16.0173,-11.6666 L 16.014,-11.9999" />
      <line x1="16.014" y1="-11.9999" x2="16.014" y2="-12.0" />
      <line x1="18.1232" y1="6.5" x2="18.1233" y2="6.5" />
      <path d="M 18.1233,6.5 L 18.125,6.3194 L 18.1257,6.1389 L 18.1263,5.9583 L 18.1267,5.7778 L 18.1271,5.5972 L 18.1274,5.4167 L 18.1277,5.2361 L 18.128,5.0556 L 18.1283,4.875 L 18.1285,4.6944 L 18.1287,4.5139 L 18.1289,4.3333 L 18.1291,4.1528 L 18.1292,3.9722 L 18.1294,3.7917 L 18.1295,3.6111 L 18.1297,3.4306 L 18.1298,3.25 L 18.1299,3.0694 L 18.13,2.8889 L 18.1301,2.7083 L 18.1302,2.5278 L 18.1303,2.3472 L 18.1304,2.1667 L 18.1305,1.9861 L 18.1305,1.8056 L 18.1306,1.625 L 18.1306,1.4444 L 18.1307,1.2639 L 18.1307,1.0833 L 18.1308,0.9028 L 18.1308,0.7222 L 18.1308,0.5417 L 18.1308,0.3611 L 18.1308,0.1806 L 18.1308,0.0 L 18.1308,-0.1806 L 18.1308,-0.3611 L 18.1308,-0.5417 L 18.1308,-0.7222 L 18.1308,-0.9028 L 18.1307,-1.0833 L 18.1307,-1.2639 L 18.1306,-1.4444 L 18.1306,-1.625 L 18.1305,-1.8056 L 18.1305,-1.9861 L 18.1304,-2.1667 L 18.1303,-2.3472 L 18.1302,-2.5278 L 18.1301,-2.7083 L 18.13,-2.8889 L 18.1299,-3.0694 L 18.1298,-3.25 L 18.1297,-3.4306 L 18.1295,-3.6111 L 18.1294,-3.7917 L 18.1292,-3.9722 L 18.1291,-4.1528 L 18.1289,-4.3333 L 18.1287,-4.5139 L 18.1285,-4.6944 L 18.1283,-4.875 L 18.128,-5.0556 L 18.1277,-5.2361 L 18.1274,-5.4167 L 18.1271,-5.5972 L 18.1267,-5.7778 L 18.1263,-5.9583 L 18.1257,-6.1389 L 18.125,-6.3194 L 18.1233,-6.5" />
      <line x1="18.1233" y1="-6.5" x2="18.1232" y2="-6.5" />
      <path d="M 18.1232,-6.5 L 18.1215,-6.3195 L 18.1208,-6.1389 L 18.1202,-5.9584 L 18.1198,-5.7778 L 18.1194,-5.5972 L 18.1191,-5.4167 L 18.1188,-5.2361 L 18.1185,-5.0556 L 18.1182,-4.875 L 18.118,-4.6945 L 18.1178,-4.5139 L 18.1176,-4.3334 L 18.1174,-4.1528 L 18.1173,-3.9722 L 18.1171,-3.7917 L 18.117,-3.6111 L 18.1168,-3.4306 L 18.1167,-3.25 L 18.1166,-3.0695 L 18.1165,-2.8889 L 18.1164,-2.7083 L 18.1163,-2.5278 L 18.1162,-2.3472 L 18.1161,-2.1667 L 18.116,-1.9861 L 18.116,-1.8056 L 18.1159,-1.625 L 18.1159,-1.4445 L 18.1158,-1.2639 L 18.1158,-1.0833 L 18.1157,-0.9028 L 18.1157,-0.7222 L 18.1157,-0.5417 L 18.1157,-0.3611 L 18.1157,-0.1806 L 18.1157,0.0 L 18.1157,0.1806 L 18.1157,0.3611 L 18.1157,0.5417 L 18.1157,0.7222 L 18.1157,0.9028 L 18.1158,1.0833 L 18.1158,1.2639 L 18.1159,1.4444 L 18.1159,1.625 L 18.116,1.8056 L 18.116,1.9861 L 18.1161,2.1667 L 18.1162,2.3472 L 18.1163,2.5278 L 18.1164,2.7083 L 18.1165,2.8889 L 18.1166,3.0695 L 18.1167,3.25 L 18.1168,3.4306 L 18.117,3.6111 L 18.1171,3.7917 L 18.1173,3.9722 L 18.1174,4.1528 L 18.1176,4.3333 L 18.1178,4.5139 L 18.118,4.6945 L 18.1182,4.875 L 18.1185,5.0556 L 18.1188,5.2361 L 18.1191,5.4167 L 18.1194,5.5972 L 18.1198,5.7778 L 18.1202,5.9583 L 18.1208,6.1389 L 18.1215,6.3195 L 18.1232,6.5" />
      <path d="M 18.1232,6.5 L 18.1356,6.5 L 18.148,6.5 L 18.1604,6.5 L 18.1727,6.5 L 18.1851,6.5 L 18.1975,6.5 L 18.2098,6.5 L 18.2222,6.5 L 18.2346,6.5 L 18.247,6.5 L 18.2593,6.5 L 18.2717,6.5 L 18.2841,6.5 L 18.2964,6.5 L 18.3088,6.5 L 18.3212,6.5 L 18.3336,6.5 L 18.3459,6.5 L 18.3583,6.5 L 18.3707,6.5 L 18.383,6.5 L 18.3954,6.5 L 18.4078,6.5 L 18.4202,6.5 L 18.4325,6.5 L 18.4449,6.5 L 18.4573,6.5 L 18.4696,6.5 L 18.482,6.5 L 18.4944,6.5 L 18.5068,6.5 L 18.5191,6.5 L 18.5315,6.5 L 18.5439,6.5 L 18.5562,6.5 L 18.5686,6.5 L 18.581,6.5 L 18.5934,6.5 L 18.6057,6.5 L 18.6181,6.5 L 18.6305,6.5 L 18.6428,6.5 L 18.6552,6.5 L 18.6676,6.5 L 18.68,6.5 L 18.6923,6.5 L 18.7047,6.5 L 18.7171,6.5 L 18.7294,6.5 L 18.7418,6.5 L 18.7542,6.5 L 18.7666,6.5 L 18.7789,6.5 L 18.7913,6.5 L 18.8037,6.5 L 18.816,6.5 L 18.8284,6.5 L 18.8408,6.5 L 18.8532,6.5 L 18.8655,6.5 L 18.8779,6.5 L 18.8903,6.5 L 18.9026,6.5 L 18.915,6.5 L 18.9274,6.5 L 18.9398,6.5 L 18.9521,6.5 L 18.9645,6.5 L 18.9769,6.5 L 18.9892,6.5 L 19.0016,6.5 L 19.014,6.5" />
      <path d="M 16.014,11.9999 L 16.0347,11.9205 L 16.0555,11.8412 L 16.0767,11.762 L 16.098,11.6829 L 16.1197,11.6038 L 16.1415,11.5248 L 16.1636,11.4458 L 16.186,11.3669 L 16.2086,11.2881 L 16.2315,11.2094 L 16.2546,11.1307 L 16.278,11.0521 L 16.3016,10.9736 L 16.3254,10.8952 L 16.3495,10.8168 L 16.3739,10.7385 L 16.3985,10.6603 L 16.4233,10.5822 L 16.4484,10.5041 L 16.4738,10.4262 L 16.4993,10.3483 L 16.5252,10.2705 L 16.5512,10.1927 L 16.5776,10.1151 L 16.6041,10.0375 L 16.6309,9.96 L 16.658,9.8826 L 16.6853,9.8053 L 16.7128,9.7281 L 16.7406,9.651 L 16.7686,9.5739 L 16.7969,9.4969 L 16.8254,9.4201 L 16.8542,9.3433 L 16.8832,9.2666 L 16.9124,9.19 L 16.9419,9.1135 L 16.9716,9.0371 L 17.0016,8.9608 L 17.0318,8.8845 L 17.0622,8.8084 L 17.0929,8.7324 L 17.1238,8.6565 L 17.155,8.5806 L 17.1864,8.5049 L 17.218,8.4292 L 17.2499,8.3537 L 17.282,8.2783 L 17.3143,8.2029 L 17.3469,8.1277 L 17.3798,8.0526 L 17.4128,7.9775 L 17.4461,7.9026 L 17.4796,7.8278 L 17.5134,7.7531 L 17.5474,7.6785 L 17.5817,7.604 L 17.6161,7.5296 L 17.6509,7.4553 L 17.6858,7.3812 L 17.721,7.3071 L 17.7564,7.2332 L 17.792,7.1593 L 17.8279,7.0856 L 17.864,7.012 L 17.9004,6.9385 L 17.9369,6.8651 L 17.9737,6.7919 L 18.0108,6.7187 L 18.048,6.6457 L 18.0855,6.5728 L 18.1233,6.5" />
      <path d="M 16.014,-11.9999 L 16.0347,-11.9205 L 16.0555,-11.8412 L 16.0767,-11.762 L 16.098,-11.6829 L 16.1197,-11.6038 L 16.1415,-11.5248 L 16.1636,-11.4458 L 16.186,-11.3669 L 16.2086,-11.2881 L 16.2315,-11.2094 L 16.2546,-11.1307 L 16.278,-11.0521 L 16.3016,-10.9736 L 16.3254,-10.8952 L 16.3495,-10.8168 L 16.3739,-10.7385 L 16.3985,-10.6603 L 16.4233,-10.5822 L 16.4484,-10.5041 L 16.4738,-10.4262 L 16.4993,-10.3483 L 16.5252,-10.2705 L 16.5512,-10.1927 L 16.5776,-10.1151 L 16.6041,-10.0375 L 16.6309,-9.96 L 16.658,-9.8826 L 16.6853,-9.8053 L 16.7128,-9.7281 L 16.7406,-9.651 L 16.7686,-9.5739 L 16.7969,-9.4969 L 16.8254,-9.4201 L 16.8542,-9.3433 L 16.8832,-9.2666 L 16.9124,-9.19 L 16.9419,-9.1135 L 16.9716,-9.0371 L 17.0016,-8.9608 L 17.0318,-8.8845 L 17.0622,-8.8084 L 17.0929,-8.7324 L 17.1238,-8.6565 L 17.155,-8.5806 L 17.1864,-8.5049 L 17.218,-8.4292 L 17.2499,-8.3537 L 17.282,-8.2783 L 17.3143,-8.2029 L 17.3469,-8.1277 L 17.3798,-8.0526 L 17.4128,-7.9775 L 17.4461,-7.9026 L 17.4796,-7.8278 L 17.5134,-7.7531 L 17.5474,-7.6785 L 17.5817,-7.604 L 17.6161,-7.5296 L 17.6509,-7.4553 L 17.6858,-7.3812 L 17.721,-7.3071 L 17.7564,-7.2332 L 17.792,-7.1593 L 17.8279,-7.0856 L 17.864,-7.012 L 17.9004,-6.9385 L 17.9369,-6.8651 L 17.9737,-6.7919 L 18.0108,-6.7187 L 18.048,-6.6457 L 18.0855,-6.5728 L 18.1233,-6.5" />
      <path d="M 18.1232,-6.5 L 18.1356,-6.5 L 18.148,-6.5 L 18.1604,-6.5 L 18.1727,-6.5 L 18.1851,-6.5 L 18.1975,-6.5 L 18.2098,-6.5 L 18.2222,-6.5 L 18.2346,-6.5 L 18.247,-6.5 L 18.2593,-6.5 L 18.2717,-6.5 L 18.2841,-6.5 L 18.2964,-6.5 L 18.3088,-6.5 L 18.3212,-6.5 L 18.3336,-6.5 L 18.3459,-6.5 L 18.3583,-6.5 L 18.3707,-6.5 L 18.383,-6.5 L 18.3954,-6.5 L 18.4078,-6.5 L 18.4202,-6.5 L 18.4325,-6.5 L 18.4449,-6.5 L 18.4573,-6.5 L 18.4696,-6.5 L 18.482,-6.5 L 18.4944,-6.5 L 18.5068,-6.5 L 18.5191,-6.5 L 18.5315,-6.5 L 18.5439,-6.5 L 18.5562,-6.5 L 18.5686,-6.5 L 18.581,-6.5 L 18.5934,-6.5 L 18.6057,-6.5 L 18.6181,-6.5 L 18.6305,-6.5 L 18.6428,-6.5 L 18.6552,-6.5 L 18.6676,-6.5 L 18.68,-6.5 L 18.6923,-6.5 L 18.7047,-6.5 L 18.7171,-6.5 L 18.7294,-6.5 L 18.7418,-6.5 L 18.7542,-6.5 L 18.7666,-6.5 L 18.7789,-6.5 L 18.7913,-6.5 L 18.8037,-6.5 L 18.816,-6.5 L 18.8284,-6.5 L 18.8408,-6.5 L 18.8532,-6.5 L 18.8655,-6.5 L 18.8779,-6.5 L 18.8903,-6.5 L 18.9026,-6.5 L 18.915,-6.5 L 18.9274,-6.5 L 18.9398,-6.5 L 18.9521,-6.5 L 18.9645,-6.5 L 18.9769,-6.5 L 18.9892,-6.5 L 19.0016,-6.5 L 19.014,-6.5" />
    </g>
    <g fill="none" stroke="rgb(0,0,0)" stroke-width="0.2" id="Center" stroke-dasharray="6.35 1.27 1.27 1.27">
      <line x1="0.0" y1="0.0" x2="-13.92" y2="0.0" />
      <line x1="0.0" y1="0.0" x2="13.92" y2="0.0" />
      <line x1="0.0" y1="0.0" x2="0.0" y2="-13.92" />
      <line x1="0.0" y1="0.0" x2="0.0" y2="13.92" />
      <line x1="17.514" y1="0.0" x2="14.08" y2="0.0" />
      <line x1="17.514" y1="0.0" x2="20.948" y2="0.0" />
    </g>
  </g>
</svg>