<?xml version='1.0' encoding='utf-8'?>
<svg width="36.4264mm" height="28.4mm" viewBox="-14.2 -14.2 36.4264 28.4" version="1.1" xmlns="http://www.w3.org/2000/svg">
  <g transform="scale(1,-1)" stroke-linecap="round">
    <g fill="none" stroke="rgb(0,0,0)" stroke-width="0.4" id="Visible">
      <path d="M 6.5,0.0 L 6.4753,0.5665 L 6.4013,1.1287 L 6.2785,1.6823 L 6.108,2.2231 L 5.891,2.747 L 5.6292,3.25 L 5.3245,3.7282 L 4.9793,4.1781 L 4.5962,4.5962 L 4.1781,4.9793 L 3.7282,5.3245 L 3.25,5.6292 L 2.747,5.891 L 2.2231,6.108 L 1.6823,6.2785 L 1.1287,6.4013 L 0.5665,6.4753 L -0.0,6.5 L -0.5665,6.4753 L -1.1287,6.4013 L -1.6823,6.2785 L -2.2231,6.108 L -2.747,5.891 L -3.25,5.6292 L -3.7282,5.3245 L -4.1781,4.9793 L -4.5962,4.5962 L -4.9793,4.1781 L -5.3245,3.7282 L -5.6292,3.25 L -5.891,2.747 L -6.108,2.2231 L -6.2785,1.6823 L -6.4013,1.1287 L -6.4753,0.5665 L -6.5,-0.0 L -6.4753,-0.5665 L -6.4013,-1.1287 L -6.2785,-1.6823 L -6.108,-2.2231 L -5.891,-2.747 L -5.6292,-3.25 L -5.3245,-3.7282 L -4.9793,-4.1781 L -4.5962,-4.5962 L -4.1781,-4.9793 L -3.7282,-5.3245 L -3.25,-5.6292 L -2.747,-5.891 L -2.2231,-6.108 L -1.6823,-6.2785 L -1.1287,-6.4013 L -0.5665,-6.4753 L 0.0,-6.5 L 0.5665,-6.4753 L 1.1287,-6.4013 L 1.6823,-6.2785 L 2.2231,-6.108 L 2.747,-5.891 L 3.25,-5.6292 L 3.7282,-5.3245 L 4.1781,-4.9793 L 4.5962,-4.5962 L 4.9793,-4.1781 L 5.3245,-3.7282 L 5.6292,-3.25 L 5.891,-2.747 L 6.108,-2.2231 L 6.2785,-1.6823 L 6.4013,-1.1287 L 6.4753,-0.5665 L 6.5,0.0" />
      <path d="M 12.0,0.0 L 11.9543,1.0459 L 11.8177,2.0838 L 11.5911,3.1058 L 11.2763,4.1042 L 10.8757,5.0714 L 10.3923,6.0 L 9.8298,6.8829 L 9.1925,7.7135 L 8.4853,8.4853 L 7.7135,9.1925 L 6.8829,9.8298 L 6.0,10.3923 L 5.0714,10.8757 L 4.1042,11.2763 L 3.1058,11.5911 L 2.0838,11.8177 L 1.0459,11.9543 L 0.0,12.0 L -1.0459,11.9543 L -2.0838,11.8177 L -3.1058,11.5911 L -4.1042,11.2763 L -5.0714,10.8757 L -6.0,10.3923 L -6.8829,9.8298 L -7.7135,9.1925 L -8.4853,8.4853 L -9.1925,7.7135 L -9.8298,6.8829 L -10.3923,6.0 L -10.8757,5.0714 L -11.2763,4.1042 L -11.5911,3.1058 L -11.8177,2.0838 L -11.9543,1.0459 L -12.0,0.0 L -11.9543,-1.0459 L -11.8177,-2.0838 L -11.5911,-3.1058 L -11.2763,-4.1042 L -10.8757,-5.0714 L -10.3923,-6.0 L -9.8298,-6.8829 L -9.1925,-7.7135 L -8.4853,-8.4853 L -7.7135,-9.1925 L -6.8829,-9.8298 L -6.0,-10.3923 L -5.0714,-10.8757 L -4.1042,-11.2763 L -3.1058,-11.5911 L -2.0838,-11.8177 L -1.0459,-11.9543 L -0.0,-12.0 L 1.0459,-11.9543 L 2.0838,-11.8177 L 3.1058,-11.5911 L 4.1042,-11.2763 L 5.0714,-10.8757 L 6.0,-10.3923 L 6.8829,-9.8298 L 7.7135,-9.1925 L 8.4853,-8.4853 L 9.1925,-7.7135 L 9.8298,-6.8829 L 10.3923,-6.0 L 10.8757,-5.0714 L 11.2763,-4.1042 L 11.5911,-3.1058 L 11.8177,-2.0838 L 11.9543,-1.0459 L 12.0,-0.0" />
      <path d="M 16.0171,6.5 L 16.0149,6.3195 L 16.0141,6.1389 L 16.0134,5.9584 L 16.0129,5.7778 L 16.0124,5.5973 L 16.012,5.4167 L 16.0116,5.2361 L 16.0113,5.0556 L 16.011,4.875 L 16.0107,4.6945 L 16.0104,4.5139 L 16.0102,4.3334 L 16.01,4.1528 L 16.0098,3.9722 L 16.0096,3.7917 L 16.0094,3.6111 L 16.0092,3.4306 L 16.0091,3.25 L 16.0089,3.0695 L 16.0088,2.8889 L 16.0087,2.7084 L 16.0086,2.5278 L 16.0085,2.3472 L 16.0084,2.1667 L 16.0083,1.9861 L 16.0082,1.8056 L 16.0081,1.625 L 16.0081,1.4445 L 16.008,1.2639 L 16.008,1.0833 L 16.0079,0.9028 L 16.0079,0.7222 L 16.0079,0.5417 L 16.0079,0.3611 L 16.0078,0.1806 L 16.0078,0.0 L 16.0078,-0.1806 L 16.0079,-0.3611 L 16.0079,-0.5417 L 16.0079,-0.7222 L 16.0079,-0.9028 L 16.008,-1.0833 L 16.008,-1.2639 L 16.0081,-1.4444 L 16.0081,-1.625 L 16.0082,-1.8056 L 16.0083,-1.9861 L 16.0084,-2.1667 L 16.0085,-2.3472 L 16.0086,-2.5278 L 16.0087,-2.7083 L 16.0088,-2.8889 L 16.0089,-3.0695 L 16.0091,-3.25 L 16.0092,-3.4306 L 16.0094,-3.6111 L 16.0096,-3.7917 L 16.0098,-3.9722 L 16.01,-4.1528 L 16.0102,-4.3333 L 16.0104,-4.5139 L 16.0107,-4.6945 L 16.011,-4.875 L 16.0113,-5.0556 L 16.0116,-5.2361 L 16.012,-5.4167 L 16.0124,-5.5972 L 16.0129,-5.7778 L 16.0134,-5.9584 L 16.0141,-6.1389 L 16.0149,-6.3195 L 16.0171,-6.5" />
      <path d="M 16.0171,-6.5 L 16.0193,-6.3195 L 16.0201,-6.1389 L 16.0208,-5.9584 L 16.0213,-5.7778 L 16.0218,-5.5973 L 16.0222,-5.4167 L 16.0226,-5.2361 L 16.0229,-5.0556 L 16.0232,-4.875 L 16.0235,-4.6945 L 16.0238,-4.5139 L 16.024,-4.3334 L 16.0242,-4.1528 L 16.0244,-3.9722 L 16.0246,-3.7917 L 16.0248,-3.6111 L 16.025,-3.4306 L 16.0251,-3.25 L 16.0253,-3.0695 L 16.0254,-2.8889 L 16.0255,-2.7084 L 16.0256,-2.5278 L 16.0257,-2.3472 L 16.0258,-2.1667 L 16.0259,-1.9861 L 16.026,-1.8056 L 16.0261,-1.625 L 16.0261,-1.4445 L 16.0262,-1.2639 L 16.0262,-1.0833 L 16.0263,-0.9028 L 16.0263,-0.7222 L 16.0263,-0.5417 L 16.0264,-0.3611 L 16.0264,-0.1806 L 16.0264,0.0 L 16.0264,0.1806 L 16.0264,0.3611 L 16.0263,0.5417 L 16.0263,0.7222 L 16.0263,0.9028 L 16.0262,1.0833 L 16.0262,1.2639 L 16.0261,1.4444 L 16.0261,1.625 L 16.026,1.8056 L 16.0259,1.9861 L 16.0258,2.1667 L 16.0257,2.3472 L 16.0256,2.5278 L 16.0255,2.7083 L 16.0254,2.8889 L 16.0253,3.0695 L 16.0251,3.25 L 16.025,3.4306 L 16.0248,3.6111 L 16.0246,3.7917 L 16.0244,3.9722 L 16.0242,4.1528 L 16.024,4.3333 L 16.0238,4.5139 L 16.0235,4.6945 L 16.0232,4.875 L 16.0229,5.0556 L 16.0226,5.2361 L 16.0222,5.4167 L 16.0218,5.5972 L 16.0213,5.7778 L 16.0208,5.9584 L 16.0201,6.1389 L 16.0193,6.3195 L 16.0171,6.5" />
      <path d="M 16.0171,12.0 L 16.0131,11.6667 L 16.0115,11.3334 L 16.0103,11.0001 L 16.0093,10.6667 L 16.0084,10.3334 L 16.0076,10.0001 L 16.007,9.6667 L 16.0064,9.3334 L 16.0058,9.0001 L 16.0053,8.6667 L 16.0048,8.3334 L 16.0044,8.0001 L 16.0039,7.6667 L 16.0036,7.3334 L 16.0032,7.0 L 16.0029,6.6667 L 16.0026,6.3334 L 16.0023,6.0 L 16.002,5.6667 L 16.0018,5.3334 L 16.0016,5.0 L 16.0013,4.6667 L 16.0012,4.3334 L 16.001,4.0 L 16.0008,3.6667 L 16.0007,3.3334 L 16.0005,3.0 L 16.0004,2.6667 L 16.0003,2.3334 L 16.0002,2.0 L 16.0002,1.6667 L 16.0001,1.3333 L 16.0001,1.0 L 16.0,0.6667 L 16.0,0.3333 L 16.0,0.0 L 16.0,-0.3333 L 16.0,-0.6667 L 16.0001,-1.0 L 16.0001,-1.3333 L 16.0002,-1.6667 L 16.0002,-2.0 L 16.0003,-2.3333 L 16.0004,-2.6667 L 16.0005,-3.0 L 16.0007,-3.3333 L 16.0008,-3.6667 L 16.001,-4.0 L 16.0012,-4.3333 L 16.0013,-4.6667 L 16.0016,-5.0 L 16.0018,-5.3334 L 16.002,-5.6667 L 16.0023,-6.0 L 16.0026,-6.3334 L 16.0029,-6.6667 L 16.0032,-7.0 L 16.0036,-7.3334 L 16.0039,-7.6667 L 16.0044,-8.0 L 16.0048,-8.3334 L 16.0053,-8.6667 L 16.0058,-9.0 L 16.0064,-9.3334 L 16.007,-9.6667 L 16.0076,-10.0 L 16.0084,-10.3334 L 16.0093,-10.6667 L 16.0103,-11.0 L 16.0115,-11.3334 L 16.0131,-11.6667 L 16.0171,-12.0" />
      <path d="M 16.0171,-12.0 L 16.0211,-11.6667 L 16.0227,-11.3334 L 16.0239,-11.0001 L 16.0249,-10.6667 L 16.0258,-10.3334 L 16.0266,-10.0001 L 16.0272,-9.6667 L 16.0279,-9.3334 L 16.0284,-9.0001 L 16.0289,-8.6667 L 16.0294,-8.3334 L 16.0298,-8.0001 L 16.0303,-7.6667 L 16.0306,-7.3334 L 16.031,-7.0 L 16.0313,-6.6667 L 16.0316,-6.3334 L 16.0319,-6.0 L 16.0322,-5.6667 L 16.0324,-5.3334 L 16.0326,-5.0 L 16.0329,-4.6667 L 16.0331,-4.3334 L 16.0332,-4.0 L 16.0334,-3.6667 L 16.0335,-3.3334 L 16.0337,-3.0 L 16.0338,-2.6667 L 16.0339,-2.3334 L 16.034,-2.0 L 16.034,-1.6667 L 16.0341,-1.3333 L 16.0341,-1.0 L 16.0342,-0.6667 L 16.0342,-0.3333 L 16.0342,0.0 L 16.0342,0.3333 L 16.0342,0.6667 L 16.0341,1.0 L 16.0341,1.3333 L 16.034,1.6667 L 16.034,2.0 L 16.0339,2.3333 L 16.0338,2.6667 L 16.0337,3.0 L 16.0335,3.3333 L 16.0334,3.6667 L 16.0332,4.0 L 16.0331,4.3333 L 16.0329,4.6667 L 16.0326,5.0 L 16.0324,5.3334 L 16.0322,5.6667 L 16.0319,6.0 L 16.0316,6.3334 L 16.0313,6.6667 L 16.031,7.0 L 16.0306,7.3334 L 16.0303,7.6667 L 16.0298,8.0 L 16.0294,8.3334 L 16.0289,8.6667 L 16.0284,9.0 L 16.0279,9.3334 L 16.0272,9.6667 L 16.0266,10.0 L 16.0258,10.3334 L 16.0249,10.6667 L 16.0239,11.0 L 16.0227,11.3334 L 16.0211,11.6667 L 16.0171,12.0" />
      <path d="M 17.9078,-12.0 L 17.9079,-12.0 L 17.9079,-11.9999 L 17.9079,-11.9998" />
      <path d="M 17.9079,-11.9998 L 17.9118,-11.6665 L 17.9135,-11.3332 L 17.9147,-10.9999 L 17.9157,-10.6666 L 17.9165,-10.3332 L 17.9173,-9.9999 L 17.918,-9.6666 L 17.9186,-9.3332 L 17.9191,-8.9999 L 17.9197,-8.6666 L 17.9201,-8.3332 L 17.9206,-7.9999 L 17.921,-7.6666 L 17.9214,-7.3333 L 17.9217,-6.9999 L 17.9221,-6.6666 L 17.9224,-6.3333 L 17.9226,-5.9999 L 17.9229,-5.6666 L 17.9232,-5.3333 L 17.9234,-5.0 L 17.9236,-4.6666 L 17.9238,-4.3333 L 17.924,-4.0 L 17.9241,-3.6666 L 17.9243,-3.3333 L 17.9244,-3.0 L 17.9245,-2.6666 L 17.9246,-2.3333 L 17.9247,-2.0 L 17.9248,-1.6667 L 17.9248,-1.3333 L 17.9249,-1.0 L 17.9249,-0.6667 L 17.9249,-0.3333 L 17.9249,0.0 L 17.9249,0.3333 L 17.9249,0.6667 L 17.9249,1.0 L 17.9248,1.3333 L 17.9248,1.6666 L 17.9247,2.0 L 17.9246,2.3333 L 17.9245,2.6666 L 17.9244,3.0 L 17.9243,3.3333 L 17.9241,3.6666 L 17.924,4.0 L 17.9238,4.3333 L 17.9236,4.6666 L 17.9234,4.9999 L 17.9232,5.3333 L 17.9229,5.6666 L 17.9226,5.9999 L 17.9224,6.3333 L 17.9221,6.6666 L 17.9217,6.9999 L 17.9214,7.3332 L 17.921,7.6666 L 17.9206,7.9999 L 17.9201,8.3332 L 17.9197,8.6666 L 17.9191,8.9999 L 17.9186,9.3332 L 17.918,9.6666 L 17.9173,9.9999 L 17.9165,10.3332 L 17.9157,10.6665 L 17.9147,10.9999 L 17.9135,11.3332 L 17.9118,11.6665 L 17.9079,11.9998" />
      <path d="M 17.9079,11.9998 L 17.9079,11.9999 L 17.9079,12.0 L 17.9078,12.0" />
      <path d="M 16.0171,12.0 L 16.0434,12.0 L 16.0696,12.0 L 16.0959,12.0 L 16.1221,12.0 L 16.1484,12.0 L 16.1747,12.0 L 16.2009,12.0 L 16.2272,12.0 L 16.2534,12.0 L 16.2797,12.0 L 16.306,12.0 L 16.3322,12.0 L 16.3585,12.0 L 16.3847,12.0 L 16.411,12.0 L 16.4373,12.0 L 16.4635,12.0 L 16.4898,12.0 L 16.516,12.0 L 16.5423,12.0 L 16.5686,12.0 L 16.5948,12.0 L 16.6211,12.0 L 16.6473,12.0 L 16.6736,12.0 L 16.6999,12.0 L 16.7261,12.0 L 16.7524,12.0 L 16.7786,12.0 L 16.8049,12.0 L 16.8312,12.0 L 16.8574,12.0 L 16.8837,12.0 L 16.9099,12.0 L 16.9362,12.0 L 16.9625,12.0 L 16.9887,12.0 L 17.015,12.0 L 17.0412,12.0 L 17.0675,12.0 L 17.0938,12.0 L 17.12,12.0 L 17.1463,12.0 L 17.1725,12.0 L 17.1988,12.0 L 17.2251,12.0 L 17.2513,12.0 L 17.2776,12.0 L 17.3039,12.0 L 17.3301,12.0 L 17.3564,12.0 L 17.3826,12.0 L 17.4089,12.0 L 17.4352,12.0 L 17.4614,12.0 L 17.4877,12.0 L 17.5139,12.0 L 17.5402,12.0 L 17.5665,12.0 L 17.5927,12.0 L 17.619,12.0 L 17.6452,12.0 L 17.6715,12.0 L 17.6978,12.0 L 17.724,12.0 L 17.7503,12.0 L 17.7765,12.0 L 17.8028,12.0 L 17.8291,12.0 L 17.8553,12.0 L 17.8816,12.0 L 17.9078,12.0" />
      <path d="M 20.0171,-6.5 L 20.0193,-6.3194 L 20.0201,-6.1389 L 20.0208,-5.9583 L 20.0213,-5.7778 L 20.0218,-5.5972 L 20.0222,-5.4167 L 20.0226,-5.2361 L 20.0229,-5.0556 L 20.0232,-4.875 L 20.0235,-4.6945 L 20.0238,-4.5139 L 20.024,-4.3333 L 20.0242,-4.1528 L 20.0244,-3.9722 L 20.0246,-3.7917 L 20.0248,-3.6111 L 20.025,-3.4306 L 20.0251,-3.25 L 20.0253,-3.0695 L 20.0254,-2.8889 L 20.0255,-2.7083 L 20.0256,-2.5278 L 20.0257,-2.3472 L 20.0258,-2.1667 L 20.0259,-1.9861 L 20.026,-1.8056 L 20.0261,-1.625 L 20.0261,-1.4444 L 20.0262,-1.2639 L 20.0262,-1.0833 L 20.0263,-0.9028 L 20.0263,-0.7222 L 20.0263,-0.5417 L 20.0263,-0.3611 L 20.0264,-0.1806 L 20.0264,0.0 L 20.0264,0.1806 L 20.0263,0.3611 L 20.0263,0.5417 L 20.0263,0.7222 L 20.0263,0.9028 L 20.0262,1.0833 L 20.0262,1.2639 L 20.0261,1.4444 L 20.0261,1.625 L 20.026,1.8056 L 20.0259,1.9861 L 20.0258,2.1667 L 20.0257,2.3472 L 20.0256,2.5278 L 20.0255,2.7083 L 20.0254,2.8889 L 20.0253,3.0694 L 20.0251,3.25 L 20.025,3.4306 L 20.0248,3.6111 L 20.0246,3.7917 L 20.0244,3.9722 L 20.0242,4.1528 L 20.024,4.3333 L 20.0238,4.5139 L 20.0235,4.6944 L 20.0232,4.875 L 20.0229,5.0556 L 20.0226,5.2361 L 20.0222,5.4167 L 20.0218,5.5972 L 20.0213,5.7778 L 20.0208,5.9583 L 20.0201,6.1389 L 20.0193,6.3194 L 20.0171,6.5" />
      <path d="M 16.0171,-12.0 L 16.0434,-12.0 L 16.0696,-12.0 L 16.0959,-12.0 L 16.1221,-12.0 L 16.1484,-12.0 L 16.1747,-12.0 L 16.2009,-12.0 L 16.2272,-12.0 L 16.2534,-12.0 L 16.2797,-12.0 L 16.306,-12.0 L 16.3322,-12.0 L 16.3585,-12.0 L 16.3847,-12.0 L 16.411,-12.0 L 16.4373,-12.0 L 16.4635,-12.0 L 16.4898,-12.0 L 16.516,-12.0 L 16.5423,-12.0 L 16.5686,-12.0 L 16.5948,-12.0 L 16.6211,-12.0 L 16.6473,-12.0 L 16.6736,-12.0 L 16.6999,-12.0 L 16.7261,-12.0 L 16.7524,-12.0 L 16.7786,-12.0 L 16.8049,-12.0 L 16.8312,-12.0 L 16.8574,-12.0 L 16.8837,-12.0 L 16.9099,-12.0 L 16.9362,-12.0 L 16.9625,-12.0 L 16.9887,-12.0 L 17.015,-12.0 L 17.0412,-12.0 L 17.0675,-12.0 L 17.0938,-12.0 L 17.12,-12.0 L 17.1463,-12.0 L 17.1725,-12.0 L 17.1988,-12.0 L 17.2251,-12.0 L 17.2513,-12.0 L 17.2776,-12.0 L 17.3039,-12.0 L 17.3301,-12.0 L 17.3564,-12.0 L 17.3826,-12.0 L 17.4089,-12.0 L 17.4352,-12.0 L 17.4614,-12.0 L 17.4877,-12.0 L 17.5139,-12.0 L 17.5402,-12.0 L 17.5665,-12.0 L 17.5927,-12.0 L 17.619,-12.0 L 17.6452,-12.0 L 17.6715,-12.0 L 17.6978,-12.0 L 17.724,-12.0 L 17.7503,-12.0 L 17.7765,-12.0 L 17.8028,-12.0 L 17.8291,-12.0 L 17.8553,-12.0 L 17.8816,-12.0 L 17.9078,-12.0" />
      <path d="M 17.9079,-11.9998 L 17.9285,-11.9205 L 17.9494,-11.8412 L 17.9705,-11.762 L 17.9919,-11.6828 L 18.0135,-11.6037 L 18.0354,-11.5247 L 18.0575,-11.4458 L 18.0799,-11.3669 L 18.1025,-11.2881 L 18.1254,-11.2093 L 18.1485,-11.1307 L 18.1719,-11.0521 L 18.1955,-10.9736 L 18.2193,-10.8951 L 18.2434,-10.8168 L 18.2678,-10.7385 L 18.2924,-10.6603 L 18.3172,-10.5821 L 18.3423,-10.5041 L 18.3676,-10.4261 L 18.3932,-10.3482 L 18.419,-10.2704 L 18.4451,-10.1927 L 18.4714,-10.115 L 18.498,-10.0375 L 18.5248,-9.96 L 18.5519,-9.8826 L 18.5792,-9.8053 L 18.6067,-9.7281 L 18.6345,-9.6509 L 18.6625,-9.5739 L 18.6908,-9.4969 L 18.7193,-9.42 L 18.748,-9.3433 L 18.777,-9.2666 L 18.8063,-9.19 L 18.8357,-9.1135 L 18.8655,-9.0371 L 18.8954,-8.9607 L 18.9256,-8.8845 L 18.9561,-8.8084 L 18.9867,-8.7324 L 19.0177,-8.6564 L 19.0488,-8.5806 L 19.0802,-8.5049 L 19.1119,-8.4292 L 19.1437,-8.3537 L 19.1759,-8.2782 L 19.2082,-8.2029 L 19.2408,-8.1277 L 19.2736,-8.0525 L 19.3067,-7.9775 L 19.34,-7.9026 L 19.3735,-7.8278 L 19.4073,-7.7531 L 19.4413,-7.6785 L 19.4755,-7.604 L 19.51,-7.5296 L 19.5447,-7.4553 L 19.5797,-7.3811 L 19.6148,-7.3071 L 19.6503,-7.2331 L 19.6859,-7.1593 L 19.7218,-7.0856 L 19.7579,-7.012 L 19.7942,-6.9385 L 19.8308,-6.8651 L 19.8676,-6.7919 L 19.9046,-6.7187 L 19.9419,-6.6457 L 19.9794,-6.5728 L 20.0171,-6.5" />
      <path d="M 17.9079,11.9998 L 17.9285,11.9205 L 17.9494,11.8412 L 17.9705,11.762 L 17.9919,11.6828 L 18.0135,11.6037 L 18.0354,11.5247 L 18.0575,11.4458 L 18.0799,11.3669 L 18.1025,11.2881 L 18.1254,11.2093 L 18.1485,11.1307 L 18.1719,11.0521 L 18.1955,10.9736 L 18.2193,10.8951 L 18.2434,10.8168 L 18.2678,10.7385 L 18.2924,10.6603 L 18.3172,10.5821 L 18.3423,10.5041 L 18.3676,10.4261 L 18.3932,10.3482 L 18.419,10.2704 L 18.4451,10.1927 L 18.4714,10.115 L 18.498,10.0375 L 18.5248,9.96 L 18.5519,9.8826 L 18.5792,9.8053 L 18.6067,9.7281 L 18.6345,9.6509 L 18.6625,9.5739 L 18.6908,9.4969 L 18.7193,9.42 L 18.748,9.3433 L 18.777,9.2666 L 18.8063,9.19 L 18.8357,9.1135 L 18.8655,9.0371 L 18.8954,8.9607 L 18.9256,8.8845 L 18.9561,8.8084 L 18.9867,8.7324 L 19.0177,8.6564 L 19.0488,8.5806 L 19.0802,8.5049 L 19.1119,8.4292 L 19.1437,8.3537 L 19.1759,8.2782 L 19.2082,8.2029 L 19.2408,8.1277 L 19.2736,8.0525 L 19.3067,7.9775 L 19.34,7.9026 L 19.3735,7.8278 L 19.4073,7.7531 L 19.4413,7.6785 L 19.4755,7.604 L 19.51,7.5296 L 19.5447,7.4553 L 19.5797,7.3811 L 19.6148,7.3071 L 19.6503,7.2331 L 19.6859,7.1593 L 19.7218,7.0856 L 19.7579,7.012 L 19.7942,6.9385 L 19.8308,6.8651 L 19.8676,6.7919 L 19.9046,6.7187 L 19.9419,6.6457 L 19.9794,6.5728 L 20.0171,6.5" />
    </g>
    <g fill="none" stroke="rgb(110,110,110)" stroke-width="0.3" id="Hidden" stroke-dasharray="3.6 0.9">
      <path d="M 12.0,0.0 L 11.9543,1.0459 L 11.8177,2.0838 L 11.5911,3.1058 L 11.2763,4.1042 L 10.8757,5.0714 L 10.3923,6.0 L 9.8298,6.8829 L 9.1925,7.7135 L 8.4853,8.4853 L 7.7135,9.1925 L 6.8829,9.8298 L 6.0,10.3923 L 5.0714,10.8757 L 4.1042,11.2763 L 3.1058,11.5911 L 2.0838,11.8177 L 1.0459,11.9543 L 0.0,12.0 L -1.0459,11.9543 L -2.0838,11.8177 L -3.1058,11.5911 L -4.1042,11.2763 L -5.0714,10.8757 L -6.0,10.3923 L -6.8829,9.8298 L -7.7135,9.1925 L -8.4853,8.4853 L -9.1925,7.7135 L -9.8298,6.8829 L -10.3923,6.0 L -10.8757,5.0714 L -11.2763,4.1042 L -11.5911,3.1058 L -11.8177,2.0838 L -11.9543,1.0459 L -12.0,0.0 L -11.9543,-1.0459 L -11.8177,-2.0838 L -11.5911,-3.1058 L -11.2763,-4.1042 L -10.8757,-5.0714 L -10.3923,-6.0 L -9.8298,-6.8829 L -9.1925,-7.7135 L -8.4853,-8.4853 L -7.7135,-9.1925 L -6.8829,-9.8298 L -6.0,-10.3923 L -5.0714,-10.8757 L -4.1042,-11.2763 L -3.1058,-11.5911 L -2.0838,-11.8177 L -1.0459,-11.9543 L -0.0,-12.0 L 1.0459,-11.9543 L 2.0838,-11.8177 L 3.1058,-11.5911 L 4.1042,-11.2763 L 5.0714,-10.8757 L 6.0,-10.3923 L 6.8829,-9.8298 L 7.7135,-9.1925 L 8.4853,-8.4853 L 9.1925,-7.7135 L 9.8298,-6.8829 L 10.3923,-6.0 L 10.8757,-5.0714 L 11.2763,-4.1042 L 11.5911,-3.1058 L 11.8177,-2.0838 L 11.9543,-1.0459 L 12.0,-0.0" />
      <path d="M 6.5,0.0 L 6.4753,0.5665 L 6.4013,1.1287 L 6.2785,1.6823 L 6.108,2.2231 L 5.891,2.747 L 5.6292,3.25 L 5.3245,3.7282 L 4.9793,4.1781 L 4.5962,4.5962 L 4.1781,4.9793 L 3.7282,5.3245 L 3.25,5.6292 L 2.747,5.891 L 2.2231,6.108 L 1.6823,6.2785 L 1.1287,6.4013 L 0.5665,6.4753 L -0.0,6.5 L -0.5665,6.4753 L -1.1287,6.4013 L -1.6823,6.2785 L -2.2231,6.108 L -2.747,5.891 L -3.25,5.6292 L -3.7282,5.3245 L -4.1781,4.9793 L -4.5962,4.5962 L -4.9793,4.1781 L -5.3245,3.7282 L -5.6292,3.25 L -5.891,2.747 L -6.108,2.2231 L -6.2785,1.6823 L -6.4013,1.1287 L -6.4753,0.5665 L -6.5,-0.0 L -6.4753,-0.5665 L -6.4013,-1.1287 L -6.2785,-1.6823 L -6.108,-2.2231 L -5.891,-2.747 L -5.6292,-3.25 L -5.3245,-3.7282 L -4.9793,-4.1781 L -4.5962,-4.5962 L -4.1781,-4.9793 L -3.7282,-5.3245 L -3.25,-5.6292 L -2.747,-5.891 L -2.2231,-6.108 L -1.6823,-6.2785 L -1.1287,-6.4013 L -0.5665,-6.4753 L 0.0,-6.5 L 0.5665,-6.4753 L 1.1287,-6.4013 L 1.6823,-6.2785 L 2.2231,-6.108 L 2.747,-5.891 L 3.25,-5.6292 L 3.7282,-5.3245 L 4.1781,-4.9793 L 4.5962,-4.5962 L 4.9793,-4.1781 L 5.3245,-3.7282 L 5.6292,-3.25 L 5.891,-2.747 L 6.108,-2.2231 L 6.2785,-1.6823 L 6.4013,-1.1287 L 6.4753,-0.5665 L 6.5,0.0" />
      <path d="M 17.9078,12.0 L 17.9038,11.6667 L 17.9022,11.3334 L 17.901,11.0001 L 17.9,10.6667 L 17.8991,10.3334 L 17.8984,10.0001 L 17.8977,9.6667 L 17.8971,9.3334 L 17.8965,9.0001 L 17.896,8.6667 L 17.8955,8.3334 L 17.8951,8.0001 L 17.8947,7.6667 L 17.8943,7.3334 L 17.8939,7.0 L 17.8936,6.6667 L 17.8933,6.3334 L 17.893,6.0 L 17.8928,5.6667 L 17.8925,5.3334 L 17.8923,5.0 L 17.8921,4.6667 L 17.8919,4.3334 L 17.8917,4.0 L 17.8915,3.6667 L 17.8914,3.3334 L 17.8913,3.0 L 17.8912,2.6667 L 17.8911,2.3334 L 17.891,2.0 L 17.8909,1.6667 L 17.8908,1.3333 L 17.8908,1.0 L 17.8908,0.6667 L 17.8907,0.3333 L 17.8907,0.0 L 17.8907,-0.3333 L 17.8908,-0.6667 L 17.8908,-1.0 L 17.8908,-1.3333 L 17.8909,-1.6667 L 17.891,-2.0 L 17.8911,-2.3333 L 17.8912,-2.6667 L 17.8913,-3.0 L 17.8914,-3.3333 L 17.8915,-3.6667 L 17.8917,-4.0 L 17.8919,-4.3333 L 17.8921,-4.6667 L 17.8923,-5.0 L 17.8925,-5.3334 L 17.8928,-5.6667 L 17.893,-6.0 L 17.8933,-6.3334 L 17.8936,-6.6667 L 17.8939,-7.0 L 17.8943,-7.3334 L 17.8947,-7.6667 L 17.8951,-8.0 L 17.8955,-8.3334 L 17.896,-8.6667 L 17.8965,-9.0 L 17.8971,-9.3334 L 17.8977,-9.6667 L 17.8984,-10.0 L 17.8991,-10.3334 L 17.9,-10.6667 L 17.901,-11.0 L 17.9022,-11.3334 L 17.9038,-11.6667 L 17.9078,-12.0" />
      <path d="M 20.0171,6.5 L 20.0149,6.3195 L 20.0141,6.1389 L 20.0134,5.9584 L 20.0129,5.7778 L 20.0124,5.5973 L 20.012,5.4167 L 20.0116,5.2361 L 20.0113,5.0556 L 20.011,4.875 L 20.0107,4.6945 L 20.0104,4.5139 L 20.0102,4.3334 L 20.01,4.1528 L 20.0098,3.9722 L 20.0096,3.7917 L 20.0094,3.6111 L 20.0092,3.4306 L 20.0091,3.25 L 20.0089,3.0695 L 20.0088,2.8889 L 20.0087,2.7084 L 20.0086,2.5278 L 20.0085,2.3472 L 20.0084,2.1667 L 20.0083,1.9861 L 20.0082,1.8056 L 20.0081,1.625 L 20.0081,1.4445 L 20.008,1.2639 L 20.008,1.0833 L 20.0079,0.9028 L 20.0079,0.7222 L 20.0079,0.5417 L 20.0078,0.3611 L 20.0078,0.1806 L 20.0078,0.0 L 20.0078,-0.1806 L 20.0078,-0.3611 L 20.0079,-0.5417 L 20.0079,-0.7222 L 20.0079,-0.9028 L 20.008,-1.0833 L 20.008,-1.2639 L 20.0081,-1.4444 L 20.0081,-1.625 L 20.0082,-1.8056 L 20.0083,-1.9861 L 20.0084,-2.1667 L 20.0085,-2.3472 L 20.0086,-2.5278 L 20.0087,-2.7083 L 20.0088,-2.8889 L 20.0089,-3.0695 L 20.0091,-3.25 L 20.0092,-3.4306 L 20.0094,-3.6111 L 20.0096,-3.7917 L 20.0098,-3.9722 L 20.01,-4.1528 L 20.0102,-4.3333 L 20.0104,-4.5139 L 20.0107,-4.6945 L 20.011,-4.875 L 20.0113,-5.0556 L 20.0116,-5.2361 L 20.012,-5.4167 L 20.0124,-5.5972 L 20.0129,-5.7778 L 20.0134,-5.9584 L 20.0141,-6.1389 L 20.0149,-6.3195 L 20.0171,-6.5" />
      <path d="M 20.0171,6.5 L 19.9615,6.5 L 19.906,6.5 L 19.8504,6.5 L 19.7949,6.5 L 19.7393,6.5 L 19.6838,6.5 L 19.6282,6.5 L 19.5727,6.5 L 19.5171,6.5 L 19.4615,6.5 L 19.406,6.5 L 19.3504,6.5 L 19.2949,6.5 L 19.2393,6.5 L 19.1838,6.5 L 19.1282,6.5 L 19.0727,6.5 L 19.0171,6.5 L 18.9615,6.5 L 18.906,6.5 L 18.8504,6.5 L 18.7949,6.5 L 18.7393,6.5 L 18.6838,6.5 L 18.6282,6.5 L 18.5727,6.5 L 18.5171,6.5 L 18.4615,6.5 L 18.406,6.5 L 18.3504,6.5 L 18.2949,6.5 L 18.2393,6.5 L 18.1838,6.5 L 18.1282,6.5 L 18.0727,6.5 L 18.0171,6.5 L 17.9615,6.5 L 17.906,6.5 L 17.8504,6.5 L 17.7949,6.5 L 17.7393,6.5 L 17.6838,6.5 L 17.6282,6.5 L 17.5727,6.5 L 17.5171,6.5 L 17.4615,6.5 L 17.406,6.5 L 17.3504,6.5 L 17.2949,6.5 L 17.2393,6.5 L 17.1838,6.5 L 17.1282,6.5 L 17.0727,6.5 L 17.0171,6.5 L 16.9615,6.5 L 16.906,6.5 L 16.8504,6.5 L 16.7949,6.5 L 16.7393,6.5 L 16.6838,6.5 L 16.6282,6.5 L 16.5727,6.5 L 16.5171,6.5 L 16.4615,6.5 L 16.406,6.5 L 16.3504,6.5 L 16.2949,6.5 L 16.2393,6.5 L 16.1838,6.5 L 16.1282,6.5 L 16.0727,6.5 L 16.0171,6.5" />
      <path d="M 20.0171,-6.5 L 19.9615,-6.5 L 19.906,-6.5 L 19.8504,-6.5 L 19.7949,-6.5 L 19.7393,-6.5 L 19.6838,-6.5 L 19.6282,-6.5 L 19.5727,-6.5 L 19.5171,-6.5 L 19.4615,-6.5 L 19.406,-6.5 L 19.3504,-6.5 L 19.2949,-6.5 L 19.2393,-6.5 L 19.1838,-6.5 L 19.1282,-6.5 L 19.0727,-6.5 L 19.0171,-6.5 L 18.9615,-6.5 L 18.906,-6.5 L 18.8504,-6.5 L 18.7949,-6.5 L 18.7393,-6.5 L 18.6838,-6.5 L 18.6282,-6.5 L 18.5727,-6.5 L 18.5171,-6.5 L 18.4615,-6.5 L 18.406,-6.5 L 18.3504,-6.5 L 18.2949,-6.5 L 18.2393,-6.5 L 18.1838,-6.5 L 18.1282,-6.5 L 18.0727,-6.5 L 18.0171,-6.5 L 17.9615,-6.5 L 17.906,-6.5 L 17.8504,-6.5 L 17.7949,-6.5 L 17.7393,-6.5 L 17.6838,-6.5 L 17.6282,-6.5 L 17.5727,-6.5 L 17.5171,-6.5 L 17.4615,-6.5 L 17.406,-6.5 L 17.3504,-6.5 L 17.2949,-6.5 L 17.2393,-6.5 L 17.1838,-6.5 L 17.1282,-6.5 L 17.0727,-6.5 L 17.0171,-6.5 L 16.9615,-6.5 L 16.906,-6.5 L 16.8504,-6.5 L 16.7949,-6.5 L 16.7393,-6.5 L 16.6838,-6.5 L 16.6282,-6.5 L 16.5727,-6.5 L 16.5171,-6.5 L 16.4615,-6.5 L 16.406,-6.5 L 16.3504,-6.5 L 16.2949,-6.5 L 16.2393,-6.5 L 16.1838,-6.5 L 16.1282,-6.5 L 16.0727,-6.5 L 16.0171,-6.5" />
    </g>
  </g>
</svg>