<?xml version='1.0' encoding='utf-8'?>
<svg width="47.9956mm" height="38.7121mm" viewBox="-19.3561 -19.3561 47.9956 38.7121" version="1.1" xmlns="http://www.w3.org/2000/svg">
  <g transform="scale(1,-1)" stroke-linecap="round">
    <g fill="none" stroke="rgb(0,0,0)" stroke-width="0.4" id="Visible">
      <path d="M 6.2139,0.0 L 6.1903,0.5416 L 6.1195,1.079 L 6.0022,1.6083 L 5.8392,2.1253 L 5.6317,2.6261 L 5.3814,3.107 L 5.0902,3.5642 L 4.7601,3.9942 L 4.3939,4.3939 L 3.9942,4.7601 L 3.5642,5.0902 L 3.107,5.3814 L 2.6261,5.6317 L 2.1253,5.8392 L 1.6083,6.0022 L 1.079,6.1195 L 0.5416,6.1903 L 0.0,6.2139 L -0.5416,6.1903 L -1.079,6.1195 L -1.6083,6.0022 L -2.1253,5.8392 L -2.6261,5.6317 L -3.107,5.3814 L -3.5642,5.0902 L -3.9942,4.7601 L -4.3939,4.3939 L -4.7601,3.9942 L -5.0902,3.5642 L -5.3814,3.107 L -5.6317,2.6261 L -5.8392,2.1253 L -6.0022,1.6083 L -6.1195,1.079 L -6.1903,0.5416 L -6.2139,0.0 L -6.1903,-0.5416 L -6.1195,-1.079 L -6.0022,-1.6083 L -5.8392,-2.1253 L -5.6317,-2.6261 L -5.3814,-3.107 L -5.0902,-3.5642 L -4.7601,-3.9942 L -4.3939,-4.3939 L -3.9942,-4.7601 L -3.5642,-5.0902 L -3.107,-5.3814 L -2.6261,-5.6317 L -2.1253,-5.8392 L -1.6083,-6.0022 L -1.079,-6.1195 L -0.5416,-6.1903 L -0.0,-6.2139 L 0.5416,-6.1903 L 1.079,-6.1195 L 1.6083,-6.0022 L 2.1253,-5.8392 L 2.6261,-5.6317 L 3.107,-5.3814 L 3.5642,-5.0902 L 3.9942,-4.7601 L 4.3939,-4.3939 L 4.7601,-3.9942 L 5.0902,-3.5642 L 5.3814,-3.107 L 5.6317,-2.6261 L 5.8392,-2.1253 L 6.0022,-1.6083 L 6.1195,-1.079 L 6.1903,-0.5416 L 6.2139,-0.0" />
      <path d="M 14.7861,0.0 L 14.7298,1.2887 L 14.5614,2.5676 L 14.2822,3.8269 L 13.8944,5.0571 L 13.4007,6.2489 L 12.8051,7.393 L 12.112,8.4809 L 11.3268,9.5043 L 10.4553,10.4553 L 9.5043,11.3268 L 8.4809,12.112 L 7.393,12.8051 L 6.2489,13.4007 L 5.0571,13.8944 L 3.8269,14.2822 L 2.5676,14.5614 L 1.2887,14.7298 L 0.0,14.7861 L -1.2887,14.7298 L -2.5676,14.5614 L -3.8269,14.2822 L -5.0571,13.8944 L -6.2489,13.4007 L -7.393,12.8051 L -8.4809,12.112 L -9.5043,11.3268 L -10.4553,10.4553 L -11.3268,9.5043 L -12.112,8.4809 L -12.8051,7.393 L -13.4007,6.2489 L -13.8944,5.0571 L -14.2822,3.8269 L -14.5614,2.5676 L -14.7298,1.2887 L -14.7861,0.0 L -14.7298,-1.2887 L -14.5614,-2.5676 L -14.2822,-3.8269 L -13.8944,-5.0571 L -13.4007,-6.2489 L -12.8051,-7.393 L -12.112,-8.4809 L -11.3268,-9.5043 L -10.4553,-10.4553 L -9.5043,-11.3268 L -8.4809,-12.112 L -7.393,-12.8051 L -6.2489,-13.4007 L -5.0571,-13.8944 L -3.8269,-14.2822 L -2.5676,-14.5614 L -1.2887,-14.7298 L -0.0,-14.7861 L 1.2887,-14.7298 L 2.5676,-14.5614 L 3.8269,-14.2822 L 5.0571,-13.8944 L 6.2489,-13.4007 L 7.393,-12.8051 L 8.4809,-12.112 L 9.5043,-11.3268 L 10.4553,-10.4553 L 11.3268,-9.5043 L 12.112,-8.4809 L 12.8051,-7.393 L 13.4007,-6.2489 L 13.8944,-5.0571 L 14.2822,-3.8269 L 14.5614,-2.5676 L 14.7298,-1.2887 L 14.7861,-0.0" />
      <path d="M 13.904,0.0 L 13.8511,1.2118 L 13.6928,2.4144 L 13.4303,3.5986 L 13.0655,4.7555 L 12.6013,5.8761 L 12.0412,6.952 L 11.3895,7.975 L 10.6511,8.9373 L 9.8316,9.8316 L 8.9373,10.6511 L 7.975,11.3895 L 6.952,12.0412 L 5.8761,12.6013 L 4.7555,13.0655 L 3.5986,13.4303 L 2.4144,13.6928 L 1.2118,13.8511 L -0.0,13.904 L -1.2118,13.8511 L -2.4144,13.6928 L -3.5986,13.4303 L -4.7555,13.0655 L -5.8761,12.6013 L -6.952,12.0412 L -7.975,11.3895 L -8.9373,10.6511 L -9.8316,9.8316 L -10.6511,8.9373 L -11.3895,7.975 L -12.0412,6.952 L -12.6013,5.8761 L -13.0655,4.7555 L -13.4303,3.5986 L -13.6928,2.4144 L -13.8511,1.2118 L -13.904,-0.0 L -13.8511,-1.2118 L -13.6928,-2.4144 L -13.4303,-3.5986 L -13.0655,-4.7555 L -12.6013,-5.8761 L -12.0412,-6.952 L -11.3895,-7.975 L -10.6511,-8.9373 L -9.8316,-9.8316 L -8.9373,-10.6511 L -7.975,-11.3895 L -6.952,-12.0412 L -5.8761,-12.6013 L -4.7555,-13.0655 L -3.5986,-13.4303 L -2.4144,-13.6928 L -1.2118,-13.8511 L 0.0,-13.904 L 1.2118,-13.8511 L 2.4144,-13.6928 L 3.5986,-13.4303 L 4.7555,-13.0655 L 5.8761,-12.6013 L 6.952,-12.0412 L 7.975,-11.3895 L 8.9373,-10.6511 L 9.8316,-9.8316 L 10.6511,-8.9373 L 11.3895,-7.975 L 12.0412,-6.952 L 12.6013,-5.8761 L 13.0655,-4.7555 L 13.4303,-3.5986 L 13.6928,-2.4144 L 13.8511,-1.2118 L 13.904,0.0" />
      <path d="M 24.0688,7.096 L 24.069,6.8989 L 24.069,6.7018 L 24.0691,6.5046 L 24.0691,6.3075 L 24.0692,6.1104 L 24.0692,5.9133 L 24.0692,5.7162 L 24.0693,5.5191 L 24.0693,5.322 L 24.0693,5.1249 L 24.0694,4.9278 L 24.0694,4.7306 L 24.0694,4.5335 L 24.0694,4.3364 L 24.0694,4.1393 L 24.0694,3.9422 L 24.0695,3.7451 L 24.0695,3.548 L 24.0695,3.3509 L 24.0695,3.1538 L 24.0695,2.9567 L 24.0695,2.7595 L 24.0695,2.5624 L 24.0695,2.3653 L 24.0695,2.1682 L 24.0695,1.9711 L 24.0696,1.774 L 24.0696,1.5769 L 24.0696,1.3798 L 24.0696,1.1827 L 24.0696,0.9856 L 24.0696,0.7884 L 24.0696,0.5913 L 24.0696,0.3942 L 24.0696,0.1971 L 24.0696,0.0 L 24.0696,-0.1971 L 24.0696,-0.3942 L 24.0696,-0.5913 L 24.0696,-0.7884 L 24.0696,-0.9856 L 24.0696,-1.1827 L 24.0696,-1.3798 L 24.0696,-1.5769 L 24.0696,-1.774 L 24.0695,-1.9711 L 24.0695,-2.1682 L 24.0695,-2.3653 L 24.0695,-2.5624 L 24.0695,-2.7595 L 24.0695,-2.9567 L 24.0695,-3.1538 L 24.0695,-3.3509 L 24.0695,-3.548 L 24.0695,-3.7451 L 24.0694,-3.9422 L 24.0694,-4.1393 L 24.0694,-4.3364 L 24.0694,-4.5335 L 24.0694,-4.7306 L 24.0694,-4.9278 L 24.0693,-5.1249 L 24.0693,-5.322 L 24.0693,-5.5191 L 24.0692,-5.7162 L 24.0692,-5.9133 L 24.0692,-6.1104 L 24.0691,-6.3075 L 24.0691,-6.5046 L 24.069,-6.7018 L 24.069,-6.8989 L 24.0688,-7.096" />
      <path d="M 24.0688,-7.096 L 24.0686,-6.8989 L 24.0685,-6.7018 L 24.0685,-6.5046 L 24.0684,-6.3075 L 24.0684,-6.1104 L 24.0683,-5.9133 L 24.0683,-5.7162 L 24.0683,-5.5191 L 24.0682,-5.322 L 24.0682,-5.1249 L 24.0682,-4.9278 L 24.0682,-4.7306 L 24.0682,-4.5335 L 24.0681,-4.3364 L 24.0681,-4.1393 L 24.0681,-3.9422 L 24.0681,-3.7451 L 24.0681,-3.548 L 24.0681,-3.3509 L 24.0681,-3.1538 L 24.068,-2.9567 L 24.068,-2.7595 L 24.068,-2.5624 L 24.068,-2.3653 L 24.068,-2.1682 L 24.068,-1.9711 L 24.068,-1.774 L 24.068,-1.5769 L 24.068,-1.3798 L 24.068,-1.1827 L 24.068,-0.9856 L 24.068,-0.7884 L 24.068,-0.5913 L 24.068,-0.3942 L 24.068,-0.1971 L 24.068,0.0 L 24.068,0.1971 L 24.068,0.3942 L 24.068,0.5913 L 24.068,0.7884 L 24.068,0.9856 L 24.068,1.1827 L 24.068,1.3798 L 24.068,1.5769 L 24.068,1.774 L 24.068,1.9711 L 24.068,2.1682 L 24.068,2.3653 L 24.068,2.5624 L 24.068,2.7595 L 24.068,2.9567 L 24.0681,3.1538 L 24.0681,3.3509 L 24.0681,3.548 L 24.0681,3.7451 L 24.0681,3.9422 L 24.0681,4.1393 L 24.0681,4.3364 L 24.0682,4.5335 L 24.0682,4.7306 L 24.0682,4.9278 L 24.0682,5.1249 L 24.0682,5.322 L 24.0683,5.5191 L 24.0683,5.7162 L 24.0683,5.9133 L 24.0684,6.1104 L 24.0684,6.3075 L 24.0685,6.5046 L 24.0685,6.7018 L 24.0686,6.8989 L 24.0688,7.096" />
      <path d="M 21.8637,-14.7861 L 21.8633,-14.3753 L 21.8631,-13.9646 L 21.863,-13.5539 L 21.8629,-13.1432 L 21.8628,-12.7324 L 21.8628,-12.3217 L 21.8627,-11.911 L 21.8626,-11.5003 L 21.8626,-11.0896 L 21.8625,-10.6788 L 21.8625,-10.2681 L 21.8624,-9.8574 L 21.8624,-9.4467 L 21.8624,-9.0359 L 21.8623,-8.6252 L 21.8623,-8.2145 L 21.8623,-7.8038 L 21.8622,-7.393 L 21.8622,-6.9823 L 21.8622,-6.5716 L 21.8622,-6.1609 L 21.8621,-5.7501 L 21.8621,-5.3394 L 21.8621,-4.9287 L 21.8621,-4.518 L 21.8621,-4.1072 L 21.8621,-3.6965 L 21.862,-3.2858 L 21.862,-2.8751 L 21.862,-2.4643 L 21.862,-2.0536 L 21.862,-1.6429 L 21.862,-1.2322 L 21.862,-0.8214 L 21.862,-0.4107 L 21.862,0.0 L 21.862,0.4107 L 21.862,0.8214 L 21.862,1.2322 L 21.862,1.6429 L 21.862,2.0536 L 21.862,2.4643 L 21.862,2.8751 L 21.862,3.2858 L 21.8621,3.6965 L 21.8621,4.1072 L 21.8621,4.518 L 21.8621,4.9287 L 21.8621,5.3394 L 21.8621,5.7501 L 21.8622,6.1609 L 21.8622,6.5716 L 21.8622,6.9823 L 21.8622,7.393 L 21.8623,7.8038 L 21.8623,8.2145 L 21.8623,8.6252 L 21.8624,9.0359 L 21.8624,9.4467 L 21.8624,9.8574 L 21.8625,10.2681 L 21.8625,10.6788 L 21.8626,11.0896 L 21.8626,11.5003 L 21.8627,11.911 L 21.8628,12.3217 L 21.8628,12.7324 L 21.8629,13.1432 L 21.863,13.5539 L 21.8631,13.9646 L 21.8633,14.3753 L 21.8637,14.7861" />
      <path d="M 18.7876,-13.904 L 18.7873,-13.5178 L 18.7871,-13.1316 L 18.787,-12.7454 L 18.7869,-12.3591 L 18.7868,-11.9729 L 18.7868,-11.5867 L 18.7867,-11.2005 L 18.7867,-10.8142 L 18.7866,-10.428 L 18.7866,-10.0418 L 18.7865,-9.6556 L 18.7865,-9.2694 L 18.7864,-8.8831 L 18.7864,-8.4969 L 18.7864,-8.1107 L 18.7863,-7.7245 L 18.7863,-7.3382 L 18.7863,-6.952 L 18.7863,-6.5658 L 18.7862,-6.1796 L 18.7862,-5.7933 L 18.7862,-5.4071 L 18.7862,-5.0209 L 18.7862,-4.6347 L 18.7861,-4.2485 L 18.7861,-3.8622 L 18.7861,-3.476 L 18.7861,-3.0898 L 18.7861,-2.7036 L 18.7861,-2.3173 L 18.7861,-1.9311 L 18.7861,-1.5449 L 18.7861,-1.1587 L 18.7861,-0.7724 L 18.7861,-0.3862 L 18.7861,0.0 L 18.7861,0.3862 L 18.7861,0.7724 L 18.7861,1.1587 L 18.7861,1.5449 L 18.7861,1.9311 L 18.7861,2.3173 L 18.7861,2.7036 L 18.7861,3.0898 L 18.7861,3.476 L 18.7861,3.8622 L 18.7861,4.2485 L 18.7862,4.6347 L 18.7862,5.0209 L 18.7862,5.4071 L 18.7862,5.7933 L 18.7862,6.1796 L 18.7863,6.5658 L 18.7863,6.952 L 18.7863,7.3382 L 18.7863,7.7245 L 18.7864,8.1107 L 18.7864,8.4969 L 18.7864,8.8831 L 18.7865,9.2694 L 18.7865,9.6556 L 18.7866,10.0418 L 18.7866,10.428 L 18.7867,10.8142 L 18.7867,11.2005 L 18.7868,11.5867 L 18.7868,11.9729 L 18.7869,12.3591 L 18.787,12.7454 L 18.7871,13.1316 L 18.7873,13.5178 L 18.7876,13.904" />
      <path d="M 24.0688,7.096 L 24.0381,7.2028 L 24.0075,7.3096 L 23.9769,7.4164 L 23.9463,7.5232 L 23.9156,7.63 L 23.885,7.7368 L 23.8544,7.8436 L 23.8238,7.9504 L 23.7931,8.0572 L 23.7625,8.164 L 23.7319,8.2708 L 23.7013,8.3777 L 23.6706,8.4845 L 23.64,8.5913 L 23.6094,8.6981 L 23.5788,8.8049 L 23.5481,8.9117 L 23.5175,9.0185 L 23.4869,9.1253 L 23.4562,9.2321 L 23.4256,9.3389 L 23.395,9.4457 L 23.3644,9.5525 L 23.3337,9.6593 L 23.3031,9.7661 L 23.2725,9.873 L 23.2419,9.9798 L 23.2112,10.0866 L 23.1806,10.1934 L 23.15,10.3002 L 23.1194,10.407 L 23.0887,10.5138 L 23.0581,10.6206 L 23.0275,10.7274 L 22.9969,10.8342 L 22.9662,10.941 L 22.9356,11.0478 L 22.905,11.1546 L 22.8743,11.2614 L 22.8437,11.3682 L 22.8131,11.4751 L 22.7825,11.5819 L 22.7518,11.6887 L 22.7212,11.7955 L 22.6906,11.9023 L 22.66,12.0091 L 22.6293,12.1159 L 22.5987,12.2227 L 22.5681,12.3295 L 22.5375,12.4363 L 22.5068,12.5431 L 22.4762,12.6499 L 22.4456,12.7567 L 22.415,12.8635 L 22.3843,12.9703 L 22.3537,13.0772 L 22.3231,13.184 L 22.2924,13.2908 L 22.2618,13.3976 L 22.2312,13.5044 L 22.2006,13.6112 L 22.1699,13.718 L 22.1393,13.8248 L 22.1087,13.9316 L 22.0781,14.0384 L 22.0474,14.1452 L 22.0168,14.252 L 21.9862,14.3588 L 21.9556,14.4656 L 21.9249,14.5725 L 21.8943,14.6793 L 21.8637,14.7861" />
      <path d="M 24.0688,-7.096 L 24.0381,-7.2028 L 24.0075,-7.3096 L 23.9769,-7.4164 L 23.9463,-7.5232 L 23.9156,-7.63 L 23.885,-7.7368 L 23.8544,-7.8436 L 23.8238,-7.9504 L 23.7931,-8.0572 L 23.7625,-8.164 L 23.7319,-8.2708 L 23.7013,-8.3777 L 23.6706,-8.4845 L 23.64,-8.5913 L 23.6094,-8.6981 L 23.5788,-8.8049 L 23.5481,-8.9117 L 23.5175,-9.0185 L 23.4869,-9.1253 L 23.4562,-9.2321 L 23.4256,-9.3389 L 23.395,-9.4457 L 23.3644,-9.5525 L 23.3337,-9.6593 L 23.3031,-9.7661 L 23.2725,-9.873 L 23.2419,-9.9798 L 23.2112,-10.0866 L 23.1806,-10.1934 L 23.15,-10.3002 L 23.1194,-10.407 L 23.0887,-10.5138 L 23.0581,-10.6206 L 23.0275,-10.7274 L 22.9969,-10.8342 L 22.9662,-10.941 L 22.9356,-11.0478 L 22.905,-11.1546 L 22.8743,-11.2614 L 22.8437,-11.3682 L 22.8131,-11.4751 L 22.7825,-11.5819 L 22.7518,-11.6887 L 22.7212,-11.7955 L 22.6906,-11.9023 L 22.66,-12.0091 L 22.6293,-12.1159 L 22.5987,-12.2227 L 22.5681,-12.3295 L 22.5375,-12.4363 L 22.5068,-12.5431 L 22.4762,-12.6499 L 22.4456,-12.7567 L 22.415,-12.8635 L 22.3843,-12.9703 L 22.3537,-13.0772 L 22.3231,-13.184 L 22.2924,-13.2908 L 22.2618,-13.3976 L 22.2312,-13.5044 L 22.2006,-13.6112 L 22.1699,-13.718 L 22.1393,-13.8248 L 22.1087,-13.9316 L 22.0781,-14.0384 L 22.0474,-14.1452 L 22.0168,-14.252 L 21.9862,-14.3588 L 21.9556,-14.4656 L 21.9249,-14.5725 L 21.8943,-14.6793 L 21.8637,-14.7861" />
      <path d="M 18.7876,13.904 L 18.8304,13.9163 L 18.8731,13.9285 L 18.9158,13.9408 L 18.9585,13.953 L 19.0013,13.9653 L 19.044,13.9775 L 19.0867,13.9898 L 19.1294,14.002 L 19.1721,14.0143 L 19.2149,14.0265 L 19.2576,14.0388 L 19.3003,14.051 L 19.343,14.0633 L 19.3858,14.0755 L 19.4285,14.0878 L 19.4712,14.1 L 19.5139,14.1123 L 19.5566,14.1245 L 19.5994,14.1368 L 19.6421,14.149 L 19.6848,14.1613 L 19.7275,14.1735 L 19.7703,14.1858 L 19.813,14.198 L 19.8557,14.2103 L 19.8984,14.2225 L 19.9412,14.2348 L 19.9839,14.247 L 20.0266,14.2593 L 20.0693,14.2715 L 20.112,14.2838 L 20.1548,14.296 L 20.1975,14.3083 L 20.2402,14.3205 L 20.2829,14.3328 L 20.3257,14.345 L 20.3684,14.3573 L 20.4111,14.3695 L 20.4538,14.3818 L 20.4965,14.394 L 20.5393,14.4063 L 20.582,14.4186 L 20.6247,14.4308 L 20.6674,14.4431 L 20.7102,14.4553 L 20.7529,14.4676 L 20.7956,14.4798 L 20.8383,14.4921 L 20.8811,14.5043 L 20.9238,14.5166 L 20.9665,14.5288 L 21.0092,14.5411 L 21.0519,14.5533 L 21.0947,14.5656 L 21.1374,14.5778 L 21.1801,14.5901 L 21.2228,14.6023 L 21.2656,14.6146 L 21.3083,14.6268 L 21.351,14.6391 L 21.3937,14.6513 L 21.4364,14.6636 L 21.4792,14.6758 L 21.5219,14.6881 L 21.5646,14.7003 L 21.6073,14.7126 L 21.6501,14.7248 L 21.6928,14.7371 L 21.7355,14.7493 L 21.7782,14.7616 L 21.821,14.7738 L 21.8637,14.7861" />
      <path d="M 18.7876,-13.904 L 18.8304,-13.9163 L 18.8731,-13.9285 L 18.9158,-13.9408 L 18.9585,-13.953 L 19.0013,-13.9653 L 19.044,-13.9775 L 19.0867,-13.9898 L 19.1294,-14.002 L 19.1721,-14.0143 L 19.2149,-14.0265 L 19.2576,-14.0388 L 19.3003,-14.051 L 19.343,-14.0633 L 19.3858,-14.0755 L 19.4285,-14.0878 L 19.4712,-14.1 L 19.5139,-14.1123 L 19.5566,-14.1245 L 19.5994,-14.1368 L 19.6421,-14.149 L 19.6848,-14.1613 L 19.7275,-14.1735 L 19.7703,-14.1858 L 19.813,-14.198 L 19.8557,-14.2103 L 19.8984,-14.2225 L 19.9412,-14.2348 L 19.9839,-14.247 L 20.0266,-14.2593 L 20.0693,-14.2715 L 20.112,-14.2838 L 20.1548,-14.296 L 20.1975,-14.3083 L 20.2402,-14.3205 L 20.2829,-14.3328 L 20.3257,-14.345 L 20.3684,-14.3573 L 20.4111,-14.3695 L 20.4538,-14.3818 L 20.4965,-14.394 L 20.5393,-14.4063 L 20.582,-14.4186 L 20.6247,-14.4308 L 20.6674,-14.4431 L 20.7102,-14.4553 L 20.7529,-14.4676 L 20.7956,-14.4798 L 20.8383,-14.4921 L 20.8811,-14.5043 L 20.9238,-14.5166 L 20.9665,-14.5288 L 21.0092,-14.5411 L 21.0519,-14.5533 L 21.0947,-14.5656 L 21.1374,-14.5778 L 21.1801,-14.5901 L 21.2228,-14.6023 L 21.2656,-14.6146 L 21.3083,-14.6268 L 21.351,-14.6391 L 21.3937,-14.6513 L 21.4364,-14.6636 L 21.4792,-14.6758 L 21.5219,-14.6881 L 21.5646,-14.7003 L 21.6073,-14.7126 L 21.6501,-14.7248 L 21.6928,-14.7371 L 21.7355,-14.7493 L 21.7782,-14.7616 L 21.821,-14.7738 L 21.8637,-14.7861" />
    </g>
    <g fill="none" stroke="rgb(110,110,110)" stroke-width="0.3" id="Hidden" stroke-dasharray="3.6 0.9">
      <path d="M 7.096,0.0 L 7.069,0.6185 L 6.9882,1.2322 L 6.8542,1.8366 L 6.668,2.427 L 6.4311,2.9989 L 6.1453,3.548 L 5.8127,4.0701 L 5.4358,4.5612 L 5.0176,5.0176 L 4.5612,5.4358 L 4.0701,5.8127 L 3.548,6.1453 L 2.9989,6.4311 L 2.427,6.668 L 1.8366,6.8542 L 1.2322,6.9882 L 0.6185,7.069 L 0.0,7.096 L -0.6185,7.069 L -1.2322,6.9882 L -1.8366,6.8542 L -2.427,6.668 L -2.9989,6.4311 L -3.548,6.1453 L -4.0701,5.8127 L -4.5612,5.4358 L -5.0176,5.0176 L -5.4358,4.5612 L -5.8127,4.0701 L -6.1453,3.548 L -6.4311,2.9989 L -6.668,2.427 L -6.8542,1.8366 L -6.9882,1.2322 L -7.069,0.6185 L -7.096,0.0 L -7.069,-0.6185 L -6.9882,-1.2322 L -6.8542,-1.8366 L -6.668,-2.427 L -6.4311,-2.9989 L -6.1453,-3.548 L -5.8127,-4.0701 L -5.4358,-4.5612 L -5.0176,-5.0176 L -4.5612,-5.4358 L -4.0701,-5.8127 L -3.548,-6.1453 L -2.9989,-6.4311 L -2.427,-6.668 L -1.8366,-6.8542 L -1.2322,-6.9882 L -0.6185,-7.069 L -0.0,-7.096 L 0.6185,-7.069 L 1.2322,-6.9882 L 1.8366,-6.8542 L 2.427,-6.668 L 2.9989,-6.4311 L 3.548,-6.1453 L 4.0701,-5.8127 L 4.5612,-5.4358 L 5.0176,-5.0176 L 5.4358,-4.5612 L 5.8127,-4.0701 L 6.1453,-3.548 L 6.4311,-2.9989 L 6.668,-2.427 L 6.8542,-1.8366 L 6.9882,-1.2322 L 7.069,-0.6185 L 7.096,-0.0" />
      <path d="M 20.9927,6.2139 L 20.9929,6.0413 L 20.993,5.8687 L 20.993,5.6961 L 20.9931,5.5235 L 20.9931,5.3509 L 20.9931,5.1783 L 20.9932,5.0057 L 20.9932,4.8331 L 20.9932,4.6604 L 20.9932,4.4878 L 20.9932,4.3152 L 20.9933,4.1426 L 20.9933,3.97 L 20.9933,3.7974 L 20.9933,3.6248 L 20.9933,3.4522 L 20.9933,3.2796 L 20.9933,3.107 L 20.9934,2.9344 L 20.9934,2.7617 L 20.9934,2.5891 L 20.9934,2.4165 L 20.9934,2.2439 L 20.9934,2.0713 L 20.9934,1.8987 L 20.9934,1.7261 L 20.9934,1.5535 L 20.9934,1.3809 L 20.9934,1.2083 L 20.9934,1.0357 L 20.9934,0.863 L 20.9934,0.6904 L 20.9934,0.5178 L 20.9934,0.3452 L 20.9934,0.1726 L 20.9934,0.0 L 20.9934,-0.1726 L 20.9934,-0.3452 L 20.9934,-0.5178 L 20.9934,-0.6904 L 20.9934,-0.863 L 20.9934,-1.0357 L 20.9934,-1.2083 L 20.9934,-1.3809 L 20.9934,-1.5535 L 20.9934,-1.7261 L 20.9934,-1.8987 L 20.9934,-2.0713 L 20.9934,-2.2439 L 20.9934,-2.4165 L 20.9934,-2.5891 L 20.9934,-2.7617 L 20.9934,-2.9344 L 20.9933,-3.107 L 20.9933,-3.2796 L 20.9933,-3.4522 L 20.9933,-3.6248 L 20.9933,-3.7974 L 20.9933,-3.97 L 20.9933,-4.1426 L 20.9932,-4.3152 L 20.9932,-4.4878 L 20.9932,-4.6604 L 20.9932,-4.8331 L 20.9932,-5.0057 L 20.9931,-5.1783 L 20.9931,-5.3509 L 20.9931,-5.5235 L 20.993,-5.6961 L 20.993,-5.8687 L 20.9929,-6.0413 L 20.9927,-6.2139" />
      <path d="M 20.9927,-6.2139 L 20.9926,-6.0413 L 20.9925,-5.8687 L 20.9925,-5.6961 L 20.9924,-5.5235 L 20.9924,-5.3509 L 20.9923,-5.1783 L 20.9923,-5.0057 L 20.9923,-4.8331 L 20.9923,-4.6605 L 20.9923,-4.4878 L 20.9922,-4.3152 L 20.9922,-4.1426 L 20.9922,-3.97 L 20.9922,-3.7974 L 20.9922,-3.6248 L 20.9922,-3.4522 L 20.9921,-3.2796 L 20.9921,-3.107 L 20.9921,-2.9344 L 20.9921,-2.7617 L 20.9921,-2.5891 L 20.9921,-2.4165 L 20.9921,-2.2439 L 20.9921,-2.0713 L 20.9921,-1.8987 L 20.9921,-1.7261 L 20.9921,-1.5535 L 20.9921,-1.3809 L 20.992,-1.2083 L 20.992,-1.0357 L 20.992,-0.863 L 20.992,-0.6904 L 20.992,-0.5178 L 20.992,-0.3452 L 20.992,-0.1726 L 20.992,0.0 L 20.992,0.1726 L 20.992,0.3452 L 20.992,0.5178 L 20.992,0.6904 L 20.992,0.863 L 20.992,1.0357 L 20.992,1.2083 L 20.9921,1.3809 L 20.9921,1.5535 L 20.9921,1.7261 L 20.9921,1.8987 L 20.9921,2.0713 L 20.9921,2.2439 L 20.9921,2.4165 L 20.9921,2.5891 L 20.9921,2.7617 L 20.9921,2.9344 L 20.9921,3.107 L 20.9921,3.2796 L 20.9922,3.4522 L 20.9922,3.6248 L 20.9922,3.7974 L 20.9922,3.97 L 20.9922,4.1426 L 20.9922,4.3152 L 20.9923,4.4878 L 20.9923,4.6605 L 20.9923,4.8331 L 20.9923,5.0057 L 20.9923,5.1783 L 20.9924,5.3509 L 20.9924,5.5235 L 20.9925,5.6961 L 20.9925,5.8687 L 20.9926,6.0413 L 20.9927,6.2139" />
      <path d="M 21.8637,14.7861 L 21.8641,14.3753 L 21.8642,13.9646 L 21.8643,13.5539 L 21.8644,13.1432 L 21.8645,12.7324 L 21.8646,12.3217 L 21.8647,11.911 L 21.8647,11.5003 L 21.8648,11.0895 L 21.8648,10.6788 L 21.8649,10.2681 L 21.8649,9.8574 L 21.865,9.4467 L 21.865,9.0359 L 21.865,8.6252 L 21.8651,8.2145 L 21.8651,7.8038 L 21.8651,7.393 L 21.8651,6.9823 L 21.8652,6.5716 L 21.8652,6.1609 L 21.8652,5.7501 L 21.8652,5.3394 L 21.8653,4.9287 L 21.8653,4.518 L 21.8653,4.1072 L 21.8653,3.6965 L 21.8653,3.2858 L 21.8653,2.8751 L 21.8653,2.4643 L 21.8653,2.0536 L 21.8653,1.6429 L 21.8653,1.2322 L 21.8653,0.8214 L 21.8653,0.4107 L 21.8653,0.0 L 21.8653,-0.4107 L 21.8653,-0.8214 L 21.8653,-1.2322 L 21.8653,-1.6429 L 21.8653,-2.0536 L 21.8653,-2.4643 L 21.8653,-2.8751 L 21.8653,-3.2858 L 21.8653,-3.6965 L 21.8653,-4.1072 L 21.8653,-4.518 L 21.8653,-4.9287 L 21.8652,-5.3394 L 21.8652,-5.7501 L 21.8652,-6.1609 L 21.8652,-6.5716 L 21.8651,-6.9823 L 21.8651,-7.393 L 21.8651,-7.8038 L 21.8651,-8.2145 L 21.865,-8.6252 L 21.865,-9.0359 L 21.865,-9.4467 L 21.8649,-9.8574 L 21.8649,-10.2681 L 21.8648,-10.6788 L 21.8648,-11.0895 L 21.8647,-11.5003 L 21.8647,-11.911 L 21.8646,-12.3217 L 21.8645,-12.7324 L 21.8644,-13.1432 L 21.8643,-13.5539 L 21.8642,-13.9646 L 21.8641,-14.3753 L 21.8637,-14.7861" />
      <path d="M 18.7876,13.904 L 18.788,13.5178 L 18.7882,13.1316 L 18.7883,12.7454 L 18.7884,12.3591 L 18.7884,11.9729 L 18.7885,11.5867 L 18.7886,11.2005 L 18.7886,10.8142 L 18.7887,10.428 L 18.7887,10.0418 L 18.7888,9.6556 L 18.7888,9.2694 L 18.7888,8.8831 L 18.7889,8.4969 L 18.7889,8.1107 L 18.7889,7.7245 L 18.789,7.3382 L 18.789,6.952 L 18.789,6.5658 L 18.789,6.1796 L 18.7891,5.7933 L 18.7891,5.4071 L 18.7891,5.0209 L 18.7891,4.6347 L 18.7891,4.2485 L 18.7891,3.8622 L 18.7892,3.476 L 18.7892,3.0898 L 18.7892,2.7036 L 18.7892,2.3173 L 18.7892,1.9311 L 18.7892,1.5449 L 18.7892,1.1587 L 18.7892,0.7724 L 18.7892,0.3862 L 18.7892,0.0 L 18.7892,-0.3862 L 18.7892,-0.7724 L 18.7892,-1.1587 L 18.7892,-1.5449 L 18.7892,-1.9311 L 18.7892,-2.3173 L 18.7892,-2.7036 L 18.7892,-3.0898 L 18.7892,-3.476 L 18.7891,-3.8622 L 18.7891,-4.2485 L 18.7891,-4.6347 L 18.7891,-5.0209 L 18.7891,-5.4071 L 18.7891,-5.7933 L 18.789,-6.1796 L 18.789,-6.5658 L 18.789,-6.952 L 18.789,-7.3382 L 18.7889,-7.7245 L 18.7889,-8.1107 L 18.7889,-8.4969 L 18.7888,-8.8831 L 18.7888,-9.2694 L 18.7888,-9.6556 L 18.7887,-10.0418 L 18.7887,-10.428 L 18.7886,-10.8142 L 18.7886,-11.2005 L 18.7885,-11.5867 L 18.7884,-11.9729 L 18.7884,-12.3591 L 18.7883,-12.7454 L 18.7882,-13.1316 L 18.788,-13.5178 L 18.7876,-13.904" />
      <path d="M 20.9927,6.2139 L 21.0355,6.2262 L 21.0782,6.2384 L 21.1209,6.2507 L 21.1636,6.2629 L 21.2064,6.2752 L 21.2491,6.2874 L 21.2918,6.2997 L 21.3345,6.3119 L 21.3772,6.3242 L 21.42,6.3364 L 21.4627,6.3487 L 21.5054,6.3609 L 21.5481,6.3732 L 21.5909,6.3854 L 21.6336,6.3977 L 21.6763,6.4099 L 21.719,6.4222 L 21.7617,6.4344 L 21.8045,6.4467 L 21.8472,6.4589 L 21.8899,6.4712 L 21.9326,6.4834 L 21.9754,6.4957 L 22.0181,6.5079 L 22.0608,6.5202 L 22.1035,6.5324 L 22.1463,6.5447 L 22.189,6.5569 L 22.2317,6.5692 L 22.2744,6.5814 L 22.3171,6.5937 L 22.3599,6.606 L 22.4026,6.6182 L 22.4453,6.6305 L 22.488,6.6427 L 22.5308,6.655 L 22.5735,6.6672 L 22.6162,6.6795 L 22.6589,6.6917 L 22.7016,6.704 L 22.7444,6.7162 L 22.7871,6.7285 L 22.8298,6.7407 L 22.8725,6.753 L 22.9153,6.7652 L 22.958,6.7775 L 23.0007,6.7897 L 23.0434,6.802 L 23.0862,6.8142 L 23.1289,6.8265 L 23.1716,6.8387 L 23.2143,6.851 L 23.257,6.8632 L 23.2998,6.8755 L 23.3425,6.8877 L 23.3852,6.9 L 23.4279,6.9122 L 23.4707,6.9245 L 23.5134,6.9367 L 23.5561,6.949 L 23.5988,6.9612 L 23.6415,6.9735 L 23.6843,6.9857 L 23.727,6.998 L 23.7697,7.0102 L 23.8124,7.0225 L 23.8552,7.0347 L 23.8979,7.047 L 23.9406,7.0592 L 23.9833,7.0715 L 24.0261,7.0837 L 24.0688,7.096" />
      <path d="M 20.9927,-6.2139 L 21.0355,-6.2262 L 21.0782,-6.2384 L 21.1209,-6.2507 L 21.1636,-6.2629 L 21.2064,-6.2752 L 21.2491,-6.2874 L 21.2918,-6.2997 L 21.3345,-6.3119 L 21.3772,-6.3242 L 21.42,-6.3364 L 21.4627,-6.3487 L 21.5054,-6.3609 L 21.5481,-6.3732 L 21.5909,-6.3854 L 21.6336,-6.3977 L 21.6763,-6.4099 L 21.719,-6.4222 L 21.7617,-6.4344 L 21.8045,-6.4467 L 21.8472,-6.4589 L 21.8899,-6.4712 L 21.9326,-6.4834 L 21.9754,-6.4957 L 22.0181,-6.5079 L 22.0608,-6.5202 L 22.1035,-6.5324 L 22.1463,-6.5447 L 22.189,-6.5569 L 22.2317,-6.5692 L 22.2744,-6.5814 L 22.3171,-6.5937 L 22.3599,-6.606 L 22.4026,-6.6182 L 22.4453,-6.6305 L 22.488,-6.6427 L 22.5308,-6.655 L 22.5735,-6.6672 L 22.6162,-6.6795 L 22.6589,-6.6917 L 22.7016,-6.704 L 22.7444,-6.7162 L 22.7871,-6.7285 L 22.8298,-6.7407 L 22.8725,-6.753 L 22.9153,-6.7652 L 22.958,-6.7775 L 23.0007,-6.7897 L 23.0434,-6.802 L 23.0862,-6.8142 L 23.1289,-6.8265 L 23.1716,-6.8387 L 23.2143,-6.851 L 23.257,-6.8632 L 23.2998,-6.8755 L 23.3425,-6.8877 L 23.3852,-6.9 L 23.4279,-6.9122 L 23.4707,-6.9245 L 23.5134,-6.9367 L 23.5561,-6.949 L 23.5988,-6.9612 L 23.6415,-6.9735 L 23.6843,-6.9857 L 23.727,-6.998 L 23.7697,-7.0102 L 23.8124,-7.0225 L 23.8552,-7.0347 L 23.8979,-7.047 L 23.9406,-7.0592 L 23.9833,-7.0715 L 24.0261,-7.0837 L 24.0688,-7.096" />
      <path d="M 20.9927,6.2139 L 20.9621,6.3207 L 20.9315,6.4275 L 20.9009,6.5344 L 20.8702,6.6412 L 20.8396,6.748 L 20.809,6.8548 L 20.7784,6.9616 L 20.7477,7.0684 L 20.7171,7.1752 L 20.6865,7.282 L 20.6558,7.3888 L 20.6252,7.4956 L 20.5946,7.6024 L 20.564,7.7092 L 20.5333,7.816 L 20.5027,7.9228 L 20.4721,8.0296 L 20.4415,8.1365 L 20.4108,8.2433 L 20.3802,8.3501 L 20.3496,8.4569 L 20.319,8.5637 L 20.2883,8.6705 L 20.2577,8.7773 L 20.2271,8.8841 L 20.1965,8.9909 L 20.1658,9.0977 L 20.1352,9.2045 L 20.1046,9.3113 L 20.0739,9.4181 L 20.0433,9.5249 L 20.0127,9.6318 L 19.9821,9.7386 L 19.9514,9.8454 L 19.9208,9.9522 L 19.8902,10.059 L 19.8596,10.1658 L 19.8289,10.2726 L 19.7983,10.3794 L 19.7677,10.4862 L 19.7371,10.593 L 19.7064,10.6998 L 19.6758,10.8066 L 19.6452,10.9134 L 19.6146,11.0202 L 19.5839,11.127 L 19.5533,11.2339 L 19.5227,11.3407 L 19.492,11.4475 L 19.4614,11.5543 L 19.4308,11.6611 L 19.4002,11.7679 L 19.3695,11.8747 L 19.3389,11.9815 L 19.3083,12.0883 L 19.2777,12.1951 L 19.247,12.3019 L 19.2164,12.4087 L 19.1858,12.5155 L 19.1552,12.6223 L 19.1245,12.7292 L 19.0939,12.836 L 19.0633,12.9428 L 19.0326,13.0496 L 19.002,13.1564 L 18.9714,13.2632 L 18.9408,13.37 L 18.9101,13.4768 L 18.8795,13.5836 L 18.8489,13.6904 L 18.8183,13.7972 L 18.7876,13.904" />
      <path d="M 20.9927,-6.2139 L 20.9621,-6.3207 L 20.9315,-6.4275 L 20.9009,-6.5344 L 20.8702,-6.6412 L 20.8396,-6.748 L 20.809,-6.8548 L 20.7784,-6.9616 L 20.7477,-7.0684 L 20.7171,-7.1752 L 20.6865,-7.282 L 20.6558,-7.3888 L 20.6252,-7.4956 L 20.5946,-7.6024 L 20.564,-7.7092 L 20.5333,-7.816 L 20.5027,-7.9228 L 20.4721,-8.0296 L 20.4415,-8.1365 L 20.4108,-8.2433 L 20.3802,-8.3501 L 20.3496,-8.4569 L 20.319,-8.5637 L 20.2883,-8.6705 L 20.2577,-8.7773 L 20.2271,-8.8841 L 20.1965,-8.9909 L 20.1658,-9.0977 L 20.1352,-9.2045 L 20.1046,-9.3113 L 20.0739,-9.4181 L 20.0433,-9.5249 L 20.0127,-9.6318 L 19.9821,-9.7386 L 19.9514,-9.8454 L 19.9208,-9.9522 L 19.8902,-10.059 L 19.8596,-10.1658 L 19.8289,-10.2726 L 19.7983,-10.3794 L 19.7677,-10.4862 L 19.7371,-10.593 L 19.7064,-10.6998 L 19.6758,-10.8066 L 19.6452,-10.9134 L 19.6146,-11.0202 L 19.5839,-11.127 L 19.5533,-11.2339 L 19.5227,-11.3407 L 19.492,-11.4475 L 19.4614,-11.5543 L 19.4308,-11.6611 L 19.4002,-11.7679 L 19.3695,-11.8747 L 19.3389,-11.9815 L 19.3083,-12.0883 L 19.2777,-12.1951 L 19.247,-12.3019 L 19.2164,-12.4087 L 19.1858,-12.5155 L 19.1552,-12.6223 L 19.1245,-12.7292 L 19.0939,-12.836 L 19.0633,-12.9428 L 19.0326,-13.0496 L 19.002,-13.1564 L 18.9714,-13.2632 L 18.9408,-13.37 L 18.9101,-13.4768 L 18.8795,-13.5836 L 18.8489,-13.6904 L 18.8183,-13.7972 L 18.7876,-13.904" />
    </g>
    <g fill="none" stroke="rgb(0,0,0)" stroke-width="0.2" id="Center" stroke-dasharray="6.35 1.27 1.27 1.27">
      <line x1="-0.0" y1="0.0" x2="-17.1561" y2="0.0" />
      <line x1="-0.0" y1="0.0" x2="17.1561" y2="0.0" />
      <line x1="-0.0" y1="0.0" x2="-0.0" y2="-17.1561" />
      <line x1="-0.0" y1="0.0" x2="-0.0" y2="17.1561" />
      <line x1="21.4278" y1="-0.0" x2="16.4161" y2="-0.0" />
      <line x1="21.4278" y1="-0.0" x2="26.4396" y2="-0.0" />
    </g>
  </g>
</svg>