<?xml version='1.0' encoding='utf-8'?>
<svg width="40.8717mm" height="32.24mm" viewBox="-16.12 -16.12 40.8717 32.24" version="1.1" xmlns="http://www.w3.org/2000/svg">
  <g transform="scale(1,-1)" stroke-linecap="round">
    <g fill="none" stroke="rgb(0,0,0)" stroke-width="0.4" id="Visible">
      <path d="M -0.0,6.5 L -0.5665,6.4753 L -1.1287,6.4013 L -1.6823,6.2785 L -2.2231,6.108 L -2.747,5.891 L -3.25,5.6292 L -3.7282,5.3245 L -4.1781,4.9793 L -4.5962,4.5962 L -4.9793,4.1781 L -5.3245,3.7282 L -5.6292,3.25 L -5.891,2.747 L -6.108,2.2231 L -6.2785,1.6823 L -6.4013,1.1287 L -6.4753,0.5665 L -6.5,-0.0 L -6.4753,-0.5665 L -6.4013,-1.1287 L -6.2785,-1.6823 L -6.108,-2.2231 L -5.891,-2.747 L -5.6292,-3.25 L -5.3245,-3.7282 L -4.9793,-4.1781 L -4.5962,-4.5962 L -4.1781,-4.9793 L -3.7282,-5.3245 L -3.25,-5.6292 L -2.747,-5.891 L -2.2231,-6.108 L -1.6823,-6.2785 L -1.1287,-6.4013 L -0.5665,-6.4753 L 0.0,-6.5 L 0.5665,-6.4753 L 1.1287,-6.4013 L 1.6823,-6.2785 L 2.2231,-6.108 L 2.747,-5.891 L 3.25,-5.6292 L 3.7282,-5.3245 L 4.1781,-4.9793 L 4.5962,-4.5962 L 4.9793,-4.1781 L 5.3245,-3.7282 L 5.6292,-3.25 L 5.891,-2.747 L 6.108,-2.2231 L 6.2785,-1.6823 L 6.4013,-1.1287 L 6.4753,-0.5665 L 6.5,0.0 L 6.4753,0.5665 L 6.4013,1.1287 L 6.2785,1.6823 L 6.108,2.2231 L 5.891,2.747 L 5.6292,3.25 L 5.3245,3.7282 L 4.9793,4.1781 L 4.5962,4.5962 L 4.1781,4.9793 L 3.7282,5.3245 L 3.25,5.6292 L 2.747,5.891 L 2.2231,6.108 L 1.6823,6.2785 L 1.1287,6.4013 L 0.5665,6.4753 L -0.0,6.5" />
      <path d="M -0.0,12.0 L -1.0459,11.9543 L -2.0838,11.8177 L -3.1058,11.5911 L -4.1042,11.2763 L -5.0714,10.8757 L -6.0,10.3923 L -6.8829,9.8298 L -7.7135,9.1925 L -8.4853,8.4853 L -9.1925,7.7135 L -9.8298,6.8829 L -10.3923,6.0 L -10.8757,5.0714 L -11.2763,4.1042 L -11.5911,3.1058 L -11.8177,2.0838 L -11.9543,1.0459 L -12.0,0.0 L -11.9543,-1.0459 L -11.8177,-2.0838 L -11.5911,-3.1058 L -11.2763,-4.1042 L -10.8757,-5.0714 L -10.3923,-6.0 L -9.8298,-6.8829 L -9.1925,-7.7135 L -8.4853,-8.4853 L -7.7135,-9.1925 L -6.8829,-9.8298 L -6.0,-10.3923 L -5.0714,-10.8757 L -4.1042,-11.2763 L -3.1058,-11.5911 L -2.0838,-11.8177 L -1.0459,-11.9543 L -0.0,-12.0 L 1.0459,-11.9543 L 2.0838,-11.8177 L 3.1058,-11.5911 L 4.1042,-11.2763 L 5.0714,-10.8757 L 6.0,-10.3923 L 6.8829,-9.8298 L 7.7135,-9.1925 L 8.4853,-8.4853 L 9.1925,-7.7135 L 9.8298,-6.8829 L 10.3923,-6.0 L 10.8757,-5.0714 L 11.2763,-4.1042 L 11.5911,-3.1058 L 11.8177,-2.0838 L 11.9543,-1.0459 L 12.0,-0.0 L 11.9543,1.0459 L 11.8177,2.0838 L 11.5911,3.1058 L 11.2763,4.1042 L 10.8757,5.0714 L 10.3923,6.0 L 9.8298,6.8829 L 9.1925,7.7135 L 8.4853,8.4853 L 7.7135,9.1925 L 6.8829,9.8298 L 6.0,10.3923 L 5.0714,10.8757 L 4.1042,11.2763 L 3.1058,11.5911 L 2.0838,11.8177 L 1.0459,11.9543 L 0.0,12.0" />
      <path d="M 16.0206,6.5 L 16.018,6.3195 L 16.0169,6.1389 L 16.0161,5.9584 L 16.0155,5.7778 L 16.0149,5.5973 L 16.0144,5.4167 L 16.014,5.2362 L 16.0136,5.0556 L 16.0132,4.875 L 16.0129,4.6945 L 16.0125,4.5139 L 16.0123,4.3334 L 16.012,4.1528 L 16.0117,3.9723 L 16.0115,3.7917 L 16.0113,3.6111 L 16.0111,3.4306 L 16.0109,3.25 L 16.0107,3.0695 L 16.0106,2.8889 L 16.0104,2.7084 L 16.0103,2.5278 L 16.0102,2.3472 L 16.0101,2.1667 L 16.01,1.9861 L 16.0099,1.8056 L 16.0098,1.625 L 16.0097,1.4445 L 16.0096,1.2639 L 16.0096,1.0833 L 16.0095,0.9028 L 16.0095,0.7222 L 16.0095,0.5417 L 16.0094,0.3611 L 16.0094,0.1806 L 16.0094,0.0 L 16.0094,-0.1806 L 16.0094,-0.3611 L 16.0095,-0.5417 L 16.0095,-0.7222 L 16.0095,-0.9028 L 16.0096,-1.0833 L 16.0096,-1.2639 L 16.0097,-1.4444 L 16.0098,-1.625 L 16.0099,-1.8056 L 16.01,-1.9861 L 16.0101,-2.1667 L 16.0102,-2.3472 L 16.0103,-2.5278 L 16.0104,-2.7083 L 16.0106,-2.8889 L 16.0107,-3.0695 L 16.0109,-3.25 L 16.0111,-3.4306 L 16.0113,-3.6111 L 16.0115,-3.7917 L 16.0117,-3.9722 L 16.012,-4.1528 L 16.0123,-4.3334 L 16.0125,-4.5139 L 16.0129,-4.6945 L 16.0132,-4.875 L 16.0136,-5.0556 L 16.014,-5.2361 L 16.0144,-5.4167 L 16.0149,-5.5973 L 16.0155,-5.7778 L 16.0161,-5.9584 L 16.0169,-6.1389 L 16.018,-6.3195 L 16.0206,-6.5" />
      <path d="M 16.0206,-6.5 L 16.0232,-6.3195 L 16.0242,-6.1389 L 16.025,-5.9584 L 16.0257,-5.7778 L 16.0262,-5.5973 L 16.0267,-5.4167 L 16.0272,-5.2362 L 16.0276,-5.0556 L 16.0279,-4.875 L 16.0283,-4.6945 L 16.0286,-4.5139 L 16.0289,-4.3334 L 16.0291,-4.1528 L 16.0294,-3.9723 L 16.0296,-3.7917 L 16.0298,-3.6111 L 16.03,-3.4306 L 16.0302,-3.25 L 16.0304,-3.0695 L 16.0305,-2.8889 L 16.0307,-2.7084 L 16.0308,-2.5278 L 16.0309,-2.3472 L 16.0311,-2.1667 L 16.0312,-1.9861 L 16.0313,-1.8056 L 16.0313,-1.625 L 16.0314,-1.4445 L 16.0315,-1.2639 L 16.0315,-1.0833 L 16.0316,-0.9028 L 16.0316,-0.7222 L 16.0317,-0.5417 L 16.0317,-0.3611 L 16.0317,-0.1806 L 16.0317,0.0 L 16.0317,0.1806 L 16.0317,0.3611 L 16.0317,0.5417 L 16.0316,0.7222 L 16.0316,0.9028 L 16.0315,1.0833 L 16.0315,1.2639 L 16.0314,1.4444 L 16.0313,1.625 L 16.0313,1.8056 L 16.0312,1.9861 L 16.0311,2.1667 L 16.0309,2.3472 L 16.0308,2.5278 L 16.0307,2.7083 L 16.0305,2.8889 L 16.0304,3.0695 L 16.0302,3.25 L 16.03,3.4306 L 16.0298,3.6111 L 16.0296,3.7917 L 16.0294,3.9722 L 16.0291,4.1528 L 16.0289,4.3334 L 16.0286,4.5139 L 16.0283,4.6945 L 16.0279,4.875 L 16.0276,5.0556 L 16.0272,5.2361 L 16.0267,5.4167 L 16.0262,5.5973 L 16.0257,5.7778 L 16.025,5.9584 L 16.0242,6.1389 L 16.0232,6.3195 L 16.0206,6.5" />
      <path d="M 16.0206,12.0 L 16.0158,11.6668 L 16.0138,11.3334 L 16.0123,11.0001 L 16.0111,10.6668 L 16.0101,10.3334 L 16.0092,10.0001 L 16.0084,9.6668 L 16.0076,9.3334 L 16.007,9.0001 L 16.0063,8.6667 L 16.0058,8.3334 L 16.0052,8.0001 L 16.0047,7.6667 L 16.0043,7.3334 L 16.0039,7.0001 L 16.0035,6.6667 L 16.0031,6.3334 L 16.0028,6.0001 L 16.0024,5.6667 L 16.0021,5.3334 L 16.0019,5.0 L 16.0016,4.6667 L 16.0014,4.3334 L 16.0012,4.0 L 16.001,3.6667 L 16.0008,3.3334 L 16.0007,3.0 L 16.0005,2.6667 L 16.0004,2.3334 L 16.0003,2.0 L 16.0002,1.6667 L 16.0001,1.3334 L 16.0001,1.0 L 16.0,0.6667 L 16.0,0.3333 L 16.0,0.0 L 16.0,-0.3333 L 16.0,-0.6667 L 16.0001,-1.0 L 16.0001,-1.3333 L 16.0002,-1.6667 L 16.0003,-2.0 L 16.0004,-2.3333 L 16.0005,-2.6667 L 16.0007,-3.0 L 16.0008,-3.3333 L 16.001,-3.6667 L 16.0012,-4.0 L 16.0014,-4.3334 L 16.0016,-4.6667 L 16.0019,-5.0 L 16.0021,-5.3334 L 16.0024,-5.6667 L 16.0028,-6.0 L 16.0031,-6.3334 L 16.0035,-6.6667 L 16.0039,-7.0 L 16.0043,-7.3334 L 16.0047,-7.6667 L 16.0052,-8.0 L 16.0058,-8.3334 L 16.0063,-8.6667 L 16.007,-9.0 L 16.0076,-9.3334 L 16.0084,-9.6667 L 16.0092,-10.0001 L 16.0101,-10.3334 L 16.0111,-10.6667 L 16.0123,-11.0001 L 16.0138,-11.3334 L 16.0158,-11.6667 L 16.0206,-12.0" />
      <path d="M 16.0206,-12.0 L 16.0254,-11.6668 L 16.0273,-11.3334 L 16.0288,-11.0001 L 16.03,-10.6668 L 16.031,-10.3334 L 16.0319,-10.0001 L 16.0327,-9.6668 L 16.0335,-9.3334 L 16.0342,-9.0001 L 16.0348,-8.6667 L 16.0354,-8.3334 L 16.0359,-8.0001 L 16.0364,-7.6667 L 16.0368,-7.3334 L 16.0373,-7.0001 L 16.0377,-6.6667 L 16.038,-6.3334 L 16.0384,-6.0001 L 16.0387,-5.6667 L 16.039,-5.3334 L 16.0393,-5.0 L 16.0395,-4.6667 L 16.0397,-4.3334 L 16.0399,-4.0 L 16.0401,-3.6667 L 16.0403,-3.3334 L 16.0405,-3.0 L 16.0406,-2.6667 L 16.0407,-2.3334 L 16.0408,-2.0 L 16.0409,-1.6667 L 16.041,-1.3334 L 16.0411,-1.0 L 16.0411,-0.6667 L 16.0411,-0.3333 L 16.0411,0.0 L 16.0411,0.3333 L 16.0411,0.6667 L 16.0411,1.0 L 16.041,1.3333 L 16.0409,1.6667 L 16.0408,2.0 L 16.0407,2.3333 L 16.0406,2.6667 L 16.0405,3.0 L 16.0403,3.3333 L 16.0401,3.6667 L 16.0399,4.0 L 16.0397,4.3334 L 16.0395,4.6667 L 16.0393,5.0 L 16.039,5.3334 L 16.0387,5.6667 L 16.0384,6.0 L 16.038,6.3334 L 16.0377,6.6667 L 16.0373,7.0 L 16.0368,7.3334 L 16.0364,7.6667 L 16.0359,8.0 L 16.0354,8.3334 L 16.0348,8.6667 L 16.0342,9.0 L 16.0335,9.3334 L 16.0327,9.6667 L 16.0319,10.0001 L 16.031,10.3334 L 16.03,10.6667 L 16.0288,11.0001 L 16.0273,11.3334 L 16.0254,11.6667 L 16.0206,12.0" />
      <path d="M 18.5113,-12.0 L 18.5114,-12.0 L 18.5114,-11.9999 L 18.5114,-11.9998 L 18.5114,-11.9997" />
      <path d="M 18.5114,-11.9997 L 18.5161,-11.6665 L 18.5181,-11.3331 L 18.5195,-10.9998 L 18.5207,-10.6665 L 18.5217,-10.3332 L 18.5227,-9.9998 L 18.5235,-9.6665 L 18.5242,-9.3332 L 18.5249,-8.9999 L 18.5255,-8.6665 L 18.5261,-8.3332 L 18.5266,-7.9999 L 18.5271,-7.6666 L 18.5276,-7.3332 L 18.528,-6.9999 L 18.5284,-6.6666 L 18.5288,-6.3332 L 18.5291,-5.9999 L 18.5294,-5.6666 L 18.5297,-5.3333 L 18.53,-4.9999 L 18.5302,-4.6666 L 18.5305,-4.3333 L 18.5307,-3.9999 L 18.5309,-3.6666 L 18.531,-3.3333 L 18.5312,-3.0 L 18.5313,-2.6666 L 18.5315,-2.3333 L 18.5316,-2.0 L 18.5317,-1.6666 L 18.5317,-1.3333 L 18.5318,-1.0 L 18.5318,-0.6667 L 18.5318,-0.3333 L 18.5319,0.0 L 18.5318,0.3333 L 18.5318,0.6666 L 18.5318,1.0 L 18.5317,1.3333 L 18.5317,1.6666 L 18.5316,2.0 L 18.5315,2.3333 L 18.5313,2.6666 L 18.5312,2.9999 L 18.531,3.3333 L 18.5309,3.6666 L 18.5307,3.9999 L 18.5305,4.3333 L 18.5302,4.6666 L 18.53,4.9999 L 18.5297,5.3332 L 18.5294,5.6666 L 18.5291,5.9999 L 18.5288,6.3332 L 18.5284,6.6666 L 18.528,6.9999 L 18.5276,7.3332 L 18.5271,7.6665 L 18.5266,7.9999 L 18.5261,8.3332 L 18.5255,8.6665 L 18.5249,8.9998 L 18.5242,9.3332 L 18.5235,9.6665 L 18.5227,9.9998 L 18.5217,10.3332 L 18.5207,10.6665 L 18.5195,10.9998 L 18.5181,11.3331 L 18.5161,11.6665 L 18.5114,11.9997" />
      <path d="M 18.5114,11.9997 L 18.5114,11.9998 L 18.5114,11.9999 L 18.5114,12.0 L 18.5113,12.0" />
      <path d="M 16.0206,12.0 L 16.0552,12.0 L 16.0897,12.0 L 16.1243,12.0 L 16.1589,12.0 L 16.1935,12.0 L 16.2281,12.0 L 16.2627,12.0 L 16.2973,12.0 L 16.3319,12.0 L 16.3665,12.0 L 16.4011,12.0 L 16.4357,12.0 L 16.4703,12.0 L 16.5049,12.0 L 16.5395,12.0 L 16.5741,12.0 L 16.6087,12.0 L 16.6432,12.0 L 16.6778,12.0 L 16.7124,12.0 L 16.747,12.0 L 16.7816,12.0 L 16.8162,12.0 L 16.8508,12.0 L 16.8854,12.0 L 16.92,12.0 L 16.9546,12.0 L 16.9892,12.0 L 17.0238,12.0 L 17.0584,12.0 L 17.093,12.0 L 17.1276,12.0 L 17.1621,12.0 L 17.1967,12.0 L 17.2313,12.0 L 17.2659,12.0 L 17.3005,12.0 L 17.3351,12.0 L 17.3697,12.0 L 17.4043,12.0 L 17.4389,12.0 L 17.4735,12.0 L 17.5081,12.0 L 17.5427,12.0 L 17.5773,12.0 L 17.6119,12.0 L 17.6465,12.0 L 17.681,12.0 L 17.7156,12.0 L 17.7502,12.0 L 17.7848,12.0 L 17.8194,12.0 L 17.854,12.0 L 17.8886,12.0 L 17.9232,12.0 L 17.9578,12.0 L 17.9924,12.0 L 18.027,12.0 L 18.0616,12.0 L 18.0962,12.0 L 18.1308,12.0 L 18.1654,12.0 L 18.2,12.0 L 18.2345,12.0 L 18.2691,12.0 L 18.3037,12.0 L 18.3383,12.0 L 18.3729,12.0 L 18.4075,12.0 L 18.4421,12.0 L 18.4767,12.0 L 18.5113,12.0" />
      <path d="M 20.6206,-6.5 L 20.6232,-6.3194 L 20.6242,-6.1389 L 20.625,-5.9583 L 20.6257,-5.7778 L 20.6262,-5.5972 L 20.6267,-5.4167 L 20.6272,-5.2361 L 20.6276,-5.0556 L 20.6279,-4.875 L 20.6283,-4.6945 L 20.6286,-4.5139 L 20.6289,-4.3333 L 20.6291,-4.1528 L 20.6294,-3.9722 L 20.6296,-3.7917 L 20.6298,-3.6111 L 20.63,-3.4306 L 20.6302,-3.25 L 20.6304,-3.0695 L 20.6305,-2.8889 L 20.6307,-2.7083 L 20.6308,-2.5278 L 20.6309,-2.3472 L 20.6311,-2.1667 L 20.6312,-1.9861 L 20.6313,-1.8056 L 20.6313,-1.625 L 20.6314,-1.4445 L 20.6315,-1.2639 L 20.6315,-1.0833 L 20.6316,-0.9028 L 20.6316,-0.7222 L 20.6317,-0.5417 L 20.6317,-0.3611 L 20.6317,-0.1806 L 20.6317,0.0 L 20.6317,0.1806 L 20.6317,0.3611 L 20.6317,0.5417 L 20.6316,0.7222 L 20.6316,0.9028 L 20.6315,1.0833 L 20.6315,1.2639 L 20.6314,1.4444 L 20.6313,1.625 L 20.6313,1.8056 L 20.6312,1.9861 L 20.6311,2.1667 L 20.6309,2.3472 L 20.6308,2.5278 L 20.6307,2.7083 L 20.6305,2.8889 L 20.6304,3.0694 L 20.6302,3.25 L 20.63,3.4306 L 20.6298,3.6111 L 20.6296,3.7917 L 20.6294,3.9722 L 20.6291,4.1528 L 20.6289,4.3333 L 20.6286,4.5139 L 20.6283,4.6944 L 20.6279,4.875 L 20.6276,5.0556 L 20.6272,5.2361 L 20.6267,5.4167 L 20.6262,5.5972 L 20.6257,5.7778 L 20.625,5.9583 L 20.6242,6.1389 L 20.6232,6.3194 L 20.6206,6.5" />
      <path d="M 16.0206,-12.0 L 16.0552,-12.0 L 16.0897,-12.0 L 16.1243,-12.0 L 16.1589,-12.0 L 16.1935,-12.0 L 16.2281,-12.0 L 16.2627,-12.0 L 16.2973,-12.0 L 16.3319,-12.0 L 16.3665,-12.0 L 16.4011,-12.0 L 16.4357,-12.0 L 16.4703,-12.0 L 16.5049,-12.0 L 16.5395,-12.0 L 16.5741,-12.0 L 16.6087,-12.0 L 16.6432,-12.0 L 16.6778,-12.0 L 16.7124,-12.0 L 16.747,-12.0 L 16.7816,-12.0 L 16.8162,-12.0 L 16.8508,-12.0 L 16.8854,-12.0 L 16.92,-12.0 L 16.9546,-12.0 L 16.9892,-12.0 L 17.0238,-12.0 L 17.0584,-12.0 L 17.093,-12.0 L 17.1276,-12.0 L 17.1621,-12.0 L 17.1967,-12.0 L 17.2313,-12.0 L 17.2659,-12.0 L 17.3005,-12.0 L 17.3351,-12.0 L 17.3697,-12.0 L 17.4043,-12.0 L 17.4389,-12.0 L 17.4735,-12.0 L 17.5081,-12.0 L 17.5427,-12.0 L 17.5773,-12.0 L 17.6119,-12.0 L 17.6465,-12.0 L 17.681,-12.0 L 17.7156,-12.0 L 17.7502,-12.0 L 17.7848,-12.0 L 17.8194,-12.0 L 17.854,-12.0 L 17.8886,-12.0 L 17.9232,-12.0 L 17.9578,-12.0 L 17.9924,-12.0 L 18.027,-12.0 L 18.0616,-12.0 L 18.0962,-12.0 L 18.1308,-12.0 L 18.1654,-12.0 L 18.2,-12.0 L 18.2345,-12.0 L 18.2691,-12.0 L 18.3037,-12.0 L 18.3383,-12.0 L 18.3729,-12.0 L 18.4075,-12.0 L 18.4421,-12.0 L 18.4767,-12.0 L 18.5113,-12.0" />
      <path d="M 18.5114,-11.9997 L 18.5321,-11.9204 L 18.5529,-11.8411 L 18.574,-11.7619 L 18.5954,-11.6827 L 18.617,-11.6036 L 18.6389,-11.5246 L 18.661,-11.4457 L 18.6834,-11.3668 L 18.706,-11.288 L 18.7289,-11.2093 L 18.752,-11.1306 L 18.7753,-11.052 L 18.799,-10.9735 L 18.8228,-10.8951 L 18.8469,-10.8167 L 18.8713,-10.7384 L 18.8959,-10.6602 L 18.9207,-10.5821 L 18.9458,-10.504 L 18.9711,-10.4261 L 18.9967,-10.3482 L 19.0225,-10.2703 L 19.0486,-10.1926 L 19.0749,-10.115 L 19.1015,-10.0374 L 19.1283,-9.9599 L 19.1554,-9.8825 L 19.1826,-9.8052 L 19.2102,-9.728 L 19.238,-9.6509 L 19.266,-9.5738 L 19.2943,-9.4969 L 19.3228,-9.42 L 19.3515,-9.3432 L 19.3805,-9.2665 L 19.4098,-9.1899 L 19.4392,-9.1134 L 19.4689,-9.037 L 19.4989,-8.9607 L 19.5291,-8.8845 L 19.5595,-8.8083 L 19.5902,-8.7323 L 19.6211,-8.6564 L 19.6523,-8.5806 L 19.6837,-8.5048 L 19.7153,-8.4292 L 19.7472,-8.3536 L 19.7793,-8.2782 L 19.8117,-8.2029 L 19.8443,-8.1276 L 19.8771,-8.0525 L 19.9102,-7.9775 L 19.9435,-7.9026 L 19.977,-7.8278 L 20.0108,-7.7531 L 20.0448,-7.6784 L 20.079,-7.604 L 20.1135,-7.5296 L 20.1482,-7.4553 L 20.1831,-7.3811 L 20.2183,-7.3071 L 20.2537,-7.2331 L 20.2894,-7.1593 L 20.3252,-7.0856 L 20.3614,-7.012 L 20.3977,-6.9385 L 20.4343,-6.8651 L 20.4711,-6.7918 L 20.5081,-6.7187 L 20.5454,-6.6457 L 20.5829,-6.5728 L 20.6206,-6.5" />
      <path d="M 18.5114,11.9997 L 18.5321,11.9204 L 18.5529,11.8411 L 18.574,11.7619 L 18.5954,11.6827 L 18.617,11.6036 L 18.6389,11.5246 L 18.661,11.4457 L 18.6834,11.3668 L 18.706,11.288 L 18.7289,11.2093 L 18.752,11.1306 L 18.7753,11.052 L 18.799,10.9735 L 18.8228,10.8951 L 18.8469,10.8167 L 18.8713,10.7384 L 18.8959,10.6602 L 18.9207,10.5821 L 18.9458,10.504 L 18.9711,10.4261 L 18.9967,10.3482 L 19.0225,10.2703 L 19.0486,10.1926 L 19.0749,10.115 L 19.1015,10.0374 L 19.1283,9.9599 L 19.1554,9.8825 L 19.1826,9.8052 L 19.2102,9.728 L 19.238,9.6509 L 19.266,9.5738 L 19.2943,9.4969 L 19.3228,9.42 L 19.3515,9.3432 L 19.3805,9.2665 L 19.4098,9.1899 L 19.4392,9.1134 L 19.4689,9.037 L 19.4989,8.9607 L 19.5291,8.8845 L 19.5595,8.8083 L 19.5902,8.7323 L 19.6211,8.6564 L 19.6523,8.5806 L 19.6837,8.5048 L 19.7153,8.4292 L 19.7472,8.3536 L 19.7793,8.2782 L 19.8117,8.2029 L 19.8443,8.1276 L 19.8771,8.0525 L 19.9102,7.9775 L 19.9435,7.9026 L 19.977,7.8278 L 20.0108,7.7531 L 20.0448,7.6784 L 20.079,7.604 L 20.1135,7.5296 L 20.1482,7.4553 L 20.1831,7.3811 L 20.2183,7.3071 L 20.2537,7.2331 L 20.2894,7.1593 L 20.3252,7.0856 L 20.3614,7.012 L 20.3977,6.9385 L 20.4343,6.8651 L 20.4711,6.7918 L 20.5081,6.7187 L 20.5454,6.6457 L 20.5829,6.5728 L 20.6206,6.5" />
    </g>
    <g fill="none" stroke="rgb(110,110,110)" stroke-width="0.3" id="Hidden" stroke-dasharray="3.6 0.9">
      <path d="M -0.0,12.0 L -1.0459,11.9543 L -2.0838,11.8177 L -3.1058,11.5911 L -4.1042,11.2763 L -5.0714,10.8757 L -6.0,10.3923 L -6.8829,9.8298 L -7.7135,9.1925 L -8.4853,8.4853 L -9.1925,7.7135 L -9.8298,6.8829 L -10.3923,6.0 L -10.8757,5.0714 L -11.2763,4.1042 L -11.5911,3.1058 L -11.8177,2.0838 L -11.9543,1.0459 L -12.0,0.0 L -11.9543,-1.0459 L -11.8177,-2.0838 L -11.5911,-3.1058 L -11.2763,-4.1042 L -10.8757,-5.0714 L -10.3923,-6.0 L -9.8298,-6.8829 L -9.1925,-7.7135 L -8.4853,-8.4853 L -7.7135,-9.1925 L -6.8829,-9.8298 L -6.0,-10.3923 L -5.0714,-10.8757 L -4.1042,-11.2763 L -3.1058,-11.5911 L -2.0838,-11.8177 L -1.0459,-11.9543 L -0.0,-12.0 L 1.0459,-11.9543 L 2.0838,-11.8177 L 3.1058,-11.5911 L 4.1042,-11.2763 L 5.0714,-10.8757 L 6.0,-10.3923 L 6.8829,-9.8298 L 7.7135,-9.1925 L 8.4853,-8.4853 L 9.1925,-7.7135 L 9.8298,-6.8829 L 10.3923,-6.0 L 10.8757,-5.0714 L 11.2763,-4.1042 L 11.5911,-3.1058 L 11.8177,-2.0838 L 11.9543,-1.0459 L 12.0,-0.0 L 11.9543,1.0459 L 11.8177,2.0838 L 11.5911,3.1058 L 11.2763,4.1042 L 10.8757,5.0714 L 10.3923,6.0 L 9.8298,6.8829 L 9.1925,7.7135 L 8.4853,8.4853 L 7.7135,9.1925 L 6.8829,9.8298 L 6.0,10.3923 L 5.0714,10.8757 L 4.1042,11.2763 L 3.1058,11.5911 L 2.0838,11.8177 L 1.0459,11.9543 L 0.0,12.0" />
      <path d="M -0.0,6.5 L -0.5665,6.4753 L -1.1287,6.4013 L -1.6823,6.2785 L -2.2231,6.108 L -2.747,5.891 L -3.25,5.6292 L -3.7282,5.3245 L -4.1781,4.9793 L -4.5962,4.5962 L -4.9793,4.1781 L -5.3245,3.7282 L -5.6292,3.25 L -5.891,2.747 L -6.108,2.2231 L -6.2785,1.6823 L -6.4013,1.1287 L -6.4753,0.5665 L -6.5,-0.0 L -6.4753,-0.5665 L -6.4013,-1.1287 L -6.2785,-1.6823 L -6.108,-2.2231 L -5.891,-2.747 L -5.6292,-3.25 L -5.3245,-3.7282 L -4.9793,-4.1781 L -4.5962,-4.5962 L -4.1781,-4.9793 L -3.7282,-5.3245 L -3.25,-5.6292 L -2.747,-5.891 L -2.2231,-6.108 L -1.6823,-6.2785 L -1.1287,-6.4013 L -0.5665,-6.4753 L 0.0,-6.5 L 0.5665,-6.4753 L 1.1287,-6.4013 L 1.6823,-6.2785 L 2.2231,-6.108 L 2.747,-5.891 L 3.25,-5.6292 L 3.7282,-5.3245 L 4.1781,-4.9793 L 4.5962,-4.5962 L 4.9793,-4.1781 L 5.3245,-3.7282 L 5.6292,-3.25 L 5.891,-2.747 L 6.108,-2.2231 L 6.2785,-1.6823 L 6.4013,-1.1287 L 6.4753,-0.5665 L 6.5,0.0 L 6.4753,0.5665 L 6.4013,1.1287 L 6.2785,1.6823 L 6.108,2.2231 L 5.891,2.747 L 5.6292,3.25 L 5.3245,3.7282 L 4.9793,4.1781 L 4.5962,4.5962 L 4.1781,4.9793 L 3.7282,5.3245 L 3.25,5.6292 L 2.747,5.891 L 2.2231,6.108 L 1.6823,6.2785 L 1.1287,6.4013 L 0.5665,6.4753 L -0.0,6.5" />
      <path d="M 18.5113,12.0 L 18.5065,11.6668 L 18.5045,11.3334 L 18.5031,11.0001 L 18.5019,10.6668 L 18.5008,10.3334 L 18.4999,10.0001 L 18.4991,9.6668 L 18.4984,9.3334 L 18.4977,9.0001 L 18.4971,8.6667 L 18.4965,8.3334 L 18.496,8.0001 L 18.4955,7.6667 L 18.495,7.3334 L 18.4946,7.0001 L 18.4942,6.6667 L 18.4938,6.3334 L 18.4935,6.0001 L 18.4932,5.6667 L 18.4929,5.3334 L 18.4926,5.0 L 18.4923,4.6667 L 18.4921,4.3334 L 18.4919,4.0 L 18.4917,3.6667 L 18.4915,3.3334 L 18.4914,3.0 L 18.4912,2.6667 L 18.4911,2.3334 L 18.491,2.0 L 18.4909,1.6667 L 18.4909,1.3334 L 18.4908,1.0 L 18.4908,0.6667 L 18.4907,0.3333 L 18.4907,0.0 L 18.4907,-0.3333 L 18.4908,-0.6667 L 18.4908,-1.0 L 18.4909,-1.3333 L 18.4909,-1.6667 L 18.491,-2.0 L 18.4911,-2.3333 L 18.4912,-2.6667 L 18.4914,-3.0 L 18.4915,-3.3333 L 18.4917,-3.6667 L 18.4919,-4.0 L 18.4921,-4.3334 L 18.4923,-4.6667 L 18.4926,-5.0 L 18.4929,-5.3334 L 18.4932,-5.6667 L 18.4935,-6.0 L 18.4938,-6.3334 L 18.4942,-6.6667 L 18.4946,-7.0 L 18.495,-7.3334 L 18.4955,-7.6667 L 18.496,-8.0 L 18.4965,-8.3334 L 18.4971,-8.6667 L 18.4977,-9.0 L 18.4984,-9.3334 L 18.4991,-9.6667 L 18.4999,-10.0001 L 18.5008,-10.3334 L 18.5019,-10.6667 L 18.5031,-11.0001 L 18.5045,-11.3334 L 18.5065,-11.6667 L 18.5113,-12.0" />
      <path d="M 20.6206,6.5 L 20.6179,6.3195 L 20.6169,6.1389 L 20.6161,5.9584 L 20.6155,5.7778 L 20.6149,5.5973 L 20.6144,5.4167 L 20.614,5.2362 L 20.6136,5.0556 L 20.6132,4.875 L 20.6129,4.6945 L 20.6125,4.5139 L 20.6123,4.3334 L 20.612,4.1528 L 20.6117,3.9723 L 20.6115,3.7917 L 20.6113,3.6111 L 20.6111,3.4306 L 20.6109,3.25 L 20.6107,3.0695 L 20.6106,2.8889 L 20.6104,2.7084 L 20.6103,2.5278 L 20.6102,2.3472 L 20.6101,2.1667 L 20.61,1.9861 L 20.6099,1.8056 L 20.6098,1.625 L 20.6097,1.4445 L 20.6096,1.2639 L 20.6096,1.0833 L 20.6095,0.9028 L 20.6095,0.7222 L 20.6095,0.5417 L 20.6094,0.3611 L 20.6094,0.1806 L 20.6094,0.0 L 20.6094,-0.1806 L 20.6094,-0.3611 L 20.6095,-0.5417 L 20.6095,-0.7222 L 20.6095,-0.9028 L 20.6096,-1.0833 L 20.6096,-1.2639 L 20.6097,-1.4444 L 20.6098,-1.625 L 20.6099,-1.8056 L 20.61,-1.9861 L 20.6101,-2.1667 L 20.6102,-2.3472 L 20.6103,-2.5278 L 20.6104,-2.7083 L 20.6106,-2.8889 L 20.6107,-3.0695 L 20.6109,-3.25 L 20.6111,-3.4306 L 20.6113,-3.6111 L 20.6115,-3.7917 L 20.6117,-3.9722 L 20.612,-4.1528 L 20.6123,-4.3334 L 20.6125,-4.5139 L 20.6129,-4.6945 L 20.6132,-4.875 L 20.6136,-5.0556 L 20.614,-5.2361 L 20.6144,-5.4167 L 20.6149,-5.5973 L 20.6155,-5.7778 L 20.6161,-5.9584 L 20.6169,-6.1389 L 20.6179,-6.3195 L 20.6206,-6.5" />
      <path d="M 20.6206,6.5 L 20.5567,6.5 L 20.4928,6.5 L 20.4289,6.5 L 20.365,6.5 L 20.3011,6.5 L 20.2372,6.5 L 20.1733,6.5 L 20.1094,6.5 L 20.0456,6.5 L 19.9817,6.5 L 19.9178,6.5 L 19.8539,6.5 L 19.79,6.5 L 19.7261,6.5 L 19.6622,6.5 L 19.5983,6.5 L 19.5344,6.5 L 19.4706,6.5 L 19.4067,6.5 L 19.3428,6.5 L 19.2789,6.5 L 19.215,6.5 L 19.1511,6.5 L 19.0872,6.5 L 19.0233,6.5 L 18.9594,6.5 L 18.8956,6.5 L 18.8317,6.5 L 18.7678,6.5 L 18.7039,6.5 L 18.64,6.5 L 18.5761,6.5 L 18.5122,6.5 L 18.4483,6.5 L 18.3844,6.5 L 18.3206,6.5 L 18.2567,6.5 L 18.1928,6.5 L 18.1289,6.5 L 18.065,6.5 L 18.0011,6.5 L 17.9372,6.5 L 17.8733,6.5 L 17.8094,6.5 L 17.7456,6.5 L 17.6817,6.5 L 17.6178,6.5 L 17.5539,6.5 L 17.49,6.5 L 17.4261,6.5 L 17.3622,6.5 L 17.2983,6.5 L 17.2344,6.5 L 17.1706,6.5 L 17.1067,6.5 L 17.0428,6.5 L 16.9789,6.5 L 16.915,6.5 L 16.8511,6.5 L 16.7872,6.5 L 16.7233,6.5 L 16.6595,6.5 L 16.5956,6.5 L 16.5317,6.5 L 16.4678,6.5 L 16.4039,6.5 L 16.34,6.5 L 16.2761,6.5 L 16.2122,6.5 L 16.1483,6.5 L 16.0845,6.5 L 16.0206,6.5" />
      <path d="M 20.6206,-6.5 L 20.5567,-6.5 L 20.4928,-6.5 L 20.4289,-6.5 L 20.365,-6.5 L 20.3011,-6.5 L 20.2372,-6.5 L 20.1733,-6.5 L 20.1094,-6.5 L 20.0456,-6.5 L 19.9817,-6.5 L 19.9178,-6.5 L 19.8539,-6.5 L 19.79,-6.5 L 19.7261,-6.5 L 19.6622,-6.5 L 19.5983,-6.5 L 19.5344,-6.5 L 19.4706,-6.5 L 19.4067,-6.5 L 19.3428,-6.5 L 19.2789,-6.5 L 19.215,-6.5 L 19.1511,-6.5 L 19.0872,-6.5 L 19.0233,-6.5 L 18.9594,-6.5 L 18.8956,-6.5 L 18.8317,-6.5 L 18.7678,-6.5 L 18.7039,-6.5 L 18.64,-6.5 L 18.5761,-6.5 L 18.5122,-6.5 L 18.4483,-6.5 L 18.3844,-6.5 L 18.3206,-6.5 L 18.2567,-6.5 L 18.1928,-6.5 L 18.1289,-6.5 L 18.065,-6.5 L 18.0011,-6.5 L 17.9372,-6.5 L 17.8733,-6.5 L 17.8094,-6.5 L 17.7456,-6.5 L 17.6817,-6.5 L 17.6178,-6.5 L 17.5539,-6.5 L 17.49,-6.5 L 17.4261,-6.5 L 17.3622,-6.5 L 17.2983,-6.5 L 17.2344,-6.5 L 17.1706,-6.5 L 17.1067,-6.5 L 17.0428,-6.5 L 16.9789,-6.5 L 16.915,-6.5 L 16.8511,-6.5 L 16.7872,-6.5 L 16.7233,-6.5 L 16.6595,-6.5 L 16.5956,-6.5 L 16.5317,-6.5 L 16.4678,-6.5 L 16.4039,-6.5 L 16.34,-6.5 L 16.2761,-6.5 L 16.2122,-6.5 L 16.1483,-6.5 L 16.0845,-6.5 L 16.0206,-6.5" />
    </g>
    <g fill="none" stroke="rgb(0,0,0)" stroke-width="0.2" id="Center" stroke-dasharray="6.35 1.27 1.27 1.27">
      <line x1="0.0" y1="0.0" x2="-13.92" y2="0.0" />
      <line x1="0.0" y1="0.0" x2="13.92" y2="0.0" />
      <line x1="0.0" y1="0.0" x2="0.0" y2="-13.92" />
      <line x1="0.0" y1="0.0" x2="0.0" y2="13.92" />
      <line x1="18.3158" y1="0.0" x2="14.08" y2="0.0" />
      <line x1="18.3158" y1="0.0" x2="22.5517" y2="0.0" />
    </g>
  </g>
</svg>