<?xml version='1.0' encoding='utf-8'?>
<svg width="39.24mm" height="32.24mm" viewBox="-16.12 -16.12 39.24 32.24" version="1.1" xmlns="http://www.w3.org/2000/svg">
  <g transform="scale(1,-1)" stroke-linecap="round">
    <g fill="none" stroke="rgb(0,0,0)" stroke-width="0.4" id="Visible">
      <path d="M 12.0,0.0 L 11.9543,1.0459 L 11.8177,2.0838 L 11.5911,3.1058 L 11.2763,4.1042 L 10.8757,5.0714 L 10.3923,6.0 L 9.8298,6.8829 L 9.1925,7.7135 L 8.4853,8.4853 L 7.7135,9.1925 L 6.8829,9.8298 L 6.0,10.3923 L 5.0714,10.8757 L 4.1042,11.2763 L 3.1058,11.5911 L 2.0838,11.8177 L 1.0459,11.9543 L 0.0,12.0 L -1.0459,11.9543 L -2.0838,11.8177 L -3.1058,11.5911 L -4.1042,11.2763 L -5.0714,10.8757 L -6.0,10.3923 L -6.8829,9.8298 L -7.7135,9.1925 L -8.4853,8.4853 L -9.1925,7.7135 L -9.8298,6.8829 L -10.3923,6.0 L -10.8757,5.0714 L -11.2763,4.1042 L -11.5911,3.1058 L -11.8177,2.0838 L -11.9543,1.0459 L -12.0,0.0 L -11.9543,-1.0459 L -11.8177,-2.0838 L -11.5911,-3.1058 L -11.2763,-4.1042 L -10.8757,-5.0714 L -10.3923,-6.0 L -9.8298,-6.8829 L -9.1925,-7.7135 L -8.4853,-8.4853 L -7.7135,-9.1925 L -6.8829,-9.8298 L -6.0,-10.3923 L -5.0714,-10.8757 L -4.1042,-11.2763 L -3.1058,-11.5911 L -2.0838,-11.8177 L -1.0459,-11.9543 L -0.0,-12.0 L 1.0459,-11.9543 L 2.0838,-11.8177 L 3.1058,-11.5911 L 4.1042,-11.2763 L 5.0714,-10.8757 L 6.0,-10.3923 L 6.8829,-9.8298 L 7.7135,-9.1925 L 8.4853,-8.4853 L 9.1925,-7.7135 L 9.8298,-6.8829 L 10.3923,-6.0 L 10.8757,-5.0714 L 11.2763,-4.1042 L 11.5911,-3.1058 L 11.8177,-2.0838 L 11.9543,-1.0459 L 12.0,-0.0" />
      <path d="M 6.5,0.0 L 6.4753,0.5665 L 6.4013,1.1287 L 6.2785,1.6823 L 6.108,2.2231 L 5.891,2.747 L 5.6292,3.25 L 5.3245,3.7282 L 4.9793,4.1781 L 4.5962,4.5962 L 4.1781,4.9793 L 3.7282,5.3245 L 3.25,5.6292 L 2.747,5.891 L 2.2231,6.108 L 1.6823,6.2785 L 1.1287,6.4013 L 0.5665,6.4753 L -0.0,6.5 L -0.5665,6.4753 L -1.1287,6.4013 L -1.6823,6.2785 L -2.2231,6.108 L -2.747,5.891 L -3.25,5.6292 L -3.7282,5.3245 L -4.1781,4.9793 L -4.5962,4.5962 L -4.9793,4.1781 L -5.3245,3.7282 L -5.6292,3.25 L -5.891,2.747 L -6.108,2.2231 L -6.2785,1.6823 L -6.4013,1.1287 L -6.4753,0.5665 L -6.5,-0.0 L -6.4753,-0.5665 L -6.4013,-1.1287 L -6.2785,-1.6823 L -6.108,-2.2231 L -5.891,-2.747 L -5.6292,-3.25 L -5.3245,-3.7282 L -4.9793,-4.1781 L -4.5962,-4.5962 L -4.1781,-4.9793 L -3.7282,-5.3245 L -3.25,-5.6292 L -2.747,-5.891 L -2.2231,-6.108 L -1.6823,-6.2785 L -1.1287,-6.4013 L -0.5665,-6.4753 L 0.0,-6.5 L 0.5665,-6.4753 L 1.1287,-6.4013 L 1.6823,-6.2785 L 2.2231,-6.108 L 2.747,-5.891 L 3.25,-5.6292 L 3.7282,-5.3245 L 4.1781,-4.9793 L 4.5962,-4.5962 L 4.9793,-4.1781 L 5.3245,-3.7282 L 5.6292,-3.25 L 5.891,-2.747 L 6.108,-2.2231 L 6.2785,-1.6823 L 6.4013,-1.1287 L 6.4753,-0.5665 L 6.5,0.0" />
      <path d="M 16.0,-12.0 L 16.0,-11.6667 L 16.0,-11.3333 L 16.0,-11.0 L 16.0,-10.6667 L 16.0,-10.3333 L 16.0,-10.0 L 16.0,-9.6667 L 16.0,-9.3333 L 16.0,-9.0 L 16.0,-8.6667 L 16.0,-8.3333 L 16.0,-8.0 L 16.0,-7.6667 L 16.0,-7.3333 L 16.0,-7.0 L 16.0,-6.6667 L 16.0,-6.3333 L 16.0,-6.0 L 16.0,-5.6667 L 16.0,-5.3333 L 16.0,-5.0 L 16.0,-4.6667 L 16.0,-4.3333 L 16.0,-4.0 L 16.0,-3.6667 L 16.0,-3.3333 L 16.0,-3.0 L 16.0,-2.6667 L 16.0,-2.3333 L 16.0,-2.0 L 16.0,-1.6667 L 16.0,-1.3333 L 16.0,-1.0 L 16.0,-0.6667 L 16.0,-0.3333 L 16.0,0.0 L 16.0,0.3333 L 16.0,0.6667 L 16.0,1.0 L 16.0,1.3333 L 16.0,1.6667 L 16.0,2.0 L 16.0,2.3333 L 16.0,2.6667 L 16.0,3.0 L 16.0,3.3333 L 16.0,3.6667 L 16.0,4.0 L 16.0,4.3333 L 16.0,4.6667 L 16.0,5.0 L 16.0,5.3333 L 16.0,5.6667 L 16.0,6.0 L 16.0,6.3333 L 16.0,6.6667 L 16.0,7.0 L 16.0,7.3333 L 16.0,7.6667 L 16.0,8.0 L 16.0,8.3333 L 16.0,8.6667 L 16.0,9.0 L 16.0,9.3333 L 16.0,9.6667 L 16.0,10.0 L 16.0,10.3333 L 16.0,10.6667 L 16.0,11.0 L 16.0,11.3333 L 16.0,11.6667 L 16.0,12.0" />
      <path d="M 19.0,12.0 L 18.9583,12.0 L 18.9167,12.0 L 18.875,12.0 L 18.8333,12.0 L 18.7917,12.0 L 18.75,12.0 L 18.7083,12.0 L 18.6667,12.0 L 18.625,12.0 L 18.5833,12.0 L 18.5417,12.0 L 18.5,12.0 L 18.4583,12.0 L 18.4167,12.0 L 18.375,12.0 L 18.3333,12.0 L 18.2917,12.0 L 18.25,12.0 L 18.2083,12.0 L 18.1667,12.0 L 18.125,12.0 L 18.0833,12.0 L 18.0417,12.0 L 18.0,12.0 L 17.9583,12.0 L 17.9167,12.0 L 17.875,12.0 L 17.8333,12.0 L 17.7917,12.0 L 17.75,12.0 L 17.7083,12.0 L 17.6667,12.0 L 17.625,12.0 L 17.5833,12.0 L 17.5417,12.0 L 17.5,12.0 L 17.4583,12.0 L 17.4167,12.0 L 17.375,12.0 L 17.3333,12.0 L 17.2917,12.0 L 17.25,12.0 L 17.2083,12.0 L 17.1667,12.0 L 17.125,12.0 L 17.0833,12.0 L 17.0417,12.0 L 17.0,12.0 L 16.9583,12.0 L 16.9167,12.0 L 16.875,12.0 L 16.8333,12.0 L 16.7917,12.0 L 16.75,12.0 L 16.7083,12.0 L 16.6667,12.0 L 16.625,12.0 L 16.5833,12.0 L 16.5417,12.0 L 16.5,12.0 L 16.4583,12.0 L 16.4167,12.0 L 16.375,12.0 L 16.3333,12.0 L 16.2917,12.0 L 16.25,12.0 L 16.2083,12.0 L 16.1667,12.0 L 16.125,12.0 L 16.0833,12.0 L 16.0417,12.0 L 16.0,12.0" />
      <path d="M 19.0,-12.0 L 19.0,-11.6667 L 19.0,-11.3333 L 19.0,-11.0 L 19.0,-10.6667 L 19.0,-10.3333 L 19.0,-10.0 L 19.0,-9.6667 L 19.0,-9.3333 L 19.0,-9.0 L 19.0,-8.6667 L 19.0,-8.3333 L 19.0,-8.0 L 19.0,-7.6667 L 19.0,-7.3333 L 19.0,-7.0 L 19.0,-6.6667 L 19.0,-6.3333 L 19.0,-6.0 L 19.0,-5.6667 L 19.0,-5.3333 L 19.0,-5.0 L 19.0,-4.6667 L 19.0,-4.3333 L 19.0,-4.0 L 19.0,-3.6667 L 19.0,-3.3333 L 19.0,-3.0 L 19.0,-2.6667 L 19.0,-2.3333 L 19.0,-2.0 L 19.0,-1.6667 L 19.0,-1.3333 L 19.0,-1.0 L 19.0,-0.6667 L 19.0,-0.3333 L 19.0,0.0 L 19.0,0.3333 L 19.0,0.6667 L 19.0,1.0 L 19.0,1.3333 L 19.0,1.6667 L 19.0,2.0 L 19.0,2.3333 L 19.0,2.6667 L 19.0,3.0 L 19.0,3.3333 L 19.0,3.6667 L 19.0,4.0 L 19.0,4.3333 L 19.0,4.6667 L 19.0,5.0 L 19.0,5.3333 L 19.0,5.6667 L 19.0,6.0 L 19.0,6.3333 L 19.0,6.6667 L 19.0,7.0 L 19.0,7.3333 L 19.0,7.6667 L 19.0,8.0 L 19.0,8.3333 L 19.0,8.6667 L 19.0,9.0 L 19.0,9.3333 L 19.0,9.6667 L 19.0,10.0 L 19.0,10.3333 L 19.0,10.6667 L 19.0,11.0 L 19.0,11.3333 L 19.0,11.6667 L 19.0,12.0" />
      <path d="M 19.0,-12.0 L 18.9583,-12.0 L 18.9167,-12.0 L 18.875,-12.0 L 18.8333,-12.0 L 18.7917,-12.0 L 18.75,-12.0 L 18.7083,-12.0 L 18.6667,-12.0 L 18.625,-12.0 L 18.5833,-12.0 L 18.5417,-12.0 L 18.5,-12.0 L 18.4583,-12.0 L 18.4167,-12.0 L 18.375,-12.0 L 18.3333,-12.0 L 18.2917,-12.0 L 18.25,-12.0 L 18.2083,-12.0 L 18.1667,-12.0 L 18.125,-12.0 L 18.0833,-12.0 L 18.0417,-12.0 L 18.0,-12.0 L 17.9583,-12.0 L 17.9167,-12.0 L 17.875,-12.0 L 17.8333,-12.0 L 17.7917,-12.0 L 17.75,-12.0 L 17.7083,-12.0 L 17.6667,-12.0 L 17.625,-12.0 L 17.5833,-12.0 L 17.5417,-12.0 L 17.5,-12.0 L 17.4583,-12.0 L 17.4167,-12.0 L 17.375,-12.0 L 17.3333,-12.0 L 17.2917,-12.0 L 17.25,-12.0 L 17.2083,-12.0 L 17.1667,-12.0 L 17.125,-12.0 L 17.0833,-12.0 L 17.0417,-12.0 L 17.0,-12.0 L 16.9583,-12.0 L 16.9167,-12.0 L 16.875,-12.0 L 16.8333,-12.0 L 16.7917,-12.0 L 16.75,-12.0 L 16.7083,-12.0 L 16.6667,-12.0 L 16.625,-12.0 L 16.5833,-12.0 L 16.5417,-12.0 L 16.5,-12.0 L 16.4583,-12.0 L 16.4167,-12.0 L 16.375,-12.0 L 16.3333,-12.0 L 16.2917,-12.0 L 16.25,-12.0 L 16.2083,-12.0 L 16.1667,-12.0 L 16.125,-12.0 L 16.0833,-12.0 L 16.0417,-12.0 L 16.0,-12.0" />
    </g>
    <g fill="none" stroke="rgb(110,110,110)" stroke-width="0.3" id="Hidden" stroke-dasharray="3.6 0.9">
      <path d="M 12.0,0.0 L 11.9543,1.0459 L 11.8177,2.0838 L 11.5911,3.1058 L 11.2763,4.1042 L 10.8757,5.0714 L 10.3923,6.0 L 9.8298,6.8829 L 9.1925,7.7135 L 8.4853,8.4853 L 7.7135,9.1925 L 6.8829,9.8298 L 6.0,10.3923 L 5.0714,10.8757 L 4.1042,11.2763 L 3.1058,11.5911 L 2.0838,11.8177 L 1.0459,11.9543 L 0.0,12.0 L -1.0459,11.9543 L -2.0838,11.8177 L -3.1058,11.5911 L -4.1042,11.2763 L -5.0714,10.8757 L -6.0,10.3923 L -6.8829,9.8298 L -7.7135,9.1925 L -8.4853,8.4853 L -9.1925,7.7135 L -9.8298,6.8829 L -10.3923,6.0 L -10.8757,5.0714 L -11.2763,4.1042 L -11.5911,3.1058 L -11.8177,2.0838 L -11.9543,1.0459 L -12.0,0.0 L -11.9543,-1.0459 L -11.8177,-2.0838 L -11.5911,-3.1058 L -11.2763,-4.1042 L -10.8757,-5.0714 L -10.3923,-6.0 L -9.8298,-6.8829 L -9.1925,-7.7135 L -8.4853,-8.4853 L -7.7135,-9.1925 L -6.8829,-9.8298 L -6.0,-10.3923 L -5.0714,-10.8757 L -4.1042,-11.2763 L -3.1058,-11.5911 L -2.0838,-11.8177 L -1.0459,-11.9543 L -0.0,-12.0 L 1.0459,-11.9543 L 2.0838,-11.8177 L 3.1058,-11.5911 L 4.1042,-11.2763 L 5.0714,-10.8757 L 6.0,-10.3923 L 6.8829,-9.8298 L 7.7135,-9.1925 L 8.4853,-8.4853 L 9.1925,-7.7135 L 9.8298,-6.8829 L 10.3923,-6.0 L 10.8757,-5.0714 L 11.2763,-4.1042 L 11.5911,-3.1058 L 11.8177,-2.0838 L 11.9543,-1.0459 L 12.0,-0.0" />
      <path d="M 6.5,0.0 L 6.4753,0.5665 L 6.4013,1.1287 L 6.2785,1.6823 L 6.108,2.2231 L 5.891,2.747 L 5.6292,3.25 L 5.3245,3.7282 L 4.9793,4.1781 L 4.5962,4.5962 L 4.1781,4.9793 L 3.7282,5.3245 L 3.25,5.6292 L 2.747,5.891 L 2.2231,6.108 L 1.6823,6.2785 L 1.1287,6.4013 L 0.5665,6.4753 L -0.0,6.5 L -0.5665,6.4753 L -1.1287,6.4013 L -1.6823,6.2785 L -2.2231,6.108 L -2.747,5.891 L -3.25,5.6292 L -3.7282,5.3245 L -4.1781,4.9793 L -4.5962,4.5962 L -4.9793,4.1781 L -5.3245,3.7282 L -5.6292,3.25 L -5.891,2.747 L -6.108,2.2231 L -6.2785,1.6823 L -6.4013,1.1287 L -6.4753,0.5665 L -6.5,-0.0 L -6.4753,-0.5665 L -6.4013,-1.1287 L -6.2785,-1.6823 L -6.108,-2.2231 L -5.891,-2.747 L -5.6292,-3.25 L -5.3245,-3.7282 L -4.9793,-4.1781 L -4.5962,-4.5962 L -4.1781,-4.9793 L -3.7282,-5.3245 L -3.25,-5.6292 L -2.747,-5.891 L -2.2231,-6.108 L -1.6823,-6.2785 L -1.1287,-6.4013 L -0.5665,-6.4753 L 0.0,-6.5 L 0.5665,-6.4753 L 1.1287,-6.4013 L 1.6823,-6.2785 L 2.2231,-6.108 L 2.747,-5.891 L 3.25,-5.6292 L 3.7282,-5.3245 L 4.1781,-4.9793 L 4.5962,-4.5962 L 4.9793,-4.1781 L 5.3245,-3.7282 L 5.6292,-3.25 L 5.891,-2.747 L 6.108,-2.2231 L 6.2785,-1.6823 L 6.4013,-1.1287 L 6.4753,-0.5665 L 6.5,0.0" />
      <path d="M 16.0,12.0 L 16.0,11.6667 L 16.0,11.3333 L 16.0,11.0 L 16.0,10.6667 L 16.0,10.3333 L 16.0,10.0 L 16.0,9.6667 L 16.0,9.3333 L 16.0,9.0 L 16.0,8.6667 L 16.0,8.3333 L 16.0,8.0 L 16.0,7.6667 L 16.0,7.3333 L 16.0,7.0 L 16.0,6.6667 L 16.0,6.3333 L 16.0,6.0 L 16.0,5.6667 L 16.0,5.3333 L 16.0,5.0 L 16.0,4.6667 L 16.0,4.3333 L 16.0,4.0 L 16.0,3.6667 L 16.0,3.3333 L 16.0,3.0 L 16.0,2.6667 L 16.0,2.3333 L 16.0,2.0 L 16.0,1.6667 L 16.0,1.3333 L 16.0,1.0 L 16.0,0.6667 L 16.0,0.3333 L 16.0,0.0 L 16.0,-0.3333 L 16.0,-0.6667 L 16.0,-1.0 L 16.0,-1.3333 L 16.0,-1.6667 L 16.0,-2.0 L 16.0,-2.3333 L 16.0,-2.6667 L 16.0,-3.0 L 16.0,-3.3333 L 16.0,-3.6667 L 16.0,-4.0 L 16.0,-4.3333 L 16.0,-4.6667 L 16.0,-5.0 L 16.0,-5.3333 L 16.0,-5.6667 L 16.0,-6.0 L 16.0,-6.3333 L 16.0,-6.6667 L 16.0,-7.0 L 16.0,-7.3333 L 16.0,-7.6667 L 16.0,-8.0 L 16.0,-8.3333 L 16.0,-8.6667 L 16.0,-9.0 L 16.0,-9.3333 L 16.0,-9.6667 L 16.0,-10.0 L 16.0,-10.3333 L 16.0,-10.6667 L 16.0,-11.0 L 16.0,-11.3333 L 16.0,-11.6667 L 16.0,-12.0" />
      <path d="M 19.0,12.0 L 19.0,11.6667 L 19.0,11.3333 L 19.0,11.0 L 19.0,10.6667 L 19.0,10.3333 L 19.0,10.0 L 19.0,9.6667 L 19.0,9.3333 L 19.0,9.0 L 19.0,8.6667 L 19.0,8.3333 L 19.0,8.0 L 19.0,7.6667 L 19.0,7.3333 L 19.0,7.0 L 19.0,6.6667 L 19.0,6.3333 L 19.0,6.0 L 19.0,5.6667 L 19.0,5.3333 L 19.0,5.0 L 19.0,4.6667 L 19.0,4.3333 L 19.0,4.0 L 19.0,3.6667 L 19.0,3.3333 L 19.0,3.0 L 19.0,2.6667 L 19.0,2.3333 L 19.0,2.0 L 19.0,1.6667 L 19.0,1.3333 L 19.0,1.0 L 19.0,0.6667 L 19.0,0.3333 L 19.0,0.0 L 19.0,-0.3333 L 19.0,-0.6667 L 19.0,-1.0 L 19.0,-1.3333 L 19.0,-1.6667 L 19.0,-2.0 L 19.0,-2.3333 L 19.0,-2.6667 L 19.0,-3.0 L 19.0,-3.3333 L 19.0,-3.6667 L 19.0,-4.0 L 19.0,-4.3333 L 19.0,-4.6667 L 19.0,-5.0 L 19.0,-5.3333 L 19.0,-5.6667 L 19.0,-6.0 L 19.0,-6.3333 L 19.0,-6.6667 L 19.0,-7.0 L 19.0,-7.3333 L 19.0,-7.6667 L 19.0,-8.0 L 19.0,-8.3333 L 19.0,-8.6667 L 19.0,-9.0 L 19.0,-9.3333 L 19.0,-9.6667 L 19.0,-10.0 L 19.0,-10.3333 L 19.0,-10.6667 L 19.0,-11.0 L 19.0,-11.3333 L 19.0,-11.6667 L 19.0,-12.0" />
      <path d="M 16.0,6.5 L 16.0,6.3194 L 16.0,6.1389 L 16.0,5.9583 L 16.0,5.7778 L 16.0,5.5972 L 16.0,5.4167 L 16.0,5.2361 L 16.0,5.0556 L 16.0,4.875 L 16.0,4.6944 L 16.0,4.5139 L 16.0,4.3333 L 16.0,4.1528 L 16.0,3.9722 L 16.0,3.7917 L 16.0,3.6111 L 16.0,3.4306 L 16.0,3.25 L 16.0,3.0694 L 16.0,2.8889 L 16.0,2.7083 L 16.0,2.5278 L 16.0,2.3472 L 16.0,2.1667 L 16.0,1.9861 L 16.0,1.8056 L 16.0,1.625 L 16.0,1.4444 L 16.0,1.2639 L 16.0,1.0833 L 16.0,0.9028 L 16.0,0.7222 L 16.0,0.5417 L 16.0,0.3611 L 16.0,0.1806 L 16.0,0.0 L 16.0,-0.1806 L 16.0,-0.3611 L 16.0,-0.5417 L 16.0,-0.7222 L 16.0,-0.9028 L 16.0,-1.0833 L 16.0,-1.2639 L 16.0,-1.4444 L 16.0,-1.625 L 16.0,-1.8056 L 16.0,-1.9861 L 16.0,-2.1667 L 16.0,-2.3472 L 16.0,-2.5278 L 16.0,-2.7083 L 16.0,-2.8889 L 16.0,-3.0694 L 16.0,-3.25 L 16.0,-3.4306 L 16.0,-3.6111 L 16.0,-3.7917 L 16.0,-3.9722 L 16.0,-4.1528 L 16.0,-4.3333 L 16.0,-4.5139 L 16.0,-4.6944 L 16.0,-4.875 L 16.0,-5.0556 L 16.0,-5.2361 L 16.0,-5.4167 L 16.0,-5.5972 L 16.0,-5.7778 L 16.0,-5.9583 L 16.0,-6.1389 L 16.0,-6.3194 L 16.0,-6.5" />
      <path d="M 16.0,-6.5 L 16.0,-6.3194 L 16.0,-6.1389 L 16.0,-5.9583 L 16.0,-5.7778 L 16.0,-5.5972 L 16.0,-5.4167 L 16.0,-5.2361 L 16.0,-5.0556 L 16.0,-4.875 L 16.0,-4.6944 L 16.0,-4.5139 L 16.0,-4.3333 L 16.0,-4.1528 L 16.0,-3.9722 L 16.0,-3.7917 L 16.0,-3.6111 L 16.0,-3.4306 L 16.0,-3.25 L 16.0,-3.0694 L 16.0,-2.8889 L 16.0,-2.7083 L 16.0,-2.5278 L 16.0,-2.3472 L 16.0,-2.1667 L 16.0,-1.9861 L 16.0,-1.8056 L 16.0,-1.625 L 16.0,-1.4444 L 16.0,-1.2639 L 16.0,-1.0833 L 16.0,-0.9028 L 16.0,-0.7222 L 16.0,-0.5417 L 16.0,-0.3611 L 16.0,-0.1806 L 16.0,0.0 L 16.0,0.1806 L 16.0,0.3611 L 16.0,0.5417 L 16.0,0.7222 L 16.0,0.9028 L 16.0,1.0833 L 16.0,1.2639 L 16.0,1.4444 L 16.0,1.625 L 16.0,1.8056 L 16.0,1.9861 L 16.0,2.1667 L 16.0,2.3472 L 16.0,2.5278 L 16.0,2.7083 L 16.0,2.8889 L 16.0,3.0694 L 16.0,3.25 L 16.0,3.4306 L 16.0,3.6111 L 16.0,3.7917 L 16.0,3.9722 L 16.0,4.1528 L 16.0,4.3333 L 16.0,4.5139 L 16.0,4.6944 L 16.0,4.875 L 16.0,5.0556 L 16.0,5.2361 L 16.0,5.4167 L 16.0,5.5972 L 16.0,5.7778 L 16.0,5.9583 L 16.0,6.1389 L 16.0,6.3194 L 16.0,6.5" />
      <path d="M 19.0,6.5 L 19.0,6.3194 L 19.0,6.1389 L 19.0,5.9583 L 19.0,5.7778 L 19.0,5.5972 L 19.0,5.4167 L 19.0,5.2361 L 19.0,5.0556 L 19.0,4.875 L 19.0,4.6944 L 19.0,4.5139 L 19.0,4.3333 L 19.0,4.1528 L 19.0,3.9722 L 19.0,3.7917 L 19.0,3.6111 L 19.0,3.4306 L 19.0,3.25 L 19.0,3.0694 L 19.0,2.8889 L 19.0,2.7083 L 19.0,2.5278 L 19.0,2.3472 L 19.0,2.1667 L 19.0,1.9861 L 19.0,1.8056 L 19.0,1.625 L 19.0,1.4444 L 19.0,1.2639 L 19.0,1.0833 L 19.0,0.9028 L 19.0,0.7222 L 19.0,0.5417 L 19.0,0.3611 L 19.0,0.1806 L 19.0,0.0 L 19.0,-0.1806 L 19.0,-0.3611 L 19.0,-0.5417 L 19.0,-0.7222 L 19.0,-0.9028 L 19.0,-1.0833 L 19.0,-1.2639 L 19.0,-1.4444 L 19.0,-1.625 L 19.0,-1.8056 L 19.0,-1.9861 L 19.0,-2.1667 L 19.0,-2.3472 L 19.0,-2.5278 L 19.0,-2.7083 L 19.0,-2.8889 L 19.0,-3.0694 L 19.0,-3.25 L 19.0,-3.4306 L 19.0,-3.6111 L 19.0,-3.7917 L 19.0,-3.9722 L 19.0,-4.1528 L 19.0,-4.3333 L 19.0,-4.5139 L 19.0,-4.6944 L 19.0,-4.875 L 19.0,-5.0556 L 19.0,-5.2361 L 19.0,-5.4167 L 19.0,-5.5972 L 19.0,-5.7778 L 19.0,-5.9583 L 19.0,-6.1389 L 19.0,-6.3194 L 19.0,-6.5" />
      <path d="M 19.0,-6.5 L 19.0,-6.3194 L 19.0,-6.1389 L 19.0,-5.9583 L 19.0,-5.7778 L 19.0,-5.5972 L 19.0,-5.4167 L 19.0,-5.2361 L 19.0,-5.0556 L 19.0,-4.875 L 19.0,-4.6944 L 19.0,-4.5139 L 19.0,-4.3333 L 19.0,-4.1528 L 19.0,-3.9722 L 19.0,-3.7917 L 19.0,-3.6111 L 19.0,-3.4306 L 19.0,-3.25 L 19.0,-3.0694 L 19.0,-2.8889 L 19.0,-2.7083 L 19.0,-2.5278 L 19.0,-2.3472 L 19.0,-2.1667 L 19.0,-1.9861 L 19.0,-1.8056 L 19.0,-1.625 L 19.0,-1.4444 L 19.0,-1.2639 L 19.0,-1.0833 L 19.0,-0.9028 L 19.0,-0.7222 L 19.0,-0.5417 L 19.0,-0.3611 L 19.0,-0.1806 L 19.0,0.0 L 19.0,0.1806 L 19.0,0.3611 L 19.0,0.5417 L 19.0,0.7222 L 19.0,0.9028 L 19.0,1.0833 L 19.0,1.2639 L 19.0,1.4444 L 19.0,1.625 L 19.0,1.8056 L 19.0,1.9861 L 19.0,2.1667 L 19.0,2.3472 L 19.0,2.5278 L 19.0,2.7083 L 19.0,2.8889 L 19.0,3.0694 L 19.0,3.25 L 19.0,3.4306 L 19.0,3.6111 L 19.0,3.7917 L 19.0,3.9722 L 19.0,4.1528 L 19.0,4.3333 L 19.0,4.5139 L 19.0,4.6944 L 19.0,4.875 L 19.0,5.0556 L 19.0,5.2361 L 19.0,5.4167 L 19.0,5.5972 L 19.0,5.7778 L 19.0,5.9583 L 19.0,6.1389 L 19.0,6.3194 L 19.0,6.5" />
      <path d="M 19.0,6.5 L 18.9583,6.5 L 18.9167,6.5 L 18.875,6.5 L 18.8333,6.5 L 18.7917,6.5 L 18.75,6.5 L 18.7083,6.5 L 18.6667,6.5 L 18.625,6.5 L 18.5833,6.5 L 18.5417,6.5 L 18.5,6.5 L 18.4583,6.5 L 18.4167,6.5 L 18.375,6.5 L 18.3333,6.5 L 18.2917,6.5 L 18.25,6.5 L 18.2083,6.5 L 18.1667,6.5 L 18.125,6.5 L 18.0833,6.5 L 18.0417,6.5 L 18.0,6.5 L 17.9583,6.5 L 17.9167,6.5 L 17.875,6.5 L 17.8333,6.5 L 17.7917,6.5 L 17.75,6.5 L 17.7083,6.5 L 17.6667,6.5 L 17.625,6.5 L 17.5833,6.5 L 17.5417,6.5 L 17.5,6.5 L 17.4583,6.5 L 17.4167,6.5 L 17.375,6.5 L 17.3333,6.5 L 17.2917,6.5 L 17.25,6.5 L 17.2083,6.5 L 17.1667,6.5 L 17.125,6.5 L 17.0833,6.5 L 17.0417,6.5 L 17.0,6.5 L 16.9583,6.5 L 16.9167,6.5 L 16.875,6.5 L 16.8333,6.5 L 16.7917,6.5 L 16.75,6.5 L 16.7083,6.5 L 16.6667,6.5 L 16.625,6.5 L 16.5833,6.5 L 16.5417,6.5 L 16.5,6.5 L 16.4583,6.5 L 16.4167,6.5 L 16.375,6.5 L 16.3333,6.5 L 16.2917,6.5 L 16.25,6.5 L 16.2083,6.5 L 16.1667,6.5 L 16.125,6.5 L 16.0833,6.5 L 16.0417,6.5 L 16.0,6.5" />
      <path d="M 19.0,-6.5 L 18.9583,-6.5 L 18.9167,-6.5 L 18.875,-6.5 L 18.8333,-6.5 L 18.7917,-6.5 L 18.75,-6.5 L 18.7083,-6.5 L 18.6667,-6.5 L 18.625,-6.5 L 18.5833,-6.5 L 18.5417,-6.5 L 18.5,-6.5 L 18.4583,-6.5 L 18.4167,-6.5 L 18.375,-6.5 L 18.3333,-6.5 L 18.2917,-6.5 L 18.25,-6.5 L 18.2083,-6.5 L 18.1667,-6.5 L 18.125,-6.5 L 18.0833,-6.5 L 18.0417,-6.5 L 18.0,-6.5 L 17.9583,-6.5 L 17.9167,-6.5 L 17.875,-6.5 L 17.8333,-6.5 L 17.7917,-6.5 L 17.75,-6.5 L 17.7083,-6.5 L 17.6667,-6.5 L 17.625,-6.5 L 17.5833,-6.5 L 17.5417,-6.5 L 17.5,-6.5 L 17.4583,-6.5 L 17.4167,-6.5 L 17.375,-6.5 L 17.3333,-6.5 L 17.2917,-6.5 L 17.25,-6.5 L 17.2083,-6.5 L 17.1667,-6.5 L 17.125,-6.5 L 17.0833,-6.5 L 17.0417,-6.5 L 17.0,-6.5 L 16.9583,-6.5 L 16.9167,-6.5 L 16.875,-6.5 L 16.8333,-6.5 L 16.7917,-6.5 L 16.75,-6.5 L 16.7083,-6.5 L 16.6667,-6.5 L 16.625,-6.5 L 16.5833,-6.5 L 16.5417,-6.5 L 16.5,-6.5 L 16.4583,-6.5 L 16.4167,-6.5 L 16.375,-6.5 L 16.3333,-6.5 L 16.2917,-6.5 L 16.25,-6.5 L 16.2083,-6.5 L 16.1667,-6.5 L 16.125,-6.5 L 16.0833,-6.5 L 16.0417,-6.5 L 16.0,-6.5" />
    </g>
    <g fill="none" stroke="rgb(0,0,0)" stroke-width="0.2" id="Center" stroke-dasharray="6.35 1.27 1.27 1.27">
      <line x1="-13.92" y1="0.0" x2="13.92" y2="0.0" />
      <line x1="0.0" y1="-13.92" x2="0.0" y2="13.92" />
      <line x1="14.08" y1="0.0" x2="20.92" y2="0.0" />
    </g>
  </g>
</svg>