<?xml version='1.0' encoding='utf-8'?>
<svg width="54.0mm" height="45.0mm" viewBox="-22.5 -22.5 54.0 45.0" version="1.1" xmlns="http://www.w3.org/2000/svg">
  <g transform="scale(1,-1)" stroke-linecap="round">
    <g fill="none" stroke="rgb(0,0,0)" stroke-width="0.4" id="Visible">
      <path d="M 0.0,17.5 L -1.5252,17.4334 L -3.0388,17.2341 L -4.5293,16.9037 L -5.9854,16.4446 L -7.3958,15.8604 L -8.75,15.1554 L -10.0376,14.3352 L -11.2488,13.4058 L -12.3744,12.3744 L -13.4058,11.2488 L -14.3352,10.0376 L -15.1554,8.75 L -15.8604,7.3958 L -16.4446,5.9854 L -16.9037,4.5293 L -17.2341,3.0388 L -17.4334,1.5252 L -17.5,0.0 L -17.4334,-1.5252 L -17.2341,-3.0388 L -16.9037,-4.5293 L -16.4446,-5.9854 L -15.8604,-7.3958 L -15.1554,-8.75 L -14.3352,-10.0376 L -13.4058,-11.2488 L -12.3744,-12.3744 L -11.2488,-13.4058 L -10.0376,-14.3352 L -8.75,-15.1554 L -7.3958,-15.8604 L -5.9854,-16.4446 L -4.5293,-16.9037 L -3.0388,-17.2341 L -1.5252,-17.4334 L -0.0,-17.5 L 1.5252,-17.4334 L 3.0388,-17.2341 L 4.5293,-16.9037 L 5.9854,-16.4446 L 7.3958,-15.8604 L 8.75,-15.1554 L 10.0376,-14.3352 L 11.2488,-13.4058 L 12.3744,-12.3744 L 13.4058,-11.2488 L 14.3352,-10.0376 L 15.1554,-8.75 L 15.8604,-7.3958 L 16.4446,-5.9854 L 16.9037,-4.5293 L 17.2341,-3.0388 L 17.4334,-1.5252 L 17.5,-0.0 L 17.4334,1.5252 L 17.2341,3.0388 L 16.9037,4.5293 L 16.4446,5.9854 L 15.8604,7.3958 L 15.1554,8.75 L 14.3352,10.0376 L 13.4058,11.2488 L 12.3744,12.3744 L 11.2488,13.4058 L 10.0376,14.3352 L 8.75,15.1554 L 7.3958,15.8604 L 5.9854,16.4446 L 4.5293,16.9037 L 3.0388,17.2341 L 1.5252,17.4334 L 0.0,17.5" />
      <path d="M 0.0,6.5 L -0.5665,6.4753 L -1.1287,6.4013 L -1.6823,6.2785 L -2.2231,6.108 L -2.747,5.891 L -3.25,5.6292 L -3.7282,5.3245 L -4.1781,4.9793 L -4.5962,4.5962 L -4.9793,4.1781 L -5.3245,3.7282 L -5.6292,3.25 L -5.891,2.747 L -6.108,2.2231 L -6.2785,1.6823 L -6.4013,1.1287 L -6.4753,0.5665 L -6.5,-0.0 L -6.4753,-0.5665 L -6.4013,-1.1287 L -6.2785,-1.6823 L -6.108,-2.2231 L -5.891,-2.747 L -5.6292,-3.25 L -5.3245,-3.7282 L -4.9793,-4.1781 L -4.5962,-4.5962 L -4.1781,-4.9793 L -3.7282,-5.3245 L -3.25,-5.6292 L -2.747,-5.891 L -2.2231,-6.108 L -1.6823,-6.2785 L -1.1287,-6.4013 L -0.5665,-6.4753 L 0.0,-6.5 L 0.5665,-6.4753 L 1.1287,-6.4013 L 1.6823,-6.2785 L 2.2231,-6.108 L 2.747,-5.891 L 3.25,-5.6292 L 3.7282,-5.3245 L 4.1781,-4.9793 L 4.5962,-4.5962 L 4.9793,-4.1781 L 5.3245,-3.7282 L 5.6292,-3.25 L 5.891,-2.747 L 6.108,-2.2231 L 6.2785,-1.6823 L 6.4013,-1.1287 L 6.4753,-0.5665 L 6.5,0.0 L 6.4753,0.5665 L 6.4013,1.1287 L 6.2785,1.6823 L 6.108,2.2231 L 5.891,2.747 L 5.6292,3.25 L 5.3245,3.7282 L 4.9793,4.1781 L 4.5962,4.5962 L 4.1781,4.9793 L 3.7282,5.3245 L 3.25,5.6292 L 2.747,5.891 L 2.2231,6.108 L 1.6823,6.2785 L 1.1287,6.4013 L 0.5665,6.4753 L -0.0,6.5" />
      <path d="M 21.5,-17.5 L 21.5,-17.0139 L 21.5,-16.5278 L 21.5,-16.0417 L 21.5,-15.5556 L 21.5,-15.0694 L 21.5,-14.5833 L 21.5,-14.0972 L 21.5,-13.6111 L 21.5,-13.125 L 21.5,-12.6389 L 21.5,-12.1528 L 21.5,-11.6667 L 21.5,-11.1806 L 21.5,-10.6944 L 21.5,-10.2083 L 21.5,-9.7222 L 21.5,-9.2361 L 21.5,-8.75 L 21.5,-8.2639 L 21.5,-7.7778 L 21.5,-7.2917 L 21.5,-6.8056 L 21.5,-6.3194 L 21.5,-5.8333 L 21.5,-5.3472 L 21.5,-4.8611 L 21.5,-4.375 L 21.5,-3.8889 L 21.5,-3.4028 L 21.5,-2.9167 L 21.5,-2.4306 L 21.5,-1.9444 L 21.5,-1.4583 L 21.5,-0.9722 L 21.5,-0.4861 L 21.5,0.0 L 21.5,0.4861 L 21.5,0.9722 L 21.5,1.4583 L 21.5,1.9444 L 21.5,2.4306 L 21.5,2.9167 L 21.5,3.4028 L 21.5,3.8889 L 21.5,4.375 L 21.5,4.8611 L 21.5,5.3472 L 21.5,5.8333 L 21.5,6.3194 L 21.5,6.8056 L 21.5,7.2917 L 21.5,7.7778 L 21.5,8.2639 L 21.5,8.75 L 21.5,9.2361 L 21.5,9.7222 L 21.5,10.2083 L 21.5,10.6944 L 21.5,11.1806 L 21.5,11.6667 L 21.5,12.1528 L 21.5,12.6389 L 21.5,13.125 L 21.5,13.6111 L 21.5,14.0972 L 21.5,14.5833 L 21.5,15.0694 L 21.5,15.5556 L 21.5,16.0417 L 21.5,16.5278 L 21.5,17.0139 L 21.5,17.5" />
      <path d="M 26.5,17.5 L 26.4306,17.5 L 26.3611,17.5 L 26.2917,17.5 L 26.2222,17.5 L 26.1528,17.5 L 26.0833,17.5 L 26.0139,17.5 L 25.9444,17.5 L 25.875,17.5 L 25.8056,17.5 L 25.7361,17.5 L 25.6667,17.5 L 25.5972,17.5 L 25.5278,17.5 L 25.4583,17.5 L 25.3889,17.5 L 25.3194,17.5 L 25.25,17.5 L 25.1806,17.5 L 25.1111,17.5 L 25.0417,17.5 L 24.9722,17.5 L 24.9028,17.5 L 24.8333,17.5 L 24.7639,17.5 L 24.6944,17.5 L 24.625,17.5 L 24.5556,17.5 L 24.4861,17.5 L 24.4167,17.5 L 24.3472,17.5 L 24.2778,17.5 L 24.2083,17.5 L 24.1389,17.5 L 24.0694,17.5 L 24.0,17.5 L 23.9306,17.5 L 23.8611,17.5 L 23.7917,17.5 L 23.7222,17.5 L 23.6528,17.5 L 23.5833,17.5 L 23.5139,17.5 L 23.4444,17.5 L 23.375,17.5 L 23.3056,17.5 L 23.2361,17.5 L 23.1667,17.5 L 23.0972,17.5 L 23.0278,17.5 L 22.9583,17.5 L 22.8889,17.5 L 22.8194,17.5 L 22.75,17.5 L 22.6806,17.5 L 22.6111,17.5 L 22.5417,17.5 L 22.4722,17.5 L 22.4028,17.5 L 22.3333,17.5 L 22.2639,17.5 L 22.1944,17.5 L 22.125,17.5 L 22.0556,17.5 L 21.9861,17.5 L 21.9167,17.5 L 21.8472,17.5 L 21.7778,17.5 L 21.7083,17.5 L 21.6389,17.5 L 21.5694,17.5 L 21.5,17.5" />
      <path d="M 26.5,-17.5 L 26.5,-17.0139 L 26.5,-16.5278 L 26.5,-16.0417 L 26.5,-15.5556 L 26.5,-15.0694 L 26.5,-14.5833 L 26.5,-14.0972 L 26.5,-13.6111 L 26.5,-13.125 L 26.5,-12.6389 L 26.5,-12.1528 L 26.5,-11.6667 L 26.5,-11.1806 L 26.5,-10.6944 L 26.5,-10.2083 L 26.5,-9.7222 L 26.5,-9.2361 L 26.5,-8.75 L 26.5,-8.2639 L 26.5,-7.7778 L 26.5,-7.2917 L 26.5,-6.8056 L 26.5,-6.3194 L 26.5,-5.8333 L 26.5,-5.3472 L 26.5,-4.8611 L 26.5,-4.375 L 26.5,-3.8889 L 26.5,-3.4028 L 26.5,-2.9167 L 26.5,-2.4306 L 26.5,-1.9444 L 26.5,-1.4583 L 26.5,-0.9722 L 26.5,-0.4861 L 26.5,0.0 L 26.5,0.4861 L 26.5,0.9722 L 26.5,1.4583 L 26.5,1.9444 L 26.5,2.4306 L 26.5,2.9167 L 26.5,3.4028 L 26.5,3.8889 L 26.5,4.375 L 26.5,4.8611 L 26.5,5.3472 L 26.5,5.8333 L 26.5,6.3194 L 26.5,6.8056 L 26.5,7.2917 L 26.5,7.7778 L 26.5,8.2639 L 26.5,8.75 L 26.5,9.2361 L 26.5,9.7222 L 26.5,10.2083 L 26.5,10.6944 L 26.5,11.1806 L 26.5,11.6667 L 26.5,12.1528 L 26.5,12.6389 L 26.5,13.125 L 26.5,13.6111 L 26.5,14.0972 L 26.5,14.5833 L 26.5,15.0694 L 26.5,15.5556 L 26.5,16.0417 L 26.5,16.5278 L 26.5,17.0139 L 26.5,17.5" />
      <path d="M 26.5,-17.5 L 26.4306,-17.5 L 26.3611,-17.5 L 26.2917,-17.5 L 26.2222,-17.5 L 26.1528,-17.5 L 26.0833,-17.5 L 26.0139,-17.5 L 25.9444,-17.5 L 25.875,-17.5 L 25.8056,-17.5 L 25.7361,-17.5 L 25.6667,-17.5 L 25.5972,-17.5 L 25.5278,-17.5 L 25.4583,-17.5 L 25.3889,-17.5 L 25.3194,-17.5 L 25.25,-17.5 L 25.1806,-17.5 L 25.1111,-17.5 L 25.0417,-17.5 L 24.9722,-17.5 L 24.9028,-17.5 L 24.8333,-17.5 L 24.7639,-17.5 L 24.6944,-17.5 L 24.625,-17.5 L 24.5556,-17.5 L 24.4861,-17.5 L 24.4167,-17.5 L 24.3472,-17.5 L 24.2778,-17.5 L 24.2083,-17.5 L 24.1389,-17.5 L 24.0694,-17.5 L 24.0,-17.5 L 23.9306,-17.5 L 23.8611,-17.5 L 23.7917,-17.5 L 23.7222,-17.5 L 23.6528,-17.5 L 23.5833,-17.5 L 23.5139,-17.5 L 23.4444,-17.5 L 23.375,-17.5 L 23.3056,-17.5 L 23.2361,-17.5 L 23.1667,-17.5 L 23.0972,-17.5 L 23.0278,-17.5 L 22.9583,-17.5 L 22.8889,-17.5 L 22.8194,-17.5 L 22.75,-17.5 L 22.6806,-17.5 L 22.6111,-17.5 L 22.5417,-17.5 L 22.4722,-17.5 L 22.4028,-17.5 L 22.3333,-17.5 L 22.2639,-17.5 L 22.1944,-17.5 L 22.125,-17.5 L 22.0556,-17.5 L 21.9861,-17.5 L 21.9167,-17.5 L 21.8472,-17.5 L 21.7778,-17.5 L 21.7083,-17.5 L 21.6389,-17.5 L 21.5694,-17.5 L 21.5,-17.5" />
    </g>
    <g fill="none" stroke="rgb(110,110,110)" stroke-width="0.3" id="Hidden" stroke-dasharray="3.6 0.9">
      <path d="M 0.0,17.5 L -1.5252,17.4334 L -3.0388,17.2341 L -4.5293,16.9037 L -5.9854,16.4446 L -7.3958,15.8604 L -8.75,15.1554 L -10.0376,14.3352 L -11.2488,13.4058 L -12.3744,12.3744 L -13.4058,11.2488 L -14.3352,10.0376 L -15.1554,8.75 L -15.8604,7.3958 L -16.4446,5.9854 L -16.9037,4.5293 L -17.2341,3.0388 L -17.4334,1.5252 L -17.5,0.0 L -17.4334,-1.5252 L -17.2341,-3.0388 L -16.9037,-4.5293 L -16.4446,-5.9854 L -15.8604,-7.3958 L -15.1554,-8.75 L -14.3352,-10.0376 L -13.4058,-11.2488 L -12.3744,-12.3744 L -11.2488,-13.4058 L -10.0376,-14.3352 L -8.75,-15.1554 L -7.3958,-15.8604 L -5.9854,-16.4446 L -4.5293,-16.9037 L -3.0388,-17.2341 L -1.5252,-17.4334 L -0.0,-17.5 L 1.5252,-17.4334 L 3.0388,-17.2341 L 4.5293,-16.9037 L 5.9854,-16.4446 L 7.3958,-15.8604 L 8.75,-15.1554 L 10.0376,-14.3352 L 11.2488,-13.4058 L 12.3744,-12.3744 L 13.4058,-11.2488 L 14.3352,-10.0376 L 15.1554,-8.75 L 15.8604,-7.3958 L 16.4446,-5.9854 L 16.9037,-4.5293 L 17.2341,-3.0388 L 17.4334,-1.5252 L 17.5,-0.0 L 17.4334,1.5252 L 17.2341,3.0388 L 16.9037,4.5293 L 16.4446,5.9854 L 15.8604,7.3958 L 15.1554,8.75 L 14.3352,10.0376 L 13.4058,11.2488 L 12.3744,12.3744 L 11.2488,13.4058 L 10.0376,14.3352 L 8.75,15.1554 L 7.3958,15.8604 L 5.9854,16.4446 L 4.5293,16.9037 L 3.0388,17.2341 L 1.5252,17.4334 L 0.0,17.5" />
      <path d="M 0.0,6.5 L -0.5665,6.4753 L -1.1287,6.4013 L -1.6823,6.2785 L -2.2231,6.108 L -2.747,5.891 L -3.25,5.6292 L -3.7282,5.3245 L -4.1781,4.9793 L -4.5962,4.5962 L -4.9793,4.1781 L -5.3245,3.7282 L -5.6292,3.25 L -5.891,2.747 L -6.108,2.2231 L -6.2785,1.6823 L -6.4013,1.1287 L -6.4753,0.5665 L -6.5,-0.0 L -6.4753,-0.5665 L -6.4013,-1.1287 L -6.2785,-1.6823 L -6.108,-2.2231 L -5.891,-2.747 L -5.6292,-3.25 L -5.3245,-3.7282 L -4.9793,-4.1781 L -4.5962,-4.5962 L -4.1781,-4.9793 L -3.7282,-5.3245 L -3.25,-5.6292 L -2.747,-5.891 L -2.2231,-6.108 L -1.6823,-6.2785 L -1.1287,-6.4013 L -0.5665,-6.4753 L 0.0,-6.5 L 0.5665,-6.4753 L 1.1287,-6.4013 L 1.6823,-6.2785 L 2.2231,-6.108 L 2.747,-5.891 L 3.25,-5.6292 L 3.7282,-5.3245 L 4.1781,-4.9793 L 4.5962,-4.5962 L 4.9793,-4.1781 L 5.3245,-3.7282 L 5.6292,-3.25 L 5.891,-2.747 L 6.108,-2.2231 L 6.2785,-1.6823 L 6.4013,-1.1287 L 6.4753,-0.5665 L 6.5,0.0 L 6.4753,0.5665 L 6.4013,1.1287 L 6.2785,1.6823 L 6.108,2.2231 L 5.891,2.747 L 5.6292,3.25 L 5.3245,3.7282 L 4.9793,4.1781 L 4.5962,4.5962 L 4.1781,4.9793 L 3.7282,5.3245 L 3.25,5.6292 L 2.747,5.891 L 2.2231,6.108 L 1.6823,6.2785 L 1.1287,6.4013 L 0.5665,6.4753 L -0.0,6.5" />
      <path d="M 21.5,17.5 L 21.5,17.0139 L 21.5,16.5278 L 21.5,16.0417 L 21.5,15.5556 L 21.5,15.0694 L 21.5,14.5833 L 21.5,14.0972 L 21.5,13.6111 L 21.5,13.125 L 21.5,12.6389 L 21.5,12.1528 L 21.5,11.6667 L 21.5,11.1806 L 21.5,10.6944 L 21.5,10.2083 L 21.5,9.7222 L 21.5,9.2361 L 21.5,8.75 L 21.5,8.2639 L 21.5,7.7778 L 21.5,7.2917 L 21.5,6.8056 L 21.5,6.3194 L 21.5,5.8333 L 21.5,5.3472 L 21.5,4.8611 L 21.5,4.375 L 21.5,3.8889 L 21.5,3.4028 L 21.5,2.9167 L 21.5,2.4306 L 21.5,1.9444 L 21.5,1.4583 L 21.5,0.9722 L 21.5,0.4861 L 21.5,0.0 L 21.5,-0.4861 L 21.5,-0.9722 L 21.5,-1.4583 L 21.5,-1.9444 L 21.5,-2.4306 L 21.5,-2.9167 L 21.5,-3.4028 L 21.5,-3.8889 L 21.5,-4.375 L 21.5,-4.8611 L 21.5,-5.3472 L 21.5,-5.8333 L 21.5,-6.3194 L 21.5,-6.8056 L 21.5,-7.2917 L 21.5,-7.7778 L 21.5,-8.2639 L 21.5,-8.75 L 21.5,-9.2361 L 21.5,-9.7222 L 21.5,-10.2083 L 21.5,-10.6944 L 21.5,-11.1806 L 21.5,-11.6667 L 21.5,-12.1528 L 21.5,-12.6389 L 21.5,-13.125 L 21.5,-13.6111 L 21.5,-14.0972 L 21.5,-14.5833 L 21.5,-15.0694 L 21.5,-15.5556 L 21.5,-16.0417 L 21.5,-16.5278 L 21.5,-17.0139 L 21.5,-17.5" />
      <path d="M 26.5,17.5 L 26.5,17.0139 L 26.5,16.5278 L 26.5,16.0417 L 26.5,15.5556 L 26.5,15.0694 L 26.5,14.5833 L 26.5,14.0972 L 26.5,13.6111 L 26.5,13.125 L 26.5,12.6389 L 26.5,12.1528 L 26.5,11.6667 L 26.5,11.1806 L 26.5,10.6944 L 26.5,10.2083 L 26.5,9.7222 L 26.5,9.2361 L 26.5,8.75 L 26.5,8.2639 L 26.5,7.7778 L 26.5,7.2917 L 26.5,6.8056 L 26.5,6.3194 L 26.5,5.8333 L 26.5,5.3472 L 26.5,4.8611 L 26.5,4.375 L 26.5,3.8889 L 26.5,3.4028 L 26.5,2.9167 L 26.5,2.4306 L 26.5,1.9444 L 26.5,1.4583 L 26.5,0.9722 L 26.5,0.4861 L 26.5,0.0 L 26.5,-0.4861 L 26.5,-0.9722 L 26.5,-1.4583 L 26.5,-1.9444 L 26.5,-2.4306 L 26.5,-2.9167 L 26.5,-3.4028 L 26.5,-3.8889 L 26.5,-4.375 L 26.5,-4.8611 L 26.5,-5.3472 L 26.5,-5.8333 L 26.5,-6.3194 L 26.5,-6.8056 L 26.5,-7.2917 L 26.5,-7.7778 L 26.5,-8.2639 L 26.5,-8.75 L 26.5,-9.2361 L 26.5,-9.7222 L 26.5,-10.2083 L 26.5,-10.6944 L 26.5,-11.1806 L 26.5,-11.6667 L 26.5,-12.1528 L 26.5,-12.6389 L 26.5,-13.125 L 26.5,-13.6111 L 26.5,-14.0972 L 26.5,-14.5833 L 26.5,-15.0694 L 26.5,-15.5556 L 26.5,-16.0417 L 26.5,-16.5278 L 26.5,-17.0139 L 26.5,-17.5" />
      <path d="M 21.5,6.5 L 21.5,6.3194 L 21.5,6.1389 L 21.5,5.9583 L 21.5,5.7778 L 21.5,5.5972 L 21.5,5.4167 L 21.5,5.2361 L 21.5,5.0556 L 21.5,4.875 L 21.5,4.6944 L 21.5,4.5139 L 21.5,4.3333 L 21.5,4.1528 L 21.5,3.9722 L 21.5,3.7917 L 21.5,3.6111 L 21.5,3.4306 L 21.5,3.25 L 21.5,3.0694 L 21.5,2.8889 L 21.5,2.7083 L 21.5,2.5278 L 21.5,2.3472 L 21.5,2.1667 L 21.5,1.9861 L 21.5,1.8056 L 21.5,1.625 L 21.5,1.4444 L 21.5,1.2639 L 21.5,1.0833 L 21.5,0.9028 L 21.5,0.7222 L 21.5,0.5417 L 21.5,0.3611 L 21.5,0.1806 L 21.5,0.0 L 21.5,-0.1806 L 21.5,-0.3611 L 21.5,-0.5417 L 21.5,-0.7222 L 21.5,-0.9028 L 21.5,-1.0833 L 21.5,-1.2639 L 21.5,-1.4444 L 21.5,-1.625 L 21.5,-1.8056 L 21.5,-1.9861 L 21.5,-2.1667 L 21.5,-2.3472 L 21.5,-2.5278 L 21.5,-2.7083 L 21.5,-2.8889 L 21.5,-3.0694 L 21.5,-3.25 L 21.5,-3.4306 L 21.5,-3.6111 L 21.5,-3.7917 L 21.5,-3.9722 L 21.5,-4.1528 L 21.5,-4.3333 L 21.5,-4.5139 L 21.5,-4.6944 L 21.5,-4.875 L 21.5,-5.0556 L 21.5,-5.2361 L 21.5,-5.4167 L 21.5,-5.5972 L 21.5,-5.7778 L 21.5,-5.9583 L 21.5,-6.1389 L 21.5,-6.3194 L 21.5,-6.5" />
      <path d="M 21.5,-6.5 L 21.5,-6.3194 L 21.5,-6.1389 L 21.5,-5.9583 L 21.5,-5.7778 L 21.5,-5.5972 L 21.5,-5.4167 L 21.5,-5.2361 L 21.5,-5.0556 L 21.5,-4.875 L 21.5,-4.6944 L 21.5,-4.5139 L 21.5,-4.3333 L 21.5,-4.1528 L 21.5,-3.9722 L 21.5,-3.7917 L 21.5,-3.6111 L 21.5,-3.4306 L 21.5,-3.25 L 21.5,-3.0694 L 21.5,-2.8889 L 21.5,-2.7083 L 21.5,-2.5278 L 21.5,-2.3472 L 21.5,-2.1667 L 21.5,-1.9861 L 21.5,-1.8056 L 21.5,-1.625 L 21.5,-1.4444 L 21.5,-1.2639 L 21.5,-1.0833 L 21.5,-0.9028 L 21.5,-0.7222 L 21.5,-0.5417 L 21.5,-0.3611 L 21.5,-0.1806 L 21.5,0.0 L 21.5,0.1806 L 21.5,0.3611 L 21.5,0.5417 L 21.5,0.7222 L 21.5,0.9028 L 21.5,1.0833 L 21.5,1.2639 L 21.5,1.4444 L 21.5,1.625 L 21.5,1.8056 L 21.5,1.9861 L 21.5,2.1667 L 21.5,2.3472 L 21.5,2.5278 L 21.5,2.7083 L 21.5,2.8889 L 21.5,3.0694 L 21.5,3.25 L 21.5,3.4306 L 21.5,3.6111 L 21.5,3.7917 L 21.5,3.9722 L 21.5,4.1528 L 21.5,4.3333 L 21.5,4.5139 L 21.5,4.6944 L 21.5,4.875 L 21.5,5.0556 L 21.5,5.2361 L 21.5,5.4167 L 21.5,5.5972 L 21.5,5.7778 L 21.5,5.9583 L 21.5,6.1389 L 21.5,6.3194 L 21.5,6.5" />
      <path d="M 26.5,6.5 L 26.5,6.3194 L 26.5,6.1389 L 26.5,5.9583 L 26.5,5.7778 L 26.5,5.5972 L 26.5,5.4167 L 26.5,5.2361 L 26.5,5.0556 L 26.5,4.875 L 26.5,4.6944 L 26.5,4.5139 L 26.5,4.3333 L 26.5,4.1528 L 26.5,3.9722 L 26.5,3.7917 L 26.5,3.6111 L 26.5,3.4306 L 26.5,3.25 L 26.5,3.0694 L 26.5,2.8889 L 26.5,2.7083 L 26.5,2.5278 L 26.5,2.3472 L 26.5,2.1667 L 26.5,1.9861 L 26.5,1.8056 L 26.5,1.625 L 26.5,1.4444 L 26.5,1.2639 L 26.5,1.0833 L 26.5,0.9028 L 26.5,0.7222 L 26.5,0.5417 L 26.5,0.3611 L 26.5,0.1806 L 26.5,0.0 L 26.5,-0.1806 L 26.5,-0.3611 L 26.5,-0.5417 L 26.5,-0.7222 L 26.5,-0.9028 L 26.5,-1.0833 L 26.5,-1.2639 L 26.5,-1.4444 L 26.5,-1.625 L 26.5,-1.8056 L 26.5,-1.9861 L 26.5,-2.1667 L 26.5,-2.3472 L 26.5,-2.5278 L 26.5,-2.7083 L 26.5,-2.8889 L 26.5,-3.0694 L 26.5,-3.25 L 26.5,-3.4306 L 26.5,-3.6111 L 26.5,-3.7917 L 26.5,-3.9722 L 26.5,-4.1528 L 26.5,-4.3333 L 26.5,-4.5139 L 26.5,-4.6944 L 26.5,-4.875 L 26.5,-5.0556 L 26.5,-5.2361 L 26.5,-5.4167 L 26.5,-5.5972 L 26.5,-5.7778 L 26.5,-5.9583 L 26.5,-6.1389 L 26.5,-6.3194 L 26.5,-6.5" />
      <path d="M 26.5,-6.5 L 26.5,-6.3194 L 26.5,-6.1389 L 26.5,-5.9583 L 26.5,-5.7778 L 26.5,-5.5972 L 26.5,-5.4167 L 26.5,-5.2361 L 26.5,-5.0556 L 26.5,-4.875 L 26.5,-4.6944 L 26.5,-4.5139 L 26.5,-4.3333 L 26.5,-4.1528 L 26.5,-3.9722 L 26.5,-3.7917 L 26.5,-3.6111 L 26.5,-3.4306 L 26.5,-3.25 L 26.5,-3.0694 L 26.5,-2.8889 L 26.5,-2.7083 L 26.5,-2.5278 L 26.5,-2.3472 L 26.5,-2.1667 L 26.5,-1.9861 L 26.5,-1.8056 L 26.5,-1.625 L 26.5,-1.4444 L 26.5,-1.2639 L 26.5,-1.0833 L 26.5,-0.9028 L 26.5,-0.7222 L 26.5,-0.5417 L 26.5,-0.3611 L 26.5,-0.1806 L 26.5,0.0 L 26.5,0.1806 L 26.5,0.3611 L 26.5,0.5417 L 26.5,0.7222 L 26.5,0.9028 L 26.5,1.0833 L 26.5,1.2639 L 26.5,1.4444 L 26.5,1.625 L 26.5,1.8056 L 26.5,1.9861 L 26.5,2.1667 L 26.5,2.3472 L 26.5,2.5278 L 26.5,2.7083 L 26.5,2.8889 L 26.5,3.0694 L 26.5,3.25 L 26.5,3.4306 L 26.5,3.6111 L 26.5,3.7917 L 26.5,3.9722 L 26.5,4.1528 L 26.5,4.3333 L 26.5,4.5139 L 26.5,4.6944 L 26.5,4.875 L 26.5,5.0556 L 26.5,5.2361 L 26.5,5.4167 L 26.5,5.5972 L 26.5,5.7778 L 26.5,5.9583 L 26.5,6.1389 L 26.5,6.3194 L 26.5,6.5" />
      <path d="M 26.5,6.5 L 26.4306,6.5 L 26.3611,6.5 L 26.2917,6.5 L 26.2222,6.5 L 26.1528,6.5 L 26.0833,6.5 L 26.0139,6.5 L 25.9444,6.5 L 25.875,6.5 L 25.8056,6.5 L 25.7361,6.5 L 25.6667,6.5 L 25.5972,6.5 L 25.5278,6.5 L 25.4583,6.5 L 25.3889,6.5 L 25.3194,6.5 L 25.25,6.5 L 25.1806,6.5 L 25.1111,6.5 L 25.0417,6.5 L 24.9722,6.5 L 24.9028,6.5 L 24.8333,6.5 L 24.7639,6.5 L 24.6944,6.5 L 24.625,6.5 L 24.5556,6.5 L 24.4861,6.5 L 24.4167,6.5 L 24.3472,6.5 L 24.2778,6.5 L 24.2083,6.5 L 24.1389,6.5 L 24.0694,6.5 L 24.0,6.5 L 23.9306,6.5 L 23.8611,6.5 L 23.7917,6.5 L 23.7222,6.5 L 23.6528,6.5 L 23.5833,6.5 L 23.5139,6.5 L 23.4444,6.5 L 23.375,6.5 L 23.3056,6.5 L 23.2361,6.5 L 23.1667,6.5 L 23.0972,6.5 L 23.0278,6.5 L 22.9583,6.5 L 22.8889,6.5 L 22.8194,6.5 L 22.75,6.5 L 22.6806,6.5 L 22.6111,6.5 L 22.5417,6.5 L 22.4722,6.5 L 22.4028,6.5 L 22.3333,6.5 L 22.2639,6.5 L 22.1944,6.5 L 22.125,6.5 L 22.0556,6.5 L 21.9861,6.5 L 21.9167,6.5 L 21.8472,6.5 L 21.7778,6.5 L 21.7083,6.5 L 21.6389,6.5 L 21.5694,6.5 L 21.5,6.5" />
      <path d="M 26.5,-6.5 L 26.4306,-6.5 L 26.3611,-6.5 L 26.2917,-6.5 L 26.2222,-6.5 L 26.1528,-6.5 L 26.0833,-6.5 L 26.0139,-6.5 L 25.9444,-6.5 L 25.875,-6.5 L 25.8056,-6.5 L 25.7361,-6.5 L 25.6667,-6.5 L 25.5972,-6.5 L 25.5278,-6.5 L 25.4583,-6.5 L 25.3889,-6.5 L 25.3194,-6.5 L 25.25,-6.5 L 25.1806,-6.5 L 25.1111,-6.5 L 25.0417,-6.5 L 24.9722,-6.5 L 24.9028,-6.5 L 24.8333,-6.5 L 24.7639,-6.5 L 24.6944,-6.5 L 24.625,-6.5 L 24.5556,-6.5 L 24.4861,-6.5 L 24.4167,-6.5 L 24.3472,-6.5 L 24.2778,-6.5 L 24.2083,-6.5 L 24.1389,-6.5 L 24.0694,-6.5 L 24.0,-6.5 L 23.9306,-6.5 L 23.8611,-6.5 L 23.7917,-6.5 L 23.7222,-6.5 L 23.6528,-6.5 L 23.5833,-6.5 L 23.5139,-6.5 L 23.4444,-6.5 L 23.375,-6.5 L 23.3056,-6.5 L 23.2361,-6.5 L 23.1667,-6.5 L 23.0972,-6.5 L 23.0278,-6.5 L 22.9583,-6.5 L 22.8889,-6.5 L 22.8194,-6.5 L 22.75,-6.5 L 22.6806,-6.5 L 22.6111,-6.5 L 22.5417,-6.5 L 22.4722,-6.5 L 22.4028,-6.5 L 22.3333,-6.5 L 22.2639,-6.5 L 22.1944,-6.5 L 22.125,-6.5 L 22.0556,-6.5 L 21.9861,-6.5 L 21.9167,-6.5 L 21.8472,-6.5 L 21.7778,-6.5 L 21.7083,-6.5 L 21.6389,-6.5 L 21.5694,-6.5 L 21.5,-6.5" />
    </g>
    <g fill="none" stroke="rgb(0,0,0)" stroke-width="0.2" id="Center" stroke-dasharray="6.35 1.27 1.27 1.27">
      <line x1="0.0" y1="0.0" x2="-20.3" y2="0.0" />
      <line x1="0.0" y1="0.0" x2="20.3" y2="0.0" />
      <line x1="0.0" y1="0.0" x2="0.0" y2="-20.3" />
      <line x1="0.0" y1="0.0" x2="0.0" y2="20.3" />
      <line x1="24.0" y1="0.0" x2="18.7" y2="0.0" />
      <line x1="24.0" y1="0.0" x2="29.3" y2="0.0" />
    </g>
  </g>
</svg>