<?xml version='1.0' encoding='utf-8'?>
<svg width="41.2913mm" height="32.24mm" viewBox="-16.12 -16.12 41.2913 32.24" version="1.1" xmlns="http://www.w3.org/2000/svg">
  <g transform="scale(1,-1)" stroke-linecap="round">
    <g fill="none" stroke="rgb(0,0,0)" stroke-width="0.4" id="Visible">
      <path d="M 0.0,12.0 L -1.0459,11.9543 L -2.0838,11.8177 L -3.1058,11.5911 L -4.1042,11.2763 L -5.0714,10.8757 L -6.0,10.3923 L -6.8829,9.8298 L -7.7135,9.1925 L -8.4853,8.4853 L -9.1925,7.7135 L -9.8298,6.8829 L -10.3923,6.0 L -10.8757,5.0714 L -11.2763,4.1042 L -11.5911,3.1058 L -11.8177,2.0838 L -11.9543,1.0459 L -12.0,0.0 L -11.9543,-1.0459 L -11.8177,-2.0838 L -11.5911,-3.1058 L -11.2763,-4.1042 L -10.8757,-5.0714 L -10.3923,-6.0 L -9.8298,-6.8829 L -9.1925,-7.7135 L -8.4853,-8.4853 L -7.7135,-9.1925 L -6.8829,-9.8298 L -6.0,-10.3923 L -5.0714,-10.8757 L -4.1042,-11.2763 L -3.1058,-11.5911 L -2.0838,-11.8177 L -1.0459,-11.9543 L -0.0,-12.0 L 1.0459,-11.9543 L 2.0838,-11.8177 L 3.1058,-11.5911 L 4.1042,-11.2763 L 5.0714,-10.8757 L 6.0,-10.3923 L 6.8829,-9.8298 L 7.7135,-9.1925 L 8.4853,-8.4853 L 9.1925,-7.7135 L 9.8298,-6.8829 L 10.3923,-6.0 L 10.8757,-5.0714 L 11.2763,-4.1042 L 11.5911,-3.1058 L 11.8177,-2.0838 L 11.9543,-1.0459 L 12.0,-0.0 L 11.9543,1.0459 L 11.8177,2.0838 L 11.5911,3.1058 L 11.2763,4.1042 L 10.8757,5.0714 L 10.3923,6.0 L 9.8298,6.8829 L 9.1925,7.7135 L 8.4853,8.4853 L 7.7135,9.1925 L 6.8829,9.8298 L 6.0,10.3923 L 5.0714,10.8757 L 4.1042,11.2763 L 3.1058,11.5911 L 2.0838,11.8177 L 1.0459,11.9543 L 0.0,12.0" />
      <path d="M 0.0,7.1 L -0.6188,7.073 L -1.2329,6.9921 L -1.8376,6.8581 L -2.4283,6.6718 L -3.0006,6.4348 L -3.55,6.1488 L -4.0724,5.816 L -4.5638,5.4389 L -5.0205,5.0205 L -5.4389,4.5638 L -5.816,4.0724 L -6.1488,3.55 L -6.4348,3.0006 L -6.6718,2.4283 L -6.8581,1.8376 L -6.9921,1.2329 L -7.073,0.6188 L -7.1,0.0 L -7.073,-0.6188 L -6.9921,-1.2329 L -6.8581,-1.8376 L -6.6718,-2.4283 L -6.4348,-3.0006 L -6.1488,-3.55 L -5.816,-4.0724 L -5.4389,-4.5638 L -5.0205,-5.0205 L -4.5638,-5.4389 L -4.0724,-5.816 L -3.55,-6.1488 L -3.0006,-6.4348 L -2.4283,-6.6718 L -1.8376,-6.8581 L -1.2329,-6.9921 L -0.6188,-7.073 L -0.0,-7.1 L 0.6188,-7.073 L 1.2329,-6.9921 L 1.8376,-6.8581 L 2.4283,-6.6718 L 3.0006,-6.4348 L 3.55,-6.1488 L 4.0724,-5.816 L 4.5638,-5.4389 L 5.0205,-5.0205 L 5.4389,-4.5638 L 5.816,-4.0724 L 6.1488,-3.55 L 6.4348,-3.0006 L 6.6718,-2.4283 L 6.8581,-1.8376 L 6.9921,-1.2329 L 7.073,-0.6188 L 7.1,-0.0 L 7.073,0.6188 L 6.9921,1.2329 L 6.8581,1.8376 L 6.6718,2.4283 L 6.4348,3.0006 L 6.1488,3.55 L 5.816,4.0724 L 5.4389,4.5638 L 5.0205,5.0205 L 4.5638,5.4389 L 4.0724,5.816 L 3.55,6.1488 L 3.0006,6.4348 L 2.4283,6.6718 L 1.8376,6.8581 L 1.2329,6.9921 L 0.6188,7.073 L 0.0,7.1" />
      <path d="M 21.0257,7.1 L 21.0292,6.9029 L 21.0306,6.7056 L 21.0317,6.5084 L 21.0326,6.3112 L 21.0334,6.114 L 21.0341,5.9167 L 21.0347,5.7195 L 21.0352,5.5223 L 21.0357,5.3251 L 21.0362,5.1278 L 21.0366,4.9306 L 21.037,4.7334 L 21.0373,4.5362 L 21.0377,4.339 L 21.038,4.1417 L 21.0383,3.9445 L 21.0386,3.7473 L 21.0388,3.5501 L 21.039,3.3528 L 21.0393,3.1556 L 21.0395,2.9584 L 21.0396,2.7612 L 21.0398,2.5639 L 21.04,2.3667 L 21.0401,2.1695 L 21.0402,1.9723 L 21.0404,1.775 L 21.0405,1.5778 L 21.0406,1.3806 L 21.0406,1.1834 L 21.0407,0.9861 L 21.0407,0.7889 L 21.0408,0.5917 L 21.0408,0.3945 L 21.0408,0.1972 L 21.0408,0.0 L 21.0408,-0.1972 L 21.0408,-0.3944 L 21.0408,-0.5917 L 21.0407,-0.7889 L 21.0407,-0.9861 L 21.0406,-1.1833 L 21.0406,-1.3806 L 21.0405,-1.5778 L 21.0404,-1.775 L 21.0402,-1.9722 L 21.0401,-2.1695 L 21.04,-2.3667 L 21.0398,-2.5639 L 21.0396,-2.7611 L 21.0395,-2.9584 L 21.0393,-3.1556 L 21.039,-3.3528 L 21.0388,-3.55 L 21.0386,-3.7473 L 21.0383,-3.9445 L 21.038,-4.1417 L 21.0377,-4.3389 L 21.0373,-4.5361 L 21.037,-4.7334 L 21.0366,-4.9306 L 21.0362,-5.1278 L 21.0357,-5.325 L 21.0352,-5.5223 L 21.0347,-5.7195 L 21.0341,-5.9167 L 21.0334,-6.1139 L 21.0326,-6.3112 L 21.0317,-6.5084 L 21.0306,-6.7056 L 21.0292,-6.9028 L 21.0257,-7.1" />
      <path d="M 21.0257,-7.1 L 21.0221,-6.9029 L 21.0207,-6.7056 L 21.0196,-6.5084 L 21.0187,-6.3112 L 21.0179,-6.114 L 21.0173,-5.9167 L 21.0167,-5.7195 L 21.0161,-5.5223 L 21.0156,-5.3251 L 21.0152,-5.1278 L 21.0147,-4.9306 L 21.0143,-4.7334 L 21.014,-4.5362 L 21.0136,-4.339 L 21.0133,-4.1417 L 21.013,-3.9445 L 21.0128,-3.7473 L 21.0125,-3.5501 L 21.0123,-3.3528 L 21.0121,-3.1556 L 21.0119,-2.9584 L 21.0117,-2.7612 L 21.0115,-2.5639 L 21.0113,-2.3667 L 21.0112,-2.1695 L 21.0111,-1.9723 L 21.011,-1.775 L 21.0108,-1.5778 L 21.0108,-1.3806 L 21.0107,-1.1834 L 21.0106,-0.9861 L 21.0106,-0.7889 L 21.0105,-0.5917 L 21.0105,-0.3945 L 21.0105,-0.1972 L 21.0105,0.0 L 21.0105,0.1972 L 21.0105,0.3944 L 21.0105,0.5917 L 21.0106,0.7889 L 21.0106,0.9861 L 21.0107,1.1833 L 21.0108,1.3806 L 21.0108,1.5778 L 21.011,1.775 L 21.0111,1.9722 L 21.0112,2.1695 L 21.0113,2.3667 L 21.0115,2.5639 L 21.0117,2.7611 L 21.0119,2.9584 L 21.0121,3.1556 L 21.0123,3.3528 L 21.0125,3.55 L 21.0128,3.7473 L 21.013,3.9445 L 21.0133,4.1417 L 21.0136,4.3389 L 21.014,4.5361 L 21.0143,4.7334 L 21.0147,4.9306 L 21.0152,5.1278 L 21.0156,5.325 L 21.0161,5.5223 L 21.0167,5.7195 L 21.0173,5.9167 L 21.0179,6.1139 L 21.0187,6.3112 L 21.0196,6.5084 L 21.0207,6.7056 L 21.0221,6.9028 L 21.0257,7.1" />
      <path d="M 21.0257,12.0 L 21.0317,11.6668 L 21.0341,11.3335 L 21.0359,11.0001 L 21.0374,10.6668 L 21.0387,10.3335 L 21.0398,10.0001 L 21.0409,9.6668 L 21.0418,9.3335 L 21.0426,9.0001 L 21.0434,8.6668 L 21.0441,8.3334 L 21.0448,8.0001 L 21.0454,7.6668 L 21.046,7.3334 L 21.0465,7.0001 L 21.047,6.6668 L 21.0475,6.3334 L 21.0479,6.0001 L 21.0483,5.6668 L 21.0486,5.3334 L 21.049,5.0001 L 21.0493,4.6667 L 21.0496,4.3334 L 21.0499,4.0001 L 21.0501,3.6667 L 21.0503,3.3334 L 21.0505,3.0001 L 21.0507,2.6667 L 21.0508,2.3334 L 21.051,2.0 L 21.0511,1.6667 L 21.0512,1.3334 L 21.0512,1.0 L 21.0513,0.6667 L 21.0513,0.3334 L 21.0513,0.0 L 21.0513,-0.3333 L 21.0513,-0.6667 L 21.0512,-1.0 L 21.0512,-1.3333 L 21.0511,-1.6667 L 21.051,-2.0 L 21.0508,-2.3333 L 21.0507,-2.6667 L 21.0505,-3.0 L 21.0503,-3.3334 L 21.0501,-3.6667 L 21.0499,-4.0 L 21.0496,-4.3334 L 21.0493,-4.6667 L 21.049,-5.0 L 21.0486,-5.3334 L 21.0483,-5.6667 L 21.0479,-6.0 L 21.0475,-6.3334 L 21.047,-6.6667 L 21.0465,-7.0001 L 21.046,-7.3334 L 21.0454,-7.6667 L 21.0448,-8.0001 L 21.0441,-8.3334 L 21.0434,-8.6667 L 21.0426,-9.0001 L 21.0418,-9.3334 L 21.0409,-9.6667 L 21.0398,-10.0001 L 21.0387,-10.3334 L 21.0374,-10.6668 L 21.0359,-11.0001 L 21.0341,-11.3334 L 21.0317,-11.6668 L 21.0257,-12.0" />
      <path d="M 21.0257,-12.0 L 21.0196,-11.6668 L 21.0172,-11.3335 L 21.0154,-11.0001 L 21.0139,-10.6668 L 21.0126,-10.3335 L 21.0115,-10.0001 L 21.0104,-9.6668 L 21.0095,-9.3335 L 21.0087,-9.0001 L 21.0079,-8.6668 L 21.0072,-8.3334 L 21.0065,-8.0001 L 21.0059,-7.6668 L 21.0053,-7.3334 L 21.0048,-7.0001 L 21.0043,-6.6668 L 21.0039,-6.3334 L 21.0034,-6.0001 L 21.003,-5.6668 L 21.0027,-5.3334 L 21.0023,-5.0001 L 21.002,-4.6667 L 21.0017,-4.3334 L 21.0015,-4.0001 L 21.0012,-3.6667 L 21.001,-3.3334 L 21.0008,-3.0001 L 21.0006,-2.6667 L 21.0005,-2.3334 L 21.0003,-2.0 L 21.0002,-1.6667 L 21.0001,-1.3334 L 21.0001,-1.0 L 21.0,-0.6667 L 21.0,-0.3334 L 21.0,0.0 L 21.0,0.3333 L 21.0,0.6667 L 21.0001,1.0 L 21.0001,1.3333 L 21.0002,1.6667 L 21.0003,2.0 L 21.0005,2.3333 L 21.0006,2.6667 L 21.0008,3.0 L 21.001,3.3334 L 21.0012,3.6667 L 21.0015,4.0 L 21.0017,4.3334 L 21.002,4.6667 L 21.0023,5.0 L 21.0027,5.3334 L 21.003,5.6667 L 21.0034,6.0 L 21.0039,6.3334 L 21.0043,6.6667 L 21.0048,7.0001 L 21.0053,7.3334 L 21.0059,7.6667 L 21.0065,8.0001 L 21.0072,8.3334 L 21.0079,8.6667 L 21.0087,9.0001 L 21.0095,9.3334 L 21.0104,9.6667 L 21.0115,10.0001 L 21.0126,10.3334 L 21.0139,10.6668 L 21.0154,11.0001 L 21.0172,11.3334 L 21.0196,11.6668 L 21.0257,12.0" />
      <path d="M 16.0257,-12.0 L 16.0197,-11.6668 L 16.0172,-11.3335 L 16.0154,-11.0001 L 16.0139,-10.6668 L 16.0126,-10.3335 L 16.0115,-10.0001 L 16.0105,-9.6668 L 16.0095,-9.3335 L 16.0087,-9.0001 L 16.0079,-8.6668 L 16.0072,-8.3334 L 16.0065,-8.0001 L 16.0059,-7.6668 L 16.0054,-7.3334 L 16.0048,-7.0001 L 16.0043,-6.6668 L 16.0039,-6.3334 L 16.0034,-6.0001 L 16.003,-5.6668 L 16.0027,-5.3334 L 16.0023,-5.0001 L 16.002,-4.6667 L 16.0017,-4.3334 L 16.0015,-4.0001 L 16.0012,-3.6667 L 16.001,-3.3334 L 16.0008,-3.0001 L 16.0006,-2.6667 L 16.0005,-2.3334 L 16.0004,-2.0 L 16.0002,-1.6667 L 16.0002,-1.3334 L 16.0001,-1.0 L 16.0,-0.6667 L 16.0,-0.3334 L 16.0,0.0 L 16.0,0.3333 L 16.0,0.6667 L 16.0001,1.0 L 16.0002,1.3333 L 16.0002,1.6667 L 16.0004,2.0 L 16.0005,2.3333 L 16.0006,2.6667 L 16.0008,3.0 L 16.001,3.3334 L 16.0012,3.6667 L 16.0015,4.0 L 16.0017,4.3334 L 16.002,4.6667 L 16.0023,5.0 L 16.0027,5.3334 L 16.003,5.6667 L 16.0034,6.0 L 16.0039,6.3334 L 16.0043,6.6667 L 16.0048,7.0001 L 16.0054,7.3334 L 16.0059,7.6667 L 16.0065,8.0001 L 16.0072,8.3334 L 16.0079,8.6667 L 16.0087,9.0001 L 16.0095,9.3334 L 16.0105,9.6667 L 16.0115,10.0001 L 16.0126,10.3334 L 16.0139,10.6668 L 16.0154,11.0001 L 16.0172,11.3334 L 16.0197,11.6668 L 16.0257,12.0" />
      <path d="M 21.0257,12.0 L 20.9562,12.0 L 20.8868,12.0 L 20.8173,12.0 L 20.7479,12.0 L 20.6784,12.0 L 20.609,12.0 L 20.5395,12.0 L 20.4701,12.0 L 20.4007,12.0 L 20.3312,12.0 L 20.2618,12.0 L 20.1923,12.0 L 20.1229,12.0 L 20.0534,12.0 L 19.984,12.0 L 19.9145,12.0 L 19.8451,12.0 L 19.7757,12.0 L 19.7062,12.0 L 19.6368,12.0 L 19.5673,12.0 L 19.4979,12.0 L 19.4284,12.0 L 19.359,12.0 L 19.2895,12.0 L 19.2201,12.0 L 19.1507,12.0 L 19.0812,12.0 L 19.0118,12.0 L 18.9423,12.0 L 18.8729,12.0 L 18.8034,12.0 L 18.734,12.0 L 18.6646,12.0 L 18.5951,12.0 L 18.5257,12.0 L 18.4562,12.0 L 18.3868,12.0 L 18.3173,12.0 L 18.2479,12.0 L 18.1784,12.0 L 18.109,12.0 L 18.0396,12.0 L 17.9701,12.0 L 17.9007,12.0 L 17.8312,12.0 L 17.7618,12.0 L 17.6923,12.0 L 17.6229,12.0 L 17.5534,12.0 L 17.484,12.0 L 17.4146,12.0 L 17.3451,12.0 L 17.2757,12.0 L 17.2062,12.0 L 17.1368,12.0 L 17.0673,12.0 L 16.9979,12.0 L 16.9284,12.0 L 16.859,12.0 L 16.7896,12.0 L 16.7201,12.0 L 16.6507,12.0 L 16.5812,12.0 L 16.5118,12.0 L 16.4423,12.0 L 16.3729,12.0 L 16.3034,12.0 L 16.234,12.0 L 16.1646,12.0 L 16.0951,12.0 L 16.0257,12.0" />
      <path d="M 21.0257,-12.0 L 20.9562,-12.0 L 20.8868,-12.0 L 20.8173,-12.0 L 20.7479,-12.0 L 20.6784,-12.0 L 20.609,-12.0 L 20.5395,-12.0 L 20.4701,-12.0 L 20.4007,-12.0 L 20.3312,-12.0 L 20.2618,-12.0 L 20.1923,-12.0 L 20.1229,-12.0 L 20.0534,-12.0 L 19.984,-12.0 L 19.9145,-12.0 L 19.8451,-12.0 L 19.7757,-12.0 L 19.7062,-12.0 L 19.6368,-12.0 L 19.5673,-12.0 L 19.4979,-12.0 L 19.4284,-12.0 L 19.359,-12.0 L 19.2895,-12.0 L 19.2201,-12.0 L 19.1507,-12.0 L 19.0812,-12.0 L 19.0118,-12.0 L 18.9423,-12.0 L 18.8729,-12.0 L 18.8034,-12.0 L 18.734,-12.0 L 18.6646,-12.0 L 18.5951,-12.0 L 18.5257,-12.0 L 18.4562,-12.0 L 18.3868,-12.0 L 18.3173,-12.0 L 18.2479,-12.0 L 18.1784,-12.0 L 18.109,-12.0 L 18.0396,-12.0 L 17.9701,-12.0 L 17.9007,-12.0 L 17.8312,-12.0 L 17.7618,-12.0 L 17.6923,-12.0 L 17.6229,-12.0 L 17.5534,-12.0 L 17.484,-12.0 L 17.4146,-12.0 L 17.3451,-12.0 L 17.2757,-12.0 L 17.2062,-12.0 L 17.1368,-12.0 L 17.0673,-12.0 L 16.9979,-12.0 L 16.9284,-12.0 L 16.859,-12.0 L 16.7896,-12.0 L 16.7201,-12.0 L 16.6507,-12.0 L 16.5812,-12.0 L 16.5118,-12.0 L 16.4423,-12.0 L 16.3729,-12.0 L 16.3034,-12.0 L 16.234,-12.0 L 16.1646,-12.0 L 16.0951,-12.0 L 16.0257,-12.0" />
    </g>
    <g fill="none" stroke="rgb(110,110,110)" stroke-width="0.3" id="Hidden" stroke-dasharray="3.6 0.9">
      <path d="M 0.0,7.1 L -0.6188,7.073 L -1.2329,6.9921 L -1.8376,6.8581 L -2.4283,6.6718 L -3.0006,6.4348 L -3.55,6.1488 L -4.0724,5.816 L -4.5638,5.4389 L -5.0205,5.0205 L -5.4389,4.5638 L -5.816,4.0724 L -6.1488,3.55 L -6.4348,3.0006 L -6.6718,2.4283 L -6.8581,1.8376 L -6.9921,1.2329 L -7.073,0.6188 L -7.1,0.0 L -7.073,-0.6188 L -6.9921,-1.2329 L -6.8581,-1.8376 L -6.6718,-2.4283 L -6.4348,-3.0006 L -6.1488,-3.55 L -5.816,-4.0724 L -5.4389,-4.5638 L -5.0205,-5.0205 L -4.5638,-5.4389 L -4.0724,-5.816 L -3.55,-6.1488 L -3.0006,-6.4348 L -2.4283,-6.6718 L -1.8376,-6.8581 L -1.2329,-6.9921 L -0.6188,-7.073 L -0.0,-7.1 L 0.6188,-7.073 L 1.2329,-6.9921 L 1.8376,-6.8581 L 2.4283,-6.6718 L 3.0006,-6.4348 L 3.55,-6.1488 L 4.0724,-5.816 L 4.5638,-5.4389 L 5.0205,-5.0205 L 5.4389,-4.5638 L 5.816,-4.0724 L 6.1488,-3.55 L 6.4348,-3.0006 L 6.6718,-2.4283 L 6.8581,-1.8376 L 6.9921,-1.2329 L 7.073,-0.6188 L 7.1,-0.0 L 7.073,0.6188 L 6.9921,1.2329 L 6.8581,1.8376 L 6.6718,2.4283 L 6.4348,3.0006 L 6.1488,3.55 L 5.816,4.0724 L 5.4389,4.5638 L 5.0205,5.0205 L 4.5638,5.4389 L 4.0724,5.816 L 3.55,6.1488 L 3.0006,6.4348 L 2.4283,6.6718 L 1.8376,6.8581 L 1.2329,6.9921 L 0.6188,7.073 L 0.0,7.1" />
      <path d="M 0.0,12.0 L -1.0459,11.9543 L -2.0838,11.8177 L -3.1058,11.5911 L -4.1042,11.2763 L -5.0714,10.8757 L -6.0,10.3923 L -6.8829,9.8298 L -7.7135,9.1925 L -8.4853,8.4853 L -9.1925,7.7135 L -9.8298,6.8829 L -10.3923,6.0 L -10.8757,5.0714 L -11.2763,4.1042 L -11.5911,3.1058 L -11.8177,2.0838 L -11.9543,1.0459 L -12.0,0.0 L -11.9543,-1.0459 L -11.8177,-2.0838 L -11.5911,-3.1058 L -11.2763,-4.1042 L -10.8757,-5.0714 L -10.3923,-6.0 L -9.8298,-6.8829 L -9.1925,-7.7135 L -8.4853,-8.4853 L -7.7135,-9.1925 L -6.8829,-9.8298 L -6.0,-10.3923 L -5.0714,-10.8757 L -4.1042,-11.2763 L -3.1058,-11.5911 L -2.0838,-11.8177 L -1.0459,-11.9543 L -0.0,-12.0 L 1.0459,-11.9543 L 2.0838,-11.8177 L 3.1058,-11.5911 L 4.1042,-11.2763 L 5.0714,-10.8757 L 6.0,-10.3923 L 6.8829,-9.8298 L 7.7135,-9.1925 L 8.4853,-8.4853 L 9.1925,-7.7135 L 9.8298,-6.8829 L 10.3923,-6.0 L 10.8757,-5.0714 L 11.2763,-4.1042 L 11.5911,-3.1058 L 11.8177,-2.0838 L 11.9543,-1.0459 L 12.0,-0.0 L 11.9543,1.0459 L 11.8177,2.0838 L 11.5911,3.1058 L 11.2763,4.1042 L 10.8757,5.0714 L 10.3923,6.0 L 9.8298,6.8829 L 9.1925,7.7135 L 8.4853,8.4853 L 7.7135,9.1925 L 6.8829,9.8298 L 6.0,10.3923 L 5.0714,10.8757 L 4.1042,11.2763 L 3.1058,11.5911 L 2.0838,11.8177 L 1.0459,11.9543 L 0.0,12.0" />
      <path d="M 16.0257,12.0 L 16.0257,11.9999 L 16.0258,11.9999 L 16.0258,11.9998 L 16.0258,11.9997 L 16.0259,11.9997" />
      <path d="M 16.0259,11.9997 L 16.0317,11.6664 L 16.0341,11.3331 L 16.0359,10.9998 L 16.0374,10.6665 L 16.0387,10.3331 L 16.0399,9.9998 L 16.0409,9.6665 L 16.0418,9.3332 L 16.0426,8.9998 L 16.0434,8.6665 L 16.0441,8.3332 L 16.0448,7.9999 L 16.0454,7.6665 L 16.046,7.3332 L 16.0465,6.9999 L 16.047,6.6665 L 16.0475,6.3332 L 16.0479,5.9999 L 16.0483,5.6666 L 16.0487,5.3332 L 16.049,4.9999 L 16.0493,4.6666 L 16.0496,4.3333 L 16.0499,3.9999 L 16.0501,3.6666 L 16.0503,3.3333 L 16.0505,3.0 L 16.0507,2.6666 L 16.0508,2.3333 L 16.051,2.0 L 16.0511,1.6666 L 16.0512,1.3333 L 16.0512,1.0 L 16.0513,0.6667 L 16.0513,0.3333 L 16.0513,0.0 L 16.0513,-0.3333 L 16.0513,-0.6666 L 16.0512,-1.0 L 16.0512,-1.3333 L 16.0511,-1.6666 L 16.051,-2.0 L 16.0508,-2.3333 L 16.0507,-2.6666 L 16.0505,-2.9999 L 16.0503,-3.3333 L 16.0501,-3.6666 L 16.0499,-3.9999 L 16.0496,-4.3332 L 16.0493,-4.6666 L 16.049,-4.9999 L 16.0487,-5.3332 L 16.0483,-5.6665 L 16.0479,-5.9999 L 16.0475,-6.3332 L 16.047,-6.6665 L 16.0465,-6.9999 L 16.046,-7.3332 L 16.0454,-7.6665 L 16.0448,-7.9998 L 16.0441,-8.3332 L 16.0434,-8.6665 L 16.0426,-8.9998 L 16.0418,-9.3331 L 16.0409,-9.6665 L 16.0399,-9.9998 L 16.0387,-10.3331 L 16.0374,-10.6664 L 16.0359,-10.9998 L 16.0341,-11.3331 L 16.0317,-11.6664 L 16.0259,-11.9997" />
      <path d="M 16.0259,-11.9997 L 16.0258,-11.9997 L 16.0258,-11.9998 L 16.0258,-11.9999 L 16.0257,-11.9999 L 16.0257,-12.0" />
      <path d="M 17.9723,7.1 L 17.9724,7.1 L 17.9724,7.0999" />
      <path d="M 17.9724,7.0999 L 17.9759,6.9028 L 17.9773,6.7056 L 17.9784,6.5083 L 17.9793,6.3111 L 17.9801,6.1139 L 17.9807,5.9167 L 17.9813,5.7195 L 17.9819,5.5222 L 17.9824,5.325 L 17.9828,5.1278 L 17.9833,4.9306 L 17.9837,4.7333 L 17.984,4.5361 L 17.9844,4.3389 L 17.9847,4.1417 L 17.985,3.9445 L 17.9852,3.7472 L 17.9855,3.55 L 17.9857,3.3528 L 17.9859,3.1556 L 17.9861,2.9583 L 17.9863,2.7611 L 17.9865,2.5639 L 17.9867,2.3667 L 17.9868,2.1695 L 17.9869,1.9722 L 17.987,1.775 L 17.9871,1.5778 L 17.9872,1.3806 L 17.9873,1.1833 L 17.9874,0.9861 L 17.9874,0.7889 L 17.9875,0.5917 L 17.9875,0.3945 L 17.9875,0.1972 L 17.9875,0.0 L 17.9875,-0.1972 L 17.9875,-0.3944 L 17.9875,-0.5917 L 17.9874,-0.7889 L 17.9874,-0.9861 L 17.9873,-1.1833 L 17.9872,-1.3806 L 17.9871,-1.5778 L 17.987,-1.775 L 17.9869,-1.9722 L 17.9868,-2.1694 L 17.9867,-2.3667 L 17.9865,-2.5639 L 17.9863,-2.7611 L 17.9861,-2.9583 L 17.9859,-3.1556 L 17.9857,-3.3528 L 17.9855,-3.55 L 17.9852,-3.7472 L 17.985,-3.9444 L 17.9847,-4.1417 L 17.9844,-4.3389 L 17.984,-4.5361 L 17.9837,-4.7333 L 17.9833,-4.9306 L 17.9828,-5.1278 L 17.9824,-5.325 L 17.9819,-5.5222 L 17.9813,-5.7194 L 17.9807,-5.9167 L 17.9801,-6.1139 L 17.9793,-6.3111 L 17.9784,-6.5083 L 17.9773,-6.7055 L 17.9759,-6.9028 L 17.9724,-7.0999" />
      <path d="M 17.9724,-7.0999 L 17.9724,-7.1 L 17.9723,-7.1" />
      <path d="M 17.9723,-7.1 L 17.9688,-6.9029 L 17.9673,-6.7056 L 17.9663,-6.5084 L 17.9654,-6.3112 L 17.9646,-6.114 L 17.9639,-5.9167 L 17.9633,-5.7195 L 17.9628,-5.5223 L 17.9623,-5.3251 L 17.9618,-5.1278 L 17.9614,-4.9306 L 17.961,-4.7334 L 17.9607,-4.5362 L 17.9603,-4.339 L 17.96,-4.1417 L 17.9597,-3.9445 L 17.9594,-3.7473 L 17.9592,-3.5501 L 17.9589,-3.3528 L 17.9587,-3.1556 L 17.9585,-2.9584 L 17.9583,-2.7612 L 17.9582,-2.5639 L 17.958,-2.3667 L 17.9579,-2.1695 L 17.9577,-1.9723 L 17.9576,-1.775 L 17.9575,-1.5778 L 17.9574,-1.3806 L 17.9574,-1.1834 L 17.9573,-0.9861 L 17.9572,-0.7889 L 17.9572,-0.5917 L 17.9572,-0.3945 L 17.9572,-0.1972 L 17.9571,0.0 L 17.9572,0.1972 L 17.9572,0.3944 L 17.9572,0.5917 L 17.9572,0.7889 L 17.9573,0.9861 L 17.9574,1.1833 L 17.9574,1.3806 L 17.9575,1.5778 L 17.9576,1.775 L 17.9577,1.9722 L 17.9579,2.1695 L 17.958,2.3667 L 17.9582,2.5639 L 17.9583,2.7611 L 17.9585,2.9584 L 17.9587,3.1556 L 17.9589,3.3528 L 17.9592,3.55 L 17.9594,3.7473 L 17.9597,3.9445 L 17.96,4.1417 L 17.9603,4.3389 L 17.9607,4.5361 L 17.961,4.7334 L 17.9614,4.9306 L 17.9618,5.1278 L 17.9623,5.325 L 17.9628,5.5223 L 17.9633,5.7195 L 17.9639,5.9167 L 17.9646,6.1139 L 17.9654,6.3112 L 17.9663,6.5084 L 17.9673,6.7056 L 17.9688,6.9028 L 17.9723,7.1" />
      <path d="M 17.9723,7.1 L 18.0147,7.1 L 18.0571,7.1 L 18.0996,7.1 L 18.142,7.1 L 18.1844,7.1 L 18.2268,7.1 L 18.2692,7.1 L 18.3116,7.1 L 18.354,7.1 L 18.3964,7.1 L 18.4388,7.1 L 18.4812,7.1 L 18.5236,7.1 L 18.566,7.1 L 18.6084,7.1 L 18.6509,7.1 L 18.6933,7.1 L 18.7357,7.1 L 18.7781,7.1 L 18.8205,7.1 L 18.8629,7.1 L 18.9053,7.1 L 18.9477,7.1 L 18.9901,7.1 L 19.0325,7.1 L 19.0749,7.1 L 19.1173,7.1 L 19.1597,7.1 L 19.2021,7.1 L 19.2446,7.1 L 19.287,7.1 L 19.3294,7.1 L 19.3718,7.1 L 19.4142,7.1 L 19.4566,7.1 L 19.499,7.1 L 19.5414,7.1 L 19.5838,7.1 L 19.6262,7.1 L 19.6686,7.1 L 19.711,7.1 L 19.7534,7.1 L 19.7958,7.1 L 19.8383,7.1 L 19.8807,7.1 L 19.9231,7.1 L 19.9655,7.1 L 20.0079,7.1 L 20.0503,7.1 L 20.0927,7.1 L 20.1351,7.1 L 20.1775,7.1 L 20.2199,7.1 L 20.2623,7.1 L 20.3047,7.1 L 20.3471,7.1 L 20.3895,7.1 L 20.432,7.1 L 20.4744,7.1 L 20.5168,7.1 L 20.5592,7.1 L 20.6016,7.1 L 20.644,7.1 L 20.6864,7.1 L 20.7288,7.1 L 20.7712,7.1 L 20.8136,7.1 L 20.856,7.1 L 20.8984,7.1 L 20.9408,7.1 L 20.9832,7.1 L 21.0257,7.1" />
      <path d="M 16.0259,11.9997 L 16.046,11.9291 L 16.0663,11.8586 L 16.0868,11.7882 L 16.1076,11.7179 L 16.1285,11.6476 L 16.1496,11.5773 L 16.1709,11.5071 L 16.1925,11.437 L 16.2142,11.3669 L 16.2361,11.2969 L 16.2582,11.227 L 16.2805,11.1571 L 16.303,11.0873 L 16.3257,11.0176 L 16.3486,10.9479 L 16.3717,10.8783 L 16.395,10.8087 L 16.4185,10.7392 L 16.4422,10.6698 L 16.4661,10.6004 L 16.4901,10.5312 L 16.5144,10.4619 L 16.5389,10.3928 L 16.5635,10.3237 L 16.5884,10.2547 L 16.6134,10.1857 L 16.6387,10.1169 L 16.6641,10.0481 L 16.6898,9.9794 L 16.7156,9.9107 L 16.7416,9.8421 L 16.7678,9.7736 L 16.7942,9.7052 L 16.8208,9.6368 L 16.8476,9.5685 L 16.8746,9.5003 L 16.9018,9.4322 L 16.9292,9.3641 L 16.9567,9.2962 L 16.9845,9.2283 L 17.0124,9.1605 L 17.0406,9.0927 L 17.0689,9.0251 L 17.0974,8.9575 L 17.1261,8.89 L 17.155,8.8226 L 17.1841,8.7552 L 17.2134,8.688 L 17.2428,8.6208 L 17.2725,8.5537 L 17.3023,8.4867 L 17.3324,8.4198 L 17.3626,8.3529 L 17.393,8.2862 L 17.4236,8.2195 L 17.4544,8.153 L 17.4854,8.0865 L 17.5166,8.0201 L 17.5479,7.9538 L 17.5794,7.8875 L 17.6112,7.8214 L 17.6431,7.7553 L 17.6752,7.6894 L 17.7075,7.6235 L 17.7399,7.5578 L 17.7726,7.4921 L 17.8054,7.4265 L 17.8385,7.361 L 17.8717,7.2956 L 17.9051,7.2303 L 17.9386,7.1651 L 17.9724,7.0999" />
      <path d="M 16.0259,-11.9997 L 16.046,-11.9291 L 16.0663,-11.8586 L 16.0868,-11.7882 L 16.1076,-11.7179 L 16.1285,-11.6476 L 16.1496,-11.5773 L 16.1709,-11.5071 L 16.1925,-11.437 L 16.2142,-11.3669 L 16.2361,-11.2969 L 16.2582,-11.227 L 16.2805,-11.1571 L 16.303,-11.0873 L 16.3257,-11.0176 L 16.3486,-10.9479 L 16.3717,-10.8783 L 16.395,-10.8087 L 16.4185,-10.7392 L 16.4422,-10.6698 L 16.4661,-10.6004 L 16.4901,-10.5312 L 16.5144,-10.4619 L 16.5389,-10.3928 L 16.5635,-10.3237 L 16.5884,-10.2547 L 16.6134,-10.1857 L 16.6387,-10.1169 L 16.6641,-10.0481 L 16.6898,-9.9794 L 16.7156,-9.9107 L 16.7416,-9.8421 L 16.7678,-9.7736 L 16.7942,-9.7052 L 16.8208,-9.6368 L 16.8476,-9.5685 L 16.8746,-9.5003 L 16.9018,-9.4322 L 16.9292,-9.3641 L 16.9567,-9.2962 L 16.9845,-9.2283 L 17.0124,-9.1605 L 17.0406,-9.0927 L 17.0689,-9.0251 L 17.0974,-8.9575 L 17.1261,-8.89 L 17.155,-8.8226 L 17.1841,-8.7552 L 17.2134,-8.688 L 17.2428,-8.6208 L 17.2725,-8.5537 L 17.3023,-8.4867 L 17.3324,-8.4198 L 17.3626,-8.3529 L 17.393,-8.2862 L 17.4236,-8.2195 L 17.4544,-8.153 L 17.4854,-8.0865 L 17.5166,-8.0201 L 17.5479,-7.9538 L 17.5794,-7.8875 L 17.6112,-7.8214 L 17.6431,-7.7553 L 17.6752,-7.6894 L 17.7075,-7.6235 L 17.7399,-7.5578 L 17.7726,-7.4921 L 17.8054,-7.4265 L 17.8385,-7.361 L 17.8717,-7.2956 L 17.9051,-7.2303 L 17.9386,-7.1651 L 17.9724,-7.0999" />
      <path d="M 17.9723,-7.1 L 18.0147,-7.1 L 18.0571,-7.1 L 18.0996,-7.1 L 18.142,-7.1 L 18.1844,-7.1 L 18.2268,-7.1 L 18.2692,-7.1 L 18.3116,-7.1 L 18.354,-7.1 L 18.3964,-7.1 L 18.4388,-7.1 L 18.4812,-7.1 L 18.5236,-7.1 L 18.566,-7.1 L 18.6084,-7.1 L 18.6509,-7.1 L 18.6933,-7.1 L 18.7357,-7.1 L 18.7781,-7.1 L 18.8205,-7.1 L 18.8629,-7.1 L 18.9053,-7.1 L 18.9477,-7.1 L 18.9901,-7.1 L 19.0325,-7.1 L 19.0749,-7.1 L 19.1173,-7.1 L 19.1597,-7.1 L 19.2021,-7.1 L 19.2446,-7.1 L 19.287,-7.1 L 19.3294,-7.1 L 19.3718,-7.1 L 19.4142,-7.1 L 19.4566,-7.1 L 19.499,-7.1 L 19.5414,-7.1 L 19.5838,-7.1 L 19.6262,-7.1 L 19.6686,-7.1 L 19.711,-7.1 L 19.7534,-7.1 L 19.7958,-7.1 L 19.8383,-7.1 L 19.8807,-7.1 L 19.9231,-7.1 L 19.9655,-7.1 L 20.0079,-7.1 L 20.0503,-7.1 L 20.0927,-7.1 L 20.1351,-7.1 L 20.1775,-7.1 L 20.2199,-7.1 L 20.2623,-7.1 L 20.3047,-7.1 L 20.3471,-7.1 L 20.3895,-7.1 L 20.432,-7.1 L 20.4744,-7.1 L 20.5168,-7.1 L 20.5592,-7.1 L 20.6016,-7.1 L 20.644,-7.1 L 20.6864,-7.1 L 20.7288,-7.1 L 20.7712,-7.1 L 20.8136,-7.1 L 20.856,-7.1 L 20.8984,-7.1 L 20.9408,-7.1 L 20.9832,-7.1 L 21.0257,-7.1" />
    </g>
    <g fill="none" stroke="rgb(0,0,0)" stroke-width="0.2" id="Center" stroke-dasharray="6.35 1.27 1.27 1.27">
      <line x1="0.0" y1="0.0" x2="-13.92" y2="0.0" />
      <line x1="0.0" y1="0.0" x2="13.92" y2="0.0" />
      <line x1="0.0" y1="0.0" x2="0.0" y2="-13.92" />
      <line x1="0.0" y1="0.0" x2="0.0" y2="13.92" />
      <line x1="18.5257" y1="0.0" x2="14.08" y2="0.0" />
      <line x1="18.5257" y1="0.0" x2="22.9713" y2="0.0" />
    </g>
  </g>
</svg>