<?xml version='1.0' encoding='utf-8'?>
<svg width="47.7283mm" height="38.637mm" viewBox="-19.3185 -19.3185 47.7283 38.637" version="1.1" xmlns="http://www.w3.org/2000/svg">
  <g transform="scale(1,-1)" stroke-linecap="round">
    <g fill="none" stroke="rgb(0,0,0)" stroke-width="0.4" id="Visible">
      <path d="M 0.0,6.2415 L -0.544,6.2177 L -1.0838,6.1467 L -1.6154,6.0288 L -2.1347,5.8651 L -2.6378,5.6567 L -3.1207,5.4053 L -3.58,5.1127 L -4.012,4.7813 L -4.4134,4.4134 L -4.7813,4.012 L -5.1127,3.58 L -5.4053,3.1207 L -5.6567,2.6378 L -5.8651,2.1347 L -6.0288,1.6154 L -6.1467,1.0838 L -6.2177,0.544 L -6.2415,-0.0 L -6.2177,-0.544 L -6.1467,-1.0838 L -6.0288,-1.6154 L -5.8651,-2.1347 L -5.6567,-2.6378 L -5.4053,-3.1207 L -5.1127,-3.58 L -4.7813,-4.012 L -4.4134,-4.4134 L -4.012,-4.7813 L -3.58,-5.1127 L -3.1207,-5.4053 L -2.6378,-5.6567 L -2.1347,-5.8651 L -1.6154,-6.0288 L -1.0838,-6.1467 L -0.544,-6.2177 L -0.0,-6.2415 L 0.544,-6.2177 L 1.0838,-6.1467 L 1.6154,-6.0288 L 2.1347,-5.8651 L 2.6378,-5.6567 L 3.1207,-5.4053 L 3.58,-5.1127 L 4.012,-4.7813 L 4.4134,-4.4134 L 4.7813,-4.012 L 5.1127,-3.58 L 5.4053,-3.1207 L 5.6567,-2.6378 L 5.8651,-2.1347 L 6.0288,-1.6154 L 6.1467,-1.0838 L 6.2177,-0.544 L 6.2415,0.0 L 6.2177,0.544 L 6.1467,1.0838 L 6.0288,1.6154 L 5.8651,2.1347 L 5.6567,2.6378 L 5.4053,3.1207 L 5.1127,3.58 L 4.7813,4.012 L 4.4134,4.4134 L 4.012,4.7813 L 3.58,5.1127 L 3.1207,5.4053 L 2.6378,5.6567 L 2.1347,5.8651 L 1.6154,6.0288 L 1.0838,6.1467 L 0.544,6.2177 L 0.0,6.2415" />
      <path d="M 0.0,14.7585 L -1.2863,14.7023 L -2.5628,14.5343 L -3.8198,14.2556 L -5.0477,13.8685 L -6.2372,13.3757 L -7.3793,12.7812 L -8.4651,12.0895 L -9.4866,11.3057 L -10.4358,10.4358 L -11.3057,9.4866 L -12.0895,8.4651 L -12.7812,7.3793 L -13.3757,6.2372 L -13.8685,5.0477 L -14.2556,3.8198 L -14.5343,2.5628 L -14.7023,1.2863 L -14.7585,0.0 L -14.7023,-1.2863 L -14.5343,-2.5628 L -14.2556,-3.8198 L -13.8685,-5.0477 L -13.3757,-6.2372 L -12.7812,-7.3793 L -12.0895,-8.4651 L -11.3057,-9.4866 L -10.4358,-10.4358 L -9.4866,-11.3057 L -8.4651,-12.0895 L -7.3793,-12.7812 L -6.2372,-13.3757 L -5.0477,-13.8685 L -3.8198,-14.2556 L -2.5628,-14.5343 L -1.2863,-14.7023 L -0.0,-14.7585 L 1.2863,-14.7023 L 2.5628,-14.5343 L 3.8198,-14.2556 L 5.0477,-13.8685 L 6.2372,-13.3757 L 7.3793,-12.7812 L 8.4651,-12.0895 L 9.4866,-11.3057 L 10.4358,-10.4358 L 11.3057,-9.4866 L 12.0895,-8.4651 L 12.7812,-7.3793 L 13.3757,-6.2372 L 13.8685,-5.0477 L 14.2556,-3.8198 L 14.5343,-2.5628 L 14.7023,-1.2863 L 14.7585,-0.0 L 14.7023,1.2863 L 14.5343,2.5628 L 14.2556,3.8198 L 13.8685,5.0477 L 13.3757,6.2372 L 12.7812,7.3793 L 12.0895,8.4651 L 11.3057,9.4866 L 10.4358,10.4358 L 9.4866,11.3057 L 8.4651,12.0895 L 7.3793,12.7812 L 6.2372,13.3757 L 5.0477,13.8685 L 3.8198,14.2556 L 2.5628,14.5343 L 1.2863,14.7023 L 0.0,14.7585" />
      <path d="M 0.0,13.9316 L -1.2142,13.8786 L -2.4192,13.7199 L -3.6058,13.4569 L -4.7649,13.0914 L -5.8877,12.6263 L -6.9658,12.0651 L -7.9908,11.4121 L -8.9551,10.6722 L -9.8511,9.8511 L -10.6722,8.9551 L -11.4121,7.9908 L -12.0651,6.9658 L -12.6263,5.8877 L -13.0914,4.7649 L -13.4569,3.6058 L -13.7199,2.4192 L -13.8786,1.2142 L -13.9316,-0.0 L -13.8786,-1.2142 L -13.7199,-2.4192 L -13.4569,-3.6058 L -13.0914,-4.7649 L -12.6263,-5.8877 L -12.0651,-6.9658 L -11.4121,-7.9908 L -10.6722,-8.9551 L -9.8511,-9.8511 L -8.9551,-10.6722 L -7.9908,-11.4121 L -6.9658,-12.0651 L -5.8877,-12.6263 L -4.7649,-13.0914 L -3.6058,-13.4569 L -2.4192,-13.7199 L -1.2142,-13.8786 L 0.0,-13.9316 L 1.2142,-13.8786 L 2.4192,-13.7199 L 3.6058,-13.4569 L 4.7649,-13.0914 L 5.8877,-12.6263 L 6.9658,-12.0651 L 7.9908,-11.4121 L 8.9551,-10.6722 L 9.8511,-9.8511 L 10.6722,-8.9551 L 11.4121,-7.9908 L 12.0651,-6.9658 L 12.6263,-5.8877 L 13.0914,-4.7649 L 13.4569,-3.6058 L 13.7199,-2.4192 L 13.8786,-1.2142 L 13.9316,0.0 L 13.8786,1.2142 L 13.7199,2.4192 L 13.4569,3.6058 L 13.0914,4.7649 L 12.6263,5.8877 L 12.0651,6.9658 L 11.4121,7.9908 L 10.6722,8.9551 L 9.8511,9.8511 L 8.9551,10.6722 L 7.9908,11.4121 L 6.9658,12.0651 L 5.8877,12.6263 L 4.7649,13.0914 L 3.6058,13.4569 L 2.4192,13.7199 L 1.2142,13.8786 L -0.0,13.9316" />
      <path d="M 23.849,7.0684 L 23.8492,6.8721 L 23.8493,6.6757 L 23.8493,6.4794 L 23.8494,6.283 L 23.8494,6.0867 L 23.8494,5.8903 L 23.8495,5.694 L 23.8495,5.4977 L 23.8495,5.3013 L 23.8496,5.105 L 23.8496,4.9086 L 23.8496,4.7123 L 23.8496,4.5159 L 23.8496,4.3196 L 23.8497,4.1232 L 23.8497,3.9269 L 23.8497,3.7305 L 23.8497,3.5342 L 23.8497,3.3379 L 23.8497,3.1415 L 23.8497,2.9452 L 23.8498,2.7488 L 23.8498,2.5525 L 23.8498,2.3561 L 23.8498,2.1598 L 23.8498,1.9634 L 23.8498,1.7671 L 23.8498,1.5708 L 23.8498,1.3744 L 23.8498,1.1781 L 23.8498,0.9817 L 23.8498,0.7854 L 23.8498,0.589 L 23.8498,0.3927 L 23.8498,0.1963 L 23.8498,0.0 L 23.8498,-0.1963 L 23.8498,-0.3927 L 23.8498,-0.589 L 23.8498,-0.7854 L 23.8498,-0.9817 L 23.8498,-1.1781 L 23.8498,-1.3744 L 23.8498,-1.5708 L 23.8498,-1.7671 L 23.8498,-1.9634 L 23.8498,-2.1598 L 23.8498,-2.3561 L 23.8498,-2.5525 L 23.8498,-2.7488 L 23.8497,-2.9452 L 23.8497,-3.1415 L 23.8497,-3.3379 L 23.8497,-3.5342 L 23.8497,-3.7305 L 23.8497,-3.9269 L 23.8497,-4.1232 L 23.8496,-4.3196 L 23.8496,-4.5159 L 23.8496,-4.7123 L 23.8496,-4.9086 L 23.8496,-5.105 L 23.8495,-5.3013 L 23.8495,-5.4977 L 23.8495,-5.694 L 23.8494,-5.8903 L 23.8494,-6.0867 L 23.8494,-6.283 L 23.8493,-6.4794 L 23.8493,-6.6757 L 23.8492,-6.8721 L 23.849,-7.0684" />
      <path d="M 23.849,-7.0684 L 23.8488,-6.8721 L 23.8487,-6.6757 L 23.8487,-6.4794 L 23.8486,-6.283 L 23.8486,-6.0867 L 23.8485,-5.8903 L 23.8485,-5.694 L 23.8485,-5.4977 L 23.8485,-5.3013 L 23.8484,-5.105 L 23.8484,-4.9086 L 23.8484,-4.7123 L 23.8484,-4.5159 L 23.8484,-4.3196 L 23.8483,-4.1232 L 23.8483,-3.9269 L 23.8483,-3.7305 L 23.8483,-3.5342 L 23.8483,-3.3379 L 23.8483,-3.1415 L 23.8483,-2.9452 L 23.8482,-2.7488 L 23.8482,-2.5525 L 23.8482,-2.3561 L 23.8482,-2.1598 L 23.8482,-1.9634 L 23.8482,-1.7671 L 23.8482,-1.5708 L 23.8482,-1.3744 L 23.8482,-1.1781 L 23.8482,-0.9817 L 23.8482,-0.7854 L 23.8482,-0.589 L 23.8482,-0.3927 L 23.8482,-0.1963 L 23.8482,0.0 L 23.8482,0.1963 L 23.8482,0.3927 L 23.8482,0.589 L 23.8482,0.7854 L 23.8482,0.9817 L 23.8482,1.1781 L 23.8482,1.3744 L 23.8482,1.5708 L 23.8482,1.7671 L 23.8482,1.9634 L 23.8482,2.1598 L 23.8482,2.3561 L 23.8482,2.5525 L 23.8482,2.7488 L 23.8483,2.9452 L 23.8483,3.1415 L 23.8483,3.3379 L 23.8483,3.5342 L 23.8483,3.7305 L 23.8483,3.9269 L 23.8483,4.1232 L 23.8484,4.3196 L 23.8484,4.5159 L 23.8484,4.7123 L 23.8484,4.9086 L 23.8484,5.105 L 23.8485,5.3013 L 23.8485,5.4977 L 23.8485,5.694 L 23.8485,5.8903 L 23.8486,6.0867 L 23.8486,6.283 L 23.8487,6.4794 L 23.8487,6.6757 L 23.8488,6.8721 L 23.849,7.0684" />
      <path d="M 21.6439,-14.7585 L 21.6435,-14.3485 L 21.6433,-13.9386 L 21.6432,-13.5286 L 21.6431,-13.1187 L 21.643,-12.7087 L 21.643,-12.2988 L 21.6429,-11.8888 L 21.6428,-11.4788 L 21.6428,-11.0689 L 21.6427,-10.6589 L 21.6427,-10.249 L 21.6426,-9.839 L 21.6426,-9.429 L 21.6425,-9.0191 L 21.6425,-8.6091 L 21.6425,-8.1992 L 21.6424,-7.7892 L 21.6424,-7.3793 L 21.6424,-6.9693 L 21.6424,-6.5593 L 21.6423,-6.1494 L 21.6423,-5.7394 L 21.6423,-5.3295 L 21.6423,-4.9195 L 21.6423,-4.5095 L 21.6423,-4.0996 L 21.6422,-3.6896 L 21.6422,-3.2797 L 21.6422,-2.8697 L 21.6422,-2.4598 L 21.6422,-2.0498 L 21.6422,-1.6398 L 21.6422,-1.2299 L 21.6422,-0.8199 L 21.6422,-0.41 L 21.6422,0.0 L 21.6422,0.41 L 21.6422,0.8199 L 21.6422,1.2299 L 21.6422,1.6398 L 21.6422,2.0498 L 21.6422,2.4598 L 21.6422,2.8697 L 21.6422,3.2797 L 21.6422,3.6896 L 21.6423,4.0996 L 21.6423,4.5095 L 21.6423,4.9195 L 21.6423,5.3295 L 21.6423,5.7394 L 21.6423,6.1494 L 21.6424,6.5593 L 21.6424,6.9693 L 21.6424,7.3793 L 21.6424,7.7892 L 21.6425,8.1992 L 21.6425,8.6091 L 21.6425,9.0191 L 21.6426,9.429 L 21.6426,9.839 L 21.6427,10.249 L 21.6427,10.6589 L 21.6428,11.0689 L 21.6428,11.4788 L 21.6429,11.8888 L 21.643,12.2988 L 21.643,12.7087 L 21.6431,13.1187 L 21.6432,13.5286 L 21.6433,13.9386 L 21.6435,14.3485 L 21.6439,14.7585" />
      <path d="M 18.7601,-13.9316 L 18.7597,-13.5446 L 18.7596,-13.1576 L 18.7595,-12.7706 L 18.7594,-12.3836 L 18.7593,-11.9966 L 18.7592,-11.6097 L 18.7592,-11.2227 L 18.7591,-10.8357 L 18.759,-10.4487 L 18.759,-10.0617 L 18.759,-9.6747 L 18.7589,-9.2877 L 18.7589,-8.9007 L 18.7588,-8.5138 L 18.7588,-8.1268 L 18.7588,-7.7398 L 18.7587,-7.3528 L 18.7587,-6.9658 L 18.7587,-6.5788 L 18.7587,-6.1918 L 18.7586,-5.8048 L 18.7586,-5.4178 L 18.7586,-5.0309 L 18.7586,-4.6439 L 18.7586,-4.2569 L 18.7586,-3.8699 L 18.7586,-3.4829 L 18.7585,-3.0959 L 18.7585,-2.7089 L 18.7585,-2.3219 L 18.7585,-1.9349 L 18.7585,-1.548 L 18.7585,-1.161 L 18.7585,-0.774 L 18.7585,-0.387 L 18.7585,0.0 L 18.7585,0.387 L 18.7585,0.774 L 18.7585,1.161 L 18.7585,1.548 L 18.7585,1.9349 L 18.7585,2.3219 L 18.7585,2.7089 L 18.7585,3.0959 L 18.7586,3.4829 L 18.7586,3.8699 L 18.7586,4.2569 L 18.7586,4.6439 L 18.7586,5.0309 L 18.7586,5.4178 L 18.7586,5.8048 L 18.7587,6.1918 L 18.7587,6.5788 L 18.7587,6.9658 L 18.7587,7.3528 L 18.7588,7.7398 L 18.7588,8.1268 L 18.7588,8.5138 L 18.7589,8.9007 L 18.7589,9.2877 L 18.759,9.6747 L 18.759,10.0617 L 18.759,10.4487 L 18.7591,10.8357 L 18.7592,11.2227 L 18.7592,11.6097 L 18.7593,11.9966 L 18.7594,12.3836 L 18.7595,12.7706 L 18.7596,13.1576 L 18.7597,13.5446 L 18.7601,13.9316" />
      <path d="M 23.849,7.0684 L 23.8184,7.1752 L 23.7877,7.282 L 23.7571,7.3888 L 23.7265,7.4956 L 23.6959,7.6024 L 23.6652,7.7092 L 23.6346,7.8161 L 23.604,7.9229 L 23.5734,8.0297 L 23.5427,8.1365 L 23.5121,8.2433 L 23.4815,8.3501 L 23.4509,8.4569 L 23.4202,8.5637 L 23.3896,8.6705 L 23.359,8.7773 L 23.3284,8.8841 L 23.2977,8.9909 L 23.2671,9.0977 L 23.2365,9.2045 L 23.2058,9.3114 L 23.1752,9.4182 L 23.1446,9.525 L 23.114,9.6318 L 23.0833,9.7386 L 23.0527,9.8454 L 23.0221,9.9522 L 22.9915,10.059 L 22.9608,10.1658 L 22.9302,10.2726 L 22.8996,10.3794 L 22.869,10.4862 L 22.8383,10.593 L 22.8077,10.6998 L 22.7771,10.8066 L 22.7464,10.9135 L 22.7158,11.0203 L 22.6852,11.1271 L 22.6546,11.2339 L 22.6239,11.3407 L 22.5933,11.4475 L 22.5627,11.5543 L 22.5321,11.6611 L 22.5014,11.7679 L 22.4708,11.8747 L 22.4402,11.9815 L 22.4096,12.0883 L 22.3789,12.1951 L 22.3483,12.3019 L 22.3177,12.4088 L 22.2871,12.5156 L 22.2564,12.6224 L 22.2258,12.7292 L 22.1952,12.836 L 22.1645,12.9428 L 22.1339,13.0496 L 22.1033,13.1564 L 22.0727,13.2632 L 22.042,13.37 L 22.0114,13.4768 L 21.9808,13.5836 L 21.9502,13.6904 L 21.9195,13.7972 L 21.8889,13.904 L 21.8583,14.0109 L 21.8277,14.1177 L 21.797,14.2245 L 21.7664,14.3313 L 21.7358,14.4381 L 21.7052,14.5449 L 21.6745,14.6517 L 21.6439,14.7585" />
      <path d="M 23.849,-7.0684 L 23.8184,-7.1752 L 23.7877,-7.282 L 23.7571,-7.3888 L 23.7265,-7.4956 L 23.6959,-7.6024 L 23.6652,-7.7092 L 23.6346,-7.8161 L 23.604,-7.9229 L 23.5734,-8.0297 L 23.5427,-8.1365 L 23.5121,-8.2433 L 23.4815,-8.3501 L 23.4509,-8.4569 L 23.4202,-8.5637 L 23.3896,-8.6705 L 23.359,-8.7773 L 23.3284,-8.8841 L 23.2977,-8.9909 L 23.2671,-9.0977 L 23.2365,-9.2045 L 23.2058,-9.3114 L 23.1752,-9.4182 L 23.1446,-9.525 L 23.114,-9.6318 L 23.0833,-9.7386 L 23.0527,-9.8454 L 23.0221,-9.9522 L 22.9915,-10.059 L 22.9608,-10.1658 L 22.9302,-10.2726 L 22.8996,-10.3794 L 22.869,-10.4862 L 22.8383,-10.593 L 22.8077,-10.6998 L 22.7771,-10.8066 L 22.7464,-10.9135 L 22.7158,-11.0203 L 22.6852,-11.1271 L 22.6546,-11.2339 L 22.6239,-11.3407 L 22.5933,-11.4475 L 22.5627,-11.5543 L 22.5321,-11.6611 L 22.5014,-11.7679 L 22.4708,-11.8747 L 22.4402,-11.9815 L 22.4096,-12.0883 L 22.3789,-12.1951 L 22.3483,-12.3019 L 22.3177,-12.4088 L 22.2871,-12.5156 L 22.2564,-12.6224 L 22.2258,-12.7292 L 22.1952,-12.836 L 22.1645,-12.9428 L 22.1339,-13.0496 L 22.1033,-13.1564 L 22.0727,-13.2632 L 22.042,-13.37 L 22.0114,-13.4768 L 21.9808,-13.5836 L 21.9502,-13.6904 L 21.9195,-13.7972 L 21.8889,-13.904 L 21.8583,-14.0109 L 21.8277,-14.1177 L 21.797,-14.2245 L 21.7664,-14.3313 L 21.7358,-14.4381 L 21.7052,-14.5449 L 21.6745,-14.6517 L 21.6439,-14.7585" />
      <path d="M 18.7601,13.9316 L 18.8002,13.9431 L 18.8402,13.9546 L 18.8803,13.966 L 18.9203,13.9775 L 18.9604,13.989 L 19.0004,14.0005 L 19.0405,14.012 L 19.0805,14.0235 L 19.1206,14.035 L 19.1606,14.0464 L 19.2007,14.0579 L 19.2407,14.0694 L 19.2808,14.0809 L 19.3209,14.0924 L 19.3609,14.1039 L 19.401,14.1153 L 19.441,14.1268 L 19.4811,14.1383 L 19.5211,14.1498 L 19.5612,14.1613 L 19.6012,14.1728 L 19.6413,14.1843 L 19.6813,14.1957 L 19.7214,14.2072 L 19.7614,14.2187 L 19.8015,14.2302 L 19.8415,14.2417 L 19.8816,14.2532 L 19.9216,14.2647 L 19.9617,14.2761 L 20.0017,14.2876 L 20.0418,14.2991 L 20.0818,14.3106 L 20.1219,14.3221 L 20.162,14.3336 L 20.202,14.345 L 20.2421,14.3565 L 20.2821,14.368 L 20.3222,14.3795 L 20.3622,14.391 L 20.4023,14.4025 L 20.4423,14.414 L 20.4824,14.4254 L 20.5224,14.4369 L 20.5625,14.4484 L 20.6025,14.4599 L 20.6426,14.4714 L 20.6826,14.4829 L 20.7227,14.4944 L 20.7627,14.5058 L 20.8028,14.5173 L 20.8428,14.5288 L 20.8829,14.5403 L 20.923,14.5518 L 20.963,14.5633 L 21.0031,14.5747 L 21.0431,14.5862 L 21.0832,14.5977 L 21.1232,14.6092 L 21.1633,14.6207 L 21.2033,14.6322 L 21.2434,14.6437 L 21.2834,14.6551 L 21.3235,14.6666 L 21.3635,14.6781 L 21.4036,14.6896 L 21.4436,14.7011 L 21.4837,14.7126 L 21.5237,14.724 L 21.5638,14.7355 L 21.6038,14.747 L 21.6439,14.7585" />
      <path d="M 18.7601,-13.9316 L 18.8002,-13.9431 L 18.8402,-13.9546 L 18.8803,-13.966 L 18.9203,-13.9775 L 18.9604,-13.989 L 19.0004,-14.0005 L 19.0405,-14.012 L 19.0805,-14.0235 L 19.1206,-14.035 L 19.1606,-14.0464 L 19.2007,-14.0579 L 19.2407,-14.0694 L 19.2808,-14.0809 L 19.3209,-14.0924 L 19.3609,-14.1039 L 19.401,-14.1153 L 19.441,-14.1268 L 19.4811,-14.1383 L 19.5211,-14.1498 L 19.5612,-14.1613 L 19.6012,-14.1728 L 19.6413,-14.1843 L 19.6813,-14.1957 L 19.7214,-14.2072 L 19.7614,-14.2187 L 19.8015,-14.2302 L 19.8415,-14.2417 L 19.8816,-14.2532 L 19.9216,-14.2647 L 19.9617,-14.2761 L 20.0017,-14.2876 L 20.0418,-14.2991 L 20.0818,-14.3106 L 20.1219,-14.3221 L 20.162,-14.3336 L 20.202,-14.345 L 20.2421,-14.3565 L 20.2821,-14.368 L 20.3222,-14.3795 L 20.3622,-14.391 L 20.4023,-14.4025 L 20.4423,-14.414 L 20.4824,-14.4254 L 20.5224,-14.4369 L 20.5625,-14.4484 L 20.6025,-14.4599 L 20.6426,-14.4714 L 20.6826,-14.4829 L 20.7227,-14.4944 L 20.7627,-14.5058 L 20.8028,-14.5173 L 20.8428,-14.5288 L 20.8829,-14.5403 L 20.923,-14.5518 L 20.963,-14.5633 L 21.0031,-14.5747 L 21.0431,-14.5862 L 21.0832,-14.5977 L 21.1232,-14.6092 L 21.1633,-14.6207 L 21.2033,-14.6322 L 21.2434,-14.6437 L 21.2834,-14.6551 L 21.3235,-14.6666 L 21.3635,-14.6781 L 21.4036,-14.6896 L 21.4436,-14.7011 L 21.4837,-14.7126 L 21.5237,-14.724 L 21.5638,-14.7355 L 21.6038,-14.747 L 21.6439,-14.7585" />
    </g>
    <g fill="none" stroke="rgb(110,110,110)" stroke-width="0.3" id="Hidden" stroke-dasharray="3.6 0.9">
      <path d="M 0.0,7.0684 L -0.6161,7.0415 L -1.2274,6.961 L -1.8294,6.8276 L -2.4175,6.6421 L -2.9872,6.4062 L -3.5342,6.1214 L -4.0543,5.7901 L -4.5435,5.4147 L -4.9981,4.9981 L -5.4147,4.5435 L -5.7901,4.0543 L -6.1214,3.5342 L -6.4062,2.9872 L -6.6421,2.4175 L -6.8276,1.8294 L -6.961,1.2274 L -7.0415,0.6161 L -7.0684,0.0 L -7.0415,-0.6161 L -6.961,-1.2274 L -6.8276,-1.8294 L -6.6421,-2.4175 L -6.4062,-2.9872 L -6.1214,-3.5342 L -5.7901,-4.0543 L -5.4147,-4.5435 L -4.9981,-4.9981 L -4.5435,-5.4147 L -4.0543,-5.7901 L -3.5342,-6.1214 L -2.9872,-6.4062 L -2.4175,-6.6421 L -1.8294,-6.8276 L -1.2274,-6.961 L -0.6161,-7.0415 L -0.0,-7.0684 L 0.6161,-7.0415 L 1.2274,-6.961 L 1.8294,-6.8276 L 2.4175,-6.6421 L 2.9872,-6.4062 L 3.5342,-6.1214 L 4.0543,-5.7901 L 4.5435,-5.4147 L 4.9981,-4.9981 L 5.4147,-4.5435 L 5.7901,-4.0543 L 6.1214,-3.5342 L 6.4062,-2.9872 L 6.6421,-2.4175 L 6.8276,-1.8294 L 6.961,-1.2274 L 7.0415,-0.6161 L 7.0684,-0.0 L 7.0415,0.6161 L 6.961,1.2274 L 6.8276,1.8294 L 6.6421,2.4175 L 6.4062,2.9872 L 6.1214,3.5342 L 5.7901,4.0543 L 5.4147,4.5435 L 4.9981,4.9981 L 4.5435,5.4147 L 4.0543,5.7901 L 3.5342,6.1214 L 2.9872,6.4062 L 2.4175,6.6421 L 1.8294,6.8276 L 1.2274,6.961 L 0.6161,7.0415 L 0.0,7.0684" />
      <path d="M 20.9652,6.2415 L 20.9654,6.0681 L 20.9655,5.8947 L 20.9655,5.7214 L 20.9655,5.548 L 20.9656,5.3746 L 20.9656,5.2012 L 20.9656,5.0279 L 20.9657,4.8545 L 20.9657,4.6811 L 20.9657,4.5077 L 20.9657,4.3344 L 20.9658,4.161 L 20.9658,3.9876 L 20.9658,3.8142 L 20.9658,3.6409 L 20.9658,3.4675 L 20.9658,3.2941 L 20.9658,3.1207 L 20.9658,2.9474 L 20.9659,2.774 L 20.9659,2.6006 L 20.9659,2.4272 L 20.9659,2.2539 L 20.9659,2.0805 L 20.9659,1.9071 L 20.9659,1.7337 L 20.9659,1.5604 L 20.9659,1.387 L 20.9659,1.2136 L 20.9659,1.0402 L 20.9659,0.8669 L 20.9659,0.6935 L 20.9659,0.5201 L 20.9659,0.3467 L 20.9659,0.1734 L 20.9659,0.0 L 20.9659,-0.1734 L 20.9659,-0.3467 L 20.9659,-0.5201 L 20.9659,-0.6935 L 20.9659,-0.8669 L 20.9659,-1.0402 L 20.9659,-1.2136 L 20.9659,-1.387 L 20.9659,-1.5604 L 20.9659,-1.7337 L 20.9659,-1.9071 L 20.9659,-2.0805 L 20.9659,-2.2539 L 20.9659,-2.4272 L 20.9659,-2.6006 L 20.9659,-2.774 L 20.9658,-2.9474 L 20.9658,-3.1207 L 20.9658,-3.2941 L 20.9658,-3.4675 L 20.9658,-3.6409 L 20.9658,-3.8142 L 20.9658,-3.9876 L 20.9658,-4.161 L 20.9657,-4.3344 L 20.9657,-4.5077 L 20.9657,-4.6811 L 20.9657,-4.8545 L 20.9656,-5.0279 L 20.9656,-5.2012 L 20.9656,-5.3746 L 20.9655,-5.548 L 20.9655,-5.7214 L 20.9655,-5.8947 L 20.9654,-6.0681 L 20.9652,-6.2415" />
      <path d="M 20.9652,-6.2415 L 20.965,-6.0681 L 20.965,-5.8947 L 20.9649,-5.7214 L 20.9649,-5.548 L 20.9648,-5.3746 L 20.9648,-5.2012 L 20.9648,-5.0279 L 20.9648,-4.8545 L 20.9647,-4.6811 L 20.9647,-4.5077 L 20.9647,-4.3344 L 20.9647,-4.161 L 20.9647,-3.9876 L 20.9646,-3.8142 L 20.9646,-3.6409 L 20.9646,-3.4675 L 20.9646,-3.2941 L 20.9646,-3.1207 L 20.9646,-2.9474 L 20.9646,-2.774 L 20.9646,-2.6006 L 20.9645,-2.4272 L 20.9645,-2.2539 L 20.9645,-2.0805 L 20.9645,-1.9071 L 20.9645,-1.7337 L 20.9645,-1.5604 L 20.9645,-1.387 L 20.9645,-1.2136 L 20.9645,-1.0402 L 20.9645,-0.8669 L 20.9645,-0.6935 L 20.9645,-0.5201 L 20.9645,-0.3467 L 20.9645,-0.1734 L 20.9645,0.0 L 20.9645,0.1734 L 20.9645,0.3467 L 20.9645,0.5201 L 20.9645,0.6935 L 20.9645,0.8669 L 20.9645,1.0402 L 20.9645,1.2136 L 20.9645,1.387 L 20.9645,1.5604 L 20.9645,1.7337 L 20.9645,1.9071 L 20.9645,2.0805 L 20.9645,2.2539 L 20.9645,2.4272 L 20.9646,2.6006 L 20.9646,2.774 L 20.9646,2.9474 L 20.9646,3.1207 L 20.9646,3.2941 L 20.9646,3.4675 L 20.9646,3.6409 L 20.9646,3.8142 L 20.9647,3.9876 L 20.9647,4.161 L 20.9647,4.3344 L 20.9647,4.5077 L 20.9647,4.6811 L 20.9648,4.8545 L 20.9648,5.0279 L 20.9648,5.2012 L 20.9648,5.3746 L 20.9649,5.548 L 20.9649,5.7214 L 20.965,5.8947 L 20.965,6.0681 L 20.9652,6.2415" />
      <path d="M 21.6439,14.7585 L 21.6443,14.3485 L 21.6445,13.9386 L 21.6446,13.5286 L 21.6447,13.1187 L 21.6448,12.7087 L 21.6448,12.2988 L 21.6449,11.8888 L 21.645,11.4788 L 21.645,11.0689 L 21.6451,10.6589 L 21.6451,10.249 L 21.6452,9.839 L 21.6452,9.429 L 21.6453,9.0191 L 21.6453,8.6091 L 21.6453,8.1992 L 21.6453,7.7892 L 21.6454,7.3793 L 21.6454,6.9693 L 21.6454,6.5593 L 21.6455,6.1494 L 21.6455,5.7394 L 21.6455,5.3295 L 21.6455,4.9195 L 21.6455,4.5095 L 21.6455,4.0996 L 21.6456,3.6896 L 21.6456,3.2797 L 21.6456,2.8697 L 21.6456,2.4598 L 21.6456,2.0498 L 21.6456,1.6398 L 21.6456,1.2299 L 21.6456,0.8199 L 21.6456,0.41 L 21.6456,0.0 L 21.6456,-0.41 L 21.6456,-0.8199 L 21.6456,-1.2299 L 21.6456,-1.6398 L 21.6456,-2.0498 L 21.6456,-2.4598 L 21.6456,-2.8697 L 21.6456,-3.2797 L 21.6456,-3.6896 L 21.6455,-4.0996 L 21.6455,-4.5095 L 21.6455,-4.9195 L 21.6455,-5.3295 L 21.6455,-5.7394 L 21.6455,-6.1494 L 21.6454,-6.5593 L 21.6454,-6.9693 L 21.6454,-7.3793 L 21.6453,-7.7892 L 21.6453,-8.1992 L 21.6453,-8.6091 L 21.6453,-9.0191 L 21.6452,-9.429 L 21.6452,-9.839 L 21.6451,-10.249 L 21.6451,-10.6589 L 21.645,-11.0689 L 21.645,-11.4788 L 21.6449,-11.8888 L 21.6448,-12.2988 L 21.6448,-12.7087 L 21.6447,-13.1187 L 21.6446,-13.5286 L 21.6445,-13.9386 L 21.6443,-14.3485 L 21.6439,-14.7585" />
      <path d="M 18.7601,13.9316 L 18.7605,13.5446 L 18.7606,13.1576 L 18.7608,12.7706 L 18.7609,12.3836 L 18.7609,11.9966 L 18.761,11.6097 L 18.7611,11.2227 L 18.7611,10.8357 L 18.7612,10.4487 L 18.7612,10.0617 L 18.7613,9.6747 L 18.7613,9.2877 L 18.7614,8.9007 L 18.7614,8.5137 L 18.7614,8.1268 L 18.7615,7.7398 L 18.7615,7.3528 L 18.7615,6.9658 L 18.7615,6.5788 L 18.7616,6.1918 L 18.7616,5.8048 L 18.7616,5.4178 L 18.7616,5.0309 L 18.7616,4.6439 L 18.7616,4.2569 L 18.7617,3.8699 L 18.7617,3.4829 L 18.7617,3.0959 L 18.7617,2.7089 L 18.7617,2.3219 L 18.7617,1.9349 L 18.7617,1.548 L 18.7617,1.161 L 18.7617,0.774 L 18.7617,0.387 L 18.7617,0.0 L 18.7617,-0.387 L 18.7617,-0.774 L 18.7617,-1.161 L 18.7617,-1.548 L 18.7617,-1.9349 L 18.7617,-2.3219 L 18.7617,-2.7089 L 18.7617,-3.0959 L 18.7617,-3.4829 L 18.7617,-3.8699 L 18.7616,-4.2569 L 18.7616,-4.6439 L 18.7616,-5.0309 L 18.7616,-5.4178 L 18.7616,-5.8048 L 18.7616,-6.1918 L 18.7615,-6.5788 L 18.7615,-6.9658 L 18.7615,-7.3528 L 18.7615,-7.7398 L 18.7614,-8.1268 L 18.7614,-8.5137 L 18.7614,-8.9007 L 18.7613,-9.2877 L 18.7613,-9.6747 L 18.7612,-10.0617 L 18.7612,-10.4487 L 18.7611,-10.8357 L 18.7611,-11.2227 L 18.761,-11.6097 L 18.7609,-11.9966 L 18.7609,-12.3836 L 18.7608,-12.7706 L 18.7606,-13.1576 L 18.7605,-13.5446 L 18.7601,-13.9316" />
      <path d="M 20.9652,6.2415 L 21.0053,6.253 L 21.0453,6.2645 L 21.0854,6.276 L 21.1254,6.2874 L 21.1655,6.2989 L 21.2055,6.3104 L 21.2456,6.3219 L 21.2856,6.3334 L 21.3257,6.3449 L 21.3657,6.3563 L 21.4058,6.3678 L 21.4458,6.3793 L 21.4859,6.3908 L 21.5259,6.4023 L 21.566,6.4138 L 21.6061,6.4253 L 21.6461,6.4367 L 21.6862,6.4482 L 21.7262,6.4597 L 21.7663,6.4712 L 21.8063,6.4827 L 21.8464,6.4942 L 21.8864,6.5056 L 21.9265,6.5171 L 21.9665,6.5286 L 22.0066,6.5401 L 22.0466,6.5516 L 22.0867,6.5631 L 22.1267,6.5746 L 22.1668,6.586 L 22.2068,6.5975 L 22.2469,6.609 L 22.2869,6.6205 L 22.327,6.632 L 22.3671,6.6435 L 22.4071,6.655 L 22.4472,6.6664 L 22.4872,6.6779 L 22.5273,6.6894 L 22.5673,6.7009 L 22.6074,6.7124 L 22.6474,6.7239 L 22.6875,6.7353 L 22.7275,6.7468 L 22.7676,6.7583 L 22.8076,6.7698 L 22.8477,6.7813 L 22.8877,6.7928 L 22.9278,6.8043 L 22.9678,6.8157 L 23.0079,6.8272 L 23.0479,6.8387 L 23.088,6.8502 L 23.1281,6.8617 L 23.1681,6.8732 L 23.2082,6.8847 L 23.2482,6.8961 L 23.2883,6.9076 L 23.3283,6.9191 L 23.3684,6.9306 L 23.4084,6.9421 L 23.4485,6.9536 L 23.4885,6.965 L 23.5286,6.9765 L 23.5686,6.988 L 23.6087,6.9995 L 23.6487,7.011 L 23.6888,7.0225 L 23.7288,7.034 L 23.7689,7.0454 L 23.8089,7.0569 L 23.849,7.0684" />
      <path d="M 20.9652,-6.2415 L 21.0053,-6.253 L 21.0453,-6.2645 L 21.0854,-6.276 L 21.1254,-6.2874 L 21.1655,-6.2989 L 21.2055,-6.3104 L 21.2456,-6.3219 L 21.2856,-6.3334 L 21.3257,-6.3449 L 21.3657,-6.3563 L 21.4058,-6.3678 L 21.4458,-6.3793 L 21.4859,-6.3908 L 21.5259,-6.4023 L 21.566,-6.4138 L 21.6061,-6.4253 L 21.6461,-6.4367 L 21.6862,-6.4482 L 21.7262,-6.4597 L 21.7663,-6.4712 L 21.8063,-6.4827 L 21.8464,-6.4942 L 21.8864,-6.5056 L 21.9265,-6.5171 L 21.9665,-6.5286 L 22.0066,-6.5401 L 22.0466,-6.5516 L 22.0867,-6.5631 L 22.1267,-6.5746 L 22.1668,-6.586 L 22.2068,-6.5975 L 22.2469,-6.609 L 22.2869,-6.6205 L 22.327,-6.632 L 22.3671,-6.6435 L 22.4071,-6.655 L 22.4472,-6.6664 L 22.4872,-6.6779 L 22.5273,-6.6894 L 22.5673,-6.7009 L 22.6074,-6.7124 L 22.6474,-6.7239 L 22.6875,-6.7353 L 22.7275,-6.7468 L 22.7676,-6.7583 L 22.8076,-6.7698 L 22.8477,-6.7813 L 22.8877,-6.7928 L 22.9278,-6.8043 L 22.9678,-6.8157 L 23.0079,-6.8272 L 23.0479,-6.8387 L 23.088,-6.8502 L 23.1281,-6.8617 L 23.1681,-6.8732 L 23.2082,-6.8847 L 23.2482,-6.8961 L 23.2883,-6.9076 L 23.3283,-6.9191 L 23.3684,-6.9306 L 23.4084,-6.9421 L 23.4485,-6.9536 L 23.4885,-6.965 L 23.5286,-6.9765 L 23.5686,-6.988 L 23.6087,-6.9995 L 23.6487,-7.011 L 23.6888,-7.0225 L 23.7288,-7.034 L 23.7689,-7.0454 L 23.8089,-7.0569 L 23.849,-7.0684" />
      <path d="M 20.9652,6.2415 L 20.9346,6.3483 L 20.904,6.4551 L 20.8733,6.5619 L 20.8427,6.6687 L 20.8121,6.7755 L 20.7815,6.8823 L 20.7508,6.9891 L 20.7202,7.096 L 20.6896,7.2028 L 20.6589,7.3096 L 20.6283,7.4164 L 20.5977,7.5232 L 20.5671,7.63 L 20.5364,7.7368 L 20.5058,7.8436 L 20.4752,7.9504 L 20.4446,8.0572 L 20.4139,8.164 L 20.3833,8.2708 L 20.3527,8.3776 L 20.3221,8.4844 L 20.2914,8.5912 L 20.2608,8.6981 L 20.2302,8.8049 L 20.1996,8.9117 L 20.1689,9.0185 L 20.1383,9.1253 L 20.1077,9.2321 L 20.077,9.3389 L 20.0464,9.4457 L 20.0158,9.5525 L 19.9852,9.6593 L 19.9545,9.7661 L 19.9239,9.8729 L 19.8933,9.9797 L 19.8627,10.0865 L 19.832,10.1933 L 19.8014,10.3002 L 19.7708,10.407 L 19.7402,10.5138 L 19.7095,10.6206 L 19.6789,10.7274 L 19.6483,10.8342 L 19.6177,10.941 L 19.587,11.0478 L 19.5564,11.1546 L 19.5258,11.2614 L 19.4951,11.3682 L 19.4645,11.475 L 19.4339,11.5818 L 19.4033,11.6886 L 19.3726,11.7955 L 19.342,11.9023 L 19.3114,12.0091 L 19.2808,12.1159 L 19.2501,12.2227 L 19.2195,12.3295 L 19.1889,12.4363 L 19.1583,12.5431 L 19.1276,12.6499 L 19.097,12.7567 L 19.0664,12.8635 L 19.0358,12.9703 L 19.0051,13.0771 L 18.9745,13.1839 L 18.9439,13.2907 L 18.9132,13.3976 L 18.8826,13.5044 L 18.852,13.6112 L 18.8214,13.718 L 18.7907,13.8248 L 18.7601,13.9316" />
      <path d="M 20.9652,-6.2415 L 20.9346,-6.3483 L 20.904,-6.4551 L 20.8733,-6.5619 L 20.8427,-6.6687 L 20.8121,-6.7755 L 20.7815,-6.8823 L 20.7508,-6.9891 L 20.7202,-7.096 L 20.6896,-7.2028 L 20.6589,-7.3096 L 20.6283,-7.4164 L 20.5977,-7.5232 L 20.5671,-7.63 L 20.5364,-7.7368 L 20.5058,-7.8436 L 20.4752,-7.9504 L 20.4446,-8.0572 L 20.4139,-8.164 L 20.3833,-8.2708 L 20.3527,-8.3776 L 20.3221,-8.4844 L 20.2914,-8.5912 L 20.2608,-8.6981 L 20.2302,-8.8049 L 20.1996,-8.9117 L 20.1689,-9.0185 L 20.1383,-9.1253 L 20.1077,-9.2321 L 20.077,-9.3389 L 20.0464,-9.4457 L 20.0158,-9.5525 L 19.9852,-9.6593 L 19.9545,-9.7661 L 19.9239,-9.8729 L 19.8933,-9.9797 L 19.8627,-10.0865 L 19.832,-10.1933 L 19.8014,-10.3002 L 19.7708,-10.407 L 19.7402,-10.5138 L 19.7095,-10.6206 L 19.6789,-10.7274 L 19.6483,-10.8342 L 19.6177,-10.941 L 19.587,-11.0478 L 19.5564,-11.1546 L 19.5258,-11.2614 L 19.4951,-11.3682 L 19.4645,-11.475 L 19.4339,-11.5818 L 19.4033,-11.6886 L 19.3726,-11.7955 L 19.342,-11.9023 L 19.3114,-12.0091 L 19.2808,-12.1159 L 19.2501,-12.2227 L 19.2195,-12.3295 L 19.1889,-12.4363 L 19.1583,-12.5431 L 19.1276,-12.6499 L 19.097,-12.7567 L 19.0664,-12.8635 L 19.0358,-12.9703 L 19.0051,-13.0771 L 18.9745,-13.1839 L 18.9439,-13.2907 L 18.9132,-13.3976 L 18.8826,-13.5044 L 18.852,-13.6112 L 18.8214,-13.718 L 18.7907,-13.8248 L 18.7601,-13.9316" />
    </g>
    <g fill="none" stroke="rgb(0,0,0)" stroke-width="0.2" id="Center" stroke-dasharray="6.35 1.27 1.27 1.27">
      <line x1="0.0" y1="-0.0" x2="-17.1185" y2="-0.0" />
      <line x1="0.0" y1="-0.0" x2="17.1185" y2="-0.0" />
      <line x1="0.0" y1="-0.0" x2="0.0" y2="-17.1185" />
      <line x1="0.0" y1="-0.0" x2="0.0" y2="17.1185" />
      <line x1="21.3042" y1="-0.0" x2="16.3985" y2="-0.0" />
      <line x1="21.3042" y1="-0.0" x2="26.2098" y2="-0.0" />
    </g>
  </g>
</svg>