<?xml version='1.0' encoding='utf-8'?>
<svg width="30.9mm" height="25.4mm" viewBox="-12.7 -12.7 30.9 25.4" version="1.1" xmlns="http://www.w3.org/2000/svg">
  <g transform="scale(1,-1)" stroke-linecap="round">
    <g fill="none" stroke="rgb(0,0,0)" stroke-width="0.4" id="Visible">
      <path d="M 9.0,0.0 L 8.9658,0.7844 L 8.8633,1.5628 L 8.6933,2.3294 L 8.4572,3.0782 L 8.1568,3.8036 L 7.7942,4.5 L 7.3724,5.1622 L 6.8944,5.7851 L 6.364,6.364 L 5.7851,6.8944 L 5.1622,7.3724 L 4.5,7.7942 L 3.8036,8.1568 L 3.0782,8.4572 L 2.3294,8.6933 L 1.5628,8.8633 L 0.7844,8.9658 L 0.0,9.0 L -0.7844,8.9658 L -1.5628,8.8633 L -2.3294,8.6933 L -3.0782,8.4572 L -3.8036,8.1568 L -4.5,7.7942 L -5.1622,7.3724 L -5.7851,6.8944 L -6.364,6.364 L -6.8944,5.7851 L -7.3724,5.1622 L -7.7942,4.5 L -8.1568,3.8036 L -8.4572,3.0782 L -8.6933,2.3294 L -8.8633,1.5628 L -8.9658,0.7844 L -9.0,-0.0 L -8.9658,-0.7844 L -8.8633,-1.5628 L -8.6933,-2.3294 L -8.4572,-3.0782 L -8.1568,-3.8036 L -7.7942,-4.5 L -7.3724,-5.1622 L -6.8944,-5.7851 L -6.364,-6.364 L -5.7851,-6.8944 L -5.1622,-7.3724 L -4.5,-7.7942 L -3.8036,-8.1568 L -3.0782,-8.4572 L -2.3294,-8.6933 L -1.5628,-8.8633 L -0.7844,-8.9658 L -0.0,-9.0 L 0.7844,-8.9658 L 1.5628,-8.8633 L 2.3294,-8.6933 L 3.0782,-8.4572 L 3.8036,-8.1568 L 4.5,-7.7942 L 5.1622,-7.3724 L 5.7851,-6.8944 L 6.364,-6.364 L 6.8944,-5.7851 L 7.3724,-5.1622 L 7.7942,-4.5 L 8.1568,-3.8036 L 8.4572,-3.0782 L 8.6933,-2.3294 L 8.8633,-1.5628 L 8.9658,-0.7844 L 9.0,0.0" />
      <path d="M 6.0,0.0 L 5.9772,0.5229 L 5.9088,1.0419 L 5.7956,1.5529 L 5.6382,2.0521 L 5.4378,2.5357 L 5.1962,3.0 L 4.9149,3.4415 L 4.5963,3.8567 L 4.2426,4.2426 L 3.8567,4.5963 L 3.4415,4.9149 L 3.0,5.1962 L 2.5357,5.4378 L 2.0521,5.6382 L 1.5529,5.7956 L 1.0419,5.9088 L 0.5229,5.9772 L 0.0,6.0 L -0.5229,5.9772 L -1.0419,5.9088 L -1.5529,5.7956 L -2.0521,5.6382 L -2.5357,5.4378 L -3.0,5.1962 L -3.4415,4.9149 L -3.8567,4.5963 L -4.2426,4.2426 L -4.5963,3.8567 L -4.9149,3.4415 L -5.1962,3.0 L -5.4378,2.5357 L -5.6382,2.0521 L -5.7956,1.5529 L -5.9088,1.0419 L -5.9772,0.5229 L -6.0,-0.0 L -5.9772,-0.5229 L -5.9088,-1.0419 L -5.7956,-1.5529 L -5.6382,-2.0521 L -5.4378,-2.5357 L -5.1962,-3.0 L -4.9149,-3.4415 L -4.5963,-3.8567 L -4.2426,-4.2426 L -3.8567,-4.5963 L -3.4415,-4.9149 L -3.0,-5.1962 L -2.5357,-5.4378 L -2.0521,-5.6382 L -1.5529,-5.7956 L -1.0419,-5.9088 L -0.5229,-5.9772 L -0.0,-6.0 L 0.5229,-5.9772 L 1.0419,-5.9088 L 1.5529,-5.7956 L 2.0521,-5.6382 L 2.5357,-5.4378 L 3.0,-5.1962 L 3.4415,-4.9149 L 3.8567,-4.5963 L 4.2426,-4.2426 L 4.5963,-3.8567 L 4.9149,-3.4415 L 5.1962,-3.0 L 5.4378,-2.5357 L 5.6382,-2.0521 L 5.7956,-1.5529 L 5.9088,-1.0419 L 5.9772,-0.5229 L 6.0,0.0" />
      <path d="M 13.0,-9.0 L 13.0,-8.75 L 13.0,-8.5 L 13.0,-8.25 L 13.0,-8.0 L 13.0,-7.75 L 13.0,-7.5 L 13.0,-7.25 L 13.0,-7.0 L 13.0,-6.75 L 13.0,-6.5 L 13.0,-6.25 L 13.0,-6.0 L 13.0,-5.75 L 13.0,-5.5 L 13.0,-5.25 L 13.0,-5.0 L 13.0,-4.75 L 13.0,-4.5 L 13.0,-4.25 L 13.0,-4.0 L 13.0,-3.75 L 13.0,-3.5 L 13.0,-3.25 L 13.0,-3.0 L 13.0,-2.75 L 13.0,-2.5 L 13.0,-2.25 L 13.0,-2.0 L 13.0,-1.75 L 13.0,-1.5 L 13.0,-1.25 L 13.0,-1.0 L 13.0,-0.75 L 13.0,-0.5 L 13.0,-0.25 L 13.0,0.0 L 13.0,0.25 L 13.0,0.5 L 13.0,0.75 L 13.0,1.0 L 13.0,1.25 L 13.0,1.5 L 13.0,1.75 L 13.0,2.0 L 13.0,2.25 L 13.0,2.5 L 13.0,2.75 L 13.0,3.0 L 13.0,3.25 L 13.0,3.5 L 13.0,3.75 L 13.0,4.0 L 13.0,4.25 L 13.0,4.5 L 13.0,4.75 L 13.0,5.0 L 13.0,5.25 L 13.0,5.5 L 13.0,5.75 L 13.0,6.0 L 13.0,6.25 L 13.0,6.5 L 13.0,6.75 L 13.0,7.0 L 13.0,7.25 L 13.0,7.5 L 13.0,7.75 L 13.0,8.0 L 13.0,8.25 L 13.0,8.5 L 13.0,8.75 L 13.0,9.0" />
      <path d="M 14.5,9.0 L 14.4792,9.0 L 14.4583,9.0 L 14.4375,9.0 L 14.4167,9.0 L 14.3958,9.0 L 14.375,9.0 L 14.3542,9.0 L 14.3333,9.0 L 14.3125,9.0 L 14.2917,9.0 L 14.2708,9.0 L 14.25,9.0 L 14.2292,9.0 L 14.2083,9.0 L 14.1875,9.0 L 14.1667,9.0 L 14.1458,9.0 L 14.125,9.0 L 14.1042,9.0 L 14.0833,9.0 L 14.0625,9.0 L 14.0417,9.0 L 14.0208,9.0 L 14.0,9.0 L 13.9792,9.0 L 13.9583,9.0 L 13.9375,9.0 L 13.9167,9.0 L 13.8958,9.0 L 13.875,9.0 L 13.8542,9.0 L 13.8333,9.0 L 13.8125,9.0 L 13.7917,9.0 L 13.7708,9.0 L 13.75,9.0 L 13.7292,9.0 L 13.7083,9.0 L 13.6875,9.0 L 13.6667,9.0 L 13.6458,9.0 L 13.625,9.0 L 13.6042,9.0 L 13.5833,9.0 L 13.5625,9.0 L 13.5417,9.0 L 13.5208,9.0 L 13.5,9.0 L 13.4792,9.0 L 13.4583,9.0 L 13.4375,9.0 L 13.4167,9.0 L 13.3958,9.0 L 13.375,9.0 L 13.3542,9.0 L 13.3333,9.0 L 13.3125,9.0 L 13.2917,9.0 L 13.2708,9.0 L 13.25,9.0 L 13.2292,9.0 L 13.2083,9.0 L 13.1875,9.0 L 13.1667,9.0 L 13.1458,9.0 L 13.125,9.0 L 13.1042,9.0 L 13.0833,9.0 L 13.0625,9.0 L 13.0417,9.0 L 13.0208,9.0 L 13.0,9.0" />
      <path d="M 14.5,-9.0 L 14.5,-8.75 L 14.5,-8.5 L 14.5,-8.25 L 14.5,-8.0 L 14.5,-7.75 L 14.5,-7.5 L 14.5,-7.25 L 14.5,-7.0 L 14.5,-6.75 L 14.5,-6.5 L 14.5,-6.25 L 14.5,-6.0 L 14.5,-5.75 L 14.5,-5.5 L 14.5,-5.25 L 14.5,-5.0 L 14.5,-4.75 L 14.5,-4.5 L 14.5,-4.25 L 14.5,-4.0 L 14.5,-3.75 L 14.5,-3.5 L 14.5,-3.25 L 14.5,-3.0 L 14.5,-2.75 L 14.5,-2.5 L 14.5,-2.25 L 14.5,-2.0 L 14.5,-1.75 L 14.5,-1.5 L 14.5,-1.25 L 14.5,-1.0 L 14.5,-0.75 L 14.5,-0.5 L 14.5,-0.25 L 14.5,0.0 L 14.5,0.25 L 14.5,0.5 L 14.5,0.75 L 14.5,1.0 L 14.5,1.25 L 14.5,1.5 L 14.5,1.75 L 14.5,2.0 L 14.5,2.25 L 14.5,2.5 L 14.5,2.75 L 14.5,3.0 L 14.5,3.25 L 14.5,3.5 L 14.5,3.75 L 14.5,4.0 L 14.5,4.25 L 14.5,4.5 L 14.5,4.75 L 14.5,5.0 L 14.5,5.25 L 14.5,5.5 L 14.5,5.75 L 14.5,6.0 L 14.5,6.25 L 14.5,6.5 L 14.5,6.75 L 14.5,7.0 L 14.5,7.25 L 14.5,7.5 L 14.5,7.75 L 14.5,8.0 L 14.5,8.25 L 14.5,8.5 L 14.5,8.75 L 14.5,9.0" />
      <path d="M 14.5,-9.0 L 14.4792,-9.0 L 14.4583,-9.0 L 14.4375,-9.0 L 14.4167,-9.0 L 14.3958,-9.0 L 14.375,-9.0 L 14.3542,-9.0 L 14.3333,-9.0 L 14.3125,-9.0 L 14.2917,-9.0 L 14.2708,-9.0 L 14.25,-9.0 L 14.2292,-9.0 L 14.2083,-9.0 L 14.1875,-9.0 L 14.1667,-9.0 L 14.1458,-9.0 L 14.125,-9.0 L 14.1042,-9.0 L 14.0833,-9.0 L 14.0625,-9.0 L 14.0417,-9.0 L 14.0208,-9.0 L 14.0,-9.0 L 13.9792,-9.0 L 13.9583,-9.0 L 13.9375,-9.0 L 13.9167,-9.0 L 13.8958,-9.0 L 13.875,-9.0 L 13.8542,-9.0 L 13.8333,-9.0 L 13.8125,-9.0 L 13.7917,-9.0 L 13.7708,-9.0 L 13.75,-9.0 L 13.7292,-9.0 L 13.7083,-9.0 L 13.6875,-9.0 L 13.6667,-9.0 L 13.6458,-9.0 L 13.625,-9.0 L 13.6042,-9.0 L 13.5833,-9.0 L 13.5625,-9.0 L 13.5417,-9.0 L 13.5208,-9.0 L 13.5,-9.0 L 13.4792,-9.0 L 13.4583,-9.0 L 13.4375,-9.0 L 13.4167,-9.0 L 13.3958,-9.0 L 13.375,-9.0 L 13.3542,-9.0 L 13.3333,-9.0 L 13.3125,-9.0 L 13.2917,-9.0 L 13.2708,-9.0 L 13.25,-9.0 L 13.2292,-9.0 L 13.2083,-9.0 L 13.1875,-9.0 L 13.1667,-9.0 L 13.1458,-9.0 L 13.125,-9.0 L 13.1042,-9.0 L 13.0833,-9.0 L 13.0625,-9.0 L 13.0417,-9.0 L 13.0208,-9.0 L 13.0,-9.0" />
    </g>
    <g fill="none" stroke="rgb(110,110,110)" stroke-width="0.3" id="Hidden" stroke-dasharray="3.6 0.9">
      <path d="M 9.0,0.0 L 8.9658,0.7844 L 8.8633,1.5628 L 8.6933,2.3294 L 8.4572,3.0782 L 8.1568,3.8036 L 7.7942,4.5 L 7.3724,5.1622 L 6.8944,5.7851 L 6.364,6.364 L 5.7851,6.8944 L 5.1622,7.3724 L 4.5,7.7942 L 3.8036,8.1568 L 3.0782,8.4572 L 2.3294,8.6933 L 1.5628,8.8633 L 0.7844,8.9658 L 0.0,9.0 L -0.7844,8.9658 L -1.5628,8.8633 L -2.3294,8.6933 L -3.0782,8.4572 L -3.8036,8.1568 L -4.5,7.7942 L -5.1622,7.3724 L -5.7851,6.8944 L -6.364,6.364 L -6.8944,5.7851 L -7.3724,5.1622 L -7.7942,4.5 L -8.1568,3.8036 L -8.4572,3.0782 L -8.6933,2.3294 L -8.8633,1.5628 L -8.9658,0.7844 L -9.0,-0.0 L -8.9658,-0.7844 L -8.8633,-1.5628 L -8.6933,-2.3294 L -8.4572,-3.0782 L -8.1568,-3.8036 L -7.7942,-4.5 L -7.3724,-5.1622 L -6.8944,-5.7851 L -6.364,-6.364 L -5.7851,-6.8944 L -5.1622,-7.3724 L -4.5,-7.7942 L -3.8036,-8.1568 L -3.0782,-8.4572 L -2.3294,-8.6933 L -1.5628,-8.8633 L -0.7844,-8.9658 L -0.0,-9.0 L 0.7844,-8.9658 L 1.5628,-8.8633 L 2.3294,-8.6933 L 3.0782,-8.4572 L 3.8036,-8.1568 L 4.5,-7.7942 L 5.1622,-7.3724 L 5.7851,-6.8944 L 6.364,-6.364 L 6.8944,-5.7851 L 7.3724,-5.1622 L 7.7942,-4.5 L 8.1568,-3.8036 L 8.4572,-3.0782 L 8.6933,-2.3294 L 8.8633,-1.5628 L 8.9658,-0.7844 L 9.0,0.0" />
      <path d="M 6.0,0.0 L 5.9772,0.5229 L 5.9088,1.0419 L 5.7956,1.5529 L 5.6382,2.0521 L 5.4378,2.5357 L 5.1962,3.0 L 4.9149,3.4415 L 4.5963,3.8567 L 4.2426,4.2426 L 3.8567,4.5963 L 3.4415,4.9149 L 3.0,5.1962 L 2.5357,5.4378 L 2.0521,5.6382 L 1.5529,5.7956 L 1.0419,5.9088 L 0.5229,5.9772 L 0.0,6.0 L -0.5229,5.9772 L -1.0419,5.9088 L -1.5529,5.7956 L -2.0521,5.6382 L -2.5357,5.4378 L -3.0,5.1962 L -3.4415,4.9149 L -3.8567,4.5963 L -4.2426,4.2426 L -4.5963,3.8567 L -4.9149,3.4415 L -5.1962,3.0 L -5.4378,2.5357 L -5.6382,2.0521 L -5.7956,1.5529 L -5.9088,1.0419 L -5.9772,0.5229 L -6.0,-0.0 L -5.9772,-0.5229 L -5.9088,-1.0419 L -5.7956,-1.5529 L -5.6382,-2.0521 L -5.4378,-2.5357 L -5.1962,-3.0 L -4.9149,-3.4415 L -4.5963,-3.8567 L -4.2426,-4.2426 L -3.8567,-4.5963 L -3.4415,-4.9149 L -3.0,-5.1962 L -2.5357,-5.4378 L -2.0521,-5.6382 L -1.5529,-5.7956 L -1.0419,-5.9088 L -0.5229,-5.9772 L -0.0,-6.0 L 0.5229,-5.9772 L 1.0419,-5.9088 L 1.5529,-5.7956 L 2.0521,-5.6382 L 2.5357,-5.4378 L 3.0,-5.1962 L 3.4415,-4.9149 L 3.8567,-4.5963 L 4.2426,-4.2426 L 4.5963,-3.8567 L 4.9149,-3.4415 L 5.1962,-3.0 L 5.4378,-2.5357 L 5.6382,-2.0521 L 5.7956,-1.5529 L 5.9088,-1.0419 L 5.9772,-0.5229 L 6.0,0.0" />
      <path d="M 13.0,9.0 L 13.0,8.75 L 13.0,8.5 L 13.0,8.25 L 13.0,8.0 L 13.0,7.75 L 13.0,7.5 L 13.0,7.25 L 13.0,7.0 L 13.0,6.75 L 13.0,6.5 L 13.0,6.25 L 13.0,6.0 L 13.0,5.75 L 13.0,5.5 L 13.0,5.25 L 13.0,5.0 L 13.0,4.75 L 13.0,4.5 L 13.0,4.25 L 13.0,4.0 L 13.0,3.75 L 13.0,3.5 L 13.0,3.25 L 13.0,3.0 L 13.0,2.75 L 13.0,2.5 L 13.0,2.25 L 13.0,2.0 L 13.0,1.75 L 13.0,1.5 L 13.0,1.25 L 13.0,1.0 L 13.0,0.75 L 13.0,0.5 L 13.0,0.25 L 13.0,0.0 L 13.0,-0.25 L 13.0,-0.5 L 13.0,-0.75 L 13.0,-1.0 L 13.0,-1.25 L 13.0,-1.5 L 13.0,-1.75 L 13.0,-2.0 L 13.0,-2.25 L 13.0,-2.5 L 13.0,-2.75 L 13.0,-3.0 L 13.0,-3.25 L 13.0,-3.5 L 13.0,-3.75 L 13.0,-4.0 L 13.0,-4.25 L 13.0,-4.5 L 13.0,-4.75 L 13.0,-5.0 L 13.0,-5.25 L 13.0,-5.5 L 13.0,-5.75 L 13.0,-6.0 L 13.0,-6.25 L 13.0,-6.5 L 13.0,-6.75 L 13.0,-7.0 L 13.0,-7.25 L 13.0,-7.5 L 13.0,-7.75 L 13.0,-8.0 L 13.0,-8.25 L 13.0,-8.5 L 13.0,-8.75 L 13.0,-9.0" />
      <path d="M 14.5,9.0 L 14.5,8.75 L 14.5,8.5 L 14.5,8.25 L 14.5,8.0 L 14.5,7.75 L 14.5,7.5 L 14.5,7.25 L 14.5,7.0 L 14.5,6.75 L 14.5,6.5 L 14.5,6.25 L 14.5,6.0 L 14.5,5.75 L 14.5,5.5 L 14.5,5.25 L 14.5,5.0 L 14.5,4.75 L 14.5,4.5 L 14.5,4.25 L 14.5,4.0 L 14.5,3.75 L 14.5,3.5 L 14.5,3.25 L 14.5,3.0 L 14.5,2.75 L 14.5,2.5 L 14.5,2.25 L 14.5,2.0 L 14.5,1.75 L 14.5,1.5 L 14.5,1.25 L 14.5,1.0 L 14.5,0.75 L 14.5,0.5 L 14.5,0.25 L 14.5,0.0 L 14.5,-0.25 L 14.5,-0.5 L 14.5,-0.75 L 14.5,-1.0 L 14.5,-1.25 L 14.5,-1.5 L 14.5,-1.75 L 14.5,-2.0 L 14.5,-2.25 L 14.5,-2.5 L 14.5,-2.75 L 14.5,-3.0 L 14.5,-3.25 L 14.5,-3.5 L 14.5,-3.75 L 14.5,-4.0 L 14.5,-4.25 L 14.5,-4.5 L 14.5,-4.75 L 14.5,-5.0 L 14.5,-5.25 L 14.5,-5.5 L 14.5,-5.75 L 14.5,-6.0 L 14.5,-6.25 L 14.5,-6.5 L 14.5,-6.75 L 14.5,-7.0 L 14.5,-7.25 L 14.5,-7.5 L 14.5,-7.75 L 14.5,-8.0 L 14.5,-8.25 L 14.5,-8.5 L 14.5,-8.75 L 14.5,-9.0" />
      <path d="M 13.0,6.0 L 13.0,5.8333 L 13.0,5.6667 L 13.0,5.5 L 13.0,5.3333 L 13.0,5.1667 L 13.0,5.0 L 13.0,4.8333 L 13.0,4.6667 L 13.0,4.5 L 13.0,4.3333 L 13.0,4.1667 L 13.0,4.0 L 13.0,3.8333 L 13.0,3.6667 L 13.0,3.5 L 13.0,3.3333 L 13.0,3.1667 L 13.0,3.0 L 13.0,2.8333 L 13.0,2.6667 L 13.0,2.5 L 13.0,2.3333 L 13.0,2.1667 L 13.0,2.0 L 13.0,1.8333 L 13.0,1.6667 L 13.0,1.5 L 13.0,1.3333 L 13.0,1.1667 L 13.0,1.0 L 13.0,0.8333 L 13.0,0.6667 L 13.0,0.5 L 13.0,0.3333 L 13.0,0.1667 L 13.0,0.0 L 13.0,-0.1667 L 13.0,-0.3333 L 13.0,-0.5 L 13.0,-0.6667 L 13.0,-0.8333 L 13.0,-1.0 L 13.0,-1.1667 L 13.0,-1.3333 L 13.0,-1.5 L 13.0,-1.6667 L 13.0,-1.8333 L 13.0,-2.0 L 13.0,-2.1667 L 13.0,-2.3333 L 13.0,-2.5 L 13.0,-2.6667 L 13.0,-2.8333 L 13.0,-3.0 L 13.0,-3.1667 L 13.0,-3.3333 L 13.0,-3.5 L 13.0,-3.6667 L 13.0,-3.8333 L 13.0,-4.0 L 13.0,-4.1667 L 13.0,-4.3333 L 13.0,-4.5 L 13.0,-4.6667 L 13.0,-4.8333 L 13.0,-5.0 L 13.0,-5.1667 L 13.0,-5.3333 L 13.0,-5.5 L 13.0,-5.6667 L 13.0,-5.8333 L 13.0,-6.0" />
      <path d="M 13.0,-6.0 L 13.0,-5.8333 L 13.0,-5.6667 L 13.0,-5.5 L 13.0,-5.3333 L 13.0,-5.1667 L 13.0,-5.0 L 13.0,-4.8333 L 13.0,-4.6667 L 13.0,-4.5 L 13.0,-4.3333 L 13.0,-4.1667 L 13.0,-4.0 L 13.0,-3.8333 L 13.0,-3.6667 L 13.0,-3.5 L 13.0,-3.3333 L 13.0,-3.1667 L 13.0,-3.0 L 13.0,-2.8333 L 13.0,-2.6667 L 13.0,-2.5 L 13.0,-2.3333 L 13.0,-2.1667 L 13.0,-2.0 L 13.0,-1.8333 L 13.0,-1.6667 L 13.0,-1.5 L 13.0,-1.3333 L 13.0,-1.1667 L 13.0,-1.0 L 13.0,-0.8333 L 13.0,-0.6667 L 13.0,-0.5 L 13.0,-0.3333 L 13.0,-0.1667 L 13.0,0.0 L 13.0,0.1667 L 13.0,0.3333 L 13.0,0.5 L 13.0,0.6667 L 13.0,0.8333 L 13.0,1.0 L 13.0,1.1667 L 13.0,1.3333 L 13.0,1.5 L 13.0,1.6667 L 13.0,1.8333 L 13.0,2.0 L 13.0,2.1667 L 13.0,2.3333 L 13.0,2.5 L 13.0,2.6667 L 13.0,2.8333 L 13.0,3.0 L 13.0,3.1667 L 13.0,3.3333 L 13.0,3.5 L 13.0,3.6667 L 13.0,3.8333 L 13.0,4.0 L 13.0,4.1667 L 13.0,4.3333 L 13.0,4.5 L 13.0,4.6667 L 13.0,4.8333 L 13.0,5.0 L 13.0,5.1667 L 13.0,5.3333 L 13.0,5.5 L 13.0,5.6667 L 13.0,5.8333 L 13.0,6.0" />
      <path d="M 14.5,6.0 L 14.5,5.8333 L 14.5,5.6667 L 14.5,5.5 L 14.5,5.3333 L 14.5,5.1667 L 14.5,5.0 L 14.5,4.8333 L 14.5,4.6667 L 14.5,4.5 L 14.5,4.3333 L 14.5,4.1667 L 14.5,4.0 L 14.5,3.8333 L 14.5,3.6667 L 14.5,3.5 L 14.5,3.3333 L 14.5,3.1667 L 14.5,3.0 L 14.5,2.8333 L 14.5,2.6667 L 14.5,2.5 L 14.5,2.3333 L 14.5,2.1667 L 14.5,2.0 L 14.5,1.8333 L 14.5,1.6667 L 14.5,1.5 L 14.5,1.3333 L 14.5,1.1667 L 14.5,1.0 L 14.5,0.8333 L 14.5,0.6667 L 14.5,0.5 L 14.5,0.3333 L 14.5,0.1667 L 14.5,0.0 L 14.5,-0.1667 L 14.5,-0.3333 L 14.5,-0.5 L 14.5,-0.6667 L 14.5,-0.8333 L 14.5,-1.0 L 14.5,-1.1667 L 14.5,-1.3333 L 14.5,-1.5 L 14.5,-1.6667 L 14.5,-1.8333 L 14.5,-2.0 L 14.5,-2.1667 L 14.5,-2.3333 L 14.5,-2.5 L 14.5,-2.6667 L 14.5,-2.8333 L 14.5,-3.0 L 14.5,-3.1667 L 14.5,-3.3333 L 14.5,-3.5 L 14.5,-3.6667 L 14.5,-3.8333 L 14.5,-4.0 L 14.5,-4.1667 L 14.5,-4.3333 L 14.5,-4.5 L 14.5,-4.6667 L 14.5,-4.8333 L 14.5,-5.0 L 14.5,-5.1667 L 14.5,-5.3333 L 14.5,-5.5 L 14.5,-5.6667 L 14.5,-5.8333 L 14.5,-6.0" />
      <path d="M 14.5,-6.0 L 14.5,-5.8333 L 14.5,-5.6667 L 14.5,-5.5 L 14.5,-5.3333 L 14.5,-5.1667 L 14.5,-5.0 L 14.5,-4.8333 L 14.5,-4.6667 L 14.5,-4.5 L 14.5,-4.3333 L 14.5,-4.1667 L 14.5,-4.0 L 14.5,-3.8333 L 14.5,-3.6667 L 14.5,-3.5 L 14.5,-3.3333 L 14.5,-3.1667 L 14.5,-3.0 L 14.5,-2.8333 L 14.5,-2.6667 L 14.5,-2.5 L 14.5,-2.3333 L 14.5,-2.1667 L 14.5,-2.0 L 14.5,-1.8333 L 14.5,-1.6667 L 14.5,-1.5 L 14.5,-1.3333 L 14.5,-1.1667 L 14.5,-1.0 L 14.5,-0.8333 L 14.5,-0.6667 L 14.5,-0.5 L 14.5,-0.3333 L 14.5,-0.1667 L 14.5,0.0 L 14.5,0.1667 L 14.5,0.3333 L 14.5,0.5 L 14.5,0.6667 L 14.5,0.8333 L 14.5,1.0 L 14.5,1.1667 L 14.5,1.3333 L 14.5,1.5 L 14.5,1.6667 L 14.5,1.8333 L 14.5,2.0 L 14.5,2.1667 L 14.5,2.3333 L 14.5,2.5 L 14.5,2.6667 L 14.5,2.8333 L 14.5,3.0 L 14.5,3.1667 L 14.5,3.3333 L 14.5,3.5 L 14.5,3.6667 L 14.5,3.8333 L 14.5,4.0 L 14.5,4.1667 L 14.5,4.3333 L 14.5,4.5 L 14.5,4.6667 L 14.5,4.8333 L 14.5,5.0 L 14.5,5.1667 L 14.5,5.3333 L 14.5,5.5 L 14.5,5.6667 L 14.5,5.8333 L 14.5,6.0" />
      <path d="M 14.5,6.0 L 14.4792,6.0 L 14.4583,6.0 L 14.4375,6.0 L 14.4167,6.0 L 14.3958,6.0 L 14.375,6.0 L 14.3542,6.0 L 14.3333,6.0 L 14.3125,6.0 L 14.2917,6.0 L 14.2708,6.0 L 14.25,6.0 L 14.2292,6.0 L 14.2083,6.0 L 14.1875,6.0 L 14.1667,6.0 L 14.1458,6.0 L 14.125,6.0 L 14.1042,6.0 L 14.0833,6.0 L 14.0625,6.0 L 14.0417,6.0 L 14.0208,6.0 L 14.0,6.0 L 13.9792,6.0 L 13.9583,6.0 L 13.9375,6.0 L 13.9167,6.0 L 13.8958,6.0 L 13.875,6.0 L 13.8542,6.0 L 13.8333,6.0 L 13.8125,6.0 L 13.7917,6.0 L 13.7708,6.0 L 13.75,6.0 L 13.7292,6.0 L 13.7083,6.0 L 13.6875,6.0 L 13.6667,6.0 L 13.6458,6.0 L 13.625,6.0 L 13.6042,6.0 L 13.5833,6.0 L 13.5625,6.0 L 13.5417,6.0 L 13.5208,6.0 L 13.5,6.0 L 13.4792,6.0 L 13.4583,6.0 L 13.4375,6.0 L 13.4167,6.0 L 13.3958,6.0 L 13.375,6.0 L 13.3542,6.0 L 13.3333,6.0 L 13.3125,6.0 L 13.2917,6.0 L 13.2708,6.0 L 13.25,6.0 L 13.2292,6.0 L 13.2083,6.0 L 13.1875,6.0 L 13.1667,6.0 L 13.1458,6.0 L 13.125,6.0 L 13.1042,6.0 L 13.0833,6.0 L 13.0625,6.0 L 13.0417,6.0 L 13.0208,6.0 L 13.0,6.0" />
      <path d="M 14.5,-6.0 L 14.4792,-6.0 L 14.4583,-6.0 L 14.4375,-6.0 L 14.4167,-6.0 L 14.3958,-6.0 L 14.375,-6.0 L 14.3542,-6.0 L 14.3333,-6.0 L 14.3125,-6.0 L 14.2917,-6.0 L 14.2708,-6.0 L 14.25,-6.0 L 14.2292,-6.0 L 14.2083,-6.0 L 14.1875,-6.0 L 14.1667,-6.0 L 14.1458,-6.0 L 14.125,-6.0 L 14.1042,-6.0 L 14.0833,-6.0 L 14.0625,-6.0 L 14.0417,-6.0 L 14.0208,-6.0 L 14.0,-6.0 L 13.9792,-6.0 L 13.9583,-6.0 L 13.9375,-6.0 L 13.9167,-6.0 L 13.8958,-6.0 L 13.875,-6.0 L 13.8542,-6.0 L 13.8333,-6.0 L 13.8125,-6.0 L 13.7917,-6.0 L 13.7708,-6.0 L 13.75,-6.0 L 13.7292,-6.0 L 13.7083,-6.0 L 13.6875,-6.0 L 13.6667,-6.0 L 13.6458,-6.0 L 13.625,-6.0 L 13.6042,-6.0 L 13.5833,-6.0 L 13.5625,-6.0 L 13.5417,-6.0 L 13.5208,-6.0 L 13.5,-6.0 L 13.4792,-6.0 L 13.4583,-6.0 L 13.4375,-6.0 L 13.4167,-6.0 L 13.3958,-6.0 L 13.375,-6.0 L 13.3542,-6.0 L 13.3333,-6.0 L 13.3125,-6.0 L 13.2917,-6.0 L 13.2708,-6.0 L 13.25,-6.0 L 13.2292,-6.0 L 13.2083,-6.0 L 13.1875,-6.0 L 13.1667,-6.0 L 13.1458,-6.0 L 13.125,-6.0 L 13.1042,-6.0 L 13.0833,-6.0 L 13.0625,-6.0 L 13.0417,-6.0 L 13.0208,-6.0 L 13.0,-6.0" />
    </g>
    <g fill="none" stroke="rgb(0,0,0)" stroke-width="0.2" id="Center" stroke-dasharray="6.35 1.27 1.27 1.27">
      <line x1="0.0" y1="0.0" x2="-10.5" y2="0.0" />
      <line x1="0.0" y1="0.0" x2="10.5" y2="0.0" />
      <line x1="0.0" y1="0.0" x2="0.0" y2="-10.5" />
      <line x1="0.0" y1="0.0" x2="0.0" y2="10.5" />
      <line x1="13.75" y1="0.0" x2="11.5" y2="0.0" />
      <line x1="13.75" y1="0.0" x2="16.0" y2="0.0" />
    </g>
  </g>
</svg>