<?xml version='1.0' encoding='utf-8'?>
<svg width="35.1956mm" height="25.3073mm" viewBox="-12.5755 -12.9199 35.1956 25.3073" version="1.1" xmlns="http://www.w3.org/2000/svg">
  <g transform="scale(1,-1)" stroke-linecap="round">
    <g fill="none" stroke="rgb(0,0,0)" stroke-width="0.4" id="Visible">
      <path d="M -0.0311,9.1506 L -0.782,9.1187 L -1.5275,9.0229 L -2.262,8.8639 L -2.9804,8.6429 L -3.6774,8.3615 L -4.3479,8.0219 L -4.9871,7.6265 L -5.5904,7.1783 L -6.1536,6.6805 L -6.6725,6.1368 L -7.1435,5.5511 L -7.5632,4.9276 L -7.9287,4.2708 L -8.2374,3.5855 L -8.4871,2.8766 L -8.6761,2.1492 L -8.8031,1.4084 L -8.8672,0.6595 L -8.8679,-0.0921 L -8.8054,-0.8411 L -8.6802,-1.5822 L -8.4931,-2.3102 L -8.2455,-3.0199 L -7.9392,-3.7062 L -7.5765,-4.3645 L -7.1598,-4.9901 L -6.6923,-5.5786 L -6.1771,-6.1259 L -5.618,-6.6281 L -5.0188,-7.0819 L -4.3838,-7.4841 L -3.7175,-7.8318 L -3.0245,-8.1228 L -2.3096,-8.355 L -1.5779,-8.5268 L -0.8344,-8.6371 L -0.0843,-8.6851 L 0.6671,-8.6706 L 1.4148,-8.5937 L 2.1535,-8.455 L 2.8782,-8.2554 L 3.5837,-7.9964 L 4.2654,-7.6799 L 4.9186,-7.3079 L 5.5387,-6.8831 L 6.1215,-6.4085 L 6.663,-5.8873 L 7.1597,-5.3232 L 7.608,-4.7199 L 8.005,-4.0817 L 8.348,-3.4129 L 8.6346,-2.7181 L 8.863,-2.002 L 9.0317,-1.2695 L 9.1395,-0.5257 L 9.1857,0.2245 L 9.17,0.976 L 9.0926,1.7236 L 8.9541,2.4624 L 8.7555,3.1872 L 8.498,3.8934 L 8.1834,4.576 L 7.814,5.2306 L 7.3922,5.8527 L 6.9208,6.4382 L 6.4032,6.9831 L 5.8426,7.4838 L 5.243,7.9371 L 4.6084,8.3398 L 3.943,8.6893 L 3.2512,8.9833 L 2.5378,9.2199" />
      <path d="M 2.5378,9.2199 L 2.5282,9.1886 L 2.5186,9.1574 L 2.5089,9.1261 L 2.4993,9.0948 L 2.4897,9.0635 L 2.48,9.0323 L 2.4704,9.001 L 2.4608,8.9697 L 2.4511,8.9384 L 2.4415,8.9072 L 2.4319,8.8759 L 2.4222,8.8446 L 2.4126,8.8133 L 2.403,8.7821 L 2.3933,8.7508 L 2.3837,8.7195 L 2.3741,8.6882 L 2.3644,8.657 L 2.3548,8.6257 L 2.3452,8.5944 L 2.3355,8.5631 L 2.3259,8.5318 L 2.3163,8.5006 L 2.3066,8.4693 L 2.297,8.438 L 2.2874,8.4067 L 2.2777,8.3755 L 2.2681,8.3442 L 2.2585,8.3129 L 2.2488,8.2816 L 2.2392,8.2504 L 2.2296,8.2191 L 2.2199,8.1878 L 2.2103,8.1565 L 2.2006,8.1253 L 2.191,8.094 L 2.1814,8.0627 L 2.1717,8.0314 L 2.1621,8.0002 L 2.1525,7.9689 L 2.1428,7.9376 L 2.1332,7.9063 L 2.1236,7.875 L 2.1139,7.8438 L 2.1043,7.8125 L 2.0947,7.7812 L 2.085,7.7499 L 2.0754,7.7187 L 2.0658,7.6874 L 2.0561,7.6561 L 2.0465,7.6248 L 2.0369,7.5936 L 2.0272,7.5623 L 2.0176,7.531 L 2.008,7.4997 L 1.9983,7.4685 L 1.9887,7.4372 L 1.9791,7.4059 L 1.9694,7.3746 L 1.9598,7.3434 L 1.9502,7.3121 L 1.9405,7.2808 L 1.9309,7.2495 L 1.9213,7.2182 L 1.9116,7.187 L 1.902,7.1557 L 1.8924,7.1244 L 1.8827,7.0931 L 1.8731,7.0619 L 1.8635,7.0306 L 1.8538,6.9993 L 1.8442,6.968" />
      <path d="M 0.1285,6.6496 L -0.3783,6.629 L -0.8817,6.5677 L -1.3786,6.466 L -1.8657,6.3246 L -2.3398,6.1443 L -2.7977,5.9263 L -3.2365,5.6719 L -3.6533,5.3829 L -4.0452,5.061 L -4.4098,4.7084 L -4.7445,4.3274 L -5.0471,3.9203 L -5.3156,3.4901 L -5.5482,3.0393 L -5.7432,2.5711 L -5.8994,2.0886 L -6.0156,1.5949 L -6.091,1.0934 L -6.1251,0.5873 L -6.1176,0.0802 L -6.0685,-0.4246 L -5.9781,-0.9237 L -5.847,-1.4136 L -5.676,-1.8911 L -5.4663,-2.3529 L -5.2192,-2.7958 L -4.9364,-3.2168 L -4.6198,-3.613 L -4.2715,-3.9817 L -3.8938,-4.3202 L -3.4895,-4.6264 L -3.0611,-4.8979 L -2.6116,-5.1329 L -2.1442,-5.3298 L -1.6621,-5.4871 L -1.1685,-5.6037 L -0.6669,-5.6787 L -0.1608,-5.7117 L 0.3463,-5.7023 L 0.8509,-5.6505 L 1.3493,-5.5567 L 1.8381,-5.4215 L 2.3139,-5.2458 L 2.7732,-5.0309 L 3.2129,-4.7781 L 3.6298,-4.4892 L 4.0209,-4.1664 L 4.3835,-3.8117 L 4.7149,-3.4277 L 5.0127,-3.0172 L 5.2747,-2.583 L 5.4992,-2.1282 L 5.6844,-1.656 L 5.8289,-1.1699 L 5.9317,-0.6733 L 5.9921,-0.1697 L 6.0095,0.3372 L 5.9838,0.8437 L 5.9151,1.3462 L 5.8039,1.841 L 5.651,2.3246 L 5.4574,2.7934 L 5.2246,3.2439 L 4.9541,3.673 L 4.648,4.0773 L 4.3084,4.454 L 3.9378,4.8003 L 3.5389,5.1135 L 3.1147,5.3914 L 2.6681,5.6319 L 2.2026,5.8331 L 1.7215,5.9936" />
      <path d="M 1.8442,6.968 L 1.8425,6.9545 L 1.8408,6.941 L 1.8391,6.9274 L 1.8374,6.9139 L 1.8357,6.9004 L 1.834,6.8868 L 1.8323,6.8733 L 1.8306,6.8598 L 1.8289,6.8462 L 1.8272,6.8327 L 1.8254,6.8192 L 1.8237,6.8056 L 1.822,6.7921 L 1.8203,6.7786 L 1.8186,6.765 L 1.8169,6.7515 L 1.8152,6.738 L 1.8135,6.7244 L 1.8118,6.7109 L 1.8101,6.6974 L 1.8084,6.6838 L 1.8067,6.6703 L 1.805,6.6568 L 1.8033,6.6432 L 1.8016,6.6297 L 1.7999,6.6162 L 1.7982,6.6026 L 1.7965,6.5891 L 1.7948,6.5756 L 1.7931,6.562 L 1.7914,6.5485 L 1.7897,6.535 L 1.788,6.5214 L 1.7863,6.5079 L 1.7845,6.4944 L 1.7828,6.4808 L 1.7811,6.4673 L 1.7794,6.4538 L 1.7777,6.4402 L 1.776,6.4267 L 1.7743,6.4131 L 1.7726,6.3996 L 1.7709,6.3861 L 1.7692,6.3725 L 1.7675,6.359 L 1.7658,6.3455 L 1.7641,6.3319 L 1.7624,6.3184 L 1.7607,6.3049 L 1.759,6.2913 L 1.7573,6.2778 L 1.7556,6.2643 L 1.7539,6.2507 L 1.7522,6.2372 L 1.7505,6.2237 L 1.7488,6.2101 L 1.7471,6.1966 L 1.7453,6.1831 L 1.7436,6.1695 L 1.7419,6.156 L 1.7402,6.1425 L 1.7385,6.1289 L 1.7368,6.1154 L 1.7351,6.1019 L 1.7334,6.0883 L 1.7317,6.0748 L 1.73,6.0613 L 1.7283,6.0477 L 1.7266,6.0342 L 1.7249,6.0207 L 1.7232,6.0071 L 1.7215,5.9936" />
      <path d="M 0.1285,6.6496 L 0.1285,6.6843 L 0.1285,6.7191 L 0.1285,6.7538 L 0.1285,6.7885 L 0.1285,6.8232 L 0.1285,6.8579 L 0.1285,6.8927 L 0.1285,6.9274 L 0.1285,6.9621 L 0.1285,6.9968 L 0.1285,7.0316 L 0.1285,7.0663 L 0.1285,7.101 L 0.1285,7.1357 L 0.1285,7.1704 L 0.1285,7.2052 L 0.1285,7.2399 L 0.1285,7.2746 L 0.1285,7.3093 L 0.1285,7.3441 L 0.1285,7.3788 L 0.1285,7.4135 L 0.1285,7.4482 L 0.1285,7.4829 L 0.1285,7.5177 L 0.1285,7.5524 L 0.1285,7.5871 L 0.1285,7.6218 L 0.1285,7.6566 L 0.1285,7.6913 L 0.1285,7.726 L 0.1285,7.7607 L 0.1285,7.7954 L 0.1285,7.8302 L 0.1285,7.8649 L 0.1285,7.8996 L 0.1285,7.9343 L 0.1285,7.9691 L 0.1285,8.0038 L 0.1285,8.0385 L 0.1285,8.0732 L 0.1285,8.1079 L 0.1285,8.1427 L 0.1285,8.1774 L 0.1285,8.2121 L 0.1285,8.2468 L 0.1285,8.2816 L 0.1285,8.3163 L 0.1285,8.351 L 0.1285,8.3857 L 0.1285,8.4204 L 0.1285,8.4552 L 0.1285,8.4899 L 0.1285,8.5246 L 0.1285,8.5593 L 0.1285,8.5941 L 0.1285,8.6288 L 0.1285,8.6635 L 0.1285,8.6982 L 0.1285,8.7329 L 0.1285,8.7677 L 0.1285,8.8024 L 0.1285,8.8371 L 0.1285,8.8718 L 0.1285,8.9066 L 0.1285,8.9413 L 0.1285,8.976 L 0.1285,9.0107 L 0.1285,9.0454 L 0.1285,9.0802 L 0.1285,9.1149 L 0.1285,9.1496" />
      <path d="M 0.1285,9.1496 L -0.5819,9.1207 L -1.2876,9.0344 L -1.984,8.8913 L -2.6665,8.6924 L -3.3307,8.4388 L -3.9721,8.1322 L -4.5865,7.7745 L -5.1699,7.3682 L -5.7183,6.9158 L -6.2281,6.4202 L -6.6959,5.8849 L -7.1186,5.3132 L -7.4932,4.709 L -7.8173,4.0762 L -8.0887,3.4191 L -8.3054,2.742 L -8.4661,2.0494 L -8.5695,1.3461 L -8.615,0.6366 L -8.6022,-0.0742 L -8.531,-0.7816 L -8.4021,-1.4808 L -8.216,-2.1669 L -7.9742,-2.8355 L -7.6782,-3.4818 L -7.3299,-4.1016 L -6.9316,-4.6906 L -6.4862,-5.2446 L -5.9964,-5.76 L -5.4658,-6.2331 L -4.8978,-6.6607 L -4.2963,-7.0397 L -3.6655,-7.3676 L -3.0097,-7.642 L -2.3333,-7.861 L -1.6411,-8.023 L -0.9378,-8.1269 L -0.2283,-8.1718 L 0.4825,-8.1575 L 1.1896,-8.0838 L 1.8881,-7.9514 L 2.5731,-7.7611 L 3.2398,-7.5141 L 3.8834,-7.2122 L 4.4995,-6.8574 L 5.0836,-6.4521 L 5.6316,-5.9993 L 6.1397,-5.5019 L 6.604,-4.9636 L 7.0214,-4.3881 L 7.3888,-3.7795 L 7.7035,-3.142 L 7.9633,-2.4803 L 8.1662,-1.7989 L 8.3106,-1.1028 L 8.3956,-0.397 L 8.4205,0.3135 L 8.3849,1.0236 L 8.2891,1.728 L 8.1338,2.4218 L 7.92,3.0998 L 7.6492,3.7571 L 7.3234,4.389 L 6.9447,4.9907 L 6.5161,5.5578 L 6.0404,6.0862 L 5.5213,6.5719 L 4.9624,7.0113 L 4.3679,7.4011 L 3.742,7.7383 L 3.0895,8.0205 L 2.4151,8.2455" />
      <path d="M 1.7215,5.9936 L 1.7311,6.0249 L 1.7408,6.0562 L 1.7504,6.0874 L 1.76,6.1187 L 1.7697,6.15 L 1.7793,6.1813 L 1.7889,6.2125 L 1.7986,6.2438 L 1.8082,6.2751 L 1.8178,6.3064 L 1.8275,6.3376 L 1.8371,6.3689 L 1.8467,6.4002 L 1.8564,6.4315 L 1.866,6.4627 L 1.8756,6.494 L 1.8853,6.5253 L 1.8949,6.5566 L 1.9045,6.5878 L 1.9142,6.6191 L 1.9238,6.6504 L 1.9334,6.6817 L 1.9431,6.713 L 1.9527,6.7442 L 1.9623,6.7755 L 1.972,6.8068 L 1.9816,6.8381 L 1.9912,6.8693 L 2.0009,6.9006 L 2.0105,6.9319 L 2.0201,6.9632 L 2.0298,6.9944 L 2.0394,7.0257 L 2.049,7.057 L 2.0587,7.0883 L 2.0683,7.1195 L 2.0779,7.1508 L 2.0876,7.1821 L 2.0972,7.2134 L 2.1068,7.2446 L 2.1165,7.2759 L 2.1261,7.3072 L 2.1358,7.3385 L 2.1454,7.3698 L 2.155,7.401 L 2.1647,7.4323 L 2.1743,7.4636 L 2.1839,7.4949 L 2.1936,7.5261 L 2.2032,7.5574 L 2.2128,7.5887 L 2.2225,7.62 L 2.2321,7.6512 L 2.2417,7.6825 L 2.2514,7.7138 L 2.261,7.7451 L 2.2706,7.7763 L 2.2803,7.8076 L 2.2899,7.8389 L 2.2995,7.8702 L 2.3092,7.9015 L 2.3188,7.9327 L 2.3284,7.964 L 2.3381,7.9953 L 2.3477,8.0266 L 2.3573,8.0578 L 2.367,8.0891 L 2.3766,8.1204 L 2.3862,8.1517 L 2.3959,8.1829 L 2.4055,8.2142 L 2.4151,8.2455" />
      <path d="M 0.1285,9.1496 L 0.1263,9.1496 L 0.1241,9.1496 L 0.1219,9.1496 L 0.1196,9.1497 L 0.1174,9.1497 L 0.1152,9.1497 L 0.113,9.1497 L 0.1108,9.1497 L 0.1086,9.1497 L 0.1063,9.1497 L 0.1041,9.1498 L 0.1019,9.1498 L 0.0997,9.1498 L 0.0975,9.1498 L 0.0953,9.1498 L 0.093,9.1498 L 0.0908,9.1498 L 0.0886,9.1499 L 0.0864,9.1499 L 0.0842,9.1499 L 0.082,9.1499 L 0.0797,9.1499 L 0.0775,9.1499 L 0.0753,9.1499 L 0.0731,9.15 L 0.0709,9.15 L 0.0687,9.15 L 0.0665,9.15 L 0.0642,9.15 L 0.062,9.15 L 0.0598,9.15 L 0.0576,9.1501 L 0.0554,9.1501 L 0.0532,9.1501 L 0.0509,9.1501 L 0.0487,9.1501 L 0.0465,9.1501 L 0.0443,9.1501 L 0.0421,9.1502 L 0.0399,9.1502 L 0.0376,9.1502 L 0.0354,9.1502 L 0.0332,9.1502 L 0.031,9.1502 L 0.0288,9.1502 L 0.0266,9.1503 L 0.0243,9.1503 L 0.0221,9.1503 L 0.0199,9.1503 L 0.0177,9.1503 L 0.0155,9.1503 L 0.0133,9.1503 L 0.0111,9.1504 L 0.0088,9.1504 L 0.0066,9.1504 L 0.0044,9.1504 L 0.0022,9.1504 L 0.0,9.1504 L -0.0022,9.1504 L -0.0045,9.1505 L -0.0067,9.1505 L -0.0089,9.1505 L -0.0111,9.1505 L -0.0133,9.1505 L -0.0155,9.1505 L -0.0178,9.1505 L -0.02,9.1505 L -0.0222,9.1506 L -0.0244,9.1506 L -0.0266,9.1506 L -0.0288,9.1506 L -0.0311,9.1506" />
      <path d="M 2.4151,8.2455 L 2.4168,8.259 L 2.4185,8.2726 L 2.4202,8.2861 L 2.422,8.2996 L 2.4237,8.3132 L 2.4254,8.3267 L 2.4271,8.3402 L 2.4288,8.3538 L 2.4305,8.3673 L 2.4322,8.3808 L 2.4339,8.3944 L 2.4356,8.4079 L 2.4373,8.4214 L 2.439,8.435 L 2.4407,8.4485 L 2.4424,8.462 L 2.4441,8.4756 L 2.4458,8.4891 L 2.4475,8.5026 L 2.4492,8.5162 L 2.4509,8.5297 L 2.4526,8.5432 L 2.4543,8.5568 L 2.456,8.5703 L 2.4577,8.5838 L 2.4594,8.5974 L 2.4611,8.6109 L 2.4629,8.6244 L 2.4646,8.638 L 2.4663,8.6515 L 2.468,8.665 L 2.4697,8.6786 L 2.4714,8.6921 L 2.4731,8.7056 L 2.4748,8.7192 L 2.4765,8.7327 L 2.4782,8.7462 L 2.4799,8.7598 L 2.4816,8.7733 L 2.4833,8.7868 L 2.485,8.8004 L 2.4867,8.8139 L 2.4884,8.8274 L 2.4901,8.841 L 2.4918,8.8545 L 2.4935,8.868 L 2.4952,8.8816 L 2.4969,8.8951 L 2.4986,8.9086 L 2.5003,8.9222 L 2.502,8.9357 L 2.5038,8.9492 L 2.5055,8.9628 L 2.5072,8.9763 L 2.5089,8.9899 L 2.5106,9.0034 L 2.5123,9.0169 L 2.514,9.0305 L 2.5157,9.044 L 2.5174,9.0575 L 2.5191,9.0711 L 2.5208,9.0846 L 2.5225,9.0981 L 2.5242,9.1117 L 2.5259,9.1252 L 2.5276,9.1387 L 2.5293,9.1523 L 2.531,9.1658 L 2.5327,9.1793 L 2.5344,9.1929 L 2.5361,9.2064 L 2.5378,9.2199" />
      <path d="M 18.9202,9.1497 L 18.9201,9.1497 L 18.92,9.1497 L 18.9199,9.1497" />
      <path d="M 18.9199,9.1497 L 18.9198,9.1497 L 18.9197,9.1497 L 18.9196,9.1497" />
      <path d="M 17.5406,-8.1733 L 17.5393,-8.181 L 17.538,-8.1887 L 17.5366,-8.1964 L 17.5353,-8.2042 L 17.5339,-8.2119 L 17.5326,-8.2196 L 17.5312,-8.2273 L 17.5298,-8.235 L 17.5284,-8.2426 L 17.527,-8.2503 L 17.5256,-8.258 L 17.5241,-8.2657 L 17.5227,-8.2734 L 17.5212,-8.2811 L 17.5197,-8.2888 L 17.5183,-8.2965 L 17.5168,-8.3041 L 17.5153,-8.3118 L 17.5137,-8.3195 L 17.5122,-8.3271 L 17.5106,-8.3348 L 17.509,-8.3425 L 17.5075,-8.3501 L 17.5058,-8.3578 L 17.5042,-8.3654 L 17.5026,-8.3731 L 17.5009,-8.3807 L 17.4992,-8.3884 L 17.4975,-8.396 L 17.4958,-8.4036 L 17.4941,-8.4112 L 17.4923,-8.4189 L 17.4905,-8.4265 L 17.4887,-8.4341 L 17.4868,-8.4417 L 17.485,-8.4493 L 17.4831,-8.4569 L 17.4811,-8.4645 L 17.4792,-8.472 L 17.4772,-8.4796 L 17.4752,-8.4871 L 17.4731,-8.4947 L 17.471,-8.5022 L 17.4689,-8.5098 L 17.4667,-8.5173 L 17.4645,-8.5248 L 17.4622,-8.5323 L 17.4599,-8.5397 L 17.4575,-8.5472 L 17.4551,-8.5546 L 17.4526,-8.562 L 17.4501,-8.5694 L 17.4474,-8.5768 L 17.4447,-8.5841 L 17.4419,-8.5914 L 17.4391,-8.5987 L 17.4361,-8.6059 L 17.433,-8.6131 L 17.4298,-8.6202 L 17.4264,-8.6273 L 17.4229,-8.6343 L 17.4192,-8.6412 L 17.4152,-8.6479 L 17.4111,-8.6545 L 17.4066,-8.661 L 17.4018,-8.6671 L 17.3965,-8.6729 L 17.3907,-8.6782 L 17.3843,-8.6827 L 17.3773,-8.686 L 17.3697,-8.6877 L 17.3619,-8.6873" />
      <path d="M 17.3619,-8.6873 L 17.2544,-8.4697 L 17.2026,-8.2253 L 17.1629,-7.9785 L 17.1294,-7.7308 L 17.0997,-7.4826 L 17.0727,-7.2341 L 17.0478,-6.9854 L 17.0245,-6.7365 L 17.0024,-6.4875 L 16.9814,-6.2384 L 16.9613,-5.9893 L 16.942,-5.7401 L 16.9233,-5.4908 L 16.9051,-5.2415 L 16.8875,-4.9922 L 16.8703,-4.7428 L 16.8535,-4.4934 L 16.8371,-4.244 L 16.821,-3.9946 L 16.8052,-3.7451 L 16.7896,-3.4956 L 16.7742,-3.2461 L 16.7591,-2.9966 L 16.7442,-2.7471 L 16.7294,-2.4976 L 16.7148,-2.2481 L 16.7003,-1.9985 L 16.6859,-1.749 L 16.6716,-1.4994 L 16.6574,-1.2499 L 16.6434,-1.0003 L 16.6293,-0.7507 L 16.6154,-0.5011 L 16.6015,-0.2516 L 16.5876,-0.002 L 16.5737,0.2476 L 16.5599,0.4972 L 16.546,0.7467 L 16.5322,0.9963 L 16.5183,1.2459 L 16.5045,1.4955 L 16.4905,1.745 L 16.4766,1.9946 L 16.4625,2.2442 L 16.4484,2.4937 L 16.4343,2.7433 L 16.42,2.9928 L 16.4056,3.2424 L 16.3911,3.4919 L 16.3764,3.7415 L 16.3616,3.991 L 16.3466,4.2405 L 16.3314,4.49 L 16.316,4.7395 L 16.3003,4.989 L 16.2844,5.2384 L 16.2681,5.4878 L 16.2515,5.7372 L 16.2345,5.9866 L 16.2171,6.236 L 16.1992,6.4853 L 16.1807,6.7346 L 16.1615,6.9838 L 16.1416,7.233 L 16.1207,7.4821 L 16.0988,7.7311 L 16.0755,7.9799 L 16.0505,8.2286 L 16.0234,8.4771 L 15.9932,8.7253 L 15.9586,8.9728 L 15.9164,9.2191" />
      <path d="M 18.9202,9.1497 L 18.9202,9.115 L 18.9202,9.0802 L 18.9202,9.0455 L 18.9202,9.0108 L 18.9202,8.9761 L 18.9202,8.9414 L 18.9202,8.9066 L 18.9202,8.8719 L 18.9202,8.8372 L 18.9202,8.8025 L 18.9202,8.7677 L 18.9202,8.733 L 18.9202,8.6983 L 18.9202,8.6636 L 18.9202,8.6289 L 18.9202,8.5941 L 18.9202,8.5594 L 18.9202,8.5247 L 18.9202,8.49 L 18.9202,8.4552 L 18.9202,8.4205 L 18.9202,8.3858 L 18.9202,8.3511 L 18.9202,8.3164 L 18.9202,8.2816 L 18.9202,8.2469 L 18.9202,8.2122 L 18.9202,8.1775 L 18.9202,8.1427 L 18.9202,8.108 L 18.9202,8.0733 L 18.9202,8.0386 L 18.9202,8.0039 L 18.9202,7.9691 L 18.9202,7.9344 L 18.9202,7.8997 L 18.9202,7.865 L 18.9202,7.8302 L 18.9202,7.7955 L 18.9202,7.7608 L 18.9202,7.7261 L 18.9202,7.6914 L 18.9202,7.6566 L 18.9202,7.6219 L 18.9202,7.5872 L 18.9202,7.5525 L 18.9202,7.5177 L 18.9202,7.483 L 18.9202,7.4483 L 18.9202,7.4136 L 18.9202,7.3789 L 18.9202,7.3441 L 18.9202,7.3094 L 18.9202,7.2747 L 18.9202,7.24 L 18.9202,7.2052 L 18.9202,7.1705 L 18.9202,7.1358 L 18.9202,7.1011 L 18.9202,7.0664 L 18.9202,7.0316 L 18.9202,6.9969 L 18.9202,6.9622 L 18.9202,6.9275 L 18.9202,6.8927 L 18.9202,6.858 L 18.9202,6.8233 L 18.9202,6.7886 L 18.9202,6.7539 L 18.9202,6.7191 L 18.9202,6.6844 L 18.9202,6.6497" />
      <path d="M 18.9197,6.6497 L 18.8457,6.4985 L 18.8113,6.3273 L 18.785,6.1547 L 18.7627,5.9816 L 18.743,5.8081 L 18.7251,5.6344 L 18.7085,5.4606 L 18.6929,5.2867 L 18.6782,5.1127 L 18.6641,4.9386 L 18.6507,4.7645 L 18.6377,4.5904 L 18.6251,4.4162 L 18.6129,4.2421 L 18.6011,4.0679 L 18.5895,3.8936 L 18.5782,3.7194 L 18.5671,3.5451 L 18.5562,3.3709 L 18.5455,3.1966 L 18.5349,3.0223 L 18.5245,2.848 L 18.5142,2.6737 L 18.504,2.4994 L 18.494,2.3251 L 18.484,2.1507 L 18.4741,1.9764 L 18.4643,1.8021 L 18.4545,1.6277 L 18.4448,1.4534 L 18.4351,1.2791 L 18.4255,1.1047 L 18.4159,0.9304 L 18.4063,0.756 L 18.3967,0.5817 L 18.3872,0.4073 L 18.3776,0.233 L 18.368,0.0586 L 18.3584,-0.1157 L 18.3488,-0.2901 L 18.3392,-0.4644 L 18.3295,-0.6387 L 18.3198,-0.8131 L 18.3101,-0.9874 L 18.3002,-1.1618 L 18.2903,-1.3361 L 18.2804,-1.5104 L 18.2703,-1.6847 L 18.2602,-1.859 L 18.2499,-2.0333 L 18.2395,-2.2076 L 18.229,-2.3819 L 18.2184,-2.5562 L 18.2076,-2.7305 L 18.1966,-2.9048 L 18.1854,-3.079 L 18.174,-3.2532 L 18.1623,-3.4275 L 18.1504,-3.6017 L 18.1381,-3.7758 L 18.1255,-3.95 L 18.1126,-4.1241 L 18.0991,-4.2982 L 18.0852,-4.4723 L 18.0706,-4.6463 L 18.0553,-4.8202 L 18.0392,-4.9941 L 18.022,-5.1678 L 18.0035,-5.3415 L 17.9832,-5.5149 L 17.9604,-5.688 L 17.9338,-5.8606" />
      <path d="M 17.9338,-5.8606 L 17.9329,-5.8661 L 17.9319,-5.8716 L 17.931,-5.8771 L 17.93,-5.8826 L 17.929,-5.888 L 17.9281,-5.8935 L 17.9271,-5.899 L 17.9261,-5.9045 L 17.9251,-5.91 L 17.9241,-5.9155 L 17.9231,-5.921 L 17.922,-5.9265 L 17.921,-5.932 L 17.92,-5.9374 L 17.9189,-5.9429 L 17.9179,-5.9484 L 17.9168,-5.9539 L 17.9157,-5.9593 L 17.9146,-5.9648 L 17.9135,-5.9703 L 17.9124,-5.9757 L 17.9113,-5.9812 L 17.9102,-5.9867 L 17.909,-5.9921 L 17.9078,-5.9976 L 17.9067,-6.003 L 17.9055,-6.0085 L 17.9043,-6.0139 L 17.9031,-6.0194 L 17.9018,-6.0248 L 17.9006,-6.0303 L 17.8993,-6.0357 L 17.8981,-6.0411 L 17.8968,-6.0466 L 17.8954,-6.052 L 17.8941,-6.0574 L 17.8928,-6.0628 L 17.8914,-6.0682 L 17.89,-6.0736 L 17.8886,-6.079 L 17.8871,-6.0844 L 17.8857,-6.0898 L 17.8842,-6.0952 L 17.8826,-6.1005 L 17.8811,-6.1059 L 17.8795,-6.1112 L 17.8779,-6.1166 L 17.8762,-6.1219 L 17.8745,-6.1272 L 17.8728,-6.1325 L 17.871,-6.1378 L 17.8692,-6.1431 L 17.8673,-6.1483 L 17.8654,-6.1536 L 17.8634,-6.1588 L 17.8613,-6.164 L 17.8592,-6.1691 L 17.857,-6.1742 L 17.8547,-6.1793 L 17.8523,-6.1844 L 17.8498,-6.1893 L 17.8471,-6.1942 L 17.8443,-6.1991 L 17.8413,-6.2038 L 17.8382,-6.2084 L 17.8347,-6.2127 L 17.831,-6.2169 L 17.8268,-6.2206 L 17.8223,-6.2238 L 17.8172,-6.2262 L 17.8118,-6.2274 L 17.8062,-6.2271" />
      <path d="M 17.8062,-6.2271 L 17.728,-6.0663 L 17.6904,-5.8861 L 17.6616,-5.7042 L 17.6372,-5.5216 L 17.6157,-5.3387 L 17.5961,-5.1556 L 17.578,-4.9723 L 17.561,-4.789 L 17.545,-4.6055 L 17.5297,-4.422 L 17.5151,-4.2384 L 17.501,-4.0548 L 17.4874,-3.8711 L 17.4742,-3.6874 L 17.4614,-3.5037 L 17.4488,-3.32 L 17.4366,-3.1362 L 17.4247,-2.9524 L 17.4129,-2.7686 L 17.4014,-2.5848 L 17.39,-2.401 L 17.3789,-2.2172 L 17.3678,-2.0334 L 17.3569,-1.8495 L 17.3462,-1.6657 L 17.3355,-1.4818 L 17.3249,-1.298 L 17.3145,-1.1141 L 17.3041,-0.9302 L 17.2937,-0.7463 L 17.2834,-0.5625 L 17.2732,-0.3786 L 17.263,-0.1947 L 17.2529,-0.0108 L 17.2427,0.1731 L 17.2326,0.3569 L 17.2225,0.5408 L 17.2124,0.7247 L 17.2023,0.9086 L 17.1922,1.0925 L 17.1821,1.2764 L 17.1719,1.4603 L 17.1617,1.6441 L 17.1514,1.828 L 17.1411,2.0119 L 17.1308,2.1958 L 17.1203,2.3796 L 17.1098,2.5635 L 17.0992,2.7474 L 17.0885,2.9312 L 17.0776,3.1151 L 17.0667,3.2989 L 17.0556,3.4827 L 17.0443,3.6665 L 17.0328,3.8503 L 17.0212,4.0341 L 17.0093,4.2179 L 16.9971,4.4017 L 16.9847,4.5854 L 16.9719,4.7691 L 16.9588,4.9528 L 16.9452,5.1365 L 16.9312,5.3201 L 16.9166,5.5037 L 16.9013,5.6872 L 16.8853,5.8707 L 16.8682,6.0541 L 16.8499,6.2373 L 16.8301,6.4204 L 16.808,6.6033 L 16.7827,6.7857 L 16.7518,6.9672" />
      <path d="M 15.9164,9.2191 L 15.928,9.1879 L 15.9396,9.1566 L 15.9512,9.1253 L 15.9628,9.094 L 15.9744,9.0628 L 15.986,9.0315 L 15.9976,9.0002 L 16.0092,8.9689 L 16.0208,8.9377 L 16.0324,8.9064 L 16.044,8.8751 L 16.0556,8.8438 L 16.0672,8.8125 L 16.0788,8.7813 L 16.0904,8.75 L 16.102,8.7187 L 16.1136,8.6874 L 16.1252,8.6562 L 16.1368,8.6249 L 16.1484,8.5936 L 16.16,8.5623 L 16.1716,8.5311 L 16.1832,8.4998 L 16.1948,8.4685 L 16.2064,8.4372 L 16.218,8.4059 L 16.2296,8.3747 L 16.2413,8.3434 L 16.2529,8.3121 L 16.2645,8.2808 L 16.2761,8.2496 L 16.2877,8.2183 L 16.2993,8.187 L 16.3109,8.1557 L 16.3225,8.1245 L 16.3341,8.0932 L 16.3457,8.0619 L 16.3573,8.0306 L 16.3689,7.9993 L 16.3805,7.9681 L 16.3921,7.9368 L 16.4037,7.9055 L 16.4153,7.8742 L 16.4269,7.843 L 16.4385,7.8117 L 16.4501,7.7804 L 16.4617,7.7491 L 16.4733,7.7179 L 16.4849,7.6866 L 16.4965,7.6553 L 16.5081,7.624 L 16.5197,7.5927 L 16.5313,7.5615 L 16.5429,7.5302 L 16.5545,7.4989 L 16.5661,7.4676 L 16.5777,7.4364 L 16.5893,7.4051 L 16.6009,7.3738 L 16.6125,7.3425 L 16.6242,7.3113 L 16.6358,7.28 L 16.6474,7.2487 L 16.659,7.2174 L 16.6706,7.1861 L 16.6822,7.1549 L 16.6938,7.1236 L 16.7054,7.0923 L 16.717,7.061 L 16.7286,7.0298 L 16.7402,6.9985 L 16.7518,6.9672" />
      <path d="M 18.9202,6.6497 L 18.8907,6.6497 L 18.8613,6.6497 L 18.8319,6.6497 L 18.8025,6.6497 L 18.7731,6.6497 L 18.7436,6.6497 L 18.7142,6.6497 L 18.6848,6.6497 L 18.6554,6.6497 L 18.626,6.6497 L 18.5965,6.6497 L 18.5671,6.6497 L 18.5377,6.6497 L 18.5083,6.6497 L 18.4789,6.6497 L 18.4494,6.6497 L 18.42,6.6497 L 18.3906,6.6497 L 18.3612,6.6497 L 18.3318,6.6497 L 18.3023,6.6497 L 18.2729,6.6497 L 18.2435,6.6497 L 18.2141,6.6497 L 18.1847,6.6497 L 18.1552,6.6497 L 18.1258,6.6497 L 18.0964,6.6497 L 18.067,6.6497 L 18.0376,6.6497 L 18.0081,6.6497 L 17.9787,6.6497 L 17.9493,6.6497 L 17.9199,6.6497 L 17.8905,6.6497 L 17.861,6.6497 L 17.8316,6.6497 L 17.8022,6.6497 L 17.7728,6.6497 L 17.7434,6.6497 L 17.7139,6.6497 L 17.6845,6.6497 L 17.6551,6.6497 L 17.6257,6.6497 L 17.5963,6.6497 L 17.5668,6.6497 L 17.5374,6.6497 L 17.508,6.6497 L 17.4786,6.6497 L 17.4492,6.6497 L 17.4197,6.6497 L 17.3903,6.6497 L 17.3609,6.6497 L 17.3315,6.6497 L 17.3021,6.6497 L 17.2726,6.6497 L 17.2432,6.6497 L 17.2138,6.6497 L 17.1844,6.6497 L 17.155,6.6497 L 17.1255,6.6497 L 17.0961,6.6497 L 17.0667,6.6497 L 17.0373,6.6497 L 17.0079,6.6497 L 16.9784,6.6496 L 16.949,6.6496 L 16.9196,6.6496 L 16.8902,6.6496 L 16.8608,6.6496 L 16.8313,6.6496 L 16.8019,6.6496" />
      <path d="M 16.0244,8.928 L 16.0244,8.9311 L 16.0244,8.9342 L 16.0244,8.9373 L 16.0244,8.9404 L 16.0244,8.9434 L 16.0244,8.9465 L 16.0244,8.9496 L 16.0244,8.9527 L 16.0244,8.9557 L 16.0244,8.9588 L 16.0244,8.9619 L 16.0244,8.965 L 16.0244,8.9681 L 16.0244,8.9711 L 16.0244,8.9742 L 16.0244,8.9773 L 16.0244,8.9804 L 16.0244,8.9834 L 16.0244,8.9865 L 16.0244,8.9896 L 16.0244,8.9927 L 16.0244,8.9958 L 16.0244,8.9988 L 16.0244,9.0019 L 16.0244,9.005 L 16.0244,9.0081 L 16.0244,9.0111 L 16.0244,9.0142 L 16.0244,9.0173 L 16.0244,9.0204 L 16.0244,9.0235 L 16.0244,9.0265 L 16.0244,9.0296 L 16.0244,9.0327 L 16.0244,9.0358 L 16.0244,9.0388 L 16.0244,9.0419 L 16.0244,9.045 L 16.0244,9.0481 L 16.0244,9.0511 L 16.0244,9.0542 L 16.0244,9.0573 L 16.0244,9.0604 L 16.0244,9.0635 L 16.0244,9.0665 L 16.0244,9.0696 L 16.0244,9.0727 L 16.0244,9.0758 L 16.0244,9.0788 L 16.0244,9.0819 L 16.0244,9.085 L 16.0244,9.0881 L 16.0244,9.0912 L 16.0244,9.0942 L 16.0244,9.0973 L 16.0244,9.1004 L 16.0244,9.1035 L 16.0244,9.1065 L 16.0244,9.1096 L 16.0244,9.1127 L 16.0244,9.1158 L 16.0244,9.1189 L 16.0244,9.1219 L 16.0244,9.125 L 16.0244,9.1281 L 16.0244,9.1312 L 16.0244,9.1342 L 16.0244,9.1373 L 16.0244,9.1404 L 16.0244,9.1435 L 16.0244,9.1466 L 16.0244,9.1496" />
      <line x1="16.0244" y1="9.1496" x2="16.0243" y2="9.1496" />
      <path d="M 16.0243,9.1496 L 16.0231,9.1496 L 16.0218,9.1495 L 16.0205,9.1494 L 16.0193,9.1491 L 16.018,9.1489 L 16.0168,9.1485 L 16.0156,9.1482 L 16.0144,9.1477 L 16.0132,9.1473 L 16.0121,9.1467 L 16.011,9.1462 L 16.0098,9.1456 L 16.0087,9.1449 L 16.0077,9.1443 L 16.0066,9.1435 L 16.0056,9.1428 L 16.0046,9.1421 L 16.0036,9.1413 L 16.0026,9.1405 L 16.0016,9.1396 L 16.0007,9.1388 L 15.9998,9.1379 L 15.9988,9.137 L 15.9979,9.1361 L 15.9971,9.1352 L 15.9962,9.1343 L 15.9954,9.1334 L 15.9945,9.1324 L 15.9937,9.1314 L 15.9929,9.1305 L 15.9921,9.1295 L 15.9913,9.1285 L 15.9905,9.1275 L 15.9898,9.1265 L 15.989,9.1255 L 15.9883,9.1244 L 15.9875,9.1234 L 15.9868,9.1224 L 15.9861,9.1213 L 15.9854,9.1203 L 15.9847,9.1192 L 15.984,9.1181 L 15.9833,9.1171 L 15.9827,9.116 L 15.982,9.1149 L 15.9813,9.1138 L 15.9807,9.1127 L 15.98,9.1116 L 15.9794,9.1105 L 15.9788,9.1094 L 15.9782,9.1083 L 15.9775,9.1072 L 15.9769,9.1061 L 15.9763,9.105 L 15.9757,9.1039 L 15.9751,9.1028 L 15.9745,9.1016 L 15.974,9.1005 L 15.9734,9.0994 L 15.9728,9.0982 L 15.9723,9.0971 L 15.9717,9.096 L 15.9711,9.0948 L 15.9706,9.0937 L 15.97,9.0925 L 15.9695,9.0914 L 15.969,9.0902 L 15.9684,9.0891 L 15.9679,9.0879 L 15.9674,9.0868 L 15.9668,9.0856 L 15.9663,9.0845" />
      <path d="M 14.513,-8.1727 L 14.4135,-7.9738 L 14.3654,-7.7497 L 14.3287,-7.5235 L 14.2976,-7.2964 L 14.2702,-7.0689 L 14.2453,-6.841 L 14.2222,-6.613 L 14.2007,-6.3848 L 14.1803,-6.1565 L 14.1609,-5.9282 L 14.1424,-5.6997 L 14.1245,-5.4712 L 14.1073,-5.2427 L 14.0906,-5.0141 L 14.0743,-4.7854 L 14.0585,-4.5568 L 14.0431,-4.3281 L 14.0279,-4.0994 L 14.0131,-3.8707 L 13.9986,-3.642 L 13.9842,-3.4132 L 13.9701,-3.1845 L 13.9562,-2.9557 L 13.9425,-2.7269 L 13.9289,-2.4981 L 13.9155,-2.2693 L 13.9022,-2.0405 L 13.889,-1.8117 L 13.8759,-1.5828 L 13.8629,-1.354 L 13.85,-1.1252 L 13.8372,-0.8963 L 13.8244,-0.6675 L 13.8116,-0.4387 L 13.7989,-0.2098 L 13.7862,0.019 L 13.7736,0.2479 L 13.7609,0.4767 L 13.7482,0.7056 L 13.7356,0.9344 L 13.7229,1.1633 L 13.7102,1.3921 L 13.6974,1.621 L 13.6846,1.8498 L 13.6717,2.0786 L 13.6588,2.3075 L 13.6457,2.5363 L 13.6326,2.7651 L 13.6194,2.9939 L 13.606,3.2227 L 13.5925,3.4515 L 13.5788,3.6803 L 13.565,3.9091 L 13.551,4.1379 L 13.5367,4.3666 L 13.5222,4.5954 L 13.5074,4.8241 L 13.4923,5.0528 L 13.4768,5.2815 L 13.461,5.5101 L 13.4447,5.7387 L 13.4279,5.9673 L 13.4105,6.1958 L 13.3924,6.4243 L 13.3734,6.6527 L 13.3535,6.8811 L 13.3324,7.1093 L 13.3097,7.3374 L 13.285,7.5652 L 13.2576,7.7928 L 13.2261,8.0198 L 13.1875,8.2457" />
      <path d="M 16.0244,9.1496 L 16.0646,9.1496 L 16.1048,9.1496 L 16.145,9.1496 L 16.1852,9.1496 L 16.2255,9.1496 L 16.2657,9.1496 L 16.3059,9.1496 L 16.3461,9.1496 L 16.3863,9.1496 L 16.4266,9.1496 L 16.4668,9.1496 L 16.507,9.1496 L 16.5472,9.1496 L 16.5874,9.1496 L 16.6276,9.1496 L 16.6679,9.1496 L 16.7081,9.1496 L 16.7483,9.1496 L 16.7885,9.1496 L 16.8287,9.1496 L 16.869,9.1496 L 16.9092,9.1496 L 16.9494,9.1496 L 16.9896,9.1496 L 17.0298,9.1497 L 17.0701,9.1497 L 17.1103,9.1497 L 17.1505,9.1497 L 17.1907,9.1497 L 17.2309,9.1497 L 17.2712,9.1497 L 17.3114,9.1497 L 17.3516,9.1497 L 17.3918,9.1497 L 17.432,9.1497 L 17.4723,9.1497 L 17.5125,9.1497 L 17.5527,9.1497 L 17.5929,9.1497 L 17.6331,9.1497 L 17.6734,9.1497 L 17.7136,9.1497 L 17.7538,9.1497 L 17.794,9.1497 L 17.8342,9.1497 L 17.8745,9.1497 L 17.9147,9.1497 L 17.9549,9.1497 L 17.9951,9.1497 L 18.0353,9.1497 L 18.0755,9.1497 L 18.1158,9.1497 L 18.156,9.1497 L 18.1962,9.1497 L 18.2364,9.1497 L 18.2766,9.1497 L 18.3169,9.1497 L 18.3571,9.1497 L 18.3973,9.1497 L 18.4375,9.1497 L 18.4777,9.1497 L 18.518,9.1497 L 18.5582,9.1497 L 18.5984,9.1497 L 18.6386,9.1497 L 18.6788,9.1497 L 18.7191,9.1497 L 18.7593,9.1497 L 18.7995,9.1497 L 18.8397,9.1497 L 18.8799,9.1497 L 18.9202,9.1497" />
      <path d="M 13.1875,8.2457 L 13.2254,8.2592 L 13.2633,8.2727 L 13.3012,8.2863 L 13.3391,8.2998 L 13.377,8.3133 L 13.4149,8.3268 L 13.4528,8.3403 L 13.4907,8.3539 L 13.5286,8.3674 L 13.5665,8.3809 L 13.6044,8.3944 L 13.6423,8.4079 L 13.6802,8.4215 L 13.7181,8.435 L 13.756,8.4485 L 13.7939,8.462 L 13.8319,8.4755 L 13.8698,8.4891 L 13.9077,8.5026 L 13.9456,8.5161 L 13.9835,8.5296 L 14.0214,8.5431 L 14.0593,8.5567 L 14.0972,8.5702 L 14.1351,8.5837 L 14.173,8.5972 L 14.2109,8.6107 L 14.2488,8.6243 L 14.2867,8.6378 L 14.3246,8.6513 L 14.3625,8.6648 L 14.4004,8.6783 L 14.4383,8.6919 L 14.4762,8.7054 L 14.5141,8.7189 L 14.552,8.7324 L 14.5899,8.7459 L 14.6278,8.7595 L 14.6657,8.773 L 14.7036,8.7865 L 14.7415,8.8 L 14.7794,8.8135 L 14.8173,8.8271 L 14.8552,8.8406 L 14.8931,8.8541 L 14.931,8.8676 L 14.9689,8.8811 L 15.0068,8.8947 L 15.0447,8.9082 L 15.0826,8.9217 L 15.1205,8.9352 L 15.1584,8.9487 L 15.1963,8.9623 L 15.2342,8.9758 L 15.2721,8.9893 L 15.31,9.0028 L 15.3479,9.0163 L 15.3858,9.0299 L 15.4237,9.0434 L 15.4616,9.0569 L 15.4995,9.0704 L 15.5374,9.0839 L 15.5753,9.0975 L 15.6132,9.111 L 15.6511,9.1245 L 15.689,9.138 L 15.7269,9.1515 L 15.7648,9.1651 L 15.8027,9.1786 L 15.8406,9.1921 L 15.8785,9.2056 L 15.9164,9.2191" />
      <path d="M 17.5406,-8.1733 L 17.5461,-8.1412 L 17.5515,-8.1091 L 17.557,-8.077 L 17.5624,-8.0448 L 17.5679,-8.0127 L 17.5734,-7.9806 L 17.5788,-7.9485 L 17.5843,-7.9163 L 17.5897,-7.8842 L 17.5952,-7.8521 L 17.6007,-7.82 L 17.6061,-7.7879 L 17.6116,-7.7557 L 17.617,-7.7236 L 17.6225,-7.6915 L 17.628,-7.6594 L 17.6334,-7.6273 L 17.6389,-7.5951 L 17.6444,-7.563 L 17.6498,-7.5309 L 17.6553,-7.4988 L 17.6607,-7.4666 L 17.6662,-7.4345 L 17.6717,-7.4024 L 17.6771,-7.3703 L 17.6826,-7.3382 L 17.688,-7.306 L 17.6935,-7.2739 L 17.699,-7.2418 L 17.7044,-7.2097 L 17.7099,-7.1775 L 17.7153,-7.1454 L 17.7208,-7.1133 L 17.7263,-7.0812 L 17.7317,-7.0491 L 17.7372,-7.0169 L 17.7427,-6.9848 L 17.7481,-6.9527 L 17.7536,-6.9206 L 17.759,-6.8885 L 17.7645,-6.8563 L 17.77,-6.8242 L 17.7754,-6.7921 L 17.7809,-6.76 L 17.7863,-6.7278 L 17.7918,-6.6957 L 17.7973,-6.6636 L 17.8027,-6.6315 L 17.8082,-6.5994 L 17.8136,-6.5672 L 17.8191,-6.5351 L 17.8246,-6.503 L 17.83,-6.4709 L 17.8355,-6.4388 L 17.841,-6.4066 L 17.8464,-6.3745 L 17.8519,-6.3424 L 17.8573,-6.3103 L 17.8628,-6.2781 L 17.8683,-6.246 L 17.8737,-6.2139 L 17.8792,-6.1818 L 17.8846,-6.1497 L 17.8901,-6.1175 L 17.8956,-6.0854 L 17.901,-6.0533 L 17.9065,-6.0212 L 17.9119,-5.989 L 17.9174,-5.9569 L 17.9229,-5.9248 L 17.9283,-5.8927 L 17.9338,-5.8606" />
      <path d="M 16.9179,6.6496 L 16.9163,6.6496 L 16.9147,6.6496 L 16.9131,6.6496 L 16.9115,6.6496 L 16.9099,6.6496 L 16.9083,6.6496 L 16.9067,6.6496 L 16.9051,6.6496 L 16.9034,6.6496 L 16.9018,6.6496 L 16.9002,6.6496 L 16.8986,6.6496 L 16.897,6.6496 L 16.8954,6.6496 L 16.8938,6.6496 L 16.8922,6.6496 L 16.8906,6.6496 L 16.8889,6.6496 L 16.8873,6.6496 L 16.8857,6.6496 L 16.8841,6.6496 L 16.8825,6.6496 L 16.8809,6.6496 L 16.8793,6.6496 L 16.8777,6.6496 L 16.8761,6.6496 L 16.8744,6.6496 L 16.8728,6.6496 L 16.8712,6.6496 L 16.8696,6.6496 L 16.868,6.6496 L 16.8664,6.6496 L 16.8648,6.6496 L 16.8632,6.6496 L 16.8615,6.6496 L 16.8599,6.6496 L 16.8583,6.6496 L 16.8567,6.6496 L 16.8551,6.6496 L 16.8535,6.6496 L 16.8519,6.6496 L 16.8503,6.6496 L 16.8487,6.6496 L 16.847,6.6496 L 16.8454,6.6496 L 16.8438,6.6496 L 16.8422,6.6496 L 16.8406,6.6496 L 16.839,6.6496 L 16.8374,6.6496 L 16.8358,6.6496 L 16.8342,6.6496 L 16.8325,6.6496 L 16.8309,6.6496 L 16.8293,6.6496 L 16.8277,6.6496 L 16.8261,6.6496 L 16.8245,6.6496 L 16.8229,6.6496 L 16.8213,6.6496 L 16.8197,6.6496 L 16.818,6.6496 L 16.8164,6.6496 L 16.8148,6.6496 L 16.8132,6.6496 L 16.8116,6.6496 L 16.81,6.6496 L 16.8084,6.6496 L 16.8068,6.6496 L 16.8051,6.6496 L 16.8035,6.6496 L 16.8019,6.6496" />
      <path d="M 16.0244,9.1496 L 16.0646,9.1496 L 16.1048,9.1496 L 16.145,9.1496 L 16.1852,9.1496 L 16.2254,9.1496 L 16.2656,9.1496 L 16.3059,9.1496 L 16.3461,9.1496 L 16.3863,9.1496 L 16.4265,9.1496 L 16.4667,9.1496 L 16.5069,9.1496 L 16.5472,9.1496 L 16.5874,9.1496 L 16.6276,9.1496 L 16.6678,9.1496 L 16.708,9.1496 L 16.7482,9.1496 L 16.7884,9.1496 L 16.8287,9.1496 L 16.8689,9.1496 L 16.9091,9.1496 L 16.9493,9.1496 L 16.9895,9.1496 L 17.0297,9.1497 L 17.07,9.1497 L 17.1102,9.1497 L 17.1504,9.1497 L 17.1906,9.1497 L 17.2308,9.1497 L 17.271,9.1497 L 17.3112,9.1497 L 17.3515,9.1497 L 17.3917,9.1497 L 17.4319,9.1497 L 17.4721,9.1497 L 17.5123,9.1497 L 17.5525,9.1497 L 17.5928,9.1497 L 17.633,9.1497 L 17.6732,9.1497 L 17.7134,9.1497 L 17.7536,9.1497 L 17.7938,9.1497 L 17.834,9.1497 L 17.8743,9.1497 L 17.9145,9.1497 L 17.9547,9.1497 L 17.9949,9.1497 L 18.0351,9.1497 L 18.0753,9.1497 L 18.1155,9.1497 L 18.1558,9.1497 L 18.196,9.1497 L 18.2362,9.1497 L 18.2764,9.1497 L 18.3166,9.1497 L 18.3568,9.1497 L 18.3971,9.1497 L 18.4373,9.1497 L 18.4775,9.1497 L 18.5177,9.1497 L 18.5579,9.1497 L 18.5981,9.1497 L 18.6383,9.1497 L 18.6786,9.1497 L 18.7188,9.1497 L 18.759,9.1497 L 18.7992,9.1497 L 18.8394,9.1497 L 18.8796,9.1497 L 18.9199,9.1497" />
      <path d="M 14.513,-8.1727 L 14.5526,-8.1799 L 14.5922,-8.187 L 14.6317,-8.1942 L 14.6713,-8.2013 L 14.7109,-8.2085 L 14.7504,-8.2156 L 14.79,-8.2228 L 14.8296,-8.2299 L 14.8691,-8.2371 L 14.9087,-8.2442 L 14.9483,-8.2514 L 14.9878,-8.2585 L 15.0274,-8.2657 L 15.067,-8.2728 L 15.1065,-8.28 L 15.1461,-8.2871 L 15.1857,-8.2942 L 15.2252,-8.3014 L 15.2648,-8.3085 L 15.3044,-8.3157 L 15.3439,-8.3228 L 15.3835,-8.33 L 15.4231,-8.3371 L 15.4626,-8.3443 L 15.5022,-8.3514 L 15.5418,-8.3586 L 15.5813,-8.3657 L 15.6209,-8.3729 L 15.6605,-8.38 L 15.7,-8.3872 L 15.7396,-8.3943 L 15.7792,-8.4014 L 15.8187,-8.4086 L 15.8583,-8.4157 L 15.8979,-8.4229 L 15.9374,-8.43 L 15.977,-8.4372 L 16.0166,-8.4443 L 16.0561,-8.4515 L 16.0957,-8.4586 L 16.1353,-8.4658 L 16.1749,-8.4729 L 16.2144,-8.4801 L 16.254,-8.4872 L 16.2936,-8.4944 L 16.3331,-8.5015 L 16.3727,-8.5087 L 16.4123,-8.5158 L 16.4518,-8.5229 L 16.4914,-8.5301 L 16.531,-8.5372 L 16.5705,-8.5444 L 16.6101,-8.5515 L 16.6497,-8.5587 L 16.6892,-8.5658 L 16.7288,-8.573 L 16.7684,-8.5801 L 16.8079,-8.5873 L 16.8475,-8.5944 L 16.8871,-8.6016 L 16.9266,-8.6087 L 16.9662,-8.6159 L 17.0058,-8.623 L 17.0453,-8.6301 L 17.0849,-8.6373 L 17.1245,-8.6444 L 17.164,-8.6516 L 17.2036,-8.6587 L 17.2432,-8.6659 L 17.2827,-8.673 L 17.3223,-8.6802 L 17.3619,-8.6873" />
    </g>
    <g fill="none" stroke="rgb(110,110,110)" stroke-width="0.3" id="Hidden" stroke-dasharray="3.6 0.9">
      <path d="M -0.0311,9.1506 L -0.0311,9.1159 L -0.0311,9.0812 L -0.0311,9.0465 L -0.0311,9.0117 L -0.0311,8.977 L -0.0311,8.9423 L -0.0311,8.9076 L -0.0311,8.8728 L -0.0311,8.8381 L -0.0311,8.8034 L -0.0311,8.7687 L -0.0311,8.734 L -0.0311,8.6992 L -0.0311,8.6645 L -0.0311,8.6298 L -0.0311,8.5951 L -0.0311,8.5603 L -0.0311,8.5256 L -0.0311,8.4909 L -0.0311,8.4562 L -0.0311,8.4215 L -0.0311,8.3867 L -0.0311,8.352 L -0.0311,8.3173 L -0.0311,8.2826 L -0.0311,8.2478 L -0.0311,8.2131 L -0.0311,8.1784 L -0.0311,8.1437 L -0.0311,8.109 L -0.0311,8.0742 L -0.0311,8.0395 L -0.0311,8.0048 L -0.0311,7.9701 L -0.0311,7.9353 L -0.0311,7.9006 L -0.0311,7.8659 L -0.0311,7.8312 L -0.0311,7.7965 L -0.0311,7.7617 L -0.0311,7.727 L -0.0311,7.6923 L -0.0311,7.6576 L -0.0311,7.6228 L -0.0311,7.5881 L -0.0311,7.5534 L -0.0311,7.5187 L -0.0311,7.484 L -0.0311,7.4492 L -0.0311,7.4145 L -0.0311,7.3798 L -0.0311,7.3451 L -0.0311,7.3103 L -0.0311,7.2756 L -0.0311,7.2409 L -0.0311,7.2062 L -0.0311,7.1715 L -0.0311,7.1367 L -0.0311,7.102 L -0.0311,7.0673 L -0.0311,7.0326 L -0.0311,6.9978 L -0.0311,6.9631 L -0.0311,6.9284 L -0.0311,6.8937 L -0.0311,6.859 L -0.0311,6.8242 L -0.0311,6.7895 L -0.0311,6.7548 L -0.0311,6.7201 L -0.0311,6.6853 L -0.0311,6.6506" />
      <path d="M -0.0311,6.6506 L -0.5784,6.627 L -1.1216,6.5561 L -1.6567,6.4383 L -2.1795,6.2747 L -2.6863,6.0665 L -3.1731,5.8154 L -3.6365,5.5231 L -4.0731,5.1921 L -4.4795,4.8247 L -4.8528,4.4238 L -5.1904,3.9923 L -5.4897,3.5334 L -5.7486,3.0506 L -5.9653,2.5474 L -6.1382,2.0276 L -6.2661,1.4949 L -6.3481,0.9532 L -6.3838,0.4065 L -6.3727,-0.1412 L -6.3152,-0.6861 L -6.2117,-1.224 L -6.0629,-1.7513 L -5.8701,-2.2641 L -5.6346,-2.7587 L -5.3581,-3.2317 L -5.0427,-3.6797 L -4.6907,-4.0995 L -4.3047,-4.4882 L -3.8873,-4.8431 L -3.4416,-5.1617 L -2.9707,-5.4417 L -2.478,-5.6814 L -1.9671,-5.879 L -1.4414,-6.0332 L -0.9046,-6.143 L -0.3606,-6.2076 L 0.187,-6.2267 L 0.7342,-6.2002 L 1.2773,-6.1283 L 1.8126,-6.0117 L 2.3364,-5.851 L 2.845,-5.6475 L 3.3351,-5.4027 L 3.8034,-5.1182 L 4.2465,-4.7961 L 4.6616,-4.4386 L 5.0459,-4.0481 L 5.3968,-3.6273 L 5.7119,-3.1791 L 5.9892,-2.7067 L 6.2269,-2.213 L 6.4234,-1.7016 L 6.5774,-1.1759 L 6.6881,-0.6393 L 6.7545,-0.0955 L 6.7765,0.452 L 6.7539,0.9994 L 6.6869,1.5431 L 6.576,2.0797 L 6.422,2.6054 L 6.2259,3.117 L 5.9891,3.6111 L 5.7132,4.0844 L 5.4,4.5339 L 5.0516,4.9567 L 4.6703,5.3501 L 4.2586,5.7116 L 3.8193,6.0389 L 3.355,6.3299 L 2.869,6.5827 L 2.3643,6.7959 L 1.8442,6.968" />
      <path d="M -0.0311,6.6506 L -0.0288,6.6506 L -0.0266,6.6506 L -0.0244,6.6506 L -0.0222,6.6506 L -0.02,6.6505 L -0.0178,6.6505 L -0.0155,6.6505 L -0.0133,6.6505 L -0.0111,6.6505 L -0.0089,6.6505 L -0.0067,6.6505 L -0.0045,6.6505 L -0.0022,6.6504 L 0.0,6.6504 L 0.0022,6.6504 L 0.0044,6.6504 L 0.0066,6.6504 L 0.0088,6.6504 L 0.0111,6.6504 L 0.0133,6.6503 L 0.0155,6.6503 L 0.0177,6.6503 L 0.0199,6.6503 L 0.0221,6.6503 L 0.0243,6.6503 L 0.0266,6.6503 L 0.0288,6.6502 L 0.031,6.6502 L 0.0332,6.6502 L 0.0354,6.6502 L 0.0376,6.6502 L 0.0399,6.6502 L 0.0421,6.6502 L 0.0443,6.6501 L 0.0465,6.6501 L 0.0487,6.6501 L 0.0509,6.6501 L 0.0532,6.6501 L 0.0554,6.6501 L 0.0576,6.6501 L 0.0598,6.65 L 0.062,6.65 L 0.0642,6.65 L 0.0665,6.65 L 0.0687,6.65 L 0.0709,6.65 L 0.0731,6.65 L 0.0753,6.6499 L 0.0775,6.6499 L 0.0797,6.6499 L 0.082,6.6499 L 0.0842,6.6499 L 0.0864,6.6499 L 0.0886,6.6499 L 0.0908,6.6498 L 0.093,6.6498 L 0.0953,6.6498 L 0.0975,6.6498 L 0.0997,6.6498 L 0.1019,6.6498 L 0.1041,6.6498 L 0.1063,6.6497 L 0.1086,6.6497 L 0.1108,6.6497 L 0.113,6.6497 L 0.1152,6.6497 L 0.1174,6.6497 L 0.1196,6.6497 L 0.1219,6.6496 L 0.1241,6.6496 L 0.1263,6.6496 L 0.1285,6.6496" />
      <path d="M 18.9196,9.1497 L 18.8159,8.9411 L 18.7675,8.7042 L 18.7305,8.4653 L 18.6992,8.2255 L 18.6715,7.9853 L 18.6464,7.7448 L 18.623,7.5041 L 18.6012,7.2633 L 18.5805,7.0224 L 18.5608,6.7814 L 18.5419,6.5403 L 18.5237,6.2992 L 18.5061,6.058 L 18.489,5.8168 L 18.4724,5.5756 L 18.4562,5.3343 L 18.4403,5.093 L 18.4247,4.8517 L 18.4095,4.6104 L 18.3944,4.3691 L 18.3796,4.1277 L 18.365,3.8863 L 18.3506,3.645 L 18.3364,3.4036 L 18.3223,3.1622 L 18.3083,2.9208 L 18.2944,2.6794 L 18.2807,2.4379 L 18.267,2.1965 L 18.2534,1.9551 L 18.2399,1.7137 L 18.2264,1.4722 L 18.2129,1.2308 L 18.1995,0.9894 L 18.1861,0.7479 L 18.1728,0.5065 L 18.1594,0.265 L 18.146,0.0236 L 18.1326,-0.2178 L 18.1192,-0.4593 L 18.1057,-0.7007 L 18.0922,-0.9421 L 18.0786,-1.1836 L 18.065,-1.425 L 18.0512,-1.6664 L 18.0374,-1.9078 L 18.0235,-2.1492 L 18.0094,-2.3906 L 17.9952,-2.632 L 17.9809,-2.8734 L 17.9664,-3.1148 L 17.9518,-3.3561 L 17.9369,-3.5975 L 17.9218,-3.8388 L 17.9064,-4.0801 L 17.8908,-4.3214 L 17.8749,-4.5627 L 17.8586,-4.804 L 17.842,-5.0452 L 17.8249,-5.2864 L 17.8073,-5.5276 L 17.7892,-5.7687 L 17.7705,-6.0098 L 17.7511,-6.2508 L 17.7308,-6.4918 L 17.7095,-6.7327 L 17.687,-6.9734 L 17.6631,-7.214 L 17.6373,-7.4545 L 17.6091,-7.6946 L 17.5775,-7.9343 L 17.5406,-8.1733" />
      <path d="M 18.9202,6.6497 L 18.9201,6.6497 L 18.92,6.6497 L 18.9199,6.6497" />
      <path d="M 18.9199,6.6497 L 18.9198,6.6497 L 18.9197,6.6497" />
      <path d="M 16.8019,6.6496 L 16.7933,6.6496 L 16.7847,6.6496 L 16.7761,6.6496 L 16.7675,6.6496 L 16.7589,6.6496 L 16.7502,6.6496 L 16.7416,6.6496 L 16.733,6.6496 L 16.7244,6.6496 L 16.7158,6.6496 L 16.7072,6.6496 L 16.6986,6.6496 L 16.6899,6.6496 L 16.6813,6.6496 L 16.6727,6.6496 L 16.6641,6.6496 L 16.6555,6.6496 L 16.6469,6.6496 L 16.6383,6.6496 L 16.6297,6.6496 L 16.621,6.6496 L 16.6124,6.6496 L 16.6038,6.6496 L 16.5952,6.6496 L 16.5866,6.6496 L 16.578,6.6496 L 16.5694,6.6496 L 16.5607,6.6496 L 16.5521,6.6496 L 16.5435,6.6496 L 16.5349,6.6496 L 16.5263,6.6496 L 16.5177,6.6496 L 16.5091,6.6496 L 16.5004,6.6496 L 16.4918,6.6496 L 16.4832,6.6496 L 16.4746,6.6496 L 16.466,6.6496 L 16.4574,6.6496 L 16.4488,6.6496 L 16.4402,6.6496 L 16.4315,6.6496 L 16.4229,6.6496 L 16.4143,6.6496 L 16.4057,6.6496 L 16.3971,6.6496 L 16.3885,6.6496 L 16.3799,6.6496 L 16.3712,6.6496 L 16.3626,6.6496 L 16.354,6.6496 L 16.3454,6.6496 L 16.3368,6.6496 L 16.3282,6.6496 L 16.3196,6.6496 L 16.3109,6.6496 L 16.3023,6.6496 L 16.2937,6.6496 L 16.2851,6.6496 L 16.2765,6.6496 L 16.2679,6.6496 L 16.2593,6.6496 L 16.2507,6.6496 L 16.242,6.6496 L 16.2334,6.6496 L 16.2248,6.6496 L 16.2162,6.6496 L 16.2076,6.6496 L 16.199,6.6496 L 16.1904,6.6496 L 16.1817,6.6496" />
      <path d="M 16.1817,6.6496 L 16.1796,6.6496 L 16.1774,6.6496 L 16.1752,6.6496 L 16.173,6.6496 L 16.1708,6.6496 L 16.1686,6.6496 L 16.1664,6.6496 L 16.1643,6.6496 L 16.1621,6.6496 L 16.1599,6.6496 L 16.1577,6.6496 L 16.1555,6.6496 L 16.1533,6.6496 L 16.1511,6.6496 L 16.149,6.6496 L 16.1468,6.6496 L 16.1446,6.6496 L 16.1424,6.6496 L 16.1402,6.6496 L 16.138,6.6496 L 16.1358,6.6496 L 16.1337,6.6496 L 16.1315,6.6496 L 16.1293,6.6496 L 16.1271,6.6496 L 16.1249,6.6496 L 16.1227,6.6496 L 16.1205,6.6496 L 16.1184,6.6496 L 16.1162,6.6496 L 16.114,6.6496 L 16.1118,6.6496 L 16.1096,6.6496 L 16.1074,6.6496 L 16.1052,6.6496 L 16.1031,6.6496 L 16.1009,6.6496 L 16.0987,6.6496 L 16.0965,6.6496 L 16.0943,6.6496 L 16.0921,6.6496 L 16.0899,6.6496 L 16.0878,6.6496 L 16.0856,6.6496 L 16.0834,6.6496 L 16.0812,6.6496 L 16.079,6.6496 L 16.0768,6.6496 L 16.0746,6.6496 L 16.0724,6.6496 L 16.0703,6.6496 L 16.0681,6.6496 L 16.0659,6.6496 L 16.0637,6.6496 L 16.0615,6.6496 L 16.0593,6.6496 L 16.0571,6.6496 L 16.055,6.6496 L 16.0528,6.6496 L 16.0506,6.6496 L 16.0484,6.6496 L 16.0462,6.6496 L 16.044,6.6496 L 16.0418,6.6496 L 16.0397,6.6496 L 16.0375,6.6496 L 16.0353,6.6496 L 16.0331,6.6496 L 16.0309,6.6496 L 16.0287,6.6496 L 16.0265,6.6496 L 16.0244,6.6496" />
      <path d="M 16.0244,6.6496 L 15.952,6.5052 L 15.9183,6.3408 L 15.8925,6.175 L 15.8708,6.0085 L 15.8516,5.8418 L 15.8341,5.6749 L 15.8179,5.5078 L 15.8028,5.3407 L 15.7885,5.1735 L 15.7748,5.0062 L 15.7617,4.8388 L 15.7491,4.6715 L 15.737,4.5041 L 15.7251,4.3367 L 15.7136,4.1692 L 15.7024,4.0017 L 15.6915,3.8343 L 15.6807,3.6668 L 15.6702,3.4993 L 15.6598,3.3317 L 15.6496,3.1642 L 15.6396,2.9967 L 15.6296,2.8291 L 15.6198,2.6616 L 15.6101,2.494 L 15.6005,2.3265 L 15.5909,2.1589 L 15.5815,1.9913 L 15.5721,1.8237 L 15.5627,1.6562 L 15.5534,1.4886 L 15.5442,1.321 L 15.5349,1.1534 L 15.5257,0.9858 L 15.5165,0.8182 L 15.5073,0.6506 L 15.4982,0.4831 L 15.489,0.3155 L 15.4798,0.1479 L 15.4706,-0.0197 L 15.4614,-0.1873 L 15.4521,-0.3549 L 15.4428,-0.5225 L 15.4335,-0.69 L 15.4241,-0.8576 L 15.4146,-1.0252 L 15.4051,-1.1928 L 15.3955,-1.3603 L 15.3858,-1.5279 L 15.376,-1.6954 L 15.3661,-1.863 L 15.356,-2.0305 L 15.3459,-2.198 L 15.3356,-2.3656 L 15.3251,-2.5331 L 15.3144,-2.7006 L 15.3035,-2.8681 L 15.2924,-3.0355 L 15.2811,-3.203 L 15.2694,-3.3704 L 15.2575,-3.5378 L 15.2451,-3.7052 L 15.2323,-3.8726 L 15.2191,-4.0399 L 15.2052,-4.2072 L 15.1907,-4.3744 L 15.1754,-4.5415 L 15.159,-4.7086 L 15.1414,-4.8755 L 15.122,-5.0422 L 15.1003,-5.2086 L 15.0748,-5.3745" />
      <path d="M 15.0748,-5.3745 L 15.074,-5.3796 L 15.0731,-5.3846 L 15.0722,-5.3897 L 15.0713,-5.3948 L 15.0704,-5.3998 L 15.0695,-5.4049 L 15.0686,-5.41 L 15.0677,-5.415 L 15.0668,-5.4201 L 15.0659,-5.4251 L 15.0649,-5.4302 L 15.064,-5.4353 L 15.063,-5.4403 L 15.0621,-5.4454 L 15.0611,-5.4504 L 15.0601,-5.4555 L 15.0592,-5.4605 L 15.0582,-5.4656 L 15.0572,-5.4706 L 15.0561,-5.4756 L 15.0551,-5.4807 L 15.0541,-5.4857 L 15.053,-5.4908 L 15.052,-5.4958 L 15.0509,-5.5008 L 15.0498,-5.5059 L 15.0487,-5.5109 L 15.0476,-5.5159 L 15.0465,-5.5209 L 15.0454,-5.5259 L 15.0442,-5.531 L 15.0431,-5.536 L 15.0419,-5.541 L 15.0407,-5.546 L 15.0395,-5.551 L 15.0383,-5.556 L 15.037,-5.561 L 15.0357,-5.5659 L 15.0345,-5.5709 L 15.0331,-5.5759 L 15.0318,-5.5809 L 15.0305,-5.5858 L 15.0291,-5.5908 L 15.0277,-5.5957 L 15.0263,-5.6007 L 15.0248,-5.6056 L 15.0233,-5.6105 L 15.0218,-5.6154 L 15.0202,-5.6203 L 15.0186,-5.6252 L 15.017,-5.6301 L 15.0153,-5.635 L 15.0136,-5.6398 L 15.0118,-5.6446 L 15.01,-5.6494 L 15.0081,-5.6542 L 15.0061,-5.659 L 15.0041,-5.6637 L 15.002,-5.6684 L 14.9998,-5.673 L 14.9975,-5.6776 L 14.995,-5.6822 L 14.9924,-5.6866 L 14.9897,-5.691 L 14.9868,-5.6952 L 14.9836,-5.6992 L 14.9801,-5.7031 L 14.9764,-5.7065 L 14.9722,-5.7095 L 14.9675,-5.7117 L 14.9625,-5.7128 L 14.9574,-5.7126" />
      <path d="M 14.9574,-5.7126 L 14.8871,-5.5703 L 14.8533,-5.4105 L 14.8274,-5.2492 L 14.8055,-5.0873 L 14.7862,-4.925 L 14.7686,-4.7626 L 14.7524,-4.6 L 14.7372,-4.4373 L 14.7228,-4.2745 L 14.7092,-4.1117 L 14.6961,-3.9488 L 14.6835,-3.7859 L 14.6714,-3.6229 L 14.6596,-3.46 L 14.6481,-3.297 L 14.637,-3.1339 L 14.6261,-2.9709 L 14.6154,-2.8079 L 14.605,-2.6448 L 14.5947,-2.4817 L 14.5846,-2.3186 L 14.5747,-2.1555 L 14.5649,-1.9924 L 14.5552,-1.8293 L 14.5457,-1.6662 L 14.5362,-1.5031 L 14.5268,-1.3399 L 14.5175,-1.1768 L 14.5083,-1.0137 L 14.4991,-0.8505 L 14.49,-0.6874 L 14.481,-0.5242 L 14.472,-0.3611 L 14.463,-0.1979 L 14.454,-0.0348 L 14.4451,0.1284 L 14.4362,0.2916 L 14.4272,0.4547 L 14.4183,0.6179 L 14.4094,0.781 L 14.4004,0.9442 L 14.3915,1.1073 L 14.3825,1.2705 L 14.3734,1.4336 L 14.3644,1.5968 L 14.3552,1.7599 L 14.3461,1.9231 L 14.3368,2.0862 L 14.3275,2.2493 L 14.318,2.4125 L 14.3085,2.5756 L 14.2989,2.7387 L 14.2891,2.9018 L 14.2792,3.0649 L 14.2692,3.228 L 14.2589,3.3911 L 14.2485,3.5542 L 14.2379,3.7172 L 14.227,3.8803 L 14.2158,4.0433 L 14.2043,4.2063 L 14.1924,4.3692 L 14.1802,4.5322 L 14.1674,4.6951 L 14.154,4.8579 L 14.14,5.0207 L 14.1251,5.1834 L 14.1091,5.3461 L 14.0917,5.5085 L 14.0724,5.6708 L 14.0502,5.8327 L 14.023,5.9938" />
      <path d="M 16.7518,6.9672 L 16.7139,6.9537 L 16.676,6.9402 L 16.6381,6.9266 L 16.6002,6.9131 L 16.5623,6.8996 L 16.5244,6.8861 L 16.4865,6.8726 L 16.4486,6.859 L 16.4107,6.8455 L 16.3728,6.832 L 16.3349,6.8185 L 16.297,6.805 L 16.2591,6.7914 L 16.2212,6.7779 L 16.1833,6.7644 L 16.1454,6.7509 L 16.1075,6.7374 L 16.0696,6.7238 L 16.0317,6.7103 L 15.9938,6.6968 L 15.9559,6.6833 L 15.918,6.6698 L 15.8801,6.6562 L 15.8422,6.6427 L 15.8043,6.6292 L 15.7664,6.6157 L 15.7285,6.6022 L 15.6906,6.5886 L 15.6527,6.5751 L 15.6148,6.5616 L 15.5769,6.5481 L 15.539,6.5346 L 15.5011,6.521 L 15.4632,6.5075 L 15.4253,6.494 L 15.3874,6.4805 L 15.3495,6.467 L 15.3116,6.4534 L 15.2737,6.4399 L 15.2358,6.4264 L 15.1979,6.4129 L 15.16,6.3994 L 15.1221,6.3858 L 15.0842,6.3723 L 15.0463,6.3588 L 15.0084,6.3453 L 14.9705,6.3318 L 14.9326,6.3182 L 14.8947,6.3047 L 14.8568,6.2912 L 14.8189,6.2777 L 14.781,6.2642 L 14.7431,6.2506 L 14.7052,6.2371 L 14.6673,6.2236 L 14.6294,6.2101 L 14.5915,6.1966 L 14.5536,6.183 L 14.5157,6.1695 L 14.4778,6.156 L 14.4399,6.1425 L 14.402,6.129 L 14.3641,6.1154 L 14.3262,6.1019 L 14.2883,6.0884 L 14.2504,6.0749 L 14.2125,6.0614 L 14.1746,6.0478 L 14.1367,6.0343 L 14.0988,6.0208 L 14.0609,6.0073 L 14.023,5.9938" />
      <path d="M 16.0244,6.6496 L 16.0244,6.6813 L 16.0244,6.7129 L 16.0244,6.7446 L 16.0244,6.7762 L 16.0244,6.8079 L 16.0244,6.8395 L 16.0244,6.8711 L 16.0244,6.9028 L 16.0244,6.9344 L 16.0244,6.9661 L 16.0244,6.9977 L 16.0244,7.0294 L 16.0244,7.061 L 16.0244,7.0927 L 16.0244,7.1243 L 16.0244,7.1559 L 16.0244,7.1876 L 16.0244,7.2192 L 16.0244,7.2509 L 16.0244,7.2825 L 16.0244,7.3142 L 16.0244,7.3458 L 16.0244,7.3775 L 16.0244,7.4091 L 16.0244,7.4407 L 16.0244,7.4724 L 16.0244,7.504 L 16.0244,7.5357 L 16.0244,7.5673 L 16.0244,7.599 L 16.0244,7.6306 L 16.0244,7.6623 L 16.0244,7.6939 L 16.0244,7.7255 L 16.0244,7.7572 L 16.0244,7.7888 L 16.0244,7.8205 L 16.0244,7.8521 L 16.0244,7.8838 L 16.0244,7.9154 L 16.0244,7.9471 L 16.0244,7.9787 L 16.0244,8.0104 L 16.0244,8.042 L 16.0244,8.0736 L 16.0244,8.1053 L 16.0244,8.1369 L 16.0244,8.1686 L 16.0244,8.2002 L 16.0244,8.2319 L 16.0244,8.2635 L 16.0244,8.2952 L 16.0244,8.3268 L 16.0244,8.3584 L 16.0244,8.3901 L 16.0244,8.4217 L 16.0244,8.4534 L 16.0244,8.485 L 16.0244,8.5167 L 16.0244,8.5483 L 16.0244,8.58 L 16.0244,8.6116 L 16.0244,8.6432 L 16.0244,8.6749 L 16.0244,8.7065 L 16.0244,8.7382 L 16.0244,8.7698 L 16.0244,8.8015 L 16.0244,8.8331 L 16.0244,8.8648 L 16.0244,8.8964 L 16.0244,8.928" />
      <path d="M 15.9663,9.0845 L 15.9018,8.8602 L 15.8598,8.6302 L 15.8261,8.3989 L 15.797,8.1669 L 15.771,7.9346 L 15.7471,7.7021 L 15.7249,7.4694 L 15.704,7.2365 L 15.6842,7.0036 L 15.6653,6.7706 L 15.6471,6.5375 L 15.6296,6.3044 L 15.6126,6.0713 L 15.5961,5.8381 L 15.5801,5.6049 L 15.5644,5.3716 L 15.5491,5.1383 L 15.5341,4.9051 L 15.5193,4.6718 L 15.5048,4.4384 L 15.4905,4.2051 L 15.4764,3.9718 L 15.4624,3.7384 L 15.4486,3.505 L 15.435,3.2717 L 15.4215,3.0383 L 15.4081,2.8049 L 15.3948,2.5715 L 15.3816,2.3381 L 15.3684,2.1047 L 15.3553,1.8713 L 15.3423,1.6379 L 15.3293,1.4045 L 15.3164,1.1711 L 15.3034,0.9377 L 15.2905,0.7042 L 15.2776,0.4708 L 15.2646,0.2374 L 15.2517,0.004 L 15.2387,-0.2294 L 15.2257,-0.4628 L 15.2127,-0.6962 L 15.1996,-0.9296 L 15.1864,-1.163 L 15.1732,-1.3964 L 15.1598,-1.6298 L 15.1464,-1.8632 L 15.1329,-2.0966 L 15.1192,-2.33 L 15.1054,-2.5633 L 15.0914,-2.7967 L 15.0773,-3.03 L 15.0629,-3.2633 L 15.0484,-3.4967 L 15.0336,-3.73 L 15.0186,-3.9633 L 15.0032,-4.1965 L 14.9876,-4.4298 L 14.9716,-4.663 L 14.9551,-4.8962 L 14.9383,-5.1294 L 14.9209,-5.3625 L 14.9029,-5.5955 L 14.8842,-5.8286 L 14.8647,-6.0615 L 14.8442,-6.2944 L 14.8226,-6.5272 L 14.7996,-6.7598 L 14.7748,-6.9923 L 14.7477,-7.2245 L 14.7172,-7.4562 L 14.6816,-7.6873" />
      <path d="M 14.6816,-7.6873 L 14.6804,-7.6945 L 14.6791,-7.7018 L 14.6779,-7.7091 L 14.6766,-7.7164 L 14.6753,-7.7237 L 14.674,-7.7309 L 14.6727,-7.7382 L 14.6714,-7.7455 L 14.6701,-7.7527 L 14.6688,-7.76 L 14.6674,-7.7673 L 14.6661,-7.7745 L 14.6647,-7.7818 L 14.6633,-7.789 L 14.6619,-7.7963 L 14.6605,-7.8035 L 14.6591,-7.8108 L 14.6577,-7.818 L 14.6562,-7.8253 L 14.6548,-7.8325 L 14.6533,-7.8398 L 14.6518,-7.847 L 14.6503,-7.8542 L 14.6488,-7.8615 L 14.6473,-7.8687 L 14.6457,-7.8759 L 14.6442,-7.8831 L 14.6426,-7.8903 L 14.641,-7.8975 L 14.6393,-7.9047 L 14.6377,-7.9119 L 14.636,-7.9191 L 14.6343,-7.9263 L 14.6326,-7.9335 L 14.6309,-7.9407 L 14.6291,-7.9479 L 14.6273,-7.955 L 14.6255,-7.9622 L 14.6237,-7.9693 L 14.6218,-7.9765 L 14.6199,-7.9836 L 14.6179,-7.9907 L 14.616,-7.9979 L 14.6139,-8.005 L 14.6119,-8.0121 L 14.6098,-8.0191 L 14.6077,-8.0262 L 14.6055,-8.0333 L 14.6032,-8.0403 L 14.6009,-8.0473 L 14.5986,-8.0543 L 14.5962,-8.0613 L 14.5937,-8.0683 L 14.5912,-8.0752 L 14.5885,-8.0821 L 14.5858,-8.089 L 14.583,-8.0958 L 14.5801,-8.1026 L 14.577,-8.1093 L 14.5739,-8.116 L 14.5705,-8.1226 L 14.567,-8.1291 L 14.5633,-8.1355 L 14.5594,-8.1417 L 14.5552,-8.1478 L 14.5506,-8.1536 L 14.5457,-8.1591 L 14.5403,-8.1641 L 14.5342,-8.1683 L 14.5276,-8.1715 L 14.5204,-8.1731 L 14.513,-8.1727" />
      <path d="M 14.023,5.9938 L 14.0114,6.025 L 13.9998,6.0563 L 13.9882,6.0876 L 13.9766,6.1189 L 13.9649,6.1502 L 13.9533,6.1814 L 13.9417,6.2127 L 13.9301,6.244 L 13.9185,6.2753 L 13.9069,6.3065 L 13.8953,6.3378 L 13.8837,6.3691 L 13.8721,6.4004 L 13.8605,6.4316 L 13.8489,6.4629 L 13.8373,6.4942 L 13.8257,6.5255 L 13.8141,6.5568 L 13.8025,6.588 L 13.7909,6.6193 L 13.7793,6.6506 L 13.7677,6.6819 L 13.7561,6.7131 L 13.7445,6.7444 L 13.7329,6.7757 L 13.7213,6.807 L 13.7097,6.8382 L 13.6981,6.8695 L 13.6865,6.9008 L 13.6749,6.9321 L 13.6633,6.9634 L 13.6517,6.9946 L 13.6401,7.0259 L 13.6285,7.0572 L 13.6169,7.0885 L 13.6053,7.1197 L 13.5937,7.151 L 13.582,7.1823 L 13.5704,7.2136 L 13.5588,7.2448 L 13.5472,7.2761 L 13.5356,7.3074 L 13.524,7.3387 L 13.5124,7.37 L 13.5008,7.4012 L 13.4892,7.4325 L 13.4776,7.4638 L 13.466,7.4951 L 13.4544,7.5263 L 13.4428,7.5576 L 13.4312,7.5889 L 13.4196,7.6202 L 13.408,7.6514 L 13.3964,7.6827 L 13.3848,7.714 L 13.3732,7.7453 L 13.3616,7.7766 L 13.35,7.8078 L 13.3384,7.8391 L 13.3268,7.8704 L 13.3152,7.9017 L 13.3036,7.9329 L 13.292,7.9642 L 13.2804,7.9955 L 13.2688,8.0268 L 13.2572,8.058 L 13.2456,8.0893 L 13.234,8.1206 L 13.2224,8.1519 L 13.2108,8.1832 L 13.1991,8.2144 L 13.1875,8.2457" />
      <path d="M 18.9199,6.6497 L 18.8921,6.6497 L 18.8643,6.6497 L 18.8365,6.6497 L 18.8087,6.6497 L 18.7809,6.6497 L 18.7531,6.6497 L 18.7253,6.6497 L 18.6975,6.6497 L 18.6697,6.6497 L 18.6419,6.6497 L 18.614,6.6497 L 18.5862,6.6497 L 18.5584,6.6497 L 18.5306,6.6497 L 18.5028,6.6497 L 18.475,6.6497 L 18.4472,6.6497 L 18.4194,6.6497 L 18.3916,6.6497 L 18.3638,6.6497 L 18.336,6.6497 L 18.3082,6.6497 L 18.2804,6.6497 L 18.2526,6.6497 L 18.2248,6.6497 L 18.197,6.6497 L 18.1692,6.6497 L 18.1414,6.6497 L 18.1136,6.6497 L 18.0858,6.6497 L 18.0579,6.6497 L 18.0301,6.6497 L 18.0023,6.6497 L 17.9745,6.6497 L 17.9467,6.6497 L 17.9189,6.6497 L 17.8911,6.6497 L 17.8633,6.6497 L 17.8355,6.6497 L 17.8077,6.6497 L 17.7799,6.6497 L 17.7521,6.6497 L 17.7243,6.6497 L 17.6965,6.6497 L 17.6687,6.6497 L 17.6409,6.6497 L 17.6131,6.6497 L 17.5853,6.6497 L 17.5575,6.6497 L 17.5297,6.6497 L 17.5019,6.6497 L 17.474,6.6497 L 17.4462,6.6497 L 17.4184,6.6497 L 17.3906,6.6497 L 17.3628,6.6497 L 17.335,6.6497 L 17.3072,6.6497 L 17.2794,6.6497 L 17.2516,6.6497 L 17.2238,6.6497 L 17.196,6.6497 L 17.1682,6.6497 L 17.1404,6.6497 L 17.1126,6.6497 L 17.0848,6.6497 L 17.057,6.6497 L 17.0292,6.6497 L 17.0014,6.6497 L 16.9736,6.6496 L 16.9458,6.6496 L 16.9179,6.6496" />
      <path d="M 16.8019,6.6496 L 16.7933,6.6496 L 16.7847,6.6496 L 16.7761,6.6496 L 16.7675,6.6496 L 16.7589,6.6496 L 16.7502,6.6496 L 16.7416,6.6496 L 16.733,6.6496 L 16.7244,6.6496 L 16.7158,6.6496 L 16.7072,6.6496 L 16.6986,6.6496 L 16.6899,6.6496 L 16.6813,6.6496 L 16.6727,6.6496 L 16.6641,6.6496 L 16.6555,6.6496 L 16.6469,6.6496 L 16.6383,6.6496 L 16.6297,6.6496 L 16.621,6.6496 L 16.6124,6.6496 L 16.6038,6.6496 L 16.5952,6.6496 L 16.5866,6.6496 L 16.578,6.6496 L 16.5694,6.6496 L 16.5607,6.6496 L 16.5521,6.6496 L 16.5435,6.6496 L 16.5349,6.6496 L 16.5263,6.6496 L 16.5177,6.6496 L 16.5091,6.6496 L 16.5004,6.6496 L 16.4918,6.6496 L 16.4832,6.6496 L 16.4746,6.6496 L 16.466,6.6496 L 16.4574,6.6496 L 16.4488,6.6496 L 16.4402,6.6496 L 16.4315,6.6496 L 16.4229,6.6496 L 16.4143,6.6496 L 16.4057,6.6496 L 16.3971,6.6496 L 16.3885,6.6496 L 16.3799,6.6496 L 16.3712,6.6496 L 16.3626,6.6496 L 16.354,6.6496 L 16.3454,6.6496 L 16.3368,6.6496 L 16.3282,6.6496 L 16.3196,6.6496 L 16.3109,6.6496 L 16.3023,6.6496 L 16.2937,6.6496 L 16.2851,6.6496 L 16.2765,6.6496 L 16.2679,6.6496 L 16.2593,6.6496 L 16.2507,6.6496 L 16.242,6.6496 L 16.2334,6.6496 L 16.2248,6.6496 L 16.2162,6.6496 L 16.2076,6.6496 L 16.199,6.6496 L 16.1904,6.6496 L 16.1817,6.6496" />
      <path d="M 17.8062,-6.2271 L 17.7667,-6.22 L 17.7271,-6.2128 L 17.6875,-6.2057 L 17.648,-6.1985 L 17.6084,-6.1914 L 17.5688,-6.1843 L 17.5293,-6.1771 L 17.4897,-6.17 L 17.4501,-6.1628 L 17.4106,-6.1557 L 17.371,-6.1485 L 17.3314,-6.1414 L 17.2919,-6.1342 L 17.2523,-6.1271 L 17.2127,-6.1199 L 17.1732,-6.1128 L 17.1336,-6.1056 L 17.094,-6.0985 L 17.0545,-6.0913 L 17.0149,-6.0842 L 16.9753,-6.0771 L 16.9358,-6.0699 L 16.8962,-6.0628 L 16.8566,-6.0556 L 16.8171,-6.0485 L 16.7775,-6.0413 L 16.7379,-6.0342 L 16.6984,-6.027 L 16.6588,-6.0199 L 16.6192,-6.0127 L 16.5797,-6.0056 L 16.5401,-5.9984 L 16.5005,-5.9913 L 16.461,-5.9841 L 16.4214,-5.977 L 16.3818,-5.9698 L 16.3423,-5.9627 L 16.3027,-5.9556 L 16.2631,-5.9484 L 16.2235,-5.9413 L 16.184,-5.9341 L 16.1444,-5.927 L 16.1048,-5.9198 L 16.0653,-5.9127 L 16.0257,-5.9055 L 15.9861,-5.8984 L 15.9466,-5.8912 L 15.907,-5.8841 L 15.8674,-5.8769 L 15.8279,-5.8698 L 15.7883,-5.8626 L 15.7487,-5.8555 L 15.7092,-5.8484 L 15.6696,-5.8412 L 15.63,-5.8341 L 15.5905,-5.8269 L 15.5509,-5.8198 L 15.5113,-5.8126 L 15.4718,-5.8055 L 15.4322,-5.7983 L 15.3926,-5.7912 L 15.3531,-5.784 L 15.3135,-5.7769 L 15.2739,-5.7697 L 15.2344,-5.7626 L 15.1948,-5.7554 L 15.1552,-5.7483 L 15.1157,-5.7411 L 15.0761,-5.734 L 15.0365,-5.7269 L 14.997,-5.7197 L 14.9574,-5.7126" />
      <path d="M 15.0748,-5.3745 L 15.0694,-5.4066 L 15.0639,-5.4387 L 15.0584,-5.4709 L 15.053,-5.503 L 15.0475,-5.5351 L 15.0421,-5.5672 L 15.0366,-5.5993 L 15.0311,-5.6315 L 15.0257,-5.6636 L 15.0202,-5.6957 L 15.0147,-5.7278 L 15.0093,-5.76 L 15.0038,-5.7921 L 14.9984,-5.8242 L 14.9929,-5.8563 L 14.9874,-5.8884 L 14.982,-5.9206 L 14.9765,-5.9527 L 14.9711,-5.9848 L 14.9656,-6.0169 L 14.9601,-6.049 L 14.9547,-6.0812 L 14.9492,-6.1133 L 14.9437,-6.1454 L 14.9383,-6.1775 L 14.9328,-6.2097 L 14.9274,-6.2418 L 14.9219,-6.2739 L 14.9164,-6.306 L 14.911,-6.3381 L 14.9055,-6.3703 L 14.9001,-6.4024 L 14.8946,-6.4345 L 14.8891,-6.4666 L 14.8837,-6.4988 L 14.8782,-6.5309 L 14.8728,-6.563 L 14.8673,-6.5951 L 14.8618,-6.6272 L 14.8564,-6.6594 L 14.8509,-6.6915 L 14.8454,-6.7236 L 14.84,-6.7557 L 14.8345,-6.7879 L 14.8291,-6.82 L 14.8236,-6.8521 L 14.8181,-6.8842 L 14.8127,-6.9163 L 14.8072,-6.9485 L 14.8018,-6.9806 L 14.7963,-7.0127 L 14.7908,-7.0448 L 14.7854,-7.0769 L 14.7799,-7.1091 L 14.7745,-7.1412 L 14.769,-7.1733 L 14.7635,-7.2054 L 14.7581,-7.2376 L 14.7526,-7.2697 L 14.7471,-7.3018 L 14.7417,-7.3339 L 14.7362,-7.366 L 14.7308,-7.3982 L 14.7253,-7.4303 L 14.7198,-7.4624 L 14.7144,-7.4945 L 14.7089,-7.5267 L 14.7035,-7.5588 L 14.698,-7.5909 L 14.6925,-7.623 L 14.6871,-7.6551 L 14.6816,-7.6873" />
      <line x1="16.0243" y1="9.1496" x2="16.0244" y2="9.1496" />
    </g>
    <g fill="none" stroke="rgb(0,0,0)" stroke-width="0.2" id="Center" stroke-dasharray="6.35 1.27 1.27 1.27">
      <line x1="0.156" y1="0.2663" x2="-10.3755" y2="0.2663" />
      <line x1="0.156" y1="0.2663" x2="10.6875" y2="0.2663" />
      <line x1="0.156" y1="0.2663" x2="0.156" y2="-10.1874" />
      <line x1="0.156" y1="0.2663" x2="0.156" y2="10.7199" />
      <line x1="16.0538" y1="0.2657" x2="11.6875" y2="0.2657" />
      <line x1="16.0538" y1="0.2657" x2="20.4202" y2="0.2657" />
    </g>
  </g>
</svg>