<?xml version='1.0' encoding='utf-8'?>
<svg width="32.0376mm" height="22.8048mm" viewBox="-10.8851 -11.4191 32.0376 22.8048" version="1.1" xmlns="http://www.w3.org/2000/svg">
  <g transform="scale(1,-1)" stroke-linecap="round">
    <g fill="none" stroke="rgb(0,0,0)" stroke-width="0.4" id="Visible">
      <path d="M 9.1506,0.0311 L 9.1187,0.782 L 9.0229,1.5275 L 8.8639,2.262 L 8.6429,2.9804 L 8.3615,3.6774 L 8.0219,4.3479 L 7.6265,4.9871 L 7.1783,5.5904 L 6.6805,6.1536 L 6.1368,6.6725 L 5.5511,7.1435 L 4.9276,7.5632 L 4.2708,7.9287 L 3.5855,8.2374 L 2.8766,8.4871 L 2.1492,8.6761 L 1.4084,8.8031 L 0.6595,8.8672 L -0.0921,8.8679 L -0.8411,8.8054 L -1.5822,8.6802 L -2.3102,8.4931 L -3.0199,8.2455 L -3.7062,7.9392 L -4.3645,7.5765 L -4.9901,7.1598 L -5.5786,6.6923 L -6.1259,6.1771 L -6.6281,5.618 L -7.0819,5.0188 L -7.4841,4.3838 L -7.8318,3.7175 L -8.1228,3.0245 L -8.355,2.3096 L -8.5268,1.5779 L -8.6371,0.8344 L -8.6851,0.0843 L -8.6706,-0.6671 L -8.5937,-1.4148 L -8.455,-2.1535 L -8.2554,-2.8782 L -7.9964,-3.5837 L -7.6799,-4.2654 L -7.3079,-4.9186 L -6.8831,-5.5387 L -6.4085,-6.1215 L -5.8873,-6.663 L -5.3232,-7.1597 L -4.7199,-7.608 L -4.0817,-8.005 L -3.4129,-8.348 L -2.7181,-8.6346 L -2.002,-8.863 L -1.2695,-9.0317 L -0.5257,-9.1395 L 0.2245,-9.1857 L 0.976,-9.17 L 1.7236,-9.0926 L 2.4624,-8.9541 L 3.1872,-8.7555 L 3.8934,-8.498 L 4.576,-8.1834 L 5.2306,-7.814 L 5.8527,-7.3922 L 6.4382,-6.9208 L 6.9831,-6.4032 L 7.4838,-5.8426 L 7.9371,-5.243 L 8.3398,-4.6084 L 8.6893,-3.943 L 8.9833,-3.2512 L 9.2199,-2.5378" />
      <path d="M 9.2199,-2.5378 L 9.1886,-2.5282 L 9.1574,-2.5186 L 9.1261,-2.5089 L 9.0948,-2.4993 L 9.0635,-2.4897 L 9.0323,-2.48 L 9.001,-2.4704 L 8.9697,-2.4608 L 8.9384,-2.4511 L 8.9072,-2.4415 L 8.8759,-2.4319 L 8.8446,-2.4222 L 8.8133,-2.4126 L 8.7821,-2.403 L 8.7508,-2.3933 L 8.7195,-2.3837 L 8.6882,-2.3741 L 8.657,-2.3644 L 8.6257,-2.3548 L 8.5944,-2.3452 L 8.5631,-2.3355 L 8.5318,-2.3259 L 8.5006,-2.3163 L 8.4693,-2.3066 L 8.438,-2.297 L 8.4067,-2.2874 L 8.3755,-2.2777 L 8.3442,-2.2681 L 8.3129,-2.2585 L 8.2816,-2.2488 L 8.2504,-2.2392 L 8.2191,-2.2296 L 8.1878,-2.2199 L 8.1565,-2.2103 L 8.1253,-2.2006 L 8.094,-2.191 L 8.0627,-2.1814 L 8.0314,-2.1717 L 8.0002,-2.1621 L 7.9689,-2.1525 L 7.9376,-2.1428 L 7.9063,-2.1332 L 7.875,-2.1236 L 7.8438,-2.1139 L 7.8125,-2.1043 L 7.7812,-2.0947 L 7.7499,-2.085 L 7.7187,-2.0754 L 7.6874,-2.0658 L 7.6561,-2.0561 L 7.6248,-2.0465 L 7.5936,-2.0369 L 7.5623,-2.0272 L 7.531,-2.0176 L 7.4997,-2.008 L 7.4685,-1.9983 L 7.4372,-1.9887 L 7.4059,-1.9791 L 7.3746,-1.9694 L 7.3434,-1.9598 L 7.3121,-1.9502 L 7.2808,-1.9405 L 7.2495,-1.9309 L 7.2182,-1.9213 L 7.187,-1.9116 L 7.1557,-1.902 L 7.1244,-1.8924 L 7.0931,-1.8827 L 7.0619,-1.8731 L 7.0306,-1.8635 L 6.9993,-1.8538 L 6.968,-1.8442" />
      <path d="M 6.6496,-0.1285 L 6.629,0.3783 L 6.5677,0.8817 L 6.466,1.3786 L 6.3246,1.8657 L 6.1443,2.3398 L 5.9263,2.7977 L 5.6719,3.2365 L 5.3829,3.6533 L 5.061,4.0452 L 4.7084,4.4098 L 4.3274,4.7445 L 3.9203,5.0471 L 3.4901,5.3156 L 3.0393,5.5482 L 2.5711,5.7432 L 2.0886,5.8994 L 1.5949,6.0156 L 1.0934,6.091 L 0.5873,6.1251 L 0.0802,6.1176 L -0.4246,6.0685 L -0.9237,5.9781 L -1.4136,5.847 L -1.8911,5.676 L -2.3529,5.4663 L -2.7958,5.2192 L -3.2168,4.9364 L -3.613,4.6198 L -3.9817,4.2715 L -4.3202,3.8938 L -4.6264,3.4895 L -4.8979,3.0611 L -5.1329,2.6116 L -5.3298,2.1442 L -5.4871,1.6621 L -5.6037,1.1685 L -5.6787,0.6669 L -5.7117,0.1608 L -5.7023,-0.3463 L -5.6505,-0.8509 L -5.5567,-1.3493 L -5.4215,-1.8381 L -5.2458,-2.3139 L -5.0309,-2.7732 L -4.7781,-3.2129 L -4.4892,-3.6298 L -4.1664,-4.0209 L -3.8117,-4.3835 L -3.4277,-4.7149 L -3.0172,-5.0127 L -2.583,-5.2747 L -2.1282,-5.4992 L -1.656,-5.6844 L -1.1699,-5.8289 L -0.6733,-5.9317 L -0.1697,-5.9921 L 0.3372,-6.0095 L 0.8437,-5.9838 L 1.3462,-5.9151 L 1.841,-5.8039 L 2.3246,-5.651 L 2.7934,-5.4574 L 3.2439,-5.2246 L 3.673,-4.9541 L 4.0773,-4.648 L 4.454,-4.3084 L 4.8003,-3.9378 L 5.1135,-3.5389 L 5.3914,-3.1147 L 5.6319,-2.6681 L 5.8331,-2.2026 L 5.9936,-1.7215" />
      <path d="M 6.968,-1.8442 L 6.9545,-1.8425 L 6.941,-1.8408 L 6.9274,-1.8391 L 6.9139,-1.8374 L 6.9004,-1.8357 L 6.8868,-1.834 L 6.8733,-1.8323 L 6.8598,-1.8306 L 6.8462,-1.8289 L 6.8327,-1.8272 L 6.8192,-1.8254 L 6.8056,-1.8237 L 6.7921,-1.822 L 6.7786,-1.8203 L 6.765,-1.8186 L 6.7515,-1.8169 L 6.738,-1.8152 L 6.7244,-1.8135 L 6.7109,-1.8118 L 6.6974,-1.8101 L 6.6838,-1.8084 L 6.6703,-1.8067 L 6.6568,-1.805 L 6.6432,-1.8033 L 6.6297,-1.8016 L 6.6162,-1.7999 L 6.6026,-1.7982 L 6.5891,-1.7965 L 6.5756,-1.7948 L 6.562,-1.7931 L 6.5485,-1.7914 L 6.535,-1.7897 L 6.5214,-1.788 L 6.5079,-1.7863 L 6.4944,-1.7845 L 6.4808,-1.7828 L 6.4673,-1.7811 L 6.4538,-1.7794 L 6.4402,-1.7777 L 6.4267,-1.776 L 6.4131,-1.7743 L 6.3996,-1.7726 L 6.3861,-1.7709 L 6.3725,-1.7692 L 6.359,-1.7675 L 6.3455,-1.7658 L 6.3319,-1.7641 L 6.3184,-1.7624 L 6.3049,-1.7607 L 6.2913,-1.759 L 6.2778,-1.7573 L 6.2643,-1.7556 L 6.2507,-1.7539 L 6.2372,-1.7522 L 6.2237,-1.7505 L 6.2101,-1.7488 L 6.1966,-1.7471 L 6.1831,-1.7453 L 6.1695,-1.7436 L 6.156,-1.7419 L 6.1425,-1.7402 L 6.1289,-1.7385 L 6.1154,-1.7368 L 6.1019,-1.7351 L 6.0883,-1.7334 L 6.0748,-1.7317 L 6.0613,-1.73 L 6.0477,-1.7283 L 6.0342,-1.7266 L 6.0207,-1.7249 L 6.0071,-1.7232 L 5.9936,-1.7215" />
      <path d="M 6.6496,-0.1285 L 6.6843,-0.1285 L 6.7191,-0.1285 L 6.7538,-0.1285 L 6.7885,-0.1285 L 6.8232,-0.1285 L 6.8579,-0.1285 L 6.8927,-0.1285 L 6.9274,-0.1285 L 6.9621,-0.1285 L 6.9968,-0.1285 L 7.0316,-0.1285 L 7.0663,-0.1285 L 7.101,-0.1285 L 7.1357,-0.1285 L 7.1704,-0.1285 L 7.2052,-0.1285 L 7.2399,-0.1285 L 7.2746,-0.1285 L 7.3093,-0.1285 L 7.3441,-0.1285 L 7.3788,-0.1285 L 7.4135,-0.1285 L 7.4482,-0.1285 L 7.4829,-0.1285 L 7.5177,-0.1285 L 7.5524,-0.1285 L 7.5871,-0.1285 L 7.6218,-0.1285 L 7.6566,-0.1285 L 7.6913,-0.1285 L 7.726,-0.1285 L 7.7607,-0.1285 L 7.7954,-0.1285 L 7.8302,-0.1285 L 7.8649,-0.1285 L 7.8996,-0.1285 L 7.9343,-0.1285 L 7.9691,-0.1285 L 8.0038,-0.1285 L 8.0385,-0.1285 L 8.0732,-0.1285 L 8.1079,-0.1285 L 8.1427,-0.1285 L 8.1774,-0.1285 L 8.2121,-0.1285 L 8.2468,-0.1285 L 8.2816,-0.1285 L 8.3163,-0.1285 L 8.351,-0.1285 L 8.3857,-0.1285 L 8.4204,-0.1285 L 8.4552,-0.1285 L 8.4899,-0.1285 L 8.5246,-0.1285 L 8.5593,-0.1285 L 8.5941,-0.1285 L 8.6288,-0.1285 L 8.6635,-0.1285 L 8.6982,-0.1285 L 8.7329,-0.1285 L 8.7677,-0.1285 L 8.8024,-0.1285 L 8.8371,-0.1285 L 8.8718,-0.1285 L 8.9066,-0.1285 L 8.9413,-0.1285 L 8.976,-0.1285 L 9.0107,-0.1285 L 9.0454,-0.1285 L 9.0802,-0.1285 L 9.1149,-0.1285 L 9.1496,-0.1285" />
      <path d="M 9.1496,-0.1285 L 9.1207,0.5819 L 9.0344,1.2876 L 8.8913,1.984 L 8.6924,2.6665 L 8.4388,3.3307 L 8.1322,3.9721 L 7.7745,4.5865 L 7.3682,5.1699 L 6.9158,5.7183 L 6.4202,6.2281 L 5.8849,6.6959 L 5.3132,7.1186 L 4.709,7.4932 L 4.0762,7.8173 L 3.4191,8.0887 L 2.742,8.3054 L 2.0494,8.4661 L 1.3461,8.5695 L 0.6366,8.615 L -0.0742,8.6022 L -0.7816,8.531 L -1.4808,8.4021 L -2.1669,8.216 L -2.8355,7.9742 L -3.4818,7.6782 L -4.1016,7.3299 L -4.6906,6.9316 L -5.2446,6.4862 L -5.76,5.9964 L -6.2331,5.4658 L -6.6607,4.8978 L -7.0397,4.2963 L -7.3676,3.6655 L -7.642,3.0097 L -7.861,2.3333 L -8.023,1.6411 L -8.1269,0.9378 L -8.1718,0.2283 L -8.1575,-0.4825 L -8.0838,-1.1896 L -7.9514,-1.8881 L -7.7611,-2.5731 L -7.5141,-3.2398 L -7.2122,-3.8834 L -6.8574,-4.4995 L -6.4521,-5.0836 L -5.9993,-5.6316 L -5.5019,-6.1397 L -4.9636,-6.604 L -4.3881,-7.0214 L -3.7795,-7.3888 L -3.142,-7.7035 L -2.4803,-7.9633 L -1.7989,-8.1662 L -1.1028,-8.3106 L -0.397,-8.3956 L 0.3135,-8.4205 L 1.0236,-8.3849 L 1.728,-8.2891 L 2.4218,-8.1338 L 3.0998,-7.92 L 3.7571,-7.6492 L 4.389,-7.3234 L 4.9907,-6.9447 L 5.5578,-6.5161 L 6.0862,-6.0404 L 6.5719,-5.5213 L 7.0113,-4.9624 L 7.4011,-4.3679 L 7.7383,-3.742 L 8.0205,-3.0895 L 8.2455,-2.4151" />
      <path d="M 5.9936,-1.7215 L 6.0249,-1.7311 L 6.0562,-1.7408 L 6.0874,-1.7504 L 6.1187,-1.76 L 6.15,-1.7697 L 6.1813,-1.7793 L 6.2125,-1.7889 L 6.2438,-1.7986 L 6.2751,-1.8082 L 6.3064,-1.8178 L 6.3376,-1.8275 L 6.3689,-1.8371 L 6.4002,-1.8467 L 6.4315,-1.8564 L 6.4627,-1.866 L 6.494,-1.8756 L 6.5253,-1.8853 L 6.5566,-1.8949 L 6.5878,-1.9045 L 6.6191,-1.9142 L 6.6504,-1.9238 L 6.6817,-1.9334 L 6.713,-1.9431 L 6.7442,-1.9527 L 6.7755,-1.9623 L 6.8068,-1.972 L 6.8381,-1.9816 L 6.8693,-1.9912 L 6.9006,-2.0009 L 6.9319,-2.0105 L 6.9632,-2.0201 L 6.9944,-2.0298 L 7.0257,-2.0394 L 7.057,-2.049 L 7.0883,-2.0587 L 7.1195,-2.0683 L 7.1508,-2.0779 L 7.1821,-2.0876 L 7.2134,-2.0972 L 7.2446,-2.1068 L 7.2759,-2.1165 L 7.3072,-2.1261 L 7.3385,-2.1358 L 7.3698,-2.1454 L 7.401,-2.155 L 7.4323,-2.1647 L 7.4636,-2.1743 L 7.4949,-2.1839 L 7.5261,-2.1936 L 7.5574,-2.2032 L 7.5887,-2.2128 L 7.62,-2.2225 L 7.6512,-2.2321 L 7.6825,-2.2417 L 7.7138,-2.2514 L 7.7451,-2.261 L 7.7763,-2.2706 L 7.8076,-2.2803 L 7.8389,-2.2899 L 7.8702,-2.2995 L 7.9015,-2.3092 L 7.9327,-2.3188 L 7.964,-2.3284 L 7.9953,-2.3381 L 8.0266,-2.3477 L 8.0578,-2.3573 L 8.0891,-2.367 L 8.1204,-2.3766 L 8.1517,-2.3862 L 8.1829,-2.3959 L 8.2142,-2.4055 L 8.2455,-2.4151" />
      <path d="M 9.1496,-0.1285 L 9.1496,-0.1263 L 9.1496,-0.1241 L 9.1496,-0.1219 L 9.1497,-0.1196 L 9.1497,-0.1174 L 9.1497,-0.1152 L 9.1497,-0.113 L 9.1497,-0.1108 L 9.1497,-0.1086 L 9.1497,-0.1063 L 9.1498,-0.1041 L 9.1498,-0.1019 L 9.1498,-0.0997 L 9.1498,-0.0975 L 9.1498,-0.0953 L 9.1498,-0.093 L 9.1498,-0.0908 L 9.1499,-0.0886 L 9.1499,-0.0864 L 9.1499,-0.0842 L 9.1499,-0.082 L 9.1499,-0.0797 L 9.1499,-0.0775 L 9.1499,-0.0753 L 9.15,-0.0731 L 9.15,-0.0709 L 9.15,-0.0687 L 9.15,-0.0665 L 9.15,-0.0642 L 9.15,-0.062 L 9.15,-0.0598 L 9.1501,-0.0576 L 9.1501,-0.0554 L 9.1501,-0.0532 L 9.1501,-0.0509 L 9.1501,-0.0487 L 9.1501,-0.0465 L 9.1501,-0.0443 L 9.1502,-0.0421 L 9.1502,-0.0399 L 9.1502,-0.0376 L 9.1502,-0.0354 L 9.1502,-0.0332 L 9.1502,-0.031 L 9.1502,-0.0288 L 9.1503,-0.0266 L 9.1503,-0.0243 L 9.1503,-0.0221 L 9.1503,-0.0199 L 9.1503,-0.0177 L 9.1503,-0.0155 L 9.1503,-0.0133 L 9.1504,-0.0111 L 9.1504,-0.0088 L 9.1504,-0.0066 L 9.1504,-0.0044 L 9.1504,-0.0022 L 9.1504,0.0 L 9.1504,0.0022 L 9.1505,0.0045 L 9.1505,0.0067 L 9.1505,0.0089 L 9.1505,0.0111 L 9.1505,0.0133 L 9.1505,0.0155 L 9.1505,0.0178 L 9.1505,0.02 L 9.1506,0.0222 L 9.1506,0.0244 L 9.1506,0.0266 L 9.1506,0.0288 L 9.1506,0.0311" />
      <path d="M 8.2455,-2.4151 L 8.259,-2.4168 L 8.2726,-2.4185 L 8.2861,-2.4202 L 8.2996,-2.422 L 8.3132,-2.4237 L 8.3267,-2.4254 L 8.3402,-2.4271 L 8.3538,-2.4288 L 8.3673,-2.4305 L 8.3808,-2.4322 L 8.3944,-2.4339 L 8.4079,-2.4356 L 8.4214,-2.4373 L 8.435,-2.439 L 8.4485,-2.4407 L 8.462,-2.4424 L 8.4756,-2.4441 L 8.4891,-2.4458 L 8.5026,-2.4475 L 8.5162,-2.4492 L 8.5297,-2.4509 L 8.5432,-2.4526 L 8.5568,-2.4543 L 8.5703,-2.456 L 8.5838,-2.4577 L 8.5974,-2.4594 L 8.6109,-2.4611 L 8.6244,-2.4629 L 8.638,-2.4646 L 8.6515,-2.4663 L 8.665,-2.468 L 8.6786,-2.4697 L 8.6921,-2.4714 L 8.7056,-2.4731 L 8.7192,-2.4748 L 8.7327,-2.4765 L 8.7462,-2.4782 L 8.7598,-2.4799 L 8.7733,-2.4816 L 8.7868,-2.4833 L 8.8004,-2.485 L 8.8139,-2.4867 L 8.8274,-2.4884 L 8.841,-2.4901 L 8.8545,-2.4918 L 8.868,-2.4935 L 8.8816,-2.4952 L 8.8951,-2.4969 L 8.9086,-2.4986 L 8.9222,-2.5003 L 8.9357,-2.502 L 8.9492,-2.5038 L 8.9628,-2.5055 L 8.9763,-2.5072 L 8.9899,-2.5089 L 9.0034,-2.5106 L 9.0169,-2.5123 L 9.0305,-2.514 L 9.044,-2.5157 L 9.0575,-2.5174 L 9.0711,-2.5191 L 9.0846,-2.5208 L 9.0981,-2.5225 L 9.1117,-2.5242 L 9.1252,-2.5259 L 9.1387,-2.5276 L 9.1523,-2.5293 L 9.1658,-2.531 L 9.1793,-2.5327 L 9.1929,-2.5344 L 9.2064,-2.5361 L 9.2199,-2.5378" />
      <path d="M 18.9525,9.1497 L 18.9524,9.1497 L 18.9523,9.1497 L 18.9522,9.1497" />
      <path d="M 18.9522,9.1497 L 18.9521,9.1497 L 18.952,9.1497 L 18.9519,9.1497" />
      <path d="M 17.573,-8.1733 L 17.5717,-8.181 L 17.5703,-8.1887 L 17.569,-8.1964 L 17.5677,-8.2042 L 17.5663,-8.2119 L 17.5649,-8.2196 L 17.5636,-8.2273 L 17.5622,-8.235 L 17.5608,-8.2426 L 17.5594,-8.2503 L 17.5579,-8.258 L 17.5565,-8.2657 L 17.5551,-8.2734 L 17.5536,-8.2811 L 17.5521,-8.2888 L 17.5506,-8.2965 L 17.5491,-8.3041 L 17.5476,-8.3118 L 17.5461,-8.3195 L 17.5446,-8.3271 L 17.543,-8.3348 L 17.5414,-8.3425 L 17.5398,-8.3501 L 17.5382,-8.3578 L 17.5366,-8.3654 L 17.535,-8.3731 L 17.5333,-8.3807 L 17.5316,-8.3884 L 17.5299,-8.396 L 17.5282,-8.4036 L 17.5264,-8.4112 L 17.5247,-8.4189 L 17.5229,-8.4265 L 17.5211,-8.4341 L 17.5192,-8.4417 L 17.5174,-8.4493 L 17.5155,-8.4569 L 17.5135,-8.4645 L 17.5116,-8.472 L 17.5096,-8.4796 L 17.5076,-8.4871 L 17.5055,-8.4947 L 17.5034,-8.5022 L 17.5013,-8.5098 L 17.4991,-8.5173 L 17.4969,-8.5248 L 17.4946,-8.5323 L 17.4923,-8.5397 L 17.4899,-8.5472 L 17.4875,-8.5546 L 17.485,-8.562 L 17.4824,-8.5694 L 17.4798,-8.5768 L 17.4771,-8.5841 L 17.4743,-8.5914 L 17.4714,-8.5987 L 17.4685,-8.6059 L 17.4654,-8.6131 L 17.4621,-8.6202 L 17.4588,-8.6273 L 17.4552,-8.6343 L 17.4515,-8.6412 L 17.4476,-8.6479 L 17.4434,-8.6545 L 17.439,-8.661 L 17.4341,-8.6671 L 17.4289,-8.6729 L 17.4231,-8.6782 L 17.4167,-8.6827 L 17.4097,-8.686 L 17.402,-8.6877 L 17.3943,-8.6873" />
      <path d="M 17.3943,-8.6873 L 17.2868,-8.4697 L 17.2349,-8.2253 L 17.1953,-7.9785 L 17.1617,-7.7308 L 17.1321,-7.4826 L 17.1051,-7.2341 L 17.0802,-6.9854 L 17.0569,-6.7365 L 17.0348,-6.4875 L 17.0138,-6.2384 L 16.9937,-5.9893 L 16.9743,-5.7401 L 16.9556,-5.4908 L 16.9375,-5.2415 L 16.9199,-4.9922 L 16.9027,-4.7428 L 16.8859,-4.4934 L 16.8695,-4.244 L 16.8534,-3.9946 L 16.8375,-3.7451 L 16.822,-3.4956 L 16.8066,-3.2461 L 16.7915,-2.9966 L 16.7765,-2.7471 L 16.7618,-2.4976 L 16.7471,-2.2481 L 16.7326,-1.9985 L 16.7183,-1.749 L 16.704,-1.4994 L 16.6898,-1.2499 L 16.6757,-1.0003 L 16.6617,-0.7507 L 16.6478,-0.5011 L 16.6338,-0.2516 L 16.62,-0.002 L 16.6061,0.2476 L 16.5923,0.4972 L 16.5784,0.7467 L 16.5646,0.9963 L 16.5507,1.2459 L 16.5368,1.4955 L 16.5229,1.745 L 16.509,1.9946 L 16.4949,2.2442 L 16.4808,2.4937 L 16.4666,2.7433 L 16.4524,2.9928 L 16.438,3.2424 L 16.4234,3.4919 L 16.4088,3.7415 L 16.394,3.991 L 16.379,4.2405 L 16.3638,4.49 L 16.3484,4.7395 L 16.3327,4.989 L 16.3168,5.2384 L 16.3005,5.4878 L 16.2839,5.7372 L 16.2669,5.9866 L 16.2495,6.236 L 16.2315,6.4853 L 16.213,6.7346 L 16.1939,6.9838 L 16.1739,7.233 L 16.1531,7.4821 L 16.1311,7.7311 L 16.1079,7.9799 L 16.0829,8.2286 L 16.0558,8.4771 L 16.0256,8.7253 L 15.991,8.9728 L 15.9487,9.2191" />
      <path d="M 18.9525,9.1497 L 18.9525,9.115 L 18.9525,9.0802 L 18.9525,9.0455 L 18.9525,9.0108 L 18.9525,8.9761 L 18.9525,8.9414 L 18.9525,8.9066 L 18.9525,8.8719 L 18.9525,8.8372 L 18.9525,8.8025 L 18.9525,8.7677 L 18.9525,8.733 L 18.9525,8.6983 L 18.9525,8.6636 L 18.9525,8.6289 L 18.9525,8.5941 L 18.9525,8.5594 L 18.9525,8.5247 L 18.9525,8.49 L 18.9525,8.4552 L 18.9525,8.4205 L 18.9525,8.3858 L 18.9525,8.3511 L 18.9525,8.3164 L 18.9525,8.2816 L 18.9525,8.2469 L 18.9525,8.2122 L 18.9525,8.1775 L 18.9525,8.1427 L 18.9525,8.108 L 18.9525,8.0733 L 18.9525,8.0386 L 18.9525,8.0039 L 18.9525,7.9691 L 18.9525,7.9344 L 18.9525,7.8997 L 18.9525,7.865 L 18.9525,7.8302 L 18.9525,7.7955 L 18.9525,7.7608 L 18.9525,7.7261 L 18.9525,7.6914 L 18.9525,7.6566 L 18.9525,7.6219 L 18.9525,7.5872 L 18.9525,7.5525 L 18.9525,7.5177 L 18.9525,7.483 L 18.9525,7.4483 L 18.9525,7.4136 L 18.9525,7.3789 L 18.9525,7.3441 L 18.9525,7.3094 L 18.9525,7.2747 L 18.9525,7.24 L 18.9525,7.2052 L 18.9525,7.1705 L 18.9525,7.1358 L 18.9525,7.1011 L 18.9525,7.0664 L 18.9525,7.0316 L 18.9525,6.9969 L 18.9525,6.9622 L 18.9525,6.9275 L 18.9525,6.8927 L 18.9525,6.858 L 18.9525,6.8233 L 18.9525,6.7886 L 18.9525,6.7539 L 18.9525,6.7191 L 18.9525,6.6844 L 18.9525,6.6497" />
      <path d="M 18.952,6.6497 L 18.8781,6.4985 L 18.8437,6.3273 L 18.8174,6.1547 L 18.7951,5.9816 L 18.7754,5.8081 L 18.7575,5.6344 L 18.7409,5.4606 L 18.7253,5.2867 L 18.7106,5.1127 L 18.6965,4.9386 L 18.683,4.7645 L 18.6701,4.5904 L 18.6575,4.4162 L 18.6453,4.2421 L 18.6335,4.0679 L 18.6219,3.8936 L 18.6106,3.7194 L 18.5995,3.5451 L 18.5886,3.3709 L 18.5778,3.1966 L 18.5673,3.0223 L 18.5569,2.848 L 18.5466,2.6737 L 18.5364,2.4994 L 18.5263,2.3251 L 18.5164,2.1507 L 18.5065,1.9764 L 18.4966,1.8021 L 18.4869,1.6277 L 18.4772,1.4534 L 18.4675,1.2791 L 18.4579,1.1047 L 18.4482,0.9304 L 18.4387,0.756 L 18.4291,0.5817 L 18.4195,0.4073 L 18.41,0.233 L 18.4004,0.0586 L 18.3908,-0.1157 L 18.3812,-0.2901 L 18.3716,-0.4644 L 18.3619,-0.6387 L 18.3522,-0.8131 L 18.3424,-0.9874 L 18.3326,-1.1618 L 18.3227,-1.3361 L 18.3128,-1.5104 L 18.3027,-1.6847 L 18.2926,-1.859 L 18.2823,-2.0333 L 18.2719,-2.2076 L 18.2614,-2.3819 L 18.2508,-2.5562 L 18.2399,-2.7305 L 18.2289,-2.9048 L 18.2178,-3.079 L 18.2063,-3.2532 L 18.1947,-3.4275 L 18.1827,-3.6017 L 18.1705,-3.7758 L 18.1579,-3.95 L 18.1449,-4.1241 L 18.1315,-4.2982 L 18.1176,-4.4723 L 18.103,-4.6463 L 18.0877,-4.8202 L 18.0716,-4.9941 L 18.0544,-5.1678 L 18.0359,-5.3415 L 18.0156,-5.5149 L 17.9928,-5.688 L 17.9662,-5.8606" />
      <path d="M 17.9662,-5.8606 L 17.9652,-5.8661 L 17.9643,-5.8716 L 17.9633,-5.8771 L 17.9624,-5.8826 L 17.9614,-5.888 L 17.9604,-5.8935 L 17.9595,-5.899 L 17.9585,-5.9045 L 17.9575,-5.91 L 17.9565,-5.9155 L 17.9555,-5.921 L 17.9544,-5.9265 L 17.9534,-5.932 L 17.9524,-5.9374 L 17.9513,-5.9429 L 17.9502,-5.9484 L 17.9492,-5.9539 L 17.9481,-5.9593 L 17.947,-5.9648 L 17.9459,-5.9703 L 17.9448,-5.9757 L 17.9437,-5.9812 L 17.9425,-5.9867 L 17.9414,-5.9921 L 17.9402,-5.9976 L 17.9391,-6.003 L 17.9379,-6.0085 L 17.9367,-6.0139 L 17.9355,-6.0194 L 17.9342,-6.0248 L 17.933,-6.0303 L 17.9317,-6.0357 L 17.9304,-6.0411 L 17.9291,-6.0466 L 17.9278,-6.052 L 17.9265,-6.0574 L 17.9251,-6.0628 L 17.9238,-6.0682 L 17.9224,-6.0736 L 17.9209,-6.079 L 17.9195,-6.0844 L 17.918,-6.0898 L 17.9165,-6.0952 L 17.915,-6.1005 L 17.9135,-6.1059 L 17.9119,-6.1112 L 17.9103,-6.1166 L 17.9086,-6.1219 L 17.9069,-6.1272 L 17.9052,-6.1325 L 17.9034,-6.1378 L 17.9016,-6.1431 L 17.8997,-6.1483 L 17.8978,-6.1536 L 17.8958,-6.1588 L 17.8937,-6.164 L 17.8916,-6.1691 L 17.8894,-6.1742 L 17.8871,-6.1793 L 17.8847,-6.1844 L 17.8822,-6.1893 L 17.8795,-6.1942 L 17.8767,-6.1991 L 17.8737,-6.2038 L 17.8705,-6.2084 L 17.8671,-6.2127 L 17.8633,-6.2169 L 17.8592,-6.2206 L 17.8547,-6.2238 L 17.8496,-6.2262 L 17.8442,-6.2274 L 17.8386,-6.2271" />
      <path d="M 17.8386,-6.2271 L 17.7604,-6.0663 L 17.7228,-5.8861 L 17.694,-5.7042 L 17.6696,-5.5216 L 17.6481,-5.3387 L 17.6285,-5.1556 L 17.6104,-4.9723 L 17.5934,-4.789 L 17.5774,-4.6055 L 17.5621,-4.422 L 17.5474,-4.2384 L 17.5334,-4.0548 L 17.5198,-3.8711 L 17.5066,-3.6874 L 17.4937,-3.5037 L 17.4812,-3.32 L 17.469,-3.1362 L 17.457,-2.9524 L 17.4453,-2.7686 L 17.4338,-2.5848 L 17.4224,-2.401 L 17.4112,-2.2172 L 17.4002,-2.0334 L 17.3893,-1.8495 L 17.3786,-1.6657 L 17.3679,-1.4818 L 17.3573,-1.298 L 17.3468,-1.1141 L 17.3364,-0.9302 L 17.3261,-0.7463 L 17.3158,-0.5625 L 17.3056,-0.3786 L 17.2954,-0.1947 L 17.2853,-0.0108 L 17.2751,0.1731 L 17.265,0.3569 L 17.2549,0.5408 L 17.2448,0.7247 L 17.2347,0.9086 L 17.2246,1.0925 L 17.2144,1.2764 L 17.2043,1.4603 L 17.1941,1.6441 L 17.1838,1.828 L 17.1735,2.0119 L 17.1631,2.1958 L 17.1527,2.3796 L 17.1422,2.5635 L 17.1316,2.7474 L 17.1209,2.9312 L 17.11,3.1151 L 17.0991,3.2989 L 17.0879,3.4827 L 17.0767,3.6665 L 17.0652,3.8503 L 17.0535,4.0341 L 17.0416,4.2179 L 17.0295,4.4017 L 17.0171,4.5854 L 17.0043,4.7691 L 16.9912,4.9528 L 16.9776,5.1365 L 16.9636,5.3201 L 16.949,5.5037 L 16.9337,5.6872 L 16.9177,5.8707 L 16.9006,6.0541 L 16.8823,6.2373 L 16.8624,6.4204 L 16.8404,6.6033 L 16.815,6.7857 L 16.7842,6.9672" />
      <path d="M 15.9487,9.2191 L 15.9604,9.1879 L 15.972,9.1566 L 15.9836,9.1253 L 15.9952,9.094 L 16.0068,9.0628 L 16.0184,9.0315 L 16.03,9.0002 L 16.0416,8.9689 L 16.0532,8.9377 L 16.0648,8.9064 L 16.0764,8.8751 L 16.088,8.8438 L 16.0996,8.8125 L 16.1112,8.7813 L 16.1228,8.75 L 16.1344,8.7187 L 16.146,8.6874 L 16.1576,8.6562 L 16.1692,8.6249 L 16.1808,8.5936 L 16.1924,8.5623 L 16.204,8.5311 L 16.2156,8.4998 L 16.2272,8.4685 L 16.2388,8.4372 L 16.2504,8.4059 L 16.262,8.3747 L 16.2736,8.3434 L 16.2852,8.3121 L 16.2968,8.2808 L 16.3084,8.2496 L 16.32,8.2183 L 16.3316,8.187 L 16.3433,8.1557 L 16.3549,8.1245 L 16.3665,8.0932 L 16.3781,8.0619 L 16.3897,8.0306 L 16.4013,7.9993 L 16.4129,7.9681 L 16.4245,7.9368 L 16.4361,7.9055 L 16.4477,7.8742 L 16.4593,7.843 L 16.4709,7.8117 L 16.4825,7.7804 L 16.4941,7.7491 L 16.5057,7.7179 L 16.5173,7.6866 L 16.5289,7.6553 L 16.5405,7.624 L 16.5521,7.5927 L 16.5637,7.5615 L 16.5753,7.5302 L 16.5869,7.4989 L 16.5985,7.4676 L 16.6101,7.4364 L 16.6217,7.4051 L 16.6333,7.3738 L 16.6449,7.3425 L 16.6565,7.3113 L 16.6681,7.28 L 16.6797,7.2487 L 16.6913,7.2174 L 16.7029,7.1861 L 16.7145,7.1549 L 16.7262,7.1236 L 16.7378,7.0923 L 16.7494,7.061 L 16.761,7.0298 L 16.7726,6.9985 L 16.7842,6.9672" />
      <path d="M 18.9525,6.6497 L 18.9231,6.6497 L 18.8937,6.6497 L 18.8643,6.6497 L 18.8349,6.6497 L 18.8054,6.6497 L 18.776,6.6497 L 18.7466,6.6497 L 18.7172,6.6497 L 18.6878,6.6497 L 18.6583,6.6497 L 18.6289,6.6497 L 18.5995,6.6497 L 18.5701,6.6497 L 18.5407,6.6497 L 18.5112,6.6497 L 18.4818,6.6497 L 18.4524,6.6497 L 18.423,6.6497 L 18.3936,6.6497 L 18.3641,6.6497 L 18.3347,6.6497 L 18.3053,6.6497 L 18.2759,6.6497 L 18.2465,6.6497 L 18.217,6.6497 L 18.1876,6.6497 L 18.1582,6.6497 L 18.1288,6.6497 L 18.0994,6.6497 L 18.0699,6.6497 L 18.0405,6.6497 L 18.0111,6.6497 L 17.9817,6.6497 L 17.9523,6.6497 L 17.9228,6.6497 L 17.8934,6.6497 L 17.864,6.6497 L 17.8346,6.6497 L 17.8052,6.6497 L 17.7757,6.6497 L 17.7463,6.6497 L 17.7169,6.6497 L 17.6875,6.6497 L 17.6581,6.6497 L 17.6286,6.6497 L 17.5992,6.6497 L 17.5698,6.6497 L 17.5404,6.6497 L 17.511,6.6497 L 17.4815,6.6497 L 17.4521,6.6497 L 17.4227,6.6497 L 17.3933,6.6497 L 17.3639,6.6497 L 17.3344,6.6497 L 17.305,6.6497 L 17.2756,6.6497 L 17.2462,6.6497 L 17.2168,6.6497 L 17.1873,6.6497 L 17.1579,6.6497 L 17.1285,6.6497 L 17.0991,6.6497 L 17.0697,6.6497 L 17.0402,6.6497 L 17.0108,6.6496 L 16.9814,6.6496 L 16.952,6.6496 L 16.9226,6.6496 L 16.8931,6.6496 L 16.8637,6.6496 L 16.8343,6.6496" />
      <path d="M 16.0567,8.928 L 16.0567,8.9311 L 16.0567,8.9342 L 16.0567,8.9373 L 16.0567,8.9404 L 16.0567,8.9434 L 16.0567,8.9465 L 16.0567,8.9496 L 16.0567,8.9527 L 16.0567,8.9557 L 16.0567,8.9588 L 16.0567,8.9619 L 16.0567,8.965 L 16.0567,8.9681 L 16.0567,8.9711 L 16.0567,8.9742 L 16.0567,8.9773 L 16.0567,8.9804 L 16.0567,8.9834 L 16.0567,8.9865 L 16.0567,8.9896 L 16.0567,8.9927 L 16.0567,8.9958 L 16.0567,8.9988 L 16.0567,9.0019 L 16.0567,9.005 L 16.0567,9.0081 L 16.0567,9.0111 L 16.0567,9.0142 L 16.0567,9.0173 L 16.0567,9.0204 L 16.0567,9.0235 L 16.0567,9.0265 L 16.0567,9.0296 L 16.0567,9.0327 L 16.0567,9.0358 L 16.0567,9.0388 L 16.0567,9.0419 L 16.0567,9.045 L 16.0567,9.0481 L 16.0567,9.0511 L 16.0567,9.0542 L 16.0567,9.0573 L 16.0567,9.0604 L 16.0567,9.0635 L 16.0567,9.0665 L 16.0567,9.0696 L 16.0567,9.0727 L 16.0567,9.0758 L 16.0567,9.0788 L 16.0567,9.0819 L 16.0567,9.085 L 16.0567,9.0881 L 16.0567,9.0912 L 16.0567,9.0942 L 16.0567,9.0973 L 16.0567,9.1004 L 16.0567,9.1035 L 16.0567,9.1065 L 16.0567,9.1096 L 16.0567,9.1127 L 16.0567,9.1158 L 16.0567,9.1189 L 16.0567,9.1219 L 16.0567,9.125 L 16.0567,9.1281 L 16.0567,9.1312 L 16.0567,9.1342 L 16.0567,9.1373 L 16.0567,9.1404 L 16.0567,9.1435 L 16.0567,9.1466 L 16.0567,9.1496" />
      <path d="M 16.0567,9.1496 L 16.0554,9.1496 L 16.0542,9.1495 L 16.0529,9.1494 L 16.0517,9.1491 L 16.0504,9.1489 L 16.0492,9.1485 L 16.048,9.1482 L 16.0468,9.1477 L 16.0456,9.1473 L 16.0445,9.1467 L 16.0433,9.1462 L 16.0422,9.1456 L 16.0411,9.1449 L 16.04,9.1443 L 16.039,9.1435 L 16.038,9.1428 L 16.0369,9.1421 L 16.0359,9.1413 L 16.035,9.1405 L 16.034,9.1396 L 16.0331,9.1388 L 16.0321,9.1379 L 16.0312,9.137 L 16.0303,9.1361 L 16.0295,9.1352 L 16.0286,9.1343 L 16.0277,9.1334 L 16.0269,9.1324 L 16.0261,9.1314 L 16.0253,9.1305 L 16.0245,9.1295 L 16.0237,9.1285 L 16.0229,9.1275 L 16.0221,9.1265 L 16.0214,9.1255 L 16.0206,9.1244 L 16.0199,9.1234 L 16.0192,9.1224 L 16.0185,9.1213 L 16.0178,9.1203 L 16.0171,9.1192 L 16.0164,9.1181 L 16.0157,9.1171 L 16.015,9.116 L 16.0144,9.1149 L 16.0137,9.1138 L 16.0131,9.1127 L 16.0124,9.1116 L 16.0118,9.1105 L 16.0112,9.1094 L 16.0105,9.1083 L 16.0099,9.1072 L 16.0093,9.1061 L 16.0087,9.105 L 16.0081,9.1039 L 16.0075,9.1028 L 16.0069,9.1016 L 16.0063,9.1005 L 16.0058,9.0994 L 16.0052,9.0982 L 16.0046,9.0971 L 16.0041,9.096 L 16.0035,9.0948 L 16.003,9.0937 L 16.0024,9.0925 L 16.0019,9.0914 L 16.0013,9.0902 L 16.0008,9.0891 L 16.0003,9.0879 L 15.9997,9.0868 L 15.9992,9.0856 L 15.9987,9.0845" />
      <path d="M 14.5454,-8.1727 L 14.4459,-7.9738 L 14.3978,-7.7497 L 14.3611,-7.5235 L 14.33,-7.2964 L 14.3026,-7.0689 L 14.2777,-6.841 L 14.2546,-6.613 L 14.2331,-6.3848 L 14.2127,-6.1565 L 14.1933,-5.9282 L 14.1748,-5.6997 L 14.1569,-5.4712 L 14.1397,-5.2427 L 14.123,-5.0141 L 14.1067,-4.7854 L 14.0909,-4.5568 L 14.0754,-4.3281 L 14.0603,-4.0994 L 14.0455,-3.8707 L 14.0309,-3.642 L 14.0166,-3.4132 L 14.0025,-3.1845 L 13.9886,-2.9557 L 13.9749,-2.7269 L 13.9613,-2.4981 L 13.9479,-2.2693 L 13.9346,-2.0405 L 13.9214,-1.8117 L 13.9083,-1.5828 L 13.8953,-1.354 L 13.8824,-1.1252 L 13.8695,-0.8963 L 13.8567,-0.6675 L 13.844,-0.4387 L 13.8313,-0.2098 L 13.8186,0.019 L 13.8059,0.2479 L 13.7933,0.4767 L 13.7806,0.7056 L 13.768,0.9344 L 13.7553,1.1633 L 13.7425,1.3921 L 13.7298,1.621 L 13.717,1.8498 L 13.7041,2.0786 L 13.6912,2.3075 L 13.6781,2.5363 L 13.665,2.7651 L 13.6518,2.9939 L 13.6384,3.2227 L 13.6249,3.4515 L 13.6112,3.6803 L 13.5974,3.9091 L 13.5833,4.1379 L 13.5691,4.3666 L 13.5546,4.5954 L 13.5398,4.8241 L 13.5247,5.0528 L 13.5092,5.2815 L 13.4934,5.5101 L 13.4771,5.7387 L 13.4603,5.9673 L 13.4428,6.1958 L 13.4247,6.4243 L 13.4058,6.6527 L 13.3859,6.8811 L 13.3647,7.1093 L 13.3421,7.3374 L 13.3174,7.5652 L 13.29,7.7928 L 13.2585,8.0198 L 13.2199,8.2457" />
      <path d="M 16.0567,9.1496 L 16.097,9.1496 L 16.1372,9.1496 L 16.1774,9.1496 L 16.2176,9.1496 L 16.2578,9.1496 L 16.2981,9.1496 L 16.3383,9.1496 L 16.3785,9.1496 L 16.4187,9.1496 L 16.4589,9.1496 L 16.4992,9.1496 L 16.5394,9.1496 L 16.5796,9.1496 L 16.6198,9.1496 L 16.66,9.1496 L 16.7002,9.1496 L 16.7405,9.1496 L 16.7807,9.1496 L 16.8209,9.1496 L 16.8611,9.1496 L 16.9013,9.1496 L 16.9416,9.1496 L 16.9818,9.1496 L 17.022,9.1496 L 17.0622,9.1497 L 17.1024,9.1497 L 17.1427,9.1497 L 17.1829,9.1497 L 17.2231,9.1497 L 17.2633,9.1497 L 17.3035,9.1497 L 17.3438,9.1497 L 17.384,9.1497 L 17.4242,9.1497 L 17.4644,9.1497 L 17.5046,9.1497 L 17.5449,9.1497 L 17.5851,9.1497 L 17.6253,9.1497 L 17.6655,9.1497 L 17.7057,9.1497 L 17.746,9.1497 L 17.7862,9.1497 L 17.8264,9.1497 L 17.8666,9.1497 L 17.9068,9.1497 L 17.9471,9.1497 L 17.9873,9.1497 L 18.0275,9.1497 L 18.0677,9.1497 L 18.1079,9.1497 L 18.1481,9.1497 L 18.1884,9.1497 L 18.2286,9.1497 L 18.2688,9.1497 L 18.309,9.1497 L 18.3492,9.1497 L 18.3895,9.1497 L 18.4297,9.1497 L 18.4699,9.1497 L 18.5101,9.1497 L 18.5503,9.1497 L 18.5906,9.1497 L 18.6308,9.1497 L 18.671,9.1497 L 18.7112,9.1497 L 18.7514,9.1497 L 18.7917,9.1497 L 18.8319,9.1497 L 18.8721,9.1497 L 18.9123,9.1497 L 18.9525,9.1497" />
      <path d="M 13.2199,8.2457 L 13.2578,8.2592 L 13.2957,8.2727 L 13.3336,8.2863 L 13.3715,8.2998 L 13.4094,8.3133 L 13.4473,8.3268 L 13.4852,8.3403 L 13.5231,8.3539 L 13.561,8.3674 L 13.5989,8.3809 L 13.6368,8.3944 L 13.6747,8.4079 L 13.7126,8.4215 L 13.7505,8.435 L 13.7884,8.4485 L 13.8263,8.462 L 13.8642,8.4755 L 13.9021,8.4891 L 13.94,8.5026 L 13.9779,8.5161 L 14.0158,8.5296 L 14.0537,8.5431 L 14.0916,8.5567 L 14.1295,8.5702 L 14.1674,8.5837 L 14.2053,8.5972 L 14.2432,8.6107 L 14.2811,8.6243 L 14.319,8.6378 L 14.3569,8.6513 L 14.3948,8.6648 L 14.4327,8.6783 L 14.4706,8.6919 L 14.5085,8.7054 L 14.5464,8.7189 L 14.5843,8.7324 L 14.6222,8.7459 L 14.6601,8.7595 L 14.698,8.773 L 14.7359,8.7865 L 14.7738,8.8 L 14.8117,8.8135 L 14.8496,8.8271 L 14.8875,8.8406 L 14.9254,8.8541 L 14.9633,8.8676 L 15.0012,8.8811 L 15.0391,8.8947 L 15.077,8.9082 L 15.1149,8.9217 L 15.1528,8.9352 L 15.1907,8.9487 L 15.2286,8.9623 L 15.2665,8.9758 L 15.3044,8.9893 L 15.3423,9.0028 L 15.3802,9.0163 L 15.4181,9.0299 L 15.456,9.0434 L 15.4939,9.0569 L 15.5318,9.0704 L 15.5697,9.0839 L 15.6076,9.0975 L 15.6455,9.111 L 15.6834,9.1245 L 15.7213,9.138 L 15.7592,9.1515 L 15.7971,9.1651 L 15.835,9.1786 L 15.8729,9.1921 L 15.9108,9.2056 L 15.9487,9.2191" />
      <path d="M 17.573,-8.1733 L 17.5784,-8.1412 L 17.5839,-8.1091 L 17.5894,-8.077 L 17.5948,-8.0448 L 17.6003,-8.0127 L 17.6057,-7.9806 L 17.6112,-7.9485 L 17.6167,-7.9163 L 17.6221,-7.8842 L 17.6276,-7.8521 L 17.633,-7.82 L 17.6385,-7.7879 L 17.644,-7.7557 L 17.6494,-7.7236 L 17.6549,-7.6915 L 17.6604,-7.6594 L 17.6658,-7.6273 L 17.6713,-7.5951 L 17.6767,-7.563 L 17.6822,-7.5309 L 17.6877,-7.4988 L 17.6931,-7.4666 L 17.6986,-7.4345 L 17.704,-7.4024 L 17.7095,-7.3703 L 17.715,-7.3382 L 17.7204,-7.306 L 17.7259,-7.2739 L 17.7313,-7.2418 L 17.7368,-7.2097 L 17.7423,-7.1775 L 17.7477,-7.1454 L 17.7532,-7.1133 L 17.7586,-7.0812 L 17.7641,-7.0491 L 17.7696,-7.0169 L 17.775,-6.9848 L 17.7805,-6.9527 L 17.786,-6.9206 L 17.7914,-6.8885 L 17.7969,-6.8563 L 17.8023,-6.8242 L 17.8078,-6.7921 L 17.8133,-6.76 L 17.8187,-6.7278 L 17.8242,-6.6957 L 17.8296,-6.6636 L 17.8351,-6.6315 L 17.8406,-6.5994 L 17.846,-6.5672 L 17.8515,-6.5351 L 17.857,-6.503 L 17.8624,-6.4709 L 17.8679,-6.4388 L 17.8733,-6.4066 L 17.8788,-6.3745 L 17.8843,-6.3424 L 17.8897,-6.3103 L 17.8952,-6.2781 L 17.9006,-6.246 L 17.9061,-6.2139 L 17.9116,-6.1818 L 17.917,-6.1497 L 17.9225,-6.1175 L 17.9279,-6.0854 L 17.9334,-6.0533 L 17.9389,-6.0212 L 17.9443,-5.989 L 17.9498,-5.9569 L 17.9553,-5.9248 L 17.9607,-5.8927 L 17.9662,-5.8606" />
      <path d="M 16.9503,6.6496 L 16.9487,6.6496 L 16.9471,6.6496 L 16.9455,6.6496 L 16.9439,6.6496 L 16.9423,6.6496 L 16.9407,6.6496 L 16.939,6.6496 L 16.9374,6.6496 L 16.9358,6.6496 L 16.9342,6.6496 L 16.9326,6.6496 L 16.931,6.6496 L 16.9294,6.6496 L 16.9278,6.6496 L 16.9262,6.6496 L 16.9245,6.6496 L 16.9229,6.6496 L 16.9213,6.6496 L 16.9197,6.6496 L 16.9181,6.6496 L 16.9165,6.6496 L 16.9149,6.6496 L 16.9133,6.6496 L 16.9117,6.6496 L 16.91,6.6496 L 16.9084,6.6496 L 16.9068,6.6496 L 16.9052,6.6496 L 16.9036,6.6496 L 16.902,6.6496 L 16.9004,6.6496 L 16.8988,6.6496 L 16.8972,6.6496 L 16.8955,6.6496 L 16.8939,6.6496 L 16.8923,6.6496 L 16.8907,6.6496 L 16.8891,6.6496 L 16.8875,6.6496 L 16.8859,6.6496 L 16.8843,6.6496 L 16.8826,6.6496 L 16.881,6.6496 L 16.8794,6.6496 L 16.8778,6.6496 L 16.8762,6.6496 L 16.8746,6.6496 L 16.873,6.6496 L 16.8714,6.6496 L 16.8698,6.6496 L 16.8681,6.6496 L 16.8665,6.6496 L 16.8649,6.6496 L 16.8633,6.6496 L 16.8617,6.6496 L 16.8601,6.6496 L 16.8585,6.6496 L 16.8569,6.6496 L 16.8553,6.6496 L 16.8536,6.6496 L 16.852,6.6496 L 16.8504,6.6496 L 16.8488,6.6496 L 16.8472,6.6496 L 16.8456,6.6496 L 16.844,6.6496 L 16.8424,6.6496 L 16.8408,6.6496 L 16.8391,6.6496 L 16.8375,6.6496 L 16.8359,6.6496 L 16.8343,6.6496" />
      <path d="M 16.0567,9.1496 L 16.097,9.1496 L 16.1372,9.1496 L 16.1774,9.1496 L 16.2176,9.1496 L 16.2578,9.1496 L 16.298,9.1496 L 16.3382,9.1496 L 16.3785,9.1496 L 16.4187,9.1496 L 16.4589,9.1496 L 16.4991,9.1496 L 16.5393,9.1496 L 16.5795,9.1496 L 16.6198,9.1496 L 16.66,9.1496 L 16.7002,9.1496 L 16.7404,9.1496 L 16.7806,9.1496 L 16.8208,9.1496 L 16.861,9.1496 L 16.9013,9.1496 L 16.9415,9.1496 L 16.9817,9.1496 L 17.0219,9.1496 L 17.0621,9.1497 L 17.1023,9.1497 L 17.1426,9.1497 L 17.1828,9.1497 L 17.223,9.1497 L 17.2632,9.1497 L 17.3034,9.1497 L 17.3436,9.1497 L 17.3838,9.1497 L 17.4241,9.1497 L 17.4643,9.1497 L 17.5045,9.1497 L 17.5447,9.1497 L 17.5849,9.1497 L 17.6251,9.1497 L 17.6653,9.1497 L 17.7056,9.1497 L 17.7458,9.1497 L 17.786,9.1497 L 17.8262,9.1497 L 17.8664,9.1497 L 17.9066,9.1497 L 17.9469,9.1497 L 17.9871,9.1497 L 18.0273,9.1497 L 18.0675,9.1497 L 18.1077,9.1497 L 18.1479,9.1497 L 18.1881,9.1497 L 18.2284,9.1497 L 18.2686,9.1497 L 18.3088,9.1497 L 18.349,9.1497 L 18.3892,9.1497 L 18.4294,9.1497 L 18.4697,9.1497 L 18.5099,9.1497 L 18.5501,9.1497 L 18.5903,9.1497 L 18.6305,9.1497 L 18.6707,9.1497 L 18.7109,9.1497 L 18.7512,9.1497 L 18.7914,9.1497 L 18.8316,9.1497 L 18.8718,9.1497 L 18.912,9.1497 L 18.9522,9.1497" />
      <path d="M 14.5454,-8.1727 L 14.585,-8.1799 L 14.6245,-8.187 L 14.6641,-8.1942 L 14.7037,-8.2013 L 14.7432,-8.2085 L 14.7828,-8.2156 L 14.8224,-8.2228 L 14.8619,-8.2299 L 14.9015,-8.2371 L 14.9411,-8.2442 L 14.9806,-8.2514 L 15.0202,-8.2585 L 15.0598,-8.2657 L 15.0993,-8.2728 L 15.1389,-8.28 L 15.1785,-8.2871 L 15.218,-8.2942 L 15.2576,-8.3014 L 15.2972,-8.3085 L 15.3367,-8.3157 L 15.3763,-8.3228 L 15.4159,-8.33 L 15.4554,-8.3371 L 15.495,-8.3443 L 15.5346,-8.3514 L 15.5742,-8.3586 L 15.6137,-8.3657 L 15.6533,-8.3729 L 15.6929,-8.38 L 15.7324,-8.3872 L 15.772,-8.3943 L 15.8116,-8.4014 L 15.8511,-8.4086 L 15.8907,-8.4157 L 15.9303,-8.4229 L 15.9698,-8.43 L 16.0094,-8.4372 L 16.049,-8.4443 L 16.0885,-8.4515 L 16.1281,-8.4586 L 16.1677,-8.4658 L 16.2072,-8.4729 L 16.2468,-8.4801 L 16.2864,-8.4872 L 16.3259,-8.4944 L 16.3655,-8.5015 L 16.4051,-8.5087 L 16.4446,-8.5158 L 16.4842,-8.5229 L 16.5238,-8.5301 L 16.5633,-8.5372 L 16.6029,-8.5444 L 16.6425,-8.5515 L 16.682,-8.5587 L 16.7216,-8.5658 L 16.7612,-8.573 L 16.8007,-8.5801 L 16.8403,-8.5873 L 16.8799,-8.5944 L 16.9194,-8.6016 L 16.959,-8.6087 L 16.9986,-8.6159 L 17.0381,-8.623 L 17.0777,-8.6301 L 17.1173,-8.6373 L 17.1569,-8.6444 L 17.1964,-8.6516 L 17.236,-8.6587 L 17.2756,-8.6659 L 17.3151,-8.673 L 17.3547,-8.6802 L 17.3943,-8.6873" />
    </g>
    <g fill="none" stroke="rgb(110,110,110)" stroke-width="0.3" id="Hidden" stroke-dasharray="3.6 0.9">
      <path d="M 9.1506,0.0311 L 9.1159,0.0311 L 9.0812,0.0311 L 9.0465,0.0311 L 9.0117,0.0311 L 8.977,0.0311 L 8.9423,0.0311 L 8.9076,0.0311 L 8.8728,0.0311 L 8.8381,0.0311 L 8.8034,0.0311 L 8.7687,0.0311 L 8.734,0.0311 L 8.6992,0.0311 L 8.6645,0.0311 L 8.6298,0.0311 L 8.5951,0.0311 L 8.5603,0.0311 L 8.5256,0.0311 L 8.4909,0.0311 L 8.4562,0.0311 L 8.4215,0.0311 L 8.3867,0.0311 L 8.352,0.0311 L 8.3173,0.0311 L 8.2826,0.0311 L 8.2478,0.0311 L 8.2131,0.0311 L 8.1784,0.0311 L 8.1437,0.0311 L 8.109,0.0311 L 8.0742,0.0311 L 8.0395,0.0311 L 8.0048,0.0311 L 7.9701,0.0311 L 7.9353,0.0311 L 7.9006,0.0311 L 7.8659,0.0311 L 7.8312,0.0311 L 7.7965,0.0311 L 7.7617,0.0311 L 7.727,0.0311 L 7.6923,0.0311 L 7.6576,0.0311 L 7.6228,0.0311 L 7.5881,0.0311 L 7.5534,0.0311 L 7.5187,0.0311 L 7.484,0.0311 L 7.4492,0.0311 L 7.4145,0.0311 L 7.3798,0.0311 L 7.3451,0.0311 L 7.3103,0.0311 L 7.2756,0.0311 L 7.2409,0.0311 L 7.2062,0.0311 L 7.1715,0.0311 L 7.1367,0.0311 L 7.102,0.0311 L 7.0673,0.0311 L 7.0326,0.0311 L 6.9978,0.0311 L 6.9631,0.0311 L 6.9284,0.0311 L 6.8937,0.0311 L 6.859,0.0311 L 6.8242,0.0311 L 6.7895,0.0311 L 6.7548,0.0311 L 6.7201,0.0311 L 6.6853,0.0311 L 6.6506,0.0311" />
      <path d="M 6.6506,0.0311 L 6.627,0.5784 L 6.5561,1.1216 L 6.4383,1.6567 L 6.2747,2.1795 L 6.0665,2.6863 L 5.8154,3.1731 L 5.5231,3.6365 L 5.1921,4.0731 L 4.8247,4.4795 L 4.4238,4.8528 L 3.9923,5.1904 L 3.5334,5.4897 L 3.0506,5.7486 L 2.5474,5.9653 L 2.0276,6.1382 L 1.4949,6.2661 L 0.9532,6.3481 L 0.4065,6.3838 L -0.1412,6.3727 L -0.6861,6.3152 L -1.224,6.2117 L -1.7513,6.0629 L -2.2641,5.8701 L -2.7587,5.6346 L -3.2317,5.3581 L -3.6797,5.0427 L -4.0995,4.6907 L -4.4882,4.3047 L -4.8431,3.8873 L -5.1617,3.4416 L -5.4417,2.9707 L -5.6814,2.478 L -5.879,1.9671 L -6.0332,1.4414 L -6.143,0.9046 L -6.2076,0.3606 L -6.2267,-0.187 L -6.2002,-0.7342 L -6.1283,-1.2773 L -6.0117,-1.8126 L -5.851,-2.3364 L -5.6475,-2.845 L -5.4027,-3.3351 L -5.1182,-3.8034 L -4.7961,-4.2465 L -4.4386,-4.6616 L -4.0481,-5.0459 L -3.6273,-5.3968 L -3.1791,-5.7119 L -2.7067,-5.9892 L -2.213,-6.2269 L -1.7016,-6.4234 L -1.1759,-6.5774 L -0.6393,-6.6881 L -0.0955,-6.7545 L 0.452,-6.7765 L 0.9994,-6.7539 L 1.5431,-6.6869 L 2.0797,-6.576 L 2.6054,-6.422 L 3.117,-6.2259 L 3.6111,-5.9891 L 4.0844,-5.7132 L 4.5339,-5.4 L 4.9567,-5.0516 L 5.3501,-4.6703 L 5.7116,-4.2586 L 6.0389,-3.8193 L 6.3299,-3.355 L 6.5827,-2.869 L 6.7959,-2.3643 L 6.968,-1.8442" />
      <path d="M 6.6506,0.0311 L 6.6506,0.0288 L 6.6506,0.0266 L 6.6506,0.0244 L 6.6506,0.0222 L 6.6505,0.02 L 6.6505,0.0178 L 6.6505,0.0155 L 6.6505,0.0133 L 6.6505,0.0111 L 6.6505,0.0089 L 6.6505,0.0067 L 6.6505,0.0045 L 6.6504,0.0022 L 6.6504,0.0 L 6.6504,-0.0022 L 6.6504,-0.0044 L 6.6504,-0.0066 L 6.6504,-0.0088 L 6.6504,-0.0111 L 6.6503,-0.0133 L 6.6503,-0.0155 L 6.6503,-0.0177 L 6.6503,-0.0199 L 6.6503,-0.0221 L 6.6503,-0.0243 L 6.6503,-0.0266 L 6.6502,-0.0288 L 6.6502,-0.031 L 6.6502,-0.0332 L 6.6502,-0.0354 L 6.6502,-0.0376 L 6.6502,-0.0399 L 6.6502,-0.0421 L 6.6501,-0.0443 L 6.6501,-0.0465 L 6.6501,-0.0487 L 6.6501,-0.0509 L 6.6501,-0.0532 L 6.6501,-0.0554 L 6.6501,-0.0576 L 6.65,-0.0598 L 6.65,-0.062 L 6.65,-0.0642 L 6.65,-0.0665 L 6.65,-0.0687 L 6.65,-0.0709 L 6.65,-0.0731 L 6.6499,-0.0753 L 6.6499,-0.0775 L 6.6499,-0.0797 L 6.6499,-0.082 L 6.6499,-0.0842 L 6.6499,-0.0864 L 6.6499,-0.0886 L 6.6498,-0.0908 L 6.6498,-0.093 L 6.6498,-0.0953 L 6.6498,-0.0975 L 6.6498,-0.0997 L 6.6498,-0.1019 L 6.6498,-0.1041 L 6.6497,-0.1063 L 6.6497,-0.1086 L 6.6497,-0.1108 L 6.6497,-0.113 L 6.6497,-0.1152 L 6.6497,-0.1174 L 6.6497,-0.1196 L 6.6496,-0.1219 L 6.6496,-0.1241 L 6.6496,-0.1263 L 6.6496,-0.1285" />
      <path d="M 18.9519,9.1497 L 18.8482,8.9411 L 18.7999,8.7042 L 18.7629,8.4653 L 18.7316,8.2255 L 18.7039,7.9853 L 18.6787,7.7448 L 18.6554,7.5041 L 18.6336,7.2633 L 18.6129,7.0224 L 18.5932,6.7814 L 18.5743,6.5403 L 18.5561,6.2992 L 18.5385,6.058 L 18.5214,5.8168 L 18.5048,5.5756 L 18.4885,5.3343 L 18.4727,5.093 L 18.4571,4.8517 L 18.4418,4.6104 L 18.4268,4.3691 L 18.412,4.1277 L 18.3974,3.8863 L 18.383,3.645 L 18.3688,3.4036 L 18.3547,3.1622 L 18.3407,2.9208 L 18.3268,2.6794 L 18.3131,2.4379 L 18.2994,2.1965 L 18.2858,1.9551 L 18.2723,1.7137 L 18.2588,1.4722 L 18.2453,1.2308 L 18.2319,0.9894 L 18.2185,0.7479 L 18.2051,0.5065 L 18.1918,0.265 L 18.1784,0.0236 L 18.165,-0.2178 L 18.1515,-0.4593 L 18.1381,-0.7007 L 18.1246,-0.9421 L 18.111,-1.1836 L 18.0973,-1.425 L 18.0836,-1.6664 L 18.0698,-1.9078 L 18.0559,-2.1492 L 18.0418,-2.3906 L 18.0276,-2.632 L 18.0133,-2.8734 L 17.9988,-3.1148 L 17.9841,-3.3561 L 17.9693,-3.5975 L 17.9542,-3.8388 L 17.9388,-4.0801 L 17.9232,-4.3214 L 17.9073,-4.5627 L 17.891,-4.804 L 17.8743,-5.0452 L 17.8573,-5.2864 L 17.8397,-5.5276 L 17.8216,-5.7687 L 17.8029,-6.0098 L 17.7834,-6.2508 L 17.7632,-6.4918 L 17.7419,-6.7327 L 17.7194,-6.9734 L 17.6955,-7.214 L 17.6697,-7.4545 L 17.6415,-7.6946 L 17.6098,-7.9343 L 17.573,-8.1733" />
      <path d="M 18.9525,6.6497 L 18.9524,6.6497 L 18.9523,6.6497" />
      <path d="M 18.9523,6.6497 L 18.9522,6.6497 L 18.9521,6.6497 L 18.952,6.6497" />
      <path d="M 16.8343,6.6496 L 16.8257,6.6496 L 16.8171,6.6496 L 16.8085,6.6496 L 16.7999,6.6496 L 16.7912,6.6496 L 16.7826,6.6496 L 16.774,6.6496 L 16.7654,6.6496 L 16.7568,6.6496 L 16.7482,6.6496 L 16.7396,6.6496 L 16.7309,6.6496 L 16.7223,6.6496 L 16.7137,6.6496 L 16.7051,6.6496 L 16.6965,6.6496 L 16.6879,6.6496 L 16.6793,6.6496 L 16.6706,6.6496 L 16.662,6.6496 L 16.6534,6.6496 L 16.6448,6.6496 L 16.6362,6.6496 L 16.6276,6.6496 L 16.619,6.6496 L 16.6104,6.6496 L 16.6017,6.6496 L 16.5931,6.6496 L 16.5845,6.6496 L 16.5759,6.6496 L 16.5673,6.6496 L 16.5587,6.6496 L 16.5501,6.6496 L 16.5414,6.6496 L 16.5328,6.6496 L 16.5242,6.6496 L 16.5156,6.6496 L 16.507,6.6496 L 16.4984,6.6496 L 16.4898,6.6496 L 16.4811,6.6496 L 16.4725,6.6496 L 16.4639,6.6496 L 16.4553,6.6496 L 16.4467,6.6496 L 16.4381,6.6496 L 16.4295,6.6496 L 16.4209,6.6496 L 16.4122,6.6496 L 16.4036,6.6496 L 16.395,6.6496 L 16.3864,6.6496 L 16.3778,6.6496 L 16.3692,6.6496 L 16.3606,6.6496 L 16.3519,6.6496 L 16.3433,6.6496 L 16.3347,6.6496 L 16.3261,6.6496 L 16.3175,6.6496 L 16.3089,6.6496 L 16.3003,6.6496 L 16.2916,6.6496 L 16.283,6.6496 L 16.2744,6.6496 L 16.2658,6.6496 L 16.2572,6.6496 L 16.2486,6.6496 L 16.24,6.6496 L 16.2314,6.6496 L 16.2227,6.6496 L 16.2141,6.6496" />
      <path d="M 16.2141,6.6496 L 16.2119,6.6496 L 16.2098,6.6496 L 16.2076,6.6496 L 16.2054,6.6496 L 16.2032,6.6496 L 16.201,6.6496 L 16.1988,6.6496 L 16.1966,6.6496 L 16.1945,6.6496 L 16.1923,6.6496 L 16.1901,6.6496 L 16.1879,6.6496 L 16.1857,6.6496 L 16.1835,6.6496 L 16.1813,6.6496 L 16.1792,6.6496 L 16.177,6.6496 L 16.1748,6.6496 L 16.1726,6.6496 L 16.1704,6.6496 L 16.1682,6.6496 L 16.166,6.6496 L 16.1638,6.6496 L 16.1617,6.6496 L 16.1595,6.6496 L 16.1573,6.6496 L 16.1551,6.6496 L 16.1529,6.6496 L 16.1507,6.6496 L 16.1485,6.6496 L 16.1464,6.6496 L 16.1442,6.6496 L 16.142,6.6496 L 16.1398,6.6496 L 16.1376,6.6496 L 16.1354,6.6496 L 16.1332,6.6496 L 16.1311,6.6496 L 16.1289,6.6496 L 16.1267,6.6496 L 16.1245,6.6496 L 16.1223,6.6496 L 16.1201,6.6496 L 16.1179,6.6496 L 16.1158,6.6496 L 16.1136,6.6496 L 16.1114,6.6496 L 16.1092,6.6496 L 16.107,6.6496 L 16.1048,6.6496 L 16.1026,6.6496 L 16.1005,6.6496 L 16.0983,6.6496 L 16.0961,6.6496 L 16.0939,6.6496 L 16.0917,6.6496 L 16.0895,6.6496 L 16.0873,6.6496 L 16.0852,6.6496 L 16.083,6.6496 L 16.0808,6.6496 L 16.0786,6.6496 L 16.0764,6.6496 L 16.0742,6.6496 L 16.072,6.6496 L 16.0699,6.6496 L 16.0677,6.6496 L 16.0655,6.6496 L 16.0633,6.6496 L 16.0611,6.6496 L 16.0589,6.6496 L 16.0567,6.6496" />
      <path d="M 16.0567,6.6496 L 15.9844,6.5052 L 15.9507,6.3408 L 15.9249,6.175 L 15.9032,6.0085 L 15.884,5.8418 L 15.8665,5.6749 L 15.8503,5.5078 L 15.8352,5.3407 L 15.8208,5.1735 L 15.8072,5.0062 L 15.7941,4.8388 L 15.7815,4.6715 L 15.7693,4.5041 L 15.7575,4.3367 L 15.746,4.1692 L 15.7348,4.0017 L 15.7238,3.8343 L 15.7131,3.6668 L 15.7026,3.4993 L 15.6922,3.3317 L 15.682,3.1642 L 15.6719,2.9967 L 15.662,2.8291 L 15.6522,2.6616 L 15.6425,2.494 L 15.6329,2.3265 L 15.6233,2.1589 L 15.6139,1.9913 L 15.6045,1.8237 L 15.5951,1.6562 L 15.5858,1.4886 L 15.5765,1.321 L 15.5673,1.1534 L 15.5581,0.9858 L 15.5489,0.8182 L 15.5397,0.6506 L 15.5306,0.4831 L 15.5214,0.3155 L 15.5122,0.1479 L 15.503,-0.0197 L 15.4937,-0.1873 L 15.4845,-0.3549 L 15.4752,-0.5225 L 15.4658,-0.69 L 15.4564,-0.8576 L 15.447,-1.0252 L 15.4375,-1.1928 L 15.4279,-1.3603 L 15.4182,-1.5279 L 15.4084,-1.6954 L 15.3985,-1.863 L 15.3884,-2.0305 L 15.3783,-2.198 L 15.368,-2.3656 L 15.3575,-2.5331 L 15.3468,-2.7006 L 15.3359,-2.8681 L 15.3248,-3.0355 L 15.3135,-3.203 L 15.3018,-3.3704 L 15.2898,-3.5378 L 15.2775,-3.7052 L 15.2647,-3.8726 L 15.2515,-4.0399 L 15.2376,-4.2072 L 15.2231,-4.3744 L 15.2078,-4.5415 L 15.1914,-4.7086 L 15.1738,-4.8755 L 15.1544,-5.0422 L 15.1327,-5.2086 L 15.1072,-5.3745" />
      <path d="M 15.1072,-5.3745 L 15.1063,-5.3796 L 15.1055,-5.3846 L 15.1046,-5.3897 L 15.1037,-5.3948 L 15.1028,-5.3998 L 15.1019,-5.4049 L 15.101,-5.41 L 15.1001,-5.415 L 15.0992,-5.4201 L 15.0982,-5.4251 L 15.0973,-5.4302 L 15.0964,-5.4353 L 15.0954,-5.4403 L 15.0945,-5.4454 L 15.0935,-5.4504 L 15.0925,-5.4555 L 15.0915,-5.4605 L 15.0905,-5.4656 L 15.0895,-5.4706 L 15.0885,-5.4756 L 15.0875,-5.4807 L 15.0865,-5.4857 L 15.0854,-5.4908 L 15.0844,-5.4958 L 15.0833,-5.5008 L 15.0822,-5.5059 L 15.0811,-5.5109 L 15.08,-5.5159 L 15.0789,-5.5209 L 15.0778,-5.5259 L 15.0766,-5.531 L 15.0754,-5.536 L 15.0743,-5.541 L 15.0731,-5.546 L 15.0719,-5.551 L 15.0706,-5.556 L 15.0694,-5.561 L 15.0681,-5.5659 L 15.0668,-5.5709 L 15.0655,-5.5759 L 15.0642,-5.5809 L 15.0628,-5.5858 L 15.0615,-5.5908 L 15.0601,-5.5957 L 15.0586,-5.6007 L 15.0572,-5.6056 L 15.0557,-5.6105 L 15.0542,-5.6154 L 15.0526,-5.6203 L 15.051,-5.6252 L 15.0494,-5.6301 L 15.0477,-5.635 L 15.046,-5.6398 L 15.0442,-5.6446 L 15.0424,-5.6494 L 15.0405,-5.6542 L 15.0385,-5.659 L 15.0365,-5.6637 L 15.0344,-5.6684 L 15.0321,-5.673 L 15.0298,-5.6776 L 15.0274,-5.6822 L 15.0248,-5.6866 L 15.0221,-5.691 L 15.0191,-5.6952 L 15.016,-5.6992 L 15.0125,-5.7031 L 15.0087,-5.7065 L 15.0045,-5.7095 L 14.9999,-5.7117 L 14.9949,-5.7128 L 14.9898,-5.7126" />
      <path d="M 14.9898,-5.7126 L 14.9195,-5.5703 L 14.8856,-5.4105 L 14.8597,-5.2492 L 14.8379,-5.0873 L 14.8185,-4.925 L 14.801,-4.7626 L 14.7848,-4.6 L 14.7696,-4.4373 L 14.7552,-4.2745 L 14.7415,-4.1117 L 14.7285,-3.9488 L 14.7159,-3.7859 L 14.7037,-3.6229 L 14.692,-3.46 L 14.6805,-3.297 L 14.6694,-3.1339 L 14.6585,-2.9709 L 14.6478,-2.8079 L 14.6374,-2.6448 L 14.6271,-2.4817 L 14.617,-2.3186 L 14.6071,-2.1555 L 14.5973,-1.9924 L 14.5876,-1.8293 L 14.578,-1.6662 L 14.5686,-1.5031 L 14.5592,-1.3399 L 14.5499,-1.1768 L 14.5407,-1.0137 L 14.5315,-0.8505 L 14.5224,-0.6874 L 14.5134,-0.5242 L 14.5044,-0.3611 L 14.4954,-0.1979 L 14.4864,-0.0348 L 14.4775,0.1284 L 14.4685,0.2916 L 14.4596,0.4547 L 14.4507,0.6179 L 14.4418,0.781 L 14.4328,0.9442 L 14.4239,1.1073 L 14.4149,1.2705 L 14.4058,1.4336 L 14.3967,1.5968 L 14.3876,1.7599 L 14.3784,1.9231 L 14.3692,2.0862 L 14.3598,2.2493 L 14.3504,2.4125 L 14.3409,2.5756 L 14.3313,2.7387 L 14.3215,2.9018 L 14.3116,3.0649 L 14.3015,3.228 L 14.2913,3.3911 L 14.2809,3.5542 L 14.2702,3.7172 L 14.2593,3.8803 L 14.2482,4.0433 L 14.2367,4.2063 L 14.2248,4.3692 L 14.2125,4.5322 L 14.1998,4.6951 L 14.1864,4.8579 L 14.1724,5.0207 L 14.1575,5.1834 L 14.1415,5.3461 L 14.1241,5.5085 L 14.1048,5.6708 L 14.0825,5.8327 L 14.0553,5.9938" />
      <path d="M 16.7842,6.9672 L 16.7463,6.9537 L 16.7084,6.9402 L 16.6705,6.9266 L 16.6326,6.9131 L 16.5947,6.8996 L 16.5568,6.8861 L 16.5189,6.8726 L 16.481,6.859 L 16.4431,6.8455 L 16.4052,6.832 L 16.3673,6.8185 L 16.3294,6.805 L 16.2915,6.7914 L 16.2536,6.7779 L 16.2157,6.7644 L 16.1778,6.7509 L 16.1399,6.7374 L 16.102,6.7238 L 16.0641,6.7103 L 16.0262,6.6968 L 15.9883,6.6833 L 15.9504,6.6698 L 15.9125,6.6562 L 15.8746,6.6427 L 15.8367,6.6292 L 15.7988,6.6157 L 15.7609,6.6022 L 15.723,6.5886 L 15.6851,6.5751 L 15.6472,6.5616 L 15.6093,6.5481 L 15.5714,6.5346 L 15.5335,6.521 L 15.4956,6.5075 L 15.4577,6.494 L 15.4198,6.4805 L 15.3819,6.467 L 15.344,6.4534 L 15.3061,6.4399 L 15.2682,6.4264 L 15.2303,6.4129 L 15.1924,6.3994 L 15.1545,6.3858 L 15.1166,6.3723 L 15.0787,6.3588 L 15.0408,6.3453 L 15.0029,6.3318 L 14.965,6.3182 L 14.9271,6.3047 L 14.8892,6.2912 L 14.8513,6.2777 L 14.8134,6.2642 L 14.7755,6.2506 L 14.7376,6.2371 L 14.6997,6.2236 L 14.6618,6.2101 L 14.6238,6.1966 L 14.5859,6.183 L 14.548,6.1695 L 14.5101,6.156 L 14.4722,6.1425 L 14.4343,6.129 L 14.3964,6.1154 L 14.3585,6.1019 L 14.3206,6.0884 L 14.2827,6.0749 L 14.2448,6.0614 L 14.2069,6.0478 L 14.169,6.0343 L 14.1311,6.0208 L 14.0932,6.0073 L 14.0553,5.9938" />
      <path d="M 16.0567,6.6496 L 16.0567,6.6813 L 16.0567,6.7129 L 16.0567,6.7446 L 16.0567,6.7762 L 16.0567,6.8079 L 16.0567,6.8395 L 16.0567,6.8711 L 16.0567,6.9028 L 16.0567,6.9344 L 16.0567,6.9661 L 16.0567,6.9977 L 16.0567,7.0294 L 16.0567,7.061 L 16.0567,7.0927 L 16.0567,7.1243 L 16.0567,7.1559 L 16.0567,7.1876 L 16.0567,7.2192 L 16.0567,7.2509 L 16.0567,7.2825 L 16.0567,7.3142 L 16.0567,7.3458 L 16.0567,7.3775 L 16.0567,7.4091 L 16.0567,7.4407 L 16.0567,7.4724 L 16.0567,7.504 L 16.0567,7.5357 L 16.0567,7.5673 L 16.0567,7.599 L 16.0567,7.6306 L 16.0567,7.6623 L 16.0567,7.6939 L 16.0567,7.7255 L 16.0567,7.7572 L 16.0567,7.7888 L 16.0567,7.8205 L 16.0567,7.8521 L 16.0567,7.8838 L 16.0567,7.9154 L 16.0567,7.9471 L 16.0567,7.9787 L 16.0567,8.0104 L 16.0567,8.042 L 16.0567,8.0736 L 16.0567,8.1053 L 16.0567,8.1369 L 16.0567,8.1686 L 16.0567,8.2002 L 16.0567,8.2319 L 16.0567,8.2635 L 16.0567,8.2952 L 16.0567,8.3268 L 16.0567,8.3584 L 16.0567,8.3901 L 16.0567,8.4217 L 16.0567,8.4534 L 16.0567,8.485 L 16.0567,8.5167 L 16.0567,8.5483 L 16.0567,8.58 L 16.0567,8.6116 L 16.0567,8.6432 L 16.0567,8.6749 L 16.0567,8.7065 L 16.0567,8.7382 L 16.0567,8.7698 L 16.0567,8.8015 L 16.0567,8.8331 L 16.0567,8.8648 L 16.0567,8.8964 L 16.0567,8.928" />
      <path d="M 15.9987,9.0845 L 15.9342,8.8602 L 15.8922,8.6302 L 15.8585,8.3989 L 15.8294,8.1669 L 15.8033,7.9346 L 15.7795,7.7021 L 15.7573,7.4694 L 15.7364,7.2365 L 15.7166,7.0036 L 15.6976,6.7706 L 15.6795,6.5375 L 15.662,6.3044 L 15.645,6.0713 L 15.6285,5.8381 L 15.6125,5.6049 L 15.5968,5.3716 L 15.5815,5.1383 L 15.5664,4.9051 L 15.5517,4.6718 L 15.5372,4.4384 L 15.5229,4.2051 L 15.5087,3.9718 L 15.4948,3.7384 L 15.481,3.505 L 15.4674,3.2717 L 15.4539,3.0383 L 15.4405,2.8049 L 15.4272,2.5715 L 15.414,2.3381 L 15.4008,2.1047 L 15.3877,1.8713 L 15.3747,1.6379 L 15.3617,1.4045 L 15.3487,1.1711 L 15.3358,0.9377 L 15.3229,0.7042 L 15.31,0.4708 L 15.297,0.2374 L 15.2841,0.004 L 15.2711,-0.2294 L 15.2581,-0.4628 L 15.2451,-0.6962 L 15.232,-0.9296 L 15.2188,-1.163 L 15.2055,-1.3964 L 15.1922,-1.6298 L 15.1788,-1.8632 L 15.1652,-2.0966 L 15.1516,-2.33 L 15.1378,-2.5633 L 15.1238,-2.7967 L 15.1097,-3.03 L 15.0953,-3.2633 L 15.0808,-3.4967 L 15.066,-3.73 L 15.051,-3.9633 L 15.0356,-4.1965 L 15.02,-4.4298 L 15.004,-4.663 L 14.9875,-4.8962 L 14.9706,-5.1294 L 14.9532,-5.3625 L 14.9352,-5.5955 L 14.9165,-5.8286 L 14.897,-6.0615 L 14.8766,-6.2944 L 14.855,-6.5272 L 14.832,-6.7598 L 14.8072,-6.9923 L 14.7801,-7.2245 L 14.7496,-7.4562 L 14.714,-7.6873" />
      <path d="M 14.714,-7.6873 L 14.7128,-7.6945 L 14.7115,-7.7018 L 14.7102,-7.7091 L 14.709,-7.7164 L 14.7077,-7.7237 L 14.7064,-7.7309 L 14.7051,-7.7382 L 14.7038,-7.7455 L 14.7025,-7.7527 L 14.7011,-7.76 L 14.6998,-7.7673 L 14.6984,-7.7745 L 14.6971,-7.7818 L 14.6957,-7.789 L 14.6943,-7.7963 L 14.6929,-7.8035 L 14.6915,-7.8108 L 14.6901,-7.818 L 14.6886,-7.8253 L 14.6872,-7.8325 L 14.6857,-7.8398 L 14.6842,-7.847 L 14.6827,-7.8542 L 14.6812,-7.8615 L 14.6797,-7.8687 L 14.6781,-7.8759 L 14.6765,-7.8831 L 14.6749,-7.8903 L 14.6733,-7.8975 L 14.6717,-7.9047 L 14.6701,-7.9119 L 14.6684,-7.9191 L 14.6667,-7.9263 L 14.665,-7.9335 L 14.6633,-7.9407 L 14.6615,-7.9479 L 14.6597,-7.955 L 14.6579,-7.9622 L 14.656,-7.9693 L 14.6542,-7.9765 L 14.6523,-7.9836 L 14.6503,-7.9907 L 14.6483,-7.9979 L 14.6463,-8.005 L 14.6443,-8.0121 L 14.6422,-8.0191 L 14.64,-8.0262 L 14.6379,-8.0333 L 14.6356,-8.0403 L 14.6333,-8.0473 L 14.631,-8.0543 L 14.6286,-8.0613 L 14.6261,-8.0683 L 14.6235,-8.0752 L 14.6209,-8.0821 L 14.6182,-8.089 L 14.6154,-8.0958 L 14.6125,-8.1026 L 14.6094,-8.1093 L 14.6062,-8.116 L 14.6029,-8.1226 L 14.5994,-8.1291 L 14.5957,-8.1355 L 14.5918,-8.1417 L 14.5876,-8.1478 L 14.583,-8.1536 L 14.5781,-8.1591 L 14.5726,-8.1641 L 14.5666,-8.1683 L 14.5599,-8.1715 L 14.5528,-8.1731 L 14.5454,-8.1727" />
      <path d="M 14.0553,5.9938 L 14.0437,6.025 L 14.0321,6.0563 L 14.0205,6.0876 L 14.0089,6.1189 L 13.9973,6.1502 L 13.9857,6.1814 L 13.9741,6.2127 L 13.9625,6.244 L 13.9509,6.2753 L 13.9393,6.3065 L 13.9277,6.3378 L 13.9161,6.3691 L 13.9045,6.4004 L 13.8929,6.4316 L 13.8813,6.4629 L 13.8697,6.4942 L 13.8581,6.5255 L 13.8465,6.5568 L 13.8349,6.588 L 13.8233,6.6193 L 13.8117,6.6506 L 13.8001,6.6819 L 13.7885,6.7131 L 13.7769,6.7444 L 13.7653,6.7757 L 13.7537,6.807 L 13.7421,6.8382 L 13.7305,6.8695 L 13.7189,6.9008 L 13.7073,6.9321 L 13.6957,6.9634 L 13.684,6.9946 L 13.6724,7.0259 L 13.6608,7.0572 L 13.6492,7.0885 L 13.6376,7.1197 L 13.626,7.151 L 13.6144,7.1823 L 13.6028,7.2136 L 13.5912,7.2448 L 13.5796,7.2761 L 13.568,7.3074 L 13.5564,7.3387 L 13.5448,7.37 L 13.5332,7.4012 L 13.5216,7.4325 L 13.51,7.4638 L 13.4984,7.4951 L 13.4868,7.5263 L 13.4752,7.5576 L 13.4636,7.5889 L 13.452,7.6202 L 13.4404,7.6514 L 13.4288,7.6827 L 13.4172,7.714 L 13.4056,7.7453 L 13.394,7.7766 L 13.3824,7.8078 L 13.3708,7.8391 L 13.3592,7.8704 L 13.3476,7.9017 L 13.336,7.9329 L 13.3244,7.9642 L 13.3128,7.9955 L 13.3011,8.0268 L 13.2895,8.058 L 13.2779,8.0893 L 13.2663,8.1206 L 13.2547,8.1519 L 13.2431,8.1832 L 13.2315,8.2144 L 13.2199,8.2457" />
      <path d="M 18.9523,6.6497 L 18.9245,6.6497 L 18.8967,6.6497 L 18.8689,6.6497 L 18.8411,6.6497 L 18.8133,6.6497 L 18.7855,6.6497 L 18.7576,6.6497 L 18.7298,6.6497 L 18.702,6.6497 L 18.6742,6.6497 L 18.6464,6.6497 L 18.6186,6.6497 L 18.5908,6.6497 L 18.563,6.6497 L 18.5352,6.6497 L 18.5074,6.6497 L 18.4796,6.6497 L 18.4518,6.6497 L 18.424,6.6497 L 18.3962,6.6497 L 18.3684,6.6497 L 18.3406,6.6497 L 18.3128,6.6497 L 18.285,6.6497 L 18.2572,6.6497 L 18.2294,6.6497 L 18.2016,6.6497 L 18.1737,6.6497 L 18.1459,6.6497 L 18.1181,6.6497 L 18.0903,6.6497 L 18.0625,6.6497 L 18.0347,6.6497 L 18.0069,6.6497 L 17.9791,6.6497 L 17.9513,6.6497 L 17.9235,6.6497 L 17.8957,6.6497 L 17.8679,6.6497 L 17.8401,6.6497 L 17.8123,6.6497 L 17.7845,6.6497 L 17.7567,6.6497 L 17.7289,6.6497 L 17.7011,6.6497 L 17.6733,6.6497 L 17.6455,6.6497 L 17.6176,6.6497 L 17.5898,6.6497 L 17.562,6.6497 L 17.5342,6.6497 L 17.5064,6.6497 L 17.4786,6.6497 L 17.4508,6.6497 L 17.423,6.6497 L 17.3952,6.6497 L 17.3674,6.6497 L 17.3396,6.6497 L 17.3118,6.6497 L 17.284,6.6497 L 17.2562,6.6497 L 17.2284,6.6497 L 17.2006,6.6497 L 17.1728,6.6497 L 17.145,6.6497 L 17.1172,6.6497 L 17.0894,6.6497 L 17.0615,6.6497 L 17.0337,6.6497 L 17.0059,6.6496 L 16.9781,6.6496 L 16.9503,6.6496" />
      <path d="M 16.8343,6.6496 L 16.8257,6.6496 L 16.8171,6.6496 L 16.8085,6.6496 L 16.7999,6.6496 L 16.7912,6.6496 L 16.7826,6.6496 L 16.774,6.6496 L 16.7654,6.6496 L 16.7568,6.6496 L 16.7482,6.6496 L 16.7396,6.6496 L 16.7309,6.6496 L 16.7223,6.6496 L 16.7137,6.6496 L 16.7051,6.6496 L 16.6965,6.6496 L 16.6879,6.6496 L 16.6793,6.6496 L 16.6706,6.6496 L 16.662,6.6496 L 16.6534,6.6496 L 16.6448,6.6496 L 16.6362,6.6496 L 16.6276,6.6496 L 16.619,6.6496 L 16.6104,6.6496 L 16.6017,6.6496 L 16.5931,6.6496 L 16.5845,6.6496 L 16.5759,6.6496 L 16.5673,6.6496 L 16.5587,6.6496 L 16.5501,6.6496 L 16.5414,6.6496 L 16.5328,6.6496 L 16.5242,6.6496 L 16.5156,6.6496 L 16.507,6.6496 L 16.4984,6.6496 L 16.4898,6.6496 L 16.4811,6.6496 L 16.4725,6.6496 L 16.4639,6.6496 L 16.4553,6.6496 L 16.4467,6.6496 L 16.4381,6.6496 L 16.4295,6.6496 L 16.4209,6.6496 L 16.4122,6.6496 L 16.4036,6.6496 L 16.395,6.6496 L 16.3864,6.6496 L 16.3778,6.6496 L 16.3692,6.6496 L 16.3606,6.6496 L 16.3519,6.6496 L 16.3433,6.6496 L 16.3347,6.6496 L 16.3261,6.6496 L 16.3175,6.6496 L 16.3089,6.6496 L 16.3003,6.6496 L 16.2916,6.6496 L 16.283,6.6496 L 16.2744,6.6496 L 16.2658,6.6496 L 16.2572,6.6496 L 16.2486,6.6496 L 16.24,6.6496 L 16.2314,6.6496 L 16.2227,6.6496 L 16.2141,6.6496" />
      <path d="M 17.8386,-6.2271 L 17.7991,-6.22 L 17.7595,-6.2128 L 17.7199,-6.2057 L 17.6804,-6.1985 L 17.6408,-6.1914 L 17.6012,-6.1843 L 17.5617,-6.1771 L 17.5221,-6.17 L 17.4825,-6.1628 L 17.443,-6.1557 L 17.4034,-6.1485 L 17.3638,-6.1414 L 17.3243,-6.1342 L 17.2847,-6.1271 L 17.2451,-6.1199 L 17.2056,-6.1128 L 17.166,-6.1056 L 17.1264,-6.0985 L 17.0868,-6.0913 L 17.0473,-6.0842 L 17.0077,-6.0771 L 16.9681,-6.0699 L 16.9286,-6.0628 L 16.889,-6.0556 L 16.8494,-6.0485 L 16.8099,-6.0413 L 16.7703,-6.0342 L 16.7307,-6.027 L 16.6912,-6.0199 L 16.6516,-6.0127 L 16.612,-6.0056 L 16.5725,-5.9984 L 16.5329,-5.9913 L 16.4933,-5.9841 L 16.4538,-5.977 L 16.4142,-5.9698 L 16.3746,-5.9627 L 16.3351,-5.9556 L 16.2955,-5.9484 L 16.2559,-5.9413 L 16.2164,-5.9341 L 16.1768,-5.927 L 16.1372,-5.9198 L 16.0977,-5.9127 L 16.0581,-5.9055 L 16.0185,-5.8984 L 15.979,-5.8912 L 15.9394,-5.8841 L 15.8998,-5.8769 L 15.8603,-5.8698 L 15.8207,-5.8626 L 15.7811,-5.8555 L 15.7416,-5.8484 L 15.702,-5.8412 L 15.6624,-5.8341 L 15.6228,-5.8269 L 15.5833,-5.8198 L 15.5437,-5.8126 L 15.5041,-5.8055 L 15.4646,-5.7983 L 15.425,-5.7912 L 15.3854,-5.784 L 15.3459,-5.7769 L 15.3063,-5.7697 L 15.2667,-5.7626 L 15.2272,-5.7554 L 15.1876,-5.7483 L 15.148,-5.7411 L 15.1085,-5.734 L 15.0689,-5.7269 L 15.0293,-5.7197 L 14.9898,-5.7126" />
      <path d="M 15.1072,-5.3745 L 15.1017,-5.4066 L 15.0963,-5.4387 L 15.0908,-5.4709 L 15.0854,-5.503 L 15.0799,-5.5351 L 15.0744,-5.5672 L 15.069,-5.5993 L 15.0635,-5.6315 L 15.058,-5.6636 L 15.0526,-5.6957 L 15.0471,-5.7278 L 15.0417,-5.76 L 15.0362,-5.7921 L 15.0307,-5.8242 L 15.0253,-5.8563 L 15.0198,-5.8884 L 15.0144,-5.9206 L 15.0089,-5.9527 L 15.0034,-5.9848 L 14.998,-6.0169 L 14.9925,-6.049 L 14.9871,-6.0812 L 14.9816,-6.1133 L 14.9761,-6.1454 L 14.9707,-6.1775 L 14.9652,-6.2097 L 14.9597,-6.2418 L 14.9543,-6.2739 L 14.9488,-6.306 L 14.9434,-6.3381 L 14.9379,-6.3703 L 14.9324,-6.4024 L 14.927,-6.4345 L 14.9215,-6.4666 L 14.9161,-6.4988 L 14.9106,-6.5309 L 14.9051,-6.563 L 14.8997,-6.5951 L 14.8942,-6.6272 L 14.8888,-6.6594 L 14.8833,-6.6915 L 14.8778,-6.7236 L 14.8724,-6.7557 L 14.8669,-6.7879 L 14.8614,-6.82 L 14.856,-6.8521 L 14.8505,-6.8842 L 14.8451,-6.9163 L 14.8396,-6.9485 L 14.8341,-6.9806 L 14.8287,-7.0127 L 14.8232,-7.0448 L 14.8178,-7.0769 L 14.8123,-7.1091 L 14.8068,-7.1412 L 14.8014,-7.1733 L 14.7959,-7.2054 L 14.7905,-7.2376 L 14.785,-7.2697 L 14.7795,-7.3018 L 14.7741,-7.3339 L 14.7686,-7.366 L 14.7631,-7.3982 L 14.7577,-7.4303 L 14.7522,-7.4624 L 14.7468,-7.4945 L 14.7413,-7.5267 L 14.7358,-7.5588 L 14.7304,-7.5909 L 14.7249,-7.623 L 14.7195,-7.6551 L 14.714,-7.6873" />
    </g>
  </g>
</svg>