<?xml version='1.0' encoding='utf-8'?>
<svg width="70.1514mm" height="30.16mm" viewBox="-15.08 -15.08 70.1514 30.16" version="1.1" xmlns="http://www.w3.org/2000/svg">
  <g transform="scale(1,-1)" stroke-linecap="round">
    <g fill="none" stroke="rgb(0,0,0)" stroke-width="0.4" id="Visible">
      <path d="M 0.0,10.0 L -0.8716,9.9619 L -1.7365,9.8481 L -2.5882,9.6593 L -3.4202,9.3969 L -4.2262,9.0631 L -5.0,8.6603 L -5.7358,8.1915 L -6.4279,7.6604 L -7.0711,7.0711 L -7.6604,6.4279 L -8.1915,5.7358 L -8.6603,5.0 L -9.0631,4.2262 L -9.3969,3.4202 L -9.6593,2.5882 L -9.8481,1.7365 L -9.9619,0.8716 L -10.0,0.0 L -9.9619,-0.8716 L -9.8481,-1.7365 L -9.6593,-2.5882 L -9.3969,-3.4202 L -9.0631,-4.2262 L -8.6603,-5.0 L -8.1915,-5.7358 L -7.6604,-6.4279 L -7.0711,-7.0711 L -6.4279,-7.6604 L -5.7358,-8.1915 L -5.0,-8.6603 L -4.2262,-9.0631 L -3.4202,-9.3969 L -2.5882,-9.6593 L -1.7365,-9.8481 L -0.8716,-9.9619 L -0.0,-10.0 L 0.8716,-9.9619 L 1.7365,-9.8481 L 2.5882,-9.6593 L 3.4202,-9.3969 L 4.2262,-9.0631 L 5.0,-8.6603 L 5.7358,-8.1915 L 6.4279,-7.6604 L 7.0711,-7.0711 L 7.6604,-6.4279 L 8.1915,-5.7358 L 8.6603,-5.0 L 9.0631,-4.2262 L 9.3969,-3.4202 L 9.6593,-2.5882 L 9.8481,-1.7365 L 9.9619,-0.8716 L 10.0,-0.0 L 9.9619,0.8716 L 9.8481,1.7365 L 9.6593,2.5882 L 9.3969,3.4202 L 9.0631,4.2262 L 8.6603,5.0 L 8.1915,5.7358 L 7.6604,6.4279 L 7.0711,7.0711 L 6.4279,7.6604 L 5.7358,8.1915 L 5.0,8.6603 L 4.2262,9.0631 L 3.4202,9.3969 L 2.5882,9.6593 L 1.7365,9.8481 L 0.8716,9.9619 L 0.0,10.0" />
      <path d="M 0.0,7.2231 L -0.0174,7.2231 L -0.0349,7.223 L -0.0523,7.2229 L -0.0698,7.2228 L -0.0872,7.2226 L -0.1047,7.2224 L -0.1221,7.2221 L -0.1396,7.2218 L -0.157,7.2214 L -0.1745,7.221 L -0.1919,7.2206 L -0.2094,7.2201 L -0.2268,7.2195 L -0.2442,7.219 L -0.2617,7.2184 L -0.2791,7.2177 L -0.2965,7.217 L -0.314,7.2163 L -0.3314,7.2155 L -0.3488,7.2147 L -0.3663,7.2138 L -0.3837,7.2129 L -0.4011,7.212 L -0.4185,7.211 L -0.436,7.2099 L -0.4534,7.2089 L -0.4708,7.2078 L -0.4882,7.2066 L -0.5056,7.2054 L -0.523,7.2042 L -0.5404,7.2029 L -0.5578,7.2015 L -0.5752,7.2002 L -0.5926,7.1988 L -0.61,7.1973 L -0.6274,7.1958 L -0.6448,7.1943 L -0.6621,7.1927 L -0.6795,7.1911 L -0.6969,7.1894 L -0.7142,7.1877 L -0.7316,7.186 L -0.749,7.1842 L -0.7663,7.1823 L -0.7837,7.1805 L -0.801,7.1786 L -0.8183,7.1766 L -0.8357,7.1746 L -0.853,7.1726 L -0.8703,7.1705 L -0.8876,7.1684 L -0.905,7.1662 L -0.9223,7.164 L -0.9396,7.1617 L -0.9569,7.1595 L -0.9742,7.1571 L -0.9915,7.1547 L -1.0087,7.1523 L -1.026,7.1499 L -1.0433,7.1474 L -1.0605,7.1448 L -1.0778,7.1422 L -1.095,7.1396 L -1.1123,7.137 L -1.1295,7.1342 L -1.1468,7.1315 L -1.164,7.1287 L -1.1812,7.1259 L -1.1984,7.123 L -1.2156,7.1201 L -1.2328,7.1171 L -1.25,7.1141" />
      <path d="M -1.25,-7.1141 L -1.25,-6.9165 L -1.25,-6.7189 L -1.25,-6.5213 L -1.25,-6.3237 L -1.25,-6.1261 L -1.25,-5.9284 L -1.25,-5.7308 L -1.25,-5.5332 L -1.25,-5.3356 L -1.25,-5.138 L -1.25,-4.9404 L -1.25,-4.7428 L -1.25,-4.5451 L -1.25,-4.3475 L -1.25,-4.1499 L -1.25,-3.9523 L -1.25,-3.7547 L -1.25,-3.5571 L -1.25,-3.3594 L -1.25,-3.1618 L -1.25,-2.9642 L -1.25,-2.7666 L -1.25,-2.569 L -1.25,-2.3714 L -1.25,-2.1738 L -1.25,-1.9761 L -1.25,-1.7785 L -1.25,-1.5809 L -1.25,-1.3833 L -1.25,-1.1857 L -1.25,-0.9881 L -1.25,-0.7905 L -1.25,-0.5928 L -1.25,-0.3952 L -1.25,-0.1976 L -1.25,0.0 L -1.25,0.1976 L -1.25,0.3952 L -1.25,0.5928 L -1.25,0.7905 L -1.25,0.9881 L -1.25,1.1857 L -1.25,1.3833 L -1.25,1.5809 L -1.25,1.7785 L -1.25,1.9761 L -1.25,2.1738 L -1.25,2.3714 L -1.25,2.569 L -1.25,2.7666 L -1.25,2.9642 L -1.25,3.1618 L -1.25,3.3594 L -1.25,3.5571 L -1.25,3.7547 L -1.25,3.9523 L -1.25,4.1499 L -1.25,4.3475 L -1.25,4.5451 L -1.25,4.7428 L -1.25,4.9404 L -1.25,5.138 L -1.25,5.3356 L -1.25,5.5332 L -1.25,5.7308 L -1.25,5.9284 L -1.25,6.1261 L -1.25,6.3237 L -1.25,6.5213 L -1.25,6.7189 L -1.25,6.9165 L -1.25,7.1141" />
      <path d="M -1.25,-7.1141 L -1.2156,-7.1201 L -1.1812,-7.1259 L -1.1468,-7.1315 L -1.1123,-7.137 L -1.0778,-7.1422 L -1.0433,-7.1474 L -1.0087,-7.1523 L -0.9742,-7.1571 L -0.9396,-7.1617 L -0.905,-7.1662 L -0.8703,-7.1705 L -0.8357,-7.1746 L -0.801,-7.1786 L -0.7663,-7.1823 L -0.7316,-7.186 L -0.6969,-7.1894 L -0.6621,-7.1927 L -0.6274,-7.1958 L -0.5926,-7.1988 L -0.5578,-7.2015 L -0.523,-7.2042 L -0.4882,-7.2066 L -0.4534,-7.2089 L -0.4185,-7.211 L -0.3837,-7.2129 L -0.3488,-7.2147 L -0.314,-7.2163 L -0.2791,-7.2177 L -0.2442,-7.219 L -0.2094,-7.2201 L -0.1745,-7.221 L -0.1396,-7.2218 L -0.1047,-7.2224 L -0.0698,-7.2228 L -0.0349,-7.223 L -0.0,-7.2231 L 0.0349,-7.223 L 0.0698,-7.2228 L 0.1047,-7.2224 L 0.1396,-7.2218 L 0.1745,-7.221 L 0.2094,-7.2201 L 0.2442,-7.219 L 0.2791,-7.2177 L 0.314,-7.2163 L 0.3488,-7.2147 L 0.3837,-7.2129 L 0.4185,-7.211 L 0.4534,-7.2089 L 0.4882,-7.2066 L 0.523,-7.2042 L 0.5578,-7.2015 L 0.5926,-7.1988 L 0.6274,-7.1958 L 0.6621,-7.1927 L 0.6969,-7.1894 L 0.7316,-7.186 L 0.7663,-7.1823 L 0.801,-7.1786 L 0.8357,-7.1746 L 0.8703,-7.1705 L 0.905,-7.1662 L 0.9396,-7.1617 L 0.9742,-7.1571 L 1.0087,-7.1523 L 1.0433,-7.1474 L 1.0778,-7.1422 L 1.1123,-7.137 L 1.1468,-7.1315 L 1.1812,-7.1259 L 1.2156,-7.1201 L 1.25,-7.1141" />
      <path d="M 1.25,-7.1141 L 1.25,-6.9165 L 1.25,-6.7189 L 1.25,-6.5213 L 1.25,-6.3237 L 1.25,-6.1261 L 1.25,-5.9284 L 1.25,-5.7308 L 1.25,-5.5332 L 1.25,-5.3356 L 1.25,-5.138 L 1.25,-4.9404 L 1.25,-4.7428 L 1.25,-4.5451 L 1.25,-4.3475 L 1.25,-4.1499 L 1.25,-3.9523 L 1.25,-3.7547 L 1.25,-3.5571 L 1.25,-3.3594 L 1.25,-3.1618 L 1.25,-2.9642 L 1.25,-2.7666 L 1.25,-2.569 L 1.25,-2.3714 L 1.25,-2.1738 L 1.25,-1.9761 L 1.25,-1.7785 L 1.25,-1.5809 L 1.25,-1.3833 L 1.25,-1.1857 L 1.25,-0.9881 L 1.25,-0.7905 L 1.25,-0.5928 L 1.25,-0.3952 L 1.25,-0.1976 L 1.25,0.0 L 1.25,0.1976 L 1.25,0.3952 L 1.25,0.5928 L 1.25,0.7905 L 1.25,0.9881 L 1.25,1.1857 L 1.25,1.3833 L 1.25,1.5809 L 1.25,1.7785 L 1.25,1.9761 L 1.25,2.1738 L 1.25,2.3714 L 1.25,2.569 L 1.25,2.7666 L 1.25,2.9642 L 1.25,3.1618 L 1.25,3.3594 L 1.25,3.5571 L 1.25,3.7547 L 1.25,3.9523 L 1.25,4.1499 L 1.25,4.3475 L 1.25,4.5451 L 1.25,4.7428 L 1.25,4.9404 L 1.25,5.138 L 1.25,5.3356 L 1.25,5.5332 L 1.25,5.7308 L 1.25,5.9284 L 1.25,6.1261 L 1.25,6.3237 L 1.25,6.5213 L 1.25,6.7189 L 1.25,6.9165 L 1.25,7.1141" />
      <path d="M 1.25,7.1141 L 1.2328,7.1171 L 1.2156,7.1201 L 1.1984,7.123 L 1.1812,7.1259 L 1.164,7.1287 L 1.1468,7.1315 L 1.1295,7.1342 L 1.1123,7.137 L 1.095,7.1396 L 1.0778,7.1422 L 1.0605,7.1448 L 1.0433,7.1474 L 1.026,7.1499 L 1.0087,7.1523 L 0.9915,7.1547 L 0.9742,7.1571 L 0.9569,7.1595 L 0.9396,7.1617 L 0.9223,7.164 L 0.905,7.1662 L 0.8876,7.1684 L 0.8703,7.1705 L 0.853,7.1726 L 0.8357,7.1746 L 0.8183,7.1766 L 0.801,7.1786 L 0.7837,7.1805 L 0.7663,7.1823 L 0.749,7.1842 L 0.7316,7.186 L 0.7142,7.1877 L 0.6969,7.1894 L 0.6795,7.1911 L 0.6621,7.1927 L 0.6448,7.1943 L 0.6274,7.1958 L 0.61,7.1973 L 0.5926,7.1988 L 0.5752,7.2002 L 0.5578,7.2015 L 0.5404,7.2029 L 0.523,7.2042 L 0.5056,7.2054 L 0.4882,7.2066 L 0.4708,7.2078 L 0.4534,7.2089 L 0.436,7.2099 L 0.4185,7.211 L 0.4011,7.212 L 0.3837,7.2129 L 0.3663,7.2138 L 0.3488,7.2147 L 0.3314,7.2155 L 0.314,7.2163 L 0.2965,7.217 L 0.2791,7.2177 L 0.2617,7.2184 L 0.2442,7.219 L 0.2268,7.2195 L 0.2094,7.2201 L 0.1919,7.2206 L 0.1745,7.221 L 0.157,7.2214 L 0.1396,7.2218 L 0.1221,7.2221 L 0.1047,7.2224 L 0.0872,7.2226 L 0.0698,7.2228 L 0.0523,7.2229 L 0.0349,7.223 L 0.0174,7.2231 L 0.0,7.2231" />
      <path d="M 19.943,10.0 L 19.9429,10.0 L 19.9428,10.0 L 19.9427,10.0 L 19.9427,9.9999 L 19.9426,9.9999 L 19.9425,9.9999" />
      <path d="M 19.9425,-9.9999 L 19.9663,-9.7249 L 19.9757,-9.4472 L 19.9828,-9.1695 L 19.9887,-8.8917 L 19.9937,-8.6139 L 19.9981,-8.3361 L 20.0021,-8.0582 L 20.0057,-7.7804 L 20.009,-7.5025 L 20.012,-7.2247 L 20.0148,-6.9469 L 20.0173,-6.669 L 20.0197,-6.3912 L 20.022,-6.1133 L 20.024,-5.8354 L 20.0259,-5.5576 L 20.0277,-5.2797 L 20.0294,-5.0019 L 20.0309,-4.724 L 20.0324,-4.4462 L 20.0337,-4.1683 L 20.0349,-3.8905 L 20.036,-3.6126 L 20.0371,-3.3348 L 20.038,-3.0569 L 20.0388,-2.7791 L 20.0396,-2.5012 L 20.0403,-2.2233 L 20.0409,-1.9455 L 20.0414,-1.6676 L 20.0418,-1.3898 L 20.0422,-1.1119 L 20.0424,-0.8341 L 20.0426,-0.5562 L 20.0427,-0.2784 L 20.0428,-0.0005 L 20.0427,0.2773 L 20.0426,0.5552 L 20.0424,0.833 L 20.0422,1.1109 L 20.0418,1.3887 L 20.0414,1.6666 L 20.0409,1.9444 L 20.0403,2.2223 L 20.0396,2.5001 L 20.0388,2.778 L 20.038,3.0558 L 20.0371,3.3337 L 20.036,3.6115 L 20.0349,3.8894 L 20.0337,4.1672 L 20.0324,4.4451 L 20.0309,4.7229 L 20.0294,5.0008 L 20.0277,5.2786 L 20.026,5.5565 L 20.024,5.8343 L 20.022,6.1121 L 20.0197,6.39 L 20.0174,6.6678 L 20.0148,6.9457 L 20.012,7.2235 L 20.009,7.5013 L 20.0057,7.7792 L 20.0021,8.057 L 19.9981,8.3348 L 19.9937,8.6126 L 19.9887,8.8904 L 19.9829,9.1682 L 19.9758,9.446 L 19.9663,9.7237 L 19.943,10.0" />
      <path d="M 16.5432,7.2231 L 16.5431,7.2231 L 16.543,7.2231 L 16.5429,7.2231 L 16.5429,7.223 L 16.5428,7.223 L 16.5427,7.223 L 16.5427,7.2229 L 16.5426,7.2229 L 16.5426,7.2228 L 16.5425,7.2228 L 16.5425,7.2227 L 16.5424,7.2227 L 16.5424,7.2226 L 16.5423,7.2226" />
      <path d="M 16.5423,7.2226 L 16.5416,7.2213 L 16.541,7.2199 L 16.5406,7.2184 L 16.5402,7.2169 L 16.5399,7.2154 L 16.5396,7.214 L 16.5393,7.2125 L 16.539,7.211 L 16.5388,7.2095 L 16.5385,7.208 L 16.5383,7.2065 L 16.5381,7.205 L 16.5379,7.2035 L 16.5377,7.202 L 16.5375,7.2004 L 16.5373,7.1989 L 16.5371,7.1974 L 16.537,7.1959 L 16.5368,7.1944 L 16.5366,7.1929 L 16.5365,7.1914 L 16.5363,7.1899 L 16.5361,7.1884 L 16.536,7.1869 L 16.5358,7.1853 L 16.5357,7.1838 L 16.5356,7.1823 L 16.5354,7.1808 L 16.5353,7.1793 L 16.5351,7.1778 L 16.535,7.1763 L 16.5349,7.1748 L 16.5347,7.1732 L 16.5346,7.1717 L 16.5345,7.1702 L 16.5344,7.1687 L 16.5342,7.1672 L 16.5341,7.1657 L 16.534,7.1642 L 16.5339,7.1626 L 16.5338,7.1611 L 16.5337,7.1596 L 16.5336,7.1581 L 16.5334,7.1566 L 16.5333,7.1551 L 16.5332,7.1536 L 16.5331,7.152 L 16.533,7.1505 L 16.5329,7.149 L 16.5328,7.1475 L 16.5327,7.146 L 16.5326,7.1445 L 16.5325,7.1429 L 16.5324,7.1414 L 16.5323,7.1399 L 16.5322,7.1384 L 16.5321,7.1369 L 16.532,7.1354 L 16.5319,7.1338 L 16.5318,7.1323 L 16.5317,7.1308 L 16.5316,7.1293 L 16.5315,7.1278 L 16.5314,7.1263 L 16.5313,7.1247 L 16.5313,7.1232 L 16.5312,7.1217 L 16.5311,7.1202 L 16.531,7.1187 L 16.5309,7.1172 L 16.5308,7.1156 L 16.5307,7.1141" />
      <path d="M 16.5307,-7.1141 L 16.3972,-6.947 L 16.2669,-6.7774 L 16.1399,-6.6054 L 16.0161,-6.4309 L 15.8957,-6.2542 L 15.7786,-6.0752 L 15.665,-5.894 L 15.5548,-5.7106 L 15.4481,-5.5253 L 15.345,-5.3379 L 15.2454,-5.1486 L 15.1495,-4.9574 L 15.0572,-4.7645 L 14.9686,-4.5698 L 14.8837,-4.3735 L 14.8025,-4.1756 L 14.7251,-3.9763 L 14.6515,-3.7754 L 14.5818,-3.5732 L 14.5158,-3.3698 L 14.4538,-3.1651 L 14.3956,-2.9593 L 14.3414,-2.7524 L 14.2911,-2.5445 L 14.2448,-2.3357 L 14.2024,-2.126 L 14.1641,-1.9156 L 14.1297,-1.7045 L 14.0994,-1.4928 L 14.073,-1.2805 L 14.0507,-1.0678 L 14.0325,-0.8547 L 14.0183,-0.6413 L 14.0081,-0.4277 L 14.002,-0.2139 L 14.0,-0.0 L 14.002,0.2139 L 14.0081,0.4277 L 14.0183,0.6413 L 14.0325,0.8547 L 14.0507,1.0678 L 14.073,1.2805 L 14.0994,1.4928 L 14.1297,1.7045 L 14.1641,1.9156 L 14.2024,2.126 L 14.2448,2.3357 L 14.2911,2.5445 L 14.3414,2.7524 L 14.3956,2.9593 L 14.4538,3.1651 L 14.5158,3.3698 L 14.5818,3.5732 L 14.6515,3.7754 L 14.7251,3.9763 L 14.8025,4.1756 L 14.8837,4.3735 L 14.9686,4.5698 L 15.0572,4.7645 L 15.1495,4.9574 L 15.2454,5.1486 L 15.345,5.3379 L 15.4481,5.5253 L 15.5548,5.7106 L 15.665,5.894 L 15.7786,6.0752 L 15.8957,6.2542 L 16.0161,6.4309 L 16.1399,6.6054 L 16.2669,6.7774 L 16.3972,6.947 L 16.5307,7.1141" />
      <path d="M 16.5307,-7.1141 L 16.5308,-7.1156 L 16.5309,-7.1172 L 16.531,-7.1187 L 16.5311,-7.1202 L 16.5312,-7.1217 L 16.5313,-7.1232 L 16.5313,-7.1247 L 16.5314,-7.1263 L 16.5315,-7.1278 L 16.5316,-7.1293 L 16.5317,-7.1308 L 16.5318,-7.1323 L 16.5319,-7.1338 L 16.532,-7.1354 L 16.5321,-7.1369 L 16.5322,-7.1384 L 16.5323,-7.1399 L 16.5324,-7.1414 L 16.5325,-7.1429 L 16.5326,-7.1445 L 16.5327,-7.146 L 16.5328,-7.1475 L 16.5329,-7.149 L 16.533,-7.1505 L 16.5331,-7.152 L 16.5332,-7.1536 L 16.5333,-7.1551 L 16.5334,-7.1566 L 16.5336,-7.1581 L 16.5337,-7.1596 L 16.5338,-7.1611 L 16.5339,-7.1626 L 16.534,-7.1642 L 16.5341,-7.1657 L 16.5342,-7.1672 L 16.5344,-7.1687 L 16.5345,-7.1702 L 16.5346,-7.1717 L 16.5347,-7.1732 L 16.5349,-7.1748 L 16.535,-7.1763 L 16.5351,-7.1778 L 16.5353,-7.1793 L 16.5354,-7.1808 L 16.5356,-7.1823 L 16.5357,-7.1838 L 16.5358,-7.1853 L 16.536,-7.1869 L 16.5361,-7.1884 L 16.5363,-7.1899 L 16.5365,-7.1914 L 16.5366,-7.1929 L 16.5368,-7.1944 L 16.537,-7.1959 L 16.5371,-7.1974 L 16.5373,-7.1989 L 16.5375,-7.2004 L 16.5377,-7.202 L 16.5379,-7.2035 L 16.5381,-7.205 L 16.5383,-7.2065 L 16.5385,-7.208 L 16.5388,-7.2095 L 16.539,-7.211 L 16.5393,-7.2125 L 16.5396,-7.214 L 16.5399,-7.2154 L 16.5402,-7.2169 L 16.5406,-7.2184 L 16.541,-7.2199 L 16.5416,-7.2213 L 16.5423,-7.2226" />
      <path d="M 16.5423,-7.2226 L 16.5437,-7.223 L 16.5446,-7.2217 L 16.5452,-7.2203 L 16.5457,-7.2188 L 16.5461,-7.2173 L 16.5464,-7.2158 L 16.5467,-7.2143 L 16.547,-7.2128 L 16.5473,-7.2113 L 16.5476,-7.2098 L 16.5478,-7.2082 L 16.5481,-7.2067 L 16.5483,-7.2052 L 16.5485,-7.2036 L 16.5487,-7.2021 L 16.5489,-7.2006 L 16.5491,-7.199 L 16.5493,-7.1975 L 16.5494,-7.1959 L 16.5496,-7.1944 L 16.5498,-7.1929 L 16.5499,-7.1913 L 16.5501,-7.1898 L 16.5503,-7.1882 L 16.5504,-7.1867 L 16.5506,-7.1852 L 16.5507,-7.1836 L 16.5509,-7.1821 L 16.551,-7.1805 L 16.5511,-7.179 L 16.5513,-7.1775 L 16.5514,-7.1759 L 16.5516,-7.1744 L 16.5517,-7.1728 L 16.5518,-7.1713 L 16.5519,-7.1697 L 16.5521,-7.1682 L 16.5522,-7.1667 L 16.5523,-7.1651 L 16.5524,-7.1636 L 16.5525,-7.162 L 16.5527,-7.1605 L 16.5528,-7.1589 L 16.5529,-7.1574 L 16.553,-7.1559 L 16.5531,-7.1543 L 16.5532,-7.1528 L 16.5533,-7.1512 L 16.5534,-7.1497 L 16.5536,-7.1481 L 16.5537,-7.1466 L 16.5538,-7.145 L 16.5539,-7.1435 L 16.554,-7.142 L 16.5541,-7.1404 L 16.5542,-7.1389 L 16.5543,-7.1373 L 16.5544,-7.1358 L 16.5545,-7.1342 L 16.5546,-7.1327 L 16.5547,-7.1311 L 16.5548,-7.1296 L 16.5548,-7.128 L 16.5549,-7.1265 L 16.555,-7.125 L 16.5551,-7.1234 L 16.5552,-7.1219 L 16.5553,-7.1203 L 16.5554,-7.1188 L 16.5555,-7.1172 L 16.5556,-7.1157 L 16.5557,-7.1141" />
      <path d="M 16.5557,-7.1141 L 16.4222,-6.947 L 16.2919,-6.7774 L 16.1648,-6.6054 L 16.041,-6.4309 L 15.9206,-6.2542 L 15.8036,-6.0752 L 15.6899,-5.894 L 15.5797,-5.7106 L 15.4731,-5.5253 L 15.3699,-5.3379 L 15.2704,-5.1486 L 15.1744,-4.9574 L 15.0821,-4.7645 L 14.9935,-4.5698 L 14.9086,-4.3735 L 14.8274,-4.1756 L 14.75,-3.9763 L 14.6765,-3.7754 L 14.6067,-3.5732 L 14.5408,-3.3698 L 14.4787,-3.1651 L 14.4206,-2.9593 L 14.3664,-2.7524 L 14.3161,-2.5445 L 14.2697,-2.3357 L 14.2274,-2.126 L 14.189,-1.9156 L 14.1546,-1.7045 L 14.1243,-1.4928 L 14.098,-1.2805 L 14.0757,-1.0678 L 14.0574,-0.8547 L 14.0432,-0.6413 L 14.0331,-0.4277 L 14.027,-0.2139 L 14.0249,0.0 L 14.027,0.2139 L 14.0331,0.4277 L 14.0432,0.6413 L 14.0574,0.8547 L 14.0757,1.0678 L 14.098,1.2805 L 14.1243,1.4928 L 14.1546,1.7045 L 14.189,1.9156 L 14.2274,2.126 L 14.2697,2.3357 L 14.3161,2.5445 L 14.3664,2.7524 L 14.4206,2.9593 L 14.4787,3.1651 L 14.5408,3.3698 L 14.6067,3.5732 L 14.6765,3.7754 L 14.75,3.9763 L 14.8274,4.1756 L 14.9086,4.3735 L 14.9935,4.5698 L 15.0821,4.7645 L 15.1744,4.9574 L 15.2704,5.1486 L 15.3699,5.3379 L 15.4731,5.5253 L 15.5797,5.7106 L 15.6899,5.894 L 15.8036,6.0752 L 15.9206,6.2542 L 16.041,6.4309 L 16.1648,6.6054 L 16.2919,6.7774 L 16.4222,6.947 L 16.5557,7.1141" />
      <path d="M 16.5557,7.1141 L 16.5556,7.1157 L 16.5555,7.1172 L 16.5554,7.1187 L 16.5553,7.1203 L 16.5552,7.1218 L 16.5551,7.1233 L 16.555,7.1248 L 16.5549,7.1264 L 16.5549,7.1279 L 16.5548,7.1294 L 16.5547,7.131 L 16.5546,7.1325 L 16.5545,7.134 L 16.5544,7.1356 L 16.5543,7.1371 L 16.5542,7.1386 L 16.5541,7.1402 L 16.554,7.1417 L 16.5539,7.1432 L 16.5538,7.1447 L 16.5537,7.1463 L 16.5536,7.1478 L 16.5535,7.1493 L 16.5534,7.1509 L 16.5533,7.1524 L 16.5531,7.1539 L 16.553,7.1555 L 16.5529,7.157 L 16.5528,7.1585 L 16.5527,7.16 L 16.5526,7.1616 L 16.5525,7.1631 L 16.5523,7.1646 L 16.5522,7.1662 L 16.5521,7.1677 L 16.552,7.1692 L 16.5519,7.1708 L 16.5517,7.1723 L 16.5516,7.1738 L 16.5515,7.1753 L 16.5513,7.1769 L 16.5512,7.1784 L 16.5511,7.1799 L 16.5509,7.1814 L 16.5508,7.183 L 16.5506,7.1845 L 16.5505,7.186 L 16.5503,7.1876 L 16.5502,7.1891 L 16.55,7.1906 L 16.5499,7.1921 L 16.5497,7.1937 L 16.5495,7.1952 L 16.5494,7.1967 L 16.5492,7.1982 L 16.549,7.1997 L 16.5488,7.2013 L 16.5486,7.2028 L 16.5484,7.2043 L 16.5482,7.2058 L 16.548,7.2073 L 16.5477,7.2089 L 16.5475,7.2104 L 16.5472,7.2119 L 16.5469,7.2134 L 16.5466,7.2149 L 16.5463,7.2164 L 16.5459,7.2179 L 16.5455,7.2194 L 16.545,7.2208 L 16.5443,7.2222 L 16.5432,7.2231" />
      <path d="M 16.5307,-7.1141 L 16.5307,-7.1137 L 16.5307,-7.1133 L 16.5307,-7.1128 L 16.5307,-7.1124 L 16.5307,-7.112 L 16.5307,-7.1116 L 16.5307,-7.1111 L 16.5307,-7.1107 L 16.5307,-7.1103 L 16.5307,-7.1099 L 16.5307,-7.1094 L 16.5307,-7.109 L 16.5307,-7.1086 L 16.5307,-7.1082 L 16.5307,-7.1077 L 16.5307,-7.1073 L 16.5307,-7.1069 L 16.5307,-7.1064 L 16.5307,-7.106 L 16.5307,-7.1056 L 16.5307,-7.1052 L 16.5307,-7.1047 L 16.5307,-7.1043 L 16.5307,-7.1039 L 16.5307,-7.1035 L 16.5307,-7.103 L 16.5307,-7.1026 L 16.5307,-7.1022 L 16.5307,-7.1018 L 16.5307,-7.1013 L 16.5307,-7.1009 L 16.5307,-7.1005 L 16.5307,-7.1 L 16.5307,-7.0996 L 16.5307,-7.0992 L 16.5307,-7.0988 L 16.5307,-7.0983 L 16.5307,-7.0979 L 16.5307,-7.0975 L 16.5307,-7.0971 L 16.5307,-7.0966 L 16.5307,-7.0962 L 16.5307,-7.0958 L 16.5307,-7.0954 L 16.5307,-7.0949 L 16.5307,-7.0945 L 16.5307,-7.0941 L 16.5307,-7.0936 L 16.5307,-7.0932 L 16.5307,-7.0928 L 16.5307,-7.0924 L 16.5307,-7.0919 L 16.5307,-7.0915 L 16.5307,-7.0911 L 16.5307,-7.0907 L 16.5307,-7.0902 L 16.5307,-7.0898 L 16.5307,-7.0894 L 16.5307,-7.089 L 16.5307,-7.0885 L 16.5307,-7.0881 L 16.5307,-7.0877 L 16.5307,-7.0872 L 16.5307,-7.0868 L 16.5307,-7.0864 L 16.5307,-7.086 L 16.5307,-7.0855 L 16.5307,-7.0851 L 16.5307,-7.0847 L 16.5307,-7.0843 L 16.5307,-7.0838 L 16.5307,-7.0834" />
      <path d="M 16.5307,7.0834 L 16.5307,7.0838 L 16.5307,7.0843 L 16.5307,7.0847 L 16.5307,7.0851 L 16.5307,7.0855 L 16.5307,7.086 L 16.5307,7.0864 L 16.5307,7.0868 L 16.5307,7.0872 L 16.5307,7.0877 L 16.5307,7.0881 L 16.5307,7.0885 L 16.5307,7.089 L 16.5307,7.0894 L 16.5307,7.0898 L 16.5307,7.0902 L 16.5307,7.0907 L 16.5307,7.0911 L 16.5307,7.0915 L 16.5307,7.0919 L 16.5307,7.0924 L 16.5307,7.0928 L 16.5307,7.0932 L 16.5307,7.0936 L 16.5307,7.0941 L 16.5307,7.0945 L 16.5307,7.0949 L 16.5307,7.0954 L 16.5307,7.0958 L 16.5307,7.0962 L 16.5307,7.0966 L 16.5307,7.0971 L 16.5307,7.0975 L 16.5307,7.0979 L 16.5307,7.0983 L 16.5307,7.0988 L 16.5307,7.0992 L 16.5307,7.0996 L 16.5307,7.1 L 16.5307,7.1005 L 16.5307,7.1009 L 16.5307,7.1013 L 16.5307,7.1018 L 16.5307,7.1022 L 16.5307,7.1026 L 16.5307,7.103 L 16.5307,7.1035 L 16.5307,7.1039 L 16.5307,7.1043 L 16.5307,7.1047 L 16.5307,7.1052 L 16.5307,7.1056 L 16.5307,7.106 L 16.5307,7.1064 L 16.5307,7.1069 L 16.5307,7.1073 L 16.5307,7.1077 L 16.5307,7.1082 L 16.5307,7.1086 L 16.5307,7.109 L 16.5307,7.1094 L 16.5307,7.1099 L 16.5307,7.1103 L 16.5307,7.1107 L 16.5307,7.1111 L 16.5307,7.1116 L 16.5307,7.112 L 16.5307,7.1124 L 16.5307,7.1128 L 16.5307,7.1133 L 16.5307,7.1137 L 16.5307,7.1141" />
      <path d="M 49.9415,-5.0 L 49.9532,-4.8622 L 49.9579,-4.7233 L 49.9614,-4.5844 L 49.9644,-4.4456 L 49.9669,-4.3067 L 49.9691,-4.1677 L 49.9711,-4.0288 L 49.9729,-3.8899 L 49.9745,-3.751 L 49.976,-3.6121 L 49.9774,-3.4732 L 49.9787,-3.3343 L 49.9799,-3.1953 L 49.981,-3.0564 L 49.982,-2.9175 L 49.983,-2.7786 L 49.9839,-2.6397 L 49.9847,-2.5007 L 49.9855,-2.3618 L 49.9862,-2.2229 L 49.9869,-2.084 L 49.9875,-1.9451 L 49.988,-1.8061 L 49.9886,-1.6672 L 49.989,-1.5283 L 49.9894,-1.3894 L 49.9898,-1.2504 L 49.9902,-1.1115 L 49.9905,-0.9726 L 49.9907,-0.8337 L 49.9909,-0.6948 L 49.9911,-0.5558 L 49.9912,-0.4169 L 49.9913,-0.278 L 49.9914,-0.1391 L 49.9914,-0.0001 L 49.9914,0.1388 L 49.9913,0.2777 L 49.9912,0.4166 L 49.9911,0.5555 L 49.9909,0.6945 L 49.9907,0.8334 L 49.9905,0.9723 L 49.9902,1.1112 L 49.9898,1.2502 L 49.9894,1.3891 L 49.989,1.528 L 49.9886,1.6669 L 49.988,1.8058 L 49.9875,1.9448 L 49.9869,2.0837 L 49.9862,2.2226 L 49.9855,2.3615 L 49.9847,2.5004 L 49.9839,2.6394 L 49.983,2.7783 L 49.982,2.9172 L 49.981,3.0561 L 49.9799,3.195 L 49.9787,3.334 L 49.9774,3.4729 L 49.976,3.6118 L 49.9745,3.7507 L 49.9729,3.8896 L 49.9711,4.0285 L 49.9691,4.1674 L 49.9669,4.3063 L 49.9644,4.4452 L 49.9614,4.5841 L 49.9579,4.723 L 49.9532,4.8619 L 49.9415,5.0" />
      <path d="M 20.0294,5.0 L 20.4449,5.0 L 20.8603,5.0 L 21.2757,5.0 L 21.6912,5.0 L 22.1066,5.0 L 22.5221,5.0 L 22.9375,5.0 L 23.353,5.0 L 23.7684,5.0 L 24.1839,5.0 L 24.5993,5.0 L 25.0148,5.0 L 25.4302,5.0 L 25.8457,5.0 L 26.2611,5.0 L 26.6765,5.0 L 27.092,5.0 L 27.5074,5.0 L 27.9229,5.0 L 28.3383,5.0 L 28.7538,5.0 L 29.1692,5.0 L 29.5847,5.0 L 30.0001,5.0 L 30.4156,5.0 L 30.831,5.0 L 31.2465,5.0 L 31.6619,5.0 L 32.0773,5.0 L 32.4928,5.0 L 32.9082,5.0 L 33.3237,5.0 L 33.7391,5.0 L 34.1546,5.0 L 34.57,5.0 L 34.9855,5.0 L 35.4009,5.0 L 35.8164,5.0 L 36.2318,5.0 L 36.6473,5.0 L 37.0627,5.0 L 37.4781,5.0 L 37.8936,5.0 L 38.309,5.0 L 38.7245,5.0 L 39.1399,5.0 L 39.5554,5.0 L 39.9708,5.0 L 40.3863,5.0 L 40.8017,5.0 L 41.2172,5.0 L 41.6326,5.0 L 42.0481,5.0 L 42.4635,5.0 L 42.8789,5.0 L 43.2944,5.0 L 43.7098,5.0 L 44.1253,5.0 L 44.5407,5.0 L 44.9562,5.0 L 45.3716,5.0 L 45.7871,5.0 L 46.2025,5.0 L 46.618,5.0 L 47.0334,5.0 L 47.4489,5.0 L 47.8643,5.0 L 48.2798,5.0 L 48.6952,5.0 L 49.1106,5.0 L 49.5261,5.0 L 49.9415,5.0" />
      <path d="M 16.5423,-7.2226 L 16.5816,-7.2698 L 16.6211,-7.3167 L 16.6608,-7.3635 L 16.7008,-7.41 L 16.741,-7.4564 L 16.7815,-7.5025 L 16.8223,-7.5483 L 16.8633,-7.594 L 16.9045,-7.6394 L 16.946,-7.6847 L 16.9877,-7.7296 L 17.0297,-7.7744 L 17.0719,-7.8189 L 17.1144,-7.8633 L 17.1571,-7.9073 L 17.2,-7.9512 L 17.2432,-7.9948 L 17.2866,-8.0382 L 17.3302,-8.0813 L 17.3741,-8.1242 L 17.4182,-8.1669 L 17.4625,-8.2093 L 17.5071,-8.2515 L 17.5519,-8.2934 L 17.5969,-8.3351 L 17.6421,-8.3766 L 17.6876,-8.4178 L 17.7333,-8.4588 L 17.7792,-8.4995 L 17.8253,-8.5399 L 17.8717,-8.5802 L 17.9182,-8.6201 L 17.965,-8.6598 L 18.012,-8.6993 L 18.0592,-8.7385 L 18.1066,-8.7774 L 18.1543,-8.8161 L 18.2021,-8.8546 L 18.2502,-8.8927 L 18.2984,-8.9306 L 18.3469,-8.9683 L 18.3955,-9.0057 L 18.4444,-9.0428 L 18.4935,-9.0797 L 18.5427,-9.1162 L 18.5922,-9.1526 L 18.6418,-9.1886 L 18.6917,-9.2244 L 18.7417,-9.2599 L 18.7919,-9.2952 L 18.8424,-9.3301 L 18.893,-9.3648 L 18.9438,-9.3993 L 18.9948,-9.4334 L 19.0459,-9.4673 L 19.0973,-9.5009 L 19.1488,-9.5342 L 19.2005,-9.5672 L 19.2524,-9.6 L 19.3045,-9.6325 L 19.3567,-9.6647 L 19.4091,-9.6966 L 19.4617,-9.7282 L 19.5145,-9.7595 L 19.5674,-9.7906 L 19.6205,-9.8213 L 19.6738,-9.8518 L 19.7272,-9.882 L 19.7808,-9.9119 L 19.8345,-9.9415 L 19.8884,-9.9708 L 19.9425,-9.9999" />
      <path d="M 19.9425,9.9999 L 19.8884,9.9708 L 19.8345,9.9415 L 19.7808,9.9119 L 19.7272,9.882 L 19.6738,9.8518 L 19.6205,9.8213 L 19.5674,9.7906 L 19.5145,9.7595 L 19.4617,9.7282 L 19.4091,9.6966 L 19.3567,9.6647 L 19.3045,9.6325 L 19.2524,9.6 L 19.2005,9.5672 L 19.1488,9.5342 L 19.0973,9.5009 L 19.0459,9.4673 L 18.9948,9.4334 L 18.9438,9.3993 L 18.893,9.3648 L 18.8424,9.3301 L 18.7919,9.2952 L 18.7417,9.2599 L 18.6917,9.2244 L 18.6418,9.1886 L 18.5922,9.1526 L 18.5427,9.1162 L 18.4935,9.0797 L 18.4444,9.0428 L 18.3955,9.0057 L 18.3469,8.9683 L 18.2984,8.9306 L 18.2502,8.8927 L 18.2021,8.8546 L 18.1543,8.8161 L 18.1066,8.7774 L 18.0592,8.7385 L 18.012,8.6993 L 17.965,8.6598 L 17.9182,8.6201 L 17.8717,8.5802 L 17.8253,8.5399 L 17.7792,8.4995 L 17.7333,8.4588 L 17.6876,8.4178 L 17.6421,8.3766 L 17.5969,8.3351 L 17.5519,8.2934 L 17.5071,8.2515 L 17.4625,8.2093 L 17.4182,8.1669 L 17.3741,8.1242 L 17.3302,8.0813 L 17.2866,8.0382 L 17.2432,7.9948 L 17.2,7.9512 L 17.1571,7.9073 L 17.1144,7.8633 L 17.0719,7.8189 L 17.0297,7.7744 L 16.9877,7.7296 L 16.946,7.6847 L 16.9045,7.6394 L 16.8633,7.594 L 16.8223,7.5483 L 16.7815,7.5025 L 16.741,7.4564 L 16.7008,7.41 L 16.6608,7.3635 L 16.6211,7.3167 L 16.5816,7.2698 L 16.5423,7.2226" />
      <path d="M 20.0294,-5.0 L 20.4449,-5.0 L 20.8603,-5.0 L 21.2757,-5.0 L 21.6912,-5.0 L 22.1066,-5.0 L 22.5221,-5.0 L 22.9375,-5.0 L 23.353,-5.0 L 23.7684,-5.0 L 24.1839,-5.0 L 24.5993,-5.0 L 25.0148,-5.0 L 25.4302,-5.0 L 25.8457,-5.0 L 26.2611,-5.0 L 26.6765,-5.0 L 27.092,-5.0 L 27.5074,-5.0 L 27.9229,-5.0 L 28.3383,-5.0 L 28.7538,-5.0 L 29.1692,-5.0 L 29.5847,-5.0 L 30.0001,-5.0 L 30.4156,-5.0 L 30.831,-5.0 L 31.2465,-5.0 L 31.6619,-5.0 L 32.0773,-5.0 L 32.4928,-5.0 L 32.9082,-5.0 L 33.3237,-5.0 L 33.7391,-5.0 L 34.1546,-5.0 L 34.57,-5.0 L 34.9855,-5.0 L 35.4009,-5.0 L 35.8164,-5.0 L 36.2318,-5.0 L 36.6473,-5.0 L 37.0627,-5.0 L 37.4781,-5.0 L 37.8936,-5.0 L 38.309,-5.0 L 38.7245,-5.0 L 39.1399,-5.0 L 39.5554,-5.0 L 39.9708,-5.0 L 40.3863,-5.0 L 40.8017,-5.0 L 41.2172,-5.0 L 41.6326,-5.0 L 42.0481,-5.0 L 42.4635,-5.0 L 42.8789,-5.0 L 43.2944,-5.0 L 43.7098,-5.0 L 44.1253,-5.0 L 44.5407,-5.0 L 44.9562,-5.0 L 45.3716,-5.0 L 45.7871,-5.0 L 46.2025,-5.0 L 46.618,-5.0 L 47.0334,-5.0 L 47.4489,-5.0 L 47.8643,-5.0 L 48.2798,-5.0 L 48.6952,-5.0 L 49.1106,-5.0 L 49.5261,-5.0 L 49.9415,-5.0" />
    </g>
    <g fill="none" stroke="rgb(110,110,110)" stroke-width="0.3" id="Hidden" stroke-dasharray="3.6 0.9">
      <path d="M 0.0,5.0 L -0.4358,4.981 L -0.8682,4.924 L -1.2941,4.8296 L -1.7101,4.6985 L -2.1131,4.5315 L -2.5,4.3301 L -2.8679,4.0958 L -3.2139,3.8302 L -3.5355,3.5355 L -3.8302,3.2139 L -4.0958,2.8679 L -4.3301,2.5 L -4.5315,2.1131 L -4.6985,1.7101 L -4.8296,1.2941 L -4.924,0.8682 L -4.981,0.4358 L -5.0,0.0 L -4.981,-0.4358 L -4.924,-0.8682 L -4.8296,-1.2941 L -4.6985,-1.7101 L -4.5315,-2.1131 L -4.3301,-2.5 L -4.0958,-2.8679 L -3.8302,-3.2139 L -3.5355,-3.5355 L -3.2139,-3.8302 L -2.8679,-4.0958 L -2.5,-4.3301 L -2.1131,-4.5315 L -1.7101,-4.6985 L -1.2941,-4.8296 L -0.8682,-4.924 L -0.4358,-4.981 L -0.0,-5.0 L 0.4358,-4.981 L 0.8682,-4.924 L 1.2941,-4.8296 L 1.7101,-4.6985 L 2.1131,-4.5315 L 2.5,-4.3301 L 2.8679,-4.0958 L 3.2139,-3.8302 L 3.5355,-3.5355 L 3.8302,-3.2139 L 4.0958,-2.8679 L 4.3301,-2.5 L 4.5315,-2.1131 L 4.6985,-1.7101 L 4.8296,-1.2941 L 4.924,-0.8682 L 4.981,-0.4358 L 5.0,-0.0 L 4.981,0.4358 L 4.924,0.8682 L 4.8296,1.2941 L 4.6985,1.7101 L 4.5315,2.1131 L 4.3301,2.5 L 4.0958,2.8679 L 3.8302,3.2139 L 3.5355,3.5355 L 3.2139,3.8302 L 2.8679,4.0958 L 2.5,4.3301 L 2.1131,4.5315 L 1.7101,4.6985 L 1.2941,4.8296 L 0.8682,4.924 L 0.4358,4.981 L 0.0,5.0" />
      <path d="M -1.25,-7.1141 L -1.25,-6.9165 L -1.25,-6.7189 L -1.25,-6.5213 L -1.25,-6.3237 L -1.25,-6.1261 L -1.25,-5.9284 L -1.25,-5.7308 L -1.25,-5.5332 L -1.25,-5.3356 L -1.25,-5.138 L -1.25,-4.9404 L -1.25,-4.7428 L -1.25,-4.5451 L -1.25,-4.3475 L -1.25,-4.1499 L -1.25,-3.9523 L -1.25,-3.7547 L -1.25,-3.5571 L -1.25,-3.3594 L -1.25,-3.1618 L -1.25,-2.9642 L -1.25,-2.7666 L -1.25,-2.569 L -1.25,-2.3714 L -1.25,-2.1738 L -1.25,-1.9761 L -1.25,-1.7785 L -1.25,-1.5809 L -1.25,-1.3833 L -1.25,-1.1857 L -1.25,-0.9881 L -1.25,-0.7905 L -1.25,-0.5928 L -1.25,-0.3952 L -1.25,-0.1976 L -1.25,0.0 L -1.25,0.1976 L -1.25,0.3952 L -1.25,0.5928 L -1.25,0.7905 L -1.25,0.9881 L -1.25,1.1857 L -1.25,1.3833 L -1.25,1.5809 L -1.25,1.7785 L -1.25,1.9761 L -1.25,2.1738 L -1.25,2.3714 L -1.25,2.569 L -1.25,2.7666 L -1.25,2.9642 L -1.25,3.1618 L -1.25,3.3594 L -1.25,3.5571 L -1.25,3.7547 L -1.25,3.9523 L -1.25,4.1499 L -1.25,4.3475 L -1.25,4.5451 L -1.25,4.7428 L -1.25,4.9404 L -1.25,5.138 L -1.25,5.3356 L -1.25,5.5332 L -1.25,5.7308 L -1.25,5.9284 L -1.25,6.1261 L -1.25,6.3237 L -1.25,6.5213 L -1.25,6.7189 L -1.25,6.9165 L -1.25,7.1141" />
      <path d="M 1.25,-7.1141 L 1.25,-6.9165 L 1.25,-6.7189 L 1.25,-6.5213 L 1.25,-6.3237 L 1.25,-6.1261 L 1.25,-5.9284 L 1.25,-5.7308 L 1.25,-5.5332 L 1.25,-5.3356 L 1.25,-5.138 L 1.25,-4.9404 L 1.25,-4.7428 L 1.25,-4.5451 L 1.25,-4.3475 L 1.25,-4.1499 L 1.25,-3.9523 L 1.25,-3.7547 L 1.25,-3.5571 L 1.25,-3.3594 L 1.25,-3.1618 L 1.25,-2.9642 L 1.25,-2.7666 L 1.25,-2.569 L 1.25,-2.3714 L 1.25,-2.1738 L 1.25,-1.9761 L 1.25,-1.7785 L 1.25,-1.5809 L 1.25,-1.3833 L 1.25,-1.1857 L 1.25,-0.9881 L 1.25,-0.7905 L 1.25,-0.5928 L 1.25,-0.3952 L 1.25,-0.1976 L 1.25,0.0 L 1.25,0.1976 L 1.25,0.3952 L 1.25,0.5928 L 1.25,0.7905 L 1.25,0.9881 L 1.25,1.1857 L 1.25,1.3833 L 1.25,1.5809 L 1.25,1.7785 L 1.25,1.9761 L 1.25,2.1738 L 1.25,2.3714 L 1.25,2.569 L 1.25,2.7666 L 1.25,2.9642 L 1.25,3.1618 L 1.25,3.3594 L 1.25,3.5571 L 1.25,3.7547 L 1.25,3.9523 L 1.25,4.1499 L 1.25,4.3475 L 1.25,4.5451 L 1.25,4.7428 L 1.25,4.9404 L 1.25,5.138 L 1.25,5.3356 L 1.25,5.5332 L 1.25,5.7308 L 1.25,5.9284 L 1.25,6.1261 L 1.25,6.3237 L 1.25,6.5213 L 1.25,6.7189 L 1.25,6.9165 L 1.25,7.1141" />
      <path d="M 0.0,5.0 L -0.4358,4.981 L -0.8682,4.924 L -1.2941,4.8296 L -1.7101,4.6985 L -2.1131,4.5315 L -2.5,4.3301 L -2.8679,4.0958 L -3.2139,3.8302 L -3.5355,3.5355 L -3.8302,3.2139 L -4.0958,2.8679 L -4.3301,2.5 L -4.5315,2.1131 L -4.6985,1.7101 L -4.8296,1.2941 L -4.924,0.8682 L -4.981,0.4358 L -5.0,0.0 L -4.981,-0.4358 L -4.924,-0.8682 L -4.8296,-1.2941 L -4.6985,-1.7101 L -4.5315,-2.1131 L -4.3301,-2.5 L -4.0958,-2.8679 L -3.8302,-3.2139 L -3.5355,-3.5355 L -3.2139,-3.8302 L -2.8679,-4.0958 L -2.5,-4.3301 L -2.1131,-4.5315 L -1.7101,-4.6985 L -1.2941,-4.8296 L -0.8682,-4.924 L -0.4358,-4.981 L -0.0,-5.0 L 0.4358,-4.981 L 0.8682,-4.924 L 1.2941,-4.8296 L 1.7101,-4.6985 L 2.1131,-4.5315 L 2.5,-4.3301 L 2.8679,-4.0958 L 3.2139,-3.8302 L 3.5355,-3.5355 L 3.8302,-3.2139 L 4.0958,-2.8679 L 4.3301,-2.5 L 4.5315,-2.1131 L 4.6985,-1.7101 L 4.8296,-1.2941 L 4.924,-0.8682 L 4.981,-0.4358 L 5.0,-0.0 L 4.981,0.4358 L 4.924,0.8682 L 4.8296,1.2941 L 4.6985,1.7101 L 4.5315,2.1131 L 4.3301,2.5 L 4.0958,2.8679 L 3.8302,3.2139 L 3.5355,3.5355 L 3.2139,3.8302 L 2.8679,4.0958 L 2.5,4.3301 L 2.1131,4.5315 L 1.7101,4.6985 L 1.2941,4.8296 L 0.8682,4.924 L 0.4358,4.981 L 0.0,5.0" />
      <path d="M 19.9425,9.9999 L 19.9197,9.7238 L 19.9103,9.4461 L 19.9032,9.1684 L 19.8974,8.8906 L 19.8923,8.6128 L 19.8879,8.335 L 19.884,8.0572 L 19.8804,7.7794 L 19.8771,7.5016 L 19.8741,7.2238 L 19.8713,6.9459 L 19.8687,6.6681 L 19.8663,6.3903 L 19.8641,6.1125 L 19.862,5.8346 L 19.8601,5.5568 L 19.8583,5.279 L 19.8567,5.0012 L 19.8551,4.7233 L 19.8537,4.4455 L 19.8524,4.1677 L 19.8511,3.8898 L 19.85,3.612 L 19.849,3.3342 L 19.8481,3.0563 L 19.8472,2.7785 L 19.8465,2.5007 L 19.8458,2.2229 L 19.8452,1.945 L 19.8447,1.6672 L 19.8443,1.3894 L 19.8439,1.1115 L 19.8436,0.8337 L 19.8434,0.5559 L 19.8433,0.278 L 19.8433,0.0002 L 19.8433,-0.2776 L 19.8434,-0.5555 L 19.8436,-0.8333 L 19.8439,-1.1111 L 19.8443,-1.389 L 19.8447,-1.6668 L 19.8452,-1.9446 L 19.8458,-2.2225 L 19.8465,-2.5003 L 19.8472,-2.7781 L 19.8481,-3.056 L 19.849,-3.3338 L 19.85,-3.6116 L 19.8511,-3.8895 L 19.8524,-4.1673 L 19.8537,-4.4451 L 19.8551,-4.723 L 19.8567,-5.0008 L 19.8583,-5.2786 L 19.8601,-5.5564 L 19.862,-5.8343 L 19.8641,-6.1121 L 19.8663,-6.3899 L 19.8687,-6.6678 L 19.8713,-6.9456 L 19.8741,-7.2234 L 19.8771,-7.5012 L 19.8804,-7.779 L 19.8839,-8.0568 L 19.8879,-8.3346 L 19.8923,-8.6124 L 19.8974,-8.8902 L 19.9032,-9.168 L 19.9103,-9.4458 L 19.9197,-9.7234 L 19.9425,-9.9999" />
      <path d="M 19.943,5.0 L 19.9314,4.8622 L 19.9267,4.7233 L 19.9231,4.5844 L 19.9202,4.4456 L 19.9177,4.3067 L 19.9155,4.1677 L 19.9135,4.0288 L 19.9117,3.8899 L 19.9101,3.751 L 19.9085,3.6121 L 19.9072,3.4732 L 19.9059,3.3343 L 19.9047,3.1953 L 19.9036,3.0564 L 19.9025,2.9175 L 19.9016,2.7786 L 19.9007,2.6397 L 19.8998,2.5007 L 19.8991,2.3618 L 19.8984,2.2229 L 19.8977,2.084 L 19.8971,1.9451 L 19.8965,1.8061 L 19.896,1.6672 L 19.8955,1.5283 L 19.8951,1.3894 L 19.8947,1.2504 L 19.8944,1.1115 L 19.8941,0.9726 L 19.8939,0.8337 L 19.8936,0.6948 L 19.8935,0.5558 L 19.8933,0.4169 L 19.8932,0.278 L 19.8932,0.1391 L 19.8932,0.0001 L 19.8932,-0.1388 L 19.8932,-0.2777 L 19.8933,-0.4166 L 19.8935,-0.5555 L 19.8936,-0.6945 L 19.8939,-0.8334 L 19.8941,-0.9723 L 19.8944,-1.1112 L 19.8947,-1.2502 L 19.8951,-1.3891 L 19.8955,-1.528 L 19.896,-1.6669 L 19.8965,-1.8058 L 19.8971,-1.9448 L 19.8977,-2.0837 L 19.8984,-2.2226 L 19.8991,-2.3615 L 19.8998,-2.5004 L 19.9007,-2.6394 L 19.9016,-2.7783 L 19.9025,-2.9172 L 19.9036,-3.0561 L 19.9047,-3.195 L 19.9059,-3.334 L 19.9071,-3.4729 L 19.9085,-3.6118 L 19.91,-3.7507 L 19.9117,-3.8896 L 19.9135,-4.0285 L 19.9155,-4.1674 L 19.9177,-4.3063 L 19.9202,-4.4452 L 19.9231,-4.5841 L 19.9267,-4.723 L 19.9314,-4.8619 L 19.943,-5.0" />
      <path d="M 19.943,-5.0 L 19.9547,-4.8622 L 19.9594,-4.7233 L 19.9629,-4.5844 L 19.9659,-4.4456 L 19.9684,-4.3067 L 19.9706,-4.1677 L 19.9726,-4.0288 L 19.9744,-3.8899 L 19.976,-3.751 L 19.9775,-3.6121 L 19.9789,-3.4732 L 19.9802,-3.3343 L 19.9814,-3.1953 L 19.9825,-3.0564 L 19.9835,-2.9175 L 19.9845,-2.7786 L 19.9854,-2.6397 L 19.9862,-2.5007 L 19.987,-2.3618 L 19.9877,-2.2229 L 19.9884,-2.084 L 19.989,-1.9451 L 19.9895,-1.8061 L 19.99,-1.6672 L 19.9905,-1.5283 L 19.9909,-1.3894 L 19.9913,-1.2504 L 19.9917,-1.1115 L 19.9919,-0.9726 L 19.9922,-0.8337 L 19.9924,-0.6948 L 19.9926,-0.5558 L 19.9927,-0.4169 L 19.9928,-0.278 L 19.9929,-0.1391 L 19.9929,-0.0001 L 19.9929,0.1388 L 19.9928,0.2777 L 19.9927,0.4166 L 19.9926,0.5555 L 19.9924,0.6945 L 19.9922,0.8334 L 19.9919,0.9723 L 19.9917,1.1112 L 19.9913,1.2502 L 19.9909,1.3891 L 19.9905,1.528 L 19.99,1.6669 L 19.9895,1.8058 L 19.989,1.9448 L 19.9884,2.0837 L 19.9877,2.2226 L 19.987,2.3615 L 19.9862,2.5004 L 19.9854,2.6394 L 19.9845,2.7783 L 19.9835,2.9172 L 19.9825,3.0561 L 19.9814,3.195 L 19.9802,3.334 L 19.9789,3.4729 L 19.9775,3.6118 L 19.976,3.7507 L 19.9744,3.8896 L 19.9726,4.0285 L 19.9706,4.1674 L 19.9684,4.3063 L 19.9659,4.4452 L 19.9629,4.5841 L 19.9594,4.723 L 19.9547,4.8619 L 19.943,5.0" />
      <path d="M 16.5307,-7.0834 L 16.5307,-6.8866 L 16.5307,-6.6899 L 16.5307,-6.4931 L 16.5307,-6.2964 L 16.5307,-6.0996 L 16.5307,-5.9028 L 16.5307,-5.7061 L 16.5307,-5.5093 L 16.5307,-5.3126 L 16.5307,-5.1158 L 16.5307,-4.919 L 16.5307,-4.7223 L 16.5307,-4.5255 L 16.5307,-4.3287 L 16.5307,-4.132 L 16.5307,-3.9352 L 16.5307,-3.7385 L 16.5307,-3.5417 L 16.5307,-3.3449 L 16.5307,-3.1482 L 16.5307,-2.9514 L 16.5307,-2.7547 L 16.5307,-2.5579 L 16.5307,-2.3611 L 16.5307,-2.1644 L 16.5307,-1.9676 L 16.5307,-1.7709 L 16.5307,-1.5741 L 16.5307,-1.3773 L 16.5307,-1.1806 L 16.5307,-0.9838 L 16.5307,-0.787 L 16.5307,-0.5903 L 16.5307,-0.3935 L 16.5307,-0.1968 L 16.5307,0.0 L 16.5307,0.1968 L 16.5307,0.3935 L 16.5307,0.5903 L 16.5307,0.787 L 16.5307,0.9838 L 16.5307,1.1806 L 16.5307,1.3773 L 16.5307,1.5741 L 16.5307,1.7709 L 16.5307,1.9676 L 16.5307,2.1644 L 16.5307,2.3611 L 16.5307,2.5579 L 16.5307,2.7547 L 16.5307,2.9514 L 16.5307,3.1482 L 16.5307,3.3449 L 16.5307,3.5417 L 16.5307,3.7385 L 16.5307,3.9352 L 16.5307,4.132 L 16.5307,4.3287 L 16.5307,4.5255 L 16.5307,4.7223 L 16.5307,4.919 L 16.5307,5.1158 L 16.5307,5.3126 L 16.5307,5.5093 L 16.5307,5.7061 L 16.5307,5.9028 L 16.5307,6.0996 L 16.5307,6.2964 L 16.5307,6.4931 L 16.5307,6.6899 L 16.5307,6.8866 L 16.5307,7.0834" />
      <path d="M 16.5557,-7.1141 L 16.5557,-6.9165 L 16.5557,-6.7189 L 16.5557,-6.5213 L 16.5557,-6.3237 L 16.5557,-6.1261 L 16.5557,-5.9284 L 16.5557,-5.7308 L 16.5557,-5.5332 L 16.5557,-5.3356 L 16.5557,-5.138 L 16.5557,-4.9404 L 16.5557,-4.7428 L 16.5557,-4.5451 L 16.5557,-4.3475 L 16.5557,-4.1499 L 16.5557,-3.9523 L 16.5557,-3.7547 L 16.5557,-3.5571 L 16.5557,-3.3594 L 16.5557,-3.1618 L 16.5557,-2.9642 L 16.5557,-2.7666 L 16.5557,-2.569 L 16.5557,-2.3714 L 16.5557,-2.1738 L 16.5557,-1.9761 L 16.5557,-1.7785 L 16.5557,-1.5809 L 16.5557,-1.3833 L 16.5557,-1.1857 L 16.5557,-0.9881 L 16.5557,-0.7905 L 16.5557,-0.5928 L 16.5557,-0.3952 L 16.5557,-0.1976 L 16.5557,0.0 L 16.5557,0.1976 L 16.5557,0.3952 L 16.5557,0.5928 L 16.5557,0.7905 L 16.5557,0.9881 L 16.5557,1.1857 L 16.5557,1.3833 L 16.5557,1.5809 L 16.5557,1.7785 L 16.5557,1.9761 L 16.5557,2.1738 L 16.5557,2.3714 L 16.5557,2.569 L 16.5557,2.7666 L 16.5557,2.9642 L 16.5557,3.1618 L 16.5557,3.3594 L 16.5557,3.5571 L 16.5557,3.7547 L 16.5557,3.9523 L 16.5557,4.1499 L 16.5557,4.3475 L 16.5557,4.5451 L 16.5557,4.7428 L 16.5557,4.9404 L 16.5557,5.138 L 16.5557,5.3356 L 16.5557,5.5332 L 16.5557,5.7308 L 16.5557,5.9284 L 16.5557,6.1261 L 16.5557,6.3237 L 16.5557,6.5213 L 16.5557,6.7189 L 16.5557,6.9165 L 16.5557,7.1141" />
      <path d="M 49.9415,5.0 L 49.9299,4.8622 L 49.9252,4.7233 L 49.9216,4.5844 L 49.9187,4.4456 L 49.9162,4.3067 L 49.914,4.1677 L 49.912,4.0288 L 49.9102,3.8899 L 49.9086,3.751 L 49.9071,3.6121 L 49.9057,3.4732 L 49.9044,3.3343 L 49.9032,3.1953 L 49.9021,3.0564 L 49.901,2.9175 L 49.9001,2.7786 L 49.8992,2.6397 L 49.8984,2.5007 L 49.8976,2.3618 L 49.8969,2.2229 L 49.8962,2.084 L 49.8956,1.9451 L 49.895,1.8061 L 49.8945,1.6672 L 49.8941,1.5283 L 49.8936,1.3894 L 49.8932,1.2504 L 49.8929,1.1115 L 49.8926,0.9726 L 49.8924,0.8337 L 49.8921,0.6948 L 49.892,0.5558 L 49.8918,0.4169 L 49.8917,0.278 L 49.8917,0.1391 L 49.8917,0.0001 L 49.8917,-0.1388 L 49.8917,-0.2777 L 49.8918,-0.4166 L 49.892,-0.5555 L 49.8921,-0.6945 L 49.8924,-0.8334 L 49.8926,-0.9723 L 49.8929,-1.1112 L 49.8932,-1.2502 L 49.8936,-1.3891 L 49.8941,-1.528 L 49.8945,-1.6669 L 49.895,-1.8058 L 49.8956,-1.9448 L 49.8962,-2.0837 L 49.8969,-2.2226 L 49.8976,-2.3615 L 49.8983,-2.5004 L 49.8992,-2.6394 L 49.9001,-2.7783 L 49.901,-2.9172 L 49.9021,-3.0561 L 49.9032,-3.195 L 49.9044,-3.334 L 49.9057,-3.4729 L 49.907,-3.6118 L 49.9086,-3.7507 L 49.9102,-3.8896 L 49.912,-4.0285 L 49.914,-4.1674 L 49.9162,-4.3063 L 49.9187,-4.4452 L 49.9216,-4.5841 L 49.9252,-4.723 L 49.9299,-4.8619 L 49.9415,-5.0" />
      <path d="M 19.943,5.0 L 19.9442,5.0 L 19.9454,5.0 L 19.9466,5.0 L 19.9478,5.0 L 19.949,5.0 L 19.9502,5.0 L 19.9514,5.0 L 19.9526,5.0 L 19.9538,5.0 L 19.955,5.0 L 19.9562,5.0 L 19.9574,5.0 L 19.9586,5.0 L 19.9598,5.0 L 19.961,5.0 L 19.9622,5.0 L 19.9634,5.0 L 19.9646,5.0 L 19.9658,5.0 L 19.967,5.0 L 19.9682,5.0 L 19.9694,5.0 L 19.9706,5.0 L 19.9718,5.0 L 19.973,5.0 L 19.9742,5.0 L 19.9754,5.0 L 19.9766,5.0 L 19.9778,5.0 L 19.979,5.0 L 19.9802,5.0 L 19.9814,5.0 L 19.9826,5.0 L 19.9838,5.0 L 19.985,5.0 L 19.9862,5.0 L 19.9874,5.0 L 19.9886,5.0 L 19.9898,5.0 L 19.991,5.0 L 19.9922,5.0 L 19.9934,5.0 L 19.9946,5.0 L 19.9958,5.0 L 19.997,5.0 L 19.9982,5.0 L 19.9994,5.0 L 20.0006,5.0 L 20.0018,5.0 L 20.003,5.0 L 20.0042,5.0 L 20.0054,5.0 L 20.0066,5.0 L 20.0078,5.0 L 20.009,5.0 L 20.0102,5.0 L 20.0114,5.0 L 20.0126,5.0 L 20.0138,5.0 L 20.015,5.0 L 20.0162,5.0 L 20.0174,5.0 L 20.0186,5.0 L 20.0198,5.0 L 20.021,5.0 L 20.0222,5.0 L 20.0234,5.0 L 20.0246,5.0 L 20.0258,5.0 L 20.027,5.0 L 20.0282,5.0 L 20.0294,5.0" />
      <path d="M 19.943,-5.0 L 19.9442,-5.0 L 19.9454,-5.0 L 19.9466,-5.0 L 19.9478,-5.0 L 19.949,-5.0 L 19.9502,-5.0 L 19.9514,-5.0 L 19.9526,-5.0 L 19.9538,-5.0 L 19.955,-5.0 L 19.9562,-5.0 L 19.9574,-5.0 L 19.9586,-5.0 L 19.9598,-5.0 L 19.961,-5.0 L 19.9622,-5.0 L 19.9634,-5.0 L 19.9646,-5.0 L 19.9658,-5.0 L 19.967,-5.0 L 19.9682,-5.0 L 19.9694,-5.0 L 19.9706,-5.0 L 19.9718,-5.0 L 19.973,-5.0 L 19.9742,-5.0 L 19.9754,-5.0 L 19.9766,-5.0 L 19.9778,-5.0 L 19.979,-5.0 L 19.9802,-5.0 L 19.9814,-5.0 L 19.9826,-5.0 L 19.9838,-5.0 L 19.985,-5.0 L 19.9862,-5.0 L 19.9874,-5.0 L 19.9886,-5.0 L 19.9898,-5.0 L 19.991,-5.0 L 19.9922,-5.0 L 19.9934,-5.0 L 19.9946,-5.0 L 19.9958,-5.0 L 19.997,-5.0 L 19.9982,-5.0 L 19.9994,-5.0 L 20.0006,-5.0 L 20.0018,-5.0 L 20.003,-5.0 L 20.0042,-5.0 L 20.0054,-5.0 L 20.0066,-5.0 L 20.0078,-5.0 L 20.009,-5.0 L 20.0102,-5.0 L 20.0114,-5.0 L 20.0126,-5.0 L 20.0138,-5.0 L 20.015,-5.0 L 20.0162,-5.0 L 20.0174,-5.0 L 20.0186,-5.0 L 20.0198,-5.0 L 20.021,-5.0 L 20.0222,-5.0 L 20.0234,-5.0 L 20.0246,-5.0 L 20.0258,-5.0 L 20.027,-5.0 L 20.0282,-5.0 L 20.0294,-5.0" />
    </g>
    <g fill="none" stroke="rgb(0,0,0)" stroke-width="0.2" id="Center" stroke-dasharray="6.35 1.27 1.27 1.27">
      <line x1="0.0" y1="0.0" x2="-12.88" y2="0.0" />
      <line x1="0.0" y1="0.0" x2="12.88" y2="0.0" />
      <line x1="0.0" y1="0.0" x2="0.0" y2="-12.88" />
      <line x1="0.0" y1="0.0" x2="0.0" y2="12.88" />
      <line x1="31.9957" y1="0.0" x2="11.12" y2="0.0" />
      <line x1="31.9957" y1="0.0" x2="52.8714" y2="0.0" />
    </g>
  </g>
</svg>