<?xml version='1.0' encoding='utf-8'?>
<svg width="70.1395mm" height="30.16mm" viewBox="-15.08 -15.08 70.1395 30.16" version="1.1" xmlns="http://www.w3.org/2000/svg">
  <g transform="scale(1,-1)" stroke-linecap="round">
    <g fill="none" stroke="rgb(0,0,0)" stroke-width="0.4" id="Visible">
      <path d="M 0.0,10.0 L -0.8716,9.9619 L -1.7365,9.8481 L -2.5882,9.6593 L -3.4202,9.3969 L -4.2262,9.0631 L -5.0,8.6603 L -5.7358,8.1915 L -6.4279,7.6604 L -7.0711,7.0711 L -7.6604,6.4279 L -8.1915,5.7358 L -8.6603,5.0 L -9.0631,4.2262 L -9.3969,3.4202 L -9.6593,2.5882 L -9.8481,1.7365 L -9.9619,0.8716 L -10.0,0.0 L -9.9619,-0.8716 L -9.8481,-1.7365 L -9.6593,-2.5882 L -9.3969,-3.4202 L -9.0631,-4.2262 L -8.6603,-5.0 L -8.1915,-5.7358 L -7.6604,-6.4279 L -7.0711,-7.0711 L -6.4279,-7.6604 L -5.7358,-8.1915 L -5.0,-8.6603 L -4.2262,-9.0631 L -3.4202,-9.3969 L -2.5882,-9.6593 L -1.7365,-9.8481 L -0.8716,-9.9619 L -0.0,-10.0 L 0.8716,-9.9619 L 1.7365,-9.8481 L 2.5882,-9.6593 L 3.4202,-9.3969 L 4.2262,-9.0631 L 5.0,-8.6603 L 5.7358,-8.1915 L 6.4279,-7.6604 L 7.0711,-7.0711 L 7.6604,-6.4279 L 8.1915,-5.7358 L 8.6603,-5.0 L 9.0631,-4.2262 L 9.3969,-3.4202 L 9.6593,-2.5882 L 9.8481,-1.7365 L 9.9619,-0.8716 L 10.0,-0.0 L 9.9619,0.8716 L 9.8481,1.7365 L 9.6593,2.5882 L 9.3969,3.4202 L 9.0631,4.2262 L 8.6603,5.0 L 8.1915,5.7358 L 7.6604,6.4279 L 7.0711,7.0711 L 6.4279,7.6604 L 5.7358,8.1915 L 5.0,8.6603 L 4.2262,9.0631 L 3.4202,9.3969 L 2.5882,9.6593 L 1.7365,9.8481 L 0.8716,9.9619 L 0.0,10.0" />
      <path d="M -7.1141,1.25 L -7.0153,1.25 L -6.9165,1.25 L -6.8177,1.25 L -6.7189,1.25 L -6.6201,1.25 L -6.5213,1.25 L -6.4225,1.25 L -6.3237,1.25 L -6.2249,1.25 L -6.1261,1.25 L -6.0272,1.25 L -5.9284,1.25 L -5.8296,1.25 L -5.7308,1.25 L -5.632,1.25 L -5.5332,1.25 L -5.4344,1.25 L -5.3356,1.25 L -5.2368,1.25 L -5.138,1.25 L -5.0392,1.25 L -4.9404,1.25 L -4.8416,1.25 L -4.7428,1.25 L -4.6439,1.25 L -4.5451,1.25 L -4.4463,1.25 L -4.3475,1.25 L -4.2487,1.25 L -4.1499,1.25 L -4.0511,1.25 L -3.9523,1.25 L -3.8535,1.25 L -3.7547,1.25 L -3.6559,1.25 L -3.5571,1.25 L -3.4583,1.25 L -3.3594,1.25 L -3.2606,1.25 L -3.1618,1.25 L -3.063,1.25 L -2.9642,1.25 L -2.8654,1.25 L -2.7666,1.25 L -2.6678,1.25 L -2.569,1.25 L -2.4702,1.25 L -2.3714,1.25 L -2.2726,1.25 L -2.1738,1.25 L -2.075,1.25 L -1.9761,1.25 L -1.8773,1.25 L -1.7785,1.25 L -1.6797,1.25 L -1.5809,1.25 L -1.4821,1.25 L -1.3833,1.25 L -1.2845,1.25 L -1.1857,1.25 L -1.0869,1.25 L -0.9881,1.25 L -0.8893,1.25 L -0.7905,1.25 L -0.6917,1.25 L -0.5928,1.25 L -0.494,1.25 L -0.3952,1.25 L -0.2964,1.25 L -0.1976,1.25 L -0.0988,1.25 L 0.0,1.25" />
      <path d="M -7.1141,1.25 L -7.1201,1.2156 L -7.1259,1.1812 L -7.1315,1.1468 L -7.137,1.1123 L -7.1422,1.0778 L -7.1474,1.0433 L -7.1523,1.0087 L -7.1571,0.9742 L -7.1617,0.9396 L -7.1662,0.905 L -7.1705,0.8703 L -7.1746,0.8357 L -7.1786,0.801 L -7.1823,0.7663 L -7.186,0.7316 L -7.1894,0.6969 L -7.1927,0.6621 L -7.1958,0.6274 L -7.1988,0.5926 L -7.2015,0.5578 L -7.2042,0.523 L -7.2066,0.4882 L -7.2089,0.4534 L -7.211,0.4185 L -7.2129,0.3837 L -7.2147,0.3488 L -7.2163,0.314 L -7.2177,0.2791 L -7.219,0.2442 L -7.2201,0.2094 L -7.221,0.1745 L -7.2218,0.1396 L -7.2224,0.1047 L -7.2228,0.0698 L -7.223,0.0349 L -7.2231,0.0 L -7.223,-0.0349 L -7.2228,-0.0698 L -7.2224,-0.1047 L -7.2218,-0.1396 L -7.221,-0.1745 L -7.2201,-0.2094 L -7.219,-0.2442 L -7.2177,-0.2791 L -7.2163,-0.314 L -7.2147,-0.3488 L -7.2129,-0.3837 L -7.211,-0.4185 L -7.2089,-0.4534 L -7.2066,-0.4882 L -7.2042,-0.523 L -7.2015,-0.5578 L -7.1988,-0.5926 L -7.1958,-0.6274 L -7.1927,-0.6621 L -7.1894,-0.6969 L -7.186,-0.7316 L -7.1823,-0.7663 L -7.1786,-0.801 L -7.1746,-0.8357 L -7.1705,-0.8703 L -7.1662,-0.905 L -7.1617,-0.9396 L -7.1571,-0.9742 L -7.1523,-1.0087 L -7.1474,-1.0433 L -7.1422,-1.0778 L -7.137,-1.1123 L -7.1315,-1.1468 L -7.1259,-1.1812 L -7.1201,-1.2156 L -7.1141,-1.25" />
      <path d="M -7.1141,-1.25 L -6.9165,-1.25 L -6.7189,-1.25 L -6.5213,-1.25 L -6.3237,-1.25 L -6.1261,-1.25 L -5.9284,-1.25 L -5.7308,-1.25 L -5.5332,-1.25 L -5.3356,-1.25 L -5.138,-1.25 L -4.9404,-1.25 L -4.7428,-1.25 L -4.5451,-1.25 L -4.3475,-1.25 L -4.1499,-1.25 L -3.9523,-1.25 L -3.7547,-1.25 L -3.5571,-1.25 L -3.3594,-1.25 L -3.1618,-1.25 L -2.9642,-1.25 L -2.7666,-1.25 L -2.569,-1.25 L -2.3714,-1.25 L -2.1738,-1.25 L -1.9761,-1.25 L -1.7785,-1.25 L -1.5809,-1.25 L -1.3833,-1.25 L -1.1857,-1.25 L -0.9881,-1.25 L -0.7905,-1.25 L -0.5928,-1.25 L -0.3952,-1.25 L -0.1976,-1.25 L 0.0,-1.25 L 0.1976,-1.25 L 0.3952,-1.25 L 0.5928,-1.25 L 0.7905,-1.25 L 0.9881,-1.25 L 1.1857,-1.25 L 1.3833,-1.25 L 1.5809,-1.25 L 1.7785,-1.25 L 1.9761,-1.25 L 2.1738,-1.25 L 2.3714,-1.25 L 2.569,-1.25 L 2.7666,-1.25 L 2.9642,-1.25 L 3.1618,-1.25 L 3.3594,-1.25 L 3.5571,-1.25 L 3.7547,-1.25 L 3.9523,-1.25 L 4.1499,-1.25 L 4.3475,-1.25 L 4.5451,-1.25 L 4.7428,-1.25 L 4.9404,-1.25 L 5.138,-1.25 L 5.3356,-1.25 L 5.5332,-1.25 L 5.7308,-1.25 L 5.9284,-1.25 L 6.1261,-1.25 L 6.3237,-1.25 L 6.5213,-1.25 L 6.7189,-1.25 L 6.9165,-1.25 L 7.1141,-1.25" />
      <path d="M 7.1141,-1.25 L 7.1201,-1.2156 L 7.1259,-1.1812 L 7.1315,-1.1468 L 7.137,-1.1123 L 7.1422,-1.0778 L 7.1474,-1.0433 L 7.1523,-1.0087 L 7.1571,-0.9742 L 7.1617,-0.9396 L 7.1662,-0.905 L 7.1705,-0.8703 L 7.1746,-0.8357 L 7.1786,-0.801 L 7.1823,-0.7663 L 7.186,-0.7316 L 7.1894,-0.6969 L 7.1927,-0.6621 L 7.1958,-0.6274 L 7.1988,-0.5926 L 7.2015,-0.5578 L 7.2042,-0.523 L 7.2066,-0.4882 L 7.2089,-0.4534 L 7.211,-0.4185 L 7.2129,-0.3837 L 7.2147,-0.3488 L 7.2163,-0.314 L 7.2177,-0.2791 L 7.219,-0.2442 L 7.2201,-0.2094 L 7.221,-0.1745 L 7.2218,-0.1396 L 7.2224,-0.1047 L 7.2228,-0.0698 L 7.223,-0.0349 L 7.2231,-0.0 L 7.223,0.0349 L 7.2228,0.0698 L 7.2224,0.1047 L 7.2218,0.1396 L 7.221,0.1745 L 7.2201,0.2094 L 7.219,0.2442 L 7.2177,0.2791 L 7.2163,0.314 L 7.2147,0.3488 L 7.2129,0.3837 L 7.211,0.4185 L 7.2089,0.4534 L 7.2066,0.4882 L 7.2042,0.523 L 7.2015,0.5578 L 7.1988,0.5926 L 7.1958,0.6274 L 7.1927,0.6621 L 7.1894,0.6969 L 7.186,0.7316 L 7.1823,0.7663 L 7.1786,0.801 L 7.1746,0.8357 L 7.1705,0.8703 L 7.1662,0.905 L 7.1617,0.9396 L 7.1571,0.9742 L 7.1523,1.0087 L 7.1474,1.0433 L 7.1422,1.0778 L 7.137,1.1123 L 7.1315,1.1468 L 7.1259,1.1812 L 7.1201,1.2156 L 7.1141,1.25" />
      <path d="M 0.0,1.25 L 0.0988,1.25 L 0.1976,1.25 L 0.2964,1.25 L 0.3952,1.25 L 0.494,1.25 L 0.5928,1.25 L 0.6917,1.25 L 0.7905,1.25 L 0.8893,1.25 L 0.9881,1.25 L 1.0869,1.25 L 1.1857,1.25 L 1.2845,1.25 L 1.3833,1.25 L 1.4821,1.25 L 1.5809,1.25 L 1.6797,1.25 L 1.7785,1.25 L 1.8773,1.25 L 1.9761,1.25 L 2.075,1.25 L 2.1738,1.25 L 2.2726,1.25 L 2.3714,1.25 L 2.4702,1.25 L 2.569,1.25 L 2.6678,1.25 L 2.7666,1.25 L 2.8654,1.25 L 2.9642,1.25 L 3.063,1.25 L 3.1618,1.25 L 3.2606,1.25 L 3.3594,1.25 L 3.4583,1.25 L 3.5571,1.25 L 3.6559,1.25 L 3.7547,1.25 L 3.8535,1.25 L 3.9523,1.25 L 4.0511,1.25 L 4.1499,1.25 L 4.2487,1.25 L 4.3475,1.25 L 4.4463,1.25 L 4.5451,1.25 L 4.6439,1.25 L 4.7428,1.25 L 4.8416,1.25 L 4.9404,1.25 L 5.0392,1.25 L 5.138,1.25 L 5.2368,1.25 L 5.3356,1.25 L 5.4344,1.25 L 5.5332,1.25 L 5.632,1.25 L 5.7308,1.25 L 5.8296,1.25 L 5.9284,1.25 L 6.0272,1.25 L 6.1261,1.25 L 6.2249,1.25 L 6.3237,1.25 L 6.4225,1.25 L 6.5213,1.25 L 6.6201,1.25 L 6.7189,1.25 L 6.8177,1.25 L 6.9165,1.25 L 7.0153,1.25 L 7.1141,1.25" />
      <path d="M 7.1141,-1.25 L 6.9165,-1.25 L 6.7189,-1.25 L 6.5213,-1.25 L 6.3237,-1.25 L 6.1261,-1.25 L 5.9284,-1.25 L 5.7308,-1.25 L 5.5332,-1.25 L 5.3356,-1.25 L 5.138,-1.25 L 4.9404,-1.25 L 4.7428,-1.25 L 4.5451,-1.25 L 4.3475,-1.25 L 4.1499,-1.25 L 3.9523,-1.25 L 3.7547,-1.25 L 3.5571,-1.25 L 3.3594,-1.25 L 3.1618,-1.25 L 2.9642,-1.25 L 2.7666,-1.25 L 2.569,-1.25 L 2.3714,-1.25 L 2.1738,-1.25 L 1.9761,-1.25 L 1.7785,-1.25 L 1.5809,-1.25 L 1.3833,-1.25 L 1.1857,-1.25 L 0.9881,-1.25 L 0.7905,-1.25 L 0.5928,-1.25 L 0.3952,-1.25 L 0.1976,-1.25 L 0.0,-1.25 L -0.1976,-1.25 L -0.3952,-1.25 L -0.5928,-1.25 L -0.7905,-1.25 L -0.9881,-1.25 L -1.1857,-1.25 L -1.3833,-1.25 L -1.5809,-1.25 L -1.7785,-1.25 L -1.9761,-1.25 L -2.1738,-1.25 L -2.3714,-1.25 L -2.569,-1.25 L -2.7666,-1.25 L -2.9642,-1.25 L -3.1618,-1.25 L -3.3594,-1.25 L -3.5571,-1.25 L -3.7547,-1.25 L -3.9523,-1.25 L -4.1499,-1.25 L -4.3475,-1.25 L -4.5451,-1.25 L -4.7428,-1.25 L -4.9404,-1.25 L -5.138,-1.25 L -5.3356,-1.25 L -5.5332,-1.25 L -5.7308,-1.25 L -5.9284,-1.25 L -6.1261,-1.25 L -6.3237,-1.25 L -6.5213,-1.25 L -6.7189,-1.25 L -6.9165,-1.25 L -7.1141,-1.25" />
      <path d="M 19.9311,10.0 L 19.931,10.0 L 19.9309,10.0 L 19.9308,10.0 L 19.9308,9.9999 L 19.9307,9.9999 L 19.9306,9.9999" />
      <path d="M 19.9306,-9.9999 L 19.9544,-9.7249 L 19.9638,-9.4472 L 19.9709,-9.1695 L 19.9768,-8.8917 L 19.9818,-8.6139 L 19.9862,-8.3361 L 19.9902,-8.0582 L 19.9938,-7.7804 L 19.9971,-7.5025 L 20.0001,-7.2247 L 20.0029,-6.9469 L 20.0054,-6.669 L 20.0078,-6.3912 L 20.0101,-6.1133 L 20.0121,-5.8354 L 20.014,-5.5576 L 20.0158,-5.2797 L 20.0175,-5.0019 L 20.019,-4.724 L 20.0205,-4.4462 L 20.0218,-4.1683 L 20.023,-3.8905 L 20.0241,-3.6126 L 20.0252,-3.3348 L 20.0261,-3.0569 L 20.0269,-2.7791 L 20.0277,-2.5012 L 20.0284,-2.2233 L 20.029,-1.9455 L 20.0295,-1.6676 L 20.0299,-1.3898 L 20.0302,-1.1119 L 20.0305,-0.8341 L 20.0307,-0.5562 L 20.0308,-0.2784 L 20.0309,-0.0005 L 20.0308,0.2773 L 20.0307,0.5552 L 20.0305,0.833 L 20.0302,1.1109 L 20.0299,1.3887 L 20.0295,1.6666 L 20.029,1.9444 L 20.0284,2.2223 L 20.0277,2.5001 L 20.0269,2.778 L 20.0261,3.0558 L 20.0252,3.3337 L 20.0241,3.6115 L 20.023,3.8894 L 20.0218,4.1672 L 20.0205,4.4451 L 20.019,4.7229 L 20.0175,5.0008 L 20.0158,5.2786 L 20.014,5.5565 L 20.0121,5.8343 L 20.0101,6.1121 L 20.0078,6.39 L 20.0055,6.6678 L 20.0029,6.9457 L 20.0001,7.2235 L 19.9971,7.5013 L 19.9938,7.7792 L 19.9902,8.057 L 19.9862,8.3348 L 19.9818,8.6126 L 19.9768,8.8904 L 19.9709,9.1682 L 19.9639,9.446 L 19.9544,9.7237 L 19.9311,10.0" />
      <path d="M 16.4603,1.25 L 16.4262,1.25 L 16.392,1.25 L 16.3578,1.25 L 16.3236,1.25 L 16.2895,1.25 L 16.2553,1.25 L 16.2211,1.25 L 16.187,1.25 L 16.1528,1.25 L 16.1186,1.25 L 16.0844,1.25 L 16.0503,1.25 L 16.0161,1.25 L 15.9819,1.25 L 15.9478,1.25 L 15.9136,1.25 L 15.8794,1.25 L 15.8452,1.25 L 15.8111,1.25 L 15.7769,1.25 L 15.7427,1.25 L 15.7086,1.25 L 15.6744,1.25 L 15.6402,1.25 L 15.6061,1.25 L 15.5719,1.25 L 15.5377,1.25 L 15.5035,1.25 L 15.4694,1.25 L 15.4352,1.25 L 15.401,1.25 L 15.3669,1.25 L 15.3327,1.25 L 15.2985,1.25 L 15.2643,1.25 L 15.2302,1.25 L 15.196,1.25 L 15.1618,1.25 L 15.1277,1.25 L 15.0935,1.25 L 15.0593,1.25 L 15.0251,1.25 L 14.991,1.25 L 14.9568,1.25 L 14.9226,1.25 L 14.8885,1.25 L 14.8543,1.25 L 14.8201,1.25 L 14.7859,1.25 L 14.7518,1.25 L 14.7176,1.25 L 14.6834,1.25 L 14.6493,1.25 L 14.6151,1.25 L 14.5809,1.25 L 14.5467,1.25 L 14.5126,1.25 L 14.4784,1.25 L 14.4442,1.25 L 14.4101,1.25 L 14.3759,1.25 L 14.3417,1.25 L 14.3075,1.25 L 14.2734,1.25 L 14.2392,1.25 L 14.205,1.25 L 14.1709,1.25 L 14.1367,1.25 L 14.1025,1.25 L 14.0683,1.25 L 14.0342,1.25 L 14.0,1.25" />
      <path d="M 14.0,1.25 L 14.0001,1.25 L 14.0002,1.25 L 14.0003,1.25 L 14.0004,1.25 L 14.0005,1.25 L 14.0006,1.25" />
      <path d="M 16.4603,1.25 L 16.4603,1.2153 L 16.4602,1.1806 L 16.4602,1.1458 L 16.4601,1.1111 L 16.46,1.0764 L 16.46,1.0417 L 16.4599,1.0069 L 16.4599,0.9722 L 16.4599,0.9375 L 16.4598,0.9028 L 16.4598,0.8681 L 16.4597,0.8333 L 16.4597,0.7986 L 16.4596,0.7639 L 16.4596,0.7292 L 16.4596,0.6944 L 16.4595,0.6597 L 16.4595,0.625 L 16.4595,0.5903 L 16.4595,0.5556 L 16.4594,0.5208 L 16.4594,0.4861 L 16.4594,0.4514 L 16.4594,0.4167 L 16.4593,0.3819 L 16.4593,0.3472 L 16.4593,0.3125 L 16.4593,0.2778 L 16.4593,0.2431 L 16.4593,0.2083 L 16.4593,0.1736 L 16.4593,0.1389 L 16.4593,0.1042 L 16.4592,0.0694 L 16.4592,0.0347 L 16.4592,0.0 L 16.4592,-0.0347 L 16.4592,-0.0694 L 16.4593,-0.1042 L 16.4593,-0.1389 L 16.4593,-0.1736 L 16.4593,-0.2083 L 16.4593,-0.2431 L 16.4593,-0.2778 L 16.4593,-0.3125 L 16.4593,-0.3472 L 16.4593,-0.3819 L 16.4594,-0.4167 L 16.4594,-0.4514 L 16.4594,-0.4861 L 16.4594,-0.5208 L 16.4595,-0.5556 L 16.4595,-0.5903 L 16.4595,-0.625 L 16.4595,-0.6597 L 16.4596,-0.6944 L 16.4596,-0.7292 L 16.4596,-0.7639 L 16.4597,-0.7986 L 16.4597,-0.8333 L 16.4598,-0.8681 L 16.4598,-0.9028 L 16.4599,-0.9375 L 16.4599,-0.9722 L 16.4599,-1.0069 L 16.46,-1.0417 L 16.46,-1.0764 L 16.4601,-1.1111 L 16.4602,-1.1458 L 16.4602,-1.1806 L 16.4603,-1.2153 L 16.4603,-1.25" />
      <path d="M 14.0,-1.25 L 14.0361,-1.25 L 14.0723,-1.25 L 14.1084,-1.25 L 14.1446,-1.25 L 14.1807,-1.25 L 14.2169,-1.25 L 14.253,-1.25 L 14.2891,-1.25 L 14.3253,-1.25 L 14.3614,-1.25 L 14.3976,-1.25 L 14.4337,-1.25 L 14.4699,-1.25 L 14.506,-1.25 L 14.5421,-1.25 L 14.5783,-1.25 L 14.6144,-1.25 L 14.6506,-1.25 L 14.6867,-1.25 L 14.7228,-1.25 L 14.759,-1.25 L 14.7951,-1.25 L 14.8313,-1.25 L 14.8674,-1.25 L 14.9036,-1.25 L 14.9397,-1.25 L 14.9758,-1.25 L 15.012,-1.25 L 15.0481,-1.25 L 15.0843,-1.25 L 15.1204,-1.25 L 15.1566,-1.25 L 15.1927,-1.25 L 15.2288,-1.25 L 15.265,-1.25 L 15.3011,-1.25 L 15.3373,-1.25 L 15.3734,-1.25 L 15.4096,-1.25 L 15.4457,-1.25 L 15.4818,-1.25 L 15.518,-1.25 L 15.5541,-1.25 L 15.5903,-1.25 L 15.6264,-1.25 L 15.6625,-1.25 L 15.6987,-1.25 L 15.7348,-1.25 L 15.771,-1.25 L 15.8071,-1.25 L 15.8433,-1.25 L 15.8794,-1.25 L 15.9155,-1.25 L 15.9517,-1.25 L 15.9878,-1.25 L 16.024,-1.25 L 16.0601,-1.25 L 16.0963,-1.25 L 16.1324,-1.25 L 16.1685,-1.25 L 16.2047,-1.25 L 16.2408,-1.25 L 16.277,-1.25 L 16.3131,-1.25 L 16.3493,-1.25 L 16.3854,-1.25 L 16.4215,-1.25 L 16.4577,-1.25 L 16.4938,-1.25 L 16.53,-1.25 L 16.5661,-1.25 L 16.6022,-1.25" />
      <path d="M 16.6022,-1.25 L 16.6023,-1.2153 L 16.6024,-1.1806 L 16.6024,-1.1458 L 16.6025,-1.1111 L 16.6025,-1.0764 L 16.6026,-1.0417 L 16.6026,-1.0069 L 16.6027,-0.9722 L 16.6027,-0.9375 L 16.6028,-0.9028 L 16.6028,-0.8681 L 16.6029,-0.8333 L 16.6029,-0.7986 L 16.6029,-0.7639 L 16.603,-0.7292 L 16.603,-0.6944 L 16.603,-0.6597 L 16.6031,-0.625 L 16.6031,-0.5903 L 16.6031,-0.5556 L 16.6031,-0.5208 L 16.6032,-0.4861 L 16.6032,-0.4514 L 16.6032,-0.4167 L 16.6032,-0.3819 L 16.6033,-0.3472 L 16.6033,-0.3125 L 16.6033,-0.2778 L 16.6033,-0.2431 L 16.6033,-0.2083 L 16.6033,-0.1736 L 16.6033,-0.1389 L 16.6033,-0.1042 L 16.6033,-0.0694 L 16.6033,-0.0347 L 16.6033,0.0 L 16.6033,0.0347 L 16.6033,0.0694 L 16.6033,0.1042 L 16.6033,0.1389 L 16.6033,0.1736 L 16.6033,0.2083 L 16.6033,0.2431 L 16.6033,0.2778 L 16.6033,0.3125 L 16.6033,0.3472 L 16.6032,0.3819 L 16.6032,0.4167 L 16.6032,0.4514 L 16.6032,0.4861 L 16.6031,0.5208 L 16.6031,0.5556 L 16.6031,0.5903 L 16.6031,0.625 L 16.603,0.6597 L 16.603,0.6944 L 16.603,0.7292 L 16.6029,0.7639 L 16.6029,0.7986 L 16.6029,0.8333 L 16.6028,0.8681 L 16.6028,0.9028 L 16.6027,0.9375 L 16.6027,0.9722 L 16.6026,1.0069 L 16.6026,1.0417 L 16.6025,1.0764 L 16.6025,1.1111 L 16.6024,1.1458 L 16.6024,1.1806 L 16.6023,1.2153 L 16.6022,1.25" />
      <path d="M 14.0006,1.25 L 14.0367,1.25 L 14.0728,1.25 L 14.109,1.25 L 14.1451,1.25 L 14.1812,1.25 L 14.2174,1.25 L 14.2535,1.25 L 14.2896,1.25 L 14.3258,1.25 L 14.3619,1.25 L 14.398,1.25 L 14.4342,1.25 L 14.4703,1.25 L 14.5064,1.25 L 14.5426,1.25 L 14.5787,1.25 L 14.6148,1.25 L 14.651,1.25 L 14.6871,1.25 L 14.7233,1.25 L 14.7594,1.25 L 14.7955,1.25 L 14.8317,1.25 L 14.8678,1.25 L 14.9039,1.25 L 14.9401,1.25 L 14.9762,1.25 L 15.0123,1.25 L 15.0485,1.25 L 15.0846,1.25 L 15.1207,1.25 L 15.1569,1.25 L 15.193,1.25 L 15.2291,1.25 L 15.2653,1.25 L 15.3014,1.25 L 15.3375,1.25 L 15.3737,1.25 L 15.4098,1.25 L 15.4459,1.25 L 15.4821,1.25 L 15.5182,1.25 L 15.5543,1.25 L 15.5905,1.25 L 15.6266,1.25 L 15.6627,1.25 L 15.6989,1.25 L 15.735,1.25 L 15.7712,1.25 L 15.8073,1.25 L 15.8434,1.25 L 15.8796,1.25 L 15.9157,1.25 L 15.9518,1.25 L 15.988,1.25 L 16.0241,1.25 L 16.0602,1.25 L 16.0964,1.25 L 16.1325,1.25 L 16.1686,1.25 L 16.2048,1.25 L 16.2409,1.25 L 16.277,1.25 L 16.3132,1.25 L 16.3493,1.25 L 16.3854,1.25 L 16.4216,1.25 L 16.4577,1.25 L 16.4938,1.25 L 16.53,1.25 L 16.5661,1.25 L 16.6022,1.25" />
      <path d="M 49.9296,-5.0 L 49.9413,-4.8622 L 49.946,-4.7233 L 49.9495,-4.5844 L 49.9525,-4.4456 L 49.955,-4.3067 L 49.9572,-4.1677 L 49.9592,-4.0288 L 49.961,-3.8899 L 49.9626,-3.751 L 49.9641,-3.6121 L 49.9655,-3.4732 L 49.9668,-3.3343 L 49.968,-3.1953 L 49.9691,-3.0564 L 49.9701,-2.9175 L 49.9711,-2.7786 L 49.972,-2.6397 L 49.9728,-2.5007 L 49.9736,-2.3618 L 49.9743,-2.2229 L 49.975,-2.084 L 49.9756,-1.9451 L 49.9761,-1.8061 L 49.9766,-1.6672 L 49.9771,-1.5283 L 49.9775,-1.3894 L 49.9779,-1.2504 L 49.9783,-1.1115 L 49.9785,-0.9726 L 49.9788,-0.8337 L 49.979,-0.6948 L 49.9792,-0.5558 L 49.9793,-0.4169 L 49.9794,-0.278 L 49.9795,-0.1391 L 49.9795,-0.0001 L 49.9795,0.1388 L 49.9794,0.2777 L 49.9793,0.4166 L 49.9792,0.5555 L 49.979,0.6945 L 49.9788,0.8334 L 49.9785,0.9723 L 49.9783,1.1112 L 49.9779,1.2502 L 49.9775,1.3891 L 49.9771,1.528 L 49.9766,1.6669 L 49.9761,1.8058 L 49.9756,1.9448 L 49.975,2.0837 L 49.9743,2.2226 L 49.9736,2.3615 L 49.9728,2.5004 L 49.972,2.6394 L 49.9711,2.7783 L 49.9701,2.9172 L 49.9691,3.0561 L 49.968,3.195 L 49.9668,3.334 L 49.9655,3.4729 L 49.9641,3.6118 L 49.9626,3.7507 L 49.961,3.8896 L 49.9592,4.0285 L 49.9572,4.1674 L 49.955,4.3063 L 49.9525,4.4452 L 49.9495,4.5841 L 49.946,4.723 L 49.9413,4.8619 L 49.9296,5.0" />
      <path d="M 20.0175,5.0 L 20.4329,5.0 L 20.8484,5.0 L 21.2638,5.0 L 21.6793,5.0 L 22.0947,5.0 L 22.5102,5.0 L 22.9256,5.0 L 23.3411,5.0 L 23.7565,5.0 L 24.172,5.0 L 24.5874,5.0 L 25.0029,5.0 L 25.4183,5.0 L 25.8337,5.0 L 26.2492,5.0 L 26.6646,5.0 L 27.0801,5.0 L 27.4955,5.0 L 27.911,5.0 L 28.3264,5.0 L 28.7419,5.0 L 29.1573,5.0 L 29.5728,5.0 L 29.9882,5.0 L 30.4037,5.0 L 30.8191,5.0 L 31.2345,5.0 L 31.65,5.0 L 32.0654,5.0 L 32.4809,5.0 L 32.8963,5.0 L 33.3118,5.0 L 33.7272,5.0 L 34.1427,5.0 L 34.5581,5.0 L 34.9736,5.0 L 35.389,5.0 L 35.8045,5.0 L 36.2199,5.0 L 36.6353,5.0 L 37.0508,5.0 L 37.4662,5.0 L 37.8817,5.0 L 38.2971,5.0 L 38.7126,5.0 L 39.128,5.0 L 39.5435,5.0 L 39.9589,5.0 L 40.3744,5.0 L 40.7898,5.0 L 41.2053,5.0 L 41.6207,5.0 L 42.0361,5.0 L 42.4516,5.0 L 42.867,5.0 L 43.2825,5.0 L 43.6979,5.0 L 44.1134,5.0 L 44.5288,5.0 L 44.9443,5.0 L 45.3597,5.0 L 45.7752,5.0 L 46.1906,5.0 L 46.6061,5.0 L 47.0215,5.0 L 47.437,5.0 L 47.8524,5.0 L 48.2678,5.0 L 48.6833,5.0 L 49.0987,5.0 L 49.5142,5.0 L 49.9296,5.0" />
      <path d="M 14.0,-1.25 L 14.0179,-1.4017 L 14.0378,-1.5531 L 14.0597,-1.7043 L 14.0837,-1.8551 L 14.1097,-2.0056 L 14.1378,-2.1557 L 14.1678,-2.3055 L 14.1999,-2.4548 L 14.234,-2.6037 L 14.2701,-2.7521 L 14.3082,-2.9 L 14.3482,-3.0474 L 14.3903,-3.1942 L 14.4343,-3.3404 L 14.4803,-3.4861 L 14.5283,-3.6311 L 14.5782,-3.7754 L 14.63,-3.9191 L 14.6838,-4.062 L 14.7395,-4.2042 L 14.7971,-4.3457 L 14.8566,-4.4863 L 14.918,-4.6262 L 14.9813,-4.7652 L 15.0465,-4.9033 L 15.1135,-5.0406 L 15.1823,-5.1769 L 15.253,-5.3123 L 15.3255,-5.4467 L 15.3998,-5.5802 L 15.4759,-5.7126 L 15.5538,-5.844 L 15.6334,-5.9743 L 15.7148,-6.1035 L 15.7979,-6.2317 L 15.8827,-6.3587 L 15.9693,-6.4845 L 16.0575,-6.6092 L 16.1474,-6.7327 L 16.239,-6.8549 L 16.3322,-6.9759 L 16.427,-7.0956 L 16.5234,-7.2141 L 16.6214,-7.3312 L 16.721,-7.447 L 16.8221,-7.5615 L 16.9248,-7.6746 L 17.029,-7.7862 L 17.1346,-7.8965 L 17.2418,-8.0053 L 17.3504,-8.1127 L 17.4604,-8.2186 L 17.5719,-8.3231 L 17.6848,-8.426 L 17.799,-8.5273 L 17.9146,-8.6272 L 18.0315,-8.7254 L 18.1498,-8.8221 L 18.2693,-8.9172 L 18.3901,-9.0106 L 18.5121,-9.1024 L 18.6354,-9.1926 L 18.7599,-9.2811 L 18.8856,-9.3679 L 19.0124,-9.453 L 19.1403,-9.5364 L 19.2694,-9.6181 L 19.3996,-9.698 L 19.5308,-9.7761 L 19.663,-9.8525 L 19.7963,-9.9271 L 19.9306,-9.9999" />
      <path d="M 19.9306,9.9999 L 19.7963,9.9271 L 19.663,9.8525 L 19.5308,9.7761 L 19.3996,9.698 L 19.2694,9.6181 L 19.1403,9.5364 L 19.0124,9.453 L 18.8856,9.3679 L 18.7599,9.2811 L 18.6354,9.1926 L 18.5121,9.1024 L 18.3901,9.0106 L 18.2693,8.9172 L 18.1498,8.8221 L 18.0315,8.7254 L 17.9146,8.6272 L 17.799,8.5273 L 17.6848,8.426 L 17.5719,8.3231 L 17.4604,8.2186 L 17.3504,8.1127 L 17.2418,8.0053 L 17.1346,7.8965 L 17.029,7.7862 L 16.9248,7.6746 L 16.8221,7.5615 L 16.721,7.447 L 16.6214,7.3312 L 16.5234,7.2141 L 16.427,7.0956 L 16.3322,6.9759 L 16.239,6.8549 L 16.1474,6.7327 L 16.0575,6.6092 L 15.9693,6.4845 L 15.8827,6.3587 L 15.7979,6.2317 L 15.7148,6.1035 L 15.6334,5.9743 L 15.5538,5.844 L 15.4759,5.7126 L 15.3998,5.5802 L 15.3255,5.4467 L 15.253,5.3123 L 15.1823,5.1769 L 15.1135,5.0406 L 15.0465,4.9033 L 14.9813,4.7652 L 14.918,4.6262 L 14.8566,4.4863 L 14.7971,4.3457 L 14.7395,4.2042 L 14.6838,4.062 L 14.63,3.9191 L 14.5782,3.7754 L 14.5283,3.6311 L 14.4803,3.4861 L 14.4343,3.3404 L 14.3903,3.1942 L 14.3482,3.0474 L 14.3082,2.9 L 14.2701,2.7521 L 14.234,2.6037 L 14.1999,2.4548 L 14.1678,2.3055 L 14.1378,2.1557 L 14.1097,2.0056 L 14.0837,1.8551 L 14.0597,1.7043 L 14.0378,1.5531 L 14.0179,1.4017 L 14.0,1.25" />
      <path d="M 20.0175,-5.0 L 20.4329,-5.0 L 20.8484,-5.0 L 21.2638,-5.0 L 21.6793,-5.0 L 22.0947,-5.0 L 22.5102,-5.0 L 22.9256,-5.0 L 23.3411,-5.0 L 23.7565,-5.0 L 24.172,-5.0 L 24.5874,-5.0 L 25.0029,-5.0 L 25.4183,-5.0 L 25.8337,-5.0 L 26.2492,-5.0 L 26.6646,-5.0 L 27.0801,-5.0 L 27.4955,-5.0 L 27.911,-5.0 L 28.3264,-5.0 L 28.7419,-5.0 L 29.1573,-5.0 L 29.5728,-5.0 L 29.9882,-5.0 L 30.4037,-5.0 L 30.8191,-5.0 L 31.2345,-5.0 L 31.65,-5.0 L 32.0654,-5.0 L 32.4809,-5.0 L 32.8963,-5.0 L 33.3118,-5.0 L 33.7272,-5.0 L 34.1427,-5.0 L 34.5581,-5.0 L 34.9736,-5.0 L 35.389,-5.0 L 35.8045,-5.0 L 36.2199,-5.0 L 36.6353,-5.0 L 37.0508,-5.0 L 37.4662,-5.0 L 37.8817,-5.0 L 38.2971,-5.0 L 38.7126,-5.0 L 39.128,-5.0 L 39.5435,-5.0 L 39.9589,-5.0 L 40.3744,-5.0 L 40.7898,-5.0 L 41.2053,-5.0 L 41.6207,-5.0 L 42.0361,-5.0 L 42.4516,-5.0 L 42.867,-5.0 L 43.2825,-5.0 L 43.6979,-5.0 L 44.1134,-5.0 L 44.5288,-5.0 L 44.9443,-5.0 L 45.3597,-5.0 L 45.7752,-5.0 L 46.1906,-5.0 L 46.6061,-5.0 L 47.0215,-5.0 L 47.437,-5.0 L 47.8524,-5.0 L 48.2678,-5.0 L 48.6833,-5.0 L 49.0987,-5.0 L 49.5142,-5.0 L 49.9296,-5.0" />
    </g>
    <g fill="none" stroke="rgb(110,110,110)" stroke-width="0.3" id="Hidden" stroke-dasharray="3.6 0.9">
      <path d="M 0.0,5.0 L -0.4358,4.981 L -0.8682,4.924 L -1.2941,4.8296 L -1.7101,4.6985 L -2.1131,4.5315 L -2.5,4.3301 L -2.8679,4.0958 L -3.2139,3.8302 L -3.5355,3.5355 L -3.8302,3.2139 L -4.0958,2.8679 L -4.3301,2.5 L -4.5315,2.1131 L -4.6985,1.7101 L -4.8296,1.2941 L -4.924,0.8682 L -4.981,0.4358 L -5.0,0.0 L -4.981,-0.4358 L -4.924,-0.8682 L -4.8296,-1.2941 L -4.6985,-1.7101 L -4.5315,-2.1131 L -4.3301,-2.5 L -4.0958,-2.8679 L -3.8302,-3.2139 L -3.5355,-3.5355 L -3.2139,-3.8302 L -2.8679,-4.0958 L -2.5,-4.3301 L -2.1131,-4.5315 L -1.7101,-4.6985 L -1.2941,-4.8296 L -0.8682,-4.924 L -0.4358,-4.981 L -0.0,-5.0 L 0.4358,-4.981 L 0.8682,-4.924 L 1.2941,-4.8296 L 1.7101,-4.6985 L 2.1131,-4.5315 L 2.5,-4.3301 L 2.8679,-4.0958 L 3.2139,-3.8302 L 3.5355,-3.5355 L 3.8302,-3.2139 L 4.0958,-2.8679 L 4.3301,-2.5 L 4.5315,-2.1131 L 4.6985,-1.7101 L 4.8296,-1.2941 L 4.924,-0.8682 L 4.981,-0.4358 L 5.0,-0.0 L 4.981,0.4358 L 4.924,0.8682 L 4.8296,1.2941 L 4.6985,1.7101 L 4.5315,2.1131 L 4.3301,2.5 L 4.0958,2.8679 L 3.8302,3.2139 L 3.5355,3.5355 L 3.2139,3.8302 L 2.8679,4.0958 L 2.5,4.3301 L 2.1131,4.5315 L 1.7101,4.6985 L 1.2941,4.8296 L 0.8682,4.924 L 0.4358,4.981 L 0.0,5.0" />
      <path d="M 7.1141,1.25 L 6.9165,1.25 L 6.7189,1.25 L 6.5213,1.25 L 6.3237,1.25 L 6.1261,1.25 L 5.9284,1.25 L 5.7308,1.25 L 5.5332,1.25 L 5.3356,1.25 L 5.138,1.25 L 4.9404,1.25 L 4.7428,1.25 L 4.5451,1.25 L 4.3475,1.25 L 4.1499,1.25 L 3.9523,1.25 L 3.7547,1.25 L 3.5571,1.25 L 3.3594,1.25 L 3.1618,1.25 L 2.9642,1.25 L 2.7666,1.25 L 2.569,1.25 L 2.3714,1.25 L 2.1738,1.25 L 1.9761,1.25 L 1.7785,1.25 L 1.5809,1.25 L 1.3833,1.25 L 1.1857,1.25 L 0.9881,1.25 L 0.7905,1.25 L 0.5928,1.25 L 0.3952,1.25 L 0.1976,1.25 L 0.0,1.25 L -0.1976,1.25 L -0.3952,1.25 L -0.5928,1.25 L -0.7905,1.25 L -0.9881,1.25 L -1.1857,1.25 L -1.3833,1.25 L -1.5809,1.25 L -1.7785,1.25 L -1.9761,1.25 L -2.1738,1.25 L -2.3714,1.25 L -2.569,1.25 L -2.7666,1.25 L -2.9642,1.25 L -3.1618,1.25 L -3.3594,1.25 L -3.5571,1.25 L -3.7547,1.25 L -3.9523,1.25 L -4.1499,1.25 L -4.3475,1.25 L -4.5451,1.25 L -4.7428,1.25 L -4.9404,1.25 L -5.138,1.25 L -5.3356,1.25 L -5.5332,1.25 L -5.7308,1.25 L -5.9284,1.25 L -6.1261,1.25 L -6.3237,1.25 L -6.5213,1.25 L -6.7189,1.25 L -6.9165,1.25 L -7.1141,1.25" />
      <path d="M 0.0,5.0 L -0.4358,4.981 L -0.8682,4.924 L -1.2941,4.8296 L -1.7101,4.6985 L -2.1131,4.5315 L -2.5,4.3301 L -2.8679,4.0958 L -3.2139,3.8302 L -3.5355,3.5355 L -3.8302,3.2139 L -4.0958,2.8679 L -4.3301,2.5 L -4.5315,2.1131 L -4.6985,1.7101 L -4.8296,1.2941 L -4.924,0.8682 L -4.981,0.4358 L -5.0,0.0 L -4.981,-0.4358 L -4.924,-0.8682 L -4.8296,-1.2941 L -4.6985,-1.7101 L -4.5315,-2.1131 L -4.3301,-2.5 L -4.0958,-2.8679 L -3.8302,-3.2139 L -3.5355,-3.5355 L -3.2139,-3.8302 L -2.8679,-4.0958 L -2.5,-4.3301 L -2.1131,-4.5315 L -1.7101,-4.6985 L -1.2941,-4.8296 L -0.8682,-4.924 L -0.4358,-4.981 L -0.0,-5.0 L 0.4358,-4.981 L 0.8682,-4.924 L 1.2941,-4.8296 L 1.7101,-4.6985 L 2.1131,-4.5315 L 2.5,-4.3301 L 2.8679,-4.0958 L 3.2139,-3.8302 L 3.5355,-3.5355 L 3.8302,-3.2139 L 4.0958,-2.8679 L 4.3301,-2.5 L 4.5315,-2.1131 L 4.6985,-1.7101 L 4.8296,-1.2941 L 4.924,-0.8682 L 4.981,-0.4358 L 5.0,-0.0 L 4.981,0.4358 L 4.924,0.8682 L 4.8296,1.2941 L 4.6985,1.7101 L 4.5315,2.1131 L 4.3301,2.5 L 4.0958,2.8679 L 3.8302,3.2139 L 3.5355,3.5355 L 3.2139,3.8302 L 2.8679,4.0958 L 2.5,4.3301 L 2.1131,4.5315 L 1.7101,4.6985 L 1.2941,4.8296 L 0.8682,4.924 L 0.4358,4.981 L 0.0,5.0" />
      <path d="M 19.9306,9.9999 L 19.9078,9.7238 L 19.8984,9.4461 L 19.8913,9.1684 L 19.8855,8.8906 L 19.8804,8.6128 L 19.876,8.335 L 19.872,8.0572 L 19.8684,7.7794 L 19.8652,7.5016 L 19.8621,7.2238 L 19.8594,6.9459 L 19.8568,6.6681 L 19.8544,6.3903 L 19.8522,6.1125 L 19.8501,5.8346 L 19.8482,5.5568 L 19.8464,5.279 L 19.8447,5.0012 L 19.8432,4.7233 L 19.8418,4.4455 L 19.8405,4.1677 L 19.8392,3.8898 L 19.8381,3.612 L 19.8371,3.3342 L 19.8362,3.0563 L 19.8353,2.7785 L 19.8345,2.5007 L 19.8339,2.2229 L 19.8333,1.945 L 19.8328,1.6672 L 19.8323,1.3894 L 19.832,1.1115 L 19.8317,0.8337 L 19.8315,0.5559 L 19.8314,0.278 L 19.8314,0.0002 L 19.8314,-0.2776 L 19.8315,-0.5555 L 19.8317,-0.8333 L 19.832,-1.1111 L 19.8323,-1.389 L 19.8328,-1.6668 L 19.8333,-1.9446 L 19.8339,-2.2225 L 19.8345,-2.5003 L 19.8353,-2.7781 L 19.8362,-3.056 L 19.8371,-3.3338 L 19.8381,-3.6116 L 19.8392,-3.8895 L 19.8405,-4.1673 L 19.8418,-4.4451 L 19.8432,-4.723 L 19.8447,-5.0008 L 19.8464,-5.2786 L 19.8482,-5.5564 L 19.8501,-5.8343 L 19.8522,-6.1121 L 19.8544,-6.3899 L 19.8568,-6.6678 L 19.8594,-6.9456 L 19.8621,-7.2234 L 19.8652,-7.5012 L 19.8684,-7.779 L 19.872,-8.0568 L 19.876,-8.3346 L 19.8804,-8.6124 L 19.8855,-8.8902 L 19.8913,-9.168 L 19.8984,-9.4458 L 19.9078,-9.7234 L 19.9306,-9.9999" />
      <path d="M 16.4603,-1.25 L 16.4262,-1.25 L 16.392,-1.25 L 16.3578,-1.25 L 16.3236,-1.25 L 16.2895,-1.25 L 16.2553,-1.25 L 16.2211,-1.25 L 16.187,-1.25 L 16.1528,-1.25 L 16.1186,-1.25 L 16.0844,-1.25 L 16.0503,-1.25 L 16.0161,-1.25 L 15.9819,-1.25 L 15.9478,-1.25 L 15.9136,-1.25 L 15.8794,-1.25 L 15.8452,-1.25 L 15.8111,-1.25 L 15.7769,-1.25 L 15.7427,-1.25 L 15.7086,-1.25 L 15.6744,-1.25 L 15.6402,-1.25 L 15.6061,-1.25 L 15.5719,-1.25 L 15.5377,-1.25 L 15.5035,-1.25 L 15.4694,-1.25 L 15.4352,-1.25 L 15.401,-1.25 L 15.3669,-1.25 L 15.3327,-1.25 L 15.2985,-1.25 L 15.2643,-1.25 L 15.2302,-1.25 L 15.196,-1.25 L 15.1618,-1.25 L 15.1277,-1.25 L 15.0935,-1.25 L 15.0593,-1.25 L 15.0251,-1.25 L 14.991,-1.25 L 14.9568,-1.25 L 14.9226,-1.25 L 14.8885,-1.25 L 14.8543,-1.25 L 14.8201,-1.25 L 14.7859,-1.25 L 14.7518,-1.25 L 14.7176,-1.25 L 14.6834,-1.25 L 14.6493,-1.25 L 14.6151,-1.25 L 14.5809,-1.25 L 14.5467,-1.25 L 14.5126,-1.25 L 14.4784,-1.25 L 14.4442,-1.25 L 14.4101,-1.25 L 14.3759,-1.25 L 14.3417,-1.25 L 14.3075,-1.25 L 14.2734,-1.25 L 14.2392,-1.25 L 14.205,-1.25 L 14.1709,-1.25 L 14.1367,-1.25 L 14.1025,-1.25 L 14.0683,-1.25 L 14.0342,-1.25 L 14.0,-1.25" />
      <path d="M 19.9311,5.0 L 19.9195,4.8622 L 19.9148,4.7233 L 19.9112,4.5844 L 19.9083,4.4456 L 19.9058,4.3067 L 19.9036,4.1677 L 19.9016,4.0288 L 19.8998,3.8899 L 19.8981,3.751 L 19.8966,3.6121 L 19.8952,3.4732 L 19.894,3.3343 L 19.8928,3.1953 L 19.8917,3.0564 L 19.8906,2.9175 L 19.8897,2.7786 L 19.8888,2.6397 L 19.8879,2.5007 L 19.8872,2.3618 L 19.8864,2.2229 L 19.8858,2.084 L 19.8852,1.9451 L 19.8846,1.8061 L 19.8841,1.6672 L 19.8836,1.5283 L 19.8832,1.3894 L 19.8828,1.2504 L 19.8825,1.1115 L 19.8822,0.9726 L 19.8819,0.8337 L 19.8817,0.6948 L 19.8816,0.5558 L 19.8814,0.4169 L 19.8813,0.278 L 19.8813,0.1391 L 19.8812,0.0001 L 19.8813,-0.1388 L 19.8813,-0.2777 L 19.8814,-0.4166 L 19.8816,-0.5555 L 19.8817,-0.6945 L 19.8819,-0.8334 L 19.8822,-0.9723 L 19.8825,-1.1112 L 19.8828,-1.2502 L 19.8832,-1.3891 L 19.8836,-1.528 L 19.8841,-1.6669 L 19.8846,-1.8058 L 19.8852,-1.9448 L 19.8858,-2.0837 L 19.8864,-2.2226 L 19.8872,-2.3615 L 19.8879,-2.5004 L 19.8888,-2.6394 L 19.8897,-2.7783 L 19.8906,-2.9172 L 19.8917,-3.0561 L 19.8928,-3.195 L 19.894,-3.334 L 19.8952,-3.4729 L 19.8966,-3.6118 L 19.8981,-3.7507 L 19.8998,-3.8896 L 19.9016,-4.0285 L 19.9036,-4.1674 L 19.9058,-4.3063 L 19.9083,-4.4452 L 19.9112,-4.5841 L 19.9148,-4.723 L 19.9195,-4.8619 L 19.9311,-5.0" />
      <path d="M 19.9311,-5.0 L 19.9427,-4.8622 L 19.9475,-4.7233 L 19.951,-4.5844 L 19.9539,-4.4456 L 19.9565,-4.3067 L 19.9587,-4.1677 L 19.9607,-4.0288 L 19.9625,-3.8899 L 19.9641,-3.751 L 19.9656,-3.6121 L 19.967,-3.4732 L 19.9683,-3.3343 L 19.9695,-3.1953 L 19.9706,-3.0564 L 19.9716,-2.9175 L 19.9726,-2.7786 L 19.9735,-2.6397 L 19.9743,-2.5007 L 19.9751,-2.3618 L 19.9758,-2.2229 L 19.9765,-2.084 L 19.9771,-1.9451 L 19.9776,-1.8061 L 19.9781,-1.6672 L 19.9786,-1.5283 L 19.979,-1.3894 L 19.9794,-1.2504 L 19.9797,-1.1115 L 19.98,-0.9726 L 19.9803,-0.8337 L 19.9805,-0.6948 L 19.9807,-0.5558 L 19.9808,-0.4169 L 19.9809,-0.278 L 19.981,-0.1391 L 19.981,-0.0001 L 19.981,0.1388 L 19.9809,0.2777 L 19.9808,0.4166 L 19.9807,0.5555 L 19.9805,0.6945 L 19.9803,0.8334 L 19.98,0.9723 L 19.9797,1.1112 L 19.9794,1.2502 L 19.979,1.3891 L 19.9786,1.528 L 19.9781,1.6669 L 19.9776,1.8058 L 19.9771,1.9448 L 19.9765,2.0837 L 19.9758,2.2226 L 19.9751,2.3615 L 19.9743,2.5004 L 19.9735,2.6394 L 19.9726,2.7783 L 19.9716,2.9172 L 19.9706,3.0561 L 19.9695,3.195 L 19.9683,3.334 L 19.967,3.4729 L 19.9656,3.6118 L 19.9641,3.7507 L 19.9625,3.8896 L 19.9607,4.0285 L 19.9587,4.1674 L 19.9565,4.3063 L 19.954,4.4452 L 19.951,4.5841 L 19.9475,4.723 L 19.9428,4.8619 L 19.9311,5.0" />
      <path d="M 16.6022,1.25 L 16.6003,1.25 L 16.5983,1.25 L 16.5963,1.25 L 16.5944,1.25 L 16.5924,1.25 L 16.5904,1.25 L 16.5884,1.25 L 16.5865,1.25 L 16.5845,1.25 L 16.5825,1.25 L 16.5806,1.25 L 16.5786,1.25 L 16.5766,1.25 L 16.5747,1.25 L 16.5727,1.25 L 16.5707,1.25 L 16.5687,1.25 L 16.5668,1.25 L 16.5648,1.25 L 16.5628,1.25 L 16.5609,1.25 L 16.5589,1.25 L 16.5569,1.25 L 16.5549,1.25 L 16.553,1.25 L 16.551,1.25 L 16.549,1.25 L 16.5471,1.25 L 16.5451,1.25 L 16.5431,1.25 L 16.5411,1.25 L 16.5392,1.25 L 16.5372,1.25 L 16.5352,1.25 L 16.5333,1.25 L 16.5313,1.25 L 16.5293,1.25 L 16.5273,1.25 L 16.5254,1.25 L 16.5234,1.25 L 16.5214,1.25 L 16.5195,1.25 L 16.5175,1.25 L 16.5155,1.25 L 16.5136,1.25 L 16.5116,1.25 L 16.5096,1.25 L 16.5076,1.25 L 16.5057,1.25 L 16.5037,1.25 L 16.5017,1.25 L 16.4998,1.25 L 16.4978,1.25 L 16.4958,1.25 L 16.4938,1.25 L 16.4919,1.25 L 16.4899,1.25 L 16.4879,1.25 L 16.486,1.25 L 16.484,1.25 L 16.482,1.25 L 16.48,1.25 L 16.4781,1.25 L 16.4761,1.25 L 16.4741,1.25 L 16.4722,1.25 L 16.4702,1.25 L 16.4682,1.25 L 16.4662,1.25 L 16.4643,1.25 L 16.4623,1.25 L 16.4603,1.25" />
      <path d="M 16.6022,-1.25 L 16.6003,-1.25 L 16.5983,-1.25 L 16.5963,-1.25 L 16.5944,-1.25 L 16.5924,-1.25 L 16.5904,-1.25 L 16.5884,-1.25 L 16.5865,-1.25 L 16.5845,-1.25 L 16.5825,-1.25 L 16.5806,-1.25 L 16.5786,-1.25 L 16.5766,-1.25 L 16.5747,-1.25 L 16.5727,-1.25 L 16.5707,-1.25 L 16.5687,-1.25 L 16.5668,-1.25 L 16.5648,-1.25 L 16.5628,-1.25 L 16.5609,-1.25 L 16.5589,-1.25 L 16.5569,-1.25 L 16.5549,-1.25 L 16.553,-1.25 L 16.551,-1.25 L 16.549,-1.25 L 16.5471,-1.25 L 16.5451,-1.25 L 16.5431,-1.25 L 16.5411,-1.25 L 16.5392,-1.25 L 16.5372,-1.25 L 16.5352,-1.25 L 16.5333,-1.25 L 16.5313,-1.25 L 16.5293,-1.25 L 16.5273,-1.25 L 16.5254,-1.25 L 16.5234,-1.25 L 16.5214,-1.25 L 16.5195,-1.25 L 16.5175,-1.25 L 16.5155,-1.25 L 16.5136,-1.25 L 16.5116,-1.25 L 16.5096,-1.25 L 16.5076,-1.25 L 16.5057,-1.25 L 16.5037,-1.25 L 16.5017,-1.25 L 16.4998,-1.25 L 16.4978,-1.25 L 16.4958,-1.25 L 16.4938,-1.25 L 16.4919,-1.25 L 16.4899,-1.25 L 16.4879,-1.25 L 16.486,-1.25 L 16.484,-1.25 L 16.482,-1.25 L 16.48,-1.25 L 16.4781,-1.25 L 16.4761,-1.25 L 16.4741,-1.25 L 16.4722,-1.25 L 16.4702,-1.25 L 16.4682,-1.25 L 16.4662,-1.25 L 16.4643,-1.25 L 16.4623,-1.25 L 16.4603,-1.25" />
      <path d="M 49.9296,5.0 L 49.918,4.8622 L 49.9133,4.7233 L 49.9097,4.5844 L 49.9068,4.4456 L 49.9043,4.3067 L 49.9021,4.1677 L 49.9001,4.0288 L 49.8983,3.8899 L 49.8967,3.751 L 49.8951,3.6121 L 49.8938,3.4732 L 49.8925,3.3343 L 49.8913,3.1953 L 49.8902,3.0564 L 49.8891,2.9175 L 49.8882,2.7786 L 49.8873,2.6397 L 49.8864,2.5007 L 49.8857,2.3618 L 49.885,2.2229 L 49.8843,2.084 L 49.8837,1.9451 L 49.8831,1.8061 L 49.8826,1.6672 L 49.8821,1.5283 L 49.8817,1.3894 L 49.8813,1.2504 L 49.881,1.1115 L 49.8807,0.9726 L 49.8805,0.8337 L 49.8802,0.6948 L 49.8801,0.5558 L 49.8799,0.4169 L 49.8798,0.278 L 49.8798,0.1391 L 49.8798,0.0001 L 49.8798,-0.1388 L 49.8798,-0.2777 L 49.8799,-0.4166 L 49.8801,-0.5555 L 49.8802,-0.6945 L 49.8805,-0.8334 L 49.8807,-0.9723 L 49.881,-1.1112 L 49.8813,-1.2502 L 49.8817,-1.3891 L 49.8821,-1.528 L 49.8826,-1.6669 L 49.8831,-1.8058 L 49.8837,-1.9448 L 49.8843,-2.0837 L 49.885,-2.2226 L 49.8857,-2.3615 L 49.8864,-2.5004 L 49.8873,-2.6394 L 49.8882,-2.7783 L 49.8891,-2.9172 L 49.8902,-3.0561 L 49.8913,-3.195 L 49.8925,-3.334 L 49.8938,-3.4729 L 49.8951,-3.6118 L 49.8966,-3.7507 L 49.8983,-3.8896 L 49.9001,-4.0285 L 49.9021,-4.1674 L 49.9043,-4.3063 L 49.9068,-4.4452 L 49.9097,-4.5841 L 49.9133,-4.723 L 49.918,-4.8619 L 49.9296,-5.0" />
      <path d="M 19.9311,5.0 L 19.9323,5.0 L 19.9335,5.0 L 19.9347,5.0 L 19.9359,5.0 L 19.9371,5.0 L 19.9383,5.0 L 19.9395,5.0 L 19.9407,5.0 L 19.9419,5.0 L 19.9431,5.0 L 19.9443,5.0 L 19.9455,5.0 L 19.9467,5.0 L 19.9479,5.0 L 19.9491,5.0 L 19.9503,5.0 L 19.9515,5.0 L 19.9527,5.0 L 19.9539,5.0 L 19.9551,5.0 L 19.9563,5.0 L 19.9575,5.0 L 19.9587,5.0 L 19.9599,5.0 L 19.9611,5.0 L 19.9623,5.0 L 19.9635,5.0 L 19.9647,5.0 L 19.9659,5.0 L 19.9671,5.0 L 19.9683,5.0 L 19.9695,5.0 L 19.9707,5.0 L 19.9719,5.0 L 19.9731,5.0 L 19.9743,5.0 L 19.9755,5.0 L 19.9767,5.0 L 19.9779,5.0 L 19.9791,5.0 L 19.9803,5.0 L 19.9815,5.0 L 19.9827,5.0 L 19.9839,5.0 L 19.9851,5.0 L 19.9863,5.0 L 19.9875,5.0 L 19.9887,5.0 L 19.9899,5.0 L 19.9911,5.0 L 19.9923,5.0 L 19.9935,5.0 L 19.9947,5.0 L 19.9959,5.0 L 19.9971,5.0 L 19.9983,5.0 L 19.9995,5.0 L 20.0007,5.0 L 20.0019,5.0 L 20.0031,5.0 L 20.0043,5.0 L 20.0055,5.0 L 20.0067,5.0 L 20.0079,5.0 L 20.0091,5.0 L 20.0103,5.0 L 20.0115,5.0 L 20.0127,5.0 L 20.0139,5.0 L 20.0151,5.0 L 20.0163,5.0 L 20.0175,5.0" />
      <path d="M 19.9311,-5.0 L 19.9323,-5.0 L 19.9335,-5.0 L 19.9347,-5.0 L 19.9359,-5.0 L 19.9371,-5.0 L 19.9383,-5.0 L 19.9395,-5.0 L 19.9407,-5.0 L 19.9419,-5.0 L 19.9431,-5.0 L 19.9443,-5.0 L 19.9455,-5.0 L 19.9467,-5.0 L 19.9479,-5.0 L 19.9491,-5.0 L 19.9503,-5.0 L 19.9515,-5.0 L 19.9527,-5.0 L 19.9539,-5.0 L 19.9551,-5.0 L 19.9563,-5.0 L 19.9575,-5.0 L 19.9587,-5.0 L 19.9599,-5.0 L 19.9611,-5.0 L 19.9623,-5.0 L 19.9635,-5.0 L 19.9647,-5.0 L 19.9659,-5.0 L 19.9671,-5.0 L 19.9683,-5.0 L 19.9695,-5.0 L 19.9707,-5.0 L 19.9719,-5.0 L 19.9731,-5.0 L 19.9743,-5.0 L 19.9755,-5.0 L 19.9767,-5.0 L 19.9779,-5.0 L 19.9791,-5.0 L 19.9803,-5.0 L 19.9815,-5.0 L 19.9827,-5.0 L 19.9839,-5.0 L 19.9851,-5.0 L 19.9863,-5.0 L 19.9875,-5.0 L 19.9887,-5.0 L 19.9899,-5.0 L 19.9911,-5.0 L 19.9923,-5.0 L 19.9935,-5.0 L 19.9947,-5.0 L 19.9959,-5.0 L 19.9971,-5.0 L 19.9983,-5.0 L 19.9995,-5.0 L 20.0007,-5.0 L 20.0019,-5.0 L 20.0031,-5.0 L 20.0043,-5.0 L 20.0055,-5.0 L 20.0067,-5.0 L 20.0079,-5.0 L 20.0091,-5.0 L 20.0103,-5.0 L 20.0115,-5.0 L 20.0127,-5.0 L 20.0139,-5.0 L 20.0151,-5.0 L 20.0163,-5.0 L 20.0175,-5.0" />
    </g>
    <g fill="none" stroke="rgb(0,0,0)" stroke-width="0.2" id="Center" stroke-dasharray="6.35 1.27 1.27 1.27">
      <line x1="0.0" y1="-0.0" x2="-12.88" y2="-0.0" />
      <line x1="0.0" y1="-0.0" x2="12.88" y2="-0.0" />
      <line x1="0.0" y1="-0.0" x2="0.0" y2="-12.88" />
      <line x1="0.0" y1="-0.0" x2="0.0" y2="12.88" />
      <line x1="31.9897" y1="-0.0" x2="11.12" y2="-0.0" />
      <line x1="31.9897" y1="-0.0" x2="52.8595" y2="-0.0" />
    </g>
  </g>
</svg>