<?xml version='1.0' encoding='utf-8'?>
<svg width="66.2938mm" height="26.18mm" viewBox="-13.09 -13.09 66.2938 26.18" version="1.1" xmlns="http://www.w3.org/2000/svg">
  <g transform="scale(1,-1)" stroke-linecap="round">
    <g fill="none" stroke="rgb(0,0,0)" stroke-width="0.4" id="Visible">
      <path d="M 0.0,8.0 L -0.1571,7.9985 L -0.3141,7.9938 L -0.471,7.9861 L -0.6278,7.9753 L -0.7842,7.9615 L -0.9404,7.9445 L -1.0962,7.9245 L -1.2516,7.9015 L -1.4066,7.8754 L -1.5609,7.8462 L -1.7147,7.8141 L -1.8678,7.7789 L -2.0202,7.7407 L -2.1718,7.6996 L -2.3226,7.6554 L -2.4725,7.6083 L -2.6214,7.5583 L -2.7693,7.5054 L -2.9161,7.4496 L -3.0619,7.3909 L -3.2064,7.3293 L -3.3497,7.265 L -3.4917,7.1978 L -3.6324,7.1278 L -3.7716,7.0551 L -3.9094,6.9797 L -4.0457,6.9016 L -4.1805,6.8208 L -4.3136,6.7374 L -4.4451,6.6514 L -4.5748,6.5628 L -4.7028,6.4717 L -4.829,6.3782 L -4.9533,6.2821 L -5.0757,6.1836 L -5.1962,6.0828 L -5.3146,5.9796 L -5.431,5.874 L -5.5453,5.7663 L -5.6574,5.6563 L -5.7674,5.5441 L -5.8752,5.4298 L -5.9807,5.3134 L -6.0838,5.1949 L -6.1847,5.0744 L -6.2831,4.952 L -6.3792,4.8277 L -6.4727,4.7015 L -6.5638,4.5735 L -6.6523,4.4437 L -6.7383,4.3122 L -6.8217,4.1791 L -6.9024,4.0443 L -6.9805,3.908 L -7.0559,3.7702 L -7.1286,3.6309 L -7.1985,3.4902 L -7.2656,3.3482 L -7.33,3.2049 L -7.3915,3.0603 L -7.4502,2.9146 L -7.506,2.7677 L -7.5589,2.6198 L -7.6089,2.4709 L -7.6559,2.321 L -7.7,2.1702 L -7.7411,2.0186 L -7.7793,1.8662 L -7.8144,1.7131 L -7.8466,1.5593 L -7.8757,1.4049 L -7.9017,1.25" />
      <path d="M -7.9017,1.25 L -7.9071,1.2156 L -7.9123,1.1811 L -7.9174,1.1466 L -7.9223,1.1121 L -7.9271,1.0775 L -7.9317,1.043 L -7.9362,1.0084 L -7.9405,0.9738 L -7.9447,0.9392 L -7.9487,0.9046 L -7.9526,0.8699 L -7.9563,0.8352 L -7.9598,0.8006 L -7.9633,0.7659 L -7.9665,0.7311 L -7.9696,0.6964 L -7.9726,0.6617 L -7.9754,0.6269 L -7.9781,0.5922 L -7.9806,0.5574 L -7.9829,0.5226 L -7.9851,0.4878 L -7.9872,0.453 L -7.9891,0.4182 L -7.9908,0.3834 L -7.9924,0.3485 L -7.9938,0.3137 L -7.9951,0.2789 L -7.9963,0.244 L -7.9973,0.2092 L -7.9981,0.1743 L -7.9988,0.1395 L -7.9993,0.1046 L -7.9997,0.0697 L -7.9999,0.0349 L -8.0,0.0 L -7.9999,-0.0349 L -7.9997,-0.0697 L -7.9993,-0.1046 L -7.9988,-0.1395 L -7.9981,-0.1743 L -7.9973,-0.2092 L -7.9963,-0.244 L -7.9951,-0.2789 L -7.9938,-0.3137 L -7.9924,-0.3485 L -7.9908,-0.3834 L -7.9891,-0.4182 L -7.9872,-0.453 L -7.9851,-0.4878 L -7.9829,-0.5226 L -7.9806,-0.5574 L -7.9781,-0.5922 L -7.9754,-0.6269 L -7.9726,-0.6617 L -7.9696,-0.6964 L -7.9665,-0.7311 L -7.9633,-0.7659 L -7.9598,-0.8006 L -7.9563,-0.8352 L -7.9526,-0.8699 L -7.9487,-0.9046 L -7.9447,-0.9392 L -7.9405,-0.9738 L -7.9362,-1.0084 L -7.9317,-1.043 L -7.9271,-1.0775 L -7.9223,-1.1121 L -7.9174,-1.1466 L -7.9123,-1.1811 L -7.9071,-1.2156 L -7.9017,-1.25" />
      <path d="M -7.9017,-1.25 L -7.8466,-1.5593 L -7.7793,-1.8662 L -7.7,-2.1702 L -7.6089,-2.4709 L -7.506,-2.7677 L -7.3915,-3.0603 L -7.2656,-3.3482 L -7.1286,-3.6309 L -6.9805,-3.908 L -6.8217,-4.1791 L -6.6523,-4.4437 L -6.4727,-4.7015 L -6.2831,-4.952 L -6.0838,-5.1949 L -5.8752,-5.4298 L -5.6574,-5.6563 L -5.431,-5.874 L -5.1962,-6.0828 L -4.9533,-6.2821 L -4.7028,-6.4717 L -4.4451,-6.6514 L -4.1805,-6.8208 L -3.9094,-6.9797 L -3.6324,-7.1278 L -3.3497,-7.265 L -3.0619,-7.3909 L -2.7693,-7.5054 L -2.4725,-7.6083 L -2.1718,-7.6996 L -1.8678,-7.7789 L -1.5609,-7.8462 L -1.2516,-7.9015 L -0.9404,-7.9445 L -0.6278,-7.9753 L -0.3141,-7.9938 L 0.0,-8.0 L 0.3141,-7.9938 L 0.6278,-7.9753 L 0.9404,-7.9445 L 1.2516,-7.9015 L 1.5609,-7.8462 L 1.8678,-7.7789 L 2.1718,-7.6996 L 2.4725,-7.6083 L 2.7693,-7.5054 L 3.0619,-7.3909 L 3.3497,-7.265 L 3.6324,-7.1278 L 3.9094,-6.9797 L 4.1805,-6.8208 L 4.4451,-6.6514 L 4.7028,-6.4717 L 4.9533,-6.2821 L 5.1962,-6.0828 L 5.431,-5.874 L 5.6574,-5.6563 L 5.8752,-5.4298 L 6.0838,-5.1949 L 6.2831,-4.952 L 6.4727,-4.7015 L 6.6523,-4.4437 L 6.8217,-4.1791 L 6.9805,-3.908 L 7.1286,-3.6309 L 7.2656,-3.3482 L 7.3915,-3.0603 L 7.506,-2.7677 L 7.6089,-2.4709 L 7.7,-2.1702 L 7.7793,-1.8662 L 7.8466,-1.5593 L 7.9017,-1.25" />
      <path d="M 7.9017,-1.25 L 7.9071,-1.2156 L 7.9123,-1.1811 L 7.9174,-1.1466 L 7.9223,-1.1121 L 7.9271,-1.0775 L 7.9317,-1.043 L 7.9362,-1.0084 L 7.9405,-0.9738 L 7.9447,-0.9392 L 7.9487,-0.9046 L 7.9526,-0.8699 L 7.9563,-0.8352 L 7.9598,-0.8006 L 7.9633,-0.7659 L 7.9665,-0.7311 L 7.9696,-0.6964 L 7.9726,-0.6617 L 7.9754,-0.6269 L 7.9781,-0.5922 L 7.9806,-0.5574 L 7.9829,-0.5226 L 7.9851,-0.4878 L 7.9872,-0.453 L 7.9891,-0.4182 L 7.9908,-0.3834 L 7.9924,-0.3485 L 7.9938,-0.3137 L 7.9951,-0.2789 L 7.9963,-0.244 L 7.9973,-0.2092 L 7.9981,-0.1743 L 7.9988,-0.1395 L 7.9993,-0.1046 L 7.9997,-0.0697 L 7.9999,-0.0349 L 8.0,-0.0 L 7.9999,0.0349 L 7.9997,0.0697 L 7.9993,0.1046 L 7.9988,0.1395 L 7.9981,0.1743 L 7.9973,0.2092 L 7.9963,0.244 L 7.9951,0.2789 L 7.9938,0.3137 L 7.9924,0.3485 L 7.9908,0.3834 L 7.9891,0.4182 L 7.9872,0.453 L 7.9851,0.4878 L 7.9829,0.5226 L 7.9806,0.5574 L 7.9781,0.5922 L 7.9754,0.6269 L 7.9726,0.6617 L 7.9696,0.6964 L 7.9665,0.7311 L 7.9633,0.7659 L 7.9598,0.8006 L 7.9563,0.8352 L 7.9526,0.8699 L 7.9487,0.9046 L 7.9447,0.9392 L 7.9405,0.9738 L 7.9362,1.0084 L 7.9317,1.043 L 7.9271,1.0775 L 7.9223,1.1121 L 7.9174,1.1466 L 7.9123,1.1811 L 7.9071,1.2156 L 7.9017,1.25" />
      <path d="M 7.9017,1.25 L 7.8757,1.4049 L 7.8466,1.5593 L 7.8144,1.7131 L 7.7793,1.8662 L 7.7411,2.0186 L 7.7,2.1702 L 7.6559,2.321 L 7.6089,2.4709 L 7.5589,2.6198 L 7.506,2.7677 L 7.4502,2.9146 L 7.3915,3.0603 L 7.33,3.2049 L 7.2656,3.3482 L 7.1985,3.4902 L 7.1286,3.6309 L 7.0559,3.7702 L 6.9805,3.908 L 6.9024,4.0443 L 6.8217,4.1791 L 6.7383,4.3122 L 6.6523,4.4437 L 6.5638,4.5735 L 6.4727,4.7015 L 6.3792,4.8277 L 6.2831,4.952 L 6.1847,5.0744 L 6.0838,5.1949 L 5.9807,5.3134 L 5.8752,5.4298 L 5.7674,5.5441 L 5.6574,5.6563 L 5.5453,5.7663 L 5.431,5.874 L 5.3146,5.9796 L 5.1962,6.0828 L 5.0757,6.1836 L 4.9533,6.2821 L 4.829,6.3782 L 4.7028,6.4717 L 4.5748,6.5628 L 4.4451,6.6514 L 4.3136,6.7374 L 4.1805,6.8208 L 4.0457,6.9016 L 3.9094,6.9797 L 3.7716,7.0551 L 3.6324,7.1278 L 3.4917,7.1978 L 3.3497,7.265 L 3.2064,7.3293 L 3.0619,7.3909 L 2.9161,7.4496 L 2.7693,7.5054 L 2.6214,7.5583 L 2.4725,7.6083 L 2.3226,7.6554 L 2.1718,7.6996 L 2.0202,7.7407 L 1.8678,7.7789 L 1.7147,7.8141 L 1.5609,7.8462 L 1.4066,7.8754 L 1.2516,7.9015 L 1.0962,7.9245 L 0.9404,7.9445 L 0.7842,7.9615 L 0.6278,7.9753 L 0.471,7.9861 L 0.3141,7.9938 L 0.1571,7.9985 L -0.0,8.0" />
      <path d="M -7.3951,-1.25 L -7.4021,-1.25 L -7.4092,-1.25 L -7.4162,-1.25 L -7.4232,-1.25 L -7.4303,-1.25 L -7.4373,-1.25 L -7.4444,-1.25 L -7.4514,-1.25 L -7.4584,-1.25 L -7.4655,-1.25 L -7.4725,-1.25 L -7.4795,-1.25 L -7.4866,-1.25 L -7.4936,-1.25 L -7.5006,-1.25 L -7.5077,-1.25 L -7.5147,-1.25 L -7.5218,-1.25 L -7.5288,-1.25 L -7.5358,-1.25 L -7.5429,-1.25 L -7.5499,-1.25 L -7.5569,-1.25 L -7.564,-1.25 L -7.571,-1.25 L -7.5781,-1.25 L -7.5851,-1.25 L -7.5921,-1.25 L -7.5992,-1.25 L -7.6062,-1.25 L -7.6132,-1.25 L -7.6203,-1.25 L -7.6273,-1.25 L -7.6343,-1.25 L -7.6414,-1.25 L -7.6484,-1.25 L -7.6555,-1.25 L -7.6625,-1.25 L -7.6695,-1.25 L -7.6766,-1.25 L -7.6836,-1.25 L -7.6906,-1.25 L -7.6977,-1.25 L -7.7047,-1.25 L -7.7118,-1.25 L -7.7188,-1.25 L -7.7258,-1.25 L -7.7329,-1.25 L -7.7399,-1.25 L -7.7469,-1.25 L -7.754,-1.25 L -7.761,-1.25 L -7.768,-1.25 L -7.7751,-1.25 L -7.7821,-1.25 L -7.7892,-1.25 L -7.7962,-1.25 L -7.8032,-1.25 L -7.8103,-1.25 L -7.8173,-1.25 L -7.8243,-1.25 L -7.8314,-1.25 L -7.8384,-1.25 L -7.8454,-1.25 L -7.8525,-1.25 L -7.8595,-1.25 L -7.8666,-1.25 L -7.8736,-1.25 L -7.8806,-1.25 L -7.8877,-1.25 L -7.8947,-1.25 L -7.9017,-1.25" />
      <path d="M -7.3951,-1.25 L -7.3408,-1.5373 L -7.2753,-1.8222 L -7.1987,-2.1043 L -7.1113,-2.3833 L -7.013,-2.6586 L -6.904,-2.9299 L -6.7846,-3.1967 L -6.6549,-3.4587 L -6.515,-3.7154 L -6.3653,-3.9665 L -6.2059,-4.2116 L -6.037,-4.4502 L -5.859,-4.6821 L -5.6721,-4.9069 L -5.4765,-5.1242 L -5.2727,-5.3338 L -5.0608,-5.5352 L -4.8412,-5.7282 L -4.6143,-5.9125 L -4.3804,-6.0879 L -4.1398,-6.254 L -3.8929,-6.4106 L -3.6401,-6.5574 L -3.3818,-6.6943 L -3.1184,-6.821 L -2.8502,-6.9373 L -2.5776,-7.0431 L -2.3012,-7.1382 L -2.0212,-7.2225 L -1.7382,-7.2958 L -1.4526,-7.358 L -1.1647,-7.409 L -0.8751,-7.4488 L -0.5841,-7.4772 L -0.2923,-7.4943 L -0.0,-7.5 L 0.2923,-7.4943 L 0.5841,-7.4772 L 0.8751,-7.4488 L 1.1647,-7.409 L 1.4526,-7.358 L 1.7382,-7.2958 L 2.0212,-7.2225 L 2.3012,-7.1382 L 2.5776,-7.0431 L 2.8502,-6.9373 L 3.1184,-6.821 L 3.3818,-6.6943 L 3.6401,-6.5574 L 3.8929,-6.4106 L 4.1398,-6.254 L 4.3804,-6.0879 L 4.6143,-5.9125 L 4.8412,-5.7282 L 5.0608,-5.5352 L 5.2727,-5.3338 L 5.4765,-5.1242 L 5.6721,-4.9069 L 5.859,-4.6821 L 6.037,-4.4502 L 6.2059,-4.2116 L 6.3653,-3.9665 L 6.515,-3.7154 L 6.6549,-3.4587 L 6.7846,-3.1967 L 6.904,-2.9299 L 7.013,-2.6586 L 7.1113,-2.3833 L 7.1987,-2.1043 L 7.2753,-1.8222 L 7.3408,-1.5373 L 7.3951,-1.25" />
      <path d="M 7.9017,-1.25 L 7.8947,-1.25 L 7.8877,-1.25 L 7.8806,-1.25 L 7.8736,-1.25 L 7.8666,-1.25 L 7.8595,-1.25 L 7.8525,-1.25 L 7.8454,-1.25 L 7.8384,-1.25 L 7.8314,-1.25 L 7.8243,-1.25 L 7.8173,-1.25 L 7.8103,-1.25 L 7.8032,-1.25 L 7.7962,-1.25 L 7.7892,-1.25 L 7.7821,-1.25 L 7.7751,-1.25 L 7.768,-1.25 L 7.761,-1.25 L 7.754,-1.25 L 7.7469,-1.25 L 7.7399,-1.25 L 7.7329,-1.25 L 7.7258,-1.25 L 7.7188,-1.25 L 7.7118,-1.25 L 7.7047,-1.25 L 7.6977,-1.25 L 7.6906,-1.25 L 7.6836,-1.25 L 7.6766,-1.25 L 7.6695,-1.25 L 7.6625,-1.25 L 7.6555,-1.25 L 7.6484,-1.25 L 7.6414,-1.25 L 7.6343,-1.25 L 7.6273,-1.25 L 7.6203,-1.25 L 7.6132,-1.25 L 7.6062,-1.25 L 7.5992,-1.25 L 7.5921,-1.25 L 7.5851,-1.25 L 7.5781,-1.25 L 7.571,-1.25 L 7.564,-1.25 L 7.5569,-1.25 L 7.5499,-1.25 L 7.5429,-1.25 L 7.5358,-1.25 L 7.5288,-1.25 L 7.5218,-1.25 L 7.5147,-1.25 L 7.5077,-1.25 L 7.5006,-1.25 L 7.4936,-1.25 L 7.4866,-1.25 L 7.4795,-1.25 L 7.4725,-1.25 L 7.4655,-1.25 L 7.4584,-1.25 L 7.4514,-1.25 L 7.4444,-1.25 L 7.4373,-1.25 L 7.4303,-1.25 L 7.4232,-1.25 L 7.4162,-1.25 L 7.4092,-1.25 L 7.4021,-1.25 L 7.3951,-1.25" />
      <path d="M 7.3951,-1.25 L 7.1897,-1.25 L 6.9843,-1.25 L 6.7788,-1.25 L 6.5734,-1.25 L 6.368,-1.25 L 6.1626,-1.25 L 5.9572,-1.25 L 5.7517,-1.25 L 5.5463,-1.25 L 5.3409,-1.25 L 5.1355,-1.25 L 4.9301,-1.25 L 4.7246,-1.25 L 4.5192,-1.25 L 4.3138,-1.25 L 4.1084,-1.25 L 3.903,-1.25 L 3.6975,-1.25 L 3.4921,-1.25 L 3.2867,-1.25 L 3.0813,-1.25 L 2.8759,-1.25 L 2.6705,-1.25 L 2.465,-1.25 L 2.2596,-1.25 L 2.0542,-1.25 L 1.8488,-1.25 L 1.6434,-1.25 L 1.4379,-1.25 L 1.2325,-1.25 L 1.0271,-1.25 L 0.8217,-1.25 L 0.6163,-1.25 L 0.4108,-1.25 L 0.2054,-1.25 L 0.0,-1.25 L -0.2054,-1.25 L -0.4108,-1.25 L -0.6163,-1.25 L -0.8217,-1.25 L -1.0271,-1.25 L -1.2325,-1.25 L -1.4379,-1.25 L -1.6434,-1.25 L -1.8488,-1.25 L -2.0542,-1.25 L -2.2596,-1.25 L -2.465,-1.25 L -2.6705,-1.25 L -2.8759,-1.25 L -3.0813,-1.25 L -3.2867,-1.25 L -3.4921,-1.25 L -3.6975,-1.25 L -3.903,-1.25 L -4.1084,-1.25 L -4.3138,-1.25 L -4.5192,-1.25 L -4.7246,-1.25 L -4.9301,-1.25 L -5.1355,-1.25 L -5.3409,-1.25 L -5.5463,-1.25 L -5.7517,-1.25 L -5.9572,-1.25 L -6.1626,-1.25 L -6.368,-1.25 L -6.5734,-1.25 L -6.7788,-1.25 L -6.9843,-1.25 L -7.1897,-1.25 L -7.3951,-1.25" />
      <path d="M 7.9017,1.25 L 7.8947,1.25 L 7.8877,1.25 L 7.8806,1.25 L 7.8736,1.25 L 7.8666,1.25 L 7.8595,1.25 L 7.8525,1.25 L 7.8454,1.25 L 7.8384,1.25 L 7.8314,1.25 L 7.8243,1.25 L 7.8173,1.25 L 7.8103,1.25 L 7.8032,1.25 L 7.7962,1.25 L 7.7892,1.25 L 7.7821,1.25 L 7.7751,1.25 L 7.768,1.25 L 7.761,1.25 L 7.754,1.25 L 7.7469,1.25 L 7.7399,1.25 L 7.7329,1.25 L 7.7258,1.25 L 7.7188,1.25 L 7.7118,1.25 L 7.7047,1.25 L 7.6977,1.25 L 7.6906,1.25 L 7.6836,1.25 L 7.6766,1.25 L 7.6695,1.25 L 7.6625,1.25 L 7.6555,1.25 L 7.6484,1.25 L 7.6414,1.25 L 7.6343,1.25 L 7.6273,1.25 L 7.6203,1.25 L 7.6132,1.25 L 7.6062,1.25 L 7.5992,1.25 L 7.5921,1.25 L 7.5851,1.25 L 7.5781,1.25 L 7.571,1.25 L 7.564,1.25 L 7.5569,1.25 L 7.5499,1.25 L 7.5429,1.25 L 7.5358,1.25 L 7.5288,1.25 L 7.5218,1.25 L 7.5147,1.25 L 7.5077,1.25 L 7.5006,1.25 L 7.4936,1.25 L 7.4866,1.25 L 7.4795,1.25 L 7.4725,1.25 L 7.4655,1.25 L 7.4584,1.25 L 7.4514,1.25 L 7.4444,1.25 L 7.4373,1.25 L 7.4303,1.25 L 7.4232,1.25 L 7.4162,1.25 L 7.4092,1.25 L 7.4021,1.25 L 7.3951,1.25" />
      <path d="M 7.3951,1.25 L 7.1897,1.25 L 6.9843,1.25 L 6.7788,1.25 L 6.5734,1.25 L 6.368,1.25 L 6.1626,1.25 L 5.9572,1.25 L 5.7517,1.25 L 5.5463,1.25 L 5.3409,1.25 L 5.1355,1.25 L 4.9301,1.25 L 4.7246,1.25 L 4.5192,1.25 L 4.3138,1.25 L 4.1084,1.25 L 3.903,1.25 L 3.6975,1.25 L 3.4921,1.25 L 3.2867,1.25 L 3.0813,1.25 L 2.8759,1.25 L 2.6705,1.25 L 2.465,1.25 L 2.2596,1.25 L 2.0542,1.25 L 1.8488,1.25 L 1.6434,1.25 L 1.4379,1.25 L 1.2325,1.25 L 1.0271,1.25 L 0.8217,1.25 L 0.6163,1.25 L 0.4108,1.25 L 0.2054,1.25 L 0.0,1.25 L -0.2054,1.25 L -0.4108,1.25 L -0.6163,1.25 L -0.8217,1.25 L -1.0271,1.25 L -1.2325,1.25 L -1.4379,1.25 L -1.6434,1.25 L -1.8488,1.25 L -2.0542,1.25 L -2.2596,1.25 L -2.465,1.25 L -2.6705,1.25 L -2.8759,1.25 L -3.0813,1.25 L -3.2867,1.25 L -3.4921,1.25 L -3.6975,1.25 L -3.903,1.25 L -4.1084,1.25 L -4.3138,1.25 L -4.5192,1.25 L -4.7246,1.25 L -4.9301,1.25 L -5.1355,1.25 L -5.3409,1.25 L -5.5463,1.25 L -5.7517,1.25 L -5.9572,1.25 L -6.1626,1.25 L -6.368,1.25 L -6.5734,1.25 L -6.7788,1.25 L -6.9843,1.25 L -7.1897,1.25 L -7.3951,1.25" />
      <path d="M -7.3951,1.25 L -7.4021,1.25 L -7.4092,1.25 L -7.4162,1.25 L -7.4232,1.25 L -7.4303,1.25 L -7.4373,1.25 L -7.4444,1.25 L -7.4514,1.25 L -7.4584,1.25 L -7.4655,1.25 L -7.4725,1.25 L -7.4795,1.25 L -7.4866,1.25 L -7.4936,1.25 L -7.5006,1.25 L -7.5077,1.25 L -7.5147,1.25 L -7.5218,1.25 L -7.5288,1.25 L -7.5358,1.25 L -7.5429,1.25 L -7.5499,1.25 L -7.5569,1.25 L -7.564,1.25 L -7.571,1.25 L -7.5781,1.25 L -7.5851,1.25 L -7.5921,1.25 L -7.5992,1.25 L -7.6062,1.25 L -7.6132,1.25 L -7.6203,1.25 L -7.6273,1.25 L -7.6343,1.25 L -7.6414,1.25 L -7.6484,1.25 L -7.6555,1.25 L -7.6625,1.25 L -7.6695,1.25 L -7.6766,1.25 L -7.6836,1.25 L -7.6906,1.25 L -7.6977,1.25 L -7.7047,1.25 L -7.7118,1.25 L -7.7188,1.25 L -7.7258,1.25 L -7.7329,1.25 L -7.7399,1.25 L -7.7469,1.25 L -7.754,1.25 L -7.761,1.25 L -7.768,1.25 L -7.7751,1.25 L -7.7821,1.25 L -7.7892,1.25 L -7.7962,1.25 L -7.8032,1.25 L -7.8103,1.25 L -7.8173,1.25 L -7.8243,1.25 L -7.8314,1.25 L -7.8384,1.25 L -7.8454,1.25 L -7.8525,1.25 L -7.8595,1.25 L -7.8666,1.25 L -7.8736,1.25 L -7.8806,1.25 L -7.8877,1.25 L -7.8947,1.25 L -7.9017,1.25" />
      <path d="M -7.3951,1.25 L -7.3408,1.5373 L -7.2753,1.8222 L -7.1987,2.1043 L -7.1113,2.3833 L -7.013,2.6586 L -6.904,2.9299 L -6.7846,3.1967 L -6.6549,3.4587 L -6.515,3.7154 L -6.3653,3.9665 L -6.2059,4.2116 L -6.037,4.4502 L -5.859,4.6821 L -5.6721,4.9069 L -5.4765,5.1242 L -5.2727,5.3338 L -5.0608,5.5352 L -4.8412,5.7282 L -4.6143,5.9125 L -4.3804,6.0879 L -4.1398,6.254 L -3.8929,6.4106 L -3.6401,6.5574 L -3.3818,6.6943 L -3.1184,6.821 L -2.8502,6.9373 L -2.5776,7.0431 L -2.3012,7.1382 L -2.0212,7.2225 L -1.7382,7.2958 L -1.4526,7.358 L -1.1647,7.409 L -0.8751,7.4488 L -0.5841,7.4772 L -0.2923,7.4943 L -0.0,7.5 L 0.2923,7.4943 L 0.5841,7.4772 L 0.8751,7.4488 L 1.1647,7.409 L 1.4526,7.358 L 1.7382,7.2958 L 2.0212,7.2225 L 2.3012,7.1382 L 2.5776,7.0431 L 2.8502,6.9373 L 3.1184,6.821 L 3.3818,6.6943 L 3.6401,6.5574 L 3.8929,6.4106 L 4.1398,6.254 L 4.3804,6.0879 L 4.6143,5.9125 L 4.8412,5.7282 L 5.0608,5.5352 L 5.2727,5.3338 L 5.4765,5.1242 L 5.6721,4.9069 L 5.859,4.6821 L 6.037,4.4502 L 6.2059,4.2116 L 6.3653,3.9665 L 6.515,3.7154 L 6.6549,3.4587 L 6.7846,3.1967 L 6.904,2.9299 L 7.013,2.6586 L 7.1113,2.3833 L 7.1987,2.1043 L 7.2753,1.8222 L 7.3408,1.5373 L 7.3951,1.25" />
      <path d="M 18.0686,-8.0 L 18.0859,-7.7793 L 18.093,-7.5571 L 18.0983,-7.3349 L 18.1026,-7.1127 L 18.1064,-6.8904 L 18.1097,-6.6682 L 18.1127,-6.4459 L 18.1153,-6.2237 L 18.1178,-6.0014 L 18.12,-5.7792 L 18.1221,-5.5569 L 18.124,-5.3346 L 18.1258,-5.1124 L 18.1275,-4.8901 L 18.129,-4.6678 L 18.1305,-4.4456 L 18.1318,-4.2233 L 18.133,-4.001 L 18.1342,-3.7788 L 18.1353,-3.5565 L 18.1362,-3.3342 L 18.1371,-3.112 L 18.138,-2.8897 L 18.1388,-2.6674 L 18.1395,-2.4452 L 18.1401,-2.2229 L 18.1406,-2.0006 L 18.1412,-1.7784 L 18.1416,-1.5561 L 18.142,-1.3338 L 18.1423,-1.1116 L 18.1426,-0.8893 L 18.1428,-0.667 L 18.1429,-0.4447 L 18.143,-0.2225 L 18.143,-0.0002 L 18.143,0.2221 L 18.1429,0.4443 L 18.1428,0.6666 L 18.1426,0.8889 L 18.1423,1.1111 L 18.142,1.3334 L 18.1416,1.5557 L 18.1412,1.7779 L 18.1406,2.0002 L 18.1401,2.2225 L 18.1395,2.4447 L 18.1388,2.667 L 18.138,2.8893 L 18.1372,3.1115 L 18.1362,3.3338 L 18.1353,3.5561 L 18.1342,3.7783 L 18.133,4.0006 L 18.1318,4.2229 L 18.1305,4.4451 L 18.129,4.6674 L 18.1275,4.8897 L 18.1258,5.1119 L 18.124,5.3342 L 18.1221,5.5565 L 18.12,5.7787 L 18.1178,6.001 L 18.1153,6.2232 L 18.1127,6.4455 L 18.1097,6.6677 L 18.1064,6.89 L 18.1026,7.1122 L 18.0983,7.3345 L 18.093,7.5567 L 18.0859,7.7788 L 18.0686,8.0" />
      <path d="M 48.0673,-5.0 L 48.0781,-4.862 L 48.0825,-4.7232 L 48.0858,-4.5843 L 48.0886,-4.4454 L 48.0909,-4.3065 L 48.093,-4.1676 L 48.0948,-4.0287 L 48.0965,-3.8898 L 48.098,-3.7509 L 48.0994,-3.612 L 48.1007,-3.4731 L 48.1019,-3.3342 L 48.1031,-3.1952 L 48.1041,-3.0563 L 48.1051,-2.9174 L 48.1059,-2.7785 L 48.1068,-2.6396 L 48.1076,-2.5007 L 48.1083,-2.3617 L 48.1089,-2.2228 L 48.1096,-2.0839 L 48.1101,-1.945 L 48.1107,-1.8061 L 48.1111,-1.6671 L 48.1116,-1.5282 L 48.112,-1.3893 L 48.1123,-1.2504 L 48.1126,-1.1115 L 48.1129,-0.9726 L 48.1131,-0.8336 L 48.1133,-0.6947 L 48.1135,-0.5558 L 48.1136,-0.4169 L 48.1137,-0.278 L 48.1138,-0.139 L 48.1138,-0.0001 L 48.1138,0.1388 L 48.1137,0.2777 L 48.1136,0.4166 L 48.1135,0.5555 L 48.1133,0.6945 L 48.1131,0.8334 L 48.1129,0.9723 L 48.1126,1.1112 L 48.1123,1.2501 L 48.112,1.389 L 48.1116,1.528 L 48.1111,1.6669 L 48.1107,1.8058 L 48.1101,1.9447 L 48.1096,2.0836 L 48.1089,2.2226 L 48.1083,2.3615 L 48.1076,2.5004 L 48.1068,2.6393 L 48.106,2.7782 L 48.1051,2.9171 L 48.1041,3.056 L 48.1031,3.195 L 48.1019,3.3339 L 48.1007,3.4728 L 48.0994,3.6117 L 48.098,3.7506 L 48.0965,3.8895 L 48.0948,4.0284 L 48.093,4.1673 L 48.0909,4.3062 L 48.0886,4.4451 L 48.0858,4.584 L 48.0825,4.7229 L 48.0781,4.8618 L 48.0673,5.0" />
      <path d="M 18.1267,5.0 L 18.5425,5.0 L 18.9584,5.0 L 19.3742,5.0 L 19.79,5.0 L 20.2059,5.0 L 20.6217,5.0 L 21.0376,5.0 L 21.4534,5.0 L 21.8693,5.0 L 22.2851,5.0 L 22.7009,5.0 L 23.1168,5.0 L 23.5326,5.0 L 23.9485,5.0 L 24.3643,5.0 L 24.7801,5.0 L 25.196,5.0 L 25.6118,5.0 L 26.0277,5.0 L 26.4435,5.0 L 26.8594,5.0 L 27.2752,5.0 L 27.691,5.0 L 28.1069,5.0 L 28.5227,5.0 L 28.9386,5.0 L 29.3544,5.0 L 29.7702,5.0 L 30.1861,5.0 L 30.6019,5.0 L 31.0178,5.0 L 31.4336,5.0 L 31.8494,5.0 L 32.2653,5.0 L 32.6811,5.0 L 33.097,5.0 L 33.5128,5.0 L 33.9287,5.0 L 34.3445,5.0 L 34.7603,5.0 L 35.1762,5.0 L 35.592,5.0 L 36.0079,5.0 L 36.4237,5.0 L 36.8395,5.0 L 37.2554,5.0 L 37.6712,5.0 L 38.0871,5.0 L 38.5029,5.0 L 38.9188,5.0 L 39.3346,5.0 L 39.7504,5.0 L 40.1663,5.0 L 40.5821,5.0 L 40.998,5.0 L 41.4138,5.0 L 41.8296,5.0 L 42.2455,5.0 L 42.6613,5.0 L 43.0772,5.0 L 43.493,5.0 L 43.9088,5.0 L 44.3247,5.0 L 44.7405,5.0 L 45.1564,5.0 L 45.5722,5.0 L 45.9881,5.0 L 46.4039,5.0 L 46.8197,5.0 L 47.2356,5.0 L 47.6514,5.0 L 48.0673,5.0" />
      <path d="M 18.0686,8.0 L 17.9922,8.0 L 17.9158,8.0 L 17.8394,8.0 L 17.763,8.0 L 17.6866,8.0 L 17.6102,8.0 L 17.5339,8.0 L 17.4575,8.0 L 17.3811,8.0 L 17.3047,8.0 L 17.2283,8.0 L 17.1519,8.0 L 17.0755,8.0 L 16.9992,8.0 L 16.9228,8.0 L 16.8464,8.0 L 16.77,8.0 L 16.6936,8.0 L 16.6172,8.0 L 16.5409,8.0 L 16.4645,8.0 L 16.3881,8.0 L 16.3117,8.0 L 16.2353,8.0 L 16.1589,8.0 L 16.0825,8.0 L 16.0062,8.0 L 15.9298,8.0 L 15.8534,8.0 L 15.777,8.0 L 15.7006,8.0 L 15.6242,8.0 L 15.5478,8.0 L 15.4715,8.0 L 15.3951,8.0 L 15.3187,8.0 L 15.2423,8.0 L 15.1659,8.0 L 15.0895,8.0 L 15.0131,8.0 L 14.9368,8.0 L 14.8604,8.0 L 14.784,8.0 L 14.7076,8.0 L 14.6312,8.0 L 14.5548,8.0 L 14.4784,8.0 L 14.4021,8.0 L 14.3257,8.0 L 14.2493,8.0 L 14.1729,8.0 L 14.0965,8.0 L 14.0201,8.0 L 13.9437,8.0 L 13.8674,8.0 L 13.791,8.0 L 13.7146,8.0 L 13.6382,8.0 L 13.5618,8.0 L 13.4854,8.0 L 13.409,8.0 L 13.3327,8.0 L 13.2563,8.0 L 13.1799,8.0 L 13.1035,8.0 L 13.0271,8.0 L 12.9507,8.0 L 12.8743,8.0 L 12.798,8.0 L 12.7216,8.0 L 12.6452,8.0 L 12.5688,8.0" />
      <path d="M 12.5688,8.0 L 12.5687,8.0 L 12.5686,8.0 L 12.5685,8.0 L 12.5685,7.9999 L 12.5684,7.9999 L 12.5683,7.9999 L 12.5683,7.9998 L 12.5682,7.9998 L 12.5682,7.9997 L 12.5681,7.9997" />
      <path d="M 14.3952,1.25 L 14.3951,1.2153 L 14.3951,1.1806 L 14.395,1.1458 L 14.395,1.1111 L 14.3949,1.0764 L 14.3949,1.0417 L 14.3949,1.0069 L 14.3948,0.9722 L 14.3948,0.9375 L 14.3947,0.9028 L 14.3947,0.8681 L 14.3947,0.8333 L 14.3946,0.7986 L 14.3946,0.7639 L 14.3946,0.7292 L 14.3945,0.6944 L 14.3945,0.6597 L 14.3945,0.625 L 14.3945,0.5903 L 14.3944,0.5556 L 14.3944,0.5208 L 14.3944,0.4861 L 14.3944,0.4514 L 14.3944,0.4167 L 14.3944,0.3819 L 14.3943,0.3472 L 14.3943,0.3125 L 14.3943,0.2778 L 14.3943,0.2431 L 14.3943,0.2083 L 14.3943,0.1736 L 14.3943,0.1389 L 14.3943,0.1042 L 14.3943,0.0694 L 14.3943,0.0347 L 14.3943,0.0 L 14.3943,-0.0347 L 14.3943,-0.0694 L 14.3943,-0.1042 L 14.3943,-0.1389 L 14.3943,-0.1736 L 14.3943,-0.2083 L 14.3943,-0.2431 L 14.3943,-0.2778 L 14.3943,-0.3125 L 14.3943,-0.3472 L 14.3944,-0.3819 L 14.3944,-0.4167 L 14.3944,-0.4514 L 14.3944,-0.4861 L 14.3944,-0.5208 L 14.3944,-0.5556 L 14.3945,-0.5903 L 14.3945,-0.625 L 14.3945,-0.6597 L 14.3945,-0.6944 L 14.3946,-0.7292 L 14.3946,-0.7639 L 14.3946,-0.7986 L 14.3947,-0.8333 L 14.3947,-0.8681 L 14.3947,-0.9028 L 14.3948,-0.9375 L 14.3948,-0.9722 L 14.3949,-1.0069 L 14.3949,-1.0417 L 14.3949,-1.0764 L 14.395,-1.1111 L 14.395,-1.1458 L 14.3951,-1.1806 L 14.3951,-1.2153 L 14.3952,-1.25" />
      <path d="M 12.5681,-7.9997 L 12.5682,-7.9997 L 12.5682,-7.9998 L 12.5683,-7.9998 L 12.5683,-7.9999 L 12.5684,-7.9999 L 12.5685,-7.9999 L 12.5685,-8.0 L 12.5686,-8.0 L 12.5687,-8.0 L 12.5688,-8.0" />
      <path d="M 12.5688,-8.0 L 12.5801,-7.9076 L 12.5848,-7.8139 L 12.5883,-7.7202 L 12.5913,-7.6265 L 12.5939,-7.5328 L 12.5962,-7.439 L 12.5983,-7.3453 L 12.6002,-7.2515 L 12.6021,-7.1578 L 12.6037,-7.064 L 12.6053,-6.9702 L 12.6068,-6.8765 L 12.6083,-6.7827 L 12.6096,-6.6889 L 12.6109,-6.5952 L 12.6122,-6.5014 L 12.6134,-6.4076 L 12.6145,-6.3139 L 12.6156,-6.2201 L 12.6167,-6.1263 L 12.6177,-6.0325 L 12.6187,-5.9388 L 12.6196,-5.845 L 12.6206,-5.7512 L 12.6214,-5.6575 L 12.6223,-5.5637 L 12.6231,-5.4699 L 12.6239,-5.3761 L 12.6247,-5.2824 L 12.6255,-5.1886 L 12.6262,-5.0948 L 12.6269,-5.001 L 12.6276,-4.9073 L 12.6283,-4.8135 L 12.6289,-4.7197 L 12.6295,-4.6259 L 12.6302,-4.5322 L 12.6307,-4.4384 L 12.6313,-4.3446 L 12.6319,-4.2508 L 12.6324,-4.1571 L 12.6329,-4.0633 L 12.6334,-3.9695 L 12.6339,-3.8757 L 12.6344,-3.782 L 12.6349,-3.6882 L 12.6353,-3.5944 L 12.6357,-3.5006 L 12.6362,-3.4069 L 12.6366,-3.3131 L 12.637,-3.2193 L 12.6373,-3.1255 L 12.6377,-3.0317 L 12.638,-2.938 L 12.6384,-2.8442 L 12.6387,-2.7504 L 12.639,-2.6566 L 12.6393,-2.5629 L 12.6396,-2.4691 L 12.6399,-2.3753 L 12.6402,-2.2815 L 12.6404,-2.1878 L 12.6407,-2.094 L 12.6409,-2.0002 L 12.6411,-1.9064 L 12.6413,-1.8127 L 12.6415,-1.7189 L 12.6417,-1.6251 L 12.6419,-1.5313 L 12.642,-1.4376 L 12.6422,-1.3438 L 12.6423,-1.25" />
      <path d="M 14.5423,-1.25 L 14.5159,-1.25 L 14.4895,-1.25 L 14.4631,-1.25 L 14.4367,-1.25 L 14.4103,-1.25 L 14.3839,-1.25 L 14.3575,-1.25 L 14.3312,-1.25 L 14.3048,-1.25 L 14.2784,-1.25 L 14.252,-1.25 L 14.2256,-1.25 L 14.1992,-1.25 L 14.1728,-1.25 L 14.1464,-1.25 L 14.1201,-1.25 L 14.0937,-1.25 L 14.0673,-1.25 L 14.0409,-1.25 L 14.0145,-1.25 L 13.9881,-1.25 L 13.9617,-1.25 L 13.9353,-1.25 L 13.9089,-1.25 L 13.8826,-1.25 L 13.8562,-1.25 L 13.8298,-1.25 L 13.8034,-1.25 L 13.777,-1.25 L 13.7506,-1.25 L 13.7242,-1.25 L 13.6978,-1.25 L 13.6715,-1.25 L 13.6451,-1.25 L 13.6187,-1.25 L 13.5923,-1.25 L 13.5659,-1.25 L 13.5395,-1.25 L 13.5131,-1.25 L 13.4867,-1.25 L 13.4604,-1.25 L 13.434,-1.25 L 13.4076,-1.25 L 13.3812,-1.25 L 13.3548,-1.25 L 13.3284,-1.25 L 13.302,-1.25 L 13.2756,-1.25 L 13.2493,-1.25 L 13.2229,-1.25 L 13.1965,-1.25 L 13.1701,-1.25 L 13.1437,-1.25 L 13.1173,-1.25 L 13.0909,-1.25 L 13.0645,-1.25 L 13.0382,-1.25 L 13.0118,-1.25 L 12.9854,-1.25 L 12.959,-1.25 L 12.9326,-1.25 L 12.9062,-1.25 L 12.8798,-1.25 L 12.8534,-1.25 L 12.8271,-1.25 L 12.8007,-1.25 L 12.7743,-1.25 L 12.7479,-1.25 L 12.7215,-1.25 L 12.6951,-1.25 L 12.6687,-1.25 L 12.6423,-1.25" />
      <path d="M 14.5423,-1.25 L 14.5423,-1.2153 L 14.5424,-1.1806 L 14.5424,-1.1458 L 14.5424,-1.1111 L 14.5425,-1.0764 L 14.5425,-1.0417 L 14.5426,-1.0069 L 14.5426,-0.9722 L 14.5427,-0.9375 L 14.5427,-0.9028 L 14.5427,-0.8681 L 14.5428,-0.8333 L 14.5428,-0.7986 L 14.5428,-0.7639 L 14.5429,-0.7292 L 14.5429,-0.6944 L 14.5429,-0.6597 L 14.5429,-0.625 L 14.543,-0.5903 L 14.543,-0.5556 L 14.543,-0.5208 L 14.543,-0.4861 L 14.5431,-0.4514 L 14.5431,-0.4167 L 14.5431,-0.3819 L 14.5431,-0.3472 L 14.5431,-0.3125 L 14.5431,-0.2778 L 14.5431,-0.2431 L 14.5431,-0.2083 L 14.5432,-0.1736 L 14.5432,-0.1389 L 14.5432,-0.1042 L 14.5432,-0.0694 L 14.5432,-0.0347 L 14.5432,0.0 L 14.5432,0.0347 L 14.5432,0.0694 L 14.5432,0.1042 L 14.5432,0.1389 L 14.5432,0.1736 L 14.5431,0.2083 L 14.5431,0.2431 L 14.5431,0.2778 L 14.5431,0.3125 L 14.5431,0.3472 L 14.5431,0.3819 L 14.5431,0.4167 L 14.5431,0.4514 L 14.543,0.4861 L 14.543,0.5208 L 14.543,0.5556 L 14.543,0.5903 L 14.5429,0.625 L 14.5429,0.6597 L 14.5429,0.6944 L 14.5429,0.7292 L 14.5428,0.7639 L 14.5428,0.7986 L 14.5428,0.8333 L 14.5427,0.8681 L 14.5427,0.9028 L 14.5427,0.9375 L 14.5426,0.9722 L 14.5426,1.0069 L 14.5425,1.0417 L 14.5425,1.0764 L 14.5424,1.1111 L 14.5424,1.1458 L 14.5424,1.1806 L 14.5423,1.2153 L 14.5423,1.25" />
      <path d="M 14.5423,1.25 L 14.5159,1.25 L 14.4895,1.25 L 14.4631,1.25 L 14.4367,1.25 L 14.4103,1.25 L 14.3839,1.25 L 14.3575,1.25 L 14.3312,1.25 L 14.3048,1.25 L 14.2784,1.25 L 14.252,1.25 L 14.2256,1.25 L 14.1992,1.25 L 14.1728,1.25 L 14.1464,1.25 L 14.1201,1.25 L 14.0937,1.25 L 14.0673,1.25 L 14.0409,1.25 L 14.0145,1.25 L 13.9881,1.25 L 13.9617,1.25 L 13.9353,1.25 L 13.9089,1.25 L 13.8826,1.25 L 13.8562,1.25 L 13.8298,1.25 L 13.8034,1.25 L 13.777,1.25 L 13.7506,1.25 L 13.7242,1.25 L 13.6978,1.25 L 13.6715,1.25 L 13.6451,1.25 L 13.6187,1.25 L 13.5923,1.25 L 13.5659,1.25 L 13.5395,1.25 L 13.5131,1.25 L 13.4867,1.25 L 13.4604,1.25 L 13.434,1.25 L 13.4076,1.25 L 13.3812,1.25 L 13.3548,1.25 L 13.3284,1.25 L 13.302,1.25 L 13.2756,1.25 L 13.2493,1.25 L 13.2229,1.25 L 13.1965,1.25 L 13.1701,1.25 L 13.1437,1.25 L 13.1173,1.25 L 13.0909,1.25 L 13.0645,1.25 L 13.0382,1.25 L 13.0118,1.25 L 12.9854,1.25 L 12.959,1.25 L 12.9326,1.25 L 12.9062,1.25 L 12.8798,1.25 L 12.8534,1.25 L 12.8271,1.25 L 12.8007,1.25 L 12.7743,1.25 L 12.7479,1.25 L 12.7215,1.25 L 12.6951,1.25 L 12.6687,1.25 L 12.6423,1.25" />
      <path d="M 12.6423,1.25 L 12.6422,1.3438 L 12.642,1.4375 L 12.6419,1.5313 L 12.6417,1.6251 L 12.6415,1.7189 L 12.6413,1.8126 L 12.6411,1.9064 L 12.6409,2.0002 L 12.6407,2.094 L 12.6404,2.1877 L 12.6402,2.2815 L 12.6399,2.3753 L 12.6396,2.4691 L 12.6393,2.5628 L 12.639,2.6566 L 12.6387,2.7504 L 12.6384,2.8442 L 12.638,2.9379 L 12.6377,3.0317 L 12.6373,3.1255 L 12.637,3.2193 L 12.6366,3.313 L 12.6362,3.4068 L 12.6357,3.5006 L 12.6353,3.5943 L 12.6349,3.6881 L 12.6344,3.7819 L 12.6339,3.8757 L 12.6334,3.9694 L 12.6329,4.0632 L 12.6324,4.157 L 12.6319,4.2508 L 12.6313,4.3445 L 12.6307,4.4383 L 12.6302,4.5321 L 12.6295,4.6258 L 12.6289,4.7196 L 12.6283,4.8134 L 12.6276,4.9072 L 12.6269,5.0009 L 12.6262,5.0947 L 12.6255,5.1885 L 12.6247,5.2823 L 12.6239,5.376 L 12.6231,5.4698 L 12.6223,5.5636 L 12.6214,5.6573 L 12.6206,5.7511 L 12.6196,5.8449 L 12.6187,5.9386 L 12.6177,6.0324 L 12.6167,6.1262 L 12.6156,6.2199 L 12.6145,6.3137 L 12.6134,6.4075 L 12.6122,6.5013 L 12.6109,6.595 L 12.6096,6.6888 L 12.6083,6.7825 L 12.6069,6.8763 L 12.6053,6.9701 L 12.6037,7.0638 L 12.6021,7.1576 L 12.6002,7.2513 L 12.5983,7.3451 L 12.5962,7.4389 L 12.5939,7.5326 L 12.5913,7.6263 L 12.5883,7.7201 L 12.5848,7.8138 L 12.5801,7.9074 L 12.5688,8.0" />
      <path d="M 12.0,-1.25 L 12.0001,-1.3368 L 12.0003,-1.4236 L 12.0005,-1.5105 L 12.0006,-1.5973 L 12.0008,-1.6841 L 12.001,-1.7709 L 12.0012,-1.8577 L 12.0014,-1.9446 L 12.0016,-2.0314 L 12.0019,-2.1182 L 12.0021,-2.205 L 12.0024,-2.2918 L 12.0026,-2.3787 L 12.0029,-2.4655 L 12.0032,-2.5523 L 12.0035,-2.6391 L 12.0038,-2.7259 L 12.0041,-2.8127 L 12.0045,-2.8996 L 12.0048,-2.9864 L 12.0052,-3.0732 L 12.0055,-3.16 L 12.0059,-3.2468 L 12.0063,-3.3337 L 12.0067,-3.4205 L 12.0071,-3.5073 L 12.0076,-3.5941 L 12.008,-3.6809 L 12.0085,-3.7678 L 12.0089,-3.8546 L 12.0094,-3.9414 L 12.0099,-4.0282 L 12.0105,-4.115 L 12.011,-4.2018 L 12.0116,-4.2887 L 12.0121,-4.3755 L 12.0127,-4.4623 L 12.0133,-4.5491 L 12.014,-4.6359 L 12.0146,-4.7228 L 12.0153,-4.8096 L 12.016,-4.8964 L 12.0167,-4.9832 L 12.0174,-5.07 L 12.0181,-5.1568 L 12.0189,-5.2437 L 12.0197,-5.3305 L 12.0206,-5.4173 L 12.0214,-5.5041 L 12.0223,-5.5909 L 12.0232,-5.6777 L 12.0242,-5.7645 L 12.0252,-5.8514 L 12.0262,-5.9382 L 12.0273,-6.025 L 12.0284,-6.1118 L 12.0295,-6.1986 L 12.0307,-6.2854 L 12.032,-6.3722 L 12.0333,-6.459 L 12.0348,-6.5459 L 12.0362,-6.6327 L 12.0378,-6.7195 L 12.0395,-6.8063 L 12.0413,-6.8931 L 12.0433,-6.9799 L 12.0454,-7.0667 L 12.0479,-7.1534 L 12.0506,-7.2402 L 12.0539,-7.327 L 12.0583,-7.4137 L 12.0682,-7.4997" />
      <path d="M 12.0682,-7.4997 L 12.0793,-7.4152 L 12.0837,-7.3285 L 12.087,-7.2417 L 12.0897,-7.1549 L 12.0922,-7.0682 L 12.0943,-6.9814 L 12.0963,-6.8946 L 12.0981,-6.8077 L 12.0998,-6.7209 L 12.1014,-6.6341 L 12.1029,-6.5473 L 12.1043,-6.4605 L 12.1056,-6.3736 L 12.1069,-6.2868 L 12.1081,-6.2 L 12.1093,-6.1131 L 12.1104,-6.0263 L 12.1114,-5.9395 L 12.1125,-5.8526 L 12.1135,-5.7658 L 12.1144,-5.679 L 12.1153,-5.5921 L 12.1162,-5.5053 L 12.1171,-5.4184 L 12.1179,-5.3316 L 12.1187,-5.2448 L 12.1195,-5.1579 L 12.1202,-5.0711 L 12.121,-4.9842 L 12.1217,-4.8974 L 12.1224,-4.8105 L 12.123,-4.7237 L 12.1237,-4.6369 L 12.1243,-4.55 L 12.1249,-4.4632 L 12.1255,-4.3763 L 12.1261,-4.2895 L 12.1266,-4.2026 L 12.1272,-4.1158 L 12.1277,-4.029 L 12.1282,-3.9421 L 12.1287,-3.8553 L 12.1292,-3.7684 L 12.1296,-3.6816 L 12.1301,-3.5947 L 12.1305,-3.5079 L 12.1309,-3.421 L 12.1313,-3.3342 L 12.1317,-3.2474 L 12.1321,-3.1605 L 12.1325,-3.0737 L 12.1328,-2.9868 L 12.1332,-2.9 L 12.1335,-2.8131 L 12.1338,-2.7263 L 12.1342,-2.6395 L 12.1345,-2.5526 L 12.1347,-2.4658 L 12.135,-2.3789 L 12.1353,-2.2921 L 12.1355,-2.2053 L 12.1358,-2.1184 L 12.136,-2.0316 L 12.1362,-1.9447 L 12.1364,-1.8579 L 12.1366,-1.771 L 12.1368,-1.6842 L 12.137,-1.5974 L 12.1372,-1.5105 L 12.1374,-1.4237 L 12.1375,-1.3368 L 12.1376,-1.25" />
      <path d="M 12.6423,-1.25 L 12.6353,-1.25 L 12.6283,-1.25 L 12.6213,-1.25 L 12.6143,-1.25 L 12.6073,-1.25 L 12.6003,-1.25 L 12.5933,-1.25 L 12.5863,-1.25 L 12.5793,-1.25 L 12.5722,-1.25 L 12.5652,-1.25 L 12.5582,-1.25 L 12.5512,-1.25 L 12.5442,-1.25 L 12.5372,-1.25 L 12.5302,-1.25 L 12.5232,-1.25 L 12.5162,-1.25 L 12.5092,-1.25 L 12.5021,-1.25 L 12.4951,-1.25 L 12.4881,-1.25 L 12.4811,-1.25 L 12.4741,-1.25 L 12.4671,-1.25 L 12.4601,-1.25 L 12.4531,-1.25 L 12.4461,-1.25 L 12.4391,-1.25 L 12.432,-1.25 L 12.425,-1.25 L 12.418,-1.25 L 12.411,-1.25 L 12.404,-1.25 L 12.397,-1.25 L 12.39,-1.25 L 12.383,-1.25 L 12.376,-1.25 L 12.369,-1.25 L 12.362,-1.25 L 12.3549,-1.25 L 12.3479,-1.25 L 12.3409,-1.25 L 12.3339,-1.25 L 12.3269,-1.25 L 12.3199,-1.25 L 12.3129,-1.25 L 12.3059,-1.25 L 12.2989,-1.25 L 12.2919,-1.25 L 12.2848,-1.25 L 12.2778,-1.25 L 12.2708,-1.25 L 12.2638,-1.25 L 12.2568,-1.25 L 12.2498,-1.25 L 12.2428,-1.25 L 12.2358,-1.25 L 12.2288,-1.25 L 12.2218,-1.25 L 12.2147,-1.25 L 12.2077,-1.25 L 12.2007,-1.25 L 12.1937,-1.25 L 12.1867,-1.25 L 12.1797,-1.25 L 12.1727,-1.25 L 12.1657,-1.25 L 12.1587,-1.25 L 12.1517,-1.25 L 12.1447,-1.25 L 12.1376,-1.25" />
      <path d="M 12.1376,-1.25 L 12.1357,-1.25 L 12.1338,-1.25 L 12.1319,-1.25 L 12.13,-1.25 L 12.1281,-1.25 L 12.1262,-1.25 L 12.1243,-1.25 L 12.1224,-1.25 L 12.1204,-1.25 L 12.1185,-1.25 L 12.1166,-1.25 L 12.1147,-1.25 L 12.1128,-1.25 L 12.1109,-1.25 L 12.109,-1.25 L 12.1071,-1.25 L 12.1051,-1.25 L 12.1032,-1.25 L 12.1013,-1.25 L 12.0994,-1.25 L 12.0975,-1.25 L 12.0956,-1.25 L 12.0937,-1.25 L 12.0918,-1.25 L 12.0899,-1.25 L 12.0879,-1.25 L 12.086,-1.25 L 12.0841,-1.25 L 12.0822,-1.25 L 12.0803,-1.25 L 12.0784,-1.25 L 12.0765,-1.25 L 12.0746,-1.25 L 12.0726,-1.25 L 12.0707,-1.25 L 12.0688,-1.25 L 12.0669,-1.25 L 12.065,-1.25 L 12.0631,-1.25 L 12.0612,-1.25 L 12.0593,-1.25 L 12.0574,-1.25 L 12.0554,-1.25 L 12.0535,-1.25 L 12.0516,-1.25 L 12.0497,-1.25 L 12.0478,-1.25 L 12.0459,-1.25 L 12.044,-1.25 L 12.0421,-1.25 L 12.0401,-1.25 L 12.0382,-1.25 L 12.0363,-1.25 L 12.0344,-1.25 L 12.0325,-1.25 L 12.0306,-1.25 L 12.0287,-1.25 L 12.0268,-1.25 L 12.0249,-1.25 L 12.0229,-1.25 L 12.021,-1.25 L 12.0191,-1.25 L 12.0172,-1.25 L 12.0153,-1.25 L 12.0134,-1.25 L 12.0115,-1.25 L 12.0096,-1.25 L 12.0076,-1.25 L 12.0057,-1.25 L 12.0038,-1.25 L 12.0019,-1.25 L 12.0,-1.25" />
      <path d="M 12.6423,1.25 L 12.6353,1.25 L 12.6283,1.25 L 12.6213,1.25 L 12.6143,1.25 L 12.6073,1.25 L 12.6003,1.25 L 12.5933,1.25 L 12.5863,1.25 L 12.5793,1.25 L 12.5722,1.25 L 12.5652,1.25 L 12.5582,1.25 L 12.5512,1.25 L 12.5442,1.25 L 12.5372,1.25 L 12.5302,1.25 L 12.5232,1.25 L 12.5162,1.25 L 12.5092,1.25 L 12.5021,1.25 L 12.4951,1.25 L 12.4881,1.25 L 12.4811,1.25 L 12.4741,1.25 L 12.4671,1.25 L 12.4601,1.25 L 12.4531,1.25 L 12.4461,1.25 L 12.4391,1.25 L 12.432,1.25 L 12.425,1.25 L 12.418,1.25 L 12.411,1.25 L 12.404,1.25 L 12.397,1.25 L 12.39,1.25 L 12.383,1.25 L 12.376,1.25 L 12.369,1.25 L 12.362,1.25 L 12.3549,1.25 L 12.3479,1.25 L 12.3409,1.25 L 12.3339,1.25 L 12.3269,1.25 L 12.3199,1.25 L 12.3129,1.25 L 12.3059,1.25 L 12.2989,1.25 L 12.2919,1.25 L 12.2848,1.25 L 12.2778,1.25 L 12.2708,1.25 L 12.2638,1.25 L 12.2568,1.25 L 12.2498,1.25 L 12.2428,1.25 L 12.2358,1.25 L 12.2288,1.25 L 12.2218,1.25 L 12.2147,1.25 L 12.2077,1.25 L 12.2007,1.25 L 12.1937,1.25 L 12.1867,1.25 L 12.1797,1.25 L 12.1727,1.25 L 12.1657,1.25 L 12.1587,1.25 L 12.1517,1.25 L 12.1447,1.25 L 12.1376,1.25" />
      <path d="M 12.1376,1.25 L 12.1357,1.25 L 12.1338,1.25 L 12.1319,1.25 L 12.13,1.25 L 12.1281,1.25 L 12.1262,1.25 L 12.1243,1.25 L 12.1224,1.25 L 12.1204,1.25 L 12.1185,1.25 L 12.1166,1.25 L 12.1147,1.25 L 12.1128,1.25 L 12.1109,1.25 L 12.109,1.25 L 12.1071,1.25 L 12.1051,1.25 L 12.1032,1.25 L 12.1013,1.25 L 12.0994,1.25 L 12.0975,1.25 L 12.0956,1.25 L 12.0937,1.25 L 12.0918,1.25 L 12.0899,1.25 L 12.0879,1.25 L 12.086,1.25 L 12.0841,1.25 L 12.0822,1.25 L 12.0803,1.25 L 12.0784,1.25 L 12.0765,1.25 L 12.0746,1.25 L 12.0726,1.25 L 12.0707,1.25 L 12.0688,1.25 L 12.0669,1.25 L 12.065,1.25 L 12.0631,1.25 L 12.0612,1.25 L 12.0593,1.25 L 12.0574,1.25 L 12.0554,1.25 L 12.0535,1.25 L 12.0516,1.25 L 12.0497,1.25 L 12.0478,1.25 L 12.0459,1.25 L 12.044,1.25 L 12.0421,1.25 L 12.0401,1.25 L 12.0382,1.25 L 12.0363,1.25 L 12.0344,1.25 L 12.0325,1.25 L 12.0306,1.25 L 12.0287,1.25 L 12.0268,1.25 L 12.0249,1.25 L 12.0229,1.25 L 12.021,1.25 L 12.0191,1.25 L 12.0172,1.25 L 12.0153,1.25 L 12.0134,1.25 L 12.0115,1.25 L 12.0096,1.25 L 12.0076,1.25 L 12.0057,1.25 L 12.0038,1.25 L 12.0019,1.25 L 12.0,1.25" />
      <path d="M 12.0,1.25 L 12.0001,1.3368 L 12.0003,1.4236 L 12.0005,1.5105 L 12.0006,1.5973 L 12.0008,1.6841 L 12.001,1.7709 L 12.0012,1.8577 L 12.0014,1.9446 L 12.0016,2.0314 L 12.0019,2.1182 L 12.0021,2.205 L 12.0024,2.2918 L 12.0026,2.3787 L 12.0029,2.4655 L 12.0032,2.5523 L 12.0035,2.6391 L 12.0038,2.7259 L 12.0041,2.8127 L 12.0045,2.8996 L 12.0048,2.9864 L 12.0052,3.0732 L 12.0055,3.16 L 12.0059,3.2468 L 12.0063,3.3337 L 12.0067,3.4205 L 12.0071,3.5073 L 12.0076,3.5941 L 12.008,3.6809 L 12.0085,3.7678 L 12.0089,3.8546 L 12.0094,3.9414 L 12.0099,4.0282 L 12.0105,4.115 L 12.011,4.2018 L 12.0116,4.2887 L 12.0121,4.3755 L 12.0127,4.4623 L 12.0133,4.5491 L 12.014,4.6359 L 12.0146,4.7228 L 12.0153,4.8096 L 12.016,4.8964 L 12.0167,4.9832 L 12.0174,5.07 L 12.0181,5.1568 L 12.0189,5.2437 L 12.0197,5.3305 L 12.0206,5.4173 L 12.0214,5.5041 L 12.0223,5.5909 L 12.0232,5.6777 L 12.0242,5.7645 L 12.0252,5.8514 L 12.0262,5.9382 L 12.0273,6.025 L 12.0284,6.1118 L 12.0295,6.1986 L 12.0307,6.2854 L 12.032,6.3722 L 12.0333,6.459 L 12.0348,6.5459 L 12.0362,6.6327 L 12.0378,6.7195 L 12.0395,6.8063 L 12.0413,6.8931 L 12.0433,6.9799 L 12.0454,7.0667 L 12.0479,7.1534 L 12.0506,7.2402 L 12.0539,7.327 L 12.0583,7.4137 L 12.0682,7.4997" />
      <path d="M 12.0682,7.4997 L 12.0793,7.4152 L 12.0837,7.3285 L 12.087,7.2417 L 12.0897,7.1549 L 12.0922,7.0682 L 12.0943,6.9814 L 12.0963,6.8946 L 12.0981,6.8077 L 12.0998,6.7209 L 12.1014,6.6341 L 12.1029,6.5473 L 12.1043,6.4605 L 12.1056,6.3736 L 12.1069,6.2868 L 12.1081,6.2 L 12.1093,6.1131 L 12.1104,6.0263 L 12.1114,5.9395 L 12.1125,5.8526 L 12.1135,5.7658 L 12.1144,5.679 L 12.1153,5.5921 L 12.1162,5.5053 L 12.1171,5.4184 L 12.1179,5.3316 L 12.1187,5.2448 L 12.1195,5.1579 L 12.1202,5.0711 L 12.121,4.9842 L 12.1217,4.8974 L 12.1224,4.8105 L 12.123,4.7237 L 12.1237,4.6369 L 12.1243,4.55 L 12.1249,4.4632 L 12.1255,4.3763 L 12.1261,4.2895 L 12.1266,4.2026 L 12.1272,4.1158 L 12.1277,4.029 L 12.1282,3.9421 L 12.1287,3.8553 L 12.1292,3.7684 L 12.1296,3.6816 L 12.1301,3.5947 L 12.1305,3.5079 L 12.1309,3.421 L 12.1313,3.3342 L 12.1317,3.2474 L 12.1321,3.1605 L 12.1325,3.0737 L 12.1328,2.9868 L 12.1332,2.9 L 12.1335,2.8131 L 12.1338,2.7263 L 12.1342,2.6395 L 12.1345,2.5526 L 12.1347,2.4658 L 12.135,2.3789 L 12.1353,2.2921 L 12.1355,2.2053 L 12.1358,2.1184 L 12.136,2.0316 L 12.1362,1.9447 L 12.1364,1.8579 L 12.1366,1.771 L 12.1368,1.6842 L 12.137,1.5974 L 12.1372,1.5105 L 12.1374,1.4237 L 12.1375,1.3368 L 12.1376,1.25" />
      <path d="M 18.1267,-5.0 L 18.5425,-5.0 L 18.9584,-5.0 L 19.3742,-5.0 L 19.79,-5.0 L 20.2059,-5.0 L 20.6217,-5.0 L 21.0376,-5.0 L 21.4534,-5.0 L 21.8693,-5.0 L 22.2851,-5.0 L 22.7009,-5.0 L 23.1168,-5.0 L 23.5326,-5.0 L 23.9485,-5.0 L 24.3643,-5.0 L 24.7801,-5.0 L 25.196,-5.0 L 25.6118,-5.0 L 26.0277,-5.0 L 26.4435,-5.0 L 26.8594,-5.0 L 27.2752,-5.0 L 27.691,-5.0 L 28.1069,-5.0 L 28.5227,-5.0 L 28.9386,-5.0 L 29.3544,-5.0 L 29.7702,-5.0 L 30.1861,-5.0 L 30.6019,-5.0 L 31.0178,-5.0 L 31.4336,-5.0 L 31.8494,-5.0 L 32.2653,-5.0 L 32.6811,-5.0 L 33.097,-5.0 L 33.5128,-5.0 L 33.9287,-5.0 L 34.3445,-5.0 L 34.7603,-5.0 L 35.1762,-5.0 L 35.592,-5.0 L 36.0079,-5.0 L 36.4237,-5.0 L 36.8395,-5.0 L 37.2554,-5.0 L 37.6712,-5.0 L 38.0871,-5.0 L 38.5029,-5.0 L 38.9188,-5.0 L 39.3346,-5.0 L 39.7504,-5.0 L 40.1663,-5.0 L 40.5821,-5.0 L 40.998,-5.0 L 41.4138,-5.0 L 41.8296,-5.0 L 42.2455,-5.0 L 42.6613,-5.0 L 43.0772,-5.0 L 43.493,-5.0 L 43.9088,-5.0 L 44.3247,-5.0 L 44.7405,-5.0 L 45.1564,-5.0 L 45.5722,-5.0 L 45.9881,-5.0 L 46.4039,-5.0 L 46.8197,-5.0 L 47.2356,-5.0 L 47.6514,-5.0 L 48.0673,-5.0" />
      <path d="M 18.0686,-8.0 L 17.9922,-8.0 L 17.9158,-8.0 L 17.8394,-8.0 L 17.763,-8.0 L 17.6866,-8.0 L 17.6102,-8.0 L 17.5339,-8.0 L 17.4575,-8.0 L 17.3811,-8.0 L 17.3047,-8.0 L 17.2283,-8.0 L 17.1519,-8.0 L 17.0755,-8.0 L 16.9992,-8.0 L 16.9228,-8.0 L 16.8464,-8.0 L 16.77,-8.0 L 16.6936,-8.0 L 16.6172,-8.0 L 16.5409,-8.0 L 16.4645,-8.0 L 16.3881,-8.0 L 16.3117,-8.0 L 16.2353,-8.0 L 16.1589,-8.0 L 16.0825,-8.0 L 16.0062,-8.0 L 15.9298,-8.0 L 15.8534,-8.0 L 15.777,-8.0 L 15.7006,-8.0 L 15.6242,-8.0 L 15.5478,-8.0 L 15.4715,-8.0 L 15.3951,-8.0 L 15.3187,-8.0 L 15.2423,-8.0 L 15.1659,-8.0 L 15.0895,-8.0 L 15.0131,-8.0 L 14.9368,-8.0 L 14.8604,-8.0 L 14.784,-8.0 L 14.7076,-8.0 L 14.6312,-8.0 L 14.5548,-8.0 L 14.4784,-8.0 L 14.4021,-8.0 L 14.3257,-8.0 L 14.2493,-8.0 L 14.1729,-8.0 L 14.0965,-8.0 L 14.0201,-8.0 L 13.9437,-8.0 L 13.8674,-8.0 L 13.791,-8.0 L 13.7146,-8.0 L 13.6382,-8.0 L 13.5618,-8.0 L 13.4854,-8.0 L 13.409,-8.0 L 13.3327,-8.0 L 13.2563,-8.0 L 13.1799,-8.0 L 13.1035,-8.0 L 13.0271,-8.0 L 12.9507,-8.0 L 12.8743,-8.0 L 12.798,-8.0 L 12.7216,-8.0 L 12.6452,-8.0 L 12.5688,-8.0" />
      <path d="M 12.0682,-7.4997 L 12.0751,-7.5066 L 12.0821,-7.5136 L 12.089,-7.5205 L 12.0959,-7.5275 L 12.1029,-7.5344 L 12.1098,-7.5413 L 12.1168,-7.5483 L 12.1237,-7.5552 L 12.1307,-7.5622 L 12.1376,-7.5691 L 12.1446,-7.5761 L 12.1515,-7.583 L 12.1584,-7.5899 L 12.1654,-7.5969 L 12.1723,-7.6038 L 12.1793,-7.6108 L 12.1862,-7.6177 L 12.1932,-7.6247 L 12.2001,-7.6316 L 12.207,-7.6386 L 12.214,-7.6455 L 12.2209,-7.6524 L 12.2279,-7.6594 L 12.2348,-7.6663 L 12.2418,-7.6733 L 12.2487,-7.6802 L 12.2556,-7.6872 L 12.2626,-7.6941 L 12.2695,-7.7011 L 12.2765,-7.708 L 12.2834,-7.7149 L 12.2904,-7.7219 L 12.2973,-7.7288 L 12.3043,-7.7358 L 12.3112,-7.7427 L 12.3181,-7.7497 L 12.3251,-7.7566 L 12.332,-7.7636 L 12.339,-7.7705 L 12.3459,-7.7774 L 12.3529,-7.7844 L 12.3598,-7.7913 L 12.3667,-7.7983 L 12.3737,-7.8052 L 12.3806,-7.8122 L 12.3876,-7.8191 L 12.3945,-7.826 L 12.4015,-7.833 L 12.4084,-7.8399 L 12.4153,-7.8469 L 12.4223,-7.8538 L 12.4292,-7.8608 L 12.4362,-7.8677 L 12.4431,-7.8747 L 12.4501,-7.8816 L 12.457,-7.8885 L 12.464,-7.8955 L 12.4709,-7.9024 L 12.4778,-7.9094 L 12.4848,-7.9163 L 12.4917,-7.9233 L 12.4987,-7.9302 L 12.5056,-7.9372 L 12.5126,-7.9441 L 12.5195,-7.951 L 12.5264,-7.958 L 12.5334,-7.9649 L 12.5403,-7.9719 L 12.5473,-7.9788 L 12.5542,-7.9858 L 12.5612,-7.9927 L 12.5681,-7.9997" />
      <path d="M 12.0682,7.4997 L 12.0751,7.5066 L 12.0821,7.5136 L 12.089,7.5205 L 12.0959,7.5275 L 12.1029,7.5344 L 12.1098,7.5413 L 12.1168,7.5483 L 12.1237,7.5552 L 12.1307,7.5622 L 12.1376,7.5691 L 12.1446,7.5761 L 12.1515,7.583 L 12.1584,7.5899 L 12.1654,7.5969 L 12.1723,7.6038 L 12.1793,7.6108 L 12.1862,7.6177 L 12.1932,7.6247 L 12.2001,7.6316 L 12.207,7.6386 L 12.214,7.6455 L 12.2209,7.6524 L 12.2279,7.6594 L 12.2348,7.6663 L 12.2418,7.6733 L 12.2487,7.6802 L 12.2556,7.6872 L 12.2626,7.6941 L 12.2695,7.7011 L 12.2765,7.708 L 12.2834,7.7149 L 12.2904,7.7219 L 12.2973,7.7288 L 12.3043,7.7358 L 12.3112,7.7427 L 12.3181,7.7497 L 12.3251,7.7566 L 12.332,7.7636 L 12.339,7.7705 L 12.3459,7.7774 L 12.3529,7.7844 L 12.3598,7.7913 L 12.3667,7.7983 L 12.3737,7.8052 L 12.3806,7.8122 L 12.3876,7.8191 L 12.3945,7.826 L 12.4015,7.833 L 12.4084,7.8399 L 12.4153,7.8469 L 12.4223,7.8538 L 12.4292,7.8608 L 12.4362,7.8677 L 12.4431,7.8747 L 12.4501,7.8816 L 12.457,7.8885 L 12.464,7.8955 L 12.4709,7.9024 L 12.4778,7.9094 L 12.4848,7.9163 L 12.4917,7.9233 L 12.4987,7.9302 L 12.5056,7.9372 L 12.5126,7.9441 L 12.5195,7.951 L 12.5264,7.958 L 12.5334,7.9649 L 12.5403,7.9719 L 12.5473,7.9788 L 12.5542,7.9858 L 12.5612,7.9927 L 12.5681,7.9997" />
    </g>
    <g fill="none" stroke="rgb(110,110,110)" stroke-width="0.3" id="Hidden" stroke-dasharray="3.6 0.9">
      <path d="M 0.0,8.0 L -0.6972,7.9696 L -1.3892,7.8785 L -2.0706,7.7274 L -2.7362,7.5175 L -3.3809,7.2505 L -4.0,6.9282 L -4.5886,6.5532 L -5.1423,6.1284 L -5.6569,5.6569 L -6.1284,5.1423 L -6.5532,4.5886 L -6.9282,4.0 L -7.2505,3.3809 L -7.5175,2.7362 L -7.7274,2.0706 L -7.8785,1.3892 L -7.9696,0.6972 L -8.0,0.0 L -7.9696,-0.6972 L -7.8785,-1.3892 L -7.7274,-2.0706 L -7.5175,-2.7362 L -7.2505,-3.3809 L -6.9282,-4.0 L -6.5532,-4.5886 L -6.1284,-5.1423 L -5.6569,-5.6569 L -5.1423,-6.1284 L -4.5886,-6.5532 L -4.0,-6.9282 L -3.3809,-7.2505 L -2.7362,-7.5175 L -2.0706,-7.7274 L -1.3892,-7.8785 L -0.6972,-7.9696 L -0.0,-8.0 L 0.6972,-7.9696 L 1.3892,-7.8785 L 2.0706,-7.7274 L 2.7362,-7.5175 L 3.3809,-7.2505 L 4.0,-6.9282 L 4.5886,-6.5532 L 5.1423,-6.1284 L 5.6569,-5.6569 L 6.1284,-5.1423 L 6.5532,-4.5886 L 6.9282,-4.0 L 7.2505,-3.3809 L 7.5175,-2.7362 L 7.7274,-2.0706 L 7.8785,-1.3892 L 7.9696,-0.6972 L 8.0,-0.0 L 7.9696,0.6972 L 7.8785,1.3892 L 7.7274,2.0706 L 7.5175,2.7362 L 7.2505,3.3809 L 6.9282,4.0 L 6.5532,4.5886 L 6.1284,5.1423 L 5.6569,5.6569 L 5.1423,6.1284 L 4.5886,6.5532 L 4.0,6.9282 L 3.3809,7.2505 L 2.7362,7.5175 L 2.0706,7.7274 L 1.3892,7.8785 L 0.6972,7.9696 L 0.0,8.0" />
      <path d="M 0.0,5.0 L -0.4358,4.981 L -0.8682,4.924 L -1.2941,4.8296 L -1.7101,4.6985 L -2.1131,4.5315 L -2.5,4.3301 L -2.8679,4.0958 L -3.2139,3.8302 L -3.5355,3.5355 L -3.8302,3.2139 L -4.0958,2.8679 L -4.3301,2.5 L -4.5315,2.1131 L -4.6985,1.7101 L -4.8296,1.2941 L -4.924,0.8682 L -4.981,0.4358 L -5.0,0.0 L -4.981,-0.4358 L -4.924,-0.8682 L -4.8296,-1.2941 L -4.6985,-1.7101 L -4.5315,-2.1131 L -4.3301,-2.5 L -4.0958,-2.8679 L -3.8302,-3.2139 L -3.5355,-3.5355 L -3.2139,-3.8302 L -2.8679,-4.0958 L -2.5,-4.3301 L -2.1131,-4.5315 L -1.7101,-4.6985 L -1.2941,-4.8296 L -0.8682,-4.924 L -0.4358,-4.981 L -0.0,-5.0 L 0.4358,-4.981 L 0.8682,-4.924 L 1.2941,-4.8296 L 1.7101,-4.6985 L 2.1131,-4.5315 L 2.5,-4.3301 L 2.8679,-4.0958 L 3.2139,-3.8302 L 3.5355,-3.5355 L 3.8302,-3.2139 L 4.0958,-2.8679 L 4.3301,-2.5 L 4.5315,-2.1131 L 4.6985,-1.7101 L 4.8296,-1.2941 L 4.924,-0.8682 L 4.981,-0.4358 L 5.0,-0.0 L 4.981,0.4358 L 4.924,0.8682 L 4.8296,1.2941 L 4.6985,1.7101 L 4.5315,2.1131 L 4.3301,2.5 L 4.0958,2.8679 L 3.8302,3.2139 L 3.5355,3.5355 L 3.2139,3.8302 L 2.8679,4.0958 L 2.5,4.3301 L 2.1131,4.5315 L 1.7101,4.6985 L 1.2941,4.8296 L 0.8682,4.924 L 0.4358,4.981 L 0.0,5.0" />
      <path d="M 0.0,5.0 L -0.4358,4.981 L -0.8682,4.924 L -1.2941,4.8296 L -1.7101,4.6985 L -2.1131,4.5315 L -2.5,4.3301 L -2.8679,4.0958 L -3.2139,3.8302 L -3.5355,3.5355 L -3.8302,3.2139 L -4.0958,2.8679 L -4.3301,2.5 L -4.5315,2.1131 L -4.6985,1.7101 L -4.8296,1.2941 L -4.924,0.8682 L -4.981,0.4358 L -5.0,0.0 L -4.981,-0.4358 L -4.924,-0.8682 L -4.8296,-1.2941 L -4.6985,-1.7101 L -4.5315,-2.1131 L -4.3301,-2.5 L -4.0958,-2.8679 L -3.8302,-3.2139 L -3.5355,-3.5355 L -3.2139,-3.8302 L -2.8679,-4.0958 L -2.5,-4.3301 L -2.1131,-4.5315 L -1.7101,-4.6985 L -1.2941,-4.8296 L -0.8682,-4.924 L -0.4358,-4.981 L -0.0,-5.0 L 0.4358,-4.981 L 0.8682,-4.924 L 1.2941,-4.8296 L 1.7101,-4.6985 L 2.1131,-4.5315 L 2.5,-4.3301 L 2.8679,-4.0958 L 3.2139,-3.8302 L 3.5355,-3.5355 L 3.8302,-3.2139 L 4.0958,-2.8679 L 4.3301,-2.5 L 4.5315,-2.1131 L 4.6985,-1.7101 L 4.8296,-1.2941 L 4.924,-0.8682 L 4.981,-0.4358 L 5.0,-0.0 L 4.981,0.4358 L 4.924,0.8682 L 4.8296,1.2941 L 4.6985,1.7101 L 4.5315,2.1131 L 4.3301,2.5 L 4.0958,2.8679 L 3.8302,3.2139 L 3.5355,3.5355 L 3.2139,3.8302 L 2.8679,4.0958 L 2.5,4.3301 L 2.1131,4.5315 L 1.7101,4.6985 L 1.2941,4.8296 L 0.8682,4.924 L 0.4358,4.981 L 0.0,5.0" />
      <path d="M 7.9017,-1.25 L 7.6822,-1.25 L 7.4628,-1.25 L 7.2433,-1.25 L 7.0238,-1.25 L 6.8043,-1.25 L 6.5848,-1.25 L 6.3653,-1.25 L 6.1458,-1.25 L 5.9263,-1.25 L 5.7068,-1.25 L 5.4873,-1.25 L 5.2678,-1.25 L 5.0483,-1.25 L 4.8288,-1.25 L 4.6093,-1.25 L 4.3899,-1.25 L 4.1704,-1.25 L 3.9509,-1.25 L 3.7314,-1.25 L 3.5119,-1.25 L 3.2924,-1.25 L 3.0729,-1.25 L 2.8534,-1.25 L 2.6339,-1.25 L 2.4144,-1.25 L 2.1949,-1.25 L 1.9754,-1.25 L 1.7559,-1.25 L 1.5364,-1.25 L 1.317,-1.25 L 1.0975,-1.25 L 0.878,-1.25 L 0.6585,-1.25 L 0.439,-1.25 L 0.2195,-1.25 L 0.0,-1.25 L -0.2195,-1.25 L -0.439,-1.25 L -0.6585,-1.25 L -0.878,-1.25 L -1.0975,-1.25 L -1.317,-1.25 L -1.5364,-1.25 L -1.7559,-1.25 L -1.9754,-1.25 L -2.1949,-1.25 L -2.4144,-1.25 L -2.6339,-1.25 L -2.8534,-1.25 L -3.0729,-1.25 L -3.2924,-1.25 L -3.5119,-1.25 L -3.7314,-1.25 L -3.9509,-1.25 L -4.1704,-1.25 L -4.3899,-1.25 L -4.6093,-1.25 L -4.8288,-1.25 L -5.0483,-1.25 L -5.2678,-1.25 L -5.4873,-1.25 L -5.7068,-1.25 L -5.9263,-1.25 L -6.1458,-1.25 L -6.3653,-1.25 L -6.5848,-1.25 L -6.8043,-1.25 L -7.0238,-1.25 L -7.2433,-1.25 L -7.4628,-1.25 L -7.6822,-1.25 L -7.9017,-1.25" />
      <path d="M 7.9017,1.25 L 7.6822,1.25 L 7.4628,1.25 L 7.2433,1.25 L 7.0238,1.25 L 6.8043,1.25 L 6.5848,1.25 L 6.3653,1.25 L 6.1458,1.25 L 5.9263,1.25 L 5.7068,1.25 L 5.4873,1.25 L 5.2678,1.25 L 5.0483,1.25 L 4.8288,1.25 L 4.6093,1.25 L 4.3899,1.25 L 4.1704,1.25 L 3.9509,1.25 L 3.7314,1.25 L 3.5119,1.25 L 3.2924,1.25 L 3.0729,1.25 L 2.8534,1.25 L 2.6339,1.25 L 2.4144,1.25 L 2.1949,1.25 L 1.9754,1.25 L 1.7559,1.25 L 1.5364,1.25 L 1.317,1.25 L 1.0975,1.25 L 0.878,1.25 L 0.6585,1.25 L 0.439,1.25 L 0.2195,1.25 L 0.0,1.25 L -0.2195,1.25 L -0.439,1.25 L -0.6585,1.25 L -0.878,1.25 L -1.0975,1.25 L -1.317,1.25 L -1.5364,1.25 L -1.7559,1.25 L -1.9754,1.25 L -2.1949,1.25 L -2.4144,1.25 L -2.6339,1.25 L -2.8534,1.25 L -3.0729,1.25 L -3.2924,1.25 L -3.5119,1.25 L -3.7314,1.25 L -3.9509,1.25 L -4.1704,1.25 L -4.3899,1.25 L -4.6093,1.25 L -4.8288,1.25 L -5.0483,1.25 L -5.2678,1.25 L -5.4873,1.25 L -5.7068,1.25 L -5.9263,1.25 L -6.1458,1.25 L -6.3653,1.25 L -6.5848,1.25 L -6.8043,1.25 L -7.0238,1.25 L -7.2433,1.25 L -7.4628,1.25 L -7.6822,1.25 L -7.9017,1.25" />
      <path d="M 18.0686,8.0 L 18.0512,7.7793 L 18.0441,7.5571 L 18.0388,7.3349 L 18.0345,7.1127 L 18.0307,6.8904 L 18.0274,6.6682 L 18.0245,6.4459 L 18.0218,6.2237 L 18.0193,6.0014 L 18.0171,5.7792 L 18.015,5.5569 L 18.0131,5.3346 L 18.0113,5.1124 L 18.0096,4.8901 L 18.0081,4.6678 L 18.0067,4.4456 L 18.0053,4.2233 L 18.0041,4.001 L 18.0029,3.7788 L 18.0019,3.5565 L 18.0009,3.3342 L 18.0,3.112 L 17.9991,2.8897 L 17.9984,2.6674 L 17.9977,2.4452 L 17.997,2.2229 L 17.9965,2.0006 L 17.996,1.7784 L 17.9955,1.5561 L 17.9952,1.3338 L 17.9948,1.1116 L 17.9946,0.8893 L 17.9944,0.667 L 17.9942,0.4447 L 17.9941,0.2225 L 17.9941,0.0002 L 17.9941,-0.2221 L 17.9942,-0.4443 L 17.9944,-0.6666 L 17.9946,-0.8889 L 17.9948,-1.1111 L 17.9952,-1.3334 L 17.9955,-1.5557 L 17.996,-1.7779 L 17.9965,-2.0002 L 17.997,-2.2225 L 17.9977,-2.4447 L 17.9984,-2.667 L 17.9991,-2.8893 L 18.0,-3.1115 L 18.0009,-3.3338 L 18.0019,-3.5561 L 18.0029,-3.7783 L 18.0041,-4.0006 L 18.0053,-4.2229 L 18.0067,-4.4451 L 18.0081,-4.6674 L 18.0096,-4.8897 L 18.0113,-5.1119 L 18.0131,-5.3342 L 18.015,-5.5565 L 18.0171,-5.7787 L 18.0193,-6.001 L 18.0218,-6.2232 L 18.0245,-6.4455 L 18.0274,-6.6677 L 18.0307,-6.89 L 18.0345,-7.1122 L 18.0388,-7.3345 L 18.0441,-7.5567 L 18.0512,-7.7788 L 18.0686,-8.0" />
      <path d="M 18.0686,5.0 L 18.0577,4.862 L 18.0533,4.7232 L 18.05,4.5843 L 18.0473,4.4454 L 18.0449,4.3065 L 18.0429,4.1676 L 18.041,4.0287 L 18.0393,3.8898 L 18.0378,3.7509 L 18.0364,3.612 L 18.0351,3.4731 L 18.0339,3.3342 L 18.0328,3.1952 L 18.0317,3.0563 L 18.0308,2.9174 L 18.0299,2.7785 L 18.029,2.6396 L 18.0283,2.5007 L 18.0275,2.3617 L 18.0269,2.2228 L 18.0263,2.0839 L 18.0257,1.945 L 18.0252,1.8061 L 18.0247,1.6671 L 18.0243,1.5282 L 18.0239,1.3893 L 18.0235,1.2504 L 18.0232,1.1115 L 18.0229,0.9726 L 18.0227,0.8336 L 18.0225,0.6947 L 18.0223,0.5558 L 18.0222,0.4169 L 18.0221,0.278 L 18.022,0.139 L 18.022,0.0001 L 18.022,-0.1388 L 18.0221,-0.2777 L 18.0222,-0.4166 L 18.0223,-0.5555 L 18.0225,-0.6945 L 18.0227,-0.8334 L 18.0229,-0.9723 L 18.0232,-1.1112 L 18.0235,-1.2501 L 18.0239,-1.389 L 18.0243,-1.528 L 18.0247,-1.6669 L 18.0252,-1.8058 L 18.0257,-1.9447 L 18.0263,-2.0836 L 18.0269,-2.2226 L 18.0275,-2.3615 L 18.0283,-2.5004 L 18.029,-2.6393 L 18.0299,-2.7782 L 18.0308,-2.9171 L 18.0317,-3.056 L 18.0328,-3.195 L 18.0339,-3.3339 L 18.0351,-3.4728 L 18.0364,-3.6117 L 18.0378,-3.7506 L 18.0393,-3.8895 L 18.041,-4.0284 L 18.0428,-4.1673 L 18.0449,-4.3062 L 18.0473,-4.4451 L 18.05,-4.584 L 18.0533,-4.7229 L 18.0577,-4.8618 L 18.0686,-5.0" />
      <path d="M 18.0686,-5.0 L 18.0794,-4.862 L 18.0838,-4.7232 L 18.0871,-4.5843 L 18.0899,-4.4454 L 18.0922,-4.3065 L 18.0943,-4.1676 L 18.0961,-4.0287 L 18.0978,-3.8898 L 18.0993,-3.7509 L 18.1007,-3.612 L 18.102,-3.4731 L 18.1032,-3.3342 L 18.1044,-3.1952 L 18.1054,-3.0563 L 18.1064,-2.9174 L 18.1072,-2.7785 L 18.1081,-2.6396 L 18.1089,-2.5007 L 18.1096,-2.3617 L 18.1102,-2.2228 L 18.1109,-2.0839 L 18.1114,-1.945 L 18.112,-1.8061 L 18.1124,-1.6671 L 18.1129,-1.5282 L 18.1133,-1.3893 L 18.1136,-1.2504 L 18.1139,-1.1115 L 18.1142,-0.9726 L 18.1144,-0.8336 L 18.1146,-0.6947 L 18.1148,-0.5558 L 18.1149,-0.4169 L 18.115,-0.278 L 18.1151,-0.139 L 18.1151,-0.0001 L 18.1151,0.1388 L 18.115,0.2777 L 18.1149,0.4166 L 18.1148,0.5555 L 18.1146,0.6945 L 18.1144,0.8334 L 18.1142,0.9723 L 18.1139,1.1112 L 18.1136,1.2501 L 18.1133,1.389 L 18.1129,1.528 L 18.1124,1.6669 L 18.112,1.8058 L 18.1114,1.9447 L 18.1109,2.0836 L 18.1102,2.2226 L 18.1096,2.3615 L 18.1089,2.5004 L 18.1081,2.6393 L 18.1072,2.7782 L 18.1064,2.9171 L 18.1054,3.056 L 18.1044,3.195 L 18.1032,3.3339 L 18.102,3.4728 L 18.1007,3.6117 L 18.0993,3.7506 L 18.0978,3.8895 L 18.0961,4.0284 L 18.0943,4.1673 L 18.0922,4.3062 L 18.0899,4.4451 L 18.0871,4.584 L 18.0838,4.7229 L 18.0794,4.8618 L 18.0686,5.0" />
      <path d="M 48.0673,5.0 L 48.0564,4.862 L 48.052,4.7232 L 48.0487,4.5843 L 48.046,4.4454 L 48.0436,4.3065 L 48.0416,4.1676 L 48.0397,4.0287 L 48.038,3.8898 L 48.0365,3.7509 L 48.0351,3.612 L 48.0338,3.4731 L 48.0326,3.3342 L 48.0315,3.1952 L 48.0304,3.0563 L 48.0295,2.9174 L 48.0286,2.7785 L 48.0277,2.6396 L 48.027,2.5007 L 48.0262,2.3617 L 48.0256,2.2228 L 48.025,2.0839 L 48.0244,1.945 L 48.0239,1.8061 L 48.0234,1.6671 L 48.023,1.5282 L 48.0226,1.3893 L 48.0222,1.2504 L 48.0219,1.1115 L 48.0216,0.9726 L 48.0214,0.8336 L 48.0212,0.6947 L 48.021,0.5558 L 48.0209,0.4169 L 48.0208,0.278 L 48.0207,0.139 L 48.0207,0.0001 L 48.0207,-0.1388 L 48.0208,-0.2777 L 48.0209,-0.4166 L 48.021,-0.5555 L 48.0212,-0.6945 L 48.0214,-0.8334 L 48.0216,-0.9723 L 48.0219,-1.1112 L 48.0222,-1.2501 L 48.0226,-1.389 L 48.023,-1.528 L 48.0234,-1.6669 L 48.0239,-1.8058 L 48.0244,-1.9447 L 48.025,-2.0836 L 48.0256,-2.2226 L 48.0262,-2.3615 L 48.027,-2.5004 L 48.0277,-2.6393 L 48.0286,-2.7782 L 48.0295,-2.9171 L 48.0304,-3.056 L 48.0315,-3.195 L 48.0326,-3.3339 L 48.0338,-3.4728 L 48.0351,-3.6117 L 48.0365,-3.7506 L 48.038,-3.8895 L 48.0397,-4.0284 L 48.0416,-4.1673 L 48.0436,-4.3062 L 48.046,-4.4451 L 48.0487,-4.584 L 48.052,-4.7229 L 48.0564,-4.8618 L 48.0673,-5.0" />
      <path d="M 18.0686,5.0 L 18.0694,5.0 L 18.0702,5.0 L 18.071,5.0 L 18.0718,5.0 L 18.0726,5.0 L 18.0734,5.0 L 18.0742,5.0 L 18.075,5.0 L 18.0758,5.0 L 18.0766,5.0 L 18.0774,5.0 L 18.0782,5.0 L 18.0791,5.0 L 18.0799,5.0 L 18.0807,5.0 L 18.0815,5.0 L 18.0823,5.0 L 18.0831,5.0 L 18.0839,5.0 L 18.0847,5.0 L 18.0855,5.0 L 18.0863,5.0 L 18.0871,5.0 L 18.0879,5.0 L 18.0887,5.0 L 18.0895,5.0 L 18.0904,5.0 L 18.0912,5.0 L 18.092,5.0 L 18.0928,5.0 L 18.0936,5.0 L 18.0944,5.0 L 18.0952,5.0 L 18.096,5.0 L 18.0968,5.0 L 18.0976,5.0 L 18.0984,5.0 L 18.0992,5.0 L 18.1,5.0 L 18.1009,5.0 L 18.1017,5.0 L 18.1025,5.0 L 18.1033,5.0 L 18.1041,5.0 L 18.1049,5.0 L 18.1057,5.0 L 18.1065,5.0 L 18.1073,5.0 L 18.1081,5.0 L 18.1089,5.0 L 18.1097,5.0 L 18.1105,5.0 L 18.1113,5.0 L 18.1122,5.0 L 18.113,5.0 L 18.1138,5.0 L 18.1146,5.0 L 18.1154,5.0 L 18.1162,5.0 L 18.117,5.0 L 18.1178,5.0 L 18.1186,5.0 L 18.1194,5.0 L 18.1202,5.0 L 18.121,5.0 L 18.1218,5.0 L 18.1226,5.0 L 18.1235,5.0 L 18.1243,5.0 L 18.1251,5.0 L 18.1259,5.0 L 18.1267,5.0" />
      <path d="M 12.5681,7.9997 L 12.5575,7.9068 L 12.5528,7.8132 L 12.5493,7.7195 L 12.5463,7.6258 L 12.5437,7.532 L 12.5414,7.4383 L 12.5393,7.3445 L 12.5373,7.2508 L 12.5355,7.1571 L 12.5338,7.0633 L 12.5322,6.9696 L 12.5307,6.8758 L 12.5293,6.782 L 12.528,6.6883 L 12.5267,6.5945 L 12.5254,6.5008 L 12.5242,6.407 L 12.5231,6.3133 L 12.522,6.2195 L 12.5209,6.1257 L 12.5199,6.032 L 12.5189,5.9382 L 12.518,5.8445 L 12.517,5.7507 L 12.5162,5.6569 L 12.5153,5.5632 L 12.5145,5.4694 L 12.5137,5.3756 L 12.5129,5.2819 L 12.5121,5.1881 L 12.5114,5.0944 L 12.5107,5.0006 L 12.51,4.9068 L 12.5093,4.8131 L 12.5087,4.7193 L 12.5081,4.6255 L 12.5074,4.5318 L 12.5069,4.438 L 12.5063,4.3442 L 12.5057,4.2505 L 12.5052,4.1567 L 12.5047,4.063 L 12.5042,3.9692 L 12.5037,3.8754 L 12.5032,3.7817 L 12.5027,3.6879 L 12.5023,3.5941 L 12.5019,3.5004 L 12.5014,3.4066 L 12.501,3.3128 L 12.5006,3.2191 L 12.5003,3.1253 L 12.4999,3.0315 L 12.4996,2.9378 L 12.4992,2.844 L 12.4989,2.7502 L 12.4986,2.6565 L 12.4983,2.5627 L 12.498,2.469 L 12.4977,2.3752 L 12.4974,2.2814 L 12.4972,2.1877 L 12.4969,2.0939 L 12.4967,2.0001 L 12.4965,1.9064 L 12.4963,1.8126 L 12.4961,1.7188 L 12.4959,1.6251 L 12.4957,1.5313 L 12.4956,1.4375 L 12.4954,1.3438 L 12.4953,1.25" />
      <path d="M 14.3952,1.25 L 14.3688,1.25 L 14.3424,1.25 L 14.316,1.25 L 14.2896,1.25 L 14.2632,1.25 L 14.2369,1.25 L 14.2105,1.25 L 14.1841,1.25 L 14.1577,1.25 L 14.1313,1.25 L 14.1049,1.25 L 14.0785,1.25 L 14.0521,1.25 L 14.0258,1.25 L 13.9994,1.25 L 13.973,1.25 L 13.9466,1.25 L 13.9202,1.25 L 13.8938,1.25 L 13.8674,1.25 L 13.841,1.25 L 13.8147,1.25 L 13.7883,1.25 L 13.7619,1.25 L 13.7355,1.25 L 13.7091,1.25 L 13.6827,1.25 L 13.6563,1.25 L 13.6299,1.25 L 13.6035,1.25 L 13.5772,1.25 L 13.5508,1.25 L 13.5244,1.25 L 13.498,1.25 L 13.4716,1.25 L 13.4452,1.25 L 13.4188,1.25 L 13.3924,1.25 L 13.3661,1.25 L 13.3397,1.25 L 13.3133,1.25 L 13.2869,1.25 L 13.2605,1.25 L 13.2341,1.25 L 13.2077,1.25 L 13.1813,1.25 L 13.155,1.25 L 13.1286,1.25 L 13.1022,1.25 L 13.0758,1.25 L 13.0494,1.25 L 13.023,1.25 L 12.9966,1.25 L 12.9702,1.25 L 12.9439,1.25 L 12.9175,1.25 L 12.8911,1.25 L 12.8647,1.25 L 12.8383,1.25 L 12.8119,1.25 L 12.7855,1.25 L 12.7591,1.25 L 12.7328,1.25 L 12.7064,1.25 L 12.68,1.25 L 12.6536,1.25 L 12.6272,1.25 L 12.6008,1.25 L 12.5744,1.25 L 12.548,1.25 L 12.5217,1.25 L 12.4953,1.25" />
      <path d="M 14.3952,-1.25 L 14.3688,-1.25 L 14.3424,-1.25 L 14.316,-1.25 L 14.2896,-1.25 L 14.2632,-1.25 L 14.2369,-1.25 L 14.2105,-1.25 L 14.1841,-1.25 L 14.1577,-1.25 L 14.1313,-1.25 L 14.1049,-1.25 L 14.0785,-1.25 L 14.0521,-1.25 L 14.0258,-1.25 L 13.9994,-1.25 L 13.973,-1.25 L 13.9466,-1.25 L 13.9202,-1.25 L 13.8938,-1.25 L 13.8674,-1.25 L 13.841,-1.25 L 13.8147,-1.25 L 13.7883,-1.25 L 13.7619,-1.25 L 13.7355,-1.25 L 13.7091,-1.25 L 13.6827,-1.25 L 13.6563,-1.25 L 13.6299,-1.25 L 13.6035,-1.25 L 13.5772,-1.25 L 13.5508,-1.25 L 13.5244,-1.25 L 13.498,-1.25 L 13.4716,-1.25 L 13.4452,-1.25 L 13.4188,-1.25 L 13.3924,-1.25 L 13.3661,-1.25 L 13.3397,-1.25 L 13.3133,-1.25 L 13.2869,-1.25 L 13.2605,-1.25 L 13.2341,-1.25 L 13.2077,-1.25 L 13.1813,-1.25 L 13.155,-1.25 L 13.1286,-1.25 L 13.1022,-1.25 L 13.0758,-1.25 L 13.0494,-1.25 L 13.023,-1.25 L 12.9966,-1.25 L 12.9702,-1.25 L 12.9439,-1.25 L 12.9175,-1.25 L 12.8911,-1.25 L 12.8647,-1.25 L 12.8383,-1.25 L 12.8119,-1.25 L 12.7855,-1.25 L 12.7591,-1.25 L 12.7328,-1.25 L 12.7064,-1.25 L 12.68,-1.25 L 12.6536,-1.25 L 12.6272,-1.25 L 12.6008,-1.25 L 12.5744,-1.25 L 12.548,-1.25 L 12.5217,-1.25 L 12.4953,-1.25" />
      <path d="M 12.4953,-1.25 L 12.4954,-1.3438 L 12.4956,-1.4375 L 12.4957,-1.5313 L 12.4959,-1.6251 L 12.4961,-1.7188 L 12.4963,-1.8126 L 12.4965,-1.9064 L 12.4967,-2.0001 L 12.4969,-2.0939 L 12.4972,-2.1876 L 12.4974,-2.2814 L 12.4977,-2.3752 L 12.498,-2.4689 L 12.4983,-2.5627 L 12.4986,-2.6565 L 12.4989,-2.7502 L 12.4992,-2.844 L 12.4996,-2.9378 L 12.4999,-3.0315 L 12.5003,-3.1253 L 12.5006,-3.2191 L 12.501,-3.3128 L 12.5014,-3.4066 L 12.5019,-3.5004 L 12.5023,-3.5941 L 12.5027,-3.6879 L 12.5032,-3.7816 L 12.5037,-3.8754 L 12.5042,-3.9692 L 12.5047,-4.0629 L 12.5052,-4.1567 L 12.5057,-4.2505 L 12.5063,-4.3442 L 12.5069,-4.438 L 12.5074,-4.5318 L 12.5081,-4.6255 L 12.5087,-4.7193 L 12.5093,-4.813 L 12.51,-4.9068 L 12.5107,-5.0006 L 12.5114,-5.0943 L 12.5121,-5.1881 L 12.5129,-5.2819 L 12.5137,-5.3756 L 12.5145,-5.4694 L 12.5153,-5.5631 L 12.5162,-5.6569 L 12.517,-5.7507 L 12.518,-5.8444 L 12.5189,-5.9382 L 12.5199,-6.0319 L 12.5209,-6.1257 L 12.522,-6.2195 L 12.5231,-6.3132 L 12.5242,-6.407 L 12.5254,-6.5007 L 12.5267,-6.5945 L 12.528,-6.6882 L 12.5293,-6.782 L 12.5307,-6.8758 L 12.5322,-6.9695 L 12.5338,-7.0633 L 12.5355,-7.157 L 12.5373,-7.2508 L 12.5393,-7.3445 L 12.5414,-7.4382 L 12.5437,-7.532 L 12.5463,-7.6257 L 12.5493,-7.7194 L 12.5528,-7.8131 L 12.5575,-7.9068 L 12.5681,-7.9997" />
      <path d="M 12.0,-1.25 L 12.0069,-1.25 L 12.0138,-1.25 L 12.0206,-1.25 L 12.0275,-1.25 L 12.0344,-1.25 L 12.0413,-1.25 L 12.0482,-1.25 L 12.055,-1.25 L 12.0619,-1.25 L 12.0688,-1.25 L 12.0757,-1.25 L 12.0825,-1.25 L 12.0894,-1.25 L 12.0963,-1.25 L 12.1032,-1.25 L 12.1101,-1.25 L 12.1169,-1.25 L 12.1238,-1.25 L 12.1307,-1.25 L 12.1376,-1.25 L 12.1445,-1.25 L 12.1513,-1.25 L 12.1582,-1.25 L 12.1651,-1.25 L 12.172,-1.25 L 12.1788,-1.25 L 12.1857,-1.25 L 12.1926,-1.25 L 12.1995,-1.25 L 12.2064,-1.25 L 12.2132,-1.25 L 12.2201,-1.25 L 12.227,-1.25 L 12.2339,-1.25 L 12.2408,-1.25 L 12.2476,-1.25 L 12.2545,-1.25 L 12.2614,-1.25 L 12.2683,-1.25 L 12.2751,-1.25 L 12.282,-1.25 L 12.2889,-1.25 L 12.2958,-1.25 L 12.3027,-1.25 L 12.3095,-1.25 L 12.3164,-1.25 L 12.3233,-1.25 L 12.3302,-1.25 L 12.3371,-1.25 L 12.3439,-1.25 L 12.3508,-1.25 L 12.3577,-1.25 L 12.3646,-1.25 L 12.3714,-1.25 L 12.3783,-1.25 L 12.3852,-1.25 L 12.3921,-1.25 L 12.399,-1.25 L 12.4058,-1.25 L 12.4127,-1.25 L 12.4196,-1.25 L 12.4265,-1.25 L 12.4334,-1.25 L 12.4402,-1.25 L 12.4471,-1.25 L 12.454,-1.25 L 12.4609,-1.25 L 12.4677,-1.25 L 12.4746,-1.25 L 12.4815,-1.25 L 12.4884,-1.25 L 12.4953,-1.25" />
      <path d="M 14.5423,-1.25 L 14.5402,-1.25 L 14.5382,-1.25 L 14.5361,-1.25 L 14.5341,-1.25 L 14.532,-1.25 L 14.53,-1.25 L 14.528,-1.25 L 14.5259,-1.25 L 14.5239,-1.25 L 14.5218,-1.25 L 14.5198,-1.25 L 14.5177,-1.25 L 14.5157,-1.25 L 14.5137,-1.25 L 14.5116,-1.25 L 14.5096,-1.25 L 14.5075,-1.25 L 14.5055,-1.25 L 14.5034,-1.25 L 14.5014,-1.25 L 14.4994,-1.25 L 14.4973,-1.25 L 14.4953,-1.25 L 14.4932,-1.25 L 14.4912,-1.25 L 14.4891,-1.25 L 14.4871,-1.25 L 14.4851,-1.25 L 14.483,-1.25 L 14.481,-1.25 L 14.4789,-1.25 L 14.4769,-1.25 L 14.4748,-1.25 L 14.4728,-1.25 L 14.4708,-1.25 L 14.4687,-1.25 L 14.4667,-1.25 L 14.4646,-1.25 L 14.4626,-1.25 L 14.4605,-1.25 L 14.4585,-1.25 L 14.4565,-1.25 L 14.4544,-1.25 L 14.4524,-1.25 L 14.4503,-1.25 L 14.4483,-1.25 L 14.4462,-1.25 L 14.4442,-1.25 L 14.4422,-1.25 L 14.4401,-1.25 L 14.4381,-1.25 L 14.436,-1.25 L 14.434,-1.25 L 14.4319,-1.25 L 14.4299,-1.25 L 14.4279,-1.25 L 14.4258,-1.25 L 14.4238,-1.25 L 14.4217,-1.25 L 14.4197,-1.25 L 14.4177,-1.25 L 14.4156,-1.25 L 14.4136,-1.25 L 14.4115,-1.25 L 14.4095,-1.25 L 14.4074,-1.25 L 14.4054,-1.25 L 14.4034,-1.25 L 14.4013,-1.25 L 14.3993,-1.25 L 14.3972,-1.25 L 14.3952,-1.25" />
      <path d="M 14.5423,1.25 L 14.5402,1.25 L 14.5382,1.25 L 14.5361,1.25 L 14.5341,1.25 L 14.532,1.25 L 14.53,1.25 L 14.528,1.25 L 14.5259,1.25 L 14.5239,1.25 L 14.5218,1.25 L 14.5198,1.25 L 14.5177,1.25 L 14.5157,1.25 L 14.5137,1.25 L 14.5116,1.25 L 14.5096,1.25 L 14.5075,1.25 L 14.5055,1.25 L 14.5034,1.25 L 14.5014,1.25 L 14.4994,1.25 L 14.4973,1.25 L 14.4953,1.25 L 14.4932,1.25 L 14.4912,1.25 L 14.4891,1.25 L 14.4871,1.25 L 14.4851,1.25 L 14.483,1.25 L 14.481,1.25 L 14.4789,1.25 L 14.4769,1.25 L 14.4748,1.25 L 14.4728,1.25 L 14.4708,1.25 L 14.4687,1.25 L 14.4667,1.25 L 14.4646,1.25 L 14.4626,1.25 L 14.4605,1.25 L 14.4585,1.25 L 14.4565,1.25 L 14.4544,1.25 L 14.4524,1.25 L 14.4503,1.25 L 14.4483,1.25 L 14.4462,1.25 L 14.4442,1.25 L 14.4422,1.25 L 14.4401,1.25 L 14.4381,1.25 L 14.436,1.25 L 14.434,1.25 L 14.4319,1.25 L 14.4299,1.25 L 14.4279,1.25 L 14.4258,1.25 L 14.4238,1.25 L 14.4217,1.25 L 14.4197,1.25 L 14.4177,1.25 L 14.4156,1.25 L 14.4136,1.25 L 14.4115,1.25 L 14.4095,1.25 L 14.4074,1.25 L 14.4054,1.25 L 14.4034,1.25 L 14.4013,1.25 L 14.3993,1.25 L 14.3972,1.25 L 14.3952,1.25" />
      <path d="M 12.0,1.25 L 12.0069,1.25 L 12.0138,1.25 L 12.0206,1.25 L 12.0275,1.25 L 12.0344,1.25 L 12.0413,1.25 L 12.0482,1.25 L 12.055,1.25 L 12.0619,1.25 L 12.0688,1.25 L 12.0757,1.25 L 12.0825,1.25 L 12.0894,1.25 L 12.0963,1.25 L 12.1032,1.25 L 12.1101,1.25 L 12.1169,1.25 L 12.1238,1.25 L 12.1307,1.25 L 12.1376,1.25 L 12.1445,1.25 L 12.1513,1.25 L 12.1582,1.25 L 12.1651,1.25 L 12.172,1.25 L 12.1788,1.25 L 12.1857,1.25 L 12.1926,1.25 L 12.1995,1.25 L 12.2064,1.25 L 12.2132,1.25 L 12.2201,1.25 L 12.227,1.25 L 12.2339,1.25 L 12.2408,1.25 L 12.2476,1.25 L 12.2545,1.25 L 12.2614,1.25 L 12.2683,1.25 L 12.2751,1.25 L 12.282,1.25 L 12.2889,1.25 L 12.2958,1.25 L 12.3027,1.25 L 12.3095,1.25 L 12.3164,1.25 L 12.3233,1.25 L 12.3302,1.25 L 12.3371,1.25 L 12.3439,1.25 L 12.3508,1.25 L 12.3577,1.25 L 12.3646,1.25 L 12.3714,1.25 L 12.3783,1.25 L 12.3852,1.25 L 12.3921,1.25 L 12.399,1.25 L 12.4058,1.25 L 12.4127,1.25 L 12.4196,1.25 L 12.4265,1.25 L 12.4334,1.25 L 12.4402,1.25 L 12.4471,1.25 L 12.454,1.25 L 12.4609,1.25 L 12.4677,1.25 L 12.4746,1.25 L 12.4815,1.25 L 12.4884,1.25 L 12.4953,1.25" />
      <path d="M 18.0686,-5.0 L 18.0694,-5.0 L 18.0702,-5.0 L 18.071,-5.0 L 18.0718,-5.0 L 18.0726,-5.0 L 18.0734,-5.0 L 18.0742,-5.0 L 18.075,-5.0 L 18.0758,-5.0 L 18.0766,-5.0 L 18.0774,-5.0 L 18.0782,-5.0 L 18.0791,-5.0 L 18.0799,-5.0 L 18.0807,-5.0 L 18.0815,-5.0 L 18.0823,-5.0 L 18.0831,-5.0 L 18.0839,-5.0 L 18.0847,-5.0 L 18.0855,-5.0 L 18.0863,-5.0 L 18.0871,-5.0 L 18.0879,-5.0 L 18.0887,-5.0 L 18.0895,-5.0 L 18.0904,-5.0 L 18.0912,-5.0 L 18.092,-5.0 L 18.0928,-5.0 L 18.0936,-5.0 L 18.0944,-5.0 L 18.0952,-5.0 L 18.096,-5.0 L 18.0968,-5.0 L 18.0976,-5.0 L 18.0984,-5.0 L 18.0992,-5.0 L 18.1,-5.0 L 18.1009,-5.0 L 18.1017,-5.0 L 18.1025,-5.0 L 18.1033,-5.0 L 18.1041,-5.0 L 18.1049,-5.0 L 18.1057,-5.0 L 18.1065,-5.0 L 18.1073,-5.0 L 18.1081,-5.0 L 18.1089,-5.0 L 18.1097,-5.0 L 18.1105,-5.0 L 18.1113,-5.0 L 18.1122,-5.0 L 18.113,-5.0 L 18.1138,-5.0 L 18.1146,-5.0 L 18.1154,-5.0 L 18.1162,-5.0 L 18.117,-5.0 L 18.1178,-5.0 L 18.1186,-5.0 L 18.1194,-5.0 L 18.1202,-5.0 L 18.121,-5.0 L 18.1218,-5.0 L 18.1226,-5.0 L 18.1235,-5.0 L 18.1243,-5.0 L 18.1251,-5.0 L 18.1259,-5.0 L 18.1267,-5.0" />
    </g>
    <g fill="none" stroke="rgb(0,0,0)" stroke-width="0.2" id="Center" stroke-dasharray="6.35 1.27 1.27 1.27">
      <line x1="0.0" y1="0.0" x2="-10.89" y2="0.0" />
      <line x1="0.0" y1="0.0" x2="10.89" y2="0.0" />
      <line x1="0.0" y1="0.0" x2="0.0" y2="-10.89" />
      <line x1="0.0" y1="0.0" x2="0.0" y2="10.89" />
      <line x1="30.0569" y1="0.0" x2="9.11" y2="0.0" />
      <line x1="30.0569" y1="0.0" x2="51.0038" y2="0.0" />
    </g>
  </g>
</svg>