<?xml version='1.0' encoding='utf-8'?>
<svg width="66.2948mm" height="26.18mm" viewBox="-13.09 -13.09 66.2948 26.18" version="1.1" xmlns="http://www.w3.org/2000/svg">
  <g transform="scale(1,-1)" stroke-linecap="round">
    <g fill="none" stroke="rgb(0,0,0)" stroke-width="0.4" id="Visible">
      <path d="M 0.0,8.0 L -0.0174,8.0 L -0.0349,7.9999 L -0.0523,7.9998 L -0.0697,7.9997 L -0.0872,7.9995 L -0.1046,7.9993 L -0.122,7.9991 L -0.1395,7.9988 L -0.1569,7.9985 L -0.1743,7.9981 L -0.1917,7.9977 L -0.2092,7.9973 L -0.2266,7.9968 L -0.244,7.9963 L -0.2614,7.9957 L -0.2789,7.9951 L -0.2963,7.9945 L -0.3137,7.9938 L -0.3311,7.9931 L -0.3485,7.9924 L -0.366,7.9916 L -0.3834,7.9908 L -0.4008,7.99 L -0.4182,7.9891 L -0.4356,7.9881 L -0.453,7.9872 L -0.4704,7.9862 L -0.4878,7.9851 L -0.5052,7.984 L -0.5226,7.9829 L -0.54,7.9818 L -0.5574,7.9806 L -0.5748,7.9793 L -0.5922,7.9781 L -0.6095,7.9767 L -0.6269,7.9754 L -0.6443,7.974 L -0.6617,7.9726 L -0.6791,7.9711 L -0.6964,7.9696 L -0.7138,7.9681 L -0.7311,7.9665 L -0.7485,7.9649 L -0.7659,7.9633 L -0.7832,7.9616 L -0.8006,7.9598 L -0.8179,7.9581 L -0.8352,7.9563 L -0.8526,7.9544 L -0.8699,7.9526 L -0.8872,7.9506 L -0.9046,7.9487 L -0.9219,7.9467 L -0.9392,7.9447 L -0.9565,7.9426 L -0.9738,7.9405 L -0.9911,7.9384 L -1.0084,7.9362 L -1.0257,7.934 L -1.043,7.9317 L -1.0603,7.9294 L -1.0775,7.9271 L -1.0948,7.9247 L -1.1121,7.9223 L -1.1293,7.9199 L -1.1466,7.9174 L -1.1638,7.9149 L -1.1811,7.9123 L -1.1983,7.9097 L -1.2156,7.9071 L -1.2328,7.9044 L -1.25,7.9017" />
      <path d="M -1.25,7.9017 L -1.5593,7.8466 L -1.8662,7.7793 L -2.1702,7.7 L -2.4709,7.6089 L -2.7677,7.506 L -3.0603,7.3915 L -3.3482,7.2656 L -3.6309,7.1286 L -3.908,6.9805 L -4.1791,6.8217 L -4.4437,6.6523 L -4.7015,6.4727 L -4.952,6.2831 L -5.1949,6.0838 L -5.4298,5.8752 L -5.6563,5.6574 L -5.874,5.431 L -6.0828,5.1962 L -6.2821,4.9533 L -6.4717,4.7028 L -6.6514,4.4451 L -6.8208,4.1805 L -6.9797,3.9094 L -7.1278,3.6324 L -7.265,3.3497 L -7.3909,3.0619 L -7.5054,2.7693 L -7.6083,2.4725 L -7.6996,2.1718 L -7.7789,1.8678 L -7.8462,1.5609 L -7.9015,1.2516 L -7.9445,0.9404 L -7.9753,0.6278 L -7.9938,0.3141 L -8.0,-0.0 L -7.9938,-0.3141 L -7.9753,-0.6278 L -7.9445,-0.9404 L -7.9015,-1.2516 L -7.8462,-1.5609 L -7.7789,-1.8678 L -7.6996,-2.1718 L -7.6083,-2.4725 L -7.5054,-2.7693 L -7.3909,-3.0619 L -7.265,-3.3497 L -7.1278,-3.6324 L -6.9797,-3.9094 L -6.8208,-4.1805 L -6.6514,-4.4451 L -6.4717,-4.7028 L -6.2821,-4.9533 L -6.0828,-5.1962 L -5.874,-5.431 L -5.6563,-5.6574 L -5.4298,-5.8752 L -5.1949,-6.0838 L -4.952,-6.2831 L -4.7015,-6.4727 L -4.4437,-6.6523 L -4.1791,-6.8217 L -3.908,-6.9805 L -3.6309,-7.1286 L -3.3482,-7.2656 L -3.0603,-7.3915 L -2.7677,-7.506 L -2.4709,-7.6089 L -2.1702,-7.7 L -1.8662,-7.7793 L -1.5593,-7.8466 L -1.25,-7.9017" />
      <path d="M -1.25,-7.9017 L -1.2156,-7.9071 L -1.1811,-7.9123 L -1.1466,-7.9174 L -1.1121,-7.9223 L -1.0775,-7.9271 L -1.043,-7.9317 L -1.0084,-7.9362 L -0.9738,-7.9405 L -0.9392,-7.9447 L -0.9046,-7.9487 L -0.8699,-7.9526 L -0.8352,-7.9563 L -0.8006,-7.9598 L -0.7659,-7.9633 L -0.7311,-7.9665 L -0.6964,-7.9696 L -0.6617,-7.9726 L -0.6269,-7.9754 L -0.5922,-7.9781 L -0.5574,-7.9806 L -0.5226,-7.9829 L -0.4878,-7.9851 L -0.453,-7.9872 L -0.4182,-7.9891 L -0.3834,-7.9908 L -0.3485,-7.9924 L -0.3137,-7.9938 L -0.2789,-7.9951 L -0.244,-7.9963 L -0.2092,-7.9973 L -0.1743,-7.9981 L -0.1395,-7.9988 L -0.1046,-7.9993 L -0.0697,-7.9997 L -0.0349,-7.9999 L -0.0,-8.0 L 0.0349,-7.9999 L 0.0697,-7.9997 L 0.1046,-7.9993 L 0.1395,-7.9988 L 0.1743,-7.9981 L 0.2092,-7.9973 L 0.244,-7.9963 L 0.2789,-7.9951 L 0.3137,-7.9938 L 0.3485,-7.9924 L 0.3834,-7.9908 L 0.4182,-7.9891 L 0.453,-7.9872 L 0.4878,-7.9851 L 0.5226,-7.9829 L 0.5574,-7.9806 L 0.5922,-7.9781 L 0.6269,-7.9754 L 0.6617,-7.9726 L 0.6964,-7.9696 L 0.7311,-7.9665 L 0.7659,-7.9633 L 0.8006,-7.9598 L 0.8352,-7.9563 L 0.8699,-7.9526 L 0.9046,-7.9487 L 0.9392,-7.9447 L 0.9738,-7.9405 L 1.0084,-7.9362 L 1.043,-7.9317 L 1.0775,-7.9271 L 1.1121,-7.9223 L 1.1466,-7.9174 L 1.1811,-7.9123 L 1.2156,-7.9071 L 1.25,-7.9017" />
      <path d="M 1.25,-7.9017 L 1.5593,-7.8466 L 1.8662,-7.7793 L 2.1702,-7.7 L 2.4709,-7.6089 L 2.7677,-7.506 L 3.0603,-7.3915 L 3.3482,-7.2656 L 3.6309,-7.1286 L 3.908,-6.9805 L 4.1791,-6.8217 L 4.4437,-6.6523 L 4.7015,-6.4727 L 4.952,-6.2831 L 5.1949,-6.0838 L 5.4298,-5.8752 L 5.6563,-5.6574 L 5.874,-5.431 L 6.0828,-5.1962 L 6.2821,-4.9533 L 6.4717,-4.7028 L 6.6514,-4.4451 L 6.8208,-4.1805 L 6.9797,-3.9094 L 7.1278,-3.6324 L 7.265,-3.3497 L 7.3909,-3.0619 L 7.5054,-2.7693 L 7.6083,-2.4725 L 7.6996,-2.1718 L 7.7789,-1.8678 L 7.8462,-1.5609 L 7.9015,-1.2516 L 7.9445,-0.9404 L 7.9753,-0.6278 L 7.9938,-0.3141 L 8.0,0.0 L 7.9938,0.3141 L 7.9753,0.6278 L 7.9445,0.9404 L 7.9015,1.2516 L 7.8462,1.5609 L 7.7789,1.8678 L 7.6996,2.1718 L 7.6083,2.4725 L 7.5054,2.7693 L 7.3909,3.0619 L 7.265,3.3497 L 7.1278,3.6324 L 6.9797,3.9094 L 6.8208,4.1805 L 6.6514,4.4451 L 6.4717,4.7028 L 6.2821,4.9533 L 6.0828,5.1962 L 5.874,5.431 L 5.6563,5.6574 L 5.4298,5.8752 L 5.1949,6.0838 L 4.952,6.2831 L 4.7015,6.4727 L 4.4437,6.6523 L 4.1791,6.8217 L 3.908,6.9805 L 3.6309,7.1286 L 3.3482,7.2656 L 3.0603,7.3915 L 2.7677,7.506 L 2.4709,7.6089 L 2.1702,7.7 L 1.8662,7.7793 L 1.5593,7.8466 L 1.25,7.9017" />
      <path d="M 1.25,7.9017 L 1.2328,7.9044 L 1.2156,7.9071 L 1.1983,7.9097 L 1.1811,7.9123 L 1.1638,7.9149 L 1.1466,7.9174 L 1.1293,7.9199 L 1.1121,7.9223 L 1.0948,7.9247 L 1.0775,7.9271 L 1.0603,7.9294 L 1.043,7.9317 L 1.0257,7.934 L 1.0084,7.9362 L 0.9911,7.9384 L 0.9738,7.9405 L 0.9565,7.9426 L 0.9392,7.9447 L 0.9219,7.9467 L 0.9046,7.9487 L 0.8872,7.9506 L 0.8699,7.9526 L 0.8526,7.9544 L 0.8352,7.9563 L 0.8179,7.9581 L 0.8006,7.9598 L 0.7832,7.9616 L 0.7659,7.9633 L 0.7485,7.9649 L 0.7311,7.9665 L 0.7138,7.9681 L 0.6964,7.9696 L 0.6791,7.9711 L 0.6617,7.9726 L 0.6443,7.974 L 0.6269,7.9754 L 0.6095,7.9767 L 0.5922,7.9781 L 0.5748,7.9793 L 0.5574,7.9806 L 0.54,7.9818 L 0.5226,7.9829 L 0.5052,7.984 L 0.4878,7.9851 L 0.4704,7.9862 L 0.453,7.9872 L 0.4356,7.9881 L 0.4182,7.9891 L 0.4008,7.99 L 0.3834,7.9908 L 0.366,7.9916 L 0.3485,7.9924 L 0.3311,7.9931 L 0.3137,7.9938 L 0.2963,7.9945 L 0.2789,7.9951 L 0.2614,7.9957 L 0.244,7.9963 L 0.2266,7.9968 L 0.2092,7.9973 L 0.1917,7.9977 L 0.1743,7.9981 L 0.1569,7.9985 L 0.1395,7.9988 L 0.122,7.9991 L 0.1046,7.9993 L 0.0872,7.9995 L 0.0697,7.9997 L 0.0523,7.9998 L 0.0349,7.9999 L 0.0174,8.0 L 0.0,8.0" />
      <path d="M -1.25,7.9017 L -1.25,7.8947 L -1.25,7.8877 L -1.25,7.8806 L -1.25,7.8736 L -1.25,7.8666 L -1.25,7.8595 L -1.25,7.8525 L -1.25,7.8454 L -1.25,7.8384 L -1.25,7.8314 L -1.25,7.8243 L -1.25,7.8173 L -1.25,7.8103 L -1.25,7.8032 L -1.25,7.7962 L -1.25,7.7892 L -1.25,7.7821 L -1.25,7.7751 L -1.25,7.768 L -1.25,7.761 L -1.25,7.754 L -1.25,7.7469 L -1.25,7.7399 L -1.25,7.7329 L -1.25,7.7258 L -1.25,7.7188 L -1.25,7.7118 L -1.25,7.7047 L -1.25,7.6977 L -1.25,7.6906 L -1.25,7.6836 L -1.25,7.6766 L -1.25,7.6695 L -1.25,7.6625 L -1.25,7.6555 L -1.25,7.6484 L -1.25,7.6414 L -1.25,7.6343 L -1.25,7.6273 L -1.25,7.6203 L -1.25,7.6132 L -1.25,7.6062 L -1.25,7.5992 L -1.25,7.5921 L -1.25,7.5851 L -1.25,7.5781 L -1.25,7.571 L -1.25,7.564 L -1.25,7.5569 L -1.25,7.5499 L -1.25,7.5429 L -1.25,7.5358 L -1.25,7.5288 L -1.25,7.5218 L -1.25,7.5147 L -1.25,7.5077 L -1.25,7.5006 L -1.25,7.4936 L -1.25,7.4866 L -1.25,7.4795 L -1.25,7.4725 L -1.25,7.4655 L -1.25,7.4584 L -1.25,7.4514 L -1.25,7.4444 L -1.25,7.4373 L -1.25,7.4303 L -1.25,7.4232 L -1.25,7.4162 L -1.25,7.4092 L -1.25,7.4021 L -1.25,7.3951" />
      <path d="M -1.25,7.3951 L -1.25,7.1897 L -1.25,6.9843 L -1.25,6.7788 L -1.25,6.5734 L -1.25,6.368 L -1.25,6.1626 L -1.25,5.9572 L -1.25,5.7517 L -1.25,5.5463 L -1.25,5.3409 L -1.25,5.1355 L -1.25,4.9301 L -1.25,4.7246 L -1.25,4.5192 L -1.25,4.3138 L -1.25,4.1084 L -1.25,3.903 L -1.25,3.6975 L -1.25,3.4921 L -1.25,3.2867 L -1.25,3.0813 L -1.25,2.8759 L -1.25,2.6705 L -1.25,2.465 L -1.25,2.2596 L -1.25,2.0542 L -1.25,1.8488 L -1.25,1.6434 L -1.25,1.4379 L -1.25,1.2325 L -1.25,1.0271 L -1.25,0.8217 L -1.25,0.6163 L -1.25,0.4108 L -1.25,0.2054 L -1.25,0.0 L -1.25,-0.2054 L -1.25,-0.4108 L -1.25,-0.6163 L -1.25,-0.8217 L -1.25,-1.0271 L -1.25,-1.2325 L -1.25,-1.4379 L -1.25,-1.6434 L -1.25,-1.8488 L -1.25,-2.0542 L -1.25,-2.2596 L -1.25,-2.465 L -1.25,-2.6705 L -1.25,-2.8759 L -1.25,-3.0813 L -1.25,-3.2867 L -1.25,-3.4921 L -1.25,-3.6975 L -1.25,-3.903 L -1.25,-4.1084 L -1.25,-4.3138 L -1.25,-4.5192 L -1.25,-4.7246 L -1.25,-4.9301 L -1.25,-5.1355 L -1.25,-5.3409 L -1.25,-5.5463 L -1.25,-5.7517 L -1.25,-5.9572 L -1.25,-6.1626 L -1.25,-6.368 L -1.25,-6.5734 L -1.25,-6.7788 L -1.25,-6.9843 L -1.25,-7.1897 L -1.25,-7.3951" />
      <path d="M -1.25,-7.3951 L -1.25,-7.4021 L -1.25,-7.4092 L -1.25,-7.4162 L -1.25,-7.4232 L -1.25,-7.4303 L -1.25,-7.4373 L -1.25,-7.4444 L -1.25,-7.4514 L -1.25,-7.4584 L -1.25,-7.4655 L -1.25,-7.4725 L -1.25,-7.4795 L -1.25,-7.4866 L -1.25,-7.4936 L -1.25,-7.5006 L -1.25,-7.5077 L -1.25,-7.5147 L -1.25,-7.5218 L -1.25,-7.5288 L -1.25,-7.5358 L -1.25,-7.5429 L -1.25,-7.5499 L -1.25,-7.5569 L -1.25,-7.564 L -1.25,-7.571 L -1.25,-7.5781 L -1.25,-7.5851 L -1.25,-7.5921 L -1.25,-7.5992 L -1.25,-7.6062 L -1.25,-7.6132 L -1.25,-7.6203 L -1.25,-7.6273 L -1.25,-7.6343 L -1.25,-7.6414 L -1.25,-7.6484 L -1.25,-7.6555 L -1.25,-7.6625 L -1.25,-7.6695 L -1.25,-7.6766 L -1.25,-7.6836 L -1.25,-7.6906 L -1.25,-7.6977 L -1.25,-7.7047 L -1.25,-7.7118 L -1.25,-7.7188 L -1.25,-7.7258 L -1.25,-7.7329 L -1.25,-7.7399 L -1.25,-7.7469 L -1.25,-7.754 L -1.25,-7.761 L -1.25,-7.768 L -1.25,-7.7751 L -1.25,-7.7821 L -1.25,-7.7892 L -1.25,-7.7962 L -1.25,-7.8032 L -1.25,-7.8103 L -1.25,-7.8173 L -1.25,-7.8243 L -1.25,-7.8314 L -1.25,-7.8384 L -1.25,-7.8454 L -1.25,-7.8525 L -1.25,-7.8595 L -1.25,-7.8666 L -1.25,-7.8736 L -1.25,-7.8806 L -1.25,-7.8877 L -1.25,-7.8947 L -1.25,-7.9017" />
      <path d="M -1.25,7.3951 L -1.5373,7.3408 L -1.8222,7.2753 L -2.1043,7.1987 L -2.3833,7.1113 L -2.6586,7.013 L -2.9299,6.904 L -3.1967,6.7846 L -3.4587,6.6549 L -3.7154,6.515 L -3.9665,6.3653 L -4.2116,6.2059 L -4.4502,6.037 L -4.6821,5.859 L -4.9069,5.6721 L -5.1242,5.4765 L -5.3338,5.2727 L -5.5352,5.0608 L -5.7282,4.8412 L -5.9125,4.6143 L -6.0879,4.3804 L -6.254,4.1398 L -6.4106,3.8929 L -6.5574,3.6401 L -6.6943,3.3818 L -6.821,3.1184 L -6.9373,2.8502 L -7.0431,2.5776 L -7.1382,2.3012 L -7.2225,2.0212 L -7.2958,1.7382 L -7.358,1.4526 L -7.409,1.1647 L -7.4488,0.8751 L -7.4772,0.5841 L -7.4943,0.2923 L -7.5,0.0 L -7.4943,-0.2923 L -7.4772,-0.5841 L -7.4488,-0.8751 L -7.409,-1.1647 L -7.358,-1.4526 L -7.2958,-1.7382 L -7.2225,-2.0212 L -7.1382,-2.3012 L -7.0431,-2.5776 L -6.9373,-2.8502 L -6.821,-3.1184 L -6.6943,-3.3818 L -6.5574,-3.6401 L -6.4106,-3.8929 L -6.254,-4.1398 L -6.0879,-4.3804 L -5.9125,-4.6143 L -5.7282,-4.8412 L -5.5352,-5.0608 L -5.3338,-5.2727 L -5.1242,-5.4765 L -4.9069,-5.6721 L -4.6821,-5.859 L -4.4502,-6.037 L -4.2116,-6.2059 L -3.9665,-6.3653 L -3.7154,-6.515 L -3.4587,-6.6549 L -3.1967,-6.7846 L -2.9299,-6.904 L -2.6586,-7.013 L -2.3833,-7.1113 L -2.1043,-7.1987 L -1.8222,-7.2753 L -1.5373,-7.3408 L -1.25,-7.3951" />
      <path d="M 1.25,7.9017 L 1.25,7.8947 L 1.25,7.8877 L 1.25,7.8806 L 1.25,7.8736 L 1.25,7.8666 L 1.25,7.8595 L 1.25,7.8525 L 1.25,7.8454 L 1.25,7.8384 L 1.25,7.8314 L 1.25,7.8243 L 1.25,7.8173 L 1.25,7.8103 L 1.25,7.8032 L 1.25,7.7962 L 1.25,7.7892 L 1.25,7.7821 L 1.25,7.7751 L 1.25,7.768 L 1.25,7.761 L 1.25,7.754 L 1.25,7.7469 L 1.25,7.7399 L 1.25,7.7329 L 1.25,7.7258 L 1.25,7.7188 L 1.25,7.7118 L 1.25,7.7047 L 1.25,7.6977 L 1.25,7.6906 L 1.25,7.6836 L 1.25,7.6766 L 1.25,7.6695 L 1.25,7.6625 L 1.25,7.6555 L 1.25,7.6484 L 1.25,7.6414 L 1.25,7.6343 L 1.25,7.6273 L 1.25,7.6203 L 1.25,7.6132 L 1.25,7.6062 L 1.25,7.5992 L 1.25,7.5921 L 1.25,7.5851 L 1.25,7.5781 L 1.25,7.571 L 1.25,7.564 L 1.25,7.5569 L 1.25,7.5499 L 1.25,7.5429 L 1.25,7.5358 L 1.25,7.5288 L 1.25,7.5218 L 1.25,7.5147 L 1.25,7.5077 L 1.25,7.5006 L 1.25,7.4936 L 1.25,7.4866 L 1.25,7.4795 L 1.25,7.4725 L 1.25,7.4655 L 1.25,7.4584 L 1.25,7.4514 L 1.25,7.4444 L 1.25,7.4373 L 1.25,7.4303 L 1.25,7.4232 L 1.25,7.4162 L 1.25,7.4092 L 1.25,7.4021 L 1.25,7.3951" />
      <path d="M 1.25,7.3951 L 1.25,7.1897 L 1.25,6.9843 L 1.25,6.7788 L 1.25,6.5734 L 1.25,6.368 L 1.25,6.1626 L 1.25,5.9572 L 1.25,5.7517 L 1.25,5.5463 L 1.25,5.3409 L 1.25,5.1355 L 1.25,4.9301 L 1.25,4.7246 L 1.25,4.5192 L 1.25,4.3138 L 1.25,4.1084 L 1.25,3.903 L 1.25,3.6975 L 1.25,3.4921 L 1.25,3.2867 L 1.25,3.0813 L 1.25,2.8759 L 1.25,2.6705 L 1.25,2.465 L 1.25,2.2596 L 1.25,2.0542 L 1.25,1.8488 L 1.25,1.6434 L 1.25,1.4379 L 1.25,1.2325 L 1.25,1.0271 L 1.25,0.8217 L 1.25,0.6163 L 1.25,0.4108 L 1.25,0.2054 L 1.25,0.0 L 1.25,-0.2054 L 1.25,-0.4108 L 1.25,-0.6163 L 1.25,-0.8217 L 1.25,-1.0271 L 1.25,-1.2325 L 1.25,-1.4379 L 1.25,-1.6434 L 1.25,-1.8488 L 1.25,-2.0542 L 1.25,-2.2596 L 1.25,-2.465 L 1.25,-2.6705 L 1.25,-2.8759 L 1.25,-3.0813 L 1.25,-3.2867 L 1.25,-3.4921 L 1.25,-3.6975 L 1.25,-3.903 L 1.25,-4.1084 L 1.25,-4.3138 L 1.25,-4.5192 L 1.25,-4.7246 L 1.25,-4.9301 L 1.25,-5.1355 L 1.25,-5.3409 L 1.25,-5.5463 L 1.25,-5.7517 L 1.25,-5.9572 L 1.25,-6.1626 L 1.25,-6.368 L 1.25,-6.5734 L 1.25,-6.7788 L 1.25,-6.9843 L 1.25,-7.1897 L 1.25,-7.3951" />
      <path d="M 1.25,-7.3951 L 1.25,-7.4021 L 1.25,-7.4092 L 1.25,-7.4162 L 1.25,-7.4232 L 1.25,-7.4303 L 1.25,-7.4373 L 1.25,-7.4444 L 1.25,-7.4514 L 1.25,-7.4584 L 1.25,-7.4655 L 1.25,-7.4725 L 1.25,-7.4795 L 1.25,-7.4866 L 1.25,-7.4936 L 1.25,-7.5006 L 1.25,-7.5077 L 1.25,-7.5147 L 1.25,-7.5218 L 1.25,-7.5288 L 1.25,-7.5358 L 1.25,-7.5429 L 1.25,-7.5499 L 1.25,-7.5569 L 1.25,-7.564 L 1.25,-7.571 L 1.25,-7.5781 L 1.25,-7.5851 L 1.25,-7.5921 L 1.25,-7.5992 L 1.25,-7.6062 L 1.25,-7.6132 L 1.25,-7.6203 L 1.25,-7.6273 L 1.25,-7.6343 L 1.25,-7.6414 L 1.25,-7.6484 L 1.25,-7.6555 L 1.25,-7.6625 L 1.25,-7.6695 L 1.25,-7.6766 L 1.25,-7.6836 L 1.25,-7.6906 L 1.25,-7.6977 L 1.25,-7.7047 L 1.25,-7.7118 L 1.25,-7.7188 L 1.25,-7.7258 L 1.25,-7.7329 L 1.25,-7.7399 L 1.25,-7.7469 L 1.25,-7.754 L 1.25,-7.761 L 1.25,-7.768 L 1.25,-7.7751 L 1.25,-7.7821 L 1.25,-7.7892 L 1.25,-7.7962 L 1.25,-7.8032 L 1.25,-7.8103 L 1.25,-7.8173 L 1.25,-7.8243 L 1.25,-7.8314 L 1.25,-7.8384 L 1.25,-7.8454 L 1.25,-7.8525 L 1.25,-7.8595 L 1.25,-7.8666 L 1.25,-7.8736 L 1.25,-7.8806 L 1.25,-7.8877 L 1.25,-7.8947 L 1.25,-7.9017" />
      <path d="M 1.25,-7.3951 L 1.5373,-7.3408 L 1.8222,-7.2753 L 2.1043,-7.1987 L 2.3833,-7.1113 L 2.6586,-7.013 L 2.9299,-6.904 L 3.1967,-6.7846 L 3.4587,-6.6549 L 3.7154,-6.515 L 3.9665,-6.3653 L 4.2116,-6.2059 L 4.4502,-6.037 L 4.6821,-5.859 L 4.9069,-5.6721 L 5.1242,-5.4765 L 5.3338,-5.2727 L 5.5352,-5.0608 L 5.7282,-4.8412 L 5.9125,-4.6143 L 6.0879,-4.3804 L 6.254,-4.1398 L 6.4106,-3.8929 L 6.5574,-3.6401 L 6.6943,-3.3818 L 6.821,-3.1184 L 6.9373,-2.8502 L 7.0431,-2.5776 L 7.1382,-2.3012 L 7.2225,-2.0212 L 7.2958,-1.7382 L 7.358,-1.4526 L 7.409,-1.1647 L 7.4488,-0.8751 L 7.4772,-0.5841 L 7.4943,-0.2923 L 7.5,-0.0 L 7.4943,0.2923 L 7.4772,0.5841 L 7.4488,0.8751 L 7.409,1.1647 L 7.358,1.4526 L 7.2958,1.7382 L 7.2225,2.0212 L 7.1382,2.3012 L 7.0431,2.5776 L 6.9373,2.8502 L 6.821,3.1184 L 6.6943,3.3818 L 6.5574,3.6401 L 6.4106,3.8929 L 6.254,4.1398 L 6.0879,4.3804 L 5.9125,4.6143 L 5.7282,4.8412 L 5.5352,5.0608 L 5.3338,5.2727 L 5.1242,5.4765 L 4.9069,5.6721 L 4.6821,5.859 L 4.4502,6.037 L 4.2116,6.2059 L 3.9665,6.3653 L 3.7154,6.515 L 3.4587,6.6549 L 3.1967,6.7846 L 2.9299,6.904 L 2.6586,7.013 L 2.3833,7.1113 L 2.1043,7.1987 L 1.8222,7.2753 L 1.5373,7.3408 L 1.25,7.3951" />
      <path d="M 18.0695,-8.0 L 18.0869,-7.7793 L 18.094,-7.5571 L 18.0993,-7.3349 L 18.1036,-7.1127 L 18.1074,-6.8904 L 18.1107,-6.6682 L 18.1136,-6.4459 L 18.1163,-6.2237 L 18.1188,-6.0014 L 18.121,-5.7792 L 18.1231,-5.5569 L 18.125,-5.3346 L 18.1268,-5.1124 L 18.1285,-4.8901 L 18.13,-4.6678 L 18.1314,-4.4456 L 18.1328,-4.2233 L 18.134,-4.001 L 18.1352,-3.7788 L 18.1362,-3.5565 L 18.1372,-3.3342 L 18.1381,-3.112 L 18.139,-2.8897 L 18.1397,-2.6674 L 18.1404,-2.4452 L 18.1411,-2.2229 L 18.1416,-2.0006 L 18.1421,-1.7784 L 18.1426,-1.5561 L 18.1429,-1.3338 L 18.1433,-1.1116 L 18.1435,-0.8893 L 18.1437,-0.667 L 18.1439,-0.4447 L 18.144,-0.2225 L 18.144,-0.0002 L 18.144,0.2221 L 18.1439,0.4443 L 18.1437,0.6666 L 18.1435,0.8889 L 18.1433,1.1111 L 18.1429,1.3334 L 18.1426,1.5557 L 18.1421,1.7779 L 18.1416,2.0002 L 18.1411,2.2225 L 18.1404,2.4447 L 18.1397,2.667 L 18.139,2.8893 L 18.1381,3.1115 L 18.1372,3.3338 L 18.1362,3.5561 L 18.1352,3.7783 L 18.134,4.0006 L 18.1328,4.2229 L 18.1314,4.4451 L 18.13,4.6674 L 18.1285,4.8897 L 18.1268,5.1119 L 18.125,5.3342 L 18.1231,5.5565 L 18.121,5.7787 L 18.1188,6.001 L 18.1163,6.2232 L 18.1136,6.4455 L 18.1107,6.6677 L 18.1074,6.89 L 18.1036,7.1122 L 18.0993,7.3345 L 18.094,7.5567 L 18.0869,7.7788 L 18.0695,8.0" />
      <path d="M 18.0695,8.0 L 18.0195,8.0 L 17.9695,8.0 L 17.9195,8.0 L 17.8695,8.0 L 17.8195,8.0 L 17.7696,8.0 L 17.7196,8.0 L 17.6696,8.0 L 17.6196,8.0 L 17.5696,8.0 L 17.5196,8.0 L 17.4696,8.0 L 17.4196,8.0 L 17.3696,8.0 L 17.3196,8.0 L 17.2696,8.0 L 17.2196,8.0 L 17.1696,8.0 L 17.1196,8.0 L 17.0696,8.0 L 17.0196,8.0 L 16.9696,8.0 L 16.9196,8.0 L 16.8696,8.0 L 16.8196,8.0 L 16.7696,8.0 L 16.7196,8.0 L 16.6696,8.0 L 16.6196,8.0 L 16.5696,8.0 L 16.5196,8.0 L 16.4696,8.0 L 16.4196,8.0 L 16.3696,8.0 L 16.3196,8.0 L 16.2696,8.0 L 16.2196,8.0 L 16.1696,8.0 L 16.1196,8.0 L 16.0696,8.0 L 16.0196,8.0 L 15.9696,8.0 L 15.9196,8.0 L 15.8696,8.0 L 15.8196,8.0 L 15.7696,8.0 L 15.7196,8.0 L 15.6696,8.0 L 15.6196,8.0 L 15.5696,8.0 L 15.5196,8.0 L 15.4697,8.0 L 15.4197,8.0 L 15.3697,8.0 L 15.3197,8.0 L 15.2697,8.0 L 15.2197,8.0 L 15.1697,8.0 L 15.1197,8.0 L 15.0697,8.0 L 15.0197,8.0 L 14.9697,8.0 L 14.9197,8.0 L 14.8697,8.0 L 14.8197,8.0 L 14.7697,8.0 L 14.7197,8.0 L 14.6697,8.0 L 14.6197,8.0 L 14.5697,8.0 L 14.5197,8.0 L 14.4697,8.0" />
      <path d="M 14.4697,8.0 L 14.4686,7.9992 L 14.468,7.998 L 14.4675,7.9967 L 14.4672,7.9953 L 14.4668,7.994 L 14.4665,7.9926 L 14.4662,7.9913 L 14.466,7.9899 L 14.4657,7.9886 L 14.4655,7.9872 L 14.4653,7.9858 L 14.4651,7.9845 L 14.4649,7.9831 L 14.4647,7.9817 L 14.4645,7.9804 L 14.4643,7.979 L 14.4641,7.9776 L 14.464,7.9762 L 14.4638,7.9749 L 14.4636,7.9735 L 14.4635,7.9721 L 14.4633,7.9707 L 14.4632,7.9694 L 14.463,7.968 L 14.4629,7.9666 L 14.4628,7.9652 L 14.4626,7.9638 L 14.4625,7.9625 L 14.4624,7.9611 L 14.4622,7.9597 L 14.4621,7.9583 L 14.462,7.957 L 14.4619,7.9556 L 14.4617,7.9542 L 14.4616,7.9528 L 14.4615,7.9514 L 14.4614,7.9501 L 14.4613,7.9487 L 14.4612,7.9473 L 14.4611,7.9459 L 14.4609,7.9445 L 14.4608,7.9432 L 14.4607,7.9418 L 14.4606,7.9404 L 14.4605,7.939 L 14.4604,7.9376 L 14.4603,7.9363 L 14.4602,7.9349 L 14.4601,7.9335 L 14.46,7.9321 L 14.4599,7.9307 L 14.4598,7.9294 L 14.4597,7.928 L 14.4596,7.9266 L 14.4595,7.9252 L 14.4594,7.9238 L 14.4594,7.9225 L 14.4593,7.9211 L 14.4592,7.9197 L 14.4591,7.9183 L 14.459,7.9169 L 14.4589,7.9156 L 14.4588,7.9142 L 14.4587,7.9128 L 14.4586,7.9114 L 14.4586,7.91 L 14.4585,7.9086 L 14.4584,7.9073 L 14.4583,7.9059 L 14.4582,7.9045 L 14.4581,7.9031 L 14.4581,7.9017" />
      <path d="M 12.5814,7.9017 L 12.5811,7.9017 L 12.5808,7.9017 L 12.5804,7.9017 L 12.5801,7.9017 L 12.5798,7.9017 L 12.5795,7.9017 L 12.5791,7.9017 L 12.5788,7.9017 L 12.5785,7.9017 L 12.5782,7.9017 L 12.5779,7.9017 L 12.5775,7.9017 L 12.5772,7.9017 L 12.5769,7.9017 L 12.5766,7.9017 L 12.5762,7.9017 L 12.5759,7.9017 L 12.5756,7.9017 L 12.5753,7.9017 L 12.5749,7.9017 L 12.5746,7.9017 L 12.5743,7.9017 L 12.574,7.9017 L 12.5737,7.9017 L 12.5733,7.9017 L 12.573,7.9017 L 12.5727,7.9017 L 12.5724,7.9017 L 12.572,7.9017 L 12.5717,7.9017 L 12.5714,7.9017 L 12.5711,7.9017 L 12.5707,7.9017 L 12.5704,7.9017 L 12.5701,7.9017 L 12.5698,7.9017 L 12.5695,7.9017 L 12.5691,7.9017 L 12.5688,7.9017 L 12.5685,7.9017 L 12.5682,7.9017 L 12.5678,7.9017 L 12.5675,7.9017 L 12.5672,7.9017 L 12.5669,7.9017 L 12.5665,7.9017 L 12.5662,7.9017 L 12.5659,7.9017 L 12.5656,7.9017 L 12.5653,7.9017 L 12.5649,7.9017 L 12.5646,7.9017 L 12.5643,7.9017 L 12.564,7.9017 L 12.5636,7.9017 L 12.5633,7.9017 L 12.563,7.9017 L 12.5627,7.9017 L 12.5623,7.9017 L 12.562,7.9017 L 12.5617,7.9017 L 12.5614,7.9017 L 12.5611,7.9017 L 12.5607,7.9017 L 12.5604,7.9017 L 12.5601,7.9017 L 12.5598,7.9017 L 12.5594,7.9017 L 12.5591,7.9017 L 12.5588,7.9017 L 12.5585,7.9017 L 12.5581,7.9017" />
      <path d="M 12.5814,-7.9017 L 12.5811,-7.9017 L 12.5808,-7.9017 L 12.5804,-7.9017 L 12.5801,-7.9017 L 12.5798,-7.9017 L 12.5795,-7.9017 L 12.5791,-7.9017 L 12.5788,-7.9017 L 12.5785,-7.9017 L 12.5782,-7.9017 L 12.5779,-7.9017 L 12.5775,-7.9017 L 12.5772,-7.9017 L 12.5769,-7.9017 L 12.5766,-7.9017 L 12.5762,-7.9017 L 12.5759,-7.9017 L 12.5756,-7.9017 L 12.5753,-7.9017 L 12.5749,-7.9017 L 12.5746,-7.9017 L 12.5743,-7.9017 L 12.574,-7.9017 L 12.5737,-7.9017 L 12.5733,-7.9017 L 12.573,-7.9017 L 12.5727,-7.9017 L 12.5724,-7.9017 L 12.572,-7.9017 L 12.5717,-7.9017 L 12.5714,-7.9017 L 12.5711,-7.9017 L 12.5707,-7.9017 L 12.5704,-7.9017 L 12.5701,-7.9017 L 12.5698,-7.9017 L 12.5695,-7.9017 L 12.5691,-7.9017 L 12.5688,-7.9017 L 12.5685,-7.9017 L 12.5682,-7.9017 L 12.5678,-7.9017 L 12.5675,-7.9017 L 12.5672,-7.9017 L 12.5669,-7.9017 L 12.5665,-7.9017 L 12.5662,-7.9017 L 12.5659,-7.9017 L 12.5656,-7.9017 L 12.5653,-7.9017 L 12.5649,-7.9017 L 12.5646,-7.9017 L 12.5643,-7.9017 L 12.564,-7.9017 L 12.5636,-7.9017 L 12.5633,-7.9017 L 12.563,-7.9017 L 12.5627,-7.9017 L 12.5623,-7.9017 L 12.562,-7.9017 L 12.5617,-7.9017 L 12.5614,-7.9017 L 12.5611,-7.9017 L 12.5607,-7.9017 L 12.5604,-7.9017 L 12.5601,-7.9017 L 12.5598,-7.9017 L 12.5594,-7.9017 L 12.5591,-7.9017 L 12.5588,-7.9017 L 12.5585,-7.9017 L 12.5581,-7.9017" />
      <path d="M 14.4581,-7.9017 L 14.4581,-7.9031 L 14.4582,-7.9045 L 14.4583,-7.9059 L 14.4584,-7.9073 L 14.4585,-7.9086 L 14.4586,-7.91 L 14.4586,-7.9114 L 14.4587,-7.9128 L 14.4588,-7.9142 L 14.4589,-7.9156 L 14.459,-7.9169 L 14.4591,-7.9183 L 14.4592,-7.9197 L 14.4593,-7.9211 L 14.4594,-7.9225 L 14.4594,-7.9238 L 14.4595,-7.9252 L 14.4596,-7.9266 L 14.4597,-7.928 L 14.4598,-7.9294 L 14.4599,-7.9307 L 14.46,-7.9321 L 14.4601,-7.9335 L 14.4602,-7.9349 L 14.4603,-7.9363 L 14.4604,-7.9376 L 14.4605,-7.939 L 14.4606,-7.9404 L 14.4607,-7.9418 L 14.4608,-7.9432 L 14.4609,-7.9445 L 14.4611,-7.9459 L 14.4612,-7.9473 L 14.4613,-7.9487 L 14.4614,-7.9501 L 14.4615,-7.9514 L 14.4616,-7.9528 L 14.4617,-7.9542 L 14.4619,-7.9556 L 14.462,-7.957 L 14.4621,-7.9583 L 14.4622,-7.9597 L 14.4624,-7.9611 L 14.4625,-7.9625 L 14.4626,-7.9638 L 14.4628,-7.9652 L 14.4629,-7.9666 L 14.463,-7.968 L 14.4632,-7.9694 L 14.4633,-7.9707 L 14.4635,-7.9721 L 14.4636,-7.9735 L 14.4638,-7.9749 L 14.464,-7.9762 L 14.4641,-7.9776 L 14.4643,-7.979 L 14.4645,-7.9804 L 14.4647,-7.9817 L 14.4649,-7.9831 L 14.4651,-7.9845 L 14.4653,-7.9858 L 14.4655,-7.9872 L 14.4657,-7.9886 L 14.466,-7.9899 L 14.4662,-7.9913 L 14.4665,-7.9926 L 14.4668,-7.994 L 14.4672,-7.9953 L 14.4675,-7.9967 L 14.468,-7.998 L 14.4686,-7.9992 L 14.4697,-8.0" />
      <path d="M 14.4697,-8.0 L 14.4708,-7.9992 L 14.4714,-7.998 L 14.4718,-7.9967 L 14.4722,-7.9953 L 14.4726,-7.994 L 14.4729,-7.9926 L 14.4732,-7.9913 L 14.4734,-7.9899 L 14.4737,-7.9886 L 14.4739,-7.9872 L 14.4741,-7.9858 L 14.4743,-7.9845 L 14.4745,-7.9831 L 14.4747,-7.9817 L 14.4749,-7.9804 L 14.4751,-7.979 L 14.4753,-7.9776 L 14.4754,-7.9762 L 14.4756,-7.9749 L 14.4758,-7.9735 L 14.4759,-7.9721 L 14.4761,-7.9707 L 14.4762,-7.9694 L 14.4763,-7.968 L 14.4765,-7.9666 L 14.4766,-7.9652 L 14.4768,-7.9638 L 14.4769,-7.9625 L 14.477,-7.9611 L 14.4772,-7.9597 L 14.4773,-7.9583 L 14.4774,-7.957 L 14.4775,-7.9556 L 14.4776,-7.9542 L 14.4778,-7.9528 L 14.4779,-7.9514 L 14.478,-7.9501 L 14.4781,-7.9487 L 14.4782,-7.9473 L 14.4783,-7.9459 L 14.4784,-7.9445 L 14.4786,-7.9432 L 14.4787,-7.9418 L 14.4788,-7.9404 L 14.4789,-7.939 L 14.479,-7.9376 L 14.4791,-7.9363 L 14.4792,-7.9349 L 14.4793,-7.9335 L 14.4794,-7.9321 L 14.4795,-7.9307 L 14.4796,-7.9294 L 14.4797,-7.928 L 14.4798,-7.9266 L 14.4798,-7.9252 L 14.4799,-7.9238 L 14.48,-7.9225 L 14.4801,-7.9211 L 14.4802,-7.9197 L 14.4803,-7.9183 L 14.4804,-7.9169 L 14.4805,-7.9156 L 14.4806,-7.9142 L 14.4807,-7.9128 L 14.4807,-7.9114 L 14.4808,-7.91 L 14.4809,-7.9086 L 14.481,-7.9073 L 14.4811,-7.9059 L 14.4812,-7.9045 L 14.4812,-7.9031 L 14.4813,-7.9017" />
      <path d="M 14.4813,-7.9017 L 14.4549,-7.9017 L 14.4286,-7.9017 L 14.4022,-7.9017 L 14.3758,-7.9017 L 14.3494,-7.9017 L 14.323,-7.9017 L 14.2966,-7.9017 L 14.2702,-7.9017 L 14.2438,-7.9017 L 14.2174,-7.9017 L 14.1911,-7.9017 L 14.1647,-7.9017 L 14.1383,-7.9017 L 14.1119,-7.9017 L 14.0855,-7.9017 L 14.0591,-7.9017 L 14.0327,-7.9017 L 14.0063,-7.9017 L 13.98,-7.9017 L 13.9536,-7.9017 L 13.9272,-7.9017 L 13.9008,-7.9017 L 13.8744,-7.9017 L 13.848,-7.9017 L 13.8216,-7.9017 L 13.7952,-7.9017 L 13.7689,-7.9017 L 13.7425,-7.9017 L 13.7161,-7.9017 L 13.6897,-7.9017 L 13.6633,-7.9017 L 13.6369,-7.9017 L 13.6105,-7.9017 L 13.5841,-7.9017 L 13.5578,-7.9017 L 13.5314,-7.9017 L 13.505,-7.9017 L 13.4786,-7.9017 L 13.4522,-7.9017 L 13.4258,-7.9017 L 13.3994,-7.9017 L 13.373,-7.9017 L 13.3467,-7.9017 L 13.3203,-7.9017 L 13.2939,-7.9017 L 13.2675,-7.9017 L 13.2411,-7.9017 L 13.2147,-7.9017 L 13.1883,-7.9017 L 13.1619,-7.9017 L 13.1356,-7.9017 L 13.1092,-7.9017 L 13.0828,-7.9017 L 13.0564,-7.9017 L 13.03,-7.9017 L 13.0036,-7.9017 L 12.9772,-7.9017 L 12.9508,-7.9017 L 12.9245,-7.9017 L 12.8981,-7.9017 L 12.8717,-7.9017 L 12.8453,-7.9017 L 12.8189,-7.9017 L 12.7925,-7.9017 L 12.7661,-7.9017 L 12.7397,-7.9017 L 12.7133,-7.9017 L 12.687,-7.9017 L 12.6606,-7.9017 L 12.6342,-7.9017 L 12.6078,-7.9017 L 12.5814,-7.9017" />
      <path d="M 12.5814,-7.9017 L 12.5905,-7.6824 L 12.5966,-7.463 L 12.6014,-7.2435 L 12.6054,-7.0241 L 12.6089,-6.8046 L 12.6121,-6.5851 L 12.6149,-6.3656 L 12.6174,-6.1461 L 12.6198,-5.9266 L 12.6219,-5.7071 L 12.624,-5.4876 L 12.6258,-5.2681 L 12.6275,-5.0486 L 12.6291,-4.8291 L 12.6306,-4.6096 L 12.632,-4.3901 L 12.6333,-4.1706 L 12.6345,-3.9511 L 12.6356,-3.7316 L 12.6367,-3.5121 L 12.6376,-3.2926 L 12.6385,-3.0731 L 12.6393,-2.8536 L 12.6401,-2.6341 L 12.6408,-2.4146 L 12.6414,-2.1951 L 12.6419,-1.9756 L 12.6424,-1.7561 L 12.6428,-1.5366 L 12.6432,-1.317 L 12.6435,-1.0975 L 12.6438,-0.878 L 12.644,-0.6585 L 12.6441,-0.439 L 12.6442,-0.2195 L 12.6442,0.0 L 12.6442,0.2195 L 12.6441,0.439 L 12.644,0.6585 L 12.6438,0.878 L 12.6435,1.0975 L 12.6432,1.317 L 12.6428,1.5366 L 12.6424,1.7561 L 12.6419,1.9756 L 12.6414,2.1951 L 12.6408,2.4146 L 12.6401,2.6341 L 12.6393,2.8536 L 12.6385,3.0731 L 12.6376,3.2926 L 12.6367,3.5121 L 12.6356,3.7316 L 12.6345,3.9511 L 12.6333,4.1706 L 12.632,4.3901 L 12.6306,4.6096 L 12.6291,4.8291 L 12.6275,5.0486 L 12.6258,5.2681 L 12.624,5.4876 L 12.6219,5.7071 L 12.6198,5.9266 L 12.6174,6.1461 L 12.6149,6.3656 L 12.6121,6.5851 L 12.6089,6.8046 L 12.6054,7.0241 L 12.6014,7.2435 L 12.5966,7.463 L 12.5905,7.6824 L 12.5814,7.9017" />
      <path d="M 14.4813,7.9017 L 14.4549,7.9017 L 14.4286,7.9017 L 14.4022,7.9017 L 14.3758,7.9017 L 14.3494,7.9017 L 14.323,7.9017 L 14.2966,7.9017 L 14.2702,7.9017 L 14.2438,7.9017 L 14.2174,7.9017 L 14.1911,7.9017 L 14.1647,7.9017 L 14.1383,7.9017 L 14.1119,7.9017 L 14.0855,7.9017 L 14.0591,7.9017 L 14.0327,7.9017 L 14.0063,7.9017 L 13.98,7.9017 L 13.9536,7.9017 L 13.9272,7.9017 L 13.9008,7.9017 L 13.8744,7.9017 L 13.848,7.9017 L 13.8216,7.9017 L 13.7952,7.9017 L 13.7689,7.9017 L 13.7425,7.9017 L 13.7161,7.9017 L 13.6897,7.9017 L 13.6633,7.9017 L 13.6369,7.9017 L 13.6105,7.9017 L 13.5841,7.9017 L 13.5578,7.9017 L 13.5314,7.9017 L 13.505,7.9017 L 13.4786,7.9017 L 13.4522,7.9017 L 13.4258,7.9017 L 13.3994,7.9017 L 13.373,7.9017 L 13.3467,7.9017 L 13.3203,7.9017 L 13.2939,7.9017 L 13.2675,7.9017 L 13.2411,7.9017 L 13.2147,7.9017 L 13.1883,7.9017 L 13.1619,7.9017 L 13.1356,7.9017 L 13.1092,7.9017 L 13.0828,7.9017 L 13.0564,7.9017 L 13.03,7.9017 L 13.0036,7.9017 L 12.9772,7.9017 L 12.9508,7.9017 L 12.9245,7.9017 L 12.8981,7.9017 L 12.8717,7.9017 L 12.8453,7.9017 L 12.8189,7.9017 L 12.7925,7.9017 L 12.7661,7.9017 L 12.7397,7.9017 L 12.7133,7.9017 L 12.687,7.9017 L 12.6606,7.9017 L 12.6342,7.9017 L 12.6078,7.9017 L 12.5814,7.9017" />
      <path d="M 14.4813,7.9017 L 14.4812,7.9031 L 14.4812,7.9045 L 14.4811,7.9059 L 14.481,7.9073 L 14.4809,7.9086 L 14.4808,7.91 L 14.4807,7.9114 L 14.4807,7.9128 L 14.4806,7.9142 L 14.4805,7.9156 L 14.4804,7.9169 L 14.4803,7.9183 L 14.4802,7.9197 L 14.4801,7.9211 L 14.48,7.9225 L 14.4799,7.9238 L 14.4798,7.9252 L 14.4798,7.9266 L 14.4797,7.928 L 14.4796,7.9294 L 14.4795,7.9307 L 14.4794,7.9321 L 14.4793,7.9335 L 14.4792,7.9349 L 14.4791,7.9363 L 14.479,7.9376 L 14.4789,7.939 L 14.4788,7.9404 L 14.4787,7.9418 L 14.4786,7.9432 L 14.4784,7.9445 L 14.4783,7.9459 L 14.4782,7.9473 L 14.4781,7.9487 L 14.478,7.9501 L 14.4779,7.9514 L 14.4778,7.9528 L 14.4776,7.9542 L 14.4775,7.9556 L 14.4774,7.957 L 14.4773,7.9583 L 14.4772,7.9597 L 14.477,7.9611 L 14.4769,7.9625 L 14.4768,7.9638 L 14.4766,7.9652 L 14.4765,7.9666 L 14.4763,7.968 L 14.4762,7.9694 L 14.4761,7.9707 L 14.4759,7.9721 L 14.4758,7.9735 L 14.4756,7.9749 L 14.4754,7.9762 L 14.4753,7.9776 L 14.4751,7.979 L 14.4749,7.9804 L 14.4747,7.9817 L 14.4745,7.9831 L 14.4743,7.9845 L 14.4741,7.9858 L 14.4739,7.9872 L 14.4737,7.9886 L 14.4734,7.9899 L 14.4732,7.9913 L 14.4729,7.9926 L 14.4726,7.994 L 14.4722,7.9953 L 14.4718,7.9967 L 14.4714,7.998 L 14.4708,7.9992 L 14.4697,8.0" />
      <path d="M 48.0682,-5.0 L 48.0791,-4.862 L 48.0835,-4.7232 L 48.0868,-4.5843 L 48.0895,-4.4454 L 48.0919,-4.3065 L 48.0939,-4.1676 L 48.0958,-4.0287 L 48.0975,-3.8898 L 48.099,-3.7509 L 48.1004,-3.612 L 48.1017,-3.4731 L 48.1029,-3.3342 L 48.104,-3.1952 L 48.1051,-3.0563 L 48.106,-2.9174 L 48.1069,-2.7785 L 48.1078,-2.6396 L 48.1085,-2.5007 L 48.1093,-2.3617 L 48.1099,-2.2228 L 48.1105,-2.0839 L 48.1111,-1.945 L 48.1116,-1.8061 L 48.1121,-1.6671 L 48.1125,-1.5282 L 48.1129,-1.3893 L 48.1133,-1.2504 L 48.1136,-1.1115 L 48.1139,-0.9726 L 48.1141,-0.8336 L 48.1143,-0.6947 L 48.1145,-0.5558 L 48.1146,-0.4169 L 48.1147,-0.278 L 48.1148,-0.139 L 48.1148,-0.0001 L 48.1148,0.1388 L 48.1147,0.2777 L 48.1146,0.4166 L 48.1145,0.5555 L 48.1143,0.6945 L 48.1141,0.8334 L 48.1139,0.9723 L 48.1136,1.1112 L 48.1133,1.2501 L 48.1129,1.389 L 48.1125,1.528 L 48.1121,1.6669 L 48.1116,1.8058 L 48.1111,1.9447 L 48.1105,2.0836 L 48.1099,2.2226 L 48.1093,2.3615 L 48.1085,2.5004 L 48.1078,2.6393 L 48.1069,2.7782 L 48.106,2.9171 L 48.1051,3.056 L 48.104,3.195 L 48.1029,3.3339 L 48.1017,3.4728 L 48.1004,3.6117 L 48.099,3.7506 L 48.0975,3.8895 L 48.0958,4.0284 L 48.094,4.1673 L 48.0919,4.3062 L 48.0895,4.4451 L 48.0868,4.584 L 48.0835,4.7229 L 48.0791,4.8618 L 48.0682,5.0" />
      <path d="M 18.1277,5.0 L 18.5435,5.0 L 18.9593,5.0 L 19.3752,5.0 L 19.791,5.0 L 20.2069,5.0 L 20.6227,5.0 L 21.0385,5.0 L 21.4544,5.0 L 21.8702,5.0 L 22.2861,5.0 L 22.7019,5.0 L 23.1178,5.0 L 23.5336,5.0 L 23.9494,5.0 L 24.3653,5.0 L 24.7811,5.0 L 25.197,5.0 L 25.6128,5.0 L 26.0286,5.0 L 26.4445,5.0 L 26.8603,5.0 L 27.2762,5.0 L 27.692,5.0 L 28.1079,5.0 L 28.5237,5.0 L 28.9395,5.0 L 29.3554,5.0 L 29.7712,5.0 L 30.1871,5.0 L 30.6029,5.0 L 31.0187,5.0 L 31.4346,5.0 L 31.8504,5.0 L 32.2663,5.0 L 32.6821,5.0 L 33.0979,5.0 L 33.5138,5.0 L 33.9296,5.0 L 34.3455,5.0 L 34.7613,5.0 L 35.1772,5.0 L 35.593,5.0 L 36.0088,5.0 L 36.4247,5.0 L 36.8405,5.0 L 37.2564,5.0 L 37.6722,5.0 L 38.088,5.0 L 38.5039,5.0 L 38.9197,5.0 L 39.3356,5.0 L 39.7514,5.0 L 40.1673,5.0 L 40.5831,5.0 L 40.9989,5.0 L 41.4148,5.0 L 41.8306,5.0 L 42.2465,5.0 L 42.6623,5.0 L 43.0781,5.0 L 43.494,5.0 L 43.9098,5.0 L 44.3257,5.0 L 44.7415,5.0 L 45.1573,5.0 L 45.5732,5.0 L 45.989,5.0 L 46.4049,5.0 L 46.8207,5.0 L 47.2366,5.0 L 47.6524,5.0 L 48.0682,5.0" />
      <path d="M 12.5581,7.9017 L 12.5512,7.8947 L 12.5442,7.8877 L 12.5373,7.8806 L 12.5304,7.8736 L 12.5234,7.8666 L 12.5165,7.8595 L 12.5095,7.8525 L 12.5026,7.8455 L 12.4956,7.8384 L 12.4887,7.8314 L 12.4817,7.8244 L 12.4748,7.8173 L 12.4678,7.8103 L 12.4609,7.8033 L 12.4539,7.7962 L 12.447,7.7892 L 12.4401,7.7822 L 12.4331,7.7751 L 12.4262,7.7681 L 12.4192,7.761 L 12.4123,7.754 L 12.4053,7.747 L 12.3984,7.7399 L 12.3914,7.7329 L 12.3845,7.7259 L 12.3775,7.7188 L 12.3706,7.7118 L 12.3637,7.7048 L 12.3567,7.6977 L 12.3498,7.6907 L 12.3428,7.6837 L 12.3359,7.6766 L 12.3289,7.6696 L 12.322,7.6625 L 12.315,7.6555 L 12.3081,7.6485 L 12.3012,7.6414 L 12.2942,7.6344 L 12.2873,7.6274 L 12.2803,7.6203 L 12.2734,7.6133 L 12.2664,7.6063 L 12.2595,7.5992 L 12.2525,7.5922 L 12.2456,7.5851 L 12.2387,7.5781 L 12.2317,7.5711 L 12.2248,7.564 L 12.2178,7.557 L 12.2109,7.55 L 12.2039,7.5429 L 12.197,7.5359 L 12.1901,7.5288 L 12.1831,7.5218 L 12.1762,7.5148 L 12.1692,7.5077 L 12.1623,7.5007 L 12.1553,7.4936 L 12.1484,7.4866 L 12.1415,7.4796 L 12.1345,7.4725 L 12.1276,7.4655 L 12.1206,7.4585 L 12.1137,7.4514 L 12.1068,7.4444 L 12.0998,7.4373 L 12.0929,7.4303 L 12.0859,7.4233 L 12.079,7.4162 L 12.072,7.4092 L 12.0651,7.4021 L 12.0582,7.3951" />
      <path d="M 12.0582,7.3951 L 12.0582,7.1897 L 12.0582,6.9843 L 12.0582,6.7788 L 12.0582,6.5734 L 12.0582,6.368 L 12.0582,6.1626 L 12.0582,5.9572 L 12.0582,5.7517 L 12.0582,5.5463 L 12.0582,5.3409 L 12.0582,5.1355 L 12.0582,4.9301 L 12.0582,4.7246 L 12.0582,4.5192 L 12.0582,4.3138 L 12.0582,4.1084 L 12.0582,3.903 L 12.0582,3.6975 L 12.0582,3.4921 L 12.0582,3.2867 L 12.0582,3.0813 L 12.0582,2.8759 L 12.0582,2.6705 L 12.0582,2.465 L 12.0582,2.2596 L 12.0582,2.0542 L 12.0582,1.8488 L 12.0582,1.6434 L 12.0582,1.4379 L 12.0582,1.2325 L 12.0582,1.0271 L 12.0582,0.8217 L 12.0582,0.6163 L 12.0582,0.4108 L 12.0582,0.2054 L 12.0582,0.0 L 12.0582,-0.2054 L 12.0582,-0.4108 L 12.0582,-0.6163 L 12.0582,-0.8217 L 12.0582,-1.0271 L 12.0582,-1.2325 L 12.0582,-1.4379 L 12.0582,-1.6434 L 12.0582,-1.8488 L 12.0582,-2.0542 L 12.0582,-2.2596 L 12.0582,-2.465 L 12.0582,-2.6705 L 12.0582,-2.8759 L 12.0582,-3.0813 L 12.0582,-3.2867 L 12.0582,-3.4921 L 12.0582,-3.6975 L 12.0582,-3.903 L 12.0582,-4.1084 L 12.0582,-4.3138 L 12.0582,-4.5192 L 12.0582,-4.7246 L 12.0582,-4.9301 L 12.0582,-5.1355 L 12.0582,-5.3409 L 12.0582,-5.5463 L 12.0582,-5.7517 L 12.0582,-5.9572 L 12.0582,-6.1626 L 12.0582,-6.368 L 12.0582,-6.5734 L 12.0582,-6.7788 L 12.0582,-6.9843 L 12.0582,-7.1897 L 12.0582,-7.3951" />
      <path d="M 12.0582,-7.3951 L 12.0651,-7.4021 L 12.072,-7.4092 L 12.079,-7.4162 L 12.0859,-7.4233 L 12.0929,-7.4303 L 12.0998,-7.4373 L 12.1068,-7.4444 L 12.1137,-7.4514 L 12.1206,-7.4585 L 12.1276,-7.4655 L 12.1345,-7.4725 L 12.1415,-7.4796 L 12.1484,-7.4866 L 12.1553,-7.4936 L 12.1623,-7.5007 L 12.1692,-7.5077 L 12.1762,-7.5148 L 12.1831,-7.5218 L 12.1901,-7.5288 L 12.197,-7.5359 L 12.2039,-7.5429 L 12.2109,-7.55 L 12.2178,-7.557 L 12.2248,-7.564 L 12.2317,-7.5711 L 12.2387,-7.5781 L 12.2456,-7.5851 L 12.2525,-7.5922 L 12.2595,-7.5992 L 12.2664,-7.6063 L 12.2734,-7.6133 L 12.2803,-7.6203 L 12.2873,-7.6274 L 12.2942,-7.6344 L 12.3012,-7.6414 L 12.3081,-7.6485 L 12.315,-7.6555 L 12.322,-7.6625 L 12.3289,-7.6696 L 12.3359,-7.6766 L 12.3428,-7.6837 L 12.3498,-7.6907 L 12.3567,-7.6977 L 12.3637,-7.7048 L 12.3706,-7.7118 L 12.3775,-7.7188 L 12.3845,-7.7259 L 12.3914,-7.7329 L 12.3984,-7.7399 L 12.4053,-7.747 L 12.4123,-7.754 L 12.4192,-7.761 L 12.4262,-7.7681 L 12.4331,-7.7751 L 12.4401,-7.7822 L 12.447,-7.7892 L 12.4539,-7.7962 L 12.4609,-7.8033 L 12.4678,-7.8103 L 12.4748,-7.8173 L 12.4817,-7.8244 L 12.4887,-7.8314 L 12.4956,-7.8384 L 12.5026,-7.8455 L 12.5095,-7.8525 L 12.5165,-7.8595 L 12.5234,-7.8666 L 12.5304,-7.8736 L 12.5373,-7.8806 L 12.5442,-7.8877 L 12.5512,-7.8947 L 12.5581,-7.9017" />
      <path d="M 12.0582,7.3951 L 12.0499,7.1898 L 12.0444,6.9845 L 12.0399,6.7791 L 12.0362,6.5737 L 12.0329,6.3683 L 12.03,6.1629 L 12.0274,5.9575 L 12.025,5.752 L 12.0228,5.5466 L 12.0208,5.3412 L 12.0189,5.1358 L 12.0172,4.9303 L 12.0156,4.7249 L 12.0141,4.5195 L 12.0127,4.3141 L 12.0114,4.1086 L 12.0102,3.9032 L 12.0091,3.6978 L 12.008,3.4923 L 12.0071,3.2869 L 12.0062,3.0815 L 12.0053,2.8761 L 12.0046,2.6706 L 12.0039,2.4652 L 12.0032,2.2598 L 12.0027,2.0543 L 12.0022,1.8489 L 12.0017,1.6435 L 12.0013,1.438 L 12.0009,1.2326 L 12.0007,1.0272 L 12.0004,0.8217 L 12.0002,0.6163 L 12.0001,0.4109 L 12.0,0.2054 L 12.0,0.0 L 12.0,-0.2054 L 12.0001,-0.4109 L 12.0002,-0.6163 L 12.0004,-0.8217 L 12.0007,-1.0272 L 12.0009,-1.2326 L 12.0013,-1.438 L 12.0017,-1.6435 L 12.0022,-1.8489 L 12.0027,-2.0543 L 12.0032,-2.2598 L 12.0039,-2.4652 L 12.0046,-2.6706 L 12.0053,-2.8761 L 12.0062,-3.0815 L 12.0071,-3.2869 L 12.008,-3.4923 L 12.0091,-3.6978 L 12.0102,-3.9032 L 12.0114,-4.1086 L 12.0127,-4.3141 L 12.0141,-4.5195 L 12.0156,-4.7249 L 12.0172,-4.9303 L 12.0189,-5.1358 L 12.0208,-5.3412 L 12.0228,-5.5466 L 12.025,-5.752 L 12.0274,-5.9575 L 12.03,-6.1629 L 12.0329,-6.3683 L 12.0362,-6.5737 L 12.0399,-6.7791 L 12.0444,-6.9845 L 12.0499,-7.1898 L 12.0582,-7.3951" />
      <path d="M 12.5814,7.9017 L 12.5745,7.8947 L 12.5675,7.8877 L 12.5606,7.8806 L 12.5536,7.8736 L 12.5467,7.8666 L 12.5397,7.8595 L 12.5328,7.8525 L 12.5258,7.8455 L 12.5189,7.8384 L 12.5119,7.8314 L 12.505,7.8244 L 12.4981,7.8173 L 12.4911,7.8103 L 12.4842,7.8033 L 12.4772,7.7962 L 12.4703,7.7892 L 12.4633,7.7822 L 12.4564,7.7751 L 12.4494,7.7681 L 12.4425,7.761 L 12.4355,7.754 L 12.4286,7.747 L 12.4216,7.7399 L 12.4147,7.7329 L 12.4078,7.7259 L 12.4008,7.7188 L 12.3939,7.7118 L 12.3869,7.7048 L 12.38,7.6977 L 12.373,7.6907 L 12.3661,7.6837 L 12.3591,7.6766 L 12.3522,7.6696 L 12.3453,7.6625 L 12.3383,7.6555 L 12.3314,7.6485 L 12.3244,7.6414 L 12.3175,7.6344 L 12.3105,7.6274 L 12.3036,7.6203 L 12.2966,7.6133 L 12.2897,7.6063 L 12.2828,7.5992 L 12.2758,7.5922 L 12.2689,7.5851 L 12.2619,7.5781 L 12.255,7.5711 L 12.248,7.564 L 12.2411,7.557 L 12.2342,7.55 L 12.2272,7.5429 L 12.2203,7.5359 L 12.2133,7.5288 L 12.2064,7.5218 L 12.1994,7.5148 L 12.1925,7.5077 L 12.1856,7.5007 L 12.1786,7.4936 L 12.1717,7.4866 L 12.1647,7.4796 L 12.1578,7.4725 L 12.1508,7.4655 L 12.1439,7.4585 L 12.137,7.4514 L 12.13,7.4444 L 12.1231,7.4373 L 12.1161,7.4303 L 12.1092,7.4233 L 12.1023,7.4162 L 12.0953,7.4092 L 12.0884,7.4021 L 12.0814,7.3951" />
      <path d="M 12.0814,7.3951 L 12.0814,7.1897 L 12.0814,6.9843 L 12.0814,6.7788 L 12.0814,6.5734 L 12.0814,6.368 L 12.0814,6.1626 L 12.0814,5.9572 L 12.0814,5.7517 L 12.0814,5.5463 L 12.0814,5.3409 L 12.0814,5.1355 L 12.0814,4.9301 L 12.0814,4.7246 L 12.0814,4.5192 L 12.0814,4.3138 L 12.0814,4.1084 L 12.0814,3.903 L 12.0814,3.6975 L 12.0814,3.4921 L 12.0814,3.2867 L 12.0814,3.0813 L 12.0814,2.8759 L 12.0814,2.6705 L 12.0814,2.465 L 12.0814,2.2596 L 12.0814,2.0542 L 12.0814,1.8488 L 12.0814,1.6434 L 12.0814,1.4379 L 12.0814,1.2325 L 12.0814,1.0271 L 12.0814,0.8217 L 12.0814,0.6163 L 12.0814,0.4108 L 12.0814,0.2054 L 12.0814,0.0 L 12.0814,-0.2054 L 12.0814,-0.4108 L 12.0814,-0.6163 L 12.0814,-0.8217 L 12.0814,-1.0271 L 12.0814,-1.2325 L 12.0814,-1.4379 L 12.0814,-1.6434 L 12.0814,-1.8488 L 12.0814,-2.0542 L 12.0814,-2.2596 L 12.0814,-2.465 L 12.0814,-2.6705 L 12.0814,-2.8759 L 12.0814,-3.0813 L 12.0814,-3.2867 L 12.0814,-3.4921 L 12.0814,-3.6975 L 12.0814,-3.903 L 12.0814,-4.1084 L 12.0814,-4.3138 L 12.0814,-4.5192 L 12.0814,-4.7246 L 12.0814,-4.9301 L 12.0814,-5.1355 L 12.0814,-5.3409 L 12.0814,-5.5463 L 12.0814,-5.7517 L 12.0814,-5.9572 L 12.0814,-6.1626 L 12.0814,-6.368 L 12.0814,-6.5734 L 12.0814,-6.7788 L 12.0814,-6.9843 L 12.0814,-7.1897 L 12.0814,-7.3951" />
      <path d="M 12.0814,-7.3951 L 12.0884,-7.4021 L 12.0953,-7.4092 L 12.1023,-7.4162 L 12.1092,-7.4233 L 12.1161,-7.4303 L 12.1231,-7.4373 L 12.13,-7.4444 L 12.137,-7.4514 L 12.1439,-7.4585 L 12.1508,-7.4655 L 12.1578,-7.4725 L 12.1647,-7.4796 L 12.1717,-7.4866 L 12.1786,-7.4936 L 12.1856,-7.5007 L 12.1925,-7.5077 L 12.1994,-7.5148 L 12.2064,-7.5218 L 12.2133,-7.5288 L 12.2203,-7.5359 L 12.2272,-7.5429 L 12.2342,-7.55 L 12.2411,-7.557 L 12.248,-7.564 L 12.255,-7.5711 L 12.2619,-7.5781 L 12.2689,-7.5851 L 12.2758,-7.5922 L 12.2828,-7.5992 L 12.2897,-7.6063 L 12.2966,-7.6133 L 12.3036,-7.6203 L 12.3105,-7.6274 L 12.3175,-7.6344 L 12.3244,-7.6414 L 12.3314,-7.6485 L 12.3383,-7.6555 L 12.3453,-7.6625 L 12.3522,-7.6696 L 12.3591,-7.6766 L 12.3661,-7.6837 L 12.373,-7.6907 L 12.38,-7.6977 L 12.3869,-7.7048 L 12.3939,-7.7118 L 12.4008,-7.7188 L 12.4078,-7.7259 L 12.4147,-7.7329 L 12.4216,-7.7399 L 12.4286,-7.747 L 12.4355,-7.754 L 12.4425,-7.761 L 12.4494,-7.7681 L 12.4564,-7.7751 L 12.4633,-7.7822 L 12.4703,-7.7892 L 12.4772,-7.7962 L 12.4842,-7.8033 L 12.4911,-7.8103 L 12.4981,-7.8173 L 12.505,-7.8244 L 12.5119,-7.8314 L 12.5189,-7.8384 L 12.5258,-7.8455 L 12.5328,-7.8525 L 12.5397,-7.8595 L 12.5467,-7.8666 L 12.5536,-7.8736 L 12.5606,-7.8806 L 12.5675,-7.8877 L 12.5745,-7.8947 L 12.5814,-7.9017" />
      <path d="M 12.0814,-7.3951 L 12.0897,-7.1898 L 12.0952,-6.9845 L 12.0997,-6.7791 L 12.1034,-6.5737 L 12.1067,-6.3683 L 12.1096,-6.1629 L 12.1122,-5.9575 L 12.1146,-5.752 L 12.1168,-5.5466 L 12.1188,-5.3412 L 12.1207,-5.1358 L 12.1224,-4.9303 L 12.124,-4.7249 L 12.1255,-4.5195 L 12.1269,-4.3141 L 12.1282,-4.1086 L 12.1294,-3.9032 L 12.1305,-3.6978 L 12.1316,-3.4923 L 12.1325,-3.2869 L 12.1334,-3.0815 L 12.1343,-2.8761 L 12.135,-2.6706 L 12.1357,-2.4652 L 12.1364,-2.2598 L 12.1369,-2.0543 L 12.1374,-1.8489 L 12.1379,-1.6435 L 12.1383,-1.438 L 12.1386,-1.2326 L 12.1389,-1.0272 L 12.1392,-0.8217 L 12.1394,-0.6163 L 12.1395,-0.4109 L 12.1396,-0.2054 L 12.1396,0.0 L 12.1396,0.2054 L 12.1395,0.4109 L 12.1394,0.6163 L 12.1392,0.8217 L 12.1389,1.0272 L 12.1386,1.2326 L 12.1383,1.438 L 12.1379,1.6435 L 12.1374,1.8489 L 12.1369,2.0543 L 12.1364,2.2598 L 12.1357,2.4652 L 12.135,2.6706 L 12.1343,2.8761 L 12.1334,3.0815 L 12.1325,3.2869 L 12.1316,3.4923 L 12.1305,3.6978 L 12.1294,3.9032 L 12.1282,4.1086 L 12.1269,4.3141 L 12.1255,4.5195 L 12.124,4.7249 L 12.1224,4.9303 L 12.1207,5.1358 L 12.1188,5.3412 L 12.1168,5.5466 L 12.1146,5.752 L 12.1122,5.9575 L 12.1096,6.1629 L 12.1067,6.3683 L 12.1034,6.5737 L 12.0997,6.7791 L 12.0952,6.9845 L 12.0897,7.1898 L 12.0814,7.3951" />
      <path d="M 18.0695,-8.0 L 18.0195,-8.0 L 17.9695,-8.0 L 17.9195,-8.0 L 17.8695,-8.0 L 17.8195,-8.0 L 17.7696,-8.0 L 17.7196,-8.0 L 17.6696,-8.0 L 17.6196,-8.0 L 17.5696,-8.0 L 17.5196,-8.0 L 17.4696,-8.0 L 17.4196,-8.0 L 17.3696,-8.0 L 17.3196,-8.0 L 17.2696,-8.0 L 17.2196,-8.0 L 17.1696,-8.0 L 17.1196,-8.0 L 17.0696,-8.0 L 17.0196,-8.0 L 16.9696,-8.0 L 16.9196,-8.0 L 16.8696,-8.0 L 16.8196,-8.0 L 16.7696,-8.0 L 16.7196,-8.0 L 16.6696,-8.0 L 16.6196,-8.0 L 16.5696,-8.0 L 16.5196,-8.0 L 16.4696,-8.0 L 16.4196,-8.0 L 16.3696,-8.0 L 16.3196,-8.0 L 16.2696,-8.0 L 16.2196,-8.0 L 16.1696,-8.0 L 16.1196,-8.0 L 16.0696,-8.0 L 16.0196,-8.0 L 15.9696,-8.0 L 15.9196,-8.0 L 15.8696,-8.0 L 15.8196,-8.0 L 15.7696,-8.0 L 15.7196,-8.0 L 15.6696,-8.0 L 15.6196,-8.0 L 15.5696,-8.0 L 15.5196,-8.0 L 15.4697,-8.0 L 15.4197,-8.0 L 15.3697,-8.0 L 15.3197,-8.0 L 15.2697,-8.0 L 15.2197,-8.0 L 15.1697,-8.0 L 15.1197,-8.0 L 15.0697,-8.0 L 15.0197,-8.0 L 14.9697,-8.0 L 14.9197,-8.0 L 14.8697,-8.0 L 14.8197,-8.0 L 14.7697,-8.0 L 14.7197,-8.0 L 14.6697,-8.0 L 14.6197,-8.0 L 14.5697,-8.0 L 14.5197,-8.0 L 14.4697,-8.0" />
      <path d="M 18.1277,-5.0 L 18.5435,-5.0 L 18.9593,-5.0 L 19.3752,-5.0 L 19.791,-5.0 L 20.2069,-5.0 L 20.6227,-5.0 L 21.0385,-5.0 L 21.4544,-5.0 L 21.8702,-5.0 L 22.2861,-5.0 L 22.7019,-5.0 L 23.1178,-5.0 L 23.5336,-5.0 L 23.9494,-5.0 L 24.3653,-5.0 L 24.7811,-5.0 L 25.197,-5.0 L 25.6128,-5.0 L 26.0286,-5.0 L 26.4445,-5.0 L 26.8603,-5.0 L 27.2762,-5.0 L 27.692,-5.0 L 28.1079,-5.0 L 28.5237,-5.0 L 28.9395,-5.0 L 29.3554,-5.0 L 29.7712,-5.0 L 30.1871,-5.0 L 30.6029,-5.0 L 31.0187,-5.0 L 31.4346,-5.0 L 31.8504,-5.0 L 32.2663,-5.0 L 32.6821,-5.0 L 33.0979,-5.0 L 33.5138,-5.0 L 33.9296,-5.0 L 34.3455,-5.0 L 34.7613,-5.0 L 35.1772,-5.0 L 35.593,-5.0 L 36.0088,-5.0 L 36.4247,-5.0 L 36.8405,-5.0 L 37.2564,-5.0 L 37.6722,-5.0 L 38.088,-5.0 L 38.5039,-5.0 L 38.9197,-5.0 L 39.3356,-5.0 L 39.7514,-5.0 L 40.1673,-5.0 L 40.5831,-5.0 L 40.9989,-5.0 L 41.4148,-5.0 L 41.8306,-5.0 L 42.2465,-5.0 L 42.6623,-5.0 L 43.0781,-5.0 L 43.494,-5.0 L 43.9098,-5.0 L 44.3257,-5.0 L 44.7415,-5.0 L 45.1573,-5.0 L 45.5732,-5.0 L 45.989,-5.0 L 46.4049,-5.0 L 46.8207,-5.0 L 47.2366,-5.0 L 47.6524,-5.0 L 48.0682,-5.0" />
    </g>
    <g fill="none" stroke="rgb(110,110,110)" stroke-width="0.3" id="Hidden" stroke-dasharray="3.6 0.9">
      <path d="M 0.0,8.0 L -0.6972,7.9696 L -1.3892,7.8785 L -2.0706,7.7274 L -2.7362,7.5175 L -3.3809,7.2505 L -4.0,6.9282 L -4.5886,6.5532 L -5.1423,6.1284 L -5.6569,5.6569 L -6.1284,5.1423 L -6.5532,4.5886 L -6.9282,4.0 L -7.2505,3.3809 L -7.5175,2.7362 L -7.7274,2.0706 L -7.8785,1.3892 L -7.9696,0.6972 L -8.0,0.0 L -7.9696,-0.6972 L -7.8785,-1.3892 L -7.7274,-2.0706 L -7.5175,-2.7362 L -7.2505,-3.3809 L -6.9282,-4.0 L -6.5532,-4.5886 L -6.1284,-5.1423 L -5.6569,-5.6569 L -5.1423,-6.1284 L -4.5886,-6.5532 L -4.0,-6.9282 L -3.3809,-7.2505 L -2.7362,-7.5175 L -2.0706,-7.7274 L -1.3892,-7.8785 L -0.6972,-7.9696 L -0.0,-8.0 L 0.6972,-7.9696 L 1.3892,-7.8785 L 2.0706,-7.7274 L 2.7362,-7.5175 L 3.3809,-7.2505 L 4.0,-6.9282 L 4.5886,-6.5532 L 5.1423,-6.1284 L 5.6569,-5.6569 L 6.1284,-5.1423 L 6.5532,-4.5886 L 6.9282,-4.0 L 7.2505,-3.3809 L 7.5175,-2.7362 L 7.7274,-2.0706 L 7.8785,-1.3892 L 7.9696,-0.6972 L 8.0,-0.0 L 7.9696,0.6972 L 7.8785,1.3892 L 7.7274,2.0706 L 7.5175,2.7362 L 7.2505,3.3809 L 6.9282,4.0 L 6.5532,4.5886 L 6.1284,5.1423 L 5.6569,5.6569 L 5.1423,6.1284 L 4.5886,6.5532 L 4.0,6.9282 L 3.3809,7.2505 L 2.7362,7.5175 L 2.0706,7.7274 L 1.3892,7.8785 L 0.6972,7.9696 L 0.0,8.0" />
      <path d="M 0.0,5.0 L -0.4358,4.981 L -0.8682,4.924 L -1.2941,4.8296 L -1.7101,4.6985 L -2.1131,4.5315 L -2.5,4.3301 L -2.8679,4.0958 L -3.2139,3.8302 L -3.5355,3.5355 L -3.8302,3.2139 L -4.0958,2.8679 L -4.3301,2.5 L -4.5315,2.1131 L -4.6985,1.7101 L -4.8296,1.2941 L -4.924,0.8682 L -4.981,0.4358 L -5.0,0.0 L -4.981,-0.4358 L -4.924,-0.8682 L -4.8296,-1.2941 L -4.6985,-1.7101 L -4.5315,-2.1131 L -4.3301,-2.5 L -4.0958,-2.8679 L -3.8302,-3.2139 L -3.5355,-3.5355 L -3.2139,-3.8302 L -2.8679,-4.0958 L -2.5,-4.3301 L -2.1131,-4.5315 L -1.7101,-4.6985 L -1.2941,-4.8296 L -0.8682,-4.924 L -0.4358,-4.981 L -0.0,-5.0 L 0.4358,-4.981 L 0.8682,-4.924 L 1.2941,-4.8296 L 1.7101,-4.6985 L 2.1131,-4.5315 L 2.5,-4.3301 L 2.8679,-4.0958 L 3.2139,-3.8302 L 3.5355,-3.5355 L 3.8302,-3.2139 L 4.0958,-2.8679 L 4.3301,-2.5 L 4.5315,-2.1131 L 4.6985,-1.7101 L 4.8296,-1.2941 L 4.924,-0.8682 L 4.981,-0.4358 L 5.0,-0.0 L 4.981,0.4358 L 4.924,0.8682 L 4.8296,1.2941 L 4.6985,1.7101 L 4.5315,2.1131 L 4.3301,2.5 L 4.0958,2.8679 L 3.8302,3.2139 L 3.5355,3.5355 L 3.2139,3.8302 L 2.8679,4.0958 L 2.5,4.3301 L 2.1131,4.5315 L 1.7101,4.6985 L 1.2941,4.8296 L 0.8682,4.924 L 0.4358,4.981 L 0.0,5.0" />
      <path d="M 0.0,5.0 L -0.4358,4.981 L -0.8682,4.924 L -1.2941,4.8296 L -1.7101,4.6985 L -2.1131,4.5315 L -2.5,4.3301 L -2.8679,4.0958 L -3.2139,3.8302 L -3.5355,3.5355 L -3.8302,3.2139 L -4.0958,2.8679 L -4.3301,2.5 L -4.5315,2.1131 L -4.6985,1.7101 L -4.8296,1.2941 L -4.924,0.8682 L -4.981,0.4358 L -5.0,0.0 L -4.981,-0.4358 L -4.924,-0.8682 L -4.8296,-1.2941 L -4.6985,-1.7101 L -4.5315,-2.1131 L -4.3301,-2.5 L -4.0958,-2.8679 L -3.8302,-3.2139 L -3.5355,-3.5355 L -3.2139,-3.8302 L -2.8679,-4.0958 L -2.5,-4.3301 L -2.1131,-4.5315 L -1.7101,-4.6985 L -1.2941,-4.8296 L -0.8682,-4.924 L -0.4358,-4.981 L -0.0,-5.0 L 0.4358,-4.981 L 0.8682,-4.924 L 1.2941,-4.8296 L 1.7101,-4.6985 L 2.1131,-4.5315 L 2.5,-4.3301 L 2.8679,-4.0958 L 3.2139,-3.8302 L 3.5355,-3.5355 L 3.8302,-3.2139 L 4.0958,-2.8679 L 4.3301,-2.5 L 4.5315,-2.1131 L 4.6985,-1.7101 L 4.8296,-1.2941 L 4.924,-0.8682 L 4.981,-0.4358 L 5.0,-0.0 L 4.981,0.4358 L 4.924,0.8682 L 4.8296,1.2941 L 4.6985,1.7101 L 4.5315,2.1131 L 4.3301,2.5 L 4.0958,2.8679 L 3.8302,3.2139 L 3.5355,3.5355 L 3.2139,3.8302 L 2.8679,4.0958 L 2.5,4.3301 L 2.1131,4.5315 L 1.7101,4.6985 L 1.2941,4.8296 L 0.8682,4.924 L 0.4358,4.981 L 0.0,5.0" />
      <path d="M -1.25,-7.9017 L -1.25,-7.6822 L -1.25,-7.4628 L -1.25,-7.2433 L -1.25,-7.0238 L -1.25,-6.8043 L -1.25,-6.5848 L -1.25,-6.3653 L -1.25,-6.1458 L -1.25,-5.9263 L -1.25,-5.7068 L -1.25,-5.4873 L -1.25,-5.2678 L -1.25,-5.0483 L -1.25,-4.8288 L -1.25,-4.6093 L -1.25,-4.3899 L -1.25,-4.1704 L -1.25,-3.9509 L -1.25,-3.7314 L -1.25,-3.5119 L -1.25,-3.2924 L -1.25,-3.0729 L -1.25,-2.8534 L -1.25,-2.6339 L -1.25,-2.4144 L -1.25,-2.1949 L -1.25,-1.9754 L -1.25,-1.7559 L -1.25,-1.5364 L -1.25,-1.317 L -1.25,-1.0975 L -1.25,-0.878 L -1.25,-0.6585 L -1.25,-0.439 L -1.25,-0.2195 L -1.25,0.0 L -1.25,0.2195 L -1.25,0.439 L -1.25,0.6585 L -1.25,0.878 L -1.25,1.0975 L -1.25,1.317 L -1.25,1.5364 L -1.25,1.7559 L -1.25,1.9754 L -1.25,2.1949 L -1.25,2.4144 L -1.25,2.6339 L -1.25,2.8534 L -1.25,3.0729 L -1.25,3.2924 L -1.25,3.5119 L -1.25,3.7314 L -1.25,3.9509 L -1.25,4.1704 L -1.25,4.3899 L -1.25,4.6093 L -1.25,4.8288 L -1.25,5.0483 L -1.25,5.2678 L -1.25,5.4873 L -1.25,5.7068 L -1.25,5.9263 L -1.25,6.1458 L -1.25,6.3653 L -1.25,6.5848 L -1.25,6.8043 L -1.25,7.0238 L -1.25,7.2433 L -1.25,7.4628 L -1.25,7.6822 L -1.25,7.9017" />
      <path d="M 1.25,-7.9017 L 1.25,-7.6822 L 1.25,-7.4628 L 1.25,-7.2433 L 1.25,-7.0238 L 1.25,-6.8043 L 1.25,-6.5848 L 1.25,-6.3653 L 1.25,-6.1458 L 1.25,-5.9263 L 1.25,-5.7068 L 1.25,-5.4873 L 1.25,-5.2678 L 1.25,-5.0483 L 1.25,-4.8288 L 1.25,-4.6093 L 1.25,-4.3899 L 1.25,-4.1704 L 1.25,-3.9509 L 1.25,-3.7314 L 1.25,-3.5119 L 1.25,-3.2924 L 1.25,-3.0729 L 1.25,-2.8534 L 1.25,-2.6339 L 1.25,-2.4144 L 1.25,-2.1949 L 1.25,-1.9754 L 1.25,-1.7559 L 1.25,-1.5364 L 1.25,-1.317 L 1.25,-1.0975 L 1.25,-0.878 L 1.25,-0.6585 L 1.25,-0.439 L 1.25,-0.2195 L 1.25,0.0 L 1.25,0.2195 L 1.25,0.439 L 1.25,0.6585 L 1.25,0.878 L 1.25,1.0975 L 1.25,1.317 L 1.25,1.5364 L 1.25,1.7559 L 1.25,1.9754 L 1.25,2.1949 L 1.25,2.4144 L 1.25,2.6339 L 1.25,2.8534 L 1.25,3.0729 L 1.25,3.2924 L 1.25,3.5119 L 1.25,3.7314 L 1.25,3.9509 L 1.25,4.1704 L 1.25,4.3899 L 1.25,4.6093 L 1.25,4.8288 L 1.25,5.0483 L 1.25,5.2678 L 1.25,5.4873 L 1.25,5.7068 L 1.25,5.9263 L 1.25,6.1458 L 1.25,6.3653 L 1.25,6.5848 L 1.25,6.8043 L 1.25,7.0238 L 1.25,7.2433 L 1.25,7.4628 L 1.25,7.6822 L 1.25,7.9017" />
      <path d="M 18.0695,8.0 L 18.0522,7.7793 L 18.0451,7.5571 L 18.0398,7.3349 L 18.0355,7.1127 L 18.0317,6.8904 L 18.0284,6.6682 L 18.0254,6.4459 L 18.0228,6.2237 L 18.0203,6.0014 L 18.0181,5.7792 L 18.016,5.5569 L 18.0141,5.3346 L 18.0123,5.1124 L 18.0106,4.8901 L 18.0091,4.6678 L 18.0076,4.4456 L 18.0063,4.2233 L 18.0051,4.001 L 18.0039,3.7788 L 18.0028,3.5565 L 18.0019,3.3342 L 18.001,3.112 L 18.0001,2.8897 L 17.9993,2.6674 L 17.9986,2.4452 L 17.998,2.2229 L 17.9975,2.0006 L 17.9969,1.7784 L 17.9965,1.5561 L 17.9961,1.3338 L 17.9958,1.1116 L 17.9955,0.8893 L 17.9953,0.667 L 17.9952,0.4447 L 17.9951,0.2225 L 17.9951,0.0002 L 17.9951,-0.2221 L 17.9952,-0.4443 L 17.9953,-0.6666 L 17.9955,-0.8889 L 17.9958,-1.1111 L 17.9961,-1.3334 L 17.9965,-1.5557 L 17.9969,-1.7779 L 17.9975,-2.0002 L 17.998,-2.2225 L 17.9986,-2.4447 L 17.9993,-2.667 L 18.0001,-2.8893 L 18.0009,-3.1115 L 18.0019,-3.3338 L 18.0028,-3.5561 L 18.0039,-3.7783 L 18.0051,-4.0006 L 18.0063,-4.2229 L 18.0076,-4.4451 L 18.0091,-4.6674 L 18.0106,-4.8897 L 18.0123,-5.1119 L 18.0141,-5.3342 L 18.016,-5.5565 L 18.0181,-5.7787 L 18.0203,-6.001 L 18.0228,-6.2232 L 18.0254,-6.4455 L 18.0284,-6.6677 L 18.0317,-6.89 L 18.0355,-7.1122 L 18.0398,-7.3345 L 18.0451,-7.5567 L 18.0522,-7.7788 L 18.0695,-8.0" />
      <path d="M 18.0695,5.0 L 18.0587,4.862 L 18.0543,4.7232 L 18.051,4.5843 L 18.0482,4.4454 L 18.0459,4.3065 L 18.0438,4.1676 L 18.042,4.0287 L 18.0403,3.8898 L 18.0388,3.7509 L 18.0374,3.612 L 18.0361,3.4731 L 18.0349,3.3342 L 18.0337,3.1952 L 18.0327,3.0563 L 18.0317,2.9174 L 18.0309,2.7785 L 18.03,2.6396 L 18.0292,2.5007 L 18.0285,2.3617 L 18.0279,2.2228 L 18.0272,2.0839 L 18.0267,1.945 L 18.0261,1.8061 L 18.0257,1.6671 L 18.0252,1.5282 L 18.0248,1.3893 L 18.0245,1.2504 L 18.0242,1.1115 L 18.0239,0.9726 L 18.0237,0.8336 L 18.0235,0.6947 L 18.0233,0.5558 L 18.0232,0.4169 L 18.0231,0.278 L 18.023,0.139 L 18.023,0.0001 L 18.023,-0.1388 L 18.0231,-0.2777 L 18.0232,-0.4166 L 18.0233,-0.5555 L 18.0235,-0.6945 L 18.0237,-0.8334 L 18.0239,-0.9723 L 18.0242,-1.1112 L 18.0245,-1.2501 L 18.0248,-1.389 L 18.0252,-1.528 L 18.0257,-1.6669 L 18.0261,-1.8058 L 18.0267,-1.9447 L 18.0272,-2.0836 L 18.0279,-2.2226 L 18.0285,-2.3615 L 18.0292,-2.5004 L 18.03,-2.6393 L 18.0309,-2.7782 L 18.0317,-2.9171 L 18.0327,-3.056 L 18.0337,-3.195 L 18.0349,-3.3339 L 18.0361,-3.4728 L 18.0374,-3.6117 L 18.0388,-3.7506 L 18.0403,-3.8895 L 18.042,-4.0284 L 18.0438,-4.1673 L 18.0459,-4.3062 L 18.0482,-4.4451 L 18.051,-4.584 L 18.0543,-4.7229 L 18.0587,-4.8618 L 18.0695,-5.0" />
      <path d="M 18.0695,-5.0 L 18.0804,-4.862 L 18.0848,-4.7232 L 18.0881,-4.5843 L 18.0908,-4.4454 L 18.0932,-4.3065 L 18.0952,-4.1676 L 18.0971,-4.0287 L 18.0988,-3.8898 L 18.1003,-3.7509 L 18.1017,-3.612 L 18.103,-3.4731 L 18.1042,-3.3342 L 18.1053,-3.1952 L 18.1064,-3.0563 L 18.1073,-2.9174 L 18.1082,-2.7785 L 18.1091,-2.6396 L 18.1098,-2.5007 L 18.1106,-2.3617 L 18.1112,-2.2228 L 18.1118,-2.0839 L 18.1124,-1.945 L 18.1129,-1.8061 L 18.1134,-1.6671 L 18.1138,-1.5282 L 18.1142,-1.3893 L 18.1146,-1.2504 L 18.1149,-1.1115 L 18.1152,-0.9726 L 18.1154,-0.8336 L 18.1156,-0.6947 L 18.1158,-0.5558 L 18.1159,-0.4169 L 18.116,-0.278 L 18.1161,-0.139 L 18.1161,-0.0001 L 18.1161,0.1388 L 18.116,0.2777 L 18.1159,0.4166 L 18.1158,0.5555 L 18.1156,0.6945 L 18.1154,0.8334 L 18.1152,0.9723 L 18.1149,1.1112 L 18.1146,1.2501 L 18.1142,1.389 L 18.1138,1.528 L 18.1134,1.6669 L 18.1129,1.8058 L 18.1124,1.9447 L 18.1118,2.0836 L 18.1112,2.2226 L 18.1106,2.3615 L 18.1098,2.5004 L 18.1091,2.6393 L 18.1082,2.7782 L 18.1073,2.9171 L 18.1064,3.056 L 18.1053,3.195 L 18.1042,3.3339 L 18.103,3.4728 L 18.1017,3.6117 L 18.1003,3.7506 L 18.0988,3.8895 L 18.0971,4.0284 L 18.0953,4.1673 L 18.0932,4.3062 L 18.0908,4.4451 L 18.0881,4.584 L 18.0848,4.7229 L 18.0804,4.8618 L 18.0695,5.0" />
      <path d="M 14.4581,7.9017 L 14.432,7.9017 L 14.4059,7.9017 L 14.3799,7.9017 L 14.3538,7.9017 L 14.3277,7.9017 L 14.3017,7.9017 L 14.2756,7.9017 L 14.2495,7.9017 L 14.2235,7.9017 L 14.1974,7.9017 L 14.1714,7.9017 L 14.1453,7.9017 L 14.1192,7.9017 L 14.0932,7.9017 L 14.0671,7.9017 L 14.041,7.9017 L 14.015,7.9017 L 13.9889,7.9017 L 13.9628,7.9017 L 13.9368,7.9017 L 13.9107,7.9017 L 13.8846,7.9017 L 13.8586,7.9017 L 13.8325,7.9017 L 13.8064,7.9017 L 13.7804,7.9017 L 13.7543,7.9017 L 13.7283,7.9017 L 13.7022,7.9017 L 13.6761,7.9017 L 13.6501,7.9017 L 13.624,7.9017 L 13.5979,7.9017 L 13.5719,7.9017 L 13.5458,7.9017 L 13.5197,7.9017 L 13.4937,7.9017 L 13.4676,7.9017 L 13.4415,7.9017 L 13.4155,7.9017 L 13.3894,7.9017 L 13.3633,7.9017 L 13.3373,7.9017 L 13.3112,7.9017 L 13.2852,7.9017 L 13.2591,7.9017 L 13.233,7.9017 L 13.207,7.9017 L 13.1809,7.9017 L 13.1548,7.9017 L 13.1288,7.9017 L 13.1027,7.9017 L 13.0766,7.9017 L 13.0506,7.9017 L 13.0245,7.9017 L 12.9984,7.9017 L 12.9724,7.9017 L 12.9463,7.9017 L 12.9202,7.9017 L 12.8942,7.9017 L 12.8681,7.9017 L 12.8421,7.9017 L 12.816,7.9017 L 12.7899,7.9017 L 12.7639,7.9017 L 12.7378,7.9017 L 12.7117,7.9017 L 12.6857,7.9017 L 12.6596,7.9017 L 12.6335,7.9017 L 12.6075,7.9017 L 12.5814,7.9017" />
      <path d="M 12.5581,7.9017 L 12.549,7.6824 L 12.543,7.463 L 12.5382,7.2435 L 12.5341,7.0241 L 12.5306,6.8046 L 12.5275,6.5851 L 12.5247,6.3656 L 12.5221,6.1461 L 12.5198,5.9266 L 12.5176,5.7071 L 12.5156,5.4876 L 12.5137,5.2681 L 12.512,5.0486 L 12.5104,4.8291 L 12.5089,4.6096 L 12.5075,4.3901 L 12.5062,4.1706 L 12.505,3.9511 L 12.5039,3.7316 L 12.5029,3.5121 L 12.5019,3.2926 L 12.501,3.0731 L 12.5002,2.8536 L 12.4995,2.6341 L 12.4988,2.4146 L 12.4982,2.1951 L 12.4976,1.9756 L 12.4971,1.7561 L 12.4967,1.5366 L 12.4963,1.317 L 12.496,1.0975 L 12.4958,0.878 L 12.4956,0.6585 L 12.4954,0.439 L 12.4954,0.2195 L 12.4953,-0.0 L 12.4954,-0.2195 L 12.4954,-0.439 L 12.4956,-0.6585 L 12.4958,-0.878 L 12.496,-1.0975 L 12.4963,-1.317 L 12.4967,-1.5366 L 12.4971,-1.7561 L 12.4976,-1.9756 L 12.4982,-2.1951 L 12.4988,-2.4146 L 12.4995,-2.6341 L 12.5002,-2.8536 L 12.501,-3.0731 L 12.5019,-3.2926 L 12.5029,-3.5121 L 12.5039,-3.7316 L 12.505,-3.9511 L 12.5062,-4.1706 L 12.5075,-4.3901 L 12.5089,-4.6096 L 12.5104,-4.8291 L 12.512,-5.0486 L 12.5137,-5.2681 L 12.5156,-5.4876 L 12.5176,-5.7071 L 12.5198,-5.9266 L 12.5221,-6.1461 L 12.5247,-6.3656 L 12.5275,-6.5851 L 12.5306,-6.8046 L 12.5341,-7.0241 L 12.5382,-7.2435 L 12.543,-7.463 L 12.549,-7.6824 L 12.5581,-7.9017" />
      <path d="M 14.4581,-7.9017 L 14.432,-7.9017 L 14.4059,-7.9017 L 14.3799,-7.9017 L 14.3538,-7.9017 L 14.3277,-7.9017 L 14.3017,-7.9017 L 14.2756,-7.9017 L 14.2495,-7.9017 L 14.2235,-7.9017 L 14.1974,-7.9017 L 14.1714,-7.9017 L 14.1453,-7.9017 L 14.1192,-7.9017 L 14.0932,-7.9017 L 14.0671,-7.9017 L 14.041,-7.9017 L 14.015,-7.9017 L 13.9889,-7.9017 L 13.9628,-7.9017 L 13.9368,-7.9017 L 13.9107,-7.9017 L 13.8846,-7.9017 L 13.8586,-7.9017 L 13.8325,-7.9017 L 13.8064,-7.9017 L 13.7804,-7.9017 L 13.7543,-7.9017 L 13.7283,-7.9017 L 13.7022,-7.9017 L 13.6761,-7.9017 L 13.6501,-7.9017 L 13.624,-7.9017 L 13.5979,-7.9017 L 13.5719,-7.9017 L 13.5458,-7.9017 L 13.5197,-7.9017 L 13.4937,-7.9017 L 13.4676,-7.9017 L 13.4415,-7.9017 L 13.4155,-7.9017 L 13.3894,-7.9017 L 13.3633,-7.9017 L 13.3373,-7.9017 L 13.3112,-7.9017 L 13.2852,-7.9017 L 13.2591,-7.9017 L 13.233,-7.9017 L 13.207,-7.9017 L 13.1809,-7.9017 L 13.1548,-7.9017 L 13.1288,-7.9017 L 13.1027,-7.9017 L 13.0766,-7.9017 L 13.0506,-7.9017 L 13.0245,-7.9017 L 12.9984,-7.9017 L 12.9724,-7.9017 L 12.9463,-7.9017 L 12.9202,-7.9017 L 12.8942,-7.9017 L 12.8681,-7.9017 L 12.8421,-7.9017 L 12.816,-7.9017 L 12.7899,-7.9017 L 12.7639,-7.9017 L 12.7378,-7.9017 L 12.7117,-7.9017 L 12.6857,-7.9017 L 12.6596,-7.9017 L 12.6335,-7.9017 L 12.6075,-7.9017 L 12.5814,-7.9017" />
      <path d="M 48.0682,5.0 L 48.0574,4.862 L 48.053,4.7232 L 48.0497,4.5843 L 48.0469,4.4454 L 48.0446,4.3065 L 48.0425,4.1676 L 48.0407,4.0287 L 48.039,3.8898 L 48.0375,3.7509 L 48.0361,3.612 L 48.0348,3.4731 L 48.0336,3.3342 L 48.0324,3.1952 L 48.0314,3.0563 L 48.0304,2.9174 L 48.0296,2.7785 L 48.0287,2.6396 L 48.0279,2.5007 L 48.0272,2.3617 L 48.0266,2.2228 L 48.0259,2.0839 L 48.0254,1.945 L 48.0248,1.8061 L 48.0244,1.6671 L 48.0239,1.5282 L 48.0235,1.3893 L 48.0232,1.2504 L 48.0229,1.1115 L 48.0226,0.9726 L 48.0224,0.8336 L 48.0222,0.6947 L 48.022,0.5558 L 48.0219,0.4169 L 48.0218,0.278 L 48.0217,0.139 L 48.0217,0.0001 L 48.0217,-0.1388 L 48.0218,-0.2777 L 48.0219,-0.4166 L 48.022,-0.5555 L 48.0222,-0.6945 L 48.0224,-0.8334 L 48.0226,-0.9723 L 48.0229,-1.1112 L 48.0232,-1.2501 L 48.0235,-1.389 L 48.0239,-1.528 L 48.0244,-1.6669 L 48.0248,-1.8058 L 48.0254,-1.9447 L 48.0259,-2.0836 L 48.0266,-2.2226 L 48.0272,-2.3615 L 48.0279,-2.5004 L 48.0287,-2.6393 L 48.0296,-2.7782 L 48.0304,-2.9171 L 48.0314,-3.056 L 48.0324,-3.195 L 48.0336,-3.3339 L 48.0348,-3.4728 L 48.0361,-3.6117 L 48.0375,-3.7506 L 48.039,-3.8895 L 48.0407,-4.0284 L 48.0425,-4.1673 L 48.0446,-4.3062 L 48.0469,-4.4451 L 48.0497,-4.584 L 48.053,-4.7229 L 48.0574,-4.8618 L 48.0682,-5.0" />
      <path d="M 18.0695,5.0 L 18.0703,5.0 L 18.0712,5.0 L 18.072,5.0 L 18.0728,5.0 L 18.0736,5.0 L 18.0744,5.0 L 18.0752,5.0 L 18.076,5.0 L 18.0768,5.0 L 18.0776,5.0 L 18.0784,5.0 L 18.0792,5.0 L 18.08,5.0 L 18.0808,5.0 L 18.0816,5.0 L 18.0825,5.0 L 18.0833,5.0 L 18.0841,5.0 L 18.0849,5.0 L 18.0857,5.0 L 18.0865,5.0 L 18.0873,5.0 L 18.0881,5.0 L 18.0889,5.0 L 18.0897,5.0 L 18.0905,5.0 L 18.0913,5.0 L 18.0921,5.0 L 18.0929,5.0 L 18.0938,5.0 L 18.0946,5.0 L 18.0954,5.0 L 18.0962,5.0 L 18.097,5.0 L 18.0978,5.0 L 18.0986,5.0 L 18.0994,5.0 L 18.1002,5.0 L 18.101,5.0 L 18.1018,5.0 L 18.1026,5.0 L 18.1034,5.0 L 18.1042,5.0 L 18.1051,5.0 L 18.1059,5.0 L 18.1067,5.0 L 18.1075,5.0 L 18.1083,5.0 L 18.1091,5.0 L 18.1099,5.0 L 18.1107,5.0 L 18.1115,5.0 L 18.1123,5.0 L 18.1131,5.0 L 18.1139,5.0 L 18.1147,5.0 L 18.1155,5.0 L 18.1164,5.0 L 18.1172,5.0 L 18.118,5.0 L 18.1188,5.0 L 18.1196,5.0 L 18.1204,5.0 L 18.1212,5.0 L 18.122,5.0 L 18.1228,5.0 L 18.1236,5.0 L 18.1244,5.0 L 18.1252,5.0 L 18.126,5.0 L 18.1268,5.0 L 18.1277,5.0" />
      <path d="M 14.4581,-7.9017 L 14.4581,-7.6822 L 14.4581,-7.4628 L 14.4581,-7.2433 L 14.4581,-7.0238 L 14.4581,-6.8043 L 14.4581,-6.5848 L 14.4581,-6.3653 L 14.4581,-6.1458 L 14.4581,-5.9263 L 14.4581,-5.7068 L 14.4581,-5.4873 L 14.4581,-5.2678 L 14.4581,-5.0483 L 14.4581,-4.8288 L 14.4581,-4.6093 L 14.4581,-4.3899 L 14.4581,-4.1704 L 14.4581,-3.9509 L 14.4581,-3.7314 L 14.4581,-3.5119 L 14.4581,-3.2924 L 14.4581,-3.0729 L 14.4581,-2.8534 L 14.4581,-2.6339 L 14.4581,-2.4144 L 14.4581,-2.1949 L 14.4581,-1.9754 L 14.4581,-1.7559 L 14.4581,-1.5364 L 14.4581,-1.317 L 14.4581,-1.0975 L 14.4581,-0.878 L 14.4581,-0.6585 L 14.4581,-0.439 L 14.4581,-0.2195 L 14.4581,0.0 L 14.4581,0.2195 L 14.4581,0.439 L 14.4581,0.6585 L 14.4581,0.878 L 14.4581,1.0975 L 14.4581,1.317 L 14.4581,1.5364 L 14.4581,1.7559 L 14.4581,1.9754 L 14.4581,2.1949 L 14.4581,2.4144 L 14.4581,2.6339 L 14.4581,2.8534 L 14.4581,3.0729 L 14.4581,3.2924 L 14.4581,3.5119 L 14.4581,3.7314 L 14.4581,3.9509 L 14.4581,4.1704 L 14.4581,4.3899 L 14.4581,4.6093 L 14.4581,4.8288 L 14.4581,5.0483 L 14.4581,5.2678 L 14.4581,5.4873 L 14.4581,5.7068 L 14.4581,5.9263 L 14.4581,6.1458 L 14.4581,6.3653 L 14.4581,6.5848 L 14.4581,6.8043 L 14.4581,7.0238 L 14.4581,7.2433 L 14.4581,7.4628 L 14.4581,7.6822 L 14.4581,7.9017" />
      <path d="M 14.4813,-7.9017 L 14.4813,-7.6822 L 14.4813,-7.4628 L 14.4813,-7.2433 L 14.4813,-7.0238 L 14.4813,-6.8043 L 14.4813,-6.5848 L 14.4813,-6.3653 L 14.4813,-6.1458 L 14.4813,-5.9263 L 14.4813,-5.7068 L 14.4813,-5.4873 L 14.4813,-5.2678 L 14.4813,-5.0483 L 14.4813,-4.8288 L 14.4813,-4.6093 L 14.4813,-4.3899 L 14.4813,-4.1704 L 14.4813,-3.9509 L 14.4813,-3.7314 L 14.4813,-3.5119 L 14.4813,-3.2924 L 14.4813,-3.0729 L 14.4813,-2.8534 L 14.4813,-2.6339 L 14.4813,-2.4144 L 14.4813,-2.1949 L 14.4813,-1.9754 L 14.4813,-1.7559 L 14.4813,-1.5364 L 14.4813,-1.317 L 14.4813,-1.0975 L 14.4813,-0.878 L 14.4813,-0.6585 L 14.4813,-0.439 L 14.4813,-0.2195 L 14.4813,0.0 L 14.4813,0.2195 L 14.4813,0.439 L 14.4813,0.6585 L 14.4813,0.878 L 14.4813,1.0975 L 14.4813,1.317 L 14.4813,1.5364 L 14.4813,1.7559 L 14.4813,1.9754 L 14.4813,2.1949 L 14.4813,2.4144 L 14.4813,2.6339 L 14.4813,2.8534 L 14.4813,3.0729 L 14.4813,3.2924 L 14.4813,3.5119 L 14.4813,3.7314 L 14.4813,3.9509 L 14.4813,4.1704 L 14.4813,4.3899 L 14.4813,4.6093 L 14.4813,4.8288 L 14.4813,5.0483 L 14.4813,5.2678 L 14.4813,5.4873 L 14.4813,5.7068 L 14.4813,5.9263 L 14.4813,6.1458 L 14.4813,6.3653 L 14.4813,6.5848 L 14.4813,6.8043 L 14.4813,7.0238 L 14.4813,7.2433 L 14.4813,7.4628 L 14.4813,7.6822 L 14.4813,7.9017" />
      <path d="M 18.0695,-5.0 L 18.0703,-5.0 L 18.0712,-5.0 L 18.072,-5.0 L 18.0728,-5.0 L 18.0736,-5.0 L 18.0744,-5.0 L 18.0752,-5.0 L 18.076,-5.0 L 18.0768,-5.0 L 18.0776,-5.0 L 18.0784,-5.0 L 18.0792,-5.0 L 18.08,-5.0 L 18.0808,-5.0 L 18.0816,-5.0 L 18.0825,-5.0 L 18.0833,-5.0 L 18.0841,-5.0 L 18.0849,-5.0 L 18.0857,-5.0 L 18.0865,-5.0 L 18.0873,-5.0 L 18.0881,-5.0 L 18.0889,-5.0 L 18.0897,-5.0 L 18.0905,-5.0 L 18.0913,-5.0 L 18.0921,-5.0 L 18.0929,-5.0 L 18.0938,-5.0 L 18.0946,-5.0 L 18.0954,-5.0 L 18.0962,-5.0 L 18.097,-5.0 L 18.0978,-5.0 L 18.0986,-5.0 L 18.0994,-5.0 L 18.1002,-5.0 L 18.101,-5.0 L 18.1018,-5.0 L 18.1026,-5.0 L 18.1034,-5.0 L 18.1042,-5.0 L 18.1051,-5.0 L 18.1059,-5.0 L 18.1067,-5.0 L 18.1075,-5.0 L 18.1083,-5.0 L 18.1091,-5.0 L 18.1099,-5.0 L 18.1107,-5.0 L 18.1115,-5.0 L 18.1123,-5.0 L 18.1131,-5.0 L 18.1139,-5.0 L 18.1147,-5.0 L 18.1155,-5.0 L 18.1164,-5.0 L 18.1172,-5.0 L 18.118,-5.0 L 18.1188,-5.0 L 18.1196,-5.0 L 18.1204,-5.0 L 18.1212,-5.0 L 18.122,-5.0 L 18.1228,-5.0 L 18.1236,-5.0 L 18.1244,-5.0 L 18.1252,-5.0 L 18.126,-5.0 L 18.1268,-5.0 L 18.1277,-5.0" />
    </g>
    <g fill="none" stroke="rgb(0,0,0)" stroke-width="0.2" id="Center" stroke-dasharray="6.35 1.27 1.27 1.27">
      <line x1="0.0" y1="0.0" x2="-10.89" y2="0.0" />
      <line x1="0.0" y1="0.0" x2="10.89" y2="0.0" />
      <line x1="0.0" y1="0.0" x2="0.0" y2="-10.89" />
      <line x1="0.0" y1="0.0" x2="0.0" y2="10.89" />
      <line x1="30.0574" y1="0.0" x2="9.11" y2="0.0" />
      <line x1="30.0574" y1="0.0" x2="51.0048" y2="0.0" />
    </g>
  </g>
</svg>