<?xml version='1.0' encoding='utf-8'?>
<svg width="55.3766mm" height="21.22mm" viewBox="-10.61 -10.61 55.3766 21.22" version="1.1" xmlns="http://www.w3.org/2000/svg">
  <g transform="scale(1,-1)" stroke-linecap="round">
    <g fill="none" stroke="rgb(0,0,0)" stroke-width="0.4" id="Visible">
      <path d="M 0.0,6.0 L -0.5229,5.9772 L -1.0419,5.9088 L -1.5529,5.7956 L -2.0521,5.6382 L -2.5357,5.4378 L -3.0,5.1962 L -3.4415,4.9149 L -3.8567,4.5963 L -4.2426,4.2426 L -4.5963,3.8567 L -4.9149,3.4415 L -5.1962,3.0 L -5.4378,2.5357 L -5.6382,2.0521 L -5.7956,1.5529 L -5.9088,1.0419 L -5.9772,0.5229 L -6.0,-0.0 L -5.9772,-0.5229 L -5.9088,-1.0419 L -5.7956,-1.5529 L -5.6382,-2.0521 L -5.4378,-2.5357 L -5.1962,-3.0 L -4.9149,-3.4415 L -4.5963,-3.8567 L -4.2426,-4.2426 L -3.8567,-4.5963 L -3.4415,-4.9149 L -3.0,-5.1962 L -2.5357,-5.4378 L -2.0521,-5.6382 L -1.5529,-5.7956 L -1.0419,-5.9088 L -0.5229,-5.9772 L -0.0,-6.0 L 0.5229,-5.9772 L 1.0419,-5.9088 L 1.5529,-5.7956 L 2.0521,-5.6382 L 2.5357,-5.4378 L 3.0,-5.1962 L 3.4415,-4.9149 L 3.8567,-4.5963 L 4.2426,-4.2426 L 4.5963,-3.8567 L 4.9149,-3.4415 L 5.1962,-3.0 L 5.4378,-2.5357 L 5.6382,-2.0521 L 5.7956,-1.5529 L 5.9088,-1.0419 L 5.9772,-0.5229 L 6.0,0.0 L 5.9772,0.5229 L 5.9088,1.0419 L 5.7956,1.5529 L 5.6382,2.0521 L 5.4378,2.5357 L 5.1962,3.0 L 4.9149,3.4415 L 4.5963,3.8567 L 4.2426,4.2426 L 3.8567,4.5963 L 3.4415,4.9149 L 3.0,5.1962 L 2.5357,5.4378 L 2.0521,5.6382 L 1.5529,5.7956 L 1.0419,5.9088 L 0.5229,5.9772 L 0.0,6.0" />
      <path d="M 3.0,1.7321 L 2.9583,1.7561 L 2.9167,1.7802 L 2.875,1.8042 L 2.8333,1.8283 L 2.7917,1.8523 L 2.75,1.8764 L 2.7083,1.9004 L 2.6667,1.9245 L 2.625,1.9486 L 2.5833,1.9726 L 2.5417,1.9967 L 2.5,2.0207 L 2.4583,2.0448 L 2.4167,2.0688 L 2.375,2.0929 L 2.3333,2.117 L 2.2917,2.141 L 2.25,2.1651 L 2.2083,2.1891 L 2.1667,2.2132 L 2.125,2.2372 L 2.0833,2.2613 L 2.0417,2.2853 L 2.0,2.3094 L 1.9583,2.3335 L 1.9167,2.3575 L 1.875,2.3816 L 1.8333,2.4056 L 1.7917,2.4297 L 1.75,2.4537 L 1.7083,2.4778 L 1.6667,2.5019 L 1.625,2.5259 L 1.5833,2.55 L 1.5417,2.574 L 1.5,2.5981 L 1.4583,2.6221 L 1.4167,2.6462 L 1.375,2.6702 L 1.3333,2.6943 L 1.2917,2.7184 L 1.25,2.7424 L 1.2083,2.7665 L 1.1667,2.7905 L 1.125,2.8146 L 1.0833,2.8386 L 1.0417,2.8627 L 1.0,2.8868 L 0.9583,2.9108 L 0.9167,2.9349 L 0.875,2.9589 L 0.8333,2.983 L 0.7917,3.007 L 0.75,3.0311 L 0.7083,3.0551 L 0.6667,3.0792 L 0.625,3.1033 L 0.5833,3.1273 L 0.5417,3.1514 L 0.5,3.1754 L 0.4583,3.1995 L 0.4167,3.2235 L 0.375,3.2476 L 0.3333,3.2717 L 0.2917,3.2957 L 0.25,3.3198 L 0.2083,3.3438 L 0.1667,3.3679 L 0.125,3.3919 L 0.0833,3.416 L 0.0417,3.44 L 0.0,3.4641" />
      <path d="M 3.0,-1.7321 L 3.0,-1.6839 L 3.0,-1.6358 L 3.0,-1.5877 L 3.0,-1.5396 L 3.0,-1.4915 L 3.0,-1.4434 L 3.0,-1.3953 L 3.0,-1.3472 L 3.0,-1.299 L 3.0,-1.2509 L 3.0,-1.2028 L 3.0,-1.1547 L 3.0,-1.1066 L 3.0,-1.0585 L 3.0,-1.0104 L 3.0,-0.9623 L 3.0,-0.9141 L 3.0,-0.866 L 3.0,-0.8179 L 3.0,-0.7698 L 3.0,-0.7217 L 3.0,-0.6736 L 3.0,-0.6255 L 3.0,-0.5774 L 3.0,-0.5292 L 3.0,-0.4811 L 3.0,-0.433 L 3.0,-0.3849 L 3.0,-0.3368 L 3.0,-0.2887 L 3.0,-0.2406 L 3.0,-0.1925 L 3.0,-0.1443 L 3.0,-0.0962 L 3.0,-0.0481 L 3.0,0.0 L 3.0,0.0481 L 3.0,0.0962 L 3.0,0.1443 L 3.0,0.1925 L 3.0,0.2406 L 3.0,0.2887 L 3.0,0.3368 L 3.0,0.3849 L 3.0,0.433 L 3.0,0.4811 L 3.0,0.5292 L 3.0,0.5774 L 3.0,0.6255 L 3.0,0.6736 L 3.0,0.7217 L 3.0,0.7698 L 3.0,0.8179 L 3.0,0.866 L 3.0,0.9141 L 3.0,0.9623 L 3.0,1.0104 L 3.0,1.0585 L 3.0,1.1066 L 3.0,1.1547 L 3.0,1.2028 L 3.0,1.2509 L 3.0,1.299 L 3.0,1.3472 L 3.0,1.3953 L 3.0,1.4434 L 3.0,1.4915 L 3.0,1.5396 L 3.0,1.5877 L 3.0,1.6358 L 3.0,1.6839 L 3.0,1.7321" />
      <path d="M 0.0,-3.4641 L 0.0417,-3.44 L 0.0833,-3.416 L 0.125,-3.3919 L 0.1667,-3.3679 L 0.2083,-3.3438 L 0.25,-3.3198 L 0.2917,-3.2957 L 0.3333,-3.2717 L 0.375,-3.2476 L 0.4167,-3.2235 L 0.4583,-3.1995 L 0.5,-3.1754 L 0.5417,-3.1514 L 0.5833,-3.1273 L 0.625,-3.1033 L 0.6667,-3.0792 L 0.7083,-3.0551 L 0.75,-3.0311 L 0.7917,-3.007 L 0.8333,-2.983 L 0.875,-2.9589 L 0.9167,-2.9349 L 0.9583,-2.9108 L 1.0,-2.8868 L 1.0417,-2.8627 L 1.0833,-2.8386 L 1.125,-2.8146 L 1.1667,-2.7905 L 1.2083,-2.7665 L 1.25,-2.7424 L 1.2917,-2.7184 L 1.3333,-2.6943 L 1.375,-2.6702 L 1.4167,-2.6462 L 1.4583,-2.6221 L 1.5,-2.5981 L 1.5417,-2.574 L 1.5833,-2.55 L 1.625,-2.5259 L 1.6667,-2.5019 L 1.7083,-2.4778 L 1.75,-2.4537 L 1.7917,-2.4297 L 1.8333,-2.4056 L 1.875,-2.3816 L 1.9167,-2.3575 L 1.9583,-2.3335 L 2.0,-2.3094 L 2.0417,-2.2853 L 2.0833,-2.2613 L 2.125,-2.2372 L 2.1667,-2.2132 L 2.2083,-2.1891 L 2.25,-2.1651 L 2.2917,-2.141 L 2.3333,-2.117 L 2.375,-2.0929 L 2.4167,-2.0688 L 2.4583,-2.0448 L 2.5,-2.0207 L 2.5417,-1.9967 L 2.5833,-1.9726 L 2.625,-1.9486 L 2.6667,-1.9245 L 2.7083,-1.9004 L 2.75,-1.8764 L 2.7917,-1.8523 L 2.8333,-1.8283 L 2.875,-1.8042 L 2.9167,-1.7802 L 2.9583,-1.7561 L 3.0,-1.7321" />
      <path d="M -3.0,-1.7321 L -2.9583,-1.7561 L -2.9167,-1.7802 L -2.875,-1.8042 L -2.8333,-1.8283 L -2.7917,-1.8523 L -2.75,-1.8764 L -2.7083,-1.9004 L -2.6667,-1.9245 L -2.625,-1.9486 L -2.5833,-1.9726 L -2.5417,-1.9967 L -2.5,-2.0207 L -2.4583,-2.0448 L -2.4167,-2.0688 L -2.375,-2.0929 L -2.3333,-2.117 L -2.2917,-2.141 L -2.25,-2.1651 L -2.2083,-2.1891 L -2.1667,-2.2132 L -2.125,-2.2372 L -2.0833,-2.2613 L -2.0417,-2.2853 L -2.0,-2.3094 L -1.9583,-2.3335 L -1.9167,-2.3575 L -1.875,-2.3816 L -1.8333,-2.4056 L -1.7917,-2.4297 L -1.75,-2.4537 L -1.7083,-2.4778 L -1.6667,-2.5019 L -1.625,-2.5259 L -1.5833,-2.55 L -1.5417,-2.574 L -1.5,-2.5981 L -1.4583,-2.6221 L -1.4167,-2.6462 L -1.375,-2.6702 L -1.3333,-2.6943 L -1.2917,-2.7184 L -1.25,-2.7424 L -1.2083,-2.7665 L -1.1667,-2.7905 L -1.125,-2.8146 L -1.0833,-2.8386 L -1.0417,-2.8627 L -1.0,-2.8868 L -0.9583,-2.9108 L -0.9167,-2.9349 L -0.875,-2.9589 L -0.8333,-2.983 L -0.7917,-3.007 L -0.75,-3.0311 L -0.7083,-3.0551 L -0.6667,-3.0792 L -0.625,-3.1033 L -0.5833,-3.1273 L -0.5417,-3.1514 L -0.5,-3.1754 L -0.4583,-3.1995 L -0.4167,-3.2235 L -0.375,-3.2476 L -0.3333,-3.2717 L -0.2917,-3.2957 L -0.25,-3.3198 L -0.2083,-3.3438 L -0.1667,-3.3679 L -0.125,-3.3919 L -0.0833,-3.416 L -0.0417,-3.44 L -0.0,-3.4641" />
      <path d="M -3.0,1.7321 L -3.0,1.6839 L -3.0,1.6358 L -3.0,1.5877 L -3.0,1.5396 L -3.0,1.4915 L -3.0,1.4434 L -3.0,1.3953 L -3.0,1.3472 L -3.0,1.299 L -3.0,1.2509 L -3.0,1.2028 L -3.0,1.1547 L -3.0,1.1066 L -3.0,1.0585 L -3.0,1.0104 L -3.0,0.9623 L -3.0,0.9141 L -3.0,0.866 L -3.0,0.8179 L -3.0,0.7698 L -3.0,0.7217 L -3.0,0.6736 L -3.0,0.6255 L -3.0,0.5774 L -3.0,0.5292 L -3.0,0.4811 L -3.0,0.433 L -3.0,0.3849 L -3.0,0.3368 L -3.0,0.2887 L -3.0,0.2406 L -3.0,0.1925 L -3.0,0.1443 L -3.0,0.0962 L -3.0,0.0481 L -3.0,0.0 L -3.0,-0.0481 L -3.0,-0.0962 L -3.0,-0.1443 L -3.0,-0.1925 L -3.0,-0.2406 L -3.0,-0.2887 L -3.0,-0.3368 L -3.0,-0.3849 L -3.0,-0.433 L -3.0,-0.4811 L -3.0,-0.5292 L -3.0,-0.5774 L -3.0,-0.6255 L -3.0,-0.6736 L -3.0,-0.7217 L -3.0,-0.7698 L -3.0,-0.8179 L -3.0,-0.866 L -3.0,-0.9141 L -3.0,-0.9623 L -3.0,-1.0104 L -3.0,-1.0585 L -3.0,-1.1066 L -3.0,-1.1547 L -3.0,-1.2028 L -3.0,-1.2509 L -3.0,-1.299 L -3.0,-1.3472 L -3.0,-1.3953 L -3.0,-1.4434 L -3.0,-1.4915 L -3.0,-1.5396 L -3.0,-1.5877 L -3.0,-1.6358 L -3.0,-1.6839 L -3.0,-1.7321" />
      <path d="M 0.0,3.4641 L -0.0417,3.44 L -0.0833,3.416 L -0.125,3.3919 L -0.1667,3.3679 L -0.2083,3.3438 L -0.25,3.3198 L -0.2917,3.2957 L -0.3333,3.2717 L -0.375,3.2476 L -0.4167,3.2235 L -0.4583,3.1995 L -0.5,3.1754 L -0.5417,3.1514 L -0.5833,3.1273 L -0.625,3.1033 L -0.6667,3.0792 L -0.7083,3.0551 L -0.75,3.0311 L -0.7917,3.007 L -0.8333,2.983 L -0.875,2.9589 L -0.9167,2.9349 L -0.9583,2.9108 L -1.0,2.8868 L -1.0417,2.8627 L -1.0833,2.8386 L -1.125,2.8146 L -1.1667,2.7905 L -1.2083,2.7665 L -1.25,2.7424 L -1.2917,2.7184 L -1.3333,2.6943 L -1.375,2.6702 L -1.4167,2.6462 L -1.4583,2.6221 L -1.5,2.5981 L -1.5417,2.574 L -1.5833,2.55 L -1.625,2.5259 L -1.6667,2.5019 L -1.7083,2.4778 L -1.75,2.4537 L -1.7917,2.4297 L -1.8333,2.4056 L -1.875,2.3816 L -1.9167,2.3575 L -1.9583,2.3335 L -2.0,2.3094 L -2.0417,2.2853 L -2.0833,2.2613 L -2.125,2.2372 L -2.1667,2.2132 L -2.2083,2.1891 L -2.25,2.1651 L -2.2917,2.141 L -2.3333,2.117 L -2.375,2.0929 L -2.4167,2.0688 L -2.4583,2.0448 L -2.5,2.0207 L -2.5417,1.9967 L -2.5833,1.9726 L -2.625,1.9486 L -2.6667,1.9245 L -2.7083,1.9004 L -2.75,1.8764 L -2.7917,1.8523 L -2.8333,1.8283 L -2.875,1.8042 L -2.9167,1.7802 L -2.9583,1.7561 L -3.0,1.7321" />
      <path d="M 10.0872,-6.0 L 10.0669,-5.8358 L 10.0586,-5.6692 L 10.0524,-5.5026 L 10.0473,-5.3359 L 10.0429,-5.1692 L 10.039,-5.0025 L 10.0356,-4.8358 L 10.0324,-4.6691 L 10.0295,-4.5024 L 10.0269,-4.3357 L 10.0245,-4.1689 L 10.0222,-4.0022 L 10.0201,-3.8355 L 10.0182,-3.6687 L 10.0164,-3.502 L 10.0147,-3.3353 L 10.0131,-3.1685 L 10.0117,-3.0018 L 10.0103,-2.835 L 10.0091,-2.6683 L 10.0079,-2.5015 L 10.0069,-2.3348 L 10.0059,-2.168 L 10.005,-2.0013 L 10.0042,-1.8346 L 10.0034,-1.6678 L 10.0028,-1.5011 L 10.0022,-1.3343 L 10.0017,-1.1676 L 10.0012,-1.0008 L 10.0008,-0.8341 L 10.0005,-0.6673 L 10.0003,-0.5006 L 10.0001,-0.3338 L 10.0,-0.1671 L 10.0,-0.0003 L 10.0,0.1664 L 10.0001,0.3332 L 10.0003,0.4999 L 10.0005,0.6667 L 10.0008,0.8334 L 10.0012,1.0002 L 10.0017,1.1669 L 10.0022,1.3337 L 10.0028,1.5004 L 10.0034,1.6672 L 10.0042,1.8339 L 10.005,2.0007 L 10.0059,2.1674 L 10.0069,2.3342 L 10.0079,2.5009 L 10.0091,2.6676 L 10.0103,2.8344 L 10.0117,3.0011 L 10.0131,3.1679 L 10.0147,3.3346 L 10.0164,3.5014 L 10.0182,3.6681 L 10.0201,3.8348 L 10.0222,4.0016 L 10.0245,4.1683 L 10.0269,4.335 L 10.0295,4.5018 L 10.0324,4.6685 L 10.0356,4.8352 L 10.039,5.0019 L 10.0429,5.1687 L 10.0473,5.3353 L 10.0524,5.502 L 10.0586,5.6687 L 10.0669,5.8352 L 10.0872,6.0" />
      <path d="M 39.0841,6.0 L 39.0842,6.0 L 39.0843,6.0 L 39.0844,6.0 L 39.0845,5.9999 L 39.0846,5.9999 L 39.0847,5.9999 L 39.0847,5.9998 L 39.0848,5.9998 L 39.0849,5.9998 L 39.0849,5.9997 L 39.085,5.9997 L 39.085,5.9996 L 39.0851,5.9996 L 39.0852,5.9996 L 39.0852,5.9995 L 39.0853,5.9995 L 39.0853,5.9994 L 39.0854,5.9994" />
      <path d="M 39.0854,-5.9994 L 39.0853,-5.9994 L 39.0853,-5.9995 L 39.0852,-5.9995 L 39.0852,-5.9996 L 39.0851,-5.9996 L 39.085,-5.9996 L 39.085,-5.9997 L 39.0849,-5.9997 L 39.0849,-5.9998 L 39.0848,-5.9998 L 39.0847,-5.9998 L 39.0847,-5.9999 L 39.0846,-5.9999 L 39.0845,-5.9999 L 39.0844,-6.0 L 39.0843,-6.0 L 39.0842,-6.0 L 39.0841,-6.0" />
      <path d="M 39.0841,-6.0 L 39.0638,-5.8358 L 39.0556,-5.6692 L 39.0494,-5.5026 L 39.0442,-5.3359 L 39.0398,-5.1692 L 39.036,-5.0025 L 39.0325,-4.8358 L 39.0294,-4.6691 L 39.0265,-4.5024 L 39.0238,-4.3357 L 39.0214,-4.1689 L 39.0192,-4.0022 L 39.0171,-3.8355 L 39.0151,-3.6687 L 39.0133,-3.502 L 39.0116,-3.3353 L 39.0101,-3.1685 L 39.0086,-3.0018 L 39.0073,-2.835 L 39.006,-2.6683 L 39.0049,-2.5015 L 39.0038,-2.3348 L 39.0028,-2.168 L 39.0019,-2.0013 L 39.0011,-1.8346 L 39.0004,-1.6678 L 38.9997,-1.5011 L 38.9991,-1.3343 L 38.9986,-1.1676 L 38.9982,-1.0008 L 38.9978,-0.8341 L 38.9975,-0.6673 L 38.9972,-0.5006 L 38.9971,-0.3338 L 38.997,-0.1671 L 38.9969,-0.0003 L 38.997,0.1664 L 38.9971,0.3332 L 38.9972,0.4999 L 38.9975,0.6667 L 38.9978,0.8334 L 38.9982,1.0002 L 38.9986,1.1669 L 38.9991,1.3337 L 38.9997,1.5004 L 39.0004,1.6672 L 39.0011,1.8339 L 39.0019,2.0007 L 39.0028,2.1674 L 39.0038,2.3342 L 39.0049,2.5009 L 39.006,2.6676 L 39.0073,2.8344 L 39.0086,3.0011 L 39.0101,3.1679 L 39.0116,3.3346 L 39.0133,3.5014 L 39.0151,3.6681 L 39.0171,3.8348 L 39.0192,4.0016 L 39.0214,4.1683 L 39.0238,4.335 L 39.0265,4.5018 L 39.0293,4.6685 L 39.0325,4.8352 L 39.036,5.0019 L 39.0398,5.1687 L 39.0442,5.3353 L 39.0493,5.502 L 39.0555,5.6687 L 39.0638,5.8352 L 39.0841,6.0" />
      <path d="M 10.0872,6.0 L 10.4899,6.0 L 10.8926,6.0 L 11.2954,6.0 L 11.6981,6.0 L 12.1008,6.0 L 12.5036,6.0 L 12.9063,6.0 L 13.309,6.0 L 13.7118,6.0 L 14.1145,6.0 L 14.5172,6.0 L 14.92,6.0 L 15.3227,6.0 L 15.7255,6.0 L 16.1282,6.0 L 16.5309,6.0 L 16.9337,6.0 L 17.3364,6.0 L 17.7391,6.0 L 18.1419,6.0 L 18.5446,6.0 L 18.9473,6.0 L 19.3501,6.0 L 19.7528,6.0 L 20.1555,6.0 L 20.5583,6.0 L 20.961,6.0 L 21.3637,6.0 L 21.7665,6.0 L 22.1692,6.0 L 22.572,6.0 L 22.9747,6.0 L 23.3774,6.0 L 23.7802,6.0 L 24.1829,6.0 L 24.5856,6.0 L 24.9884,6.0 L 25.3911,6.0 L 25.7938,6.0 L 26.1966,6.0 L 26.5993,6.0 L 27.002,6.0 L 27.4048,6.0 L 27.8075,6.0 L 28.2102,6.0 L 28.613,6.0 L 29.0157,6.0 L 29.4185,6.0 L 29.8212,6.0 L 30.2239,6.0 L 30.6267,6.0 L 31.0294,6.0 L 31.4321,6.0 L 31.8349,6.0 L 32.2376,6.0 L 32.6403,6.0 L 33.0431,6.0 L 33.4458,6.0 L 33.8485,6.0 L 34.2513,6.0 L 34.654,6.0 L 35.0567,6.0 L 35.4595,6.0 L 35.8622,6.0 L 36.265,6.0 L 36.6677,6.0 L 37.0704,6.0 L 37.4732,6.0 L 37.8759,6.0 L 38.2786,6.0 L 38.6814,6.0 L 39.0841,6.0" />
      <path d="M 40.084,5.0 L 40.0841,5.0 L 40.0842,5.0 L 40.0843,5.0 L 40.0843,4.9999 L 40.0844,4.9999 L 40.0845,4.9999 L 40.0846,4.9998 L 40.0847,4.9998 L 40.0847,4.9997 L 40.0848,4.9997 L 40.0849,4.9996 L 40.085,4.9996 L 40.085,4.9995" />
      <path d="M 40.085,4.9995 L 40.1009,4.8619 L 40.1078,4.7232 L 40.113,4.5844 L 40.1172,4.4455 L 40.1209,4.3066 L 40.1241,4.1677 L 40.127,4.0288 L 40.1296,3.8899 L 40.132,3.751 L 40.1342,3.6121 L 40.1362,3.4732 L 40.1381,3.3343 L 40.1399,3.1954 L 40.1415,3.0565 L 40.143,2.9175 L 40.1444,2.7786 L 40.1457,2.6397 L 40.1469,2.5008 L 40.148,2.3618 L 40.149,2.2229 L 40.15,2.084 L 40.1509,1.9451 L 40.1517,1.8061 L 40.1525,1.6672 L 40.1531,1.5283 L 40.1538,1.3894 L 40.1543,1.2504 L 40.1548,1.1115 L 40.1552,0.9726 L 40.1556,0.8337 L 40.1559,0.6947 L 40.1562,0.5558 L 40.1564,0.4169 L 40.1565,0.2779 L 40.1566,0.139 L 40.1566,0.0001 L 40.1566,-0.1388 L 40.1565,-0.2778 L 40.1564,-0.4167 L 40.1562,-0.5556 L 40.1559,-0.6946 L 40.1556,-0.8335 L 40.1552,-0.9724 L 40.1548,-1.1113 L 40.1543,-1.2503 L 40.1538,-1.3892 L 40.1531,-1.5281 L 40.1525,-1.667 L 40.1517,-1.806 L 40.1509,-1.9449 L 40.15,-2.0838 L 40.1491,-2.2227 L 40.148,-2.3617 L 40.1469,-2.5006 L 40.1457,-2.6395 L 40.1444,-2.7784 L 40.143,-2.9174 L 40.1415,-3.0563 L 40.1399,-3.1952 L 40.1381,-3.3341 L 40.1362,-3.473 L 40.1342,-3.612 L 40.132,-3.7509 L 40.1296,-3.8898 L 40.127,-4.0287 L 40.1241,-4.1676 L 40.1209,-4.3065 L 40.1172,-4.4454 L 40.113,-4.5842 L 40.1078,-4.7231 L 40.1009,-4.8618 L 40.085,-4.9995" />
      <path d="M 40.085,-4.9995 L 40.0672,-4.8643 L 40.0603,-4.7255 L 40.0551,-4.5867 L 40.0508,-4.4478 L 40.0471,-4.309 L 40.0439,-4.1701 L 40.041,-4.0311 L 40.0384,-3.8922 L 40.036,-3.7533 L 40.0338,-3.6144 L 40.0318,-3.4754 L 40.0299,-3.3365 L 40.0282,-3.1975 L 40.0265,-3.0586 L 40.025,-2.9196 L 40.0236,-2.7806 L 40.0223,-2.6417 L 40.0211,-2.5027 L 40.02,-2.3637 L 40.0189,-2.2248 L 40.018,-2.0858 L 40.0171,-1.9468 L 40.0163,-1.8078 L 40.0155,-1.6689 L 40.0148,-1.5299 L 40.0142,-1.3909 L 40.0137,-1.2519 L 40.0132,-1.113 L 40.0128,-0.974 L 40.0124,-0.835 L 40.0121,-0.696 L 40.0118,-0.557 L 40.0116,-0.4181 L 40.0115,-0.2791 L 40.0114,-0.1401 L 40.0114,-0.0011 L 40.0114,0.1379 L 40.0115,0.2768 L 40.0116,0.4158 L 40.0118,0.5548 L 40.0121,0.6938 L 40.0124,0.8328 L 40.0127,0.9717 L 40.0132,1.1107 L 40.0137,1.2497 L 40.0142,1.3887 L 40.0148,1.5277 L 40.0155,1.6666 L 40.0163,1.8056 L 40.0171,1.9446 L 40.018,2.0836 L 40.0189,2.2225 L 40.02,2.3615 L 40.0211,2.5005 L 40.0223,2.6395 L 40.0236,2.7784 L 40.025,2.9174 L 40.0265,3.0564 L 40.0281,3.1953 L 40.0299,3.3343 L 40.0317,3.4733 L 40.0338,3.6122 L 40.036,3.7512 L 40.0384,3.8902 L 40.041,4.0291 L 40.0439,4.1681 L 40.0471,4.307 L 40.0508,4.446 L 40.055,4.5849 L 40.0602,4.7238 L 40.0671,4.8626 L 40.084,5.0" />
      <path d="M 10.0872,-6.0 L 10.4899,-6.0 L 10.8926,-6.0 L 11.2954,-6.0 L 11.6981,-6.0 L 12.1008,-6.0 L 12.5036,-6.0 L 12.9063,-6.0 L 13.309,-6.0 L 13.7118,-6.0 L 14.1145,-6.0 L 14.5172,-6.0 L 14.92,-6.0 L 15.3227,-6.0 L 15.7255,-6.0 L 16.1282,-6.0 L 16.5309,-6.0 L 16.9337,-6.0 L 17.3364,-6.0 L 17.7391,-6.0 L 18.1419,-6.0 L 18.5446,-6.0 L 18.9473,-6.0 L 19.3501,-6.0 L 19.7528,-6.0 L 20.1555,-6.0 L 20.5583,-6.0 L 20.961,-6.0 L 21.3637,-6.0 L 21.7665,-6.0 L 22.1692,-6.0 L 22.572,-6.0 L 22.9747,-6.0 L 23.3774,-6.0 L 23.7802,-6.0 L 24.1829,-6.0 L 24.5856,-6.0 L 24.9884,-6.0 L 25.3911,-6.0 L 25.7938,-6.0 L 26.1966,-6.0 L 26.5993,-6.0 L 27.002,-6.0 L 27.4048,-6.0 L 27.8075,-6.0 L 28.2102,-6.0 L 28.613,-6.0 L 29.0157,-6.0 L 29.4185,-6.0 L 29.8212,-6.0 L 30.2239,-6.0 L 30.6267,-6.0 L 31.0294,-6.0 L 31.4321,-6.0 L 31.8349,-6.0 L 32.2376,-6.0 L 32.6403,-6.0 L 33.0431,-6.0 L 33.4458,-6.0 L 33.8485,-6.0 L 34.2513,-6.0 L 34.654,-6.0 L 35.0567,-6.0 L 35.4595,-6.0 L 35.8622,-6.0 L 36.265,-6.0 L 36.6677,-6.0 L 37.0704,-6.0 L 37.4732,-6.0 L 37.8759,-6.0 L 38.2786,-6.0 L 38.6814,-6.0 L 39.0841,-6.0" />
      <path d="M 40.085,4.9995 L 40.0712,5.0134 L 40.0573,5.0272 L 40.0434,5.0411 L 40.0295,5.055 L 40.0156,5.0689 L 40.0017,5.0828 L 39.9879,5.0967 L 39.974,5.1106 L 39.9601,5.1245 L 39.9462,5.1383 L 39.9323,5.1522 L 39.9184,5.1661 L 39.9045,5.18 L 39.8907,5.1939 L 39.8768,5.2078 L 39.8629,5.2217 L 39.849,5.2356 L 39.8351,5.2494 L 39.8212,5.2633 L 39.8074,5.2772 L 39.7935,5.2911 L 39.7796,5.305 L 39.7657,5.3189 L 39.7518,5.3328 L 39.7379,5.3467 L 39.7241,5.3605 L 39.7102,5.3744 L 39.6963,5.3883 L 39.6824,5.4022 L 39.6685,5.4161 L 39.6546,5.43 L 39.6407,5.4439 L 39.6269,5.4578 L 39.613,5.4716 L 39.5991,5.4855 L 39.5852,5.4994 L 39.5713,5.5133 L 39.5574,5.5272 L 39.5436,5.5411 L 39.5297,5.555 L 39.5158,5.5689 L 39.5019,5.5827 L 39.488,5.5966 L 39.4741,5.6105 L 39.4602,5.6244 L 39.4464,5.6383 L 39.4325,5.6522 L 39.4186,5.6661 L 39.4047,5.68 L 39.3908,5.6938 L 39.3769,5.7077 L 39.3631,5.7216 L 39.3492,5.7355 L 39.3353,5.7494 L 39.3214,5.7633 L 39.3075,5.7772 L 39.2936,5.7911 L 39.2797,5.8049 L 39.2659,5.8188 L 39.252,5.8327 L 39.2381,5.8466 L 39.2242,5.8605 L 39.2103,5.8744 L 39.1964,5.8883 L 39.1826,5.9022 L 39.1687,5.916 L 39.1548,5.9299 L 39.1409,5.9438 L 39.127,5.9577 L 39.1131,5.9716 L 39.0992,5.9855 L 39.0854,5.9994" />
      <path d="M 40.085,-4.9995 L 40.0712,-5.0134 L 40.0573,-5.0272 L 40.0434,-5.0411 L 40.0295,-5.055 L 40.0156,-5.0689 L 40.0017,-5.0828 L 39.9879,-5.0967 L 39.974,-5.1106 L 39.9601,-5.1245 L 39.9462,-5.1383 L 39.9323,-5.1522 L 39.9184,-5.1661 L 39.9045,-5.18 L 39.8907,-5.1939 L 39.8768,-5.2078 L 39.8629,-5.2217 L 39.849,-5.2356 L 39.8351,-5.2494 L 39.8212,-5.2633 L 39.8074,-5.2772 L 39.7935,-5.2911 L 39.7796,-5.305 L 39.7657,-5.3189 L 39.7518,-5.3328 L 39.7379,-5.3467 L 39.7241,-5.3605 L 39.7102,-5.3744 L 39.6963,-5.3883 L 39.6824,-5.4022 L 39.6685,-5.4161 L 39.6546,-5.43 L 39.6407,-5.4439 L 39.6269,-5.4578 L 39.613,-5.4716 L 39.5991,-5.4855 L 39.5852,-5.4994 L 39.5713,-5.5133 L 39.5574,-5.5272 L 39.5436,-5.5411 L 39.5297,-5.555 L 39.5158,-5.5689 L 39.5019,-5.5827 L 39.488,-5.5966 L 39.4741,-5.6105 L 39.4602,-5.6244 L 39.4464,-5.6383 L 39.4325,-5.6522 L 39.4186,-5.6661 L 39.4047,-5.68 L 39.3908,-5.6938 L 39.3769,-5.7077 L 39.3631,-5.7216 L 39.3492,-5.7355 L 39.3353,-5.7494 L 39.3214,-5.7633 L 39.3075,-5.7772 L 39.2936,-5.7911 L 39.2797,-5.8049 L 39.2659,-5.8188 L 39.252,-5.8327 L 39.2381,-5.8466 L 39.2242,-5.8605 L 39.2103,-5.8744 L 39.1964,-5.8883 L 39.1826,-5.9022 L 39.1687,-5.916 L 39.1548,-5.9299 L 39.1409,-5.9438 L 39.127,-5.9577 L 39.1131,-5.9716 L 39.0992,-5.9855 L 39.0854,-5.9994" />
    </g>
    <g fill="none" stroke="rgb(110,110,110)" stroke-width="0.3" id="Hidden" stroke-dasharray="3.6 0.9">
      <path d="M 0.0,6.0 L -0.5229,5.9772 L -1.0419,5.9088 L -1.5529,5.7956 L -2.0521,5.6382 L -2.5357,5.4378 L -3.0,5.1962 L -3.4415,4.9149 L -3.8567,4.5963 L -4.2426,4.2426 L -4.5963,3.8567 L -4.9149,3.4415 L -5.1962,3.0 L -5.4378,2.5357 L -5.6382,2.0521 L -5.7956,1.5529 L -5.9088,1.0419 L -5.9772,0.5229 L -6.0,-0.0 L -5.9772,-0.5229 L -5.9088,-1.0419 L -5.7956,-1.5529 L -5.6382,-2.0521 L -5.4378,-2.5357 L -5.1962,-3.0 L -4.9149,-3.4415 L -4.5963,-3.8567 L -4.2426,-4.2426 L -3.8567,-4.5963 L -3.4415,-4.9149 L -3.0,-5.1962 L -2.5357,-5.4378 L -2.0521,-5.6382 L -1.5529,-5.7956 L -1.0419,-5.9088 L -0.5229,-5.9772 L -0.0,-6.0 L 0.5229,-5.9772 L 1.0419,-5.9088 L 1.5529,-5.7956 L 2.0521,-5.6382 L 2.5357,-5.4378 L 3.0,-5.1962 L 3.4415,-4.9149 L 3.8567,-4.5963 L 4.2426,-4.2426 L 4.5963,-3.8567 L 4.9149,-3.4415 L 5.1962,-3.0 L 5.4378,-2.5357 L 5.6382,-2.0521 L 5.7956,-1.5529 L 5.9088,-1.0419 L 5.9772,-0.5229 L 6.0,0.0 L 5.9772,0.5229 L 5.9088,1.0419 L 5.7956,1.5529 L 5.6382,2.0521 L 5.4378,2.5357 L 5.1962,3.0 L 4.9149,3.4415 L 4.5963,3.8567 L 4.2426,4.2426 L 3.8567,4.5963 L 3.4415,4.9149 L 3.0,5.1962 L 2.5357,5.4378 L 2.0521,5.6382 L 1.5529,5.7956 L 1.0419,5.9088 L 0.5229,5.9772 L 0.0,6.0" />
      <path d="M 3.0,1.7321 L 2.9583,1.7561 L 2.9167,1.7802 L 2.875,1.8042 L 2.8333,1.8283 L 2.7917,1.8523 L 2.75,1.8764 L 2.7083,1.9004 L 2.6667,1.9245 L 2.625,1.9486 L 2.5833,1.9726 L 2.5417,1.9967 L 2.5,2.0207 L 2.4583,2.0448 L 2.4167,2.0688 L 2.375,2.0929 L 2.3333,2.117 L 2.2917,2.141 L 2.25,2.1651 L 2.2083,2.1891 L 2.1667,2.2132 L 2.125,2.2372 L 2.0833,2.2613 L 2.0417,2.2853 L 2.0,2.3094 L 1.9583,2.3335 L 1.9167,2.3575 L 1.875,2.3816 L 1.8333,2.4056 L 1.7917,2.4297 L 1.75,2.4537 L 1.7083,2.4778 L 1.6667,2.5019 L 1.625,2.5259 L 1.5833,2.55 L 1.5417,2.574 L 1.5,2.5981 L 1.4583,2.6221 L 1.4167,2.6462 L 1.375,2.6702 L 1.3333,2.6943 L 1.2917,2.7184 L 1.25,2.7424 L 1.2083,2.7665 L 1.1667,2.7905 L 1.125,2.8146 L 1.0833,2.8386 L 1.0417,2.8627 L 1.0,2.8868 L 0.9583,2.9108 L 0.9167,2.9349 L 0.875,2.9589 L 0.8333,2.983 L 0.7917,3.007 L 0.75,3.0311 L 0.7083,3.0551 L 0.6667,3.0792 L 0.625,3.1033 L 0.5833,3.1273 L 0.5417,3.1514 L 0.5,3.1754 L 0.4583,3.1995 L 0.4167,3.2235 L 0.375,3.2476 L 0.3333,3.2717 L 0.2917,3.2957 L 0.25,3.3198 L 0.2083,3.3438 L 0.1667,3.3679 L 0.125,3.3919 L 0.0833,3.416 L 0.0417,3.44 L 0.0,3.4641" />
      <path d="M 3.0,-1.7321 L 3.0,-1.6839 L 3.0,-1.6358 L 3.0,-1.5877 L 3.0,-1.5396 L 3.0,-1.4915 L 3.0,-1.4434 L 3.0,-1.3953 L 3.0,-1.3472 L 3.0,-1.299 L 3.0,-1.2509 L 3.0,-1.2028 L 3.0,-1.1547 L 3.0,-1.1066 L 3.0,-1.0585 L 3.0,-1.0104 L 3.0,-0.9623 L 3.0,-0.9141 L 3.0,-0.866 L 3.0,-0.8179 L 3.0,-0.7698 L 3.0,-0.7217 L 3.0,-0.6736 L 3.0,-0.6255 L 3.0,-0.5774 L 3.0,-0.5292 L 3.0,-0.4811 L 3.0,-0.433 L 3.0,-0.3849 L 3.0,-0.3368 L 3.0,-0.2887 L 3.0,-0.2406 L 3.0,-0.1925 L 3.0,-0.1443 L 3.0,-0.0962 L 3.0,-0.0481 L 3.0,0.0 L 3.0,0.0481 L 3.0,0.0962 L 3.0,0.1443 L 3.0,0.1925 L 3.0,0.2406 L 3.0,0.2887 L 3.0,0.3368 L 3.0,0.3849 L 3.0,0.433 L 3.0,0.4811 L 3.0,0.5292 L 3.0,0.5774 L 3.0,0.6255 L 3.0,0.6736 L 3.0,0.7217 L 3.0,0.7698 L 3.0,0.8179 L 3.0,0.866 L 3.0,0.9141 L 3.0,0.9623 L 3.0,1.0104 L 3.0,1.0585 L 3.0,1.1066 L 3.0,1.1547 L 3.0,1.2028 L 3.0,1.2509 L 3.0,1.299 L 3.0,1.3472 L 3.0,1.3953 L 3.0,1.4434 L 3.0,1.4915 L 3.0,1.5396 L 3.0,1.5877 L 3.0,1.6358 L 3.0,1.6839 L 3.0,1.7321" />
      <path d="M 0.0,-3.4641 L 0.0417,-3.44 L 0.0833,-3.416 L 0.125,-3.3919 L 0.1667,-3.3679 L 0.2083,-3.3438 L 0.25,-3.3198 L 0.2917,-3.2957 L 0.3333,-3.2717 L 0.375,-3.2476 L 0.4167,-3.2235 L 0.4583,-3.1995 L 0.5,-3.1754 L 0.5417,-3.1514 L 0.5833,-3.1273 L 0.625,-3.1033 L 0.6667,-3.0792 L 0.7083,-3.0551 L 0.75,-3.0311 L 0.7917,-3.007 L 0.8333,-2.983 L 0.875,-2.9589 L 0.9167,-2.9349 L 0.9583,-2.9108 L 1.0,-2.8868 L 1.0417,-2.8627 L 1.0833,-2.8386 L 1.125,-2.8146 L 1.1667,-2.7905 L 1.2083,-2.7665 L 1.25,-2.7424 L 1.2917,-2.7184 L 1.3333,-2.6943 L 1.375,-2.6702 L 1.4167,-2.6462 L 1.4583,-2.6221 L 1.5,-2.5981 L 1.5417,-2.574 L 1.5833,-2.55 L 1.625,-2.5259 L 1.6667,-2.5019 L 1.7083,-2.4778 L 1.75,-2.4537 L 1.7917,-2.4297 L 1.8333,-2.4056 L 1.875,-2.3816 L 1.9167,-2.3575 L 1.9583,-2.3335 L 2.0,-2.3094 L 2.0417,-2.2853 L 2.0833,-2.2613 L 2.125,-2.2372 L 2.1667,-2.2132 L 2.2083,-2.1891 L 2.25,-2.1651 L 2.2917,-2.141 L 2.3333,-2.117 L 2.375,-2.0929 L 2.4167,-2.0688 L 2.4583,-2.0448 L 2.5,-2.0207 L 2.5417,-1.9967 L 2.5833,-1.9726 L 2.625,-1.9486 L 2.6667,-1.9245 L 2.7083,-1.9004 L 2.75,-1.8764 L 2.7917,-1.8523 L 2.8333,-1.8283 L 2.875,-1.8042 L 2.9167,-1.7802 L 2.9583,-1.7561 L 3.0,-1.7321" />
      <path d="M -3.0,-1.7321 L -2.9583,-1.7561 L -2.9167,-1.7802 L -2.875,-1.8042 L -2.8333,-1.8283 L -2.7917,-1.8523 L -2.75,-1.8764 L -2.7083,-1.9004 L -2.6667,-1.9245 L -2.625,-1.9486 L -2.5833,-1.9726 L -2.5417,-1.9967 L -2.5,-2.0207 L -2.4583,-2.0448 L -2.4167,-2.0688 L -2.375,-2.0929 L -2.3333,-2.117 L -2.2917,-2.141 L -2.25,-2.1651 L -2.2083,-2.1891 L -2.1667,-2.2132 L -2.125,-2.2372 L -2.0833,-2.2613 L -2.0417,-2.2853 L -2.0,-2.3094 L -1.9583,-2.3335 L -1.9167,-2.3575 L -1.875,-2.3816 L -1.8333,-2.4056 L -1.7917,-2.4297 L -1.75,-2.4537 L -1.7083,-2.4778 L -1.6667,-2.5019 L -1.625,-2.5259 L -1.5833,-2.55 L -1.5417,-2.574 L -1.5,-2.5981 L -1.4583,-2.6221 L -1.4167,-2.6462 L -1.375,-2.6702 L -1.3333,-2.6943 L -1.2917,-2.7184 L -1.25,-2.7424 L -1.2083,-2.7665 L -1.1667,-2.7905 L -1.125,-2.8146 L -1.0833,-2.8386 L -1.0417,-2.8627 L -1.0,-2.8868 L -0.9583,-2.9108 L -0.9167,-2.9349 L -0.875,-2.9589 L -0.8333,-2.983 L -0.7917,-3.007 L -0.75,-3.0311 L -0.7083,-3.0551 L -0.6667,-3.0792 L -0.625,-3.1033 L -0.5833,-3.1273 L -0.5417,-3.1514 L -0.5,-3.1754 L -0.4583,-3.1995 L -0.4167,-3.2235 L -0.375,-3.2476 L -0.3333,-3.2717 L -0.2917,-3.2957 L -0.25,-3.3198 L -0.2083,-3.3438 L -0.1667,-3.3679 L -0.125,-3.3919 L -0.0833,-3.416 L -0.0417,-3.44 L -0.0,-3.4641" />
      <path d="M -3.0,1.7321 L -3.0,1.6839 L -3.0,1.6358 L -3.0,1.5877 L -3.0,1.5396 L -3.0,1.4915 L -3.0,1.4434 L -3.0,1.3953 L -3.0,1.3472 L -3.0,1.299 L -3.0,1.2509 L -3.0,1.2028 L -3.0,1.1547 L -3.0,1.1066 L -3.0,1.0585 L -3.0,1.0104 L -3.0,0.9623 L -3.0,0.9141 L -3.0,0.866 L -3.0,0.8179 L -3.0,0.7698 L -3.0,0.7217 L -3.0,0.6736 L -3.0,0.6255 L -3.0,0.5774 L -3.0,0.5292 L -3.0,0.4811 L -3.0,0.433 L -3.0,0.3849 L -3.0,0.3368 L -3.0,0.2887 L -3.0,0.2406 L -3.0,0.1925 L -3.0,0.1443 L -3.0,0.0962 L -3.0,0.0481 L -3.0,0.0 L -3.0,-0.0481 L -3.0,-0.0962 L -3.0,-0.1443 L -3.0,-0.1925 L -3.0,-0.2406 L -3.0,-0.2887 L -3.0,-0.3368 L -3.0,-0.3849 L -3.0,-0.433 L -3.0,-0.4811 L -3.0,-0.5292 L -3.0,-0.5774 L -3.0,-0.6255 L -3.0,-0.6736 L -3.0,-0.7217 L -3.0,-0.7698 L -3.0,-0.8179 L -3.0,-0.866 L -3.0,-0.9141 L -3.0,-0.9623 L -3.0,-1.0104 L -3.0,-1.0585 L -3.0,-1.1066 L -3.0,-1.1547 L -3.0,-1.2028 L -3.0,-1.2509 L -3.0,-1.299 L -3.0,-1.3472 L -3.0,-1.3953 L -3.0,-1.4434 L -3.0,-1.4915 L -3.0,-1.5396 L -3.0,-1.5877 L -3.0,-1.6358 L -3.0,-1.6839 L -3.0,-1.7321" />
      <path d="M 0.0,3.4641 L -0.0417,3.44 L -0.0833,3.416 L -0.125,3.3919 L -0.1667,3.3679 L -0.2083,3.3438 L -0.25,3.3198 L -0.2917,3.2957 L -0.3333,3.2717 L -0.375,3.2476 L -0.4167,3.2235 L -0.4583,3.1995 L -0.5,3.1754 L -0.5417,3.1514 L -0.5833,3.1273 L -0.625,3.1033 L -0.6667,3.0792 L -0.7083,3.0551 L -0.75,3.0311 L -0.7917,3.007 L -0.8333,2.983 L -0.875,2.9589 L -0.9167,2.9349 L -0.9583,2.9108 L -1.0,2.8868 L -1.0417,2.8627 L -1.0833,2.8386 L -1.125,2.8146 L -1.1667,2.7905 L -1.2083,2.7665 L -1.25,2.7424 L -1.2917,2.7184 L -1.3333,2.6943 L -1.375,2.6702 L -1.4167,2.6462 L -1.4583,2.6221 L -1.5,2.5981 L -1.5417,2.574 L -1.5833,2.55 L -1.625,2.5259 L -1.6667,2.5019 L -1.7083,2.4778 L -1.75,2.4537 L -1.7917,2.4297 L -1.8333,2.4056 L -1.875,2.3816 L -1.9167,2.3575 L -1.9583,2.3335 L -2.0,2.3094 L -2.0417,2.2853 L -2.0833,2.2613 L -2.125,2.2372 L -2.1667,2.2132 L -2.2083,2.1891 L -2.25,2.1651 L -2.2917,2.141 L -2.3333,2.117 L -2.375,2.0929 L -2.4167,2.0688 L -2.4583,2.0448 L -2.5,2.0207 L -2.5417,1.9967 L -2.5833,1.9726 L -2.625,1.9486 L -2.6667,1.9245 L -2.7083,1.9004 L -2.75,1.8764 L -2.7917,1.8523 L -2.8333,1.8283 L -2.875,1.8042 L -2.9167,1.7802 L -2.9583,1.7561 L -3.0,1.7321" />
      <path d="M 0.0,5.0 L -0.4358,4.981 L -0.8682,4.924 L -1.2941,4.8296 L -1.7101,4.6985 L -2.1131,4.5315 L -2.5,4.3301 L -2.8679,4.0958 L -3.2139,3.8302 L -3.5355,3.5355 L -3.8302,3.2139 L -4.0958,2.8679 L -4.3301,2.5 L -4.5315,2.1131 L -4.6985,1.7101 L -4.8296,1.2941 L -4.924,0.8682 L -4.981,0.4358 L -5.0,0.0 L -4.981,-0.4358 L -4.924,-0.8682 L -4.8296,-1.2941 L -4.6985,-1.7101 L -4.5315,-2.1131 L -4.3301,-2.5 L -4.0958,-2.8679 L -3.8302,-3.2139 L -3.5355,-3.5355 L -3.2139,-3.8302 L -2.8679,-4.0958 L -2.5,-4.3301 L -2.1131,-4.5315 L -1.7101,-4.6985 L -1.2941,-4.8296 L -0.8682,-4.924 L -0.4358,-4.981 L -0.0,-5.0 L 0.4358,-4.981 L 0.8682,-4.924 L 1.2941,-4.8296 L 1.7101,-4.6985 L 2.1131,-4.5315 L 2.5,-4.3301 L 2.8679,-4.0958 L 3.2139,-3.8302 L 3.5355,-3.5355 L 3.8302,-3.2139 L 4.0958,-2.8679 L 4.3301,-2.5 L 4.5315,-2.1131 L 4.6985,-1.7101 L 4.8296,-1.2941 L 4.924,-0.8682 L 4.981,-0.4358 L 5.0,-0.0 L 4.981,0.4358 L 4.924,0.8682 L 4.8296,1.2941 L 4.6985,1.7101 L 4.5315,2.1131 L 4.3301,2.5 L 4.0958,2.8679 L 3.8302,3.2139 L 3.5355,3.5355 L 3.2139,3.8302 L 2.8679,4.0958 L 2.5,4.3301 L 2.1131,4.5315 L 1.7101,4.6985 L 1.2941,4.8296 L 0.8682,4.924 L 0.4358,4.981 L 0.0,5.0" />
      <path d="M 10.0872,6.0 L 10.1074,5.8358 L 10.1157,5.6692 L 10.1219,5.5026 L 10.127,5.3359 L 10.1314,5.1692 L 10.1353,5.0025 L 10.1387,4.8358 L 10.1419,4.6691 L 10.1448,4.5024 L 10.1474,4.3357 L 10.1498,4.1689 L 10.1521,4.0022 L 10.1542,3.8355 L 10.1561,3.6687 L 10.1579,3.502 L 10.1596,3.3353 L 10.1612,3.1685 L 10.1626,3.0018 L 10.164,2.835 L 10.1652,2.6683 L 10.1664,2.5015 L 10.1674,2.3348 L 10.1684,2.168 L 10.1693,2.0013 L 10.1701,1.8346 L 10.1709,1.6678 L 10.1715,1.5011 L 10.1721,1.3343 L 10.1726,1.1676 L 10.1731,1.0008 L 10.1735,0.8341 L 10.1738,0.6673 L 10.174,0.5006 L 10.1742,0.3338 L 10.1743,0.1671 L 10.1743,0.0003 L 10.1743,-0.1664 L 10.1742,-0.3332 L 10.174,-0.4999 L 10.1738,-0.6667 L 10.1735,-0.8334 L 10.1731,-1.0002 L 10.1726,-1.1669 L 10.1721,-1.3337 L 10.1715,-1.5004 L 10.1709,-1.6672 L 10.1701,-1.8339 L 10.1693,-2.0007 L 10.1684,-2.1674 L 10.1674,-2.3342 L 10.1664,-2.5009 L 10.1652,-2.6676 L 10.164,-2.8344 L 10.1626,-3.0011 L 10.1612,-3.1679 L 10.1596,-3.3346 L 10.1579,-3.5014 L 10.1561,-3.6681 L 10.1542,-3.8348 L 10.1521,-4.0016 L 10.1498,-4.1683 L 10.1474,-4.335 L 10.1448,-4.5018 L 10.1419,-4.6685 L 10.1388,-4.8352 L 10.1353,-5.0019 L 10.1314,-5.1687 L 10.127,-5.3353 L 10.1219,-5.502 L 10.1157,-5.6687 L 10.1074,-5.8352 L 10.0872,-6.0" />
      <path d="M 10.0436,1.7321 L 10.0442,1.7561 L 10.0448,1.7802 L 10.0454,1.8042 L 10.046,1.8283 L 10.0466,1.8523 L 10.0472,1.8764 L 10.0478,1.9004 L 10.0484,1.9245 L 10.049,1.9486 L 10.0496,1.9726 L 10.0502,1.9967 L 10.0508,2.0207 L 10.0514,2.0448 L 10.0521,2.0688 L 10.0527,2.0929 L 10.0533,2.117 L 10.0539,2.141 L 10.0545,2.1651 L 10.0551,2.1891 L 10.0557,2.2132 L 10.0563,2.2372 L 10.0569,2.2613 L 10.0575,2.2853 L 10.0581,2.3094 L 10.0587,2.3335 L 10.0593,2.3575 L 10.0599,2.3816 L 10.0605,2.4056 L 10.0611,2.4297 L 10.0617,2.4537 L 10.0623,2.4778 L 10.0629,2.5019 L 10.0636,2.5259 L 10.0642,2.55 L 10.0648,2.574 L 10.0654,2.5981 L 10.066,2.6221 L 10.0666,2.6462 L 10.0672,2.6702 L 10.0678,2.6943 L 10.0684,2.7184 L 10.069,2.7424 L 10.0696,2.7665 L 10.0702,2.7905 L 10.0708,2.8146 L 10.0714,2.8386 L 10.072,2.8627 L 10.0726,2.8868 L 10.0732,2.9108 L 10.0738,2.9349 L 10.0744,2.9589 L 10.0751,2.983 L 10.0757,3.007 L 10.0763,3.0311 L 10.0769,3.0551 L 10.0775,3.0792 L 10.0781,3.1033 L 10.0787,3.1273 L 10.0793,3.1514 L 10.0799,3.1754 L 10.0805,3.1995 L 10.0811,3.2235 L 10.0817,3.2476 L 10.0823,3.2717 L 10.0829,3.2957 L 10.0835,3.3198 L 10.0841,3.3438 L 10.0847,3.3679 L 10.0853,3.3919 L 10.0859,3.416 L 10.0866,3.44 L 10.0872,3.4641" />
      <path d="M 10.0436,-1.7321 L 10.0436,-1.6839 L 10.0436,-1.6358 L 10.0436,-1.5877 L 10.0436,-1.5396 L 10.0436,-1.4915 L 10.0436,-1.4434 L 10.0436,-1.3953 L 10.0436,-1.3472 L 10.0436,-1.299 L 10.0436,-1.2509 L 10.0436,-1.2028 L 10.0436,-1.1547 L 10.0436,-1.1066 L 10.0436,-1.0585 L 10.0436,-1.0104 L 10.0436,-0.9623 L 10.0436,-0.9141 L 10.0436,-0.866 L 10.0436,-0.8179 L 10.0436,-0.7698 L 10.0436,-0.7217 L 10.0436,-0.6736 L 10.0436,-0.6255 L 10.0436,-0.5774 L 10.0436,-0.5292 L 10.0436,-0.4811 L 10.0436,-0.433 L 10.0436,-0.3849 L 10.0436,-0.3368 L 10.0436,-0.2887 L 10.0436,-0.2406 L 10.0436,-0.1925 L 10.0436,-0.1443 L 10.0436,-0.0962 L 10.0436,-0.0481 L 10.0436,0.0 L 10.0436,0.0481 L 10.0436,0.0962 L 10.0436,0.1443 L 10.0436,0.1925 L 10.0436,0.2406 L 10.0436,0.2887 L 10.0436,0.3368 L 10.0436,0.3849 L 10.0436,0.433 L 10.0436,0.4811 L 10.0436,0.5292 L 10.0436,0.5774 L 10.0436,0.6255 L 10.0436,0.6736 L 10.0436,0.7217 L 10.0436,0.7698 L 10.0436,0.8179 L 10.0436,0.866 L 10.0436,0.9141 L 10.0436,0.9623 L 10.0436,1.0104 L 10.0436,1.0585 L 10.0436,1.1066 L 10.0436,1.1547 L 10.0436,1.2028 L 10.0436,1.2509 L 10.0436,1.299 L 10.0436,1.3472 L 10.0436,1.3953 L 10.0436,1.4434 L 10.0436,1.4915 L 10.0436,1.5396 L 10.0436,1.5877 L 10.0436,1.6358 L 10.0436,1.6839 L 10.0436,1.7321" />
      <path d="M 10.0872,-3.4641 L 10.0866,-3.44 L 10.0859,-3.416 L 10.0853,-3.3919 L 10.0847,-3.3679 L 10.0841,-3.3438 L 10.0835,-3.3198 L 10.0829,-3.2957 L 10.0823,-3.2717 L 10.0817,-3.2476 L 10.0811,-3.2235 L 10.0805,-3.1995 L 10.0799,-3.1754 L 10.0793,-3.1514 L 10.0787,-3.1273 L 10.0781,-3.1033 L 10.0775,-3.0792 L 10.0769,-3.0551 L 10.0763,-3.0311 L 10.0757,-3.007 L 10.0751,-2.983 L 10.0744,-2.9589 L 10.0738,-2.9349 L 10.0732,-2.9108 L 10.0726,-2.8868 L 10.072,-2.8627 L 10.0714,-2.8386 L 10.0708,-2.8146 L 10.0702,-2.7905 L 10.0696,-2.7665 L 10.069,-2.7424 L 10.0684,-2.7184 L 10.0678,-2.6943 L 10.0672,-2.6702 L 10.0666,-2.6462 L 10.066,-2.6221 L 10.0654,-2.5981 L 10.0648,-2.574 L 10.0642,-2.55 L 10.0636,-2.5259 L 10.0629,-2.5019 L 10.0623,-2.4778 L 10.0617,-2.4537 L 10.0611,-2.4297 L 10.0605,-2.4056 L 10.0599,-2.3816 L 10.0593,-2.3575 L 10.0587,-2.3335 L 10.0581,-2.3094 L 10.0575,-2.2853 L 10.0569,-2.2613 L 10.0563,-2.2372 L 10.0557,-2.2132 L 10.0551,-2.1891 L 10.0545,-2.1651 L 10.0539,-2.141 L 10.0533,-2.117 L 10.0527,-2.0929 L 10.0521,-2.0688 L 10.0514,-2.0448 L 10.0508,-2.0207 L 10.0502,-1.9967 L 10.0496,-1.9726 L 10.049,-1.9486 L 10.0484,-1.9245 L 10.0478,-1.9004 L 10.0472,-1.8764 L 10.0466,-1.8523 L 10.046,-1.8283 L 10.0454,-1.8042 L 10.0448,-1.7802 L 10.0442,-1.7561 L 10.0436,-1.7321" />
      <path d="M 10.1307,-1.7321 L 10.1301,-1.7561 L 10.1295,-1.7802 L 10.1289,-1.8042 L 10.1283,-1.8283 L 10.1277,-1.8523 L 10.1271,-1.8764 L 10.1265,-1.9004 L 10.1259,-1.9245 L 10.1253,-1.9486 L 10.1247,-1.9726 L 10.1241,-1.9967 L 10.1235,-2.0207 L 10.1229,-2.0448 L 10.1223,-2.0688 L 10.1217,-2.0929 L 10.1211,-2.117 L 10.1204,-2.141 L 10.1198,-2.1651 L 10.1192,-2.1891 L 10.1186,-2.2132 L 10.118,-2.2372 L 10.1174,-2.2613 L 10.1168,-2.2853 L 10.1162,-2.3094 L 10.1156,-2.3335 L 10.115,-2.3575 L 10.1144,-2.3816 L 10.1138,-2.4056 L 10.1132,-2.4297 L 10.1126,-2.4537 L 10.112,-2.4778 L 10.1114,-2.5019 L 10.1108,-2.5259 L 10.1102,-2.55 L 10.1096,-2.574 L 10.1089,-2.5981 L 10.1083,-2.6221 L 10.1077,-2.6462 L 10.1071,-2.6702 L 10.1065,-2.6943 L 10.1059,-2.7184 L 10.1053,-2.7424 L 10.1047,-2.7665 L 10.1041,-2.7905 L 10.1035,-2.8146 L 10.1029,-2.8386 L 10.1023,-2.8627 L 10.1017,-2.8868 L 10.1011,-2.9108 L 10.1005,-2.9349 L 10.0999,-2.9589 L 10.0993,-2.983 L 10.0987,-3.007 L 10.0981,-3.0311 L 10.0974,-3.0551 L 10.0968,-3.0792 L 10.0962,-3.1033 L 10.0956,-3.1273 L 10.095,-3.1514 L 10.0944,-3.1754 L 10.0938,-3.1995 L 10.0932,-3.2235 L 10.0926,-3.2476 L 10.092,-3.2717 L 10.0914,-3.2957 L 10.0908,-3.3198 L 10.0902,-3.3438 L 10.0896,-3.3679 L 10.089,-3.3919 L 10.0884,-3.416 L 10.0878,-3.44 L 10.0872,-3.4641" />
      <path d="M 10.1307,1.7321 L 10.1307,1.6839 L 10.1307,1.6358 L 10.1307,1.5877 L 10.1307,1.5396 L 10.1307,1.4915 L 10.1307,1.4434 L 10.1307,1.3953 L 10.1307,1.3472 L 10.1307,1.299 L 10.1307,1.2509 L 10.1307,1.2028 L 10.1307,1.1547 L 10.1307,1.1066 L 10.1307,1.0585 L 10.1307,1.0104 L 10.1307,0.9623 L 10.1307,0.9141 L 10.1307,0.866 L 10.1307,0.8179 L 10.1307,0.7698 L 10.1307,0.7217 L 10.1307,0.6736 L 10.1307,0.6255 L 10.1307,0.5774 L 10.1307,0.5292 L 10.1307,0.4811 L 10.1307,0.433 L 10.1307,0.3849 L 10.1307,0.3368 L 10.1307,0.2887 L 10.1307,0.2406 L 10.1307,0.1925 L 10.1307,0.1443 L 10.1307,0.0962 L 10.1307,0.0481 L 10.1307,0.0 L 10.1307,-0.0481 L 10.1307,-0.0962 L 10.1307,-0.1443 L 10.1307,-0.1925 L 10.1307,-0.2406 L 10.1307,-0.2887 L 10.1307,-0.3368 L 10.1307,-0.3849 L 10.1307,-0.433 L 10.1307,-0.4811 L 10.1307,-0.5292 L 10.1307,-0.5774 L 10.1307,-0.6255 L 10.1307,-0.6736 L 10.1307,-0.7217 L 10.1307,-0.7698 L 10.1307,-0.8179 L 10.1307,-0.866 L 10.1307,-0.9141 L 10.1307,-0.9623 L 10.1307,-1.0104 L 10.1307,-1.0585 L 10.1307,-1.1066 L 10.1307,-1.1547 L 10.1307,-1.2028 L 10.1307,-1.2509 L 10.1307,-1.299 L 10.1307,-1.3472 L 10.1307,-1.3953 L 10.1307,-1.4434 L 10.1307,-1.4915 L 10.1307,-1.5396 L 10.1307,-1.5877 L 10.1307,-1.6358 L 10.1307,-1.6839 L 10.1307,-1.7321" />
      <path d="M 10.0872,3.4641 L 10.0878,3.44 L 10.0884,3.416 L 10.089,3.3919 L 10.0896,3.3679 L 10.0902,3.3438 L 10.0908,3.3198 L 10.0914,3.2957 L 10.092,3.2717 L 10.0926,3.2476 L 10.0932,3.2235 L 10.0938,3.1995 L 10.0944,3.1754 L 10.095,3.1514 L 10.0956,3.1273 L 10.0962,3.1033 L 10.0968,3.0792 L 10.0974,3.0551 L 10.0981,3.0311 L 10.0987,3.007 L 10.0993,2.983 L 10.0999,2.9589 L 10.1005,2.9349 L 10.1011,2.9108 L 10.1017,2.8868 L 10.1023,2.8627 L 10.1029,2.8386 L 10.1035,2.8146 L 10.1041,2.7905 L 10.1047,2.7665 L 10.1053,2.7424 L 10.1059,2.7184 L 10.1065,2.6943 L 10.1071,2.6702 L 10.1077,2.6462 L 10.1083,2.6221 L 10.1089,2.5981 L 10.1096,2.574 L 10.1102,2.55 L 10.1108,2.5259 L 10.1114,2.5019 L 10.112,2.4778 L 10.1126,2.4537 L 10.1132,2.4297 L 10.1138,2.4056 L 10.1144,2.3816 L 10.115,2.3575 L 10.1156,2.3335 L 10.1162,2.3094 L 10.1168,2.2853 L 10.1174,2.2613 L 10.118,2.2372 L 10.1186,2.2132 L 10.1192,2.1891 L 10.1198,2.1651 L 10.1204,2.141 L 10.1211,2.117 L 10.1217,2.0929 L 10.1223,2.0688 L 10.1229,2.0448 L 10.1235,2.0207 L 10.1241,1.9967 L 10.1247,1.9726 L 10.1253,1.9486 L 10.1259,1.9245 L 10.1265,1.9004 L 10.1271,1.8764 L 10.1277,1.8523 L 10.1283,1.8283 L 10.1289,1.8042 L 10.1295,1.7802 L 10.1301,1.7561 L 10.1307,1.7321" />
      <path d="M 39.0854,5.9994 L 39.1044,5.8343 L 39.1127,5.6678 L 39.1189,5.5012 L 39.124,5.3346 L 39.1284,5.1679 L 39.1322,5.0013 L 39.1357,4.8346 L 39.1389,4.6679 L 39.1417,4.5012 L 39.1444,4.3345 L 39.1468,4.1678 L 39.149,4.0011 L 39.1511,3.8344 L 39.1531,3.6677 L 39.1549,3.501 L 39.1566,3.3343 L 39.1581,3.1676 L 39.1596,3.0009 L 39.1609,2.8342 L 39.1622,2.6675 L 39.1633,2.5008 L 39.1644,2.3341 L 39.1654,2.1674 L 39.1663,2.0007 L 39.1671,1.834 L 39.1678,1.6672 L 39.1685,1.5005 L 39.1691,1.3338 L 39.1696,1.1671 L 39.17,1.0004 L 39.1704,0.8337 L 39.1707,0.667 L 39.171,0.5002 L 39.1711,0.3335 L 39.1712,0.1668 L 39.1713,0.0001 L 39.1712,-0.1666 L 39.1711,-0.3333 L 39.171,-0.5 L 39.1707,-0.6667 L 39.1704,-0.8335 L 39.17,-1.0002 L 39.1696,-1.1669 L 39.1691,-1.3336 L 39.1685,-1.5003 L 39.1678,-1.667 L 39.1671,-1.8337 L 39.1663,-2.0005 L 39.1654,-2.1672 L 39.1644,-2.3339 L 39.1633,-2.5006 L 39.1622,-2.6673 L 39.1609,-2.834 L 39.1596,-3.0007 L 39.1581,-3.1674 L 39.1566,-3.3341 L 39.1549,-3.5008 L 39.1531,-3.6675 L 39.1511,-3.8342 L 39.149,-4.0009 L 39.1468,-4.1676 L 39.1444,-4.3343 L 39.1417,-4.501 L 39.1389,-4.6677 L 39.1357,-4.8344 L 39.1323,-5.0011 L 39.1284,-5.1678 L 39.124,-5.3344 L 39.1189,-5.5011 L 39.1127,-5.6677 L 39.1044,-5.8342 L 39.0854,-5.9994" />
      <path d="M 14.5431,1.7321 L 14.5437,1.7561 L 14.5443,1.7802 L 14.5449,1.8042 L 14.5455,1.8283 L 14.5461,1.8523 L 14.5467,1.8764 L 14.5473,1.9004 L 14.5479,1.9245 L 14.5486,1.9486 L 14.5492,1.9726 L 14.5498,1.9967 L 14.5504,2.0207 L 14.551,2.0448 L 14.5516,2.0688 L 14.5522,2.0929 L 14.5528,2.117 L 14.5534,2.141 L 14.554,2.1651 L 14.5546,2.1891 L 14.5552,2.2132 L 14.5558,2.2372 L 14.5564,2.2613 L 14.557,2.2853 L 14.5576,2.3094 L 14.5582,2.3335 L 14.5588,2.3575 L 14.5594,2.3816 L 14.5601,2.4056 L 14.5607,2.4297 L 14.5613,2.4537 L 14.5619,2.4778 L 14.5625,2.5019 L 14.5631,2.5259 L 14.5637,2.55 L 14.5643,2.574 L 14.5649,2.5981 L 14.5655,2.6221 L 14.5661,2.6462 L 14.5667,2.6702 L 14.5673,2.6943 L 14.5679,2.7184 L 14.5685,2.7424 L 14.5691,2.7665 L 14.5697,2.7905 L 14.5703,2.8146 L 14.5709,2.8386 L 14.5716,2.8627 L 14.5722,2.8868 L 14.5728,2.9108 L 14.5734,2.9349 L 14.574,2.9589 L 14.5746,2.983 L 14.5752,3.007 L 14.5758,3.0311 L 14.5764,3.0551 L 14.577,3.0792 L 14.5776,3.1033 L 14.5782,3.1273 L 14.5788,3.1514 L 14.5794,3.1754 L 14.58,3.1995 L 14.5806,3.2235 L 14.5812,3.2476 L 14.5818,3.2717 L 14.5824,3.2957 L 14.5831,3.3198 L 14.5837,3.3438 L 14.5843,3.3679 L 14.5849,3.3919 L 14.5855,3.416 L 14.5861,3.44 L 14.5867,3.4641" />
      <path d="M 14.5867,3.4641 L 14.5242,3.4641 L 14.4617,3.4641 L 14.3992,3.4641 L 14.3367,3.4641 L 14.2742,3.4641 L 14.2117,3.4641 L 14.1492,3.4641 L 14.0867,3.4641 L 14.0242,3.4641 L 13.9617,3.4641 L 13.8993,3.4641 L 13.8368,3.4641 L 13.7743,3.4641 L 13.7118,3.4641 L 13.6493,3.4641 L 13.5868,3.4641 L 13.5243,3.4641 L 13.4618,3.4641 L 13.3993,3.4641 L 13.3368,3.4641 L 13.2743,3.4641 L 13.2118,3.4641 L 13.1493,3.4641 L 13.0868,3.4641 L 13.0243,3.4641 L 12.9619,3.4641 L 12.8994,3.4641 L 12.8369,3.4641 L 12.7744,3.4641 L 12.7119,3.4641 L 12.6494,3.4641 L 12.5869,3.4641 L 12.5244,3.4641 L 12.4619,3.4641 L 12.3994,3.4641 L 12.3369,3.4641 L 12.2744,3.4641 L 12.2119,3.4641 L 12.1494,3.4641 L 12.0869,3.4641 L 12.0245,3.4641 L 11.962,3.4641 L 11.8995,3.4641 L 11.837,3.4641 L 11.7745,3.4641 L 11.712,3.4641 L 11.6495,3.4641 L 11.587,3.4641 L 11.5245,3.4641 L 11.462,3.4641 L 11.3995,3.4641 L 11.337,3.4641 L 11.2745,3.4641 L 11.212,3.4641 L 11.1495,3.4641 L 11.0871,3.4641 L 11.0246,3.4641 L 10.9621,3.4641 L 10.8996,3.4641 L 10.8371,3.4641 L 10.7746,3.4641 L 10.7121,3.4641 L 10.6496,3.4641 L 10.5871,3.4641 L 10.5246,3.4641 L 10.4621,3.4641 L 10.3996,3.4641 L 10.3371,3.4641 L 10.2746,3.4641 L 10.2121,3.4641 L 10.1497,3.4641 L 10.0872,3.4641" />
      <path d="M 14.5431,1.7321 L 14.4806,1.7321 L 14.4181,1.7321 L 14.3556,1.7321 L 14.2931,1.7321 L 14.2306,1.7321 L 14.1681,1.7321 L 14.1056,1.7321 L 14.0432,1.7321 L 13.9807,1.7321 L 13.9182,1.7321 L 13.8557,1.7321 L 13.7932,1.7321 L 13.7307,1.7321 L 13.6682,1.7321 L 13.6057,1.7321 L 13.5432,1.7321 L 13.4807,1.7321 L 13.4182,1.7321 L 13.3557,1.7321 L 13.2932,1.7321 L 13.2307,1.7321 L 13.1682,1.7321 L 13.1058,1.7321 L 13.0433,1.7321 L 12.9808,1.7321 L 12.9183,1.7321 L 12.8558,1.7321 L 12.7933,1.7321 L 12.7308,1.7321 L 12.6683,1.7321 L 12.6058,1.7321 L 12.5433,1.7321 L 12.4808,1.7321 L 12.4183,1.7321 L 12.3558,1.7321 L 12.2933,1.7321 L 12.2308,1.7321 L 12.1684,1.7321 L 12.1059,1.7321 L 12.0434,1.7321 L 11.9809,1.7321 L 11.9184,1.7321 L 11.8559,1.7321 L 11.7934,1.7321 L 11.7309,1.7321 L 11.6684,1.7321 L 11.6059,1.7321 L 11.5434,1.7321 L 11.4809,1.7321 L 11.4184,1.7321 L 11.3559,1.7321 L 11.2934,1.7321 L 11.231,1.7321 L 11.1685,1.7321 L 11.106,1.7321 L 11.0435,1.7321 L 10.981,1.7321 L 10.9185,1.7321 L 10.856,1.7321 L 10.7935,1.7321 L 10.731,1.7321 L 10.6685,1.7321 L 10.606,1.7321 L 10.5435,1.7321 L 10.481,1.7321 L 10.4185,1.7321 L 10.356,1.7321 L 10.2936,1.7321 L 10.2311,1.7321 L 10.1686,1.7321 L 10.1061,1.7321 L 10.0436,1.7321" />
      <path d="M 14.5431,-1.7321 L 14.5431,-1.6839 L 14.5431,-1.6358 L 14.5431,-1.5877 L 14.5431,-1.5396 L 14.5431,-1.4915 L 14.5431,-1.4434 L 14.5431,-1.3953 L 14.5431,-1.3472 L 14.5431,-1.299 L 14.5431,-1.2509 L 14.5431,-1.2028 L 14.5431,-1.1547 L 14.5431,-1.1066 L 14.5431,-1.0585 L 14.5431,-1.0104 L 14.5431,-0.9623 L 14.5431,-0.9141 L 14.5431,-0.866 L 14.5431,-0.8179 L 14.5431,-0.7698 L 14.5431,-0.7217 L 14.5431,-0.6736 L 14.5431,-0.6255 L 14.5431,-0.5774 L 14.5431,-0.5292 L 14.5431,-0.4811 L 14.5431,-0.433 L 14.5431,-0.3849 L 14.5431,-0.3368 L 14.5431,-0.2887 L 14.5431,-0.2406 L 14.5431,-0.1925 L 14.5431,-0.1443 L 14.5431,-0.0962 L 14.5431,-0.0481 L 14.5431,0.0 L 14.5431,0.0481 L 14.5431,0.0962 L 14.5431,0.1443 L 14.5431,0.1925 L 14.5431,0.2406 L 14.5431,0.2887 L 14.5431,0.3368 L 14.5431,0.3849 L 14.5431,0.433 L 14.5431,0.4811 L 14.5431,0.5292 L 14.5431,0.5774 L 14.5431,0.6255 L 14.5431,0.6736 L 14.5431,0.7217 L 14.5431,0.7698 L 14.5431,0.8179 L 14.5431,0.866 L 14.5431,0.9141 L 14.5431,0.9623 L 14.5431,1.0104 L 14.5431,1.0585 L 14.5431,1.1066 L 14.5431,1.1547 L 14.5431,1.2028 L 14.5431,1.2509 L 14.5431,1.299 L 14.5431,1.3472 L 14.5431,1.3953 L 14.5431,1.4434 L 14.5431,1.4915 L 14.5431,1.5396 L 14.5431,1.5877 L 14.5431,1.6358 L 14.5431,1.6839 L 14.5431,1.7321" />
      <path d="M 14.5431,-1.7321 L 14.4806,-1.7321 L 14.4181,-1.7321 L 14.3556,-1.7321 L 14.2931,-1.7321 L 14.2306,-1.7321 L 14.1681,-1.7321 L 14.1056,-1.7321 L 14.0432,-1.7321 L 13.9807,-1.7321 L 13.9182,-1.7321 L 13.8557,-1.7321 L 13.7932,-1.7321 L 13.7307,-1.7321 L 13.6682,-1.7321 L 13.6057,-1.7321 L 13.5432,-1.7321 L 13.4807,-1.7321 L 13.4182,-1.7321 L 13.3557,-1.7321 L 13.2932,-1.7321 L 13.2307,-1.7321 L 13.1682,-1.7321 L 13.1058,-1.7321 L 13.0433,-1.7321 L 12.9808,-1.7321 L 12.9183,-1.7321 L 12.8558,-1.7321 L 12.7933,-1.7321 L 12.7308,-1.7321 L 12.6683,-1.7321 L 12.6058,-1.7321 L 12.5433,-1.7321 L 12.4808,-1.7321 L 12.4183,-1.7321 L 12.3558,-1.7321 L 12.2933,-1.7321 L 12.2308,-1.7321 L 12.1684,-1.7321 L 12.1059,-1.7321 L 12.0434,-1.7321 L 11.9809,-1.7321 L 11.9184,-1.7321 L 11.8559,-1.7321 L 11.7934,-1.7321 L 11.7309,-1.7321 L 11.6684,-1.7321 L 11.6059,-1.7321 L 11.5434,-1.7321 L 11.4809,-1.7321 L 11.4184,-1.7321 L 11.3559,-1.7321 L 11.2934,-1.7321 L 11.231,-1.7321 L 11.1685,-1.7321 L 11.106,-1.7321 L 11.0435,-1.7321 L 10.981,-1.7321 L 10.9185,-1.7321 L 10.856,-1.7321 L 10.7935,-1.7321 L 10.731,-1.7321 L 10.6685,-1.7321 L 10.606,-1.7321 L 10.5435,-1.7321 L 10.481,-1.7321 L 10.4185,-1.7321 L 10.356,-1.7321 L 10.2936,-1.7321 L 10.2311,-1.7321 L 10.1686,-1.7321 L 10.1061,-1.7321 L 10.0436,-1.7321" />
      <path d="M 14.5867,-3.4641 L 14.5861,-3.44 L 14.5855,-3.416 L 14.5849,-3.3919 L 14.5843,-3.3679 L 14.5837,-3.3438 L 14.5831,-3.3198 L 14.5824,-3.2957 L 14.5818,-3.2717 L 14.5812,-3.2476 L 14.5806,-3.2235 L 14.58,-3.1995 L 14.5794,-3.1754 L 14.5788,-3.1514 L 14.5782,-3.1273 L 14.5776,-3.1033 L 14.577,-3.0792 L 14.5764,-3.0551 L 14.5758,-3.0311 L 14.5752,-3.007 L 14.5746,-2.983 L 14.574,-2.9589 L 14.5734,-2.9349 L 14.5728,-2.9108 L 14.5722,-2.8868 L 14.5716,-2.8627 L 14.5709,-2.8386 L 14.5703,-2.8146 L 14.5697,-2.7905 L 14.5691,-2.7665 L 14.5685,-2.7424 L 14.5679,-2.7184 L 14.5673,-2.6943 L 14.5667,-2.6702 L 14.5661,-2.6462 L 14.5655,-2.6221 L 14.5649,-2.5981 L 14.5643,-2.574 L 14.5637,-2.55 L 14.5631,-2.5259 L 14.5625,-2.5019 L 14.5619,-2.4778 L 14.5613,-2.4537 L 14.5607,-2.4297 L 14.5601,-2.4056 L 14.5594,-2.3816 L 14.5588,-2.3575 L 14.5582,-2.3335 L 14.5576,-2.3094 L 14.557,-2.2853 L 14.5564,-2.2613 L 14.5558,-2.2372 L 14.5552,-2.2132 L 14.5546,-2.1891 L 14.554,-2.1651 L 14.5534,-2.141 L 14.5528,-2.117 L 14.5522,-2.0929 L 14.5516,-2.0688 L 14.551,-2.0448 L 14.5504,-2.0207 L 14.5498,-1.9967 L 14.5492,-1.9726 L 14.5486,-1.9486 L 14.5479,-1.9245 L 14.5473,-1.9004 L 14.5467,-1.8764 L 14.5461,-1.8523 L 14.5455,-1.8283 L 14.5449,-1.8042 L 14.5443,-1.7802 L 14.5437,-1.7561 L 14.5431,-1.7321" />
      <path d="M 14.5867,-3.4641 L 14.5242,-3.4641 L 14.4617,-3.4641 L 14.3992,-3.4641 L 14.3367,-3.4641 L 14.2742,-3.4641 L 14.2117,-3.4641 L 14.1492,-3.4641 L 14.0867,-3.4641 L 14.0242,-3.4641 L 13.9617,-3.4641 L 13.8993,-3.4641 L 13.8368,-3.4641 L 13.7743,-3.4641 L 13.7118,-3.4641 L 13.6493,-3.4641 L 13.5868,-3.4641 L 13.5243,-3.4641 L 13.4618,-3.4641 L 13.3993,-3.4641 L 13.3368,-3.4641 L 13.2743,-3.4641 L 13.2118,-3.4641 L 13.1493,-3.4641 L 13.0868,-3.4641 L 13.0243,-3.4641 L 12.9619,-3.4641 L 12.8994,-3.4641 L 12.8369,-3.4641 L 12.7744,-3.4641 L 12.7119,-3.4641 L 12.6494,-3.4641 L 12.5869,-3.4641 L 12.5244,-3.4641 L 12.4619,-3.4641 L 12.3994,-3.4641 L 12.3369,-3.4641 L 12.2744,-3.4641 L 12.2119,-3.4641 L 12.1494,-3.4641 L 12.0869,-3.4641 L 12.0245,-3.4641 L 11.962,-3.4641 L 11.8995,-3.4641 L 11.837,-3.4641 L 11.7745,-3.4641 L 11.712,-3.4641 L 11.6495,-3.4641 L 11.587,-3.4641 L 11.5245,-3.4641 L 11.462,-3.4641 L 11.3995,-3.4641 L 11.337,-3.4641 L 11.2745,-3.4641 L 11.212,-3.4641 L 11.1495,-3.4641 L 11.0871,-3.4641 L 11.0246,-3.4641 L 10.9621,-3.4641 L 10.8996,-3.4641 L 10.8371,-3.4641 L 10.7746,-3.4641 L 10.7121,-3.4641 L 10.6496,-3.4641 L 10.5871,-3.4641 L 10.5246,-3.4641 L 10.4621,-3.4641 L 10.3996,-3.4641 L 10.3371,-3.4641 L 10.2746,-3.4641 L 10.2121,-3.4641 L 10.1497,-3.4641 L 10.0872,-3.4641" />
      <path d="M 14.6303,-1.7321 L 14.6297,-1.7561 L 14.6291,-1.7802 L 14.6284,-1.8042 L 14.6278,-1.8283 L 14.6272,-1.8523 L 14.6266,-1.8764 L 14.626,-1.9004 L 14.6254,-1.9245 L 14.6248,-1.9486 L 14.6242,-1.9726 L 14.6236,-1.9967 L 14.623,-2.0207 L 14.6224,-2.0448 L 14.6218,-2.0688 L 14.6212,-2.0929 L 14.6206,-2.117 L 14.62,-2.141 L 14.6194,-2.1651 L 14.6188,-2.1891 L 14.6182,-2.2132 L 14.6176,-2.2372 L 14.6169,-2.2613 L 14.6163,-2.2853 L 14.6157,-2.3094 L 14.6151,-2.3335 L 14.6145,-2.3575 L 14.6139,-2.3816 L 14.6133,-2.4056 L 14.6127,-2.4297 L 14.6121,-2.4537 L 14.6115,-2.4778 L 14.6109,-2.5019 L 14.6103,-2.5259 L 14.6097,-2.55 L 14.6091,-2.574 L 14.6085,-2.5981 L 14.6079,-2.6221 L 14.6073,-2.6462 L 14.6067,-2.6702 L 14.6061,-2.6943 L 14.6054,-2.7184 L 14.6048,-2.7424 L 14.6042,-2.7665 L 14.6036,-2.7905 L 14.603,-2.8146 L 14.6024,-2.8386 L 14.6018,-2.8627 L 14.6012,-2.8868 L 14.6006,-2.9108 L 14.6,-2.9349 L 14.5994,-2.9589 L 14.5988,-2.983 L 14.5982,-3.007 L 14.5976,-3.0311 L 14.597,-3.0551 L 14.5964,-3.0792 L 14.5958,-3.1033 L 14.5952,-3.1273 L 14.5946,-3.1514 L 14.5939,-3.1754 L 14.5933,-3.1995 L 14.5927,-3.2235 L 14.5921,-3.2476 L 14.5915,-3.2717 L 14.5909,-3.2957 L 14.5903,-3.3198 L 14.5897,-3.3438 L 14.5891,-3.3679 L 14.5885,-3.3919 L 14.5879,-3.416 L 14.5873,-3.44 L 14.5867,-3.4641" />
      <path d="M 14.6303,-1.7321 L 14.5678,-1.7321 L 14.5053,-1.7321 L 14.4428,-1.7321 L 14.3803,-1.7321 L 14.3178,-1.7321 L 14.2553,-1.7321 L 14.1928,-1.7321 L 14.1303,-1.7321 L 14.0678,-1.7321 L 14.0053,-1.7321 L 13.9428,-1.7321 L 13.8803,-1.7321 L 13.8178,-1.7321 L 13.7554,-1.7321 L 13.6929,-1.7321 L 13.6304,-1.7321 L 13.5679,-1.7321 L 13.5054,-1.7321 L 13.4429,-1.7321 L 13.3804,-1.7321 L 13.3179,-1.7321 L 13.2554,-1.7321 L 13.1929,-1.7321 L 13.1304,-1.7321 L 13.0679,-1.7321 L 13.0054,-1.7321 L 12.9429,-1.7321 L 12.8804,-1.7321 L 12.818,-1.7321 L 12.7555,-1.7321 L 12.693,-1.7321 L 12.6305,-1.7321 L 12.568,-1.7321 L 12.5055,-1.7321 L 12.443,-1.7321 L 12.3805,-1.7321 L 12.318,-1.7321 L 12.2555,-1.7321 L 12.193,-1.7321 L 12.1305,-1.7321 L 12.068,-1.7321 L 12.0055,-1.7321 L 11.943,-1.7321 L 11.8806,-1.7321 L 11.8181,-1.7321 L 11.7556,-1.7321 L 11.6931,-1.7321 L 11.6306,-1.7321 L 11.5681,-1.7321 L 11.5056,-1.7321 L 11.4431,-1.7321 L 11.3806,-1.7321 L 11.3181,-1.7321 L 11.2556,-1.7321 L 11.1931,-1.7321 L 11.1306,-1.7321 L 11.0681,-1.7321 L 11.0056,-1.7321 L 10.9431,-1.7321 L 10.8807,-1.7321 L 10.8182,-1.7321 L 10.7557,-1.7321 L 10.6932,-1.7321 L 10.6307,-1.7321 L 10.5682,-1.7321 L 10.5057,-1.7321 L 10.4432,-1.7321 L 10.3807,-1.7321 L 10.3182,-1.7321 L 10.2557,-1.7321 L 10.1932,-1.7321 L 10.1307,-1.7321" />
      <path d="M 14.6303,1.7321 L 14.6303,1.6839 L 14.6303,1.6358 L 14.6303,1.5877 L 14.6303,1.5396 L 14.6303,1.4915 L 14.6303,1.4434 L 14.6303,1.3953 L 14.6303,1.3472 L 14.6303,1.299 L 14.6303,1.2509 L 14.6303,1.2028 L 14.6303,1.1547 L 14.6303,1.1066 L 14.6303,1.0585 L 14.6303,1.0104 L 14.6303,0.9623 L 14.6303,0.9141 L 14.6303,0.866 L 14.6303,0.8179 L 14.6303,0.7698 L 14.6303,0.7217 L 14.6303,0.6736 L 14.6303,0.6255 L 14.6303,0.5774 L 14.6303,0.5292 L 14.6303,0.4811 L 14.6303,0.433 L 14.6303,0.3849 L 14.6303,0.3368 L 14.6303,0.2887 L 14.6303,0.2406 L 14.6303,0.1925 L 14.6303,0.1443 L 14.6303,0.0962 L 14.6303,0.0481 L 14.6303,0.0 L 14.6303,-0.0481 L 14.6303,-0.0962 L 14.6303,-0.1443 L 14.6303,-0.1925 L 14.6303,-0.2406 L 14.6303,-0.2887 L 14.6303,-0.3368 L 14.6303,-0.3849 L 14.6303,-0.433 L 14.6303,-0.4811 L 14.6303,-0.5292 L 14.6303,-0.5774 L 14.6303,-0.6255 L 14.6303,-0.6736 L 14.6303,-0.7217 L 14.6303,-0.7698 L 14.6303,-0.8179 L 14.6303,-0.866 L 14.6303,-0.9141 L 14.6303,-0.9623 L 14.6303,-1.0104 L 14.6303,-1.0585 L 14.6303,-1.1066 L 14.6303,-1.1547 L 14.6303,-1.2028 L 14.6303,-1.2509 L 14.6303,-1.299 L 14.6303,-1.3472 L 14.6303,-1.3953 L 14.6303,-1.4434 L 14.6303,-1.4915 L 14.6303,-1.5396 L 14.6303,-1.5877 L 14.6303,-1.6358 L 14.6303,-1.6839 L 14.6303,-1.7321" />
      <path d="M 14.6303,1.7321 L 14.5678,1.7321 L 14.5053,1.7321 L 14.4428,1.7321 L 14.3803,1.7321 L 14.3178,1.7321 L 14.2553,1.7321 L 14.1928,1.7321 L 14.1303,1.7321 L 14.0678,1.7321 L 14.0053,1.7321 L 13.9428,1.7321 L 13.8803,1.7321 L 13.8178,1.7321 L 13.7554,1.7321 L 13.6929,1.7321 L 13.6304,1.7321 L 13.5679,1.7321 L 13.5054,1.7321 L 13.4429,1.7321 L 13.3804,1.7321 L 13.3179,1.7321 L 13.2554,1.7321 L 13.1929,1.7321 L 13.1304,1.7321 L 13.0679,1.7321 L 13.0054,1.7321 L 12.9429,1.7321 L 12.8804,1.7321 L 12.818,1.7321 L 12.7555,1.7321 L 12.693,1.7321 L 12.6305,1.7321 L 12.568,1.7321 L 12.5055,1.7321 L 12.443,1.7321 L 12.3805,1.7321 L 12.318,1.7321 L 12.2555,1.7321 L 12.193,1.7321 L 12.1305,1.7321 L 12.068,1.7321 L 12.0055,1.7321 L 11.943,1.7321 L 11.8806,1.7321 L 11.8181,1.7321 L 11.7556,1.7321 L 11.6931,1.7321 L 11.6306,1.7321 L 11.5681,1.7321 L 11.5056,1.7321 L 11.4431,1.7321 L 11.3806,1.7321 L 11.3181,1.7321 L 11.2556,1.7321 L 11.1931,1.7321 L 11.1306,1.7321 L 11.0681,1.7321 L 11.0056,1.7321 L 10.9431,1.7321 L 10.8807,1.7321 L 10.8182,1.7321 L 10.7557,1.7321 L 10.6932,1.7321 L 10.6307,1.7321 L 10.5682,1.7321 L 10.5057,1.7321 L 10.4432,1.7321 L 10.3807,1.7321 L 10.3182,1.7321 L 10.2557,1.7321 L 10.1932,1.7321 L 10.1307,1.7321" />
      <path d="M 14.5867,3.4641 L 14.5873,3.44 L 14.5879,3.416 L 14.5885,3.3919 L 14.5891,3.3679 L 14.5897,3.3438 L 14.5903,3.3198 L 14.5909,3.2957 L 14.5915,3.2717 L 14.5921,3.2476 L 14.5927,3.2235 L 14.5933,3.1995 L 14.5939,3.1754 L 14.5946,3.1514 L 14.5952,3.1273 L 14.5958,3.1033 L 14.5964,3.0792 L 14.597,3.0551 L 14.5976,3.0311 L 14.5982,3.007 L 14.5988,2.983 L 14.5994,2.9589 L 14.6,2.9349 L 14.6006,2.9108 L 14.6012,2.8868 L 14.6018,2.8627 L 14.6024,2.8386 L 14.603,2.8146 L 14.6036,2.7905 L 14.6042,2.7665 L 14.6048,2.7424 L 14.6054,2.7184 L 14.6061,2.6943 L 14.6067,2.6702 L 14.6073,2.6462 L 14.6079,2.6221 L 14.6085,2.5981 L 14.6091,2.574 L 14.6097,2.55 L 14.6103,2.5259 L 14.6109,2.5019 L 14.6115,2.4778 L 14.6121,2.4537 L 14.6127,2.4297 L 14.6133,2.4056 L 14.6139,2.3816 L 14.6145,2.3575 L 14.6151,2.3335 L 14.6157,2.3094 L 14.6163,2.2853 L 14.6169,2.2613 L 14.6176,2.2372 L 14.6182,2.2132 L 14.6188,2.1891 L 14.6194,2.1651 L 14.62,2.141 L 14.6206,2.117 L 14.6212,2.0929 L 14.6218,2.0688 L 14.6224,2.0448 L 14.623,2.0207 L 14.6236,1.9967 L 14.6242,1.9726 L 14.6248,1.9486 L 14.6254,1.9245 L 14.626,1.9004 L 14.6266,1.8764 L 14.6272,1.8523 L 14.6278,1.8283 L 14.6284,1.8042 L 14.6291,1.7802 L 14.6297,1.7561 L 14.6303,1.7321" />
    </g>
    <g fill="none" stroke="rgb(0,0,0)" stroke-width="0.2" id="Center" stroke-dasharray="6.35 1.27 1.27 1.27">
      <line x1="0.0" y1="0.0" x2="-8.41" y2="0.0" />
      <line x1="0.0" y1="0.0" x2="8.41" y2="0.0" />
      <line x1="0.0" y1="0.0" x2="0.0" y2="-8.41" />
      <line x1="0.0" y1="0.0" x2="0.0" y2="8.41" />
      <line x1="25.0783" y1="0.0" x2="7.59" y2="0.0" />
      <line x1="25.0783" y1="0.0" x2="42.5666" y2="0.0" />
    </g>
  </g>
</svg>