<?xml version='1.0' encoding='utf-8'?>
<svg width="66.9954mm" height="28.02mm" viewBox="-13.9228 -14.01 66.9954 28.02" version="1.1" xmlns="http://www.w3.org/2000/svg">
  <g transform="scale(1,-1)" stroke-linecap="round">
    <g fill="none" stroke="rgb(0,0,0)" stroke-width="0.4" id="Visible">
      <path d="M 0.0,9.0 L -0.1789,8.9982 L -0.3578,8.9929 L -0.5365,8.984 L -0.715,8.9716 L -0.8932,8.9556 L -1.071,8.936 L -1.2485,8.913 L -1.4254,8.8864 L -1.6018,8.8563 L -1.7776,8.8227 L -1.9526,8.7856 L -2.1269,8.7451 L -2.3003,8.7011 L -2.4728,8.6536 L -2.6444,8.6027 L -2.8149,8.5485 L -2.9843,8.4908 L -3.1525,8.4298 L -3.3194,8.3655 L -3.4851,8.2978 L -3.6494,8.2269 L -3.8122,8.1527 L -3.9735,8.0753 L -4.1333,7.9948 L -4.2914,7.911 L -4.4478,7.8241 L -4.6025,7.7342 L -4.7553,7.6411 L -4.9063,7.5451 L -5.0553,7.4461 L -5.2023,7.3441 L -5.3473,7.2392 L -5.4902,7.1315 L -5.6309,7.0209 L -5.7693,6.9076 L -5.9055,6.7915 L -6.0394,6.6728 L -6.1708,6.5514 L -6.2998,6.4274 L -6.4264,6.3009 L -6.5504,6.1719 L -6.6718,6.0405 L -6.7905,5.9067 L -6.9066,5.7705 L -7.02,5.6321 L -7.1305,5.4914 L -7.2383,5.3485 L -7.3432,5.2036 L -7.4452,5.0566 L -7.5443,4.9076 L -7.6403,4.7566 L -7.7334,4.6038 L -7.8234,4.4491 L -7.9103,4.2927 L -7.9941,4.1346 L -8.0747,3.9749 L -8.1521,3.8136 L -8.2263,3.6508 L -8.2973,3.4865 L -8.3649,3.3209 L -8.4293,3.1539 L -8.4903,2.9857 L -8.548,2.8163 L -8.6023,2.6458 L -8.6532,2.4743 L -8.7007,2.3018 L -8.7447,2.1284 L -8.7853,1.9541 L -8.8224,1.7791 L -8.856,1.6033 L -8.8862,1.4269 L -8.9128,1.25" />
      <path d="M -7.05,1.25 L -7.0561,1.2156 L -7.0619,1.1812 L -7.0676,1.1468 L -7.0731,1.1123 L -7.0784,1.0778 L -7.0836,1.0433 L -7.0886,1.0088 L -7.0934,0.9742 L -7.0981,0.9396 L -7.1026,0.905 L -7.1069,0.8704 L -7.1111,0.8357 L -7.115,0.801 L -7.1189,0.7664 L -7.1225,0.7316 L -7.126,0.6969 L -7.1293,0.6622 L -7.1325,0.6274 L -7.1354,0.5926 L -7.1382,0.5579 L -7.1409,0.523 L -7.1433,0.4882 L -7.1456,0.4534 L -7.1478,0.4186 L -7.1497,0.3837 L -7.1515,0.3489 L -7.1531,0.314 L -7.1546,0.2791 L -7.1558,0.2443 L -7.1569,0.2094 L -7.1579,0.1745 L -7.1586,0.1396 L -7.1592,0.1047 L -7.1597,0.0698 L -7.1599,0.0349 L -7.16,0.0 L -7.1599,-0.0349 L -7.1597,-0.0698 L -7.1592,-0.1047 L -7.1586,-0.1396 L -7.1579,-0.1745 L -7.1569,-0.2094 L -7.1558,-0.2443 L -7.1546,-0.2791 L -7.1531,-0.314 L -7.1515,-0.3489 L -7.1497,-0.3837 L -7.1478,-0.4186 L -7.1456,-0.4534 L -7.1433,-0.4882 L -7.1409,-0.523 L -7.1382,-0.5579 L -7.1354,-0.5926 L -7.1325,-0.6274 L -7.1293,-0.6622 L -7.126,-0.6969 L -7.1225,-0.7316 L -7.1189,-0.7664 L -7.115,-0.801 L -7.1111,-0.8357 L -7.1069,-0.8704 L -7.1026,-0.905 L -7.0981,-0.9396 L -7.0934,-0.9742 L -7.0886,-1.0088 L -7.0836,-1.0433 L -7.0784,-1.0778 L -7.0731,-1.1123 L -7.0676,-1.1468 L -7.0619,-1.1812 L -7.0561,-1.2156 L -7.05,-1.25" />
      <path d="M -8.9128,-1.25 L -8.856,-1.6033 L -8.7853,-1.9541 L -8.7007,-2.3018 L -8.6023,-2.6458 L -8.4903,-2.9857 L -8.3649,-3.3209 L -8.2263,-3.6508 L -8.0747,-3.9749 L -7.9103,-4.2927 L -7.7334,-4.6038 L -7.5443,-4.9076 L -7.3432,-5.2036 L -7.1305,-5.4914 L -6.9066,-5.7705 L -6.6718,-6.0405 L -6.4264,-6.3009 L -6.1708,-6.5514 L -5.9055,-6.7915 L -5.6309,-7.0209 L -5.3473,-7.2392 L -5.0553,-7.4461 L -4.7553,-7.6411 L -4.4478,-7.8241 L -4.1333,-7.9948 L -3.8122,-8.1527 L -3.4851,-8.2978 L -3.1525,-8.4298 L -2.8149,-8.5485 L -2.4728,-8.6536 L -2.1269,-8.7451 L -1.7776,-8.8227 L -1.4254,-8.8864 L -1.071,-8.936 L -0.715,-8.9716 L -0.3578,-8.9929 L -0.0,-9.0 L 0.3578,-8.9929 L 0.715,-8.9716 L 1.071,-8.936 L 1.4254,-8.8864 L 1.7776,-8.8227 L 2.1269,-8.7451 L 2.4728,-8.6536 L 2.8149,-8.5485 L 3.1525,-8.4298 L 3.4851,-8.2978 L 3.8122,-8.1527 L 4.1333,-7.9948 L 4.4478,-7.8241 L 4.7553,-7.6411 L 5.0553,-7.4461 L 5.3473,-7.2392 L 5.6309,-7.0209 L 5.9055,-6.7915 L 6.1708,-6.5514 L 6.4264,-6.3009 L 6.6718,-6.0405 L 6.9066,-5.7705 L 7.1305,-5.4914 L 7.3432,-5.2036 L 7.5443,-4.9076 L 7.7334,-4.6038 L 7.9103,-4.2927 L 8.0747,-3.9749 L 8.2263,-3.6508 L 8.3649,-3.3209 L 8.4903,-2.9857 L 8.6023,-2.6458 L 8.7007,-2.3018 L 8.7853,-1.9541 L 8.856,-1.6033 L 8.9128,-1.25" />
      <path d="M 7.05,-1.25 L 7.0561,-1.2156 L 7.0619,-1.1812 L 7.0676,-1.1468 L 7.0731,-1.1123 L 7.0784,-1.0778 L 7.0836,-1.0433 L 7.0886,-1.0088 L 7.0934,-0.9742 L 7.0981,-0.9396 L 7.1026,-0.905 L 7.1069,-0.8704 L 7.1111,-0.8357 L 7.115,-0.801 L 7.1189,-0.7664 L 7.1225,-0.7316 L 7.126,-0.6969 L 7.1293,-0.6622 L 7.1325,-0.6274 L 7.1354,-0.5926 L 7.1382,-0.5579 L 7.1409,-0.523 L 7.1433,-0.4882 L 7.1456,-0.4534 L 7.1478,-0.4186 L 7.1497,-0.3837 L 7.1515,-0.3489 L 7.1531,-0.314 L 7.1546,-0.2791 L 7.1558,-0.2443 L 7.1569,-0.2094 L 7.1579,-0.1745 L 7.1586,-0.1396 L 7.1592,-0.1047 L 7.1597,-0.0698 L 7.1599,-0.0349 L 7.16,-0.0 L 7.1599,0.0349 L 7.1597,0.0698 L 7.1592,0.1047 L 7.1586,0.1396 L 7.1579,0.1745 L 7.1569,0.2094 L 7.1558,0.2443 L 7.1546,0.2791 L 7.1531,0.314 L 7.1515,0.3489 L 7.1497,0.3837 L 7.1478,0.4186 L 7.1456,0.4534 L 7.1433,0.4882 L 7.1409,0.523 L 7.1382,0.5579 L 7.1354,0.5926 L 7.1325,0.6274 L 7.1293,0.6622 L 7.126,0.6969 L 7.1225,0.7316 L 7.1189,0.7664 L 7.115,0.801 L 7.1111,0.8357 L 7.1069,0.8704 L 7.1026,0.905 L 7.0981,0.9396 L 7.0934,0.9742 L 7.0886,1.0088 L 7.0836,1.0433 L 7.0784,1.0778 L 7.0731,1.1123 L 7.0676,1.1468 L 7.0619,1.1812 L 7.0561,1.2156 L 7.05,1.25" />
      <path d="M 8.9128,1.25 L 8.8862,1.4269 L 8.856,1.6033 L 8.8224,1.7791 L 8.7853,1.9541 L 8.7447,2.1284 L 8.7007,2.3018 L 8.6532,2.4743 L 8.6023,2.6458 L 8.548,2.8163 L 8.4903,2.9857 L 8.4293,3.1539 L 8.3649,3.3209 L 8.2973,3.4865 L 8.2263,3.6508 L 8.1521,3.8136 L 8.0747,3.9749 L 7.9941,4.1346 L 7.9103,4.2927 L 7.8234,4.4491 L 7.7334,4.6038 L 7.6403,4.7566 L 7.5443,4.9076 L 7.4452,5.0566 L 7.3432,5.2036 L 7.2383,5.3485 L 7.1305,5.4914 L 7.02,5.6321 L 6.9066,5.7705 L 6.7905,5.9067 L 6.6718,6.0405 L 6.5504,6.1719 L 6.4264,6.3009 L 6.2998,6.4274 L 6.1708,6.5514 L 6.0394,6.6728 L 5.9055,6.7915 L 5.7693,6.9076 L 5.6309,7.0209 L 5.4902,7.1315 L 5.3473,7.2392 L 5.2023,7.3441 L 5.0553,7.4461 L 4.9063,7.5451 L 4.7553,7.6411 L 4.6025,7.7342 L 4.4478,7.8241 L 4.2914,7.911 L 4.1333,7.9948 L 3.9735,8.0753 L 3.8122,8.1527 L 3.6494,8.2269 L 3.4851,8.2978 L 3.3194,8.3655 L 3.1525,8.4298 L 2.9843,8.4908 L 2.8149,8.5485 L 2.6444,8.6027 L 2.4728,8.6536 L 2.3003,8.7011 L 2.1269,8.7451 L 1.9526,8.7856 L 1.7776,8.8227 L 1.6018,8.8563 L 1.4254,8.8864 L 1.2485,8.913 L 1.071,8.936 L 0.8932,8.9556 L 0.715,8.9716 L 0.5365,8.984 L 0.3578,8.9929 L 0.1789,8.9982 L 0.0,9.0" />
      <path d="M 8.9128,1.25 L 8.6652,1.25 L 8.4176,1.25 L 8.17,1.25 L 7.9225,1.25 L 7.6749,1.25 L 7.4273,1.25 L 7.1797,1.25 L 6.9322,1.25 L 6.6846,1.25 L 6.437,1.25 L 6.1894,1.25 L 5.9418,1.25 L 5.6943,1.25 L 5.4467,1.25 L 5.1991,1.25 L 4.9515,1.25 L 4.704,1.25 L 4.4564,1.25 L 4.2088,1.25 L 3.9612,1.25 L 3.7137,1.25 L 3.4661,1.25 L 3.2185,1.25 L 2.9709,1.25 L 2.7233,1.25 L 2.4758,1.25 L 2.2282,1.25 L 1.9806,1.25 L 1.733,1.25 L 1.4855,1.25 L 1.2379,1.25 L 0.9903,1.25 L 0.7427,1.25 L 0.4952,1.25 L 0.2476,1.25 L 0.0,1.25 L -0.2476,1.25 L -0.4952,1.25 L -0.7427,1.25 L -0.9903,1.25 L -1.2379,1.25 L -1.4855,1.25 L -1.733,1.25 L -1.9806,1.25 L -2.2282,1.25 L -2.4758,1.25 L -2.7233,1.25 L -2.9709,1.25 L -3.2185,1.25 L -3.4661,1.25 L -3.7137,1.25 L -3.9612,1.25 L -4.2088,1.25 L -4.4564,1.25 L -4.704,1.25 L -4.9515,1.25 L -5.1991,1.25 L -5.4467,1.25 L -5.6943,1.25 L -5.9418,1.25 L -6.1894,1.25 L -6.437,1.25 L -6.6846,1.25 L -6.9322,1.25 L -7.1797,1.25 L -7.4273,1.25 L -7.6749,1.25 L -7.9225,1.25 L -8.17,1.25 L -8.4176,1.25 L -8.6652,1.25 L -8.9128,1.25" />
      <path d="M 8.9128,-1.25 L 8.6652,-1.25 L 8.4176,-1.25 L 8.17,-1.25 L 7.9225,-1.25 L 7.6749,-1.25 L 7.4273,-1.25 L 7.1797,-1.25 L 6.9322,-1.25 L 6.6846,-1.25 L 6.437,-1.25 L 6.1894,-1.25 L 5.9418,-1.25 L 5.6943,-1.25 L 5.4467,-1.25 L 5.1991,-1.25 L 4.9515,-1.25 L 4.704,-1.25 L 4.4564,-1.25 L 4.2088,-1.25 L 3.9612,-1.25 L 3.7137,-1.25 L 3.4661,-1.25 L 3.2185,-1.25 L 2.9709,-1.25 L 2.7233,-1.25 L 2.4758,-1.25 L 2.2282,-1.25 L 1.9806,-1.25 L 1.733,-1.25 L 1.4855,-1.25 L 1.2379,-1.25 L 0.9903,-1.25 L 0.7427,-1.25 L 0.4952,-1.25 L 0.2476,-1.25 L 0.0,-1.25 L -0.2476,-1.25 L -0.4952,-1.25 L -0.7427,-1.25 L -0.9903,-1.25 L -1.2379,-1.25 L -1.4855,-1.25 L -1.733,-1.25 L -1.9806,-1.25 L -2.2282,-1.25 L -2.4758,-1.25 L -2.7233,-1.25 L -2.9709,-1.25 L -3.2185,-1.25 L -3.4661,-1.25 L -3.7137,-1.25 L -3.9612,-1.25 L -4.2088,-1.25 L -4.4564,-1.25 L -4.704,-1.25 L -4.9515,-1.25 L -5.1991,-1.25 L -5.4467,-1.25 L -5.6943,-1.25 L -5.9418,-1.25 L -6.1894,-1.25 L -6.437,-1.25 L -6.6846,-1.25 L -6.9322,-1.25 L -7.1797,-1.25 L -7.4273,-1.25 L -7.6749,-1.25 L -7.9225,-1.25 L -8.17,-1.25 L -8.4176,-1.25 L -8.6652,-1.25 L -8.9128,-1.25" />
      <path d="M 18.0101,5.0 L 18.4267,5.0 L 18.8433,5.0 L 19.26,5.0 L 19.6766,5.0 L 20.0932,5.0 L 20.5099,5.0 L 20.9265,5.0 L 21.3432,5.0 L 21.7598,5.0 L 22.1764,5.0 L 22.5931,5.0 L 23.0097,5.0 L 23.4264,5.0 L 23.843,5.0 L 24.2596,5.0 L 24.6763,5.0 L 25.0929,5.0 L 25.5095,5.0 L 25.9262,5.0 L 26.3428,5.0 L 26.7595,5.0 L 27.1761,5.0 L 27.5927,5.0 L 28.0094,5.0 L 28.426,5.0 L 28.8427,5.0 L 29.2593,5.0 L 29.6759,5.0 L 30.0926,5.0 L 30.5092,5.0 L 30.9258,5.0 L 31.3425,5.0 L 31.7591,5.0 L 32.1758,5.0 L 32.5924,5.0 L 33.009,5.0 L 33.4257,5.0 L 33.8423,5.0 L 34.259,5.0 L 34.6756,5.0 L 35.0922,5.0 L 35.5089,5.0 L 35.9255,5.0 L 36.3421,5.0 L 36.7588,5.0 L 37.1754,5.0 L 37.5921,5.0 L 38.0087,5.0 L 38.4253,5.0 L 38.842,5.0 L 39.2586,5.0 L 39.6753,5.0 L 40.0919,5.0 L 40.5085,5.0 L 40.9252,5.0 L 41.3418,5.0 L 41.7585,5.0 L 42.1751,5.0 L 42.5917,5.0 L 43.0084,5.0 L 43.425,5.0 L 43.8416,5.0 L 44.2583,5.0 L 44.6749,5.0 L 45.0916,5.0 L 45.5082,5.0 L 45.9248,5.0 L 46.3415,5.0 L 46.7581,5.0 L 47.1748,5.0 L 47.5914,5.0 L 48.008,5.0" />
      <path d="M 48.008,-5.0 L 48.0208,-4.8623 L 48.0259,-4.7235 L 48.0298,-4.5846 L 48.033,-4.4458 L 48.0358,-4.3068 L 48.0382,-4.1679 L 48.0404,-4.029 L 48.0423,-3.8901 L 48.0441,-3.7512 L 48.0458,-3.6123 L 48.0473,-3.4734 L 48.0487,-3.3344 L 48.05,-3.1955 L 48.0512,-3.0566 L 48.0524,-2.9177 L 48.0534,-2.7787 L 48.0544,-2.6398 L 48.0553,-2.5009 L 48.0562,-2.362 L 48.0569,-2.223 L 48.0577,-2.0841 L 48.0583,-1.9452 L 48.0589,-1.8062 L 48.0595,-1.6673 L 48.06,-1.5284 L 48.0605,-1.3895 L 48.0609,-1.2505 L 48.0613,-1.1116 L 48.0616,-0.9727 L 48.0619,-0.8337 L 48.0621,-0.6948 L 48.0623,-0.5559 L 48.0624,-0.417 L 48.0626,-0.278 L 48.0626,-0.1391 L 48.0626,-0.0002 L 48.0626,0.1388 L 48.0626,0.2777 L 48.0624,0.4166 L 48.0623,0.5555 L 48.0621,0.6945 L 48.0619,0.8334 L 48.0616,0.9723 L 48.0613,1.1113 L 48.0609,1.2502 L 48.0605,1.3891 L 48.06,1.528 L 48.0595,1.667 L 48.059,1.8059 L 48.0583,1.9448 L 48.0577,2.0838 L 48.0569,2.2227 L 48.0562,2.3616 L 48.0553,2.5005 L 48.0544,2.6395 L 48.0534,2.7784 L 48.0524,2.9173 L 48.0512,3.0562 L 48.05,3.1952 L 48.0487,3.3341 L 48.0473,3.473 L 48.0458,3.6119 L 48.0441,3.7508 L 48.0423,3.8898 L 48.0404,4.0287 L 48.0382,4.1676 L 48.0358,4.3065 L 48.033,4.4454 L 48.0298,4.5843 L 48.0259,4.7232 L 48.0208,4.862 L 48.008,5.0" />
      <path d="M 18.0098,-5.0 L 18.0099,-5.0 L 18.01,-5.0 L 18.0101,-5.0 L 18.0101,-4.9999 L 18.0102,-4.9999 L 18.0102,-4.9998 L 18.0103,-4.9998" />
      <path d="M 18.0103,-4.9998 L 18.0226,-4.8618 L 18.0277,-4.723 L 18.0316,-4.5841 L 18.0348,-4.4453 L 18.0376,-4.3064 L 18.04,-4.1675 L 18.0422,-4.0286 L 18.0441,-3.8897 L 18.0459,-3.7508 L 18.0476,-3.6119 L 18.0491,-3.473 L 18.0505,-3.334 L 18.0518,-3.1951 L 18.053,-3.0562 L 18.0542,-2.9173 L 18.0552,-2.7784 L 18.0562,-2.6395 L 18.0571,-2.5006 L 18.058,-2.3617 L 18.0587,-2.2227 L 18.0595,-2.0838 L 18.0601,-1.9449 L 18.0607,-1.806 L 18.0613,-1.6671 L 18.0618,-1.5282 L 18.0623,-1.3893 L 18.0627,-1.2503 L 18.0631,-1.1114 L 18.0634,-0.9725 L 18.0637,-0.8336 L 18.0639,-0.6947 L 18.0641,-0.5558 L 18.0642,-0.4168 L 18.0643,-0.2779 L 18.0644,-0.139 L 18.0644,-0.0001 L 18.0644,0.1388 L 18.0643,0.2778 L 18.0642,0.4167 L 18.0641,0.5556 L 18.0639,0.6945 L 18.0637,0.8334 L 18.0634,0.9723 L 18.0631,1.1113 L 18.0627,1.2502 L 18.0623,1.3891 L 18.0618,1.528 L 18.0613,1.6669 L 18.0607,1.8058 L 18.0601,1.9448 L 18.0595,2.0837 L 18.0587,2.2226 L 18.058,2.3615 L 18.0571,2.5004 L 18.0562,2.6393 L 18.0552,2.7782 L 18.0542,2.9172 L 18.053,3.0561 L 18.0518,3.195 L 18.0505,3.3339 L 18.0491,3.4728 L 18.0476,3.6117 L 18.0459,3.7506 L 18.0441,3.8895 L 18.0422,4.0284 L 18.04,4.1673 L 18.0376,4.3062 L 18.0348,4.4451 L 18.0316,4.584 L 18.0277,4.7229 L 18.0226,4.8617 L 18.0103,4.9998" />
      <path d="M 13.0101,9.0 L 12.9951,8.8944 L 12.9889,8.7869 L 12.9841,8.6793 L 12.9802,8.5717 L 12.9767,8.4641 L 12.9736,8.3565 L 12.9708,8.2488 L 12.9682,8.1412 L 12.9658,8.0335 L 12.9635,7.9259 L 12.9614,7.8182 L 12.9594,7.7105 L 12.9575,7.6029 L 12.9557,7.4952 L 12.954,7.3876 L 12.9523,7.2799 L 12.9507,7.1722 L 12.9492,7.0646 L 12.9478,6.9569 L 12.9463,6.8492 L 12.945,6.7415 L 12.9437,6.6339 L 12.9424,6.5262 L 12.9412,6.4185 L 12.94,6.3108 L 12.9389,6.2032 L 12.9378,6.0955 L 12.9367,5.9878 L 12.9357,5.8802 L 12.9347,5.7725 L 12.9337,5.6648 L 12.9328,5.5571 L 12.9319,5.4494 L 12.931,5.3418 L 12.9302,5.2341 L 12.9293,5.1264 L 12.9285,5.0187 L 12.9277,4.9111 L 12.927,4.8034 L 12.9263,4.6957 L 12.9256,4.588 L 12.9249,4.4804 L 12.9242,4.3727 L 12.9236,4.265 L 12.9229,4.1573 L 12.9223,4.0496 L 12.9217,3.942 L 12.9212,3.8343 L 12.9206,3.7266 L 12.9201,3.6189 L 12.9196,3.5113 L 12.9191,3.4036 L 12.9186,3.2959 L 12.9182,3.1882 L 12.9178,3.0805 L 12.9173,2.9729 L 12.9169,2.8652 L 12.9165,2.7575 L 12.9162,2.6498 L 12.9158,2.5421 L 12.9155,2.4345 L 12.9152,2.3268 L 12.9149,2.2191 L 12.9146,2.1114 L 12.9143,2.0038 L 12.914,1.8961 L 12.9138,1.7884 L 12.9135,1.6807 L 12.9133,1.573 L 12.9131,1.4654 L 12.9129,1.3577 L 12.9128,1.25" />
      <path d="M 15.233,1.25 L 15.2329,1.2153 L 15.2328,1.1806 L 15.2328,1.1458 L 15.2327,1.1111 L 15.2327,1.0764 L 15.2326,1.0417 L 15.2326,1.0069 L 15.2325,0.9722 L 15.2325,0.9375 L 15.2324,0.9028 L 15.2324,0.8681 L 15.2323,0.8333 L 15.2323,0.7986 L 15.2322,0.7639 L 15.2322,0.7292 L 15.2321,0.6944 L 15.2321,0.6597 L 15.2321,0.625 L 15.232,0.5903 L 15.232,0.5556 L 15.232,0.5208 L 15.232,0.4861 L 15.2319,0.4514 L 15.2319,0.4167 L 15.2319,0.3819 L 15.2319,0.3472 L 15.2319,0.3125 L 15.2318,0.2778 L 15.2318,0.2431 L 15.2318,0.2083 L 15.2318,0.1736 L 15.2318,0.1389 L 15.2318,0.1042 L 15.2318,0.0694 L 15.2318,0.0347 L 15.2318,0.0 L 15.2318,-0.0347 L 15.2318,-0.0694 L 15.2318,-0.1042 L 15.2318,-0.1389 L 15.2318,-0.1736 L 15.2318,-0.2083 L 15.2318,-0.2431 L 15.2318,-0.2778 L 15.2319,-0.3125 L 15.2319,-0.3472 L 15.2319,-0.3819 L 15.2319,-0.4167 L 15.2319,-0.4514 L 15.232,-0.4861 L 15.232,-0.5208 L 15.232,-0.5556 L 15.232,-0.5903 L 15.2321,-0.625 L 15.2321,-0.6597 L 15.2321,-0.6944 L 15.2322,-0.7292 L 15.2322,-0.7639 L 15.2323,-0.7986 L 15.2323,-0.8333 L 15.2324,-0.8681 L 15.2324,-0.9028 L 15.2325,-0.9375 L 15.2325,-0.9722 L 15.2326,-1.0069 L 15.2326,-1.0417 L 15.2327,-1.0764 L 15.2327,-1.1111 L 15.2328,-1.1458 L 15.2328,-1.1806 L 15.2329,-1.2153 L 15.233,-1.25" />
      <path d="M 12.9128,-1.25 L 12.9129,-1.3577 L 12.9131,-1.4654 L 12.9133,-1.5731 L 12.9135,-1.6807 L 12.9138,-1.7884 L 12.914,-1.8961 L 12.9143,-2.0038 L 12.9146,-2.1115 L 12.9149,-2.2192 L 12.9152,-2.3268 L 12.9155,-2.4345 L 12.9158,-2.5422 L 12.9162,-2.6499 L 12.9165,-2.7576 L 12.9169,-2.8652 L 12.9173,-2.9729 L 12.9178,-3.0806 L 12.9182,-3.1883 L 12.9186,-3.296 L 12.9191,-3.4037 L 12.9196,-3.5113 L 12.9201,-3.619 L 12.9206,-3.7267 L 12.9212,-3.8344 L 12.9218,-3.9421 L 12.9223,-4.0498 L 12.9229,-4.1574 L 12.9236,-4.2651 L 12.9242,-4.3728 L 12.9249,-4.4805 L 12.9256,-4.5882 L 12.9263,-4.6958 L 12.927,-4.8035 L 12.9277,-4.9112 L 12.9285,-5.0189 L 12.9293,-5.1266 L 12.9302,-5.2343 L 12.931,-5.3419 L 12.9319,-5.4496 L 12.9328,-5.5573 L 12.9337,-5.665 L 12.9347,-5.7727 L 12.9357,-5.8803 L 12.9367,-5.988 L 12.9378,-6.0957 L 12.9389,-6.2034 L 12.94,-6.311 L 12.9412,-6.4187 L 12.9424,-6.5264 L 12.9437,-6.6341 L 12.945,-6.7417 L 12.9464,-6.8494 L 12.9478,-6.9571 L 12.9492,-7.0648 L 12.9507,-7.1724 L 12.9523,-7.2801 L 12.954,-7.3878 L 12.9557,-7.4955 L 12.9575,-7.6031 L 12.9594,-7.7108 L 12.9614,-7.8185 L 12.9636,-7.9261 L 12.9658,-8.0338 L 12.9682,-8.1414 L 12.9708,-8.2491 L 12.9736,-8.3567 L 12.9767,-8.4644 L 12.9802,-8.572 L 12.9841,-8.6796 L 12.9889,-8.7872 L 12.9951,-8.8947 L 13.011,-8.9997" />
      <path d="M 13.011,-8.9997 L 13.0252,-8.8934 L 13.0314,-8.786 L 13.0362,-8.6784 L 13.0401,-8.5708 L 13.0436,-8.4632 L 13.0466,-8.3556 L 13.0495,-8.248 L 13.052,-8.1403 L 13.0544,-8.0327 L 13.0567,-7.925 L 13.0588,-7.8174 L 13.0608,-7.7097 L 13.0627,-7.6021 L 13.0645,-7.4944 L 13.0663,-7.3868 L 13.0679,-7.2791 L 13.0695,-7.1715 L 13.071,-7.0638 L 13.0725,-6.9562 L 13.0739,-6.8485 L 13.0752,-6.7409 L 13.0766,-6.6332 L 13.0778,-6.5255 L 13.079,-6.4179 L 13.0802,-6.3102 L 13.0813,-6.2026 L 13.0824,-6.0949 L 13.0835,-5.9872 L 13.0845,-5.8796 L 13.0855,-5.7719 L 13.0865,-5.6643 L 13.0874,-5.5566 L 13.0883,-5.4489 L 13.0892,-5.3413 L 13.0901,-5.2336 L 13.0909,-5.1259 L 13.0917,-5.0183 L 13.0925,-4.9106 L 13.0932,-4.803 L 13.094,-4.6953 L 13.0947,-4.5876 L 13.0954,-4.48 L 13.096,-4.3723 L 13.0967,-4.2646 L 13.0973,-4.157 L 13.0979,-4.0493 L 13.0985,-3.9416 L 13.099,-3.834 L 13.0996,-3.7263 L 13.1001,-3.6186 L 13.1006,-3.511 L 13.1011,-3.4033 L 13.1016,-3.2957 L 13.102,-3.188 L 13.1025,-3.0803 L 13.1029,-2.9727 L 13.1033,-2.865 L 13.1037,-2.7573 L 13.1041,-2.6497 L 13.1044,-2.542 L 13.1047,-2.4343 L 13.1051,-2.3267 L 13.1054,-2.219 L 13.1057,-2.1113 L 13.1059,-2.0037 L 13.1062,-1.896 L 13.1065,-1.7883 L 13.1067,-1.6807 L 13.1069,-1.573 L 13.1071,-1.4653 L 13.1073,-1.3577 L 13.1075,-1.25" />
      <path d="M 15.387,-1.25 L 15.3553,-1.25 L 15.3237,-1.25 L 15.292,-1.25 L 15.2603,-1.25 L 15.2287,-1.25 L 15.197,-1.25 L 15.1654,-1.25 L 15.1337,-1.25 L 15.102,-1.25 L 15.0704,-1.25 L 15.0387,-1.25 L 15.0071,-1.25 L 14.9754,-1.25 L 14.9437,-1.25 L 14.9121,-1.25 L 14.8804,-1.25 L 14.8488,-1.25 L 14.8171,-1.25 L 14.7854,-1.25 L 14.7538,-1.25 L 14.7221,-1.25 L 14.6905,-1.25 L 14.6588,-1.25 L 14.6271,-1.25 L 14.5955,-1.25 L 14.5638,-1.25 L 14.5322,-1.25 L 14.5005,-1.25 L 14.4688,-1.25 L 14.4372,-1.25 L 14.4055,-1.25 L 14.3739,-1.25 L 14.3422,-1.25 L 14.3105,-1.25 L 14.2789,-1.25 L 14.2472,-1.25 L 14.2156,-1.25 L 14.1839,-1.25 L 14.1522,-1.25 L 14.1206,-1.25 L 14.0889,-1.25 L 14.0573,-1.25 L 14.0256,-1.25 L 13.9939,-1.25 L 13.9623,-1.25 L 13.9306,-1.25 L 13.899,-1.25 L 13.8673,-1.25 L 13.8356,-1.25 L 13.804,-1.25 L 13.7723,-1.25 L 13.7407,-1.25 L 13.709,-1.25 L 13.6773,-1.25 L 13.6457,-1.25 L 13.614,-1.25 L 13.5824,-1.25 L 13.5507,-1.25 L 13.519,-1.25 L 13.4874,-1.25 L 13.4557,-1.25 L 13.4241,-1.25 L 13.3924,-1.25 L 13.3607,-1.25 L 13.3291,-1.25 L 13.2974,-1.25 L 13.2658,-1.25 L 13.2341,-1.25 L 13.2024,-1.25 L 13.1708,-1.25 L 13.1391,-1.25 L 13.1075,-1.25" />
      <path d="M 15.387,-1.25 L 15.387,-1.2153 L 15.3871,-1.1806 L 15.3872,-1.1458 L 15.3872,-1.1111 L 15.3873,-1.0764 L 15.3873,-1.0417 L 15.3874,-1.0069 L 15.3875,-0.9722 L 15.3875,-0.9375 L 15.3876,-0.9028 L 15.3876,-0.8681 L 15.3876,-0.8333 L 15.3877,-0.7986 L 15.3877,-0.7639 L 15.3878,-0.7292 L 15.3878,-0.6944 L 15.3878,-0.6597 L 15.3879,-0.625 L 15.3879,-0.5903 L 15.3879,-0.5556 L 15.388,-0.5208 L 15.388,-0.4861 L 15.388,-0.4514 L 15.388,-0.4167 L 15.3881,-0.3819 L 15.3881,-0.3472 L 15.3881,-0.3125 L 15.3881,-0.2778 L 15.3881,-0.2431 L 15.3881,-0.2083 L 15.3882,-0.1736 L 15.3882,-0.1389 L 15.3882,-0.1042 L 15.3882,-0.0694 L 15.3882,-0.0347 L 15.3882,0.0 L 15.3882,0.0347 L 15.3882,0.0694 L 15.3882,0.1042 L 15.3882,0.1389 L 15.3882,0.1736 L 15.3881,0.2083 L 15.3881,0.2431 L 15.3881,0.2778 L 15.3881,0.3125 L 15.3881,0.3472 L 15.3881,0.3819 L 15.388,0.4167 L 15.388,0.4514 L 15.388,0.4861 L 15.388,0.5208 L 15.3879,0.5556 L 15.3879,0.5903 L 15.3879,0.625 L 15.3878,0.6597 L 15.3878,0.6944 L 15.3878,0.7292 L 15.3877,0.7639 L 15.3877,0.7986 L 15.3876,0.8333 L 15.3876,0.8681 L 15.3876,0.9028 L 15.3875,0.9375 L 15.3875,0.9722 L 15.3874,1.0069 L 15.3873,1.0417 L 15.3873,1.0764 L 15.3872,1.1111 L 15.3872,1.1458 L 15.3871,1.1806 L 15.387,1.2153 L 15.387,1.25" />
      <path d="M 15.387,1.25 L 15.3553,1.25 L 15.3237,1.25 L 15.292,1.25 L 15.2603,1.25 L 15.2287,1.25 L 15.197,1.25 L 15.1654,1.25 L 15.1337,1.25 L 15.102,1.25 L 15.0704,1.25 L 15.0387,1.25 L 15.0071,1.25 L 14.9754,1.25 L 14.9437,1.25 L 14.9121,1.25 L 14.8804,1.25 L 14.8488,1.25 L 14.8171,1.25 L 14.7854,1.25 L 14.7538,1.25 L 14.7221,1.25 L 14.6905,1.25 L 14.6588,1.25 L 14.6271,1.25 L 14.5955,1.25 L 14.5638,1.25 L 14.5322,1.25 L 14.5005,1.25 L 14.4688,1.25 L 14.4372,1.25 L 14.4055,1.25 L 14.3739,1.25 L 14.3422,1.25 L 14.3105,1.25 L 14.2789,1.25 L 14.2472,1.25 L 14.2156,1.25 L 14.1839,1.25 L 14.1522,1.25 L 14.1206,1.25 L 14.0889,1.25 L 14.0573,1.25 L 14.0256,1.25 L 13.9939,1.25 L 13.9623,1.25 L 13.9306,1.25 L 13.899,1.25 L 13.8673,1.25 L 13.8356,1.25 L 13.804,1.25 L 13.7723,1.25 L 13.7407,1.25 L 13.709,1.25 L 13.6773,1.25 L 13.6457,1.25 L 13.614,1.25 L 13.5824,1.25 L 13.5507,1.25 L 13.519,1.25 L 13.4874,1.25 L 13.4557,1.25 L 13.4241,1.25 L 13.3924,1.25 L 13.3607,1.25 L 13.3291,1.25 L 13.2974,1.25 L 13.2658,1.25 L 13.2341,1.25 L 13.2024,1.25 L 13.1708,1.25 L 13.1391,1.25 L 13.1075,1.25" />
      <path d="M 13.1075,1.25 L 13.1073,1.3577 L 13.1071,1.4653 L 13.1069,1.573 L 13.1067,1.6807 L 13.1065,1.7883 L 13.1062,1.896 L 13.1059,2.0037 L 13.1057,2.1113 L 13.1054,2.219 L 13.1051,2.3266 L 13.1047,2.4343 L 13.1044,2.542 L 13.1041,2.6496 L 13.1037,2.7573 L 13.1033,2.865 L 13.1029,2.9726 L 13.1025,3.0803 L 13.102,3.188 L 13.1016,3.2956 L 13.1011,3.4033 L 13.1006,3.511 L 13.1001,3.6186 L 13.0996,3.7263 L 13.099,3.8339 L 13.0985,3.9416 L 13.0979,4.0493 L 13.0973,4.1569 L 13.0967,4.2646 L 13.096,4.3723 L 13.0954,4.4799 L 13.0947,4.5876 L 13.094,4.6953 L 13.0932,4.8029 L 13.0925,4.9106 L 13.0917,5.0182 L 13.0909,5.1259 L 13.0901,5.2336 L 13.0892,5.3412 L 13.0883,5.4489 L 13.0874,5.5566 L 13.0865,5.6642 L 13.0855,5.7719 L 13.0845,5.8795 L 13.0835,5.9872 L 13.0824,6.0949 L 13.0813,6.2025 L 13.0802,6.3102 L 13.079,6.4178 L 13.0778,6.5255 L 13.0766,6.6331 L 13.0752,6.7408 L 13.0739,6.8485 L 13.0725,6.9561 L 13.071,7.0638 L 13.0695,7.1714 L 13.0679,7.2791 L 13.0663,7.3867 L 13.0645,7.4944 L 13.0627,7.602 L 13.0608,7.7097 L 13.0588,7.8173 L 13.0567,7.925 L 13.0544,8.0326 L 13.052,8.1403 L 13.0495,8.2479 L 13.0466,8.3555 L 13.0436,8.4631 L 13.0401,8.5707 L 13.0362,8.6783 L 13.0314,8.7859 L 13.0252,8.8934 L 13.011,8.9997" />
      <path d="M 13.011,8.9997 L 13.0109,8.9997 L 13.0108,8.9998 L 13.0107,8.9998 L 13.0107,8.9999 L 13.0106,8.9999 L 13.0105,8.9999 L 13.0104,9.0 L 13.0103,9.0 L 13.0102,9.0 L 13.0101,9.0" />
      <path d="M 13.1075,1.25 L 13.1048,1.25 L 13.1021,1.25 L 13.0993,1.25 L 13.0966,1.25 L 13.0939,1.25 L 13.0912,1.25 L 13.0885,1.25 L 13.0858,1.25 L 13.0831,1.25 L 13.0804,1.25 L 13.0777,1.25 L 13.075,1.25 L 13.0723,1.25 L 13.0696,1.25 L 13.0669,1.25 L 13.0642,1.25 L 13.0615,1.25 L 13.0588,1.25 L 13.0561,1.25 L 13.0534,1.25 L 13.0507,1.25 L 13.048,1.25 L 13.0453,1.25 L 13.0426,1.25 L 13.0399,1.25 L 13.0372,1.25 L 13.0345,1.25 L 13.0317,1.25 L 13.029,1.25 L 13.0263,1.25 L 13.0236,1.25 L 13.0209,1.25 L 13.0182,1.25 L 13.0155,1.25 L 13.0128,1.25 L 13.0101,1.25 L 13.0074,1.25 L 13.0047,1.25 L 13.002,1.25 L 12.9993,1.25 L 12.9966,1.25 L 12.9939,1.25 L 12.9912,1.25 L 12.9885,1.25 L 12.9858,1.25 L 12.9831,1.25 L 12.9804,1.25 L 12.9777,1.25 L 12.975,1.25 L 12.9723,1.25 L 12.9696,1.25 L 12.9669,1.25 L 12.9641,1.25 L 12.9614,1.25 L 12.9587,1.25 L 12.956,1.25 L 12.9533,1.25 L 12.9506,1.25 L 12.9479,1.25 L 12.9452,1.25 L 12.9425,1.25 L 12.9398,1.25 L 12.9371,1.25 L 12.9344,1.25 L 12.9317,1.25 L 12.929,1.25 L 12.9263,1.25 L 12.9236,1.25 L 12.9209,1.25 L 12.9182,1.25 L 12.9155,1.25 L 12.9128,1.25" />
      <path d="M 13.1075,-1.25 L 13.1048,-1.25 L 13.1021,-1.25 L 13.0993,-1.25 L 13.0966,-1.25 L 13.0939,-1.25 L 13.0912,-1.25 L 13.0885,-1.25 L 13.0858,-1.25 L 13.0831,-1.25 L 13.0804,-1.25 L 13.0777,-1.25 L 13.075,-1.25 L 13.0723,-1.25 L 13.0696,-1.25 L 13.0669,-1.25 L 13.0642,-1.25 L 13.0615,-1.25 L 13.0588,-1.25 L 13.0561,-1.25 L 13.0534,-1.25 L 13.0507,-1.25 L 13.048,-1.25 L 13.0453,-1.25 L 13.0426,-1.25 L 13.0399,-1.25 L 13.0372,-1.25 L 13.0345,-1.25 L 13.0317,-1.25 L 13.029,-1.25 L 13.0263,-1.25 L 13.0236,-1.25 L 13.0209,-1.25 L 13.0182,-1.25 L 13.0155,-1.25 L 13.0128,-1.25 L 13.0101,-1.25 L 13.0074,-1.25 L 13.0047,-1.25 L 13.002,-1.25 L 12.9993,-1.25 L 12.9966,-1.25 L 12.9939,-1.25 L 12.9912,-1.25 L 12.9885,-1.25 L 12.9858,-1.25 L 12.9831,-1.25 L 12.9804,-1.25 L 12.9777,-1.25 L 12.975,-1.25 L 12.9723,-1.25 L 12.9696,-1.25 L 12.9669,-1.25 L 12.9641,-1.25 L 12.9614,-1.25 L 12.9587,-1.25 L 12.956,-1.25 L 12.9533,-1.25 L 12.9506,-1.25 L 12.9479,-1.25 L 12.9452,-1.25 L 12.9425,-1.25 L 12.9398,-1.25 L 12.9371,-1.25 L 12.9344,-1.25 L 12.9317,-1.25 L 12.929,-1.25 L 12.9263,-1.25 L 12.9236,-1.25 L 12.9209,-1.25 L 12.9182,-1.25 L 12.9155,-1.25 L 12.9128,-1.25" />
      <path d="M 18.0101,-5.0 L 18.4267,-5.0 L 18.8433,-5.0 L 19.26,-5.0 L 19.6766,-5.0 L 20.0932,-5.0 L 20.5099,-5.0 L 20.9265,-5.0 L 21.3432,-5.0 L 21.7598,-5.0 L 22.1764,-5.0 L 22.5931,-5.0 L 23.0097,-5.0 L 23.4264,-5.0 L 23.843,-5.0 L 24.2596,-5.0 L 24.6763,-5.0 L 25.0929,-5.0 L 25.5095,-5.0 L 25.9262,-5.0 L 26.3428,-5.0 L 26.7595,-5.0 L 27.1761,-5.0 L 27.5927,-5.0 L 28.0094,-5.0 L 28.426,-5.0 L 28.8427,-5.0 L 29.2593,-5.0 L 29.6759,-5.0 L 30.0926,-5.0 L 30.5092,-5.0 L 30.9258,-5.0 L 31.3425,-5.0 L 31.7591,-5.0 L 32.1758,-5.0 L 32.5924,-5.0 L 33.009,-5.0 L 33.4257,-5.0 L 33.8423,-5.0 L 34.259,-5.0 L 34.6756,-5.0 L 35.0922,-5.0 L 35.5089,-5.0 L 35.9255,-5.0 L 36.3421,-5.0 L 36.7588,-5.0 L 37.1754,-5.0 L 37.5921,-5.0 L 38.0087,-5.0 L 38.4253,-5.0 L 38.842,-5.0 L 39.2586,-5.0 L 39.6753,-5.0 L 40.0919,-5.0 L 40.5085,-5.0 L 40.9252,-5.0 L 41.3418,-5.0 L 41.7585,-5.0 L 42.1751,-5.0 L 42.5917,-5.0 L 43.0084,-5.0 L 43.425,-5.0 L 43.8416,-5.0 L 44.2583,-5.0 L 44.6749,-5.0 L 45.0916,-5.0 L 45.5082,-5.0 L 45.9248,-5.0 L 46.3415,-5.0 L 46.7581,-5.0 L 47.1748,-5.0 L 47.5914,-5.0 L 48.008,-5.0" />
      <path d="M 18.0103,4.9998 L 17.9409,5.0554 L 17.8714,5.1109 L 17.802,5.1665 L 17.7326,5.222 L 17.6631,5.2776 L 17.5937,5.3331 L 17.5242,5.3887 L 17.4548,5.4442 L 17.3854,5.4998 L 17.3159,5.5553 L 17.2465,5.6109 L 17.1771,5.6665 L 17.1076,5.722 L 17.0382,5.7776 L 16.9688,5.8331 L 16.8993,5.8887 L 16.8299,5.9442 L 16.7605,5.9998 L 16.691,6.0553 L 16.6216,6.1109 L 16.5522,6.1664 L 16.4827,6.222 L 16.4133,6.2775 L 16.3439,6.3331 L 16.2744,6.3886 L 16.205,6.4442 L 16.1355,6.4998 L 16.0661,6.5553 L 15.9967,6.6109 L 15.9272,6.6664 L 15.8578,6.722 L 15.7884,6.7775 L 15.7189,6.8331 L 15.6495,6.8886 L 15.5801,6.9442 L 15.5106,6.9997 L 15.4412,7.0553 L 15.3718,7.1108 L 15.3023,7.1664 L 15.2329,7.2219 L 15.1635,7.2775 L 15.094,7.3331 L 15.0246,7.3886 L 14.9552,7.4442 L 14.8857,7.4997 L 14.8163,7.5553 L 14.7468,7.6108 L 14.6774,7.6664 L 14.608,7.7219 L 14.5385,7.7775 L 14.4691,7.833 L 14.3997,7.8886 L 14.3302,7.9441 L 14.2608,7.9997 L 14.1914,8.0552 L 14.1219,8.1108 L 14.0525,8.1664 L 13.9831,8.2219 L 13.9136,8.2775 L 13.8442,8.333 L 13.7748,8.3886 L 13.7053,8.4441 L 13.6359,8.4997 L 13.5665,8.5552 L 13.497,8.6108 L 13.4276,8.6663 L 13.3581,8.7219 L 13.2887,8.7774 L 13.2193,8.833 L 13.1498,8.8885 L 13.0804,8.9441 L 13.011,8.9997" />
      <path d="M 18.0103,-4.9998 L 17.9409,-5.0554 L 17.8714,-5.1109 L 17.802,-5.1665 L 17.7326,-5.222 L 17.6631,-5.2776 L 17.5937,-5.3331 L 17.5242,-5.3887 L 17.4548,-5.4442 L 17.3854,-5.4998 L 17.3159,-5.5553 L 17.2465,-5.6109 L 17.1771,-5.6665 L 17.1076,-5.722 L 17.0382,-5.7776 L 16.9688,-5.8331 L 16.8993,-5.8887 L 16.8299,-5.9442 L 16.7605,-5.9998 L 16.691,-6.0553 L 16.6216,-6.1109 L 16.5522,-6.1664 L 16.4827,-6.222 L 16.4133,-6.2775 L 16.3439,-6.3331 L 16.2744,-6.3886 L 16.205,-6.4442 L 16.1355,-6.4998 L 16.0661,-6.5553 L 15.9967,-6.6109 L 15.9272,-6.6664 L 15.8578,-6.722 L 15.7884,-6.7775 L 15.7189,-6.8331 L 15.6495,-6.8886 L 15.5801,-6.9442 L 15.5106,-6.9997 L 15.4412,-7.0553 L 15.3718,-7.1108 L 15.3023,-7.1664 L 15.2329,-7.2219 L 15.1635,-7.2775 L 15.094,-7.3331 L 15.0246,-7.3886 L 14.9552,-7.4442 L 14.8857,-7.4997 L 14.8163,-7.5553 L 14.7468,-7.6108 L 14.6774,-7.6664 L 14.608,-7.7219 L 14.5385,-7.7775 L 14.4691,-7.833 L 14.3997,-7.8886 L 14.3302,-7.9441 L 14.2608,-7.9997 L 14.1914,-8.0552 L 14.1219,-8.1108 L 14.0525,-8.1664 L 13.9831,-8.2219 L 13.9136,-8.2775 L 13.8442,-8.333 L 13.7748,-8.3886 L 13.7053,-8.4441 L 13.6359,-8.4997 L 13.5665,-8.5552 L 13.497,-8.6108 L 13.4276,-8.6663 L 13.3581,-8.7219 L 13.2887,-8.7774 L 13.2193,-8.833 L 13.1498,-8.8885 L 13.0804,-8.9441 L 13.011,-8.9997" />
    </g>
    <g fill="none" stroke="rgb(110,110,110)" stroke-width="0.3" id="Hidden" stroke-dasharray="3.6 0.9">
      <path d="M 0.0,5.0 L -0.4358,4.981 L -0.8682,4.924 L -1.2941,4.8296 L -1.7101,4.6985 L -2.1131,4.5315 L -2.5,4.3301 L -2.8679,4.0958 L -3.2139,3.8302 L -3.5355,3.5355 L -3.8302,3.2139 L -4.0958,2.8679 L -4.3301,2.5 L -4.5315,2.1131 L -4.6985,1.7101 L -4.8296,1.2941 L -4.924,0.8682 L -4.981,0.4358 L -5.0,0.0 L -4.981,-0.4358 L -4.924,-0.8682 L -4.8296,-1.2941 L -4.6985,-1.7101 L -4.5315,-2.1131 L -4.3301,-2.5 L -4.0958,-2.8679 L -3.8302,-3.2139 L -3.5355,-3.5355 L -3.2139,-3.8302 L -2.8679,-4.0958 L -2.5,-4.3301 L -2.1131,-4.5315 L -1.7101,-4.6985 L -1.2941,-4.8296 L -0.8682,-4.924 L -0.4358,-4.981 L -0.0,-5.0 L 0.4358,-4.981 L 0.8682,-4.924 L 1.2941,-4.8296 L 1.7101,-4.6985 L 2.1131,-4.5315 L 2.5,-4.3301 L 2.8679,-4.0958 L 3.2139,-3.8302 L 3.5355,-3.5355 L 3.8302,-3.2139 L 4.0958,-2.8679 L 4.3301,-2.5 L 4.5315,-2.1131 L 4.6985,-1.7101 L 4.8296,-1.2941 L 4.924,-0.8682 L 4.981,-0.4358 L 5.0,-0.0 L 4.981,0.4358 L 4.924,0.8682 L 4.8296,1.2941 L 4.6985,1.7101 L 4.5315,2.1131 L 4.3301,2.5 L 4.0958,2.8679 L 3.8302,3.2139 L 3.5355,3.5355 L 3.2139,3.8302 L 2.8679,4.0958 L 2.5,4.3301 L 2.1131,4.5315 L 1.7101,4.6985 L 1.2941,4.8296 L 0.8682,4.924 L 0.4358,4.981 L 0.0,5.0" />
      <path d="M 0.0,5.0 L -0.4358,4.981 L -0.8682,4.924 L -1.2941,4.8296 L -1.7101,4.6985 L -2.1131,4.5315 L -2.5,4.3301 L -2.8679,4.0958 L -3.2139,3.8302 L -3.5355,3.5355 L -3.8302,3.2139 L -4.0958,2.8679 L -4.3301,2.5 L -4.5315,2.1131 L -4.6985,1.7101 L -4.8296,1.2941 L -4.924,0.8682 L -4.981,0.4358 L -5.0,0.0 L -4.981,-0.4358 L -4.924,-0.8682 L -4.8296,-1.2941 L -4.6985,-1.7101 L -4.5315,-2.1131 L -4.3301,-2.5 L -4.0958,-2.8679 L -3.8302,-3.2139 L -3.5355,-3.5355 L -3.2139,-3.8302 L -2.8679,-4.0958 L -2.5,-4.3301 L -2.1131,-4.5315 L -1.7101,-4.6985 L -1.2941,-4.8296 L -0.8682,-4.924 L -0.4358,-4.981 L -0.0,-5.0 L 0.4358,-4.981 L 0.8682,-4.924 L 1.2941,-4.8296 L 1.7101,-4.6985 L 2.1131,-4.5315 L 2.5,-4.3301 L 2.8679,-4.0958 L 3.2139,-3.8302 L 3.5355,-3.5355 L 3.8302,-3.2139 L 4.0958,-2.8679 L 4.3301,-2.5 L 4.5315,-2.1131 L 4.6985,-1.7101 L 4.8296,-1.2941 L 4.924,-0.8682 L 4.981,-0.4358 L 5.0,-0.0 L 4.981,0.4358 L 4.924,0.8682 L 4.8296,1.2941 L 4.6985,1.7101 L 4.5315,2.1131 L 4.3301,2.5 L 4.0958,2.8679 L 3.8302,3.2139 L 3.5355,3.5355 L 3.2139,3.8302 L 2.8679,4.0958 L 2.5,4.3301 L 2.1131,4.5315 L 1.7101,4.6985 L 1.2941,4.8296 L 0.8682,4.924 L 0.4358,4.981 L 0.0,5.0" />
      <path d="M -8.9128,1.25 L -8.8869,1.25 L -8.861,1.25 L -8.8352,1.25 L -8.8093,1.25 L -8.7834,1.25 L -8.7575,1.25 L -8.7317,1.25 L -8.7058,1.25 L -8.6799,1.25 L -8.6541,1.25 L -8.6282,1.25 L -8.6023,1.25 L -8.5764,1.25 L -8.5506,1.25 L -8.5247,1.25 L -8.4988,1.25 L -8.473,1.25 L -8.4471,1.25 L -8.4212,1.25 L -8.3953,1.25 L -8.3695,1.25 L -8.3436,1.25 L -8.3177,1.25 L -8.2919,1.25 L -8.266,1.25 L -8.2401,1.25 L -8.2142,1.25 L -8.1884,1.25 L -8.1625,1.25 L -8.1366,1.25 L -8.1108,1.25 L -8.0849,1.25 L -8.059,1.25 L -8.0331,1.25 L -8.0073,1.25 L -7.9814,1.25 L -7.9555,1.25 L -7.9297,1.25 L -7.9038,1.25 L -7.8779,1.25 L -7.8521,1.25 L -7.8262,1.25 L -7.8003,1.25 L -7.7744,1.25 L -7.7486,1.25 L -7.7227,1.25 L -7.6968,1.25 L -7.671,1.25 L -7.6451,1.25 L -7.6192,1.25 L -7.5933,1.25 L -7.5675,1.25 L -7.5416,1.25 L -7.5157,1.25 L -7.4899,1.25 L -7.464,1.25 L -7.4381,1.25 L -7.4122,1.25 L -7.3864,1.25 L -7.3605,1.25 L -7.3346,1.25 L -7.3088,1.25 L -7.2829,1.25 L -7.257,1.25 L -7.2311,1.25 L -7.2053,1.25 L -7.1794,1.25 L -7.1535,1.25 L -7.1277,1.25 L -7.1018,1.25 L -7.0759,1.25 L -7.05,1.25" />
      <path d="M -8.9128,-1.25 L -8.8869,-1.25 L -8.861,-1.25 L -8.8352,-1.25 L -8.8093,-1.25 L -8.7834,-1.25 L -8.7575,-1.25 L -8.7317,-1.25 L -8.7058,-1.25 L -8.6799,-1.25 L -8.6541,-1.25 L -8.6282,-1.25 L -8.6023,-1.25 L -8.5764,-1.25 L -8.5506,-1.25 L -8.5247,-1.25 L -8.4988,-1.25 L -8.473,-1.25 L -8.4471,-1.25 L -8.4212,-1.25 L -8.3953,-1.25 L -8.3695,-1.25 L -8.3436,-1.25 L -8.3177,-1.25 L -8.2919,-1.25 L -8.266,-1.25 L -8.2401,-1.25 L -8.2142,-1.25 L -8.1884,-1.25 L -8.1625,-1.25 L -8.1366,-1.25 L -8.1108,-1.25 L -8.0849,-1.25 L -8.059,-1.25 L -8.0331,-1.25 L -8.0073,-1.25 L -7.9814,-1.25 L -7.9555,-1.25 L -7.9297,-1.25 L -7.9038,-1.25 L -7.8779,-1.25 L -7.8521,-1.25 L -7.8262,-1.25 L -7.8003,-1.25 L -7.7744,-1.25 L -7.7486,-1.25 L -7.7227,-1.25 L -7.6968,-1.25 L -7.671,-1.25 L -7.6451,-1.25 L -7.6192,-1.25 L -7.5933,-1.25 L -7.5675,-1.25 L -7.5416,-1.25 L -7.5157,-1.25 L -7.4899,-1.25 L -7.464,-1.25 L -7.4381,-1.25 L -7.4122,-1.25 L -7.3864,-1.25 L -7.3605,-1.25 L -7.3346,-1.25 L -7.3088,-1.25 L -7.2829,-1.25 L -7.257,-1.25 L -7.2311,-1.25 L -7.2053,-1.25 L -7.1794,-1.25 L -7.1535,-1.25 L -7.1277,-1.25 L -7.1018,-1.25 L -7.0759,-1.25 L -7.05,-1.25" />
      <path d="M 7.05,-1.25 L 7.0759,-1.25 L 7.1018,-1.25 L 7.1277,-1.25 L 7.1535,-1.25 L 7.1794,-1.25 L 7.2053,-1.25 L 7.2311,-1.25 L 7.257,-1.25 L 7.2829,-1.25 L 7.3088,-1.25 L 7.3346,-1.25 L 7.3605,-1.25 L 7.3864,-1.25 L 7.4122,-1.25 L 7.4381,-1.25 L 7.464,-1.25 L 7.4899,-1.25 L 7.5157,-1.25 L 7.5416,-1.25 L 7.5675,-1.25 L 7.5933,-1.25 L 7.6192,-1.25 L 7.6451,-1.25 L 7.671,-1.25 L 7.6968,-1.25 L 7.7227,-1.25 L 7.7486,-1.25 L 7.7744,-1.25 L 7.8003,-1.25 L 7.8262,-1.25 L 7.8521,-1.25 L 7.8779,-1.25 L 7.9038,-1.25 L 7.9297,-1.25 L 7.9555,-1.25 L 7.9814,-1.25 L 8.0073,-1.25 L 8.0331,-1.25 L 8.059,-1.25 L 8.0849,-1.25 L 8.1108,-1.25 L 8.1366,-1.25 L 8.1625,-1.25 L 8.1884,-1.25 L 8.2142,-1.25 L 8.2401,-1.25 L 8.266,-1.25 L 8.2919,-1.25 L 8.3177,-1.25 L 8.3436,-1.25 L 8.3695,-1.25 L 8.3953,-1.25 L 8.4212,-1.25 L 8.4471,-1.25 L 8.473,-1.25 L 8.4988,-1.25 L 8.5247,-1.25 L 8.5506,-1.25 L 8.5764,-1.25 L 8.6023,-1.25 L 8.6282,-1.25 L 8.6541,-1.25 L 8.6799,-1.25 L 8.7058,-1.25 L 8.7317,-1.25 L 8.7575,-1.25 L 8.7834,-1.25 L 8.8093,-1.25 L 8.8352,-1.25 L 8.861,-1.25 L 8.8869,-1.25 L 8.9128,-1.25" />
      <path d="M 7.05,1.25 L 7.0759,1.25 L 7.1018,1.25 L 7.1277,1.25 L 7.1535,1.25 L 7.1794,1.25 L 7.2053,1.25 L 7.2311,1.25 L 7.257,1.25 L 7.2829,1.25 L 7.3088,1.25 L 7.3346,1.25 L 7.3605,1.25 L 7.3864,1.25 L 7.4122,1.25 L 7.4381,1.25 L 7.464,1.25 L 7.4899,1.25 L 7.5157,1.25 L 7.5416,1.25 L 7.5675,1.25 L 7.5933,1.25 L 7.6192,1.25 L 7.6451,1.25 L 7.671,1.25 L 7.6968,1.25 L 7.7227,1.25 L 7.7486,1.25 L 7.7744,1.25 L 7.8003,1.25 L 7.8262,1.25 L 7.8521,1.25 L 7.8779,1.25 L 7.9038,1.25 L 7.9297,1.25 L 7.9555,1.25 L 7.9814,1.25 L 8.0073,1.25 L 8.0331,1.25 L 8.059,1.25 L 8.0849,1.25 L 8.1108,1.25 L 8.1366,1.25 L 8.1625,1.25 L 8.1884,1.25 L 8.2142,1.25 L 8.2401,1.25 L 8.266,1.25 L 8.2919,1.25 L 8.3177,1.25 L 8.3436,1.25 L 8.3695,1.25 L 8.3953,1.25 L 8.4212,1.25 L 8.4471,1.25 L 8.473,1.25 L 8.4988,1.25 L 8.5247,1.25 L 8.5506,1.25 L 8.5764,1.25 L 8.6023,1.25 L 8.6282,1.25 L 8.6541,1.25 L 8.6799,1.25 L 8.7058,1.25 L 8.7317,1.25 L 8.7575,1.25 L 8.7834,1.25 L 8.8093,1.25 L 8.8352,1.25 L 8.861,1.25 L 8.8869,1.25 L 8.9128,1.25" />
      <path d="M 7.05,1.25 L 6.8542,1.25 L 6.6584,1.25 L 6.4625,1.25 L 6.2667,1.25 L 6.0709,1.25 L 5.875,1.25 L 5.6792,1.25 L 5.4834,1.25 L 5.2875,1.25 L 5.0917,1.25 L 4.8959,1.25 L 4.7,1.25 L 4.5042,1.25 L 4.3084,1.25 L 4.1125,1.25 L 3.9167,1.25 L 3.7209,1.25 L 3.525,1.25 L 3.3292,1.25 L 3.1334,1.25 L 2.9375,1.25 L 2.7417,1.25 L 2.5458,1.25 L 2.35,1.25 L 2.1542,1.25 L 1.9583,1.25 L 1.7625,1.25 L 1.5667,1.25 L 1.3708,1.25 L 1.175,1.25 L 0.9792,1.25 L 0.7833,1.25 L 0.5875,1.25 L 0.3917,1.25 L 0.1958,1.25 L 0.0,1.25 L -0.1958,1.25 L -0.3917,1.25 L -0.5875,1.25 L -0.7833,1.25 L -0.9792,1.25 L -1.175,1.25 L -1.3708,1.25 L -1.5667,1.25 L -1.7625,1.25 L -1.9583,1.25 L -2.1542,1.25 L -2.35,1.25 L -2.5458,1.25 L -2.7417,1.25 L -2.9375,1.25 L -3.1334,1.25 L -3.3292,1.25 L -3.525,1.25 L -3.7209,1.25 L -3.9167,1.25 L -4.1125,1.25 L -4.3084,1.25 L -4.5042,1.25 L -4.7,1.25 L -4.8959,1.25 L -5.0917,1.25 L -5.2875,1.25 L -5.4834,1.25 L -5.6792,1.25 L -5.875,1.25 L -6.0709,1.25 L -6.2667,1.25 L -6.4625,1.25 L -6.6584,1.25 L -6.8542,1.25 L -7.05,1.25" />
      <path d="M 7.05,-1.25 L 6.8542,-1.25 L 6.6584,-1.25 L 6.4625,-1.25 L 6.2667,-1.25 L 6.0709,-1.25 L 5.875,-1.25 L 5.6792,-1.25 L 5.4834,-1.25 L 5.2875,-1.25 L 5.0917,-1.25 L 4.8959,-1.25 L 4.7,-1.25 L 4.5042,-1.25 L 4.3084,-1.25 L 4.1125,-1.25 L 3.9167,-1.25 L 3.7209,-1.25 L 3.525,-1.25 L 3.3292,-1.25 L 3.1334,-1.25 L 2.9375,-1.25 L 2.7417,-1.25 L 2.5458,-1.25 L 2.35,-1.25 L 2.1542,-1.25 L 1.9583,-1.25 L 1.7625,-1.25 L 1.5667,-1.25 L 1.3708,-1.25 L 1.175,-1.25 L 0.9792,-1.25 L 0.7833,-1.25 L 0.5875,-1.25 L 0.3917,-1.25 L 0.1958,-1.25 L 0.0,-1.25 L -0.1958,-1.25 L -0.3917,-1.25 L -0.5875,-1.25 L -0.7833,-1.25 L -0.9792,-1.25 L -1.175,-1.25 L -1.3708,-1.25 L -1.5667,-1.25 L -1.7625,-1.25 L -1.9583,-1.25 L -2.1542,-1.25 L -2.35,-1.25 L -2.5458,-1.25 L -2.7417,-1.25 L -2.9375,-1.25 L -3.1334,-1.25 L -3.3292,-1.25 L -3.525,-1.25 L -3.7209,-1.25 L -3.9167,-1.25 L -4.1125,-1.25 L -4.3084,-1.25 L -4.5042,-1.25 L -4.7,-1.25 L -4.8959,-1.25 L -5.0917,-1.25 L -5.2875,-1.25 L -5.4834,-1.25 L -5.6792,-1.25 L -5.875,-1.25 L -6.0709,-1.25 L -6.2667,-1.25 L -6.4625,-1.25 L -6.6584,-1.25 L -6.8542,-1.25 L -7.05,-1.25" />
      <path d="M 18.0098,5.0 L 18.0099,5.0 L 18.01,5.0 L 18.0101,5.0" />
      <path d="M 48.008,5.0 L 47.9953,4.8623 L 47.9901,4.7235 L 47.9862,4.5846 L 47.983,4.4458 L 47.9803,4.3068 L 47.9779,4.1679 L 47.9757,4.029 L 47.9737,3.8901 L 47.9719,3.7512 L 47.9703,3.6123 L 47.9687,3.4734 L 47.9673,3.3344 L 47.966,3.1955 L 47.9648,3.0566 L 47.9637,2.9177 L 47.9626,2.7787 L 47.9617,2.6398 L 47.9607,2.5009 L 47.9599,2.362 L 47.9591,2.223 L 47.9584,2.0841 L 47.9577,1.9452 L 47.9571,1.8062 L 47.9565,1.6673 L 47.956,1.5284 L 47.9556,1.3895 L 47.9552,1.2505 L 47.9548,1.1116 L 47.9545,0.9727 L 47.9542,0.8337 L 47.9539,0.6948 L 47.9538,0.5559 L 47.9536,0.417 L 47.9535,0.278 L 47.9534,0.1391 L 47.9534,0.0002 L 47.9534,-0.1388 L 47.9535,-0.2777 L 47.9536,-0.4166 L 47.9538,-0.5555 L 47.9539,-0.6945 L 47.9542,-0.8334 L 47.9545,-0.9723 L 47.9548,-1.1113 L 47.9552,-1.2502 L 47.9556,-1.3891 L 47.956,-1.528 L 47.9565,-1.667 L 47.9571,-1.8059 L 47.9577,-1.9448 L 47.9584,-2.0838 L 47.9591,-2.2227 L 47.9599,-2.3616 L 47.9607,-2.5005 L 47.9616,-2.6395 L 47.9626,-2.7784 L 47.9637,-2.9173 L 47.9648,-3.0562 L 47.966,-3.1952 L 47.9673,-3.3341 L 47.9687,-3.473 L 47.9703,-3.6119 L 47.9719,-3.7508 L 47.9737,-3.8898 L 47.9757,-4.0287 L 47.9779,-4.1676 L 47.9803,-4.3065 L 47.983,-4.4454 L 47.9862,-4.5843 L 47.9901,-4.7232 L 47.9953,-4.862 L 48.008,-5.0" />
      <path d="M 18.0098,5.0 L 17.9971,4.8623 L 17.9919,4.7235 L 17.988,4.5846 L 17.9848,4.4458 L 17.9821,4.3068 L 17.9797,4.1679 L 17.9775,4.029 L 17.9755,3.8901 L 17.9737,3.7512 L 17.9721,3.6123 L 17.9705,3.4734 L 17.9691,3.3344 L 17.9678,3.1955 L 17.9666,3.0566 L 17.9655,2.9177 L 17.9644,2.7787 L 17.9634,2.6398 L 17.9625,2.5009 L 17.9617,2.362 L 17.9609,2.223 L 17.9602,2.0841 L 17.9595,1.9452 L 17.9589,1.8062 L 17.9583,1.6673 L 17.9578,1.5284 L 17.9574,1.3895 L 17.9569,1.2505 L 17.9566,1.1116 L 17.9563,0.9727 L 17.956,0.8337 L 17.9557,0.6948 L 17.9555,0.5559 L 17.9554,0.417 L 17.9553,0.278 L 17.9552,0.1391 L 17.9552,0.0002 L 17.9552,-0.1388 L 17.9553,-0.2777 L 17.9554,-0.4166 L 17.9555,-0.5555 L 17.9557,-0.6945 L 17.956,-0.8334 L 17.9563,-0.9723 L 17.9566,-1.1113 L 17.9569,-1.2502 L 17.9574,-1.3891 L 17.9578,-1.528 L 17.9583,-1.667 L 17.9589,-1.8059 L 17.9595,-1.9448 L 17.9602,-2.0838 L 17.9609,-2.2227 L 17.9617,-2.3616 L 17.9625,-2.5005 L 17.9634,-2.6395 L 17.9644,-2.7784 L 17.9655,-2.9173 L 17.9666,-3.0562 L 17.9678,-3.1952 L 17.9691,-3.3341 L 17.9705,-3.473 L 17.9721,-3.6119 L 17.9737,-3.7508 L 17.9755,-3.8898 L 17.9775,-4.0287 L 17.9796,-4.1676 L 17.9821,-4.3065 L 17.9848,-4.4454 L 17.988,-4.5843 L 17.9919,-4.7232 L 17.9971,-4.862 L 18.0098,-5.0" />
      <path d="M 18.0103,4.9998 L 18.0102,4.9998 L 18.0102,4.9999 L 18.0101,4.9999 L 18.0101,5.0 L 18.01,5.0 L 18.0099,5.0 L 18.0098,5.0" />
      <path d="M 12.9128,1.25 L 12.945,1.25 L 12.9772,1.25 L 13.0094,1.25 L 13.0417,1.25 L 13.0739,1.25 L 13.1061,1.25 L 13.1383,1.25 L 13.1706,1.25 L 13.2028,1.25 L 13.235,1.25 L 13.2672,1.25 L 13.2995,1.25 L 13.3317,1.25 L 13.3639,1.25 L 13.3961,1.25 L 13.4284,1.25 L 13.4606,1.25 L 13.4928,1.25 L 13.525,1.25 L 13.5573,1.25 L 13.5895,1.25 L 13.6217,1.25 L 13.6539,1.25 L 13.6862,1.25 L 13.7184,1.25 L 13.7506,1.25 L 13.7828,1.25 L 13.8151,1.25 L 13.8473,1.25 L 13.8795,1.25 L 13.9118,1.25 L 13.944,1.25 L 13.9762,1.25 L 14.0084,1.25 L 14.0407,1.25 L 14.0729,1.25 L 14.1051,1.25 L 14.1373,1.25 L 14.1696,1.25 L 14.2018,1.25 L 14.234,1.25 L 14.2662,1.25 L 14.2985,1.25 L 14.3307,1.25 L 14.3629,1.25 L 14.3951,1.25 L 14.4274,1.25 L 14.4596,1.25 L 14.4918,1.25 L 14.524,1.25 L 14.5563,1.25 L 14.5885,1.25 L 14.6207,1.25 L 14.6529,1.25 L 14.6852,1.25 L 14.7174,1.25 L 14.7496,1.25 L 14.7818,1.25 L 14.8141,1.25 L 14.8463,1.25 L 14.8785,1.25 L 14.9107,1.25 L 14.943,1.25 L 14.9752,1.25 L 15.0074,1.25 L 15.0396,1.25 L 15.0719,1.25 L 15.1041,1.25 L 15.1363,1.25 L 15.1685,1.25 L 15.2008,1.25 L 15.233,1.25" />
      <path d="M 12.9128,-1.25 L 12.945,-1.25 L 12.9772,-1.25 L 13.0094,-1.25 L 13.0417,-1.25 L 13.0739,-1.25 L 13.1061,-1.25 L 13.1383,-1.25 L 13.1706,-1.25 L 13.2028,-1.25 L 13.235,-1.25 L 13.2672,-1.25 L 13.2995,-1.25 L 13.3317,-1.25 L 13.3639,-1.25 L 13.3961,-1.25 L 13.4284,-1.25 L 13.4606,-1.25 L 13.4928,-1.25 L 13.525,-1.25 L 13.5573,-1.25 L 13.5895,-1.25 L 13.6217,-1.25 L 13.6539,-1.25 L 13.6862,-1.25 L 13.7184,-1.25 L 13.7506,-1.25 L 13.7828,-1.25 L 13.8151,-1.25 L 13.8473,-1.25 L 13.8795,-1.25 L 13.9118,-1.25 L 13.944,-1.25 L 13.9762,-1.25 L 14.0084,-1.25 L 14.0407,-1.25 L 14.0729,-1.25 L 14.1051,-1.25 L 14.1373,-1.25 L 14.1696,-1.25 L 14.2018,-1.25 L 14.234,-1.25 L 14.2662,-1.25 L 14.2985,-1.25 L 14.3307,-1.25 L 14.3629,-1.25 L 14.3951,-1.25 L 14.4274,-1.25 L 14.4596,-1.25 L 14.4918,-1.25 L 14.524,-1.25 L 14.5563,-1.25 L 14.5885,-1.25 L 14.6207,-1.25 L 14.6529,-1.25 L 14.6852,-1.25 L 14.7174,-1.25 L 14.7496,-1.25 L 14.7818,-1.25 L 14.8141,-1.25 L 14.8463,-1.25 L 14.8785,-1.25 L 14.9107,-1.25 L 14.943,-1.25 L 14.9752,-1.25 L 15.0074,-1.25 L 15.0396,-1.25 L 15.0719,-1.25 L 15.1041,-1.25 L 15.1363,-1.25 L 15.1685,-1.25 L 15.2008,-1.25 L 15.233,-1.25" />
      <path d="M 15.387,1.25 L 15.3848,1.25 L 15.3827,1.25 L 15.3806,1.25 L 15.3784,1.25 L 15.3763,1.25 L 15.3741,1.25 L 15.372,1.25 L 15.3699,1.25 L 15.3677,1.25 L 15.3656,1.25 L 15.3634,1.25 L 15.3613,1.25 L 15.3592,1.25 L 15.357,1.25 L 15.3549,1.25 L 15.3528,1.25 L 15.3506,1.25 L 15.3485,1.25 L 15.3463,1.25 L 15.3442,1.25 L 15.3421,1.25 L 15.3399,1.25 L 15.3378,1.25 L 15.3356,1.25 L 15.3335,1.25 L 15.3314,1.25 L 15.3292,1.25 L 15.3271,1.25 L 15.325,1.25 L 15.3228,1.25 L 15.3207,1.25 L 15.3185,1.25 L 15.3164,1.25 L 15.3143,1.25 L 15.3121,1.25 L 15.31,1.25 L 15.3078,1.25 L 15.3057,1.25 L 15.3036,1.25 L 15.3014,1.25 L 15.2993,1.25 L 15.2971,1.25 L 15.295,1.25 L 15.2929,1.25 L 15.2907,1.25 L 15.2886,1.25 L 15.2865,1.25 L 15.2843,1.25 L 15.2822,1.25 L 15.28,1.25 L 15.2779,1.25 L 15.2758,1.25 L 15.2736,1.25 L 15.2715,1.25 L 15.2693,1.25 L 15.2672,1.25 L 15.2651,1.25 L 15.2629,1.25 L 15.2608,1.25 L 15.2586,1.25 L 15.2565,1.25 L 15.2544,1.25 L 15.2522,1.25 L 15.2501,1.25 L 15.248,1.25 L 15.2458,1.25 L 15.2437,1.25 L 15.2415,1.25 L 15.2394,1.25 L 15.2373,1.25 L 15.2351,1.25 L 15.233,1.25" />
      <path d="M 15.387,-1.25 L 15.3848,-1.25 L 15.3827,-1.25 L 15.3806,-1.25 L 15.3784,-1.25 L 15.3763,-1.25 L 15.3741,-1.25 L 15.372,-1.25 L 15.3699,-1.25 L 15.3677,-1.25 L 15.3656,-1.25 L 15.3634,-1.25 L 15.3613,-1.25 L 15.3592,-1.25 L 15.357,-1.25 L 15.3549,-1.25 L 15.3528,-1.25 L 15.3506,-1.25 L 15.3485,-1.25 L 15.3463,-1.25 L 15.3442,-1.25 L 15.3421,-1.25 L 15.3399,-1.25 L 15.3378,-1.25 L 15.3356,-1.25 L 15.3335,-1.25 L 15.3314,-1.25 L 15.3292,-1.25 L 15.3271,-1.25 L 15.325,-1.25 L 15.3228,-1.25 L 15.3207,-1.25 L 15.3185,-1.25 L 15.3164,-1.25 L 15.3143,-1.25 L 15.3121,-1.25 L 15.31,-1.25 L 15.3078,-1.25 L 15.3057,-1.25 L 15.3036,-1.25 L 15.3014,-1.25 L 15.2993,-1.25 L 15.2971,-1.25 L 15.295,-1.25 L 15.2929,-1.25 L 15.2907,-1.25 L 15.2886,-1.25 L 15.2865,-1.25 L 15.2843,-1.25 L 15.2822,-1.25 L 15.28,-1.25 L 15.2779,-1.25 L 15.2758,-1.25 L 15.2736,-1.25 L 15.2715,-1.25 L 15.2693,-1.25 L 15.2672,-1.25 L 15.2651,-1.25 L 15.2629,-1.25 L 15.2608,-1.25 L 15.2586,-1.25 L 15.2565,-1.25 L 15.2544,-1.25 L 15.2522,-1.25 L 15.2501,-1.25 L 15.248,-1.25 L 15.2458,-1.25 L 15.2437,-1.25 L 15.2415,-1.25 L 15.2394,-1.25 L 15.2373,-1.25 L 15.2351,-1.25 L 15.233,-1.25" />
      <path d="M 18.0098,-5.0 L 18.0099,-5.0 L 18.01,-5.0 L 18.0101,-5.0" />
    </g>
    <g fill="none" stroke="rgb(0,0,0)" stroke-width="0.2" id="Center" stroke-dasharray="6.35 1.27 1.27 1.27">
      <line x1="0.0" y1="0.0" x2="-11.7228" y2="0.0" />
      <line x1="0.0" y1="0.0" x2="11.7228" y2="0.0" />
      <line x1="0.0" y1="0.0" x2="0.0" y2="-11.81" />
      <line x1="0.0" y1="0.0" x2="0.0" y2="11.81" />
      <line x1="30.4877" y1="0.0" x2="10.1028" y2="0.0" />
      <line x1="30.4877" y1="0.0" x2="50.8726" y2="0.0" />
    </g>
  </g>
</svg>