<?xml version='1.0' encoding='utf-8'?>
<svg width="29.6mm" height="25.4mm" viewBox="-12.7 -12.7 29.6 25.4" version="1.1" xmlns="http://www.w3.org/2000/svg">
  <g transform="scale(1,-1)" stroke-linecap="round">
    <g fill="none" stroke="rgb(0,0,0)" stroke-width="0.4" id="Visible">
      <path d="M 9.0,0.0 L 8.9658,0.7844 L 8.8633,1.5628 L 8.6933,2.3294 L 8.4572,3.0782 L 8.1568,3.8036 L 7.7942,4.5 L 7.3724,5.1622 L 6.8944,5.7851 L 6.364,6.364 L 5.7851,6.8944 L 5.1622,7.3724 L 4.5,7.7942 L 3.8036,8.1568 L 3.0782,8.4572 L 2.3294,8.6933 L 1.5628,8.8633 L 0.7844,8.9658 L 0.0,9.0 L -0.7844,8.9658 L -1.5628,8.8633 L -2.3294,8.6933 L -3.0782,8.4572 L -3.8036,8.1568 L -4.5,7.7942 L -5.1622,7.3724 L -5.7851,6.8944 L -6.364,6.364 L -6.8944,5.7851 L -7.3724,5.1622 L -7.7942,4.5 L -8.1568,3.8036 L -8.4572,3.0782 L -8.6933,2.3294 L -8.8633,1.5628 L -8.9658,0.7844 L -9.0,-0.0 L -8.9658,-0.7844 L -8.8633,-1.5628 L -8.6933,-2.3294 L -8.4572,-3.0782 L -8.1568,-3.8036 L -7.7942,-4.5 L -7.3724,-5.1622 L -6.8944,-5.7851 L -6.364,-6.364 L -5.7851,-6.8944 L -5.1622,-7.3724 L -4.5,-7.7942 L -3.8036,-8.1568 L -3.0782,-8.4572 L -2.3294,-8.6933 L -1.5628,-8.8633 L -0.7844,-8.9658 L -0.0,-9.0 L 0.7844,-8.9658 L 1.5628,-8.8633 L 2.3294,-8.6933 L 3.0782,-8.4572 L 3.8036,-8.1568 L 4.5,-7.7942 L 5.1622,-7.3724 L 5.7851,-6.8944 L 6.364,-6.364 L 6.8944,-5.7851 L 7.3724,-5.1622 L 7.7942,-4.5 L 8.1568,-3.8036 L 8.4572,-3.0782 L 8.6933,-2.3294 L 8.8633,-1.5628 L 8.9658,-0.7844 L 9.0,0.0" />
      <path d="M 6.0,0.0 L 5.9772,0.5229 L 5.9088,1.0419 L 5.7956,1.5529 L 5.6382,2.0521 L 5.4378,2.5357 L 5.1962,3.0 L 4.9149,3.4415 L 4.5963,3.8567 L 4.2426,4.2426 L 3.8567,4.5963 L 3.4415,4.9149 L 3.0,5.1962 L 2.5357,5.4378 L 2.0521,5.6382 L 1.5529,5.7956 L 1.0419,5.9088 L 0.5229,5.9772 L 0.0,6.0 L -0.5229,5.9772 L -1.0419,5.9088 L -1.5529,5.7956 L -2.0521,5.6382 L -2.5357,5.4378 L -3.0,5.1962 L -3.4415,4.9149 L -3.8567,4.5963 L -4.2426,4.2426 L -4.5963,3.8567 L -4.9149,3.4415 L -5.1962,3.0 L -5.4378,2.5357 L -5.6382,2.0521 L -5.7956,1.5529 L -5.9088,1.0419 L -5.9772,0.5229 L -6.0,-0.0 L -5.9772,-0.5229 L -5.9088,-1.0419 L -5.7956,-1.5529 L -5.6382,-2.0521 L -5.4378,-2.5357 L -5.1962,-3.0 L -4.9149,-3.4415 L -4.5963,-3.8567 L -4.2426,-4.2426 L -3.8567,-4.5963 L -3.4415,-4.9149 L -3.0,-5.1962 L -2.5357,-5.4378 L -2.0521,-5.6382 L -1.5529,-5.7956 L -1.0419,-5.9088 L -0.5229,-5.9772 L -0.0,-6.0 L 0.5229,-5.9772 L 1.0419,-5.9088 L 1.5529,-5.7956 L 2.0521,-5.6382 L 2.5357,-5.4378 L 3.0,-5.1962 L 3.4415,-4.9149 L 3.8567,-4.5963 L 4.2426,-4.2426 L 4.5963,-3.8567 L 4.9149,-3.4415 L 5.1962,-3.0 L 5.4378,-2.5357 L 5.6382,-2.0521 L 5.7956,-1.5529 L 5.9088,-1.0419 L 5.9772,-0.5229 L 6.0,0.0" />
      <path d="M 13.0,-9.0 L 13.0,-8.75 L 13.0,-8.5 L 13.0,-8.25 L 13.0,-8.0 L 13.0,-7.75 L 13.0,-7.5 L 13.0,-7.25 L 13.0,-7.0 L 13.0,-6.75 L 13.0,-6.5 L 13.0,-6.25 L 13.0,-6.0 L 13.0,-5.75 L 13.0,-5.5 L 13.0,-5.25 L 13.0,-5.0 L 13.0,-4.75 L 13.0,-4.5 L 13.0,-4.25 L 13.0,-4.0 L 13.0,-3.75 L 13.0,-3.5 L 13.0,-3.25 L 13.0,-3.0 L 13.0,-2.75 L 13.0,-2.5 L 13.0,-2.25 L 13.0,-2.0 L 13.0,-1.75 L 13.0,-1.5 L 13.0,-1.25 L 13.0,-1.0 L 13.0,-0.75 L 13.0,-0.5 L 13.0,-0.25 L 13.0,0.0 L 13.0,0.25 L 13.0,0.5 L 13.0,0.75 L 13.0,1.0 L 13.0,1.25 L 13.0,1.5 L 13.0,1.75 L 13.0,2.0 L 13.0,2.25 L 13.0,2.5 L 13.0,2.75 L 13.0,3.0 L 13.0,3.25 L 13.0,3.5 L 13.0,3.75 L 13.0,4.0 L 13.0,4.25 L 13.0,4.5 L 13.0,4.75 L 13.0,5.0 L 13.0,5.25 L 13.0,5.5 L 13.0,5.75 L 13.0,6.0 L 13.0,6.25 L 13.0,6.5 L 13.0,6.75 L 13.0,7.0 L 13.0,7.25 L 13.0,7.5 L 13.0,7.75 L 13.0,8.0 L 13.0,8.25 L 13.0,8.5 L 13.0,8.75 L 13.0,9.0" />
      <path d="M 13.2,9.0 L 13.1972,9.0 L 13.1944,9.0 L 13.1917,9.0 L 13.1889,9.0 L 13.1861,9.0 L 13.1833,9.0 L 13.1806,9.0 L 13.1778,9.0 L 13.175,9.0 L 13.1722,9.0 L 13.1694,9.0 L 13.1667,9.0 L 13.1639,9.0 L 13.1611,9.0 L 13.1583,9.0 L 13.1556,9.0 L 13.1528,9.0 L 13.15,9.0 L 13.1472,9.0 L 13.1444,9.0 L 13.1417,9.0 L 13.1389,9.0 L 13.1361,9.0 L 13.1333,9.0 L 13.1306,9.0 L 13.1278,9.0 L 13.125,9.0 L 13.1222,9.0 L 13.1194,9.0 L 13.1167,9.0 L 13.1139,9.0 L 13.1111,9.0 L 13.1083,9.0 L 13.1056,9.0 L 13.1028,9.0 L 13.1,9.0 L 13.0972,9.0 L 13.0944,9.0 L 13.0917,9.0 L 13.0889,9.0 L 13.0861,9.0 L 13.0833,9.0 L 13.0806,9.0 L 13.0778,9.0 L 13.075,9.0 L 13.0722,9.0 L 13.0694,9.0 L 13.0667,9.0 L 13.0639,9.0 L 13.0611,9.0 L 13.0583,9.0 L 13.0556,9.0 L 13.0528,9.0 L 13.05,9.0 L 13.0472,9.0 L 13.0444,9.0 L 13.0417,9.0 L 13.0389,9.0 L 13.0361,9.0 L 13.0333,9.0 L 13.0306,9.0 L 13.0278,9.0 L 13.025,9.0 L 13.0222,9.0 L 13.0194,9.0 L 13.0167,9.0 L 13.0139,9.0 L 13.0111,9.0 L 13.0083,9.0 L 13.0056,9.0 L 13.0028,9.0 L 13.0,9.0" />
      <path d="M 13.2,-9.0 L 13.2,-8.75 L 13.2,-8.5 L 13.2,-8.25 L 13.2,-8.0 L 13.2,-7.75 L 13.2,-7.5 L 13.2,-7.25 L 13.2,-7.0 L 13.2,-6.75 L 13.2,-6.5 L 13.2,-6.25 L 13.2,-6.0 L 13.2,-5.75 L 13.2,-5.5 L 13.2,-5.25 L 13.2,-5.0 L 13.2,-4.75 L 13.2,-4.5 L 13.2,-4.25 L 13.2,-4.0 L 13.2,-3.75 L 13.2,-3.5 L 13.2,-3.25 L 13.2,-3.0 L 13.2,-2.75 L 13.2,-2.5 L 13.2,-2.25 L 13.2,-2.0 L 13.2,-1.75 L 13.2,-1.5 L 13.2,-1.25 L 13.2,-1.0 L 13.2,-0.75 L 13.2,-0.5 L 13.2,-0.25 L 13.2,0.0 L 13.2,0.25 L 13.2,0.5 L 13.2,0.75 L 13.2,1.0 L 13.2,1.25 L 13.2,1.5 L 13.2,1.75 L 13.2,2.0 L 13.2,2.25 L 13.2,2.5 L 13.2,2.75 L 13.2,3.0 L 13.2,3.25 L 13.2,3.5 L 13.2,3.75 L 13.2,4.0 L 13.2,4.25 L 13.2,4.5 L 13.2,4.75 L 13.2,5.0 L 13.2,5.25 L 13.2,5.5 L 13.2,5.75 L 13.2,6.0 L 13.2,6.25 L 13.2,6.5 L 13.2,6.75 L 13.2,7.0 L 13.2,7.25 L 13.2,7.5 L 13.2,7.75 L 13.2,8.0 L 13.2,8.25 L 13.2,8.5 L 13.2,8.75 L 13.2,9.0" />
      <path d="M 13.2,-9.0 L 13.1972,-9.0 L 13.1944,-9.0 L 13.1917,-9.0 L 13.1889,-9.0 L 13.1861,-9.0 L 13.1833,-9.0 L 13.1806,-9.0 L 13.1778,-9.0 L 13.175,-9.0 L 13.1722,-9.0 L 13.1694,-9.0 L 13.1667,-9.0 L 13.1639,-9.0 L 13.1611,-9.0 L 13.1583,-9.0 L 13.1556,-9.0 L 13.1528,-9.0 L 13.15,-9.0 L 13.1472,-9.0 L 13.1444,-9.0 L 13.1417,-9.0 L 13.1389,-9.0 L 13.1361,-9.0 L 13.1333,-9.0 L 13.1306,-9.0 L 13.1278,-9.0 L 13.125,-9.0 L 13.1222,-9.0 L 13.1194,-9.0 L 13.1167,-9.0 L 13.1139,-9.0 L 13.1111,-9.0 L 13.1083,-9.0 L 13.1056,-9.0 L 13.1028,-9.0 L 13.1,-9.0 L 13.0972,-9.0 L 13.0944,-9.0 L 13.0917,-9.0 L 13.0889,-9.0 L 13.0861,-9.0 L 13.0833,-9.0 L 13.0806,-9.0 L 13.0778,-9.0 L 13.075,-9.0 L 13.0722,-9.0 L 13.0694,-9.0 L 13.0667,-9.0 L 13.0639,-9.0 L 13.0611,-9.0 L 13.0583,-9.0 L 13.0556,-9.0 L 13.0528,-9.0 L 13.05,-9.0 L 13.0472,-9.0 L 13.0444,-9.0 L 13.0417,-9.0 L 13.0389,-9.0 L 13.0361,-9.0 L 13.0333,-9.0 L 13.0306,-9.0 L 13.0278,-9.0 L 13.025,-9.0 L 13.0222,-9.0 L 13.0194,-9.0 L 13.0167,-9.0 L 13.0139,-9.0 L 13.0111,-9.0 L 13.0083,-9.0 L 13.0056,-9.0 L 13.0028,-9.0 L 13.0,-9.0" />
    </g>
    <g fill="none" stroke="rgb(110,110,110)" stroke-width="0.3" id="Hidden" stroke-dasharray="3.6 0.9">
      <path d="M 9.0,0.0 L 8.9658,0.7844 L 8.8633,1.5628 L 8.6933,2.3294 L 8.4572,3.0782 L 8.1568,3.8036 L 7.7942,4.5 L 7.3724,5.1622 L 6.8944,5.7851 L 6.364,6.364 L 5.7851,6.8944 L 5.1622,7.3724 L 4.5,7.7942 L 3.8036,8.1568 L 3.0782,8.4572 L 2.3294,8.6933 L 1.5628,8.8633 L 0.7844,8.9658 L 0.0,9.0 L -0.7844,8.9658 L -1.5628,8.8633 L -2.3294,8.6933 L -3.0782,8.4572 L -3.8036,8.1568 L -4.5,7.7942 L -5.1622,7.3724 L -5.7851,6.8944 L -6.364,6.364 L -6.8944,5.7851 L -7.3724,5.1622 L -7.7942,4.5 L -8.1568,3.8036 L -8.4572,3.0782 L -8.6933,2.3294 L -8.8633,1.5628 L -8.9658,0.7844 L -9.0,-0.0 L -8.9658,-0.7844 L -8.8633,-1.5628 L -8.6933,-2.3294 L -8.4572,-3.0782 L -8.1568,-3.8036 L -7.7942,-4.5 L -7.3724,-5.1622 L -6.8944,-5.7851 L -6.364,-6.364 L -5.7851,-6.8944 L -5.1622,-7.3724 L -4.5,-7.7942 L -3.8036,-8.1568 L -3.0782,-8.4572 L -2.3294,-8.6933 L -1.5628,-8.8633 L -0.7844,-8.9658 L -0.0,-9.0 L 0.7844,-8.9658 L 1.5628,-8.8633 L 2.3294,-8.6933 L 3.0782,-8.4572 L 3.8036,-8.1568 L 4.5,-7.7942 L 5.1622,-7.3724 L 5.7851,-6.8944 L 6.364,-6.364 L 6.8944,-5.7851 L 7.3724,-5.1622 L 7.7942,-4.5 L 8.1568,-3.8036 L 8.4572,-3.0782 L 8.6933,-2.3294 L 8.8633,-1.5628 L 8.9658,-0.7844 L 9.0,0.0" />
      <path d="M 6.0,0.0 L 5.9772,0.5229 L 5.9088,1.0419 L 5.7956,1.5529 L 5.6382,2.0521 L 5.4378,2.5357 L 5.1962,3.0 L 4.9149,3.4415 L 4.5963,3.8567 L 4.2426,4.2426 L 3.8567,4.5963 L 3.4415,4.9149 L 3.0,5.1962 L 2.5357,5.4378 L 2.0521,5.6382 L 1.5529,5.7956 L 1.0419,5.9088 L 0.5229,5.9772 L 0.0,6.0 L -0.5229,5.9772 L -1.0419,5.9088 L -1.5529,5.7956 L -2.0521,5.6382 L -2.5357,5.4378 L -3.0,5.1962 L -3.4415,4.9149 L -3.8567,4.5963 L -4.2426,4.2426 L -4.5963,3.8567 L -4.9149,3.4415 L -5.1962,3.0 L -5.4378,2.5357 L -5.6382,2.0521 L -5.7956,1.5529 L -5.9088,1.0419 L -5.9772,0.5229 L -6.0,-0.0 L -5.9772,-0.5229 L -5.9088,-1.0419 L -5.7956,-1.5529 L -5.6382,-2.0521 L -5.4378,-2.5357 L -5.1962,-3.0 L -4.9149,-3.4415 L -4.5963,-3.8567 L -4.2426,-4.2426 L -3.8567,-4.5963 L -3.4415,-4.9149 L -3.0,-5.1962 L -2.5357,-5.4378 L -2.0521,-5.6382 L -1.5529,-5.7956 L -1.0419,-5.9088 L -0.5229,-5.9772 L -0.0,-6.0 L 0.5229,-5.9772 L 1.0419,-5.9088 L 1.5529,-5.7956 L 2.0521,-5.6382 L 2.5357,-5.4378 L 3.0,-5.1962 L 3.4415,-4.9149 L 3.8567,-4.5963 L 4.2426,-4.2426 L 4.5963,-3.8567 L 4.9149,-3.4415 L 5.1962,-3.0 L 5.4378,-2.5357 L 5.6382,-2.0521 L 5.7956,-1.5529 L 5.9088,-1.0419 L 5.9772,-0.5229 L 6.0,0.0" />
      <path d="M 13.0,9.0 L 13.0,8.75 L 13.0,8.5 L 13.0,8.25 L 13.0,8.0 L 13.0,7.75 L 13.0,7.5 L 13.0,7.25 L 13.0,7.0 L 13.0,6.75 L 13.0,6.5 L 13.0,6.25 L 13.0,6.0 L 13.0,5.75 L 13.0,5.5 L 13.0,5.25 L 13.0,5.0 L 13.0,4.75 L 13.0,4.5 L 13.0,4.25 L 13.0,4.0 L 13.0,3.75 L 13.0,3.5 L 13.0,3.25 L 13.0,3.0 L 13.0,2.75 L 13.0,2.5 L 13.0,2.25 L 13.0,2.0 L 13.0,1.75 L 13.0,1.5 L 13.0,1.25 L 13.0,1.0 L 13.0,0.75 L 13.0,0.5 L 13.0,0.25 L 13.0,0.0 L 13.0,-0.25 L 13.0,-0.5 L 13.0,-0.75 L 13.0,-1.0 L 13.0,-1.25 L 13.0,-1.5 L 13.0,-1.75 L 13.0,-2.0 L 13.0,-2.25 L 13.0,-2.5 L 13.0,-2.75 L 13.0,-3.0 L 13.0,-3.25 L 13.0,-3.5 L 13.0,-3.75 L 13.0,-4.0 L 13.0,-4.25 L 13.0,-4.5 L 13.0,-4.75 L 13.0,-5.0 L 13.0,-5.25 L 13.0,-5.5 L 13.0,-5.75 L 13.0,-6.0 L 13.0,-6.25 L 13.0,-6.5 L 13.0,-6.75 L 13.0,-7.0 L 13.0,-7.25 L 13.0,-7.5 L 13.0,-7.75 L 13.0,-8.0 L 13.0,-8.25 L 13.0,-8.5 L 13.0,-8.75 L 13.0,-9.0" />
      <path d="M 13.2,9.0 L 13.2,8.75 L 13.2,8.5 L 13.2,8.25 L 13.2,8.0 L 13.2,7.75 L 13.2,7.5 L 13.2,7.25 L 13.2,7.0 L 13.2,6.75 L 13.2,6.5 L 13.2,6.25 L 13.2,6.0 L 13.2,5.75 L 13.2,5.5 L 13.2,5.25 L 13.2,5.0 L 13.2,4.75 L 13.2,4.5 L 13.2,4.25 L 13.2,4.0 L 13.2,3.75 L 13.2,3.5 L 13.2,3.25 L 13.2,3.0 L 13.2,2.75 L 13.2,2.5 L 13.2,2.25 L 13.2,2.0 L 13.2,1.75 L 13.2,1.5 L 13.2,1.25 L 13.2,1.0 L 13.2,0.75 L 13.2,0.5 L 13.2,0.25 L 13.2,0.0 L 13.2,-0.25 L 13.2,-0.5 L 13.2,-0.75 L 13.2,-1.0 L 13.2,-1.25 L 13.2,-1.5 L 13.2,-1.75 L 13.2,-2.0 L 13.2,-2.25 L 13.2,-2.5 L 13.2,-2.75 L 13.2,-3.0 L 13.2,-3.25 L 13.2,-3.5 L 13.2,-3.75 L 13.2,-4.0 L 13.2,-4.25 L 13.2,-4.5 L 13.2,-4.75 L 13.2,-5.0 L 13.2,-5.25 L 13.2,-5.5 L 13.2,-5.75 L 13.2,-6.0 L 13.2,-6.25 L 13.2,-6.5 L 13.2,-6.75 L 13.2,-7.0 L 13.2,-7.25 L 13.2,-7.5 L 13.2,-7.75 L 13.2,-8.0 L 13.2,-8.25 L 13.2,-8.5 L 13.2,-8.75 L 13.2,-9.0" />
      <path d="M 13.0,6.0 L 13.0,5.8333 L 13.0,5.6667 L 13.0,5.5 L 13.0,5.3333 L 13.0,5.1667 L 13.0,5.0 L 13.0,4.8333 L 13.0,4.6667 L 13.0,4.5 L 13.0,4.3333 L 13.0,4.1667 L 13.0,4.0 L 13.0,3.8333 L 13.0,3.6667 L 13.0,3.5 L 13.0,3.3333 L 13.0,3.1667 L 13.0,3.0 L 13.0,2.8333 L 13.0,2.6667 L 13.0,2.5 L 13.0,2.3333 L 13.0,2.1667 L 13.0,2.0 L 13.0,1.8333 L 13.0,1.6667 L 13.0,1.5 L 13.0,1.3333 L 13.0,1.1667 L 13.0,1.0 L 13.0,0.8333 L 13.0,0.6667 L 13.0,0.5 L 13.0,0.3333 L 13.0,0.1667 L 13.0,0.0 L 13.0,-0.1667 L 13.0,-0.3333 L 13.0,-0.5 L 13.0,-0.6667 L 13.0,-0.8333 L 13.0,-1.0 L 13.0,-1.1667 L 13.0,-1.3333 L 13.0,-1.5 L 13.0,-1.6667 L 13.0,-1.8333 L 13.0,-2.0 L 13.0,-2.1667 L 13.0,-2.3333 L 13.0,-2.5 L 13.0,-2.6667 L 13.0,-2.8333 L 13.0,-3.0 L 13.0,-3.1667 L 13.0,-3.3333 L 13.0,-3.5 L 13.0,-3.6667 L 13.0,-3.8333 L 13.0,-4.0 L 13.0,-4.1667 L 13.0,-4.3333 L 13.0,-4.5 L 13.0,-4.6667 L 13.0,-4.8333 L 13.0,-5.0 L 13.0,-5.1667 L 13.0,-5.3333 L 13.0,-5.5 L 13.0,-5.6667 L 13.0,-5.8333 L 13.0,-6.0" />
      <path d="M 13.0,-6.0 L 13.0,-5.8333 L 13.0,-5.6667 L 13.0,-5.5 L 13.0,-5.3333 L 13.0,-5.1667 L 13.0,-5.0 L 13.0,-4.8333 L 13.0,-4.6667 L 13.0,-4.5 L 13.0,-4.3333 L 13.0,-4.1667 L 13.0,-4.0 L 13.0,-3.8333 L 13.0,-3.6667 L 13.0,-3.5 L 13.0,-3.3333 L 13.0,-3.1667 L 13.0,-3.0 L 13.0,-2.8333 L 13.0,-2.6667 L 13.0,-2.5 L 13.0,-2.3333 L 13.0,-2.1667 L 13.0,-2.0 L 13.0,-1.8333 L 13.0,-1.6667 L 13.0,-1.5 L 13.0,-1.3333 L 13.0,-1.1667 L 13.0,-1.0 L 13.0,-0.8333 L 13.0,-0.6667 L 13.0,-0.5 L 13.0,-0.3333 L 13.0,-0.1667 L 13.0,0.0 L 13.0,0.1667 L 13.0,0.3333 L 13.0,0.5 L 13.0,0.6667 L 13.0,0.8333 L 13.0,1.0 L 13.0,1.1667 L 13.0,1.3333 L 13.0,1.5 L 13.0,1.6667 L 13.0,1.8333 L 13.0,2.0 L 13.0,2.1667 L 13.0,2.3333 L 13.0,2.5 L 13.0,2.6667 L 13.0,2.8333 L 13.0,3.0 L 13.0,3.1667 L 13.0,3.3333 L 13.0,3.5 L 13.0,3.6667 L 13.0,3.8333 L 13.0,4.0 L 13.0,4.1667 L 13.0,4.3333 L 13.0,4.5 L 13.0,4.6667 L 13.0,4.8333 L 13.0,5.0 L 13.0,5.1667 L 13.0,5.3333 L 13.0,5.5 L 13.0,5.6667 L 13.0,5.8333 L 13.0,6.0" />
      <path d="M 13.2,6.0 L 13.2,5.8333 L 13.2,5.6667 L 13.2,5.5 L 13.2,5.3333 L 13.2,5.1667 L 13.2,5.0 L 13.2,4.8333 L 13.2,4.6667 L 13.2,4.5 L 13.2,4.3333 L 13.2,4.1667 L 13.2,4.0 L 13.2,3.8333 L 13.2,3.6667 L 13.2,3.5 L 13.2,3.3333 L 13.2,3.1667 L 13.2,3.0 L 13.2,2.8333 L 13.2,2.6667 L 13.2,2.5 L 13.2,2.3333 L 13.2,2.1667 L 13.2,2.0 L 13.2,1.8333 L 13.2,1.6667 L 13.2,1.5 L 13.2,1.3333 L 13.2,1.1667 L 13.2,1.0 L 13.2,0.8333 L 13.2,0.6667 L 13.2,0.5 L 13.2,0.3333 L 13.2,0.1667 L 13.2,0.0 L 13.2,-0.1667 L 13.2,-0.3333 L 13.2,-0.5 L 13.2,-0.6667 L 13.2,-0.8333 L 13.2,-1.0 L 13.2,-1.1667 L 13.2,-1.3333 L 13.2,-1.5 L 13.2,-1.6667 L 13.2,-1.8333 L 13.2,-2.0 L 13.2,-2.1667 L 13.2,-2.3333 L 13.2,-2.5 L 13.2,-2.6667 L 13.2,-2.8333 L 13.2,-3.0 L 13.2,-3.1667 L 13.2,-3.3333 L 13.2,-3.5 L 13.2,-3.6667 L 13.2,-3.8333 L 13.2,-4.0 L 13.2,-4.1667 L 13.2,-4.3333 L 13.2,-4.5 L 13.2,-4.6667 L 13.2,-4.8333 L 13.2,-5.0 L 13.2,-5.1667 L 13.2,-5.3333 L 13.2,-5.5 L 13.2,-5.6667 L 13.2,-5.8333 L 13.2,-6.0" />
      <path d="M 13.2,-6.0 L 13.2,-5.8333 L 13.2,-5.6667 L 13.2,-5.5 L 13.2,-5.3333 L 13.2,-5.1667 L 13.2,-5.0 L 13.2,-4.8333 L 13.2,-4.6667 L 13.2,-4.5 L 13.2,-4.3333 L 13.2,-4.1667 L 13.2,-4.0 L 13.2,-3.8333 L 13.2,-3.6667 L 13.2,-3.5 L 13.2,-3.3333 L 13.2,-3.1667 L 13.2,-3.0 L 13.2,-2.8333 L 13.2,-2.6667 L 13.2,-2.5 L 13.2,-2.3333 L 13.2,-2.1667 L 13.2,-2.0 L 13.2,-1.8333 L 13.2,-1.6667 L 13.2,-1.5 L 13.2,-1.3333 L 13.2,-1.1667 L 13.2,-1.0 L 13.2,-0.8333 L 13.2,-0.6667 L 13.2,-0.5 L 13.2,-0.3333 L 13.2,-0.1667 L 13.2,0.0 L 13.2,0.1667 L 13.2,0.3333 L 13.2,0.5 L 13.2,0.6667 L 13.2,0.8333 L 13.2,1.0 L 13.2,1.1667 L 13.2,1.3333 L 13.2,1.5 L 13.2,1.6667 L 13.2,1.8333 L 13.2,2.0 L 13.2,2.1667 L 13.2,2.3333 L 13.2,2.5 L 13.2,2.6667 L 13.2,2.8333 L 13.2,3.0 L 13.2,3.1667 L 13.2,3.3333 L 13.2,3.5 L 13.2,3.6667 L 13.2,3.8333 L 13.2,4.0 L 13.2,4.1667 L 13.2,4.3333 L 13.2,4.5 L 13.2,4.6667 L 13.2,4.8333 L 13.2,5.0 L 13.2,5.1667 L 13.2,5.3333 L 13.2,5.5 L 13.2,5.6667 L 13.2,5.8333 L 13.2,6.0" />
      <path d="M 13.2,6.0 L 13.1972,6.0 L 13.1944,6.0 L 13.1917,6.0 L 13.1889,6.0 L 13.1861,6.0 L 13.1833,6.0 L 13.1806,6.0 L 13.1778,6.0 L 13.175,6.0 L 13.1722,6.0 L 13.1694,6.0 L 13.1667,6.0 L 13.1639,6.0 L 13.1611,6.0 L 13.1583,6.0 L 13.1556,6.0 L 13.1528,6.0 L 13.15,6.0 L 13.1472,6.0 L 13.1444,6.0 L 13.1417,6.0 L 13.1389,6.0 L 13.1361,6.0 L 13.1333,6.0 L 13.1306,6.0 L 13.1278,6.0 L 13.125,6.0 L 13.1222,6.0 L 13.1194,6.0 L 13.1167,6.0 L 13.1139,6.0 L 13.1111,6.0 L 13.1083,6.0 L 13.1056,6.0 L 13.1028,6.0 L 13.1,6.0 L 13.0972,6.0 L 13.0944,6.0 L 13.0917,6.0 L 13.0889,6.0 L 13.0861,6.0 L 13.0833,6.0 L 13.0806,6.0 L 13.0778,6.0 L 13.075,6.0 L 13.0722,6.0 L 13.0694,6.0 L 13.0667,6.0 L 13.0639,6.0 L 13.0611,6.0 L 13.0583,6.0 L 13.0556,6.0 L 13.0528,6.0 L 13.05,6.0 L 13.0472,6.0 L 13.0444,6.0 L 13.0417,6.0 L 13.0389,6.0 L 13.0361,6.0 L 13.0333,6.0 L 13.0306,6.0 L 13.0278,6.0 L 13.025,6.0 L 13.0222,6.0 L 13.0194,6.0 L 13.0167,6.0 L 13.0139,6.0 L 13.0111,6.0 L 13.0083,6.0 L 13.0056,6.0 L 13.0028,6.0 L 13.0,6.0" />
      <path d="M 13.2,-6.0 L 13.1972,-6.0 L 13.1944,-6.0 L 13.1917,-6.0 L 13.1889,-6.0 L 13.1861,-6.0 L 13.1833,-6.0 L 13.1806,-6.0 L 13.1778,-6.0 L 13.175,-6.0 L 13.1722,-6.0 L 13.1694,-6.0 L 13.1667,-6.0 L 13.1639,-6.0 L 13.1611,-6.0 L 13.1583,-6.0 L 13.1556,-6.0 L 13.1528,-6.0 L 13.15,-6.0 L 13.1472,-6.0 L 13.1444,-6.0 L 13.1417,-6.0 L 13.1389,-6.0 L 13.1361,-6.0 L 13.1333,-6.0 L 13.1306,-6.0 L 13.1278,-6.0 L 13.125,-6.0 L 13.1222,-6.0 L 13.1194,-6.0 L 13.1167,-6.0 L 13.1139,-6.0 L 13.1111,-6.0 L 13.1083,-6.0 L 13.1056,-6.0 L 13.1028,-6.0 L 13.1,-6.0 L 13.0972,-6.0 L 13.0944,-6.0 L 13.0917,-6.0 L 13.0889,-6.0 L 13.0861,-6.0 L 13.0833,-6.0 L 13.0806,-6.0 L 13.0778,-6.0 L 13.075,-6.0 L 13.0722,-6.0 L 13.0694,-6.0 L 13.0667,-6.0 L 13.0639,-6.0 L 13.0611,-6.0 L 13.0583,-6.0 L 13.0556,-6.0 L 13.0528,-6.0 L 13.05,-6.0 L 13.0472,-6.0 L 13.0444,-6.0 L 13.0417,-6.0 L 13.0389,-6.0 L 13.0361,-6.0 L 13.0333,-6.0 L 13.0306,-6.0 L 13.0278,-6.0 L 13.025,-6.0 L 13.0222,-6.0 L 13.0194,-6.0 L 13.0167,-6.0 L 13.0139,-6.0 L 13.0111,-6.0 L 13.0083,-6.0 L 13.0056,-6.0 L 13.0028,-6.0 L 13.0,-6.0" />
    </g>
    <g fill="none" stroke="rgb(0,0,0)" stroke-width="0.2" id="Center" stroke-dasharray="6.35 1.27 1.27 1.27">
      <line x1="-10.5" y1="0.0" x2="10.5" y2="0.0" />
      <line x1="-0.0" y1="-10.5" x2="-0.0" y2="10.5" />
      <line x1="11.5" y1="0.0" x2="14.7" y2="0.0" />
    </g>
  </g>
</svg>