<?xml version='1.0' encoding='utf-8'?>
<svg width="67.1708mm" height="27.8455mm" viewBox="-14.01 -13.9228 67.1708 27.8455" version="1.1" xmlns="http://www.w3.org/2000/svg">
  <g transform="scale(1,-1)" stroke-linecap="round">
    <g fill="none" stroke="rgb(0,0,0)" stroke-width="0.4" id="Visible">
      <path d="M 0.0,7.16 L -0.0175,7.16 L -0.0349,7.1599 L -0.0524,7.1598 L -0.0698,7.1597 L -0.0873,7.1595 L -0.1047,7.1592 L -0.1221,7.159 L -0.1396,7.1586 L -0.157,7.1583 L -0.1745,7.1579 L -0.1919,7.1574 L -0.2094,7.1569 L -0.2268,7.1564 L -0.2443,7.1558 L -0.2617,7.1552 L -0.2791,7.1546 L -0.2966,7.1539 L -0.314,7.1531 L -0.3314,7.1523 L -0.3489,7.1515 L -0.3663,7.1506 L -0.3837,7.1497 L -0.4012,7.1488 L -0.4186,7.1478 L -0.436,7.1467 L -0.4534,7.1456 L -0.4708,7.1445 L -0.4882,7.1433 L -0.5056,7.1421 L -0.523,7.1409 L -0.5405,7.1396 L -0.5579,7.1382 L -0.5752,7.1369 L -0.5926,7.1354 L -0.61,7.134 L -0.6274,7.1325 L -0.6448,7.1309 L -0.6622,7.1293 L -0.6795,7.1277 L -0.6969,7.126 L -0.7143,7.1243 L -0.7316,7.1225 L -0.749,7.1207 L -0.7664,7.1189 L -0.7837,7.117 L -0.801,7.115 L -0.8184,7.1131 L -0.8357,7.1111 L -0.853,7.109 L -0.8704,7.1069 L -0.8877,7.1048 L -0.905,7.1026 L -0.9223,7.1003 L -0.9396,7.0981 L -0.9569,7.0958 L -0.9742,7.0934 L -0.9915,7.091 L -1.0088,7.0886 L -1.026,7.0861 L -1.0433,7.0836 L -1.0606,7.081 L -1.0778,7.0784 L -1.0951,7.0758 L -1.1123,7.0731 L -1.1295,7.0703 L -1.1468,7.0676 L -1.164,7.0648 L -1.1812,7.0619 L -1.1984,7.059 L -1.2156,7.0561 L -1.2328,7.0531 L -1.25,7.05" />
      <path d="M -1.25,8.9128 L -1.6033,8.856 L -1.9541,8.7853 L -2.3018,8.7007 L -2.6458,8.6023 L -2.9857,8.4903 L -3.3209,8.3649 L -3.6508,8.2263 L -3.9749,8.0747 L -4.2927,7.9103 L -4.6038,7.7334 L -4.9076,7.5443 L -5.2036,7.3432 L -5.4914,7.1305 L -5.7705,6.9066 L -6.0405,6.6718 L -6.3009,6.4264 L -6.5514,6.1708 L -6.7915,5.9055 L -7.0209,5.6309 L -7.2392,5.3473 L -7.4461,5.0553 L -7.6411,4.7553 L -7.8241,4.4478 L -7.9948,4.1333 L -8.1527,3.8122 L -8.2978,3.4851 L -8.4298,3.1525 L -8.5485,2.8149 L -8.6536,2.4728 L -8.7451,2.1269 L -8.8227,1.7776 L -8.8864,1.4254 L -8.936,1.071 L -8.9716,0.715 L -8.9929,0.3578 L -9.0,0.0 L -8.9929,-0.3578 L -8.9716,-0.715 L -8.936,-1.071 L -8.8864,-1.4254 L -8.8227,-1.7776 L -8.7451,-2.1269 L -8.6536,-2.4728 L -8.5485,-2.8149 L -8.4298,-3.1525 L -8.2978,-3.4851 L -8.1527,-3.8122 L -7.9948,-4.1333 L -7.8241,-4.4478 L -7.6411,-4.7553 L -7.4461,-5.0553 L -7.2392,-5.3473 L -7.0209,-5.6309 L -6.7915,-5.9055 L -6.5514,-6.1708 L -6.3009,-6.4264 L -6.0405,-6.6718 L -5.7705,-6.9066 L -5.4914,-7.1305 L -5.2036,-7.3432 L -4.9076,-7.5443 L -4.6038,-7.7334 L -4.2927,-7.9103 L -3.9749,-8.0747 L -3.6508,-8.2263 L -3.3209,-8.3649 L -2.9857,-8.4903 L -2.6458,-8.6023 L -2.3018,-8.7007 L -1.9541,-8.7853 L -1.6033,-8.856 L -1.25,-8.9128" />
      <path d="M -1.25,-7.05 L -1.2156,-7.0561 L -1.1812,-7.0619 L -1.1468,-7.0676 L -1.1123,-7.0731 L -1.0778,-7.0784 L -1.0433,-7.0836 L -1.0088,-7.0886 L -0.9742,-7.0934 L -0.9396,-7.0981 L -0.905,-7.1026 L -0.8704,-7.1069 L -0.8357,-7.1111 L -0.801,-7.115 L -0.7664,-7.1189 L -0.7316,-7.1225 L -0.6969,-7.126 L -0.6622,-7.1293 L -0.6274,-7.1325 L -0.5926,-7.1354 L -0.5579,-7.1382 L -0.523,-7.1409 L -0.4882,-7.1433 L -0.4534,-7.1456 L -0.4186,-7.1478 L -0.3837,-7.1497 L -0.3489,-7.1515 L -0.314,-7.1531 L -0.2791,-7.1546 L -0.2443,-7.1558 L -0.2094,-7.1569 L -0.1745,-7.1579 L -0.1396,-7.1586 L -0.1047,-7.1592 L -0.0698,-7.1597 L -0.0349,-7.1599 L -0.0,-7.16 L 0.0349,-7.1599 L 0.0698,-7.1597 L 0.1047,-7.1592 L 0.1396,-7.1586 L 0.1745,-7.1579 L 0.2094,-7.1569 L 0.2443,-7.1558 L 0.2791,-7.1546 L 0.314,-7.1531 L 0.3489,-7.1515 L 0.3837,-7.1497 L 0.4186,-7.1478 L 0.4534,-7.1456 L 0.4882,-7.1433 L 0.523,-7.1409 L 0.5579,-7.1382 L 0.5926,-7.1354 L 0.6274,-7.1325 L 0.6622,-7.1293 L 0.6969,-7.126 L 0.7316,-7.1225 L 0.7664,-7.1189 L 0.801,-7.115 L 0.8357,-7.1111 L 0.8704,-7.1069 L 0.905,-7.1026 L 0.9396,-7.0981 L 0.9742,-7.0934 L 1.0088,-7.0886 L 1.0433,-7.0836 L 1.0778,-7.0784 L 1.1123,-7.0731 L 1.1468,-7.0676 L 1.1812,-7.0619 L 1.2156,-7.0561 L 1.25,-7.05" />
      <path d="M 1.25,-8.9128 L 1.6033,-8.856 L 1.9541,-8.7853 L 2.3018,-8.7007 L 2.6458,-8.6023 L 2.9857,-8.4903 L 3.3209,-8.3649 L 3.6508,-8.2263 L 3.9749,-8.0747 L 4.2927,-7.9103 L 4.6038,-7.7334 L 4.9076,-7.5443 L 5.2036,-7.3432 L 5.4914,-7.1305 L 5.7705,-6.9066 L 6.0405,-6.6718 L 6.3009,-6.4264 L 6.5514,-6.1708 L 6.7915,-5.9055 L 7.0209,-5.6309 L 7.2392,-5.3473 L 7.4461,-5.0553 L 7.6411,-4.7553 L 7.8241,-4.4478 L 7.9948,-4.1333 L 8.1527,-3.8122 L 8.2978,-3.4851 L 8.4298,-3.1525 L 8.5485,-2.8149 L 8.6536,-2.4728 L 8.7451,-2.1269 L 8.8227,-1.7776 L 8.8864,-1.4254 L 8.936,-1.071 L 8.9716,-0.715 L 8.9929,-0.3578 L 9.0,-0.0 L 8.9929,0.3578 L 8.9716,0.715 L 8.936,1.071 L 8.8864,1.4254 L 8.8227,1.7776 L 8.7451,2.1269 L 8.6536,2.4728 L 8.5485,2.8149 L 8.4298,3.1525 L 8.2978,3.4851 L 8.1527,3.8122 L 7.9948,4.1333 L 7.8241,4.4478 L 7.6411,4.7553 L 7.4461,5.0553 L 7.2392,5.3473 L 7.0209,5.6309 L 6.7915,5.9055 L 6.5514,6.1708 L 6.3009,6.4264 L 6.0405,6.6718 L 5.7705,6.9066 L 5.4914,7.1305 L 5.2036,7.3432 L 4.9076,7.5443 L 4.6038,7.7334 L 4.2927,7.9103 L 3.9749,8.0747 L 3.6508,8.2263 L 3.3209,8.3649 L 2.9857,8.4903 L 2.6458,8.6023 L 2.3018,8.7007 L 1.9541,8.7853 L 1.6033,8.856 L 1.25,8.9128" />
      <path d="M 1.25,7.05 L 1.2328,7.0531 L 1.2156,7.0561 L 1.1984,7.059 L 1.1812,7.0619 L 1.164,7.0648 L 1.1468,7.0676 L 1.1295,7.0703 L 1.1123,7.0731 L 1.0951,7.0758 L 1.0778,7.0784 L 1.0606,7.081 L 1.0433,7.0836 L 1.026,7.0861 L 1.0088,7.0886 L 0.9915,7.091 L 0.9742,7.0934 L 0.9569,7.0958 L 0.9396,7.0981 L 0.9223,7.1003 L 0.905,7.1026 L 0.8877,7.1048 L 0.8704,7.1069 L 0.853,7.109 L 0.8357,7.1111 L 0.8184,7.1131 L 0.801,7.115 L 0.7837,7.117 L 0.7664,7.1189 L 0.749,7.1207 L 0.7316,7.1225 L 0.7143,7.1243 L 0.6969,7.126 L 0.6795,7.1277 L 0.6622,7.1293 L 0.6448,7.1309 L 0.6274,7.1325 L 0.61,7.134 L 0.5926,7.1354 L 0.5752,7.1369 L 0.5579,7.1382 L 0.5405,7.1396 L 0.523,7.1409 L 0.5056,7.1421 L 0.4882,7.1433 L 0.4708,7.1445 L 0.4534,7.1456 L 0.436,7.1467 L 0.4186,7.1478 L 0.4012,7.1488 L 0.3837,7.1497 L 0.3663,7.1506 L 0.3489,7.1515 L 0.3314,7.1523 L 0.314,7.1531 L 0.2966,7.1539 L 0.2791,7.1546 L 0.2617,7.1552 L 0.2443,7.1558 L 0.2268,7.1564 L 0.2094,7.1569 L 0.1919,7.1574 L 0.1745,7.1579 L 0.157,7.1583 L 0.1396,7.1586 L 0.1221,7.159 L 0.1047,7.1592 L 0.0873,7.1595 L 0.0698,7.1597 L 0.0524,7.1598 L 0.0349,7.1599 L 0.0175,7.16 L 0.0,7.16" />
      <path d="M -1.25,8.9128 L -1.25,8.6652 L -1.25,8.4176 L -1.25,8.17 L -1.25,7.9225 L -1.25,7.6749 L -1.25,7.4273 L -1.25,7.1797 L -1.25,6.9322 L -1.25,6.6846 L -1.25,6.437 L -1.25,6.1894 L -1.25,5.9418 L -1.25,5.6943 L -1.25,5.4467 L -1.25,5.1991 L -1.25,4.9515 L -1.25,4.704 L -1.25,4.4564 L -1.25,4.2088 L -1.25,3.9612 L -1.25,3.7137 L -1.25,3.4661 L -1.25,3.2185 L -1.25,2.9709 L -1.25,2.7233 L -1.25,2.4758 L -1.25,2.2282 L -1.25,1.9806 L -1.25,1.733 L -1.25,1.4855 L -1.25,1.2379 L -1.25,0.9903 L -1.25,0.7427 L -1.25,0.4952 L -1.25,0.2476 L -1.25,0.0 L -1.25,-0.2476 L -1.25,-0.4952 L -1.25,-0.7427 L -1.25,-0.9903 L -1.25,-1.2379 L -1.25,-1.4855 L -1.25,-1.733 L -1.25,-1.9806 L -1.25,-2.2282 L -1.25,-2.4758 L -1.25,-2.7233 L -1.25,-2.9709 L -1.25,-3.2185 L -1.25,-3.4661 L -1.25,-3.7137 L -1.25,-3.9612 L -1.25,-4.2088 L -1.25,-4.4564 L -1.25,-4.704 L -1.25,-4.9515 L -1.25,-5.1991 L -1.25,-5.4467 L -1.25,-5.6943 L -1.25,-5.9418 L -1.25,-6.1894 L -1.25,-6.437 L -1.25,-6.6846 L -1.25,-6.9322 L -1.25,-7.1797 L -1.25,-7.4273 L -1.25,-7.6749 L -1.25,-7.9225 L -1.25,-8.17 L -1.25,-8.4176 L -1.25,-8.6652 L -1.25,-8.9128" />
      <path d="M 1.25,8.9128 L 1.25,8.6652 L 1.25,8.4176 L 1.25,8.17 L 1.25,7.9225 L 1.25,7.6749 L 1.25,7.4273 L 1.25,7.1797 L 1.25,6.9322 L 1.25,6.6846 L 1.25,6.437 L 1.25,6.1894 L 1.25,5.9418 L 1.25,5.6943 L 1.25,5.4467 L 1.25,5.1991 L 1.25,4.9515 L 1.25,4.704 L 1.25,4.4564 L 1.25,4.2088 L 1.25,3.9612 L 1.25,3.7137 L 1.25,3.4661 L 1.25,3.2185 L 1.25,2.9709 L 1.25,2.7233 L 1.25,2.4758 L 1.25,2.2282 L 1.25,1.9806 L 1.25,1.733 L 1.25,1.4855 L 1.25,1.2379 L 1.25,0.9903 L 1.25,0.7427 L 1.25,0.4952 L 1.25,0.2476 L 1.25,0.0 L 1.25,-0.2476 L 1.25,-0.4952 L 1.25,-0.7427 L 1.25,-0.9903 L 1.25,-1.2379 L 1.25,-1.4855 L 1.25,-1.733 L 1.25,-1.9806 L 1.25,-2.2282 L 1.25,-2.4758 L 1.25,-2.7233 L 1.25,-2.9709 L 1.25,-3.2185 L 1.25,-3.4661 L 1.25,-3.7137 L 1.25,-3.9612 L 1.25,-4.2088 L 1.25,-4.4564 L 1.25,-4.704 L 1.25,-4.9515 L 1.25,-5.1991 L 1.25,-5.4467 L 1.25,-5.6943 L 1.25,-5.9418 L 1.25,-6.1894 L 1.25,-6.437 L 1.25,-6.6846 L 1.25,-6.9322 L 1.25,-7.1797 L 1.25,-7.4273 L 1.25,-7.6749 L 1.25,-7.9225 L 1.25,-8.17 L 1.25,-8.4176 L 1.25,-8.6652 L 1.25,-8.9128" />
      <path d="M 18.0982,5.0 L 18.5149,5.0 L 18.9315,5.0 L 19.3482,5.0 L 19.7648,5.0 L 20.1814,5.0 L 20.5981,5.0 L 21.0147,5.0 L 21.4313,5.0 L 21.848,5.0 L 22.2646,5.0 L 22.6813,5.0 L 23.0979,5.0 L 23.5145,5.0 L 23.9312,5.0 L 24.3478,5.0 L 24.7645,5.0 L 25.1811,5.0 L 25.5977,5.0 L 26.0144,5.0 L 26.431,5.0 L 26.8476,5.0 L 27.2643,5.0 L 27.6809,5.0 L 28.0976,5.0 L 28.5142,5.0 L 28.9308,5.0 L 29.3475,5.0 L 29.7641,5.0 L 30.1808,5.0 L 30.5974,5.0 L 31.014,5.0 L 31.4307,5.0 L 31.8473,5.0 L 32.2639,5.0 L 32.6806,5.0 L 33.0972,5.0 L 33.5139,5.0 L 33.9305,5.0 L 34.3471,5.0 L 34.7638,5.0 L 35.1804,5.0 L 35.5971,5.0 L 36.0137,5.0 L 36.4303,5.0 L 36.847,5.0 L 37.2636,5.0 L 37.6802,5.0 L 38.0969,5.0 L 38.5135,5.0 L 38.9302,5.0 L 39.3468,5.0 L 39.7634,5.0 L 40.1801,5.0 L 40.5967,5.0 L 41.0134,5.0 L 41.43,5.0 L 41.8466,5.0 L 42.2633,5.0 L 42.6799,5.0 L 43.0965,5.0 L 43.5132,5.0 L 43.9298,5.0 L 44.3465,5.0 L 44.7631,5.0 L 45.1797,5.0 L 45.5964,5.0 L 46.013,5.0 L 46.4297,5.0 L 46.8463,5.0 L 47.2629,5.0 L 47.6796,5.0 L 48.0962,5.0" />
      <path d="M 48.0962,-5.0 L 48.1089,-4.8623 L 48.1141,-4.7235 L 48.118,-4.5846 L 48.1212,-4.4458 L 48.1239,-4.3068 L 48.1264,-4.1679 L 48.1285,-4.029 L 48.1305,-3.8901 L 48.1323,-3.7512 L 48.134,-3.6123 L 48.1355,-3.4734 L 48.1369,-3.3344 L 48.1382,-3.1955 L 48.1394,-3.0566 L 48.1406,-2.9177 L 48.1416,-2.7787 L 48.1426,-2.6398 L 48.1435,-2.5009 L 48.1443,-2.362 L 48.1451,-2.223 L 48.1458,-2.0841 L 48.1465,-1.9452 L 48.1471,-1.8062 L 48.1477,-1.6673 L 48.1482,-1.5284 L 48.1487,-1.3895 L 48.1491,-1.2505 L 48.1495,-1.1116 L 48.1498,-0.9727 L 48.1501,-0.8337 L 48.1503,-0.6948 L 48.1505,-0.5559 L 48.1506,-0.417 L 48.1507,-0.278 L 48.1508,-0.1391 L 48.1508,-0.0002 L 48.1508,0.1388 L 48.1507,0.2777 L 48.1506,0.4166 L 48.1505,0.5555 L 48.1503,0.6945 L 48.1501,0.8334 L 48.1498,0.9723 L 48.1495,1.1113 L 48.1491,1.2502 L 48.1487,1.3891 L 48.1482,1.528 L 48.1477,1.667 L 48.1471,1.8059 L 48.1465,1.9448 L 48.1458,2.0838 L 48.1451,2.2227 L 48.1443,2.3616 L 48.1435,2.5005 L 48.1426,2.6395 L 48.1416,2.7784 L 48.1406,2.9173 L 48.1394,3.0562 L 48.1382,3.1952 L 48.1369,3.3341 L 48.1355,3.473 L 48.134,3.6119 L 48.1323,3.7508 L 48.1305,3.8898 L 48.1286,4.0287 L 48.1264,4.1676 L 48.124,4.3065 L 48.1212,4.4454 L 48.118,4.5843 L 48.1141,4.7232 L 48.1089,4.862 L 48.0962,5.0" />
      <path d="M 18.098,-5.0 L 18.0981,-5.0 L 18.0982,-5.0 L 18.0982,-4.9999 L 18.0983,-4.9999 L 18.0984,-4.9999 L 18.0984,-4.9998 L 18.0985,-4.9998" />
      <path d="M 18.0985,-4.9998 L 18.1107,-4.8618 L 18.1159,-4.723 L 18.1198,-4.5841 L 18.123,-4.4453 L 18.1257,-4.3064 L 18.1282,-4.1675 L 18.1303,-4.0286 L 18.1323,-3.8897 L 18.1341,-3.7508 L 18.1358,-3.6119 L 18.1373,-3.473 L 18.1387,-3.334 L 18.14,-3.1951 L 18.1412,-3.0562 L 18.1423,-2.9173 L 18.1434,-2.7784 L 18.1444,-2.6395 L 18.1453,-2.5006 L 18.1461,-2.3617 L 18.1469,-2.2227 L 18.1476,-2.0838 L 18.1483,-1.9449 L 18.1489,-1.806 L 18.1495,-1.6671 L 18.15,-1.5282 L 18.1505,-1.3893 L 18.1509,-1.2503 L 18.1512,-1.1114 L 18.1516,-0.9725 L 18.1518,-0.8336 L 18.1521,-0.6947 L 18.1523,-0.5558 L 18.1524,-0.4168 L 18.1525,-0.2779 L 18.1526,-0.139 L 18.1526,-0.0001 L 18.1526,0.1388 L 18.1525,0.2778 L 18.1524,0.4167 L 18.1523,0.5556 L 18.1521,0.6945 L 18.1518,0.8334 L 18.1516,0.9723 L 18.1512,1.1113 L 18.1509,1.2502 L 18.1505,1.3891 L 18.15,1.528 L 18.1495,1.6669 L 18.1489,1.8058 L 18.1483,1.9448 L 18.1476,2.0837 L 18.1469,2.2226 L 18.1461,2.3615 L 18.1453,2.5004 L 18.1444,2.6393 L 18.1434,2.7782 L 18.1423,2.9172 L 18.1412,3.0561 L 18.14,3.195 L 18.1387,3.3339 L 18.1373,3.4728 L 18.1358,3.6117 L 18.1341,3.7506 L 18.1323,3.8895 L 18.1303,4.0284 L 18.1282,4.1673 L 18.1257,4.3062 L 18.123,4.4451 L 18.1198,4.584 L 18.1159,4.7229 L 18.1108,4.8617 L 18.0985,4.9998" />
      <path d="M 15.3982,7.16 L 15.3971,7.1594 L 15.3965,7.1583 L 15.396,7.1572 L 15.3955,7.156 L 15.3952,7.1548 L 15.3948,7.1535 L 15.3945,7.1523 L 15.3943,7.1511 L 15.394,7.1499 L 15.3938,7.1486 L 15.3935,7.1474 L 15.3933,7.1462 L 15.3931,7.1449 L 15.3929,7.1437 L 15.3927,7.1424 L 15.3925,7.1412 L 15.3923,7.14 L 15.3921,7.1387 L 15.392,7.1375 L 15.3918,7.1362 L 15.3916,7.135 L 15.3915,7.1337 L 15.3913,7.1325 L 15.3912,7.1312 L 15.391,7.13 L 15.3909,7.1287 L 15.3907,7.1275 L 15.3906,7.1262 L 15.3904,7.125 L 15.3903,7.1237 L 15.3902,7.1225 L 15.39,7.1212 L 15.3899,7.12 L 15.3898,7.1187 L 15.3896,7.1175 L 15.3895,7.1162 L 15.3894,7.115 L 15.3893,7.1137 L 15.3892,7.1125 L 15.389,7.1112 L 15.3889,7.11 L 15.3888,7.1087 L 15.3887,7.1075 L 15.3886,7.1062 L 15.3885,7.105 L 15.3884,7.1037 L 15.3883,7.1025 L 15.3882,7.1012 L 15.3881,7.1 L 15.3879,7.0987 L 15.3878,7.0974 L 15.3877,7.0962 L 15.3876,7.0949 L 15.3875,7.0937 L 15.3874,7.0924 L 15.3873,7.0912 L 15.3872,7.0899 L 15.3871,7.0887 L 15.3871,7.0874 L 15.387,7.0862 L 15.3869,7.0849 L 15.3868,7.0837 L 15.3867,7.0824 L 15.3866,7.0811 L 15.3865,7.0799 L 15.3864,7.0786 L 15.3863,7.0774 L 15.3862,7.0761 L 15.3861,7.0749 L 15.386,7.0736 L 15.386,7.0724 L 15.3859,7.0711" />
      <path d="M 13.1119,8.8907 L 13.1116,8.891 L 13.1112,8.8913 L 13.1108,8.8916 L 13.1104,8.8919 L 13.1101,8.8922 L 13.1097,8.8926 L 13.1093,8.8929 L 13.1089,8.8932 L 13.1085,8.8935 L 13.1082,8.8938 L 13.1078,8.8941 L 13.1074,8.8944 L 13.107,8.8947 L 13.1066,8.895 L 13.1063,8.8953 L 13.1059,8.8956 L 13.1055,8.8959 L 13.1051,8.8962 L 13.1047,8.8965 L 13.1044,8.8968 L 13.104,8.8971 L 13.1036,8.8975 L 13.1032,8.8978 L 13.1028,8.8981 L 13.1025,8.8984 L 13.1021,8.8987 L 13.1017,8.899 L 13.1013,8.8993 L 13.101,8.8996 L 13.1006,8.8999 L 13.1002,8.9002 L 13.0998,8.9005 L 13.0994,8.9008 L 13.0991,8.9011 L 13.0987,8.9014 L 13.0983,8.9017 L 13.0979,8.902 L 13.0975,8.9024 L 13.0972,8.9027 L 13.0968,8.903 L 13.0964,8.9033 L 13.096,8.9036 L 13.0956,8.9039 L 13.0953,8.9042 L 13.0949,8.9045 L 13.0945,8.9048 L 13.0941,8.9051 L 13.0937,8.9054 L 13.0934,8.9057 L 13.093,8.906 L 13.0926,8.9063 L 13.0922,8.9066 L 13.0918,8.907 L 13.0915,8.9073 L 13.0911,8.9076 L 13.0907,8.9079 L 13.0903,8.9082 L 13.09,8.9085 L 13.0896,8.9088 L 13.0892,8.9091 L 13.0888,8.9094 L 13.0884,8.9097 L 13.0881,8.91 L 13.0877,8.9103 L 13.0873,8.9106 L 13.0869,8.9109 L 13.0865,8.9112 L 13.0862,8.9115 L 13.0858,8.9119 L 13.0854,8.9122 L 13.085,8.9125 L 13.0846,8.9128" />
      <path d="M 13.0846,8.9128 L 13.0717,8.6655 L 13.0635,8.4181 L 13.0571,8.1705 L 13.0517,7.923 L 13.047,7.6754 L 13.0428,7.4279 L 13.039,7.1803 L 13.0356,6.9327 L 13.0325,6.6851 L 13.0296,6.4376 L 13.0269,6.19 L 13.0245,5.9424 L 13.0222,5.6948 L 13.02,5.4472 L 13.0181,5.1996 L 13.0162,4.952 L 13.0145,4.7044 L 13.0129,4.4568 L 13.0114,4.2092 L 13.01,3.9616 L 13.0088,3.714 L 13.0076,3.4664 L 13.0065,3.2188 L 13.0055,2.9712 L 13.0046,2.7236 L 13.0038,2.476 L 13.0031,2.2284 L 13.0024,1.9808 L 13.0018,1.7332 L 13.0013,1.4856 L 13.0009,1.238 L 13.0006,0.9904 L 13.0003,0.7428 L 13.0001,0.4952 L 13.0,0.2476 L 13.0,0.0 L 13.0,-0.2476 L 13.0001,-0.4952 L 13.0003,-0.7428 L 13.0006,-0.9904 L 13.0009,-1.238 L 13.0013,-1.4856 L 13.0018,-1.7332 L 13.0024,-1.9808 L 13.0031,-2.2284 L 13.0038,-2.476 L 13.0046,-2.7236 L 13.0055,-2.9712 L 13.0065,-3.2188 L 13.0076,-3.4664 L 13.0088,-3.714 L 13.01,-3.9616 L 13.0114,-4.2092 L 13.0129,-4.4568 L 13.0145,-4.7044 L 13.0162,-4.952 L 13.0181,-5.1996 L 13.02,-5.4472 L 13.0222,-5.6948 L 13.0245,-5.9424 L 13.0269,-6.19 L 13.0296,-6.4376 L 13.0325,-6.6851 L 13.0356,-6.9327 L 13.039,-7.1803 L 13.0428,-7.4279 L 13.047,-7.6754 L 13.0517,-7.923 L 13.0571,-8.1705 L 13.0635,-8.4181 L 13.0717,-8.6655 L 13.0846,-8.9128" />
      <path d="M 13.0846,-8.9128 L 13.085,-8.9125 L 13.0854,-8.9122 L 13.0858,-8.9119 L 13.0862,-8.9115 L 13.0865,-8.9112 L 13.0869,-8.9109 L 13.0873,-8.9106 L 13.0877,-8.9103 L 13.0881,-8.91 L 13.0884,-8.9097 L 13.0888,-8.9094 L 13.0892,-8.9091 L 13.0896,-8.9088 L 13.09,-8.9085 L 13.0903,-8.9082 L 13.0907,-8.9079 L 13.0911,-8.9076 L 13.0915,-8.9073 L 13.0918,-8.907 L 13.0922,-8.9066 L 13.0926,-8.9063 L 13.093,-8.906 L 13.0934,-8.9057 L 13.0937,-8.9054 L 13.0941,-8.9051 L 13.0945,-8.9048 L 13.0949,-8.9045 L 13.0953,-8.9042 L 13.0956,-8.9039 L 13.096,-8.9036 L 13.0964,-8.9033 L 13.0968,-8.903 L 13.0972,-8.9027 L 13.0975,-8.9024 L 13.0979,-8.902 L 13.0983,-8.9017 L 13.0987,-8.9014 L 13.0991,-8.9011 L 13.0994,-8.9008 L 13.0998,-8.9005 L 13.1002,-8.9002 L 13.1006,-8.8999 L 13.101,-8.8996 L 13.1013,-8.8993 L 13.1017,-8.899 L 13.1021,-8.8987 L 13.1025,-8.8984 L 13.1028,-8.8981 L 13.1032,-8.8978 L 13.1036,-8.8975 L 13.104,-8.8971 L 13.1044,-8.8968 L 13.1047,-8.8965 L 13.1051,-8.8962 L 13.1055,-8.8959 L 13.1059,-8.8956 L 13.1063,-8.8953 L 13.1066,-8.895 L 13.107,-8.8947 L 13.1074,-8.8944 L 13.1078,-8.8941 L 13.1082,-8.8938 L 13.1085,-8.8935 L 13.1089,-8.8932 L 13.1093,-8.8929 L 13.1097,-8.8926 L 13.1101,-8.8922 L 13.1104,-8.8919 L 13.1108,-8.8916 L 13.1112,-8.8913 L 13.1116,-8.891 L 13.1119,-8.8907" />
      <path d="M 15.3859,-7.0711 L 15.386,-7.0724 L 15.3861,-7.0736 L 15.3861,-7.0749 L 15.3862,-7.0762 L 15.3863,-7.0774 L 15.3864,-7.0787 L 15.3865,-7.08 L 15.3866,-7.0812 L 15.3867,-7.0825 L 15.3868,-7.0838 L 15.3869,-7.085 L 15.387,-7.0863 L 15.3871,-7.0876 L 15.3872,-7.0888 L 15.3873,-7.0901 L 15.3874,-7.0913 L 15.3875,-7.0926 L 15.3876,-7.0939 L 15.3877,-7.0951 L 15.3878,-7.0964 L 15.3879,-7.0977 L 15.388,-7.0989 L 15.3881,-7.1002 L 15.3882,-7.1015 L 15.3883,-7.1027 L 15.3884,-7.104 L 15.3885,-7.1052 L 15.3886,-7.1065 L 15.3887,-7.1078 L 15.3888,-7.109 L 15.389,-7.1103 L 15.3891,-7.1116 L 15.3892,-7.1128 L 15.3893,-7.1141 L 15.3894,-7.1153 L 15.3896,-7.1166 L 15.3897,-7.1179 L 15.3898,-7.1191 L 15.3899,-7.1204 L 15.3901,-7.1216 L 15.3902,-7.1229 L 15.3903,-7.1242 L 15.3905,-7.1254 L 15.3906,-7.1267 L 15.3908,-7.128 L 15.3909,-7.1292 L 15.3911,-7.1305 L 15.3912,-7.1317 L 15.3914,-7.133 L 15.3915,-7.1342 L 15.3917,-7.1355 L 15.3919,-7.1368 L 15.392,-7.138 L 15.3922,-7.1393 L 15.3924,-7.1405 L 15.3926,-7.1418 L 15.3928,-7.143 L 15.393,-7.1443 L 15.3932,-7.1455 L 15.3934,-7.1468 L 15.3936,-7.148 L 15.3939,-7.1493 L 15.3941,-7.1505 L 15.3944,-7.1518 L 15.3947,-7.153 L 15.395,-7.1542 L 15.3954,-7.1554 L 15.3958,-7.1566 L 15.3962,-7.1578 L 15.3968,-7.1589 L 15.3977,-7.1599 L 15.3988,-7.1597" />
      <path d="M 15.3988,-7.1597 L 15.3998,-7.1585 L 15.4004,-7.1571 L 15.4009,-7.1556 L 15.4013,-7.1542 L 15.4017,-7.1527 L 15.402,-7.1512 L 15.4024,-7.1497 L 15.4027,-7.1481 L 15.4029,-7.1466 L 15.4032,-7.1451 L 15.4034,-7.1436 L 15.4037,-7.1421 L 15.4039,-7.1406 L 15.4041,-7.139 L 15.4044,-7.1375 L 15.4046,-7.136 L 15.4048,-7.1344 L 15.405,-7.1329 L 15.4051,-7.1314 L 15.4053,-7.1299 L 15.4055,-7.1283 L 15.4057,-7.1268 L 15.4059,-7.1253 L 15.406,-7.1237 L 15.4062,-7.1222 L 15.4063,-7.1207 L 15.4065,-7.1191 L 15.4067,-7.1176 L 15.4068,-7.1161 L 15.407,-7.1145 L 15.4071,-7.113 L 15.4072,-7.1115 L 15.4074,-7.1099 L 15.4075,-7.1084 L 15.4077,-7.1069 L 15.4078,-7.1053 L 15.4079,-7.1038 L 15.4081,-7.1023 L 15.4082,-7.1007 L 15.4083,-7.0992 L 15.4085,-7.0977 L 15.4086,-7.0961 L 15.4087,-7.0946 L 15.4088,-7.0931 L 15.4089,-7.0915 L 15.4091,-7.09 L 15.4092,-7.0885 L 15.4093,-7.0869 L 15.4094,-7.0854 L 15.4095,-7.0839 L 15.4096,-7.0823 L 15.4098,-7.0808 L 15.4099,-7.0792 L 15.41,-7.0777 L 15.4101,-7.0762 L 15.4102,-7.0746 L 15.4103,-7.0731 L 15.4104,-7.0716 L 15.4105,-7.07 L 15.4106,-7.0685 L 15.4107,-7.067 L 15.4108,-7.0654 L 15.4109,-7.0639 L 15.411,-7.0623 L 15.4111,-7.0608 L 15.4112,-7.0593 L 15.4113,-7.0577 L 15.4114,-7.0562 L 15.4115,-7.0547 L 15.4116,-7.0531 L 15.4117,-7.0516 L 15.4118,-7.05" />
      <path d="M 13.1119,-8.9128 L 13.1439,-8.8869 L 13.1759,-8.8611 L 13.2079,-8.8353 L 13.2398,-8.8094 L 13.2718,-8.7836 L 13.3038,-8.7578 L 13.3358,-8.7319 L 13.3677,-8.7061 L 13.3997,-8.6802 L 13.4317,-8.6544 L 13.4636,-8.6286 L 13.4956,-8.6027 L 13.5276,-8.5769 L 13.5595,-8.551 L 13.5915,-8.5252 L 13.6234,-8.4993 L 13.6554,-8.4735 L 13.6874,-8.4477 L 13.7193,-8.4218 L 13.7513,-8.396 L 13.7832,-8.3701 L 13.8152,-8.3443 L 13.8472,-8.3184 L 13.8791,-8.2925 L 13.9111,-8.2667 L 13.943,-8.2408 L 13.975,-8.215 L 14.0069,-8.1891 L 14.0389,-8.1633 L 14.0708,-8.1374 L 14.1028,-8.1115 L 14.1347,-8.0857 L 14.1667,-8.0598 L 14.1986,-8.0339 L 14.2306,-8.0081 L 14.2625,-7.9822 L 14.2945,-7.9563 L 14.3264,-7.9305 L 14.3584,-7.9046 L 14.3903,-7.8787 L 14.4222,-7.8528 L 14.4542,-7.827 L 14.4861,-7.8011 L 14.518,-7.7752 L 14.55,-7.7493 L 14.5819,-7.7234 L 14.6139,-7.6976 L 14.6458,-7.6717 L 14.6777,-7.6458 L 14.7096,-7.6199 L 14.7416,-7.594 L 14.7735,-7.5681 L 14.8054,-7.5422 L 14.8374,-7.5164 L 14.8693,-7.4905 L 14.9012,-7.4646 L 14.9331,-7.4387 L 14.9651,-7.4128 L 14.997,-7.3869 L 15.0289,-7.361 L 15.0608,-7.3351 L 15.0927,-7.3092 L 15.1246,-7.2833 L 15.1565,-7.2574 L 15.1885,-7.2314 L 15.2204,-7.2055 L 15.2523,-7.1796 L 15.2842,-7.1537 L 15.3161,-7.1278 L 15.348,-7.1019 L 15.3799,-7.076 L 15.4118,-7.05" />
      <path d="M 13.1119,-8.9128 L 13.1248,-8.6655 L 13.1331,-8.4181 L 13.1395,-8.1705 L 13.1449,-7.923 L 13.1496,-7.6754 L 13.1538,-7.4279 L 13.1576,-7.1803 L 13.161,-6.9327 L 13.1641,-6.6851 L 13.167,-6.4376 L 13.1697,-6.19 L 13.1721,-5.9424 L 13.1744,-5.6948 L 13.1765,-5.4472 L 13.1785,-5.1996 L 13.1804,-4.952 L 13.1821,-4.7044 L 13.1837,-4.4568 L 13.1852,-4.2092 L 13.1866,-3.9616 L 13.1878,-3.714 L 13.189,-3.4664 L 13.1901,-3.2188 L 13.1911,-2.9712 L 13.192,-2.7236 L 13.1928,-2.476 L 13.1935,-2.2284 L 13.1942,-1.9808 L 13.1948,-1.7332 L 13.1952,-1.4856 L 13.1957,-1.238 L 13.196,-0.9904 L 13.1963,-0.7428 L 13.1964,-0.4952 L 13.1966,-0.2476 L 13.1966,0.0 L 13.1966,0.2476 L 13.1964,0.4952 L 13.1963,0.7428 L 13.196,0.9904 L 13.1957,1.238 L 13.1952,1.4856 L 13.1948,1.7332 L 13.1942,1.9808 L 13.1935,2.2284 L 13.1928,2.476 L 13.192,2.7236 L 13.1911,2.9712 L 13.1901,3.2188 L 13.189,3.4664 L 13.1878,3.714 L 13.1866,3.9616 L 13.1852,4.2092 L 13.1837,4.4568 L 13.1821,4.7044 L 13.1804,4.952 L 13.1785,5.1996 L 13.1765,5.4472 L 13.1744,5.6948 L 13.1721,5.9424 L 13.1697,6.19 L 13.167,6.4376 L 13.1641,6.6851 L 13.161,6.9327 L 13.1576,7.1803 L 13.1538,7.4279 L 13.1496,7.6754 L 13.1449,7.923 L 13.1395,8.1705 L 13.1331,8.4181 L 13.1248,8.6655 L 13.1119,8.9128" />
      <path d="M 15.4118,7.05 L 15.3799,7.076 L 15.348,7.1019 L 15.3161,7.1278 L 15.2842,7.1537 L 15.2523,7.1796 L 15.2204,7.2055 L 15.1885,7.2314 L 15.1565,7.2574 L 15.1246,7.2833 L 15.0927,7.3092 L 15.0608,7.3351 L 15.0289,7.361 L 14.997,7.3869 L 14.9651,7.4128 L 14.9331,7.4387 L 14.9012,7.4646 L 14.8693,7.4905 L 14.8374,7.5164 L 14.8054,7.5422 L 14.7735,7.5681 L 14.7416,7.594 L 14.7096,7.6199 L 14.6777,7.6458 L 14.6458,7.6717 L 14.6139,7.6976 L 14.5819,7.7234 L 14.55,7.7493 L 14.518,7.7752 L 14.4861,7.8011 L 14.4542,7.827 L 14.4222,7.8528 L 14.3903,7.8787 L 14.3584,7.9046 L 14.3264,7.9305 L 14.2945,7.9563 L 14.2625,7.9822 L 14.2306,8.0081 L 14.1986,8.0339 L 14.1667,8.0598 L 14.1347,8.0857 L 14.1028,8.1115 L 14.0708,8.1374 L 14.0389,8.1633 L 14.0069,8.1891 L 13.975,8.215 L 13.943,8.2408 L 13.9111,8.2667 L 13.8791,8.2925 L 13.8472,8.3184 L 13.8152,8.3443 L 13.7832,8.3701 L 13.7513,8.396 L 13.7193,8.4218 L 13.6874,8.4477 L 13.6554,8.4735 L 13.6234,8.4993 L 13.5915,8.5252 L 13.5595,8.551 L 13.5276,8.5769 L 13.4956,8.6027 L 13.4636,8.6286 L 13.4317,8.6544 L 13.3997,8.6802 L 13.3677,8.7061 L 13.3358,8.7319 L 13.3038,8.7578 L 13.2718,8.7836 L 13.2398,8.8094 L 13.2079,8.8353 L 13.1759,8.8611 L 13.1439,8.8869 L 13.1119,8.9128" />
      <path d="M 15.4118,7.05 L 15.4117,7.0516 L 15.4116,7.0531 L 15.4115,7.0547 L 15.4114,7.0562 L 15.4113,7.0577 L 15.4112,7.0593 L 15.4111,7.0608 L 15.411,7.0623 L 15.4109,7.0639 L 15.4108,7.0654 L 15.4107,7.067 L 15.4106,7.0685 L 15.4105,7.07 L 15.4104,7.0716 L 15.4103,7.0731 L 15.4102,7.0746 L 15.4101,7.0762 L 15.41,7.0777 L 15.4099,7.0792 L 15.4098,7.0808 L 15.4096,7.0823 L 15.4095,7.0839 L 15.4094,7.0854 L 15.4093,7.0869 L 15.4092,7.0885 L 15.4091,7.09 L 15.4089,7.0915 L 15.4088,7.0931 L 15.4087,7.0946 L 15.4086,7.0961 L 15.4085,7.0977 L 15.4083,7.0992 L 15.4082,7.1007 L 15.4081,7.1023 L 15.4079,7.1038 L 15.4078,7.1053 L 15.4077,7.1069 L 15.4075,7.1084 L 15.4074,7.1099 L 15.4072,7.1115 L 15.4071,7.113 L 15.407,7.1145 L 15.4068,7.1161 L 15.4067,7.1176 L 15.4065,7.1191 L 15.4063,7.1207 L 15.4062,7.1222 L 15.406,7.1237 L 15.4059,7.1253 L 15.4057,7.1268 L 15.4055,7.1283 L 15.4053,7.1299 L 15.4051,7.1314 L 15.405,7.1329 L 15.4048,7.1344 L 15.4046,7.136 L 15.4044,7.1375 L 15.4041,7.139 L 15.4039,7.1406 L 15.4037,7.1421 L 15.4034,7.1436 L 15.4032,7.1451 L 15.4029,7.1466 L 15.4027,7.1481 L 15.4024,7.1497 L 15.402,7.1512 L 15.4017,7.1527 L 15.4013,7.1542 L 15.4009,7.1556 L 15.4004,7.1571 L 15.3998,7.1585 L 15.3988,7.1597" />
      <path d="M 15.3988,7.1597 L 15.3988,7.1598 L 15.3987,7.1598 L 15.3987,7.1599 L 15.3986,7.1599 L 15.3985,7.1599 L 15.3984,7.16 L 15.3983,7.16 L 15.3982,7.16" />
      <path d="M 13.0846,8.9128 L 13.0846,8.6652 L 13.0846,8.4176 L 13.0846,8.17 L 13.0846,7.9225 L 13.0846,7.6749 L 13.0846,7.4273 L 13.0846,7.1797 L 13.0846,6.9322 L 13.0846,6.6846 L 13.0846,6.437 L 13.0846,6.1894 L 13.0846,5.9418 L 13.0846,5.6943 L 13.0846,5.4467 L 13.0846,5.1991 L 13.0846,4.9515 L 13.0846,4.704 L 13.0846,4.4564 L 13.0846,4.2088 L 13.0846,3.9612 L 13.0846,3.7137 L 13.0846,3.4661 L 13.0846,3.2185 L 13.0846,2.9709 L 13.0846,2.7233 L 13.0846,2.4758 L 13.0846,2.2282 L 13.0846,1.9806 L 13.0846,1.733 L 13.0846,1.4855 L 13.0846,1.2379 L 13.0846,0.9903 L 13.0846,0.7427 L 13.0846,0.4952 L 13.0846,0.2476 L 13.0846,0.0 L 13.0846,-0.2476 L 13.0846,-0.4952 L 13.0846,-0.7427 L 13.0846,-0.9903 L 13.0846,-1.2379 L 13.0846,-1.4855 L 13.0846,-1.733 L 13.0846,-1.9806 L 13.0846,-2.2282 L 13.0846,-2.4758 L 13.0846,-2.7233 L 13.0846,-2.9709 L 13.0846,-3.2185 L 13.0846,-3.4661 L 13.0846,-3.7137 L 13.0846,-3.9612 L 13.0846,-4.2088 L 13.0846,-4.4564 L 13.0846,-4.704 L 13.0846,-4.9515 L 13.0846,-5.1991 L 13.0846,-5.4467 L 13.0846,-5.6943 L 13.0846,-5.9418 L 13.0846,-6.1894 L 13.0846,-6.437 L 13.0846,-6.6846 L 13.0846,-6.9322 L 13.0846,-7.1797 L 13.0846,-7.4273 L 13.0846,-7.6749 L 13.0846,-7.9225 L 13.0846,-8.17 L 13.0846,-8.4176 L 13.0846,-8.6652 L 13.0846,-8.9128" />
      <path d="M 13.1119,8.9128 L 13.1119,8.6652 L 13.1119,8.4176 L 13.1119,8.17 L 13.1119,7.9225 L 13.1119,7.6749 L 13.1119,7.4273 L 13.1119,7.1797 L 13.1119,6.9322 L 13.1119,6.6846 L 13.1119,6.437 L 13.1119,6.1894 L 13.1119,5.9418 L 13.1119,5.6943 L 13.1119,5.4467 L 13.1119,5.1991 L 13.1119,4.9515 L 13.1119,4.704 L 13.1119,4.4564 L 13.1119,4.2088 L 13.1119,3.9612 L 13.1119,3.7137 L 13.1119,3.4661 L 13.1119,3.2185 L 13.1119,2.9709 L 13.1119,2.7233 L 13.1119,2.4758 L 13.1119,2.2282 L 13.1119,1.9806 L 13.1119,1.733 L 13.1119,1.4855 L 13.1119,1.2379 L 13.1119,0.9903 L 13.1119,0.7427 L 13.1119,0.4952 L 13.1119,0.2476 L 13.1119,0.0 L 13.1119,-0.2476 L 13.1119,-0.4952 L 13.1119,-0.7427 L 13.1119,-0.9903 L 13.1119,-1.2379 L 13.1119,-1.4855 L 13.1119,-1.733 L 13.1119,-1.9806 L 13.1119,-2.2282 L 13.1119,-2.4758 L 13.1119,-2.7233 L 13.1119,-2.9709 L 13.1119,-3.2185 L 13.1119,-3.4661 L 13.1119,-3.7137 L 13.1119,-3.9612 L 13.1119,-4.2088 L 13.1119,-4.4564 L 13.1119,-4.704 L 13.1119,-4.9515 L 13.1119,-5.1991 L 13.1119,-5.4467 L 13.1119,-5.6943 L 13.1119,-5.9418 L 13.1119,-6.1894 L 13.1119,-6.437 L 13.1119,-6.6846 L 13.1119,-6.9322 L 13.1119,-7.1797 L 13.1119,-7.4273 L 13.1119,-7.6749 L 13.1119,-7.9225 L 13.1119,-8.17 L 13.1119,-8.4176 L 13.1119,-8.6652 L 13.1119,-8.9128" />
      <path d="M 18.0982,-5.0 L 18.5149,-5.0 L 18.9315,-5.0 L 19.3482,-5.0 L 19.7648,-5.0 L 20.1814,-5.0 L 20.5981,-5.0 L 21.0147,-5.0 L 21.4313,-5.0 L 21.848,-5.0 L 22.2646,-5.0 L 22.6813,-5.0 L 23.0979,-5.0 L 23.5145,-5.0 L 23.9312,-5.0 L 24.3478,-5.0 L 24.7645,-5.0 L 25.1811,-5.0 L 25.5977,-5.0 L 26.0144,-5.0 L 26.431,-5.0 L 26.8476,-5.0 L 27.2643,-5.0 L 27.6809,-5.0 L 28.0976,-5.0 L 28.5142,-5.0 L 28.9308,-5.0 L 29.3475,-5.0 L 29.7641,-5.0 L 30.1808,-5.0 L 30.5974,-5.0 L 31.014,-5.0 L 31.4307,-5.0 L 31.8473,-5.0 L 32.2639,-5.0 L 32.6806,-5.0 L 33.0972,-5.0 L 33.5139,-5.0 L 33.9305,-5.0 L 34.3471,-5.0 L 34.7638,-5.0 L 35.1804,-5.0 L 35.5971,-5.0 L 36.0137,-5.0 L 36.4303,-5.0 L 36.847,-5.0 L 37.2636,-5.0 L 37.6802,-5.0 L 38.0969,-5.0 L 38.5135,-5.0 L 38.9302,-5.0 L 39.3468,-5.0 L 39.7634,-5.0 L 40.1801,-5.0 L 40.5967,-5.0 L 41.0134,-5.0 L 41.43,-5.0 L 41.8466,-5.0 L 42.2633,-5.0 L 42.6799,-5.0 L 43.0965,-5.0 L 43.5132,-5.0 L 43.9298,-5.0 L 44.3465,-5.0 L 44.7631,-5.0 L 45.1797,-5.0 L 45.5964,-5.0 L 46.013,-5.0 L 46.4297,-5.0 L 46.8463,-5.0 L 47.2629,-5.0 L 47.6796,-5.0 L 48.0962,-5.0" />
      <path d="M 18.0985,4.9998 L 18.061,5.0298 L 18.0235,5.0598 L 17.986,5.0898 L 17.9485,5.1198 L 17.911,5.1498 L 17.8735,5.1798 L 17.836,5.2098 L 17.7985,5.2398 L 17.761,5.2698 L 17.7235,5.2998 L 17.686,5.3298 L 17.6485,5.3598 L 17.611,5.3898 L 17.5735,5.4198 L 17.5361,5.4498 L 17.4986,5.4798 L 17.4611,5.5098 L 17.4236,5.5398 L 17.3861,5.5698 L 17.3486,5.5998 L 17.3111,5.6298 L 17.2736,5.6598 L 17.2361,5.6898 L 17.1986,5.7198 L 17.1611,5.7498 L 17.1236,5.7798 L 17.0861,5.8098 L 17.0486,5.8398 L 17.0111,5.8698 L 16.9736,5.8998 L 16.9361,5.9298 L 16.8986,5.9598 L 16.8611,5.9898 L 16.8236,6.0198 L 16.7862,6.0498 L 16.7487,6.0798 L 16.7112,6.1098 L 16.6737,6.1398 L 16.6362,6.1698 L 16.5987,6.1998 L 16.5612,6.2298 L 16.5237,6.2598 L 16.4862,6.2898 L 16.4487,6.3198 L 16.4112,6.3498 L 16.3737,6.3798 L 16.3362,6.4098 L 16.2987,6.4398 L 16.2612,6.4698 L 16.2237,6.4998 L 16.1862,6.5298 L 16.1487,6.5597 L 16.1112,6.5897 L 16.0738,6.6197 L 16.0363,6.6497 L 15.9988,6.6797 L 15.9613,6.7097 L 15.9238,6.7397 L 15.8863,6.7697 L 15.8488,6.7997 L 15.8113,6.8297 L 15.7738,6.8597 L 15.7363,6.8897 L 15.6988,6.9197 L 15.6613,6.9497 L 15.6238,6.9797 L 15.5863,7.0097 L 15.5488,7.0397 L 15.5113,7.0697 L 15.4738,7.0997 L 15.4363,7.1297 L 15.3988,7.1597" />
      <path d="M 18.0985,-4.9998 L 18.061,-5.0298 L 18.0235,-5.0598 L 17.986,-5.0898 L 17.9485,-5.1198 L 17.911,-5.1498 L 17.8735,-5.1798 L 17.836,-5.2098 L 17.7985,-5.2398 L 17.761,-5.2698 L 17.7235,-5.2998 L 17.686,-5.3298 L 17.6485,-5.3598 L 17.611,-5.3898 L 17.5735,-5.4198 L 17.5361,-5.4498 L 17.4986,-5.4798 L 17.4611,-5.5098 L 17.4236,-5.5398 L 17.3861,-5.5698 L 17.3486,-5.5998 L 17.3111,-5.6298 L 17.2736,-5.6598 L 17.2361,-5.6898 L 17.1986,-5.7198 L 17.1611,-5.7498 L 17.1236,-5.7798 L 17.0861,-5.8098 L 17.0486,-5.8398 L 17.0111,-5.8698 L 16.9736,-5.8998 L 16.9361,-5.9298 L 16.8986,-5.9598 L 16.8611,-5.9898 L 16.8236,-6.0198 L 16.7862,-6.0498 L 16.7487,-6.0798 L 16.7112,-6.1098 L 16.6737,-6.1398 L 16.6362,-6.1698 L 16.5987,-6.1998 L 16.5612,-6.2298 L 16.5237,-6.2598 L 16.4862,-6.2898 L 16.4487,-6.3198 L 16.4112,-6.3498 L 16.3737,-6.3798 L 16.3362,-6.4098 L 16.2987,-6.4398 L 16.2612,-6.4698 L 16.2237,-6.4998 L 16.1862,-6.5298 L 16.1487,-6.5597 L 16.1112,-6.5897 L 16.0738,-6.6197 L 16.0363,-6.6497 L 15.9988,-6.6797 L 15.9613,-6.7097 L 15.9238,-6.7397 L 15.8863,-6.7697 L 15.8488,-6.7997 L 15.8113,-6.8297 L 15.7738,-6.8597 L 15.7363,-6.8897 L 15.6988,-6.9197 L 15.6613,-6.9497 L 15.6238,-6.9797 L 15.5863,-7.0097 L 15.5488,-7.0397 L 15.5113,-7.0697 L 15.4738,-7.0997 L 15.4363,-7.1297 L 15.3988,-7.1597" />
    </g>
    <g fill="none" stroke="rgb(110,110,110)" stroke-width="0.3" id="Hidden" stroke-dasharray="3.6 0.9">
      <path d="M 0.0,5.0 L -0.4358,4.981 L -0.8682,4.924 L -1.2941,4.8296 L -1.7101,4.6985 L -2.1131,4.5315 L -2.5,4.3301 L -2.8679,4.0958 L -3.2139,3.8302 L -3.5355,3.5355 L -3.8302,3.2139 L -4.0958,2.8679 L -4.3301,2.5 L -4.5315,2.1131 L -4.6985,1.7101 L -4.8296,1.2941 L -4.924,0.8682 L -4.981,0.4358 L -5.0,0.0 L -4.981,-0.4358 L -4.924,-0.8682 L -4.8296,-1.2941 L -4.6985,-1.7101 L -4.5315,-2.1131 L -4.3301,-2.5 L -4.0958,-2.8679 L -3.8302,-3.2139 L -3.5355,-3.5355 L -3.2139,-3.8302 L -2.8679,-4.0958 L -2.5,-4.3301 L -2.1131,-4.5315 L -1.7101,-4.6985 L -1.2941,-4.8296 L -0.8682,-4.924 L -0.4358,-4.981 L -0.0,-5.0 L 0.4358,-4.981 L 0.8682,-4.924 L 1.2941,-4.8296 L 1.7101,-4.6985 L 2.1131,-4.5315 L 2.5,-4.3301 L 2.8679,-4.0958 L 3.2139,-3.8302 L 3.5355,-3.5355 L 3.8302,-3.2139 L 4.0958,-2.8679 L 4.3301,-2.5 L 4.5315,-2.1131 L 4.6985,-1.7101 L 4.8296,-1.2941 L 4.924,-0.8682 L 4.981,-0.4358 L 5.0,-0.0 L 4.981,0.4358 L 4.924,0.8682 L 4.8296,1.2941 L 4.6985,1.7101 L 4.5315,2.1131 L 4.3301,2.5 L 4.0958,2.8679 L 3.8302,3.2139 L 3.5355,3.5355 L 3.2139,3.8302 L 2.8679,4.0958 L 2.5,4.3301 L 2.1131,4.5315 L 1.7101,4.6985 L 1.2941,4.8296 L 0.8682,4.924 L 0.4358,4.981 L 0.0,5.0" />
      <path d="M 0.0,5.0 L -0.4358,4.981 L -0.8682,4.924 L -1.2941,4.8296 L -1.7101,4.6985 L -2.1131,4.5315 L -2.5,4.3301 L -2.8679,4.0958 L -3.2139,3.8302 L -3.5355,3.5355 L -3.8302,3.2139 L -4.0958,2.8679 L -4.3301,2.5 L -4.5315,2.1131 L -4.6985,1.7101 L -4.8296,1.2941 L -4.924,0.8682 L -4.981,0.4358 L -5.0,0.0 L -4.981,-0.4358 L -4.924,-0.8682 L -4.8296,-1.2941 L -4.6985,-1.7101 L -4.5315,-2.1131 L -4.3301,-2.5 L -4.0958,-2.8679 L -3.8302,-3.2139 L -3.5355,-3.5355 L -3.2139,-3.8302 L -2.8679,-4.0958 L -2.5,-4.3301 L -2.1131,-4.5315 L -1.7101,-4.6985 L -1.2941,-4.8296 L -0.8682,-4.924 L -0.4358,-4.981 L -0.0,-5.0 L 0.4358,-4.981 L 0.8682,-4.924 L 1.2941,-4.8296 L 1.7101,-4.6985 L 2.1131,-4.5315 L 2.5,-4.3301 L 2.8679,-4.0958 L 3.2139,-3.8302 L 3.5355,-3.5355 L 3.8302,-3.2139 L 4.0958,-2.8679 L 4.3301,-2.5 L 4.5315,-2.1131 L 4.6985,-1.7101 L 4.8296,-1.2941 L 4.924,-0.8682 L 4.981,-0.4358 L 5.0,-0.0 L 4.981,0.4358 L 4.924,0.8682 L 4.8296,1.2941 L 4.6985,1.7101 L 4.5315,2.1131 L 4.3301,2.5 L 4.0958,2.8679 L 3.8302,3.2139 L 3.5355,3.5355 L 3.2139,3.8302 L 2.8679,4.0958 L 2.5,4.3301 L 2.1131,4.5315 L 1.7101,4.6985 L 1.2941,4.8296 L 0.8682,4.924 L 0.4358,4.981 L 0.0,5.0" />
      <path d="M -1.25,7.05 L -1.25,7.0759 L -1.25,7.1018 L -1.25,7.1277 L -1.25,7.1535 L -1.25,7.1794 L -1.25,7.2053 L -1.25,7.2311 L -1.25,7.257 L -1.25,7.2829 L -1.25,7.3088 L -1.25,7.3346 L -1.25,7.3605 L -1.25,7.3864 L -1.25,7.4122 L -1.25,7.4381 L -1.25,7.464 L -1.25,7.4899 L -1.25,7.5157 L -1.25,7.5416 L -1.25,7.5675 L -1.25,7.5933 L -1.25,7.6192 L -1.25,7.6451 L -1.25,7.671 L -1.25,7.6968 L -1.25,7.7227 L -1.25,7.7486 L -1.25,7.7744 L -1.25,7.8003 L -1.25,7.8262 L -1.25,7.8521 L -1.25,7.8779 L -1.25,7.9038 L -1.25,7.9297 L -1.25,7.9555 L -1.25,7.9814 L -1.25,8.0073 L -1.25,8.0331 L -1.25,8.059 L -1.25,8.0849 L -1.25,8.1108 L -1.25,8.1366 L -1.25,8.1625 L -1.25,8.1884 L -1.25,8.2142 L -1.25,8.2401 L -1.25,8.266 L -1.25,8.2919 L -1.25,8.3177 L -1.25,8.3436 L -1.25,8.3695 L -1.25,8.3953 L -1.25,8.4212 L -1.25,8.4471 L -1.25,8.473 L -1.25,8.4988 L -1.25,8.5247 L -1.25,8.5506 L -1.25,8.5764 L -1.25,8.6023 L -1.25,8.6282 L -1.25,8.6541 L -1.25,8.6799 L -1.25,8.7058 L -1.25,8.7317 L -1.25,8.7575 L -1.25,8.7834 L -1.25,8.8093 L -1.25,8.8352 L -1.25,8.861 L -1.25,8.8869 L -1.25,8.9128" />
      <path d="M -1.25,-8.9128 L -1.25,-8.8869 L -1.25,-8.861 L -1.25,-8.8352 L -1.25,-8.8093 L -1.25,-8.7834 L -1.25,-8.7575 L -1.25,-8.7317 L -1.25,-8.7058 L -1.25,-8.6799 L -1.25,-8.6541 L -1.25,-8.6282 L -1.25,-8.6023 L -1.25,-8.5764 L -1.25,-8.5506 L -1.25,-8.5247 L -1.25,-8.4988 L -1.25,-8.473 L -1.25,-8.4471 L -1.25,-8.4212 L -1.25,-8.3953 L -1.25,-8.3695 L -1.25,-8.3436 L -1.25,-8.3177 L -1.25,-8.2919 L -1.25,-8.266 L -1.25,-8.2401 L -1.25,-8.2142 L -1.25,-8.1884 L -1.25,-8.1625 L -1.25,-8.1366 L -1.25,-8.1108 L -1.25,-8.0849 L -1.25,-8.059 L -1.25,-8.0331 L -1.25,-8.0073 L -1.25,-7.9814 L -1.25,-7.9555 L -1.25,-7.9297 L -1.25,-7.9038 L -1.25,-7.8779 L -1.25,-7.8521 L -1.25,-7.8262 L -1.25,-7.8003 L -1.25,-7.7744 L -1.25,-7.7486 L -1.25,-7.7227 L -1.25,-7.6968 L -1.25,-7.671 L -1.25,-7.6451 L -1.25,-7.6192 L -1.25,-7.5933 L -1.25,-7.5675 L -1.25,-7.5416 L -1.25,-7.5157 L -1.25,-7.4899 L -1.25,-7.464 L -1.25,-7.4381 L -1.25,-7.4122 L -1.25,-7.3864 L -1.25,-7.3605 L -1.25,-7.3346 L -1.25,-7.3088 L -1.25,-7.2829 L -1.25,-7.257 L -1.25,-7.2311 L -1.25,-7.2053 L -1.25,-7.1794 L -1.25,-7.1535 L -1.25,-7.1277 L -1.25,-7.1018 L -1.25,-7.0759 L -1.25,-7.05" />
      <path d="M 1.25,-8.9128 L 1.25,-8.8869 L 1.25,-8.861 L 1.25,-8.8352 L 1.25,-8.8093 L 1.25,-8.7834 L 1.25,-8.7575 L 1.25,-8.7317 L 1.25,-8.7058 L 1.25,-8.6799 L 1.25,-8.6541 L 1.25,-8.6282 L 1.25,-8.6023 L 1.25,-8.5764 L 1.25,-8.5506 L 1.25,-8.5247 L 1.25,-8.4988 L 1.25,-8.473 L 1.25,-8.4471 L 1.25,-8.4212 L 1.25,-8.3953 L 1.25,-8.3695 L 1.25,-8.3436 L 1.25,-8.3177 L 1.25,-8.2919 L 1.25,-8.266 L 1.25,-8.2401 L 1.25,-8.2142 L 1.25,-8.1884 L 1.25,-8.1625 L 1.25,-8.1366 L 1.25,-8.1108 L 1.25,-8.0849 L 1.25,-8.059 L 1.25,-8.0331 L 1.25,-8.0073 L 1.25,-7.9814 L 1.25,-7.9555 L 1.25,-7.9297 L 1.25,-7.9038 L 1.25,-7.8779 L 1.25,-7.8521 L 1.25,-7.8262 L 1.25,-7.8003 L 1.25,-7.7744 L 1.25,-7.7486 L 1.25,-7.7227 L 1.25,-7.6968 L 1.25,-7.671 L 1.25,-7.6451 L 1.25,-7.6192 L 1.25,-7.5933 L 1.25,-7.5675 L 1.25,-7.5416 L 1.25,-7.5157 L 1.25,-7.4899 L 1.25,-7.464 L 1.25,-7.4381 L 1.25,-7.4122 L 1.25,-7.3864 L 1.25,-7.3605 L 1.25,-7.3346 L 1.25,-7.3088 L 1.25,-7.2829 L 1.25,-7.257 L 1.25,-7.2311 L 1.25,-7.2053 L 1.25,-7.1794 L 1.25,-7.1535 L 1.25,-7.1277 L 1.25,-7.1018 L 1.25,-7.0759 L 1.25,-7.05" />
      <path d="M 1.25,7.05 L 1.25,7.0759 L 1.25,7.1018 L 1.25,7.1277 L 1.25,7.1535 L 1.25,7.1794 L 1.25,7.2053 L 1.25,7.2311 L 1.25,7.257 L 1.25,7.2829 L 1.25,7.3088 L 1.25,7.3346 L 1.25,7.3605 L 1.25,7.3864 L 1.25,7.4122 L 1.25,7.4381 L 1.25,7.464 L 1.25,7.4899 L 1.25,7.5157 L 1.25,7.5416 L 1.25,7.5675 L 1.25,7.5933 L 1.25,7.6192 L 1.25,7.6451 L 1.25,7.671 L 1.25,7.6968 L 1.25,7.7227 L 1.25,7.7486 L 1.25,7.7744 L 1.25,7.8003 L 1.25,7.8262 L 1.25,7.8521 L 1.25,7.8779 L 1.25,7.9038 L 1.25,7.9297 L 1.25,7.9555 L 1.25,7.9814 L 1.25,8.0073 L 1.25,8.0331 L 1.25,8.059 L 1.25,8.0849 L 1.25,8.1108 L 1.25,8.1366 L 1.25,8.1625 L 1.25,8.1884 L 1.25,8.2142 L 1.25,8.2401 L 1.25,8.266 L 1.25,8.2919 L 1.25,8.3177 L 1.25,8.3436 L 1.25,8.3695 L 1.25,8.3953 L 1.25,8.4212 L 1.25,8.4471 L 1.25,8.473 L 1.25,8.4988 L 1.25,8.5247 L 1.25,8.5506 L 1.25,8.5764 L 1.25,8.6023 L 1.25,8.6282 L 1.25,8.6541 L 1.25,8.6799 L 1.25,8.7058 L 1.25,8.7317 L 1.25,8.7575 L 1.25,8.7834 L 1.25,8.8093 L 1.25,8.8352 L 1.25,8.861 L 1.25,8.8869 L 1.25,8.9128" />
      <path d="M -1.25,-7.05 L -1.25,-6.8542 L -1.25,-6.6584 L -1.25,-6.4625 L -1.25,-6.2667 L -1.25,-6.0709 L -1.25,-5.875 L -1.25,-5.6792 L -1.25,-5.4834 L -1.25,-5.2875 L -1.25,-5.0917 L -1.25,-4.8959 L -1.25,-4.7 L -1.25,-4.5042 L -1.25,-4.3084 L -1.25,-4.1125 L -1.25,-3.9167 L -1.25,-3.7209 L -1.25,-3.525 L -1.25,-3.3292 L -1.25,-3.1334 L -1.25,-2.9375 L -1.25,-2.7417 L -1.25,-2.5458 L -1.25,-2.35 L -1.25,-2.1542 L -1.25,-1.9583 L -1.25,-1.7625 L -1.25,-1.5667 L -1.25,-1.3708 L -1.25,-1.175 L -1.25,-0.9792 L -1.25,-0.7833 L -1.25,-0.5875 L -1.25,-0.3917 L -1.25,-0.1958 L -1.25,0.0 L -1.25,0.1958 L -1.25,0.3917 L -1.25,0.5875 L -1.25,0.7833 L -1.25,0.9792 L -1.25,1.175 L -1.25,1.3708 L -1.25,1.5667 L -1.25,1.7625 L -1.25,1.9583 L -1.25,2.1542 L -1.25,2.35 L -1.25,2.5458 L -1.25,2.7417 L -1.25,2.9375 L -1.25,3.1334 L -1.25,3.3292 L -1.25,3.525 L -1.25,3.7209 L -1.25,3.9167 L -1.25,4.1125 L -1.25,4.3084 L -1.25,4.5042 L -1.25,4.7 L -1.25,4.8959 L -1.25,5.0917 L -1.25,5.2875 L -1.25,5.4834 L -1.25,5.6792 L -1.25,5.875 L -1.25,6.0709 L -1.25,6.2667 L -1.25,6.4625 L -1.25,6.6584 L -1.25,6.8542 L -1.25,7.05" />
      <path d="M 1.25,-7.05 L 1.25,-6.8542 L 1.25,-6.6584 L 1.25,-6.4625 L 1.25,-6.2667 L 1.25,-6.0709 L 1.25,-5.875 L 1.25,-5.6792 L 1.25,-5.4834 L 1.25,-5.2875 L 1.25,-5.0917 L 1.25,-4.8959 L 1.25,-4.7 L 1.25,-4.5042 L 1.25,-4.3084 L 1.25,-4.1125 L 1.25,-3.9167 L 1.25,-3.7209 L 1.25,-3.525 L 1.25,-3.3292 L 1.25,-3.1334 L 1.25,-2.9375 L 1.25,-2.7417 L 1.25,-2.5458 L 1.25,-2.35 L 1.25,-2.1542 L 1.25,-1.9583 L 1.25,-1.7625 L 1.25,-1.5667 L 1.25,-1.3708 L 1.25,-1.175 L 1.25,-0.9792 L 1.25,-0.7833 L 1.25,-0.5875 L 1.25,-0.3917 L 1.25,-0.1958 L 1.25,0.0 L 1.25,0.1958 L 1.25,0.3917 L 1.25,0.5875 L 1.25,0.7833 L 1.25,0.9792 L 1.25,1.175 L 1.25,1.3708 L 1.25,1.5667 L 1.25,1.7625 L 1.25,1.9583 L 1.25,2.1542 L 1.25,2.35 L 1.25,2.5458 L 1.25,2.7417 L 1.25,2.9375 L 1.25,3.1334 L 1.25,3.3292 L 1.25,3.525 L 1.25,3.7209 L 1.25,3.9167 L 1.25,4.1125 L 1.25,4.3084 L 1.25,4.5042 L 1.25,4.7 L 1.25,4.8959 L 1.25,5.0917 L 1.25,5.2875 L 1.25,5.4834 L 1.25,5.6792 L 1.25,5.875 L 1.25,6.0709 L 1.25,6.2667 L 1.25,6.4625 L 1.25,6.6584 L 1.25,6.8542 L 1.25,7.05" />
      <path d="M 18.098,5.0 L 18.0981,5.0 L 18.0982,5.0" />
      <path d="M 48.0962,5.0 L 48.0835,4.8623 L 48.0783,4.7235 L 48.0744,4.5846 L 48.0712,4.4458 L 48.0685,4.3068 L 48.066,4.1679 L 48.0639,4.029 L 48.0619,3.8901 L 48.0601,3.7512 L 48.0585,3.6123 L 48.0569,3.4734 L 48.0555,3.3344 L 48.0542,3.1955 L 48.053,3.0566 L 48.0519,2.9177 L 48.0508,2.7787 L 48.0498,2.6398 L 48.0489,2.5009 L 48.0481,2.362 L 48.0473,2.223 L 48.0466,2.0841 L 48.0459,1.9452 L 48.0453,1.8062 L 48.0447,1.6673 L 48.0442,1.5284 L 48.0438,1.3895 L 48.0433,1.2505 L 48.043,1.1116 L 48.0426,0.9727 L 48.0424,0.8337 L 48.0421,0.6948 L 48.0419,0.5559 L 48.0418,0.417 L 48.0417,0.278 L 48.0416,0.1391 L 48.0416,0.0002 L 48.0416,-0.1388 L 48.0417,-0.2777 L 48.0418,-0.4166 L 48.0419,-0.5555 L 48.0421,-0.6945 L 48.0424,-0.8334 L 48.0426,-0.9723 L 48.043,-1.1113 L 48.0433,-1.2502 L 48.0437,-1.3891 L 48.0442,-1.528 L 48.0447,-1.667 L 48.0453,-1.8059 L 48.0459,-1.9448 L 48.0466,-2.0838 L 48.0473,-2.2227 L 48.0481,-2.3616 L 48.0489,-2.5005 L 48.0498,-2.6395 L 48.0508,-2.7784 L 48.0519,-2.9173 L 48.053,-3.0562 L 48.0542,-3.1952 L 48.0555,-3.3341 L 48.0569,-3.473 L 48.0584,-3.6119 L 48.0601,-3.7508 L 48.0619,-3.8898 L 48.0639,-4.0287 L 48.066,-4.1676 L 48.0685,-4.3065 L 48.0712,-4.4454 L 48.0744,-4.5843 L 48.0783,-4.7232 L 48.0835,-4.862 L 48.0962,-5.0" />
      <path d="M 18.098,5.0 L 18.0853,4.8623 L 18.0801,4.7235 L 18.0762,4.5846 L 18.073,4.4458 L 18.0703,4.3068 L 18.0678,4.1679 L 18.0657,4.029 L 18.0637,3.8901 L 18.0619,3.7512 L 18.0602,3.6123 L 18.0587,3.4734 L 18.0573,3.3344 L 18.056,3.1955 L 18.0548,3.0566 L 18.0537,2.9177 L 18.0526,2.7787 L 18.0516,2.6398 L 18.0507,2.5009 L 18.0499,2.362 L 18.0491,2.223 L 18.0484,2.0841 L 18.0477,1.9452 L 18.0471,1.8062 L 18.0465,1.6673 L 18.046,1.5284 L 18.0455,1.3895 L 18.0451,1.2505 L 18.0448,1.1116 L 18.0444,0.9727 L 18.0442,0.8337 L 18.0439,0.6948 L 18.0437,0.5559 L 18.0436,0.417 L 18.0435,0.278 L 18.0434,0.1391 L 18.0434,0.0002 L 18.0434,-0.1388 L 18.0435,-0.2777 L 18.0436,-0.4166 L 18.0437,-0.5555 L 18.0439,-0.6945 L 18.0442,-0.8334 L 18.0444,-0.9723 L 18.0448,-1.1113 L 18.0451,-1.2502 L 18.0455,-1.3891 L 18.046,-1.528 L 18.0465,-1.667 L 18.0471,-1.8059 L 18.0477,-1.9448 L 18.0484,-2.0838 L 18.0491,-2.2227 L 18.0499,-2.3616 L 18.0507,-2.5005 L 18.0516,-2.6395 L 18.0526,-2.7784 L 18.0536,-2.9173 L 18.0548,-3.0562 L 18.056,-3.1952 L 18.0573,-3.3341 L 18.0587,-3.473 L 18.0602,-3.6119 L 18.0619,-3.7508 L 18.0637,-3.8898 L 18.0657,-4.0287 L 18.0678,-4.1676 L 18.0703,-4.3065 L 18.073,-4.4454 L 18.0762,-4.5843 L 18.0801,-4.7232 L 18.0853,-4.862 L 18.098,-5.0" />
      <path d="M 18.0985,4.9998 L 18.0984,4.9998 L 18.0984,4.9999 L 18.0983,4.9999 L 18.0982,4.9999 L 18.0982,5.0 L 18.0981,5.0 L 18.098,5.0" />
      <path d="M 15.3859,7.0711 L 15.3859,7.0708 L 15.3858,7.0705 L 15.3858,7.0702 L 15.3858,7.0699 L 15.3858,7.0697 L 15.3858,7.0694 L 15.3857,7.0691 L 15.3857,7.0688 L 15.3857,7.0685 L 15.3857,7.0682 L 15.3857,7.0679 L 15.3856,7.0676 L 15.3856,7.0673 L 15.3856,7.067 L 15.3856,7.0667 L 15.3856,7.0664 L 15.3855,7.0661 L 15.3855,7.0658 L 15.3855,7.0656 L 15.3855,7.0653 L 15.3855,7.065 L 15.3854,7.0647 L 15.3854,7.0644 L 15.3854,7.0641 L 15.3854,7.0638 L 15.3854,7.0635 L 15.3853,7.0632 L 15.3853,7.0629 L 15.3853,7.0626 L 15.3853,7.0623 L 15.3853,7.062 L 15.3852,7.0618 L 15.3852,7.0615 L 15.3852,7.0612 L 15.3852,7.0609 L 15.3852,7.0606 L 15.3852,7.0603 L 15.3851,7.06 L 15.3851,7.0597 L 15.3851,7.0594 L 15.3851,7.0591 L 15.3851,7.0588 L 15.385,7.0585 L 15.385,7.0582 L 15.385,7.0579 L 15.385,7.0577 L 15.385,7.0574 L 15.3849,7.0571 L 15.3849,7.0568 L 15.3849,7.0565 L 15.3849,7.0562 L 15.3849,7.0559 L 15.3849,7.0556 L 15.3848,7.0553 L 15.3848,7.055 L 15.3848,7.0547 L 15.3848,7.0544 L 15.3848,7.0541 L 15.3847,7.0538 L 15.3847,7.0536 L 15.3847,7.0533 L 15.3847,7.053 L 15.3847,7.0527 L 15.3847,7.0524 L 15.3846,7.0521 L 15.3846,7.0518 L 15.3846,7.0515 L 15.3846,7.0512 L 15.3846,7.0509 L 15.3845,7.0506 L 15.3845,7.0503 L 15.3845,7.05" />
      <path d="M 15.3845,7.05 L 15.353,7.0757 L 15.3215,7.1013 L 15.2899,7.1269 L 15.2584,7.1525 L 15.2269,7.1781 L 15.1953,7.2037 L 15.1638,7.2293 L 15.1323,7.2549 L 15.1007,7.2805 L 15.0692,7.3061 L 15.0377,7.3317 L 15.0061,7.3573 L 14.9746,7.3829 L 14.943,7.4085 L 14.9115,7.4341 L 14.88,7.4597 L 14.8484,7.4852 L 14.8169,7.5108 L 14.7853,7.5364 L 14.7538,7.562 L 14.7222,7.5876 L 14.6907,7.6132 L 14.6591,7.6387 L 14.6276,7.6643 L 14.596,7.6899 L 14.5645,7.7155 L 14.5329,7.741 L 14.5013,7.7666 L 14.4698,7.7922 L 14.4382,7.8178 L 14.4067,7.8433 L 14.3751,7.8689 L 14.3435,7.8945 L 14.312,7.92 L 14.2804,7.9456 L 14.2489,7.9712 L 14.2173,7.9967 L 14.1857,8.0223 L 14.1542,8.0478 L 14.1226,8.0734 L 14.091,8.099 L 14.0594,8.1245 L 14.0279,8.1501 L 13.9963,8.1756 L 13.9647,8.2012 L 13.9332,8.2267 L 13.9016,8.2523 L 13.87,8.2778 L 13.8384,8.3034 L 13.8069,8.3289 L 13.7753,8.3545 L 13.7437,8.38 L 13.7121,8.4056 L 13.6805,8.4311 L 13.649,8.4566 L 13.6174,8.4822 L 13.5858,8.5077 L 13.5542,8.5333 L 13.5226,8.5588 L 13.491,8.5843 L 13.4594,8.6099 L 13.4279,8.6354 L 13.3963,8.6609 L 13.3647,8.6865 L 13.3331,8.712 L 13.3015,8.7375 L 13.2699,8.7631 L 13.2383,8.7886 L 13.2067,8.8141 L 13.1751,8.8397 L 13.1435,8.8652 L 13.1119,8.8907" />
      <path d="M 13.1119,-8.8907 L 13.1435,-8.8652 L 13.1751,-8.8397 L 13.2067,-8.8141 L 13.2383,-8.7886 L 13.2699,-8.7631 L 13.3015,-8.7375 L 13.3331,-8.712 L 13.3647,-8.6865 L 13.3963,-8.6609 L 13.4279,-8.6354 L 13.4594,-8.6099 L 13.491,-8.5843 L 13.5226,-8.5588 L 13.5542,-8.5333 L 13.5858,-8.5077 L 13.6174,-8.4822 L 13.649,-8.4566 L 13.6805,-8.4311 L 13.7121,-8.4056 L 13.7437,-8.38 L 13.7753,-8.3545 L 13.8069,-8.3289 L 13.8384,-8.3034 L 13.87,-8.2778 L 13.9016,-8.2523 L 13.9332,-8.2267 L 13.9647,-8.2012 L 13.9963,-8.1756 L 14.0279,-8.1501 L 14.0594,-8.1245 L 14.091,-8.099 L 14.1226,-8.0734 L 14.1542,-8.0478 L 14.1857,-8.0223 L 14.2173,-7.9967 L 14.2489,-7.9712 L 14.2804,-7.9456 L 14.312,-7.92 L 14.3435,-7.8945 L 14.3751,-7.8689 L 14.4067,-7.8433 L 14.4382,-7.8178 L 14.4698,-7.7922 L 14.5013,-7.7666 L 14.5329,-7.741 L 14.5645,-7.7155 L 14.596,-7.6899 L 14.6276,-7.6643 L 14.6591,-7.6387 L 14.6907,-7.6132 L 14.7222,-7.5876 L 14.7538,-7.562 L 14.7853,-7.5364 L 14.8169,-7.5108 L 14.8484,-7.4852 L 14.88,-7.4597 L 14.9115,-7.4341 L 14.943,-7.4085 L 14.9746,-7.3829 L 15.0061,-7.3573 L 15.0377,-7.3317 L 15.0692,-7.3061 L 15.1007,-7.2805 L 15.1323,-7.2549 L 15.1638,-7.2293 L 15.1953,-7.2037 L 15.2269,-7.1781 L 15.2584,-7.1525 L 15.2899,-7.1269 L 15.3215,-7.1013 L 15.353,-7.0757 L 15.3845,-7.05" />
      <path d="M 15.3845,-7.05 L 15.3845,-7.0503 L 15.3845,-7.0506 L 15.3846,-7.0509 L 15.3846,-7.0512 L 15.3846,-7.0515 L 15.3846,-7.0518 L 15.3846,-7.0521 L 15.3847,-7.0524 L 15.3847,-7.0527 L 15.3847,-7.053 L 15.3847,-7.0533 L 15.3847,-7.0536 L 15.3847,-7.0538 L 15.3848,-7.0541 L 15.3848,-7.0544 L 15.3848,-7.0547 L 15.3848,-7.055 L 15.3848,-7.0553 L 15.3849,-7.0556 L 15.3849,-7.0559 L 15.3849,-7.0562 L 15.3849,-7.0565 L 15.3849,-7.0568 L 15.3849,-7.0571 L 15.385,-7.0574 L 15.385,-7.0577 L 15.385,-7.0579 L 15.385,-7.0582 L 15.385,-7.0585 L 15.3851,-7.0588 L 15.3851,-7.0591 L 15.3851,-7.0594 L 15.3851,-7.0597 L 15.3851,-7.06 L 15.3852,-7.0603 L 15.3852,-7.0606 L 15.3852,-7.0609 L 15.3852,-7.0612 L 15.3852,-7.0615 L 15.3852,-7.0618 L 15.3853,-7.062 L 15.3853,-7.0623 L 15.3853,-7.0626 L 15.3853,-7.0629 L 15.3853,-7.0632 L 15.3854,-7.0635 L 15.3854,-7.0638 L 15.3854,-7.0641 L 15.3854,-7.0644 L 15.3854,-7.0647 L 15.3855,-7.065 L 15.3855,-7.0653 L 15.3855,-7.0656 L 15.3855,-7.0658 L 15.3855,-7.0661 L 15.3856,-7.0664 L 15.3856,-7.0667 L 15.3856,-7.067 L 15.3856,-7.0673 L 15.3856,-7.0676 L 15.3857,-7.0679 L 15.3857,-7.0682 L 15.3857,-7.0685 L 15.3857,-7.0688 L 15.3857,-7.0691 L 15.3858,-7.0694 L 15.3858,-7.0697 L 15.3858,-7.0699 L 15.3858,-7.0702 L 15.3858,-7.0705 L 15.3859,-7.0708 L 15.3859,-7.0711" />
      <path d="M 15.3845,-7.05 L 15.3845,-6.8542 L 15.3845,-6.6584 L 15.3845,-6.4625 L 15.3845,-6.2667 L 15.3845,-6.0709 L 15.3845,-5.875 L 15.3845,-5.6792 L 15.3845,-5.4834 L 15.3845,-5.2875 L 15.3845,-5.0917 L 15.3845,-4.8959 L 15.3845,-4.7 L 15.3845,-4.5042 L 15.3845,-4.3084 L 15.3845,-4.1125 L 15.3845,-3.9167 L 15.3845,-3.7209 L 15.3845,-3.525 L 15.3845,-3.3292 L 15.3845,-3.1334 L 15.3845,-2.9375 L 15.3845,-2.7417 L 15.3845,-2.5458 L 15.3845,-2.35 L 15.3845,-2.1542 L 15.3845,-1.9583 L 15.3845,-1.7625 L 15.3845,-1.5667 L 15.3845,-1.3708 L 15.3845,-1.175 L 15.3845,-0.9792 L 15.3845,-0.7833 L 15.3845,-0.5875 L 15.3845,-0.3917 L 15.3845,-0.1958 L 15.3845,0.0 L 15.3845,0.1958 L 15.3845,0.3917 L 15.3845,0.5875 L 15.3845,0.7833 L 15.3845,0.9792 L 15.3845,1.175 L 15.3845,1.3708 L 15.3845,1.5667 L 15.3845,1.7625 L 15.3845,1.9583 L 15.3845,2.1542 L 15.3845,2.35 L 15.3845,2.5458 L 15.3845,2.7417 L 15.3845,2.9375 L 15.3845,3.1334 L 15.3845,3.3292 L 15.3845,3.525 L 15.3845,3.7209 L 15.3845,3.9167 L 15.3845,4.1125 L 15.3845,4.3084 L 15.3845,4.5042 L 15.3845,4.7 L 15.3845,4.8959 L 15.3845,5.0917 L 15.3845,5.2875 L 15.3845,5.4834 L 15.3845,5.6792 L 15.3845,5.875 L 15.3845,6.0709 L 15.3845,6.2667 L 15.3845,6.4625 L 15.3845,6.6584 L 15.3845,6.8542 L 15.3845,7.05" />
      <path d="M 15.4118,-7.05 L 15.4118,-6.8542 L 15.4118,-6.6584 L 15.4118,-6.4625 L 15.4118,-6.2667 L 15.4118,-6.0709 L 15.4118,-5.875 L 15.4118,-5.6792 L 15.4118,-5.4834 L 15.4118,-5.2875 L 15.4118,-5.0917 L 15.4118,-4.8959 L 15.4118,-4.7 L 15.4118,-4.5042 L 15.4118,-4.3084 L 15.4118,-4.1125 L 15.4118,-3.9167 L 15.4118,-3.7209 L 15.4118,-3.525 L 15.4118,-3.3292 L 15.4118,-3.1334 L 15.4118,-2.9375 L 15.4118,-2.7417 L 15.4118,-2.5458 L 15.4118,-2.35 L 15.4118,-2.1542 L 15.4118,-1.9583 L 15.4118,-1.7625 L 15.4118,-1.5667 L 15.4118,-1.3708 L 15.4118,-1.175 L 15.4118,-0.9792 L 15.4118,-0.7833 L 15.4118,-0.5875 L 15.4118,-0.3917 L 15.4118,-0.1958 L 15.4118,0.0 L 15.4118,0.1958 L 15.4118,0.3917 L 15.4118,0.5875 L 15.4118,0.7833 L 15.4118,0.9792 L 15.4118,1.175 L 15.4118,1.3708 L 15.4118,1.5667 L 15.4118,1.7625 L 15.4118,1.9583 L 15.4118,2.1542 L 15.4118,2.35 L 15.4118,2.5458 L 15.4118,2.7417 L 15.4118,2.9375 L 15.4118,3.1334 L 15.4118,3.3292 L 15.4118,3.525 L 15.4118,3.7209 L 15.4118,3.9167 L 15.4118,4.1125 L 15.4118,4.3084 L 15.4118,4.5042 L 15.4118,4.7 L 15.4118,4.8959 L 15.4118,5.0917 L 15.4118,5.2875 L 15.4118,5.4834 L 15.4118,5.6792 L 15.4118,5.875 L 15.4118,6.0709 L 15.4118,6.2667 L 15.4118,6.4625 L 15.4118,6.6584 L 15.4118,6.8542 L 15.4118,7.05" />
      <path d="M 18.098,-5.0 L 18.0981,-5.0 L 18.0982,-5.0" />
    </g>
    <g fill="none" stroke="rgb(0,0,0)" stroke-width="0.2" id="Center" stroke-dasharray="6.35 1.27 1.27 1.27">
      <line x1="0.0" y1="0.0" x2="-11.81" y2="0.0" />
      <line x1="0.0" y1="0.0" x2="11.81" y2="0.0" />
      <line x1="0.0" y1="0.0" x2="0.0" y2="-11.7228" />
      <line x1="0.0" y1="0.0" x2="0.0" y2="11.7228" />
      <line x1="30.5754" y1="0.0" x2="10.19" y2="0.0" />
      <line x1="30.5754" y1="0.0" x2="50.9608" y2="0.0" />
    </g>
  </g>
</svg>