<?xml version='1.0' encoding='utf-8'?>
<svg width="55.3308mm" height="21.22mm" viewBox="-10.61 -10.61 55.3308 21.22" version="1.1" xmlns="http://www.w3.org/2000/svg">
  <g transform="scale(1,-1)" stroke-linecap="round">
    <g fill="none" stroke="rgb(0,0,0)" stroke-width="0.4" id="Visible">
      <path d="M 0.0,6.0 L -0.5229,5.9772 L -1.0419,5.9088 L -1.5529,5.7956 L -2.0521,5.6382 L -2.5357,5.4378 L -3.0,5.1962 L -3.4415,4.9149 L -3.8567,4.5963 L -4.2426,4.2426 L -4.5963,3.8567 L -4.9149,3.4415 L -5.1962,3.0 L -5.4378,2.5357 L -5.6382,2.0521 L -5.7956,1.5529 L -5.9088,1.0419 L -5.9772,0.5229 L -6.0,-0.0 L -5.9772,-0.5229 L -5.9088,-1.0419 L -5.7956,-1.5529 L -5.6382,-2.0521 L -5.4378,-2.5357 L -5.1962,-3.0 L -4.9149,-3.4415 L -4.5963,-3.8567 L -4.2426,-4.2426 L -3.8567,-4.5963 L -3.4415,-4.9149 L -3.0,-5.1962 L -2.5357,-5.4378 L -2.0521,-5.6382 L -1.5529,-5.7956 L -1.0419,-5.9088 L -0.5229,-5.9772 L -0.0,-6.0 L 0.5229,-5.9772 L 1.0419,-5.9088 L 1.5529,-5.7956 L 2.0521,-5.6382 L 2.5357,-5.4378 L 3.0,-5.1962 L 3.4415,-4.9149 L 3.8567,-4.5963 L 4.2426,-4.2426 L 4.5963,-3.8567 L 4.9149,-3.4415 L 5.1962,-3.0 L 5.4378,-2.5357 L 5.6382,-2.0521 L 5.7956,-1.5529 L 5.9088,-1.0419 L 5.9772,-0.5229 L 6.0,0.0 L 5.9772,0.5229 L 5.9088,1.0419 L 5.7956,1.5529 L 5.6382,2.0521 L 5.4378,2.5357 L 5.1962,3.0 L 4.9149,3.4415 L 4.5963,3.8567 L 4.2426,4.2426 L 3.8567,4.5963 L 3.4415,4.9149 L 3.0,5.1962 L 2.5357,5.4378 L 2.0521,5.6382 L 1.5529,5.7956 L 1.0419,5.9088 L 0.5229,5.9772 L 0.0,6.0" />
      <path d="M 3.0,1.7321 L 2.9583,1.7561 L 2.9167,1.7802 L 2.875,1.8042 L 2.8333,1.8283 L 2.7917,1.8523 L 2.75,1.8764 L 2.7083,1.9004 L 2.6667,1.9245 L 2.625,1.9486 L 2.5833,1.9726 L 2.5417,1.9967 L 2.5,2.0207 L 2.4583,2.0448 L 2.4167,2.0688 L 2.375,2.0929 L 2.3333,2.117 L 2.2917,2.141 L 2.25,2.1651 L 2.2083,2.1891 L 2.1667,2.2132 L 2.125,2.2372 L 2.0833,2.2613 L 2.0417,2.2853 L 2.0,2.3094 L 1.9583,2.3335 L 1.9167,2.3575 L 1.875,2.3816 L 1.8333,2.4056 L 1.7917,2.4297 L 1.75,2.4537 L 1.7083,2.4778 L 1.6667,2.5019 L 1.625,2.5259 L 1.5833,2.55 L 1.5417,2.574 L 1.5,2.5981 L 1.4583,2.6221 L 1.4167,2.6462 L 1.375,2.6702 L 1.3333,2.6943 L 1.2917,2.7184 L 1.25,2.7424 L 1.2083,2.7665 L 1.1667,2.7905 L 1.125,2.8146 L 1.0833,2.8386 L 1.0417,2.8627 L 1.0,2.8868 L 0.9583,2.9108 L 0.9167,2.9349 L 0.875,2.9589 L 0.8333,2.983 L 0.7917,3.007 L 0.75,3.0311 L 0.7083,3.0551 L 0.6667,3.0792 L 0.625,3.1033 L 0.5833,3.1273 L 0.5417,3.1514 L 0.5,3.1754 L 0.4583,3.1995 L 0.4167,3.2235 L 0.375,3.2476 L 0.3333,3.2717 L 0.2917,3.2957 L 0.25,3.3198 L 0.2083,3.3438 L 0.1667,3.3679 L 0.125,3.3919 L 0.0833,3.416 L 0.0417,3.44 L 0.0,3.4641" />
      <path d="M 3.0,-1.7321 L 3.0,-1.6839 L 3.0,-1.6358 L 3.0,-1.5877 L 3.0,-1.5396 L 3.0,-1.4915 L 3.0,-1.4434 L 3.0,-1.3953 L 3.0,-1.3472 L 3.0,-1.299 L 3.0,-1.2509 L 3.0,-1.2028 L 3.0,-1.1547 L 3.0,-1.1066 L 3.0,-1.0585 L 3.0,-1.0104 L 3.0,-0.9623 L 3.0,-0.9141 L 3.0,-0.866 L 3.0,-0.8179 L 3.0,-0.7698 L 3.0,-0.7217 L 3.0,-0.6736 L 3.0,-0.6255 L 3.0,-0.5774 L 3.0,-0.5292 L 3.0,-0.4811 L 3.0,-0.433 L 3.0,-0.3849 L 3.0,-0.3368 L 3.0,-0.2887 L 3.0,-0.2406 L 3.0,-0.1925 L 3.0,-0.1443 L 3.0,-0.0962 L 3.0,-0.0481 L 3.0,0.0 L 3.0,0.0481 L 3.0,0.0962 L 3.0,0.1443 L 3.0,0.1925 L 3.0,0.2406 L 3.0,0.2887 L 3.0,0.3368 L 3.0,0.3849 L 3.0,0.433 L 3.0,0.4811 L 3.0,0.5292 L 3.0,0.5774 L 3.0,0.6255 L 3.0,0.6736 L 3.0,0.7217 L 3.0,0.7698 L 3.0,0.8179 L 3.0,0.866 L 3.0,0.9141 L 3.0,0.9623 L 3.0,1.0104 L 3.0,1.0585 L 3.0,1.1066 L 3.0,1.1547 L 3.0,1.2028 L 3.0,1.2509 L 3.0,1.299 L 3.0,1.3472 L 3.0,1.3953 L 3.0,1.4434 L 3.0,1.4915 L 3.0,1.5396 L 3.0,1.5877 L 3.0,1.6358 L 3.0,1.6839 L 3.0,1.7321" />
      <path d="M 0.0,-3.4641 L 0.0417,-3.44 L 0.0833,-3.416 L 0.125,-3.3919 L 0.1667,-3.3679 L 0.2083,-3.3438 L 0.25,-3.3198 L 0.2917,-3.2957 L 0.3333,-3.2717 L 0.375,-3.2476 L 0.4167,-3.2235 L 0.4583,-3.1995 L 0.5,-3.1754 L 0.5417,-3.1514 L 0.5833,-3.1273 L 0.625,-3.1033 L 0.6667,-3.0792 L 0.7083,-3.0551 L 0.75,-3.0311 L 0.7917,-3.007 L 0.8333,-2.983 L 0.875,-2.9589 L 0.9167,-2.9349 L 0.9583,-2.9108 L 1.0,-2.8868 L 1.0417,-2.8627 L 1.0833,-2.8386 L 1.125,-2.8146 L 1.1667,-2.7905 L 1.2083,-2.7665 L 1.25,-2.7424 L 1.2917,-2.7184 L 1.3333,-2.6943 L 1.375,-2.6702 L 1.4167,-2.6462 L 1.4583,-2.6221 L 1.5,-2.5981 L 1.5417,-2.574 L 1.5833,-2.55 L 1.625,-2.5259 L 1.6667,-2.5019 L 1.7083,-2.4778 L 1.75,-2.4537 L 1.7917,-2.4297 L 1.8333,-2.4056 L 1.875,-2.3816 L 1.9167,-2.3575 L 1.9583,-2.3335 L 2.0,-2.3094 L 2.0417,-2.2853 L 2.0833,-2.2613 L 2.125,-2.2372 L 2.1667,-2.2132 L 2.2083,-2.1891 L 2.25,-2.1651 L 2.2917,-2.141 L 2.3333,-2.117 L 2.375,-2.0929 L 2.4167,-2.0688 L 2.4583,-2.0448 L 2.5,-2.0207 L 2.5417,-1.9967 L 2.5833,-1.9726 L 2.625,-1.9486 L 2.6667,-1.9245 L 2.7083,-1.9004 L 2.75,-1.8764 L 2.7917,-1.8523 L 2.8333,-1.8283 L 2.875,-1.8042 L 2.9167,-1.7802 L 2.9583,-1.7561 L 3.0,-1.7321" />
      <path d="M -3.0,-1.7321 L -2.9583,-1.7561 L -2.9167,-1.7802 L -2.875,-1.8042 L -2.8333,-1.8283 L -2.7917,-1.8523 L -2.75,-1.8764 L -2.7083,-1.9004 L -2.6667,-1.9245 L -2.625,-1.9486 L -2.5833,-1.9726 L -2.5417,-1.9967 L -2.5,-2.0207 L -2.4583,-2.0448 L -2.4167,-2.0688 L -2.375,-2.0929 L -2.3333,-2.117 L -2.2917,-2.141 L -2.25,-2.1651 L -2.2083,-2.1891 L -2.1667,-2.2132 L -2.125,-2.2372 L -2.0833,-2.2613 L -2.0417,-2.2853 L -2.0,-2.3094 L -1.9583,-2.3335 L -1.9167,-2.3575 L -1.875,-2.3816 L -1.8333,-2.4056 L -1.7917,-2.4297 L -1.75,-2.4537 L -1.7083,-2.4778 L -1.6667,-2.5019 L -1.625,-2.5259 L -1.5833,-2.55 L -1.5417,-2.574 L -1.5,-2.5981 L -1.4583,-2.6221 L -1.4167,-2.6462 L -1.375,-2.6702 L -1.3333,-2.6943 L -1.2917,-2.7184 L -1.25,-2.7424 L -1.2083,-2.7665 L -1.1667,-2.7905 L -1.125,-2.8146 L -1.0833,-2.8386 L -1.0417,-2.8627 L -1.0,-2.8868 L -0.9583,-2.9108 L -0.9167,-2.9349 L -0.875,-2.9589 L -0.8333,-2.983 L -0.7917,-3.007 L -0.75,-3.0311 L -0.7083,-3.0551 L -0.6667,-3.0792 L -0.625,-3.1033 L -0.5833,-3.1273 L -0.5417,-3.1514 L -0.5,-3.1754 L -0.4583,-3.1995 L -0.4167,-3.2235 L -0.375,-3.2476 L -0.3333,-3.2717 L -0.2917,-3.2957 L -0.25,-3.3198 L -0.2083,-3.3438 L -0.1667,-3.3679 L -0.125,-3.3919 L -0.0833,-3.416 L -0.0417,-3.44 L -0.0,-3.4641" />
      <path d="M -3.0,1.7321 L -3.0,1.6839 L -3.0,1.6358 L -3.0,1.5877 L -3.0,1.5396 L -3.0,1.4915 L -3.0,1.4434 L -3.0,1.3953 L -3.0,1.3472 L -3.0,1.299 L -3.0,1.2509 L -3.0,1.2028 L -3.0,1.1547 L -3.0,1.1066 L -3.0,1.0585 L -3.0,1.0104 L -3.0,0.9623 L -3.0,0.9141 L -3.0,0.866 L -3.0,0.8179 L -3.0,0.7698 L -3.0,0.7217 L -3.0,0.6736 L -3.0,0.6255 L -3.0,0.5774 L -3.0,0.5292 L -3.0,0.4811 L -3.0,0.433 L -3.0,0.3849 L -3.0,0.3368 L -3.0,0.2887 L -3.0,0.2406 L -3.0,0.1925 L -3.0,0.1443 L -3.0,0.0962 L -3.0,0.0481 L -3.0,0.0 L -3.0,-0.0481 L -3.0,-0.0962 L -3.0,-0.1443 L -3.0,-0.1925 L -3.0,-0.2406 L -3.0,-0.2887 L -3.0,-0.3368 L -3.0,-0.3849 L -3.0,-0.433 L -3.0,-0.4811 L -3.0,-0.5292 L -3.0,-0.5774 L -3.0,-0.6255 L -3.0,-0.6736 L -3.0,-0.7217 L -3.0,-0.7698 L -3.0,-0.8179 L -3.0,-0.866 L -3.0,-0.9141 L -3.0,-0.9623 L -3.0,-1.0104 L -3.0,-1.0585 L -3.0,-1.1066 L -3.0,-1.1547 L -3.0,-1.2028 L -3.0,-1.2509 L -3.0,-1.299 L -3.0,-1.3472 L -3.0,-1.3953 L -3.0,-1.4434 L -3.0,-1.4915 L -3.0,-1.5396 L -3.0,-1.5877 L -3.0,-1.6358 L -3.0,-1.6839 L -3.0,-1.7321" />
      <path d="M 0.0,3.4641 L -0.0417,3.44 L -0.0833,3.416 L -0.125,3.3919 L -0.1667,3.3679 L -0.2083,3.3438 L -0.25,3.3198 L -0.2917,3.2957 L -0.3333,3.2717 L -0.375,3.2476 L -0.4167,3.2235 L -0.4583,3.1995 L -0.5,3.1754 L -0.5417,3.1514 L -0.5833,3.1273 L -0.625,3.1033 L -0.6667,3.0792 L -0.7083,3.0551 L -0.75,3.0311 L -0.7917,3.007 L -0.8333,2.983 L -0.875,2.9589 L -0.9167,2.9349 L -0.9583,2.9108 L -1.0,2.8868 L -1.0417,2.8627 L -1.0833,2.8386 L -1.125,2.8146 L -1.1667,2.7905 L -1.2083,2.7665 L -1.25,2.7424 L -1.2917,2.7184 L -1.3333,2.6943 L -1.375,2.6702 L -1.4167,2.6462 L -1.4583,2.6221 L -1.5,2.5981 L -1.5417,2.574 L -1.5833,2.55 L -1.625,2.5259 L -1.6667,2.5019 L -1.7083,2.4778 L -1.75,2.4537 L -1.7917,2.4297 L -1.8333,2.4056 L -1.875,2.3816 L -1.9167,2.3575 L -1.9583,2.3335 L -2.0,2.3094 L -2.0417,2.2853 L -2.0833,2.2613 L -2.125,2.2372 L -2.1667,2.2132 L -2.2083,2.1891 L -2.25,2.1651 L -2.2917,2.141 L -2.3333,2.117 L -2.375,2.0929 L -2.4167,2.0688 L -2.4583,2.0448 L -2.5,2.0207 L -2.5417,1.9967 L -2.5833,1.9726 L -2.625,1.9486 L -2.6667,1.9245 L -2.7083,1.9004 L -2.75,1.8764 L -2.7917,1.8523 L -2.8333,1.8283 L -2.875,1.8042 L -2.9167,1.7802 L -2.9583,1.7561 L -3.0,1.7321" />
      <path d="M 10.0948,-6.0 L 10.0728,-5.8361 L 10.0638,-5.6696 L 10.057,-5.503 L 10.0515,-5.3364 L 10.0467,-5.1697 L 10.0425,-5.003 L 10.0387,-4.8362 L 10.0353,-4.6695 L 10.0322,-4.5028 L 10.0293,-4.336 L 10.0266,-4.1693 L 10.0242,-4.0026 L 10.0219,-3.8358 L 10.0198,-3.6691 L 10.0178,-3.5023 L 10.016,-3.3356 L 10.0143,-3.1688 L 10.0127,-3.0021 L 10.0113,-2.8353 L 10.0099,-2.6685 L 10.0086,-2.5018 L 10.0075,-2.335 L 10.0064,-2.1683 L 10.0054,-2.0015 L 10.0045,-1.8347 L 10.0037,-1.668 L 10.003,-1.5012 L 10.0024,-1.3345 L 10.0018,-1.1677 L 10.0013,-1.0009 L 10.0009,-0.8342 L 10.0006,-0.6674 L 10.0003,-0.5006 L 10.0001,-0.3339 L 10.0,-0.1671 L 10.0,-0.0004 L 10.0,0.1664 L 10.0001,0.3332 L 10.0003,0.4999 L 10.0006,0.6667 L 10.0009,0.8335 L 10.0013,1.0002 L 10.0018,1.167 L 10.0024,1.3337 L 10.003,1.5005 L 10.0037,1.6673 L 10.0045,1.834 L 10.0054,2.0008 L 10.0064,2.1676 L 10.0075,2.3343 L 10.0086,2.5011 L 10.0099,2.6678 L 10.0112,2.8346 L 10.0127,3.0013 L 10.0143,3.1681 L 10.016,3.3349 L 10.0178,3.5016 L 10.0198,3.6684 L 10.0219,3.8351 L 10.0242,4.0019 L 10.0266,4.1686 L 10.0293,4.3354 L 10.0321,4.5021 L 10.0353,4.6688 L 10.0387,4.8356 L 10.0425,5.0023 L 10.0467,5.169 L 10.0515,5.3357 L 10.057,5.5024 L 10.0638,5.669 L 10.0728,5.8356 L 10.0948,6.0" />
      <path d="M 35.3417,6.0 L 35.3418,6.0 L 35.3419,6.0 L 35.342,6.0 L 35.3421,5.9999 L 35.3422,5.9999 L 35.3423,5.9999 L 35.3423,5.9998 L 35.3424,5.9998 L 35.3425,5.9998 L 35.3425,5.9997 L 35.3426,5.9997 L 35.3427,5.9997 L 35.3427,5.9996 L 35.3428,5.9996 L 35.3428,5.9995 L 35.3429,5.9995 L 35.343,5.9994 L 35.3431,5.9994 L 35.3431,5.9993 L 35.3432,5.9993" />
      <path d="M 35.3432,-5.9993 L 35.3431,-5.9993 L 35.3431,-5.9994 L 35.343,-5.9994 L 35.3429,-5.9995 L 35.3428,-5.9995 L 35.3428,-5.9996 L 35.3427,-5.9996 L 35.3427,-5.9997 L 35.3426,-5.9997 L 35.3425,-5.9997 L 35.3425,-5.9998 L 35.3424,-5.9998 L 35.3423,-5.9998 L 35.3423,-5.9999 L 35.3422,-5.9999 L 35.3421,-5.9999 L 35.342,-6.0 L 35.3419,-6.0 L 35.3418,-6.0 L 35.3417,-6.0" />
      <path d="M 35.3417,-6.0 L 35.3197,-5.8361 L 35.3106,-5.6696 L 35.3039,-5.503 L 35.2983,-5.3364 L 35.2935,-5.1697 L 35.2893,-5.003 L 35.2855,-4.8362 L 35.2821,-4.6695 L 35.279,-4.5028 L 35.2761,-4.336 L 35.2735,-4.1693 L 35.271,-4.0026 L 35.2688,-3.8358 L 35.2666,-3.6691 L 35.2647,-3.5023 L 35.2628,-3.3356 L 35.2611,-3.1688 L 35.2596,-3.0021 L 35.2581,-2.8353 L 35.2567,-2.6685 L 35.2555,-2.5018 L 35.2543,-2.335 L 35.2533,-2.1683 L 35.2523,-2.0015 L 35.2514,-1.8347 L 35.2506,-1.668 L 35.2499,-1.5012 L 35.2492,-1.3345 L 35.2487,-1.1677 L 35.2482,-1.0009 L 35.2478,-0.8342 L 35.2474,-0.6674 L 35.2472,-0.5006 L 35.247,-0.3339 L 35.2469,-0.1671 L 35.2468,-0.0004 L 35.2469,0.1664 L 35.247,0.3332 L 35.2472,0.4999 L 35.2474,0.6667 L 35.2478,0.8335 L 35.2482,1.0002 L 35.2487,1.167 L 35.2492,1.3337 L 35.2499,1.5005 L 35.2506,1.6673 L 35.2514,1.834 L 35.2523,2.0008 L 35.2533,2.1676 L 35.2543,2.3343 L 35.2555,2.5011 L 35.2567,2.6678 L 35.2581,2.8346 L 35.2596,3.0013 L 35.2611,3.1681 L 35.2628,3.3349 L 35.2647,3.5016 L 35.2666,3.6684 L 35.2687,3.8351 L 35.271,4.0019 L 35.2735,4.1686 L 35.2761,4.3354 L 35.279,4.5021 L 35.2821,4.6688 L 35.2855,4.8356 L 35.2893,5.0023 L 35.2935,5.169 L 35.2983,5.3357 L 35.3039,5.5024 L 35.3106,5.669 L 35.3196,5.8356 L 35.3417,6.0" />
      <path d="M 10.0948,6.0 L 10.4455,6.0 L 10.7961,6.0 L 11.1468,6.0 L 11.4974,6.0 L 11.8481,6.0 L 12.1987,6.0 L 12.5494,6.0 L 12.9,6.0 L 13.2507,6.0 L 13.6013,6.0 L 13.952,6.0 L 14.3026,6.0 L 14.6533,6.0 L 15.0039,6.0 L 15.3546,6.0 L 15.7052,6.0 L 16.0559,6.0 L 16.4065,6.0 L 16.7572,6.0 L 17.1078,6.0 L 17.4585,6.0 L 17.8091,6.0 L 18.1598,6.0 L 18.5104,6.0 L 18.8611,6.0 L 19.2117,6.0 L 19.5624,6.0 L 19.913,6.0 L 20.2637,6.0 L 20.6143,6.0 L 20.965,6.0 L 21.3156,6.0 L 21.6663,6.0 L 22.0169,6.0 L 22.3676,6.0 L 22.7182,6.0 L 23.0689,6.0 L 23.4195,6.0 L 23.7702,6.0 L 24.1208,6.0 L 24.4715,6.0 L 24.8221,6.0 L 25.1728,6.0 L 25.5234,6.0 L 25.8741,6.0 L 26.2247,6.0 L 26.5754,6.0 L 26.9261,6.0 L 27.2767,6.0 L 27.6274,6.0 L 27.978,6.0 L 28.3287,6.0 L 28.6793,6.0 L 29.03,6.0 L 29.3806,6.0 L 29.7313,6.0 L 30.0819,6.0 L 30.4326,6.0 L 30.7832,6.0 L 31.1339,6.0 L 31.4845,6.0 L 31.8352,6.0 L 32.1858,6.0 L 32.5365,6.0 L 32.8871,6.0 L 33.2378,6.0 L 33.5884,6.0 L 33.9391,6.0 L 34.2897,6.0 L 34.6404,6.0 L 34.991,6.0 L 35.3417,6.0" />
      <path d="M 40.0911,1.25 L 40.0912,1.25 L 40.0913,1.2499 L 40.0914,1.2499 L 40.0914,1.2498" />
      <path d="M 40.0914,1.2498 L 40.0957,1.2155 L 40.0976,1.1808 L 40.099,1.1461 L 40.1001,1.1114 L 40.1011,1.0767 L 40.102,1.042 L 40.1028,1.0072 L 40.1035,0.9725 L 40.1041,0.9378 L 40.1047,0.9031 L 40.1053,0.8683 L 40.1058,0.8336 L 40.1063,0.7989 L 40.1067,0.7641 L 40.1071,0.7294 L 40.1075,0.6947 L 40.1078,0.66 L 40.1082,0.6252 L 40.1085,0.5905 L 40.1088,0.5558 L 40.109,0.521 L 40.1093,0.4863 L 40.1095,0.4516 L 40.1097,0.4168 L 40.1099,0.3821 L 40.11,0.3474 L 40.1102,0.3126 L 40.1103,0.2779 L 40.1104,0.2432 L 40.1106,0.2084 L 40.1106,0.1737 L 40.1107,0.139 L 40.1108,0.1042 L 40.1108,0.0695 L 40.1108,0.0348 L 40.1108,0.0 L 40.1108,-0.0347 L 40.1108,-0.0694 L 40.1108,-0.1042 L 40.1107,-0.1389 L 40.1106,-0.1736 L 40.1106,-0.2084 L 40.1105,-0.2431 L 40.1103,-0.2778 L 40.1102,-0.3126 L 40.11,-0.3473 L 40.1099,-0.382 L 40.1097,-0.4168 L 40.1095,-0.4515 L 40.1093,-0.4862 L 40.109,-0.521 L 40.1088,-0.5557 L 40.1085,-0.5904 L 40.1082,-0.6252 L 40.1079,-0.6599 L 40.1075,-0.6946 L 40.1071,-0.7294 L 40.1067,-0.7641 L 40.1063,-0.7988 L 40.1058,-0.8336 L 40.1053,-0.8683 L 40.1047,-0.903 L 40.1041,-0.9378 L 40.1035,-0.9725 L 40.1028,-1.0072 L 40.102,-1.0419 L 40.1011,-1.0767 L 40.1001,-1.1114 L 40.099,-1.1461 L 40.0976,-1.1808 L 40.0957,-1.2155 L 40.0914,-1.2498" />
      <path d="M 40.0914,-1.2498 L 40.0865,-1.2162 L 40.0846,-1.1815 L 40.0832,-1.1468 L 40.0821,-1.1121 L 40.0811,-1.0774 L 40.0802,-1.0426 L 40.0794,-1.0079 L 40.0787,-0.9732 L 40.078,-0.9385 L 40.0774,-0.9037 L 40.0769,-0.869 L 40.0764,-0.8342 L 40.0759,-0.7995 L 40.0754,-0.7648 L 40.075,-0.73 L 40.0747,-0.6953 L 40.0743,-0.6605 L 40.074,-0.6258 L 40.0737,-0.5911 L 40.0734,-0.5563 L 40.0731,-0.5216 L 40.0729,-0.4868 L 40.0727,-0.4521 L 40.0725,-0.4173 L 40.0723,-0.3826 L 40.0721,-0.3478 L 40.0719,-0.3131 L 40.0718,-0.2783 L 40.0717,-0.2436 L 40.0716,-0.2088 L 40.0715,-0.1741 L 40.0714,-0.1393 L 40.0714,-0.1046 L 40.0714,-0.0698 L 40.0713,-0.0351 L 40.0713,-0.0003 L 40.0713,0.0344 L 40.0713,0.0692 L 40.0714,0.1039 L 40.0714,0.1387 L 40.0715,0.1734 L 40.0716,0.2082 L 40.0717,0.2429 L 40.0718,0.2776 L 40.0719,0.3124 L 40.0721,0.3471 L 40.0723,0.3819 L 40.0724,0.4166 L 40.0727,0.4514 L 40.0729,0.4861 L 40.0731,0.5209 L 40.0734,0.5556 L 40.0737,0.5904 L 40.074,0.6251 L 40.0743,0.6599 L 40.0747,0.6946 L 40.075,0.7294 L 40.0754,0.7641 L 40.0759,0.7989 L 40.0764,0.8336 L 40.0769,0.8684 L 40.0774,0.9031 L 40.078,0.9378 L 40.0787,0.9726 L 40.0794,1.0073 L 40.0802,1.0421 L 40.081,1.0768 L 40.082,1.1116 L 40.0832,1.1463 L 40.0846,1.181 L 40.0865,1.2157 L 40.0911,1.25" />
      <path d="M 10.0948,-6.0 L 10.4455,-6.0 L 10.7961,-6.0 L 11.1468,-6.0 L 11.4974,-6.0 L 11.8481,-6.0 L 12.1987,-6.0 L 12.5494,-6.0 L 12.9,-6.0 L 13.2507,-6.0 L 13.6013,-6.0 L 13.952,-6.0 L 14.3026,-6.0 L 14.6533,-6.0 L 15.0039,-6.0 L 15.3546,-6.0 L 15.7052,-6.0 L 16.0559,-6.0 L 16.4065,-6.0 L 16.7572,-6.0 L 17.1078,-6.0 L 17.4585,-6.0 L 17.8091,-6.0 L 18.1598,-6.0 L 18.5104,-6.0 L 18.8611,-6.0 L 19.2117,-6.0 L 19.5624,-6.0 L 19.913,-6.0 L 20.2637,-6.0 L 20.6143,-6.0 L 20.965,-6.0 L 21.3156,-6.0 L 21.6663,-6.0 L 22.0169,-6.0 L 22.3676,-6.0 L 22.7182,-6.0 L 23.0689,-6.0 L 23.4195,-6.0 L 23.7702,-6.0 L 24.1208,-6.0 L 24.4715,-6.0 L 24.8221,-6.0 L 25.1728,-6.0 L 25.5234,-6.0 L 25.8741,-6.0 L 26.2247,-6.0 L 26.5754,-6.0 L 26.9261,-6.0 L 27.2767,-6.0 L 27.6274,-6.0 L 27.978,-6.0 L 28.3287,-6.0 L 28.6793,-6.0 L 29.03,-6.0 L 29.3806,-6.0 L 29.7313,-6.0 L 30.0819,-6.0 L 30.4326,-6.0 L 30.7832,-6.0 L 31.1339,-6.0 L 31.4845,-6.0 L 31.8352,-6.0 L 32.1858,-6.0 L 32.5365,-6.0 L 32.8871,-6.0 L 33.2378,-6.0 L 33.5884,-6.0 L 33.9391,-6.0 L 34.2897,-6.0 L 34.6404,-6.0 L 34.991,-6.0 L 35.3417,-6.0" />
      <path d="M 40.0914,1.2498 L 40.0254,1.3158 L 39.9595,1.3818 L 39.8935,1.4477 L 39.8276,1.5137 L 39.7616,1.5797 L 39.6957,1.6456 L 39.6298,1.7116 L 39.5638,1.7776 L 39.4979,1.8435 L 39.4319,1.9095 L 39.366,1.9754 L 39.3,2.0414 L 39.2341,2.1074 L 39.1681,2.1733 L 39.1022,2.2393 L 39.0362,2.3053 L 38.9703,2.3712 L 38.9043,2.4372 L 38.8384,2.5032 L 38.7724,2.5691 L 38.7065,2.6351 L 38.6405,2.7011 L 38.5746,2.767 L 38.5086,2.833 L 38.4427,2.8989 L 38.3768,2.9649 L 38.3108,3.0309 L 38.2449,3.0968 L 38.1789,3.1628 L 38.113,3.2288 L 38.047,3.2947 L 37.9811,3.3607 L 37.9151,3.4267 L 37.8492,3.4926 L 37.7832,3.5586 L 37.7173,3.6245 L 37.6513,3.6905 L 37.5854,3.7565 L 37.5194,3.8224 L 37.4535,3.8884 L 37.3875,3.9544 L 37.3216,4.0203 L 37.2556,4.0863 L 37.1897,4.1523 L 37.1237,4.2182 L 37.0578,4.2842 L 36.9919,4.3502 L 36.9259,4.4161 L 36.86,4.4821 L 36.794,4.548 L 36.7281,4.614 L 36.6621,4.68 L 36.5962,4.7459 L 36.5302,4.8119 L 36.4643,4.8779 L 36.3983,4.9438 L 36.3324,5.0098 L 36.2664,5.0758 L 36.2005,5.1417 L 36.1345,5.2077 L 36.0686,5.2736 L 36.0026,5.3396 L 35.9367,5.4056 L 35.8707,5.4715 L 35.8048,5.5375 L 35.7389,5.6035 L 35.6729,5.6694 L 35.607,5.7354 L 35.541,5.8014 L 35.4751,5.8673 L 35.4091,5.9333 L 35.3432,5.9993" />
      <path d="M 40.0914,-1.2498 L 40.0254,-1.3158 L 39.9595,-1.3818 L 39.8935,-1.4477 L 39.8276,-1.5137 L 39.7616,-1.5797 L 39.6957,-1.6456 L 39.6298,-1.7116 L 39.5638,-1.7776 L 39.4979,-1.8435 L 39.4319,-1.9095 L 39.366,-1.9754 L 39.3,-2.0414 L 39.2341,-2.1074 L 39.1681,-2.1733 L 39.1022,-2.2393 L 39.0362,-2.3053 L 38.9703,-2.3712 L 38.9043,-2.4372 L 38.8384,-2.5032 L 38.7724,-2.5691 L 38.7065,-2.6351 L 38.6405,-2.7011 L 38.5746,-2.767 L 38.5086,-2.833 L 38.4427,-2.8989 L 38.3768,-2.9649 L 38.3108,-3.0309 L 38.2449,-3.0968 L 38.1789,-3.1628 L 38.113,-3.2288 L 38.047,-3.2947 L 37.9811,-3.3607 L 37.9151,-3.4267 L 37.8492,-3.4926 L 37.7832,-3.5586 L 37.7173,-3.6245 L 37.6513,-3.6905 L 37.5854,-3.7565 L 37.5194,-3.8224 L 37.4535,-3.8884 L 37.3875,-3.9544 L 37.3216,-4.0203 L 37.2556,-4.0863 L 37.1897,-4.1523 L 37.1237,-4.2182 L 37.0578,-4.2842 L 36.9919,-4.3502 L 36.9259,-4.4161 L 36.86,-4.4821 L 36.794,-4.548 L 36.7281,-4.614 L 36.6621,-4.68 L 36.5962,-4.7459 L 36.5302,-4.8119 L 36.4643,-4.8779 L 36.3983,-4.9438 L 36.3324,-5.0098 L 36.2664,-5.0758 L 36.2005,-5.1417 L 36.1345,-5.2077 L 36.0686,-5.2736 L 36.0026,-5.3396 L 35.9367,-5.4056 L 35.8707,-5.4715 L 35.8048,-5.5375 L 35.7389,-5.6035 L 35.6729,-5.6694 L 35.607,-5.7354 L 35.541,-5.8014 L 35.4751,-5.8673 L 35.4091,-5.9333 L 35.3432,-5.9993" />
    </g>
    <g fill="none" stroke="rgb(110,110,110)" stroke-width="0.3" id="Hidden" stroke-dasharray="3.6 0.9">
      <path d="M 0.0,6.0 L -0.5229,5.9772 L -1.0419,5.9088 L -1.5529,5.7956 L -2.0521,5.6382 L -2.5357,5.4378 L -3.0,5.1962 L -3.4415,4.9149 L -3.8567,4.5963 L -4.2426,4.2426 L -4.5963,3.8567 L -4.9149,3.4415 L -5.1962,3.0 L -5.4378,2.5357 L -5.6382,2.0521 L -5.7956,1.5529 L -5.9088,1.0419 L -5.9772,0.5229 L -6.0,-0.0 L -5.9772,-0.5229 L -5.9088,-1.0419 L -5.7956,-1.5529 L -5.6382,-2.0521 L -5.4378,-2.5357 L -5.1962,-3.0 L -4.9149,-3.4415 L -4.5963,-3.8567 L -4.2426,-4.2426 L -3.8567,-4.5963 L -3.4415,-4.9149 L -3.0,-5.1962 L -2.5357,-5.4378 L -2.0521,-5.6382 L -1.5529,-5.7956 L -1.0419,-5.9088 L -0.5229,-5.9772 L -0.0,-6.0 L 0.5229,-5.9772 L 1.0419,-5.9088 L 1.5529,-5.7956 L 2.0521,-5.6382 L 2.5357,-5.4378 L 3.0,-5.1962 L 3.4415,-4.9149 L 3.8567,-4.5963 L 4.2426,-4.2426 L 4.5963,-3.8567 L 4.9149,-3.4415 L 5.1962,-3.0 L 5.4378,-2.5357 L 5.6382,-2.0521 L 5.7956,-1.5529 L 5.9088,-1.0419 L 5.9772,-0.5229 L 6.0,0.0 L 5.9772,0.5229 L 5.9088,1.0419 L 5.7956,1.5529 L 5.6382,2.0521 L 5.4378,2.5357 L 5.1962,3.0 L 4.9149,3.4415 L 4.5963,3.8567 L 4.2426,4.2426 L 3.8567,4.5963 L 3.4415,4.9149 L 3.0,5.1962 L 2.5357,5.4378 L 2.0521,5.6382 L 1.5529,5.7956 L 1.0419,5.9088 L 0.5229,5.9772 L 0.0,6.0" />
      <path d="M 3.0,1.7321 L 2.9583,1.7561 L 2.9167,1.7802 L 2.875,1.8042 L 2.8333,1.8283 L 2.7917,1.8523 L 2.75,1.8764 L 2.7083,1.9004 L 2.6667,1.9245 L 2.625,1.9486 L 2.5833,1.9726 L 2.5417,1.9967 L 2.5,2.0207 L 2.4583,2.0448 L 2.4167,2.0688 L 2.375,2.0929 L 2.3333,2.117 L 2.2917,2.141 L 2.25,2.1651 L 2.2083,2.1891 L 2.1667,2.2132 L 2.125,2.2372 L 2.0833,2.2613 L 2.0417,2.2853 L 2.0,2.3094 L 1.9583,2.3335 L 1.9167,2.3575 L 1.875,2.3816 L 1.8333,2.4056 L 1.7917,2.4297 L 1.75,2.4537 L 1.7083,2.4778 L 1.6667,2.5019 L 1.625,2.5259 L 1.5833,2.55 L 1.5417,2.574 L 1.5,2.5981 L 1.4583,2.6221 L 1.4167,2.6462 L 1.375,2.6702 L 1.3333,2.6943 L 1.2917,2.7184 L 1.25,2.7424 L 1.2083,2.7665 L 1.1667,2.7905 L 1.125,2.8146 L 1.0833,2.8386 L 1.0417,2.8627 L 1.0,2.8868 L 0.9583,2.9108 L 0.9167,2.9349 L 0.875,2.9589 L 0.8333,2.983 L 0.7917,3.007 L 0.75,3.0311 L 0.7083,3.0551 L 0.6667,3.0792 L 0.625,3.1033 L 0.5833,3.1273 L 0.5417,3.1514 L 0.5,3.1754 L 0.4583,3.1995 L 0.4167,3.2235 L 0.375,3.2476 L 0.3333,3.2717 L 0.2917,3.2957 L 0.25,3.3198 L 0.2083,3.3438 L 0.1667,3.3679 L 0.125,3.3919 L 0.0833,3.416 L 0.0417,3.44 L 0.0,3.4641" />
      <path d="M 3.0,-1.7321 L 3.0,-1.6839 L 3.0,-1.6358 L 3.0,-1.5877 L 3.0,-1.5396 L 3.0,-1.4915 L 3.0,-1.4434 L 3.0,-1.3953 L 3.0,-1.3472 L 3.0,-1.299 L 3.0,-1.2509 L 3.0,-1.2028 L 3.0,-1.1547 L 3.0,-1.1066 L 3.0,-1.0585 L 3.0,-1.0104 L 3.0,-0.9623 L 3.0,-0.9141 L 3.0,-0.866 L 3.0,-0.8179 L 3.0,-0.7698 L 3.0,-0.7217 L 3.0,-0.6736 L 3.0,-0.6255 L 3.0,-0.5774 L 3.0,-0.5292 L 3.0,-0.4811 L 3.0,-0.433 L 3.0,-0.3849 L 3.0,-0.3368 L 3.0,-0.2887 L 3.0,-0.2406 L 3.0,-0.1925 L 3.0,-0.1443 L 3.0,-0.0962 L 3.0,-0.0481 L 3.0,0.0 L 3.0,0.0481 L 3.0,0.0962 L 3.0,0.1443 L 3.0,0.1925 L 3.0,0.2406 L 3.0,0.2887 L 3.0,0.3368 L 3.0,0.3849 L 3.0,0.433 L 3.0,0.4811 L 3.0,0.5292 L 3.0,0.5774 L 3.0,0.6255 L 3.0,0.6736 L 3.0,0.7217 L 3.0,0.7698 L 3.0,0.8179 L 3.0,0.866 L 3.0,0.9141 L 3.0,0.9623 L 3.0,1.0104 L 3.0,1.0585 L 3.0,1.1066 L 3.0,1.1547 L 3.0,1.2028 L 3.0,1.2509 L 3.0,1.299 L 3.0,1.3472 L 3.0,1.3953 L 3.0,1.4434 L 3.0,1.4915 L 3.0,1.5396 L 3.0,1.5877 L 3.0,1.6358 L 3.0,1.6839 L 3.0,1.7321" />
      <path d="M 0.0,-3.4641 L 0.0417,-3.44 L 0.0833,-3.416 L 0.125,-3.3919 L 0.1667,-3.3679 L 0.2083,-3.3438 L 0.25,-3.3198 L 0.2917,-3.2957 L 0.3333,-3.2717 L 0.375,-3.2476 L 0.4167,-3.2235 L 0.4583,-3.1995 L 0.5,-3.1754 L 0.5417,-3.1514 L 0.5833,-3.1273 L 0.625,-3.1033 L 0.6667,-3.0792 L 0.7083,-3.0551 L 0.75,-3.0311 L 0.7917,-3.007 L 0.8333,-2.983 L 0.875,-2.9589 L 0.9167,-2.9349 L 0.9583,-2.9108 L 1.0,-2.8868 L 1.0417,-2.8627 L 1.0833,-2.8386 L 1.125,-2.8146 L 1.1667,-2.7905 L 1.2083,-2.7665 L 1.25,-2.7424 L 1.2917,-2.7184 L 1.3333,-2.6943 L 1.375,-2.6702 L 1.4167,-2.6462 L 1.4583,-2.6221 L 1.5,-2.5981 L 1.5417,-2.574 L 1.5833,-2.55 L 1.625,-2.5259 L 1.6667,-2.5019 L 1.7083,-2.4778 L 1.75,-2.4537 L 1.7917,-2.4297 L 1.8333,-2.4056 L 1.875,-2.3816 L 1.9167,-2.3575 L 1.9583,-2.3335 L 2.0,-2.3094 L 2.0417,-2.2853 L 2.0833,-2.2613 L 2.125,-2.2372 L 2.1667,-2.2132 L 2.2083,-2.1891 L 2.25,-2.1651 L 2.2917,-2.141 L 2.3333,-2.117 L 2.375,-2.0929 L 2.4167,-2.0688 L 2.4583,-2.0448 L 2.5,-2.0207 L 2.5417,-1.9967 L 2.5833,-1.9726 L 2.625,-1.9486 L 2.6667,-1.9245 L 2.7083,-1.9004 L 2.75,-1.8764 L 2.7917,-1.8523 L 2.8333,-1.8283 L 2.875,-1.8042 L 2.9167,-1.7802 L 2.9583,-1.7561 L 3.0,-1.7321" />
      <path d="M -3.0,-1.7321 L -2.9583,-1.7561 L -2.9167,-1.7802 L -2.875,-1.8042 L -2.8333,-1.8283 L -2.7917,-1.8523 L -2.75,-1.8764 L -2.7083,-1.9004 L -2.6667,-1.9245 L -2.625,-1.9486 L -2.5833,-1.9726 L -2.5417,-1.9967 L -2.5,-2.0207 L -2.4583,-2.0448 L -2.4167,-2.0688 L -2.375,-2.0929 L -2.3333,-2.117 L -2.2917,-2.141 L -2.25,-2.1651 L -2.2083,-2.1891 L -2.1667,-2.2132 L -2.125,-2.2372 L -2.0833,-2.2613 L -2.0417,-2.2853 L -2.0,-2.3094 L -1.9583,-2.3335 L -1.9167,-2.3575 L -1.875,-2.3816 L -1.8333,-2.4056 L -1.7917,-2.4297 L -1.75,-2.4537 L -1.7083,-2.4778 L -1.6667,-2.5019 L -1.625,-2.5259 L -1.5833,-2.55 L -1.5417,-2.574 L -1.5,-2.5981 L -1.4583,-2.6221 L -1.4167,-2.6462 L -1.375,-2.6702 L -1.3333,-2.6943 L -1.2917,-2.7184 L -1.25,-2.7424 L -1.2083,-2.7665 L -1.1667,-2.7905 L -1.125,-2.8146 L -1.0833,-2.8386 L -1.0417,-2.8627 L -1.0,-2.8868 L -0.9583,-2.9108 L -0.9167,-2.9349 L -0.875,-2.9589 L -0.8333,-2.983 L -0.7917,-3.007 L -0.75,-3.0311 L -0.7083,-3.0551 L -0.6667,-3.0792 L -0.625,-3.1033 L -0.5833,-3.1273 L -0.5417,-3.1514 L -0.5,-3.1754 L -0.4583,-3.1995 L -0.4167,-3.2235 L -0.375,-3.2476 L -0.3333,-3.2717 L -0.2917,-3.2957 L -0.25,-3.3198 L -0.2083,-3.3438 L -0.1667,-3.3679 L -0.125,-3.3919 L -0.0833,-3.416 L -0.0417,-3.44 L -0.0,-3.4641" />
      <path d="M -3.0,1.7321 L -3.0,1.6839 L -3.0,1.6358 L -3.0,1.5877 L -3.0,1.5396 L -3.0,1.4915 L -3.0,1.4434 L -3.0,1.3953 L -3.0,1.3472 L -3.0,1.299 L -3.0,1.2509 L -3.0,1.2028 L -3.0,1.1547 L -3.0,1.1066 L -3.0,1.0585 L -3.0,1.0104 L -3.0,0.9623 L -3.0,0.9141 L -3.0,0.866 L -3.0,0.8179 L -3.0,0.7698 L -3.0,0.7217 L -3.0,0.6736 L -3.0,0.6255 L -3.0,0.5774 L -3.0,0.5292 L -3.0,0.4811 L -3.0,0.433 L -3.0,0.3849 L -3.0,0.3368 L -3.0,0.2887 L -3.0,0.2406 L -3.0,0.1925 L -3.0,0.1443 L -3.0,0.0962 L -3.0,0.0481 L -3.0,0.0 L -3.0,-0.0481 L -3.0,-0.0962 L -3.0,-0.1443 L -3.0,-0.1925 L -3.0,-0.2406 L -3.0,-0.2887 L -3.0,-0.3368 L -3.0,-0.3849 L -3.0,-0.433 L -3.0,-0.4811 L -3.0,-0.5292 L -3.0,-0.5774 L -3.0,-0.6255 L -3.0,-0.6736 L -3.0,-0.7217 L -3.0,-0.7698 L -3.0,-0.8179 L -3.0,-0.866 L -3.0,-0.9141 L -3.0,-0.9623 L -3.0,-1.0104 L -3.0,-1.0585 L -3.0,-1.1066 L -3.0,-1.1547 L -3.0,-1.2028 L -3.0,-1.2509 L -3.0,-1.299 L -3.0,-1.3472 L -3.0,-1.3953 L -3.0,-1.4434 L -3.0,-1.4915 L -3.0,-1.5396 L -3.0,-1.5877 L -3.0,-1.6358 L -3.0,-1.6839 L -3.0,-1.7321" />
      <path d="M 0.0,3.4641 L -0.0417,3.44 L -0.0833,3.416 L -0.125,3.3919 L -0.1667,3.3679 L -0.2083,3.3438 L -0.25,3.3198 L -0.2917,3.2957 L -0.3333,3.2717 L -0.375,3.2476 L -0.4167,3.2235 L -0.4583,3.1995 L -0.5,3.1754 L -0.5417,3.1514 L -0.5833,3.1273 L -0.625,3.1033 L -0.6667,3.0792 L -0.7083,3.0551 L -0.75,3.0311 L -0.7917,3.007 L -0.8333,2.983 L -0.875,2.9589 L -0.9167,2.9349 L -0.9583,2.9108 L -1.0,2.8868 L -1.0417,2.8627 L -1.0833,2.8386 L -1.125,2.8146 L -1.1667,2.7905 L -1.2083,2.7665 L -1.25,2.7424 L -1.2917,2.7184 L -1.3333,2.6943 L -1.375,2.6702 L -1.4167,2.6462 L -1.4583,2.6221 L -1.5,2.5981 L -1.5417,2.574 L -1.5833,2.55 L -1.625,2.5259 L -1.6667,2.5019 L -1.7083,2.4778 L -1.75,2.4537 L -1.7917,2.4297 L -1.8333,2.4056 L -1.875,2.3816 L -1.9167,2.3575 L -1.9583,2.3335 L -2.0,2.3094 L -2.0417,2.2853 L -2.0833,2.2613 L -2.125,2.2372 L -2.1667,2.2132 L -2.2083,2.1891 L -2.25,2.1651 L -2.2917,2.141 L -2.3333,2.117 L -2.375,2.0929 L -2.4167,2.0688 L -2.4583,2.0448 L -2.5,2.0207 L -2.5417,1.9967 L -2.5833,1.9726 L -2.625,1.9486 L -2.6667,1.9245 L -2.7083,1.9004 L -2.75,1.8764 L -2.7917,1.8523 L -2.8333,1.8283 L -2.875,1.8042 L -2.9167,1.7802 L -2.9583,1.7561 L -3.0,1.7321" />
      <path d="M 0.0,1.25 L -0.1089,1.2452 L -0.2171,1.231 L -0.3235,1.2074 L -0.4275,1.1746 L -0.5283,1.1329 L -0.625,1.0825 L -0.717,1.0239 L -0.8035,0.9576 L -0.8839,0.8839 L -0.9576,0.8035 L -1.0239,0.717 L -1.0825,0.625 L -1.1329,0.5283 L -1.1746,0.4275 L -1.2074,0.3235 L -1.231,0.2171 L -1.2452,0.1089 L -1.25,-0.0 L -1.2452,-0.1089 L -1.231,-0.2171 L -1.2074,-0.3235 L -1.1746,-0.4275 L -1.1329,-0.5283 L -1.0825,-0.625 L -1.0239,-0.717 L -0.9576,-0.8035 L -0.8839,-0.8839 L -0.8035,-0.9576 L -0.717,-1.0239 L -0.625,-1.0825 L -0.5283,-1.1329 L -0.4275,-1.1746 L -0.3235,-1.2074 L -0.2171,-1.231 L -0.1089,-1.2452 L 0.0,-1.25 L 0.1089,-1.2452 L 0.2171,-1.231 L 0.3235,-1.2074 L 0.4275,-1.1746 L 0.5283,-1.1329 L 0.625,-1.0825 L 0.717,-1.0239 L 0.8035,-0.9576 L 0.8839,-0.8839 L 0.9576,-0.8035 L 1.0239,-0.717 L 1.0825,-0.625 L 1.1329,-0.5283 L 1.1746,-0.4275 L 1.2074,-0.3235 L 1.231,-0.2171 L 1.2452,-0.1089 L 1.25,0.0 L 1.2452,0.1089 L 1.231,0.2171 L 1.2074,0.3235 L 1.1746,0.4275 L 1.1329,0.5283 L 1.0825,0.625 L 1.0239,0.717 L 0.9576,0.8035 L 0.8839,0.8839 L 0.8035,0.9576 L 0.717,1.0239 L 0.625,1.0825 L 0.5283,1.1329 L 0.4275,1.1746 L 0.3235,1.2074 L 0.2171,1.231 L 0.1089,1.2452 L -0.0,1.25" />
      <path d="M 10.0948,6.0 L 10.1168,5.8361 L 10.1258,5.6696 L 10.1326,5.503 L 10.1382,5.3364 L 10.1429,5.1697 L 10.1472,5.003 L 10.1509,4.8362 L 10.1544,4.6695 L 10.1575,4.5028 L 10.1604,4.336 L 10.163,4.1693 L 10.1655,4.0026 L 10.1677,3.8358 L 10.1698,3.6691 L 10.1718,3.5023 L 10.1736,3.3356 L 10.1753,3.1688 L 10.1769,3.0021 L 10.1784,2.8353 L 10.1797,2.6685 L 10.181,2.5018 L 10.1822,2.335 L 10.1832,2.1683 L 10.1842,2.0015 L 10.1851,1.8347 L 10.1859,1.668 L 10.1866,1.5012 L 10.1873,1.3345 L 10.1878,1.1677 L 10.1883,1.0009 L 10.1887,0.8342 L 10.1891,0.6674 L 10.1893,0.5006 L 10.1895,0.3339 L 10.1896,0.1671 L 10.1896,0.0004 L 10.1896,-0.1664 L 10.1895,-0.3332 L 10.1893,-0.4999 L 10.1891,-0.6667 L 10.1887,-0.8335 L 10.1883,-1.0002 L 10.1878,-1.167 L 10.1873,-1.3337 L 10.1866,-1.5005 L 10.1859,-1.6673 L 10.1851,-1.834 L 10.1842,-2.0008 L 10.1832,-2.1676 L 10.1822,-2.3343 L 10.181,-2.5011 L 10.1798,-2.6678 L 10.1784,-2.8346 L 10.1769,-3.0013 L 10.1753,-3.1681 L 10.1736,-3.3349 L 10.1718,-3.5016 L 10.1699,-3.6684 L 10.1677,-3.8351 L 10.1655,-4.0019 L 10.163,-4.1686 L 10.1604,-4.3354 L 10.1575,-4.5021 L 10.1544,-4.6688 L 10.151,-4.8356 L 10.1472,-5.0023 L 10.143,-5.169 L 10.1382,-5.3357 L 10.1326,-5.5024 L 10.1259,-5.669 L 10.1169,-5.8356 L 10.0948,-6.0" />
      <path d="M 10.0474,1.7321 L 10.0481,1.7561 L 10.0487,1.7802 L 10.0494,1.8042 L 10.05,1.8283 L 10.0507,1.8523 L 10.0514,1.8764 L 10.052,1.9004 L 10.0527,1.9245 L 10.0533,1.9486 L 10.054,1.9726 L 10.0547,1.9967 L 10.0553,2.0207 L 10.056,2.0448 L 10.0566,2.0688 L 10.0573,2.0929 L 10.0579,2.117 L 10.0586,2.141 L 10.0593,2.1651 L 10.0599,2.1891 L 10.0606,2.2132 L 10.0612,2.2372 L 10.0619,2.2613 L 10.0626,2.2853 L 10.0632,2.3094 L 10.0639,2.3335 L 10.0645,2.3575 L 10.0652,2.3816 L 10.0658,2.4056 L 10.0665,2.4297 L 10.0672,2.4537 L 10.0678,2.4778 L 10.0685,2.5019 L 10.0691,2.5259 L 10.0698,2.55 L 10.0705,2.574 L 10.0711,2.5981 L 10.0718,2.6221 L 10.0724,2.6462 L 10.0731,2.6702 L 10.0737,2.6943 L 10.0744,2.7184 L 10.0751,2.7424 L 10.0757,2.7665 L 10.0764,2.7905 L 10.077,2.8146 L 10.0777,2.8386 L 10.0784,2.8627 L 10.079,2.8868 L 10.0797,2.9108 L 10.0803,2.9349 L 10.081,2.9589 L 10.0817,2.983 L 10.0823,3.007 L 10.083,3.0311 L 10.0836,3.0551 L 10.0843,3.0792 L 10.0849,3.1033 L 10.0856,3.1273 L 10.0863,3.1514 L 10.0869,3.1754 L 10.0876,3.1995 L 10.0882,3.2235 L 10.0889,3.2476 L 10.0896,3.2717 L 10.0902,3.2957 L 10.0909,3.3198 L 10.0915,3.3438 L 10.0922,3.3679 L 10.0928,3.3919 L 10.0935,3.416 L 10.0942,3.44 L 10.0948,3.4641" />
      <path d="M 10.0474,-1.7321 L 10.0474,-1.6839 L 10.0474,-1.6358 L 10.0474,-1.5877 L 10.0474,-1.5396 L 10.0474,-1.4915 L 10.0474,-1.4434 L 10.0474,-1.3953 L 10.0474,-1.3472 L 10.0474,-1.299 L 10.0474,-1.2509 L 10.0474,-1.2028 L 10.0474,-1.1547 L 10.0474,-1.1066 L 10.0474,-1.0585 L 10.0474,-1.0104 L 10.0474,-0.9623 L 10.0474,-0.9141 L 10.0474,-0.866 L 10.0474,-0.8179 L 10.0474,-0.7698 L 10.0474,-0.7217 L 10.0474,-0.6736 L 10.0474,-0.6255 L 10.0474,-0.5774 L 10.0474,-0.5292 L 10.0474,-0.4811 L 10.0474,-0.433 L 10.0474,-0.3849 L 10.0474,-0.3368 L 10.0474,-0.2887 L 10.0474,-0.2406 L 10.0474,-0.1925 L 10.0474,-0.1443 L 10.0474,-0.0962 L 10.0474,-0.0481 L 10.0474,0.0 L 10.0474,0.0481 L 10.0474,0.0962 L 10.0474,0.1443 L 10.0474,0.1925 L 10.0474,0.2406 L 10.0474,0.2887 L 10.0474,0.3368 L 10.0474,0.3849 L 10.0474,0.433 L 10.0474,0.4811 L 10.0474,0.5292 L 10.0474,0.5774 L 10.0474,0.6255 L 10.0474,0.6736 L 10.0474,0.7217 L 10.0474,0.7698 L 10.0474,0.8179 L 10.0474,0.866 L 10.0474,0.9141 L 10.0474,0.9623 L 10.0474,1.0104 L 10.0474,1.0585 L 10.0474,1.1066 L 10.0474,1.1547 L 10.0474,1.2028 L 10.0474,1.2509 L 10.0474,1.299 L 10.0474,1.3472 L 10.0474,1.3953 L 10.0474,1.4434 L 10.0474,1.4915 L 10.0474,1.5396 L 10.0474,1.5877 L 10.0474,1.6358 L 10.0474,1.6839 L 10.0474,1.7321" />
      <path d="M 10.0948,-3.4641 L 10.0942,-3.44 L 10.0935,-3.416 L 10.0928,-3.3919 L 10.0922,-3.3679 L 10.0915,-3.3438 L 10.0909,-3.3198 L 10.0902,-3.2957 L 10.0896,-3.2717 L 10.0889,-3.2476 L 10.0882,-3.2235 L 10.0876,-3.1995 L 10.0869,-3.1754 L 10.0863,-3.1514 L 10.0856,-3.1273 L 10.0849,-3.1033 L 10.0843,-3.0792 L 10.0836,-3.0551 L 10.083,-3.0311 L 10.0823,-3.007 L 10.0817,-2.983 L 10.081,-2.9589 L 10.0803,-2.9349 L 10.0797,-2.9108 L 10.079,-2.8868 L 10.0784,-2.8627 L 10.0777,-2.8386 L 10.077,-2.8146 L 10.0764,-2.7905 L 10.0757,-2.7665 L 10.0751,-2.7424 L 10.0744,-2.7184 L 10.0737,-2.6943 L 10.0731,-2.6702 L 10.0724,-2.6462 L 10.0718,-2.6221 L 10.0711,-2.5981 L 10.0705,-2.574 L 10.0698,-2.55 L 10.0691,-2.5259 L 10.0685,-2.5019 L 10.0678,-2.4778 L 10.0672,-2.4537 L 10.0665,-2.4297 L 10.0658,-2.4056 L 10.0652,-2.3816 L 10.0645,-2.3575 L 10.0639,-2.3335 L 10.0632,-2.3094 L 10.0626,-2.2853 L 10.0619,-2.2613 L 10.0612,-2.2372 L 10.0606,-2.2132 L 10.0599,-2.1891 L 10.0593,-2.1651 L 10.0586,-2.141 L 10.0579,-2.117 L 10.0573,-2.0929 L 10.0566,-2.0688 L 10.056,-2.0448 L 10.0553,-2.0207 L 10.0547,-1.9967 L 10.054,-1.9726 L 10.0533,-1.9486 L 10.0527,-1.9245 L 10.052,-1.9004 L 10.0514,-1.8764 L 10.0507,-1.8523 L 10.05,-1.8283 L 10.0494,-1.8042 L 10.0487,-1.7802 L 10.0481,-1.7561 L 10.0474,-1.7321" />
      <path d="M 10.1422,-1.7321 L 10.1416,-1.7561 L 10.1409,-1.7802 L 10.1403,-1.8042 L 10.1396,-1.8283 L 10.1389,-1.8523 L 10.1383,-1.8764 L 10.1376,-1.9004 L 10.137,-1.9245 L 10.1363,-1.9486 L 10.1356,-1.9726 L 10.135,-1.9967 L 10.1343,-2.0207 L 10.1337,-2.0448 L 10.133,-2.0688 L 10.1324,-2.0929 L 10.1317,-2.117 L 10.131,-2.141 L 10.1304,-2.1651 L 10.1297,-2.1891 L 10.1291,-2.2132 L 10.1284,-2.2372 L 10.1277,-2.2613 L 10.1271,-2.2853 L 10.1264,-2.3094 L 10.1258,-2.3335 L 10.1251,-2.3575 L 10.1245,-2.3816 L 10.1238,-2.4056 L 10.1231,-2.4297 L 10.1225,-2.4537 L 10.1218,-2.4778 L 10.1212,-2.5019 L 10.1205,-2.5259 L 10.1198,-2.55 L 10.1192,-2.574 L 10.1185,-2.5981 L 10.1179,-2.6221 L 10.1172,-2.6462 L 10.1165,-2.6702 L 10.1159,-2.6943 L 10.1152,-2.7184 L 10.1146,-2.7424 L 10.1139,-2.7665 L 10.1133,-2.7905 L 10.1126,-2.8146 L 10.1119,-2.8386 L 10.1113,-2.8627 L 10.1106,-2.8868 L 10.11,-2.9108 L 10.1093,-2.9349 L 10.1086,-2.9589 L 10.108,-2.983 L 10.1073,-3.007 L 10.1067,-3.0311 L 10.106,-3.0551 L 10.1054,-3.0792 L 10.1047,-3.1033 L 10.104,-3.1273 L 10.1034,-3.1514 L 10.1027,-3.1754 L 10.1021,-3.1995 L 10.1014,-3.2235 L 10.1007,-3.2476 L 10.1001,-3.2717 L 10.0994,-3.2957 L 10.0988,-3.3198 L 10.0981,-3.3438 L 10.0975,-3.3679 L 10.0968,-3.3919 L 10.0961,-3.416 L 10.0955,-3.44 L 10.0948,-3.4641" />
      <path d="M 10.1422,1.7321 L 10.1422,1.6839 L 10.1422,1.6358 L 10.1422,1.5877 L 10.1422,1.5396 L 10.1422,1.4915 L 10.1422,1.4434 L 10.1422,1.3953 L 10.1422,1.3472 L 10.1422,1.299 L 10.1422,1.2509 L 10.1422,1.2028 L 10.1422,1.1547 L 10.1422,1.1066 L 10.1422,1.0585 L 10.1422,1.0104 L 10.1422,0.9623 L 10.1422,0.9141 L 10.1422,0.866 L 10.1422,0.8179 L 10.1422,0.7698 L 10.1422,0.7217 L 10.1422,0.6736 L 10.1422,0.6255 L 10.1422,0.5774 L 10.1422,0.5292 L 10.1422,0.4811 L 10.1422,0.433 L 10.1422,0.3849 L 10.1422,0.3368 L 10.1422,0.2887 L 10.1422,0.2406 L 10.1422,0.1925 L 10.1422,0.1443 L 10.1422,0.0962 L 10.1422,0.0481 L 10.1422,0.0 L 10.1422,-0.0481 L 10.1422,-0.0962 L 10.1422,-0.1443 L 10.1422,-0.1925 L 10.1422,-0.2406 L 10.1422,-0.2887 L 10.1422,-0.3368 L 10.1422,-0.3849 L 10.1422,-0.433 L 10.1422,-0.4811 L 10.1422,-0.5292 L 10.1422,-0.5774 L 10.1422,-0.6255 L 10.1422,-0.6736 L 10.1422,-0.7217 L 10.1422,-0.7698 L 10.1422,-0.8179 L 10.1422,-0.866 L 10.1422,-0.9141 L 10.1422,-0.9623 L 10.1422,-1.0104 L 10.1422,-1.0585 L 10.1422,-1.1066 L 10.1422,-1.1547 L 10.1422,-1.2028 L 10.1422,-1.2509 L 10.1422,-1.299 L 10.1422,-1.3472 L 10.1422,-1.3953 L 10.1422,-1.4434 L 10.1422,-1.4915 L 10.1422,-1.5396 L 10.1422,-1.5877 L 10.1422,-1.6358 L 10.1422,-1.6839 L 10.1422,-1.7321" />
      <path d="M 10.0948,3.4641 L 10.0955,3.44 L 10.0961,3.416 L 10.0968,3.3919 L 10.0975,3.3679 L 10.0981,3.3438 L 10.0988,3.3198 L 10.0994,3.2957 L 10.1001,3.2717 L 10.1007,3.2476 L 10.1014,3.2235 L 10.1021,3.1995 L 10.1027,3.1754 L 10.1034,3.1514 L 10.104,3.1273 L 10.1047,3.1033 L 10.1054,3.0792 L 10.106,3.0551 L 10.1067,3.0311 L 10.1073,3.007 L 10.108,2.983 L 10.1086,2.9589 L 10.1093,2.9349 L 10.11,2.9108 L 10.1106,2.8868 L 10.1113,2.8627 L 10.1119,2.8386 L 10.1126,2.8146 L 10.1133,2.7905 L 10.1139,2.7665 L 10.1146,2.7424 L 10.1152,2.7184 L 10.1159,2.6943 L 10.1165,2.6702 L 10.1172,2.6462 L 10.1179,2.6221 L 10.1185,2.5981 L 10.1192,2.574 L 10.1198,2.55 L 10.1205,2.5259 L 10.1212,2.5019 L 10.1218,2.4778 L 10.1225,2.4537 L 10.1231,2.4297 L 10.1238,2.4056 L 10.1245,2.3816 L 10.1251,2.3575 L 10.1258,2.3335 L 10.1264,2.3094 L 10.1271,2.2853 L 10.1277,2.2613 L 10.1284,2.2372 L 10.1291,2.2132 L 10.1297,2.1891 L 10.1304,2.1651 L 10.131,2.141 L 10.1317,2.117 L 10.1324,2.0929 L 10.133,2.0688 L 10.1337,2.0448 L 10.1343,2.0207 L 10.135,1.9967 L 10.1356,1.9726 L 10.1363,1.9486 L 10.137,1.9245 L 10.1376,1.9004 L 10.1383,1.8764 L 10.1389,1.8523 L 10.1396,1.8283 L 10.1403,1.8042 L 10.1409,1.7802 L 10.1416,1.7561 L 10.1422,1.7321" />
      <path d="M 35.3432,5.9993 L 35.3638,5.8345 L 35.3728,5.668 L 35.3795,5.5014 L 35.3851,5.3348 L 35.3898,5.1681 L 35.394,5.0015 L 35.3978,4.8348 L 35.4012,4.6681 L 35.4044,4.5014 L 35.4072,4.3347 L 35.4099,4.168 L 35.4123,4.0013 L 35.4146,3.8346 L 35.4167,3.6679 L 35.4187,3.5012 L 35.4205,3.3345 L 35.4222,3.1678 L 35.4238,3.0011 L 35.4252,2.8343 L 35.4266,2.6676 L 35.4279,2.5009 L 35.429,2.3342 L 35.4301,2.1675 L 35.4311,2.0008 L 35.4319,1.834 L 35.4328,1.6673 L 35.4335,1.5006 L 35.4341,1.3339 L 35.4347,1.1672 L 35.4352,1.0004 L 35.4356,0.8337 L 35.4359,0.667 L 35.4362,0.5003 L 35.4363,0.3336 L 35.4364,0.1668 L 35.4365,0.0001 L 35.4364,-0.1666 L 35.4363,-0.3333 L 35.4362,-0.5001 L 35.4359,-0.6668 L 35.4356,-0.8335 L 35.4352,-1.0002 L 35.4347,-1.1669 L 35.4341,-1.3337 L 35.4335,-1.5004 L 35.4328,-1.6671 L 35.4319,-1.8338 L 35.4311,-2.0005 L 35.4301,-2.1673 L 35.429,-2.334 L 35.4279,-2.5007 L 35.4266,-2.6674 L 35.4252,-2.8341 L 35.4238,-3.0008 L 35.4222,-3.1676 L 35.4205,-3.3343 L 35.4187,-3.501 L 35.4167,-3.6677 L 35.4146,-3.8344 L 35.4123,-4.0011 L 35.4099,-4.1678 L 35.4072,-4.3345 L 35.4044,-4.5012 L 35.4012,-4.6679 L 35.3978,-4.8346 L 35.394,-5.0013 L 35.3898,-5.1679 L 35.3851,-5.3346 L 35.3795,-5.5012 L 35.3728,-5.6678 L 35.3638,-5.8343 L 35.3432,-5.9993" />
      <path d="M 14.5468,1.7321 L 14.5475,1.7561 L 14.5482,1.7802 L 14.5488,1.8042 L 14.5495,1.8283 L 14.5501,1.8523 L 14.5508,1.8764 L 14.5515,1.9004 L 14.5521,1.9245 L 14.5528,1.9486 L 14.5534,1.9726 L 14.5541,1.9967 L 14.5547,2.0207 L 14.5554,2.0448 L 14.5561,2.0688 L 14.5567,2.0929 L 14.5574,2.117 L 14.558,2.141 L 14.5587,2.1651 L 14.5594,2.1891 L 14.56,2.2132 L 14.5607,2.2372 L 14.5613,2.2613 L 14.562,2.2853 L 14.5627,2.3094 L 14.5633,2.3335 L 14.564,2.3575 L 14.5646,2.3816 L 14.5653,2.4056 L 14.5659,2.4297 L 14.5666,2.4537 L 14.5673,2.4778 L 14.5679,2.5019 L 14.5686,2.5259 L 14.5692,2.55 L 14.5699,2.574 L 14.5706,2.5981 L 14.5712,2.6221 L 14.5719,2.6462 L 14.5725,2.6702 L 14.5732,2.6943 L 14.5738,2.7184 L 14.5745,2.7424 L 14.5752,2.7665 L 14.5758,2.7905 L 14.5765,2.8146 L 14.5771,2.8386 L 14.5778,2.8627 L 14.5785,2.8868 L 14.5791,2.9108 L 14.5798,2.9349 L 14.5804,2.9589 L 14.5811,2.983 L 14.5817,3.007 L 14.5824,3.0311 L 14.5831,3.0551 L 14.5837,3.0792 L 14.5844,3.1033 L 14.585,3.1273 L 14.5857,3.1514 L 14.5864,3.1754 L 14.587,3.1995 L 14.5877,3.2235 L 14.5883,3.2476 L 14.589,3.2717 L 14.5896,3.2957 L 14.5903,3.3198 L 14.591,3.3438 L 14.5916,3.3679 L 14.5923,3.3919 L 14.5929,3.416 L 14.5936,3.44 L 14.5943,3.4641" />
      <path d="M 14.5943,3.4641 L 14.5318,3.4641 L 14.4693,3.4641 L 14.4068,3.4641 L 14.3443,3.4641 L 14.2818,3.4641 L 14.2193,3.4641 L 14.1568,3.4641 L 14.0943,3.4641 L 14.0318,3.4641 L 13.9693,3.4641 L 13.9068,3.4641 L 13.8444,3.4641 L 13.7819,3.4641 L 13.7194,3.4641 L 13.6569,3.4641 L 13.5944,3.4641 L 13.5319,3.4641 L 13.4694,3.4641 L 13.4069,3.4641 L 13.3444,3.4641 L 13.2819,3.4641 L 13.2194,3.4641 L 13.1569,3.4641 L 13.0944,3.4641 L 13.032,3.4641 L 12.9695,3.4641 L 12.907,3.4641 L 12.8445,3.4641 L 12.782,3.4641 L 12.7195,3.4641 L 12.657,3.4641 L 12.5945,3.4641 L 12.532,3.4641 L 12.4695,3.4641 L 12.407,3.4641 L 12.3445,3.4641 L 12.282,3.4641 L 12.2196,3.4641 L 12.1571,3.4641 L 12.0946,3.4641 L 12.0321,3.4641 L 11.9696,3.4641 L 11.9071,3.4641 L 11.8446,3.4641 L 11.7821,3.4641 L 11.7196,3.4641 L 11.6571,3.4641 L 11.5946,3.4641 L 11.5321,3.4641 L 11.4696,3.4641 L 11.4072,3.4641 L 11.3447,3.4641 L 11.2822,3.4641 L 11.2197,3.4641 L 11.1572,3.4641 L 11.0947,3.4641 L 11.0322,3.4641 L 10.9697,3.4641 L 10.9072,3.4641 L 10.8447,3.4641 L 10.7822,3.4641 L 10.7197,3.4641 L 10.6572,3.4641 L 10.5948,3.4641 L 10.5323,3.4641 L 10.4698,3.4641 L 10.4073,3.4641 L 10.3448,3.4641 L 10.2823,3.4641 L 10.2198,3.4641 L 10.1573,3.4641 L 10.0948,3.4641" />
      <path d="M 14.5468,1.7321 L 14.4844,1.7321 L 14.4219,1.7321 L 14.3594,1.7321 L 14.2969,1.7321 L 14.2344,1.7321 L 14.1719,1.7321 L 14.1094,1.7321 L 14.0469,1.7321 L 13.9844,1.7321 L 13.9219,1.7321 L 13.8594,1.7321 L 13.7969,1.7321 L 13.7344,1.7321 L 13.672,1.7321 L 13.6095,1.7321 L 13.547,1.7321 L 13.4845,1.7321 L 13.422,1.7321 L 13.3595,1.7321 L 13.297,1.7321 L 13.2345,1.7321 L 13.172,1.7321 L 13.1095,1.7321 L 13.047,1.7321 L 12.9845,1.7321 L 12.9221,1.7321 L 12.8596,1.7321 L 12.7971,1.7321 L 12.7346,1.7321 L 12.6721,1.7321 L 12.6096,1.7321 L 12.5471,1.7321 L 12.4846,1.7321 L 12.4221,1.7321 L 12.3596,1.7321 L 12.2971,1.7321 L 12.2346,1.7321 L 12.1721,1.7321 L 12.1097,1.7321 L 12.0472,1.7321 L 11.9847,1.7321 L 11.9222,1.7321 L 11.8597,1.7321 L 11.7972,1.7321 L 11.7347,1.7321 L 11.6722,1.7321 L 11.6097,1.7321 L 11.5472,1.7321 L 11.4847,1.7321 L 11.4222,1.7321 L 11.3597,1.7321 L 11.2973,1.7321 L 11.2348,1.7321 L 11.1723,1.7321 L 11.1098,1.7321 L 11.0473,1.7321 L 10.9848,1.7321 L 10.9223,1.7321 L 10.8598,1.7321 L 10.7973,1.7321 L 10.7348,1.7321 L 10.6723,1.7321 L 10.6098,1.7321 L 10.5473,1.7321 L 10.4849,1.7321 L 10.4224,1.7321 L 10.3599,1.7321 L 10.2974,1.7321 L 10.2349,1.7321 L 10.1724,1.7321 L 10.1099,1.7321 L 10.0474,1.7321" />
      <path d="M 14.5468,-1.7321 L 14.5468,-1.6839 L 14.5468,-1.6358 L 14.5468,-1.5877 L 14.5468,-1.5396 L 14.5468,-1.4915 L 14.5468,-1.4434 L 14.5468,-1.3953 L 14.5468,-1.3472 L 14.5468,-1.299 L 14.5468,-1.2509 L 14.5468,-1.2028 L 14.5468,-1.1547 L 14.5468,-1.1066 L 14.5468,-1.0585 L 14.5468,-1.0104 L 14.5468,-0.9623 L 14.5468,-0.9141 L 14.5468,-0.866 L 14.5468,-0.8179 L 14.5468,-0.7698 L 14.5468,-0.7217 L 14.5468,-0.6736 L 14.5468,-0.6255 L 14.5468,-0.5774 L 14.5468,-0.5292 L 14.5468,-0.4811 L 14.5468,-0.433 L 14.5468,-0.3849 L 14.5468,-0.3368 L 14.5468,-0.2887 L 14.5468,-0.2406 L 14.5468,-0.1925 L 14.5468,-0.1443 L 14.5468,-0.0962 L 14.5468,-0.0481 L 14.5468,0.0 L 14.5468,0.0481 L 14.5468,0.0962 L 14.5468,0.1443 L 14.5468,0.1925 L 14.5468,0.2406 L 14.5468,0.2887 L 14.5468,0.3368 L 14.5468,0.3849 L 14.5468,0.433 L 14.5468,0.4811 L 14.5468,0.5292 L 14.5468,0.5774 L 14.5468,0.6255 L 14.5468,0.6736 L 14.5468,0.7217 L 14.5468,0.7698 L 14.5468,0.8179 L 14.5468,0.866 L 14.5468,0.9141 L 14.5468,0.9623 L 14.5468,1.0104 L 14.5468,1.0585 L 14.5468,1.1066 L 14.5468,1.1547 L 14.5468,1.2028 L 14.5468,1.2509 L 14.5468,1.299 L 14.5468,1.3472 L 14.5468,1.3953 L 14.5468,1.4434 L 14.5468,1.4915 L 14.5468,1.5396 L 14.5468,1.5877 L 14.5468,1.6358 L 14.5468,1.6839 L 14.5468,1.7321" />
      <path d="M 14.5468,-1.7321 L 14.4844,-1.7321 L 14.4219,-1.7321 L 14.3594,-1.7321 L 14.2969,-1.7321 L 14.2344,-1.7321 L 14.1719,-1.7321 L 14.1094,-1.7321 L 14.0469,-1.7321 L 13.9844,-1.7321 L 13.9219,-1.7321 L 13.8594,-1.7321 L 13.7969,-1.7321 L 13.7344,-1.7321 L 13.672,-1.7321 L 13.6095,-1.7321 L 13.547,-1.7321 L 13.4845,-1.7321 L 13.422,-1.7321 L 13.3595,-1.7321 L 13.297,-1.7321 L 13.2345,-1.7321 L 13.172,-1.7321 L 13.1095,-1.7321 L 13.047,-1.7321 L 12.9845,-1.7321 L 12.9221,-1.7321 L 12.8596,-1.7321 L 12.7971,-1.7321 L 12.7346,-1.7321 L 12.6721,-1.7321 L 12.6096,-1.7321 L 12.5471,-1.7321 L 12.4846,-1.7321 L 12.4221,-1.7321 L 12.3596,-1.7321 L 12.2971,-1.7321 L 12.2346,-1.7321 L 12.1721,-1.7321 L 12.1097,-1.7321 L 12.0472,-1.7321 L 11.9847,-1.7321 L 11.9222,-1.7321 L 11.8597,-1.7321 L 11.7972,-1.7321 L 11.7347,-1.7321 L 11.6722,-1.7321 L 11.6097,-1.7321 L 11.5472,-1.7321 L 11.4847,-1.7321 L 11.4222,-1.7321 L 11.3597,-1.7321 L 11.2973,-1.7321 L 11.2348,-1.7321 L 11.1723,-1.7321 L 11.1098,-1.7321 L 11.0473,-1.7321 L 10.9848,-1.7321 L 10.9223,-1.7321 L 10.8598,-1.7321 L 10.7973,-1.7321 L 10.7348,-1.7321 L 10.6723,-1.7321 L 10.6098,-1.7321 L 10.5473,-1.7321 L 10.4849,-1.7321 L 10.4224,-1.7321 L 10.3599,-1.7321 L 10.2974,-1.7321 L 10.2349,-1.7321 L 10.1724,-1.7321 L 10.1099,-1.7321 L 10.0474,-1.7321" />
      <path d="M 14.5943,-3.4641 L 14.5936,-3.44 L 14.5929,-3.416 L 14.5923,-3.3919 L 14.5916,-3.3679 L 14.591,-3.3438 L 14.5903,-3.3198 L 14.5896,-3.2957 L 14.589,-3.2717 L 14.5883,-3.2476 L 14.5877,-3.2235 L 14.587,-3.1995 L 14.5864,-3.1754 L 14.5857,-3.1514 L 14.585,-3.1273 L 14.5844,-3.1033 L 14.5837,-3.0792 L 14.5831,-3.0551 L 14.5824,-3.0311 L 14.5817,-3.007 L 14.5811,-2.983 L 14.5804,-2.9589 L 14.5798,-2.9349 L 14.5791,-2.9108 L 14.5785,-2.8868 L 14.5778,-2.8627 L 14.5771,-2.8386 L 14.5765,-2.8146 L 14.5758,-2.7905 L 14.5752,-2.7665 L 14.5745,-2.7424 L 14.5738,-2.7184 L 14.5732,-2.6943 L 14.5725,-2.6702 L 14.5719,-2.6462 L 14.5712,-2.6221 L 14.5706,-2.5981 L 14.5699,-2.574 L 14.5692,-2.55 L 14.5686,-2.5259 L 14.5679,-2.5019 L 14.5673,-2.4778 L 14.5666,-2.4537 L 14.5659,-2.4297 L 14.5653,-2.4056 L 14.5646,-2.3816 L 14.564,-2.3575 L 14.5633,-2.3335 L 14.5627,-2.3094 L 14.562,-2.2853 L 14.5613,-2.2613 L 14.5607,-2.2372 L 14.56,-2.2132 L 14.5594,-2.1891 L 14.5587,-2.1651 L 14.558,-2.141 L 14.5574,-2.117 L 14.5567,-2.0929 L 14.5561,-2.0688 L 14.5554,-2.0448 L 14.5547,-2.0207 L 14.5541,-1.9967 L 14.5534,-1.9726 L 14.5528,-1.9486 L 14.5521,-1.9245 L 14.5515,-1.9004 L 14.5508,-1.8764 L 14.5501,-1.8523 L 14.5495,-1.8283 L 14.5488,-1.8042 L 14.5482,-1.7802 L 14.5475,-1.7561 L 14.5468,-1.7321" />
      <path d="M 14.5943,-3.4641 L 14.5318,-3.4641 L 14.4693,-3.4641 L 14.4068,-3.4641 L 14.3443,-3.4641 L 14.2818,-3.4641 L 14.2193,-3.4641 L 14.1568,-3.4641 L 14.0943,-3.4641 L 14.0318,-3.4641 L 13.9693,-3.4641 L 13.9068,-3.4641 L 13.8444,-3.4641 L 13.7819,-3.4641 L 13.7194,-3.4641 L 13.6569,-3.4641 L 13.5944,-3.4641 L 13.5319,-3.4641 L 13.4694,-3.4641 L 13.4069,-3.4641 L 13.3444,-3.4641 L 13.2819,-3.4641 L 13.2194,-3.4641 L 13.1569,-3.4641 L 13.0944,-3.4641 L 13.032,-3.4641 L 12.9695,-3.4641 L 12.907,-3.4641 L 12.8445,-3.4641 L 12.782,-3.4641 L 12.7195,-3.4641 L 12.657,-3.4641 L 12.5945,-3.4641 L 12.532,-3.4641 L 12.4695,-3.4641 L 12.407,-3.4641 L 12.3445,-3.4641 L 12.282,-3.4641 L 12.2196,-3.4641 L 12.1571,-3.4641 L 12.0946,-3.4641 L 12.0321,-3.4641 L 11.9696,-3.4641 L 11.9071,-3.4641 L 11.8446,-3.4641 L 11.7821,-3.4641 L 11.7196,-3.4641 L 11.6571,-3.4641 L 11.5946,-3.4641 L 11.5321,-3.4641 L 11.4696,-3.4641 L 11.4072,-3.4641 L 11.3447,-3.4641 L 11.2822,-3.4641 L 11.2197,-3.4641 L 11.1572,-3.4641 L 11.0947,-3.4641 L 11.0322,-3.4641 L 10.9697,-3.4641 L 10.9072,-3.4641 L 10.8447,-3.4641 L 10.7822,-3.4641 L 10.7197,-3.4641 L 10.6572,-3.4641 L 10.5948,-3.4641 L 10.5323,-3.4641 L 10.4698,-3.4641 L 10.4073,-3.4641 L 10.3448,-3.4641 L 10.2823,-3.4641 L 10.2198,-3.4641 L 10.1573,-3.4641 L 10.0948,-3.4641" />
      <path d="M 14.6417,-1.7321 L 14.641,-1.7561 L 14.6404,-1.7802 L 14.6397,-1.8042 L 14.639,-1.8283 L 14.6384,-1.8523 L 14.6377,-1.8764 L 14.6371,-1.9004 L 14.6364,-1.9245 L 14.6357,-1.9486 L 14.6351,-1.9726 L 14.6344,-1.9967 L 14.6338,-2.0207 L 14.6331,-2.0448 L 14.6324,-2.0688 L 14.6318,-2.0929 L 14.6311,-2.117 L 14.6305,-2.141 L 14.6298,-2.1651 L 14.6292,-2.1891 L 14.6285,-2.2132 L 14.6278,-2.2372 L 14.6272,-2.2613 L 14.6265,-2.2853 L 14.6259,-2.3094 L 14.6252,-2.3335 L 14.6245,-2.3575 L 14.6239,-2.3816 L 14.6232,-2.4056 L 14.6226,-2.4297 L 14.6219,-2.4537 L 14.6213,-2.4778 L 14.6206,-2.5019 L 14.6199,-2.5259 L 14.6193,-2.55 L 14.6186,-2.574 L 14.618,-2.5981 L 14.6173,-2.6221 L 14.6166,-2.6462 L 14.616,-2.6702 L 14.6153,-2.6943 L 14.6147,-2.7184 L 14.614,-2.7424 L 14.6134,-2.7665 L 14.6127,-2.7905 L 14.612,-2.8146 L 14.6114,-2.8386 L 14.6107,-2.8627 L 14.6101,-2.8868 L 14.6094,-2.9108 L 14.6087,-2.9349 L 14.6081,-2.9589 L 14.6074,-2.983 L 14.6068,-3.007 L 14.6061,-3.0311 L 14.6055,-3.0551 L 14.6048,-3.0792 L 14.6041,-3.1033 L 14.6035,-3.1273 L 14.6028,-3.1514 L 14.6022,-3.1754 L 14.6015,-3.1995 L 14.6008,-3.2235 L 14.6002,-3.2476 L 14.5995,-3.2717 L 14.5989,-3.2957 L 14.5982,-3.3198 L 14.5976,-3.3438 L 14.5969,-3.3679 L 14.5962,-3.3919 L 14.5956,-3.416 L 14.5949,-3.44 L 14.5943,-3.4641" />
      <path d="M 14.6417,-1.7321 L 14.5792,-1.7321 L 14.5167,-1.7321 L 14.4542,-1.7321 L 14.3917,-1.7321 L 14.3292,-1.7321 L 14.2667,-1.7321 L 14.2042,-1.7321 L 14.1417,-1.7321 L 14.0792,-1.7321 L 14.0167,-1.7321 L 13.9543,-1.7321 L 13.8918,-1.7321 L 13.8293,-1.7321 L 13.7668,-1.7321 L 13.7043,-1.7321 L 13.6418,-1.7321 L 13.5793,-1.7321 L 13.5168,-1.7321 L 13.4543,-1.7321 L 13.3918,-1.7321 L 13.3293,-1.7321 L 13.2668,-1.7321 L 13.2043,-1.7321 L 13.1419,-1.7321 L 13.0794,-1.7321 L 13.0169,-1.7321 L 12.9544,-1.7321 L 12.8919,-1.7321 L 12.8294,-1.7321 L 12.7669,-1.7321 L 12.7044,-1.7321 L 12.6419,-1.7321 L 12.5794,-1.7321 L 12.5169,-1.7321 L 12.4544,-1.7321 L 12.3919,-1.7321 L 12.3295,-1.7321 L 12.267,-1.7321 L 12.2045,-1.7321 L 12.142,-1.7321 L 12.0795,-1.7321 L 12.017,-1.7321 L 11.9545,-1.7321 L 11.892,-1.7321 L 11.8295,-1.7321 L 11.767,-1.7321 L 11.7045,-1.7321 L 11.642,-1.7321 L 11.5795,-1.7321 L 11.5171,-1.7321 L 11.4546,-1.7321 L 11.3921,-1.7321 L 11.3296,-1.7321 L 11.2671,-1.7321 L 11.2046,-1.7321 L 11.1421,-1.7321 L 11.0796,-1.7321 L 11.0171,-1.7321 L 10.9546,-1.7321 L 10.8921,-1.7321 L 10.8296,-1.7321 L 10.7672,-1.7321 L 10.7047,-1.7321 L 10.6422,-1.7321 L 10.5797,-1.7321 L 10.5172,-1.7321 L 10.4547,-1.7321 L 10.3922,-1.7321 L 10.3297,-1.7321 L 10.2672,-1.7321 L 10.2047,-1.7321 L 10.1422,-1.7321" />
      <path d="M 14.6417,1.7321 L 14.6417,1.6839 L 14.6417,1.6358 L 14.6417,1.5877 L 14.6417,1.5396 L 14.6417,1.4915 L 14.6417,1.4434 L 14.6417,1.3953 L 14.6417,1.3472 L 14.6417,1.299 L 14.6417,1.2509 L 14.6417,1.2028 L 14.6417,1.1547 L 14.6417,1.1066 L 14.6417,1.0585 L 14.6417,1.0104 L 14.6417,0.9623 L 14.6417,0.9141 L 14.6417,0.866 L 14.6417,0.8179 L 14.6417,0.7698 L 14.6417,0.7217 L 14.6417,0.6736 L 14.6417,0.6255 L 14.6417,0.5774 L 14.6417,0.5292 L 14.6417,0.4811 L 14.6417,0.433 L 14.6417,0.3849 L 14.6417,0.3368 L 14.6417,0.2887 L 14.6417,0.2406 L 14.6417,0.1925 L 14.6417,0.1443 L 14.6417,0.0962 L 14.6417,0.0481 L 14.6417,0.0 L 14.6417,-0.0481 L 14.6417,-0.0962 L 14.6417,-0.1443 L 14.6417,-0.1925 L 14.6417,-0.2406 L 14.6417,-0.2887 L 14.6417,-0.3368 L 14.6417,-0.3849 L 14.6417,-0.433 L 14.6417,-0.4811 L 14.6417,-0.5292 L 14.6417,-0.5774 L 14.6417,-0.6255 L 14.6417,-0.6736 L 14.6417,-0.7217 L 14.6417,-0.7698 L 14.6417,-0.8179 L 14.6417,-0.866 L 14.6417,-0.9141 L 14.6417,-0.9623 L 14.6417,-1.0104 L 14.6417,-1.0585 L 14.6417,-1.1066 L 14.6417,-1.1547 L 14.6417,-1.2028 L 14.6417,-1.2509 L 14.6417,-1.299 L 14.6417,-1.3472 L 14.6417,-1.3953 L 14.6417,-1.4434 L 14.6417,-1.4915 L 14.6417,-1.5396 L 14.6417,-1.5877 L 14.6417,-1.6358 L 14.6417,-1.6839 L 14.6417,-1.7321" />
      <path d="M 14.6417,1.7321 L 14.5792,1.7321 L 14.5167,1.7321 L 14.4542,1.7321 L 14.3917,1.7321 L 14.3292,1.7321 L 14.2667,1.7321 L 14.2042,1.7321 L 14.1417,1.7321 L 14.0792,1.7321 L 14.0167,1.7321 L 13.9543,1.7321 L 13.8918,1.7321 L 13.8293,1.7321 L 13.7668,1.7321 L 13.7043,1.7321 L 13.6418,1.7321 L 13.5793,1.7321 L 13.5168,1.7321 L 13.4543,1.7321 L 13.3918,1.7321 L 13.3293,1.7321 L 13.2668,1.7321 L 13.2043,1.7321 L 13.1419,1.7321 L 13.0794,1.7321 L 13.0169,1.7321 L 12.9544,1.7321 L 12.8919,1.7321 L 12.8294,1.7321 L 12.7669,1.7321 L 12.7044,1.7321 L 12.6419,1.7321 L 12.5794,1.7321 L 12.5169,1.7321 L 12.4544,1.7321 L 12.3919,1.7321 L 12.3295,1.7321 L 12.267,1.7321 L 12.2045,1.7321 L 12.142,1.7321 L 12.0795,1.7321 L 12.017,1.7321 L 11.9545,1.7321 L 11.892,1.7321 L 11.8295,1.7321 L 11.767,1.7321 L 11.7045,1.7321 L 11.642,1.7321 L 11.5795,1.7321 L 11.5171,1.7321 L 11.4546,1.7321 L 11.3921,1.7321 L 11.3296,1.7321 L 11.2671,1.7321 L 11.2046,1.7321 L 11.1421,1.7321 L 11.0796,1.7321 L 11.0171,1.7321 L 10.9546,1.7321 L 10.8921,1.7321 L 10.8296,1.7321 L 10.7672,1.7321 L 10.7047,1.7321 L 10.6422,1.7321 L 10.5797,1.7321 L 10.5172,1.7321 L 10.4547,1.7321 L 10.3922,1.7321 L 10.3297,1.7321 L 10.2672,1.7321 L 10.2047,1.7321 L 10.1422,1.7321" />
      <path d="M 14.5943,3.4641 L 14.5949,3.44 L 14.5956,3.416 L 14.5962,3.3919 L 14.5969,3.3679 L 14.5976,3.3438 L 14.5982,3.3198 L 14.5989,3.2957 L 14.5995,3.2717 L 14.6002,3.2476 L 14.6008,3.2235 L 14.6015,3.1995 L 14.6022,3.1754 L 14.6028,3.1514 L 14.6035,3.1273 L 14.6041,3.1033 L 14.6048,3.0792 L 14.6055,3.0551 L 14.6061,3.0311 L 14.6068,3.007 L 14.6074,2.983 L 14.6081,2.9589 L 14.6087,2.9349 L 14.6094,2.9108 L 14.6101,2.8868 L 14.6107,2.8627 L 14.6114,2.8386 L 14.612,2.8146 L 14.6127,2.7905 L 14.6134,2.7665 L 14.614,2.7424 L 14.6147,2.7184 L 14.6153,2.6943 L 14.616,2.6702 L 14.6166,2.6462 L 14.6173,2.6221 L 14.618,2.5981 L 14.6186,2.574 L 14.6193,2.55 L 14.6199,2.5259 L 14.6206,2.5019 L 14.6213,2.4778 L 14.6219,2.4537 L 14.6226,2.4297 L 14.6232,2.4056 L 14.6239,2.3816 L 14.6245,2.3575 L 14.6252,2.3335 L 14.6259,2.3094 L 14.6265,2.2853 L 14.6272,2.2613 L 14.6278,2.2372 L 14.6285,2.2132 L 14.6292,2.1891 L 14.6298,2.1651 L 14.6305,2.141 L 14.6311,2.117 L 14.6318,2.0929 L 14.6324,2.0688 L 14.6331,2.0448 L 14.6338,2.0207 L 14.6344,1.9967 L 14.6351,1.9726 L 14.6357,1.9486 L 14.6364,1.9245 L 14.6371,1.9004 L 14.6377,1.8764 L 14.6384,1.8523 L 14.639,1.8283 L 14.6397,1.8042 L 14.6404,1.7802 L 14.641,1.7561 L 14.6417,1.7321" />
    </g>
    <g fill="none" stroke="rgb(0,0,0)" stroke-width="0.2" id="Center" stroke-dasharray="6.35 1.27 1.27 1.27">
      <line x1="0.0" y1="0.0" x2="-8.41" y2="0.0" />
      <line x1="0.0" y1="0.0" x2="8.41" y2="0.0" />
      <line x1="0.0" y1="0.0" x2="0.0" y2="-8.41" />
      <line x1="0.0" y1="0.0" x2="0.0" y2="8.41" />
      <line x1="25.0554" y1="0.0" x2="7.59" y2="0.0" />
      <line x1="25.0554" y1="0.0" x2="42.5208" y2="0.0" />
    </g>
  </g>
</svg>