<?xml version='1.0' encoding='utf-8'?>
<svg width="57.2312mm" height="39.2443mm" viewBox="-19.6 -16.465 57.2312 39.2443" version="1.1" xmlns="http://www.w3.org/2000/svg">
  <g transform="scale(1,-1)" stroke-linecap="round">
    <g fill="none" stroke="rgb(0,0,0)" stroke-width="0.4" id="Visible">
      <path d="M 6.0,10.8206 L 5.9916,10.8206 L 5.9832,10.8206 L 5.9747,10.8206 L 5.9663,10.8206 L 5.9579,10.8206 L 5.9495,10.8206 L 5.941,10.8206 L 5.9326,10.8206 L 5.9242,10.8206 L 5.9158,10.8206 L 5.9073,10.8206 L 5.8989,10.8206 L 5.8905,10.8206 L 5.8821,10.8206 L 5.8736,10.8206 L 5.8652,10.8206 L 5.8568,10.8206 L 5.8484,10.8206 L 5.8399,10.8206 L 5.8315,10.8206 L 5.8231,10.8206 L 5.8147,10.8206 L 5.8062,10.8206 L 5.7978,10.8206 L 5.7894,10.8206 L 5.781,10.8206 L 5.7725,10.8206 L 5.7641,10.8206 L 5.7557,10.8206 L 5.7473,10.8206 L 5.7388,10.8206 L 5.7304,10.8206 L 5.722,10.8206 L 5.7136,10.8206 L 5.7051,10.8206 L 5.6967,10.8206 L 5.6883,10.8206 L 5.6799,10.8206 L 5.6714,10.8206 L 5.663,10.8206 L 5.6546,10.8206 L 5.6462,10.8206 L 5.6377,10.8206 L 5.6293,10.8206 L 5.6209,10.8206 L 5.6125,10.8206 L 5.604,10.8206 L 5.5956,10.8206 L 5.5872,10.8206 L 5.5788,10.8206 L 5.5703,10.8206 L 5.5619,10.8206 L 5.5535,10.8206 L 5.5451,10.8206 L 5.5366,10.8206 L 5.5282,10.8206 L 5.5198,10.8206 L 5.5114,10.8206 L 5.5029,10.8206 L 5.4945,10.8206 L 5.4861,10.8206 L 5.4777,10.8206 L 5.4692,10.8206 L 5.4608,10.8206 L 5.4524,10.8206 L 5.444,10.8206 L 5.4355,10.8206 L 5.4271,10.8206 L 5.4187,10.8206 L 5.4103,10.8206 L 5.4018,10.8206 L 5.3934,10.8206" />
      <path d="M -5.3934,10.8206 L -5.4018,10.8206 L -5.4103,10.8206 L -5.4187,10.8206 L -5.4271,10.8206 L -5.4355,10.8206 L -5.444,10.8206 L -5.4524,10.8206 L -5.4608,10.8206 L -5.4692,10.8206 L -5.4777,10.8206 L -5.4861,10.8206 L -5.4945,10.8206 L -5.5029,10.8206 L -5.5114,10.8206 L -5.5198,10.8206 L -5.5282,10.8206 L -5.5366,10.8206 L -5.5451,10.8206 L -5.5535,10.8206 L -5.5619,10.8206 L -5.5703,10.8206 L -5.5788,10.8206 L -5.5872,10.8206 L -5.5956,10.8206 L -5.604,10.8206 L -5.6125,10.8206 L -5.6209,10.8206 L -5.6293,10.8206 L -5.6377,10.8206 L -5.6462,10.8206 L -5.6546,10.8206 L -5.663,10.8206 L -5.6714,10.8206 L -5.6799,10.8206 L -5.6883,10.8206 L -5.6967,10.8206 L -5.7051,10.8206 L -5.7136,10.8206 L -5.722,10.8206 L -5.7304,10.8206 L -5.7388,10.8206 L -5.7473,10.8206 L -5.7557,10.8206 L -5.7641,10.8206 L -5.7725,10.8206 L -5.781,10.8206 L -5.7894,10.8206 L -5.7978,10.8206 L -5.8062,10.8206 L -5.8147,10.8206 L -5.8231,10.8206 L -5.8315,10.8206 L -5.8399,10.8206 L -5.8484,10.8206 L -5.8568,10.8206 L -5.8652,10.8206 L -5.8736,10.8206 L -5.8821,10.8206 L -5.8905,10.8206 L -5.8989,10.8206 L -5.9073,10.8206 L -5.9158,10.8206 L -5.9242,10.8206 L -5.9326,10.8206 L -5.941,10.8206 L -5.9495,10.8206 L -5.9579,10.8206 L -5.9663,10.8206 L -5.9747,10.8206 L -5.9832,10.8206 L -5.9916,10.8206 L -6.0,10.8206" />
      <path d="M -15.0,-3.1794 L -14.9857,-3.8337 L -14.9429,-4.4867 L -14.8717,-5.1373 L -14.7721,-5.7841 L -14.6444,-6.426 L -14.4889,-7.0617 L -14.3058,-7.69 L -14.0954,-8.3097 L -13.8582,-8.9196 L -13.5946,-9.5186 L -13.3052,-10.1056 L -12.9904,-10.6794 L -12.6509,-11.2388 L -12.2873,-11.783 L -11.9003,-12.3108 L -11.4907,-12.8212 L -11.0591,-13.3132 L -10.6066,-13.7859 L -10.1338,-14.2385 L -9.6418,-14.67 L -9.1314,-15.0796 L -8.6036,-15.4666 L -8.0595,-15.8302 L -7.5,-16.1697 L -6.9262,-16.4845 L -6.3393,-16.7739 L -5.7402,-17.0375 L -5.1303,-17.2747 L -4.5106,-17.4851 L -3.8823,-17.6682 L -3.2466,-17.8237 L -2.6047,-17.9514 L -1.9579,-18.051 L -1.3073,-18.1222 L -0.6543,-18.165 L -0.0,-18.1793 L 0.6543,-18.165 L 1.3073,-18.1222 L 1.9579,-18.051 L 2.6047,-17.9514 L 3.2466,-17.8237 L 3.8823,-17.6682 L 4.5106,-17.4851 L 5.1303,-17.2747 L 5.7402,-17.0375 L 6.3393,-16.7739 L 6.9262,-16.4845 L 7.5,-16.1697 L 8.0595,-15.8302 L 8.6036,-15.4666 L 9.1314,-15.0796 L 9.6418,-14.67 L 10.1338,-14.2385 L 10.6066,-13.7859 L 11.0591,-13.3132 L 11.4907,-12.8212 L 11.9003,-12.3108 L 12.2873,-11.783 L 12.6509,-11.2388 L 12.9904,-10.6794 L 13.3052,-10.1056 L 13.5946,-9.5186 L 13.8582,-8.9196 L 14.0954,-8.3097 L 14.3058,-7.69 L 14.4889,-7.0617 L 14.6444,-6.426 L 14.7721,-5.7841 L 14.8717,-5.1373 L 14.9429,-4.4867 L 14.9857,-3.8337 L 15.0,-3.1794" />
      <path d="M 0.0,3.3206 L -0.1418,3.319 L -0.2835,3.3144 L -0.4251,3.3067 L -0.5664,3.2959 L -0.7075,3.282 L -0.8483,3.265 L -0.9886,3.245 L -1.1285,3.2219 L -1.2679,3.1957 L -1.4066,3.1666 L -1.5447,3.1344 L -1.6821,3.0992 L -1.8186,3.061 L -1.9543,3.0198 L -2.089,2.9757 L -2.2228,2.9287 L -2.3555,2.8788 L -2.4871,2.826 L -2.6175,2.7703 L -2.7466,2.7118 L -2.8745,2.6505 L -3.0009,2.5864 L -3.126,2.5196 L -3.2495,2.45 L -3.3715,2.3778 L -3.492,2.303 L -3.6107,2.2255 L -3.7277,2.1454 L -3.843,2.0629 L -3.9564,1.9778 L -4.068,1.8903 L -4.1776,1.8003 L -4.2852,1.708 L -4.3908,1.6134 L -4.4943,1.5165 L -4.5956,1.4174 L -4.6948,1.316 L -4.7917,1.2126 L -4.8864,1.107 L -4.9787,0.9994 L -5.0687,0.8898 L -5.1562,0.7783 L -5.2413,0.6649 L -5.3239,0.5497 L -5.404,0.4326 L -5.4815,0.3139 L -5.5564,0.1935 L -5.6286,0.0715 L -5.6982,-0.052 L -5.7651,-0.177 L -5.8292,-0.3035 L -5.8905,-0.4313 L -5.9491,-0.5605 L -6.0048,-0.6908 L -6.0576,-0.8224 L -6.1076,-0.9551 L -6.1546,-1.0888 L -6.1988,-1.2236 L -6.24,-1.3592 L -6.2782,-1.4958 L -6.3134,-1.6331 L -6.3456,-1.7712 L -6.3748,-1.9099 L -6.401,-2.0493 L -6.4241,-2.1892 L -6.4442,-2.3295 L -6.4612,-2.4703 L -6.4751,-2.6114 L -6.486,-2.7527 L -6.4937,-2.8943 L -6.4984,-3.036 L -6.5,-3.1778" />
      <path d="M 6.5,-3.1778 L 6.4984,-3.036 L 6.4937,-2.8943 L 6.486,-2.7527 L 6.4751,-2.6114 L 6.4612,-2.4703 L 6.4442,-2.3295 L 6.4241,-2.1892 L 6.401,-2.0493 L 6.3748,-1.9099 L 6.3456,-1.7712 L 6.3134,-1.6331 L 6.2782,-1.4958 L 6.24,-1.3592 L 6.1988,-1.2236 L 6.1546,-1.0888 L 6.1076,-0.9551 L 6.0576,-0.8224 L 6.0048,-0.6908 L 5.9491,-0.5605 L 5.8905,-0.4313 L 5.8292,-0.3035 L 5.7651,-0.177 L 5.6982,-0.052 L 5.6286,0.0715 L 5.5564,0.1935 L 5.4815,0.3139 L 5.404,0.4326 L 5.3239,0.5497 L 5.2413,0.6649 L 5.1562,0.7783 L 5.0687,0.8898 L 4.9787,0.9994 L 4.8864,1.107 L 4.7917,1.2126 L 4.6948,1.316 L 4.5956,1.4174 L 4.4943,1.5165 L 4.3908,1.6134 L 4.2852,1.708 L 4.1776,1.8003 L 4.068,1.8903 L 3.9564,1.9778 L 3.843,2.0629 L 3.7277,2.1454 L 3.6107,2.2255 L 3.492,2.303 L 3.3715,2.3778 L 3.2495,2.45 L 3.126,2.5196 L 3.0009,2.5864 L 2.8745,2.6505 L 2.7466,2.7118 L 2.6175,2.7703 L 2.4871,2.826 L 2.3555,2.8788 L 2.2228,2.9287 L 2.089,2.9757 L 1.9543,3.0198 L 1.8186,3.061 L 1.6821,3.0992 L 1.5447,3.1344 L 1.4066,3.1666 L 1.2679,3.1957 L 1.1285,3.2219 L 0.9886,3.245 L 0.8483,3.265 L 0.7075,3.282 L 0.5664,3.2959 L 0.4251,3.3067 L 0.2835,3.3144 L 0.1418,3.319 L 0.0,3.3206" />
      <path d="M 6.0,10.865 L 5.8333,10.865 L 5.6667,10.865 L 5.5,10.865 L 5.3333,10.865 L 5.1667,10.865 L 5.0,10.865 L 4.8333,10.865 L 4.6667,10.865 L 4.5,10.865 L 4.3333,10.865 L 4.1667,10.865 L 4.0,10.865 L 3.8333,10.865 L 3.6667,10.865 L 3.5,10.865 L 3.3333,10.865 L 3.1667,10.865 L 3.0,10.865 L 2.8333,10.865 L 2.6667,10.865 L 2.5,10.865 L 2.3333,10.865 L 2.1667,10.865 L 2.0,10.865 L 1.8333,10.865 L 1.6667,10.865 L 1.5,10.865 L 1.3333,10.865 L 1.1667,10.865 L 1.0,10.865 L 0.8333,10.865 L 0.6667,10.865 L 0.5,10.865 L 0.3333,10.865 L 0.1667,10.865 L 0.0,10.865 L -0.1667,10.865 L -0.3333,10.865 L -0.5,10.865 L -0.6667,10.865 L -0.8333,10.865 L -1.0,10.865 L -1.1667,10.865 L -1.3333,10.865 L -1.5,10.865 L -1.6667,10.865 L -1.8333,10.865 L -2.0,10.865 L -2.1667,10.865 L -2.3333,10.865 L -2.5,10.865 L -2.6667,10.865 L -2.8333,10.865 L -3.0,10.865 L -3.1667,10.865 L -3.3333,10.865 L -3.5,10.865 L -3.6667,10.865 L -3.8333,10.865 L -4.0,10.865 L -4.1667,10.865 L -4.3333,10.865 L -4.5,10.865 L -4.6667,10.865 L -4.8333,10.865 L -5.0,10.865 L -5.1667,10.865 L -5.3333,10.865 L -5.5,10.865 L -5.6667,10.865 L -5.8333,10.865 L -6.0,10.865" />
      <path d="M -6.0,10.8206 L -6.0,10.8212 L -6.0,10.8218 L -6.0,10.8224 L -6.0,10.823 L -6.0,10.8236 L -6.0,10.8243 L -6.0,10.8249 L -6.0,10.8255 L -6.0,10.8261 L -6.0,10.8267 L -6.0,10.8273 L -6.0,10.828 L -6.0,10.8286 L -6.0,10.8292 L -6.0,10.8298 L -6.0,10.8304 L -6.0,10.8311 L -6.0,10.8317 L -6.0,10.8323 L -6.0,10.8329 L -6.0,10.8335 L -6.0,10.8341 L -6.0,10.8348 L -6.0,10.8354 L -6.0,10.836 L -6.0,10.8366 L -6.0,10.8372 L -6.0,10.8379 L -6.0,10.8385 L -6.0,10.8391 L -6.0,10.8397 L -6.0,10.8403 L -6.0,10.8409 L -6.0,10.8416 L -6.0,10.8422 L -6.0,10.8428 L -6.0,10.8434 L -6.0,10.844 L -6.0,10.8447 L -6.0,10.8453 L -6.0,10.8459 L -6.0,10.8465 L -6.0,10.8471 L -6.0,10.8477 L -6.0,10.8484 L -6.0,10.849 L -6.0,10.8496 L -6.0,10.8502 L -6.0,10.8508 L -6.0,10.8514 L -6.0,10.8521 L -6.0,10.8527 L -6.0,10.8533 L -6.0,10.8539 L -6.0,10.8545 L -6.0,10.8552 L -6.0,10.8558 L -6.0,10.8564 L -6.0,10.857 L -6.0,10.8576 L -6.0,10.8582 L -6.0,10.8589 L -6.0,10.8595 L -6.0,10.8601 L -6.0,10.8607 L -6.0,10.8613 L -6.0,10.862 L -6.0,10.8626 L -6.0,10.8632 L -6.0,10.8638 L -6.0,10.8644 L -6.0,10.865" />
      <path d="M 5.3852,10.8237 L 5.2356,10.8237 L 5.086,10.8237 L 4.9364,10.8237 L 4.7868,10.8237 L 4.6372,10.8237 L 4.4876,10.8237 L 4.338,10.8237 L 4.1885,10.8237 L 4.0389,10.8237 L 3.8893,10.8237 L 3.7397,10.8237 L 3.5901,10.8237 L 3.4405,10.8237 L 3.2909,10.8237 L 3.1413,10.8237 L 2.9918,10.8237 L 2.8422,10.8237 L 2.6926,10.8237 L 2.543,10.8237 L 2.3934,10.8237 L 2.2438,10.8237 L 2.0942,10.8237 L 1.9446,10.8237 L 1.7951,10.8237 L 1.6455,10.8237 L 1.4959,10.8237 L 1.3463,10.8237 L 1.1967,10.8237 L 1.0471,10.8237 L 0.8975,10.8237 L 0.7479,10.8237 L 0.5984,10.8237 L 0.4488,10.8237 L 0.2992,10.8237 L 0.1496,10.8237 L 0.0,10.8237 L -0.1496,10.8237 L -0.2992,10.8237 L -0.4488,10.8237 L -0.5984,10.8237 L -0.7479,10.8237 L -0.8975,10.8237 L -1.0471,10.8237 L -1.1967,10.8237 L -1.3463,10.8237 L -1.4959,10.8237 L -1.6455,10.8237 L -1.7951,10.8237 L -1.9446,10.8237 L -2.0942,10.8237 L -2.2438,10.8237 L -2.3934,10.8237 L -2.543,10.8237 L -2.6926,10.8237 L -2.8422,10.8237 L -2.9918,10.8237 L -3.1413,10.8237 L -3.2909,10.8237 L -3.4405,10.8237 L -3.5901,10.8237 L -3.7397,10.8237 L -3.8893,10.8237 L -4.0389,10.8237 L -4.1885,10.8237 L -4.338,10.8237 L -4.4876,10.8237 L -4.6372,10.8237 L -4.7868,10.8237 L -4.9364,10.8237 L -5.086,10.8237 L -5.2356,10.8237 L -5.3852,10.8237" />
      <path d="M 6.0,10.8206 L 6.0,10.8212 L 6.0,10.8218 L 6.0,10.8224 L 6.0,10.823 L 6.0,10.8236 L 6.0,10.8243 L 6.0,10.8249 L 6.0,10.8255 L 6.0,10.8261 L 6.0,10.8267 L 6.0,10.8273 L 6.0,10.828 L 6.0,10.8286 L 6.0,10.8292 L 6.0,10.8298 L 6.0,10.8304 L 6.0,10.8311 L 6.0,10.8317 L 6.0,10.8323 L 6.0,10.8329 L 6.0,10.8335 L 6.0,10.8341 L 6.0,10.8348 L 6.0,10.8354 L 6.0,10.836 L 6.0,10.8366 L 6.0,10.8372 L 6.0,10.8379 L 6.0,10.8385 L 6.0,10.8391 L 6.0,10.8397 L 6.0,10.8403 L 6.0,10.8409 L 6.0,10.8416 L 6.0,10.8422 L 6.0,10.8428 L 6.0,10.8434 L 6.0,10.844 L 6.0,10.8447 L 6.0,10.8453 L 6.0,10.8459 L 6.0,10.8465 L 6.0,10.8471 L 6.0,10.8477 L 6.0,10.8484 L 6.0,10.849 L 6.0,10.8496 L 6.0,10.8502 L 6.0,10.8508 L 6.0,10.8514 L 6.0,10.8521 L 6.0,10.8527 L 6.0,10.8533 L 6.0,10.8539 L 6.0,10.8545 L 6.0,10.8552 L 6.0,10.8558 L 6.0,10.8564 L 6.0,10.857 L 6.0,10.8576 L 6.0,10.8582 L 6.0,10.8589 L 6.0,10.8595 L 6.0,10.8601 L 6.0,10.8607 L 6.0,10.8613 L 6.0,10.862 L 6.0,10.8626 L 6.0,10.8632 L 6.0,10.8638 L 6.0,10.8644 L 6.0,10.865" />
      <path d="M 6.0,11.865 L 5.8333,11.865 L 5.6667,11.865 L 5.5,11.865 L 5.3333,11.865 L 5.1667,11.865 L 5.0,11.865 L 4.8333,11.865 L 4.6667,11.865 L 4.5,11.865 L 4.3333,11.865 L 4.1667,11.865 L 4.0,11.865 L 3.8333,11.865 L 3.6667,11.865 L 3.5,11.865 L 3.3333,11.865 L 3.1667,11.865 L 3.0,11.865 L 2.8333,11.865 L 2.6667,11.865 L 2.5,11.865 L 2.3333,11.865 L 2.1667,11.865 L 2.0,11.865 L 1.8333,11.865 L 1.6667,11.865 L 1.5,11.865 L 1.3333,11.865 L 1.1667,11.865 L 1.0,11.865 L 0.8333,11.865 L 0.6667,11.865 L 0.5,11.865 L 0.3333,11.865 L 0.1667,11.865 L 0.0,11.865 L -0.1667,11.865 L -0.3333,11.865 L -0.5,11.865 L -0.6667,11.865 L -0.8333,11.865 L -1.0,11.865 L -1.1667,11.865 L -1.3333,11.865 L -1.5,11.865 L -1.6667,11.865 L -1.8333,11.865 L -2.0,11.865 L -2.1667,11.865 L -2.3333,11.865 L -2.5,11.865 L -2.6667,11.865 L -2.8333,11.865 L -3.0,11.865 L -3.1667,11.865 L -3.3333,11.865 L -3.5,11.865 L -3.6667,11.865 L -3.8333,11.865 L -4.0,11.865 L -4.1667,11.865 L -4.3333,11.865 L -4.5,11.865 L -4.6667,11.865 L -4.8333,11.865 L -5.0,11.865 L -5.1667,11.865 L -5.3333,11.865 L -5.5,11.865 L -5.6667,11.865 L -5.8333,11.865 L -6.0,11.865" />
      <path d="M 6.0,10.865 L 6.0,10.8789 L 6.0,10.8928 L 6.0,10.9067 L 6.0,10.9206 L 6.0,10.9345 L 6.0,10.9484 L 6.0,10.9623 L 6.0,10.9762 L 6.0,10.99 L 6.0,11.0039 L 6.0,11.0178 L 6.0,11.0317 L 6.0,11.0456 L 6.0,11.0595 L 6.0,11.0734 L 6.0,11.0873 L 6.0,11.1012 L 6.0,11.115 L 6.0,11.1289 L 6.0,11.1428 L 6.0,11.1567 L 6.0,11.1706 L 6.0,11.1845 L 6.0,11.1984 L 6.0,11.2123 L 6.0,11.2262 L 6.0,11.24 L 6.0,11.2539 L 6.0,11.2678 L 6.0,11.2817 L 6.0,11.2956 L 6.0,11.3095 L 6.0,11.3234 L 6.0,11.3373 L 6.0,11.3512 L 6.0,11.365 L 6.0,11.3789 L 6.0,11.3928 L 6.0,11.4067 L 6.0,11.4206 L 6.0,11.4345 L 6.0,11.4484 L 6.0,11.4623 L 6.0,11.4761 L 6.0,11.49 L 6.0,11.5039 L 6.0,11.5178 L 6.0,11.5317 L 6.0,11.5456 L 6.0,11.5595 L 6.0,11.5734 L 6.0,11.5873 L 6.0,11.6011 L 6.0,11.615 L 6.0,11.6289 L 6.0,11.6428 L 6.0,11.6567 L 6.0,11.6706 L 6.0,11.6845 L 6.0,11.6984 L 6.0,11.7123 L 6.0,11.7261 L 6.0,11.74 L 6.0,11.7539 L 6.0,11.7678 L 6.0,11.7817 L 6.0,11.7956 L 6.0,11.8095 L 6.0,11.8234 L 6.0,11.8373 L 6.0,11.8511 L 6.0,11.865" />
      <path d="M -5.3852,10.8237 L -5.6184,10.7318 L -5.8501,10.6359 L -6.0802,10.5362 L -6.3086,10.4326 L -6.5352,10.3253 L -6.7599,10.2142 L -6.9828,10.0993 L -7.2038,9.9807 L -7.4227,9.8585 L -7.6395,9.7326 L -7.8542,9.6031 L -8.0667,9.47 L -8.277,9.3334 L -8.485,9.1933 L -8.6905,9.0497 L -8.8937,8.9027 L -9.0944,8.7524 L -9.2925,8.5987 L -9.488,8.4417 L -9.6809,8.2815 L -9.8711,8.1181 L -10.0585,7.9515 L -10.2431,7.7818 L -10.4248,7.6091 L -10.6037,7.4333 L -10.7795,7.2546 L -10.9524,7.0729 L -11.1222,6.8884 L -11.2888,6.7011 L -11.4524,6.511 L -11.6127,6.3182 L -11.7698,6.1228 L -11.9236,5.9248 L -12.074,5.7242 L -12.2211,5.5211 L -12.3648,5.3156 L -12.505,5.1077 L -12.6418,4.8975 L -12.775,4.6851 L -12.9046,4.4705 L -13.0306,4.2537 L -13.153,4.0348 L -13.2717,3.814 L -13.3867,3.5911 L -13.4979,3.3664 L -13.6054,3.1399 L -13.7091,2.9116 L -13.8089,2.6816 L -13.9049,2.4499 L -13.997,2.2167 L -14.0852,1.982 L -14.1695,1.7458 L -14.2497,1.5083 L -14.3261,1.2694 L -14.3984,1.0294 L -14.4667,0.7881 L -14.5309,0.5457 L -14.5911,0.3023 L -14.6472,0.0579 L -14.6992,-0.1874 L -14.7471,-0.4335 L -14.7909,-0.6804 L -14.8306,-0.928 L -14.8661,-1.1762 L -14.8974,-1.425 L -14.9246,-1.6742 L -14.9476,-1.9239 L -14.9665,-2.174 L -14.9811,-2.4243 L -14.9916,-2.6748 L -14.9979,-2.9255 L -15.0,-3.1762" />
      <path d="M -15.0,-3.1762 L -14.9857,-3.8305 L -14.9429,-4.4835 L -14.8717,-5.1341 L -14.7721,-5.7809 L -14.6444,-6.4228 L -14.4889,-7.0585 L -14.3058,-7.6868 L -14.0954,-8.3065 L -13.8582,-8.9164 L -13.5946,-9.5155 L -13.3052,-10.1024 L -12.9904,-10.6762 L -12.6509,-11.2357 L -12.2873,-11.7798 L -11.9003,-12.3076 L -11.4907,-12.818 L -11.0591,-13.31 L -10.6066,-13.7828 L -10.1338,-14.2353 L -9.6418,-14.6668 L -9.1314,-15.0764 L -8.6036,-15.4634 L -8.0595,-15.827 L -7.5,-16.1665 L -6.9262,-16.4813 L -6.3393,-16.7708 L -5.7402,-17.0343 L -5.1303,-17.2715 L -4.5106,-17.4819 L -3.8823,-17.665 L -3.2466,-17.8206 L -2.6047,-17.9482 L -1.9579,-18.0478 L -1.3073,-18.119 L -0.6543,-18.1618 L -0.0,-18.1761 L 0.6543,-18.1618 L 1.3073,-18.119 L 1.9579,-18.0478 L 2.6047,-17.9482 L 3.2466,-17.8206 L 3.8823,-17.665 L 4.5106,-17.4819 L 5.1303,-17.2715 L 5.7402,-17.0343 L 6.3393,-16.7708 L 6.9262,-16.4813 L 7.5,-16.1665 L 8.0595,-15.827 L 8.6036,-15.4634 L 9.1314,-15.0764 L 9.6418,-14.6668 L 10.1338,-14.2353 L 10.6066,-13.7828 L 11.0591,-13.31 L 11.4907,-12.818 L 11.9003,-12.3076 L 12.2873,-11.7798 L 12.6509,-11.2357 L 12.9904,-10.6762 L 13.3052,-10.1024 L 13.5946,-9.5155 L 13.8582,-8.9164 L 14.0954,-8.3065 L 14.3058,-7.6868 L 14.4889,-7.0585 L 14.6444,-6.4228 L 14.7721,-5.7809 L 14.8717,-5.1341 L 14.9429,-4.4835 L 14.9857,-3.8305 L 15.0,-3.1762" />
      <path d="M 15.0,-3.1762 L 14.9979,-2.9255 L 14.9916,-2.6748 L 14.9811,-2.4243 L 14.9665,-2.174 L 14.9476,-1.9239 L 14.9246,-1.6742 L 14.8974,-1.425 L 14.8661,-1.1762 L 14.8306,-0.928 L 14.7909,-0.6804 L 14.7471,-0.4335 L 14.6992,-0.1874 L 14.6472,0.0579 L 14.5911,0.3023 L 14.5309,0.5457 L 14.4667,0.7881 L 14.3984,1.0294 L 14.3261,1.2694 L 14.2497,1.5083 L 14.1695,1.7458 L 14.0852,1.982 L 13.997,2.2167 L 13.9049,2.4499 L 13.8089,2.6816 L 13.7091,2.9116 L 13.6054,3.1399 L 13.4979,3.3664 L 13.3867,3.5911 L 13.2717,3.814 L 13.153,4.0348 L 13.0306,4.2537 L 12.9046,4.4705 L 12.775,4.6851 L 12.6418,4.8975 L 12.505,5.1077 L 12.3648,5.3156 L 12.2211,5.5211 L 12.074,5.7242 L 11.9236,5.9248 L 11.7698,6.1228 L 11.6127,6.3182 L 11.4524,6.511 L 11.2888,6.7011 L 11.1222,6.8884 L 10.9524,7.0729 L 10.7795,7.2546 L 10.6037,7.4333 L 10.4248,7.6091 L 10.2431,7.7818 L 10.0585,7.9515 L 9.8711,8.1181 L 9.6809,8.2815 L 9.488,8.4417 L 9.2925,8.5987 L 9.0944,8.7524 L 8.8937,8.9027 L 8.6905,9.0497 L 8.485,9.1933 L 8.277,9.3334 L 8.0667,9.47 L 7.8542,9.6031 L 7.6395,9.7326 L 7.4227,9.8585 L 7.2038,9.9807 L 6.9828,10.0993 L 6.7599,10.2142 L 6.5352,10.3253 L 6.3086,10.4326 L 6.0802,10.5362 L 5.8501,10.6359 L 5.6184,10.7318 L 5.3852,10.8237" />
      <path d="M 0.0,3.3238 L -0.1418,3.3222 L -0.2835,3.3176 L -0.4251,3.3099 L -0.5665,3.299 L -0.7076,3.2851 L -0.8484,3.2682 L -0.9888,3.2481 L -1.1287,3.225 L -1.2681,3.1989 L -1.4069,3.1697 L -1.545,3.1375 L -1.6823,3.1023 L -1.8189,3.0641 L -1.9546,3.0229 L -2.0894,2.9788 L -2.2231,2.9318 L -2.3558,2.8818 L -2.4874,2.829 L -2.6178,2.7733 L -2.747,2.7148 L -2.8749,2.6534 L -3.0014,2.5893 L -3.1264,2.5225 L -3.25,2.4529 L -3.372,2.3807 L -3.4924,2.3058 L -3.6112,2.2283 L -3.7282,2.1483 L -3.8435,2.0657 L -3.9569,1.9806 L -4.0685,1.893 L -4.1781,1.8031 L -4.2857,1.7107 L -4.3913,1.6161 L -4.4948,1.5191 L -4.5962,1.42 L -4.6954,1.3186 L -4.7923,1.2151 L -4.887,1.1095 L -4.9793,1.0019 L -5.0692,0.8923 L -5.1568,0.7807 L -5.2419,0.6673 L -5.3245,0.552 L -5.4045,0.435 L -5.482,0.3162 L -5.5569,0.1958 L -5.6292,0.0738 L -5.6987,-0.0498 L -5.7656,-0.1748 L -5.8297,-0.3013 L -5.891,-0.4292 L -5.9495,-0.5584 L -6.0052,-0.6888 L -6.058,-0.8204 L -6.108,-0.9531 L -6.155,-1.0868 L -6.1992,-1.2216 L -6.2403,-1.3573 L -6.2785,-1.4939 L -6.3137,-1.6312 L -6.3459,-1.7693 L -6.3751,-1.9081 L -6.4012,-2.0475 L -6.4243,-2.1874 L -6.4444,-2.3278 L -6.4614,-2.4686 L -6.4753,-2.6097 L -6.4861,-2.7511 L -6.4938,-2.8927 L -6.4985,-3.0344 L -6.5,-3.1762" />
      <path d="M -6.5,-3.1762 L -6.4938,-3.4597 L -6.4753,-3.7427 L -6.4444,-4.0246 L -6.4012,-4.3049 L -6.3459,-4.5831 L -6.2785,-4.8585 L -6.1992,-5.1308 L -6.108,-5.3993 L -6.0052,-5.6636 L -5.891,-5.9232 L -5.7656,-6.1776 L -5.6292,-6.4262 L -5.482,-6.6686 L -5.3245,-6.9044 L -5.1568,-7.1331 L -4.9793,-7.3543 L -4.7923,-7.5675 L -4.5962,-7.7724 L -4.3913,-7.9685 L -4.1781,-8.1555 L -3.9569,-8.333 L -3.7282,-8.5007 L -3.4924,-8.6582 L -3.25,-8.8053 L -3.0014,-8.9417 L -2.747,-9.0672 L -2.4874,-9.1814 L -2.2231,-9.2842 L -1.9546,-9.3753 L -1.6823,-9.4547 L -1.4069,-9.5221 L -1.1287,-9.5774 L -0.8484,-9.6206 L -0.5665,-9.6514 L -0.2835,-9.67 L -0.0,-9.6762 L 0.2835,-9.67 L 0.5665,-9.6514 L 0.8484,-9.6206 L 1.1287,-9.5774 L 1.4069,-9.5221 L 1.6823,-9.4547 L 1.9546,-9.3753 L 2.2231,-9.2842 L 2.4874,-9.1814 L 2.747,-9.0672 L 3.0014,-8.9417 L 3.25,-8.8053 L 3.4924,-8.6582 L 3.7282,-8.5007 L 3.9569,-8.333 L 4.1781,-8.1555 L 4.3913,-7.9685 L 4.5962,-7.7724 L 4.7923,-7.5675 L 4.9793,-7.3543 L 5.1568,-7.1331 L 5.3245,-6.9044 L 5.482,-6.6686 L 5.6292,-6.4262 L 5.7656,-6.1776 L 5.891,-5.9232 L 6.0052,-5.6636 L 6.108,-5.3993 L 6.1992,-5.1308 L 6.2785,-4.8585 L 6.3459,-4.5831 L 6.4012,-4.3049 L 6.4444,-4.0246 L 6.4753,-3.7427 L 6.4938,-3.4597 L 6.5,-3.1762" />
      <path d="M 6.5,-3.1762 L 6.4985,-3.0344 L 6.4938,-2.8927 L 6.4861,-2.7511 L 6.4753,-2.6097 L 6.4614,-2.4686 L 6.4444,-2.3278 L 6.4243,-2.1874 L 6.4012,-2.0475 L 6.3751,-1.9081 L 6.3459,-1.7693 L 6.3137,-1.6312 L 6.2785,-1.4939 L 6.2403,-1.3573 L 6.1992,-1.2216 L 6.155,-1.0868 L 6.108,-0.9531 L 6.058,-0.8204 L 6.0052,-0.6888 L 5.9495,-0.5584 L 5.891,-0.4292 L 5.8297,-0.3013 L 5.7656,-0.1748 L 5.6987,-0.0498 L 5.6292,0.0738 L 5.5569,0.1958 L 5.482,0.3162 L 5.4045,0.435 L 5.3245,0.552 L 5.2419,0.6673 L 5.1568,0.7807 L 5.0692,0.8923 L 4.9793,1.0019 L 4.887,1.1095 L 4.7923,1.2151 L 4.6954,1.3186 L 4.5962,1.42 L 4.4948,1.5191 L 4.3913,1.6161 L 4.2857,1.7107 L 4.1781,1.8031 L 4.0685,1.893 L 3.9569,1.9806 L 3.8435,2.0657 L 3.7282,2.1483 L 3.6112,2.2283 L 3.4924,2.3058 L 3.372,2.3807 L 3.25,2.4529 L 3.1264,2.5225 L 3.0014,2.5893 L 2.8749,2.6534 L 2.747,2.7148 L 2.6178,2.7733 L 2.4874,2.829 L 2.3558,2.8818 L 2.2231,2.9318 L 2.0894,2.9788 L 1.9546,3.0229 L 1.8189,3.0641 L 1.6823,3.1023 L 1.545,3.1375 L 1.4069,3.1697 L 1.2681,3.1989 L 1.1287,3.225 L 0.9888,3.2481 L 0.8484,3.2682 L 0.7076,3.2851 L 0.5665,3.299 L 0.4251,3.3099 L 0.2835,3.3176 L 0.1418,3.3222 L 0.0,3.3238" />
      <path d="M -6.0,10.865 L -6.0,10.8789 L -6.0,10.8928 L -6.0,10.9067 L -6.0,10.9206 L -6.0,10.9345 L -6.0,10.9484 L -6.0,10.9623 L -6.0,10.9762 L -6.0,10.99 L -6.0,11.0039 L -6.0,11.0178 L -6.0,11.0317 L -6.0,11.0456 L -6.0,11.0595 L -6.0,11.0734 L -6.0,11.0873 L -6.0,11.1012 L -6.0,11.115 L -6.0,11.1289 L -6.0,11.1428 L -6.0,11.1567 L -6.0,11.1706 L -6.0,11.1845 L -6.0,11.1984 L -6.0,11.2123 L -6.0,11.2262 L -6.0,11.24 L -6.0,11.2539 L -6.0,11.2678 L -6.0,11.2817 L -6.0,11.2956 L -6.0,11.3095 L -6.0,11.3234 L -6.0,11.3373 L -6.0,11.3512 L -6.0,11.365 L -6.0,11.3789 L -6.0,11.3928 L -6.0,11.4067 L -6.0,11.4206 L -6.0,11.4345 L -6.0,11.4484 L -6.0,11.4623 L -6.0,11.4761 L -6.0,11.49 L -6.0,11.5039 L -6.0,11.5178 L -6.0,11.5317 L -6.0,11.5456 L -6.0,11.5595 L -6.0,11.5734 L -6.0,11.5873 L -6.0,11.6011 L -6.0,11.615 L -6.0,11.6289 L -6.0,11.6428 L -6.0,11.6567 L -6.0,11.6706 L -6.0,11.6845 L -6.0,11.6984 L -6.0,11.7123 L -6.0,11.7261 L -6.0,11.74 L -6.0,11.7539 L -6.0,11.7678 L -6.0,11.7817 L -6.0,11.7956 L -6.0,11.8095 L -6.0,11.8234 L -6.0,11.8373 L -6.0,11.8511 L -6.0,11.865" />
      <path d="M 15.0,-3.1794 L 15.0,-3.1793 L 15.0,-3.1792 L 15.0,-3.1791 L 15.0,-3.179 L 15.0,-3.1789 L 15.0,-3.1788 L 15.0,-3.1787 L 15.0,-3.1786 L 15.0,-3.1785 L 15.0,-3.1784 L 15.0,-3.1783 L 15.0,-3.1782 L 15.0,-3.1781 L 15.0,-3.178 L 15.0,-3.1779 L 15.0,-3.1778 L 15.0,-3.1777 L 15.0,-3.1776 L 15.0,-3.1775 L 15.0,-3.1774 L 15.0,-3.1773 L 15.0,-3.1772 L 15.0,-3.1771 L 15.0,-3.177 L 15.0,-3.1769 L 15.0,-3.1768 L 15.0,-3.1767 L 15.0,-3.1766 L 15.0,-3.1765 L 15.0,-3.1764 L 15.0,-3.1763 L 15.0,-3.1762" />
      <path d="M -15.0,-3.1794 L -15.0,-3.1793 L -15.0,-3.1792 L -15.0,-3.1791 L -15.0,-3.179 L -15.0,-3.1789 L -15.0,-3.1788 L -15.0,-3.1787 L -15.0,-3.1786 L -15.0,-3.1785 L -15.0,-3.1784 L -15.0,-3.1783 L -15.0,-3.1782 L -15.0,-3.1781 L -15.0,-3.178 L -15.0,-3.1779 L -15.0,-3.1778 L -15.0,-3.1777 L -15.0,-3.1776 L -15.0,-3.1775 L -15.0,-3.1774 L -15.0,-3.1773 L -15.0,-3.1772 L -15.0,-3.1771 L -15.0,-3.177 L -15.0,-3.1769 L -15.0,-3.1768 L -15.0,-3.1767 L -15.0,-3.1766 L -15.0,-3.1765 L -15.0,-3.1764 L -15.0,-3.1763 L -15.0,-3.1762" />
      <path d="M 33.0,10.8459 L 33.0,10.8458 L 33.0001,10.8457 L 33.0001,10.8456 L 33.0002,10.8455 L 33.0002,10.8454 L 33.0003,10.8453 L 33.0003,10.8452 L 33.0004,10.8451 L 33.0004,10.845 L 33.0004,10.8449 L 33.0005,10.8449 L 33.0005,10.8448 L 33.0005,10.8447 L 33.0006,10.8447 L 33.0006,10.8446 L 33.0006,10.8445 L 33.0007,10.8445 L 33.0007,10.8444 L 33.0007,10.8443 L 33.0008,10.8443 L 33.0008,10.8442 L 33.0008,10.8441 L 33.0009,10.844" />
      <path d="M 33.0,10.8459 L 33.0,10.8598 L 33.0,10.8737 L 33.0,10.8876 L 33.0,10.9015 L 33.0,10.9154 L 33.0,10.9292 L 33.0,10.9431 L 33.0,10.957 L 33.0,10.9709 L 33.0,10.9848 L 33.0,10.9987 L 33.0,11.0126 L 33.0,11.0265 L 33.0,11.0404 L 33.0,11.0542 L 33.0,11.0681 L 33.0,11.082 L 33.0,11.0959 L 33.0,11.1098 L 33.0,11.1237 L 33.0,11.1376 L 33.0,11.1515 L 33.0,11.1654 L 33.0,11.1792 L 33.0,11.1931 L 33.0,11.207 L 33.0,11.2209 L 33.0,11.2348 L 33.0,11.2487 L 33.0,11.2626 L 33.0,11.2765 L 33.0,11.2904 L 33.0,11.3042 L 33.0,11.3181 L 33.0,11.332 L 33.0,11.3459 L 33.0,11.3598 L 33.0,11.3737 L 33.0,11.3876 L 33.0,11.4015 L 33.0,11.4154 L 33.0,11.4292 L 33.0,11.4431 L 33.0,11.457 L 33.0,11.4709 L 33.0,11.4848 L 33.0,11.4987 L 33.0,11.5126 L 33.0,11.5265 L 33.0,11.5404 L 33.0,11.5542 L 33.0,11.5681 L 33.0,11.582 L 33.0,11.5959 L 33.0,11.6098 L 33.0,11.6237 L 33.0,11.6376 L 33.0,11.6515 L 33.0,11.6654 L 33.0,11.6792 L 33.0,11.6931 L 33.0,11.707 L 33.0,11.7209 L 33.0,11.7348 L 33.0,11.7487 L 33.0,11.7626 L 33.0,11.7765 L 33.0,11.7904 L 33.0,11.8042 L 33.0,11.8181 L 33.0,11.832 L 33.0,11.8459" />
      <path d="M 33.0,11.8459 L 33.0001,11.8456 L 33.0002,11.8454 L 33.0004,11.8451 L 33.0005,11.8448 L 33.0006,11.8446 L 33.0007,11.8443 L 33.0009,11.8441 L 33.001,11.8438 L 33.0011,11.8435 L 33.0012,11.8433 L 33.0013,11.843 L 33.0015,11.8427 L 33.0016,11.8425 L 33.0017,11.8422 L 33.0018,11.8419 L 33.002,11.8417 L 33.0021,11.8414 L 33.0022,11.8411 L 33.0023,11.8409 L 33.0025,11.8406 L 33.0026,11.8404 L 33.0027,11.8401 L 33.0028,11.8398 L 33.003,11.8396 L 33.0031,11.8393 L 33.0032,11.839 L 33.0033,11.8388 L 33.0035,11.8385 L 33.0036,11.8382 L 33.0037,11.838 L 33.0038,11.8377 L 33.0039,11.8374 L 33.0041,11.8372 L 33.0042,11.8369 L 33.0043,11.8367 L 33.0044,11.8364 L 33.0046,11.8361 L 33.0047,11.8359 L 33.0048,11.8356 L 33.0049,11.8353 L 33.0051,11.8351 L 33.0052,11.8348 L 33.0053,11.8345 L 33.0054,11.8343 L 33.0056,11.834 L 33.0057,11.8337 L 33.0058,11.8335 L 33.0059,11.8332 L 33.0061,11.8329 L 33.0062,11.8327 L 33.0063,11.8324 L 33.0064,11.8322 L 33.0065,11.8319 L 33.0067,11.8316 L 33.0068,11.8314 L 33.0069,11.8311 L 33.007,11.8308 L 33.0072,11.8306 L 33.0073,11.8303 L 33.0074,11.83 L 33.0075,11.8298 L 33.0077,11.8295 L 33.0078,11.8292 L 33.0079,11.829 L 33.008,11.8287 L 33.0082,11.8285 L 33.0083,11.8282 L 33.0084,11.8279 L 33.0085,11.8277 L 33.0087,11.8274 L 33.0088,11.8271 L 33.0089,11.8269" />
      <path d="M 33.0089,11.8269 L 33.009,11.8266 L 33.0091,11.8263 L 33.0093,11.8261 L 33.0094,11.8258 L 33.0095,11.8255 L 33.0096,11.8253 L 33.0098,11.825 L 33.0099,11.8248 L 33.01,11.8245 L 33.0101,11.8242 L 33.0103,11.824 L 33.0104,11.8237 L 33.0105,11.8234 L 33.0106,11.8232 L 33.0108,11.8229 L 33.0109,11.8226 L 33.011,11.8224 L 33.0111,11.8221 L 33.0113,11.8218 L 33.0114,11.8216 L 33.0115,11.8213 L 33.0116,11.8211 L 33.0117,11.8208 L 33.0119,11.8205 L 33.012,11.8203 L 33.0121,11.82 L 33.0122,11.8197 L 33.0124,11.8195 L 33.0125,11.8192 L 33.0126,11.8189 L 33.0127,11.8187 L 33.0129,11.8184 L 33.013,11.8181 L 33.0131,11.8179 L 33.0132,11.8176 L 33.0134,11.8173 L 33.0135,11.8171 L 33.0136,11.8168 L 33.0137,11.8166 L 33.0139,11.8163 L 33.014,11.816 L 33.0141,11.8158 L 33.0142,11.8155 L 33.0143,11.8152 L 33.0145,11.815 L 33.0146,11.8147 L 33.0147,11.8144 L 33.0148,11.8142 L 33.015,11.8139 L 33.0151,11.8136 L 33.0152,11.8134 L 33.0153,11.8131 L 33.0155,11.8129 L 33.0156,11.8126 L 33.0157,11.8123 L 33.0158,11.8121 L 33.016,11.8118 L 33.0161,11.8115 L 33.0162,11.8113 L 33.0163,11.811 L 33.0165,11.8107 L 33.0166,11.8105 L 33.0167,11.8102 L 33.0168,11.8099 L 33.0169,11.8097 L 33.0171,11.8094 L 33.0172,11.8092 L 33.0173,11.8089 L 33.0174,11.8086 L 33.0176,11.8084 L 33.0177,11.8081 L 33.0178,11.8078" />
      <path d="M 33.0178,10.8078 L 33.0178,10.8217 L 33.0178,10.8356 L 33.0178,10.8495 L 33.0178,10.8634 L 33.0178,10.8773 L 33.0178,10.8912 L 33.0178,10.9051 L 33.0178,10.9189 L 33.0178,10.9328 L 33.0178,10.9467 L 33.0178,10.9606 L 33.0178,10.9745 L 33.0178,10.9884 L 33.0178,11.0023 L 33.0178,11.0162 L 33.0178,11.0301 L 33.0178,11.0439 L 33.0178,11.0578 L 33.0178,11.0717 L 33.0178,11.0856 L 33.0178,11.0995 L 33.0178,11.1134 L 33.0178,11.1273 L 33.0178,11.1412 L 33.0178,11.1551 L 33.0178,11.1689 L 33.0178,11.1828 L 33.0178,11.1967 L 33.0178,11.2106 L 33.0178,11.2245 L 33.0178,11.2384 L 33.0178,11.2523 L 33.0178,11.2662 L 33.0178,11.2801 L 33.0178,11.2939 L 33.0178,11.3078 L 33.0178,11.3217 L 33.0178,11.3356 L 33.0178,11.3495 L 33.0178,11.3634 L 33.0178,11.3773 L 33.0178,11.3912 L 33.0178,11.4051 L 33.0178,11.4189 L 33.0178,11.4328 L 33.0178,11.4467 L 33.0178,11.4606 L 33.0178,11.4745 L 33.0178,11.4884 L 33.0178,11.5023 L 33.0178,11.5162 L 33.0178,11.5301 L 33.0178,11.5439 L 33.0178,11.5578 L 33.0178,11.5717 L 33.0178,11.5856 L 33.0178,11.5995 L 33.0178,11.6134 L 33.0178,11.6273 L 33.0178,11.6412 L 33.0178,11.6551 L 33.0178,11.6689 L 33.0178,11.6828 L 33.0178,11.6967 L 33.0178,11.7106 L 33.0178,11.7245 L 33.0178,11.7384 L 33.0178,11.7523 L 33.0178,11.7662 L 33.0178,11.7801 L 33.0178,11.7939 L 33.0178,11.8078" />
      <path d="M 33.0169,10.8098 L 33.0169,10.8097 L 33.017,10.8097 L 33.017,10.8096 L 33.017,10.8095 L 33.0171,10.8095 L 33.0171,10.8094 L 33.0171,10.8093 L 33.0172,10.8092 L 33.0172,10.8091 L 33.0173,10.809 L 33.0173,10.8089 L 33.0173,10.8088 L 33.0174,10.8088 L 33.0174,10.8087 L 33.0174,10.8086 L 33.0175,10.8086 L 33.0175,10.8085 L 33.0175,10.8084 L 33.0176,10.8084 L 33.0176,10.8083 L 33.0176,10.8082 L 33.0177,10.8082 L 33.0177,10.8081 L 33.0177,10.808 L 33.0178,10.808 L 33.0178,10.8079 L 33.0178,10.8078" />
      <path d="M 33.0169,10.8098 L 33.0183,10.4072 L 33.0195,10.0047 L 33.0205,9.6022 L 33.0214,9.1996 L 33.0223,8.7971 L 33.023,8.3945 L 33.0237,7.992 L 33.0244,7.5895 L 33.025,7.1869 L 33.0255,6.7844 L 33.026,6.3818 L 33.0265,5.9793 L 33.027,5.5768 L 33.0274,5.1742 L 33.0278,4.7717 L 33.0281,4.3691 L 33.0285,3.9666 L 33.0288,3.5641 L 33.0291,3.1615 L 33.0293,2.759 L 33.0296,2.3564 L 33.0298,1.9539 L 33.03,1.5514 L 33.0302,1.1488 L 33.0304,0.7463 L 33.0306,0.3437 L 33.0307,-0.0588 L 33.0308,-0.4613 L 33.0309,-0.8639 L 33.031,-1.2664 L 33.0311,-1.669 L 33.0311,-2.0715 L 33.0312,-2.474 L 33.0312,-2.8766 L 33.0312,-3.2791 L 33.0312,-3.6817 L 33.0312,-4.0842 L 33.0311,-4.4867 L 33.0311,-4.8893 L 33.031,-5.2918 L 33.0309,-5.6944 L 33.0308,-6.0969 L 33.0306,-6.4995 L 33.0305,-6.902 L 33.0303,-7.3045 L 33.0302,-7.7071 L 33.03,-8.1096 L 33.0298,-8.5122 L 33.0295,-8.9147 L 33.0293,-9.3172 L 33.029,-9.7198 L 33.0287,-10.1223 L 33.0284,-10.5249 L 33.028,-10.9274 L 33.0276,-11.3299 L 33.0272,-11.7325 L 33.0268,-12.135 L 33.0264,-12.5376 L 33.0259,-12.9401 L 33.0253,-13.3426 L 33.0248,-13.7452 L 33.0241,-14.1477 L 33.0235,-14.5503 L 33.0228,-14.9528 L 33.022,-15.3553 L 33.0211,-15.7579 L 33.0201,-16.1604 L 33.019,-16.563 L 33.0177,-16.9655 L 33.0162,-17.368 L 33.0141,-17.7706 L 33.009,-18.1731" />
      <path d="M 33.009,-18.1731 L 33.0038,-17.7701 L 33.0018,-17.3671 L 33.0002,-16.9641 L 32.9989,-16.5611 L 32.9978,-16.1581 L 32.9968,-15.7551 L 32.9959,-15.352 L 32.9951,-14.949 L 32.9944,-14.546 L 32.9938,-14.143 L 32.9931,-13.74 L 32.9926,-13.337 L 32.992,-12.9339 L 32.9915,-12.5309 L 32.9911,-12.1279 L 32.9906,-11.7249 L 32.9902,-11.3219 L 32.9898,-10.9189 L 32.9895,-10.5159 L 32.9892,-10.1128 L 32.9889,-9.7098 L 32.9886,-9.3068 L 32.9883,-8.9038 L 32.9881,-8.5008 L 32.9879,-8.0978 L 32.9877,-7.6947 L 32.9875,-7.2917 L 32.9873,-6.8887 L 32.9872,-6.4857 L 32.987,-6.0827 L 32.9869,-5.6797 L 32.9868,-5.2767 L 32.9868,-4.8736 L 32.9867,-4.4706 L 32.9867,-4.0676 L 32.9866,-3.6646 L 32.9866,-3.2616 L 32.9866,-2.8586 L 32.9866,-2.4555 L 32.9867,-2.0525 L 32.9867,-1.6495 L 32.9868,-1.2465 L 32.9869,-0.8435 L 32.987,-0.4405 L 32.9871,-0.0374 L 32.9872,0.3656 L 32.9874,0.7686 L 32.9875,1.1716 L 32.9877,1.5746 L 32.9879,1.9776 L 32.9882,2.3806 L 32.9884,2.7837 L 32.9887,3.1867 L 32.989,3.5897 L 32.9893,3.9927 L 32.9896,4.3957 L 32.99,4.7987 L 32.9904,5.2018 L 32.9908,5.6048 L 32.9912,6.0078 L 32.9917,6.4108 L 32.9922,6.8138 L 32.9928,7.2168 L 32.9934,7.6198 L 32.994,8.0229 L 32.9947,8.4259 L 32.9955,8.8289 L 32.9963,9.2319 L 32.9972,9.6349 L 32.9983,10.0379 L 32.9995,10.4409 L 33.0009,10.844" />
      <path d="M 33.0089,3.3269 L 33.0111,3.1464 L 33.012,2.9658 L 33.0127,2.7853 L 33.0133,2.6047 L 33.0138,2.4242 L 33.0142,2.2436 L 33.0146,2.0631 L 33.0149,1.8825 L 33.0153,1.7019 L 33.0156,1.5214 L 33.0158,1.3408 L 33.0161,1.1603 L 33.0163,0.9797 L 33.0165,0.7992 L 33.0167,0.6186 L 33.0169,0.4381 L 33.0171,0.2575 L 33.0172,0.0769 L 33.0174,-0.1036 L 33.0175,-0.2842 L 33.0177,-0.4647 L 33.0178,-0.6453 L 33.0179,-0.8258 L 33.018,-1.0064 L 33.0181,-1.187 L 33.0182,-1.3675 L 33.0182,-1.5481 L 33.0183,-1.7286 L 33.0184,-1.9092 L 33.0184,-2.0897 L 33.0185,-2.2703 L 33.0185,-2.4508 L 33.0185,-2.6314 L 33.0185,-2.812 L 33.0186,-2.9925 L 33.0186,-3.1731 L 33.0186,-3.3536 L 33.0185,-3.5342 L 33.0185,-3.7147 L 33.0185,-3.8953 L 33.0185,-4.0758 L 33.0184,-4.2564 L 33.0184,-4.437 L 33.0183,-4.6175 L 33.0183,-4.7981 L 33.0182,-4.9786 L 33.0181,-5.1592 L 33.018,-5.3397 L 33.0179,-5.5203 L 33.0178,-5.7009 L 33.0177,-5.8814 L 33.0176,-6.062 L 33.0174,-6.2425 L 33.0173,-6.4231 L 33.0171,-6.6036 L 33.0169,-6.7842 L 33.0168,-6.9647 L 33.0166,-7.1453 L 33.0163,-7.3259 L 33.0161,-7.5064 L 33.0159,-7.687 L 33.0156,-7.8675 L 33.0153,-8.0481 L 33.015,-8.2286 L 33.0146,-8.4092 L 33.0143,-8.5897 L 33.0138,-8.7703 L 33.0134,-8.9509 L 33.0128,-9.1314 L 33.0121,-9.312 L 33.0112,-9.4925 L 33.0089,-9.6731" />
      <path d="M 33.0089,-9.6731 L 33.0067,-9.4925 L 33.0058,-9.312 L 33.0051,-9.1314 L 33.0045,-8.9509 L 33.004,-8.7703 L 33.0036,-8.5898 L 33.0032,-8.4092 L 33.0029,-8.2286 L 33.0025,-8.0481 L 33.0022,-7.8675 L 33.002,-7.687 L 33.0017,-7.5064 L 33.0015,-7.3259 L 33.0013,-7.1453 L 33.0011,-6.9647 L 33.0009,-6.7842 L 33.0007,-6.6036 L 33.0006,-6.4231 L 33.0004,-6.2425 L 33.0003,-6.062 L 33.0001,-5.8814 L 33.0,-5.7009 L 32.9999,-5.5203 L 32.9998,-5.3397 L 32.9997,-5.1592 L 32.9996,-4.9786 L 32.9996,-4.7981 L 32.9995,-4.6175 L 32.9994,-4.437 L 32.9994,-4.2564 L 32.9993,-4.0758 L 32.9993,-3.8953 L 32.9993,-3.7147 L 32.9993,-3.5342 L 32.9992,-3.3536 L 32.9992,-3.1731 L 32.9992,-2.9925 L 32.9993,-2.8119 L 32.9993,-2.6314 L 32.9993,-2.4508 L 32.9993,-2.2703 L 32.9994,-2.0897 L 32.9994,-1.9092 L 32.9995,-1.7286 L 32.9995,-1.5481 L 32.9996,-1.3675 L 32.9997,-1.1869 L 32.9998,-1.0064 L 32.9999,-0.8258 L 33.0,-0.6453 L 33.0001,-0.4647 L 33.0002,-0.2842 L 33.0004,-0.1036 L 33.0005,0.077 L 33.0007,0.2575 L 33.0009,0.4381 L 33.001,0.6186 L 33.0012,0.7992 L 33.0015,0.9797 L 33.0017,1.1603 L 33.0019,1.3409 L 33.0022,1.5214 L 33.0025,1.702 L 33.0028,1.8825 L 33.0032,2.0631 L 33.0035,2.2436 L 33.004,2.4242 L 33.0044,2.6047 L 33.005,2.7853 L 33.0057,2.9659 L 33.0066,3.1464 L 33.0089,3.3269" />
      <path d="M 19.0,10.8458 L 19.0002,10.8453 L 19.0005,10.8448 L 19.0007,10.8443 L 19.001,10.8437 L 19.0012,10.8432 L 19.0015,10.8427 L 19.0017,10.8421 L 19.002,10.8416 L 19.0022,10.8411 L 19.0025,10.8406 L 19.0027,10.84 L 19.003,10.8395 L 19.0032,10.839 L 19.0035,10.8384 L 19.0037,10.8379 L 19.004,10.8374 L 19.0042,10.8369 L 19.0045,10.8363 L 19.0047,10.8358 L 19.005,10.8353 L 19.0052,10.8347 L 19.0054,10.8342 L 19.0057,10.8337 L 19.0059,10.8332 L 19.0062,10.8326 L 19.0064,10.8321 L 19.0067,10.8316 L 19.0069,10.831 L 19.0072,10.8305 L 19.0074,10.83 L 19.0077,10.8295 L 19.0079,10.8289 L 19.0082,10.8284 L 19.0084,10.8279 L 19.0087,10.8273 L 19.0089,10.8268 L 19.0092,10.8263 L 19.0094,10.8257 L 19.0097,10.8252 L 19.0099,10.8247 L 19.0102,10.8242 L 19.0104,10.8236 L 19.0106,10.8231 L 19.0109,10.8226 L 19.0111,10.822 L 19.0114,10.8215 L 19.0116,10.821 L 19.0119,10.8205 L 19.0121,10.8199 L 19.0124,10.8194 L 19.0126,10.8189 L 19.0129,10.8183 L 19.0131,10.8178 L 19.0134,10.8173 L 19.0136,10.8168 L 19.0139,10.8162 L 19.0141,10.8157 L 19.0144,10.8152 L 19.0146,10.8146 L 19.0149,10.8141 L 19.0151,10.8136 L 19.0154,10.8131 L 19.0156,10.8125 L 19.0158,10.812 L 19.0161,10.8115 L 19.0163,10.8109 L 19.0166,10.8104 L 19.0168,10.8099 L 19.0171,10.8094 L 19.0173,10.8088 L 19.0176,10.8083 L 19.0178,10.8078" />
      <path d="M 33.0178,10.8078 L 33.0177,10.8078 L 33.0176,10.8078 L 33.0175,10.8078 L 33.0174,10.8078 L 33.0173,10.8078 L 33.0172,10.8078 L 33.0171,10.8078 L 33.017,10.8078 L 33.0169,10.8078" />
      <path d="M 32.0008,10.8078 L 31.8204,10.8078 L 31.6401,10.8078 L 31.4598,10.8078 L 31.2795,10.8078 L 31.0992,10.8078 L 30.9188,10.8078 L 30.7385,10.8078 L 30.5582,10.8078 L 30.3779,10.8078 L 30.1976,10.8078 L 30.0173,10.8078 L 29.8369,10.8078 L 29.6566,10.8078 L 29.4763,10.8078 L 29.296,10.8078 L 29.1157,10.8078 L 28.9353,10.8078 L 28.755,10.8078 L 28.5747,10.8078 L 28.3944,10.8078 L 28.2141,10.8078 L 28.0338,10.8078 L 27.8534,10.8078 L 27.6731,10.8078 L 27.4928,10.8078 L 27.3125,10.8078 L 27.1322,10.8078 L 26.9518,10.8078 L 26.7715,10.8078 L 26.5912,10.8078 L 26.4109,10.8078 L 26.2306,10.8078 L 26.0503,10.8078 L 25.8699,10.8078 L 25.6896,10.8078 L 25.5093,10.8078 L 25.329,10.8078 L 25.1487,10.8078 L 24.9683,10.8078 L 24.788,10.8078 L 24.6077,10.8078 L 24.4274,10.8078 L 24.2471,10.8078 L 24.0667,10.8078 L 23.8864,10.8078 L 23.7061,10.8078 L 23.5258,10.8078 L 23.3455,10.8078 L 23.1652,10.8078 L 22.9848,10.8078 L 22.8045,10.8078 L 22.6242,10.8078 L 22.4439,10.8078 L 22.2636,10.8078 L 22.0832,10.8078 L 21.9029,10.8078 L 21.7226,10.8078 L 21.5423,10.8078 L 21.362,10.8078 L 21.1817,10.8078 L 21.0013,10.8078 L 20.821,10.8078 L 20.6407,10.8078 L 20.4604,10.8078 L 20.2801,10.8078 L 20.0997,10.8078 L 19.9194,10.8078 L 19.7391,10.8078 L 19.5588,10.8078 L 19.3785,10.8078 L 19.1981,10.8078 L 19.0178,10.8078" />
      <path d="M 33.0009,10.844 L 32.987,10.844 L 32.9731,10.844 L 32.9592,10.844 L 32.9453,10.844 L 32.9315,10.844 L 32.9176,10.844 L 32.9037,10.844 L 32.8898,10.844 L 32.8759,10.844 L 32.862,10.844 L 32.8481,10.844 L 32.8342,10.844 L 32.8203,10.844 L 32.8065,10.844 L 32.7926,10.844 L 32.7787,10.844 L 32.7648,10.844 L 32.7509,10.844 L 32.737,10.844 L 32.7231,10.844 L 32.7092,10.844 L 32.6953,10.844 L 32.6815,10.844 L 32.6676,10.844 L 32.6537,10.844 L 32.6398,10.844 L 32.6259,10.844 L 32.612,10.844 L 32.5981,10.844 L 32.5842,10.844 L 32.5703,10.844 L 32.5565,10.844 L 32.5426,10.844 L 32.5287,10.844 L 32.5148,10.844 L 32.5009,10.844 L 32.487,10.844 L 32.4731,10.844 L 32.4592,10.844 L 32.4453,10.844 L 32.4315,10.844 L 32.4176,10.844 L 32.4037,10.844 L 32.3898,10.844 L 32.3759,10.844 L 32.362,10.844 L 32.3481,10.844 L 32.3342,10.844 L 32.3203,10.844 L 32.3065,10.844 L 32.2926,10.844 L 32.2787,10.844 L 32.2648,10.844 L 32.2509,10.844 L 32.237,10.844 L 32.2231,10.844 L 32.2092,10.844 L 32.1953,10.844 L 32.1815,10.844 L 32.1676,10.844 L 32.1537,10.844 L 32.1398,10.844 L 32.1259,10.844 L 32.112,10.844 L 32.0981,10.844 L 32.0842,10.844 L 32.0703,10.844 L 32.0565,10.844 L 32.0426,10.844 L 32.0287,10.844 L 32.0148,10.844 L 32.0009,10.844" />
      <path d="M 33.0,10.8459 L 32.8055,10.8459 L 32.6111,10.8459 L 32.4167,10.8459 L 32.2222,10.8459 L 32.0278,10.8459 L 31.8333,10.8459 L 31.6389,10.8459 L 31.4444,10.8459 L 31.25,10.8459 L 31.0555,10.8459 L 30.8611,10.8459 L 30.6667,10.8459 L 30.4722,10.8459 L 30.2778,10.8459 L 30.0833,10.8459 L 29.8889,10.8459 L 29.6944,10.8459 L 29.5,10.8459 L 29.3055,10.8459 L 29.1111,10.8459 L 28.9167,10.8459 L 28.7222,10.8459 L 28.5278,10.8459 L 28.3333,10.8459 L 28.1389,10.8459 L 27.9444,10.8459 L 27.75,10.8459 L 27.5555,10.8459 L 27.3611,10.8459 L 27.1667,10.8459 L 26.9722,10.8459 L 26.7778,10.8459 L 26.5833,10.8459 L 26.3889,10.8459 L 26.1944,10.8459 L 26.0,10.8459 L 25.8055,10.8459 L 25.6111,10.8459 L 25.4167,10.8459 L 25.2222,10.8459 L 25.0278,10.8459 L 24.8333,10.8459 L 24.6389,10.8459 L 24.4444,10.8459 L 24.25,10.8459 L 24.0555,10.8459 L 23.8611,10.8459 L 23.6667,10.8459 L 23.4722,10.8459 L 23.2778,10.8459 L 23.0833,10.8459 L 22.8889,10.8459 L 22.6944,10.8459 L 22.5,10.8459 L 22.3056,10.8459 L 22.1111,10.8459 L 21.9167,10.8459 L 21.7222,10.8459 L 21.5278,10.8459 L 21.3333,10.8459 L 21.1389,10.8459 L 20.9444,10.8459 L 20.75,10.8459 L 20.5556,10.8459 L 20.3611,10.8459 L 20.1667,10.8459 L 19.9722,10.8459 L 19.7778,10.8458 L 19.5833,10.8458 L 19.3889,10.8458 L 19.1944,10.8458 L 19.0,10.8458" />
      <path d="M 33.0,11.8459 L 32.8055,11.8459 L 32.6111,11.8459 L 32.4167,11.8459 L 32.2222,11.8459 L 32.0278,11.8459 L 31.8333,11.8459 L 31.6389,11.8459 L 31.4444,11.8459 L 31.25,11.8459 L 31.0555,11.8459 L 30.8611,11.8459 L 30.6667,11.8459 L 30.4722,11.8459 L 30.2778,11.8459 L 30.0833,11.8459 L 29.8889,11.8459 L 29.6944,11.8459 L 29.5,11.8459 L 29.3055,11.8459 L 29.1111,11.8459 L 28.9167,11.8459 L 28.7222,11.8459 L 28.5278,11.8459 L 28.3333,11.8459 L 28.1389,11.8459 L 27.9444,11.8459 L 27.75,11.8459 L 27.5555,11.8459 L 27.3611,11.8459 L 27.1667,11.8459 L 26.9722,11.8459 L 26.7778,11.8459 L 26.5833,11.8459 L 26.3889,11.8459 L 26.1944,11.8459 L 26.0,11.8459 L 25.8055,11.8459 L 25.6111,11.8459 L 25.4167,11.8459 L 25.2222,11.8459 L 25.0278,11.8459 L 24.8333,11.8459 L 24.6389,11.8459 L 24.4444,11.8459 L 24.25,11.8459 L 24.0555,11.8459 L 23.8611,11.8459 L 23.6667,11.8459 L 23.4722,11.8459 L 23.2778,11.8459 L 23.0833,11.8459 L 22.8889,11.8459 L 22.6944,11.8459 L 22.5,11.8459 L 22.3056,11.8459 L 22.1111,11.8459 L 21.9167,11.8459 L 21.7222,11.8459 L 21.5278,11.8459 L 21.3333,11.8459 L 21.1389,11.8459 L 20.9444,11.8458 L 20.75,11.8458 L 20.5556,11.8458 L 20.3611,11.8458 L 20.1667,11.8458 L 19.9722,11.8458 L 19.7778,11.8458 L 19.5833,11.8458 L 19.3889,11.8458 L 19.1944,11.8458 L 19.0,11.8458" />
      <path d="M 19.0,10.8458 L 19.0,10.8597 L 19.0,10.8736 L 19.0,10.8875 L 19.0,10.9014 L 19.0,10.9153 L 19.0,10.9292 L 19.0,10.9431 L 19.0,10.957 L 19.0,10.9708 L 19.0,10.9847 L 19.0,10.9986 L 19.0,11.0125 L 19.0,11.0264 L 19.0,11.0403 L 19.0,11.0542 L 19.0,11.0681 L 19.0,11.082 L 19.0,11.0958 L 19.0,11.1097 L 19.0,11.1236 L 19.0,11.1375 L 19.0,11.1514 L 19.0,11.1653 L 19.0,11.1792 L 19.0,11.1931 L 19.0,11.207 L 19.0,11.2208 L 19.0,11.2347 L 19.0,11.2486 L 19.0,11.2625 L 19.0,11.2764 L 19.0,11.2903 L 19.0,11.3042 L 19.0,11.3181 L 19.0,11.332 L 19.0,11.3458 L 19.0,11.3597 L 19.0,11.3736 L 19.0,11.3875 L 19.0,11.4014 L 19.0,11.4153 L 19.0,11.4292 L 19.0,11.4431 L 19.0,11.457 L 19.0,11.4708 L 19.0,11.4847 L 19.0,11.4986 L 19.0,11.5125 L 19.0,11.5264 L 19.0,11.5403 L 19.0,11.5542 L 19.0,11.5681 L 19.0,11.582 L 19.0,11.5958 L 19.0,11.6097 L 19.0,11.6236 L 19.0,11.6375 L 19.0,11.6514 L 19.0,11.6653 L 19.0,11.6792 L 19.0,11.6931 L 19.0,11.707 L 19.0,11.7208 L 19.0,11.7347 L 19.0,11.7486 L 19.0,11.7625 L 19.0,11.7764 L 19.0,11.7903 L 19.0,11.8042 L 19.0,11.8181 L 19.0,11.832 L 19.0,11.8458" />
      <path d="M 32.009,-18.1731 L 32.0038,-17.7701 L 32.0018,-17.3671 L 32.0002,-16.9641 L 31.9989,-16.5611 L 31.9978,-16.1581 L 31.9968,-15.7551 L 31.9959,-15.352 L 31.9952,-14.949 L 31.9944,-14.546 L 31.9938,-14.143 L 31.9931,-13.74 L 31.9926,-13.337 L 31.992,-12.934 L 31.9915,-12.5309 L 31.9911,-12.1279 L 31.9906,-11.7249 L 31.9902,-11.3219 L 31.9899,-10.9189 L 31.9895,-10.5159 L 31.9892,-10.1128 L 31.9889,-9.7098 L 31.9886,-9.3068 L 31.9883,-8.9038 L 31.9881,-8.5008 L 31.9879,-8.0978 L 31.9877,-7.6948 L 31.9875,-7.2917 L 31.9873,-6.8887 L 31.9872,-6.4857 L 31.987,-6.0827 L 31.9869,-5.6797 L 31.9868,-5.2767 L 31.9868,-4.8736 L 31.9867,-4.4706 L 31.9867,-4.0676 L 31.9866,-3.6646 L 31.9866,-3.2616 L 31.9866,-2.8586 L 31.9866,-2.4555 L 31.9867,-2.0525 L 31.9867,-1.6495 L 31.9868,-1.2465 L 31.9869,-0.8435 L 31.987,-0.4405 L 31.9871,-0.0375 L 31.9872,0.3656 L 31.9874,0.7686 L 31.9875,1.1716 L 31.9877,1.5746 L 31.9879,1.9776 L 31.9882,2.3806 L 31.9884,2.7837 L 31.9887,3.1867 L 31.989,3.5897 L 31.9893,3.9927 L 31.9896,4.3957 L 31.99,4.7987 L 31.9904,5.2017 L 31.9908,5.6048 L 31.9912,6.0078 L 31.9917,6.4108 L 31.9922,6.8138 L 31.9928,7.2168 L 31.9934,7.6198 L 31.994,8.0229 L 31.9947,8.4259 L 31.9955,8.8289 L 31.9963,9.2319 L 31.9972,9.6349 L 31.9983,10.0379 L 31.9995,10.4409 L 32.0009,10.844" />
      <path d="M 33.009,-18.1731 L 32.9951,-18.1731 L 32.9812,-18.1731 L 32.9673,-18.1731 L 32.9534,-18.1731 L 32.9395,-18.1731 L 32.9256,-18.1731 L 32.9117,-18.1731 L 32.8979,-18.1731 L 32.884,-18.1731 L 32.8701,-18.1731 L 32.8562,-18.1731 L 32.8423,-18.1731 L 32.8284,-18.1731 L 32.8145,-18.1731 L 32.8006,-18.1731 L 32.7867,-18.1731 L 32.7729,-18.1731 L 32.759,-18.1731 L 32.7451,-18.1731 L 32.7312,-18.1731 L 32.7173,-18.1731 L 32.7034,-18.1731 L 32.6895,-18.1731 L 32.6756,-18.1731 L 32.6617,-18.1731 L 32.6479,-18.1731 L 32.634,-18.1731 L 32.6201,-18.1731 L 32.6062,-18.1731 L 32.5923,-18.1731 L 32.5784,-18.1731 L 32.5645,-18.1731 L 32.5506,-18.1731 L 32.5367,-18.1731 L 32.5229,-18.1731 L 32.509,-18.1731 L 32.4951,-18.1731 L 32.4812,-18.1731 L 32.4673,-18.1731 L 32.4534,-18.1731 L 32.4395,-18.1731 L 32.4256,-18.1731 L 32.4117,-18.1731 L 32.3979,-18.1731 L 32.384,-18.1731 L 32.3701,-18.1731 L 32.3562,-18.1731 L 32.3423,-18.1731 L 32.3284,-18.1731 L 32.3145,-18.1731 L 32.3006,-18.1731 L 32.2867,-18.1731 L 32.2729,-18.1731 L 32.259,-18.1731 L 32.2451,-18.1731 L 32.2312,-18.1731 L 32.2173,-18.1731 L 32.2034,-18.1731 L 32.1895,-18.1731 L 32.1756,-18.1731 L 32.1617,-18.1731 L 32.1479,-18.1731 L 32.134,-18.1731 L 32.1201,-18.1731 L 32.1062,-18.1731 L 32.0923,-18.1731 L 32.0784,-18.1731 L 32.0645,-18.1731 L 32.0506,-18.1731 L 32.0367,-18.1731 L 32.0229,-18.1731 L 32.009,-18.1731" />
    </g>
    <g fill="none" stroke="rgb(110,110,110)" stroke-width="0.3" id="Hidden" stroke-dasharray="3.6 0.9">
      <path d="M 5.3934,10.8206 L 5.3933,10.8206 L 5.3932,10.8206 L 5.3931,10.8206 L 5.393,10.8206 L 5.3928,10.8206 L 5.3927,10.8206 L 5.3926,10.8206 L 5.3925,10.8206 L 5.3924,10.8206 L 5.3923,10.8206 L 5.3922,10.8206 L 5.392,10.8206 L 5.3919,10.8206 L 5.3918,10.8206 L 5.3917,10.8206 L 5.3916,10.8206 L 5.3915,10.8206 L 5.3914,10.8206 L 5.3912,10.8206 L 5.3911,10.8206 L 5.391,10.8206 L 5.3909,10.8206 L 5.3908,10.8206 L 5.3907,10.8206 L 5.3906,10.8206 L 5.3904,10.8206 L 5.3903,10.8206 L 5.3902,10.8206 L 5.3901,10.8206 L 5.39,10.8206 L 5.3899,10.8206 L 5.3898,10.8206 L 5.3896,10.8206 L 5.3895,10.8206 L 5.3894,10.8206 L 5.3893,10.8206 L 5.3892,10.8206 L 5.3891,10.8206 L 5.3889,10.8206 L 5.3888,10.8206 L 5.3887,10.8206 L 5.3886,10.8206 L 5.3885,10.8206 L 5.3884,10.8206 L 5.3883,10.8206 L 5.3881,10.8206 L 5.388,10.8206 L 5.3879,10.8206 L 5.3878,10.8206 L 5.3877,10.8206 L 5.3876,10.8206 L 5.3875,10.8206 L 5.3873,10.8206 L 5.3872,10.8206 L 5.3871,10.8206 L 5.387,10.8206 L 5.3869,10.8206 L 5.3868,10.8206 L 5.3867,10.8206 L 5.3865,10.8206 L 5.3864,10.8206 L 5.3863,10.8206 L 5.3862,10.8206 L 5.3861,10.8206 L 5.386,10.8206 L 5.3859,10.8206 L 5.3857,10.8206 L 5.3856,10.8206 L 5.3855,10.8206 L 5.3854,10.8206 L 5.3853,10.8206 L 5.3852,10.8206" />
      <path d="M 6.0,10.8206 L 6.0,10.8344 L 6.0,10.8483 L 6.0,10.8622 L 6.0,10.8761 L 6.0,10.89 L 6.0,10.9039 L 6.0,10.9178 L 6.0,10.9317 L 6.0,10.9456 L 6.0,10.9594 L 6.0,10.9733 L 6.0,10.9872 L 6.0,11.0011 L 6.0,11.015 L 6.0,11.0289 L 6.0,11.0428 L 6.0,11.0567 L 6.0,11.0706 L 6.0,11.0844 L 6.0,11.0983 L 6.0,11.1122 L 6.0,11.1261 L 6.0,11.14 L 6.0,11.1539 L 6.0,11.1678 L 6.0,11.1817 L 6.0,11.1956 L 6.0,11.2094 L 6.0,11.2233 L 6.0,11.2372 L 6.0,11.2511 L 6.0,11.265 L 6.0,11.2789 L 6.0,11.2928 L 6.0,11.3067 L 6.0,11.3206 L 6.0,11.3344 L 6.0,11.3483 L 6.0,11.3622 L 6.0,11.3761 L 6.0,11.39 L 6.0,11.4039 L 6.0,11.4178 L 6.0,11.4317 L 6.0,11.4455 L 6.0,11.4594 L 6.0,11.4733 L 6.0,11.4872 L 6.0,11.5011 L 6.0,11.515 L 6.0,11.5289 L 6.0,11.5428 L 6.0,11.5567 L 6.0,11.5705 L 6.0,11.5844 L 6.0,11.5983 L 6.0,11.6122 L 6.0,11.6261 L 6.0,11.64 L 6.0,11.6539 L 6.0,11.6678 L 6.0,11.6817 L 6.0,11.6955 L 6.0,11.7094 L 6.0,11.7233 L 6.0,11.7372 L 6.0,11.7511 L 6.0,11.765 L 6.0,11.7789 L 6.0,11.7928 L 6.0,11.8067 L 6.0,11.8205" />
      <path d="M 6.0,11.8205 L 5.9167,11.8205 L 5.8333,11.8205 L 5.75,11.8205 L 5.6667,11.8205 L 5.5833,11.8205 L 5.5,11.8205 L 5.4167,11.8205 L 5.3333,11.8205 L 5.25,11.8205 L 5.1667,11.8205 L 5.0833,11.8205 L 5.0,11.8205 L 4.9167,11.8205 L 4.8333,11.8205 L 4.75,11.8205 L 4.6667,11.8205 L 4.5833,11.8205 L 4.5,11.8205 L 4.4167,11.8205 L 4.3333,11.8205 L 4.25,11.8205 L 4.1667,11.8205 L 4.0833,11.8205 L 4.0,11.8205 L 3.9167,11.8205 L 3.8333,11.8205 L 3.75,11.8205 L 3.6667,11.8205 L 3.5833,11.8205 L 3.5,11.8205 L 3.4167,11.8205 L 3.3333,11.8205 L 3.25,11.8205 L 3.1667,11.8205 L 3.0833,11.8205 L 3.0,11.8205 L 2.9167,11.8205 L 2.8333,11.8205 L 2.75,11.8205 L 2.6667,11.8205 L 2.5833,11.8205 L 2.5,11.8205 L 2.4167,11.8205 L 2.3333,11.8205 L 2.25,11.8205 L 2.1667,11.8205 L 2.0833,11.8205 L 2.0,11.8205 L 1.9167,11.8205 L 1.8333,11.8205 L 1.75,11.8205 L 1.6667,11.8205 L 1.5833,11.8205 L 1.5,11.8205 L 1.4167,11.8205 L 1.3333,11.8205 L 1.25,11.8205 L 1.1667,11.8205 L 1.0833,11.8205 L 1.0,11.8205 L 0.9167,11.8205 L 0.8333,11.8205 L 0.75,11.8205 L 0.6667,11.8205 L 0.5833,11.8205 L 0.5,11.8205 L 0.4167,11.8205 L 0.3333,11.8205 L 0.25,11.8205 L 0.1667,11.8205 L 0.0833,11.8205 L 0.0,11.8205" />
      <path d="M 0.0,11.8205 L -0.0833,11.8205 L -0.1667,11.8205 L -0.25,11.8205 L -0.3333,11.8205 L -0.4167,11.8205 L -0.5,11.8205 L -0.5833,11.8205 L -0.6667,11.8205 L -0.75,11.8205 L -0.8333,11.8205 L -0.9167,11.8205 L -1.0,11.8205 L -1.0833,11.8205 L -1.1667,11.8205 L -1.25,11.8205 L -1.3333,11.8205 L -1.4167,11.8205 L -1.5,11.8205 L -1.5833,11.8205 L -1.6667,11.8205 L -1.75,11.8205 L -1.8333,11.8205 L -1.9167,11.8205 L -2.0,11.8205 L -2.0833,11.8205 L -2.1667,11.8205 L -2.25,11.8205 L -2.3333,11.8205 L -2.4167,11.8205 L -2.5,11.8205 L -2.5833,11.8205 L -2.6667,11.8205 L -2.75,11.8205 L -2.8333,11.8205 L -2.9167,11.8205 L -3.0,11.8205 L -3.0833,11.8205 L -3.1667,11.8205 L -3.25,11.8205 L -3.3333,11.8205 L -3.4167,11.8205 L -3.5,11.8205 L -3.5833,11.8205 L -3.6667,11.8205 L -3.75,11.8205 L -3.8333,11.8205 L -3.9167,11.8205 L -4.0,11.8205 L -4.0833,11.8205 L -4.1667,11.8205 L -4.25,11.8205 L -4.3333,11.8205 L -4.4167,11.8205 L -4.5,11.8205 L -4.5833,11.8205 L -4.6667,11.8205 L -4.75,11.8205 L -4.8333,11.8205 L -4.9167,11.8205 L -5.0,11.8205 L -5.0833,11.8205 L -5.1667,11.8205 L -5.25,11.8205 L -5.3333,11.8205 L -5.4167,11.8205 L -5.5,11.8205 L -5.5833,11.8205 L -5.6667,11.8205 L -5.75,11.8205 L -5.8333,11.8205 L -5.9167,11.8205 L -6.0,11.8205" />
      <path d="M -6.0,10.8206 L -6.0,10.8344 L -6.0,10.8483 L -6.0,10.8622 L -6.0,10.8761 L -6.0,10.89 L -6.0,10.9039 L -6.0,10.9178 L -6.0,10.9317 L -6.0,10.9456 L -6.0,10.9594 L -6.0,10.9733 L -6.0,10.9872 L -6.0,11.0011 L -6.0,11.015 L -6.0,11.0289 L -6.0,11.0428 L -6.0,11.0567 L -6.0,11.0706 L -6.0,11.0844 L -6.0,11.0983 L -6.0,11.1122 L -6.0,11.1261 L -6.0,11.14 L -6.0,11.1539 L -6.0,11.1678 L -6.0,11.1817 L -6.0,11.1956 L -6.0,11.2094 L -6.0,11.2233 L -6.0,11.2372 L -6.0,11.2511 L -6.0,11.265 L -6.0,11.2789 L -6.0,11.2928 L -6.0,11.3067 L -6.0,11.3206 L -6.0,11.3344 L -6.0,11.3483 L -6.0,11.3622 L -6.0,11.3761 L -6.0,11.39 L -6.0,11.4039 L -6.0,11.4178 L -6.0,11.4317 L -6.0,11.4455 L -6.0,11.4594 L -6.0,11.4733 L -6.0,11.4872 L -6.0,11.5011 L -6.0,11.515 L -6.0,11.5289 L -6.0,11.5428 L -6.0,11.5567 L -6.0,11.5705 L -6.0,11.5844 L -6.0,11.5983 L -6.0,11.6122 L -6.0,11.6261 L -6.0,11.64 L -6.0,11.6539 L -6.0,11.6678 L -6.0,11.6817 L -6.0,11.6955 L -6.0,11.7094 L -6.0,11.7233 L -6.0,11.7372 L -6.0,11.7511 L -6.0,11.765 L -6.0,11.7789 L -6.0,11.7928 L -6.0,11.8067 L -6.0,11.8205" />
      <path d="M -5.3852,10.8206 L -5.3853,10.8206 L -5.3854,10.8206 L -5.3855,10.8206 L -5.3856,10.8206 L -5.3857,10.8206 L -5.3859,10.8206 L -5.386,10.8206 L -5.3861,10.8206 L -5.3862,10.8206 L -5.3863,10.8206 L -5.3864,10.8206 L -5.3865,10.8206 L -5.3867,10.8206 L -5.3868,10.8206 L -5.3869,10.8206 L -5.387,10.8206 L -5.3871,10.8206 L -5.3872,10.8206 L -5.3873,10.8206 L -5.3875,10.8206 L -5.3876,10.8206 L -5.3877,10.8206 L -5.3878,10.8206 L -5.3879,10.8206 L -5.388,10.8206 L -5.3881,10.8206 L -5.3883,10.8206 L -5.3884,10.8206 L -5.3885,10.8206 L -5.3886,10.8206 L -5.3887,10.8206 L -5.3888,10.8206 L -5.3889,10.8206 L -5.3891,10.8206 L -5.3892,10.8206 L -5.3893,10.8206 L -5.3894,10.8206 L -5.3895,10.8206 L -5.3896,10.8206 L -5.3898,10.8206 L -5.3899,10.8206 L -5.39,10.8206 L -5.3901,10.8206 L -5.3902,10.8206 L -5.3903,10.8206 L -5.3904,10.8206 L -5.3906,10.8206 L -5.3907,10.8206 L -5.3908,10.8206 L -5.3909,10.8206 L -5.391,10.8206 L -5.3911,10.8206 L -5.3912,10.8206 L -5.3914,10.8206 L -5.3915,10.8206 L -5.3916,10.8206 L -5.3917,10.8206 L -5.3918,10.8206 L -5.3919,10.8206 L -5.392,10.8206 L -5.3922,10.8206 L -5.3923,10.8206 L -5.3924,10.8206 L -5.3925,10.8206 L -5.3926,10.8206 L -5.3927,10.8206 L -5.3928,10.8206 L -5.393,10.8206 L -5.3931,10.8206 L -5.3932,10.8206 L -5.3933,10.8206 L -5.3934,10.8206" />
      <path d="M -5.3852,10.8206 L -5.6184,10.7286 L -5.8501,10.6327 L -6.0802,10.533 L -6.3086,10.4295 L -6.5352,10.3221 L -6.7599,10.211 L -6.9828,10.0961 L -7.2038,9.9775 L -7.4227,9.8553 L -7.6395,9.7294 L -7.8542,9.5999 L -8.0667,9.4668 L -8.277,9.3302 L -8.485,9.1901 L -8.6905,9.0465 L -8.8937,8.8996 L -9.0944,8.7492 L -9.2925,8.5955 L -9.488,8.4385 L -9.6809,8.2783 L -9.8711,8.1149 L -10.0585,7.9483 L -10.2431,7.7786 L -10.4248,7.6059 L -10.6037,7.4301 L -10.7795,7.2514 L -10.9524,7.0697 L -11.1222,6.8852 L -11.2888,6.6979 L -11.4524,6.5078 L -11.6127,6.3151 L -11.7698,6.1196 L -11.9236,5.9216 L -12.074,5.721 L -12.2211,5.5179 L -12.3648,5.3124 L -12.505,5.1046 L -12.6418,4.8944 L -12.775,4.6819 L -12.9046,4.4673 L -13.0306,4.2505 L -13.153,4.0317 L -13.2717,3.8108 L -13.3867,3.588 L -13.4979,3.3633 L -13.6054,3.1367 L -13.7091,2.9084 L -13.8089,2.6784 L -13.9049,2.4468 L -13.997,2.2135 L -14.0852,1.9788 L -14.1695,1.7427 L -14.2497,1.5051 L -14.3261,1.2663 L -14.3984,1.0262 L -14.4667,0.7849 L -14.5309,0.5425 L -14.5911,0.2991 L -14.6472,0.0547 L -14.6992,-0.1906 L -14.7471,-0.4367 L -14.7909,-0.6836 L -14.8306,-0.9312 L -14.8661,-1.1794 L -14.8974,-1.4282 L -14.9246,-1.6774 L -14.9476,-1.9271 L -14.9665,-2.1771 L -14.9811,-2.4275 L -14.9916,-2.678 L -14.9979,-2.9286 L -15.0,-3.1794" />
      <path d="M 15.0,-3.1794 L 14.9979,-2.9286 L 14.9916,-2.678 L 14.9811,-2.4275 L 14.9665,-2.1771 L 14.9476,-1.9271 L 14.9246,-1.6774 L 14.8974,-1.4282 L 14.8661,-1.1794 L 14.8306,-0.9312 L 14.7909,-0.6836 L 14.7471,-0.4367 L 14.6992,-0.1906 L 14.6472,0.0547 L 14.5911,0.2991 L 14.5309,0.5425 L 14.4667,0.7849 L 14.3984,1.0262 L 14.3261,1.2663 L 14.2497,1.5051 L 14.1695,1.7427 L 14.0852,1.9788 L 13.997,2.2135 L 13.9049,2.4468 L 13.8089,2.6784 L 13.7091,2.9084 L 13.6054,3.1367 L 13.4979,3.3633 L 13.3867,3.588 L 13.2717,3.8108 L 13.153,4.0317 L 13.0306,4.2505 L 12.9046,4.4673 L 12.775,4.6819 L 12.6418,4.8944 L 12.505,5.1046 L 12.3648,5.3124 L 12.2211,5.5179 L 12.074,5.721 L 11.9236,5.9216 L 11.7698,6.1196 L 11.6127,6.3151 L 11.4524,6.5078 L 11.2888,6.6979 L 11.1222,6.8852 L 10.9524,7.0697 L 10.7795,7.2514 L 10.6037,7.4301 L 10.4248,7.6059 L 10.2431,7.7786 L 10.0585,7.9483 L 9.8711,8.1149 L 9.6809,8.2783 L 9.488,8.4385 L 9.2925,8.5955 L 9.0944,8.7492 L 8.8937,8.8996 L 8.6905,9.0465 L 8.485,9.1901 L 8.277,9.3302 L 8.0667,9.4668 L 7.8542,9.5999 L 7.6395,9.7294 L 7.4227,9.8553 L 7.2038,9.9775 L 6.9828,10.0961 L 6.7599,10.211 L 6.5352,10.3221 L 6.3086,10.4295 L 6.0802,10.533 L 5.8501,10.6327 L 5.6184,10.7286 L 5.3852,10.8206" />
      <path d="M -6.5,-3.1778 L -6.5,-3.1779 L -6.5,-3.178 L -6.5,-3.1781 L -6.5,-3.1782 L -6.5,-3.1783 L -6.5,-3.1784 L -6.5,-3.1785 L -6.5,-3.1786 L -6.5,-3.1787 L -6.5,-3.1788 L -6.5,-3.1789 L -6.5,-3.179 L -6.5,-3.1791 L -6.5,-3.1792 L -6.5,-3.1793 L -6.5,-3.1794" />
      <path d="M -6.5,-3.1794 L -6.4938,-3.4629 L -6.4753,-3.7459 L -6.4444,-4.0278 L -6.4012,-4.3081 L -6.3459,-4.5862 L -6.2785,-4.8617 L -6.1992,-5.134 L -6.108,-5.4025 L -6.0052,-5.6668 L -5.891,-5.9264 L -5.7656,-6.1807 L -5.6292,-6.4294 L -5.482,-6.6718 L -5.3245,-6.9076 L -5.1568,-7.1363 L -4.9793,-7.3575 L -4.7923,-7.5707 L -4.5962,-7.7756 L -4.3913,-7.9717 L -4.1781,-8.1586 L -3.9569,-8.3362 L -3.7282,-8.5038 L -3.4924,-8.6614 L -3.25,-8.8085 L -3.0014,-8.9449 L -2.747,-9.0704 L -2.4874,-9.1846 L -2.2231,-9.2873 L -1.9546,-9.3785 L -1.6823,-9.4579 L -1.4069,-9.5253 L -1.1287,-9.5806 L -0.8484,-9.6237 L -0.5665,-9.6546 L -0.2835,-9.6732 L -0.0,-9.6793 L 0.2835,-9.6732 L 0.5665,-9.6546 L 0.8484,-9.6237 L 1.1287,-9.5806 L 1.4069,-9.5253 L 1.6823,-9.4579 L 1.9546,-9.3785 L 2.2231,-9.2873 L 2.4874,-9.1846 L 2.747,-9.0704 L 3.0014,-8.9449 L 3.25,-8.8085 L 3.4924,-8.6614 L 3.7282,-8.5038 L 3.9569,-8.3362 L 4.1781,-8.1586 L 4.3913,-7.9717 L 4.5962,-7.7756 L 4.7923,-7.5707 L 4.9793,-7.3575 L 5.1568,-7.1363 L 5.3245,-6.9076 L 5.482,-6.6718 L 5.6292,-6.4294 L 5.7656,-6.1807 L 5.891,-5.9264 L 6.0052,-5.6668 L 6.108,-5.4025 L 6.1992,-5.134 L 6.2785,-4.8617 L 6.3459,-4.5862 L 6.4012,-4.3081 L 6.4444,-4.0278 L 6.4753,-3.7459 L 6.4938,-3.4629 L 6.5,-3.1794" />
      <path d="M 6.5,-3.1794 L 6.5,-3.1793 L 6.5,-3.1792 L 6.5,-3.1791 L 6.5,-3.179 L 6.5,-3.1789 L 6.5,-3.1788 L 6.5,-3.1787 L 6.5,-3.1786 L 6.5,-3.1785 L 6.5,-3.1784 L 6.5,-3.1783 L 6.5,-3.1782 L 6.5,-3.1781 L 6.5,-3.178 L 6.5,-3.1779 L 6.5,-3.1778" />
      <path d="M -5.3852,10.8206 L -5.3852,10.8207 L -5.3852,10.8208 L -5.3852,10.8209 L -5.3852,10.821 L -5.3852,10.8211 L -5.3852,10.8212 L -5.3852,10.8213 L -5.3852,10.8214 L -5.3852,10.8215 L -5.3852,10.8216 L -5.3852,10.8217 L -5.3852,10.8218 L -5.3852,10.8219 L -5.3852,10.822 L -5.3852,10.8221 L -5.3852,10.8222 L -5.3852,10.8223 L -5.3852,10.8224 L -5.3852,10.8225 L -5.3852,10.8226 L -5.3852,10.8227 L -5.3852,10.8228 L -5.3852,10.8229 L -5.3852,10.823 L -5.3852,10.8231 L -5.3852,10.8232 L -5.3852,10.8233 L -5.3852,10.8234 L -5.3852,10.8235 L -5.3852,10.8236 L -5.3852,10.8237" />
      <path d="M 5.3852,10.8206 L 5.3852,10.8207 L 5.3852,10.8208 L 5.3852,10.8209 L 5.3852,10.821 L 5.3852,10.8211 L 5.3852,10.8212 L 5.3852,10.8213 L 5.3852,10.8214 L 5.3852,10.8215 L 5.3852,10.8216 L 5.3852,10.8217 L 5.3852,10.8218 L 5.3852,10.8219 L 5.3852,10.822 L 5.3852,10.8221 L 5.3852,10.8222 L 5.3852,10.8223 L 5.3852,10.8224 L 5.3852,10.8225 L 5.3852,10.8226 L 5.3852,10.8227 L 5.3852,10.8228 L 5.3852,10.8229 L 5.3852,10.823 L 5.3852,10.8231 L 5.3852,10.8232 L 5.3852,10.8233 L 5.3852,10.8234 L 5.3852,10.8235 L 5.3852,10.8236 L 5.3852,10.8237" />
      <path d="M 6.0,11.8205 L 6.0,11.8212 L 6.0,11.8218 L 6.0,11.8224 L 6.0,11.823 L 6.0,11.8236 L 6.0,11.8243 L 6.0,11.8249 L 6.0,11.8255 L 6.0,11.8261 L 6.0,11.8267 L 6.0,11.8273 L 6.0,11.828 L 6.0,11.8286 L 6.0,11.8292 L 6.0,11.8298 L 6.0,11.8304 L 6.0,11.8311 L 6.0,11.8317 L 6.0,11.8323 L 6.0,11.8329 L 6.0,11.8335 L 6.0,11.8341 L 6.0,11.8348 L 6.0,11.8354 L 6.0,11.836 L 6.0,11.8366 L 6.0,11.8372 L 6.0,11.8378 L 6.0,11.8385 L 6.0,11.8391 L 6.0,11.8397 L 6.0,11.8403 L 6.0,11.8409 L 6.0,11.8416 L 6.0,11.8422 L 6.0,11.8428 L 6.0,11.8434 L 6.0,11.844 L 6.0,11.8446 L 6.0,11.8453 L 6.0,11.8459 L 6.0,11.8465 L 6.0,11.8471 L 6.0,11.8477 L 6.0,11.8484 L 6.0,11.849 L 6.0,11.8496 L 6.0,11.8502 L 6.0,11.8508 L 6.0,11.8514 L 6.0,11.8521 L 6.0,11.8527 L 6.0,11.8533 L 6.0,11.8539 L 6.0,11.8545 L 6.0,11.8552 L 6.0,11.8558 L 6.0,11.8564 L 6.0,11.857 L 6.0,11.8576 L 6.0,11.8582 L 6.0,11.8589 L 6.0,11.8595 L 6.0,11.8601 L 6.0,11.8607 L 6.0,11.8613 L 6.0,11.8619 L 6.0,11.8626 L 6.0,11.8632 L 6.0,11.8638 L 6.0,11.8644 L 6.0,11.865" />
      <path d="M -6.0,11.8205 L -6.0,11.8212 L -6.0,11.8218 L -6.0,11.8224 L -6.0,11.823 L -6.0,11.8236 L -6.0,11.8243 L -6.0,11.8249 L -6.0,11.8255 L -6.0,11.8261 L -6.0,11.8267 L -6.0,11.8273 L -6.0,11.828 L -6.0,11.8286 L -6.0,11.8292 L -6.0,11.8298 L -6.0,11.8304 L -6.0,11.8311 L -6.0,11.8317 L -6.0,11.8323 L -6.0,11.8329 L -6.0,11.8335 L -6.0,11.8341 L -6.0,11.8348 L -6.0,11.8354 L -6.0,11.836 L -6.0,11.8366 L -6.0,11.8372 L -6.0,11.8378 L -6.0,11.8385 L -6.0,11.8391 L -6.0,11.8397 L -6.0,11.8403 L -6.0,11.8409 L -6.0,11.8416 L -6.0,11.8422 L -6.0,11.8428 L -6.0,11.8434 L -6.0,11.844 L -6.0,11.8446 L -6.0,11.8453 L -6.0,11.8459 L -6.0,11.8465 L -6.0,11.8471 L -6.0,11.8477 L -6.0,11.8484 L -6.0,11.849 L -6.0,11.8496 L -6.0,11.8502 L -6.0,11.8508 L -6.0,11.8514 L -6.0,11.8521 L -6.0,11.8527 L -6.0,11.8533 L -6.0,11.8539 L -6.0,11.8545 L -6.0,11.8552 L -6.0,11.8558 L -6.0,11.8564 L -6.0,11.857 L -6.0,11.8576 L -6.0,11.8582 L -6.0,11.8589 L -6.0,11.8595 L -6.0,11.8601 L -6.0,11.8607 L -6.0,11.8613 L -6.0,11.8619 L -6.0,11.8626 L -6.0,11.8632 L -6.0,11.8638 L -6.0,11.8644 L -6.0,11.865" />
      <path d="M 0.0,11.8205 L 0.0,11.8206 L 0.0,11.8207 L 0.0,11.8208 L 0.0,11.8209 L 0.0,11.821 L 0.0,11.8211 L 0.0,11.8212 L 0.0,11.8213 L 0.0,11.8214 L 0.0,11.8215 L 0.0,11.8216 L 0.0,11.8217 L 0.0,11.8218 L 0.0,11.8219 L 0.0,11.822 L 0.0,11.8221 L 0.0,11.8222 L 0.0,11.8223 L 0.0,11.8224 L 0.0,11.8225 L 0.0,11.8226 L 0.0,11.8227 L 0.0,11.8228 L 0.0,11.8229 L 0.0,11.823 L 0.0,11.8231 L 0.0,11.8232 L 0.0,11.8233 L 0.0,11.8234 L 0.0,11.8235 L 0.0,11.8236 L 0.0,11.8237" />
      <path d="M 6.5,-3.1794 L 6.5,-3.1793 L 6.5,-3.1792 L 6.5,-3.1791 L 6.5,-3.179 L 6.5,-3.1789 L 6.5,-3.1788 L 6.5,-3.1787 L 6.5,-3.1786 L 6.5,-3.1785 L 6.5,-3.1784 L 6.5,-3.1783 L 6.5,-3.1782 L 6.5,-3.1781 L 6.5,-3.178 L 6.5,-3.1779 L 6.5,-3.1778 L 6.5,-3.1777 L 6.5,-3.1776 L 6.5,-3.1775 L 6.5,-3.1774 L 6.5,-3.1773 L 6.5,-3.1772 L 6.5,-3.1771 L 6.5,-3.177 L 6.5,-3.1769 L 6.5,-3.1768 L 6.5,-3.1767 L 6.5,-3.1766 L 6.5,-3.1765 L 6.5,-3.1764 L 6.5,-3.1763 L 6.5,-3.1762" />
      <path d="M -6.5,-3.1794 L -6.5,-3.1793 L -6.5,-3.1792 L -6.5,-3.1791 L -6.5,-3.179 L -6.5,-3.1789 L -6.5,-3.1788 L -6.5,-3.1787 L -6.5,-3.1786 L -6.5,-3.1785 L -6.5,-3.1784 L -6.5,-3.1783 L -6.5,-3.1782 L -6.5,-3.1781 L -6.5,-3.178 L -6.5,-3.1779 L -6.5,-3.1778 L -6.5,-3.1777 L -6.5,-3.1776 L -6.5,-3.1775 L -6.5,-3.1774 L -6.5,-3.1773 L -6.5,-3.1772 L -6.5,-3.1771 L -6.5,-3.177 L -6.5,-3.1769 L -6.5,-3.1768 L -6.5,-3.1767 L -6.5,-3.1766 L -6.5,-3.1765 L -6.5,-3.1764 L -6.5,-3.1763 L -6.5,-3.1762" />
      <path d="M 33.0169,10.8078 L 33.0028,10.8078 L 32.9887,10.8078 L 32.9746,10.8078 L 32.9605,10.8078 L 32.9463,10.8078 L 32.9322,10.8078 L 32.9181,10.8078 L 32.904,10.8078 L 32.8899,10.8078 L 32.8758,10.8078 L 32.8617,10.8078 L 32.8476,10.8078 L 32.8334,10.8078 L 32.8193,10.8078 L 32.8052,10.8078 L 32.7911,10.8078 L 32.777,10.8078 L 32.7629,10.8078 L 32.7488,10.8078 L 32.7346,10.8078 L 32.7205,10.8078 L 32.7064,10.8078 L 32.6923,10.8078 L 32.6782,10.8078 L 32.6641,10.8078 L 32.65,10.8078 L 32.6359,10.8078 L 32.6217,10.8078 L 32.6076,10.8078 L 32.5935,10.8078 L 32.5794,10.8078 L 32.5653,10.8078 L 32.5512,10.8078 L 32.5371,10.8078 L 32.5229,10.8078 L 32.5088,10.8078 L 32.4947,10.8078 L 32.4806,10.8078 L 32.4665,10.8078 L 32.4524,10.8078 L 32.4383,10.8078 L 32.4242,10.8078 L 32.41,10.8078 L 32.3959,10.8078 L 32.3818,10.8078 L 32.3677,10.8078 L 32.3536,10.8078 L 32.3395,10.8078 L 32.3254,10.8078 L 32.3113,10.8078 L 32.2971,10.8078 L 32.283,10.8078 L 32.2689,10.8078 L 32.2548,10.8078 L 32.2407,10.8078 L 32.2266,10.8078 L 32.2125,10.8078 L 32.1983,10.8078 L 32.1842,10.8078 L 32.1701,10.8078 L 32.156,10.8078 L 32.1419,10.8078 L 32.1278,10.8078 L 32.1137,10.8078 L 32.0996,10.8078 L 32.0854,10.8078 L 32.0713,10.8078 L 32.0572,10.8078 L 32.0431,10.8078 L 32.029,10.8078 L 32.0149,10.8078 L 32.0008,10.8078" />
      <path d="M 33.0169,10.8098 L 33.003,10.8098 L 32.9891,10.8098 L 32.9752,10.8098 L 32.9613,10.8098 L 32.9475,10.8098 L 32.9336,10.8098 L 32.9197,10.8098 L 32.9058,10.8098 L 32.8919,10.8098 L 32.878,10.8098 L 32.8641,10.8098 L 32.8502,10.8098 L 32.8363,10.8098 L 32.8225,10.8098 L 32.8086,10.8098 L 32.7947,10.8098 L 32.7808,10.8098 L 32.7669,10.8098 L 32.753,10.8098 L 32.7391,10.8098 L 32.7252,10.8098 L 32.7113,10.8098 L 32.6975,10.8098 L 32.6836,10.8098 L 32.6697,10.8098 L 32.6558,10.8098 L 32.6419,10.8098 L 32.628,10.8098 L 32.6141,10.8098 L 32.6002,10.8098 L 32.5863,10.8098 L 32.5725,10.8098 L 32.5586,10.8098 L 32.5447,10.8098 L 32.5308,10.8098 L 32.5169,10.8098 L 32.503,10.8098 L 32.4891,10.8098 L 32.4752,10.8098 L 32.4613,10.8098 L 32.4475,10.8098 L 32.4336,10.8098 L 32.4197,10.8098 L 32.4058,10.8098 L 32.3919,10.8098 L 32.378,10.8098 L 32.3641,10.8098 L 32.3502,10.8098 L 32.3363,10.8098 L 32.3225,10.8098 L 32.3086,10.8098 L 32.2947,10.8098 L 32.2808,10.8098 L 32.2669,10.8098 L 32.253,10.8098 L 32.2391,10.8098 L 32.2252,10.8098 L 32.2113,10.8098 L 32.1975,10.8098 L 32.1836,10.8098 L 32.1697,10.8098 L 32.1558,10.8098 L 32.1419,10.8098 L 32.128,10.8098 L 32.1141,10.8098 L 32.1002,10.8098 L 32.0863,10.8098 L 32.0725,10.8098 L 32.0586,10.8098 L 32.0447,10.8098 L 32.0308,10.8098 L 32.0169,10.8098" />
      <path d="M 32.0009,10.844 L 32.0011,10.8435 L 32.0013,10.843 L 32.0016,10.8425 L 32.0018,10.8421 L 32.002,10.8416 L 32.0022,10.8411 L 32.0025,10.8406 L 32.0027,10.8402 L 32.0029,10.8397 L 32.0031,10.8392 L 32.0033,10.8387 L 32.0036,10.8383 L 32.0038,10.8378 L 32.004,10.8373 L 32.0042,10.8368 L 32.0045,10.8364 L 32.0047,10.8359 L 32.0049,10.8354 L 32.0051,10.8349 L 32.0053,10.8345 L 32.0056,10.834 L 32.0058,10.8335 L 32.006,10.833 L 32.0062,10.8326 L 32.0065,10.8321 L 32.0067,10.8316 L 32.0069,10.8311 L 32.0071,10.8307 L 32.0073,10.8302 L 32.0076,10.8297 L 32.0078,10.8292 L 32.008,10.8288 L 32.0082,10.8283 L 32.0085,10.8278 L 32.0087,10.8273 L 32.0089,10.8269 L 32.0091,10.8264 L 32.0093,10.8259 L 32.0096,10.8254 L 32.0098,10.825 L 32.01,10.8245 L 32.0102,10.824 L 32.0105,10.8235 L 32.0107,10.8231 L 32.0109,10.8226 L 32.0111,10.8221 L 32.0113,10.8216 L 32.0116,10.8212 L 32.0118,10.8207 L 32.012,10.8202 L 32.0122,10.8197 L 32.0125,10.8193 L 32.0127,10.8188 L 32.0129,10.8183 L 32.0131,10.8179 L 32.0133,10.8174 L 32.0136,10.8169 L 32.0138,10.8164 L 32.014,10.816 L 32.0142,10.8155 L 32.0145,10.815 L 32.0147,10.8145 L 32.0149,10.8141 L 32.0151,10.8136 L 32.0153,10.8131 L 32.0156,10.8126 L 32.0158,10.8122 L 32.016,10.8117 L 32.0162,10.8112 L 32.0165,10.8107 L 32.0167,10.8103 L 32.0169,10.8098" />
      <path d="M 19.0,11.8458 L 19.0002,11.8453 L 19.0005,11.8448 L 19.0007,11.8443 L 19.001,11.8437 L 19.0012,11.8432 L 19.0015,11.8427 L 19.0017,11.8421 L 19.002,11.8416 L 19.0022,11.8411 L 19.0025,11.8406 L 19.0027,11.84 L 19.003,11.8395 L 19.0032,11.839 L 19.0035,11.8384 L 19.0037,11.8379 L 19.004,11.8374 L 19.0042,11.8369 L 19.0045,11.8363 L 19.0047,11.8358 L 19.005,11.8353 L 19.0052,11.8347 L 19.0054,11.8342 L 19.0057,11.8337 L 19.0059,11.8331 L 19.0062,11.8326 L 19.0064,11.8321 L 19.0067,11.8316 L 19.0069,11.831 L 19.0072,11.8305 L 19.0074,11.83 L 19.0077,11.8294 L 19.0079,11.8289 L 19.0082,11.8284 L 19.0084,11.8279 L 19.0087,11.8273 L 19.0089,11.8268 L 19.0092,11.8263 L 19.0094,11.8257 L 19.0097,11.8252 L 19.0099,11.8247 L 19.0102,11.8242 L 19.0104,11.8236 L 19.0106,11.8231 L 19.0109,11.8226 L 19.0111,11.822 L 19.0114,11.8215 L 19.0116,11.821 L 19.0119,11.8205 L 19.0121,11.8199 L 19.0124,11.8194 L 19.0126,11.8189 L 19.0129,11.8183 L 19.0131,11.8178 L 19.0134,11.8173 L 19.0136,11.8168 L 19.0139,11.8162 L 19.0141,11.8157 L 19.0144,11.8152 L 19.0146,11.8146 L 19.0149,11.8141 L 19.0151,11.8136 L 19.0154,11.8131 L 19.0156,11.8125 L 19.0158,11.812 L 19.0161,11.8115 L 19.0163,11.8109 L 19.0166,11.8104 L 19.0168,11.8099 L 19.0171,11.8094 L 19.0173,11.8088 L 19.0176,11.8083 L 19.0178,11.8078" />
      <path d="M 33.0178,11.8078 L 32.8234,11.8078 L 32.6289,11.8078 L 32.4345,11.8078 L 32.24,11.8078 L 32.0456,11.8078 L 31.8512,11.8078 L 31.6567,11.8078 L 31.4623,11.8078 L 31.2678,11.8078 L 31.0734,11.8078 L 30.8789,11.8078 L 30.6845,11.8078 L 30.49,11.8078 L 30.2956,11.8078 L 30.1012,11.8078 L 29.9067,11.8078 L 29.7123,11.8078 L 29.5178,11.8078 L 29.3234,11.8078 L 29.1289,11.8078 L 28.9345,11.8078 L 28.74,11.8078 L 28.5456,11.8078 L 28.3512,11.8078 L 28.1567,11.8078 L 27.9623,11.8078 L 27.7678,11.8078 L 27.5734,11.8078 L 27.3789,11.8078 L 27.1845,11.8078 L 26.99,11.8078 L 26.7956,11.8078 L 26.6012,11.8078 L 26.4067,11.8078 L 26.2123,11.8078 L 26.0178,11.8078 L 25.8234,11.8078 L 25.6289,11.8078 L 25.4345,11.8078 L 25.24,11.8078 L 25.0456,11.8078 L 24.8512,11.8078 L 24.6567,11.8078 L 24.4623,11.8078 L 24.2678,11.8078 L 24.0734,11.8078 L 23.8789,11.8078 L 23.6845,11.8078 L 23.49,11.8078 L 23.2956,11.8078 L 23.1012,11.8078 L 22.9067,11.8078 L 22.7123,11.8078 L 22.5178,11.8078 L 22.3234,11.8078 L 22.1289,11.8078 L 21.9345,11.8078 L 21.7401,11.8078 L 21.5456,11.8078 L 21.3512,11.8078 L 21.1567,11.8078 L 20.9623,11.8078 L 20.7678,11.8078 L 20.5734,11.8078 L 20.3789,11.8078 L 20.1845,11.8078 L 19.9901,11.8078 L 19.7956,11.8078 L 19.6012,11.8078 L 19.4067,11.8078 L 19.2123,11.8078 L 19.0178,11.8078" />
      <path d="M 33.0089,11.8269 L 32.995,11.8269 L 32.9811,11.8269 L 32.9672,11.8269 L 32.9533,11.8269 L 32.9395,11.8269 L 32.9256,11.8269 L 32.9117,11.8269 L 32.8978,11.8269 L 32.8839,11.8269 L 32.87,11.8269 L 32.8561,11.8269 L 32.8422,11.8269 L 32.8283,11.8269 L 32.8145,11.8269 L 32.8006,11.8269 L 32.7867,11.8269 L 32.7728,11.8269 L 32.7589,11.8269 L 32.745,11.8269 L 32.7311,11.8269 L 32.7172,11.8269 L 32.7033,11.8269 L 32.6895,11.8269 L 32.6756,11.8269 L 32.6617,11.8269 L 32.6478,11.8269 L 32.6339,11.8269 L 32.62,11.8269 L 32.6061,11.8269 L 32.5922,11.8269 L 32.5783,11.8269 L 32.5645,11.8269 L 32.5506,11.8269 L 32.5367,11.8269 L 32.5228,11.8269 L 32.5089,11.8269 L 32.495,11.8269 L 32.4811,11.8269 L 32.4672,11.8269 L 32.4533,11.8269 L 32.4395,11.8269 L 32.4256,11.8269 L 32.4117,11.8269 L 32.3978,11.8269 L 32.3839,11.8269 L 32.37,11.8269 L 32.3561,11.8269 L 32.3422,11.8269 L 32.3283,11.8269 L 32.3145,11.8269 L 32.3006,11.8269 L 32.2867,11.8269 L 32.2728,11.8269 L 32.2589,11.8269 L 32.245,11.8269 L 32.2311,11.8269 L 32.2172,11.8269 L 32.2033,11.8269 L 32.1895,11.8269 L 32.1756,11.8269 L 32.1617,11.8269 L 32.1478,11.8269 L 32.1339,11.8269 L 32.12,11.8269 L 32.1061,11.8269 L 32.0922,11.8269 L 32.0783,11.8269 L 32.0645,11.8269 L 32.0506,11.8269 L 32.0367,11.8269 L 32.0228,11.8269 L 32.0089,11.8269" />
      <path d="M 32.0169,10.8098 L 32.0183,10.4072 L 32.0195,10.0047 L 32.0205,9.6022 L 32.0214,9.1996 L 32.0223,8.7971 L 32.023,8.3945 L 32.0237,7.992 L 32.0244,7.5895 L 32.025,7.1869 L 32.0255,6.7844 L 32.026,6.3818 L 32.0265,5.9793 L 32.027,5.5768 L 32.0274,5.1742 L 32.0278,4.7717 L 32.0281,4.3691 L 32.0285,3.9666 L 32.0288,3.5641 L 32.0291,3.1615 L 32.0293,2.759 L 32.0296,2.3564 L 32.0298,1.9539 L 32.03,1.5514 L 32.0302,1.1488 L 32.0304,0.7463 L 32.0306,0.3437 L 32.0307,-0.0588 L 32.0308,-0.4613 L 32.0309,-0.8639 L 32.031,-1.2664 L 32.0311,-1.669 L 32.0311,-2.0715 L 32.0312,-2.474 L 32.0312,-2.8766 L 32.0312,-3.2791 L 32.0312,-3.6817 L 32.0312,-4.0842 L 32.0311,-4.4868 L 32.0311,-4.8893 L 32.031,-5.2918 L 32.0309,-5.6944 L 32.0308,-6.0969 L 32.0307,-6.4995 L 32.0305,-6.902 L 32.0303,-7.3045 L 32.0302,-7.7071 L 32.03,-8.1096 L 32.0298,-8.5122 L 32.0295,-8.9147 L 32.0293,-9.3172 L 32.029,-9.7198 L 32.0287,-10.1223 L 32.0284,-10.5249 L 32.028,-10.9274 L 32.0276,-11.3299 L 32.0272,-11.7325 L 32.0268,-12.135 L 32.0264,-12.5376 L 32.0259,-12.9401 L 32.0253,-13.3426 L 32.0248,-13.7452 L 32.0241,-14.1477 L 32.0235,-14.5503 L 32.0228,-14.9528 L 32.022,-15.3553 L 32.0211,-15.7579 L 32.0201,-16.1604 L 32.019,-16.563 L 32.0177,-16.9655 L 32.0162,-17.368 L 32.0141,-17.7706 L 32.009,-18.1731" />
      <path d="M 32.0089,3.3269 L 32.0111,3.1464 L 32.012,2.9658 L 32.0127,2.7853 L 32.0133,2.6047 L 32.0138,2.4242 L 32.0142,2.2436 L 32.0146,2.063 L 32.0149,1.8825 L 32.0153,1.7019 L 32.0156,1.5214 L 32.0158,1.3408 L 32.0161,1.1603 L 32.0163,0.9797 L 32.0165,0.7992 L 32.0167,0.6186 L 32.0169,0.438 L 32.0171,0.2575 L 32.0173,0.0769 L 32.0174,-0.1036 L 32.0175,-0.2842 L 32.0177,-0.4647 L 32.0178,-0.6453 L 32.0179,-0.8258 L 32.018,-1.0064 L 32.0181,-1.187 L 32.0182,-1.3675 L 32.0182,-1.5481 L 32.0183,-1.7286 L 32.0184,-1.9092 L 32.0184,-2.0897 L 32.0185,-2.2703 L 32.0185,-2.4509 L 32.0185,-2.6314 L 32.0185,-2.812 L 32.0186,-2.9925 L 32.0186,-3.1731 L 32.0186,-3.3536 L 32.0185,-3.5342 L 32.0185,-3.7147 L 32.0185,-3.8953 L 32.0185,-4.0759 L 32.0184,-4.2564 L 32.0184,-4.437 L 32.0183,-4.6175 L 32.0183,-4.7981 L 32.0182,-4.9786 L 32.0181,-5.1592 L 32.018,-5.3397 L 32.0179,-5.5203 L 32.0178,-5.7009 L 32.0177,-5.8814 L 32.0176,-6.062 L 32.0174,-6.2425 L 32.0173,-6.4231 L 32.0171,-6.6036 L 32.0169,-6.7842 L 32.0168,-6.9648 L 32.0166,-7.1453 L 32.0164,-7.3259 L 32.0161,-7.5064 L 32.0159,-7.687 L 32.0156,-7.8675 L 32.0153,-8.0481 L 32.015,-8.2286 L 32.0146,-8.4092 L 32.0143,-8.5898 L 32.0138,-8.7703 L 32.0134,-8.9509 L 32.0128,-9.1314 L 32.0121,-9.312 L 32.0112,-9.4925 L 32.0089,-9.6731" />
      <path d="M 32.0089,-9.6731 L 32.0067,-9.4925 L 32.0058,-9.312 L 32.0051,-9.1314 L 32.0045,-8.9509 L 32.004,-8.7703 L 32.0036,-8.5898 L 32.0032,-8.4092 L 32.0029,-8.2287 L 32.0025,-8.0481 L 32.0022,-7.8675 L 32.002,-7.687 L 32.0017,-7.5064 L 32.0015,-7.3259 L 32.0013,-7.1453 L 32.0011,-6.9648 L 32.0009,-6.7842 L 32.0007,-6.6036 L 32.0006,-6.4231 L 32.0004,-6.2425 L 32.0003,-6.062 L 32.0001,-5.8814 L 32.0,-5.7009 L 31.9999,-5.5203 L 31.9998,-5.3397 L 31.9997,-5.1592 L 31.9996,-4.9786 L 31.9996,-4.7981 L 31.9995,-4.6175 L 31.9994,-4.437 L 31.9994,-4.2564 L 31.9993,-4.0758 L 31.9993,-3.8953 L 31.9993,-3.7147 L 31.9993,-3.5342 L 31.9992,-3.3536 L 31.9992,-3.1731 L 31.9992,-2.9925 L 31.9993,-2.812 L 31.9993,-2.6314 L 31.9993,-2.4508 L 31.9993,-2.2703 L 31.9994,-2.0897 L 31.9994,-1.9092 L 31.9995,-1.7286 L 31.9995,-1.5481 L 31.9996,-1.3675 L 31.9997,-1.1869 L 31.9998,-1.0064 L 31.9999,-0.8258 L 32.0,-0.6453 L 32.0001,-0.4647 L 32.0002,-0.2842 L 32.0004,-0.1036 L 32.0005,0.077 L 32.0007,0.2575 L 32.0009,0.4381 L 32.001,0.6186 L 32.0012,0.7992 L 32.0015,0.9797 L 32.0017,1.1603 L 32.0019,1.3408 L 32.0022,1.5214 L 32.0025,1.702 L 32.0028,1.8825 L 32.0032,2.0631 L 32.0035,2.2436 L 32.004,2.4242 L 32.0044,2.6047 L 32.005,2.7853 L 32.0057,2.9659 L 32.0066,3.1464 L 32.0089,3.3269" />
      <path d="M 19.0178,10.8078 L 19.0178,10.8217 L 19.0178,10.8355 L 19.0178,10.8494 L 19.0178,10.8633 L 19.0178,10.8772 L 19.0178,10.8911 L 19.0178,10.905 L 19.0178,10.9189 L 19.0178,10.9328 L 19.0178,10.9467 L 19.0178,10.9605 L 19.0178,10.9744 L 19.0178,10.9883 L 19.0178,11.0022 L 19.0178,11.0161 L 19.0178,11.03 L 19.0178,11.0439 L 19.0178,11.0578 L 19.0178,11.0717 L 19.0178,11.0855 L 19.0178,11.0994 L 19.0178,11.1133 L 19.0178,11.1272 L 19.0178,11.1411 L 19.0178,11.155 L 19.0178,11.1689 L 19.0178,11.1828 L 19.0178,11.1967 L 19.0178,11.2105 L 19.0178,11.2244 L 19.0178,11.2383 L 19.0178,11.2522 L 19.0178,11.2661 L 19.0178,11.28 L 19.0178,11.2939 L 19.0178,11.3078 L 19.0178,11.3217 L 19.0178,11.3355 L 19.0178,11.3494 L 19.0178,11.3633 L 19.0178,11.3772 L 19.0178,11.3911 L 19.0178,11.405 L 19.0178,11.4189 L 19.0178,11.4328 L 19.0178,11.4467 L 19.0178,11.4605 L 19.0178,11.4744 L 19.0178,11.4883 L 19.0178,11.5022 L 19.0178,11.5161 L 19.0178,11.53 L 19.0178,11.5439 L 19.0178,11.5578 L 19.0178,11.5717 L 19.0178,11.5855 L 19.0178,11.5994 L 19.0178,11.6133 L 19.0178,11.6272 L 19.0178,11.6411 L 19.0178,11.655 L 19.0178,11.6689 L 19.0178,11.6828 L 19.0178,11.6967 L 19.0178,11.7105 L 19.0178,11.7244 L 19.0178,11.7383 L 19.0178,11.7522 L 19.0178,11.7661 L 19.0178,11.78 L 19.0178,11.7939 L 19.0178,11.8078" />
      <path d="M 33.0089,3.3269 L 32.995,3.3269 L 32.9811,3.3269 L 32.9672,3.3269 L 32.9533,3.3269 L 32.9394,3.3269 L 32.9255,3.3269 L 32.9116,3.3269 L 32.8978,3.3269 L 32.8839,3.3269 L 32.87,3.3269 L 32.8561,3.3269 L 32.8422,3.3269 L 32.8283,3.3269 L 32.8144,3.3269 L 32.8005,3.3269 L 32.7866,3.3269 L 32.7728,3.3269 L 32.7589,3.3269 L 32.745,3.3269 L 32.7311,3.3269 L 32.7172,3.3269 L 32.7033,3.3269 L 32.6894,3.3269 L 32.6755,3.3269 L 32.6616,3.3269 L 32.6478,3.3269 L 32.6339,3.3269 L 32.62,3.3269 L 32.6061,3.3269 L 32.5922,3.3269 L 32.5783,3.3269 L 32.5644,3.3269 L 32.5505,3.3269 L 32.5366,3.3269 L 32.5228,3.3269 L 32.5089,3.3269 L 32.495,3.3269 L 32.4811,3.3269 L 32.4672,3.3269 L 32.4533,3.3269 L 32.4394,3.3269 L 32.4255,3.3269 L 32.4116,3.3269 L 32.3978,3.3269 L 32.3839,3.3269 L 32.37,3.3269 L 32.3561,3.3269 L 32.3422,3.3269 L 32.3283,3.3269 L 32.3144,3.3269 L 32.3005,3.3269 L 32.2866,3.3269 L 32.2728,3.3269 L 32.2589,3.3269 L 32.245,3.3269 L 32.2311,3.3269 L 32.2172,3.3269 L 32.2033,3.3269 L 32.1894,3.3269 L 32.1755,3.3269 L 32.1616,3.3269 L 32.1478,3.3269 L 32.1339,3.3269 L 32.12,3.3269 L 32.1061,3.3269 L 32.0922,3.3269 L 32.0783,3.3269 L 32.0644,3.3269 L 32.0505,3.3269 L 32.0366,3.3269 L 32.0228,3.3269 L 32.0089,3.3269" />
      <path d="M 33.0089,-9.6731 L 32.995,-9.6731 L 32.9812,-9.6731 L 32.9673,-9.6731 L 32.9534,-9.6731 L 32.9395,-9.6731 L 32.9256,-9.6731 L 32.9117,-9.6731 L 32.8978,-9.6731 L 32.8839,-9.6731 L 32.87,-9.6731 L 32.8562,-9.6731 L 32.8423,-9.6731 L 32.8284,-9.6731 L 32.8145,-9.6731 L 32.8006,-9.6731 L 32.7867,-9.6731 L 32.7728,-9.6731 L 32.7589,-9.6731 L 32.745,-9.6731 L 32.7312,-9.6731 L 32.7173,-9.6731 L 32.7034,-9.6731 L 32.6895,-9.6731 L 32.6756,-9.6731 L 32.6617,-9.6731 L 32.6478,-9.6731 L 32.6339,-9.6731 L 32.62,-9.6731 L 32.6062,-9.6731 L 32.5923,-9.6731 L 32.5784,-9.6731 L 32.5645,-9.6731 L 32.5506,-9.6731 L 32.5367,-9.6731 L 32.5228,-9.6731 L 32.5089,-9.6731 L 32.495,-9.6731 L 32.4812,-9.6731 L 32.4673,-9.6731 L 32.4534,-9.6731 L 32.4395,-9.6731 L 32.4256,-9.6731 L 32.4117,-9.6731 L 32.3978,-9.6731 L 32.3839,-9.6731 L 32.37,-9.6731 L 32.3562,-9.6731 L 32.3423,-9.6731 L 32.3284,-9.6731 L 32.3145,-9.6731 L 32.3006,-9.6731 L 32.2867,-9.6731 L 32.2728,-9.6731 L 32.2589,-9.6731 L 32.245,-9.6731 L 32.2312,-9.6731 L 32.2173,-9.6731 L 32.2034,-9.6731 L 32.1895,-9.6731 L 32.1756,-9.6731 L 32.1617,-9.6731 L 32.1478,-9.6731 L 32.1339,-9.6731 L 32.12,-9.6731 L 32.1062,-9.6731 L 32.0923,-9.6731 L 32.0784,-9.6731 L 32.0645,-9.6731 L 32.0506,-9.6731 L 32.0367,-9.6731 L 32.0228,-9.6731 L 32.0089,-9.6731" />
    </g>
    <g fill="none" stroke="rgb(0,0,0)" stroke-width="0.2" id="Center" stroke-dasharray="6.35 1.27 1.27 1.27">
      <line x1="0.0" y1="-3.1571" x2="-17.4" y2="-3.1571" />
      <line x1="0.0" y1="-3.1571" x2="17.4" y2="-3.1571" />
      <line x1="0.0" y1="-3.1571" x2="0.0" y2="-20.5793" />
      <line x1="0.0" y1="-3.1571" x2="0.0" y2="14.265" />
      <line x1="26.0156" y1="-3.1636" x2="16.6" y2="-3.1636" />
      <line x1="26.0156" y1="-3.1636" x2="35.4312" y2="-3.1636" />
    </g>
  </g>
</svg>