<?xml version='1.0' encoding='utf-8'?>
<svg width="55.3763mm" height="21.22mm" viewBox="-10.61 -10.61 55.3763 21.22" version="1.1" xmlns="http://www.w3.org/2000/svg">
  <g transform="scale(1,-1)" stroke-linecap="round">
    <g fill="none" stroke="rgb(0,0,0)" stroke-width="0.4" id="Visible">
      <path d="M 0.0,6.0 L -0.5229,5.9772 L -1.0419,5.9088 L -1.5529,5.7956 L -2.0521,5.6382 L -2.5357,5.4378 L -3.0,5.1962 L -3.4415,4.9149 L -3.8567,4.5963 L -4.2426,4.2426 L -4.5963,3.8567 L -4.9149,3.4415 L -5.1962,3.0 L -5.4378,2.5357 L -5.6382,2.0521 L -5.7956,1.5529 L -5.9088,1.0419 L -5.9772,0.5229 L -6.0,-0.0 L -5.9772,-0.5229 L -5.9088,-1.0419 L -5.7956,-1.5529 L -5.6382,-2.0521 L -5.4378,-2.5357 L -5.1962,-3.0 L -4.9149,-3.4415 L -4.5963,-3.8567 L -4.2426,-4.2426 L -3.8567,-4.5963 L -3.4415,-4.9149 L -3.0,-5.1962 L -2.5357,-5.4378 L -2.0521,-5.6382 L -1.5529,-5.7956 L -1.0419,-5.9088 L -0.5229,-5.9772 L -0.0,-6.0 L 0.5229,-5.9772 L 1.0419,-5.9088 L 1.5529,-5.7956 L 2.0521,-5.6382 L 2.5357,-5.4378 L 3.0,-5.1962 L 3.4415,-4.9149 L 3.8567,-4.5963 L 4.2426,-4.2426 L 4.5963,-3.8567 L 4.9149,-3.4415 L 5.1962,-3.0 L 5.4378,-2.5357 L 5.6382,-2.0521 L 5.7956,-1.5529 L 5.9088,-1.0419 L 5.9772,-0.5229 L 6.0,0.0 L 5.9772,0.5229 L 5.9088,1.0419 L 5.7956,1.5529 L 5.6382,2.0521 L 5.4378,2.5357 L 5.1962,3.0 L 4.9149,3.4415 L 4.5963,3.8567 L 4.2426,4.2426 L 3.8567,4.5963 L 3.4415,4.9149 L 3.0,5.1962 L 2.5357,5.4378 L 2.0521,5.6382 L 1.5529,5.7956 L 1.0419,5.9088 L 0.5229,5.9772 L 0.0,6.0" />
      <path d="M 3.0,1.7321 L 2.9583,1.7561 L 2.9167,1.7802 L 2.875,1.8042 L 2.8333,1.8283 L 2.7917,1.8523 L 2.75,1.8764 L 2.7083,1.9004 L 2.6667,1.9245 L 2.625,1.9486 L 2.5833,1.9726 L 2.5417,1.9967 L 2.5,2.0207 L 2.4583,2.0448 L 2.4167,2.0688 L 2.375,2.0929 L 2.3333,2.117 L 2.2917,2.141 L 2.25,2.1651 L 2.2083,2.1891 L 2.1667,2.2132 L 2.125,2.2372 L 2.0833,2.2613 L 2.0417,2.2853 L 2.0,2.3094 L 1.9583,2.3335 L 1.9167,2.3575 L 1.875,2.3816 L 1.8333,2.4056 L 1.7917,2.4297 L 1.75,2.4537 L 1.7083,2.4778 L 1.6667,2.5019 L 1.625,2.5259 L 1.5833,2.55 L 1.5417,2.574 L 1.5,2.5981 L 1.4583,2.6221 L 1.4167,2.6462 L 1.375,2.6702 L 1.3333,2.6943 L 1.2917,2.7184 L 1.25,2.7424 L 1.2083,2.7665 L 1.1667,2.7905 L 1.125,2.8146 L 1.0833,2.8386 L 1.0417,2.8627 L 1.0,2.8868 L 0.9583,2.9108 L 0.9167,2.9349 L 0.875,2.9589 L 0.8333,2.983 L 0.7917,3.007 L 0.75,3.0311 L 0.7083,3.0551 L 0.6667,3.0792 L 0.625,3.1033 L 0.5833,3.1273 L 0.5417,3.1514 L 0.5,3.1754 L 0.4583,3.1995 L 0.4167,3.2235 L 0.375,3.2476 L 0.3333,3.2717 L 0.2917,3.2957 L 0.25,3.3198 L 0.2083,3.3438 L 0.1667,3.3679 L 0.125,3.3919 L 0.0833,3.416 L 0.0417,3.44 L 0.0,3.4641" />
      <path d="M 3.0,-1.7321 L 3.0,-1.6839 L 3.0,-1.6358 L 3.0,-1.5877 L 3.0,-1.5396 L 3.0,-1.4915 L 3.0,-1.4434 L 3.0,-1.3953 L 3.0,-1.3472 L 3.0,-1.299 L 3.0,-1.2509 L 3.0,-1.2028 L 3.0,-1.1547 L 3.0,-1.1066 L 3.0,-1.0585 L 3.0,-1.0104 L 3.0,-0.9623 L 3.0,-0.9141 L 3.0,-0.866 L 3.0,-0.8179 L 3.0,-0.7698 L 3.0,-0.7217 L 3.0,-0.6736 L 3.0,-0.6255 L 3.0,-0.5774 L 3.0,-0.5292 L 3.0,-0.4811 L 3.0,-0.433 L 3.0,-0.3849 L 3.0,-0.3368 L 3.0,-0.2887 L 3.0,-0.2406 L 3.0,-0.1925 L 3.0,-0.1443 L 3.0,-0.0962 L 3.0,-0.0481 L 3.0,0.0 L 3.0,0.0481 L 3.0,0.0962 L 3.0,0.1443 L 3.0,0.1925 L 3.0,0.2406 L 3.0,0.2887 L 3.0,0.3368 L 3.0,0.3849 L 3.0,0.433 L 3.0,0.4811 L 3.0,0.5292 L 3.0,0.5774 L 3.0,0.6255 L 3.0,0.6736 L 3.0,0.7217 L 3.0,0.7698 L 3.0,0.8179 L 3.0,0.866 L 3.0,0.9141 L 3.0,0.9623 L 3.0,1.0104 L 3.0,1.0585 L 3.0,1.1066 L 3.0,1.1547 L 3.0,1.2028 L 3.0,1.2509 L 3.0,1.299 L 3.0,1.3472 L 3.0,1.3953 L 3.0,1.4434 L 3.0,1.4915 L 3.0,1.5396 L 3.0,1.5877 L 3.0,1.6358 L 3.0,1.6839 L 3.0,1.7321" />
      <path d="M 0.0,-3.4641 L 0.0417,-3.44 L 0.0833,-3.416 L 0.125,-3.3919 L 0.1667,-3.3679 L 0.2083,-3.3438 L 0.25,-3.3198 L 0.2917,-3.2957 L 0.3333,-3.2717 L 0.375,-3.2476 L 0.4167,-3.2235 L 0.4583,-3.1995 L 0.5,-3.1754 L 0.5417,-3.1514 L 0.5833,-3.1273 L 0.625,-3.1033 L 0.6667,-3.0792 L 0.7083,-3.0551 L 0.75,-3.0311 L 0.7917,-3.007 L 0.8333,-2.983 L 0.875,-2.9589 L 0.9167,-2.9349 L 0.9583,-2.9108 L 1.0,-2.8868 L 1.0417,-2.8627 L 1.0833,-2.8386 L 1.125,-2.8146 L 1.1667,-2.7905 L 1.2083,-2.7665 L 1.25,-2.7424 L 1.2917,-2.7184 L 1.3333,-2.6943 L 1.375,-2.6702 L 1.4167,-2.6462 L 1.4583,-2.6221 L 1.5,-2.5981 L 1.5417,-2.574 L 1.5833,-2.55 L 1.625,-2.5259 L 1.6667,-2.5019 L 1.7083,-2.4778 L 1.75,-2.4537 L 1.7917,-2.4297 L 1.8333,-2.4056 L 1.875,-2.3816 L 1.9167,-2.3575 L 1.9583,-2.3335 L 2.0,-2.3094 L 2.0417,-2.2853 L 2.0833,-2.2613 L 2.125,-2.2372 L 2.1667,-2.2132 L 2.2083,-2.1891 L 2.25,-2.1651 L 2.2917,-2.141 L 2.3333,-2.117 L 2.375,-2.0929 L 2.4167,-2.0688 L 2.4583,-2.0448 L 2.5,-2.0207 L 2.5417,-1.9967 L 2.5833,-1.9726 L 2.625,-1.9486 L 2.6667,-1.9245 L 2.7083,-1.9004 L 2.75,-1.8764 L 2.7917,-1.8523 L 2.8333,-1.8283 L 2.875,-1.8042 L 2.9167,-1.7802 L 2.9583,-1.7561 L 3.0,-1.7321" />
      <path d="M -3.0,-1.7321 L -2.9583,-1.7561 L -2.9167,-1.7802 L -2.875,-1.8042 L -2.8333,-1.8283 L -2.7917,-1.8523 L -2.75,-1.8764 L -2.7083,-1.9004 L -2.6667,-1.9245 L -2.625,-1.9486 L -2.5833,-1.9726 L -2.5417,-1.9967 L -2.5,-2.0207 L -2.4583,-2.0448 L -2.4167,-2.0688 L -2.375,-2.0929 L -2.3333,-2.117 L -2.2917,-2.141 L -2.25,-2.1651 L -2.2083,-2.1891 L -2.1667,-2.2132 L -2.125,-2.2372 L -2.0833,-2.2613 L -2.0417,-2.2853 L -2.0,-2.3094 L -1.9583,-2.3335 L -1.9167,-2.3575 L -1.875,-2.3816 L -1.8333,-2.4056 L -1.7917,-2.4297 L -1.75,-2.4537 L -1.7083,-2.4778 L -1.6667,-2.5019 L -1.625,-2.5259 L -1.5833,-2.55 L -1.5417,-2.574 L -1.5,-2.5981 L -1.4583,-2.6221 L -1.4167,-2.6462 L -1.375,-2.6702 L -1.3333,-2.6943 L -1.2917,-2.7184 L -1.25,-2.7424 L -1.2083,-2.7665 L -1.1667,-2.7905 L -1.125,-2.8146 L -1.0833,-2.8386 L -1.0417,-2.8627 L -1.0,-2.8868 L -0.9583,-2.9108 L -0.9167,-2.9349 L -0.875,-2.9589 L -0.8333,-2.983 L -0.7917,-3.007 L -0.75,-3.0311 L -0.7083,-3.0551 L -0.6667,-3.0792 L -0.625,-3.1033 L -0.5833,-3.1273 L -0.5417,-3.1514 L -0.5,-3.1754 L -0.4583,-3.1995 L -0.4167,-3.2235 L -0.375,-3.2476 L -0.3333,-3.2717 L -0.2917,-3.2957 L -0.25,-3.3198 L -0.2083,-3.3438 L -0.1667,-3.3679 L -0.125,-3.3919 L -0.0833,-3.416 L -0.0417,-3.44 L -0.0,-3.4641" />
      <path d="M -3.0,1.7321 L -3.0,1.6839 L -3.0,1.6358 L -3.0,1.5877 L -3.0,1.5396 L -3.0,1.4915 L -3.0,1.4434 L -3.0,1.3953 L -3.0,1.3472 L -3.0,1.299 L -3.0,1.2509 L -3.0,1.2028 L -3.0,1.1547 L -3.0,1.1066 L -3.0,1.0585 L -3.0,1.0104 L -3.0,0.9623 L -3.0,0.9141 L -3.0,0.866 L -3.0,0.8179 L -3.0,0.7698 L -3.0,0.7217 L -3.0,0.6736 L -3.0,0.6255 L -3.0,0.5774 L -3.0,0.5292 L -3.0,0.4811 L -3.0,0.433 L -3.0,0.3849 L -3.0,0.3368 L -3.0,0.2887 L -3.0,0.2406 L -3.0,0.1925 L -3.0,0.1443 L -3.0,0.0962 L -3.0,0.0481 L -3.0,0.0 L -3.0,-0.0481 L -3.0,-0.0962 L -3.0,-0.1443 L -3.0,-0.1925 L -3.0,-0.2406 L -3.0,-0.2887 L -3.0,-0.3368 L -3.0,-0.3849 L -3.0,-0.433 L -3.0,-0.4811 L -3.0,-0.5292 L -3.0,-0.5774 L -3.0,-0.6255 L -3.0,-0.6736 L -3.0,-0.7217 L -3.0,-0.7698 L -3.0,-0.8179 L -3.0,-0.866 L -3.0,-0.9141 L -3.0,-0.9623 L -3.0,-1.0104 L -3.0,-1.0585 L -3.0,-1.1066 L -3.0,-1.1547 L -3.0,-1.2028 L -3.0,-1.2509 L -3.0,-1.299 L -3.0,-1.3472 L -3.0,-1.3953 L -3.0,-1.4434 L -3.0,-1.4915 L -3.0,-1.5396 L -3.0,-1.5877 L -3.0,-1.6358 L -3.0,-1.6839 L -3.0,-1.7321" />
      <path d="M 0.0,3.4641 L -0.0417,3.44 L -0.0833,3.416 L -0.125,3.3919 L -0.1667,3.3679 L -0.2083,3.3438 L -0.25,3.3198 L -0.2917,3.2957 L -0.3333,3.2717 L -0.375,3.2476 L -0.4167,3.2235 L -0.4583,3.1995 L -0.5,3.1754 L -0.5417,3.1514 L -0.5833,3.1273 L -0.625,3.1033 L -0.6667,3.0792 L -0.7083,3.0551 L -0.75,3.0311 L -0.7917,3.007 L -0.8333,2.983 L -0.875,2.9589 L -0.9167,2.9349 L -0.9583,2.9108 L -1.0,2.8868 L -1.0417,2.8627 L -1.0833,2.8386 L -1.125,2.8146 L -1.1667,2.7905 L -1.2083,2.7665 L -1.25,2.7424 L -1.2917,2.7184 L -1.3333,2.6943 L -1.375,2.6702 L -1.4167,2.6462 L -1.4583,2.6221 L -1.5,2.5981 L -1.5417,2.574 L -1.5833,2.55 L -1.625,2.5259 L -1.6667,2.5019 L -1.7083,2.4778 L -1.75,2.4537 L -1.7917,2.4297 L -1.8333,2.4056 L -1.875,2.3816 L -1.9167,2.3575 L -1.9583,2.3335 L -2.0,2.3094 L -2.0417,2.2853 L -2.0833,2.2613 L -2.125,2.2372 L -2.1667,2.2132 L -2.2083,2.1891 L -2.25,2.1651 L -2.2917,2.141 L -2.3333,2.117 L -2.375,2.0929 L -2.4167,2.0688 L -2.4583,2.0448 L -2.5,2.0207 L -2.5417,1.9967 L -2.5833,1.9726 L -2.625,1.9486 L -2.6667,1.9245 L -2.7083,1.9004 L -2.75,1.8764 L -2.7917,1.8523 L -2.8333,1.8283 L -2.875,1.8042 L -2.9167,1.7802 L -2.9583,1.7561 L -3.0,1.7321" />
      <path d="M 10.0954,-6.0 L 10.0733,-5.8362 L 10.0642,-5.6697 L 10.0574,-5.503 L 10.0518,-5.3364 L 10.047,-5.1697 L 10.0427,-5.003 L 10.0389,-4.8363 L 10.0355,-4.6695 L 10.0324,-4.5028 L 10.0295,-4.3361 L 10.0268,-4.1693 L 10.0243,-4.0026 L 10.022,-3.8358 L 10.0199,-3.6691 L 10.0179,-3.5023 L 10.0161,-3.3356 L 10.0144,-3.1688 L 10.0128,-3.0021 L 10.0113,-2.8353 L 10.01,-2.6686 L 10.0087,-2.5018 L 10.0075,-2.335 L 10.0064,-2.1683 L 10.0055,-2.0015 L 10.0046,-1.8348 L 10.0038,-1.668 L 10.003,-1.5012 L 10.0024,-1.3345 L 10.0018,-1.1677 L 10.0013,-1.0009 L 10.0009,-0.8342 L 10.0006,-0.6674 L 10.0003,-0.5007 L 10.0001,-0.3339 L 10.0,-0.1671 L 10.0,-0.0004 L 10.0,0.1664 L 10.0001,0.3332 L 10.0003,0.4999 L 10.0006,0.6667 L 10.0009,0.8335 L 10.0013,1.0002 L 10.0018,1.167 L 10.0024,1.3338 L 10.003,1.5005 L 10.0038,1.6673 L 10.0046,1.834 L 10.0055,2.0008 L 10.0064,2.1676 L 10.0075,2.3343 L 10.0087,2.5011 L 10.01,2.6678 L 10.0113,2.8346 L 10.0128,3.0014 L 10.0144,3.1681 L 10.0161,3.3349 L 10.0179,3.5016 L 10.0199,3.6684 L 10.022,3.8351 L 10.0243,4.0019 L 10.0268,4.1686 L 10.0295,4.3354 L 10.0323,4.5021 L 10.0355,4.6689 L 10.0389,4.8356 L 10.0427,5.0023 L 10.047,5.169 L 10.0518,5.3357 L 10.0574,5.5024 L 10.0642,5.6691 L 10.0732,5.8356 L 10.0954,6.0" />
      <path d="M 34.0924,6.0 L 34.101,5.9754 L 34.1048,5.9488 L 34.1077,5.9221 L 34.1101,5.8953 L 34.1122,5.8686 L 34.1141,5.8418 L 34.1159,5.815 L 34.1175,5.7882 L 34.119,5.7614 L 34.1204,5.7345 L 34.1218,5.7077 L 34.1231,5.6809 L 34.1243,5.6541 L 34.1255,5.6272 L 34.1266,5.6004 L 34.1277,5.5736 L 34.1288,5.5467 L 34.1298,5.5199 L 34.1308,5.4931 L 34.1317,5.4662 L 34.1326,5.4394 L 34.1335,5.4125 L 34.1344,5.3857 L 34.1353,5.3588 L 34.1361,5.332 L 34.1369,5.3052 L 34.1377,5.2783 L 34.1385,5.2515 L 34.1393,5.2246 L 34.14,5.1978 L 34.1408,5.1709 L 34.1415,5.1441 L 34.1422,5.1172 L 34.1429,5.0904 L 34.1436,5.0635 L 34.1442,5.0367 L 34.1449,5.0098 L 34.1455,4.983 L 34.1461,4.9561 L 34.1468,4.9293 L 34.1474,4.9024 L 34.148,4.8756 L 34.1486,4.8487 L 34.1492,4.8219 L 34.1497,4.795 L 34.1503,4.7682 L 34.1508,4.7413 L 34.1514,4.7145 L 34.1519,4.6876 L 34.1525,4.6608 L 34.153,4.6339 L 34.1535,4.6071 L 34.154,4.5802 L 34.1545,4.5534 L 34.155,4.5265 L 34.1555,4.4997 L 34.156,4.4728 L 34.1564,4.446 L 34.1569,4.4191 L 34.1574,4.3922 L 34.1578,4.3654 L 34.1583,4.3385 L 34.1587,4.3117 L 34.1592,4.2848 L 34.1596,4.258 L 34.16,4.2311 L 34.1604,4.2043 L 34.1609,4.1774 L 34.1613,4.1506 L 34.1617,4.1237 L 34.1621,4.0969 L 34.1625,4.07" />
      <path d="M 34.1625,-4.07 L 34.1621,-4.0969 L 34.1617,-4.1237 L 34.1613,-4.1506 L 34.1609,-4.1774 L 34.1604,-4.2043 L 34.16,-4.2311 L 34.1596,-4.258 L 34.1592,-4.2848 L 34.1587,-4.3117 L 34.1583,-4.3385 L 34.1578,-4.3654 L 34.1574,-4.3922 L 34.1569,-4.4191 L 34.1564,-4.4459 L 34.156,-4.4728 L 34.1555,-4.4996 L 34.155,-4.5265 L 34.1545,-4.5534 L 34.154,-4.5802 L 34.1535,-4.6071 L 34.153,-4.6339 L 34.1525,-4.6608 L 34.1519,-4.6876 L 34.1514,-4.7145 L 34.1508,-4.7413 L 34.1503,-4.7682 L 34.1497,-4.795 L 34.1492,-4.8219 L 34.1486,-4.8487 L 34.148,-4.8756 L 34.1474,-4.9024 L 34.1468,-4.9293 L 34.1461,-4.9561 L 34.1455,-4.983 L 34.1449,-5.0098 L 34.1442,-5.0367 L 34.1436,-5.0635 L 34.1429,-5.0904 L 34.1422,-5.1172 L 34.1415,-5.1441 L 34.1408,-5.1709 L 34.14,-5.1977 L 34.1393,-5.2246 L 34.1385,-5.2514 L 34.1377,-5.2783 L 34.1369,-5.3051 L 34.1361,-5.332 L 34.1353,-5.3588 L 34.1344,-5.3857 L 34.1335,-5.4125 L 34.1326,-5.4393 L 34.1317,-5.4662 L 34.1308,-5.493 L 34.1298,-5.5199 L 34.1288,-5.5467 L 34.1277,-5.5735 L 34.1266,-5.6004 L 34.1255,-5.6272 L 34.1243,-5.654 L 34.1231,-5.6809 L 34.1218,-5.7077 L 34.1204,-5.7345 L 34.119,-5.7613 L 34.1175,-5.7881 L 34.1159,-5.815 L 34.1141,-5.8418 L 34.1122,-5.8685 L 34.1101,-5.8953 L 34.1077,-5.9221 L 34.1048,-5.9488 L 34.101,-5.9753 L 34.0924,-6.0" />
      <path d="M 34.0924,-6.0 L 34.0702,-5.8362 L 34.0612,-5.6697 L 34.0544,-5.503 L 34.0488,-5.3364 L 34.0439,-5.1697 L 34.0397,-5.003 L 34.0359,-4.8363 L 34.0325,-4.6695 L 34.0293,-4.5028 L 34.0264,-4.3361 L 34.0238,-4.1693 L 34.0213,-4.0026 L 34.019,-3.8358 L 34.0169,-3.6691 L 34.0149,-3.5023 L 34.0131,-3.3356 L 34.0114,-3.1688 L 34.0098,-3.0021 L 34.0083,-2.8353 L 34.0069,-2.6686 L 34.0057,-2.5018 L 34.0045,-2.335 L 34.0034,-2.1683 L 34.0024,-2.0015 L 34.0015,-1.8348 L 34.0007,-1.668 L 34.0,-1.5012 L 33.9994,-1.3345 L 33.9988,-1.1677 L 33.9983,-1.0009 L 33.9979,-0.8342 L 33.9976,-0.6674 L 33.9973,-0.5007 L 33.9971,-0.3339 L 33.997,-0.1671 L 33.997,-0.0004 L 33.997,0.1664 L 33.9971,0.3332 L 33.9973,0.4999 L 33.9976,0.6667 L 33.9979,0.8335 L 33.9983,1.0002 L 33.9988,1.167 L 33.9994,1.3338 L 34.0,1.5005 L 34.0007,1.6673 L 34.0015,1.834 L 34.0024,2.0008 L 34.0034,2.1676 L 34.0045,2.3343 L 34.0056,2.5011 L 34.0069,2.6678 L 34.0083,2.8346 L 34.0098,3.0014 L 34.0114,3.1681 L 34.0131,3.3349 L 34.0149,3.5016 L 34.0169,3.6684 L 34.019,3.8351 L 34.0213,4.0019 L 34.0238,4.1686 L 34.0264,4.3354 L 34.0293,4.5021 L 34.0324,4.6689 L 34.0359,4.8356 L 34.0397,5.0023 L 34.0439,5.169 L 34.0487,5.3357 L 34.0543,5.5024 L 34.0611,5.6691 L 34.0702,5.8356 L 34.0924,6.0" />
      <path d="M 10.0954,6.0 L 10.4287,6.0 L 10.762,6.0 L 11.0953,6.0 L 11.4286,6.0 L 11.7619,6.0 L 12.0952,6.0 L 12.4284,6.0 L 12.7617,6.0 L 13.095,6.0 L 13.4283,6.0 L 13.7616,6.0 L 14.0949,6.0 L 14.4282,6.0 L 14.7615,6.0 L 15.0948,6.0 L 15.4281,6.0 L 15.7614,6.0 L 16.0946,6.0 L 16.4279,6.0 L 16.7612,6.0 L 17.0945,6.0 L 17.4278,6.0 L 17.7611,6.0 L 18.0944,6.0 L 18.4277,6.0 L 18.761,6.0 L 19.0943,6.0 L 19.4276,6.0 L 19.7609,6.0 L 20.0941,6.0 L 20.4274,6.0 L 20.7607,6.0 L 21.094,6.0 L 21.4273,6.0 L 21.7606,6.0 L 22.0939,6.0 L 22.4272,6.0 L 22.7605,6.0 L 23.0938,6.0 L 23.4271,6.0 L 23.7603,6.0 L 24.0936,6.0 L 24.4269,6.0 L 24.7602,6.0 L 25.0935,6.0 L 25.4268,6.0 L 25.7601,6.0 L 26.0934,6.0 L 26.4267,6.0 L 26.76,6.0 L 27.0933,6.0 L 27.4265,6.0 L 27.7598,6.0 L 28.0931,6.0 L 28.4264,6.0 L 28.7597,6.0 L 29.093,6.0 L 29.4263,6.0 L 29.7596,6.0 L 30.0929,6.0 L 30.4262,6.0 L 30.7595,6.0 L 31.0928,6.0 L 31.426,6.0 L 31.7593,6.0 L 32.0926,6.0 L 32.4259,6.0 L 32.7592,6.0 L 33.0925,6.0 L 33.4258,6.0 L 33.7591,6.0 L 34.0924,6.0" />
      <path d="M 34.0924,-4.07 L 34.0774,-3.9589 L 34.0712,-3.8459 L 34.0666,-3.7329 L 34.0628,-3.6198 L 34.0595,-3.5068 L 34.0566,-3.3937 L 34.0541,-3.2806 L 34.0517,-3.1675 L 34.0496,-3.0544 L 34.0476,-2.9413 L 34.0458,-2.8282 L 34.0442,-2.7151 L 34.0426,-2.602 L 34.0412,-2.4889 L 34.0398,-2.3758 L 34.0386,-2.2626 L 34.0374,-2.1495 L 34.0363,-2.0364 L 34.0353,-1.9233 L 34.0344,-1.8102 L 34.0335,-1.6971 L 34.0328,-1.5839 L 34.032,-1.4708 L 34.0314,-1.3577 L 34.0308,-1.2446 L 34.0302,-1.1315 L 34.0297,-1.0183 L 34.0293,-0.9052 L 34.0289,-0.7921 L 34.0286,-0.679 L 34.0283,-0.5659 L 34.0281,-0.4527 L 34.0279,-0.3396 L 34.0278,-0.2265 L 34.0277,-0.1134 L 34.0277,-0.0002 L 34.0277,0.1129 L 34.0278,0.226 L 34.0279,0.3391 L 34.0281,0.4522 L 34.0283,0.5654 L 34.0286,0.6785 L 34.0289,0.7916 L 34.0293,0.9047 L 34.0297,1.0178 L 34.0302,1.131 L 34.0308,1.2441 L 34.0314,1.3572 L 34.032,1.4703 L 34.0328,1.5835 L 34.0335,1.6966 L 34.0344,1.8097 L 34.0353,1.9228 L 34.0363,2.0359 L 34.0374,2.149 L 34.0386,2.2622 L 34.0398,2.3753 L 34.0412,2.4884 L 34.0426,2.6015 L 34.0442,2.7146 L 34.0458,2.8277 L 34.0476,2.9408 L 34.0496,3.0539 L 34.0517,3.167 L 34.0541,3.2801 L 34.0566,3.3932 L 34.0595,3.5063 L 34.0628,3.6194 L 34.0666,3.7325 L 34.0712,3.8455 L 34.0773,3.9585 L 34.0924,4.07" />
      <path d="M 40.0916,4.07 L 40.1066,3.9589 L 40.1128,3.8459 L 40.1174,3.7329 L 40.1212,3.6198 L 40.1245,3.5068 L 40.1273,3.3937 L 40.1299,3.2806 L 40.1323,3.1675 L 40.1344,3.0544 L 40.1363,2.9413 L 40.1382,2.8282 L 40.1398,2.7151 L 40.1414,2.602 L 40.1428,2.4889 L 40.1442,2.3758 L 40.1454,2.2626 L 40.1466,2.1495 L 40.1476,2.0364 L 40.1487,1.9233 L 40.1496,1.8102 L 40.1504,1.6971 L 40.1512,1.5839 L 40.152,1.4708 L 40.1526,1.3577 L 40.1532,1.2446 L 40.1538,1.1315 L 40.1543,1.0183 L 40.1547,0.9052 L 40.1551,0.7921 L 40.1554,0.679 L 40.1557,0.5659 L 40.1559,0.4527 L 40.1561,0.3396 L 40.1562,0.2265 L 40.1563,0.1134 L 40.1563,0.0002 L 40.1563,-0.1129 L 40.1562,-0.226 L 40.1561,-0.3391 L 40.1559,-0.4522 L 40.1557,-0.5654 L 40.1554,-0.6785 L 40.1551,-0.7916 L 40.1547,-0.9047 L 40.1543,-1.0178 L 40.1538,-1.131 L 40.1532,-1.2441 L 40.1526,-1.3572 L 40.152,-1.4703 L 40.1512,-1.5835 L 40.1504,-1.6966 L 40.1496,-1.8097 L 40.1487,-1.9228 L 40.1477,-2.0359 L 40.1466,-2.149 L 40.1454,-2.2622 L 40.1442,-2.3753 L 40.1428,-2.4884 L 40.1414,-2.6015 L 40.1398,-2.7146 L 40.1382,-2.8277 L 40.1364,-2.9408 L 40.1344,-3.0539 L 40.1323,-3.167 L 40.1299,-3.2801 L 40.1274,-3.3932 L 40.1245,-3.5063 L 40.1212,-3.6194 L 40.1174,-3.7325 L 40.1128,-3.8455 L 40.1067,-3.9585 L 40.0916,-4.07" />
      <path d="M 40.0916,-4.07 L 40.0766,-3.9589 L 40.0704,-3.8459 L 40.0658,-3.7329 L 40.062,-3.6198 L 40.0588,-3.5068 L 40.0559,-3.3937 L 40.0533,-3.2806 L 40.051,-3.1675 L 40.0488,-3.0544 L 40.0469,-2.9413 L 40.0451,-2.8282 L 40.0434,-2.7151 L 40.0418,-2.602 L 40.0404,-2.4889 L 40.0391,-2.3758 L 40.0378,-2.2626 L 40.0367,-2.1495 L 40.0356,-2.0364 L 40.0346,-1.9233 L 40.0336,-1.8102 L 40.0328,-1.6971 L 40.032,-1.5839 L 40.0313,-1.4708 L 40.0306,-1.3577 L 40.03,-1.2446 L 40.0294,-1.1315 L 40.029,-1.0183 L 40.0285,-0.9052 L 40.0281,-0.7921 L 40.0278,-0.679 L 40.0275,-0.5659 L 40.0273,-0.4527 L 40.0271,-0.3396 L 40.027,-0.2265 L 40.0269,-0.1134 L 40.0269,-0.0002 L 40.0269,0.1129 L 40.027,0.226 L 40.0271,0.3391 L 40.0273,0.4522 L 40.0275,0.5654 L 40.0278,0.6785 L 40.0281,0.7916 L 40.0285,0.9047 L 40.029,1.0178 L 40.0294,1.131 L 40.03,1.2441 L 40.0306,1.3572 L 40.0313,1.4703 L 40.032,1.5835 L 40.0328,1.6966 L 40.0336,1.8097 L 40.0346,1.9228 L 40.0356,2.0359 L 40.0367,2.149 L 40.0378,2.2622 L 40.0391,2.3753 L 40.0404,2.4884 L 40.0418,2.6015 L 40.0434,2.7146 L 40.0451,2.8277 L 40.0469,2.9408 L 40.0488,3.0539 L 40.051,3.167 L 40.0533,3.2801 L 40.0559,3.3932 L 40.0588,3.5063 L 40.062,3.6194 L 40.0658,3.7325 L 40.0704,3.8455 L 40.0766,3.9585 L 40.0916,4.07" />
      <path d="M 34.0924,4.07 L 34.1757,4.07 L 34.259,4.07 L 34.3423,4.07 L 34.4257,4.07 L 34.509,4.07 L 34.5923,4.07 L 34.6756,4.07 L 34.759,4.07 L 34.8423,4.07 L 34.9256,4.07 L 35.0089,4.07 L 35.0922,4.07 L 35.1756,4.07 L 35.2589,4.07 L 35.3422,4.07 L 35.4255,4.07 L 35.5089,4.07 L 35.5922,4.07 L 35.6755,4.07 L 35.7588,4.07 L 35.8422,4.07 L 35.9255,4.07 L 36.0088,4.07 L 36.0921,4.07 L 36.1754,4.07 L 36.2588,4.07 L 36.3421,4.07 L 36.4254,4.07 L 36.5087,4.07 L 36.5921,4.07 L 36.6754,4.07 L 36.7587,4.07 L 36.842,4.07 L 36.9253,4.07 L 37.0087,4.07 L 37.092,4.07 L 37.1753,4.07 L 37.2586,4.07 L 37.342,4.07 L 37.4253,4.07 L 37.5086,4.07 L 37.5919,4.07 L 37.6753,4.07 L 37.7586,4.07 L 37.8419,4.07 L 37.9252,4.07 L 38.0085,4.07 L 38.0919,4.07 L 38.1752,4.07 L 38.2585,4.07 L 38.3418,4.07 L 38.4252,4.07 L 38.5085,4.07 L 38.5918,4.07 L 38.6751,4.07 L 38.7585,4.07 L 38.8418,4.07 L 38.9251,4.07 L 39.0084,4.07 L 39.0917,4.07 L 39.1751,4.07 L 39.2584,4.07 L 39.3417,4.07 L 39.425,4.07 L 39.5084,4.07 L 39.5917,4.07 L 39.675,4.07 L 39.7583,4.07 L 39.8416,4.07 L 39.925,4.07 L 40.0083,4.07 L 40.0916,4.07" />
      <path d="M 10.0954,-6.0 L 10.4287,-6.0 L 10.762,-6.0 L 11.0953,-6.0 L 11.4286,-6.0 L 11.7619,-6.0 L 12.0952,-6.0 L 12.4284,-6.0 L 12.7617,-6.0 L 13.095,-6.0 L 13.4283,-6.0 L 13.7616,-6.0 L 14.0949,-6.0 L 14.4282,-6.0 L 14.7615,-6.0 L 15.0948,-6.0 L 15.4281,-6.0 L 15.7614,-6.0 L 16.0946,-6.0 L 16.4279,-6.0 L 16.7612,-6.0 L 17.0945,-6.0 L 17.4278,-6.0 L 17.7611,-6.0 L 18.0944,-6.0 L 18.4277,-6.0 L 18.761,-6.0 L 19.0943,-6.0 L 19.4276,-6.0 L 19.7609,-6.0 L 20.0941,-6.0 L 20.4274,-6.0 L 20.7607,-6.0 L 21.094,-6.0 L 21.4273,-6.0 L 21.7606,-6.0 L 22.0939,-6.0 L 22.4272,-6.0 L 22.7605,-6.0 L 23.0938,-6.0 L 23.4271,-6.0 L 23.7603,-6.0 L 24.0936,-6.0 L 24.4269,-6.0 L 24.7602,-6.0 L 25.0935,-6.0 L 25.4268,-6.0 L 25.7601,-6.0 L 26.0934,-6.0 L 26.4267,-6.0 L 26.76,-6.0 L 27.0933,-6.0 L 27.4265,-6.0 L 27.7598,-6.0 L 28.0931,-6.0 L 28.4264,-6.0 L 28.7597,-6.0 L 29.093,-6.0 L 29.4263,-6.0 L 29.7596,-6.0 L 30.0929,-6.0 L 30.4262,-6.0 L 30.7595,-6.0 L 31.0928,-6.0 L 31.426,-6.0 L 31.7593,-6.0 L 32.0926,-6.0 L 32.4259,-6.0 L 32.7592,-6.0 L 33.0925,-6.0 L 33.4258,-6.0 L 33.7591,-6.0 L 34.0924,-6.0" />
      <path d="M 34.0924,-4.07 L 34.1757,-4.07 L 34.259,-4.07 L 34.3423,-4.07 L 34.4257,-4.07 L 34.509,-4.07 L 34.5923,-4.07 L 34.6756,-4.07 L 34.759,-4.07 L 34.8423,-4.07 L 34.9256,-4.07 L 35.0089,-4.07 L 35.0922,-4.07 L 35.1756,-4.07 L 35.2589,-4.07 L 35.3422,-4.07 L 35.4255,-4.07 L 35.5089,-4.07 L 35.5922,-4.07 L 35.6755,-4.07 L 35.7588,-4.07 L 35.8422,-4.07 L 35.9255,-4.07 L 36.0088,-4.07 L 36.0921,-4.07 L 36.1754,-4.07 L 36.2588,-4.07 L 36.3421,-4.07 L 36.4254,-4.07 L 36.5087,-4.07 L 36.5921,-4.07 L 36.6754,-4.07 L 36.7587,-4.07 L 36.842,-4.07 L 36.9253,-4.07 L 37.0087,-4.07 L 37.092,-4.07 L 37.1753,-4.07 L 37.2586,-4.07 L 37.342,-4.07 L 37.4253,-4.07 L 37.5086,-4.07 L 37.5919,-4.07 L 37.6753,-4.07 L 37.7586,-4.07 L 37.8419,-4.07 L 37.9252,-4.07 L 38.0085,-4.07 L 38.0919,-4.07 L 38.1752,-4.07 L 38.2585,-4.07 L 38.3418,-4.07 L 38.4252,-4.07 L 38.5085,-4.07 L 38.5918,-4.07 L 38.6751,-4.07 L 38.7585,-4.07 L 38.8418,-4.07 L 38.9251,-4.07 L 39.0084,-4.07 L 39.0917,-4.07 L 39.1751,-4.07 L 39.2584,-4.07 L 39.3417,-4.07 L 39.425,-4.07 L 39.5084,-4.07 L 39.5917,-4.07 L 39.675,-4.07 L 39.7583,-4.07 L 39.8416,-4.07 L 39.925,-4.07 L 40.0083,-4.07 L 40.0916,-4.07" />
    </g>
    <g fill="none" stroke="rgb(110,110,110)" stroke-width="0.3" id="Hidden" stroke-dasharray="3.6 0.9">
      <path d="M 0.0,6.0 L -0.5229,5.9772 L -1.0419,5.9088 L -1.5529,5.7956 L -2.0521,5.6382 L -2.5357,5.4378 L -3.0,5.1962 L -3.4415,4.9149 L -3.8567,4.5963 L -4.2426,4.2426 L -4.5963,3.8567 L -4.9149,3.4415 L -5.1962,3.0 L -5.4378,2.5357 L -5.6382,2.0521 L -5.7956,1.5529 L -5.9088,1.0419 L -5.9772,0.5229 L -6.0,-0.0 L -5.9772,-0.5229 L -5.9088,-1.0419 L -5.7956,-1.5529 L -5.6382,-2.0521 L -5.4378,-2.5357 L -5.1962,-3.0 L -4.9149,-3.4415 L -4.5963,-3.8567 L -4.2426,-4.2426 L -3.8567,-4.5963 L -3.4415,-4.9149 L -3.0,-5.1962 L -2.5357,-5.4378 L -2.0521,-5.6382 L -1.5529,-5.7956 L -1.0419,-5.9088 L -0.5229,-5.9772 L -0.0,-6.0 L 0.5229,-5.9772 L 1.0419,-5.9088 L 1.5529,-5.7956 L 2.0521,-5.6382 L 2.5357,-5.4378 L 3.0,-5.1962 L 3.4415,-4.9149 L 3.8567,-4.5963 L 4.2426,-4.2426 L 4.5963,-3.8567 L 4.9149,-3.4415 L 5.1962,-3.0 L 5.4378,-2.5357 L 5.6382,-2.0521 L 5.7956,-1.5529 L 5.9088,-1.0419 L 5.9772,-0.5229 L 6.0,0.0 L 5.9772,0.5229 L 5.9088,1.0419 L 5.7956,1.5529 L 5.6382,2.0521 L 5.4378,2.5357 L 5.1962,3.0 L 4.9149,3.4415 L 4.5963,3.8567 L 4.2426,4.2426 L 3.8567,4.5963 L 3.4415,4.9149 L 3.0,5.1962 L 2.5357,5.4378 L 2.0521,5.6382 L 1.5529,5.7956 L 1.0419,5.9088 L 0.5229,5.9772 L 0.0,6.0" />
      <path d="M 3.0,1.7321 L 2.9583,1.7561 L 2.9167,1.7802 L 2.875,1.8042 L 2.8333,1.8283 L 2.7917,1.8523 L 2.75,1.8764 L 2.7083,1.9004 L 2.6667,1.9245 L 2.625,1.9486 L 2.5833,1.9726 L 2.5417,1.9967 L 2.5,2.0207 L 2.4583,2.0448 L 2.4167,2.0688 L 2.375,2.0929 L 2.3333,2.117 L 2.2917,2.141 L 2.25,2.1651 L 2.2083,2.1891 L 2.1667,2.2132 L 2.125,2.2372 L 2.0833,2.2613 L 2.0417,2.2853 L 2.0,2.3094 L 1.9583,2.3335 L 1.9167,2.3575 L 1.875,2.3816 L 1.8333,2.4056 L 1.7917,2.4297 L 1.75,2.4537 L 1.7083,2.4778 L 1.6667,2.5019 L 1.625,2.5259 L 1.5833,2.55 L 1.5417,2.574 L 1.5,2.5981 L 1.4583,2.6221 L 1.4167,2.6462 L 1.375,2.6702 L 1.3333,2.6943 L 1.2917,2.7184 L 1.25,2.7424 L 1.2083,2.7665 L 1.1667,2.7905 L 1.125,2.8146 L 1.0833,2.8386 L 1.0417,2.8627 L 1.0,2.8868 L 0.9583,2.9108 L 0.9167,2.9349 L 0.875,2.9589 L 0.8333,2.983 L 0.7917,3.007 L 0.75,3.0311 L 0.7083,3.0551 L 0.6667,3.0792 L 0.625,3.1033 L 0.5833,3.1273 L 0.5417,3.1514 L 0.5,3.1754 L 0.4583,3.1995 L 0.4167,3.2235 L 0.375,3.2476 L 0.3333,3.2717 L 0.2917,3.2957 L 0.25,3.3198 L 0.2083,3.3438 L 0.1667,3.3679 L 0.125,3.3919 L 0.0833,3.416 L 0.0417,3.44 L 0.0,3.4641" />
      <path d="M 3.0,-1.7321 L 3.0,-1.6839 L 3.0,-1.6358 L 3.0,-1.5877 L 3.0,-1.5396 L 3.0,-1.4915 L 3.0,-1.4434 L 3.0,-1.3953 L 3.0,-1.3472 L 3.0,-1.299 L 3.0,-1.2509 L 3.0,-1.2028 L 3.0,-1.1547 L 3.0,-1.1066 L 3.0,-1.0585 L 3.0,-1.0104 L 3.0,-0.9623 L 3.0,-0.9141 L 3.0,-0.866 L 3.0,-0.8179 L 3.0,-0.7698 L 3.0,-0.7217 L 3.0,-0.6736 L 3.0,-0.6255 L 3.0,-0.5774 L 3.0,-0.5292 L 3.0,-0.4811 L 3.0,-0.433 L 3.0,-0.3849 L 3.0,-0.3368 L 3.0,-0.2887 L 3.0,-0.2406 L 3.0,-0.1925 L 3.0,-0.1443 L 3.0,-0.0962 L 3.0,-0.0481 L 3.0,0.0 L 3.0,0.0481 L 3.0,0.0962 L 3.0,0.1443 L 3.0,0.1925 L 3.0,0.2406 L 3.0,0.2887 L 3.0,0.3368 L 3.0,0.3849 L 3.0,0.433 L 3.0,0.4811 L 3.0,0.5292 L 3.0,0.5774 L 3.0,0.6255 L 3.0,0.6736 L 3.0,0.7217 L 3.0,0.7698 L 3.0,0.8179 L 3.0,0.866 L 3.0,0.9141 L 3.0,0.9623 L 3.0,1.0104 L 3.0,1.0585 L 3.0,1.1066 L 3.0,1.1547 L 3.0,1.2028 L 3.0,1.2509 L 3.0,1.299 L 3.0,1.3472 L 3.0,1.3953 L 3.0,1.4434 L 3.0,1.4915 L 3.0,1.5396 L 3.0,1.5877 L 3.0,1.6358 L 3.0,1.6839 L 3.0,1.7321" />
      <path d="M 0.0,-3.4641 L 0.0417,-3.44 L 0.0833,-3.416 L 0.125,-3.3919 L 0.1667,-3.3679 L 0.2083,-3.3438 L 0.25,-3.3198 L 0.2917,-3.2957 L 0.3333,-3.2717 L 0.375,-3.2476 L 0.4167,-3.2235 L 0.4583,-3.1995 L 0.5,-3.1754 L 0.5417,-3.1514 L 0.5833,-3.1273 L 0.625,-3.1033 L 0.6667,-3.0792 L 0.7083,-3.0551 L 0.75,-3.0311 L 0.7917,-3.007 L 0.8333,-2.983 L 0.875,-2.9589 L 0.9167,-2.9349 L 0.9583,-2.9108 L 1.0,-2.8868 L 1.0417,-2.8627 L 1.0833,-2.8386 L 1.125,-2.8146 L 1.1667,-2.7905 L 1.2083,-2.7665 L 1.25,-2.7424 L 1.2917,-2.7184 L 1.3333,-2.6943 L 1.375,-2.6702 L 1.4167,-2.6462 L 1.4583,-2.6221 L 1.5,-2.5981 L 1.5417,-2.574 L 1.5833,-2.55 L 1.625,-2.5259 L 1.6667,-2.5019 L 1.7083,-2.4778 L 1.75,-2.4537 L 1.7917,-2.4297 L 1.8333,-2.4056 L 1.875,-2.3816 L 1.9167,-2.3575 L 1.9583,-2.3335 L 2.0,-2.3094 L 2.0417,-2.2853 L 2.0833,-2.2613 L 2.125,-2.2372 L 2.1667,-2.2132 L 2.2083,-2.1891 L 2.25,-2.1651 L 2.2917,-2.141 L 2.3333,-2.117 L 2.375,-2.0929 L 2.4167,-2.0688 L 2.4583,-2.0448 L 2.5,-2.0207 L 2.5417,-1.9967 L 2.5833,-1.9726 L 2.625,-1.9486 L 2.6667,-1.9245 L 2.7083,-1.9004 L 2.75,-1.8764 L 2.7917,-1.8523 L 2.8333,-1.8283 L 2.875,-1.8042 L 2.9167,-1.7802 L 2.9583,-1.7561 L 3.0,-1.7321" />
      <path d="M -3.0,-1.7321 L -2.9583,-1.7561 L -2.9167,-1.7802 L -2.875,-1.8042 L -2.8333,-1.8283 L -2.7917,-1.8523 L -2.75,-1.8764 L -2.7083,-1.9004 L -2.6667,-1.9245 L -2.625,-1.9486 L -2.5833,-1.9726 L -2.5417,-1.9967 L -2.5,-2.0207 L -2.4583,-2.0448 L -2.4167,-2.0688 L -2.375,-2.0929 L -2.3333,-2.117 L -2.2917,-2.141 L -2.25,-2.1651 L -2.2083,-2.1891 L -2.1667,-2.2132 L -2.125,-2.2372 L -2.0833,-2.2613 L -2.0417,-2.2853 L -2.0,-2.3094 L -1.9583,-2.3335 L -1.9167,-2.3575 L -1.875,-2.3816 L -1.8333,-2.4056 L -1.7917,-2.4297 L -1.75,-2.4537 L -1.7083,-2.4778 L -1.6667,-2.5019 L -1.625,-2.5259 L -1.5833,-2.55 L -1.5417,-2.574 L -1.5,-2.5981 L -1.4583,-2.6221 L -1.4167,-2.6462 L -1.375,-2.6702 L -1.3333,-2.6943 L -1.2917,-2.7184 L -1.25,-2.7424 L -1.2083,-2.7665 L -1.1667,-2.7905 L -1.125,-2.8146 L -1.0833,-2.8386 L -1.0417,-2.8627 L -1.0,-2.8868 L -0.9583,-2.9108 L -0.9167,-2.9349 L -0.875,-2.9589 L -0.8333,-2.983 L -0.7917,-3.007 L -0.75,-3.0311 L -0.7083,-3.0551 L -0.6667,-3.0792 L -0.625,-3.1033 L -0.5833,-3.1273 L -0.5417,-3.1514 L -0.5,-3.1754 L -0.4583,-3.1995 L -0.4167,-3.2235 L -0.375,-3.2476 L -0.3333,-3.2717 L -0.2917,-3.2957 L -0.25,-3.3198 L -0.2083,-3.3438 L -0.1667,-3.3679 L -0.125,-3.3919 L -0.0833,-3.416 L -0.0417,-3.44 L -0.0,-3.4641" />
      <path d="M -3.0,1.7321 L -3.0,1.6839 L -3.0,1.6358 L -3.0,1.5877 L -3.0,1.5396 L -3.0,1.4915 L -3.0,1.4434 L -3.0,1.3953 L -3.0,1.3472 L -3.0,1.299 L -3.0,1.2509 L -3.0,1.2028 L -3.0,1.1547 L -3.0,1.1066 L -3.0,1.0585 L -3.0,1.0104 L -3.0,0.9623 L -3.0,0.9141 L -3.0,0.866 L -3.0,0.8179 L -3.0,0.7698 L -3.0,0.7217 L -3.0,0.6736 L -3.0,0.6255 L -3.0,0.5774 L -3.0,0.5292 L -3.0,0.4811 L -3.0,0.433 L -3.0,0.3849 L -3.0,0.3368 L -3.0,0.2887 L -3.0,0.2406 L -3.0,0.1925 L -3.0,0.1443 L -3.0,0.0962 L -3.0,0.0481 L -3.0,0.0 L -3.0,-0.0481 L -3.0,-0.0962 L -3.0,-0.1443 L -3.0,-0.1925 L -3.0,-0.2406 L -3.0,-0.2887 L -3.0,-0.3368 L -3.0,-0.3849 L -3.0,-0.433 L -3.0,-0.4811 L -3.0,-0.5292 L -3.0,-0.5774 L -3.0,-0.6255 L -3.0,-0.6736 L -3.0,-0.7217 L -3.0,-0.7698 L -3.0,-0.8179 L -3.0,-0.866 L -3.0,-0.9141 L -3.0,-0.9623 L -3.0,-1.0104 L -3.0,-1.0585 L -3.0,-1.1066 L -3.0,-1.1547 L -3.0,-1.2028 L -3.0,-1.2509 L -3.0,-1.299 L -3.0,-1.3472 L -3.0,-1.3953 L -3.0,-1.4434 L -3.0,-1.4915 L -3.0,-1.5396 L -3.0,-1.5877 L -3.0,-1.6358 L -3.0,-1.6839 L -3.0,-1.7321" />
      <path d="M 0.0,3.4641 L -0.0417,3.44 L -0.0833,3.416 L -0.125,3.3919 L -0.1667,3.3679 L -0.2083,3.3438 L -0.25,3.3198 L -0.2917,3.2957 L -0.3333,3.2717 L -0.375,3.2476 L -0.4167,3.2235 L -0.4583,3.1995 L -0.5,3.1754 L -0.5417,3.1514 L -0.5833,3.1273 L -0.625,3.1033 L -0.6667,3.0792 L -0.7083,3.0551 L -0.75,3.0311 L -0.7917,3.007 L -0.8333,2.983 L -0.875,2.9589 L -0.9167,2.9349 L -0.9583,2.9108 L -1.0,2.8868 L -1.0417,2.8627 L -1.0833,2.8386 L -1.125,2.8146 L -1.1667,2.7905 L -1.2083,2.7665 L -1.25,2.7424 L -1.2917,2.7184 L -1.3333,2.6943 L -1.375,2.6702 L -1.4167,2.6462 L -1.4583,2.6221 L -1.5,2.5981 L -1.5417,2.574 L -1.5833,2.55 L -1.625,2.5259 L -1.6667,2.5019 L -1.7083,2.4778 L -1.75,2.4537 L -1.7917,2.4297 L -1.8333,2.4056 L -1.875,2.3816 L -1.9167,2.3575 L -1.9583,2.3335 L -2.0,2.3094 L -2.0417,2.2853 L -2.0833,2.2613 L -2.125,2.2372 L -2.1667,2.2132 L -2.2083,2.1891 L -2.25,2.1651 L -2.2917,2.141 L -2.3333,2.117 L -2.375,2.0929 L -2.4167,2.0688 L -2.4583,2.0448 L -2.5,2.0207 L -2.5417,1.9967 L -2.5833,1.9726 L -2.625,1.9486 L -2.6667,1.9245 L -2.7083,1.9004 L -2.75,1.8764 L -2.7917,1.8523 L -2.8333,1.8283 L -2.875,1.8042 L -2.9167,1.7802 L -2.9583,1.7561 L -3.0,1.7321" />
      <path d="M 0.0,4.07 L -0.3547,4.0545 L -0.7067,4.0082 L -1.0534,3.9313 L -1.392,3.8245 L -1.7201,3.6887 L -2.035,3.5247 L -2.3345,3.3339 L -2.6161,3.1178 L -2.8779,2.8779 L -3.1178,2.6161 L -3.3339,2.3345 L -3.5247,2.035 L -3.6887,1.7201 L -3.8245,1.392 L -3.9313,1.0534 L -4.0082,0.7067 L -4.0545,0.3547 L -4.07,0.0 L -4.0545,-0.3547 L -4.0082,-0.7067 L -3.9313,-1.0534 L -3.8245,-1.392 L -3.6887,-1.7201 L -3.5247,-2.035 L -3.3339,-2.3345 L -3.1178,-2.6161 L -2.8779,-2.8779 L -2.6161,-3.1178 L -2.3345,-3.3339 L -2.035,-3.5247 L -1.7201,-3.6887 L -1.392,-3.8245 L -1.0534,-3.9313 L -0.7067,-4.0082 L -0.3547,-4.0545 L -0.0,-4.07 L 0.3547,-4.0545 L 0.7067,-4.0082 L 1.0534,-3.9313 L 1.392,-3.8245 L 1.7201,-3.6887 L 2.035,-3.5247 L 2.3345,-3.3339 L 2.6161,-3.1178 L 2.8779,-2.8779 L 3.1178,-2.6161 L 3.3339,-2.3345 L 3.5247,-2.035 L 3.6887,-1.7201 L 3.8245,-1.392 L 3.9313,-1.0534 L 4.0082,-0.7067 L 4.0545,-0.3547 L 4.07,-0.0 L 4.0545,0.3547 L 4.0082,0.7067 L 3.9313,1.0534 L 3.8245,1.392 L 3.6887,1.7201 L 3.5247,2.035 L 3.3339,2.3345 L 3.1178,2.6161 L 2.8779,2.8779 L 2.6161,3.1178 L 2.3345,3.3339 L 2.035,3.5247 L 1.7201,3.6887 L 1.392,3.8245 L 1.0534,3.9313 L 0.7067,4.0082 L 0.3547,4.0545 L 0.0,4.07" />
      <path d="M 0.0,4.07 L -0.3547,4.0545 L -0.7067,4.0082 L -1.0534,3.9313 L -1.392,3.8245 L -1.7201,3.6887 L -2.035,3.5247 L -2.3345,3.3339 L -2.6161,3.1178 L -2.8779,2.8779 L -3.1178,2.6161 L -3.3339,2.3345 L -3.5247,2.035 L -3.6887,1.7201 L -3.8245,1.392 L -3.9313,1.0534 L -4.0082,0.7067 L -4.0545,0.3547 L -4.07,0.0 L -4.0545,-0.3547 L -4.0082,-0.7067 L -3.9313,-1.0534 L -3.8245,-1.392 L -3.6887,-1.7201 L -3.5247,-2.035 L -3.3339,-2.3345 L -3.1178,-2.6161 L -2.8779,-2.8779 L -2.6161,-3.1178 L -2.3345,-3.3339 L -2.035,-3.5247 L -1.7201,-3.6887 L -1.392,-3.8245 L -1.0534,-3.9313 L -0.7067,-4.0082 L -0.3547,-4.0545 L -0.0,-4.07 L 0.3547,-4.0545 L 0.7067,-4.0082 L 1.0534,-3.9313 L 1.392,-3.8245 L 1.7201,-3.6887 L 2.035,-3.5247 L 2.3345,-3.3339 L 2.6161,-3.1178 L 2.8779,-2.8779 L 3.1178,-2.6161 L 3.3339,-2.3345 L 3.5247,-2.035 L 3.6887,-1.7201 L 3.8245,-1.392 L 3.9313,-1.0534 L 4.0082,-0.7067 L 4.0545,-0.3547 L 4.07,-0.0 L 4.0545,0.3547 L 4.0082,0.7067 L 3.9313,1.0534 L 3.8245,1.392 L 3.6887,1.7201 L 3.5247,2.035 L 3.3339,2.3345 L 3.1178,2.6161 L 2.8779,2.8779 L 2.6161,3.1178 L 2.3345,3.3339 L 2.035,3.5247 L 1.7201,3.6887 L 1.392,3.8245 L 1.0534,3.9313 L 0.7067,4.0082 L 0.3547,4.0545 L 0.0,4.07" />
      <path d="M 10.0954,6.0 L 10.1176,5.8362 L 10.1266,5.6697 L 10.1334,5.503 L 10.139,5.3364 L 10.1438,5.1697 L 10.1481,5.003 L 10.1519,4.8363 L 10.1553,4.6695 L 10.1585,4.5028 L 10.1614,4.3361 L 10.164,4.1693 L 10.1665,4.0026 L 10.1688,3.8358 L 10.1709,3.6691 L 10.1729,3.5023 L 10.1747,3.3356 L 10.1764,3.1688 L 10.178,3.0021 L 10.1795,2.8353 L 10.1809,2.6686 L 10.1821,2.5018 L 10.1833,2.335 L 10.1844,2.1683 L 10.1854,2.0015 L 10.1862,1.8348 L 10.1871,1.668 L 10.1878,1.5012 L 10.1884,1.3345 L 10.189,1.1677 L 10.1895,1.0009 L 10.1899,0.8342 L 10.1902,0.6674 L 10.1905,0.5007 L 10.1907,0.3339 L 10.1908,0.1671 L 10.1908,0.0004 L 10.1908,-0.1664 L 10.1907,-0.3332 L 10.1905,-0.4999 L 10.1902,-0.6667 L 10.1899,-0.8335 L 10.1895,-1.0002 L 10.189,-1.167 L 10.1884,-1.3338 L 10.1878,-1.5005 L 10.1871,-1.6673 L 10.1862,-1.834 L 10.1854,-2.0008 L 10.1844,-2.1676 L 10.1833,-2.3343 L 10.1821,-2.5011 L 10.1809,-2.6678 L 10.1795,-2.8346 L 10.178,-3.0014 L 10.1764,-3.1681 L 10.1747,-3.3349 L 10.1729,-3.5016 L 10.1709,-3.6684 L 10.1688,-3.8351 L 10.1665,-4.0019 L 10.164,-4.1686 L 10.1614,-4.3354 L 10.1585,-4.5021 L 10.1553,-4.6689 L 10.1519,-4.8356 L 10.1481,-5.0023 L 10.1439,-5.169 L 10.139,-5.3357 L 10.1334,-5.5024 L 10.1267,-5.6691 L 10.1176,-5.8356 L 10.0954,-6.0" />
      <path d="M 10.0477,1.7321 L 10.0484,1.7561 L 10.049,1.7802 L 10.0497,1.8042 L 10.0504,1.8283 L 10.051,1.8523 L 10.0517,1.8764 L 10.0523,1.9004 L 10.053,1.9245 L 10.0537,1.9486 L 10.0543,1.9726 L 10.055,1.9967 L 10.0557,2.0207 L 10.0563,2.0448 L 10.057,2.0688 L 10.0576,2.0929 L 10.0583,2.117 L 10.059,2.141 L 10.0596,2.1651 L 10.0603,2.1891 L 10.061,2.2132 L 10.0616,2.2372 L 10.0623,2.2613 L 10.0629,2.2853 L 10.0636,2.3094 L 10.0643,2.3335 L 10.0649,2.3575 L 10.0656,2.3816 L 10.0663,2.4056 L 10.0669,2.4297 L 10.0676,2.4537 L 10.0682,2.4778 L 10.0689,2.5019 L 10.0696,2.5259 L 10.0702,2.55 L 10.0709,2.574 L 10.0716,2.5981 L 10.0722,2.6221 L 10.0729,2.6462 L 10.0735,2.6702 L 10.0742,2.6943 L 10.0749,2.7184 L 10.0755,2.7424 L 10.0762,2.7665 L 10.0769,2.7905 L 10.0775,2.8146 L 10.0782,2.8386 L 10.0788,2.8627 L 10.0795,2.8868 L 10.0802,2.9108 L 10.0808,2.9349 L 10.0815,2.9589 L 10.0822,2.983 L 10.0828,3.007 L 10.0835,3.0311 L 10.0841,3.0551 L 10.0848,3.0792 L 10.0855,3.1033 L 10.0861,3.1273 L 10.0868,3.1514 L 10.0875,3.1754 L 10.0881,3.1995 L 10.0888,3.2235 L 10.0894,3.2476 L 10.0901,3.2717 L 10.0908,3.2957 L 10.0914,3.3198 L 10.0921,3.3438 L 10.0928,3.3679 L 10.0934,3.3919 L 10.0941,3.416 L 10.0947,3.44 L 10.0954,3.4641" />
      <path d="M 10.0477,-1.7321 L 10.0477,-1.6839 L 10.0477,-1.6358 L 10.0477,-1.5877 L 10.0477,-1.5396 L 10.0477,-1.4915 L 10.0477,-1.4434 L 10.0477,-1.3953 L 10.0477,-1.3472 L 10.0477,-1.299 L 10.0477,-1.2509 L 10.0477,-1.2028 L 10.0477,-1.1547 L 10.0477,-1.1066 L 10.0477,-1.0585 L 10.0477,-1.0104 L 10.0477,-0.9623 L 10.0477,-0.9141 L 10.0477,-0.866 L 10.0477,-0.8179 L 10.0477,-0.7698 L 10.0477,-0.7217 L 10.0477,-0.6736 L 10.0477,-0.6255 L 10.0477,-0.5774 L 10.0477,-0.5292 L 10.0477,-0.4811 L 10.0477,-0.433 L 10.0477,-0.3849 L 10.0477,-0.3368 L 10.0477,-0.2887 L 10.0477,-0.2406 L 10.0477,-0.1925 L 10.0477,-0.1443 L 10.0477,-0.0962 L 10.0477,-0.0481 L 10.0477,0.0 L 10.0477,0.0481 L 10.0477,0.0962 L 10.0477,0.1443 L 10.0477,0.1925 L 10.0477,0.2406 L 10.0477,0.2887 L 10.0477,0.3368 L 10.0477,0.3849 L 10.0477,0.433 L 10.0477,0.4811 L 10.0477,0.5292 L 10.0477,0.5774 L 10.0477,0.6255 L 10.0477,0.6736 L 10.0477,0.7217 L 10.0477,0.7698 L 10.0477,0.8179 L 10.0477,0.866 L 10.0477,0.9141 L 10.0477,0.9623 L 10.0477,1.0104 L 10.0477,1.0585 L 10.0477,1.1066 L 10.0477,1.1547 L 10.0477,1.2028 L 10.0477,1.2509 L 10.0477,1.299 L 10.0477,1.3472 L 10.0477,1.3953 L 10.0477,1.4434 L 10.0477,1.4915 L 10.0477,1.5396 L 10.0477,1.5877 L 10.0477,1.6358 L 10.0477,1.6839 L 10.0477,1.7321" />
      <path d="M 10.0954,-3.4641 L 10.0947,-3.44 L 10.0941,-3.416 L 10.0934,-3.3919 L 10.0928,-3.3679 L 10.0921,-3.3438 L 10.0914,-3.3198 L 10.0908,-3.2957 L 10.0901,-3.2717 L 10.0894,-3.2476 L 10.0888,-3.2235 L 10.0881,-3.1995 L 10.0875,-3.1754 L 10.0868,-3.1514 L 10.0861,-3.1273 L 10.0855,-3.1033 L 10.0848,-3.0792 L 10.0841,-3.0551 L 10.0835,-3.0311 L 10.0828,-3.007 L 10.0822,-2.983 L 10.0815,-2.9589 L 10.0808,-2.9349 L 10.0802,-2.9108 L 10.0795,-2.8868 L 10.0788,-2.8627 L 10.0782,-2.8386 L 10.0775,-2.8146 L 10.0769,-2.7905 L 10.0762,-2.7665 L 10.0755,-2.7424 L 10.0749,-2.7184 L 10.0742,-2.6943 L 10.0735,-2.6702 L 10.0729,-2.6462 L 10.0722,-2.6221 L 10.0716,-2.5981 L 10.0709,-2.574 L 10.0702,-2.55 L 10.0696,-2.5259 L 10.0689,-2.5019 L 10.0682,-2.4778 L 10.0676,-2.4537 L 10.0669,-2.4297 L 10.0663,-2.4056 L 10.0656,-2.3816 L 10.0649,-2.3575 L 10.0643,-2.3335 L 10.0636,-2.3094 L 10.0629,-2.2853 L 10.0623,-2.2613 L 10.0616,-2.2372 L 10.061,-2.2132 L 10.0603,-2.1891 L 10.0596,-2.1651 L 10.059,-2.141 L 10.0583,-2.117 L 10.0576,-2.0929 L 10.057,-2.0688 L 10.0563,-2.0448 L 10.0557,-2.0207 L 10.055,-1.9967 L 10.0543,-1.9726 L 10.0537,-1.9486 L 10.053,-1.9245 L 10.0523,-1.9004 L 10.0517,-1.8764 L 10.051,-1.8523 L 10.0504,-1.8283 L 10.0497,-1.8042 L 10.049,-1.7802 L 10.0484,-1.7561 L 10.0477,-1.7321" />
      <path d="M 10.1431,-1.7321 L 10.1424,-1.7561 L 10.1418,-1.7802 L 10.1411,-1.8042 L 10.1405,-1.8283 L 10.1398,-1.8523 L 10.1391,-1.8764 L 10.1385,-1.9004 L 10.1378,-1.9245 L 10.1371,-1.9486 L 10.1365,-1.9726 L 10.1358,-1.9967 L 10.1352,-2.0207 L 10.1345,-2.0448 L 10.1338,-2.0688 L 10.1332,-2.0929 L 10.1325,-2.117 L 10.1318,-2.141 L 10.1312,-2.1651 L 10.1305,-2.1891 L 10.1299,-2.2132 L 10.1292,-2.2372 L 10.1285,-2.2613 L 10.1279,-2.2853 L 10.1272,-2.3094 L 10.1265,-2.3335 L 10.1259,-2.3575 L 10.1252,-2.3816 L 10.1246,-2.4056 L 10.1239,-2.4297 L 10.1232,-2.4537 L 10.1226,-2.4778 L 10.1219,-2.5019 L 10.1212,-2.5259 L 10.1206,-2.55 L 10.1199,-2.574 L 10.1193,-2.5981 L 10.1186,-2.6221 L 10.1179,-2.6462 L 10.1173,-2.6702 L 10.1166,-2.6943 L 10.1159,-2.7184 L 10.1153,-2.7424 L 10.1146,-2.7665 L 10.114,-2.7905 L 10.1133,-2.8146 L 10.1126,-2.8386 L 10.112,-2.8627 L 10.1113,-2.8868 L 10.1106,-2.9108 L 10.11,-2.9349 L 10.1093,-2.9589 L 10.1087,-2.983 L 10.108,-3.007 L 10.1073,-3.0311 L 10.1067,-3.0551 L 10.106,-3.0792 L 10.1053,-3.1033 L 10.1047,-3.1273 L 10.104,-3.1514 L 10.1034,-3.1754 L 10.1027,-3.1995 L 10.102,-3.2235 L 10.1014,-3.2476 L 10.1007,-3.2717 L 10.1,-3.2957 L 10.0994,-3.3198 L 10.0987,-3.3438 L 10.0981,-3.3679 L 10.0974,-3.3919 L 10.0967,-3.416 L 10.0961,-3.44 L 10.0954,-3.4641" />
      <path d="M 10.1431,1.7321 L 10.1431,1.6839 L 10.1431,1.6358 L 10.1431,1.5877 L 10.1431,1.5396 L 10.1431,1.4915 L 10.1431,1.4434 L 10.1431,1.3953 L 10.1431,1.3472 L 10.1431,1.299 L 10.1431,1.2509 L 10.1431,1.2028 L 10.1431,1.1547 L 10.1431,1.1066 L 10.1431,1.0585 L 10.1431,1.0104 L 10.1431,0.9623 L 10.1431,0.9141 L 10.1431,0.866 L 10.1431,0.8179 L 10.1431,0.7698 L 10.1431,0.7217 L 10.1431,0.6736 L 10.1431,0.6255 L 10.1431,0.5774 L 10.1431,0.5292 L 10.1431,0.4811 L 10.1431,0.433 L 10.1431,0.3849 L 10.1431,0.3368 L 10.1431,0.2887 L 10.1431,0.2406 L 10.1431,0.1925 L 10.1431,0.1443 L 10.1431,0.0962 L 10.1431,0.0481 L 10.1431,0.0 L 10.1431,-0.0481 L 10.1431,-0.0962 L 10.1431,-0.1443 L 10.1431,-0.1925 L 10.1431,-0.2406 L 10.1431,-0.2887 L 10.1431,-0.3368 L 10.1431,-0.3849 L 10.1431,-0.433 L 10.1431,-0.4811 L 10.1431,-0.5292 L 10.1431,-0.5774 L 10.1431,-0.6255 L 10.1431,-0.6736 L 10.1431,-0.7217 L 10.1431,-0.7698 L 10.1431,-0.8179 L 10.1431,-0.866 L 10.1431,-0.9141 L 10.1431,-0.9623 L 10.1431,-1.0104 L 10.1431,-1.0585 L 10.1431,-1.1066 L 10.1431,-1.1547 L 10.1431,-1.2028 L 10.1431,-1.2509 L 10.1431,-1.299 L 10.1431,-1.3472 L 10.1431,-1.3953 L 10.1431,-1.4434 L 10.1431,-1.4915 L 10.1431,-1.5396 L 10.1431,-1.5877 L 10.1431,-1.6358 L 10.1431,-1.6839 L 10.1431,-1.7321" />
      <path d="M 10.0954,3.4641 L 10.0961,3.44 L 10.0967,3.416 L 10.0974,3.3919 L 10.0981,3.3679 L 10.0987,3.3438 L 10.0994,3.3198 L 10.1,3.2957 L 10.1007,3.2717 L 10.1014,3.2476 L 10.102,3.2235 L 10.1027,3.1995 L 10.1034,3.1754 L 10.104,3.1514 L 10.1047,3.1273 L 10.1053,3.1033 L 10.106,3.0792 L 10.1067,3.0551 L 10.1073,3.0311 L 10.108,3.007 L 10.1087,2.983 L 10.1093,2.9589 L 10.11,2.9349 L 10.1106,2.9108 L 10.1113,2.8868 L 10.112,2.8627 L 10.1126,2.8386 L 10.1133,2.8146 L 10.114,2.7905 L 10.1146,2.7665 L 10.1153,2.7424 L 10.1159,2.7184 L 10.1166,2.6943 L 10.1173,2.6702 L 10.1179,2.6462 L 10.1186,2.6221 L 10.1193,2.5981 L 10.1199,2.574 L 10.1206,2.55 L 10.1212,2.5259 L 10.1219,2.5019 L 10.1226,2.4778 L 10.1232,2.4537 L 10.1239,2.4297 L 10.1246,2.4056 L 10.1252,2.3816 L 10.1259,2.3575 L 10.1265,2.3335 L 10.1272,2.3094 L 10.1279,2.2853 L 10.1285,2.2613 L 10.1292,2.2372 L 10.1299,2.2132 L 10.1305,2.1891 L 10.1312,2.1651 L 10.1318,2.141 L 10.1325,2.117 L 10.1332,2.0929 L 10.1338,2.0688 L 10.1345,2.0448 L 10.1352,2.0207 L 10.1358,1.9967 L 10.1365,1.9726 L 10.1371,1.9486 L 10.1378,1.9245 L 10.1385,1.9004 L 10.1391,1.8764 L 10.1398,1.8523 L 10.1405,1.8283 L 10.1411,1.8042 L 10.1418,1.7802 L 10.1424,1.7561 L 10.1431,1.7321" />
      <path d="M 34.1625,4.07 L 34.1641,3.957 L 34.1656,3.8439 L 34.1671,3.7309 L 34.1685,3.6178 L 34.1698,3.5048 L 34.1711,3.3917 L 34.1723,3.2787 L 34.1734,3.1656 L 34.1745,3.0525 L 34.1755,2.9395 L 34.1765,2.8264 L 34.1775,2.7134 L 34.1784,2.6003 L 34.1792,2.4873 L 34.18,2.3742 L 34.1807,2.2612 L 34.1815,2.1481 L 34.1821,2.035 L 34.1828,1.922 L 34.1833,1.8089 L 34.1839,1.6959 L 34.1844,1.5828 L 34.1849,1.4698 L 34.1853,1.3567 L 34.1857,1.2436 L 34.1861,1.1306 L 34.1864,1.0175 L 34.1867,0.9045 L 34.1869,0.7914 L 34.1872,0.6784 L 34.1874,0.5653 L 34.1875,0.4522 L 34.1876,0.3392 L 34.1877,0.2261 L 34.1878,0.1131 L 34.1878,0.0 L 34.1878,-0.1131 L 34.1877,-0.2261 L 34.1876,-0.3392 L 34.1875,-0.4522 L 34.1874,-0.5653 L 34.1872,-0.6784 L 34.1869,-0.7914 L 34.1867,-0.9045 L 34.1864,-1.0175 L 34.1861,-1.1306 L 34.1857,-1.2436 L 34.1853,-1.3567 L 34.1849,-1.4698 L 34.1844,-1.5828 L 34.1839,-1.6959 L 34.1833,-1.8089 L 34.1828,-1.922 L 34.1821,-2.035 L 34.1815,-2.1481 L 34.1807,-2.2612 L 34.18,-2.3742 L 34.1792,-2.4873 L 34.1784,-2.6003 L 34.1775,-2.7134 L 34.1765,-2.8264 L 34.1755,-2.9395 L 34.1745,-3.0525 L 34.1734,-3.1656 L 34.1723,-3.2787 L 34.1711,-3.3917 L 34.1698,-3.5048 L 34.1685,-3.6178 L 34.1671,-3.7309 L 34.1656,-3.8439 L 34.1641,-3.957 L 34.1625,-4.07" />
      <path d="M 14.5471,1.7321 L 14.5478,1.7561 L 14.5485,1.7802 L 14.5491,1.8042 L 14.5498,1.8283 L 14.5504,1.8523 L 14.5511,1.8764 L 14.5518,1.9004 L 14.5524,1.9245 L 14.5531,1.9486 L 14.5538,1.9726 L 14.5544,1.9967 L 14.5551,2.0207 L 14.5557,2.0448 L 14.5564,2.0688 L 14.5571,2.0929 L 14.5577,2.117 L 14.5584,2.141 L 14.5591,2.1651 L 14.5597,2.1891 L 14.5604,2.2132 L 14.561,2.2372 L 14.5617,2.2613 L 14.5624,2.2853 L 14.563,2.3094 L 14.5637,2.3335 L 14.5644,2.3575 L 14.565,2.3816 L 14.5657,2.4056 L 14.5663,2.4297 L 14.567,2.4537 L 14.5677,2.4778 L 14.5683,2.5019 L 14.569,2.5259 L 14.5697,2.55 L 14.5703,2.574 L 14.571,2.5981 L 14.5716,2.6221 L 14.5723,2.6462 L 14.573,2.6702 L 14.5736,2.6943 L 14.5743,2.7184 L 14.575,2.7424 L 14.5756,2.7665 L 14.5763,2.7905 L 14.577,2.8146 L 14.5776,2.8386 L 14.5783,2.8627 L 14.5789,2.8868 L 14.5796,2.9108 L 14.5803,2.9349 L 14.5809,2.9589 L 14.5816,2.983 L 14.5823,3.007 L 14.5829,3.0311 L 14.5836,3.0551 L 14.5842,3.0792 L 14.5849,3.1033 L 14.5856,3.1273 L 14.5862,3.1514 L 14.5869,3.1754 L 14.5876,3.1995 L 14.5882,3.2235 L 14.5889,3.2476 L 14.5895,3.2717 L 14.5902,3.2957 L 14.5909,3.3198 L 14.5915,3.3438 L 14.5922,3.3679 L 14.5929,3.3919 L 14.5935,3.416 L 14.5942,3.44 L 14.5948,3.4641" />
      <path d="M 14.5948,3.4641 L 14.5323,3.4641 L 14.4699,3.4641 L 14.4074,3.4641 L 14.3449,3.4641 L 14.2824,3.4641 L 14.2199,3.4641 L 14.1574,3.4641 L 14.0949,3.4641 L 14.0324,3.4641 L 13.9699,3.4641 L 13.9074,3.4641 L 13.8449,3.4641 L 13.7824,3.4641 L 13.7199,3.4641 L 13.6575,3.4641 L 13.595,3.4641 L 13.5325,3.4641 L 13.47,3.4641 L 13.4075,3.4641 L 13.345,3.4641 L 13.2825,3.4641 L 13.22,3.4641 L 13.1575,3.4641 L 13.095,3.4641 L 13.0325,3.4641 L 12.97,3.4641 L 12.9076,3.4641 L 12.8451,3.4641 L 12.7826,3.4641 L 12.7201,3.4641 L 12.6576,3.4641 L 12.5951,3.4641 L 12.5326,3.4641 L 12.4701,3.4641 L 12.4076,3.4641 L 12.3451,3.4641 L 12.2826,3.4641 L 12.2201,3.4641 L 12.1576,3.4641 L 12.0952,3.4641 L 12.0327,3.4641 L 11.9702,3.4641 L 11.9077,3.4641 L 11.8452,3.4641 L 11.7827,3.4641 L 11.7202,3.4641 L 11.6577,3.4641 L 11.5952,3.4641 L 11.5327,3.4641 L 11.4702,3.4641 L 11.4077,3.4641 L 11.3453,3.4641 L 11.2828,3.4641 L 11.2203,3.4641 L 11.1578,3.4641 L 11.0953,3.4641 L 11.0328,3.4641 L 10.9703,3.4641 L 10.9078,3.4641 L 10.8453,3.4641 L 10.7828,3.4641 L 10.7203,3.4641 L 10.6578,3.4641 L 10.5953,3.4641 L 10.5329,3.4641 L 10.4704,3.4641 L 10.4079,3.4641 L 10.3454,3.4641 L 10.2829,3.4641 L 10.2204,3.4641 L 10.1579,3.4641 L 10.0954,3.4641" />
      <path d="M 14.5471,1.7321 L 14.4846,1.7321 L 14.4222,1.7321 L 14.3597,1.7321 L 14.2972,1.7321 L 14.2347,1.7321 L 14.1722,1.7321 L 14.1097,1.7321 L 14.0472,1.7321 L 13.9847,1.7321 L 13.9222,1.7321 L 13.8597,1.7321 L 13.7972,1.7321 L 13.7347,1.7321 L 13.6722,1.7321 L 13.6098,1.7321 L 13.5473,1.7321 L 13.4848,1.7321 L 13.4223,1.7321 L 13.3598,1.7321 L 13.2973,1.7321 L 13.2348,1.7321 L 13.1723,1.7321 L 13.1098,1.7321 L 13.0473,1.7321 L 12.9848,1.7321 L 12.9223,1.7321 L 12.8598,1.7321 L 12.7974,1.7321 L 12.7349,1.7321 L 12.6724,1.7321 L 12.6099,1.7321 L 12.5474,1.7321 L 12.4849,1.7321 L 12.4224,1.7321 L 12.3599,1.7321 L 12.2974,1.7321 L 12.2349,1.7321 L 12.1724,1.7321 L 12.1099,1.7321 L 12.0475,1.7321 L 11.985,1.7321 L 11.9225,1.7321 L 11.86,1.7321 L 11.7975,1.7321 L 11.735,1.7321 L 11.6725,1.7321 L 11.61,1.7321 L 11.5475,1.7321 L 11.485,1.7321 L 11.4225,1.7321 L 11.36,1.7321 L 11.2975,1.7321 L 11.2351,1.7321 L 11.1726,1.7321 L 11.1101,1.7321 L 11.0476,1.7321 L 10.9851,1.7321 L 10.9226,1.7321 L 10.8601,1.7321 L 10.7976,1.7321 L 10.7351,1.7321 L 10.6726,1.7321 L 10.6101,1.7321 L 10.5476,1.7321 L 10.4851,1.7321 L 10.4227,1.7321 L 10.3602,1.7321 L 10.2977,1.7321 L 10.2352,1.7321 L 10.1727,1.7321 L 10.1102,1.7321 L 10.0477,1.7321" />
      <path d="M 14.5471,-1.7321 L 14.5471,-1.6839 L 14.5471,-1.6358 L 14.5471,-1.5877 L 14.5471,-1.5396 L 14.5471,-1.4915 L 14.5471,-1.4434 L 14.5471,-1.3953 L 14.5471,-1.3472 L 14.5471,-1.299 L 14.5471,-1.2509 L 14.5471,-1.2028 L 14.5471,-1.1547 L 14.5471,-1.1066 L 14.5471,-1.0585 L 14.5471,-1.0104 L 14.5471,-0.9623 L 14.5471,-0.9141 L 14.5471,-0.866 L 14.5471,-0.8179 L 14.5471,-0.7698 L 14.5471,-0.7217 L 14.5471,-0.6736 L 14.5471,-0.6255 L 14.5471,-0.5774 L 14.5471,-0.5292 L 14.5471,-0.4811 L 14.5471,-0.433 L 14.5471,-0.3849 L 14.5471,-0.3368 L 14.5471,-0.2887 L 14.5471,-0.2406 L 14.5471,-0.1925 L 14.5471,-0.1443 L 14.5471,-0.0962 L 14.5471,-0.0481 L 14.5471,0.0 L 14.5471,0.0481 L 14.5471,0.0962 L 14.5471,0.1443 L 14.5471,0.1925 L 14.5471,0.2406 L 14.5471,0.2887 L 14.5471,0.3368 L 14.5471,0.3849 L 14.5471,0.433 L 14.5471,0.4811 L 14.5471,0.5292 L 14.5471,0.5774 L 14.5471,0.6255 L 14.5471,0.6736 L 14.5471,0.7217 L 14.5471,0.7698 L 14.5471,0.8179 L 14.5471,0.866 L 14.5471,0.9141 L 14.5471,0.9623 L 14.5471,1.0104 L 14.5471,1.0585 L 14.5471,1.1066 L 14.5471,1.1547 L 14.5471,1.2028 L 14.5471,1.2509 L 14.5471,1.299 L 14.5471,1.3472 L 14.5471,1.3953 L 14.5471,1.4434 L 14.5471,1.4915 L 14.5471,1.5396 L 14.5471,1.5877 L 14.5471,1.6358 L 14.5471,1.6839 L 14.5471,1.7321" />
      <path d="M 14.5471,-1.7321 L 14.4846,-1.7321 L 14.4222,-1.7321 L 14.3597,-1.7321 L 14.2972,-1.7321 L 14.2347,-1.7321 L 14.1722,-1.7321 L 14.1097,-1.7321 L 14.0472,-1.7321 L 13.9847,-1.7321 L 13.9222,-1.7321 L 13.8597,-1.7321 L 13.7972,-1.7321 L 13.7347,-1.7321 L 13.6722,-1.7321 L 13.6098,-1.7321 L 13.5473,-1.7321 L 13.4848,-1.7321 L 13.4223,-1.7321 L 13.3598,-1.7321 L 13.2973,-1.7321 L 13.2348,-1.7321 L 13.1723,-1.7321 L 13.1098,-1.7321 L 13.0473,-1.7321 L 12.9848,-1.7321 L 12.9223,-1.7321 L 12.8598,-1.7321 L 12.7974,-1.7321 L 12.7349,-1.7321 L 12.6724,-1.7321 L 12.6099,-1.7321 L 12.5474,-1.7321 L 12.4849,-1.7321 L 12.4224,-1.7321 L 12.3599,-1.7321 L 12.2974,-1.7321 L 12.2349,-1.7321 L 12.1724,-1.7321 L 12.1099,-1.7321 L 12.0475,-1.7321 L 11.985,-1.7321 L 11.9225,-1.7321 L 11.86,-1.7321 L 11.7975,-1.7321 L 11.735,-1.7321 L 11.6725,-1.7321 L 11.61,-1.7321 L 11.5475,-1.7321 L 11.485,-1.7321 L 11.4225,-1.7321 L 11.36,-1.7321 L 11.2975,-1.7321 L 11.2351,-1.7321 L 11.1726,-1.7321 L 11.1101,-1.7321 L 11.0476,-1.7321 L 10.9851,-1.7321 L 10.9226,-1.7321 L 10.8601,-1.7321 L 10.7976,-1.7321 L 10.7351,-1.7321 L 10.6726,-1.7321 L 10.6101,-1.7321 L 10.5476,-1.7321 L 10.4851,-1.7321 L 10.4227,-1.7321 L 10.3602,-1.7321 L 10.2977,-1.7321 L 10.2352,-1.7321 L 10.1727,-1.7321 L 10.1102,-1.7321 L 10.0477,-1.7321" />
      <path d="M 14.5948,-3.4641 L 14.5942,-3.44 L 14.5935,-3.416 L 14.5929,-3.3919 L 14.5922,-3.3679 L 14.5915,-3.3438 L 14.5909,-3.3198 L 14.5902,-3.2957 L 14.5895,-3.2717 L 14.5889,-3.2476 L 14.5882,-3.2235 L 14.5876,-3.1995 L 14.5869,-3.1754 L 14.5862,-3.1514 L 14.5856,-3.1273 L 14.5849,-3.1033 L 14.5842,-3.0792 L 14.5836,-3.0551 L 14.5829,-3.0311 L 14.5823,-3.007 L 14.5816,-2.983 L 14.5809,-2.9589 L 14.5803,-2.9349 L 14.5796,-2.9108 L 14.5789,-2.8868 L 14.5783,-2.8627 L 14.5776,-2.8386 L 14.577,-2.8146 L 14.5763,-2.7905 L 14.5756,-2.7665 L 14.575,-2.7424 L 14.5743,-2.7184 L 14.5736,-2.6943 L 14.573,-2.6702 L 14.5723,-2.6462 L 14.5716,-2.6221 L 14.571,-2.5981 L 14.5703,-2.574 L 14.5697,-2.55 L 14.569,-2.5259 L 14.5683,-2.5019 L 14.5677,-2.4778 L 14.567,-2.4537 L 14.5663,-2.4297 L 14.5657,-2.4056 L 14.565,-2.3816 L 14.5644,-2.3575 L 14.5637,-2.3335 L 14.563,-2.3094 L 14.5624,-2.2853 L 14.5617,-2.2613 L 14.561,-2.2372 L 14.5604,-2.2132 L 14.5597,-2.1891 L 14.5591,-2.1651 L 14.5584,-2.141 L 14.5577,-2.117 L 14.5571,-2.0929 L 14.5564,-2.0688 L 14.5557,-2.0448 L 14.5551,-2.0207 L 14.5544,-1.9967 L 14.5538,-1.9726 L 14.5531,-1.9486 L 14.5524,-1.9245 L 14.5518,-1.9004 L 14.5511,-1.8764 L 14.5504,-1.8523 L 14.5498,-1.8283 L 14.5491,-1.8042 L 14.5485,-1.7802 L 14.5478,-1.7561 L 14.5471,-1.7321" />
      <path d="M 14.5948,-3.4641 L 14.5323,-3.4641 L 14.4699,-3.4641 L 14.4074,-3.4641 L 14.3449,-3.4641 L 14.2824,-3.4641 L 14.2199,-3.4641 L 14.1574,-3.4641 L 14.0949,-3.4641 L 14.0324,-3.4641 L 13.9699,-3.4641 L 13.9074,-3.4641 L 13.8449,-3.4641 L 13.7824,-3.4641 L 13.7199,-3.4641 L 13.6575,-3.4641 L 13.595,-3.4641 L 13.5325,-3.4641 L 13.47,-3.4641 L 13.4075,-3.4641 L 13.345,-3.4641 L 13.2825,-3.4641 L 13.22,-3.4641 L 13.1575,-3.4641 L 13.095,-3.4641 L 13.0325,-3.4641 L 12.97,-3.4641 L 12.9076,-3.4641 L 12.8451,-3.4641 L 12.7826,-3.4641 L 12.7201,-3.4641 L 12.6576,-3.4641 L 12.5951,-3.4641 L 12.5326,-3.4641 L 12.4701,-3.4641 L 12.4076,-3.4641 L 12.3451,-3.4641 L 12.2826,-3.4641 L 12.2201,-3.4641 L 12.1576,-3.4641 L 12.0952,-3.4641 L 12.0327,-3.4641 L 11.9702,-3.4641 L 11.9077,-3.4641 L 11.8452,-3.4641 L 11.7827,-3.4641 L 11.7202,-3.4641 L 11.6577,-3.4641 L 11.5952,-3.4641 L 11.5327,-3.4641 L 11.4702,-3.4641 L 11.4077,-3.4641 L 11.3453,-3.4641 L 11.2828,-3.4641 L 11.2203,-3.4641 L 11.1578,-3.4641 L 11.0953,-3.4641 L 11.0328,-3.4641 L 10.9703,-3.4641 L 10.9078,-3.4641 L 10.8453,-3.4641 L 10.7828,-3.4641 L 10.7203,-3.4641 L 10.6578,-3.4641 L 10.5953,-3.4641 L 10.5329,-3.4641 L 10.4704,-3.4641 L 10.4079,-3.4641 L 10.3454,-3.4641 L 10.2829,-3.4641 L 10.2204,-3.4641 L 10.1579,-3.4641 L 10.0954,-3.4641" />
      <path d="M 14.6425,-1.7321 L 14.6419,-1.7561 L 14.6412,-1.7802 L 14.6406,-1.8042 L 14.6399,-1.8283 L 14.6392,-1.8523 L 14.6386,-1.8764 L 14.6379,-1.9004 L 14.6372,-1.9245 L 14.6366,-1.9486 L 14.6359,-1.9726 L 14.6353,-1.9967 L 14.6346,-2.0207 L 14.6339,-2.0448 L 14.6333,-2.0688 L 14.6326,-2.0929 L 14.6319,-2.117 L 14.6313,-2.141 L 14.6306,-2.1651 L 14.63,-2.1891 L 14.6293,-2.2132 L 14.6286,-2.2372 L 14.628,-2.2613 L 14.6273,-2.2853 L 14.6266,-2.3094 L 14.626,-2.3335 L 14.6253,-2.3575 L 14.6247,-2.3816 L 14.624,-2.4056 L 14.6233,-2.4297 L 14.6227,-2.4537 L 14.622,-2.4778 L 14.6213,-2.5019 L 14.6207,-2.5259 L 14.62,-2.55 L 14.6194,-2.574 L 14.6187,-2.5981 L 14.618,-2.6221 L 14.6174,-2.6462 L 14.6167,-2.6702 L 14.616,-2.6943 L 14.6154,-2.7184 L 14.6147,-2.7424 L 14.6141,-2.7665 L 14.6134,-2.7905 L 14.6127,-2.8146 L 14.6121,-2.8386 L 14.6114,-2.8627 L 14.6107,-2.8868 L 14.6101,-2.9108 L 14.6094,-2.9349 L 14.6088,-2.9589 L 14.6081,-2.983 L 14.6074,-3.007 L 14.6068,-3.0311 L 14.6061,-3.0551 L 14.6054,-3.0792 L 14.6048,-3.1033 L 14.6041,-3.1273 L 14.6035,-3.1514 L 14.6028,-3.1754 L 14.6021,-3.1995 L 14.6015,-3.2235 L 14.6008,-3.2476 L 14.6001,-3.2717 L 14.5995,-3.2957 L 14.5988,-3.3198 L 14.5982,-3.3438 L 14.5975,-3.3679 L 14.5968,-3.3919 L 14.5962,-3.416 L 14.5955,-3.44 L 14.5948,-3.4641" />
      <path d="M 14.6425,-1.7321 L 14.5801,-1.7321 L 14.5176,-1.7321 L 14.4551,-1.7321 L 14.3926,-1.7321 L 14.3301,-1.7321 L 14.2676,-1.7321 L 14.2051,-1.7321 L 14.1426,-1.7321 L 14.0801,-1.7321 L 14.0176,-1.7321 L 13.9551,-1.7321 L 13.8926,-1.7321 L 13.8301,-1.7321 L 13.7677,-1.7321 L 13.7052,-1.7321 L 13.6427,-1.7321 L 13.5802,-1.7321 L 13.5177,-1.7321 L 13.4552,-1.7321 L 13.3927,-1.7321 L 13.3302,-1.7321 L 13.2677,-1.7321 L 13.2052,-1.7321 L 13.1427,-1.7321 L 13.0802,-1.7321 L 13.0177,-1.7321 L 12.9553,-1.7321 L 12.8928,-1.7321 L 12.8303,-1.7321 L 12.7678,-1.7321 L 12.7053,-1.7321 L 12.6428,-1.7321 L 12.5803,-1.7321 L 12.5178,-1.7321 L 12.4553,-1.7321 L 12.3928,-1.7321 L 12.3303,-1.7321 L 12.2678,-1.7321 L 12.2054,-1.7321 L 12.1429,-1.7321 L 12.0804,-1.7321 L 12.0179,-1.7321 L 11.9554,-1.7321 L 11.8929,-1.7321 L 11.8304,-1.7321 L 11.7679,-1.7321 L 11.7054,-1.7321 L 11.6429,-1.7321 L 11.5804,-1.7321 L 11.5179,-1.7321 L 11.4554,-1.7321 L 11.393,-1.7321 L 11.3305,-1.7321 L 11.268,-1.7321 L 11.2055,-1.7321 L 11.143,-1.7321 L 11.0805,-1.7321 L 11.018,-1.7321 L 10.9555,-1.7321 L 10.893,-1.7321 L 10.8305,-1.7321 L 10.768,-1.7321 L 10.7055,-1.7321 L 10.643,-1.7321 L 10.5806,-1.7321 L 10.5181,-1.7321 L 10.4556,-1.7321 L 10.3931,-1.7321 L 10.3306,-1.7321 L 10.2681,-1.7321 L 10.2056,-1.7321 L 10.1431,-1.7321" />
      <path d="M 14.6425,1.7321 L 14.6425,1.6839 L 14.6425,1.6358 L 14.6425,1.5877 L 14.6425,1.5396 L 14.6425,1.4915 L 14.6425,1.4434 L 14.6425,1.3953 L 14.6425,1.3472 L 14.6425,1.299 L 14.6425,1.2509 L 14.6425,1.2028 L 14.6425,1.1547 L 14.6425,1.1066 L 14.6425,1.0585 L 14.6425,1.0104 L 14.6425,0.9623 L 14.6425,0.9141 L 14.6425,0.866 L 14.6425,0.8179 L 14.6425,0.7698 L 14.6425,0.7217 L 14.6425,0.6736 L 14.6425,0.6255 L 14.6425,0.5774 L 14.6425,0.5292 L 14.6425,0.4811 L 14.6425,0.433 L 14.6425,0.3849 L 14.6425,0.3368 L 14.6425,0.2887 L 14.6425,0.2406 L 14.6425,0.1925 L 14.6425,0.1443 L 14.6425,0.0962 L 14.6425,0.0481 L 14.6425,0.0 L 14.6425,-0.0481 L 14.6425,-0.0962 L 14.6425,-0.1443 L 14.6425,-0.1925 L 14.6425,-0.2406 L 14.6425,-0.2887 L 14.6425,-0.3368 L 14.6425,-0.3849 L 14.6425,-0.433 L 14.6425,-0.4811 L 14.6425,-0.5292 L 14.6425,-0.5774 L 14.6425,-0.6255 L 14.6425,-0.6736 L 14.6425,-0.7217 L 14.6425,-0.7698 L 14.6425,-0.8179 L 14.6425,-0.866 L 14.6425,-0.9141 L 14.6425,-0.9623 L 14.6425,-1.0104 L 14.6425,-1.0585 L 14.6425,-1.1066 L 14.6425,-1.1547 L 14.6425,-1.2028 L 14.6425,-1.2509 L 14.6425,-1.299 L 14.6425,-1.3472 L 14.6425,-1.3953 L 14.6425,-1.4434 L 14.6425,-1.4915 L 14.6425,-1.5396 L 14.6425,-1.5877 L 14.6425,-1.6358 L 14.6425,-1.6839 L 14.6425,-1.7321" />
      <path d="M 14.6425,1.7321 L 14.5801,1.7321 L 14.5176,1.7321 L 14.4551,1.7321 L 14.3926,1.7321 L 14.3301,1.7321 L 14.2676,1.7321 L 14.2051,1.7321 L 14.1426,1.7321 L 14.0801,1.7321 L 14.0176,1.7321 L 13.9551,1.7321 L 13.8926,1.7321 L 13.8301,1.7321 L 13.7677,1.7321 L 13.7052,1.7321 L 13.6427,1.7321 L 13.5802,1.7321 L 13.5177,1.7321 L 13.4552,1.7321 L 13.3927,1.7321 L 13.3302,1.7321 L 13.2677,1.7321 L 13.2052,1.7321 L 13.1427,1.7321 L 13.0802,1.7321 L 13.0177,1.7321 L 12.9553,1.7321 L 12.8928,1.7321 L 12.8303,1.7321 L 12.7678,1.7321 L 12.7053,1.7321 L 12.6428,1.7321 L 12.5803,1.7321 L 12.5178,1.7321 L 12.4553,1.7321 L 12.3928,1.7321 L 12.3303,1.7321 L 12.2678,1.7321 L 12.2054,1.7321 L 12.1429,1.7321 L 12.0804,1.7321 L 12.0179,1.7321 L 11.9554,1.7321 L 11.8929,1.7321 L 11.8304,1.7321 L 11.7679,1.7321 L 11.7054,1.7321 L 11.6429,1.7321 L 11.5804,1.7321 L 11.5179,1.7321 L 11.4554,1.7321 L 11.393,1.7321 L 11.3305,1.7321 L 11.268,1.7321 L 11.2055,1.7321 L 11.143,1.7321 L 11.0805,1.7321 L 11.018,1.7321 L 10.9555,1.7321 L 10.893,1.7321 L 10.8305,1.7321 L 10.768,1.7321 L 10.7055,1.7321 L 10.643,1.7321 L 10.5806,1.7321 L 10.5181,1.7321 L 10.4556,1.7321 L 10.3931,1.7321 L 10.3306,1.7321 L 10.2681,1.7321 L 10.2056,1.7321 L 10.1431,1.7321" />
      <path d="M 14.5948,3.4641 L 14.5955,3.44 L 14.5962,3.416 L 14.5968,3.3919 L 14.5975,3.3679 L 14.5982,3.3438 L 14.5988,3.3198 L 14.5995,3.2957 L 14.6001,3.2717 L 14.6008,3.2476 L 14.6015,3.2235 L 14.6021,3.1995 L 14.6028,3.1754 L 14.6035,3.1514 L 14.6041,3.1273 L 14.6048,3.1033 L 14.6054,3.0792 L 14.6061,3.0551 L 14.6068,3.0311 L 14.6074,3.007 L 14.6081,2.983 L 14.6088,2.9589 L 14.6094,2.9349 L 14.6101,2.9108 L 14.6107,2.8868 L 14.6114,2.8627 L 14.6121,2.8386 L 14.6127,2.8146 L 14.6134,2.7905 L 14.6141,2.7665 L 14.6147,2.7424 L 14.6154,2.7184 L 14.616,2.6943 L 14.6167,2.6702 L 14.6174,2.6462 L 14.618,2.6221 L 14.6187,2.5981 L 14.6194,2.574 L 14.62,2.55 L 14.6207,2.5259 L 14.6213,2.5019 L 14.622,2.4778 L 14.6227,2.4537 L 14.6233,2.4297 L 14.624,2.4056 L 14.6247,2.3816 L 14.6253,2.3575 L 14.626,2.3335 L 14.6266,2.3094 L 14.6273,2.2853 L 14.628,2.2613 L 14.6286,2.2372 L 14.6293,2.2132 L 14.63,2.1891 L 14.6306,2.1651 L 14.6313,2.141 L 14.6319,2.117 L 14.6326,2.0929 L 14.6333,2.0688 L 14.6339,2.0448 L 14.6346,2.0207 L 14.6353,1.9967 L 14.6359,1.9726 L 14.6366,1.9486 L 14.6372,1.9245 L 14.6379,1.9004 L 14.6386,1.8764 L 14.6392,1.8523 L 14.6399,1.8283 L 14.6406,1.8042 L 14.6412,1.7802 L 14.6419,1.7561 L 14.6425,1.7321" />
      <path d="M 34.0924,4.07 L 34.1074,3.9589 L 34.1136,3.8459 L 34.1182,3.7329 L 34.122,3.6198 L 34.1252,3.5068 L 34.1281,3.3937 L 34.1307,3.2806 L 34.133,3.1675 L 34.1351,3.0544 L 34.1371,2.9413 L 34.1389,2.8282 L 34.1406,2.7151 L 34.1421,2.602 L 34.1436,2.4889 L 34.1449,2.3758 L 34.1462,2.2626 L 34.1473,2.1495 L 34.1484,2.0364 L 34.1494,1.9233 L 34.1503,1.8102 L 34.1512,1.6971 L 34.152,1.5839 L 34.1527,1.4708 L 34.1534,1.3577 L 34.154,1.2446 L 34.1545,1.1315 L 34.155,1.0183 L 34.1555,0.9052 L 34.1559,0.7921 L 34.1562,0.679 L 34.1565,0.5659 L 34.1567,0.4527 L 34.1569,0.3396 L 34.157,0.2265 L 34.1571,0.1134 L 34.1571,0.0002 L 34.1571,-0.1129 L 34.157,-0.226 L 34.1569,-0.3391 L 34.1567,-0.4522 L 34.1565,-0.5654 L 34.1562,-0.6785 L 34.1559,-0.7916 L 34.1555,-0.9047 L 34.155,-1.0178 L 34.1545,-1.131 L 34.154,-1.2441 L 34.1534,-1.3572 L 34.1527,-1.4703 L 34.152,-1.5835 L 34.1512,-1.6966 L 34.1503,-1.8097 L 34.1494,-1.9228 L 34.1484,-2.0359 L 34.1473,-2.149 L 34.1462,-2.2622 L 34.1449,-2.3753 L 34.1436,-2.4884 L 34.1421,-2.6015 L 34.1406,-2.7146 L 34.1389,-2.8277 L 34.1371,-2.9408 L 34.1352,-3.0539 L 34.133,-3.167 L 34.1307,-3.2801 L 34.1281,-3.3932 L 34.1252,-3.5063 L 34.122,-3.6194 L 34.1182,-3.7325 L 34.1136,-3.8455 L 34.1074,-3.9585 L 34.0924,-4.07" />
    </g>
    <g fill="none" stroke="rgb(0,0,0)" stroke-width="0.2" id="Center" stroke-dasharray="6.35 1.27 1.27 1.27">
      <line x1="0.0" y1="0.0" x2="-8.41" y2="0.0" />
      <line x1="0.0" y1="0.0" x2="8.41" y2="0.0" />
      <line x1="0.0" y1="0.0" x2="0.0" y2="-8.41" />
      <line x1="0.0" y1="0.0" x2="0.0" y2="8.41" />
      <line x1="25.0782" y1="0.0" x2="7.59" y2="0.0" />
      <line x1="25.0782" y1="0.0" x2="42.5663" y2="0.0" />
    </g>
  </g>
</svg>