<?xml version='1.0' encoding='utf-8'?>
<svg width="57.2755mm" height="39.9731mm" viewBox="-22.7793 -19.6 57.2755 39.9731" version="1.1" xmlns="http://www.w3.org/2000/svg">
  <g transform="scale(1,-1)" stroke-linecap="round">
    <g fill="none" stroke="rgb(0,0,0)" stroke-width="0.4" id="Visible">
      <path d="M 10.8206,-6.0 L 10.8206,-5.9916 L 10.8206,-5.9832 L 10.8206,-5.9747 L 10.8206,-5.9663 L 10.8206,-5.9579 L 10.8206,-5.9495 L 10.8206,-5.941 L 10.8206,-5.9326 L 10.8206,-5.9242 L 10.8206,-5.9158 L 10.8206,-5.9073 L 10.8206,-5.8989 L 10.8206,-5.8905 L 10.8206,-5.8821 L 10.8206,-5.8736 L 10.8206,-5.8652 L 10.8206,-5.8568 L 10.8206,-5.8484 L 10.8206,-5.8399 L 10.8206,-5.8315 L 10.8206,-5.8231 L 10.8206,-5.8147 L 10.8206,-5.8062 L 10.8206,-5.7978 L 10.8206,-5.7894 L 10.8206,-5.781 L 10.8206,-5.7725 L 10.8206,-5.7641 L 10.8206,-5.7557 L 10.8206,-5.7473 L 10.8206,-5.7388 L 10.8206,-5.7304 L 10.8206,-5.722 L 10.8206,-5.7136 L 10.8206,-5.7051 L 10.8206,-5.6967 L 10.8206,-5.6883 L 10.8206,-5.6799 L 10.8206,-5.6714 L 10.8206,-5.663 L 10.8206,-5.6546 L 10.8206,-5.6462 L 10.8206,-5.6377 L 10.8206,-5.6293 L 10.8206,-5.6209 L 10.8206,-5.6125 L 10.8206,-5.604 L 10.8206,-5.5956 L 10.8206,-5.5872 L 10.8206,-5.5788 L 10.8206,-5.5703 L 10.8206,-5.5619 L 10.8206,-5.5535 L 10.8206,-5.5451 L 10.8206,-5.5366 L 10.8206,-5.5282 L 10.8206,-5.5198 L 10.8206,-5.5114 L 10.8206,-5.5029 L 10.8206,-5.4945 L 10.8206,-5.4861 L 10.8206,-5.4777 L 10.8206,-5.4692 L 10.8206,-5.4608 L 10.8206,-5.4524 L 10.8206,-5.444 L 10.8206,-5.4355 L 10.8206,-5.4271 L 10.8206,-5.4187 L 10.8206,-5.4103 L 10.8206,-5.4018 L 10.8206,-5.3934" />
      <path d="M 10.8206,5.3934 L 10.8206,5.4018 L 10.8206,5.4103 L 10.8206,5.4187 L 10.8206,5.4271 L 10.8206,5.4355 L 10.8206,5.444 L 10.8206,5.4524 L 10.8206,5.4608 L 10.8206,5.4692 L 10.8206,5.4777 L 10.8206,5.4861 L 10.8206,5.4945 L 10.8206,5.5029 L 10.8206,5.5114 L 10.8206,5.5198 L 10.8206,5.5282 L 10.8206,5.5366 L 10.8206,5.5451 L 10.8206,5.5535 L 10.8206,5.5619 L 10.8206,5.5703 L 10.8206,5.5788 L 10.8206,5.5872 L 10.8206,5.5956 L 10.8206,5.604 L 10.8206,5.6125 L 10.8206,5.6209 L 10.8206,5.6293 L 10.8206,5.6377 L 10.8206,5.6462 L 10.8206,5.6546 L 10.8206,5.663 L 10.8206,5.6714 L 10.8206,5.6799 L 10.8206,5.6883 L 10.8206,5.6967 L 10.8206,5.7051 L 10.8206,5.7136 L 10.8206,5.722 L 10.8206,5.7304 L 10.8206,5.7388 L 10.8206,5.7473 L 10.8206,5.7557 L 10.8206,5.7641 L 10.8206,5.7725 L 10.8206,5.781 L 10.8206,5.7894 L 10.8206,5.7978 L 10.8206,5.8062 L 10.8206,5.8147 L 10.8206,5.8231 L 10.8206,5.8315 L 10.8206,5.8399 L 10.8206,5.8484 L 10.8206,5.8568 L 10.8206,5.8652 L 10.8206,5.8736 L 10.8206,5.8821 L 10.8206,5.8905 L 10.8206,5.8989 L 10.8206,5.9073 L 10.8206,5.9158 L 10.8206,5.9242 L 10.8206,5.9326 L 10.8206,5.941 L 10.8206,5.9495 L 10.8206,5.9579 L 10.8206,5.9663 L 10.8206,5.9747 L 10.8206,5.9832 L 10.8206,5.9916 L 10.8206,6.0" />
      <path d="M -3.1794,15.0 L -3.8337,14.9857 L -4.4867,14.9429 L -5.1373,14.8717 L -5.7841,14.7721 L -6.426,14.6444 L -7.0617,14.4889 L -7.69,14.3058 L -8.3097,14.0954 L -8.9196,13.8582 L -9.5186,13.5946 L -10.1056,13.3052 L -10.6794,12.9904 L -11.2388,12.6509 L -11.783,12.2873 L -12.3108,11.9003 L -12.8212,11.4907 L -13.3132,11.0591 L -13.7859,10.6066 L -14.2385,10.1338 L -14.67,9.6418 L -15.0796,9.1314 L -15.4666,8.6036 L -15.8302,8.0595 L -16.1697,7.5 L -16.4845,6.9262 L -16.7739,6.3393 L -17.0375,5.7402 L -17.2747,5.1303 L -17.4851,4.5106 L -17.6682,3.8823 L -17.8237,3.2466 L -17.9514,2.6047 L -18.051,1.9579 L -18.1222,1.3073 L -18.165,0.6543 L -18.1793,0.0 L -18.165,-0.6543 L -18.1222,-1.3073 L -18.051,-1.9579 L -17.9514,-2.6047 L -17.8237,-3.2466 L -17.6682,-3.8823 L -17.4851,-4.5106 L -17.2747,-5.1303 L -17.0375,-5.7402 L -16.7739,-6.3393 L -16.4845,-6.9262 L -16.1697,-7.5 L -15.8302,-8.0595 L -15.4666,-8.6036 L -15.0796,-9.1314 L -14.67,-9.6418 L -14.2385,-10.1338 L -13.7859,-10.6066 L -13.3132,-11.0591 L -12.8212,-11.4907 L -12.3108,-11.9003 L -11.783,-12.2873 L -11.2388,-12.6509 L -10.6794,-12.9904 L -10.1056,-13.3052 L -9.5186,-13.5946 L -8.9196,-13.8582 L -8.3097,-14.0954 L -7.69,-14.3058 L -7.0617,-14.4889 L -6.426,-14.6444 L -5.7841,-14.7721 L -5.1373,-14.8717 L -4.4867,-14.9429 L -3.8337,-14.9857 L -3.1794,-15.0" />
      <path d="M 3.3206,0.0 L 3.319,0.1418 L 3.3144,0.2835 L 3.3067,0.4251 L 3.2959,0.5664 L 3.282,0.7075 L 3.265,0.8483 L 3.245,0.9886 L 3.2219,1.1285 L 3.1957,1.2679 L 3.1666,1.4066 L 3.1344,1.5447 L 3.0992,1.6821 L 3.061,1.8186 L 3.0198,1.9543 L 2.9757,2.089 L 2.9287,2.2228 L 2.8788,2.3555 L 2.826,2.4871 L 2.7703,2.6175 L 2.7118,2.7466 L 2.6505,2.8745 L 2.5864,3.0009 L 2.5196,3.126 L 2.45,3.2495 L 2.3778,3.3715 L 2.303,3.492 L 2.2255,3.6107 L 2.1454,3.7277 L 2.0629,3.843 L 1.9778,3.9564 L 1.8903,4.068 L 1.8003,4.1776 L 1.708,4.2852 L 1.6134,4.3908 L 1.5165,4.4943 L 1.4174,4.5956 L 1.316,4.6948 L 1.2126,4.7917 L 1.107,4.8864 L 0.9994,4.9787 L 0.8898,5.0687 L 0.7783,5.1562 L 0.6649,5.2413 L 0.5497,5.3239 L 0.4326,5.404 L 0.3139,5.4815 L 0.1935,5.5564 L 0.0715,5.6286 L -0.052,5.6982 L -0.177,5.7651 L -0.3035,5.8292 L -0.4313,5.8905 L -0.5605,5.9491 L -0.6908,6.0048 L -0.8224,6.0576 L -0.9551,6.1076 L -1.0888,6.1546 L -1.2236,6.1988 L -1.3592,6.24 L -1.4958,6.2782 L -1.6331,6.3134 L -1.7712,6.3456 L -1.9099,6.3748 L -2.0493,6.401 L -2.1892,6.4241 L -2.3295,6.4442 L -2.4703,6.4612 L -2.6114,6.4751 L -2.7527,6.486 L -2.8943,6.4937 L -3.036,6.4984 L -3.1778,6.5" />
      <path d="M -3.1778,-6.5 L -3.036,-6.4984 L -2.8943,-6.4937 L -2.7527,-6.486 L -2.6114,-6.4751 L -2.4703,-6.4612 L -2.3295,-6.4442 L -2.1892,-6.4241 L -2.0493,-6.401 L -1.9099,-6.3748 L -1.7712,-6.3456 L -1.6331,-6.3134 L -1.4958,-6.2782 L -1.3592,-6.24 L -1.2236,-6.1988 L -1.0888,-6.1546 L -0.9551,-6.1076 L -0.8224,-6.0576 L -0.6908,-6.0048 L -0.5605,-5.9491 L -0.4313,-5.8905 L -0.3035,-5.8292 L -0.177,-5.7651 L -0.052,-5.6982 L 0.0715,-5.6286 L 0.1935,-5.5564 L 0.3139,-5.4815 L 0.4326,-5.404 L 0.5497,-5.3239 L 0.6649,-5.2413 L 0.7783,-5.1562 L 0.8898,-5.0687 L 0.9994,-4.9787 L 1.107,-4.8864 L 1.2126,-4.7917 L 1.316,-4.6948 L 1.4174,-4.5956 L 1.5165,-4.4943 L 1.6134,-4.3908 L 1.708,-4.2852 L 1.8003,-4.1776 L 1.8903,-4.068 L 1.9778,-3.9564 L 2.0629,-3.843 L 2.1454,-3.7277 L 2.2255,-3.6107 L 2.303,-3.492 L 2.3778,-3.3715 L 2.45,-3.2495 L 2.5196,-3.126 L 2.5864,-3.0009 L 2.6505,-2.8745 L 2.7118,-2.7466 L 2.7703,-2.6175 L 2.826,-2.4871 L 2.8788,-2.3555 L 2.9287,-2.2228 L 2.9757,-2.089 L 3.0198,-1.9543 L 3.061,-1.8186 L 3.0992,-1.6821 L 3.1344,-1.5447 L 3.1666,-1.4066 L 3.1957,-1.2679 L 3.2219,-1.1285 L 3.245,-0.9886 L 3.265,-0.8483 L 3.282,-0.7075 L 3.2959,-0.5664 L 3.3067,-0.4251 L 3.3144,-0.2835 L 3.319,-0.1418 L 3.3206,-0.0" />
      <path d="M 10.865,-6.0 L 10.865,-5.8333 L 10.865,-5.6667 L 10.865,-5.5 L 10.865,-5.3333 L 10.865,-5.1667 L 10.865,-5.0 L 10.865,-4.8333 L 10.865,-4.6667 L 10.865,-4.5 L 10.865,-4.3333 L 10.865,-4.1667 L 10.865,-4.0 L 10.865,-3.8333 L 10.865,-3.6667 L 10.865,-3.5 L 10.865,-3.3333 L 10.865,-3.1667 L 10.865,-3.0 L 10.865,-2.8333 L 10.865,-2.6667 L 10.865,-2.5 L 10.865,-2.3333 L 10.865,-2.1667 L 10.865,-2.0 L 10.865,-1.8333 L 10.865,-1.6667 L 10.865,-1.5 L 10.865,-1.3333 L 10.865,-1.1667 L 10.865,-1.0 L 10.865,-0.8333 L 10.865,-0.6667 L 10.865,-0.5 L 10.865,-0.3333 L 10.865,-0.1667 L 10.865,0.0 L 10.865,0.1667 L 10.865,0.3333 L 10.865,0.5 L 10.865,0.6667 L 10.865,0.8333 L 10.865,1.0 L 10.865,1.1667 L 10.865,1.3333 L 10.865,1.5 L 10.865,1.6667 L 10.865,1.8333 L 10.865,2.0 L 10.865,2.1667 L 10.865,2.3333 L 10.865,2.5 L 10.865,2.6667 L 10.865,2.8333 L 10.865,3.0 L 10.865,3.1667 L 10.865,3.3333 L 10.865,3.5 L 10.865,3.6667 L 10.865,3.8333 L 10.865,4.0 L 10.865,4.1667 L 10.865,4.3333 L 10.865,4.5 L 10.865,4.6667 L 10.865,4.8333 L 10.865,5.0 L 10.865,5.1667 L 10.865,5.3333 L 10.865,5.5 L 10.865,5.6667 L 10.865,5.8333 L 10.865,6.0" />
      <path d="M 10.8206,6.0 L 10.8212,6.0 L 10.8218,6.0 L 10.8224,6.0 L 10.823,6.0 L 10.8236,6.0 L 10.8243,6.0 L 10.8249,6.0 L 10.8255,6.0 L 10.8261,6.0 L 10.8267,6.0 L 10.8273,6.0 L 10.828,6.0 L 10.8286,6.0 L 10.8292,6.0 L 10.8298,6.0 L 10.8304,6.0 L 10.8311,6.0 L 10.8317,6.0 L 10.8323,6.0 L 10.8329,6.0 L 10.8335,6.0 L 10.8341,6.0 L 10.8348,6.0 L 10.8354,6.0 L 10.836,6.0 L 10.8366,6.0 L 10.8372,6.0 L 10.8379,6.0 L 10.8385,6.0 L 10.8391,6.0 L 10.8397,6.0 L 10.8403,6.0 L 10.8409,6.0 L 10.8416,6.0 L 10.8422,6.0 L 10.8428,6.0 L 10.8434,6.0 L 10.844,6.0 L 10.8447,6.0 L 10.8453,6.0 L 10.8459,6.0 L 10.8465,6.0 L 10.8471,6.0 L 10.8477,6.0 L 10.8484,6.0 L 10.849,6.0 L 10.8496,6.0 L 10.8502,6.0 L 10.8508,6.0 L 10.8514,6.0 L 10.8521,6.0 L 10.8527,6.0 L 10.8533,6.0 L 10.8539,6.0 L 10.8545,6.0 L 10.8552,6.0 L 10.8558,6.0 L 10.8564,6.0 L 10.857,6.0 L 10.8576,6.0 L 10.8582,6.0 L 10.8589,6.0 L 10.8595,6.0 L 10.8601,6.0 L 10.8607,6.0 L 10.8613,6.0 L 10.862,6.0 L 10.8626,6.0 L 10.8632,6.0 L 10.8638,6.0 L 10.8644,6.0 L 10.865,6.0" />
      <path d="M 10.8237,-5.3852 L 10.8237,-5.2356 L 10.8237,-5.086 L 10.8237,-4.9364 L 10.8237,-4.7868 L 10.8237,-4.6372 L 10.8237,-4.4876 L 10.8237,-4.338 L 10.8237,-4.1885 L 10.8237,-4.0389 L 10.8237,-3.8893 L 10.8237,-3.7397 L 10.8237,-3.5901 L 10.8237,-3.4405 L 10.8237,-3.2909 L 10.8237,-3.1413 L 10.8237,-2.9918 L 10.8237,-2.8422 L 10.8237,-2.6926 L 10.8237,-2.543 L 10.8237,-2.3934 L 10.8237,-2.2438 L 10.8237,-2.0942 L 10.8237,-1.9446 L 10.8237,-1.7951 L 10.8237,-1.6455 L 10.8237,-1.4959 L 10.8237,-1.3463 L 10.8237,-1.1967 L 10.8237,-1.0471 L 10.8237,-0.8975 L 10.8237,-0.7479 L 10.8237,-0.5984 L 10.8237,-0.4488 L 10.8237,-0.2992 L 10.8237,-0.1496 L 10.8237,0.0 L 10.8237,0.1496 L 10.8237,0.2992 L 10.8237,0.4488 L 10.8237,0.5984 L 10.8237,0.7479 L 10.8237,0.8975 L 10.8237,1.0471 L 10.8237,1.1967 L 10.8237,1.3463 L 10.8237,1.4959 L 10.8237,1.6455 L 10.8237,1.7951 L 10.8237,1.9446 L 10.8237,2.0942 L 10.8237,2.2438 L 10.8237,2.3934 L 10.8237,2.543 L 10.8237,2.6926 L 10.8237,2.8422 L 10.8237,2.9918 L 10.8237,3.1413 L 10.8237,3.2909 L 10.8237,3.4405 L 10.8237,3.5901 L 10.8237,3.7397 L 10.8237,3.8893 L 10.8237,4.0389 L 10.8237,4.1885 L 10.8237,4.338 L 10.8237,4.4876 L 10.8237,4.6372 L 10.8237,4.7868 L 10.8237,4.9364 L 10.8237,5.086 L 10.8237,5.2356 L 10.8237,5.3852" />
      <path d="M 10.8206,-6.0 L 10.8212,-6.0 L 10.8218,-6.0 L 10.8224,-6.0 L 10.823,-6.0 L 10.8236,-6.0 L 10.8243,-6.0 L 10.8249,-6.0 L 10.8255,-6.0 L 10.8261,-6.0 L 10.8267,-6.0 L 10.8273,-6.0 L 10.828,-6.0 L 10.8286,-6.0 L 10.8292,-6.0 L 10.8298,-6.0 L 10.8304,-6.0 L 10.8311,-6.0 L 10.8317,-6.0 L 10.8323,-6.0 L 10.8329,-6.0 L 10.8335,-6.0 L 10.8341,-6.0 L 10.8348,-6.0 L 10.8354,-6.0 L 10.836,-6.0 L 10.8366,-6.0 L 10.8372,-6.0 L 10.8379,-6.0 L 10.8385,-6.0 L 10.8391,-6.0 L 10.8397,-6.0 L 10.8403,-6.0 L 10.8409,-6.0 L 10.8416,-6.0 L 10.8422,-6.0 L 10.8428,-6.0 L 10.8434,-6.0 L 10.844,-6.0 L 10.8447,-6.0 L 10.8453,-6.0 L 10.8459,-6.0 L 10.8465,-6.0 L 10.8471,-6.0 L 10.8477,-6.0 L 10.8484,-6.0 L 10.849,-6.0 L 10.8496,-6.0 L 10.8502,-6.0 L 10.8508,-6.0 L 10.8514,-6.0 L 10.8521,-6.0 L 10.8527,-6.0 L 10.8533,-6.0 L 10.8539,-6.0 L 10.8545,-6.0 L 10.8552,-6.0 L 10.8558,-6.0 L 10.8564,-6.0 L 10.857,-6.0 L 10.8576,-6.0 L 10.8582,-6.0 L 10.8589,-6.0 L 10.8595,-6.0 L 10.8601,-6.0 L 10.8607,-6.0 L 10.8613,-6.0 L 10.862,-6.0 L 10.8626,-6.0 L 10.8632,-6.0 L 10.8638,-6.0 L 10.8644,-6.0 L 10.865,-6.0" />
      <path d="M 11.865,-6.0 L 11.865,-5.8333 L 11.865,-5.6667 L 11.865,-5.5 L 11.865,-5.3333 L 11.865,-5.1667 L 11.865,-5.0 L 11.865,-4.8333 L 11.865,-4.6667 L 11.865,-4.5 L 11.865,-4.3333 L 11.865,-4.1667 L 11.865,-4.0 L 11.865,-3.8333 L 11.865,-3.6667 L 11.865,-3.5 L 11.865,-3.3333 L 11.865,-3.1667 L 11.865,-3.0 L 11.865,-2.8333 L 11.865,-2.6667 L 11.865,-2.5 L 11.865,-2.3333 L 11.865,-2.1667 L 11.865,-2.0 L 11.865,-1.8333 L 11.865,-1.6667 L 11.865,-1.5 L 11.865,-1.3333 L 11.865,-1.1667 L 11.865,-1.0 L 11.865,-0.8333 L 11.865,-0.6667 L 11.865,-0.5 L 11.865,-0.3333 L 11.865,-0.1667 L 11.865,0.0 L 11.865,0.1667 L 11.865,0.3333 L 11.865,0.5 L 11.865,0.6667 L 11.865,0.8333 L 11.865,1.0 L 11.865,1.1667 L 11.865,1.3333 L 11.865,1.5 L 11.865,1.6667 L 11.865,1.8333 L 11.865,2.0 L 11.865,2.1667 L 11.865,2.3333 L 11.865,2.5 L 11.865,2.6667 L 11.865,2.8333 L 11.865,3.0 L 11.865,3.1667 L 11.865,3.3333 L 11.865,3.5 L 11.865,3.6667 L 11.865,3.8333 L 11.865,4.0 L 11.865,4.1667 L 11.865,4.3333 L 11.865,4.5 L 11.865,4.6667 L 11.865,4.8333 L 11.865,5.0 L 11.865,5.1667 L 11.865,5.3333 L 11.865,5.5 L 11.865,5.6667 L 11.865,5.8333 L 11.865,6.0" />
      <path d="M 10.865,-6.0 L 10.8789,-6.0 L 10.8928,-6.0 L 10.9067,-6.0 L 10.9206,-6.0 L 10.9345,-6.0 L 10.9484,-6.0 L 10.9623,-6.0 L 10.9762,-6.0 L 10.99,-6.0 L 11.0039,-6.0 L 11.0178,-6.0 L 11.0317,-6.0 L 11.0456,-6.0 L 11.0595,-6.0 L 11.0734,-6.0 L 11.0873,-6.0 L 11.1012,-6.0 L 11.115,-6.0 L 11.1289,-6.0 L 11.1428,-6.0 L 11.1567,-6.0 L 11.1706,-6.0 L 11.1845,-6.0 L 11.1984,-6.0 L 11.2123,-6.0 L 11.2262,-6.0 L 11.24,-6.0 L 11.2539,-6.0 L 11.2678,-6.0 L 11.2817,-6.0 L 11.2956,-6.0 L 11.3095,-6.0 L 11.3234,-6.0 L 11.3373,-6.0 L 11.3512,-6.0 L 11.365,-6.0 L 11.3789,-6.0 L 11.3928,-6.0 L 11.4067,-6.0 L 11.4206,-6.0 L 11.4345,-6.0 L 11.4484,-6.0 L 11.4623,-6.0 L 11.4761,-6.0 L 11.49,-6.0 L 11.5039,-6.0 L 11.5178,-6.0 L 11.5317,-6.0 L 11.5456,-6.0 L 11.5595,-6.0 L 11.5734,-6.0 L 11.5873,-6.0 L 11.6011,-6.0 L 11.615,-6.0 L 11.6289,-6.0 L 11.6428,-6.0 L 11.6567,-6.0 L 11.6706,-6.0 L 11.6845,-6.0 L 11.6984,-6.0 L 11.7123,-6.0 L 11.7261,-6.0 L 11.74,-6.0 L 11.7539,-6.0 L 11.7678,-6.0 L 11.7817,-6.0 L 11.7956,-6.0 L 11.8095,-6.0 L 11.8234,-6.0 L 11.8373,-6.0 L 11.8511,-6.0 L 11.865,-6.0" />
      <path d="M 10.8237,5.3852 L 10.7318,5.6184 L 10.6359,5.8501 L 10.5362,6.0802 L 10.4326,6.3086 L 10.3253,6.5352 L 10.2142,6.7599 L 10.0993,6.9828 L 9.9807,7.2038 L 9.8585,7.4227 L 9.7326,7.6395 L 9.6031,7.8542 L 9.47,8.0667 L 9.3334,8.277 L 9.1933,8.485 L 9.0497,8.6905 L 8.9027,8.8937 L 8.7524,9.0944 L 8.5987,9.2925 L 8.4417,9.488 L 8.2815,9.6809 L 8.1181,9.8711 L 7.9515,10.0585 L 7.7818,10.2431 L 7.6091,10.4248 L 7.4333,10.6037 L 7.2546,10.7795 L 7.0729,10.9524 L 6.8884,11.1222 L 6.7011,11.2888 L 6.511,11.4524 L 6.3182,11.6127 L 6.1228,11.7698 L 5.9248,11.9236 L 5.7242,12.074 L 5.5211,12.2211 L 5.3156,12.3648 L 5.1077,12.505 L 4.8975,12.6418 L 4.6851,12.775 L 4.4705,12.9046 L 4.2537,13.0306 L 4.0348,13.153 L 3.814,13.2717 L 3.5911,13.3867 L 3.3664,13.4979 L 3.1399,13.6054 L 2.9116,13.7091 L 2.6816,13.8089 L 2.4499,13.9049 L 2.2167,13.997 L 1.982,14.0852 L 1.7458,14.1695 L 1.5083,14.2497 L 1.2694,14.3261 L 1.0294,14.3984 L 0.7881,14.4667 L 0.5457,14.5309 L 0.3023,14.5911 L 0.0579,14.6472 L -0.1874,14.6992 L -0.4335,14.7471 L -0.6804,14.7909 L -0.928,14.8306 L -1.1762,14.8661 L -1.425,14.8974 L -1.6742,14.9246 L -1.9239,14.9476 L -2.174,14.9665 L -2.4243,14.9811 L -2.6748,14.9916 L -2.9255,14.9979 L -3.1762,15.0" />
      <path d="M -3.1762,15.0 L -3.8305,14.9857 L -4.4835,14.9429 L -5.1341,14.8717 L -5.7809,14.7721 L -6.4228,14.6444 L -7.0585,14.4889 L -7.6868,14.3058 L -8.3065,14.0954 L -8.9164,13.8582 L -9.5155,13.5946 L -10.1024,13.3052 L -10.6762,12.9904 L -11.2357,12.6509 L -11.7798,12.2873 L -12.3076,11.9003 L -12.818,11.4907 L -13.31,11.0591 L -13.7828,10.6066 L -14.2353,10.1338 L -14.6668,9.6418 L -15.0764,9.1314 L -15.4634,8.6036 L -15.827,8.0595 L -16.1665,7.5 L -16.4813,6.9262 L -16.7708,6.3393 L -17.0343,5.7402 L -17.2715,5.1303 L -17.4819,4.5106 L -17.665,3.8823 L -17.8206,3.2466 L -17.9482,2.6047 L -18.0478,1.9579 L -18.119,1.3073 L -18.1618,0.6543 L -18.1761,0.0 L -18.1618,-0.6543 L -18.119,-1.3073 L -18.0478,-1.9579 L -17.9482,-2.6047 L -17.8206,-3.2466 L -17.665,-3.8823 L -17.4819,-4.5106 L -17.2715,-5.1303 L -17.0343,-5.7402 L -16.7708,-6.3393 L -16.4813,-6.9262 L -16.1665,-7.5 L -15.827,-8.0595 L -15.4634,-8.6036 L -15.0764,-9.1314 L -14.6668,-9.6418 L -14.2353,-10.1338 L -13.7828,-10.6066 L -13.31,-11.0591 L -12.818,-11.4907 L -12.3076,-11.9003 L -11.7798,-12.2873 L -11.2357,-12.6509 L -10.6762,-12.9904 L -10.1024,-13.3052 L -9.5155,-13.5946 L -8.9164,-13.8582 L -8.3065,-14.0954 L -7.6868,-14.3058 L -7.0585,-14.4889 L -6.4228,-14.6444 L -5.7809,-14.7721 L -5.1341,-14.8717 L -4.4835,-14.9429 L -3.8305,-14.9857 L -3.1762,-15.0" />
      <path d="M -3.1762,-15.0 L -2.9255,-14.9979 L -2.6748,-14.9916 L -2.4243,-14.9811 L -2.174,-14.9665 L -1.9239,-14.9476 L -1.6742,-14.9246 L -1.425,-14.8974 L -1.1762,-14.8661 L -0.928,-14.8306 L -0.6804,-14.7909 L -0.4335,-14.7471 L -0.1874,-14.6992 L 0.0579,-14.6472 L 0.3023,-14.5911 L 0.5457,-14.5309 L 0.7881,-14.4667 L 1.0294,-14.3984 L 1.2694,-14.3261 L 1.5083,-14.2497 L 1.7458,-14.1695 L 1.982,-14.0852 L 2.2167,-13.997 L 2.4499,-13.9049 L 2.6816,-13.8089 L 2.9116,-13.7091 L 3.1399,-13.6054 L 3.3664,-13.4979 L 3.5911,-13.3867 L 3.814,-13.2717 L 4.0348,-13.153 L 4.2537,-13.0306 L 4.4705,-12.9046 L 4.6851,-12.775 L 4.8975,-12.6418 L 5.1077,-12.505 L 5.3156,-12.3648 L 5.5211,-12.2211 L 5.7242,-12.074 L 5.9248,-11.9236 L 6.1228,-11.7698 L 6.3182,-11.6127 L 6.511,-11.4524 L 6.7011,-11.2888 L 6.8884,-11.1222 L 7.0729,-10.9524 L 7.2546,-10.7795 L 7.4333,-10.6037 L 7.6091,-10.4248 L 7.7818,-10.2431 L 7.9515,-10.0585 L 8.1181,-9.8711 L 8.2815,-9.6809 L 8.4417,-9.488 L 8.5987,-9.2925 L 8.7524,-9.0944 L 8.9027,-8.8937 L 9.0497,-8.6905 L 9.1933,-8.485 L 9.3334,-8.277 L 9.47,-8.0667 L 9.6031,-7.8542 L 9.7326,-7.6395 L 9.8585,-7.4227 L 9.9807,-7.2038 L 10.0993,-6.9828 L 10.2142,-6.7599 L 10.3253,-6.5352 L 10.4326,-6.3086 L 10.5362,-6.0802 L 10.6359,-5.8501 L 10.7318,-5.6184 L 10.8237,-5.3852" />
      <path d="M 3.3238,0.0 L 3.3222,0.1418 L 3.3176,0.2835 L 3.3099,0.4251 L 3.299,0.5665 L 3.2851,0.7076 L 3.2682,0.8484 L 3.2481,0.9888 L 3.225,1.1287 L 3.1989,1.2681 L 3.1697,1.4069 L 3.1375,1.545 L 3.1023,1.6823 L 3.0641,1.8189 L 3.0229,1.9546 L 2.9788,2.0894 L 2.9318,2.2231 L 2.8818,2.3558 L 2.829,2.4874 L 2.7733,2.6178 L 2.7148,2.747 L 2.6534,2.8749 L 2.5893,3.0014 L 2.5225,3.1264 L 2.4529,3.25 L 2.3807,3.372 L 2.3058,3.4924 L 2.2283,3.6112 L 2.1483,3.7282 L 2.0657,3.8435 L 1.9806,3.9569 L 1.893,4.0685 L 1.8031,4.1781 L 1.7107,4.2857 L 1.6161,4.3913 L 1.5191,4.4948 L 1.42,4.5962 L 1.3186,4.6954 L 1.2151,4.7923 L 1.1095,4.887 L 1.0019,4.9793 L 0.8923,5.0692 L 0.7807,5.1568 L 0.6673,5.2419 L 0.552,5.3245 L 0.435,5.4045 L 0.3162,5.482 L 0.1958,5.5569 L 0.0738,5.6292 L -0.0498,5.6987 L -0.1748,5.7656 L -0.3013,5.8297 L -0.4292,5.891 L -0.5584,5.9495 L -0.6888,6.0052 L -0.8204,6.058 L -0.9531,6.108 L -1.0868,6.155 L -1.2216,6.1992 L -1.3573,6.2403 L -1.4939,6.2785 L -1.6312,6.3137 L -1.7693,6.3459 L -1.9081,6.3751 L -2.0475,6.4012 L -2.1874,6.4243 L -2.3278,6.4444 L -2.4686,6.4614 L -2.6097,6.4753 L -2.7511,6.4861 L -2.8927,6.4938 L -3.0344,6.4985 L -3.1762,6.5" />
      <path d="M -3.1762,6.5 L -3.4597,6.4938 L -3.7427,6.4753 L -4.0246,6.4444 L -4.3049,6.4012 L -4.5831,6.3459 L -4.8585,6.2785 L -5.1308,6.1992 L -5.3993,6.108 L -5.6636,6.0052 L -5.9232,5.891 L -6.1776,5.7656 L -6.4262,5.6292 L -6.6686,5.482 L -6.9044,5.3245 L -7.1331,5.1568 L -7.3543,4.9793 L -7.5675,4.7923 L -7.7724,4.5962 L -7.9685,4.3913 L -8.1555,4.1781 L -8.333,3.9569 L -8.5007,3.7282 L -8.6582,3.4924 L -8.8053,3.25 L -8.9417,3.0014 L -9.0672,2.747 L -9.1814,2.4874 L -9.2842,2.2231 L -9.3753,1.9546 L -9.4547,1.6823 L -9.5221,1.4069 L -9.5774,1.1287 L -9.6206,0.8484 L -9.6514,0.5665 L -9.67,0.2835 L -9.6762,0.0 L -9.67,-0.2835 L -9.6514,-0.5665 L -9.6206,-0.8484 L -9.5774,-1.1287 L -9.5221,-1.4069 L -9.4547,-1.6823 L -9.3753,-1.9546 L -9.2842,-2.2231 L -9.1814,-2.4874 L -9.0672,-2.747 L -8.9417,-3.0014 L -8.8053,-3.25 L -8.6582,-3.4924 L -8.5007,-3.7282 L -8.333,-3.9569 L -8.1555,-4.1781 L -7.9685,-4.3913 L -7.7724,-4.5962 L -7.5675,-4.7923 L -7.3543,-4.9793 L -7.1331,-5.1568 L -6.9044,-5.3245 L -6.6686,-5.482 L -6.4262,-5.6292 L -6.1776,-5.7656 L -5.9232,-5.891 L -5.6636,-6.0052 L -5.3993,-6.108 L -5.1308,-6.1992 L -4.8585,-6.2785 L -4.5831,-6.3459 L -4.3049,-6.4012 L -4.0246,-6.4444 L -3.7427,-6.4753 L -3.4597,-6.4938 L -3.1762,-6.5" />
      <path d="M -3.1762,-6.5 L -3.0344,-6.4985 L -2.8927,-6.4938 L -2.7511,-6.4861 L -2.6097,-6.4753 L -2.4686,-6.4614 L -2.3278,-6.4444 L -2.1874,-6.4243 L -2.0475,-6.4012 L -1.9081,-6.3751 L -1.7693,-6.3459 L -1.6312,-6.3137 L -1.4939,-6.2785 L -1.3573,-6.2403 L -1.2216,-6.1992 L -1.0868,-6.155 L -0.9531,-6.108 L -0.8204,-6.058 L -0.6888,-6.0052 L -0.5584,-5.9495 L -0.4292,-5.891 L -0.3013,-5.8297 L -0.1748,-5.7656 L -0.0498,-5.6987 L 0.0738,-5.6292 L 0.1958,-5.5569 L 0.3162,-5.482 L 0.435,-5.4045 L 0.552,-5.3245 L 0.6673,-5.2419 L 0.7807,-5.1568 L 0.8923,-5.0692 L 1.0019,-4.9793 L 1.1095,-4.887 L 1.2151,-4.7923 L 1.3186,-4.6954 L 1.42,-4.5962 L 1.5191,-4.4948 L 1.6161,-4.3913 L 1.7107,-4.2857 L 1.8031,-4.1781 L 1.893,-4.0685 L 1.9806,-3.9569 L 2.0657,-3.8435 L 2.1483,-3.7282 L 2.2283,-3.6112 L 2.3058,-3.4924 L 2.3807,-3.372 L 2.4529,-3.25 L 2.5225,-3.1264 L 2.5893,-3.0014 L 2.6534,-2.8749 L 2.7148,-2.747 L 2.7733,-2.6178 L 2.829,-2.4874 L 2.8818,-2.3558 L 2.9318,-2.2231 L 2.9788,-2.0894 L 3.0229,-1.9546 L 3.0641,-1.8189 L 3.1023,-1.6823 L 3.1375,-1.545 L 3.1697,-1.4069 L 3.1989,-1.2681 L 3.225,-1.1287 L 3.2481,-0.9888 L 3.2682,-0.8484 L 3.2851,-0.7076 L 3.299,-0.5665 L 3.3099,-0.4251 L 3.3176,-0.2835 L 3.3222,-0.1418 L 3.3238,-0.0" />
      <path d="M 10.865,6.0 L 10.8789,6.0 L 10.8928,6.0 L 10.9067,6.0 L 10.9206,6.0 L 10.9345,6.0 L 10.9484,6.0 L 10.9623,6.0 L 10.9762,6.0 L 10.99,6.0 L 11.0039,6.0 L 11.0178,6.0 L 11.0317,6.0 L 11.0456,6.0 L 11.0595,6.0 L 11.0734,6.0 L 11.0873,6.0 L 11.1012,6.0 L 11.115,6.0 L 11.1289,6.0 L 11.1428,6.0 L 11.1567,6.0 L 11.1706,6.0 L 11.1845,6.0 L 11.1984,6.0 L 11.2123,6.0 L 11.2262,6.0 L 11.24,6.0 L 11.2539,6.0 L 11.2678,6.0 L 11.2817,6.0 L 11.2956,6.0 L 11.3095,6.0 L 11.3234,6.0 L 11.3373,6.0 L 11.3512,6.0 L 11.365,6.0 L 11.3789,6.0 L 11.3928,6.0 L 11.4067,6.0 L 11.4206,6.0 L 11.4345,6.0 L 11.4484,6.0 L 11.4623,6.0 L 11.4761,6.0 L 11.49,6.0 L 11.5039,6.0 L 11.5178,6.0 L 11.5317,6.0 L 11.5456,6.0 L 11.5595,6.0 L 11.5734,6.0 L 11.5873,6.0 L 11.6011,6.0 L 11.615,6.0 L 11.6289,6.0 L 11.6428,6.0 L 11.6567,6.0 L 11.6706,6.0 L 11.6845,6.0 L 11.6984,6.0 L 11.7123,6.0 L 11.7261,6.0 L 11.74,6.0 L 11.7539,6.0 L 11.7678,6.0 L 11.7817,6.0 L 11.7956,6.0 L 11.8095,6.0 L 11.8234,6.0 L 11.8373,6.0 L 11.8511,6.0 L 11.865,6.0" />
      <path d="M -3.1794,-15.0 L -3.1793,-15.0 L -3.1792,-15.0 L -3.1791,-15.0 L -3.179,-15.0 L -3.1789,-15.0 L -3.1788,-15.0 L -3.1787,-15.0 L -3.1786,-15.0 L -3.1785,-15.0 L -3.1784,-15.0 L -3.1783,-15.0 L -3.1782,-15.0 L -3.1781,-15.0 L -3.178,-15.0 L -3.1779,-15.0 L -3.1778,-15.0 L -3.1777,-15.0 L -3.1776,-15.0 L -3.1775,-15.0 L -3.1774,-15.0 L -3.1773,-15.0 L -3.1772,-15.0 L -3.1771,-15.0 L -3.177,-15.0 L -3.1769,-15.0 L -3.1768,-15.0 L -3.1767,-15.0 L -3.1766,-15.0 L -3.1765,-15.0 L -3.1764,-15.0 L -3.1763,-15.0 L -3.1762,-15.0" />
      <path d="M -3.1794,15.0 L -3.1793,15.0 L -3.1792,15.0 L -3.1791,15.0 L -3.179,15.0 L -3.1789,15.0 L -3.1788,15.0 L -3.1787,15.0 L -3.1786,15.0 L -3.1785,15.0 L -3.1784,15.0 L -3.1783,15.0 L -3.1782,15.0 L -3.1781,15.0 L -3.178,15.0 L -3.1779,15.0 L -3.1778,15.0 L -3.1777,15.0 L -3.1776,15.0 L -3.1775,15.0 L -3.1774,15.0 L -3.1773,15.0 L -3.1772,15.0 L -3.1771,15.0 L -3.177,15.0 L -3.1769,15.0 L -3.1768,15.0 L -3.1767,15.0 L -3.1766,15.0 L -3.1765,15.0 L -3.1764,15.0 L -3.1763,15.0 L -3.1762,15.0" />
      <path d="M 29.865,10.8459 L 29.8651,10.8458 L 29.8651,10.8457 L 29.8651,10.8456 L 29.8652,10.8456 L 29.8652,10.8455 L 29.8652,10.8454 L 29.8653,10.8454 L 29.8653,10.8453 L 29.8653,10.8452 L 29.8654,10.8452 L 29.8654,10.8451 L 29.8654,10.845 L 29.8655,10.845 L 29.8655,10.8449 L 29.8655,10.8448 L 29.8656,10.8448 L 29.8656,10.8447 L 29.8656,10.8446 L 29.8657,10.8446 L 29.8657,10.8445 L 29.8657,10.8444 L 29.8658,10.8443 L 29.8658,10.8442 L 29.8659,10.8441 L 29.8659,10.844" />
      <path d="M 29.865,10.8459 L 29.865,10.8598 L 29.865,10.8737 L 29.865,10.8876 L 29.865,10.9015 L 29.865,10.9154 L 29.865,10.9292 L 29.865,10.9431 L 29.865,10.957 L 29.865,10.9709 L 29.865,10.9848 L 29.865,10.9987 L 29.865,11.0126 L 29.865,11.0265 L 29.865,11.0404 L 29.865,11.0542 L 29.865,11.0681 L 29.865,11.082 L 29.865,11.0959 L 29.865,11.1098 L 29.865,11.1237 L 29.865,11.1376 L 29.865,11.1515 L 29.865,11.1654 L 29.865,11.1792 L 29.865,11.1931 L 29.865,11.207 L 29.865,11.2209 L 29.865,11.2348 L 29.865,11.2487 L 29.865,11.2626 L 29.865,11.2765 L 29.865,11.2904 L 29.865,11.3042 L 29.865,11.3181 L 29.865,11.332 L 29.865,11.3459 L 29.865,11.3598 L 29.865,11.3737 L 29.865,11.3876 L 29.865,11.4015 L 29.865,11.4154 L 29.865,11.4292 L 29.865,11.4431 L 29.865,11.457 L 29.865,11.4709 L 29.865,11.4848 L 29.865,11.4987 L 29.865,11.5126 L 29.865,11.5265 L 29.865,11.5404 L 29.865,11.5542 L 29.865,11.5681 L 29.865,11.582 L 29.865,11.5959 L 29.865,11.6098 L 29.865,11.6237 L 29.865,11.6376 L 29.865,11.6515 L 29.865,11.6654 L 29.865,11.6792 L 29.865,11.6931 L 29.865,11.707 L 29.865,11.7209 L 29.865,11.7348 L 29.865,11.7487 L 29.865,11.7626 L 29.865,11.7765 L 29.865,11.7904 L 29.865,11.8042 L 29.865,11.8181 L 29.865,11.832 L 29.865,11.8459" />
      <path d="M 29.865,11.8459 L 29.8651,11.8456 L 29.8653,11.8454 L 29.8654,11.8451 L 29.8655,11.8448 L 29.8656,11.8446 L 29.8658,11.8443 L 29.8659,11.8441 L 29.866,11.8438 L 29.8661,11.8435 L 29.8663,11.8433 L 29.8664,11.843 L 29.8665,11.8427 L 29.8666,11.8425 L 29.8668,11.8422 L 29.8669,11.8419 L 29.867,11.8417 L 29.8671,11.8414 L 29.8673,11.8411 L 29.8674,11.8409 L 29.8675,11.8406 L 29.8676,11.8404 L 29.8677,11.8401 L 29.8679,11.8398 L 29.868,11.8396 L 29.8681,11.8393 L 29.8682,11.839 L 29.8684,11.8388 L 29.8685,11.8385 L 29.8686,11.8382 L 29.8687,11.838 L 29.8689,11.8377 L 29.869,11.8374 L 29.8691,11.8372 L 29.8692,11.8369 L 29.8694,11.8367 L 29.8695,11.8364 L 29.8696,11.8361 L 29.8697,11.8359 L 29.8699,11.8356 L 29.87,11.8353 L 29.8701,11.8351 L 29.8702,11.8348 L 29.8703,11.8345 L 29.8705,11.8343 L 29.8706,11.834 L 29.8707,11.8337 L 29.8708,11.8335 L 29.871,11.8332 L 29.8711,11.8329 L 29.8712,11.8327 L 29.8713,11.8324 L 29.8715,11.8322 L 29.8716,11.8319 L 29.8717,11.8316 L 29.8718,11.8314 L 29.872,11.8311 L 29.8721,11.8308 L 29.8722,11.8306 L 29.8723,11.8303 L 29.8725,11.83 L 29.8726,11.8298 L 29.8727,11.8295 L 29.8728,11.8292 L 29.8729,11.829 L 29.8731,11.8287 L 29.8732,11.8285 L 29.8733,11.8282 L 29.8734,11.8279 L 29.8736,11.8277 L 29.8737,11.8274 L 29.8738,11.8271 L 29.8739,11.8269" />
      <path d="M 29.8739,11.8269 L 29.8741,11.8266 L 29.8742,11.8263 L 29.8743,11.8261 L 29.8744,11.8258 L 29.8746,11.8255 L 29.8747,11.8253 L 29.8748,11.825 L 29.8749,11.8248 L 29.8751,11.8245 L 29.8752,11.8242 L 29.8753,11.824 L 29.8754,11.8237 L 29.8755,11.8234 L 29.8757,11.8232 L 29.8758,11.8229 L 29.8759,11.8226 L 29.876,11.8224 L 29.8762,11.8221 L 29.8763,11.8218 L 29.8764,11.8216 L 29.8765,11.8213 L 29.8767,11.8211 L 29.8768,11.8208 L 29.8769,11.8205 L 29.877,11.8203 L 29.8772,11.82 L 29.8773,11.8197 L 29.8774,11.8195 L 29.8775,11.8192 L 29.8777,11.8189 L 29.8778,11.8187 L 29.8779,11.8184 L 29.878,11.8181 L 29.8781,11.8179 L 29.8783,11.8176 L 29.8784,11.8173 L 29.8785,11.8171 L 29.8786,11.8168 L 29.8788,11.8166 L 29.8789,11.8163 L 29.879,11.816 L 29.8791,11.8158 L 29.8793,11.8155 L 29.8794,11.8152 L 29.8795,11.815 L 29.8796,11.8147 L 29.8798,11.8144 L 29.8799,11.8142 L 29.88,11.8139 L 29.8801,11.8136 L 29.8803,11.8134 L 29.8804,11.8131 L 29.8805,11.8129 L 29.8806,11.8126 L 29.8807,11.8123 L 29.8809,11.8121 L 29.881,11.8118 L 29.8811,11.8115 L 29.8812,11.8113 L 29.8814,11.811 L 29.8815,11.8107 L 29.8816,11.8105 L 29.8817,11.8102 L 29.8819,11.8099 L 29.882,11.8097 L 29.8821,11.8094 L 29.8822,11.8092 L 29.8824,11.8089 L 29.8825,11.8086 L 29.8826,11.8084 L 29.8827,11.8081 L 29.8829,11.8078" />
      <path d="M 29.8829,10.8078 L 29.8829,10.8217 L 29.8829,10.8356 L 29.8829,10.8495 L 29.8829,10.8634 L 29.8829,10.8773 L 29.8829,10.8912 L 29.8829,10.9051 L 29.8829,10.9189 L 29.8829,10.9328 L 29.8829,10.9467 L 29.8829,10.9606 L 29.8829,10.9745 L 29.8829,10.9884 L 29.8829,11.0023 L 29.8829,11.0162 L 29.8829,11.0301 L 29.8829,11.0439 L 29.8829,11.0578 L 29.8829,11.0717 L 29.8829,11.0856 L 29.8829,11.0995 L 29.8829,11.1134 L 29.8829,11.1273 L 29.8829,11.1412 L 29.8829,11.1551 L 29.8829,11.1689 L 29.8829,11.1828 L 29.8829,11.1967 L 29.8829,11.2106 L 29.8829,11.2245 L 29.8829,11.2384 L 29.8829,11.2523 L 29.8829,11.2662 L 29.8829,11.2801 L 29.8829,11.2939 L 29.8829,11.3078 L 29.8829,11.3217 L 29.8829,11.3356 L 29.8829,11.3495 L 29.8829,11.3634 L 29.8829,11.3773 L 29.8829,11.3912 L 29.8829,11.4051 L 29.8829,11.4189 L 29.8829,11.4328 L 29.8829,11.4467 L 29.8829,11.4606 L 29.8829,11.4745 L 29.8829,11.4884 L 29.8829,11.5023 L 29.8829,11.5162 L 29.8829,11.5301 L 29.8829,11.5439 L 29.8829,11.5578 L 29.8829,11.5717 L 29.8829,11.5856 L 29.8829,11.5995 L 29.8829,11.6134 L 29.8829,11.6273 L 29.8829,11.6412 L 29.8829,11.6551 L 29.8829,11.6689 L 29.8829,11.6828 L 29.8829,11.6967 L 29.8829,11.7106 L 29.8829,11.7245 L 29.8829,11.7384 L 29.8829,11.7523 L 29.8829,11.7662 L 29.8829,11.7801 L 29.8829,11.7939 L 29.8829,11.8078" />
      <path d="M 29.8819,10.8098 L 29.882,10.8098 L 29.882,10.8097 L 29.882,10.8096 L 29.8821,10.8095 L 29.8821,10.8094 L 29.8822,10.8093 L 29.8822,10.8092 L 29.8822,10.8091 L 29.8823,10.8091 L 29.8823,10.809 L 29.8823,10.8089 L 29.8824,10.8089 L 29.8824,10.8088 L 29.8824,10.8087 L 29.8825,10.8087 L 29.8825,10.8086 L 29.8825,10.8085 L 29.8826,10.8085 L 29.8826,10.8084 L 29.8826,10.8083 L 29.8827,10.8082 L 29.8827,10.8081 L 29.8828,10.8081 L 29.8828,10.808 L 29.8828,10.8079 L 29.8829,10.8078" />
      <path d="M 29.8819,10.8098 L 29.8833,10.4072 L 29.8845,10.0047 L 29.8856,9.6022 L 29.8865,9.1996 L 29.8873,8.7971 L 29.8881,8.3945 L 29.8888,7.992 L 29.8894,7.5895 L 29.89,7.1869 L 29.8906,6.7844 L 29.8911,6.3818 L 29.8916,5.9793 L 29.892,5.5768 L 29.8924,5.1742 L 29.8928,4.7717 L 29.8932,4.3691 L 29.8935,3.9666 L 29.8938,3.5641 L 29.8941,3.1615 L 29.8944,2.759 L 29.8946,2.3564 L 29.8949,1.9539 L 29.8951,1.5514 L 29.8953,1.1488 L 29.8954,0.7463 L 29.8956,0.3437 L 29.8957,-0.0588 L 29.8958,-0.4613 L 29.8959,-0.8639 L 29.896,-1.2664 L 29.8961,-1.669 L 29.8962,-2.0715 L 29.8962,-2.474 L 29.8962,-2.8766 L 29.8962,-3.2791 L 29.8962,-3.6817 L 29.8962,-4.0842 L 29.8961,-4.4867 L 29.8961,-4.8893 L 29.896,-5.2918 L 29.8959,-5.6944 L 29.8958,-6.0969 L 29.8957,-6.4995 L 29.8955,-6.902 L 29.8954,-7.3045 L 29.8952,-7.7071 L 29.895,-8.1096 L 29.8948,-8.5122 L 29.8946,-8.9147 L 29.8943,-9.3172 L 29.894,-9.7198 L 29.8937,-10.1223 L 29.8934,-10.5249 L 29.8931,-10.9274 L 29.8927,-11.3299 L 29.8923,-11.7325 L 29.8919,-12.135 L 29.8914,-12.5376 L 29.8909,-12.9401 L 29.8904,-13.3426 L 29.8898,-13.7452 L 29.8892,-14.1477 L 29.8885,-14.5503 L 29.8878,-14.9528 L 29.887,-15.3553 L 29.8861,-15.7579 L 29.8852,-16.1604 L 29.884,-16.563 L 29.8828,-16.9655 L 29.8812,-17.368 L 29.8791,-17.7706 L 29.874,-18.1731" />
      <path d="M 29.874,-18.1731 L 29.8689,-17.7701 L 29.8668,-17.3671 L 29.8652,-16.9641 L 29.8639,-16.5611 L 29.8628,-16.1581 L 29.8619,-15.7551 L 29.861,-15.352 L 29.8602,-14.949 L 29.8595,-14.546 L 29.8588,-14.143 L 29.8582,-13.74 L 29.8576,-13.337 L 29.8571,-12.9339 L 29.8566,-12.5309 L 29.8561,-12.1279 L 29.8557,-11.7249 L 29.8553,-11.3219 L 29.8549,-10.9189 L 29.8545,-10.5159 L 29.8542,-10.1128 L 29.8539,-9.7098 L 29.8536,-9.3068 L 29.8534,-8.9038 L 29.8531,-8.5008 L 29.8529,-8.0978 L 29.8527,-7.6947 L 29.8525,-7.2917 L 29.8524,-6.8887 L 29.8522,-6.4857 L 29.8521,-6.0827 L 29.852,-5.6797 L 29.8519,-5.2767 L 29.8518,-4.8736 L 29.8517,-4.4706 L 29.8517,-4.0676 L 29.8517,-3.6646 L 29.8516,-3.2616 L 29.8517,-2.8586 L 29.8517,-2.4555 L 29.8517,-2.0525 L 29.8518,-1.6495 L 29.8518,-1.2465 L 29.8519,-0.8435 L 29.852,-0.4405 L 29.8521,-0.0374 L 29.8523,0.3656 L 29.8524,0.7686 L 29.8526,1.1716 L 29.8528,1.5746 L 29.853,1.9776 L 29.8532,2.3806 L 29.8535,2.7837 L 29.8537,3.1867 L 29.854,3.5897 L 29.8543,3.9927 L 29.8547,4.3957 L 29.855,4.7987 L 29.8554,5.2018 L 29.8558,5.6048 L 29.8563,6.0078 L 29.8567,6.4108 L 29.8573,6.8138 L 29.8578,7.2168 L 29.8584,7.6198 L 29.8591,8.0229 L 29.8597,8.4259 L 29.8605,8.8289 L 29.8613,9.2319 L 29.8623,9.6349 L 29.8633,10.0379 L 29.8645,10.4409 L 29.8659,10.844" />
      <path d="M 29.8739,3.3269 L 29.8762,3.1464 L 29.8771,2.9658 L 29.8778,2.7853 L 29.8783,2.6047 L 29.8788,2.4242 L 29.8793,2.2436 L 29.8796,2.0631 L 29.88,1.8825 L 29.8803,1.7019 L 29.8806,1.5214 L 29.8809,1.3408 L 29.8811,1.1603 L 29.8813,0.9797 L 29.8816,0.7992 L 29.8818,0.6186 L 29.882,0.4381 L 29.8821,0.2575 L 29.8823,0.0769 L 29.8824,-0.1036 L 29.8826,-0.2842 L 29.8827,-0.4647 L 29.8828,-0.6453 L 29.8829,-0.8258 L 29.883,-1.0064 L 29.8831,-1.187 L 29.8832,-1.3675 L 29.8833,-1.5481 L 29.8833,-1.7286 L 29.8834,-1.9092 L 29.8835,-2.0897 L 29.8835,-2.2703 L 29.8835,-2.4508 L 29.8836,-2.6314 L 29.8836,-2.812 L 29.8836,-2.9925 L 29.8836,-3.1731 L 29.8836,-3.3536 L 29.8836,-3.5342 L 29.8836,-3.7147 L 29.8835,-3.8953 L 29.8835,-4.0758 L 29.8835,-4.2564 L 29.8834,-4.437 L 29.8834,-4.6175 L 29.8833,-4.7981 L 29.8832,-4.9786 L 29.8831,-5.1592 L 29.8831,-5.3397 L 29.883,-5.5203 L 29.8828,-5.7009 L 29.8827,-5.8814 L 29.8826,-6.062 L 29.8825,-6.2425 L 29.8823,-6.4231 L 29.8822,-6.6036 L 29.882,-6.7842 L 29.8818,-6.9647 L 29.8816,-7.1453 L 29.8814,-7.3259 L 29.8812,-7.5064 L 29.8809,-7.687 L 29.8806,-7.8675 L 29.8803,-8.0481 L 29.88,-8.2286 L 29.8797,-8.4092 L 29.8793,-8.5897 L 29.8789,-8.7703 L 29.8784,-8.9509 L 29.8778,-9.1314 L 29.8771,-9.312 L 29.8762,-9.4925 L 29.874,-9.6731" />
      <path d="M 29.874,-9.6731 L 29.8717,-9.4925 L 29.8708,-9.312 L 29.8701,-9.1314 L 29.8695,-8.9509 L 29.8691,-8.7703 L 29.8686,-8.5898 L 29.8682,-8.4092 L 29.8679,-8.2286 L 29.8676,-8.0481 L 29.8673,-7.8675 L 29.867,-7.687 L 29.8668,-7.5064 L 29.8665,-7.3259 L 29.8663,-7.1453 L 29.8661,-6.9647 L 29.8659,-6.7842 L 29.8657,-6.6036 L 29.8656,-6.4231 L 29.8654,-6.2425 L 29.8653,-6.062 L 29.8652,-5.8814 L 29.8651,-5.7009 L 29.8649,-5.5203 L 29.8648,-5.3397 L 29.8647,-5.1592 L 29.8647,-4.9786 L 29.8646,-4.7981 L 29.8645,-4.6175 L 29.8645,-4.437 L 29.8644,-4.2564 L 29.8644,-4.0758 L 29.8643,-3.8953 L 29.8643,-3.7147 L 29.8643,-3.5342 L 29.8643,-3.3536 L 29.8643,-3.1731 L 29.8643,-2.9925 L 29.8643,-2.8119 L 29.8643,-2.6314 L 29.8643,-2.4508 L 29.8644,-2.2703 L 29.8644,-2.0897 L 29.8645,-1.9092 L 29.8645,-1.7286 L 29.8646,-1.5481 L 29.8647,-1.3675 L 29.8647,-1.1869 L 29.8648,-1.0064 L 29.8649,-0.8258 L 29.865,-0.6453 L 29.8651,-0.4647 L 29.8653,-0.2842 L 29.8654,-0.1036 L 29.8656,0.077 L 29.8657,0.2575 L 29.8659,0.4381 L 29.8661,0.6186 L 29.8663,0.7992 L 29.8665,0.9797 L 29.8667,1.1603 L 29.867,1.3409 L 29.8672,1.5214 L 29.8675,1.702 L 29.8678,1.8825 L 29.8682,2.0631 L 29.8686,2.2436 L 29.869,2.4242 L 29.8695,2.6047 L 29.87,2.7853 L 29.8707,2.9659 L 29.8716,3.1464 L 29.8739,3.3269" />
      <path d="M 15.865,10.8458 L 15.8653,10.8453 L 15.8655,10.8448 L 15.8658,10.8443 L 15.866,10.8437 L 15.8663,10.8432 L 15.8665,10.8427 L 15.8668,10.8421 L 15.867,10.8416 L 15.8673,10.8411 L 15.8675,10.8406 L 15.8678,10.84 L 15.868,10.8395 L 15.8683,10.839 L 15.8685,10.8384 L 15.8688,10.8379 L 15.869,10.8374 L 15.8692,10.8369 L 15.8695,10.8363 L 15.8697,10.8358 L 15.87,10.8353 L 15.8702,10.8347 L 15.8705,10.8342 L 15.8707,10.8337 L 15.871,10.8332 L 15.8712,10.8326 L 15.8715,10.8321 L 15.8717,10.8316 L 15.872,10.831 L 15.8722,10.8305 L 15.8725,10.83 L 15.8727,10.8295 L 15.873,10.8289 L 15.8732,10.8284 L 15.8735,10.8279 L 15.8737,10.8273 L 15.874,10.8268 L 15.8742,10.8263 L 15.8744,10.8257 L 15.8747,10.8252 L 15.8749,10.8247 L 15.8752,10.8242 L 15.8754,10.8236 L 15.8757,10.8231 L 15.8759,10.8226 L 15.8762,10.822 L 15.8764,10.8215 L 15.8767,10.821 L 15.8769,10.8205 L 15.8772,10.8199 L 15.8774,10.8194 L 15.8777,10.8189 L 15.8779,10.8183 L 15.8782,10.8178 L 15.8784,10.8173 L 15.8787,10.8168 L 15.8789,10.8162 L 15.8792,10.8157 L 15.8794,10.8152 L 15.8796,10.8146 L 15.8799,10.8141 L 15.8801,10.8136 L 15.8804,10.8131 L 15.8806,10.8125 L 15.8809,10.812 L 15.8811,10.8115 L 15.8814,10.8109 L 15.8816,10.8104 L 15.8819,10.8099 L 15.8821,10.8094 L 15.8824,10.8088 L 15.8826,10.8083 L 15.8829,10.8078" />
      <path d="M 29.8829,10.8078 L 29.8828,10.8078 L 29.8827,10.8078 L 29.8826,10.8078 L 29.8825,10.8078 L 29.8824,10.8078 L 29.8823,10.8078 L 29.8822,10.8078 L 29.8821,10.8078 L 29.882,10.8078 L 29.8819,10.8078" />
      <path d="M 28.8658,10.8078 L 28.6855,10.8078 L 28.5052,10.8078 L 28.3248,10.8078 L 28.1445,10.8078 L 27.9642,10.8078 L 27.7839,10.8078 L 27.6036,10.8078 L 27.4232,10.8078 L 27.2429,10.8078 L 27.0626,10.8078 L 26.8823,10.8078 L 26.702,10.8078 L 26.5217,10.8078 L 26.3413,10.8078 L 26.161,10.8078 L 25.9807,10.8078 L 25.8004,10.8078 L 25.6201,10.8078 L 25.4397,10.8078 L 25.2594,10.8078 L 25.0791,10.8078 L 24.8988,10.8078 L 24.7185,10.8078 L 24.5382,10.8078 L 24.3578,10.8078 L 24.1775,10.8078 L 23.9972,10.8078 L 23.8169,10.8078 L 23.6366,10.8078 L 23.4562,10.8078 L 23.2759,10.8078 L 23.0956,10.8078 L 22.9153,10.8078 L 22.735,10.8078 L 22.5547,10.8078 L 22.3743,10.8078 L 22.194,10.8078 L 22.0137,10.8078 L 21.8334,10.8078 L 21.6531,10.8078 L 21.4727,10.8078 L 21.2924,10.8078 L 21.1121,10.8078 L 20.9318,10.8078 L 20.7515,10.8078 L 20.5711,10.8078 L 20.3908,10.8078 L 20.2105,10.8078 L 20.0302,10.8078 L 19.8499,10.8078 L 19.6696,10.8078 L 19.4892,10.8078 L 19.3089,10.8078 L 19.1286,10.8078 L 18.9483,10.8078 L 18.768,10.8078 L 18.5876,10.8078 L 18.4073,10.8078 L 18.227,10.8078 L 18.0467,10.8078 L 17.8664,10.8078 L 17.6861,10.8078 L 17.5057,10.8078 L 17.3254,10.8078 L 17.1451,10.8078 L 16.9648,10.8078 L 16.7845,10.8078 L 16.6041,10.8078 L 16.4238,10.8078 L 16.2435,10.8078 L 16.0632,10.8078 L 15.8829,10.8078" />
      <path d="M 29.8659,10.844 L 29.852,10.844 L 29.8382,10.844 L 29.8243,10.844 L 29.8104,10.844 L 29.7965,10.844 L 29.7826,10.844 L 29.7687,10.844 L 29.7548,10.844 L 29.7409,10.844 L 29.727,10.844 L 29.7132,10.844 L 29.6993,10.844 L 29.6854,10.844 L 29.6715,10.844 L 29.6576,10.844 L 29.6437,10.844 L 29.6298,10.844 L 29.6159,10.844 L 29.602,10.844 L 29.5882,10.844 L 29.5743,10.844 L 29.5604,10.844 L 29.5465,10.844 L 29.5326,10.844 L 29.5187,10.844 L 29.5048,10.844 L 29.4909,10.844 L 29.477,10.844 L 29.4632,10.844 L 29.4493,10.844 L 29.4354,10.844 L 29.4215,10.844 L 29.4076,10.844 L 29.3937,10.844 L 29.3798,10.844 L 29.3659,10.844 L 29.352,10.844 L 29.3382,10.844 L 29.3243,10.844 L 29.3104,10.844 L 29.2965,10.844 L 29.2826,10.844 L 29.2687,10.844 L 29.2548,10.844 L 29.2409,10.844 L 29.227,10.844 L 29.2132,10.844 L 29.1993,10.844 L 29.1854,10.844 L 29.1715,10.844 L 29.1576,10.844 L 29.1437,10.844 L 29.1298,10.844 L 29.1159,10.844 L 29.102,10.844 L 29.0882,10.844 L 29.0743,10.844 L 29.0604,10.844 L 29.0465,10.844 L 29.0326,10.844 L 29.0187,10.844 L 29.0048,10.844 L 28.9909,10.844 L 28.977,10.844 L 28.9632,10.844 L 28.9493,10.844 L 28.9354,10.844 L 28.9215,10.844 L 28.9076,10.844 L 28.8937,10.844 L 28.8798,10.844 L 28.8659,10.844" />
      <path d="M 29.865,10.8459 L 29.6706,10.8459 L 29.4761,10.8459 L 29.2817,10.8459 L 29.0872,10.8459 L 28.8928,10.8459 L 28.6984,10.8459 L 28.5039,10.8459 L 28.3095,10.8459 L 28.115,10.8459 L 27.9206,10.8459 L 27.7261,10.8459 L 27.5317,10.8459 L 27.3372,10.8459 L 27.1428,10.8459 L 26.9484,10.8459 L 26.7539,10.8459 L 26.5595,10.8459 L 26.365,10.8459 L 26.1706,10.8459 L 25.9761,10.8459 L 25.7817,10.8459 L 25.5872,10.8459 L 25.3928,10.8459 L 25.1984,10.8459 L 25.0039,10.8459 L 24.8095,10.8459 L 24.615,10.8459 L 24.4206,10.8459 L 24.2261,10.8459 L 24.0317,10.8459 L 23.8373,10.8459 L 23.6428,10.8459 L 23.4484,10.8459 L 23.2539,10.8459 L 23.0595,10.8459 L 22.865,10.8459 L 22.6706,10.8459 L 22.4761,10.8459 L 22.2817,10.8459 L 22.0873,10.8459 L 21.8928,10.8459 L 21.6984,10.8459 L 21.5039,10.8459 L 21.3095,10.8459 L 21.115,10.8459 L 20.9206,10.8459 L 20.7261,10.8459 L 20.5317,10.8459 L 20.3373,10.8459 L 20.1428,10.8459 L 19.9484,10.8459 L 19.7539,10.8459 L 19.5595,10.8459 L 19.365,10.8459 L 19.1706,10.8459 L 18.9761,10.8459 L 18.7817,10.8459 L 18.5873,10.8459 L 18.3928,10.8459 L 18.1984,10.8459 L 18.0039,10.8459 L 17.8095,10.8459 L 17.615,10.8459 L 17.4206,10.8459 L 17.2261,10.8459 L 17.0317,10.8459 L 16.8373,10.8459 L 16.6428,10.8458 L 16.4484,10.8458 L 16.2539,10.8458 L 16.0595,10.8458 L 15.865,10.8458" />
      <path d="M 29.865,11.8459 L 29.6706,11.8459 L 29.4761,11.8459 L 29.2817,11.8459 L 29.0872,11.8459 L 28.8928,11.8459 L 28.6984,11.8459 L 28.5039,11.8459 L 28.3095,11.8459 L 28.115,11.8459 L 27.9206,11.8459 L 27.7261,11.8459 L 27.5317,11.8459 L 27.3372,11.8459 L 27.1428,11.8459 L 26.9484,11.8459 L 26.7539,11.8459 L 26.5595,11.8459 L 26.365,11.8459 L 26.1706,11.8459 L 25.9761,11.8459 L 25.7817,11.8459 L 25.5872,11.8459 L 25.3928,11.8459 L 25.1984,11.8459 L 25.0039,11.8459 L 24.8095,11.8459 L 24.615,11.8459 L 24.4206,11.8459 L 24.2261,11.8459 L 24.0317,11.8459 L 23.8373,11.8459 L 23.6428,11.8459 L 23.4484,11.8459 L 23.2539,11.8459 L 23.0595,11.8459 L 22.865,11.8459 L 22.6706,11.8459 L 22.4761,11.8459 L 22.2817,11.8459 L 22.0873,11.8459 L 21.8928,11.8459 L 21.6984,11.8459 L 21.5039,11.8459 L 21.3095,11.8459 L 21.115,11.8459 L 20.9206,11.8459 L 20.7261,11.8459 L 20.5317,11.8459 L 20.3373,11.8459 L 20.1428,11.8459 L 19.9484,11.8459 L 19.7539,11.8459 L 19.5595,11.8459 L 19.365,11.8459 L 19.1706,11.8459 L 18.9761,11.8459 L 18.7817,11.8459 L 18.5873,11.8459 L 18.3928,11.8459 L 18.1984,11.8459 L 18.0039,11.8459 L 17.8095,11.8458 L 17.615,11.8458 L 17.4206,11.8458 L 17.2261,11.8458 L 17.0317,11.8458 L 16.8373,11.8458 L 16.6428,11.8458 L 16.4484,11.8458 L 16.2539,11.8458 L 16.0595,11.8458 L 15.865,11.8458" />
      <path d="M 15.865,10.8458 L 15.865,10.8597 L 15.865,10.8736 L 15.865,10.8875 L 15.865,10.9014 L 15.865,10.9153 L 15.865,10.9292 L 15.865,10.9431 L 15.865,10.957 L 15.865,10.9708 L 15.865,10.9847 L 15.865,10.9986 L 15.865,11.0125 L 15.865,11.0264 L 15.865,11.0403 L 15.865,11.0542 L 15.865,11.0681 L 15.865,11.082 L 15.865,11.0958 L 15.865,11.1097 L 15.865,11.1236 L 15.865,11.1375 L 15.865,11.1514 L 15.865,11.1653 L 15.865,11.1792 L 15.865,11.1931 L 15.865,11.207 L 15.865,11.2208 L 15.865,11.2347 L 15.865,11.2486 L 15.865,11.2625 L 15.865,11.2764 L 15.865,11.2903 L 15.865,11.3042 L 15.865,11.3181 L 15.865,11.332 L 15.865,11.3458 L 15.865,11.3597 L 15.865,11.3736 L 15.865,11.3875 L 15.865,11.4014 L 15.865,11.4153 L 15.865,11.4292 L 15.865,11.4431 L 15.865,11.457 L 15.865,11.4708 L 15.865,11.4847 L 15.865,11.4986 L 15.865,11.5125 L 15.865,11.5264 L 15.865,11.5403 L 15.865,11.5542 L 15.865,11.5681 L 15.865,11.582 L 15.865,11.5958 L 15.865,11.6097 L 15.865,11.6236 L 15.865,11.6375 L 15.865,11.6514 L 15.865,11.6653 L 15.865,11.6792 L 15.865,11.6931 L 15.865,11.707 L 15.865,11.7208 L 15.865,11.7347 L 15.865,11.7486 L 15.865,11.7625 L 15.865,11.7764 L 15.865,11.7903 L 15.865,11.8042 L 15.865,11.8181 L 15.865,11.832 L 15.865,11.8458" />
      <path d="M 28.874,-18.1731 L 28.8689,-17.7701 L 28.8668,-17.3671 L 28.8652,-16.9641 L 28.8639,-16.5611 L 28.8628,-16.1581 L 28.8619,-15.7551 L 28.861,-15.352 L 28.8602,-14.949 L 28.8595,-14.546 L 28.8588,-14.143 L 28.8582,-13.74 L 28.8576,-13.337 L 28.8571,-12.934 L 28.8566,-12.5309 L 28.8561,-12.1279 L 28.8557,-11.7249 L 28.8553,-11.3219 L 28.8549,-10.9189 L 28.8545,-10.5159 L 28.8542,-10.1128 L 28.8539,-9.7098 L 28.8536,-9.3068 L 28.8534,-8.9038 L 28.8531,-8.5008 L 28.8529,-8.0978 L 28.8527,-7.6948 L 28.8525,-7.2917 L 28.8524,-6.8887 L 28.8522,-6.4857 L 28.8521,-6.0827 L 28.852,-5.6797 L 28.8519,-5.2767 L 28.8518,-4.8736 L 28.8517,-4.4706 L 28.8517,-4.0676 L 28.8517,-3.6646 L 28.8517,-3.2616 L 28.8517,-2.8586 L 28.8517,-2.4555 L 28.8517,-2.0525 L 28.8518,-1.6495 L 28.8518,-1.2465 L 28.8519,-0.8435 L 28.852,-0.4405 L 28.8521,-0.0375 L 28.8523,0.3656 L 28.8524,0.7686 L 28.8526,1.1716 L 28.8528,1.5746 L 28.853,1.9776 L 28.8532,2.3806 L 28.8535,2.7837 L 28.8537,3.1867 L 28.854,3.5897 L 28.8543,3.9927 L 28.8547,4.3957 L 28.855,4.7987 L 28.8554,5.2017 L 28.8558,5.6048 L 28.8563,6.0078 L 28.8567,6.4108 L 28.8573,6.8138 L 28.8578,7.2168 L 28.8584,7.6198 L 28.8591,8.0229 L 28.8598,8.4259 L 28.8605,8.8289 L 28.8613,9.2319 L 28.8623,9.6349 L 28.8633,10.0379 L 28.8645,10.4409 L 28.8659,10.844" />
      <path d="M 29.874,-18.1731 L 29.8601,-18.1731 L 29.8462,-18.1731 L 29.8323,-18.1731 L 29.8185,-18.1731 L 29.8046,-18.1731 L 29.7907,-18.1731 L 29.7768,-18.1731 L 29.7629,-18.1731 L 29.749,-18.1731 L 29.7351,-18.1731 L 29.7212,-18.1731 L 29.7073,-18.1731 L 29.6935,-18.1731 L 29.6796,-18.1731 L 29.6657,-18.1731 L 29.6518,-18.1731 L 29.6379,-18.1731 L 29.624,-18.1731 L 29.6101,-18.1731 L 29.5962,-18.1731 L 29.5823,-18.1731 L 29.5685,-18.1731 L 29.5546,-18.1731 L 29.5407,-18.1731 L 29.5268,-18.1731 L 29.5129,-18.1731 L 29.499,-18.1731 L 29.4851,-18.1731 L 29.4712,-18.1731 L 29.4573,-18.1731 L 29.4435,-18.1731 L 29.4296,-18.1731 L 29.4157,-18.1731 L 29.4018,-18.1731 L 29.3879,-18.1731 L 29.374,-18.1731 L 29.3601,-18.1731 L 29.3462,-18.1731 L 29.3323,-18.1731 L 29.3185,-18.1731 L 29.3046,-18.1731 L 29.2907,-18.1731 L 29.2768,-18.1731 L 29.2629,-18.1731 L 29.249,-18.1731 L 29.2351,-18.1731 L 29.2212,-18.1731 L 29.2073,-18.1731 L 29.1935,-18.1731 L 29.1796,-18.1731 L 29.1657,-18.1731 L 29.1518,-18.1731 L 29.1379,-18.1731 L 29.124,-18.1731 L 29.1101,-18.1731 L 29.0962,-18.1731 L 29.0823,-18.1731 L 29.0685,-18.1731 L 29.0546,-18.1731 L 29.0407,-18.1731 L 29.0268,-18.1731 L 29.0129,-18.1731 L 28.999,-18.1731 L 28.9851,-18.1731 L 28.9712,-18.1731 L 28.9573,-18.1731 L 28.9435,-18.1731 L 28.9296,-18.1731 L 28.9157,-18.1731 L 28.9018,-18.1731 L 28.8879,-18.1731 L 28.874,-18.1731" />
    </g>
    <g fill="none" stroke="rgb(110,110,110)" stroke-width="0.3" id="Hidden" stroke-dasharray="3.6 0.9">
      <path d="M 10.8206,-5.3934 L 10.8206,-5.3933 L 10.8206,-5.3932 L 10.8206,-5.3931 L 10.8206,-5.393 L 10.8206,-5.3928 L 10.8206,-5.3927 L 10.8206,-5.3926 L 10.8206,-5.3925 L 10.8206,-5.3924 L 10.8206,-5.3923 L 10.8206,-5.3922 L 10.8206,-5.392 L 10.8206,-5.3919 L 10.8206,-5.3918 L 10.8206,-5.3917 L 10.8206,-5.3916 L 10.8206,-5.3915 L 10.8206,-5.3914 L 10.8206,-5.3912 L 10.8206,-5.3911 L 10.8206,-5.391 L 10.8206,-5.3909 L 10.8206,-5.3908 L 10.8206,-5.3907 L 10.8206,-5.3906 L 10.8206,-5.3904 L 10.8206,-5.3903 L 10.8206,-5.3902 L 10.8206,-5.3901 L 10.8206,-5.39 L 10.8206,-5.3899 L 10.8206,-5.3898 L 10.8206,-5.3896 L 10.8206,-5.3895 L 10.8206,-5.3894 L 10.8206,-5.3893 L 10.8206,-5.3892 L 10.8206,-5.3891 L 10.8206,-5.3889 L 10.8206,-5.3888 L 10.8206,-5.3887 L 10.8206,-5.3886 L 10.8206,-5.3885 L 10.8206,-5.3884 L 10.8206,-5.3883 L 10.8206,-5.3881 L 10.8206,-5.388 L 10.8206,-5.3879 L 10.8206,-5.3878 L 10.8206,-5.3877 L 10.8206,-5.3876 L 10.8206,-5.3875 L 10.8206,-5.3873 L 10.8206,-5.3872 L 10.8206,-5.3871 L 10.8206,-5.387 L 10.8206,-5.3869 L 10.8206,-5.3868 L 10.8206,-5.3867 L 10.8206,-5.3865 L 10.8206,-5.3864 L 10.8206,-5.3863 L 10.8206,-5.3862 L 10.8206,-5.3861 L 10.8206,-5.386 L 10.8206,-5.3859 L 10.8206,-5.3857 L 10.8206,-5.3856 L 10.8206,-5.3855 L 10.8206,-5.3854 L 10.8206,-5.3853 L 10.8206,-5.3852" />
      <path d="M 10.8206,-6.0 L 10.8344,-6.0 L 10.8483,-6.0 L 10.8622,-6.0 L 10.8761,-6.0 L 10.89,-6.0 L 10.9039,-6.0 L 10.9178,-6.0 L 10.9317,-6.0 L 10.9456,-6.0 L 10.9594,-6.0 L 10.9733,-6.0 L 10.9872,-6.0 L 11.0011,-6.0 L 11.015,-6.0 L 11.0289,-6.0 L 11.0428,-6.0 L 11.0567,-6.0 L 11.0706,-6.0 L 11.0844,-6.0 L 11.0983,-6.0 L 11.1122,-6.0 L 11.1261,-6.0 L 11.14,-6.0 L 11.1539,-6.0 L 11.1678,-6.0 L 11.1817,-6.0 L 11.1956,-6.0 L 11.2094,-6.0 L 11.2233,-6.0 L 11.2372,-6.0 L 11.2511,-6.0 L 11.265,-6.0 L 11.2789,-6.0 L 11.2928,-6.0 L 11.3067,-6.0 L 11.3206,-6.0 L 11.3344,-6.0 L 11.3483,-6.0 L 11.3622,-6.0 L 11.3761,-6.0 L 11.39,-6.0 L 11.4039,-6.0 L 11.4178,-6.0 L 11.4317,-6.0 L 11.4455,-6.0 L 11.4594,-6.0 L 11.4733,-6.0 L 11.4872,-6.0 L 11.5011,-6.0 L 11.515,-6.0 L 11.5289,-6.0 L 11.5428,-6.0 L 11.5567,-6.0 L 11.5705,-6.0 L 11.5844,-6.0 L 11.5983,-6.0 L 11.6122,-6.0 L 11.6261,-6.0 L 11.64,-6.0 L 11.6539,-6.0 L 11.6678,-6.0 L 11.6817,-6.0 L 11.6955,-6.0 L 11.7094,-6.0 L 11.7233,-6.0 L 11.7372,-6.0 L 11.7511,-6.0 L 11.765,-6.0 L 11.7789,-6.0 L 11.7928,-6.0 L 11.8067,-6.0 L 11.8205,-6.0" />
      <path d="M 11.8205,-6.0 L 11.8205,-5.9167 L 11.8205,-5.8333 L 11.8205,-5.75 L 11.8205,-5.6667 L 11.8205,-5.5833 L 11.8205,-5.5 L 11.8205,-5.4167 L 11.8205,-5.3333 L 11.8205,-5.25 L 11.8205,-5.1667 L 11.8205,-5.0833 L 11.8205,-5.0 L 11.8205,-4.9167 L 11.8205,-4.8333 L 11.8205,-4.75 L 11.8205,-4.6667 L 11.8205,-4.5833 L 11.8205,-4.5 L 11.8205,-4.4167 L 11.8205,-4.3333 L 11.8205,-4.25 L 11.8205,-4.1667 L 11.8205,-4.0833 L 11.8205,-4.0 L 11.8205,-3.9167 L 11.8205,-3.8333 L 11.8205,-3.75 L 11.8205,-3.6667 L 11.8205,-3.5833 L 11.8205,-3.5 L 11.8205,-3.4167 L 11.8205,-3.3333 L 11.8205,-3.25 L 11.8205,-3.1667 L 11.8205,-3.0833 L 11.8205,-3.0 L 11.8205,-2.9167 L 11.8205,-2.8333 L 11.8205,-2.75 L 11.8205,-2.6667 L 11.8205,-2.5833 L 11.8205,-2.5 L 11.8205,-2.4167 L 11.8205,-2.3333 L 11.8205,-2.25 L 11.8205,-2.1667 L 11.8205,-2.0833 L 11.8205,-2.0 L 11.8205,-1.9167 L 11.8205,-1.8333 L 11.8205,-1.75 L 11.8205,-1.6667 L 11.8205,-1.5833 L 11.8205,-1.5 L 11.8205,-1.4167 L 11.8205,-1.3333 L 11.8205,-1.25 L 11.8205,-1.1667 L 11.8205,-1.0833 L 11.8205,-1.0 L 11.8205,-0.9167 L 11.8205,-0.8333 L 11.8205,-0.75 L 11.8205,-0.6667 L 11.8205,-0.5833 L 11.8205,-0.5 L 11.8205,-0.4167 L 11.8205,-0.3333 L 11.8205,-0.25 L 11.8205,-0.1667 L 11.8205,-0.0833 L 11.8205,0.0" />
      <path d="M 11.8205,0.0 L 11.8205,0.0833 L 11.8205,0.1667 L 11.8205,0.25 L 11.8205,0.3333 L 11.8205,0.4167 L 11.8205,0.5 L 11.8205,0.5833 L 11.8205,0.6667 L 11.8205,0.75 L 11.8205,0.8333 L 11.8205,0.9167 L 11.8205,1.0 L 11.8205,1.0833 L 11.8205,1.1667 L 11.8205,1.25 L 11.8205,1.3333 L 11.8205,1.4167 L 11.8205,1.5 L 11.8205,1.5833 L 11.8205,1.6667 L 11.8205,1.75 L 11.8205,1.8333 L 11.8205,1.9167 L 11.8205,2.0 L 11.8205,2.0833 L 11.8205,2.1667 L 11.8205,2.25 L 11.8205,2.3333 L 11.8205,2.4167 L 11.8205,2.5 L 11.8205,2.5833 L 11.8205,2.6667 L 11.8205,2.75 L 11.8205,2.8333 L 11.8205,2.9167 L 11.8205,3.0 L 11.8205,3.0833 L 11.8205,3.1667 L 11.8205,3.25 L 11.8205,3.3333 L 11.8205,3.4167 L 11.8205,3.5 L 11.8205,3.5833 L 11.8205,3.6667 L 11.8205,3.75 L 11.8205,3.8333 L 11.8205,3.9167 L 11.8205,4.0 L 11.8205,4.0833 L 11.8205,4.1667 L 11.8205,4.25 L 11.8205,4.3333 L 11.8205,4.4167 L 11.8205,4.5 L 11.8205,4.5833 L 11.8205,4.6667 L 11.8205,4.75 L 11.8205,4.8333 L 11.8205,4.9167 L 11.8205,5.0 L 11.8205,5.0833 L 11.8205,5.1667 L 11.8205,5.25 L 11.8205,5.3333 L 11.8205,5.4167 L 11.8205,5.5 L 11.8205,5.5833 L 11.8205,5.6667 L 11.8205,5.75 L 11.8205,5.8333 L 11.8205,5.9167 L 11.8205,6.0" />
      <path d="M 10.8206,6.0 L 10.8344,6.0 L 10.8483,6.0 L 10.8622,6.0 L 10.8761,6.0 L 10.89,6.0 L 10.9039,6.0 L 10.9178,6.0 L 10.9317,6.0 L 10.9456,6.0 L 10.9594,6.0 L 10.9733,6.0 L 10.9872,6.0 L 11.0011,6.0 L 11.015,6.0 L 11.0289,6.0 L 11.0428,6.0 L 11.0567,6.0 L 11.0706,6.0 L 11.0844,6.0 L 11.0983,6.0 L 11.1122,6.0 L 11.1261,6.0 L 11.14,6.0 L 11.1539,6.0 L 11.1678,6.0 L 11.1817,6.0 L 11.1956,6.0 L 11.2094,6.0 L 11.2233,6.0 L 11.2372,6.0 L 11.2511,6.0 L 11.265,6.0 L 11.2789,6.0 L 11.2928,6.0 L 11.3067,6.0 L 11.3206,6.0 L 11.3344,6.0 L 11.3483,6.0 L 11.3622,6.0 L 11.3761,6.0 L 11.39,6.0 L 11.4039,6.0 L 11.4178,6.0 L 11.4317,6.0 L 11.4455,6.0 L 11.4594,6.0 L 11.4733,6.0 L 11.4872,6.0 L 11.5011,6.0 L 11.515,6.0 L 11.5289,6.0 L 11.5428,6.0 L 11.5567,6.0 L 11.5705,6.0 L 11.5844,6.0 L 11.5983,6.0 L 11.6122,6.0 L 11.6261,6.0 L 11.64,6.0 L 11.6539,6.0 L 11.6678,6.0 L 11.6817,6.0 L 11.6955,6.0 L 11.7094,6.0 L 11.7233,6.0 L 11.7372,6.0 L 11.7511,6.0 L 11.765,6.0 L 11.7789,6.0 L 11.7928,6.0 L 11.8067,6.0 L 11.8205,6.0" />
      <path d="M 10.8206,5.3852 L 10.8206,5.3853 L 10.8206,5.3854 L 10.8206,5.3855 L 10.8206,5.3856 L 10.8206,5.3857 L 10.8206,5.3859 L 10.8206,5.386 L 10.8206,5.3861 L 10.8206,5.3862 L 10.8206,5.3863 L 10.8206,5.3864 L 10.8206,5.3865 L 10.8206,5.3867 L 10.8206,5.3868 L 10.8206,5.3869 L 10.8206,5.387 L 10.8206,5.3871 L 10.8206,5.3872 L 10.8206,5.3873 L 10.8206,5.3875 L 10.8206,5.3876 L 10.8206,5.3877 L 10.8206,5.3878 L 10.8206,5.3879 L 10.8206,5.388 L 10.8206,5.3881 L 10.8206,5.3883 L 10.8206,5.3884 L 10.8206,5.3885 L 10.8206,5.3886 L 10.8206,5.3887 L 10.8206,5.3888 L 10.8206,5.3889 L 10.8206,5.3891 L 10.8206,5.3892 L 10.8206,5.3893 L 10.8206,5.3894 L 10.8206,5.3895 L 10.8206,5.3896 L 10.8206,5.3898 L 10.8206,5.3899 L 10.8206,5.39 L 10.8206,5.3901 L 10.8206,5.3902 L 10.8206,5.3903 L 10.8206,5.3904 L 10.8206,5.3906 L 10.8206,5.3907 L 10.8206,5.3908 L 10.8206,5.3909 L 10.8206,5.391 L 10.8206,5.3911 L 10.8206,5.3912 L 10.8206,5.3914 L 10.8206,5.3915 L 10.8206,5.3916 L 10.8206,5.3917 L 10.8206,5.3918 L 10.8206,5.3919 L 10.8206,5.392 L 10.8206,5.3922 L 10.8206,5.3923 L 10.8206,5.3924 L 10.8206,5.3925 L 10.8206,5.3926 L 10.8206,5.3927 L 10.8206,5.3928 L 10.8206,5.393 L 10.8206,5.3931 L 10.8206,5.3932 L 10.8206,5.3933 L 10.8206,5.3934" />
      <path d="M 10.8206,5.3852 L 10.7286,5.6184 L 10.6327,5.8501 L 10.533,6.0802 L 10.4295,6.3086 L 10.3221,6.5352 L 10.211,6.7599 L 10.0961,6.9828 L 9.9775,7.2038 L 9.8553,7.4227 L 9.7294,7.6395 L 9.5999,7.8542 L 9.4668,8.0667 L 9.3302,8.277 L 9.1901,8.485 L 9.0465,8.6905 L 8.8996,8.8937 L 8.7492,9.0944 L 8.5955,9.2925 L 8.4385,9.488 L 8.2783,9.6809 L 8.1149,9.8711 L 7.9483,10.0585 L 7.7786,10.2431 L 7.6059,10.4248 L 7.4301,10.6037 L 7.2514,10.7795 L 7.0697,10.9524 L 6.8852,11.1222 L 6.6979,11.2888 L 6.5078,11.4524 L 6.3151,11.6127 L 6.1196,11.7698 L 5.9216,11.9236 L 5.721,12.074 L 5.5179,12.2211 L 5.3124,12.3648 L 5.1046,12.505 L 4.8944,12.6418 L 4.6819,12.775 L 4.4673,12.9046 L 4.2505,13.0306 L 4.0317,13.153 L 3.8108,13.2717 L 3.588,13.3867 L 3.3633,13.4979 L 3.1367,13.6054 L 2.9084,13.7091 L 2.6784,13.8089 L 2.4468,13.9049 L 2.2135,13.997 L 1.9788,14.0852 L 1.7427,14.1695 L 1.5051,14.2497 L 1.2663,14.3261 L 1.0262,14.3984 L 0.7849,14.4667 L 0.5425,14.5309 L 0.2991,14.5911 L 0.0547,14.6472 L -0.1906,14.6992 L -0.4367,14.7471 L -0.6836,14.7909 L -0.9312,14.8306 L -1.1794,14.8661 L -1.4282,14.8974 L -1.6774,14.9246 L -1.9271,14.9476 L -2.1771,14.9665 L -2.4275,14.9811 L -2.678,14.9916 L -2.9286,14.9979 L -3.1794,15.0" />
      <path d="M -3.1794,-15.0 L -2.9286,-14.9979 L -2.678,-14.9916 L -2.4275,-14.9811 L -2.1771,-14.9665 L -1.9271,-14.9476 L -1.6774,-14.9246 L -1.4282,-14.8974 L -1.1794,-14.8661 L -0.9312,-14.8306 L -0.6836,-14.7909 L -0.4367,-14.7471 L -0.1906,-14.6992 L 0.0547,-14.6472 L 0.2991,-14.5911 L 0.5425,-14.5309 L 0.7849,-14.4667 L 1.0262,-14.3984 L 1.2663,-14.3261 L 1.5051,-14.2497 L 1.7427,-14.1695 L 1.9788,-14.0852 L 2.2135,-13.997 L 2.4468,-13.9049 L 2.6784,-13.8089 L 2.9084,-13.7091 L 3.1367,-13.6054 L 3.3633,-13.4979 L 3.588,-13.3867 L 3.8108,-13.2717 L 4.0317,-13.153 L 4.2505,-13.0306 L 4.4673,-12.9046 L 4.6819,-12.775 L 4.8944,-12.6418 L 5.1046,-12.505 L 5.3124,-12.3648 L 5.5179,-12.2211 L 5.721,-12.074 L 5.9216,-11.9236 L 6.1196,-11.7698 L 6.3151,-11.6127 L 6.5078,-11.4524 L 6.6979,-11.2888 L 6.8852,-11.1222 L 7.0697,-10.9524 L 7.2514,-10.7795 L 7.4301,-10.6037 L 7.6059,-10.4248 L 7.7786,-10.2431 L 7.9483,-10.0585 L 8.1149,-9.8711 L 8.2783,-9.6809 L 8.4385,-9.488 L 8.5955,-9.2925 L 8.7492,-9.0944 L 8.8996,-8.8937 L 9.0465,-8.6905 L 9.1901,-8.485 L 9.3302,-8.277 L 9.4668,-8.0667 L 9.5999,-7.8542 L 9.7294,-7.6395 L 9.8553,-7.4227 L 9.9775,-7.2038 L 10.0961,-6.9828 L 10.211,-6.7599 L 10.3221,-6.5352 L 10.4295,-6.3086 L 10.533,-6.0802 L 10.6327,-5.8501 L 10.7286,-5.6184 L 10.8206,-5.3852" />
      <path d="M -3.1778,6.5 L -3.1779,6.5 L -3.178,6.5 L -3.1781,6.5 L -3.1782,6.5 L -3.1783,6.5 L -3.1784,6.5 L -3.1785,6.5 L -3.1786,6.5 L -3.1787,6.5 L -3.1788,6.5 L -3.1789,6.5 L -3.179,6.5 L -3.1791,6.5 L -3.1792,6.5 L -3.1793,6.5 L -3.1794,6.5" />
      <path d="M -3.1794,6.5 L -3.4629,6.4938 L -3.7459,6.4753 L -4.0278,6.4444 L -4.3081,6.4012 L -4.5862,6.3459 L -4.8617,6.2785 L -5.134,6.1992 L -5.4025,6.108 L -5.6668,6.0052 L -5.9264,5.891 L -6.1807,5.7656 L -6.4294,5.6292 L -6.6718,5.482 L -6.9076,5.3245 L -7.1363,5.1568 L -7.3575,4.9793 L -7.5707,4.7923 L -7.7756,4.5962 L -7.9717,4.3913 L -8.1586,4.1781 L -8.3362,3.9569 L -8.5038,3.7282 L -8.6614,3.4924 L -8.8085,3.25 L -8.9449,3.0014 L -9.0704,2.747 L -9.1846,2.4874 L -9.2873,2.2231 L -9.3785,1.9546 L -9.4579,1.6823 L -9.5253,1.4069 L -9.5806,1.1287 L -9.6237,0.8484 L -9.6546,0.5665 L -9.6732,0.2835 L -9.6793,0.0 L -9.6732,-0.2835 L -9.6546,-0.5665 L -9.6237,-0.8484 L -9.5806,-1.1287 L -9.5253,-1.4069 L -9.4579,-1.6823 L -9.3785,-1.9546 L -9.2873,-2.2231 L -9.1846,-2.4874 L -9.0704,-2.747 L -8.9449,-3.0014 L -8.8085,-3.25 L -8.6614,-3.4924 L -8.5038,-3.7282 L -8.3362,-3.9569 L -8.1586,-4.1781 L -7.9717,-4.3913 L -7.7756,-4.5962 L -7.5707,-4.7923 L -7.3575,-4.9793 L -7.1363,-5.1568 L -6.9076,-5.3245 L -6.6718,-5.482 L -6.4294,-5.6292 L -6.1807,-5.7656 L -5.9264,-5.891 L -5.6668,-6.0052 L -5.4025,-6.108 L -5.134,-6.1992 L -4.8617,-6.2785 L -4.5862,-6.3459 L -4.3081,-6.4012 L -4.0278,-6.4444 L -3.7459,-6.4753 L -3.4629,-6.4938 L -3.1794,-6.5" />
      <path d="M -3.1794,-6.5 L -3.1793,-6.5 L -3.1792,-6.5 L -3.1791,-6.5 L -3.179,-6.5 L -3.1789,-6.5 L -3.1788,-6.5 L -3.1787,-6.5 L -3.1786,-6.5 L -3.1785,-6.5 L -3.1784,-6.5 L -3.1783,-6.5 L -3.1782,-6.5 L -3.1781,-6.5 L -3.178,-6.5 L -3.1779,-6.5 L -3.1778,-6.5" />
      <path d="M 10.8206,5.3852 L 10.8207,5.3852 L 10.8208,5.3852 L 10.8209,5.3852 L 10.821,5.3852 L 10.8211,5.3852 L 10.8212,5.3852 L 10.8213,5.3852 L 10.8214,5.3852 L 10.8215,5.3852 L 10.8216,5.3852 L 10.8217,5.3852 L 10.8218,5.3852 L 10.8219,5.3852 L 10.822,5.3852 L 10.8221,5.3852 L 10.8222,5.3852 L 10.8223,5.3852 L 10.8224,5.3852 L 10.8225,5.3852 L 10.8226,5.3852 L 10.8227,5.3852 L 10.8228,5.3852 L 10.8229,5.3852 L 10.823,5.3852 L 10.8231,5.3852 L 10.8232,5.3852 L 10.8233,5.3852 L 10.8234,5.3852 L 10.8235,5.3852 L 10.8236,5.3852 L 10.8237,5.3852" />
      <path d="M 10.8206,-5.3852 L 10.8207,-5.3852 L 10.8208,-5.3852 L 10.8209,-5.3852 L 10.821,-5.3852 L 10.8211,-5.3852 L 10.8212,-5.3852 L 10.8213,-5.3852 L 10.8214,-5.3852 L 10.8215,-5.3852 L 10.8216,-5.3852 L 10.8217,-5.3852 L 10.8218,-5.3852 L 10.8219,-5.3852 L 10.822,-5.3852 L 10.8221,-5.3852 L 10.8222,-5.3852 L 10.8223,-5.3852 L 10.8224,-5.3852 L 10.8225,-5.3852 L 10.8226,-5.3852 L 10.8227,-5.3852 L 10.8228,-5.3852 L 10.8229,-5.3852 L 10.823,-5.3852 L 10.8231,-5.3852 L 10.8232,-5.3852 L 10.8233,-5.3852 L 10.8234,-5.3852 L 10.8235,-5.3852 L 10.8236,-5.3852 L 10.8237,-5.3852" />
      <path d="M 11.8205,-6.0 L 11.8212,-6.0 L 11.8218,-6.0 L 11.8224,-6.0 L 11.823,-6.0 L 11.8236,-6.0 L 11.8243,-6.0 L 11.8249,-6.0 L 11.8255,-6.0 L 11.8261,-6.0 L 11.8267,-6.0 L 11.8273,-6.0 L 11.828,-6.0 L 11.8286,-6.0 L 11.8292,-6.0 L 11.8298,-6.0 L 11.8304,-6.0 L 11.8311,-6.0 L 11.8317,-6.0 L 11.8323,-6.0 L 11.8329,-6.0 L 11.8335,-6.0 L 11.8341,-6.0 L 11.8348,-6.0 L 11.8354,-6.0 L 11.836,-6.0 L 11.8366,-6.0 L 11.8372,-6.0 L 11.8378,-6.0 L 11.8385,-6.0 L 11.8391,-6.0 L 11.8397,-6.0 L 11.8403,-6.0 L 11.8409,-6.0 L 11.8416,-6.0 L 11.8422,-6.0 L 11.8428,-6.0 L 11.8434,-6.0 L 11.844,-6.0 L 11.8446,-6.0 L 11.8453,-6.0 L 11.8459,-6.0 L 11.8465,-6.0 L 11.8471,-6.0 L 11.8477,-6.0 L 11.8484,-6.0 L 11.849,-6.0 L 11.8496,-6.0 L 11.8502,-6.0 L 11.8508,-6.0 L 11.8514,-6.0 L 11.8521,-6.0 L 11.8527,-6.0 L 11.8533,-6.0 L 11.8539,-6.0 L 11.8545,-6.0 L 11.8552,-6.0 L 11.8558,-6.0 L 11.8564,-6.0 L 11.857,-6.0 L 11.8576,-6.0 L 11.8582,-6.0 L 11.8589,-6.0 L 11.8595,-6.0 L 11.8601,-6.0 L 11.8607,-6.0 L 11.8613,-6.0 L 11.8619,-6.0 L 11.8626,-6.0 L 11.8632,-6.0 L 11.8638,-6.0 L 11.8644,-6.0 L 11.865,-6.0" />
      <path d="M 11.8205,6.0 L 11.8212,6.0 L 11.8218,6.0 L 11.8224,6.0 L 11.823,6.0 L 11.8236,6.0 L 11.8243,6.0 L 11.8249,6.0 L 11.8255,6.0 L 11.8261,6.0 L 11.8267,6.0 L 11.8273,6.0 L 11.828,6.0 L 11.8286,6.0 L 11.8292,6.0 L 11.8298,6.0 L 11.8304,6.0 L 11.8311,6.0 L 11.8317,6.0 L 11.8323,6.0 L 11.8329,6.0 L 11.8335,6.0 L 11.8341,6.0 L 11.8348,6.0 L 11.8354,6.0 L 11.836,6.0 L 11.8366,6.0 L 11.8372,6.0 L 11.8378,6.0 L 11.8385,6.0 L 11.8391,6.0 L 11.8397,6.0 L 11.8403,6.0 L 11.8409,6.0 L 11.8416,6.0 L 11.8422,6.0 L 11.8428,6.0 L 11.8434,6.0 L 11.844,6.0 L 11.8446,6.0 L 11.8453,6.0 L 11.8459,6.0 L 11.8465,6.0 L 11.8471,6.0 L 11.8477,6.0 L 11.8484,6.0 L 11.849,6.0 L 11.8496,6.0 L 11.8502,6.0 L 11.8508,6.0 L 11.8514,6.0 L 11.8521,6.0 L 11.8527,6.0 L 11.8533,6.0 L 11.8539,6.0 L 11.8545,6.0 L 11.8552,6.0 L 11.8558,6.0 L 11.8564,6.0 L 11.857,6.0 L 11.8576,6.0 L 11.8582,6.0 L 11.8589,6.0 L 11.8595,6.0 L 11.8601,6.0 L 11.8607,6.0 L 11.8613,6.0 L 11.8619,6.0 L 11.8626,6.0 L 11.8632,6.0 L 11.8638,6.0 L 11.8644,6.0 L 11.865,6.0" />
      <path d="M 11.8205,0.0 L 11.8206,0.0 L 11.8207,0.0 L 11.8208,0.0 L 11.8209,0.0 L 11.821,0.0 L 11.8211,0.0 L 11.8212,0.0 L 11.8213,0.0 L 11.8214,0.0 L 11.8215,0.0 L 11.8216,0.0 L 11.8217,0.0 L 11.8218,0.0 L 11.8219,0.0 L 11.822,0.0 L 11.8221,0.0 L 11.8222,0.0 L 11.8223,0.0 L 11.8224,0.0 L 11.8225,0.0 L 11.8226,0.0 L 11.8227,0.0 L 11.8228,0.0 L 11.8229,0.0 L 11.823,0.0 L 11.8231,0.0 L 11.8232,0.0 L 11.8233,0.0 L 11.8234,0.0 L 11.8235,0.0 L 11.8236,0.0 L 11.8237,0.0" />
      <path d="M -3.1794,-6.5 L -3.1793,-6.5 L -3.1792,-6.5 L -3.1791,-6.5 L -3.179,-6.5 L -3.1789,-6.5 L -3.1788,-6.5 L -3.1787,-6.5 L -3.1786,-6.5 L -3.1785,-6.5 L -3.1784,-6.5 L -3.1783,-6.5 L -3.1782,-6.5 L -3.1781,-6.5 L -3.178,-6.5 L -3.1779,-6.5 L -3.1778,-6.5 L -3.1777,-6.5 L -3.1776,-6.5 L -3.1775,-6.5 L -3.1774,-6.5 L -3.1773,-6.5 L -3.1772,-6.5 L -3.1771,-6.5 L -3.177,-6.5 L -3.1769,-6.5 L -3.1768,-6.5 L -3.1767,-6.5 L -3.1766,-6.5 L -3.1765,-6.5 L -3.1764,-6.5 L -3.1763,-6.5 L -3.1762,-6.5" />
      <path d="M -3.1794,6.5 L -3.1793,6.5 L -3.1792,6.5 L -3.1791,6.5 L -3.179,6.5 L -3.1789,6.5 L -3.1788,6.5 L -3.1787,6.5 L -3.1786,6.5 L -3.1785,6.5 L -3.1784,6.5 L -3.1783,6.5 L -3.1782,6.5 L -3.1781,6.5 L -3.178,6.5 L -3.1779,6.5 L -3.1778,6.5 L -3.1777,6.5 L -3.1776,6.5 L -3.1775,6.5 L -3.1774,6.5 L -3.1773,6.5 L -3.1772,6.5 L -3.1771,6.5 L -3.177,6.5 L -3.1769,6.5 L -3.1768,6.5 L -3.1767,6.5 L -3.1766,6.5 L -3.1765,6.5 L -3.1764,6.5 L -3.1763,6.5 L -3.1762,6.5" />
      <path d="M 29.8819,10.8078 L 29.8678,10.8078 L 29.8537,10.8078 L 29.8396,10.8078 L 29.8255,10.8078 L 29.8114,10.8078 L 29.7973,10.8078 L 29.7832,10.8078 L 29.769,10.8078 L 29.7549,10.8078 L 29.7408,10.8078 L 29.7267,10.8078 L 29.7126,10.8078 L 29.6985,10.8078 L 29.6844,10.8078 L 29.6702,10.8078 L 29.6561,10.8078 L 29.642,10.8078 L 29.6279,10.8078 L 29.6138,10.8078 L 29.5997,10.8078 L 29.5856,10.8078 L 29.5715,10.8078 L 29.5573,10.8078 L 29.5432,10.8078 L 29.5291,10.8078 L 29.515,10.8078 L 29.5009,10.8078 L 29.4868,10.8078 L 29.4727,10.8078 L 29.4586,10.8078 L 29.4444,10.8078 L 29.4303,10.8078 L 29.4162,10.8078 L 29.4021,10.8078 L 29.388,10.8078 L 29.3739,10.8078 L 29.3598,10.8078 L 29.3456,10.8078 L 29.3315,10.8078 L 29.3174,10.8078 L 29.3033,10.8078 L 29.2892,10.8078 L 29.2751,10.8078 L 29.261,10.8078 L 29.2469,10.8078 L 29.2327,10.8078 L 29.2186,10.8078 L 29.2045,10.8078 L 29.1904,10.8078 L 29.1763,10.8078 L 29.1622,10.8078 L 29.1481,10.8078 L 29.1339,10.8078 L 29.1198,10.8078 L 29.1057,10.8078 L 29.0916,10.8078 L 29.0775,10.8078 L 29.0634,10.8078 L 29.0493,10.8078 L 29.0352,10.8078 L 29.021,10.8078 L 29.0069,10.8078 L 28.9928,10.8078 L 28.9787,10.8078 L 28.9646,10.8078 L 28.9505,10.8078 L 28.9364,10.8078 L 28.9222,10.8078 L 28.9081,10.8078 L 28.894,10.8078 L 28.8799,10.8078 L 28.8658,10.8078" />
      <path d="M 29.8819,10.8098 L 29.868,10.8098 L 29.8542,10.8098 L 29.8403,10.8098 L 29.8264,10.8098 L 29.8125,10.8098 L 29.7986,10.8098 L 29.7847,10.8098 L 29.7708,10.8098 L 29.7569,10.8098 L 29.7431,10.8098 L 29.7292,10.8098 L 29.7153,10.8098 L 29.7014,10.8098 L 29.6875,10.8098 L 29.6736,10.8098 L 29.6597,10.8098 L 29.6458,10.8098 L 29.6319,10.8098 L 29.6181,10.8098 L 29.6042,10.8098 L 29.5903,10.8098 L 29.5764,10.8098 L 29.5625,10.8098 L 29.5486,10.8098 L 29.5347,10.8098 L 29.5208,10.8098 L 29.5069,10.8098 L 29.4931,10.8098 L 29.4792,10.8098 L 29.4653,10.8098 L 29.4514,10.8098 L 29.4375,10.8098 L 29.4236,10.8098 L 29.4097,10.8098 L 29.3958,10.8098 L 29.3819,10.8098 L 29.3681,10.8098 L 29.3542,10.8098 L 29.3403,10.8098 L 29.3264,10.8098 L 29.3125,10.8098 L 29.2986,10.8098 L 29.2847,10.8098 L 29.2708,10.8098 L 29.2569,10.8098 L 29.2431,10.8098 L 29.2292,10.8098 L 29.2153,10.8098 L 29.2014,10.8098 L 29.1875,10.8098 L 29.1736,10.8098 L 29.1597,10.8098 L 29.1458,10.8098 L 29.1319,10.8098 L 29.1181,10.8098 L 29.1042,10.8098 L 29.0903,10.8098 L 29.0764,10.8098 L 29.0625,10.8098 L 29.0486,10.8098 L 29.0347,10.8098 L 29.0208,10.8098 L 29.0069,10.8098 L 28.9931,10.8098 L 28.9792,10.8098 L 28.9653,10.8098 L 28.9514,10.8098 L 28.9375,10.8098 L 28.9236,10.8098 L 28.9097,10.8098 L 28.8958,10.8098 L 28.8819,10.8098" />
      <path d="M 28.8659,10.844 L 28.8662,10.8435 L 28.8664,10.843 L 28.8666,10.8425 L 28.8668,10.8421 L 28.867,10.8416 L 28.8673,10.8411 L 28.8675,10.8406 L 28.8677,10.8402 L 28.8679,10.8397 L 28.8682,10.8392 L 28.8684,10.8387 L 28.8686,10.8383 L 28.8688,10.8378 L 28.869,10.8373 L 28.8693,10.8368 L 28.8695,10.8364 L 28.8697,10.8359 L 28.8699,10.8354 L 28.8702,10.8349 L 28.8704,10.8345 L 28.8706,10.834 L 28.8708,10.8335 L 28.871,10.833 L 28.8713,10.8326 L 28.8715,10.8321 L 28.8717,10.8316 L 28.8719,10.8311 L 28.8722,10.8307 L 28.8724,10.8302 L 28.8726,10.8297 L 28.8728,10.8292 L 28.873,10.8288 L 28.8733,10.8283 L 28.8735,10.8278 L 28.8737,10.8273 L 28.8739,10.8269 L 28.8742,10.8264 L 28.8744,10.8259 L 28.8746,10.8254 L 28.8748,10.825 L 28.875,10.8245 L 28.8753,10.824 L 28.8755,10.8235 L 28.8757,10.8231 L 28.8759,10.8226 L 28.8762,10.8221 L 28.8764,10.8216 L 28.8766,10.8212 L 28.8768,10.8207 L 28.877,10.8202 L 28.8773,10.8197 L 28.8775,10.8193 L 28.8777,10.8188 L 28.8779,10.8183 L 28.8782,10.8179 L 28.8784,10.8174 L 28.8786,10.8169 L 28.8788,10.8164 L 28.8791,10.816 L 28.8793,10.8155 L 28.8795,10.815 L 28.8797,10.8145 L 28.8799,10.8141 L 28.8802,10.8136 L 28.8804,10.8131 L 28.8806,10.8126 L 28.8808,10.8122 L 28.8811,10.8117 L 28.8813,10.8112 L 28.8815,10.8107 L 28.8817,10.8103 L 28.8819,10.8098" />
      <path d="M 15.865,11.8458 L 15.8653,11.8453 L 15.8655,11.8448 L 15.8658,11.8443 L 15.866,11.8437 L 15.8663,11.8432 L 15.8665,11.8427 L 15.8668,11.8421 L 15.867,11.8416 L 15.8673,11.8411 L 15.8675,11.8406 L 15.8678,11.84 L 15.868,11.8395 L 15.8683,11.839 L 15.8685,11.8384 L 15.8688,11.8379 L 15.869,11.8374 L 15.8692,11.8369 L 15.8695,11.8363 L 15.8697,11.8358 L 15.87,11.8353 L 15.8702,11.8347 L 15.8705,11.8342 L 15.8707,11.8337 L 15.871,11.8331 L 15.8712,11.8326 L 15.8715,11.8321 L 15.8717,11.8316 L 15.872,11.831 L 15.8722,11.8305 L 15.8725,11.83 L 15.8727,11.8294 L 15.873,11.8289 L 15.8732,11.8284 L 15.8735,11.8279 L 15.8737,11.8273 L 15.874,11.8268 L 15.8742,11.8263 L 15.8744,11.8257 L 15.8747,11.8252 L 15.8749,11.8247 L 15.8752,11.8242 L 15.8754,11.8236 L 15.8757,11.8231 L 15.8759,11.8226 L 15.8762,11.822 L 15.8764,11.8215 L 15.8767,11.821 L 15.8769,11.8205 L 15.8772,11.8199 L 15.8774,11.8194 L 15.8777,11.8189 L 15.8779,11.8183 L 15.8782,11.8178 L 15.8784,11.8173 L 15.8787,11.8168 L 15.8789,11.8162 L 15.8792,11.8157 L 15.8794,11.8152 L 15.8796,11.8146 L 15.8799,11.8141 L 15.8801,11.8136 L 15.8804,11.8131 L 15.8806,11.8125 L 15.8809,11.812 L 15.8811,11.8115 L 15.8814,11.8109 L 15.8816,11.8104 L 15.8819,11.8099 L 15.8821,11.8094 L 15.8824,11.8088 L 15.8826,11.8083 L 15.8829,11.8078" />
      <path d="M 29.8829,11.8078 L 29.6884,11.8078 L 29.494,11.8078 L 29.2995,11.8078 L 29.1051,11.8078 L 28.9106,11.8078 L 28.7162,11.8078 L 28.5217,11.8078 L 28.3273,11.8078 L 28.1329,11.8078 L 27.9384,11.8078 L 27.744,11.8078 L 27.5495,11.8078 L 27.3551,11.8078 L 27.1606,11.8078 L 26.9662,11.8078 L 26.7717,11.8078 L 26.5773,11.8078 L 26.3829,11.8078 L 26.1884,11.8078 L 25.994,11.8078 L 25.7995,11.8078 L 25.6051,11.8078 L 25.4106,11.8078 L 25.2162,11.8078 L 25.0217,11.8078 L 24.8273,11.8078 L 24.6329,11.8078 L 24.4384,11.8078 L 24.244,11.8078 L 24.0495,11.8078 L 23.8551,11.8078 L 23.6606,11.8078 L 23.4662,11.8078 L 23.2717,11.8078 L 23.0773,11.8078 L 22.8829,11.8078 L 22.6884,11.8078 L 22.494,11.8078 L 22.2995,11.8078 L 22.1051,11.8078 L 21.9106,11.8078 L 21.7162,11.8078 L 21.5218,11.8078 L 21.3273,11.8078 L 21.1329,11.8078 L 20.9384,11.8078 L 20.744,11.8078 L 20.5495,11.8078 L 20.3551,11.8078 L 20.1606,11.8078 L 19.9662,11.8078 L 19.7718,11.8078 L 19.5773,11.8078 L 19.3829,11.8078 L 19.1884,11.8078 L 18.994,11.8078 L 18.7995,11.8078 L 18.6051,11.8078 L 18.4106,11.8078 L 18.2162,11.8078 L 18.0218,11.8078 L 17.8273,11.8078 L 17.6329,11.8078 L 17.4384,11.8078 L 17.244,11.8078 L 17.0495,11.8078 L 16.8551,11.8078 L 16.6606,11.8078 L 16.4662,11.8078 L 16.2718,11.8078 L 16.0773,11.8078 L 15.8829,11.8078" />
      <path d="M 29.8739,11.8269 L 29.86,11.8269 L 29.8462,11.8269 L 29.8323,11.8269 L 29.8184,11.8269 L 29.8045,11.8269 L 29.7906,11.8269 L 29.7767,11.8269 L 29.7628,11.8269 L 29.7489,11.8269 L 29.735,11.8269 L 29.7212,11.8269 L 29.7073,11.8269 L 29.6934,11.8269 L 29.6795,11.8269 L 29.6656,11.8269 L 29.6517,11.8269 L 29.6378,11.8269 L 29.6239,11.8269 L 29.61,11.8269 L 29.5962,11.8269 L 29.5823,11.8269 L 29.5684,11.8269 L 29.5545,11.8269 L 29.5406,11.8269 L 29.5267,11.8269 L 29.5128,11.8269 L 29.4989,11.8269 L 29.485,11.8269 L 29.4712,11.8269 L 29.4573,11.8269 L 29.4434,11.8269 L 29.4295,11.8269 L 29.4156,11.8269 L 29.4017,11.8269 L 29.3878,11.8269 L 29.3739,11.8269 L 29.36,11.8269 L 29.3462,11.8269 L 29.3323,11.8269 L 29.3184,11.8269 L 29.3045,11.8269 L 29.2906,11.8269 L 29.2767,11.8269 L 29.2628,11.8269 L 29.2489,11.8269 L 29.235,11.8269 L 29.2212,11.8269 L 29.2073,11.8269 L 29.1934,11.8269 L 29.1795,11.8269 L 29.1656,11.8269 L 29.1517,11.8269 L 29.1378,11.8269 L 29.1239,11.8269 L 29.11,11.8269 L 29.0962,11.8269 L 29.0823,11.8269 L 29.0684,11.8269 L 29.0545,11.8269 L 29.0406,11.8269 L 29.0267,11.8269 L 29.0128,11.8269 L 28.9989,11.8269 L 28.985,11.8269 L 28.9712,11.8269 L 28.9573,11.8269 L 28.9434,11.8269 L 28.9295,11.8269 L 28.9156,11.8269 L 28.9017,11.8269 L 28.8878,11.8269 L 28.8739,11.8269" />
      <path d="M 28.8819,10.8098 L 28.8833,10.4072 L 28.8845,10.0047 L 28.8856,9.6022 L 28.8865,9.1996 L 28.8873,8.7971 L 28.8881,8.3945 L 28.8888,7.992 L 28.8894,7.5895 L 28.89,7.1869 L 28.8906,6.7844 L 28.8911,6.3818 L 28.8916,5.9793 L 28.892,5.5768 L 28.8924,5.1742 L 28.8928,4.7717 L 28.8932,4.3691 L 28.8935,3.9666 L 28.8938,3.5641 L 28.8941,3.1615 L 28.8944,2.759 L 28.8946,2.3564 L 28.8949,1.9539 L 28.8951,1.5514 L 28.8953,1.1488 L 28.8954,0.7463 L 28.8956,0.3437 L 28.8957,-0.0588 L 28.8958,-0.4613 L 28.896,-0.8639 L 28.896,-1.2664 L 28.8961,-1.669 L 28.8962,-2.0715 L 28.8962,-2.474 L 28.8962,-2.8766 L 28.8962,-3.2791 L 28.8962,-3.6817 L 28.8962,-4.0842 L 28.8961,-4.4868 L 28.8961,-4.8893 L 28.896,-5.2918 L 28.8959,-5.6944 L 28.8958,-6.0969 L 28.8957,-6.4995 L 28.8955,-6.902 L 28.8954,-7.3045 L 28.8952,-7.7071 L 28.895,-8.1096 L 28.8948,-8.5122 L 28.8946,-8.9147 L 28.8943,-9.3172 L 28.894,-9.7198 L 28.8937,-10.1223 L 28.8934,-10.5249 L 28.8931,-10.9274 L 28.8927,-11.3299 L 28.8923,-11.7325 L 28.8919,-12.135 L 28.8914,-12.5376 L 28.8909,-12.9401 L 28.8904,-13.3426 L 28.8898,-13.7452 L 28.8892,-14.1477 L 28.8885,-14.5503 L 28.8878,-14.9528 L 28.887,-15.3553 L 28.8861,-15.7579 L 28.8852,-16.1604 L 28.884,-16.563 L 28.8828,-16.9655 L 28.8812,-17.368 L 28.8791,-17.7706 L 28.874,-18.1731" />
      <path d="M 28.8739,3.3269 L 28.8762,3.1464 L 28.8771,2.9658 L 28.8778,2.7853 L 28.8783,2.6047 L 28.8788,2.4242 L 28.8793,2.2436 L 28.8796,2.063 L 28.88,1.8825 L 28.8803,1.7019 L 28.8806,1.5214 L 28.8809,1.3408 L 28.8811,1.1603 L 28.8813,0.9797 L 28.8816,0.7992 L 28.8818,0.6186 L 28.882,0.438 L 28.8821,0.2575 L 28.8823,0.0769 L 28.8824,-0.1036 L 28.8826,-0.2842 L 28.8827,-0.4647 L 28.8828,-0.6453 L 28.8829,-0.8258 L 28.883,-1.0064 L 28.8831,-1.187 L 28.8832,-1.3675 L 28.8833,-1.5481 L 28.8833,-1.7286 L 28.8834,-1.9092 L 28.8835,-2.0897 L 28.8835,-2.2703 L 28.8835,-2.4509 L 28.8836,-2.6314 L 28.8836,-2.812 L 28.8836,-2.9925 L 28.8836,-3.1731 L 28.8836,-3.3536 L 28.8836,-3.5342 L 28.8836,-3.7147 L 28.8835,-3.8953 L 28.8835,-4.0759 L 28.8835,-4.2564 L 28.8834,-4.437 L 28.8834,-4.6175 L 28.8833,-4.7981 L 28.8832,-4.9786 L 28.8831,-5.1592 L 28.8831,-5.3397 L 28.883,-5.5203 L 28.8828,-5.7009 L 28.8827,-5.8814 L 28.8826,-6.062 L 28.8825,-6.2425 L 28.8823,-6.4231 L 28.8822,-6.6036 L 28.882,-6.7842 L 28.8818,-6.9648 L 28.8816,-7.1453 L 28.8814,-7.3259 L 28.8812,-7.5064 L 28.8809,-7.687 L 28.8806,-7.8675 L 28.8803,-8.0481 L 28.88,-8.2286 L 28.8797,-8.4092 L 28.8793,-8.5898 L 28.8789,-8.7703 L 28.8784,-8.9509 L 28.8778,-9.1314 L 28.8771,-9.312 L 28.8762,-9.4925 L 28.874,-9.6731" />
      <path d="M 28.874,-9.6731 L 28.8717,-9.4925 L 28.8708,-9.312 L 28.8701,-9.1314 L 28.8695,-8.9509 L 28.8691,-8.7703 L 28.8686,-8.5898 L 28.8682,-8.4092 L 28.8679,-8.2287 L 28.8676,-8.0481 L 28.8673,-7.8675 L 28.867,-7.687 L 28.8668,-7.5064 L 28.8665,-7.3259 L 28.8663,-7.1453 L 28.8661,-6.9648 L 28.8659,-6.7842 L 28.8658,-6.6036 L 28.8656,-6.4231 L 28.8654,-6.2425 L 28.8653,-6.062 L 28.8652,-5.8814 L 28.8651,-5.7009 L 28.8649,-5.5203 L 28.8648,-5.3397 L 28.8648,-5.1592 L 28.8647,-4.9786 L 28.8646,-4.7981 L 28.8645,-4.6175 L 28.8645,-4.437 L 28.8644,-4.2564 L 28.8644,-4.0758 L 28.8643,-3.8953 L 28.8643,-3.7147 L 28.8643,-3.5342 L 28.8643,-3.3536 L 28.8643,-3.1731 L 28.8643,-2.9925 L 28.8643,-2.812 L 28.8643,-2.6314 L 28.8643,-2.4508 L 28.8644,-2.2703 L 28.8644,-2.0897 L 28.8645,-1.9092 L 28.8645,-1.7286 L 28.8646,-1.5481 L 28.8647,-1.3675 L 28.8647,-1.1869 L 28.8648,-1.0064 L 28.8649,-0.8258 L 28.865,-0.6453 L 28.8651,-0.4647 L 28.8653,-0.2842 L 28.8654,-0.1036 L 28.8656,0.077 L 28.8657,0.2575 L 28.8659,0.4381 L 28.8661,0.6186 L 28.8663,0.7992 L 28.8665,0.9797 L 28.8667,1.1603 L 28.867,1.3408 L 28.8672,1.5214 L 28.8675,1.702 L 28.8678,1.8825 L 28.8682,2.0631 L 28.8686,2.2436 L 28.869,2.4242 L 28.8695,2.6047 L 28.87,2.7853 L 28.8707,2.9659 L 28.8716,3.1464 L 28.8739,3.3269" />
      <path d="M 15.8829,10.8078 L 15.8829,10.8217 L 15.8829,10.8355 L 15.8829,10.8494 L 15.8829,10.8633 L 15.8829,10.8772 L 15.8829,10.8911 L 15.8829,10.905 L 15.8829,10.9189 L 15.8829,10.9328 L 15.8829,10.9467 L 15.8829,10.9605 L 15.8829,10.9744 L 15.8829,10.9883 L 15.8829,11.0022 L 15.8829,11.0161 L 15.8829,11.03 L 15.8829,11.0439 L 15.8829,11.0578 L 15.8829,11.0717 L 15.8829,11.0855 L 15.8829,11.0994 L 15.8829,11.1133 L 15.8829,11.1272 L 15.8829,11.1411 L 15.8829,11.155 L 15.8829,11.1689 L 15.8829,11.1828 L 15.8829,11.1967 L 15.8829,11.2105 L 15.8829,11.2244 L 15.8829,11.2383 L 15.8829,11.2522 L 15.8829,11.2661 L 15.8829,11.28 L 15.8829,11.2939 L 15.8829,11.3078 L 15.8829,11.3217 L 15.8829,11.3355 L 15.8829,11.3494 L 15.8829,11.3633 L 15.8829,11.3772 L 15.8829,11.3911 L 15.8829,11.405 L 15.8829,11.4189 L 15.8829,11.4328 L 15.8829,11.4467 L 15.8829,11.4605 L 15.8829,11.4744 L 15.8829,11.4883 L 15.8829,11.5022 L 15.8829,11.5161 L 15.8829,11.53 L 15.8829,11.5439 L 15.8829,11.5578 L 15.8829,11.5717 L 15.8829,11.5855 L 15.8829,11.5994 L 15.8829,11.6133 L 15.8829,11.6272 L 15.8829,11.6411 L 15.8829,11.655 L 15.8829,11.6689 L 15.8829,11.6828 L 15.8829,11.6967 L 15.8829,11.7105 L 15.8829,11.7244 L 15.8829,11.7383 L 15.8829,11.7522 L 15.8829,11.7661 L 15.8829,11.78 L 15.8829,11.7939 L 15.8829,11.8078" />
      <path d="M 29.8739,3.3269 L 29.86,3.3269 L 29.8461,3.3269 L 29.8322,3.3269 L 29.8184,3.3269 L 29.8045,3.3269 L 29.7906,3.3269 L 29.7767,3.3269 L 29.7628,3.3269 L 29.7489,3.3269 L 29.735,3.3269 L 29.7211,3.3269 L 29.7072,3.3269 L 29.6934,3.3269 L 29.6795,3.3269 L 29.6656,3.3269 L 29.6517,3.3269 L 29.6378,3.3269 L 29.6239,3.3269 L 29.61,3.3269 L 29.5961,3.3269 L 29.5822,3.3269 L 29.5684,3.3269 L 29.5545,3.3269 L 29.5406,3.3269 L 29.5267,3.3269 L 29.5128,3.3269 L 29.4989,3.3269 L 29.485,3.3269 L 29.4711,3.3269 L 29.4572,3.3269 L 29.4434,3.3269 L 29.4295,3.3269 L 29.4156,3.3269 L 29.4017,3.3269 L 29.3878,3.3269 L 29.3739,3.3269 L 29.36,3.3269 L 29.3461,3.3269 L 29.3322,3.3269 L 29.3184,3.3269 L 29.3045,3.3269 L 29.2906,3.3269 L 29.2767,3.3269 L 29.2628,3.3269 L 29.2489,3.3269 L 29.235,3.3269 L 29.2211,3.3269 L 29.2072,3.3269 L 29.1934,3.3269 L 29.1795,3.3269 L 29.1656,3.3269 L 29.1517,3.3269 L 29.1378,3.3269 L 29.1239,3.3269 L 29.11,3.3269 L 29.0961,3.3269 L 29.0822,3.3269 L 29.0684,3.3269 L 29.0545,3.3269 L 29.0406,3.3269 L 29.0267,3.3269 L 29.0128,3.3269 L 28.9989,3.3269 L 28.985,3.3269 L 28.9711,3.3269 L 28.9572,3.3269 L 28.9434,3.3269 L 28.9295,3.3269 L 28.9156,3.3269 L 28.9017,3.3269 L 28.8878,3.3269 L 28.8739,3.3269" />
      <path d="M 29.874,-9.6731 L 29.8601,-9.6731 L 29.8462,-9.6731 L 29.8323,-9.6731 L 29.8184,-9.6731 L 29.8045,-9.6731 L 29.7906,-9.6731 L 29.7767,-9.6731 L 29.7629,-9.6731 L 29.749,-9.6731 L 29.7351,-9.6731 L 29.7212,-9.6731 L 29.7073,-9.6731 L 29.6934,-9.6731 L 29.6795,-9.6731 L 29.6656,-9.6731 L 29.6517,-9.6731 L 29.6379,-9.6731 L 29.624,-9.6731 L 29.6101,-9.6731 L 29.5962,-9.6731 L 29.5823,-9.6731 L 29.5684,-9.6731 L 29.5545,-9.6731 L 29.5406,-9.6731 L 29.5267,-9.6731 L 29.5129,-9.6731 L 29.499,-9.6731 L 29.4851,-9.6731 L 29.4712,-9.6731 L 29.4573,-9.6731 L 29.4434,-9.6731 L 29.4295,-9.6731 L 29.4156,-9.6731 L 29.4017,-9.6731 L 29.3879,-9.6731 L 29.374,-9.6731 L 29.3601,-9.6731 L 29.3462,-9.6731 L 29.3323,-9.6731 L 29.3184,-9.6731 L 29.3045,-9.6731 L 29.2906,-9.6731 L 29.2767,-9.6731 L 29.2629,-9.6731 L 29.249,-9.6731 L 29.2351,-9.6731 L 29.2212,-9.6731 L 29.2073,-9.6731 L 29.1934,-9.6731 L 29.1795,-9.6731 L 29.1656,-9.6731 L 29.1517,-9.6731 L 29.1379,-9.6731 L 29.124,-9.6731 L 29.1101,-9.6731 L 29.0962,-9.6731 L 29.0823,-9.6731 L 29.0684,-9.6731 L 29.0545,-9.6731 L 29.0406,-9.6731 L 29.0267,-9.6731 L 29.0129,-9.6731 L 28.999,-9.6731 L 28.9851,-9.6731 L 28.9712,-9.6731 L 28.9573,-9.6731 L 28.9434,-9.6731 L 28.9295,-9.6731 L 28.9156,-9.6731 L 28.9017,-9.6731 L 28.8879,-9.6731 L 28.874,-9.6731" />
    </g>
    <g fill="none" stroke="rgb(0,0,0)" stroke-width="0.2" id="Center" stroke-dasharray="6.35 1.27 1.27 1.27">
      <line x1="-20.5793" y1="0.0" x2="14.265" y2="0.0" />
      <line x1="-3.1571" y1="-17.4" x2="-3.1571" y2="17.4" />
      <line x1="13.465" y1="-3.1636" x2="32.2962" y2="-3.1636" />
    </g>
  </g>
</svg>