<?xml version='1.0' encoding='utf-8'?>
<svg width="69.9005mm" height="28.4mm" viewBox="-14.2 -14.2 69.9005 28.4" version="1.1" xmlns="http://www.w3.org/2000/svg">
  <g transform="scale(1,-1)" stroke-linecap="round">
    <g fill="none" stroke="rgb(0,0,0)" stroke-width="0.4" id="Visible">
      <path d="M 0.0,9.0 L -0.7844,8.9658 L -1.5628,8.8633 L -2.3294,8.6933 L -3.0782,8.4572 L -3.8036,8.1568 L -4.5,7.7942 L -5.1622,7.3724 L -5.7851,6.8944 L -6.364,6.364 L -6.8944,5.7851 L -7.3724,5.1622 L -7.7942,4.5 L -8.1568,3.8036 L -8.4572,3.0782 L -8.6933,2.3294 L -8.8633,1.5628 L -8.9658,0.7844 L -9.0,-0.0 L -8.9658,-0.7844 L -8.8633,-1.5628 L -8.6933,-2.3294 L -8.4572,-3.0782 L -8.1568,-3.8036 L -7.7942,-4.5 L -7.3724,-5.1622 L -6.8944,-5.7851 L -6.364,-6.364 L -5.7851,-6.8944 L -5.1622,-7.3724 L -4.5,-7.7942 L -3.8036,-8.1568 L -3.0782,-8.4572 L -2.3294,-8.6933 L -1.5628,-8.8633 L -0.7844,-8.9658 L -0.0,-9.0 L 0.7844,-8.9658 L 1.5628,-8.8633 L 2.3294,-8.6933 L 3.0782,-8.4572 L 3.8036,-8.1568 L 4.5,-7.7942 L 5.1622,-7.3724 L 5.7851,-6.8944 L 6.364,-6.364 L 6.8944,-5.7851 L 7.3724,-5.1622 L 7.7942,-4.5 L 8.1568,-3.8036 L 8.4572,-3.0782 L 8.6933,-2.3294 L 8.8633,-1.5628 L 8.9658,-0.7844 L 9.0,0.0 L 8.9658,0.7844 L 8.8633,1.5628 L 8.6933,2.3294 L 8.4572,3.0782 L 8.1568,3.8036 L 7.7942,4.5 L 7.3724,5.1622 L 6.8944,5.7851 L 6.364,6.364 L 5.7851,6.8944 L 5.1622,7.3724 L 4.5,7.7942 L 3.8036,8.1568 L 3.0782,8.4572 L 2.3294,8.6933 L 1.5628,8.8633 L 0.7844,8.9658 L 0.0,9.0" />
      <path d="M -8.5684,1.25 L -8.4494,1.25 L -8.3304,1.25 L -8.2114,1.25 L -8.0924,1.25 L -7.9734,1.25 L -7.8544,1.25 L -7.7354,1.25 L -7.6164,1.25 L -7.4974,1.25 L -7.3783,1.25 L -7.2593,1.25 L -7.1403,1.25 L -7.0213,1.25 L -6.9023,1.25 L -6.7833,1.25 L -6.6643,1.25 L -6.5453,1.25 L -6.4263,1.25 L -6.3073,1.25 L -6.1883,1.25 L -6.0693,1.25 L -5.9503,1.25 L -5.8313,1.25 L -5.7123,1.25 L -5.5933,1.25 L -5.4743,1.25 L -5.3553,1.25 L -5.2362,1.25 L -5.1172,1.25 L -4.9982,1.25 L -4.8792,1.25 L -4.7602,1.25 L -4.6412,1.25 L -4.5222,1.25 L -4.4032,1.25 L -4.2842,1.25 L -4.1652,1.25 L -4.0462,1.25 L -3.9272,1.25 L -3.8082,1.25 L -3.6892,1.25 L -3.5702,1.25 L -3.4512,1.25 L -3.3322,1.25 L -3.2132,1.25 L -3.0941,1.25 L -2.9751,1.25 L -2.8561,1.25 L -2.7371,1.25 L -2.6181,1.25 L -2.4991,1.25 L -2.3801,1.25 L -2.2611,1.25 L -2.1421,1.25 L -2.0231,1.25 L -1.9041,1.25 L -1.7851,1.25 L -1.6661,1.25 L -1.5471,1.25 L -1.4281,1.25 L -1.3091,1.25 L -1.1901,1.25 L -1.0711,1.25 L -0.952,1.25 L -0.833,1.25 L -0.714,1.25 L -0.595,1.25 L -0.476,1.25 L -0.357,1.25 L -0.238,1.25 L -0.119,1.25 L 0.0,1.25" />
      <path d="M -8.5684,1.25 L -8.5734,1.2155 L -8.5782,1.181 L -8.5829,1.1465 L -8.5874,1.1119 L -8.5918,1.0774 L -8.5961,1.0428 L -8.6002,1.0082 L -8.6042,0.9736 L -8.608,0.9389 L -8.6118,0.9043 L -8.6153,0.8696 L -8.6187,0.835 L -8.622,0.8003 L -8.6252,0.7656 L -8.6282,0.7309 L -8.6311,0.6961 L -8.6338,0.6614 L -8.6364,0.6266 L -8.6388,0.5919 L -8.6412,0.5571 L -8.6433,0.5223 L -8.6454,0.4876 L -8.6473,0.4528 L -8.649,0.418 L -8.6506,0.3832 L -8.6521,0.3483 L -8.6534,0.3135 L -8.6546,0.2787 L -8.6557,0.2439 L -8.6566,0.209 L -8.6573,0.1742 L -8.658,0.1394 L -8.6585,0.1045 L -8.6588,0.0697 L -8.659,0.0348 L -8.6591,-0.0 L -8.659,-0.0348 L -8.6588,-0.0697 L -8.6585,-0.1045 L -8.658,-0.1394 L -8.6573,-0.1742 L -8.6566,-0.209 L -8.6557,-0.2439 L -8.6546,-0.2787 L -8.6534,-0.3135 L -8.6521,-0.3483 L -8.6506,-0.3832 L -8.649,-0.418 L -8.6473,-0.4528 L -8.6454,-0.4876 L -8.6433,-0.5223 L -8.6412,-0.5571 L -8.6388,-0.5919 L -8.6364,-0.6266 L -8.6338,-0.6614 L -8.6311,-0.6961 L -8.6282,-0.7309 L -8.6252,-0.7656 L -8.622,-0.8003 L -8.6187,-0.835 L -8.6153,-0.8696 L -8.6118,-0.9043 L -8.608,-0.9389 L -8.6042,-0.9736 L -8.6002,-1.0082 L -8.5961,-1.0428 L -8.5918,-1.0774 L -8.5874,-1.1119 L -8.5829,-1.1465 L -8.5782,-1.181 L -8.5734,-1.2155 L -8.5684,-1.25" />
      <path d="M -8.5684,-1.25 L -8.3304,-1.25 L -8.0924,-1.25 L -7.8544,-1.25 L -7.6164,-1.25 L -7.3783,-1.25 L -7.1403,-1.25 L -6.9023,-1.25 L -6.6643,-1.25 L -6.4263,-1.25 L -6.1883,-1.25 L -5.9503,-1.25 L -5.7123,-1.25 L -5.4743,-1.25 L -5.2362,-1.25 L -4.9982,-1.25 L -4.7602,-1.25 L -4.5222,-1.25 L -4.2842,-1.25 L -4.0462,-1.25 L -3.8082,-1.25 L -3.5702,-1.25 L -3.3322,-1.25 L -3.0941,-1.25 L -2.8561,-1.25 L -2.6181,-1.25 L -2.3801,-1.25 L -2.1421,-1.25 L -1.9041,-1.25 L -1.6661,-1.25 L -1.4281,-1.25 L -1.1901,-1.25 L -0.952,-1.25 L -0.714,-1.25 L -0.476,-1.25 L -0.238,-1.25 L 0.0,-1.25 L 0.238,-1.25 L 0.476,-1.25 L 0.714,-1.25 L 0.952,-1.25 L 1.1901,-1.25 L 1.4281,-1.25 L 1.6661,-1.25 L 1.9041,-1.25 L 2.1421,-1.25 L 2.3801,-1.25 L 2.6181,-1.25 L 2.8561,-1.25 L 3.0941,-1.25 L 3.3322,-1.25 L 3.5702,-1.25 L 3.8082,-1.25 L 4.0462,-1.25 L 4.2842,-1.25 L 4.5222,-1.25 L 4.7602,-1.25 L 4.9982,-1.25 L 5.2362,-1.25 L 5.4743,-1.25 L 5.7123,-1.25 L 5.9503,-1.25 L 6.1883,-1.25 L 6.4263,-1.25 L 6.6643,-1.25 L 6.9023,-1.25 L 7.1403,-1.25 L 7.3783,-1.25 L 7.6164,-1.25 L 7.8544,-1.25 L 8.0924,-1.25 L 8.3304,-1.25 L 8.5684,-1.25" />
      <path d="M 8.5684,-1.25 L 8.5734,-1.2155 L 8.5782,-1.181 L 8.5829,-1.1465 L 8.5874,-1.1119 L 8.5918,-1.0774 L 8.5961,-1.0428 L 8.6002,-1.0082 L 8.6042,-0.9736 L 8.608,-0.9389 L 8.6118,-0.9043 L 8.6153,-0.8696 L 8.6187,-0.835 L 8.622,-0.8003 L 8.6252,-0.7656 L 8.6282,-0.7309 L 8.6311,-0.6961 L 8.6338,-0.6614 L 8.6364,-0.6266 L 8.6388,-0.5919 L 8.6412,-0.5571 L 8.6433,-0.5223 L 8.6454,-0.4876 L 8.6473,-0.4528 L 8.649,-0.418 L 8.6506,-0.3832 L 8.6521,-0.3483 L 8.6534,-0.3135 L 8.6546,-0.2787 L 8.6557,-0.2439 L 8.6566,-0.209 L 8.6573,-0.1742 L 8.658,-0.1394 L 8.6585,-0.1045 L 8.6588,-0.0697 L 8.659,-0.0348 L 8.6591,0.0 L 8.659,0.0348 L 8.6588,0.0697 L 8.6585,0.1045 L 8.658,0.1394 L 8.6573,0.1742 L 8.6566,0.209 L 8.6557,0.2439 L 8.6546,0.2787 L 8.6534,0.3135 L 8.6521,0.3483 L 8.6506,0.3832 L 8.649,0.418 L 8.6473,0.4528 L 8.6454,0.4876 L 8.6433,0.5223 L 8.6412,0.5571 L 8.6388,0.5919 L 8.6364,0.6266 L 8.6338,0.6614 L 8.6311,0.6961 L 8.6282,0.7309 L 8.6252,0.7656 L 8.622,0.8003 L 8.6187,0.835 L 8.6153,0.8696 L 8.6118,0.9043 L 8.608,0.9389 L 8.6042,0.9736 L 8.6002,1.0082 L 8.5961,1.0428 L 8.5918,1.0774 L 8.5874,1.1119 L 8.5829,1.1465 L 8.5782,1.181 L 8.5734,1.2155 L 8.5684,1.25" />
      <path d="M 0.0,1.25 L 0.119,1.25 L 0.238,1.25 L 0.357,1.25 L 0.476,1.25 L 0.595,1.25 L 0.714,1.25 L 0.833,1.25 L 0.952,1.25 L 1.0711,1.25 L 1.1901,1.25 L 1.3091,1.25 L 1.4281,1.25 L 1.5471,1.25 L 1.6661,1.25 L 1.7851,1.25 L 1.9041,1.25 L 2.0231,1.25 L 2.1421,1.25 L 2.2611,1.25 L 2.3801,1.25 L 2.4991,1.25 L 2.6181,1.25 L 2.7371,1.25 L 2.8561,1.25 L 2.9751,1.25 L 3.0941,1.25 L 3.2132,1.25 L 3.3322,1.25 L 3.4512,1.25 L 3.5702,1.25 L 3.6892,1.25 L 3.8082,1.25 L 3.9272,1.25 L 4.0462,1.25 L 4.1652,1.25 L 4.2842,1.25 L 4.4032,1.25 L 4.5222,1.25 L 4.6412,1.25 L 4.7602,1.25 L 4.8792,1.25 L 4.9982,1.25 L 5.1172,1.25 L 5.2362,1.25 L 5.3553,1.25 L 5.4743,1.25 L 5.5933,1.25 L 5.7123,1.25 L 5.8313,1.25 L 5.9503,1.25 L 6.0693,1.25 L 6.1883,1.25 L 6.3073,1.25 L 6.4263,1.25 L 6.5453,1.25 L 6.6643,1.25 L 6.7833,1.25 L 6.9023,1.25 L 7.0213,1.25 L 7.1403,1.25 L 7.2593,1.25 L 7.3783,1.25 L 7.4974,1.25 L 7.6164,1.25 L 7.7354,1.25 L 7.8544,1.25 L 7.9734,1.25 L 8.0924,1.25 L 8.2114,1.25 L 8.3304,1.25 L 8.4494,1.25 L 8.5684,1.25" />
      <path d="M 20.4558,5.0 L 20.8724,5.0 L 21.2891,5.0 L 21.7057,5.0 L 22.1224,5.0 L 22.539,5.0 L 22.9556,5.0 L 23.3723,5.0 L 23.7889,5.0 L 24.2056,5.0 L 24.6222,5.0 L 25.0389,5.0 L 25.4555,5.0 L 25.8722,5.0 L 26.2888,5.0 L 26.7055,5.0 L 27.1221,5.0 L 27.5388,5.0 L 27.9554,5.0 L 28.3721,5.0 L 28.7887,5.0 L 29.2053,5.0 L 29.622,5.0 L 30.0386,5.0 L 30.4553,5.0 L 30.8719,5.0 L 31.2886,5.0 L 31.7052,5.0 L 32.1219,5.0 L 32.5385,5.0 L 32.9552,5.0 L 33.3718,5.0 L 33.7885,5.0 L 34.2051,5.0 L 34.6217,5.0 L 35.0384,5.0 L 35.455,5.0 L 35.8717,5.0 L 36.2883,5.0 L 36.705,5.0 L 37.1216,5.0 L 37.5383,5.0 L 37.9549,5.0 L 38.3716,5.0 L 38.7882,5.0 L 39.2049,5.0 L 39.6215,5.0 L 40.0382,5.0 L 40.4548,5.0 L 40.8714,5.0 L 41.2881,5.0 L 41.7047,5.0 L 42.1214,5.0 L 42.538,5.0 L 42.9547,5.0 L 43.3713,5.0 L 43.788,5.0 L 44.2046,5.0 L 44.6213,5.0 L 45.0379,5.0 L 45.4546,5.0 L 45.8712,5.0 L 46.2878,5.0 L 46.7045,5.0 L 47.1211,5.0 L 47.5378,5.0 L 47.9544,5.0 L 48.3711,5.0 L 48.7877,5.0 L 49.2044,5.0 L 49.621,5.0 L 50.0377,5.0 L 50.4543,5.0" />
      <path d="M 50.4543,-5.0 L 50.4651,-4.862 L 50.4695,-4.7232 L 50.4728,-4.5843 L 50.4755,-4.4454 L 50.4778,-4.3065 L 50.4799,-4.1676 L 50.4817,-4.0287 L 50.4834,-3.8898 L 50.4849,-3.7509 L 50.4863,-3.612 L 50.4876,-3.4731 L 50.4888,-3.3341 L 50.4899,-3.1952 L 50.4909,-3.0563 L 50.4919,-2.9174 L 50.4928,-2.7785 L 50.4936,-2.6396 L 50.4944,-2.5006 L 50.4951,-2.3617 L 50.4957,-2.2228 L 50.4963,-2.0839 L 50.4969,-1.945 L 50.4974,-1.8061 L 50.4979,-1.6671 L 50.4983,-1.5282 L 50.4987,-1.3893 L 50.4991,-1.2504 L 50.4994,-1.1115 L 50.4997,-0.9726 L 50.4999,-0.8336 L 50.5001,-0.6947 L 50.5003,-0.5558 L 50.5004,-0.4169 L 50.5005,-0.278 L 50.5005,-0.139 L 50.5005,-0.0001 L 50.5005,0.1388 L 50.5005,0.2777 L 50.5004,0.4166 L 50.5003,0.5555 L 50.5001,0.6945 L 50.4999,0.8334 L 50.4997,0.9723 L 50.4994,1.1112 L 50.4991,1.2501 L 50.4987,1.389 L 50.4983,1.528 L 50.4979,1.6669 L 50.4974,1.8058 L 50.4969,1.9447 L 50.4963,2.0836 L 50.4957,2.2225 L 50.4951,2.3615 L 50.4944,2.5004 L 50.4936,2.6393 L 50.4928,2.7782 L 50.4919,2.9171 L 50.4909,3.056 L 50.4899,3.195 L 50.4888,3.3339 L 50.4876,3.4728 L 50.4863,3.6117 L 50.4849,3.7506 L 50.4834,3.8895 L 50.4817,4.0284 L 50.4799,4.1673 L 50.4778,4.3062 L 50.4755,4.4451 L 50.4728,4.584 L 50.4695,4.7229 L 50.4651,4.8618 L 50.4543,5.0" />
      <path d="M 20.4556,-5.0 L 20.4557,-5.0 L 20.4558,-5.0 L 20.4558,-4.9999 L 20.4559,-4.9999" />
      <path d="M 20.4559,-4.9999 L 20.4664,-4.8617 L 20.4708,-4.7228 L 20.4741,-4.5839 L 20.4768,-4.4451 L 20.4791,-4.3062 L 20.4811,-4.1673 L 20.483,-4.0284 L 20.4847,-3.8895 L 20.4862,-3.7506 L 20.4876,-3.6117 L 20.4889,-3.4728 L 20.4901,-3.3339 L 20.4912,-3.195 L 20.4922,-3.0561 L 20.4931,-2.9172 L 20.494,-2.7782 L 20.4949,-2.6393 L 20.4956,-2.5004 L 20.4964,-2.3615 L 20.497,-2.2226 L 20.4976,-2.0837 L 20.4982,-1.9448 L 20.4987,-1.8059 L 20.4992,-1.667 L 20.4996,-1.5281 L 20.5,-1.3892 L 20.5004,-1.2503 L 20.5007,-1.1113 L 20.5009,-0.9724 L 20.5012,-0.8335 L 20.5014,-0.6946 L 20.5015,-0.5557 L 20.5017,-0.4168 L 20.5018,-0.2779 L 20.5018,-0.139 L 20.5018,-0.0001 L 20.5018,0.1388 L 20.5018,0.2778 L 20.5017,0.4167 L 20.5015,0.5556 L 20.5014,0.6945 L 20.5012,0.8334 L 20.5009,0.9723 L 20.5007,1.1112 L 20.5004,1.2501 L 20.5,1.389 L 20.4996,1.5279 L 20.4992,1.6668 L 20.4987,1.8058 L 20.4982,1.9447 L 20.4976,2.0836 L 20.497,2.2225 L 20.4964,2.3614 L 20.4956,2.5003 L 20.4949,2.6392 L 20.494,2.7781 L 20.4931,2.917 L 20.4922,3.0559 L 20.4912,3.1948 L 20.4901,3.3337 L 20.4889,3.4726 L 20.4876,3.6115 L 20.4862,3.7505 L 20.4847,3.8894 L 20.483,4.0283 L 20.4811,4.1672 L 20.4791,4.306 L 20.4768,4.4449 L 20.4741,4.5838 L 20.4708,4.7227 L 20.4664,4.8615 L 20.4559,4.9999" />
      <path d="M 15.4558,9.0 L 15.4557,9.0 L 15.4556,9.0 L 15.4555,8.9999 L 15.4554,8.9999 L 15.4553,8.9999 L 15.4553,8.9998 L 15.4552,8.9998 L 15.4552,8.9997 L 15.4551,8.9997 L 15.4551,8.9996 L 15.455,8.9996 L 15.455,8.9995 L 15.4549,8.9995 L 15.4549,8.9994 L 15.4548,8.9994 L 15.4548,8.9993 L 15.4547,8.9993 L 15.4547,8.9992 L 15.4547,8.9991 L 15.4546,8.9991 L 15.4546,8.999 L 15.4545,8.999 L 15.4545,8.9989" />
      <path d="M 15.4545,-8.9989 L 15.4545,-8.999 L 15.4546,-8.999 L 15.4546,-8.9991 L 15.4547,-8.9991 L 15.4547,-8.9992 L 15.4548,-8.9993 L 15.4548,-8.9994 L 15.4549,-8.9994 L 15.4549,-8.9995 L 15.455,-8.9995 L 15.455,-8.9996 L 15.4551,-8.9996 L 15.4551,-8.9997 L 15.4552,-8.9997 L 15.4552,-8.9998 L 15.4553,-8.9998 L 15.4553,-8.9999 L 15.4554,-8.9999 L 15.4555,-8.9999 L 15.4556,-9.0 L 15.4557,-9.0 L 15.4558,-9.0 L 15.4559,-9.0 L 15.456,-9.0 L 15.4561,-9.0 L 15.4561,-8.9999 L 15.4562,-8.9999 L 15.4563,-8.9999 L 15.4563,-8.9998 L 15.4564,-8.9998" />
      <path d="M 15.4564,-8.9998 L 15.4753,-8.751 L 15.4831,-8.5011 L 15.489,-8.2511 L 15.4939,-8.0011 L 15.4981,-7.7511 L 15.5018,-7.5011 L 15.5051,-7.2511 L 15.5081,-7.0011 L 15.5108,-6.7511 L 15.5134,-6.501 L 15.5157,-6.251 L 15.5178,-6.001 L 15.5198,-5.7509 L 15.5217,-5.5009 L 15.5234,-5.2509 L 15.525,-5.0008 L 15.5265,-4.7508 L 15.5279,-4.5008 L 15.5292,-4.2507 L 15.5304,-4.0007 L 15.5315,-3.7507 L 15.5325,-3.5006 L 15.5334,-3.2506 L 15.5343,-3.0006 L 15.5351,-2.7505 L 15.5358,-2.5005 L 15.5364,-2.2505 L 15.537,-2.0004 L 15.5374,-1.7504 L 15.5379,-1.5003 L 15.5382,-1.2503 L 15.5385,-1.0003 L 15.5387,-0.7502 L 15.5389,-0.5002 L 15.539,-0.2502 L 15.539,-0.0001 L 15.539,0.2499 L 15.5389,0.5 L 15.5387,0.75 L 15.5385,1.0 L 15.5382,1.2501 L 15.5379,1.5001 L 15.5374,1.7501 L 15.537,2.0002 L 15.5364,2.2502 L 15.5358,2.5003 L 15.5351,2.7503 L 15.5343,3.0003 L 15.5334,3.2504 L 15.5325,3.5004 L 15.5315,3.7504 L 15.5304,4.0005 L 15.5292,4.2505 L 15.5279,4.5005 L 15.5265,4.7506 L 15.525,5.0006 L 15.5234,5.2506 L 15.5217,5.5007 L 15.5198,5.7507 L 15.5178,6.0007 L 15.5157,6.2508 L 15.5134,6.5008 L 15.5108,6.7508 L 15.5081,7.0008 L 15.5051,7.2509 L 15.5018,7.5009 L 15.4981,7.7509 L 15.4939,8.0009 L 15.4891,8.2509 L 15.4831,8.5009 L 15.4753,8.7508 L 15.4564,8.9998" />
      <path d="M 15.4564,8.9998 L 15.4563,8.9998 L 15.4563,8.9999 L 15.4562,8.9999 L 15.4561,8.9999 L 15.4561,9.0 L 15.456,9.0 L 15.4559,9.0 L 15.4558,9.0" />
      <path d="M 15.1766,1.25 L 15.1464,1.25 L 15.1161,1.25 L 15.0859,1.25 L 15.0557,1.25 L 15.0254,1.25 L 14.9952,1.25 L 14.965,1.25 L 14.9347,1.25 L 14.9045,1.25 L 14.8743,1.25 L 14.8441,1.25 L 14.8138,1.25 L 14.7836,1.25 L 14.7534,1.25 L 14.7231,1.25 L 14.6929,1.25 L 14.6627,1.25 L 14.6324,1.25 L 14.6022,1.25 L 14.572,1.25 L 14.5417,1.25 L 14.5115,1.25 L 14.4813,1.25 L 14.4511,1.25 L 14.4208,1.25 L 14.3906,1.25 L 14.3604,1.25 L 14.3301,1.25 L 14.2999,1.25 L 14.2697,1.25 L 14.2394,1.25 L 14.2092,1.25 L 14.179,1.25 L 14.1488,1.25 L 14.1185,1.25 L 14.0883,1.25 L 14.0581,1.25 L 14.0278,1.25 L 13.9976,1.25 L 13.9674,1.25 L 13.9371,1.25 L 13.9069,1.25 L 13.8767,1.25 L 13.8465,1.25 L 13.8162,1.25 L 13.786,1.25 L 13.7558,1.25 L 13.7255,1.25 L 13.6953,1.25 L 13.6651,1.25 L 13.6348,1.25 L 13.6046,1.25 L 13.5744,1.25 L 13.5441,1.25 L 13.5139,1.25 L 13.4837,1.25 L 13.4535,1.25 L 13.4232,1.25 L 13.393,1.25 L 13.3628,1.25 L 13.3325,1.25 L 13.3023,1.25 L 13.2721,1.25 L 13.2418,1.25 L 13.2116,1.25 L 13.1814,1.25 L 13.1512,1.25 L 13.1209,1.25 L 13.0907,1.25 L 13.0605,1.25 L 13.0302,1.25 L 13.0,1.25" />
      <path d="M 13.0,1.25 L 13.0001,1.25 L 13.0002,1.25 L 13.0003,1.25 L 13.0004,1.25 L 13.0005,1.25 L 13.0006,1.25 L 13.0007,1.25" />
      <path d="M 15.1766,1.25 L 15.1765,1.2153 L 15.1765,1.1806 L 15.1765,1.1458 L 15.1764,1.1111 L 15.1764,1.0764 L 15.1763,1.0417 L 15.1763,1.0069 L 15.1763,0.9722 L 15.1762,0.9375 L 15.1762,0.9028 L 15.1762,0.8681 L 15.1761,0.8333 L 15.1761,0.7986 L 15.1761,0.7639 L 15.176,0.7292 L 15.176,0.6944 L 15.176,0.6597 L 15.176,0.625 L 15.1759,0.5903 L 15.1759,0.5556 L 15.1759,0.5208 L 15.1759,0.4861 L 15.1759,0.4514 L 15.1758,0.4167 L 15.1758,0.3819 L 15.1758,0.3472 L 15.1758,0.3125 L 15.1758,0.2778 L 15.1758,0.2431 L 15.1758,0.2083 L 15.1758,0.1736 L 15.1758,0.1389 L 15.1758,0.1042 L 15.1758,0.0694 L 15.1757,0.0347 L 15.1757,0.0 L 15.1757,-0.0347 L 15.1758,-0.0694 L 15.1758,-0.1042 L 15.1758,-0.1389 L 15.1758,-0.1736 L 15.1758,-0.2083 L 15.1758,-0.2431 L 15.1758,-0.2778 L 15.1758,-0.3125 L 15.1758,-0.3472 L 15.1758,-0.3819 L 15.1758,-0.4167 L 15.1759,-0.4514 L 15.1759,-0.4861 L 15.1759,-0.5208 L 15.1759,-0.5556 L 15.1759,-0.5903 L 15.176,-0.625 L 15.176,-0.6597 L 15.176,-0.6944 L 15.176,-0.7292 L 15.1761,-0.7639 L 15.1761,-0.7986 L 15.1761,-0.8333 L 15.1762,-0.8681 L 15.1762,-0.9028 L 15.1762,-0.9375 L 15.1763,-0.9722 L 15.1763,-1.0069 L 15.1763,-1.0417 L 15.1764,-1.0764 L 15.1764,-1.1111 L 15.1765,-1.1458 L 15.1765,-1.1806 L 15.1765,-1.2153 L 15.1766,-1.25" />
      <path d="M 13.0,-1.25 L 13.0324,-1.25 L 13.0649,-1.25 L 13.0973,-1.25 L 13.1297,-1.25 L 13.1622,-1.25 L 13.1946,-1.25 L 13.227,-1.25 L 13.2595,-1.25 L 13.2919,-1.25 L 13.3243,-1.25 L 13.3567,-1.25 L 13.3892,-1.25 L 13.4216,-1.25 L 13.454,-1.25 L 13.4865,-1.25 L 13.5189,-1.25 L 13.5513,-1.25 L 13.5838,-1.25 L 13.6162,-1.25 L 13.6486,-1.25 L 13.6811,-1.25 L 13.7135,-1.25 L 13.7459,-1.25 L 13.7784,-1.25 L 13.8108,-1.25 L 13.8432,-1.25 L 13.8756,-1.25 L 13.9081,-1.25 L 13.9405,-1.25 L 13.9729,-1.25 L 14.0054,-1.25 L 14.0378,-1.25 L 14.0702,-1.25 L 14.1027,-1.25 L 14.1351,-1.25 L 14.1675,-1.25 L 14.2,-1.25 L 14.2324,-1.25 L 14.2648,-1.25 L 14.2973,-1.25 L 14.3297,-1.25 L 14.3621,-1.25 L 14.3945,-1.25 L 14.427,-1.25 L 14.4594,-1.25 L 14.4918,-1.25 L 14.5243,-1.25 L 14.5567,-1.25 L 14.5891,-1.25 L 14.6216,-1.25 L 14.654,-1.25 L 14.6864,-1.25 L 14.7189,-1.25 L 14.7513,-1.25 L 14.7837,-1.25 L 14.8162,-1.25 L 14.8486,-1.25 L 14.881,-1.25 L 14.9134,-1.25 L 14.9459,-1.25 L 14.9783,-1.25 L 15.0107,-1.25 L 15.0432,-1.25 L 15.0756,-1.25 L 15.108,-1.25 L 15.1405,-1.25 L 15.1729,-1.25 L 15.2053,-1.25 L 15.2378,-1.25 L 15.2702,-1.25 L 15.3026,-1.25 L 15.3351,-1.25" />
      <path d="M 15.3351,-1.25 L 15.3351,-1.2153 L 15.3351,-1.1806 L 15.3352,-1.1458 L 15.3352,-1.1111 L 15.3353,-1.0764 L 15.3353,-1.0417 L 15.3353,-1.0069 L 15.3354,-0.9722 L 15.3354,-0.9375 L 15.3355,-0.9028 L 15.3355,-0.8681 L 15.3355,-0.8333 L 15.3355,-0.7986 L 15.3356,-0.7639 L 15.3356,-0.7292 L 15.3356,-0.6944 L 15.3357,-0.6597 L 15.3357,-0.625 L 15.3357,-0.5903 L 15.3357,-0.5556 L 15.3357,-0.5208 L 15.3358,-0.4861 L 15.3358,-0.4514 L 15.3358,-0.4167 L 15.3358,-0.3819 L 15.3358,-0.3472 L 15.3358,-0.3125 L 15.3358,-0.2778 L 15.3359,-0.2431 L 15.3359,-0.2083 L 15.3359,-0.1736 L 15.3359,-0.1389 L 15.3359,-0.1042 L 15.3359,-0.0694 L 15.3359,-0.0347 L 15.3359,0.0 L 15.3359,0.0347 L 15.3359,0.0694 L 15.3359,0.1042 L 15.3359,0.1389 L 15.3359,0.1736 L 15.3359,0.2083 L 15.3359,0.2431 L 15.3358,0.2778 L 15.3358,0.3125 L 15.3358,0.3472 L 15.3358,0.3819 L 15.3358,0.4167 L 15.3358,0.4514 L 15.3358,0.4861 L 15.3357,0.5208 L 15.3357,0.5556 L 15.3357,0.5903 L 15.3357,0.625 L 15.3357,0.6597 L 15.3356,0.6944 L 15.3356,0.7292 L 15.3356,0.7639 L 15.3355,0.7986 L 15.3355,0.8333 L 15.3355,0.8681 L 15.3355,0.9028 L 15.3354,0.9375 L 15.3354,0.9722 L 15.3353,1.0069 L 15.3353,1.0417 L 15.3353,1.0764 L 15.3352,1.1111 L 15.3352,1.1458 L 15.3351,1.1806 L 15.3351,1.2153 L 15.3351,1.25" />
      <path d="M 13.0007,1.25 L 13.0332,1.25 L 13.0656,1.25 L 13.098,1.25 L 13.1304,1.25 L 13.1628,1.25 L 13.1953,1.25 L 13.2277,1.25 L 13.2601,1.25 L 13.2925,1.25 L 13.325,1.25 L 13.3574,1.25 L 13.3898,1.25 L 13.4222,1.25 L 13.4546,1.25 L 13.4871,1.25 L 13.5195,1.25 L 13.5519,1.25 L 13.5843,1.25 L 13.6167,1.25 L 13.6492,1.25 L 13.6816,1.25 L 13.714,1.25 L 13.7464,1.25 L 13.7788,1.25 L 13.8113,1.25 L 13.8437,1.25 L 13.8761,1.25 L 13.9085,1.25 L 13.941,1.25 L 13.9734,1.25 L 14.0058,1.25 L 14.0382,1.25 L 14.0706,1.25 L 14.1031,1.25 L 14.1355,1.25 L 14.1679,1.25 L 14.2003,1.25 L 14.2327,1.25 L 14.2652,1.25 L 14.2976,1.25 L 14.33,1.25 L 14.3624,1.25 L 14.3948,1.25 L 14.4273,1.25 L 14.4597,1.25 L 14.4921,1.25 L 14.5245,1.25 L 14.5569,1.25 L 14.5894,1.25 L 14.6218,1.25 L 14.6542,1.25 L 14.6866,1.25 L 14.7191,1.25 L 14.7515,1.25 L 14.7839,1.25 L 14.8163,1.25 L 14.8487,1.25 L 14.8812,1.25 L 14.9136,1.25 L 14.946,1.25 L 14.9784,1.25 L 15.0108,1.25 L 15.0433,1.25 L 15.0757,1.25 L 15.1081,1.25 L 15.1405,1.25 L 15.1729,1.25 L 15.2054,1.25 L 15.2378,1.25 L 15.2702,1.25 L 15.3026,1.25 L 15.3351,1.25" />
      <path d="M 20.4558,-5.0 L 20.8724,-5.0 L 21.2891,-5.0 L 21.7057,-5.0 L 22.1224,-5.0 L 22.539,-5.0 L 22.9556,-5.0 L 23.3723,-5.0 L 23.7889,-5.0 L 24.2056,-5.0 L 24.6222,-5.0 L 25.0389,-5.0 L 25.4555,-5.0 L 25.8722,-5.0 L 26.2888,-5.0 L 26.7055,-5.0 L 27.1221,-5.0 L 27.5388,-5.0 L 27.9554,-5.0 L 28.3721,-5.0 L 28.7887,-5.0 L 29.2053,-5.0 L 29.622,-5.0 L 30.0386,-5.0 L 30.4553,-5.0 L 30.8719,-5.0 L 31.2886,-5.0 L 31.7052,-5.0 L 32.1219,-5.0 L 32.5385,-5.0 L 32.9552,-5.0 L 33.3718,-5.0 L 33.7885,-5.0 L 34.2051,-5.0 L 34.6217,-5.0 L 35.0384,-5.0 L 35.455,-5.0 L 35.8717,-5.0 L 36.2883,-5.0 L 36.705,-5.0 L 37.1216,-5.0 L 37.5383,-5.0 L 37.9549,-5.0 L 38.3716,-5.0 L 38.7882,-5.0 L 39.2049,-5.0 L 39.6215,-5.0 L 40.0382,-5.0 L 40.4548,-5.0 L 40.8714,-5.0 L 41.2881,-5.0 L 41.7047,-5.0 L 42.1214,-5.0 L 42.538,-5.0 L 42.9547,-5.0 L 43.3713,-5.0 L 43.788,-5.0 L 44.2046,-5.0 L 44.6213,-5.0 L 45.0379,-5.0 L 45.4546,-5.0 L 45.8712,-5.0 L 46.2878,-5.0 L 46.7045,-5.0 L 47.1211,-5.0 L 47.5378,-5.0 L 47.9544,-5.0 L 48.3711,-5.0 L 48.7877,-5.0 L 49.2044,-5.0 L 49.621,-5.0 L 50.0377,-5.0 L 50.4543,-5.0" />
      <path d="M 20.4559,4.9999 L 20.3865,5.0554 L 20.3171,5.111 L 20.2476,5.1665 L 20.1782,5.2221 L 20.1088,5.2776 L 20.0393,5.3332 L 19.9699,5.3887 L 19.9004,5.4443 L 19.831,5.4998 L 19.7616,5.5554 L 19.6921,5.611 L 19.6227,5.6665 L 19.5532,5.7221 L 19.4838,5.7776 L 19.4144,5.8332 L 19.3449,5.8887 L 19.2755,5.9443 L 19.2061,5.9998 L 19.1366,6.0554 L 19.0672,6.1109 L 18.9977,6.1665 L 18.9283,6.2221 L 18.8589,6.2776 L 18.7894,6.3332 L 18.72,6.3887 L 18.6506,6.4443 L 18.5811,6.4998 L 18.5117,6.5554 L 18.4422,6.6109 L 18.3728,6.6665 L 18.3034,6.722 L 18.2339,6.7776 L 18.1645,6.8331 L 18.0951,6.8887 L 18.0256,6.9443 L 17.9562,6.9998 L 17.8867,7.0554 L 17.8173,7.1109 L 17.7479,7.1665 L 17.6784,7.222 L 17.609,7.2776 L 17.5396,7.3331 L 17.4701,7.3887 L 17.4007,7.4442 L 17.3312,7.4998 L 17.2618,7.5553 L 17.1924,7.6109 L 17.1229,7.6665 L 17.0535,7.722 L 16.9841,7.7776 L 16.9146,7.8331 L 16.8452,7.8887 L 16.7757,7.9442 L 16.7063,7.9998 L 16.6369,8.0553 L 16.5674,8.1109 L 16.498,8.1664 L 16.4286,8.222 L 16.3591,8.2776 L 16.2897,8.3331 L 16.2202,8.3887 L 16.1508,8.4442 L 16.0814,8.4998 L 16.0119,8.5553 L 15.9425,8.6109 L 15.8731,8.6664 L 15.8036,8.722 L 15.7342,8.7775 L 15.6647,8.8331 L 15.5953,8.8886 L 15.5259,8.9442 L 15.4564,8.9998" />
      <path d="M 20.4559,-4.9999 L 20.3865,-5.0554 L 20.3171,-5.111 L 20.2476,-5.1665 L 20.1782,-5.2221 L 20.1088,-5.2776 L 20.0393,-5.3332 L 19.9699,-5.3887 L 19.9004,-5.4443 L 19.831,-5.4998 L 19.7616,-5.5554 L 19.6921,-5.611 L 19.6227,-5.6665 L 19.5532,-5.7221 L 19.4838,-5.7776 L 19.4144,-5.8332 L 19.3449,-5.8887 L 19.2755,-5.9443 L 19.2061,-5.9998 L 19.1366,-6.0554 L 19.0672,-6.1109 L 18.9977,-6.1665 L 18.9283,-6.2221 L 18.8589,-6.2776 L 18.7894,-6.3332 L 18.72,-6.3887 L 18.6506,-6.4443 L 18.5811,-6.4998 L 18.5117,-6.5554 L 18.4422,-6.6109 L 18.3728,-6.6665 L 18.3034,-6.722 L 18.2339,-6.7776 L 18.1645,-6.8331 L 18.0951,-6.8887 L 18.0256,-6.9443 L 17.9562,-6.9998 L 17.8867,-7.0554 L 17.8173,-7.1109 L 17.7479,-7.1665 L 17.6784,-7.222 L 17.609,-7.2776 L 17.5396,-7.3331 L 17.4701,-7.3887 L 17.4007,-7.4442 L 17.3312,-7.4998 L 17.2618,-7.5553 L 17.1924,-7.6109 L 17.1229,-7.6665 L 17.0535,-7.722 L 16.9841,-7.7776 L 16.9146,-7.8331 L 16.8452,-7.8887 L 16.7757,-7.9442 L 16.7063,-7.9998 L 16.6369,-8.0553 L 16.5674,-8.1109 L 16.498,-8.1664 L 16.4286,-8.222 L 16.3591,-8.2776 L 16.2897,-8.3331 L 16.2202,-8.3887 L 16.1508,-8.4442 L 16.0814,-8.4998 L 16.0119,-8.5553 L 15.9425,-8.6109 L 15.8731,-8.6664 L 15.8036,-8.722 L 15.7342,-8.7775 L 15.6647,-8.8331 L 15.5953,-8.8886 L 15.5259,-8.9442 L 15.4564,-8.9998" />
      <path d="M 13.0,-1.25 L 13.0085,-1.3636 L 13.0178,-1.4772 L 13.0278,-1.5907 L 13.0386,-1.7041 L 13.0501,-1.8175 L 13.0623,-1.9308 L 13.0753,-2.044 L 13.089,-2.1571 L 13.1035,-2.2701 L 13.1187,-2.383 L 13.1346,-2.4958 L 13.1512,-2.6085 L 13.1686,-2.7212 L 13.1868,-2.8336 L 13.2056,-2.946 L 13.2253,-3.0582 L 13.2456,-3.1704 L 13.2667,-3.2823 L 13.2885,-3.3942 L 13.311,-3.5059 L 13.3342,-3.6174 L 13.3582,-3.7288 L 13.3829,-3.84 L 13.4084,-3.9511 L 13.4345,-4.062 L 13.4614,-4.1727 L 13.489,-4.2833 L 13.5173,-4.3936 L 13.5464,-4.5038 L 13.5762,-4.6138 L 13.6066,-4.7236 L 13.6378,-4.8331 L 13.6698,-4.9425 L 13.7024,-5.0517 L 13.7357,-5.1606 L 13.7698,-5.2694 L 13.8045,-5.3779 L 13.84,-5.4862 L 13.8762,-5.5942 L 13.9131,-5.702 L 13.9507,-5.8096 L 13.9889,-5.9169 L 14.0279,-6.024 L 14.0676,-6.1308 L 14.108,-6.2373 L 14.1491,-6.3436 L 14.1908,-6.4496 L 14.2333,-6.5553 L 14.2764,-6.6608 L 14.3203,-6.766 L 14.3648,-6.8708 L 14.41,-6.9754 L 14.4559,-7.0797 L 14.5024,-7.1837 L 14.5497,-7.2874 L 14.5976,-7.3908 L 14.6462,-7.4938 L 14.6955,-7.5966 L 14.7454,-7.699 L 14.796,-7.8011 L 14.8473,-7.9028 L 14.8992,-8.0042 L 14.9518,-8.1053 L 15.0051,-8.2061 L 15.059,-8.3064 L 15.1135,-8.4065 L 15.1688,-8.5061 L 15.2246,-8.6054 L 15.2811,-8.7044 L 15.3383,-8.8029 L 15.3961,-8.9011 L 15.4545,-8.9989" />
      <path d="M 15.4545,8.9989 L 15.3961,8.9011 L 15.3383,8.8029 L 15.2811,8.7044 L 15.2246,8.6054 L 15.1688,8.5061 L 15.1135,8.4065 L 15.059,8.3064 L 15.0051,8.2061 L 14.9518,8.1053 L 14.8992,8.0042 L 14.8473,7.9028 L 14.796,7.8011 L 14.7454,7.699 L 14.6955,7.5966 L 14.6462,7.4938 L 14.5976,7.3908 L 14.5497,7.2874 L 14.5024,7.1837 L 14.4559,7.0797 L 14.41,6.9754 L 14.3648,6.8708 L 14.3203,6.766 L 14.2764,6.6608 L 14.2333,6.5553 L 14.1908,6.4496 L 14.1491,6.3436 L 14.108,6.2373 L 14.0676,6.1308 L 14.0279,6.024 L 13.9889,5.9169 L 13.9507,5.8096 L 13.9131,5.702 L 13.8762,5.5942 L 13.84,5.4862 L 13.8045,5.3779 L 13.7698,5.2694 L 13.7357,5.1606 L 13.7024,5.0517 L 13.6698,4.9425 L 13.6378,4.8331 L 13.6066,4.7236 L 13.5762,4.6138 L 13.5464,4.5038 L 13.5173,4.3936 L 13.489,4.2833 L 13.4614,4.1727 L 13.4345,4.062 L 13.4084,3.9511 L 13.3829,3.84 L 13.3582,3.7288 L 13.3342,3.6174 L 13.311,3.5059 L 13.2885,3.3942 L 13.2667,3.2823 L 13.2456,3.1704 L 13.2253,3.0582 L 13.2056,2.946 L 13.1868,2.8336 L 13.1686,2.7212 L 13.1512,2.6085 L 13.1346,2.4958 L 13.1187,2.383 L 13.1035,2.2701 L 13.089,2.1571 L 13.0753,2.044 L 13.0623,1.9308 L 13.0501,1.8175 L 13.0386,1.7041 L 13.0278,1.5907 L 13.0178,1.4772 L 13.0085,1.3636 L 13.0,1.25" />
    </g>
    <g fill="none" stroke="rgb(110,110,110)" stroke-width="0.3" id="Hidden" stroke-dasharray="3.6 0.9">
      <path d="M 0.0,5.0 L -0.4358,4.981 L -0.8682,4.924 L -1.2941,4.8296 L -1.7101,4.6985 L -2.1131,4.5315 L -2.5,4.3301 L -2.8679,4.0958 L -3.2139,3.8302 L -3.5355,3.5355 L -3.8302,3.2139 L -4.0958,2.8679 L -4.3301,2.5 L -4.5315,2.1131 L -4.6985,1.7101 L -4.8296,1.2941 L -4.924,0.8682 L -4.981,0.4358 L -5.0,0.0 L -4.981,-0.4358 L -4.924,-0.8682 L -4.8296,-1.2941 L -4.6985,-1.7101 L -4.5315,-2.1131 L -4.3301,-2.5 L -4.0958,-2.8679 L -3.8302,-3.2139 L -3.5355,-3.5355 L -3.2139,-3.8302 L -2.8679,-4.0958 L -2.5,-4.3301 L -2.1131,-4.5315 L -1.7101,-4.6985 L -1.2941,-4.8296 L -0.8682,-4.924 L -0.4358,-4.981 L -0.0,-5.0 L 0.4358,-4.981 L 0.8682,-4.924 L 1.2941,-4.8296 L 1.7101,-4.6985 L 2.1131,-4.5315 L 2.5,-4.3301 L 2.8679,-4.0958 L 3.2139,-3.8302 L 3.5355,-3.5355 L 3.8302,-3.2139 L 4.0958,-2.8679 L 4.3301,-2.5 L 4.5315,-2.1131 L 4.6985,-1.7101 L 4.8296,-1.2941 L 4.924,-0.8682 L 4.981,-0.4358 L 5.0,-0.0 L 4.981,0.4358 L 4.924,0.8682 L 4.8296,1.2941 L 4.6985,1.7101 L 4.5315,2.1131 L 4.3301,2.5 L 4.0958,2.8679 L 3.8302,3.2139 L 3.5355,3.5355 L 3.2139,3.8302 L 2.8679,4.0958 L 2.5,4.3301 L 2.1131,4.5315 L 1.7101,4.6985 L 1.2941,4.8296 L 0.8682,4.924 L 0.4358,4.981 L 0.0,5.0" />
      <path d="M 0.0,5.0 L -0.4358,4.981 L -0.8682,4.924 L -1.2941,4.8296 L -1.7101,4.6985 L -2.1131,4.5315 L -2.5,4.3301 L -2.8679,4.0958 L -3.2139,3.8302 L -3.5355,3.5355 L -3.8302,3.2139 L -4.0958,2.8679 L -4.3301,2.5 L -4.5315,2.1131 L -4.6985,1.7101 L -4.8296,1.2941 L -4.924,0.8682 L -4.981,0.4358 L -5.0,0.0 L -4.981,-0.4358 L -4.924,-0.8682 L -4.8296,-1.2941 L -4.6985,-1.7101 L -4.5315,-2.1131 L -4.3301,-2.5 L -4.0958,-2.8679 L -3.8302,-3.2139 L -3.5355,-3.5355 L -3.2139,-3.8302 L -2.8679,-4.0958 L -2.5,-4.3301 L -2.1131,-4.5315 L -1.7101,-4.6985 L -1.2941,-4.8296 L -0.8682,-4.924 L -0.4358,-4.981 L -0.0,-5.0 L 0.4358,-4.981 L 0.8682,-4.924 L 1.2941,-4.8296 L 1.7101,-4.6985 L 2.1131,-4.5315 L 2.5,-4.3301 L 2.8679,-4.0958 L 3.2139,-3.8302 L 3.5355,-3.5355 L 3.8302,-3.2139 L 4.0958,-2.8679 L 4.3301,-2.5 L 4.5315,-2.1131 L 4.6985,-1.7101 L 4.8296,-1.2941 L 4.924,-0.8682 L 4.981,-0.4358 L 5.0,-0.0 L 4.981,0.4358 L 4.924,0.8682 L 4.8296,1.2941 L 4.6985,1.7101 L 4.5315,2.1131 L 4.3301,2.5 L 4.0958,2.8679 L 3.8302,3.2139 L 3.5355,3.5355 L 3.2139,3.8302 L 2.8679,4.0958 L 2.5,4.3301 L 2.1131,4.5315 L 1.7101,4.6985 L 1.2941,4.8296 L 0.8682,4.924 L 0.4358,4.981 L 0.0,5.0" />
      <path d="M 8.5684,1.25 L 8.3304,1.25 L 8.0924,1.25 L 7.8544,1.25 L 7.6164,1.25 L 7.3783,1.25 L 7.1403,1.25 L 6.9023,1.25 L 6.6643,1.25 L 6.4263,1.25 L 6.1883,1.25 L 5.9503,1.25 L 5.7123,1.25 L 5.4743,1.25 L 5.2362,1.25 L 4.9982,1.25 L 4.7602,1.25 L 4.5222,1.25 L 4.2842,1.25 L 4.0462,1.25 L 3.8082,1.25 L 3.5702,1.25 L 3.3322,1.25 L 3.0941,1.25 L 2.8561,1.25 L 2.6181,1.25 L 2.3801,1.25 L 2.1421,1.25 L 1.9041,1.25 L 1.6661,1.25 L 1.4281,1.25 L 1.1901,1.25 L 0.952,1.25 L 0.714,1.25 L 0.476,1.25 L 0.238,1.25 L 0.0,1.25 L -0.238,1.25 L -0.476,1.25 L -0.714,1.25 L -0.952,1.25 L -1.1901,1.25 L -1.4281,1.25 L -1.6661,1.25 L -1.9041,1.25 L -2.1421,1.25 L -2.3801,1.25 L -2.6181,1.25 L -2.8561,1.25 L -3.0941,1.25 L -3.3322,1.25 L -3.5702,1.25 L -3.8082,1.25 L -4.0462,1.25 L -4.2842,1.25 L -4.5222,1.25 L -4.7602,1.25 L -4.9982,1.25 L -5.2362,1.25 L -5.4743,1.25 L -5.7123,1.25 L -5.9503,1.25 L -6.1883,1.25 L -6.4263,1.25 L -6.6643,1.25 L -6.9023,1.25 L -7.1403,1.25 L -7.3783,1.25 L -7.6164,1.25 L -7.8544,1.25 L -8.0924,1.25 L -8.3304,1.25 L -8.5684,1.25" />
      <path d="M 8.5684,-1.25 L 8.3304,-1.25 L 8.0924,-1.25 L 7.8544,-1.25 L 7.6164,-1.25 L 7.3783,-1.25 L 7.1403,-1.25 L 6.9023,-1.25 L 6.6643,-1.25 L 6.4263,-1.25 L 6.1883,-1.25 L 5.9503,-1.25 L 5.7123,-1.25 L 5.4743,-1.25 L 5.2362,-1.25 L 4.9982,-1.25 L 4.7602,-1.25 L 4.5222,-1.25 L 4.2842,-1.25 L 4.0462,-1.25 L 3.8082,-1.25 L 3.5702,-1.25 L 3.3322,-1.25 L 3.0941,-1.25 L 2.8561,-1.25 L 2.6181,-1.25 L 2.3801,-1.25 L 2.1421,-1.25 L 1.9041,-1.25 L 1.6661,-1.25 L 1.4281,-1.25 L 1.1901,-1.25 L 0.952,-1.25 L 0.714,-1.25 L 0.476,-1.25 L 0.238,-1.25 L 0.0,-1.25 L -0.238,-1.25 L -0.476,-1.25 L -0.714,-1.25 L -0.952,-1.25 L -1.1901,-1.25 L -1.4281,-1.25 L -1.6661,-1.25 L -1.9041,-1.25 L -2.1421,-1.25 L -2.3801,-1.25 L -2.6181,-1.25 L -2.8561,-1.25 L -3.0941,-1.25 L -3.3322,-1.25 L -3.5702,-1.25 L -3.8082,-1.25 L -4.0462,-1.25 L -4.2842,-1.25 L -4.5222,-1.25 L -4.7602,-1.25 L -4.9982,-1.25 L -5.2362,-1.25 L -5.4743,-1.25 L -5.7123,-1.25 L -5.9503,-1.25 L -6.1883,-1.25 L -6.4263,-1.25 L -6.6643,-1.25 L -6.9023,-1.25 L -7.1403,-1.25 L -7.3783,-1.25 L -7.6164,-1.25 L -7.8544,-1.25 L -8.0924,-1.25 L -8.3304,-1.25 L -8.5684,-1.25" />
      <path d="M 20.4556,5.0 L 20.4557,5.0 L 20.4558,5.0" />
      <path d="M 50.4543,5.0 L 50.4435,4.862 L 50.4391,4.7232 L 50.4359,4.5843 L 50.4332,4.4454 L 50.4308,4.3065 L 50.4288,4.1676 L 50.4269,4.0287 L 50.4253,3.8898 L 50.4237,3.7509 L 50.4223,3.612 L 50.4211,3.4731 L 50.4199,3.3341 L 50.4188,3.1952 L 50.4177,3.0563 L 50.4168,2.9174 L 50.4159,2.7785 L 50.415,2.6396 L 50.4143,2.5006 L 50.4136,2.3617 L 50.4129,2.2228 L 50.4123,2.0839 L 50.4117,1.945 L 50.4112,1.8061 L 50.4107,1.6671 L 50.4103,1.5282 L 50.4099,1.3893 L 50.4095,1.2504 L 50.4092,1.1115 L 50.409,0.9726 L 50.4087,0.8336 L 50.4085,0.6947 L 50.4084,0.5558 L 50.4082,0.4169 L 50.4082,0.278 L 50.4081,0.139 L 50.4081,0.0001 L 50.4081,-0.1388 L 50.4082,-0.2777 L 50.4082,-0.4166 L 50.4084,-0.5555 L 50.4085,-0.6945 L 50.4087,-0.8334 L 50.409,-0.9723 L 50.4092,-1.1112 L 50.4095,-1.2501 L 50.4099,-1.389 L 50.4103,-1.528 L 50.4107,-1.6669 L 50.4112,-1.8058 L 50.4117,-1.9447 L 50.4123,-2.0836 L 50.4129,-2.2225 L 50.4136,-2.3615 L 50.4143,-2.5004 L 50.415,-2.6393 L 50.4159,-2.7782 L 50.4168,-2.9171 L 50.4177,-3.056 L 50.4187,-3.195 L 50.4199,-3.3339 L 50.4211,-3.4728 L 50.4223,-3.6117 L 50.4237,-3.7506 L 50.4253,-3.8895 L 50.4269,-4.0284 L 50.4288,-4.1673 L 50.4308,-4.3062 L 50.4331,-4.4451 L 50.4359,-4.584 L 50.4391,-4.7229 L 50.4435,-4.8618 L 50.4543,-5.0" />
      <path d="M 20.4556,5.0 L 20.4448,4.862 L 20.4404,4.7232 L 20.4371,4.5843 L 20.4344,4.4454 L 20.4321,4.3065 L 20.4301,4.1676 L 20.4282,4.0287 L 20.4265,3.8898 L 20.425,3.7509 L 20.4236,3.612 L 20.4223,3.4731 L 20.4211,3.3341 L 20.42,3.1952 L 20.419,3.0563 L 20.418,2.9174 L 20.4172,2.7785 L 20.4163,2.6396 L 20.4156,2.5006 L 20.4148,2.3617 L 20.4142,2.2228 L 20.4136,2.0839 L 20.413,1.945 L 20.4125,1.8061 L 20.412,1.6671 L 20.4116,1.5282 L 20.4112,1.3893 L 20.4108,1.2504 L 20.4105,1.1115 L 20.4102,0.9726 L 20.41,0.8336 L 20.4098,0.6947 L 20.4096,0.5558 L 20.4095,0.4169 L 20.4094,0.278 L 20.4094,0.139 L 20.4094,0.0001 L 20.4094,-0.1388 L 20.4094,-0.2777 L 20.4095,-0.4166 L 20.4096,-0.5555 L 20.4098,-0.6945 L 20.41,-0.8334 L 20.4102,-0.9723 L 20.4105,-1.1112 L 20.4108,-1.2501 L 20.4112,-1.389 L 20.4116,-1.528 L 20.412,-1.6669 L 20.4125,-1.8058 L 20.413,-1.9447 L 20.4136,-2.0836 L 20.4142,-2.2225 L 20.4148,-2.3615 L 20.4156,-2.5004 L 20.4163,-2.6393 L 20.4172,-2.7782 L 20.418,-2.9171 L 20.419,-3.056 L 20.42,-3.195 L 20.4211,-3.3339 L 20.4223,-3.4728 L 20.4236,-3.6117 L 20.425,-3.7506 L 20.4265,-3.8895 L 20.4282,-4.0284 L 20.43,-4.1673 L 20.4321,-4.3062 L 20.4344,-4.4451 L 20.4371,-4.584 L 20.4404,-4.7229 L 20.4448,-4.8618 L 20.4556,-5.0" />
      <path d="M 20.4559,4.9999 L 20.4558,4.9999 L 20.4558,5.0 L 20.4557,5.0 L 20.4556,5.0" />
      <path d="M 15.4545,8.9989 L 15.4363,8.75 L 15.4285,8.5001 L 15.4226,8.2501 L 15.4177,8.0002 L 15.4135,7.7502 L 15.4098,7.5002 L 15.4065,7.2502 L 15.4035,7.0002 L 15.4008,6.7502 L 15.3983,6.5002 L 15.3959,6.2502 L 15.3938,6.0002 L 15.3918,5.7502 L 15.3899,5.5002 L 15.3882,5.2502 L 15.3866,5.0002 L 15.3851,4.7502 L 15.3837,4.5002 L 15.3825,4.2502 L 15.3813,4.0002 L 15.3802,3.7502 L 15.3791,3.5002 L 15.3782,3.2502 L 15.3773,3.0002 L 15.3766,2.7502 L 15.3759,2.5002 L 15.3752,2.2502 L 15.3747,2.0001 L 15.3742,1.7501 L 15.3738,1.5001 L 15.3734,1.2501 L 15.3731,1.0001 L 15.3729,0.7501 L 15.3727,0.5001 L 15.3726,0.2501 L 15.3726,0.0001 L 15.3726,-0.2499 L 15.3727,-0.5 L 15.3729,-0.75 L 15.3731,-1.0 L 15.3734,-1.25 L 15.3738,-1.5 L 15.3742,-1.75 L 15.3747,-2.0 L 15.3752,-2.25 L 15.3759,-2.5 L 15.3766,-2.75 L 15.3773,-3.0 L 15.3782,-3.2501 L 15.3791,-3.5001 L 15.3802,-3.7501 L 15.3813,-4.0001 L 15.3825,-4.2501 L 15.3837,-4.5001 L 15.3851,-4.7501 L 15.3866,-5.0001 L 15.3882,-5.2501 L 15.3899,-5.5001 L 15.3918,-5.7501 L 15.3938,-6.0001 L 15.3959,-6.2501 L 15.3982,-6.5001 L 15.4008,-6.7501 L 15.4035,-7.0001 L 15.4065,-7.2501 L 15.4098,-7.5001 L 15.4135,-7.7501 L 15.4177,-8.0001 L 15.4226,-8.25 L 15.4285,-8.5 L 15.4363,-8.7499 L 15.4545,-8.9989" />
      <path d="M 15.1766,-1.25 L 15.1464,-1.25 L 15.1161,-1.25 L 15.0859,-1.25 L 15.0557,-1.25 L 15.0254,-1.25 L 14.9952,-1.25 L 14.965,-1.25 L 14.9347,-1.25 L 14.9045,-1.25 L 14.8743,-1.25 L 14.8441,-1.25 L 14.8138,-1.25 L 14.7836,-1.25 L 14.7534,-1.25 L 14.7231,-1.25 L 14.6929,-1.25 L 14.6627,-1.25 L 14.6324,-1.25 L 14.6022,-1.25 L 14.572,-1.25 L 14.5417,-1.25 L 14.5115,-1.25 L 14.4813,-1.25 L 14.4511,-1.25 L 14.4208,-1.25 L 14.3906,-1.25 L 14.3604,-1.25 L 14.3301,-1.25 L 14.2999,-1.25 L 14.2697,-1.25 L 14.2394,-1.25 L 14.2092,-1.25 L 14.179,-1.25 L 14.1488,-1.25 L 14.1185,-1.25 L 14.0883,-1.25 L 14.0581,-1.25 L 14.0278,-1.25 L 13.9976,-1.25 L 13.9674,-1.25 L 13.9371,-1.25 L 13.9069,-1.25 L 13.8767,-1.25 L 13.8465,-1.25 L 13.8162,-1.25 L 13.786,-1.25 L 13.7558,-1.25 L 13.7255,-1.25 L 13.6953,-1.25 L 13.6651,-1.25 L 13.6348,-1.25 L 13.6046,-1.25 L 13.5744,-1.25 L 13.5441,-1.25 L 13.5139,-1.25 L 13.4837,-1.25 L 13.4535,-1.25 L 13.4232,-1.25 L 13.393,-1.25 L 13.3628,-1.25 L 13.3325,-1.25 L 13.3023,-1.25 L 13.2721,-1.25 L 13.2418,-1.25 L 13.2116,-1.25 L 13.1814,-1.25 L 13.1512,-1.25 L 13.1209,-1.25 L 13.0907,-1.25 L 13.0605,-1.25 L 13.0302,-1.25 L 13.0,-1.25" />
      <path d="M 15.3351,1.25 L 15.3329,1.25 L 15.3306,1.25 L 15.3284,1.25 L 15.3262,1.25 L 15.324,1.25 L 15.3218,1.25 L 15.3196,1.25 L 15.3174,1.25 L 15.3152,1.25 L 15.313,1.25 L 15.3108,1.25 L 15.3086,1.25 L 15.3064,1.25 L 15.3042,1.25 L 15.302,1.25 L 15.2998,1.25 L 15.2976,1.25 L 15.2954,1.25 L 15.2932,1.25 L 15.291,1.25 L 15.2888,1.25 L 15.2866,1.25 L 15.2844,1.25 L 15.2822,1.25 L 15.28,1.25 L 15.2778,1.25 L 15.2756,1.25 L 15.2734,1.25 L 15.2712,1.25 L 15.269,1.25 L 15.2668,1.25 L 15.2646,1.25 L 15.2624,1.25 L 15.2602,1.25 L 15.258,1.25 L 15.2558,1.25 L 15.2536,1.25 L 15.2514,1.25 L 15.2492,1.25 L 15.247,1.25 L 15.2448,1.25 L 15.2426,1.25 L 15.2404,1.25 L 15.2382,1.25 L 15.236,1.25 L 15.2338,1.25 L 15.2316,1.25 L 15.2294,1.25 L 15.2272,1.25 L 15.225,1.25 L 15.2228,1.25 L 15.2206,1.25 L 15.2184,1.25 L 15.2162,1.25 L 15.214,1.25 L 15.2118,1.25 L 15.2096,1.25 L 15.2074,1.25 L 15.2052,1.25 L 15.203,1.25 L 15.2008,1.25 L 15.1986,1.25 L 15.1964,1.25 L 15.1942,1.25 L 15.192,1.25 L 15.1898,1.25 L 15.1876,1.25 L 15.1854,1.25 L 15.1832,1.25 L 15.181,1.25 L 15.1788,1.25 L 15.1766,1.25" />
      <path d="M 15.3351,-1.25 L 15.3329,-1.25 L 15.3306,-1.25 L 15.3284,-1.25 L 15.3262,-1.25 L 15.324,-1.25 L 15.3218,-1.25 L 15.3196,-1.25 L 15.3174,-1.25 L 15.3152,-1.25 L 15.313,-1.25 L 15.3108,-1.25 L 15.3086,-1.25 L 15.3064,-1.25 L 15.3042,-1.25 L 15.302,-1.25 L 15.2998,-1.25 L 15.2976,-1.25 L 15.2954,-1.25 L 15.2932,-1.25 L 15.291,-1.25 L 15.2888,-1.25 L 15.2866,-1.25 L 15.2844,-1.25 L 15.2822,-1.25 L 15.28,-1.25 L 15.2778,-1.25 L 15.2756,-1.25 L 15.2734,-1.25 L 15.2712,-1.25 L 15.269,-1.25 L 15.2668,-1.25 L 15.2646,-1.25 L 15.2624,-1.25 L 15.2602,-1.25 L 15.258,-1.25 L 15.2558,-1.25 L 15.2536,-1.25 L 15.2514,-1.25 L 15.2492,-1.25 L 15.247,-1.25 L 15.2448,-1.25 L 15.2426,-1.25 L 15.2404,-1.25 L 15.2382,-1.25 L 15.236,-1.25 L 15.2338,-1.25 L 15.2316,-1.25 L 15.2294,-1.25 L 15.2272,-1.25 L 15.225,-1.25 L 15.2228,-1.25 L 15.2206,-1.25 L 15.2184,-1.25 L 15.2162,-1.25 L 15.214,-1.25 L 15.2118,-1.25 L 15.2096,-1.25 L 15.2074,-1.25 L 15.2052,-1.25 L 15.203,-1.25 L 15.2008,-1.25 L 15.1986,-1.25 L 15.1964,-1.25 L 15.1942,-1.25 L 15.192,-1.25 L 15.1898,-1.25 L 15.1876,-1.25 L 15.1854,-1.25 L 15.1832,-1.25 L 15.181,-1.25 L 15.1788,-1.25 L 15.1766,-1.25" />
      <path d="M 20.4556,-5.0 L 20.4557,-5.0 L 20.4558,-5.0" />
    </g>
    <g fill="none" stroke="rgb(0,0,0)" stroke-width="0.2" id="Center" stroke-dasharray="6.35 1.27 1.27 1.27">
      <line x1="0.0" y1="-0.0" x2="-12.0" y2="-0.0" />
      <line x1="0.0" y1="-0.0" x2="12.0" y2="-0.0" />
      <line x1="0.0" y1="-0.0" x2="0.0" y2="-12.0" />
      <line x1="0.0" y1="-0.0" x2="0.0" y2="12.0" />
      <line x1="31.7503" y1="-0.0" x2="10.0" y2="-0.0" />
      <line x1="31.7503" y1="-0.0" x2="53.5005" y2="-0.0" />
    </g>
  </g>
</svg>