<?xml version='1.0' encoding='utf-8'?>
<svg width="82.4mm" height="41.4mm" viewBox="-20.7 -20.7 82.4 41.4" version="1.1" xmlns="http://www.w3.org/2000/svg">
  <g transform="scale(1,-1)" stroke-linecap="round">
    <g fill="none" stroke="rgb(0,0,0)" stroke-width="0.4" id="Visible">
      <circle cx="-0.0" cy="-0.0" r="18.5" />
      <circle cx="-0.0" cy="-0.0" r="6.5" />
      <path d="M 22.5,1.5 L 22.9638,1.5 L 24.3321,1.5 L 26.5361,1.5 L 29.4654,1.5 L 32.9732,1.5 L 36.8834,1.5 L 41.0,1.5 L 45.1166,1.5 L 49.0268,1.5 L 52.5346,1.5 L 55.4639,1.5 L 57.6679,1.5 L 59.0362,1.5 L 59.5,1.5" />
      <line x1="59.5" y1="-1.5" x2="59.5" y2="1.5" />
      <path d="M 22.5,-1.5 L 22.9638,-1.5 L 24.3321,-1.5 L 26.5361,-1.5 L 29.4654,-1.5 L 32.9732,-1.5 L 36.8834,-1.5 L 41.0,-1.5 L 45.1166,-1.5 L 49.0268,-1.5 L 52.5346,-1.5 L 55.4639,-1.5 L 57.6679,-1.5 L 59.0362,-1.5 L 59.5,-1.5" />
      <line x1="22.5" y1="-1.5" x2="22.5" y2="1.5" />
    </g>
    <g fill="none" stroke="rgb(110,110,110)" stroke-width="0.3" id="Hidden" stroke-dasharray="3.6 0.9">
      <circle cx="-0.0" cy="-0.0" r="18.5" />
      <circle cx="-0.0" cy="-0.0" r="6.5" />
      <path d="M 59.5,1.5 L 59.0362,1.5 L 57.6679,1.5 L 55.4639,1.5 L 52.5346,1.5 L 49.0268,1.5 L 45.1166,1.5 L 41.0,1.5 L 36.8834,1.5 L 32.9732,1.5 L 29.4654,1.5 L 26.5361,1.5 L 24.3321,1.5 L 22.9638,1.5 L 22.5,1.5" />
      <path d="M 59.5,-1.5 L 59.0362,-1.5 L 57.6679,-1.5 L 55.4639,-1.5 L 52.5346,-1.5 L 49.0268,-1.5 L 45.1166,-1.5 L 41.0,-1.5 L 36.8834,-1.5 L 32.9732,-1.5 L 29.4654,-1.5 L 26.5361,-1.5 L 24.3321,-1.5 L 22.9638,-1.5 L 22.5,-1.5" />
      <path d="M 47.5,1.5 L 47.337,1.5 L 46.8563,1.5 L 46.0819,1.5 L 45.0527,1.5 L 43.8202,1.5 L 42.4464,1.5 L 41.0,1.5 L 39.5536,1.5 L 38.1798,1.5 L 36.9473,1.5 L 35.9181,1.5 L 35.1437,1.5 L 34.663,1.5 L 34.5,1.5" />
      <path d="M 34.5,1.5 L 34.663,1.5 L 35.1437,1.5 L 35.9181,1.5 L 36.9473,1.5 L 38.1798,1.5 L 39.5536,1.5 L 41.0,1.5 L 42.4464,1.5 L 43.8202,1.5 L 45.0527,1.5 L 46.0819,1.5 L 46.8563,1.5 L 47.337,1.5 L 47.5,1.5" />
      <path d="M 47.5,-1.5 L 47.337,-1.5 L 46.8563,-1.5 L 46.0819,-1.5 L 45.0527,-1.5 L 43.8202,-1.5 L 42.4464,-1.5 L 41.0,-1.5 L 39.5536,-1.5 L 38.1798,-1.5 L 36.9473,-1.5 L 35.9181,-1.5 L 35.1437,-1.5 L 34.663,-1.5 L 34.5,-1.5" />
      <path d="M 34.5,-1.5 L 34.663,-1.5 L 35.1437,-1.5 L 35.9181,-1.5 L 36.9473,-1.5 L 38.1798,-1.5 L 39.5536,-1.5 L 41.0,-1.5 L 42.4464,-1.5 L 43.8202,-1.5 L 45.0527,-1.5 L 46.0819,-1.5 L 46.8563,-1.5 L 47.337,-1.5 L 47.5,-1.5" />
      <line x1="47.5" y1="-1.5" x2="47.5" y2="1.5" />
      <line x1="34.5" y1="-1.5" x2="34.5" y2="1.5" />
    </g>
  </g>
</svg>