<?xml version='1.0' encoding='utf-8'?>
<svg width="55.3918mm" height="21.22mm" viewBox="-10.61 -10.61 55.3918 21.22" version="1.1" xmlns="http://www.w3.org/2000/svg">
  <g transform="scale(1,-1)" stroke-linecap="round">
    <g fill="none" stroke="rgb(0,0,0)" stroke-width="0.4" id="Visible">
      <path d="M 0.0,6.0 L -0.5229,5.9772 L -1.0419,5.9088 L -1.5529,5.7956 L -2.0521,5.6382 L -2.5357,5.4378 L -3.0,5.1962 L -3.4415,4.9149 L -3.8567,4.5963 L -4.2426,4.2426 L -4.5963,3.8567 L -4.9149,3.4415 L -5.1962,3.0 L -5.4378,2.5357 L -5.6382,2.0521 L -5.7956,1.5529 L -5.9088,1.0419 L -5.9772,0.5229 L -6.0,-0.0 L -5.9772,-0.5229 L -5.9088,-1.0419 L -5.7956,-1.5529 L -5.6382,-2.0521 L -5.4378,-2.5357 L -5.1962,-3.0 L -4.9149,-3.4415 L -4.5963,-3.8567 L -4.2426,-4.2426 L -3.8567,-4.5963 L -3.4415,-4.9149 L -3.0,-5.1962 L -2.5357,-5.4378 L -2.0521,-5.6382 L -1.5529,-5.7956 L -1.0419,-5.9088 L -0.5229,-5.9772 L -0.0,-6.0 L 0.5229,-5.9772 L 1.0419,-5.9088 L 1.5529,-5.7956 L 2.0521,-5.6382 L 2.5357,-5.4378 L 3.0,-5.1962 L 3.4415,-4.9149 L 3.8567,-4.5963 L 4.2426,-4.2426 L 4.5963,-3.8567 L 4.9149,-3.4415 L 5.1962,-3.0 L 5.4378,-2.5357 L 5.6382,-2.0521 L 5.7956,-1.5529 L 5.9088,-1.0419 L 5.9772,-0.5229 L 6.0,0.0 L 5.9772,0.5229 L 5.9088,1.0419 L 5.7956,1.5529 L 5.6382,2.0521 L 5.4378,2.5357 L 5.1962,3.0 L 4.9149,3.4415 L 4.5963,3.8567 L 4.2426,4.2426 L 3.8567,4.5963 L 3.4415,4.9149 L 3.0,5.1962 L 2.5357,5.4378 L 2.0521,5.6382 L 1.5529,5.7956 L 1.0419,5.9088 L 0.5229,5.9772 L 0.0,6.0" />
      <path d="M 3.0,1.7321 L 2.9583,1.7561 L 2.9167,1.7802 L 2.875,1.8042 L 2.8333,1.8283 L 2.7917,1.8523 L 2.75,1.8764 L 2.7083,1.9004 L 2.6667,1.9245 L 2.625,1.9486 L 2.5833,1.9726 L 2.5417,1.9967 L 2.5,2.0207 L 2.4583,2.0448 L 2.4167,2.0688 L 2.375,2.0929 L 2.3333,2.117 L 2.2917,2.141 L 2.25,2.1651 L 2.2083,2.1891 L 2.1667,2.2132 L 2.125,2.2372 L 2.0833,2.2613 L 2.0417,2.2853 L 2.0,2.3094 L 1.9583,2.3335 L 1.9167,2.3575 L 1.875,2.3816 L 1.8333,2.4056 L 1.7917,2.4297 L 1.75,2.4537 L 1.7083,2.4778 L 1.6667,2.5019 L 1.625,2.5259 L 1.5833,2.55 L 1.5417,2.574 L 1.5,2.5981 L 1.4583,2.6221 L 1.4167,2.6462 L 1.375,2.6702 L 1.3333,2.6943 L 1.2917,2.7184 L 1.25,2.7424 L 1.2083,2.7665 L 1.1667,2.7905 L 1.125,2.8146 L 1.0833,2.8386 L 1.0417,2.8627 L 1.0,2.8868 L 0.9583,2.9108 L 0.9167,2.9349 L 0.875,2.9589 L 0.8333,2.983 L 0.7917,3.007 L 0.75,3.0311 L 0.7083,3.0551 L 0.6667,3.0792 L 0.625,3.1033 L 0.5833,3.1273 L 0.5417,3.1514 L 0.5,3.1754 L 0.4583,3.1995 L 0.4167,3.2235 L 0.375,3.2476 L 0.3333,3.2717 L 0.2917,3.2957 L 0.25,3.3198 L 0.2083,3.3438 L 0.1667,3.3679 L 0.125,3.3919 L 0.0833,3.416 L 0.0417,3.44 L 0.0,3.4641" />
      <path d="M 3.0,-1.7321 L 3.0,-1.6839 L 3.0,-1.6358 L 3.0,-1.5877 L 3.0,-1.5396 L 3.0,-1.4915 L 3.0,-1.4434 L 3.0,-1.3953 L 3.0,-1.3472 L 3.0,-1.299 L 3.0,-1.2509 L 3.0,-1.2028 L 3.0,-1.1547 L 3.0,-1.1066 L 3.0,-1.0585 L 3.0,-1.0104 L 3.0,-0.9623 L 3.0,-0.9141 L 3.0,-0.866 L 3.0,-0.8179 L 3.0,-0.7698 L 3.0,-0.7217 L 3.0,-0.6736 L 3.0,-0.6255 L 3.0,-0.5774 L 3.0,-0.5292 L 3.0,-0.4811 L 3.0,-0.433 L 3.0,-0.3849 L 3.0,-0.3368 L 3.0,-0.2887 L 3.0,-0.2406 L 3.0,-0.1925 L 3.0,-0.1443 L 3.0,-0.0962 L 3.0,-0.0481 L 3.0,0.0 L 3.0,0.0481 L 3.0,0.0962 L 3.0,0.1443 L 3.0,0.1925 L 3.0,0.2406 L 3.0,0.2887 L 3.0,0.3368 L 3.0,0.3849 L 3.0,0.433 L 3.0,0.4811 L 3.0,0.5292 L 3.0,0.5774 L 3.0,0.6255 L 3.0,0.6736 L 3.0,0.7217 L 3.0,0.7698 L 3.0,0.8179 L 3.0,0.866 L 3.0,0.9141 L 3.0,0.9623 L 3.0,1.0104 L 3.0,1.0585 L 3.0,1.1066 L 3.0,1.1547 L 3.0,1.2028 L 3.0,1.2509 L 3.0,1.299 L 3.0,1.3472 L 3.0,1.3953 L 3.0,1.4434 L 3.0,1.4915 L 3.0,1.5396 L 3.0,1.5877 L 3.0,1.6358 L 3.0,1.6839 L 3.0,1.7321" />
      <path d="M 0.0,-3.4641 L 0.0417,-3.44 L 0.0833,-3.416 L 0.125,-3.3919 L 0.1667,-3.3679 L 0.2083,-3.3438 L 0.25,-3.3198 L 0.2917,-3.2957 L 0.3333,-3.2717 L 0.375,-3.2476 L 0.4167,-3.2235 L 0.4583,-3.1995 L 0.5,-3.1754 L 0.5417,-3.1514 L 0.5833,-3.1273 L 0.625,-3.1033 L 0.6667,-3.0792 L 0.7083,-3.0551 L 0.75,-3.0311 L 0.7917,-3.007 L 0.8333,-2.983 L 0.875,-2.9589 L 0.9167,-2.9349 L 0.9583,-2.9108 L 1.0,-2.8868 L 1.0417,-2.8627 L 1.0833,-2.8386 L 1.125,-2.8146 L 1.1667,-2.7905 L 1.2083,-2.7665 L 1.25,-2.7424 L 1.2917,-2.7184 L 1.3333,-2.6943 L 1.375,-2.6702 L 1.4167,-2.6462 L 1.4583,-2.6221 L 1.5,-2.5981 L 1.5417,-2.574 L 1.5833,-2.55 L 1.625,-2.5259 L 1.6667,-2.5019 L 1.7083,-2.4778 L 1.75,-2.4537 L 1.7917,-2.4297 L 1.8333,-2.4056 L 1.875,-2.3816 L 1.9167,-2.3575 L 1.9583,-2.3335 L 2.0,-2.3094 L 2.0417,-2.2853 L 2.0833,-2.2613 L 2.125,-2.2372 L 2.1667,-2.2132 L 2.2083,-2.1891 L 2.25,-2.1651 L 2.2917,-2.141 L 2.3333,-2.117 L 2.375,-2.0929 L 2.4167,-2.0688 L 2.4583,-2.0448 L 2.5,-2.0207 L 2.5417,-1.9967 L 2.5833,-1.9726 L 2.625,-1.9486 L 2.6667,-1.9245 L 2.7083,-1.9004 L 2.75,-1.8764 L 2.7917,-1.8523 L 2.8333,-1.8283 L 2.875,-1.8042 L 2.9167,-1.7802 L 2.9583,-1.7561 L 3.0,-1.7321" />
      <path d="M -3.0,-1.7321 L -2.9583,-1.7561 L -2.9167,-1.7802 L -2.875,-1.8042 L -2.8333,-1.8283 L -2.7917,-1.8523 L -2.75,-1.8764 L -2.7083,-1.9004 L -2.6667,-1.9245 L -2.625,-1.9486 L -2.5833,-1.9726 L -2.5417,-1.9967 L -2.5,-2.0207 L -2.4583,-2.0448 L -2.4167,-2.0688 L -2.375,-2.0929 L -2.3333,-2.117 L -2.2917,-2.141 L -2.25,-2.1651 L -2.2083,-2.1891 L -2.1667,-2.2132 L -2.125,-2.2372 L -2.0833,-2.2613 L -2.0417,-2.2853 L -2.0,-2.3094 L -1.9583,-2.3335 L -1.9167,-2.3575 L -1.875,-2.3816 L -1.8333,-2.4056 L -1.7917,-2.4297 L -1.75,-2.4537 L -1.7083,-2.4778 L -1.6667,-2.5019 L -1.625,-2.5259 L -1.5833,-2.55 L -1.5417,-2.574 L -1.5,-2.5981 L -1.4583,-2.6221 L -1.4167,-2.6462 L -1.375,-2.6702 L -1.3333,-2.6943 L -1.2917,-2.7184 L -1.25,-2.7424 L -1.2083,-2.7665 L -1.1667,-2.7905 L -1.125,-2.8146 L -1.0833,-2.8386 L -1.0417,-2.8627 L -1.0,-2.8868 L -0.9583,-2.9108 L -0.9167,-2.9349 L -0.875,-2.9589 L -0.8333,-2.983 L -0.7917,-3.007 L -0.75,-3.0311 L -0.7083,-3.0551 L -0.6667,-3.0792 L -0.625,-3.1033 L -0.5833,-3.1273 L -0.5417,-3.1514 L -0.5,-3.1754 L -0.4583,-3.1995 L -0.4167,-3.2235 L -0.375,-3.2476 L -0.3333,-3.2717 L -0.2917,-3.2957 L -0.25,-3.3198 L -0.2083,-3.3438 L -0.1667,-3.3679 L -0.125,-3.3919 L -0.0833,-3.416 L -0.0417,-3.44 L -0.0,-3.4641" />
      <path d="M -3.0,1.7321 L -3.0,1.6839 L -3.0,1.6358 L -3.0,1.5877 L -3.0,1.5396 L -3.0,1.4915 L -3.0,1.4434 L -3.0,1.3953 L -3.0,1.3472 L -3.0,1.299 L -3.0,1.2509 L -3.0,1.2028 L -3.0,1.1547 L -3.0,1.1066 L -3.0,1.0585 L -3.0,1.0104 L -3.0,0.9623 L -3.0,0.9141 L -3.0,0.866 L -3.0,0.8179 L -3.0,0.7698 L -3.0,0.7217 L -3.0,0.6736 L -3.0,0.6255 L -3.0,0.5774 L -3.0,0.5292 L -3.0,0.4811 L -3.0,0.433 L -3.0,0.3849 L -3.0,0.3368 L -3.0,0.2887 L -3.0,0.2406 L -3.0,0.1925 L -3.0,0.1443 L -3.0,0.0962 L -3.0,0.0481 L -3.0,0.0 L -3.0,-0.0481 L -3.0,-0.0962 L -3.0,-0.1443 L -3.0,-0.1925 L -3.0,-0.2406 L -3.0,-0.2887 L -3.0,-0.3368 L -3.0,-0.3849 L -3.0,-0.433 L -3.0,-0.4811 L -3.0,-0.5292 L -3.0,-0.5774 L -3.0,-0.6255 L -3.0,-0.6736 L -3.0,-0.7217 L -3.0,-0.7698 L -3.0,-0.8179 L -3.0,-0.866 L -3.0,-0.9141 L -3.0,-0.9623 L -3.0,-1.0104 L -3.0,-1.0585 L -3.0,-1.1066 L -3.0,-1.1547 L -3.0,-1.2028 L -3.0,-1.2509 L -3.0,-1.299 L -3.0,-1.3472 L -3.0,-1.3953 L -3.0,-1.4434 L -3.0,-1.4915 L -3.0,-1.5396 L -3.0,-1.5877 L -3.0,-1.6358 L -3.0,-1.6839 L -3.0,-1.7321" />
      <path d="M 0.0,3.4641 L -0.0417,3.44 L -0.0833,3.416 L -0.125,3.3919 L -0.1667,3.3679 L -0.2083,3.3438 L -0.25,3.3198 L -0.2917,3.2957 L -0.3333,3.2717 L -0.375,3.2476 L -0.4167,3.2235 L -0.4583,3.1995 L -0.5,3.1754 L -0.5417,3.1514 L -0.5833,3.1273 L -0.625,3.1033 L -0.6667,3.0792 L -0.7083,3.0551 L -0.75,3.0311 L -0.7917,3.007 L -0.8333,2.983 L -0.875,2.9589 L -0.9167,2.9349 L -0.9583,2.9108 L -1.0,2.8868 L -1.0417,2.8627 L -1.0833,2.8386 L -1.125,2.8146 L -1.1667,2.7905 L -1.2083,2.7665 L -1.25,2.7424 L -1.2917,2.7184 L -1.3333,2.6943 L -1.375,2.6702 L -1.4167,2.6462 L -1.4583,2.6221 L -1.5,2.5981 L -1.5417,2.574 L -1.5833,2.55 L -1.625,2.5259 L -1.6667,2.5019 L -1.7083,2.4778 L -1.75,2.4537 L -1.7917,2.4297 L -1.8333,2.4056 L -1.875,2.3816 L -1.9167,2.3575 L -1.9583,2.3335 L -2.0,2.3094 L -2.0417,2.2853 L -2.0833,2.2613 L -2.125,2.2372 L -2.1667,2.2132 L -2.2083,2.1891 L -2.25,2.1651 L -2.2917,2.141 L -2.3333,2.117 L -2.375,2.0929 L -2.4167,2.0688 L -2.4583,2.0448 L -2.5,2.0207 L -2.5417,1.9967 L -2.5833,1.9726 L -2.625,1.9486 L -2.6667,1.9245 L -2.7083,1.9004 L -2.75,1.8764 L -2.7917,1.8523 L -2.8333,1.8283 L -2.875,1.8042 L -2.9167,1.7802 L -2.9583,1.7561 L -3.0,1.7321" />
      <path d="M 10.0875,-6.0 L 10.0672,-5.8358 L 10.0588,-5.6692 L 10.0526,-5.5026 L 10.0475,-5.336 L 10.0431,-5.1693 L 10.0392,-5.0026 L 10.0357,-4.8359 L 10.0325,-4.6691 L 10.0297,-4.5024 L 10.027,-4.3357 L 10.0246,-4.169 L 10.0223,-4.0022 L 10.0202,-3.8355 L 10.0183,-3.6687 L 10.0164,-3.502 L 10.0148,-3.3353 L 10.0132,-3.1685 L 10.0117,-3.0018 L 10.0104,-2.835 L 10.0091,-2.6683 L 10.008,-2.5015 L 10.0069,-2.3348 L 10.0059,-2.1681 L 10.005,-2.0013 L 10.0042,-1.8346 L 10.0034,-1.6678 L 10.0028,-1.5011 L 10.0022,-1.3343 L 10.0017,-1.1676 L 10.0012,-1.0008 L 10.0008,-0.8341 L 10.0005,-0.6673 L 10.0003,-0.5006 L 10.0001,-0.3338 L 10.0,-0.1671 L 10.0,-0.0003 L 10.0,0.1664 L 10.0001,0.3332 L 10.0003,0.4999 L 10.0005,0.6667 L 10.0008,0.8334 L 10.0012,1.0002 L 10.0017,1.1669 L 10.0022,1.3337 L 10.0028,1.5004 L 10.0034,1.6672 L 10.0042,1.8339 L 10.005,2.0007 L 10.0059,2.1674 L 10.0069,2.3342 L 10.008,2.5009 L 10.0091,2.6677 L 10.0104,2.8344 L 10.0117,3.0011 L 10.0132,3.1679 L 10.0148,3.3346 L 10.0164,3.5014 L 10.0183,3.6681 L 10.0202,3.8349 L 10.0223,4.0016 L 10.0246,4.1683 L 10.027,4.3351 L 10.0296,4.5018 L 10.0325,4.6685 L 10.0357,4.8352 L 10.0392,5.002 L 10.0431,5.1687 L 10.0475,5.3354 L 10.0526,5.502 L 10.0588,5.6687 L 10.0671,5.8352 L 10.0875,6.0" />
      <path d="M 40.0843,6.0 L 40.1046,5.8358 L 40.1129,5.6692 L 40.1192,5.5026 L 40.1243,5.336 L 40.1287,5.1693 L 40.1326,5.0026 L 40.1361,4.8359 L 40.1392,4.6691 L 40.1421,4.5024 L 40.1448,4.3357 L 40.1472,4.169 L 40.1495,4.0022 L 40.1516,3.8355 L 40.1535,3.6687 L 40.1553,3.502 L 40.157,3.3353 L 40.1586,3.1685 L 40.16,3.0018 L 40.1614,2.835 L 40.1626,2.6683 L 40.1638,2.5015 L 40.1649,2.3348 L 40.1659,2.1681 L 40.1668,2.0013 L 40.1676,1.8346 L 40.1683,1.6678 L 40.169,1.5011 L 40.1696,1.3343 L 40.1701,1.1676 L 40.1705,1.0008 L 40.1709,0.8341 L 40.1712,0.6673 L 40.1715,0.5006 L 40.1716,0.3338 L 40.1717,0.1671 L 40.1718,0.0003 L 40.1717,-0.1664 L 40.1716,-0.3332 L 40.1715,-0.4999 L 40.1712,-0.6667 L 40.1709,-0.8334 L 40.1705,-1.0002 L 40.1701,-1.1669 L 40.1696,-1.3337 L 40.169,-1.5004 L 40.1683,-1.6672 L 40.1676,-1.8339 L 40.1668,-2.0007 L 40.1659,-2.1674 L 40.1649,-2.3342 L 40.1638,-2.5009 L 40.1626,-2.6677 L 40.1614,-2.8344 L 40.16,-3.0011 L 40.1586,-3.1679 L 40.157,-3.3346 L 40.1553,-3.5014 L 40.1535,-3.6681 L 40.1516,-3.8349 L 40.1495,-4.0016 L 40.1472,-4.1683 L 40.1448,-4.3351 L 40.1421,-4.5018 L 40.1392,-4.6685 L 40.1361,-4.8352 L 40.1326,-5.002 L 40.1287,-5.1687 L 40.1243,-5.3354 L 40.1192,-5.502 L 40.113,-5.6687 L 40.1046,-5.8352 L 40.0843,-6.0" />
      <path d="M 40.0843,-6.0 L 40.064,-5.8358 L 40.0556,-5.6692 L 40.0494,-5.5026 L 40.0443,-5.336 L 40.0399,-5.1693 L 40.036,-5.0026 L 40.0325,-4.8359 L 40.0294,-4.6691 L 40.0265,-4.5024 L 40.0238,-4.3357 L 40.0214,-4.169 L 40.0191,-4.0022 L 40.017,-3.8355 L 40.0151,-3.6687 L 40.0133,-3.502 L 40.0116,-3.3353 L 40.01,-3.1685 L 40.0085,-3.0018 L 40.0072,-2.835 L 40.0059,-2.6683 L 40.0048,-2.5015 L 40.0037,-2.3348 L 40.0027,-2.1681 L 40.0018,-2.0013 L 40.001,-1.8346 L 40.0003,-1.6678 L 39.9996,-1.5011 L 39.999,-1.3343 L 39.9985,-1.1676 L 39.998,-1.0008 L 39.9977,-0.8341 L 39.9974,-0.6673 L 39.9971,-0.5006 L 39.9969,-0.3338 L 39.9968,-0.1671 L 39.9968,-0.0003 L 39.9968,0.1664 L 39.9969,0.3332 L 39.9971,0.4999 L 39.9974,0.6667 L 39.9977,0.8334 L 39.998,1.0002 L 39.9985,1.1669 L 39.999,1.3337 L 39.9996,1.5004 L 40.0003,1.6672 L 40.001,1.8339 L 40.0018,2.0007 L 40.0027,2.1674 L 40.0037,2.3342 L 40.0048,2.5009 L 40.0059,2.6677 L 40.0072,2.8344 L 40.0085,3.0011 L 40.01,3.1679 L 40.0116,3.3346 L 40.0133,3.5014 L 40.0151,3.6681 L 40.017,3.8349 L 40.0191,4.0016 L 40.0214,4.1683 L 40.0238,4.3351 L 40.0265,4.5018 L 40.0293,4.6685 L 40.0325,4.8352 L 40.036,5.002 L 40.0399,5.1687 L 40.0443,5.3354 L 40.0494,5.502 L 40.0556,5.6687 L 40.0639,5.8352 L 40.0843,6.0" />
      <path d="M 10.0875,6.0 L 10.5041,6.0 L 10.9207,6.0 L 11.3373,6.0 L 11.754,6.0 L 12.1706,6.0 L 12.5872,6.0 L 13.0038,6.0 L 13.4205,6.0 L 13.8371,6.0 L 14.2537,6.0 L 14.6703,6.0 L 15.0869,6.0 L 15.5036,6.0 L 15.9202,6.0 L 16.3368,6.0 L 16.7534,6.0 L 17.1701,6.0 L 17.5867,6.0 L 18.0033,6.0 L 18.4199,6.0 L 18.8365,6.0 L 19.2532,6.0 L 19.6698,6.0 L 20.0864,6.0 L 20.503,6.0 L 20.9197,6.0 L 21.3363,6.0 L 21.7529,6.0 L 22.1695,6.0 L 22.5861,6.0 L 23.0028,6.0 L 23.4194,6.0 L 23.836,6.0 L 24.2526,6.0 L 24.6693,6.0 L 25.0859,6.0 L 25.5025,6.0 L 25.9191,6.0 L 26.3357,6.0 L 26.7524,6.0 L 27.169,6.0 L 27.5856,6.0 L 28.0022,6.0 L 28.4189,6.0 L 28.8355,6.0 L 29.2521,6.0 L 29.6687,6.0 L 30.0854,6.0 L 30.502,6.0 L 30.9186,6.0 L 31.3352,6.0 L 31.7518,6.0 L 32.1685,6.0 L 32.5851,6.0 L 33.0017,6.0 L 33.4183,6.0 L 33.835,6.0 L 34.2516,6.0 L 34.6682,6.0 L 35.0848,6.0 L 35.5014,6.0 L 35.9181,6.0 L 36.3347,6.0 L 36.7513,6.0 L 37.1679,6.0 L 37.5846,6.0 L 38.0012,6.0 L 38.4178,6.0 L 38.8344,6.0 L 39.251,6.0 L 39.6677,6.0 L 40.0843,6.0" />
      <path d="M 40.0843,3.8 L 40.0972,3.696 L 40.1024,3.5905 L 40.1064,3.485 L 40.1096,3.3794 L 40.1124,3.2739 L 40.1149,3.1683 L 40.1171,3.0627 L 40.1191,2.9571 L 40.1209,2.8515 L 40.1226,2.7459 L 40.1241,2.6403 L 40.1256,2.5347 L 40.1269,2.4291 L 40.1281,2.3235 L 40.1293,2.2179 L 40.1303,2.1123 L 40.1313,2.0067 L 40.1323,1.9011 L 40.1331,1.7955 L 40.1339,1.6899 L 40.1346,1.5843 L 40.1353,1.4787 L 40.1359,1.373 L 40.1365,1.2674 L 40.137,1.1618 L 40.1375,1.0562 L 40.1379,0.9506 L 40.1383,0.845 L 40.1386,0.7394 L 40.1389,0.6338 L 40.1392,0.5282 L 40.1393,0.4226 L 40.1395,0.3169 L 40.1396,0.2113 L 40.1397,0.1057 L 40.1397,0.0001 L 40.1397,-0.1055 L 40.1396,-0.2111 L 40.1395,-0.3167 L 40.1393,-0.4223 L 40.1392,-0.5279 L 40.1389,-0.6335 L 40.1386,-0.7392 L 40.1383,-0.8448 L 40.1379,-0.9504 L 40.1375,-1.056 L 40.137,-1.1616 L 40.1365,-1.2672 L 40.1359,-1.3728 L 40.1353,-1.4784 L 40.1346,-1.584 L 40.1339,-1.6896 L 40.1331,-1.7952 L 40.1323,-1.9009 L 40.1313,-2.0065 L 40.1303,-2.1121 L 40.1293,-2.2177 L 40.1281,-2.3233 L 40.1269,-2.4289 L 40.1256,-2.5345 L 40.1241,-2.6401 L 40.1226,-2.7457 L 40.1209,-2.8513 L 40.1191,-2.9569 L 40.1171,-3.0625 L 40.1149,-3.1681 L 40.1124,-3.2736 L 40.1096,-3.3792 L 40.1064,-3.4848 L 40.1024,-3.5903 L 40.0972,-3.6958 L 40.0828,-3.7985" />
      <path d="M 40.0828,-3.7985 L 40.0713,-3.6938 L 40.0661,-3.5884 L 40.0621,-3.4829 L 40.0589,-3.3774 L 40.0561,-3.2719 L 40.0537,-3.1664 L 40.0515,-3.0609 L 40.0495,-2.9553 L 40.0476,-2.8498 L 40.046,-2.7443 L 40.0444,-2.6387 L 40.043,-2.5332 L 40.0417,-2.4276 L 40.0404,-2.3221 L 40.0393,-2.2166 L 40.0382,-2.111 L 40.0372,-2.0055 L 40.0363,-1.8999 L 40.0355,-1.7944 L 40.0347,-1.6888 L 40.0339,-1.5833 L 40.0332,-1.4777 L 40.0326,-1.3722 L 40.0321,-1.2666 L 40.0315,-1.1611 L 40.0311,-1.0555 L 40.0306,-0.95 L 40.0303,-0.8444 L 40.0299,-0.7389 L 40.0297,-0.6333 L 40.0294,-0.5278 L 40.0292,-0.4222 L 40.0291,-0.3167 L 40.029,-0.2111 L 40.0289,-0.1056 L 40.0289,0.0 L 40.0289,0.1055 L 40.029,0.2111 L 40.0291,0.3166 L 40.0292,0.4222 L 40.0294,0.5277 L 40.0297,0.6333 L 40.0299,0.7388 L 40.0303,0.8444 L 40.0306,0.9499 L 40.0311,1.0555 L 40.0315,1.161 L 40.0321,1.2666 L 40.0326,1.3721 L 40.0332,1.4777 L 40.0339,1.5832 L 40.0347,1.6888 L 40.0355,1.7943 L 40.0363,1.8999 L 40.0372,2.0054 L 40.0382,2.111 L 40.0393,2.2165 L 40.0404,2.3221 L 40.0417,2.4276 L 40.043,2.5331 L 40.0444,2.6387 L 40.046,2.7442 L 40.0476,2.8498 L 40.0495,2.9553 L 40.0515,3.0608 L 40.0537,3.1664 L 40.0561,3.2719 L 40.0589,3.3774 L 40.0621,3.4829 L 40.0661,3.5884 L 40.0713,3.6938 L 40.0828,3.7985" />
      <path d="M 40.0828,3.7985 L 40.0828,3.7986 L 40.0828,3.7987 L 40.0829,3.7987 L 40.0829,3.7988 L 40.0829,3.7989 L 40.083,3.7989 L 40.083,3.799 L 40.0831,3.7991 L 40.0831,3.7992 L 40.0832,3.7992 L 40.0832,3.7993 L 40.0833,3.7993 L 40.0833,3.7994 L 40.0834,3.7995 L 40.0834,3.7996 L 40.0835,3.7996 L 40.0836,3.7997 L 40.0837,3.7998 L 40.0838,3.7998 L 40.0838,3.7999 L 40.0839,3.7999 L 40.084,3.7999 L 40.084,3.8 L 40.0841,3.8 L 40.0842,3.8 L 40.0843,3.8" />
      <path d="M 10.0875,-6.0 L 10.5041,-6.0 L 10.9207,-6.0 L 11.3373,-6.0 L 11.754,-6.0 L 12.1706,-6.0 L 12.5872,-6.0 L 13.0038,-6.0 L 13.4205,-6.0 L 13.8371,-6.0 L 14.2537,-6.0 L 14.6703,-6.0 L 15.0869,-6.0 L 15.5036,-6.0 L 15.9202,-6.0 L 16.3368,-6.0 L 16.7534,-6.0 L 17.1701,-6.0 L 17.5867,-6.0 L 18.0033,-6.0 L 18.4199,-6.0 L 18.8365,-6.0 L 19.2532,-6.0 L 19.6698,-6.0 L 20.0864,-6.0 L 20.503,-6.0 L 20.9197,-6.0 L 21.3363,-6.0 L 21.7529,-6.0 L 22.1695,-6.0 L 22.5861,-6.0 L 23.0028,-6.0 L 23.4194,-6.0 L 23.836,-6.0 L 24.2526,-6.0 L 24.6693,-6.0 L 25.0859,-6.0 L 25.5025,-6.0 L 25.9191,-6.0 L 26.3357,-6.0 L 26.7524,-6.0 L 27.169,-6.0 L 27.5856,-6.0 L 28.0022,-6.0 L 28.4189,-6.0 L 28.8355,-6.0 L 29.2521,-6.0 L 29.6687,-6.0 L 30.0854,-6.0 L 30.502,-6.0 L 30.9186,-6.0 L 31.3352,-6.0 L 31.7518,-6.0 L 32.1685,-6.0 L 32.5851,-6.0 L 33.0017,-6.0 L 33.4183,-6.0 L 33.835,-6.0 L 34.2516,-6.0 L 34.6682,-6.0 L 35.0848,-6.0 L 35.5014,-6.0 L 35.9181,-6.0 L 36.3347,-6.0 L 36.7513,-6.0 L 37.1679,-6.0 L 37.5846,-6.0 L 38.0012,-6.0 L 38.4178,-6.0 L 38.8344,-6.0 L 39.251,-6.0 L 39.6677,-6.0 L 40.0843,-6.0" />
    </g>
    <g fill="none" stroke="rgb(110,110,110)" stroke-width="0.3" id="Hidden" stroke-dasharray="3.6 0.9">
      <path d="M 0.0,6.0 L -0.5229,5.9772 L -1.0419,5.9088 L -1.5529,5.7956 L -2.0521,5.6382 L -2.5357,5.4378 L -3.0,5.1962 L -3.4415,4.9149 L -3.8567,4.5963 L -4.2426,4.2426 L -4.5963,3.8567 L -4.9149,3.4415 L -5.1962,3.0 L -5.4378,2.5357 L -5.6382,2.0521 L -5.7956,1.5529 L -5.9088,1.0419 L -5.9772,0.5229 L -6.0,-0.0 L -5.9772,-0.5229 L -5.9088,-1.0419 L -5.7956,-1.5529 L -5.6382,-2.0521 L -5.4378,-2.5357 L -5.1962,-3.0 L -4.9149,-3.4415 L -4.5963,-3.8567 L -4.2426,-4.2426 L -3.8567,-4.5963 L -3.4415,-4.9149 L -3.0,-5.1962 L -2.5357,-5.4378 L -2.0521,-5.6382 L -1.5529,-5.7956 L -1.0419,-5.9088 L -0.5229,-5.9772 L -0.0,-6.0 L 0.5229,-5.9772 L 1.0419,-5.9088 L 1.5529,-5.7956 L 2.0521,-5.6382 L 2.5357,-5.4378 L 3.0,-5.1962 L 3.4415,-4.9149 L 3.8567,-4.5963 L 4.2426,-4.2426 L 4.5963,-3.8567 L 4.9149,-3.4415 L 5.1962,-3.0 L 5.4378,-2.5357 L 5.6382,-2.0521 L 5.7956,-1.5529 L 5.9088,-1.0419 L 5.9772,-0.5229 L 6.0,0.0 L 5.9772,0.5229 L 5.9088,1.0419 L 5.7956,1.5529 L 5.6382,2.0521 L 5.4378,2.5357 L 5.1962,3.0 L 4.9149,3.4415 L 4.5963,3.8567 L 4.2426,4.2426 L 3.8567,4.5963 L 3.4415,4.9149 L 3.0,5.1962 L 2.5357,5.4378 L 2.0521,5.6382 L 1.5529,5.7956 L 1.0419,5.9088 L 0.5229,5.9772 L 0.0,6.0" />
      <path d="M 3.0,1.7321 L 2.9583,1.7561 L 2.9167,1.7802 L 2.875,1.8042 L 2.8333,1.8283 L 2.7917,1.8523 L 2.75,1.8764 L 2.7083,1.9004 L 2.6667,1.9245 L 2.625,1.9486 L 2.5833,1.9726 L 2.5417,1.9967 L 2.5,2.0207 L 2.4583,2.0448 L 2.4167,2.0688 L 2.375,2.0929 L 2.3333,2.117 L 2.2917,2.141 L 2.25,2.1651 L 2.2083,2.1891 L 2.1667,2.2132 L 2.125,2.2372 L 2.0833,2.2613 L 2.0417,2.2853 L 2.0,2.3094 L 1.9583,2.3335 L 1.9167,2.3575 L 1.875,2.3816 L 1.8333,2.4056 L 1.7917,2.4297 L 1.75,2.4537 L 1.7083,2.4778 L 1.6667,2.5019 L 1.625,2.5259 L 1.5833,2.55 L 1.5417,2.574 L 1.5,2.5981 L 1.4583,2.6221 L 1.4167,2.6462 L 1.375,2.6702 L 1.3333,2.6943 L 1.2917,2.7184 L 1.25,2.7424 L 1.2083,2.7665 L 1.1667,2.7905 L 1.125,2.8146 L 1.0833,2.8386 L 1.0417,2.8627 L 1.0,2.8868 L 0.9583,2.9108 L 0.9167,2.9349 L 0.875,2.9589 L 0.8333,2.983 L 0.7917,3.007 L 0.75,3.0311 L 0.7083,3.0551 L 0.6667,3.0792 L 0.625,3.1033 L 0.5833,3.1273 L 0.5417,3.1514 L 0.5,3.1754 L 0.4583,3.1995 L 0.4167,3.2235 L 0.375,3.2476 L 0.3333,3.2717 L 0.2917,3.2957 L 0.25,3.3198 L 0.2083,3.3438 L 0.1667,3.3679 L 0.125,3.3919 L 0.0833,3.416 L 0.0417,3.44 L 0.0,3.4641" />
      <path d="M 3.0,-1.7321 L 3.0,-1.6839 L 3.0,-1.6358 L 3.0,-1.5877 L 3.0,-1.5396 L 3.0,-1.4915 L 3.0,-1.4434 L 3.0,-1.3953 L 3.0,-1.3472 L 3.0,-1.299 L 3.0,-1.2509 L 3.0,-1.2028 L 3.0,-1.1547 L 3.0,-1.1066 L 3.0,-1.0585 L 3.0,-1.0104 L 3.0,-0.9623 L 3.0,-0.9141 L 3.0,-0.866 L 3.0,-0.8179 L 3.0,-0.7698 L 3.0,-0.7217 L 3.0,-0.6736 L 3.0,-0.6255 L 3.0,-0.5774 L 3.0,-0.5292 L 3.0,-0.4811 L 3.0,-0.433 L 3.0,-0.3849 L 3.0,-0.3368 L 3.0,-0.2887 L 3.0,-0.2406 L 3.0,-0.1925 L 3.0,-0.1443 L 3.0,-0.0962 L 3.0,-0.0481 L 3.0,0.0 L 3.0,0.0481 L 3.0,0.0962 L 3.0,0.1443 L 3.0,0.1925 L 3.0,0.2406 L 3.0,0.2887 L 3.0,0.3368 L 3.0,0.3849 L 3.0,0.433 L 3.0,0.4811 L 3.0,0.5292 L 3.0,0.5774 L 3.0,0.6255 L 3.0,0.6736 L 3.0,0.7217 L 3.0,0.7698 L 3.0,0.8179 L 3.0,0.866 L 3.0,0.9141 L 3.0,0.9623 L 3.0,1.0104 L 3.0,1.0585 L 3.0,1.1066 L 3.0,1.1547 L 3.0,1.2028 L 3.0,1.2509 L 3.0,1.299 L 3.0,1.3472 L 3.0,1.3953 L 3.0,1.4434 L 3.0,1.4915 L 3.0,1.5396 L 3.0,1.5877 L 3.0,1.6358 L 3.0,1.6839 L 3.0,1.7321" />
      <path d="M 0.0,-3.4641 L 0.0417,-3.44 L 0.0833,-3.416 L 0.125,-3.3919 L 0.1667,-3.3679 L 0.2083,-3.3438 L 0.25,-3.3198 L 0.2917,-3.2957 L 0.3333,-3.2717 L 0.375,-3.2476 L 0.4167,-3.2235 L 0.4583,-3.1995 L 0.5,-3.1754 L 0.5417,-3.1514 L 0.5833,-3.1273 L 0.625,-3.1033 L 0.6667,-3.0792 L 0.7083,-3.0551 L 0.75,-3.0311 L 0.7917,-3.007 L 0.8333,-2.983 L 0.875,-2.9589 L 0.9167,-2.9349 L 0.9583,-2.9108 L 1.0,-2.8868 L 1.0417,-2.8627 L 1.0833,-2.8386 L 1.125,-2.8146 L 1.1667,-2.7905 L 1.2083,-2.7665 L 1.25,-2.7424 L 1.2917,-2.7184 L 1.3333,-2.6943 L 1.375,-2.6702 L 1.4167,-2.6462 L 1.4583,-2.6221 L 1.5,-2.5981 L 1.5417,-2.574 L 1.5833,-2.55 L 1.625,-2.5259 L 1.6667,-2.5019 L 1.7083,-2.4778 L 1.75,-2.4537 L 1.7917,-2.4297 L 1.8333,-2.4056 L 1.875,-2.3816 L 1.9167,-2.3575 L 1.9583,-2.3335 L 2.0,-2.3094 L 2.0417,-2.2853 L 2.0833,-2.2613 L 2.125,-2.2372 L 2.1667,-2.2132 L 2.2083,-2.1891 L 2.25,-2.1651 L 2.2917,-2.141 L 2.3333,-2.117 L 2.375,-2.0929 L 2.4167,-2.0688 L 2.4583,-2.0448 L 2.5,-2.0207 L 2.5417,-1.9967 L 2.5833,-1.9726 L 2.625,-1.9486 L 2.6667,-1.9245 L 2.7083,-1.9004 L 2.75,-1.8764 L 2.7917,-1.8523 L 2.8333,-1.8283 L 2.875,-1.8042 L 2.9167,-1.7802 L 2.9583,-1.7561 L 3.0,-1.7321" />
      <path d="M -3.0,-1.7321 L -2.9583,-1.7561 L -2.9167,-1.7802 L -2.875,-1.8042 L -2.8333,-1.8283 L -2.7917,-1.8523 L -2.75,-1.8764 L -2.7083,-1.9004 L -2.6667,-1.9245 L -2.625,-1.9486 L -2.5833,-1.9726 L -2.5417,-1.9967 L -2.5,-2.0207 L -2.4583,-2.0448 L -2.4167,-2.0688 L -2.375,-2.0929 L -2.3333,-2.117 L -2.2917,-2.141 L -2.25,-2.1651 L -2.2083,-2.1891 L -2.1667,-2.2132 L -2.125,-2.2372 L -2.0833,-2.2613 L -2.0417,-2.2853 L -2.0,-2.3094 L -1.9583,-2.3335 L -1.9167,-2.3575 L -1.875,-2.3816 L -1.8333,-2.4056 L -1.7917,-2.4297 L -1.75,-2.4537 L -1.7083,-2.4778 L -1.6667,-2.5019 L -1.625,-2.5259 L -1.5833,-2.55 L -1.5417,-2.574 L -1.5,-2.5981 L -1.4583,-2.6221 L -1.4167,-2.6462 L -1.375,-2.6702 L -1.3333,-2.6943 L -1.2917,-2.7184 L -1.25,-2.7424 L -1.2083,-2.7665 L -1.1667,-2.7905 L -1.125,-2.8146 L -1.0833,-2.8386 L -1.0417,-2.8627 L -1.0,-2.8868 L -0.9583,-2.9108 L -0.9167,-2.9349 L -0.875,-2.9589 L -0.8333,-2.983 L -0.7917,-3.007 L -0.75,-3.0311 L -0.7083,-3.0551 L -0.6667,-3.0792 L -0.625,-3.1033 L -0.5833,-3.1273 L -0.5417,-3.1514 L -0.5,-3.1754 L -0.4583,-3.1995 L -0.4167,-3.2235 L -0.375,-3.2476 L -0.3333,-3.2717 L -0.2917,-3.2957 L -0.25,-3.3198 L -0.2083,-3.3438 L -0.1667,-3.3679 L -0.125,-3.3919 L -0.0833,-3.416 L -0.0417,-3.44 L -0.0,-3.4641" />
      <path d="M -3.0,1.7321 L -3.0,1.6839 L -3.0,1.6358 L -3.0,1.5877 L -3.0,1.5396 L -3.0,1.4915 L -3.0,1.4434 L -3.0,1.3953 L -3.0,1.3472 L -3.0,1.299 L -3.0,1.2509 L -3.0,1.2028 L -3.0,1.1547 L -3.0,1.1066 L -3.0,1.0585 L -3.0,1.0104 L -3.0,0.9623 L -3.0,0.9141 L -3.0,0.866 L -3.0,0.8179 L -3.0,0.7698 L -3.0,0.7217 L -3.0,0.6736 L -3.0,0.6255 L -3.0,0.5774 L -3.0,0.5292 L -3.0,0.4811 L -3.0,0.433 L -3.0,0.3849 L -3.0,0.3368 L -3.0,0.2887 L -3.0,0.2406 L -3.0,0.1925 L -3.0,0.1443 L -3.0,0.0962 L -3.0,0.0481 L -3.0,0.0 L -3.0,-0.0481 L -3.0,-0.0962 L -3.0,-0.1443 L -3.0,-0.1925 L -3.0,-0.2406 L -3.0,-0.2887 L -3.0,-0.3368 L -3.0,-0.3849 L -3.0,-0.433 L -3.0,-0.4811 L -3.0,-0.5292 L -3.0,-0.5774 L -3.0,-0.6255 L -3.0,-0.6736 L -3.0,-0.7217 L -3.0,-0.7698 L -3.0,-0.8179 L -3.0,-0.866 L -3.0,-0.9141 L -3.0,-0.9623 L -3.0,-1.0104 L -3.0,-1.0585 L -3.0,-1.1066 L -3.0,-1.1547 L -3.0,-1.2028 L -3.0,-1.2509 L -3.0,-1.299 L -3.0,-1.3472 L -3.0,-1.3953 L -3.0,-1.4434 L -3.0,-1.4915 L -3.0,-1.5396 L -3.0,-1.5877 L -3.0,-1.6358 L -3.0,-1.6839 L -3.0,-1.7321" />
      <path d="M 0.0,3.4641 L -0.0417,3.44 L -0.0833,3.416 L -0.125,3.3919 L -0.1667,3.3679 L -0.2083,3.3438 L -0.25,3.3198 L -0.2917,3.2957 L -0.3333,3.2717 L -0.375,3.2476 L -0.4167,3.2235 L -0.4583,3.1995 L -0.5,3.1754 L -0.5417,3.1514 L -0.5833,3.1273 L -0.625,3.1033 L -0.6667,3.0792 L -0.7083,3.0551 L -0.75,3.0311 L -0.7917,3.007 L -0.8333,2.983 L -0.875,2.9589 L -0.9167,2.9349 L -0.9583,2.9108 L -1.0,2.8868 L -1.0417,2.8627 L -1.0833,2.8386 L -1.125,2.8146 L -1.1667,2.7905 L -1.2083,2.7665 L -1.25,2.7424 L -1.2917,2.7184 L -1.3333,2.6943 L -1.375,2.6702 L -1.4167,2.6462 L -1.4583,2.6221 L -1.5,2.5981 L -1.5417,2.574 L -1.5833,2.55 L -1.625,2.5259 L -1.6667,2.5019 L -1.7083,2.4778 L -1.75,2.4537 L -1.7917,2.4297 L -1.8333,2.4056 L -1.875,2.3816 L -1.9167,2.3575 L -1.9583,2.3335 L -2.0,2.3094 L -2.0417,2.2853 L -2.0833,2.2613 L -2.125,2.2372 L -2.1667,2.2132 L -2.2083,2.1891 L -2.25,2.1651 L -2.2917,2.141 L -2.3333,2.117 L -2.375,2.0929 L -2.4167,2.0688 L -2.4583,2.0448 L -2.5,2.0207 L -2.5417,1.9967 L -2.5833,1.9726 L -2.625,1.9486 L -2.6667,1.9245 L -2.7083,1.9004 L -2.75,1.8764 L -2.7917,1.8523 L -2.8333,1.8283 L -2.875,1.8042 L -2.9167,1.7802 L -2.9583,1.7561 L -3.0,1.7321" />
      <path d="M 0.0,3.8 L -0.3312,3.7855 L -0.6599,3.7423 L -0.9835,3.6705 L -1.2997,3.5708 L -1.6059,3.444 L -1.9,3.2909 L -2.1796,3.1128 L -2.4426,2.911 L -2.687,2.687 L -2.911,2.4426 L -3.1128,2.1796 L -3.2909,1.9 L -3.444,1.6059 L -3.5708,1.2997 L -3.6705,0.9835 L -3.7423,0.6599 L -3.7855,0.3312 L -3.8,0.0 L -3.7855,-0.3312 L -3.7423,-0.6599 L -3.6705,-0.9835 L -3.5708,-1.2997 L -3.444,-1.6059 L -3.2909,-1.9 L -3.1128,-2.1796 L -2.911,-2.4426 L -2.687,-2.687 L -2.4426,-2.911 L -2.1796,-3.1128 L -1.9,-3.2909 L -1.6059,-3.444 L -1.2997,-3.5708 L -0.9835,-3.6705 L -0.6599,-3.7423 L -0.3312,-3.7855 L -0.0,-3.8 L 0.3312,-3.7855 L 0.6599,-3.7423 L 0.9835,-3.6705 L 1.2997,-3.5708 L 1.6059,-3.444 L 1.9,-3.2909 L 2.1796,-3.1128 L 2.4426,-2.911 L 2.687,-2.687 L 2.911,-2.4426 L 3.1128,-2.1796 L 3.2909,-1.9 L 3.444,-1.6059 L 3.5708,-1.2997 L 3.6705,-0.9835 L 3.7423,-0.6599 L 3.7855,-0.3312 L 3.8,-0.0 L 3.7855,0.3312 L 3.7423,0.6599 L 3.6705,0.9835 L 3.5708,1.2997 L 3.444,1.6059 L 3.2909,1.9 L 3.1128,2.1796 L 2.911,2.4426 L 2.687,2.687 L 2.4426,2.911 L 2.1796,3.1128 L 1.9,3.2909 L 1.6059,3.444 L 1.2997,3.5708 L 0.9835,3.6705 L 0.6599,3.7423 L 0.3312,3.7855 L 0.0,3.8" />
      <path d="M 10.0875,6.0 L 10.1078,5.8358 L 10.1161,5.6692 L 10.1223,5.5026 L 10.1275,5.336 L 10.1319,5.1693 L 10.1358,5.0026 L 10.1393,4.8359 L 10.1424,4.6691 L 10.1453,4.5024 L 10.1479,4.3357 L 10.1504,4.169 L 10.1526,4.0022 L 10.1547,3.8355 L 10.1567,3.6687 L 10.1585,3.502 L 10.1602,3.3353 L 10.1618,3.1685 L 10.1632,3.0018 L 10.1646,2.835 L 10.1658,2.6683 L 10.167,2.5015 L 10.1681,2.3348 L 10.169,2.1681 L 10.1699,2.0013 L 10.1708,1.8346 L 10.1715,1.6678 L 10.1722,1.5011 L 10.1728,1.3343 L 10.1733,1.1676 L 10.1737,1.0008 L 10.1741,0.8341 L 10.1744,0.6673 L 10.1746,0.5006 L 10.1748,0.3338 L 10.1749,0.1671 L 10.175,0.0003 L 10.1749,-0.1664 L 10.1748,-0.3332 L 10.1746,-0.4999 L 10.1744,-0.6667 L 10.1741,-0.8334 L 10.1737,-1.0002 L 10.1733,-1.1669 L 10.1728,-1.3337 L 10.1722,-1.5004 L 10.1715,-1.6672 L 10.1708,-1.8339 L 10.1699,-2.0007 L 10.169,-2.1674 L 10.1681,-2.3342 L 10.167,-2.5009 L 10.1658,-2.6677 L 10.1646,-2.8344 L 10.1632,-3.0011 L 10.1618,-3.1679 L 10.1602,-3.3346 L 10.1585,-3.5014 L 10.1567,-3.6681 L 10.1548,-3.8349 L 10.1527,-4.0016 L 10.1504,-4.1683 L 10.148,-4.3351 L 10.1453,-4.5018 L 10.1424,-4.6685 L 10.1393,-4.8352 L 10.1358,-5.002 L 10.1319,-5.1687 L 10.1275,-5.3354 L 10.1224,-5.502 L 10.1161,-5.6687 L 10.1078,-5.8352 L 10.0875,-6.0" />
      <path d="M 10.0437,1.7321 L 10.0443,1.7561 L 10.045,1.7802 L 10.0456,1.8042 L 10.0462,1.8283 L 10.0468,1.8523 L 10.0474,1.8764 L 10.048,1.9004 L 10.0486,1.9245 L 10.0492,1.9486 L 10.0498,1.9726 L 10.0504,1.9967 L 10.051,2.0207 L 10.0516,2.0448 L 10.0522,2.0688 L 10.0529,2.0929 L 10.0535,2.117 L 10.0541,2.141 L 10.0547,2.1651 L 10.0553,2.1891 L 10.0559,2.2132 L 10.0565,2.2372 L 10.0571,2.2613 L 10.0577,2.2853 L 10.0583,2.3094 L 10.0589,2.3335 L 10.0595,2.3575 L 10.0601,2.3816 L 10.0607,2.4056 L 10.0614,2.4297 L 10.062,2.4537 L 10.0626,2.4778 L 10.0632,2.5019 L 10.0638,2.5259 L 10.0644,2.55 L 10.065,2.574 L 10.0656,2.5981 L 10.0662,2.6221 L 10.0668,2.6462 L 10.0674,2.6702 L 10.068,2.6943 L 10.0686,2.7184 L 10.0693,2.7424 L 10.0699,2.7665 L 10.0705,2.7905 L 10.0711,2.8146 L 10.0717,2.8386 L 10.0723,2.8627 L 10.0729,2.8868 L 10.0735,2.9108 L 10.0741,2.9349 L 10.0747,2.9589 L 10.0753,2.983 L 10.0759,3.007 L 10.0765,3.0311 L 10.0771,3.0551 L 10.0778,3.0792 L 10.0784,3.1033 L 10.079,3.1273 L 10.0796,3.1514 L 10.0802,3.1754 L 10.0808,3.1995 L 10.0814,3.2235 L 10.082,3.2476 L 10.0826,3.2717 L 10.0832,3.2957 L 10.0838,3.3198 L 10.0844,3.3438 L 10.085,3.3679 L 10.0857,3.3919 L 10.0863,3.416 L 10.0869,3.44 L 10.0875,3.4641" />
      <path d="M 10.0437,-1.7321 L 10.0437,-1.6839 L 10.0437,-1.6358 L 10.0437,-1.5877 L 10.0437,-1.5396 L 10.0437,-1.4915 L 10.0437,-1.4434 L 10.0437,-1.3953 L 10.0437,-1.3472 L 10.0437,-1.299 L 10.0437,-1.2509 L 10.0437,-1.2028 L 10.0437,-1.1547 L 10.0437,-1.1066 L 10.0437,-1.0585 L 10.0437,-1.0104 L 10.0437,-0.9623 L 10.0437,-0.9141 L 10.0437,-0.866 L 10.0437,-0.8179 L 10.0437,-0.7698 L 10.0437,-0.7217 L 10.0437,-0.6736 L 10.0437,-0.6255 L 10.0437,-0.5774 L 10.0437,-0.5292 L 10.0437,-0.4811 L 10.0437,-0.433 L 10.0437,-0.3849 L 10.0437,-0.3368 L 10.0437,-0.2887 L 10.0437,-0.2406 L 10.0437,-0.1925 L 10.0437,-0.1443 L 10.0437,-0.0962 L 10.0437,-0.0481 L 10.0437,0.0 L 10.0437,0.0481 L 10.0437,0.0962 L 10.0437,0.1443 L 10.0437,0.1925 L 10.0437,0.2406 L 10.0437,0.2887 L 10.0437,0.3368 L 10.0437,0.3849 L 10.0437,0.433 L 10.0437,0.4811 L 10.0437,0.5292 L 10.0437,0.5774 L 10.0437,0.6255 L 10.0437,0.6736 L 10.0437,0.7217 L 10.0437,0.7698 L 10.0437,0.8179 L 10.0437,0.866 L 10.0437,0.9141 L 10.0437,0.9623 L 10.0437,1.0104 L 10.0437,1.0585 L 10.0437,1.1066 L 10.0437,1.1547 L 10.0437,1.2028 L 10.0437,1.2509 L 10.0437,1.299 L 10.0437,1.3472 L 10.0437,1.3953 L 10.0437,1.4434 L 10.0437,1.4915 L 10.0437,1.5396 L 10.0437,1.5877 L 10.0437,1.6358 L 10.0437,1.6839 L 10.0437,1.7321" />
      <path d="M 10.0875,-3.4641 L 10.0869,-3.44 L 10.0863,-3.416 L 10.0857,-3.3919 L 10.085,-3.3679 L 10.0844,-3.3438 L 10.0838,-3.3198 L 10.0832,-3.2957 L 10.0826,-3.2717 L 10.082,-3.2476 L 10.0814,-3.2235 L 10.0808,-3.1995 L 10.0802,-3.1754 L 10.0796,-3.1514 L 10.079,-3.1273 L 10.0784,-3.1033 L 10.0778,-3.0792 L 10.0771,-3.0551 L 10.0765,-3.0311 L 10.0759,-3.007 L 10.0753,-2.983 L 10.0747,-2.9589 L 10.0741,-2.9349 L 10.0735,-2.9108 L 10.0729,-2.8868 L 10.0723,-2.8627 L 10.0717,-2.8386 L 10.0711,-2.8146 L 10.0705,-2.7905 L 10.0699,-2.7665 L 10.0693,-2.7424 L 10.0686,-2.7184 L 10.068,-2.6943 L 10.0674,-2.6702 L 10.0668,-2.6462 L 10.0662,-2.6221 L 10.0656,-2.5981 L 10.065,-2.574 L 10.0644,-2.55 L 10.0638,-2.5259 L 10.0632,-2.5019 L 10.0626,-2.4778 L 10.062,-2.4537 L 10.0614,-2.4297 L 10.0607,-2.4056 L 10.0601,-2.3816 L 10.0595,-2.3575 L 10.0589,-2.3335 L 10.0583,-2.3094 L 10.0577,-2.2853 L 10.0571,-2.2613 L 10.0565,-2.2372 L 10.0559,-2.2132 L 10.0553,-2.1891 L 10.0547,-2.1651 L 10.0541,-2.141 L 10.0535,-2.117 L 10.0529,-2.0929 L 10.0522,-2.0688 L 10.0516,-2.0448 L 10.051,-2.0207 L 10.0504,-1.9967 L 10.0498,-1.9726 L 10.0492,-1.9486 L 10.0486,-1.9245 L 10.048,-1.9004 L 10.0474,-1.8764 L 10.0468,-1.8523 L 10.0462,-1.8283 L 10.0456,-1.8042 L 10.045,-1.7802 L 10.0443,-1.7561 L 10.0437,-1.7321" />
      <path d="M 10.1312,-1.7321 L 10.1306,-1.7561 L 10.13,-1.7802 L 10.1294,-1.8042 L 10.1288,-1.8283 L 10.1282,-1.8523 L 10.1276,-1.8764 L 10.127,-1.9004 L 10.1264,-1.9245 L 10.1257,-1.9486 L 10.1251,-1.9726 L 10.1245,-1.9967 L 10.1239,-2.0207 L 10.1233,-2.0448 L 10.1227,-2.0688 L 10.1221,-2.0929 L 10.1215,-2.117 L 10.1209,-2.141 L 10.1203,-2.1651 L 10.1197,-2.1891 L 10.1191,-2.2132 L 10.1185,-2.2372 L 10.1179,-2.2613 L 10.1172,-2.2853 L 10.1166,-2.3094 L 10.116,-2.3335 L 10.1154,-2.3575 L 10.1148,-2.3816 L 10.1142,-2.4056 L 10.1136,-2.4297 L 10.113,-2.4537 L 10.1124,-2.4778 L 10.1118,-2.5019 L 10.1112,-2.5259 L 10.1106,-2.55 L 10.11,-2.574 L 10.1093,-2.5981 L 10.1087,-2.6221 L 10.1081,-2.6462 L 10.1075,-2.6702 L 10.1069,-2.6943 L 10.1063,-2.7184 L 10.1057,-2.7424 L 10.1051,-2.7665 L 10.1045,-2.7905 L 10.1039,-2.8146 L 10.1033,-2.8386 L 10.1027,-2.8627 L 10.1021,-2.8868 L 10.1014,-2.9108 L 10.1008,-2.9349 L 10.1002,-2.9589 L 10.0996,-2.983 L 10.099,-3.007 L 10.0984,-3.0311 L 10.0978,-3.0551 L 10.0972,-3.0792 L 10.0966,-3.1033 L 10.096,-3.1273 L 10.0954,-3.1514 L 10.0948,-3.1754 L 10.0942,-3.1995 L 10.0936,-3.2235 L 10.0929,-3.2476 L 10.0923,-3.2717 L 10.0917,-3.2957 L 10.0911,-3.3198 L 10.0905,-3.3438 L 10.0899,-3.3679 L 10.0893,-3.3919 L 10.0887,-3.416 L 10.0881,-3.44 L 10.0875,-3.4641" />
      <path d="M 10.1312,1.7321 L 10.1312,1.6839 L 10.1312,1.6358 L 10.1312,1.5877 L 10.1312,1.5396 L 10.1312,1.4915 L 10.1312,1.4434 L 10.1312,1.3953 L 10.1312,1.3472 L 10.1312,1.299 L 10.1312,1.2509 L 10.1312,1.2028 L 10.1312,1.1547 L 10.1312,1.1066 L 10.1312,1.0585 L 10.1312,1.0104 L 10.1312,0.9623 L 10.1312,0.9141 L 10.1312,0.866 L 10.1312,0.8179 L 10.1312,0.7698 L 10.1312,0.7217 L 10.1312,0.6736 L 10.1312,0.6255 L 10.1312,0.5774 L 10.1312,0.5292 L 10.1312,0.4811 L 10.1312,0.433 L 10.1312,0.3849 L 10.1312,0.3368 L 10.1312,0.2887 L 10.1312,0.2406 L 10.1312,0.1925 L 10.1312,0.1443 L 10.1312,0.0962 L 10.1312,0.0481 L 10.1312,0.0 L 10.1312,-0.0481 L 10.1312,-0.0962 L 10.1312,-0.1443 L 10.1312,-0.1925 L 10.1312,-0.2406 L 10.1312,-0.2887 L 10.1312,-0.3368 L 10.1312,-0.3849 L 10.1312,-0.433 L 10.1312,-0.4811 L 10.1312,-0.5292 L 10.1312,-0.5774 L 10.1312,-0.6255 L 10.1312,-0.6736 L 10.1312,-0.7217 L 10.1312,-0.7698 L 10.1312,-0.8179 L 10.1312,-0.866 L 10.1312,-0.9141 L 10.1312,-0.9623 L 10.1312,-1.0104 L 10.1312,-1.0585 L 10.1312,-1.1066 L 10.1312,-1.1547 L 10.1312,-1.2028 L 10.1312,-1.2509 L 10.1312,-1.299 L 10.1312,-1.3472 L 10.1312,-1.3953 L 10.1312,-1.4434 L 10.1312,-1.4915 L 10.1312,-1.5396 L 10.1312,-1.5877 L 10.1312,-1.6358 L 10.1312,-1.6839 L 10.1312,-1.7321" />
      <path d="M 10.0875,3.4641 L 10.0881,3.44 L 10.0887,3.416 L 10.0893,3.3919 L 10.0899,3.3679 L 10.0905,3.3438 L 10.0911,3.3198 L 10.0917,3.2957 L 10.0923,3.2717 L 10.0929,3.2476 L 10.0936,3.2235 L 10.0942,3.1995 L 10.0948,3.1754 L 10.0954,3.1514 L 10.096,3.1273 L 10.0966,3.1033 L 10.0972,3.0792 L 10.0978,3.0551 L 10.0984,3.0311 L 10.099,3.007 L 10.0996,2.983 L 10.1002,2.9589 L 10.1008,2.9349 L 10.1014,2.9108 L 10.1021,2.8868 L 10.1027,2.8627 L 10.1033,2.8386 L 10.1039,2.8146 L 10.1045,2.7905 L 10.1051,2.7665 L 10.1057,2.7424 L 10.1063,2.7184 L 10.1069,2.6943 L 10.1075,2.6702 L 10.1081,2.6462 L 10.1087,2.6221 L 10.1093,2.5981 L 10.11,2.574 L 10.1106,2.55 L 10.1112,2.5259 L 10.1118,2.5019 L 10.1124,2.4778 L 10.113,2.4537 L 10.1136,2.4297 L 10.1142,2.4056 L 10.1148,2.3816 L 10.1154,2.3575 L 10.116,2.3335 L 10.1166,2.3094 L 10.1172,2.2853 L 10.1179,2.2613 L 10.1185,2.2372 L 10.1191,2.2132 L 10.1197,2.1891 L 10.1203,2.1651 L 10.1209,2.141 L 10.1215,2.117 L 10.1221,2.0929 L 10.1227,2.0688 L 10.1233,2.0448 L 10.1239,2.0207 L 10.1245,1.9967 L 10.1251,1.9726 L 10.1257,1.9486 L 10.1264,1.9245 L 10.127,1.9004 L 10.1276,1.8764 L 10.1282,1.8523 L 10.1288,1.8283 L 10.1294,1.8042 L 10.13,1.7802 L 10.1306,1.7561 L 10.1312,1.7321" />
      <path d="M 14.5433,1.7321 L 14.5439,1.7561 L 14.5445,1.7802 L 14.5451,1.8042 L 14.5457,1.8283 L 14.5463,1.8523 L 14.5469,1.8764 L 14.5475,1.9004 L 14.5481,1.9245 L 14.5487,1.9486 L 14.5493,1.9726 L 14.5499,1.9967 L 14.5505,2.0207 L 14.5512,2.0448 L 14.5518,2.0688 L 14.5524,2.0929 L 14.553,2.117 L 14.5536,2.141 L 14.5542,2.1651 L 14.5548,2.1891 L 14.5554,2.2132 L 14.556,2.2372 L 14.5566,2.2613 L 14.5572,2.2853 L 14.5578,2.3094 L 14.5584,2.3335 L 14.5591,2.3575 L 14.5597,2.3816 L 14.5603,2.4056 L 14.5609,2.4297 L 14.5615,2.4537 L 14.5621,2.4778 L 14.5627,2.5019 L 14.5633,2.5259 L 14.5639,2.55 L 14.5645,2.574 L 14.5651,2.5981 L 14.5657,2.6221 L 14.5663,2.6462 L 14.567,2.6702 L 14.5676,2.6943 L 14.5682,2.7184 L 14.5688,2.7424 L 14.5694,2.7665 L 14.57,2.7905 L 14.5706,2.8146 L 14.5712,2.8386 L 14.5718,2.8627 L 14.5724,2.8868 L 14.573,2.9108 L 14.5736,2.9349 L 14.5742,2.9589 L 14.5748,2.983 L 14.5755,3.007 L 14.5761,3.0311 L 14.5767,3.0551 L 14.5773,3.0792 L 14.5779,3.1033 L 14.5785,3.1273 L 14.5791,3.1514 L 14.5797,3.1754 L 14.5803,3.1995 L 14.5809,3.2235 L 14.5815,3.2476 L 14.5821,3.2717 L 14.5827,3.2957 L 14.5834,3.3198 L 14.584,3.3438 L 14.5846,3.3679 L 14.5852,3.3919 L 14.5858,3.416 L 14.5864,3.44 L 14.587,3.4641" />
      <path d="M 14.587,3.4641 L 14.5245,3.4641 L 14.462,3.4641 L 14.3995,3.4641 L 14.337,3.4641 L 14.2745,3.4641 L 14.212,3.4641 L 14.1495,3.4641 L 14.0871,3.4641 L 14.0246,3.4641 L 13.9621,3.4641 L 13.8996,3.4641 L 13.8371,3.4641 L 13.7746,3.4641 L 13.7121,3.4641 L 13.6496,3.4641 L 13.5871,3.4641 L 13.5246,3.4641 L 13.4621,3.4641 L 13.3996,3.4641 L 13.3371,3.4641 L 13.2746,3.4641 L 13.2121,3.4641 L 13.1497,3.4641 L 13.0872,3.4641 L 13.0247,3.4641 L 12.9622,3.4641 L 12.8997,3.4641 L 12.8372,3.4641 L 12.7747,3.4641 L 12.7122,3.4641 L 12.6497,3.4641 L 12.5872,3.4641 L 12.5247,3.4641 L 12.4622,3.4641 L 12.3997,3.4641 L 12.3372,3.4641 L 12.2747,3.4641 L 12.2123,3.4641 L 12.1498,3.4641 L 12.0873,3.4641 L 12.0248,3.4641 L 11.9623,3.4641 L 11.8998,3.4641 L 11.8373,3.4641 L 11.7748,3.4641 L 11.7123,3.4641 L 11.6498,3.4641 L 11.5873,3.4641 L 11.5248,3.4641 L 11.4623,3.4641 L 11.3998,3.4641 L 11.3373,3.4641 L 11.2749,3.4641 L 11.2124,3.4641 L 11.1499,3.4641 L 11.0874,3.4641 L 11.0249,3.4641 L 10.9624,3.4641 L 10.8999,3.4641 L 10.8374,3.4641 L 10.7749,3.4641 L 10.7124,3.4641 L 10.6499,3.4641 L 10.5874,3.4641 L 10.5249,3.4641 L 10.4624,3.4641 L 10.3999,3.4641 L 10.3374,3.4641 L 10.275,3.4641 L 10.2125,3.4641 L 10.15,3.4641 L 10.0875,3.4641" />
      <path d="M 14.5433,1.7321 L 14.4808,1.7321 L 14.4183,1.7321 L 14.3558,1.7321 L 14.2933,1.7321 L 14.2308,1.7321 L 14.1683,1.7321 L 14.1058,1.7321 L 14.0433,1.7321 L 13.9808,1.7321 L 13.9183,1.7321 L 13.8558,1.7321 L 13.7933,1.7321 L 13.7308,1.7321 L 13.6684,1.7321 L 13.6059,1.7321 L 13.5434,1.7321 L 13.4809,1.7321 L 13.4184,1.7321 L 13.3559,1.7321 L 13.2934,1.7321 L 13.2309,1.7321 L 13.1684,1.7321 L 13.1059,1.7321 L 13.0434,1.7321 L 12.9809,1.7321 L 12.9184,1.7321 L 12.8559,1.7321 L 12.7934,1.7321 L 12.731,1.7321 L 12.6685,1.7321 L 12.606,1.7321 L 12.5435,1.7321 L 12.481,1.7321 L 12.4185,1.7321 L 12.356,1.7321 L 12.2935,1.7321 L 12.231,1.7321 L 12.1685,1.7321 L 12.106,1.7321 L 12.0435,1.7321 L 11.981,1.7321 L 11.9185,1.7321 L 11.856,1.7321 L 11.7936,1.7321 L 11.7311,1.7321 L 11.6686,1.7321 L 11.6061,1.7321 L 11.5436,1.7321 L 11.4811,1.7321 L 11.4186,1.7321 L 11.3561,1.7321 L 11.2936,1.7321 L 11.2311,1.7321 L 11.1686,1.7321 L 11.1061,1.7321 L 11.0436,1.7321 L 10.9811,1.7321 L 10.9186,1.7321 L 10.8562,1.7321 L 10.7937,1.7321 L 10.7312,1.7321 L 10.6687,1.7321 L 10.6062,1.7321 L 10.5437,1.7321 L 10.4812,1.7321 L 10.4187,1.7321 L 10.3562,1.7321 L 10.2937,1.7321 L 10.2312,1.7321 L 10.1687,1.7321 L 10.1062,1.7321 L 10.0437,1.7321" />
      <path d="M 14.5433,-1.7321 L 14.5433,-1.6839 L 14.5433,-1.6358 L 14.5433,-1.5877 L 14.5433,-1.5396 L 14.5433,-1.4915 L 14.5433,-1.4434 L 14.5433,-1.3953 L 14.5433,-1.3472 L 14.5433,-1.299 L 14.5433,-1.2509 L 14.5433,-1.2028 L 14.5433,-1.1547 L 14.5433,-1.1066 L 14.5433,-1.0585 L 14.5433,-1.0104 L 14.5433,-0.9623 L 14.5433,-0.9141 L 14.5433,-0.866 L 14.5433,-0.8179 L 14.5433,-0.7698 L 14.5433,-0.7217 L 14.5433,-0.6736 L 14.5433,-0.6255 L 14.5433,-0.5774 L 14.5433,-0.5292 L 14.5433,-0.4811 L 14.5433,-0.433 L 14.5433,-0.3849 L 14.5433,-0.3368 L 14.5433,-0.2887 L 14.5433,-0.2406 L 14.5433,-0.1925 L 14.5433,-0.1443 L 14.5433,-0.0962 L 14.5433,-0.0481 L 14.5433,0.0 L 14.5433,0.0481 L 14.5433,0.0962 L 14.5433,0.1443 L 14.5433,0.1925 L 14.5433,0.2406 L 14.5433,0.2887 L 14.5433,0.3368 L 14.5433,0.3849 L 14.5433,0.433 L 14.5433,0.4811 L 14.5433,0.5292 L 14.5433,0.5774 L 14.5433,0.6255 L 14.5433,0.6736 L 14.5433,0.7217 L 14.5433,0.7698 L 14.5433,0.8179 L 14.5433,0.866 L 14.5433,0.9141 L 14.5433,0.9623 L 14.5433,1.0104 L 14.5433,1.0585 L 14.5433,1.1066 L 14.5433,1.1547 L 14.5433,1.2028 L 14.5433,1.2509 L 14.5433,1.299 L 14.5433,1.3472 L 14.5433,1.3953 L 14.5433,1.4434 L 14.5433,1.4915 L 14.5433,1.5396 L 14.5433,1.5877 L 14.5433,1.6358 L 14.5433,1.6839 L 14.5433,1.7321" />
      <path d="M 14.5433,-1.7321 L 14.4808,-1.7321 L 14.4183,-1.7321 L 14.3558,-1.7321 L 14.2933,-1.7321 L 14.2308,-1.7321 L 14.1683,-1.7321 L 14.1058,-1.7321 L 14.0433,-1.7321 L 13.9808,-1.7321 L 13.9183,-1.7321 L 13.8558,-1.7321 L 13.7933,-1.7321 L 13.7308,-1.7321 L 13.6684,-1.7321 L 13.6059,-1.7321 L 13.5434,-1.7321 L 13.4809,-1.7321 L 13.4184,-1.7321 L 13.3559,-1.7321 L 13.2934,-1.7321 L 13.2309,-1.7321 L 13.1684,-1.7321 L 13.1059,-1.7321 L 13.0434,-1.7321 L 12.9809,-1.7321 L 12.9184,-1.7321 L 12.8559,-1.7321 L 12.7934,-1.7321 L 12.731,-1.7321 L 12.6685,-1.7321 L 12.606,-1.7321 L 12.5435,-1.7321 L 12.481,-1.7321 L 12.4185,-1.7321 L 12.356,-1.7321 L 12.2935,-1.7321 L 12.231,-1.7321 L 12.1685,-1.7321 L 12.106,-1.7321 L 12.0435,-1.7321 L 11.981,-1.7321 L 11.9185,-1.7321 L 11.856,-1.7321 L 11.7936,-1.7321 L 11.7311,-1.7321 L 11.6686,-1.7321 L 11.6061,-1.7321 L 11.5436,-1.7321 L 11.4811,-1.7321 L 11.4186,-1.7321 L 11.3561,-1.7321 L 11.2936,-1.7321 L 11.2311,-1.7321 L 11.1686,-1.7321 L 11.1061,-1.7321 L 11.0436,-1.7321 L 10.9811,-1.7321 L 10.9186,-1.7321 L 10.8562,-1.7321 L 10.7937,-1.7321 L 10.7312,-1.7321 L 10.6687,-1.7321 L 10.6062,-1.7321 L 10.5437,-1.7321 L 10.4812,-1.7321 L 10.4187,-1.7321 L 10.3562,-1.7321 L 10.2937,-1.7321 L 10.2312,-1.7321 L 10.1687,-1.7321 L 10.1062,-1.7321 L 10.0437,-1.7321" />
      <path d="M 14.587,-3.4641 L 14.5864,-3.44 L 14.5858,-3.416 L 14.5852,-3.3919 L 14.5846,-3.3679 L 14.584,-3.3438 L 14.5834,-3.3198 L 14.5827,-3.2957 L 14.5821,-3.2717 L 14.5815,-3.2476 L 14.5809,-3.2235 L 14.5803,-3.1995 L 14.5797,-3.1754 L 14.5791,-3.1514 L 14.5785,-3.1273 L 14.5779,-3.1033 L 14.5773,-3.0792 L 14.5767,-3.0551 L 14.5761,-3.0311 L 14.5755,-3.007 L 14.5748,-2.983 L 14.5742,-2.9589 L 14.5736,-2.9349 L 14.573,-2.9108 L 14.5724,-2.8868 L 14.5718,-2.8627 L 14.5712,-2.8386 L 14.5706,-2.8146 L 14.57,-2.7905 L 14.5694,-2.7665 L 14.5688,-2.7424 L 14.5682,-2.7184 L 14.5676,-2.6943 L 14.567,-2.6702 L 14.5663,-2.6462 L 14.5657,-2.6221 L 14.5651,-2.5981 L 14.5645,-2.574 L 14.5639,-2.55 L 14.5633,-2.5259 L 14.5627,-2.5019 L 14.5621,-2.4778 L 14.5615,-2.4537 L 14.5609,-2.4297 L 14.5603,-2.4056 L 14.5597,-2.3816 L 14.5591,-2.3575 L 14.5584,-2.3335 L 14.5578,-2.3094 L 14.5572,-2.2853 L 14.5566,-2.2613 L 14.556,-2.2372 L 14.5554,-2.2132 L 14.5548,-2.1891 L 14.5542,-2.1651 L 14.5536,-2.141 L 14.553,-2.117 L 14.5524,-2.0929 L 14.5518,-2.0688 L 14.5512,-2.0448 L 14.5505,-2.0207 L 14.5499,-1.9967 L 14.5493,-1.9726 L 14.5487,-1.9486 L 14.5481,-1.9245 L 14.5475,-1.9004 L 14.5469,-1.8764 L 14.5463,-1.8523 L 14.5457,-1.8283 L 14.5451,-1.8042 L 14.5445,-1.7802 L 14.5439,-1.7561 L 14.5433,-1.7321" />
      <path d="M 14.587,-3.4641 L 14.5245,-3.4641 L 14.462,-3.4641 L 14.3995,-3.4641 L 14.337,-3.4641 L 14.2745,-3.4641 L 14.212,-3.4641 L 14.1495,-3.4641 L 14.0871,-3.4641 L 14.0246,-3.4641 L 13.9621,-3.4641 L 13.8996,-3.4641 L 13.8371,-3.4641 L 13.7746,-3.4641 L 13.7121,-3.4641 L 13.6496,-3.4641 L 13.5871,-3.4641 L 13.5246,-3.4641 L 13.4621,-3.4641 L 13.3996,-3.4641 L 13.3371,-3.4641 L 13.2746,-3.4641 L 13.2121,-3.4641 L 13.1497,-3.4641 L 13.0872,-3.4641 L 13.0247,-3.4641 L 12.9622,-3.4641 L 12.8997,-3.4641 L 12.8372,-3.4641 L 12.7747,-3.4641 L 12.7122,-3.4641 L 12.6497,-3.4641 L 12.5872,-3.4641 L 12.5247,-3.4641 L 12.4622,-3.4641 L 12.3997,-3.4641 L 12.3372,-3.4641 L 12.2747,-3.4641 L 12.2123,-3.4641 L 12.1498,-3.4641 L 12.0873,-3.4641 L 12.0248,-3.4641 L 11.9623,-3.4641 L 11.8998,-3.4641 L 11.8373,-3.4641 L 11.7748,-3.4641 L 11.7123,-3.4641 L 11.6498,-3.4641 L 11.5873,-3.4641 L 11.5248,-3.4641 L 11.4623,-3.4641 L 11.3998,-3.4641 L 11.3373,-3.4641 L 11.2749,-3.4641 L 11.2124,-3.4641 L 11.1499,-3.4641 L 11.0874,-3.4641 L 11.0249,-3.4641 L 10.9624,-3.4641 L 10.8999,-3.4641 L 10.8374,-3.4641 L 10.7749,-3.4641 L 10.7124,-3.4641 L 10.6499,-3.4641 L 10.5874,-3.4641 L 10.5249,-3.4641 L 10.4624,-3.4641 L 10.3999,-3.4641 L 10.3374,-3.4641 L 10.275,-3.4641 L 10.2125,-3.4641 L 10.15,-3.4641 L 10.0875,-3.4641" />
      <path d="M 14.6307,-1.7321 L 14.6301,-1.7561 L 14.6295,-1.7802 L 14.6289,-1.8042 L 14.6283,-1.8283 L 14.6277,-1.8523 L 14.6271,-1.8764 L 14.6265,-1.9004 L 14.6259,-1.9245 L 14.6253,-1.9486 L 14.6247,-1.9726 L 14.6241,-1.9967 L 14.6234,-2.0207 L 14.6228,-2.0448 L 14.6222,-2.0688 L 14.6216,-2.0929 L 14.621,-2.117 L 14.6204,-2.141 L 14.6198,-2.1651 L 14.6192,-2.1891 L 14.6186,-2.2132 L 14.618,-2.2372 L 14.6174,-2.2613 L 14.6168,-2.2853 L 14.6162,-2.3094 L 14.6155,-2.3335 L 14.6149,-2.3575 L 14.6143,-2.3816 L 14.6137,-2.4056 L 14.6131,-2.4297 L 14.6125,-2.4537 L 14.6119,-2.4778 L 14.6113,-2.5019 L 14.6107,-2.5259 L 14.6101,-2.55 L 14.6095,-2.574 L 14.6089,-2.5981 L 14.6083,-2.6221 L 14.6077,-2.6462 L 14.607,-2.6702 L 14.6064,-2.6943 L 14.6058,-2.7184 L 14.6052,-2.7424 L 14.6046,-2.7665 L 14.604,-2.7905 L 14.6034,-2.8146 L 14.6028,-2.8386 L 14.6022,-2.8627 L 14.6016,-2.8868 L 14.601,-2.9108 L 14.6004,-2.9349 L 14.5998,-2.9589 L 14.5991,-2.983 L 14.5985,-3.007 L 14.5979,-3.0311 L 14.5973,-3.0551 L 14.5967,-3.0792 L 14.5961,-3.1033 L 14.5955,-3.1273 L 14.5949,-3.1514 L 14.5943,-3.1754 L 14.5937,-3.1995 L 14.5931,-3.2235 L 14.5925,-3.2476 L 14.5919,-3.2717 L 14.5913,-3.2957 L 14.5906,-3.3198 L 14.59,-3.3438 L 14.5894,-3.3679 L 14.5888,-3.3919 L 14.5882,-3.416 L 14.5876,-3.44 L 14.587,-3.4641" />
      <path d="M 14.6307,-1.7321 L 14.5682,-1.7321 L 14.5057,-1.7321 L 14.4433,-1.7321 L 14.3808,-1.7321 L 14.3183,-1.7321 L 14.2558,-1.7321 L 14.1933,-1.7321 L 14.1308,-1.7321 L 14.0683,-1.7321 L 14.0058,-1.7321 L 13.9433,-1.7321 L 13.8808,-1.7321 L 13.8183,-1.7321 L 13.7558,-1.7321 L 13.6933,-1.7321 L 13.6308,-1.7321 L 13.5683,-1.7321 L 13.5059,-1.7321 L 13.4434,-1.7321 L 13.3809,-1.7321 L 13.3184,-1.7321 L 13.2559,-1.7321 L 13.1934,-1.7321 L 13.1309,-1.7321 L 13.0684,-1.7321 L 13.0059,-1.7321 L 12.9434,-1.7321 L 12.8809,-1.7321 L 12.8184,-1.7321 L 12.7559,-1.7321 L 12.6934,-1.7321 L 12.6309,-1.7321 L 12.5685,-1.7321 L 12.506,-1.7321 L 12.4435,-1.7321 L 12.381,-1.7321 L 12.3185,-1.7321 L 12.256,-1.7321 L 12.1935,-1.7321 L 12.131,-1.7321 L 12.0685,-1.7321 L 12.006,-1.7321 L 11.9435,-1.7321 L 11.881,-1.7321 L 11.8185,-1.7321 L 11.756,-1.7321 L 11.6935,-1.7321 L 11.6311,-1.7321 L 11.5686,-1.7321 L 11.5061,-1.7321 L 11.4436,-1.7321 L 11.3811,-1.7321 L 11.3186,-1.7321 L 11.2561,-1.7321 L 11.1936,-1.7321 L 11.1311,-1.7321 L 11.0686,-1.7321 L 11.0061,-1.7321 L 10.9436,-1.7321 L 10.8811,-1.7321 L 10.8186,-1.7321 L 10.7561,-1.7321 L 10.6937,-1.7321 L 10.6312,-1.7321 L 10.5687,-1.7321 L 10.5062,-1.7321 L 10.4437,-1.7321 L 10.3812,-1.7321 L 10.3187,-1.7321 L 10.2562,-1.7321 L 10.1937,-1.7321 L 10.1312,-1.7321" />
      <path d="M 14.6307,1.7321 L 14.6307,1.6839 L 14.6307,1.6358 L 14.6307,1.5877 L 14.6307,1.5396 L 14.6307,1.4915 L 14.6307,1.4434 L 14.6307,1.3953 L 14.6307,1.3472 L 14.6307,1.299 L 14.6307,1.2509 L 14.6307,1.2028 L 14.6307,1.1547 L 14.6307,1.1066 L 14.6307,1.0585 L 14.6307,1.0104 L 14.6307,0.9623 L 14.6307,0.9141 L 14.6307,0.866 L 14.6307,0.8179 L 14.6307,0.7698 L 14.6307,0.7217 L 14.6307,0.6736 L 14.6307,0.6255 L 14.6307,0.5774 L 14.6307,0.5292 L 14.6307,0.4811 L 14.6307,0.433 L 14.6307,0.3849 L 14.6307,0.3368 L 14.6307,0.2887 L 14.6307,0.2406 L 14.6307,0.1925 L 14.6307,0.1443 L 14.6307,0.0962 L 14.6307,0.0481 L 14.6307,0.0 L 14.6307,-0.0481 L 14.6307,-0.0962 L 14.6307,-0.1443 L 14.6307,-0.1925 L 14.6307,-0.2406 L 14.6307,-0.2887 L 14.6307,-0.3368 L 14.6307,-0.3849 L 14.6307,-0.433 L 14.6307,-0.4811 L 14.6307,-0.5292 L 14.6307,-0.5774 L 14.6307,-0.6255 L 14.6307,-0.6736 L 14.6307,-0.7217 L 14.6307,-0.7698 L 14.6307,-0.8179 L 14.6307,-0.866 L 14.6307,-0.9141 L 14.6307,-0.9623 L 14.6307,-1.0104 L 14.6307,-1.0585 L 14.6307,-1.1066 L 14.6307,-1.1547 L 14.6307,-1.2028 L 14.6307,-1.2509 L 14.6307,-1.299 L 14.6307,-1.3472 L 14.6307,-1.3953 L 14.6307,-1.4434 L 14.6307,-1.4915 L 14.6307,-1.5396 L 14.6307,-1.5877 L 14.6307,-1.6358 L 14.6307,-1.6839 L 14.6307,-1.7321" />
      <path d="M 14.6307,1.7321 L 14.5682,1.7321 L 14.5057,1.7321 L 14.4433,1.7321 L 14.3808,1.7321 L 14.3183,1.7321 L 14.2558,1.7321 L 14.1933,1.7321 L 14.1308,1.7321 L 14.0683,1.7321 L 14.0058,1.7321 L 13.9433,1.7321 L 13.8808,1.7321 L 13.8183,1.7321 L 13.7558,1.7321 L 13.6933,1.7321 L 13.6308,1.7321 L 13.5683,1.7321 L 13.5059,1.7321 L 13.4434,1.7321 L 13.3809,1.7321 L 13.3184,1.7321 L 13.2559,1.7321 L 13.1934,1.7321 L 13.1309,1.7321 L 13.0684,1.7321 L 13.0059,1.7321 L 12.9434,1.7321 L 12.8809,1.7321 L 12.8184,1.7321 L 12.7559,1.7321 L 12.6934,1.7321 L 12.6309,1.7321 L 12.5685,1.7321 L 12.506,1.7321 L 12.4435,1.7321 L 12.381,1.7321 L 12.3185,1.7321 L 12.256,1.7321 L 12.1935,1.7321 L 12.131,1.7321 L 12.0685,1.7321 L 12.006,1.7321 L 11.9435,1.7321 L 11.881,1.7321 L 11.8185,1.7321 L 11.756,1.7321 L 11.6935,1.7321 L 11.6311,1.7321 L 11.5686,1.7321 L 11.5061,1.7321 L 11.4436,1.7321 L 11.3811,1.7321 L 11.3186,1.7321 L 11.2561,1.7321 L 11.1936,1.7321 L 11.1311,1.7321 L 11.0686,1.7321 L 11.0061,1.7321 L 10.9436,1.7321 L 10.8811,1.7321 L 10.8186,1.7321 L 10.7561,1.7321 L 10.6937,1.7321 L 10.6312,1.7321 L 10.5687,1.7321 L 10.5062,1.7321 L 10.4437,1.7321 L 10.3812,1.7321 L 10.3187,1.7321 L 10.2562,1.7321 L 10.1937,1.7321 L 10.1312,1.7321" />
      <path d="M 14.587,3.4641 L 14.5876,3.44 L 14.5882,3.416 L 14.5888,3.3919 L 14.5894,3.3679 L 14.59,3.3438 L 14.5906,3.3198 L 14.5913,3.2957 L 14.5919,3.2717 L 14.5925,3.2476 L 14.5931,3.2235 L 14.5937,3.1995 L 14.5943,3.1754 L 14.5949,3.1514 L 14.5955,3.1273 L 14.5961,3.1033 L 14.5967,3.0792 L 14.5973,3.0551 L 14.5979,3.0311 L 14.5985,3.007 L 14.5991,2.983 L 14.5998,2.9589 L 14.6004,2.9349 L 14.601,2.9108 L 14.6016,2.8868 L 14.6022,2.8627 L 14.6028,2.8386 L 14.6034,2.8146 L 14.604,2.7905 L 14.6046,2.7665 L 14.6052,2.7424 L 14.6058,2.7184 L 14.6064,2.6943 L 14.607,2.6702 L 14.6077,2.6462 L 14.6083,2.6221 L 14.6089,2.5981 L 14.6095,2.574 L 14.6101,2.55 L 14.6107,2.5259 L 14.6113,2.5019 L 14.6119,2.4778 L 14.6125,2.4537 L 14.6131,2.4297 L 14.6137,2.4056 L 14.6143,2.3816 L 14.6149,2.3575 L 14.6155,2.3335 L 14.6162,2.3094 L 14.6168,2.2853 L 14.6174,2.2613 L 14.618,2.2372 L 14.6186,2.2132 L 14.6192,2.1891 L 14.6198,2.1651 L 14.6204,2.141 L 14.621,2.117 L 14.6216,2.0929 L 14.6222,2.0688 L 14.6228,2.0448 L 14.6234,2.0207 L 14.6241,1.9967 L 14.6247,1.9726 L 14.6253,1.9486 L 14.6259,1.9245 L 14.6265,1.9004 L 14.6271,1.8764 L 14.6277,1.8523 L 14.6283,1.8283 L 14.6289,1.8042 L 14.6295,1.7802 L 14.6301,1.7561 L 14.6307,1.7321" />
      <path d="M 38.0845,0.0 L 38.1123,0.0528 L 38.14,0.1055 L 38.1678,0.1583 L 38.1955,0.211 L 38.2233,0.2638 L 38.251,0.3165 L 38.2788,0.3693 L 38.3065,0.4221 L 38.3343,0.4748 L 38.362,0.5276 L 38.3898,0.5803 L 38.4175,0.6331 L 38.4453,0.6858 L 38.473,0.7386 L 38.5008,0.7914 L 38.5286,0.8441 L 38.5563,0.8969 L 38.5841,0.9496 L 38.6118,1.0024 L 38.6396,1.0552 L 38.6673,1.1079 L 38.6951,1.1607 L 38.7228,1.2134 L 38.7506,1.2662 L 38.7783,1.3189 L 38.8061,1.3717 L 38.8338,1.4245 L 38.8616,1.4772 L 38.8894,1.53 L 38.9171,1.5827 L 38.9449,1.6355 L 38.9726,1.6882 L 39.0004,1.741 L 39.0281,1.7938 L 39.0559,1.8465 L 39.0836,1.8993 L 39.1114,1.952 L 39.1391,2.0048 L 39.1669,2.0575 L 39.1946,2.1103 L 39.2224,2.1631 L 39.2501,2.2158 L 39.2779,2.2686 L 39.3057,2.3213 L 39.3334,2.3741 L 39.3612,2.4268 L 39.3889,2.4796 L 39.4167,2.5324 L 39.4444,2.5851 L 39.4722,2.6379 L 39.4999,2.6906 L 39.5277,2.7434 L 39.5554,2.7961 L 39.5832,2.8489 L 39.6109,2.9017 L 39.6387,2.9544 L 39.6665,3.0072 L 39.6942,3.0599 L 39.722,3.1127 L 39.7497,3.1655 L 39.7775,3.2182 L 39.8052,3.271 L 39.833,3.3237 L 39.8607,3.3765 L 39.8885,3.4292 L 39.9162,3.482 L 39.944,3.5348 L 39.9717,3.5875 L 39.9995,3.6403 L 40.0272,3.693 L 40.055,3.7458 L 40.0828,3.7985" />
      <path d="M 38.0845,0.0 L 38.1123,-0.0528 L 38.14,-0.1055 L 38.1678,-0.1583 L 38.1955,-0.211 L 38.2233,-0.2638 L 38.251,-0.3165 L 38.2788,-0.3693 L 38.3065,-0.4221 L 38.3343,-0.4748 L 38.362,-0.5276 L 38.3898,-0.5803 L 38.4175,-0.6331 L 38.4453,-0.6858 L 38.473,-0.7386 L 38.5008,-0.7914 L 38.5286,-0.8441 L 38.5563,-0.8969 L 38.5841,-0.9496 L 38.6118,-1.0024 L 38.6396,-1.0552 L 38.6673,-1.1079 L 38.6951,-1.1607 L 38.7228,-1.2134 L 38.7506,-1.2662 L 38.7783,-1.3189 L 38.8061,-1.3717 L 38.8338,-1.4245 L 38.8616,-1.4772 L 38.8894,-1.53 L 38.9171,-1.5827 L 38.9449,-1.6355 L 38.9726,-1.6882 L 39.0004,-1.741 L 39.0281,-1.7938 L 39.0559,-1.8465 L 39.0836,-1.8993 L 39.1114,-1.952 L 39.1391,-2.0048 L 39.1669,-2.0575 L 39.1946,-2.1103 L 39.2224,-2.1631 L 39.2501,-2.2158 L 39.2779,-2.2686 L 39.3057,-2.3213 L 39.3334,-2.3741 L 39.3612,-2.4268 L 39.3889,-2.4796 L 39.4167,-2.5324 L 39.4444,-2.5851 L 39.4722,-2.6379 L 39.4999,-2.6906 L 39.5277,-2.7434 L 39.5554,-2.7961 L 39.5832,-2.8489 L 39.6109,-2.9017 L 39.6387,-2.9544 L 39.6665,-3.0072 L 39.6942,-3.0599 L 39.722,-3.1127 L 39.7497,-3.1655 L 39.7775,-3.2182 L 39.8052,-3.271 L 39.833,-3.3237 L 39.8607,-3.3765 L 39.8885,-3.4292 L 39.9162,-3.482 L 39.944,-3.5348 L 39.9717,-3.5875 L 39.9995,-3.6403 L 40.0272,-3.693 L 40.055,-3.7458 L 40.0828,-3.7985" />
    </g>
    <g fill="none" stroke="rgb(0,0,0)" stroke-width="0.2" id="Center" stroke-dasharray="6.35 1.27 1.27 1.27">
      <line x1="0.0" y1="0.0" x2="-8.41" y2="0.0" />
      <line x1="0.0" y1="0.0" x2="8.41" y2="0.0" />
      <line x1="0.0" y1="0.0" x2="0.0" y2="-8.41" />
      <line x1="0.0" y1="0.0" x2="0.0" y2="8.41" />
      <line x1="25.0859" y1="0.0" x2="7.59" y2="0.0" />
      <line x1="25.0859" y1="0.0" x2="42.5818" y2="0.0" />
    </g>
  </g>
</svg>