<?xml version='1.0' encoding='utf-8'?>
<svg width="27.4mm" height="22.4mm" viewBox="-11.2 -11.2 27.4 22.4" version="1.1" xmlns="http://www.w3.org/2000/svg">
  <g transform="scale(1,-1)" stroke-linecap="round">
    <g fill="none" stroke="rgb(0,0,0)" stroke-width="0.4" id="Visible">
      <path d="M 9.0,0.0 L 8.9658,0.7844 L 8.8633,1.5628 L 8.6933,2.3294 L 8.4572,3.0782 L 8.1568,3.8036 L 7.7942,4.5 L 7.3724,5.1622 L 6.8944,5.7851 L 6.364,6.364 L 5.7851,6.8944 L 5.1622,7.3724 L 4.5,7.7942 L 3.8036,8.1568 L 3.0782,8.4572 L 2.3294,8.6933 L 1.5628,8.8633 L 0.7844,8.9658 L 0.0,9.0 L -0.7844,8.9658 L -1.5628,8.8633 L -2.3294,8.6933 L -3.0782,8.4572 L -3.8036,8.1568 L -4.5,7.7942 L -5.1622,7.3724 L -5.7851,6.8944 L -6.364,6.364 L -6.8944,5.7851 L -7.3724,5.1622 L -7.7942,4.5 L -8.1568,3.8036 L -8.4572,3.0782 L -8.6933,2.3294 L -8.8633,1.5628 L -8.9658,0.7844 L -9.0,-0.0 L -8.9658,-0.7844 L -8.8633,-1.5628 L -8.6933,-2.3294 L -8.4572,-3.0782 L -8.1568,-3.8036 L -7.7942,-4.5 L -7.3724,-5.1622 L -6.8944,-5.7851 L -6.364,-6.364 L -5.7851,-6.8944 L -5.1622,-7.3724 L -4.5,-7.7942 L -3.8036,-8.1568 L -3.0782,-8.4572 L -2.3294,-8.6933 L -1.5628,-8.8633 L -0.7844,-8.9658 L -0.0,-9.0 L 0.7844,-8.9658 L 1.5628,-8.8633 L 2.3294,-8.6933 L 3.0782,-8.4572 L 3.8036,-8.1568 L 4.5,-7.7942 L 5.1622,-7.3724 L 5.7851,-6.8944 L 6.364,-6.364 L 6.8944,-5.7851 L 7.3724,-5.1622 L 7.7942,-4.5 L 8.1568,-3.8036 L 8.4572,-3.0782 L 8.6933,-2.3294 L 8.8633,-1.5628 L 8.9658,-0.7844 L 9.0,0.0" />
      <path d="M 6.0,0.0 L 5.9772,0.5229 L 5.9088,1.0419 L 5.7956,1.5529 L 5.6382,2.0521 L 5.4378,2.5357 L 5.1962,3.0 L 4.9149,3.4415 L 4.5963,3.8567 L 4.2426,4.2426 L 3.8567,4.5963 L 3.4415,4.9149 L 3.0,5.1962 L 2.5357,5.4378 L 2.0521,5.6382 L 1.5529,5.7956 L 1.0419,5.9088 L 0.5229,5.9772 L 0.0,6.0 L -0.5229,5.9772 L -1.0419,5.9088 L -1.5529,5.7956 L -2.0521,5.6382 L -2.5357,5.4378 L -3.0,5.1962 L -3.4415,4.9149 L -3.8567,4.5963 L -4.2426,4.2426 L -4.5963,3.8567 L -4.9149,3.4415 L -5.1962,3.0 L -5.4378,2.5357 L -5.6382,2.0521 L -5.7956,1.5529 L -5.9088,1.0419 L -5.9772,0.5229 L -6.0,-0.0 L -5.9772,-0.5229 L -5.9088,-1.0419 L -5.7956,-1.5529 L -5.6382,-2.0521 L -5.4378,-2.5357 L -5.1962,-3.0 L -4.9149,-3.4415 L -4.5963,-3.8567 L -4.2426,-4.2426 L -3.8567,-4.5963 L -3.4415,-4.9149 L -3.0,-5.1962 L -2.5357,-5.4378 L -2.0521,-5.6382 L -1.5529,-5.7956 L -1.0419,-5.9088 L -0.5229,-5.9772 L -0.0,-6.0 L 0.5229,-5.9772 L 1.0419,-5.9088 L 1.5529,-5.7956 L 2.0521,-5.6382 L 2.5357,-5.4378 L 3.0,-5.1962 L 3.4415,-4.9149 L 3.8567,-4.5963 L 4.2426,-4.2426 L 4.5963,-3.8567 L 4.9149,-3.4415 L 5.1962,-3.0 L 5.4378,-2.5357 L 5.6382,-2.0521 L 5.7956,-1.5529 L 5.9088,-1.0419 L 5.9772,-0.5229 L 6.0,0.0" />
      <path d="M 13.0,-9.0 L 13.0,-8.75 L 13.0,-8.5 L 13.0,-8.25 L 13.0,-8.0 L 13.0,-7.75 L 13.0,-7.5 L 13.0,-7.25 L 13.0,-7.0 L 13.0,-6.75 L 13.0,-6.5 L 13.0,-6.25 L 13.0,-6.0 L 13.0,-5.75 L 13.0,-5.5 L 13.0,-5.25 L 13.0,-5.0 L 13.0,-4.75 L 13.0,-4.5 L 13.0,-4.25 L 13.0,-4.0 L 13.0,-3.75 L 13.0,-3.5 L 13.0,-3.25 L 13.0,-3.0 L 13.0,-2.75 L 13.0,-2.5 L 13.0,-2.25 L 13.0,-2.0 L 13.0,-1.75 L 13.0,-1.5 L 13.0,-1.25 L 13.0,-1.0 L 13.0,-0.75 L 13.0,-0.5 L 13.0,-0.25 L 13.0,0.0 L 13.0,0.25 L 13.0,0.5 L 13.0,0.75 L 13.0,1.0 L 13.0,1.25 L 13.0,1.5 L 13.0,1.75 L 13.0,2.0 L 13.0,2.25 L 13.0,2.5 L 13.0,2.75 L 13.0,3.0 L 13.0,3.25 L 13.0,3.5 L 13.0,3.75 L 13.0,4.0 L 13.0,4.25 L 13.0,4.5 L 13.0,4.75 L 13.0,5.0 L 13.0,5.25 L 13.0,5.5 L 13.0,5.75 L 13.0,6.0 L 13.0,6.25 L 13.0,6.5 L 13.0,6.75 L 13.0,7.0 L 13.0,7.25 L 13.0,7.5 L 13.0,7.75 L 13.0,8.0 L 13.0,8.25 L 13.0,8.5 L 13.0,8.75 L 13.0,9.0" />
      <path d="M 14.0,9.0 L 13.9861,9.0 L 13.9722,9.0 L 13.9583,9.0 L 13.9444,9.0 L 13.9306,9.0 L 13.9167,9.0 L 13.9028,9.0 L 13.8889,9.0 L 13.875,9.0 L 13.8611,9.0 L 13.8472,9.0 L 13.8333,9.0 L 13.8194,9.0 L 13.8056,9.0 L 13.7917,9.0 L 13.7778,9.0 L 13.7639,9.0 L 13.75,9.0 L 13.7361,9.0 L 13.7222,9.0 L 13.7083,9.0 L 13.6944,9.0 L 13.6806,9.0 L 13.6667,9.0 L 13.6528,9.0 L 13.6389,9.0 L 13.625,9.0 L 13.6111,9.0 L 13.5972,9.0 L 13.5833,9.0 L 13.5694,9.0 L 13.5556,9.0 L 13.5417,9.0 L 13.5278,9.0 L 13.5139,9.0 L 13.5,9.0 L 13.4861,9.0 L 13.4722,9.0 L 13.4583,9.0 L 13.4444,9.0 L 13.4306,9.0 L 13.4167,9.0 L 13.4028,9.0 L 13.3889,9.0 L 13.375,9.0 L 13.3611,9.0 L 13.3472,9.0 L 13.3333,9.0 L 13.3194,9.0 L 13.3056,9.0 L 13.2917,9.0 L 13.2778,9.0 L 13.2639,9.0 L 13.25,9.0 L 13.2361,9.0 L 13.2222,9.0 L 13.2083,9.0 L 13.1944,9.0 L 13.1806,9.0 L 13.1667,9.0 L 13.1528,9.0 L 13.1389,9.0 L 13.125,9.0 L 13.1111,9.0 L 13.0972,9.0 L 13.0833,9.0 L 13.0694,9.0 L 13.0556,9.0 L 13.0417,9.0 L 13.0278,9.0 L 13.0139,9.0 L 13.0,9.0" />
      <path d="M 14.0,-9.0 L 14.0,-8.75 L 14.0,-8.5 L 14.0,-8.25 L 14.0,-8.0 L 14.0,-7.75 L 14.0,-7.5 L 14.0,-7.25 L 14.0,-7.0 L 14.0,-6.75 L 14.0,-6.5 L 14.0,-6.25 L 14.0,-6.0 L 14.0,-5.75 L 14.0,-5.5 L 14.0,-5.25 L 14.0,-5.0 L 14.0,-4.75 L 14.0,-4.5 L 14.0,-4.25 L 14.0,-4.0 L 14.0,-3.75 L 14.0,-3.5 L 14.0,-3.25 L 14.0,-3.0 L 14.0,-2.75 L 14.0,-2.5 L 14.0,-2.25 L 14.0,-2.0 L 14.0,-1.75 L 14.0,-1.5 L 14.0,-1.25 L 14.0,-1.0 L 14.0,-0.75 L 14.0,-0.5 L 14.0,-0.25 L 14.0,0.0 L 14.0,0.25 L 14.0,0.5 L 14.0,0.75 L 14.0,1.0 L 14.0,1.25 L 14.0,1.5 L 14.0,1.75 L 14.0,2.0 L 14.0,2.25 L 14.0,2.5 L 14.0,2.75 L 14.0,3.0 L 14.0,3.25 L 14.0,3.5 L 14.0,3.75 L 14.0,4.0 L 14.0,4.25 L 14.0,4.5 L 14.0,4.75 L 14.0,5.0 L 14.0,5.25 L 14.0,5.5 L 14.0,5.75 L 14.0,6.0 L 14.0,6.25 L 14.0,6.5 L 14.0,6.75 L 14.0,7.0 L 14.0,7.25 L 14.0,7.5 L 14.0,7.75 L 14.0,8.0 L 14.0,8.25 L 14.0,8.5 L 14.0,8.75 L 14.0,9.0" />
      <path d="M 14.0,-9.0 L 13.9861,-9.0 L 13.9722,-9.0 L 13.9583,-9.0 L 13.9444,-9.0 L 13.9306,-9.0 L 13.9167,-9.0 L 13.9028,-9.0 L 13.8889,-9.0 L 13.875,-9.0 L 13.8611,-9.0 L 13.8472,-9.0 L 13.8333,-9.0 L 13.8194,-9.0 L 13.8056,-9.0 L 13.7917,-9.0 L 13.7778,-9.0 L 13.7639,-9.0 L 13.75,-9.0 L 13.7361,-9.0 L 13.7222,-9.0 L 13.7083,-9.0 L 13.6944,-9.0 L 13.6806,-9.0 L 13.6667,-9.0 L 13.6528,-9.0 L 13.6389,-9.0 L 13.625,-9.0 L 13.6111,-9.0 L 13.5972,-9.0 L 13.5833,-9.0 L 13.5694,-9.0 L 13.5556,-9.0 L 13.5417,-9.0 L 13.5278,-9.0 L 13.5139,-9.0 L 13.5,-9.0 L 13.4861,-9.0 L 13.4722,-9.0 L 13.4583,-9.0 L 13.4444,-9.0 L 13.4306,-9.0 L 13.4167,-9.0 L 13.4028,-9.0 L 13.3889,-9.0 L 13.375,-9.0 L 13.3611,-9.0 L 13.3472,-9.0 L 13.3333,-9.0 L 13.3194,-9.0 L 13.3056,-9.0 L 13.2917,-9.0 L 13.2778,-9.0 L 13.2639,-9.0 L 13.25,-9.0 L 13.2361,-9.0 L 13.2222,-9.0 L 13.2083,-9.0 L 13.1944,-9.0 L 13.1806,-9.0 L 13.1667,-9.0 L 13.1528,-9.0 L 13.1389,-9.0 L 13.125,-9.0 L 13.1111,-9.0 L 13.0972,-9.0 L 13.0833,-9.0 L 13.0694,-9.0 L 13.0556,-9.0 L 13.0417,-9.0 L 13.0278,-9.0 L 13.0139,-9.0 L 13.0,-9.0" />
    </g>
    <g fill="none" stroke="rgb(110,110,110)" stroke-width="0.3" id="Hidden" stroke-dasharray="3.6 0.9">
      <path d="M 9.0,0.0 L 8.9658,0.7844 L 8.8633,1.5628 L 8.6933,2.3294 L 8.4572,3.0782 L 8.1568,3.8036 L 7.7942,4.5 L 7.3724,5.1622 L 6.8944,5.7851 L 6.364,6.364 L 5.7851,6.8944 L 5.1622,7.3724 L 4.5,7.7942 L 3.8036,8.1568 L 3.0782,8.4572 L 2.3294,8.6933 L 1.5628,8.8633 L 0.7844,8.9658 L 0.0,9.0 L -0.7844,8.9658 L -1.5628,8.8633 L -2.3294,8.6933 L -3.0782,8.4572 L -3.8036,8.1568 L -4.5,7.7942 L -5.1622,7.3724 L -5.7851,6.8944 L -6.364,6.364 L -6.8944,5.7851 L -7.3724,5.1622 L -7.7942,4.5 L -8.1568,3.8036 L -8.4572,3.0782 L -8.6933,2.3294 L -8.8633,1.5628 L -8.9658,0.7844 L -9.0,-0.0 L -8.9658,-0.7844 L -8.8633,-1.5628 L -8.6933,-2.3294 L -8.4572,-3.0782 L -8.1568,-3.8036 L -7.7942,-4.5 L -7.3724,-5.1622 L -6.8944,-5.7851 L -6.364,-6.364 L -5.7851,-6.8944 L -5.1622,-7.3724 L -4.5,-7.7942 L -3.8036,-8.1568 L -3.0782,-8.4572 L -2.3294,-8.6933 L -1.5628,-8.8633 L -0.7844,-8.9658 L -0.0,-9.0 L 0.7844,-8.9658 L 1.5628,-8.8633 L 2.3294,-8.6933 L 3.0782,-8.4572 L 3.8036,-8.1568 L 4.5,-7.7942 L 5.1622,-7.3724 L 5.7851,-6.8944 L 6.364,-6.364 L 6.8944,-5.7851 L 7.3724,-5.1622 L 7.7942,-4.5 L 8.1568,-3.8036 L 8.4572,-3.0782 L 8.6933,-2.3294 L 8.8633,-1.5628 L 8.9658,-0.7844 L 9.0,0.0" />
      <path d="M 6.0,0.0 L 5.9772,0.5229 L 5.9088,1.0419 L 5.7956,1.5529 L 5.6382,2.0521 L 5.4378,2.5357 L 5.1962,3.0 L 4.9149,3.4415 L 4.5963,3.8567 L 4.2426,4.2426 L 3.8567,4.5963 L 3.4415,4.9149 L 3.0,5.1962 L 2.5357,5.4378 L 2.0521,5.6382 L 1.5529,5.7956 L 1.0419,5.9088 L 0.5229,5.9772 L 0.0,6.0 L -0.5229,5.9772 L -1.0419,5.9088 L -1.5529,5.7956 L -2.0521,5.6382 L -2.5357,5.4378 L -3.0,5.1962 L -3.4415,4.9149 L -3.8567,4.5963 L -4.2426,4.2426 L -4.5963,3.8567 L -4.9149,3.4415 L -5.1962,3.0 L -5.4378,2.5357 L -5.6382,2.0521 L -5.7956,1.5529 L -5.9088,1.0419 L -5.9772,0.5229 L -6.0,-0.0 L -5.9772,-0.5229 L -5.9088,-1.0419 L -5.7956,-1.5529 L -5.6382,-2.0521 L -5.4378,-2.5357 L -5.1962,-3.0 L -4.9149,-3.4415 L -4.5963,-3.8567 L -4.2426,-4.2426 L -3.8567,-4.5963 L -3.4415,-4.9149 L -3.0,-5.1962 L -2.5357,-5.4378 L -2.0521,-5.6382 L -1.5529,-5.7956 L -1.0419,-5.9088 L -0.5229,-5.9772 L -0.0,-6.0 L 0.5229,-5.9772 L 1.0419,-5.9088 L 1.5529,-5.7956 L 2.0521,-5.6382 L 2.5357,-5.4378 L 3.0,-5.1962 L 3.4415,-4.9149 L 3.8567,-4.5963 L 4.2426,-4.2426 L 4.5963,-3.8567 L 4.9149,-3.4415 L 5.1962,-3.0 L 5.4378,-2.5357 L 5.6382,-2.0521 L 5.7956,-1.5529 L 5.9088,-1.0419 L 5.9772,-0.5229 L 6.0,0.0" />
      <path d="M 13.0,9.0 L 13.0,8.75 L 13.0,8.5 L 13.0,8.25 L 13.0,8.0 L 13.0,7.75 L 13.0,7.5 L 13.0,7.25 L 13.0,7.0 L 13.0,6.75 L 13.0,6.5 L 13.0,6.25 L 13.0,6.0 L 13.0,5.75 L 13.0,5.5 L 13.0,5.25 L 13.0,5.0 L 13.0,4.75 L 13.0,4.5 L 13.0,4.25 L 13.0,4.0 L 13.0,3.75 L 13.0,3.5 L 13.0,3.25 L 13.0,3.0 L 13.0,2.75 L 13.0,2.5 L 13.0,2.25 L 13.0,2.0 L 13.0,1.75 L 13.0,1.5 L 13.0,1.25 L 13.0,1.0 L 13.0,0.75 L 13.0,0.5 L 13.0,0.25 L 13.0,0.0 L 13.0,-0.25 L 13.0,-0.5 L 13.0,-0.75 L 13.0,-1.0 L 13.0,-1.25 L 13.0,-1.5 L 13.0,-1.75 L 13.0,-2.0 L 13.0,-2.25 L 13.0,-2.5 L 13.0,-2.75 L 13.0,-3.0 L 13.0,-3.25 L 13.0,-3.5 L 13.0,-3.75 L 13.0,-4.0 L 13.0,-4.25 L 13.0,-4.5 L 13.0,-4.75 L 13.0,-5.0 L 13.0,-5.25 L 13.0,-5.5 L 13.0,-5.75 L 13.0,-6.0 L 13.0,-6.25 L 13.0,-6.5 L 13.0,-6.75 L 13.0,-7.0 L 13.0,-7.25 L 13.0,-7.5 L 13.0,-7.75 L 13.0,-8.0 L 13.0,-8.25 L 13.0,-8.5 L 13.0,-8.75 L 13.0,-9.0" />
      <path d="M 14.0,9.0 L 14.0,8.75 L 14.0,8.5 L 14.0,8.25 L 14.0,8.0 L 14.0,7.75 L 14.0,7.5 L 14.0,7.25 L 14.0,7.0 L 14.0,6.75 L 14.0,6.5 L 14.0,6.25 L 14.0,6.0 L 14.0,5.75 L 14.0,5.5 L 14.0,5.25 L 14.0,5.0 L 14.0,4.75 L 14.0,4.5 L 14.0,4.25 L 14.0,4.0 L 14.0,3.75 L 14.0,3.5 L 14.0,3.25 L 14.0,3.0 L 14.0,2.75 L 14.0,2.5 L 14.0,2.25 L 14.0,2.0 L 14.0,1.75 L 14.0,1.5 L 14.0,1.25 L 14.0,1.0 L 14.0,0.75 L 14.0,0.5 L 14.0,0.25 L 14.0,0.0 L 14.0,-0.25 L 14.0,-0.5 L 14.0,-0.75 L 14.0,-1.0 L 14.0,-1.25 L 14.0,-1.5 L 14.0,-1.75 L 14.0,-2.0 L 14.0,-2.25 L 14.0,-2.5 L 14.0,-2.75 L 14.0,-3.0 L 14.0,-3.25 L 14.0,-3.5 L 14.0,-3.75 L 14.0,-4.0 L 14.0,-4.25 L 14.0,-4.5 L 14.0,-4.75 L 14.0,-5.0 L 14.0,-5.25 L 14.0,-5.5 L 14.0,-5.75 L 14.0,-6.0 L 14.0,-6.25 L 14.0,-6.5 L 14.0,-6.75 L 14.0,-7.0 L 14.0,-7.25 L 14.0,-7.5 L 14.0,-7.75 L 14.0,-8.0 L 14.0,-8.25 L 14.0,-8.5 L 14.0,-8.75 L 14.0,-9.0" />
      <path d="M 13.0,6.0 L 13.0,5.8333 L 13.0,5.6667 L 13.0,5.5 L 13.0,5.3333 L 13.0,5.1667 L 13.0,5.0 L 13.0,4.8333 L 13.0,4.6667 L 13.0,4.5 L 13.0,4.3333 L 13.0,4.1667 L 13.0,4.0 L 13.0,3.8333 L 13.0,3.6667 L 13.0,3.5 L 13.0,3.3333 L 13.0,3.1667 L 13.0,3.0 L 13.0,2.8333 L 13.0,2.6667 L 13.0,2.5 L 13.0,2.3333 L 13.0,2.1667 L 13.0,2.0 L 13.0,1.8333 L 13.0,1.6667 L 13.0,1.5 L 13.0,1.3333 L 13.0,1.1667 L 13.0,1.0 L 13.0,0.8333 L 13.0,0.6667 L 13.0,0.5 L 13.0,0.3333 L 13.0,0.1667 L 13.0,0.0 L 13.0,-0.1667 L 13.0,-0.3333 L 13.0,-0.5 L 13.0,-0.6667 L 13.0,-0.8333 L 13.0,-1.0 L 13.0,-1.1667 L 13.0,-1.3333 L 13.0,-1.5 L 13.0,-1.6667 L 13.0,-1.8333 L 13.0,-2.0 L 13.0,-2.1667 L 13.0,-2.3333 L 13.0,-2.5 L 13.0,-2.6667 L 13.0,-2.8333 L 13.0,-3.0 L 13.0,-3.1667 L 13.0,-3.3333 L 13.0,-3.5 L 13.0,-3.6667 L 13.0,-3.8333 L 13.0,-4.0 L 13.0,-4.1667 L 13.0,-4.3333 L 13.0,-4.5 L 13.0,-4.6667 L 13.0,-4.8333 L 13.0,-5.0 L 13.0,-5.1667 L 13.0,-5.3333 L 13.0,-5.5 L 13.0,-5.6667 L 13.0,-5.8333 L 13.0,-6.0" />
      <path d="M 13.0,-6.0 L 13.0,-5.8333 L 13.0,-5.6667 L 13.0,-5.5 L 13.0,-5.3333 L 13.0,-5.1667 L 13.0,-5.0 L 13.0,-4.8333 L 13.0,-4.6667 L 13.0,-4.5 L 13.0,-4.3333 L 13.0,-4.1667 L 13.0,-4.0 L 13.0,-3.8333 L 13.0,-3.6667 L 13.0,-3.5 L 13.0,-3.3333 L 13.0,-3.1667 L 13.0,-3.0 L 13.0,-2.8333 L 13.0,-2.6667 L 13.0,-2.5 L 13.0,-2.3333 L 13.0,-2.1667 L 13.0,-2.0 L 13.0,-1.8333 L 13.0,-1.6667 L 13.0,-1.5 L 13.0,-1.3333 L 13.0,-1.1667 L 13.0,-1.0 L 13.0,-0.8333 L 13.0,-0.6667 L 13.0,-0.5 L 13.0,-0.3333 L 13.0,-0.1667 L 13.0,0.0 L 13.0,0.1667 L 13.0,0.3333 L 13.0,0.5 L 13.0,0.6667 L 13.0,0.8333 L 13.0,1.0 L 13.0,1.1667 L 13.0,1.3333 L 13.0,1.5 L 13.0,1.6667 L 13.0,1.8333 L 13.0,2.0 L 13.0,2.1667 L 13.0,2.3333 L 13.0,2.5 L 13.0,2.6667 L 13.0,2.8333 L 13.0,3.0 L 13.0,3.1667 L 13.0,3.3333 L 13.0,3.5 L 13.0,3.6667 L 13.0,3.8333 L 13.0,4.0 L 13.0,4.1667 L 13.0,4.3333 L 13.0,4.5 L 13.0,4.6667 L 13.0,4.8333 L 13.0,5.0 L 13.0,5.1667 L 13.0,5.3333 L 13.0,5.5 L 13.0,5.6667 L 13.0,5.8333 L 13.0,6.0" />
      <path d="M 14.0,6.0 L 14.0,5.8333 L 14.0,5.6667 L 14.0,5.5 L 14.0,5.3333 L 14.0,5.1667 L 14.0,5.0 L 14.0,4.8333 L 14.0,4.6667 L 14.0,4.5 L 14.0,4.3333 L 14.0,4.1667 L 14.0,4.0 L 14.0,3.8333 L 14.0,3.6667 L 14.0,3.5 L 14.0,3.3333 L 14.0,3.1667 L 14.0,3.0 L 14.0,2.8333 L 14.0,2.6667 L 14.0,2.5 L 14.0,2.3333 L 14.0,2.1667 L 14.0,2.0 L 14.0,1.8333 L 14.0,1.6667 L 14.0,1.5 L 14.0,1.3333 L 14.0,1.1667 L 14.0,1.0 L 14.0,0.8333 L 14.0,0.6667 L 14.0,0.5 L 14.0,0.3333 L 14.0,0.1667 L 14.0,0.0 L 14.0,-0.1667 L 14.0,-0.3333 L 14.0,-0.5 L 14.0,-0.6667 L 14.0,-0.8333 L 14.0,-1.0 L 14.0,-1.1667 L 14.0,-1.3333 L 14.0,-1.5 L 14.0,-1.6667 L 14.0,-1.8333 L 14.0,-2.0 L 14.0,-2.1667 L 14.0,-2.3333 L 14.0,-2.5 L 14.0,-2.6667 L 14.0,-2.8333 L 14.0,-3.0 L 14.0,-3.1667 L 14.0,-3.3333 L 14.0,-3.5 L 14.0,-3.6667 L 14.0,-3.8333 L 14.0,-4.0 L 14.0,-4.1667 L 14.0,-4.3333 L 14.0,-4.5 L 14.0,-4.6667 L 14.0,-4.8333 L 14.0,-5.0 L 14.0,-5.1667 L 14.0,-5.3333 L 14.0,-5.5 L 14.0,-5.6667 L 14.0,-5.8333 L 14.0,-6.0" />
      <path d="M 14.0,-6.0 L 14.0,-5.8333 L 14.0,-5.6667 L 14.0,-5.5 L 14.0,-5.3333 L 14.0,-5.1667 L 14.0,-5.0 L 14.0,-4.8333 L 14.0,-4.6667 L 14.0,-4.5 L 14.0,-4.3333 L 14.0,-4.1667 L 14.0,-4.0 L 14.0,-3.8333 L 14.0,-3.6667 L 14.0,-3.5 L 14.0,-3.3333 L 14.0,-3.1667 L 14.0,-3.0 L 14.0,-2.8333 L 14.0,-2.6667 L 14.0,-2.5 L 14.0,-2.3333 L 14.0,-2.1667 L 14.0,-2.0 L 14.0,-1.8333 L 14.0,-1.6667 L 14.0,-1.5 L 14.0,-1.3333 L 14.0,-1.1667 L 14.0,-1.0 L 14.0,-0.8333 L 14.0,-0.6667 L 14.0,-0.5 L 14.0,-0.3333 L 14.0,-0.1667 L 14.0,0.0 L 14.0,0.1667 L 14.0,0.3333 L 14.0,0.5 L 14.0,0.6667 L 14.0,0.8333 L 14.0,1.0 L 14.0,1.1667 L 14.0,1.3333 L 14.0,1.5 L 14.0,1.6667 L 14.0,1.8333 L 14.0,2.0 L 14.0,2.1667 L 14.0,2.3333 L 14.0,2.5 L 14.0,2.6667 L 14.0,2.8333 L 14.0,3.0 L 14.0,3.1667 L 14.0,3.3333 L 14.0,3.5 L 14.0,3.6667 L 14.0,3.8333 L 14.0,4.0 L 14.0,4.1667 L 14.0,4.3333 L 14.0,4.5 L 14.0,4.6667 L 14.0,4.8333 L 14.0,5.0 L 14.0,5.1667 L 14.0,5.3333 L 14.0,5.5 L 14.0,5.6667 L 14.0,5.8333 L 14.0,6.0" />
      <path d="M 14.0,6.0 L 13.9861,6.0 L 13.9722,6.0 L 13.9583,6.0 L 13.9444,6.0 L 13.9306,6.0 L 13.9167,6.0 L 13.9028,6.0 L 13.8889,6.0 L 13.875,6.0 L 13.8611,6.0 L 13.8472,6.0 L 13.8333,6.0 L 13.8194,6.0 L 13.8056,6.0 L 13.7917,6.0 L 13.7778,6.0 L 13.7639,6.0 L 13.75,6.0 L 13.7361,6.0 L 13.7222,6.0 L 13.7083,6.0 L 13.6944,6.0 L 13.6806,6.0 L 13.6667,6.0 L 13.6528,6.0 L 13.6389,6.0 L 13.625,6.0 L 13.6111,6.0 L 13.5972,6.0 L 13.5833,6.0 L 13.5694,6.0 L 13.5556,6.0 L 13.5417,6.0 L 13.5278,6.0 L 13.5139,6.0 L 13.5,6.0 L 13.4861,6.0 L 13.4722,6.0 L 13.4583,6.0 L 13.4444,6.0 L 13.4306,6.0 L 13.4167,6.0 L 13.4028,6.0 L 13.3889,6.0 L 13.375,6.0 L 13.3611,6.0 L 13.3472,6.0 L 13.3333,6.0 L 13.3194,6.0 L 13.3056,6.0 L 13.2917,6.0 L 13.2778,6.0 L 13.2639,6.0 L 13.25,6.0 L 13.2361,6.0 L 13.2222,6.0 L 13.2083,6.0 L 13.1944,6.0 L 13.1806,6.0 L 13.1667,6.0 L 13.1528,6.0 L 13.1389,6.0 L 13.125,6.0 L 13.1111,6.0 L 13.0972,6.0 L 13.0833,6.0 L 13.0694,6.0 L 13.0556,6.0 L 13.0417,6.0 L 13.0278,6.0 L 13.0139,6.0 L 13.0,6.0" />
      <path d="M 14.0,-6.0 L 13.9861,-6.0 L 13.9722,-6.0 L 13.9583,-6.0 L 13.9444,-6.0 L 13.9306,-6.0 L 13.9167,-6.0 L 13.9028,-6.0 L 13.8889,-6.0 L 13.875,-6.0 L 13.8611,-6.0 L 13.8472,-6.0 L 13.8333,-6.0 L 13.8194,-6.0 L 13.8056,-6.0 L 13.7917,-6.0 L 13.7778,-6.0 L 13.7639,-6.0 L 13.75,-6.0 L 13.7361,-6.0 L 13.7222,-6.0 L 13.7083,-6.0 L 13.6944,-6.0 L 13.6806,-6.0 L 13.6667,-6.0 L 13.6528,-6.0 L 13.6389,-6.0 L 13.625,-6.0 L 13.6111,-6.0 L 13.5972,-6.0 L 13.5833,-6.0 L 13.5694,-6.0 L 13.5556,-6.0 L 13.5417,-6.0 L 13.5278,-6.0 L 13.5139,-6.0 L 13.5,-6.0 L 13.4861,-6.0 L 13.4722,-6.0 L 13.4583,-6.0 L 13.4444,-6.0 L 13.4306,-6.0 L 13.4167,-6.0 L 13.4028,-6.0 L 13.3889,-6.0 L 13.375,-6.0 L 13.3611,-6.0 L 13.3472,-6.0 L 13.3333,-6.0 L 13.3194,-6.0 L 13.3056,-6.0 L 13.2917,-6.0 L 13.2778,-6.0 L 13.2639,-6.0 L 13.25,-6.0 L 13.2361,-6.0 L 13.2222,-6.0 L 13.2083,-6.0 L 13.1944,-6.0 L 13.1806,-6.0 L 13.1667,-6.0 L 13.1528,-6.0 L 13.1389,-6.0 L 13.125,-6.0 L 13.1111,-6.0 L 13.0972,-6.0 L 13.0833,-6.0 L 13.0694,-6.0 L 13.0556,-6.0 L 13.0417,-6.0 L 13.0278,-6.0 L 13.0139,-6.0 L 13.0,-6.0" />
    </g>
  </g>
</svg>