<?xml version='1.0' encoding='utf-8'?>
<svg width="52.9779mm" height="37.7564mm" viewBox="-20.5629 -17.2 52.9779 37.7564" version="1.1" xmlns="http://www.w3.org/2000/svg">
  <g transform="scale(1,-1)" stroke-linecap="round">
    <g fill="none" stroke="rgb(0,0,0)" stroke-width="0.4" id="Visible">
      <path d="M 11.1369,-6.0 L 11.1369,-5.9702 L 11.1369,-5.9404 L 11.1369,-5.9106 L 11.1369,-5.8807 L 11.1369,-5.8509 L 11.1369,-5.8211 L 11.1369,-5.7913 L 11.1369,-5.7615 L 11.1369,-5.7317 L 11.1369,-5.7018 L 11.1369,-5.672 L 11.1369,-5.6422 L 11.1369,-5.6124 L 11.1369,-5.5826 L 11.1369,-5.5528 L 11.1369,-5.5229 L 11.1369,-5.4931 L 11.1369,-5.4633 L 11.1369,-5.4335 L 11.1369,-5.4037 L 11.1369,-5.3739 L 11.1369,-5.344 L 11.1369,-5.3142 L 11.1369,-5.2844 L 11.1369,-5.2546 L 11.1369,-5.2248 L 11.1369,-5.195 L 11.1369,-5.1651 L 11.1369,-5.1353 L 11.1369,-5.1055 L 11.1369,-5.0757 L 11.1369,-5.0459 L 11.1369,-5.0161 L 11.1369,-4.9863 L 11.1369,-4.9564 L 11.1369,-4.9266 L 11.1369,-4.8968 L 11.1369,-4.867 L 11.1369,-4.8372 L 11.1369,-4.8074 L 11.1369,-4.7775 L 11.1369,-4.7477 L 11.1369,-4.7179 L 11.1369,-4.6881 L 11.1369,-4.6583 L 11.1369,-4.6285 L 11.1369,-4.5986 L 11.1369,-4.5688 L 11.1369,-4.539 L 11.1369,-4.5092 L 11.1369,-4.4794 L 11.1369,-4.4496 L 11.1369,-4.4197 L 11.1369,-4.3899 L 11.1369,-4.3601 L 11.1369,-4.3303 L 11.1369,-4.3005 L 11.1369,-4.2707 L 11.1369,-4.2409 L 11.1369,-4.211 L 11.1369,-4.1812 L 11.1369,-4.1514 L 11.1369,-4.1216 L 11.1369,-4.0918 L 11.1369,-4.062 L 11.1369,-4.0321 L 11.1369,-4.0023 L 11.1369,-3.9725 L 11.1369,-3.9427 L 11.1369,-3.9129 L 11.1369,-3.8831 L 11.1369,-3.8532" />
      <path d="M 11.1369,3.8532 L 11.1369,3.8831 L 11.1369,3.9129 L 11.1369,3.9427 L 11.1369,3.9725 L 11.1369,4.0023 L 11.1369,4.0321 L 11.1369,4.062 L 11.1369,4.0918 L 11.1369,4.1216 L 11.1369,4.1514 L 11.1369,4.1812 L 11.1369,4.211 L 11.1369,4.2409 L 11.1369,4.2707 L 11.1369,4.3005 L 11.1369,4.3303 L 11.1369,4.3601 L 11.1369,4.3899 L 11.1369,4.4197 L 11.1369,4.4496 L 11.1369,4.4794 L 11.1369,4.5092 L 11.1369,4.539 L 11.1369,4.5688 L 11.1369,4.5986 L 11.1369,4.6285 L 11.1369,4.6583 L 11.1369,4.6881 L 11.1369,4.7179 L 11.1369,4.7477 L 11.1369,4.7775 L 11.1369,4.8074 L 11.1369,4.8372 L 11.1369,4.867 L 11.1369,4.8968 L 11.1369,4.9266 L 11.1369,4.9564 L 11.1369,4.9863 L 11.1369,5.0161 L 11.1369,5.0459 L 11.1369,5.0757 L 11.1369,5.1055 L 11.1369,5.1353 L 11.1369,5.1651 L 11.1369,5.195 L 11.1369,5.2248 L 11.1369,5.2546 L 11.1369,5.2844 L 11.1369,5.3142 L 11.1369,5.344 L 11.1369,5.3739 L 11.1369,5.4037 L 11.1369,5.4335 L 11.1369,5.4633 L 11.1369,5.4931 L 11.1369,5.5229 L 11.1369,5.5528 L 11.1369,5.5826 L 11.1369,5.6124 L 11.1369,5.6422 L 11.1369,5.672 L 11.1369,5.7018 L 11.1369,5.7317 L 11.1369,5.7615 L 11.1369,5.7913 L 11.1369,5.8211 L 11.1369,5.8509 L 11.1369,5.8807 L 11.1369,5.9106 L 11.1369,5.9404 L 11.1369,5.9702 L 11.1369,6.0" />
      <path d="M -3.363,15.0 L -4.0173,14.9857 L -4.6703,14.9429 L -5.3209,14.8717 L -5.9677,14.7721 L -6.6096,14.6444 L -7.2453,14.4889 L -7.8736,14.3058 L -8.4933,14.0954 L -9.1032,13.8582 L -9.7023,13.5946 L -10.2892,13.3052 L -10.863,12.9904 L -11.4225,12.6509 L -11.9666,12.2873 L -12.4944,11.9003 L -13.0048,11.4907 L -13.4968,11.0591 L -13.9696,10.6066 L -14.4221,10.1338 L -14.8536,9.6418 L -15.2633,9.1314 L -15.6502,8.6036 L -16.0138,8.0595 L -16.3533,7.5 L -16.6681,6.9262 L -16.9576,6.3393 L -17.2211,5.7402 L -17.4583,5.1303 L -17.6687,4.5106 L -17.8518,3.8823 L -18.0074,3.2466 L -18.135,2.6047 L -18.2346,1.9579 L -18.3058,1.3073 L -18.3486,0.6543 L -18.3629,-0.0 L -18.3486,-0.6543 L -18.3058,-1.3073 L -18.2346,-1.9579 L -18.135,-2.6047 L -18.0074,-3.2466 L -17.8518,-3.8823 L -17.6687,-4.5106 L -17.4583,-5.1303 L -17.2211,-5.7402 L -16.9576,-6.3393 L -16.6681,-6.9262 L -16.3533,-7.5 L -16.0138,-8.0595 L -15.6502,-8.6036 L -15.2633,-9.1314 L -14.8536,-9.6418 L -14.4221,-10.1338 L -13.9696,-10.6066 L -13.4968,-11.0591 L -13.0048,-11.4907 L -12.4944,-11.9003 L -11.9666,-12.2873 L -11.4225,-12.6509 L -10.863,-12.9904 L -10.2892,-13.3052 L -9.7023,-13.5946 L -9.1032,-13.8582 L -8.4933,-14.0954 L -7.8736,-14.3058 L -7.2453,-14.4889 L -6.6096,-14.6444 L -5.9677,-14.7721 L -5.3209,-14.8717 L -4.6703,-14.9429 L -4.0173,-14.9857 L -3.363,-15.0" />
      <path d="M 3.137,0.0 L 3.1354,0.1418 L 3.1308,0.2835 L 3.123,0.425 L 3.1122,0.5664 L 3.0983,0.7075 L 3.0814,0.8483 L 3.0613,0.9886 L 3.0382,1.1285 L 3.0121,1.2679 L 2.9829,1.4066 L 2.9507,1.5447 L 2.9156,1.682 L 2.8774,1.8186 L 2.8362,1.9543 L 2.7921,2.089 L 2.7451,2.2228 L 2.6952,2.3555 L 2.6423,2.487 L 2.5867,2.6174 L 2.5282,2.7466 L 2.4669,2.8744 L 2.4028,3.0009 L 2.3359,3.1259 L 2.2664,3.2495 L 2.1942,3.3715 L 2.1193,3.4919 L 2.0419,3.6107 L 1.9618,3.7277 L 1.8793,3.843 L 1.7942,3.9564 L 1.7067,4.0679 L 1.6167,4.1775 L 1.5244,4.2852 L 1.4298,4.3907 L 1.3329,4.4942 L 1.2338,4.5956 L 1.1324,4.6948 L 1.029,4.7917 L 0.9234,4.8864 L 0.8158,4.9787 L 0.7062,5.0686 L 0.5947,5.1562 L 0.4813,5.2413 L 0.3661,5.3239 L 0.2491,5.404 L 0.1303,5.4815 L 0.0099,5.5564 L -0.112,5.6286 L -0.2356,5.6982 L -0.3606,5.765 L -0.4871,5.8291 L -0.6149,5.8905 L -0.744,5.949 L -0.8744,6.0047 L -1.006,6.0576 L -1.1387,6.1076 L -1.2724,6.1546 L -1.4071,6.1988 L -1.5428,6.2399 L -1.6793,6.2782 L -1.8167,6.3134 L -1.9547,6.3456 L -2.0935,6.3748 L -2.2328,6.401 L -2.3727,6.4241 L -2.5131,6.4442 L -2.6538,6.4612 L -2.7949,6.4751 L -2.9363,6.486 L -3.0778,6.4937 L -3.2196,6.4984 L -3.3613,6.5" />
      <path d="M -3.3613,-6.5 L -3.2196,-6.4984 L -3.0778,-6.4937 L -2.9363,-6.486 L -2.7949,-6.4751 L -2.6538,-6.4612 L -2.5131,-6.4442 L -2.3727,-6.4241 L -2.2328,-6.401 L -2.0935,-6.3748 L -1.9547,-6.3456 L -1.8167,-6.3134 L -1.6793,-6.2782 L -1.5428,-6.2399 L -1.4071,-6.1988 L -1.2724,-6.1546 L -1.1387,-6.1076 L -1.006,-6.0576 L -0.8744,-6.0047 L -0.744,-5.949 L -0.6149,-5.8905 L -0.4871,-5.8291 L -0.3606,-5.765 L -0.2356,-5.6982 L -0.112,-5.6286 L 0.0099,-5.5564 L 0.1303,-5.4815 L 0.2491,-5.404 L 0.3661,-5.3239 L 0.4813,-5.2413 L 0.5947,-5.1562 L 0.7062,-5.0686 L 0.8158,-4.9787 L 0.9234,-4.8864 L 1.029,-4.7917 L 1.1324,-4.6948 L 1.2338,-4.5956 L 1.3329,-4.4942 L 1.4298,-4.3907 L 1.5244,-4.2852 L 1.6167,-4.1775 L 1.7067,-4.0679 L 1.7942,-3.9564 L 1.8793,-3.843 L 1.9618,-3.7277 L 2.0419,-3.6107 L 2.1193,-3.4919 L 2.1942,-3.3715 L 2.2664,-3.2495 L 2.3359,-3.1259 L 2.4028,-3.0009 L 2.4669,-2.8744 L 2.5282,-2.7466 L 2.5867,-2.6174 L 2.6423,-2.487 L 2.6952,-2.3555 L 2.7451,-2.2228 L 2.7921,-2.089 L 2.8362,-1.9543 L 2.8774,-1.8186 L 2.9156,-1.682 L 2.9507,-1.5447 L 2.9829,-1.4066 L 3.0121,-1.2679 L 3.0382,-1.1285 L 3.0613,-0.9886 L 3.0814,-0.8483 L 3.0983,-0.7075 L 3.1122,-0.5664 L 3.123,-0.425 L 3.1308,-0.2835 L 3.1354,-0.1418 L 3.137,-0.0" />
      <path d="M 11.184,-6.0 L 11.184,-5.8333 L 11.184,-5.6667 L 11.184,-5.5 L 11.184,-5.3333 L 11.184,-5.1667 L 11.184,-5.0 L 11.184,-4.8333 L 11.184,-4.6667 L 11.184,-4.5 L 11.184,-4.3333 L 11.184,-4.1667 L 11.184,-4.0 L 11.184,-3.8333 L 11.184,-3.6667 L 11.184,-3.5 L 11.184,-3.3333 L 11.184,-3.1667 L 11.184,-3.0 L 11.184,-2.8333 L 11.184,-2.6667 L 11.184,-2.5 L 11.184,-2.3333 L 11.184,-2.1667 L 11.184,-2.0 L 11.184,-1.8333 L 11.184,-1.6667 L 11.184,-1.5 L 11.184,-1.3333 L 11.184,-1.1667 L 11.184,-1.0 L 11.184,-0.8333 L 11.184,-0.6667 L 11.184,-0.5 L 11.184,-0.3333 L 11.184,-0.1667 L 11.184,0.0 L 11.184,0.1667 L 11.184,0.3333 L 11.184,0.5 L 11.184,0.6667 L 11.184,0.8333 L 11.184,1.0 L 11.184,1.1667 L 11.184,1.3333 L 11.184,1.5 L 11.184,1.6667 L 11.184,1.8333 L 11.184,2.0 L 11.184,2.1667 L 11.184,2.3333 L 11.184,2.5 L 11.184,2.6667 L 11.184,2.8333 L 11.184,3.0 L 11.184,3.1667 L 11.184,3.3333 L 11.184,3.5 L 11.184,3.6667 L 11.184,3.8333 L 11.184,4.0 L 11.184,4.1667 L 11.184,4.3333 L 11.184,4.5 L 11.184,4.6667 L 11.184,4.8333 L 11.184,5.0 L 11.184,5.1667 L 11.184,5.3333 L 11.184,5.5 L 11.184,5.6667 L 11.184,5.8333 L 11.184,6.0" />
      <path d="M 11.1369,6.0 L 11.1376,6.0 L 11.1382,6.0 L 11.1389,6.0 L 11.1395,6.0 L 11.1402,6.0 L 11.1408,6.0 L 11.1415,6.0 L 11.1421,6.0 L 11.1428,6.0 L 11.1434,6.0 L 11.1441,6.0 L 11.1448,6.0 L 11.1454,6.0 L 11.1461,6.0 L 11.1467,6.0 L 11.1474,6.0 L 11.148,6.0 L 11.1487,6.0 L 11.1493,6.0 L 11.15,6.0 L 11.1506,6.0 L 11.1513,6.0 L 11.1519,6.0 L 11.1526,6.0 L 11.1533,6.0 L 11.1539,6.0 L 11.1546,6.0 L 11.1552,6.0 L 11.1559,6.0 L 11.1565,6.0 L 11.1572,6.0 L 11.1578,6.0 L 11.1585,6.0 L 11.1591,6.0 L 11.1598,6.0 L 11.1604,6.0 L 11.1611,6.0 L 11.1617,6.0 L 11.1624,6.0 L 11.1631,6.0 L 11.1637,6.0 L 11.1644,6.0 L 11.165,6.0 L 11.1657,6.0 L 11.1663,6.0 L 11.167,6.0 L 11.1676,6.0 L 11.1683,6.0 L 11.1689,6.0 L 11.1696,6.0 L 11.1702,6.0 L 11.1709,6.0 L 11.1716,6.0 L 11.1722,6.0 L 11.1729,6.0 L 11.1735,6.0 L 11.1742,6.0 L 11.1748,6.0 L 11.1755,6.0 L 11.1761,6.0 L 11.1768,6.0 L 11.1774,6.0 L 11.1781,6.0 L 11.1787,6.0 L 11.1794,6.0 L 11.1801,6.0 L 11.1807,6.0 L 11.1814,6.0 L 11.182,6.0 L 11.1827,6.0 L 11.1833,6.0 L 11.184,6.0" />
      <path d="M 11.1403,-3.8406 L 11.1403,-3.7339 L 11.1403,-3.6272 L 11.1403,-3.5205 L 11.1403,-3.4138 L 11.1403,-3.3072 L 11.1403,-3.2005 L 11.1403,-3.0938 L 11.1403,-2.9871 L 11.1403,-2.8804 L 11.1403,-2.7737 L 11.1403,-2.6671 L 11.1403,-2.5604 L 11.1403,-2.4537 L 11.1403,-2.347 L 11.1403,-2.2403 L 11.1403,-2.1337 L 11.1403,-2.027 L 11.1403,-1.9203 L 11.1403,-1.8136 L 11.1403,-1.7069 L 11.1403,-1.6002 L 11.1403,-1.4936 L 11.1403,-1.3869 L 11.1403,-1.2802 L 11.1403,-1.1735 L 11.1403,-1.0668 L 11.1403,-0.9601 L 11.1403,-0.8535 L 11.1403,-0.7468 L 11.1403,-0.6401 L 11.1403,-0.5334 L 11.1403,-0.4267 L 11.1403,-0.32 L 11.1403,-0.2134 L 11.1403,-0.1067 L 11.1403,0.0 L 11.1403,0.1067 L 11.1403,0.2134 L 11.1403,0.32 L 11.1403,0.4267 L 11.1403,0.5334 L 11.1403,0.6401 L 11.1403,0.7468 L 11.1403,0.8535 L 11.1403,0.9601 L 11.1403,1.0668 L 11.1403,1.1735 L 11.1403,1.2802 L 11.1403,1.3869 L 11.1403,1.4936 L 11.1403,1.6002 L 11.1403,1.7069 L 11.1403,1.8136 L 11.1403,1.9203 L 11.1403,2.027 L 11.1403,2.1337 L 11.1403,2.2403 L 11.1403,2.347 L 11.1403,2.4537 L 11.1403,2.5604 L 11.1403,2.6671 L 11.1403,2.7737 L 11.1403,2.8804 L 11.1403,2.9871 L 11.1403,3.0938 L 11.1403,3.2005 L 11.1403,3.3072 L 11.1403,3.4138 L 11.1403,3.5205 L 11.1403,3.6272 L 11.1403,3.7339 L 11.1403,3.8406" />
      <path d="M 11.1369,-6.0 L 11.1376,-6.0 L 11.1382,-6.0 L 11.1389,-6.0 L 11.1395,-6.0 L 11.1402,-6.0 L 11.1408,-6.0 L 11.1415,-6.0 L 11.1421,-6.0 L 11.1428,-6.0 L 11.1434,-6.0 L 11.1441,-6.0 L 11.1448,-6.0 L 11.1454,-6.0 L 11.1461,-6.0 L 11.1467,-6.0 L 11.1474,-6.0 L 11.148,-6.0 L 11.1487,-6.0 L 11.1493,-6.0 L 11.15,-6.0 L 11.1506,-6.0 L 11.1513,-6.0 L 11.1519,-6.0 L 11.1526,-6.0 L 11.1533,-6.0 L 11.1539,-6.0 L 11.1546,-6.0 L 11.1552,-6.0 L 11.1559,-6.0 L 11.1565,-6.0 L 11.1572,-6.0 L 11.1578,-6.0 L 11.1585,-6.0 L 11.1591,-6.0 L 11.1598,-6.0 L 11.1604,-6.0 L 11.1611,-6.0 L 11.1617,-6.0 L 11.1624,-6.0 L 11.1631,-6.0 L 11.1637,-6.0 L 11.1644,-6.0 L 11.165,-6.0 L 11.1657,-6.0 L 11.1663,-6.0 L 11.167,-6.0 L 11.1676,-6.0 L 11.1683,-6.0 L 11.1689,-6.0 L 11.1696,-6.0 L 11.1702,-6.0 L 11.1709,-6.0 L 11.1716,-6.0 L 11.1722,-6.0 L 11.1729,-6.0 L 11.1735,-6.0 L 11.1742,-6.0 L 11.1748,-6.0 L 11.1755,-6.0 L 11.1761,-6.0 L 11.1768,-6.0 L 11.1774,-6.0 L 11.1781,-6.0 L 11.1787,-6.0 L 11.1794,-6.0 L 11.1801,-6.0 L 11.1807,-6.0 L 11.1814,-6.0 L 11.182,-6.0 L 11.1827,-6.0 L 11.1833,-6.0 L 11.184,-6.0" />
      <path d="M 11.184,6.0 L 11.1979,6.0 L 11.2117,6.0 L 11.2256,6.0 L 11.2395,6.0 L 11.2534,6.0 L 11.2673,6.0 L 11.2812,6.0 L 11.2951,6.0 L 11.309,6.0 L 11.3229,6.0 L 11.3367,6.0 L 11.3506,6.0 L 11.3645,6.0 L 11.3784,6.0 L 11.3923,6.0 L 11.4062,6.0 L 11.4201,6.0 L 11.434,6.0 L 11.4479,6.0 L 11.4617,6.0 L 11.4756,6.0 L 11.4895,6.0 L 11.5034,6.0 L 11.5173,6.0 L 11.5312,6.0 L 11.5451,6.0 L 11.559,6.0 L 11.5729,6.0 L 11.5867,6.0 L 11.6006,6.0 L 11.6145,6.0 L 11.6284,6.0 L 11.6423,6.0 L 11.6562,6.0 L 11.6701,6.0 L 11.684,6.0 L 11.6979,6.0 L 11.7117,6.0 L 11.7256,6.0 L 11.7395,6.0 L 11.7534,6.0 L 11.7673,6.0 L 11.7812,6.0 L 11.7951,6.0 L 11.809,6.0 L 11.8229,6.0 L 11.8367,6.0 L 11.8506,6.0 L 11.8645,6.0 L 11.8784,6.0 L 11.8923,6.0 L 11.9062,6.0 L 11.9201,6.0 L 11.934,6.0 L 11.9479,6.0 L 11.9617,6.0 L 11.9756,6.0 L 11.9895,6.0 L 12.0034,6.0 L 12.0173,6.0 L 12.0312,6.0 L 12.0451,6.0 L 12.059,6.0 L 12.0729,6.0 L 12.0867,6.0 L 12.1006,6.0 L 12.1145,6.0 L 12.1284,6.0 L 12.1423,6.0 L 12.1562,6.0 L 12.1701,6.0 L 12.184,6.0" />
      <path d="M 12.184,-6.0 L 12.184,-5.8333 L 12.184,-5.6667 L 12.184,-5.5 L 12.184,-5.3333 L 12.184,-5.1667 L 12.184,-5.0 L 12.184,-4.8333 L 12.184,-4.6667 L 12.184,-4.5 L 12.184,-4.3333 L 12.184,-4.1667 L 12.184,-4.0 L 12.184,-3.8333 L 12.184,-3.6667 L 12.184,-3.5 L 12.184,-3.3333 L 12.184,-3.1667 L 12.184,-3.0 L 12.184,-2.8333 L 12.184,-2.6667 L 12.184,-2.5 L 12.184,-2.3333 L 12.184,-2.1667 L 12.184,-2.0 L 12.184,-1.8333 L 12.184,-1.6667 L 12.184,-1.5 L 12.184,-1.3333 L 12.184,-1.1667 L 12.184,-1.0 L 12.184,-0.8333 L 12.184,-0.6667 L 12.184,-0.5 L 12.184,-0.3333 L 12.184,-0.1667 L 12.184,0.0 L 12.184,0.1667 L 12.184,0.3333 L 12.184,0.5 L 12.184,0.6667 L 12.184,0.8333 L 12.184,1.0 L 12.184,1.1667 L 12.184,1.3333 L 12.184,1.5 L 12.184,1.6667 L 12.184,1.8333 L 12.184,2.0 L 12.184,2.1667 L 12.184,2.3333 L 12.184,2.5 L 12.184,2.6667 L 12.184,2.8333 L 12.184,3.0 L 12.184,3.1667 L 12.184,3.3333 L 12.184,3.5 L 12.184,3.6667 L 12.184,3.8333 L 12.184,4.0 L 12.184,4.1667 L 12.184,4.3333 L 12.184,4.5 L 12.184,4.6667 L 12.184,4.8333 L 12.184,5.0 L 12.184,5.1667 L 12.184,5.3333 L 12.184,5.5 L 12.184,5.6667 L 12.184,5.8333 L 12.184,6.0" />
      <path d="M 11.184,-6.0 L 11.1979,-6.0 L 11.2117,-6.0 L 11.2256,-6.0 L 11.2395,-6.0 L 11.2534,-6.0 L 11.2673,-6.0 L 11.2812,-6.0 L 11.2951,-6.0 L 11.309,-6.0 L 11.3229,-6.0 L 11.3367,-6.0 L 11.3506,-6.0 L 11.3645,-6.0 L 11.3784,-6.0 L 11.3923,-6.0 L 11.4062,-6.0 L 11.4201,-6.0 L 11.434,-6.0 L 11.4479,-6.0 L 11.4617,-6.0 L 11.4756,-6.0 L 11.4895,-6.0 L 11.5034,-6.0 L 11.5173,-6.0 L 11.5312,-6.0 L 11.5451,-6.0 L 11.559,-6.0 L 11.5729,-6.0 L 11.5867,-6.0 L 11.6006,-6.0 L 11.6145,-6.0 L 11.6284,-6.0 L 11.6423,-6.0 L 11.6562,-6.0 L 11.6701,-6.0 L 11.684,-6.0 L 11.6979,-6.0 L 11.7117,-6.0 L 11.7256,-6.0 L 11.7395,-6.0 L 11.7534,-6.0 L 11.7673,-6.0 L 11.7812,-6.0 L 11.7951,-6.0 L 11.809,-6.0 L 11.8229,-6.0 L 11.8367,-6.0 L 11.8506,-6.0 L 11.8645,-6.0 L 11.8784,-6.0 L 11.8923,-6.0 L 11.9062,-6.0 L 11.9201,-6.0 L 11.934,-6.0 L 11.9479,-6.0 L 11.9617,-6.0 L 11.9756,-6.0 L 11.9895,-6.0 L 12.0034,-6.0 L 12.0173,-6.0 L 12.0312,-6.0 L 12.0451,-6.0 L 12.059,-6.0 L 12.0729,-6.0 L 12.0867,-6.0 L 12.1006,-6.0 L 12.1145,-6.0 L 12.1284,-6.0 L 12.1423,-6.0 L 12.1562,-6.0 L 12.1701,-6.0 L 12.184,-6.0" />
      <path d="M 11.1403,3.8406 L 11.0679,4.1041 L 10.9907,4.3663 L 10.9088,4.627 L 10.8221,4.8862 L 10.7307,5.1438 L 10.6347,5.3997 L 10.534,5.6537 L 10.4287,5.9059 L 10.3188,6.1562 L 10.2044,6.4044 L 10.0854,6.6504 L 9.962,6.8943 L 9.8342,7.1359 L 9.702,7.3751 L 9.5655,7.6118 L 9.4246,7.846 L 9.2796,8.0777 L 9.1303,8.3066 L 8.9769,8.5328 L 8.8194,8.7561 L 8.6578,8.9766 L 8.4923,9.194 L 8.3228,9.4085 L 8.1494,9.6197 L 7.9723,9.8278 L 7.7913,10.0327 L 7.6067,10.2342 L 7.4184,10.4323 L 7.2266,10.6269 L 7.0312,10.818 L 6.8324,11.0055 L 6.6302,11.1894 L 6.4246,11.3696 L 6.2159,11.5459 L 6.0039,11.7185 L 5.7889,11.8871 L 5.5708,12.0518 L 5.3497,12.2126 L 5.1257,12.3692 L 4.899,12.5218 L 4.6695,12.6701 L 4.4373,12.8143 L 4.2025,12.9543 L 3.9653,13.0899 L 3.7256,13.2212 L 3.4835,13.3481 L 3.2392,13.4705 L 2.9926,13.5885 L 2.744,13.702 L 2.4934,13.8109 L 2.2408,13.9153 L 1.9863,14.015 L 1.7301,14.1101 L 1.4721,14.2005 L 1.2126,14.2862 L 0.9516,14.3671 L 0.6891,14.4432 L 0.4253,14.5146 L 0.1602,14.5812 L -0.106,14.6429 L -0.3734,14.6997 L -0.6417,14.7517 L -0.9109,14.7988 L -1.1809,14.8409 L -1.4517,14.8782 L -1.7231,14.9105 L -1.995,14.9378 L -2.2674,14.9602 L -2.5401,14.9776 L -2.8132,14.99 L -3.0864,14.9975 L -3.3596,15.0" />
      <path d="M -3.3596,15.0 L -4.0139,14.9857 L -4.667,14.9429 L -5.3175,14.8717 L -5.9644,14.7721 L -6.6062,14.6444 L -7.2419,14.4889 L -7.8702,14.3058 L -8.4899,14.0954 L -9.0999,13.8582 L -9.6989,13.5946 L -10.2858,13.3052 L -10.8596,12.9904 L -11.4191,12.6509 L -11.9633,12.2873 L -12.491,11.9003 L -13.0014,11.4907 L -13.4935,11.0591 L -13.9662,10.6066 L -14.4188,10.1338 L -14.8503,9.6418 L -15.2599,9.1314 L -15.6469,8.6036 L -16.0105,8.0595 L -16.35,7.5 L -16.6647,6.9262 L -16.9542,6.3393 L -17.2178,5.7402 L -17.455,5.1303 L -17.6653,4.5106 L -17.8485,3.8823 L -18.004,3.2466 L -18.1317,2.6047 L -18.2312,1.9579 L -18.3025,1.3073 L -18.3453,0.6543 L -18.3596,-0.0 L -18.3453,-0.6543 L -18.3025,-1.3073 L -18.2312,-1.9579 L -18.1317,-2.6047 L -18.004,-3.2466 L -17.8485,-3.8823 L -17.6653,-4.5106 L -17.455,-5.1303 L -17.2178,-5.7402 L -16.9542,-6.3393 L -16.6647,-6.9262 L -16.35,-7.5 L -16.0105,-8.0595 L -15.6469,-8.6036 L -15.2599,-9.1314 L -14.8503,-9.6418 L -14.4188,-10.1338 L -13.9662,-10.6066 L -13.4935,-11.0591 L -13.0014,-11.4907 L -12.491,-11.9003 L -11.9633,-12.2873 L -11.4191,-12.6509 L -10.8596,-12.9904 L -10.2858,-13.3052 L -9.6989,-13.5946 L -9.0999,-13.8582 L -8.4899,-14.0954 L -7.8702,-14.3058 L -7.2419,-14.4889 L -6.6062,-14.6444 L -5.9644,-14.7721 L -5.3175,-14.8717 L -4.667,-14.9429 L -4.0139,-14.9857 L -3.3596,-15.0" />
      <path d="M -3.3596,-15.0 L -3.0864,-14.9975 L -2.8132,-14.99 L -2.5401,-14.9776 L -2.2674,-14.9602 L -1.995,-14.9378 L -1.7231,-14.9105 L -1.4517,-14.8782 L -1.1809,-14.8409 L -0.9109,-14.7988 L -0.6417,-14.7517 L -0.3734,-14.6997 L -0.106,-14.6429 L 0.1602,-14.5812 L 0.4253,-14.5146 L 0.6891,-14.4432 L 0.9516,-14.3671 L 1.2126,-14.2862 L 1.4721,-14.2005 L 1.7301,-14.1101 L 1.9863,-14.015 L 2.2408,-13.9153 L 2.4934,-13.8109 L 2.744,-13.702 L 2.9926,-13.5885 L 3.2392,-13.4705 L 3.4835,-13.3481 L 3.7256,-13.2212 L 3.9653,-13.0899 L 4.2025,-12.9543 L 4.4373,-12.8143 L 4.6695,-12.6701 L 4.899,-12.5218 L 5.1257,-12.3692 L 5.3497,-12.2126 L 5.5708,-12.0518 L 5.7889,-11.8871 L 6.0039,-11.7185 L 6.2159,-11.5459 L 6.4246,-11.3696 L 6.6302,-11.1894 L 6.8324,-11.0055 L 7.0312,-10.818 L 7.2266,-10.6269 L 7.4184,-10.4323 L 7.6067,-10.2342 L 7.7913,-10.0327 L 7.9723,-9.8278 L 8.1494,-9.6197 L 8.3228,-9.4085 L 8.4923,-9.194 L 8.6578,-8.9766 L 8.8194,-8.7561 L 8.9769,-8.5328 L 9.1303,-8.3066 L 9.2796,-8.0777 L 9.4246,-7.846 L 9.5655,-7.6118 L 9.702,-7.3751 L 9.8342,-7.1359 L 9.962,-6.8943 L 10.0854,-6.6504 L 10.2044,-6.4044 L 10.3188,-6.1562 L 10.4287,-5.9059 L 10.534,-5.6537 L 10.6347,-5.3997 L 10.7307,-5.1438 L 10.8221,-4.8862 L 10.9088,-4.627 L 10.9907,-4.3663 L 11.0679,-4.1041 L 11.1403,-3.8406" />
      <path d="M 3.1403,0.0 L 3.1388,0.1418 L 3.1341,0.2835 L 3.1264,0.4251 L 3.1156,0.5665 L 3.1017,0.7076 L 3.0847,0.8484 L 3.0647,0.9888 L 3.0416,1.1287 L 3.0154,1.2681 L 2.9862,1.4069 L 2.954,1.545 L 2.9188,1.6823 L 2.8806,1.8189 L 2.8395,1.9546 L 2.7954,2.0894 L 2.7483,2.2231 L 2.6984,2.3558 L 2.6455,2.4874 L 2.5899,2.6178 L 2.5313,2.747 L 2.47,2.8749 L 2.4059,3.0014 L 2.3391,3.1264 L 2.2695,3.25 L 2.1973,3.372 L 2.1224,3.4924 L 2.0449,3.6112 L 1.9648,3.7282 L 1.8822,3.8435 L 1.7971,3.9569 L 1.7096,4.0685 L 1.6196,4.1781 L 1.5273,4.2857 L 1.4326,4.3913 L 1.3357,4.4948 L 1.2365,4.5962 L 1.1352,4.6954 L 1.0317,4.7923 L 0.9261,4.887 L 0.8185,4.9793 L 0.7088,5.0692 L 0.5973,5.1568 L 0.4839,5.2419 L 0.3686,5.3245 L 0.2515,5.4045 L 0.1328,5.482 L 0.0124,5.5569 L -0.1097,5.6292 L -0.2332,5.6987 L -0.3583,5.7656 L -0.4848,5.8297 L -0.6126,5.891 L -0.7418,5.9495 L -0.8722,6.0052 L -1.0038,6.058 L -1.1365,6.108 L -1.2703,6.155 L -1.4051,6.1992 L -1.5408,6.2403 L -1.6773,6.2785 L -1.8147,6.3137 L -1.9528,6.3459 L -2.0916,6.3751 L -2.2309,6.4012 L -2.3708,6.4243 L -2.5112,6.4444 L -2.652,6.4614 L -2.7931,6.4753 L -2.9345,6.4861 L -3.0761,6.4938 L -3.2178,6.4985 L -3.3596,6.5" />
      <path d="M -3.3596,6.5 L -3.6432,6.4938 L -3.9262,6.4753 L -4.2081,6.4444 L -4.4884,6.4012 L -4.7665,6.3459 L -5.042,6.2785 L -5.3142,6.1992 L -5.5828,6.108 L -5.8471,6.0052 L -6.1067,5.891 L -6.361,5.7656 L -6.6096,5.6292 L -6.8521,5.482 L -7.0879,5.3245 L -7.3166,5.1568 L -7.5377,4.9793 L -7.751,4.7923 L -7.9558,4.5962 L -8.1519,4.3913 L -8.3389,4.1781 L -8.5164,3.9569 L -8.6841,3.7282 L -8.8417,3.4924 L -8.9888,3.25 L -9.1252,3.0014 L -9.2506,2.747 L -9.3648,2.4874 L -9.4676,2.2231 L -9.5588,1.9546 L -9.6381,1.6823 L -9.7055,1.4069 L -9.7609,1.1287 L -9.804,0.8484 L -9.8349,0.5665 L -9.8534,0.2835 L -9.8596,0.0 L -9.8534,-0.2835 L -9.8349,-0.5665 L -9.804,-0.8484 L -9.7609,-1.1287 L -9.7055,-1.4069 L -9.6381,-1.6823 L -9.5588,-1.9546 L -9.4676,-2.2231 L -9.3648,-2.4874 L -9.2506,-2.747 L -9.1252,-3.0014 L -8.9888,-3.25 L -8.8417,-3.4924 L -8.6841,-3.7282 L -8.5164,-3.9569 L -8.3389,-4.1781 L -8.1519,-4.3913 L -7.9558,-4.5962 L -7.751,-4.7923 L -7.5377,-4.9793 L -7.3166,-5.1568 L -7.0879,-5.3245 L -6.8521,-5.482 L -6.6096,-5.6292 L -6.361,-5.7656 L -6.1067,-5.891 L -5.8471,-6.0052 L -5.5828,-6.108 L -5.3142,-6.1992 L -5.042,-6.2785 L -4.7665,-6.3459 L -4.4884,-6.4012 L -4.2081,-6.4444 L -3.9262,-6.4753 L -3.6432,-6.4938 L -3.3596,-6.5" />
      <path d="M -3.3596,-6.5 L -3.2178,-6.4985 L -3.0761,-6.4938 L -2.9345,-6.4861 L -2.7931,-6.4753 L -2.652,-6.4614 L -2.5112,-6.4444 L -2.3708,-6.4243 L -2.2309,-6.4012 L -2.0916,-6.3751 L -1.9528,-6.3459 L -1.8147,-6.3137 L -1.6773,-6.2785 L -1.5408,-6.2403 L -1.4051,-6.1992 L -1.2703,-6.155 L -1.1365,-6.108 L -1.0038,-6.058 L -0.8722,-6.0052 L -0.7418,-5.9495 L -0.6126,-5.891 L -0.4848,-5.8297 L -0.3583,-5.7656 L -0.2332,-5.6987 L -0.1097,-5.6292 L 0.0124,-5.5569 L 0.1328,-5.482 L 0.2515,-5.4045 L 0.3686,-5.3245 L 0.4839,-5.2419 L 0.5973,-5.1568 L 0.7088,-5.0692 L 0.8185,-4.9793 L 0.9261,-4.887 L 1.0317,-4.7923 L 1.1352,-4.6954 L 1.2365,-4.5962 L 1.3357,-4.4948 L 1.4326,-4.3913 L 1.5273,-4.2857 L 1.6196,-4.1781 L 1.7096,-4.0685 L 1.7971,-3.9569 L 1.8822,-3.8435 L 1.9648,-3.7282 L 2.0449,-3.6112 L 2.1224,-3.4924 L 2.1973,-3.372 L 2.2695,-3.25 L 2.3391,-3.1264 L 2.4059,-3.0014 L 2.47,-2.8749 L 2.5313,-2.747 L 2.5899,-2.6178 L 2.6455,-2.4874 L 2.6984,-2.3558 L 2.7483,-2.2231 L 2.7954,-2.0894 L 2.8395,-1.9546 L 2.8806,-1.8189 L 2.9188,-1.6823 L 2.954,-1.545 L 2.9862,-1.4069 L 3.0154,-1.2681 L 3.0416,-1.1287 L 3.0647,-0.9888 L 3.0847,-0.8484 L 3.1017,-0.7076 L 3.1156,-0.5665 L 3.1264,-0.4251 L 3.1341,-0.2835 L 3.1388,-0.1418 L 3.1403,0.0" />
      <path d="M -3.363,-15.0 L -3.3629,-15.0 L -3.3628,-15.0 L -3.3627,-15.0 L -3.3626,-15.0 L -3.3625,-15.0 L -3.3624,-15.0 L -3.3623,-15.0 L -3.3622,-15.0 L -3.3621,-15.0 L -3.362,-15.0 L -3.3619,-15.0 L -3.3618,-15.0 L -3.3617,-15.0 L -3.3616,-15.0 L -3.3615,-15.0 L -3.3614,-15.0 L -3.3613,-15.0 L -3.3612,-15.0 L -3.3611,-15.0 L -3.361,-15.0 L -3.3609,-15.0 L -3.3608,-15.0 L -3.3607,-15.0 L -3.3606,-15.0 L -3.3605,-15.0 L -3.3604,-15.0 L -3.3603,-15.0 L -3.3602,-15.0 L -3.3601,-15.0 L -3.36,-15.0 L -3.3599,-15.0 L -3.3598,-15.0 L -3.3597,-15.0 L -3.3596,-15.0" />
      <path d="M -3.363,15.0 L -3.3629,15.0 L -3.3628,15.0 L -3.3627,15.0 L -3.3626,15.0 L -3.3625,15.0 L -3.3624,15.0 L -3.3623,15.0 L -3.3622,15.0 L -3.3621,15.0 L -3.362,15.0 L -3.3619,15.0 L -3.3618,15.0 L -3.3617,15.0 L -3.3616,15.0 L -3.3615,15.0 L -3.3614,15.0 L -3.3613,15.0 L -3.3612,15.0 L -3.3611,15.0 L -3.361,15.0 L -3.3609,15.0 L -3.3608,15.0 L -3.3607,15.0 L -3.3606,15.0 L -3.3605,15.0 L -3.3604,15.0 L -3.3603,15.0 L -3.3602,15.0 L -3.3601,15.0 L -3.36,15.0 L -3.3599,15.0 L -3.3598,15.0 L -3.3597,15.0 L -3.3596,15.0" />
      <path d="M 30.184,11.1637 L 30.184,11.1636 L 30.184,11.1635 L 30.1841,11.1634 L 30.1841,11.1633 L 30.1842,11.1632 L 30.1842,11.1631 L 30.1843,11.163 L 30.1843,11.1629 L 30.1843,11.1628 L 30.1844,11.1627 L 30.1844,11.1626 L 30.1845,11.1625 L 30.1845,11.1624 L 30.1846,11.1623 L 30.1846,11.1622 L 30.1847,11.1621 L 30.1847,11.162 L 30.1847,11.1619 L 30.1848,11.1618 L 30.1848,11.1617 L 30.1849,11.1616 L 30.1849,11.1615 L 30.185,11.1614 L 30.185,11.1613 L 30.1851,11.1612 L 30.1851,11.1611 L 30.1851,11.161 L 30.1852,11.1609 L 30.1852,11.1608 L 30.1853,11.1607 L 30.1853,11.1606 L 30.1854,11.1605 L 30.1854,11.1604 L 30.1855,11.1603 L 30.1855,11.1602 L 30.1855,11.1601 L 30.1856,11.16 L 30.1856,11.1599 L 30.1857,11.1598 L 30.1857,11.1597 L 30.1858,11.1596 L 30.1858,11.1595 L 30.1859,11.1594 L 30.1859,11.1593 L 30.1859,11.1592 L 30.186,11.1591 L 30.186,11.159 L 30.1861,11.1589 L 30.1861,11.1588 L 30.1862,11.1587 L 30.1862,11.1586 L 30.1863,11.1585 L 30.1863,11.1584 L 30.1863,11.1583 L 30.1864,11.1582 L 30.1864,11.1581 L 30.1865,11.158 L 30.1865,11.1579 L 30.1866,11.1578 L 30.1866,11.1577 L 30.1867,11.1576 L 30.1867,11.1575 L 30.1867,11.1574 L 30.1868,11.1573 L 30.1868,11.1572 L 30.1869,11.1571 L 30.1869,11.157 L 30.187,11.1569 L 30.187,11.1568 L 30.1871,11.1567 L 30.1871,11.1566 L 30.1871,11.1565" />
      <path d="M 30.184,11.1637 L 30.184,11.1776 L 30.184,11.1915 L 30.184,11.2054 L 30.184,11.2193 L 30.184,11.2331 L 30.184,11.247 L 30.184,11.2609 L 30.184,11.2748 L 30.184,11.2887 L 30.184,11.3026 L 30.184,11.3165 L 30.184,11.3304 L 30.184,11.3443 L 30.184,11.3581 L 30.184,11.372 L 30.184,11.3859 L 30.184,11.3998 L 30.184,11.4137 L 30.184,11.4276 L 30.184,11.4415 L 30.184,11.4554 L 30.184,11.4693 L 30.184,11.4831 L 30.184,11.497 L 30.184,11.5109 L 30.184,11.5248 L 30.184,11.5387 L 30.184,11.5526 L 30.184,11.5665 L 30.184,11.5804 L 30.184,11.5943 L 30.184,11.6081 L 30.184,11.622 L 30.184,11.6359 L 30.184,11.6498 L 30.184,11.6637 L 30.184,11.6776 L 30.184,11.6915 L 30.184,11.7054 L 30.184,11.7193 L 30.184,11.7331 L 30.184,11.747 L 30.184,11.7609 L 30.184,11.7748 L 30.184,11.7887 L 30.184,11.8026 L 30.184,11.8165 L 30.184,11.8304 L 30.184,11.8443 L 30.184,11.8581 L 30.184,11.872 L 30.184,11.8859 L 30.184,11.8998 L 30.184,11.9137 L 30.184,11.9276 L 30.184,11.9415 L 30.184,11.9554 L 30.184,11.9693 L 30.184,11.9831 L 30.184,11.997 L 30.184,12.0109 L 30.184,12.0248 L 30.184,12.0387 L 30.184,12.0526 L 30.184,12.0665 L 30.184,12.0804 L 30.184,12.0943 L 30.184,12.1081 L 30.184,12.122 L 30.184,12.1359 L 30.184,12.1498 L 30.184,12.1637" />
      <path d="M 30.184,12.1637 L 30.1842,12.1631 L 30.1844,12.1626 L 30.1847,12.162 L 30.1849,12.1615 L 30.1852,12.1609 L 30.1854,12.1603 L 30.1857,12.1598 L 30.1859,12.1592 L 30.1862,12.1587 L 30.1864,12.1581 L 30.1867,12.1575 L 30.1869,12.157 L 30.1872,12.1564 L 30.1874,12.1559 L 30.1876,12.1553 L 30.1879,12.1547 L 30.1881,12.1542 L 30.1884,12.1536 L 30.1886,12.1531 L 30.1889,12.1525 L 30.1891,12.152 L 30.1894,12.1514 L 30.1896,12.1508 L 30.1899,12.1503 L 30.1901,12.1497 L 30.1903,12.1492 L 30.1906,12.1486 L 30.1908,12.148 L 30.1911,12.1475 L 30.1913,12.1469 L 30.1916,12.1464 L 30.1918,12.1458 L 30.1921,12.1452 L 30.1923,12.1447 L 30.1926,12.1441 L 30.1928,12.1436 L 30.1931,12.143 L 30.1933,12.1424 L 30.1935,12.1419 L 30.1938,12.1413 L 30.194,12.1408 L 30.1943,12.1402 L 30.1945,12.1396 L 30.1948,12.1391 L 30.195,12.1385 L 30.1953,12.138 L 30.1955,12.1374 L 30.1958,12.1368 L 30.196,12.1363 L 30.1963,12.1357 L 30.1965,12.1352 L 30.1967,12.1346 L 30.197,12.1341 L 30.1972,12.1335 L 30.1975,12.1329 L 30.1977,12.1324 L 30.198,12.1318 L 30.1982,12.1313 L 30.1985,12.1307 L 30.1987,12.1301 L 30.199,12.1296 L 30.1992,12.129 L 30.1995,12.1285 L 30.1997,12.1279 L 30.1999,12.1273 L 30.2002,12.1268 L 30.2004,12.1262 L 30.2007,12.1257 L 30.2009,12.1251 L 30.2012,12.1245 L 30.2014,12.124 L 30.2017,12.1234" />
      <path d="M 30.2017,11.1234 L 30.2017,11.1373 L 30.2017,11.1512 L 30.2017,11.1651 L 30.2017,11.179 L 30.2017,11.1929 L 30.2017,11.2068 L 30.2017,11.2207 L 30.2017,11.2345 L 30.2017,11.2484 L 30.2017,11.2623 L 30.2017,11.2762 L 30.2017,11.2901 L 30.2017,11.304 L 30.2017,11.3179 L 30.2017,11.3318 L 30.2017,11.3456 L 30.2017,11.3595 L 30.2017,11.3734 L 30.2017,11.3873 L 30.2017,11.4012 L 30.2017,11.4151 L 30.2017,11.429 L 30.2017,11.4429 L 30.2017,11.4568 L 30.2017,11.4706 L 30.2017,11.4845 L 30.2017,11.4984 L 30.2017,11.5123 L 30.2017,11.5262 L 30.2017,11.5401 L 30.2017,11.554 L 30.2017,11.5679 L 30.2017,11.5818 L 30.2017,11.5956 L 30.2017,11.6095 L 30.2017,11.6234 L 30.2017,11.6373 L 30.2017,11.6512 L 30.2017,11.6651 L 30.2017,11.679 L 30.2017,11.6929 L 30.2017,11.7068 L 30.2017,11.7206 L 30.2017,11.7345 L 30.2017,11.7484 L 30.2017,11.7623 L 30.2017,11.7762 L 30.2017,11.7901 L 30.2017,11.804 L 30.2017,11.8179 L 30.2017,11.8318 L 30.2017,11.8456 L 30.2017,11.8595 L 30.2017,11.8734 L 30.2017,11.8873 L 30.2017,11.9012 L 30.2017,11.9151 L 30.2017,11.929 L 30.2017,11.9429 L 30.2017,11.9568 L 30.2017,11.9706 L 30.2017,11.9845 L 30.2017,11.9984 L 30.2017,12.0123 L 30.2017,12.0262 L 30.2017,12.0401 L 30.2017,12.054 L 30.2017,12.0679 L 30.2017,12.0818 L 30.2017,12.0956 L 30.2017,12.1095 L 30.2017,12.1234" />
      <path d="M 30.1985,11.1307 L 30.1985,11.1306 L 30.1986,11.1305 L 30.1986,11.1304 L 30.1987,11.1303 L 30.1987,11.1302 L 30.1987,11.1301 L 30.1988,11.13 L 30.1988,11.1299 L 30.1989,11.1298 L 30.1989,11.1297 L 30.199,11.1296 L 30.199,11.1295 L 30.1991,11.1294 L 30.1991,11.1293 L 30.1991,11.1292 L 30.1992,11.1291 L 30.1992,11.129 L 30.1993,11.1289 L 30.1993,11.1288 L 30.1994,11.1287 L 30.1994,11.1286 L 30.1995,11.1285 L 30.1995,11.1284 L 30.1995,11.1283 L 30.1996,11.1282 L 30.1996,11.1281 L 30.1997,11.128 L 30.1997,11.1279 L 30.1998,11.1278 L 30.1998,11.1277 L 30.1999,11.1276 L 30.1999,11.1275 L 30.1999,11.1274 L 30.2,11.1273 L 30.2,11.1272 L 30.2001,11.1271 L 30.2001,11.127 L 30.2002,11.1269 L 30.2002,11.1268 L 30.2003,11.1267 L 30.2003,11.1265 L 30.2003,11.1264 L 30.2004,11.1263 L 30.2004,11.1262 L 30.2005,11.1261 L 30.2005,11.126 L 30.2006,11.1259 L 30.2006,11.1258 L 30.2007,11.1257 L 30.2007,11.1256 L 30.2007,11.1255 L 30.2008,11.1254 L 30.2008,11.1253 L 30.2009,11.1252 L 30.2009,11.1251 L 30.201,11.125 L 30.201,11.1249 L 30.201,11.1248 L 30.2011,11.1247 L 30.2011,11.1246 L 30.2012,11.1245 L 30.2012,11.1244 L 30.2013,11.1243 L 30.2013,11.1242 L 30.2014,11.1241 L 30.2014,11.124 L 30.2014,11.1239 L 30.2015,11.1238 L 30.2015,11.1237 L 30.2016,11.1236 L 30.2016,11.1235 L 30.2017,11.1234" />
      <path d="M 30.1985,11.1307 L 30.2004,10.7211 L 30.2019,10.3116 L 30.2031,9.9021 L 30.2042,9.4925 L 30.2051,9.083 L 30.206,8.6734 L 30.2068,8.2639 L 30.2075,7.8543 L 30.2081,7.4448 L 30.2087,7.0353 L 30.2093,6.6257 L 30.2098,6.2162 L 30.2103,5.8066 L 30.2108,5.3971 L 30.2112,4.9875 L 30.2116,4.578 L 30.2119,4.1685 L 30.2123,3.7589 L 30.2126,3.3494 L 30.2129,2.9398 L 30.2132,2.5303 L 30.2134,2.1207 L 30.2136,1.7112 L 30.2138,1.3017 L 30.214,0.8921 L 30.2142,0.4826 L 30.2144,0.073 L 30.2145,-0.3365 L 30.2146,-0.7461 L 30.2147,-1.1556 L 30.2148,-1.5651 L 30.2149,-1.9747 L 30.2149,-2.3842 L 30.2149,-2.7938 L 30.215,-3.2033 L 30.215,-3.6129 L 30.2149,-4.0224 L 30.2149,-4.432 L 30.2149,-4.8415 L 30.2148,-5.251 L 30.2147,-5.6606 L 30.2146,-6.0701 L 30.2145,-6.4797 L 30.2144,-6.8892 L 30.2142,-7.2988 L 30.214,-7.7083 L 30.2138,-8.1178 L 30.2136,-8.5274 L 30.2134,-8.9369 L 30.2131,-9.3465 L 30.2129,-9.756 L 30.2126,-10.1656 L 30.2123,-10.5751 L 30.2119,-10.9846 L 30.2115,-11.3942 L 30.2112,-11.8037 L 30.2107,-12.2133 L 30.2103,-12.6228 L 30.2098,-13.0324 L 30.2093,-13.4419 L 30.2087,-13.8514 L 30.2081,-14.261 L 30.2074,-14.6705 L 30.2067,-15.0801 L 30.2059,-15.4896 L 30.205,-15.8992 L 30.204,-16.3087 L 30.2029,-16.7182 L 30.2017,-17.1278 L 30.2001,-17.5373 L 30.198,-17.9469 L 30.1929,-18.3564" />
      <path d="M 30.1929,-18.3564 L 30.1877,-17.9465 L 30.1857,-17.5366 L 30.1841,-17.1267 L 30.1828,-16.7168 L 30.1817,-16.3069 L 30.1807,-15.897 L 30.1798,-15.4871 L 30.179,-15.0772 L 30.1783,-14.6673 L 30.1777,-14.2574 L 30.177,-13.8475 L 30.1765,-13.4376 L 30.1759,-13.0277 L 30.1754,-12.6178 L 30.175,-12.2079 L 30.1745,-11.798 L 30.1741,-11.3881 L 30.1738,-10.9782 L 30.1734,-10.5683 L 30.1731,-10.1584 L 30.1728,-9.7485 L 30.1725,-9.3386 L 30.1723,-8.9287 L 30.172,-8.5188 L 30.1718,-8.1089 L 30.1716,-7.699 L 30.1715,-7.2891 L 30.1713,-6.8792 L 30.1712,-6.4693 L 30.171,-6.0594 L 30.1709,-5.6495 L 30.1708,-5.2396 L 30.1708,-4.8297 L 30.1707,-4.4198 L 30.1707,-4.0099 L 30.1707,-3.6 L 30.1707,-3.1901 L 30.1707,-2.7802 L 30.1707,-2.3703 L 30.1708,-1.9604 L 30.1708,-1.5505 L 30.1709,-1.1406 L 30.171,-0.7307 L 30.1711,-0.3208 L 30.1712,0.0891 L 30.1714,0.499 L 30.1716,0.9089 L 30.1717,1.3188 L 30.1719,1.7287 L 30.1722,2.1386 L 30.1724,2.5485 L 30.1727,2.9584 L 30.173,3.3683 L 30.1733,3.7782 L 30.1736,4.1881 L 30.174,4.598 L 30.1744,5.0079 L 30.1748,5.4178 L 30.1753,5.8278 L 30.1757,6.2377 L 30.1763,6.6476 L 30.1768,7.0575 L 30.1774,7.4674 L 30.1781,7.8773 L 30.1788,8.2872 L 30.1796,8.6971 L 30.1804,9.107 L 30.1814,9.5169 L 30.1825,9.9268 L 30.1837,10.3367 L 30.1852,10.7466 L 30.1871,11.1565" />
      <path d="M 30.1928,3.1436 L 30.195,2.9631 L 30.1959,2.7825 L 30.1966,2.602 L 30.1972,2.4214 L 30.1977,2.2409 L 30.1981,2.0603 L 30.1985,1.8798 L 30.1988,1.6992 L 30.1991,1.5186 L 30.1994,1.3381 L 30.1997,1.1575 L 30.1999,0.977 L 30.2002,0.7964 L 30.2004,0.6159 L 30.2006,0.4353 L 30.2008,0.2548 L 30.2009,0.0742 L 30.2011,-0.1064 L 30.2013,-0.2869 L 30.2014,-0.4675 L 30.2015,-0.648 L 30.2016,-0.8286 L 30.2017,-1.0091 L 30.2018,-1.1897 L 30.2019,-1.3703 L 30.202,-1.5508 L 30.2021,-1.7314 L 30.2022,-1.9119 L 30.2022,-2.0925 L 30.2023,-2.273 L 30.2023,-2.4536 L 30.2023,-2.6341 L 30.2024,-2.8147 L 30.2024,-2.9953 L 30.2024,-3.1758 L 30.2024,-3.3564 L 30.2024,-3.5369 L 30.2024,-3.7175 L 30.2024,-3.898 L 30.2024,-4.0786 L 30.2023,-4.2591 L 30.2023,-4.4397 L 30.2022,-4.6203 L 30.2022,-4.8008 L 30.2021,-4.9814 L 30.202,-5.1619 L 30.202,-5.3425 L 30.2019,-5.523 L 30.2018,-5.7036 L 30.2017,-5.8842 L 30.2015,-6.0647 L 30.2014,-6.2453 L 30.2013,-6.4258 L 30.2011,-6.6064 L 30.201,-6.7869 L 30.2008,-6.9675 L 30.2006,-7.148 L 30.2004,-7.3286 L 30.2002,-7.5092 L 30.2,-7.6897 L 30.1997,-7.8703 L 30.1995,-8.0508 L 30.1992,-8.2314 L 30.1989,-8.4119 L 30.1985,-8.5925 L 30.1981,-8.773 L 30.1977,-8.9536 L 30.1972,-9.1342 L 30.1967,-9.3147 L 30.196,-9.4953 L 30.1951,-9.6758 L 30.1928,-9.8564" />
      <path d="M 30.1928,-9.8564 L 30.1906,-9.6758 L 30.1897,-9.4953 L 30.189,-9.3147 L 30.1884,-9.1342 L 30.188,-8.9536 L 30.1875,-8.7731 L 30.1871,-8.5925 L 30.1868,-8.4119 L 30.1865,-8.2314 L 30.1862,-8.0508 L 30.1859,-7.8703 L 30.1857,-7.6897 L 30.1854,-7.5092 L 30.1852,-7.3286 L 30.185,-7.148 L 30.1848,-6.9675 L 30.1847,-6.7869 L 30.1845,-6.6064 L 30.1844,-6.4258 L 30.1842,-6.2453 L 30.1841,-6.0647 L 30.184,-5.8841 L 30.1839,-5.7036 L 30.1838,-5.523 L 30.1837,-5.3425 L 30.1836,-5.1619 L 30.1835,-4.9814 L 30.1835,-4.8008 L 30.1834,-4.6203 L 30.1834,-4.4397 L 30.1833,-4.2591 L 30.1833,-4.0786 L 30.1832,-3.898 L 30.1832,-3.7175 L 30.1832,-3.5369 L 30.1832,-3.3564 L 30.1832,-3.1758 L 30.1832,-2.9952 L 30.1832,-2.8147 L 30.1833,-2.6341 L 30.1833,-2.4536 L 30.1833,-2.273 L 30.1834,-2.0925 L 30.1834,-1.9119 L 30.1835,-1.7313 L 30.1836,-1.5508 L 30.1837,-1.3702 L 30.1838,-1.1897 L 30.1838,-1.0091 L 30.184,-0.8286 L 30.1841,-0.648 L 30.1842,-0.4675 L 30.1843,-0.2869 L 30.1845,-0.1063 L 30.1846,0.0742 L 30.1848,0.2548 L 30.185,0.4353 L 30.1852,0.6159 L 30.1854,0.7964 L 30.1856,0.977 L 30.1859,1.1576 L 30.1861,1.3381 L 30.1864,1.5187 L 30.1868,1.6992 L 30.1871,1.8798 L 30.1875,2.0603 L 30.1879,2.2409 L 30.1884,2.4214 L 30.1889,2.602 L 30.1896,2.7826 L 30.1905,2.9631 L 30.1928,3.1436" />
      <path d="M 16.184,11.1636 L 16.1842,11.1631 L 16.1845,11.1625 L 16.1847,11.162 L 16.185,11.1614 L 16.1852,11.1608 L 16.1854,11.1603 L 16.1857,11.1597 L 16.1859,11.1592 L 16.1862,11.1586 L 16.1864,11.158 L 16.1867,11.1575 L 16.1869,11.1569 L 16.1872,11.1564 L 16.1874,11.1558 L 16.1877,11.1552 L 16.1879,11.1547 L 16.1881,11.1541 L 16.1884,11.1536 L 16.1886,11.153 L 16.1889,11.1524 L 16.1891,11.1519 L 16.1894,11.1513 L 16.1896,11.1508 L 16.1899,11.1502 L 16.1901,11.1497 L 16.1904,11.1491 L 16.1906,11.1485 L 16.1909,11.148 L 16.1911,11.1474 L 16.1913,11.1469 L 16.1916,11.1463 L 16.1918,11.1457 L 16.1921,11.1452 L 16.1923,11.1446 L 16.1926,11.1441 L 16.1928,11.1435 L 16.1931,11.1429 L 16.1933,11.1424 L 16.1936,11.1418 L 16.1938,11.1413 L 16.1941,11.1407 L 16.1943,11.1401 L 16.1945,11.1396 L 16.1948,11.139 L 16.195,11.1385 L 16.1953,11.1379 L 16.1955,11.1373 L 16.1958,11.1368 L 16.196,11.1362 L 16.1963,11.1357 L 16.1965,11.1351 L 16.1968,11.1345 L 16.197,11.134 L 16.1973,11.1334 L 16.1975,11.1329 L 16.1977,11.1323 L 16.198,11.1318 L 16.1982,11.1312 L 16.1985,11.1306 L 16.1987,11.1301 L 16.199,11.1295 L 16.1992,11.129 L 16.1995,11.1284 L 16.1997,11.1278 L 16.2,11.1273 L 16.2002,11.1267 L 16.2005,11.1262 L 16.2007,11.1256 L 16.2009,11.125 L 16.2012,11.1245 L 16.2014,11.1239 L 16.2017,11.1234" />
      <path d="M 30.2017,11.1234 L 30.2016,11.1234 L 30.2015,11.1234 L 30.2014,11.1234 L 30.2013,11.1234 L 30.2012,11.1234 L 30.2011,11.1234 L 30.201,11.1234 L 30.2009,11.1234 L 30.2008,11.1234 L 30.2007,11.1234 L 30.2006,11.1234 L 30.2005,11.1234 L 30.2004,11.1234 L 30.2003,11.1234 L 30.2002,11.1234 L 30.2001,11.1234 L 30.2,11.1234 L 30.1999,11.1234 L 30.1998,11.1234 L 30.1997,11.1234 L 30.1996,11.1234 L 30.1995,11.1234 L 30.1994,11.1234 L 30.1993,11.1234 L 30.1992,11.1234 L 30.1991,11.1234 L 30.199,11.1234 L 30.1989,11.1234 L 30.1988,11.1234 L 30.1987,11.1234 L 30.1986,11.1234 L 30.1985,11.1234" />
      <path d="M 29.187,11.1234 L 29.0066,11.1234 L 28.8263,11.1234 L 28.6459,11.1234 L 28.4656,11.1234 L 28.2852,11.1234 L 28.1049,11.1234 L 27.9245,11.1234 L 27.7441,11.1234 L 27.5638,11.1234 L 27.3834,11.1234 L 27.2031,11.1234 L 27.0227,11.1234 L 26.8424,11.1234 L 26.662,11.1234 L 26.4817,11.1234 L 26.3013,11.1234 L 26.121,11.1234 L 25.9406,11.1234 L 25.7603,11.1234 L 25.5799,11.1234 L 25.3996,11.1234 L 25.2192,11.1234 L 25.0389,11.1234 L 24.8585,11.1234 L 24.6782,11.1234 L 24.4978,11.1234 L 24.3175,11.1234 L 24.1371,11.1234 L 23.9568,11.1234 L 23.7764,11.1234 L 23.5961,11.1234 L 23.4157,11.1234 L 23.2354,11.1234 L 23.055,11.1234 L 22.8747,11.1234 L 22.6943,11.1234 L 22.514,11.1234 L 22.3336,11.1234 L 22.1533,11.1234 L 21.9729,11.1234 L 21.7926,11.1234 L 21.6122,11.1234 L 21.4319,11.1234 L 21.2515,11.1234 L 21.0712,11.1234 L 20.8908,11.1234 L 20.7105,11.1234 L 20.5301,11.1234 L 20.3498,11.1234 L 20.1694,11.1234 L 19.9891,11.1234 L 19.8087,11.1234 L 19.6284,11.1234 L 19.448,11.1234 L 19.2677,11.1234 L 19.0873,11.1234 L 18.9069,11.1234 L 18.7266,11.1234 L 18.5462,11.1234 L 18.3659,11.1234 L 18.1855,11.1234 L 18.0052,11.1234 L 17.8248,11.1234 L 17.6445,11.1234 L 17.4641,11.1234 L 17.2838,11.1234 L 17.1034,11.1234 L 16.9231,11.1234 L 16.7427,11.1234 L 16.5624,11.1234 L 16.382,11.1234 L 16.2017,11.1234" />
      <path d="M 30.1871,11.1565 L 30.1733,11.1565 L 30.1594,11.1565 L 30.1455,11.1565 L 30.1316,11.1565 L 30.1177,11.1565 L 30.1038,11.1565 L 30.0899,11.1565 L 30.076,11.1565 L 30.0621,11.1565 L 30.0483,11.1565 L 30.0344,11.1565 L 30.0205,11.1565 L 30.0066,11.1565 L 29.9927,11.1565 L 29.9788,11.1565 L 29.9649,11.1565 L 29.951,11.1565 L 29.9371,11.1565 L 29.9233,11.1565 L 29.9094,11.1565 L 29.8955,11.1565 L 29.8816,11.1565 L 29.8677,11.1565 L 29.8538,11.1565 L 29.8399,11.1565 L 29.826,11.1565 L 29.8121,11.1565 L 29.7983,11.1565 L 29.7844,11.1565 L 29.7705,11.1565 L 29.7566,11.1565 L 29.7427,11.1565 L 29.7288,11.1565 L 29.7149,11.1565 L 29.701,11.1565 L 29.6871,11.1565 L 29.6733,11.1565 L 29.6594,11.1565 L 29.6455,11.1565 L 29.6316,11.1565 L 29.6177,11.1565 L 29.6038,11.1565 L 29.5899,11.1565 L 29.576,11.1565 L 29.5621,11.1565 L 29.5483,11.1565 L 29.5344,11.1565 L 29.5205,11.1565 L 29.5066,11.1565 L 29.4927,11.1565 L 29.4788,11.1565 L 29.4649,11.1565 L 29.451,11.1565 L 29.4371,11.1565 L 29.4233,11.1565 L 29.4094,11.1565 L 29.3955,11.1565 L 29.3816,11.1565 L 29.3677,11.1565 L 29.3538,11.1565 L 29.3399,11.1565 L 29.326,11.1565 L 29.3121,11.1565 L 29.2983,11.1565 L 29.2844,11.1565 L 29.2705,11.1565 L 29.2566,11.1565 L 29.2427,11.1565 L 29.2288,11.1565 L 29.2149,11.1565 L 29.201,11.1565 L 29.1871,11.1565" />
      <path d="M 30.184,11.1637 L 29.9895,11.1637 L 29.7951,11.1637 L 29.6006,11.1637 L 29.4062,11.1637 L 29.2117,11.1637 L 29.0173,11.1637 L 28.8228,11.1637 L 28.6284,11.1637 L 28.434,11.1637 L 28.2395,11.1637 L 28.0451,11.1637 L 27.8506,11.1637 L 27.6562,11.1637 L 27.4617,11.1637 L 27.2673,11.1637 L 27.0728,11.1637 L 26.8784,11.1637 L 26.684,11.1637 L 26.4895,11.1637 L 26.2951,11.1637 L 26.1006,11.1637 L 25.9062,11.1637 L 25.7117,11.1637 L 25.5173,11.1637 L 25.3228,11.1637 L 25.1284,11.1637 L 24.934,11.1637 L 24.7395,11.1637 L 24.5451,11.1637 L 24.3506,11.1637 L 24.1562,11.1637 L 23.9617,11.1637 L 23.7673,11.1637 L 23.5728,11.1637 L 23.3784,11.1637 L 23.184,11.1637 L 22.9895,11.1637 L 22.7951,11.1637 L 22.6006,11.1637 L 22.4062,11.1637 L 22.2117,11.1637 L 22.0173,11.1637 L 21.8228,11.1637 L 21.6284,11.1637 L 21.434,11.1637 L 21.2395,11.1637 L 21.0451,11.1637 L 20.8506,11.1637 L 20.6562,11.1637 L 20.4617,11.1637 L 20.2673,11.1637 L 20.0729,11.1637 L 19.8784,11.1637 L 19.684,11.1637 L 19.4895,11.1637 L 19.2951,11.1637 L 19.1006,11.1637 L 18.9062,11.1636 L 18.7117,11.1636 L 18.5173,11.1636 L 18.3229,11.1636 L 18.1284,11.1636 L 17.934,11.1636 L 17.7395,11.1636 L 17.5451,11.1636 L 17.3506,11.1636 L 17.1562,11.1636 L 16.9617,11.1636 L 16.7673,11.1636 L 16.5729,11.1636 L 16.3784,11.1636 L 16.184,11.1636" />
      <path d="M 30.184,12.1637 L 29.9895,12.1637 L 29.7951,12.1637 L 29.6006,12.1637 L 29.4062,12.1637 L 29.2117,12.1637 L 29.0173,12.1637 L 28.8228,12.1637 L 28.6284,12.1637 L 28.434,12.1637 L 28.2395,12.1637 L 28.0451,12.1637 L 27.8506,12.1637 L 27.6562,12.1637 L 27.4617,12.1637 L 27.2673,12.1637 L 27.0728,12.1637 L 26.8784,12.1637 L 26.684,12.1637 L 26.4895,12.1637 L 26.2951,12.1637 L 26.1006,12.1637 L 25.9062,12.1637 L 25.7117,12.1637 L 25.5173,12.1637 L 25.3228,12.1637 L 25.1284,12.1637 L 24.934,12.1637 L 24.7395,12.1637 L 24.5451,12.1637 L 24.3506,12.1637 L 24.1562,12.1637 L 23.9617,12.1637 L 23.7673,12.1637 L 23.5728,12.1637 L 23.3784,12.1637 L 23.184,12.1637 L 22.9895,12.1637 L 22.7951,12.1637 L 22.6006,12.1637 L 22.4062,12.1637 L 22.2117,12.1637 L 22.0173,12.1637 L 21.8228,12.1637 L 21.6284,12.1637 L 21.434,12.1637 L 21.2395,12.1637 L 21.0451,12.1637 L 20.8506,12.1637 L 20.6562,12.1637 L 20.4617,12.1637 L 20.2673,12.1637 L 20.0729,12.1636 L 19.8784,12.1636 L 19.684,12.1636 L 19.4895,12.1636 L 19.2951,12.1636 L 19.1006,12.1636 L 18.9062,12.1636 L 18.7117,12.1636 L 18.5173,12.1636 L 18.3229,12.1636 L 18.1284,12.1636 L 17.934,12.1636 L 17.7395,12.1636 L 17.5451,12.1636 L 17.3506,12.1636 L 17.1562,12.1636 L 16.9617,12.1636 L 16.7673,12.1636 L 16.5729,12.1636 L 16.3784,12.1636 L 16.184,12.1636" />
      <path d="M 16.184,11.1636 L 16.184,11.1775 L 16.184,11.1914 L 16.184,11.2053 L 16.184,11.2192 L 16.184,11.2331 L 16.184,11.247 L 16.184,11.2609 L 16.184,11.2747 L 16.184,11.2886 L 16.184,11.3025 L 16.184,11.3164 L 16.184,11.3303 L 16.184,11.3442 L 16.184,11.3581 L 16.184,11.372 L 16.184,11.3859 L 16.184,11.3997 L 16.184,11.4136 L 16.184,11.4275 L 16.184,11.4414 L 16.184,11.4553 L 16.184,11.4692 L 16.184,11.4831 L 16.184,11.497 L 16.184,11.5109 L 16.184,11.5247 L 16.184,11.5386 L 16.184,11.5525 L 16.184,11.5664 L 16.184,11.5803 L 16.184,11.5942 L 16.184,11.6081 L 16.184,11.622 L 16.184,11.6359 L 16.184,11.6497 L 16.184,11.6636 L 16.184,11.6775 L 16.184,11.6914 L 16.184,11.7053 L 16.184,11.7192 L 16.184,11.7331 L 16.184,11.747 L 16.184,11.7609 L 16.184,11.7747 L 16.184,11.7886 L 16.184,11.8025 L 16.184,11.8164 L 16.184,11.8303 L 16.184,11.8442 L 16.184,11.8581 L 16.184,11.872 L 16.184,11.8859 L 16.184,11.8997 L 16.184,11.9136 L 16.184,11.9275 L 16.184,11.9414 L 16.184,11.9553 L 16.184,11.9692 L 16.184,11.9831 L 16.184,11.997 L 16.184,12.0109 L 16.184,12.0247 L 16.184,12.0386 L 16.184,12.0525 L 16.184,12.0664 L 16.184,12.0803 L 16.184,12.0942 L 16.184,12.1081 L 16.184,12.122 L 16.184,12.1359 L 16.184,12.1497 L 16.184,12.1636" />
      <path d="M 29.1929,-18.3564 L 29.1877,-17.9465 L 29.1857,-17.5366 L 29.1841,-17.1267 L 29.1828,-16.7168 L 29.1817,-16.3069 L 29.1807,-15.897 L 29.1798,-15.4871 L 29.179,-15.0772 L 29.1783,-14.6673 L 29.1777,-14.2574 L 29.177,-13.8475 L 29.1765,-13.4376 L 29.1759,-13.0277 L 29.1754,-12.6178 L 29.175,-12.2079 L 29.1745,-11.798 L 29.1741,-11.3881 L 29.1738,-10.9782 L 29.1734,-10.5683 L 29.1731,-10.1584 L 29.1728,-9.7485 L 29.1725,-9.3386 L 29.1723,-8.9287 L 29.172,-8.5188 L 29.1718,-8.1089 L 29.1716,-7.699 L 29.1715,-7.2891 L 29.1713,-6.8792 L 29.1712,-6.4693 L 29.171,-6.0594 L 29.1709,-5.6495 L 29.1708,-5.2396 L 29.1708,-4.8297 L 29.1707,-4.4198 L 29.1707,-4.0099 L 29.1707,-3.6 L 29.1707,-3.1901 L 29.1707,-2.7802 L 29.1707,-2.3703 L 29.1708,-1.9604 L 29.1708,-1.5505 L 29.1709,-1.1406 L 29.171,-0.7307 L 29.1711,-0.3208 L 29.1712,0.0891 L 29.1714,0.499 L 29.1716,0.9089 L 29.1717,1.3188 L 29.1719,1.7287 L 29.1722,2.1386 L 29.1724,2.5485 L 29.1727,2.9584 L 29.173,3.3683 L 29.1733,3.7782 L 29.1736,4.1881 L 29.174,4.598 L 29.1744,5.0079 L 29.1748,5.4178 L 29.1753,5.8277 L 29.1757,6.2376 L 29.1763,6.6475 L 29.1768,7.0575 L 29.1774,7.4674 L 29.1781,7.8773 L 29.1788,8.2872 L 29.1796,8.6971 L 29.1804,9.107 L 29.1814,9.5169 L 29.1825,9.9268 L 29.1837,10.3367 L 29.1852,10.7466 L 29.1871,11.1565" />
      <path d="M 30.1929,-18.3564 L 30.179,-18.3564 L 30.1651,-18.3564 L 30.1512,-18.3564 L 30.1373,-18.3564 L 30.1234,-18.3564 L 30.1096,-18.3564 L 30.0957,-18.3564 L 30.0818,-18.3564 L 30.0679,-18.3564 L 30.054,-18.3564 L 30.0401,-18.3564 L 30.0262,-18.3564 L 30.0123,-18.3564 L 29.9984,-18.3564 L 29.9846,-18.3564 L 29.9707,-18.3564 L 29.9568,-18.3564 L 29.9429,-18.3564 L 29.929,-18.3564 L 29.9151,-18.3564 L 29.9012,-18.3564 L 29.8873,-18.3564 L 29.8734,-18.3564 L 29.8596,-18.3564 L 29.8457,-18.3564 L 29.8318,-18.3564 L 29.8179,-18.3564 L 29.804,-18.3564 L 29.7901,-18.3564 L 29.7762,-18.3564 L 29.7623,-18.3564 L 29.7484,-18.3564 L 29.7346,-18.3564 L 29.7207,-18.3564 L 29.7068,-18.3564 L 29.6929,-18.3564 L 29.679,-18.3564 L 29.6651,-18.3564 L 29.6512,-18.3564 L 29.6373,-18.3564 L 29.6234,-18.3564 L 29.6096,-18.3564 L 29.5957,-18.3564 L 29.5818,-18.3564 L 29.5679,-18.3564 L 29.554,-18.3564 L 29.5401,-18.3564 L 29.5262,-18.3564 L 29.5123,-18.3564 L 29.4984,-18.3564 L 29.4846,-18.3564 L 29.4707,-18.3564 L 29.4568,-18.3564 L 29.4429,-18.3564 L 29.429,-18.3564 L 29.4151,-18.3564 L 29.4012,-18.3564 L 29.3873,-18.3564 L 29.3734,-18.3564 L 29.3596,-18.3564 L 29.3457,-18.3564 L 29.3318,-18.3564 L 29.3179,-18.3564 L 29.304,-18.3564 L 29.2901,-18.3564 L 29.2762,-18.3564 L 29.2623,-18.3564 L 29.2484,-18.3564 L 29.2346,-18.3564 L 29.2207,-18.3564 L 29.2068,-18.3564 L 29.1929,-18.3564" />
    </g>
    <g fill="none" stroke="rgb(110,110,110)" stroke-width="0.3" id="Hidden" stroke-dasharray="3.6 0.9">
      <path d="M 11.1369,-3.8532 L 11.1369,-3.8531 L 11.1369,-3.8529 L 11.1369,-3.8527 L 11.1369,-3.8525 L 11.1369,-3.8524 L 11.1369,-3.8522 L 11.1369,-3.852 L 11.1369,-3.8518 L 11.1369,-3.8517 L 11.1369,-3.8515 L 11.1369,-3.8513 L 11.1369,-3.8511 L 11.1369,-3.851 L 11.1369,-3.8508 L 11.1369,-3.8506 L 11.1369,-3.8504 L 11.1369,-3.8503 L 11.1369,-3.8501 L 11.1369,-3.8499 L 11.1369,-3.8497 L 11.1369,-3.8495 L 11.1369,-3.8494 L 11.1369,-3.8492 L 11.1369,-3.849 L 11.1369,-3.8488 L 11.1369,-3.8487 L 11.1369,-3.8485 L 11.1369,-3.8483 L 11.1369,-3.8481 L 11.1369,-3.848 L 11.1369,-3.8478 L 11.1369,-3.8476 L 11.1369,-3.8474 L 11.1369,-3.8473 L 11.1369,-3.8471 L 11.1369,-3.8469 L 11.1369,-3.8467 L 11.1369,-3.8466 L 11.1369,-3.8464 L 11.1369,-3.8462 L 11.1369,-3.846 L 11.1369,-3.8459 L 11.1369,-3.8457 L 11.1369,-3.8455 L 11.1369,-3.8453 L 11.1369,-3.8451 L 11.1369,-3.845 L 11.1369,-3.8448 L 11.1369,-3.8446 L 11.1369,-3.8444 L 11.1369,-3.8443 L 11.1369,-3.8441 L 11.1369,-3.8439 L 11.1369,-3.8437 L 11.1369,-3.8436 L 11.1369,-3.8434 L 11.1369,-3.8432 L 11.1369,-3.843 L 11.1369,-3.8429 L 11.1369,-3.8427 L 11.1369,-3.8425 L 11.1369,-3.8423 L 11.1369,-3.8422 L 11.1369,-3.842 L 11.1369,-3.8418 L 11.1369,-3.8416 L 11.1369,-3.8415 L 11.1369,-3.8413 L 11.1369,-3.8411 L 11.1369,-3.8409 L 11.1369,-3.8407 L 11.1369,-3.8406" />
      <path d="M 11.1369,-6.0 L 11.1508,-6.0 L 11.1647,-6.0 L 11.1786,-6.0 L 11.1925,-6.0 L 11.2064,-6.0 L 11.2202,-6.0 L 11.2341,-6.0 L 11.248,-6.0 L 11.2619,-6.0 L 11.2758,-6.0 L 11.2897,-6.0 L 11.3036,-6.0 L 11.3175,-6.0 L 11.3314,-6.0 L 11.3452,-6.0 L 11.3591,-6.0 L 11.373,-6.0 L 11.3869,-6.0 L 11.4008,-6.0 L 11.4147,-6.0 L 11.4286,-6.0 L 11.4425,-6.0 L 11.4564,-6.0 L 11.4702,-6.0 L 11.4841,-6.0 L 11.498,-6.0 L 11.5119,-6.0 L 11.5258,-6.0 L 11.5397,-6.0 L 11.5536,-6.0 L 11.5675,-6.0 L 11.5814,-6.0 L 11.5952,-6.0 L 11.6091,-6.0 L 11.623,-6.0 L 11.6369,-6.0 L 11.6508,-6.0 L 11.6647,-6.0 L 11.6786,-6.0 L 11.6925,-6.0 L 11.7064,-6.0 L 11.7202,-6.0 L 11.7341,-6.0 L 11.748,-6.0 L 11.7619,-6.0 L 11.7758,-6.0 L 11.7897,-6.0 L 11.8036,-6.0 L 11.8175,-6.0 L 11.8314,-6.0 L 11.8452,-6.0 L 11.8591,-6.0 L 11.873,-6.0 L 11.8869,-6.0 L 11.9008,-6.0 L 11.9147,-6.0 L 11.9286,-6.0 L 11.9425,-6.0 L 11.9564,-6.0 L 11.9702,-6.0 L 11.9841,-6.0 L 11.998,-6.0 L 12.0119,-6.0 L 12.0258,-6.0 L 12.0397,-6.0 L 12.0536,-6.0 L 12.0675,-6.0 L 12.0814,-6.0 L 12.0952,-6.0 L 12.1091,-6.0 L 12.123,-6.0 L 12.1369,-6.0" />
      <path d="M 12.1369,-6.0 L 12.1369,-5.8333 L 12.1369,-5.6667 L 12.1369,-5.5 L 12.1369,-5.3333 L 12.1369,-5.1667 L 12.1369,-5.0 L 12.1369,-4.8333 L 12.1369,-4.6667 L 12.1369,-4.5 L 12.1369,-4.3333 L 12.1369,-4.1667 L 12.1369,-4.0 L 12.1369,-3.8333 L 12.1369,-3.6667 L 12.1369,-3.5 L 12.1369,-3.3333 L 12.1369,-3.1667 L 12.1369,-3.0 L 12.1369,-2.8333 L 12.1369,-2.6667 L 12.1369,-2.5 L 12.1369,-2.3333 L 12.1369,-2.1667 L 12.1369,-2.0 L 12.1369,-1.8333 L 12.1369,-1.6667 L 12.1369,-1.5 L 12.1369,-1.3333 L 12.1369,-1.1667 L 12.1369,-1.0 L 12.1369,-0.8333 L 12.1369,-0.6667 L 12.1369,-0.5 L 12.1369,-0.3333 L 12.1369,-0.1667 L 12.1369,0.0 L 12.1369,0.1667 L 12.1369,0.3333 L 12.1369,0.5 L 12.1369,0.6667 L 12.1369,0.8333 L 12.1369,1.0 L 12.1369,1.1667 L 12.1369,1.3333 L 12.1369,1.5 L 12.1369,1.6667 L 12.1369,1.8333 L 12.1369,2.0 L 12.1369,2.1667 L 12.1369,2.3333 L 12.1369,2.5 L 12.1369,2.6667 L 12.1369,2.8333 L 12.1369,3.0 L 12.1369,3.1667 L 12.1369,3.3333 L 12.1369,3.5 L 12.1369,3.6667 L 12.1369,3.8333 L 12.1369,4.0 L 12.1369,4.1667 L 12.1369,4.3333 L 12.1369,4.5 L 12.1369,4.6667 L 12.1369,4.8333 L 12.1369,5.0 L 12.1369,5.1667 L 12.1369,5.3333 L 12.1369,5.5 L 12.1369,5.6667 L 12.1369,5.8333 L 12.1369,6.0" />
      <path d="M 11.1369,6.0 L 11.1508,6.0 L 11.1647,6.0 L 11.1786,6.0 L 11.1925,6.0 L 11.2064,6.0 L 11.2202,6.0 L 11.2341,6.0 L 11.248,6.0 L 11.2619,6.0 L 11.2758,6.0 L 11.2897,6.0 L 11.3036,6.0 L 11.3175,6.0 L 11.3314,6.0 L 11.3452,6.0 L 11.3591,6.0 L 11.373,6.0 L 11.3869,6.0 L 11.4008,6.0 L 11.4147,6.0 L 11.4286,6.0 L 11.4425,6.0 L 11.4564,6.0 L 11.4702,6.0 L 11.4841,6.0 L 11.498,6.0 L 11.5119,6.0 L 11.5258,6.0 L 11.5397,6.0 L 11.5536,6.0 L 11.5675,6.0 L 11.5814,6.0 L 11.5952,6.0 L 11.6091,6.0 L 11.623,6.0 L 11.6369,6.0 L 11.6508,6.0 L 11.6647,6.0 L 11.6786,6.0 L 11.6925,6.0 L 11.7064,6.0 L 11.7202,6.0 L 11.7341,6.0 L 11.748,6.0 L 11.7619,6.0 L 11.7758,6.0 L 11.7897,6.0 L 11.8036,6.0 L 11.8175,6.0 L 11.8314,6.0 L 11.8452,6.0 L 11.8591,6.0 L 11.873,6.0 L 11.8869,6.0 L 11.9008,6.0 L 11.9147,6.0 L 11.9286,6.0 L 11.9425,6.0 L 11.9564,6.0 L 11.9702,6.0 L 11.9841,6.0 L 11.998,6.0 L 12.0119,6.0 L 12.0258,6.0 L 12.0397,6.0 L 12.0536,6.0 L 12.0675,6.0 L 12.0814,6.0 L 12.0952,6.0 L 12.1091,6.0 L 12.123,6.0 L 12.1369,6.0" />
      <path d="M 11.1369,3.8406 L 11.1369,3.8407 L 11.1369,3.8409 L 11.1369,3.8411 L 11.1369,3.8413 L 11.1369,3.8415 L 11.1369,3.8416 L 11.1369,3.8418 L 11.1369,3.842 L 11.1369,3.8422 L 11.1369,3.8423 L 11.1369,3.8425 L 11.1369,3.8427 L 11.1369,3.8429 L 11.1369,3.843 L 11.1369,3.8432 L 11.1369,3.8434 L 11.1369,3.8436 L 11.1369,3.8437 L 11.1369,3.8439 L 11.1369,3.8441 L 11.1369,3.8443 L 11.1369,3.8444 L 11.1369,3.8446 L 11.1369,3.8448 L 11.1369,3.845 L 11.1369,3.8451 L 11.1369,3.8453 L 11.1369,3.8455 L 11.1369,3.8457 L 11.1369,3.8459 L 11.1369,3.846 L 11.1369,3.8462 L 11.1369,3.8464 L 11.1369,3.8466 L 11.1369,3.8467 L 11.1369,3.8469 L 11.1369,3.8471 L 11.1369,3.8473 L 11.1369,3.8474 L 11.1369,3.8476 L 11.1369,3.8478 L 11.1369,3.848 L 11.1369,3.8481 L 11.1369,3.8483 L 11.1369,3.8485 L 11.1369,3.8487 L 11.1369,3.8488 L 11.1369,3.849 L 11.1369,3.8492 L 11.1369,3.8494 L 11.1369,3.8495 L 11.1369,3.8497 L 11.1369,3.8499 L 11.1369,3.8501 L 11.1369,3.8503 L 11.1369,3.8504 L 11.1369,3.8506 L 11.1369,3.8508 L 11.1369,3.851 L 11.1369,3.8511 L 11.1369,3.8513 L 11.1369,3.8515 L 11.1369,3.8517 L 11.1369,3.8518 L 11.1369,3.852 L 11.1369,3.8522 L 11.1369,3.8524 L 11.1369,3.8525 L 11.1369,3.8527 L 11.1369,3.8529 L 11.1369,3.8531 L 11.1369,3.8532" />
      <path d="M 11.1369,3.8406 L 11.0645,4.1041 L 10.9874,4.3663 L 10.9054,4.627 L 10.8188,4.8862 L 10.7274,5.1438 L 10.6313,5.3997 L 10.5306,5.6537 L 10.4253,5.9059 L 10.3154,6.1562 L 10.201,6.4044 L 10.0821,6.6504 L 9.9587,6.8943 L 9.8308,7.1359 L 9.6986,7.3751 L 9.5621,7.6118 L 9.4213,7.846 L 9.2762,8.0777 L 9.1269,8.3066 L 8.9735,8.5328 L 8.816,8.7561 L 8.6545,8.9766 L 8.4889,9.194 L 8.3194,9.4085 L 8.1461,9.6197 L 7.9689,9.8278 L 7.788,10.0327 L 7.6033,10.2342 L 7.415,10.4323 L 7.2232,10.6269 L 7.0278,10.818 L 6.829,11.0055 L 6.6268,11.1894 L 6.4213,11.3696 L 6.2125,11.5459 L 6.0005,11.7185 L 5.7855,11.8871 L 5.5674,12.0518 L 5.3463,12.2126 L 5.1224,12.3692 L 4.8956,12.5218 L 4.6661,12.6701 L 4.4339,12.8143 L 4.1992,12.9543 L 3.9619,13.0899 L 3.7222,13.2212 L 3.4801,13.3481 L 3.2358,13.4705 L 2.9893,13.5885 L 2.7407,13.702 L 2.49,13.8109 L 2.2374,13.9153 L 1.9829,14.015 L 1.7267,14.1101 L 1.4688,14.2005 L 1.2093,14.2862 L 0.9482,14.3671 L 0.6857,14.4432 L 0.4219,14.5146 L 0.1568,14.5812 L -0.1094,14.6429 L -0.3767,14.6997 L -0.645,14.7517 L -0.9143,14.7988 L -1.1843,14.8409 L -1.455,14.8782 L -1.7264,14.9105 L -1.9984,14.9378 L -2.2707,14.9602 L -2.5435,14.9776 L -2.8165,14.99 L -3.0897,14.9975 L -3.363,15.0" />
      <path d="M -3.363,-15.0 L -3.0897,-14.9975 L -2.8165,-14.99 L -2.5435,-14.9776 L -2.2707,-14.9602 L -1.9984,-14.9378 L -1.7264,-14.9105 L -1.455,-14.8782 L -1.1843,-14.8409 L -0.9143,-14.7988 L -0.645,-14.7517 L -0.3767,-14.6997 L -0.1094,-14.6429 L 0.1568,-14.5812 L 0.4219,-14.5146 L 0.6857,-14.4432 L 0.9482,-14.3671 L 1.2093,-14.2862 L 1.4688,-14.2005 L 1.7267,-14.1101 L 1.9829,-14.015 L 2.2374,-13.9153 L 2.49,-13.8109 L 2.7407,-13.702 L 2.9893,-13.5885 L 3.2358,-13.4705 L 3.4801,-13.3481 L 3.7222,-13.2212 L 3.9619,-13.0899 L 4.1992,-12.9543 L 4.4339,-12.8143 L 4.6661,-12.6701 L 4.8956,-12.5218 L 5.1224,-12.3692 L 5.3463,-12.2126 L 5.5674,-12.0518 L 5.7855,-11.8871 L 6.0005,-11.7185 L 6.2125,-11.5459 L 6.4213,-11.3696 L 6.6268,-11.1894 L 6.829,-11.0055 L 7.0278,-10.818 L 7.2232,-10.6269 L 7.415,-10.4323 L 7.6033,-10.2342 L 7.788,-10.0327 L 7.9689,-9.8278 L 8.1461,-9.6197 L 8.3194,-9.4085 L 8.4889,-9.194 L 8.6545,-8.9766 L 8.816,-8.7561 L 8.9735,-8.5328 L 9.1269,-8.3066 L 9.2762,-8.0777 L 9.4213,-7.846 L 9.5621,-7.6118 L 9.6986,-7.3751 L 9.8308,-7.1359 L 9.9587,-6.8943 L 10.0821,-6.6504 L 10.201,-6.4044 L 10.3154,-6.1562 L 10.4253,-5.9059 L 10.5306,-5.6537 L 10.6313,-5.3997 L 10.7274,-5.1438 L 10.8188,-4.8862 L 10.9054,-4.627 L 10.9874,-4.3663 L 11.0645,-4.1041 L 11.1369,-3.8406" />
      <path d="M -3.3613,6.5 L -3.3614,6.5 L -3.3615,6.5 L -3.3616,6.5 L -3.3617,6.5 L -3.3618,6.5 L -3.3619,6.5 L -3.362,6.5 L -3.3621,6.5 L -3.3622,6.5 L -3.3623,6.5 L -3.3624,6.5 L -3.3625,6.5 L -3.3626,6.5 L -3.3627,6.5 L -3.3628,6.5 L -3.3629,6.5 L -3.363,6.5" />
      <path d="M -3.363,6.5 L -3.6465,6.4938 L -3.9295,6.4753 L -4.2114,6.4444 L -4.4917,6.4012 L -4.7699,6.3459 L -5.0453,6.2785 L -5.3176,6.1992 L -5.5861,6.108 L -5.8504,6.0052 L -6.11,5.891 L -6.3644,5.7656 L -6.613,5.6292 L -6.8554,5.482 L -7.0912,5.3245 L -7.3199,5.1568 L -7.5411,4.9793 L -7.7543,4.7923 L -7.9592,4.5962 L -8.1553,4.3913 L -8.3423,4.1781 L -8.5198,3.9569 L -8.6875,3.7282 L -8.845,3.4924 L -8.9921,3.25 L -9.1285,3.0014 L -9.254,2.747 L -9.3682,2.4874 L -9.471,2.2231 L -9.5621,1.9546 L -9.6415,1.6823 L -9.7089,1.4069 L -9.7642,1.1287 L -9.8074,0.8484 L -9.8382,0.5665 L -9.8568,0.2835 L -9.863,0.0 L -9.8568,-0.2835 L -9.8382,-0.5665 L -9.8074,-0.8484 L -9.7642,-1.1287 L -9.7089,-1.4069 L -9.6415,-1.6823 L -9.5621,-1.9546 L -9.471,-2.2231 L -9.3682,-2.4874 L -9.254,-2.747 L -9.1285,-3.0014 L -8.9921,-3.25 L -8.845,-3.4924 L -8.6875,-3.7282 L -8.5198,-3.9569 L -8.3423,-4.1781 L -8.1553,-4.3913 L -7.9592,-4.5962 L -7.7543,-4.7923 L -7.5411,-4.9793 L -7.3199,-5.1568 L -7.0912,-5.3245 L -6.8554,-5.482 L -6.613,-5.6292 L -6.3644,-5.7656 L -6.11,-5.891 L -5.8504,-6.0052 L -5.5861,-6.108 L -5.3176,-6.1992 L -5.0453,-6.2785 L -4.7699,-6.3459 L -4.4917,-6.4012 L -4.2114,-6.4444 L -3.9295,-6.4753 L -3.6465,-6.4938 L -3.363,-6.5" />
      <path d="M -3.363,-6.5 L -3.3629,-6.5 L -3.3628,-6.5 L -3.3627,-6.5 L -3.3626,-6.5 L -3.3625,-6.5 L -3.3624,-6.5 L -3.3623,-6.5 L -3.3622,-6.5 L -3.3621,-6.5 L -3.362,-6.5 L -3.3619,-6.5 L -3.3618,-6.5 L -3.3617,-6.5 L -3.3616,-6.5 L -3.3615,-6.5 L -3.3614,-6.5 L -3.3613,-6.5" />
      <path d="M 11.1369,3.8406 L 11.137,3.8406 L 11.1371,3.8406 L 11.1372,3.8406 L 11.1373,3.8406 L 11.1374,3.8406 L 11.1375,3.8406 L 11.1376,3.8406 L 11.1377,3.8406 L 11.1378,3.8406 L 11.1379,3.8406 L 11.138,3.8406 L 11.1381,3.8406 L 11.1382,3.8406 L 11.1383,3.8406 L 11.1384,3.8406 L 11.1385,3.8406 L 11.1386,3.8406 L 11.1387,3.8406 L 11.1388,3.8406 L 11.1389,3.8406 L 11.139,3.8406 L 11.1391,3.8406 L 11.1392,3.8406 L 11.1393,3.8406 L 11.1394,3.8406 L 11.1395,3.8406 L 11.1396,3.8406 L 11.1397,3.8406 L 11.1398,3.8406 L 11.1399,3.8406 L 11.14,3.8406 L 11.1401,3.8406 L 11.1402,3.8406 L 11.1403,3.8406" />
      <path d="M 11.1369,-3.8406 L 11.137,-3.8406 L 11.1371,-3.8406 L 11.1372,-3.8406 L 11.1373,-3.8406 L 11.1374,-3.8406 L 11.1375,-3.8406 L 11.1376,-3.8406 L 11.1377,-3.8406 L 11.1378,-3.8406 L 11.1379,-3.8406 L 11.138,-3.8406 L 11.1381,-3.8406 L 11.1382,-3.8406 L 11.1383,-3.8406 L 11.1384,-3.8406 L 11.1385,-3.8406 L 11.1386,-3.8406 L 11.1387,-3.8406 L 11.1388,-3.8406 L 11.1389,-3.8406 L 11.139,-3.8406 L 11.1391,-3.8406 L 11.1392,-3.8406 L 11.1393,-3.8406 L 11.1394,-3.8406 L 11.1395,-3.8406 L 11.1396,-3.8406 L 11.1397,-3.8406 L 11.1398,-3.8406 L 11.1399,-3.8406 L 11.14,-3.8406 L 11.1401,-3.8406 L 11.1402,-3.8406 L 11.1403,-3.8406" />
      <path d="M 12.1369,6.0 L 12.1376,6.0 L 12.1382,6.0 L 12.1389,6.0 L 12.1395,6.0 L 12.1402,6.0 L 12.1408,6.0 L 12.1415,6.0 L 12.1421,6.0 L 12.1428,6.0 L 12.1434,6.0 L 12.1441,6.0 L 12.1448,6.0 L 12.1454,6.0 L 12.1461,6.0 L 12.1467,6.0 L 12.1474,6.0 L 12.148,6.0 L 12.1487,6.0 L 12.1493,6.0 L 12.15,6.0 L 12.1506,6.0 L 12.1513,6.0 L 12.1519,6.0 L 12.1526,6.0 L 12.1532,6.0 L 12.1539,6.0 L 12.1546,6.0 L 12.1552,6.0 L 12.1559,6.0 L 12.1565,6.0 L 12.1572,6.0 L 12.1578,6.0 L 12.1585,6.0 L 12.1591,6.0 L 12.1598,6.0 L 12.1604,6.0 L 12.1611,6.0 L 12.1617,6.0 L 12.1624,6.0 L 12.1631,6.0 L 12.1637,6.0 L 12.1644,6.0 L 12.165,6.0 L 12.1657,6.0 L 12.1663,6.0 L 12.167,6.0 L 12.1676,6.0 L 12.1683,6.0 L 12.1689,6.0 L 12.1696,6.0 L 12.1702,6.0 L 12.1709,6.0 L 12.1715,6.0 L 12.1722,6.0 L 12.1729,6.0 L 12.1735,6.0 L 12.1742,6.0 L 12.1748,6.0 L 12.1755,6.0 L 12.1761,6.0 L 12.1768,6.0 L 12.1774,6.0 L 12.1781,6.0 L 12.1787,6.0 L 12.1794,6.0 L 12.18,6.0 L 12.1807,6.0 L 12.1814,6.0 L 12.182,6.0 L 12.1827,6.0 L 12.1833,6.0 L 12.184,6.0" />
      <path d="M 12.1369,-6.0 L 12.1376,-6.0 L 12.1382,-6.0 L 12.1389,-6.0 L 12.1395,-6.0 L 12.1402,-6.0 L 12.1408,-6.0 L 12.1415,-6.0 L 12.1421,-6.0 L 12.1428,-6.0 L 12.1434,-6.0 L 12.1441,-6.0 L 12.1448,-6.0 L 12.1454,-6.0 L 12.1461,-6.0 L 12.1467,-6.0 L 12.1474,-6.0 L 12.148,-6.0 L 12.1487,-6.0 L 12.1493,-6.0 L 12.15,-6.0 L 12.1506,-6.0 L 12.1513,-6.0 L 12.1519,-6.0 L 12.1526,-6.0 L 12.1532,-6.0 L 12.1539,-6.0 L 12.1546,-6.0 L 12.1552,-6.0 L 12.1559,-6.0 L 12.1565,-6.0 L 12.1572,-6.0 L 12.1578,-6.0 L 12.1585,-6.0 L 12.1591,-6.0 L 12.1598,-6.0 L 12.1604,-6.0 L 12.1611,-6.0 L 12.1617,-6.0 L 12.1624,-6.0 L 12.1631,-6.0 L 12.1637,-6.0 L 12.1644,-6.0 L 12.165,-6.0 L 12.1657,-6.0 L 12.1663,-6.0 L 12.167,-6.0 L 12.1676,-6.0 L 12.1683,-6.0 L 12.1689,-6.0 L 12.1696,-6.0 L 12.1702,-6.0 L 12.1709,-6.0 L 12.1715,-6.0 L 12.1722,-6.0 L 12.1729,-6.0 L 12.1735,-6.0 L 12.1742,-6.0 L 12.1748,-6.0 L 12.1755,-6.0 L 12.1761,-6.0 L 12.1768,-6.0 L 12.1774,-6.0 L 12.1781,-6.0 L 12.1787,-6.0 L 12.1794,-6.0 L 12.18,-6.0 L 12.1807,-6.0 L 12.1814,-6.0 L 12.182,-6.0 L 12.1827,-6.0 L 12.1833,-6.0 L 12.184,-6.0" />
      <path d="M -3.363,-6.5 L -3.3629,-6.5 L -3.3628,-6.5 L -3.3627,-6.5 L -3.3626,-6.5 L -3.3625,-6.5 L -3.3624,-6.5 L -3.3623,-6.5 L -3.3622,-6.5 L -3.3621,-6.5 L -3.362,-6.5 L -3.3619,-6.5 L -3.3618,-6.5 L -3.3617,-6.5 L -3.3616,-6.5 L -3.3615,-6.5 L -3.3614,-6.5 L -3.3613,-6.5 L -3.3612,-6.5 L -3.3611,-6.5 L -3.361,-6.5 L -3.3609,-6.5 L -3.3608,-6.5 L -3.3607,-6.5 L -3.3606,-6.5 L -3.3605,-6.5 L -3.3604,-6.5 L -3.3603,-6.5 L -3.3602,-6.5 L -3.3601,-6.5 L -3.36,-6.5 L -3.3599,-6.5 L -3.3598,-6.5 L -3.3597,-6.5 L -3.3596,-6.5" />
      <path d="M -3.363,6.5 L -3.3629,6.5 L -3.3628,6.5 L -3.3627,6.5 L -3.3626,6.5 L -3.3625,6.5 L -3.3624,6.5 L -3.3623,6.5 L -3.3622,6.5 L -3.3621,6.5 L -3.362,6.5 L -3.3619,6.5 L -3.3618,6.5 L -3.3617,6.5 L -3.3616,6.5 L -3.3615,6.5 L -3.3614,6.5 L -3.3613,6.5 L -3.3612,6.5 L -3.3611,6.5 L -3.361,6.5 L -3.3609,6.5 L -3.3608,6.5 L -3.3607,6.5 L -3.3606,6.5 L -3.3605,6.5 L -3.3604,6.5 L -3.3603,6.5 L -3.3602,6.5 L -3.3601,6.5 L -3.36,6.5 L -3.3599,6.5 L -3.3598,6.5 L -3.3597,6.5 L -3.3596,6.5" />
      <path d="M 30.1985,11.1234 L 30.1845,11.1234 L 30.1704,11.1234 L 30.1564,11.1234 L 30.1423,11.1234 L 30.1283,11.1234 L 30.1142,11.1234 L 30.1002,11.1234 L 30.0861,11.1234 L 30.0721,11.1234 L 30.058,11.1234 L 30.044,11.1234 L 30.0299,11.1234 L 30.0159,11.1234 L 30.0018,11.1234 L 29.9878,11.1234 L 29.9737,11.1234 L 29.9597,11.1234 L 29.9456,11.1234 L 29.9316,11.1234 L 29.9175,11.1234 L 29.9035,11.1234 L 29.8894,11.1234 L 29.8754,11.1234 L 29.8613,11.1234 L 29.8473,11.1234 L 29.8332,11.1234 L 29.8192,11.1234 L 29.8051,11.1234 L 29.7911,11.1234 L 29.777,11.1234 L 29.763,11.1234 L 29.7489,11.1234 L 29.7349,11.1234 L 29.7208,11.1234 L 29.7068,11.1234 L 29.6927,11.1234 L 29.6787,11.1234 L 29.6646,11.1234 L 29.6506,11.1234 L 29.6365,11.1234 L 29.6225,11.1234 L 29.6084,11.1234 L 29.5944,11.1234 L 29.5803,11.1234 L 29.5663,11.1234 L 29.5522,11.1234 L 29.5382,11.1234 L 29.5241,11.1234 L 29.5101,11.1234 L 29.496,11.1234 L 29.482,11.1234 L 29.4679,11.1234 L 29.4539,11.1234 L 29.4398,11.1234 L 29.4258,11.1234 L 29.4117,11.1234 L 29.3977,11.1234 L 29.3837,11.1234 L 29.3696,11.1234 L 29.3556,11.1234 L 29.3415,11.1234 L 29.3275,11.1234 L 29.3134,11.1234 L 29.2994,11.1234 L 29.2853,11.1234 L 29.2713,11.1234 L 29.2572,11.1234 L 29.2432,11.1234 L 29.2291,11.1234 L 29.2151,11.1234 L 29.201,11.1234 L 29.187,11.1234" />
      <path d="M 30.1985,11.1307 L 30.1846,11.1307 L 30.1707,11.1307 L 30.1568,11.1307 L 30.1429,11.1307 L 30.129,11.1307 L 30.1151,11.1307 L 30.1013,11.1307 L 30.0874,11.1307 L 30.0735,11.1307 L 30.0596,11.1307 L 30.0457,11.1307 L 30.0318,11.1307 L 30.0179,11.1307 L 30.004,11.1307 L 29.9901,11.1307 L 29.9763,11.1307 L 29.9624,11.1307 L 29.9485,11.1307 L 29.9346,11.1307 L 29.9207,11.1307 L 29.9068,11.1307 L 29.8929,11.1307 L 29.879,11.1307 L 29.8651,11.1307 L 29.8513,11.1307 L 29.8374,11.1307 L 29.8235,11.1307 L 29.8096,11.1307 L 29.7957,11.1307 L 29.7818,11.1307 L 29.7679,11.1307 L 29.754,11.1307 L 29.7401,11.1307 L 29.7263,11.1307 L 29.7124,11.1307 L 29.6985,11.1307 L 29.6846,11.1307 L 29.6707,11.1307 L 29.6568,11.1307 L 29.6429,11.1307 L 29.629,11.1307 L 29.6151,11.1307 L 29.6013,11.1307 L 29.5874,11.1307 L 29.5735,11.1307 L 29.5596,11.1307 L 29.5457,11.1307 L 29.5318,11.1307 L 29.5179,11.1307 L 29.504,11.1307 L 29.4901,11.1307 L 29.4763,11.1307 L 29.4624,11.1307 L 29.4485,11.1307 L 29.4346,11.1307 L 29.4207,11.1307 L 29.4068,11.1307 L 29.3929,11.1307 L 29.379,11.1307 L 29.3651,11.1307 L 29.3513,11.1307 L 29.3374,11.1307 L 29.3235,11.1307 L 29.3096,11.1307 L 29.2957,11.1307 L 29.2818,11.1307 L 29.2679,11.1307 L 29.254,11.1307 L 29.2401,11.1307 L 29.2263,11.1307 L 29.2124,11.1307 L 29.1985,11.1307" />
      <path d="M 29.1871,11.1565 L 29.1873,11.1561 L 29.1875,11.1557 L 29.1876,11.1554 L 29.1878,11.155 L 29.1879,11.1547 L 29.1881,11.1543 L 29.1882,11.1539 L 29.1884,11.1536 L 29.1886,11.1532 L 29.1887,11.1529 L 29.1889,11.1525 L 29.189,11.1522 L 29.1892,11.1518 L 29.1893,11.1514 L 29.1895,11.1511 L 29.1897,11.1507 L 29.1898,11.1504 L 29.19,11.15 L 29.1901,11.1496 L 29.1903,11.1493 L 29.1904,11.1489 L 29.1906,11.1486 L 29.1908,11.1482 L 29.1909,11.1479 L 29.1911,11.1475 L 29.1912,11.1471 L 29.1914,11.1468 L 29.1916,11.1464 L 29.1917,11.1461 L 29.1919,11.1457 L 29.192,11.1454 L 29.1922,11.145 L 29.1923,11.1446 L 29.1925,11.1443 L 29.1927,11.1439 L 29.1928,11.1436 L 29.193,11.1432 L 29.1931,11.1428 L 29.1933,11.1425 L 29.1934,11.1421 L 29.1936,11.1418 L 29.1938,11.1414 L 29.1939,11.1411 L 29.1941,11.1407 L 29.1942,11.1403 L 29.1944,11.14 L 29.1945,11.1396 L 29.1947,11.1393 L 29.1949,11.1389 L 29.195,11.1385 L 29.1952,11.1382 L 29.1953,11.1378 L 29.1955,11.1375 L 29.1956,11.1371 L 29.1958,11.1368 L 29.196,11.1364 L 29.1961,11.136 L 29.1963,11.1357 L 29.1964,11.1353 L 29.1966,11.135 L 29.1967,11.1346 L 29.1969,11.1343 L 29.1971,11.1339 L 29.1972,11.1335 L 29.1974,11.1332 L 29.1975,11.1328 L 29.1977,11.1325 L 29.1979,11.1321 L 29.198,11.1317 L 29.1982,11.1314 L 29.1983,11.131 L 29.1985,11.1307" />
      <path d="M 30.2017,12.1234 L 30.0072,12.1234 L 29.8128,12.1234 L 29.6183,12.1234 L 29.4239,12.1234 L 29.2294,12.1234 L 29.035,12.1234 L 28.8406,12.1234 L 28.6461,12.1234 L 28.4517,12.1234 L 28.2572,12.1234 L 28.0628,12.1234 L 27.8683,12.1234 L 27.6739,12.1234 L 27.4795,12.1234 L 27.285,12.1234 L 27.0906,12.1234 L 26.8961,12.1234 L 26.7017,12.1234 L 26.5072,12.1234 L 26.3128,12.1234 L 26.1183,12.1234 L 25.9239,12.1234 L 25.7295,12.1234 L 25.535,12.1234 L 25.3406,12.1234 L 25.1461,12.1234 L 24.9517,12.1234 L 24.7572,12.1234 L 24.5628,12.1234 L 24.3683,12.1234 L 24.1739,12.1234 L 23.9795,12.1234 L 23.785,12.1234 L 23.5906,12.1234 L 23.3961,12.1234 L 23.2017,12.1234 L 23.0072,12.1234 L 22.8128,12.1234 L 22.6183,12.1234 L 22.4239,12.1234 L 22.2295,12.1234 L 22.035,12.1234 L 21.8406,12.1234 L 21.6461,12.1234 L 21.4517,12.1234 L 21.2572,12.1234 L 21.0628,12.1234 L 20.8683,12.1234 L 20.6739,12.1234 L 20.4795,12.1234 L 20.285,12.1234 L 20.0906,12.1234 L 19.8961,12.1234 L 19.7017,12.1234 L 19.5072,12.1234 L 19.3128,12.1234 L 19.1183,12.1234 L 18.9239,12.1234 L 18.7295,12.1234 L 18.535,12.1234 L 18.3406,12.1234 L 18.1461,12.1234 L 17.9517,12.1234 L 17.7572,12.1234 L 17.5628,12.1234 L 17.3684,12.1234 L 17.1739,12.1234 L 16.9795,12.1234 L 16.785,12.1234 L 16.5906,12.1234 L 16.3961,12.1234 L 16.2017,12.1234" />
      <path d="M 16.2017,11.1234 L 16.2017,11.1372 L 16.2017,11.1511 L 16.2017,11.165 L 16.2017,11.1789 L 16.2017,11.1928 L 16.2017,11.2067 L 16.2017,11.2206 L 16.2017,11.2345 L 16.2017,11.2484 L 16.2017,11.2622 L 16.2017,11.2761 L 16.2017,11.29 L 16.2017,11.3039 L 16.2017,11.3178 L 16.2017,11.3317 L 16.2017,11.3456 L 16.2017,11.3595 L 16.2017,11.3734 L 16.2017,11.3872 L 16.2017,11.4011 L 16.2017,11.415 L 16.2017,11.4289 L 16.2017,11.4428 L 16.2017,11.4567 L 16.2017,11.4706 L 16.2017,11.4845 L 16.2017,11.4984 L 16.2017,11.5122 L 16.2017,11.5261 L 16.2017,11.54 L 16.2017,11.5539 L 16.2017,11.5678 L 16.2017,11.5817 L 16.2017,11.5956 L 16.2017,11.6095 L 16.2017,11.6234 L 16.2017,11.6372 L 16.2017,11.6511 L 16.2017,11.665 L 16.2017,11.6789 L 16.2017,11.6928 L 16.2017,11.7067 L 16.2017,11.7206 L 16.2017,11.7345 L 16.2017,11.7484 L 16.2017,11.7622 L 16.2017,11.7761 L 16.2017,11.79 L 16.2017,11.8039 L 16.2017,11.8178 L 16.2017,11.8317 L 16.2017,11.8456 L 16.2017,11.8595 L 16.2017,11.8734 L 16.2017,11.8872 L 16.2017,11.9011 L 16.2017,11.915 L 16.2017,11.9289 L 16.2017,11.9428 L 16.2017,11.9567 L 16.2017,11.9706 L 16.2017,11.9845 L 16.2017,11.9984 L 16.2017,12.0122 L 16.2017,12.0261 L 16.2017,12.04 L 16.2017,12.0539 L 16.2017,12.0678 L 16.2017,12.0817 L 16.2017,12.0956 L 16.2017,12.1095 L 16.2017,12.1234" />
      <path d="M 16.184,12.1636 L 16.1842,12.1631 L 16.1845,12.1625 L 16.1847,12.162 L 16.185,12.1614 L 16.1852,12.1608 L 16.1854,12.1603 L 16.1857,12.1597 L 16.1859,12.1592 L 16.1862,12.1586 L 16.1864,12.158 L 16.1867,12.1575 L 16.1869,12.1569 L 16.1872,12.1564 L 16.1874,12.1558 L 16.1877,12.1552 L 16.1879,12.1547 L 16.1881,12.1541 L 16.1884,12.1536 L 16.1886,12.153 L 16.1889,12.1524 L 16.1891,12.1519 L 16.1894,12.1513 L 16.1896,12.1508 L 16.1899,12.1502 L 16.1901,12.1496 L 16.1904,12.1491 L 16.1906,12.1485 L 16.1909,12.148 L 16.1911,12.1474 L 16.1913,12.1468 L 16.1916,12.1463 L 16.1918,12.1457 L 16.1921,12.1452 L 16.1923,12.1446 L 16.1926,12.1441 L 16.1928,12.1435 L 16.1931,12.1429 L 16.1933,12.1424 L 16.1936,12.1418 L 16.1938,12.1413 L 16.1941,12.1407 L 16.1943,12.1401 L 16.1945,12.1396 L 16.1948,12.139 L 16.195,12.1385 L 16.1953,12.1379 L 16.1955,12.1373 L 16.1958,12.1368 L 16.196,12.1362 L 16.1963,12.1357 L 16.1965,12.1351 L 16.1968,12.1345 L 16.197,12.134 L 16.1973,12.1334 L 16.1975,12.1329 L 16.1977,12.1323 L 16.198,12.1317 L 16.1982,12.1312 L 16.1985,12.1306 L 16.1987,12.1301 L 16.199,12.1295 L 16.1992,12.1289 L 16.1995,12.1284 L 16.1997,12.1278 L 16.2,12.1273 L 16.2002,12.1267 L 16.2005,12.1262 L 16.2007,12.1256 L 16.2009,12.125 L 16.2012,12.1245 L 16.2014,12.1239 L 16.2017,12.1234" />
      <path d="M 29.1985,11.1307 L 29.2004,10.7211 L 29.2019,10.3116 L 29.2031,9.9021 L 29.2042,9.4925 L 29.2051,9.083 L 29.206,8.6734 L 29.2068,8.2639 L 29.2075,7.8543 L 29.2081,7.4448 L 29.2087,7.0353 L 29.2093,6.6257 L 29.2098,6.2162 L 29.2103,5.8066 L 29.2108,5.3971 L 29.2112,4.9875 L 29.2116,4.578 L 29.2119,4.1685 L 29.2123,3.7589 L 29.2126,3.3494 L 29.2129,2.9398 L 29.2132,2.5303 L 29.2134,2.1207 L 29.2136,1.7112 L 29.2138,1.3016 L 29.214,0.8921 L 29.2142,0.4826 L 29.2144,0.073 L 29.2145,-0.3365 L 29.2146,-0.7461 L 29.2147,-1.1556 L 29.2148,-1.5652 L 29.2149,-1.9747 L 29.2149,-2.3842 L 29.2149,-2.7938 L 29.215,-3.2033 L 29.215,-3.6129 L 29.2149,-4.0224 L 29.2149,-4.432 L 29.2149,-4.8415 L 29.2148,-5.251 L 29.2147,-5.6606 L 29.2146,-6.0701 L 29.2145,-6.4797 L 29.2144,-6.8892 L 29.2142,-7.2988 L 29.214,-7.7083 L 29.2138,-8.1178 L 29.2136,-8.5274 L 29.2134,-8.9369 L 29.2131,-9.3465 L 29.2129,-9.756 L 29.2126,-10.1656 L 29.2123,-10.5751 L 29.2119,-10.9846 L 29.2116,-11.3942 L 29.2112,-11.8037 L 29.2107,-12.2133 L 29.2103,-12.6228 L 29.2098,-13.0324 L 29.2093,-13.4419 L 29.2087,-13.8515 L 29.2081,-14.261 L 29.2074,-14.6705 L 29.2067,-15.0801 L 29.2059,-15.4896 L 29.205,-15.8992 L 29.204,-16.3087 L 29.2029,-16.7182 L 29.2017,-17.1278 L 29.2001,-17.5373 L 29.198,-17.9469 L 29.1929,-18.3564" />
      <path d="M 29.1928,3.1436 L 29.195,2.9631 L 29.1959,2.7825 L 29.1966,2.602 L 29.1972,2.4214 L 29.1977,2.2409 L 29.1981,2.0603 L 29.1985,1.8798 L 29.1988,1.6992 L 29.1991,1.5186 L 29.1994,1.3381 L 29.1997,1.1575 L 29.1999,0.977 L 29.2002,0.7964 L 29.2004,0.6159 L 29.2006,0.4353 L 29.2008,0.2547 L 29.2009,0.0742 L 29.2011,-0.1064 L 29.2013,-0.2869 L 29.2014,-0.4675 L 29.2015,-0.648 L 29.2016,-0.8286 L 29.2017,-1.0091 L 29.2018,-1.1897 L 29.2019,-1.3703 L 29.202,-1.5508 L 29.2021,-1.7314 L 29.2022,-1.9119 L 29.2022,-2.0925 L 29.2023,-2.273 L 29.2023,-2.4536 L 29.2023,-2.6341 L 29.2024,-2.8147 L 29.2024,-2.9953 L 29.2024,-3.1758 L 29.2024,-3.3564 L 29.2024,-3.5369 L 29.2024,-3.7175 L 29.2024,-3.898 L 29.2024,-4.0786 L 29.2023,-4.2592 L 29.2023,-4.4397 L 29.2022,-4.6203 L 29.2022,-4.8008 L 29.2021,-4.9814 L 29.202,-5.1619 L 29.202,-5.3425 L 29.2019,-5.523 L 29.2018,-5.7036 L 29.2017,-5.8842 L 29.2015,-6.0647 L 29.2014,-6.2453 L 29.2013,-6.4258 L 29.2011,-6.6064 L 29.201,-6.7869 L 29.2008,-6.9675 L 29.2006,-7.148 L 29.2004,-7.3286 L 29.2002,-7.5092 L 29.2,-7.6897 L 29.1997,-7.8703 L 29.1995,-8.0508 L 29.1992,-8.2314 L 29.1989,-8.4119 L 29.1985,-8.5925 L 29.1981,-8.773 L 29.1977,-8.9536 L 29.1972,-9.1342 L 29.1967,-9.3147 L 29.196,-9.4953 L 29.1951,-9.6758 L 29.1928,-9.8564" />
      <path d="M 29.1928,-9.8564 L 29.1906,-9.6758 L 29.1897,-9.4953 L 29.189,-9.3147 L 29.1884,-9.1342 L 29.188,-8.9536 L 29.1875,-8.7731 L 29.1872,-8.5925 L 29.1868,-8.4119 L 29.1865,-8.2314 L 29.1862,-8.0508 L 29.1859,-7.8703 L 29.1857,-7.6897 L 29.1854,-7.5092 L 29.1852,-7.3286 L 29.185,-7.148 L 29.1848,-6.9675 L 29.1847,-6.7869 L 29.1845,-6.6064 L 29.1844,-6.4258 L 29.1842,-6.2453 L 29.1841,-6.0647 L 29.184,-5.8842 L 29.1839,-5.7036 L 29.1838,-5.523 L 29.1837,-5.3425 L 29.1836,-5.1619 L 29.1835,-4.9814 L 29.1835,-4.8008 L 29.1834,-4.6203 L 29.1834,-4.4397 L 29.1833,-4.2591 L 29.1833,-4.0786 L 29.1832,-3.898 L 29.1832,-3.7175 L 29.1832,-3.5369 L 29.1832,-3.3564 L 29.1832,-3.1758 L 29.1832,-2.9952 L 29.1832,-2.8147 L 29.1833,-2.6341 L 29.1833,-2.4536 L 29.1833,-2.273 L 29.1834,-2.0925 L 29.1834,-1.9119 L 29.1835,-1.7314 L 29.1836,-1.5508 L 29.1837,-1.3702 L 29.1838,-1.1897 L 29.1838,-1.0091 L 29.184,-0.8286 L 29.1841,-0.648 L 29.1842,-0.4675 L 29.1843,-0.2869 L 29.1845,-0.1063 L 29.1846,0.0742 L 29.1848,0.2548 L 29.185,0.4353 L 29.1852,0.6159 L 29.1854,0.7964 L 29.1856,0.977 L 29.1859,1.1576 L 29.1861,1.3381 L 29.1864,1.5187 L 29.1868,1.6992 L 29.1871,1.8798 L 29.1875,2.0603 L 29.1879,2.2409 L 29.1884,2.4214 L 29.1889,2.602 L 29.1896,2.7826 L 29.1905,2.9631 L 29.1928,3.1436" />
      <path d="M 30.1928,3.1436 L 30.1789,3.1436 L 30.165,3.1436 L 30.1511,3.1436 L 30.1372,3.1436 L 30.1233,3.1436 L 30.1094,3.1436 L 30.0956,3.1436 L 30.0817,3.1436 L 30.0678,3.1436 L 30.0539,3.1436 L 30.04,3.1436 L 30.0261,3.1436 L 30.0122,3.1436 L 29.9983,3.1436 L 29.9844,3.1436 L 29.9706,3.1436 L 29.9567,3.1436 L 29.9428,3.1436 L 29.9289,3.1436 L 29.915,3.1436 L 29.9011,3.1436 L 29.8872,3.1436 L 29.8733,3.1436 L 29.8594,3.1436 L 29.8456,3.1436 L 29.8317,3.1436 L 29.8178,3.1436 L 29.8039,3.1436 L 29.79,3.1436 L 29.7761,3.1436 L 29.7622,3.1436 L 29.7483,3.1436 L 29.7344,3.1436 L 29.7206,3.1436 L 29.7067,3.1436 L 29.6928,3.1436 L 29.6789,3.1436 L 29.665,3.1436 L 29.6511,3.1436 L 29.6372,3.1436 L 29.6233,3.1436 L 29.6094,3.1436 L 29.5956,3.1436 L 29.5817,3.1436 L 29.5678,3.1436 L 29.5539,3.1436 L 29.54,3.1436 L 29.5261,3.1436 L 29.5122,3.1436 L 29.4983,3.1436 L 29.4844,3.1436 L 29.4706,3.1436 L 29.4567,3.1436 L 29.4428,3.1436 L 29.4289,3.1436 L 29.415,3.1436 L 29.4011,3.1436 L 29.3872,3.1436 L 29.3733,3.1436 L 29.3594,3.1436 L 29.3456,3.1436 L 29.3317,3.1436 L 29.3178,3.1436 L 29.3039,3.1436 L 29.29,3.1436 L 29.2761,3.1436 L 29.2622,3.1436 L 29.2483,3.1436 L 29.2344,3.1436 L 29.2206,3.1436 L 29.2067,3.1436 L 29.1928,3.1436" />
      <path d="M 30.1928,-9.8564 L 30.179,-9.8564 L 30.1651,-9.8564 L 30.1512,-9.8564 L 30.1373,-9.8564 L 30.1234,-9.8564 L 30.1095,-9.8564 L 30.0956,-9.8564 L 30.0817,-9.8564 L 30.0678,-9.8564 L 30.054,-9.8564 L 30.0401,-9.8564 L 30.0262,-9.8564 L 30.0123,-9.8564 L 29.9984,-9.8564 L 29.9845,-9.8564 L 29.9706,-9.8564 L 29.9567,-9.8564 L 29.9428,-9.8564 L 29.929,-9.8564 L 29.9151,-9.8564 L 29.9012,-9.8564 L 29.8873,-9.8564 L 29.8734,-9.8564 L 29.8595,-9.8564 L 29.8456,-9.8564 L 29.8317,-9.8564 L 29.8178,-9.8564 L 29.804,-9.8564 L 29.7901,-9.8564 L 29.7762,-9.8564 L 29.7623,-9.8564 L 29.7484,-9.8564 L 29.7345,-9.8564 L 29.7206,-9.8564 L 29.7067,-9.8564 L 29.6928,-9.8564 L 29.679,-9.8564 L 29.6651,-9.8564 L 29.6512,-9.8564 L 29.6373,-9.8564 L 29.6234,-9.8564 L 29.6095,-9.8564 L 29.5956,-9.8564 L 29.5817,-9.8564 L 29.5678,-9.8564 L 29.554,-9.8564 L 29.5401,-9.8564 L 29.5262,-9.8564 L 29.5123,-9.8564 L 29.4984,-9.8564 L 29.4845,-9.8564 L 29.4706,-9.8564 L 29.4567,-9.8564 L 29.4428,-9.8564 L 29.429,-9.8564 L 29.4151,-9.8564 L 29.4012,-9.8564 L 29.3873,-9.8564 L 29.3734,-9.8564 L 29.3595,-9.8564 L 29.3456,-9.8564 L 29.3317,-9.8564 L 29.3178,-9.8564 L 29.304,-9.8564 L 29.2901,-9.8564 L 29.2762,-9.8564 L 29.2623,-9.8564 L 29.2484,-9.8564 L 29.2345,-9.8564 L 29.2206,-9.8564 L 29.2067,-9.8564 L 29.1928,-9.8564" />
    </g>
  </g>
</svg>