<?xml version='1.0' encoding='utf-8'?>
<svg width="69.9114mm" height="28.4mm" viewBox="-14.2 -14.2 69.9114 28.4" version="1.1" xmlns="http://www.w3.org/2000/svg">
  <g transform="scale(1,-1)" stroke-linecap="round">
    <g fill="none" stroke="rgb(0,0,0)" stroke-width="0.4" id="Visible">
      <path d="M 0.0,9.0 L -0.7844,8.9658 L -1.5628,8.8633 L -2.3294,8.6933 L -3.0782,8.4572 L -3.8036,8.1568 L -4.5,7.7942 L -5.1622,7.3724 L -5.7851,6.8944 L -6.364,6.364 L -6.8944,5.7851 L -7.3724,5.1622 L -7.7942,4.5 L -8.1568,3.8036 L -8.4572,3.0782 L -8.6933,2.3294 L -8.8633,1.5628 L -8.9658,0.7844 L -9.0,-0.0 L -8.9658,-0.7844 L -8.8633,-1.5628 L -8.6933,-2.3294 L -8.4572,-3.0782 L -8.1568,-3.8036 L -7.7942,-4.5 L -7.3724,-5.1622 L -6.8944,-5.7851 L -6.364,-6.364 L -5.7851,-6.8944 L -5.1622,-7.3724 L -4.5,-7.7942 L -3.8036,-8.1568 L -3.0782,-8.4572 L -2.3294,-8.6933 L -1.5628,-8.8633 L -0.7844,-8.9658 L -0.0,-9.0 L 0.7844,-8.9658 L 1.5628,-8.8633 L 2.3294,-8.6933 L 3.0782,-8.4572 L 3.8036,-8.1568 L 4.5,-7.7942 L 5.1622,-7.3724 L 5.7851,-6.8944 L 6.364,-6.364 L 6.8944,-5.7851 L 7.3724,-5.1622 L 7.7942,-4.5 L 8.1568,-3.8036 L 8.4572,-3.0782 L 8.6933,-2.3294 L 8.8633,-1.5628 L 8.9658,-0.7844 L 9.0,0.0 L 8.9658,0.7844 L 8.8633,1.5628 L 8.6933,2.3294 L 8.4572,3.0782 L 8.1568,3.8036 L 7.7942,4.5 L 7.3724,5.1622 L 6.8944,5.7851 L 6.364,6.364 L 5.7851,6.8944 L 5.1622,7.3724 L 4.5,7.7942 L 3.8036,8.1568 L 3.0782,8.4572 L 2.3294,8.6933 L 1.5628,8.8633 L 0.7844,8.9658 L 0.0,9.0" />
      <path d="M 0.0,8.6591 L -0.0174,8.6591 L -0.0348,8.659 L -0.0523,8.6589 L -0.0697,8.6588 L -0.0871,8.6587 L -0.1045,8.6585 L -0.1219,8.6582 L -0.1394,8.658 L -0.1568,8.6577 L -0.1742,8.6573 L -0.1916,8.657 L -0.209,8.6566 L -0.2265,8.6561 L -0.2439,8.6557 L -0.2613,8.6552 L -0.2787,8.6546 L -0.2961,8.654 L -0.3135,8.6534 L -0.3309,8.6528 L -0.3483,8.6521 L -0.3658,8.6514 L -0.3832,8.6506 L -0.4006,8.6498 L -0.418,8.649 L -0.4354,8.6481 L -0.4528,8.6473 L -0.4702,8.6463 L -0.4876,8.6454 L -0.505,8.6444 L -0.5223,8.6433 L -0.5397,8.6423 L -0.5571,8.6412 L -0.5745,8.64 L -0.5919,8.6388 L -0.6093,8.6376 L -0.6266,8.6364 L -0.644,8.6351 L -0.6614,8.6338 L -0.6788,8.6325 L -0.6961,8.6311 L -0.7135,8.6297 L -0.7309,8.6282 L -0.7482,8.6267 L -0.7656,8.6252 L -0.7829,8.6236 L -0.8003,8.622 L -0.8176,8.6204 L -0.835,8.6187 L -0.8523,8.6171 L -0.8696,8.6153 L -0.887,8.6136 L -0.9043,8.6118 L -0.9216,8.6099 L -0.9389,8.608 L -0.9563,8.6061 L -0.9736,8.6042 L -0.9909,8.6022 L -1.0082,8.6002 L -1.0255,8.5982 L -1.0428,8.5961 L -1.0601,8.594 L -1.0774,8.5918 L -1.0946,8.5896 L -1.1119,8.5874 L -1.1292,8.5852 L -1.1465,8.5829 L -1.1637,8.5805 L -1.181,8.5782 L -1.1983,8.5758 L -1.2155,8.5734 L -1.2328,8.5709 L -1.25,8.5684" />
      <path d="M -1.25,-8.5684 L -1.25,-8.3304 L -1.25,-8.0924 L -1.25,-7.8544 L -1.25,-7.6164 L -1.25,-7.3783 L -1.25,-7.1403 L -1.25,-6.9023 L -1.25,-6.6643 L -1.25,-6.4263 L -1.25,-6.1883 L -1.25,-5.9503 L -1.25,-5.7123 L -1.25,-5.4743 L -1.25,-5.2362 L -1.25,-4.9982 L -1.25,-4.7602 L -1.25,-4.5222 L -1.25,-4.2842 L -1.25,-4.0462 L -1.25,-3.8082 L -1.25,-3.5702 L -1.25,-3.3322 L -1.25,-3.0941 L -1.25,-2.8561 L -1.25,-2.6181 L -1.25,-2.3801 L -1.25,-2.1421 L -1.25,-1.9041 L -1.25,-1.6661 L -1.25,-1.4281 L -1.25,-1.1901 L -1.25,-0.952 L -1.25,-0.714 L -1.25,-0.476 L -1.25,-0.238 L -1.25,0.0 L -1.25,0.238 L -1.25,0.476 L -1.25,0.714 L -1.25,0.952 L -1.25,1.1901 L -1.25,1.4281 L -1.25,1.6661 L -1.25,1.9041 L -1.25,2.1421 L -1.25,2.3801 L -1.25,2.6181 L -1.25,2.8561 L -1.25,3.0941 L -1.25,3.3322 L -1.25,3.5702 L -1.25,3.8082 L -1.25,4.0462 L -1.25,4.2842 L -1.25,4.5222 L -1.25,4.7602 L -1.25,4.9982 L -1.25,5.2362 L -1.25,5.4743 L -1.25,5.7123 L -1.25,5.9503 L -1.25,6.1883 L -1.25,6.4263 L -1.25,6.6643 L -1.25,6.9023 L -1.25,7.1403 L -1.25,7.3783 L -1.25,7.6164 L -1.25,7.8544 L -1.25,8.0924 L -1.25,8.3304 L -1.25,8.5684" />
      <path d="M -1.25,-8.5684 L -1.2155,-8.5734 L -1.181,-8.5782 L -1.1465,-8.5829 L -1.1119,-8.5874 L -1.0774,-8.5918 L -1.0428,-8.5961 L -1.0082,-8.6002 L -0.9736,-8.6042 L -0.9389,-8.608 L -0.9043,-8.6118 L -0.8696,-8.6153 L -0.835,-8.6187 L -0.8003,-8.622 L -0.7656,-8.6252 L -0.7309,-8.6282 L -0.6961,-8.6311 L -0.6614,-8.6338 L -0.6266,-8.6364 L -0.5919,-8.6388 L -0.5571,-8.6412 L -0.5223,-8.6433 L -0.4876,-8.6454 L -0.4528,-8.6473 L -0.418,-8.649 L -0.3832,-8.6506 L -0.3483,-8.6521 L -0.3135,-8.6534 L -0.2787,-8.6546 L -0.2439,-8.6557 L -0.209,-8.6566 L -0.1742,-8.6573 L -0.1394,-8.658 L -0.1045,-8.6585 L -0.0697,-8.6588 L -0.0348,-8.659 L 0.0,-8.6591 L 0.0348,-8.659 L 0.0697,-8.6588 L 0.1045,-8.6585 L 0.1394,-8.658 L 0.1742,-8.6573 L 0.209,-8.6566 L 0.2439,-8.6557 L 0.2787,-8.6546 L 0.3135,-8.6534 L 0.3483,-8.6521 L 0.3832,-8.6506 L 0.418,-8.649 L 0.4528,-8.6473 L 0.4876,-8.6454 L 0.5223,-8.6433 L 0.5571,-8.6412 L 0.5919,-8.6388 L 0.6266,-8.6364 L 0.6614,-8.6338 L 0.6961,-8.6311 L 0.7309,-8.6282 L 0.7656,-8.6252 L 0.8003,-8.622 L 0.835,-8.6187 L 0.8696,-8.6153 L 0.9043,-8.6118 L 0.9389,-8.608 L 0.9736,-8.6042 L 1.0082,-8.6002 L 1.0428,-8.5961 L 1.0774,-8.5918 L 1.1119,-8.5874 L 1.1465,-8.5829 L 1.181,-8.5782 L 1.2155,-8.5734 L 1.25,-8.5684" />
      <path d="M 1.25,-8.5684 L 1.25,-8.3304 L 1.25,-8.0924 L 1.25,-7.8544 L 1.25,-7.6164 L 1.25,-7.3783 L 1.25,-7.1403 L 1.25,-6.9023 L 1.25,-6.6643 L 1.25,-6.4263 L 1.25,-6.1883 L 1.25,-5.9503 L 1.25,-5.7123 L 1.25,-5.4743 L 1.25,-5.2362 L 1.25,-4.9982 L 1.25,-4.7602 L 1.25,-4.5222 L 1.25,-4.2842 L 1.25,-4.0462 L 1.25,-3.8082 L 1.25,-3.5702 L 1.25,-3.3322 L 1.25,-3.0941 L 1.25,-2.8561 L 1.25,-2.6181 L 1.25,-2.3801 L 1.25,-2.1421 L 1.25,-1.9041 L 1.25,-1.6661 L 1.25,-1.4281 L 1.25,-1.1901 L 1.25,-0.952 L 1.25,-0.714 L 1.25,-0.476 L 1.25,-0.238 L 1.25,0.0 L 1.25,0.238 L 1.25,0.476 L 1.25,0.714 L 1.25,0.952 L 1.25,1.1901 L 1.25,1.4281 L 1.25,1.6661 L 1.25,1.9041 L 1.25,2.1421 L 1.25,2.3801 L 1.25,2.6181 L 1.25,2.8561 L 1.25,3.0941 L 1.25,3.3322 L 1.25,3.5702 L 1.25,3.8082 L 1.25,4.0462 L 1.25,4.2842 L 1.25,4.5222 L 1.25,4.7602 L 1.25,4.9982 L 1.25,5.2362 L 1.25,5.4743 L 1.25,5.7123 L 1.25,5.9503 L 1.25,6.1883 L 1.25,6.4263 L 1.25,6.6643 L 1.25,6.9023 L 1.25,7.1403 L 1.25,7.3783 L 1.25,7.6164 L 1.25,7.8544 L 1.25,8.0924 L 1.25,8.3304 L 1.25,8.5684" />
      <path d="M 1.25,8.5684 L 1.2328,8.5709 L 1.2155,8.5734 L 1.1983,8.5758 L 1.181,8.5782 L 1.1637,8.5805 L 1.1465,8.5829 L 1.1292,8.5852 L 1.1119,8.5874 L 1.0946,8.5896 L 1.0774,8.5918 L 1.0601,8.594 L 1.0428,8.5961 L 1.0255,8.5982 L 1.0082,8.6002 L 0.9909,8.6022 L 0.9736,8.6042 L 0.9563,8.6061 L 0.9389,8.608 L 0.9216,8.6099 L 0.9043,8.6118 L 0.887,8.6136 L 0.8696,8.6153 L 0.8523,8.6171 L 0.835,8.6187 L 0.8176,8.6204 L 0.8003,8.622 L 0.7829,8.6236 L 0.7656,8.6252 L 0.7482,8.6267 L 0.7309,8.6282 L 0.7135,8.6297 L 0.6961,8.6311 L 0.6788,8.6325 L 0.6614,8.6338 L 0.644,8.6351 L 0.6266,8.6364 L 0.6093,8.6376 L 0.5919,8.6388 L 0.5745,8.64 L 0.5571,8.6412 L 0.5397,8.6423 L 0.5223,8.6433 L 0.505,8.6444 L 0.4876,8.6454 L 0.4702,8.6463 L 0.4528,8.6473 L 0.4354,8.6481 L 0.418,8.649 L 0.4006,8.6498 L 0.3832,8.6506 L 0.3658,8.6514 L 0.3483,8.6521 L 0.3309,8.6528 L 0.3135,8.6534 L 0.2961,8.654 L 0.2787,8.6546 L 0.2613,8.6552 L 0.2439,8.6557 L 0.2265,8.6561 L 0.209,8.6566 L 0.1916,8.657 L 0.1742,8.6573 L 0.1568,8.6577 L 0.1394,8.658 L 0.1219,8.6582 L 0.1045,8.6585 L 0.0871,8.6587 L 0.0697,8.6588 L 0.0523,8.6589 L 0.0348,8.659 L 0.0174,8.6591 L 0.0,8.6591" />
      <path d="M 20.4666,5.0 L 20.8832,5.0 L 21.2999,5.0 L 21.7165,5.0 L 22.1332,5.0 L 22.5498,5.0 L 22.9665,5.0 L 23.3831,5.0 L 23.7998,5.0 L 24.2164,5.0 L 24.633,5.0 L 25.0497,5.0 L 25.4663,5.0 L 25.883,5.0 L 26.2996,5.0 L 26.7163,5.0 L 27.1329,5.0 L 27.5496,5.0 L 27.9662,5.0 L 28.3829,5.0 L 28.7995,5.0 L 29.2162,5.0 L 29.6328,5.0 L 30.0495,5.0 L 30.4661,5.0 L 30.8827,5.0 L 31.2994,5.0 L 31.716,5.0 L 32.1327,5.0 L 32.5493,5.0 L 32.966,5.0 L 33.3826,5.0 L 33.7993,5.0 L 34.2159,5.0 L 34.6326,5.0 L 35.0492,5.0 L 35.4659,5.0 L 35.8825,5.0 L 36.2991,5.0 L 36.7158,5.0 L 37.1324,5.0 L 37.5491,5.0 L 37.9657,5.0 L 38.3824,5.0 L 38.799,5.0 L 39.2157,5.0 L 39.6323,5.0 L 40.049,5.0 L 40.4656,5.0 L 40.8823,5.0 L 41.2989,5.0 L 41.7156,5.0 L 42.1322,5.0 L 42.5488,5.0 L 42.9655,5.0 L 43.3821,5.0 L 43.7988,5.0 L 44.2154,5.0 L 44.6321,5.0 L 45.0487,5.0 L 45.4654,5.0 L 45.882,5.0 L 46.2987,5.0 L 46.7153,5.0 L 47.132,5.0 L 47.5486,5.0 L 47.9653,5.0 L 48.3819,5.0 L 48.7985,5.0 L 49.2152,5.0 L 49.6318,5.0 L 50.0485,5.0 L 50.4651,5.0" />
      <path d="M 50.4651,-5.0 L 50.4759,-4.862 L 50.4803,-4.7232 L 50.4836,-4.5843 L 50.4863,-4.4454 L 50.4886,-4.3065 L 50.4907,-4.1676 L 50.4925,-4.0287 L 50.4942,-3.8898 L 50.4957,-3.7509 L 50.4971,-3.612 L 50.4984,-3.4731 L 50.4996,-3.3341 L 50.5007,-3.1952 L 50.5017,-3.0563 L 50.5027,-2.9174 L 50.5036,-2.7785 L 50.5044,-2.6396 L 50.5052,-2.5006 L 50.5059,-2.3617 L 50.5065,-2.2228 L 50.5072,-2.0839 L 50.5077,-1.945 L 50.5082,-1.8061 L 50.5087,-1.6671 L 50.5092,-1.5282 L 50.5095,-1.3893 L 50.5099,-1.2504 L 50.5102,-1.1115 L 50.5105,-0.9726 L 50.5107,-0.8336 L 50.5109,-0.6947 L 50.5111,-0.5558 L 50.5112,-0.4169 L 50.5113,-0.278 L 50.5113,-0.139 L 50.5114,-0.0001 L 50.5113,0.1388 L 50.5113,0.2777 L 50.5112,0.4166 L 50.5111,0.5555 L 50.5109,0.6945 L 50.5107,0.8334 L 50.5105,0.9723 L 50.5102,1.1112 L 50.5099,1.2501 L 50.5095,1.389 L 50.5092,1.528 L 50.5087,1.6669 L 50.5082,1.8058 L 50.5077,1.9447 L 50.5072,2.0836 L 50.5065,2.2225 L 50.5059,2.3615 L 50.5052,2.5004 L 50.5044,2.6393 L 50.5036,2.7782 L 50.5027,2.9171 L 50.5017,3.056 L 50.5007,3.195 L 50.4996,3.3339 L 50.4984,3.4728 L 50.4971,3.6117 L 50.4957,3.7506 L 50.4942,3.8895 L 50.4925,4.0284 L 50.4907,4.1673 L 50.4886,4.3062 L 50.4863,4.4451 L 50.4836,4.584 L 50.4803,4.7229 L 50.4759,4.8618 L 50.4651,5.0" />
      <path d="M 20.4664,-5.0 L 20.4665,-5.0 L 20.4666,-5.0 L 20.4666,-4.9999 L 20.4667,-4.9999 L 20.4668,-4.9999" />
      <path d="M 20.4668,-4.9999 L 20.4772,-4.8617 L 20.4816,-4.7228 L 20.4849,-4.5839 L 20.4876,-4.4451 L 20.4899,-4.3062 L 20.492,-4.1673 L 20.4938,-4.0284 L 20.4955,-3.8895 L 20.497,-3.7506 L 20.4984,-3.6117 L 20.4997,-3.4728 L 20.5009,-3.3339 L 20.502,-3.195 L 20.503,-3.0561 L 20.504,-2.9172 L 20.5049,-2.7782 L 20.5057,-2.6393 L 20.5065,-2.5004 L 20.5072,-2.3615 L 20.5078,-2.2226 L 20.5084,-2.0837 L 20.509,-1.9448 L 20.5095,-1.8059 L 20.51,-1.667 L 20.5104,-1.5281 L 20.5108,-1.3892 L 20.5112,-1.2503 L 20.5115,-1.1113 L 20.5118,-0.9724 L 20.512,-0.8335 L 20.5122,-0.6946 L 20.5124,-0.5557 L 20.5125,-0.4168 L 20.5126,-0.2779 L 20.5126,-0.139 L 20.5126,-0.0001 L 20.5126,0.1388 L 20.5126,0.2778 L 20.5125,0.4167 L 20.5124,0.5556 L 20.5122,0.6945 L 20.512,0.8334 L 20.5118,0.9723 L 20.5115,1.1112 L 20.5112,1.2501 L 20.5108,1.389 L 20.5104,1.5279 L 20.51,1.6668 L 20.5095,1.8058 L 20.509,1.9447 L 20.5084,2.0836 L 20.5078,2.2225 L 20.5072,2.3614 L 20.5065,2.5003 L 20.5057,2.6392 L 20.5049,2.7781 L 20.504,2.917 L 20.503,3.0559 L 20.502,3.1948 L 20.5009,3.3337 L 20.4997,3.4726 L 20.4984,3.6115 L 20.497,3.7505 L 20.4955,3.8894 L 20.4938,4.0283 L 20.492,4.1672 L 20.4899,4.306 L 20.4876,4.4449 L 20.4849,4.5838 L 20.4816,4.7227 L 20.4772,4.8615 L 20.4668,4.9999" />
      <path d="M 15.4666,9.0 L 15.4665,9.0 L 15.4664,9.0 L 15.4663,8.9999 L 15.4662,8.9999 L 15.4661,8.9999 L 15.4661,8.9998 L 15.466,8.9998 L 15.466,8.9997 L 15.4659,8.9997 L 15.4659,8.9996 L 15.4658,8.9996 L 15.4658,8.9995 L 15.4657,8.9995 L 15.4657,8.9994 L 15.4656,8.9994 L 15.4656,8.9993 L 15.4655,8.9992 L 15.4655,8.9991 L 15.4654,8.9991 L 15.4654,8.999 L 15.4653,8.9989" />
      <path d="M 15.4653,-8.9989 L 15.4654,-8.999 L 15.4654,-8.9991 L 15.4655,-8.9991 L 15.4655,-8.9992 L 15.4656,-8.9993 L 15.4656,-8.9994 L 15.4657,-8.9994 L 15.4657,-8.9995 L 15.4658,-8.9995 L 15.4658,-8.9996 L 15.4659,-8.9996 L 15.4659,-8.9997 L 15.466,-8.9997 L 15.466,-8.9998 L 15.4661,-8.9998 L 15.4662,-8.9999 L 15.4663,-8.9999 L 15.4664,-9.0 L 15.4665,-9.0 L 15.4666,-9.0 L 15.4667,-9.0 L 15.4668,-9.0 L 15.4669,-9.0 L 15.4669,-8.9999 L 15.467,-8.9999 L 15.4671,-8.9999 L 15.4671,-8.9998 L 15.4672,-8.9998" />
      <path d="M 15.4672,-8.9998 L 15.4861,-8.751 L 15.4939,-8.5011 L 15.4999,-8.2511 L 15.5047,-8.0011 L 15.5089,-7.7511 L 15.5126,-7.5011 L 15.5159,-7.2511 L 15.5189,-7.0011 L 15.5217,-6.7511 L 15.5242,-6.501 L 15.5265,-6.251 L 15.5286,-6.001 L 15.5306,-5.7509 L 15.5325,-5.5009 L 15.5342,-5.2509 L 15.5358,-5.0008 L 15.5373,-4.7508 L 15.5387,-4.5008 L 15.54,-4.2507 L 15.5412,-4.0007 L 15.5423,-3.7507 L 15.5433,-3.5006 L 15.5442,-3.2506 L 15.5451,-3.0006 L 15.5459,-2.7505 L 15.5466,-2.5005 L 15.5472,-2.2505 L 15.5478,-2.0004 L 15.5483,-1.7504 L 15.5487,-1.5003 L 15.549,-1.2503 L 15.5493,-1.0003 L 15.5496,-0.7502 L 15.5497,-0.5002 L 15.5498,-0.2502 L 15.5498,-0.0001 L 15.5498,0.2499 L 15.5497,0.5 L 15.5496,0.75 L 15.5493,1.0 L 15.549,1.2501 L 15.5487,1.5001 L 15.5483,1.7501 L 15.5478,2.0002 L 15.5472,2.2502 L 15.5466,2.5003 L 15.5459,2.7503 L 15.5451,3.0003 L 15.5442,3.2504 L 15.5433,3.5004 L 15.5423,3.7504 L 15.5412,4.0005 L 15.54,4.2505 L 15.5387,4.5005 L 15.5373,4.7506 L 15.5358,5.0006 L 15.5342,5.2506 L 15.5325,5.5007 L 15.5306,5.7507 L 15.5287,6.0007 L 15.5265,6.2508 L 15.5242,6.5008 L 15.5217,6.7508 L 15.5189,7.0008 L 15.5159,7.2509 L 15.5126,7.5009 L 15.5089,7.7509 L 15.5047,8.0009 L 15.4999,8.2509 L 15.494,8.5009 L 15.4861,8.7508 L 15.4672,8.9998" />
      <path d="M 15.4672,8.9998 L 15.4671,8.9998 L 15.4671,8.9999 L 15.467,8.9999 L 15.4669,8.9999 L 15.4669,9.0 L 15.4668,9.0 L 15.4667,9.0 L 15.4666,9.0" />
      <path d="M 15.2666,8.6591 L 15.2665,8.6591 L 15.2664,8.6591 L 15.2663,8.659 L 15.2662,8.659 L 15.2661,8.6589 L 15.266,8.6589 L 15.266,8.6588 L 15.2659,8.6588 L 15.2659,8.6587 L 15.2658,8.6587 L 15.2658,8.6586 L 15.2657,8.6586 L 15.2657,8.6585 L 15.2657,8.6584 L 15.2656,8.6584 L 15.2656,8.6583 L 15.2655,8.6583 L 15.2655,8.6582 L 15.2654,8.6581 L 15.2654,8.658 L 15.2653,8.658" />
      <path d="M 15.2653,8.658 L 15.2648,8.6568 L 15.2644,8.6557 L 15.264,8.6545 L 15.2637,8.6532 L 15.2634,8.652 L 15.2631,8.6508 L 15.2629,8.6496 L 15.2626,8.6483 L 15.2624,8.6471 L 15.2622,8.6459 L 15.262,8.6446 L 15.2618,8.6434 L 15.2616,8.6421 L 15.2614,8.6409 L 15.2613,8.6397 L 15.2611,8.6384 L 15.2609,8.6372 L 15.2608,8.6359 L 15.2606,8.6347 L 15.2605,8.6334 L 15.2603,8.6322 L 15.2602,8.6309 L 15.26,8.6297 L 15.2599,8.6284 L 15.2598,8.6272 L 15.2596,8.6259 L 15.2595,8.6247 L 15.2594,8.6234 L 15.2593,8.6222 L 15.2591,8.621 L 15.259,8.6197 L 15.2589,8.6185 L 15.2588,8.6172 L 15.2587,8.616 L 15.2585,8.6147 L 15.2584,8.6135 L 15.2583,8.6122 L 15.2582,8.611 L 15.2581,8.6097 L 15.258,8.6085 L 15.2579,8.6072 L 15.2578,8.606 L 15.2577,8.6047 L 15.2576,8.6035 L 15.2575,8.6022 L 15.2574,8.6009 L 15.2573,8.5997 L 15.2572,8.5984 L 15.2571,8.5972 L 15.257,8.5959 L 15.2569,8.5947 L 15.2568,8.5934 L 15.2567,8.5922 L 15.2566,8.5909 L 15.2565,8.5897 L 15.2564,8.5884 L 15.2563,8.5872 L 15.2562,8.5859 L 15.2562,8.5847 L 15.2561,8.5834 L 15.256,8.5822 L 15.2559,8.5809 L 15.2558,8.5797 L 15.2557,8.5784 L 15.2556,8.5772 L 15.2556,8.5759 L 15.2555,8.5747 L 15.2554,8.5734 L 15.2553,8.5722 L 15.2552,8.5709 L 15.2552,8.5697 L 15.2551,8.5684" />
      <path d="M 15.2551,-8.5684 L 15.1341,-8.3509 L 15.0163,-8.1317 L 14.9016,-7.9109 L 14.7901,-7.6884 L 14.6818,-7.4644 L 14.5767,-7.2388 L 14.4748,-7.0118 L 14.3762,-6.7833 L 14.2808,-6.5534 L 14.1888,-6.3222 L 14.1001,-6.0897 L 14.0147,-5.856 L 13.9326,-5.621 L 13.8539,-5.385 L 13.7786,-5.1478 L 13.7067,-4.9095 L 13.6383,-4.6703 L 13.5732,-4.4301 L 13.5116,-4.189 L 13.4534,-3.947 L 13.3987,-3.7043 L 13.3475,-3.4607 L 13.2998,-3.2165 L 13.2555,-2.9716 L 13.2148,-2.7261 L 13.1776,-2.4801 L 13.1439,-2.2335 L 13.1137,-1.9865 L 13.0871,-1.7391 L 13.064,-1.4913 L 13.0445,-1.2432 L 13.0285,-0.9949 L 13.016,-0.7463 L 13.0071,-0.4976 L 13.0018,-0.2488 L 13.0,0.0 L 13.0018,0.2488 L 13.0071,0.4976 L 13.016,0.7463 L 13.0285,0.9949 L 13.0445,1.2432 L 13.064,1.4913 L 13.0871,1.7391 L 13.1137,1.9865 L 13.1439,2.2335 L 13.1776,2.4801 L 13.2148,2.7261 L 13.2555,2.9716 L 13.2998,3.2165 L 13.3475,3.4607 L 13.3987,3.7043 L 13.4534,3.947 L 13.5116,4.189 L 13.5732,4.4301 L 13.6383,4.6703 L 13.7067,4.9095 L 13.7786,5.1478 L 13.8539,5.385 L 13.9326,5.621 L 14.0147,5.856 L 14.1001,6.0897 L 14.1888,6.3222 L 14.2808,6.5534 L 14.3762,6.7833 L 14.4748,7.0118 L 14.5767,7.2388 L 14.6818,7.4644 L 14.7901,7.6884 L 14.9016,7.9109 L 15.0163,8.1317 L 15.1341,8.3509 L 15.2551,8.5684" />
      <path d="M 15.2551,-8.5684 L 15.2552,-8.5697 L 15.2552,-8.5709 L 15.2553,-8.5722 L 15.2554,-8.5734 L 15.2555,-8.5747 L 15.2556,-8.5759 L 15.2556,-8.5772 L 15.2557,-8.5784 L 15.2558,-8.5797 L 15.2559,-8.5809 L 15.256,-8.5822 L 15.2561,-8.5834 L 15.2562,-8.5847 L 15.2562,-8.5859 L 15.2563,-8.5872 L 15.2564,-8.5884 L 15.2565,-8.5897 L 15.2566,-8.5909 L 15.2567,-8.5922 L 15.2568,-8.5934 L 15.2569,-8.5947 L 15.257,-8.5959 L 15.2571,-8.5972 L 15.2572,-8.5984 L 15.2573,-8.5997 L 15.2574,-8.6009 L 15.2575,-8.6022 L 15.2576,-8.6035 L 15.2577,-8.6047 L 15.2578,-8.606 L 15.2579,-8.6072 L 15.258,-8.6085 L 15.2581,-8.6097 L 15.2582,-8.611 L 15.2583,-8.6122 L 15.2584,-8.6135 L 15.2585,-8.6147 L 15.2587,-8.616 L 15.2588,-8.6172 L 15.2589,-8.6185 L 15.259,-8.6197 L 15.2591,-8.621 L 15.2593,-8.6222 L 15.2594,-8.6234 L 15.2595,-8.6247 L 15.2596,-8.6259 L 15.2598,-8.6272 L 15.2599,-8.6284 L 15.26,-8.6297 L 15.2602,-8.6309 L 15.2603,-8.6322 L 15.2605,-8.6334 L 15.2606,-8.6347 L 15.2608,-8.6359 L 15.2609,-8.6372 L 15.2611,-8.6384 L 15.2613,-8.6397 L 15.2614,-8.6409 L 15.2616,-8.6421 L 15.2618,-8.6434 L 15.262,-8.6446 L 15.2622,-8.6459 L 15.2624,-8.6471 L 15.2626,-8.6483 L 15.2629,-8.6496 L 15.2631,-8.6508 L 15.2634,-8.652 L 15.2637,-8.6532 L 15.264,-8.6545 L 15.2644,-8.6557 L 15.2648,-8.6568 L 15.2653,-8.658" />
      <path d="M 15.2653,-8.658 L 15.2662,-8.659 L 15.2673,-8.6588 L 15.2681,-8.6577 L 15.2686,-8.6565 L 15.269,-8.6552 L 15.2694,-8.654 L 15.2697,-8.6527 L 15.27,-8.6515 L 15.2703,-8.6502 L 15.2705,-8.6489 L 15.2708,-8.6476 L 15.271,-8.6463 L 15.2712,-8.645 L 15.2714,-8.6438 L 15.2716,-8.6425 L 15.2718,-8.6412 L 15.272,-8.6399 L 15.2721,-8.6386 L 15.2723,-8.6373 L 15.2725,-8.636 L 15.2726,-8.6347 L 15.2728,-8.6334 L 15.273,-8.6321 L 15.2731,-8.6308 L 15.2732,-8.6295 L 15.2734,-8.6282 L 15.2735,-8.6269 L 15.2737,-8.6256 L 15.2738,-8.6243 L 15.2739,-8.623 L 15.2741,-8.6217 L 15.2742,-8.6204 L 15.2743,-8.6191 L 15.2744,-8.6178 L 15.2746,-8.6165 L 15.2747,-8.6152 L 15.2748,-8.6139 L 15.2749,-8.6126 L 15.275,-8.6113 L 15.2751,-8.61 L 15.2753,-8.6087 L 15.2754,-8.6074 L 15.2755,-8.6061 L 15.2756,-8.6048 L 15.2757,-8.6035 L 15.2758,-8.6022 L 15.2759,-8.6009 L 15.276,-8.5996 L 15.2761,-8.5983 L 15.2762,-8.597 L 15.2763,-8.5957 L 15.2764,-8.5944 L 15.2765,-8.5931 L 15.2766,-8.5918 L 15.2767,-8.5905 L 15.2768,-8.5892 L 15.2769,-8.5879 L 15.277,-8.5866 L 15.2771,-8.5853 L 15.2772,-8.584 L 15.2772,-8.5827 L 15.2773,-8.5814 L 15.2774,-8.5801 L 15.2775,-8.5788 L 15.2776,-8.5775 L 15.2777,-8.5762 L 15.2778,-8.5749 L 15.2779,-8.5736 L 15.2779,-8.5723 L 15.278,-8.571 L 15.2781,-8.5697 L 15.2782,-8.5684" />
      <path d="M 15.2782,-8.5684 L 15.1572,-8.3509 L 15.0394,-8.1317 L 14.9247,-7.9109 L 14.8132,-7.6884 L 14.7049,-7.4644 L 14.5998,-7.2388 L 14.4979,-7.0118 L 14.3993,-6.7833 L 14.3039,-6.5534 L 14.2119,-6.3222 L 14.1232,-6.0897 L 14.0378,-5.856 L 13.9557,-5.621 L 13.8771,-5.385 L 13.8018,-5.1478 L 13.7299,-4.9095 L 13.6614,-4.6703 L 13.5963,-4.4301 L 13.5347,-4.189 L 13.4765,-3.947 L 13.4218,-3.7043 L 13.3706,-3.4607 L 13.3229,-3.2165 L 13.2787,-2.9716 L 13.2379,-2.7261 L 13.2007,-2.4801 L 13.167,-2.2335 L 13.1368,-1.9865 L 13.1102,-1.7391 L 13.0871,-1.4913 L 13.0676,-1.2432 L 13.0516,-0.9949 L 13.0391,-0.7463 L 13.0302,-0.4976 L 13.0249,-0.2488 L 13.0231,0.0 L 13.0249,0.2488 L 13.0302,0.4976 L 13.0391,0.7463 L 13.0516,0.9949 L 13.0676,1.2432 L 13.0871,1.4913 L 13.1102,1.7391 L 13.1368,1.9865 L 13.167,2.2335 L 13.2007,2.4801 L 13.2379,2.7261 L 13.2787,2.9716 L 13.3229,3.2165 L 13.3706,3.4607 L 13.4218,3.7043 L 13.4765,3.947 L 13.5347,4.189 L 13.5963,4.4301 L 13.6614,4.6703 L 13.7299,4.9095 L 13.8018,5.1478 L 13.8771,5.385 L 13.9557,5.621 L 14.0378,5.856 L 14.1232,6.0897 L 14.2119,6.3222 L 14.3039,6.5534 L 14.3993,6.7833 L 14.4979,7.0118 L 14.5998,7.2388 L 14.7049,7.4644 L 14.8132,7.6884 L 14.9247,7.9109 L 15.0394,8.1317 L 15.1572,8.3509 L 15.2782,8.5684" />
      <path d="M 15.2782,8.5684 L 15.2781,8.5697 L 15.278,8.571 L 15.2779,8.5722 L 15.2779,8.5735 L 15.2778,8.5748 L 15.2777,8.5761 L 15.2776,8.5773 L 15.2775,8.5786 L 15.2774,8.5799 L 15.2774,8.5812 L 15.2773,8.5824 L 15.2772,8.5837 L 15.2771,8.585 L 15.277,8.5863 L 15.2769,8.5876 L 15.2768,8.5888 L 15.2767,8.5901 L 15.2766,8.5914 L 15.2765,8.5927 L 15.2764,8.5939 L 15.2763,8.5952 L 15.2762,8.5965 L 15.2761,8.5978 L 15.276,8.599 L 15.2759,8.6003 L 15.2758,8.6016 L 15.2757,8.6029 L 15.2756,8.6041 L 15.2755,8.6054 L 15.2754,8.6067 L 15.2753,8.608 L 15.2752,8.6092 L 15.2751,8.6105 L 15.275,8.6118 L 15.2749,8.6131 L 15.2748,8.6143 L 15.2746,8.6156 L 15.2745,8.6169 L 15.2744,8.6182 L 15.2743,8.6194 L 15.2742,8.6207 L 15.274,8.622 L 15.2739,8.6233 L 15.2738,8.6245 L 15.2736,8.6258 L 15.2735,8.6271 L 15.2734,8.6284 L 15.2732,8.6296 L 15.2731,8.6309 L 15.2729,8.6322 L 15.2728,8.6334 L 15.2726,8.6347 L 15.2725,8.636 L 15.2723,8.6373 L 15.2722,8.6385 L 15.272,8.6398 L 15.2718,8.6411 L 15.2716,8.6423 L 15.2714,8.6436 L 15.2712,8.6449 L 15.271,8.6461 L 15.2708,8.6474 L 15.2706,8.6486 L 15.2703,8.6499 L 15.2701,8.6512 L 15.2698,8.6524 L 15.2695,8.6536 L 15.2691,8.6549 L 15.2687,8.6561 L 15.2683,8.6573 L 15.2677,8.6584 L 15.2666,8.6591" />
      <path d="M 15.2551,-8.5684 L 15.2551,-8.5678 L 15.2551,-8.5673 L 15.2551,-8.5667 L 15.2551,-8.5661 L 15.2551,-8.5656 L 15.2551,-8.565 L 15.2551,-8.5644 L 15.2551,-8.5638 L 15.2551,-8.5633 L 15.2551,-8.5627 L 15.2551,-8.5621 L 15.2551,-8.5616 L 15.2551,-8.561 L 15.2551,-8.5604 L 15.2551,-8.5599 L 15.2551,-8.5593 L 15.2551,-8.5587 L 15.2551,-8.5581 L 15.2551,-8.5576 L 15.2551,-8.557 L 15.2551,-8.5564 L 15.2551,-8.5559 L 15.2551,-8.5553 L 15.2551,-8.5547 L 15.2551,-8.5542 L 15.2551,-8.5536 L 15.2551,-8.553 L 15.2551,-8.5525 L 15.2551,-8.5519 L 15.2551,-8.5513 L 15.2551,-8.5507 L 15.2551,-8.5502 L 15.2551,-8.5496 L 15.2551,-8.549 L 15.2551,-8.5485 L 15.2551,-8.5479 L 15.2551,-8.5473 L 15.2551,-8.5468 L 15.2551,-8.5462 L 15.2551,-8.5456 L 15.2551,-8.5451 L 15.2551,-8.5445 L 15.2551,-8.5439 L 15.2551,-8.5433 L 15.2551,-8.5428 L 15.2551,-8.5422 L 15.2551,-8.5416 L 15.2551,-8.5411 L 15.2551,-8.5405 L 15.2551,-8.5399 L 15.2551,-8.5394 L 15.2551,-8.5388 L 15.2551,-8.5382 L 15.2551,-8.5376 L 15.2551,-8.5371 L 15.2551,-8.5365 L 15.2551,-8.5359 L 15.2551,-8.5354 L 15.2551,-8.5348 L 15.2551,-8.5342 L 15.2551,-8.5337 L 15.2551,-8.5331 L 15.2551,-8.5325 L 15.2551,-8.532 L 15.2551,-8.5314 L 15.2551,-8.5308 L 15.2551,-8.5302 L 15.2551,-8.5297 L 15.2551,-8.5291 L 15.2551,-8.5285 L 15.2551,-8.528 L 15.2551,-8.5274" />
      <path d="M 15.2551,8.5274 L 15.2551,8.528 L 15.2551,8.5285 L 15.2551,8.5291 L 15.2551,8.5297 L 15.2551,8.5302 L 15.2551,8.5308 L 15.2551,8.5314 L 15.2551,8.532 L 15.2551,8.5325 L 15.2551,8.5331 L 15.2551,8.5337 L 15.2551,8.5342 L 15.2551,8.5348 L 15.2551,8.5354 L 15.2551,8.5359 L 15.2551,8.5365 L 15.2551,8.5371 L 15.2551,8.5376 L 15.2551,8.5382 L 15.2551,8.5388 L 15.2551,8.5394 L 15.2551,8.5399 L 15.2551,8.5405 L 15.2551,8.5411 L 15.2551,8.5416 L 15.2551,8.5422 L 15.2551,8.5428 L 15.2551,8.5433 L 15.2551,8.5439 L 15.2551,8.5445 L 15.2551,8.5451 L 15.2551,8.5456 L 15.2551,8.5462 L 15.2551,8.5468 L 15.2551,8.5473 L 15.2551,8.5479 L 15.2551,8.5485 L 15.2551,8.549 L 15.2551,8.5496 L 15.2551,8.5502 L 15.2551,8.5507 L 15.2551,8.5513 L 15.2551,8.5519 L 15.2551,8.5525 L 15.2551,8.553 L 15.2551,8.5536 L 15.2551,8.5542 L 15.2551,8.5547 L 15.2551,8.5553 L 15.2551,8.5559 L 15.2551,8.5564 L 15.2551,8.557 L 15.2551,8.5576 L 15.2551,8.5581 L 15.2551,8.5587 L 15.2551,8.5593 L 15.2551,8.5599 L 15.2551,8.5604 L 15.2551,8.561 L 15.2551,8.5616 L 15.2551,8.5621 L 15.2551,8.5627 L 15.2551,8.5633 L 15.2551,8.5638 L 15.2551,8.5644 L 15.2551,8.565 L 15.2551,8.5656 L 15.2551,8.5661 L 15.2551,8.5667 L 15.2551,8.5673 L 15.2551,8.5678 L 15.2551,8.5684" />
      <path d="M 20.4666,-5.0 L 20.8832,-5.0 L 21.2999,-5.0 L 21.7165,-5.0 L 22.1332,-5.0 L 22.5498,-5.0 L 22.9665,-5.0 L 23.3831,-5.0 L 23.7998,-5.0 L 24.2164,-5.0 L 24.633,-5.0 L 25.0497,-5.0 L 25.4663,-5.0 L 25.883,-5.0 L 26.2996,-5.0 L 26.7163,-5.0 L 27.1329,-5.0 L 27.5496,-5.0 L 27.9662,-5.0 L 28.3829,-5.0 L 28.7995,-5.0 L 29.2162,-5.0 L 29.6328,-5.0 L 30.0495,-5.0 L 30.4661,-5.0 L 30.8827,-5.0 L 31.2994,-5.0 L 31.716,-5.0 L 32.1327,-5.0 L 32.5493,-5.0 L 32.966,-5.0 L 33.3826,-5.0 L 33.7993,-5.0 L 34.2159,-5.0 L 34.6326,-5.0 L 35.0492,-5.0 L 35.4659,-5.0 L 35.8825,-5.0 L 36.2991,-5.0 L 36.7158,-5.0 L 37.1324,-5.0 L 37.5491,-5.0 L 37.9657,-5.0 L 38.3824,-5.0 L 38.799,-5.0 L 39.2157,-5.0 L 39.6323,-5.0 L 40.049,-5.0 L 40.4656,-5.0 L 40.8823,-5.0 L 41.2989,-5.0 L 41.7156,-5.0 L 42.1322,-5.0 L 42.5488,-5.0 L 42.9655,-5.0 L 43.3821,-5.0 L 43.7988,-5.0 L 44.2154,-5.0 L 44.6321,-5.0 L 45.0487,-5.0 L 45.4654,-5.0 L 45.882,-5.0 L 46.2987,-5.0 L 46.7153,-5.0 L 47.132,-5.0 L 47.5486,-5.0 L 47.9653,-5.0 L 48.3819,-5.0 L 48.7985,-5.0 L 49.2152,-5.0 L 49.6318,-5.0 L 50.0485,-5.0 L 50.4651,-5.0" />
      <path d="M 20.4668,4.9999 L 20.3973,5.0554 L 20.3279,5.111 L 20.2584,5.1665 L 20.189,5.2221 L 20.1196,5.2776 L 20.0501,5.3332 L 19.9807,5.3887 L 19.9113,5.4443 L 19.8418,5.4998 L 19.7724,5.5554 L 19.7029,5.611 L 19.6335,5.6665 L 19.5641,5.7221 L 19.4946,5.7776 L 19.4252,5.8332 L 19.3558,5.8887 L 19.2863,5.9443 L 19.2169,5.9998 L 19.1474,6.0554 L 19.078,6.1109 L 19.0086,6.1665 L 18.9391,6.2221 L 18.8697,6.2776 L 18.8002,6.3332 L 18.7308,6.3887 L 18.6614,6.4443 L 18.5919,6.4998 L 18.5225,6.5554 L 18.4531,6.6109 L 18.3836,6.6665 L 18.3142,6.722 L 18.2447,6.7776 L 18.1753,6.8331 L 18.1059,6.8887 L 18.0364,6.9443 L 17.967,6.9998 L 17.8976,7.0554 L 17.8281,7.1109 L 17.7587,7.1665 L 17.6892,7.222 L 17.6198,7.2776 L 17.5504,7.3331 L 17.4809,7.3887 L 17.4115,7.4442 L 17.3421,7.4998 L 17.2726,7.5553 L 17.2032,7.6109 L 17.1337,7.6665 L 17.0643,7.722 L 16.9949,7.7776 L 16.9254,7.8331 L 16.856,7.8887 L 16.7866,7.9442 L 16.7171,7.9998 L 16.6477,8.0553 L 16.5782,8.1109 L 16.5088,8.1664 L 16.4394,8.222 L 16.3699,8.2776 L 16.3005,8.3331 L 16.2311,8.3887 L 16.1616,8.4442 L 16.0922,8.4998 L 16.0227,8.5553 L 15.9533,8.6109 L 15.8839,8.6664 L 15.8144,8.722 L 15.745,8.7775 L 15.6756,8.8331 L 15.6061,8.8886 L 15.5367,8.9442 L 15.4672,8.9998" />
      <path d="M 20.4668,-4.9999 L 20.3973,-5.0554 L 20.3279,-5.111 L 20.2584,-5.1665 L 20.189,-5.2221 L 20.1196,-5.2776 L 20.0501,-5.3332 L 19.9807,-5.3887 L 19.9113,-5.4443 L 19.8418,-5.4998 L 19.7724,-5.5554 L 19.7029,-5.611 L 19.6335,-5.6665 L 19.5641,-5.7221 L 19.4946,-5.7776 L 19.4252,-5.8332 L 19.3558,-5.8887 L 19.2863,-5.9443 L 19.2169,-5.9998 L 19.1474,-6.0554 L 19.078,-6.1109 L 19.0086,-6.1665 L 18.9391,-6.2221 L 18.8697,-6.2776 L 18.8002,-6.3332 L 18.7308,-6.3887 L 18.6614,-6.4443 L 18.5919,-6.4998 L 18.5225,-6.5554 L 18.4531,-6.6109 L 18.3836,-6.6665 L 18.3142,-6.722 L 18.2447,-6.7776 L 18.1753,-6.8331 L 18.1059,-6.8887 L 18.0364,-6.9443 L 17.967,-6.9998 L 17.8976,-7.0554 L 17.8281,-7.1109 L 17.7587,-7.1665 L 17.6892,-7.222 L 17.6198,-7.2776 L 17.5504,-7.3331 L 17.4809,-7.3887 L 17.4115,-7.4442 L 17.3421,-7.4998 L 17.2726,-7.5553 L 17.2032,-7.6109 L 17.1337,-7.6665 L 17.0643,-7.722 L 16.9949,-7.7776 L 16.9254,-7.8331 L 16.856,-7.8887 L 16.7866,-7.9442 L 16.7171,-7.9998 L 16.6477,-8.0553 L 16.5782,-8.1109 L 16.5088,-8.1664 L 16.4394,-8.222 L 16.3699,-8.2776 L 16.3005,-8.3331 L 16.2311,-8.3887 L 16.1616,-8.4442 L 16.0922,-8.4998 L 16.0227,-8.5553 L 15.9533,-8.6109 L 15.8839,-8.6664 L 15.8144,-8.722 L 15.745,-8.7775 L 15.6756,-8.8331 L 15.6061,-8.8886 L 15.5367,-8.9442 L 15.4672,-8.9998" />
      <path d="M 15.2653,-8.658 L 15.2681,-8.6627 L 15.2708,-8.6675 L 15.2735,-8.6723 L 15.2762,-8.677 L 15.279,-8.6818 L 15.2817,-8.6866 L 15.2844,-8.6913 L 15.2872,-8.6961 L 15.2899,-8.7008 L 15.2927,-8.7056 L 15.2954,-8.7104 L 15.2981,-8.7151 L 15.3009,-8.7199 L 15.3036,-8.7246 L 15.3064,-8.7294 L 15.3091,-8.7341 L 15.3119,-8.7389 L 15.3146,-8.7436 L 15.3174,-8.7484 L 15.3201,-8.7531 L 15.3229,-8.7579 L 15.3256,-8.7626 L 15.3284,-8.7674 L 15.3311,-8.7721 L 15.3339,-8.7769 L 15.3367,-8.7816 L 15.3394,-8.7864 L 15.3422,-8.7911 L 15.345,-8.7958 L 15.3477,-8.8006 L 15.3505,-8.8053 L 15.3533,-8.8101 L 15.3561,-8.8148 L 15.3588,-8.8195 L 15.3616,-8.8243 L 15.3644,-8.829 L 15.3672,-8.8338 L 15.3699,-8.8385 L 15.3727,-8.8432 L 15.3755,-8.848 L 15.3783,-8.8527 L 15.3811,-8.8574 L 15.3839,-8.8621 L 15.3866,-8.8669 L 15.3894,-8.8716 L 15.3922,-8.8763 L 15.395,-8.8811 L 15.3978,-8.8858 L 15.4006,-8.8905 L 15.4034,-8.8952 L 15.4062,-8.9 L 15.409,-8.9047 L 15.4118,-8.9094 L 15.4146,-8.9141 L 15.4174,-8.9188 L 15.4202,-8.9236 L 15.423,-8.9283 L 15.4259,-8.933 L 15.4287,-8.9377 L 15.4315,-8.9424 L 15.4343,-8.9471 L 15.4371,-8.9519 L 15.4399,-8.9566 L 15.4427,-8.9613 L 15.4456,-8.966 L 15.4484,-8.9707 L 15.4512,-8.9754 L 15.454,-8.9801 L 15.4569,-8.9848 L 15.4597,-8.9895 L 15.4625,-8.9942 L 15.4653,-8.9989" />
      <path d="M 15.4653,8.9989 L 15.4625,8.9942 L 15.4597,8.9895 L 15.4569,8.9848 L 15.454,8.9801 L 15.4512,8.9754 L 15.4484,8.9707 L 15.4456,8.966 L 15.4427,8.9613 L 15.4399,8.9566 L 15.4371,8.9519 L 15.4343,8.9471 L 15.4315,8.9424 L 15.4287,8.9377 L 15.4259,8.933 L 15.423,8.9283 L 15.4202,8.9236 L 15.4174,8.9188 L 15.4146,8.9141 L 15.4118,8.9094 L 15.409,8.9047 L 15.4062,8.9 L 15.4034,8.8952 L 15.4006,8.8905 L 15.3978,8.8858 L 15.395,8.8811 L 15.3922,8.8763 L 15.3894,8.8716 L 15.3866,8.8669 L 15.3839,8.8621 L 15.3811,8.8574 L 15.3783,8.8527 L 15.3755,8.848 L 15.3727,8.8432 L 15.3699,8.8385 L 15.3672,8.8338 L 15.3644,8.829 L 15.3616,8.8243 L 15.3588,8.8195 L 15.3561,8.8148 L 15.3533,8.8101 L 15.3505,8.8053 L 15.3477,8.8006 L 15.345,8.7958 L 15.3422,8.7911 L 15.3394,8.7864 L 15.3367,8.7816 L 15.3339,8.7769 L 15.3311,8.7721 L 15.3284,8.7674 L 15.3256,8.7626 L 15.3229,8.7579 L 15.3201,8.7531 L 15.3174,8.7484 L 15.3146,8.7436 L 15.3119,8.7389 L 15.3091,8.7341 L 15.3064,8.7294 L 15.3036,8.7246 L 15.3009,8.7199 L 15.2981,8.7151 L 15.2954,8.7104 L 15.2927,8.7056 L 15.2899,8.7008 L 15.2872,8.6961 L 15.2844,8.6913 L 15.2817,8.6866 L 15.279,8.6818 L 15.2762,8.677 L 15.2735,8.6723 L 15.2708,8.6675 L 15.2681,8.6627 L 15.2653,8.658" />
    </g>
    <g fill="none" stroke="rgb(110,110,110)" stroke-width="0.3" id="Hidden" stroke-dasharray="3.6 0.9">
      <path d="M 0.0,5.0 L -0.4358,4.981 L -0.8682,4.924 L -1.2941,4.8296 L -1.7101,4.6985 L -2.1131,4.5315 L -2.5,4.3301 L -2.8679,4.0958 L -3.2139,3.8302 L -3.5355,3.5355 L -3.8302,3.2139 L -4.0958,2.8679 L -4.3301,2.5 L -4.5315,2.1131 L -4.6985,1.7101 L -4.8296,1.2941 L -4.924,0.8682 L -4.981,0.4358 L -5.0,0.0 L -4.981,-0.4358 L -4.924,-0.8682 L -4.8296,-1.2941 L -4.6985,-1.7101 L -4.5315,-2.1131 L -4.3301,-2.5 L -4.0958,-2.8679 L -3.8302,-3.2139 L -3.5355,-3.5355 L -3.2139,-3.8302 L -2.8679,-4.0958 L -2.5,-4.3301 L -2.1131,-4.5315 L -1.7101,-4.6985 L -1.2941,-4.8296 L -0.8682,-4.924 L -0.4358,-4.981 L -0.0,-5.0 L 0.4358,-4.981 L 0.8682,-4.924 L 1.2941,-4.8296 L 1.7101,-4.6985 L 2.1131,-4.5315 L 2.5,-4.3301 L 2.8679,-4.0958 L 3.2139,-3.8302 L 3.5355,-3.5355 L 3.8302,-3.2139 L 4.0958,-2.8679 L 4.3301,-2.5 L 4.5315,-2.1131 L 4.6985,-1.7101 L 4.8296,-1.2941 L 4.924,-0.8682 L 4.981,-0.4358 L 5.0,-0.0 L 4.981,0.4358 L 4.924,0.8682 L 4.8296,1.2941 L 4.6985,1.7101 L 4.5315,2.1131 L 4.3301,2.5 L 4.0958,2.8679 L 3.8302,3.2139 L 3.5355,3.5355 L 3.2139,3.8302 L 2.8679,4.0958 L 2.5,4.3301 L 2.1131,4.5315 L 1.7101,4.6985 L 1.2941,4.8296 L 0.8682,4.924 L 0.4358,4.981 L 0.0,5.0" />
      <path d="M 0.0,5.0 L -0.4358,4.981 L -0.8682,4.924 L -1.2941,4.8296 L -1.7101,4.6985 L -2.1131,4.5315 L -2.5,4.3301 L -2.8679,4.0958 L -3.2139,3.8302 L -3.5355,3.5355 L -3.8302,3.2139 L -4.0958,2.8679 L -4.3301,2.5 L -4.5315,2.1131 L -4.6985,1.7101 L -4.8296,1.2941 L -4.924,0.8682 L -4.981,0.4358 L -5.0,0.0 L -4.981,-0.4358 L -4.924,-0.8682 L -4.8296,-1.2941 L -4.6985,-1.7101 L -4.5315,-2.1131 L -4.3301,-2.5 L -4.0958,-2.8679 L -3.8302,-3.2139 L -3.5355,-3.5355 L -3.2139,-3.8302 L -2.8679,-4.0958 L -2.5,-4.3301 L -2.1131,-4.5315 L -1.7101,-4.6985 L -1.2941,-4.8296 L -0.8682,-4.924 L -0.4358,-4.981 L -0.0,-5.0 L 0.4358,-4.981 L 0.8682,-4.924 L 1.2941,-4.8296 L 1.7101,-4.6985 L 2.1131,-4.5315 L 2.5,-4.3301 L 2.8679,-4.0958 L 3.2139,-3.8302 L 3.5355,-3.5355 L 3.8302,-3.2139 L 4.0958,-2.8679 L 4.3301,-2.5 L 4.5315,-2.1131 L 4.6985,-1.7101 L 4.8296,-1.2941 L 4.924,-0.8682 L 4.981,-0.4358 L 5.0,-0.0 L 4.981,0.4358 L 4.924,0.8682 L 4.8296,1.2941 L 4.6985,1.7101 L 4.5315,2.1131 L 4.3301,2.5 L 4.0958,2.8679 L 3.8302,3.2139 L 3.5355,3.5355 L 3.2139,3.8302 L 2.8679,4.0958 L 2.5,4.3301 L 2.1131,4.5315 L 1.7101,4.6985 L 1.2941,4.8296 L 0.8682,4.924 L 0.4358,4.981 L 0.0,5.0" />
      <path d="M -1.25,-8.5684 L -1.25,-8.3304 L -1.25,-8.0924 L -1.25,-7.8544 L -1.25,-7.6164 L -1.25,-7.3783 L -1.25,-7.1403 L -1.25,-6.9023 L -1.25,-6.6643 L -1.25,-6.4263 L -1.25,-6.1883 L -1.25,-5.9503 L -1.25,-5.7123 L -1.25,-5.4743 L -1.25,-5.2362 L -1.25,-4.9982 L -1.25,-4.7602 L -1.25,-4.5222 L -1.25,-4.2842 L -1.25,-4.0462 L -1.25,-3.8082 L -1.25,-3.5702 L -1.25,-3.3322 L -1.25,-3.0941 L -1.25,-2.8561 L -1.25,-2.6181 L -1.25,-2.3801 L -1.25,-2.1421 L -1.25,-1.9041 L -1.25,-1.6661 L -1.25,-1.4281 L -1.25,-1.1901 L -1.25,-0.952 L -1.25,-0.714 L -1.25,-0.476 L -1.25,-0.238 L -1.25,0.0 L -1.25,0.238 L -1.25,0.476 L -1.25,0.714 L -1.25,0.952 L -1.25,1.1901 L -1.25,1.4281 L -1.25,1.6661 L -1.25,1.9041 L -1.25,2.1421 L -1.25,2.3801 L -1.25,2.6181 L -1.25,2.8561 L -1.25,3.0941 L -1.25,3.3322 L -1.25,3.5702 L -1.25,3.8082 L -1.25,4.0462 L -1.25,4.2842 L -1.25,4.5222 L -1.25,4.7602 L -1.25,4.9982 L -1.25,5.2362 L -1.25,5.4743 L -1.25,5.7123 L -1.25,5.9503 L -1.25,6.1883 L -1.25,6.4263 L -1.25,6.6643 L -1.25,6.9023 L -1.25,7.1403 L -1.25,7.3783 L -1.25,7.6164 L -1.25,7.8544 L -1.25,8.0924 L -1.25,8.3304 L -1.25,8.5684" />
      <path d="M 1.25,-8.5684 L 1.25,-8.3304 L 1.25,-8.0924 L 1.25,-7.8544 L 1.25,-7.6164 L 1.25,-7.3783 L 1.25,-7.1403 L 1.25,-6.9023 L 1.25,-6.6643 L 1.25,-6.4263 L 1.25,-6.1883 L 1.25,-5.9503 L 1.25,-5.7123 L 1.25,-5.4743 L 1.25,-5.2362 L 1.25,-4.9982 L 1.25,-4.7602 L 1.25,-4.5222 L 1.25,-4.2842 L 1.25,-4.0462 L 1.25,-3.8082 L 1.25,-3.5702 L 1.25,-3.3322 L 1.25,-3.0941 L 1.25,-2.8561 L 1.25,-2.6181 L 1.25,-2.3801 L 1.25,-2.1421 L 1.25,-1.9041 L 1.25,-1.6661 L 1.25,-1.4281 L 1.25,-1.1901 L 1.25,-0.952 L 1.25,-0.714 L 1.25,-0.476 L 1.25,-0.238 L 1.25,0.0 L 1.25,0.238 L 1.25,0.476 L 1.25,0.714 L 1.25,0.952 L 1.25,1.1901 L 1.25,1.4281 L 1.25,1.6661 L 1.25,1.9041 L 1.25,2.1421 L 1.25,2.3801 L 1.25,2.6181 L 1.25,2.8561 L 1.25,3.0941 L 1.25,3.3322 L 1.25,3.5702 L 1.25,3.8082 L 1.25,4.0462 L 1.25,4.2842 L 1.25,4.5222 L 1.25,4.7602 L 1.25,4.9982 L 1.25,5.2362 L 1.25,5.4743 L 1.25,5.7123 L 1.25,5.9503 L 1.25,6.1883 L 1.25,6.4263 L 1.25,6.6643 L 1.25,6.9023 L 1.25,7.1403 L 1.25,7.3783 L 1.25,7.6164 L 1.25,7.8544 L 1.25,8.0924 L 1.25,8.3304 L 1.25,8.5684" />
      <path d="M 20.4664,5.0 L 20.4665,5.0 L 20.4666,5.0" />
      <path d="M 50.4651,5.0 L 50.4543,4.862 L 50.45,4.7232 L 50.4467,4.5843 L 50.444,4.4454 L 50.4416,4.3065 L 50.4396,4.1676 L 50.4377,4.0287 L 50.4361,3.8898 L 50.4346,3.7509 L 50.4332,3.612 L 50.4319,3.4731 L 50.4307,3.3341 L 50.4296,3.1952 L 50.4285,3.0563 L 50.4276,2.9174 L 50.4267,2.7785 L 50.4259,2.6396 L 50.4251,2.5006 L 50.4244,2.3617 L 50.4237,2.2228 L 50.4231,2.0839 L 50.4225,1.945 L 50.422,1.8061 L 50.4215,1.6671 L 50.4211,1.5282 L 50.4207,1.3893 L 50.4204,1.2504 L 50.4201,1.1115 L 50.4198,0.9726 L 50.4195,0.8336 L 50.4193,0.6947 L 50.4192,0.5558 L 50.4191,0.4169 L 50.419,0.278 L 50.4189,0.139 L 50.4189,0.0001 L 50.4189,-0.1388 L 50.419,-0.2777 L 50.4191,-0.4166 L 50.4192,-0.5555 L 50.4193,-0.6945 L 50.4195,-0.8334 L 50.4198,-0.9723 L 50.4201,-1.1112 L 50.4204,-1.2501 L 50.4207,-1.389 L 50.4211,-1.528 L 50.4215,-1.6669 L 50.422,-1.8058 L 50.4225,-1.9447 L 50.4231,-2.0836 L 50.4237,-2.2225 L 50.4244,-2.3615 L 50.4251,-2.5004 L 50.4259,-2.6393 L 50.4267,-2.7782 L 50.4276,-2.9171 L 50.4285,-3.056 L 50.4296,-3.195 L 50.4307,-3.3339 L 50.4319,-3.4728 L 50.4332,-3.6117 L 50.4346,-3.7506 L 50.4361,-3.8895 L 50.4377,-4.0284 L 50.4396,-4.1673 L 50.4416,-4.3062 L 50.444,-4.4451 L 50.4467,-4.584 L 50.45,-4.7229 L 50.4543,-4.8618 L 50.4651,-5.0" />
      <path d="M 20.4664,5.0 L 20.4556,4.862 L 20.4512,4.7232 L 20.448,4.5843 L 20.4452,4.4454 L 20.4429,4.3065 L 20.4409,4.1676 L 20.439,4.0287 L 20.4374,3.8898 L 20.4358,3.7509 L 20.4344,3.612 L 20.4332,3.4731 L 20.432,3.3341 L 20.4308,3.1952 L 20.4298,3.0563 L 20.4289,2.9174 L 20.428,2.7785 L 20.4271,2.6396 L 20.4264,2.5006 L 20.4257,2.3617 L 20.425,2.2228 L 20.4244,2.0839 L 20.4238,1.945 L 20.4233,1.8061 L 20.4228,1.6671 L 20.4224,1.5282 L 20.422,1.3893 L 20.4216,1.2504 L 20.4213,1.1115 L 20.4211,0.9726 L 20.4208,0.8336 L 20.4206,0.6947 L 20.4205,0.5558 L 20.4203,0.4169 L 20.4202,0.278 L 20.4202,0.139 L 20.4202,0.0001 L 20.4202,-0.1388 L 20.4202,-0.2777 L 20.4203,-0.4166 L 20.4205,-0.5555 L 20.4206,-0.6945 L 20.4208,-0.8334 L 20.4211,-0.9723 L 20.4213,-1.1112 L 20.4216,-1.2501 L 20.422,-1.389 L 20.4224,-1.528 L 20.4228,-1.6669 L 20.4233,-1.8058 L 20.4238,-1.9447 L 20.4244,-2.0836 L 20.425,-2.2225 L 20.4257,-2.3615 L 20.4264,-2.5004 L 20.4271,-2.6393 L 20.428,-2.7782 L 20.4289,-2.9171 L 20.4298,-3.056 L 20.4308,-3.195 L 20.432,-3.3339 L 20.4331,-3.4728 L 20.4344,-3.6117 L 20.4358,-3.7506 L 20.4374,-3.8895 L 20.439,-4.0284 L 20.4409,-4.1673 L 20.4429,-4.3062 L 20.4452,-4.4451 L 20.4479,-4.584 L 20.4512,-4.7229 L 20.4556,-4.8618 L 20.4664,-5.0" />
      <path d="M 20.4668,4.9999 L 20.4667,4.9999 L 20.4666,4.9999 L 20.4666,5.0 L 20.4665,5.0 L 20.4664,5.0" />
      <path d="M 15.4653,8.9989 L 15.4471,8.75 L 15.4393,8.5001 L 15.4334,8.2501 L 15.4285,8.0002 L 15.4243,7.7502 L 15.4206,7.5002 L 15.4173,7.2502 L 15.4143,7.0002 L 15.4116,6.7502 L 15.4091,6.5002 L 15.4067,6.2502 L 15.4046,6.0002 L 15.4026,5.7502 L 15.4008,5.5002 L 15.399,5.2502 L 15.3974,5.0002 L 15.3959,4.7502 L 15.3946,4.5002 L 15.3933,4.2502 L 15.3921,4.0002 L 15.391,3.7502 L 15.39,3.5002 L 15.389,3.2502 L 15.3882,3.0002 L 15.3874,2.7502 L 15.3867,2.5002 L 15.386,2.2502 L 15.3855,2.0001 L 15.385,1.7501 L 15.3846,1.5001 L 15.3842,1.2501 L 15.3839,1.0001 L 15.3837,0.7501 L 15.3835,0.5001 L 15.3834,0.2501 L 15.3834,0.0001 L 15.3834,-0.2499 L 15.3835,-0.5 L 15.3837,-0.75 L 15.3839,-1.0 L 15.3842,-1.25 L 15.3846,-1.5 L 15.385,-1.75 L 15.3855,-2.0 L 15.386,-2.25 L 15.3867,-2.5 L 15.3874,-2.75 L 15.3882,-3.0 L 15.389,-3.2501 L 15.39,-3.5001 L 15.391,-3.7501 L 15.3921,-4.0001 L 15.3933,-4.2501 L 15.3946,-4.5001 L 15.3959,-4.7501 L 15.3974,-5.0001 L 15.399,-5.2501 L 15.4008,-5.5001 L 15.4026,-5.7501 L 15.4046,-6.0001 L 15.4067,-6.2501 L 15.4091,-6.5001 L 15.4116,-6.7501 L 15.4143,-7.0001 L 15.4173,-7.2501 L 15.4206,-7.5001 L 15.4243,-7.7501 L 15.4285,-8.0001 L 15.4334,-8.25 L 15.4393,-8.5 L 15.4471,-8.7499 L 15.4653,-8.9989" />
      <path d="M 15.2551,-8.5274 L 15.2551,-8.2905 L 15.2551,-8.0537 L 15.2551,-7.8168 L 15.2551,-7.5799 L 15.2551,-7.343 L 15.2551,-7.1062 L 15.2551,-6.8693 L 15.2551,-6.6324 L 15.2551,-6.3955 L 15.2551,-6.1587 L 15.2551,-5.9218 L 15.2551,-5.6849 L 15.2551,-5.4481 L 15.2551,-5.2112 L 15.2551,-4.9743 L 15.2551,-4.7374 L 15.2551,-4.5006 L 15.2551,-4.2637 L 15.2551,-4.0268 L 15.2551,-3.79 L 15.2551,-3.5531 L 15.2551,-3.3162 L 15.2551,-3.0793 L 15.2551,-2.8425 L 15.2551,-2.6056 L 15.2551,-2.3687 L 15.2551,-2.1318 L 15.2551,-1.895 L 15.2551,-1.6581 L 15.2551,-1.4212 L 15.2551,-1.1844 L 15.2551,-0.9475 L 15.2551,-0.7106 L 15.2551,-0.4737 L 15.2551,-0.2369 L 15.2551,0.0 L 15.2551,0.2369 L 15.2551,0.4737 L 15.2551,0.7106 L 15.2551,0.9475 L 15.2551,1.1844 L 15.2551,1.4212 L 15.2551,1.6581 L 15.2551,1.895 L 15.2551,2.1318 L 15.2551,2.3687 L 15.2551,2.6056 L 15.2551,2.8425 L 15.2551,3.0793 L 15.2551,3.3162 L 15.2551,3.5531 L 15.2551,3.79 L 15.2551,4.0268 L 15.2551,4.2637 L 15.2551,4.5006 L 15.2551,4.7374 L 15.2551,4.9743 L 15.2551,5.2112 L 15.2551,5.4481 L 15.2551,5.6849 L 15.2551,5.9218 L 15.2551,6.1587 L 15.2551,6.3955 L 15.2551,6.6324 L 15.2551,6.8693 L 15.2551,7.1062 L 15.2551,7.343 L 15.2551,7.5799 L 15.2551,7.8168 L 15.2551,8.0537 L 15.2551,8.2905 L 15.2551,8.5274" />
      <path d="M 15.2782,-8.5684 L 15.2782,-8.3304 L 15.2782,-8.0924 L 15.2782,-7.8544 L 15.2782,-7.6164 L 15.2782,-7.3783 L 15.2782,-7.1403 L 15.2782,-6.9023 L 15.2782,-6.6643 L 15.2782,-6.4263 L 15.2782,-6.1883 L 15.2782,-5.9503 L 15.2782,-5.7123 L 15.2782,-5.4743 L 15.2782,-5.2362 L 15.2782,-4.9982 L 15.2782,-4.7602 L 15.2782,-4.5222 L 15.2782,-4.2842 L 15.2782,-4.0462 L 15.2782,-3.8082 L 15.2782,-3.5702 L 15.2782,-3.3322 L 15.2782,-3.0941 L 15.2782,-2.8561 L 15.2782,-2.6181 L 15.2782,-2.3801 L 15.2782,-2.1421 L 15.2782,-1.9041 L 15.2782,-1.6661 L 15.2782,-1.4281 L 15.2782,-1.1901 L 15.2782,-0.952 L 15.2782,-0.714 L 15.2782,-0.476 L 15.2782,-0.238 L 15.2782,0.0 L 15.2782,0.238 L 15.2782,0.476 L 15.2782,0.714 L 15.2782,0.952 L 15.2782,1.1901 L 15.2782,1.4281 L 15.2782,1.6661 L 15.2782,1.9041 L 15.2782,2.1421 L 15.2782,2.3801 L 15.2782,2.6181 L 15.2782,2.8561 L 15.2782,3.0941 L 15.2782,3.3322 L 15.2782,3.5702 L 15.2782,3.8082 L 15.2782,4.0462 L 15.2782,4.2842 L 15.2782,4.5222 L 15.2782,4.7602 L 15.2782,4.9982 L 15.2782,5.2362 L 15.2782,5.4743 L 15.2782,5.7123 L 15.2782,5.9503 L 15.2782,6.1883 L 15.2782,6.4263 L 15.2782,6.6643 L 15.2782,6.9023 L 15.2782,7.1403 L 15.2782,7.3783 L 15.2782,7.6164 L 15.2782,7.8544 L 15.2782,8.0924 L 15.2782,8.3304 L 15.2782,8.5684" />
      <path d="M 20.4664,-5.0 L 20.4665,-5.0 L 20.4666,-5.0" />
    </g>
    <g fill="none" stroke="rgb(0,0,0)" stroke-width="0.2" id="Center" stroke-dasharray="6.35 1.27 1.27 1.27">
      <line x1="0.0" y1="0.0" x2="-12.0" y2="0.0" />
      <line x1="0.0" y1="0.0" x2="12.0" y2="0.0" />
      <line x1="0.0" y1="0.0" x2="0.0" y2="-12.0" />
      <line x1="0.0" y1="0.0" x2="0.0" y2="12.0" />
      <line x1="31.7557" y1="0.0" x2="10.0" y2="0.0" />
      <line x1="31.7557" y1="0.0" x2="53.5114" y2="0.0" />
    </g>
  </g>
</svg>