<?xml version='1.0' encoding='utf-8'?>
<svg width="49.1976mm" height="35.5701mm" viewBox="-17.785 -17.785 49.1976 35.5701" version="1.1" xmlns="http://www.w3.org/2000/svg">
  <g transform="scale(1,-1)" stroke-linecap="round">
    <g fill="none" stroke="rgb(0,0,0)" stroke-width="0.4" id="Visible">
      <path d="M 0.0,13.435 L -0.1866,13.2484 L -0.3732,13.0618 L -0.5598,12.8752 L -0.7464,12.6886 L -0.933,12.502 L -1.1196,12.3154 L -1.3062,12.1288 L -1.4928,11.9422 L -1.6794,11.7557 L -1.866,11.5691 L -2.0526,11.3825 L -2.2392,11.1959 L -2.4258,11.0093 L -2.6124,10.8227 L -2.799,10.6361 L -2.9856,10.4495 L -3.1722,10.2629 L -3.3588,10.0763 L -3.5454,9.8897 L -3.732,9.7031 L -3.9186,9.5165 L -4.1051,9.3299 L -4.2917,9.1433 L -4.4783,8.9567 L -4.6649,8.7701 L -4.8515,8.5835 L -5.0381,8.3969 L -5.2247,8.2103 L -5.4113,8.0237 L -5.5979,7.8371 L -5.7845,7.6505 L -5.9711,7.4639 L -6.1577,7.2773 L -6.3443,7.0907 L -6.5309,6.9041 L -6.7175,6.7175 L -6.9041,6.5309 L -7.0907,6.3443 L -7.2773,6.1577 L -7.4639,5.9711 L -7.6505,5.7845 L -7.8371,5.5979 L -8.0237,5.4113 L -8.2103,5.2247 L -8.3969,5.0381 L -8.5835,4.8515 L -8.7701,4.6649 L -8.9567,4.4783 L -9.1433,4.2917 L -9.3299,4.1051 L -9.5165,3.9186 L -9.7031,3.732 L -9.8897,3.5454 L -10.0763,3.3588 L -10.2629,3.1722 L -10.4495,2.9856 L -10.6361,2.799 L -10.8227,2.6124 L -11.0093,2.4258 L -11.1959,2.2392 L -11.3825,2.0526 L -11.5691,1.866 L -11.7557,1.6794 L -11.9422,1.4928 L -12.1288,1.3062 L -12.3154,1.1196 L -12.502,0.933 L -12.6886,0.7464 L -12.8752,0.5598 L -13.0618,0.3732 L -13.2484,0.1866 L -13.435,-0.0" />
      <path d="M 13.435,0.0 L 13.2484,0.1866 L 13.0618,0.3732 L 12.8752,0.5598 L 12.6886,0.7464 L 12.502,0.933 L 12.3154,1.1196 L 12.1288,1.3062 L 11.9422,1.4928 L 11.7557,1.6794 L 11.5691,1.866 L 11.3825,2.0526 L 11.1959,2.2392 L 11.0093,2.4258 L 10.8227,2.6124 L 10.6361,2.799 L 10.4495,2.9856 L 10.2629,3.1722 L 10.0763,3.3588 L 9.8897,3.5454 L 9.7031,3.732 L 9.5165,3.9186 L 9.3299,4.1051 L 9.1433,4.2917 L 8.9567,4.4783 L 8.7701,4.6649 L 8.5835,4.8515 L 8.3969,5.0381 L 8.2103,5.2247 L 8.0237,5.4113 L 7.8371,5.5979 L 7.6505,5.7845 L 7.4639,5.9711 L 7.2773,6.1577 L 7.0907,6.3443 L 6.9041,6.5309 L 6.7175,6.7175 L 6.5309,6.9041 L 6.3443,7.0907 L 6.1577,7.2773 L 5.9711,7.4639 L 5.7845,7.6505 L 5.5979,7.8371 L 5.4113,8.0237 L 5.2247,8.2103 L 5.0381,8.3969 L 4.8515,8.5835 L 4.6649,8.7701 L 4.4783,8.9567 L 4.2917,9.1433 L 4.1051,9.3299 L 3.9186,9.5165 L 3.732,9.7031 L 3.5454,9.8897 L 3.3588,10.0763 L 3.1722,10.2629 L 2.9856,10.4495 L 2.799,10.6361 L 2.6124,10.8227 L 2.4258,11.0093 L 2.2392,11.1959 L 2.0526,11.3825 L 1.866,11.5691 L 1.6794,11.7557 L 1.4928,11.9422 L 1.3062,12.1288 L 1.1196,12.3154 L 0.933,12.502 L 0.7464,12.6886 L 0.5598,12.8752 L 0.3732,13.0618 L 0.1866,13.2484 L -0.0,13.435" />
      <path d="M -13.435,0.0 L -13.2484,-0.1866 L -13.0618,-0.3732 L -12.8752,-0.5598 L -12.6886,-0.7464 L -12.502,-0.933 L -12.3154,-1.1196 L -12.1288,-1.3062 L -11.9422,-1.4928 L -11.7557,-1.6794 L -11.5691,-1.866 L -11.3825,-2.0526 L -11.1959,-2.2392 L -11.0093,-2.4258 L -10.8227,-2.6124 L -10.6361,-2.799 L -10.4495,-2.9856 L -10.2629,-3.1722 L -10.0763,-3.3588 L -9.8897,-3.5454 L -9.7031,-3.732 L -9.5165,-3.9186 L -9.3299,-4.1051 L -9.1433,-4.2917 L -8.9567,-4.4783 L -8.7701,-4.6649 L -8.5835,-4.8515 L -8.3969,-5.0381 L -8.2103,-5.2247 L -8.0237,-5.4113 L -7.8371,-5.5979 L -7.6505,-5.7845 L -7.4639,-5.9711 L -7.2773,-6.1577 L -7.0907,-6.3443 L -6.9041,-6.5309 L -6.7175,-6.7175 L -6.5309,-6.9041 L -6.3443,-7.0907 L -6.1577,-7.2773 L -5.9711,-7.4639 L -5.7845,-7.6505 L -5.5979,-7.8371 L -5.4113,-8.0237 L -5.2247,-8.2103 L -5.0381,-8.3969 L -4.8515,-8.5835 L -4.6649,-8.7701 L -4.4783,-8.9567 L -4.2917,-9.1433 L -4.1051,-9.3299 L -3.9186,-9.5165 L -3.732,-9.7031 L -3.5454,-9.8897 L -3.3588,-10.0763 L -3.1722,-10.2629 L -2.9856,-10.4495 L -2.799,-10.6361 L -2.6124,-10.8227 L -2.4258,-11.0093 L -2.2392,-11.1959 L -2.0526,-11.3825 L -1.866,-11.5691 L -1.6794,-11.7557 L -1.4928,-11.9422 L -1.3062,-12.1288 L -1.1196,-12.3154 L -0.933,-12.502 L -0.7464,-12.6886 L -0.5598,-12.8752 L -0.3732,-13.0618 L -0.1866,-13.2484 L 0.0,-13.435" />
      <path d="M 0.0,-13.435 L 0.1866,-13.2484 L 0.3732,-13.0618 L 0.5598,-12.8752 L 0.7464,-12.6886 L 0.933,-12.502 L 1.1196,-12.3154 L 1.3062,-12.1288 L 1.4928,-11.9422 L 1.6794,-11.7557 L 1.866,-11.5691 L 2.0526,-11.3825 L 2.2392,-11.1959 L 2.4258,-11.0093 L 2.6124,-10.8227 L 2.799,-10.6361 L 2.9856,-10.4495 L 3.1722,-10.2629 L 3.3588,-10.0763 L 3.5454,-9.8897 L 3.732,-9.7031 L 3.9186,-9.5165 L 4.1051,-9.3299 L 4.2917,-9.1433 L 4.4783,-8.9567 L 4.6649,-8.7701 L 4.8515,-8.5835 L 5.0381,-8.3969 L 5.2247,-8.2103 L 5.4113,-8.0237 L 5.5979,-7.8371 L 5.7845,-7.6505 L 5.9711,-7.4639 L 6.1577,-7.2773 L 6.3443,-7.0907 L 6.5309,-6.9041 L 6.7175,-6.7175 L 6.9041,-6.5309 L 7.0907,-6.3443 L 7.2773,-6.1577 L 7.4639,-5.9711 L 7.6505,-5.7845 L 7.8371,-5.5979 L 8.0237,-5.4113 L 8.2103,-5.2247 L 8.3969,-5.0381 L 8.5835,-4.8515 L 8.7701,-4.6649 L 8.9567,-4.4783 L 9.1433,-4.2917 L 9.3299,-4.1051 L 9.5165,-3.9186 L 9.7031,-3.732 L 9.8897,-3.5454 L 10.0763,-3.3588 L 10.2629,-3.1722 L 10.4495,-2.9856 L 10.6361,-2.799 L 10.8227,-2.6124 L 11.0093,-2.4258 L 11.1959,-2.2392 L 11.3825,-2.0526 L 11.5691,-1.866 L 11.7557,-1.6794 L 11.9422,-1.4928 L 12.1288,-1.3062 L 12.3154,-1.1196 L 12.502,-0.933 L 12.6886,-0.7464 L 12.8752,-0.5598 L 13.0618,-0.3732 L 13.2484,-0.1866 L 13.435,0.0" />
      <path d="M 0.0,5.05 L -0.4401,5.0308 L -0.8769,4.9733 L -1.307,4.8779 L -1.7272,4.7454 L -2.1342,4.5769 L -2.525,4.3734 L -2.8966,4.1367 L -3.2461,3.8685 L -3.5709,3.5709 L -3.8685,3.2461 L -4.1367,2.8966 L -4.3734,2.525 L -4.5769,2.1342 L -4.7454,1.7272 L -4.8779,1.307 L -4.9733,0.8769 L -5.0308,0.4401 L -5.05,-0.0 L -5.0308,-0.4401 L -4.9733,-0.8769 L -4.8779,-1.307 L -4.7454,-1.7272 L -4.5769,-2.1342 L -4.3734,-2.525 L -4.1367,-2.8966 L -3.8685,-3.2461 L -3.5709,-3.5709 L -3.2461,-3.8685 L -2.8966,-4.1367 L -2.525,-4.3734 L -2.1342,-4.5769 L -1.7272,-4.7454 L -1.307,-4.8779 L -0.8769,-4.9733 L -0.4401,-5.0308 L 0.0,-5.05 L 0.4401,-5.0308 L 0.8769,-4.9733 L 1.307,-4.8779 L 1.7272,-4.7454 L 2.1342,-4.5769 L 2.525,-4.3734 L 2.8966,-4.1367 L 3.2461,-3.8685 L 3.5709,-3.5709 L 3.8685,-3.2461 L 4.1367,-2.8966 L 4.3734,-2.525 L 4.5769,-2.1342 L 4.7454,-1.7272 L 4.8779,-1.307 L 4.9733,-0.8769 L 5.0308,-0.4401 L 5.05,0.0 L 5.0308,0.4401 L 4.9733,0.8769 L 4.8779,1.307 L 4.7454,1.7272 L 4.5769,2.1342 L 4.3734,2.525 L 4.1367,2.8966 L 3.8685,3.2461 L 3.5709,3.5709 L 3.2461,3.8685 L 2.8966,4.1367 L 2.525,4.3734 L 2.1342,4.5769 L 1.7272,4.7454 L 1.307,4.8779 L 0.8769,4.9733 L 0.4401,5.0308 L -0.0,5.05" />
      <path d="M 26.9987,13.435 L 26.8668,13.435 L 26.7349,13.435 L 26.6029,13.435 L 26.471,13.435 L 26.339,13.435 L 26.2071,13.435 L 26.0751,13.435 L 25.9432,13.435 L 25.8113,13.435 L 25.6793,13.435 L 25.5474,13.435 L 25.4154,13.435 L 25.2835,13.435 L 25.1515,13.435 L 25.0196,13.435 L 24.8877,13.435 L 24.7557,13.435 L 24.6238,13.435 L 24.4918,13.435 L 24.3599,13.435 L 24.2279,13.435 L 24.096,13.435 L 23.964,13.435 L 23.8321,13.435 L 23.7002,13.435 L 23.5682,13.435 L 23.4363,13.435 L 23.3043,13.435 L 23.1724,13.435 L 23.0404,13.435 L 22.9085,13.435 L 22.7766,13.435 L 22.6446,13.435 L 22.5127,13.435 L 22.3807,13.435 L 22.2488,13.435 L 22.1168,13.435 L 21.9849,13.435 L 21.853,13.435 L 21.721,13.435 L 21.5891,13.435 L 21.4571,13.435 L 21.3252,13.435 L 21.1932,13.435 L 21.0613,13.435 L 20.9294,13.435 L 20.7974,13.435 L 20.6655,13.435 L 20.5335,13.435 L 20.4016,13.435 L 20.2696,13.435 L 20.1377,13.435 L 20.0058,13.435 L 19.8738,13.435 L 19.7419,13.435 L 19.6099,13.435 L 19.478,13.435 L 19.346,13.435 L 19.2141,13.435 L 19.0822,13.435 L 18.9502,13.435 L 18.8183,13.435 L 18.6863,13.435 L 18.5544,13.435 L 18.4224,13.435 L 18.2905,13.435 L 18.1586,13.435 L 18.0266,13.435 L 17.8947,13.435 L 17.7627,13.435 L 17.6308,13.435 L 17.4988,13.435" />
      <path d="M 26.9987,13.435 L 26.9996,13.2484 L 27.0005,13.0618 L 27.0014,12.8752 L 27.0023,12.6886 L 27.0032,12.502 L 27.0041,12.3154 L 27.0049,12.1288 L 27.0058,11.9422 L 27.0067,11.7557 L 27.0076,11.5691 L 27.0085,11.3825 L 27.0094,11.1959 L 27.0103,11.0093 L 27.0111,10.8227 L 27.012,10.6361 L 27.0129,10.4495 L 27.0138,10.2629 L 27.0147,10.0763 L 27.0156,9.8897 L 27.0165,9.7031 L 27.0174,9.5165 L 27.0182,9.3299 L 27.0191,9.1433 L 27.02,8.9567 L 27.0209,8.7701 L 27.0218,8.5835 L 27.0227,8.3969 L 27.0236,8.2103 L 27.0244,8.0237 L 27.0253,7.8371 L 27.0262,7.6505 L 27.0271,7.4639 L 27.028,7.2773 L 27.0289,7.0907 L 27.0298,6.9041 L 27.0306,6.7175 L 27.0315,6.5309 L 27.0324,6.3443 L 27.0333,6.1577 L 27.0342,5.9711 L 27.0351,5.7845 L 27.036,5.5979 L 27.0368,5.4113 L 27.0377,5.2247 L 27.0386,5.0381 L 27.0395,4.8515 L 27.0404,4.6649 L 27.0413,4.4783 L 27.0422,4.2917 L 27.0431,4.1051 L 27.0439,3.9186 L 27.0448,3.732 L 27.0457,3.5454 L 27.0466,3.3588 L 27.0475,3.1722 L 27.0484,2.9856 L 27.0493,2.799 L 27.0501,2.6124 L 27.051,2.4258 L 27.0519,2.2392 L 27.0528,2.0526 L 27.0537,1.866 L 27.0546,1.6794 L 27.0555,1.4928 L 27.0563,1.3062 L 27.0572,1.1196 L 27.0581,0.933 L 27.059,0.7464 L 27.0599,0.5598 L 27.0608,0.3732 L 27.0617,0.1866 L 27.0626,0.0" />
      <path d="M 26.9349,0.0 L 26.803,0.0 L 26.671,0.0 L 26.5391,0.0 L 26.4071,0.0 L 26.2752,0.0 L 26.1433,0.0 L 26.0113,0.0 L 25.8794,0.0 L 25.7474,0.0 L 25.6155,0.0 L 25.4835,0.0 L 25.3516,0.0 L 25.2197,0.0 L 25.0877,0.0 L 24.9558,0.0 L 24.8238,0.0 L 24.6919,0.0 L 24.5599,0.0 L 24.428,0.0 L 24.2961,0.0 L 24.1641,0.0 L 24.0322,0.0 L 23.9002,0.0 L 23.7683,0.0 L 23.6363,0.0 L 23.5044,0.0 L 23.3725,0.0 L 23.2405,0.0 L 23.1086,0.0 L 22.9766,0.0 L 22.8447,0.0 L 22.7127,0.0 L 22.5808,0.0 L 22.4489,0.0 L 22.3169,0.0 L 22.185,0.0 L 22.053,0.0 L 21.9211,0.0 L 21.7891,0.0 L 21.6572,0.0 L 21.5253,0.0 L 21.3933,0.0 L 21.2614,0.0 L 21.1294,0.0 L 20.9975,0.0 L 20.8655,0.0 L 20.7336,0.0 L 20.6017,0.0 L 20.4697,0.0 L 20.3378,0.0 L 20.2058,0.0 L 20.0739,0.0 L 19.9419,0.0 L 19.81,0.0 L 19.6781,0.0 L 19.5461,0.0 L 19.4142,0.0 L 19.2822,0.0 L 19.1503,0.0 L 19.0183,0.0 L 18.8864,0.0 L 18.7545,0.0 L 18.6225,0.0 L 18.4906,0.0 L 18.3586,0.0 L 18.2267,0.0 L 18.0947,0.0 L 17.9628,0.0 L 17.8309,0.0 L 17.6989,0.0 L 17.567,0.0 L 17.435,0.0" />
      <path d="M 26.9349,0.0 L 26.9358,0.1866 L 26.9367,0.3732 L 26.9376,0.5598 L 26.9385,0.7464 L 26.9394,0.933 L 26.9402,1.1196 L 26.9411,1.3062 L 26.942,1.4928 L 26.9429,1.6794 L 26.9438,1.866 L 26.9447,2.0526 L 26.9456,2.2392 L 26.9464,2.4258 L 26.9473,2.6124 L 26.9482,2.799 L 26.9491,2.9856 L 26.95,3.1722 L 26.9509,3.3588 L 26.9518,3.5454 L 26.9526,3.732 L 26.9535,3.9186 L 26.9544,4.1051 L 26.9553,4.2917 L 26.9562,4.4783 L 26.9571,4.6649 L 26.958,4.8515 L 26.9589,5.0381 L 26.9597,5.2247 L 26.9606,5.4113 L 26.9615,5.5979 L 26.9624,5.7845 L 26.9633,5.9711 L 26.9642,6.1577 L 26.9651,6.3443 L 26.9659,6.5309 L 26.9668,6.7175 L 26.9677,6.9041 L 26.9686,7.0907 L 26.9695,7.2773 L 26.9704,7.4639 L 26.9713,7.6505 L 26.9721,7.8371 L 26.973,8.0237 L 26.9739,8.2103 L 26.9748,8.3969 L 26.9757,8.5835 L 26.9766,8.7701 L 26.9775,8.9567 L 26.9784,9.1433 L 26.9792,9.3299 L 26.9801,9.5165 L 26.981,9.7031 L 26.9819,9.8897 L 26.9828,10.0763 L 26.9837,10.2629 L 26.9846,10.4495 L 26.9854,10.6361 L 26.9863,10.8227 L 26.9872,11.0093 L 26.9881,11.1959 L 26.989,11.3825 L 26.9899,11.5691 L 26.9908,11.7557 L 26.9916,11.9422 L 26.9925,12.1288 L 26.9934,12.3154 L 26.9943,12.502 L 26.9952,12.6886 L 26.9961,12.8752 L 26.997,13.0618 L 26.9979,13.2484 L 26.9987,13.435" />
      <path d="M 17.435,0.0 L 17.4359,0.1866 L 17.4368,0.3732 L 17.4377,0.5598 L 17.4386,0.7464 L 17.4395,0.933 L 17.4403,1.1196 L 17.4412,1.3062 L 17.4421,1.4928 L 17.443,1.6794 L 17.4439,1.866 L 17.4448,2.0526 L 17.4457,2.2392 L 17.4466,2.4258 L 17.4474,2.6124 L 17.4483,2.799 L 17.4492,2.9856 L 17.4501,3.1722 L 17.451,3.3588 L 17.4519,3.5454 L 17.4528,3.732 L 17.4536,3.9186 L 17.4545,4.1051 L 17.4554,4.2917 L 17.4563,4.4783 L 17.4572,4.6649 L 17.4581,4.8515 L 17.459,5.0381 L 17.4598,5.2247 L 17.4607,5.4113 L 17.4616,5.5979 L 17.4625,5.7845 L 17.4634,5.9711 L 17.4643,6.1577 L 17.4652,6.3443 L 17.4661,6.5309 L 17.4669,6.7175 L 17.4678,6.9041 L 17.4687,7.0907 L 17.4696,7.2773 L 17.4705,7.4639 L 17.4714,7.6505 L 17.4723,7.8371 L 17.4731,8.0237 L 17.474,8.2103 L 17.4749,8.3969 L 17.4758,8.5835 L 17.4767,8.7701 L 17.4776,8.9567 L 17.4785,9.1433 L 17.4793,9.3299 L 17.4802,9.5165 L 17.4811,9.7031 L 17.482,9.8897 L 17.4829,10.0763 L 17.4838,10.2629 L 17.4847,10.4495 L 17.4855,10.6361 L 17.4864,10.8227 L 17.4873,11.0093 L 17.4882,11.1959 L 17.4891,11.3825 L 17.49,11.5691 L 17.4909,11.7557 L 17.4918,11.9422 L 17.4926,12.1288 L 17.4935,12.3154 L 17.4944,12.502 L 17.4953,12.6886 L 17.4962,12.8752 L 17.4971,13.0618 L 17.498,13.2484 L 17.4988,13.435" />
      <path d="M 26.9987,-13.435 L 26.8668,-13.435 L 26.7349,-13.435 L 26.6029,-13.435 L 26.471,-13.435 L 26.339,-13.435 L 26.2071,-13.435 L 26.0751,-13.435 L 25.9432,-13.435 L 25.8113,-13.435 L 25.6793,-13.435 L 25.5474,-13.435 L 25.4154,-13.435 L 25.2835,-13.435 L 25.1515,-13.435 L 25.0196,-13.435 L 24.8877,-13.435 L 24.7557,-13.435 L 24.6238,-13.435 L 24.4918,-13.435 L 24.3599,-13.435 L 24.2279,-13.435 L 24.096,-13.435 L 23.964,-13.435 L 23.8321,-13.435 L 23.7002,-13.435 L 23.5682,-13.435 L 23.4363,-13.435 L 23.3043,-13.435 L 23.1724,-13.435 L 23.0404,-13.435 L 22.9085,-13.435 L 22.7766,-13.435 L 22.6446,-13.435 L 22.5127,-13.435 L 22.3807,-13.435 L 22.2488,-13.435 L 22.1168,-13.435 L 21.9849,-13.435 L 21.853,-13.435 L 21.721,-13.435 L 21.5891,-13.435 L 21.4571,-13.435 L 21.3252,-13.435 L 21.1932,-13.435 L 21.0613,-13.435 L 20.9294,-13.435 L 20.7974,-13.435 L 20.6655,-13.435 L 20.5335,-13.435 L 20.4016,-13.435 L 20.2696,-13.435 L 20.1377,-13.435 L 20.0058,-13.435 L 19.8738,-13.435 L 19.7419,-13.435 L 19.6099,-13.435 L 19.478,-13.435 L 19.346,-13.435 L 19.2141,-13.435 L 19.0822,-13.435 L 18.9502,-13.435 L 18.8183,-13.435 L 18.6863,-13.435 L 18.5544,-13.435 L 18.4224,-13.435 L 18.2905,-13.435 L 18.1586,-13.435 L 18.0266,-13.435 L 17.8947,-13.435 L 17.7627,-13.435 L 17.6308,-13.435 L 17.4988,-13.435" />
      <path d="M 27.0626,0.0 L 27.0617,-0.1866 L 27.0608,-0.3732 L 27.0599,-0.5598 L 27.059,-0.7464 L 27.0581,-0.933 L 27.0572,-1.1196 L 27.0563,-1.3062 L 27.0555,-1.4928 L 27.0546,-1.6794 L 27.0537,-1.866 L 27.0528,-2.0526 L 27.0519,-2.2392 L 27.051,-2.4258 L 27.0501,-2.6124 L 27.0493,-2.799 L 27.0484,-2.9856 L 27.0475,-3.1722 L 27.0466,-3.3588 L 27.0457,-3.5454 L 27.0448,-3.732 L 27.0439,-3.9186 L 27.0431,-4.1051 L 27.0422,-4.2917 L 27.0413,-4.4783 L 27.0404,-4.6649 L 27.0395,-4.8515 L 27.0386,-5.0381 L 27.0377,-5.2247 L 27.0368,-5.4113 L 27.036,-5.5979 L 27.0351,-5.7845 L 27.0342,-5.9711 L 27.0333,-6.1577 L 27.0324,-6.3443 L 27.0315,-6.5309 L 27.0306,-6.7175 L 27.0298,-6.9041 L 27.0289,-7.0907 L 27.028,-7.2773 L 27.0271,-7.4639 L 27.0262,-7.6505 L 27.0253,-7.8371 L 27.0244,-8.0237 L 27.0236,-8.2103 L 27.0227,-8.3969 L 27.0218,-8.5835 L 27.0209,-8.7701 L 27.02,-8.9567 L 27.0191,-9.1433 L 27.0182,-9.3299 L 27.0174,-9.5165 L 27.0165,-9.7031 L 27.0156,-9.8897 L 27.0147,-10.0763 L 27.0138,-10.2629 L 27.0129,-10.4495 L 27.012,-10.6361 L 27.0111,-10.8227 L 27.0103,-11.0093 L 27.0094,-11.1959 L 27.0085,-11.3825 L 27.0076,-11.5691 L 27.0067,-11.7557 L 27.0058,-11.9422 L 27.0049,-12.1288 L 27.0041,-12.3154 L 27.0032,-12.502 L 27.0023,-12.6886 L 27.0014,-12.8752 L 27.0005,-13.0618 L 26.9996,-13.2484 L 26.9987,-13.435" />
      <path d="M 26.9987,-13.435 L 26.9979,-13.2484 L 26.997,-13.0618 L 26.9961,-12.8752 L 26.9952,-12.6886 L 26.9943,-12.502 L 26.9934,-12.3154 L 26.9925,-12.1288 L 26.9916,-11.9422 L 26.9908,-11.7557 L 26.9899,-11.5691 L 26.989,-11.3825 L 26.9881,-11.1959 L 26.9872,-11.0093 L 26.9863,-10.8227 L 26.9854,-10.6361 L 26.9846,-10.4495 L 26.9837,-10.2629 L 26.9828,-10.0763 L 26.9819,-9.8897 L 26.981,-9.7031 L 26.9801,-9.5165 L 26.9792,-9.3299 L 26.9784,-9.1433 L 26.9775,-8.9567 L 26.9766,-8.7701 L 26.9757,-8.5835 L 26.9748,-8.3969 L 26.9739,-8.2103 L 26.973,-8.0237 L 26.9721,-7.8371 L 26.9713,-7.6505 L 26.9704,-7.4639 L 26.9695,-7.2773 L 26.9686,-7.0907 L 26.9677,-6.9041 L 26.9668,-6.7175 L 26.9659,-6.5309 L 26.9651,-6.3443 L 26.9642,-6.1577 L 26.9633,-5.9711 L 26.9624,-5.7845 L 26.9615,-5.5979 L 26.9606,-5.4113 L 26.9597,-5.2247 L 26.9589,-5.0381 L 26.958,-4.8515 L 26.9571,-4.6649 L 26.9562,-4.4783 L 26.9553,-4.2917 L 26.9544,-4.1051 L 26.9535,-3.9186 L 26.9526,-3.732 L 26.9518,-3.5454 L 26.9509,-3.3588 L 26.95,-3.1722 L 26.9491,-2.9856 L 26.9482,-2.799 L 26.9473,-2.6124 L 26.9464,-2.4258 L 26.9456,-2.2392 L 26.9447,-2.0526 L 26.9438,-1.866 L 26.9429,-1.6794 L 26.942,-1.4928 L 26.9411,-1.3062 L 26.9402,-1.1196 L 26.9394,-0.933 L 26.9385,-0.7464 L 26.9376,-0.5598 L 26.9367,-0.3732 L 26.9358,-0.1866 L 26.9349,-0.0" />
      <path d="M 26.9987,5.05 L 27.0043,4.91 L 27.0066,4.7697 L 27.0083,4.6295 L 27.0097,4.4892 L 27.0109,4.3489 L 27.012,4.2086 L 27.0129,4.0683 L 27.0138,3.928 L 27.0146,3.7878 L 27.0153,3.6475 L 27.016,3.5072 L 27.0166,3.3669 L 27.0172,3.2266 L 27.0177,3.0863 L 27.0182,2.946 L 27.0187,2.8058 L 27.0191,2.6655 L 27.0195,2.5252 L 27.0199,2.3849 L 27.0202,2.2446 L 27.0205,2.1043 L 27.0208,1.964 L 27.0211,1.8238 L 27.0214,1.6835 L 27.0216,1.5432 L 27.0218,1.4029 L 27.022,1.2626 L 27.0221,1.1223 L 27.0223,0.982 L 27.0224,0.8418 L 27.0225,0.7015 L 27.0226,0.5612 L 27.0226,0.4209 L 27.0227,0.2806 L 27.0227,0.1403 L 27.0227,0.0 L 27.0227,-0.1402 L 27.0227,-0.2805 L 27.0226,-0.4208 L 27.0226,-0.5611 L 27.0225,-0.7014 L 27.0224,-0.8417 L 27.0223,-0.982 L 27.0221,-1.1222 L 27.022,-1.2625 L 27.0218,-1.4028 L 27.0216,-1.5431 L 27.0214,-1.6834 L 27.0211,-1.8237 L 27.0208,-1.964 L 27.0205,-2.1042 L 27.0202,-2.2445 L 27.0199,-2.3848 L 27.0195,-2.5251 L 27.0191,-2.6654 L 27.0187,-2.8057 L 27.0182,-2.946 L 27.0177,-3.0862 L 27.0172,-3.2265 L 27.0166,-3.3668 L 27.016,-3.5071 L 27.0153,-3.6474 L 27.0146,-3.7877 L 27.0138,-3.9279 L 27.0129,-4.0682 L 27.012,-4.2085 L 27.0109,-4.3488 L 27.0097,-4.4891 L 27.0083,-4.6294 L 27.0066,-4.7696 L 27.0043,-4.9099 L 26.9987,-5.05" />
      <path d="M 26.9987,-5.05 L 26.9931,-4.91 L 26.9909,-4.7697 L 26.9892,-4.6295 L 26.9878,-4.4892 L 26.9865,-4.3489 L 26.9855,-4.2086 L 26.9845,-4.0683 L 26.9837,-3.928 L 26.9829,-3.7878 L 26.9821,-3.6475 L 26.9815,-3.5072 L 26.9809,-3.3669 L 26.9803,-3.2266 L 26.9798,-3.0863 L 26.9793,-2.946 L 26.9788,-2.8058 L 26.9784,-2.6655 L 26.978,-2.5252 L 26.9776,-2.3849 L 26.9772,-2.2446 L 26.9769,-2.1043 L 26.9766,-1.964 L 26.9764,-1.8238 L 26.9761,-1.6835 L 26.9759,-1.5432 L 26.9757,-1.4029 L 26.9755,-1.2626 L 26.9753,-1.1223 L 26.9752,-0.982 L 26.9751,-0.8418 L 26.975,-0.7015 L 26.9749,-0.5612 L 26.9748,-0.4209 L 26.9748,-0.2806 L 26.9748,-0.1403 L 26.9748,0.0 L 26.9748,0.1402 L 26.9748,0.2805 L 26.9748,0.4208 L 26.9749,0.5611 L 26.975,0.7014 L 26.9751,0.8417 L 26.9752,0.982 L 26.9753,1.1222 L 26.9755,1.2625 L 26.9757,1.4028 L 26.9759,1.5431 L 26.9761,1.6834 L 26.9764,1.8237 L 26.9766,1.964 L 26.9769,2.1042 L 26.9772,2.2445 L 26.9776,2.3848 L 26.978,2.5251 L 26.9784,2.6654 L 26.9788,2.8057 L 26.9793,2.946 L 26.9798,3.0862 L 26.9803,3.2265 L 26.9809,3.3668 L 26.9815,3.5071 L 26.9821,3.6474 L 26.9829,3.7877 L 26.9837,3.9279 L 26.9845,4.0682 L 26.9855,4.2085 L 26.9865,4.3488 L 26.9877,4.4891 L 26.9892,4.6294 L 26.9909,4.7696 L 26.9931,4.9099 L 26.9987,5.05" />
      <path d="M 17.4988,-13.435 L 17.498,-13.2484 L 17.4971,-13.0618 L 17.4962,-12.8752 L 17.4953,-12.6886 L 17.4944,-12.502 L 17.4935,-12.3154 L 17.4926,-12.1288 L 17.4918,-11.9422 L 17.4909,-11.7557 L 17.49,-11.5691 L 17.4891,-11.3825 L 17.4882,-11.1959 L 17.4873,-11.0093 L 17.4864,-10.8227 L 17.4855,-10.6361 L 17.4847,-10.4495 L 17.4838,-10.2629 L 17.4829,-10.0763 L 17.482,-9.8897 L 17.4811,-9.7031 L 17.4802,-9.5165 L 17.4793,-9.3299 L 17.4785,-9.1433 L 17.4776,-8.9567 L 17.4767,-8.7701 L 17.4758,-8.5835 L 17.4749,-8.3969 L 17.474,-8.2103 L 17.4731,-8.0237 L 17.4723,-7.8371 L 17.4714,-7.6505 L 17.4705,-7.4639 L 17.4696,-7.2773 L 17.4687,-7.0907 L 17.4678,-6.9041 L 17.4669,-6.7175 L 17.4661,-6.5309 L 17.4652,-6.3443 L 17.4643,-6.1577 L 17.4634,-5.9711 L 17.4625,-5.7845 L 17.4616,-5.5979 L 17.4607,-5.4113 L 17.4598,-5.2247 L 17.459,-5.0381 L 17.4581,-4.8515 L 17.4572,-4.6649 L 17.4563,-4.4783 L 17.4554,-4.2917 L 17.4545,-4.1051 L 17.4536,-3.9186 L 17.4528,-3.732 L 17.4519,-3.5454 L 17.451,-3.3588 L 17.4501,-3.1722 L 17.4492,-2.9856 L 17.4483,-2.799 L 17.4474,-2.6124 L 17.4466,-2.4258 L 17.4457,-2.2392 L 17.4448,-2.0526 L 17.4439,-1.866 L 17.443,-1.6794 L 17.4421,-1.4928 L 17.4412,-1.3062 L 17.4403,-1.1196 L 17.4395,-0.933 L 17.4386,-0.7464 L 17.4377,-0.5598 L 17.4368,-0.3732 L 17.4359,-0.1866 L 17.435,-0.0" />
    </g>
    <g fill="none" stroke="rgb(110,110,110)" stroke-width="0.3" id="Hidden" stroke-dasharray="3.6 0.9">
      <path d="M 0.0,13.435 L -0.1866,13.2484 L -0.3732,13.0618 L -0.5598,12.8752 L -0.7464,12.6886 L -0.933,12.502 L -1.1196,12.3154 L -1.3062,12.1288 L -1.4928,11.9422 L -1.6794,11.7557 L -1.866,11.5691 L -2.0526,11.3825 L -2.2392,11.1959 L -2.4258,11.0093 L -2.6124,10.8227 L -2.799,10.6361 L -2.9856,10.4495 L -3.1722,10.2629 L -3.3588,10.0763 L -3.5454,9.8897 L -3.732,9.7031 L -3.9186,9.5165 L -4.1051,9.3299 L -4.2917,9.1433 L -4.4783,8.9567 L -4.6649,8.7701 L -4.8515,8.5835 L -5.0381,8.3969 L -5.2247,8.2103 L -5.4113,8.0237 L -5.5979,7.8371 L -5.7845,7.6505 L -5.9711,7.4639 L -6.1577,7.2773 L -6.3443,7.0907 L -6.5309,6.9041 L -6.7175,6.7175 L -6.9041,6.5309 L -7.0907,6.3443 L -7.2773,6.1577 L -7.4639,5.9711 L -7.6505,5.7845 L -7.8371,5.5979 L -8.0237,5.4113 L -8.2103,5.2247 L -8.3969,5.0381 L -8.5835,4.8515 L -8.7701,4.6649 L -8.9567,4.4783 L -9.1433,4.2917 L -9.3299,4.1051 L -9.5165,3.9186 L -9.7031,3.732 L -9.8897,3.5454 L -10.0763,3.3588 L -10.2629,3.1722 L -10.4495,2.9856 L -10.6361,2.799 L -10.8227,2.6124 L -11.0093,2.4258 L -11.1959,2.2392 L -11.3825,2.0526 L -11.5691,1.866 L -11.7557,1.6794 L -11.9422,1.4928 L -12.1288,1.3062 L -12.3154,1.1196 L -12.502,0.933 L -12.6886,0.7464 L -12.8752,0.5598 L -13.0618,0.3732 L -13.2484,0.1866 L -13.435,-0.0" />
      <path d="M 13.435,0.0 L 13.2484,0.1866 L 13.0618,0.3732 L 12.8752,0.5598 L 12.6886,0.7464 L 12.502,0.933 L 12.3154,1.1196 L 12.1288,1.3062 L 11.9422,1.4928 L 11.7557,1.6794 L 11.5691,1.866 L 11.3825,2.0526 L 11.1959,2.2392 L 11.0093,2.4258 L 10.8227,2.6124 L 10.6361,2.799 L 10.4495,2.9856 L 10.2629,3.1722 L 10.0763,3.3588 L 9.8897,3.5454 L 9.7031,3.732 L 9.5165,3.9186 L 9.3299,4.1051 L 9.1433,4.2917 L 8.9567,4.4783 L 8.7701,4.6649 L 8.5835,4.8515 L 8.3969,5.0381 L 8.2103,5.2247 L 8.0237,5.4113 L 7.8371,5.5979 L 7.6505,5.7845 L 7.4639,5.9711 L 7.2773,6.1577 L 7.0907,6.3443 L 6.9041,6.5309 L 6.7175,6.7175 L 6.5309,6.9041 L 6.3443,7.0907 L 6.1577,7.2773 L 5.9711,7.4639 L 5.7845,7.6505 L 5.5979,7.8371 L 5.4113,8.0237 L 5.2247,8.2103 L 5.0381,8.3969 L 4.8515,8.5835 L 4.6649,8.7701 L 4.4783,8.9567 L 4.2917,9.1433 L 4.1051,9.3299 L 3.9186,9.5165 L 3.732,9.7031 L 3.5454,9.8897 L 3.3588,10.0763 L 3.1722,10.2629 L 2.9856,10.4495 L 2.799,10.6361 L 2.6124,10.8227 L 2.4258,11.0093 L 2.2392,11.1959 L 2.0526,11.3825 L 1.866,11.5691 L 1.6794,11.7557 L 1.4928,11.9422 L 1.3062,12.1288 L 1.1196,12.3154 L 0.933,12.502 L 0.7464,12.6886 L 0.5598,12.8752 L 0.3732,13.0618 L 0.1866,13.2484 L -0.0,13.435" />
      <path d="M -13.435,0.0 L -13.2484,-0.1866 L -13.0618,-0.3732 L -12.8752,-0.5598 L -12.6886,-0.7464 L -12.502,-0.933 L -12.3154,-1.1196 L -12.1288,-1.3062 L -11.9422,-1.4928 L -11.7557,-1.6794 L -11.5691,-1.866 L -11.3825,-2.0526 L -11.1959,-2.2392 L -11.0093,-2.4258 L -10.8227,-2.6124 L -10.6361,-2.799 L -10.4495,-2.9856 L -10.2629,-3.1722 L -10.0763,-3.3588 L -9.8897,-3.5454 L -9.7031,-3.732 L -9.5165,-3.9186 L -9.3299,-4.1051 L -9.1433,-4.2917 L -8.9567,-4.4783 L -8.7701,-4.6649 L -8.5835,-4.8515 L -8.3969,-5.0381 L -8.2103,-5.2247 L -8.0237,-5.4113 L -7.8371,-5.5979 L -7.6505,-5.7845 L -7.4639,-5.9711 L -7.2773,-6.1577 L -7.0907,-6.3443 L -6.9041,-6.5309 L -6.7175,-6.7175 L -6.5309,-6.9041 L -6.3443,-7.0907 L -6.1577,-7.2773 L -5.9711,-7.4639 L -5.7845,-7.6505 L -5.5979,-7.8371 L -5.4113,-8.0237 L -5.2247,-8.2103 L -5.0381,-8.3969 L -4.8515,-8.5835 L -4.6649,-8.7701 L -4.4783,-8.9567 L -4.2917,-9.1433 L -4.1051,-9.3299 L -3.9186,-9.5165 L -3.732,-9.7031 L -3.5454,-9.8897 L -3.3588,-10.0763 L -3.1722,-10.2629 L -2.9856,-10.4495 L -2.799,-10.6361 L -2.6124,-10.8227 L -2.4258,-11.0093 L -2.2392,-11.1959 L -2.0526,-11.3825 L -1.866,-11.5691 L -1.6794,-11.7557 L -1.4928,-11.9422 L -1.3062,-12.1288 L -1.1196,-12.3154 L -0.933,-12.502 L -0.7464,-12.6886 L -0.5598,-12.8752 L -0.3732,-13.0618 L -0.1866,-13.2484 L 0.0,-13.435" />
      <path d="M 0.0,-13.435 L 0.1866,-13.2484 L 0.3732,-13.0618 L 0.5598,-12.8752 L 0.7464,-12.6886 L 0.933,-12.502 L 1.1196,-12.3154 L 1.3062,-12.1288 L 1.4928,-11.9422 L 1.6794,-11.7557 L 1.866,-11.5691 L 2.0526,-11.3825 L 2.2392,-11.1959 L 2.4258,-11.0093 L 2.6124,-10.8227 L 2.799,-10.6361 L 2.9856,-10.4495 L 3.1722,-10.2629 L 3.3588,-10.0763 L 3.5454,-9.8897 L 3.732,-9.7031 L 3.9186,-9.5165 L 4.1051,-9.3299 L 4.2917,-9.1433 L 4.4783,-8.9567 L 4.6649,-8.7701 L 4.8515,-8.5835 L 5.0381,-8.3969 L 5.2247,-8.2103 L 5.4113,-8.0237 L 5.5979,-7.8371 L 5.7845,-7.6505 L 5.9711,-7.4639 L 6.1577,-7.2773 L 6.3443,-7.0907 L 6.5309,-6.9041 L 6.7175,-6.7175 L 6.9041,-6.5309 L 7.0907,-6.3443 L 7.2773,-6.1577 L 7.4639,-5.9711 L 7.6505,-5.7845 L 7.8371,-5.5979 L 8.0237,-5.4113 L 8.2103,-5.2247 L 8.3969,-5.0381 L 8.5835,-4.8515 L 8.7701,-4.6649 L 8.9567,-4.4783 L 9.1433,-4.2917 L 9.3299,-4.1051 L 9.5165,-3.9186 L 9.7031,-3.732 L 9.8897,-3.5454 L 10.0763,-3.3588 L 10.2629,-3.1722 L 10.4495,-2.9856 L 10.6361,-2.799 L 10.8227,-2.6124 L 11.0093,-2.4258 L 11.1959,-2.2392 L 11.3825,-2.0526 L 11.5691,-1.866 L 11.7557,-1.6794 L 11.9422,-1.4928 L 12.1288,-1.3062 L 12.3154,-1.1196 L 12.502,-0.933 L 12.6886,-0.7464 L 12.8752,-0.5598 L 13.0618,-0.3732 L 13.2484,-0.1866 L 13.435,0.0" />
      <path d="M 0.0,5.05 L -0.4401,5.0308 L -0.8769,4.9733 L -1.307,4.8779 L -1.7272,4.7454 L -2.1342,4.5769 L -2.525,4.3734 L -2.8966,4.1367 L -3.2461,3.8685 L -3.5709,3.5709 L -3.8685,3.2461 L -4.1367,2.8966 L -4.3734,2.525 L -4.5769,2.1342 L -4.7454,1.7272 L -4.8779,1.307 L -4.9733,0.8769 L -5.0308,0.4401 L -5.05,-0.0 L -5.0308,-0.4401 L -4.9733,-0.8769 L -4.8779,-1.307 L -4.7454,-1.7272 L -4.5769,-2.1342 L -4.3734,-2.525 L -4.1367,-2.8966 L -3.8685,-3.2461 L -3.5709,-3.5709 L -3.2461,-3.8685 L -2.8966,-4.1367 L -2.525,-4.3734 L -2.1342,-4.5769 L -1.7272,-4.7454 L -1.307,-4.8779 L -0.8769,-4.9733 L -0.4401,-5.0308 L 0.0,-5.05 L 0.4401,-5.0308 L 0.8769,-4.9733 L 1.307,-4.8779 L 1.7272,-4.7454 L 2.1342,-4.5769 L 2.525,-4.3734 L 2.8966,-4.1367 L 3.2461,-3.8685 L 3.5709,-3.5709 L 3.8685,-3.2461 L 4.1367,-2.8966 L 4.3734,-2.525 L 4.5769,-2.1342 L 4.7454,-1.7272 L 4.8779,-1.307 L 4.9733,-0.8769 L 5.0308,-0.4401 L 5.05,0.0 L 5.0308,0.4401 L 4.9733,0.8769 L 4.8779,1.307 L 4.7454,1.7272 L 4.5769,2.1342 L 4.3734,2.525 L 4.1367,2.8966 L 3.8685,3.2461 L 3.5709,3.5709 L 3.2461,3.8685 L 2.8966,4.1367 L 2.525,4.3734 L 2.1342,4.5769 L 1.7272,4.7454 L 1.307,4.8779 L 0.8769,4.9733 L 0.4401,5.0308 L -0.0,5.05" />
      <path d="M 27.0626,0.0 L 26.9306,0.0 L 26.7987,0.0 L 26.6667,0.0 L 26.5348,0.0 L 26.4028,0.0 L 26.2709,0.0 L 26.139,0.0 L 26.007,0.0 L 25.8751,0.0 L 25.7431,0.0 L 25.6112,0.0 L 25.4792,0.0 L 25.3473,0.0 L 25.2154,0.0 L 25.0834,0.0 L 24.9515,0.0 L 24.8195,0.0 L 24.6876,0.0 L 24.5556,0.0 L 24.4237,0.0 L 24.2918,0.0 L 24.1598,0.0 L 24.0279,0.0 L 23.8959,0.0 L 23.764,0.0 L 23.632,0.0 L 23.5001,0.0 L 23.3682,0.0 L 23.2362,0.0 L 23.1043,0.0 L 22.9723,0.0 L 22.8404,0.0 L 22.7084,0.0 L 22.5765,0.0 L 22.4445,0.0 L 22.3126,0.0 L 22.1807,0.0 L 22.0487,0.0 L 21.9168,0.0 L 21.7848,0.0 L 21.6529,0.0 L 21.5209,0.0 L 21.389,0.0 L 21.2571,0.0 L 21.1251,0.0 L 20.9932,0.0 L 20.8612,0.0 L 20.7293,0.0 L 20.5973,0.0 L 20.4654,0.0 L 20.3335,0.0 L 20.2015,0.0 L 20.0696,0.0 L 19.9376,0.0 L 19.8057,0.0 L 19.6737,0.0 L 19.5418,0.0 L 19.4099,0.0 L 19.2779,0.0 L 19.146,0.0 L 19.014,0.0 L 18.8821,0.0 L 18.7501,0.0 L 18.6182,0.0 L 18.4863,0.0 L 18.3543,0.0 L 18.2224,0.0 L 18.0904,0.0 L 17.9585,0.0 L 17.8265,0.0 L 17.6946,0.0 L 17.5627,0.0" />
      <path d="M 17.4988,13.435 L 17.4997,13.2484 L 17.5006,13.0618 L 17.5015,12.8752 L 17.5024,12.6886 L 17.5033,12.502 L 17.5042,12.3154 L 17.505,12.1288 L 17.5059,11.9422 L 17.5068,11.7557 L 17.5077,11.5691 L 17.5086,11.3825 L 17.5095,11.1959 L 17.5104,11.0093 L 17.5113,10.8227 L 17.5121,10.6361 L 17.513,10.4495 L 17.5139,10.2629 L 17.5148,10.0763 L 17.5157,9.8897 L 17.5166,9.7031 L 17.5175,9.5165 L 17.5183,9.3299 L 17.5192,9.1433 L 17.5201,8.9567 L 17.521,8.7701 L 17.5219,8.5835 L 17.5228,8.3969 L 17.5237,8.2103 L 17.5245,8.0237 L 17.5254,7.8371 L 17.5263,7.6505 L 17.5272,7.4639 L 17.5281,7.2773 L 17.529,7.0907 L 17.5299,6.9041 L 17.5308,6.7175 L 17.5316,6.5309 L 17.5325,6.3443 L 17.5334,6.1577 L 17.5343,5.9711 L 17.5352,5.7845 L 17.5361,5.5979 L 17.537,5.4113 L 17.5378,5.2247 L 17.5387,5.0381 L 17.5396,4.8515 L 17.5405,4.6649 L 17.5414,4.4783 L 17.5423,4.2917 L 17.5432,4.1051 L 17.544,3.9186 L 17.5449,3.732 L 17.5458,3.5454 L 17.5467,3.3588 L 17.5476,3.1722 L 17.5485,2.9856 L 17.5494,2.799 L 17.5503,2.6124 L 17.5511,2.4258 L 17.552,2.2392 L 17.5529,2.0526 L 17.5538,1.866 L 17.5547,1.6794 L 17.5556,1.4928 L 17.5565,1.3062 L 17.5573,1.1196 L 17.5582,0.933 L 17.5591,0.7464 L 17.56,0.5598 L 17.5609,0.3732 L 17.5618,0.1866 L 17.5627,-0.0" />
      <path d="M 17.5627,0.0 L 17.5618,-0.1866 L 17.5609,-0.3732 L 17.56,-0.5598 L 17.5591,-0.7464 L 17.5582,-0.933 L 17.5573,-1.1196 L 17.5565,-1.3062 L 17.5556,-1.4928 L 17.5547,-1.6794 L 17.5538,-1.866 L 17.5529,-2.0526 L 17.552,-2.2392 L 17.5511,-2.4258 L 17.5503,-2.6124 L 17.5494,-2.799 L 17.5485,-2.9856 L 17.5476,-3.1722 L 17.5467,-3.3588 L 17.5458,-3.5454 L 17.5449,-3.732 L 17.544,-3.9186 L 17.5432,-4.1051 L 17.5423,-4.2917 L 17.5414,-4.4783 L 17.5405,-4.6649 L 17.5396,-4.8515 L 17.5387,-5.0381 L 17.5378,-5.2247 L 17.537,-5.4113 L 17.5361,-5.5979 L 17.5352,-5.7845 L 17.5343,-5.9711 L 17.5334,-6.1577 L 17.5325,-6.3443 L 17.5316,-6.5309 L 17.5308,-6.7175 L 17.5299,-6.9041 L 17.529,-7.0907 L 17.5281,-7.2773 L 17.5272,-7.4639 L 17.5263,-7.6505 L 17.5254,-7.8371 L 17.5245,-8.0237 L 17.5237,-8.2103 L 17.5228,-8.3969 L 17.5219,-8.5835 L 17.521,-8.7701 L 17.5201,-8.9567 L 17.5192,-9.1433 L 17.5183,-9.3299 L 17.5175,-9.5165 L 17.5166,-9.7031 L 17.5157,-9.8897 L 17.5148,-10.0763 L 17.5139,-10.2629 L 17.513,-10.4495 L 17.5121,-10.6361 L 17.5113,-10.8227 L 17.5104,-11.0093 L 17.5095,-11.1959 L 17.5086,-11.3825 L 17.5077,-11.5691 L 17.5068,-11.7557 L 17.5059,-11.9422 L 17.505,-12.1288 L 17.5042,-12.3154 L 17.5033,-12.502 L 17.5024,-12.6886 L 17.5015,-12.8752 L 17.5006,-13.0618 L 17.4997,-13.2484 L 17.4988,-13.435" />
      <path d="M 17.4988,5.05 L 17.5045,4.91 L 17.5067,4.7697 L 17.5084,4.6295 L 17.5098,4.4892 L 17.511,4.3489 L 17.5121,4.2086 L 17.5131,4.0683 L 17.5139,3.928 L 17.5147,3.7878 L 17.5154,3.6475 L 17.5161,3.5072 L 17.5167,3.3669 L 17.5173,3.2266 L 17.5178,3.0863 L 17.5183,2.946 L 17.5188,2.8058 L 17.5192,2.6655 L 17.5196,2.5252 L 17.52,2.3849 L 17.5203,2.2446 L 17.5206,2.1043 L 17.5209,1.964 L 17.5212,1.8238 L 17.5215,1.6835 L 17.5217,1.5432 L 17.5219,1.4029 L 17.5221,1.2626 L 17.5222,1.1223 L 17.5224,0.982 L 17.5225,0.8418 L 17.5226,0.7015 L 17.5227,0.5612 L 17.5227,0.4209 L 17.5228,0.2806 L 17.5228,0.1403 L 17.5228,0.0 L 17.5228,-0.1402 L 17.5228,-0.2805 L 17.5227,-0.4208 L 17.5227,-0.5611 L 17.5226,-0.7014 L 17.5225,-0.8417 L 17.5224,-0.982 L 17.5222,-1.1222 L 17.5221,-1.2625 L 17.5219,-1.4028 L 17.5217,-1.5431 L 17.5215,-1.6834 L 17.5212,-1.8237 L 17.5209,-1.964 L 17.5207,-2.1042 L 17.5203,-2.2445 L 17.52,-2.3848 L 17.5196,-2.5251 L 17.5192,-2.6654 L 17.5188,-2.8057 L 17.5183,-2.946 L 17.5178,-3.0862 L 17.5173,-3.2265 L 17.5167,-3.3668 L 17.5161,-3.5071 L 17.5154,-3.6474 L 17.5147,-3.7877 L 17.5139,-3.9279 L 17.5131,-4.0682 L 17.5121,-4.2085 L 17.511,-4.3488 L 17.5098,-4.4891 L 17.5084,-4.6294 L 17.5067,-4.7696 L 17.5045,-4.9099 L 17.4988,-5.05" />
      <path d="M 17.4988,-5.05 L 17.4932,-4.91 L 17.491,-4.7697 L 17.4893,-4.6295 L 17.4879,-4.4892 L 17.4867,-4.3489 L 17.4856,-4.2086 L 17.4846,-4.0683 L 17.4838,-3.928 L 17.483,-3.7878 L 17.4823,-3.6475 L 17.4816,-3.5072 L 17.481,-3.3669 L 17.4804,-3.2266 L 17.4799,-3.0863 L 17.4794,-2.946 L 17.4789,-2.8058 L 17.4785,-2.6655 L 17.4781,-2.5252 L 17.4777,-2.3849 L 17.4774,-2.2446 L 17.477,-2.1043 L 17.4767,-1.964 L 17.4765,-1.8238 L 17.4762,-1.6835 L 17.476,-1.5432 L 17.4758,-1.4029 L 17.4756,-1.2626 L 17.4755,-1.1223 L 17.4753,-0.982 L 17.4752,-0.8418 L 17.4751,-0.7015 L 17.475,-0.5612 L 17.4749,-0.4209 L 17.4749,-0.2806 L 17.4749,-0.1403 L 17.4749,0.0 L 17.4749,0.1402 L 17.4749,0.2805 L 17.4749,0.4208 L 17.475,0.5611 L 17.4751,0.7014 L 17.4752,0.8417 L 17.4753,0.982 L 17.4755,1.1222 L 17.4756,1.2625 L 17.4758,1.4028 L 17.476,1.5431 L 17.4762,1.6834 L 17.4765,1.8237 L 17.4767,1.964 L 17.477,2.1042 L 17.4774,2.2445 L 17.4777,2.3848 L 17.4781,2.5251 L 17.4785,2.6654 L 17.4789,2.8057 L 17.4794,2.946 L 17.4799,3.0862 L 17.4804,3.2265 L 17.481,3.3668 L 17.4816,3.5071 L 17.4823,3.6474 L 17.483,3.7877 L 17.4838,3.9279 L 17.4846,4.0682 L 17.4856,4.2085 L 17.4867,4.3488 L 17.4879,4.4891 L 17.4893,4.6294 L 17.491,4.7696 L 17.4932,4.9099 L 17.4988,5.05" />
      <path d="M 26.9987,5.05 L 26.8668,5.05 L 26.7349,5.05 L 26.6029,5.05 L 26.471,5.05 L 26.339,5.05 L 26.2071,5.05 L 26.0751,5.05 L 25.9432,5.05 L 25.8113,5.05 L 25.6793,5.05 L 25.5474,5.05 L 25.4154,5.05 L 25.2835,5.05 L 25.1515,5.05 L 25.0196,5.05 L 24.8877,5.05 L 24.7557,5.05 L 24.6238,5.05 L 24.4918,5.05 L 24.3599,5.05 L 24.2279,5.05 L 24.096,5.05 L 23.964,5.05 L 23.8321,5.05 L 23.7002,5.05 L 23.5682,5.05 L 23.4363,5.05 L 23.3043,5.05 L 23.1724,5.05 L 23.0404,5.05 L 22.9085,5.05 L 22.7766,5.05 L 22.6446,5.05 L 22.5127,5.05 L 22.3807,5.05 L 22.2488,5.05 L 22.1168,5.05 L 21.9849,5.05 L 21.853,5.05 L 21.721,5.05 L 21.5891,5.05 L 21.4571,5.05 L 21.3252,5.05 L 21.1932,5.05 L 21.0613,5.05 L 20.9294,5.05 L 20.7974,5.05 L 20.6655,5.05 L 20.5335,5.05 L 20.4016,5.05 L 20.2696,5.05 L 20.1377,5.05 L 20.0058,5.05 L 19.8738,5.05 L 19.7419,5.05 L 19.6099,5.05 L 19.478,5.05 L 19.346,5.05 L 19.2141,5.05 L 19.0822,5.05 L 18.9502,5.05 L 18.8183,5.05 L 18.6863,5.05 L 18.5544,5.05 L 18.4224,5.05 L 18.2905,5.05 L 18.1586,5.05 L 18.0266,5.05 L 17.8947,5.05 L 17.7627,5.05 L 17.6308,5.05 L 17.4988,5.05" />
      <path d="M 26.9987,-5.05 L 26.8668,-5.05 L 26.7349,-5.05 L 26.6029,-5.05 L 26.471,-5.05 L 26.339,-5.05 L 26.2071,-5.05 L 26.0751,-5.05 L 25.9432,-5.05 L 25.8113,-5.05 L 25.6793,-5.05 L 25.5474,-5.05 L 25.4154,-5.05 L 25.2835,-5.05 L 25.1515,-5.05 L 25.0196,-5.05 L 24.8877,-5.05 L 24.7557,-5.05 L 24.6238,-5.05 L 24.4918,-5.05 L 24.3599,-5.05 L 24.2279,-5.05 L 24.096,-5.05 L 23.964,-5.05 L 23.8321,-5.05 L 23.7002,-5.05 L 23.5682,-5.05 L 23.4363,-5.05 L 23.3043,-5.05 L 23.1724,-5.05 L 23.0404,-5.05 L 22.9085,-5.05 L 22.7766,-5.05 L 22.6446,-5.05 L 22.5127,-5.05 L 22.3807,-5.05 L 22.2488,-5.05 L 22.1168,-5.05 L 21.9849,-5.05 L 21.853,-5.05 L 21.721,-5.05 L 21.5891,-5.05 L 21.4571,-5.05 L 21.3252,-5.05 L 21.1932,-5.05 L 21.0613,-5.05 L 20.9294,-5.05 L 20.7974,-5.05 L 20.6655,-5.05 L 20.5335,-5.05 L 20.4016,-5.05 L 20.2696,-5.05 L 20.1377,-5.05 L 20.0058,-5.05 L 19.8738,-5.05 L 19.7419,-5.05 L 19.6099,-5.05 L 19.478,-5.05 L 19.346,-5.05 L 19.2141,-5.05 L 19.0822,-5.05 L 18.9502,-5.05 L 18.8183,-5.05 L 18.6863,-5.05 L 18.5544,-5.05 L 18.4224,-5.05 L 18.2905,-5.05 L 18.1586,-5.05 L 18.0266,-5.05 L 17.8947,-5.05 L 17.7627,-5.05 L 17.6308,-5.05 L 17.4988,-5.05" />
    </g>
    <g fill="none" stroke="rgb(0,0,0)" stroke-width="0.2" id="Center" stroke-dasharray="6.35 1.27 1.27 1.27">
      <line x1="0.0" y1="0.0" x2="-15.585" y2="0.0" />
      <line x1="0.0" y1="0.0" x2="15.585" y2="0.0" />
      <line x1="0.0" y1="0.0" x2="0.0" y2="-15.585" />
      <line x1="0.0" y1="0.0" x2="0.0" y2="15.585" />
      <line x1="22.2488" y1="0.0" x2="15.285" y2="0.0" />
      <line x1="22.2488" y1="0.0" x2="29.2126" y2="0.0" />
    </g>
  </g>
</svg>