<?xml version='1.0' encoding='utf-8'?>
<svg width="40.0301mm" height="26.44mm" viewBox="-13.22 -13.22 40.0301 26.44" version="1.1" xmlns="http://www.w3.org/2000/svg">
  <g transform="scale(1,-1)" stroke-linecap="round">
    <g fill="none" stroke="rgb(0,0,0)" stroke-width="0.4" id="Visible">
      <path d="M -9.5,9.5 L -9.5,9.2361 L -9.5,8.9722 L -9.5,8.7083 L -9.5,8.4444 L -9.5,8.1806 L -9.5,7.9167 L -9.5,7.6528 L -9.5,7.3889 L -9.5,7.125 L -9.5,6.8611 L -9.5,6.5972 L -9.5,6.3333 L -9.5,6.0694 L -9.5,5.8056 L -9.5,5.5417 L -9.5,5.2778 L -9.5,5.0139 L -9.5,4.75 L -9.5,4.4861 L -9.5,4.2222 L -9.5,3.9583 L -9.5,3.6944 L -9.5,3.4306 L -9.5,3.1667 L -9.5,2.9028 L -9.5,2.6389 L -9.5,2.375 L -9.5,2.1111 L -9.5,1.8472 L -9.5,1.5833 L -9.5,1.3194 L -9.5,1.0556 L -9.5,0.7917 L -9.5,0.5278 L -9.5,0.2639 L -9.5,0.0 L -9.5,-0.2639 L -9.5,-0.5278 L -9.5,-0.7917 L -9.5,-1.0556 L -9.5,-1.3194 L -9.5,-1.5833 L -9.5,-1.8472 L -9.5,-2.1111 L -9.5,-2.375 L -9.5,-2.6389 L -9.5,-2.9028 L -9.5,-3.1667 L -9.5,-3.4306 L -9.5,-3.6944 L -9.5,-3.9583 L -9.5,-4.2222 L -9.5,-4.4861 L -9.5,-4.75 L -9.5,-5.0139 L -9.5,-5.2778 L -9.5,-5.5417 L -9.5,-5.8056 L -9.5,-6.0694 L -9.5,-6.3333 L -9.5,-6.5972 L -9.5,-6.8611 L -9.5,-7.125 L -9.5,-7.3889 L -9.5,-7.6528 L -9.5,-7.9167 L -9.5,-8.1806 L -9.5,-8.4444 L -9.5,-8.7083 L -9.5,-8.9722 L -9.5,-9.2361 L -9.5,-9.5" />
      <path d="M 9.5,9.5 L 9.2361,9.5 L 8.9722,9.5 L 8.7083,9.5 L 8.4444,9.5 L 8.1806,9.5 L 7.9167,9.5 L 7.6528,9.5 L 7.3889,9.5 L 7.125,9.5 L 6.8611,9.5 L 6.5972,9.5 L 6.3333,9.5 L 6.0694,9.5 L 5.8056,9.5 L 5.5417,9.5 L 5.2778,9.5 L 5.0139,9.5 L 4.75,9.5 L 4.4861,9.5 L 4.2222,9.5 L 3.9583,9.5 L 3.6944,9.5 L 3.4306,9.5 L 3.1667,9.5 L 2.9028,9.5 L 2.6389,9.5 L 2.375,9.5 L 2.1111,9.5 L 1.8472,9.5 L 1.5833,9.5 L 1.3194,9.5 L 1.0556,9.5 L 0.7917,9.5 L 0.5278,9.5 L 0.2639,9.5 L 0.0,9.5 L -0.2639,9.5 L -0.5278,9.5 L -0.7917,9.5 L -1.0556,9.5 L -1.3194,9.5 L -1.5833,9.5 L -1.8472,9.5 L -2.1111,9.5 L -2.375,9.5 L -2.6389,9.5 L -2.9028,9.5 L -3.1667,9.5 L -3.4306,9.5 L -3.6944,9.5 L -3.9583,9.5 L -4.2222,9.5 L -4.4861,9.5 L -4.75,9.5 L -5.0139,9.5 L -5.2778,9.5 L -5.5417,9.5 L -5.8056,9.5 L -6.0694,9.5 L -6.3333,9.5 L -6.5972,9.5 L -6.8611,9.5 L -7.125,9.5 L -7.3889,9.5 L -7.6528,9.5 L -7.9167,9.5 L -8.1806,9.5 L -8.4444,9.5 L -8.7083,9.5 L -8.9722,9.5 L -9.2361,9.5 L -9.5,9.5" />
      <path d="M -9.5,-9.5 L -9.2361,-9.5 L -8.9722,-9.5 L -8.7083,-9.5 L -8.4444,-9.5 L -8.1806,-9.5 L -7.9167,-9.5 L -7.6528,-9.5 L -7.3889,-9.5 L -7.125,-9.5 L -6.8611,-9.5 L -6.5972,-9.5 L -6.3333,-9.5 L -6.0694,-9.5 L -5.8056,-9.5 L -5.5417,-9.5 L -5.2778,-9.5 L -5.0139,-9.5 L -4.75,-9.5 L -4.4861,-9.5 L -4.2222,-9.5 L -3.9583,-9.5 L -3.6944,-9.5 L -3.4306,-9.5 L -3.1667,-9.5 L -2.9028,-9.5 L -2.6389,-9.5 L -2.375,-9.5 L -2.1111,-9.5 L -1.8472,-9.5 L -1.5833,-9.5 L -1.3194,-9.5 L -1.0556,-9.5 L -0.7917,-9.5 L -0.5278,-9.5 L -0.2639,-9.5 L 0.0,-9.5 L 0.2639,-9.5 L 0.5278,-9.5 L 0.7917,-9.5 L 1.0556,-9.5 L 1.3194,-9.5 L 1.5833,-9.5 L 1.8472,-9.5 L 2.1111,-9.5 L 2.375,-9.5 L 2.6389,-9.5 L 2.9028,-9.5 L 3.1667,-9.5 L 3.4306,-9.5 L 3.6944,-9.5 L 3.9583,-9.5 L 4.2222,-9.5 L 4.4861,-9.5 L 4.75,-9.5 L 5.0139,-9.5 L 5.2778,-9.5 L 5.5417,-9.5 L 5.8056,-9.5 L 6.0694,-9.5 L 6.3333,-9.5 L 6.5972,-9.5 L 6.8611,-9.5 L 7.125,-9.5 L 7.3889,-9.5 L 7.6528,-9.5 L 7.9167,-9.5 L 8.1806,-9.5 L 8.4444,-9.5 L 8.7083,-9.5 L 8.9722,-9.5 L 9.2361,-9.5 L 9.5,-9.5" />
      <path d="M 9.5,-9.5 L 9.5,-9.2361 L 9.5,-8.9722 L 9.5,-8.7083 L 9.5,-8.4444 L 9.5,-8.1806 L 9.5,-7.9167 L 9.5,-7.6528 L 9.5,-7.3889 L 9.5,-7.125 L 9.5,-6.8611 L 9.5,-6.5972 L 9.5,-6.3333 L 9.5,-6.0694 L 9.5,-5.8056 L 9.5,-5.5417 L 9.5,-5.2778 L 9.5,-5.0139 L 9.5,-4.75 L 9.5,-4.4861 L 9.5,-4.2222 L 9.5,-3.9583 L 9.5,-3.6944 L 9.5,-3.4306 L 9.5,-3.1667 L 9.5,-2.9028 L 9.5,-2.6389 L 9.5,-2.375 L 9.5,-2.1111 L 9.5,-1.8472 L 9.5,-1.5833 L 9.5,-1.3194 L 9.5,-1.0556 L 9.5,-0.7917 L 9.5,-0.5278 L 9.5,-0.2639 L 9.5,0.0 L 9.5,0.2639 L 9.5,0.5278 L 9.5,0.7917 L 9.5,1.0556 L 9.5,1.3194 L 9.5,1.5833 L 9.5,1.8472 L 9.5,2.1111 L 9.5,2.375 L 9.5,2.6389 L 9.5,2.9028 L 9.5,3.1667 L 9.5,3.4306 L 9.5,3.6944 L 9.5,3.9583 L 9.5,4.2222 L 9.5,4.4861 L 9.5,4.75 L 9.5,5.0139 L 9.5,5.2778 L 9.5,5.5417 L 9.5,5.8056 L 9.5,6.0694 L 9.5,6.3333 L 9.5,6.5972 L 9.5,6.8611 L 9.5,7.125 L 9.5,7.3889 L 9.5,7.6528 L 9.5,7.9167 L 9.5,8.1806 L 9.5,8.4444 L 9.5,8.7083 L 9.5,8.9722 L 9.5,9.2361 L 9.5,9.5" />
      <path d="M -0.0,5.05 L -0.4401,5.0308 L -0.8769,4.9733 L -1.307,4.8779 L -1.7272,4.7454 L -2.1342,4.5769 L -2.525,4.3734 L -2.8966,4.1367 L -3.2461,3.8685 L -3.5709,3.5709 L -3.8685,3.2461 L -4.1367,2.8966 L -4.3734,2.525 L -4.5769,2.1342 L -4.7454,1.7272 L -4.8779,1.307 L -4.9733,0.8769 L -5.0308,0.4401 L -5.05,-0.0 L -5.0308,-0.4401 L -4.9733,-0.8769 L -4.8779,-1.307 L -4.7454,-1.7272 L -4.5769,-2.1342 L -4.3734,-2.525 L -4.1367,-2.8966 L -3.8685,-3.2461 L -3.5709,-3.5709 L -3.2461,-3.8685 L -2.8966,-4.1367 L -2.525,-4.3734 L -2.1342,-4.5769 L -1.7272,-4.7454 L -1.307,-4.8779 L -0.8769,-4.9733 L -0.4401,-5.0308 L 0.0,-5.05 L 0.4401,-5.0308 L 0.8769,-4.9733 L 1.307,-4.8779 L 1.7272,-4.7454 L 2.1342,-4.5769 L 2.525,-4.3734 L 2.8966,-4.1367 L 3.2461,-3.8685 L 3.5709,-3.5709 L 3.8685,-3.2461 L 4.1367,-2.8966 L 4.3734,-2.525 L 4.5769,-2.1342 L 4.7454,-1.7272 L 4.8779,-1.307 L 4.9733,-0.8769 L 5.0308,-0.4401 L 5.05,0.0 L 5.0308,0.4401 L 4.9733,0.8769 L 4.8779,1.307 L 4.7454,1.7272 L 4.5769,2.1342 L 4.3734,2.525 L 4.1367,2.8966 L 3.8685,3.2461 L 3.5709,3.5709 L 3.2461,3.8685 L 2.8966,4.1367 L 2.525,4.3734 L 2.1342,4.5769 L 1.7272,4.7454 L 1.307,4.8779 L 0.8769,4.9733 L 0.4401,5.0308 L -0.0,5.05" />
      <path d="M 23.0901,9.5 L 23.0901,9.2361 L 23.0901,8.9722 L 23.0901,8.7083 L 23.0901,8.4444 L 23.0901,8.1806 L 23.0901,7.9167 L 23.0901,7.6528 L 23.0901,7.3889 L 23.0901,7.125 L 23.0901,6.8611 L 23.0901,6.5972 L 23.0901,6.3333 L 23.0901,6.0694 L 23.0901,5.8056 L 23.0901,5.5417 L 23.0901,5.2778 L 23.0901,5.0139 L 23.0901,4.75 L 23.0901,4.4861 L 23.0901,4.2222 L 23.0901,3.9583 L 23.0901,3.6944 L 23.0901,3.4306 L 23.0901,3.1667 L 23.0901,2.9028 L 23.0901,2.6389 L 23.0901,2.375 L 23.0901,2.1111 L 23.0901,1.8472 L 23.0901,1.5833 L 23.0901,1.3194 L 23.0901,1.0556 L 23.0901,0.7917 L 23.0901,0.5278 L 23.0901,0.2639 L 23.0901,0.0 L 23.0901,-0.2639 L 23.0901,-0.5278 L 23.0901,-0.7917 L 23.0901,-1.0556 L 23.0901,-1.3194 L 23.0901,-1.5833 L 23.0901,-1.8472 L 23.0901,-2.1111 L 23.0901,-2.375 L 23.0901,-2.6389 L 23.0901,-2.9028 L 23.0901,-3.1667 L 23.0901,-3.4306 L 23.0901,-3.6944 L 23.0901,-3.9583 L 23.0901,-4.2222 L 23.0901,-4.4861 L 23.0901,-4.75 L 23.0901,-5.0139 L 23.0901,-5.2778 L 23.0901,-5.5417 L 23.0901,-5.8056 L 23.0901,-6.0694 L 23.0901,-6.3333 L 23.0901,-6.5972 L 23.0901,-6.8611 L 23.0901,-7.125 L 23.0901,-7.3889 L 23.0901,-7.6528 L 23.0901,-7.9167 L 23.0901,-8.1806 L 23.0901,-8.4444 L 23.0901,-8.7083 L 23.0901,-8.9722 L 23.0901,-9.2361 L 23.0901,-9.5" />
      <path d="M 22.9999,9.5 L 22.8679,9.5 L 22.736,9.5 L 22.6041,9.5 L 22.4721,9.5 L 22.3402,9.5 L 22.2082,9.5 L 22.0763,9.5 L 21.9443,9.5 L 21.8124,9.5 L 21.6805,9.5 L 21.5485,9.5 L 21.4166,9.5 L 21.2846,9.5 L 21.1527,9.5 L 21.0207,9.5 L 20.8888,9.5 L 20.7569,9.5 L 20.6249,9.5 L 20.493,9.5 L 20.361,9.5 L 20.2291,9.5 L 20.0971,9.5 L 19.9652,9.5 L 19.8333,9.5 L 19.7013,9.5 L 19.5694,9.5 L 19.4374,9.5 L 19.3055,9.5 L 19.1735,9.5 L 19.0416,9.5 L 18.9097,9.5 L 18.7777,9.5 L 18.6458,9.5 L 18.5138,9.5 L 18.3819,9.5 L 18.2499,9.5 L 18.118,9.5 L 17.9861,9.5 L 17.8541,9.5 L 17.7222,9.5 L 17.5902,9.5 L 17.4583,9.5 L 17.3263,9.5 L 17.1944,9.5 L 17.0625,9.5 L 16.9305,9.5 L 16.7986,9.5 L 16.6666,9.5 L 16.5347,9.5 L 16.4027,9.5 L 16.2708,9.5 L 16.1389,9.5 L 16.0069,9.5 L 15.875,9.5 L 15.743,9.5 L 15.6111,9.5 L 15.4791,9.5 L 15.3472,9.5 L 15.2153,9.5 L 15.0833,9.5 L 14.9514,9.5 L 14.8194,9.5 L 14.6875,9.5 L 14.5555,9.5 L 14.4236,9.5 L 14.2917,9.5 L 14.1597,9.5 L 14.0278,9.5 L 13.8958,9.5 L 13.7639,9.5 L 13.6319,9.5 L 13.5,9.5" />
      <path d="M 22.9999,9.5 L 23.0011,9.5 L 23.0024,9.5 L 23.0037,9.5 L 23.0049,9.5 L 23.0062,9.5 L 23.0074,9.5 L 23.0087,9.5 L 23.0099,9.5 L 23.0112,9.5 L 23.0124,9.5 L 23.0137,9.5 L 23.0149,9.5 L 23.0162,9.5 L 23.0174,9.5 L 23.0187,9.5 L 23.0199,9.5 L 23.0212,9.5 L 23.0225,9.5 L 23.0237,9.5 L 23.025,9.5 L 23.0262,9.5 L 23.0275,9.5 L 23.0287,9.5 L 23.03,9.5 L 23.0312,9.5 L 23.0325,9.5 L 23.0337,9.5 L 23.035,9.5 L 23.0362,9.5 L 23.0375,9.5 L 23.0388,9.5 L 23.04,9.5 L 23.0413,9.5 L 23.0425,9.5 L 23.0438,9.5 L 23.045,9.5 L 23.0463,9.5 L 23.0475,9.5 L 23.0488,9.5 L 23.05,9.5 L 23.0513,9.5 L 23.0525,9.5 L 23.0538,9.5 L 23.055,9.5 L 23.0563,9.5 L 23.0576,9.5 L 23.0588,9.5 L 23.0601,9.5 L 23.0613,9.5 L 23.0626,9.5 L 23.0638,9.5 L 23.0651,9.5 L 23.0663,9.5 L 23.0676,9.5 L 23.0688,9.5 L 23.0701,9.5 L 23.0713,9.5 L 23.0726,9.5 L 23.0738,9.5 L 23.0751,9.5 L 23.0764,9.5 L 23.0776,9.5 L 23.0789,9.5 L 23.0801,9.5 L 23.0814,9.5 L 23.0826,9.5 L 23.0839,9.5 L 23.0851,9.5 L 23.0864,9.5 L 23.0876,9.5 L 23.0889,9.5 L 23.0901,9.5" />
      <path d="M 22.9999,-9.5 L 22.8679,-9.5 L 22.736,-9.5 L 22.6041,-9.5 L 22.4721,-9.5 L 22.3402,-9.5 L 22.2082,-9.5 L 22.0763,-9.5 L 21.9443,-9.5 L 21.8124,-9.5 L 21.6805,-9.5 L 21.5485,-9.5 L 21.4166,-9.5 L 21.2846,-9.5 L 21.1527,-9.5 L 21.0207,-9.5 L 20.8888,-9.5 L 20.7569,-9.5 L 20.6249,-9.5 L 20.493,-9.5 L 20.361,-9.5 L 20.2291,-9.5 L 20.0971,-9.5 L 19.9652,-9.5 L 19.8333,-9.5 L 19.7013,-9.5 L 19.5694,-9.5 L 19.4374,-9.5 L 19.3055,-9.5 L 19.1735,-9.5 L 19.0416,-9.5 L 18.9097,-9.5 L 18.7777,-9.5 L 18.6458,-9.5 L 18.5138,-9.5 L 18.3819,-9.5 L 18.2499,-9.5 L 18.118,-9.5 L 17.9861,-9.5 L 17.8541,-9.5 L 17.7222,-9.5 L 17.5902,-9.5 L 17.4583,-9.5 L 17.3263,-9.5 L 17.1944,-9.5 L 17.0625,-9.5 L 16.9305,-9.5 L 16.7986,-9.5 L 16.6666,-9.5 L 16.5347,-9.5 L 16.4027,-9.5 L 16.2708,-9.5 L 16.1389,-9.5 L 16.0069,-9.5 L 15.875,-9.5 L 15.743,-9.5 L 15.6111,-9.5 L 15.4791,-9.5 L 15.3472,-9.5 L 15.2153,-9.5 L 15.0833,-9.5 L 14.9514,-9.5 L 14.8194,-9.5 L 14.6875,-9.5 L 14.5555,-9.5 L 14.4236,-9.5 L 14.2917,-9.5 L 14.1597,-9.5 L 14.0278,-9.5 L 13.8958,-9.5 L 13.7639,-9.5 L 13.6319,-9.5 L 13.5,-9.5" />
      <path d="M 23.0901,-9.5 L 23.0889,-9.5 L 23.0876,-9.5 L 23.0864,-9.5 L 23.0851,-9.5 L 23.0839,-9.5 L 23.0826,-9.5 L 23.0814,-9.5 L 23.0801,-9.5 L 23.0789,-9.5 L 23.0776,-9.5 L 23.0764,-9.5 L 23.0751,-9.5 L 23.0738,-9.5 L 23.0726,-9.5 L 23.0713,-9.5 L 23.0701,-9.5 L 23.0688,-9.5 L 23.0676,-9.5 L 23.0663,-9.5 L 23.0651,-9.5 L 23.0638,-9.5 L 23.0626,-9.5 L 23.0613,-9.5 L 23.0601,-9.5 L 23.0588,-9.5 L 23.0576,-9.5 L 23.0563,-9.5 L 23.055,-9.5 L 23.0538,-9.5 L 23.0525,-9.5 L 23.0513,-9.5 L 23.05,-9.5 L 23.0488,-9.5 L 23.0475,-9.5 L 23.0463,-9.5 L 23.045,-9.5 L 23.0438,-9.5 L 23.0425,-9.5 L 23.0413,-9.5 L 23.04,-9.5 L 23.0388,-9.5 L 23.0375,-9.5 L 23.0362,-9.5 L 23.035,-9.5 L 23.0337,-9.5 L 23.0325,-9.5 L 23.0312,-9.5 L 23.03,-9.5 L 23.0287,-9.5 L 23.0275,-9.5 L 23.0262,-9.5 L 23.025,-9.5 L 23.0237,-9.5 L 23.0225,-9.5 L 23.0212,-9.5 L 23.0199,-9.5 L 23.0187,-9.5 L 23.0174,-9.5 L 23.0162,-9.5 L 23.0149,-9.5 L 23.0137,-9.5 L 23.0124,-9.5 L 23.0112,-9.5 L 23.0099,-9.5 L 23.0087,-9.5 L 23.0074,-9.5 L 23.0062,-9.5 L 23.0049,-9.5 L 23.0037,-9.5 L 23.0024,-9.5 L 23.0011,-9.5 L 22.9999,-9.5" />
      <path d="M 22.9999,-9.5 L 22.9999,-9.2361 L 22.9999,-8.9722 L 22.9999,-8.7083 L 22.9999,-8.4444 L 22.9999,-8.1806 L 22.9999,-7.9167 L 22.9999,-7.6528 L 22.9999,-7.3889 L 22.9999,-7.125 L 22.9999,-6.8611 L 22.9999,-6.5972 L 22.9999,-6.3333 L 22.9999,-6.0694 L 22.9999,-5.8056 L 22.9999,-5.5417 L 22.9999,-5.2778 L 22.9999,-5.0139 L 22.9999,-4.75 L 22.9999,-4.4861 L 22.9999,-4.2222 L 22.9999,-3.9583 L 22.9999,-3.6944 L 22.9999,-3.4306 L 22.9999,-3.1667 L 22.9999,-2.9028 L 22.9999,-2.6389 L 22.9999,-2.375 L 22.9999,-2.1111 L 22.9999,-1.8472 L 22.9999,-1.5833 L 22.9999,-1.3194 L 22.9999,-1.0556 L 22.9999,-0.7917 L 22.9999,-0.5278 L 22.9999,-0.2639 L 22.9999,0.0 L 22.9999,0.2639 L 22.9999,0.5278 L 22.9999,0.7917 L 22.9999,1.0556 L 22.9999,1.3194 L 22.9999,1.5833 L 22.9999,1.8472 L 22.9999,2.1111 L 22.9999,2.375 L 22.9999,2.6389 L 22.9999,2.9028 L 22.9999,3.1667 L 22.9999,3.4306 L 22.9999,3.6944 L 22.9999,3.9583 L 22.9999,4.2222 L 22.9999,4.4861 L 22.9999,4.75 L 22.9999,5.0139 L 22.9999,5.2778 L 22.9999,5.5417 L 22.9999,5.8056 L 22.9999,6.0694 L 22.9999,6.3333 L 22.9999,6.5972 L 22.9999,6.8611 L 22.9999,7.125 L 22.9999,7.3889 L 22.9999,7.6528 L 22.9999,7.9167 L 22.9999,8.1806 L 22.9999,8.4444 L 22.9999,8.7083 L 22.9999,8.9722 L 22.9999,9.2361 L 22.9999,9.5" />
      <path d="M 23.045,5.05 L 23.0506,4.91 L 23.0529,4.7697 L 23.0546,4.6295 L 23.056,4.4892 L 23.0572,4.3489 L 23.0583,4.2086 L 23.0592,4.0683 L 23.0601,3.928 L 23.0609,3.7878 L 23.0616,3.6475 L 23.0623,3.5072 L 23.0629,3.3669 L 23.0635,3.2266 L 23.064,3.0863 L 23.0645,2.946 L 23.065,2.8058 L 23.0654,2.6655 L 23.0658,2.5252 L 23.0662,2.3849 L 23.0665,2.2446 L 23.0668,2.1043 L 23.0671,1.964 L 23.0674,1.8238 L 23.0676,1.6835 L 23.0679,1.5432 L 23.0681,1.4029 L 23.0682,1.2626 L 23.0684,1.1223 L 23.0685,0.982 L 23.0687,0.8418 L 23.0688,0.7015 L 23.0689,0.5612 L 23.0689,0.4209 L 23.069,0.2806 L 23.069,0.1403 L 23.069,0.0 L 23.069,-0.1402 L 23.069,-0.2805 L 23.0689,-0.4208 L 23.0689,-0.5611 L 23.0688,-0.7014 L 23.0687,-0.8417 L 23.0685,-0.982 L 23.0684,-1.1222 L 23.0682,-1.2625 L 23.0681,-1.4028 L 23.0679,-1.5431 L 23.0676,-1.6834 L 23.0674,-1.8237 L 23.0671,-1.964 L 23.0668,-2.1042 L 23.0665,-2.2445 L 23.0662,-2.3848 L 23.0658,-2.5251 L 23.0654,-2.6654 L 23.065,-2.8057 L 23.0645,-2.946 L 23.064,-3.0862 L 23.0635,-3.2265 L 23.0629,-3.3668 L 23.0623,-3.5071 L 23.0616,-3.6474 L 23.0609,-3.7877 L 23.0601,-3.9279 L 23.0592,-4.0682 L 23.0583,-4.2085 L 23.0572,-4.3488 L 23.056,-4.4891 L 23.0546,-4.6294 L 23.0529,-4.7696 L 23.0506,-4.9099 L 23.045,-5.05" />
      <path d="M 23.045,-5.05 L 23.0394,-4.91 L 23.0371,-4.7697 L 23.0354,-4.6295 L 23.034,-4.4892 L 23.0328,-4.3489 L 23.0318,-4.2086 L 23.0308,-4.0683 L 23.0299,-3.928 L 23.0292,-3.7878 L 23.0284,-3.6475 L 23.0278,-3.5072 L 23.0271,-3.3669 L 23.0266,-3.2266 L 23.026,-3.0863 L 23.0255,-2.946 L 23.0251,-2.8058 L 23.0246,-2.6655 L 23.0242,-2.5252 L 23.0239,-2.3849 L 23.0235,-2.2446 L 23.0232,-2.1043 L 23.0229,-1.964 L 23.0226,-1.8238 L 23.0224,-1.6835 L 23.0222,-1.5432 L 23.022,-1.4029 L 23.0218,-1.2626 L 23.0216,-1.1223 L 23.0215,-0.982 L 23.0214,-0.8418 L 23.0213,-0.7015 L 23.0212,-0.5612 L 23.0211,-0.4209 L 23.0211,-0.2806 L 23.021,-0.1403 L 23.021,0.0 L 23.021,0.1402 L 23.0211,0.2805 L 23.0211,0.4208 L 23.0212,0.5611 L 23.0213,0.7014 L 23.0214,0.8417 L 23.0215,0.982 L 23.0216,1.1222 L 23.0218,1.2625 L 23.022,1.4028 L 23.0222,1.5431 L 23.0224,1.6834 L 23.0226,1.8237 L 23.0229,1.964 L 23.0232,2.1042 L 23.0235,2.2445 L 23.0239,2.3848 L 23.0242,2.5251 L 23.0246,2.6654 L 23.0251,2.8057 L 23.0255,2.946 L 23.026,3.0862 L 23.0266,3.2265 L 23.0271,3.3668 L 23.0278,3.5071 L 23.0284,3.6474 L 23.0292,3.7877 L 23.0299,3.9279 L 23.0308,4.0682 L 23.0318,4.2085 L 23.0328,4.3488 L 23.034,4.4891 L 23.0354,4.6294 L 23.0371,4.7696 L 23.0394,4.9099 L 23.045,5.05" />
      <path d="M 13.5,-9.5 L 13.5,-9.2361 L 13.5,-8.9722 L 13.5,-8.7083 L 13.5,-8.4444 L 13.5,-8.1806 L 13.5,-7.9167 L 13.5,-7.6528 L 13.5,-7.3889 L 13.5,-7.125 L 13.5,-6.8611 L 13.5,-6.5972 L 13.5,-6.3333 L 13.5,-6.0694 L 13.5,-5.8056 L 13.5,-5.5417 L 13.5,-5.2778 L 13.5,-5.0139 L 13.5,-4.75 L 13.5,-4.4861 L 13.5,-4.2222 L 13.5,-3.9583 L 13.5,-3.6944 L 13.5,-3.4306 L 13.5,-3.1667 L 13.5,-2.9028 L 13.5,-2.6389 L 13.5,-2.375 L 13.5,-2.1111 L 13.5,-1.8472 L 13.5,-1.5833 L 13.5,-1.3194 L 13.5,-1.0556 L 13.5,-0.7917 L 13.5,-0.5278 L 13.5,-0.2639 L 13.5,0.0 L 13.5,0.2639 L 13.5,0.5278 L 13.5,0.7917 L 13.5,1.0556 L 13.5,1.3194 L 13.5,1.5833 L 13.5,1.8472 L 13.5,2.1111 L 13.5,2.375 L 13.5,2.6389 L 13.5,2.9028 L 13.5,3.1667 L 13.5,3.4306 L 13.5,3.6944 L 13.5,3.9583 L 13.5,4.2222 L 13.5,4.4861 L 13.5,4.75 L 13.5,5.0139 L 13.5,5.2778 L 13.5,5.5417 L 13.5,5.8056 L 13.5,6.0694 L 13.5,6.3333 L 13.5,6.5972 L 13.5,6.8611 L 13.5,7.125 L 13.5,7.3889 L 13.5,7.6528 L 13.5,7.9167 L 13.5,8.1806 L 13.5,8.4444 L 13.5,8.7083 L 13.5,8.9722 L 13.5,9.2361 L 13.5,9.5" />
    </g>
    <g fill="none" stroke="rgb(110,110,110)" stroke-width="0.3" id="Hidden" stroke-dasharray="3.6 0.9">
      <path d="M -9.5,9.5 L -9.5,9.2361 L -9.5,8.9722 L -9.5,8.7083 L -9.5,8.4444 L -9.5,8.1806 L -9.5,7.9167 L -9.5,7.6528 L -9.5,7.3889 L -9.5,7.125 L -9.5,6.8611 L -9.5,6.5972 L -9.5,6.3333 L -9.5,6.0694 L -9.5,5.8056 L -9.5,5.5417 L -9.5,5.2778 L -9.5,5.0139 L -9.5,4.75 L -9.5,4.4861 L -9.5,4.2222 L -9.5,3.9583 L -9.5,3.6944 L -9.5,3.4306 L -9.5,3.1667 L -9.5,2.9028 L -9.5,2.6389 L -9.5,2.375 L -9.5,2.1111 L -9.5,1.8472 L -9.5,1.5833 L -9.5,1.3194 L -9.5,1.0556 L -9.5,0.7917 L -9.5,0.5278 L -9.5,0.2639 L -9.5,0.0 L -9.5,-0.2639 L -9.5,-0.5278 L -9.5,-0.7917 L -9.5,-1.0556 L -9.5,-1.3194 L -9.5,-1.5833 L -9.5,-1.8472 L -9.5,-2.1111 L -9.5,-2.375 L -9.5,-2.6389 L -9.5,-2.9028 L -9.5,-3.1667 L -9.5,-3.4306 L -9.5,-3.6944 L -9.5,-3.9583 L -9.5,-4.2222 L -9.5,-4.4861 L -9.5,-4.75 L -9.5,-5.0139 L -9.5,-5.2778 L -9.5,-5.5417 L -9.5,-5.8056 L -9.5,-6.0694 L -9.5,-6.3333 L -9.5,-6.5972 L -9.5,-6.8611 L -9.5,-7.125 L -9.5,-7.3889 L -9.5,-7.6528 L -9.5,-7.9167 L -9.5,-8.1806 L -9.5,-8.4444 L -9.5,-8.7083 L -9.5,-8.9722 L -9.5,-9.2361 L -9.5,-9.5" />
      <path d="M 9.5,9.5 L 9.2361,9.5 L 8.9722,9.5 L 8.7083,9.5 L 8.4444,9.5 L 8.1806,9.5 L 7.9167,9.5 L 7.6528,9.5 L 7.3889,9.5 L 7.125,9.5 L 6.8611,9.5 L 6.5972,9.5 L 6.3333,9.5 L 6.0694,9.5 L 5.8056,9.5 L 5.5417,9.5 L 5.2778,9.5 L 5.0139,9.5 L 4.75,9.5 L 4.4861,9.5 L 4.2222,9.5 L 3.9583,9.5 L 3.6944,9.5 L 3.4306,9.5 L 3.1667,9.5 L 2.9028,9.5 L 2.6389,9.5 L 2.375,9.5 L 2.1111,9.5 L 1.8472,9.5 L 1.5833,9.5 L 1.3194,9.5 L 1.0556,9.5 L 0.7917,9.5 L 0.5278,9.5 L 0.2639,9.5 L 0.0,9.5 L -0.2639,9.5 L -0.5278,9.5 L -0.7917,9.5 L -1.0556,9.5 L -1.3194,9.5 L -1.5833,9.5 L -1.8472,9.5 L -2.1111,9.5 L -2.375,9.5 L -2.6389,9.5 L -2.9028,9.5 L -3.1667,9.5 L -3.4306,9.5 L -3.6944,9.5 L -3.9583,9.5 L -4.2222,9.5 L -4.4861,9.5 L -4.75,9.5 L -5.0139,9.5 L -5.2778,9.5 L -5.5417,9.5 L -5.8056,9.5 L -6.0694,9.5 L -6.3333,9.5 L -6.5972,9.5 L -6.8611,9.5 L -7.125,9.5 L -7.3889,9.5 L -7.6528,9.5 L -7.9167,9.5 L -8.1806,9.5 L -8.4444,9.5 L -8.7083,9.5 L -8.9722,9.5 L -9.2361,9.5 L -9.5,9.5" />
      <path d="M -9.5,-9.5 L -9.2361,-9.5 L -8.9722,-9.5 L -8.7083,-9.5 L -8.4444,-9.5 L -8.1806,-9.5 L -7.9167,-9.5 L -7.6528,-9.5 L -7.3889,-9.5 L -7.125,-9.5 L -6.8611,-9.5 L -6.5972,-9.5 L -6.3333,-9.5 L -6.0694,-9.5 L -5.8056,-9.5 L -5.5417,-9.5 L -5.2778,-9.5 L -5.0139,-9.5 L -4.75,-9.5 L -4.4861,-9.5 L -4.2222,-9.5 L -3.9583,-9.5 L -3.6944,-9.5 L -3.4306,-9.5 L -3.1667,-9.5 L -2.9028,-9.5 L -2.6389,-9.5 L -2.375,-9.5 L -2.1111,-9.5 L -1.8472,-9.5 L -1.5833,-9.5 L -1.3194,-9.5 L -1.0556,-9.5 L -0.7917,-9.5 L -0.5278,-9.5 L -0.2639,-9.5 L 0.0,-9.5 L 0.2639,-9.5 L 0.5278,-9.5 L 0.7917,-9.5 L 1.0556,-9.5 L 1.3194,-9.5 L 1.5833,-9.5 L 1.8472,-9.5 L 2.1111,-9.5 L 2.375,-9.5 L 2.6389,-9.5 L 2.9028,-9.5 L 3.1667,-9.5 L 3.4306,-9.5 L 3.6944,-9.5 L 3.9583,-9.5 L 4.2222,-9.5 L 4.4861,-9.5 L 4.75,-9.5 L 5.0139,-9.5 L 5.2778,-9.5 L 5.5417,-9.5 L 5.8056,-9.5 L 6.0694,-9.5 L 6.3333,-9.5 L 6.5972,-9.5 L 6.8611,-9.5 L 7.125,-9.5 L 7.3889,-9.5 L 7.6528,-9.5 L 7.9167,-9.5 L 8.1806,-9.5 L 8.4444,-9.5 L 8.7083,-9.5 L 8.9722,-9.5 L 9.2361,-9.5 L 9.5,-9.5" />
      <path d="M 9.5,-9.5 L 9.5,-9.2361 L 9.5,-8.9722 L 9.5,-8.7083 L 9.5,-8.4444 L 9.5,-8.1806 L 9.5,-7.9167 L 9.5,-7.6528 L 9.5,-7.3889 L 9.5,-7.125 L 9.5,-6.8611 L 9.5,-6.5972 L 9.5,-6.3333 L 9.5,-6.0694 L 9.5,-5.8056 L 9.5,-5.5417 L 9.5,-5.2778 L 9.5,-5.0139 L 9.5,-4.75 L 9.5,-4.4861 L 9.5,-4.2222 L 9.5,-3.9583 L 9.5,-3.6944 L 9.5,-3.4306 L 9.5,-3.1667 L 9.5,-2.9028 L 9.5,-2.6389 L 9.5,-2.375 L 9.5,-2.1111 L 9.5,-1.8472 L 9.5,-1.5833 L 9.5,-1.3194 L 9.5,-1.0556 L 9.5,-0.7917 L 9.5,-0.5278 L 9.5,-0.2639 L 9.5,0.0 L 9.5,0.2639 L 9.5,0.5278 L 9.5,0.7917 L 9.5,1.0556 L 9.5,1.3194 L 9.5,1.5833 L 9.5,1.8472 L 9.5,2.1111 L 9.5,2.375 L 9.5,2.6389 L 9.5,2.9028 L 9.5,3.1667 L 9.5,3.4306 L 9.5,3.6944 L 9.5,3.9583 L 9.5,4.2222 L 9.5,4.4861 L 9.5,4.75 L 9.5,5.0139 L 9.5,5.2778 L 9.5,5.5417 L 9.5,5.8056 L 9.5,6.0694 L 9.5,6.3333 L 9.5,6.5972 L 9.5,6.8611 L 9.5,7.125 L 9.5,7.3889 L 9.5,7.6528 L 9.5,7.9167 L 9.5,8.1806 L 9.5,8.4444 L 9.5,8.7083 L 9.5,8.9722 L 9.5,9.2361 L 9.5,9.5" />
      <path d="M -0.0,5.05 L -0.4401,5.0308 L -0.8769,4.9733 L -1.307,4.8779 L -1.7272,4.7454 L -2.1342,4.5769 L -2.525,4.3734 L -2.8966,4.1367 L -3.2461,3.8685 L -3.5709,3.5709 L -3.8685,3.2461 L -4.1367,2.8966 L -4.3734,2.525 L -4.5769,2.1342 L -4.7454,1.7272 L -4.8779,1.307 L -4.9733,0.8769 L -5.0308,0.4401 L -5.05,-0.0 L -5.0308,-0.4401 L -4.9733,-0.8769 L -4.8779,-1.307 L -4.7454,-1.7272 L -4.5769,-2.1342 L -4.3734,-2.525 L -4.1367,-2.8966 L -3.8685,-3.2461 L -3.5709,-3.5709 L -3.2461,-3.8685 L -2.8966,-4.1367 L -2.525,-4.3734 L -2.1342,-4.5769 L -1.7272,-4.7454 L -1.307,-4.8779 L -0.8769,-4.9733 L -0.4401,-5.0308 L 0.0,-5.05 L 0.4401,-5.0308 L 0.8769,-4.9733 L 1.307,-4.8779 L 1.7272,-4.7454 L 2.1342,-4.5769 L 2.525,-4.3734 L 2.8966,-4.1367 L 3.2461,-3.8685 L 3.5709,-3.5709 L 3.8685,-3.2461 L 4.1367,-2.8966 L 4.3734,-2.525 L 4.5769,-2.1342 L 4.7454,-1.7272 L 4.8779,-1.307 L 4.9733,-0.8769 L 5.0308,-0.4401 L 5.05,0.0 L 5.0308,0.4401 L 4.9733,0.8769 L 4.8779,1.307 L 4.7454,1.7272 L 4.5769,2.1342 L 4.3734,2.525 L 4.1367,2.8966 L 3.8685,3.2461 L 3.5709,3.5709 L 3.2461,3.8685 L 2.8966,4.1367 L 2.525,4.3734 L 2.1342,4.5769 L 1.7272,4.7454 L 1.307,4.8779 L 0.8769,4.9733 L 0.4401,5.0308 L -0.0,5.05" />
      <path d="M 23.0901,9.5 L 22.9582,9.5 L 22.8263,9.5 L 22.6943,9.5 L 22.5624,9.5 L 22.4304,9.5 L 22.2985,9.5 L 22.1665,9.5 L 22.0346,9.5 L 21.9027,9.5 L 21.7707,9.5 L 21.6388,9.5 L 21.5068,9.5 L 21.3749,9.5 L 21.2429,9.5 L 21.111,9.5 L 20.9791,9.5 L 20.8471,9.5 L 20.7152,9.5 L 20.5832,9.5 L 20.4513,9.5 L 20.3193,9.5 L 20.1874,9.5 L 20.0555,9.5 L 19.9235,9.5 L 19.7916,9.5 L 19.6596,9.5 L 19.5277,9.5 L 19.3957,9.5 L 19.2638,9.5 L 19.1319,9.5 L 18.9999,9.5 L 18.868,9.5 L 18.736,9.5 L 18.6041,9.5 L 18.4721,9.5 L 18.3402,9.5 L 18.2083,9.5 L 18.0763,9.5 L 17.9444,9.5 L 17.8124,9.5 L 17.6805,9.5 L 17.5485,9.5 L 17.4166,9.5 L 17.2847,9.5 L 17.1527,9.5 L 17.0208,9.5 L 16.8888,9.5 L 16.7569,9.5 L 16.6249,9.5 L 16.493,9.5 L 16.3611,9.5 L 16.2291,9.5 L 16.0972,9.5 L 15.9652,9.5 L 15.8333,9.5 L 15.7013,9.5 L 15.5694,9.5 L 15.4375,9.5 L 15.3055,9.5 L 15.1736,9.5 L 15.0416,9.5 L 14.9097,9.5 L 14.7777,9.5 L 14.6458,9.5 L 14.5138,9.5 L 14.3819,9.5 L 14.25,9.5 L 14.118,9.5 L 13.9861,9.5 L 13.8541,9.5 L 13.7222,9.5 L 13.5902,9.5" />
      <path d="M 23.0901,-9.5 L 22.9582,-9.5 L 22.8263,-9.5 L 22.6943,-9.5 L 22.5624,-9.5 L 22.4304,-9.5 L 22.2985,-9.5 L 22.1665,-9.5 L 22.0346,-9.5 L 21.9027,-9.5 L 21.7707,-9.5 L 21.6388,-9.5 L 21.5068,-9.5 L 21.3749,-9.5 L 21.2429,-9.5 L 21.111,-9.5 L 20.9791,-9.5 L 20.8471,-9.5 L 20.7152,-9.5 L 20.5832,-9.5 L 20.4513,-9.5 L 20.3193,-9.5 L 20.1874,-9.5 L 20.0555,-9.5 L 19.9235,-9.5 L 19.7916,-9.5 L 19.6596,-9.5 L 19.5277,-9.5 L 19.3957,-9.5 L 19.2638,-9.5 L 19.1319,-9.5 L 18.9999,-9.5 L 18.868,-9.5 L 18.736,-9.5 L 18.6041,-9.5 L 18.4721,-9.5 L 18.3402,-9.5 L 18.2083,-9.5 L 18.0763,-9.5 L 17.9444,-9.5 L 17.8124,-9.5 L 17.6805,-9.5 L 17.5485,-9.5 L 17.4166,-9.5 L 17.2847,-9.5 L 17.1527,-9.5 L 17.0208,-9.5 L 16.8888,-9.5 L 16.7569,-9.5 L 16.6249,-9.5 L 16.493,-9.5 L 16.3611,-9.5 L 16.2291,-9.5 L 16.0972,-9.5 L 15.9652,-9.5 L 15.8333,-9.5 L 15.7013,-9.5 L 15.5694,-9.5 L 15.4375,-9.5 L 15.3055,-9.5 L 15.1736,-9.5 L 15.0416,-9.5 L 14.9097,-9.5 L 14.7777,-9.5 L 14.6458,-9.5 L 14.5138,-9.5 L 14.3819,-9.5 L 14.25,-9.5 L 14.118,-9.5 L 13.9861,-9.5 L 13.8541,-9.5 L 13.7222,-9.5 L 13.5902,-9.5" />
      <path d="M 13.5902,9.5 L 13.5902,9.2361 L 13.5902,8.9722 L 13.5902,8.7083 L 13.5902,8.4444 L 13.5902,8.1806 L 13.5902,7.9167 L 13.5902,7.6528 L 13.5902,7.3889 L 13.5902,7.125 L 13.5902,6.8611 L 13.5902,6.5972 L 13.5902,6.3333 L 13.5902,6.0694 L 13.5902,5.8056 L 13.5902,5.5417 L 13.5902,5.2778 L 13.5902,5.0139 L 13.5902,4.75 L 13.5902,4.4861 L 13.5902,4.2222 L 13.5902,3.9583 L 13.5902,3.6944 L 13.5902,3.4306 L 13.5902,3.1667 L 13.5902,2.9028 L 13.5902,2.6389 L 13.5902,2.375 L 13.5902,2.1111 L 13.5902,1.8472 L 13.5902,1.5833 L 13.5902,1.3194 L 13.5902,1.0556 L 13.5902,0.7917 L 13.5902,0.5278 L 13.5902,0.2639 L 13.5902,0.0 L 13.5902,-0.2639 L 13.5902,-0.5278 L 13.5902,-0.7917 L 13.5902,-1.0556 L 13.5902,-1.3194 L 13.5902,-1.5833 L 13.5902,-1.8472 L 13.5902,-2.1111 L 13.5902,-2.375 L 13.5902,-2.6389 L 13.5902,-2.9028 L 13.5902,-3.1667 L 13.5902,-3.4306 L 13.5902,-3.6944 L 13.5902,-3.9583 L 13.5902,-4.2222 L 13.5902,-4.4861 L 13.5902,-4.75 L 13.5902,-5.0139 L 13.5902,-5.2778 L 13.5902,-5.5417 L 13.5902,-5.8056 L 13.5902,-6.0694 L 13.5902,-6.3333 L 13.5902,-6.5972 L 13.5902,-6.8611 L 13.5902,-7.125 L 13.5902,-7.3889 L 13.5902,-7.6528 L 13.5902,-7.9167 L 13.5902,-8.1806 L 13.5902,-8.4444 L 13.5902,-8.7083 L 13.5902,-8.9722 L 13.5902,-9.2361 L 13.5902,-9.5" />
      <path d="M 13.5,9.5 L 13.5013,9.5 L 13.5025,9.5 L 13.5038,9.5 L 13.505,9.5 L 13.5063,9.5 L 13.5075,9.5 L 13.5088,9.5 L 13.51,9.5 L 13.5113,9.5 L 13.5125,9.5 L 13.5138,9.5 L 13.515,9.5 L 13.5163,9.5 L 13.5175,9.5 L 13.5188,9.5 L 13.5201,9.5 L 13.5213,9.5 L 13.5226,9.5 L 13.5238,9.5 L 13.5251,9.5 L 13.5263,9.5 L 13.5276,9.5 L 13.5288,9.5 L 13.5301,9.5 L 13.5313,9.5 L 13.5326,9.5 L 13.5338,9.5 L 13.5351,9.5 L 13.5364,9.5 L 13.5376,9.5 L 13.5389,9.5 L 13.5401,9.5 L 13.5414,9.5 L 13.5426,9.5 L 13.5439,9.5 L 13.5451,9.5 L 13.5464,9.5 L 13.5476,9.5 L 13.5489,9.5 L 13.5501,9.5 L 13.5514,9.5 L 13.5526,9.5 L 13.5539,9.5 L 13.5552,9.5 L 13.5564,9.5 L 13.5577,9.5 L 13.5589,9.5 L 13.5602,9.5 L 13.5614,9.5 L 13.5627,9.5 L 13.5639,9.5 L 13.5652,9.5 L 13.5664,9.5 L 13.5677,9.5 L 13.5689,9.5 L 13.5702,9.5 L 13.5714,9.5 L 13.5727,9.5 L 13.574,9.5 L 13.5752,9.5 L 13.5765,9.5 L 13.5777,9.5 L 13.579,9.5 L 13.5802,9.5 L 13.5815,9.5 L 13.5827,9.5 L 13.584,9.5 L 13.5852,9.5 L 13.5865,9.5 L 13.5877,9.5 L 13.589,9.5 L 13.5902,9.5" />
      <path d="M 13.5902,-9.5 L 13.589,-9.5 L 13.5877,-9.5 L 13.5865,-9.5 L 13.5852,-9.5 L 13.584,-9.5 L 13.5827,-9.5 L 13.5815,-9.5 L 13.5802,-9.5 L 13.579,-9.5 L 13.5777,-9.5 L 13.5765,-9.5 L 13.5752,-9.5 L 13.574,-9.5 L 13.5727,-9.5 L 13.5714,-9.5 L 13.5702,-9.5 L 13.5689,-9.5 L 13.5677,-9.5 L 13.5664,-9.5 L 13.5652,-9.5 L 13.5639,-9.5 L 13.5627,-9.5 L 13.5614,-9.5 L 13.5602,-9.5 L 13.5589,-9.5 L 13.5577,-9.5 L 13.5564,-9.5 L 13.5552,-9.5 L 13.5539,-9.5 L 13.5526,-9.5 L 13.5514,-9.5 L 13.5501,-9.5 L 13.5489,-9.5 L 13.5476,-9.5 L 13.5464,-9.5 L 13.5451,-9.5 L 13.5439,-9.5 L 13.5426,-9.5 L 13.5414,-9.5 L 13.5401,-9.5 L 13.5389,-9.5 L 13.5376,-9.5 L 13.5364,-9.5 L 13.5351,-9.5 L 13.5338,-9.5 L 13.5326,-9.5 L 13.5313,-9.5 L 13.5301,-9.5 L 13.5288,-9.5 L 13.5276,-9.5 L 13.5263,-9.5 L 13.5251,-9.5 L 13.5238,-9.5 L 13.5226,-9.5 L 13.5213,-9.5 L 13.5201,-9.5 L 13.5188,-9.5 L 13.5175,-9.5 L 13.5163,-9.5 L 13.515,-9.5 L 13.5138,-9.5 L 13.5125,-9.5 L 13.5113,-9.5 L 13.51,-9.5 L 13.5088,-9.5 L 13.5075,-9.5 L 13.5063,-9.5 L 13.505,-9.5 L 13.5038,-9.5 L 13.5025,-9.5 L 13.5013,-9.5 L 13.5,-9.5" />
      <path d="M 13.5451,5.05 L 13.5507,4.91 L 13.553,4.7697 L 13.5547,4.6295 L 13.5561,4.4892 L 13.5573,4.3489 L 13.5584,4.2086 L 13.5593,4.0683 L 13.5602,3.928 L 13.561,3.7878 L 13.5617,3.6475 L 13.5624,3.5072 L 13.563,3.3669 L 13.5636,3.2266 L 13.5641,3.0863 L 13.5646,2.946 L 13.5651,2.8058 L 13.5655,2.6655 L 13.5659,2.5252 L 13.5663,2.3849 L 13.5666,2.2446 L 13.5669,2.1043 L 13.5672,1.964 L 13.5675,1.8238 L 13.5677,1.6835 L 13.568,1.5432 L 13.5682,1.4029 L 13.5683,1.2626 L 13.5685,1.1223 L 13.5687,0.982 L 13.5688,0.8418 L 13.5689,0.7015 L 13.569,0.5612 L 13.569,0.4209 L 13.5691,0.2806 L 13.5691,0.1403 L 13.5691,0.0 L 13.5691,-0.1402 L 13.5691,-0.2805 L 13.569,-0.4208 L 13.569,-0.5611 L 13.5689,-0.7014 L 13.5688,-0.8417 L 13.5687,-0.982 L 13.5685,-1.1222 L 13.5683,-1.2625 L 13.5682,-1.4028 L 13.568,-1.5431 L 13.5677,-1.6834 L 13.5675,-1.8237 L 13.5672,-1.964 L 13.5669,-2.1042 L 13.5666,-2.2445 L 13.5663,-2.3848 L 13.5659,-2.5251 L 13.5655,-2.6654 L 13.5651,-2.8057 L 13.5646,-2.946 L 13.5641,-3.0862 L 13.5636,-3.2265 L 13.563,-3.3668 L 13.5624,-3.5071 L 13.5617,-3.6474 L 13.561,-3.7877 L 13.5602,-3.9279 L 13.5593,-4.0682 L 13.5584,-4.2085 L 13.5573,-4.3488 L 13.5561,-4.4891 L 13.5547,-4.6294 L 13.553,-4.7696 L 13.5507,-4.9099 L 13.5451,-5.05" />
      <path d="M 13.5451,-5.05 L 13.5395,-4.91 L 13.5372,-4.7697 L 13.5355,-4.6295 L 13.5341,-4.4892 L 13.5329,-4.3489 L 13.5319,-4.2086 L 13.5309,-4.0683 L 13.53,-3.928 L 13.5293,-3.7878 L 13.5285,-3.6475 L 13.5279,-3.5072 L 13.5272,-3.3669 L 13.5267,-3.2266 L 13.5261,-3.0863 L 13.5256,-2.946 L 13.5252,-2.8058 L 13.5248,-2.6655 L 13.5244,-2.5252 L 13.524,-2.3849 L 13.5236,-2.2446 L 13.5233,-2.1043 L 13.523,-1.964 L 13.5228,-1.8238 L 13.5225,-1.6835 L 13.5223,-1.5432 L 13.5221,-1.4029 L 13.5219,-1.2626 L 13.5217,-1.1223 L 13.5216,-0.982 L 13.5215,-0.8418 L 13.5214,-0.7015 L 13.5213,-0.5612 L 13.5212,-0.4209 L 13.5212,-0.2806 L 13.5211,-0.1403 L 13.5211,0.0 L 13.5211,0.1402 L 13.5212,0.2805 L 13.5212,0.4208 L 13.5213,0.5611 L 13.5214,0.7014 L 13.5215,0.8417 L 13.5216,0.982 L 13.5217,1.1222 L 13.5219,1.2625 L 13.5221,1.4028 L 13.5223,1.5431 L 13.5225,1.6834 L 13.5228,1.8237 L 13.523,1.964 L 13.5233,2.1042 L 13.5236,2.2445 L 13.524,2.3848 L 13.5244,2.5251 L 13.5248,2.6654 L 13.5252,2.8057 L 13.5256,2.946 L 13.5261,3.0862 L 13.5267,3.2265 L 13.5272,3.3668 L 13.5279,3.5071 L 13.5285,3.6474 L 13.5293,3.7877 L 13.53,3.9279 L 13.5309,4.0682 L 13.5319,4.2085 L 13.5329,4.3488 L 13.5341,4.4891 L 13.5355,4.6294 L 13.5372,4.7696 L 13.5395,4.9099 L 13.5451,5.05" />
      <path d="M 23.045,5.05 L 22.9131,5.05 L 22.7811,5.05 L 22.6492,5.05 L 22.5172,5.05 L 22.3853,5.05 L 22.2534,5.05 L 22.1214,5.05 L 21.9895,5.05 L 21.8575,5.05 L 21.7256,5.05 L 21.5936,5.05 L 21.4617,5.05 L 21.3298,5.05 L 21.1978,5.05 L 21.0659,5.05 L 20.9339,5.05 L 20.802,5.05 L 20.67,5.05 L 20.5381,5.05 L 20.4062,5.05 L 20.2742,5.05 L 20.1423,5.05 L 20.0103,5.05 L 19.8784,5.05 L 19.7464,5.05 L 19.6145,5.05 L 19.4826,5.05 L 19.3506,5.05 L 19.2187,5.05 L 19.0867,5.05 L 18.9548,5.05 L 18.8228,5.05 L 18.6909,5.05 L 18.559,5.05 L 18.427,5.05 L 18.2951,5.05 L 18.1631,5.05 L 18.0312,5.05 L 17.8992,5.05 L 17.7673,5.05 L 17.6354,5.05 L 17.5034,5.05 L 17.3715,5.05 L 17.2395,5.05 L 17.1076,5.05 L 16.9756,5.05 L 16.8437,5.05 L 16.7118,5.05 L 16.5798,5.05 L 16.4479,5.05 L 16.3159,5.05 L 16.184,5.05 L 16.052,5.05 L 15.9201,5.05 L 15.7882,5.05 L 15.6562,5.05 L 15.5243,5.05 L 15.3923,5.05 L 15.2604,5.05 L 15.1284,5.05 L 14.9965,5.05 L 14.8646,5.05 L 14.7326,5.05 L 14.6007,5.05 L 14.4687,5.05 L 14.3368,5.05 L 14.2048,5.05 L 14.0729,5.05 L 13.941,5.05 L 13.809,5.05 L 13.6771,5.05 L 13.5451,5.05" />
      <path d="M 23.045,-5.05 L 22.9131,-5.05 L 22.7811,-5.05 L 22.6492,-5.05 L 22.5172,-5.05 L 22.3853,-5.05 L 22.2534,-5.05 L 22.1214,-5.05 L 21.9895,-5.05 L 21.8575,-5.05 L 21.7256,-5.05 L 21.5936,-5.05 L 21.4617,-5.05 L 21.3298,-5.05 L 21.1978,-5.05 L 21.0659,-5.05 L 20.9339,-5.05 L 20.802,-5.05 L 20.67,-5.05 L 20.5381,-5.05 L 20.4062,-5.05 L 20.2742,-5.05 L 20.1423,-5.05 L 20.0103,-5.05 L 19.8784,-5.05 L 19.7464,-5.05 L 19.6145,-5.05 L 19.4826,-5.05 L 19.3506,-5.05 L 19.2187,-5.05 L 19.0867,-5.05 L 18.9548,-5.05 L 18.8228,-5.05 L 18.6909,-5.05 L 18.559,-5.05 L 18.427,-5.05 L 18.2951,-5.05 L 18.1631,-5.05 L 18.0312,-5.05 L 17.8992,-5.05 L 17.7673,-5.05 L 17.6354,-5.05 L 17.5034,-5.05 L 17.3715,-5.05 L 17.2395,-5.05 L 17.1076,-5.05 L 16.9756,-5.05 L 16.8437,-5.05 L 16.7118,-5.05 L 16.5798,-5.05 L 16.4479,-5.05 L 16.3159,-5.05 L 16.184,-5.05 L 16.052,-5.05 L 15.9201,-5.05 L 15.7882,-5.05 L 15.6562,-5.05 L 15.5243,-5.05 L 15.3923,-5.05 L 15.2604,-5.05 L 15.1284,-5.05 L 14.9965,-5.05 L 14.8646,-5.05 L 14.7326,-5.05 L 14.6007,-5.05 L 14.4687,-5.05 L 14.3368,-5.05 L 14.2048,-5.05 L 14.0729,-5.05 L 13.941,-5.05 L 13.809,-5.05 L 13.6771,-5.05 L 13.5451,-5.05" />
    </g>
    <g fill="none" stroke="rgb(0,0,0)" stroke-width="0.2" id="Center" stroke-dasharray="6.35 1.27 1.27 1.27">
      <line x1="0.0" y1="0.0" x2="-11.02" y2="0.0" />
      <line x1="0.0" y1="0.0" x2="11.02" y2="0.0" />
      <line x1="0.0" y1="0.0" x2="0.0" y2="-11.02" />
      <line x1="0.0" y1="0.0" x2="0.0" y2="11.02" />
      <line x1="18.2951" y1="0.0" x2="11.98" y2="0.0" />
      <line x1="18.2951" y1="0.0" x2="24.6101" y2="0.0" />
    </g>
  </g>
</svg>