<?xml version='1.0' encoding='utf-8'?>
<svg width="110.2294mm" height="33.96mm" viewBox="-16.98 -16.98 110.2294 33.96" version="1.1" xmlns="http://www.w3.org/2000/svg">
  <g transform="scale(1,-1)" stroke-linecap="round">
    <g fill="none" stroke="rgb(0,0,0)" stroke-width="0.4" id="Visible">
      <path d="M 0.0,9.0 L -0.7844,8.9658 L -1.5628,8.8633 L -2.3294,8.6933 L -3.0782,8.4572 L -3.8036,8.1568 L -4.5,7.7942 L -5.1622,7.3724 L -5.7851,6.8944 L -6.364,6.364 L -6.8944,5.7851 L -7.3724,5.1622 L -7.7942,4.5 L -8.1568,3.8036 L -8.4572,3.0782 L -8.6933,2.3294 L -8.8633,1.5628 L -8.9658,0.7844 L -9.0,-0.0 L -8.9658,-0.7844 L -8.8633,-1.5628 L -8.6933,-2.3294 L -8.4572,-3.0782 L -8.1568,-3.8036 L -7.7942,-4.5 L -7.3724,-5.1622 L -6.8944,-5.7851 L -6.364,-6.364 L -5.7851,-6.8944 L -5.1622,-7.3724 L -4.5,-7.7942 L -3.8036,-8.1568 L -3.0782,-8.4572 L -2.3294,-8.6933 L -1.5628,-8.8633 L -0.7844,-8.9658 L -0.0,-9.0 L 0.7844,-8.9658 L 1.5628,-8.8633 L 2.3294,-8.6933 L 3.0782,-8.4572 L 3.8036,-8.1568 L 4.5,-7.7942 L 5.1622,-7.3724 L 5.7851,-6.8944 L 6.364,-6.364 L 6.8944,-5.7851 L 7.3724,-5.1622 L 7.7942,-4.5 L 8.1568,-3.8036 L 8.4572,-3.0782 L 8.6933,-2.3294 L 8.8633,-1.5628 L 8.9658,-0.7844 L 9.0,0.0 L 8.9658,0.7844 L 8.8633,1.5628 L 8.6933,2.3294 L 8.4572,3.0782 L 8.1568,3.8036 L 7.7942,4.5 L 7.3724,5.1622 L 6.8944,5.7851 L 6.364,6.364 L 5.7851,6.8944 L 5.1622,7.3724 L 4.5,7.7942 L 3.8036,8.1568 L 3.0782,8.4572 L 2.3294,8.6933 L 1.5628,8.8633 L 0.7844,8.9658 L 0.0,9.0" />
      <path d="M -5.0,-2.8868 L -5.0,-2.8066 L -5.0,-2.7264 L -5.0,-2.6462 L -5.0,-2.566 L -5.0,-2.4858 L -5.0,-2.4056 L -5.0,-2.3254 L -5.0,-2.2453 L -5.0,-2.1651 L -5.0,-2.0849 L -5.0,-2.0047 L -5.0,-1.9245 L -5.0,-1.8443 L -5.0,-1.7641 L -5.0,-1.6839 L -5.0,-1.6038 L -5.0,-1.5236 L -5.0,-1.4434 L -5.0,-1.3632 L -5.0,-1.283 L -5.0,-1.2028 L -5.0,-1.1226 L -5.0,-1.0424 L -5.0,-0.9623 L -5.0,-0.8821 L -5.0,-0.8019 L -5.0,-0.7217 L -5.0,-0.6415 L -5.0,-0.5613 L -5.0,-0.4811 L -5.0,-0.4009 L -5.0,-0.3208 L -5.0,-0.2406 L -5.0,-0.1604 L -5.0,-0.0802 L -5.0,0.0 L -5.0,0.0802 L -5.0,0.1604 L -5.0,0.2406 L -5.0,0.3208 L -5.0,0.4009 L -5.0,0.4811 L -5.0,0.5613 L -5.0,0.6415 L -5.0,0.7217 L -5.0,0.8019 L -5.0,0.8821 L -5.0,0.9623 L -5.0,1.0424 L -5.0,1.1226 L -5.0,1.2028 L -5.0,1.283 L -5.0,1.3632 L -5.0,1.4434 L -5.0,1.5236 L -5.0,1.6038 L -5.0,1.6839 L -5.0,1.7641 L -5.0,1.8443 L -5.0,1.9245 L -5.0,2.0047 L -5.0,2.0849 L -5.0,2.1651 L -5.0,2.2453 L -5.0,2.3254 L -5.0,2.4056 L -5.0,2.4858 L -5.0,2.566 L -5.0,2.6462 L -5.0,2.7264 L -5.0,2.8066 L -5.0,2.8868" />
      <path d="M -0.0,-5.7735 L -0.0694,-5.7334 L -0.1389,-5.6933 L -0.2083,-5.6532 L -0.2778,-5.6131 L -0.3472,-5.573 L -0.4167,-5.5329 L -0.4861,-5.4928 L -0.5556,-5.4528 L -0.625,-5.4127 L -0.6944,-5.3726 L -0.7639,-5.3325 L -0.8333,-5.2924 L -0.9028,-5.2523 L -0.9722,-5.2122 L -1.0417,-5.1721 L -1.1111,-5.132 L -1.1806,-5.0919 L -1.25,-5.0518 L -1.3194,-5.0117 L -1.3889,-4.9716 L -1.4583,-4.9315 L -1.5278,-4.8914 L -1.5972,-4.8513 L -1.6667,-4.8113 L -1.7361,-4.7712 L -1.8056,-4.7311 L -1.875,-4.691 L -1.9444,-4.6509 L -2.0139,-4.6108 L -2.0833,-4.5707 L -2.1528,-4.5306 L -2.2222,-4.4905 L -2.2917,-4.4504 L -2.3611,-4.4103 L -2.4306,-4.3702 L -2.5,-4.3301 L -2.5694,-4.29 L -2.6389,-4.2499 L -2.7083,-4.2098 L -2.7778,-4.1698 L -2.8472,-4.1297 L -2.9167,-4.0896 L -2.9861,-4.0495 L -3.0556,-4.0094 L -3.125,-3.9693 L -3.1944,-3.9292 L -3.2639,-3.8891 L -3.3333,-3.849 L -3.4028,-3.8089 L -3.4722,-3.7688 L -3.5417,-3.7287 L -3.6111,-3.6886 L -3.6806,-3.6485 L -3.75,-3.6084 L -3.8194,-3.5683 L -3.8889,-3.5283 L -3.9583,-3.4882 L -4.0278,-3.4481 L -4.0972,-3.408 L -4.1667,-3.3679 L -4.2361,-3.3278 L -4.3056,-3.2877 L -4.375,-3.2476 L -4.4444,-3.2075 L -4.5139,-3.1674 L -4.5833,-3.1273 L -4.6528,-3.0872 L -4.7222,-3.0471 L -4.7917,-3.007 L -4.8611,-2.9669 L -4.9306,-2.9268 L -5.0,-2.8868" />
      <path d="M 5.0,-2.8868 L 4.9306,-2.9268 L 4.8611,-2.9669 L 4.7917,-3.007 L 4.7222,-3.0471 L 4.6528,-3.0872 L 4.5833,-3.1273 L 4.5139,-3.1674 L 4.4444,-3.2075 L 4.375,-3.2476 L 4.3056,-3.2877 L 4.2361,-3.3278 L 4.1667,-3.3679 L 4.0972,-3.408 L 4.0278,-3.4481 L 3.9583,-3.4882 L 3.8889,-3.5283 L 3.8194,-3.5683 L 3.75,-3.6084 L 3.6806,-3.6485 L 3.6111,-3.6886 L 3.5417,-3.7287 L 3.4722,-3.7688 L 3.4028,-3.8089 L 3.3333,-3.849 L 3.2639,-3.8891 L 3.1944,-3.9292 L 3.125,-3.9693 L 3.0556,-4.0094 L 2.9861,-4.0495 L 2.9167,-4.0896 L 2.8472,-4.1297 L 2.7778,-4.1698 L 2.7083,-4.2098 L 2.6389,-4.2499 L 2.5694,-4.29 L 2.5,-4.3301 L 2.4306,-4.3702 L 2.3611,-4.4103 L 2.2917,-4.4504 L 2.2222,-4.4905 L 2.1528,-4.5306 L 2.0833,-4.5707 L 2.0139,-4.6108 L 1.9444,-4.6509 L 1.875,-4.691 L 1.8056,-4.7311 L 1.7361,-4.7712 L 1.6667,-4.8113 L 1.5972,-4.8513 L 1.5278,-4.8914 L 1.4583,-4.9315 L 1.3889,-4.9716 L 1.3194,-5.0117 L 1.25,-5.0518 L 1.1806,-5.0919 L 1.1111,-5.132 L 1.0417,-5.1721 L 0.9722,-5.2122 L 0.9028,-5.2523 L 0.8333,-5.2924 L 0.7639,-5.3325 L 0.6944,-5.3726 L 0.625,-5.4127 L 0.5556,-5.4528 L 0.4861,-5.4928 L 0.4167,-5.5329 L 0.3472,-5.573 L 0.2778,-5.6131 L 0.2083,-5.6532 L 0.1389,-5.6933 L 0.0694,-5.7334 L 0.0,-5.7735" />
      <path d="M 5.0,2.8868 L 5.0,2.8066 L 5.0,2.7264 L 5.0,2.6462 L 5.0,2.566 L 5.0,2.4858 L 5.0,2.4056 L 5.0,2.3254 L 5.0,2.2453 L 5.0,2.1651 L 5.0,2.0849 L 5.0,2.0047 L 5.0,1.9245 L 5.0,1.8443 L 5.0,1.7641 L 5.0,1.6839 L 5.0,1.6038 L 5.0,1.5236 L 5.0,1.4434 L 5.0,1.3632 L 5.0,1.283 L 5.0,1.2028 L 5.0,1.1226 L 5.0,1.0424 L 5.0,0.9623 L 5.0,0.8821 L 5.0,0.8019 L 5.0,0.7217 L 5.0,0.6415 L 5.0,0.5613 L 5.0,0.4811 L 5.0,0.4009 L 5.0,0.3208 L 5.0,0.2406 L 5.0,0.1604 L 5.0,0.0802 L 5.0,0.0 L 5.0,-0.0802 L 5.0,-0.1604 L 5.0,-0.2406 L 5.0,-0.3208 L 5.0,-0.4009 L 5.0,-0.4811 L 5.0,-0.5613 L 5.0,-0.6415 L 5.0,-0.7217 L 5.0,-0.8019 L 5.0,-0.8821 L 5.0,-0.9623 L 5.0,-1.0424 L 5.0,-1.1226 L 5.0,-1.2028 L 5.0,-1.283 L 5.0,-1.3632 L 5.0,-1.4434 L 5.0,-1.5236 L 5.0,-1.6038 L 5.0,-1.6839 L 5.0,-1.7641 L 5.0,-1.8443 L 5.0,-1.9245 L 5.0,-2.0047 L 5.0,-2.0849 L 5.0,-2.1651 L 5.0,-2.2453 L 5.0,-2.3254 L 5.0,-2.4056 L 5.0,-2.4858 L 5.0,-2.566 L 5.0,-2.6462 L 5.0,-2.7264 L 5.0,-2.8066 L 5.0,-2.8868" />
      <path d="M 0.0,5.7735 L 0.0694,5.7334 L 0.1389,5.6933 L 0.2083,5.6532 L 0.2778,5.6131 L 0.3472,5.573 L 0.4167,5.5329 L 0.4861,5.4928 L 0.5556,5.4528 L 0.625,5.4127 L 0.6944,5.3726 L 0.7639,5.3325 L 0.8333,5.2924 L 0.9028,5.2523 L 0.9722,5.2122 L 1.0417,5.1721 L 1.1111,5.132 L 1.1806,5.0919 L 1.25,5.0518 L 1.3194,5.0117 L 1.3889,4.9716 L 1.4583,4.9315 L 1.5278,4.8914 L 1.5972,4.8513 L 1.6667,4.8113 L 1.7361,4.7712 L 1.8056,4.7311 L 1.875,4.691 L 1.9444,4.6509 L 2.0139,4.6108 L 2.0833,4.5707 L 2.1528,4.5306 L 2.2222,4.4905 L 2.2917,4.4504 L 2.3611,4.4103 L 2.4306,4.3702 L 2.5,4.3301 L 2.5694,4.29 L 2.6389,4.2499 L 2.7083,4.2098 L 2.7778,4.1698 L 2.8472,4.1297 L 2.9167,4.0896 L 2.9861,4.0495 L 3.0556,4.0094 L 3.125,3.9693 L 3.1944,3.9292 L 3.2639,3.8891 L 3.3333,3.849 L 3.4028,3.8089 L 3.4722,3.7688 L 3.5417,3.7287 L 3.6111,3.6886 L 3.6806,3.6485 L 3.75,3.6084 L 3.8194,3.5683 L 3.8889,3.5283 L 3.9583,3.4882 L 4.0278,3.4481 L 4.0972,3.408 L 4.1667,3.3679 L 4.2361,3.3278 L 4.3056,3.2877 L 4.375,3.2476 L 4.4444,3.2075 L 4.5139,3.1674 L 4.5833,3.1273 L 4.6528,3.0872 L 4.7222,3.0471 L 4.7917,3.007 L 4.8611,2.9669 L 4.9306,2.9268 L 5.0,2.8868" />
      <path d="M -5.0,2.8868 L -4.9306,2.9268 L -4.8611,2.9669 L -4.7917,3.007 L -4.7222,3.0471 L -4.6528,3.0872 L -4.5833,3.1273 L -4.5139,3.1674 L -4.4444,3.2075 L -4.375,3.2476 L -4.3056,3.2877 L -4.2361,3.3278 L -4.1667,3.3679 L -4.0972,3.408 L -4.0278,3.4481 L -3.9583,3.4882 L -3.8889,3.5283 L -3.8194,3.5683 L -3.75,3.6084 L -3.6806,3.6485 L -3.6111,3.6886 L -3.5417,3.7287 L -3.4722,3.7688 L -3.4028,3.8089 L -3.3333,3.849 L -3.2639,3.8891 L -3.1944,3.9292 L -3.125,3.9693 L -3.0556,4.0094 L -2.9861,4.0495 L -2.9167,4.0896 L -2.8472,4.1297 L -2.7778,4.1698 L -2.7083,4.2098 L -2.6389,4.2499 L -2.5694,4.29 L -2.5,4.3301 L -2.4306,4.3702 L -2.3611,4.4103 L -2.2917,4.4504 L -2.2222,4.4905 L -2.1528,4.5306 L -2.0833,4.5707 L -2.0139,4.6108 L -1.9444,4.6509 L -1.875,4.691 L -1.8056,4.7311 L -1.7361,4.7712 L -1.6667,4.8113 L -1.5972,4.8513 L -1.5278,4.8914 L -1.4583,4.9315 L -1.3889,4.9716 L -1.3194,5.0117 L -1.25,5.0518 L -1.1806,5.0919 L -1.1111,5.132 L -1.0417,5.1721 L -0.9722,5.2122 L -0.9028,5.2523 L -0.8333,5.2924 L -0.7639,5.3325 L -0.6944,5.3726 L -0.625,5.4127 L -0.5556,5.4528 L -0.4861,5.4928 L -0.4167,5.5329 L -0.3472,5.573 L -0.2778,5.6131 L -0.2083,5.6532 L -0.1389,5.6933 L -0.0694,5.7334 L -0.0,5.7735" />
      <path d="M 13.1827,9.0 L 13.1405,8.7565 L 13.1231,8.5069 L 13.11,8.257 L 13.0993,8.007 L 13.0901,7.757 L 13.0819,7.5069 L 13.0746,7.2568 L 13.068,7.0066 L 13.062,6.7565 L 13.0565,6.5063 L 13.0514,6.2561 L 13.0466,6.006 L 13.0422,5.7558 L 13.0382,5.5056 L 13.0344,5.2554 L 13.0309,5.0052 L 13.0276,4.755 L 13.0245,4.5048 L 13.0217,4.2546 L 13.0191,4.0043 L 13.0167,3.7541 L 13.0144,3.5039 L 13.0124,3.2537 L 13.0105,3.0035 L 13.0088,2.7532 L 13.0072,2.503 L 13.0058,2.2528 L 13.0046,2.0026 L 13.0035,1.7523 L 13.0026,1.5021 L 13.0018,1.2519 L 13.0011,1.0017 L 13.0006,0.7514 L 13.0003,0.5012 L 13.0001,0.251 L 13.0,0.0007 L 13.0001,-0.2495 L 13.0003,-0.4997 L 13.0006,-0.75 L 13.0011,-1.0002 L 13.0018,-1.2504 L 13.0026,-1.5007 L 13.0035,-1.7509 L 13.0046,-2.0011 L 13.0058,-2.2514 L 13.0072,-2.5016 L 13.0087,-2.7518 L 13.0105,-3.002 L 13.0123,-3.2523 L 13.0144,-3.5025 L 13.0166,-3.7527 L 13.0191,-4.0029 L 13.0217,-4.2532 L 13.0245,-4.5034 L 13.0276,-4.7536 L 13.0308,-5.0038 L 13.0344,-5.254 L 13.0382,-5.5042 L 13.0422,-5.7544 L 13.0466,-6.0046 L 13.0513,-6.2548 L 13.0564,-6.505 L 13.062,-6.7552 L 13.068,-7.0054 L 13.0746,-7.2555 L 13.0819,-7.5056 L 13.09,-7.7558 L 13.0992,-8.0058 L 13.11,-8.2559 L 13.123,-8.5058 L 13.1404,-8.7554 L 13.1827,-9.0" />
      <path d="M 13.1827,-9.0 L 13.2249,-8.7565 L 13.2423,-8.5069 L 13.2554,-8.257 L 13.2661,-8.007 L 13.2753,-7.757 L 13.2835,-7.5069 L 13.2908,-7.2568 L 13.2974,-7.0066 L 13.3034,-6.7565 L 13.3089,-6.5063 L 13.314,-6.2561 L 13.3188,-6.006 L 13.3231,-5.7558 L 13.3272,-5.5056 L 13.331,-5.2554 L 13.3345,-5.0052 L 13.3378,-4.755 L 13.3409,-4.5048 L 13.3437,-4.2546 L 13.3463,-4.0043 L 13.3487,-3.7541 L 13.351,-3.5039 L 13.353,-3.2537 L 13.3549,-3.0035 L 13.3566,-2.7532 L 13.3582,-2.503 L 13.3596,-2.2528 L 13.3608,-2.0026 L 13.3619,-1.7523 L 13.3628,-1.5021 L 13.3636,-1.2519 L 13.3643,-1.0017 L 13.3648,-0.7514 L 13.3651,-0.5012 L 13.3653,-0.251 L 13.3654,-0.0007 L 13.3653,0.2495 L 13.3651,0.4997 L 13.3648,0.75 L 13.3643,1.0002 L 13.3636,1.2504 L 13.3628,1.5007 L 13.3619,1.7509 L 13.3608,2.0011 L 13.3596,2.2514 L 13.3582,2.5016 L 13.3566,2.7518 L 13.3549,3.002 L 13.353,3.2523 L 13.351,3.5025 L 13.3488,3.7527 L 13.3463,4.0029 L 13.3437,4.2532 L 13.3409,4.5034 L 13.3378,4.7536 L 13.3346,5.0038 L 13.331,5.254 L 13.3272,5.5042 L 13.3232,5.7544 L 13.3188,6.0046 L 13.3141,6.2548 L 13.309,6.505 L 13.3034,6.7552 L 13.2974,7.0054 L 13.2908,7.2555 L 13.2835,7.5056 L 13.2754,7.7558 L 13.2662,8.0058 L 13.2554,8.2559 L 13.2424,8.5058 L 13.225,8.7554 L 13.1827,9.0" />
      <path d="M 25.1802,9.0 L 25.0136,9.0 L 24.847,9.0 L 24.6803,9.0 L 24.5137,9.0 L 24.3471,9.0 L 24.1804,9.0 L 24.0138,9.0 L 23.8472,9.0 L 23.6805,9.0 L 23.5139,9.0 L 23.3473,9.0 L 23.1806,9.0 L 23.014,9.0 L 22.8474,9.0 L 22.6807,9.0 L 22.5141,9.0 L 22.3475,9.0 L 22.1808,9.0 L 22.0142,9.0 L 21.8476,9.0 L 21.6809,9.0 L 21.5143,9.0 L 21.3477,9.0 L 21.181,9.0 L 21.0144,9.0 L 20.8478,9.0 L 20.6812,9.0 L 20.5145,9.0 L 20.3479,9.0 L 20.1813,9.0 L 20.0146,9.0 L 19.848,9.0 L 19.6814,9.0 L 19.5147,9.0 L 19.3481,9.0 L 19.1815,9.0 L 19.0148,9.0 L 18.8482,9.0 L 18.6816,9.0 L 18.5149,9.0 L 18.3483,9.0 L 18.1817,9.0 L 18.015,9.0 L 17.8484,9.0 L 17.6818,9.0 L 17.5151,9.0 L 17.3485,9.0 L 17.1819,9.0 L 17.0152,9.0 L 16.8486,9.0 L 16.682,9.0 L 16.5153,9.0 L 16.3487,9.0 L 16.1821,9.0 L 16.0154,9.0 L 15.8488,9.0 L 15.6822,9.0 L 15.5155,9.0 L 15.3489,9.0 L 15.1823,9.0 L 15.0157,9.0 L 14.849,9.0 L 14.6824,9.0 L 14.5158,9.0 L 14.3491,9.0 L 14.1825,9.0 L 14.0159,9.0 L 13.8492,9.0 L 13.6826,9.0 L 13.516,9.0 L 13.3493,9.0 L 13.1827,9.0" />
      <path d="M 25.1802,-9.0 L 25.2224,-8.7565 L 25.2399,-8.5069 L 25.2529,-8.257 L 25.2636,-8.007 L 25.2729,-7.757 L 25.281,-7.5069 L 25.2883,-7.2568 L 25.2949,-7.0066 L 25.3009,-6.7565 L 25.3065,-6.5063 L 25.3116,-6.2561 L 25.3163,-6.006 L 25.3207,-5.7558 L 25.3248,-5.5056 L 25.3285,-5.2554 L 25.3321,-5.0052 L 25.3353,-4.755 L 25.3384,-4.5048 L 25.3412,-4.2546 L 25.3438,-4.0043 L 25.3463,-3.7541 L 25.3485,-3.5039 L 25.3506,-3.2537 L 25.3524,-3.0035 L 25.3542,-2.7532 L 25.3557,-2.503 L 25.3571,-2.2528 L 25.3583,-2.0026 L 25.3594,-1.7523 L 25.3604,-1.5021 L 25.3611,-1.2519 L 25.3618,-1.0017 L 25.3623,-0.7514 L 25.3626,-0.5012 L 25.3629,-0.251 L 25.3629,-0.0007 L 25.3629,0.2495 L 25.3626,0.4997 L 25.3623,0.75 L 25.3618,1.0002 L 25.3612,1.2504 L 25.3604,1.5007 L 25.3594,1.7509 L 25.3583,2.0011 L 25.3571,2.2514 L 25.3557,2.5016 L 25.3542,2.7518 L 25.3525,3.002 L 25.3506,3.2523 L 25.3485,3.5025 L 25.3463,3.7527 L 25.3439,4.0029 L 25.3412,4.2532 L 25.3384,4.5034 L 25.3354,4.7536 L 25.3321,5.0038 L 25.3286,5.254 L 25.3248,5.5042 L 25.3207,5.7544 L 25.3163,6.0046 L 25.3116,6.2548 L 25.3065,6.505 L 25.3009,6.7552 L 25.2949,7.0054 L 25.2883,7.2555 L 25.281,7.5056 L 25.2729,7.7558 L 25.2637,8.0058 L 25.253,8.2559 L 25.2399,8.5058 L 25.2225,8.7554 L 25.1802,9.0" />
      <path d="M 13.0812,-2.8868 L 13.0812,-2.8066 L 13.0812,-2.7264 L 13.0812,-2.6462 L 13.0812,-2.566 L 13.0812,-2.4858 L 13.0812,-2.4056 L 13.0812,-2.3254 L 13.0812,-2.2453 L 13.0812,-2.1651 L 13.0812,-2.0849 L 13.0812,-2.0047 L 13.0812,-1.9245 L 13.0812,-1.8443 L 13.0812,-1.7641 L 13.0812,-1.6839 L 13.0812,-1.6038 L 13.0812,-1.5236 L 13.0812,-1.4434 L 13.0812,-1.3632 L 13.0812,-1.283 L 13.0812,-1.2028 L 13.0812,-1.1226 L 13.0812,-1.0424 L 13.0812,-0.9623 L 13.0812,-0.8821 L 13.0812,-0.8019 L 13.0812,-0.7217 L 13.0812,-0.6415 L 13.0812,-0.5613 L 13.0812,-0.4811 L 13.0812,-0.4009 L 13.0812,-0.3208 L 13.0812,-0.2406 L 13.0812,-0.1604 L 13.0812,-0.0802 L 13.0812,0.0 L 13.0812,0.0802 L 13.0812,0.1604 L 13.0812,0.2406 L 13.0812,0.3208 L 13.0812,0.4009 L 13.0812,0.4811 L 13.0812,0.5613 L 13.0812,0.6415 L 13.0812,0.7217 L 13.0812,0.8019 L 13.0812,0.8821 L 13.0812,0.9623 L 13.0812,1.0424 L 13.0812,1.1226 L 13.0812,1.2028 L 13.0812,1.283 L 13.0812,1.3632 L 13.0812,1.4434 L 13.0812,1.5236 L 13.0812,1.6038 L 13.0812,1.6839 L 13.0812,1.7641 L 13.0812,1.8443 L 13.0812,1.9245 L 13.0812,2.0047 L 13.0812,2.0849 L 13.0812,2.1651 L 13.0812,2.2453 L 13.0812,2.3254 L 13.0812,2.4056 L 13.0812,2.4858 L 13.0812,2.566 L 13.0812,2.6462 L 13.0812,2.7264 L 13.0812,2.8066 L 13.0812,2.8868" />
      <path d="M 13.1827,-5.7735 L 13.1813,-5.7334 L 13.1799,-5.6933 L 13.1785,-5.6532 L 13.1771,-5.6131 L 13.1756,-5.573 L 13.1742,-5.5329 L 13.1728,-5.4928 L 13.1714,-5.4528 L 13.17,-5.4127 L 13.1686,-5.3726 L 13.1672,-5.3325 L 13.1658,-5.2924 L 13.1644,-5.2523 L 13.163,-5.2122 L 13.1616,-5.1721 L 13.1601,-5.132 L 13.1587,-5.0919 L 13.1573,-5.0518 L 13.1559,-5.0117 L 13.1545,-4.9716 L 13.1531,-4.9315 L 13.1517,-4.8914 L 13.1503,-4.8513 L 13.1489,-4.8113 L 13.1475,-4.7712 L 13.146,-4.7311 L 13.1446,-4.691 L 13.1432,-4.6509 L 13.1418,-4.6108 L 13.1404,-4.5707 L 13.139,-4.5306 L 13.1376,-4.4905 L 13.1362,-4.4504 L 13.1348,-4.4103 L 13.1334,-4.3702 L 13.1319,-4.3301 L 13.1305,-4.29 L 13.1291,-4.2499 L 13.1277,-4.2098 L 13.1263,-4.1698 L 13.1249,-4.1297 L 13.1235,-4.0896 L 13.1221,-4.0495 L 13.1207,-4.0094 L 13.1193,-3.9693 L 13.1179,-3.9292 L 13.1164,-3.8891 L 13.115,-3.849 L 13.1136,-3.8089 L 13.1122,-3.7688 L 13.1108,-3.7287 L 13.1094,-3.6886 L 13.108,-3.6485 L 13.1066,-3.6084 L 13.1052,-3.5683 L 13.1038,-3.5283 L 13.1023,-3.4882 L 13.1009,-3.4481 L 13.0995,-3.408 L 13.0981,-3.3679 L 13.0967,-3.3278 L 13.0953,-3.2877 L 13.0939,-3.2476 L 13.0925,-3.2075 L 13.0911,-3.1674 L 13.0897,-3.1273 L 13.0882,-3.0872 L 13.0868,-3.0471 L 13.0854,-3.007 L 13.084,-2.9669 L 13.0826,-2.9268 L 13.0812,-2.8868" />
      <path d="M 13.2842,-2.8868 L 13.2828,-2.9268 L 13.2814,-2.9669 L 13.28,-3.007 L 13.2786,-3.0471 L 13.2771,-3.0872 L 13.2757,-3.1273 L 13.2743,-3.1674 L 13.2729,-3.2075 L 13.2715,-3.2476 L 13.2701,-3.2877 L 13.2687,-3.3278 L 13.2673,-3.3679 L 13.2659,-3.408 L 13.2645,-3.4481 L 13.2631,-3.4882 L 13.2616,-3.5283 L 13.2602,-3.5683 L 13.2588,-3.6084 L 13.2574,-3.6485 L 13.256,-3.6886 L 13.2546,-3.7287 L 13.2532,-3.7688 L 13.2518,-3.8089 L 13.2504,-3.849 L 13.249,-3.8891 L 13.2475,-3.9292 L 13.2461,-3.9693 L 13.2447,-4.0094 L 13.2433,-4.0495 L 13.2419,-4.0896 L 13.2405,-4.1297 L 13.2391,-4.1698 L 13.2377,-4.2098 L 13.2363,-4.2499 L 13.2349,-4.29 L 13.2334,-4.3301 L 13.232,-4.3702 L 13.2306,-4.4103 L 13.2292,-4.4504 L 13.2278,-4.4905 L 13.2264,-4.5306 L 13.225,-4.5707 L 13.2236,-4.6108 L 13.2222,-4.6509 L 13.2208,-4.691 L 13.2193,-4.7311 L 13.2179,-4.7712 L 13.2165,-4.8113 L 13.2151,-4.8513 L 13.2137,-4.8914 L 13.2123,-4.9315 L 13.2109,-4.9716 L 13.2095,-5.0117 L 13.2081,-5.0518 L 13.2067,-5.0919 L 13.2053,-5.132 L 13.2038,-5.1721 L 13.2024,-5.2122 L 13.201,-5.2523 L 13.1996,-5.2924 L 13.1982,-5.3325 L 13.1968,-5.3726 L 13.1954,-5.4127 L 13.194,-5.4528 L 13.1926,-5.4928 L 13.1912,-5.5329 L 13.1897,-5.573 L 13.1883,-5.6131 L 13.1869,-5.6532 L 13.1855,-5.6933 L 13.1841,-5.7334 L 13.1827,-5.7735" />
      <path d="M 13.2842,2.8868 L 13.2842,2.8066 L 13.2842,2.7264 L 13.2842,2.6462 L 13.2842,2.566 L 13.2842,2.4858 L 13.2842,2.4056 L 13.2842,2.3254 L 13.2842,2.2453 L 13.2842,2.1651 L 13.2842,2.0849 L 13.2842,2.0047 L 13.2842,1.9245 L 13.2842,1.8443 L 13.2842,1.7641 L 13.2842,1.6839 L 13.2842,1.6038 L 13.2842,1.5236 L 13.2842,1.4434 L 13.2842,1.3632 L 13.2842,1.283 L 13.2842,1.2028 L 13.2842,1.1226 L 13.2842,1.0424 L 13.2842,0.9623 L 13.2842,0.8821 L 13.2842,0.8019 L 13.2842,0.7217 L 13.2842,0.6415 L 13.2842,0.5613 L 13.2842,0.4811 L 13.2842,0.4009 L 13.2842,0.3208 L 13.2842,0.2406 L 13.2842,0.1604 L 13.2842,0.0802 L 13.2842,0.0 L 13.2842,-0.0802 L 13.2842,-0.1604 L 13.2842,-0.2406 L 13.2842,-0.3208 L 13.2842,-0.4009 L 13.2842,-0.4811 L 13.2842,-0.5613 L 13.2842,-0.6415 L 13.2842,-0.7217 L 13.2842,-0.8019 L 13.2842,-0.8821 L 13.2842,-0.9623 L 13.2842,-1.0424 L 13.2842,-1.1226 L 13.2842,-1.2028 L 13.2842,-1.283 L 13.2842,-1.3632 L 13.2842,-1.4434 L 13.2842,-1.5236 L 13.2842,-1.6038 L 13.2842,-1.6839 L 13.2842,-1.7641 L 13.2842,-1.8443 L 13.2842,-1.9245 L 13.2842,-2.0047 L 13.2842,-2.0849 L 13.2842,-2.1651 L 13.2842,-2.2453 L 13.2842,-2.3254 L 13.2842,-2.4056 L 13.2842,-2.4858 L 13.2842,-2.566 L 13.2842,-2.6462 L 13.2842,-2.7264 L 13.2842,-2.8066 L 13.2842,-2.8868" />
      <path d="M 13.1827,5.7735 L 13.1841,5.7334 L 13.1855,5.6933 L 13.1869,5.6532 L 13.1883,5.6131 L 13.1897,5.573 L 13.1912,5.5329 L 13.1926,5.4928 L 13.194,5.4528 L 13.1954,5.4127 L 13.1968,5.3726 L 13.1982,5.3325 L 13.1996,5.2924 L 13.201,5.2523 L 13.2024,5.2122 L 13.2038,5.1721 L 13.2053,5.132 L 13.2067,5.0919 L 13.2081,5.0518 L 13.2095,5.0117 L 13.2109,4.9716 L 13.2123,4.9315 L 13.2137,4.8914 L 13.2151,4.8513 L 13.2165,4.8113 L 13.2179,4.7712 L 13.2193,4.7311 L 13.2208,4.691 L 13.2222,4.6509 L 13.2236,4.6108 L 13.225,4.5707 L 13.2264,4.5306 L 13.2278,4.4905 L 13.2292,4.4504 L 13.2306,4.4103 L 13.232,4.3702 L 13.2334,4.3301 L 13.2349,4.29 L 13.2363,4.2499 L 13.2377,4.2098 L 13.2391,4.1698 L 13.2405,4.1297 L 13.2419,4.0896 L 13.2433,4.0495 L 13.2447,4.0094 L 13.2461,3.9693 L 13.2475,3.9292 L 13.249,3.8891 L 13.2504,3.849 L 13.2518,3.8089 L 13.2532,3.7688 L 13.2546,3.7287 L 13.256,3.6886 L 13.2574,3.6485 L 13.2588,3.6084 L 13.2602,3.5683 L 13.2616,3.5283 L 13.2631,3.4882 L 13.2645,3.4481 L 13.2659,3.408 L 13.2673,3.3679 L 13.2687,3.3278 L 13.2701,3.2877 L 13.2715,3.2476 L 13.2729,3.2075 L 13.2743,3.1674 L 13.2757,3.1273 L 13.2771,3.0872 L 13.2786,3.0471 L 13.28,3.007 L 13.2814,2.9669 L 13.2828,2.9268 L 13.2842,2.8868" />
      <path d="M 13.0812,2.8868 L 13.0826,2.9268 L 13.084,2.9669 L 13.0854,3.007 L 13.0868,3.0471 L 13.0882,3.0872 L 13.0897,3.1273 L 13.0911,3.1674 L 13.0925,3.2075 L 13.0939,3.2476 L 13.0953,3.2877 L 13.0967,3.3278 L 13.0981,3.3679 L 13.0995,3.408 L 13.1009,3.4481 L 13.1023,3.4882 L 13.1038,3.5283 L 13.1052,3.5683 L 13.1066,3.6084 L 13.108,3.6485 L 13.1094,3.6886 L 13.1108,3.7287 L 13.1122,3.7688 L 13.1136,3.8089 L 13.115,3.849 L 13.1164,3.8891 L 13.1179,3.9292 L 13.1193,3.9693 L 13.1207,4.0094 L 13.1221,4.0495 L 13.1235,4.0896 L 13.1249,4.1297 L 13.1263,4.1698 L 13.1277,4.2098 L 13.1291,4.2499 L 13.1305,4.29 L 13.1319,4.3301 L 13.1334,4.3702 L 13.1348,4.4103 L 13.1362,4.4504 L 13.1376,4.4905 L 13.139,4.5306 L 13.1404,4.5707 L 13.1418,4.6108 L 13.1432,4.6509 L 13.1446,4.691 L 13.146,4.7311 L 13.1475,4.7712 L 13.1489,4.8113 L 13.1503,4.8513 L 13.1517,4.8914 L 13.1531,4.9315 L 13.1545,4.9716 L 13.1559,5.0117 L 13.1573,5.0518 L 13.1587,5.0919 L 13.1601,5.132 L 13.1616,5.1721 L 13.163,5.2122 L 13.1644,5.2523 L 13.1658,5.2924 L 13.1672,5.3325 L 13.1686,5.3726 L 13.17,5.4127 L 13.1714,5.4528 L 13.1728,5.4928 L 13.1742,5.5329 L 13.1756,5.573 L 13.1771,5.6131 L 13.1785,5.6532 L 13.1799,5.6933 L 13.1813,5.7334 L 13.1827,5.7735" />
      <path d="M 13.2842,-2.8868 L 13.2814,-2.8868 L 13.2786,-2.8868 L 13.2757,-2.8868 L 13.2729,-2.8868 L 13.2701,-2.8868 L 13.2673,-2.8868 L 13.2645,-2.8868 L 13.2616,-2.8868 L 13.2588,-2.8868 L 13.256,-2.8868 L 13.2532,-2.8868 L 13.2504,-2.8868 L 13.2475,-2.8868 L 13.2447,-2.8868 L 13.2419,-2.8868 L 13.2391,-2.8868 L 13.2363,-2.8868 L 13.2334,-2.8868 L 13.2306,-2.8868 L 13.2278,-2.8868 L 13.225,-2.8868 L 13.2222,-2.8868 L 13.2193,-2.8868 L 13.2165,-2.8868 L 13.2137,-2.8868 L 13.2109,-2.8868 L 13.2081,-2.8868 L 13.2053,-2.8868 L 13.2024,-2.8868 L 13.1996,-2.8868 L 13.1968,-2.8868 L 13.194,-2.8868 L 13.1912,-2.8868 L 13.1883,-2.8868 L 13.1855,-2.8868 L 13.1827,-2.8868 L 13.1799,-2.8868 L 13.1771,-2.8868 L 13.1742,-2.8868 L 13.1714,-2.8868 L 13.1686,-2.8868 L 13.1658,-2.8868 L 13.163,-2.8868 L 13.1601,-2.8868 L 13.1573,-2.8868 L 13.1545,-2.8868 L 13.1517,-2.8868 L 13.1489,-2.8868 L 13.146,-2.8868 L 13.1432,-2.8868 L 13.1404,-2.8868 L 13.1376,-2.8868 L 13.1348,-2.8868 L 13.1319,-2.8868 L 13.1291,-2.8868 L 13.1263,-2.8868 L 13.1235,-2.8868 L 13.1207,-2.8868 L 13.1179,-2.8868 L 13.115,-2.8868 L 13.1122,-2.8868 L 13.1094,-2.8868 L 13.1066,-2.8868 L 13.1038,-2.8868 L 13.1009,-2.8868 L 13.0981,-2.8868 L 13.0953,-2.8868 L 13.0925,-2.8868 L 13.0897,-2.8868 L 13.0868,-2.8868 L 13.084,-2.8868 L 13.0812,-2.8868" />
      <path d="M 13.2842,2.8868 L 13.2814,2.8868 L 13.2786,2.8868 L 13.2757,2.8868 L 13.2729,2.8868 L 13.2701,2.8868 L 13.2673,2.8868 L 13.2645,2.8868 L 13.2616,2.8868 L 13.2588,2.8868 L 13.256,2.8868 L 13.2532,2.8868 L 13.2504,2.8868 L 13.2475,2.8868 L 13.2447,2.8868 L 13.2419,2.8868 L 13.2391,2.8868 L 13.2363,2.8868 L 13.2334,2.8868 L 13.2306,2.8868 L 13.2278,2.8868 L 13.225,2.8868 L 13.2222,2.8868 L 13.2193,2.8868 L 13.2165,2.8868 L 13.2137,2.8868 L 13.2109,2.8868 L 13.2081,2.8868 L 13.2053,2.8868 L 13.2024,2.8868 L 13.1996,2.8868 L 13.1968,2.8868 L 13.194,2.8868 L 13.1912,2.8868 L 13.1883,2.8868 L 13.1855,2.8868 L 13.1827,2.8868 L 13.1799,2.8868 L 13.1771,2.8868 L 13.1742,2.8868 L 13.1714,2.8868 L 13.1686,2.8868 L 13.1658,2.8868 L 13.163,2.8868 L 13.1601,2.8868 L 13.1573,2.8868 L 13.1545,2.8868 L 13.1517,2.8868 L 13.1489,2.8868 L 13.146,2.8868 L 13.1432,2.8868 L 13.1404,2.8868 L 13.1376,2.8868 L 13.1348,2.8868 L 13.1319,2.8868 L 13.1291,2.8868 L 13.1263,2.8868 L 13.1235,2.8868 L 13.1207,2.8868 L 13.1179,2.8868 L 13.115,2.8868 L 13.1122,2.8868 L 13.1094,2.8868 L 13.1066,2.8868 L 13.1038,2.8868 L 13.1009,2.8868 L 13.0981,2.8868 L 13.0953,2.8868 L 13.0925,2.8868 L 13.0897,2.8868 L 13.0868,2.8868 L 13.084,2.8868 L 13.0812,2.8868" />
      <path d="M 84.1681,-6.0 L 84.1682,-6.0 L 84.1683,-6.0 L 84.1684,-6.0 L 84.1685,-6.0 L 84.1686,-5.9999 L 84.1687,-5.9999 L 84.1688,-5.9999 L 84.1689,-5.9999 L 84.169,-5.9998 L 84.1691,-5.9998 L 84.1692,-5.9998 L 84.1692,-5.9997 L 84.1693,-5.9997 L 84.1694,-5.9997 L 84.1694,-5.9996 L 84.1695,-5.9996 L 84.1696,-5.9996 L 84.1696,-5.9995 L 84.1697,-5.9995 L 84.1697,-5.9994 L 84.1698,-5.9994 L 84.1699,-5.9994 L 84.1699,-5.9993 L 84.17,-5.9993 L 84.17,-5.9992 L 84.1701,-5.9992 L 84.1701,-5.9991 L 84.1702,-5.9991 L 84.1703,-5.999 L 84.1704,-5.9989 L 84.1705,-5.9988" />
      <path d="M 84.1705,-5.9988 L 84.1964,-5.8349 L 84.208,-5.6685 L 84.2166,-5.502 L 84.2238,-5.3354 L 84.2299,-5.1688 L 84.2353,-5.0021 L 84.2402,-4.8355 L 84.2446,-4.6688 L 84.2486,-4.5021 L 84.2523,-4.3354 L 84.2557,-4.1686 L 84.2588,-4.0019 L 84.2617,-3.8352 L 84.2644,-3.6685 L 84.267,-3.5017 L 84.2693,-3.335 L 84.2715,-3.1683 L 84.2735,-3.0015 L 84.2754,-2.8348 L 84.2772,-2.6681 L 84.2788,-2.5013 L 84.2803,-2.3346 L 84.2816,-2.1678 L 84.2829,-2.0011 L 84.284,-1.8344 L 84.2851,-1.6676 L 84.286,-1.5009 L 84.2868,-1.3341 L 84.2875,-1.1674 L 84.2882,-1.0006 L 84.2887,-0.8339 L 84.2891,-0.6671 L 84.2894,-0.5004 L 84.2897,-0.3336 L 84.2898,-0.1669 L 84.2899,-0.0001 L 84.2898,0.1666 L 84.2897,0.3334 L 84.2894,0.5001 L 84.2891,0.6669 L 84.2887,0.8336 L 84.2882,1.0004 L 84.2875,1.1671 L 84.2868,1.3339 L 84.286,1.5006 L 84.2851,1.6674 L 84.284,1.8341 L 84.2829,2.0009 L 84.2816,2.1676 L 84.2803,2.3343 L 84.2788,2.5011 L 84.2772,2.6678 L 84.2754,2.8346 L 84.2735,3.0013 L 84.2715,3.168 L 84.2693,3.3348 L 84.267,3.5015 L 84.2645,3.6683 L 84.2617,3.835 L 84.2588,4.0017 L 84.2557,4.1684 L 84.2523,4.3351 L 84.2486,4.5019 L 84.2446,4.6686 L 84.2402,4.8352 L 84.2353,5.0019 L 84.2299,5.1686 L 84.2238,5.3352 L 84.2167,5.5018 L 84.208,5.6684 L 84.1965,5.8347 L 84.1705,5.9988" />
      <path d="M 84.1705,5.9988 L 84.1704,5.9989 L 84.1703,5.999 L 84.1702,5.9991 L 84.1701,5.9991 L 84.1701,5.9992 L 84.17,5.9992 L 84.17,5.9993 L 84.1699,5.9993 L 84.1699,5.9994 L 84.1698,5.9994 L 84.1697,5.9994 L 84.1697,5.9995 L 84.1696,5.9995 L 84.1696,5.9996 L 84.1695,5.9996 L 84.1694,5.9996 L 84.1694,5.9997 L 84.1693,5.9997 L 84.1692,5.9997 L 84.1692,5.9998 L 84.1691,5.9998 L 84.169,5.9998 L 84.1689,5.9999 L 84.1688,5.9999 L 84.1687,5.9999 L 84.1686,5.9999 L 84.1685,6.0 L 84.1684,6.0 L 84.1683,6.0 L 84.1682,6.0 L 84.1681,6.0" />
      <path d="M 25.3164,6.0 L 26.1338,6.0 L 26.9512,6.0 L 27.7686,6.0 L 28.5859,6.0 L 29.4033,6.0 L 30.2207,6.0 L 31.0381,6.0 L 31.8555,6.0 L 32.6729,6.0 L 33.4902,6.0 L 34.3076,6.0 L 35.125,6.0 L 35.9424,6.0 L 36.7598,6.0 L 37.5772,6.0 L 38.3945,6.0 L 39.2119,6.0 L 40.0293,6.0 L 40.8467,6.0 L 41.6641,6.0 L 42.4815,6.0 L 43.2989,6.0 L 44.1162,6.0 L 44.9336,6.0 L 45.751,6.0 L 46.5684,6.0 L 47.3858,6.0 L 48.2032,6.0 L 49.0205,6.0 L 49.8379,6.0 L 50.6553,6.0 L 51.4727,6.0 L 52.2901,6.0 L 53.1075,6.0 L 53.9248,6.0 L 54.7422,6.0 L 55.5596,6.0 L 56.377,6.0 L 57.1944,6.0 L 58.0118,6.0 L 58.8292,6.0 L 59.6465,6.0 L 60.4639,6.0 L 61.2813,6.0 L 62.0987,6.0 L 62.9161,6.0 L 63.7335,6.0 L 64.5508,6.0 L 65.3682,6.0 L 66.1856,6.0 L 67.003,6.0 L 67.8204,6.0 L 68.6378,6.0 L 69.4552,6.0 L 70.2725,6.0 L 71.0899,6.0 L 71.9073,6.0 L 72.7247,6.0 L 73.5421,6.0 L 74.3595,6.0 L 75.1768,6.0 L 75.9942,6.0 L 76.8116,6.0 L 77.629,6.0 L 78.4464,6.0 L 79.2638,6.0 L 80.0811,6.0 L 80.8985,6.0 L 81.7159,6.0 L 82.5333,6.0 L 83.3507,6.0 L 84.1681,6.0" />
      <path d="M 85.1699,-4.999 L 85.1915,-4.8624 L 85.2011,-4.7238 L 85.2083,-4.585 L 85.2143,-4.4462 L 85.2194,-4.3073 L 85.2239,-4.1684 L 85.228,-4.0295 L 85.2316,-3.8906 L 85.235,-3.7517 L 85.238,-3.6128 L 85.2409,-3.4739 L 85.2435,-3.3349 L 85.2459,-3.196 L 85.2482,-3.0571 L 85.2503,-2.9181 L 85.2522,-2.7792 L 85.2541,-2.6402 L 85.2557,-2.5013 L 85.2573,-2.3623 L 85.2588,-2.2234 L 85.2601,-2.0844 L 85.2614,-1.9455 L 85.2625,-1.8065 L 85.2635,-1.6676 L 85.2645,-1.5286 L 85.2654,-1.3897 L 85.2661,-1.2507 L 85.2668,-1.1118 L 85.2674,-0.9728 L 85.2679,-0.8338 L 85.2684,-0.6949 L 85.2687,-0.5559 L 85.269,-0.417 L 85.2692,-0.278 L 85.2693,-0.1391 L 85.2694,-0.0001 L 85.2693,0.1389 L 85.2692,0.2778 L 85.269,0.4168 L 85.2687,0.5557 L 85.2684,0.6947 L 85.2679,0.8336 L 85.2674,0.9726 L 85.2668,1.1116 L 85.2661,1.2505 L 85.2654,1.3895 L 85.2645,1.5284 L 85.2635,1.6674 L 85.2625,1.8063 L 85.2614,1.9453 L 85.2601,2.0842 L 85.2588,2.2232 L 85.2573,2.3621 L 85.2557,2.5011 L 85.2541,2.64 L 85.2522,2.779 L 85.2503,2.9179 L 85.2482,3.0569 L 85.2459,3.1958 L 85.2435,3.3348 L 85.2409,3.4737 L 85.238,3.6126 L 85.235,3.7515 L 85.2316,3.8905 L 85.228,4.0294 L 85.2239,4.1683 L 85.2194,4.3072 L 85.2143,4.446 L 85.2084,4.5849 L 85.2011,4.7236 L 85.1915,4.8623 L 85.1699,4.999" />
      <path d="M 25.1802,-9.0 L 25.0136,-9.0 L 24.847,-9.0 L 24.6803,-9.0 L 24.5137,-9.0 L 24.3471,-9.0 L 24.1804,-9.0 L 24.0138,-9.0 L 23.8472,-9.0 L 23.6805,-9.0 L 23.5139,-9.0 L 23.3473,-9.0 L 23.1806,-9.0 L 23.014,-9.0 L 22.8474,-9.0 L 22.6807,-9.0 L 22.5141,-9.0 L 22.3475,-9.0 L 22.1808,-9.0 L 22.0142,-9.0 L 21.8476,-9.0 L 21.6809,-9.0 L 21.5143,-9.0 L 21.3477,-9.0 L 21.181,-9.0 L 21.0144,-9.0 L 20.8478,-9.0 L 20.6812,-9.0 L 20.5145,-9.0 L 20.3479,-9.0 L 20.1813,-9.0 L 20.0146,-9.0 L 19.848,-9.0 L 19.6814,-9.0 L 19.5147,-9.0 L 19.3481,-9.0 L 19.1815,-9.0 L 19.0148,-9.0 L 18.8482,-9.0 L 18.6816,-9.0 L 18.5149,-9.0 L 18.3483,-9.0 L 18.1817,-9.0 L 18.015,-9.0 L 17.8484,-9.0 L 17.6818,-9.0 L 17.5151,-9.0 L 17.3485,-9.0 L 17.1819,-9.0 L 17.0152,-9.0 L 16.8486,-9.0 L 16.682,-9.0 L 16.5153,-9.0 L 16.3487,-9.0 L 16.1821,-9.0 L 16.0154,-9.0 L 15.8488,-9.0 L 15.6822,-9.0 L 15.5155,-9.0 L 15.3489,-9.0 L 15.1823,-9.0 L 15.0157,-9.0 L 14.849,-9.0 L 14.6824,-9.0 L 14.5158,-9.0 L 14.3491,-9.0 L 14.1825,-9.0 L 14.0159,-9.0 L 13.8492,-9.0 L 13.6826,-9.0 L 13.516,-9.0 L 13.3493,-9.0 L 13.1827,-9.0" />
      <path d="M 25.3164,-6.0 L 26.1338,-6.0 L 26.9512,-6.0 L 27.7686,-6.0 L 28.5859,-6.0 L 29.4033,-6.0 L 30.2207,-6.0 L 31.0381,-6.0 L 31.8555,-6.0 L 32.6729,-6.0 L 33.4902,-6.0 L 34.3076,-6.0 L 35.125,-6.0 L 35.9424,-6.0 L 36.7598,-6.0 L 37.5772,-6.0 L 38.3945,-6.0 L 39.2119,-6.0 L 40.0293,-6.0 L 40.8467,-6.0 L 41.6641,-6.0 L 42.4815,-6.0 L 43.2989,-6.0 L 44.1162,-6.0 L 44.9336,-6.0 L 45.751,-6.0 L 46.5684,-6.0 L 47.3858,-6.0 L 48.2032,-6.0 L 49.0205,-6.0 L 49.8379,-6.0 L 50.6553,-6.0 L 51.4727,-6.0 L 52.2901,-6.0 L 53.1075,-6.0 L 53.9248,-6.0 L 54.7422,-6.0 L 55.5596,-6.0 L 56.377,-6.0 L 57.1944,-6.0 L 58.0118,-6.0 L 58.8292,-6.0 L 59.6465,-6.0 L 60.4639,-6.0 L 61.2813,-6.0 L 62.0987,-6.0 L 62.9161,-6.0 L 63.7335,-6.0 L 64.5508,-6.0 L 65.3682,-6.0 L 66.1856,-6.0 L 67.003,-6.0 L 67.8204,-6.0 L 68.6378,-6.0 L 69.4552,-6.0 L 70.2725,-6.0 L 71.0899,-6.0 L 71.9073,-6.0 L 72.7247,-6.0 L 73.5421,-6.0 L 74.3595,-6.0 L 75.1768,-6.0 L 75.9942,-6.0 L 76.8116,-6.0 L 77.629,-6.0 L 78.4464,-6.0 L 79.2638,-6.0 L 80.0811,-6.0 L 80.8985,-6.0 L 81.7159,-6.0 L 82.5333,-6.0 L 83.3507,-6.0 L 84.1681,-6.0" />
      <path d="M 85.1699,4.999 L 85.156,5.0129 L 85.1422,5.0267 L 85.1283,5.0406 L 85.1144,5.0545 L 85.1005,5.0684 L 85.0866,5.0823 L 85.0728,5.0962 L 85.0589,5.1101 L 85.045,5.1239 L 85.0311,5.1378 L 85.0172,5.1517 L 85.0034,5.1656 L 84.9895,5.1795 L 84.9756,5.1934 L 84.9617,5.2073 L 84.9478,5.2211 L 84.934,5.235 L 84.9201,5.2489 L 84.9062,5.2628 L 84.8923,5.2767 L 84.8784,5.2906 L 84.8646,5.3045 L 84.8507,5.3183 L 84.8368,5.3322 L 84.8229,5.3461 L 84.809,5.36 L 84.7952,5.3739 L 84.7813,5.3878 L 84.7674,5.4017 L 84.7535,5.4156 L 84.7396,5.4294 L 84.7258,5.4433 L 84.7119,5.4572 L 84.698,5.4711 L 84.6841,5.485 L 84.6702,5.4989 L 84.6564,5.5128 L 84.6425,5.5266 L 84.6286,5.5405 L 84.6147,5.5544 L 84.6008,5.5683 L 84.5869,5.5822 L 84.5731,5.5961 L 84.5592,5.61 L 84.5453,5.6238 L 84.5314,5.6377 L 84.5175,5.6516 L 84.5037,5.6655 L 84.4898,5.6794 L 84.4759,5.6933 L 84.462,5.7072 L 84.4481,5.721 L 84.4343,5.7349 L 84.4204,5.7488 L 84.4065,5.7627 L 84.3926,5.7766 L 84.3787,5.7905 L 84.3649,5.8044 L 84.351,5.8182 L 84.3371,5.8321 L 84.3232,5.846 L 84.3093,5.8599 L 84.2955,5.8738 L 84.2816,5.8877 L 84.2677,5.9016 L 84.2538,5.9154 L 84.2399,5.9293 L 84.2261,5.9432 L 84.2122,5.9571 L 84.1983,5.971 L 84.1844,5.9849 L 84.1705,5.9988" />
      <path d="M 85.1699,-4.999 L 85.156,-5.0129 L 85.1422,-5.0267 L 85.1283,-5.0406 L 85.1144,-5.0545 L 85.1005,-5.0684 L 85.0866,-5.0823 L 85.0728,-5.0962 L 85.0589,-5.1101 L 85.045,-5.1239 L 85.0311,-5.1378 L 85.0172,-5.1517 L 85.0034,-5.1656 L 84.9895,-5.1795 L 84.9756,-5.1934 L 84.9617,-5.2073 L 84.9478,-5.2211 L 84.934,-5.235 L 84.9201,-5.2489 L 84.9062,-5.2628 L 84.8923,-5.2767 L 84.8784,-5.2906 L 84.8646,-5.3045 L 84.8507,-5.3183 L 84.8368,-5.3322 L 84.8229,-5.3461 L 84.809,-5.36 L 84.7952,-5.3739 L 84.7813,-5.3878 L 84.7674,-5.4017 L 84.7535,-5.4156 L 84.7396,-5.4294 L 84.7258,-5.4433 L 84.7119,-5.4572 L 84.698,-5.4711 L 84.6841,-5.485 L 84.6702,-5.4989 L 84.6564,-5.5128 L 84.6425,-5.5266 L 84.6286,-5.5405 L 84.6147,-5.5544 L 84.6008,-5.5683 L 84.5869,-5.5822 L 84.5731,-5.5961 L 84.5592,-5.61 L 84.5453,-5.6238 L 84.5314,-5.6377 L 84.5175,-5.6516 L 84.5037,-5.6655 L 84.4898,-5.6794 L 84.4759,-5.6933 L 84.462,-5.7072 L 84.4481,-5.721 L 84.4343,-5.7349 L 84.4204,-5.7488 L 84.4065,-5.7627 L 84.3926,-5.7766 L 84.3787,-5.7905 L 84.3649,-5.8044 L 84.351,-5.8182 L 84.3371,-5.8321 L 84.3232,-5.846 L 84.3093,-5.8599 L 84.2955,-5.8738 L 84.2816,-5.8877 L 84.2677,-5.9016 L 84.2538,-5.9154 L 84.2399,-5.9293 L 84.2261,-5.9432 L 84.2122,-5.9571 L 84.1983,-5.971 L 84.1844,-5.9849 L 84.1705,-5.9988" />
    </g>
    <g fill="none" stroke="rgb(110,110,110)" stroke-width="0.3" id="Hidden" stroke-dasharray="3.6 0.9">
      <path d="M 0.0,9.0 L -0.7844,8.9658 L -1.5628,8.8633 L -2.3294,8.6933 L -3.0782,8.4572 L -3.8036,8.1568 L -4.5,7.7942 L -5.1622,7.3724 L -5.7851,6.8944 L -6.364,6.364 L -6.8944,5.7851 L -7.3724,5.1622 L -7.7942,4.5 L -8.1568,3.8036 L -8.4572,3.0782 L -8.6933,2.3294 L -8.8633,1.5628 L -8.9658,0.7844 L -9.0,-0.0 L -8.9658,-0.7844 L -8.8633,-1.5628 L -8.6933,-2.3294 L -8.4572,-3.0782 L -8.1568,-3.8036 L -7.7942,-4.5 L -7.3724,-5.1622 L -6.8944,-5.7851 L -6.364,-6.364 L -5.7851,-6.8944 L -5.1622,-7.3724 L -4.5,-7.7942 L -3.8036,-8.1568 L -3.0782,-8.4572 L -2.3294,-8.6933 L -1.5628,-8.8633 L -0.7844,-8.9658 L -0.0,-9.0 L 0.7844,-8.9658 L 1.5628,-8.8633 L 2.3294,-8.6933 L 3.0782,-8.4572 L 3.8036,-8.1568 L 4.5,-7.7942 L 5.1622,-7.3724 L 5.7851,-6.8944 L 6.364,-6.364 L 6.8944,-5.7851 L 7.3724,-5.1622 L 7.7942,-4.5 L 8.1568,-3.8036 L 8.4572,-3.0782 L 8.6933,-2.3294 L 8.8633,-1.5628 L 8.9658,-0.7844 L 9.0,0.0 L 8.9658,0.7844 L 8.8633,1.5628 L 8.6933,2.3294 L 8.4572,3.0782 L 8.1568,3.8036 L 7.7942,4.5 L 7.3724,5.1622 L 6.8944,5.7851 L 6.364,6.364 L 5.7851,6.8944 L 5.1622,7.3724 L 4.5,7.7942 L 3.8036,8.1568 L 3.0782,8.4572 L 2.3294,8.6933 L 1.5628,8.8633 L 0.7844,8.9658 L 0.0,9.0" />
      <path d="M 0.0,6.0 L -0.5229,5.9772 L -1.0419,5.9088 L -1.5529,5.7956 L -2.0521,5.6382 L -2.5357,5.4378 L -3.0,5.1962 L -3.4415,4.9149 L -3.8567,4.5963 L -4.2426,4.2426 L -4.5963,3.8567 L -4.9149,3.4415 L -5.1962,3.0 L -5.4378,2.5357 L -5.6382,2.0521 L -5.7956,1.5529 L -5.9088,1.0419 L -5.9772,0.5229 L -6.0,-0.0 L -5.9772,-0.5229 L -5.9088,-1.0419 L -5.7956,-1.5529 L -5.6382,-2.0521 L -5.4378,-2.5357 L -5.1962,-3.0 L -4.9149,-3.4415 L -4.5963,-3.8567 L -4.2426,-4.2426 L -3.8567,-4.5963 L -3.4415,-4.9149 L -3.0,-5.1962 L -2.5357,-5.4378 L -2.0521,-5.6382 L -1.5529,-5.7956 L -1.0419,-5.9088 L -0.5229,-5.9772 L -0.0,-6.0 L 0.5229,-5.9772 L 1.0419,-5.9088 L 1.5529,-5.7956 L 2.0521,-5.6382 L 2.5357,-5.4378 L 3.0,-5.1962 L 3.4415,-4.9149 L 3.8567,-4.5963 L 4.2426,-4.2426 L 4.5963,-3.8567 L 4.9149,-3.4415 L 5.1962,-3.0 L 5.4378,-2.5357 L 5.6382,-2.0521 L 5.7956,-1.5529 L 5.9088,-1.0419 L 5.9772,-0.5229 L 6.0,0.0 L 5.9772,0.5229 L 5.9088,1.0419 L 5.7956,1.5529 L 5.6382,2.0521 L 5.4378,2.5357 L 5.1962,3.0 L 4.9149,3.4415 L 4.5963,3.8567 L 4.2426,4.2426 L 3.8567,4.5963 L 3.4415,4.9149 L 3.0,5.1962 L 2.5357,5.4378 L 2.0521,5.6382 L 1.5529,5.7956 L 1.0419,5.9088 L 0.5229,5.9772 L 0.0,6.0" />
      <path d="M -5.0,2.8868 L -5.0,2.8066 L -5.0,2.7264 L -5.0,2.6462 L -5.0,2.566 L -5.0,2.4858 L -5.0,2.4056 L -5.0,2.3254 L -5.0,2.2453 L -5.0,2.1651 L -5.0,2.0849 L -5.0,2.0047 L -5.0,1.9245 L -5.0,1.8443 L -5.0,1.7641 L -5.0,1.6839 L -5.0,1.6038 L -5.0,1.5236 L -5.0,1.4434 L -5.0,1.3632 L -5.0,1.283 L -5.0,1.2028 L -5.0,1.1226 L -5.0,1.0424 L -5.0,0.9623 L -5.0,0.8821 L -5.0,0.8019 L -5.0,0.7217 L -5.0,0.6415 L -5.0,0.5613 L -5.0,0.4811 L -5.0,0.4009 L -5.0,0.3208 L -5.0,0.2406 L -5.0,0.1604 L -5.0,0.0802 L -5.0,0.0 L -5.0,-0.0802 L -5.0,-0.1604 L -5.0,-0.2406 L -5.0,-0.3208 L -5.0,-0.4009 L -5.0,-0.4811 L -5.0,-0.5613 L -5.0,-0.6415 L -5.0,-0.7217 L -5.0,-0.8019 L -5.0,-0.8821 L -5.0,-0.9623 L -5.0,-1.0424 L -5.0,-1.1226 L -5.0,-1.2028 L -5.0,-1.283 L -5.0,-1.3632 L -5.0,-1.4434 L -5.0,-1.5236 L -5.0,-1.6038 L -5.0,-1.6839 L -5.0,-1.7641 L -5.0,-1.8443 L -5.0,-1.9245 L -5.0,-2.0047 L -5.0,-2.0849 L -5.0,-2.1651 L -5.0,-2.2453 L -5.0,-2.3254 L -5.0,-2.4056 L -5.0,-2.4858 L -5.0,-2.566 L -5.0,-2.6462 L -5.0,-2.7264 L -5.0,-2.8066 L -5.0,-2.8868" />
      <path d="M -5.0,-2.8868 L -4.9306,-2.9268 L -4.8611,-2.9669 L -4.7917,-3.007 L -4.7222,-3.0471 L -4.6528,-3.0872 L -4.5833,-3.1273 L -4.5139,-3.1674 L -4.4444,-3.2075 L -4.375,-3.2476 L -4.3056,-3.2877 L -4.2361,-3.3278 L -4.1667,-3.3679 L -4.0972,-3.408 L -4.0278,-3.4481 L -3.9583,-3.4882 L -3.8889,-3.5283 L -3.8194,-3.5683 L -3.75,-3.6084 L -3.6806,-3.6485 L -3.6111,-3.6886 L -3.5417,-3.7287 L -3.4722,-3.7688 L -3.4028,-3.8089 L -3.3333,-3.849 L -3.2639,-3.8891 L -3.1944,-3.9292 L -3.125,-3.9693 L -3.0556,-4.0094 L -2.9861,-4.0495 L -2.9167,-4.0896 L -2.8472,-4.1297 L -2.7778,-4.1698 L -2.7083,-4.2098 L -2.6389,-4.2499 L -2.5694,-4.29 L -2.5,-4.3301 L -2.4306,-4.3702 L -2.3611,-4.4103 L -2.2917,-4.4504 L -2.2222,-4.4905 L -2.1528,-4.5306 L -2.0833,-4.5707 L -2.0139,-4.6108 L -1.9444,-4.6509 L -1.875,-4.691 L -1.8056,-4.7311 L -1.7361,-4.7712 L -1.6667,-4.8113 L -1.5972,-4.8513 L -1.5278,-4.8914 L -1.4583,-4.9315 L -1.3889,-4.9716 L -1.3194,-5.0117 L -1.25,-5.0518 L -1.1806,-5.0919 L -1.1111,-5.132 L -1.0417,-5.1721 L -0.9722,-5.2122 L -0.9028,-5.2523 L -0.8333,-5.2924 L -0.7639,-5.3325 L -0.6944,-5.3726 L -0.625,-5.4127 L -0.5556,-5.4528 L -0.4861,-5.4928 L -0.4167,-5.5329 L -0.3472,-5.573 L -0.2778,-5.6131 L -0.2083,-5.6532 L -0.1389,-5.6933 L -0.0694,-5.7334 L -0.0,-5.7735" />
      <path d="M 0.0,-5.7735 L 0.0694,-5.7334 L 0.1389,-5.6933 L 0.2083,-5.6532 L 0.2778,-5.6131 L 0.3472,-5.573 L 0.4167,-5.5329 L 0.4861,-5.4928 L 0.5556,-5.4528 L 0.625,-5.4127 L 0.6944,-5.3726 L 0.7639,-5.3325 L 0.8333,-5.2924 L 0.9028,-5.2523 L 0.9722,-5.2122 L 1.0417,-5.1721 L 1.1111,-5.132 L 1.1806,-5.0919 L 1.25,-5.0518 L 1.3194,-5.0117 L 1.3889,-4.9716 L 1.4583,-4.9315 L 1.5278,-4.8914 L 1.5972,-4.8513 L 1.6667,-4.8113 L 1.7361,-4.7712 L 1.8056,-4.7311 L 1.875,-4.691 L 1.9444,-4.6509 L 2.0139,-4.6108 L 2.0833,-4.5707 L 2.1528,-4.5306 L 2.2222,-4.4905 L 2.2917,-4.4504 L 2.3611,-4.4103 L 2.4306,-4.3702 L 2.5,-4.3301 L 2.5694,-4.29 L 2.6389,-4.2499 L 2.7083,-4.2098 L 2.7778,-4.1698 L 2.8472,-4.1297 L 2.9167,-4.0896 L 2.9861,-4.0495 L 3.0556,-4.0094 L 3.125,-3.9693 L 3.1944,-3.9292 L 3.2639,-3.8891 L 3.3333,-3.849 L 3.4028,-3.8089 L 3.4722,-3.7688 L 3.5417,-3.7287 L 3.6111,-3.6886 L 3.6806,-3.6485 L 3.75,-3.6084 L 3.8194,-3.5683 L 3.8889,-3.5283 L 3.9583,-3.4882 L 4.0278,-3.4481 L 4.0972,-3.408 L 4.1667,-3.3679 L 4.2361,-3.3278 L 4.3056,-3.2877 L 4.375,-3.2476 L 4.4444,-3.2075 L 4.5139,-3.1674 L 4.5833,-3.1273 L 4.6528,-3.0872 L 4.7222,-3.0471 L 4.7917,-3.007 L 4.8611,-2.9669 L 4.9306,-2.9268 L 5.0,-2.8868" />
      <path d="M 5.0,-2.8868 L 5.0,-2.8066 L 5.0,-2.7264 L 5.0,-2.6462 L 5.0,-2.566 L 5.0,-2.4858 L 5.0,-2.4056 L 5.0,-2.3254 L 5.0,-2.2453 L 5.0,-2.1651 L 5.0,-2.0849 L 5.0,-2.0047 L 5.0,-1.9245 L 5.0,-1.8443 L 5.0,-1.7641 L 5.0,-1.6839 L 5.0,-1.6038 L 5.0,-1.5236 L 5.0,-1.4434 L 5.0,-1.3632 L 5.0,-1.283 L 5.0,-1.2028 L 5.0,-1.1226 L 5.0,-1.0424 L 5.0,-0.9623 L 5.0,-0.8821 L 5.0,-0.8019 L 5.0,-0.7217 L 5.0,-0.6415 L 5.0,-0.5613 L 5.0,-0.4811 L 5.0,-0.4009 L 5.0,-0.3208 L 5.0,-0.2406 L 5.0,-0.1604 L 5.0,-0.0802 L 5.0,0.0 L 5.0,0.0802 L 5.0,0.1604 L 5.0,0.2406 L 5.0,0.3208 L 5.0,0.4009 L 5.0,0.4811 L 5.0,0.5613 L 5.0,0.6415 L 5.0,0.7217 L 5.0,0.8019 L 5.0,0.8821 L 5.0,0.9623 L 5.0,1.0424 L 5.0,1.1226 L 5.0,1.2028 L 5.0,1.283 L 5.0,1.3632 L 5.0,1.4434 L 5.0,1.5236 L 5.0,1.6038 L 5.0,1.6839 L 5.0,1.7641 L 5.0,1.8443 L 5.0,1.9245 L 5.0,2.0047 L 5.0,2.0849 L 5.0,2.1651 L 5.0,2.2453 L 5.0,2.3254 L 5.0,2.4056 L 5.0,2.4858 L 5.0,2.566 L 5.0,2.6462 L 5.0,2.7264 L 5.0,2.8066 L 5.0,2.8868" />
      <path d="M 5.0,2.8868 L 4.9306,2.9268 L 4.8611,2.9669 L 4.7917,3.007 L 4.7222,3.0471 L 4.6528,3.0872 L 4.5833,3.1273 L 4.5139,3.1674 L 4.4444,3.2075 L 4.375,3.2476 L 4.3056,3.2877 L 4.2361,3.3278 L 4.1667,3.3679 L 4.0972,3.408 L 4.0278,3.4481 L 3.9583,3.4882 L 3.8889,3.5283 L 3.8194,3.5683 L 3.75,3.6084 L 3.6806,3.6485 L 3.6111,3.6886 L 3.5417,3.7287 L 3.4722,3.7688 L 3.4028,3.8089 L 3.3333,3.849 L 3.2639,3.8891 L 3.1944,3.9292 L 3.125,3.9693 L 3.0556,4.0094 L 2.9861,4.0495 L 2.9167,4.0896 L 2.8472,4.1297 L 2.7778,4.1698 L 2.7083,4.2098 L 2.6389,4.2499 L 2.5694,4.29 L 2.5,4.3301 L 2.4306,4.3702 L 2.3611,4.4103 L 2.2917,4.4504 L 2.2222,4.4905 L 2.1528,4.5306 L 2.0833,4.5707 L 2.0139,4.6108 L 1.9444,4.6509 L 1.875,4.691 L 1.8056,4.7311 L 1.7361,4.7712 L 1.6667,4.8113 L 1.5972,4.8513 L 1.5278,4.8914 L 1.4583,4.9315 L 1.3889,4.9716 L 1.3194,5.0117 L 1.25,5.0518 L 1.1806,5.0919 L 1.1111,5.132 L 1.0417,5.1721 L 0.9722,5.2122 L 0.9028,5.2523 L 0.8333,5.2924 L 0.7639,5.3325 L 0.6944,5.3726 L 0.625,5.4127 L 0.5556,5.4528 L 0.4861,5.4928 L 0.4167,5.5329 L 0.3472,5.573 L 0.2778,5.6131 L 0.2083,5.6532 L 0.1389,5.6933 L 0.0694,5.7334 L 0.0,5.7735" />
      <path d="M 0.0,5.7735 L -0.0694,5.7334 L -0.1389,5.6933 L -0.2083,5.6532 L -0.2778,5.6131 L -0.3472,5.573 L -0.4167,5.5329 L -0.4861,5.4928 L -0.5556,5.4528 L -0.625,5.4127 L -0.6944,5.3726 L -0.7639,5.3325 L -0.8333,5.2924 L -0.9028,5.2523 L -0.9722,5.2122 L -1.0417,5.1721 L -1.1111,5.132 L -1.1806,5.0919 L -1.25,5.0518 L -1.3194,5.0117 L -1.3889,4.9716 L -1.4583,4.9315 L -1.5278,4.8914 L -1.5972,4.8513 L -1.6667,4.8113 L -1.7361,4.7712 L -1.8056,4.7311 L -1.875,4.691 L -1.9444,4.6509 L -2.0139,4.6108 L -2.0833,4.5707 L -2.1528,4.5306 L -2.2222,4.4905 L -2.2917,4.4504 L -2.3611,4.4103 L -2.4306,4.3702 L -2.5,4.3301 L -2.5694,4.29 L -2.6389,4.2499 L -2.7083,4.2098 L -2.7778,4.1698 L -2.8472,4.1297 L -2.9167,4.0896 L -2.9861,4.0495 L -3.0556,4.0094 L -3.125,3.9693 L -3.1944,3.9292 L -3.2639,3.8891 L -3.3333,3.849 L -3.4028,3.8089 L -3.4722,3.7688 L -3.5417,3.7287 L -3.6111,3.6886 L -3.6806,3.6485 L -3.75,3.6084 L -3.8194,3.5683 L -3.8889,3.5283 L -3.9583,3.4882 L -4.0278,3.4481 L -4.0972,3.408 L -4.1667,3.3679 L -4.2361,3.3278 L -4.3056,3.2877 L -4.375,3.2476 L -4.4444,3.2075 L -4.5139,3.1674 L -4.5833,3.1273 L -4.6528,3.0872 L -4.7222,3.0471 L -4.7917,3.007 L -4.8611,2.9669 L -4.9306,2.9268 L -5.0,2.8868" />
      <path d="M 0.0,6.0 L -0.5229,5.9772 L -1.0419,5.9088 L -1.5529,5.7956 L -2.0521,5.6382 L -2.5357,5.4378 L -3.0,5.1962 L -3.4415,4.9149 L -3.8567,4.5963 L -4.2426,4.2426 L -4.5963,3.8567 L -4.9149,3.4415 L -5.1962,3.0 L -5.4378,2.5357 L -5.6382,2.0521 L -5.7956,1.5529 L -5.9088,1.0419 L -5.9772,0.5229 L -6.0,-0.0 L -5.9772,-0.5229 L -5.9088,-1.0419 L -5.7956,-1.5529 L -5.6382,-2.0521 L -5.4378,-2.5357 L -5.1962,-3.0 L -4.9149,-3.4415 L -4.5963,-3.8567 L -4.2426,-4.2426 L -3.8567,-4.5963 L -3.4415,-4.9149 L -3.0,-5.1962 L -2.5357,-5.4378 L -2.0521,-5.6382 L -1.5529,-5.7956 L -1.0419,-5.9088 L -0.5229,-5.9772 L -0.0,-6.0 L 0.5229,-5.9772 L 1.0419,-5.9088 L 1.5529,-5.7956 L 2.0521,-5.6382 L 2.5357,-5.4378 L 3.0,-5.1962 L 3.4415,-4.9149 L 3.8567,-4.5963 L 4.2426,-4.2426 L 4.5963,-3.8567 L 4.9149,-3.4415 L 5.1962,-3.0 L 5.4378,-2.5357 L 5.6382,-2.0521 L 5.7956,-1.5529 L 5.9088,-1.0419 L 5.9772,-0.5229 L 6.0,0.0 L 5.9772,0.5229 L 5.9088,1.0419 L 5.7956,1.5529 L 5.6382,2.0521 L 5.4378,2.5357 L 5.1962,3.0 L 4.9149,3.4415 L 4.5963,3.8567 L 4.2426,4.2426 L 3.8567,4.5963 L 3.4415,4.9149 L 3.0,5.1962 L 2.5357,5.4378 L 2.0521,5.6382 L 1.5529,5.7956 L 1.0419,5.9088 L 0.5229,5.9772 L 0.0,6.0" />
      <path d="M 0.0,5.0 L -0.4358,4.981 L -0.8682,4.924 L -1.2941,4.8296 L -1.7101,4.6985 L -2.1131,4.5315 L -2.5,4.3301 L -2.8679,4.0958 L -3.2139,3.8302 L -3.5355,3.5355 L -3.8302,3.2139 L -4.0958,2.8679 L -4.3301,2.5 L -4.5315,2.1131 L -4.6985,1.7101 L -4.8296,1.2941 L -4.924,0.8682 L -4.981,0.4358 L -5.0,0.0 L -4.981,-0.4358 L -4.924,-0.8682 L -4.8296,-1.2941 L -4.6985,-1.7101 L -4.5315,-2.1131 L -4.3301,-2.5 L -4.0958,-2.8679 L -3.8302,-3.2139 L -3.5355,-3.5355 L -3.2139,-3.8302 L -2.8679,-4.0958 L -2.5,-4.3301 L -2.1131,-4.5315 L -1.7101,-4.6985 L -1.2941,-4.8296 L -0.8682,-4.924 L -0.4358,-4.981 L -0.0,-5.0 L 0.4358,-4.981 L 0.8682,-4.924 L 1.2941,-4.8296 L 1.7101,-4.6985 L 2.1131,-4.5315 L 2.5,-4.3301 L 2.8679,-4.0958 L 3.2139,-3.8302 L 3.5355,-3.5355 L 3.8302,-3.2139 L 4.0958,-2.8679 L 4.3301,-2.5 L 4.5315,-2.1131 L 4.6985,-1.7101 L 4.8296,-1.2941 L 4.924,-0.8682 L 4.981,-0.4358 L 5.0,-0.0 L 4.981,0.4358 L 4.924,0.8682 L 4.8296,1.2941 L 4.6985,1.7101 L 4.5315,2.1131 L 4.3301,2.5 L 4.0958,2.8679 L 3.8302,3.2139 L 3.5355,3.5355 L 3.2139,3.8302 L 2.8679,4.0958 L 2.5,4.3301 L 2.1131,4.5315 L 1.7101,4.6985 L 1.2941,4.8296 L 0.8682,4.924 L 0.4358,4.981 L 0.0,5.0" />
      <path d="M 25.1802,9.0 L 25.138,8.7565 L 25.1206,8.5069 L 25.1075,8.257 L 25.0968,8.007 L 25.0876,7.757 L 25.0794,7.5069 L 25.0722,7.2568 L 25.0656,7.0066 L 25.0595,6.7565 L 25.054,6.5063 L 25.0489,6.2561 L 25.0442,6.006 L 25.0398,5.7558 L 25.0357,5.5056 L 25.0319,5.2554 L 25.0284,5.0052 L 25.0251,4.755 L 25.0221,4.5048 L 25.0192,4.2546 L 25.0166,4.0043 L 25.0142,3.7541 L 25.0119,3.5039 L 25.0099,3.2537 L 25.008,3.0035 L 25.0063,2.7532 L 25.0047,2.503 L 25.0033,2.2528 L 25.0021,2.0026 L 25.001,1.7523 L 25.0001,1.5021 L 24.9993,1.2519 L 24.9987,1.0017 L 24.9982,0.7514 L 24.9978,0.5012 L 24.9976,0.251 L 24.9975,0.0007 L 24.9976,-0.2495 L 24.9978,-0.4997 L 24.9982,-0.75 L 24.9987,-1.0002 L 24.9993,-1.2504 L 25.0001,-1.5007 L 25.001,-1.7509 L 25.0021,-2.0011 L 25.0033,-2.2514 L 25.0047,-2.5016 L 25.0063,-2.7518 L 25.008,-3.002 L 25.0099,-3.2523 L 25.0119,-3.5025 L 25.0142,-3.7527 L 25.0166,-4.0029 L 25.0192,-4.2532 L 25.022,-4.5034 L 25.0251,-4.7536 L 25.0284,-5.0038 L 25.0319,-5.254 L 25.0357,-5.5042 L 25.0398,-5.7544 L 25.0441,-6.0046 L 25.0489,-6.2548 L 25.054,-6.505 L 25.0595,-6.7552 L 25.0655,-7.0054 L 25.0721,-7.2555 L 25.0794,-7.5056 L 25.0875,-7.7558 L 25.0968,-8.0058 L 25.1075,-8.2559 L 25.1205,-8.5058 L 25.1379,-8.7554 L 25.1802,-9.0" />
      <path d="M 25.1802,6.0 L 25.1521,5.8377 L 25.1405,5.6713 L 25.1318,5.5047 L 25.1246,5.338 L 25.1185,5.1713 L 25.113,5.0046 L 25.1082,4.8378 L 25.1038,4.6711 L 25.0998,4.5043 L 25.0961,4.3375 L 25.0927,4.1708 L 25.0895,4.004 L 25.0866,3.8372 L 25.0839,3.6704 L 25.0813,3.5036 L 25.079,3.3368 L 25.0768,3.17 L 25.0748,3.0032 L 25.0729,2.8364 L 25.0711,2.6696 L 25.0695,2.5028 L 25.068,2.3359 L 25.0667,2.1691 L 25.0654,2.0023 L 25.0643,1.8355 L 25.0632,1.6687 L 25.0623,1.5019 L 25.0615,1.335 L 25.0608,1.1682 L 25.0601,1.0014 L 25.0596,0.8346 L 25.0592,0.6678 L 25.0589,0.5009 L 25.0586,0.3341 L 25.0585,0.1673 L 25.0584,0.0005 L 25.0585,-0.1663 L 25.0586,-0.3332 L 25.0589,-0.5 L 25.0592,-0.6668 L 25.0596,-0.8336 L 25.0601,-1.0004 L 25.0608,-1.1673 L 25.0615,-1.3341 L 25.0623,-1.5009 L 25.0632,-1.6677 L 25.0643,-1.8345 L 25.0654,-2.0014 L 25.0667,-2.1682 L 25.068,-2.335 L 25.0695,-2.5018 L 25.0711,-2.6686 L 25.0729,-2.8354 L 25.0748,-3.0023 L 25.0768,-3.1691 L 25.079,-3.3359 L 25.0813,-3.5027 L 25.0839,-3.6695 L 25.0866,-3.8363 L 25.0895,-4.0031 L 25.0926,-4.1699 L 25.0961,-4.3367 L 25.0997,-4.5035 L 25.1038,-4.6702 L 25.1082,-4.837 L 25.113,-5.0038 L 25.1184,-5.1705 L 25.1246,-5.3372 L 25.1317,-5.5039 L 25.1404,-5.6705 L 25.152,-5.8369 L 25.1802,-6.0" />
      <path d="M 25.1802,-6.0 L 25.2084,-5.8377 L 25.22,-5.6713 L 25.2287,-5.5047 L 25.2358,-5.338 L 25.242,-5.1713 L 25.2474,-5.0046 L 25.2523,-4.8378 L 25.2567,-4.6711 L 25.2607,-4.5043 L 25.2644,-4.3375 L 25.2678,-4.1708 L 25.2709,-4.004 L 25.2739,-3.8372 L 25.2766,-3.6704 L 25.2791,-3.5036 L 25.2815,-3.3368 L 25.2836,-3.17 L 25.2857,-3.0032 L 25.2876,-2.8364 L 25.2893,-2.6696 L 25.2909,-2.5028 L 25.2924,-2.3359 L 25.2938,-2.1691 L 25.295,-2.0023 L 25.2962,-1.8355 L 25.2972,-1.6687 L 25.2981,-1.5019 L 25.299,-1.335 L 25.2997,-1.1682 L 25.3003,-1.0014 L 25.3008,-0.8346 L 25.3013,-0.6678 L 25.3016,-0.5009 L 25.3018,-0.3341 L 25.302,-0.1673 L 25.302,-0.0005 L 25.302,0.1663 L 25.3018,0.3332 L 25.3016,0.5 L 25.3013,0.6668 L 25.3008,0.8336 L 25.3003,1.0004 L 25.2997,1.1673 L 25.299,1.3341 L 25.2982,1.5009 L 25.2972,1.6677 L 25.2962,1.8345 L 25.295,2.0014 L 25.2938,2.1682 L 25.2924,2.335 L 25.2909,2.5018 L 25.2893,2.6686 L 25.2876,2.8354 L 25.2857,3.0023 L 25.2836,3.1691 L 25.2815,3.3359 L 25.2791,3.5027 L 25.2766,3.6695 L 25.2739,3.8363 L 25.271,4.0031 L 25.2678,4.1699 L 25.2644,4.3367 L 25.2607,4.5035 L 25.2567,4.6702 L 25.2523,4.837 L 25.2474,5.0038 L 25.242,5.1705 L 25.2359,5.3372 L 25.2287,5.5039 L 25.22,5.6705 L 25.2084,5.8369 L 25.1802,6.0" />
      <path d="M 19.08,2.8868 L 19.08,2.8066 L 19.08,2.7264 L 19.08,2.6462 L 19.08,2.566 L 19.08,2.4858 L 19.08,2.4056 L 19.08,2.3254 L 19.08,2.2453 L 19.08,2.1651 L 19.08,2.0849 L 19.08,2.0047 L 19.08,1.9245 L 19.08,1.8443 L 19.08,1.7641 L 19.08,1.6839 L 19.08,1.6038 L 19.08,1.5236 L 19.08,1.4434 L 19.08,1.3632 L 19.08,1.283 L 19.08,1.2028 L 19.08,1.1226 L 19.08,1.0424 L 19.08,0.9623 L 19.08,0.8821 L 19.08,0.8019 L 19.08,0.7217 L 19.08,0.6415 L 19.08,0.5613 L 19.08,0.4811 L 19.08,0.4009 L 19.08,0.3208 L 19.08,0.2406 L 19.08,0.1604 L 19.08,0.0802 L 19.08,0.0 L 19.08,-0.0802 L 19.08,-0.1604 L 19.08,-0.2406 L 19.08,-0.3208 L 19.08,-0.4009 L 19.08,-0.4811 L 19.08,-0.5613 L 19.08,-0.6415 L 19.08,-0.7217 L 19.08,-0.8019 L 19.08,-0.8821 L 19.08,-0.9623 L 19.08,-1.0424 L 19.08,-1.1226 L 19.08,-1.2028 L 19.08,-1.283 L 19.08,-1.3632 L 19.08,-1.4434 L 19.08,-1.5236 L 19.08,-1.6038 L 19.08,-1.6839 L 19.08,-1.7641 L 19.08,-1.8443 L 19.08,-1.9245 L 19.08,-2.0047 L 19.08,-2.0849 L 19.08,-2.1651 L 19.08,-2.2453 L 19.08,-2.3254 L 19.08,-2.4056 L 19.08,-2.4858 L 19.08,-2.566 L 19.08,-2.6462 L 19.08,-2.7264 L 19.08,-2.8066 L 19.08,-2.8868" />
      <path d="M 19.08,-2.8868 L 18.9995,-2.8868 L 18.919,-2.8868 L 18.8385,-2.8868 L 18.758,-2.8868 L 18.6775,-2.8868 L 18.597,-2.8868 L 18.5165,-2.8868 L 18.436,-2.8868 L 18.3555,-2.8868 L 18.275,-2.8868 L 18.1945,-2.8868 L 18.114,-2.8868 L 18.0335,-2.8868 L 17.953,-2.8868 L 17.8725,-2.8868 L 17.792,-2.8868 L 17.7115,-2.8868 L 17.631,-2.8868 L 17.5505,-2.8868 L 17.47,-2.8868 L 17.3895,-2.8868 L 17.309,-2.8868 L 17.2285,-2.8868 L 17.148,-2.8868 L 17.0675,-2.8868 L 16.987,-2.8868 L 16.9066,-2.8868 L 16.8261,-2.8868 L 16.7456,-2.8868 L 16.6651,-2.8868 L 16.5846,-2.8868 L 16.5041,-2.8868 L 16.4236,-2.8868 L 16.3431,-2.8868 L 16.2626,-2.8868 L 16.1821,-2.8868 L 16.1016,-2.8868 L 16.0211,-2.8868 L 15.9406,-2.8868 L 15.8601,-2.8868 L 15.7796,-2.8868 L 15.6991,-2.8868 L 15.6186,-2.8868 L 15.5381,-2.8868 L 15.4576,-2.8868 L 15.3771,-2.8868 L 15.2966,-2.8868 L 15.2161,-2.8868 L 15.1356,-2.8868 L 15.0551,-2.8868 L 14.9746,-2.8868 L 14.8941,-2.8868 L 14.8136,-2.8868 L 14.7331,-2.8868 L 14.6526,-2.8868 L 14.5721,-2.8868 L 14.4916,-2.8868 L 14.4112,-2.8868 L 14.3307,-2.8868 L 14.2502,-2.8868 L 14.1697,-2.8868 L 14.0892,-2.8868 L 14.0087,-2.8868 L 13.9282,-2.8868 L 13.8477,-2.8868 L 13.7672,-2.8868 L 13.6867,-2.8868 L 13.6062,-2.8868 L 13.5257,-2.8868 L 13.4452,-2.8868 L 13.3647,-2.8868 L 13.2842,-2.8868" />
      <path d="M 19.08,2.8868 L 18.9995,2.8868 L 18.919,2.8868 L 18.8385,2.8868 L 18.758,2.8868 L 18.6775,2.8868 L 18.597,2.8868 L 18.5165,2.8868 L 18.436,2.8868 L 18.3555,2.8868 L 18.275,2.8868 L 18.1945,2.8868 L 18.114,2.8868 L 18.0335,2.8868 L 17.953,2.8868 L 17.8725,2.8868 L 17.792,2.8868 L 17.7115,2.8868 L 17.631,2.8868 L 17.5505,2.8868 L 17.47,2.8868 L 17.3895,2.8868 L 17.309,2.8868 L 17.2285,2.8868 L 17.148,2.8868 L 17.0675,2.8868 L 16.987,2.8868 L 16.9066,2.8868 L 16.8261,2.8868 L 16.7456,2.8868 L 16.6651,2.8868 L 16.5846,2.8868 L 16.5041,2.8868 L 16.4236,2.8868 L 16.3431,2.8868 L 16.2626,2.8868 L 16.1821,2.8868 L 16.1016,2.8868 L 16.0211,2.8868 L 15.9406,2.8868 L 15.8601,2.8868 L 15.7796,2.8868 L 15.6991,2.8868 L 15.6186,2.8868 L 15.5381,2.8868 L 15.4576,2.8868 L 15.3771,2.8868 L 15.2966,2.8868 L 15.2161,2.8868 L 15.1356,2.8868 L 15.0551,2.8868 L 14.9746,2.8868 L 14.8941,2.8868 L 14.8136,2.8868 L 14.7331,2.8868 L 14.6526,2.8868 L 14.5721,2.8868 L 14.4916,2.8868 L 14.4112,2.8868 L 14.3307,2.8868 L 14.2502,2.8868 L 14.1697,2.8868 L 14.0892,2.8868 L 14.0087,2.8868 L 13.9282,2.8868 L 13.8477,2.8868 L 13.7672,2.8868 L 13.6867,2.8868 L 13.6062,2.8868 L 13.5257,2.8868 L 13.4452,2.8868 L 13.3647,2.8868 L 13.2842,2.8868" />
      <path d="M 19.08,-2.8868 L 19.0814,-2.9268 L 19.0828,-2.9669 L 19.0842,-3.007 L 19.0856,-3.0471 L 19.087,-3.0872 L 19.0884,-3.1273 L 19.0898,-3.1674 L 19.0912,-3.2075 L 19.0926,-3.2476 L 19.0941,-3.2877 L 19.0955,-3.3278 L 19.0969,-3.3679 L 19.0983,-3.408 L 19.0997,-3.4481 L 19.1011,-3.4882 L 19.1025,-3.5283 L 19.1039,-3.5683 L 19.1053,-3.6084 L 19.1067,-3.6485 L 19.1082,-3.6886 L 19.1096,-3.7287 L 19.111,-3.7688 L 19.1124,-3.8089 L 19.1138,-3.849 L 19.1152,-3.8891 L 19.1166,-3.9292 L 19.118,-3.9693 L 19.1194,-4.0094 L 19.1208,-4.0495 L 19.1223,-4.0896 L 19.1237,-4.1297 L 19.1251,-4.1698 L 19.1265,-4.2098 L 19.1279,-4.2499 L 19.1293,-4.29 L 19.1307,-4.3301 L 19.1321,-4.3702 L 19.1335,-4.4103 L 19.1349,-4.4504 L 19.1364,-4.4905 L 19.1378,-4.5306 L 19.1392,-4.5707 L 19.1406,-4.6108 L 19.142,-4.6509 L 19.1434,-4.691 L 19.1448,-4.7311 L 19.1462,-4.7712 L 19.1476,-4.8113 L 19.149,-4.8513 L 19.1504,-4.8914 L 19.1519,-4.9315 L 19.1533,-4.9716 L 19.1547,-5.0117 L 19.1561,-5.0518 L 19.1575,-5.0919 L 19.1589,-5.132 L 19.1603,-5.1721 L 19.1617,-5.2122 L 19.1631,-5.2523 L 19.1645,-5.2924 L 19.166,-5.3325 L 19.1674,-5.3726 L 19.1688,-5.4127 L 19.1702,-5.4528 L 19.1716,-5.4928 L 19.173,-5.5329 L 19.1744,-5.573 L 19.1758,-5.6131 L 19.1772,-5.6532 L 19.1786,-5.6933 L 19.1801,-5.7334 L 19.1815,-5.7735" />
      <path d="M 19.1815,-5.7735 L 19.0981,-5.7735 L 19.0148,-5.7735 L 18.9315,-5.7735 L 18.8482,-5.7735 L 18.7649,-5.7735 L 18.6816,-5.7735 L 18.5982,-5.7735 L 18.5149,-5.7735 L 18.4316,-5.7735 L 18.3483,-5.7735 L 18.265,-5.7735 L 18.1817,-5.7735 L 18.0984,-5.7735 L 18.015,-5.7735 L 17.9317,-5.7735 L 17.8484,-5.7735 L 17.7651,-5.7735 L 17.6818,-5.7735 L 17.5985,-5.7735 L 17.5151,-5.7735 L 17.4318,-5.7735 L 17.3485,-5.7735 L 17.2652,-5.7735 L 17.1819,-5.7735 L 17.0986,-5.7735 L 17.0152,-5.7735 L 16.9319,-5.7735 L 16.8486,-5.7735 L 16.7653,-5.7735 L 16.682,-5.7735 L 16.5987,-5.7735 L 16.5153,-5.7735 L 16.432,-5.7735 L 16.3487,-5.7735 L 16.2654,-5.7735 L 16.1821,-5.7735 L 16.0988,-5.7735 L 16.0154,-5.7735 L 15.9321,-5.7735 L 15.8488,-5.7735 L 15.7655,-5.7735 L 15.6822,-5.7735 L 15.5989,-5.7735 L 15.5155,-5.7735 L 15.4322,-5.7735 L 15.3489,-5.7735 L 15.2656,-5.7735 L 15.1823,-5.7735 L 15.099,-5.7735 L 15.0157,-5.7735 L 14.9323,-5.7735 L 14.849,-5.7735 L 14.7657,-5.7735 L 14.6824,-5.7735 L 14.5991,-5.7735 L 14.5158,-5.7735 L 14.4324,-5.7735 L 14.3491,-5.7735 L 14.2658,-5.7735 L 14.1825,-5.7735 L 14.0992,-5.7735 L 14.0159,-5.7735 L 13.9325,-5.7735 L 13.8492,-5.7735 L 13.7659,-5.7735 L 13.6826,-5.7735 L 13.5993,-5.7735 L 13.516,-5.7735 L 13.4326,-5.7735 L 13.3493,-5.7735 L 13.266,-5.7735 L 13.1827,-5.7735" />
      <path d="M 19.1815,-5.7735 L 19.1829,-5.7334 L 19.1843,-5.6933 L 19.1857,-5.6532 L 19.1871,-5.6131 L 19.1885,-5.573 L 19.1899,-5.5329 L 19.1913,-5.4928 L 19.1927,-5.4528 L 19.1941,-5.4127 L 19.1956,-5.3726 L 19.197,-5.3325 L 19.1984,-5.2924 L 19.1998,-5.2523 L 19.2012,-5.2122 L 19.2026,-5.1721 L 19.204,-5.132 L 19.2054,-5.0919 L 19.2068,-5.0518 L 19.2082,-5.0117 L 19.2097,-4.9716 L 19.2111,-4.9315 L 19.2125,-4.8914 L 19.2139,-4.8513 L 19.2153,-4.8113 L 19.2167,-4.7712 L 19.2181,-4.7311 L 19.2195,-4.691 L 19.2209,-4.6509 L 19.2223,-4.6108 L 19.2238,-4.5707 L 19.2252,-4.5306 L 19.2266,-4.4905 L 19.228,-4.4504 L 19.2294,-4.4103 L 19.2308,-4.3702 L 19.2322,-4.3301 L 19.2336,-4.29 L 19.235,-4.2499 L 19.2364,-4.2098 L 19.2378,-4.1698 L 19.2393,-4.1297 L 19.2407,-4.0896 L 19.2421,-4.0495 L 19.2435,-4.0094 L 19.2449,-3.9693 L 19.2463,-3.9292 L 19.2477,-3.8891 L 19.2491,-3.849 L 19.2505,-3.8089 L 19.2519,-3.7688 L 19.2534,-3.7287 L 19.2548,-3.6886 L 19.2562,-3.6485 L 19.2576,-3.6084 L 19.259,-3.5683 L 19.2604,-3.5283 L 19.2618,-3.4882 L 19.2632,-3.4481 L 19.2646,-3.408 L 19.266,-3.3679 L 19.2675,-3.3278 L 19.2689,-3.2877 L 19.2703,-3.2476 L 19.2717,-3.2075 L 19.2731,-3.1674 L 19.2745,-3.1273 L 19.2759,-3.0872 L 19.2773,-3.0471 L 19.2787,-3.007 L 19.2801,-2.9669 L 19.2815,-2.9268 L 19.283,-2.8868" />
      <path d="M 19.283,-2.8868 L 19.1996,-2.8868 L 19.1163,-2.8868 L 19.033,-2.8868 L 18.9497,-2.8868 L 18.8664,-2.8868 L 18.7831,-2.8868 L 18.6997,-2.8868 L 18.6164,-2.8868 L 18.5331,-2.8868 L 18.4498,-2.8868 L 18.3665,-2.8868 L 18.2832,-2.8868 L 18.1998,-2.8868 L 18.1165,-2.8868 L 18.0332,-2.8868 L 17.9499,-2.8868 L 17.8666,-2.8868 L 17.7833,-2.8868 L 17.7,-2.8868 L 17.6166,-2.8868 L 17.5333,-2.8868 L 17.45,-2.8868 L 17.3667,-2.8868 L 17.2834,-2.8868 L 17.2001,-2.8868 L 17.1167,-2.8868 L 17.0334,-2.8868 L 16.9501,-2.8868 L 16.8668,-2.8868 L 16.7835,-2.8868 L 16.7002,-2.8868 L 16.6168,-2.8868 L 16.5335,-2.8868 L 16.4502,-2.8868 L 16.3669,-2.8868 L 16.2836,-2.8868 L 16.2003,-2.8868 L 16.1169,-2.8868 L 16.0336,-2.8868 L 15.9503,-2.8868 L 15.867,-2.8868 L 15.7837,-2.8868 L 15.7004,-2.8868 L 15.617,-2.8868 L 15.5337,-2.8868 L 15.4504,-2.8868 L 15.3671,-2.8868 L 15.2838,-2.8868 L 15.2005,-2.8868 L 15.1172,-2.8868 L 15.0338,-2.8868 L 14.9505,-2.8868 L 14.8672,-2.8868 L 14.7839,-2.8868 L 14.7006,-2.8868 L 14.6173,-2.8868 L 14.5339,-2.8868 L 14.4506,-2.8868 L 14.3673,-2.8868 L 14.284,-2.8868 L 14.2007,-2.8868 L 14.1174,-2.8868 L 14.034,-2.8868 L 13.9507,-2.8868 L 13.8674,-2.8868 L 13.7841,-2.8868 L 13.7008,-2.8868 L 13.6175,-2.8868 L 13.5341,-2.8868 L 13.4508,-2.8868 L 13.3675,-2.8868 L 13.2842,-2.8868" />
      <path d="M 19.283,-2.8868 L 19.283,-2.8066 L 19.283,-2.7264 L 19.283,-2.6462 L 19.283,-2.566 L 19.283,-2.4858 L 19.283,-2.4056 L 19.283,-2.3254 L 19.283,-2.2453 L 19.283,-2.1651 L 19.283,-2.0849 L 19.283,-2.0047 L 19.283,-1.9245 L 19.283,-1.8443 L 19.283,-1.7641 L 19.283,-1.6839 L 19.283,-1.6038 L 19.283,-1.5236 L 19.283,-1.4434 L 19.283,-1.3632 L 19.283,-1.283 L 19.283,-1.2028 L 19.283,-1.1226 L 19.283,-1.0424 L 19.283,-0.9623 L 19.283,-0.8821 L 19.283,-0.8019 L 19.283,-0.7217 L 19.283,-0.6415 L 19.283,-0.5613 L 19.283,-0.4811 L 19.283,-0.4009 L 19.283,-0.3208 L 19.283,-0.2406 L 19.283,-0.1604 L 19.283,-0.0802 L 19.283,0.0 L 19.283,0.0802 L 19.283,0.1604 L 19.283,0.2406 L 19.283,0.3208 L 19.283,0.4009 L 19.283,0.4811 L 19.283,0.5613 L 19.283,0.6415 L 19.283,0.7217 L 19.283,0.8019 L 19.283,0.8821 L 19.283,0.9623 L 19.283,1.0424 L 19.283,1.1226 L 19.283,1.2028 L 19.283,1.283 L 19.283,1.3632 L 19.283,1.4434 L 19.283,1.5236 L 19.283,1.6038 L 19.283,1.6839 L 19.283,1.7641 L 19.283,1.8443 L 19.283,1.9245 L 19.283,2.0047 L 19.283,2.0849 L 19.283,2.1651 L 19.283,2.2453 L 19.283,2.3254 L 19.283,2.4056 L 19.283,2.4858 L 19.283,2.566 L 19.283,2.6462 L 19.283,2.7264 L 19.283,2.8066 L 19.283,2.8868" />
      <path d="M 19.283,2.8868 L 19.1996,2.8868 L 19.1163,2.8868 L 19.033,2.8868 L 18.9497,2.8868 L 18.8664,2.8868 L 18.7831,2.8868 L 18.6997,2.8868 L 18.6164,2.8868 L 18.5331,2.8868 L 18.4498,2.8868 L 18.3665,2.8868 L 18.2832,2.8868 L 18.1998,2.8868 L 18.1165,2.8868 L 18.0332,2.8868 L 17.9499,2.8868 L 17.8666,2.8868 L 17.7833,2.8868 L 17.7,2.8868 L 17.6166,2.8868 L 17.5333,2.8868 L 17.45,2.8868 L 17.3667,2.8868 L 17.2834,2.8868 L 17.2001,2.8868 L 17.1167,2.8868 L 17.0334,2.8868 L 16.9501,2.8868 L 16.8668,2.8868 L 16.7835,2.8868 L 16.7002,2.8868 L 16.6168,2.8868 L 16.5335,2.8868 L 16.4502,2.8868 L 16.3669,2.8868 L 16.2836,2.8868 L 16.2003,2.8868 L 16.1169,2.8868 L 16.0336,2.8868 L 15.9503,2.8868 L 15.867,2.8868 L 15.7837,2.8868 L 15.7004,2.8868 L 15.617,2.8868 L 15.5337,2.8868 L 15.4504,2.8868 L 15.3671,2.8868 L 15.2838,2.8868 L 15.2005,2.8868 L 15.1172,2.8868 L 15.0338,2.8868 L 14.9505,2.8868 L 14.8672,2.8868 L 14.7839,2.8868 L 14.7006,2.8868 L 14.6173,2.8868 L 14.5339,2.8868 L 14.4506,2.8868 L 14.3673,2.8868 L 14.284,2.8868 L 14.2007,2.8868 L 14.1174,2.8868 L 14.034,2.8868 L 13.9507,2.8868 L 13.8674,2.8868 L 13.7841,2.8868 L 13.7008,2.8868 L 13.6175,2.8868 L 13.5341,2.8868 L 13.4508,2.8868 L 13.3675,2.8868 L 13.2842,2.8868" />
      <path d="M 19.283,2.8868 L 19.2815,2.9268 L 19.2801,2.9669 L 19.2787,3.007 L 19.2773,3.0471 L 19.2759,3.0872 L 19.2745,3.1273 L 19.2731,3.1674 L 19.2717,3.2075 L 19.2703,3.2476 L 19.2689,3.2877 L 19.2675,3.3278 L 19.266,3.3679 L 19.2646,3.408 L 19.2632,3.4481 L 19.2618,3.4882 L 19.2604,3.5283 L 19.259,3.5683 L 19.2576,3.6084 L 19.2562,3.6485 L 19.2548,3.6886 L 19.2534,3.7287 L 19.2519,3.7688 L 19.2505,3.8089 L 19.2491,3.849 L 19.2477,3.8891 L 19.2463,3.9292 L 19.2449,3.9693 L 19.2435,4.0094 L 19.2421,4.0495 L 19.2407,4.0896 L 19.2393,4.1297 L 19.2378,4.1698 L 19.2364,4.2098 L 19.235,4.2499 L 19.2336,4.29 L 19.2322,4.3301 L 19.2308,4.3702 L 19.2294,4.4103 L 19.228,4.4504 L 19.2266,4.4905 L 19.2252,4.5306 L 19.2238,4.5707 L 19.2223,4.6108 L 19.2209,4.6509 L 19.2195,4.691 L 19.2181,4.7311 L 19.2167,4.7712 L 19.2153,4.8113 L 19.2139,4.8513 L 19.2125,4.8914 L 19.2111,4.9315 L 19.2097,4.9716 L 19.2082,5.0117 L 19.2068,5.0518 L 19.2054,5.0919 L 19.204,5.132 L 19.2026,5.1721 L 19.2012,5.2122 L 19.1998,5.2523 L 19.1984,5.2924 L 19.197,5.3325 L 19.1956,5.3726 L 19.1941,5.4127 L 19.1927,5.4528 L 19.1913,5.4928 L 19.1899,5.5329 L 19.1885,5.573 L 19.1871,5.6131 L 19.1857,5.6532 L 19.1843,5.6933 L 19.1829,5.7334 L 19.1815,5.7735" />
      <path d="M 19.1815,5.7735 L 19.0981,5.7735 L 19.0148,5.7735 L 18.9315,5.7735 L 18.8482,5.7735 L 18.7649,5.7735 L 18.6816,5.7735 L 18.5982,5.7735 L 18.5149,5.7735 L 18.4316,5.7735 L 18.3483,5.7735 L 18.265,5.7735 L 18.1817,5.7735 L 18.0984,5.7735 L 18.015,5.7735 L 17.9317,5.7735 L 17.8484,5.7735 L 17.7651,5.7735 L 17.6818,5.7735 L 17.5985,5.7735 L 17.5151,5.7735 L 17.4318,5.7735 L 17.3485,5.7735 L 17.2652,5.7735 L 17.1819,5.7735 L 17.0986,5.7735 L 17.0152,5.7735 L 16.9319,5.7735 L 16.8486,5.7735 L 16.7653,5.7735 L 16.682,5.7735 L 16.5987,5.7735 L 16.5153,5.7735 L 16.432,5.7735 L 16.3487,5.7735 L 16.2654,5.7735 L 16.1821,5.7735 L 16.0988,5.7735 L 16.0154,5.7735 L 15.9321,5.7735 L 15.8488,5.7735 L 15.7655,5.7735 L 15.6822,5.7735 L 15.5989,5.7735 L 15.5155,5.7735 L 15.4322,5.7735 L 15.3489,5.7735 L 15.2656,5.7735 L 15.1823,5.7735 L 15.099,5.7735 L 15.0157,5.7735 L 14.9323,5.7735 L 14.849,5.7735 L 14.7657,5.7735 L 14.6824,5.7735 L 14.5991,5.7735 L 14.5158,5.7735 L 14.4324,5.7735 L 14.3491,5.7735 L 14.2658,5.7735 L 14.1825,5.7735 L 14.0992,5.7735 L 14.0159,5.7735 L 13.9325,5.7735 L 13.8492,5.7735 L 13.7659,5.7735 L 13.6826,5.7735 L 13.5993,5.7735 L 13.516,5.7735 L 13.4326,5.7735 L 13.3493,5.7735 L 13.266,5.7735 L 13.1827,5.7735" />
      <path d="M 19.1815,5.7735 L 19.1801,5.7334 L 19.1786,5.6933 L 19.1772,5.6532 L 19.1758,5.6131 L 19.1744,5.573 L 19.173,5.5329 L 19.1716,5.4928 L 19.1702,5.4528 L 19.1688,5.4127 L 19.1674,5.3726 L 19.166,5.3325 L 19.1645,5.2924 L 19.1631,5.2523 L 19.1617,5.2122 L 19.1603,5.1721 L 19.1589,5.132 L 19.1575,5.0919 L 19.1561,5.0518 L 19.1547,5.0117 L 19.1533,4.9716 L 19.1519,4.9315 L 19.1504,4.8914 L 19.149,4.8513 L 19.1476,4.8113 L 19.1462,4.7712 L 19.1448,4.7311 L 19.1434,4.691 L 19.142,4.6509 L 19.1406,4.6108 L 19.1392,4.5707 L 19.1378,4.5306 L 19.1364,4.4905 L 19.1349,4.4504 L 19.1335,4.4103 L 19.1321,4.3702 L 19.1307,4.3301 L 19.1293,4.29 L 19.1279,4.2499 L 19.1265,4.2098 L 19.1251,4.1698 L 19.1237,4.1297 L 19.1223,4.0896 L 19.1208,4.0495 L 19.1194,4.0094 L 19.118,3.9693 L 19.1166,3.9292 L 19.1152,3.8891 L 19.1138,3.849 L 19.1124,3.8089 L 19.111,3.7688 L 19.1096,3.7287 L 19.1082,3.6886 L 19.1067,3.6485 L 19.1053,3.6084 L 19.1039,3.5683 L 19.1025,3.5283 L 19.1011,3.4882 L 19.0997,3.4481 L 19.0983,3.408 L 19.0969,3.3679 L 19.0955,3.3278 L 19.0941,3.2877 L 19.0926,3.2476 L 19.0912,3.2075 L 19.0898,3.1674 L 19.0884,3.1273 L 19.087,3.0872 L 19.0856,3.0471 L 19.0842,3.007 L 19.0828,2.9669 L 19.0814,2.9268 L 19.08,2.8868" />
      <path d="M 84.1681,6.0 L 84.1399,5.8377 L 84.1283,5.6713 L 84.1196,5.5047 L 84.1125,5.338 L 84.1063,5.1713 L 84.1009,5.0046 L 84.096,4.8378 L 84.0916,4.6711 L 84.0876,4.5043 L 84.0839,4.3375 L 84.0805,4.1708 L 84.0774,4.004 L 84.0744,3.8372 L 84.0717,3.6704 L 84.0692,3.5036 L 84.0668,3.3368 L 84.0647,3.17 L 84.0626,3.0032 L 84.0607,2.8364 L 84.059,2.6696 L 84.0574,2.5028 L 84.0559,2.3359 L 84.0545,2.1691 L 84.0533,2.0023 L 84.0521,1.8355 L 84.0511,1.6687 L 84.0501,1.5019 L 84.0493,1.335 L 84.0486,1.1682 L 84.048,1.0014 L 84.0475,0.8346 L 84.047,0.6678 L 84.0467,0.5009 L 84.0465,0.3341 L 84.0463,0.1673 L 84.0463,0.0005 L 84.0463,-0.1663 L 84.0465,-0.3332 L 84.0467,-0.5 L 84.047,-0.6668 L 84.0475,-0.8336 L 84.048,-1.0004 L 84.0486,-1.1673 L 84.0493,-1.3341 L 84.0501,-1.5009 L 84.0511,-1.6677 L 84.0521,-1.8345 L 84.0532,-2.0014 L 84.0545,-2.1682 L 84.0559,-2.335 L 84.0574,-2.5018 L 84.059,-2.6686 L 84.0607,-2.8354 L 84.0626,-3.0023 L 84.0646,-3.1691 L 84.0668,-3.3359 L 84.0692,-3.5027 L 84.0717,-3.6695 L 84.0744,-3.8363 L 84.0773,-4.0031 L 84.0805,-4.1699 L 84.0839,-4.3367 L 84.0876,-4.5035 L 84.0916,-4.6702 L 84.096,-4.837 L 84.1009,-5.0038 L 84.1063,-5.1705 L 84.1124,-5.3372 L 84.1196,-5.5039 L 84.1283,-5.6705 L 84.1399,-5.8369 L 84.1681,-6.0" />
      <path d="M 25.1802,6.0 L 25.1821,6.0 L 25.184,6.0 L 25.1859,6.0 L 25.1878,6.0 L 25.1897,6.0 L 25.1916,6.0 L 25.1935,6.0 L 25.1954,6.0 L 25.1972,6.0 L 25.1991,6.0 L 25.201,6.0 L 25.2029,6.0 L 25.2048,6.0 L 25.2067,6.0 L 25.2086,6.0 L 25.2105,6.0 L 25.2124,6.0 L 25.2143,6.0 L 25.2162,6.0 L 25.2181,6.0 L 25.2199,6.0 L 25.2218,6.0 L 25.2237,6.0 L 25.2256,6.0 L 25.2275,6.0 L 25.2294,6.0 L 25.2313,6.0 L 25.2332,6.0 L 25.2351,6.0 L 25.237,6.0 L 25.2389,6.0 L 25.2407,6.0 L 25.2426,6.0 L 25.2445,6.0 L 25.2464,6.0 L 25.2483,6.0 L 25.2502,6.0 L 25.2521,6.0 L 25.254,6.0 L 25.2559,6.0 L 25.2578,6.0 L 25.2597,6.0 L 25.2616,6.0 L 25.2634,6.0 L 25.2653,6.0 L 25.2672,6.0 L 25.2691,6.0 L 25.271,6.0 L 25.2729,6.0 L 25.2748,6.0 L 25.2767,6.0 L 25.2786,6.0 L 25.2805,6.0 L 25.2824,6.0 L 25.2842,6.0 L 25.2861,6.0 L 25.288,6.0 L 25.2899,6.0 L 25.2918,6.0 L 25.2937,6.0 L 25.2956,6.0 L 25.2975,6.0 L 25.2994,6.0 L 25.3013,6.0 L 25.3032,6.0 L 25.3051,6.0 L 25.3069,6.0 L 25.3088,6.0 L 25.3107,6.0 L 25.3126,6.0 L 25.3145,6.0 L 25.3164,6.0" />
      <path d="M 85.1679,5.0 L 85.1444,4.8647 L 85.1347,4.726 L 85.1275,4.5872 L 85.1215,4.4483 L 85.1164,4.3094 L 85.1119,4.1704 L 85.1078,4.0314 L 85.1042,3.8925 L 85.1008,3.7535 L 85.0977,3.6145 L 85.0949,3.4755 L 85.0923,3.3365 L 85.0898,3.1975 L 85.0876,3.0585 L 85.0855,2.9195 L 85.0835,2.7804 L 85.0817,2.6414 L 85.08,2.5024 L 85.0784,2.3634 L 85.077,2.2244 L 85.0756,2.0853 L 85.0744,1.9463 L 85.0732,1.8073 L 85.0722,1.6683 L 85.0712,1.5292 L 85.0704,1.3902 L 85.0696,1.2512 L 85.0689,1.1122 L 85.0683,0.9731 L 85.0678,0.8341 L 85.0673,0.6951 L 85.067,0.556 L 85.0667,0.417 L 85.0665,0.278 L 85.0664,0.1389 L 85.0664,-0.0001 L 85.0664,-0.1391 L 85.0665,-0.2781 L 85.0667,-0.4172 L 85.067,-0.5562 L 85.0673,-0.6952 L 85.0678,-0.8343 L 85.0683,-0.9733 L 85.0689,-1.1123 L 85.0696,-1.2514 L 85.0704,-1.3904 L 85.0712,-1.5294 L 85.0722,-1.6685 L 85.0732,-1.8075 L 85.0744,-1.9465 L 85.0756,-2.0855 L 85.077,-2.2246 L 85.0784,-2.3636 L 85.08,-2.5026 L 85.0817,-2.6416 L 85.0835,-2.7807 L 85.0855,-2.9197 L 85.0876,-3.0587 L 85.0898,-3.1977 L 85.0923,-3.3367 L 85.0949,-3.4757 L 85.0977,-3.6147 L 85.1008,-3.7537 L 85.1042,-3.8927 L 85.1078,-4.0317 L 85.1119,-4.1707 L 85.1164,-4.3097 L 85.1215,-4.4486 L 85.1275,-4.5875 L 85.1347,-4.7264 L 85.1444,-4.8651 L 85.1699,-4.999" />
      <path d="M 85.1699,4.999 L 85.1698,4.9991 L 85.1697,4.9992 L 85.1696,4.9992 L 85.1696,4.9993 L 85.1695,4.9993 L 85.1695,4.9994 L 85.1694,4.9994 L 85.1693,4.9995 L 85.1692,4.9995 L 85.1692,4.9996 L 85.1691,4.9996 L 85.169,4.9997 L 85.1689,4.9997 L 85.1689,4.9998 L 85.1688,4.9998 L 85.1687,4.9998 L 85.1686,4.9999 L 85.1685,4.9999 L 85.1684,4.9999 L 85.1683,4.9999 L 85.1683,5.0 L 85.1682,5.0 L 85.1681,5.0 L 85.168,5.0 L 85.1679,5.0" />
      <path d="M 25.1802,-6.0 L 25.1821,-6.0 L 25.184,-6.0 L 25.1859,-6.0 L 25.1878,-6.0 L 25.1897,-6.0 L 25.1916,-6.0 L 25.1935,-6.0 L 25.1954,-6.0 L 25.1972,-6.0 L 25.1991,-6.0 L 25.201,-6.0 L 25.2029,-6.0 L 25.2048,-6.0 L 25.2067,-6.0 L 25.2086,-6.0 L 25.2105,-6.0 L 25.2124,-6.0 L 25.2143,-6.0 L 25.2162,-6.0 L 25.2181,-6.0 L 25.2199,-6.0 L 25.2218,-6.0 L 25.2237,-6.0 L 25.2256,-6.0 L 25.2275,-6.0 L 25.2294,-6.0 L 25.2313,-6.0 L 25.2332,-6.0 L 25.2351,-6.0 L 25.237,-6.0 L 25.2389,-6.0 L 25.2407,-6.0 L 25.2426,-6.0 L 25.2445,-6.0 L 25.2464,-6.0 L 25.2483,-6.0 L 25.2502,-6.0 L 25.2521,-6.0 L 25.254,-6.0 L 25.2559,-6.0 L 25.2578,-6.0 L 25.2597,-6.0 L 25.2616,-6.0 L 25.2634,-6.0 L 25.2653,-6.0 L 25.2672,-6.0 L 25.2691,-6.0 L 25.271,-6.0 L 25.2729,-6.0 L 25.2748,-6.0 L 25.2767,-6.0 L 25.2786,-6.0 L 25.2805,-6.0 L 25.2824,-6.0 L 25.2842,-6.0 L 25.2861,-6.0 L 25.288,-6.0 L 25.2899,-6.0 L 25.2918,-6.0 L 25.2937,-6.0 L 25.2956,-6.0 L 25.2975,-6.0 L 25.2994,-6.0 L 25.3013,-6.0 L 25.3032,-6.0 L 25.3051,-6.0 L 25.3069,-6.0 L 25.3088,-6.0 L 25.3107,-6.0 L 25.3126,-6.0 L 25.3145,-6.0 L 25.3164,-6.0" />
    </g>
    <g fill="none" stroke="rgb(0,0,0)" stroke-width="0.2" id="Center" stroke-dasharray="6.35 1.27 1.27 1.27">
      <line x1="0.0" y1="0.0" x2="-14.78" y2="0.0" />
      <line x1="0.0" y1="0.0" x2="14.78" y2="0.0" />
      <line x1="0.0" y1="0.0" x2="0.0" y2="-14.78" />
      <line x1="0.0" y1="0.0" x2="0.0" y2="14.78" />
      <line x1="49.1347" y1="0.0" x2="7.22" y2="0.0" />
      <line x1="49.1347" y1="0.0" x2="91.0494" y2="0.0" />
    </g>
  </g>
</svg>