<?xml version='1.0' encoding='utf-8'?>
<svg width="38.74mm" height="32.24mm" viewBox="-16.12 -16.12 38.74 32.24" version="1.1" xmlns="http://www.w3.org/2000/svg">
  <g transform="scale(1,-1)" stroke-linecap="round">
    <g fill="none" stroke="rgb(0,0,0)" stroke-width="0.4" id="Visible">
      <path d="M 12.0,0.0 L 11.9543,1.0459 L 11.8177,2.0838 L 11.5911,3.1058 L 11.2763,4.1042 L 10.8757,5.0714 L 10.3923,6.0 L 9.8298,6.8829 L 9.1925,7.7135 L 8.4853,8.4853 L 7.7135,9.1925 L 6.8829,9.8298 L 6.0,10.3923 L 5.0714,10.8757 L 4.1042,11.2763 L 3.1058,11.5911 L 2.0838,11.8177 L 1.0459,11.9543 L 0.0,12.0 L -1.0459,11.9543 L -2.0838,11.8177 L -3.1058,11.5911 L -4.1042,11.2763 L -5.0714,10.8757 L -6.0,10.3923 L -6.8829,9.8298 L -7.7135,9.1925 L -8.4853,8.4853 L -9.1925,7.7135 L -9.8298,6.8829 L -10.3923,6.0 L -10.8757,5.0714 L -11.2763,4.1042 L -11.5911,3.1058 L -11.8177,2.0838 L -11.9543,1.0459 L -12.0,0.0 L -11.9543,-1.0459 L -11.8177,-2.0838 L -11.5911,-3.1058 L -11.2763,-4.1042 L -10.8757,-5.0714 L -10.3923,-6.0 L -9.8298,-6.8829 L -9.1925,-7.7135 L -8.4853,-8.4853 L -7.7135,-9.1925 L -6.8829,-9.8298 L -6.0,-10.3923 L -5.0714,-10.8757 L -4.1042,-11.2763 L -3.1058,-11.5911 L -2.0838,-11.8177 L -1.0459,-11.9543 L -0.0,-12.0 L 1.0459,-11.9543 L 2.0838,-11.8177 L 3.1058,-11.5911 L 4.1042,-11.2763 L 5.0714,-10.8757 L 6.0,-10.3923 L 6.8829,-9.8298 L 7.7135,-9.1925 L 8.4853,-8.4853 L 9.1925,-7.7135 L 9.8298,-6.8829 L 10.3923,-6.0 L 10.8757,-5.0714 L 11.2763,-4.1042 L 11.5911,-3.1058 L 11.8177,-2.0838 L 11.9543,-1.0459 L 12.0,-0.0" />
      <path d="M 6.75,0.0 L 6.7243,0.5883 L 6.6475,1.1721 L 6.52,1.747 L 6.3429,2.3086 L 6.1176,2.8527 L 5.8457,3.375 L 5.5293,3.8716 L 5.1708,4.3388 L 4.773,4.773 L 4.3388,5.1708 L 3.8716,5.5293 L 3.375,5.8457 L 2.8527,6.1176 L 2.3086,6.3429 L 1.747,6.52 L 1.1721,6.6475 L 0.5883,6.7243 L 0.0,6.75 L -0.5883,6.7243 L -1.1721,6.6475 L -1.747,6.52 L -2.3086,6.3429 L -2.8527,6.1176 L -3.375,5.8457 L -3.8716,5.5293 L -4.3388,5.1708 L -4.773,4.773 L -5.1708,4.3388 L -5.5293,3.8716 L -5.8457,3.375 L -6.1176,2.8527 L -6.3429,2.3086 L -6.52,1.747 L -6.6475,1.1721 L -6.7243,0.5883 L -6.75,-0.0 L -6.7243,-0.5883 L -6.6475,-1.1721 L -6.52,-1.747 L -6.3429,-2.3086 L -6.1176,-2.8527 L -5.8457,-3.375 L -5.5293,-3.8716 L -5.1708,-4.3388 L -4.773,-4.773 L -4.3388,-5.1708 L -3.8716,-5.5293 L -3.375,-5.8457 L -2.8527,-6.1176 L -2.3086,-6.3429 L -1.747,-6.52 L -1.1721,-6.6475 L -0.5883,-6.7243 L -0.0,-6.75 L 0.5883,-6.7243 L 1.1721,-6.6475 L 1.747,-6.52 L 2.3086,-6.3429 L 2.8527,-6.1176 L 3.375,-5.8457 L 3.8716,-5.5293 L 4.3388,-5.1708 L 4.773,-4.773 L 5.1708,-4.3388 L 5.5293,-3.8716 L 5.8457,-3.375 L 6.1176,-2.8527 L 6.3429,-2.3086 L 6.52,-1.747 L 6.6475,-1.1721 L 6.7243,-0.5883 L 6.75,0.0" />
      <path d="M 16.0,-12.0 L 16.0,-11.6667 L 16.0,-11.3333 L 16.0,-11.0 L 16.0,-10.6667 L 16.0,-10.3333 L 16.0,-10.0 L 16.0,-9.6667 L 16.0,-9.3333 L 16.0,-9.0 L 16.0,-8.6667 L 16.0,-8.3333 L 16.0,-8.0 L 16.0,-7.6667 L 16.0,-7.3333 L 16.0,-7.0 L 16.0,-6.6667 L 16.0,-6.3333 L 16.0,-6.0 L 16.0,-5.6667 L 16.0,-5.3333 L 16.0,-5.0 L 16.0,-4.6667 L 16.0,-4.3333 L 16.0,-4.0 L 16.0,-3.6667 L 16.0,-3.3333 L 16.0,-3.0 L 16.0,-2.6667 L 16.0,-2.3333 L 16.0,-2.0 L 16.0,-1.6667 L 16.0,-1.3333 L 16.0,-1.0 L 16.0,-0.6667 L 16.0,-0.3333 L 16.0,0.0 L 16.0,0.3333 L 16.0,0.6667 L 16.0,1.0 L 16.0,1.3333 L 16.0,1.6667 L 16.0,2.0 L 16.0,2.3333 L 16.0,2.6667 L 16.0,3.0 L 16.0,3.3333 L 16.0,3.6667 L 16.0,4.0 L 16.0,4.3333 L 16.0,4.6667 L 16.0,5.0 L 16.0,5.3333 L 16.0,5.6667 L 16.0,6.0 L 16.0,6.3333 L 16.0,6.6667 L 16.0,7.0 L 16.0,7.3333 L 16.0,7.6667 L 16.0,8.0 L 16.0,8.3333 L 16.0,8.6667 L 16.0,9.0 L 16.0,9.3333 L 16.0,9.6667 L 16.0,10.0 L 16.0,10.3333 L 16.0,10.6667 L 16.0,11.0 L 16.0,11.3333 L 16.0,11.6667 L 16.0,12.0" />
      <path d="M 18.5,12.0 L 18.4653,12.0 L 18.4306,12.0 L 18.3958,12.0 L 18.3611,12.0 L 18.3264,12.0 L 18.2917,12.0 L 18.2569,12.0 L 18.2222,12.0 L 18.1875,12.0 L 18.1528,12.0 L 18.1181,12.0 L 18.0833,12.0 L 18.0486,12.0 L 18.0139,12.0 L 17.9792,12.0 L 17.9444,12.0 L 17.9097,12.0 L 17.875,12.0 L 17.8403,12.0 L 17.8056,12.0 L 17.7708,12.0 L 17.7361,12.0 L 17.7014,12.0 L 17.6667,12.0 L 17.6319,12.0 L 17.5972,12.0 L 17.5625,12.0 L 17.5278,12.0 L 17.4931,12.0 L 17.4583,12.0 L 17.4236,12.0 L 17.3889,12.0 L 17.3542,12.0 L 17.3194,12.0 L 17.2847,12.0 L 17.25,12.0 L 17.2153,12.0 L 17.1806,12.0 L 17.1458,12.0 L 17.1111,12.0 L 17.0764,12.0 L 17.0417,12.0 L 17.0069,12.0 L 16.9722,12.0 L 16.9375,12.0 L 16.9028,12.0 L 16.8681,12.0 L 16.8333,12.0 L 16.7986,12.0 L 16.7639,12.0 L 16.7292,12.0 L 16.6944,12.0 L 16.6597,12.0 L 16.625,12.0 L 16.5903,12.0 L 16.5556,12.0 L 16.5208,12.0 L 16.4861,12.0 L 16.4514,12.0 L 16.4167,12.0 L 16.3819,12.0 L 16.3472,12.0 L 16.3125,12.0 L 16.2778,12.0 L 16.2431,12.0 L 16.2083,12.0 L 16.1736,12.0 L 16.1389,12.0 L 16.1042,12.0 L 16.0694,12.0 L 16.0347,12.0 L 16.0,12.0" />
      <path d="M 18.5,-12.0 L 18.5,-11.6667 L 18.5,-11.3333 L 18.5,-11.0 L 18.5,-10.6667 L 18.5,-10.3333 L 18.5,-10.0 L 18.5,-9.6667 L 18.5,-9.3333 L 18.5,-9.0 L 18.5,-8.6667 L 18.5,-8.3333 L 18.5,-8.0 L 18.5,-7.6667 L 18.5,-7.3333 L 18.5,-7.0 L 18.5,-6.6667 L 18.5,-6.3333 L 18.5,-6.0 L 18.5,-5.6667 L 18.5,-5.3333 L 18.5,-5.0 L 18.5,-4.6667 L 18.5,-4.3333 L 18.5,-4.0 L 18.5,-3.6667 L 18.5,-3.3333 L 18.5,-3.0 L 18.5,-2.6667 L 18.5,-2.3333 L 18.5,-2.0 L 18.5,-1.6667 L 18.5,-1.3333 L 18.5,-1.0 L 18.5,-0.6667 L 18.5,-0.3333 L 18.5,0.0 L 18.5,0.3333 L 18.5,0.6667 L 18.5,1.0 L 18.5,1.3333 L 18.5,1.6667 L 18.5,2.0 L 18.5,2.3333 L 18.5,2.6667 L 18.5,3.0 L 18.5,3.3333 L 18.5,3.6667 L 18.5,4.0 L 18.5,4.3333 L 18.5,4.6667 L 18.5,5.0 L 18.5,5.3333 L 18.5,5.6667 L 18.5,6.0 L 18.5,6.3333 L 18.5,6.6667 L 18.5,7.0 L 18.5,7.3333 L 18.5,7.6667 L 18.5,8.0 L 18.5,8.3333 L 18.5,8.6667 L 18.5,9.0 L 18.5,9.3333 L 18.5,9.6667 L 18.5,10.0 L 18.5,10.3333 L 18.5,10.6667 L 18.5,11.0 L 18.5,11.3333 L 18.5,11.6667 L 18.5,12.0" />
      <path d="M 18.5,-12.0 L 18.4653,-12.0 L 18.4306,-12.0 L 18.3958,-12.0 L 18.3611,-12.0 L 18.3264,-12.0 L 18.2917,-12.0 L 18.2569,-12.0 L 18.2222,-12.0 L 18.1875,-12.0 L 18.1528,-12.0 L 18.1181,-12.0 L 18.0833,-12.0 L 18.0486,-12.0 L 18.0139,-12.0 L 17.9792,-12.0 L 17.9444,-12.0 L 17.9097,-12.0 L 17.875,-12.0 L 17.8403,-12.0 L 17.8056,-12.0 L 17.7708,-12.0 L 17.7361,-12.0 L 17.7014,-12.0 L 17.6667,-12.0 L 17.6319,-12.0 L 17.5972,-12.0 L 17.5625,-12.0 L 17.5278,-12.0 L 17.4931,-12.0 L 17.4583,-12.0 L 17.4236,-12.0 L 17.3889,-12.0 L 17.3542,-12.0 L 17.3194,-12.0 L 17.2847,-12.0 L 17.25,-12.0 L 17.2153,-12.0 L 17.1806,-12.0 L 17.1458,-12.0 L 17.1111,-12.0 L 17.0764,-12.0 L 17.0417,-12.0 L 17.0069,-12.0 L 16.9722,-12.0 L 16.9375,-12.0 L 16.9028,-12.0 L 16.8681,-12.0 L 16.8333,-12.0 L 16.7986,-12.0 L 16.7639,-12.0 L 16.7292,-12.0 L 16.6944,-12.0 L 16.6597,-12.0 L 16.625,-12.0 L 16.5903,-12.0 L 16.5556,-12.0 L 16.5208,-12.0 L 16.4861,-12.0 L 16.4514,-12.0 L 16.4167,-12.0 L 16.3819,-12.0 L 16.3472,-12.0 L 16.3125,-12.0 L 16.2778,-12.0 L 16.2431,-12.0 L 16.2083,-12.0 L 16.1736,-12.0 L 16.1389,-12.0 L 16.1042,-12.0 L 16.0694,-12.0 L 16.0347,-12.0 L 16.0,-12.0" />
    </g>
    <g fill="none" stroke="rgb(110,110,110)" stroke-width="0.3" id="Hidden" stroke-dasharray="3.6 0.9">
      <path d="M 12.0,0.0 L 11.9543,1.0459 L 11.8177,2.0838 L 11.5911,3.1058 L 11.2763,4.1042 L 10.8757,5.0714 L 10.3923,6.0 L 9.8298,6.8829 L 9.1925,7.7135 L 8.4853,8.4853 L 7.7135,9.1925 L 6.8829,9.8298 L 6.0,10.3923 L 5.0714,10.8757 L 4.1042,11.2763 L 3.1058,11.5911 L 2.0838,11.8177 L 1.0459,11.9543 L 0.0,12.0 L -1.0459,11.9543 L -2.0838,11.8177 L -3.1058,11.5911 L -4.1042,11.2763 L -5.0714,10.8757 L -6.0,10.3923 L -6.8829,9.8298 L -7.7135,9.1925 L -8.4853,8.4853 L -9.1925,7.7135 L -9.8298,6.8829 L -10.3923,6.0 L -10.8757,5.0714 L -11.2763,4.1042 L -11.5911,3.1058 L -11.8177,2.0838 L -11.9543,1.0459 L -12.0,0.0 L -11.9543,-1.0459 L -11.8177,-2.0838 L -11.5911,-3.1058 L -11.2763,-4.1042 L -10.8757,-5.0714 L -10.3923,-6.0 L -9.8298,-6.8829 L -9.1925,-7.7135 L -8.4853,-8.4853 L -7.7135,-9.1925 L -6.8829,-9.8298 L -6.0,-10.3923 L -5.0714,-10.8757 L -4.1042,-11.2763 L -3.1058,-11.5911 L -2.0838,-11.8177 L -1.0459,-11.9543 L -0.0,-12.0 L 1.0459,-11.9543 L 2.0838,-11.8177 L 3.1058,-11.5911 L 4.1042,-11.2763 L 5.0714,-10.8757 L 6.0,-10.3923 L 6.8829,-9.8298 L 7.7135,-9.1925 L 8.4853,-8.4853 L 9.1925,-7.7135 L 9.8298,-6.8829 L 10.3923,-6.0 L 10.8757,-5.0714 L 11.2763,-4.1042 L 11.5911,-3.1058 L 11.8177,-2.0838 L 11.9543,-1.0459 L 12.0,-0.0" />
      <path d="M 6.75,0.0 L 6.7243,0.5883 L 6.6475,1.1721 L 6.52,1.747 L 6.3429,2.3086 L 6.1176,2.8527 L 5.8457,3.375 L 5.5293,3.8716 L 5.1708,4.3388 L 4.773,4.773 L 4.3388,5.1708 L 3.8716,5.5293 L 3.375,5.8457 L 2.8527,6.1176 L 2.3086,6.3429 L 1.747,6.52 L 1.1721,6.6475 L 0.5883,6.7243 L 0.0,6.75 L -0.5883,6.7243 L -1.1721,6.6475 L -1.747,6.52 L -2.3086,6.3429 L -2.8527,6.1176 L -3.375,5.8457 L -3.8716,5.5293 L -4.3388,5.1708 L -4.773,4.773 L -5.1708,4.3388 L -5.5293,3.8716 L -5.8457,3.375 L -6.1176,2.8527 L -6.3429,2.3086 L -6.52,1.747 L -6.6475,1.1721 L -6.7243,0.5883 L -6.75,-0.0 L -6.7243,-0.5883 L -6.6475,-1.1721 L -6.52,-1.747 L -6.3429,-2.3086 L -6.1176,-2.8527 L -5.8457,-3.375 L -5.5293,-3.8716 L -5.1708,-4.3388 L -4.773,-4.773 L -4.3388,-5.1708 L -3.8716,-5.5293 L -3.375,-5.8457 L -2.8527,-6.1176 L -2.3086,-6.3429 L -1.747,-6.52 L -1.1721,-6.6475 L -0.5883,-6.7243 L -0.0,-6.75 L 0.5883,-6.7243 L 1.1721,-6.6475 L 1.747,-6.52 L 2.3086,-6.3429 L 2.8527,-6.1176 L 3.375,-5.8457 L 3.8716,-5.5293 L 4.3388,-5.1708 L 4.773,-4.773 L 5.1708,-4.3388 L 5.5293,-3.8716 L 5.8457,-3.375 L 6.1176,-2.8527 L 6.3429,-2.3086 L 6.52,-1.747 L 6.6475,-1.1721 L 6.7243,-0.5883 L 6.75,0.0" />
      <path d="M 16.0,12.0 L 16.0,11.6667 L 16.0,11.3333 L 16.0,11.0 L 16.0,10.6667 L 16.0,10.3333 L 16.0,10.0 L 16.0,9.6667 L 16.0,9.3333 L 16.0,9.0 L 16.0,8.6667 L 16.0,8.3333 L 16.0,8.0 L 16.0,7.6667 L 16.0,7.3333 L 16.0,7.0 L 16.0,6.6667 L 16.0,6.3333 L 16.0,6.0 L 16.0,5.6667 L 16.0,5.3333 L 16.0,5.0 L 16.0,4.6667 L 16.0,4.3333 L 16.0,4.0 L 16.0,3.6667 L 16.0,3.3333 L 16.0,3.0 L 16.0,2.6667 L 16.0,2.3333 L 16.0,2.0 L 16.0,1.6667 L 16.0,1.3333 L 16.0,1.0 L 16.0,0.6667 L 16.0,0.3333 L 16.0,0.0 L 16.0,-0.3333 L 16.0,-0.6667 L 16.0,-1.0 L 16.0,-1.3333 L 16.0,-1.6667 L 16.0,-2.0 L 16.0,-2.3333 L 16.0,-2.6667 L 16.0,-3.0 L 16.0,-3.3333 L 16.0,-3.6667 L 16.0,-4.0 L 16.0,-4.3333 L 16.0,-4.6667 L 16.0,-5.0 L 16.0,-5.3333 L 16.0,-5.6667 L 16.0,-6.0 L 16.0,-6.3333 L 16.0,-6.6667 L 16.0,-7.0 L 16.0,-7.3333 L 16.0,-7.6667 L 16.0,-8.0 L 16.0,-8.3333 L 16.0,-8.6667 L 16.0,-9.0 L 16.0,-9.3333 L 16.0,-9.6667 L 16.0,-10.0 L 16.0,-10.3333 L 16.0,-10.6667 L 16.0,-11.0 L 16.0,-11.3333 L 16.0,-11.6667 L 16.0,-12.0" />
      <path d="M 18.5,12.0 L 18.5,11.6667 L 18.5,11.3333 L 18.5,11.0 L 18.5,10.6667 L 18.5,10.3333 L 18.5,10.0 L 18.5,9.6667 L 18.5,9.3333 L 18.5,9.0 L 18.5,8.6667 L 18.5,8.3333 L 18.5,8.0 L 18.5,7.6667 L 18.5,7.3333 L 18.5,7.0 L 18.5,6.6667 L 18.5,6.3333 L 18.5,6.0 L 18.5,5.6667 L 18.5,5.3333 L 18.5,5.0 L 18.5,4.6667 L 18.5,4.3333 L 18.5,4.0 L 18.5,3.6667 L 18.5,3.3333 L 18.5,3.0 L 18.5,2.6667 L 18.5,2.3333 L 18.5,2.0 L 18.5,1.6667 L 18.5,1.3333 L 18.5,1.0 L 18.5,0.6667 L 18.5,0.3333 L 18.5,0.0 L 18.5,-0.3333 L 18.5,-0.6667 L 18.5,-1.0 L 18.5,-1.3333 L 18.5,-1.6667 L 18.5,-2.0 L 18.5,-2.3333 L 18.5,-2.6667 L 18.5,-3.0 L 18.5,-3.3333 L 18.5,-3.6667 L 18.5,-4.0 L 18.5,-4.3333 L 18.5,-4.6667 L 18.5,-5.0 L 18.5,-5.3333 L 18.5,-5.6667 L 18.5,-6.0 L 18.5,-6.3333 L 18.5,-6.6667 L 18.5,-7.0 L 18.5,-7.3333 L 18.5,-7.6667 L 18.5,-8.0 L 18.5,-8.3333 L 18.5,-8.6667 L 18.5,-9.0 L 18.5,-9.3333 L 18.5,-9.6667 L 18.5,-10.0 L 18.5,-10.3333 L 18.5,-10.6667 L 18.5,-11.0 L 18.5,-11.3333 L 18.5,-11.6667 L 18.5,-12.0" />
      <path d="M 16.0,6.75 L 16.0,6.5625 L 16.0,6.375 L 16.0,6.1875 L 16.0,6.0 L 16.0,5.8125 L 16.0,5.625 L 16.0,5.4375 L 16.0,5.25 L 16.0,5.0625 L 16.0,4.875 L 16.0,4.6875 L 16.0,4.5 L 16.0,4.3125 L 16.0,4.125 L 16.0,3.9375 L 16.0,3.75 L 16.0,3.5625 L 16.0,3.375 L 16.0,3.1875 L 16.0,3.0 L 16.0,2.8125 L 16.0,2.625 L 16.0,2.4375 L 16.0,2.25 L 16.0,2.0625 L 16.0,1.875 L 16.0,1.6875 L 16.0,1.5 L 16.0,1.3125 L 16.0,1.125 L 16.0,0.9375 L 16.0,0.75 L 16.0,0.5625 L 16.0,0.375 L 16.0,0.1875 L 16.0,0.0 L 16.0,-0.1875 L 16.0,-0.375 L 16.0,-0.5625 L 16.0,-0.75 L 16.0,-0.9375 L 16.0,-1.125 L 16.0,-1.3125 L 16.0,-1.5 L 16.0,-1.6875 L 16.0,-1.875 L 16.0,-2.0625 L 16.0,-2.25 L 16.0,-2.4375 L 16.0,-2.625 L 16.0,-2.8125 L 16.0,-3.0 L 16.0,-3.1875 L 16.0,-3.375 L 16.0,-3.5625 L 16.0,-3.75 L 16.0,-3.9375 L 16.0,-4.125 L 16.0,-4.3125 L 16.0,-4.5 L 16.0,-4.6875 L 16.0,-4.875 L 16.0,-5.0625 L 16.0,-5.25 L 16.0,-5.4375 L 16.0,-5.625 L 16.0,-5.8125 L 16.0,-6.0 L 16.0,-6.1875 L 16.0,-6.375 L 16.0,-6.5625 L 16.0,-6.75" />
      <path d="M 16.0,-6.75 L 16.0,-6.5625 L 16.0,-6.375 L 16.0,-6.1875 L 16.0,-6.0 L 16.0,-5.8125 L 16.0,-5.625 L 16.0,-5.4375 L 16.0,-5.25 L 16.0,-5.0625 L 16.0,-4.875 L 16.0,-4.6875 L 16.0,-4.5 L 16.0,-4.3125 L 16.0,-4.125 L 16.0,-3.9375 L 16.0,-3.75 L 16.0,-3.5625 L 16.0,-3.375 L 16.0,-3.1875 L 16.0,-3.0 L 16.0,-2.8125 L 16.0,-2.625 L 16.0,-2.4375 L 16.0,-2.25 L 16.0,-2.0625 L 16.0,-1.875 L 16.0,-1.6875 L 16.0,-1.5 L 16.0,-1.3125 L 16.0,-1.125 L 16.0,-0.9375 L 16.0,-0.75 L 16.0,-0.5625 L 16.0,-0.375 L 16.0,-0.1875 L 16.0,0.0 L 16.0,0.1875 L 16.0,0.375 L 16.0,0.5625 L 16.0,0.75 L 16.0,0.9375 L 16.0,1.125 L 16.0,1.3125 L 16.0,1.5 L 16.0,1.6875 L 16.0,1.875 L 16.0,2.0625 L 16.0,2.25 L 16.0,2.4375 L 16.0,2.625 L 16.0,2.8125 L 16.0,3.0 L 16.0,3.1875 L 16.0,3.375 L 16.0,3.5625 L 16.0,3.75 L 16.0,3.9375 L 16.0,4.125 L 16.0,4.3125 L 16.0,4.5 L 16.0,4.6875 L 16.0,4.875 L 16.0,5.0625 L 16.0,5.25 L 16.0,5.4375 L 16.0,5.625 L 16.0,5.8125 L 16.0,6.0 L 16.0,6.1875 L 16.0,6.375 L 16.0,6.5625 L 16.0,6.75" />
      <path d="M 18.5,6.75 L 18.5,6.5625 L 18.5,6.375 L 18.5,6.1875 L 18.5,6.0 L 18.5,5.8125 L 18.5,5.625 L 18.5,5.4375 L 18.5,5.25 L 18.5,5.0625 L 18.5,4.875 L 18.5,4.6875 L 18.5,4.5 L 18.5,4.3125 L 18.5,4.125 L 18.5,3.9375 L 18.5,3.75 L 18.5,3.5625 L 18.5,3.375 L 18.5,3.1875 L 18.5,3.0 L 18.5,2.8125 L 18.5,2.625 L 18.5,2.4375 L 18.5,2.25 L 18.5,2.0625 L 18.5,1.875 L 18.5,1.6875 L 18.5,1.5 L 18.5,1.3125 L 18.5,1.125 L 18.5,0.9375 L 18.5,0.75 L 18.5,0.5625 L 18.5,0.375 L 18.5,0.1875 L 18.5,0.0 L 18.5,-0.1875 L 18.5,-0.375 L 18.5,-0.5625 L 18.5,-0.75 L 18.5,-0.9375 L 18.5,-1.125 L 18.5,-1.3125 L 18.5,-1.5 L 18.5,-1.6875 L 18.5,-1.875 L 18.5,-2.0625 L 18.5,-2.25 L 18.5,-2.4375 L 18.5,-2.625 L 18.5,-2.8125 L 18.5,-3.0 L 18.5,-3.1875 L 18.5,-3.375 L 18.5,-3.5625 L 18.5,-3.75 L 18.5,-3.9375 L 18.5,-4.125 L 18.5,-4.3125 L 18.5,-4.5 L 18.5,-4.6875 L 18.5,-4.875 L 18.5,-5.0625 L 18.5,-5.25 L 18.5,-5.4375 L 18.5,-5.625 L 18.5,-5.8125 L 18.5,-6.0 L 18.5,-6.1875 L 18.5,-6.375 L 18.5,-6.5625 L 18.5,-6.75" />
      <path d="M 18.5,-6.75 L 18.5,-6.5625 L 18.5,-6.375 L 18.5,-6.1875 L 18.5,-6.0 L 18.5,-5.8125 L 18.5,-5.625 L 18.5,-5.4375 L 18.5,-5.25 L 18.5,-5.0625 L 18.5,-4.875 L 18.5,-4.6875 L 18.5,-4.5 L 18.5,-4.3125 L 18.5,-4.125 L 18.5,-3.9375 L 18.5,-3.75 L 18.5,-3.5625 L 18.5,-3.375 L 18.5,-3.1875 L 18.5,-3.0 L 18.5,-2.8125 L 18.5,-2.625 L 18.5,-2.4375 L 18.5,-2.25 L 18.5,-2.0625 L 18.5,-1.875 L 18.5,-1.6875 L 18.5,-1.5 L 18.5,-1.3125 L 18.5,-1.125 L 18.5,-0.9375 L 18.5,-0.75 L 18.5,-0.5625 L 18.5,-0.375 L 18.5,-0.1875 L 18.5,0.0 L 18.5,0.1875 L 18.5,0.375 L 18.5,0.5625 L 18.5,0.75 L 18.5,0.9375 L 18.5,1.125 L 18.5,1.3125 L 18.5,1.5 L 18.5,1.6875 L 18.5,1.875 L 18.5,2.0625 L 18.5,2.25 L 18.5,2.4375 L 18.5,2.625 L 18.5,2.8125 L 18.5,3.0 L 18.5,3.1875 L 18.5,3.375 L 18.5,3.5625 L 18.5,3.75 L 18.5,3.9375 L 18.5,4.125 L 18.5,4.3125 L 18.5,4.5 L 18.5,4.6875 L 18.5,4.875 L 18.5,5.0625 L 18.5,5.25 L 18.5,5.4375 L 18.5,5.625 L 18.5,5.8125 L 18.5,6.0 L 18.5,6.1875 L 18.5,6.375 L 18.5,6.5625 L 18.5,6.75" />
      <path d="M 18.5,6.75 L 18.4653,6.75 L 18.4306,6.75 L 18.3958,6.75 L 18.3611,6.75 L 18.3264,6.75 L 18.2917,6.75 L 18.2569,6.75 L 18.2222,6.75 L 18.1875,6.75 L 18.1528,6.75 L 18.1181,6.75 L 18.0833,6.75 L 18.0486,6.75 L 18.0139,6.75 L 17.9792,6.75 L 17.9444,6.75 L 17.9097,6.75 L 17.875,6.75 L 17.8403,6.75 L 17.8056,6.75 L 17.7708,6.75 L 17.7361,6.75 L 17.7014,6.75 L 17.6667,6.75 L 17.6319,6.75 L 17.5972,6.75 L 17.5625,6.75 L 17.5278,6.75 L 17.4931,6.75 L 17.4583,6.75 L 17.4236,6.75 L 17.3889,6.75 L 17.3542,6.75 L 17.3194,6.75 L 17.2847,6.75 L 17.25,6.75 L 17.2153,6.75 L 17.1806,6.75 L 17.1458,6.75 L 17.1111,6.75 L 17.0764,6.75 L 17.0417,6.75 L 17.0069,6.75 L 16.9722,6.75 L 16.9375,6.75 L 16.9028,6.75 L 16.8681,6.75 L 16.8333,6.75 L 16.7986,6.75 L 16.7639,6.75 L 16.7292,6.75 L 16.6944,6.75 L 16.6597,6.75 L 16.625,6.75 L 16.5903,6.75 L 16.5556,6.75 L 16.5208,6.75 L 16.4861,6.75 L 16.4514,6.75 L 16.4167,6.75 L 16.3819,6.75 L 16.3472,6.75 L 16.3125,6.75 L 16.2778,6.75 L 16.2431,6.75 L 16.2083,6.75 L 16.1736,6.75 L 16.1389,6.75 L 16.1042,6.75 L 16.0694,6.75 L 16.0347,6.75 L 16.0,6.75" />
      <path d="M 18.5,-6.75 L 18.4653,-6.75 L 18.4306,-6.75 L 18.3958,-6.75 L 18.3611,-6.75 L 18.3264,-6.75 L 18.2917,-6.75 L 18.2569,-6.75 L 18.2222,-6.75 L 18.1875,-6.75 L 18.1528,-6.75 L 18.1181,-6.75 L 18.0833,-6.75 L 18.0486,-6.75 L 18.0139,-6.75 L 17.9792,-6.75 L 17.9444,-6.75 L 17.9097,-6.75 L 17.875,-6.75 L 17.8403,-6.75 L 17.8056,-6.75 L 17.7708,-6.75 L 17.7361,-6.75 L 17.7014,-6.75 L 17.6667,-6.75 L 17.6319,-6.75 L 17.5972,-6.75 L 17.5625,-6.75 L 17.5278,-6.75 L 17.4931,-6.75 L 17.4583,-6.75 L 17.4236,-6.75 L 17.3889,-6.75 L 17.3542,-6.75 L 17.3194,-6.75 L 17.2847,-6.75 L 17.25,-6.75 L 17.2153,-6.75 L 17.1806,-6.75 L 17.1458,-6.75 L 17.1111,-6.75 L 17.0764,-6.75 L 17.0417,-6.75 L 17.0069,-6.75 L 16.9722,-6.75 L 16.9375,-6.75 L 16.9028,-6.75 L 16.8681,-6.75 L 16.8333,-6.75 L 16.7986,-6.75 L 16.7639,-6.75 L 16.7292,-6.75 L 16.6944,-6.75 L 16.6597,-6.75 L 16.625,-6.75 L 16.5903,-6.75 L 16.5556,-6.75 L 16.5208,-6.75 L 16.4861,-6.75 L 16.4514,-6.75 L 16.4167,-6.75 L 16.3819,-6.75 L 16.3472,-6.75 L 16.3125,-6.75 L 16.2778,-6.75 L 16.2431,-6.75 L 16.2083,-6.75 L 16.1736,-6.75 L 16.1389,-6.75 L 16.1042,-6.75 L 16.0694,-6.75 L 16.0347,-6.75 L 16.0,-6.75" />
    </g>
    <g fill="none" stroke="rgb(0,0,0)" stroke-width="0.2" id="Center" stroke-dasharray="6.35 1.27 1.27 1.27">
      <line x1="0.0" y1="0.0" x2="-13.92" y2="0.0" />
      <line x1="0.0" y1="0.0" x2="13.92" y2="0.0" />
      <line x1="0.0" y1="0.0" x2="0.0" y2="-13.92" />
      <line x1="0.0" y1="0.0" x2="0.0" y2="13.92" />
      <line x1="17.25" y1="0.0" x2="14.08" y2="0.0" />
      <line x1="17.25" y1="0.0" x2="20.42" y2="0.0" />
    </g>
  </g>
</svg>