<?xml version='1.0' encoding='utf-8'?>
<svg width="46.2mm" height="39.2mm" viewBox="-19.6 -19.6 46.2 39.2" version="1.1" xmlns="http://www.w3.org/2000/svg">
  <g transform="scale(1,-1)" stroke-linecap="round">
    <g fill="none" stroke="rgb(0,0,0)" stroke-width="0.4" id="Visible">
      <path d="M 15.0,0.0 L 14.9429,1.3073 L 14.7721,2.6047 L 14.4889,3.8823 L 14.0954,5.1303 L 13.5946,6.3393 L 12.9904,7.5 L 12.2873,8.6036 L 11.4907,9.6418 L 10.6066,10.6066 L 9.6418,11.4907 L 8.6036,12.2873 L 7.5,12.9904 L 6.3393,13.5946 L 5.1303,14.0954 L 3.8823,14.4889 L 2.6047,14.7721 L 1.3073,14.9429 L 0.0,15.0 L -1.3073,14.9429 L -2.6047,14.7721 L -3.8823,14.4889 L -5.1303,14.0954 L -6.3393,13.5946 L -7.5,12.9904 L -8.6036,12.2873 L -9.6418,11.4907 L -10.6066,10.6066 L -11.4907,9.6418 L -12.2873,8.6036 L -12.9904,7.5 L -13.5946,6.3393 L -14.0954,5.1303 L -14.4889,3.8823 L -14.7721,2.6047 L -14.9429,1.3073 L -15.0,0.0 L -14.9429,-1.3073 L -14.7721,-2.6047 L -14.4889,-3.8823 L -14.0954,-5.1303 L -13.5946,-6.3393 L -12.9904,-7.5 L -12.2873,-8.6036 L -11.4907,-9.6418 L -10.6066,-10.6066 L -9.6418,-11.4907 L -8.6036,-12.2873 L -7.5,-12.9904 L -6.3393,-13.5946 L -5.1303,-14.0954 L -3.8823,-14.4889 L -2.6047,-14.7721 L -1.3073,-14.9429 L -0.0,-15.0 L 1.3073,-14.9429 L 2.6047,-14.7721 L 3.8823,-14.4889 L 5.1303,-14.0954 L 6.3393,-13.5946 L 7.5,-12.9904 L 8.6036,-12.2873 L 9.6418,-11.4907 L 10.6066,-10.6066 L 11.4907,-9.6418 L 12.2873,-8.6036 L 12.9904,-7.5 L 13.5946,-6.3393 L 14.0954,-5.1303 L 14.4889,-3.8823 L 14.7721,-2.6047 L 14.9429,-1.3073 L 15.0,-0.0" />
      <path d="M 6.5,0.0 L 6.4753,0.5665 L 6.4013,1.1287 L 6.2785,1.6823 L 6.108,2.2231 L 5.891,2.747 L 5.6292,3.25 L 5.3245,3.7282 L 4.9793,4.1781 L 4.5962,4.5962 L 4.1781,4.9793 L 3.7282,5.3245 L 3.25,5.6292 L 2.747,5.891 L 2.2231,6.108 L 1.6823,6.2785 L 1.1287,6.4013 L 0.5665,6.4753 L -0.0,6.5 L -0.5665,6.4753 L -1.1287,6.4013 L -1.6823,6.2785 L -2.2231,6.108 L -2.747,5.891 L -3.25,5.6292 L -3.7282,5.3245 L -4.1781,4.9793 L -4.5962,4.5962 L -4.9793,4.1781 L -5.3245,3.7282 L -5.6292,3.25 L -5.891,2.747 L -6.108,2.2231 L -6.2785,1.6823 L -6.4013,1.1287 L -6.4753,0.5665 L -6.5,-0.0 L -6.4753,-0.5665 L -6.4013,-1.1287 L -6.2785,-1.6823 L -6.108,-2.2231 L -5.891,-2.747 L -5.6292,-3.25 L -5.3245,-3.7282 L -4.9793,-4.1781 L -4.5962,-4.5962 L -4.1781,-4.9793 L -3.7282,-5.3245 L -3.25,-5.6292 L -2.747,-5.891 L -2.2231,-6.108 L -1.6823,-6.2785 L -1.1287,-6.4013 L -0.5665,-6.4753 L 0.0,-6.5 L 0.5665,-6.4753 L 1.1287,-6.4013 L 1.6823,-6.2785 L 2.2231,-6.108 L 2.747,-5.891 L 3.25,-5.6292 L 3.7282,-5.3245 L 4.1781,-4.9793 L 4.5962,-4.5962 L 4.9793,-4.1781 L 5.3245,-3.7282 L 5.6292,-3.25 L 5.891,-2.747 L 6.108,-2.2231 L 6.2785,-1.6823 L 6.4013,-1.1287 L 6.4753,-0.5665 L 6.5,0.0" />
      <path d="M 19.0,-15.0 L 19.0,-14.5833 L 19.0,-14.1667 L 19.0,-13.75 L 19.0,-13.3333 L 19.0,-12.9167 L 19.0,-12.5 L 19.0,-12.0833 L 19.0,-11.6667 L 19.0,-11.25 L 19.0,-10.8333 L 19.0,-10.4167 L 19.0,-10.0 L 19.0,-9.5833 L 19.0,-9.1667 L 19.0,-8.75 L 19.0,-8.3333 L 19.0,-7.9167 L 19.0,-7.5 L 19.0,-7.0833 L 19.0,-6.6667 L 19.0,-6.25 L 19.0,-5.8333 L 19.0,-5.4167 L 19.0,-5.0 L 19.0,-4.5833 L 19.0,-4.1667 L 19.0,-3.75 L 19.0,-3.3333 L 19.0,-2.9167 L 19.0,-2.5 L 19.0,-2.0833 L 19.0,-1.6667 L 19.0,-1.25 L 19.0,-0.8333 L 19.0,-0.4167 L 19.0,0.0 L 19.0,0.4167 L 19.0,0.8333 L 19.0,1.25 L 19.0,1.6667 L 19.0,2.0833 L 19.0,2.5 L 19.0,2.9167 L 19.0,3.3333 L 19.0,3.75 L 19.0,4.1667 L 19.0,4.5833 L 19.0,5.0 L 19.0,5.4167 L 19.0,5.8333 L 19.0,6.25 L 19.0,6.6667 L 19.0,7.0833 L 19.0,7.5 L 19.0,7.9167 L 19.0,8.3333 L 19.0,8.75 L 19.0,9.1667 L 19.0,9.5833 L 19.0,10.0 L 19.0,10.4167 L 19.0,10.8333 L 19.0,11.25 L 19.0,11.6667 L 19.0,12.0833 L 19.0,12.5 L 19.0,12.9167 L 19.0,13.3333 L 19.0,13.75 L 19.0,14.1667 L 19.0,14.5833 L 19.0,15.0" />
      <path d="M 22.0,15.0 L 21.9583,15.0 L 21.9167,15.0 L 21.875,15.0 L 21.8333,15.0 L 21.7917,15.0 L 21.75,15.0 L 21.7083,15.0 L 21.6667,15.0 L 21.625,15.0 L 21.5833,15.0 L 21.5417,15.0 L 21.5,15.0 L 21.4583,15.0 L 21.4167,15.0 L 21.375,15.0 L 21.3333,15.0 L 21.2917,15.0 L 21.25,15.0 L 21.2083,15.0 L 21.1667,15.0 L 21.125,15.0 L 21.0833,15.0 L 21.0417,15.0 L 21.0,15.0 L 20.9583,15.0 L 20.9167,15.0 L 20.875,15.0 L 20.8333,15.0 L 20.7917,15.0 L 20.75,15.0 L 20.7083,15.0 L 20.6667,15.0 L 20.625,15.0 L 20.5833,15.0 L 20.5417,15.0 L 20.5,15.0 L 20.4583,15.0 L 20.4167,15.0 L 20.375,15.0 L 20.3333,15.0 L 20.2917,15.0 L 20.25,15.0 L 20.2083,15.0 L 20.1667,15.0 L 20.125,15.0 L 20.0833,15.0 L 20.0417,15.0 L 20.0,15.0 L 19.9583,15.0 L 19.9167,15.0 L 19.875,15.0 L 19.8333,15.0 L 19.7917,15.0 L 19.75,15.0 L 19.7083,15.0 L 19.6667,15.0 L 19.625,15.0 L 19.5833,15.0 L 19.5417,15.0 L 19.5,15.0 L 19.4583,15.0 L 19.4167,15.0 L 19.375,15.0 L 19.3333,15.0 L 19.2917,15.0 L 19.25,15.0 L 19.2083,15.0 L 19.1667,15.0 L 19.125,15.0 L 19.0833,15.0 L 19.0417,15.0 L 19.0,15.0" />
      <path d="M 22.0,-15.0 L 22.0,-14.5833 L 22.0,-14.1667 L 22.0,-13.75 L 22.0,-13.3333 L 22.0,-12.9167 L 22.0,-12.5 L 22.0,-12.0833 L 22.0,-11.6667 L 22.0,-11.25 L 22.0,-10.8333 L 22.0,-10.4167 L 22.0,-10.0 L 22.0,-9.5833 L 22.0,-9.1667 L 22.0,-8.75 L 22.0,-8.3333 L 22.0,-7.9167 L 22.0,-7.5 L 22.0,-7.0833 L 22.0,-6.6667 L 22.0,-6.25 L 22.0,-5.8333 L 22.0,-5.4167 L 22.0,-5.0 L 22.0,-4.5833 L 22.0,-4.1667 L 22.0,-3.75 L 22.0,-3.3333 L 22.0,-2.9167 L 22.0,-2.5 L 22.0,-2.0833 L 22.0,-1.6667 L 22.0,-1.25 L 22.0,-0.8333 L 22.0,-0.4167 L 22.0,0.0 L 22.0,0.4167 L 22.0,0.8333 L 22.0,1.25 L 22.0,1.6667 L 22.0,2.0833 L 22.0,2.5 L 22.0,2.9167 L 22.0,3.3333 L 22.0,3.75 L 22.0,4.1667 L 22.0,4.5833 L 22.0,5.0 L 22.0,5.4167 L 22.0,5.8333 L 22.0,6.25 L 22.0,6.6667 L 22.0,7.0833 L 22.0,7.5 L 22.0,7.9167 L 22.0,8.3333 L 22.0,8.75 L 22.0,9.1667 L 22.0,9.5833 L 22.0,10.0 L 22.0,10.4167 L 22.0,10.8333 L 22.0,11.25 L 22.0,11.6667 L 22.0,12.0833 L 22.0,12.5 L 22.0,12.9167 L 22.0,13.3333 L 22.0,13.75 L 22.0,14.1667 L 22.0,14.5833 L 22.0,15.0" />
      <path d="M 22.0,-15.0 L 21.9583,-15.0 L 21.9167,-15.0 L 21.875,-15.0 L 21.8333,-15.0 L 21.7917,-15.0 L 21.75,-15.0 L 21.7083,-15.0 L 21.6667,-15.0 L 21.625,-15.0 L 21.5833,-15.0 L 21.5417,-15.0 L 21.5,-15.0 L 21.4583,-15.0 L 21.4167,-15.0 L 21.375,-15.0 L 21.3333,-15.0 L 21.2917,-15.0 L 21.25,-15.0 L 21.2083,-15.0 L 21.1667,-15.0 L 21.125,-15.0 L 21.0833,-15.0 L 21.0417,-15.0 L 21.0,-15.0 L 20.9583,-15.0 L 20.9167,-15.0 L 20.875,-15.0 L 20.8333,-15.0 L 20.7917,-15.0 L 20.75,-15.0 L 20.7083,-15.0 L 20.6667,-15.0 L 20.625,-15.0 L 20.5833,-15.0 L 20.5417,-15.0 L 20.5,-15.0 L 20.4583,-15.0 L 20.4167,-15.0 L 20.375,-15.0 L 20.3333,-15.0 L 20.2917,-15.0 L 20.25,-15.0 L 20.2083,-15.0 L 20.1667,-15.0 L 20.125,-15.0 L 20.0833,-15.0 L 20.0417,-15.0 L 20.0,-15.0 L 19.9583,-15.0 L 19.9167,-15.0 L 19.875,-15.0 L 19.8333,-15.0 L 19.7917,-15.0 L 19.75,-15.0 L 19.7083,-15.0 L 19.6667,-15.0 L 19.625,-15.0 L 19.5833,-15.0 L 19.5417,-15.0 L 19.5,-15.0 L 19.4583,-15.0 L 19.4167,-15.0 L 19.375,-15.0 L 19.3333,-15.0 L 19.2917,-15.0 L 19.25,-15.0 L 19.2083,-15.0 L 19.1667,-15.0 L 19.125,-15.0 L 19.0833,-15.0 L 19.0417,-15.0 L 19.0,-15.0" />
    </g>
    <g fill="none" stroke="rgb(110,110,110)" stroke-width="0.3" id="Hidden" stroke-dasharray="3.6 0.9">
      <path d="M 15.0,0.0 L 14.9429,1.3073 L 14.7721,2.6047 L 14.4889,3.8823 L 14.0954,5.1303 L 13.5946,6.3393 L 12.9904,7.5 L 12.2873,8.6036 L 11.4907,9.6418 L 10.6066,10.6066 L 9.6418,11.4907 L 8.6036,12.2873 L 7.5,12.9904 L 6.3393,13.5946 L 5.1303,14.0954 L 3.8823,14.4889 L 2.6047,14.7721 L 1.3073,14.9429 L 0.0,15.0 L -1.3073,14.9429 L -2.6047,14.7721 L -3.8823,14.4889 L -5.1303,14.0954 L -6.3393,13.5946 L -7.5,12.9904 L -8.6036,12.2873 L -9.6418,11.4907 L -10.6066,10.6066 L -11.4907,9.6418 L -12.2873,8.6036 L -12.9904,7.5 L -13.5946,6.3393 L -14.0954,5.1303 L -14.4889,3.8823 L -14.7721,2.6047 L -14.9429,1.3073 L -15.0,0.0 L -14.9429,-1.3073 L -14.7721,-2.6047 L -14.4889,-3.8823 L -14.0954,-5.1303 L -13.5946,-6.3393 L -12.9904,-7.5 L -12.2873,-8.6036 L -11.4907,-9.6418 L -10.6066,-10.6066 L -9.6418,-11.4907 L -8.6036,-12.2873 L -7.5,-12.9904 L -6.3393,-13.5946 L -5.1303,-14.0954 L -3.8823,-14.4889 L -2.6047,-14.7721 L -1.3073,-14.9429 L -0.0,-15.0 L 1.3073,-14.9429 L 2.6047,-14.7721 L 3.8823,-14.4889 L 5.1303,-14.0954 L 6.3393,-13.5946 L 7.5,-12.9904 L 8.6036,-12.2873 L 9.6418,-11.4907 L 10.6066,-10.6066 L 11.4907,-9.6418 L 12.2873,-8.6036 L 12.9904,-7.5 L 13.5946,-6.3393 L 14.0954,-5.1303 L 14.4889,-3.8823 L 14.7721,-2.6047 L 14.9429,-1.3073 L 15.0,-0.0" />
      <path d="M 6.5,0.0 L 6.4753,0.5665 L 6.4013,1.1287 L 6.2785,1.6823 L 6.108,2.2231 L 5.891,2.747 L 5.6292,3.25 L 5.3245,3.7282 L 4.9793,4.1781 L 4.5962,4.5962 L 4.1781,4.9793 L 3.7282,5.3245 L 3.25,5.6292 L 2.747,5.891 L 2.2231,6.108 L 1.6823,6.2785 L 1.1287,6.4013 L 0.5665,6.4753 L -0.0,6.5 L -0.5665,6.4753 L -1.1287,6.4013 L -1.6823,6.2785 L -2.2231,6.108 L -2.747,5.891 L -3.25,5.6292 L -3.7282,5.3245 L -4.1781,4.9793 L -4.5962,4.5962 L -4.9793,4.1781 L -5.3245,3.7282 L -5.6292,3.25 L -5.891,2.747 L -6.108,2.2231 L -6.2785,1.6823 L -6.4013,1.1287 L -6.4753,0.5665 L -6.5,-0.0 L -6.4753,-0.5665 L -6.4013,-1.1287 L -6.2785,-1.6823 L -6.108,-2.2231 L -5.891,-2.747 L -5.6292,-3.25 L -5.3245,-3.7282 L -4.9793,-4.1781 L -4.5962,-4.5962 L -4.1781,-4.9793 L -3.7282,-5.3245 L -3.25,-5.6292 L -2.747,-5.891 L -2.2231,-6.108 L -1.6823,-6.2785 L -1.1287,-6.4013 L -0.5665,-6.4753 L 0.0,-6.5 L 0.5665,-6.4753 L 1.1287,-6.4013 L 1.6823,-6.2785 L 2.2231,-6.108 L 2.747,-5.891 L 3.25,-5.6292 L 3.7282,-5.3245 L 4.1781,-4.9793 L 4.5962,-4.5962 L 4.9793,-4.1781 L 5.3245,-3.7282 L 5.6292,-3.25 L 5.891,-2.747 L 6.108,-2.2231 L 6.2785,-1.6823 L 6.4013,-1.1287 L 6.4753,-0.5665 L 6.5,0.0" />
      <path d="M 19.0,15.0 L 19.0,14.5833 L 19.0,14.1667 L 19.0,13.75 L 19.0,13.3333 L 19.0,12.9167 L 19.0,12.5 L 19.0,12.0833 L 19.0,11.6667 L 19.0,11.25 L 19.0,10.8333 L 19.0,10.4167 L 19.0,10.0 L 19.0,9.5833 L 19.0,9.1667 L 19.0,8.75 L 19.0,8.3333 L 19.0,7.9167 L 19.0,7.5 L 19.0,7.0833 L 19.0,6.6667 L 19.0,6.25 L 19.0,5.8333 L 19.0,5.4167 L 19.0,5.0 L 19.0,4.5833 L 19.0,4.1667 L 19.0,3.75 L 19.0,3.3333 L 19.0,2.9167 L 19.0,2.5 L 19.0,2.0833 L 19.0,1.6667 L 19.0,1.25 L 19.0,0.8333 L 19.0,0.4167 L 19.0,0.0 L 19.0,-0.4167 L 19.0,-0.8333 L 19.0,-1.25 L 19.0,-1.6667 L 19.0,-2.0833 L 19.0,-2.5 L 19.0,-2.9167 L 19.0,-3.3333 L 19.0,-3.75 L 19.0,-4.1667 L 19.0,-4.5833 L 19.0,-5.0 L 19.0,-5.4167 L 19.0,-5.8333 L 19.0,-6.25 L 19.0,-6.6667 L 19.0,-7.0833 L 19.0,-7.5 L 19.0,-7.9167 L 19.0,-8.3333 L 19.0,-8.75 L 19.0,-9.1667 L 19.0,-9.5833 L 19.0,-10.0 L 19.0,-10.4167 L 19.0,-10.8333 L 19.0,-11.25 L 19.0,-11.6667 L 19.0,-12.0833 L 19.0,-12.5 L 19.0,-12.9167 L 19.0,-13.3333 L 19.0,-13.75 L 19.0,-14.1667 L 19.0,-14.5833 L 19.0,-15.0" />
      <path d="M 22.0,15.0 L 22.0,14.5833 L 22.0,14.1667 L 22.0,13.75 L 22.0,13.3333 L 22.0,12.9167 L 22.0,12.5 L 22.0,12.0833 L 22.0,11.6667 L 22.0,11.25 L 22.0,10.8333 L 22.0,10.4167 L 22.0,10.0 L 22.0,9.5833 L 22.0,9.1667 L 22.0,8.75 L 22.0,8.3333 L 22.0,7.9167 L 22.0,7.5 L 22.0,7.0833 L 22.0,6.6667 L 22.0,6.25 L 22.0,5.8333 L 22.0,5.4167 L 22.0,5.0 L 22.0,4.5833 L 22.0,4.1667 L 22.0,3.75 L 22.0,3.3333 L 22.0,2.9167 L 22.0,2.5 L 22.0,2.0833 L 22.0,1.6667 L 22.0,1.25 L 22.0,0.8333 L 22.0,0.4167 L 22.0,0.0 L 22.0,-0.4167 L 22.0,-0.8333 L 22.0,-1.25 L 22.0,-1.6667 L 22.0,-2.0833 L 22.0,-2.5 L 22.0,-2.9167 L 22.0,-3.3333 L 22.0,-3.75 L 22.0,-4.1667 L 22.0,-4.5833 L 22.0,-5.0 L 22.0,-5.4167 L 22.0,-5.8333 L 22.0,-6.25 L 22.0,-6.6667 L 22.0,-7.0833 L 22.0,-7.5 L 22.0,-7.9167 L 22.0,-8.3333 L 22.0,-8.75 L 22.0,-9.1667 L 22.0,-9.5833 L 22.0,-10.0 L 22.0,-10.4167 L 22.0,-10.8333 L 22.0,-11.25 L 22.0,-11.6667 L 22.0,-12.0833 L 22.0,-12.5 L 22.0,-12.9167 L 22.0,-13.3333 L 22.0,-13.75 L 22.0,-14.1667 L 22.0,-14.5833 L 22.0,-15.0" />
      <path d="M 19.0,6.5 L 19.0,6.3194 L 19.0,6.1389 L 19.0,5.9583 L 19.0,5.7778 L 19.0,5.5972 L 19.0,5.4167 L 19.0,5.2361 L 19.0,5.0556 L 19.0,4.875 L 19.0,4.6944 L 19.0,4.5139 L 19.0,4.3333 L 19.0,4.1528 L 19.0,3.9722 L 19.0,3.7917 L 19.0,3.6111 L 19.0,3.4306 L 19.0,3.25 L 19.0,3.0694 L 19.0,2.8889 L 19.0,2.7083 L 19.0,2.5278 L 19.0,2.3472 L 19.0,2.1667 L 19.0,1.9861 L 19.0,1.8056 L 19.0,1.625 L 19.0,1.4444 L 19.0,1.2639 L 19.0,1.0833 L 19.0,0.9028 L 19.0,0.7222 L 19.0,0.5417 L 19.0,0.3611 L 19.0,0.1806 L 19.0,0.0 L 19.0,-0.1806 L 19.0,-0.3611 L 19.0,-0.5417 L 19.0,-0.7222 L 19.0,-0.9028 L 19.0,-1.0833 L 19.0,-1.2639 L 19.0,-1.4444 L 19.0,-1.625 L 19.0,-1.8056 L 19.0,-1.9861 L 19.0,-2.1667 L 19.0,-2.3472 L 19.0,-2.5278 L 19.0,-2.7083 L 19.0,-2.8889 L 19.0,-3.0694 L 19.0,-3.25 L 19.0,-3.4306 L 19.0,-3.6111 L 19.0,-3.7917 L 19.0,-3.9722 L 19.0,-4.1528 L 19.0,-4.3333 L 19.0,-4.5139 L 19.0,-4.6944 L 19.0,-4.875 L 19.0,-5.0556 L 19.0,-5.2361 L 19.0,-5.4167 L 19.0,-5.5972 L 19.0,-5.7778 L 19.0,-5.9583 L 19.0,-6.1389 L 19.0,-6.3194 L 19.0,-6.5" />
      <path d="M 19.0,-6.5 L 19.0,-6.3194 L 19.0,-6.1389 L 19.0,-5.9583 L 19.0,-5.7778 L 19.0,-5.5972 L 19.0,-5.4167 L 19.0,-5.2361 L 19.0,-5.0556 L 19.0,-4.875 L 19.0,-4.6944 L 19.0,-4.5139 L 19.0,-4.3333 L 19.0,-4.1528 L 19.0,-3.9722 L 19.0,-3.7917 L 19.0,-3.6111 L 19.0,-3.4306 L 19.0,-3.25 L 19.0,-3.0694 L 19.0,-2.8889 L 19.0,-2.7083 L 19.0,-2.5278 L 19.0,-2.3472 L 19.0,-2.1667 L 19.0,-1.9861 L 19.0,-1.8056 L 19.0,-1.625 L 19.0,-1.4444 L 19.0,-1.2639 L 19.0,-1.0833 L 19.0,-0.9028 L 19.0,-0.7222 L 19.0,-0.5417 L 19.0,-0.3611 L 19.0,-0.1806 L 19.0,0.0 L 19.0,0.1806 L 19.0,0.3611 L 19.0,0.5417 L 19.0,0.7222 L 19.0,0.9028 L 19.0,1.0833 L 19.0,1.2639 L 19.0,1.4444 L 19.0,1.625 L 19.0,1.8056 L 19.0,1.9861 L 19.0,2.1667 L 19.0,2.3472 L 19.0,2.5278 L 19.0,2.7083 L 19.0,2.8889 L 19.0,3.0694 L 19.0,3.25 L 19.0,3.4306 L 19.0,3.6111 L 19.0,3.7917 L 19.0,3.9722 L 19.0,4.1528 L 19.0,4.3333 L 19.0,4.5139 L 19.0,4.6944 L 19.0,4.875 L 19.0,5.0556 L 19.0,5.2361 L 19.0,5.4167 L 19.0,5.5972 L 19.0,5.7778 L 19.0,5.9583 L 19.0,6.1389 L 19.0,6.3194 L 19.0,6.5" />
      <path d="M 22.0,6.5 L 22.0,6.3194 L 22.0,6.1389 L 22.0,5.9583 L 22.0,5.7778 L 22.0,5.5972 L 22.0,5.4167 L 22.0,5.2361 L 22.0,5.0556 L 22.0,4.875 L 22.0,4.6944 L 22.0,4.5139 L 22.0,4.3333 L 22.0,4.1528 L 22.0,3.9722 L 22.0,3.7917 L 22.0,3.6111 L 22.0,3.4306 L 22.0,3.25 L 22.0,3.0694 L 22.0,2.8889 L 22.0,2.7083 L 22.0,2.5278 L 22.0,2.3472 L 22.0,2.1667 L 22.0,1.9861 L 22.0,1.8056 L 22.0,1.625 L 22.0,1.4444 L 22.0,1.2639 L 22.0,1.0833 L 22.0,0.9028 L 22.0,0.7222 L 22.0,0.5417 L 22.0,0.3611 L 22.0,0.1806 L 22.0,0.0 L 22.0,-0.1806 L 22.0,-0.3611 L 22.0,-0.5417 L 22.0,-0.7222 L 22.0,-0.9028 L 22.0,-1.0833 L 22.0,-1.2639 L 22.0,-1.4444 L 22.0,-1.625 L 22.0,-1.8056 L 22.0,-1.9861 L 22.0,-2.1667 L 22.0,-2.3472 L 22.0,-2.5278 L 22.0,-2.7083 L 22.0,-2.8889 L 22.0,-3.0694 L 22.0,-3.25 L 22.0,-3.4306 L 22.0,-3.6111 L 22.0,-3.7917 L 22.0,-3.9722 L 22.0,-4.1528 L 22.0,-4.3333 L 22.0,-4.5139 L 22.0,-4.6944 L 22.0,-4.875 L 22.0,-5.0556 L 22.0,-5.2361 L 22.0,-5.4167 L 22.0,-5.5972 L 22.0,-5.7778 L 22.0,-5.9583 L 22.0,-6.1389 L 22.0,-6.3194 L 22.0,-6.5" />
      <path d="M 22.0,-6.5 L 22.0,-6.3194 L 22.0,-6.1389 L 22.0,-5.9583 L 22.0,-5.7778 L 22.0,-5.5972 L 22.0,-5.4167 L 22.0,-5.2361 L 22.0,-5.0556 L 22.0,-4.875 L 22.0,-4.6944 L 22.0,-4.5139 L 22.0,-4.3333 L 22.0,-4.1528 L 22.0,-3.9722 L 22.0,-3.7917 L 22.0,-3.6111 L 22.0,-3.4306 L 22.0,-3.25 L 22.0,-3.0694 L 22.0,-2.8889 L 22.0,-2.7083 L 22.0,-2.5278 L 22.0,-2.3472 L 22.0,-2.1667 L 22.0,-1.9861 L 22.0,-1.8056 L 22.0,-1.625 L 22.0,-1.4444 L 22.0,-1.2639 L 22.0,-1.0833 L 22.0,-0.9028 L 22.0,-0.7222 L 22.0,-0.5417 L 22.0,-0.3611 L 22.0,-0.1806 L 22.0,0.0 L 22.0,0.1806 L 22.0,0.3611 L 22.0,0.5417 L 22.0,0.7222 L 22.0,0.9028 L 22.0,1.0833 L 22.0,1.2639 L 22.0,1.4444 L 22.0,1.625 L 22.0,1.8056 L 22.0,1.9861 L 22.0,2.1667 L 22.0,2.3472 L 22.0,2.5278 L 22.0,2.7083 L 22.0,2.8889 L 22.0,3.0694 L 22.0,3.25 L 22.0,3.4306 L 22.0,3.6111 L 22.0,3.7917 L 22.0,3.9722 L 22.0,4.1528 L 22.0,4.3333 L 22.0,4.5139 L 22.0,4.6944 L 22.0,4.875 L 22.0,5.0556 L 22.0,5.2361 L 22.0,5.4167 L 22.0,5.5972 L 22.0,5.7778 L 22.0,5.9583 L 22.0,6.1389 L 22.0,6.3194 L 22.0,6.5" />
      <path d="M 22.0,6.5 L 21.9583,6.5 L 21.9167,6.5 L 21.875,6.5 L 21.8333,6.5 L 21.7917,6.5 L 21.75,6.5 L 21.7083,6.5 L 21.6667,6.5 L 21.625,6.5 L 21.5833,6.5 L 21.5417,6.5 L 21.5,6.5 L 21.4583,6.5 L 21.4167,6.5 L 21.375,6.5 L 21.3333,6.5 L 21.2917,6.5 L 21.25,6.5 L 21.2083,6.5 L 21.1667,6.5 L 21.125,6.5 L 21.0833,6.5 L 21.0417,6.5 L 21.0,6.5 L 20.9583,6.5 L 20.9167,6.5 L 20.875,6.5 L 20.8333,6.5 L 20.7917,6.5 L 20.75,6.5 L 20.7083,6.5 L 20.6667,6.5 L 20.625,6.5 L 20.5833,6.5 L 20.5417,6.5 L 20.5,6.5 L 20.4583,6.5 L 20.4167,6.5 L 20.375,6.5 L 20.3333,6.5 L 20.2917,6.5 L 20.25,6.5 L 20.2083,6.5 L 20.1667,6.5 L 20.125,6.5 L 20.0833,6.5 L 20.0417,6.5 L 20.0,6.5 L 19.9583,6.5 L 19.9167,6.5 L 19.875,6.5 L 19.8333,6.5 L 19.7917,6.5 L 19.75,6.5 L 19.7083,6.5 L 19.6667,6.5 L 19.625,6.5 L 19.5833,6.5 L 19.5417,6.5 L 19.5,6.5 L 19.4583,6.5 L 19.4167,6.5 L 19.375,6.5 L 19.3333,6.5 L 19.2917,6.5 L 19.25,6.5 L 19.2083,6.5 L 19.1667,6.5 L 19.125,6.5 L 19.0833,6.5 L 19.0417,6.5 L 19.0,6.5" />
      <path d="M 22.0,-6.5 L 21.9583,-6.5 L 21.9167,-6.5 L 21.875,-6.5 L 21.8333,-6.5 L 21.7917,-6.5 L 21.75,-6.5 L 21.7083,-6.5 L 21.6667,-6.5 L 21.625,-6.5 L 21.5833,-6.5 L 21.5417,-6.5 L 21.5,-6.5 L 21.4583,-6.5 L 21.4167,-6.5 L 21.375,-6.5 L 21.3333,-6.5 L 21.2917,-6.5 L 21.25,-6.5 L 21.2083,-6.5 L 21.1667,-6.5 L 21.125,-6.5 L 21.0833,-6.5 L 21.0417,-6.5 L 21.0,-6.5 L 20.9583,-6.5 L 20.9167,-6.5 L 20.875,-6.5 L 20.8333,-6.5 L 20.7917,-6.5 L 20.75,-6.5 L 20.7083,-6.5 L 20.6667,-6.5 L 20.625,-6.5 L 20.5833,-6.5 L 20.5417,-6.5 L 20.5,-6.5 L 20.4583,-6.5 L 20.4167,-6.5 L 20.375,-6.5 L 20.3333,-6.5 L 20.2917,-6.5 L 20.25,-6.5 L 20.2083,-6.5 L 20.1667,-6.5 L 20.125,-6.5 L 20.0833,-6.5 L 20.0417,-6.5 L 20.0,-6.5 L 19.9583,-6.5 L 19.9167,-6.5 L 19.875,-6.5 L 19.8333,-6.5 L 19.7917,-6.5 L 19.75,-6.5 L 19.7083,-6.5 L 19.6667,-6.5 L 19.625,-6.5 L 19.5833,-6.5 L 19.5417,-6.5 L 19.5,-6.5 L 19.4583,-6.5 L 19.4167,-6.5 L 19.375,-6.5 L 19.3333,-6.5 L 19.2917,-6.5 L 19.25,-6.5 L 19.2083,-6.5 L 19.1667,-6.5 L 19.125,-6.5 L 19.0833,-6.5 L 19.0417,-6.5 L 19.0,-6.5" />
    </g>
    <g fill="none" stroke="rgb(0,0,0)" stroke-width="0.2" id="Center" stroke-dasharray="6.35 1.27 1.27 1.27">
      <line x1="-0.0" y1="0.0" x2="-17.4" y2="0.0" />
      <line x1="-0.0" y1="0.0" x2="17.4" y2="0.0" />
      <line x1="-0.0" y1="0.0" x2="-0.0" y2="-17.4" />
      <line x1="-0.0" y1="0.0" x2="-0.0" y2="17.4" />
      <line x1="20.5" y1="0.0" x2="16.6" y2="0.0" />
      <line x1="20.5" y1="0.0" x2="24.4" y2="0.0" />
    </g>
  </g>
</svg>