<?xml version='1.0' encoding='utf-8'?>
<svg width="30.4mm" height="24.4mm" viewBox="-12.2 -12.2 30.4 24.4" version="1.1" xmlns="http://www.w3.org/2000/svg">
  <g transform="scale(1,-1)" stroke-linecap="round">
    <g fill="none" stroke="rgb(0,0,0)" stroke-width="0.4" id="Visible">
      <path d="M 10.0,0.0 L 9.9619,0.8716 L 9.8481,1.7365 L 9.6593,2.5882 L 9.3969,3.4202 L 9.0631,4.2262 L 8.6603,5.0 L 8.1915,5.7358 L 7.6604,6.4279 L 7.0711,7.0711 L 6.4279,7.6604 L 5.7358,8.1915 L 5.0,8.6603 L 4.2262,9.0631 L 3.4202,9.3969 L 2.5882,9.6593 L 1.7365,9.8481 L 0.8716,9.9619 L 0.0,10.0 L -0.8716,9.9619 L -1.7365,9.8481 L -2.5882,9.6593 L -3.4202,9.3969 L -4.2262,9.0631 L -5.0,8.6603 L -5.7358,8.1915 L -6.4279,7.6604 L -7.0711,7.0711 L -7.6604,6.4279 L -8.1915,5.7358 L -8.6603,5.0 L -9.0631,4.2262 L -9.3969,3.4202 L -9.6593,2.5882 L -9.8481,1.7365 L -9.9619,0.8716 L -10.0,0.0 L -9.9619,-0.8716 L -9.8481,-1.7365 L -9.6593,-2.5882 L -9.3969,-3.4202 L -9.0631,-4.2262 L -8.6603,-5.0 L -8.1915,-5.7358 L -7.6604,-6.4279 L -7.0711,-7.0711 L -6.4279,-7.6604 L -5.7358,-8.1915 L -5.0,-8.6603 L -4.2262,-9.0631 L -3.4202,-9.3969 L -2.5882,-9.6593 L -1.7365,-9.8481 L -0.8716,-9.9619 L -0.0,-10.0 L 0.8716,-9.9619 L 1.7365,-9.8481 L 2.5882,-9.6593 L 3.4202,-9.3969 L 4.2262,-9.0631 L 5.0,-8.6603 L 5.7358,-8.1915 L 6.4279,-7.6604 L 7.0711,-7.0711 L 7.6604,-6.4279 L 8.1915,-5.7358 L 8.6603,-5.0 L 9.0631,-4.2262 L 9.3969,-3.4202 L 9.6593,-2.5882 L 9.8481,-1.7365 L 9.9619,-0.8716 L 10.0,-0.0" />
      <path d="M 6.5,0.0 L 6.4753,0.5665 L 6.4013,1.1287 L 6.2785,1.6823 L 6.108,2.2231 L 5.891,2.747 L 5.6292,3.25 L 5.3245,3.7282 L 4.9793,4.1781 L 4.5962,4.5962 L 4.1781,4.9793 L 3.7282,5.3245 L 3.25,5.6292 L 2.747,5.891 L 2.2231,6.108 L 1.6823,6.2785 L 1.1287,6.4013 L 0.5665,6.4753 L -0.0,6.5 L -0.5665,6.4753 L -1.1287,6.4013 L -1.6823,6.2785 L -2.2231,6.108 L -2.747,5.891 L -3.25,5.6292 L -3.7282,5.3245 L -4.1781,4.9793 L -4.5962,4.5962 L -4.9793,4.1781 L -5.3245,3.7282 L -5.6292,3.25 L -5.891,2.747 L -6.108,2.2231 L -6.2785,1.6823 L -6.4013,1.1287 L -6.4753,0.5665 L -6.5,-0.0 L -6.4753,-0.5665 L -6.4013,-1.1287 L -6.2785,-1.6823 L -6.108,-2.2231 L -5.891,-2.747 L -5.6292,-3.25 L -5.3245,-3.7282 L -4.9793,-4.1781 L -4.5962,-4.5962 L -4.1781,-4.9793 L -3.7282,-5.3245 L -3.25,-5.6292 L -2.747,-5.891 L -2.2231,-6.108 L -1.6823,-6.2785 L -1.1287,-6.4013 L -0.5665,-6.4753 L 0.0,-6.5 L 0.5665,-6.4753 L 1.1287,-6.4013 L 1.6823,-6.2785 L 2.2231,-6.108 L 2.747,-5.891 L 3.25,-5.6292 L 3.7282,-5.3245 L 4.1781,-4.9793 L 4.5962,-4.5962 L 4.9793,-4.1781 L 5.3245,-3.7282 L 5.6292,-3.25 L 5.891,-2.747 L 6.108,-2.2231 L 6.2785,-1.6823 L 6.4013,-1.1287 L 6.4753,-0.5665 L 6.5,0.0" />
      <path d="M 14.0,-10.0 L 14.0,-9.7222 L 14.0,-9.4444 L 14.0,-9.1667 L 14.0,-8.8889 L 14.0,-8.6111 L 14.0,-8.3333 L 14.0,-8.0556 L 14.0,-7.7778 L 14.0,-7.5 L 14.0,-7.2222 L 14.0,-6.9444 L 14.0,-6.6667 L 14.0,-6.3889 L 14.0,-6.1111 L 14.0,-5.8333 L 14.0,-5.5556 L 14.0,-5.2778 L 14.0,-5.0 L 14.0,-4.7222 L 14.0,-4.4444 L 14.0,-4.1667 L 14.0,-3.8889 L 14.0,-3.6111 L 14.0,-3.3333 L 14.0,-3.0556 L 14.0,-2.7778 L 14.0,-2.5 L 14.0,-2.2222 L 14.0,-1.9444 L 14.0,-1.6667 L 14.0,-1.3889 L 14.0,-1.1111 L 14.0,-0.8333 L 14.0,-0.5556 L 14.0,-0.2778 L 14.0,0.0 L 14.0,0.2778 L 14.0,0.5556 L 14.0,0.8333 L 14.0,1.1111 L 14.0,1.3889 L 14.0,1.6667 L 14.0,1.9444 L 14.0,2.2222 L 14.0,2.5 L 14.0,2.7778 L 14.0,3.0556 L 14.0,3.3333 L 14.0,3.6111 L 14.0,3.8889 L 14.0,4.1667 L 14.0,4.4444 L 14.0,4.7222 L 14.0,5.0 L 14.0,5.2778 L 14.0,5.5556 L 14.0,5.8333 L 14.0,6.1111 L 14.0,6.3889 L 14.0,6.6667 L 14.0,6.9444 L 14.0,7.2222 L 14.0,7.5 L 14.0,7.7778 L 14.0,8.0556 L 14.0,8.3333 L 14.0,8.6111 L 14.0,8.8889 L 14.0,9.1667 L 14.0,9.4444 L 14.0,9.7222 L 14.0,10.0" />
      <path d="M 16.0,10.0 L 15.9722,10.0 L 15.9444,10.0 L 15.9167,10.0 L 15.8889,10.0 L 15.8611,10.0 L 15.8333,10.0 L 15.8056,10.0 L 15.7778,10.0 L 15.75,10.0 L 15.7222,10.0 L 15.6944,10.0 L 15.6667,10.0 L 15.6389,10.0 L 15.6111,10.0 L 15.5833,10.0 L 15.5556,10.0 L 15.5278,10.0 L 15.5,10.0 L 15.4722,10.0 L 15.4444,10.0 L 15.4167,10.0 L 15.3889,10.0 L 15.3611,10.0 L 15.3333,10.0 L 15.3056,10.0 L 15.2778,10.0 L 15.25,10.0 L 15.2222,10.0 L 15.1944,10.0 L 15.1667,10.0 L 15.1389,10.0 L 15.1111,10.0 L 15.0833,10.0 L 15.0556,10.0 L 15.0278,10.0 L 15.0,10.0 L 14.9722,10.0 L 14.9444,10.0 L 14.9167,10.0 L 14.8889,10.0 L 14.8611,10.0 L 14.8333,10.0 L 14.8056,10.0 L 14.7778,10.0 L 14.75,10.0 L 14.7222,10.0 L 14.6944,10.0 L 14.6667,10.0 L 14.6389,10.0 L 14.6111,10.0 L 14.5833,10.0 L 14.5556,10.0 L 14.5278,10.0 L 14.5,10.0 L 14.4722,10.0 L 14.4444,10.0 L 14.4167,10.0 L 14.3889,10.0 L 14.3611,10.0 L 14.3333,10.0 L 14.3056,10.0 L 14.2778,10.0 L 14.25,10.0 L 14.2222,10.0 L 14.1944,10.0 L 14.1667,10.0 L 14.1389,10.0 L 14.1111,10.0 L 14.0833,10.0 L 14.0556,10.0 L 14.0278,10.0 L 14.0,10.0" />
      <path d="M 16.0,-10.0 L 16.0,-9.7222 L 16.0,-9.4444 L 16.0,-9.1667 L 16.0,-8.8889 L 16.0,-8.6111 L 16.0,-8.3333 L 16.0,-8.0556 L 16.0,-7.7778 L 16.0,-7.5 L 16.0,-7.2222 L 16.0,-6.9444 L 16.0,-6.6667 L 16.0,-6.3889 L 16.0,-6.1111 L 16.0,-5.8333 L 16.0,-5.5556 L 16.0,-5.2778 L 16.0,-5.0 L 16.0,-4.7222 L 16.0,-4.4444 L 16.0,-4.1667 L 16.0,-3.8889 L 16.0,-3.6111 L 16.0,-3.3333 L 16.0,-3.0556 L 16.0,-2.7778 L 16.0,-2.5 L 16.0,-2.2222 L 16.0,-1.9444 L 16.0,-1.6667 L 16.0,-1.3889 L 16.0,-1.1111 L 16.0,-0.8333 L 16.0,-0.5556 L 16.0,-0.2778 L 16.0,0.0 L 16.0,0.2778 L 16.0,0.5556 L 16.0,0.8333 L 16.0,1.1111 L 16.0,1.3889 L 16.0,1.6667 L 16.0,1.9444 L 16.0,2.2222 L 16.0,2.5 L 16.0,2.7778 L 16.0,3.0556 L 16.0,3.3333 L 16.0,3.6111 L 16.0,3.8889 L 16.0,4.1667 L 16.0,4.4444 L 16.0,4.7222 L 16.0,5.0 L 16.0,5.2778 L 16.0,5.5556 L 16.0,5.8333 L 16.0,6.1111 L 16.0,6.3889 L 16.0,6.6667 L 16.0,6.9444 L 16.0,7.2222 L 16.0,7.5 L 16.0,7.7778 L 16.0,8.0556 L 16.0,8.3333 L 16.0,8.6111 L 16.0,8.8889 L 16.0,9.1667 L 16.0,9.4444 L 16.0,9.7222 L 16.0,10.0" />
      <path d="M 16.0,-10.0 L 15.9722,-10.0 L 15.9444,-10.0 L 15.9167,-10.0 L 15.8889,-10.0 L 15.8611,-10.0 L 15.8333,-10.0 L 15.8056,-10.0 L 15.7778,-10.0 L 15.75,-10.0 L 15.7222,-10.0 L 15.6944,-10.0 L 15.6667,-10.0 L 15.6389,-10.0 L 15.6111,-10.0 L 15.5833,-10.0 L 15.5556,-10.0 L 15.5278,-10.0 L 15.5,-10.0 L 15.4722,-10.0 L 15.4444,-10.0 L 15.4167,-10.0 L 15.3889,-10.0 L 15.3611,-10.0 L 15.3333,-10.0 L 15.3056,-10.0 L 15.2778,-10.0 L 15.25,-10.0 L 15.2222,-10.0 L 15.1944,-10.0 L 15.1667,-10.0 L 15.1389,-10.0 L 15.1111,-10.0 L 15.0833,-10.0 L 15.0556,-10.0 L 15.0278,-10.0 L 15.0,-10.0 L 14.9722,-10.0 L 14.9444,-10.0 L 14.9167,-10.0 L 14.8889,-10.0 L 14.8611,-10.0 L 14.8333,-10.0 L 14.8056,-10.0 L 14.7778,-10.0 L 14.75,-10.0 L 14.7222,-10.0 L 14.6944,-10.0 L 14.6667,-10.0 L 14.6389,-10.0 L 14.6111,-10.0 L 14.5833,-10.0 L 14.5556,-10.0 L 14.5278,-10.0 L 14.5,-10.0 L 14.4722,-10.0 L 14.4444,-10.0 L 14.4167,-10.0 L 14.3889,-10.0 L 14.3611,-10.0 L 14.3333,-10.0 L 14.3056,-10.0 L 14.2778,-10.0 L 14.25,-10.0 L 14.2222,-10.0 L 14.1944,-10.0 L 14.1667,-10.0 L 14.1389,-10.0 L 14.1111,-10.0 L 14.0833,-10.0 L 14.0556,-10.0 L 14.0278,-10.0 L 14.0,-10.0" />
    </g>
    <g fill="none" stroke="rgb(110,110,110)" stroke-width="0.3" id="Hidden" stroke-dasharray="3.6 0.9">
      <path d="M 10.0,0.0 L 9.9619,0.8716 L 9.8481,1.7365 L 9.6593,2.5882 L 9.3969,3.4202 L 9.0631,4.2262 L 8.6603,5.0 L 8.1915,5.7358 L 7.6604,6.4279 L 7.0711,7.0711 L 6.4279,7.6604 L 5.7358,8.1915 L 5.0,8.6603 L 4.2262,9.0631 L 3.4202,9.3969 L 2.5882,9.6593 L 1.7365,9.8481 L 0.8716,9.9619 L 0.0,10.0 L -0.8716,9.9619 L -1.7365,9.8481 L -2.5882,9.6593 L -3.4202,9.3969 L -4.2262,9.0631 L -5.0,8.6603 L -5.7358,8.1915 L -6.4279,7.6604 L -7.0711,7.0711 L -7.6604,6.4279 L -8.1915,5.7358 L -8.6603,5.0 L -9.0631,4.2262 L -9.3969,3.4202 L -9.6593,2.5882 L -9.8481,1.7365 L -9.9619,0.8716 L -10.0,0.0 L -9.9619,-0.8716 L -9.8481,-1.7365 L -9.6593,-2.5882 L -9.3969,-3.4202 L -9.0631,-4.2262 L -8.6603,-5.0 L -8.1915,-5.7358 L -7.6604,-6.4279 L -7.0711,-7.0711 L -6.4279,-7.6604 L -5.7358,-8.1915 L -5.0,-8.6603 L -4.2262,-9.0631 L -3.4202,-9.3969 L -2.5882,-9.6593 L -1.7365,-9.8481 L -0.8716,-9.9619 L -0.0,-10.0 L 0.8716,-9.9619 L 1.7365,-9.8481 L 2.5882,-9.6593 L 3.4202,-9.3969 L 4.2262,-9.0631 L 5.0,-8.6603 L 5.7358,-8.1915 L 6.4279,-7.6604 L 7.0711,-7.0711 L 7.6604,-6.4279 L 8.1915,-5.7358 L 8.6603,-5.0 L 9.0631,-4.2262 L 9.3969,-3.4202 L 9.6593,-2.5882 L 9.8481,-1.7365 L 9.9619,-0.8716 L 10.0,-0.0" />
      <path d="M 6.5,0.0 L 6.4753,0.5665 L 6.4013,1.1287 L 6.2785,1.6823 L 6.108,2.2231 L 5.891,2.747 L 5.6292,3.25 L 5.3245,3.7282 L 4.9793,4.1781 L 4.5962,4.5962 L 4.1781,4.9793 L 3.7282,5.3245 L 3.25,5.6292 L 2.747,5.891 L 2.2231,6.108 L 1.6823,6.2785 L 1.1287,6.4013 L 0.5665,6.4753 L -0.0,6.5 L -0.5665,6.4753 L -1.1287,6.4013 L -1.6823,6.2785 L -2.2231,6.108 L -2.747,5.891 L -3.25,5.6292 L -3.7282,5.3245 L -4.1781,4.9793 L -4.5962,4.5962 L -4.9793,4.1781 L -5.3245,3.7282 L -5.6292,3.25 L -5.891,2.747 L -6.108,2.2231 L -6.2785,1.6823 L -6.4013,1.1287 L -6.4753,0.5665 L -6.5,-0.0 L -6.4753,-0.5665 L -6.4013,-1.1287 L -6.2785,-1.6823 L -6.108,-2.2231 L -5.891,-2.747 L -5.6292,-3.25 L -5.3245,-3.7282 L -4.9793,-4.1781 L -4.5962,-4.5962 L -4.1781,-4.9793 L -3.7282,-5.3245 L -3.25,-5.6292 L -2.747,-5.891 L -2.2231,-6.108 L -1.6823,-6.2785 L -1.1287,-6.4013 L -0.5665,-6.4753 L 0.0,-6.5 L 0.5665,-6.4753 L 1.1287,-6.4013 L 1.6823,-6.2785 L 2.2231,-6.108 L 2.747,-5.891 L 3.25,-5.6292 L 3.7282,-5.3245 L 4.1781,-4.9793 L 4.5962,-4.5962 L 4.9793,-4.1781 L 5.3245,-3.7282 L 5.6292,-3.25 L 5.891,-2.747 L 6.108,-2.2231 L 6.2785,-1.6823 L 6.4013,-1.1287 L 6.4753,-0.5665 L 6.5,0.0" />
      <path d="M 14.0,10.0 L 14.0,9.7222 L 14.0,9.4444 L 14.0,9.1667 L 14.0,8.8889 L 14.0,8.6111 L 14.0,8.3333 L 14.0,8.0556 L 14.0,7.7778 L 14.0,7.5 L 14.0,7.2222 L 14.0,6.9444 L 14.0,6.6667 L 14.0,6.3889 L 14.0,6.1111 L 14.0,5.8333 L 14.0,5.5556 L 14.0,5.2778 L 14.0,5.0 L 14.0,4.7222 L 14.0,4.4444 L 14.0,4.1667 L 14.0,3.8889 L 14.0,3.6111 L 14.0,3.3333 L 14.0,3.0556 L 14.0,2.7778 L 14.0,2.5 L 14.0,2.2222 L 14.0,1.9444 L 14.0,1.6667 L 14.0,1.3889 L 14.0,1.1111 L 14.0,0.8333 L 14.0,0.5556 L 14.0,0.2778 L 14.0,0.0 L 14.0,-0.2778 L 14.0,-0.5556 L 14.0,-0.8333 L 14.0,-1.1111 L 14.0,-1.3889 L 14.0,-1.6667 L 14.0,-1.9444 L 14.0,-2.2222 L 14.0,-2.5 L 14.0,-2.7778 L 14.0,-3.0556 L 14.0,-3.3333 L 14.0,-3.6111 L 14.0,-3.8889 L 14.0,-4.1667 L 14.0,-4.4444 L 14.0,-4.7222 L 14.0,-5.0 L 14.0,-5.2778 L 14.0,-5.5556 L 14.0,-5.8333 L 14.0,-6.1111 L 14.0,-6.3889 L 14.0,-6.6667 L 14.0,-6.9444 L 14.0,-7.2222 L 14.0,-7.5 L 14.0,-7.7778 L 14.0,-8.0556 L 14.0,-8.3333 L 14.0,-8.6111 L 14.0,-8.8889 L 14.0,-9.1667 L 14.0,-9.4444 L 14.0,-9.7222 L 14.0,-10.0" />
      <path d="M 16.0,10.0 L 16.0,9.7222 L 16.0,9.4444 L 16.0,9.1667 L 16.0,8.8889 L 16.0,8.6111 L 16.0,8.3333 L 16.0,8.0556 L 16.0,7.7778 L 16.0,7.5 L 16.0,7.2222 L 16.0,6.9444 L 16.0,6.6667 L 16.0,6.3889 L 16.0,6.1111 L 16.0,5.8333 L 16.0,5.5556 L 16.0,5.2778 L 16.0,5.0 L 16.0,4.7222 L 16.0,4.4444 L 16.0,4.1667 L 16.0,3.8889 L 16.0,3.6111 L 16.0,3.3333 L 16.0,3.0556 L 16.0,2.7778 L 16.0,2.5 L 16.0,2.2222 L 16.0,1.9444 L 16.0,1.6667 L 16.0,1.3889 L 16.0,1.1111 L 16.0,0.8333 L 16.0,0.5556 L 16.0,0.2778 L 16.0,0.0 L 16.0,-0.2778 L 16.0,-0.5556 L 16.0,-0.8333 L 16.0,-1.1111 L 16.0,-1.3889 L 16.0,-1.6667 L 16.0,-1.9444 L 16.0,-2.2222 L 16.0,-2.5 L 16.0,-2.7778 L 16.0,-3.0556 L 16.0,-3.3333 L 16.0,-3.6111 L 16.0,-3.8889 L 16.0,-4.1667 L 16.0,-4.4444 L 16.0,-4.7222 L 16.0,-5.0 L 16.0,-5.2778 L 16.0,-5.5556 L 16.0,-5.8333 L 16.0,-6.1111 L 16.0,-6.3889 L 16.0,-6.6667 L 16.0,-6.9444 L 16.0,-7.2222 L 16.0,-7.5 L 16.0,-7.7778 L 16.0,-8.0556 L 16.0,-8.3333 L 16.0,-8.6111 L 16.0,-8.8889 L 16.0,-9.1667 L 16.0,-9.4444 L 16.0,-9.7222 L 16.0,-10.0" />
      <path d="M 14.0,6.5 L 14.0,6.3194 L 14.0,6.1389 L 14.0,5.9583 L 14.0,5.7778 L 14.0,5.5972 L 14.0,5.4167 L 14.0,5.2361 L 14.0,5.0556 L 14.0,4.875 L 14.0,4.6944 L 14.0,4.5139 L 14.0,4.3333 L 14.0,4.1528 L 14.0,3.9722 L 14.0,3.7917 L 14.0,3.6111 L 14.0,3.4306 L 14.0,3.25 L 14.0,3.0694 L 14.0,2.8889 L 14.0,2.7083 L 14.0,2.5278 L 14.0,2.3472 L 14.0,2.1667 L 14.0,1.9861 L 14.0,1.8056 L 14.0,1.625 L 14.0,1.4444 L 14.0,1.2639 L 14.0,1.0833 L 14.0,0.9028 L 14.0,0.7222 L 14.0,0.5417 L 14.0,0.3611 L 14.0,0.1806 L 14.0,0.0 L 14.0,-0.1806 L 14.0,-0.3611 L 14.0,-0.5417 L 14.0,-0.7222 L 14.0,-0.9028 L 14.0,-1.0833 L 14.0,-1.2639 L 14.0,-1.4444 L 14.0,-1.625 L 14.0,-1.8056 L 14.0,-1.9861 L 14.0,-2.1667 L 14.0,-2.3472 L 14.0,-2.5278 L 14.0,-2.7083 L 14.0,-2.8889 L 14.0,-3.0694 L 14.0,-3.25 L 14.0,-3.4306 L 14.0,-3.6111 L 14.0,-3.7917 L 14.0,-3.9722 L 14.0,-4.1528 L 14.0,-4.3333 L 14.0,-4.5139 L 14.0,-4.6944 L 14.0,-4.875 L 14.0,-5.0556 L 14.0,-5.2361 L 14.0,-5.4167 L 14.0,-5.5972 L 14.0,-5.7778 L 14.0,-5.9583 L 14.0,-6.1389 L 14.0,-6.3194 L 14.0,-6.5" />
      <path d="M 14.0,-6.5 L 14.0,-6.3194 L 14.0,-6.1389 L 14.0,-5.9583 L 14.0,-5.7778 L 14.0,-5.5972 L 14.0,-5.4167 L 14.0,-5.2361 L 14.0,-5.0556 L 14.0,-4.875 L 14.0,-4.6944 L 14.0,-4.5139 L 14.0,-4.3333 L 14.0,-4.1528 L 14.0,-3.9722 L 14.0,-3.7917 L 14.0,-3.6111 L 14.0,-3.4306 L 14.0,-3.25 L 14.0,-3.0694 L 14.0,-2.8889 L 14.0,-2.7083 L 14.0,-2.5278 L 14.0,-2.3472 L 14.0,-2.1667 L 14.0,-1.9861 L 14.0,-1.8056 L 14.0,-1.625 L 14.0,-1.4444 L 14.0,-1.2639 L 14.0,-1.0833 L 14.0,-0.9028 L 14.0,-0.7222 L 14.0,-0.5417 L 14.0,-0.3611 L 14.0,-0.1806 L 14.0,0.0 L 14.0,0.1806 L 14.0,0.3611 L 14.0,0.5417 L 14.0,0.7222 L 14.0,0.9028 L 14.0,1.0833 L 14.0,1.2639 L 14.0,1.4444 L 14.0,1.625 L 14.0,1.8056 L 14.0,1.9861 L 14.0,2.1667 L 14.0,2.3472 L 14.0,2.5278 L 14.0,2.7083 L 14.0,2.8889 L 14.0,3.0694 L 14.0,3.25 L 14.0,3.4306 L 14.0,3.6111 L 14.0,3.7917 L 14.0,3.9722 L 14.0,4.1528 L 14.0,4.3333 L 14.0,4.5139 L 14.0,4.6944 L 14.0,4.875 L 14.0,5.0556 L 14.0,5.2361 L 14.0,5.4167 L 14.0,5.5972 L 14.0,5.7778 L 14.0,5.9583 L 14.0,6.1389 L 14.0,6.3194 L 14.0,6.5" />
      <path d="M 16.0,6.5 L 16.0,6.3194 L 16.0,6.1389 L 16.0,5.9583 L 16.0,5.7778 L 16.0,5.5972 L 16.0,5.4167 L 16.0,5.2361 L 16.0,5.0556 L 16.0,4.875 L 16.0,4.6944 L 16.0,4.5139 L 16.0,4.3333 L 16.0,4.1528 L 16.0,3.9722 L 16.0,3.7917 L 16.0,3.6111 L 16.0,3.4306 L 16.0,3.25 L 16.0,3.0694 L 16.0,2.8889 L 16.0,2.7083 L 16.0,2.5278 L 16.0,2.3472 L 16.0,2.1667 L 16.0,1.9861 L 16.0,1.8056 L 16.0,1.625 L 16.0,1.4444 L 16.0,1.2639 L 16.0,1.0833 L 16.0,0.9028 L 16.0,0.7222 L 16.0,0.5417 L 16.0,0.3611 L 16.0,0.1806 L 16.0,0.0 L 16.0,-0.1806 L 16.0,-0.3611 L 16.0,-0.5417 L 16.0,-0.7222 L 16.0,-0.9028 L 16.0,-1.0833 L 16.0,-1.2639 L 16.0,-1.4444 L 16.0,-1.625 L 16.0,-1.8056 L 16.0,-1.9861 L 16.0,-2.1667 L 16.0,-2.3472 L 16.0,-2.5278 L 16.0,-2.7083 L 16.0,-2.8889 L 16.0,-3.0694 L 16.0,-3.25 L 16.0,-3.4306 L 16.0,-3.6111 L 16.0,-3.7917 L 16.0,-3.9722 L 16.0,-4.1528 L 16.0,-4.3333 L 16.0,-4.5139 L 16.0,-4.6944 L 16.0,-4.875 L 16.0,-5.0556 L 16.0,-5.2361 L 16.0,-5.4167 L 16.0,-5.5972 L 16.0,-5.7778 L 16.0,-5.9583 L 16.0,-6.1389 L 16.0,-6.3194 L 16.0,-6.5" />
      <path d="M 16.0,-6.5 L 16.0,-6.3194 L 16.0,-6.1389 L 16.0,-5.9583 L 16.0,-5.7778 L 16.0,-5.5972 L 16.0,-5.4167 L 16.0,-5.2361 L 16.0,-5.0556 L 16.0,-4.875 L 16.0,-4.6944 L 16.0,-4.5139 L 16.0,-4.3333 L 16.0,-4.1528 L 16.0,-3.9722 L 16.0,-3.7917 L 16.0,-3.6111 L 16.0,-3.4306 L 16.0,-3.25 L 16.0,-3.0694 L 16.0,-2.8889 L 16.0,-2.7083 L 16.0,-2.5278 L 16.0,-2.3472 L 16.0,-2.1667 L 16.0,-1.9861 L 16.0,-1.8056 L 16.0,-1.625 L 16.0,-1.4444 L 16.0,-1.2639 L 16.0,-1.0833 L 16.0,-0.9028 L 16.0,-0.7222 L 16.0,-0.5417 L 16.0,-0.3611 L 16.0,-0.1806 L 16.0,0.0 L 16.0,0.1806 L 16.0,0.3611 L 16.0,0.5417 L 16.0,0.7222 L 16.0,0.9028 L 16.0,1.0833 L 16.0,1.2639 L 16.0,1.4444 L 16.0,1.625 L 16.0,1.8056 L 16.0,1.9861 L 16.0,2.1667 L 16.0,2.3472 L 16.0,2.5278 L 16.0,2.7083 L 16.0,2.8889 L 16.0,3.0694 L 16.0,3.25 L 16.0,3.4306 L 16.0,3.6111 L 16.0,3.7917 L 16.0,3.9722 L 16.0,4.1528 L 16.0,4.3333 L 16.0,4.5139 L 16.0,4.6944 L 16.0,4.875 L 16.0,5.0556 L 16.0,5.2361 L 16.0,5.4167 L 16.0,5.5972 L 16.0,5.7778 L 16.0,5.9583 L 16.0,6.1389 L 16.0,6.3194 L 16.0,6.5" />
      <path d="M 16.0,6.5 L 15.9722,6.5 L 15.9444,6.5 L 15.9167,6.5 L 15.8889,6.5 L 15.8611,6.5 L 15.8333,6.5 L 15.8056,6.5 L 15.7778,6.5 L 15.75,6.5 L 15.7222,6.5 L 15.6944,6.5 L 15.6667,6.5 L 15.6389,6.5 L 15.6111,6.5 L 15.5833,6.5 L 15.5556,6.5 L 15.5278,6.5 L 15.5,6.5 L 15.4722,6.5 L 15.4444,6.5 L 15.4167,6.5 L 15.3889,6.5 L 15.3611,6.5 L 15.3333,6.5 L 15.3056,6.5 L 15.2778,6.5 L 15.25,6.5 L 15.2222,6.5 L 15.1944,6.5 L 15.1667,6.5 L 15.1389,6.5 L 15.1111,6.5 L 15.0833,6.5 L 15.0556,6.5 L 15.0278,6.5 L 15.0,6.5 L 14.9722,6.5 L 14.9444,6.5 L 14.9167,6.5 L 14.8889,6.5 L 14.8611,6.5 L 14.8333,6.5 L 14.8056,6.5 L 14.7778,6.5 L 14.75,6.5 L 14.7222,6.5 L 14.6944,6.5 L 14.6667,6.5 L 14.6389,6.5 L 14.6111,6.5 L 14.5833,6.5 L 14.5556,6.5 L 14.5278,6.5 L 14.5,6.5 L 14.4722,6.5 L 14.4444,6.5 L 14.4167,6.5 L 14.3889,6.5 L 14.3611,6.5 L 14.3333,6.5 L 14.3056,6.5 L 14.2778,6.5 L 14.25,6.5 L 14.2222,6.5 L 14.1944,6.5 L 14.1667,6.5 L 14.1389,6.5 L 14.1111,6.5 L 14.0833,6.5 L 14.0556,6.5 L 14.0278,6.5 L 14.0,6.5" />
      <path d="M 16.0,-6.5 L 15.9722,-6.5 L 15.9444,-6.5 L 15.9167,-6.5 L 15.8889,-6.5 L 15.8611,-6.5 L 15.8333,-6.5 L 15.8056,-6.5 L 15.7778,-6.5 L 15.75,-6.5 L 15.7222,-6.5 L 15.6944,-6.5 L 15.6667,-6.5 L 15.6389,-6.5 L 15.6111,-6.5 L 15.5833,-6.5 L 15.5556,-6.5 L 15.5278,-6.5 L 15.5,-6.5 L 15.4722,-6.5 L 15.4444,-6.5 L 15.4167,-6.5 L 15.3889,-6.5 L 15.3611,-6.5 L 15.3333,-6.5 L 15.3056,-6.5 L 15.2778,-6.5 L 15.25,-6.5 L 15.2222,-6.5 L 15.1944,-6.5 L 15.1667,-6.5 L 15.1389,-6.5 L 15.1111,-6.5 L 15.0833,-6.5 L 15.0556,-6.5 L 15.0278,-6.5 L 15.0,-6.5 L 14.9722,-6.5 L 14.9444,-6.5 L 14.9167,-6.5 L 14.8889,-6.5 L 14.8611,-6.5 L 14.8333,-6.5 L 14.8056,-6.5 L 14.7778,-6.5 L 14.75,-6.5 L 14.7222,-6.5 L 14.6944,-6.5 L 14.6667,-6.5 L 14.6389,-6.5 L 14.6111,-6.5 L 14.5833,-6.5 L 14.5556,-6.5 L 14.5278,-6.5 L 14.5,-6.5 L 14.4722,-6.5 L 14.4444,-6.5 L 14.4167,-6.5 L 14.3889,-6.5 L 14.3611,-6.5 L 14.3333,-6.5 L 14.3056,-6.5 L 14.2778,-6.5 L 14.25,-6.5 L 14.2222,-6.5 L 14.1944,-6.5 L 14.1667,-6.5 L 14.1389,-6.5 L 14.1111,-6.5 L 14.0833,-6.5 L 14.0556,-6.5 L 14.0278,-6.5 L 14.0,-6.5" />
    </g>
  </g>
</svg>