<?xml version='1.0' encoding='utf-8'?>
<svg width="54.32mm" height="47.32mm" viewBox="-23.66 -23.66 54.32 47.32" version="1.1" xmlns="http://www.w3.org/2000/svg">
  <g transform="scale(1,-1)" stroke-linecap="round">
    <g fill="none" stroke="rgb(0,0,0)" stroke-width="0.4" id="Visible">
      <path d="M 0.0,18.5 L -1.6124,18.4296 L -3.2125,18.2189 L -4.7882,17.8696 L -6.3274,17.3843 L -7.8184,16.7667 L -9.25,16.0215 L -10.6112,15.1543 L -11.8916,14.1718 L -13.0815,13.0815 L -14.1718,11.8916 L -15.1543,10.6112 L -16.0215,9.25 L -16.7667,7.8184 L -17.3843,6.3274 L -17.8696,4.7882 L -18.2189,3.2125 L -18.4296,1.6124 L -18.5,0.0 L -18.4296,-1.6124 L -18.2189,-3.2125 L -17.8696,-4.7882 L -17.3843,-6.3274 L -16.7667,-7.8184 L -16.0215,-9.25 L -15.1543,-10.6112 L -14.1718,-11.8916 L -13.0815,-13.0815 L -11.8916,-14.1718 L -10.6112,-15.1543 L -9.25,-16.0215 L -7.8184,-16.7667 L -6.3274,-17.3843 L -4.7882,-17.8696 L -3.2125,-18.2189 L -1.6124,-18.4296 L -0.0,-18.5 L 1.6124,-18.4296 L 3.2125,-18.2189 L 4.7882,-17.8696 L 6.3274,-17.3843 L 7.8184,-16.7667 L 9.25,-16.0215 L 10.6112,-15.1543 L 11.8916,-14.1718 L 13.0815,-13.0815 L 14.1718,-11.8916 L 15.1543,-10.6112 L 16.0215,-9.25 L 16.7667,-7.8184 L 17.3843,-6.3274 L 17.8696,-4.7882 L 18.2189,-3.2125 L 18.4296,-1.6124 L 18.5,-0.0 L 18.4296,1.6124 L 18.2189,3.2125 L 17.8696,4.7882 L 17.3843,6.3274 L 16.7667,7.8184 L 16.0215,9.25 L 15.1543,10.6112 L 14.1718,11.8916 L 13.0815,13.0815 L 11.8916,14.1718 L 10.6112,15.1543 L 9.25,16.0215 L 7.8184,16.7667 L 6.3274,17.3843 L 4.7882,17.8696 L 3.2125,18.2189 L 1.6124,18.4296 L 0.0,18.5" />
      <path d="M 0.0,6.5 L -0.5665,6.4753 L -1.1287,6.4013 L -1.6823,6.2785 L -2.2231,6.108 L -2.747,5.891 L -3.25,5.6292 L -3.7282,5.3245 L -4.1781,4.9793 L -4.5962,4.5962 L -4.9793,4.1781 L -5.3245,3.7282 L -5.6292,3.25 L -5.891,2.747 L -6.108,2.2231 L -6.2785,1.6823 L -6.4013,1.1287 L -6.4753,0.5665 L -6.5,-0.0 L -6.4753,-0.5665 L -6.4013,-1.1287 L -6.2785,-1.6823 L -6.108,-2.2231 L -5.891,-2.747 L -5.6292,-3.25 L -5.3245,-3.7282 L -4.9793,-4.1781 L -4.5962,-4.5962 L -4.1781,-4.9793 L -3.7282,-5.3245 L -3.25,-5.6292 L -2.747,-5.891 L -2.2231,-6.108 L -1.6823,-6.2785 L -1.1287,-6.4013 L -0.5665,-6.4753 L 0.0,-6.5 L 0.5665,-6.4753 L 1.1287,-6.4013 L 1.6823,-6.2785 L 2.2231,-6.108 L 2.747,-5.891 L 3.25,-5.6292 L 3.7282,-5.3245 L 4.1781,-4.9793 L 4.5962,-4.5962 L 4.9793,-4.1781 L 5.3245,-3.7282 L 5.6292,-3.25 L 5.891,-2.747 L 6.108,-2.2231 L 6.2785,-1.6823 L 6.4013,-1.1287 L 6.4753,-0.5665 L 6.5,0.0 L 6.4753,0.5665 L 6.4013,1.1287 L 6.2785,1.6823 L 6.108,2.2231 L 5.891,2.747 L 5.6292,3.25 L 5.3245,3.7282 L 4.9793,4.1781 L 4.5962,4.5962 L 4.1781,4.9793 L 3.7282,5.3245 L 3.25,5.6292 L 2.747,5.891 L 2.2231,6.108 L 1.6823,6.2785 L 1.1287,6.4013 L 0.5665,6.4753 L -0.0,6.5" />
      <path d="M 22.5,-18.5 L 22.5,-17.9861 L 22.5,-17.4722 L 22.5,-16.9583 L 22.5,-16.4444 L 22.5,-15.9306 L 22.5,-15.4167 L 22.5,-14.9028 L 22.5,-14.3889 L 22.5,-13.875 L 22.5,-13.3611 L 22.5,-12.8472 L 22.5,-12.3333 L 22.5,-11.8194 L 22.5,-11.3056 L 22.5,-10.7917 L 22.5,-10.2778 L 22.5,-9.7639 L 22.5,-9.25 L 22.5,-8.7361 L 22.5,-8.2222 L 22.5,-7.7083 L 22.5,-7.1944 L 22.5,-6.6806 L 22.5,-6.1667 L 22.5,-5.6528 L 22.5,-5.1389 L 22.5,-4.625 L 22.5,-4.1111 L 22.5,-3.5972 L 22.5,-3.0833 L 22.5,-2.5694 L 22.5,-2.0556 L 22.5,-1.5417 L 22.5,-1.0278 L 22.5,-0.5139 L 22.5,0.0 L 22.5,0.5139 L 22.5,1.0278 L 22.5,1.5417 L 22.5,2.0556 L 22.5,2.5694 L 22.5,3.0833 L 22.5,3.5972 L 22.5,4.1111 L 22.5,4.625 L 22.5,5.1389 L 22.5,5.6528 L 22.5,6.1667 L 22.5,6.6806 L 22.5,7.1944 L 22.5,7.7083 L 22.5,8.2222 L 22.5,8.7361 L 22.5,9.25 L 22.5,9.7639 L 22.5,10.2778 L 22.5,10.7917 L 22.5,11.3056 L 22.5,11.8194 L 22.5,12.3333 L 22.5,12.8472 L 22.5,13.3611 L 22.5,13.875 L 22.5,14.3889 L 22.5,14.9028 L 22.5,15.4167 L 22.5,15.9306 L 22.5,16.4444 L 22.5,16.9583 L 22.5,17.4722 L 22.5,17.9861 L 22.5,18.5" />
      <path d="M 25.5,18.5 L 25.4583,18.5 L 25.4167,18.5 L 25.375,18.5 L 25.3333,18.5 L 25.2917,18.5 L 25.25,18.5 L 25.2083,18.5 L 25.1667,18.5 L 25.125,18.5 L 25.0833,18.5 L 25.0417,18.5 L 25.0,18.5 L 24.9583,18.5 L 24.9167,18.5 L 24.875,18.5 L 24.8333,18.5 L 24.7917,18.5 L 24.75,18.5 L 24.7083,18.5 L 24.6667,18.5 L 24.625,18.5 L 24.5833,18.5 L 24.5417,18.5 L 24.5,18.5 L 24.4583,18.5 L 24.4167,18.5 L 24.375,18.5 L 24.3333,18.5 L 24.2917,18.5 L 24.25,18.5 L 24.2083,18.5 L 24.1667,18.5 L 24.125,18.5 L 24.0833,18.5 L 24.0417,18.5 L 24.0,18.5 L 23.9583,18.5 L 23.9167,18.5 L 23.875,18.5 L 23.8333,18.5 L 23.7917,18.5 L 23.75,18.5 L 23.7083,18.5 L 23.6667,18.5 L 23.625,18.5 L 23.5833,18.5 L 23.5417,18.5 L 23.5,18.5 L 23.4583,18.5 L 23.4167,18.5 L 23.375,18.5 L 23.3333,18.5 L 23.2917,18.5 L 23.25,18.5 L 23.2083,18.5 L 23.1667,18.5 L 23.125,18.5 L 23.0833,18.5 L 23.0417,18.5 L 23.0,18.5 L 22.9583,18.5 L 22.9167,18.5 L 22.875,18.5 L 22.8333,18.5 L 22.7917,18.5 L 22.75,18.5 L 22.7083,18.5 L 22.6667,18.5 L 22.625,18.5 L 22.5833,18.5 L 22.5417,18.5 L 22.5,18.5" />
      <path d="M 25.5,-18.5 L 25.5,-17.9861 L 25.5,-17.4722 L 25.5,-16.9583 L 25.5,-16.4444 L 25.5,-15.9306 L 25.5,-15.4167 L 25.5,-14.9028 L 25.5,-14.3889 L 25.5,-13.875 L 25.5,-13.3611 L 25.5,-12.8472 L 25.5,-12.3333 L 25.5,-11.8194 L 25.5,-11.3056 L 25.5,-10.7917 L 25.5,-10.2778 L 25.5,-9.7639 L 25.5,-9.25 L 25.5,-8.7361 L 25.5,-8.2222 L 25.5,-7.7083 L 25.5,-7.1944 L 25.5,-6.6806 L 25.5,-6.1667 L 25.5,-5.6528 L 25.5,-5.1389 L 25.5,-4.625 L 25.5,-4.1111 L 25.5,-3.5972 L 25.5,-3.0833 L 25.5,-2.5694 L 25.5,-2.0556 L 25.5,-1.5417 L 25.5,-1.0278 L 25.5,-0.5139 L 25.5,0.0 L 25.5,0.5139 L 25.5,1.0278 L 25.5,1.5417 L 25.5,2.0556 L 25.5,2.5694 L 25.5,3.0833 L 25.5,3.5972 L 25.5,4.1111 L 25.5,4.625 L 25.5,5.1389 L 25.5,5.6528 L 25.5,6.1667 L 25.5,6.6806 L 25.5,7.1944 L 25.5,7.7083 L 25.5,8.2222 L 25.5,8.7361 L 25.5,9.25 L 25.5,9.7639 L 25.5,10.2778 L 25.5,10.7917 L 25.5,11.3056 L 25.5,11.8194 L 25.5,12.3333 L 25.5,12.8472 L 25.5,13.3611 L 25.5,13.875 L 25.5,14.3889 L 25.5,14.9028 L 25.5,15.4167 L 25.5,15.9306 L 25.5,16.4444 L 25.5,16.9583 L 25.5,17.4722 L 25.5,17.9861 L 25.5,18.5" />
      <path d="M 25.5,-18.5 L 25.4583,-18.5 L 25.4167,-18.5 L 25.375,-18.5 L 25.3333,-18.5 L 25.2917,-18.5 L 25.25,-18.5 L 25.2083,-18.5 L 25.1667,-18.5 L 25.125,-18.5 L 25.0833,-18.5 L 25.0417,-18.5 L 25.0,-18.5 L 24.9583,-18.5 L 24.9167,-18.5 L 24.875,-18.5 L 24.8333,-18.5 L 24.7917,-18.5 L 24.75,-18.5 L 24.7083,-18.5 L 24.6667,-18.5 L 24.625,-18.5 L 24.5833,-18.5 L 24.5417,-18.5 L 24.5,-18.5 L 24.4583,-18.5 L 24.4167,-18.5 L 24.375,-18.5 L 24.3333,-18.5 L 24.2917,-18.5 L 24.25,-18.5 L 24.2083,-18.5 L 24.1667,-18.5 L 24.125,-18.5 L 24.0833,-18.5 L 24.0417,-18.5 L 24.0,-18.5 L 23.9583,-18.5 L 23.9167,-18.5 L 23.875,-18.5 L 23.8333,-18.5 L 23.7917,-18.5 L 23.75,-18.5 L 23.7083,-18.5 L 23.6667,-18.5 L 23.625,-18.5 L 23.5833,-18.5 L 23.5417,-18.5 L 23.5,-18.5 L 23.4583,-18.5 L 23.4167,-18.5 L 23.375,-18.5 L 23.3333,-18.5 L 23.2917,-18.5 L 23.25,-18.5 L 23.2083,-18.5 L 23.1667,-18.5 L 23.125,-18.5 L 23.0833,-18.5 L 23.0417,-18.5 L 23.0,-18.5 L 22.9583,-18.5 L 22.9167,-18.5 L 22.875,-18.5 L 22.8333,-18.5 L 22.7917,-18.5 L 22.75,-18.5 L 22.7083,-18.5 L 22.6667,-18.5 L 22.625,-18.5 L 22.5833,-18.5 L 22.5417,-18.5 L 22.5,-18.5" />
    </g>
    <g fill="none" stroke="rgb(110,110,110)" stroke-width="0.3" id="Hidden" stroke-dasharray="3.6 0.9">
      <path d="M 0.0,18.5 L -1.6124,18.4296 L -3.2125,18.2189 L -4.7882,17.8696 L -6.3274,17.3843 L -7.8184,16.7667 L -9.25,16.0215 L -10.6112,15.1543 L -11.8916,14.1718 L -13.0815,13.0815 L -14.1718,11.8916 L -15.1543,10.6112 L -16.0215,9.25 L -16.7667,7.8184 L -17.3843,6.3274 L -17.8696,4.7882 L -18.2189,3.2125 L -18.4296,1.6124 L -18.5,0.0 L -18.4296,-1.6124 L -18.2189,-3.2125 L -17.8696,-4.7882 L -17.3843,-6.3274 L -16.7667,-7.8184 L -16.0215,-9.25 L -15.1543,-10.6112 L -14.1718,-11.8916 L -13.0815,-13.0815 L -11.8916,-14.1718 L -10.6112,-15.1543 L -9.25,-16.0215 L -7.8184,-16.7667 L -6.3274,-17.3843 L -4.7882,-17.8696 L -3.2125,-18.2189 L -1.6124,-18.4296 L -0.0,-18.5 L 1.6124,-18.4296 L 3.2125,-18.2189 L 4.7882,-17.8696 L 6.3274,-17.3843 L 7.8184,-16.7667 L 9.25,-16.0215 L 10.6112,-15.1543 L 11.8916,-14.1718 L 13.0815,-13.0815 L 14.1718,-11.8916 L 15.1543,-10.6112 L 16.0215,-9.25 L 16.7667,-7.8184 L 17.3843,-6.3274 L 17.8696,-4.7882 L 18.2189,-3.2125 L 18.4296,-1.6124 L 18.5,-0.0 L 18.4296,1.6124 L 18.2189,3.2125 L 17.8696,4.7882 L 17.3843,6.3274 L 16.7667,7.8184 L 16.0215,9.25 L 15.1543,10.6112 L 14.1718,11.8916 L 13.0815,13.0815 L 11.8916,14.1718 L 10.6112,15.1543 L 9.25,16.0215 L 7.8184,16.7667 L 6.3274,17.3843 L 4.7882,17.8696 L 3.2125,18.2189 L 1.6124,18.4296 L 0.0,18.5" />
      <path d="M 0.0,6.5 L -0.5665,6.4753 L -1.1287,6.4013 L -1.6823,6.2785 L -2.2231,6.108 L -2.747,5.891 L -3.25,5.6292 L -3.7282,5.3245 L -4.1781,4.9793 L -4.5962,4.5962 L -4.9793,4.1781 L -5.3245,3.7282 L -5.6292,3.25 L -5.891,2.747 L -6.108,2.2231 L -6.2785,1.6823 L -6.4013,1.1287 L -6.4753,0.5665 L -6.5,-0.0 L -6.4753,-0.5665 L -6.4013,-1.1287 L -6.2785,-1.6823 L -6.108,-2.2231 L -5.891,-2.747 L -5.6292,-3.25 L -5.3245,-3.7282 L -4.9793,-4.1781 L -4.5962,-4.5962 L -4.1781,-4.9793 L -3.7282,-5.3245 L -3.25,-5.6292 L -2.747,-5.891 L -2.2231,-6.108 L -1.6823,-6.2785 L -1.1287,-6.4013 L -0.5665,-6.4753 L 0.0,-6.5 L 0.5665,-6.4753 L 1.1287,-6.4013 L 1.6823,-6.2785 L 2.2231,-6.108 L 2.747,-5.891 L 3.25,-5.6292 L 3.7282,-5.3245 L 4.1781,-4.9793 L 4.5962,-4.5962 L 4.9793,-4.1781 L 5.3245,-3.7282 L 5.6292,-3.25 L 5.891,-2.747 L 6.108,-2.2231 L 6.2785,-1.6823 L 6.4013,-1.1287 L 6.4753,-0.5665 L 6.5,0.0 L 6.4753,0.5665 L 6.4013,1.1287 L 6.2785,1.6823 L 6.108,2.2231 L 5.891,2.747 L 5.6292,3.25 L 5.3245,3.7282 L 4.9793,4.1781 L 4.5962,4.5962 L 4.1781,4.9793 L 3.7282,5.3245 L 3.25,5.6292 L 2.747,5.891 L 2.2231,6.108 L 1.6823,6.2785 L 1.1287,6.4013 L 0.5665,6.4753 L -0.0,6.5" />
      <path d="M 22.5,18.5 L 22.5,17.9861 L 22.5,17.4722 L 22.5,16.9583 L 22.5,16.4444 L 22.5,15.9306 L 22.5,15.4167 L 22.5,14.9028 L 22.5,14.3889 L 22.5,13.875 L 22.5,13.3611 L 22.5,12.8472 L 22.5,12.3333 L 22.5,11.8194 L 22.5,11.3056 L 22.5,10.7917 L 22.5,10.2778 L 22.5,9.7639 L 22.5,9.25 L 22.5,8.7361 L 22.5,8.2222 L 22.5,7.7083 L 22.5,7.1944 L 22.5,6.6806 L 22.5,6.1667 L 22.5,5.6528 L 22.5,5.1389 L 22.5,4.625 L 22.5,4.1111 L 22.5,3.5972 L 22.5,3.0833 L 22.5,2.5694 L 22.5,2.0556 L 22.5,1.5417 L 22.5,1.0278 L 22.5,0.5139 L 22.5,0.0 L 22.5,-0.5139 L 22.5,-1.0278 L 22.5,-1.5417 L 22.5,-2.0556 L 22.5,-2.5694 L 22.5,-3.0833 L 22.5,-3.5972 L 22.5,-4.1111 L 22.5,-4.625 L 22.5,-5.1389 L 22.5,-5.6528 L 22.5,-6.1667 L 22.5,-6.6806 L 22.5,-7.1944 L 22.5,-7.7083 L 22.5,-8.2222 L 22.5,-8.7361 L 22.5,-9.25 L 22.5,-9.7639 L 22.5,-10.2778 L 22.5,-10.7917 L 22.5,-11.3056 L 22.5,-11.8194 L 22.5,-12.3333 L 22.5,-12.8472 L 22.5,-13.3611 L 22.5,-13.875 L 22.5,-14.3889 L 22.5,-14.9028 L 22.5,-15.4167 L 22.5,-15.9306 L 22.5,-16.4444 L 22.5,-16.9583 L 22.5,-17.4722 L 22.5,-17.9861 L 22.5,-18.5" />
      <path d="M 25.5,18.5 L 25.5,17.9861 L 25.5,17.4722 L 25.5,16.9583 L 25.5,16.4444 L 25.5,15.9306 L 25.5,15.4167 L 25.5,14.9028 L 25.5,14.3889 L 25.5,13.875 L 25.5,13.3611 L 25.5,12.8472 L 25.5,12.3333 L 25.5,11.8194 L 25.5,11.3056 L 25.5,10.7917 L 25.5,10.2778 L 25.5,9.7639 L 25.5,9.25 L 25.5,8.7361 L 25.5,8.2222 L 25.5,7.7083 L 25.5,7.1944 L 25.5,6.6806 L 25.5,6.1667 L 25.5,5.6528 L 25.5,5.1389 L 25.5,4.625 L 25.5,4.1111 L 25.5,3.5972 L 25.5,3.0833 L 25.5,2.5694 L 25.5,2.0556 L 25.5,1.5417 L 25.5,1.0278 L 25.5,0.5139 L 25.5,0.0 L 25.5,-0.5139 L 25.5,-1.0278 L 25.5,-1.5417 L 25.5,-2.0556 L 25.5,-2.5694 L 25.5,-3.0833 L 25.5,-3.5972 L 25.5,-4.1111 L 25.5,-4.625 L 25.5,-5.1389 L 25.5,-5.6528 L 25.5,-6.1667 L 25.5,-6.6806 L 25.5,-7.1944 L 25.5,-7.7083 L 25.5,-8.2222 L 25.5,-8.7361 L 25.5,-9.25 L 25.5,-9.7639 L 25.5,-10.2778 L 25.5,-10.7917 L 25.5,-11.3056 L 25.5,-11.8194 L 25.5,-12.3333 L 25.5,-12.8472 L 25.5,-13.3611 L 25.5,-13.875 L 25.5,-14.3889 L 25.5,-14.9028 L 25.5,-15.4167 L 25.5,-15.9306 L 25.5,-16.4444 L 25.5,-16.9583 L 25.5,-17.4722 L 25.5,-17.9861 L 25.5,-18.5" />
      <path d="M 22.5,6.5 L 22.5,6.3194 L 22.5,6.1389 L 22.5,5.9583 L 22.5,5.7778 L 22.5,5.5972 L 22.5,5.4167 L 22.5,5.2361 L 22.5,5.0556 L 22.5,4.875 L 22.5,4.6944 L 22.5,4.5139 L 22.5,4.3333 L 22.5,4.1528 L 22.5,3.9722 L 22.5,3.7917 L 22.5,3.6111 L 22.5,3.4306 L 22.5,3.25 L 22.5,3.0694 L 22.5,2.8889 L 22.5,2.7083 L 22.5,2.5278 L 22.5,2.3472 L 22.5,2.1667 L 22.5,1.9861 L 22.5,1.8056 L 22.5,1.625 L 22.5,1.4444 L 22.5,1.2639 L 22.5,1.0833 L 22.5,0.9028 L 22.5,0.7222 L 22.5,0.5417 L 22.5,0.3611 L 22.5,0.1806 L 22.5,0.0 L 22.5,-0.1806 L 22.5,-0.3611 L 22.5,-0.5417 L 22.5,-0.7222 L 22.5,-0.9028 L 22.5,-1.0833 L 22.5,-1.2639 L 22.5,-1.4444 L 22.5,-1.625 L 22.5,-1.8056 L 22.5,-1.9861 L 22.5,-2.1667 L 22.5,-2.3472 L 22.5,-2.5278 L 22.5,-2.7083 L 22.5,-2.8889 L 22.5,-3.0694 L 22.5,-3.25 L 22.5,-3.4306 L 22.5,-3.6111 L 22.5,-3.7917 L 22.5,-3.9722 L 22.5,-4.1528 L 22.5,-4.3333 L 22.5,-4.5139 L 22.5,-4.6944 L 22.5,-4.875 L 22.5,-5.0556 L 22.5,-5.2361 L 22.5,-5.4167 L 22.5,-5.5972 L 22.5,-5.7778 L 22.5,-5.9583 L 22.5,-6.1389 L 22.5,-6.3194 L 22.5,-6.5" />
      <path d="M 22.5,-6.5 L 22.5,-6.3194 L 22.5,-6.1389 L 22.5,-5.9583 L 22.5,-5.7778 L 22.5,-5.5972 L 22.5,-5.4167 L 22.5,-5.2361 L 22.5,-5.0556 L 22.5,-4.875 L 22.5,-4.6944 L 22.5,-4.5139 L 22.5,-4.3333 L 22.5,-4.1528 L 22.5,-3.9722 L 22.5,-3.7917 L 22.5,-3.6111 L 22.5,-3.4306 L 22.5,-3.25 L 22.5,-3.0694 L 22.5,-2.8889 L 22.5,-2.7083 L 22.5,-2.5278 L 22.5,-2.3472 L 22.5,-2.1667 L 22.5,-1.9861 L 22.5,-1.8056 L 22.5,-1.625 L 22.5,-1.4444 L 22.5,-1.2639 L 22.5,-1.0833 L 22.5,-0.9028 L 22.5,-0.7222 L 22.5,-0.5417 L 22.5,-0.3611 L 22.5,-0.1806 L 22.5,0.0 L 22.5,0.1806 L 22.5,0.3611 L 22.5,0.5417 L 22.5,0.7222 L 22.5,0.9028 L 22.5,1.0833 L 22.5,1.2639 L 22.5,1.4444 L 22.5,1.625 L 22.5,1.8056 L 22.5,1.9861 L 22.5,2.1667 L 22.5,2.3472 L 22.5,2.5278 L 22.5,2.7083 L 22.5,2.8889 L 22.5,3.0694 L 22.5,3.25 L 22.5,3.4306 L 22.5,3.6111 L 22.5,3.7917 L 22.5,3.9722 L 22.5,4.1528 L 22.5,4.3333 L 22.5,4.5139 L 22.5,4.6944 L 22.5,4.875 L 22.5,5.0556 L 22.5,5.2361 L 22.5,5.4167 L 22.5,5.5972 L 22.5,5.7778 L 22.5,5.9583 L 22.5,6.1389 L 22.5,6.3194 L 22.5,6.5" />
      <path d="M 25.5,6.5 L 25.5,6.3194 L 25.5,6.1389 L 25.5,5.9583 L 25.5,5.7778 L 25.5,5.5972 L 25.5,5.4167 L 25.5,5.2361 L 25.5,5.0556 L 25.5,4.875 L 25.5,4.6944 L 25.5,4.5139 L 25.5,4.3333 L 25.5,4.1528 L 25.5,3.9722 L 25.5,3.7917 L 25.5,3.6111 L 25.5,3.4306 L 25.5,3.25 L 25.5,3.0694 L 25.5,2.8889 L 25.5,2.7083 L 25.5,2.5278 L 25.5,2.3472 L 25.5,2.1667 L 25.5,1.9861 L 25.5,1.8056 L 25.5,1.625 L 25.5,1.4444 L 25.5,1.2639 L 25.5,1.0833 L 25.5,0.9028 L 25.5,0.7222 L 25.5,0.5417 L 25.5,0.3611 L 25.5,0.1806 L 25.5,0.0 L 25.5,-0.1806 L 25.5,-0.3611 L 25.5,-0.5417 L 25.5,-0.7222 L 25.5,-0.9028 L 25.5,-1.0833 L 25.5,-1.2639 L 25.5,-1.4444 L 25.5,-1.625 L 25.5,-1.8056 L 25.5,-1.9861 L 25.5,-2.1667 L 25.5,-2.3472 L 25.5,-2.5278 L 25.5,-2.7083 L 25.5,-2.8889 L 25.5,-3.0694 L 25.5,-3.25 L 25.5,-3.4306 L 25.5,-3.6111 L 25.5,-3.7917 L 25.5,-3.9722 L 25.5,-4.1528 L 25.5,-4.3333 L 25.5,-4.5139 L 25.5,-4.6944 L 25.5,-4.875 L 25.5,-5.0556 L 25.5,-5.2361 L 25.5,-5.4167 L 25.5,-5.5972 L 25.5,-5.7778 L 25.5,-5.9583 L 25.5,-6.1389 L 25.5,-6.3194 L 25.5,-6.5" />
      <path d="M 25.5,-6.5 L 25.5,-6.3194 L 25.5,-6.1389 L 25.5,-5.9583 L 25.5,-5.7778 L 25.5,-5.5972 L 25.5,-5.4167 L 25.5,-5.2361 L 25.5,-5.0556 L 25.5,-4.875 L 25.5,-4.6944 L 25.5,-4.5139 L 25.5,-4.3333 L 25.5,-4.1528 L 25.5,-3.9722 L 25.5,-3.7917 L 25.5,-3.6111 L 25.5,-3.4306 L 25.5,-3.25 L 25.5,-3.0694 L 25.5,-2.8889 L 25.5,-2.7083 L 25.5,-2.5278 L 25.5,-2.3472 L 25.5,-2.1667 L 25.5,-1.9861 L 25.5,-1.8056 L 25.5,-1.625 L 25.5,-1.4444 L 25.5,-1.2639 L 25.5,-1.0833 L 25.5,-0.9028 L 25.5,-0.7222 L 25.5,-0.5417 L 25.5,-0.3611 L 25.5,-0.1806 L 25.5,0.0 L 25.5,0.1806 L 25.5,0.3611 L 25.5,0.5417 L 25.5,0.7222 L 25.5,0.9028 L 25.5,1.0833 L 25.5,1.2639 L 25.5,1.4444 L 25.5,1.625 L 25.5,1.8056 L 25.5,1.9861 L 25.5,2.1667 L 25.5,2.3472 L 25.5,2.5278 L 25.5,2.7083 L 25.5,2.8889 L 25.5,3.0694 L 25.5,3.25 L 25.5,3.4306 L 25.5,3.6111 L 25.5,3.7917 L 25.5,3.9722 L 25.5,4.1528 L 25.5,4.3333 L 25.5,4.5139 L 25.5,4.6944 L 25.5,4.875 L 25.5,5.0556 L 25.5,5.2361 L 25.5,5.4167 L 25.5,5.5972 L 25.5,5.7778 L 25.5,5.9583 L 25.5,6.1389 L 25.5,6.3194 L 25.5,6.5" />
      <path d="M 25.5,6.5 L 25.4583,6.5 L 25.4167,6.5 L 25.375,6.5 L 25.3333,6.5 L 25.2917,6.5 L 25.25,6.5 L 25.2083,6.5 L 25.1667,6.5 L 25.125,6.5 L 25.0833,6.5 L 25.0417,6.5 L 25.0,6.5 L 24.9583,6.5 L 24.9167,6.5 L 24.875,6.5 L 24.8333,6.5 L 24.7917,6.5 L 24.75,6.5 L 24.7083,6.5 L 24.6667,6.5 L 24.625,6.5 L 24.5833,6.5 L 24.5417,6.5 L 24.5,6.5 L 24.4583,6.5 L 24.4167,6.5 L 24.375,6.5 L 24.3333,6.5 L 24.2917,6.5 L 24.25,6.5 L 24.2083,6.5 L 24.1667,6.5 L 24.125,6.5 L 24.0833,6.5 L 24.0417,6.5 L 24.0,6.5 L 23.9583,6.5 L 23.9167,6.5 L 23.875,6.5 L 23.8333,6.5 L 23.7917,6.5 L 23.75,6.5 L 23.7083,6.5 L 23.6667,6.5 L 23.625,6.5 L 23.5833,6.5 L 23.5417,6.5 L 23.5,6.5 L 23.4583,6.5 L 23.4167,6.5 L 23.375,6.5 L 23.3333,6.5 L 23.2917,6.5 L 23.25,6.5 L 23.2083,6.5 L 23.1667,6.5 L 23.125,6.5 L 23.0833,6.5 L 23.0417,6.5 L 23.0,6.5 L 22.9583,6.5 L 22.9167,6.5 L 22.875,6.5 L 22.8333,6.5 L 22.7917,6.5 L 22.75,6.5 L 22.7083,6.5 L 22.6667,6.5 L 22.625,6.5 L 22.5833,6.5 L 22.5417,6.5 L 22.5,6.5" />
      <path d="M 25.5,-6.5 L 25.4583,-6.5 L 25.4167,-6.5 L 25.375,-6.5 L 25.3333,-6.5 L 25.2917,-6.5 L 25.25,-6.5 L 25.2083,-6.5 L 25.1667,-6.5 L 25.125,-6.5 L 25.0833,-6.5 L 25.0417,-6.5 L 25.0,-6.5 L 24.9583,-6.5 L 24.9167,-6.5 L 24.875,-6.5 L 24.8333,-6.5 L 24.7917,-6.5 L 24.75,-6.5 L 24.7083,-6.5 L 24.6667,-6.5 L 24.625,-6.5 L 24.5833,-6.5 L 24.5417,-6.5 L 24.5,-6.5 L 24.4583,-6.5 L 24.4167,-6.5 L 24.375,-6.5 L 24.3333,-6.5 L 24.2917,-6.5 L 24.25,-6.5 L 24.2083,-6.5 L 24.1667,-6.5 L 24.125,-6.5 L 24.0833,-6.5 L 24.0417,-6.5 L 24.0,-6.5 L 23.9583,-6.5 L 23.9167,-6.5 L 23.875,-6.5 L 23.8333,-6.5 L 23.7917,-6.5 L 23.75,-6.5 L 23.7083,-6.5 L 23.6667,-6.5 L 23.625,-6.5 L 23.5833,-6.5 L 23.5417,-6.5 L 23.5,-6.5 L 23.4583,-6.5 L 23.4167,-6.5 L 23.375,-6.5 L 23.3333,-6.5 L 23.2917,-6.5 L 23.25,-6.5 L 23.2083,-6.5 L 23.1667,-6.5 L 23.125,-6.5 L 23.0833,-6.5 L 23.0417,-6.5 L 23.0,-6.5 L 22.9583,-6.5 L 22.9167,-6.5 L 22.875,-6.5 L 22.8333,-6.5 L 22.7917,-6.5 L 22.75,-6.5 L 22.7083,-6.5 L 22.6667,-6.5 L 22.625,-6.5 L 22.5833,-6.5 L 22.5417,-6.5 L 22.5,-6.5" />
    </g>
    <g fill="none" stroke="rgb(0,0,0)" stroke-width="0.2" id="Center" stroke-dasharray="6.35 1.27 1.27 1.27">
      <line x1="0.0" y1="0.0" x2="-21.46" y2="0.0" />
      <line x1="0.0" y1="0.0" x2="21.46" y2="0.0" />
      <line x1="0.0" y1="0.0" x2="0.0" y2="-21.46" />
      <line x1="0.0" y1="0.0" x2="0.0" y2="21.46" />
      <line x1="24.0" y1="0.0" x2="19.54" y2="0.0" />
      <line x1="24.0" y1="0.0" x2="28.46" y2="0.0" />
    </g>
  </g>
</svg>