<?xml version='1.0' encoding='utf-8'?>
<svg width="40.4mm" height="33.4mm" viewBox="-16.7 -16.7 40.4 33.4" version="1.1" xmlns="http://www.w3.org/2000/svg">
  <g transform="scale(1,-1)" stroke-linecap="round">
    <g fill="none" stroke="rgb(0,0,0)" stroke-width="0.4" id="Visible">
      <path d="M 12.5,0.0 L 12.4524,1.0894 L 12.3101,2.1706 L 12.0741,3.2352 L 11.7462,4.2753 L 11.3288,5.2827 L 10.8253,6.25 L 10.2394,7.1697 L 9.5756,8.0348 L 8.8388,8.8388 L 8.0348,9.5756 L 7.1697,10.2394 L 6.25,10.8253 L 5.2827,11.3288 L 4.2753,11.7462 L 3.2352,12.0741 L 2.1706,12.3101 L 1.0894,12.4524 L -0.0,12.5 L -1.0894,12.4524 L -2.1706,12.3101 L -3.2352,12.0741 L -4.2753,11.7462 L -5.2827,11.3288 L -6.25,10.8253 L -7.1697,10.2394 L -8.0348,9.5756 L -8.8388,8.8388 L -9.5756,8.0348 L -10.2394,7.1697 L -10.8253,6.25 L -11.3288,5.2827 L -11.7462,4.2753 L -12.0741,3.2352 L -12.3101,2.1706 L -12.4524,1.0894 L -12.5,0.0 L -12.4524,-1.0894 L -12.3101,-2.1706 L -12.0741,-3.2352 L -11.7462,-4.2753 L -11.3288,-5.2827 L -10.8253,-6.25 L -10.2394,-7.1697 L -9.5756,-8.0348 L -8.8388,-8.8388 L -8.0348,-9.5756 L -7.1697,-10.2394 L -6.25,-10.8253 L -5.2827,-11.3288 L -4.2753,-11.7462 L -3.2352,-12.0741 L -2.1706,-12.3101 L -1.0894,-12.4524 L 0.0,-12.5 L 1.0894,-12.4524 L 2.1706,-12.3101 L 3.2352,-12.0741 L 4.2753,-11.7462 L 5.2827,-11.3288 L 6.25,-10.8253 L 7.1697,-10.2394 L 8.0348,-9.5756 L 8.8388,-8.8388 L 9.5756,-8.0348 L 10.2394,-7.1697 L 10.8253,-6.25 L 11.3288,-5.2827 L 11.7462,-4.2753 L 12.0741,-3.2352 L 12.3101,-2.1706 L 12.4524,-1.0894 L 12.5,-0.0" />
      <path d="M 6.0,0.0 L 5.9772,0.5229 L 5.9088,1.0419 L 5.7956,1.5529 L 5.6382,2.0521 L 5.4378,2.5357 L 5.1962,3.0 L 4.9149,3.4415 L 4.5963,3.8567 L 4.2426,4.2426 L 3.8567,4.5963 L 3.4415,4.9149 L 3.0,5.1962 L 2.5357,5.4378 L 2.0521,5.6382 L 1.5529,5.7956 L 1.0419,5.9088 L 0.5229,5.9772 L 0.0,6.0 L -0.5229,5.9772 L -1.0419,5.9088 L -1.5529,5.7956 L -2.0521,5.6382 L -2.5357,5.4378 L -3.0,5.1962 L -3.4415,4.9149 L -3.8567,4.5963 L -4.2426,4.2426 L -4.5963,3.8567 L -4.9149,3.4415 L -5.1962,3.0 L -5.4378,2.5357 L -5.6382,2.0521 L -5.7956,1.5529 L -5.9088,1.0419 L -5.9772,0.5229 L -6.0,-0.0 L -5.9772,-0.5229 L -5.9088,-1.0419 L -5.7956,-1.5529 L -5.6382,-2.0521 L -5.4378,-2.5357 L -5.1962,-3.0 L -4.9149,-3.4415 L -4.5963,-3.8567 L -4.2426,-4.2426 L -3.8567,-4.5963 L -3.4415,-4.9149 L -3.0,-5.1962 L -2.5357,-5.4378 L -2.0521,-5.6382 L -1.5529,-5.7956 L -1.0419,-5.9088 L -0.5229,-5.9772 L -0.0,-6.0 L 0.5229,-5.9772 L 1.0419,-5.9088 L 1.5529,-5.7956 L 2.0521,-5.6382 L 2.5357,-5.4378 L 3.0,-5.1962 L 3.4415,-4.9149 L 3.8567,-4.5963 L 4.2426,-4.2426 L 4.5963,-3.8567 L 4.9149,-3.4415 L 5.1962,-3.0 L 5.4378,-2.5357 L 5.6382,-2.0521 L 5.7956,-1.5529 L 5.9088,-1.0419 L 5.9772,-0.5229 L 6.0,0.0" />
      <path d="M 16.5,-12.5 L 16.5,-12.1528 L 16.5,-11.8056 L 16.5,-11.4583 L 16.5,-11.1111 L 16.5,-10.7639 L 16.5,-10.4167 L 16.5,-10.0694 L 16.5,-9.7222 L 16.5,-9.375 L 16.5,-9.0278 L 16.5,-8.6806 L 16.5,-8.3333 L 16.5,-7.9861 L 16.5,-7.6389 L 16.5,-7.2917 L 16.5,-6.9444 L 16.5,-6.5972 L 16.5,-6.25 L 16.5,-5.9028 L 16.5,-5.5556 L 16.5,-5.2083 L 16.5,-4.8611 L 16.5,-4.5139 L 16.5,-4.1667 L 16.5,-3.8194 L 16.5,-3.4722 L 16.5,-3.125 L 16.5,-2.7778 L 16.5,-2.4306 L 16.5,-2.0833 L 16.5,-1.7361 L 16.5,-1.3889 L 16.5,-1.0417 L 16.5,-0.6944 L 16.5,-0.3472 L 16.5,0.0 L 16.5,0.3472 L 16.5,0.6944 L 16.5,1.0417 L 16.5,1.3889 L 16.5,1.7361 L 16.5,2.0833 L 16.5,2.4306 L 16.5,2.7778 L 16.5,3.125 L 16.5,3.4722 L 16.5,3.8194 L 16.5,4.1667 L 16.5,4.5139 L 16.5,4.8611 L 16.5,5.2083 L 16.5,5.5556 L 16.5,5.9028 L 16.5,6.25 L 16.5,6.5972 L 16.5,6.9444 L 16.5,7.2917 L 16.5,7.6389 L 16.5,7.9861 L 16.5,8.3333 L 16.5,8.6806 L 16.5,9.0278 L 16.5,9.375 L 16.5,9.7222 L 16.5,10.0694 L 16.5,10.4167 L 16.5,10.7639 L 16.5,11.1111 L 16.5,11.4583 L 16.5,11.8056 L 16.5,12.1528 L 16.5,12.5" />
      <path d="M 19.5,12.5 L 19.4583,12.5 L 19.4167,12.5 L 19.375,12.5 L 19.3333,12.5 L 19.2917,12.5 L 19.25,12.5 L 19.2083,12.5 L 19.1667,12.5 L 19.125,12.5 L 19.0833,12.5 L 19.0417,12.5 L 19.0,12.5 L 18.9583,12.5 L 18.9167,12.5 L 18.875,12.5 L 18.8333,12.5 L 18.7917,12.5 L 18.75,12.5 L 18.7083,12.5 L 18.6667,12.5 L 18.625,12.5 L 18.5833,12.5 L 18.5417,12.5 L 18.5,12.5 L 18.4583,12.5 L 18.4167,12.5 L 18.375,12.5 L 18.3333,12.5 L 18.2917,12.5 L 18.25,12.5 L 18.2083,12.5 L 18.1667,12.5 L 18.125,12.5 L 18.0833,12.5 L 18.0417,12.5 L 18.0,12.5 L 17.9583,12.5 L 17.9167,12.5 L 17.875,12.5 L 17.8333,12.5 L 17.7917,12.5 L 17.75,12.5 L 17.7083,12.5 L 17.6667,12.5 L 17.625,12.5 L 17.5833,12.5 L 17.5417,12.5 L 17.5,12.5 L 17.4583,12.5 L 17.4167,12.5 L 17.375,12.5 L 17.3333,12.5 L 17.2917,12.5 L 17.25,12.5 L 17.2083,12.5 L 17.1667,12.5 L 17.125,12.5 L 17.0833,12.5 L 17.0417,12.5 L 17.0,12.5 L 16.9583,12.5 L 16.9167,12.5 L 16.875,12.5 L 16.8333,12.5 L 16.7917,12.5 L 16.75,12.5 L 16.7083,12.5 L 16.6667,12.5 L 16.625,12.5 L 16.5833,12.5 L 16.5417,12.5 L 16.5,12.5" />
      <path d="M 19.5,-12.5 L 19.5,-12.1528 L 19.5,-11.8056 L 19.5,-11.4583 L 19.5,-11.1111 L 19.5,-10.7639 L 19.5,-10.4167 L 19.5,-10.0694 L 19.5,-9.7222 L 19.5,-9.375 L 19.5,-9.0278 L 19.5,-8.6806 L 19.5,-8.3333 L 19.5,-7.9861 L 19.5,-7.6389 L 19.5,-7.2917 L 19.5,-6.9444 L 19.5,-6.5972 L 19.5,-6.25 L 19.5,-5.9028 L 19.5,-5.5556 L 19.5,-5.2083 L 19.5,-4.8611 L 19.5,-4.5139 L 19.5,-4.1667 L 19.5,-3.8194 L 19.5,-3.4722 L 19.5,-3.125 L 19.5,-2.7778 L 19.5,-2.4306 L 19.5,-2.0833 L 19.5,-1.7361 L 19.5,-1.3889 L 19.5,-1.0417 L 19.5,-0.6944 L 19.5,-0.3472 L 19.5,0.0 L 19.5,0.3472 L 19.5,0.6944 L 19.5,1.0417 L 19.5,1.3889 L 19.5,1.7361 L 19.5,2.0833 L 19.5,2.4306 L 19.5,2.7778 L 19.5,3.125 L 19.5,3.4722 L 19.5,3.8194 L 19.5,4.1667 L 19.5,4.5139 L 19.5,4.8611 L 19.5,5.2083 L 19.5,5.5556 L 19.5,5.9028 L 19.5,6.25 L 19.5,6.5972 L 19.5,6.9444 L 19.5,7.2917 L 19.5,7.6389 L 19.5,7.9861 L 19.5,8.3333 L 19.5,8.6806 L 19.5,9.0278 L 19.5,9.375 L 19.5,9.7222 L 19.5,10.0694 L 19.5,10.4167 L 19.5,10.7639 L 19.5,11.1111 L 19.5,11.4583 L 19.5,11.8056 L 19.5,12.1528 L 19.5,12.5" />
      <path d="M 19.5,-12.5 L 19.4583,-12.5 L 19.4167,-12.5 L 19.375,-12.5 L 19.3333,-12.5 L 19.2917,-12.5 L 19.25,-12.5 L 19.2083,-12.5 L 19.1667,-12.5 L 19.125,-12.5 L 19.0833,-12.5 L 19.0417,-12.5 L 19.0,-12.5 L 18.9583,-12.5 L 18.9167,-12.5 L 18.875,-12.5 L 18.8333,-12.5 L 18.7917,-12.5 L 18.75,-12.5 L 18.7083,-12.5 L 18.6667,-12.5 L 18.625,-12.5 L 18.5833,-12.5 L 18.5417,-12.5 L 18.5,-12.5 L 18.4583,-12.5 L 18.4167,-12.5 L 18.375,-12.5 L 18.3333,-12.5 L 18.2917,-12.5 L 18.25,-12.5 L 18.2083,-12.5 L 18.1667,-12.5 L 18.125,-12.5 L 18.0833,-12.5 L 18.0417,-12.5 L 18.0,-12.5 L 17.9583,-12.5 L 17.9167,-12.5 L 17.875,-12.5 L 17.8333,-12.5 L 17.7917,-12.5 L 17.75,-12.5 L 17.7083,-12.5 L 17.6667,-12.5 L 17.625,-12.5 L 17.5833,-12.5 L 17.5417,-12.5 L 17.5,-12.5 L 17.4583,-12.5 L 17.4167,-12.5 L 17.375,-12.5 L 17.3333,-12.5 L 17.2917,-12.5 L 17.25,-12.5 L 17.2083,-12.5 L 17.1667,-12.5 L 17.125,-12.5 L 17.0833,-12.5 L 17.0417,-12.5 L 17.0,-12.5 L 16.9583,-12.5 L 16.9167,-12.5 L 16.875,-12.5 L 16.8333,-12.5 L 16.7917,-12.5 L 16.75,-12.5 L 16.7083,-12.5 L 16.6667,-12.5 L 16.625,-12.5 L 16.5833,-12.5 L 16.5417,-12.5 L 16.5,-12.5" />
    </g>
    <g fill="none" stroke="rgb(110,110,110)" stroke-width="0.3" id="Hidden" stroke-dasharray="3.6 0.9">
      <path d="M 12.5,0.0 L 12.4524,1.0894 L 12.3101,2.1706 L 12.0741,3.2352 L 11.7462,4.2753 L 11.3288,5.2827 L 10.8253,6.25 L 10.2394,7.1697 L 9.5756,8.0348 L 8.8388,8.8388 L 8.0348,9.5756 L 7.1697,10.2394 L 6.25,10.8253 L 5.2827,11.3288 L 4.2753,11.7462 L 3.2352,12.0741 L 2.1706,12.3101 L 1.0894,12.4524 L -0.0,12.5 L -1.0894,12.4524 L -2.1706,12.3101 L -3.2352,12.0741 L -4.2753,11.7462 L -5.2827,11.3288 L -6.25,10.8253 L -7.1697,10.2394 L -8.0348,9.5756 L -8.8388,8.8388 L -9.5756,8.0348 L -10.2394,7.1697 L -10.8253,6.25 L -11.3288,5.2827 L -11.7462,4.2753 L -12.0741,3.2352 L -12.3101,2.1706 L -12.4524,1.0894 L -12.5,0.0 L -12.4524,-1.0894 L -12.3101,-2.1706 L -12.0741,-3.2352 L -11.7462,-4.2753 L -11.3288,-5.2827 L -10.8253,-6.25 L -10.2394,-7.1697 L -9.5756,-8.0348 L -8.8388,-8.8388 L -8.0348,-9.5756 L -7.1697,-10.2394 L -6.25,-10.8253 L -5.2827,-11.3288 L -4.2753,-11.7462 L -3.2352,-12.0741 L -2.1706,-12.3101 L -1.0894,-12.4524 L 0.0,-12.5 L 1.0894,-12.4524 L 2.1706,-12.3101 L 3.2352,-12.0741 L 4.2753,-11.7462 L 5.2827,-11.3288 L 6.25,-10.8253 L 7.1697,-10.2394 L 8.0348,-9.5756 L 8.8388,-8.8388 L 9.5756,-8.0348 L 10.2394,-7.1697 L 10.8253,-6.25 L 11.3288,-5.2827 L 11.7462,-4.2753 L 12.0741,-3.2352 L 12.3101,-2.1706 L 12.4524,-1.0894 L 12.5,-0.0" />
      <path d="M 6.0,0.0 L 5.9772,0.5229 L 5.9088,1.0419 L 5.7956,1.5529 L 5.6382,2.0521 L 5.4378,2.5357 L 5.1962,3.0 L 4.9149,3.4415 L 4.5963,3.8567 L 4.2426,4.2426 L 3.8567,4.5963 L 3.4415,4.9149 L 3.0,5.1962 L 2.5357,5.4378 L 2.0521,5.6382 L 1.5529,5.7956 L 1.0419,5.9088 L 0.5229,5.9772 L 0.0,6.0 L -0.5229,5.9772 L -1.0419,5.9088 L -1.5529,5.7956 L -2.0521,5.6382 L -2.5357,5.4378 L -3.0,5.1962 L -3.4415,4.9149 L -3.8567,4.5963 L -4.2426,4.2426 L -4.5963,3.8567 L -4.9149,3.4415 L -5.1962,3.0 L -5.4378,2.5357 L -5.6382,2.0521 L -5.7956,1.5529 L -5.9088,1.0419 L -5.9772,0.5229 L -6.0,-0.0 L -5.9772,-0.5229 L -5.9088,-1.0419 L -5.7956,-1.5529 L -5.6382,-2.0521 L -5.4378,-2.5357 L -5.1962,-3.0 L -4.9149,-3.4415 L -4.5963,-3.8567 L -4.2426,-4.2426 L -3.8567,-4.5963 L -3.4415,-4.9149 L -3.0,-5.1962 L -2.5357,-5.4378 L -2.0521,-5.6382 L -1.5529,-5.7956 L -1.0419,-5.9088 L -0.5229,-5.9772 L -0.0,-6.0 L 0.5229,-5.9772 L 1.0419,-5.9088 L 1.5529,-5.7956 L 2.0521,-5.6382 L 2.5357,-5.4378 L 3.0,-5.1962 L 3.4415,-4.9149 L 3.8567,-4.5963 L 4.2426,-4.2426 L 4.5963,-3.8567 L 4.9149,-3.4415 L 5.1962,-3.0 L 5.4378,-2.5357 L 5.6382,-2.0521 L 5.7956,-1.5529 L 5.9088,-1.0419 L 5.9772,-0.5229 L 6.0,0.0" />
      <path d="M 16.5,12.5 L 16.5,12.1528 L 16.5,11.8056 L 16.5,11.4583 L 16.5,11.1111 L 16.5,10.7639 L 16.5,10.4167 L 16.5,10.0694 L 16.5,9.7222 L 16.5,9.375 L 16.5,9.0278 L 16.5,8.6806 L 16.5,8.3333 L 16.5,7.9861 L 16.5,7.6389 L 16.5,7.2917 L 16.5,6.9444 L 16.5,6.5972 L 16.5,6.25 L 16.5,5.9028 L 16.5,5.5556 L 16.5,5.2083 L 16.5,4.8611 L 16.5,4.5139 L 16.5,4.1667 L 16.5,3.8194 L 16.5,3.4722 L 16.5,3.125 L 16.5,2.7778 L 16.5,2.4306 L 16.5,2.0833 L 16.5,1.7361 L 16.5,1.3889 L 16.5,1.0417 L 16.5,0.6944 L 16.5,0.3472 L 16.5,0.0 L 16.5,-0.3472 L 16.5,-0.6944 L 16.5,-1.0417 L 16.5,-1.3889 L 16.5,-1.7361 L 16.5,-2.0833 L 16.5,-2.4306 L 16.5,-2.7778 L 16.5,-3.125 L 16.5,-3.4722 L 16.5,-3.8194 L 16.5,-4.1667 L 16.5,-4.5139 L 16.5,-4.8611 L 16.5,-5.2083 L 16.5,-5.5556 L 16.5,-5.9028 L 16.5,-6.25 L 16.5,-6.5972 L 16.5,-6.9444 L 16.5,-7.2917 L 16.5,-7.6389 L 16.5,-7.9861 L 16.5,-8.3333 L 16.5,-8.6806 L 16.5,-9.0278 L 16.5,-9.375 L 16.5,-9.7222 L 16.5,-10.0694 L 16.5,-10.4167 L 16.5,-10.7639 L 16.5,-11.1111 L 16.5,-11.4583 L 16.5,-11.8056 L 16.5,-12.1528 L 16.5,-12.5" />
      <path d="M 19.5,12.5 L 19.5,12.1528 L 19.5,11.8056 L 19.5,11.4583 L 19.5,11.1111 L 19.5,10.7639 L 19.5,10.4167 L 19.5,10.0694 L 19.5,9.7222 L 19.5,9.375 L 19.5,9.0278 L 19.5,8.6806 L 19.5,8.3333 L 19.5,7.9861 L 19.5,7.6389 L 19.5,7.2917 L 19.5,6.9444 L 19.5,6.5972 L 19.5,6.25 L 19.5,5.9028 L 19.5,5.5556 L 19.5,5.2083 L 19.5,4.8611 L 19.5,4.5139 L 19.5,4.1667 L 19.5,3.8194 L 19.5,3.4722 L 19.5,3.125 L 19.5,2.7778 L 19.5,2.4306 L 19.5,2.0833 L 19.5,1.7361 L 19.5,1.3889 L 19.5,1.0417 L 19.5,0.6944 L 19.5,0.3472 L 19.5,0.0 L 19.5,-0.3472 L 19.5,-0.6944 L 19.5,-1.0417 L 19.5,-1.3889 L 19.5,-1.7361 L 19.5,-2.0833 L 19.5,-2.4306 L 19.5,-2.7778 L 19.5,-3.125 L 19.5,-3.4722 L 19.5,-3.8194 L 19.5,-4.1667 L 19.5,-4.5139 L 19.5,-4.8611 L 19.5,-5.2083 L 19.5,-5.5556 L 19.5,-5.9028 L 19.5,-6.25 L 19.5,-6.5972 L 19.5,-6.9444 L 19.5,-7.2917 L 19.5,-7.6389 L 19.5,-7.9861 L 19.5,-8.3333 L 19.5,-8.6806 L 19.5,-9.0278 L 19.5,-9.375 L 19.5,-9.7222 L 19.5,-10.0694 L 19.5,-10.4167 L 19.5,-10.7639 L 19.5,-11.1111 L 19.5,-11.4583 L 19.5,-11.8056 L 19.5,-12.1528 L 19.5,-12.5" />
      <path d="M 16.5,6.0 L 16.5,5.8333 L 16.5,5.6667 L 16.5,5.5 L 16.5,5.3333 L 16.5,5.1667 L 16.5,5.0 L 16.5,4.8333 L 16.5,4.6667 L 16.5,4.5 L 16.5,4.3333 L 16.5,4.1667 L 16.5,4.0 L 16.5,3.8333 L 16.5,3.6667 L 16.5,3.5 L 16.5,3.3333 L 16.5,3.1667 L 16.5,3.0 L 16.5,2.8333 L 16.5,2.6667 L 16.5,2.5 L 16.5,2.3333 L 16.5,2.1667 L 16.5,2.0 L 16.5,1.8333 L 16.5,1.6667 L 16.5,1.5 L 16.5,1.3333 L 16.5,1.1667 L 16.5,1.0 L 16.5,0.8333 L 16.5,0.6667 L 16.5,0.5 L 16.5,0.3333 L 16.5,0.1667 L 16.5,0.0 L 16.5,-0.1667 L 16.5,-0.3333 L 16.5,-0.5 L 16.5,-0.6667 L 16.5,-0.8333 L 16.5,-1.0 L 16.5,-1.1667 L 16.5,-1.3333 L 16.5,-1.5 L 16.5,-1.6667 L 16.5,-1.8333 L 16.5,-2.0 L 16.5,-2.1667 L 16.5,-2.3333 L 16.5,-2.5 L 16.5,-2.6667 L 16.5,-2.8333 L 16.5,-3.0 L 16.5,-3.1667 L 16.5,-3.3333 L 16.5,-3.5 L 16.5,-3.6667 L 16.5,-3.8333 L 16.5,-4.0 L 16.5,-4.1667 L 16.5,-4.3333 L 16.5,-4.5 L 16.5,-4.6667 L 16.5,-4.8333 L 16.5,-5.0 L 16.5,-5.1667 L 16.5,-5.3333 L 16.5,-5.5 L 16.5,-5.6667 L 16.5,-5.8333 L 16.5,-6.0" />
      <path d="M 16.5,-6.0 L 16.5,-5.8333 L 16.5,-5.6667 L 16.5,-5.5 L 16.5,-5.3333 L 16.5,-5.1667 L 16.5,-5.0 L 16.5,-4.8333 L 16.5,-4.6667 L 16.5,-4.5 L 16.5,-4.3333 L 16.5,-4.1667 L 16.5,-4.0 L 16.5,-3.8333 L 16.5,-3.6667 L 16.5,-3.5 L 16.5,-3.3333 L 16.5,-3.1667 L 16.5,-3.0 L 16.5,-2.8333 L 16.5,-2.6667 L 16.5,-2.5 L 16.5,-2.3333 L 16.5,-2.1667 L 16.5,-2.0 L 16.5,-1.8333 L 16.5,-1.6667 L 16.5,-1.5 L 16.5,-1.3333 L 16.5,-1.1667 L 16.5,-1.0 L 16.5,-0.8333 L 16.5,-0.6667 L 16.5,-0.5 L 16.5,-0.3333 L 16.5,-0.1667 L 16.5,0.0 L 16.5,0.1667 L 16.5,0.3333 L 16.5,0.5 L 16.5,0.6667 L 16.5,0.8333 L 16.5,1.0 L 16.5,1.1667 L 16.5,1.3333 L 16.5,1.5 L 16.5,1.6667 L 16.5,1.8333 L 16.5,2.0 L 16.5,2.1667 L 16.5,2.3333 L 16.5,2.5 L 16.5,2.6667 L 16.5,2.8333 L 16.5,3.0 L 16.5,3.1667 L 16.5,3.3333 L 16.5,3.5 L 16.5,3.6667 L 16.5,3.8333 L 16.5,4.0 L 16.5,4.1667 L 16.5,4.3333 L 16.5,4.5 L 16.5,4.6667 L 16.5,4.8333 L 16.5,5.0 L 16.5,5.1667 L 16.5,5.3333 L 16.5,5.5 L 16.5,5.6667 L 16.5,5.8333 L 16.5,6.0" />
      <path d="M 19.5,6.0 L 19.5,5.8333 L 19.5,5.6667 L 19.5,5.5 L 19.5,5.3333 L 19.5,5.1667 L 19.5,5.0 L 19.5,4.8333 L 19.5,4.6667 L 19.5,4.5 L 19.5,4.3333 L 19.5,4.1667 L 19.5,4.0 L 19.5,3.8333 L 19.5,3.6667 L 19.5,3.5 L 19.5,3.3333 L 19.5,3.1667 L 19.5,3.0 L 19.5,2.8333 L 19.5,2.6667 L 19.5,2.5 L 19.5,2.3333 L 19.5,2.1667 L 19.5,2.0 L 19.5,1.8333 L 19.5,1.6667 L 19.5,1.5 L 19.5,1.3333 L 19.5,1.1667 L 19.5,1.0 L 19.5,0.8333 L 19.5,0.6667 L 19.5,0.5 L 19.5,0.3333 L 19.5,0.1667 L 19.5,0.0 L 19.5,-0.1667 L 19.5,-0.3333 L 19.5,-0.5 L 19.5,-0.6667 L 19.5,-0.8333 L 19.5,-1.0 L 19.5,-1.1667 L 19.5,-1.3333 L 19.5,-1.5 L 19.5,-1.6667 L 19.5,-1.8333 L 19.5,-2.0 L 19.5,-2.1667 L 19.5,-2.3333 L 19.5,-2.5 L 19.5,-2.6667 L 19.5,-2.8333 L 19.5,-3.0 L 19.5,-3.1667 L 19.5,-3.3333 L 19.5,-3.5 L 19.5,-3.6667 L 19.5,-3.8333 L 19.5,-4.0 L 19.5,-4.1667 L 19.5,-4.3333 L 19.5,-4.5 L 19.5,-4.6667 L 19.5,-4.8333 L 19.5,-5.0 L 19.5,-5.1667 L 19.5,-5.3333 L 19.5,-5.5 L 19.5,-5.6667 L 19.5,-5.8333 L 19.5,-6.0" />
      <path d="M 19.5,-6.0 L 19.5,-5.8333 L 19.5,-5.6667 L 19.5,-5.5 L 19.5,-5.3333 L 19.5,-5.1667 L 19.5,-5.0 L 19.5,-4.8333 L 19.5,-4.6667 L 19.5,-4.5 L 19.5,-4.3333 L 19.5,-4.1667 L 19.5,-4.0 L 19.5,-3.8333 L 19.5,-3.6667 L 19.5,-3.5 L 19.5,-3.3333 L 19.5,-3.1667 L 19.5,-3.0 L 19.5,-2.8333 L 19.5,-2.6667 L 19.5,-2.5 L 19.5,-2.3333 L 19.5,-2.1667 L 19.5,-2.0 L 19.5,-1.8333 L 19.5,-1.6667 L 19.5,-1.5 L 19.5,-1.3333 L 19.5,-1.1667 L 19.5,-1.0 L 19.5,-0.8333 L 19.5,-0.6667 L 19.5,-0.5 L 19.5,-0.3333 L 19.5,-0.1667 L 19.5,0.0 L 19.5,0.1667 L 19.5,0.3333 L 19.5,0.5 L 19.5,0.6667 L 19.5,0.8333 L 19.5,1.0 L 19.5,1.1667 L 19.5,1.3333 L 19.5,1.5 L 19.5,1.6667 L 19.5,1.8333 L 19.5,2.0 L 19.5,2.1667 L 19.5,2.3333 L 19.5,2.5 L 19.5,2.6667 L 19.5,2.8333 L 19.5,3.0 L 19.5,3.1667 L 19.5,3.3333 L 19.5,3.5 L 19.5,3.6667 L 19.5,3.8333 L 19.5,4.0 L 19.5,4.1667 L 19.5,4.3333 L 19.5,4.5 L 19.5,4.6667 L 19.5,4.8333 L 19.5,5.0 L 19.5,5.1667 L 19.5,5.3333 L 19.5,5.5 L 19.5,5.6667 L 19.5,5.8333 L 19.5,6.0" />
      <path d="M 19.5,6.0 L 19.4583,6.0 L 19.4167,6.0 L 19.375,6.0 L 19.3333,6.0 L 19.2917,6.0 L 19.25,6.0 L 19.2083,6.0 L 19.1667,6.0 L 19.125,6.0 L 19.0833,6.0 L 19.0417,6.0 L 19.0,6.0 L 18.9583,6.0 L 18.9167,6.0 L 18.875,6.0 L 18.8333,6.0 L 18.7917,6.0 L 18.75,6.0 L 18.7083,6.0 L 18.6667,6.0 L 18.625,6.0 L 18.5833,6.0 L 18.5417,6.0 L 18.5,6.0 L 18.4583,6.0 L 18.4167,6.0 L 18.375,6.0 L 18.3333,6.0 L 18.2917,6.0 L 18.25,6.0 L 18.2083,6.0 L 18.1667,6.0 L 18.125,6.0 L 18.0833,6.0 L 18.0417,6.0 L 18.0,6.0 L 17.9583,6.0 L 17.9167,6.0 L 17.875,6.0 L 17.8333,6.0 L 17.7917,6.0 L 17.75,6.0 L 17.7083,6.0 L 17.6667,6.0 L 17.625,6.0 L 17.5833,6.0 L 17.5417,6.0 L 17.5,6.0 L 17.4583,6.0 L 17.4167,6.0 L 17.375,6.0 L 17.3333,6.0 L 17.2917,6.0 L 17.25,6.0 L 17.2083,6.0 L 17.1667,6.0 L 17.125,6.0 L 17.0833,6.0 L 17.0417,6.0 L 17.0,6.0 L 16.9583,6.0 L 16.9167,6.0 L 16.875,6.0 L 16.8333,6.0 L 16.7917,6.0 L 16.75,6.0 L 16.7083,6.0 L 16.6667,6.0 L 16.625,6.0 L 16.5833,6.0 L 16.5417,6.0 L 16.5,6.0" />
      <path d="M 19.5,-6.0 L 19.4583,-6.0 L 19.4167,-6.0 L 19.375,-6.0 L 19.3333,-6.0 L 19.2917,-6.0 L 19.25,-6.0 L 19.2083,-6.0 L 19.1667,-6.0 L 19.125,-6.0 L 19.0833,-6.0 L 19.0417,-6.0 L 19.0,-6.0 L 18.9583,-6.0 L 18.9167,-6.0 L 18.875,-6.0 L 18.8333,-6.0 L 18.7917,-6.0 L 18.75,-6.0 L 18.7083,-6.0 L 18.6667,-6.0 L 18.625,-6.0 L 18.5833,-6.0 L 18.5417,-6.0 L 18.5,-6.0 L 18.4583,-6.0 L 18.4167,-6.0 L 18.375,-6.0 L 18.3333,-6.0 L 18.2917,-6.0 L 18.25,-6.0 L 18.2083,-6.0 L 18.1667,-6.0 L 18.125,-6.0 L 18.0833,-6.0 L 18.0417,-6.0 L 18.0,-6.0 L 17.9583,-6.0 L 17.9167,-6.0 L 17.875,-6.0 L 17.8333,-6.0 L 17.7917,-6.0 L 17.75,-6.0 L 17.7083,-6.0 L 17.6667,-6.0 L 17.625,-6.0 L 17.5833,-6.0 L 17.5417,-6.0 L 17.5,-6.0 L 17.4583,-6.0 L 17.4167,-6.0 L 17.375,-6.0 L 17.3333,-6.0 L 17.2917,-6.0 L 17.25,-6.0 L 17.2083,-6.0 L 17.1667,-6.0 L 17.125,-6.0 L 17.0833,-6.0 L 17.0417,-6.0 L 17.0,-6.0 L 16.9583,-6.0 L 16.9167,-6.0 L 16.875,-6.0 L 16.8333,-6.0 L 16.7917,-6.0 L 16.75,-6.0 L 16.7083,-6.0 L 16.6667,-6.0 L 16.625,-6.0 L 16.5833,-6.0 L 16.5417,-6.0 L 16.5,-6.0" />
    </g>
    <g fill="none" stroke="rgb(0,0,0)" stroke-width="0.2" id="Center" stroke-dasharray="6.35 1.27 1.27 1.27">
      <line x1="0.0" y1="0.0" x2="-14.5" y2="0.0" />
      <line x1="0.0" y1="0.0" x2="14.5" y2="0.0" />
      <line x1="0.0" y1="0.0" x2="0.0" y2="-14.5" />
      <line x1="0.0" y1="0.0" x2="0.0" y2="14.5" />
      <line x1="18.0" y1="0.0" x2="14.5" y2="0.0" />
      <line x1="18.0" y1="0.0" x2="21.5" y2="0.0" />
    </g>
  </g>
</svg>