<?xml version='1.0' encoding='utf-8'?>
<svg width="56.4mm" height="28.4mm" viewBox="-14.2 -14.2 56.4 28.4" version="1.1" xmlns="http://www.w3.org/2000/svg">
  <g transform="scale(1,-1)" stroke-linecap="round">
    <g fill="none" stroke="rgb(0,0,0)" stroke-width="0.4" id="Visible">
      <circle cx="0.0" cy="-0.0" r="12.0" />
      <circle cx="0.0" cy="-0.0" r="6.5" />
      <path d="M 16.0,1.25 L 16.3009,1.25 L 17.1884,1.25 L 18.618,1.25 L 20.5181,1.25 L 22.7934,1.25 L 25.3297,1.25 L 28.0,1.25 L 30.6703,1.25 L 33.2066,1.25 L 35.4819,1.25 L 37.382,1.25 L 38.8116,1.25 L 39.6991,1.25 L 40.0,1.25" />
      <line x1="40.0" y1="-1.25" x2="40.0" y2="1.25" />
      <path d="M 16.0,-1.25 L 16.3009,-1.25 L 17.1884,-1.25 L 18.618,-1.25 L 20.5181,-1.25 L 22.7934,-1.25 L 25.3297,-1.25 L 28.0,-1.25 L 30.6703,-1.25 L 33.2066,-1.25 L 35.4819,-1.25 L 37.382,-1.25 L 38.8116,-1.25 L 39.6991,-1.25 L 40.0,-1.25" />
      <line x1="16.0" y1="-1.25" x2="16.0" y2="1.25" />
    </g>
    <g fill="none" stroke="rgb(110,110,110)" stroke-width="0.3" id="Hidden" stroke-dasharray="3.6 0.9">
      <circle cx="0.0" cy="-0.0" r="12.0" />
      <circle cx="0.0" cy="-0.0" r="6.5" />
      <path d="M 40.0,1.25 L 39.6991,1.25 L 38.8116,1.25 L 37.382,1.25 L 35.4819,1.25 L 33.2066,1.25 L 30.6703,1.25 L 28.0,1.25 L 25.3297,1.25 L 22.7934,1.25 L 20.5181,1.25 L 18.618,1.25 L 17.1884,1.25 L 16.3009,1.25 L 16.0,1.25" />
      <path d="M 40.0,-1.25 L 39.6991,-1.25 L 38.8116,-1.25 L 37.382,-1.25 L 35.4819,-1.25 L 33.2066,-1.25 L 30.6703,-1.25 L 28.0,-1.25 L 25.3297,-1.25 L 22.7934,-1.25 L 20.5181,-1.25 L 18.618,-1.25 L 17.1884,-1.25 L 16.3009,-1.25 L 16.0,-1.25" />
      <path d="M 34.5,1.25 L 34.337,1.25 L 33.8563,1.25 L 33.0819,1.25 L 32.0527,1.25 L 30.8202,1.25 L 29.4464,1.25 L 28.0,1.25 L 26.5536,1.25 L 25.1798,1.25 L 23.9473,1.25 L 22.9181,1.25 L 22.1437,1.25 L 21.663,1.25 L 21.5,1.25" />
      <path d="M 21.5,1.25 L 21.663,1.25 L 22.1437,1.25 L 22.9181,1.25 L 23.9473,1.25 L 25.1798,1.25 L 26.5536,1.25 L 28.0,1.25 L 29.4464,1.25 L 30.8202,1.25 L 32.0527,1.25 L 33.0819,1.25 L 33.8563,1.25 L 34.337,1.25 L 34.5,1.25" />
      <path d="M 34.5,-1.25 L 34.337,-1.25 L 33.8563,-1.25 L 33.0819,-1.25 L 32.0527,-1.25 L 30.8202,-1.25 L 29.4464,-1.25 L 28.0,-1.25 L 26.5536,-1.25 L 25.1798,-1.25 L 23.9473,-1.25 L 22.9181,-1.25 L 22.1437,-1.25 L 21.663,-1.25 L 21.5,-1.25" />
      <path d="M 21.5,-1.25 L 21.663,-1.25 L 22.1437,-1.25 L 22.9181,-1.25 L 23.9473,-1.25 L 25.1798,-1.25 L 26.5536,-1.25 L 28.0,-1.25 L 29.4464,-1.25 L 30.8202,-1.25 L 32.0527,-1.25 L 33.0819,-1.25 L 33.8563,-1.25 L 34.337,-1.25 L 34.5,-1.25" />
      <line x1="34.5" y1="-1.25" x2="34.5" y2="1.25" />
      <line x1="21.5" y1="-1.25" x2="21.5" y2="1.25" />
    </g>
  </g>
</svg>