<?xml version='1.0' encoding='utf-8'?>
<svg width="86.9196mm" height="38.4mm" viewBox="-21.8299 -19.2 86.9196 38.4" version="1.1" xmlns="http://www.w3.org/2000/svg">
  <g transform="scale(1,-1)" stroke-linecap="round">
    <g fill="none" stroke="rgb(0,0,0)" stroke-width="0.4" id="Visible">
      <line x1="19.6299" y1="-0.0" x2="9.815" y2="17.0" />
      <line x1="9.815" y1="-17.0" x2="19.6299" y2="0.0" />
      <line x1="9.815" y1="17.0" x2="-9.815" y2="17.0" />
      <line x1="-9.815" y1="-17.0" x2="9.815" y2="-17.0" />
      <line x1="-9.815" y1="17.0" x2="-19.6299" y2="0.0" />
      <line x1="-19.6299" y1="0.0" x2="-9.815" y2="-17.0" />
      <circle cx="-0.0" cy="-0.0" r="10.48" />
      <line x1="62.8897" y1="-4.25" x2="62.8897" y2="4.25" />
      <line x1="62.8897" y1="-4.25" x2="53.0748" y2="-4.3222" />
      <line x1="53.0748" y1="-4.1777" x2="53.0748" y2="4.3222" />
      <line x1="53.0748" y1="-4.1777" x2="62.8897" y2="-4.25" />
      <line x1="53.0748" y1="4.3222" x2="62.8897" y2="4.25" />
      <line x1="53.0748" y1="-4.3222" x2="33.4449" y2="-4.3222" />
      <line x1="33.4449" y1="-4.1777" x2="53.0748" y2="-4.1777" />
      <line x1="33.4449" y1="-4.3222" x2="23.6299" y2="-4.25" />
      <line x1="23.6299" y1="-4.25" x2="33.4449" y2="-4.1777" />
      <path d="M 53.7398,-4.25 A 10.48,0.04453959775357417 7.46836805712834e-36 0,0 32.7798,-4.25" />
      <path d="M 32.7798,-4.25 A 10.48,0.04453959775357417 7.46836805712834e-36 0,0 53.7398,-4.25" />
      <line x1="33.4449" y1="4.3222" x2="53.0748" y2="4.3222" />
      <line x1="23.6299" y1="4.25" x2="33.4449" y2="4.3222" />
      <line x1="33.4449" y1="-4.1777" x2="33.4449" y2="4.3222" />
      <line x1="23.6299" y1="-4.25" x2="23.6299" y2="4.25" />
    </g>
    <g fill="none" stroke="rgb(110,110,110)" stroke-width="0.3" id="Hidden" stroke-dasharray="3.6 0.9">
      <line x1="19.6299" y1="-0.0" x2="9.815" y2="17.0" />
      <line x1="9.815" y1="-17.0" x2="19.6299" y2="0.0" />
      <line x1="9.815" y1="17.0" x2="-9.815" y2="17.0" />
      <line x1="-9.815" y1="-17.0" x2="9.815" y2="-17.0" />
      <line x1="-9.815" y1="17.0" x2="-19.6299" y2="0.0" />
      <line x1="-19.6299" y1="0.0" x2="-9.815" y2="-17.0" />
      <circle cx="-0.0" cy="-0.0" r="10.48" />
      <line x1="53.0748" y1="-4.3222" x2="53.0748" y2="4.1777" />
      <line x1="62.8897" y1="4.25" x2="53.0748" y2="4.1777" />
      <line x1="33.4449" y1="-4.3222" x2="33.4449" y2="4.1777" />
      <line x1="53.0748" y1="4.1777" x2="33.4449" y2="4.1777" />
      <line x1="33.4449" y1="4.1777" x2="23.6299" y2="4.25" />
      <path d="M 53.7398,4.25 A 10.48,0.04453959775357417 7.46836805712834e-36 0,0 32.7798,4.25" />
      <path d="M 32.7798,4.25 A 10.48,0.04453959775357417 7.46836805712834e-36 0,0 53.7398,4.25" />
      <line x1="53.7398" y1="-4.25" x2="53.7398" y2="4.25" />
      <line x1="32.7798" y1="-4.25" x2="32.7798" y2="4.25" />
    </g>
  </g>
</svg>